<?xml version="1.0" encoding="UTF-8" standalone="no"?>
<!DOCTYPE svg PUBLIC "-//W3C//DTD SVG 1.1//EN" "http://www.w3.org/Graphics/SVG/1.1/DTD/svg11.dtd">
<svg xmlns="http://www.w3.org/2000/svg" xmlns:xlink="http://www.w3.org/1999/xlink" xml:space="preserve" font-family="monospace" font-size="24" fill="rgb(255,255,255)" stroke="rgb(0,0,0)" viewBox="0 0 790 905">
<g transform="scale(0.350177)">
<path style="fill:none;stroke-width:3" stroke="rgb(0,0,0)" d="M1007,1148 Q980.5,1140.5 954,1133"/>
<path style="fill:none;stroke-width:3" stroke="rgb(0,0,0)" d="M999,1178 Q972.5,1170.5 946,1163"/>
<path style="fill:none;stroke-width:3" stroke="rgb(0,0,0)" d="M991,1208 Q964.5,1200.5 938,1193"/>
<path style="fill:none;stroke-width:3" stroke="rgb(0,0,0)" d="M983,1238 Q956.5,1230.5 930,1223"/>
<path style="fill:none;stroke-width:3" stroke="rgb(0,0,0)" d="M1154,474 Q1181,477.5 1208,481"/>
<path style="fill:none;stroke-width:3" stroke="rgb(0,0,0)" d="M1158,443 Q1185,446.5 1212,450"/>
<path style="fill:none;stroke-width:3" stroke="rgb(0,0,0)" d="M1162,412 Q1189,415.5 1216,419"/>
<path style="fill:none;stroke-width:3" stroke="rgb(0,0,0)" d="M1166,381 Q1193,384.5 1220,388"/>
<path style="fill:none;stroke-width:3" stroke="rgb(0,0,0)" d="M913,376 Q922,350 931,324"/>
<path style="fill:none;stroke-width:3" stroke="rgb(0,0,0)" d="M884,366 Q893,340 902,314"/>
<path style="fill:none;stroke-width:3" stroke="rgb(0,0,0)" d="M855,356 Q864,330 873,304"/>
<path style="fill:none;stroke-width:3" stroke="rgb(0,0,0)" d="M826,346 Q835,320 844,294"/>
<path style="fill:none;stroke-width:3" stroke="rgb(0,0,0)" d="M797,336 Q806,310 815,284"/>
<path style="fill:none;stroke-width:3" stroke="rgb(0,0,0)" d="M619,272 Q628,246 637,220"/>
<path style="fill:none;stroke-width:3" stroke="rgb(0,0,0)" d="M590,262 Q599,236 608,210"/>
<path style="fill:none;stroke-width:3" stroke="rgb(0,0,0)" d="M561,252 Q570,226 579,200"/>
<path style="fill:none;stroke-width:3" stroke="rgb(0,0,0)" d="M532,242 Q541,216 550,190"/>
<path style="fill:none;stroke-width:3" stroke="rgb(0,0,0)" d="M325,170 Q333.5,144 342,118"/>
<path style="fill:none;stroke-width:3" stroke="rgb(0,0,0)" d="M295,160 Q303.5,134 312,108"/>
<path style="fill:none;stroke-width:3" stroke="rgb(0,0,0)" d="M265,150 Q273.5,124 282,98"/>
<path style="fill:none;stroke-width:3" stroke="rgb(0,0,0)" d="M1467,470 Q1467,497.5 1467,525"/>
<path style="fill:none;stroke-width:3" stroke="rgb(0,0,0)" d="M1498,470 Q1498,497.5 1498,525"/>
<path style="fill:none;stroke-width:3" stroke="rgb(0,0,0)" d="M1529,470 Q1529,497.5 1529,525"/>
<path style="fill:none;stroke-width:3" stroke="rgb(0,0,0)" d="M1782,467 Q1782,494.5 1782,522"/>
<path style="fill:none;stroke-width:3" stroke="rgb(0,0,0)" d="M1813,467 Q1813,494.5 1813,522"/>
<path style="fill:none;stroke-width:3" stroke="rgb(0,0,0)" d="M1844,467 Q1844,494.5 1844,522"/>
<path style="fill:none;stroke-width:3" stroke="rgb(0,0,0)" d="M2003,464 Q2003.5,491.5 2004,519"/>
<path style="fill:none;stroke-width:3" stroke="rgb(0,0,0)" d="M2034,463 Q2034.5,490.5 2035,518"/>
<path style="fill:none;stroke-width:3" stroke="rgb(0,0,0)" d="M2065,462 Q2065.5,489.5 2066,517"/>
<line style="fill:none;stroke-width:1" stroke="rgb(0,0,0)" x1="1007" y1="1148" x2="999" y2="1178"/> <circle style="stroke-width:1" cx="1007" cy="1148" r="12" fill="rgb(255,255,255)" stroke="rgb(0,0,0)"/> <text x="999" y="1156" fill="rgb(255,171,0)" stroke="rgb(255,171,0)">G</text>
<line style="fill:none;stroke-width:1" stroke="rgb(0,0,0)" x1="999" y1="1178" x2="991" y2="1208"/> <circle style="stroke-width:1" cx="999" cy="1178" r="12" fill="rgb(255,255,255)" stroke="rgb(0,0,0)"/> <text x="991" y="1186" fill="rgb(255,171,0)" stroke="rgb(255,171,0)">G</text>
<line style="fill:none;stroke-width:1" stroke="rgb(0,0,0)" x1="991" y1="1208" x2="983" y2="1238"/> <circle style="stroke-width:1" cx="991" cy="1208" r="12" fill="rgb(255,255,255)" stroke="rgb(0,0,0)"/> <text x="983" y="1216" fill="rgb(255,171,0)" stroke="rgb(255,171,0)">G</text>
<line style="fill:none;stroke-width:1" stroke="rgb(0,0,0)" x1="983" y1="1238" x2="984" y2="1279"/> <circle style="stroke-width:1" cx="983" cy="1238" r="12" fill="rgb(255,255,255)" stroke="rgb(0,0,0)"/> <text x="975" y="1246" fill="rgb(0,128,0)" stroke="rgb(0,128,0)">A</text>
<line style="fill:none;stroke-width:1" stroke="rgb(0,0,0)" x1="984" y1="1279" x2="955" y2="1306"/> <circle style="stroke-width:1" cx="984" cy="1279" r="12" fill="rgb(255,255,255)" stroke="rgb(0,0,0)"/> <text x="976" y="1287" fill="rgb(255,0,0)" stroke="rgb(255,0,0)">G</text>
<line style="fill:none;stroke-width:1" stroke="rgb(0,0,0)" x1="955" y1="1306" x2="917" y2="1295"/> <circle style="stroke-width:1" cx="955" cy="1306" r="12" fill="rgb(255,255,255)" stroke="rgb(0,0,0)"/> <text x="947" y="1314" fill="rgb(255,0,0)" stroke="rgb(255,0,0)">A</text>
<line style="fill:none;stroke-width:1" stroke="rgb(0,0,0)" x1="917" y1="1295" x2="908" y2="1256"/> <circle style="stroke-width:1" cx="917" cy="1295" r="12" fill="rgb(255,255,255)" stroke="rgb(0,0,0)"/> <text x="909" y="1303" fill="rgb(255,0,0)" stroke="rgb(255,0,0)">A</text>
<line style="fill:none;stroke-width:1" stroke="rgb(0,0,0)" x1="908" y1="1256" x2="930" y2="1223"/> <circle style="stroke-width:1" cx="908" cy="1256" r="12" fill="rgb(255,255,255)" stroke="rgb(0,0,0)"/> <text x="900" y="1264" fill="rgb(255,171,0)" stroke="rgb(255,171,0)">U</text>
<line style="fill:none;stroke-width:1" stroke="rgb(0,0,0)" x1="930" y1="1223" x2="938" y2="1193"/> <circle style="stroke-width:1" cx="930" cy="1223" r="12" fill="rgb(255,255,255)" stroke="rgb(0,0,0)"/> <text x="922" y="1231" fill="rgb(0,128,0)" stroke="rgb(0,128,0)">U</text>
<line style="fill:none;stroke-width:1" stroke="rgb(0,0,0)" x1="938" y1="1193" x2="946" y2="1163"/> <line style="fill:none;stroke-width:1" stroke="rgb(0,0,0)" x1="938" y1="1193" x2="831" y2="1162"/> <rect x="816" y="1150" width="30" height="24" fill="rgb(255,255,255)" stroke="rgb(255,255,255)"/> <text x="816" y="1170" fill="rgb(0,0,0)" stroke="rgb(0,0,0)">10</text> <circle style="stroke-width:1" cx="938" cy="1193" r="12" fill="rgb(255,255,255)" stroke="rgb(0,0,0)"/> <text x="930" y="1201" fill="rgb(255,171,0)" stroke="rgb(255,171,0)">C</text>
<line style="fill:none;stroke-width:1" stroke="rgb(0,0,0)" x1="946" y1="1163" x2="954" y2="1133"/> <circle style="stroke-width:1" cx="946" cy="1163" r="12" fill="rgb(255,255,255)" stroke="rgb(0,0,0)"/> <text x="938" y="1171" fill="rgb(255,171,0)" stroke="rgb(255,171,0)">C</text>
<line style="fill:none;stroke-width:1" stroke="rgb(0,0,0)" x1="954" y1="1133" x2="844" y2="590"/> <circle style="stroke-width:1" cx="954" cy="1133" r="12" fill="rgb(255,255,255)" stroke="rgb(0,0,0)"/> <text x="946" y="1141" fill="rgb(255,171,0)" stroke="rgb(255,171,0)">C</text>
<line style="fill:none;stroke-width:1" stroke="rgb(0,0,0)" x1="844" y1="590" x2="1154" y2="474"/> <circle style="stroke-width:1" cx="844" cy="590" r="12" fill="rgb(255,255,255)" stroke="rgb(0,0,0)"/> <text x="836" y="598" fill="rgb(0,128,0)" stroke="rgb(0,128,0)">G</text>
<line style="fill:none;stroke-width:1" stroke="rgb(0,0,0)" x1="1154" y1="474" x2="1158" y2="443"/> <circle style="stroke-width:1" cx="1154" cy="474" r="12" fill="rgb(255,255,255)" stroke="rgb(0,0,0)"/> <text x="1146" y="482" fill="rgb(0,255,0)" stroke="rgb(0,255,0)">C</text>
<line style="fill:none;stroke-width:1" stroke="rgb(0,0,0)" x1="1158" y1="443" x2="1162" y2="412"/> <circle style="stroke-width:1" cx="1158" cy="443" r="12" fill="rgb(255,255,255)" stroke="rgb(0,0,0)"/> <text x="1150" y="451" fill="rgb(0,255,0)" stroke="rgb(0,255,0)">G</text>
<line style="fill:none;stroke-width:1" stroke="rgb(0,0,0)" x1="1162" y1="412" x2="1166" y2="381"/> <circle style="stroke-width:1" cx="1162" cy="412" r="12" fill="rgb(255,255,255)" stroke="rgb(0,0,0)"/> <text x="1154" y="420" fill="rgb(0,255,0)" stroke="rgb(0,255,0)">G</text>
<line style="fill:none;stroke-width:1" stroke="rgb(0,0,0)" x1="1166" y1="381" x2="913" y2="376"/> <circle style="stroke-width:1" cx="1166" cy="381" r="12" fill="rgb(255,255,255)" stroke="rgb(0,0,0)"/> <text x="1158" y="389" fill="rgb(0,255,0)" stroke="rgb(0,255,0)">C</text>
<line style="fill:none;stroke-width:1" stroke="rgb(0,0,0)" x1="913" y1="376" x2="884" y2="366"/> <circle style="stroke-width:1" cx="913" cy="376" r="12" fill="rgb(255,255,255)" stroke="rgb(0,0,0)"/> <text x="905" y="384" fill="rgb(0,255,0)" stroke="rgb(0,255,0)">G</text>
<line style="fill:none;stroke-width:1" stroke="rgb(0,0,0)" x1="884" y1="366" x2="855" y2="356"/> <circle style="stroke-width:1" cx="884" cy="366" r="12" fill="rgb(255,255,255)" stroke="rgb(0,0,0)"/> <text x="876" y="374" fill="rgb(0,255,0)" stroke="rgb(0,255,0)">U</text>
<line style="fill:none;stroke-width:1" stroke="rgb(0,0,0)" x1="855" y1="356" x2="826" y2="346"/> <line style="fill:none;stroke-width:1" stroke="rgb(0,0,0)" x1="855" y1="356" x2="817" y2="461"/> <rect x="802" y="449" width="30" height="24" fill="rgb(255,255,255)" stroke="rgb(255,255,255)"/> <text x="802" y="469" fill="rgb(0,0,0)" stroke="rgb(0,0,0)">20</text> <circle style="stroke-width:1" cx="855" cy="356" r="12" fill="rgb(255,255,255)" stroke="rgb(0,0,0)"/> <text x="847" y="364" fill="rgb(0,128,0)" stroke="rgb(0,128,0)">U</text>
<line style="fill:none;stroke-width:1" stroke="rgb(0,0,0)" x1="826" y1="346" x2="797" y2="336"/> <circle style="stroke-width:1" cx="826" cy="346" r="12" fill="rgb(255,255,255)" stroke="rgb(0,0,0)"/> <text x="818" y="354" fill="rgb(0,128,0)" stroke="rgb(0,128,0)">G</text>
<line style="fill:none;stroke-width:1" stroke="rgb(0,0,0)" x1="797" y1="336" x2="771" y2="357"/> <circle style="stroke-width:1" cx="797" cy="336" r="12" fill="rgb(255,255,255)" stroke="rgb(0,0,0)"/> <text x="789" y="344" fill="rgb(0,128,0)" stroke="rgb(0,128,0)">G</text>
<line style="fill:none;stroke-width:1" stroke="rgb(0,0,0)" x1="771" y1="357" x2="714" y2="373"/> <circle style="stroke-width:1" cx="771" cy="357" r="12" fill="rgb(255,255,255)" stroke="rgb(0,0,0)"/> <text x="763" y="365" fill="rgb(212,212,44)" stroke="rgb(212,212,44)">C</text>
<line style="fill:none;stroke-width:1" stroke="rgb(0,0,0)" x1="714" y1="373" x2="659" y2="353"/> <circle style="stroke-width:1" cx="714" cy="373" r="12" fill="rgb(255,255,255)" stroke="rgb(0,0,0)"/> <text x="706" y="381" fill="rgb(255,171,0)" stroke="rgb(255,171,0)">C</text>
<line style="fill:none;stroke-width:1" stroke="rgb(0,0,0)" x1="659" y1="353" x2="626" y2="304"/> <circle style="stroke-width:1" cx="659" cy="353" r="12" fill="rgb(255,255,255)" stroke="rgb(0,0,0)"/> <text x="651" y="361" fill="rgb(255,0,0)" stroke="rgb(255,0,0)">C</text>
<line style="fill:none;stroke-width:1" stroke="rgb(0,0,0)" x1="626" y1="304" x2="619" y2="272"/> <circle style="stroke-width:1" cx="626" cy="304" r="12" fill="rgb(255,255,255)" stroke="rgb(0,0,0)"/> <text x="618" y="312" fill="rgb(255,0,0)" stroke="rgb(255,0,0)">A</text>
<line style="fill:none;stroke-width:1" stroke="rgb(0,0,0)" x1="619" y1="272" x2="590" y2="262"/> <circle style="stroke-width:1" cx="619" cy="272" r="12" fill="rgb(255,255,255)" stroke="rgb(0,0,0)"/> <text x="611" y="280" fill="rgb(255,171,0)" stroke="rgb(255,171,0)">G</text>
<line style="fill:none;stroke-width:1" stroke="rgb(0,0,0)" x1="590" y1="262" x2="561" y2="252"/> <circle style="stroke-width:1" cx="590" cy="262" r="12" fill="rgb(255,255,255)" stroke="rgb(0,0,0)"/> <text x="582" y="270" fill="rgb(255,171,0)" stroke="rgb(255,171,0)">G</text>
<line style="fill:none;stroke-width:1" stroke="rgb(0,0,0)" x1="561" y1="252" x2="532" y2="242"/> <circle style="stroke-width:1" cx="561" cy="252" r="12" fill="rgb(255,255,255)" stroke="rgb(0,0,0)"/> <text x="553" y="260" fill="rgb(255,171,0)" stroke="rgb(255,171,0)">A</text>
<line style="fill:none;stroke-width:1" stroke="rgb(0,0,0)" x1="532" y1="242" x2="501" y2="270"/> <line style="fill:none;stroke-width:1" stroke="rgb(0,0,0)" x1="532" y1="242" x2="494" y2="347"/> <rect x="479" y="335" width="30" height="24" fill="rgb(255,255,255)" stroke="rgb(255,255,255)"/> <text x="479" y="355" fill="rgb(0,0,0)" stroke="rgb(0,0,0)">30</text> <circle style="stroke-width:1" cx="532" cy="242" r="12" fill="rgb(255,255,255)" stroke="rgb(0,0,0)"/> <text x="524" y="250" fill="rgb(0,128,0)" stroke="rgb(0,128,0)">U</text>
<line style="fill:none;stroke-width:1" stroke="rgb(0,0,0)" x1="501" y1="270" x2="436" y2="289"/> <circle style="stroke-width:1" cx="501" cy="270" r="12" fill="rgb(255,255,255)" stroke="rgb(0,0,0)"/> <text x="493" y="278" fill="rgb(255,0,0)" stroke="rgb(255,0,0)">A</text>
<line style="fill:none;stroke-width:1" stroke="rgb(0,0,0)" x1="436" y1="289" x2="372" y2="267"/> <circle style="stroke-width:1" cx="436" cy="289" r="12" fill="rgb(255,255,255)" stroke="rgb(0,0,0)"/> <text x="428" y="297" fill="rgb(255,0,0)" stroke="rgb(255,0,0)">A</text>
<line style="fill:none;stroke-width:1" stroke="rgb(0,0,0)" x1="372" y1="267" x2="333" y2="211"/> <circle style="stroke-width:1" cx="372" cy="267" r="12" fill="rgb(255,255,255)" stroke="rgb(0,0,0)"/> <text x="364" y="275" fill="rgb(255,0,0)" stroke="rgb(255,0,0)">U</text>
<line style="fill:none;stroke-width:1" stroke="rgb(0,0,0)" x1="333" y1="211" x2="325" y2="170"/> <circle style="stroke-width:1" cx="333" cy="211" r="12" fill="rgb(255,255,255)" stroke="rgb(0,0,0)"/> <text x="325" y="219" fill="rgb(255,0,0)" stroke="rgb(255,0,0)">A</text>
<line style="fill:none;stroke-width:1" stroke="rgb(0,0,0)" x1="325" y1="170" x2="295" y2="160"/> <circle style="stroke-width:1" cx="325" cy="170" r="12" fill="rgb(255,255,255)" stroke="rgb(0,0,0)"/> <text x="317" y="178" fill="rgb(255,0,0)" stroke="rgb(255,0,0)">G</text>
<line style="fill:none;stroke-width:1" stroke="rgb(0,0,0)" x1="295" y1="160" x2="265" y2="150"/> <circle style="stroke-width:1" cx="295" cy="160" r="12" fill="rgb(255,255,255)" stroke="rgb(0,0,0)"/> <text x="287" y="168" fill="rgb(255,0,0)" stroke="rgb(255,0,0)">G</text>
<line style="fill:none;stroke-width:1" stroke="rgb(0,0,0)" x1="265" y1="150" x2="226" y2="155"/> <circle style="stroke-width:1" cx="265" cy="150" r="12" fill="rgb(255,255,255)" stroke="rgb(0,0,0)"/> <text x="257" y="158" fill="rgb(0,128,0)" stroke="rgb(0,128,0)">A</text>
<line style="fill:none;stroke-width:1" stroke="rgb(0,0,0)" x1="226" y1="155" x2="192" y2="135"/> <circle style="stroke-width:1" cx="226" cy="155" r="12" fill="rgb(255,255,255)" stroke="rgb(0,0,0)"/> <text x="218" y="163" fill="rgb(255,0,0)" stroke="rgb(255,0,0)">C</text>
<line style="fill:none;stroke-width:1" stroke="rgb(0,0,0)" x1="192" y1="135" x2="187" y2="95"/> <circle style="stroke-width:1" cx="192" cy="135" r="12" fill="rgb(255,255,255)" stroke="rgb(0,0,0)"/> <text x="184" y="143" fill="rgb(255,0,0)" stroke="rgb(255,0,0)">G</text>
<line style="fill:none;stroke-width:1" stroke="rgb(0,0,0)" x1="187" y1="95" x2="215" y2="66"/> <line style="fill:none;stroke-width:1" stroke="rgb(0,0,0)" x1="187" y1="95" x2="81" y2="60"/> <rect x="66" y="48" width="30" height="24" fill="rgb(255,255,255)" stroke="rgb(255,255,255)"/> <text x="66" y="68" fill="rgb(0,0,0)" stroke="rgb(0,0,0)">40</text> <circle style="stroke-width:1" cx="187" cy="95" r="12" fill="rgb(255,255,255)" stroke="rgb(0,0,0)"/> <text x="179" y="103" fill="rgb(255,0,0)" stroke="rgb(255,0,0)">A</text>
<line style="fill:none;stroke-width:1" stroke="rgb(0,0,0)" x1="215" y1="66" x2="255" y2="70"/> <circle style="stroke-width:1" cx="215" cy="66" r="12" fill="rgb(255,255,255)" stroke="rgb(0,0,0)"/> <text x="207" y="74" fill="rgb(255,0,0)" stroke="rgb(255,0,0)">A</text>
<line style="fill:none;stroke-width:1" stroke="rgb(0,0,0)" x1="255" y1="70" x2="282" y2="98"/> <circle style="stroke-width:1" cx="255" cy="70" r="12" fill="rgb(255,255,255)" stroke="rgb(0,0,0)"/> <text x="247" y="78" fill="rgb(255,0,0)" stroke="rgb(255,0,0)">A</text>
<line style="fill:none;stroke-width:1" stroke="rgb(0,0,0)" x1="282" y1="98" x2="312" y2="108"/> <circle style="stroke-width:1" cx="282" cy="98" r="12" fill="rgb(255,255,255)" stroke="rgb(0,0,0)"/> <text x="274" y="106" fill="rgb(0,128,0)" stroke="rgb(0,128,0)">U</text>
<line style="fill:none;stroke-width:1" stroke="rgb(0,0,0)" x1="312" y1="108" x2="342" y2="118"/> <circle style="stroke-width:1" cx="312" cy="108" r="12" fill="rgb(255,255,255)" stroke="rgb(0,0,0)"/> <text x="304" y="116" fill="rgb(255,0,0)" stroke="rgb(255,0,0)">C</text>
<line style="fill:none;stroke-width:1" stroke="rgb(0,0,0)" x1="342" y1="118" x2="366" y2="96"/> <circle style="stroke-width:1" cx="342" cy="118" r="12" fill="rgb(255,255,255)" stroke="rgb(0,0,0)"/> <text x="334" y="126" fill="rgb(255,0,0)" stroke="rgb(255,0,0)">C</text>
<line style="fill:none;stroke-width:1" stroke="rgb(0,0,0)" x1="366" y1="96" x2="418" y2="71"/> <circle style="stroke-width:1" cx="366" cy="96" r="12" fill="rgb(255,255,255)" stroke="rgb(0,0,0)"/> <text x="358" y="104" fill="rgb(255,0,0)" stroke="rgb(255,0,0)">G</text>
<line style="fill:none;stroke-width:1" stroke="rgb(0,0,0)" x1="418" y1="71" x2="475" y2="75"/> <circle style="stroke-width:1" cx="418" cy="71" r="12" fill="rgb(255,255,255)" stroke="rgb(0,0,0)"/> <text x="410" y="79" fill="rgb(255,0,0)" stroke="rgb(255,0,0)">A</text>
<line style="fill:none;stroke-width:1" stroke="rgb(0,0,0)" x1="475" y1="75" x2="522" y2="107"/> <circle style="stroke-width:1" cx="475" cy="75" r="12" fill="rgb(255,255,255)" stroke="rgb(0,0,0)"/> <text x="467" y="83" fill="rgb(255,0,0)" stroke="rgb(255,0,0)">A</text>
<line style="fill:none;stroke-width:1" stroke="rgb(0,0,0)" x1="522" y1="107" x2="547" y2="159"/> <circle style="stroke-width:1" cx="522" cy="107" r="12" fill="rgb(255,255,255)" stroke="rgb(0,0,0)"/> <text x="514" y="115" fill="rgb(255,0,0)" stroke="rgb(255,0,0)">A</text>
<line style="fill:none;stroke-width:1" stroke="rgb(0,0,0)" x1="547" y1="159" x2="550" y2="190"/> <line style="fill:none;stroke-width:1" stroke="rgb(0,0,0)" x1="547" y1="159" x2="657" y2="139"/> <rect x="642" y="127" width="30" height="24" fill="rgb(255,255,255)" stroke="rgb(255,255,255)"/> <text x="642" y="147" fill="rgb(0,0,0)" stroke="rgb(0,0,0)">50</text> <circle style="stroke-width:1" cx="547" cy="159" r="12" fill="rgb(255,255,255)" stroke="rgb(0,0,0)"/> <text x="539" y="167" fill="rgb(255,0,0)" stroke="rgb(255,0,0)">A</text>
<line style="fill:none;stroke-width:1" stroke="rgb(0,0,0)" x1="550" y1="190" x2="579" y2="200"/> <circle style="stroke-width:1" cx="550" cy="190" r="12" fill="rgb(255,255,255)" stroke="rgb(0,0,0)"/> <text x="542" y="198" fill="rgb(0,128,0)" stroke="rgb(0,128,0)">A</text>
<line style="fill:none;stroke-width:1" stroke="rgb(0,0,0)" x1="579" y1="200" x2="608" y2="210"/> <circle style="stroke-width:1" cx="579" cy="200" r="12" fill="rgb(255,255,255)" stroke="rgb(0,0,0)"/> <text x="571" y="208" fill="rgb(255,171,0)" stroke="rgb(255,171,0)">U</text>
<line style="fill:none;stroke-width:1" stroke="rgb(0,0,0)" x1="608" y1="210" x2="637" y2="220"/> <circle style="stroke-width:1" cx="608" cy="210" r="12" fill="rgb(255,255,255)" stroke="rgb(0,0,0)"/> <text x="600" y="218" fill="rgb(255,171,0)" stroke="rgb(255,171,0)">C</text>
<line style="fill:none;stroke-width:1" stroke="rgb(0,0,0)" x1="637" y1="220" x2="664" y2="199"/> <circle style="stroke-width:1" cx="637" cy="220" r="12" fill="rgb(255,255,255)" stroke="rgb(0,0,0)"/> <text x="629" y="228" fill="rgb(255,171,0)" stroke="rgb(255,171,0)">C</text>
<line style="fill:none;stroke-width:1" stroke="rgb(0,0,0)" x1="664" y1="199" x2="721" y2="183"/> <circle style="stroke-width:1" cx="664" cy="199" r="12" fill="rgb(255,255,255)" stroke="rgb(0,0,0)"/> <text x="656" y="207" fill="rgb(255,171,0)" stroke="rgb(255,171,0)">G</text>
<line style="fill:none;stroke-width:1" stroke="rgb(0,0,0)" x1="721" y1="183" x2="776" y2="203"/> <circle style="stroke-width:1" cx="721" cy="183" r="12" fill="rgb(255,255,255)" stroke="rgb(0,0,0)"/> <text x="713" y="191" fill="rgb(255,171,0)" stroke="rgb(255,171,0)">U</text>
<line style="fill:none;stroke-width:1" stroke="rgb(0,0,0)" x1="776" y1="203" x2="809" y2="252"/> <circle style="stroke-width:1" cx="776" cy="203" r="12" fill="rgb(255,255,255)" stroke="rgb(0,0,0)"/> <text x="768" y="211" fill="rgb(255,0,0)" stroke="rgb(255,0,0)">A</text>
<line style="fill:none;stroke-width:1" stroke="rgb(0,0,0)" x1="809" y1="252" x2="815" y2="284"/> <circle style="stroke-width:1" cx="809" cy="252" r="12" fill="rgb(255,255,255)" stroke="rgb(0,0,0)"/> <text x="801" y="260" fill="rgb(255,171,0)" stroke="rgb(255,171,0)">C</text>
<line style="fill:none;stroke-width:1" stroke="rgb(0,0,0)" x1="815" y1="284" x2="844" y2="294"/> <circle style="stroke-width:1" cx="815" cy="284" r="12" fill="rgb(255,255,255)" stroke="rgb(0,0,0)"/> <text x="807" y="292" fill="rgb(0,128,0)" stroke="rgb(0,128,0)">C</text>
<line style="fill:none;stroke-width:1" stroke="rgb(0,0,0)" x1="844" y1="294" x2="873" y2="304"/> <line style="fill:none;stroke-width:1" stroke="rgb(0,0,0)" x1="844" y1="294" x2="882" y2="189"/> <rect x="867" y="177" width="30" height="24" fill="rgb(255,255,255)" stroke="rgb(255,255,255)"/> <text x="867" y="197" fill="rgb(0,0,0)" stroke="rgb(0,0,0)">60</text> <circle style="stroke-width:1" cx="844" cy="294" r="12" fill="rgb(255,255,255)" stroke="rgb(0,0,0)"/> <text x="836" y="302" fill="rgb(0,128,0)" stroke="rgb(0,128,0)">C</text>
<line style="fill:none;stroke-width:1" stroke="rgb(0,0,0)" x1="873" y1="304" x2="902" y2="314"/> <circle style="stroke-width:1" cx="873" cy="304" r="12" fill="rgb(255,255,255)" stroke="rgb(0,0,0)"/> <text x="865" y="312" fill="rgb(0,128,0)" stroke="rgb(0,128,0)">A</text>
<line style="fill:none;stroke-width:1" stroke="rgb(0,0,0)" x1="902" y1="314" x2="931" y2="324"/> <circle style="stroke-width:1" cx="902" cy="314" r="12" fill="rgb(255,255,255)" stroke="rgb(0,0,0)"/> <text x="894" y="322" fill="rgb(0,255,0)" stroke="rgb(0,255,0)">A</text>
<line style="fill:none;stroke-width:1" stroke="rgb(0,0,0)" x1="931" y1="324" x2="962" y2="290"/> <circle style="stroke-width:1" cx="931" cy="324" r="12" fill="rgb(255,255,255)" stroke="rgb(0,0,0)"/> <text x="923" y="332" fill="rgb(0,255,0)" stroke="rgb(0,255,0)">C</text>
<line style="fill:none;stroke-width:1" stroke="rgb(0,0,0)" x1="962" y1="290" x2="997" y2="255"/> <circle style="stroke-width:1" cx="962" cy="290" r="12" fill="rgb(255,255,255)" stroke="rgb(0,0,0)"/> <text x="954" y="298" fill="rgb(255,0,0)" stroke="rgb(255,0,0)">A</text>
<line style="fill:none;stroke-width:1" stroke="rgb(0,0,0)" x1="997" y1="255" x2="1037" y2="226"/> <circle style="stroke-width:1" cx="997" cy="255" r="12" fill="rgb(255,255,255)" stroke="rgb(0,0,0)"/> <text x="989" y="263" fill="rgb(255,0,0)" stroke="rgb(255,0,0)">U</text>
<line style="fill:none;stroke-width:1" stroke="rgb(0,0,0)" x1="1037" y1="226" x2="1082" y2="205"/> <circle style="stroke-width:1" cx="1037" cy="226" r="12" fill="rgb(255,255,255)" stroke="rgb(0,0,0)"/> <text x="1029" y="234" fill="rgb(255,0,0)" stroke="rgb(255,0,0)">A</text>
<line style="fill:none;stroke-width:1" stroke="rgb(0,0,0)" x1="1082" y1="205" x2="1130" y2="192"/> <circle style="stroke-width:1" cx="1082" cy="205" r="12" fill="rgb(255,255,255)" stroke="rgb(0,0,0)"/> <text x="1074" y="213" fill="rgb(255,171,0)" stroke="rgb(255,171,0)">G</text>
<line style="fill:none;stroke-width:1" stroke="rgb(0,0,0)" x1="1130" y1="192" x2="1179" y2="187"/> <circle style="stroke-width:1" cx="1130" cy="192" r="12" fill="rgb(255,255,255)" stroke="rgb(0,0,0)"/> <text x="1122" y="200" fill="rgb(255,0,0)" stroke="rgb(255,0,0)">A</text>
<line style="fill:none;stroke-width:1" stroke="rgb(0,0,0)" x1="1179" y1="187" x2="1229" y2="191"/> <circle style="stroke-width:1" cx="1179" cy="187" r="12" fill="rgb(255,255,255)" stroke="rgb(0,0,0)"/> <text x="1171" y="195" fill="rgb(255,0,0)" stroke="rgb(255,0,0)">A</text>
<line style="fill:none;stroke-width:1" stroke="rgb(0,0,0)" x1="1229" y1="191" x2="1277" y2="204"/> <line style="fill:none;stroke-width:1" stroke="rgb(0,0,0)" x1="1229" y1="191" x2="1247" y2="81"/> <rect x="1232" y="69" width="30" height="24" fill="rgb(255,255,255)" stroke="rgb(255,255,255)"/> <text x="1232" y="89" fill="rgb(0,0,0)" stroke="rgb(0,0,0)">70</text> <circle style="stroke-width:1" cx="1229" cy="191" r="12" fill="rgb(255,255,255)" stroke="rgb(0,0,0)"/> <text x="1221" y="199" fill="rgb(255,0,0)" stroke="rgb(255,0,0)">C</text>
<line style="fill:none;stroke-width:1" stroke="rgb(0,0,0)" x1="1277" y1="204" x2="1322" y2="224"/> <circle style="stroke-width:1" cx="1277" cy="204" r="12" fill="rgb(255,255,255)" stroke="rgb(0,0,0)"/> <text x="1269" y="212" fill="rgb(255,0,0)" stroke="rgb(255,0,0)">C</text>
<line style="fill:none;stroke-width:1" stroke="rgb(0,0,0)" x1="1322" y1="224" x2="1363" y2="252"/> <circle style="stroke-width:1" cx="1322" cy="224" r="12" fill="rgb(255,255,255)" stroke="rgb(0,0,0)"/> <text x="1314" y="232" fill="rgb(255,0,0)" stroke="rgb(255,0,0)">C</text>
<line style="fill:none;stroke-width:1" stroke="rgb(0,0,0)" x1="1363" y1="252" x2="1398" y2="287"/> <circle style="stroke-width:1" cx="1363" cy="252" r="12" fill="rgb(255,255,255)" stroke="rgb(0,0,0)"/> <text x="1355" y="260" fill="rgb(255,0,0)" stroke="rgb(255,0,0)">C</text>
<line style="fill:none;stroke-width:1" stroke="rgb(0,0,0)" x1="1398" y1="287" x2="1427" y2="328"/> <circle style="stroke-width:1" cx="1398" cy="287" r="12" fill="rgb(255,255,255)" stroke="rgb(0,0,0)"/> <text x="1390" y="295" fill="rgb(255,0,0)" stroke="rgb(255,0,0)">C</text>
<line style="fill:none;stroke-width:1" stroke="rgb(0,0,0)" x1="1427" y1="328" x2="1449" y2="372"/> <circle style="stroke-width:1" cx="1427" cy="328" r="12" fill="rgb(255,255,255)" stroke="rgb(0,0,0)"/> <text x="1419" y="336" fill="rgb(255,171,0)" stroke="rgb(255,171,0)">C</text>
<line style="fill:none;stroke-width:1" stroke="rgb(0,0,0)" x1="1449" y1="372" x2="1462" y2="420"/> <circle style="stroke-width:1" cx="1449" cy="372" r="12" fill="rgb(255,255,255)" stroke="rgb(0,0,0)"/> <text x="1441" y="380" fill="rgb(255,128,255)" stroke="rgb(255,128,255)">C</text>
<line style="fill:none;stroke-width:1" stroke="rgb(0,0,0)" x1="1462" y1="420" x2="1467" y2="470"/> <circle style="stroke-width:1" cx="1462" cy="420" r="12" fill="rgb(255,255,255)" stroke="rgb(0,0,0)"/> <text x="1454" y="428" fill="rgb(255,128,255)" stroke="rgb(255,128,255)">A</text>
<line style="fill:none;stroke-width:1" stroke="rgb(0,0,0)" x1="1467" y1="470" x2="1498" y2="470"/> <circle style="stroke-width:1" cx="1467" cy="470" r="12" fill="rgb(255,255,255)" stroke="rgb(0,0,0)"/> <text x="1459" y="478" fill="rgb(255,128,255)" stroke="rgb(255,128,255)">G</text>
<line style="fill:none;stroke-width:1" stroke="rgb(0,0,0)" x1="1498" y1="470" x2="1529" y2="470"/> <circle style="stroke-width:1" cx="1498" cy="470" r="12" fill="rgb(255,255,255)" stroke="rgb(0,0,0)"/> <text x="1490" y="478" fill="rgb(255,128,255)" stroke="rgb(255,128,255)">C</text>
<line style="fill:none;stroke-width:1" stroke="rgb(0,0,0)" x1="1529" y1="470" x2="1541" y2="443"/> <line style="fill:none;stroke-width:1" stroke="rgb(0,0,0)" x1="1529" y1="470" x2="1528" y2="359"/> <rect x="1513" y="347" width="30" height="24" fill="rgb(255,255,255)" stroke="rgb(255,255,255)"/> <text x="1513" y="367" fill="rgb(0,0,0)" stroke="rgb(0,0,0)">80</text> <circle style="stroke-width:1" cx="1529" cy="470" r="12" fill="rgb(255,255,255)" stroke="rgb(0,0,0)"/> <text x="1521" y="478" fill="rgb(255,128,255)" stroke="rgb(255,128,255)">G</text>
<line style="fill:none;stroke-width:1" stroke="rgb(0,0,0)" x1="1541" y1="443" x2="1575" y2="399"/> <circle style="stroke-width:1" cx="1541" cy="443" r="12" fill="rgb(255,255,255)" stroke="rgb(0,0,0)"/> <text x="1533" y="451" fill="rgb(0,0,255)" stroke="rgb(0,0,255)">C</text>
<line style="fill:none;stroke-width:1" stroke="rgb(0,0,0)" x1="1575" y1="399" x2="1626" y2="374"/> <circle style="stroke-width:1" cx="1575" cy="399" r="12" fill="rgb(255,255,255)" stroke="rgb(0,0,0)"/> <text x="1567" y="407" fill="rgb(0,171,255)" stroke="rgb(0,171,255)">U</text>
<line style="fill:none;stroke-width:1" stroke="rgb(0,0,0)" x1="1626" y1="374" x2="1682" y2="373"/> <circle style="stroke-width:1" cx="1626" cy="374" r="12" fill="rgb(255,255,255)" stroke="rgb(0,0,0)"/> <text x="1618" y="382" fill="rgb(0,255,0)" stroke="rgb(0,255,0)">C</text>
<line style="fill:none;stroke-width:1" stroke="rgb(0,0,0)" x1="1682" y1="373" x2="1733" y2="397"/> <circle style="stroke-width:1" cx="1682" cy="373" r="12" fill="rgb(255,255,255)" stroke="rgb(0,0,0)"/> <text x="1674" y="381" fill="rgb(255,0,0)" stroke="rgb(255,0,0)">A</text>
<line style="fill:none;stroke-width:1" stroke="rgb(0,0,0)" x1="1733" y1="397" x2="1769" y2="440"/> <circle style="stroke-width:1" cx="1733" cy="397" r="12" fill="rgb(255,255,255)" stroke="rgb(0,0,0)"/> <text x="1725" y="405" fill="rgb(255,0,0)" stroke="rgb(255,0,0)">C</text>
<line style="fill:none;stroke-width:1" stroke="rgb(0,0,0)" x1="1769" y1="440" x2="1782" y2="467"/> <circle style="stroke-width:1" cx="1769" cy="440" r="12" fill="rgb(255,255,255)" stroke="rgb(0,0,0)"/> <text x="1761" y="448" fill="rgb(255,0,0)" stroke="rgb(255,0,0)">A</text>
<line style="fill:none;stroke-width:1" stroke="rgb(0,0,0)" x1="1782" y1="467" x2="1813" y2="467"/> <circle style="stroke-width:1" cx="1782" cy="467" r="12" fill="rgb(255,255,255)" stroke="rgb(0,0,0)"/> <text x="1774" y="475" fill="rgb(0,0,255)" stroke="rgb(0,0,255)">C</text>
<line style="fill:none;stroke-width:1" stroke="rgb(0,0,0)" x1="1813" y1="467" x2="1844" y2="467"/> <circle style="stroke-width:1" cx="1813" cy="467" r="12" fill="rgb(255,255,255)" stroke="rgb(0,0,0)"/> <text x="1805" y="475" fill="rgb(0,171,255)" stroke="rgb(0,171,255)">G</text>
<line style="fill:none;stroke-width:1" stroke="rgb(0,0,0)" x1="1844" y1="467" x2="1882" y2="426"/> <circle style="stroke-width:1" cx="1844" cy="467" r="12" fill="rgb(255,255,255)" stroke="rgb(0,0,0)"/> <text x="1836" y="475" fill="rgb(0,171,255)" stroke="rgb(0,171,255)">G</text>
<line style="fill:none;stroke-width:1" stroke="rgb(0,0,0)" x1="1882" y1="426" x2="1962" y2="424"/> <line style="fill:none;stroke-width:1" stroke="rgb(0,0,0)" x1="1882" y1="426" x2="1825" y2="331"/> <rect x="1810" y="319" width="30" height="24" fill="rgb(255,255,255)" stroke="rgb(255,255,255)"/> <text x="1810" y="339" fill="rgb(0,0,0)" stroke="rgb(0,0,0)">90</text> <circle style="stroke-width:1" cx="1882" cy="426" r="12" fill="rgb(255,255,255)" stroke="rgb(0,0,0)"/> <text x="1874" y="434" fill="rgb(0,128,0)" stroke="rgb(0,128,0)">A</text>
<line style="fill:none;stroke-width:1" stroke="rgb(0,0,0)" x1="1962" y1="424" x2="2003" y2="464"/> <circle style="stroke-width:1" cx="1962" cy="424" r="12" fill="rgb(255,255,255)" stroke="rgb(0,0,0)"/> <text x="1954" y="432" fill="rgb(0,255,0)" stroke="rgb(0,255,0)">C</text>
<line style="fill:none;stroke-width:1" stroke="rgb(0,0,0)" x1="2003" y1="464" x2="2034" y2="463"/> <circle style="stroke-width:1" cx="2003" cy="464" r="12" fill="rgb(255,255,255)" stroke="rgb(0,0,0)"/> <text x="1995" y="472" fill="rgb(0,171,255)" stroke="rgb(0,171,255)">G</text>
<line style="fill:none;stroke-width:1" stroke="rgb(0,0,0)" x1="2034" y1="463" x2="2065" y2="462"/> <circle style="stroke-width:1" cx="2034" cy="463" r="12" fill="rgb(255,255,255)" stroke="rgb(0,0,0)"/> <text x="2026" y="471" fill="rgb(0,171,255)" stroke="rgb(0,171,255)">C</text>
<line style="fill:none;stroke-width:1" stroke="rgb(0,0,0)" x1="2065" y1="462" x2="2093" y2="438"/> <circle style="stroke-width:1" cx="2065" cy="462" r="12" fill="rgb(255,255,255)" stroke="rgb(0,0,0)"/> <text x="2057" y="470" fill="rgb(0,171,255)" stroke="rgb(0,171,255)">C</text>
<line style="fill:none;stroke-width:1" stroke="rgb(0,0,0)" x1="2093" y1="438" x2="2133" y2="429"/> <circle style="stroke-width:1" cx="2093" cy="438" r="12" fill="rgb(255,255,255)" stroke="rgb(0,0,0)"/> <text x="2085" y="446" fill="rgb(0,128,0)" stroke="rgb(0,128,0)">C</text>
<line style="fill:none;stroke-width:1" stroke="rgb(0,0,0)" x1="2133" y1="429" x2="2169" y2="448"/> <circle style="stroke-width:1" cx="2133" cy="429" r="12" fill="rgb(255,255,255)" stroke="rgb(0,0,0)"/> <text x="2125" y="437" fill="rgb(255,171,0)" stroke="rgb(255,171,0)">C</text>
<line style="fill:none;stroke-width:1" stroke="rgb(0,0,0)" x1="2169" y1="448" x2="2184" y2="486"/> <circle style="stroke-width:1" cx="2169" cy="448" r="12" fill="rgb(255,255,255)" stroke="rgb(0,0,0)"/> <text x="2161" y="456" fill="rgb(255,0,0)" stroke="rgb(255,0,0)">A</text>
<line style="fill:none;stroke-width:1" stroke="rgb(0,0,0)" x1="2184" y1="486" x2="2172" y2="525"/> <circle style="stroke-width:1" cx="2184" cy="486" r="12" fill="rgb(255,255,255)" stroke="rgb(0,0,0)"/> <text x="2176" y="494" fill="rgb(255,171,0)" stroke="rgb(255,171,0)">U</text>
<line style="fill:none;stroke-width:1" stroke="rgb(0,0,0)" x1="2172" y1="525" x2="2137" y2="546"/> <circle style="stroke-width:1" cx="2172" cy="525" r="12" fill="rgb(255,255,255)" stroke="rgb(0,0,0)"/> <text x="2164" y="533" fill="rgb(255,171,0)" stroke="rgb(255,171,0)">U</text>
<line style="fill:none;stroke-width:1" stroke="rgb(0,0,0)" x1="2137" y1="546" x2="2097" y2="541"/> <line style="fill:none;stroke-width:1" stroke="rgb(0,0,0)" x1="2137" y1="546" x2="2160" y2="655"/> <rect x="2137.5" y="643" width="45" height="24" fill="rgb(255,255,255)" stroke="rgb(255,255,255)"/> <text x="2137.5" y="663" fill="rgb(0,0,0)" stroke="rgb(0,0,0)">100</text> <circle style="stroke-width:1" cx="2137" cy="546" r="12" fill="rgb(255,255,255)" stroke="rgb(0,0,0)"/> <text x="2129" y="554" fill="rgb(255,0,0)" stroke="rgb(255,0,0)">A</text>
<line style="fill:none;stroke-width:1" stroke="rgb(0,0,0)" x1="2097" y1="541" x2="2066" y2="517"/> <circle style="stroke-width:1" cx="2097" cy="541" r="12" fill="rgb(255,255,255)" stroke="rgb(0,0,0)"/> <text x="2089" y="549" fill="rgb(0,255,0)" stroke="rgb(0,255,0)">C</text>
<line style="fill:none;stroke-width:1" stroke="rgb(0,0,0)" x1="2066" y1="517" x2="2035" y2="518"/> <circle style="stroke-width:1" cx="2066" cy="517" r="12" fill="rgb(255,255,255)" stroke="rgb(0,0,0)"/> <text x="2058" y="525" fill="rgb(0,171,255)" stroke="rgb(0,171,255)">G</text>
<line style="fill:none;stroke-width:1" stroke="rgb(0,0,0)" x1="2035" y1="518" x2="2004" y2="519"/> <circle style="stroke-width:1" cx="2035" cy="518" r="12" fill="rgb(255,255,255)" stroke="rgb(0,0,0)"/> <text x="2027" y="526" fill="rgb(0,171,255)" stroke="rgb(0,171,255)">G</text>
<line style="fill:none;stroke-width:1" stroke="rgb(0,0,0)" x1="2004" y1="519" x2="1982" y2="549"/> <circle style="stroke-width:1" cx="2004" cy="519" r="12" fill="rgb(255,255,255)" stroke="rgb(0,0,0)"/> <text x="1996" y="527" fill="rgb(0,171,255)" stroke="rgb(0,171,255)">C</text>
<line style="fill:none;stroke-width:1" stroke="rgb(0,0,0)" x1="1982" y1="549" x2="1926" y2="574"/> <circle style="stroke-width:1" cx="1982" cy="549" r="12" fill="rgb(255,255,255)" stroke="rgb(0,0,0)"/> <text x="1974" y="557" fill="rgb(212,212,44)" stroke="rgb(212,212,44)">U</text>
<line style="fill:none;stroke-width:1" stroke="rgb(0,0,0)" x1="1926" y1="574" x2="1868" y2="552"/> <circle style="stroke-width:1" cx="1926" cy="574" r="12" fill="rgb(255,255,255)" stroke="rgb(0,0,0)"/> <text x="1918" y="582" fill="rgb(255,171,0)" stroke="rgb(255,171,0)">A</text>
<line style="fill:none;stroke-width:1" stroke="rgb(0,0,0)" x1="1868" y1="552" x2="1844" y2="522"/> <circle style="stroke-width:1" cx="1868" cy="552" r="12" fill="rgb(255,255,255)" stroke="rgb(0,0,0)"/> <text x="1860" y="560" fill="rgb(255,0,0)" stroke="rgb(255,0,0)">A</text>
<line style="fill:none;stroke-width:1" stroke="rgb(0,0,0)" x1="1844" y1="522" x2="1813" y2="522"/> <circle style="stroke-width:1" cx="1844" cy="522" r="12" fill="rgb(255,255,255)" stroke="rgb(0,0,0)"/> <text x="1836" y="530" fill="rgb(0,171,255)" stroke="rgb(0,171,255)">C</text>
<line style="fill:none;stroke-width:1" stroke="rgb(0,0,0)" x1="1813" y1="522" x2="1782" y2="522"/> <circle style="stroke-width:1" cx="1813" cy="522" r="12" fill="rgb(255,255,255)" stroke="rgb(0,0,0)"/> <text x="1805" y="530" fill="rgb(0,171,255)" stroke="rgb(0,171,255)">C</text>
<line style="fill:none;stroke-width:1" stroke="rgb(0,0,0)" x1="1782" y1="522" x2="1770" y2="550"/> <line style="fill:none;stroke-width:1" stroke="rgb(0,0,0)" x1="1782" y1="522" x2="1783" y2="633"/> <rect x="1760.5" y="621" width="45" height="24" fill="rgb(255,255,255)" stroke="rgb(255,255,255)"/> <text x="1760.5" y="641" fill="rgb(0,0,0)" stroke="rgb(0,0,0)">110</text> <circle style="stroke-width:1" cx="1782" cy="522" r="12" fill="rgb(255,255,255)" stroke="rgb(0,0,0)"/> <text x="1774" y="530" fill="rgb(0,0,255)" stroke="rgb(0,0,255)">G</text>
<line style="fill:none;stroke-width:1" stroke="rgb(0,0,0)" x1="1770" y1="550" x2="1736" y2="595"/> <circle style="stroke-width:1" cx="1770" cy="550" r="12" fill="rgb(255,255,255)" stroke="rgb(0,0,0)"/> <text x="1762" y="558" fill="rgb(0,128,0)" stroke="rgb(0,128,0)">A</text>
<line style="fill:none;stroke-width:1" stroke="rgb(0,0,0)" x1="1736" y1="595" x2="1685" y2="620"/> <circle style="stroke-width:1" cx="1736" cy="595" r="12" fill="rgb(255,255,255)" stroke="rgb(0,0,0)"/> <text x="1728" y="603" fill="rgb(0,128,0)" stroke="rgb(0,128,0)">A</text>
<line style="fill:none;stroke-width:1" stroke="rgb(0,0,0)" x1="1685" y1="620" x2="1629" y2="621"/> <circle style="stroke-width:1" cx="1685" cy="620" r="12" fill="rgb(255,255,255)" stroke="rgb(0,0,0)"/> <text x="1677" y="628" fill="rgb(0,171,255)" stroke="rgb(0,171,255)">C</text>
<line style="fill:none;stroke-width:1" stroke="rgb(0,0,0)" x1="1629" y1="621" x2="1578" y2="597"/> <circle style="stroke-width:1" cx="1629" cy="621" r="12" fill="rgb(255,255,255)" stroke="rgb(0,0,0)"/> <text x="1621" y="629" fill="rgb(255,128,255)" stroke="rgb(255,128,255)">G</text>
<line style="fill:none;stroke-width:1" stroke="rgb(0,0,0)" x1="1578" y1="597" x2="1542" y2="553"/> <circle style="stroke-width:1" cx="1578" cy="597" r="12" fill="rgb(255,255,255)" stroke="rgb(0,0,0)"/> <text x="1570" y="605" fill="rgb(255,128,255)" stroke="rgb(255,128,255)">C</text>
<line style="fill:none;stroke-width:1" stroke="rgb(0,0,0)" x1="1542" y1="553" x2="1529" y2="525"/> <circle style="stroke-width:1" cx="1542" cy="553" r="12" fill="rgb(255,255,255)" stroke="rgb(0,0,0)"/> <text x="1534" y="561" fill="rgb(255,128,255)" stroke="rgb(255,128,255)">C</text>
<line style="fill:none;stroke-width:1" stroke="rgb(0,0,0)" x1="1529" y1="525" x2="1498" y2="525"/> <circle style="stroke-width:1" cx="1529" cy="525" r="12" fill="rgb(255,255,255)" stroke="rgb(0,0,0)"/> <text x="1521" y="533" fill="rgb(255,128,255)" stroke="rgb(255,128,255)">U</text>
<line style="fill:none;stroke-width:1" stroke="rgb(0,0,0)" x1="1498" y1="525" x2="1467" y2="525"/> <circle style="stroke-width:1" cx="1498" cy="525" r="12" fill="rgb(255,255,255)" stroke="rgb(0,0,0)"/> <text x="1490" y="533" fill="rgb(255,128,255)" stroke="rgb(255,128,255)">G</text>
<line style="fill:none;stroke-width:1" stroke="rgb(0,0,0)" x1="1467" y1="525" x2="1188" y2="411"/> <circle style="stroke-width:1" cx="1467" cy="525" r="12" fill="rgb(255,255,255)" stroke="rgb(0,0,0)"/> <text x="1459" y="533" fill="rgb(255,128,255)" stroke="rgb(255,128,255)">C</text>
<line style="fill:none;stroke-width:1" stroke="rgb(0,0,0)" x1="1188" y1="411" x2="1220" y2="388"/> <line style="fill:none;stroke-width:1" stroke="rgb(0,0,0)" x1="1188" y1="411" x2="1123" y2="321"/> <rect x="1100.5" y="309" width="45" height="24" fill="rgb(255,255,255)" stroke="rgb(255,255,255)"/> <text x="1100.5" y="329" fill="rgb(0,0,0)" stroke="rgb(0,0,0)">120</text> <circle style="stroke-width:1" cx="1188" cy="411" r="12" fill="rgb(255,255,255)" stroke="rgb(0,0,0)"/> <text x="1180" y="419" fill="rgb(0,128,0)" stroke="rgb(0,128,0)">A</text>
<line style="fill:none;stroke-width:1" stroke="rgb(0,0,0)" x1="1220" y1="388" x2="1216" y2="419"/> <circle style="stroke-width:1" cx="1220" cy="388" r="12" fill="rgb(255,255,255)" stroke="rgb(0,0,0)"/> <text x="1212" y="396" fill="rgb(0,255,0)" stroke="rgb(0,255,0)">G</text>
<line style="fill:none;stroke-width:1" stroke="rgb(0,0,0)" x1="1216" y1="419" x2="1212" y2="450"/> <circle style="stroke-width:1" cx="1216" cy="419" r="12" fill="rgb(255,255,255)" stroke="rgb(0,0,0)"/> <text x="1208" y="427" fill="rgb(0,255,0)" stroke="rgb(0,255,0)">C</text>
<line style="fill:none;stroke-width:1" stroke="rgb(0,0,0)" x1="1212" y1="450" x2="1208" y2="481"/> <circle style="stroke-width:1" cx="1212" cy="450" r="12" fill="rgb(255,255,255)" stroke="rgb(0,0,0)"/> <text x="1204" y="458" fill="rgb(0,255,0)" stroke="rgb(0,255,0)">C</text>
<line style="fill:none;stroke-width:1" stroke="rgb(0,0,0)" x1="1208" y1="481" x2="1355" y2="578"/> <circle style="stroke-width:1" cx="1208" cy="481" r="12" fill="rgb(255,255,255)" stroke="rgb(0,0,0)"/> <text x="1200" y="489" fill="rgb(0,255,0)" stroke="rgb(0,255,0)">G</text>
<line style="fill:none;stroke-width:1" stroke="rgb(0,0,0)" x1="1355" y1="578" x2="1419" y2="673"/> <circle style="stroke-width:1" cx="1355" cy="578" r="12" fill="rgb(255,255,255)" stroke="rgb(0,0,0)"/> <text x="1347" y="586" fill="rgb(255,171,0)" stroke="rgb(255,171,0)">G</text>
<line style="fill:none;stroke-width:1" stroke="rgb(0,0,0)" x1="1419" y1="673" x2="1448" y2="784"/> <circle style="stroke-width:1" cx="1419" cy="673" r="12" fill="rgb(255,255,255)" stroke="rgb(0,0,0)"/> <text x="1411" y="681" fill="rgb(255,171,0)" stroke="rgb(255,171,0)">A</text>
<line style="fill:none;stroke-width:1" stroke="rgb(0,0,0)" x1="1448" y1="784" x2="1440" y2="898"/> <circle style="stroke-width:1" cx="1448" cy="784" r="12" fill="rgb(255,255,255)" stroke="rgb(0,0,0)"/> <text x="1440" y="792" fill="rgb(255,171,0)" stroke="rgb(255,171,0)">A</text>
<line style="fill:none;stroke-width:1" stroke="rgb(0,0,0)" x1="1440" y1="898" x2="1395" y2="1004"/> <circle style="stroke-width:1" cx="1440" cy="898" r="12" fill="rgb(255,255,255)" stroke="rgb(0,0,0)"/> <text x="1432" y="906" fill="rgb(0,128,0)" stroke="rgb(0,128,0)">G</text>
<line style="fill:none;stroke-width:1" stroke="rgb(0,0,0)" x1="1395" y1="1004" x2="1318" y2="1089"/> <circle style="stroke-width:1" cx="1395" cy="1004" r="12" fill="rgb(255,255,255)" stroke="rgb(0,0,0)"/> <text x="1387" y="1012" fill="rgb(0,255,0)" stroke="rgb(0,255,0)">C</text>
<line style="fill:none;stroke-width:1" stroke="rgb(0,0,0)" x1="1318" y1="1089" x2="1217" y2="1143"/> <line style="fill:none;stroke-width:1" stroke="rgb(0,0,0)" x1="1318" y1="1089" x2="1387" y2="1177"/> <rect x="1364.5" y="1165" width="45" height="24" fill="rgb(255,255,255)" stroke="rgb(255,255,255)"/> <text x="1364.5" y="1185" fill="rgb(0,0,0)" stroke="rgb(0,0,0)">130</text> <circle style="stroke-width:1" cx="1318" cy="1089" r="12" fill="rgb(255,255,255)" stroke="rgb(0,0,0)"/> <text x="1310" y="1097" fill="rgb(0,128,0)" stroke="rgb(0,128,0)">U</text>
<circle style="stroke-width:1" cx="1217" cy="1143" r="12" fill="rgb(255,255,255)" stroke="rgb(0,0,0)"/> <text x="1209" y="1151" fill="rgb(255,0,0)" stroke="rgb(255,0,0)">U</text>
</g>
<g font-size="16">
<text x="36" y="743" fill="rgb(255,0,0)" stroke="rgb(255,0,0)">      Probability >= 99%</text>
<text x="36" y="761" fill="rgb(255,171,0)" stroke="rgb(255,171,0)">99% > Probability >= 95%</text>
<text x="36" y="779" fill="rgb(212,212,44)" stroke="rgb(212,212,44)">95% > Probability >= 90%</text>
<text x="36" y="797" fill="rgb(0,128,0)" stroke="rgb(0,128,0)">90% > Probability >= 80%</text>
<text x="36" y="815" fill="rgb(0,255,0)" stroke="rgb(0,255,0)">80% > Probability >= 70%</text>
<text x="36" y="833" fill="rgb(0,171,255)" stroke="rgb(0,171,255)">70% > Probability >= 60%</text>
<text x="36" y="851" fill="rgb(0,0,255)" stroke="rgb(0,0,255)">60% > Probability >= 50%</text>
<text x="36" y="869" fill="rgb(255,128,255)" stroke="rgb(255,128,255)">50% > Probability</text>
<text x="36" y="892" fill="rgb(0,0,0)" stroke="rgb(0,0,0)">ENERGY = -32.2   B4-25</text>
</g>
</svg>
