<svg id="图层_1" data-name="图层 1" xmlns="http://www.w3.org/2000/svg" viewBox="0 0 400 400"><defs><style>.cls-1,.cls-2,.cls-3,.cls-4,.cls-5,.cls-6,.cls-7{isolation:isolate;}.cls-1,.cls-2,.cls-3,.cls-4,.cls-5,.cls-6{font-size:24.58px;}.cls-1,.cls-2{fill:#228b22;}.cls-1,.cls-11,.cls-13,.cls-2,.cls-3,.cls-4,.cls-5,.cls-6,.cls-7{font-family:ArialMT, Arial;}.cls-2,.cls-5,.cls-6{letter-spacing:-0.06em;}.cls-3,.cls-6{fill:#ff870a;}.cls-4,.cls-5{fill:teal;}.cls-7{font-size:12.83px;}.cls-8{fill:#020202;stroke:#020202;opacity:0.55;}.cls-10,.cls-8{stroke-miterlimit:10;}.cls-9{opacity:0.75;}.cls-10{stroke:#000;stroke-width:0.07px;}.cls-11{font-size:14.96px;}.cls-12{letter-spacing:-0.04em;}.cls-13{font-size:20px;}.cls-14{letter-spacing:-0.07em;}</style></defs><text class="cls-1" transform="translate(39.88 336.9)">G</text><text class="cls-2" transform="translate(65.37 334.63)">A</text><text class="cls-1" transform="translate(90.29 332.24)">G</text><text class="cls-1" transform="translate(115.27 328.8)">G</text><text class="cls-2" transform="translate(127.27 305.04)">A</text><text class="cls-1" transform="translate(148.61 295.7)">C</text><text class="cls-1" transform="translate(172.52 298.5)">G</text><text class="cls-2" transform="translate(190.43 312.95)">A</text><text class="cls-1" transform="translate(213.05 305.31)">U</text><text class="cls-3" transform="translate(236.06 294.33)">G</text><text class="cls-3" transform="translate(255.29 276.61)">C</text><text class="cls-3" transform="translate(266 253.51)">G</text><text class="cls-4" transform="translate(274.52 229.38)">G</text><text class="cls-5" transform="translate(280.53 204.66)">A</text><text class="cls-4" transform="translate(273.65 182.45)">C</text><text class="cls-4" transform="translate(286.65 162.12)">U</text><text class="cls-5" transform="translate(289.39 136.92)">A</text><text class="cls-4" transform="translate(274.71 118.96)">G</text><text class="cls-4" transform="translate(276.88 94.39)">C</text><text class="cls-4" transform="translate(295.62 78.46)">C</text><text class="cls-4" transform="translate(319.64 79.96)">U</text><text class="cls-4" transform="translate(336.41 98.58)">C</text><text class="cls-5" transform="translate(334.67 120.87)">A</text><text class="cls-4" transform="translate(317.67 139.97)">U</text><text class="cls-5" transform="translate(315.24 166.34)">A</text><text class="cls-4" transform="translate(322.51 190)">C</text><text class="cls-4" transform="translate(308.11 210.06)">U</text><text class="cls-4" transform="translate(301.91 237.13)">C</text><text class="cls-3" transform="translate(292.54 263.63)">C</text><text class="cls-3" transform="translate(280.66 288.63)">G</text><text class="cls-6" transform="translate(275.11 314.34)">A</text><text class="cls-3" transform="translate(248.06 320.26)">U</text><text class="cls-1" transform="translate(222.78 331.41)">G</text><text class="cls-1" transform="translate(196.51 340.62)">U</text><text class="cls-1" transform="translate(186.53 361.58)">G</text><text class="cls-1" transform="translate(165.67 373.73)">C</text><text class="cls-1" transform="translate(140.98 371.68)">C</text><text class="cls-1" transform="translate(120.86 357.1)">C</text><text class="cls-1" transform="translate(94.64 360.51)">C</text><text class="cls-1" transform="translate(68.48 363.26)">U</text><text class="cls-1" transform="translate(43.74 365.64)">C</text><text class="cls-7" transform="translate(226.24 276.9)">10</text><text class="cls-7" transform="translate(291.55 59.5)">20</text><text class="cls-7" transform="translate(300.29 288.92)">30</text><text class="cls-7" transform="translate(77.63 374.02)">40</text><line class="cls-8" x1="50.6" y1="337.97" x2="51.32" y2="347.64"/><line class="cls-8" x1="100.97" y1="333.56" x2="102.94" y2="342.03"/><line class="cls-8" x1="127.23" y1="329.79" x2="127.94" y2="339.2"/><line class="cls-8" x1="199.58" y1="312.95" x2="204.11" y2="324.01"/><line class="cls-8" x1="272.06" y1="268.06" x2="280.49" y2="276.61"/><line class="cls-8" x1="284.36" y1="245.74" x2="293.23" y2="251.87"/><line class="cls-8" x1="292.91" y1="220.58" x2="302.48" y2="228.11"/><line class="cls-8" x1="295.62" y1="196.71" x2="309.3" y2="200.89"/><line class="cls-8" x1="303.21" y1="153.51" x2="316.9" y2="157.69"/><line class="cls-8" x1="303.21" y1="129.03" x2="318.67" y2="131.8"/><line class="cls-8" x1="74.97" y1="335.78" x2="75.69" y2="345.45"/><g id="ID000021" class="cls-9"><polygon class="cls-10" points="226.24 307.68 226.1 307.68 225.97 307.68 225.84 307.71 225.71 307.74 225.57 307.78 225.44 307.81 225.31 307.88 225.18 307.94 225.07 308.01 224.94 308.07 224.84 308.18 224.74 308.27 224.64 308.37 224.54 308.47 224.48 308.57 224.41 308.67 224.35 308.8 224.28 308.94 224.21 309.04 224.18 309.17 224.15 309.3 224.11 309.43 224.08 309.6 224.08 309.73 224.08 309.87 224.08 310 224.11 310.13 224.11 310.26 224.15 310.4 224.18 310.53 224.25 310.66 224.31 310.79 224.38 310.89 224.44 311.02 224.51 311.13 224.61 311.26 224.71 311.36 224.81 311.42 224.91 311.52 225.01 311.59 225.14 311.69 225.24 311.75 225.37 311.79 225.51 311.85 225.64 311.89 225.77 311.92 225.9 311.95 226.04 311.99 226.17 311.99 226.3 311.99 226.44 311.99 226.57 311.95 226.7 311.92 226.83 311.89 226.97 311.85 227.1 311.79 227.23 311.75 227.36 311.69 227.46 311.59 227.56 311.52 227.69 311.42 227.79 311.36 227.86 311.26 227.96 311.13 228.03 311.02 228.13 310.89 228.16 310.79 228.22 310.66 228.29 310.53 228.32 310.4 228.36 310.26 228.39 310.13 228.39 310 228.39 309.87 228.39 309.73 228.39 309.6 228.36 309.43 228.32 309.3 228.29 309.17 228.26 309.04 228.19 308.94 228.16 308.8 228.09 308.67 227.99 308.57 227.93 308.47 227.83 308.37 227.73 308.27 227.63 308.18 227.53 308.07 227.4 308.01 227.3 307.94 227.16 307.88 227.03 307.81 226.9 307.78 226.77 307.74 226.63 307.71 226.5 307.68 226.37 307.68 226.24 307.68"/></g><g id="ID000021-2" data-name="ID000021" class="cls-9"><polygon class="cls-10" points="253.64 296.35 253.51 296.35 253.38 296.35 253.24 296.38 253.11 296.41 252.98 296.45 252.85 296.48 252.71 296.55 252.58 296.61 252.48 296.68 252.35 296.75 252.25 296.85 252.15 296.94 252.05 297.04 251.95 297.14 251.88 297.24 251.82 297.34 251.75 297.48 251.69 297.61 251.62 297.71 251.59 297.84 251.55 297.97 251.52 298.11 251.49 298.27 251.49 298.4 251.49 298.54 251.49 298.67 251.52 298.8 251.52 298.93 251.55 299.07 251.59 299.2 251.65 299.33 251.72 299.46 251.78 299.56 251.85 299.7 251.92 299.8 252.02 299.93 252.12 300.03 252.22 300.09 252.31 300.19 252.41 300.26 252.55 300.36 252.65 300.43 252.78 300.46 252.91 300.52 253.04 300.56 253.18 300.59 253.31 300.62 253.44 300.66 253.57 300.66 253.71 300.66 253.84 300.66 253.97 300.62 254.1 300.59 254.24 300.56 254.37 300.52 254.5 300.46 254.64 300.43 254.77 300.36 254.87 300.26 254.97 300.19 255.1 300.09 255.2 300.03 255.27 299.93 255.37 299.8 255.43 299.7 255.53 299.56 255.56 299.46 255.63 299.33 255.7 299.2 255.73 299.07 255.76 298.93 255.8 298.8 255.8 298.67 255.8 298.54 255.8 298.4 255.8 298.27 255.76 298.11 255.73 297.97 255.7 297.84 255.66 297.71 255.6 297.61 255.56 297.48 255.5 297.34 255.4 297.24 255.33 297.14 255.23 297.04 255.13 296.94 255.03 296.85 254.93 296.75 254.8 296.68 254.7 296.61 254.57 296.55 254.44 296.48 254.3 296.45 254.17 296.41 254.04 296.38 253.91 296.35 253.77 296.35 253.64 296.35"/></g><text class="cls-11" transform="translate(28.78 323.01)">5<tspan class="cls-12" x="8.32" y="0">’</tspan></text><text class="cls-11" transform="translate(33.45 373.73)">3<tspan class="cls-12" x="8.32" y="0">’</tspan></text><text class="cls-13" transform="translate(84.24 182.74)"><tspan class="cls-14">1</tspan><tspan x="9.64" y="0">1-1.41 aptamer</tspan></text></svg>