<?xml version="1.0" encoding="utf-8"?>
<!-- Generator: Adobe Illustrator 25.4.1, SVG Export Plug-In . SVG Version: 6.00 Build 0)  -->
<svg version="1.1" id="图层_1" xmlns="http://www.w3.org/2000/svg" xmlns:xlink="http://www.w3.org/1999/xlink" x="0px" y="0px"
	 viewBox="0 0 400 400" style="enable-background:new 0 0 400 400;" xml:space="preserve">
<style type="text/css">
	.st0{fill:#228B22;}
	.st1{font-family:'ArialMT';}
	.st2{font-size:14.79px;}
	.st3{letter-spacing:-1;}
	.st4{fill:#FF870A;}
	.st5{fill:#80DB9E;}
	.st6{fill:#C2C2FF;}
	.st7{fill:none;stroke:#000000;stroke-width:7.000000e-02;stroke-miterlimit:10;}
	.st8{stroke:#000000;stroke-width:7.000000e-02;stroke-miterlimit:10;}
	.st9{font-size:15.98px;}
	.st10{font-size:21.01px;}
</style>
<g id="ID000002">
	<text transform="matrix(1 0 0 1 375.39 231.47)" class="st0 st1 st2 st3">A</text>
</g>
<g id="ID000002-2">
	<text transform="matrix(1 0 0 1 325.03 192.05)" class="st0 st1 st2 st3">A</text>
</g>
<g id="ID000002-3">
	<text transform="matrix(1 0 0 1 126.67 203.47)" class="st4 st1 st2 st3">A</text>
</g>
<g id="ID000002-4">
	<text transform="matrix(1 0 0 1 375.84 203.91)" class="st0 st1 st2 st3">A</text>
</g>
<g id="ID000002-5">
	<text transform="matrix(1 0 0 1 341.64 228.52)" class="st0 st1 st2 st3">A</text>
</g>
<g id="ID000002-6">
	<text transform="matrix(1 0 0 1 308.71 302.95)" class="st0 st1 st2 st3">A</text>
</g>
<g id="ID000002-7">
	<text transform="matrix(1 0 0 1 253.01 229.16)" class="st4 st1 st2 st3">A</text>
</g>
<g id="ID000002-8">
	<text transform="matrix(1 0 0 1 117.44 206.89)" class="st4 st1 st2 st3">A</text>
</g>
<g id="ID000002-9">
	<text transform="matrix(1 0 0 1 111.18 230.1)" class="st4 st1 st2 st3">A</text>
</g>
<g id="ID000002-10">
	<text transform="matrix(1 0 0 1 252.01 194.65)" class="st4 st1 st2 st3">A</text>
</g>
<g id="ID000002-11">
	<text transform="matrix(1 0 0 1 244.26 207.07)" class="st4 st1 st2 st3">A</text>
</g>
<g id="ID000002-12">
	<text transform="matrix(1 0 0 1 258.11 141.33)" class="st5 st1 st2 st3">A</text>
</g>
<g id="ID000002-13">
	<text transform="matrix(1 0 0 1 258.12 157.12)" class="st5 st1 st2 st3">A</text>
</g>
<g id="ID000002-14">
	<text transform="matrix(1 0 0 1 270.95 85.48)" class="st5 st1 st2 st3">A</text>
</g>
<g id="ID000002-15">
	<text transform="matrix(1 0 0 1 248.29 135.22)" class="st5 st1 st2 st3">A</text>
</g>
<g id="ID000002-16">
	<text transform="matrix(1 0 0 1 143.61 242.5)" class="st4 st1 st2 st3">A</text>
</g>
<g id="ID000002-17">
	<text transform="matrix(1 0 0 1 169.17 262.77)" class="st4 st1 st2 st3">A</text>
</g>
<g id="ID000002-18">
	<text transform="matrix(1 0 0 1 238.74 262.77)" class="st4 st1 st2 st3">A</text>
</g>
<g id="ID000002-19">
	<text transform="matrix(1 0 0 1 186.75 273.32)" class="st4 st1 st2 st3">A</text>
</g>
<g id="ID000002-20">
	<text transform="matrix(1 0 0 1 213.78 262.77)" class="st4 st1 st2 st3">A</text>
</g>
<g id="ID000002-21">
	<text transform="matrix(1 0 0 1 155.93 262.77)" class="st4 st1 st2 st3">A</text>
</g>
<g id="ID000002-22">
	<text transform="matrix(1 0 0 1 42.47 229.02)" class="st6 st1 st2 st3">A</text>
</g>
<g id="ID000002-23">
	<text transform="matrix(1 0 0 1 31.76 226.39)" class="st6 st1 st2 st3">A</text>
</g>
<g id="ID000002-24">
	<text transform="matrix(1 0 0 1 5.31 248.53)" class="st6 st1 st2 st3">A</text>
</g>
<g id="ID000002-25">
	<text transform="matrix(1 0 0 1 110.18 262.77)" class="st6 st1 st2 st3">A</text>
</g>
<g id="ID000002-26">
	<text transform="matrix(1 0 0 1 32.35 280.73)" class="st6 st1 st2 st3">A</text>
</g>
<g id="ID000002-27">
	<text transform="matrix(1 0 0 1 43.76 278.9)" class="st6 st1 st2 st3">A</text>
</g>
<g id="ID000003">
	<text transform="matrix(1 0 0 1 110.77 218.07)" class="st4 st1 st2">C</text>
</g>
<g id="ID000003-2">
	<text transform="matrix(1 0 0 1 284.09 132.03)" class="st5 st1 st2">C</text>
</g>
<g id="ID000003-3">
	<text transform="matrix(1 0 0 1 20.21 229.92)" class="st6 st1 st2">C</text>
</g>
<g id="ID000003-4">
	<text transform="matrix(1 0 0 1 97.2 263.77)" class="st6 st1 st2">C</text>
</g>
<g id="ID000003-5">
	<text transform="matrix(1 0 0 1 21.53 280.56)" class="st6 st1 st2">C</text>
</g>
<g id="ID000003-6">
	<text transform="matrix(1 0 0 1 52.28 273.03)" class="st6 st1 st2">C</text>
</g>
<g id="ID000004">
	<text transform="matrix(1 0 0 1 84.45 243.5)" class="st6 st1 st2">C</text>
</g>
<g id="ID000004-2">
	<text transform="matrix(1 0 0 1 72.13 263.77)" class="st6 st1 st2">C</text>
</g>
<g id="ID000004-3">
	<text transform="matrix(1 0 0 1 181.74 242.5)" class="st4 st1 st2">C</text>
</g>
<g id="ID000004-4">
	<text transform="matrix(1 0 0 1 196.95 282.67)" class="st4 st1 st2">C</text>
</g>
<g id="ID000004-5">
	<text transform="matrix(1 0 0 1 224.94 242.5)" class="st4 st1 st2">C</text>
</g>
<g id="ID000004-6">
	<text transform="matrix(1 0 0 1 249.76 242.5)" class="st4 st1 st2">C</text>
</g>
<g id="ID000004-7">
	<text transform="matrix(1 0 0 1 333.88 293.08)" class="st0 st1 st2">C</text>
</g>
<g id="ID000004-8">
	<text transform="matrix(1 0 0 1 312.98 316.13)" class="st0 st1 st2">C</text>
</g>
<g id="ID000004-9">
	<text transform="matrix(1 0 0 1 333.88 280.9)" class="st0 st1 st2">C</text>
</g>
<g id="ID000004-10">
	<text transform="matrix(1 0 0 1 341.99 304.15)" class="st0 st1 st2">C</text>
</g>
<g id="ID000004-11">
	<text transform="matrix(1 0 0 1 333.88 266.52)" class="st0 st1 st2">C</text>
</g>
<g id="ID000004-12">
	<text transform="matrix(1 0 0 1 316.87 252.83)" class="st0 st1 st2">C</text>
</g>
<g id="ID000004-13">
	<text transform="matrix(1 0 0 1 257.71 170.25)" class="st5 st1 st2">C</text>
</g>
<g id="ID000004-14">
	<text transform="matrix(1 0 0 1 351.51 209.61)" class="st0 st1 st2">C</text>
</g>
<g id="ID000004-15">
	<text transform="matrix(1 0 0 1 283.44 92.21)" class="st5 st1 st2">C</text>
</g>
<g id="ID000004-16">
	<text transform="matrix(1 0 0 1 238.64 127.72)" class="st5 st1 st2">C</text>
</g>
<g id="ID000004-17">
	<text transform="matrix(1 0 0 1 257.71 184.06)" class="st5 st1 st2">C</text>
</g>
<g id="ID000004-18">
	<text transform="matrix(1 0 0 1 290.99 120.78)" class="st5 st1 st2">C</text>
</g>
<g id="ID000004-19">
	<text transform="matrix(1 0 0 1 289.42 106.79)" class="st5 st1 st2">C</text>
</g>
<g id="ID000004-20">
	<text transform="matrix(1 0 0 1 238.69 98.76)" class="st5 st1 st2">C</text>
</g>
<g id="ID000004-21">
	<text transform="matrix(1 0 0 1 234.44 113.53)" class="st5 st1 st2">C</text>
</g>
<g id="ID000006">
	<text transform="matrix(1 0 0 1 304.61 182.11)" class="st0 st1 st2">U</text>
</g>
<g id="ID000006-2">
	<text transform="matrix(1 0 0 1 363.32 228.52)" class="st0 st1 st2">U</text>
</g>
<g id="ID000006-3">
	<text transform="matrix(1 0 0 1 337.78 316.27)" class="st0 st1 st2">U</text>
</g>
<g id="ID000006-4">
	<text transform="matrix(1 0 0 1 143.5 262.77)" class="st4 st1 st2">U</text>
</g>
<g id="ID000006-5">
	<text transform="matrix(1 0 0 1 276.71 141.92)" class="st5 st1 st2">U</text>
</g>
<g id="ID000006-6">
	<text transform="matrix(1 0 0 1 169.18 242.5)" class="st4 st1 st2">U</text>
</g>
<g id="ID000006-7">
	<text transform="matrix(1 0 0 1 276.71 157.71)" class="st5 st1 st2">U</text>
</g>
<g id="ID000006-8">
	<text transform="matrix(1 0 0 1 206.99 274.85)" class="st4 st1 st2">U</text>
</g>
<g id="ID000006-9">
	<text transform="matrix(1 0 0 1 237.57 242.5)" class="st4 st1 st2">U</text>
</g>
<g id="ID000006-10">
	<text transform="matrix(1 0 0 1 260.39 83.4)" class="st5 st1 st2">U</text>
</g>
<g id="ID000006-11">
	<text transform="matrix(1 0 0 1 203.1 232.21)" class="st4 st1 st2">U</text>
</g>
<g id="ID000006-12">
	<text transform="matrix(1 0 0 1 213.2 242.5)" class="st4 st1 st2">U</text>
</g>
<g id="ID000006-13">
	<text transform="matrix(1 0 0 1 155.93 242.5)" class="st4 st1 st2">U</text>
</g>
<g id="ID000006-14">
	<text transform="matrix(1 0 0 1 137.15 206.43)" class="st4 st1 st2">U</text>
</g>
<g id="ID000006-15">
	<text transform="matrix(1 0 0 1 243.85 222.75)" class="st4 st1 st2">U</text>
</g>
<g id="ID000006-16">
	<text transform="matrix(1 0 0 1 248.58 89.9)" class="st5 st1 st2">U</text>
</g>
<g id="ID000006-17">
	<text transform="matrix(1 0 0 1 53.15 233.21)" class="st6 st1 st2">U</text>
</g>
<g id="ID000006-18">
	<text transform="matrix(1 0 0 1 110.01 243.5)" class="st6 st1 st2">U</text>
</g>
<g id="ID000006-19">
	<text transform="matrix(1 0 0 1 11.72 273.2)" class="st6 st1 st2">U</text>
</g>
<g id="ID000006-20">
	<text transform="matrix(1 0 0 1 60.9 263.77)" class="st6 st1 st2">U</text>
</g>
<g id="ID000007">
	<text transform="matrix(1 0 0 1 316.13 184.04)" class="st0 st1 st2">G</text>
</g>
<g id="ID000008">
	<text transform="matrix(1 0 0 1 122.25 269.63)" class="st4 st1 st2 st3">A</text>
</g>
<g id="ID000010">
	<text transform="matrix(1 0 0 1 59.72 243.5)" class="st6 st1 st2">G</text>
</g>
<g id="ID000013">
	<text transform="matrix(1 0 0 1 5.31 261.07)" class="st6 st1 st2">G</text>
</g>
<g id="ID000014">
	<text transform="matrix(1 0 0 1 142.01 229.16)" class="st4 st1 st2">G</text>
</g>
<g id="ID000014-2">
	<text transform="matrix(1 0 0 1 71.53 243.5)" class="st6 st1 st2">G</text>
</g>
<g id="ID000014-3">
	<text transform="matrix(1 0 0 1 97.2 243.5)" class="st6 st1 st2">G</text>
</g>
<g id="ID000014-4">
	<text transform="matrix(1 0 0 1 181.3 262.77)" class="st4 st1 st2">G</text>
</g>
<g id="ID000014-5">
	<text transform="matrix(1 0 0 1 250.5 262.77)" class="st4 st1 st2">G</text>
</g>
<g id="ID000014-6">
	<text transform="matrix(1 0 0 1 254.46 275.03)" class="st4 st1 st2">G</text>
</g>
<g id="ID000014-7">
	<text transform="matrix(1 0 0 1 265.04 285.04)" class="st4 st1 st2">G</text>
</g>
<g id="ID000014-8">
	<text transform="matrix(1 0 0 1 333.47 253.01)" class="st0 st1 st2">G</text>
</g>
<g id="ID000014-9">
	<text transform="matrix(1 0 0 1 316.46 293.91)" class="st0 st1 st2">G</text>
</g>
<g id="ID000014-10">
	<text transform="matrix(1 0 0 1 316.46 281.14)" class="st0 st1 st2">G</text>
</g>
<g id="ID000014-11">
	<text transform="matrix(1 0 0 1 305.97 242.24)" class="st0 st1 st2">G</text>
</g>
<g id="ID000014-12">
	<text transform="matrix(1 0 0 1 316.46 266.7)" class="st0 st1 st2">G</text>
</g>
<g id="ID000014-13">
	<text transform="matrix(1 0 0 1 225.68 262.77)" class="st4 st1 st2">G</text>
</g>
<g id="ID000014-14">
	<text transform="matrix(1 0 0 1 276.3 171.02)" class="st5 st1 st2">G</text>
</g>
<g id="ID000014-15">
	<text transform="matrix(1 0 0 1 190.68 231.86)" class="st4 st1 st2">G</text>
</g>
<g id="ID000014-16">
	<text transform="matrix(1 0 0 1 276.3 184.82)" class="st5 st1 st2">G</text>
</g>
<g id="ID000014-17">
	<text transform="matrix(1 0 0 1 83.54 263.77)" class="st6 st1 st2">G</text>
</g>
<g id="ID000015">
	<text transform="matrix(1 0 0 1 10.55 236.56)" class="st6 st1 st2">U</text>
</g>
<g id="ID000016">
	<text transform="matrix(1 0 0 1 143.89 216.02)" class="st4 st1 st2">G</text>
</g>
<g id="ID000028">
	<text transform="matrix(1 0 0 1 330.23 204.06)" class="st0 st1 st2">U</text>
</g>
<g id="ID000028-2">
	<text transform="matrix(1 0 0 1 340.47 209.61)" class="st0 st1 st2">U</text>
</g>
<g id="ID000029">
	<text transform="matrix(1 0 0 1 286.42 190.82)" class="st0 st1 st2 st3">A</text>
</g>
<g id="ID000029-2">
	<text transform="matrix(1 0 0 1 134.07 269.19)" class="st4 st1 st2 st3">A</text>
</g>
<g id="ID000030">
	<text transform="matrix(1 0 0 1 362.14 209.61)" class="st0 st1 st2">G</text>
</g>
<g id="ID000030-2">
	<text transform="matrix(1 0 0 1 324.55 319.89)" class="st0 st1 st2">G</text>
</g>
<g id="ID000030-3">
	<text transform="matrix(1 0 0 1 333 240.53)" class="st0 st1 st2">G</text>
</g>
<g id="ID000030-4">
	<text transform="matrix(1 0 0 1 351.87 228.52)" class="st0 st1 st2">G</text>
</g>
<g id="ID000034">
	<text transform="matrix(1 0 0 1 383.74 218.57)" class="st0 st1 st2">C</text>
</g>
<g id="ID000035">
	<text transform="matrix(1 0 0 1 293.59 183.78)" class="st0 st1 st2">C</text>
</g>
<g id="ID000019">
	<line class="st7" x1="76.6" y1="252.5" x2="76.6" y2="244.7"/>
</g>
<g id="ID000019-2">
	<line class="st7" x1="90.1" y1="252.5" x2="90.1" y2="244.7"/>
</g>
<g id="ID000019-3">
	<line class="st7" x1="188.1" y1="251.4" x2="188.1" y2="243.5"/>
</g>
<g id="ID000019-4">
	<line class="st7" x1="219" y1="251.4" x2="219" y2="243.5"/>
</g>
<g id="ID000019-5">
	<line class="st7" x1="207.4" y1="173.6" x2="212.5" y2="179.6"/>
</g>
<g id="ID000019-6">
	<line class="st7" x1="310.1" y1="162.4" x2="310" y2="170.2"/>
</g>
<g id="ID000019-7">
	<line class="st7" x1="331.5" y1="321.2" x2="331.3" y2="329"/>
</g>
<g id="ID000019-8">
	<line class="st7" x1="250.1" y1="165.3" x2="257.9" y2="165.2"/>
</g>
<g id="ID000019-9">
	<line class="st7" x1="67.8" y1="264.6" x2="70.1" y2="272"/>
</g>
<g id="ID000019-10">
	<line class="st7" x1="116.8" y1="191.9" x2="119.1" y2="199.4"/>
</g>
<g id="ID000019-11">
	<line class="st7" x1="268.4" y1="136.6" x2="276.3" y2="136.6"/>
</g>
<g id="ID000019-12">
	<line class="st7" x1="268.4" y1="153" x2="276.3" y2="152.9"/>
</g>
<g id="ID000019-13">
	<line class="st7" x1="268.4" y1="165.3" x2="276.3" y2="165.2"/>
</g>
<g id="ID000019-14">
	<line class="st7" x1="268.4" y1="179" x2="276.3" y2="179"/>
</g>
<g id="ID000019-15">
	<line class="st7" x1="327.1" y1="247.5" x2="333.5" y2="247.4"/>
</g>
<g id="ID000019-16">
	<line class="st7" x1="327.8" y1="261.1" x2="334.3" y2="261"/>
</g>
<g id="ID000019-17">
	<line class="st7" x1="327.8" y1="276" x2="334.3" y2="275.9"/>
</g>
<g id="ID000019-18">
	<line class="st7" x1="327.8" y1="288.1" x2="334.3" y2="288.1"/>
</g>
<g id="ID000019-19">
	<line class="st7" x1="230.7" y1="251.4" x2="230.7" y2="243.5"/>
</g>
<g id="ID000019-20">
	<line class="st7" x1="243.5" y1="251.4" x2="243.5" y2="243.5"/>
</g>
<g id="ID000019-21">
	<line class="st7" x1="255.1" y1="251.4" x2="255.1" y2="243.6"/>
</g>
<g id="ID000019-22">
	<line class="st7" x1="356.8" y1="217" x2="356.8" y2="210.7"/>
</g>
<g id="ID000019-23">
	<line class="st7" x1="345.9" y1="217" x2="345.9" y2="210.7"/>
</g>
<g id="ID000019-24">
	<line class="st7" x1="102.6" y1="252.5" x2="102.6" y2="244.7"/>
</g>
<g id="ID000019-25">
	<line class="st7" x1="174" y1="251.4" x2="174" y2="243.5"/>
</g>
<g id="ID000019-26">
	<line class="st7" x1="115" y1="252.5" x2="115" y2="244.7"/>
</g>
<g id="ID000019-27">
	<line class="st7" x1="160.2" y1="251.4" x2="160.2" y2="243.5"/>
</g>
<g id="ID000019-28">
	<line class="st7" x1="149" y1="251.4" x2="149" y2="243.5"/>
</g>
<g id="ID000038">
	<polygon class="st8" points="65.8,246.3 65.7,246.3 65.6,246.3 65.4,246.4 65.3,246.4 65.2,246.4 65.1,246.5 64.9,246.5 
		64.8,246.6 64.7,246.7 64.6,246.7 64.5,246.8 64.4,246.9 64.3,247 64.2,247.1 64.1,247.2 64,247.3 64,247.5 63.9,247.6 63.8,247.7 
		63.8,247.8 63.8,247.9 63.7,248.1 63.7,248.2 63.7,248.4 63.7,248.5 63.7,248.6 63.7,248.8 63.7,248.9 63.8,249 63.8,249.2 
		63.9,249.3 63.9,249.4 64,249.5 64.1,249.6 64.1,249.8 64.2,249.9 64.3,249.9 64.4,250.1 64.5,250.1 64.6,250.2 64.8,250.3 
		64.8,250.4 65,250.4 65.1,250.5 65.2,250.5 65.4,250.5 65.5,250.6 65.6,250.6 65.8,250.6 65.9,250.6 66,250.6 66.2,250.6 
		66.3,250.5 66.4,250.5 66.6,250.5 66.7,250.4 66.8,250.4 66.9,250.3 67.1,250.2 67.1,250.1 67.3,250.1 67.4,249.9 67.5,249.9 
		67.5,249.8 67.6,249.6 67.7,249.5 67.8,249.4 67.8,249.3 67.9,249.2 67.9,249 67.9,248.9 68,248.8 68,248.6 68,248.5 68,248.4 
		68,248.2 67.9,248.1 67.9,247.9 67.9,247.8 67.8,247.7 67.8,247.6 67.7,247.5 67.7,247.3 67.6,247.2 67.5,247.1 67.4,247 
		67.3,246.9 67.2,246.8 67.1,246.7 67,246.7 66.9,246.6 66.8,246.5 66.6,246.5 66.5,246.4 66.4,246.4 66.2,246.4 66.1,246.3 
		66,246.3 	"/>
</g>
<g id="ID000038-2">
	<polygon class="st8" points="368.6,211.7 368.5,211.7 368.3,211.7 368.2,211.8 368.1,211.8 367.9,211.8 367.8,211.9 367.7,211.9 
		367.6,212 367.4,212.1 367.3,212.1 367.2,212.2 367.1,212.3 367,212.4 367,212.5 366.9,212.6 366.8,212.7 366.7,212.8 366.6,213 
		366.6,213.1 366.5,213.2 366.5,213.3 366.5,213.5 366.5,213.6 366.5,213.8 366.5,213.9 366.5,214 366.5,214.1 366.5,214.3 
		366.5,214.4 366.6,214.5 366.6,214.7 366.7,214.8 366.8,214.9 366.8,215 366.9,215.1 367,215.2 367.1,215.3 367.2,215.4 
		367.3,215.5 367.4,215.6 367.5,215.7 367.6,215.8 367.7,215.8 367.9,215.9 368,215.9 368.1,215.9 368.3,215.9 368.4,216 368.5,216 
		368.6,216 368.8,216 368.9,215.9 369.1,215.9 369.2,215.9 369.3,215.9 369.4,215.8 369.6,215.8 369.7,215.7 369.8,215.6 
		369.9,215.5 370,215.4 370.1,215.3 370.2,215.2 370.3,215.1 370.4,215 370.5,214.9 370.5,214.8 370.5,214.7 370.6,214.5 
		370.6,214.4 370.7,214.3 370.7,214.1 370.7,214 370.7,213.9 370.7,213.8 370.7,213.6 370.7,213.5 370.7,213.3 370.6,213.2 
		370.6,213.1 370.5,213 370.5,212.8 370.4,212.7 370.3,212.6 370.3,212.5 370.2,212.4 370.1,212.3 370,212.2 369.9,212.1 
		369.7,212.1 369.6,212 369.5,211.9 369.4,211.9 369.2,211.8 369.1,211.8 369,211.8 368.9,211.7 368.7,211.7 	"/>
</g>
<text transform="matrix(1 0 0 1 259.85 299.95)" class="st1 st9">5</text>
<text transform="matrix(1 0 0 1 268.74 299.95)" class="st1 st9">’</text>
<text transform="matrix(1 0 0 1 232.73 171.02)" class="st1 st9">60</text>
<text transform="matrix(1 0 0 1 301.07 161.12)" class="st1 st9">80</text>
<text transform="matrix(1 0 0 1 318.07 341.54)" class="st1 st9">100</text>
<text transform="matrix(1 0 0 1 107.84 191.82)" class="st1 st9">40</text>
<text transform="matrix(1 0 0 1 63.96 284.22)" class="st1 st9">20</text>
<text transform="matrix(1 0 0 1 299.51 230.73)" class="st1 st9">3</text>
<text transform="matrix(1 0 0 1 308.4 230.73)" class="st1 st9">’</text>
<text transform="matrix(1 0 0 1 60.51 149.63)" class="st1 st10">21.01 aptamer</text>
</svg>
