<?xml version="1.0" encoding="utf-8"?>
<!-- Generator: Adobe Illustrator 25.4.1, SVG Export Plug-In . SVG Version: 6.00 Build 0)  -->
<svg version="1.1" id="图层_1" xmlns="http://www.w3.org/2000/svg" xmlns:xlink="http://www.w3.org/1999/xlink" x="0px" y="0px"
	 viewBox="0 0 400 400" style="enable-background:new 0 0 400 400;" xml:space="preserve">
<style type="text/css">
	.st0{fill:#FF870A;}
	.st1{font-family:'ArialMT';}
	.st2{font-size:39px;}
	.st3{letter-spacing:-2;}
	.st4{fill:#228B22;}
	.st5{fill:none;stroke:#000000;stroke-width:7.000000e-02;stroke-miterlimit:10;}
	.st6{font-size:24.83px;}
	.st7{stroke:#000000;stroke-width:7.000000e-02;stroke-miterlimit:10;}
	.st8{fill:#C2C2FF;}
	.st9{font-size:20px;}
</style>
<g id="ID000002">
	<text transform="matrix(1 0 0 1 53.41 252.57)" class="st0 st1 st2 st3">A</text>
</g>
<g id="ID000003">
	<text transform="matrix(1 0 0 1 85.12 252.57)" class="st0 st1 st2">C</text>
</g>
<g id="ID000004">
	<text transform="matrix(1 0 0 1 117.74 252.57)" class="st0 st1 st2">C</text>
</g>
<g id="ID000005">
	<text transform="matrix(1 0 0 1 150.36 252.57)" class="st0 st1 st2">C</text>
</g>
<g id="ID000006">
	<text transform="matrix(1 0 0 1 180.49 252.57)" class="st4 st1 st2">U</text>
</g>
<g id="ID000007">
	<text transform="matrix(1 0 0 1 186.28 284.51)" class="st4 st1 st2">G</text>
</g>
<g id="ID000008">
	<text transform="matrix(1 0 0 1 212.24 303)" class="st4 st1 st2 st3">A</text>
</g>
<g id="ID000009">
	<text transform="matrix(1 0 0 1 184.55 187.34)" class="st0 st1 st2">G</text>
</g>
<g id="ID000010">
	<text transform="matrix(1 0 0 1 151.93 187.34)" class="st0 st1 st2">G</text>
</g>
<g id="ID000011">
	<line class="st5" x1="164.7" y1="160.9" x2="164.7" y2="139.1"/>
</g>
<g id="ID000012">
	<text transform="matrix(1 0 0 1 151.42 135.91)" class="st1 st6">20</text>
</g>
<g id="ID000013">
	<text transform="matrix(1 0 0 1 119.31 187.34)" class="st0 st1 st2">G</text>
</g>
<g id="ID000014">
	<text transform="matrix(1 0 0 1 86.69 187.34)" class="st0 st1 st2">G</text>
</g>
<g id="ID000015">
	<text transform="matrix(1 0 0 1 54.99 187.34)" class="st0 st1 st2">U</text>
</g>
<g id="ID000016">
	<text transform="matrix(1 0 0 1 21.46 187.34)" class="st0 st1 st2">G</text>
</g>
<g id="ID000017">
	<line class="st5" x1="64.3" y1="227.3" x2="64.3" y2="188.2"/>
</g>
<g id="ID000018">
	<line class="st5" x1="96.9" y1="227.3" x2="96.9" y2="188.2"/>
</g>
<g id="ID000019">
	<line class="st5" x1="129.6" y1="227.3" x2="129.6" y2="188.2"/>
</g>
<g id="ID000020">
	<line class="st5" x1="162.2" y1="227.3" x2="162.2" y2="188.2"/>
</g>
<g id="ID000021">
	<polygon class="st7" points="194.8,198.8 194.4,198.8 194,198.8 193.6,198.9 193.2,199 192.8,199.1 192.4,199.2 192,199.4 
		191.6,199.6 191.3,199.8 190.9,200 190.6,200.3 190.3,200.6 190,200.9 189.7,201.2 189.5,201.5 189.3,201.8 189.1,202.2 
		188.9,202.6 188.7,202.9 188.6,203.3 188.5,203.7 188.4,204.1 188.3,204.6 188.3,205 188.3,205.4 188.3,205.8 188.4,206.2 
		188.4,206.6 188.5,207 188.6,207.4 188.8,207.8 189,208.2 189.2,208.5 189.4,208.9 189.6,209.2 189.9,209.6 190.2,209.9 
		190.5,210.1 190.8,210.4 191.1,210.6 191.5,210.9 191.8,211.1 192.2,211.2 192.6,211.4 193,211.5 193.4,211.6 193.8,211.7 
		194.2,211.8 194.6,211.8 195,211.8 195.4,211.8 195.8,211.7 196.2,211.6 196.6,211.5 197,211.4 197.4,211.2 197.8,211.1 
		198.2,210.9 198.5,210.6 198.8,210.4 199.2,210.1 199.5,209.9 199.7,209.6 200,209.2 200.2,208.9 200.5,208.5 200.6,208.2 
		200.8,207.8 201,207.4 201.1,207 201.2,206.6 201.3,206.2 201.3,205.8 201.3,205.4 201.3,205 201.3,204.6 201.2,204.1 201.1,203.7 
		201,203.3 200.9,202.9 200.7,202.6 200.6,202.2 200.4,201.8 200.1,201.5 199.9,201.2 199.6,200.9 199.3,200.6 199,200.3 198.7,200 
		198.3,199.8 198,199.6 197.6,199.4 197.2,199.2 196.8,199.1 196.4,199 196,198.9 195.6,198.8 195.2,198.8 	"/>
</g>
<g id="ID000023">
	<text transform="matrix(1 0 0 1 232.26 282.87)" class="st4 st1 st2">U</text>
</g>
<g id="ID000024">
	<text transform="matrix(1 0 0 1 235.49 249.86)" class="st4 st1 st2">G</text>
</g>
<g id="ID000025">
	<text transform="matrix(1 0 0 1 265.62 227.51)" class="st8 st1 st2">G</text>
</g>
<g id="ID000026">
	<line class="st5" x1="282.4" y1="229.6" x2="284.3" y2="251.3"/>
</g>
<g id="ID000027">
	<text transform="matrix(1 0 0 1 272.56 269.98)" class="st1 st6">10</text>
</g>
<g id="ID000028">
	<text transform="matrix(1 0 0 1 299.15 202.68)" class="st8 st1 st2">U</text>
</g>
<g id="ID000029">
	<text transform="matrix(1 0 0 1 332.67 185.3)" class="st8 st1 st2 st3">A</text>
</g>
<g id="ID000030">
	<text transform="matrix(1 0 0 1 353.55 164.02)" class="st8 st1 st2">G</text>
</g>
<g id="ID000031">
	<text transform="matrix(1 0 0 1 352.88 130.7)" class="st8 st1 st2 st3">A</text>
</g>
<g id="ID000032">
	<text transform="matrix(1 0 0 1 321.84 125.03)" class="st8 st1 st2">C</text>
</g>
<g id="ID000033">
	<text transform="matrix(1 0 0 1 288.31 137.44)" class="st8 st1 st2">G</text>
</g>
<g id="ID000034">
	<text transform="matrix(1 0 0 1 256.6 162.27)" class="st8 st1 st2">C</text>
</g>
<g id="ID000035">
	<text transform="matrix(1 0 0 1 223.98 184.62)" class="st8 st1 st2">C</text>
</g>
<g id="ID000036">
	<line class="st5" x1="242.9" y1="224.5" x2="238.7" y2="185.6"/>
</g>
<g id="ID000037">
	<line class="st5" x1="274.5" y1="202.2" x2="272.3" y2="163.2"/>
</g>
<g id="ID000038">
	<polygon class="st7" points="306,151.3 305.6,151.4 305.2,151.4 304.8,151.5 304.4,151.6 304,151.7 303.6,151.8 303.2,152 
		302.9,152.2 302.5,152.4 302.1,152.6 301.8,152.9 301.5,153.1 301.2,153.4 301,153.8 300.7,154.1 300.5,154.4 300.3,154.8 
		300.1,155.2 299.9,155.5 299.8,155.9 299.7,156.3 299.6,156.7 299.5,157.1 299.5,157.6 299.5,158 299.5,158.4 299.6,158.8 
		299.6,159.2 299.7,159.6 299.9,160 300,160.4 300.2,160.8 300.4,161.1 300.6,161.5 300.8,161.8 301.1,162.1 301.4,162.4 
		301.7,162.7 302,163 302.3,163.2 302.7,163.5 303,163.7 303.4,163.8 303.8,164 304.2,164.1 304.6,164.2 305,164.3 305.4,164.4 
		305.8,164.4 306.2,164.4 306.6,164.4 307,164.3 307.5,164.2 307.9,164.1 308.2,164 308.6,163.8 309,163.7 309.4,163.5 309.7,163.2 
		310,163 310.4,162.7 310.7,162.4 311,162.1 311.2,161.8 311.5,161.5 311.7,161.1 311.9,160.8 312,160.4 312.2,160 312.3,159.6 
		312.4,159.2 312.5,158.8 312.5,158.4 312.5,158 312.5,157.6 312.5,157.1 312.4,156.7 312.4,156.3 312.2,155.9 312.1,155.5 
		312,155.2 311.8,154.8 311.6,154.4 311.3,154.1 311.1,153.8 310.8,153.4 310.5,153.1 310.2,152.9 309.9,152.6 309.5,152.4 
		309.2,152.2 308.8,152 308.4,151.8 308,151.7 307.6,151.6 307.2,151.5 306.8,151.4 306.4,151.4 	"/>
</g>
<text transform="matrix(1 0 0 1 39.12 279.16)" class="st1 st6">5</text>
<text transform="matrix(1 0 0 1 52.93 279.16)" class="st1 st6">’</text>
<text transform="matrix(1 0 0 1 16.77 155.91)" class="st1 st6">3</text>
<text transform="matrix(1 0 0 1 30.58 155.91)" class="st1 st6">’</text>
<text transform="matrix(1 0 0 1 126.49 91.33)" class="st1 st9">NX-213 aptamer</text>
</svg>
