<?xml version="1.0" encoding="utf-8"?>
<!-- Generator: Adobe Illustrator 25.2.0, SVG Export Plug-In . SVG Version: 6.00 Build 0)  -->
<svg version="1.1" id="图层_1" xmlns="http://www.w3.org/2000/svg" xmlns:xlink="http://www.w3.org/1999/xlink" x="0px" y="0px"
	 viewBox="0 0 800 400" style="enable-background:new 0 0 800 400;" xml:space="preserve">
<style type="text/css">
	.st0{fill:none;stroke:#000000;stroke-width:2.8125;stroke-miterlimit:3.75;}
	.st1{fill:none;stroke:#000000;stroke-width:0.9375;stroke-miterlimit:3.75;}
	.st2{fill:#FFFFFF;stroke:#000000;stroke-width:0.9375;stroke-miterlimit:3.75;}
	.st3{fill:#D4D42C;}
	.st4{font-family:'CourierNewPSMT';}
	.st5{font-size:15.1571px;}
	.st6{fill:none;stroke:#D4D42C;stroke-width:0.9375;stroke-miterlimit:3.75;}
	.st7{fill:#FF0000;}
	.st8{fill:none;stroke:#FF0000;stroke-width:0.9375;stroke-miterlimit:3.75;}
	.st9{fill:#FFAB00;}
	.st10{fill:none;stroke:#FFAB00;stroke-width:0.9375;stroke-miterlimit:3.75;}
	.st11{fill:#00FF00;}
	.st12{fill:none;stroke:#00FF00;stroke-width:0.9375;stroke-miterlimit:3.75;}
	.st13{fill:#FFFFFF;stroke:#FFFFFF;stroke-width:0.9375;stroke-miterlimit:3.75;}
	.st14{fill:#00ABFF;}
	.st15{fill:none;stroke:#00ABFF;stroke-width:0.9375;stroke-miterlimit:3.75;}
	.st16{fill:#FF80FF;}
	.st17{fill:none;stroke:#FF80FF;stroke-width:0.9375;stroke-miterlimit:3.75;}
	.st18{fill:#0000FF;}
	.st19{fill:none;stroke:#0000FF;stroke-width:0.9375;stroke-miterlimit:3.75;}
	.st20{fill:#008000;}
	.st21{fill:none;stroke:#008000;stroke-width:0.9375;stroke-miterlimit:3.75;}
	.st22{font-size:16px;}
	.st23{fill:none;stroke:#FF0000;}
	.st24{fill:none;stroke:#FFAB00;}
	.st25{fill:none;stroke:#D4D42C;}
	.st26{fill:none;stroke:#008000;}
	.st27{fill:none;stroke:#00FF00;}
	.st28{fill:none;stroke:#00ABFF;}
	.st29{fill:none;stroke:#0000FF;}
	.st30{fill:none;stroke:#FF80FF;}
	.st31{fill:none;stroke:#000000;}
</style>
<g transform="scale(0.9375)">
	<path class="st0" d="M475.7,411.8c13.3,0,26.6,0,40,0"/>
	<path class="st0" d="M475.7,390.9c13.3,0,26.6,0,40,0"/>
	<path class="st0" d="M475.7,370c13.3,0,26.6,0,40,0"/>
	<path class="st0" d="M475.7,349.1c13.3,0,26.6,0,40,0"/>
	<path class="st0" d="M475.7,328.2c13.3,0,26.6,0,40,0"/>
	<path class="st0" d="M475.7,307.3c13.3,0,26.6,0,40,0"/>
	<path class="st0" d="M560,118c9.4,8.8,18.9,17.5,28.3,26.3"/>
	<path class="st0" d="M576,103.2c9.4,8.8,18.9,17.5,28.3,26.3"/>
	<path class="st0" d="M592,88.4c9.4,8.8,18.9,17.5,28.3,26.3"/>
	<path class="st0" d="M607.9,73.6c9.4,8.8,18.9,17.5,28.3,26.3"/>
	<path class="st0" d="M623.9,58.8c9.4,8.8,18.9,17.5,28.3,26.3"/>
	<path class="st0" d="M639.9,43.9c9.4,8.8,18.9,17.5,28.3,26.3"/>
	<line class="st1" x1="475.7" y1="411.8" x2="475.7" y2="390.9"/>
	<ellipse class="st2" cx="475.7" cy="411.8" rx="8.2" ry="7.6"/>
	<text transform="matrix(1.1506 0 0 1.0667 469.8808 417.1404)" class="st3 st4 st5">G</text>
	<text transform="matrix(1.1506 0 0 1.0667 469.8808 417.1404)" class="st6 st4 st5">G</text>
	<line class="st1" x1="475.7" y1="390.9" x2="475.7" y2="370"/>
	<ellipse class="st2" cx="475.7" cy="390.9" rx="8.2" ry="7.6"/>
	<text transform="matrix(1.1506 0 0 1.0667 469.8808 396.257)" class="st7 st4 st5">G</text>
	<text transform="matrix(1.1506 0 0 1.0667 469.8808 396.257)" class="st8 st4 st5">G</text>
	<line class="st1" x1="475.7" y1="370" x2="475.7" y2="349.1"/>
	<ellipse class="st2" cx="475.7" cy="370" rx="8.2" ry="7.6"/>
	<text transform="matrix(1.1506 0 0 1.0667 469.8808 375.3737)" class="st7 st4 st5">G</text>
	<text transform="matrix(1.1506 0 0 1.0667 469.8808 375.3737)" class="st8 st4 st5">G</text>
	<line class="st1" x1="475.7" y1="349.1" x2="475.7" y2="328.2"/>
	<ellipse class="st2" cx="475.7" cy="349.1" rx="8.2" ry="7.6"/>
	<text transform="matrix(1.1506 0 0 1.0667 469.8808 354.4924)" class="st9 st4 st5">U</text>
	<text transform="matrix(1.1506 0 0 1.0667 469.8808 354.4924)" class="st10 st4 st5">U</text>
	<line class="st1" x1="475.7" y1="328.2" x2="475.7" y2="307.3"/>
	<ellipse class="st2" cx="475.7" cy="328.2" rx="8.2" ry="7.6"/>
	<text transform="matrix(1.1506 0 0 1.0667 469.8808 333.6091)" class="st9 st4 st5">U</text>
	<text transform="matrix(1.1506 0 0 1.0667 469.8808 333.6091)" class="st10 st4 st5">U</text>
	<line class="st1" x1="475.7" y1="307.3" x2="456.8" y2="301.9"/>
	<ellipse class="st2" cx="475.7" cy="307.3" rx="8.2" ry="7.6"/>
	<text transform="matrix(1.1506 0 0 1.0667 469.8808 312.7257)" class="st3 st4 st5">G</text>
	<text transform="matrix(1.1506 0 0 1.0667 469.8808 312.7257)" class="st6 st4 st5">G</text>
	<line class="st1" x1="456.8" y1="301.9" x2="423.4" y2="284.4"/>
	<ellipse class="st2" cx="456.8" cy="301.9" rx="8.2" ry="7.6"/>
	<text transform="matrix(1.1506 0 0 1.0667 450.986 307.3362)" class="st11 st4 st5">G</text>
	<text transform="matrix(1.1506 0 0 1.0667 450.986 307.3362)" class="st12 st4 st5">G</text>
	<line class="st1" x1="423.4" y1="284.4" x2="396.5" y2="258.2"/>
	<ellipse class="st2" cx="423.4" cy="284.4" rx="8.2" ry="7.6"/>
	<text transform="matrix(1.1506 0 0 1.0667 417.5584 289.8216)" class="st11 st4 st5">G</text>
	<text transform="matrix(1.1506 0 0 1.0667 417.5584 289.8216)" class="st12 st4 st5">G</text>
	<line class="st1" x1="396.5" y1="258.2" x2="380.5" y2="225.2"/>
	<ellipse class="st2" cx="396.5" cy="258.2" rx="8.2" ry="7.6"/>
	<text transform="matrix(1.1506 0 0 1.0667 390.6719 263.5487)" class="st7 st4 st5">A</text>
	<text transform="matrix(1.1506 0 0 1.0667 390.6719 263.5487)" class="st8 st4 st5">A</text>
	<line class="st1" x1="380.5" y1="225.2" x2="376.9" y2="189.4"/>
	<line class="st1" x1="380.5" y1="225.2" x2="302" y2="244"/>
	<rect x="291.1" y="235.9" class="st13" width="21.8" height="16.2"/>
	<text transform="matrix(1.1506 0 0 1.0667 291.1188 249.4028)" class="st4 st5">10</text>
	<text transform="matrix(1.1506 0 0 1.0667 291.1188 249.4028)" class="st1 st4 st5">10</text>
	<ellipse class="st2" cx="380.5" cy="225.2" rx="8.2" ry="7.6"/>
	<text transform="matrix(1.1506 0 0 1.0667 374.6844 230.5403)" class="st14 st4 st5">A</text>
	<text transform="matrix(1.1506 0 0 1.0667 374.6844 230.5403)" class="st15 st4 st5">A</text>
	<line class="st1" x1="376.9" y1="189.4" x2="385.6" y2="154.4"/>
	<ellipse class="st2" cx="376.9" cy="189.4" rx="8.2" ry="7.6"/>
	<text transform="matrix(1.1506 0 0 1.0667 371.0521 194.8377)" class="st14 st4 st5">G</text>
	<text transform="matrix(1.1506 0 0 1.0667 371.0521 194.8377)" class="st15 st4 st5">G</text>
	<line class="st1" x1="385.6" y1="154.4" x2="405.9" y2="123.4"/>
	<ellipse class="st2" cx="385.6" cy="154.4" rx="8.2" ry="7.6"/>
	<text transform="matrix(1.1506 0 0 1.0667 379.7719 159.8086)" class="st7 st4 st5">A</text>
	<text transform="matrix(1.1506 0 0 1.0667 379.7719 159.8086)" class="st8 st4 st5">A</text>
	<line class="st1" x1="405.9" y1="123.4" x2="436.5" y2="100.5"/>
	<ellipse class="st2" cx="405.9" cy="123.4" rx="8.2" ry="7.6"/>
	<text transform="matrix(1.1506 0 0 1.0667 400.1188 128.82)" class="st7 st4 st5">A</text>
	<text transform="matrix(1.1506 0 0 1.0667 400.1188 128.82)" class="st8 st4 st5">A</text>
	<line class="st1" x1="436.5" y1="100.5" x2="472.1" y2="87.7"/>
	<ellipse class="st2" cx="436.5" cy="100.5" rx="8.2" ry="7.6"/>
	<text transform="matrix(1.1506 0 0 1.0667 430.6386 105.9159)" class="st7 st4 st5">A</text>
	<text transform="matrix(1.1506 0 0 1.0667 430.6386 105.9159)" class="st8 st4 st5">A</text>
	<line class="st1" x1="472.1" y1="87.7" x2="511.3" y2="86.4"/>
	<ellipse class="st2" cx="472.1" cy="87.7" rx="8.2" ry="7.6"/>
	<text transform="matrix(1.1506 0 0 1.0667 466.2464 93.1159)" class="st16 st4 st5">C</text>
	<text transform="matrix(1.1506 0 0 1.0667 466.2464 93.1159)" class="st17 st4 st5">C</text>
	<line class="st1" x1="511.3" y1="86.4" x2="548.4" y2="97.2"/>
	<ellipse class="st2" cx="511.3" cy="86.4" rx="8.2" ry="7.6"/>
	<text transform="matrix(1.1506 0 0 1.0667 505.486 91.769)" class="st18 st4 st5">U</text>
	<text transform="matrix(1.1506 0 0 1.0667 505.486 91.769)" class="st19 st4 st5">U</text>
	<line class="st1" x1="548.4" y1="97.2" x2="560" y2="118"/>
	<ellipse class="st2" cx="548.4" cy="97.2" rx="8.2" ry="7.6"/>
	<text transform="matrix(1.1506 0 0 1.0667 542.5464 102.5471)" class="st9 st4 st5">G</text>
	<text transform="matrix(1.1506 0 0 1.0667 542.5464 102.5471)" class="st10 st4 st5">G</text>
	<line class="st1" x1="560" y1="118" x2="576" y2="103.2"/>
	<ellipse class="st2" cx="560" cy="118" rx="8.2" ry="7.6"/>
	<text transform="matrix(1.1506 0 0 1.0667 554.1724 123.4304)" class="st20 st4 st5">U</text>
	<text transform="matrix(1.1506 0 0 1.0667 554.1724 123.4304)" class="st21 st4 st5">U</text>
	<line class="st1" x1="576" y1="103.2" x2="592" y2="88.4"/>
	<ellipse class="st2" cx="576" cy="103.2" rx="8.2" ry="7.6"/>
	<text transform="matrix(1.1506 0 0 1.0667 570.1589 108.6106)" class="st7 st4 st5">G</text>
	<text transform="matrix(1.1506 0 0 1.0667 570.1589 108.6106)" class="st8 st4 st5">G</text>
	<line class="st1" x1="592" y1="88.4" x2="607.9" y2="73.6"/>
	<line class="st1" x1="592" y1="88.4" x2="534.6" y2="35.2"/>
	<rect x="523.7" y="27.1" class="st13" width="21.8" height="16.2"/>
	<text transform="matrix(1.1506 0 0 1.0667 523.6516 40.5721)" class="st4 st5">20</text>
	<text transform="matrix(1.1506 0 0 1.0667 523.6516 40.5721)" class="st1 st4 st5">20</text>
	<ellipse class="st2" cx="592" cy="88.4" rx="8.2" ry="7.6"/>
	<text transform="matrix(1.1506 0 0 1.0667 586.1464 93.7898)" class="st7 st4 st5">G</text>
	<text transform="matrix(1.1506 0 0 1.0667 586.1464 93.7898)" class="st8 st4 st5">G</text>
	<line class="st1" x1="607.9" y1="73.6" x2="623.9" y2="58.8"/>
	<ellipse class="st2" cx="607.9" cy="73.6" rx="8.2" ry="7.6"/>
	<text transform="matrix(1.1506 0 0 1.0667 602.1329 78.97)" class="st7 st4 st5">C</text>
	<text transform="matrix(1.1506 0 0 1.0667 602.1329 78.97)" class="st8 st4 st5">C</text>
	<line class="st1" x1="623.9" y1="58.8" x2="639.9" y2="43.9"/>
	<ellipse class="st2" cx="623.9" cy="58.8" rx="8.2" ry="7.6"/>
	<text transform="matrix(1.1506 0 0 1.0667 618.1204 64.1502)" class="st7 st4 st5">A</text>
	<text transform="matrix(1.1506 0 0 1.0667 618.1204 64.1502)" class="st8 st4 st5">A</text>
	<line class="st1" x1="639.9" y1="43.9" x2="653.7" y2="19.7"/>
	<ellipse class="st2" cx="639.9" cy="43.9" rx="8.2" ry="7.6"/>
	<text transform="matrix(1.1506 0 0 1.0667 634.1058 49.3294)" class="st7 st4 st5">C</text>
	<text transform="matrix(1.1506 0 0 1.0667 634.1058 49.3294)" class="st8 st4 st5">C</text>
	<line class="st1" x1="653.7" y1="19.7" x2="681.3" y2="13"/>
	<ellipse class="st2" cx="653.7" cy="19.7" rx="8.2" ry="7.6"/>
	<text transform="matrix(1.1506 0 0 1.0667 647.9131 25.0784)" class="st7 st4 st5">U</text>
	<text transform="matrix(1.1506 0 0 1.0667 647.9131 25.0784)" class="st8 st4 st5">U</text>
	<line class="st1" x1="681.3" y1="13" x2="701.7" y2="31.8"/>
	<ellipse class="st2" cx="681.3" cy="13" rx="8.2" ry="7.6"/>
	<text transform="matrix(1.1506 0 0 1.0667 675.5266 18.3409)" class="st7 st4 st5">U</text>
	<text transform="matrix(1.1506 0 0 1.0667 675.5266 18.3409)" class="st8 st4 st5">U</text>
	<line class="st1" x1="701.7" y1="31.8" x2="694.4" y2="57.4"/>
	<ellipse class="st2" cx="701.7" cy="31.8" rx="8.2" ry="7.6"/>
	<text transform="matrix(1.1506 0 0 1.0667 695.8724 37.2034)" class="st7 st4 st5">C</text>
	<text transform="matrix(1.1506 0 0 1.0667 695.8724 37.2034)" class="st8 st4 st5">C</text>
	<line class="st1" x1="694.4" y1="57.4" x2="668.3" y2="70.2"/>
	<ellipse class="st2" cx="694.4" cy="57.4" rx="8.2" ry="7.6"/>
	<text transform="matrix(1.1506 0 0 1.0667 688.6068 62.8023)" class="st7 st4 st5">G</text>
	<text transform="matrix(1.1506 0 0 1.0667 688.6068 62.8023)" class="st8 st4 st5">G</text>
	<line class="st1" x1="668.3" y1="70.2" x2="652.3" y2="85"/>
	<ellipse class="st2" cx="668.3" cy="70.2" rx="8.2" ry="7.6"/>
	<text transform="matrix(1.1506 0 0 1.0667 662.4454 75.6013)" class="st7 st4 st5">G</text>
	<text transform="matrix(1.1506 0 0 1.0667 662.4454 75.6013)" class="st8 st4 st5">G</text>
	<line class="st1" x1="652.3" y1="85" x2="636.3" y2="99.9"/>
	<ellipse class="st2" cx="652.3" cy="85" rx="8.2" ry="7.6"/>
	<text transform="matrix(1.1506 0 0 1.0667 646.461 90.4221)" class="st7 st4 st5">U</text>
	<text transform="matrix(1.1506 0 0 1.0667 646.461 90.4221)" class="st8 st4 st5">U</text>
	<line class="st1" x1="636.3" y1="99.9" x2="620.3" y2="114.7"/>
	<line class="st1" x1="636.3" y1="99.9" x2="693.7" y2="153.1"/>
	<rect x="682.8" y="145" class="st13" width="21.8" height="16.2"/>
	<text transform="matrix(1.1506 0 0 1.0667 682.7933 158.4606)" class="st4 st5">30</text>
	<text transform="matrix(1.1506 0 0 1.0667 682.7933 158.4606)" class="st1 st4 st5">30</text>
	<ellipse class="st2" cx="636.3" cy="99.9" rx="8.2" ry="7.6"/>
	<text transform="matrix(1.1506 0 0 1.0667 630.4724 105.2419)" class="st7 st4 st5">G</text>
	<text transform="matrix(1.1506 0 0 1.0667 630.4724 105.2419)" class="st8 st4 st5">G</text>
	<line class="st1" x1="620.3" y1="114.7" x2="604.3" y2="129.5"/>
	<ellipse class="st2" cx="620.3" cy="114.7" rx="8.2" ry="7.6"/>
	<text transform="matrix(1.1506 0 0 1.0667 614.4849 120.0627)" class="st7 st4 st5">C</text>
	<text transform="matrix(1.1506 0 0 1.0667 614.4849 120.0627)" class="st8 st4 st5">C</text>
	<line class="st1" x1="604.3" y1="129.5" x2="588.3" y2="144.3"/>
	<ellipse class="st2" cx="604.3" cy="129.5" rx="8.2" ry="7.6"/>
	<text transform="matrix(1.1506 0 0 1.0667 598.4985 134.8825)" class="st7 st4 st5">C</text>
	<text transform="matrix(1.1506 0 0 1.0667 598.4985 134.8825)" class="st8 st4 st5">C</text>
	<line class="st1" x1="588.3" y1="144.3" x2="590.1" y2="243.4"/>
	<ellipse class="st2" cx="588.3" cy="144.3" rx="8.2" ry="7.6"/>
	<text transform="matrix(1.1506 0 0 1.0667 582.512 149.7034)" class="st20 st4 st5">A</text>
	<text transform="matrix(1.1506 0 0 1.0667 582.512 149.7034)" class="st21 st4 st5">A</text>
	<line class="st1" x1="590.1" y1="243.4" x2="515.7" y2="307.3"/>
	<ellipse class="st2" cx="590.1" cy="243.4" rx="8.2" ry="7.6"/>
	<text transform="matrix(1.1506 0 0 1.0667 584.3293 248.8201)" class="st9 st4 st5">G</text>
	<text transform="matrix(1.1506 0 0 1.0667 584.3293 248.8201)" class="st10 st4 st5">G</text>
	<line class="st1" x1="515.7" y1="307.3" x2="515.7" y2="328.2"/>
	<ellipse class="st2" cx="515.7" cy="307.3" rx="8.2" ry="7.6"/>
	<text transform="matrix(1.1506 0 0 1.0667 509.8454 312.7257)" class="st3 st4 st5">C</text>
	<text transform="matrix(1.1506 0 0 1.0667 509.8454 312.7257)" class="st6 st4 st5">C</text>
	<line class="st1" x1="515.7" y1="328.2" x2="515.7" y2="349.1"/>
	<ellipse class="st2" cx="515.7" cy="328.2" rx="8.2" ry="7.6"/>
	<text transform="matrix(1.1506 0 0 1.0667 509.8454 333.6091)" class="st9 st4 st5">A</text>
	<text transform="matrix(1.1506 0 0 1.0667 509.8454 333.6091)" class="st10 st4 st5">A</text>
	<line class="st1" x1="515.7" y1="349.1" x2="515.7" y2="370"/>
	<ellipse class="st2" cx="515.7" cy="349.1" rx="8.2" ry="7.6"/>
	<text transform="matrix(1.1506 0 0 1.0667 509.8454 354.4924)" class="st9 st4 st5">A</text>
	<text transform="matrix(1.1506 0 0 1.0667 509.8454 354.4924)" class="st10 st4 st5">A</text>
	<line class="st1" x1="515.7" y1="370" x2="515.7" y2="390.9"/>
	<ellipse class="st2" cx="515.7" cy="370" rx="8.2" ry="7.6"/>
	<text transform="matrix(1.1506 0 0 1.0667 509.8454 375.3737)" class="st7 st4 st5">C</text>
	<text transform="matrix(1.1506 0 0 1.0667 509.8454 375.3737)" class="st8 st4 st5">C</text>
	<line class="st1" x1="515.7" y1="390.9" x2="515.7" y2="411.8"/>
	<ellipse class="st2" cx="515.7" cy="390.9" rx="8.2" ry="7.6"/>
	<text transform="matrix(1.1506 0 0 1.0667 509.8454 396.257)" class="st7 st4 st5">C</text>
	<text transform="matrix(1.1506 0 0 1.0667 509.8454 396.257)" class="st8 st4 st5">C</text>
	<line class="st1" x1="515.7" y1="411.8" x2="596.3" y2="411.8"/>
	<rect x="585.4" y="403.7" class="st13" width="21.8" height="16.2"/>
	<text transform="matrix(1.1506 0 0 1.0667 585.4193 417.1404)" class="st4 st5">40</text>
	<text transform="matrix(1.1506 0 0 1.0667 585.4193 417.1404)" class="st1 st4 st5">40</text>
	<ellipse class="st2" cx="515.7" cy="411.8" rx="8.2" ry="7.6"/>
	<text transform="matrix(1.1506 0 0 1.0667 509.8454 417.1404)" class="st3 st4 st5">C</text>
	<text transform="matrix(1.1506 0 0 1.0667 509.8454 417.1404)" class="st6 st4 st5">C</text>
</g>
<g>
	<text transform="matrix(1 0 0 1 12.9375 238.3428)" class="st7 st4 st22">      Probability &gt;= 99%</text>
	<text transform="matrix(1 0 0 1 12.9375 238.3428)" class="st23 st4 st22">      Probability &gt;= 99%</text>
	<text transform="matrix(1 0 0 1 12.9375 256.3428)" class="st9 st4 st22">99% &gt; Probability &gt;= 95%</text>
	<text transform="matrix(1 0 0 1 12.9375 256.3428)" class="st24 st4 st22">99% &gt; Probability &gt;= 95%</text>
	<text transform="matrix(1 0 0 1 12.9375 274.3428)" class="st3 st4 st22">95% &gt; Probability &gt;= 90%</text>
	<text transform="matrix(1 0 0 1 12.9375 274.3428)" class="st25 st4 st22">95% &gt; Probability &gt;= 90%</text>
	<text transform="matrix(1 0 0 1 12.9375 292.3428)" class="st20 st4 st22">90% &gt; Probability &gt;= 80%</text>
	<text transform="matrix(1 0 0 1 12.9375 292.3428)" class="st26 st4 st22">90% &gt; Probability &gt;= 80%</text>
	<text transform="matrix(1 0 0 1 12.9375 310.3428)" class="st11 st4 st22">80% &gt; Probability &gt;= 70%</text>
	<text transform="matrix(1 0 0 1 12.9375 310.3428)" class="st27 st4 st22">80% &gt; Probability &gt;= 70%</text>
	<text transform="matrix(1 0 0 1 12.9375 328.3428)" class="st14 st4 st22">70% &gt; Probability &gt;= 60%</text>
	<text transform="matrix(1 0 0 1 12.9375 328.3428)" class="st28 st4 st22">70% &gt; Probability &gt;= 60%</text>
	<text transform="matrix(1 0 0 1 12.9375 346.3428)" class="st18 st4 st22">60% &gt; Probability &gt;= 50%</text>
	<text transform="matrix(1 0 0 1 12.9375 346.3428)" class="st29 st4 st22">60% &gt; Probability &gt;= 50%</text>
	<text transform="matrix(1 0 0 1 12.9375 364.3428)" class="st16 st4 st22">50% &gt; Probability</text>
	<text transform="matrix(1 0 0 1 12.9375 364.3428)" class="st30 st4 st22">50% &gt; Probability</text>
	<text transform="matrix(1 0 0 1 12.9375 387.3428)" class="st4 st22">ENERGY = -14.8   AMP</text>
	<text transform="matrix(1 0 0 1 12.9375 387.3428)" class="st31 st4 st22">ENERGY = -14.8   AMP</text>
</g>
</svg>
