<?xml version="1.0" encoding="utf-8"?>
<!-- Generator: Adobe Illustrator 25.2.0, SVG Export Plug-In . SVG Version: 6.00 Build 0)  -->
<svg version="1.1" id="图层_1" xmlns="http://www.w3.org/2000/svg" xmlns:xlink="http://www.w3.org/1999/xlink" x="0px" y="0px"
	 viewBox="0 0 400 400" style="enable-background:new 0 0 400 400;" xml:space="preserve">
<style type="text/css">
	.st0{fill:#FF870A;}
	.st1{font-family:'ArialMT';}
	.st2{font-size:10.1282px;}
	.st3{fill:#0A0BFF;}
	.st4{fill:none;stroke:#000000;stroke-width:0.2309;stroke-miterlimit:1.847;}
	.st5{stroke:#000000;stroke-width:0.2309;stroke-miterlimit:1.847;}
	.st6{font-size:20px;}
</style>
<g id="ID000002">
	<g transform="translate(295.864,359.602)">
		<g transform="rotate(-0.0)">
			<text transform="matrix(1 0 0 1 -96.5046 -65.7006)" class="st0 st1 st2">G</text>
		</g>
	</g>
</g>
<g id="ID000003">
	<g transform="translate(295.864,347.959)">
		<g transform="rotate(-0.0)">
			<text transform="matrix(1 0 0 1 -96.5046 -63.8848)" class="st0 st1 st2">G</text>
		</g>
	</g>
</g>
<g id="ID000004">
	<g transform="translate(327.883,339.227)">
		<g transform="rotate(-0.0)">
			<text transform="matrix(1 0 0 1 -100.9377 -62.5239)" class="st3 st1 st2">A</text>
		</g>
	</g>
</g>
<g id="ID000005">
	<g transform="translate(319.151,347.959)">
		<g transform="rotate(-0.0)">
			<text transform="matrix(1 0 0 1 -99.8551 -63.8848)" class="st0 st1 st2">C</text>
		</g>
	</g>
</g>
<g id="ID000006">
	<line class="st4" x1="229.5" y1="279.6" x2="236.1" y2="279.6"/>
</g>
<g id="ID000007">
	<g transform="translate(334.675,347.959)">
		<g transform="rotate(-0.0)">
			<text transform="matrix(1 0 0 1 -98.6203 -63.8848)" class="st1 st2">60</text>
		</g>
	</g>
</g>
<g id="ID000008">
	<g transform="translate(319.151,359.602)">
		<g transform="rotate(-0.0)">
			<text transform="matrix(1 0 0 1 -99.8551 -65.7006)" class="st0 st1 st2">U</text>
		</g>
	</g>
</g>
<g id="ID000009">
	<g transform="translate(328.853,364.454)">
		<g transform="rotate(-0.0)">
			<text transform="matrix(1 0 0 1 -101.6508 -66.4579)" class="st3 st1 st2">G</text>
		</g>
	</g>
</g>
<g id="ID000010">
	<g transform="translate(340.496,367.364)">
		<g transform="rotate(-0.0)">
			<text transform="matrix(1 0 0 1 -103.1845 -66.9128)" class="st3 st1 st2">C</text>
		</g>
	</g>
</g>
<g id="ID000011">
	<g transform="translate(352.140,373.186)">
		<g transform="rotate(-0.0)">
			<text transform="matrix(1 0 0 1 -104.7211 -67.8198)" class="st3 st1 st2">A</text>
		</g>
	</g>
</g>
<g id="ID000012">
	<g transform="translate(360.872,384.829)">
		<g transform="rotate(-0.0)">
			<text transform="matrix(1 0 0 1 -106.0839 -69.6366)" class="st3 st1 st2">A</text>
		</g>
	</g>
</g>
<g id="ID000013">
	<g transform="translate(366.694,396.472)">
		<g transform="rotate(-0.0)">
			<text transform="matrix(1 0 0 1 -106.9909 -71.4525)" class="st3 st1 st2">A</text>
		</g>
	</g>
</g>
<g id="ID000014">
	<g transform="translate(369.604,411.026)">
		<g transform="rotate(-0.0)">
			<text transform="matrix(1 0 0 1 -107.7251 -73.7223)" class="st3 st1 st2">C</text>
		</g>
	</g>
</g>
<g id="ID000015">
	<g transform="translate(369.604,422.669)">
		<g transform="rotate(-0.0)">
			<text transform="matrix(1 0 0 1 -107.7251 -75.5381)" class="st3 st1 st2">U</text>
		</g>
	</g>
</g>
<g id="ID000016">
	<g transform="translate(369.604,434.313)">
		<g transform="rotate(-0.0)">
			<text transform="matrix(1 0 0 1 -107.7251 -77.355)" class="st3 st1 st2">U</text>
		</g>
	</g>
</g>
<g id="ID000017">
	<g transform="translate(369.604,445.956)">
		<g transform="rotate(-0.0)">
			<text transform="matrix(1 0 0 1 -108.0063 -79.1708)" class="st3 st1 st2">G</text>
		</g>
	</g>
</g>
<g id="ID000018">
	<line class="st4" x1="272.1" y1="362.4" x2="278.6" y2="362.4"/>
</g>
<g id="ID000019">
	<g transform="translate(385.129,445.956)">
		<g transform="rotate(-0.0)">
			<text transform="matrix(1 0 0 1 -106.4903 -79.1708)" class="st1 st2">70</text>
		</g>
	</g>
</g>
<g id="ID000020">
	<g transform="translate(360.872,454.688)">
		<g transform="rotate(-0.0)">
			<text transform="matrix(1 0 0 1 -106.0839 -80.5327)" class="st3 st1 st2">A</text>
		</g>
	</g>
</g>
<g id="ID000021">
	<g transform="translate(352.140,466.331)">
		<g transform="rotate(-0.0)">
			<text transform="matrix(1 0 0 1 -105.0004 -82.3486)" class="st3 st1 st2">C</text>
		</g>
	</g>
</g>
<g id="ID000022">
	<g transform="translate(340.496,469.242)">
		<g transform="rotate(-0.0)">
			<text transform="matrix(1 0 0 1 -102.9062 -82.8026)" class="st3 st1 st2">A</text>
		</g>
	</g>
</g>
<g id="ID000023">
	<g transform="translate(328.853,472.153)">
		<g transform="rotate(-0.0)">
			<text transform="matrix(1 0 0 1 -101.0893 -83.2565)" class="st3 st1 st2">A</text>
		</g>
	</g>
</g>
<g id="ID000024">
	<g transform="translate(314.299,472.153)">
		<g transform="rotate(-0.0)">
			<text transform="matrix(1 0 0 1 -98.8185 -83.2565)" class="st3 st1 st2">A</text>
		</g>
	</g>
</g>
<g id="ID000025">
	<g transform="translate(302.656,472.153)">
		<g transform="rotate(-0.0)">
			<text transform="matrix(1 0 0 1 -97.5642 -83.2565)" class="st3 st1 st2">G</text>
		</g>
	</g>
</g>
<g id="ID000026">
	<g transform="translate(291.013,463.420)">
		<g transform="rotate(-0.0)">
			<text transform="matrix(1 0 0 1 -95.4661 -81.8966)" class="st3 st1 st2">C</text>
		</g>
	</g>
</g>
<g id="ID000027">
	<g transform="translate(288.102,451.777)">
		<g transform="rotate(-0.0)">
			<text transform="matrix(1 0 0 1 -98.9243 -78.5407)" class="st3 st1 st2">U</text>
		</g>
	</g>
</g>
<g id="ID000028">
	<g transform="translate(288.102,440.134)">
		<g transform="rotate(-0.0)">
			<text transform="matrix(1 0 0 1 -103.4828 -77.6916)" class="st3 st1 st2">A</text>
		</g>
	</g>
</g>
<g id="ID000029">
	<polygon class="st5" points="215,289.5 215,289.3 215,289.1 215,289.1 215,289 215,288.8 215,288.8 214.9,288.6 214.9,288.6 
		214.9,288.4 214.7,288.2 214.7,288.2 214.5,288 214.5,288 214.3,287.9 214.3,287.9 214.1,287.9 214.1,287.7 213.9,287.7 
		213.8,287.7 213.8,287.7 213.6,287.5 213.4,287.5 213.4,287.5 213.2,287.5 213,287.5 213,287.5 212.8,287.5 212.7,287.5 
		212.7,287.5 212.5,287.7 212.3,287.7 212.3,287.7 212.1,287.9 212.1,287.9 211.9,287.9 211.9,288 211.7,288 211.7,288.2 
		211.6,288.2 211.6,288.4 211.4,288.4 211.4,288.6 211.4,288.8 211.2,288.8 211.2,289 211.2,289 211.2,289.1 211.2,289.3 
		211.2,289.3 211.2,289.5 211.2,289.7 211.2,289.9 211.2,289.9 211.2,290.1 211.2,290.1 211.4,290.2 211.4,290.4 211.4,290.4 
		211.6,290.6 211.6,290.6 211.7,290.8 211.7,290.8 211.9,291 211.9,291 212.1,291.2 212.1,291.2 212.3,291.2 212.3,291.3 
		212.5,291.3 212.7,291.3 212.7,291.3 212.8,291.3 213,291.5 213,291.5 213.2,291.5 213.4,291.5 213.4,291.3 213.6,291.3 
		213.8,291.3 213.8,291.3 213.9,291.3 214.1,291.2 214.1,291.2 214.3,291.2 214.3,291 214.5,291 214.5,290.8 214.7,290.8 
		214.7,290.6 214.9,290.6 214.9,290.4 214.9,290.2 215,290.2 215,290.1 215,290.1 215,289.9 215,289.7 215,289.7 	"/>
</g>
<g id="ID000030">
	<line class="st4" x1="207.2" y1="279.6" x2="219.1" y2="279.6"/>
</g>
<g id="ID000032">
	<g transform="translate(295.864,333.405)">
		<g transform="rotate(-0.0)">
			<text transform="matrix(1 0 0 1 -96.5046 -61.615)" class="st0 st1 st2">G</text>
		</g>
	</g>
</g>
<g id="ID000033">
	<g transform="translate(295.864,321.762)">
		<g transform="rotate(-0.0)">
			<text transform="matrix(1 0 0 1 -95.9431 -59.7991)" class="st0 st1 st2">A</text>
		</g>
	</g>
</g>
<g id="ID000034">
	<g transform="translate(295.864,310.119)">
		<g transform="rotate(-0.0)">
			<text transform="matrix(1 0 0 1 -95.9431 -57.9832)" class="st0 st1 st2">A</text>
		</g>
	</g>
</g>
<g id="ID000035">
	<g transform="translate(295.864,298.476)">
		<g transform="rotate(-0.0)">
			<text transform="matrix(1 0 0 1 -96.5046 -56.1674)" class="st0 st1 st2">G</text>
		</g>
	</g>
</g>
<g id="ID000036">
	<g transform="translate(287.132,286.833)">
		<g transform="rotate(-0.0)">
			<text transform="matrix(1 0 0 1 -95.1427 -54.3506)" class="st3 st1 st2">G</text>
		</g>
	</g>
</g>
<g id="ID000037">
	<g transform="translate(324.972,286.833)">
		<g transform="rotate(-0.0)">
			<text transform="matrix(1 0 0 1 -101.0452 -54.3506)" class="st3 st1 st2">G</text>
		</g>
	</g>
</g>
<g id="ID000038">
	<g transform="translate(319.151,298.476)">
		<g transform="rotate(-0.0)">
			<text transform="matrix(1 0 0 1 -99.8551 -56.1674)" class="st0 st1 st2">U</text>
		</g>
	</g>
</g>
<g id="ID000039">
	<g transform="translate(319.151,310.119)">
		<g transform="rotate(-0.0)">
			<text transform="matrix(1 0 0 1 -99.8551 -57.9832)" class="st0 st1 st2">U</text>
		</g>
	</g>
</g>
<g id="ID000040">
	<g transform="translate(319.151,321.762)">
		<g transform="rotate(-0.0)">
			<text transform="matrix(1 0 0 1 -99.8551 -59.7991)" class="st0 st1 st2">U</text>
		</g>
	</g>
</g>
<g id="ID000041">
	<g transform="translate(319.151,333.405)">
		<g transform="rotate(-0.0)">
			<text transform="matrix(1 0 0 1 -99.8551 -61.615)" class="st0 st1 st2">C</text>
		</g>
	</g>
</g>
<g id="ID000042">
	<line class="st4" x1="207.2" y1="267.4" x2="219.1" y2="267.4"/>
</g>
<g id="ID000043">
	<line class="st4" x1="207.2" y1="257.5" x2="219.1" y2="257.5"/>
</g>
<g id="ID000044">
	<line class="st4" x1="207.2" y1="247.7" x2="219.1" y2="247.7"/>
</g>
<g id="ID000045">
	<polygon class="st5" points="215,238 215,237.8 215,237.6 215,237.6 215,237.4 215,237.2 215,237.2 214.9,237.1 214.9,236.9 
		214.9,236.9 214.7,236.7 214.7,236.7 214.5,236.5 214.5,236.5 214.3,236.3 214.3,236.3 214.1,236.1 214.1,236.1 213.9,236.1 
		213.8,236.1 213.8,236 213.6,236 213.4,236 213.4,236 213.2,236 213,236 213,236 212.8,236 212.7,236 212.7,236 212.5,236 
		212.3,236.1 212.3,236.1 212.1,236.1 212.1,236.3 211.9,236.3 211.9,236.3 211.7,236.5 211.7,236.5 211.6,236.7 211.6,236.7 
		211.4,236.9 211.4,237.1 211.4,237.1 211.2,237.2 211.2,237.4 211.2,237.4 211.2,237.6 211.2,237.8 211.2,237.8 211.2,238 
		211.2,238.1 211.2,238.1 211.2,238.3 211.2,238.5 211.2,238.5 211.4,238.7 211.4,238.7 211.4,238.9 211.6,239.1 211.6,239.1 
		211.7,239.2 211.7,239.2 211.9,239.4 211.9,239.4 212.1,239.6 212.1,239.6 212.3,239.6 212.3,239.6 212.5,239.8 212.7,239.8 
		212.7,239.8 212.8,239.8 213,239.8 213,239.8 213.2,239.8 213.4,239.8 213.4,239.8 213.6,239.8 213.8,239.8 213.8,239.8 
		213.9,239.6 214.1,239.6 214.1,239.6 214.3,239.4 214.3,239.4 214.5,239.2 214.5,239.2 214.7,239.1 214.7,239.1 214.9,238.9 
		214.9,238.9 214.9,238.7 215,238.7 215,238.5 215,238.3 215,238.3 215,238.1 	"/>
</g>
<g id="ID000047">
	<g transform="translate(292.954,275.190)">
		<g transform="rotate(-0.0)">
			<text transform="matrix(1 0 0 1 -96.0507 -52.5347)" class="st0 st1 st2">G</text>
		</g>
	</g>
</g>
<g id="ID000048">
	<g transform="translate(292.954,263.546)">
		<g transform="rotate(-0.0)">
			<text transform="matrix(1 0 0 1 -95.4892 -50.7179)" class="st0 st1 st2">A</text>
		</g>
	</g>
</g>
<g id="ID000049">
	<g transform="translate(292.954,251.903)">
		<g transform="rotate(-0.0)">
			<text transform="matrix(1 0 0 1 -95.7685 -48.901)" class="st0 st1 st2">U</text>
		</g>
	</g>
</g>
<g id="ID000050">
	<line class="st4" x1="194.2" y1="198.7" x2="187.8" y2="198.7"/>
</g>
<g id="ID000051">
	<g transform="translate(277.429,251.903)">
		<g transform="rotate(-0.0)">
			<text transform="matrix(1 0 0 1 -100.9563 -48.901)" class="st1 st2">10</text>
		</g>
	</g>
</g>
<g id="ID000052">
	<g transform="translate(292.954,240.260)">
		<g transform="rotate(-0.0)">
			<text transform="matrix(1 0 0 1 -95.7685 -47.0871)" class="st0 st1 st2">C</text>
		</g>
	</g>
</g>
<g id="ID000053">
	<g transform="translate(292.954,228.617)">
		<g transform="rotate(-0.0)">
			<text transform="matrix(1 0 0 1 -95.7685 -45.2693)" class="st0 st1 st2">C</text>
		</g>
	</g>
</g>
<g id="ID000054">
	<g transform="translate(292.954,216.974)">
		<g transform="rotate(-0.0)">
			<text transform="matrix(1 0 0 1 -95.4892 -43.4545)" class="st0 st1 st2">A</text>
		</g>
	</g>
</g>
<g id="ID000055">
	<g transform="translate(281.310,205.331)">
		<g transform="rotate(-0.0)">
			<text transform="matrix(1 0 0 1 -93.6743 -41.6386)" class="st3 st1 st2">A</text>
		</g>
	</g>
</g>
<g id="ID000056">
	<g transform="translate(333.705,202.420)">
		<g transform="rotate(-0.0)">
			<text transform="matrix(1 0 0 1 -102.4062 -41.1832)" class="st3 st1 st2">G</text>
		</g>
	</g>
</g>
<g id="ID000057">
	<g transform="translate(324.972,208.242)">
		<g transform="rotate(-0.0)">
			<text transform="matrix(1 0 0 1 -100.763 -42.0926)" class="st3 st1 st2">C</text>
		</g>
	</g>
</g>
<g id="ID000058">
	<g transform="translate(316.240,216.974)">
		<g transform="rotate(-0.0)">
			<text transform="matrix(1 0 0 1 -99.4001 -43.4545)" class="st0 st1 st2">U</text>
		</g>
	</g>
</g>
<g id="ID000059">
	<g transform="translate(316.240,228.617)">
		<g transform="rotate(-0.0)">
			<text transform="matrix(1 0 0 1 -99.6824 -45.2693)" class="st0 st1 st2">G</text>
		</g>
	</g>
</g>
<g id="ID000060">
	<g transform="translate(316.240,240.260)">
		<g transform="rotate(-0.0)">
			<text transform="matrix(1 0 0 1 -99.6824 -47.0871)" class="st0 st1 st2">G</text>
		</g>
	</g>
</g>
<g id="ID000061">
	<line class="st4" x1="227.1" y1="188.8" x2="233.7" y2="188.8"/>
</g>
<g id="ID000062">
	<g transform="translate(331.764,240.260)">
		<g transform="rotate(-0.0)">
			<text transform="matrix(1 0 0 1 -98.1654 -47.0871)" class="st1 st2">50</text>
		</g>
	</g>
</g>
<g id="ID000063">
	<g transform="translate(316.240,251.903)">
		<g transform="rotate(-0.0)">
			<text transform="matrix(1 0 0 1 -99.6824 -48.901)" class="st0 st1 st2">G</text>
		</g>
	</g>
</g>
<g id="ID000064">
	<g transform="translate(316.240,263.546)">
		<g transform="rotate(-0.0)">
			<text transform="matrix(1 0 0 1 -99.4001 -50.7179)" class="st0 st1 st2">U</text>
		</g>
	</g>
</g>
<g id="ID000065">
	<g transform="translate(316.240,275.190)">
		<g transform="rotate(-0.0)">
			<text transform="matrix(1 0 0 1 -99.4001 -52.5347)" class="st0 st1 st2">U</text>
		</g>
	</g>
</g>
<g id="ID000066">
	<polygon class="st5" points="212.7,218.2 212.7,218 212.7,218 212.7,217.9 212.7,217.7 212.5,217.7 212.5,217.5 212.5,217.3 
		212.3,217.3 212.3,217.1 212.3,217.1 212.1,216.9 212.1,216.9 211.9,216.8 211.9,216.8 211.7,216.6 211.7,216.6 211.6,216.6 
		211.6,216.4 211.4,216.4 211.2,216.4 211.2,216.4 211,216.2 210.8,216.2 210.8,216.2 210.6,216.2 210.5,216.2 210.5,216.2 
		210.3,216.4 210.1,216.4 210.1,216.4 209.9,216.4 209.7,216.4 209.7,216.6 209.6,216.6 209.6,216.6 209.4,216.8 209.4,216.8 
		209.2,216.9 209.2,216.9 209,217.1 209,217.3 209,217.3 208.8,217.5 208.8,217.5 208.8,217.7 208.8,217.9 208.6,217.9 208.6,218 
		208.6,218.2 208.6,218.2 208.6,218.4 208.6,218.6 208.8,218.6 208.8,218.8 208.8,219 208.8,219 209,219.1 209,219.3 209,219.3 
		209.2,219.5 209.2,219.5 209.4,219.7 209.4,219.7 209.6,219.9 209.6,219.9 209.7,219.9 209.7,220.1 209.9,220.1 210.1,220.1 
		210.1,220.1 210.3,220.2 210.5,220.2 210.5,220.2 210.6,220.2 210.8,220.2 210.8,220.2 211,220.2 211.2,220.1 211.2,220.1 
		211.4,220.1 211.6,220.1 211.6,220.1 211.7,219.9 211.7,219.9 211.9,219.7 211.9,219.7 212.1,219.5 212.1,219.5 212.3,219.3 
		212.3,219.3 212.3,219.1 212.5,219.1 212.5,219 212.5,218.8 212.7,218.8 212.7,218.6 212.7,218.4 212.7,218.4 	"/>
</g>
<g id="ID000067">
	<line class="st4" x1="204.8" y1="208.4" x2="216.5" y2="208.4"/>
</g>
<g id="ID000068">
	<polygon class="st5" points="212.7,198.7 212.7,198.5 212.7,198.3 212.7,198.1 212.7,198.1 212.5,197.9 212.5,197.9 212.5,197.8 
		212.3,197.6 212.3,197.6 212.3,197.4 212.1,197.4 212.1,197.2 211.9,197.2 211.9,197 211.7,197 211.7,196.8 211.6,196.8 
		211.6,196.8 211.4,196.7 211.2,196.7 211.2,196.7 211,196.7 210.8,196.7 210.8,196.7 210.6,196.7 210.5,196.7 210.5,196.7 
		210.3,196.7 210.1,196.7 210.1,196.7 209.9,196.8 209.7,196.8 209.7,196.8 209.6,197 209.6,197 209.4,197 209.4,197.2 209.2,197.2 
		209.2,197.4 209,197.4 209,197.6 209,197.8 208.8,197.8 208.8,197.9 208.8,197.9 208.8,198.1 208.6,198.3 208.6,198.3 208.6,198.5 
		208.6,198.7 208.6,198.8 208.6,198.8 208.8,199 208.8,199.2 208.8,199.2 208.8,199.4 209,199.4 209,199.6 209,199.8 209.2,199.8 
		209.2,199.9 209.4,199.9 209.4,200.1 209.6,200.1 209.6,200.1 209.7,200.3 209.7,200.3 209.9,200.3 210.1,200.5 210.1,200.5 
		210.3,200.5 210.5,200.5 210.5,200.5 210.6,200.5 210.8,200.5 210.8,200.5 211,200.5 211.2,200.5 211.2,200.5 211.4,200.5 
		211.6,200.3 211.6,200.3 211.7,200.3 211.7,200.1 211.9,200.1 211.9,199.9 212.1,199.9 212.1,199.8 212.3,199.8 212.3,199.6 
		212.3,199.6 212.5,199.4 212.5,199.4 212.5,199.2 212.7,199 212.7,199 212.7,198.8 	"/>
</g>
<g id="ID000069">
	<line class="st4" x1="204.8" y1="188.8" x2="216.5" y2="188.8"/>
</g>
<g id="ID000070">
	<line class="st4" x1="204.8" y1="178.9" x2="216.5" y2="178.9"/>
</g>
<g id="ID000071">
	<line class="st4" x1="204.8" y1="169.1" x2="216.5" y2="169.1"/>
</g>
<g id="ID000073">
	<g transform="translate(281.310,190.777)">
		<g transform="rotate(-0.0)">
			<text transform="matrix(1 0 0 1 -93.9526 -39.3678)" class="st3 st1 st2">U</text>
		</g>
	</g>
</g>
<g id="ID000074">
	<g transform="translate(290.043,179.134)">
		<g transform="rotate(-0.0)">
			<text transform="matrix(1 0 0 1 -95.3145 -37.552)" class="st0 st1 st2">C</text>
		</g>
	</g>
</g>
<g id="ID000075">
	<g transform="translate(290.043,167.490)">
		<g transform="rotate(-0.0)">
			<text transform="matrix(1 0 0 1 -95.3145 -35.7351)" class="st0 st1 st2">U</text>
		</g>
	</g>
</g>
<g id="ID000076">
	<g transform="translate(278.400,161.669)">
		<g transform="rotate(-0.0)">
			<text transform="matrix(1 0 0 1 -93.2193 -34.8282)" class="st3 st1 st2">A</text>
		</g>
	</g>
</g>
<g id="ID000077">
	<g transform="translate(266.757,155.847)">
		<g transform="rotate(-0.0)">
			<text transform="matrix(1 0 0 1 -91.6828 -33.9198)" class="st3 st1 st2">C</text>
		</g>
	</g>
</g>
<g id="ID000078">
	<g transform="translate(263.846,141.293)">
		<g transform="rotate(-0.0)">
			<text transform="matrix(1 0 0 1 -90.9485 -31.6494)" class="st3 st1 st2">A</text>
		</g>
	</g>
</g>
<g id="ID000079">
	<line class="st4" x1="169.7" y1="105.3" x2="163.1" y2="105.3"/>
</g>
<g id="ID000080">
	<g transform="translate(248.322,141.293)">
		<g transform="rotate(-0.0)">
			<text transform="matrix(1 0 0 1 -96.4162 -31.6494)" class="st1 st2">20</text>
		</g>
	</g>
</g>
<g id="ID000081">
	<g transform="translate(342.437,141.293)">
		<g transform="rotate(-0.0)">
			<text transform="matrix(1 0 0 1 -103.4878 -31.6494)" class="st3 st1 st2">C</text>
		</g>
	</g>
</g>
<g id="ID000082">
	<g transform="translate(339.526,155.847)">
		<g transform="rotate(-0.0)">
			<text transform="matrix(1 0 0 1 -103.0328 -33.9198)" class="st3 st1 st2">U</text>
		</g>
	</g>
</g>
<g id="ID000083">
	<line class="st4" x1="246.7" y1="117.5" x2="253.2" y2="117.5"/>
</g>
<g id="ID000084">
	<g transform="translate(355.050,155.847)">
		<g transform="rotate(-0.0)">
			<text transform="matrix(1 0 0 1 -101.7971 -33.9198)" class="st1 st2">40</text>
		</g>
	</g>
</g>
<g id="ID000085">
	<g transform="translate(327.883,161.669)">
		<g transform="rotate(-0.0)">
			<text transform="matrix(1 0 0 1 -101.217 -34.8282)" class="st3 st1 st2">C</text>
		</g>
	</g>
</g>
<g id="ID000086">
	<g transform="translate(313.329,167.490)">
		<g transform="rotate(-0.0)">
			<text transform="matrix(1 0 0 1 -98.6679 -35.7351)" class="st0 st1 st2">A</text>
		</g>
	</g>
</g>
<g id="ID000087">
	<g transform="translate(313.329,179.134)">
		<g transform="rotate(-0.0)">
			<text transform="matrix(1 0 0 1 -99.2294 -37.552)" class="st0 st1 st2">G</text>
		</g>
	</g>
</g>
<g id="ID000088">
	<g transform="translate(324.972,184.955)">
		<g transform="rotate(-0.0)">
			<text transform="matrix(1 0 0 1 -100.763 -38.4604)" class="st3 st1 st2">U</text>
		</g>
	</g>
</g>
<g id="ID000089">
	<g transform="translate(333.705,190.777)">
		<g transform="rotate(-0.0)">
			<text transform="matrix(1 0 0 1 -102.1249 -39.3678)" class="st3 st1 st2">U</text>
		</g>
	</g>
</g>
<g id="ID000090">
	<line class="st4" x1="202.2" y1="137.1" x2="214.1" y2="137.1"/>
</g>
<g id="ID000091">
	<line class="st4" x1="202.2" y1="127.4" x2="214.1" y2="127.4"/>
</g>
<g id="ID000093">
	<g transform="translate(269.667,129.650)">
		<g transform="rotate(-0.0)">
			<text transform="matrix(1 0 0 1 -91.8574 -29.8326)" class="st3 st1 st2">A</text>
		</g>
	</g>
</g>
<g id="ID000094">
	<g transform="translate(278.400,118.007)">
		<g transform="rotate(-0.0)">
			<text transform="matrix(1 0 0 1 -93.2193 -28.0182)" class="st3 st1 st2">A</text>
		</g>
	</g>
</g>
<g id="ID000095">
	<g transform="translate(287.132,106.364)">
		<g transform="rotate(-0.0)">
			<text transform="matrix(1 0 0 1 -94.8605 -26.2014)" class="st0 st1 st2">U</text>
		</g>
	</g>
</g>
<g id="ID000096">
	<g transform="translate(287.132,94.721)">
		<g transform="rotate(-0.0)">
			<text transform="matrix(1 0 0 1 -94.8605 -24.3856)" class="st0 st1 st2">U</text>
		</g>
	</g>
</g>
<g id="ID000097">
	<g transform="translate(287.132,83.078)">
		<g transform="rotate(-0.0)">
			<text transform="matrix(1 0 0 1 -94.8605 -22.5692)" class="st0 st1 st2">C</text>
		</g>
	</g>
</g>
<g id="ID000098">
	<g transform="translate(278.400,74.345)">
		<g transform="rotate(-0.0)">
			<text transform="matrix(1 0 0 1 -93.7809 -21.2073)" class="st3 st1 st2">G</text>
		</g>
	</g>
</g>
<g id="ID000099">
	<g transform="translate(278.400,59.791)">
		<g transform="rotate(-0.0)">
			<text transform="matrix(1 0 0 1 -93.4986 -18.938)" class="st3 st1 st2">U</text>
		</g>
	</g>
</g>
<g id="ID000100">
	<g transform="translate(284.221,48.148)">
		<g transform="rotate(-0.0)">
			<text transform="matrix(1 0 0 1 -94.4075 -17.1211)" class="st3 st1 st2">U</text>
		</g>
	</g>
</g>
<g id="ID000101">
	<g transform="translate(295.864,42.327)">
		<g transform="rotate(-0.0)">
			<text transform="matrix(1 0 0 1 -95.9431 -16.2127)" class="st3 st1 st2">A</text>
		</g>
	</g>
</g>
<g id="ID000102">
	<g transform="translate(310.418,48.148)">
		<g transform="rotate(-0.0)">
			<text transform="matrix(1 0 0 1 -98.2139 -17.1211)" class="st3 st1 st2">A</text>
		</g>
	</g>
</g>
<g id="ID000103">
	<line class="st4" x1="222.2" y1="26.7" x2="228.7" y2="26.7"/>
</g>
<g id="ID000104">
	<g transform="translate(325.943,48.148)">
		<g transform="rotate(-0.0)">
			<text transform="matrix(1 0 0 1 -97.2565 -17.1211)" class="st1 st2">30</text>
		</g>
	</g>
</g>
<g id="ID000105">
	<g transform="translate(319.151,59.791)">
		<g transform="rotate(-0.0)">
			<text transform="matrix(1 0 0 1 -99.8551 -18.938)" class="st3 st1 st2">C</text>
		</g>
	</g>
</g>
<g id="ID000106">
	<g transform="translate(322.062,71.435)">
		<g transform="rotate(-0.0)">
			<text transform="matrix(1 0 0 1 -100.0288 -20.7534)" class="st3 st1 st2">A</text>
		</g>
	</g>
</g>
<g id="ID000107">
	<g transform="translate(310.418,83.078)">
		<g transform="rotate(-0.0)">
			<text transform="matrix(1 0 0 1 -98.7754 -22.5692)" class="st0 st1 st2">G</text>
		</g>
	</g>
</g>
<g id="ID000108">
	<g transform="translate(310.418,94.721)">
		<g transform="rotate(-0.0)">
			<text transform="matrix(1 0 0 1 -98.2139 -24.3856)" class="st0 st1 st2">A</text>
		</g>
	</g>
</g>
<g id="ID000109">
	<g transform="translate(310.418,106.364)">
		<g transform="rotate(-0.0)">
			<text transform="matrix(1 0 0 1 -98.2139 -26.2014)" class="st0 st1 st2">A</text>
		</g>
	</g>
</g>
<g id="ID000110">
	<g transform="translate(324.972,112.186)">
		<g transform="rotate(-0.0)">
			<text transform="matrix(1 0 0 1 -100.4837 -27.1088)" class="st3 st1 st2">A</text>
		</g>
	</g>
</g>
<g id="ID000111">
	<g transform="translate(336.615,115.096)">
		<g transform="rotate(-0.0)">
			<text transform="matrix(1 0 0 1 -102.2996 -27.5633)" class="st3 st1 st2">A</text>
		</g>
	</g>
</g>
<g id="ID000112">
	<g transform="translate(345.348,126.739)">
		<g transform="rotate(-0.0)">
			<text transform="matrix(1 0 0 1 -103.9408 -29.3801)" class="st3 st1 st2">C</text>
		</g>
	</g>
</g>
<g id="ID000113">
	<line class="st4" x1="199.9" y1="75.7" x2="211.6" y2="75.7"/>
</g>
<g id="ID000114">
	<line class="st4" x1="199.9" y1="66" x2="211.6" y2="66"/>
</g>
<g id="ID000115">
	<line class="st4" x1="199.9" y1="56.1" x2="211.6" y2="56.1"/>
</g>
<text transform="matrix(1 0 0 1 20.7986 31.741)" class="st1 st6">F47-aptamer</text>
<g id="CQH4oi.tif">
	
		<image style="overflow:visible;enable-background:new    ;" width="404" height="31" id="Layer_0_1_" xlink:href="1F38CE9.png"  transform="matrix(0.1127 0 0 8.754595e-02 208.0816 51.6308)">
	</image>
</g>
</svg>
