<svg id="图层_1" data-name="图层 1" xmlns="http://www.w3.org/2000/svg" viewBox="0 0 800 400"><defs><style>.cls-1,.cls-10,.cls-11,.cls-12,.cls-14,.cls-16,.cls-17,.cls-18,.cls-19,.cls-2,.cls-5,.cls-6,.cls-7,.cls-9{isolation:isolate;font-family:ArialMT, Arial;}.cls-1,.cls-10,.cls-11,.cls-12,.cls-2,.cls-5,.cls-6,.cls-9{font-size:31px;}.cls-1,.cls-2{fill:#c2c2ff;}.cls-12,.cls-2,.cls-9{letter-spacing:-0.09em;}.cls-13,.cls-3{fill:none;}.cls-13,.cls-3,.cls-4,.cls-8{stroke:#000;stroke-miterlimit:3.05;}.cls-3,.cls-8{stroke-width:0.38px;}.cls-4{fill:#fff;}.cls-5,.cls-9{fill:#80db9e;}.cls-6{fill:#f0f;}.cls-14,.cls-19,.cls-7{font-size:23px;}.cls-10{fill:#ff870a;}.cls-11,.cls-12{fill:#006b93;}.cls-13{stroke-width:0.75px;}.cls-14{letter-spacing:-0.04em;}.cls-15{fill:#ff0;}.cls-16,.cls-17,.cls-18{font-size:14px;}.cls-17{letter-spacing:-0.02em;}.cls-18{letter-spacing:-0.06em;}.cls-19{letter-spacing:-0.04em;}</style></defs><g id="ID000002"><text class="cls-1" transform="translate(176.04 291.46)">G</text></g><g id="ID000003"><text class="cls-1" transform="translate(202.09 291.46)">G</text></g><g id="ID000004"><text class="cls-2" transform="translate(229.61 291.46)">A</text></g><g id="ID000005"><text class="cls-1" transform="translate(254.93 291.46)">C</text></g><g id="ID000006"><text class="cls-1" transform="translate(280.24 291.46)">G</text></g><g id="ID000007"><text class="cls-2" transform="translate(304.4 342.93)">A</text></g><g id="ID000008"><text class="cls-1" transform="translate(280.98 343.56)">C</text></g><g id="ID000009"><text class="cls-1" transform="translate(254.19 343.56)">G</text></g><g id="ID000010"><text class="cls-1" transform="translate(228.88 343.56)">U</text></g><g id="ID000011"><text class="cls-1" transform="translate(202.83 343.56)">C</text></g><g id="ID000012"><text class="cls-1" transform="translate(176.78 343.56)">C</text></g><g id="ID000013"><line class="cls-3" x1="188.4" y1="290.2" x2="188.4" y2="321.4"/></g><g id="ID000014"><line class="cls-3" x1="214.4" y1="290.2" x2="214.4" y2="321.4"/></g><g id="ID000015"><line class="cls-3" x1="240.5" y1="290.2" x2="240.5" y2="321.4"/></g><g id="ID000016"><line class="cls-3" x1="266.5" y1="290.2" x2="266.5" y2="321.4"/></g><g id="ID000017"><line class="cls-3" x1="292.6" y1="290.2" x2="292.6" y2="321.4"/></g><g id="ID000018"><line class="cls-3" x1="355" y1="289.1" x2="338.3" y2="322.5"/></g><g id="ID000019"><polygon class="cls-4" points="349.4 299.6 344.5 302.8 349.8 305.5 349.4 299.6"/></g><g id="ID000020"><polygon class="cls-4" points="343.5 312.2 343.6 312.2 343.8 312.3 343.9 312.4 344.1 312.4 344.2 312.4 344.4 312.4 344.6 312.5 344.7 312.5 344.9 312.4 345.1 312.4 345.2 312.4 345.4 312.3 345.5 312.3 345.7 312.2 345.9 312.1 346 312.1 346.1 312 346.3 311.9 346.4 311.8 346.5 311.6 346.6 311.5 346.7 311.4 346.8 311.3 346.9 311.1 347 311 347 310.8 347.1 310.7 347.1 310.5 347.2 310.4 347.2 310.2 347.2 310 347.2 309.9 347.2 309.7 347.2 309.5 347.2 309.4 347.1 309.2 347.1 309 347 308.9 347 308.7 346.9 308.6 346.8 308.5 346.7 308.3 346.6 308.2 346.5 308.1 346.4 307.9 346.3 307.8 346.1 307.7 346 307.6 345.9 307.6 345.7 307.5 345.6 307.4 345.4 307.4 345.2 307.3 345.1 307.3 344.9 307.3 344.8 307.2 344.6 307.2 344.4 307.2 344.3 307.3 344.1 307.3 343.9 307.3 343.8 307.4 343.6 307.4 343.5 307.5 343.3 307.6 343.2 307.7 343 307.8 342.9 307.9 342.8 308 342.7 308.1 342.6 308.2 342.5 308.4 342.4 308.5 342.3 308.6 342.2 308.8 342.2 309 342.1 309.1 342.1 309.3 342 309.4 342 309.6 342 309.8 342 309.9 342 310.1 342 310.2 342.1 310.4 342.1 310.6 342.2 310.7 342.2 310.9 342.3 311 342.4 311.2 342.5 311.3 342.6 311.5 342.7 311.6 342.8 311.7 342.9 311.8 343 311.9 343.2 312 343.3 312.1 343.5 312.2"/></g><g id="ID000022"><text class="cls-2" transform="translate(324.76 291.46)">A</text></g><g id="ID000023"><text class="cls-1" transform="translate(350.07 291.46)">C</text></g><g id="ID000024"><text class="cls-5" transform="translate(369.61 271.93)">U</text></g><g id="ID000025"><text class="cls-6" transform="translate(460.04 350.07)">G</text></g><g id="ID000026"><line class="cls-3" x1="472.4" y1="351.7" x2="472.4" y2="369.1"/></g><g id="ID000027"><text class="cls-7" transform="translate(459.59 383.82)">40</text></g><g id="ID000028"><text class="cls-1" transform="translate(349.33 343.56)">G</text></g><g id="ID000029"><text class="cls-1" transform="translate(324.71 343.41)">U</text></g><g id="ID000030"><line class="cls-3" x1="335.6" y1="290.2" x2="335.6" y2="321.4"/></g><g id="ID000031"><line class="cls-3" x1="361.7" y1="290.2" x2="361.7" y2="321.4"/></g><g id="ID000032"><line class="cls-3" x1="391.6" y1="260.2" x2="422.9" y2="260.2"/></g><g id="ID000033"><polygon class="cls-8" points="409.9 260.2 409.9 260 409.8 259.9 409.8 259.7 409.8 259.6 409.7 259.4 409.7 259.2 409.6 259.1 409.5 258.9 409.5 258.8 409.4 258.7 409.2 258.5 409.1 258.4 409 258.3 408.9 258.2 408.8 258.1 408.6 258 408.5 257.9 408.3 257.8 408.2 257.8 408 257.7 407.9 257.7 407.7 257.6 407.5 257.6 407.4 257.6 407.2 257.6 407 257.6 406.9 257.6 406.7 257.7 406.6 257.7 406.4 257.8 406.2 257.8 406.1 257.9 406 258 405.8 258 405.7 258.1 405.5 258.2 405.4 258.4 405.3 258.5 405.2 258.6 405.1 258.7 405 258.9 404.9 259 404.9 259.2 404.8 259.3 404.8 259.5 404.7 259.6 404.7 259.8 404.7 260 404.7 260.1 404.7 260.3 404.7 260.5 404.7 260.6 404.7 260.8 404.8 260.9 404.8 261.1 404.9 261.2 404.9 261.4 405 261.5 405.1 261.7 405.2 261.8 405.3 261.9 405.4 262.1 405.5 262.2 405.7 262.3 405.8 262.4 406 262.5 406.1 262.5 406.2 262.6 406.4 262.7 406.6 262.7 406.7 262.8 406.9 262.8 407 262.8 407.2 262.8 407.4 262.8 407.5 262.8 407.7 262.8 407.9 262.7 408 262.7 408.2 262.6 408.3 262.6 408.5 262.5 408.6 262.4 408.8 262.3 408.9 262.2 409 262.1 409.1 262 409.2 261.9 409.4 261.8 409.5 261.6 409.5 261.5 409.6 261.3 409.7 261.2 409.7 261 409.8 260.9 409.8 260.7 409.8 260.5 409.9 260.4 409.9 260.2"/></g><g id="ID000034"><line class="cls-3" x1="472.4" y1="296.7" x2="472.4" y2="327.9"/></g><g id="ID000035"><polygon class="cls-8" points="472.4 314.9 472.5 314.9 472.7 314.9 472.9 314.9 473 314.8 473.2 314.8 473.4 314.7 473.5 314.7 473.6 314.6 473.8 314.5 473.9 314.4 474 314.3 474.2 314.2 474.3 314.1 474.4 314 474.5 313.8 474.6 313.7 474.7 313.5 474.8 313.4 474.8 313.2 474.9 313.1 474.9 312.9 474.9 312.8 475 312.6 475 312.4 475 312.3 475 312.1 475 311.9 474.9 311.8 474.9 311.6 474.8 311.5 474.8 311.3 474.7 311.1 474.6 311 474.5 310.9 474.5 310.7 474.4 310.6 474.2 310.5 474.1 310.4 474 310.3 473.9 310.2 473.7 310.1 473.6 310 473.4 309.9 473.3 309.9 473.1 309.8 473 309.8 472.8 309.7 472.6 309.7 472.5 309.7 472.3 309.7 472.1 309.7 472 309.7 471.8 309.8 471.6 309.8 471.5 309.9 471.3 309.9 471.2 310 471 310.1 470.9 310.2 470.8 310.3 470.6 310.4 470.5 310.5 470.4 310.6 470.3 310.7 470.2 310.9 470.1 311 470 311.1 470 311.3 469.9 311.5 469.9 311.6 469.8 311.8 469.8 311.9 469.8 312.1 469.8 312.3 469.8 312.4 469.8 312.6 469.8 312.8 469.9 312.9 469.9 313.1 470 313.2 470 313.4 470.1 313.5 470.2 313.7 470.3 313.8 470.4 314 470.5 314.1 470.6 314.2 470.7 314.3 470.8 314.4 471 314.5 471.1 314.6 471.3 314.7 471.4 314.7 471.6 314.8 471.7 314.8 471.9 314.9 472 314.9 472.2 314.9 472.4 314.9"/></g><g id="ID000037"><text class="cls-5" transform="translate(368.87 245.88)">G</text></g><g id="ID000038"><text class="cls-9" transform="translate(370.34 219.83)">A</text></g><g id="ID000039"><line class="cls-3" x1="372.9" y1="208.1" x2="355.5" y2="208.1"/></g><g id="ID000040"><text class="cls-7" transform="translate(328.9 215.83)">10</text></g><g id="ID000041"><text class="cls-9" transform="translate(370.34 193.79)">A</text></g><g id="ID000042"><text class="cls-5" transform="translate(369.61 167.74)">C</text></g><g id="ID000043"><text class="cls-5" transform="translate(369.61 141.69)">C</text></g><g id="ID000044"><text class="cls-5" transform="translate(368.87 115.64)">G</text></g><g id="ID000045"><text class="cls-9" transform="translate(383.37 89.59)">A</text></g><g id="ID000046"><text class="cls-9" transform="translate(409.41 89.59)">A</text></g><g id="ID000047"><text class="cls-9" transform="translate(422.44 115.64)">A</text></g><g id="ID000048"><text class="cls-5" transform="translate(420.96 141.69)">G</text></g><g id="ID000049"><text class="cls-5" transform="translate(420.96 167.74)">G</text></g><g id="ID000050"><text class="cls-5" transform="translate(421.7 193.79)">U</text></g><g id="ID000051"><line class="cls-3" x1="442.7" y1="182.1" x2="460" y2="182.1"/></g><g id="ID000052"><text class="cls-7" transform="translate(458.04 189.79)">20</text></g><g id="ID000053"><text class="cls-5" transform="translate(421.7 219.83)">U</text></g><g id="ID000054"><text class="cls-5" transform="translate(421.7 245.88)">C</text></g><g id="ID000055"><text class="cls-5" transform="translate(421.7 271.93)">U</text></g><g id="ID000056"><text class="cls-10" transform="translate(434.73 297.98)">U</text></g><g id="ID000057"><line class="cls-3" x1="391.6" y1="234.2" x2="422.9" y2="234.2"/></g><g id="ID000058"><line class="cls-3" x1="391.6" y1="208.1" x2="422.9" y2="208.1"/></g><g id="ID000059"><line class="cls-3" x1="391.6" y1="182.1" x2="422.9" y2="182.1"/></g><g id="ID000060"><line class="cls-3" x1="391.6" y1="156" x2="422.9" y2="156"/></g><g id="ID000061"><line class="cls-3" x1="391.6" y1="130" x2="422.9" y2="130"/></g><g id="ID000062"><line class="cls-3" x1="391.6" y1="103.9" x2="422.9" y2="103.9"/></g><g id="ID000063"><polygon class="cls-4" points="399.2 103.9 404.3 106.8 404.3 101 399.2 103.9"/></g><g id="ID000064"><polygon class="cls-4" points="413.6 101.3 408.4 101.3 408.4 106.5 413.6 106.5 413.6 101.3"/></g><g id="ID000066"><text class="cls-6" transform="translate(460.04 297.98)">G</text></g><g id="ID000067"><text class="cls-11" transform="translate(486.08 297.98)">G</text></g><g id="ID000068"><text class="cls-11" transform="translate(512.87 297.98)">C</text></g><g id="ID000069"><text class="cls-11" transform="translate(538.92 297.98)">U</text></g><g id="ID000070"><text class="cls-11" transform="translate(564.23 297.98)">G</text></g><g id="ID000071"><text class="cls-11" transform="translate(591.02 297.98)">C</text></g><g id="ID000072"><line class="cls-3" x1="602.6" y1="273.9" x2="602.6" y2="256.5"/></g><g id="ID000073"><text class="cls-7" transform="translate(589.83 256.01)">30</text></g><g id="ID000074"><text class="cls-11" transform="translate(617.06 297.98)">U</text></g><g id="ID000075"><text class="cls-10" transform="translate(643.11 311)">U</text></g><g id="ID000076"><text class="cls-11" transform="translate(643.11 343.56)">C</text></g><g id="ID000077"><text class="cls-11" transform="translate(616.32 350.07)">G</text></g><g id="ID000078"><text class="cls-11" transform="translate(590.27 350.07)">G</text></g><g id="ID000079"><text class="cls-11" transform="translate(564.97 350.07)">C</text></g><g id="ID000080"><text class="cls-12" transform="translate(539.65 350.07)">A</text></g><g id="ID000081"><text class="cls-11" transform="translate(512.13 350.07)">G</text></g><g id="ID000082"><text class="cls-12" transform="translate(487.56 350.07)">A</text></g><g id="ID000083"><line class="cls-3" x1="498.4" y1="296.7" x2="498.4" y2="327.9"/></g><g id="ID000084"><polygon class="cls-8" points="498.4 314.9 498.6 314.9 498.8 314.9 498.9 314.9 499.1 314.8 499.2 314.8 499.4 314.7 499.5 314.7 499.7 314.6 499.8 314.5 500 314.4 500.1 314.3 500.2 314.2 500.3 314.1 500.5 314 500.5 313.8 500.6 313.7 500.7 313.5 500.8 313.4 500.9 313.2 500.9 313.1 501 312.9 501 312.8 501 312.6 501 312.4 501 312.3 501 312.1 501 311.9 501 311.8 500.9 311.6 500.9 311.5 500.8 311.3 500.8 311.1 500.7 311 500.6 310.9 500.5 310.7 500.4 310.6 500.3 310.5 500.2 310.4 500 310.3 499.9 310.2 499.8 310.1 499.6 310 499.5 309.9 499.3 309.9 499.2 309.8 499 309.8 498.8 309.7 498.7 309.7 498.5 309.7 498.4 309.7 498.2 309.7 498 309.7 497.9 309.8 497.7 309.8 497.5 309.9 497.4 309.9 497.2 310 497.1 310.1 497 310.2 496.8 310.3 496.7 310.4 496.6 310.5 496.5 310.6 496.4 310.7 496.3 310.9 496.2 311 496.1 311.1 496 311.3 496 311.5 495.9 311.6 495.9 311.8 495.9 311.9 495.8 312.1 495.8 312.3 495.8 312.4 495.8 312.6 495.9 312.8 495.9 312.9 495.9 313.1 496 313.2 496.1 313.4 496.1 313.5 496.2 313.7 496.3 313.8 496.4 314 496.5 314.1 496.6 314.2 496.8 314.3 496.9 314.4 497 314.5 497.2 314.6 497.3 314.7 497.5 314.7 497.6 314.8 497.8 314.8 497.9 314.9 498.1 314.9 498.3 314.9 498.4 314.9"/></g><g id="ID000085"><line class="cls-3" x1="524.5" y1="296.7" x2="524.5" y2="327.9"/></g><g id="ID000086"><line class="cls-3" x1="550.5" y1="296.7" x2="550.5" y2="327.9"/></g><g id="ID000087"><line class="cls-3" x1="576.6" y1="296.7" x2="576.6" y2="327.9"/></g><g id="ID000088"><line class="cls-3" x1="602.6" y1="296.7" x2="602.6" y2="327.9"/></g><g id="ID000089"><line class="cls-3" x1="628.7" y1="296.7" x2="628.7" y2="327.9"/></g><g id="ID000090"><polygon class="cls-4" points="628.7 307.2 625.7 312.3 631.6 312.3 628.7 307.2"/></g><g id="ID000091"><polygon class="cls-4" points="628.7 320.7 628.8 320.7 629 320.7 629.2 320.6 629.3 320.6 629.5 320.5 629.6 320.5 629.8 320.4 629.9 320.4 630.1 320.3 630.2 320.2 630.3 320.1 630.5 320 630.6 319.8 630.7 319.7 630.8 319.6 630.9 319.5 631 319.3 631 319.2 631.1 319 631.2 318.9 631.2 318.7 631.2 318.5 631.3 318.4 631.3 318.2 631.3 318 631.3 317.9 631.2 317.7 631.2 317.5 631.2 317.4 631.1 317.2 631.1 317.1 631 316.9 630.9 316.8 630.8 316.6 630.7 316.5 630.6 316.4 630.5 316.2 630.4 316.1 630.3 316 630.1 315.9 630 315.8 629.9 315.8 629.7 315.7 629.6 315.6 629.4 315.6 629.2 315.5 629.1 315.5 628.9 315.5 628.8 315.5 628.6 315.5 628.4 315.5 628.3 315.5 628.1 315.5 627.9 315.6 627.8 315.6 627.6 315.7 627.5 315.8 627.3 315.8 627.2 315.9 627.1 316 626.9 316.1 626.8 316.2 626.7 316.4 626.6 316.5 626.5 316.6 626.4 316.8 626.3 316.9 626.3 317.1 626.2 317.2 626.2 317.4 626.1 317.5 626.1 317.7 626.1 317.9 626.1 318 626.1 318.2 626.1 318.4 626.1 318.5 626.1 318.7 626.2 318.9 626.2 319 626.3 319.2 626.4 319.3 626.5 319.5 626.5 319.6 626.7 319.7 626.8 319.8 626.9 320 627 320.1 627.1 320.2 627.3 320.3 627.4 320.4 627.5 320.4 627.7 320.5 627.8 320.5 628 320.6 628.2 320.6 628.3 320.7 628.5 320.7 628.7 320.7"/></g><g id="ID000093"><line class="cls-13" x1="460" y1="337.6" x2="372.5" y2="332.5"/></g><g id="ID000094"><polygon class="cls-8" points="420.2 339.5 418.1 337.4 416 336.7 413.9 336.2 409.6 335 414 334.2 416.2 334.1 418.4 333.5 420.7 331.7 420.2 339.5"/></g><g id="ID000093-2"><line class="cls-13" x1="302" y1="279.5" x2="328.4" y2="280"/></g><g id="ID000094-2"><polygon class="cls-8" points="311.8 275.8 313.8 277.9 315.9 278.6 318.1 279.1 322.4 280.3 318 281 315.8 281.2 313.6 281.8 311.3 283.6 311.8 275.8"/></g><text class="cls-7" transform="translate(179.46 261.21)">5</text><text class="cls-14" transform="translate(192.25 261.21)">’</text><text class="cls-7" transform="translate(179.46 367.28)">3</text><text class="cls-14" transform="translate(192.25 367.28)">’</text><ellipse class="cls-15" cx="407.3" cy="299.6" rx="14.4" ry="33.7"/><text class="cls-16" transform="translate(403.07 270.05) rotate(90)">5-</text><text class="cls-17" transform="translate(403.07 282.5) rotate(90)">T</text><text class="cls-16" transform="translate(403.07 290.01) rotate(90)">AMR</text><text class="cls-18" transform="translate(403.07 321.12) rotate(90)">A</text><text class="cls-7" transform="translate(322.51 43.94)">TMR3</text><text class="cls-19" transform="translate(385.12 43.94)"> </text><text class="cls-7" transform="translate(390.24 43.94)">Aptamer</text></svg>