<?xml version="1.0" encoding="UTF-8"?>
<svg id="_图层_1" data-name="图层 1" xmlns="http://www.w3.org/2000/svg" viewBox="0 0 800 400">
  <defs>
    <style>
      .cls-1, .cls-2, .cls-3, .cls-4, .cls-5, .cls-6, .cls-7, .cls-8, .cls-9, .cls-10 {
        isolation: isolate;
      }

      .cls-1, .cls-2, .cls-4, .cls-5, .cls-11, .cls-6, .cls-7, .cls-8, .cls-9, .cls-10 {
        font-family: ArialMT, Arial;
      }

      .cls-1, .cls-4, .cls-5, .cls-6, .cls-7, .cls-8, .cls-10 {
        font-size: 12.55px;
      }

      .cls-1, .cls-6 {
        fill: #0a0bff;
      }

      .cls-1, .cls-7, .cls-8 {
        letter-spacing: -.18em;
      }

      .cls-2 {
        letter-spacing: -.04em;
      }

      .cls-2, .cls-11, .cls-12, .cls-9, .cls-10 {
        fill: #000;
      }

      .cls-2, .cls-9 {
        font-size: 12px;
      }

      .cls-4, .cls-7 {
        fill: #f0f;
      }

      .cls-5, .cls-8 {
        fill: #ff870a;
      }

      .cls-13 {
        fill: #fff;
      }

      .cls-13, .cls-14, .cls-12 {
        stroke-width: .07px;
      }

      .cls-13, .cls-14, .cls-12, .cls-15 {
        stroke: #000;
        stroke-miterlimit: 10;
      }

      .cls-11 {
        font-size: 20px;
      }

      .cls-16 {
        fill: #efff1f;
        stroke-width: 0px;
      }

      .cls-14, .cls-15 {
        fill: none;
      }

      .cls-17 {
        letter-spacing: -.02em;
      }

      .cls-15 {
        stroke-width: .4px;
      }

      .cls-18 {
        letter-spacing: -.06em;
      }
    </style>
  </defs>
  <ellipse class="cls-16" cx="394.13" cy="224.74" rx="6.02" ry="20.06"/>
  <g id="ID000002">
    <text class="cls-6" transform="translate(368.2 385.59)"><tspan x="0" y="0">G</tspan></text>
  </g>
  <g id="ID000003">
    <text class="cls-6" transform="translate(368.2 372.99)"><tspan x="0" y="0">G</tspan></text>
  </g>
  <g id="ID000004">
    <text class="cls-1" transform="translate(368.9 360.39)"><tspan x="0" y="0">A</tspan></text>
  </g>
  <g id="ID000005">
    <text class="cls-6" transform="translate(368.55 347.79)"><tspan x="0" y="0">C</tspan></text>
  </g>
  <g id="ID000006">
    <text class="cls-1" transform="translate(368.9 335.18)"><tspan x="0" y="0">A</tspan></text>
  </g>
  <g id="ID000007">
    <text class="cls-6" transform="translate(368.55 322.58)"><tspan x="0" y="0">C</tspan></text>
  </g>
  <g id="ID000008">
    <text class="cls-6" transform="translate(368.55 309.98)"><tspan x="0" y="0">U</tspan></text>
  </g>
  <g id="ID000009">
    <text class="cls-6" transform="translate(368.2 297.38)"><tspan x="0" y="0">G</tspan></text>
  </g>
  <g id="ID000010">
    <line class="cls-14" x1="376.56" y1="267.97" x2="383.89" y2="272.08"/>
  </g>
  <g id="ID000011">
    <text class="cls-10" transform="translate(458.83 144.36)"><tspan x="0" y="0">20</tspan></text>
  </g>
  <g id="ID000012">
    <text class="cls-1" transform="translate(368.9 284.78)"><tspan x="0" y="0">A</tspan></text>
  </g>
  <g id="ID000013">
    <text class="cls-5" transform="translate(368.45 270.37)"><tspan x="0" y="0">U</tspan></text>
  </g>
  <g id="ID000014">
    <text class="cls-6" transform="translate(343.25 286.12)"><tspan x="0" y="0">C</tspan></text>
  </g>
  <g id="ID000015">
    <text class="cls-1" transform="translate(343.6 298.72)"><tspan x="0" y="0">A</tspan></text>
  </g>
  <g id="ID000016">
    <text class="cls-6" transform="translate(343.25 311.32)"><tspan x="0" y="0">C</tspan></text>
  </g>
  <g id="ID000017">
    <text class="cls-6" transform="translate(342.9 323.92)"><tspan x="0" y="0">G</tspan></text>
  </g>
  <g id="ID000018">
    <text class="cls-6" transform="translate(343.25 336.52)"><tspan x="0" y="0">U</tspan></text>
  </g>
  <g id="ID000019">
    <text class="cls-6" transform="translate(342.9 349.13)"><tspan x="0" y="0">G</tspan></text>
  </g>
  <g id="ID000020">
    <line class="cls-14" x1="343.36" y1="370.18" x2="334.96" y2="370.18"/>
  </g>
  <g id="ID000022">
    <text class="cls-6" transform="translate(343.25 361.73)"><tspan x="0" y="0">U</tspan></text>
  </g>
  <g id="ID000023">
    <text class="cls-6" transform="translate(343.25 374.33)"><tspan x="0" y="0">C</tspan></text>
  </g>
  <g id="ID000024">
    <text class="cls-6" transform="translate(343.25 386.93)"><tspan x="0" y="0">C</tspan></text>
  </g>
  <g id="ID000025">
    <line class="cls-14" x1="367.94" y1="381.25" x2="352.82" y2="381.25"/>
  </g>
  <g id="ID000026">
    <line class="cls-14" x1="367.94" y1="368.65" x2="352.82" y2="368.65"/>
  </g>
  <g id="ID000027">
    <line class="cls-14" x1="367.94" y1="356.05" x2="352.82" y2="356.05"/>
  </g>
  <g id="ID000028">
    <line class="cls-14" x1="367.94" y1="343.45" x2="352.82" y2="343.45"/>
  </g>
  <g id="ID000029">
    <line class="cls-14" x1="367.94" y1="330.85" x2="352.82" y2="330.85"/>
  </g>
  <g id="ID000030">
    <line class="cls-14" x1="367.94" y1="318.25" x2="352.82" y2="318.25"/>
  </g>
  <g id="ID000031">
    <line class="cls-14" x1="367.94" y1="305.65" x2="352.82" y2="305.65"/>
  </g>
  <g id="ID000032">
    <polygon class="cls-13" points="366.18 305.65 366.17 305.49 366.15 305.33 366.13 305.17 366.09 305.01 366.05 304.86 366 304.71 365.93 304.56 365.86 304.42 365.77 304.29 365.69 304.15 365.59 304.03 365.48 303.91 365.37 303.8 365.24 303.69 365.12 303.6 364.98 303.51 364.85 303.43 364.7 303.36 364.55 303.29 364.4 303.24 364.25 303.2 364.09 303.17 363.93 303.14 363.77 303.13 363.62 303.13 363.45 303.14 363.3 303.15 363.14 303.18 362.98 303.22 362.83 303.27 362.68 303.32 362.54 303.39 362.39 303.47 362.26 303.55 362.13 303.64 362 303.74 361.89 303.85 361.78 303.97 361.67 304.09 361.58 304.22 361.49 304.35 361.42 304.49 361.35 304.64 361.29 304.79 361.24 304.94 361.2 305.09 361.17 305.25 361.15 305.41 361.14 305.57 361.14 305.73 361.15 305.89 361.17 306.05 361.2 306.2 361.24 306.36 361.29 306.51 361.35 306.66 361.42 306.8 361.49 306.94 361.58 307.08 361.67 307.21 361.78 307.33 361.89 307.44 362 307.55 362.13 307.65 362.26 307.75 362.39 307.83 362.54 307.91 362.68 307.97 362.83 308.03 362.98 308.08 363.14 308.12 363.3 308.14 363.45 308.16 363.62 308.17 363.77 308.17 363.93 308.15 364.09 308.13 364.25 308.1 364.4 308.06 364.55 308 364.7 307.94 364.85 307.87 364.98 307.79 365.12 307.7 365.24 307.6 365.37 307.5 365.48 307.39 365.59 307.27 365.69 307.14 365.77 307.01 365.86 306.87 365.93 306.73 366 306.58 366.05 306.44 366.09 306.28 366.13 306.13 366.15 305.97 366.17 305.81 366.18 305.65"/>
  </g>
  <g id="ID000033">
    <polygon class="cls-13" points="354.58 308.17 359.62 308.17 359.62 303.13 354.58 303.13 354.58 308.17"/>
  </g>
  <g id="ID000034">
    <line class="cls-14" x1="367.94" y1="293.05" x2="352.82" y2="293.05"/>
  </g>
  <g id="ID000035">
    <polygon class="cls-13" points="366.93 293.05 362.02 290.21 362.02 295.88 366.93 293.05"/>
  </g>
  <g id="ID000036">
    <polygon class="cls-13" points="354.58 295.57 359.62 295.57 359.62 290.53 354.58 290.53 354.58 295.57"/>
  </g>
  <g id="ID000037">
    <polyline class="cls-14" points="372.98 275.41 372.98 274.15 357.23 274.15 357.23 176.49 367.94 176.49"/>
  </g>
  <g id="ID000038">
    <polygon class="cls-13" points="359.75 231.11 359.75 226.07 354.71 226.07 354.71 231.11 359.75 231.11"/>
  </g>
  <g id="ID000039">
    <polygon class="cls-13" points="357.23 219.52 357.07 219.53 356.91 219.54 356.75 219.57 356.6 219.6 356.44 219.65 356.29 219.7 356.15 219.77 356 219.84 355.87 219.92 355.73 220.01 355.61 220.11 355.49 220.22 355.38 220.33 355.27 220.45 355.18 220.58 355.09 220.71 355.01 220.85 354.94 220.99 354.87 221.14 354.82 221.29 354.78 221.45 354.75 221.6 354.72 221.76 354.71 221.92 354.71 222.08 354.72 222.24 354.73 222.4 354.76 222.56 354.8 222.71 354.85 222.87 354.9 223.01 354.97 223.16 355.05 223.3 355.13 223.44 355.22 223.57 355.32 223.69 355.43 223.81 355.55 223.92 355.67 224.02 355.8 224.12 355.93 224.2 356.07 224.28 356.22 224.35 356.37 224.41 356.52 224.46 356.67 224.5 356.83 224.53 356.99 224.55 357.15 224.56 357.31 224.56 357.47 224.55 357.63 224.53 357.78 224.5 357.94 224.46 358.09 224.41 358.24 224.35 358.38 224.28 358.52 224.2 358.66 224.12 358.79 224.02 358.91 223.92 359.02 223.81 359.13 223.69 359.23 223.57 359.33 223.44 359.41 223.3 359.49 223.16 359.55 223.01 359.61 222.87 359.66 222.71 359.69 222.56 359.72 222.4 359.74 222.24 359.75 222.08 359.75 221.92 359.73 221.76 359.71 221.6 359.68 221.45 359.63 221.29 359.58 221.14 359.52 220.99 359.45 220.85 359.37 220.71 359.28 220.58 359.18 220.45 359.08 220.33 358.97 220.22 358.85 220.11 358.72 220.01 358.59 219.92 358.45 219.84 358.31 219.77 358.17 219.7 358.01 219.65 357.86 219.6 357.7 219.57 357.55 219.54 357.39 219.53 357.23 219.52"/>
  </g>
  <g id="ID000040">
    <line class="cls-15" x1="378.02" y1="264.7" x2="437.24" y2="264.7"/>
  </g>
  <g id="ID000041">
    <polygon class="cls-12" points="403.43 260.92 405.53 262.81 407.63 263.44 409.73 263.75 413.93 264.7 409.73 265.64 407.63 265.96 405.53 266.59 403.43 268.48 403.43 260.92"/>
  </g>
  <g id="ID000042">
    <polyline class="cls-14" points="371.87 259.78 350.93 167.04 350.93 167.04 350.03 165.25"/>
  </g>
  <g id="ID000043">
    <polygon class="cls-13" points="360.84 210.95 360.69 210.99 360.54 211.04 360.39 211.1 360.24 211.17 360.1 211.25 359.97 211.33 359.84 211.43 359.72 211.53 359.6 211.64 359.49 211.76 359.39 211.88 359.3 212.01 359.22 212.15 359.14 212.29 359.07 212.44 359.02 212.58 358.97 212.74 358.93 212.89 358.9 213.05 358.89 213.21 358.88 213.37 358.88 213.53 358.89 213.69 358.92 213.85 358.95 214 358.99 214.16 359.04 214.31 359.11 214.46 359.18 214.6 359.26 214.74 359.35 214.87 359.44 215 359.55 215.12 359.66 215.23 359.78 215.34 359.9 215.44 360.04 215.53 360.17 215.61 360.32 215.68 360.46 215.75 360.61 215.8 360.77 215.85 360.92 215.88 361.08 215.91 361.24 215.92 361.4 215.93 361.56 215.92 361.72 215.91 361.88 215.88 362.03 215.85 362.19 215.8 362.34 215.75 362.48 215.69 362.62 215.61 362.76 215.53 362.89 215.44 363.02 215.34 363.14 215.23 363.25 215.12 363.36 215 363.45 214.87 363.54 214.74 363.62 214.6 363.69 214.46 363.75 214.31 363.81 214.16 363.85 214 363.88 213.85 363.9 213.69 363.92 213.53 363.92 213.37 363.91 213.21 363.89 213.05 363.87 212.89 363.83 212.74 363.78 212.58 363.72 212.44 363.66 212.29 363.58 212.15 363.5 212.01 363.4 211.88 363.3 211.76 363.19 211.64 363.08 211.53 362.96 211.43 362.83 211.33 362.69 211.25 362.55 211.17 362.41 211.1 362.26 211.04 362.11 210.99 361.95 210.95 361.8 210.92 361.64 210.9 361.48 210.89 361.32 210.89 361.16 210.9 361 210.92 360.84 210.95"/>
  </g>
  <g id="ID000044">
    <line class="cls-15" x1="347.78" y1="165.78" x2="347.78" y2="275.41"/>
  </g>
  <g id="ID000045">
    <polygon class="cls-12" points="351.56 216.39 349.67 218.49 349.04 220.59 348.72 222.69 347.78 226.89 346.83 222.69 346.52 220.59 345.89 218.49 344 216.39 351.56 216.39"/>
  </g>
  <g id="ID000046">
    <polyline class="cls-14" points="416.94 260.28 416.35 285.23 350.47 285.5"/>
  </g>
  <g id="ID000047">
    <polygon class="cls-12" points="382.07 286.13 382.08 286.29 382.1 286.44 382.12 286.6 382.16 286.76 382.2 286.91 382.26 287.06 382.32 287.21 382.4 287.35 382.48 287.49 382.57 287.62 382.67 287.74 382.78 287.86 382.89 287.98 383.01 288.08 383.14 288.18 383.27 288.26 383.41 288.34 383.56 288.41 383.7 288.48 383.85 288.53 384.01 288.57 384.17 288.6 384.32 288.62 384.48 288.63 384.64 288.64 384.8 288.63 384.96 288.61 385.12 288.58 385.27 288.55 385.43 288.5 385.58 288.44 385.72 288.37 385.86 288.3 386 288.21 386.13 288.12 386.25 288.02 386.37 287.91 386.48 287.79 386.58 287.67 386.68 287.54 386.76 287.4 386.84 287.26 386.91 287.12 386.96 286.97 387.01 286.82 387.05 286.66 387.08 286.51 387.1 286.35 387.11 286.19 387.11 286.03 387.1 285.87 387.08 285.71 387.05 285.55 387.01 285.4 386.96 285.25 386.9 285.1 386.83 284.95 386.75 284.82 386.67 284.68 386.57 284.55 386.47 284.43 386.36 284.31 386.24 284.21 386.11 284.11 385.98 284.01 385.85 283.93 385.7 283.86 385.56 283.79 385.41 283.73 385.26 283.69 385.1 283.65 384.94 283.62 384.79 283.6 384.63 283.6 384.47 283.6 384.31 283.61 384.15 283.64 383.99 283.67 383.84 283.71 383.69 283.77 383.54 283.83 383.4 283.9 383.26 283.98 383.13 284.07 383 284.17 382.88 284.27 382.76 284.38 382.66 284.5 382.56 284.63 382.47 284.76 382.39 284.9 382.31 285.04 382.25 285.19 382.2 285.34 382.15 285.49 382.12 285.65 382.09 285.81 382.08 285.97 382.07 286.13"/>
  </g>
  <g id="ID000049">
    <text class="cls-5" transform="translate(437.41 270.37)"><tspan x="0" y="0">G</tspan></text>
  </g>
  <g id="ID000050">
    <text class="cls-8" transform="translate(438.11 248.32)"><tspan x="0" y="0">A</tspan></text>
  </g>
  <g id="ID000051">
    <text class="cls-4" transform="translate(437.76 235.71)"><tspan x="0" y="0">U</tspan></text>
  </g>
  <g id="ID000052">
    <text class="cls-5" transform="translate(437.76 223.12)"><tspan x="0" y="0">C</tspan></text>
  </g>
  <g id="ID000053">
    <text class="cls-5" transform="translate(437.41 210.51)"><tspan x="0" y="0">G</tspan></text>
  </g>
  <g id="ID000054">
    <text class="cls-5" transform="translate(437.76 197.91)"><tspan x="0" y="0">C</tspan></text>
  </g>
  <g id="ID000055">
    <text class="cls-5" transform="translate(437.41 185.31)"><tspan x="0" y="0">G</tspan></text>
  </g>
  <g id="ID000056">
    <text class="cls-5" transform="translate(412.21 197.91)"><tspan x="0" y="0">G</tspan></text>
  </g>
  <g id="ID000057">
    <text class="cls-5" transform="translate(412.56 210.51)"><tspan x="0" y="0">C</tspan></text>
  </g>
  <g id="ID000058">
    <text class="cls-8" transform="translate(412.9 223.12)"><tspan x="0" y="0">A</tspan></text>
  </g>
  <g id="ID000059">
    <text class="cls-4" transform="translate(412.56 235.71)"><tspan x="0" y="0">U</tspan></text>
  </g>
  <g id="ID000060">
    <text class="cls-5" transform="translate(412.56 248.32)"><tspan x="0" y="0">U</tspan></text>
  </g>
  <g id="ID000061">
    <text class="cls-5" transform="translate(412.21 260.92)"><tspan x="0" y="0">G</tspan></text>
  </g>
  <g id="ID000062">
    <text class="cls-7" transform="translate(368.8 226.26)"><tspan x="0" y="0">A</tspan></text>
  </g>
  <g id="ID000063">
    <text class="cls-8" transform="translate(368.8 213.67)"><tspan x="0" y="0">A</tspan></text>
  </g>
  <g id="ID000064">
    <line class="cls-14" x1="439.49" y1="260.5" x2="375.78" y2="164.93"/>
  </g>
  <g id="ID000065">
    <polygon class="cls-13" points="405.82 209.99 406.18 215.65 410.9 212.51 405.82 209.99"/>
  </g>
  <g id="ID000066">
    <line class="cls-14" x1="438.72" y1="239.08" x2="351.34" y2="151.7"/>
  </g>
  <g id="ID000067">
    <polygon class="cls-13" points="400.91 197.71 397.35 194.14 393.78 197.71 397.35 201.27 400.91 197.71"/>
  </g>
  <g id="ID000068">
    <polygon class="cls-13" points="390.93 191.29 390.82 191.41 390.72 191.53 390.63 191.66 390.54 191.8 390.46 191.94 390.4 192.08 390.34 192.23 390.29 192.38 390.25 192.54 390.22 192.7 390.2 192.85 390.19 193.01 390.2 193.17 390.21 193.33 390.23 193.49 390.26 193.65 390.3 193.8 390.35 193.96 390.41 194.1 390.48 194.25 390.56 194.38 390.65 194.52 390.75 194.65 390.85 194.77 390.96 194.88 391.08 194.99 391.2 195.09 391.33 195.18 391.47 195.27 391.61 195.34 391.76 195.41 391.91 195.46 392.06 195.51 392.22 195.54 392.38 195.57 392.54 195.59 392.69 195.59 392.86 195.59 393.01 195.58 393.17 195.55 393.33 195.52 393.48 195.47 393.63 195.42 393.78 195.36 393.92 195.29 394.06 195.21 394.19 195.12 394.32 195.02 394.44 194.91 394.55 194.8 394.66 194.68 394.76 194.55 394.85 194.42 394.93 194.28 395 194.14 395.06 193.99 395.12 193.84 395.16 193.69 395.19 193.53 395.22 193.37 395.23 193.21 395.24 193.05 395.23 192.89 395.21 192.74 395.19 192.58 395.15 192.42 395.1 192.27 395.05 192.12 394.98 191.97 394.91 191.83 394.82 191.69 394.73 191.56 394.63 191.44 394.52 191.32 394.41 191.21 394.29 191.1 394.16 191.01 394.03 190.92 393.89 190.84 393.74 190.77 393.6 190.71 393.44 190.66 393.29 190.62 393.13 190.59 392.97 190.57 392.81 190.56 392.65 190.56 392.5 190.56 392.34 190.58 392.18 190.61 392.02 190.65 391.87 190.7 391.72 190.76 391.58 190.82 391.44 190.9 391.3 190.99 391.17 191.08 391.05 191.18 390.93 191.29"/>
  </g>
  <g id="ID000069">
    <line class="cls-14" x1="437.78" y1="227.79" x2="421.59" y2="219.7"/>
  </g>
  <g id="ID000070">
    <polygon class="cls-12" points="427.43 222.62 427.36 222.76 427.31 222.91 427.26 223.06 427.22 223.22 427.19 223.38 427.17 223.53 427.16 223.69 427.17 223.85 427.18 224.01 427.2 224.17 427.23 224.33 427.27 224.48 427.33 224.63 427.39 224.78 427.46 224.93 427.54 225.06 427.63 225.2 427.72 225.32 427.83 225.45 427.94 225.56 428.06 225.67 428.18 225.77 428.31 225.86 428.45 225.94 428.59 226.01 428.74 226.08 428.89 226.13 429.04 226.18 429.2 226.22 429.36 226.24 429.51 226.26 429.68 226.26 429.83 226.26 429.99 226.24 430.15 226.22 430.31 226.18 430.46 226.14 430.61 226.09 430.76 226.02 430.9 225.95 431.04 225.87 431.17 225.78 431.3 225.68 431.42 225.57 431.53 225.46 431.63 225.34 431.73 225.21 431.82 225.08 431.9 224.94 431.97 224.8 432.04 224.65 432.09 224.5 432.13 224.34 432.16 224.19 432.19 224.03 432.2 223.87 432.2 223.71 432.2 223.55 432.18 223.39 432.15 223.24 432.12 223.08 432.07 222.93 432.01 222.78 431.94 222.63 431.87 222.49 431.79 222.35 431.69 222.22 431.59 222.1 431.49 221.98 431.37 221.87 431.25 221.77 431.12 221.67 430.99 221.59 430.85 221.51 430.7 221.44 430.55 221.38 430.4 221.33 430.25 221.29 430.09 221.26 429.93 221.24 429.77 221.22 429.61 221.22 429.45 221.23 429.29 221.25 429.14 221.28 428.98 221.32 428.83 221.37 428.68 221.43 428.54 221.5 428.4 221.58 428.26 221.66 428.13 221.76 428.01 221.86 427.89 221.97 427.79 222.09 427.68 222.21 427.59 222.34 427.5 222.47 427.43 222.62"/>
  </g>
  <g id="ID000071">
    <line class="cls-14" x1="437.24" y1="204.84" x2="422.12" y2="204.84"/>
  </g>
  <g id="ID000072">
    <line class="cls-14" x1="437.24" y1="192.24" x2="422.12" y2="192.24"/>
  </g>
  <g id="ID000073">
    <line class="cls-14" x1="412.57" y1="227.79" x2="377.49" y2="210.25"/>
  </g>
  <g id="ID000074">
    <polygon class="cls-13" points="400.22 221.61 400.28 221.46 400.34 221.31 400.39 221.16 400.43 221.01 400.45 220.85 400.47 220.69 400.48 220.53 400.48 220.37 400.47 220.21 400.44 220.05 400.41 219.9 400.37 219.74 400.32 219.59 400.26 219.44 400.19 219.3 400.11 219.16 400.02 219.03 399.92 218.9 399.82 218.78 399.71 218.66 399.59 218.56 399.46 218.46 399.33 218.37 399.19 218.28 399.05 218.21 398.91 218.15 398.76 218.09 398.6 218.04 398.45 218.01 398.29 217.98 398.13 217.97 397.97 217.96 397.81 217.97 397.65 217.98 397.49 218.01 397.34 218.04 397.18 218.09 397.03 218.14 396.89 218.2 396.74 218.28 396.61 218.36 396.47 218.45 396.35 218.55 396.23 218.65 396.12 218.77 396.01 218.89 395.91 219.01 395.82 219.15 395.74 219.28 395.67 219.43 395.61 219.57 395.56 219.73 395.51 219.88 395.48 220.04 395.46 220.19 395.44 220.35 395.44 220.51 395.45 220.67 395.47 220.83 395.49 220.99 395.53 221.15 395.58 221.3 395.63 221.45 395.7 221.59 395.77 221.73 395.86 221.87 395.95 222 396.05 222.13 396.16 222.24 396.27 222.35 396.4 222.46 396.52 222.55 396.66 222.64 396.8 222.72 396.94 222.79 397.09 222.85 397.24 222.9 397.4 222.94 397.55 222.97 397.71 222.99 397.87 223 398.03 223 398.19 222.99 398.35 222.97 398.51 222.94 398.66 222.9 398.81 222.85 398.96 222.79 399.11 222.73 399.25 222.65 399.38 222.56 399.51 222.47 399.63 222.37 399.75 222.26 399.86 222.14 399.96 222.01 400.06 221.89 400.14 221.75 400.22 221.61"/>
  </g>
  <g id="ID000075">
    <polygon class="cls-13" points="388.72 218.68 393.23 220.93 395.48 216.43 390.97 214.17 388.72 218.68"/>
  </g>
  <g id="ID000077">
    <text class="cls-5" transform="translate(437.76 169.56)"><tspan x="0" y="0">U</tspan></text>
  </g>
  <g id="ID000078">
    <line class="cls-14" x1="449.02" y1="139.01" x2="457.42" y2="139.01"/>
  </g>
  <g id="ID000079">
    <text class="cls-10" transform="translate(386.6 277.8)"><tspan x="0" y="0">10</tspan></text>
  </g>
  <g id="ID000080">
    <text class="cls-5" transform="translate(437.41 156.96)"><tspan x="0" y="0">G</tspan></text>
  </g>
  <g id="ID000081">
    <text class="cls-5" transform="translate(437.41 144.36)"><tspan x="0" y="0">G</tspan></text>
  </g>
  <g id="ID000082">
    <text class="cls-8" transform="translate(438.11 131.76)"><tspan x="0" y="0">A</tspan></text>
  </g>
  <g id="ID000083">
    <text class="cls-5" transform="translate(437.76 119.16)"><tspan x="0" y="0">U</tspan></text>
  </g>
  <g id="ID000084">
    <text class="cls-5" transform="translate(412.56 156.96)"><tspan x="0" y="0">C</tspan></text>
  </g>
  <g id="ID000085">
    <text class="cls-8" transform="translate(412.9 169.56)"><tspan x="0" y="0">A</tspan></text>
  </g>
  <g id="ID000086">
    <line class="cls-14" x1="412.85" y1="193.38" x2="406.5" y2="184.17"/>
  </g>
  <g id="ID000087">
    <text class="cls-10" transform="translate(393.14 185.46)"><tspan x="0" y="0">30</tspan></text>
  </g>
  <g id="ID000088">
    <line class="cls-14" x1="437.24" y1="163.89" x2="422.12" y2="163.89"/>
  </g>
  <g id="ID000089">
    <line class="cls-14" x1="437.24" y1="151.29" x2="422.12" y2="151.29"/>
  </g>
  <g id="ID000090">
    <line class="cls-14" x1="439.89" y1="121.65" x2="400.57" y2="48.62"/>
  </g>
  <g id="ID000091">
    <polygon class="cls-12" points="422.98 90.24 423.12 90.16 423.25 90.07 423.38 89.97 423.5 89.86 423.61 89.75 423.72 89.63 423.82 89.51 423.91 89.38 423.99 89.24 424.06 89.1 424.13 88.95 424.18 88.8 424.23 88.65 424.26 88.49 424.29 88.33 424.3 88.17 424.31 88.01 424.3 87.85 424.29 87.69 424.26 87.53 424.22 87.38 424.18 87.23 424.12 87.08 424.06 86.93 423.99 86.79 423.9 86.65 423.81 86.52 423.71 86.39 423.61 86.28 423.49 86.16 423.37 86.06 423.24 85.96 423.11 85.87 422.97 85.79 422.83 85.72 422.68 85.66 422.53 85.61 422.38 85.57 422.22 85.53 422.06 85.51 421.9 85.5 421.74 85.5 421.58 85.51 421.42 85.52 421.26 85.55 421.11 85.59 420.96 85.64 420.81 85.69 420.66 85.76 420.52 85.84 420.39 85.92 420.26 86.02 420.13 86.12 420.01 86.22 419.9 86.34 419.8 86.46 419.71 86.59 419.62 86.73 419.54 86.87 419.48 87.01 419.42 87.16 419.37 87.31 419.33 87.47 419.3 87.63 419.28 87.78 419.27 87.94 419.27 88.1 419.28 88.26 419.3 88.42 419.33 88.58 419.37 88.73 419.42 88.88 419.48 89.03 419.55 89.18 419.63 89.32 419.71 89.45 419.81 89.58 419.91 89.7 420.02 89.82 420.14 89.92 420.26 90.03 420.39 90.12 420.53 90.2 420.67 90.28 420.82 90.34 420.97 90.4 421.12 90.45 421.27 90.48 421.43 90.51 421.59 90.53 421.75 90.54 421.91 90.53 422.07 90.52 422.23 90.5 422.38 90.47 422.54 90.42 422.69 90.37 422.84 90.31 422.98 90.24"/>
  </g>
  <g id="ID000092">
    <polygon class="cls-12" points="417.13 79.37 416.96 85.03 421.95 82.35 417.13 79.37"/>
  </g>
  <g id="ID000093">
    <line class="cls-15" x1="442.28" y1="108.44" x2="442.28" y2="36.62"/>
  </g>
  <g id="ID000094">
    <polygon class="cls-12" points="438.5 76.73 440.39 74.63 441.02 72.53 441.34 70.43 442.28 66.23 443.23 70.43 443.55 72.53 444.18 74.63 446.06 76.73 438.5 76.73"/>
  </g>
  <g id="ID000095">
    <line class="cls-14" x1="438.22" y1="110.5" x2="351.84" y2="47.16"/>
  </g>
  <g id="ID000096">
    <polygon class="cls-13" points="399.7 82.26 399.8 82.13 399.88 81.99 399.95 81.85 400.01 81.7 400.07 81.55 400.11 81.4 400.15 81.24 400.17 81.08 400.19 80.92 400.19 80.77 400.19 80.61 400.17 80.45 400.15 80.29 400.11 80.13 400.07 79.98 400.01 79.83 399.95 79.68 399.87 79.54 399.79 79.4 399.7 79.27 399.6 79.15 399.49 79.03 399.38 78.92 399.26 78.81 399.13 78.71 399 78.63 398.86 78.55 398.72 78.47 398.57 78.41 398.42 78.36 398.26 78.32 398.11 78.29 397.95 78.27 397.79 78.25 397.63 78.25 397.47 78.26 397.31 78.28 397.15 78.3 397 78.34 396.84 78.39 396.69 78.45 396.55 78.51 396.41 78.59 396.27 78.67 396.14 78.77 396.02 78.87 395.9 78.98 395.79 79.09 395.69 79.22 395.59 79.34 395.51 79.48 395.43 79.62 395.36 79.76 395.3 79.91 395.25 80.06 395.21 80.22 395.18 80.38 395.16 80.54 395.15 80.69 395.15 80.86 395.17 81.01 395.19 81.17 395.22 81.33 395.26 81.48 395.31 81.64 395.37 81.78 395.44 81.93 395.51 82.07 395.6 82.2 395.69 82.33 395.8 82.45 395.91 82.57 396.03 82.68 396.15 82.78 396.28 82.87 396.42 82.95 396.56 83.03 396.7 83.1 396.85 83.15 397.01 83.2 397.16 83.24 397.32 83.27 397.48 83.28 397.64 83.29 397.8 83.29 397.96 83.27 398.12 83.25 398.27 83.22 398.43 83.17 398.58 83.12 398.73 83.06 398.87 82.99 399.01 82.91 399.14 82.82 399.27 82.72 399.39 82.62 399.5 82.5 399.61 82.39 399.7 82.26"/>
  </g>
  <g id="ID000097">
    <polygon class="cls-13" points="388.87 77.44 392.93 80.42 395.91 76.35 391.85 73.37 388.87 77.44"/>
  </g>
  <g id="ID000098">
    <polyline class="cls-15" points="398.18 61.82 398.18 148.44 413.49 148.44 415.67 149.34"/>
  </g>
  <g id="ID000099">
    <polygon class="cls-12" points="401.96 100.78 400.07 102.88 399.44 104.98 399.13 107.08 398.18 111.28 397.24 107.08 396.92 104.98 396.29 102.88 394.4 100.78 401.96 100.78"/>
  </g>
  <g id="ID000101">
    <text class="cls-8" transform="translate(438.11 37.25)"><tspan x="0" y="0">A</tspan></text>
  </g>
  <g id="ID000102">
    <text class="cls-5" transform="translate(393.65 37.25)"><tspan x="0" y="0">U</tspan></text>
  </g>
  <g id="ID000103">
    <text class="cls-5" transform="translate(393.3 49.85)"><tspan x="0" y="0">G</tspan></text>
  </g>
  <g id="ID000104">
    <text class="cls-5" transform="translate(393.3 62.46)"><tspan x="0" y="0">G</tspan></text>
  </g>
  <g id="ID000105">
    <text class="cls-5" transform="translate(368.45 62.46)"><tspan x="0" y="0">C</tspan></text>
  </g>
  <g id="ID000107">
    <text class="cls-10" transform="translate(320.54 141.36)"><tspan x="0" y="0">60</tspan></text>
  </g>
  <g id="ID000108">
    <text class="cls-5" transform="translate(368.45 49.85)"><tspan x="0" y="0">C</tspan></text>
  </g>
  <g id="ID000109">
    <text class="cls-5" transform="translate(368.1 34.1)"><tspan x="0" y="0">G</tspan></text>
  </g>
  <g id="ID000110">
    <text class="cls-5" transform="translate(343.35 32.76)"><tspan x="0" y="0">U</tspan></text>
  </g>
  <g id="ID000111">
    <text class="cls-8" transform="translate(330.99 40.4)"><tspan x="0" y="0">A</tspan></text>
  </g>
  <g id="ID000112">
    <polyline class="cls-14" points="442.28 26.54 442.28 12.68 335.37 12.68 335.22 29.69"/>
  </g>
  <g id="ID000113">
    <polygon class="cls-13" points="394.62 10.16 389.58 10.16 389.58 15.2 394.62 15.2 394.62 10.16"/>
  </g>
  <g id="ID000114">
    <polygon class="cls-13" points="383.03 12.68 383.03 12.84 383.05 13 383.07 13.15 383.11 13.31 383.15 13.46 383.21 13.62 383.27 13.76 383.35 13.9 383.43 14.04 383.52 14.17 383.62 14.3 383.73 14.42 383.84 14.53 383.96 14.63 384.09 14.73 384.22 14.82 384.36 14.9 384.5 14.97 384.65 15.03 384.8 15.09 384.95 15.13 385.11 15.16 385.27 15.18 385.43 15.2 385.59 15.2 385.75 15.19 385.91 15.17 386.06 15.14 386.22 15.11 386.37 15.06 386.52 15 386.67 14.94 386.81 14.86 386.94 14.78 387.07 14.68 387.2 14.58 387.32 14.47 387.43 14.36 387.53 14.24 387.63 14.11 387.71 13.97 387.79 13.83 387.86 13.69 387.92 13.54 387.97 13.39 388.01 13.23 388.04 13.08 388.06 12.92 388.07 12.76 388.07 12.6 388.06 12.44 388.04 12.28 388.01 12.12 387.97 11.97 387.92 11.82 387.86 11.67 387.79 11.52 387.71 11.38 387.63 11.25 387.53 11.12 387.43 11 387.32 10.88 387.2 10.77 387.07 10.67 386.94 10.58 386.81 10.49 386.67 10.42 386.52 10.35 386.37 10.3 386.22 10.25 386.06 10.21 385.91 10.18 385.75 10.16 385.59 10.16 385.43 10.16 385.27 10.17 385.11 10.2 384.95 10.23 384.8 10.27 384.65 10.32 384.5 10.39 384.36 10.46 384.22 10.54 384.09 10.63 383.96 10.72 383.84 10.83 383.73 10.94 383.62 11.06 383.52 11.18 383.43 11.31 383.35 11.45 383.27 11.6 383.21 11.74 383.15 11.89 383.11 12.04 383.07 12.2 383.05 12.36 383.03 12.52 383.03 12.68"/>
  </g>
  <g id="ID000115">
    <line class="cls-14" x1="393.14" y1="44.18" x2="378.02" y2="44.18"/>
  </g>
  <g id="ID000116">
    <line class="cls-14" x1="393.14" y1="56.78" x2="378.02" y2="56.78"/>
  </g>
  <g id="ID000117">
    <polyline class="cls-14" points="398.18 61.82 398.18 63.08 354.08 63.08 351.34 60.34"/>
  </g>
  <g id="ID000118">
    <polygon class="cls-13" points="382.68 63.08 377.77 60.25 377.77 65.92 382.68 63.08"/>
  </g>
  <g id="ID000119">
    <polygon class="cls-13" points="370.33 63.08 370.34 63.24 370.35 63.4 370.38 63.56 370.41 63.71 370.46 63.87 370.51 64.02 370.58 64.17 370.65 64.31 370.73 64.44 370.82 64.58 370.92 64.7 371.03 64.82 371.14 64.93 371.26 65.04 371.39 65.13 371.52 65.22 371.66 65.3 371.81 65.37 371.95 65.44 372.11 65.49 372.26 65.53 372.42 65.56 372.57 65.59 372.73 65.6 372.89 65.6 373.05 65.59 373.21 65.58 373.37 65.55 373.52 65.51 373.68 65.46 373.83 65.41 373.97 65.34 374.11 65.26 374.25 65.18 374.38 65.09 374.5 64.99 374.62 64.88 374.73 64.76 374.83 64.64 374.93 64.51 375.02 64.38 375.09 64.24 375.16 64.09 375.22 63.94 375.27 63.79 375.31 63.64 375.34 63.48 375.36 63.32 375.37 63.16 375.37 63 375.36 62.84 375.34 62.68 375.31 62.53 375.27 62.37 375.22 62.22 375.16 62.07 375.09 61.93 375.02 61.79 374.93 61.65 374.83 61.52 374.73 61.4 374.62 61.28 374.5 61.18 374.38 61.08 374.25 60.98 374.11 60.9 373.97 60.82 373.83 60.76 373.68 60.7 373.52 60.65 373.37 60.62 373.21 60.59 373.05 60.57 372.89 60.56 372.73 60.56 372.57 60.58 372.42 60.6 372.26 60.63 372.11 60.67 371.95 60.73 371.81 60.79 371.66 60.86 371.52 60.94 371.39 61.03 371.26 61.13 371.14 61.23 371.03 61.34 370.92 61.46 370.82 61.59 370.73 61.72 370.65 61.86 370.58 62 370.51 62.15 370.46 62.3 370.41 62.45 370.38 62.6 370.35 62.76 370.34 62.92 370.33 63.08"/>
  </g>
  <g id="ID000120">
    <line class="cls-14" x1="367.94" y1="44.18" x2="352.82" y2="44.18"/>
  </g>
  <g id="ID000121">
    <polygon class="cls-12" points="366.93 44.18 362.02 41.34 362.02 47.02 366.93 44.18"/>
  </g>
  <g id="ID000122">
    <polygon class="cls-12" points="354.58 44.18 354.59 44.34 354.6 44.5 354.63 44.66 354.66 44.81 354.71 44.97 354.76 45.12 354.83 45.26 354.9 45.41 354.98 45.54 355.07 45.67 355.17 45.8 355.28 45.92 355.39 46.03 355.51 46.14 355.64 46.23 355.77 46.32 355.91 46.4 356.06 46.47 356.2 46.53 356.35 46.59 356.51 46.63 356.67 46.66 356.82 46.69 356.98 46.7 357.14 46.7 357.3 46.69 357.46 46.67 357.62 46.65 357.77 46.61 357.93 46.56 358.08 46.5 358.22 46.44 358.36 46.36 358.5 46.28 358.63 46.19 358.75 46.09 358.87 45.98 358.98 45.86 359.08 45.74 359.18 45.61 359.26 45.48 359.34 45.34 359.41 45.19 359.47 45.04 359.52 44.89 359.56 44.73 359.59 44.58 359.61 44.42 359.62 44.26 359.62 44.1 359.61 43.94 359.59 43.78 359.56 43.63 359.52 43.47 359.47 43.32 359.41 43.17 359.34 43.02 359.26 42.89 359.18 42.75 359.08 42.62 358.98 42.5 358.87 42.38 358.75 42.28 358.63 42.17 358.5 42.08 358.36 42 358.22 41.92 358.08 41.85 357.93 41.8 357.77 41.75 357.62 41.71 357.46 41.69 357.3 41.67 357.14 41.66 356.98 41.66 356.82 41.68 356.67 41.7 356.51 41.73 356.35 41.77 356.2 41.83 356.06 41.89 355.91 41.96 355.77 42.04 355.64 42.13 355.51 42.22 355.39 42.33 355.28 42.44 355.17 42.56 355.07 42.69 354.98 42.82 354.9 42.95 354.83 43.1 354.76 43.24 354.71 43.39 354.66 43.55 354.63 43.7 354.6 43.86 354.59 44.02 354.58 44.18"/>
  </g>
  <g id="ID000123">
    <line class="cls-14" x1="367.94" y1="28.43" x2="352.82" y2="28.43"/>
  </g>
  <g id="ID000124">
    <polygon class="cls-12" points="366.93 28.43 362.02 25.59 362.02 31.26 366.93 28.43"/>
  </g>
  <g id="ID000125">
    <polygon class="cls-12" points="354.58 30.95 359.62 30.95 359.62 25.91 354.58 25.91 354.58 30.95"/>
  </g>
  <g id="ID000127">
    <text class="cls-4" transform="translate(368.45 197.91)"><tspan x="0" y="0">U</tspan></text>
  </g>
  <g id="ID000128">
    <line class="cls-14" x1="366.93" y1="192.24" x2="344.33" y2="192.24"/>
  </g>
  <g id="ID000129">
    <text class="cls-10" transform="translate(385.26 27.3)"><tspan x="0" y="0">50</tspan></text>
  </g>
  <g id="ID000130">
    <text class="cls-5" transform="translate(368.45 182.16)"><tspan x="0" y="0">U</tspan></text>
  </g>
  <g id="ID000131">
    <text class="cls-5" transform="translate(368.1 166.41)"><tspan x="0" y="0">G</tspan></text>
  </g>
  <g id="ID000132">
    <text class="cls-5" transform="translate(368.45 153.81)"><tspan x="0" y="0">U</tspan></text>
  </g>
  <g id="ID000133">
    <text class="cls-5" transform="translate(368.45 141.21)"><tspan x="0" y="0">U</tspan></text>
  </g>
  <g id="ID000134">
    <text class="cls-5" transform="translate(368.1 128.61)"><tspan x="0" y="0">G</tspan></text>
  </g>
  <g id="ID000135">
    <text class="cls-5" transform="translate(368.1 116.01)"><tspan x="0" y="0">G</tspan></text>
  </g>
  <g id="ID000136">
    <text class="cls-8" transform="translate(368.8 103.4)"><tspan x="0" y="0">A</tspan></text>
  </g>
  <g id="ID000137">
    <text class="cls-5" transform="translate(368.45 90.81)"><tspan x="0" y="0">C</tspan></text>
  </g>
  <g id="ID000138">
    <text class="cls-8" transform="translate(368.8 78.21)"><tspan x="0" y="0">A</tspan></text>
  </g>
  <g id="ID000139">
    <text class="cls-8" transform="translate(343.7 48.51)"><tspan x="0" y="0">A</tspan></text>
  </g>
  <g id="ID000140">
    <text class="cls-8" transform="translate(343.7 61.12)"><tspan x="0" y="0">A</tspan></text>
  </g>
  <g id="ID000141">
    <text class="cls-5" transform="translate(343.35 76.87)"><tspan x="0" y="0">U</tspan></text>
  </g>
  <g id="ID000142">
    <text class="cls-5" transform="translate(343 89.47)"><tspan x="0" y="0">G</tspan></text>
  </g>
  <g id="ID000143">
    <text class="cls-5" transform="translate(343.35 102.06)"><tspan x="0" y="0">U</tspan></text>
  </g>
  <g id="ID000144">
    <text class="cls-5" transform="translate(343.35 114.67)"><tspan x="0" y="0">C</tspan></text>
  </g>
  <g id="ID000145">
    <line class="cls-14" x1="342.9" y1="136.26" x2="334.5" y2="136.26"/>
  </g>
  <g id="ID000146">
    <text class="cls-10" transform="translate(320.64 374.41)"><tspan x="0" y="0">70</tspan></text>
  </g>
  <g id="ID000147">
    <text class="cls-5" transform="translate(343.35 127.27)"><tspan x="0" y="0">C</tspan></text>
  </g>
  <g id="ID000148">
    <text class="cls-5" transform="translate(343.35 139.87)"><tspan x="0" y="0">U</tspan></text>
  </g>
  <g id="ID000149">
    <text class="cls-8" transform="translate(343.7 152.47)"><tspan x="0" y="0">A</tspan></text>
  </g>
  <g id="ID000150">
    <text class="cls-8" transform="translate(343.7 165.07)"><tspan x="0" y="0">A</tspan></text>
  </g>
  <g id="ID000151">
    <line class="cls-14" x1="367.94" y1="122.94" x2="352.82" y2="122.94"/>
  </g>
  <g id="ID000152">
    <line class="cls-14" x1="367.94" y1="110.33" x2="352.82" y2="110.33"/>
  </g>
  <g id="ID000153">
    <line class="cls-14" x1="367.94" y1="97.73" x2="352.82" y2="97.73"/>
  </g>
  <g id="ID000154">
    <line class="cls-14" x1="367.94" y1="85.13" x2="352.82" y2="85.13"/>
  </g>
  <g id="ID000155">
    <line class="cls-14" x1="367.94" y1="72.53" x2="352.82" y2="72.53"/>
  </g>
  <g id="ID000157">
    <polyline class="cls-15" points="412.87 255.25 375.03 255.25 375.03 226.89"/>
  </g>
  <g id="ID000158">
    <polygon class="cls-12" points="399.86 259.02 397.76 257.13 395.66 256.5 393.56 256.19 389.36 255.24 393.56 254.3 395.66 253.98 397.76 253.35 399.86 251.47 399.86 259.02"/>
  </g>
  <g id="ID000159">
    <line class="cls-15" x1="442.28" y1="259.65" x2="442.28" y2="247.68"/>
  </g>
  <g id="ID000160">
    <polygon class="cls-12" points="438.5 257.87 440.39 255.77 441.02 253.67 441.34 251.57 442.28 247.37 443.23 251.57 443.55 253.67 444.18 255.77 446.06 257.87 438.5 257.87"/>
  </g>
  <g id="ID000161">
    <polyline class="cls-15" points="440.34 31.67 401.33 32.35 403.23 32.77"/>
  </g>
  <g id="ID000162">
    <polygon class="cls-12" points="423.56 35.71 421.42 33.86 419.31 33.27 417.21 32.99 412.99 32.13 417.17 31.1 419.26 30.75 421.35 30.08 423.42 28.15 423.56 35.71"/>
  </g>
  <g id="ID000057-2">
    <text class="cls-5" transform="translate(412.88 183.81)"><tspan x="0" y="0">C</tspan></text>
  </g>
  <g id="ID000078-2">
    <line class="cls-14" x1="377.39" y1="161.48" x2="385.79" y2="161.48"/>
  </g>
  <g id="ID000087-2">
    <text class="cls-10" transform="translate(385.79 166.56)"><tspan x="0" y="0">40</tspan></text>
  </g>
  <g id="ID000115-2">
    <line class="cls-14" x1="385.26" y1="25.51" x2="378.15" y2="29.1"/>
  </g>
  <g class="cls-3">
    <text class="cls-9" transform="translate(389.61 210.14) rotate(90.23)"><tspan x="0" y="0">5H</tspan><tspan class="cls-17" x="15.34" y="0">T</tspan></text>
    <text class="cls-2" transform="translate(389.52 232.81) rotate(90.23)"><tspan x="0" y="0">P</tspan></text>
  </g>
  <text class="cls-11" transform="translate(16.76 29.25)"><tspan x="0" y="0">5GR-II RN</tspan><tspan class="cls-18" x="93.34" y="0">A </tspan><tspan x="110.03" y="0">Aptamer</tspan></text>
</svg>