<svg id="图层_1" data-name="图层 1" xmlns="http://www.w3.org/2000/svg" viewBox="0 0 400 400"><defs><style>.cls-1,.cls-2,.cls-3,.cls-4,.cls-5,.cls-6,.cls-7{isolation:isolate;}.cls-1,.cls-2,.cls-3,.cls-4,.cls-5,.cls-6{font-size:18.44px;}.cls-1,.cls-6{fill:teal;}.cls-1,.cls-10,.cls-11,.cls-2,.cls-3,.cls-4,.cls-5,.cls-6,.cls-7{font-family:ArialMT, Arial;}.cls-2,.cls-5{fill:#ff870a;}.cls-3,.cls-4{fill:#80db9e;}.cls-4,.cls-5,.cls-6{letter-spacing:-0.06em;}.cls-7{font-size:10px;}.cls-8{fill:none;}.cls-8,.cls-9{stroke:#000;stroke-miterlimit:10;stroke-width:0.07px;}.cls-10{font-size:20px;}.cls-11{font-size:14px;}.cls-12{letter-spacing:-0.04em;}</style></defs><text class="cls-1" transform="translate(225.1 313.34)">C</text><text class="cls-1" transform="translate(232.8 296.6)">C</text><text class="cls-1" transform="translate(240.88 278.83)">C</text><text class="cls-1" transform="translate(250.8 260.69)">G</text><text class="cls-1" transform="translate(240.04 244.16)">G</text><text class="cls-1" transform="translate(224.42 237.22)">U</text><text class="cls-1" transform="translate(204.55 231.19)">G</text><text class="cls-1" transform="translate(185.96 223.79)">G</text><text class="cls-2" transform="translate(168.01 216.1)">U</text><text class="cls-2" transform="translate(150.49 209.24)">U</text><text class="cls-2" transform="translate(134.01 207.3)">G</text><text class="cls-2" transform="translate(126.9 192.65)">C</text><text class="cls-2" transform="translate(114.76 178.23)">U</text><text class="cls-3" transform="translate(101.01 163.23)">G</text><text class="cls-3" transform="translate(87.65 150.13)">U</text><text class="cls-4" transform="translate(72.75 149.08)">A</text><text class="cls-4" transform="translate(59.5 137.16)">A</text><text class="cls-3" transform="translate(55.36 122.14)">U</text><text class="cls-3" transform="translate(41.22 110.36)">U</text><text class="cls-4" transform="translate(26.45 104.43)">A</text><text class="cls-4" transform="translate(20.22 87.71)">A</text><text class="cls-3" transform="translate(31.16 73.87)">G</text><text class="cls-4" transform="translate(49.08 76.58)">A</text><text class="cls-4" transform="translate(59.72 90.66)">A</text><text class="cls-4" transform="translate(73.14 102.76)">A</text><text class="cls-3" transform="translate(88.17 104.98)">G</text><text class="cls-4" transform="translate(101.68 116.83)">A</text><text class="cls-4" transform="translate(105.97 132.34)">A</text><text class="cls-3" transform="translate(119.82 146.35)">C</text><text class="cls-2" transform="translate(131.73 160.9)">G</text><text class="cls-2" transform="translate(144.46 175.93)">G</text><text class="cls-5" transform="translate(160.82 186.72)">A</text><text class="cls-5" transform="translate(178.92 194.32)">A</text><text class="cls-1" transform="translate(196.92 202.04)">C</text><text class="cls-1" transform="translate(214.71 209.15)">C</text><text class="cls-6" transform="translate(228.34 214.7)">A</text><text class="cls-1" transform="translate(242.06 218.59)">U</text><text class="cls-1" transform="translate(247.99 202.34)">G</text><text class="cls-1" transform="translate(254.53 185.57)">G</text><text class="cls-1" transform="translate(265.58 171.5)">U</text><text class="cls-1" transform="translate(280.34 161.17)">C</text><text class="cls-6" transform="translate(296.95 155.24)">A</text><text class="cls-6" transform="translate(314.61 154.24)">A</text><text class="cls-1" transform="translate(331.86 158.11)">C</text><text class="cls-1" transform="translate(347.17 166.42)">U</text><text class="cls-6" transform="translate(358.86 179.94)">A</text><text class="cls-1" transform="translate(366.77 195.4)">U</text><text class="cls-6" transform="translate(372.29 212.34)">A</text><text class="cls-1" transform="translate(370.45 230.05)">U</text><text class="cls-1" transform="translate(364.38 246.59)">U</text><text class="cls-1" transform="translate(353.92 260.95)">U</text><text class="cls-6" transform="translate(340.08 271.77)">A</text><text class="cls-1" transform="translate(323.16 278.17)">U</text><text class="cls-1" transform="translate(305.57 279.6)">C</text><text class="cls-6" transform="translate(287.83 275.81)">A</text><text class="cls-1" transform="translate(270.06 274.56)">C</text><text class="cls-1" transform="translate(260.89 289.52)">G</text><text class="cls-1" transform="translate(253.39 306.57)">G</text><text class="cls-1" transform="translate(245.95 323.9)">G</text><text class="cls-1" transform="translate(243.49 342.58)">U</text><text class="cls-7" transform="translate(145.44 217.84)">10</text><text class="cls-7" transform="translate(17.07 112.54)">20</text><text class="cls-7" transform="translate(144.92 150.13)">30</text><text class="cls-7" transform="translate(256.88 157.11)">40</text><text class="cls-7" transform="translate(375.2 252.17)">50</text><text class="cls-7" transform="translate(266.58 342.58)">60</text><g id="ID000011"><line class="cls-8" x1="53.41" y1="97.51" x2="59.7" y2="91.22"/></g><g id="ID000011-2" data-name="ID000011"><line class="cls-8" x1="67.18" y1="108.91" x2="73.47" y2="102.62"/></g><g id="ID000011-3" data-name="ID000011"><line class="cls-8" x1="99.65" y1="138.63" x2="105.94" y2="132.34"/></g><g id="ID000011-4" data-name="ID000011"><line class="cls-8" x1="114.93" y1="151.98" x2="121.68" y2="146.18"/></g><g id="ID000011-5" data-name="ID000011"><line class="cls-8" x1="139.48" y1="180.9" x2="146.23" y2="175.1"/></g><g id="ID000011-6" data-name="ID000011"><line class="cls-8" x1="158.35" y1="195.23" x2="164.76" y2="185.47"/></g><g id="ID000011-7" data-name="ID000011"><line class="cls-8" x1="175.95" y1="202.15" x2="182.97" y2="194.18"/></g><g id="ID000011-8" data-name="ID000011"><line class="cls-8" x1="196.72" y1="210.62" x2="201.1" y2="202.86"/></g><g id="ID000011-9" data-name="ID000011"><line class="cls-8" x1="215.07" y1="217.87" x2="218.19" y2="209.52"/></g><g id="ID000011-10" data-name="ID000011"><line class="cls-8" x1="231.37" y1="225.79" x2="234.65" y2="213.21"/></g><g id="ID000011-11" data-name="ID000011"><line class="cls-8" x1="263.58" y1="259.65" x2="270.81" y2="265.37"/></g><g id="ID000011-12" data-name="ID000011"><line class="cls-8" x1="252.84" y1="276.61" x2="260.92" y2="281.05"/></g><g id="ID000011-13" data-name="ID000011"><line class="cls-8" x1="246.38" y1="292.16" x2="254.46" y2="296.6"/></g><g id="ID000011-14" data-name="ID000011"><line class="cls-8" x1="238.3" y1="310.31" x2="246.38" y2="314.75"/></g><g id="ID000011-15" data-name="ID000011"><line class="cls-8" x1="256.41" y1="336.77" x2="265.33" y2="339.1"/></g><g id="ID000021"><polygon class="cls-9" points="130.29 160.04 130.14 160.04 129.99 160.04 129.83 160.08 129.68 160.12 129.53 160.16 129.38 160.19 129.23 160.27 129.08 160.34 128.96 160.42 128.81 160.5 128.7 160.61 128.58 160.72 128.47 160.84 128.36 160.95 128.28 161.06 128.21 161.18 128.13 161.33 128.05 161.48 127.98 161.59 127.94 161.75 127.9 161.9 127.86 162.05 127.83 162.24 127.83 162.39 127.83 162.54 127.83 162.69 127.86 162.84 127.86 163 127.9 163.15 127.94 163.3 128.01 163.45 128.09 163.6 128.17 163.72 128.24 163.87 128.32 163.98 128.43 164.13 128.55 164.25 128.66 164.32 128.77 164.44 128.89 164.51 129.04 164.63 129.15 164.7 129.3 164.74 129.46 164.82 129.61 164.85 129.76 164.89 129.91 164.93 130.06 164.97 130.21 164.97 130.37 164.97 130.52 164.97 130.67 164.93 130.82 164.89 130.97 164.85 131.12 164.82 131.28 164.74 131.43 164.7 131.58 164.63 131.69 164.51 131.81 164.44 131.96 164.32 132.07 164.25 132.15 164.13 132.26 163.98 132.34 163.87 132.45 163.72 132.49 163.6 132.56 163.45 132.64 163.3 132.68 163.15 132.72 163 132.75 162.84 132.75 162.69 132.75 162.54 132.75 162.39 132.75 162.24 132.72 162.05 132.68 161.9 132.64 161.75 132.6 161.59 132.53 161.48 132.49 161.33 132.41 161.18 132.3 161.06 132.22 160.95 132.11 160.84 132 160.72 131.88 160.61 131.77 160.5 131.62 160.42 131.5 160.34 131.35 160.27 131.2 160.19 131.05 160.16 130.9 160.12 130.74 160.08 130.59 160.04 130.44 160.04 130.29 160.04"/></g><g id="ID000021-2" data-name="ID000021"><polygon class="cls-9" points="247.37 222.38 247.22 222.38 247.07 222.38 246.91 222.42 246.76 222.45 246.61 222.49 246.46 222.53 246.31 222.6 246.16 222.68 246.04 222.76 245.89 222.83 245.78 222.95 245.66 223.06 245.55 223.17 245.44 223.29 245.36 223.4 245.28 223.51 245.21 223.67 245.13 223.82 245.06 223.93 245.02 224.08 244.98 224.24 244.94 224.39 244.91 224.58 244.91 224.73 244.91 224.88 244.91 225.03 244.94 225.18 244.94 225.33 244.98 225.49 245.02 225.64 245.1 225.79 245.17 225.94 245.25 226.05 245.32 226.21 245.4 226.32 245.51 226.47 245.63 226.58 245.74 226.66 245.85 226.77 245.97 226.85 246.12 226.96 246.23 227.04 246.38 227.08 246.54 227.15 246.69 227.19 246.84 227.23 246.99 227.27 247.14 227.31 247.29 227.31 247.44 227.31 247.6 227.31 247.75 227.27 247.9 227.23 248.05 227.19 248.2 227.15 248.35 227.08 248.51 227.04 248.66 226.96 248.77 226.85 248.89 226.77 249.04 226.66 249.15 226.58 249.23 226.47 249.34 226.32 249.42 226.21 249.53 226.05 249.57 225.94 249.64 225.79 249.72 225.64 249.76 225.49 249.79 225.33 249.83 225.18 249.83 225.03 249.83 224.88 249.83 224.73 249.83 224.58 249.79 224.39 249.76 224.24 249.72 224.08 249.68 223.93 249.61 223.82 249.57 223.67 249.49 223.51 249.38 223.4 249.3 223.29 249.19 223.17 249.07 223.06 248.96 222.95 248.85 222.83 248.7 222.76 248.58 222.68 248.43 222.6 248.28 222.53 248.13 222.49 247.98 222.45 247.82 222.42 247.67 222.38 247.52 222.38 247.37 222.38"/></g><text class="cls-10" transform="translate(191.26 112.54)">77 aptamer</text><text class="cls-11" transform="translate(214.07 314.75)">5<tspan class="cls-12" x="7.79" y="0">’</tspan></text><text class="cls-11" transform="translate(233.72 345.55)">3<tspan class="cls-12" x="7.79" y="0">’</tspan></text></svg>