<?xml version="1.0" encoding="utf-8"?>
<!-- Generator: Adobe Illustrator 25.2.0, SVG Export Plug-In . SVG Version: 6.00 Build 0)  -->
<svg version="1.1" id="图层_1" xmlns="http://www.w3.org/2000/svg" xmlns:xlink="http://www.w3.org/1999/xlink" x="0px" y="0px"
	 viewBox="0 0 800 400" style="enable-background:new 0 0 800 400;" xml:space="preserve">
<style type="text/css">
	.st0{font-family:'MicrosoftYaHei';}
	.st1{font-size:20px;}
	.st2{fill:#FF9933;}
	.st3{font-size:25.4837px;}
	.st4{fill:none;stroke:#000000;stroke-width:0.25;stroke-miterlimit:10;}
	.st5{fill:#3399FF;}
	.st6{fill:#99CCFF;}
	.st7{fill:#33CC33;}
	.st8{font-family:'ArialMT';}
</style>
<text transform="matrix(1 0 0 1 18.5236 29.5001)" class="st0 st1">A30 aptamer</text>
<text transform="matrix(1 0 0 1 87.0254 250.3264)" class="st2 st0 st3">G</text>
<line class="st4" x1="505.6" y1="89.5" x2="539.7" y2="89.5"/>
<text transform="matrix(1 0 0 1 591.2803 77.0159)" class="st5 st0 st3">G</text>
<text transform="matrix(1 0 0 1 534.9609 77.0159)" class="st5 st0 st3">G</text>
<text transform="matrix(1 0 0 1 522.6523 243.0422)" class="st5 st0 st3">G</text>
<text transform="matrix(1 0 0 1 110.4624 256.1409)" class="st2 st0 st3">G</text>
<text transform="matrix(1 0 0 1 106.5869 322.0159)" class="st2 st0 st3">G</text>
<text transform="matrix(1 0 0 1 531.1133 334.3762)" class="st6 st0 st3">G</text>
<text transform="matrix(1 0 0 1 549.4492 326.4885)" class="st6 st0 st3">G</text>
<text transform="matrix(1 0 0 1 566.4971 315.0334)" class="st6 st0 st3">G</text>
<text transform="matrix(1 0 0 1 455.7969 243.0422)" class="st5 st0 st3">A</text>
<text transform="matrix(1 0 0 1 280.5254 236.5432)" class="st7 st0 st3">A</text>
<text transform="matrix(1 0 0 1 196.8438 240.0354)" class="st2 st0 st3">A</text>
<text transform="matrix(1 0 0 1 62.0957 295.7336)" class="st2 st0 st3">A</text>
<text transform="matrix(1 0 0 1 190.5752 330.2219)" class="st2 st0 st3">A</text>
<text transform="matrix(1 0 0 1 207.4961 330.2219)" class="st2 st0 st3">A</text>
<text transform="matrix(1 0 0 1 281.9326 326.4885)" class="st7 st0 st3">A</text>
<text transform="matrix(1 0 0 1 499.9473 347.551)" class="st6 st0 st3">A</text>
<text transform="matrix(1 0 0 1 517.5684 344.1233)" class="st6 st0 st3">A</text>
<text transform="matrix(1 0 0 1 562.4199 43.4031)" class="st5 st0 st3">U</text>
<text transform="matrix(1 0 0 1 542.6064 56.1321)" class="st5 st0 st3">U</text>
<text transform="matrix(1 0 0 1 505.8848 242.7239)" class="st5 st0 st3">U</text>
<text transform="matrix(1 0 0 1 472.1572 243.0422)" class="st5 st0 st3">U</text>
<text transform="matrix(1 0 0 1 62.3818 266.3176)" class="st2 st0 st3">U</text>
<text transform="matrix(1 0 0 1 81.0312 322.0159)" class="st2 st0 st3">U</text>
<text transform="matrix(1 0 0 1 154.936 335.3059)" class="st2 st0 st3">U</text>
<text transform="matrix(1 0 0 1 466.3975 347.551)" class="st6 st0 st3">U</text>
<text transform="matrix(1 0 0 1 483.166 351.6409)" class="st6 st0 st3">U</text>
<text transform="matrix(1 0 0 1 607.6279 242.7239)" class="st5 st0 st3">C</text>
<text transform="matrix(1 0 0 1 583.2656 57.4192)" class="st5 st0 st3">C</text>
<text transform="matrix(1 0 0 1 523.9014 197.9104)" class="st5 st0 st3">C</text>
<text transform="matrix(1 0 0 1 490.1992 242.7239)" class="st5 st0 st3">C</text>
<text transform="matrix(1 0 0 1 439.7285 242.7239)" class="st5 st0 st3">C</text>
<text transform="matrix(1 0 0 1 156.2993 232.0081)" class="st2 st0 st3">C</text>
<text transform="matrix(1 0 0 1 437.8301 322.0159)" class="st6 st0 st3">C</text>
<text transform="matrix(1 0 0 1 450.7129 335.3059)" class="st6 st0 st3">C</text>
<text transform="matrix(1 0 0 1 589.1396 120.7844)" class="st5 st0 st3">G</text>
<text transform="matrix(1 0 0 1 587.9043 98.7664)" class="st5 st0 st3">G</text>
<text transform="matrix(1 0 0 1 539.7139 163.4822)" class="st5 st0 st3">G</text>
<text transform="matrix(1 0 0 1 539.7139 184.3533)" class="st5 st0 st3">G</text>
<text transform="matrix(1 0 0 1 539.7139 210.321)" class="st5 st0 st3">G</text>
<text transform="matrix(1 0 0 1 539.7139 232.0081)" class="st5 st0 st3">G</text>
<text transform="matrix(1 0 0 1 407.1738 257.0833)" class="st7 st0 st3">G</text>
<text transform="matrix(1 0 0 1 307.7744 257.0833)" class="st7 st0 st3">G</text>
<text transform="matrix(1 0 0 1 290.7129 257.0842)" class="st7 st0 st3">G</text>
<text transform="matrix(1 0 0 1 248.2061 257.0833)" class="st7 st0 st3">G</text>
<text transform="matrix(1 0 0 1 128.6494 253.9749)" class="st2 st0 st3">G</text>
<text transform="matrix(1 0 0 1 143.9907 313.7209)" class="st2 st0 st3">G</text>
<text transform="matrix(1 0 0 1 179.7827 313.7336)" class="st2 st0 st3">G</text>
<text transform="matrix(1 0 0 1 232.3428 312.4602)" class="st7 st0 st3">G</text>
<text transform="matrix(1 0 0 1 264.8726 312.4602)" class="st7 st0 st3">G</text>
<text transform="matrix(1 0 0 1 322.8477 312.4465)" class="st7 st0 st3">G</text>
<text transform="matrix(1 0 0 1 356.9072 312.4465)" class="st7 st0 st3">G</text>
<text transform="matrix(1 0 0 1 390.0615 313.0842)" class="st7 st0 st3">G</text>
<text transform="matrix(1 0 0 1 422.0303 312.4465)" class="st7 st0 st3">G</text>
<text transform="matrix(1 0 0 1 591.9434 210.6399)" class="st5 st0 st3">C</text>
<text transform="matrix(1 0 0 1 590.707 184.3533)" class="st5 st0 st3">C</text>
<text transform="matrix(1 0 0 1 539.5742 98.4348)" class="st5 st0 st3">C</text>
<text transform="matrix(1 0 0 1 539.5742 120.7844)" class="st5 st0 st3">C</text>
<text transform="matrix(1 0 0 1 357.5439 257.0833)" class="st7 st0 st3">C</text>
<text transform="matrix(1 0 0 1 324.0967 257.0833)" class="st7 st0 st3">C</text>
<text transform="matrix(1 0 0 1 264.8472 257.0833)" class="st7 st0 st3">C</text>
<text transform="matrix(1 0 0 1 232.5215 257.0842)" class="st7 st0 st3">C</text>
<text transform="matrix(1 0 0 1 180.0117 254.2932)" class="st2 st0 st3">C</text>
<text transform="matrix(1 0 0 1 127.4136 314.052)" class="st2 st0 st3">C</text>
<text transform="matrix(1 0 0 1 249.4678 312.4602)" class="st7 st0 st3">C</text>
<text transform="matrix(1 0 0 1 293.7456 312.4338)" class="st7 st0 st3">C</text>
<text transform="matrix(1 0 0 1 307.9146 312.7649)" class="st7 st0 st3">C</text>
<text transform="matrix(1 0 0 1 407.1992 312.7649)" class="st7 st0 st3">C</text>
<text transform="matrix(1 0 0 1 591.9434 233.2825)" class="st5 st0 st3">U</text>
<text transform="matrix(1 0 0 1 590.3887 163.4822)" class="st5 st0 st3">U</text>
<text transform="matrix(1 0 0 1 539.7139 142.6106)" class="st5 st0 st3">U</text>
<text transform="matrix(1 0 0 1 422.9609 257.0833)" class="st7 st0 st3">U</text>
<text transform="matrix(1 0 0 1 390.0361 257.0833)" class="st7 st0 st3">U</text>
<text transform="matrix(1 0 0 1 215.7529 257.0842)" class="st7 st0 st3">U</text>
<text transform="matrix(1 0 0 1 146.5137 254.2932)" class="st2 st0 st3">U</text>
<text transform="matrix(1 0 0 1 163.2437 315.0081)" class="st2 st0 st3">U</text>
<text transform="matrix(1 0 0 1 340.0117 312.4602)" class="st7 st0 st3">U</text>
<text transform="matrix(1 0 0 1 374.0322 313.4153)" class="st7 st0 st3">U</text>
<text transform="matrix(1 0 0 1 590.4141 142.6106)" class="st5 st0 st3">A</text>
<text transform="matrix(1 0 0 1 374.4902 257.0842)" class="st7 st0 st3">A</text>
<text transform="matrix(1 0 0 1 339.9092 257.0833)" class="st7 st0 st3">A</text>
<text transform="matrix(1 0 0 1 164.2119 253.9749)" class="st2 st0 st3">A</text>
<text transform="matrix(1 0 0 1 217.167 312.4602)" class="st7 st0 st3">A</text>
<line class="st4" x1="139.3" y1="291.2" x2="139.3" y2="257.1"/>
<line class="st4" x1="156.3" y1="291.2" x2="156.3" y2="257.1"/>
<line class="st4" x1="172" y1="291.2" x2="172" y2="257.1"/>
<line class="st4" x1="188.5" y1="291.2" x2="188.5" y2="257.1"/>
<line class="st4" x1="225.1" y1="291.2" x2="225.1" y2="257.1"/>
<line class="st4" x1="241.4" y1="291.2" x2="241.4" y2="257.1"/>
<line class="st4" x1="258.3" y1="291.2" x2="258.3" y2="257.1"/>
<line class="st4" x1="275.7" y1="291.2" x2="275.7" y2="257.1"/>
<line class="st4" x1="302.3" y1="291.2" x2="302.3" y2="257.1"/>
<line class="st4" x1="318.1" y1="291.2" x2="318.1" y2="257.1"/>
<line class="st4" x1="333.8" y1="291.2" x2="333.8" y2="257.1"/>
<line class="st4" x1="349.5" y1="291.2" x2="349.5" y2="257.1"/>
<line class="st4" x1="367.8" y1="291.2" x2="367.8" y2="257.1"/>
<line class="st4" x1="382.3" y1="291.2" x2="382.3" y2="257.1"/>
<line class="st4" x1="400" y1="291.2" x2="400" y2="257.1"/>
<line class="st4" x1="417.6" y1="291.2" x2="417.6" y2="257.1"/>
<line class="st4" x1="432.8" y1="291.2" x2="432.8" y2="257.1"/>
<line class="st4" x1="557.8" y1="220.8" x2="592" y2="220.8"/>
<line class="st4" x1="557.7" y1="199.9" x2="591.8" y2="199.9"/>
<line class="st4" x1="557.7" y1="175.3" x2="591.8" y2="175.3"/>
<line class="st4" x1="557.7" y1="155.8" x2="591.8" y2="155.8"/>
<line class="st4" x1="557.7" y1="133.7" x2="591.8" y2="133.7"/>
<line class="st4" x1="557.7" y1="111.6" x2="591.8" y2="111.6"/>
<line class="st4" x1="556.5" y1="89.5" x2="590.7" y2="89.5"/>
<line class="st4" x1="432.8" y1="347.3" x2="432.8" y2="313.1"/>
<text transform="matrix(1 0 0 1 474.4121 98.4348)" class="st0 st3">70</text>
<text transform="matrix(1 0 0 1 318.0566 203.6829)" class="st0 st3">50</text>
<text transform="matrix(1 0 0 1 417.6475 368.7532)" class="st0 st3">10</text>
<line class="st4" x1="333.8" y1="237.8" x2="333.8" y2="203.7"/>
<text transform="matrix(1 0 0 1 584.5098 335.6292)" class="st8 st1">5’</text>
<text transform="matrix(1 0 0 1 636.8374 242.7236)" class="st8 st1">3’</text>
</svg>
