<svg id="图层_1" data-name="图层 1" xmlns="http://www.w3.org/2000/svg" viewBox="0 0 400 400"><defs><style>.cls-1,.cls-10,.cls-11,.cls-12,.cls-13,.cls-14,.cls-2,.cls-3,.cls-4,.cls-5,.cls-6,.cls-7,.cls-8,.cls-9{isolation:isolate;}.cls-1,.cls-10,.cls-2,.cls-3,.cls-4,.cls-5,.cls-6,.cls-7,.cls-8,.cls-9{font-size:21px;}.cls-1,.cls-13,.cls-2{fill:#80db9e;}.cls-1,.cls-10,.cls-17,.cls-18,.cls-2,.cls-20,.cls-3,.cls-4,.cls-5,.cls-6,.cls-7,.cls-8,.cls-9{font-family:ArialMT, Arial;}.cls-2,.cls-8{letter-spacing:-0.06em;}.cls-11,.cls-3,.cls-6,.cls-7,.cls-8{fill:#ff870a;}.cls-3{letter-spacing:-0.06em;}.cls-10,.cls-12,.cls-4{fill:#32cd32;}.cls-14,.cls-5,.cls-9{fill:#228b22;}.cls-10,.cls-6,.cls-9{letter-spacing:-0.06em;}.cls-11,.cls-12,.cls-13,.cls-14{stroke:#020202;opacity:0.55;}.cls-11,.cls-12,.cls-13,.cls-14,.cls-16{stroke-miterlimit:10;}.cls-15{opacity:0.75;}.cls-16{stroke:#000;stroke-width:0.07px;}.cls-17{font-size:20px;}.cls-18{font-size:13px;}.cls-19{fill:#020202;}.cls-20{font-size:10px;}.cls-21{letter-spacing:-0.04em;}</style></defs><text class="cls-1" transform="translate(232.26 275.18)">G</text><text class="cls-1" transform="translate(240.7 291.73)">G</text><text class="cls-1" transform="translate(263.84 292.03)">U</text><text class="cls-2" transform="translate(278.56 275.95)">A</text><text class="cls-3" transform="translate(215.96 267.68)">A</text><text class="cls-4" transform="translate(195.82 264.66)">C</text><text class="cls-4" transform="translate(180.48 250.86)">G</text><text class="cls-5" transform="translate(125.74 184.39)">G</text><text class="cls-6" transform="translate(173.73 229.55)">A</text><text class="cls-7" transform="translate(164.97 212.36)">U</text><text class="cls-6" transform="translate(159.51 193.84)">A</text><text class="cls-5" transform="translate(157.55 175.61)">C</text><text class="cls-5" transform="translate(159.17 154.34)">G</text><text class="cls-7" transform="translate(164.31 136.68)">C</text><text class="cls-6" transform="translate(172.78 119.27)">A</text><text class="cls-6" transform="translate(184.21 103.74)">A</text><text class="cls-7" transform="translate(198.38 90.57)">G</text><text class="cls-7" transform="translate(214.74 80.24)">G</text><text class="cls-8" transform="translate(232.74 73.12)">A</text><text class="cls-7" transform="translate(251.71 69.35)">U</text><text class="cls-3" transform="translate(271.07 69.21)">A</text><text class="cls-3" transform="translate(290.11 72.7)">A</text><text class="cls-7" transform="translate(308.2 79.59)">U</text><text class="cls-8" transform="translate(324.77 89.68)">A</text><text class="cls-7" transform="translate(339.1 102.67)">U</text><text class="cls-7" transform="translate(350.88 117.98)">C</text><text class="cls-7" transform="translate(359.6 135.23)">U</text><text class="cls-3" transform="translate(365.01 153.77)">A</text><text class="cls-7" transform="translate(366.91 173)">G</text><text class="cls-3" transform="translate(365.25 192.24)">A</text><text class="cls-3" transform="translate(360.07 210.83)">A</text><text class="cls-7" transform="translate(351.56 228.17)">C</text><text class="cls-7" transform="translate(340.01 243.6)">G</text><text class="cls-8" transform="translate(327.12 256.32)">A</text><text class="cls-7" transform="translate(311.11 266.62)">C</text><text class="cls-7" transform="translate(294.53 274.08)">C</text><text class="cls-5" transform="translate(140.72 174.11)">U</text><text class="cls-5" transform="translate(112.69 172.99)">C</text><text class="cls-5" transform="translate(92.86 172.13)">U</text><text class="cls-5" transform="translate(71.12 171.33)">G</text><text class="cls-5" transform="translate(50.3 170.73)">C</text><text class="cls-5" transform="translate(30.91 180.76)">U</text><text class="cls-5" transform="translate(13.18 169.58)">U</text><text class="cls-5" transform="translate(14.25 148.62)">C</text><text class="cls-5" transform="translate(32.2 138.62)">G</text><text class="cls-5" transform="translate(50.57 149.87)">G</text><text class="cls-5" transform="translate(72.95 150.75)">C</text><text class="cls-9" transform="translate(94.93 151.47)">A</text><text class="cls-5" transform="translate(119.17 151.8)">G</text><text class="cls-9" transform="translate(142.74 153.46)">A</text><text class="cls-4" transform="translate(183.87 279.45)">C</text><text class="cls-10" transform="translate(170.12 295.39)">A</text><text class="cls-4" transform="translate(156.64 311.54)">U</text><text class="cls-4" transform="translate(143.89 327.73)">C</text><text class="cls-4" transform="translate(140.12 347.88)">C</text><text class="cls-10" transform="translate(121.4 354.82)">A</text><text class="cls-4" transform="translate(106.32 342.18)">G</text><text class="cls-4" transform="translate(108.98 322.5)">C</text><text class="cls-4" transform="translate(128.12 315.12)">G</text><text class="cls-10" transform="translate(141.97 299.04)">A</text><text class="cls-4" transform="translate(155.28 282.82)">U</text><text class="cls-4" transform="translate(168.19 266.75)">G</text><text class="cls-1" transform="translate(241.04 311.82)">G</text><text class="cls-1" transform="translate(264.18 312.12)">C</text><text class="cls-1" transform="translate(241.04 331.91)">G</text><text class="cls-1" transform="translate(264.18 332.21)">C</text><text class="cls-1" transform="translate(241.04 352)">C</text><text class="cls-1" transform="translate(264.18 352.3)">G</text><line class="cls-11" x1="166.19" y1="160.33" x2="166.9" y2="154.59"/><line class="cls-11" x1="148.64" y1="159.2" x2="149.35" y2="153.46"/><line class="cls-12" x1="198.03" y1="252.45" x2="194.74" y2="249.37"/><line class="cls-12" x1="186.06" y1="267.33" x2="183.2" y2="264.66"/><line class="cls-13" x1="265.23" y1="304.67" x2="255.94" y2="304.67"/><line class="cls-13" x1="265.35" y1="324.77" x2="256.06" y2="324.77"/><line class="cls-13" x1="265.23" y1="345.62" x2="255.94" y2="345.62"/><line class="cls-12" x1="173.73" y1="285.7" x2="168.25" y2="280.36"/><line class="cls-12" x1="158.62" y1="301.53" x2="154.79" y2="297.89"/><line class="cls-12" x1="145.66" y1="316.62" x2="142.21" y2="313.4"/><line class="cls-14" x1="122.36" y1="157.86" x2="124.44" y2="151.47"/><line class="cls-14" x1="100.01" y1="157.14" x2="102.08" y2="150.75"/><line class="cls-14" x1="79.32" y1="156.04" x2="80.96" y2="151"/><line class="cls-14" x1="57.37" y1="155.42" x2="59.08" y2="150.12"/><g id="ID000021-2-3" class="cls-15"><polygon class="cls-16" points="260.41 283.05 260.31 283.05 260.22 283.05 260.11 283.07 260.03 283.1 259.93 283.12 259.84 283.14 259.73 283.19 259.64 283.24 259.56 283.29 259.47 283.33 259.4 283.41 259.33 283.48 259.26 283.55 259.18 283.62 259.14 283.69 259.09 283.76 259.04 283.87 258.99 283.95 258.95 284.02 258.92 284.12 258.9 284.21 258.88 284.32 258.85 284.43 258.85 284.52 258.85 284.63 258.85 284.72 258.88 284.82 258.88 284.91 258.9 285.01 258.92 285.11 258.97 285.2 259.02 285.3 259.07 285.37 259.11 285.46 259.16 285.53 259.23 285.63 259.3 285.7 259.39 285.75 259.45 285.82 259.52 285.87 259.62 285.94 259.69 285.98 259.78 286.01 259.87 286.06 259.97 286.08 260.07 286.1 260.17 286.13 260.26 286.15 260.35 286.15 260.45 286.15 260.55 286.15 260.64 286.13 260.74 286.1 260.83 286.08 260.93 286.06 261.02 286.01 261.12 285.98 261.21 285.94 261.29 285.87 261.36 285.82 261.45 285.75 261.52 285.7 261.58 285.63 261.65 285.53 261.69 285.46 261.76 285.37 261.79 285.3 261.83 285.2 261.89 285.11 261.9 285.01 261.93 284.91 261.96 284.82 261.96 284.72 261.96 284.63 261.96 284.52 261.96 284.43 261.93 284.32 261.9 284.21 261.89 284.12 261.86 284.02 261.82 283.95 261.79 283.87 261.74 283.76 261.67 283.69 261.62 283.62 261.55 283.55 261.48 283.48 261.4 283.41 261.33 283.33 261.24 283.29 261.17 283.24 261.07 283.19 260.98 283.14 260.88 283.12 260.79 283.1 260.69 283.07 260.6 283.05 260.49 283.05 260.41 283.05"/></g><text class="cls-17" transform="translate(61.77 44.92)">Okra aptamer</text><text class="cls-18" transform="translate(168.25 316.92)">10</text><text class="cls-18" transform="translate(153.19 244.73)">20</text><text class="cls-18" transform="translate(51.68 181.39)">30</text><text class="cls-18" transform="translate(173.87 158.07)">40</text><text class="cls-18" transform="translate(314.16 63.56)">50</text><text class="cls-18" transform="translate(355.03 249.37)">60</text><line class="cls-19" x1="167.74" y1="241.29" x2="180.6" y2="243.42"/><text class="cls-20" transform="translate(239.19 360.36)">5<tspan class="cls-21" x="5.56" y="0">’</tspan></text><text class="cls-20" transform="translate(277.3 360.36)">3<tspan class="cls-21" x="5.56" y="0">’</tspan></text></svg>