<?xml version="1.0" encoding="utf-8"?>
<!-- Generator: Adobe Illustrator 25.2.0, SVG Export Plug-In . SVG Version: 6.00 Build 0)  -->
<svg version="1.1" id="_图层_1" xmlns="http://www.w3.org/2000/svg" xmlns:xlink="http://www.w3.org/1999/xlink" x="0px" y="0px"
	 viewBox="0 0 800 400" style="enable-background:new 0 0 800 400;" xml:space="preserve">
<style type="text/css">
	.st0{fill:#FFC0CB;}
	.st1{fill:#09FEFE;}
	.st2{fill:none;stroke:#000000;stroke-width:1.33;stroke-linejoin:round;}
	.st3{fill:#32CD32;}
	.st4{fill:none;stroke:#000000;stroke-width:0.5;stroke-linejoin:round;}
	.st5{fill:#C2C2FF;}
	.st6{fill:#FF00FF;}
	.st7{fill:#FF870A;}
	.st8{font-family:'ArialMT';}
	.st9{font-size:21px;}
	.st10{letter-spacing:-2;}
	.st11{font-size:12px;}
</style>
<path class="st0" d="M416.7,369.3v-1h3.9v3.2c-0.6,0.4-1.2,0.8-1.8,1c-0.6,0.2-1.3,0.3-1.9,0.3c-0.9,0-1.7-0.2-2.4-0.5
	c-0.7-0.4-1.3-0.9-1.7-1.6c-0.4-0.7-0.6-1.5-0.6-2.3s0.2-1.6,0.6-2.3s0.9-1.3,1.6-1.6c0.7-0.4,1.5-0.5,2.4-0.5
	c0.7,0,1.2,0.1,1.8,0.3c0.5,0.2,1,0.5,1.2,0.8s0.5,0.8,0.7,1.4l-1.1,0.3c-0.1-0.4-0.3-0.8-0.5-1s-0.5-0.5-0.9-0.6s-0.8-0.2-1.3-0.2
	c-0.5,0-1,0.1-1.4,0.2s-0.7,0.4-1,0.6c-0.2,0.3-0.4,0.5-0.6,0.9c-0.2,0.5-0.3,1.1-0.3,1.7c0,0.8,0.1,1.4,0.4,1.9s0.7,0.9,1.2,1.1
	s1.1,0.4,1.7,0.4c0.5,0,1-0.1,1.5-0.3s0.9-0.4,1.1-0.6v-1.6L416.7,369.3L416.7,369.3z"/>
<path class="st0" d="M416.7,360.4v-1h3.9v3.2c-0.6,0.4-1.2,0.8-1.8,1c-0.6,0.2-1.3,0.3-1.9,0.3c-0.9,0-1.7-0.2-2.4-0.5
	c-0.7-0.4-1.3-0.9-1.7-1.6c-0.4-0.7-0.6-1.5-0.6-2.3s0.2-1.6,0.6-2.3s0.9-1.3,1.6-1.6c0.7-0.4,1.5-0.5,2.4-0.5
	c0.7,0,1.2,0.1,1.8,0.3c0.5,0.2,1,0.5,1.2,0.8s0.5,0.8,0.7,1.4l-1.1,0.3c-0.1-0.4-0.3-0.8-0.5-1s-0.5-0.5-0.9-0.6s-0.8-0.2-1.3-0.2
	c-0.5,0-1,0.1-1.4,0.2s-0.7,0.4-1,0.6c-0.2,0.3-0.4,0.5-0.6,0.9c-0.2,0.5-0.3,1.1-0.3,1.7c0,0.8,0.1,1.4,0.4,1.9s0.7,0.9,1.2,1.1
	s1.1,0.4,1.7,0.4c0.5,0,1-0.1,1.5-0.3s0.9-0.4,1.1-0.6v-1.6L416.7,360.4L416.7,360.4z"/>
<path class="st0" d="M416.7,351.5v-1h3.9v3.2c-0.6,0.4-1.2,0.8-1.8,1c-0.6,0.2-1.3,0.3-1.9,0.3c-0.9,0-1.7-0.2-2.4-0.5
	c-0.7-0.4-1.3-0.9-1.7-1.6c-0.4-0.7-0.6-1.5-0.6-2.3s0.2-1.6,0.6-2.3s0.9-1.3,1.6-1.6c0.7-0.4,1.5-0.5,2.4-0.5
	c0.7,0,1.2,0.1,1.8,0.3c0.5,0.2,1,0.5,1.2,0.8s0.5,0.8,0.7,1.4l-1.1,0.3c-0.1-0.4-0.3-0.8-0.5-1s-0.5-0.5-0.9-0.6s-0.8-0.2-1.3-0.2
	c-0.5,0-1,0.1-1.4,0.2s-0.7,0.4-1,0.6c-0.2,0.3-0.4,0.5-0.6,0.9c-0.2,0.5-0.3,1.1-0.3,1.7c0,0.8,0.1,1.4,0.4,1.9s0.7,0.9,1.2,1.1
	s1.1,0.4,1.7,0.4c0.5,0,1-0.1,1.5-0.3s0.9-0.4,1.1-0.6v-1.6L416.7,351.5L416.7,351.5z"/>
<path class="st0" d="M412.2,346l3.5-8.6h1.3l3.7,8.6h-1.4l-1.1-2.6h-3.8l-1,2.6H412.2z M414.8,342.5h3.1l-1-2.4
	c-0.3-0.7-0.5-1.3-0.6-1.8c-0.1,0.5-0.3,1.1-0.5,1.6L414.8,342.5L414.8,342.5L414.8,342.5z"/>
<path class="st0" d="M416.7,333.7v-1h3.9v3.2c-0.6,0.4-1.2,0.8-1.8,1c-0.6,0.2-1.3,0.3-1.9,0.3c-0.9,0-1.7-0.2-2.4-0.5
	c-0.7-0.4-1.3-0.9-1.7-1.6c-0.4-0.7-0.6-1.5-0.6-2.3s0.2-1.6,0.6-2.3s0.9-1.3,1.6-1.6c0.7-0.4,1.5-0.5,2.4-0.5
	c0.7,0,1.2,0.1,1.8,0.3c0.5,0.2,1,0.5,1.2,0.8s0.5,0.8,0.7,1.4l-1.1,0.3c-0.1-0.4-0.3-0.8-0.5-1s-0.5-0.5-0.9-0.6s-0.8-0.2-1.3-0.2
	c-0.5,0-1,0.1-1.4,0.2s-0.7,0.4-1,0.6c-0.2,0.3-0.4,0.5-0.6,0.9c-0.2,0.5-0.3,1.1-0.3,1.7c0,0.8,0.1,1.4,0.4,1.9s0.7,0.9,1.2,1.1
	s1.1,0.4,1.7,0.4c0.5,0,1-0.1,1.5-0.3s0.9-0.4,1.1-0.6v-1.6L416.7,333.7L416.7,333.7z"/>
<path class="st1" d="M405.1,328.2l3.5-8.6h1.3l3.7,8.6h-1.4l-1.1-2.6h-3.8l-1,2.6H405.1z M407.7,324.7h3.1l-1-2.4
	c-0.3-0.7-0.5-1.3-0.6-1.8c-0.1,0.5-0.3,1.1-0.5,1.6L407.7,324.7L407.7,324.7L407.7,324.7z"/>
<path class="st1" d="M402.5,315.9v-1h3.9v3.2c-0.6,0.4-1.2,0.8-1.8,1c-0.6,0.2-1.3,0.3-1.9,0.3c-0.9,0-1.7-0.2-2.4-0.5
	c-0.7-0.4-1.3-0.9-1.7-1.6c-0.4-0.7-0.6-1.5-0.6-2.3s0.2-1.6,0.6-2.3s0.9-1.3,1.6-1.6c0.7-0.4,1.5-0.5,2.4-0.5
	c0.7,0,1.2,0.1,1.8,0.3c0.5,0.2,1,0.5,1.2,0.8s0.5,0.8,0.7,1.4l-1.1,0.3c-0.1-0.4-0.3-0.8-0.5-1s-0.5-0.5-0.9-0.6s-0.8-0.2-1.3-0.2
	c-0.5,0-1,0.1-1.4,0.2s-0.7,0.4-1,0.6c-0.2,0.3-0.4,0.5-0.6,0.9c-0.2,0.5-0.3,1.1-0.3,1.7c0,0.8,0.1,1.4,0.4,1.9s0.7,0.9,1.2,1.1
	s1.1,0.4,1.7,0.4c0.5,0,1-0.1,1.5-0.3s0.9-0.4,1.1-0.6v-1.6L402.5,315.9L402.5,315.9z"/>
<path class="st1" d="M397.8,304.8v-1h3.9v3.2c-0.6,0.4-1.2,0.8-1.8,1c-0.6,0.2-1.3,0.3-1.9,0.3c-0.9,0-1.7-0.2-2.4-0.5
	c-0.7-0.4-1.3-0.9-1.7-1.6c-0.4-0.7-0.6-1.5-0.6-2.3s0.2-1.6,0.6-2.3s0.9-1.3,1.6-1.6c0.7-0.4,1.5-0.5,2.4-0.5
	c0.7,0,1.2,0.1,1.8,0.3c0.5,0.2,1,0.5,1.2,0.8s0.5,0.8,0.7,1.4l-1.1,0.3c-0.1-0.4-0.3-0.8-0.5-1s-0.5-0.5-0.9-0.6s-0.8-0.2-1.3-0.2
	c-0.5,0-1,0.1-1.4,0.2s-0.7,0.4-1,0.6c-0.2,0.3-0.4,0.5-0.6,0.9c-0.2,0.5-0.3,1.1-0.3,1.7c0,0.8,0.1,1.4,0.4,1.9s0.7,0.9,1.2,1.1
	s1.1,0.4,1.7,0.4c0.5,0,1-0.1,1.5-0.3s0.9-0.4,1.1-0.6v-1.6L397.8,304.8L397.8,304.8z"/>
<path class="st1" d="M450,306l3.5-8.6h1.3l3.7,8.6h-1.4l-1.1-2.6h-3.8l-1,2.6H450z M452.6,302.4h3.1l-1-2.4
	c-0.3-0.7-0.5-1.3-0.6-1.8c-0.1,0.5-0.3,1.1-0.5,1.6L452.6,302.4L452.6,302.4L452.6,302.4z"/>
<path class="st1" d="M445.3,317.1l3.5-8.6h1.3l3.7,8.6h-1.4l-1.1-2.6h-3.8l-1,2.6H445.3z M447.9,313.5h3.1l-1-2.4
	c-0.3-0.7-0.5-1.3-0.6-1.8c-0.1,0.5-0.3,1.1-0.5,1.6L447.9,313.5L447.9,313.5L447.9,313.5z"/>
<path class="st1" d="M440.3,322.6v-1h3.9v3.2c-0.6,0.4-1.2,0.8-1.8,1c-0.6,0.2-1.3,0.3-1.9,0.3c-0.9,0-1.7-0.2-2.4-0.5
	c-0.7-0.4-1.3-0.9-1.7-1.6c-0.4-0.7-0.6-1.5-0.6-2.3s0.2-1.6,0.6-2.3s0.9-1.3,1.6-1.6c0.7-0.4,1.5-0.5,2.4-0.5
	c0.7,0,1.2,0.1,1.8,0.3c0.5,0.2,1,0.5,1.2,0.8s0.5,0.8,0.7,1.4l-1.1,0.3c-0.1-0.4-0.3-0.8-0.5-1s-0.5-0.5-0.9-0.6s-0.8-0.2-1.3-0.2
	c-0.5,0-1,0.1-1.4,0.2s-0.7,0.4-1,0.6c-0.2,0.3-0.4,0.5-0.6,0.9c-0.2,0.5-0.3,1.1-0.3,1.7c0,0.8,0.1,1.4,0.4,1.9s0.7,0.9,1.2,1.1
	s1.1,0.4,1.7,0.4c0.5,0,1-0.1,1.5-0.3s0.9-0.4,1.1-0.6v-1.6L440.3,322.6L440.3,322.6z"/>
<path class="st0" d="M438.2,334.1l1.2,0.3c-0.2,0.9-0.7,1.6-1.4,2.1c-0.7,0.5-1.5,0.7-2.4,0.7s-1.8-0.2-2.4-0.6
	c-0.6-0.4-1.1-0.9-1.4-1.6c-0.3-0.7-0.5-1.5-0.5-2.3c0-0.9,0.2-1.7,0.5-2.3s0.9-1.2,1.5-1.5c0.7-0.4,1.4-0.5,2.2-0.5
	c0.9,0,1.7,0.2,2.3,0.7s1,1,1.3,1.9l-1.2,0.3c-0.2-0.6-0.5-1.1-0.9-1.4c-0.4-0.3-0.9-0.4-1.5-0.4c-0.7,0-1.3,0.2-1.8,0.5
	c-0.5,0.3-0.8,0.7-1,1.3s-0.3,1.1-0.3,1.6c0,0.7,0.1,1.4,0.3,1.9s0.6,1,1,1.2c0.5,0.3,1,0.4,1.5,0.4c0.7,0,1.2-0.2,1.7-0.5
	C437.7,335.3,438,334.8,438.2,334.1L438.2,334.1L438.2,334.1z"/>
<path class="st0" d="M437.7,337.4h1.2v5c0,0.9-0.1,1.5-0.3,2c-0.2,0.5-0.6,0.9-1.1,1.2c-0.5,0.3-1.2,0.5-2.1,0.5s-1.5-0.1-2.1-0.4
	s-0.9-0.7-1.2-1.2c-0.2-0.5-0.4-1.2-0.4-2.1v-5h1.2v5c0,0.7,0.1,1.3,0.2,1.6s0.4,0.6,0.8,0.8c0.4,0.2,0.8,0.3,1.3,0.3
	c0.9,0,1.5-0.2,1.9-0.6s0.6-1.1,0.6-2.2L437.7,337.4L437.7,337.4L437.7,337.4z"/>
<path class="st0" d="M437.7,346.3h1.2v5c0,0.9-0.1,1.5-0.3,2c-0.2,0.5-0.6,0.9-1.1,1.2c-0.5,0.3-1.2,0.5-2.1,0.5s-1.5-0.1-2.1-0.4
	s-0.9-0.7-1.2-1.2c-0.2-0.5-0.4-1.2-0.4-2.1v-5h1.2v5c0,0.7,0.1,1.3,0.2,1.6s0.4,0.6,0.8,0.8c0.4,0.2,0.8,0.3,1.3,0.3
	c0.9,0,1.5-0.2,1.9-0.6s0.6-1.1,0.6-2.2L437.7,346.3L437.7,346.3L437.7,346.3z"/>
<path class="st0" d="M438.2,360.8l1.2,0.3c-0.2,0.9-0.7,1.6-1.4,2.1c-0.7,0.5-1.5,0.7-2.4,0.7s-1.8-0.2-2.4-0.6
	c-0.6-0.4-1.1-0.9-1.4-1.6c-0.3-0.7-0.5-1.5-0.5-2.3c0-0.9,0.2-1.7,0.5-2.3s0.9-1.2,1.5-1.5c0.7-0.4,1.4-0.5,2.2-0.5
	c0.9,0,1.7,0.2,2.3,0.7s1,1,1.3,1.9l-1.2,0.3c-0.2-0.6-0.5-1.1-0.9-1.4c-0.4-0.3-0.9-0.4-1.5-0.4c-0.7,0-1.3,0.2-1.8,0.5
	c-0.5,0.3-0.8,0.7-1,1.3s-0.3,1.1-0.3,1.6c0,0.7,0.1,1.4,0.3,1.9s0.6,1,1,1.2c0.5,0.3,1,0.4,1.5,0.4c0.7,0,1.2-0.2,1.7-0.5
	C437.7,362,438,361.5,438.2,360.8L438.2,360.8L438.2,360.8z"/>
<path class="st0" d="M438.2,369.7l1.2,0.3c-0.2,0.9-0.7,1.6-1.4,2.1c-0.7,0.5-1.5,0.7-2.4,0.7s-1.8-0.2-2.4-0.6
	c-0.6-0.4-1.1-0.9-1.4-1.6c-0.3-0.7-0.5-1.5-0.5-2.3c0-0.9,0.2-1.7,0.5-2.3s0.9-1.2,1.5-1.5c0.7-0.4,1.4-0.5,2.2-0.5
	c0.9,0,1.7,0.2,2.3,0.7s1,1,1.3,1.9l-1.2,0.3c-0.2-0.6-0.5-1.1-0.9-1.4c-0.4-0.3-0.9-0.4-1.5-0.4c-0.7,0-1.3,0.2-1.8,0.5
	c-0.5,0.3-0.8,0.7-1,1.3s-0.3,1.1-0.3,1.6c0,0.7,0.1,1.4,0.3,1.9s0.6,1,1,1.2c0.5,0.3,1,0.4,1.5,0.4c0.7,0,1.2-0.2,1.7-0.5
	C437.7,370.9,438,370.4,438.2,369.7L438.2,369.7L438.2,369.7z"/>
<line class="st2" x1="441.7" y1="368.1" x2="448" y2="368.1"/>
<path d="M448.7,370.7l1.1-0.1c0.1,0.5,0.3,0.8,0.5,1c0.3,0.2,0.6,0.3,1,0.3c0.3,0,0.6-0.1,0.9-0.2c0.3-0.1,0.5-0.3,0.6-0.6
	s0.3-0.6,0.4-1s0.2-0.9,0.2-1.3v-0.2c-0.2,0.3-0.5,0.6-0.9,0.8s-0.8,0.3-1.3,0.3c-0.8,0-1.4-0.3-1.9-0.8c-0.5-0.5-0.8-1.2-0.8-2
	s0.3-1.6,0.8-2.1c0.5-0.5,1.2-0.8,2-0.8c0.6,0,1.1,0.1,1.6,0.5c0.5,0.3,0.9,0.7,1.1,1.3c0.3,0.6,0.4,1.4,0.4,2.4s-0.1,2-0.4,2.6
	s-0.6,1.1-1.1,1.5s-1.1,0.5-1.8,0.5c-0.7,0-1.3-0.2-1.7-0.6C449,371.9,448.8,371.4,448.7,370.7L448.7,370.7L448.7,370.7z
	 M453.2,366.9c0-0.6-0.2-1.1-0.5-1.4c-0.3-0.4-0.8-0.5-1.2-0.5s-0.9,0.2-1.3,0.6s-0.5,0.9-0.5,1.5c0,0.5,0.2,1,0.5,1.3
	s0.8,0.5,1.3,0.5s0.9-0.2,1.3-0.5C453.1,368,453.2,367.5,453.2,366.9L453.2,366.9L453.2,366.9z M455.5,368.4c0-1,0.1-1.8,0.3-2.5
	c0.2-0.6,0.5-1.1,1-1.4c0.4-0.3,1-0.5,1.6-0.5c0.5,0,0.9,0.1,1.3,0.3s0.7,0.5,0.9,0.8c0.2,0.4,0.4,0.8,0.6,1.3s0.2,1.2,0.2,2
	c0,1-0.1,1.8-0.3,2.4s-0.5,1.1-1,1.4c-0.4,0.3-1,0.5-1.6,0.5c-0.9,0-1.6-0.3-2.1-0.9C455.8,371.2,455.5,370,455.5,368.4L455.5,368.4
	L455.5,368.4z M456.6,368.4c0,1.4,0.2,2.4,0.5,2.8c0.4,0.5,0.8,0.7,1.3,0.7s0.9-0.2,1.3-0.7s0.5-1.4,0.5-2.8s-0.2-2.4-0.5-2.8
	s-0.8-0.7-1.3-0.7s-0.9,0.2-1.2,0.6C456.8,366.1,456.6,367,456.6,368.4L456.6,368.4L456.6,368.4z"/>
<path class="st3" d="M435.6,378.2v-1h3.9v3.2c-0.6,0.4-1.2,0.8-1.8,1c-0.6,0.2-1.3,0.3-1.9,0.3c-0.9,0-1.7-0.2-2.4-0.5
	c-0.7-0.4-1.3-0.9-1.7-1.6c-0.4-0.7-0.6-1.5-0.6-2.3s0.2-1.6,0.6-2.3s0.9-1.3,1.6-1.6c0.7-0.4,1.5-0.5,2.4-0.5
	c0.7,0,1.2,0.1,1.8,0.3c0.5,0.2,1,0.5,1.2,0.8s0.5,0.8,0.7,1.4l-1.1,0.3c-0.1-0.4-0.3-0.8-0.5-1s-0.5-0.5-0.9-0.6s-0.8-0.2-1.3-0.2
	c-0.5,0-1,0.1-1.4,0.2s-0.7,0.4-1,0.6c-0.2,0.3-0.4,0.5-0.6,0.9c-0.2,0.5-0.3,1.1-0.3,1.7c0,0.8,0.1,1.4,0.4,1.9s0.7,0.9,1.2,1.1
	s1.1,0.4,1.7,0.4c0.5,0,1-0.1,1.5-0.3s0.9-0.4,1.1-0.6v-1.6L435.6,378.2L435.6,378.2z"/>
<g>
	<line class="st4" x1="421.1" y1="368.1" x2="430.7" y2="368.1"/>
	<line class="st4" x1="421.1" y1="359.2" x2="430.7" y2="359.2"/>
</g>
<path class="st1" d="M395.7,297.1l3.5-8.6h1.3l3.7,8.6h-1.4l-1.1-2.6H398l-1,2.6H395.7z M398.3,293.5h3.1l-1-2.4
	c-0.3-0.7-0.5-1.3-0.6-1.8c-0.1,0.5-0.3,1.1-0.5,1.6L398.3,293.5L398.3,293.5L398.3,293.5z"/>
<path class="st1" d="M407,279.6h1.2v5c0,0.9-0.1,1.5-0.3,2c-0.2,0.5-0.6,0.9-1.1,1.2c-0.5,0.3-1.2,0.5-2.1,0.5s-1.5-0.1-2.1-0.4
	s-0.9-0.7-1.2-1.2c-0.2-0.5-0.4-1.2-0.4-2.1v-5h1.2v5c0,0.7,0.1,1.3,0.2,1.6s0.4,0.6,0.8,0.8c0.4,0.2,0.8,0.3,1.3,0.3
	c0.9,0,1.5-0.2,1.9-0.6s0.6-1.1,0.6-2.2L407,279.6L407,279.6L407,279.6z"/>
<line class="st2" x1="398.4" y1="283.6" x2="392" y2="283.6"/>
<path d="M382.5,288.2h-1.1v-6.7c-0.3,0.2-0.6,0.5-1.1,0.7c-0.4,0.2-0.8,0.4-1.2,0.5v-1c0.6-0.3,1.2-0.6,1.6-1s0.8-0.8,1-1.1h0.7
	L382.5,288.2L382.5,288.2L382.5,288.2z M385.3,283.9c0-1,0.1-1.8,0.3-2.5c0.2-0.6,0.5-1.1,1-1.4c0.4-0.3,1-0.5,1.6-0.5
	c0.5,0,0.9,0.1,1.3,0.3s0.7,0.5,0.9,0.8c0.2,0.4,0.4,0.8,0.6,1.3s0.2,1.2,0.2,2c0,1-0.1,1.8-0.3,2.4s-0.5,1.1-1,1.4
	c-0.4,0.3-1,0.5-1.6,0.5c-0.9,0-1.6-0.3-2.1-0.9C385.6,286.7,385.3,285.5,385.3,283.9L385.3,283.9L385.3,283.9z M386.5,283.9
	c0,1.4,0.2,2.4,0.5,2.8c0.4,0.5,0.8,0.7,1.3,0.7s0.9-0.2,1.3-0.7s0.5-1.4,0.5-2.8s-0.2-2.4-0.5-2.8s-0.8-0.7-1.3-0.7
	s-0.9,0.2-1.2,0.6C386.6,281.6,386.5,282.5,386.5,283.9L386.5,283.9L386.5,283.9z"/>
<path class="st1" d="M407.5,279.3l3.5-8.6h1.3l3.7,8.6h-1.4l-1.1-2.6h-3.8l-1,2.6H407.5z M410.1,275.8h3.1l-1-2.4
	c-0.3-0.7-0.5-1.3-0.6-1.8c-0.1,0.5-0.3,1.1-0.5,1.6L410.1,275.8L410.1,275.8L410.1,275.8z"/>
<path class="st5" d="M419.3,267.4l1.2,0.3c-0.2,0.9-0.7,1.6-1.4,2.1c-0.7,0.5-1.5,0.7-2.4,0.7s-1.8-0.2-2.4-0.6
	c-0.6-0.4-1.1-0.9-1.4-1.6c-0.3-0.7-0.5-1.5-0.5-2.3c0-0.9,0.2-1.7,0.5-2.3s0.9-1.2,1.5-1.5c0.7-0.4,1.4-0.5,2.2-0.5
	c0.9,0,1.7,0.2,2.3,0.7s1,1,1.3,1.9l-1.2,0.3c-0.2-0.6-0.5-1.1-0.9-1.4c-0.4-0.3-0.9-0.4-1.5-0.4c-0.7,0-1.3,0.2-1.8,0.5
	c-0.5,0.3-0.8,0.7-1,1.3s-0.3,1.1-0.3,1.6c0,0.7,0.1,1.4,0.3,1.9s0.6,1,1,1.2c0.5,0.3,1,0.4,1.5,0.4c0.7,0,1.2-0.2,1.7-0.5
	C418.8,268.6,419.1,268.1,419.3,267.4L419.3,267.4L419.3,267.4z"/>
<path class="st5" d="M418.8,252.9h1.2v5c0,0.9-0.1,1.5-0.3,2c-0.2,0.5-0.6,0.9-1.1,1.2c-0.5,0.3-1.2,0.5-2.1,0.5s-1.5-0.1-2.1-0.4
	s-0.9-0.7-1.2-1.2c-0.2-0.5-0.4-1.2-0.4-2.1v-5h1.2v4.9c0,0.7,0.1,1.3,0.2,1.6s0.4,0.6,0.8,0.8c0.4,0.2,0.8,0.3,1.3,0.3
	c0.9,0,1.5-0.2,1.9-0.6s0.6-1.1,0.6-2.2L418.8,252.9L418.8,252.9L418.8,252.9z"/>
<path class="st5" d="M412.2,252.6l3.5-8.6h1.3l3.7,8.6h-1.4l-1.1-2.6h-3.8l-1,2.6H412.2z M414.8,249.1h3.1l-1-2.4
	c-0.3-0.7-0.5-1.3-0.6-1.8c-0.1,0.6-0.3,1.1-0.5,1.6L414.8,249.1L414.8,249.1L414.8,249.1z"/>
<path class="st5" d="M419.3,240.7l1.2,0.3c-0.2,0.9-0.7,1.6-1.4,2.1c-0.7,0.5-1.5,0.7-2.4,0.7s-1.8-0.2-2.4-0.6
	c-0.6-0.4-1.1-0.9-1.4-1.6c-0.3-0.7-0.5-1.5-0.5-2.3c0-0.9,0.2-1.7,0.5-2.3s0.9-1.2,1.5-1.5c0.7-0.4,1.4-0.5,2.2-0.5
	c0.9,0,1.7,0.2,2.3,0.7s1,1.1,1.3,1.9l-1.2,0.3c-0.2-0.6-0.5-1.1-0.9-1.4c-0.4-0.3-0.9-0.4-1.5-0.4c-0.7,0-1.3,0.2-1.8,0.5
	c-0.5,0.3-0.8,0.7-1,1.3s-0.3,1.1-0.3,1.6c0,0.7,0.1,1.4,0.3,1.9c0.2,0.5,0.6,0.9,1,1.2c0.5,0.3,1,0.4,1.5,0.4
	c0.7,0,1.2-0.2,1.7-0.6C418.8,241.9,419.1,241.4,419.3,240.7L419.3,240.7L419.3,240.7z"/>
<path class="st5" d="M412.2,234.8l3.5-8.6h1.3l3.7,8.6h-1.4l-1.1-2.6h-3.8l-1,2.6H412.2z M414.8,231.3h3.1l-1-2.4
	c-0.3-0.7-0.5-1.3-0.6-1.8c-0.1,0.6-0.3,1.1-0.5,1.6L414.8,231.3L414.8,231.3L414.8,231.3z"/>
<path class="st3" d="M412.2,222.9l1.2,0.3c-0.2,0.9-0.7,1.6-1.4,2.1c-0.7,0.5-1.5,0.7-2.4,0.7s-1.8-0.2-2.4-0.6
	c-0.6-0.4-1.1-0.9-1.4-1.6c-0.3-0.7-0.5-1.5-0.5-2.3c0-0.9,0.2-1.7,0.5-2.3s0.9-1.2,1.5-1.5c0.7-0.4,1.4-0.5,2.2-0.5
	c0.9,0,1.7,0.2,2.3,0.7s1,1.1,1.3,1.9l-1.2,0.3c-0.2-0.6-0.5-1.1-0.9-1.4c-0.4-0.3-0.9-0.4-1.5-0.4c-0.7,0-1.3,0.2-1.8,0.5
	c-0.5,0.3-0.8,0.7-1,1.3s-0.3,1.1-0.3,1.6c0,0.7,0.1,1.4,0.3,1.9c0.2,0.5,0.6,0.9,1,1.2c0.5,0.3,1,0.4,1.5,0.4
	c0.7,0,1.2-0.2,1.7-0.6C411.7,224.2,412.1,223.6,412.2,222.9L412.2,222.9L412.2,222.9z"/>
<path class="st3" d="M438.2,225.9l3.5-8.6h1.3l3.7,8.6h-1.4l-1.1-2.6h-3.8l-1,2.6H438.2z M440.8,222.4h3.1l-1-2.4
	c-0.3-0.7-0.5-1.3-0.6-1.8c-0.1,0.6-0.3,1.1-0.5,1.6L440.8,222.4L440.8,222.4L440.8,222.4z"/>
<path class="st5" d="M437.7,226.2h1.2v5c0,0.9-0.1,1.6-0.3,2.1c-0.2,0.5-0.6,0.9-1.1,1.2s-1.2,0.5-2.1,0.5s-1.5-0.1-2.1-0.4
	s-0.9-0.7-1.2-1.2s-0.4-1.2-0.4-2.1v-5h1.2v4.9c0,0.7,0.1,1.3,0.2,1.6s0.4,0.6,0.8,0.8c0.4,0.2,0.8,0.3,1.3,0.3
	c0.9,0,1.5-0.2,1.9-0.6s0.6-1.1,0.6-2.2L437.7,226.2L437.7,226.2L437.7,226.2z"/>
<path class="st5" d="M435.6,240.3v-1h3.9v3.2c-0.6,0.4-1.2,0.8-1.8,1c-0.6,0.2-1.3,0.3-1.9,0.3c-0.9,0-1.7-0.2-2.4-0.5
	s-1.3-0.9-1.7-1.6c-0.4-0.7-0.6-1.4-0.6-2.3s0.2-1.6,0.6-2.3s0.9-1.3,1.6-1.6c0.7-0.4,1.5-0.5,2.4-0.5c0.7,0,1.2,0.1,1.8,0.3
	c0.5,0.2,1,0.5,1.2,0.8s0.5,0.8,0.7,1.4l-1.1,0.3c-0.1-0.4-0.3-0.8-0.5-1s-0.5-0.4-0.9-0.6c-0.4-0.1-0.8-0.2-1.3-0.2
	c-0.5,0-1,0.1-1.4,0.2s-0.7,0.4-1,0.6c-0.2,0.3-0.4,0.5-0.6,0.9c-0.2,0.5-0.3,1.1-0.3,1.7c0,0.8,0.1,1.4,0.4,1.9s0.7,0.9,1.2,1.1
	s1.1,0.4,1.7,0.4c0.5,0,1-0.1,1.5-0.3s0.9-0.4,1.1-0.6v-1.6L435.6,240.3L435.6,240.3z"/>
<path class="st5" d="M437.7,244h1.2v5c0,0.9-0.1,1.6-0.3,2.1c-0.2,0.5-0.6,0.9-1.1,1.2s-1.2,0.5-2.1,0.5s-1.5-0.1-2.1-0.4
	s-0.9-0.7-1.2-1.2s-0.4-1.2-0.4-2.1v-5h1.2v4.9c0,0.7,0.1,1.3,0.2,1.6s0.4,0.6,0.8,0.8c0.4,0.2,0.8,0.3,1.3,0.3
	c0.9,0,1.5-0.2,1.9-0.6s0.6-1.1,0.6-2.2L437.7,244L437.7,244L437.7,244z"/>
<path class="st5" d="M431.1,261.5l3.5-8.6h1.3l3.7,8.6h-1.4l-1.1-2.6h-3.8l-1,2.6H431.1z M433.7,258h3.1l-1-2.4
	c-0.3-0.7-0.5-1.3-0.6-1.8c-0.1,0.6-0.3,1.1-0.5,1.6L433.7,258L433.7,258L433.7,258z"/>
<path class="st5" d="M435.6,267v-1h3.9v3.2c-0.6,0.4-1.2,0.8-1.8,1c-0.6,0.2-1.3,0.3-1.9,0.3c-0.9,0-1.7-0.2-2.4-0.5
	c-0.7-0.4-1.3-0.9-1.7-1.6c-0.4-0.7-0.6-1.5-0.6-2.3s0.2-1.6,0.6-2.3s0.9-1.3,1.6-1.6c0.7-0.4,1.5-0.5,2.4-0.5
	c0.7,0,1.2,0.1,1.8,0.3c0.5,0.2,1,0.5,1.2,0.8s0.5,0.8,0.7,1.4l-1.1,0.3c-0.1-0.4-0.3-0.8-0.5-1s-0.5-0.5-0.9-0.6s-0.8-0.2-1.3-0.2
	c-0.5,0-1,0.1-1.4,0.2s-0.7,0.4-1,0.6c-0.2,0.3-0.4,0.5-0.6,0.9c-0.2,0.5-0.3,1.1-0.3,1.7c0,0.8,0.1,1.4,0.4,1.9s0.7,0.9,1.2,1.1
	s1.1,0.4,1.7,0.4c0.5,0,1-0.1,1.5-0.3s0.9-0.4,1.1-0.6V267L435.6,267L435.6,267z"/>
<path class="st1" d="M442.9,276.3l1.2,0.3c-0.2,0.9-0.7,1.6-1.4,2.1c-0.7,0.5-1.5,0.7-2.4,0.7s-1.8-0.2-2.4-0.6
	c-0.6-0.4-1.1-0.9-1.4-1.6c-0.3-0.7-0.5-1.5-0.5-2.3c0-0.9,0.2-1.7,0.5-2.3s0.9-1.2,1.5-1.5c0.7-0.4,1.4-0.5,2.2-0.5
	c0.9,0,1.7,0.2,2.3,0.7s1,1,1.3,1.9l-1.2,0.3c-0.2-0.6-0.5-1.1-0.9-1.4c-0.4-0.3-0.9-0.4-1.5-0.4c-0.7,0-1.3,0.2-1.8,0.5
	c-0.5,0.3-0.8,0.7-1,1.3s-0.3,1.1-0.3,1.6c0,0.7,0.1,1.4,0.3,1.9s0.6,1,1,1.2c0.5,0.3,1,0.4,1.5,0.4c0.7,0,1.2-0.2,1.7-0.5
	C442.5,277.5,442.8,277,442.9,276.3L442.9,276.3L442.9,276.3z"/>
<line class="st2" x1="446.4" y1="274.7" x2="452.7" y2="274.7"/>
<path d="M454.9,274.6c-0.5-0.2-0.8-0.4-1-0.7c-0.2-0.3-0.3-0.6-0.3-1.1c0-0.6,0.2-1.1,0.7-1.6c0.5-0.4,1.1-0.6,1.9-0.6
	s1.4,0.2,1.9,0.6c0.5,0.4,0.7,1,0.7,1.6c0,0.4-0.1,0.7-0.3,1c-0.2,0.3-0.6,0.5-1,0.7c0.6,0.2,1,0.5,1.3,0.8c0.3,0.4,0.4,0.8,0.4,1.4
	c0,0.7-0.3,1.4-0.8,1.9s-1.3,0.8-2.2,0.8s-1.6-0.2-2.2-0.8c-0.5-0.5-0.8-1.1-0.8-1.9c0-0.6,0.1-1,0.5-1.4
	C454,275,454.4,274.8,454.9,274.6L454.9,274.6L454.9,274.6z M454.7,272.8c0,0.4,0.1,0.7,0.4,1c0.3,0.3,0.6,0.4,1.1,0.4
	s0.8-0.1,1.1-0.4c0.3-0.3,0.4-0.6,0.4-0.9c0-0.4-0.1-0.7-0.4-1s-0.6-0.4-1.1-0.4s-0.8,0.1-1.1,0.4S454.7,272.5,454.7,272.8
	L454.7,272.8L454.7,272.8z M454.3,276.8c0,0.3,0.1,0.6,0.2,0.9c0.1,0.3,0.4,0.5,0.7,0.6c0.3,0.1,0.6,0.2,1,0.2c0.5,0,1-0.2,1.3-0.5
	s0.5-0.7,0.5-1.2s-0.2-0.9-0.5-1.3c-0.4-0.3-0.8-0.5-1.3-0.5s-1,0.2-1.3,0.5S454.3,276.3,454.3,276.8L454.3,276.8L454.3,276.8z
	 M460.2,275c0-1,0.1-1.8,0.3-2.5c0.2-0.6,0.5-1.1,1-1.4c0.4-0.3,1-0.5,1.6-0.5c0.5,0,0.9,0.1,1.3,0.3s0.7,0.5,0.9,0.8
	c0.2,0.4,0.4,0.8,0.6,1.3s0.2,1.2,0.2,2c0,1-0.1,1.8-0.3,2.4s-0.5,1.1-1,1.4c-0.4,0.3-1,0.5-1.6,0.5c-0.9,0-1.6-0.3-2.1-0.9
	C460.5,277.8,460.2,276.6,460.2,275L460.2,275L460.2,275z M461.4,275c0,1.4,0.2,2.4,0.5,2.8c0.4,0.5,0.8,0.7,1.3,0.7
	s0.9-0.2,1.3-0.7s0.5-1.4,0.5-2.8s-0.2-2.4-0.5-2.8s-0.8-0.7-1.3-0.7s-0.9,0.2-1.2,0.6C461.5,272.7,461.4,273.6,461.4,275L461.4,275
	L461.4,275z"/>
<path class="st1" d="M442.9,288.2l3.5-8.6h1.3l3.7,8.6h-1.4l-1.1-2.6h-3.8l-1,2.6H442.9z M445.5,284.6h3.1l-1-2.4
	c-0.3-0.7-0.5-1.3-0.6-1.8c-0.1,0.5-0.3,1.1-0.5,1.6L445.5,284.6L445.5,284.6L445.5,284.6z"/>
<path class="st1" d="M452.1,293.7v-1h3.9v3.2c-0.6,0.4-1.2,0.8-1.8,1c-0.6,0.2-1.3,0.3-1.9,0.3c-0.9,0-1.7-0.2-2.4-0.5
	c-0.7-0.4-1.3-0.9-1.7-1.6c-0.4-0.7-0.6-1.5-0.6-2.3s0.2-1.6,0.6-2.3s0.9-1.3,1.6-1.6c0.7-0.4,1.5-0.5,2.4-0.5
	c0.7,0,1.2,0.1,1.8,0.3c0.5,0.2,1,0.5,1.2,0.8s0.5,0.8,0.7,1.4l-1.1,0.3c-0.1-0.4-0.3-0.8-0.5-1s-0.5-0.5-0.9-0.6s-0.8-0.2-1.3-0.2
	c-0.5,0-1,0.1-1.4,0.2s-0.7,0.4-1,0.6c-0.2,0.3-0.4,0.5-0.6,0.9c-0.2,0.5-0.3,1.1-0.3,1.7c0,0.8,0.1,1.4,0.4,1.9s0.7,0.9,1.2,1.1
	s1.1,0.4,1.7,0.4c0.5,0,1-0.1,1.5-0.3s0.9-0.4,1.1-0.6v-1.6L452.1,293.7L452.1,293.7z"/>
<g>
	<line class="st4" x1="420.2" y1="265.8" x2="430.4" y2="265.8"/>
	<line class="st4" x1="420.2" y1="256.9" x2="430.4" y2="256.9"/>
	<line class="st4" x1="420.2" y1="248" x2="430.4" y2="248"/>
	<line class="st4" x1="420.2" y1="230.2" x2="430.4" y2="230.2"/>
</g>
<path class="st6" d="M416.7,213.6v-1h3.9v3.2c-0.6,0.4-1.2,0.8-1.8,1c-0.6,0.2-1.3,0.3-1.9,0.3c-0.9,0-1.7-0.2-2.4-0.5
	s-1.3-0.9-1.7-1.6c-0.4-0.7-0.6-1.4-0.6-2.3s0.2-1.6,0.6-2.3s0.9-1.3,1.6-1.6c0.7-0.4,1.5-0.5,2.4-0.5c0.7,0,1.2,0.1,1.8,0.3
	c0.5,0.2,1,0.5,1.2,0.8s0.5,0.8,0.7,1.4l-1.1,0.3c-0.1-0.4-0.3-0.8-0.5-1s-0.5-0.4-0.9-0.6c-0.4-0.1-0.8-0.2-1.3-0.2
	c-0.5,0-1,0.1-1.4,0.2s-0.7,0.4-1,0.6c-0.2,0.3-0.4,0.5-0.6,0.9c-0.2,0.5-0.3,1.1-0.3,1.7c0,0.8,0.1,1.4,0.4,1.9s0.7,0.9,1.2,1.1
	s1.1,0.4,1.7,0.4c0.5,0,1-0.1,1.5-0.3s0.9-0.4,1.1-0.6v-1.6L416.7,213.6L416.7,213.6z"/>
<path class="st3" d="M410.5,199.5h1.2v5c0,0.9-0.1,1.6-0.3,2.1c-0.2,0.5-0.6,0.9-1.1,1.2s-1.2,0.5-2.1,0.5s-1.5-0.1-2.1-0.4
	s-0.9-0.7-1.2-1.2s-0.4-1.2-0.4-2.1v-5h1.2v4.9c0,0.7,0.1,1.3,0.2,1.6s0.4,0.6,0.8,0.8c0.4,0.2,0.8,0.3,1.3,0.3
	c0.9,0,1.5-0.2,1.9-0.6s0.6-1.1,0.6-2.2L410.5,199.5L410.5,199.5L410.5,199.5z"/>
<path class="st3" d="M442.7,202.5v-1h3.9v3.2c-0.6,0.4-1.2,0.8-1.8,1c-0.6,0.2-1.3,0.3-1.9,0.3c-0.9,0-1.7-0.2-2.4-0.5
	s-1.3-0.9-1.7-1.6c-0.4-0.7-0.6-1.4-0.6-2.3s0.2-1.6,0.6-2.3s0.9-1.3,1.6-1.6c0.7-0.4,1.5-0.5,2.4-0.5c0.7,0,1.2,0.1,1.8,0.3
	c0.5,0.2,1,0.5,1.2,0.8s0.5,0.8,0.7,1.4l-1.1,0.3c-0.1-0.4-0.3-0.8-0.5-1s-0.5-0.4-0.9-0.6c-0.4-0.1-0.8-0.2-1.3-0.2
	c-0.5,0-1,0.1-1.4,0.2s-0.7,0.4-1,0.6c-0.2,0.3-0.4,0.5-0.6,0.9c-0.2,0.5-0.3,1.1-0.3,1.7c0,0.8,0.1,1.4,0.4,1.9s0.7,0.9,1.2,1.1
	s1.1,0.4,1.7,0.4c0.5,0,1-0.1,1.5-0.3s0.9-0.4,1.1-0.6v-1.6L442.7,202.5L442.7,202.5z"/>
<path class="st6" d="M438.2,214l1.2,0.3c-0.2,0.9-0.7,1.6-1.4,2.1c-0.7,0.5-1.5,0.7-2.4,0.7s-1.8-0.2-2.4-0.6
	c-0.6-0.4-1.1-0.9-1.4-1.6c-0.3-0.7-0.5-1.5-0.5-2.3c0-0.9,0.2-1.7,0.5-2.3s0.9-1.2,1.5-1.5c0.7-0.4,1.4-0.5,2.2-0.5
	c0.9,0,1.7,0.2,2.3,0.7s1,1.1,1.3,1.9l-1.2,0.3c-0.2-0.6-0.5-1.1-0.9-1.4c-0.4-0.3-0.9-0.4-1.5-0.4c-0.7,0-1.3,0.2-1.8,0.5
	c-0.5,0.3-0.8,0.7-1,1.3s-0.3,1.1-0.3,1.6c0,0.7,0.1,1.4,0.3,1.9c0.2,0.5,0.6,0.9,1,1.2c0.5,0.3,1,0.4,1.5,0.4
	c0.7,0,1.2-0.2,1.7-0.6C437.7,215.3,438,214.7,438.2,214L438.2,214L438.2,214z"/>
<path class="st3" d="M405.8,192.8v-1h3.9v3.2c-0.6,0.4-1.2,0.8-1.8,1c-0.6,0.2-1.3,0.3-1.9,0.3c-0.9,0-1.7-0.2-2.4-0.5
	s-1.3-0.9-1.7-1.6c-0.4-0.7-0.6-1.4-0.6-2.3s0.2-1.6,0.6-2.3s0.9-1.3,1.6-1.6c0.7-0.4,1.5-0.5,2.4-0.5c0.7,0,1.2,0.1,1.8,0.3
	c0.5,0.2,1,0.5,1.2,0.8s0.5,0.8,0.7,1.4l-1.1,0.3c-0.1-0.4-0.3-0.8-0.5-1s-0.5-0.4-0.9-0.6c-0.4-0.1-0.8-0.2-1.3-0.2
	c-0.5,0-1,0.1-1.4,0.2s-0.7,0.4-1,0.6c-0.2,0.3-0.4,0.5-0.6,0.9c-0.2,0.5-0.3,1.1-0.3,1.7c0,0.8,0.1,1.4,0.4,1.9s0.7,0.9,1.2,1.1
	s1.1,0.4,1.7,0.4c0.5,0,1-0.1,1.5-0.3s0.9-0.4,1.1-0.6v-1.6L405.8,192.8L405.8,192.8z"/>
<path class="st0" d="M409.8,185.9l3.5-8.6h1.3l3.7,8.6H417l-1.1-2.6h-3.8l-1,2.6H409.8z M412.5,182.3h3.1l-1-2.4
	c-0.3-0.7-0.5-1.3-0.6-1.8c-0.1,0.6-0.3,1.1-0.5,1.6L412.5,182.3L412.5,182.3L412.5,182.3z"/>
<path class="st0" d="M416.4,168.4h1.2v5c0,0.9-0.1,1.6-0.3,2.1c-0.2,0.5-0.6,0.9-1.1,1.2s-1.2,0.5-2.1,0.5s-1.5-0.1-2.1-0.4
	s-0.9-0.7-1.2-1.2s-0.4-1.2-0.4-2.1v-5h1.2v4.9c0,0.7,0.1,1.3,0.2,1.6s0.4,0.6,0.8,0.8c0.4,0.2,0.8,0.3,1.3,0.3
	c0.9,0,1.5-0.2,1.9-0.6s0.6-1.1,0.6-2.2L416.4,168.4L416.4,168.4L416.4,168.4z"/>
<path class="st3" d="M400.4,172.5l3.5-8.6h1.3l3.7,8.6h-1.4l-1.1-2.6h-3.8l-1,2.6H400.4z M403,169h3.1l-1-2.4
	c-0.3-0.7-0.5-1.3-0.6-1.8c-0.1,0.6-0.3,1.1-0.5,1.6L403,169L403,169L403,169z"/>
<path class="st0" d="M428.7,176l3.5-8.6h1.3l3.7,8.6h-1.4l-1.1-2.6H431l-1,2.6H428.7z M431.4,172.4h3.1l-1-2.4
	c-0.3-0.7-0.5-1.3-0.6-1.8c-0.1,0.6-0.3,1.1-0.5,1.6L431.4,172.4L431.4,172.4L431.4,172.4z"/>
<path class="st0" d="M435.3,177.3h1.2v5c0,0.9-0.1,1.6-0.3,2.1c-0.2,0.5-0.6,0.9-1.1,1.2s-1.2,0.5-2.1,0.5s-1.5-0.1-2.1-0.4
	s-0.9-0.7-1.2-1.2s-0.4-1.2-0.4-2.1v-5h1.2v4.9c0,0.7,0.1,1.3,0.2,1.6s0.4,0.6,0.8,0.8c0.4,0.2,0.8,0.3,1.3,0.3
	c0.9,0,1.5-0.2,1.9-0.6s0.6-1.1,0.6-2.2L435.3,177.3L435.3,177.3L435.3,177.3z"/>
<path class="st3" d="M443.6,186.2h1.2v5c0,0.9-0.1,1.6-0.3,2.1c-0.2,0.5-0.6,0.9-1.1,1.2s-1.2,0.5-2.1,0.5s-1.5-0.1-2.1-0.4
	s-0.9-0.7-1.2-1.2s-0.4-1.2-0.4-2.1v-5h1.2v4.9c0,0.7,0.1,1.3,0.2,1.6s0.4,0.6,0.8,0.8c0.4,0.2,0.8,0.3,1.3,0.3
	c0.9,0,1.5-0.2,1.9-0.6s0.6-1.1,0.6-2.2L443.6,186.2L443.6,186.2L443.6,186.2z"/>
<path class="st0" d="M414.3,162.5v-1h3.9v3.2c-0.6,0.4-1.2,0.8-1.8,1c-0.6,0.2-1.3,0.3-1.9,0.3c-0.9,0-1.7-0.2-2.4-0.5
	s-1.3-0.9-1.7-1.6c-0.4-0.7-0.6-1.4-0.6-2.3s0.2-1.6,0.6-2.3s0.9-1.3,1.6-1.6c0.7-0.4,1.5-0.5,2.4-0.5c0.7,0,1.2,0.1,1.8,0.3
	c0.5,0.2,1,0.5,1.2,0.8s0.5,0.8,0.7,1.4L417,160c-0.1-0.4-0.3-0.8-0.5-1s-0.5-0.4-0.9-0.6c-0.4-0.1-0.8-0.2-1.3-0.2
	c-0.5,0-1,0.1-1.4,0.2s-0.7,0.4-1,0.6c-0.2,0.3-0.4,0.5-0.6,0.9c-0.2,0.5-0.3,1.1-0.3,1.7c0,0.8,0.1,1.4,0.4,1.9s0.7,0.9,1.2,1.1
	s1.1,0.4,1.7,0.4c0.5,0,1-0.1,1.5-0.3s0.9-0.4,1.1-0.6v-1.6L414.3,162.5L414.3,162.5z"/>
<path class="st0" d="M414.3,153.6v-1h3.9v3.2c-0.6,0.4-1.2,0.8-1.8,1c-0.6,0.2-1.3,0.3-1.9,0.3c-0.9,0-1.7-0.2-2.4-0.5
	s-1.3-0.9-1.7-1.6c-0.4-0.7-0.6-1.4-0.6-2.3s0.2-1.6,0.6-2.3s0.9-1.3,1.6-1.6c0.7-0.4,1.5-0.5,2.4-0.5c0.7,0,1.2,0.1,1.8,0.3
	c0.5,0.2,1,0.5,1.2,0.8s0.5,0.8,0.7,1.4l-1.1,0.3c-0.1-0.4-0.3-0.8-0.5-1s-0.5-0.4-0.9-0.6c-0.4-0.1-0.8-0.2-1.3-0.2
	c-0.5,0-1,0.1-1.4,0.2s-0.7,0.4-1,0.6c-0.2,0.3-0.4,0.5-0.6,0.9c-0.2,0.5-0.3,1.1-0.3,1.7c0,0.8,0.1,1.4,0.4,1.9s0.7,0.9,1.2,1.1
	s1.1,0.4,1.7,0.4c0.5,0,1-0.1,1.5-0.3s0.9-0.4,1.1-0.6v-1.6L414.3,153.6L414.3,153.6z"/>
<path class="st0" d="M409.8,148.1l3.5-8.6h1.3l3.7,8.6H417l-1.1-2.6h-3.8l-1,2.6H409.8z M412.5,144.5h3.1l-1-2.4
	c-0.3-0.7-0.5-1.3-0.6-1.8c-0.1,0.6-0.3,1.1-0.5,1.6L412.5,144.5L412.5,144.5L412.5,144.5z"/>
<path class="st3" d="M407.5,138.4l1.2,0.3c-0.2,0.9-0.7,1.6-1.4,2.1c-0.7,0.5-1.5,0.7-2.4,0.7s-1.8-0.2-2.4-0.6
	c-0.6-0.4-1.1-0.9-1.4-1.6c-0.3-0.7-0.5-1.5-0.5-2.3c0-0.9,0.2-1.7,0.5-2.3s0.9-1.2,1.5-1.5c0.7-0.4,1.4-0.5,2.2-0.5
	c0.9,0,1.7,0.2,2.3,0.7s1,1.1,1.3,1.9l-1.2,0.3c-0.2-0.6-0.5-1.1-0.9-1.4c-0.4-0.3-0.9-0.4-1.5-0.4c-0.7,0-1.3,0.2-1.8,0.5
	c-0.5,0.3-0.8,0.7-1,1.3s-0.3,1.1-0.3,1.6c0,0.7,0.1,1.4,0.3,1.9c0.2,0.5,0.6,0.9,1,1.2c0.5,0.3,1,0.4,1.5,0.4
	c0.7,0,1.2-0.2,1.7-0.6C407,139.6,407.3,139.1,407.5,138.4L407.5,138.4L407.5,138.4z"/>
<path class="st1" d="M452.4,119.2l3.5-8.6h1.3l3.7,8.6h-1.4l-1.1-2.6h-3.8l-1,2.6H452.4z M455,115.6h3.1l-1-2.4
	c-0.3-0.7-0.5-1.3-0.6-1.8c-0.1,0.6-0.3,1.1-0.5,1.6L455,115.6L455,115.6L455,115.6z"/>
<path class="st1" d="M459.5,127.3l1.2,0.3c-0.2,0.9-0.7,1.7-1.4,2.1c-0.7,0.5-1.5,0.7-2.4,0.7s-1.8-0.2-2.4-0.6
	c-0.6-0.4-1.1-0.9-1.4-1.6c-0.3-0.7-0.5-1.5-0.5-2.3c0-0.9,0.2-1.7,0.5-2.3s0.9-1.2,1.5-1.5c0.7-0.3,1.4-0.5,2.2-0.5
	c0.9,0,1.7,0.2,2.3,0.7s1,1.1,1.3,1.8l-1.2,0.3c-0.2-0.6-0.5-1.1-0.9-1.4c-0.4-0.3-0.9-0.4-1.5-0.4c-0.7,0-1.3,0.2-1.8,0.5
	c-0.5,0.3-0.8,0.7-1,1.3s-0.3,1.1-0.3,1.7c0,0.7,0.1,1.4,0.3,1.9s0.6,1,1,1.2c0.5,0.3,1,0.4,1.5,0.4c0.7,0,1.2-0.2,1.7-0.6
	C459,128.5,459.3,128,459.5,127.3L459.5,127.3L459.5,127.3z"/>
<path class="st1" d="M452.1,138v-1h3.9v3.2c-0.6,0.4-1.2,0.8-1.8,1c-0.6,0.2-1.3,0.3-1.9,0.3c-0.9,0-1.7-0.2-2.4-0.5
	s-1.3-0.9-1.7-1.6c-0.4-0.7-0.6-1.4-0.6-2.3s0.2-1.6,0.6-2.3s0.9-1.3,1.6-1.6c0.7-0.4,1.5-0.5,2.4-0.5c0.7,0,1.2,0.1,1.8,0.3
	c0.5,0.2,1,0.5,1.2,0.8s0.5,0.8,0.7,1.4l-1.1,0.3c-0.1-0.4-0.3-0.8-0.5-1s-0.5-0.4-0.9-0.6c-0.4-0.1-0.8-0.2-1.3-0.2
	c-0.5,0-1,0.1-1.4,0.2s-0.7,0.4-1,0.6c-0.2,0.3-0.4,0.5-0.6,0.9c-0.2,0.5-0.3,1.1-0.3,1.7c0,0.8,0.1,1.4,0.4,1.9s0.7,0.9,1.2,1.1
	s1.1,0.4,1.7,0.4c0.5,0,1-0.1,1.5-0.3s0.9-0.4,1.1-0.6V138L452.1,138L452.1,138z"/>
<path class="st1" d="M438.2,145.8l3.5-8.6h1.3l3.7,8.6h-1.4l-1.1-2.6h-3.8l-1,2.6H438.2z M440.8,142.3h3.1l-1-2.4
	c-0.3-0.7-0.5-1.3-0.6-1.8c-0.1,0.6-0.3,1.1-0.5,1.6L440.8,142.3L440.8,142.3L440.8,142.3z"/>
<path class="st0" d="M435.3,139.5h1.2v5c0,0.9-0.1,1.6-0.3,2.1c-0.2,0.5-0.6,0.9-1.1,1.2s-1.2,0.5-2.1,0.5s-1.5-0.1-2.1-0.4
	s-0.9-0.7-1.2-1.2s-0.4-1.2-0.4-2.1v-5h1.2v4.9c0,0.7,0.1,1.3,0.2,1.6s0.4,0.6,0.8,0.8c0.4,0.2,0.8,0.3,1.3,0.3
	c0.9,0,1.5-0.2,1.9-0.6s0.6-1.1,0.6-2.2L435.3,139.5L435.3,139.5L435.3,139.5z"/>
<path class="st0" d="M435.9,153.9l1.2,0.3c-0.2,0.9-0.7,1.6-1.4,2.1c-0.7,0.5-1.5,0.7-2.4,0.7s-1.8-0.2-2.4-0.6
	c-0.6-0.4-1.1-0.9-1.4-1.6c-0.3-0.7-0.5-1.5-0.5-2.3c0-0.9,0.2-1.7,0.5-2.3s0.9-1.2,1.5-1.5c0.7-0.4,1.4-0.5,2.2-0.5
	c0.9,0,1.7,0.2,2.3,0.7s1,1.1,1.3,1.9l-1.2,0.3c-0.2-0.6-0.5-1.1-0.9-1.4c-0.4-0.3-0.9-0.4-1.5-0.4c-0.7,0-1.3,0.2-1.8,0.5
	c-0.5,0.3-0.8,0.7-1,1.3s-0.3,1.1-0.3,1.6c0,0.7,0.1,1.4,0.3,1.9c0.2,0.5,0.6,0.9,1,1.2c0.5,0.3,1,0.4,1.5,0.4
	c0.7,0,1.2-0.2,1.7-0.6C435.4,155.2,435.7,154.7,435.9,153.9L435.9,153.9L435.9,153.9z"/>
<path class="st0" d="M435.9,162.8l1.2,0.3c-0.2,0.9-0.7,1.6-1.4,2.1c-0.7,0.5-1.5,0.7-2.4,0.7s-1.8-0.2-2.4-0.6
	c-0.6-0.4-1.1-0.9-1.4-1.6c-0.3-0.7-0.5-1.5-0.5-2.3c0-0.9,0.2-1.7,0.5-2.3s0.9-1.2,1.5-1.5c0.7-0.4,1.4-0.5,2.2-0.5
	c0.9,0,1.7,0.2,2.3,0.7s1,1.1,1.3,1.9l-1.2,0.3c-0.2-0.6-0.5-1.1-0.9-1.4c-0.4-0.3-0.9-0.4-1.5-0.4c-0.7,0-1.3,0.2-1.8,0.5
	c-0.5,0.3-0.8,0.7-1,1.3s-0.3,1.1-0.3,1.6c0,0.7,0.1,1.4,0.3,1.9c0.2,0.5,0.6,0.9,1,1.2c0.5,0.3,1,0.4,1.5,0.4
	c0.7,0,1.2-0.2,1.7-0.6C435.4,164.1,435.7,163.6,435.9,162.8L435.9,162.8L435.9,162.8z"/>
<path class="st7" d="M395.4,129.1v-1h3.9v3.2c-0.6,0.4-1.2,0.8-1.8,1c-0.6,0.2-1.3,0.3-1.9,0.3c-0.9,0-1.7-0.2-2.4-0.5
	s-1.3-0.9-1.7-1.6c-0.4-0.7-0.6-1.4-0.6-2.3s0.2-1.6,0.6-2.3s0.9-1.3,1.6-1.6c0.7-0.3,1.5-0.5,2.4-0.5c0.7,0,1.2,0.1,1.8,0.3
	c0.5,0.2,1,0.5,1.2,0.8c0.3,0.4,0.5,0.8,0.7,1.4l-1.1,0.3c-0.1-0.4-0.3-0.8-0.5-1s-0.5-0.4-0.9-0.6s-0.8-0.2-1.3-0.2
	c-0.5,0-1,0.1-1.4,0.2c-0.4,0.2-0.7,0.4-1,0.6c-0.2,0.3-0.4,0.5-0.6,0.8c-0.2,0.5-0.3,1.1-0.3,1.7c0,0.8,0.1,1.4,0.4,1.9
	s0.7,0.9,1.2,1.1s1.1,0.4,1.7,0.4c0.5,0,1-0.1,1.5-0.3s0.9-0.4,1.1-0.6v-1.6L395.4,129.1L395.4,129.1z"/>
<path class="st7" d="M381.5,132.5l3.5-8.6h1.3l3.7,8.6h-1.4l-1.1-2.6h-3.8l-1,2.6H381.5z M384.1,129h3.1l-1-2.4
	c-0.3-0.7-0.5-1.3-0.6-1.8c-0.1,0.6-0.3,1.1-0.5,1.6L384.1,129L384.1,129L384.1,129z"/>
<path class="st7" d="M378.6,123.9h1.2v5c0,0.9-0.1,1.6-0.3,2.1c-0.2,0.5-0.6,0.9-1.1,1.2s-1.2,0.5-2.1,0.5s-1.5-0.1-2.1-0.4
	s-0.9-0.7-1.2-1.2s-0.4-1.2-0.4-2.1v-5h1.2v5c0,0.7,0.1,1.3,0.2,1.6s0.4,0.6,0.8,0.8c0.4,0.2,0.8,0.3,1.3,0.3c0.9,0,1.5-0.2,1.9-0.6
	s0.6-1.1,0.6-2.2L378.6,123.9L378.6,123.9L378.6,123.9z"/>
<line class="st2" x1="376.3" y1="133.9" x2="376.3" y2="139.8"/>
<path d="M369.7,149.5l1.1-0.1c0.1,0.6,0.4,1,0.7,1.3s0.7,0.4,1.1,0.4c0.5,0,1-0.2,1.3-0.5s0.5-0.8,0.5-1.3s-0.2-0.9-0.5-1.2
	c-0.3-0.3-0.8-0.5-1.3-0.5c-0.2,0-0.5,0-0.8,0.1l0.1-0.9c0.1,0,0.1,0,0.2,0c0.5,0,0.9-0.1,1.3-0.4c0.4-0.2,0.6-0.6,0.6-1.1
	c0-0.4-0.1-0.7-0.4-1s-0.6-0.4-1.1-0.4s-0.8,0.1-1.1,0.4c-0.3,0.3-0.5,0.6-0.6,1.2l-1.1-0.2c0.1-0.7,0.5-1.2,0.9-1.6
	c0.5-0.4,1.1-0.6,1.8-0.6c0.5,0,1,0.1,1.4,0.3c0.4,0.2,0.7,0.5,1,0.8s0.3,0.7,0.3,1.1s-0.1,0.7-0.3,1c-0.2,0.3-0.5,0.6-0.9,0.7
	c0.5,0.1,1,0.4,1.3,0.7c0.3,0.4,0.5,0.8,0.5,1.4c0,0.8-0.3,1.4-0.9,1.9c-0.6,0.5-1.3,0.8-2.2,0.8c-0.8,0-1.5-0.2-2-0.7
	S369.8,150.2,369.7,149.5L369.7,149.5L369.7,149.5z M376.7,147.6c0-1,0.1-1.8,0.3-2.4s0.5-1.1,1-1.4c0.4-0.3,1-0.5,1.6-0.5
	c0.5,0,0.9,0.1,1.3,0.3s0.7,0.4,0.9,0.8s0.4,0.8,0.6,1.3s0.2,1.2,0.2,2c0,1-0.1,1.8-0.3,2.4s-0.5,1.1-1,1.4c-0.4,0.3-1,0.5-1.6,0.5
	c-0.9,0-1.6-0.3-2.1-0.9C377,150.3,376.7,149.2,376.7,147.6z M377.8,147.6c0,1.4,0.2,2.4,0.5,2.8c0.4,0.5,0.8,0.7,1.3,0.7
	s0.9-0.2,1.3-0.7s0.5-1.4,0.5-2.8s-0.2-2.4-0.5-2.8c-0.4-0.5-0.8-0.7-1.3-0.7s-0.9,0.2-1.2,0.6C378,145.2,377.8,146.2,377.8,147.6
	L377.8,147.6L377.8,147.6z"/>
<path class="st7" d="M369.2,123.9h1.2v5c0,0.9-0.1,1.6-0.3,2.1c-0.2,0.5-0.6,0.9-1.1,1.2s-1.2,0.5-2.1,0.5s-1.5-0.1-2.1-0.4
	s-0.9-0.7-1.2-1.2s-0.4-1.2-0.4-2.1v-5h1.2v5c0,0.7,0.1,1.3,0.2,1.6s0.4,0.6,0.8,0.8c0.4,0.2,0.8,0.3,1.3,0.3c0.9,0,1.5-0.2,1.9-0.6
	s0.6-1.1,0.6-2.2L369.2,123.9L369.2,123.9L369.2,123.9z"/>
<path class="st1" d="M353.1,132.5l3.5-8.6h1.3l3.7,8.6h-1.4l-1.1-2.6h-3.8l-1,2.6H353.1z M355.8,129h3.1l-1-2.4
	c-0.3-0.7-0.5-1.3-0.6-1.8c-0.1,0.6-0.3,1.1-0.5,1.6L355.8,129L355.8,129L355.8,129z"/>
<path class="st1" d="M350.3,130.6h1.2v5c0,0.9-0.1,1.6-0.3,2.1c-0.2,0.5-0.6,0.9-1.1,1.2s-1.2,0.5-2.1,0.5s-1.5-0.1-2.1-0.4
	s-0.9-0.7-1.2-1.2s-0.4-1.2-0.4-2.1v-5h1.2v4.9c0,0.7,0.1,1.3,0.2,1.6s0.4,0.6,0.8,0.8c0.4,0.2,0.8,0.3,1.3,0.3
	c0.9,0,1.5-0.2,1.9-0.6s0.6-1.1,0.6-2.2L350.3,130.6L350.3,130.6L350.3,130.6z"/>
<path class="st1" d="M341.4,129.5l1.2,0.3c-0.2,0.9-0.7,1.6-1.4,2.1c-0.7,0.5-1.5,0.7-2.4,0.7s-1.8-0.2-2.4-0.6
	c-0.6-0.4-1.1-0.9-1.4-1.6c-0.3-0.7-0.5-1.5-0.5-2.3c0-0.9,0.2-1.7,0.5-2.3s0.9-1.2,1.5-1.5c0.7-0.3,1.4-0.5,2.2-0.5
	c0.9,0,1.7,0.2,2.3,0.7s1,1.1,1.3,1.8l-1.2,0.3c-0.2-0.6-0.5-1.1-0.9-1.4c-0.4-0.3-0.9-0.4-1.5-0.4c-0.7,0-1.3,0.2-1.8,0.5
	c-0.5,0.3-0.8,0.7-1,1.3s-0.3,1.1-0.3,1.6c0,0.7,0.1,1.4,0.3,1.9c0.2,0.5,0.6,0.9,1,1.2c0.5,0.3,1,0.4,1.5,0.4
	c0.7,0,1.2-0.2,1.7-0.6C340.9,130.8,341.2,130.2,341.4,129.5L341.4,129.5L341.4,129.5z"/>
<path class="st1" d="M338.7,118v-1h3.9v3.2c-0.6,0.4-1.2,0.8-1.8,1c-0.6,0.2-1.3,0.3-1.9,0.3c-0.9,0-1.7-0.2-2.4-0.5
	s-1.3-0.9-1.7-1.6c-0.4-0.7-0.6-1.4-0.6-2.3s0.2-1.6,0.6-2.3s0.9-1.3,1.6-1.6c0.7-0.3,1.5-0.5,2.4-0.5c0.7,0,1.2,0.1,1.8,0.3
	c0.5,0.2,1,0.5,1.2,0.8c0.3,0.4,0.5,0.8,0.7,1.4l-1.1,0.3c-0.1-0.4-0.3-0.8-0.5-1s-0.5-0.4-0.9-0.6s-0.8-0.2-1.3-0.2
	c-0.5,0-1,0.1-1.4,0.2c-0.4,0.2-0.7,0.4-1,0.6c-0.2,0.3-0.4,0.5-0.6,0.8c-0.2,0.5-0.3,1.1-0.3,1.7c0,0.8,0.1,1.4,0.4,1.9
	s0.7,0.9,1.2,1.2s1.1,0.4,1.7,0.4c0.5,0,1-0.1,1.5-0.3s0.9-0.4,1.1-0.6V118L338.7,118L338.7,118z"/>
<path class="st1" d="M343.7,112.5l3.5-8.6h1.3l3.7,8.6h-1.4l-1.1-2.6H346l-1,2.6H343.7z M346.3,109h3.1l-1-2.4
	c-0.3-0.7-0.5-1.3-0.6-1.8c-0.1,0.6-0.3,1.1-0.5,1.6L346.3,109L346.3,109L346.3,109z"/>
<path class="st1" d="M353.1,114.7l3.5-8.6h1.3l3.7,8.6h-1.4l-1.1-2.6h-3.8l-1,2.6H353.1z M355.8,111.2h3.1l-1-2.4
	c-0.3-0.7-0.5-1.3-0.6-1.8c-0.1,0.6-0.3,1.1-0.5,1.6L355.8,111.2L355.8,111.2L355.8,111.2z"/>
<path class="st7" d="M362.6,114.7l3.5-8.6h1.3l3.7,8.6h-1.4l-1.1-2.6h-3.8l-1,2.6H362.6z M365.2,111.2h3.1l-1-2.4
	c-0.3-0.7-0.5-1.3-0.6-1.8c-0.1,0.6-0.3,1.1-0.5,1.6L365.2,111.2L365.2,111.2L365.2,111.2z"/>
<path class="st7" d="M372,114.7l3.5-8.6h1.3l3.7,8.6h-1.4l-1.1-2.6h-3.8l-1,2.6H372z M374.7,111.2h3.1l-1-2.4
	c-0.3-0.7-0.5-1.3-0.6-1.8c-0.1,0.6-0.3,1.1-0.5,1.6L374.7,111.2L374.7,111.2L374.7,111.2z"/>
<path class="st7" d="M388.1,106.1h1.2v5c0,0.9-0.1,1.6-0.3,2.1c-0.2,0.5-0.6,0.9-1.1,1.2s-1.2,0.5-2.1,0.5s-1.5-0.1-2.1-0.4
	s-0.9-0.7-1.2-1.2s-0.4-1.2-0.4-2.2v-5h1.2v4.9c0,0.7,0.1,1.3,0.2,1.6s0.4,0.6,0.8,0.8c0.4,0.2,0.8,0.3,1.3,0.3
	c0.9,0,1.5-0.2,1.9-0.6s0.6-1.1,0.6-2.2L388.1,106.1L388.1,106.1L388.1,106.1z"/>
<path class="st7" d="M398,111.7l1.2,0.3c-0.2,0.9-0.7,1.7-1.4,2.1c-0.7,0.5-1.5,0.7-2.4,0.7s-1.8-0.2-2.4-0.6
	c-0.6-0.4-1.1-0.9-1.4-1.6c-0.3-0.7-0.5-1.5-0.5-2.3c0-0.9,0.2-1.7,0.5-2.3s0.9-1.2,1.5-1.5c0.7-0.3,1.4-0.5,2.2-0.5
	c0.9,0,1.7,0.2,2.3,0.7s1,1.1,1.3,1.8l-1.2,0.3c-0.2-0.6-0.5-1.1-0.9-1.4c-0.4-0.3-0.9-0.4-1.5-0.4c-0.7,0-1.3,0.2-1.8,0.5
	c-0.5,0.3-0.8,0.7-1,1.3s-0.3,1.1-0.3,1.7c0,0.7,0.1,1.4,0.3,1.9s0.6,0.9,1,1.2c0.5,0.3,1,0.4,1.5,0.4c0.7,0,1.2-0.2,1.7-0.6
	C397.6,113,397.9,112.4,398,111.7L398,111.7L398,111.7z"/>
<path class="st3" d="M398,103.6l3.5-8.6h1.3l3.7,8.6h-1.4l-1.1-2.6h-3.8l-1,2.6H398z M400.6,100.1h3.1l-1-2.4
	c-0.3-0.7-0.5-1.3-0.6-1.8c-0.1,0.6-0.3,1.1-0.5,1.6L400.6,100.1L400.6,100.1L400.6,100.1z"/>
<g>
	<line class="st4" x1="376.3" y1="123" x2="376.3" y2="114.7"/>
	<line class="st4" x1="366.9" y1="123" x2="366.9" y2="114.7"/>
</g>
<path class="st5" d="M412.2,93.9l1.2,0.3c-0.2,0.9-0.7,1.7-1.4,2.1c-0.7,0.5-1.5,0.7-2.4,0.7s-1.8-0.2-2.4-0.6
	c-0.6-0.4-1.1-0.9-1.4-1.6c-0.3-0.7-0.5-1.5-0.5-2.3c0-0.9,0.2-1.7,0.5-2.3s0.9-1.2,1.5-1.5c0.7-0.3,1.4-0.5,2.2-0.5
	c0.9,0,1.7,0.2,2.3,0.7s1,1.1,1.3,1.8l-1.2,0.3c-0.2-0.6-0.5-1.1-0.9-1.4c-0.4-0.3-0.9-0.4-1.5-0.4c-0.7,0-1.3,0.2-1.8,0.5
	c-0.5,0.3-0.8,0.7-1,1.3s-0.3,1.1-0.3,1.7c0,0.7,0.1,1.4,0.3,1.9s0.6,0.9,1,1.2c0.5,0.3,1,0.4,1.5,0.4c0.7,0,1.2-0.2,1.7-0.6
	C411.7,95.2,412.1,94.6,412.2,93.9L412.2,93.9L412.2,93.9z"/>
<path class="st5" d="M412.2,85l1.2,0.3c-0.2,0.9-0.7,1.7-1.4,2.1c-0.7,0.5-1.5,0.7-2.4,0.7s-1.8-0.2-2.4-0.6
	c-0.6-0.4-1.1-0.9-1.4-1.6c-0.3-0.7-0.5-1.5-0.5-2.3c0-0.9,0.2-1.7,0.5-2.3s0.9-1.2,1.5-1.5c0.7-0.3,1.4-0.5,2.2-0.5
	c0.9,0,1.7,0.2,2.3,0.7s1,1.1,1.3,1.8l-1.2,0.3c-0.2-0.6-0.5-1.1-0.9-1.4c-0.4-0.3-0.9-0.4-1.5-0.4c-0.7,0-1.3,0.2-1.8,0.5
	c-0.5,0.3-0.8,0.7-1,1.3s-0.3,1.1-0.3,1.7c0,0.7,0.1,1.4,0.3,1.9s0.6,0.9,1,1.2c0.5,0.3,1,0.4,1.5,0.4c0.7,0,1.2-0.2,1.7-0.6
	C411.7,86.3,412.1,85.7,412.2,85L412.2,85L412.2,85z"/>
<path class="st5" d="M405.1,79.1l3.5-8.6h1.3l3.7,8.6h-1.4l-1.1-2.6h-3.8l-1,2.6H405.1z M407.7,75.6h3.1l-1-2.4
	c-0.3-0.7-0.5-1.3-0.6-1.8c-0.1,0.6-0.3,1.1-0.5,1.6L407.7,75.6L407.7,75.6L407.7,75.6z"/>
<path class="st5" d="M409.6,66.9v-1h3.9V69c-0.6,0.4-1.2,0.8-1.8,1c-0.6,0.2-1.3,0.3-1.9,0.3c-0.9,0-1.7-0.2-2.4-0.5
	s-1.3-0.9-1.7-1.6c-0.4-0.7-0.6-1.4-0.6-2.3s0.2-1.6,0.6-2.3s0.9-1.3,1.6-1.6c0.7-0.3,1.5-0.5,2.4-0.5c0.7,0,1.2,0.1,1.8,0.3
	c0.5,0.2,1,0.5,1.2,0.8s0.5,0.8,0.7,1.4l-1.1,0.3c-0.1-0.4-0.3-0.8-0.5-1s-0.5-0.5-0.9-0.6c-0.4-0.2-0.8-0.2-1.3-0.2
	c-0.5,0-1,0.1-1.4,0.2s-0.7,0.4-1,0.6c-0.2,0.3-0.4,0.5-0.6,0.8c-0.2,0.5-0.3,1.1-0.3,1.7c0,0.8,0.1,1.4,0.4,1.9s0.7,0.9,1.2,1.2
	s1.1,0.4,1.7,0.4c0.5,0,1-0.1,1.5-0.3s0.9-0.4,1.1-0.6v-1.6L409.6,66.9L409.6,66.9z"/>
<path class="st1" d="M398,61.3l3.5-8.6h1.3l3.7,8.6h-1.4l-1.1-2.6h-3.8l-1,2.6H398z M400.6,57.8h3.1l-1-2.4
	c-0.3-0.7-0.5-1.3-0.6-1.8c-0.1,0.5-0.3,1.1-0.5,1.6L400.6,57.8L400.6,57.8L400.6,57.8z"/>
<path class="st1" d="M402.2,41.6h1.2v5c0,0.9-0.1,1.5-0.3,2c-0.2,0.5-0.6,0.9-1.1,1.2c-0.5,0.3-1.2,0.5-2.1,0.5s-1.5-0.1-2.1-0.4
	s-0.9-0.7-1.2-1.2s-0.4-1.2-0.4-2.2v-5h1.2v5c0,0.7,0.1,1.3,0.2,1.6s0.4,0.6,0.8,0.8c0.4,0.2,0.8,0.3,1.3,0.3c0.9,0,1.5-0.2,1.9-0.6
	s0.6-1.1,0.6-2.2L402.2,41.6L402.2,41.6L402.2,41.6z"/>
<path class="st1" d="M404.6,30.5h1.2v5c0,0.9-0.1,1.5-0.3,2c-0.2,0.5-0.6,0.9-1.1,1.2c-0.5,0.3-1.2,0.5-2.1,0.5s-1.5-0.1-2.1-0.4
	s-0.9-0.7-1.2-1.2s-0.4-1.2-0.4-2.2v-5h1.2v5c0,0.7,0.1,1.3,0.2,1.6s0.4,0.6,0.8,0.8c0.4,0.2,0.8,0.3,1.3,0.3c0.9,0,1.5-0.2,1.9-0.6
	s0.6-1.1,0.6-2.2L404.6,30.5L404.6,30.5L404.6,30.5z"/>
<path class="st1" d="M414.3,29v-1h3.9v3.2c-0.6,0.4-1.2,0.8-1.8,1c-0.6,0.2-1.3,0.3-1.9,0.3c-0.9,0-1.7-0.2-2.4-0.5
	s-1.3-0.9-1.7-1.6c-0.4-0.7-0.6-1.5-0.6-2.3s0.2-1.6,0.6-2.3s0.9-1.3,1.6-1.6c0.7-0.4,1.5-0.5,2.4-0.5c0.7,0,1.2,0.1,1.8,0.3
	c0.5,0.2,1,0.5,1.2,0.8s0.5,0.8,0.7,1.4l-1.1,0.3c-0.1-0.4-0.3-0.8-0.5-1s-0.5-0.5-0.9-0.6s-0.8-0.2-1.3-0.2c-0.5,0-1,0.1-1.4,0.2
	s-0.7,0.4-1,0.6c-0.2,0.3-0.4,0.5-0.6,0.9c-0.2,0.5-0.3,1.1-0.3,1.7c0,0.8,0.1,1.4,0.4,1.9s0.7,0.9,1.2,1.1s1.1,0.4,1.7,0.4
	c0.5,0,1-0.1,1.5-0.3s0.9-0.4,1.1-0.6v-1.6L414.3,29L414.3,29z"/>
<path class="st1" d="M426.1,31.3v-1h3.9v3.2c-0.6,0.4-1.2,0.8-1.8,1c-0.6,0.2-1.3,0.3-1.9,0.3c-0.9,0-1.7-0.2-2.4-0.5
	s-1.3-0.9-1.7-1.6c-0.4-0.7-0.6-1.5-0.6-2.3s0.2-1.6,0.6-2.3s0.9-1.3,1.6-1.6c0.7-0.4,1.5-0.5,2.4-0.5c0.7,0,1.2,0.1,1.8,0.3
	c0.5,0.2,1,0.5,1.2,0.8s0.5,0.8,0.7,1.4l-1.1,0.3c-0.1-0.4-0.3-0.8-0.5-1s-0.5-0.5-0.9-0.6s-0.8-0.2-1.3-0.2c-0.5,0-1,0.1-1.4,0.2
	s-0.7,0.4-1,0.6c-0.2,0.3-0.4,0.5-0.6,0.9c-0.2,0.5-0.3,1.1-0.3,1.7c0,0.8,0.1,1.4,0.4,1.9s0.7,0.9,1.2,1.2s1.1,0.4,1.7,0.4
	c0.5,0,1-0.1,1.5-0.3s0.9-0.4,1.1-0.6v-1.6L426.1,31.3L426.1,31.3z"/>
<path class="st1" d="M433.5,39.1l3.5-8.6h1.3l3.7,8.6h-1.4l-1.1-2.6h-3.8l-1,2.6H433.5z M436.1,35.6h3.1l-1-2.4
	c-0.3-0.7-0.5-1.3-0.6-1.8c-0.1,0.5-0.3,1.1-0.5,1.6L436.1,35.6L436.1,35.6L436.1,35.6z"/>
<path class="st1" d="M440.6,47.2l1.2,0.3c-0.2,0.9-0.7,1.7-1.4,2.1c-0.7,0.5-1.5,0.7-2.4,0.7s-1.8-0.2-2.4-0.6
	c-0.6-0.4-1.1-0.9-1.4-1.6c-0.3-0.7-0.5-1.5-0.5-2.3c0-0.9,0.2-1.7,0.5-2.3s0.9-1.2,1.5-1.5c0.7-0.3,1.4-0.5,2.2-0.5
	c0.9,0,1.7,0.2,2.3,0.7s1,1,1.3,1.8l-1.2,0.3c-0.2-0.6-0.5-1.1-0.9-1.4c-0.4-0.3-0.9-0.4-1.5-0.4c-0.7,0-1.3,0.2-1.8,0.5
	c-0.5,0.3-0.8,0.7-1,1.3s-0.3,1.1-0.3,1.7c0,0.7,0.1,1.4,0.3,1.9s0.6,1,1,1.2c0.5,0.3,1,0.4,1.5,0.4c0.7,0,1.2-0.2,1.7-0.5
	C440.1,48.5,440.4,47.9,440.6,47.2L440.6,47.2L440.6,47.2z"/>
<path class="st1" d="M438.2,58.3l1.2,0.3c-0.2,0.9-0.7,1.7-1.4,2.1c-0.7,0.5-1.5,0.7-2.4,0.7s-1.8-0.2-2.4-0.6
	c-0.6-0.4-1.1-0.9-1.4-1.6c-0.3-0.7-0.5-1.5-0.5-2.3c0-0.9,0.2-1.7,0.5-2.3s0.9-1.2,1.5-1.5c0.7-0.3,1.4-0.5,2.2-0.5
	c0.9,0,1.7,0.2,2.3,0.7s1,1,1.3,1.8l-1.2,0.3c-0.2-0.6-0.5-1.1-0.9-1.4c-0.4-0.3-0.9-0.4-1.5-0.4c-0.7,0-1.3,0.2-1.8,0.5
	c-0.5,0.3-0.8,0.7-1,1.3s-0.3,1.1-0.3,1.7c0,0.7,0.1,1.4,0.3,1.9s0.6,1,1,1.2c0.5,0.3,1,0.4,1.5,0.4c0.7,0,1.2-0.2,1.7-0.5
	C437.7,59.6,438,59,438.2,58.3L438.2,58.3L438.2,58.3z"/>
<path class="st5" d="M431.1,67.2l1.2,0.3c-0.2,0.9-0.7,1.7-1.4,2.1c-0.7,0.5-1.5,0.7-2.4,0.7s-1.8-0.2-2.4-0.6
	c-0.6-0.4-1.1-0.9-1.4-1.6c-0.3-0.7-0.5-1.5-0.5-2.3c0-0.9,0.2-1.7,0.5-2.3s0.9-1.2,1.5-1.5c0.7-0.3,1.4-0.5,2.2-0.5
	c0.9,0,1.7,0.2,2.3,0.7s1,1,1.3,1.8l-1.2,0.3c-0.2-0.6-0.5-1.1-0.9-1.4c-0.4-0.3-0.9-0.4-1.5-0.4c-0.7,0-1.3,0.2-1.8,0.5
	c-0.5,0.3-0.8,0.7-1,1.3c-0.2,0.5-0.3,1.1-0.3,1.7c0,0.7,0.1,1.4,0.3,1.9s0.6,0.9,1,1.2c0.5,0.3,1,0.4,1.5,0.4
	c0.7,0,1.2-0.2,1.7-0.6C430.6,68.5,431,67.9,431.1,67.2L431.1,67.2L431.1,67.2z"/>
<path class="st5" d="M430.6,70.5h1.2v5c0,0.9-0.1,1.6-0.3,2.1c-0.2,0.5-0.6,0.9-1.1,1.2s-1.2,0.5-2.1,0.5s-1.5-0.1-2.1-0.4
	s-0.9-0.7-1.2-1.2s-0.4-1.2-0.4-2.2v-5h1.2v4.9c0,0.7,0.1,1.3,0.2,1.6s0.4,0.6,0.8,0.8c0.4,0.2,0.8,0.3,1.3,0.3
	c0.9,0,1.5-0.2,1.9-0.6s0.6-1.1,0.6-2.2L430.6,70.5L430.6,70.5L430.6,70.5z"/>
<path class="st5" d="M428.5,84.7v-1h3.9v3.2c-0.6,0.4-1.2,0.8-1.8,1c-0.6,0.2-1.3,0.3-1.9,0.3c-0.9,0-1.7-0.2-2.4-0.5
	s-1.3-0.9-1.7-1.6c-0.4-0.7-0.6-1.4-0.6-2.3s0.2-1.6,0.6-2.3s0.9-1.3,1.6-1.6c0.7-0.3,1.5-0.5,2.4-0.5c0.7,0,1.2,0.1,1.8,0.3
	c0.5,0.2,1,0.5,1.2,0.8c0.3,0.4,0.5,0.8,0.7,1.4l-1.1,0.3c-0.1-0.4-0.3-0.8-0.5-1s-0.5-0.4-0.9-0.6s-0.8-0.2-1.3-0.2
	c-0.5,0-1,0.1-1.4,0.2c-0.4,0.2-0.7,0.4-1,0.6c-0.2,0.3-0.4,0.5-0.6,0.8c-0.2,0.5-0.3,1.1-0.3,1.7c0,0.8,0.1,1.4,0.4,1.9
	s0.7,0.9,1.2,1.2s1.1,0.4,1.7,0.4c0.5,0,1-0.1,1.5-0.3s0.9-0.4,1.1-0.6v-1.6L428.5,84.7L428.5,84.7z"/>
<path class="st5" d="M428.5,93.6v-1h3.9v3.2c-0.6,0.4-1.2,0.8-1.8,1c-0.6,0.2-1.3,0.3-1.9,0.3c-0.9,0-1.7-0.2-2.4-0.5
	s-1.3-0.9-1.7-1.6c-0.4-0.7-0.6-1.4-0.6-2.3s0.2-1.6,0.6-2.3s0.9-1.3,1.6-1.6c0.7-0.3,1.5-0.5,2.4-0.5c0.7,0,1.2,0.1,1.8,0.3
	c0.5,0.2,1,0.5,1.2,0.8c0.3,0.4,0.5,0.8,0.7,1.4l-1.1,0.3c-0.1-0.4-0.3-0.8-0.5-1s-0.5-0.4-0.9-0.6s-0.8-0.2-1.3-0.2
	c-0.5,0-1,0.1-1.4,0.2c-0.4,0.2-0.7,0.4-1,0.6c-0.2,0.3-0.4,0.5-0.6,0.8c-0.2,0.5-0.3,1.1-0.3,1.7c0,0.8,0.1,1.4,0.4,1.9
	s0.7,0.9,1.2,1.2s1.1,0.4,1.7,0.4c0.5,0,1-0.1,1.5-0.3s0.9-0.4,1.1-0.6v-1.6L428.5,93.6L428.5,93.6z"/>
<path class="st1" d="M438.9,92.3h1.2v5c0,0.9-0.1,1.6-0.3,2.1c-0.2,0.5-0.6,0.9-1.1,1.2s-1.2,0.5-2.1,0.5s-1.5-0.1-2.1-0.4
	s-0.9-0.7-1.2-1.2s-0.4-1.2-0.4-2.2v-5h1.2v4.9c0,0.7,0.1,1.3,0.2,1.6s0.4,0.6,0.8,0.8c0.4,0.2,0.8,0.3,1.3,0.3
	c0.9,0,1.5-0.2,1.9-0.6s0.6-1.1,0.6-2.2L438.9,92.3L438.9,92.3L438.9,92.3z"/>
<path class="st1" d="M447.1,97.2h1.2v5c0,0.9-0.1,1.6-0.3,2.1c-0.2,0.5-0.6,0.9-1.1,1.2s-1.2,0.5-2.1,0.5s-1.5-0.1-2.1-0.4
	s-0.9-0.7-1.2-1.2s-0.4-1.2-0.4-2.2v-5h1.2v4.9c0,0.7,0.1,1.3,0.2,1.6s0.4,0.6,0.8,0.8c0.4,0.2,0.8,0.3,1.3,0.3
	c0.9,0,1.5-0.2,1.9-0.6s0.6-1.1,0.6-2.2L447.1,97.2L447.1,97.2L447.1,97.2z"/>
<line class="st2" x1="449.3" y1="97.1" x2="453.7" y2="92.9"/>
<path d="M460,83.5l-1.1,0.1c-0.1-0.4-0.2-0.7-0.4-0.9c-0.3-0.3-0.7-0.4-1.1-0.4c-0.4,0-0.7,0.1-0.9,0.3c-0.4,0.2-0.6,0.6-0.8,1.1
	c-0.2,0.5-0.3,1.1-0.3,2c0.3-0.4,0.6-0.7,1-0.9c0.4-0.2,0.8-0.3,1.2-0.3c0.8,0,1.4,0.3,1.9,0.8c0.5,0.5,0.8,1.2,0.8,2
	c0,0.5-0.1,1-0.4,1.5s-0.6,0.8-1,1.1c-0.4,0.2-0.9,0.4-1.5,0.4c-0.9,0-1.7-0.3-2.3-1s-0.9-1.7-0.9-3.2c0-1.7,0.3-2.9,1-3.6
	c0.6-0.7,1.3-1,2.3-1c0.7,0,1.3,0.2,1.8,0.6C459.7,82.3,460,82.8,460,83.5L460,83.5L460,83.5z M455.5,87.2c0,0.4,0.1,0.7,0.2,1
	s0.4,0.6,0.7,0.8c0.3,0.2,0.6,0.3,0.9,0.3c0.5,0,0.9-0.2,1.2-0.5s0.5-0.8,0.5-1.5s-0.2-1.1-0.5-1.4c-0.3-0.3-0.8-0.5-1.3-0.5
	s-0.9,0.2-1.3,0.5C455.7,86.2,455.5,86.7,455.5,87.2L455.5,87.2L455.5,87.2z M461.2,85.8c0-1,0.1-1.8,0.3-2.4c0.2-0.6,0.5-1.1,1-1.4
	c0.4-0.3,1-0.5,1.6-0.5c0.5,0,0.9,0.1,1.3,0.3s0.7,0.4,0.9,0.8c0.2,0.3,0.4,0.8,0.6,1.3s0.2,1.2,0.2,2c0,1-0.1,1.8-0.3,2.4
	s-0.5,1.1-1,1.4c-0.4,0.3-1,0.5-1.6,0.5c-0.9,0-1.6-0.3-2.1-0.9C461.5,88.5,461.2,87.4,461.2,85.8z M462.4,85.8
	c0,1.4,0.2,2.3,0.5,2.8c0.4,0.5,0.8,0.7,1.3,0.7s0.9-0.2,1.3-0.7s0.5-1.4,0.5-2.8s-0.2-2.3-0.5-2.8s-0.8-0.7-1.3-0.7
	s-0.9,0.2-1.2,0.6C462.6,83.4,462.4,84.3,462.4,85.8L462.4,85.8L462.4,85.8z"/>
<path class="st1" d="M447.6,110.2l3.5-8.6h1.3l3.7,8.6h-1.4l-1.1-2.6h-3.8l-1,2.6H447.6z M450.3,106.7h3.1l-1-2.4
	c-0.3-0.7-0.5-1.3-0.6-1.8c-0.1,0.6-0.3,1.1-0.5,1.6L450.3,106.7L450.3,106.7L450.3,106.7z"/>
<line class="st4" x1="414.6" y1="74.6" x2="423.3" y2="74.6"/>
<line class="st4" x1="414" y1="65.9" x2="423.8" y2="65.9"/>
<line class="st4" x1="414.6" y1="85.3" x2="423.3" y2="85.3"/>
<line class="st4" x1="414.6" y1="92.7" x2="423.3" y2="92.7"/>
<g>
	<line class="st4" x1="395.4" y1="123" x2="395.4" y2="115.6"/>
	<line class="st4" x1="386" y1="123" x2="386" y2="115.6"/>
</g>
<g>
	<line class="st4" x1="418.9" y1="181.3" x2="428.7" y2="181.3"/>
	<line class="st4" x1="418.9" y1="143.5" x2="428.7" y2="143.5"/>
	<line class="st4" x1="419.1" y1="152.6" x2="429" y2="152.6"/>
	<line class="st4" x1="418.7" y1="161.5" x2="428.5" y2="161.5"/>
	<line class="st4" x1="418.9" y1="172.5" x2="429.2" y2="172.5"/>
</g>
<line class="st4" x1="420.5" y1="212.6" x2="431.4" y2="212.6"/>
<line class="st4" x1="420.7" y1="239.4" x2="430.4" y2="239.4"/>
<line class="st4" x1="420.6" y1="332.7" x2="430.5" y2="332.7"/>
<line class="st4" x1="420.9" y1="341.5" x2="430.8" y2="341.5"/>
<line class="st4" x1="421.4" y1="350.5" x2="431.4" y2="350.5"/>
<g>
	<text transform="matrix(1 0 0 1 15.5133 30.5101)" class="st8 st9">RN</text>
	<text transform="matrix(1 0 0 1 45.8433 30.5101)" class="st8 st9 st10">A</text>
	<text transform="matrix(1 0 0 1 58.6933 30.5101)" class="st8 st9"> 12 E4 aptamer</text>
</g>
<text transform="matrix(1 0 0 1 411.74 389.1)" class="st8 st11">5</text>
<text transform="matrix(1 0 0 1 418.41 389.1)" class="st8 st11">’</text>
<text transform="matrix(0.86 0 0 1 435.1602 394.7695)" class="st8 st11">3</text>
<text transform="matrix(0.86 0 0 1 440.8965 394.7695)" class="st8 st11">’</text>
</svg>
