<svg id="图层_1" data-name="图层 1" xmlns="http://www.w3.org/2000/svg" viewBox="0 0 400 400"><defs><style>.cls-1,.cls-10,.cls-11,.cls-13,.cls-14,.cls-15,.cls-16,.cls-2,.cls-3,.cls-4,.cls-5,.cls-6,.cls-7,.cls-8,.cls-9{isolation:isolate;}.cls-1,.cls-10,.cls-11,.cls-2,.cls-3,.cls-4,.cls-5,.cls-6,.cls-8,.cls-9{font-size:14.86px;}.cls-1,.cls-6{fill:#32cd32;}.cls-1,.cls-10,.cls-11,.cls-14,.cls-15,.cls-16,.cls-2,.cls-3,.cls-4,.cls-5,.cls-6,.cls-7,.cls-8,.cls-9{font-family:ArialMT, Arial;}.cls-2,.cls-8{fill:#228b22;}.cls-10,.cls-3{fill:#80db9e;}.cls-11,.cls-4{fill:#c2c2ff;}.cls-5,.cls-9{fill:teal;}.cls-10,.cls-11,.cls-6,.cls-8,.cls-9{letter-spacing:-0.11em;}.cls-7{font-size:14px;}.cls-12{stroke:#000;stroke-miterlimit:10;stroke-width:0.07px;}.cls-14,.cls-15{font-size:16px;}.cls-15{letter-spacing:-0.08em;}.cls-16{font-size:20px;}</style></defs><g id="ID000002"><text class="cls-1" transform="translate(216.72 340.4)">U</text></g><g id="ID000002-2" data-name="ID000002"><text class="cls-1" transform="translate(238.31 330.43)">U</text></g><g id="ID000002-3" data-name="ID000002"><text class="cls-1" transform="translate(249.63 320.17)">U</text></g><g id="ID000002-4" data-name="ID000002"><text class="cls-2" transform="translate(376.95 284.42)">U</text></g><g id="ID000002-5" data-name="ID000002"><text class="cls-2" transform="translate(364.03 274.08)">U</text></g><g id="ID000002-6" data-name="ID000002"><text class="cls-3" transform="translate(105.62 117.09)">U</text></g><g id="ID000002-7" data-name="ID000002"><text class="cls-4" transform="translate(28.77 164.31)">U</text></g><g id="ID000005"><text class="cls-2" transform="translate(376.95 297.47)">C</text></g><g id="ID000008"><text class="cls-1" transform="translate(206.82 348.17)">C</text></g><g id="ID000008-2" data-name="ID000008"><text class="cls-2" transform="translate(305.41 303.8)">C</text></g><g id="ID000008-3" data-name="ID000008"><text class="cls-2" transform="translate(320.48 303.8)">C</text></g><g id="ID000008-4" data-name="ID000008"><text class="cls-5" transform="translate(218.75 253.05)">C</text></g><g id="ID000008-5" data-name="ID000008"><text class="cls-3" transform="translate(122.82 88.12)">C</text></g><g id="ID000008-6" data-name="ID000008"><text class="cls-3" transform="translate(122.82 75.72)">C</text></g><g id="ID000008-7" data-name="ID000008"><text class="cls-5" transform="translate(217.61 294.78)">C</text></g><g id="ID000008-8" data-name="ID000008"><text class="cls-1" transform="translate(208.78 308.3)">C</text></g><g id="ID000009"><text class="cls-6" transform="translate(229.04 339.37)">A</text></g><g id="ID000011"><text class="cls-2" transform="translate(252.67 278.92)">U</text></g><g id="ID000011-2" data-name="ID000011"><text class="cls-5" transform="translate(228.74 261.72)">U</text></g><g id="ID000011-3" data-name="ID000011"><text class="cls-5" transform="translate(191.64 226.57)">U</text></g><g id="ID000011-4" data-name="ID000011"><text class="cls-5" transform="translate(182.68 218.17)">U</text></g><g id="ID000011-5" data-name="ID000011"><text class="cls-5" transform="translate(173.81 208.88)">U</text></g><g id="ID000011-6" data-name="ID000011"><text class="cls-5" transform="translate(147.55 180.8)">U</text></g><g id="ID000011-7" data-name="ID000011"><text class="cls-3" transform="translate(122.82 103.65)">U</text></g><g id="ID000011-8" data-name="ID000011"><text class="cls-3" transform="translate(97.37 61.1)">U</text></g><g id="ID000011-9" data-name="ID000011"><text class="cls-4" transform="translate(63.45 170.38)">U</text></g><g id="ID000011-10" data-name="ID000011"><text class="cls-4" transform="translate(16.52 174.12)">U</text></g><g id="ID000011-11" data-name="ID000011"><text class="cls-5" transform="translate(116.48 207.13)">U</text></g><g id="ID000011-12" data-name="ID000011"><text class="cls-4" transform="translate(100.2 190.86)">U</text></g><g id="ID000011-13" data-name="ID000011"><text class="cls-5" transform="translate(147.09 218.17)">U</text></g><g id="ID000011-14" data-name="ID000011"><text class="cls-4" transform="translate(76.01 190.86)">U</text></g><g id="ID000011-15" data-name="ID000011"><text class="cls-1" transform="translate(160.9 356.2)">U</text></g><g id="ID000013"><text class="cls-7" transform="translate(76.86 131.01)">40</text></g><g id="ID000013-2" data-name="ID000013"><text class="cls-7" transform="translate(159.06 41.71)">50</text></g><g id="ID000013-3" data-name="ID000013"><text class="cls-7" transform="translate(164.85 152.58)">60</text></g><g id="ID000013-4" data-name="ID000013"><text class="cls-7" transform="translate(246.49 242.83)">60</text></g><g id="ID000013-5" data-name="ID000013"><text class="cls-7" transform="translate(361.41 251.44)">70</text></g><g id="ID000013-6" data-name="ID000013"><text class="cls-7" transform="translate(265.95 326.78)">80</text></g><g id="ID000013-7" data-name="ID000013"><text class="cls-7" transform="translate(86.77 224.39)">20</text></g><g id="ID000013-8" data-name="ID000013"><text class="cls-7" transform="translate(179.08 290.02)">10</text></g><g id="ID000014"><text class="cls-2" transform="translate(350.21 280.76)">C</text></g><g id="ID000014-2" data-name="ID000014"><text class="cls-2" transform="translate(335.15 280.76)">C</text></g><g id="ID000014-3" data-name="ID000014"><text class="cls-2" transform="translate(281.99 278.92)">C</text></g><g id="ID000014-4" data-name="ID000014"><text class="cls-2" transform="translate(267.33 278.92)">C</text></g><g id="ID000014-5" data-name="ID000014"><text class="cls-5" transform="translate(155.29 190.44)">C</text></g><g id="ID000015"><text class="cls-8" transform="translate(253.01 304.44)">A</text></g><g id="ID000015-2" data-name="ID000015"><text class="cls-9" transform="translate(210.22 280.49)">A</text></g><g id="ID000015-3" data-name="ID000015"><text class="cls-6" transform="translate(181.71 340.4)">A</text></g><g id="ID000016"><text class="cls-9" transform="translate(134.02 160.37)">A</text></g><g id="ID000016-2" data-name="ID000016"><text class="cls-10" transform="translate(131.91 28.13)">A</text></g><g id="ID000016-3" data-name="ID000016"><text class="cls-10" transform="translate(114.3 19.12)">A</text></g><g id="ID000016-4" data-name="ID000016"><text class="cls-11" transform="translate(100.02 170.38)">A</text></g><g id="ID000016-5" data-name="ID000016"><text class="cls-9" transform="translate(164.72 235.3)">A</text></g><g id="ID000017"><text class="cls-2" transform="translate(363.62 308.48)">G</text></g><g id="ID000017-2" data-name="ID000017"><text class="cls-2" transform="translate(319.68 280.76)">G</text></g><g id="ID000017-3" data-name="ID000017"><text class="cls-2" transform="translate(304.62 280.76)">G</text></g><g id="ID000017-4" data-name="ID000017"><text class="cls-5" transform="translate(237.59 274.87)">G</text></g><g id="ID000017-5" data-name="ID000017"><text class="cls-5" transform="translate(210.2 244.45)">G</text></g><g id="ID000017-6" data-name="ID000017"><text class="cls-5" transform="translate(163.66 199.37)">G</text></g><g id="ID000017-7" data-name="ID000017"><text class="cls-3" transform="translate(122.41 144.27)">G</text></g><g id="ID000017-8" data-name="ID000017"><text class="cls-3" transform="translate(122.41 117.09)">G</text></g><g id="ID000017-9" data-name="ID000017"><text class="cls-3" transform="translate(95.77 28.13)">G</text></g><g id="ID000017-10" data-name="ID000017"><text class="cls-3" transform="translate(90.52 44.97)">G</text></g><g id="ID000017-11" data-name="ID000017"><text class="cls-3" transform="translate(105.21 157.88)">G</text></g><g id="ID000017-12" data-name="ID000017"><text class="cls-5" transform="translate(136.92 208.21)">G</text></g><g id="ID000017-13" data-name="ID000017"><text class="cls-4" transform="translate(51.59 190.86)">G</text></g><g id="ID000017-14" data-name="ID000017"><text class="cls-4" transform="translate(64.5 190.86)">G</text></g><g id="ID000017-15" data-name="ID000017"><text class="cls-5" transform="translate(154.5 226.57)">G</text></g><g id="ID000017-16" data-name="ID000017"><text class="cls-5" transform="translate(173.5 244.63)">G</text></g><g id="ID000017-17" data-name="ID000017"><text class="cls-1" transform="translate(189.14 329.76)">G</text></g><g id="ID000017-18" data-name="ID000017"><text class="cls-1" transform="translate(171.1 349.61)">G</text></g><g id="ID000017-19" data-name="ID000017"><text class="cls-1" transform="translate(149.12 362.01)">G</text></g><g id="ID000018"><text class="cls-3" transform="translate(105.21 130.83)">G</text></g><g id="ID000018-2" data-name="ID000018"><text class="cls-5" transform="translate(105.18 203.07)">G</text></g><g id="ID000018-3" data-name="ID000018"><text class="cls-5" transform="translate(127.52 198.91)">G</text></g><g id="ID000020"><text class="cls-2" transform="translate(292.01 267.93)">G</text></g><g id="ID000020-2" data-name="ID000020"><text class="cls-3" transform="translate(105.21 75.72)">G</text></g><g id="ID000020-3" data-name="ID000020"><text class="cls-4" transform="translate(87.53 170.38)">G</text></g><g id="ID000021"><text class="cls-5" transform="translate(201.2 235.3)">G</text></g><g id="ID000021-2" data-name="ID000021"><text class="cls-3" transform="translate(105.21 89.68)">G</text></g><g id="ID000021-3" data-name="ID000021"><text class="cls-4" transform="translate(74.28 170.38)">G</text></g><g id="ID000022"><text class="cls-3" transform="translate(105.21 103.65)">G</text></g><g id="ID000023"><text class="cls-1" transform="translate(198.27 358.13)">U</text></g><g id="ID000023-2" data-name="ID000023"><text class="cls-4" transform="translate(28.77 197.11)">U</text></g><g id="ID000026"><text class="cls-1" transform="translate(185.23 380.65)">U</text></g><g id="ID000027"><text class="cls-1" transform="translate(188.35 367.02)">C</text></g><g id="ID000028"><text class="cls-11" transform="translate(41.78 160.58)">A</text></g><g id="ID000028-2" data-name="ID000028"><text class="cls-11" transform="translate(17.19 187.3)">A</text></g><g id="ID000028-3" data-name="ID000028"><text class="cls-6" transform="translate(200.44 321.28)">A</text></g><g id="ID000030"><text class="cls-4" transform="translate(52.01 170.38)">C</text></g><g id="ID000031"><text class="cls-5" transform="translate(200.88 272.73)">G</text></g><g id="ID000032"><text class="cls-3" transform="translate(134.63 43.71)">C</text></g><g id="ID000032-2" data-name="ID000032"><text class="cls-4" transform="translate(41.38 199.49)">C</text></g><g id="ID000033"><text class="cls-5" transform="translate(143.71 167.44)">C</text></g><g id="ID000033-2" data-name="ID000033"><text class="cls-3" transform="translate(130.12 61.1)">C</text></g><g id="ID000033-3" data-name="ID000033"><text class="cls-3" transform="translate(105.62 144.27)">C</text></g><g id="ID000033-4" data-name="ID000033"><text class="cls-5" transform="translate(183.29 253.51)">C</text></g><g id="ID000033-5" data-name="ID000033"><text class="cls-4" transform="translate(87.83 190.86)">C</text></g><g id="ID000033-6" data-name="ID000033"><text class="cls-5" transform="translate(191.75 262.77)">C</text></g><g id="ID000034"><text class="cls-3" transform="translate(122.82 157.56)">C</text></g><g id="ID000035"><text class="cls-3" transform="translate(122.82 130.83)">C</text></g><g id="ID000039"><text class="cls-2" transform="translate(267.09 304.44)">G</text></g><g id="ID000039-2" data-name="ID000039"><text class="cls-2" transform="translate(281.38 304.44)">G</text></g><g id="ID000043"><text class="cls-2" transform="translate(335.14 303.8)">G</text></g><g id="ID000043-2" data-name="ID000043"><text class="cls-2" transform="translate(350.21 303.8)">G</text></g><g id="ID000045"><text class="cls-2" transform="translate(292.79 315.6)">G</text></g><g id="ID000054"><line class="cls-12" x1="57.57" y1="171.02" x2="57.57" y2="179.01"/></g><g id="ID000054-2" data-name="ID000054"><line class="cls-12" x1="258.58" y1="280.04" x2="258.58" y2="291.32"/></g><g id="ID000054-3" data-name="ID000054"><line class="cls-12" x1="272.69" y1="280.04" x2="272.69" y2="291.32"/></g><g id="ID000054-4" data-name="ID000054"><line class="cls-12" x1="287.51" y1="280.04" x2="287.51" y2="291.32"/></g><g id="ID000054-5" data-name="ID000054"><line class="cls-12" x1="368.59" y1="251.05" x2="368.59" y2="262.33"/></g><g id="ID000054-6" data-name="ID000054"><line class="cls-12" x1="272.69" y1="304.89" x2="272.69" y2="316.17"/></g><g id="ID000054-7" data-name="ID000054"><line class="cls-12" x1="310.78" y1="281.02" x2="310.78" y2="292.29"/></g><g id="ID000054-8" data-name="ID000054"><line class="cls-12" x1="325.3" y1="281.35" x2="325.3" y2="292.62"/></g><g id="ID000054-9" data-name="ID000054"><line class="cls-12" x1="340.72" y1="281.39" x2="340.72" y2="292.67"/></g><g id="ID000054-10" data-name="ID000054"><line class="cls-12" x1="355.4" y1="281.39" x2="355.4" y2="292.67"/></g><g id="ID000054-11" data-name="ID000054"><line class="cls-12" x1="93.37" y1="171.02" x2="93.37" y2="179.01"/></g><g id="ID000054-12" data-name="ID000054"><line class="cls-12" x1="105.14" y1="170.12" x2="105.14" y2="178.11"/></g><g id="ID000054-13" data-name="ID000054"><line class="cls-12" x1="122.19" y1="70.95" x2="117.4" y2="70.98"/></g><g id="ID000054-14" data-name="ID000054"><line class="cls-12" x1="122.19" y1="83.93" x2="117.4" y2="83.96"/></g><g id="ID000054-15" data-name="ID000054"><line class="cls-12" x1="122.19" y1="125.22" x2="117.4" y2="125.25"/></g><g id="ID000054-16" data-name="ID000054"><line class="cls-12" x1="122.19" y1="139.15" x2="117.4" y2="139.18"/></g><g id="ID000054-17" data-name="ID000054"><line class="cls-12" x1="122.57" y1="153.65" x2="117.79" y2="153.68"/></g><g id="ID000054-18" data-name="ID000054"><line class="cls-12" x1="156.34" y1="189.62" x2="148.22" y2="198.71"/></g><g id="ID000054-19" data-name="ID000054"><line class="cls-12" x1="180.9" y1="349.05" x2="188.62" y2="358.4"/></g><g id="ID000054-20" data-name="ID000054"><line class="cls-12" x1="191.16" y1="340.88" x2="198.88" y2="350.23"/></g><g id="ID000054-21" data-name="ID000054"><line class="cls-12" x1="200.05" y1="329.93" x2="207.77" y2="339.28"/></g><g id="ID000054-22" data-name="ID000054"><line class="cls-12" x1="209.72" y1="321.73" x2="217.43" y2="331.08"/></g><g id="ID000054-23" data-name="ID000054"><line class="cls-12" x1="201.54" y1="233.81" x2="193.42" y2="242.9"/></g><g id="ID000054-24" data-name="ID000054"><line class="cls-12" x1="211.56" y1="243.78" x2="203.44" y2="252.86"/></g><g id="ID000054-25" data-name="ID000054"><line class="cls-12" x1="219.67" y1="252.83" x2="211.55" y2="261.92"/></g><g id="ID000054-26" data-name="ID000054"><line class="cls-12" x1="228.42" y1="261.44" x2="220.31" y2="270.53"/></g><g id="ID000054-27" data-name="ID000054"><line class="cls-12" x1="201.95" y1="271.16" x2="193.83" y2="280.25"/></g><g id="ID000054-28" data-name="ID000054"><line class="cls-12" x1="107.78" y1="203.75" x2="99.66" y2="212.84"/></g><g id="ID000054-29" data-name="ID000054"><line class="cls-12" x1="105.06" y1="125.06" x2="92.88" y2="125.44"/></g><g id="ID000054-30" data-name="ID000054"><line class="cls-12" x1="165.03" y1="153.22" x2="154.83" y2="159.89"/></g><g id="ID000054-31" data-name="ID000054"><line class="cls-12" x1="247.63" y1="242.98" x2="239.09" y2="251.66"/></g><g id="ID000054-32" data-name="ID000054"><line class="cls-12" x1="157.37" y1="37.56" x2="145.19" y2="37.93"/></g><g id="ID000054-33" data-name="ID000054"><line class="cls-12" x1="238.68" y1="273.95" x2="228.57" y2="285.26"/></g><g id="ID000054-34" data-name="ID000054"><line class="cls-12" x1="182.39" y1="217.48" x2="174.27" y2="226.57"/></g><g class="cls-13"><text class="cls-14" transform="translate(130.92 362.01)">5</text><text class="cls-15" transform="translate(139.82 362.01)">’</text></g><g class="cls-13"><text class="cls-14" transform="translate(197.22 387.34)">3</text><text class="cls-15" transform="translate(206.12 387.34)">’</text></g><text class="cls-16" transform="translate(221.53 135.55)">APC-99 aptamer</text><g id="ID000038"><polygon class="cls-12" points="119.8 96.92 119.67 96.95 119.55 96.95 119.42 96.98 119.3 97.01 119.18 97.04 119.06 97.07 118.93 97.13 118.84 97.19 118.72 97.26 118.59 97.32 118.5 97.41 118.41 97.47 118.32 97.56 118.25 97.69 118.16 97.78 118.1 97.87 118.04 98 117.98 98.12 117.92 98.21 117.88 98.33 117.85 98.46 117.82 98.58 117.79 98.7 117.79 98.86 117.79 98.98 117.79 99.11 117.82 99.23 117.82 99.35 117.85 99.47 117.92 99.6 117.95 99.72 118.01 99.84 118.07 99.94 118.13 100.06 118.19 100.15 118.28 100.25 118.38 100.34 118.47 100.43 118.56 100.52 118.66 100.58 118.78 100.68 118.87 100.74 118.99 100.77 119.12 100.83 119.24 100.86 119.36 100.89 119.49 100.92 119.61 100.95 119.73 100.95 119.86 100.95 119.98 100.95 120.1 100.92 120.26 100.89 120.38 100.86 120.47 100.83 120.6 100.77 120.72 100.74 120.84 100.68 120.94 100.58 121.03 100.52 121.15 100.43 121.24 100.34 121.34 100.25 121.4 100.15 121.49 100.06 121.55 99.94 121.61 99.84 121.64 99.72 121.71 99.6 121.74 99.47 121.77 99.35 121.8 99.23 121.8 99.11 121.8 98.98 121.8 98.86 121.8 98.7 121.77 98.58 121.77 98.46 121.71 98.33 121.67 98.21 121.64 98.12 121.58 98 121.52 97.87 121.43 97.78 121.37 97.69 121.28 97.56 121.18 97.47 121.09 97.41 121 97.32 120.87 97.26 120.78 97.19 120.66 97.13 120.53 97.07 120.41 97.04 120.29 97.01 120.17 96.98 120.04 96.95 119.92 96.95 119.8 96.92"/></g><g id="ID000038-2" data-name="ID000038"><polygon class="cls-12" points="80.86 172.95 80.73 172.98 80.61 172.98 80.49 173.01 80.36 173.05 80.24 173.08 80.12 173.11 80 173.17 79.9 173.23 79.78 173.29 79.66 173.35 79.56 173.45 79.47 173.51 79.38 173.6 79.32 173.72 79.22 173.82 79.16 173.91 79.1 174.03 79.04 174.16 78.98 174.25 78.95 174.37 78.92 174.49 78.89 174.62 78.86 174.74 78.86 174.9 78.86 175.02 78.86 175.14 78.89 175.26 78.89 175.39 78.92 175.51 78.98 175.63 79.01 175.76 79.07 175.88 79.13 175.97 79.19 176.1 79.25 176.19 79.35 176.28 79.44 176.37 79.53 176.47 79.63 176.56 79.72 176.62 79.84 176.71 79.93 176.78 80.06 176.81 80.18 176.87 80.3 176.9 80.43 176.93 80.55 176.96 80.67 176.99 80.8 176.99 80.92 176.99 81.04 176.99 81.17 176.96 81.32 176.93 81.44 176.9 81.54 176.87 81.66 176.81 81.78 176.78 81.91 176.71 82 176.62 82.09 176.56 82.21 176.47 82.31 176.37 82.4 176.28 82.46 176.19 82.55 176.1 82.61 175.97 82.68 175.88 82.71 175.76 82.77 175.63 82.8 175.51 82.83 175.39 82.86 175.26 82.86 175.14 82.86 175.02 82.86 174.9 82.86 174.74 82.83 174.62 82.83 174.49 82.77 174.37 82.74 174.25 82.71 174.16 82.64 174.03 82.58 173.91 82.49 173.82 82.43 173.72 82.34 173.6 82.25 173.51 82.15 173.45 82.06 173.35 81.94 173.29 81.84 173.23 81.72 173.17 81.6 173.11 81.47 173.08 81.35 173.05 81.23 173.01 81.1 172.98 80.98 172.98 80.86 172.95"/></g><g id="ID000038-3" data-name="ID000038"><polygon class="cls-12" points="69.74 172.95 69.61 172.98 69.49 172.98 69.37 173.01 69.24 173.05 69.12 173.08 69 173.11 68.87 173.17 68.78 173.23 68.66 173.29 68.53 173.35 68.44 173.45 68.35 173.51 68.26 173.6 68.19 173.72 68.1 173.82 68.04 173.91 67.98 174.03 67.92 174.16 67.86 174.25 67.83 174.37 67.79 174.49 67.76 174.62 67.73 174.74 67.73 174.9 67.73 175.02 67.73 175.14 67.76 175.26 67.76 175.39 67.79 175.51 67.86 175.63 67.89 175.76 67.95 175.88 68.01 175.97 68.07 176.1 68.13 176.19 68.22 176.28 68.32 176.37 68.41 176.47 68.5 176.56 68.59 176.62 68.72 176.71 68.81 176.78 68.93 176.81 69.06 176.87 69.18 176.9 69.3 176.93 69.43 176.96 69.55 176.99 69.67 176.99 69.8 176.99 69.92 176.99 70.04 176.96 70.2 176.93 70.32 176.9 70.41 176.87 70.54 176.81 70.66 176.78 70.78 176.71 70.88 176.62 70.97 176.56 71.09 176.47 71.18 176.37 71.28 176.28 71.34 176.19 71.43 176.1 71.49 175.97 71.55 175.88 71.58 175.76 71.65 175.63 71.68 175.51 71.71 175.39 71.74 175.26 71.74 175.14 71.74 175.02 71.74 174.9 71.74 174.74 71.71 174.62 71.71 174.49 71.65 174.37 71.62 174.25 71.58 174.16 71.52 174.03 71.46 173.91 71.37 173.82 71.31 173.72 71.22 173.6 71.12 173.51 71.03 173.45 70.94 173.35 70.81 173.29 70.72 173.23 70.6 173.17 70.47 173.11 70.35 173.08 70.23 173.05 70.11 173.01 69.98 172.98 69.86 172.98 69.74 172.95"/></g><g id="ID000038-4" data-name="ID000038"><polygon class="cls-12" points="119.8 109.11 119.67 109.14 119.55 109.14 119.42 109.17 119.3 109.2 119.18 109.23 119.06 109.26 118.93 109.32 118.84 109.38 118.72 109.45 118.59 109.51 118.5 109.6 118.41 109.66 118.32 109.75 118.25 109.88 118.16 109.97 118.1 110.06 118.04 110.19 117.98 110.31 117.92 110.4 117.88 110.53 117.85 110.65 117.82 110.77 117.79 110.89 117.79 111.05 117.79 111.17 117.79 111.3 117.82 111.42 117.82 111.54 117.85 111.67 117.92 111.79 117.95 111.91 118.01 112.03 118.07 112.13 118.13 112.25 118.19 112.34 118.28 112.44 118.38 112.53 118.47 112.62 118.56 112.71 118.66 112.77 118.78 112.87 118.87 112.93 118.99 112.96 119.12 113.02 119.24 113.05 119.36 113.08 119.49 113.11 119.61 113.14 119.73 113.14 119.86 113.14 119.98 113.14 120.1 113.11 120.26 113.08 120.38 113.05 120.47 113.02 120.6 112.96 120.72 112.93 120.84 112.87 120.94 112.77 121.03 112.71 121.15 112.62 121.24 112.53 121.34 112.44 121.4 112.34 121.49 112.25 121.55 112.13 121.61 112.03 121.64 111.91 121.71 111.79 121.74 111.67 121.77 111.54 121.8 111.42 121.8 111.3 121.8 111.17 121.8 111.05 121.8 110.89 121.77 110.77 121.77 110.65 121.71 110.53 121.67 110.4 121.64 110.31 121.58 110.19 121.52 110.06 121.43 109.97 121.37 109.88 121.28 109.75 121.18 109.66 121.09 109.6 121 109.51 120.87 109.45 120.78 109.38 120.66 109.32 120.53 109.26 120.41 109.23 120.29 109.2 120.17 109.17 120.04 109.14 119.92 109.14 119.8 109.11"/></g><g id="ID000038-5" data-name="ID000038"><polygon class="cls-12" points="143.05 181.84 142.93 181.87 142.81 181.87 142.68 181.9 142.56 181.93 142.44 181.97 142.31 182 142.19 182.06 142.1 182.12 141.97 182.18 141.85 182.24 141.76 182.33 141.67 182.4 141.57 182.49 141.51 182.61 141.42 182.7 141.36 182.8 141.3 182.92 141.24 183.04 141.17 183.14 141.14 183.26 141.11 183.38 141.08 183.5 141.05 183.63 141.05 183.78 141.05 183.91 141.05 184.03 141.08 184.15 141.08 184.28 141.11 184.4 141.17 184.52 141.2 184.65 141.27 184.77 141.33 184.86 141.39 184.99 141.45 185.08 141.54 185.17 141.64 185.26 141.73 185.35 141.82 185.45 141.91 185.51 142.04 185.6 142.13 185.66 142.25 185.69 142.38 185.75 142.5 185.79 142.62 185.82 142.75 185.85 142.87 185.88 142.99 185.88 143.12 185.88 143.24 185.88 143.36 185.85 143.52 185.82 143.64 185.79 143.73 185.75 143.85 185.69 143.98 185.66 144.1 185.6 144.19 185.51 144.29 185.45 144.41 185.35 144.5 185.26 144.59 185.17 144.66 185.08 144.75 184.99 144.81 184.86 144.87 184.77 144.9 184.65 144.96 184.52 145 184.4 145.03 184.28 145.06 184.15 145.06 184.03 145.06 183.91 145.06 183.78 145.06 183.63 145.03 183.5 145.03 183.38 144.96 183.26 144.93 183.14 144.9 183.04 144.84 182.92 144.78 182.8 144.69 182.7 144.63 182.61 144.53 182.49 144.44 182.4 144.35 182.33 144.25 182.24 144.13 182.18 144.04 182.12 143.92 182.06 143.79 182 143.67 181.97 143.55 181.93 143.42 181.9 143.3 181.87 143.18 181.87 143.05 181.84"/></g><g id="ID000038-6" data-name="ID000038"><polygon class="cls-12" points="160.93 201.23 160.81 201.26 160.69 201.26 160.56 201.29 160.44 201.33 160.32 201.36 160.19 201.39 160.07 201.45 159.98 201.51 159.85 201.57 159.73 201.63 159.64 201.73 159.55 201.79 159.45 201.88 159.39 202 159.3 202.1 159.24 202.19 159.18 202.31 159.11 202.44 159.05 202.53 159.02 202.65 158.99 202.77 158.96 202.9 158.93 203.02 158.93 203.18 158.93 203.3 158.93 203.42 158.96 203.54 158.96 203.67 158.99 203.79 159.05 203.91 159.08 204.04 159.15 204.16 159.21 204.25 159.27 204.38 159.33 204.47 159.42 204.56 159.51 204.65 159.61 204.75 159.7 204.84 159.79 204.9 159.92 204.99 160.01 205.06 160.13 205.09 160.25 205.15 160.38 205.18 160.5 205.21 160.63 205.24 160.75 205.27 160.87 205.27 160.99 205.27 161.12 205.27 161.24 205.24 161.4 205.21 161.52 205.18 161.61 205.15 161.73 205.09 161.86 205.06 161.98 204.99 162.07 204.9 162.16 204.84 162.29 204.75 162.38 204.65 162.47 204.56 162.53 204.47 162.63 204.38 162.69 204.25 162.75 204.16 162.78 204.04 162.84 203.91 162.87 203.79 162.91 203.67 162.94 203.54 162.94 203.42 162.94 203.3 162.94 203.18 162.94 203.02 162.91 202.9 162.91 202.77 162.84 202.65 162.81 202.53 162.78 202.44 162.72 202.31 162.66 202.19 162.57 202.1 162.5 202 162.41 201.88 162.32 201.79 162.23 201.73 162.13 201.63 162.01 201.57 161.92 201.51 161.8 201.45 161.67 201.39 161.55 201.36 161.43 201.33 161.3 201.29 161.18 201.26 161.06 201.26 160.93 201.23"/></g><g id="ID000038-7" data-name="ID000038"><polygon class="cls-12" points="169.93 211.35 169.81 211.38 169.69 211.38 169.56 211.41 169.44 211.44 169.32 211.47 169.19 211.5 169.07 211.57 168.98 211.63 168.85 211.69 168.73 211.75 168.64 211.84 168.55 211.91 168.45 212 168.39 212.12 168.3 212.21 168.24 212.31 168.18 212.43 168.12 212.55 168.05 212.65 168.02 212.77 167.99 212.89 167.96 213.01 167.93 213.14 167.93 213.29 167.93 213.41 167.93 213.54 167.96 213.66 167.96 213.78 167.99 213.91 168.05 214.03 168.08 214.16 168.15 214.28 168.21 214.37 168.27 214.49 168.33 214.59 168.42 214.68 168.52 214.77 168.61 214.86 168.7 214.96 168.79 215.02 168.92 215.11 169.01 215.17 169.13 215.2 169.26 215.26 169.38 215.29 169.5 215.33 169.63 215.36 169.75 215.39 169.87 215.39 170 215.39 170.12 215.39 170.24 215.36 170.4 215.33 170.52 215.29 170.61 215.26 170.74 215.2 170.86 215.17 170.98 215.11 171.07 215.02 171.17 214.96 171.29 214.86 171.38 214.77 171.47 214.68 171.54 214.59 171.63 214.49 171.69 214.37 171.75 214.28 171.78 214.16 171.84 214.03 171.88 213.91 171.91 213.78 171.94 213.66 171.94 213.54 171.94 213.41 171.94 213.29 171.94 213.14 171.91 213.01 171.91 212.89 171.84 212.77 171.81 212.65 171.78 212.55 171.72 212.43 171.66 212.31 171.57 212.21 171.5 212.12 171.41 212 171.32 211.91 171.23 211.84 171.13 211.75 171.01 211.69 170.92 211.63 170.8 211.57 170.67 211.5 170.55 211.47 170.43 211.44 170.3 211.41 170.18 211.38 170.06 211.38 169.93 211.35"/></g><g id="ID000038-8" data-name="ID000038"><polygon class="cls-12" points="187.85 229.59 187.72 229.62 187.6 229.62 187.48 229.66 187.35 229.69 187.23 229.72 187.11 229.75 186.98 229.81 186.89 229.87 186.77 229.93 186.65 229.99 186.55 230.09 186.46 230.15 186.37 230.24 186.31 230.36 186.21 230.46 186.15 230.55 186.09 230.67 186.03 230.79 185.97 230.89 185.94 231.01 185.91 231.13 185.88 231.26 185.84 231.38 185.84 231.53 185.84 231.66 185.84 231.78 185.88 231.91 185.88 232.03 185.91 232.15 185.97 232.27 186 232.4 186.06 232.52 186.12 232.61 186.18 232.74 186.25 232.83 186.34 232.92 186.43 233.01 186.52 233.11 186.61 233.2 186.71 233.26 186.83 233.35 186.92 233.41 187.05 233.45 187.17 233.51 187.29 233.54 187.42 233.57 187.54 233.6 187.66 233.63 187.79 233.63 187.91 233.63 188.03 233.63 188.16 233.6 188.31 233.57 188.43 233.54 188.53 233.51 188.65 233.45 188.77 233.41 188.9 233.35 188.99 233.26 189.08 233.2 189.2 233.11 189.3 233.01 189.39 232.92 189.45 232.83 189.54 232.74 189.6 232.61 189.66 232.52 189.7 232.4 189.76 232.27 189.79 232.15 189.82 232.03 189.85 231.91 189.85 231.78 189.85 231.66 189.85 231.53 189.85 231.38 189.82 231.26 189.82 231.13 189.76 231.01 189.73 230.89 189.7 230.79 189.63 230.67 189.57 230.55 189.48 230.46 189.42 230.36 189.33 230.24 189.23 230.15 189.14 230.09 189.05 229.99 188.93 229.93 188.83 229.87 188.71 229.81 188.59 229.75 188.46 229.72 188.34 229.69 188.22 229.66 188.09 229.62 187.97 229.62 187.85 229.59"/></g></svg>