<?xml version="1.0" encoding="utf-8"?>
<!-- Generator: Adobe Illustrator 25.2.0, SVG Export Plug-In . SVG Version: 6.00 Build 0)  -->
<svg version="1.1" id="图层_1" xmlns="http://www.w3.org/2000/svg" xmlns:xlink="http://www.w3.org/1999/xlink" x="0px" y="0px"
	 viewBox="0 0 800 400" style="enable-background:new 0 0 800 400;" xml:space="preserve">
<style type="text/css">
	.st0{fill:#FFCCFF;}
	.st1{fill:#99FF99;}
	.st2{fill:#FFFFCC;}
	.st3{fill:none;stroke:#000000;stroke-width:0.5;stroke-miterlimit:10;}
	.st4{font-family:'MicrosoftYaHei';}
	.st5{font-size:20px;}
	.st6{fill:#FF9933;}
	.st7{font-size:19.81px;}
	.st8{fill:#99CCFF;}
	.st9{fill:#FF8001;}
	.st10{fill:none;stroke:#000000;stroke-width:0.25;stroke-miterlimit:10;}
	.st11{fill:none;stroke:#F2208D;stroke-width:2;stroke-miterlimit:10;}
	.st12{fill:none;stroke:#000000;stroke-width:2;stroke-miterlimit:10;}
	.st13{fill:#FF9933;stroke:#000000;stroke-width:0.5;stroke-miterlimit:10;}
	.st14{font-family:'ArialMT';}
	.st15{font-size:18px;}
</style>
<polyline class="st0" points="399.8,318.6 482.2,318.2 440.4,356.5 363.2,359.4 "/>
<polyline class="st1" points="396.7,291.9 478.8,291.6 437.2,326.8 360.2,329.4 "/>
<polyline class="st2" points="396.2,256.6 476.5,256.3 435.9,293.6 360.6,296.4 "/>
<line class="st3" x1="445.4" y1="311.6" x2="445.4" y2="323.5"/>
<line class="st3" x1="444.6" y1="272.7" x2="444.6" y2="289.4"/>
<line class="st3" x1="401.4" y1="289.4" x2="401.4" y2="303.4"/>
<text transform="matrix(1 0 0 1 20.0506 36.9119)" class="st4 st5">apt1 aptamer</text>
<text transform="matrix(1 0 0 1 392.4 224.12)" class="st6 st4 st7">A</text>
<text transform="matrix(1 0 0 1 351.9 108.72)" class="st4 st7">10</text>
<text transform="matrix(1 0 0 1 445.3394 121.07)" class="st8 st4 st7">A</text>
<text transform="matrix(1 0 0 1 433.7894 144.92)" class="st6 st4 st7">A</text>
<text transform="matrix(1 0 0 1 433.7894 159.91)" class="st6 st4 st7">A</text>
<text transform="matrix(1 0 0 1 433.5693 207.91)" class="st6 st4 st7">A</text>
<text transform="matrix(1 0 0 1 481.56 367.28)" class="st9 st4 st7">A</text>
<text transform="matrix(1 0 0 1 466.03 397.74)" class="st9 st4 st7">A</text>
<text transform="matrix(1 0 0 1 345.76 273.9)" class="st9 st4 st7">A</text>
<text transform="matrix(1 0 0 1 376.96 128.2)" class="st8 st4 st7">A</text>
<text transform="matrix(1 0 0 1 390.54 68.15)" class="st8 st4 st7">A</text>
<text transform="matrix(1 0 0 1 433.4794 99.73)" class="st8 st4 st7">C</text>
<text transform="matrix(1 0 0 1 433.4794 115.95)" class="st8 st4 st7">C</text>
<text transform="matrix(1 0 0 1 445.3593 136.68)" class="st8 st4 st7">C</text>
<text transform="matrix(1 0 0 1 433.4994 191.25)" class="st6 st4 st7">C</text>
<text transform="matrix(1 0 0 1 433.4994 241.65)" class="st6 st4 st7">C</text>
<text transform="matrix(1 0 0 1 436.51 269.94)" class="st9 st4 st7">C</text>
<text transform="matrix(1 0 0 1 391.61 175.38)" class="st6 st4 st7">C</text>
<text transform="matrix(1 0 0 1 390.76 83.08)" class="st8 st4 st7">C</text>
<text transform="matrix(1 0 0 1 433.4594 67.6)" class="st8 st4 st7">U</text>
<text transform="matrix(1 0 0 1 433.4994 225.43)" class="st6 st4 st7">U</text>
<text transform="matrix(1 0 0 1 344.0226 258.1202)" class="st9 st4 st7">U</text>
<text transform="matrix(1 0 0 1 385.14 356.38)" class="st9 st4 st7">U</text>
<text transform="matrix(1 0 0 1 391.61 240.26)" class="st6 st4 st7">U</text>
<text transform="matrix(1 0 0 1 391.64 207.47)" class="st6 st4 st7">U</text>
<text transform="matrix(1 0 0 1 391.62 159.68)" class="st6 st4 st7">U</text>
<text transform="matrix(1 0 0 1 391.62 145.18)" class="st6 st4 st7">U</text>
<text transform="matrix(1 0 0 1 433.4794 83.5)" class="st8 st4 st7">G</text>
<text transform="matrix(1 0 0 1 432.5093 175.03)" class="st6 st4 st7">G</text>
<text transform="matrix(1 0 0 1 344.8 308.32)" class="st9 st4 st7">G</text>
<text transform="matrix(1 0 0 1 344.8 344.66)" class="st9 st4 st7">G</text>
<text transform="matrix(1 0 0 1 344.82 373.6)" class="st9 st4 st7">G</text>
<text transform="matrix(1 0 0 1 392.4 318.52)" class="st9 st4 st7">G</text>
<text transform="matrix(1 0 0 1 393.43 286)" class="st9 st4 st7">G</text>
<text transform="matrix(1 0 0 1 391.61 258.47)" class="st9 st4 st7">G</text>
<text transform="matrix(1 0 0 1 391.61 191.29)" class="st6 st4 st7">G</text>
<text transform="matrix(1 0 0 1 390.76 115.12)" class="st8 st4 st7">G</text>
<text transform="matrix(1 0 0 1 390.76 98.9)" class="st8 st4 st7">G</text>
<text transform="matrix(1 0 0 1 436.48 308.58)" class="st9 st4 st7">G</text>
<text transform="matrix(1 0 0 1 436.48 343.92)" class="st9 st4 st7">G</text>
<text transform="matrix(1 0 0 1 435.51 371.87)" class="st9 st4 st7">G</text>
<text transform="matrix(1 0 0 1 480.56 318.16)" class="st9 st4 st7">G</text>
<text transform="matrix(1 0 0 1 480.59 285.65)" class="st9 st4 st7">G</text>
<text transform="matrix(1 0 0 1 479.78 258.12)" class="st9 st4 st7">G</text>
<line class="st10" x1="363.3" y1="92.6" x2="363.3" y2="60.1"/>
<line class="st3" x1="359.9" y1="252.6" x2="438.1" y2="260.4"/>
<line class="st3" x1="356.5" y1="364.7" x2="386.9" y2="354"/>
<line class="st3" x1="394.4" y1="341.7" x2="397.4" y2="322.4"/>
<line class="st10" x1="404.6" y1="232" x2="432.5" y2="232"/>
<line class="st10" x1="404.2" y1="217.5" x2="432.1" y2="217.5"/>
<line class="st10" x1="404.2" y1="199.1" x2="432.1" y2="199.1"/>
<line class="st10" x1="404.2" y1="182.6" x2="432.1" y2="182.6"/>
<line class="st10" x1="404.2" y1="165.5" x2="432.1" y2="165.5"/>
<line class="st10" x1="404.2" y1="152.3" x2="432.1" y2="152.3"/>
<line class="st10" x1="404.2" y1="136.2" x2="432.1" y2="136.2"/>
<line class="st10" x1="404.2" y1="108.7" x2="432.1" y2="108.7"/>
<line class="st10" x1="404.2" y1="92.5" x2="432.1" y2="92.5"/>
<line class="st10" x1="404.2" y1="76.3" x2="432.1" y2="76.3"/>
<line class="st10" x1="404.2" y1="60.2" x2="432.1" y2="60.2"/>
<line class="st11" x1="405.8" y1="250.9" x2="480.6" y2="250.9"/>
<line class="st11" x1="360.6" y1="300.2" x2="435.5" y2="300.2"/>
<line class="st11" x1="360.6" y1="338.3" x2="435.5" y2="338.3"/>
<line class="st11" x1="360.6" y1="366.2" x2="435.5" y2="366.2"/>
<line class="st11" x1="407.3" y1="311.6" x2="482.2" y2="311.6"/>
<line class="st11" x1="406.8" y1="278.6" x2="481.6" y2="278.6"/>
<line class="st11" x1="358.1" y1="293.3" x2="393.3" y2="258.1"/>
<line class="st11" x1="452.4" y1="355.9" x2="487.6" y2="320.7"/>
<line class="st11" x1="359.1" y1="353.8" x2="394.4" y2="318.6"/>
<line class="st11" x1="448.6" y1="324.6" x2="483.9" y2="289.4"/>
<line class="st11" x1="358.1" y1="324.5" x2="393.3" y2="289.3"/>
<line class="st11" x1="447" y1="291.5" x2="482.2" y2="256.3"/>
<line class="st3" x1="451.7" y1="372.9" x2="468.3" y2="387.6"/>
<line class="st3" x1="489.5" y1="349.3" x2="489.7" y2="323.1"/>
<text transform="matrix(1 0 0 1 527.64 318.16)" class="st4 st7">40</text>
<text transform="matrix(1 0 0 1 656.8193 61.44)" class="st8 st4 st7">G</text>
<text transform="matrix(1 0 0 1 631.6094 61.44)" class="st8 st4 st7">G</text>
<text transform="matrix(1 0 0 1 605.6394 60.94)" class="st8 st4 st7">G</text>
<text transform="matrix(1 0 0 1 539.4393 60.91)" class="st8 st4 st7">G</text>
<text transform="matrix(1 0 0 1 501.1294 61.19)" class="st8 st4 st7">G</text>
<text transform="matrix(1 0 0 1 487.7594 61.44)" class="st8 st4 st7">G</text>
<text transform="matrix(1 0 0 1 381.5 57.68)" class="st8 st4 st7">G</text>
<text transform="matrix(1 0 0 1 368.73 57.94)" class="st8 st4 st7">G</text>
<text transform="matrix(1 0 0 1 263.55 57.68)" class="st8 st4 st7">G</text>
<text transform="matrix(1 0 0 1 249.29 57.44)" class="st8 st4 st7">G</text>
<text transform="matrix(1 0 0 1 236.01 57.44)" class="st8 st4 st7">G</text>
<text transform="matrix(1 0 0 1 565.7094 61.19)" class="st8 st4 st7">C</text>
<text transform="matrix(1 0 0 1 527.3193 60.91)" class="st8 st4 st7">C</text>
<text transform="matrix(1 0 0 1 515.0394 61.69)" class="st8 st4 st7">C</text>
<text transform="matrix(1 0 0 1 475.5694 61.19)" class="st8 st4 st7">C</text>
<text transform="matrix(1 0 0 1 315.78 57.94)" class="st8 st4 st7">C</text>
<text transform="matrix(1 0 0 1 290.59 57.68)" class="st8 st4 st7">C</text>
<text transform="matrix(1 0 0 1 592.5994 61.44)" class="st8 st4 st7">U</text>
<text transform="matrix(1 0 0 1 355.22 58.19)" class="st8 st4 st7">U</text>
<text transform="matrix(1 0 0 1 644.8694 60.94)" class="st8 st4 st7">A</text>
<text transform="matrix(1 0 0 1 618.8994 60.94)" class="st8 st4 st7">A</text>
<text transform="matrix(1 0 0 1 578.8994 60.91)" class="st8 st4 st7">A</text>
<text transform="matrix(1 0 0 1 553.3994 60.91)" class="st8 st4 st7">A</text>
<text transform="matrix(1 0 0 1 461.8694 61.19)" class="st8 st4 st7">A</text>
<text transform="matrix(1 0 0 1 447.4994 60.91)" class="st8 st4 st7">A</text>
<text transform="matrix(1 0 0 1 342.8 58.44)" class="st8 st4 st7">A</text>
<text transform="matrix(1 0 0 1 329.02 58.44)" class="st8 st4 st7">A</text>
<text transform="matrix(1 0 0 1 303.3 57.68)" class="st8 st4 st7">A</text>
<text transform="matrix(1 0 0 1 277.72 57.68)" class="st8 st4 st7">A</text>
<line class="st12" x1="495" y1="311.6" x2="527.4" y2="311.6"/>
<line class="st10" x1="457.5" y1="129" x2="490" y2="129"/>
<text transform="matrix(1 0 0 1 490.7194 136.68)" class="st4 st7">50</text>
<line class="st3" x1="401.4" y1="258.9" x2="401.4" y2="270.8"/>
<line class="st3" x1="352.9" y1="345.8" x2="352.9" y2="357.6"/>
<line class="st3" x1="352.9" y1="312.8" x2="352.9" y2="324.7"/>
<line class="st3" x1="352.9" y1="278.6" x2="352.9" y2="290.5"/>
<line class="st3" x1="444.6" y1="344.7" x2="444.6" y2="356.6"/>
<line class="st3" x1="480.6" y1="387.3" x2="489.2" y2="371.9"/>
<line class="st3" x1="489.2" y1="289.3" x2="489.2" y2="301.9"/>
<line class="st3" x1="489.2" y1="258.5" x2="489.2" y2="271.2"/>
<line class="st13" x1="447.9" y1="235.6" x2="479.7" y2="244.9"/>
<text transform="matrix(1 0 0 1 217.8853 76.35)" class="st14 st15">5’</text>
<text transform="matrix(1 0 0 1 662.8008 92.53)" class="st14 st15">3’</text>
</svg>
