<?xml version="1.0" encoding="utf-8"?>
<!-- Generator: Adobe Illustrator 25.2.0, SVG Export Plug-In . SVG Version: 6.00 Build 0)  -->
<svg version="1.1" id="图层_1" xmlns="http://www.w3.org/2000/svg" xmlns:xlink="http://www.w3.org/1999/xlink" x="0px" y="0px"
	 viewBox="0 0 400 400" style="enable-background:new 0 0 400 400;" xml:space="preserve">
<style type="text/css">
	.st0{fill:#FFFC55;}
	.st1{fill:#0A0BFF;}
	.st2{font-family:'ArialMT';}
	.st3{font-size:21.5515px;}
	.st4{letter-spacing:-1;}
	.st5{fill:none;stroke:#000000;stroke-width:0.12;stroke-miterlimit:10;}
	.st6{stroke:#000000;stroke-width:0.12;stroke-miterlimit:10;}
	.st7{fill:none;stroke:#000000;stroke-width:0.76;stroke-miterlimit:10;}
	.st8{fill:#0A0BFF;stroke:#000000;stroke-width:0.12;stroke-miterlimit:10;}
	.st9{fill:#808080;}
	.st10{font-size:20px;}
	.st11{fill:#FF00FF;}
	.st12{font-size:12.9698px;}
</style>
<ellipse class="st0" cx="105.7" cy="198.7" rx="36.4" ry="8.3"/>
<g id="ID000002">
	<text transform="matrix(1 0 0 1 312.0564 231.2486)" class="st1 st2 st3 st4">A</text>
</g>
<g id="ID000003">
	<text transform="matrix(1 0 0 1 289.3728 231.2486)" class="st1 st2 st3">G</text>
</g>
<g id="ID000004">
	<text transform="matrix(1 0 0 1 269.0828 231.2486)" class="st1 st2 st3 st4">A</text>
</g>
<g id="ID000005">
	<text transform="matrix(1 0 0 1 247.5964 231.2486)" class="st1 st2 st3 st4">A</text>
</g>
<g id="ID000006">
	<text transform="matrix(1 0 0 1 267.8943 188.2749)" class="st1 st2 st3">G</text>
</g>
<g id="ID000007">
	<text transform="matrix(1 0 0 1 289.9714 188.2749)" class="st1 st2 st3">C</text>
</g>
<g id="ID000008">
	<text transform="matrix(1 0 0 1 311.4578 188.2749)" class="st1 st2 st3">U</text>
</g>
<g id="ID000011">
	<line class="st5" x1="319.2" y1="213" x2="319.2" y2="187.2"/>
</g>
<g id="ID000012">
	<line class="st5" x1="297.8" y1="213" x2="297.8" y2="187.2"/>
</g>
<g id="ID000013">
	<line class="st5" x1="276.3" y1="213" x2="276.3" y2="187.2"/>
</g>
<g id="ID000014">
	<polygon class="st6" points="276.3,195.8 276,195.8 275.7,195.8 275.5,195.9 275.2,195.9 274.9,196 274.7,196.1 274.4,196.2 
		274.2,196.3 273.9,196.5 273.7,196.6 273.5,196.8 273.3,197 273.1,197.2 272.9,197.4 272.8,197.6 272.6,197.8 272.5,198.1 
		272.4,198.3 272.3,198.6 272.2,198.8 272.1,199.1 272,199.3 272,199.6 272,199.9 272,200.2 272,200.4 272,200.7 272.1,201 
		272.1,201.2 272.2,201.5 272.3,201.7 272.4,202 272.5,202.2 272.7,202.5 272.9,202.7 273,202.9 273.2,203.1 273.4,203.3 
		273.6,203.5 273.8,203.6 274.1,203.8 274.3,203.9 274.6,204 274.8,204.1 275.1,204.2 275.3,204.3 275.6,204.3 275.9,204.4 
		276.1,204.4 276.4,204.4 276.7,204.4 277,204.3 277.2,204.3 277.5,204.2 277.7,204.1 278,204 278.2,203.9 278.5,203.8 278.7,203.6 
		278.9,203.5 279.1,203.3 279.3,203.1 279.5,202.9 279.7,202.7 279.8,202.5 280,202.2 280.1,202 280.2,201.7 280.3,201.5 
		280.4,201.2 280.5,201 280.5,200.7 280.6,200.4 280.6,200.2 280.6,199.9 280.5,199.6 280.5,199.3 280.4,199.1 280.4,198.8 
		280.3,198.6 280.2,198.3 280.1,198.1 279.9,197.8 279.8,197.6 279.6,197.4 279.4,197.2 279.2,197 279,196.8 278.8,196.6 
		278.6,196.5 278.4,196.3 278.1,196.2 277.9,196.1 277.6,196 277.3,195.9 277.1,195.9 276.8,195.8 276.5,195.8 	"/>
</g>
<g id="ID000015">
	<line class="st7" x1="215" y1="178.6" x2="267.7" y2="178.6"/>
</g>
<g id="ID000016">
	<polygon class="st8" points="234.2,172.2 237.8,175.4 241.4,176.5 244.9,177 252.1,178.6 244.9,180.2 241.4,180.8 237.8,181.8 
		234.2,185 	"/>
</g>
<g id="ID000018">
	<text transform="matrix(1 0 0 1 219.5457 231.2486)" class="st1 st2 st3">G</text>
</g>
<g id="ID000019">
	<text transform="matrix(1 0 0 1 198.0662 231.2486)" class="st1 st2 st3">G</text>
</g>
<g id="ID000020">
	<line class="st5" x1="206.4" y1="235.9" x2="206.4" y2="250.2"/>
</g>
<g id="ID000021">
	<text transform="matrix(1 0 0 1 195.1765 266.9292)" class="st2 st3">10</text>
</g>
<g id="ID000022">
	<text transform="matrix(1 0 0 1 177.7751 231.2486)" class="st1 st2 st3 st4">A</text>
</g>
<g id="ID000023">
	<text transform="matrix(1 0 0 1 155.0925 231.2486)" class="st1 st2 st3">G</text>
</g>
<g id="ID000025">
	<text transform="matrix(1 0 0 1 68.094 187.9146)" class="st1 st2 st3">G</text>
</g>
<g id="ID000027">
	<text transform="matrix(1 0 0 1 36.1453 231.5074)" class="st1 st2 st3 st4">A</text>
</g>
<g id="ID000028">
	<text transform="matrix(1 0 0 1 19.4431 231.9688)" class="st9 st2 st3">C</text>
</g>
<g id="ID000030">
	<text transform="matrix(1 0 0 1 18.845 188.9956)" class="st9 st2 st3">G</text>
</g>
<g id="ID000033">
	<text transform="matrix(1 0 0 1 34.4446 188.2749)" class="st1 st2 st3">U</text>
</g>
<g id="ID000034">
	<text transform="matrix(1 0 0 1 113.2654 157.1187)" class="st1 st2 st3">U</text>
</g>
<g id="ID000035">
	<text transform="matrix(1 0 0 1 127.7336 157.1187)" class="st1 st2 st3 st4">A</text>
</g>
<g id="ID000036">
	<text transform="matrix(1 0 0 1 143.3333 168.7554)" class="st1 st2 st3">G</text>
</g>
<g id="ID000037">
	<text transform="matrix(1 0 0 1 155.0925 188.2749)" class="st1 st2 st3">G</text>
</g>
<g id="ID000038">
	<text transform="matrix(1 0 0 1 177.1775 188.2749)" class="st1 st2 st3">U</text>
</g>
<g id="ID000039">
	<text transform="matrix(1 0 0 1 198.6638 188.2749)" class="st1 st2 st3">C</text>
</g>
<g id="ID000040">
	<line class="st5" x1="206.4" y1="213" x2="206.4" y2="187.2"/>
</g>
<g id="ID000041">
	<line class="st5" x1="185" y1="213" x2="185" y2="187.2"/>
</g>
<g id="ID000042">
	<line class="st5" x1="163.5" y1="213" x2="163.5" y2="187.2"/>
</g>
<g id="ID000043">
	<polygon class="st6" points="163.5,210 163.7,210 164,209.9 164.3,209.9 164.6,209.8 164.8,209.8 165.1,209.7 165.3,209.6 
		165.6,209.4 165.8,209.3 166,209.1 166.2,209 166.4,208.8 166.6,208.6 166.8,208.4 167,208.2 167.1,207.9 167.3,207.7 167.4,207.5 
		167.5,207.2 167.6,207 167.7,206.7 167.7,206.4 167.7,206.2 167.8,205.9 167.8,205.6 167.8,205.3 167.7,205.1 167.7,204.8 
		167.6,204.5 167.5,204.3 167.4,204 167.3,203.8 167.2,203.5 167.1,203.3 166.9,203.1 166.7,202.9 166.5,202.7 166.3,202.5 
		166.1,202.3 165.9,202.1 165.7,202 165.4,201.9 165.2,201.7 164.9,201.6 164.7,201.6 164.4,201.5 164.2,201.4 163.9,201.4 
		163.6,201.4 163.3,201.4 163.1,201.4 162.8,201.4 162.5,201.5 162.3,201.6 162,201.6 161.8,201.7 161.5,201.9 161.3,202 161,202.1 
		160.8,202.3 160.6,202.5 160.4,202.7 160.2,202.9 160.1,203.1 159.9,203.3 159.8,203.5 159.6,203.8 159.5,204 159.4,204.3 
		159.3,204.5 159.3,204.8 159.2,205.1 159.2,205.3 159.2,205.6 159.2,205.9 159.2,206.2 159.2,206.4 159.3,206.7 159.4,207 
		159.5,207.2 159.6,207.5 159.7,207.7 159.8,207.9 160,208.2 160.1,208.4 160.3,208.6 160.5,208.8 160.7,209 160.9,209.1 
		161.2,209.3 161.4,209.4 161.6,209.6 161.9,209.7 162.1,209.8 162.4,209.8 162.7,209.9 162.9,209.9 163.2,210 	"/>
</g>
<g id="ID000044">
	<polygon class="st6" points="159.2,190.2 159.2,198.8 167.8,198.8 167.8,190.2 	"/>
</g>
<g id="ID000006-2">
	<text transform="matrix(1 0 0 1 326.7117 230.7871)" class="st9 st2 st3">G</text>
</g>
<g id="ID000007-2">
	<text transform="matrix(1 0 0 1 327.1365 188.2749)" class="st9 st2 st3">C</text>
</g>
<g id="ID000006-3">
	<text transform="matrix(1 0 0 1 344.9275 178.605)" class="st9 st2 st3">G</text>
</g>
<g id="ID000002-2">
	<text transform="matrix(1 0 0 1 348.9695 235.896)" class="st9 st2 st3 st4">A</text>
</g>
<g id="ID000002-3">
	<text transform="matrix(1 0 0 1 366.3923 216.0738)" class="st9 st2 st3 st4">A</text>
</g>
<g id="ID000002-4">
	<text transform="matrix(1 -6.283144e-03 6.283144e-03 1 360.3693 194.5519)" class="st9 st2 st3 st4">A</text>
</g>
<g id="ID000011-2">
	<line class="st5" x1="334.8" y1="213.7" x2="334.8" y2="187.9"/>
</g>
<g id="ID000040-2">
	<line class="st5" x1="27.2" y1="215.7" x2="27.2" y2="189.9"/>
</g>
<g id="ID000040-3">
	<line class="st5" x1="42.5" y1="214.6" x2="42.5" y2="188.9"/>
</g>
<g id="ID000036-2">
	<text transform="matrix(1 0 0 1 85.322 182.3951)" class="st1 st2 st3">G</text>
</g>
<g id="ID000039-2">
	<text transform="matrix(1 0 0 1 50.5632 187.9146)" class="st1 st2 st3">C</text>
</g>
<g id="ID000029">
	<text transform="matrix(1 0 0 1 52.3572 231.5074)" class="st1 st2 st3">G</text>
</g>
<g id="ID000040-4">
	<line class="st5" x1="59.6" y1="215.1" x2="59.6" y2="189.3"/>
</g>
<g id="ID000015-2">
	<line class="st7" x1="88.6" y1="223.3" x2="155.1" y2="223.3"/>
</g>
<g id="ID000016-2">
	<polygon class="st6" points="112.8,216.9 117.4,220.1 121.9,221.2 126.4,221.7 135.4,223.3 126.4,224.9 121.9,225.5 117.4,226.5 
		112.8,229.8 	"/>
</g>
<g id="ID000020-2">
	<line class="st5" x1="79" y1="235.9" x2="79" y2="250.2"/>
</g>
<g id="ID000021-2">
	<text transform="matrix(1 0 0 1 65.2551 267.189)" class="st2 st3">13</text>
</g>
<g id="ID000021-3">
	<text transform="matrix(1 0 0 1 67.7698 156.4414)" class="st2 st3">29</text>
</g>
<g id="ID000020-3">
	<line class="st5" x1="77.2" y1="156.4" x2="77.2" y2="170.8"/>
</g>
<g id="ID000021-4">
	<text transform="matrix(1 0 0 1 93.3997 133.6939)" class="st2 st3">31</text>
</g>
<g id="ID000020-4">
	<line class="st5" x1="104.8" y1="137.6" x2="104.8" y2="151.9"/>
</g>
<text transform="matrix(1 0 0 1 20.5101 34.3)" class="st2 st10">L-Arginine-aptamer</text>
<g id="ID000039-3">
	<text transform="matrix(1 0 0 1 70.9617 231.1978)" class="st11 st2 st3">C</text>
</g>
<g id="ID000036-3">
	<text transform="matrix(1 0 0 1 97.8523 168.7554)" class="st11 st2 st3">G</text>
</g>
<text transform="matrix(1 0 0 1 76.5242 203.5288)" class="st2 st12">L-arginine</text>
<text transform="matrix(1 0 0 1 11.543 258.6973)" class="st2 st10">5’</text>
<text transform="matrix(1 0 0 1 6.949 166.7056)" class="st2 st10">3’</text>
</svg>
