<?xml version="1.0" encoding="utf-8"?>
<!-- Generator: Adobe Illustrator 25.2.0, SVG Export Plug-In . SVG Version: 6.00 Build 0)  -->
<svg version="1.1" id="图层_1" xmlns="http://www.w3.org/2000/svg" xmlns:xlink="http://www.w3.org/1999/xlink" x="0px" y="0px"
	 viewBox="0 0 800 400" style="enable-background:new 0 0 800 400;" xml:space="preserve">
<style type="text/css">
	.st0{fill:#FFFF00;}
	.st1{fill:#66FFFF;}
	.st2{font-family:'ArialMT';}
	.st3{font-size:20px;}
	.st4{letter-spacing:-1;}
	.st5{fill:none;stroke:#000000;stroke-width:0.14;stroke-miterlimit:1.11;}
	.st6{font-size:15px;}
	.st7{fill:#FF33CC;}
	.st8{fill:#FFFFFF;stroke:#000000;stroke-width:0.14;stroke-miterlimit:1.11;}
	.st9{stroke:#000000;stroke-width:0.14;stroke-miterlimit:1.11;}
</style>
<g id="ID000000">
	<g>
		<rect x="402.6" y="239.5" class="st0" width="45" height="25.7"/>
		<g id="ID000002">
			<text transform="matrix(1 0 0 1 241.61 266.13)" class="st1 st2 st3">G</text>
		</g>
		<g id="ID000003">
			<text transform="matrix(1 0 0 1 264.2 266.13)" class="st1 st2 st3">G</text>
		</g>
		<g id="ID000004">
			<text transform="matrix(1 0 0 1 286.8 266.13)" class="st1 st2 st3">G</text>
		</g>
		<g id="ID000005">
			<text transform="matrix(1 0 0 1 309.86 266.13)" class="st1 st2 st3">U</text>
		</g>
		<g id="ID000006">
			<text transform="matrix(1 0 0 1 332.46 266.13)" class="st1 st2 st3">U</text>
		</g>
		<g id="ID000007">
			<text transform="matrix(1 0 0 1 354.57 266.13)" class="st1 st2 st3">G</text>
		</g>
		<g id="ID000008">
			<text transform="matrix(1 0 0 1 365.87 288.72)" class="st1 st2 st3">G</text>
		</g>
		<g id="ID000009">
			<text transform="matrix(1 0 0 1 388.58 308.75)" class="st1 st2 st3">G</text>
		</g>
		<g id="ID000010">
			<text transform="matrix(1 0 0 1 412 322.61)" class="st1 st2 st3 st4">A</text>
		</g>
		<g id="ID000011">
			<text transform="matrix(1 0 0 1 442.7 331.61)" class="st1 st2 st3 st4">A</text>
		</g>
		<g id="ID000012">
			<line class="st5" x1="445" y1="338.7" x2="445" y2="353.7"/>
		</g>
		<g id="ID000013">
			<text transform="matrix(1 0 0 1 434.71 369.69)" class="st2 st6">10</text>
		</g>
		<g id="ID000014">
			<text transform="matrix(1 0 0 1 467.53 328.25)" class="st1 st2 st3">G</text>
		</g>
		<g id="ID000015">
			<text transform="matrix(1 0 0 1 491.07 305.66)" class="st7 st2 st3 st4">A</text>
		</g>
		<g id="ID000016">
			<text transform="matrix(1 0 0 1 377.16 220.94)" class="st7 st2 st3">G</text>
		</g>
		<g id="ID000017">
			<text transform="matrix(1 0 0 1 355.05 220.94)" class="st1 st2 st3">C</text>
		</g>
		<g id="ID000018">
			<text transform="matrix(1 0 0 1 332.93 220.94)" class="st1 st2 st3 st4">A</text>
		</g>
		<g id="ID000019">
			<text transform="matrix(1 0 0 1 310.34 220.94)" class="st1 st2 st3 st4">A</text>
		</g>
		<g id="ID000020">
			<text transform="matrix(1 0 0 1 287.27 220.94)" class="st1 st2 st3">C</text>
		</g>
		<g id="ID000021">
			<text transform="matrix(1 0 0 1 264.68 220.94)" class="st1 st2 st3">C</text>
		</g>
		<g id="ID000022">
			<text transform="matrix(1 0 0 1 242.09 220.94)" class="st1 st2 st3">C</text>
		</g>
		<g id="ID000025">
			<line class="st5" x1="361.2" y1="249.4" x2="361.2" y2="222.3"/>
		</g>
		<g id="ID000026">
			<line class="st5" x1="380.9" y1="284.3" x2="465.8" y2="317.3"/>
		</g>
		<g id="ID000027">
			<polygon class="st8" points="413.6,297 413.6,297.3 413.5,297.5 413.4,297.8 413.4,298.1 413.4,298.4 413.4,298.7 413.4,299 
				413.4,299.3 413.4,299.5 413.5,299.8 413.6,300.1 413.7,300.4 413.8,300.6 413.9,300.9 414.1,301.1 414.2,301.4 414.4,301.6 
				414.6,301.8 414.8,302 415,302.2 415.3,302.4 415.5,302.5 415.8,302.6 416,302.8 416.3,302.9 416.6,303 416.8,303 417.1,303.1 
				417.4,303.1 417.7,303.2 418,303.2 418.3,303.1 418.5,303.1 418.8,303.1 419.1,303 419.4,302.9 419.6,302.8 419.9,302.7 
				420.2,302.5 420.4,302.4 420.6,302.2 420.9,302 421.1,301.8 421.3,301.6 421.4,301.4 421.6,301.2 421.8,300.9 421.9,300.7 
				422,300.4 422.1,300.1 422.2,299.9 422.3,299.6 422.3,299.3 422.4,299 422.4,298.7 422.4,298.5 422.4,298.2 422.3,297.9 
				422.3,297.6 422.2,297.3 422.1,297.1 422,296.8 421.9,296.5 421.7,296.3 421.6,296 421.4,295.8 421.2,295.6 421,295.4 
				420.8,295.2 420.6,295 420.3,294.9 420.1,294.7 419.8,294.6 419.6,294.5 419.3,294.4 419,294.3 418.8,294.2 418.5,294.2 
				418.2,294.1 417.9,294.1 417.6,294.1 417.3,294.2 417,294.2 416.8,294.3 416.5,294.3 416.2,294.4 416,294.5 415.7,294.7 
				415.4,294.8 415.2,295 415,295.2 414.8,295.4 414.6,295.6 414.4,295.8 414.2,296 414,296.2 413.9,296.5 413.8,296.7 			"/>
		</g>
		<g id="ID000028">
			<polygon class="st8" points="434.7,300.3 426.2,297 423,305.5 431.4,308.8 			"/>
		</g>
		<g id="ID000029">
			<polyline class="st5" points="399.1,295.5 406.4,281 457.2,303.6 450,318.1 			"/>
		</g>
		<g id="ID000030">
			<polygon class="st8" points="421.1,287.5 427.1,295.8 431.2,286.5 			"/>
		</g>
		<g id="ID000031">
			<polygon class="st8" points="443.1,292.4 434.9,288.7 431.2,297 439.5,300.6 			"/>
		</g>
		<g id="ID000032">
			<line class="st5" x1="421.7" y1="306.8" x2="470.1" y2="210"/>
		</g>
		<g id="ID000033">
			<polygon class="st8" points="441.3,267.7 441.5,267.8 441.8,267.9 442.1,268 442.4,268.1 442.6,268.1 442.9,268.2 443.2,268.2 
				443.5,268.2 443.8,268.2 444.1,268.1 444.4,268.1 444.6,268 444.9,267.9 445.2,267.8 445.4,267.7 445.7,267.5 445.9,267.4 
				446.1,267.2 446.4,267 446.6,266.8 446.8,266.6 446.9,266.4 447.1,266.1 447.2,265.9 447.4,265.6 447.5,265.4 447.6,265.1 
				447.7,264.8 447.7,264.5 447.8,264.3 447.8,264 447.8,263.7 447.8,263.4 447.8,263.1 447.7,262.8 447.7,262.5 447.6,262.3 
				447.5,262 447.4,261.7 447.3,261.5 447.1,261.2 447,261 446.8,260.8 446.6,260.6 446.4,260.4 446.2,260.2 445.9,260 445.7,259.8 
				445.5,259.7 445.2,259.6 444.9,259.5 444.7,259.4 444.4,259.3 444.1,259.2 443.8,259.2 443.5,259.1 443.2,259.1 443,259.2 
				442.7,259.2 442.4,259.2 442.1,259.3 441.8,259.4 441.6,259.5 441.3,259.6 441.1,259.8 440.8,259.9 440.6,260.1 440.4,260.2 
				440.1,260.4 440,260.6 439.8,260.9 439.6,261.1 439.4,261.3 439.3,261.6 439.2,261.8 439.1,262.1 439,262.4 438.9,262.7 
				438.9,262.9 438.8,263.2 438.8,263.5 438.8,263.8 438.8,264.1 438.8,264.4 438.9,264.6 439,264.9 439,265.2 439.2,265.5 
				439.3,265.7 439.4,266 439.6,266.2 439.7,266.5 439.9,266.7 440.1,266.9 440.3,267.1 440.6,267.2 440.8,267.4 441,267.6 			"/>
		</g>
		<g id="ID000034">
			<polygon class="st8" points="451.2,247.9 442.7,253.5 451.8,258.1 			"/>
		</g>
		<g id="ID000035">
			<line class="st5" x1="423.2" y1="307.7" x2="485.6" y2="226.1"/>
		</g>
		<g id="ID000036">
			<polygon class="st8" points="447.3,276.2 456.7,272.3 448.6,266.1 			"/>
		</g>
		<g id="ID000037">
			<polygon class="st8" points="460.7,258.6 460.5,258.5 460.2,258.3 460,258.2 459.7,258.1 459.5,258 459.2,257.9 458.9,257.8 
				458.6,257.8 458.3,257.7 458,257.7 457.8,257.7 457.5,257.7 457.2,257.8 456.9,257.8 456.6,257.9 456.4,258 456.1,258.1 
				455.9,258.2 455.6,258.4 455.4,258.5 455.1,258.7 454.9,258.9 454.7,259.1 454.5,259.3 454.3,259.5 454.2,259.8 454,260 
				453.9,260.3 453.8,260.5 453.7,260.8 453.6,261.1 453.5,261.4 453.5,261.6 453.5,261.9 453.5,262.2 453.5,262.5 453.5,262.8 
				453.5,263.1 453.6,263.4 453.7,263.6 453.8,263.9 453.9,264.1 454,264.4 454.2,264.6 454.3,264.9 454.5,265.1 454.7,265.3 
				454.9,265.5 455.1,265.7 455.3,265.9 455.6,266 455.8,266.2 456.1,266.3 456.4,266.4 456.6,266.5 456.9,266.6 457.2,266.7 
				457.5,266.7 457.8,266.7 458,266.7 458.3,266.7 458.6,266.7 458.9,266.6 459.2,266.6 459.4,266.5 459.7,266.4 460,266.3 
				460.2,266.1 460.5,266 460.7,265.8 460.9,265.6 461.1,265.5 461.3,265.2 461.5,265 461.7,264.8 461.8,264.5 462,264.3 462.1,264 
				462.2,263.8 462.3,263.5 462.4,263.2 462.4,262.9 462.5,262.7 462.5,262.4 462.5,262.1 462.5,261.8 462.4,261.5 462.4,261.2 
				462.3,261 462.2,260.7 462.1,260.4 462,260.2 461.9,259.9 461.7,259.7 461.5,259.4 461.4,259.2 461.1,259 460.9,258.8 			"/>
		</g>
		<g id="ID000038">
			<line class="st5" x1="480.6" y1="314.1" x2="490.4" y2="304.3"/>
		</g>
		<g id="ID000039">
			<polygon class="st8" points="477.2,317.5 487,314.9 479.8,307.7 			"/>
		</g>
		<g id="ID000040">
			<polygon class="st8" points="489.6,298.7 483.2,305.1 489.6,311.5 496,305.1 			"/>
		</g>
		<g id="ID000041">
			<line class="st5" x1="494.7" y1="289.1" x2="476.2" y2="210.7"/>
		</g>
		<g id="ID000042">
			<polygon class="st8" points="484.4,245.5 484.1,245.6 483.9,245.7 483.6,245.8 483.4,245.9 483.1,246.1 482.9,246.2 482.6,246.4 
				482.4,246.6 482.2,246.8 482,247 481.9,247.2 481.7,247.5 481.5,247.7 481.4,248 481.3,248.2 481.2,248.5 481.1,248.8 481,249.1 
				481,249.3 481,249.6 481,249.9 481,250.2 481,250.5 481,250.8 481.1,251.1 481.2,251.3 481.3,251.6 481.4,251.9 481.5,252.1 
				481.6,252.4 481.8,252.6 482,252.8 482.2,253 482.4,253.2 482.6,253.4 482.8,253.6 483.1,253.8 483.3,253.9 483.6,254 
				483.8,254.1 484.1,254.2 484.4,254.3 484.6,254.4 484.9,254.4 485.2,254.4 485.5,254.5 485.8,254.4 486.1,254.4 486.4,254.4 
				486.6,254.3 486.9,254.2 487.2,254.1 487.5,254 487.7,253.9 487.9,253.7 488.2,253.6 488.4,253.4 488.6,253.2 488.8,253 
				489,252.8 489.2,252.5 489.3,252.3 489.5,252 489.6,251.8 489.7,251.5 489.8,251.2 489.9,251 489.9,250.7 490,250.4 490,250.1 
				490,249.8 490,249.5 489.9,249.3 489.9,249 489.8,248.7 489.7,248.4 489.6,248.2 489.5,247.9 489.4,247.6 489.2,247.4 489,247.2 
				488.9,246.9 488.7,246.7 488.5,246.6 488.2,246.4 488,246.2 487.8,246 487.5,245.9 487.2,245.8 487,245.7 486.7,245.6 
				486.4,245.5 486.1,245.5 485.9,245.4 485.6,245.4 485.3,245.4 485,245.4 484.7,245.5 			"/>
		</g>
		<g id="ID000044">
			<text transform="matrix(1 0 0 1 502.37 277.42)" class="st1 st2 st3 st4">A</text>
		</g>
		<g id="ID000045">
			<text transform="matrix(1 0 0 1 496.72 243.53)" class="st1 st2 st3 st4">A</text>
		</g>
		<g id="ID000046">
			<text transform="matrix(1 0 0 1 484.95 226.59)" class="st1 st2 st3">C</text>
		</g>
		<g id="ID000047">
			<text transform="matrix(1 0 0 1 468.01 209.65)" class="st1 st2 st3">U</text>
		</g>
		<g id="ID000048">
			<text transform="matrix(1 0 0 1 444.94 198.35)" class="st1 st2 st3">G</text>
		</g>
		<g id="ID000049">
			<text transform="matrix(1 0 0 1 422.82 198.35)" class="st1 st2 st3">U</text>
		</g>
		<g id="ID000050">
			<text transform="matrix(1 0 0 1 422.35 175.76)" class="st1 st2 st3">G</text>
		</g>
		<g id="ID000051">
			<text transform="matrix(1 0 0 1 422.35 153.17)" class="st1 st2 st3">G</text>
		</g>
		<g id="ID000052">
			<line class="st5" x1="438.3" y1="148.1" x2="453.4" y2="148.1"/>
		</g>
		<g id="ID000053">
			<text transform="matrix(1 0 0 1 453.38 155.84)" class="st2 st6">20</text>
		</g>
		<g id="ID000054">
			<text transform="matrix(1 0 0 1 422.82 130.58)" class="st1 st2 st3">C</text>
		</g>
		<g id="ID000055">
			<text transform="matrix(1 0 0 1 423.3 107.98)" class="st1 st2 st3 st4">A</text>
		</g>
		<g id="ID000056">
			<text transform="matrix(1 0 0 1 422.82 85.39)" class="st1 st2 st3">C</text>
		</g>
		<g id="ID000057">
			<text transform="matrix(1 0 0 1 428.47 62.8)" class="st1 st2 st3">U</text>
		</g>
		<g id="ID000058">
			<text transform="matrix(1 0 0 1 411.53 34.56)" class="st1 st2 st3">U</text>
		</g>
		<g id="ID000059">
			<text transform="matrix(1 0 0 1 388.94 34.56)" class="st1 st2 st3">C</text>
		</g>
		<g id="ID000060">
			<text transform="matrix(1 0 0 1 371.52 62.8)" class="st1 st2 st3">G</text>
		</g>
		<g id="ID000061">
			<text transform="matrix(1 0 0 1 377.16 85.39)" class="st1 st2 st3">G</text>
		</g>
		<g id="ID000062">
			<text transform="matrix(1 0 0 1 377.64 107.98)" class="st1 st2 st3">U</text>
		</g>
		<g id="ID000063">
			<text transform="matrix(1 0 0 1 377.16 130.58)" class="st1 st2 st3">G</text>
		</g>
		<g id="ID000064">
			<line class="st5" x1="374.3" y1="126.7" x2="359.2" y2="126.7"/>
		</g>
		<g id="ID000065">
			<text transform="matrix(1 0 0 1 337.81 130.78)" class="st2 st6">30</text>
		</g>
		<g id="ID000066">
			<text transform="matrix(1 0 0 1 377.64 153.17)" class="st1 st2 st3">C</text>
		</g>
		<g id="ID000067">
			<text transform="matrix(1 0 0 1 377.64 175.76)" class="st1 st2 st3">C</text>
		</g>
		<g id="ID000068">
			<text transform="matrix(1 0 0 1 378.11 198.35)" class="st1 st2 st3 st4">A</text>
		</g>
		<g id="ID000069">
			<polyline class="st5" points="503,262.2 496.8,252.8 499.5,244.4 			"/>
		</g>
		<g id="ID000070">
			<polygon class="st9" points="505.7,266.1 505.9,266 506.1,265.8 506.3,265.6 506.5,265.4 506.7,265.2 506.9,264.9 507,264.7 
				507.2,264.4 507.3,264.2 507.4,263.9 507.5,263.6 507.6,263.4 507.6,263.1 507.7,262.8 507.7,262.5 507.7,262.2 507.7,261.9 
				507.6,261.6 507.6,261.4 507.5,261.1 507.4,260.8 507.3,260.5 507.2,260.3 507,260 506.9,259.8 506.7,259.6 506.5,259.4 
				506.3,259.1 506.1,259 505.9,258.8 505.7,258.6 505.4,258.5 505.2,258.3 504.9,258.2 504.6,258.1 504.4,258 504.1,257.9 
				503.8,257.9 503.5,257.9 503.2,257.9 502.9,257.9 502.7,257.9 502.4,257.9 502.1,258 501.8,258 501.5,258.1 501.3,258.3 
				501,258.4 500.8,258.5 500.5,258.7 500.3,258.9 500.1,259 499.9,259.2 499.7,259.5 499.5,259.7 499.4,259.9 499.2,260.2 
				499.1,260.4 499,260.7 498.9,261 498.8,261.2 498.7,261.5 498.7,261.8 498.6,262.1 498.6,262.4 498.6,262.7 498.7,262.9 
				498.7,263.2 498.8,263.5 498.9,263.8 499,264 499.1,264.3 499.2,264.6 499.4,264.8 499.5,265 499.7,265.3 499.9,265.5 
				500.1,265.7 500.3,265.9 500.5,266 500.8,266.2 501,266.4 501.3,266.5 501.6,266.6 501.8,266.7 502.1,266.8 502.4,266.8 
				502.7,266.9 503,266.9 503.2,266.9 503.5,266.9 503.8,266.8 504.1,266.8 504.4,266.7 504.6,266.6 504.9,266.5 505.2,266.4 
				505.4,266.3 			"/>
		</g>
		<g id="ID000071">
			<polygon class="st9" points="490.4,251.3 495.4,258.9 502.9,253.8 497.9,246.3 			"/>
		</g>
		<g id="ID000072">
			<line class="st5" x1="420" y1="190.6" x2="392.8" y2="190.6"/>
		</g>
		<g id="ID000025-2">
			<line class="st5" x1="337.8" y1="249.4" x2="337.8" y2="222.3"/>
		</g>
		<g id="ID000025-3">
			<line class="st5" x1="316" y1="249.4" x2="316" y2="222.3"/>
		</g>
		<g id="ID000025-4">
			<line class="st5" x1="294.2" y1="251" x2="294.2" y2="223.9"/>
		</g>
		<g id="ID000025-5">
			<line class="st5" x1="270.9" y1="251" x2="270.9" y2="223.9"/>
		</g>
		<g id="ID000025-6">
			<line class="st5" x1="247" y1="251" x2="247" y2="223.9"/>
		</g>
		<g id="ID000072-2">
			<line class="st5" x1="420" y1="170.8" x2="392.8" y2="170.8"/>
		</g>
		<g id="ID000072-3">
			<line class="st5" x1="420" y1="148.1" x2="392.8" y2="148.1"/>
		</g>
		<g id="ID000072-4">
			<line class="st5" x1="420" y1="125" x2="392.8" y2="125"/>
		</g>
		<g id="ID000072-5">
			<line class="st5" x1="420" y1="101.8" x2="392.8" y2="101.8"/>
		</g>
		<g id="ID000072-6">
			<line class="st5" x1="420" y1="79.3" x2="392.8" y2="79.3"/>
		</g>
		<text transform="matrix(1 0 0 1 231.37 284.28)" class="st2 st6">5</text>
		<text transform="matrix(1 0 0 1 239.71 284.28)" class="st2 st6">’</text>
		<text transform="matrix(1 0 0 1 227.82 216.24)" class="st2 st6">3</text>
		<text transform="matrix(1 0 0 1 236.16 216.24)" class="st2 st6">’</text>
		<text transform="matrix(0.9601 0 0 1 404.9209 262.083)" class="st2 st3">AMP</text>
	</g>
</g>
<text transform="matrix(1 0 0 1 17.0923 35.6593)" class="st2 st3 st4">A</text>
<text transform="matrix(1 0 0 1 25.9822 35.6593)" class="st2 st3">TP-40-1_aptamer</text>
</svg>
