<?xml version="1.0" encoding="utf-8"?>
<!-- Generator: Adobe Illustrator 25.2.0, SVG Export Plug-In . SVG Version: 6.00 Build 0)  -->
<svg version="1.1" id="图层_1" xmlns="http://www.w3.org/2000/svg" xmlns:xlink="http://www.w3.org/1999/xlink" x="0px" y="0px"
	 viewBox="0 0 800 400" style="enable-background:new 0 0 800 400;" xml:space="preserve">
<style type="text/css">
	.st0{fill:#F6F309;}
	.st1{fill:#00FFFF;}
	.st2{font-family:'ArialMT';}
	.st3{font-size:30.2056px;}
	.st4{fill:#C2C2FF;}
	.st5{fill:#FF00FF;}
	.st6{fill:none;stroke:#000000;stroke-width:0.5;}
	.st7{fill:#DF2500;}
	.st8{fill:#FFFFFF;stroke:#000000;stroke-width:0.5;}
	.st9{stroke:#000000;stroke-width:0.5;}
	.st10{fill:none;stroke:#000000;stroke-width:0.5;stroke-dasharray:10.3102,10.3102;}
	.st11{fill:#80DB86;}
	.st12{fill:none;stroke:#000000;stroke-miterlimit:10;}
	.st13{stroke:#000000;stroke-width:0.25;}
	.st14{fill:none;}
	.st15{font-size:20px;}
</style>
<rect x="372" y="189.6" class="st0" width="84.6" height="33.8"/>
<g id="ID000002">
	<g transform="translate(95.667,230.114)">
		<g transform="rotate(-0.0)">
			<text transform="matrix(1 0 0 1 90.969 20.554)" class="st1 st2 st3">G</text>
		</g>
	</g>
</g>
<g id="ID000003">
	<g transform="translate(123.918,230.114)">
		<g transform="rotate(-0.0)">
			<text transform="matrix(1 0 0 1 87.3631 20.554)" class="st1 st2 st3">G</text>
		</g>
	</g>
</g>
<g id="ID000004">
	<g transform="translate(152.168,230.114)">
		<g transform="rotate(-0.0)">
			<text transform="matrix(1 0 0 1 83.7576 20.554)" class="st1 st2 st3">G</text>
		</g>
	</g>
</g>
<g id="ID000005">
	<g transform="translate(180.418,230.114)">
		<g transform="rotate(-0.0)">
			<text transform="matrix(1 0 0 1 80.5642 20.554)" class="st1 st2 st3">A</text>
		</g>
	</g>
</g>
<g id="ID000006">
	<g transform="translate(208.668,230.114)">
		<g transform="rotate(-0.0)">
			<text transform="matrix(1 0 0 1 76.9583 20.554)" class="st1 st2 st3">A</text>
		</g>
	</g>
</g>
<g id="ID000007">
	<g transform="translate(236.918,230.114)">
		<g transform="rotate(-0.0)">
			<text transform="matrix(1 0 0 1 72.9407 20.554)" class="st1 st2 st3">G</text>
		</g>
	</g>
</g>
<g id="ID000008">
	<g>
		<g transform="translate(258.106,208.927)">
			<g transform="rotate(-0.0)">
				<text transform="matrix(1 0 0 1 62.051 17.0955)" class="st4 st2 st3">G</text>
			</g>
		</g>
	</g>
</g>
<g id="ID000009">
	<g>
		<g transform="translate(258.106,173.614)">
			<g transform="rotate(-0.0)">
				<text transform="matrix(1 0 0 1 64.5764 23.9299)" class="st5 st2 st3">G</text>
			</g>
		</g>
	</g>
</g>
<g id="ID000010">
	<g transform="translate(265.169,138.301)">
		<g transform="rotate(-0.0)">
			<text transform="matrix(1 0 0 1 65.9119 26.0515)" class="st4 st2 st3">A</text>
		</g>
	</g>
</g>
<g id="ID000011">
	<g transform="translate(286.356,110.051)">
		<g transform="rotate(-0.0)">
			<text transform="matrix(1 0 0 1 66.2366 31.0056)" class="st4 st2 st3">A</text>
		</g>
	</g>
</g>
<g id="ID000012">
	<line class="st6" x1="362.3" y1="116.7" x2="362.3" y2="100.2"/>
</g>
<g id="ID000013">
	<g transform="translate(286.356,60.572)">
		<g transform="rotate(-0.0)">
			<text transform="matrix(1 0 0 1 58.763 37.3987)" class="st2 st3">10</text>
		</g>
	</g>
</g>
<g id="ID000014">
	<g transform="translate(314.607,95.926)">
		<g transform="rotate(-0.0)">
			<text transform="matrix(1 0 0 1 59.9553 33.8577)" class="st4 st2 st3">G</text>
		</g>
	</g>
</g>
<g id="ID000015">
	<g>
		<g transform="translate(342.857,88.863)">
			<g transform="rotate(-0.0)">
				<text transform="matrix(1 0 0 1 59.8313 35.1097)" class="st5 st2 st3">A</text>
			</g>
		</g>
	</g>
</g>
<g id="ID000016">
	<g transform="translate(349.919,286.615)">
		<g transform="rotate(-0.0)">
			<text transform="matrix(1 -3.949330e-03 3.949330e-03 1 143.8342 13.3437)" class="st7 st2 st3">G</text>
		</g>
	</g>
</g>
<g id="ID000017">
	<line class="st6" x1="505.3" y1="304" x2="505.3" y2="320.4"/>
</g>
<g id="ID000018">
	<g transform="translate(349.919,336.600)">
		<g transform="rotate(-0.0)">
			<text transform="matrix(1 0 0 1 139.7986 8.1129)" class="st2 st3">30</text>
		</g>
	</g>
</g>
<g id="ID000019">
	<g transform="translate(236.918,286.615)">
		<g transform="rotate(-0.0)">
			<text transform="matrix(1 0 0 1 73.3528 13.342)" class="st1 st2 st3">C</text>
		</g>
	</g>
</g>
<g id="ID000020">
	<g transform="translate(208.668,286.615)">
		<g transform="rotate(-0.0)">
			<text transform="matrix(1 0 0 1 76.9583 13.342)" class="st1 st2 st3">U</text>
		</g>
	</g>
</g>
<g id="ID000021">
	<g transform="translate(180.418,286.615)">
		<g transform="rotate(-0.0)">
			<text transform="matrix(1 0 0 1 80.5642 13.342)" class="st1 st2 st3">U</text>
		</g>
	</g>
</g>
<g id="ID000022">
	<g transform="translate(152.168,286.615)">
		<g transform="rotate(-0.0)">
			<text transform="matrix(1 0 0 1 84.1707 13.342)" class="st1 st2 st3">C</text>
		</g>
	</g>
</g>
<g id="ID000023">
	<g transform="translate(123.918,286.615)">
		<g transform="rotate(-0.0)">
			<text transform="matrix(1 0 0 1 87.7752 13.342)" class="st1 st2 st3">C</text>
		</g>
	</g>
</g>
<g id="ID000024">
	<g transform="translate(95.667,286.615)">
		<g transform="rotate(-0.0)">
			<text transform="matrix(1 0 0 1 91.3816 13.342)" class="st1 st2 st3">C</text>
		</g>
	</g>
</g>
<g id="ID000025">
	<line class="st6" x1="196.9" y1="254" x2="196.9" y2="277.5"/>
</g>
<g id="ID000026">
	<line class="st6" x1="221.6" y1="254" x2="221.6" y2="277.5"/>
</g>
<g id="ID000027">
	<line class="st6" x1="246.2" y1="254" x2="246.2" y2="277.5"/>
</g>
<g id="ID000028">
	<line class="st6" x1="270.9" y1="254" x2="270.9" y2="277.5"/>
</g>
<g id="ID000029">
	<line class="st6" x1="295.6" y1="254" x2="295.6" y2="277.5"/>
</g>
<g id="ID000030">
	<line class="st6" x1="320.2" y1="254" x2="320.2" y2="277.5"/>
</g>
<g id="ID000031">
	<line class="st6" x1="345.7" y1="211.5" x2="389.5" y2="136.5"/>
</g>
<g id="ID000032">
	<polygon class="st8" points="364.1,180.1 364.3,180.3 364.6,180.4 364.9,180.4 365,180.6 365.3,180.6 365.6,180.7 365.9,180.7 
		366.2,180.7 366.5,180.7 366.7,180.7 367,180.7 367.3,180.6 367.6,180.6 367.9,180.4 368.1,180.3 368.4,180.3 368.7,180.1 
		368.8,180 369.1,179.7 369.3,179.5 369.4,179.4 369.7,179.2 369.9,178.9 370,178.8 370.2,178.4 370.3,178.1 370.3,178 370.5,177.7 
		370.5,177.4 370.6,177.1 370.6,176.9 370.6,176.6 370.6,176.3 370.6,176 370.6,175.7 370.6,175.4 370.6,175.3 370.5,175 
		370.3,174.7 370.3,174.4 370.2,174.2 370,173.9 369.9,173.8 369.7,173.5 369.4,173.3 369.3,173 369.1,172.9 368.8,172.7 
		368.7,172.6 368.4,172.4 368.1,172.3 367.9,172.3 367.6,172.1 367.3,172 367,172 366.8,172 366.5,172 366.2,172 365.9,172 
		365.6,172 365.3,172 365.2,172.1 364.9,172.1 364.6,172.3 364.3,172.4 364.1,172.4 363.8,172.6 363.7,172.7 363.4,173 363.2,173.2 
		363.1,173.3 362.8,173.6 362.6,173.8 362.5,174.1 362.3,174.2 362.3,174.5 362.2,174.8 362,175 362,175.3 362,175.6 361.9,175.9 
		361.9,176.2 361.9,176.5 361.9,176.6 361.9,176.9 362,177.2 362,177.5 362.2,177.8 362.3,178 362.3,178.3 362.5,178.6 362.6,178.8 
		362.8,179.1 362.9,179.2 363.2,179.4 363.4,179.7 363.7,179.8 363.8,180 	"/>
</g>
<g id="ID000033">
	<polygon class="st8" points="370.5,160.3 366.1,168 373.6,172.4 378,164.9 	"/>
</g>
<g id="ID000034">
	<line class="st6" x1="349.8" y1="181.6" x2="366.5" y2="143.6"/>
</g>
<g id="ID000035">
	<polygon class="st8" points="352.6,174.5 360,169.1 351.7,165.5 	"/>
</g>
<g id="ID000036">
	<polygon class="st8" points="357,154.7 353.7,162.1 361.1,165.5 364.4,158.1 	"/>
</g>
<g id="ID000037">
	<line class="st6" x1="368.1" y1="142.8" x2="497.3" y2="191.3"/>
</g>
<g id="ID000038">
	<polygon class="st9" points="420.8,162.6 427.7,171 431.6,160.8 	"/>
</g>
<g id="ID000039">
	<polygon class="st9" points="443.3,171 443.4,170.7 443.4,170.4 443.6,170.1 443.6,169.8 443.6,169.5 443.6,169.2 443.6,168.9 
		443.6,168.5 443.6,168.2 443.4,167.9 443.3,167.6 443.3,167.3 443.1,167.1 443,166.8 442.8,166.5 442.7,166.2 442.4,166.1 
		442.2,165.8 441.9,165.6 441.8,165.5 441.5,165.2 441.2,165 440.8,164.9 440.7,164.7 440.4,164.7 440.1,164.6 439.8,164.4 
		439.5,164.4 439.2,164.4 438.9,164.4 438.4,164.4 438.1,164.4 437.8,164.4 437.5,164.6 437.2,164.6 436.9,164.7 436.6,164.7 
		436.5,164.9 436.2,165 435.9,165.3 435.6,165.5 435.4,165.6 435.1,165.9 435,166.1 434.8,166.4 434.5,166.5 434.4,166.8 
		434.2,167.1 434.2,167.4 434.1,167.7 433.9,168 433.9,168.3 433.8,168.6 433.8,168.9 433.8,169.2 433.8,169.5 433.8,169.8 
		433.9,170.1 433.9,170.4 434.1,170.7 434.1,171 434.2,171.4 434.4,171.7 434.5,172 434.7,172.1 434.8,172.4 435.1,172.7 
		435.3,172.9 435.6,173 435.7,173.3 436,173.5 436.3,173.6 436.6,173.8 436.9,173.9 437.2,173.9 437.5,174.1 437.8,174.1 
		438.1,174.2 438.4,174.2 438.7,174.2 439,174.2 439.3,174.2 439.6,174.1 439.9,174.1 440.2,173.9 440.5,173.9 440.8,173.8 
		441.2,173.6 441.3,173.5 441.6,173.2 441.9,173 442.1,172.9 442.4,172.6 442.5,172.4 442.7,172.1 443,171.8 443.1,171.7 
		443.1,171.4 	"/>
</g>
<g id="ID000042">
	<g>
		<g>
			<line class="st6" x1="514.9" y1="230.1" x2="513.8" y2="236"/>
			<line class="st10" x1="512" y1="246.2" x2="509.4" y2="261.4"/>
			<line class="st6" x1="508.5" y1="266.5" x2="507.5" y2="272.4"/>
		</g>
	</g>
</g>
<g id="ID000043">
	<polygon class="st9" points="512.1,246.1 512,246.1 511.8,246.1 511.7,246.1 511.5,246.1 511.4,246.1 511.2,246.1 511.1,246.1 
		510.9,246.1 510.9,246.3 510.8,246.3 510.6,246.4 510.5,246.4 510.3,246.6 510.3,246.6 510.2,246.7 510,246.9 510,246.9 509.9,247 
		509.9,247.2 509.7,247.3 509.7,247.5 509.6,247.5 509.6,247.6 509.6,247.8 509.6,247.9 509.6,248.1 509.4,248.2 509.4,248.4 
		509.6,248.5 509.6,248.7 509.6,248.8 509.6,249 509.6,249.1 509.7,249.1 509.7,249.3 509.9,249.4 509.9,249.6 510,249.7 510,249.7 
		510.2,249.9 510.3,250 510.3,250 510.5,250.2 510.6,250.2 510.8,250.3 510.9,250.3 510.9,250.3 511.1,250.5 511.2,250.5 
		511.4,250.5 511.5,250.5 511.7,250.5 511.8,250.5 512,250.5 512.1,250.5 512.3,250.5 512.4,250.5 512.6,250.3 512.6,250.3 
		512.7,250.3 512.9,250.2 513,250.2 513.2,250 513.2,249.9 513.3,249.9 513.5,249.7 513.5,249.6 513.6,249.4 513.6,249.4 
		513.8,249.3 513.8,249.1 513.8,249 513.9,248.8 513.9,248.7 513.9,248.5 513.9,248.4 513.9,248.2 513.9,248.2 513.9,248.1 
		513.9,247.9 513.9,247.8 513.8,247.6 513.8,247.5 513.8,247.3 513.6,247.2 513.6,247 513.5,247 513.5,246.9 513.3,246.7 
		513.2,246.7 513.2,246.6 513,246.4 512.9,246.4 512.7,246.3 512.6,246.3 512.6,246.3 512.4,246.1 512.3,246.1 	"/>
</g>
<g id="ID000044">
	<polygon class="st9" points="512.6,256.7 513.3,252.2 509,251.4 508.1,255.9 	"/>
</g>
<g id="ID000046">
	<g>
		<g transform="translate(371.107,88.863)">
			<g transform="rotate(-0.0)">
				<text transform="matrix(1 0 0 1 55.0559 33.1922)" class="st4 st2 st3">A</text>
			</g>
		</g>
	</g>
</g>
<g id="ID000047">
	<g transform="translate(427.607,117.114)">
		<g transform="rotate(-0.0)">
			<text transform="matrix(1 0 0 1 45.9416 41.0452)" class="st4 st2 st3">A</text>
		</g>
	</g>
</g>
<g id="ID000048">
	<g transform="translate(441.732,145.364)">
		<g transform="rotate(-0.0)">
			<text transform="matrix(1 0 0 1 47.2112 31.3709)" class="st4 st2 st3">C</text>
		</g>
	</g>
</g>
<g id="ID000049">
	<g transform="translate(455.858,173.614)">
		<g transform="rotate(-0.0)">
			<text transform="matrix(1 0 0 1 45.4084 27.7649)" class="st4 st2 st3">U</text>
		</g>
	</g>
</g>
<g id="ID000050">
	<g transform="translate(462.920,201.864)">
		<g transform="rotate(-0.0)">
			<text transform="matrix(1 0 0 1 40.6433 24.9632)" class="st4 st2 st3">G</text>
		</g>
	</g>
</g>
<g id="ID000051">
	<g transform="translate(477.045,230.114)">
		<g transform="rotate(-0.0)">
			<text transform="matrix(1 0 0 1 42.7038 20.554)" class="st11 st2 st3">C</text>
		</g>
	</g>
</g>
<g id="ID000052">
	<g transform="translate(505.295,230.114)">
		<g transform="rotate(-0.0)">
			<text transform="matrix(1 0 0 1 38.6862 20.554)" class="st11 st2 st3">G</text>
		</g>
	</g>
</g>
<g id="ID000053">
	<g transform="translate(533.546,230.114)">
		<g transform="rotate(-0.0)">
			<text transform="matrix(1 0 0 1 35.0788 20.554)" class="st11 st2 st3">G</text>
		</g>
	</g>
</g>
<g id="ID000054">
	<line class="st6" x1="574.4" y1="227.7" x2="574.4" y2="211.2"/>
</g>
<g id="ID000055">
	<g transform="translate(533.546,180.635)">
		<g transform="rotate(-0.0)">
			<text transform="matrix(1 0 0 1 32.5993 26.8689)" class="st2 st3">20</text>
		</g>
	</g>
</g>
<g id="ID000056">
	<g transform="translate(561.796,230.114)">
		<g transform="rotate(-0.0)">
			<text transform="matrix(1 0 0 1 31.8864 20.554)" class="st11 st2 st3">C</text>
		</g>
	</g>
</g>
<g id="ID000057">
	<g transform="translate(590.046,223.052)">
		<g transform="rotate(-0.0)">
			<text transform="matrix(1 0 0 1 28.2809 21.4548)" class="st11 st2 st3">U</text>
		</g>
	</g>
</g>
<g id="ID000058">
	<g transform="translate(618.296,237.177)">
		<g transform="rotate(-0.0)">
			<text transform="matrix(1 0 0 1 24.6755 19.6521)" class="st11 st2 st3">U</text>
		</g>
	</g>
</g>
<g id="ID000059">
	<g transform="translate(618.296,272.490)">
		<g transform="rotate(-0.0)">
			<text transform="matrix(1 0 0 1 24.6755 15.1458)" class="st11 st2 st3">C</text>
		</g>
	</g>
</g>
<g id="ID000060">
	<g transform="translate(590.046,293.677)">
		<g transform="rotate(-0.0)">
			<text transform="matrix(1 0 0 1 27.8688 12.4412)" class="st11 st2 st3">G</text>
		</g>
	</g>
</g>
<g id="ID000061">
	<g transform="translate(561.796,286.615)">
		<g transform="rotate(-0.0)">
			<text transform="matrix(1 0 0 1 31.4723 13.342)" class="st11 st2 st3">G</text>
		</g>
	</g>
</g>
<g id="ID000062">
	<g transform="translate(533.546,286.615)">
		<g transform="rotate(-0.0)">
			<text transform="matrix(1 0 0 1 35.4919 13.342)" class="st11 st2 st3">C</text>
		</g>
	</g>
</g>
<g id="ID000063">
	<g transform="translate(505.295,286.615)">
		<g transform="rotate(-0.0)">
			<text transform="matrix(1 0 0 1 39.0983 13.342)" class="st11 st2 st3">C</text>
		</g>
	</g>
</g>
<g id="ID000064">
	<g transform="translate(477.045,286.615)">
		<g transform="rotate(-0.0)">
			<text transform="matrix(1 0 0 1 42.2907 13.342)" class="st11 st2 st3">G</text>
		</g>
	</g>
</g>
<g id="ID000065">
	<line class="st6" x1="449.9" y1="118.6" x2="477.4" y2="140.8"/>
</g>
<g id="ID000066">
	<polygon class="st9" points="454.9,122.7 454.7,122.9 454.4,123.2 454.3,123.5 454.3,123.8 454.1,124.1 454,124.2 454,124.5 
		453.8,125 453.8,125.3 453.8,125.6 453.8,125.9 453.8,126.2 453.8,126.5 453.8,126.8 454,127.1 454,127.4 454.1,127.7 454.3,128 
		454.4,128.2 454.6,128.5 454.7,128.8 455,129.1 455.2,129.2 455.5,129.4 455.7,129.7 456,129.8 456.3,130 456.4,130.1 456.7,130.3 
		457,130.4 457.3,130.4 457.6,130.6 457.9,130.6 458.2,130.7 458.5,130.7 458.8,130.7 459.1,130.7 459.4,130.6 459.9,130.6 
		460.2,130.4 460.3,130.4 460.6,130.3 460.9,130.1 461.2,130 461.5,129.8 461.7,129.7 462,129.4 462.3,129.2 462.4,128.9 
		462.6,128.8 462.7,128.5 463.1,128.2 463.2,128 463.2,127.7 463.4,127.4 463.5,127.1 463.5,126.8 463.7,126.5 463.7,126.2 
		463.7,125.9 463.7,125.4 463.7,125.1 463.5,124.8 463.5,124.5 463.4,124.2 463.4,123.9 463.2,123.6 463.1,123.5 462.9,123.2 
		462.7,122.9 462.6,122.6 462.3,122.4 462.1,122.1 461.8,122 461.7,121.8 461.4,121.7 461.1,121.5 460.8,121.4 460.5,121.2 
		460.2,121.1 459.9,120.9 459.6,120.9 459.3,120.9 459,120.9 458.7,120.8 458.4,120.9 458.1,120.9 457.8,120.9 457.5,121.1 
		457.2,121.1 456.9,121.2 456.6,121.4 456.3,121.5 456.1,121.7 455.8,121.8 455.5,122 455.3,122.3 455,122.4 	"/>
</g>
<g id="ID000067">
	<polygon class="st9" points="475.6,133.1 467.9,126.9 461.7,134.5 469.4,140.7 	"/>
</g>
<g id="ID000068">
	<line class="st6" x1="532.1" y1="252.5" x2="532.1" y2="275.3"/>
</g>
<g id="ID000069">
	<line class="st6" x1="556.7" y1="252.5" x2="556.7" y2="275.3"/>
</g>
<g id="ID000070">
	<line class="st6" x1="581.3" y1="252.5" x2="581.3" y2="275.3"/>
</g>
<g id="ID000071">
	<line class="st6" x1="606.1" y1="252.5" x2="606.1" y2="275.3"/>
</g>
<g id="ID000072">
	<line class="st6" x1="629.9" y1="247" x2="629.9" y2="280.2"/>
</g>
<g id="ID000073">
	<polygon class="st8" points="629.9,253.5 625.6,261.1 634.3,261.1 	"/>
</g>
<g id="ID000074">
	<polygon class="st8" points="629.9,272.7 630.2,272.7 630.4,272.5 630.7,272.5 630.8,272.5 631.1,272.4 631.4,272.4 631.6,272.2 
		631.9,272.1 632.1,272.1 632.2,271.9 632.5,271.8 632.7,271.5 632.8,271.3 633,271.2 633.1,271 633.3,270.7 633.4,270.6 
		633.4,270.4 633.6,270.1 633.7,269.8 633.7,269.7 633.7,269.4 633.9,269.2 633.9,268.9 633.9,268.6 633.9,268.5 633.9,268.2 
		633.7,267.9 633.7,267.7 633.6,267.4 633.6,267.3 633.4,267 633.3,266.8 633.3,266.5 633.1,266.3 633,266.2 632.7,266 632.5,265.7 
		632.4,265.6 632.2,265.4 631.9,265.4 631.7,265.3 631.4,265.1 631.3,265 631,265 630.8,265 630.5,264.8 630.2,264.8 630.1,264.8 
		629.8,264.8 629.5,264.8 629.3,264.8 629,265 628.9,265 628.6,265 628.4,265.1 628.1,265.3 628,265.4 627.7,265.4 627.5,265.6 
		627.4,265.7 627.2,266 626.9,266.2 626.8,266.3 626.6,266.5 626.6,266.8 626.5,267 626.3,267.3 626.3,267.4 626.2,267.7 
		626.2,267.9 626,268.2 626,268.5 626,268.6 626,268.9 626,269.2 626,269.4 626.2,269.7 626.2,269.8 626.3,270.1 626.3,270.4 
		626.5,270.6 626.6,270.7 626.8,271 626.9,271.2 627.1,271.3 627.2,271.5 627.4,271.8 627.7,271.9 627.8,272.1 628,272.1 
		628.3,272.2 628.4,272.4 628.7,272.4 628.9,272.5 629.2,272.5 629.5,272.5 629.6,272.7 	"/>
</g>
<g id="ID000076">
	<line class="st12" x1="491" y1="291.1" x2="338.8" y2="291.1"/>
</g>
<g id="ID000077">
	<polygon class="st13" points="411.2,295 408.4,292.8 405.5,292 402.6,291.7 396.9,290.5 402.6,289.5 405.5,289 408.4,288.2 
		411.2,286 	"/>
</g>
<rect x="378.9" y="191.4" class="st14" width="84" height="34"/>
<text transform="matrix(1 0 0 1 378.9793 217.4053)" class="st2 st3">AMP</text>
<rect x="211.3" y="56.7" class="st14" width="188" height="30.1"/>
<text transform="matrix(1 0 0 1 17.9426 33.1111)" class="st2 st15">ATP binding aptamer (1993)</text>
<text transform="matrix(1 0 0 1 167.5783 223.4547)" class="st2 st15">5‘</text>
<text transform="matrix(1 0 0 1 168.4181 322.9951)" class="st2 st15">3’</text>
</svg>
