<?xml version="1.0" encoding="utf-8"?>
<!-- Generator: Adobe Illustrator 23.0.3, SVG Export Plug-In . SVG Version: 6.00 Build 0)  -->
<svg version="1.1" id="图层_1" xmlns="http://www.w3.org/2000/svg" xmlns:xlink="http://www.w3.org/1999/xlink" x="0px" y="0px"
	 viewBox="0 0 800 400" style="enable-background:new 0 0 800 400;" xml:space="preserve">
<style type="text/css">
	.st0{fill:#F6F309;}
	.st1{fill:#09FEFE;}
	.st2{font-family:'ArialMT';}
	.st3{font-size:20px;}
	.st4{fill:#FF00FF;}
	.st5{fill:#C2C2FF;}
	.st6{fill:none;stroke:#000000;stroke-width:0.5;}
	.st7{fill:#80DB86;}
	.st8{fill:#FFFFFF;stroke:#000000;stroke-width:0.5;}
	.st9{stroke:#000000;stroke-width:0.5;}
	.st10{fill:none;stroke:#000000;stroke-miterlimit:10;}
	.st11{stroke:#000000;stroke-width:0.25;}
	.st12{fill:none;}
</style>
<rect x="366" y="169.5" class="st0" width="56" height="22.4"/>
<g id="ID000002">
	<g transform="translate(95.667,230.114)">
		<g transform="rotate(-0.0)">
			<text transform="matrix(1 0 0 1 147.6104 -20.1953)" class="st1 st2 st3">G</text>
		</g>
	</g>
</g>
<g id="ID000003">
	<g transform="translate(123.918,230.114)">
		<g transform="rotate(-0.0)">
			<text transform="matrix(1 0 0 1 135.6778 -20.1953)" class="st1 st2 st3">G</text>
		</g>
	</g>
</g>
<g id="ID000004">
	<g transform="translate(152.168,230.114)">
		<g transform="rotate(-0.0)">
			<text transform="matrix(1 0 0 1 123.7456 -20.1953)" class="st1 st2 st3">G</text>
		</g>
	</g>
</g>
<g id="ID000005">
	<g transform="translate(180.418,230.114)">
		<g transform="rotate(-0.0)">
			<text transform="matrix(1 0 0 1 112.0864 -20.1953)" class="st1 st2 st3">A</text>
		</g>
	</g>
</g>
<g id="ID000006">
	<g transform="translate(208.668,230.114)">
		<g transform="rotate(-0.0)">
			<text transform="matrix(1 0 0 1 100.1538 -20.1953)" class="st1 st2 st3">A</text>
		</g>
	</g>
</g>
<g id="ID000007">
	<g transform="translate(236.918,230.114)">
		<g transform="rotate(-0.0)">
			<text transform="matrix(1 0 0 1 87.9488 -20.1953)" class="st1 st2 st3">G</text>
		</g>
	</g>
</g>
<g id="ID000008">
	<g transform="translate(258.106,208.927)">
		<g transform="rotate(-0.0)">
			<text transform="matrix(1 0 0 1 73.5795 -15.3264)" class="st4 st2 st3">G</text>
		</g>
	</g>
</g>
<g id="ID000009">
	<g transform="translate(258.106,173.614)">
		<g transform="rotate(-0.0)">
			<text transform="matrix(1 0 0 1 75.2519 1.1295)" class="st5 st2 st3">G</text>
		</g>
	</g>
</g>
<g id="ID000010">
	<g transform="translate(265.169,138.301)">
		<g transform="rotate(-0.0)">
			<text transform="matrix(1 0 0 1 73.7494 14.4658)" class="st5 st2 st3">A</text>
		</g>
	</g>
</g>
<g id="ID000011">
	<g transform="translate(286.356,110.051)">
		<g transform="rotate(-0.0)">
			<text transform="matrix(1 0 0 1 66.8065 27.2908)" class="st5 st2 st3">A</text>
		</g>
	</g>
</g>
<g id="ID000012">
	<line class="st6" x1="359.6" y1="121.2" x2="359.6" y2="110.3"/>
</g>
<g id="ID000013">
	<g transform="translate(286.356,60.572)">
		<g transform="rotate(-0.0)">
			<text transform="matrix(1 0 0 1 61.8576 48.2413)" class="st2 st3">10</text>
		</g>
	</g>
</g>
<g id="ID000014">
	<g transform="translate(314.607,95.926)">
		<g transform="rotate(-0.0)">
			<text transform="matrix(1 0 0 1 53.1018 33.9518)" class="st5 st2 st3">G</text>
		</g>
	</g>
</g>
<g id="ID000015">
	<g transform="translate(342.857,88.863)">
		<g transform="rotate(-0.0)">
			<text transform="matrix(1 0 0 1 43.4749 37.1672)" class="st5 st2 st3">A</text>
		</g>
	</g>
</g>
<g id="ID000016">
	<g transform="translate(349.919,286.615)">
		<g transform="rotate(-0.0)">
			<text transform="matrix(1 0 0 1 96.5782 -44.0607)" class="st7 st2 st3">G</text>
		</g>
	</g>
</g>
<g id="ID000017">
	<line class="st6" x1="454.3" y1="245.2" x2="454.3" y2="256.1"/>
</g>
<g id="ID000018">
	<g transform="translate(349.919,336.600)">
		<g transform="rotate(-0.0)">
			<text transform="matrix(1 0 0 1 94.0375 -64.4113)" class="st2 st3">30</text>
		</g>
	</g>
</g>
<g id="ID000019">
	<g transform="translate(236.918,286.615)">
		<g transform="rotate(-0.0)">
			<text transform="matrix(1 0 0 1 88.2217 -44.0605)" class="st1 st2 st3">C</text>
		</g>
	</g>
</g>
<g id="ID000020">
	<g transform="translate(208.668,286.615)">
		<g transform="rotate(-0.0)">
			<text transform="matrix(1 0 0 1 100.1538 -44.0605)" class="st1 st2 st3">U</text>
		</g>
	</g>
</g>
<g id="ID000021">
	<g transform="translate(180.418,286.615)">
		<g transform="rotate(-0.0)">
			<text transform="matrix(1 0 0 1 112.0864 -44.0605)" class="st1 st2 st3">U</text>
		</g>
	</g>
</g>
<g id="ID000022">
	<g transform="translate(152.168,286.615)">
		<g transform="rotate(-0.0)">
			<text transform="matrix(1 0 0 1 124.0191 -44.0605)" class="st1 st2 st3">C</text>
		</g>
	</g>
</g>
<g id="ID000023">
	<g transform="translate(123.918,286.615)">
		<g transform="rotate(-0.0)">
			<text transform="matrix(1 0 0 1 135.9507 -44.0605)" class="st1 st2 st3">C</text>
		</g>
	</g>
</g>
<g id="ID000024">
	<g transform="translate(95.667,286.615)">
		<g transform="rotate(-0.0)">
			<text transform="matrix(1 0 0 1 147.8838 -44.0605)" class="st1 st2 st3">C</text>
		</g>
	</g>
</g>
<g id="ID000025">
	<line class="st6" x1="250.1" y1="212.1" x2="250.1" y2="227.7"/>
</g>
<g id="ID000026">
	<line class="st6" x1="266.4" y1="212.1" x2="266.4" y2="227.7"/>
</g>
<g id="ID000027">
	<line class="st6" x1="282.7" y1="212.1" x2="282.7" y2="227.7"/>
</g>
<g id="ID000028">
	<line class="st6" x1="299.1" y1="212.1" x2="299.1" y2="227.7"/>
</g>
<g id="ID000029">
	<line class="st6" x1="315.4" y1="212.1" x2="315.4" y2="227.7"/>
</g>
<g id="ID000030">
	<line class="st6" x1="331.7" y1="212.1" x2="331.7" y2="227.7"/>
</g>
<g id="ID000031">
	<line class="st6" x1="348.6" y1="184" x2="377.6" y2="134.3"/>
</g>
<g id="ID000032">
	<polygon class="st8" points="360.8,163.2 360.9,163.3 361.1,163.4 361.3,163.4 361.4,163.5 361.6,163.5 361.8,163.6 362,163.6 
		362.2,163.6 362.4,163.6 362.5,163.6 362.7,163.6 362.9,163.5 363.1,163.5 363.3,163.4 363.4,163.3 363.6,163.3 363.8,163.2 
		363.9,163.1 364.1,162.9 364.2,162.8 364.3,162.7 364.5,162.6 364.6,162.4 364.7,162.3 364.8,162.1 364.9,161.9 364.9,161.8 
		365,161.6 365,161.4 365.1,161.2 365.1,161.1 365.1,160.9 365.1,160.7 365.1,160.5 365.1,160.3 365.1,160.1 365.1,160 365,159.8 
		364.9,159.6 364.9,159.4 364.8,159.3 364.7,159.1 364.6,159 364.5,158.8 364.3,158.7 364.2,158.5 364.1,158.4 363.9,158.3 
		363.8,158.2 363.6,158.1 363.4,158 363.3,158 363.1,157.9 362.9,157.8 362.7,157.8 362.6,157.8 362.4,157.8 362.2,157.8 362,157.8 
		361.8,157.8 361.6,157.8 361.5,157.9 361.3,157.9 361.1,158 360.9,158.1 360.8,158.1 360.6,158.2 360.5,158.3 360.3,158.5 
		360.2,158.6 360.1,158.7 359.9,158.9 359.8,159 359.7,159.2 359.6,159.3 359.6,159.5 359.5,159.7 359.4,159.8 359.4,160 
		359.4,160.2 359.3,160.4 359.3,160.6 359.3,160.8 359.3,160.9 359.3,161.1 359.4,161.3 359.4,161.5 359.5,161.7 359.6,161.8 
		359.6,162 359.7,162.2 359.8,162.3 359.9,162.5 360,162.6 360.2,162.7 360.3,162.9 360.5,163 360.6,163.1 	"/>
</g>
<g id="ID000033">
	<polygon class="st8" points="365,150.1 362.1,155.2 367.1,158.1 370,153.1 	"/>
</g>
<g id="ID000034">
	<line class="st6" x1="351.3" y1="164.2" x2="362.4" y2="139"/>
</g>
<g id="ID000035">
	<polygon class="st8" points="353.2,159.5 358.1,155.9 352.6,153.5 	"/>
</g>
<g id="ID000036">
	<polygon class="st8" points="356.1,146.4 353.9,151.3 358.8,153.5 361,148.6 	"/>
</g>
<g id="ID000037">
	<line class="st6" x1="363.4" y1="138.5" x2="449" y2="170.6"/>
</g>
<g id="ID000038">
	<polygon class="st9" points="398.3,151.6 402.9,157.2 405.5,150.4 	"/>
</g>
<g id="ID000039">
	<polygon class="st9" points="413.2,157.2 413.3,157 413.3,156.8 413.4,156.6 413.4,156.4 413.4,156.2 413.4,156 413.4,155.8 
		413.4,155.5 413.4,155.3 413.3,155.1 413.2,154.9 413.2,154.7 413.1,154.6 413,154.4 412.9,154.2 412.8,154 412.6,153.9 
		412.5,153.7 412.3,153.6 412.2,153.5 412,153.3 411.8,153.2 411.6,153.1 411.5,153 411.3,153 411.1,152.9 410.9,152.8 410.7,152.8 
		410.5,152.8 410.3,152.8 410,152.8 409.8,152.8 409.6,152.8 409.4,152.9 409.2,152.9 409,153 408.8,153 408.7,153.1 408.5,153.2 
		408.3,153.4 408.1,153.5 408,153.6 407.8,153.8 407.7,153.9 407.6,154.1 407.4,154.2 407.3,154.4 407.2,154.6 407.2,154.8 
		407.1,155 407,155.2 407,155.4 406.9,155.6 406.9,155.8 406.9,156 406.9,156.2 406.9,156.4 407,156.6 407,156.8 407.1,157 
		407.1,157.2 407.2,157.4 407.3,157.6 407.4,157.8 407.5,157.9 407.6,158.1 407.8,158.3 407.9,158.4 408.1,158.5 408.2,158.7 
		408.4,158.8 408.6,158.9 408.8,159 409,159.1 409.2,159.1 409.4,159.2 409.6,159.2 409.8,159.3 410,159.3 410.2,159.3 410.4,159.3 
		410.6,159.3 410.8,159.2 411,159.2 411.2,159.1 411.4,159.1 411.6,159 411.8,158.9 411.9,158.8 412.1,158.6 412.3,158.5 
		412.4,158.4 412.6,158.2 412.7,158.1 412.8,157.9 413,157.7 413.1,157.6 413.1,157.4 	"/>
</g>
<g id="ID000042">
	<line class="st6" x1="460.6" y1="196.3" x2="455.7" y2="224.3"/>
</g>
<g id="ID000043">
	<polygon class="st9" points="458.8,206.9 458.7,206.9 458.6,206.9 458.5,206.9 458.4,206.9 458.3,206.9 458.2,206.9 458.1,206.9 
		458,206.9 458,207 457.9,207 457.8,207.1 457.7,207.1 457.6,207.2 457.6,207.2 457.5,207.3 457.4,207.4 457.4,207.4 457.3,207.5 
		457.3,207.6 457.2,207.7 457.2,207.8 457.1,207.8 457.1,207.9 457.1,208 457.1,208.1 457.1,208.2 457,208.3 457,208.4 457.1,208.5 
		457.1,208.6 457.1,208.7 457.1,208.8 457.1,208.9 457.2,208.9 457.2,209 457.3,209.1 457.3,209.2 457.4,209.3 457.4,209.3 
		457.5,209.4 457.6,209.5 457.6,209.5 457.7,209.6 457.8,209.6 457.9,209.7 458,209.7 458,209.7 458.1,209.8 458.2,209.8 
		458.3,209.8 458.4,209.8 458.5,209.8 458.6,209.8 458.7,209.8 458.8,209.8 458.9,209.8 459,209.8 459.1,209.7 459.1,209.7 
		459.2,209.7 459.3,209.6 459.4,209.6 459.5,209.5 459.5,209.4 459.6,209.4 459.7,209.3 459.7,209.2 459.8,209.1 459.8,209.1 
		459.9,209 459.9,208.9 459.9,208.8 460,208.7 460,208.6 460,208.5 460,208.4 460,208.3 460,208.3 460,208.2 460,208.1 460,208 
		459.9,207.9 459.9,207.8 459.9,207.7 459.8,207.6 459.8,207.5 459.7,207.5 459.7,207.4 459.6,207.3 459.5,207.3 459.5,207.2 
		459.4,207.1 459.3,207.1 459.2,207 459.1,207 459.1,207 459,206.9 458.9,206.9 	"/>
</g>
<g id="ID000044">
	<polygon class="st9" points="459.1,213.9 459.6,210.9 456.7,210.4 456.1,213.4 	"/>
</g>
<g id="ID000046">
	<g transform="translate(371.107,88.863)">
		<g transform="rotate(-0.0)">
			<text transform="matrix(1 0 0 1 30.7684 35.8975)" class="st4 st2 st3">A</text>
		</g>
	</g>
</g>
<g id="ID000047">
	<g transform="translate(427.607,117.114)">
		<g transform="rotate(-0.0)">
			<text transform="matrix(1 0 0 1 5.6438 31.5519)" class="st5 st2 st3">A</text>
		</g>
	</g>
</g>
<g id="ID000048">
	<g transform="translate(441.732,145.364)">
		<g transform="rotate(-0.0)">
			<text transform="matrix(1 0 0 1 1.7119 15.6016)" class="st5 st2 st3">C</text>
		</g>
	</g>
</g>
<g id="ID000049">
	<g transform="translate(455.858,173.614)">
		<g transform="rotate(-0.0)">
			<text transform="matrix(1 0 0 1 -4.2549 3.669)" class="st5 st2 st3">U</text>
		</g>
	</g>
</g>
<g id="ID000050">
	<g transform="translate(462.920,201.864)">
		<g transform="rotate(-0.0)">
			<text transform="matrix(1 0 0 1 -9.796 -7.7306)" class="st5 st2 st3">G</text>
		</g>
	</g>
</g>
<g id="ID000051">
	<g transform="translate(477.045,230.114)">
		<g transform="rotate(-0.0)">
			<text transform="matrix(1 0 0 1 -13.2037 -20.1953)" class="st7 st2 st3">C</text>
		</g>
	</g>
</g>
<g id="ID000052">
	<g transform="translate(505.295,230.114)">
		<g transform="rotate(-0.0)">
			<text transform="matrix(1 0 0 1 -25.4087 -20.1953)" class="st7 st2 st3">G</text>
		</g>
	</g>
</g>
<g id="ID000053">
	<g transform="translate(533.546,230.114)">
		<g transform="rotate(-0.0)">
			<text transform="matrix(1 0 0 1 -37.3424 -20.1953)" class="st7 st2 st3">G</text>
		</g>
	</g>
</g>
<g id="ID000054">
	<line class="st6" x1="500" y1="194.7" x2="500" y2="183.8"/>
</g>
<g id="ID000055">
	<g transform="translate(533.546,180.635)">
		<g transform="rotate(-0.0)">
			<text transform="matrix(1 0 0 1 -38.984 0.7037)" class="st2 st3">20</text>
		</g>
	</g>
</g>
<g id="ID000056">
	<g transform="translate(561.796,230.114)">
		<g transform="rotate(-0.0)">
			<text transform="matrix(1 0 0 1 -49.0015 -20.1953)" class="st7 st2 st3">C</text>
		</g>
	</g>
</g>
<g id="ID000057">
	<g transform="translate(590.046,223.052)">
		<g transform="rotate(-0.0)">
			<text transform="matrix(1 0 0 1 -60.9332 -17.2124)" class="st7 st2 st3">U</text>
		</g>
	</g>
</g>
<g id="ID000058">
	<g transform="translate(618.296,237.177)">
		<g transform="rotate(-0.0)">
			<text transform="matrix(1 0 0 1 -72.8658 -23.1787)" class="st7 st2 st3">U</text>
		</g>
	</g>
</g>
<g id="ID000059">
	<g transform="translate(618.296,272.490)">
		<g transform="rotate(-0.0)">
			<text transform="matrix(1 0 0 1 -72.8658 -38.0942)" class="st7 st2 st3">C</text>
		</g>
	</g>
</g>
<g id="ID000060">
	<g transform="translate(590.046,293.677)">
		<g transform="rotate(-0.0)">
			<text transform="matrix(1 0 0 1 -61.2066 -47.0434)" class="st7 st2 st3">G</text>
		</g>
	</g>
</g>
<g id="ID000061">
	<g transform="translate(561.796,286.615)">
		<g transform="rotate(-0.0)">
			<text transform="matrix(1 0 0 1 -49.275 -44.0605)" class="st7 st2 st3">G</text>
		</g>
	</g>
</g>
<g id="ID000062">
	<g transform="translate(533.546,286.615)">
		<g transform="rotate(-0.0)">
			<text transform="matrix(1 0 0 1 -37.0689 -44.0605)" class="st7 st2 st3">C</text>
		</g>
	</g>
</g>
<g id="ID000063">
	<g transform="translate(505.295,286.615)">
		<g transform="rotate(-0.0)">
			<text transform="matrix(1 0 0 1 -25.1363 -44.0605)" class="st7 st2 st3">C</text>
		</g>
	</g>
</g>
<g id="ID000064">
	<g transform="translate(477.045,286.615)">
		<g transform="rotate(-0.0)">
			<text transform="matrix(1 0 0 1 -13.4771 -44.0605)" class="st7 st2 st3">G</text>
		</g>
	</g>
</g>
<g id="ID000065">
	<line class="st6" x1="417.6" y1="122.5" x2="435.8" y2="137.2"/>
</g>
<g id="ID000066">
	<polygon class="st9" points="420.9,125.2 420.8,125.3 420.6,125.5 420.5,125.7 420.5,125.9 420.4,126.1 420.3,126.2 420.3,126.4 
		420.2,126.7 420.2,126.9 420.2,127.1 420.2,127.3 420.2,127.5 420.2,127.7 420.2,127.9 420.3,128.1 420.3,128.3 420.4,128.5 
		420.5,128.7 420.6,128.8 420.7,129 420.8,129.2 421,129.4 421.1,129.5 421.3,129.6 421.4,129.8 421.6,129.9 421.8,130 421.9,130.1 
		422.1,130.2 422.3,130.3 422.5,130.3 422.7,130.4 422.9,130.4 423.1,130.5 423.3,130.5 423.5,130.5 423.7,130.5 423.9,130.4 
		424.2,130.4 424.4,130.3 424.5,130.3 424.7,130.2 424.9,130.1 425.1,130 425.3,129.9 425.4,129.8 425.6,129.6 425.8,129.5 
		425.9,129.3 426,129.2 426.1,129 426.3,128.8 426.4,128.7 426.4,128.5 426.5,128.3 426.6,128.1 426.6,127.9 426.7,127.7 
		426.7,127.5 426.7,127.3 426.7,127 426.7,126.8 426.6,126.6 426.6,126.4 426.5,126.2 426.5,126 426.4,125.8 426.3,125.7 
		426.2,125.5 426.1,125.3 426,125.1 425.8,125 425.7,124.8 425.5,124.7 425.4,124.6 425.2,124.5 425,124.4 424.8,124.3 424.6,124.2 
		424.4,124.1 424.2,124 424,124 423.8,124 423.6,124 423.4,123.9 423.2,124 423,124 422.8,124 422.6,124.1 422.4,124.1 422.2,124.2 
		422,124.3 421.8,124.4 421.7,124.5 421.5,124.6 421.3,124.7 421.2,124.9 421,125 	"/>
</g>
<g id="ID000067">
	<polygon class="st9" points="434.6,132.1 429.5,128 425.4,133 430.5,137.1 	"/>
</g>
<g id="ID000068">
	<line class="st6" x1="472" y1="211.1" x2="472" y2="226.2"/>
</g>
<g id="ID000069">
	<line class="st6" x1="488.3" y1="211.1" x2="488.3" y2="226.2"/>
</g>
<g id="ID000070">
	<line class="st6" x1="504.6" y1="211.1" x2="504.6" y2="226.2"/>
</g>
<g id="ID000071">
	<line class="st6" x1="521" y1="211.1" x2="521" y2="226.2"/>
</g>
<g id="ID000072">
	<line class="st6" x1="536.8" y1="207.5" x2="536.8" y2="229.5"/>
</g>
<g id="ID000073">
	<polygon class="st8" points="536.8,211.8 533.9,216.8 539.7,216.8 	"/>
</g>
<g id="ID000074">
	<polygon class="st8" points="536.8,224.5 537,224.5 537.1,224.4 537.3,224.4 537.4,224.4 537.6,224.3 537.8,224.3 537.9,224.2 
		538.1,224.1 538.2,224.1 538.3,224 538.5,223.9 538.6,223.7 538.7,223.6 538.8,223.5 538.9,223.4 539,223.2 539.1,223.1 539.1,223 
		539.2,222.8 539.3,222.6 539.3,222.5 539.3,222.3 539.4,222.2 539.4,222 539.4,221.8 539.4,221.7 539.4,221.5 539.3,221.3 
		539.3,221.2 539.2,221 539.2,220.9 539.1,220.7 539,220.6 539,220.4 538.9,220.3 538.8,220.2 538.6,220.1 538.5,219.9 538.4,219.8 
		538.3,219.7 538.1,219.7 538,219.6 537.8,219.5 537.7,219.4 537.5,219.4 537.4,219.4 537.2,219.3 537,219.3 536.9,219.3 
		536.7,219.3 536.5,219.3 536.4,219.3 536.2,219.4 536.1,219.4 535.9,219.4 535.8,219.5 535.6,219.6 535.5,219.7 535.3,219.7 
		535.2,219.8 535.1,219.9 535,220.1 534.8,220.2 534.7,220.3 534.6,220.4 534.6,220.6 534.5,220.7 534.4,220.9 534.4,221 
		534.3,221.2 534.3,221.3 534.2,221.5 534.2,221.7 534.2,221.8 534.2,222 534.2,222.2 534.2,222.3 534.3,222.5 534.3,222.6 
		534.4,222.8 534.4,223 534.5,223.1 534.6,223.2 534.7,223.4 534.8,223.5 534.9,223.6 535,223.7 535.1,223.9 535.3,224 535.4,224.1 
		535.5,224.1 535.7,224.2 535.8,224.3 536,224.3 536.1,224.4 536.3,224.4 536.5,224.4 536.6,224.5 	"/>
</g>
<g id="ID000076">
	<line class="st10" x1="444" y1="236.7" x2="344" y2="236.7"/>
</g>
<g id="ID000077">
	<polygon class="st11" points="392,239.3 390.1,237.8 388.2,237.3 386.3,237.1 382.5,236.3 386.3,235.6 388.2,235.3 390.1,234.8 
		392,233.3 	"/>
</g>
<rect x="370.6" y="170.7" class="st12" width="55.6" height="22.5"/>
<text transform="matrix(1 0 0 1 370.6332 187.8947)" class="st2 st3">AMP</text>
<rect x="216.1" y="54.9" class="st12" width="188" height="30.1"/>
<text transform="matrix(1 0 0 1 198.1398 72.0204)" class="st2 st3">AMP ligand-aptamer</text>
</svg>
