<?xml version="1.0" encoding="utf-8"?>
<!-- Generator: Adobe Illustrator 25.2.0, SVG Export Plug-In . SVG Version: 6.00 Build 0)  -->
<svg version="1.1" id="图层_1" xmlns="http://www.w3.org/2000/svg" xmlns:xlink="http://www.w3.org/1999/xlink" x="0px" y="0px"
	 viewBox="0 0 800 400" style="enable-background:new 0 0 800 400;" xml:space="preserve">
<style type="text/css">
	.st0{font-family:'ArialMT';}
	.st1{font-size:20px;}
	.st2{letter-spacing:-9;}
	.st3{letter-spacing:-2;}
	.st4{letter-spacing:-3;}
	.st5{fill:none;stroke:#000000;}
	.st6{stroke:#000000;}
	.st7{fill:#8527B5;}
	.st8{fill:#B83233;}
	.st9{font-size:25.59px;}
	.st10{letter-spacing:-5;}
	.st11{fill:#2EA103;}
	.st12{fill:#FF870A;}
	.st13{fill:none;stroke:#000000;stroke-width:0.5;}
	.st14{letter-spacing:-11;}
	.st15{fill:#FFFFFF;stroke:#000000;}
	.st16{fill:#084595;}
	.st17{fill:none;stroke:#000000;stroke-miterlimit:10;}
	.st18{stroke:#000000;stroke-width:0.25;}
	.st19{fill:none;}
	.st20{fill:#FFFFFF;}
	.st21{letter-spacing:-6;}
</style>
<g>
	<text transform="matrix(1 0 0 1 275.31 74.03)" class="st0 st1 st2">A</text>
	<text transform="matrix(1 0 0 1 287.17 74.03)" class="st0 st1 st3">T</text>
	<text transform="matrix(1 0 0 1 299.38 74.03)" class="st0 st1 st4">P</text>
	<g>
		<text transform="matrix(1 0 0 1 312.36 74.03)" class="st0 st1"> binding aptamer (1993)</text>
	</g>
</g>
<g id="ID000065-2">
	<line class="st5" x1="474.3" y1="260.7" x2="474.3" y2="283.4"/>
</g>
<g id="ID000067-2">
	<polygon class="st6" points="477.9,280.4 477.9,273.3 470.7,273.4 470.6,280.4 	"/>
</g>
<rect x="357.4" y="243.4" class="st7" width="71.7" height="28.6"/>
<g id="ID000002">
	<text transform="matrix(1 0 0 1 204.07 260.24)" class="st8 st0 st9">G</text>
</g>
<g id="ID000003">
	<text transform="matrix(1 0 0 1 224.95 260.24)" class="st8 st0 st9">G</text>
</g>
<g id="ID000004">
	<text transform="matrix(1 0 0 1 245.83 260.24)" class="st8 st0 st9">G</text>
</g>
<g id="ID000005">
	<text transform="matrix(1 0 0 1 267.06 260.24)" class="st8 st0 st9 st10">A</text>
</g>
<g id="ID000006">
	<text transform="matrix(1 0 0 1 287.94 260.24)" class="st8 st0 st9 st10">A</text>
</g>
<g id="ID000007">
	<text transform="matrix(1 0 0 1 308.47 260.24)" class="st8 st0 st9">G</text>
</g>
<g id="ID000008">
	<text transform="matrix(1 0 0 1 317.19 239.36)" class="st11 st0 st9">G</text>
</g>
<g id="ID000009">
	<text transform="matrix(1 0 0 1 319.33 215.23)" class="st12 st0 st9">G</text>
</g>
<g id="ID000010">
	<text transform="matrix(1 0 0 1 333.01 190.5)" class="st11 st0 st9 st2">A</text>
</g>
<g id="ID000011">
	<text transform="matrix(1 0 0 1 352.31 182.36)" class="st11 st0 st9 st2">A</text>
</g>
<g id="ID000012">
	<line class="st13" x1="359.8" y1="158.6" x2="359.8" y2="144.7"/>
</g>
<g id="ID000013">
	<text transform="matrix(1 0 0 1 347.1195 142.79)" class="st0 st1">10</text>
</g>
<g id="ID000014">
	<text transform="matrix(1 0 0 1 371.54 176.1)" class="st11 st0 st9">G</text>
</g>
<g id="ID000015">
	<text transform="matrix(1 0 0 1 395.46 174.17)" class="st12 st0 st9 st14">A</text>
</g>
<g id="ID000016">
	<text transform="matrix(1 -4.014247e-03 4.014247e-03 1 463.57 302.63)" class="st11 st0 st9">G</text>
</g>
<g id="ID000017">
	<line class="st13" x1="474.1" y1="305.4" x2="474.1" y2="319.3"/>
</g>
<g id="ID000018">
	<text transform="matrix(1 0 0 1 460.85 339.92)" class="st0 st1">30</text>
</g>
<g id="ID000019">
	<text transform="matrix(1 0 0 1 309.12 303.4)" class="st8 st0 st9">C</text>
</g>
<g id="ID000020">
	<text transform="matrix(1 0 0 1 288.24 303.4)" class="st8 st0 st9">U</text>
</g>
<g id="ID000021">
	<text transform="matrix(1 0 0 1 267.36 303.4)" class="st8 st0 st9">U</text>
</g>
<g id="ID000022">
	<text transform="matrix(1 0 0 1 246.48 303.4)" class="st8 st0 st9">C</text>
</g>
<g id="ID000023">
	<text transform="matrix(1 0 0 1 225.6 303.4)" class="st8 st0 st9">C</text>
</g>
<g id="ID000024">
	<text transform="matrix(1 0 0 1 204.72 303.4)" class="st8 st0 st9">C</text>
</g>
<g id="ID000025">
	<line class="st5" x1="213.4" y1="263.1" x2="213.4" y2="284.4"/>
</g>
<g id="ID000026">
	<line class="st5" x1="233.7" y1="263.1" x2="233.7" y2="283"/>
</g>
<g id="ID000027">
	<line class="st5" x1="254.6" y1="263.1" x2="254.6" y2="283"/>
</g>
<g id="ID000028">
	<line class="st5" x1="275.5" y1="263.1" x2="275.5" y2="283"/>
</g>
<g id="ID000029">
	<line class="st5" x1="296.4" y1="263.1" x2="296.4" y2="283"/>
</g>
<g id="ID000030">
	<line class="st5" x1="317.3" y1="263.1" x2="317.3" y2="283"/>
</g>
<g id="ID000031">
	<line class="st5" x1="339.9" y1="224.9" x2="381.3" y2="181.6"/>
</g>
<g id="ID000032">
	<polygon class="st15" points="355.7,209.3 355.8,209.5 356.1,209.6 356.3,209.7 356.3,209.9 356.6,210 356.8,210.1 357.1,210.2 
		357.3,210.2 357.6,210.3 357.8,210.3 358,210.4 358.3,210.3 358.5,210.4 358.8,210.2 358.9,210.2 359.2,210.2 359.4,210.2 
		359.6,210.1 359.9,209.9 360.1,209.7 360.1,209.7 360.5,209.6 360.8,209.4 360.9,209.4 361,209 361.2,208.9 361.2,208.8 
		361.5,208.5 361.5,208.3 361.7,208 361.7,207.8 361.8,207.6 361.8,207.4 361.9,207.2 361.9,206.9 362,206.7 362,206.6 362,206.3 
		361.8,206 361.9,205.7 361.8,205.6 361.8,205.3 361.7,205.2 361.6,204.9 361.3,204.7 361.4,204.4 361.2,204.3 360.9,204.1 
		360.9,204 360.7,203.7 360.4,203.6 360.4,203.5 360.1,203.4 359.9,203.2 359.6,203.2 359.4,203.1 359.2,203.1 358.9,203 
		358.7,202.9 358.4,202.9 358.2,202.8 358.1,202.9 357.8,202.9 357.6,202.9 357.3,202.9 357.2,202.9 356.9,203 356.8,203.1 
		356.5,203.3 356.3,203.4 356.1,203.5 355.9,203.6 355.7,203.8 355.5,204.1 355.3,204.1 355.2,204.3 355.1,204.6 355,204.6 
		354.9,204.9 354.9,205.1 354.7,205.4 354.6,205.7 354.6,205.9 354.6,206 354.5,206.2 354.5,206.5 354.5,206.8 354.5,207 
		354.6,207.2 354.5,207.4 354.6,207.8 354.7,208 354.9,208.2 354.8,208.3 355.1,208.6 355.2,208.8 355.4,209 355.5,209.2 	"/>
</g>
<g id="ID000033">
	<polygon class="st15" points="364.8,194.2 359.6,199.7 365,204.7 370,199.4 	"/>
</g>
<g id="ID000034">
	<line class="st5" x1="340" y1="209.7" x2="364.2" y2="184.1"/>
</g>
<g id="ID000035">
	<polygon class="st15" points="344.3,204.9 351.8,202.6 346.1,197.4 	"/>
</g>
<g id="ID000036">
	<polygon class="st15" points="353.4,190.3 348.7,195.3 353.6,200.1 358.4,195.1 	"/>
</g>
<g id="ID000037">
	<line class="st5" x1="368.5" y1="184.5" x2="459.4" y2="225.2"/>
</g>
<g id="ID000038">
	<polygon class="st6" points="399.7,198.4 405.5,205.5 408.8,196.9 	"/>
</g>
<g id="ID000039">
	<polygon class="st6" points="418.8,205.5 418.8,205.3 418.8,205 419,204.8 419,204.5 419,204.3 419,204 419,203.8 419,203.4 
		419,203.2 418.8,202.9 418.8,202.7 418.8,202.4 418.6,202.2 418.5,202 418.3,201.7 418.2,201.5 418,201.4 417.8,201.1 417.6,201 
		417.5,200.9 417.2,200.6 417,200.5 416.6,200.4 416.5,200.2 416.3,200.2 416,200.1 415.8,200 415.5,200 415.3,200 415,200 
		414.6,200 414.3,200 414.1,200 413.8,200.1 413.6,200.1 413.3,200.2 413.1,200.2 413,200.4 412.7,200.5 412.5,200.7 412.2,200.9 
		412.1,201 411.8,201.2 411.7,201.4 411.5,201.6 411.3,201.7 411.2,202 411,202.2 411,202.5 411,202.7 410.8,203 410.8,203.3 
		410.7,203.5 410.7,203.8 410.7,204 410.7,204.3 410.7,204.5 410.8,204.8 410.8,205 411,205.3 411,205.5 411,205.9 411.2,206.1 
		411.3,206.4 411.5,206.5 411.5,206.7 411.8,207 412,207.2 412.2,207.2 412.3,207.5 412.6,207.7 412.8,207.7 413.1,207.9 413.3,208 
		413.6,208 413.8,208.2 414.1,208.2 414.3,208.3 414.6,208.3 414.9,208.3 415.1,208.3 415.4,208.3 415.6,208.2 415.9,208.2 
		416.1,208 416.4,208 416.6,207.9 417,207.7 417.1,207.7 417.3,207.4 417.6,207.2 417.7,207.2 418,206.9 418.1,206.7 418.2,206.5 
		418.5,206.2 418.6,206.1 418.6,205.9 	"/>
</g>
<g id="ID000046">
	<text transform="matrix(1 0 0 1 415.64 178.15)" class="st11 st0 st9 st10">A</text>
</g>
<g id="ID000047">
	<text transform="matrix(1 0 0 1 437.06 189.59)" class="st11 st0 st9 st10">A</text>
</g>
<g id="ID000048">
	<text transform="matrix(1 0 0 1 452.85 211.97)" class="st11 st0 st9">C</text>
</g>
<g id="ID000049">
	<text transform="matrix(1 0 0 1 463.29 234.07)" class="st11 st0 st9">U</text>
</g>
<g id="ID000050">
	<text transform="matrix(1 0 0 1 463.41 260.16)" class="st11 st0 st9">G</text>
</g>
<g id="ID000051">
	<text transform="matrix(1 0 0 1 486.29 260.24)" class="st16 st0 st9">C</text>
</g>
<g id="ID000052">
	<text transform="matrix(1 0 0 1 506.82 260.24)" class="st16 st0 st9">G</text>
</g>
<g id="ID000053">
	<text transform="matrix(1 0 0 1 527.7 260.24)" class="st16 st0 st9">G</text>
</g>
<g id="ID000055">
	<text transform="matrix(1 0 0 1 524.4353 220.4186)" class="st0 st1">20</text>
</g>
<g id="ID000056">
	<text transform="matrix(1 0 0 1 548.93 260.24)" class="st16 st0 st9">C</text>
</g>
<g id="ID000057">
	<text transform="matrix(1 0 0 1 569.8 255.02)" class="st16 st0 st9">U</text>
</g>
<g id="ID000058">
	<text transform="matrix(1 0 0 1 590.68 265.46)" class="st16 st0 st9">U</text>
</g>
<g id="ID000059">
	<text transform="matrix(1 0 0 1 590.68 291.56)" class="st16 st0 st9">C</text>
</g>
<g id="ID000060">
	<text transform="matrix(1 0 0 1 569.46 307.22)" class="st16 st0 st9">G</text>
</g>
<g id="ID000061">
	<text transform="matrix(1 0 0 1 548.57 302)" class="st16 st0 st9">G</text>
</g>
<g id="ID000062">
	<text transform="matrix(1 0 0 1 528.05 302)" class="st16 st0 st9">C</text>
</g>
<g id="ID000063">
	<text transform="matrix(1 0 0 1 507.17 302)" class="st16 st0 st9">C</text>
</g>
<g id="ID000064">
	<text transform="matrix(1 0 0 1 485.94 302)" class="st16 st0 st9">G</text>
</g>
<g id="ID000065">
	<line class="st5" x1="433.6" y1="149.9" x2="459.4" y2="165.1"/>
</g>
<g id="ID000066">
	<polygon class="st6" points="438.4,152.7 438.2,152.9 438,153.1 438,153.4 438,153.7 437.9,153.9 437.8,154.1 437.8,154.4 
		437.7,154.8 437.7,155 437.8,155.3 437.8,155.5 437.8,155.8 437.9,156 437.9,156.3 438.1,156.5 438.2,156.7 438.3,157 438.5,157.2 
		438.7,157.4 438.8,157.5 438.9,157.8 439.3,158 439.4,158.1 439.7,158.2 439.9,158.5 440.1,158.5 440.5,158.6 440.5,158.7 
		440.8,158.9 441.1,158.8 441.3,158.8 441.6,158.9 441.8,158.9 442.1,159 442.3,158.9 442.6,158.9 442.8,158.9 443.1,158.7 
		443.5,158.7 443.8,158.4 443.9,158.4 444.1,158.4 444.4,158.1 444.5,158 444.8,157.8 444.9,157.7 445.1,157.4 445.3,157.2 
		445.4,157 445.6,156.8 445.6,156.5 445.9,156.3 446,156.1 445.9,155.9 446.1,155.5 446.1,155.3 446.1,155 446.1,154.7 446.1,154.5 
		446.1,154.2 446,153.8 446,153.6 445.9,153.4 445.8,153.1 445.7,152.9 445.6,152.6 445.4,152.4 445.3,152.3 445.1,152 444.9,151.9 
		444.8,151.6 444.5,151.5 444.3,151.2 444,151.2 443.9,151.1 443.7,151 443.4,150.9 443.1,150.8 442.8,150.8 442.6,150.7 
		442.3,150.6 442.1,150.6 441.8,150.6 441.6,150.6 441.3,150.6 441,150.7 440.8,150.8 440.5,150.8 440.4,151 440,151.1 439.9,151.2 
		439.6,151.4 439.4,151.5 439.2,151.7 438.9,151.9 438.8,152 438.6,152.3 438.4,152.4 	"/>
</g>
<g id="ID000067">
	<polygon class="st6" points="457,158.8 449.8,154.6 445.5,161.7 452.8,165.9 	"/>
</g>
<g id="ID000068">
	<line class="st5" x1="496.8" y1="261.8" x2="496.8" y2="281.1"/>
</g>
<g id="ID000069">
	<line class="st5" x1="517.6" y1="261.8" x2="517.6" y2="281.1"/>
</g>
<g id="ID000070">
	<line class="st5" x1="538.5" y1="261.8" x2="538.5" y2="281.1"/>
</g>
<g id="ID000071">
	<line class="st5" x1="559.5" y1="261.8" x2="559.5" y2="281.1"/>
</g>
<g id="ID000072">
	<line class="st5" x1="579.6" y1="257.1" x2="579.6" y2="285.3"/>
</g>
<g id="ID000073">
	<polygon class="st15" points="579.6,262.6 576,269.1 583.4,269.1 	"/>
</g>
<g id="ID000074">
	<polygon class="st15" points="579.6,278.9 579.9,278.9 580.1,278.7 580.3,278.7 580.4,278.7 580.7,278.7 580.9,278.7 581.1,278.5 
		581.3,278.4 581.5,278.4 581.6,278.2 581.8,278.1 582,277.9 582.1,277.7 582.3,277.6 582.3,277.5 582.5,277.2 582.6,277.1 
		582.6,277 582.8,276.7 582.9,276.4 582.9,276.4 582.9,276.1 583,275.9 583,275.7 583,275.4 583,275.3 583,275.1 582.9,274.8 
		582.9,274.7 582.8,274.4 582.8,274.3 582.6,274.1 582.5,273.9 582.5,273.7 582.3,273.5 582.3,273.4 582,273.2 581.8,273 
		581.8,272.9 581.6,272.7 581.3,272.7 581.2,272.6 580.9,272.5 580.8,272.4 580.6,272.4 580.4,272.4 580.1,272.2 579.9,272.2 
		579.8,272.2 579.6,272.2 579.3,272.2 579.1,272.2 578.9,272.4 578.8,272.4 578.5,272.4 578.4,272.5 578.1,272.6 578,272.7 
		577.8,272.7 577.6,272.9 577.5,273 577.4,273.2 577.1,273.4 577,273.5 576.8,273.7 576.8,273.9 576.8,274.1 576.6,274.3 
		576.6,274.4 576.5,274.7 576.5,274.8 576.3,275.1 576.3,275.3 576.3,275.4 576.3,275.7 576.3,275.9 576.3,276.1 576.5,276.4 
		576.5,276.4 576.6,276.7 576.6,277 576.8,277.1 576.8,277.2 577,277.5 577.1,277.6 577.3,277.7 577.4,277.9 577.5,278.1 
		577.8,278.2 577.9,278.4 578,278.4 578.3,278.5 578.4,278.7 578.6,278.7 578.8,278.7 579,278.7 579.3,278.7 579.4,278.9 	"/>
</g>
<g id="ID000076">
	<line class="st17" x1="462" y1="294.5" x2="333" y2="294.5"/>
</g>
<g id="ID000077">
	<polygon class="st18" points="394.4,297.8 392,295.9 389.5,295.3 387.1,295 382.2,294 387.1,293.1 389.5,292.7 392,292 
		394.4,290.2 	"/>
</g>
<rect x="365.8" y="245.2" class="st19" width="71.2" height="28.8"/>
<g>
	<text transform="matrix(1 0 0 1 365.81 267.22)" class="st20 st0 st9">AM</text>
	<text transform="matrix(1 0 0 1 404.2 267.22)" class="st20 st0 st9 st4">P</text>
</g>
<g>
	<text transform="matrix(1 0 0 1 190.83 328.5)" class="st0 st1">3</text>
	<text transform="matrix(1 0 0 1 201.95 328.5)" class="st0 st1 st21">’</text>
</g>
<g id="ID000066-2">
	<polygon class="st6" points="474.4,263.6 474.1,263.6 473.8,263.5 473.5,263.6 473.4,263.8 473.1,263.8 473,263.8 472.9,263.9 
		472.5,264.1 472.3,264.2 472.1,264.2 471.9,264.5 471.8,264.6 471.6,264.8 471.4,264.9 471.3,265.1 471.2,265.2 471.1,265.5 
		470.9,265.7 471,265.8 470.8,266 470.7,266.2 470.6,266.5 470.6,266.7 470.6,266.9 470.6,267.2 470.8,267.4 470.7,267.7 
		470.8,267.8 470.7,268 470.8,268.2 471,268.3 471,268.6 471.1,268.8 471.2,269 471.3,269.2 471.4,269.3 471.6,269.5 471.8,269.6 
		472,269.9 472.3,269.9 472.3,270 472.5,270.1 472.8,270.2 473,270.2 473.3,270.4 473.4,270.4 473.8,270.5 473.9,270.5 474.2,270.4 
		474.4,270.5 474.5,270.4 474.9,270.5 475.1,270.5 475.2,270.4 475.5,270.3 475.8,270.2 475.9,270.1 476.2,270.1 476.3,270 
		476.6,269.8 476.8,269.5 477,269.4 477.1,269.2 477.2,269.1 477.3,268.8 477.5,268.8 477.6,268.5 477.6,268.3 477.8,268.1 
		477.9,267.9 477.9,267.8 477.9,267.4 478,267.2 477.9,267 478,266.8 477.9,266.7 477.9,266.4 477.8,266.2 477.8,265.9 477.7,265.8 
		477.7,265.4 477.5,265.3 477.4,265.2 477.2,265 477.2,264.8 477,264.6 476.8,264.5 476.6,264.3 476.5,264.3 476.3,264.1 476.1,264 
		475.9,264 475.6,263.8 475.5,263.8 475.3,263.7 475,263.6 474.7,263.7 474.5,263.5 	"/>
</g>
<g>
	<text transform="matrix(1 0 0 1 192.81 231.99)" class="st0 st1">5</text>
	<text transform="matrix(1 0 0 1 203.93 231.99)" class="st0 st1 st21">’</text>
</g>
<line class="st5" x1="433.8" y1="149.8" x2="427.4" y2="158.6"/>
<line class="st5" x1="459.6" y1="164.9" x2="453.5" y2="173.9"/>
<g id="ID000012_1_">
	<line class="st13" x1="536.2" y1="238.1" x2="536.2" y2="224.2"/>
</g>
</svg>
