<?xml version="1.0" encoding="utf-8"?>
<!-- Generator: Adobe Illustrator 25.2.0, SVG Export Plug-In . SVG Version: 6.00 Build 0)  -->
<svg version="1.1" id="图层_1" xmlns="http://www.w3.org/2000/svg" xmlns:xlink="http://www.w3.org/1999/xlink" x="0px" y="0px"
	 viewBox="0 0 800 400" style="enable-background:new 0 0 800 400;" xml:space="preserve">
<style type="text/css">
	.st0{fill:#F6F309;}
	.st1{fill:#48D1CC;}
	.st2{font-family:'ArialMT';}
	.st3{font-size:25.5903px;}
	.st4{fill:#00FF00;}
	.st5{fill:#FF00FF;}
	.st6{fill:none;stroke:#000000;stroke-width:0.5;}
	.st7{font-size:20px;}
	.st8{fill:#FFFFFF;stroke:#000000;stroke-width:0.5;}
	.st9{stroke:#000000;stroke-width:0.5;}
	.st10{fill:#FFA500;}
	.st11{fill:none;stroke:#000000;stroke-miterlimit:10;}
	.st12{stroke:#000000;stroke-width:0.25;}
	.st13{fill:none;}
</style>
<rect x="373.9" y="208.5" class="st0" width="71.7" height="28.6"/>
<g id="ID000002">
	<g transform="translate(95.667,230.114)">
		<g transform="rotate(-0.0)">
			<text transform="matrix(1 0 0 1 121.2372 30.1265)" class="st1 st2 st3">G</text>
		</g>
	</g>
</g>
<g id="ID000003">
	<g transform="translate(123.918,230.114)">
		<g transform="rotate(-0.0)">
			<text transform="matrix(1 0 0 1 113.8656 30.1265)" class="st1 st2 st3">G</text>
		</g>
	</g>
</g>
<g id="ID000004">
	<g transform="translate(152.168,230.114)">
		<g transform="rotate(-0.0)">
			<text transform="matrix(1 0 0 1 106.4945 30.1265)" class="st1 st2 st3">G</text>
		</g>
	</g>
</g>
<g id="ID000005">
	<g transform="translate(180.418,230.114)">
		<g transform="rotate(-0.0)">
			<text transform="matrix(1 0 0 1 99.4731 30.1265)" class="st1 st2 st3">A</text>
		</g>
	</g>
</g>
<g id="ID000006">
	<g transform="translate(208.668,230.114)">
		<g transform="rotate(-0.0)">
			<text transform="matrix(1 0 0 1 92.101 30.1265)" class="st1 st2 st3">A</text>
		</g>
	</g>
</g>
<g id="ID000007">
	<g transform="translate(236.918,230.114)">
		<g transform="rotate(-0.0)">
			<text transform="matrix(1 0 0 1 84.3808 30.1265)" class="st1 st2 st3">G</text>
		</g>
	</g>
</g>
<g id="ID000008">
	<g>
		<g transform="translate(258.106,208.927)">
			<g transform="rotate(-0.0)">
				<text transform="matrix(1 0 0 1 71.9179 30.4336)" class="st4 st2 st3">G</text>
			</g>
		</g>
	</g>
</g>
<g id="ID000009">
	<g>
		<g transform="translate(258.106,173.614)">
			<g transform="rotate(-0.0)">
				<text transform="matrix(1 0 0 1 74.0575 41.6196)" class="st5 st2 st3">G</text>
			</g>
		</g>
	</g>
</g>
<g id="ID000010">
	<g transform="translate(265.169,138.301)">
		<g transform="rotate(-0.0)">
			<text transform="matrix(1 0 0 1 74.1097 48.813)" class="st4 st2 st3">A</text>
		</g>
	</g>
</g>
<g id="ID000011">
	<g transform="translate(286.356,110.051)">
		<g transform="rotate(-0.0)">
			<text transform="matrix(1 0 0 1 71.1474 57.3267)" class="st4 st2 st3">A</text>
		</g>
	</g>
</g>
<g id="ID000012">
	<line class="st6" x1="365.7" y1="146.7" x2="365.7" y2="132.8"/>
</g>
<g id="ID000013">
	<g transform="translate(286.356,60.572)">
		<g transform="rotate(-0.0)">
			<text transform="matrix(1 0 0 1 64.8158 70.3027)" class="st2 st7">10</text>
		</g>
	</g>
</g>
<g id="ID000014">
	<g transform="translate(314.607,95.926)">
		<g transform="rotate(-0.0)">
			<text transform="matrix(1 0 0 1 61.5092 61.9014)" class="st4 st2 st3">G</text>
		</g>
	</g>
</g>
<g id="ID000015">
	<g>
		<g transform="translate(342.857,88.863)">
			<g transform="rotate(-0.0)">
				<text transform="matrix(1 0 0 1 57.0878 64.041)" class="st5 st2 st3">A</text>
			</g>
		</g>
	</g>
</g>
<g id="ID000016">
	<g>
		<g transform="translate(349.919,286.615)">
			<g transform="rotate(-0.0)">
				<text transform="matrix(1 -3.949299e-03 3.949299e-03 1 127.1754 15.3846)" class="st4 st2 st3">G</text>
			</g>
		</g>
	</g>
</g>
<g id="ID000017">
	<line class="st6" x1="486.9" y1="305.4" x2="486.9" y2="319.3"/>
</g>
<g id="ID000018">
	<g transform="translate(349.919,336.600)">
		<g transform="rotate(-0.0)">
			<text transform="matrix(1 0 0 1 123.7567 3.3162)" class="st2 st7">30</text>
		</g>
	</g>
</g>
<g id="ID000019">
	<g>
		<g transform="translate(236.918,286.615)">
			<g transform="rotate(-0.0)">
				<text transform="matrix(1 0 0 1 85.0304 16.7842)" class="st1 st2 st3">C</text>
			</g>
		</g>
	</g>
</g>
<g id="ID000020">
	<g>
		<g transform="translate(208.668,286.615)">
			<g transform="rotate(-0.0)">
				<text transform="matrix(1 0 0 1 92.401 16.7842)" class="st1 st2 st3">U</text>
			</g>
		</g>
	</g>
</g>
<g id="ID000021">
	<g>
		<g transform="translate(180.418,286.615)">
			<g transform="rotate(-0.0)">
				<text transform="matrix(1 0 0 1 99.7731 16.7842)" class="st1 st2 st3">U</text>
			</g>
		</g>
	</g>
</g>
<g id="ID000022">
	<g>
		<g transform="translate(152.168,286.615)">
			<g transform="rotate(-0.0)">
				<text transform="matrix(1 0 0 1 107.1446 16.7842)" class="st1 st2 st3">C</text>
			</g>
		</g>
	</g>
</g>
<g id="ID000023">
	<g>
		<g transform="translate(123.918,286.615)">
			<g transform="rotate(-0.0)">
				<text transform="matrix(1 0 0 1 114.5148 16.7842)" class="st1 st2 st3">C</text>
			</g>
		</g>
	</g>
</g>
<g id="ID000024">
	<g>
		<g transform="translate(95.667,286.615)">
			<g transform="rotate(-0.0)">
				<text transform="matrix(1 0 0 1 121.8868 16.7842)" class="st1 st2 st3">C</text>
			</g>
		</g>
	</g>
</g>
<g id="ID000025">
	<line class="st6" x1="226.2" y1="263.4" x2="226.2" y2="284.7"/>
</g>
<g id="ID000026">
	<line class="st6" x1="246.5" y1="263.1" x2="246.5" y2="283"/>
</g>
<g id="ID000027">
	<line class="st6" x1="267.4" y1="263.1" x2="267.4" y2="283"/>
</g>
<g id="ID000028">
	<line class="st6" x1="288.3" y1="263.1" x2="288.3" y2="283"/>
</g>
<g id="ID000029">
	<line class="st6" x1="309.2" y1="263.1" x2="309.2" y2="283"/>
</g>
<g id="ID000030">
	<line class="st6" x1="330.1" y1="263.1" x2="330.1" y2="283"/>
</g>
<g id="ID000031">
	<line class="st6" x1="351.7" y1="227.1" x2="388.8" y2="163.5"/>
</g>
<g id="ID000032">
	<polygon class="st8" points="367.3,200.5 367.4,200.6 367.7,200.7 367.9,200.7 368,200.9 368.3,200.9 368.5,201 368.8,201 369,201 
		369.3,201 369.5,201 369.7,201 370,200.9 370.2,200.9 370.5,200.7 370.6,200.6 370.9,200.6 371.1,200.5 371.2,200.4 371.5,200.1 
		371.7,199.9 371.7,199.9 372,199.7 372.2,199.4 372.3,199.4 372.4,199 372.5,198.8 372.5,198.7 372.7,198.4 372.7,198.2 
		372.8,197.9 372.8,197.7 372.8,197.5 372.8,197.2 372.8,197 372.8,196.7 372.8,196.5 372.8,196.4 372.7,196.1 372.5,195.9 
		372.5,195.6 372.4,195.5 372.3,195.2 372.2,195.1 372,194.9 371.7,194.7 371.7,194.4 371.5,194.4 371.2,194.2 371.1,194.1 
		370.9,193.9 370.6,193.8 370.5,193.8 370.2,193.7 370,193.6 369.7,193.6 369.5,193.6 369.3,193.6 369,193.6 368.8,193.6 
		368.5,193.6 368.3,193.6 368.2,193.7 367.9,193.7 367.7,193.8 367.4,193.9 367.3,193.9 367,194.1 366.9,194.2 366.7,194.4 
		366.5,194.6 366.4,194.7 366.2,194.9 366,195.1 365.9,195.4 365.7,195.5 365.7,195.7 365.6,196 365.5,196.1 365.5,196.4 
		365.5,196.6 365.4,196.9 365.4,197.2 365.4,197.4 365.4,197.5 365.4,197.7 365.5,198 365.5,198.3 365.6,198.5 365.7,198.7 
		365.7,198.9 365.9,199.2 366,199.4 366.2,199.6 366.2,199.7 366.5,199.9 366.7,200.1 366.9,200.2 367,200.4 	"/>
</g>
<g id="ID000033">
	<polygon class="st8" points="372.7,183.7 368.9,190.2 375.3,193.9 379,187.6 	"/>
</g>
<g id="ID000034">
	<line class="st6" x1="355.1" y1="201.7" x2="369.3" y2="169.5"/>
</g>
<g id="ID000035">
	<polygon class="st8" points="357.5,195.7 363.8,191.1 356.7,188.1 	"/>
</g>
<g id="ID000036">
	<polygon class="st8" points="361.2,178.9 358.4,185.2 364.7,188.1 367.5,181.8 	"/>
</g>
<g id="ID000037">
	<line class="st6" x1="370.6" y1="168.9" x2="480.1" y2="209.9"/>
</g>
<g id="ID000038">
	<polygon class="st9" points="415.3,185.6 421.1,192.7 424.4,184.1 	"/>
</g>
<g id="ID000039">
	<polygon class="st9" points="434.4,192.7 434.4,192.5 434.4,192.2 434.6,192 434.6,191.7 434.6,191.5 434.6,191.2 434.6,191 
		434.6,190.6 434.6,190.4 434.4,190.1 434.4,189.9 434.4,189.6 434.2,189.4 434.1,189.2 433.9,188.9 433.8,188.7 433.6,188.6 
		433.4,188.3 433.2,188.2 433.1,188.1 432.8,187.8 432.6,187.7 432.2,187.6 432.1,187.4 431.9,187.4 431.6,187.3 431.4,187.2 
		431.1,187.2 430.9,187.2 430.6,187.2 430.2,187.2 429.9,187.2 429.7,187.2 429.4,187.3 429.2,187.3 428.9,187.4 428.7,187.4 
		428.6,187.6 428.3,187.7 428.1,187.9 427.8,188.1 427.7,188.2 427.4,188.4 427.3,188.6 427.1,188.8 426.9,188.9 426.8,189.2 
		426.6,189.4 426.6,189.7 426.6,189.9 426.4,190.2 426.4,190.5 426.3,190.7 426.3,191 426.3,191.2 426.3,191.5 426.3,191.7 
		426.4,192 426.4,192.2 426.6,192.5 426.6,192.7 426.6,193.1 426.8,193.3 426.9,193.6 427.1,193.7 427.1,193.9 427.4,194.2 
		427.6,194.4 427.8,194.4 427.9,194.7 428.2,194.9 428.4,194.9 428.7,195.1 428.9,195.2 429.2,195.2 429.4,195.4 429.7,195.4 
		429.9,195.5 430.2,195.5 430.5,195.5 430.7,195.5 431,195.5 431.2,195.4 431.5,195.4 431.7,195.2 432,195.2 432.2,195.1 
		432.6,194.9 432.7,194.9 432.9,194.6 433.2,194.4 433.3,194.4 433.6,194.1 433.7,193.9 433.8,193.7 434.1,193.4 434.2,193.3 
		434.2,193.1 	"/>
</g>
<g id="ID000046">
	<g>
		<g transform="translate(371.107,88.863)">
			<g transform="rotate(-0.0)">
				<text transform="matrix(1 0 0 1 48.7255 62.4165)" class="st4 st2 st3">A</text>
			</g>
		</g>
	</g>
</g>
<g id="ID000047">
	<g transform="translate(427.607,117.114)">
		<g transform="rotate(-0.0)">
			<text transform="matrix(1 0 0 1 32.3705 64.7524)" class="st4 st2 st3">A</text>
		</g>
	</g>
</g>
<g id="ID000048">
	<g transform="translate(441.732,145.364)">
		<g transform="rotate(-0.0)">
			<text transform="matrix(1 0 0 1 31.2885 52.2402)" class="st4 st2 st3">C</text>
		</g>
	</g>
</g>
<g id="ID000049">
	<g transform="translate(455.858,173.614)">
		<g transform="rotate(-0.0)">
			<text transform="matrix(1 0 0 1 27.6029 44.8691)" class="st4 st2 st3">U</text>
		</g>
	</g>
</g>
<g id="ID000050">
	<g transform="translate(462.920,201.864)">
		<g transform="rotate(-0.0)">
			<text transform="matrix(1 0 0 1 22.4862 38.1787)" class="st4 st2 st3">G</text>
		</g>
	</g>
</g>
<g id="ID000051">
	<g transform="translate(477.045,230.114)">
		<g transform="rotate(-0.0)">
			<text transform="matrix(1 0 0 1 22.0731 30.1265)" class="st10 st2 st3">C</text>
		</g>
	</g>
</g>
<g id="ID000052">
	<g transform="translate(505.295,230.114)">
		<g transform="rotate(-0.0)">
			<text transform="matrix(1 0 0 1 14.3534 30.1265)" class="st10 st2 st3">G</text>
		</g>
	</g>
</g>
<g id="ID000053">
	<g transform="translate(533.546,230.114)">
		<g transform="rotate(-0.0)">
			<text transform="matrix(1 0 0 1 6.9803 30.1265)" class="st10 st2 st3">G</text>
		</g>
	</g>
</g>
<g id="ID000054">
	<line class="st6" x1="545.4" y1="240.8" x2="545.4" y2="226.8"/>
</g>
<g id="ID000055">
	<g transform="translate(533.546,180.635)">
		<g transform="rotate(-0.0)">
			<text transform="matrix(1 0 0 1 -1.1007 39.3203)" class="st2 st7">20</text>
		</g>
	</g>
</g>
<g id="ID000056">
	<g transform="translate(561.796,230.114)">
		<g transform="rotate(-0.0)">
			<text transform="matrix(1 0 0 1 -4.022457e-02 30.1265)" class="st10 st2 st3">C</text>
		</g>
	</g>
</g>
<g id="ID000057">
	<g transform="translate(590.046,223.052)">
		<g transform="rotate(-0.0)">
			<text transform="matrix(1 0 0 1 -7.4123 31.9687)" class="st10 st2 st3">U</text>
		</g>
	</g>
</g>
<g id="ID000058">
	<g transform="translate(618.296,237.177)">
		<g transform="rotate(-0.0)">
			<text transform="matrix(1 0 0 1 -14.7824 28.2832)" class="st10 st2 st3">U</text>
		</g>
	</g>
</g>
<g id="ID000059">
	<g>
		<g transform="translate(618.296,272.490)">
			<g transform="rotate(-0.0)">
				<text transform="matrix(1 0 0 1 -14.7824 19.0708)" class="st10 st2 st3">C</text>
			</g>
		</g>
	</g>
</g>
<g id="ID000060">
	<g>
		<g transform="translate(590.046,293.677)">
			<g transform="rotate(-0.0)">
				<text transform="matrix(1 0 0 1 -7.7609 13.542)" class="st10 st2 st3">G</text>
			</g>
		</g>
	</g>
</g>
<g id="ID000061">
	<g>
		<g transform="translate(561.796,286.615)">
			<g transform="rotate(-0.0)">
				<text transform="matrix(1 0 0 1 -0.3918 15.3843)" class="st10 st2 st3">G</text>
			</g>
		</g>
	</g>
</g>
<g id="ID000062">
	<g>
		<g transform="translate(533.546,286.615)">
			<g transform="rotate(-0.0)">
				<text transform="matrix(1 0 0 1 7.3309 15.3843)" class="st10 st2 st3">C</text>
			</g>
		</g>
	</g>
</g>
<g id="ID000063">
	<g>
		<g transform="translate(505.295,286.615)">
			<g transform="rotate(-0.0)">
				<text transform="matrix(1 0 0 1 14.702 15.3843)" class="st10 st2 st3">C</text>
			</g>
		</g>
	</g>
</g>
<g id="ID000064">
	<g>
		<g transform="translate(477.045,286.615)">
			<g transform="rotate(-0.0)">
				<text transform="matrix(1 0 0 1 21.7235 15.3843)" class="st10 st2 st3">G</text>
			</g>
		</g>
	</g>
</g>
<g id="ID000065">
	<line class="st6" x1="439.9" y1="148.4" x2="463.2" y2="167.2"/>
</g>
<g id="ID000066">
	<polygon class="st9" points="444.2,151.8 444,152 443.8,152.2 443.7,152.5 443.7,152.8 443.5,153 443.4,153.1 443.4,153.4 
		443.2,153.8 443.2,154 443.2,154.3 443.2,154.5 443.2,154.8 443.2,155 443.2,155.3 443.4,155.6 443.4,155.8 443.5,156.1 
		443.7,156.3 443.8,156.5 443.9,156.7 444,157 444.3,157.2 444.4,157.3 444.7,157.5 444.9,157.8 445.1,157.8 445.4,158 445.4,158.1 
		445.7,158.3 446,158.3 446.2,158.3 446.5,158.5 446.7,158.5 447,158.6 447.2,158.6 447.5,158.6 447.7,158.6 448,158.5 448.4,158.5 
		448.7,158.3 448.8,158.3 449,158.3 449.3,158.1 449.5,158 449.8,157.8 449.9,157.8 450.2,157.5 450.4,157.3 450.5,157.1 450.7,157 
		450.8,156.7 451.1,156.5 451.2,156.3 451.2,156.1 451.4,155.8 451.5,155.6 451.5,155.3 451.6,155 451.6,154.8 451.6,154.5 
		451.6,154.1 451.6,153.9 451.5,153.6 451.5,153.4 451.4,153.1 451.4,152.8 451.2,152.6 451.1,152.5 451,152.2 450.8,152 
		450.7,151.7 450.4,151.6 450.3,151.3 450,151.2 449.9,151.1 449.7,151 449.4,150.8 449.2,150.7 448.9,150.6 448.7,150.5 
		448.4,150.3 448.2,150.3 447.9,150.3 447.7,150.3 447.4,150.2 447.1,150.3 446.9,150.3 446.6,150.3 446.4,150.5 446.1,150.5 
		445.9,150.6 445.6,150.7 445.4,150.8 445.2,151 444.9,151.1 444.7,151.2 444.5,151.5 444.3,151.6 	"/>
</g>
<g id="ID000067">
	<polygon class="st9" points="461.7,160.6 455.2,155.4 449.9,161.8 456.5,167.1 	"/>
</g>
<g id="ID000068">
	<line class="st6" x1="509.6" y1="261.8" x2="509.6" y2="281.1"/>
</g>
<g id="ID000069">
	<line class="st6" x1="530.4" y1="261.8" x2="530.4" y2="281.1"/>
</g>
<g id="ID000070">
	<line class="st6" x1="551.3" y1="261.8" x2="551.3" y2="281.1"/>
</g>
<g id="ID000071">
	<line class="st6" x1="572.3" y1="261.8" x2="572.3" y2="281.1"/>
</g>
<g id="ID000072">
	<line class="st6" x1="592.4" y1="257.1" x2="592.4" y2="285.3"/>
</g>
<g id="ID000073">
	<polygon class="st8" points="592.4,262.6 588.8,269.1 596.2,269.1 	"/>
</g>
<g id="ID000074">
	<polygon class="st8" points="592.4,278.9 592.7,278.9 592.9,278.7 593.1,278.7 593.2,278.7 593.5,278.7 593.7,278.7 593.9,278.5 
		594.1,278.4 594.3,278.4 594.4,278.2 594.6,278.1 594.8,277.9 594.9,277.7 595.1,277.6 595.1,277.5 595.3,277.2 595.4,277.1 
		595.4,277 595.6,276.7 595.7,276.4 595.7,276.4 595.7,276.1 595.8,275.9 595.8,275.7 595.8,275.4 595.8,275.3 595.8,275.1 
		595.7,274.8 595.7,274.7 595.6,274.4 595.6,274.3 595.4,274.1 595.3,273.9 595.3,273.7 595.1,273.5 595.1,273.4 594.8,273.2 
		594.6,273 594.6,272.9 594.4,272.7 594.1,272.7 594,272.6 593.7,272.5 593.6,272.4 593.4,272.4 593.2,272.4 592.9,272.2 
		592.7,272.2 592.6,272.2 592.4,272.2 592.1,272.2 591.9,272.2 591.7,272.4 591.6,272.4 591.3,272.4 591.2,272.5 590.9,272.6 
		590.8,272.7 590.6,272.7 590.4,272.9 590.3,273 590.2,273.2 589.9,273.4 589.8,273.5 589.6,273.7 589.6,273.9 589.6,274.1 
		589.4,274.3 589.4,274.4 589.3,274.7 589.3,274.8 589.1,275.1 589.1,275.3 589.1,275.4 589.1,275.7 589.1,275.9 589.1,276.1 
		589.3,276.4 589.3,276.4 589.4,276.7 589.4,277 589.6,277.1 589.6,277.2 589.8,277.5 589.9,277.6 590.1,277.7 590.2,277.9 
		590.3,278.1 590.6,278.2 590.7,278.4 590.8,278.4 591.1,278.5 591.2,278.7 591.4,278.7 591.6,278.7 591.8,278.7 592.1,278.7 
		592.2,278.9 	"/>
</g>
<g id="ID000076">
	<line class="st11" x1="474.8" y1="294.5" x2="345.8" y2="294.5"/>
</g>
<g id="ID000077">
	<polygon class="st12" points="407.2,297.8 404.8,295.9 402.3,295.3 399.9,295 395,294 399.9,293.1 402.3,292.7 404.8,292 
		407.2,290.2 	"/>
</g>
<rect x="379.8" y="210" class="st13" width="71.2" height="28.8"/>
<text transform="matrix(1 0 0 1 379.8583 232.0608)" class="st2 st3">AMP</text>
<rect x="207.5" y="95.2" class="st13" width="159.3" height="25.5"/>
<text transform="matrix(1 0 0 1 267.3323 28.8958)" class="st2 st7">ATP binding aptamer (1993)</text>
<text transform="matrix(1 0 0 1 202.6979 236.1224)" class="st2 st7">5‘</text>
<text transform="matrix(1 0 0 1 203.6569 328.5016)" class="st2 st7">3’</text>
<g id="ID000065_1_">
	<line class="st6" x1="492.6" y1="242.6" x2="485.1" y2="279.9"/>
</g>
<g id="ID000066_1_">
	<polygon class="st9" points="490.8,251.8 490.5,251.7 490.2,251.6 489.9,251.6 489.7,251.8 489.4,251.7 489.2,251.7 489.1,251.8 
		488.6,251.9 488.4,252 488.1,252 487.9,252.2 487.7,252.3 487.5,252.5 487.2,252.6 487,252.8 486.9,252.9 486.7,253.2 486.5,253.4 
		486.5,253.6 486.3,253.8 486.1,254 485.9,254.3 485.9,254.5 485.9,254.8 485.8,255.1 485.9,255.4 485.8,255.7 485.8,255.8 
		485.7,256.1 485.8,256.4 485.9,256.5 485.9,256.9 485.9,257.1 486,257.4 486.1,257.6 486.2,257.8 486.4,258.1 486.5,258.2 
		486.7,258.7 487,258.7 487,258.8 487.2,259 487.5,259.2 487.7,259.3 488,259.5 488.1,259.6 488.5,259.8 488.7,259.8 489,259.8 
		489.2,259.9 489.4,259.9 489.8,260.1 490,260.1 490.2,260 490.5,260 490.8,259.9 491,259.8 491.3,259.9 491.5,259.8 491.8,259.7 
		492.1,259.4 492.4,259.3 492.5,259.1 492.7,259 492.9,258.7 493.1,258.7 493.3,258.4 493.3,258.2 493.5,258 493.7,257.7 
		493.8,257.6 493.8,257.2 494,257 493.9,256.7 494.1,256.5 494,256.3 494.1,256 494,255.7 494.1,255.4 494,255.2 494.1,254.8 
		493.9,254.6 493.8,254.4 493.7,254.2 493.7,253.9 493.5,253.7 493.3,253.5 493.2,253.2 493,253.2 492.8,252.9 492.6,252.7 
		492.4,252.6 492.2,252.4 492,252.3 491.8,252.1 491.5,252 491.2,252 491,251.7 	"/>
</g>
<g id="ID000067_1_">
	<polygon class="st9" points="490.9,271.5 492.6,263.2 484.5,261.5 482.8,269.7 	"/>
</g>
</svg>
