<svg id="图层_1" data-name="图层 1" xmlns="http://www.w3.org/2000/svg" viewBox="0 0 800 400">
  <defs>
    <style>
      .cls-1, .cls-10, .cls-11, .cls-12, .cls-13, .cls-14, .cls-15, .cls-17, .cls-18, .cls-2, .cls-22, .cls-23, .cls-24, .cls-3, .cls-4, .cls-5, .cls-9 {
        isolation: isolate;
      }

      .cls-1, .cls-2, .cls-3, .cls-5 {
        font-size: 25px;
      }

      .cls-1, .cls-10, .cls-11, .cls-12, .cls-13, .cls-14, .cls-15, .cls-17, .cls-18, .cls-2, .cls-22, .cls-23, .cls-24, .cls-3, .cls-5, .cls-9 {
        font-family: ArialMT, Arial;
      }

      .cls-1 {
        letter-spacing: -0.37em;
      }

      .cls-2 {
        letter-spacing: -0.1em;
      }

      .cls-3 {
        letter-spacing: -0.12em;
      }

      .cls-19, .cls-21, .cls-6 {
        fill: none;
      }

      .cls-16, .cls-19, .cls-20, .cls-6, .cls-7 {
        stroke: #000;
      }

      .cls-16, .cls-6, .cls-7 {
        stroke-width: 0.5px;
      }

      .cls-8 {
        fill: #a000b5;
      }

      .cls-10, .cls-11, .cls-12, .cls-13, .cls-15, .cls-17, .cls-18, .cls-22, .cls-23, .cls-9 {
        font-size: 25.59px;
      }

      .cls-10, .cls-9 {
        fill: #b83233;
      }

      .cls-10, .cls-17 {
        letter-spacing: -0.12em;
      }

      .cls-11, .cls-13, .cls-17 {
        fill: #2ea103;
      }

      .cls-12, .cls-15 {
        fill: #ff870a;
      }

      .cls-13 {
        letter-spacing: -0.3em;
      }

      .cls-14, .cls-24 {
        font-size: 20px;
      }

      .cls-15 {
        letter-spacing: -0.36em;
      }

      .cls-16, .cls-22, .cls-23 {
        fill: #fff;
      }

      .cls-18 {
        fill: #084595;
      }

      .cls-19 {
        stroke-miterlimit: 10;
      }

      .cls-20 {
        stroke-width: 0.25px;
      }

      .cls-23 {
        letter-spacing: -0.12em;
      }

      .cls-24 {
        letter-spacing: -0.24em;
      }
    </style>
  </defs>
  <g>
    <text class="cls-1" transform="translate(248.77 74.03)">A</text>
    <text class="cls-2" transform="translate(260.63 74.03)">T</text>
    <text class="cls-3" transform="translate(272.84 74.03)">P</text>
    <g class="cls-4">
      <text class="cls-5" transform="translate(285.82 74.03)"><tspan xml:space="preserve"> binding aptamer (1993)</tspan></text>
    </g>
  </g>
  <g id="ID000065-2">
    <line class="cls-6" x1="474.3" y1="260.7" x2="474.3" y2="283.36"/>
  </g>
  <g id="ID000067-2">
    <polygon class="cls-7" points="477.88 280.38 477.93 273.32 470.67 273.42 470.62 280.39 477.88 280.38"/>
  </g>
  <rect class="cls-8" x="359.85" y="243.66" width="71.7" height="28.6"/>
  <g id="ID000002">
    <text class="cls-9" transform="translate(204.07 260.24)">G</text>
  </g>
  <g id="ID000003">
    <text class="cls-9" transform="translate(224.95 260.24)">G</text>
  </g>
  <g id="ID000004">
    <text class="cls-9" transform="translate(245.83 260.24)">G</text>
  </g>
  <g id="ID000005">
    <text class="cls-10" transform="translate(267.06 260.24)">A</text>
  </g>
  <g id="ID000006">
    <text class="cls-10" transform="translate(287.94 260.24)">A</text>
  </g>
  <g id="ID000007">
    <text class="cls-9" transform="translate(308.47 260.24)">G</text>
  </g>
  <g id="ID000008">
    <text class="cls-11" transform="translate(317.19 239.36)">G</text>
  </g>
  <g id="ID000009">
    <text class="cls-12" transform="translate(319.33 215.23)">G</text>
  </g>
  <g id="ID000010">
    <text class="cls-13" transform="translate(333.01 190.5)">A</text>
  </g>
  <g id="ID000011">
    <text class="cls-13" transform="translate(352.31 182.36)">A</text>
  </g>
  <g id="ID000012">
    <line class="cls-6" x1="352.87" y1="146.7" x2="352.87" y2="132.8"/>
  </g>
  <g id="ID000013">
    <text class="cls-14" transform="translate(338.34 130.87)">10</text>
  </g>
  <g id="ID000014">
    <text class="cls-11" transform="translate(371.54 176.1)">G</text>
  </g>
  <g id="ID000015">
    <text class="cls-15" transform="translate(395.46 174.17)">A</text>
  </g>
  <g id="ID000016">
    <text class="cls-11" transform="translate(463.57 302.63) rotate(-0.23)">G</text>
  </g>
  <g id="ID000017">
    <line class="cls-6" x1="474.07" y1="305.4" x2="474.07" y2="319.3"/>
  </g>
  <g id="ID000018">
    <text class="cls-14" transform="translate(460.85 339.92)">30</text>
  </g>
  <g id="ID000019">
    <text class="cls-9" transform="translate(309.12 303.4)">C</text>
  </g>
  <g id="ID000020">
    <text class="cls-9" transform="translate(288.24 303.4)">U</text>
  </g>
  <g id="ID000021">
    <text class="cls-9" transform="translate(267.36 303.4)">U</text>
  </g>
  <g id="ID000022">
    <text class="cls-9" transform="translate(246.48 303.4)">C</text>
  </g>
  <g id="ID000023">
    <text class="cls-9" transform="translate(225.6 303.4)">C</text>
  </g>
  <g id="ID000024">
    <text class="cls-9" transform="translate(204.72 303.4)">C</text>
  </g>
  <g id="ID000025">
    <line class="cls-6" x1="213.37" y1="263.4" x2="213.37" y2="284.7"/>
  </g>
  <g id="ID000026">
    <line class="cls-6" x1="233.67" y1="263.1" x2="233.67" y2="283"/>
  </g>
  <g id="ID000027">
    <line class="cls-6" x1="254.57" y1="263.1" x2="254.57" y2="283"/>
  </g>
  <g id="ID000028">
    <line class="cls-6" x1="275.47" y1="263.1" x2="275.47" y2="283"/>
  </g>
  <g id="ID000029">
    <line class="cls-6" x1="296.37" y1="263.1" x2="296.37" y2="283"/>
  </g>
  <g id="ID000030">
    <line class="cls-6" x1="317.27" y1="263.1" x2="317.27" y2="283"/>
  </g>
  <g id="ID000031">
    <line class="cls-6" x1="339.93" y1="224.86" x2="381.32" y2="181.55"/>
  </g>
  <g id="ID000032">
    <polygon class="cls-16" points="355.74 209.34 355.81 209.47 356.07 209.63 356.27 209.67 356.32 209.89 356.62 209.96 356.8 210.1 357.08 210.17 357.27 210.21 357.56 210.28 357.76 210.32 357.96 210.37 358.27 210.34 358.48 210.38 358.81 210.25 358.93 210.18 359.21 210.25 359.44 210.19 359.56 210.12 359.92 209.89 360.15 209.74 360.15 209.74 360.5 209.61 360.75 209.37 360.86 209.39 361.04 209.02 361.19 208.85 361.2 208.75 361.46 208.5 361.5 208.31 361.68 208.04 361.71 207.84 361.76 207.65 361.82 207.36 361.88 207.16 361.94 206.87 361.99 206.67 362 206.58 361.98 206.26 361.82 206.02 361.89 205.73 361.81 205.61 361.79 205.29 361.71 205.18 361.56 204.94 361.31 204.67 361.38 204.38 361.19 204.34 360.94 204.07 360.87 203.96 360.71 203.72 360.44 203.55 360.35 203.53 360.07 203.36 359.9 203.22 359.62 203.16 359.42 203.11 359.23 203.07 358.93 203 358.74 202.95 358.44 202.89 358.25 202.84 358.13 202.92 357.83 202.85 357.62 202.9 357.31 202.93 357.2 202.91 356.87 203.04 356.75 203.12 356.5 203.26 356.27 203.41 356.15 203.49 355.92 203.64 355.68 203.79 355.5 204.06 355.29 204.11 355.25 204.31 355.07 204.58 354.96 204.65 354.89 204.95 354.85 205.14 354.69 205.41 354.62 205.7 354.57 205.9 354.56 206 354.5 206.19 354.54 206.51 354.46 206.8 354.52 207.02 354.57 207.23 354.54 207.43 354.65 207.76 354.71 207.98 354.87 208.22 354.83 208.32 355.08 208.58 355.24 208.82 355.4 208.96 355.46 209.18 355.74 209.34"/>
  </g>
  <g id="ID000033">
    <polygon class="cls-16" points="364.75 194.18 359.6 199.66 365 204.7 370.01 199.38 364.75 194.18"/>
  </g>
  <g id="ID000034">
    <line class="cls-6" x1="340.05" y1="209.71" x2="364.19" y2="184.11"/>
  </g>
  <g id="ID000035">
    <polygon class="cls-16" points="344.32 204.86 351.8 202.63 346.11 197.43 344.32 204.86"/>
  </g>
  <g id="ID000036">
    <polygon class="cls-16" points="353.43 190.26 348.68 195.26 353.64 200.1 358.39 195.1 353.43 190.26"/>
  </g>
  <g id="ID000037">
    <line class="cls-6" x1="368.47" y1="184.49" x2="459.42" y2="225.17"/>
  </g>
  <g id="ID000038">
    <polygon class="cls-7" points="399.73 198.44 405.52 205.54 408.82 196.94 399.73 198.44"/>
  </g>
  <g id="ID000039">
    <polygon class="cls-7" points="418.82 205.54 418.82 205.34 418.82 205.04 419.02 204.84 419.02 204.54 419.02 204.34 419.02 204.04 419.02 203.84 419.02 203.44 419.02 203.24 418.82 202.94 418.82 202.74 418.82 202.44 418.63 202.24 418.52 202.04 418.32 201.74 418.23 201.54 418.02 201.44 417.82 201.14 417.63 201.04 417.52 200.94 417.23 200.64 417.02 200.54 416.63 200.44 416.52 200.24 416.32 200.24 416.02 200.14 415.82 200.04 415.52 200.04 415.32 200.04 415.02 200.04 414.63 200.04 414.32 200.04 414.13 200.04 413.82 200.14 413.63 200.14 413.32 200.24 413.13 200.24 413.02 200.44 412.73 200.54 412.52 200.74 412.23 200.94 412.13 201.04 411.82 201.24 411.73 201.44 411.52 201.64 411.32 201.74 411.23 202.04 411.02 202.24 411.02 202.54 411.02 202.74 410.82 203.04 410.82 203.34 410.73 203.54 410.73 203.84 410.73 204.04 410.73 204.34 410.73 204.54 410.82 204.84 410.82 205.04 411.02 205.34 411.02 205.54 411.02 205.94 411.23 206.14 411.32 206.44 411.52 206.54 411.52 206.74 411.82 207.04 412.02 207.24 412.23 207.24 412.32 207.54 412.63 207.74 412.82 207.74 413.13 207.94 413.32 208.04 413.63 208.04 413.82 208.24 414.13 208.24 414.32 208.34 414.63 208.34 414.93 208.34 415.13 208.34 415.43 208.34 415.63 208.24 415.93 208.24 416.13 208.04 416.43 208.04 416.63 207.94 417.02 207.74 417.13 207.74 417.32 207.44 417.63 207.24 417.73 207.24 418.02 206.94 418.13 206.74 418.23 206.54 418.52 206.24 418.63 206.14 418.63 205.94 418.82 205.54"/>
  </g>
  <g id="ID000046">
    <text class="cls-17" transform="translate(415.64 178.15)">A</text>
  </g>
  <g id="ID000047">
    <text class="cls-17" transform="translate(437.06 189.59)">A</text>
  </g>
  <g id="ID000048">
    <text class="cls-11" transform="translate(452.85 211.97)">C</text>
  </g>
  <g id="ID000049">
    <text class="cls-11" transform="translate(463.29 234.07)">U</text>
  </g>
  <g id="ID000050">
    <text class="cls-11" transform="translate(463.41 260.16)">G</text>
  </g>
  <g id="ID000051">
    <text class="cls-18" transform="translate(486.29 260.24)">C</text>
  </g>
  <g id="ID000052">
    <text class="cls-18" transform="translate(506.82 260.24)">G</text>
  </g>
  <g id="ID000053">
    <text class="cls-18" transform="translate(527.7 260.24)">G</text>
  </g>
  <g id="ID000055">
    <text class="cls-14" transform="translate(519.62 219.96)">20</text>
  </g>
  <g id="ID000056">
    <text class="cls-18" transform="translate(548.93 260.24)">C</text>
  </g>
  <g id="ID000057">
    <text class="cls-18" transform="translate(569.8 255.02)">U</text>
  </g>
  <g id="ID000058">
    <text class="cls-18" transform="translate(590.68 265.46)">U</text>
  </g>
  <g id="ID000059">
    <text class="cls-18" transform="translate(590.68 291.56)">C</text>
  </g>
  <g id="ID000060">
    <text class="cls-18" transform="translate(569.46 307.22)">G</text>
  </g>
  <g id="ID000061">
    <text class="cls-18" transform="translate(548.57 302)">G</text>
  </g>
  <g id="ID000062">
    <text class="cls-18" transform="translate(528.05 302)">C</text>
  </g>
  <g id="ID000063">
    <text class="cls-18" transform="translate(507.17 302)">C</text>
  </g>
  <g id="ID000064">
    <text class="cls-18" transform="translate(485.94 302)">G</text>
  </g>
  <g id="ID000065">
    <line class="cls-6" x1="433.6" y1="149.93" x2="459.44" y2="165.06"/>
  </g>
  <g id="ID000066">
    <polygon class="cls-7" points="438.37 152.66 438.19 152.88 438.02 153.11 437.98 153.42 438.01 153.72 437.85 153.95 437.76 154.06 437.81 154.36 437.67 154.78 437.69 154.98 437.75 155.28 437.77 155.47 437.81 155.77 437.85 155.97 437.89 156.26 438.13 156.53 438.17 156.73 438.31 157.01 438.54 157.18 438.67 157.36 438.8 157.54 438.94 157.83 439.26 157.98 439.38 158.06 439.7 158.22 439.94 158.48 440.14 158.46 440.46 158.61 440.49 158.71 440.81 158.86 441.11 158.81 441.31 158.78 441.63 158.94 441.82 158.91 442.14 158.96 442.33 158.93 442.63 158.89 442.83 158.86 443.12 158.72 443.5 158.66 443.77 158.41 443.88 158.4 444.07 158.37 444.35 158.13 444.52 158 444.8 157.75 444.88 157.74 445.14 157.4 445.31 157.17 445.38 156.96 445.56 156.83 445.62 156.52 445.88 156.28 445.95 156.06 445.93 155.87 446.07 155.54 446.14 155.33 446.11 155.03 446.15 154.72 446.13 154.52 446.07 154.22 446.02 153.83 445.99 153.63 445.85 153.35 445.81 153.15 445.68 152.87 445.63 152.57 445.4 152.4 445.29 152.32 445.14 152.04 444.92 151.87 444.77 151.59 444.46 151.53 444.31 151.25 444 151.2 443.89 151.12 443.68 151.04 443.36 150.89 443.13 150.82 442.82 150.77 442.62 150.7 442.3 150.55 442.1 150.58 441.8 150.62 441.6 150.65 441.29 150.6 441 150.74 440.81 150.77 440.5 150.81 440.35 151.04 440.05 151.09 439.87 151.22 439.57 151.36 439.39 151.49 439.24 151.72 438.94 151.86 438.76 151.99 438.62 152.31 438.43 152.44 438.37 152.66"/>
  </g>
  <g id="ID000067">
    <polygon class="cls-7" points="456.98 158.75 449.77 154.58 445.49 161.69 452.81 165.95 456.98 158.75"/>
  </g>
  <g id="ID000068">
    <line class="cls-6" x1="496.77" y1="261.8" x2="496.77" y2="281.1"/>
  </g>
  <g id="ID000069">
    <line class="cls-6" x1="517.57" y1="261.8" x2="517.57" y2="281.1"/>
  </g>
  <g id="ID000070">
    <line class="cls-6" x1="538.47" y1="261.8" x2="538.47" y2="281.1"/>
  </g>
  <g id="ID000071">
    <line class="cls-6" x1="559.47" y1="261.8" x2="559.47" y2="281.1"/>
  </g>
  <g id="ID000072">
    <line class="cls-6" x1="579.57" y1="257.1" x2="579.57" y2="285.3"/>
  </g>
  <g id="ID000073">
    <polygon class="cls-16" points="579.58 262.6 575.98 269.1 583.38 269.1 579.58 262.6"/>
  </g>
  <g id="ID000074">
    <polygon class="cls-16" points="579.58 278.9 579.88 278.9 580.08 278.7 580.27 278.7 580.38 278.7 580.67 278.7 580.88 278.7 581.08 278.5 581.27 278.4 581.48 278.4 581.58 278.2 581.77 278.1 581.98 277.9 582.08 277.7 582.27 277.6 582.27 277.5 582.48 277.2 582.58 277.1 582.58 277 582.77 276.7 582.88 276.4 582.88 276.4 582.88 276.1 582.98 275.9 582.98 275.7 582.98 275.4 582.98 275.3 582.98 275.1 582.88 274.8 582.88 274.7 582.77 274.4 582.77 274.3 582.58 274.1 582.48 273.9 582.48 273.7 582.27 273.5 582.27 273.4 581.98 273.2 581.77 273 581.77 272.9 581.58 272.7 581.27 272.7 581.17 272.6 580.88 272.5 580.77 272.4 580.58 272.4 580.38 272.4 580.08 272.2 579.88 272.2 579.77 272.2 579.58 272.2 579.27 272.2 579.08 272.2 578.88 272.4 578.77 272.4 578.48 272.4 578.38 272.5 578.08 272.6 577.98 272.7 577.77 272.7 577.58 272.9 577.48 273 577.38 273.2 577.08 273.4 576.98 273.5 576.77 273.7 576.77 273.9 576.77 274.1 576.58 274.3 576.58 274.4 576.48 274.7 576.48 274.8 576.27 275.1 576.27 275.3 576.27 275.4 576.27 275.7 576.27 275.9 576.27 276.1 576.48 276.4 576.48 276.4 576.58 276.7 576.58 277 576.77 277.1 576.77 277.2 576.98 277.5 577.08 277.6 577.27 277.7 577.38 277.9 577.48 278.1 577.77 278.2 577.88 278.4 577.98 278.4 578.27 278.5 578.38 278.7 578.58 278.7 578.77 278.7 578.98 278.7 579.27 278.7 579.38 278.9 579.58 278.9"/>
  </g>
  <g id="ID000076">
    <line class="cls-19" x1="461.97" y1="294.5" x2="332.97" y2="294.5"/>
  </g>
  <g id="ID000077">
    <polygon class="cls-20" points="394.38 297.8 391.98 295.9 389.48 295.3 387.07 295 382.18 294 387.07 293.1 389.48 292.7 391.98 292 394.38 290.2 394.38 297.8"/>
  </g>
  <rect class="cls-21" x="365.75" y="245.16" width="71.2" height="28.8"/>
  <g>
    <text class="cls-22" transform="translate(365.81 267.22)">AM</text>
    <text class="cls-23" transform="translate(404.2 267.22)">P</text>
  </g>
  <g>
    <text class="cls-14" transform="translate(190.83 328.5)">3</text>
    <text class="cls-24" transform="translate(201.95 328.5)">’</text>
  </g>
  <g id="ID000066-2">
    <polygon class="cls-7" points="474.42 264.39 474.13 264.37 473.87 264.34 473.61 264.4 473.46 264.6 473.19 264.57 473.02 264.6 472.95 264.7 472.55 264.88 472.38 264.99 472.13 265.05 472 265.25 471.83 265.37 471.69 265.56 471.45 265.7 471.32 265.9 471.25 266 471.13 266.28 471 266.48 471.02 266.64 470.89 266.84 470.75 267.04 470.63 267.32 470.67 267.48 470.71 267.72 470.69 267.98 470.82 268.21 470.79 268.47 470.81 268.55 470.77 268.81 470.9 269.04 471.01 269.1 471.08 269.43 471.12 269.59 471.25 269.82 471.38 269.96 471.5 270.1 471.71 270.31 471.81 270.37 472.07 270.74 472.33 270.69 472.36 270.77 472.56 270.9 472.86 271 473.05 271.05 473.33 271.16 473.44 271.22 473.81 271.31 473.99 271.27 474.25 271.22 474.44 271.26 474.61 271.23 474.99 271.32 475.15 271.28 475.31 271.16 475.56 271.11 475.81 270.97 475.96 270.86 476.24 270.88 476.39 270.76 476.63 270.63 476.83 270.33 477.07 270.19 477.13 270.01 477.29 269.9 477.4 269.62 477.57 269.58 477.69 269.3 477.67 269.14 477.81 268.94 477.93 268.66 477.99 268.56 477.93 268.23 478.06 268.04 477.93 267.81 478.06 267.61 477.94 267.47 477.98 267.2 477.83 266.98 477.87 266.72 477.75 266.57 477.76 266.23 477.56 266.1 477.44 265.96 477.31 265.82 477.26 265.57 477.06 265.45 476.86 265.32 476.71 265.1 476.55 265.13 476.32 264.92 476.12 264.8 475.93 264.75 475.71 264.63 475.54 264.58 475.32 264.46 475.05 264.43 474.8 264.48 474.56 264.28 474.42 264.39"/>
  </g>
  <g>
    <text class="cls-14" transform="translate(192.81 231.99)">5</text>
    <text class="cls-24" transform="translate(203.93 231.99)">’</text>
  </g>
  <line class="cls-6" x1="433.83" y1="149.8" x2="427.43" y2="158.57"/>
  <line class="cls-6" x1="459.6" y1="164.86" x2="453.5" y2="173.85"/>
</svg>
