<svg id="图层_1" data-name="图层 1" xmlns="http://www.w3.org/2000/svg" viewBox="0 0 800 400">
  <defs>
    <style>
      .cls-1, .cls-13, .cls-15 {
        fill: none;
      }

      .cls-1, .cls-11, .cls-13, .cls-14, .cls-2 {
        stroke: #000;
      }

      .cls-1, .cls-11, .cls-2 {
        stroke-width: 0.5px;
      }

      .cls-3 {
        fill: #a000b5;
      }

      .cls-10, .cls-12, .cls-16, .cls-17, .cls-18, .cls-19, .cls-20, .cls-21, .cls-22, .cls-4, .cls-5, .cls-6, .cls-7, .cls-8, .cls-9 {
        isolation: isolate;
      }

      .cls-10, .cls-12, .cls-17, .cls-18, .cls-4, .cls-5, .cls-6, .cls-7, .cls-8 {
        font-size: 25.59px;
      }

      .cls-4, .cls-5 {
        fill: #56b6f5;
      }

      .cls-10, .cls-12, .cls-17, .cls-18, .cls-19, .cls-20, .cls-21, .cls-22, .cls-4, .cls-5, .cls-6, .cls-7, .cls-8, .cls-9 {
        font-family: ArialMT, Arial;
      }

      .cls-5, .cls-8 {
        letter-spacing: -0.06em;
      }

      .cls-6, .cls-8 {
        fill: #76a031;
      }

      .cls-10, .cls-7 {
        fill: #fbe73f;
      }

      .cls-19, .cls-20, .cls-21, .cls-22, .cls-9 {
        font-size: 20px;
      }

      .cls-10 {
        letter-spacing: -0.12em;
      }

      .cls-11, .cls-17, .cls-18 {
        fill: #fff;
      }

      .cls-12 {
        fill: #ed919b;
      }

      .cls-13 {
        stroke-miterlimit: 10;
      }

      .cls-14 {
        stroke-width: 0.25px;
      }

      .cls-18 {
        letter-spacing: -0.04em;
      }

      .cls-19 {
        letter-spacing: -0.13em;
      }

      .cls-20 {
        letter-spacing: -0.02em;
      }

      .cls-21 {
        letter-spacing: -0.04em;
      }

      .cls-22 {
        letter-spacing: -0.08em;
      }
    </style>
  </defs>
  <g id="ID000065-2">
    <line class="cls-1" x1="487.13" y1="260.7" x2="487.13" y2="283.36"/>
  </g>
  <g id="ID000067-2">
    <polygon class="cls-2" points="490.71 280.38 490.75 273.32 483.49 273.42 483.44 280.39 490.71 280.38"/>
  </g>
  <rect class="cls-3" x="372.68" y="243.66" width="71.7" height="28.6"/>
  <g id="ID000002">
    <text class="cls-4" transform="translate(216.9 260.24)">G</text>
  </g>
  <g id="ID000003">
    <text class="cls-4" transform="translate(237.78 260.24)">G</text>
  </g>
  <g id="ID000004">
    <text class="cls-4" transform="translate(258.66 260.24)">G</text>
  </g>
  <g id="ID000005">
    <text class="cls-5" transform="translate(279.89 260.24)">A</text>
  </g>
  <g id="ID000006">
    <text class="cls-5" transform="translate(300.77 260.24)">A</text>
  </g>
  <g id="ID000007">
    <text class="cls-4" transform="translate(321.3 260.24)">G</text>
  </g>
  <g id="ID000008">
    <text class="cls-6" transform="translate(330.02 239.36)">G</text>
  </g>
  <g id="ID000009">
    <text class="cls-7" transform="translate(332.16 215.23)">G</text>
  </g>
  <g id="ID000010">
    <text class="cls-8" transform="translate(345.84 190.5)">A</text>
  </g>
  <g id="ID000011">
    <text class="cls-8" transform="translate(365.14 182.36)">A</text>
  </g>
  <g id="ID000012">
    <line class="cls-1" x1="365.7" y1="146.7" x2="365.7" y2="132.8"/>
  </g>
  <g id="ID000013">
    <text class="cls-9" transform="translate(351.17 130.87)">10</text>
  </g>
  <g id="ID000014">
    <text class="cls-6" transform="translate(384.37 176.1)">G</text>
  </g>
  <g id="ID000015">
    <text class="cls-10" transform="translate(408.29 174.17)">A</text>
  </g>
  <g id="ID000016">
    <text class="cls-6" transform="translate(476.4 302.63) rotate(-0.23)">G</text>
  </g>
  <g id="ID000017">
    <line class="cls-1" x1="486.9" y1="305.4" x2="486.9" y2="319.3"/>
  </g>
  <g id="ID000018">
    <text class="cls-9" transform="translate(473.68 339.92)">30</text>
  </g>
  <g id="ID000019">
    <text class="cls-4" transform="translate(321.95 303.4)">C</text>
  </g>
  <g id="ID000020">
    <text class="cls-4" transform="translate(301.07 303.4)">U</text>
  </g>
  <g id="ID000021">
    <text class="cls-4" transform="translate(280.19 303.4)">U</text>
  </g>
  <g id="ID000022">
    <text class="cls-4" transform="translate(259.31 303.4)">C</text>
  </g>
  <g id="ID000023">
    <text class="cls-4" transform="translate(238.43 303.4)">C</text>
  </g>
  <g id="ID000024">
    <text class="cls-4" transform="translate(217.55 303.4)">C</text>
  </g>
  <g id="ID000025">
    <line class="cls-1" x1="226.2" y1="263.4" x2="226.2" y2="284.7"/>
  </g>
  <g id="ID000026">
    <line class="cls-1" x1="246.5" y1="263.1" x2="246.5" y2="283"/>
  </g>
  <g id="ID000027">
    <line class="cls-1" x1="267.4" y1="263.1" x2="267.4" y2="283"/>
  </g>
  <g id="ID000028">
    <line class="cls-1" x1="288.3" y1="263.1" x2="288.3" y2="283"/>
  </g>
  <g id="ID000029">
    <line class="cls-1" x1="309.2" y1="263.1" x2="309.2" y2="283"/>
  </g>
  <g id="ID000030">
    <line class="cls-1" x1="330.1" y1="263.1" x2="330.1" y2="283"/>
  </g>
  <g id="ID000031">
    <line class="cls-1" x1="352.76" y1="224.86" x2="394.15" y2="181.55"/>
  </g>
  <g id="ID000032">
    <polygon class="cls-11" points="368.56 209.34 368.63 209.47 368.9 209.63 369.1 209.67 369.15 209.89 369.44 209.96 369.62 210.1 369.91 210.17 370.1 210.21 370.39 210.28 370.59 210.32 370.79 210.37 371.1 210.34 371.3 210.38 371.63 210.25 371.75 210.18 372.04 210.25 372.26 210.19 372.38 210.12 372.74 209.89 372.98 209.74 372.98 209.74 373.32 209.61 373.58 209.37 373.68 209.39 373.86 209.02 374.01 208.85 374.03 208.75 374.29 208.5 374.33 208.31 374.5 208.04 374.54 207.84 374.59 207.65 374.65 207.36 374.7 207.16 374.77 206.87 374.81 206.67 374.83 206.58 374.8 206.26 374.65 206.02 374.72 205.73 374.64 205.61 374.61 205.29 374.54 205.18 374.39 204.94 374.14 204.67 374.21 204.38 374.01 204.34 373.77 204.07 373.69 203.96 373.54 203.72 373.27 203.55 373.17 203.53 372.9 203.36 372.73 203.22 372.44 203.16 372.24 203.11 372.05 203.07 371.75 203 371.56 202.95 371.27 202.89 371.07 202.84 370.95 202.92 370.66 202.85 370.44 202.9 370.13 202.93 370.03 202.91 369.69 203.04 369.57 203.12 369.33 203.26 369.1 203.41 368.98 203.49 368.74 203.64 368.5 203.79 368.33 204.06 368.11 204.11 368.07 204.31 367.9 204.58 367.79 204.65 367.72 204.95 367.67 205.14 367.51 205.41 367.44 205.7 367.4 205.9 367.38 206 367.33 206.19 367.36 206.51 367.29 206.8 367.35 207.02 367.4 207.23 367.36 207.43 367.48 207.76 367.54 207.98 367.69 208.22 367.66 208.32 367.91 208.58 368.06 208.82 368.23 208.96 368.29 209.18 368.56 209.34"/>
  </g>
  <g id="ID000033">
    <polygon class="cls-11" points="377.57 194.18 372.42 199.66 377.83 204.7 382.84 199.38 377.57 194.18"/>
  </g>
  <g id="ID000034">
    <line class="cls-1" x1="352.88" y1="209.71" x2="377.02" y2="184.11"/>
  </g>
  <g id="ID000035">
    <polygon class="cls-11" points="357.15 204.86 364.62 202.63 358.93 197.43 357.15 204.86"/>
  </g>
  <g id="ID000036">
    <polygon class="cls-11" points="366.25 190.26 361.5 195.26 366.47 200.1 371.22 195.1 366.25 190.26"/>
  </g>
  <g id="ID000037">
    <line class="cls-1" x1="381.3" y1="184.49" x2="472.25" y2="225.17"/>
  </g>
  <g id="ID000038">
    <polygon class="cls-2" points="412.55 198.44 418.35 205.54 421.65 196.94 412.55 198.44"/>
  </g>
  <g id="ID000039">
    <polygon class="cls-2" points="431.65 205.54 431.65 205.34 431.65 205.04 431.85 204.84 431.85 204.54 431.85 204.34 431.85 204.04 431.85 203.84 431.85 203.44 431.85 203.24 431.65 202.94 431.65 202.74 431.65 202.44 431.45 202.24 431.35 202.04 431.15 201.74 431.05 201.54 430.85 201.44 430.65 201.14 430.45 201.04 430.35 200.94 430.05 200.64 429.85 200.54 429.45 200.44 429.35 200.24 429.15 200.24 428.85 200.14 428.65 200.04 428.35 200.04 428.15 200.04 427.85 200.04 427.45 200.04 427.15 200.04 426.95 200.04 426.65 200.14 426.45 200.14 426.15 200.24 425.95 200.24 425.85 200.44 425.55 200.54 425.35 200.74 425.05 200.94 424.95 201.04 424.65 201.24 424.55 201.44 424.35 201.64 424.15 201.74 424.05 202.04 423.85 202.24 423.85 202.54 423.85 202.74 423.65 203.04 423.65 203.34 423.55 203.54 423.55 203.84 423.55 204.04 423.55 204.34 423.55 204.54 423.65 204.84 423.65 205.04 423.85 205.34 423.85 205.54 423.85 205.94 424.05 206.14 424.15 206.44 424.35 206.54 424.35 206.74 424.65 207.04 424.85 207.24 425.05 207.24 425.15 207.54 425.45 207.74 425.65 207.74 425.95 207.94 426.15 208.04 426.45 208.04 426.65 208.24 426.95 208.24 427.15 208.34 427.45 208.34 427.75 208.34 427.95 208.34 428.25 208.34 428.45 208.24 428.75 208.24 428.95 208.04 429.25 208.04 429.45 207.94 429.85 207.74 429.95 207.74 430.15 207.44 430.45 207.24 430.55 207.24 430.85 206.94 430.95 206.74 431.05 206.54 431.35 206.24 431.45 206.14 431.45 205.94 431.65 205.54"/>
  </g>
  <g id="ID000046">
    <text class="cls-8" transform="translate(428.47 178.15)">A</text>
  </g>
  <g id="ID000047">
    <text class="cls-8" transform="translate(449.89 189.59)">A</text>
  </g>
  <g id="ID000048">
    <text class="cls-6" transform="translate(465.68 211.97)">C</text>
  </g>
  <g id="ID000049">
    <text class="cls-6" transform="translate(476.12 234.07)">U</text>
  </g>
  <g id="ID000050">
    <text class="cls-6" transform="translate(476.24 260.16)">G</text>
  </g>
  <g id="ID000051">
    <text class="cls-12" transform="translate(499.12 260.24)">C</text>
  </g>
  <g id="ID000052">
    <text class="cls-12" transform="translate(519.65 260.24)">G</text>
  </g>
  <g id="ID000053">
    <text class="cls-12" transform="translate(540.53 260.24)">G</text>
  </g>
  <g id="ID000055">
    <text class="cls-9" transform="translate(532.45 219.96)">20</text>
  </g>
  <g id="ID000056">
    <text class="cls-12" transform="translate(561.76 260.24)">C</text>
  </g>
  <g id="ID000057">
    <text class="cls-12" transform="translate(582.63 255.02)">U</text>
  </g>
  <g id="ID000058">
    <text class="cls-12" transform="translate(603.51 265.46)">U</text>
  </g>
  <g id="ID000059">
    <text class="cls-12" transform="translate(603.51 291.56)">C</text>
  </g>
  <g id="ID000060">
    <text class="cls-12" transform="translate(582.29 307.22)">G</text>
  </g>
  <g id="ID000061">
    <text class="cls-12" transform="translate(561.4 302)">G</text>
  </g>
  <g id="ID000062">
    <text class="cls-12" transform="translate(540.88 302)">C</text>
  </g>
  <g id="ID000063">
    <text class="cls-12" transform="translate(520 302)">C</text>
  </g>
  <g id="ID000064">
    <text class="cls-12" transform="translate(498.77 302)">G</text>
  </g>
  <g id="ID000065">
    <line class="cls-1" x1="446.43" y1="149.93" x2="472.27" y2="165.06"/>
  </g>
  <g id="ID000066">
    <polygon class="cls-2" points="451.19 152.66 451.02 152.88 450.85 153.11 450.8 153.42 450.84 153.72 450.67 153.95 450.59 154.06 450.63 154.36 450.49 154.78 450.52 154.98 450.57 155.28 450.6 155.47 450.64 155.77 450.67 155.97 450.72 156.26 450.96 156.53 450.99 156.73 451.13 157.01 451.36 157.18 451.49 157.36 451.62 157.54 451.76 157.83 452.09 157.98 452.2 158.06 452.53 158.22 452.77 158.48 452.97 158.46 453.29 158.61 453.31 158.71 453.64 158.86 453.93 158.81 454.13 158.78 454.46 158.94 454.65 158.91 454.97 158.96 455.16 158.93 455.46 158.89 455.66 158.86 455.94 158.72 456.33 158.66 456.6 158.41 456.7 158.4 456.9 158.37 457.17 158.13 457.35 158 457.62 157.75 457.71 157.74 457.97 157.4 458.13 157.17 458.2 156.96 458.39 156.83 458.44 156.52 458.71 156.28 458.78 156.06 458.75 155.87 458.9 155.54 458.97 155.33 458.93 155.03 458.98 154.72 458.95 154.52 458.9 154.22 458.85 153.83 458.81 153.63 458.67 153.35 458.64 153.15 458.5 152.87 458.45 152.57 458.23 152.4 458.11 152.32 457.97 152.04 457.74 151.87 457.6 151.59 457.29 151.53 457.14 151.25 456.83 151.2 456.72 151.12 456.5 151.04 456.18 150.89 455.96 150.82 455.65 150.77 455.44 150.7 455.12 150.55 454.92 150.58 454.62 150.62 454.42 150.65 454.11 150.6 453.83 150.74 453.63 150.77 453.33 150.81 453.17 151.04 452.87 151.09 452.69 151.22 452.4 151.36 452.22 151.49 452.06 151.72 451.77 151.86 451.59 151.99 451.44 152.31 451.25 152.44 451.19 152.66"/>
  </g>
  <g id="ID000067">
    <polygon class="cls-2" points="469.8 158.75 462.6 154.58 458.31 161.69 465.63 165.95 469.8 158.75"/>
  </g>
  <g id="ID000068">
    <line class="cls-1" x1="509.6" y1="261.8" x2="509.6" y2="281.1"/>
  </g>
  <g id="ID000069">
    <line class="cls-1" x1="530.4" y1="261.8" x2="530.4" y2="281.1"/>
  </g>
  <g id="ID000070">
    <line class="cls-1" x1="551.3" y1="261.8" x2="551.3" y2="281.1"/>
  </g>
  <g id="ID000071">
    <line class="cls-1" x1="572.3" y1="261.8" x2="572.3" y2="281.1"/>
  </g>
  <g id="ID000072">
    <line class="cls-1" x1="592.4" y1="257.1" x2="592.4" y2="285.3"/>
  </g>
  <g id="ID000073">
    <polygon class="cls-11" points="592.4 262.6 588.8 269.1 596.2 269.1 592.4 262.6"/>
  </g>
  <g id="ID000074">
    <polygon class="cls-11" points="592.4 278.9 592.7 278.9 592.9 278.7 593.1 278.7 593.2 278.7 593.5 278.7 593.7 278.7 593.9 278.5 594.1 278.4 594.3 278.4 594.4 278.2 594.6 278.1 594.8 277.9 594.9 277.7 595.1 277.6 595.1 277.5 595.3 277.2 595.4 277.1 595.4 277 595.6 276.7 595.7 276.4 595.7 276.4 595.7 276.1 595.8 275.9 595.8 275.7 595.8 275.4 595.8 275.3 595.8 275.1 595.7 274.8 595.7 274.7 595.6 274.4 595.6 274.3 595.4 274.1 595.3 273.9 595.3 273.7 595.1 273.5 595.1 273.4 594.8 273.2 594.6 273 594.6 272.9 594.4 272.7 594.1 272.7 594 272.6 593.7 272.5 593.6 272.4 593.4 272.4 593.2 272.4 592.9 272.2 592.7 272.2 592.6 272.2 592.4 272.2 592.1 272.2 591.9 272.2 591.7 272.4 591.6 272.4 591.3 272.4 591.2 272.5 590.9 272.6 590.8 272.7 590.6 272.7 590.4 272.9 590.3 273 590.2 273.2 589.9 273.4 589.8 273.5 589.6 273.7 589.6 273.9 589.6 274.1 589.4 274.3 589.4 274.4 589.3 274.7 589.3 274.8 589.1 275.1 589.1 275.3 589.1 275.4 589.1 275.7 589.1 275.9 589.1 276.1 589.3 276.4 589.3 276.4 589.4 276.7 589.4 277 589.6 277.1 589.6 277.2 589.8 277.5 589.9 277.6 590.1 277.7 590.2 277.9 590.3 278.1 590.6 278.2 590.7 278.4 590.8 278.4 591.1 278.5 591.2 278.7 591.4 278.7 591.6 278.7 591.8 278.7 592.1 278.7 592.2 278.9 592.4 278.9"/>
  </g>
  <g id="ID000076">
    <line class="cls-13" x1="474.8" y1="294.5" x2="345.8" y2="294.5"/>
  </g>
  <g id="ID000077">
    <polygon class="cls-14" points="407.2 297.8 404.8 295.9 402.3 295.3 399.9 295 395 294 399.9 293.1 402.3 292.7 404.8 292 407.2 290.2 407.2 297.8"/>
  </g>
  <rect class="cls-15" x="378.58" y="245.16" width="71.2" height="28.8"/>
  <g class="cls-16">
    <text class="cls-17" transform="translate(378.64 267.22)">AM</text>
    <text class="cls-18" transform="translate(417.03 267.22)">P</text>
  </g>
  <rect class="cls-15" x="207.5" y="95.2" width="159.3" height="25.5"/>
  <g class="cls-16">
    <text class="cls-19" transform="translate(267.33 28.9)">A</text>
    <text class="cls-20" transform="translate(279.19 28.9)">T</text>
    <text class="cls-21" transform="translate(291.4 28.9)">P</text>
    <text class="cls-9" transform="translate(304.38 28.9)"><tspan xml:space="preserve"> binding aptamer (1993)</tspan></text>
  </g>
  <g class="cls-16">
    <text class="cls-9" transform="translate(203.66 328.5)">3</text>
    <text class="cls-22" transform="translate(214.78 328.5)">’</text>
  </g>
  <g id="ID000066-2">
    <polygon class="cls-2" points="487.24 264.39 486.96 264.37 486.69 264.34 486.43 264.4 486.29 264.6 486.02 264.57 485.85 264.6 485.78 264.7 485.37 264.88 485.21 264.99 484.95 265.05 484.82 265.25 484.66 265.37 484.52 265.56 484.28 265.7 484.15 265.9 484.08 266 483.96 266.28 483.82 266.48 483.85 266.64 483.72 266.84 483.58 267.04 483.46 267.32 483.49 267.48 483.54 267.72 483.51 267.98 483.65 268.21 483.61 268.47 483.63 268.55 483.6 268.81 483.73 269.04 483.84 269.1 483.91 269.43 483.94 269.59 484.08 269.82 484.2 269.96 484.32 270.1 484.54 270.31 484.64 270.37 484.9 270.74 485.16 270.69 485.18 270.77 485.38 270.9 485.68 271 485.87 271.05 486.16 271.16 486.26 271.22 486.64 271.31 486.81 271.27 487.07 271.22 487.26 271.26 487.43 271.23 487.81 271.32 487.98 271.28 488.13 271.16 488.39 271.11 488.63 270.97 488.79 270.86 489.06 270.88 489.22 270.76 489.46 270.63 489.66 270.33 489.9 270.19 489.95 270.01 490.11 269.9 490.23 269.62 490.4 269.58 490.52 269.3 490.49 269.14 490.63 268.94 490.75 268.66 490.81 268.56 490.75 268.23 490.88 268.04 490.75 267.81 490.88 267.61 490.76 267.47 490.8 267.2 490.66 266.98 490.69 266.72 490.57 266.57 490.59 266.23 490.38 266.1 490.26 265.96 490.14 265.82 490.09 265.57 489.88 265.45 489.68 265.32 489.54 265.1 489.37 265.13 489.15 264.92 488.94 264.8 488.75 264.75 488.54 264.63 488.36 264.58 488.15 264.46 487.87 264.43 487.62 264.48 487.39 264.28 487.24 264.39"/>
  </g>
  <g class="cls-16">
    <text class="cls-9" transform="translate(205.64 231.99)">5</text>
    <text class="cls-22" transform="translate(216.76 231.99)">’</text>
  </g>
  <line class="cls-1" x1="446.66" y1="149.8" x2="440.26" y2="158.57"/>
  <line class="cls-1" x1="472.43" y1="164.86" x2="466.33" y2="173.85"/>
</svg>
