<?xml version="1.0" encoding="utf-8"?>
<!-- Generator: Adobe Illustrator 25.2.0, SVG Export Plug-In . SVG Version: 6.00 Build 0)  -->
<svg version="1.1" id="_图层_1" xmlns="http://www.w3.org/2000/svg" xmlns:xlink="http://www.w3.org/1999/xlink" x="0px" y="0px"
	 viewBox="0 0 800 400" style="enable-background:new 0 0 800 400;" xml:space="preserve">
<style type="text/css">
	.st0{fill:#80DB9E;}
	.st1{fill:#FF6666;}
	.st2{fill:#C2C2FF;}
	.st3{fill:none;stroke:#000000;stroke-width:1.33;stroke-linejoin:round;}
	.st4{fill:#008080;}
	.st5{fill:#FF870A;}
	.st6{font-family:'ArialMT';}
	.st7{font-size:24px;}
	.st8{font-size:26.4029px;}
	.st9{letter-spacing:-2;}
</style>
<path class="st0" d="M412.2,329v-2.1h7.6v6.7c-1.2,0.9-2.4,1.6-3.6,2.1c-1.3,0.5-2.5,0.7-3.8,0.7c-1.8,0-3.4-0.4-4.8-1.1
	c-1.5-0.8-2.5-1.9-3.3-3.3c-0.7-1.4-1.1-3-1.1-4.8c0-1.8,0.4-3.4,1.1-4.9c0.7-1.5,1.8-2.7,3.2-3.4c1.4-0.7,3-1.1,4.8-1.1
	c1.3,0,2.5,0.2,3.5,0.6c1.1,0.4,1.9,1,2.5,1.8c0.6,0.8,1.1,1.7,1.4,3l-2.1,0.6c-0.3-0.9-0.6-1.6-1-2.2c-0.4-0.5-1-1-1.7-1.3
	c-0.7-0.3-1.6-0.5-2.5-0.5c-1.1,0-2,0.2-2.8,0.5c-0.8,0.3-1.4,0.8-1.9,1.3c-0.5,0.5-0.9,1.1-1.1,1.8c-0.5,1.1-0.7,2.3-0.7,3.6
	c0,1.6,0.3,2.9,0.8,4c0.6,1.1,1.4,1.9,2.4,2.4c1.1,0.5,2.2,0.8,3.4,0.8c1,0,2-0.2,3-0.6c1-0.4,1.7-0.8,2.2-1.3V329L412.2,329
	L412.2,329z"/>
<path class="st0" d="M412.2,310.2v-2.1h7.6v6.7c-1.2,0.9-2.4,1.6-3.6,2.1s-2.5,0.7-3.8,0.7c-1.8,0-3.4-0.4-4.8-1.1
	c-1.5-0.8-2.5-1.9-3.3-3.3c-0.7-1.4-1.1-3-1.1-4.8c0-1.8,0.4-3.4,1.1-4.9c0.7-1.5,1.8-2.7,3.2-3.4c1.4-0.7,3-1.1,4.8-1.1
	c1.3,0,2.5,0.2,3.5,0.6s1.9,1,2.5,1.8c0.6,0.8,1.1,1.7,1.4,3l-2.1,0.6c-0.3-0.9-0.6-1.6-1-2.2c-0.4-0.5-1-1-1.7-1.3
	c-0.7-0.3-1.6-0.5-2.5-0.5c-1.1,0-2,0.2-2.8,0.5c-0.8,0.3-1.4,0.8-1.9,1.3c-0.5,0.5-0.9,1.1-1.1,1.8c-0.5,1.1-0.7,2.3-0.7,3.6
	c0,1.6,0.3,2.9,0.8,4c0.6,1.1,1.4,1.9,2.4,2.4c1.1,0.5,2.2,0.8,3.4,0.8c1,0,2-0.2,3-0.6c1-0.4,1.7-0.8,2.2-1.3v-3.4L412.2,310.2
	L412.2,310.2z"/>
<path class="st0" d="M421.7,307.9l6.9-18h2.6l7.4,18h-2.7l-2.1-5.5h-7.5l-2,5.5H421.7L421.7,307.9z M426.9,300.5h6.1l-1.9-5
	c-0.6-1.5-1-2.8-1.3-3.7c-0.2,1.2-0.6,2.3-1,3.4L426.9,300.5L426.9,300.5L426.9,300.5z"/>
<path class="st0" d="M327.8,312.6l6.9-18h2.6l7.4,18H342l-2.1-5.5h-7.5l-2,5.5H327.8L327.8,312.6z M333,305.2h6.1l-1.9-5
	c-0.6-1.5-1-2.8-1.3-3.7c-0.2,1.2-0.6,2.3-1,3.4L333,305.2L333,305.2L333,305.2z"/>
<path class="st0" d="M360.7,311l2.4,0.6c-0.5,2-1.4,3.5-2.7,4.5s-2.9,1.5-4.8,1.5c-1.9,0-3.5-0.4-4.7-1.2c-1.2-0.8-2.1-1.9-2.8-3.4
	c-0.6-1.5-1-3.1-1-4.8c0-1.9,0.4-3.5,1.1-4.9c0.7-1.4,1.7-2.5,3.1-3.2c1.3-0.7,2.8-1.1,4.4-1.1c1.8,0,3.3,0.5,4.6,1.4
	c1.2,0.9,2.1,2.2,2.6,3.9l-2.4,0.6c-0.4-1.3-1-2.3-1.8-2.9c-0.8-0.6-1.8-0.9-3-0.9c-1.4,0-2.5,0.3-3.5,1c-0.9,0.7-1.6,1.6-2,2.7
	c-0.4,1.1-0.6,2.3-0.6,3.5c0,1.5,0.2,2.9,0.7,4c0.4,1.1,1.1,2,2.1,2.6c0.9,0.6,2,0.8,3.1,0.8c1.3,0,2.5-0.4,3.4-1.2
	C359.7,313.6,360.4,312.5,360.7,311L360.7,311L360.7,311z"/>
<path class="st0" d="M379.5,311l2.4,0.6c-0.5,2-1.4,3.5-2.7,4.5s-2.9,1.5-4.8,1.5c-1.9,0-3.5-0.4-4.7-1.2c-1.2-0.8-2.1-1.9-2.8-3.4
	c-0.6-1.5-1-3.1-1-4.8c0-1.9,0.4-3.5,1.1-4.9c0.7-1.4,1.7-2.5,3.1-3.2c1.3-0.7,2.8-1.1,4.4-1.1c1.8,0,3.3,0.5,4.6,1.4
	c1.2,0.9,2.1,2.2,2.6,3.9l-2.4,0.6c-0.4-1.3-1-2.3-1.8-2.9s-1.8-0.9-3-0.9c-1.4,0-2.5,0.3-3.5,1c-0.9,0.7-1.6,1.6-2,2.7
	s-0.6,2.3-0.6,3.5c0,1.5,0.2,2.9,0.7,4c0.4,1.1,1.1,2,2.1,2.6c0.9,0.6,2,0.8,3.1,0.8c1.3,0,2.5-0.4,3.4-1.2
	C378.5,313.6,379.1,312.5,379.5,311L379.5,311L379.5,311z"/>
<path class="st0" d="M379.5,329.8l2.4,0.6c-0.5,2-1.4,3.5-2.7,4.5s-2.9,1.5-4.8,1.5c-1.9,0-3.5-0.4-4.7-1.2
	c-1.2-0.8-2.1-1.9-2.8-3.4c-0.6-1.5-1-3.1-1-4.8c0-1.9,0.4-3.5,1.1-4.9c0.7-1.4,1.7-2.5,3.1-3.2c1.3-0.7,2.8-1.1,4.4-1.1
	c1.8,0,3.3,0.5,4.6,1.4c1.2,0.9,2.1,2.2,2.6,3.9l-2.4,0.6c-0.4-1.3-1-2.3-1.8-2.9s-1.8-0.9-3-0.9c-1.4,0-2.5,0.3-3.5,1
	c-0.9,0.7-1.6,1.6-2,2.7s-0.6,2.3-0.6,3.5c0,1.5,0.2,2.9,0.7,4c0.4,1.1,1.1,2,2.1,2.6c0.9,0.6,2,0.8,3.1,0.8c1.3,0,2.5-0.4,3.4-1.2
	C378.5,332.4,379.1,331.3,379.5,329.8L379.5,329.8L379.5,329.8z"/>
<path class="st1" d="M365.5,358.8l6.9-18h2.6l7.4,18h-2.7l-2.1-5.5H370l-2,5.5H365.5L365.5,358.8z M370.7,351.4h6.1l-1.9-5
	c-0.6-1.5-1-2.8-1.3-3.7c-0.2,1.2-0.6,2.3-1,3.4L370.7,351.4L370.7,351.4L370.7,351.4z"/>
<path class="st1" d="M345.9,359.1l6.9-18h2.6l7.4,18h-2.7l-2.1-5.5h-7.5l-2,5.5H345.9L345.9,359.1z M351.1,351.7h6.1l-1.9-5
	c-0.6-1.5-1-2.8-1.3-3.7c-0.2,1.2-0.6,2.3-1,3.4L351.1,351.7L351.1,351.7L351.1,351.7z"/>
<path class="st1" d="M341.9,352.7l2.4,0.6c-0.5,2-1.4,3.5-2.7,4.5c-1.3,1-2.9,1.5-4.8,1.5s-3.5-0.4-4.7-1.2
	c-1.2-0.8-2.1-1.9-2.8-3.4c-0.6-1.5-1-3.1-1-4.8c0-1.9,0.4-3.5,1.1-4.9c0.7-1.4,1.7-2.5,3.1-3.2c1.3-0.7,2.8-1.1,4.4-1.1
	c1.8,0,3.3,0.5,4.6,1.4c1.2,0.9,2.1,2.2,2.6,3.9l-2.4,0.6c-0.4-1.3-1-2.3-1.8-2.9c-0.8-0.6-1.8-0.9-3-0.9c-1.4,0-2.5,0.3-3.5,1
	c-0.9,0.7-1.6,1.6-2,2.7c-0.4,1.1-0.6,2.3-0.6,3.5c0,1.5,0.2,2.9,0.7,4c0.4,1.1,1.1,2,2.1,2.6c0.9,0.6,2,0.8,3.1,0.8
	c1.3,0,2.5-0.4,3.4-1.2C340.9,355.3,341.6,354.2,341.9,352.7L341.9,352.7L341.9,352.7z"/>
<path class="st1" d="M323.2,353.3l2.4,0.6c-0.5,2-1.4,3.5-2.7,4.5c-1.3,1-2.9,1.5-4.8,1.5c-1.9,0-3.5-0.4-4.7-1.2
	c-1.2-0.8-2.1-1.9-2.8-3.4c-0.6-1.5-1-3.1-1-4.8c0-1.9,0.4-3.5,1.1-4.9c0.7-1.4,1.7-2.5,3.1-3.2c1.3-0.7,2.8-1.1,4.4-1.1
	c1.8,0,3.3,0.5,4.6,1.4c1.2,0.9,2.1,2.2,2.6,3.9l-2.4,0.6c-0.4-1.3-1-2.3-1.8-2.9c-0.8-0.6-1.8-0.9-3-0.9c-1.4,0-2.5,0.3-3.5,1
	c-0.9,0.7-1.6,1.6-2,2.7c-0.4,1.1-0.6,2.3-0.6,3.5c0,1.5,0.2,2.9,0.7,4c0.4,1.1,1.1,2,2.1,2.6c0.9,0.6,2,0.8,3.1,0.8
	c1.3,0,2.5-0.4,3.4-1.2C322.2,355.9,322.9,354.8,323.2,353.3L323.2,353.3L323.2,353.3z"/>
<path class="st1" d="M291,359.6l6.9-18h2.6l7.4,18h-2.7l-2.1-5.5h-7.5l-2,5.5H291L291,359.6z M296.2,352.2h6.1l-1.9-5
	c-0.6-1.5-1-2.8-1.3-3.7c-0.2,1.2-0.6,2.3-1,3.4L296.2,352.2L296.2,352.2L296.2,352.2z"/>
<path class="st1" d="M278.5,354.2V352h7.6v6.7c-1.2,0.9-2.4,1.6-3.6,2.1c-1.3,0.5-2.5,0.7-3.8,0.7c-1.8,0-3.4-0.4-4.8-1.1
	c-1.5-0.8-2.5-1.9-3.3-3.3c-0.7-1.4-1.1-3-1.1-4.8c0-1.8,0.4-3.4,1.1-4.9c0.7-1.5,1.8-2.7,3.2-3.4c1.4-0.7,3-1.1,4.8-1.1
	c1.3,0,2.5,0.2,3.5,0.6c1.1,0.4,1.9,1,2.5,1.8c0.6,0.8,1.1,1.7,1.4,3l-2.1,0.6c-0.3-0.9-0.6-1.6-1-2.2c-0.4-0.5-1-1-1.7-1.3
	c-0.7-0.3-1.6-0.5-2.5-0.5c-1.1,0-2,0.2-2.8,0.5c-0.8,0.3-1.4,0.8-1.9,1.3c-0.5,0.5-0.9,1.1-1.1,1.8c-0.5,1.1-0.7,2.3-0.7,3.6
	c0,1.6,0.3,2.9,0.8,4c0.6,1.1,1.4,1.9,2.4,2.4c1.1,0.5,2.2,0.8,3.4,0.8c1,0,2-0.2,3-0.6c1-0.4,1.7-0.8,2.2-1.3v-3.4L278.5,354.2
	L278.5,354.2z"/>
<path class="st1" d="M260.6,354.8l2.4,0.6c-0.5,2-1.4,3.5-2.7,4.5c-1.3,1-2.9,1.5-4.8,1.5c-1.9,0-3.5-0.4-4.7-1.2
	c-1.2-0.8-2.1-1.9-2.8-3.4c-0.6-1.5-1-3.1-1-4.8c0-1.9,0.4-3.5,1.1-4.9c0.7-1.4,1.7-2.5,3.1-3.2c1.3-0.7,2.8-1.1,4.4-1.1
	c1.8,0,3.3,0.5,4.6,1.4c1.2,0.9,2.1,2.2,2.6,3.9l-2.4,0.6c-0.4-1.3-1-2.3-1.8-2.9s-1.8-0.9-3-0.9c-1.4,0-2.5,0.3-3.5,1
	c-0.9,0.7-1.6,1.6-2,2.7c-0.4,1.1-0.6,2.3-0.6,3.5c0,1.5,0.2,2.9,0.7,4c0.4,1.1,1.1,2,2.1,2.6c0.9,0.6,2,0.8,3.1,0.8
	c1.3,0,2.5-0.4,3.4-1.2C259.6,357.5,260.2,356.3,260.6,354.8L260.6,354.8L260.6,354.8z"/>
<path class="st1" d="M240,354.7l2.4,0.6c-0.5,2-1.4,3.5-2.7,4.5c-1.3,1-2.9,1.5-4.8,1.5c-1.9,0-3.5-0.4-4.7-1.2
	c-1.2-0.8-2.1-1.9-2.8-3.4c-0.6-1.5-1-3.1-1-4.8c0-1.9,0.4-3.5,1.1-4.9c0.7-1.4,1.7-2.5,3.1-3.2c1.3-0.7,2.8-1.1,4.4-1.1
	c1.8,0,3.3,0.5,4.6,1.4c1.2,0.9,2.1,2.2,2.6,3.9l-2.4,0.6c-0.4-1.3-1-2.3-1.8-2.9s-1.8-0.9-3-0.9c-1.4,0-2.5,0.3-3.5,1
	c-0.9,0.7-1.6,1.6-2,2.7c-0.4,1.1-0.6,2.3-0.6,3.5c0,1.5,0.2,2.9,0.7,4c0.4,1.1,1.1,2,2.1,2.6c0.9,0.6,2,0.8,3.1,0.8
	c1.3,0,2.5-0.4,3.4-1.2C239.1,357.4,239.7,356.2,240,354.7L240,354.7L240,354.7z"/>
<path class="st1" d="M207.1,360.4l6.9-18h2.6l7.4,18h-2.7l-2.1-5.5h-7.5l-2,5.5H207.1L207.1,360.4z M212.3,353h6.1l-1.9-5
	c-0.6-1.5-1-2.8-1.3-3.7c-0.2,1.2-0.6,2.3-1,3.4L212.3,353L212.3,353L212.3,353z"/>
<path class="st1" d="M195.7,353.1v-2.1h7.6v6.7c-1.2,0.9-2.4,1.6-3.6,2.1c-1.3,0.5-2.5,0.7-3.8,0.7c-1.8,0-3.4-0.4-4.8-1.1
	c-1.5-0.8-2.5-1.9-3.3-3.3c-0.7-1.4-1.1-3-1.1-4.8c0-1.8,0.4-3.4,1.1-4.9c0.7-1.5,1.8-2.7,3.2-3.4c1.4-0.7,3-1.1,4.8-1.1
	c1.3,0,2.5,0.2,3.5,0.6c1.1,0.4,1.9,1,2.5,1.8c0.6,0.8,1.1,1.7,1.4,3l-2.1,0.6c-0.3-0.9-0.6-1.6-1-2.2c-0.4-0.5-1-1-1.7-1.3
	c-0.7-0.3-1.6-0.5-2.5-0.5c-1.1,0-2,0.2-2.8,0.5c-0.8,0.3-1.4,0.8-1.9,1.3c-0.5,0.5-0.9,1.1-1.1,1.8c-0.5,1.1-0.7,2.3-0.7,3.6
	c0,1.6,0.3,2.9,0.8,4c0.6,1.1,1.4,1.9,2.4,2.4c1.1,0.5,2.2,0.8,3.4,0.8c1,0,2-0.2,3-0.6c1-0.4,1.7-0.8,2.2-1.3v-3.4L195.7,353.1
	L195.7,353.1z"/>
<path class="st1" d="M166.2,359.1l6.9-18h2.6l7.4,18h-2.7l-2.1-5.5h-7.5l-2,5.5H166.2L166.2,359.1z M171.4,351.7h6.1l-1.9-5
	c-0.6-1.5-1-2.8-1.3-3.7c-0.2,1.2-0.6,2.3-1,3.4L171.4,351.7L171.4,351.7L171.4,351.7z"/>
<path class="st1" d="M153.3,353v-2.1h7.6v6.7c-1.2,0.9-2.4,1.6-3.6,2.1c-1.3,0.5-2.5,0.7-3.8,0.7c-1.8,0-3.4-0.4-4.8-1.1
	c-1.5-0.8-2.5-1.9-3.3-3.3c-0.7-1.4-1.1-3-1.1-4.8c0-1.8,0.4-3.4,1.1-4.9c0.7-1.5,1.8-2.7,3.2-3.4c1.4-0.7,3-1.1,4.8-1.1
	c1.3,0,2.5,0.2,3.5,0.6c1.1,0.4,1.9,1,2.5,1.8c0.6,0.8,1.1,1.7,1.4,3l-2.1,0.6c-0.3-0.9-0.6-1.6-1-2.2c-0.4-0.5-1-1-1.7-1.3
	c-0.7-0.3-1.6-0.5-2.5-0.5c-1.1,0-2,0.2-2.8,0.5c-0.8,0.3-1.4,0.8-1.9,1.3c-0.5,0.5-0.9,1.1-1.1,1.8c-0.5,1.1-0.7,2.3-0.7,3.6
	c0,1.6,0.3,2.9,0.8,4c0.6,1.1,1.4,1.9,2.4,2.4c1.1,0.5,2.2,0.8,3.4,0.8c1,0,2-0.2,3-0.6s1.7-0.8,2.2-1.3V353L153.3,353L153.3,353z"
	/>
<path class="st1" d="M122.6,359.5l6.9-18h2.6l7.4,18h-2.7l-2.1-5.5h-7.5l-2,5.5H122.6L122.6,359.5z M127.8,352.1h6.1l-1.9-5
	c-0.6-1.5-1-2.8-1.3-3.7c-0.2,1.2-0.6,2.3-1,3.4L127.8,352.1L127.8,352.1L127.8,352.1z"/>
<path class="st1" d="M117.2,353.4l2.4,0.6c-0.5,2-1.4,3.5-2.7,4.5c-1.3,1-2.9,1.5-4.8,1.5s-3.5-0.4-4.7-1.2
	c-1.2-0.8-2.1-1.9-2.8-3.4c-0.6-1.5-1-3.1-1-4.8c0-1.9,0.4-3.5,1.1-4.9c0.7-1.4,1.7-2.5,3.1-3.2c1.3-0.7,2.8-1.1,4.4-1.1
	c1.8,0,3.3,0.5,4.6,1.4c1.2,0.9,2.1,2.2,2.6,3.9l-2.4,0.6c-0.4-1.3-1-2.3-1.8-2.9c-0.8-0.6-1.8-0.9-3-0.9c-1.4,0-2.5,0.3-3.5,1
	c-0.9,0.7-1.6,1.6-2,2.7s-0.6,2.3-0.6,3.5c0,1.5,0.2,2.9,0.7,4c0.4,1.1,1.1,2,2.1,2.6c0.9,0.6,2,0.8,3.1,0.8c1.3,0,2.5-0.4,3.4-1.2
	C116.2,356.1,116.8,354.9,117.2,353.4L117.2,353.4L117.2,353.4z"/>
<path class="st1" d="M96.5,353.3l2.4,0.6c-0.5,2-1.4,3.5-2.7,4.5c-1.3,1-2.9,1.5-4.8,1.5c-1.9,0-3.5-0.4-4.7-1.2
	c-1.2-0.8-2.1-1.9-2.8-3.4c-0.6-1.5-1-3.1-1-4.8c0-1.9,0.4-3.5,1.1-4.9c0.7-1.4,1.7-2.5,3.1-3.2c1.3-0.7,2.8-1.1,4.4-1.1
	c1.8,0,3.3,0.5,4.6,1.4c1.2,0.9,2.1,2.2,2.6,3.9l-2.4,0.6c-0.4-1.3-1-2.3-1.8-2.9c-0.8-0.6-1.8-0.9-3-0.9c-1.4,0-2.5,0.3-3.5,1
	c-0.9,0.7-1.6,1.6-2,2.7c-0.4,1.1-0.6,2.3-0.6,3.5c0,1.5,0.2,2.9,0.7,4c0.4,1.1,1.1,2,2.1,2.6c0.9,0.6,2,0.8,3.1,0.8
	c1.3,0,2.5-0.4,3.4-1.2C95.5,356,96.1,354.8,96.5,353.3L96.5,353.3L96.5,353.3z"/>
<path class="st0" d="M419.9,281.5l6.9-18h2.6l7.4,18h-2.7l-2.1-5.5h-7.5l-2,5.5H419.9L419.9,281.5z M425.1,274.1h6.1l-1.9-5
	c-0.6-1.5-1-2.8-1.3-3.7c-0.2,1.2-0.6,2.3-1,3.4L425.1,274.1L425.1,274.1L425.1,274.1z"/>
<path class="st2" d="M412.2,268v-2.1h7.6v6.7c-1.2,0.9-2.4,1.6-3.6,2.1c-1.3,0.5-2.5,0.7-3.8,0.7c-1.8,0-3.4-0.4-4.8-1.1
	c-1.5-0.8-2.5-1.9-3.3-3.3c-0.7-1.4-1.1-3-1.1-4.8c0-1.8,0.4-3.4,1.1-4.9c0.7-1.5,1.8-2.7,3.2-3.4c1.4-0.7,3-1.1,4.8-1.1
	c1.3,0,2.5,0.2,3.5,0.6c1.1,0.4,1.9,1,2.5,1.8c0.6,0.8,1.1,1.7,1.4,3l-2.1,0.6c-0.3-0.9-0.6-1.6-1-2.2c-0.4-0.5-1-1-1.7-1.3
	c-0.7-0.3-1.6-0.5-2.5-0.5c-1.1,0-2,0.2-2.8,0.5c-0.8,0.3-1.4,0.8-1.9,1.3c-0.5,0.5-0.9,1.1-1.1,1.8c-0.5,1.1-0.7,2.3-0.7,3.6
	c0,1.6,0.3,2.9,0.8,4c0.6,1.1,1.4,1.9,2.4,2.4c1.1,0.5,2.2,0.8,3.4,0.8c1,0,2-0.2,3-0.6c1-0.4,1.7-0.8,2.2-1.3v-3.4L412.2,268
	L412.2,268z"/>
<path class="st2" d="M412.2,249.2v-2.1h7.6v6.7c-1.2,0.9-2.4,1.6-3.6,2.1c-1.3,0.5-2.5,0.7-3.8,0.7c-1.8,0-3.4-0.4-4.8-1.1
	c-1.5-0.8-2.5-1.9-3.3-3.3c-0.7-1.4-1.1-3-1.1-4.8s0.4-3.4,1.1-4.9c0.7-1.5,1.8-2.7,3.2-3.4c1.4-0.7,3-1.1,4.8-1.1
	c1.3,0,2.5,0.2,3.5,0.6c1.1,0.4,1.9,1,2.5,1.8c0.6,0.8,1.1,1.7,1.4,3l-2.1,0.6c-0.3-0.9-0.6-1.6-1-2.2c-0.4-0.5-1-1-1.7-1.3
	c-0.7-0.3-1.6-0.5-2.5-0.5c-1.1,0-2,0.2-2.8,0.5c-0.8,0.3-1.4,0.8-1.9,1.3c-0.5,0.5-0.9,1.1-1.1,1.8c-0.5,1.1-0.7,2.3-0.7,3.6
	c0,1.6,0.3,2.9,0.8,4c0.6,1.1,1.4,1.9,2.4,2.4s2.2,0.8,3.4,0.8c1,0,2-0.2,3-0.6c1-0.4,1.7-0.8,2.2-1.3v-3.4L412.2,249.2L412.2,249.2
	z"/>
<path class="st2" d="M417.1,229.7l2.4,0.6c-0.5,2-1.4,3.5-2.7,4.5c-1.3,1-2.9,1.5-4.8,1.5s-3.5-0.4-4.7-1.2
	c-1.2-0.8-2.1-1.9-2.8-3.4c-0.6-1.5-1-3.1-1-4.8c0-1.9,0.4-3.5,1.1-4.9c0.7-1.4,1.7-2.5,3.1-3.2s2.8-1.1,4.4-1.1
	c1.8,0,3.3,0.5,4.6,1.4c1.2,0.9,2.1,2.2,2.6,3.9l-2.4,0.6c-0.4-1.3-1-2.3-1.8-2.9c-0.8-0.6-1.8-0.9-3-0.9c-1.4,0-2.5,0.3-3.5,1
	c-0.9,0.7-1.6,1.6-2,2.7c-0.4,1.1-0.6,2.3-0.6,3.5c0,1.5,0.2,2.9,0.7,4c0.4,1.1,1.1,2,2.1,2.6c0.9,0.6,2,0.8,3.1,0.8
	c1.3,0,2.5-0.4,3.4-1.2C416.1,232.4,416.7,231.2,417.1,229.7L417.1,229.7L417.1,229.7z"/>
<path class="st2" d="M420.5,223l6.9-18h2.6l7.4,18h-2.7l-2.1-5.5H425l-2,5.5L420.5,223L420.5,223z M425.7,215.5h6.1l-1.9-5
	c-0.6-1.5-1-2.8-1.3-3.7c-0.2,1.2-0.6,2.3-1,3.4L425.7,215.5L425.7,215.5L425.7,215.5z"/>
<path class="st2" d="M357.5,215.6l2.4,0.6c-0.5,2-1.4,3.5-2.7,4.5c-1.3,1-2.9,1.5-4.8,1.5s-3.5-0.4-4.7-1.2
	c-1.2-0.8-2.1-1.9-2.8-3.4c-0.6-1.5-1-3.1-1-4.8c0-1.9,0.4-3.5,1.1-4.9c0.7-1.4,1.7-2.5,3.1-3.2c1.3-0.7,2.8-1.1,4.4-1.1
	c1.8,0,3.3,0.5,4.6,1.4c1.2,0.9,2.1,2.2,2.6,3.9l-2.4,0.6c-0.4-1.3-1-2.3-1.8-2.9c-0.8-0.6-1.8-0.9-3-0.9c-1.4,0-2.5,0.3-3.5,1
	c-0.9,0.7-1.6,1.6-2,2.7c-0.4,1.1-0.6,2.3-0.6,3.5c0,1.5,0.2,2.9,0.7,4c0.4,1.1,1.1,2,2.1,2.6c0.9,0.6,2,0.8,3.1,0.8
	c1.3,0,2.5-0.4,3.4-1.2C356.5,218.2,357.2,217.1,357.5,215.6L357.5,215.6L357.5,215.6z"/>
<line class="st3" x1="342.6" y1="208.9" x2="330.1" y2="208.9"/>
<path d="M314.6,205.1l-2.2,0.2c-0.2-0.9-0.5-1.5-0.8-1.9c-0.6-0.6-1.3-1-2.2-1c-0.7,0-1.3,0.2-1.9,0.6c-0.7,0.5-1.2,1.2-1.7,2.2
	c-0.4,1-0.6,2.4-0.6,4.2c0.5-0.8,1.2-1.4,2-1.8c0.8-0.4,1.6-0.6,2.4-0.6c1.5,0,2.7,0.5,3.8,1.6c1,1.1,1.6,2.5,1.6,4.2
	c0,1.1-0.2,2.2-0.7,3.2c-0.5,1-1.2,1.7-2,2.2s-1.8,0.8-2.9,0.8c-1.8,0-3.4-0.7-4.5-2c-1.2-1.4-1.7-3.6-1.7-6.7c0-3.5,0.7-6,1.9-7.6
	c1.1-1.4,2.6-2.1,4.5-2.1c1.4,0,2.6,0.4,3.5,1.2C313.9,202.6,314.4,203.7,314.6,205.1L314.6,205.1L314.6,205.1z M305.6,212.8
	c0,0.8,0.2,1.5,0.5,2.2c0.3,0.7,0.8,1.2,1.4,1.6c0.6,0.4,1.2,0.5,1.8,0.5c0.9,0,1.7-0.4,2.4-1.1c0.7-0.8,1-1.8,1-3.1s-0.3-2.2-1-2.9
	s-1.5-1.1-2.5-1.1c-1,0-1.8,0.4-2.6,1.1C305.9,210.7,305.6,211.7,305.6,212.8L305.6,212.8L305.6,212.8z M317,209.8
	c0-2.1,0.2-3.9,0.7-5.2c0.4-1.3,1.1-2.3,2-3c0.9-0.7,2-1.1,3.3-1.1c1,0,1.8,0.2,2.6,0.6c0.7,0.4,1.3,1,1.8,1.7s0.8,1.6,1.1,2.7
	c0.3,1.1,0.4,2.5,0.4,4.3c0,2.1-0.2,3.8-0.7,5.1c-0.4,1.3-1.1,2.3-2,3c-0.9,0.7-2,1.1-3.3,1.1c-1.7,0-3.1-0.6-4.1-1.9
	C317.6,215.6,317,213.2,317,209.8L317,209.8z M319.3,209.8c0,3,0.3,4.9,1,5.9c0.7,1,1.5,1.5,2.6,1.5c1,0,1.9-0.5,2.6-1.5
	c0.7-1,1-3,1-5.9s-0.3-4.9-1-5.9c-0.7-1-1.6-1.5-2.6-1.5c-1,0-1.8,0.4-2.4,1.3C319.7,204.8,319.3,206.8,319.3,209.8L319.3,209.8
	L319.3,209.8z"/>
<path class="st2" d="M374.6,228.9v-2.1h7.6v6.7c-1.2,0.9-2.4,1.6-3.6,2.1c-1.3,0.5-2.5,0.7-3.8,0.7c-1.8,0-3.4-0.4-4.8-1.1
	s-2.5-1.9-3.3-3.3c-0.7-1.4-1.1-3-1.1-4.8s0.4-3.4,1.1-4.9c0.7-1.5,1.8-2.7,3.2-3.4c1.4-0.7,3-1.1,4.8-1.1c1.3,0,2.5,0.2,3.5,0.6
	c1.1,0.4,1.9,1,2.5,1.8c0.6,0.8,1.1,1.7,1.4,3l-2.1,0.6c-0.3-0.9-0.6-1.6-1-2.2c-0.4-0.5-1-1-1.7-1.3s-1.6-0.5-2.5-0.5
	c-1.1,0-2,0.2-2.8,0.5c-0.8,0.3-1.4,0.8-1.9,1.3c-0.5,0.5-0.9,1.1-1.1,1.8c-0.5,1.1-0.7,2.3-0.7,3.6c0,1.6,0.3,2.9,0.8,4
	c0.6,1.1,1.4,1.9,2.4,2.4s2.2,0.8,3.4,0.8c1,0,2-0.2,3-0.6c1-0.4,1.7-0.8,2.2-1.3v-3.4L374.6,228.9L374.6,228.9z"/>
<path class="st2" d="M379.5,249.9l2.4,0.6c-0.5,2-1.4,3.5-2.7,4.5c-1.3,1-2.9,1.5-4.8,1.5c-1.9,0-3.5-0.4-4.7-1.2
	c-1.2-0.8-2.1-1.9-2.8-3.4c-0.6-1.5-1-3.1-1-4.8c0-1.9,0.4-3.5,1.1-4.9c0.7-1.4,1.7-2.5,3.1-3.2s2.8-1.1,4.4-1.1
	c1.8,0,3.3,0.5,4.6,1.4c1.2,0.9,2.1,2.2,2.6,3.9l-2.4,0.6c-0.4-1.3-1-2.3-1.8-2.9c-0.8-0.6-1.8-0.9-3-0.9c-1.4,0-2.5,0.3-3.5,1
	c-0.9,0.7-1.6,1.6-2,2.7s-0.6,2.3-0.6,3.5c0,1.5,0.2,2.9,0.7,4c0.4,1.1,1.1,2,2.1,2.6c0.9,0.6,2,0.8,3.1,0.8c1.3,0,2.5-0.4,3.4-1.2
	C378.5,252.6,379.1,251.5,379.5,249.9L379.5,249.9L379.5,249.9z"/>
<path class="st2" d="M379.5,268.7l2.4,0.6c-0.5,2-1.4,3.5-2.7,4.5c-1.3,1-2.9,1.5-4.8,1.5c-1.9,0-3.5-0.4-4.7-1.2
	c-1.2-0.8-2.1-1.9-2.8-3.4c-0.6-1.5-1-3.1-1-4.8c0-1.9,0.4-3.5,1.1-4.9c0.7-1.4,1.7-2.5,3.1-3.2c1.3-0.7,2.8-1.1,4.4-1.1
	c1.8,0,3.3,0.5,4.6,1.4c1.2,0.9,2.1,2.2,2.6,3.9l-2.4,0.6c-0.4-1.3-1-2.3-1.8-2.9s-1.8-0.9-3-0.9c-1.4,0-2.5,0.3-3.5,1
	c-0.9,0.7-1.6,1.6-2,2.7s-0.6,2.3-0.6,3.5c0,1.5,0.2,2.9,0.7,4c0.4,1.1,1.1,2,2.1,2.6c0.9,0.6,2,0.8,3.1,0.8c1.3,0,2.5-0.4,3.4-1.2
	C378.5,271.4,379.1,270.2,379.5,268.7L379.5,268.7L379.5,268.7z"/>
<path class="st0" d="M347.4,277.3l6.9-18h2.6l7.4,18h-2.7l-2.1-5.5h-7.5l-2,5.5H347.4L347.4,277.3z M352.6,269.9h6.1l-1.9-5
	c-0.6-1.5-1-2.8-1.3-3.7c-0.2,1.2-0.6,2.3-1,3.4L352.6,269.9L352.6,269.9L352.6,269.9z"/>
<path class="st0" d="M337,282v-2.1h7.6v6.7c-1.2,0.9-2.4,1.6-3.6,2.1c-1.3,0.5-2.5,0.7-3.8,0.7c-1.8,0-3.4-0.4-4.8-1.1
	c-1.5-0.8-2.5-1.9-3.3-3.3c-0.7-1.4-1.1-3-1.1-4.8c0-1.8,0.4-3.4,1.1-4.9c0.7-1.5,1.8-2.7,3.2-3.4c1.4-0.7,3-1.1,4.8-1.1
	c1.3,0,2.5,0.2,3.5,0.6c1.1,0.4,1.9,1,2.5,1.8c0.6,0.8,1.1,1.7,1.4,3l-2.1,0.6c-0.3-0.9-0.6-1.6-1-2.2c-0.4-0.5-1-1-1.7-1.3
	c-0.7-0.3-1.6-0.5-2.5-0.5c-1.1,0-2,0.2-2.8,0.5c-0.8,0.3-1.4,0.8-1.9,1.3c-0.5,0.5-0.9,1.1-1.1,1.8c-0.5,1.1-0.7,2.3-0.7,3.6
	c0,1.6,0.3,2.9,0.8,4c0.6,1.1,1.4,1.9,2.4,2.4c1.1,0.5,2.2,0.8,3.4,0.8c1,0,2-0.2,3-0.6c1-0.4,1.7-0.8,2.2-1.3V282L337,282L337,282z
	"/>
<path class="st2" d="M417.1,207.3l2.4,0.6c-0.5,2-1.4,3.5-2.7,4.5c-1.3,1-2.9,1.5-4.8,1.5s-3.5-0.4-4.7-1.2
	c-1.2-0.8-2.1-1.9-2.8-3.4c-0.6-1.5-1-3.1-1-4.8c0-1.9,0.4-3.5,1.1-4.9c0.7-1.4,1.7-2.5,3.1-3.2c1.3-0.7,2.8-1.1,4.4-1.1
	c1.8,0,3.3,0.5,4.6,1.4c1.2,0.9,2.1,2.2,2.6,3.9l-2.4,0.6c-0.4-1.3-1-2.3-1.8-2.9c-0.8-0.6-1.8-0.9-3-0.9c-1.4,0-2.5,0.3-3.5,1
	c-0.9,0.7-1.6,1.6-2,2.7c-0.4,1.1-0.6,2.3-0.6,3.5c0,1.5,0.2,2.9,0.7,4c0.4,1.1,1.1,2,2.1,2.6c0.9,0.6,2,0.8,3.1,0.8
	c1.3,0,2.5-0.4,3.4-1.2C416.1,210,416.7,208.8,417.1,207.3L417.1,207.3L417.1,207.3z"/>
<path class="st2" d="M412.2,183.4v-2.1h7.6v6.7c-1.2,0.9-2.4,1.6-3.6,2.1c-1.3,0.5-2.5,0.7-3.8,0.7c-1.8,0-3.4-0.4-4.8-1.1
	c-1.5-0.8-2.5-1.9-3.3-3.3c-0.7-1.4-1.1-3-1.1-4.8c0-1.8,0.4-3.4,1.1-4.9c0.7-1.5,1.8-2.7,3.2-3.4c1.4-0.7,3-1.1,4.8-1.1
	c1.3,0,2.5,0.2,3.5,0.6c1.1,0.4,1.9,1,2.5,1.8c0.6,0.8,1.1,1.7,1.4,3l-2.1,0.6c-0.3-0.9-0.6-1.6-1-2.2c-0.4-0.5-1-1-1.7-1.3
	c-0.7-0.3-1.6-0.5-2.5-0.5c-1.1,0-2,0.2-2.8,0.5s-1.4,0.8-1.9,1.3s-0.9,1.1-1.1,1.8c-0.5,1.1-0.7,2.3-0.7,3.6c0,1.6,0.3,2.9,0.8,4
	c0.6,1.1,1.4,1.9,2.4,2.4s2.2,0.8,3.4,0.8c1,0,2-0.2,3-0.6c1-0.4,1.7-0.8,2.2-1.3v-3.4L412.2,183.4L412.2,183.4z"/>
<path class="st2" d="M423.5,190l6.9-18h2.6l7.4,18h-2.7l-2.1-5.5h-7.5l-2,5.5L423.5,190L423.5,190z M428.7,182.6h6.1l-1.9-5
	c-0.6-1.5-1-2.8-1.3-3.7c-0.2,1.2-0.6,2.3-1,3.4L428.7,182.6L428.7,182.6L428.7,182.6z"/>
<path class="st4" d="M352.3,175.1V173h7.6v6.7c-1.2,0.9-2.4,1.6-3.6,2.1c-1.3,0.5-2.5,0.7-3.8,0.7c-1.8,0-3.4-0.4-4.8-1.1
	c-1.5-0.8-2.5-1.9-3.3-3.3c-0.7-1.4-1.1-3-1.1-4.8c0-1.8,0.4-3.4,1.1-4.9c0.7-1.5,1.8-2.7,3.2-3.4c1.4-0.7,3-1.1,4.8-1.1
	c1.3,0,2.5,0.2,3.5,0.6c1.1,0.4,1.9,1,2.5,1.8c0.6,0.8,1.1,1.7,1.4,3l-2.1,0.6c-0.3-0.9-0.6-1.6-1-2.2c-0.4-0.5-1-1-1.7-1.3
	c-0.7-0.3-1.6-0.5-2.5-0.5c-1.1,0-2,0.2-2.8,0.5c-0.8,0.3-1.4,0.8-1.9,1.3c-0.5,0.5-0.9,1.1-1.1,1.8c-0.5,1.1-0.7,2.3-0.7,3.6
	c0,1.6,0.3,2.9,0.8,4c0.6,1.1,1.4,1.9,2.4,2.4s2.2,0.8,3.4,0.8c1,0,2-0.2,3-0.6c1-0.4,1.7-0.8,2.2-1.3v-3.4L352.3,175.1L352.3,175.1
	z"/>
<path class="st2" d="M379.5,184.2l2.4,0.6c-0.5,2-1.4,3.5-2.7,4.5c-1.3,1-2.9,1.5-4.8,1.5c-1.9,0-3.5-0.4-4.7-1.2
	c-1.2-0.8-2.1-1.9-2.8-3.4c-0.6-1.5-1-3.1-1-4.8c0-1.9,0.4-3.5,1.1-4.9c0.7-1.4,1.7-2.5,3.1-3.2c1.3-0.7,2.8-1.1,4.4-1.1
	c1.8,0,3.3,0.5,4.6,1.4c1.2,0.9,2.1,2.2,2.6,3.9l-2.4,0.6c-0.4-1.3-1-2.3-1.8-2.9c-0.8-0.6-1.8-0.9-3-0.9c-1.4,0-2.5,0.3-3.5,1
	c-0.9,0.7-1.6,1.6-2,2.7c-0.4,1.1-0.6,2.3-0.6,3.5c0,1.5,0.2,2.9,0.7,4c0.4,1.1,1.1,2,2.1,2.6c0.9,0.6,2,0.8,3.1,0.8
	c1.3,0,2.5-0.4,3.4-1.2C378.5,186.9,379.1,185.7,379.5,184.2L379.5,184.2L379.5,184.2z"/>
<path class="st2" d="M374.6,207.5v-2.1h7.6v6.7c-1.2,0.9-2.4,1.6-3.6,2.1c-1.3,0.5-2.5,0.7-3.8,0.7c-1.8,0-3.4-0.4-4.8-1.1
	s-2.5-1.9-3.3-3.3c-0.7-1.4-1.1-3-1.1-4.8c0-1.8,0.4-3.4,1.1-4.9c0.7-1.5,1.8-2.7,3.2-3.4c1.4-0.7,3-1.1,4.8-1.1
	c1.3,0,2.5,0.2,3.5,0.6c1.1,0.4,1.9,1,2.5,1.8c0.6,0.8,1.1,1.7,1.4,3l-2.1,0.6c-0.3-0.9-0.6-1.6-1-2.2c-0.4-0.5-1-1-1.7-1.3
	c-0.7-0.3-1.6-0.5-2.5-0.5c-1.1,0-2,0.2-2.8,0.5c-0.8,0.3-1.4,0.8-1.9,1.3c-0.5,0.5-0.9,1.1-1.1,1.8c-0.5,1.1-0.7,2.3-0.7,3.6
	c0,1.6,0.3,2.9,0.8,4c0.6,1.1,1.4,1.9,2.4,2.4s2.2,0.8,3.4,0.8c1,0,2-0.2,3-0.6c1-0.4,1.7-0.8,2.2-1.3v-3.4L374.6,207.5L374.6,207.5
	z"/>
<path class="st5" d="M511,179.5l2.4,0.6c-0.5,2-1.4,3.5-2.7,4.5c-1.3,1-2.9,1.5-4.8,1.5s-3.5-0.4-4.7-1.2c-1.2-0.8-2.1-1.9-2.8-3.4
	c-0.6-1.5-1-3.1-1-4.8c0-1.9,0.4-3.5,1.1-4.9c0.7-1.4,1.7-2.5,3.1-3.2c1.3-0.7,2.8-1.1,4.4-1.1c1.8,0,3.3,0.5,4.6,1.4
	c1.2,0.9,2.1,2.2,2.6,3.9l-2.4,0.6c-0.4-1.3-1-2.3-1.8-2.9c-0.8-0.6-1.8-0.9-3-0.9c-1.4,0-2.5,0.3-3.5,1c-0.9,0.7-1.6,1.6-2,2.7
	c-0.4,1.1-0.6,2.3-0.6,3.5c0,1.5,0.2,2.9,0.7,4c0.4,1.1,1.1,2,2.1,2.6c0.9,0.6,2,0.8,3.1,0.8c1.3,0,2.5-0.4,3.4-1.2
	C510,182.2,510.6,181,511,179.5L511,179.5L511,179.5z"/>
<path class="st5" d="M524.9,178.7v-2.1h7.6v6.7c-1.2,0.9-2.4,1.6-3.6,2.1s-2.5,0.7-3.8,0.7c-1.8,0-3.4-0.4-4.8-1.1
	c-1.5-0.8-2.5-1.9-3.3-3.3c-0.7-1.4-1.1-3-1.1-4.8s0.4-3.4,1.1-4.9c0.7-1.5,1.8-2.7,3.2-3.4c1.4-0.7,3-1.1,4.8-1.1
	c1.3,0,2.5,0.2,3.5,0.6c1.1,0.4,1.9,1,2.5,1.8c0.6,0.8,1.1,1.7,1.4,3l-2.1,0.6c-0.3-0.9-0.6-1.6-1-2.2c-0.4-0.5-1-1-1.7-1.3
	s-1.6-0.5-2.5-0.5c-1.1,0-2,0.2-2.8,0.5c-0.8,0.3-1.4,0.8-1.9,1.3c-0.5,0.5-0.9,1.1-1.1,1.8c-0.5,1.1-0.7,2.3-0.7,3.6
	c0,1.6,0.3,2.9,0.8,4c0.6,1.1,1.4,1.9,2.4,2.4c1.1,0.5,2.2,0.8,3.4,0.8c1,0,2-0.2,3-0.6c1-0.4,1.7-0.8,2.2-1.3v-3.4L524.9,178.7
	L524.9,178.7z"/>
<path class="st5" d="M527.1,203.8l6.9-18h2.6l7.4,18h-2.7l-2.1-5.5h-7.5l-2,5.5L527.1,203.8L527.1,203.8z M532.3,196.3h6.1l-1.9-5
	c-0.6-1.5-1-2.8-1.3-3.7c-0.2,1.2-0.6,2.3-1,3.4L532.3,196.3L532.3,196.3L532.3,196.3z"/>
<path class="st5" d="M533.8,132l6.9-18h2.6l7.4,18H548l-2.1-5.5h-7.5l-2,5.5L533.8,132L533.8,132z M539,124.6h6.1l-1.9-5
	c-0.6-1.5-1-2.8-1.3-3.7c-0.2,1.2-0.6,2.3-1,3.4L539,124.6L539,124.6L539,124.6z"/>
<path class="st5" d="M529.8,141.9l2.4,0.6c-0.5,2-1.4,3.5-2.7,4.5c-1.3,1-2.9,1.5-4.8,1.5s-3.5-0.4-4.7-1.2
	c-1.2-0.8-2.1-1.9-2.8-3.4c-0.6-1.5-1-3.1-1-4.8c0-1.9,0.4-3.5,1.1-4.9c0.7-1.4,1.7-2.5,3.1-3.2c1.3-0.7,2.8-1.1,4.4-1.1
	c1.8,0,3.3,0.5,4.6,1.4c1.2,0.9,2.1,2.2,2.6,3.9l-2.4,0.6c-0.4-1.3-1-2.3-1.8-2.9c-0.8-0.6-1.8-0.9-3-0.9c-1.4,0-2.5,0.3-3.5,1
	c-0.9,0.7-1.6,1.6-2,2.7c-0.4,1.1-0.6,2.3-0.6,3.5c0,1.5,0.2,2.9,0.7,4c0.4,1.1,1.1,2,2.1,2.6c0.9,0.6,2,0.8,3.1,0.8
	c1.3,0,2.5-0.4,3.4-1.2C528.8,144.6,529.4,143.5,529.8,141.9L529.8,141.9L529.8,141.9z"/>
<path class="st5" d="M506.1,141.2v-2.1h7.6v6.7c-1.2,0.9-2.4,1.6-3.6,2.1c-1.3,0.5-2.5,0.7-3.8,0.7c-1.8,0-3.4-0.4-4.8-1.1
	s-2.5-1.9-3.3-3.3c-0.7-1.4-1.1-3-1.1-4.8s0.4-3.4,1.1-4.9c0.7-1.5,1.8-2.7,3.2-3.4c1.4-0.7,3-1.1,4.8-1.1c1.3,0,2.5,0.2,3.5,0.6
	c1.1,0.4,1.9,1,2.5,1.8c0.6,0.8,1.1,1.7,1.4,3l-2.1,0.6c-0.3-0.9-0.6-1.6-1-2.2c-0.4-0.5-1-1-1.7-1.3c-0.7-0.3-1.6-0.5-2.5-0.5
	c-1.1,0-2,0.2-2.8,0.5c-0.8,0.3-1.4,0.8-1.9,1.3c-0.5,0.5-0.9,1.1-1.1,1.8c-0.5,1.1-0.7,2.3-0.7,3.6c0,1.6,0.3,2.9,0.8,4
	c0.6,1.1,1.4,1.9,2.4,2.4c1.1,0.5,2.2,0.8,3.4,0.8c1,0,2-0.2,3-0.6c1-0.4,1.7-0.8,2.2-1.3v-3.4L506.1,141.2L506.1,141.2z"/>
<path class="st4" d="M497.8,125.5l6.9-18h2.6l7.4,18h-2.7l-2.1-5.5h-7.5l-2,5.5H497.8L497.8,125.5z M503,118.1h6.1l-1.9-5
	c-0.6-1.5-1-2.8-1.3-3.7c-0.2,1.2-0.6,2.3-1,3.4L503,118.1L503,118.1L503,118.1z"/>
<path class="st4" d="M514.7,110.1l6.9-18h2.6l7.4,18h-2.7l-2.1-5.5h-7.5l-2,5.5H514.7L514.7,110.1z M519.9,102.7h6.1l-1.9-5
	c-0.6-1.5-1-2.8-1.3-3.7c-0.2,1.2-0.6,2.3-1,3.4L519.9,102.7L519.9,102.7L519.9,102.7z"/>
<path class="st4" d="M528.4,80.3l2.4,0.6c-0.5,2-1.4,3.5-2.7,4.5s-2.9,1.5-4.8,1.5s-3.5-0.4-4.7-1.2c-1.2-0.8-2.1-1.9-2.8-3.4
	c-0.6-1.5-1-3.1-1-4.8c0-1.9,0.4-3.5,1.1-4.9c0.7-1.4,1.7-2.5,3.1-3.2c1.3-0.7,2.8-1.1,4.4-1.1c1.8,0,3.3,0.5,4.6,1.4
	c1.2,0.9,2.1,2.2,2.6,3.9l-2.4,0.6c-0.4-1.3-1-2.3-1.8-2.9c-0.8-0.6-1.8-0.9-3-0.9c-1.4,0-2.5,0.3-3.5,1c-0.9,0.7-1.6,1.6-2,2.7
	c-0.4,1.1-0.6,2.3-0.6,3.5c0,1.5,0.2,2.9,0.7,4c0.4,1.1,1.1,2,2.1,2.6s2,0.8,3.1,0.8c1.3,0,2.5-0.4,3.4-1.2
	C527.4,83,528,81.8,528.4,80.3L528.4,80.3L528.4,80.3z"/>
<path class="st4" d="M510.7,64.9l6.9-18h2.6l7.4,18h-2.7l-2.1-5.5h-7.5l-2,5.5H510.7L510.7,64.9z M515.9,57.5h6.1l-1.9-5
	c-0.6-1.5-1-2.8-1.3-3.7c-0.2,1.2-0.6,2.3-1,3.4L515.9,57.5L515.9,57.5L515.9,57.5z"/>
<path class="st4" d="M504.6,50.8l2.4,0.6c-0.5,2-1.4,3.5-2.7,4.5c-1.3,1-2.9,1.5-4.8,1.5c-1.9,0-3.5-0.4-4.7-1.2
	c-1.2-0.8-2.1-1.9-2.8-3.4c-0.6-1.5-1-3.1-1-4.8c0-1.9,0.4-3.5,1.1-4.9c0.7-1.4,1.7-2.5,3.1-3.2s2.8-1.1,4.4-1.1
	c1.8,0,3.3,0.5,4.6,1.4c1.2,0.9,2.1,2.2,2.6,3.9l-2.4,0.6c-0.4-1.3-1-2.3-1.8-2.9s-1.8-0.9-3-0.9c-1.4,0-2.5,0.3-3.5,1
	c-0.9,0.7-1.6,1.6-2,2.7c-0.4,1.1-0.6,2.3-0.6,3.5c0,1.5,0.2,2.9,0.7,4c0.4,1.1,1.1,2,2.1,2.6s2,0.8,3.1,0.8c1.3,0,2.5-0.4,3.4-1.2
	C503.6,53.5,504.2,52.3,504.6,50.8L504.6,50.8L504.6,50.8z"/>
<path class="st4" d="M472.2,58.7l6.9-18h2.6l7.4,18h-2.7l-2.1-5.5h-7.5l-2,5.5H472.2L472.2,58.7z M477.4,51.3h6.1l-1.9-5
	c-0.6-1.5-1-2.8-1.3-3.7c-0.2,1.2-0.6,2.3-1,3.4L477.4,51.3L477.4,51.3L477.4,51.3z"/>
<path class="st5" d="M549,204.2l6.9-18h2.6l7.4,18h-2.7l-2.1-5.5h-7.5l-2,5.5L549,204.2L549,204.2z M554.2,196.8h6.1l-1.9-5
	c-0.6-1.5-1-2.8-1.3-3.7c-0.2,1.2-0.6,2.3-1,3.4L554.2,196.8L554.2,196.8L554.2,196.8z"/>
<path class="st5" d="M566.2,181.2V179h7.6v6.7c-1.2,0.9-2.4,1.6-3.6,2.1c-1.3,0.5-2.5,0.7-3.8,0.7c-1.8,0-3.4-0.4-4.8-1.1
	s-2.5-1.9-3.3-3.3c-0.7-1.4-1.1-3-1.1-4.8c0-1.8,0.4-3.4,1.1-4.9c0.7-1.5,1.8-2.7,3.2-3.4c1.4-0.7,3-1.1,4.8-1.1
	c1.3,0,2.5,0.2,3.5,0.6c1.1,0.4,1.9,1,2.5,1.8c0.6,0.8,1.1,1.7,1.4,3l-2.1,0.6c-0.3-0.9-0.6-1.6-1-2.2c-0.4-0.5-1-1-1.7-1.3
	c-0.7-0.3-1.6-0.5-2.5-0.5c-1.1,0-2,0.2-2.8,0.5s-1.4,0.8-1.9,1.3s-0.9,1.1-1.1,1.8c-0.5,1.1-0.7,2.3-0.7,3.6c0,1.6,0.3,2.9,0.8,4
	c0.6,1.1,1.4,1.9,2.4,2.4c1.1,0.5,2.2,0.8,3.4,0.8c1,0,2-0.2,3-0.6c1-0.4,1.7-0.8,2.2-1.3v-3.4L566.2,181.2L566.2,181.2z"/>
<path class="st5" d="M593.2,183.9l2.4,0.6c-0.5,2-1.4,3.5-2.7,4.5c-1.3,1-2.9,1.5-4.8,1.5s-3.5-0.4-4.7-1.2
	c-1.2-0.8-2.1-1.9-2.8-3.4c-0.6-1.5-1-3.1-1-4.8c0-1.9,0.4-3.5,1.1-4.9c0.7-1.4,1.7-2.5,3.1-3.2c1.3-0.7,2.8-1.1,4.4-1.1
	c1.8,0,3.3,0.5,4.6,1.4c1.2,0.9,2.1,2.2,2.6,3.9l-2.4,0.6c-0.4-1.3-1-2.3-1.8-2.9c-0.8-0.6-1.8-0.9-3-0.9c-1.4,0-2.5,0.3-3.5,1
	c-0.9,0.7-1.6,1.6-2,2.7c-0.4,1.1-0.6,2.3-0.6,3.5c0,1.5,0.2,2.9,0.7,4c0.5,1.1,1.1,2,2.1,2.6c0.9,0.6,2,0.8,3.1,0.8
	c1.3,0,2.5-0.4,3.4-1.2C592.2,186.6,592.8,185.4,593.2,183.9L593.2,183.9L593.2,183.9z"/>
<path class="st5" d="M597.4,197.1l6.9-18h2.6l7.4,18h-2.7l-2.1-5.5h-7.5l-2,5.5L597.4,197.1L597.4,197.1z M602.6,189.7h6.1l-1.9-5
	c-0.6-1.5-1-2.8-1.3-3.7c-0.2,1.2-0.6,2.3-1,3.4L602.6,189.7L602.6,189.7L602.6,189.7z"/>
<path class="st5" d="M620.9,198.8l6.9-18h2.6l7.4,18H635l-2.1-5.5h-7.5l-2,5.5L620.9,198.8L620.9,198.8z M626.1,191.3h6.1l-1.9-5
	c-0.6-1.5-1-2.8-1.3-3.7c-0.2,1.2-0.6,2.3-1,3.4L626.1,191.3L626.1,191.3L626.1,191.3z"/>
<path class="st5" d="M643.6,181.2v-2.1h7.6v6.7c-1.2,0.9-2.4,1.6-3.6,2.1c-1.3,0.5-2.5,0.7-3.8,0.7c-1.8,0-3.4-0.4-4.8-1.1
	c-1.5-0.8-2.5-1.9-3.3-3.3c-0.7-1.4-1.1-3-1.1-4.8s0.4-3.4,1.1-4.9c0.7-1.5,1.8-2.7,3.2-3.4c1.4-0.7,3-1.1,4.8-1.1
	c1.3,0,2.5,0.2,3.5,0.6c1.1,0.4,1.9,1,2.5,1.8c0.6,0.8,1.1,1.7,1.4,3l-2.1,0.6c-0.3-0.9-0.6-1.6-1-2.2c-0.4-0.5-1-1-1.7-1.3
	c-0.7-0.3-1.6-0.5-2.5-0.5c-1.1,0-2,0.2-2.8,0.5c-0.8,0.3-1.4,0.8-1.9,1.3c-0.5,0.5-0.9,1.1-1.1,1.8c-0.5,1.1-0.7,2.3-0.7,3.6
	c0,1.6,0.3,2.9,0.8,4c0.6,1.1,1.4,1.9,2.4,2.4c1.1,0.5,2.2,0.8,3.4,0.8c1,0,2-0.2,3-0.6c1-0.4,1.7-0.8,2.2-1.3v-3.4L643.6,181.2
	L643.6,181.2z"/>
<path class="st5" d="M650.1,154.6l2.4,0.6c-0.5,2-1.4,3.5-2.7,4.5c-1.3,1-2.9,1.5-4.8,1.5c-1.9,0-3.5-0.4-4.7-1.2
	c-1.2-0.8-2.1-1.9-2.8-3.4c-0.6-1.5-1-3.1-1-4.8c0-1.9,0.4-3.5,1.1-4.9c0.7-1.4,1.7-2.5,3.1-3.2c1.3-0.7,2.8-1.1,4.4-1.1
	c1.8,0,3.3,0.5,4.6,1.4c1.2,0.9,2.1,2.2,2.6,3.9l-2.4,0.6c-0.4-1.3-1-2.3-1.8-2.9c-0.8-0.6-1.8-0.9-3-0.9c-1.4,0-2.5,0.3-3.5,1
	c-0.9,0.7-1.6,1.6-2,2.7s-0.6,2.3-0.6,3.5c0,1.5,0.2,2.9,0.7,4c0.5,1.1,1.1,2,2.1,2.6c0.9,0.6,2,0.8,3.1,0.8c1.3,0,2.5-0.4,3.4-1.2
	C649.1,157.3,649.7,156.1,650.1,154.6L650.1,154.6L650.1,154.6z"/>
<path class="st5" d="M618,140.8l6.9-18h2.6l7.4,18h-2.7l-2.1-5.5h-7.5l-2,5.5H618L618,140.8z M623.2,133.4h6.1l-1.9-5
	c-0.6-1.5-1-2.8-1.3-3.7c-0.2,1.2-0.6,2.3-1,3.4L623.2,133.4L623.2,133.4L623.2,133.4z"/>
<path class="st5" d="M607.5,137.9v-2.1h7.6v6.7c-1.2,0.9-2.4,1.6-3.6,2.1c-1.3,0.5-2.5,0.7-3.8,0.7c-1.8,0-3.4-0.4-4.8-1.1
	c-1.5-0.8-2.5-1.9-3.3-3.3c-0.7-1.4-1.1-3-1.1-4.8s0.4-3.4,1.1-4.9c0.7-1.5,1.8-2.7,3.2-3.4c1.4-0.7,3-1.1,4.8-1.1
	c1.3,0,2.5,0.2,3.5,0.6c1.1,0.4,1.9,1,2.5,1.8c0.6,0.8,1.1,1.7,1.4,3l-2.1,0.6c-0.3-0.9-0.6-1.6-1-2.2c-0.4-0.5-1-1-1.7-1.3
	c-0.7-0.3-1.6-0.5-2.5-0.5c-1.1,0-2,0.2-2.8,0.5c-0.8,0.3-1.4,0.8-1.9,1.3c-0.5,0.5-0.9,1.1-1.1,1.8c-0.5,1.1-0.7,2.3-0.7,3.6
	c0,1.6,0.3,2.9,0.8,4c0.6,1.1,1.4,1.9,2.4,2.4c1.1,0.5,2.2,0.8,3.4,0.8c1,0,2-0.2,3-0.6c1-0.4,1.7-0.8,2.2-1.3v-3.4L607.5,137.9
	L607.5,137.9z"/>
<path class="st5" d="M586.1,147.6v-2.1h7.6v6.7c-1.2,0.9-2.4,1.6-3.6,2.1c-1.3,0.5-2.5,0.7-3.8,0.7c-1.8,0-3.4-0.4-4.8-1.1
	c-1.5-0.8-2.5-1.9-3.3-3.3c-0.7-1.4-1.1-3-1.1-4.8s0.4-3.4,1.1-4.9c0.7-1.5,1.8-2.7,3.2-3.4c1.4-0.7,3-1.1,4.8-1.1
	c1.3,0,2.5,0.2,3.5,0.6c1.1,0.4,1.9,1,2.5,1.8c0.6,0.8,1.1,1.7,1.4,3l-2.1,0.6c-0.3-0.9-0.6-1.6-1-2.2c-0.4-0.5-1-1-1.7-1.3
	c-0.7-0.3-1.6-0.5-2.5-0.5c-1.1,0-2,0.2-2.8,0.5c-0.8,0.3-1.4,0.8-1.9,1.3c-0.5,0.5-0.9,1.1-1.1,1.8c-0.5,1.1-0.7,2.3-0.7,3.6
	c0,1.6,0.3,2.9,0.8,4c0.6,1.1,1.4,1.9,2.4,2.4c1.1,0.5,2.2,0.8,3.4,0.8c1,0,2-0.2,3-0.6c1-0.4,1.7-0.8,2.2-1.3v-3.4L586.1,147.6
	L586.1,147.6z"/>
<path class="st5" d="M572,148.6l2.4,0.6c-0.5,2-1.4,3.5-2.7,4.5c-1.3,1-2.9,1.5-4.8,1.5s-3.5-0.4-4.7-1.2c-1.2-0.8-2.1-1.9-2.8-3.4
	c-0.6-1.5-1-3.1-1-4.8c0-1.9,0.4-3.5,1.1-4.9c0.7-1.4,1.7-2.5,3.1-3.2c1.3-0.7,2.8-1.1,4.4-1.1c1.8,0,3.3,0.5,4.6,1.4
	c1.2,0.9,2.1,2.2,2.6,3.9l-2.4,0.6c-0.4-1.3-1-2.3-1.8-2.9c-0.8-0.6-1.8-0.9-3-0.9c-1.4,0-2.5,0.3-3.5,1c-0.9,0.7-1.6,1.6-2,2.7
	c-0.4,1.1-0.6,2.3-0.6,3.5c0,1.5,0.2,2.9,0.7,4c0.5,1.1,1.1,2,2.1,2.6c0.9,0.6,2,0.8,3.1,0.8c1.3,0,2.5-0.4,3.4-1.2
	C571,151.2,571.6,150.1,572,148.6L572,148.6L572,148.6z"/>
<path class="st5" d="M552.5,131.8l6.9-18h2.6l7.4,18h-2.7l-2.1-5.5H557l-2,5.5L552.5,131.8L552.5,131.8z M557.7,124.4h6.1l-1.9-5
	c-0.6-1.5-1-2.8-1.3-3.7c-0.2,1.2-0.6,2.3-1,3.4L557.7,124.4L557.7,124.4L557.7,124.4z"/>
<path class="st4" d="M466.6,72.1V70h7.6v6.7c-1.2,0.9-2.4,1.6-3.6,2.1s-2.5,0.7-3.8,0.7c-1.8,0-3.4-0.4-4.8-1.1s-2.5-1.9-3.3-3.3
	c-0.7-1.4-1.1-3-1.1-4.8c0-1.8,0.4-3.4,1.1-4.9c0.7-1.5,1.8-2.7,3.2-3.4c1.4-0.7,3-1.1,4.8-1.1c1.3,0,2.5,0.2,3.5,0.6
	c1.1,0.4,1.9,1,2.5,1.8c0.6,0.8,1.1,1.7,1.4,3l-2.1,0.6c-0.3-0.9-0.6-1.6-1-2.2c-0.4-0.5-1-1-1.7-1.3c-0.7-0.3-1.6-0.5-2.5-0.5
	c-1.1,0-2,0.2-2.8,0.5c-0.8,0.3-1.4,0.8-1.9,1.3c-0.5,0.5-0.9,1.1-1.1,1.8c-0.5,1.1-0.7,2.3-0.7,3.6c0,1.6,0.3,2.9,0.8,4
	c0.6,1.1,1.4,1.9,2.4,2.4s2.2,0.8,3.4,0.8c1,0,2-0.2,3-0.6c1-0.4,1.7-0.8,2.2-1.3v-3.4L466.6,72.1L466.6,72.1z"/>
<path class="st4" d="M452.8,102l6.9-18h2.6l7.4,18H467l-2.1-5.5h-7.5l-2,5.5H452.8L452.8,102z M458,94.6h6.1l-1.9-5
	c-0.6-1.5-1-2.8-1.3-3.7c-0.2,1.2-0.6,2.3-1,3.4L458,94.6L458,94.6L458,94.6z"/>
<path class="st4" d="M453.3,124.4l6.9-18h2.6l7.4,18h-2.7l-2.1-5.5h-7.5l-2,5.5H453.3L453.3,124.4z M458.5,117h6.1l-1.9-5
	c-0.6-1.5-1-2.8-1.3-3.7c-0.2,1.2-0.6,2.3-1,3.4L458.5,117L458.5,117L458.5,117z"/>
<path class="st4" d="M455.4,141v-2.1h7.6v6.7c-1.2,0.9-2.4,1.6-3.6,2.1s-2.5,0.7-3.8,0.7c-1.8,0-3.4-0.4-4.8-1.1s-2.5-1.9-3.3-3.3
	c-0.7-1.4-1.1-3-1.1-4.8s0.4-3.4,1.1-4.9c0.7-1.5,1.8-2.7,3.2-3.4c1.4-0.7,3-1.1,4.8-1.1c1.3,0,2.5,0.2,3.5,0.6
	c1.1,0.4,1.9,1,2.5,1.8c0.6,0.8,1.1,1.7,1.4,3l-2.1,0.6c-0.3-0.9-0.6-1.6-1-2.2c-0.4-0.5-1-1-1.7-1.3s-1.6-0.5-2.5-0.5
	c-1.1,0-2,0.2-2.8,0.5c-0.8,0.3-1.4,0.8-1.9,1.3c-0.5,0.5-0.9,1.1-1.1,1.8c-0.5,1.1-0.7,2.3-0.7,3.6c0,1.6,0.3,2.9,0.8,4
	c0.6,1.1,1.4,1.9,2.4,2.4s2.2,0.8,3.4,0.8c1,0,2-0.2,3-0.6c1-0.4,1.7-0.8,2.2-1.3V141L455.4,141L455.4,141z"/>
<path class="st4" d="M432.2,164.4l6.9-18h2.6l7.4,18h-2.7l-2.1-5.5h-7.5l-2,5.5H432.2L432.2,164.4z M437.4,157h6.1l-1.9-5
	c-0.6-1.5-1-2.8-1.3-3.7c-0.2,1.2-0.6,2.3-1,3.4L437.4,157L437.4,157L437.4,157z"/>
<path class="st4" d="M430.2,167.1l2.4,0.6c-0.5,2-1.4,3.5-2.7,4.5c-1.3,1-2.9,1.5-4.8,1.5c-1.9,0-3.5-0.4-4.7-1.2
	c-1.2-0.8-2.1-1.9-2.8-3.4c-0.6-1.5-1-3.1-1-4.8c0-1.9,0.4-3.5,1.1-4.9c0.7-1.4,1.7-2.5,3.1-3.2s2.8-1.1,4.4-1.1
	c1.8,0,3.3,0.5,4.6,1.4c1.2,0.9,2.1,2.2,2.6,3.9l-2.4,0.6c-0.4-1.3-1-2.3-1.8-2.9c-0.8-0.6-1.8-0.9-3-0.9c-1.4,0-2.5,0.3-3.5,1
	c-0.9,0.7-1.6,1.6-2,2.7s-0.6,2.3-0.6,3.5c0,1.5,0.2,2.9,0.7,4c0.4,1.1,1.1,2,2.1,2.6c0.9,0.6,2,0.8,3.1,0.8c1.3,0,2.5-0.4,3.4-1.2
	C429.2,169.8,429.8,168.7,430.2,167.1L430.2,167.1L430.2,167.1z"/>
<path class="st4" d="M412.4,160.7l2.4,0.6c-0.5,2-1.4,3.5-2.7,4.5c-1.3,1-2.9,1.5-4.8,1.5s-3.5-0.4-4.7-1.2
	c-1.2-0.8-2.1-1.9-2.8-3.4c-0.6-1.5-1-3.1-1-4.8c0-1.9,0.4-3.5,1.1-4.9c0.7-1.4,1.7-2.5,3.1-3.2c1.3-0.7,2.8-1.1,4.4-1.1
	c1.8,0,3.3,0.5,4.6,1.4c1.2,0.9,2.1,2.2,2.6,3.9l-2.4,0.6c-0.4-1.3-1-2.3-1.8-2.9c-0.8-0.6-1.8-0.9-3-0.9c-1.4,0-2.5,0.3-3.5,1
	c-0.9,0.7-1.6,1.6-2,2.7c-0.4,1.1-0.6,2.3-0.6,3.5c0,1.5,0.2,2.9,0.7,4c0.4,1.1,1.1,2,2.1,2.6c0.9,0.6,2,0.8,3.1,0.8
	c1.3,0,2.5-0.4,3.4-1.2C411.4,163.4,412,162.2,412.4,160.7L412.4,160.7L412.4,160.7z"/>
<path class="st4" d="M407.5,139.7v-2.1h7.6v6.7c-1.2,0.9-2.4,1.6-3.6,2.1c-1.3,0.5-2.5,0.7-3.8,0.7c-1.8,0-3.4-0.4-4.8-1.1
	s-2.5-1.9-3.3-3.3c-0.7-1.4-1.1-3-1.1-4.8c0-1.8,0.4-3.4,1.1-4.9c0.7-1.5,1.8-2.7,3.2-3.4c1.4-0.7,3-1.1,4.8-1.1
	c1.3,0,2.5,0.2,3.5,0.6c1.1,0.4,1.9,1,2.5,1.8c0.6,0.8,1.1,1.7,1.4,3l-2.1,0.6c-0.3-0.9-0.6-1.6-1-2.2c-0.4-0.5-1-1-1.7-1.3
	c-0.7-0.3-1.6-0.5-2.5-0.5c-1.1,0-2,0.2-2.8,0.5c-0.8,0.3-1.4,0.8-1.9,1.3c-0.5,0.5-0.9,1.1-1.1,1.8c-0.5,1.1-0.7,2.3-0.7,3.6
	c0,1.6,0.3,2.9,0.8,4c0.6,1.1,1.4,1.9,2.4,2.4s2.2,0.8,3.4,0.8c1,0,2-0.2,3-0.6c1-0.4,1.7-0.8,2.2-1.3v-3.4L407.5,139.7L407.5,139.7
	z"/>
<path class="st4" d="M426.3,127.1V125h7.6v6.7c-1.2,0.9-2.4,1.6-3.6,2.1c-1.3,0.5-2.5,0.7-3.8,0.7c-1.8,0-3.4-0.4-4.8-1.1
	c-1.5-0.8-2.5-1.9-3.3-3.3c-0.7-1.4-1.1-3-1.1-4.8c0-1.8,0.4-3.4,1.1-4.9c0.7-1.5,1.8-2.7,3.2-3.4c1.4-0.7,3-1.1,4.8-1.1
	c1.3,0,2.5,0.2,3.5,0.6c1.1,0.4,1.9,1,2.5,1.8c0.6,0.8,1.1,1.7,1.4,3l-2.1,0.6c-0.3-0.9-0.6-1.6-1-2.2c-0.4-0.5-1-1-1.7-1.3
	c-0.7-0.3-1.6-0.5-2.5-0.5c-1.1,0-2,0.2-2.8,0.5s-1.4,0.8-1.9,1.3c-0.5,0.5-0.9,1.1-1.1,1.8c-0.5,1.1-0.7,2.3-0.7,3.6
	c0,1.6,0.3,2.9,0.8,4c0.6,1.1,1.4,1.9,2.4,2.4s2.2,0.8,3.4,0.8c1,0,2-0.2,3-0.6c1-0.4,1.7-0.8,2.2-1.3v-3.4L426.3,127.1L426.3,127.1
	z"/>
<path class="st4" d="M349.7,131.4v-2.1h7.6v6.7c-1.2,0.9-2.4,1.6-3.6,2.1c-1.3,0.5-2.5,0.7-3.8,0.7c-1.8,0-3.4-0.4-4.8-1.1
	s-2.5-1.9-3.3-3.3c-0.7-1.4-1.1-3-1.1-4.8c0-1.8,0.4-3.4,1.1-4.9c0.7-1.5,1.8-2.7,3.2-3.4c1.4-0.7,3-1.1,4.8-1.1
	c1.3,0,2.5,0.2,3.5,0.6c1.1,0.4,1.9,1,2.5,1.8c0.6,0.8,1.1,1.7,1.4,3l-2.1,0.6c-0.3-0.9-0.6-1.6-1-2.2c-0.4-0.5-1-1-1.7-1.3
	s-1.6-0.5-2.5-0.5c-1.1,0-2,0.2-2.8,0.5c-0.8,0.3-1.4,0.8-1.9,1.3c-0.5,0.5-0.9,1.1-1.1,1.8c-0.5,1.1-0.7,2.3-0.7,3.6
	c0,1.6,0.3,2.9,0.8,4c0.6,1.1,1.4,1.9,2.4,2.4s2.2,0.8,3.4,0.8c1,0,2-0.2,3-0.6c1-0.4,1.7-0.8,2.2-1.3v-3.4L349.7,131.4L349.7,131.4
	z"/>
<path class="st4" d="M347,155.9l2.4,0.6c-0.5,2-1.4,3.5-2.7,4.5c-1.3,1-2.9,1.5-4.8,1.5s-3.5-0.4-4.7-1.2c-1.2-0.8-2.1-1.9-2.8-3.4
	c-0.6-1.5-1-3.1-1-4.8c0-1.9,0.4-3.5,1.1-4.9c0.7-1.4,1.7-2.5,3.1-3.2c1.3-0.7,2.8-1.1,4.4-1.1c1.8,0,3.3,0.5,4.6,1.4
	c1.2,0.9,2.1,2.2,2.6,3.9l-2.4,0.6c-0.4-1.3-1-2.3-1.8-2.9c-0.8-0.6-1.8-0.9-3-0.9c-1.4,0-2.5,0.3-3.5,1c-0.9,0.7-1.6,1.6-2,2.7
	c-0.4,1.1-0.6,2.3-0.6,3.5c0,1.5,0.2,2.9,0.7,4c0.4,1.1,1.1,2,2.1,2.6c0.9,0.6,2,0.8,3.1,0.8c1.3,0,2.5-0.4,3.4-1.2
	C346,158.6,346.6,157.5,347,155.9L347,155.9L347,155.9z"/>
<path class="st4" d="M407.5,117.7v-2.1h7.6v6.7c-1.2,0.9-2.4,1.6-3.6,2.1c-1.3,0.5-2.5,0.7-3.8,0.7c-1.8,0-3.4-0.4-4.8-1.1
	c-1.5-0.8-2.5-1.9-3.3-3.3c-0.7-1.4-1.1-3-1.1-4.8c0-1.8,0.4-3.4,1.1-4.9c0.7-1.5,1.8-2.7,3.2-3.4c1.4-0.7,3-1.1,4.8-1.1
	c1.3,0,2.5,0.2,3.5,0.6c1.1,0.4,1.9,1,2.5,1.8c0.6,0.8,1.1,1.7,1.4,3l-2.1,0.6c-0.3-0.9-0.6-1.6-1-2.2c-0.4-0.5-1-1-1.7-1.3
	c-0.7-0.3-1.6-0.5-2.5-0.5c-1.1,0-2,0.2-2.8,0.5c-0.8,0.3-1.4,0.8-1.9,1.3c-0.5,0.5-0.9,1.1-1.1,1.8c-0.5,1.1-0.7,2.3-0.7,3.6
	c0,1.6,0.3,2.9,0.8,4c0.6,1.1,1.4,1.9,2.4,2.4c1.1,0.5,2.2,0.8,3.4,0.8c1,0,2-0.2,3-0.6c1-0.4,1.7-0.8,2.2-1.3v-3.4L407.5,117.7
	L407.5,117.7z"/>
<path class="st4" d="M407.1,99.3l0-2.1l7.6,0.1l-0.1,6.7c-1.2,0.9-2.4,1.6-3.7,2.1c-1.3,0.4-2.5,0.7-3.9,0.7c-1.8,0-3.4-0.4-4.8-1.2
	c-1.4-0.8-2.5-1.9-3.2-3.3c-0.7-1.5-1.1-3-1-4.8c0-1.8,0.4-3.4,1.2-4.9c0.8-1.5,1.8-2.6,3.2-3.4s3-1.1,4.8-1c1.3,0,2.5,0.2,3.5,0.7
	c1,0.4,1.9,1,2.5,1.8c0.6,0.8,1,1.8,1.3,3l-2.2,0.6c-0.3-0.9-0.6-1.7-1-2.2c-0.4-0.5-1-1-1.7-1.3c-0.7-0.3-1.6-0.5-2.5-0.5
	c-1.1,0-2,0.1-2.8,0.5c-0.8,0.3-1.5,0.8-1.9,1.3c-0.5,0.5-0.9,1.1-1.2,1.8c-0.5,1.1-0.7,2.3-0.7,3.6c0,1.6,0.2,3,0.8,4
	c0.5,1.1,1.3,1.9,2.4,2.4c1.1,0.5,2.2,0.8,3.4,0.8c1,0,2-0.2,3-0.6c1-0.4,1.7-0.8,2.3-1.2l0-3.4L407.1,99.3L407.1,99.3L407.1,99.3z"
	/>
<path class="st4" d="M424.3,85.3l0-2.1l7.6,0.1l-0.1,6.7c-1.2,0.9-2.4,1.6-3.7,2.1c-1.3,0.4-2.5,0.7-3.9,0.7c-1.8,0-3.4-0.4-4.8-1.2
	c-1.4-0.8-2.5-1.9-3.2-3.3c-0.7-1.5-1.1-3-1-4.8c0-1.8,0.4-3.4,1.2-4.9c0.8-1.5,1.8-2.6,3.2-3.4c1.4-0.7,3-1.1,4.8-1
	c1.3,0,2.5,0.2,3.5,0.7c1,0.4,1.9,1,2.5,1.8c0.6,0.8,1,1.8,1.3,3l-2.2,0.6c-0.3-0.9-0.6-1.7-1-2.2s-1-1-1.7-1.3
	c-0.7-0.3-1.6-0.5-2.5-0.5c-1.1,0-2,0.1-2.8,0.5c-0.8,0.3-1.5,0.8-1.9,1.3c-0.5,0.5-0.9,1.1-1.2,1.8c-0.5,1.1-0.7,2.3-0.7,3.6
	c0,1.6,0.2,3,0.8,4c0.5,1.1,1.3,1.9,2.4,2.4c1.1,0.5,2.2,0.8,3.4,0.8c1,0,2-0.2,3-0.6s1.7-0.8,2.3-1.2l0-3.4L424.3,85.3L424.3,85.3
	L424.3,85.3z"/>
<path class="st4" d="M405.7,71.5l7.2-18l2.6,0l7.2,18.1l-2.7,0l-2-5.5l-7.5-0.1l-2,5.4L405.7,71.5L405.7,71.5L405.7,71.5z M411,64.1
	l6.1,0.1l-1.8-5c-0.6-1.5-1-2.8-1.2-3.7c-0.2,1.2-0.6,2.3-1,3.4L411,64.1L411,64.1z"/>
<path class="st4" d="M389.1,49.8l7.2-18l2.6,0L406,50l-2.7,0l-2-5.5l-7.5-0.1l-2,5.4L389.1,49.8L389.1,49.8L389.1,49.8z M394.4,42.4
	l6.1,0.1l-1.8-5c-0.6-1.5-1-2.8-1.2-3.7c-0.2,1.2-0.6,2.3-1,3.4L394.4,42.4C394.4,42.4,394.4,42.4,394.4,42.4z"/>
<path class="st4" d="M381.3,44.3l2.4,0.6c-0.5,2-1.4,3.4-2.8,4.5c-1.3,1-2.9,1.5-4.8,1.5c-1.9,0-3.5-0.4-4.7-1.2
	c-1.2-0.8-2.1-2-2.7-3.5c-0.6-1.5-0.9-3.1-0.9-4.8c0-1.9,0.4-3.5,1.1-4.9c0.7-1.4,1.8-2.4,3.1-3.1c1.3-0.7,2.8-1.1,4.4-1
	c1.8,0,3.3,0.5,4.5,1.4c1.2,0.9,2.1,2.2,2.5,3.9l-2.4,0.5c-0.4-1.3-1-2.3-1.8-2.9c-0.8-0.6-1.8-0.9-3-0.9c-1.4,0-2.6,0.3-3.5,1
	c-0.9,0.7-1.6,1.5-2,2.7c-0.4,1.1-0.6,2.3-0.6,3.5c0,1.5,0.2,2.9,0.6,4s1.1,2,2.1,2.6c0.9,0.6,2,0.9,3,0.9c1.3,0,2.5-0.4,3.4-1.1
	C380.3,46.9,380.9,45.8,381.3,44.3L381.3,44.3L381.3,44.3z"/>
<path class="st4" d="M364.4,52.6l2.4,0l-0.1,10.4c0,1.8-0.2,3.3-0.7,4.3c-0.4,1.1-1.2,1.9-2.3,2.6c-1.1,0.7-2.5,1-4.2,1
	c-1.7,0-3.1-0.3-4.1-0.9s-1.8-1.5-2.3-2.6c-0.4-1.1-0.7-2.6-0.6-4.5l0.1-10.4l2.4,0l-0.1,10.4c0,1.6,0.1,2.7,0.4,3.5
	s0.8,1.3,1.5,1.7c0.7,0.4,1.6,0.6,2.6,0.6c1.8,0,3-0.4,3.8-1.1c0.8-0.8,1.1-2.3,1.2-4.6L364.4,52.6L364.4,52.6L364.4,52.6z"/>
<path class="st4" d="M343.3,90.8l7.2-18l2.6,0l7.2,18.1l-2.7,0l-2-5.5l-7.5-0.1l-2,5.4L343.3,90.8L343.3,90.8L343.3,90.8z
	 M348.6,83.4l6.1,0.1l-1.8-5c-0.6-1.5-1-2.8-1.2-3.7c-0.2,1.2-0.6,2.3-1,3.4L348.6,83.4L348.6,83.4z"/>
<path class="st4" d="M374.4,99.6l2.4,0.6c-0.5,2-1.4,3.4-2.8,4.5c-1.3,1-2.9,1.5-4.8,1.5c-1.9,0-3.5-0.4-4.7-1.2
	c-1.2-0.8-2.1-2-2.7-3.5s-0.9-3.1-0.9-4.8c0-1.9,0.4-3.5,1.1-4.9c0.7-1.4,1.8-2.4,3.1-3.1c1.3-0.7,2.8-1.1,4.4-1
	c1.8,0,3.3,0.5,4.5,1.4c1.2,0.9,2.1,2.2,2.5,3.9l-2.4,0.5c-0.4-1.3-1-2.3-1.8-2.9c-0.8-0.6-1.8-0.9-3-0.9c-1.4,0-2.6,0.3-3.5,1
	c-0.9,0.7-1.6,1.5-2,2.7c-0.4,1.1-0.6,2.3-0.6,3.5c0,1.5,0.2,2.9,0.6,4c0.4,1.1,1.1,2,2.1,2.6c0.9,0.6,2,0.9,3,0.9
	c1.3,0,2.5-0.4,3.4-1.1C373.5,102.3,374.1,101.1,374.4,99.6L374.4,99.6L374.4,99.6z"/>
<path class="st4" d="M374.8,118.5l2.4,0.6c-0.5,2-1.4,3.5-2.7,4.5c-1.3,1-2.9,1.5-4.8,1.5s-3.5-0.4-4.7-1.2
	c-1.2-0.8-2.1-1.9-2.8-3.4c-0.6-1.5-1-3.1-1-4.8c0-1.9,0.4-3.5,1.1-4.9c0.7-1.4,1.7-2.5,3.1-3.2c1.3-0.7,2.8-1.1,4.4-1.1
	c1.8,0,3.3,0.5,4.6,1.4c1.2,0.9,2.1,2.2,2.6,3.9l-2.4,0.6c-0.4-1.3-1-2.3-1.8-2.9c-0.8-0.6-1.8-0.9-3-0.9c-1.4,0-2.5,0.3-3.5,1
	c-0.9,0.7-1.6,1.6-2,2.7c-0.4,1.1-0.6,2.3-0.6,3.5c0,1.5,0.2,2.9,0.7,4c0.4,1.1,1.1,2,2.1,2.6c0.9,0.6,2,0.8,3.1,0.8
	c1.3,0,2.5-0.4,3.4-1.2C373.8,121.1,374.5,120,374.8,118.5L374.8,118.5L374.8,118.5z"/>
<g>
	<g>
		<polyline class="st3" points="482.2,179.3 448.2,179.3 491.3,179.3 		"/>
		<path d="M491.3,179.3c-4.3-1.6-9.5-4.3-12.8-7.1l2.6,7.1l-2.6,7.1C481.7,183.5,487,180.9,491.3,179.3z"/>
	</g>
	<path class="st3" d="M491.3,179.3h-43.1H491.3z"/>
	<path class="st3" d="M491.3,179.3h-43.1H491.3z"/>
</g>
<line class="st3" x1="400.5" y1="327.1" x2="383" y2="327.1"/>
<line class="st3" x1="400.5" y1="308.3" x2="383" y2="308.3"/>
<line class="st3" x1="400.5" y1="263.5" x2="383" y2="263.5"/>
<line class="st3" x1="401.2" y1="245.8" x2="383.7" y2="245.8"/>
<line class="st3" x1="402.4" y1="228.3" x2="384.9" y2="228.3"/>
<line class="st3" x1="402.4" y1="204.5" x2="384.9" y2="204.5"/>
<line class="st3" x1="401.7" y1="181.6" x2="381.9" y2="181.6"/>
<line class="st3" x1="396.5" y1="96.9" x2="376.8" y2="96.9"/>
<line class="st3" x1="397" y1="114.4" x2="377.2" y2="114.4"/>
<line class="st3" x1="506.5" y1="165.2" x2="506.3" y2="151.7"/>
<line class="st3" x1="524.9" y1="166.6" x2="524.6" y2="153.1"/>
<line class="st3" x1="565.7" y1="169.3" x2="565.4" y2="155.8"/>
<line class="st3" x1="586.5" y1="170.2" x2="586.2" y2="156.7"/>
<g>
	<text transform="matrix(1 0 0 1 18.0596 37.7189)" class="st6 st7">rafl7-U61C aptamer</text>
</g>
<line class="st3" x1="667.5" y1="179.1" x2="655" y2="179.1"/>
<g>
	<text transform="matrix(1 0 0 1 668.8322 187.2872)" class="st6 st8">20</text>
</g>
<g>
	<text transform="matrix(1 0 0 1 406.7501 364.627)" class="st6 st8">5</text>
	<text transform="matrix(1 0 0 1 421.4308 364.627)" class="st6 st8 st9">’</text>
</g>
<g>
	<text transform="matrix(1 0 0 1 51.9025 357.2696)" class="st6 st8">3</text>
	<text transform="matrix(1 0 0 1 66.5831 357.2696)" class="st6 st8 st9">’</text>
</g>
</svg>
