<?xml version="1.0" encoding="utf-8"?>
<!-- Generator: Adobe Illustrator 25.2.0, SVG Export Plug-In . SVG Version: 6.00 Build 0)  -->
<svg version="1.1" id="图层_1" xmlns="http://www.w3.org/2000/svg" xmlns:xlink="http://www.w3.org/1999/xlink" x="0px" y="0px"
	 viewBox="0 0 800 400" style="enable-background:new 0 0 800 400;" xml:space="preserve">
<style type="text/css">
	.st0{fill:#FF870A;}
	.st1{font-family:'ArialMT';}
	.st2{font-size:16.1919px;}
	.st3{fill:none;stroke:#000000;stroke-width:0.2062;stroke-miterlimit:1.6495;}
	.st4{fill:#0A0BFF;}
	.st5{stroke:#000000;stroke-width:0.2062;stroke-miterlimit:1.6495;}
	.st6{fill:#33CC33;}
	.st7{fill:#FF3399;}
	.st8{font-size:20px;}
	.st9{font-size:16px;}
</style>
<g id="ID000002">
	<g transform="translate(79.087,324.090)">
		<g transform="rotate(-0.0)">
			<text transform="matrix(1 0 0 1 160.9521 -82.692)" class="st0 st1 st2">G</text>
		</g>
	</g>
</g>
<g id="ID000003">
	<g transform="translate(79.087,303.636)">
		<g transform="rotate(-0.0)">
			<text transform="matrix(1 0 0 1 160.9521 -78.7966)" class="st0 st1 st2">G</text>
		</g>
	</g>
</g>
<g id="ID000004">
	<g transform="translate(79.087,283.183)">
		<g transform="rotate(-0.0)">
			<text transform="matrix(1 0 0 1 160.9521 -74.9042)" class="st0 st1 st2">G</text>
		</g>
	</g>
</g>
<g id="ID000005">
	<g>
		<g transform="translate(63.747,262.730)">
			<g transform="rotate(-0.0)">
				<text transform="matrix(1 0 0 1 164.7706 -71.0108)" class="st0 st1 st2">A</text>
			</g>
		</g>
	</g>
</g>
<g id="ID000006">
	<g>
		<g transform="translate(63.747,242.276)">
			<g transform="rotate(-0.0)">
				<text transform="matrix(1 0 0 1 164.3243 -67.1144)" class="st0 st1 st2">U</text>
			</g>
		</g>
	</g>
</g>
<g id="ID000007">
	<g>
		<g transform="translate(84.200,221.823)">
			<g transform="rotate(-0.0)">
				<text transform="matrix(1 0 0 1 160.8772 -63.219)" class="st0 st1 st2">A</text>
			</g>
		</g>
	</g>
</g>
<g id="ID000008">
	<g>
		<g transform="translate(109.767,221.823)">
			<g transform="rotate(-0.0)">
				<text transform="matrix(1 0 0 1 155.1119 -63.219)" class="st0 st1 st2">G</text>
			</g>
		</g>
	</g>
</g>
<g id="ID000009">
	<g>
		<g transform="translate(125.107,237.163)">
			<g transform="rotate(-0.0)">
				<text transform="matrix(1 0 0 1 152.1899 -66.141)" class="st0 st1 st2">G</text>
			</g>
		</g>
	</g>
</g>
<g id="ID000010">
	<g>
		<g transform="translate(135.334,262.730)">
			<g transform="rotate(-0.0)">
				<text transform="matrix(1 0 0 1 151.1406 -71.0108)" class="st0 st1 st2">A</text>
			</g>
		</g>
	</g>
</g>
<g id="ID000011">
	<g transform="translate(119.994,283.183)">
		<g transform="rotate(-0.0)">
			<text transform="matrix(1 0 0 1 153.6144 -74.9042)" class="st0 st1 st2">U</text>
		</g>
	</g>
</g>
<g id="ID000012">
	<line class="st3" x1="290.5" y1="200.9" x2="301.5" y2="200.9"/>
</g>
<g id="ID000013">
	<g transform="translate(147.265,283.183)">
		<g transform="rotate(-0.0)">
			<text transform="matrix(1 0 0 1 154.2682 -74.9042)" class="st1 st2">10</text>
		</g>
	</g>
</g>
<g id="ID000014">
	<g transform="translate(119.994,303.636)">
		<g transform="rotate(-0.0)">
			<text transform="matrix(1 0 0 1 153.6144 -78.7966)" class="st0 st1 st2">C</text>
		</g>
	</g>
</g>
<g id="ID000015">
	<g transform="translate(119.994,324.090)">
		<g transform="rotate(-0.0)">
			<text transform="matrix(1 0 0 1 153.6144 -82.692)" class="st0 st1 st2">C</text>
		</g>
	</g>
</g>
<g id="ID000016">
	<g transform="translate(119.994,344.543)">
		<g transform="rotate(-0.0)">
			<text transform="matrix(1 0 0 1 154.0607 -86.5874)" class="st4 st1 st2">A</text>
		</g>
	</g>
</g>
<g id="ID000017">
	<g transform="translate(119.994,364.996)">
		<g transform="rotate(-0.0)">
			<text transform="matrix(1 0 0 1 153.6144 -90.4818)" class="st4 st1 st2">C</text>
		</g>
	</g>
</g>
<g id="ID000018">
	<g transform="translate(119.994,385.450)">
		<g transform="rotate(-0.0)">
			<text transform="matrix(1 0 0 1 154.0607 -94.3763)" class="st4 st1 st2">A</text>
		</g>
	</g>
</g>
<g id="ID000019">
	<g transform="translate(119.994,405.903)">
		<g transform="rotate(-0.0)">
			<text transform="matrix(1 0 0 1 153.6144 -98.2697)" class="st4 st1 st2">U</text>
		</g>
	</g>
</g>
<g id="ID000020">
	<g transform="translate(119.994,426.356)">
		<g transform="rotate(-0.0)">
			<text transform="matrix(1 0 0 1 153.6144 -102.1651)" class="st4 st1 st2">C</text>
		</g>
	</g>
</g>
<g id="ID000021">
	<g transform="translate(119.994,446.810)">
		<g transform="rotate(-0.0)">
			<text transform="matrix(1 0 0 1 153.6144 -106.0605)" class="st4 st1 st2">U</text>
		</g>
	</g>
</g>
<g id="ID000022">
	<g transform="translate(119.994,467.263)">
		<g transform="rotate(-0.0)">
			<text transform="matrix(1 0 0 1 154.0607 -109.9529)" class="st4 st1 st2">A</text>
		</g>
	</g>
</g>
<g id="ID000023">
	<g transform="translate(130.221,487.716)">
		<g transform="rotate(-0.0)">
			<text transform="matrix(1 0 0 1 151.6677 -113.8474)" class="st4 st1 st2">C</text>
		</g>
	</g>
</g>
<g id="ID000024">
	<line class="st3" x1="298.7" y1="366.4" x2="309.7" y2="366.4"/>
</g>
<g id="ID000025">
	<g transform="translate(157.492,487.716)">
		<g transform="rotate(-0.0)">
			<text transform="matrix(1 0 0 1 152.3215 -113.8474)" class="st1 st2">20</text>
		</g>
	</g>
</g>
<g id="ID000030">
	<polygon class="st5" points="265.1,205 265.3,204.8 265.5,204.6 265.5,204.4 265.7,204.2 265.9,204.2 265.9,204 265.9,203.8 
		266.1,203.6 266.1,203.4 266.1,203 266.1,202.8 266.1,202.6 266.1,202.4 266.1,202.2 266.1,202 266.1,201.8 266.1,201.6 
		265.9,201.4 265.9,201.2 265.7,201 265.7,200.8 265.5,200.6 265.5,200.4 265.3,200.4 265.1,200.3 265,200.1 265,199.9 264.8,199.9 
		264.6,199.7 264.4,199.7 264.2,199.5 264,199.5 263.8,199.5 263.6,199.3 263.4,199.3 263.2,199.3 263,199.3 262.8,199.3 
		262.6,199.3 262.2,199.3 262,199.5 261.8,199.5 261.6,199.5 261.4,199.7 261.2,199.7 261.2,199.9 261,199.9 260.8,200.1 
		260.6,200.3 260.4,200.3 260.4,200.4 260.2,200.6 260,200.8 260,201 259.8,201.2 259.8,201.4 259.7,201.6 259.7,201.8 259.7,202 
		259.7,202.2 259.7,202.4 259.7,202.6 259.7,202.8 259.7,203 259.7,203.2 259.7,203.4 259.8,203.6 259.8,203.8 259.8,204 260,204.2 
		260,204.4 260.2,204.6 260.4,204.8 260.4,205 260.6,205 260.8,205.2 261,205.4 261.2,205.4 261.4,205.6 261.6,205.6 261.8,205.8 
		262,205.8 262.2,205.8 262.4,205.9 262.6,205.9 262.8,205.9 263,205.9 263.2,205.9 263.4,205.9 263.6,205.8 263.8,205.8 264,205.8 
		264.2,205.6 264.4,205.6 264.6,205.4 264.8,205.4 265,205.2 265.1,205.2 	"/>
</g>
<g id="ID000032">
	<g transform="translate(150.674,503.056)">
		<g transform="rotate(-0.0)">
			<text transform="matrix(1 0 0 1 147.3221 -116.7684)" class="st4 st1 st2">G</text>
		</g>
	</g>
</g>
<g id="ID000033">
	<g transform="translate(176.241,503.056)">
		<g transform="rotate(-0.0)">
			<text transform="matrix(1 0 0 1 142.9065 -116.7684)" class="st4 st1 st2">U</text>
		</g>
	</g>
</g>
<g id="ID000034">
	<g transform="translate(196.694,497.943)">
		<g transform="rotate(-0.0)">
			<text transform="matrix(1 0 0 1 139.4574 -115.796)" class="st4 st1 st2">A</text>
		</g>
	</g>
</g>
<g id="ID000035">
	<g transform="translate(206.921,477.490)">
		<g transform="rotate(-0.0)">
			<text transform="matrix(1 0 0 1 137.0634 -111.8997)" class="st4 st1 st2">U</text>
		</g>
	</g>
</g>
<g id="ID000036">
	<g transform="translate(212.034,451.923)">
		<g transform="rotate(-0.0)">
			<text transform="matrix(1 0 0 1 136.091 -107.0319)" class="st4 st1 st2">U</text>
		</g>
	</g>
</g>
<g id="ID000037">
	<g transform="translate(212.034,431.470)">
		<g transform="rotate(-0.0)">
			<text transform="matrix(1 0 0 1 136.5373 -103.1375)" class="st6 st1 st2">A</text>
		</g>
	</g>
</g>
<g id="ID000038">
	<g transform="translate(212.034,411.016)">
		<g transform="rotate(-0.0)">
			<text transform="matrix(1 0 0 1 136.091 -99.243)" class="st6 st1 st2">C</text>
		</g>
	</g>
</g>
<g id="ID000039">
	<g transform="translate(212.034,390.563)">
		<g transform="rotate(-0.0)">
			<text transform="matrix(1 0 0 1 135.6398 -95.3506)" class="st6 st1 st2">G</text>
		</g>
	</g>
</g>
<g id="ID000040">
	<g transform="translate(212.034,370.110)">
		<g transform="rotate(-0.0)">
			<text transform="matrix(1 0 0 1 136.091 -91.4552)" class="st6 st1 st2">C</text>
		</g>
	</g>
</g>
<g id="ID000041">
	<g transform="translate(191.581,349.656)">
		<g transform="rotate(-0.0)">
			<text transform="matrix(1 0 0 1 140.4307 -87.5608)" class="st7 st1 st2">A</text>
		</g>
	</g>
</g>
<g id="ID000042">
	<line class="st3" x1="329.5" y1="262.4" x2="321.9" y2="270.2"/>
</g>
<g id="ID000043">
	<g transform="translate(172.297,383.871)">
		<g transform="rotate(-0.0)">
			<text transform="matrix(1 0 0 1 131.493 -94.0756)" class="st1 st2">30</text>
		</g>
	</g>
</g>
<g id="ID000044">
	<g transform="translate(191.581,324.090)">
		<g transform="rotate(-0.0)">
			<text transform="matrix(1 0 0 1 140.4307 -82.692)" class="st7 st1 st2">A</text>
		</g>
	</g>
</g>
<g id="ID000045">
	<g transform="translate(273.394,354.770)">
		<g transform="rotate(-0.0)">
			<text transform="matrix(1 0 0 1 124.8531 -88.5332)" class="st6 st1 st2">A</text>
		</g>
	</g>
</g>
<g id="ID000046">
	<g transform="translate(252.941,370.110)">
		<g transform="rotate(-0.0)">
			<text transform="matrix(1 0 0 1 127.849 -91.4552)" class="st6 st1 st2">G</text>
		</g>
	</g>
</g>
<g id="ID000047">
	<g transform="translate(252.941,390.563)">
		<g transform="rotate(-0.0)">
			<text transform="matrix(1 0 0 1 128.3012 -95.3506)" class="st6 st1 st2">C</text>
		</g>
	</g>
</g>
<g id="ID000048">
	<g transform="translate(268.281,411.016)">
		<g transform="rotate(-0.0)">
			<text transform="matrix(1 0 0 1 125.3801 -99.243)" class="st6 st1 st2">U</text>
		</g>
	</g>
</g>
<g id="ID000049">
	<g transform="translate(252.941,431.470)">
		<g transform="rotate(-0.0)">
			<text transform="matrix(1 0 0 1 128.3012 -103.1375)" class="st6 st1 st2">U</text>
		</g>
	</g>
</g>
<g id="ID000050">
	<line class="st3" x1="398.1" y1="320.9" x2="409.3" y2="320.9"/>
</g>
<g id="ID000051">
	<g transform="translate(280.212,431.470)">
		<g transform="rotate(-0.0)">
			<text transform="matrix(1 0 0 1 128.956 -103.1375)" class="st1 st2">90</text>
		</g>
	</g>
</g>
<g id="ID000052">
	<line class="st3" x1="360.6" y1="320.9" x2="380.4" y2="320.9"/>
</g>
<g id="ID000053">
	<polygon class="st5" points="373.9,320.9 373.9,320.7 373.7,320.5 373.7,320.3 373.7,320.1 373.7,319.9 373.5,319.7 373.5,319.5 
		373.3,319.3 373.3,319.1 373.1,318.9 373.1,318.7 372.9,318.5 372.7,318.5 372.5,318.3 372.5,318.1 372.3,318.1 372.1,317.9 
		372,317.9 371.8,317.7 371.6,317.7 371.4,317.7 371.2,317.5 371,317.5 370.8,317.5 370.4,317.5 370.2,317.5 370,317.5 369.8,317.7 
		369.6,317.7 369.4,317.7 369.2,317.9 369,317.9 368.8,317.9 368.6,318.1 368.6,318.3 368.4,318.3 368.2,318.5 368,318.7 
		367.8,318.9 367.8,319.1 367.6,319.1 367.6,319.3 367.4,319.5 367.4,319.7 367.4,319.9 367.2,320.1 367.2,320.3 367.2,320.5 
		367.2,320.9 367.2,321.1 367.2,321.3 367.2,321.5 367.2,321.6 367.4,321.8 367.4,322 367.4,322.2 367.6,322.4 367.6,322.6 
		367.8,322.8 367.8,323 368,323 368.2,323.2 368.4,323.4 368.6,323.6 368.6,323.6 368.8,323.8 369,323.8 369.2,324 369.4,324 
		369.6,324 369.8,324.2 370,324.2 370.2,324.2 370.4,324.2 370.8,324.2 371,324.2 371.2,324.2 371.4,324 371.6,324 371.8,324 
		372,323.8 372.1,323.8 372.3,323.6 372.5,323.6 372.5,323.4 372.7,323.2 372.9,323.2 373.1,323 373.1,322.8 373.3,322.6 
		373.3,322.4 373.5,322.2 373.5,322 373.7,321.8 373.7,321.6 373.7,321.5 373.7,321.3 373.9,321.1 	"/>
</g>
<g id="ID000054">
	<line class="st3" x1="360.6" y1="287.7" x2="380.4" y2="287.7"/>
</g>
<g id="ID000055">
	<line class="st3" x1="360.6" y1="271.2" x2="380.4" y2="271.2"/>
</g>
<g id="ID000057">
	<g transform="translate(201.807,308.750)">
		<g transform="rotate(-0.0)">
			<text transform="matrix(1 0 0 1 138.0367 -79.772)" class="st7 st1 st2">C</text>
		</g>
	</g>
</g>
<g id="ID000058">
	<g transform="translate(217.147,288.296)">
		<g transform="rotate(-0.0)">
			<text transform="matrix(1 0 0 1 134.6665 -75.8766)" class="st7 st1 st2">G</text>
		</g>
	</g>
</g>
<g id="ID000059">
	<g transform="translate(217.147,267.843)">
		<g transform="rotate(-0.0)">
			<text transform="matrix(1 0 0 1 135.1167 -71.9841)" class="st7 st1 st2">C</text>
		</g>
	</g>
</g>
<g id="ID000060">
	<g transform="translate(206.921,247.390)">
		<g transform="rotate(-0.0)">
			<text transform="matrix(1 0 0 1 137.0634 -68.0887)" class="st7 st1 st2">C</text>
		</g>
	</g>
</g>
<g id="ID000061">
	<g transform="translate(196.694,226.936)">
		<g transform="rotate(-0.0)">
			<text transform="matrix(1 0 0 1 138.5599 -64.1933)" class="st7 st1 st2">G</text>
		</g>
	</g>
</g>
<g id="ID000062">
	<g transform="translate(273.394,242.276)">
		<g transform="rotate(-0.0)">
			<text transform="matrix(1 0 0 1 124.8531 -67.1144)" class="st7 st1 st2">A</text>
		</g>
	</g>
</g>
<g id="ID000063">
	<g transform="translate(258.054,267.843)">
		<g transform="rotate(-0.0)">
			<text transform="matrix(1 0 0 1 126.8777 -71.9841)" class="st7 st1 st2">G</text>
		</g>
	</g>
</g>
<g id="ID000064">
	<g transform="translate(258.054,288.296)">
		<g transform="rotate(-0.0)">
			<text transform="matrix(1 0 0 1 127.3279 -75.8766)" class="st7 st1 st2">C</text>
		</g>
	</g>
</g>
<g id="ID000065">
	<g transform="translate(283.621,293.410)">
		<g transform="rotate(-0.0)">
			<text transform="matrix(1 0 0 1 122.4601 -76.8499)" class="st7 st1 st2">C</text>
		</g>
	</g>
</g>
<g id="ID000066">
	<line class="st3" x1="364.7" y1="205" x2="384.5" y2="205"/>
</g>
<g id="ID000067">
	<line class="st3" x1="364.7" y1="188.3" x2="384.5" y2="188.3"/>
</g>
<g id="ID000075">
	<g transform="translate(206.921,206.483)">
		<g transform="rotate(-0.0)">
			<text transform="matrix(1 0 0 1 136.6132 -60.2999)" class="st7 st1 st2">G</text>
		</g>
	</g>
</g>
<g id="ID000076">
	<g transform="translate(222.261,186.029)">
		<g transform="rotate(-0.0)">
			<text transform="matrix(1 0 0 1 133.6911 -56.4045)" class="st7 st1 st2">G</text>
		</g>
	</g>
</g>
<g id="ID000077">
	<g transform="translate(222.261,165.576)">
		<g transform="rotate(-0.0)">
			<text transform="matrix(1 0 0 1 134.1423 -52.5111)" class="st7 st1 st2">C</text>
		</g>
	</g>
</g>
<g id="ID000078">
	<g transform="translate(222.261,145.123)">
		<g transform="rotate(-0.0)">
			<text transform="matrix(1 0 0 1 134.1423 -48.6157)" class="st7 st1 st2">C</text>
		</g>
	</g>
</g>
<g id="ID000079">
	<line class="st3" x1="351.1" y1="89" x2="340.1" y2="89"/>
</g>
<g id="ID000080">
	<g transform="translate(194.989,145.123)">
		<g transform="rotate(-0.0)">
			<text transform="matrix(1 0 0 1 127.1721 -48.6157)" class="st1 st2">40</text>
		</g>
	</g>
</g>
<g id="ID000081">
	<g transform="translate(222.261,124.669)">
		<g transform="rotate(-0.0)">
			<text transform="matrix(1 0 0 1 134.5886 -44.7212)" class="st7 st1 st2">A</text>
		</g>
	</g>
</g>
<g id="ID000082">
	<g transform="translate(206.921,104.216)">
		<g transform="rotate(-0.0)">
			<text transform="matrix(1 0 0 1 137.0634 -40.8268)" class="st7 st1 st2">C</text>
		</g>
	</g>
</g>
<g id="ID000083">
	<g transform="translate(196.694,83.763)">
		<g transform="rotate(-0.0)">
			<text transform="matrix(1 0 0 1 139.9105 -36.9334)" class="st7 st1 st2">T</text>
		</g>
	</g>
</g>
<g id="ID000084">
	<g transform="translate(206.921,63.309)">
		<g transform="rotate(-0.0)">
			<text transform="matrix(1 0 0 1 137.5106 -33.039)" class="st7 st1 st2">A</text>
		</g>
	</g>
</g>
<g id="ID000085">
	<g transform="translate(217.147,47.969)">
		<g transform="rotate(-0.0)">
			<text transform="matrix(1 0 0 1 135.1167 -30.117)" class="st7 st1 st2">C</text>
		</g>
	</g>
</g>
<g id="ID000086">
	<g transform="translate(242.714,42.856)">
		<g transform="rotate(-0.0)">
			<text transform="matrix(1 0 0 1 129.7967 -29.1436)" class="st7 st1 st2">G</text>
		</g>
	</g>
</g>
<g id="ID000087">
	<g transform="translate(263.167,47.969)">
		<g transform="rotate(-0.0)">
			<text transform="matrix(1 0 0 1 126.3545 -30.117)" class="st7 st1 st2">C</text>
		</g>
	</g>
</g>
<g id="ID000088">
	<g transform="translate(278.507,68.423)">
		<g transform="rotate(-0.0)">
			<text transform="matrix(1 0 0 1 122.9813 -34.0114)" class="st7 st1 st2">G</text>
		</g>
	</g>
</g>
<g id="ID000089">
	<g transform="translate(288.734,83.763)">
		<g transform="rotate(-0.0)">
			<text transform="matrix(1 0 0 1 121.933 -36.9334)" class="st7 st1 st2">A</text>
		</g>
	</g>
</g>
<g id="ID000090">
	<g transform="translate(278.507,109.329)">
		<g transform="rotate(-0.0)">
			<text transform="matrix(1 0 0 1 123.8797 -41.8012)" class="st7 st1 st2">A</text>
		</g>
	</g>
</g>
<g id="ID000091">
	<line class="st3" x1="418.9" y1="60.1" x2="429.9" y2="60.1"/>
</g>
<g id="ID000092">
	<g transform="translate(305.778,109.329)">
		<g transform="rotate(-0.0)">
			<text transform="matrix(1 0 0 1 124.0862 -41.8012)" class="st1 st2">50</text>
		</g>
	</g>
</g>
<g id="ID000093">
	<g transform="translate(263.167,124.669)">
		<g transform="rotate(-0.0)">
			<text transform="matrix(1 0 0 1 127.2549 -44.7212)" class="st7 st1 st2">T</text>
		</g>
	</g>
</g>
<g id="ID000094">
	<g transform="translate(263.167,145.123)">
		<g transform="rotate(-0.0)">
			<text transform="matrix(1 0 0 1 125.9043 -48.6157)" class="st7 st1 st2">G</text>
		</g>
	</g>
</g>
<g id="ID000095">
	<g transform="translate(263.167,165.576)">
		<g transform="rotate(-0.0)">
			<text transform="matrix(1 0 0 1 125.9043 -52.5111)" class="st7 st1 st2">G</text>
		</g>
	</g>
</g>
<g id="ID000096">
	<g transform="translate(263.167,186.029)">
		<g transform="rotate(-0.0)">
			<text transform="matrix(1 0 0 1 126.3545 -56.4045)" class="st7 st1 st2">C</text>
		</g>
	</g>
</g>
<g id="ID000097">
	<g transform="translate(273.394,211.596)">
		<g transform="rotate(-0.0)">
			<text transform="matrix(1 0 0 1 124.8531 -61.2732)" class="st7 st1 st2">A</text>
		</g>
	</g>
</g>
<g id="ID000098">
	<line class="st3" x1="368.8" y1="122.2" x2="388.8" y2="122.2"/>
</g>
<g id="ID000099">
	<line class="st3" x1="368.8" y1="105.7" x2="388.8" y2="105.7"/>
</g>
<g id="ID000100">
	<line class="st3" x1="368.8" y1="89" x2="388.8" y2="89"/>
</g>
<g id="ID000101">
	<line class="st3" x1="368.8" y1="72.5" x2="388.8" y2="72.5"/>
</g>
<g id="ID000105">
	<g transform="translate(309.187,303.636)">
		<g transform="rotate(-0.0)">
			<text transform="matrix(1 0 0 1 117.5913 -78.7966)" class="st0 st1 st2">C</text>
		</g>
	</g>
</g>
<g id="ID000106">
	<line class="st3" x1="432.6" y1="206.4" x2="432.6" y2="195.2"/>
</g>
<g id="ID000107">
	<g transform="translate(309.187,262.048)">
		<g transform="rotate(-0.0)">
			<text transform="matrix(1 0 0 1 114.4331 -70.8795)" class="st1 st2">60</text>
		</g>
	</g>
</g>
<g id="ID000108">
	<g transform="translate(329.641,303.636)">
		<g transform="rotate(-0.0)">
			<text transform="matrix(1 0 0 1 113.2448 -78.7966)" class="st0 st1 st2">G</text>
		</g>
	</g>
</g>
<g id="ID000109">
	<g transform="translate(350.094,303.636)">
		<g transform="rotate(-0.0)">
			<text transform="matrix(1 0 0 1 110.7029 -78.7966)" class="st0 st1 st2">T</text>
		</g>
	</g>
</g>
<g id="ID000110">
	<g transform="translate(370.547,303.636)">
		<g transform="rotate(-0.0)">
			<text transform="matrix(1 0 0 1 105.9081 -78.7966)" class="st0 st1 st2">C</text>
		</g>
	</g>
</g>
<g id="ID000111">
	<g transform="translate(391.001,303.636)">
		<g transform="rotate(-0.0)">
			<text transform="matrix(1 0 0 1 101.5634 -78.7966)" class="st0 st1 st2">G</text>
		</g>
	</g>
</g>
<g id="ID000112">
	<g transform="translate(411.454,303.636)">
		<g transform="rotate(-0.0)">
			<text transform="matrix(1 0 0 1 98.5645 -78.7966)" class="st0 st1 st2">A</text>
		</g>
	</g>
</g>
<g id="ID000113">
	<g>
		<g transform="translate(431.907,303.636)">
			<g transform="rotate(-0.0)">
				<text transform="matrix(1 0 0 1 94.2248 -78.7966)" class="st0 st1 st2">C</text>
			</g>
		</g>
	</g>
</g>
<g id="ID000114">
	<g transform="translate(452.361,303.636)">
		<g transform="rotate(-0.0)">
			<text transform="matrix(1 0 0 1 90.3304 -78.7966)" class="st0 st1 st2">U</text>
		</g>
	</g>
</g>
<g id="ID000115">
	<g>
		<g transform="translate(472.814,303.636)">
			<g transform="rotate(-0.0)">
				<text transform="matrix(1 0 0 1 86.436 -78.7966)" class="st0 st1 st2">U</text>
			</g>
		</g>
	</g>
</g>
<g id="ID000116">
	<g>
		<g transform="translate(493.267,293.410)">
			<g transform="rotate(-0.0)">
				<text transform="matrix(1 0 0 1 82.5416 -76.8499)" class="st0 st1 st2">C</text>
			</g>
		</g>
	</g>
</g>
<g id="ID000117">
	<g>
		<g transform="translate(513.721,288.296)">
			<g transform="rotate(-0.0)">
				<text transform="matrix(1 0 0 1 79.0954 -75.8766)" class="st0 st1 st2">A</text>
			</g>
		</g>
	</g>
</g>
<g id="ID000118">
	<line class="st3" x1="598.1" y1="193.8" x2="598.1" y2="182.8"/>
</g>
<g id="ID000119">
	<g transform="translate(513.721,246.708)">
		<g transform="rotate(-0.0)">
			<text transform="matrix(1 0 0 1 75.489 -67.9585)" class="st1 st2">70</text>
		</g>
	</g>
</g>
<g id="ID000120">
	<g>
		<g transform="translate(534.174,298.523)">
			<g transform="rotate(-0.0)">
				<text transform="matrix(1 0 0 1 74.7527 -77.8223)" class="st0 st1 st2">C</text>
			</g>
		</g>
	</g>
</g>
<g id="ID000121">
	<g>
		<g transform="translate(554.627,318.976)">
			<g transform="rotate(-0.0)">
				<text transform="matrix(1 0 0 1 70.8583 -81.7187)" class="st0 st1 st2">U</text>
			</g>
		</g>
	</g>
</g>
<g id="ID000122">
	<g>
		<g transform="translate(539.287,344.543)">
			<g transform="rotate(-0.0)">
				<text transform="matrix(1 0 0 1 73.3282 -86.5874)" class="st0 st1 st2">G</text>
			</g>
		</g>
	</g>
</g>
<g id="ID000123">
	<g>
		<g transform="translate(518.834,354.770)">
			<g transform="rotate(-0.0)">
				<text transform="matrix(1 0 0 1 77.6738 -88.5332)" class="st0 st1 st2">C</text>
			</g>
		</g>
	</g>
</g>
<g id="ID000124">
	<g>
		<g transform="translate(493.267,354.770)">
			<g transform="rotate(-0.0)">
				<text transform="matrix(1 0 0 1 82.9879 -88.5332)" class="st0 st1 st2">A</text>
			</g>
		</g>
	</g>
</g>
<g id="ID000125">
	<g>
		<g transform="translate(472.814,344.543)">
			<g transform="rotate(-0.0)">
				<text transform="matrix(1 0 0 1 85.9858 -86.5874)" class="st0 st1 st2">G</text>
			</g>
		</g>
	</g>
</g>
<g id="ID000126">
	<g>
		<g transform="translate(452.361,344.543)">
			<g transform="rotate(-0.0)">
				<text transform="matrix(1 0 0 1 90.7767 -86.5874)" class="st0 st1 st2">A</text>
			</g>
		</g>
	</g>
</g>
<g id="ID000127">
	<g>
		<g transform="translate(431.907,344.543)">
			<g transform="rotate(-0.0)">
				<text transform="matrix(1 0 0 1 94.2248 -86.5874)" class="st0 st1 st2">C</text>
			</g>
		</g>
	</g>
</g>
<g id="ID000128">
	<g transform="translate(411.454,344.543)">
		<g transform="rotate(-0.0)">
			<text transform="matrix(1 0 0 1 98.1173 -86.5874)" class="st0 st1 st2">U</text>
		</g>
	</g>
</g>
<g id="ID000129">
	<g transform="translate(391.001,344.543)">
		<g transform="rotate(-0.0)">
			<text transform="matrix(1 0 0 1 102.0136 -86.5874)" class="st0 st1 st2">U</text>
		</g>
	</g>
</g>
<g id="ID000130">
	<line class="st3" x1="498.8" y1="261.6" x2="498.8" y2="272.6"/>
</g>
<g id="ID000131">
	<g transform="translate(391.001,386.745)">
		<g transform="rotate(-0.0)">
			<text transform="matrix(1 0 0 1 98.8535 -94.6224)" class="st1 st2">80</text>
		</g>
	</g>
</g>
<g id="ID000132">
	<g transform="translate(370.547,344.543)">
		<g transform="rotate(-0.0)">
			<text transform="matrix(1 0 0 1 105.4579 -86.5874)" class="st0 st1 st2">G</text>
		</g>
	</g>
</g>
<g id="ID000133">
	<g transform="translate(350.094,344.543)">
		<g transform="rotate(-0.0)">
			<text transform="matrix(1 0 0 1 110.2488 -86.5874)" class="st0 st1 st2">A</text>
		</g>
	</g>
</g>
<g id="ID000134">
	<g transform="translate(329.641,344.543)">
		<g transform="rotate(-0.0)">
			<text transform="matrix(1 0 0 1 113.6959 -86.5874)" class="st0 st1 st2">C</text>
		</g>
	</g>
</g>
<g id="ID000135">
	<g transform="translate(309.187,344.543)">
		<g transform="rotate(-0.0)">
			<text transform="matrix(1 0 0 1 117.1401 -86.5874)" class="st0 st1 st2">G</text>
		</g>
	</g>
</g>
<g id="ID000136">
	<g transform="translate(288.734,344.543)">
		<g transform="rotate(-0.0)">
			<text transform="matrix(1 0 0 1 121.933 -86.5874)" class="st6 st1 st2">A</text>
		</g>
	</g>
</g>
<g id="ID000137">
	<line class="st3" x1="432.6" y1="224.1" x2="432.6" y2="243.9"/>
</g>
<g id="ID000138">
	<line class="st3" x1="449.1" y1="224.1" x2="449.1" y2="243.9"/>
</g>
<g id="ID000139">
	<line class="st3" x1="465.8" y1="224.1" x2="465.8" y2="243.9"/>
</g>
<g id="ID000140">
	<line class="st3" x1="482.3" y1="224.1" x2="482.3" y2="243.9"/>
</g>
<g id="ID000141">
	<polygon class="st5" points="498.8,237.2 499,237.2 499.4,237.2 499.6,237.2 499.8,237.2 500,237 500.2,237 500.3,237 500.5,236.8 
		500.7,236.6 500.7,236.6 500.9,236.4 501.1,236.2 501.3,236.2 501.5,236.1 501.5,235.9 501.7,235.7 501.7,235.5 501.9,235.3 
		501.9,235.1 502.1,234.9 502.1,234.7 502.1,234.5 502.1,234.3 502.1,234.1 502.1,233.9 502.1,233.7 502.1,233.5 502.1,233.3 
		502.1,233.1 501.9,232.9 501.9,232.7 501.9,232.5 501.7,232.3 501.5,232.1 501.5,231.9 501.3,231.7 501.1,231.5 501.1,231.5 
		500.9,231.3 500.7,231.1 500.5,231.1 500.3,230.9 500.2,230.9 500,230.7 499.8,230.7 499.6,230.7 499.4,230.7 499.2,230.6 
		499,230.6 498.8,230.6 498.6,230.6 498.4,230.7 498.2,230.7 498,230.7 497.8,230.7 497.6,230.9 497.4,230.9 497.2,231.1 497,231.1 
		496.8,231.3 496.6,231.5 496.4,231.5 496.4,231.7 496.2,231.9 496,232.1 496,232.3 495.8,232.5 495.8,232.7 495.6,232.9 
		495.6,233.1 495.6,233.3 495.6,233.5 495.6,233.7 495.6,233.9 495.6,234.1 495.6,234.3 495.6,234.5 495.6,234.7 495.6,234.9 
		495.8,235.1 495.8,235.3 496,235.5 496,235.7 496.2,235.9 496.2,236.1 496.4,236.2 496.6,236.2 496.8,236.4 496.8,236.6 497,236.6 
		497.2,236.8 497.4,237 497.6,237 497.8,237 498,237.2 498.2,237.2 498.4,237.2 498.6,237.2 	"/>
</g>
<g id="ID000142">
	<line class="st3" x1="515.5" y1="224.1" x2="515.5" y2="243.9"/>
</g>
<g id="ID000143">
	<line class="st3" x1="548.4" y1="224.1" x2="548.4" y2="243.9"/>
</g>
<g id="ID000144">
	<polygon class="st5" points="548.4,237.2 548.8,237.2 549,237.2 549.2,237.2 549.4,237.2 549.6,237 549.8,237 550,237 550.2,236.8 
		550.4,236.6 550.4,236.6 550.6,236.4 550.8,236.2 551,236.2 551.2,236.1 551.2,235.9 551.4,235.7 551.4,235.5 551.6,235.3 
		551.6,235.1 551.8,234.9 551.8,234.7 551.8,234.5 551.8,234.3 551.8,234.1 551.8,233.9 551.8,233.7 551.8,233.5 551.8,233.3 
		551.8,233.1 551.6,232.9 551.6,232.7 551.6,232.5 551.4,232.3 551.2,232.1 551.2,231.9 551,231.7 550.8,231.5 550.8,231.5 
		550.6,231.3 550.4,231.1 550.2,231.1 550,230.9 549.8,230.9 549.6,230.7 549.4,230.7 549.2,230.7 549,230.7 548.8,230.6 
		548.6,230.6 548.4,230.6 548.3,230.6 548.1,230.7 547.9,230.7 547.7,230.7 547.5,230.7 547.3,230.9 547.1,230.9 546.9,231.1 
		546.7,231.1 546.5,231.3 546.3,231.5 546.1,231.5 546.1,231.7 545.9,231.9 545.7,232.1 545.7,232.3 545.5,232.5 545.5,232.7 
		545.5,232.9 545.3,233.1 545.3,233.3 545.3,233.5 545.3,233.7 545.3,233.9 545.3,234.1 545.3,234.3 545.3,234.5 545.3,234.7 
		545.3,234.9 545.5,235.1 545.5,235.3 545.7,235.5 545.7,235.7 545.9,235.9 545.9,236.1 546.1,236.2 546.3,236.2 546.5,236.4 
		546.5,236.6 546.7,236.6 546.9,236.8 547.1,237 547.3,237 547.5,237 547.7,237.2 547.9,237.2 548.1,237.2 548.3,237.2 	"/>
</g>
<text transform="matrix(1 0 0 1 14.0524 35.8327)" class="st1 st8">TH14 aptamer</text>
<g id="ID000066_1_">
	<line class="st3" x1="253.2" y1="219.6" x2="273" y2="219.6"/>
</g>
<g id="ID000066_2_">
	<line class="st3" x1="253.2" y1="236.3" x2="273" y2="236.3"/>
</g>
<text transform="matrix(1 0 0 1 223.5019 254.644)" class="st1 st9">5’</text>
<text transform="matrix(1 0 0 1 388.8348 344.8902)" class="st1 st9">3’</text>
</svg>
