<?xml version="1.0" encoding="UTF-8"?>
<svg id="_图层_1" data-name="图层 1" xmlns="http://www.w3.org/2000/svg" viewBox="0 0 800 400">
  <defs>
    <style>
      .cls-1, .cls-2, .cls-3, .cls-4, .cls-5, .cls-6, .cls-7, .cls-8, .cls-9, .cls-10, .cls-11, .cls-12, .cls-13, .cls-14, .cls-15, .cls-16, .cls-17, .cls-18, .cls-19 {
        font-family: ArialMT, Arial;
      }

      .cls-1, .cls-2, .cls-3, .cls-5, .cls-6, .cls-7, .cls-8, .cls-9, .cls-10, .cls-11, .cls-12, .cls-13, .cls-14, .cls-16, .cls-17, .cls-18, .cls-19 {
        font-size: 11.58px;
        isolation: isolate;
      }

      .cls-1, .cls-3, .cls-18 {
        fill: #f93;
      }

      .cls-1, .cls-7, .cls-9, .cls-12 {
        letter-spacing: -.06em;
      }

      .cls-2, .cls-5, .cls-7 {
        fill: #3c3;
      }

      .cls-2, .cls-8 {
        letter-spacing: -.06em;
      }

      .cls-20 {
        stroke-width: .5px;
      }

      .cls-20, .cls-21 {
        fill: none;
      }

      .cls-20, .cls-21, .cls-22 {
        stroke: #000;
        stroke-miterlimit: 1.11;
      }

      .cls-3, .cls-14, .cls-16 {
        letter-spacing: -.06em;
      }

      .cls-21, .cls-22 {
        stroke-width: .14px;
      }

      .cls-4 {
        font-size: 20px;
      }

      .cls-4, .cls-6, .cls-22, .cls-15 {
        fill: #000;
      }

      .cls-8, .cls-19 {
        fill: #f09;
      }

      .cls-9, .cls-11, .cls-16 {
        fill: #39f;
      }

      .cls-10, .cls-14 {
        fill: #0c0;
      }

      .cls-12, .cls-13 {
        fill: #969;
      }

      .cls-15 {
        font-size: 15px;
      }

      .cls-17 {
        fill: #999;
      }

      .cls-23 {
        letter-spacing: -.04em;
      }
    </style>
  </defs>
  <g id="ID000002">
    <text class="cls-17" transform="translate(365.31 235.63)"><tspan x="0" y="0">G</tspan></text>
  </g>
  <g id="ID000003">
    <text class="cls-19" transform="translate(353.75 235.63)"><tspan x="0" y="0">G</tspan></text>
  </g>
  <g id="ID000004">
    <text class="cls-19" transform="translate(342.2 235.63)"><tspan x="0" y="0">G</tspan></text>
  </g>
  <g id="ID000005">
    <text class="cls-19" transform="translate(330.64 212.52)"><tspan x="0" y="0">G</tspan></text>
  </g>
  <g id="ID000006">
    <text class="cls-19" transform="translate(342.52 212.52)"><tspan x="0" y="0">C</tspan></text>
  </g>
  <g id="ID000007">
    <text class="cls-19" transform="translate(354.08 212.52)"><tspan x="0" y="0">C</tspan></text>
  </g>
  <g id="ID000008">
    <text class="cls-2" transform="translate(360.17 198.08)"><tspan x="0" y="0">A</tspan></text>
  </g>
  <g id="ID000009">
    <text class="cls-5" transform="translate(368.52 189.41)"><tspan x="0" y="0">U</tspan></text>
  </g>
  <g id="ID000010">
    <text class="cls-5" transform="translate(377.19 180.74)"><tspan x="0" y="0">C</tspan></text>
  </g>
  <g id="ID000011">
    <line class="cls-21" x1="375.92" y1="170.1" x2="370.48" y2="164.65"/>
  </g>
  <g id="ID000012">
    <text class="cls-6" transform="translate(357.59 161.76)"><tspan x="0" y="0">20</tspan></text>
  </g>
  <g id="ID000013">
    <line class="cls-21" x1="358.26" y1="225.81" x2="358.26" y2="211.94"/>
  </g>
  <g id="ID000014">
    <line class="cls-20" x1="342.08" y1="230.44" x2="328.21" y2="230.44"/>
  </g>
  <g id="ID000015">
    <polygon class="cls-22" points="336.87 232.14 335.82 231.19 334.76 230.87 333.71 230.71 331.6 230.24 333.71 229.77 334.76 229.61 335.82 229.29 336.87 228.34 336.87 232.14"/>
  </g>
  <g id="ID000016">
    <line class="cls-21" x1="346.7" y1="225.81" x2="346.7" y2="211.94"/>
  </g>
  <g id="ID000018">
    <text class="cls-8" transform="translate(319.73 235.63)"><tspan x="0" y="0">A</tspan></text>
  </g>
  <g id="ID000019">
    <text class="cls-19" transform="translate(307.53 235.63)"><tspan x="0" y="0">G</tspan></text>
  </g>
  <g id="ID000020">
    <text class="cls-8" transform="translate(295.65 239.49)"><tspan x="0" y="0">A</tspan></text>
  </g>
  <g id="ID000021">
    <text class="cls-8" transform="translate(285.06 241.41)"><tspan x="0" y="0">A</tspan></text>
  </g>
  <g id="ID000022">
    <text class="cls-19" transform="translate(270.29 238.53)"><tspan x="0" y="0">U</tspan></text>
  </g>
  <g id="ID000023">
    <text class="cls-19" transform="translate(267.4 224.08)"><tspan x="0" y="0">U</tspan></text>
  </g>
  <g id="ID000024">
    <text class="cls-19" transform="translate(270.29 209.63)"><tspan x="0" y="0">C</tspan></text>
  </g>
  <g id="ID000025">
    <line class="cls-21" x1="274.48" y1="196.73" x2="274.48" y2="189.03"/>
  </g>
  <g id="ID000026">
    <text class="cls-6" transform="translate(268.03 186.14)"><tspan x="0" y="0">10</tspan></text>
  </g>
  <g id="ID000027">
    <text class="cls-8" transform="translate(285.06 203.86)"><tspan x="0" y="0">A</tspan></text>
  </g>
  <g id="ID000028">
    <text class="cls-8" transform="translate(296.61 203.86)"><tspan x="0" y="0">A</tspan></text>
  </g>
  <g id="ID000029">
    <text class="cls-19" transform="translate(307.85 212.52)"><tspan x="0" y="0">C</tspan></text>
  </g>
  <g id="ID000030">
    <text class="cls-19" transform="translate(319.41 212.52)"><tspan x="0" y="0">U</tspan></text>
  </g>
  <g id="ID000031">
    <line class="cls-21" x1="323.59" y1="225.81" x2="323.59" y2="211.94"/>
  </g>
  <g id="ID000032">
    <line class="cls-21" x1="312.03" y1="225.81" x2="312.03" y2="211.94"/>
  </g>
  <g id="ID000034">
    <text class="cls-5" transform="translate(388.74 174.97)"><tspan x="0" y="0">U</tspan></text>
  </g>
  <g id="ID000035">
    <text class="cls-7" transform="translate(400.62 172.08)"><tspan x="0" y="0">A</tspan></text>
  </g>
  <g id="ID000036">
    <text class="cls-18" transform="translate(408.64 163.41)"><tspan x="0" y="0">G</tspan></text>
  </g>
  <g id="ID000037">
    <text class="cls-18" transform="translate(408.64 151.85)"><tspan x="0" y="0">G</tspan></text>
  </g>
  <g id="ID000038">
    <text class="cls-18" transform="translate(408.97 140.3)"><tspan x="0" y="0">C</tspan></text>
  </g>
  <g id="ID000039">
    <text class="cls-18" transform="translate(408.97 128.74)"><tspan x="0" y="0">U</tspan></text>
  </g>
  <g id="ID000040">
    <text class="cls-18" transform="translate(431.76 140.3)"><tspan x="0" y="0">G</tspan></text>
  </g>
  <g id="ID000041">
    <text class="cls-18" transform="translate(432.08 151.85)"><tspan x="0" y="0">C</tspan></text>
  </g>
  <g id="ID000042">
    <text class="cls-18" transform="translate(432.08 163.41)"><tspan x="0" y="0">C</tspan></text>
  </g>
  <g id="ID000043">
    <text class="cls-14" transform="translate(438.18 174.97)"><tspan x="0" y="0">A</tspan></text>
  </g>
  <g id="ID000044">
    <text class="cls-10" transform="translate(449.41 183.63)"><tspan x="0" y="0">C</tspan></text>
  </g>
  <g id="ID000045">
    <line class="cls-21" x1="417.77" y1="158.21" x2="431.64" y2="158.21"/>
  </g>
  <g id="ID000046">
    <line class="cls-21" x1="417.77" y1="146.65" x2="431.64" y2="146.65"/>
  </g>
  <g id="ID000047">
    <line class="cls-21" x1="417.77" y1="135.1" x2="431.64" y2="135.1"/>
  </g>
  <g id="ID000048">
    <line class="cls-20" x1="436.26" y1="113.72" x2="436.26" y2="130.47"/>
  </g>
  <g id="ID000049">
    <polygon class="cls-22" points="438.41 119.11 437.34 120.3 436.98 121.5 436.8 122.69 436.26 125.08 435.72 122.69 435.55 121.5 435.19 120.3 434.11 119.11 438.41 119.11"/>
  </g>
  <g id="ID000051">
    <text class="cls-18" transform="translate(408.64 114.3)"><tspan x="0" y="0">G</tspan></text>
  </g>
  <g id="ID000052">
    <text class="cls-18" transform="translate(408.64 102.74)"><tspan x="0" y="0">G</tspan></text>
  </g>
  <g id="ID000053">
    <text class="cls-18" transform="translate(408.97 91.18)"><tspan x="0" y="0">U</tspan></text>
  </g>
  <g id="ID000054">
    <text class="cls-18" transform="translate(408.97 79.63)"><tspan x="0" y="0">C</tspan></text>
  </g>
  <g id="ID000055">
    <line class="cls-21" x1="405.45" y1="74.43" x2="397.74" y2="74.43"/>
  </g>
  <g id="ID000056">
    <text class="cls-6" transform="translate(384.86 79.63)"><tspan x="0" y="0">30</tspan></text>
  </g>
  <g id="ID000057">
    <text class="cls-1" transform="translate(400.62 68.07)"><tspan x="0" y="0">A</tspan></text>
  </g>
  <g id="ID000058">
    <text class="cls-3" transform="translate(397.73 53.63)"><tspan x="0" y="0">A</tspan></text>
  </g>
  <g id="ID000059">
    <text class="cls-18" transform="translate(400.3 39.18)"><tspan x="0" y="0">C</tspan></text>
  </g>
  <g id="ID000060">
    <text class="cls-18" transform="translate(411.86 30.51)"><tspan x="0" y="0">C</tspan></text>
  </g>
  <g id="ID000061">
    <text class="cls-3" transform="translate(426.62 30.51)"><tspan x="0" y="0">A</tspan></text>
  </g>
  <g id="ID000062">
    <text class="cls-18" transform="translate(437.54 39.18)"><tspan x="0" y="0">G</tspan></text>
  </g>
  <g id="ID000063">
    <text class="cls-18" transform="translate(440.42 53.63)"><tspan x="0" y="0">G</tspan></text>
  </g>
  <g id="ID000064">
    <text class="cls-18" transform="translate(437.86 68.07)"><tspan x="0" y="0">C</tspan></text>
  </g>
  <g id="ID000065">
    <text class="cls-18" transform="translate(431.76 79.63)"><tspan x="0" y="0">G</tspan></text>
  </g>
  <g id="ID000066">
    <text class="cls-1" transform="translate(432.4 91.18)"><tspan x="0" y="0">A</tspan></text>
  </g>
  <g id="ID000067">
    <line class="cls-21" x1="443.97" y1="85.98" x2="451.67" y2="85.98"/>
  </g>
  <g id="ID000068">
    <text class="cls-6" transform="translate(451.67 91.18)"><tspan x="0" y="0">40</tspan></text>
  </g>
  <g id="ID000069">
    <text class="cls-18" transform="translate(432.08 102.74)"><tspan x="0" y="0">C</tspan></text>
  </g>
  <g id="ID000070">
    <text class="cls-18" transform="translate(432.08 114.3)"><tspan x="0" y="0">C</tspan></text>
  </g>
  <g id="ID000071">
    <line class="cls-21" x1="417.77" y1="109.1" x2="431.64" y2="109.1"/>
  </g>
  <g id="ID000072">
    <line class="cls-21" x1="417.77" y1="97.54" x2="431.64" y2="97.54"/>
  </g>
  <g id="ID000073">
    <line class="cls-21" x1="417.77" y1="85.98" x2="431.64" y2="85.98"/>
  </g>
  <g id="ID000074">
    <line class="cls-21" x1="417.77" y1="74.43" x2="431.64" y2="74.43"/>
  </g>
  <g id="ID000076">
    <text class="cls-13" transform="translate(460.97 183.63)"><tspan x="0" y="0">C</tspan></text>
  </g>
  <g id="ID000077">
    <text class="cls-13" transform="translate(472.53 183.63)"><tspan x="0" y="0">C</tspan></text>
  </g>
  <g id="ID000078">
    <text class="cls-13" transform="translate(483.76 183.63)"><tspan x="0" y="0">G</tspan></text>
  </g>
  <g id="ID000079">
    <line class="cls-21" x1="488.27" y1="170.73" x2="488.27" y2="163.02"/>
  </g>
  <g id="ID000080">
    <text class="cls-6" transform="translate(481.82 160.13)"><tspan x="0" y="0">50</tspan></text>
  </g>
  <g id="ID000081">
    <text class="cls-13" transform="translate(495.64 183.63)"><tspan x="0" y="0">C</tspan></text>
  </g>
  <g id="ID000082">
    <text class="cls-13" transform="translate(506.26 179.94)"><tspan x="0" y="0">G</tspan></text>
  </g>
  <g id="ID000083">
    <text class="cls-13" transform="translate(519.45 188.07)"><tspan x="0" y="0">C</tspan></text>
  </g>
  <g id="ID000084">
    <text class="cls-13" transform="translate(520.03 201.58)"><tspan x="0" y="0">G</tspan></text>
  </g>
  <g id="ID000085">
    <text class="cls-13" transform="translate(507.49 210.01)"><tspan x="0" y="0">C</tspan></text>
  </g>
  <g id="ID000086">
    <text class="cls-13" transform="translate(495.32 206.74)"><tspan x="0" y="0">G</tspan></text>
  </g>
  <g id="ID000087">
    <text class="cls-13" transform="translate(484.08 206.74)"><tspan x="0" y="0">C</tspan></text>
  </g>
  <g id="ID000088">
    <text class="cls-12" transform="translate(472.85 206.74)"><tspan x="0" y="0">A</tspan></text>
  </g>
  <g id="ID000089">
    <text class="cls-12" transform="translate(461.29 206.74)"><tspan x="0" y="0">A</tspan></text>
  </g>
  <g id="ID000090">
    <line class="cls-21" x1="488.27" y1="183.05" x2="488.27" y2="196.92"/>
  </g>
  <g id="ID000091">
    <line class="cls-21" x1="499.82" y1="183.05" x2="499.82" y2="196.92"/>
  </g>
  <g id="ID000095">
    <text class="cls-10" transform="translate(446.52 212.52)"><tspan x="0" y="0">U</tspan></text>
  </g>
  <g id="ID000096">
    <line class="cls-21" x1="456.16" y1="212.77" x2="461.6" y2="218.22"/>
  </g>
  <g id="ID000097">
    <text class="cls-6" transform="translate(461.6 231.85)"><tspan x="0" y="0">60</tspan></text>
  </g>
  <g id="ID000098">
    <text class="cls-9" transform="translate(432.4 218.3)"><tspan x="0" y="0">A</tspan></text>
  </g>
  <g id="ID000099">
    <text class="cls-11" transform="translate(432.08 229.86)"><tspan x="0" y="0">C</tspan></text>
  </g>
  <g id="ID000100">
    <text class="cls-11" transform="translate(432.08 241.41)"><tspan x="0" y="0">C</tspan></text>
  </g>
  <g id="ID000101">
    <text class="cls-11" transform="translate(440.75 252.97)"><tspan x="0" y="0">U</tspan></text>
  </g>
  <g id="ID000102">
    <text class="cls-11" transform="translate(400.3 252.97)"><tspan x="0" y="0">C</tspan></text>
  </g>
  <g id="ID000103">
    <text class="cls-11" transform="translate(408.64 241.41)"><tspan x="0" y="0">G</tspan></text>
  </g>
  <g id="ID000104">
    <text class="cls-11" transform="translate(408.64 229.86)"><tspan x="0" y="0">G</tspan></text>
  </g>
  <g id="ID000105">
    <text class="cls-11" transform="translate(408.97 218.3)"><tspan x="0" y="0">U</tspan></text>
  </g>
  <g id="ID000106">
    <line class="cls-21" x1="431.64" y1="213.1" x2="417.77" y2="213.1"/>
  </g>
  <g id="ID000107">
    <line class="cls-21" x1="431.64" y1="224.66" x2="417.77" y2="224.66"/>
  </g>
  <g id="ID000108">
    <line class="cls-21" x1="431.64" y1="236.21" x2="417.77" y2="236.21"/>
  </g>
  <g id="ID000110">
    <text class="cls-9" transform="translate(432.4 267.41)"><tspan x="0" y="0">A</tspan></text>
  </g>
  <g id="ID000111">
    <text class="cls-11" transform="translate(431.76 278.97)"><tspan x="0" y="0">G</tspan></text>
  </g>
  <g id="ID000112">
    <text class="cls-11" transform="translate(432.08 290.53)"><tspan x="0" y="0">U</tspan></text>
  </g>
  <g id="ID000113">
    <text class="cls-9" transform="translate(432.4 302.08)"><tspan x="0" y="0">A</tspan></text>
  </g>
  <g id="ID000114">
    <text class="cls-16" transform="translate(409.29 290.53)"><tspan x="0" y="0">A</tspan></text>
  </g>
  <g id="ID000115">
    <text class="cls-11" transform="translate(408.97 278.97)"><tspan x="0" y="0">C</tspan></text>
  </g>
  <g id="ID000116">
    <text class="cls-11" transform="translate(408.97 267.41)"><tspan x="0" y="0">U</tspan></text>
  </g>
  <g id="ID000117">
    <line class="cls-21" x1="431.64" y1="262.21" x2="417.77" y2="262.21"/>
  </g>
  <g id="ID000118">
    <line class="cls-21" x1="431.64" y1="273.77" x2="417.77" y2="273.77"/>
  </g>
  <g id="ID000119">
    <line class="cls-21" x1="431.64" y1="285.33" x2="417.77" y2="285.33"/>
  </g>
  <g id="ID000120">
    <line class="cls-20" x1="413.15" y1="303.82" x2="413.15" y2="289.95"/>
  </g>
  <g id="ID000121">
    <polygon class="cls-22" points="411.65 298.56 412.4 297.73 412.65 296.9 412.78 296.07 413.15 294.4 413.52 296.07 413.65 296.9 413.9 297.73 414.65 298.56 411.65 298.56"/>
  </g>
  <g id="ID000123">
    <text class="cls-11" transform="translate(432.08 313.64)"><tspan x="0" y="0">C</tspan></text>
  </g>
  <g id="ID000124">
    <text class="cls-11" transform="translate(432.08 325.2)"><tspan x="0" y="0">U</tspan></text>
  </g>
  <g id="ID000125">
    <line class="cls-21" x1="443.97" y1="320" x2="451.67" y2="320"/>
  </g>
  <g id="ID000126">
    <text class="cls-6" transform="translate(451.67 325.2)"><tspan x="0" y="0">70</tspan></text>
  </g>
  <g id="ID000127">
    <text class="cls-9" transform="translate(432.4 336.75)"><tspan x="0" y="0">A</tspan></text>
  </g>
  <g id="ID000128">
    <text class="cls-11" transform="translate(440.75 345.42)"><tspan x="0" y="0">C</tspan></text>
  </g>
  <g id="ID000129">
    <text class="cls-9" transform="translate(446.84 356.98)"><tspan x="0" y="0">A</tspan></text>
  </g>
  <g id="ID000130">
    <text class="cls-16" transform="translate(443.96 371.42)"><tspan x="0" y="0">A</tspan></text>
  </g>
  <g id="ID000131">
    <text class="cls-11" transform="translate(428.87 380.09)"><tspan x="0" y="0">G</tspan></text>
  </g>
  <g id="ID000132">
    <text class="cls-11" transform="translate(414.75 380.09)"><tspan x="0" y="0">C</tspan></text>
  </g>
  <g id="ID000133">
    <text class="cls-11" transform="translate(403.19 371.42)"><tspan x="0" y="0">U</tspan></text>
  </g>
  <g id="ID000134">
    <text class="cls-11" transform="translate(397.41 359.86)"><tspan x="0" y="0">U</tspan></text>
  </g>
  <g id="ID000135">
    <text class="cls-11" transform="translate(400.3 345.42)"><tspan x="0" y="0">C</tspan></text>
  </g>
  <g id="ID000136">
    <text class="cls-11" transform="translate(408.97 336.75)"><tspan x="0" y="0">U</tspan></text>
  </g>
  <g id="ID000137">
    <line class="cls-21" x1="405.45" y1="331.55" x2="397.74" y2="331.55"/>
  </g>
  <g id="ID000138">
    <text class="cls-6" transform="translate(384.86 336.75)"><tspan x="0" y="0">80</tspan></text>
  </g>
  <g id="ID000139">
    <text class="cls-11" transform="translate(408.64 325.2)"><tspan x="0" y="0">G</tspan></text>
  </g>
  <g id="ID000140">
    <text class="cls-11" transform="translate(408.64 313.64)"><tspan x="0" y="0">G</tspan></text>
  </g>
  <g id="ID000141">
    <line class="cls-21" x1="431.64" y1="308.44" x2="417.77" y2="308.44"/>
  </g>
  <g id="ID000142">
    <polygon class="cls-22" points="422.39 320 422.4 320.14 422.41 320.29 422.44 320.43 422.47 320.58 422.51 320.72 422.56 320.85 422.62 320.99 422.69 321.12 422.76 321.24 422.84 321.37 422.94 321.48 423.03 321.59 423.14 321.69 423.25 321.79 423.37 321.88 423.49 321.96 423.61 322.03 423.75 322.1 423.88 322.15 424.02 322.2 424.16 322.24 424.3 322.27 424.45 322.29 424.6 322.3 424.74 322.31 424.89 322.3 425.03 322.28 425.18 322.26 425.32 322.22 425.46 322.18 425.6 322.13 425.73 322.07 425.86 322 425.99 321.92 426.11 321.83 426.22 321.74 426.33 321.64 426.43 321.54 426.52 321.42 426.61 321.31 426.69 321.18 426.76 321.05 426.82 320.92 426.88 320.79 426.92 320.65 426.96 320.5 426.99 320.36 427.01 320.22 427.02 320.07 427.02 319.92 427.01 319.78 426.99 319.63 426.96 319.49 426.92 319.34 426.88 319.2 426.82 319.07 426.76 318.94 426.69 318.81 426.61 318.68 426.52 318.57 426.43 318.45 426.33 318.35 426.22 318.25 426.11 318.16 425.99 318.07 425.86 317.99 425.73 317.92 425.6 317.86 425.46 317.81 425.32 317.77 425.18 317.73 425.03 317.71 424.89 317.69 424.74 317.68 424.6 317.69 424.45 317.7 424.3 317.72 424.16 317.75 424.02 317.79 423.88 317.84 423.75 317.89 423.61 317.96 423.49 318.03 423.37 318.11 423.25 318.2 423.14 318.3 423.03 318.4 422.94 318.51 422.84 318.63 422.76 318.75 422.69 318.87 422.62 319 422.56 319.14 422.51 319.27 422.47 319.41 422.44 319.56 422.41 319.7 422.4 319.85 422.39 320"/>
  </g>
  <g id="ID000143">
    <line class="cls-21" x1="431.64" y1="331.55" x2="417.77" y2="331.55"/>
  </g>
  <text class="cls-15" transform="translate(367.92 256.53)"><tspan x="0" y="0">5</tspan><tspan class="cls-23" x="8.34" y="0">’</tspan></text>
  <text class="cls-15" transform="translate(392.59 218.22)"><tspan x="0" y="0">3</tspan><tspan class="cls-23" x="8.34" y="0">’</tspan></text>
  <text class="cls-4" transform="translate(30.17 33.68)"><tspan x="0" y="0">BBS#8 aptamer</tspan></text>
</svg>