<?xml version="1.0" encoding="utf-8"?>
<!-- Generator: Adobe Illustrator 25.2.0, SVG Export Plug-In . SVG Version: 6.00 Build 0)  -->
<svg version="1.1" id="图层_1" xmlns="http://www.w3.org/2000/svg" xmlns:xlink="http://www.w3.org/1999/xlink" x="0px" y="0px"
	 viewBox="0 0 400 400" style="enable-background:new 0 0 400 400;" xml:space="preserve">
<style type="text/css">
	.st0{fill:#99CCFF;}
	.st1{font-family:'ArialMT';}
	.st2{font-size:19.3589px;}
	.st3{letter-spacing:-1;}
	.st4{fill:none;stroke:#000000;stroke-width:0.14;stroke-miterlimit:1.11;}
	.st5{fill:#0066CC;}
	.st6{fill:#FF3399;}
	.st7{stroke:#000000;stroke-width:0.14;stroke-miterlimit:1.11;}
	.st8{fill:none;stroke:#000000;stroke-width:1.19;stroke-miterlimit:1.11;}
	.st9{font-size:19.1042px;}
	.st10{font-size:20px;}
</style>
<g id="ID000002">
	<text transform="matrix(1 0 0 1 194.0685 368.5256)" class="st0 st1 st2 st3">A</text>
</g>
<g id="ID000003">
	<text transform="matrix(1 0 0 1 173.3088 368.2932)" class="st0 st1 st2 st3">A</text>
</g>
<g id="ID000004">
	<text transform="matrix(1 0 0 1 152.5744 368.2932)" class="st0 st1 st2">C</text>
</g>
<g id="ID000005">
	<text transform="matrix(1 0 0 1 131.5012 363.8225)" class="st0 st1 st2">G</text>
</g>
<g id="ID000006">
	<text transform="matrix(1 0 0 1 114.9289 350.052)" class="st0 st1 st2">C</text>
</g>
<g id="ID000007">
	<text transform="matrix(1 0 0 1 105.8898 332.4387)" class="st0 st1 st2">U</text>
</g>
<g id="ID000008">
	<text transform="matrix(1 0 0 1 104.9221 313.2805)" class="st0 st1 st2">C</text>
</g>
<g id="ID000009">
	<text transform="matrix(1 0 0 1 110.4396 292.2102)" class="st0 st1 st2 st3">A</text>
</g>
<g id="ID000010">
	<text transform="matrix(1 0 0 1 129.9162 285.634)" class="st0 st1 st2 st3">A</text>
</g>
<g id="ID000011">
	<text transform="matrix(1 0 0 1 148.8303 285.634)" class="st0 st1 st2">U</text>
</g>
<g id="ID000012">
	<line class="st4" x1="146.7" y1="267.7" x2="137.5" y2="258.5"/>
</g>
<g id="ID000013">
	<text transform="matrix(1 0 0 1 115.9582 253.6926)" class="st1 st2">10</text>
</g>
<g id="ID000014">
	<text transform="matrix(1 0 0 1 171.5256 282.3997)" class="st5 st1 st2">C</text>
</g>
<g id="ID000015">
	<text transform="matrix(1 0 0 1 170.9777 262.9514)" class="st5 st1 st2">G</text>
</g>
<g id="ID000016">
	<text transform="matrix(1 0 0 1 170.9777 243.5032)" class="st5 st1 st2">G</text>
</g>
<g id="ID000017">
	<text transform="matrix(1 0 0 1 171.5256 224.0559)" class="st5 st1 st2">C</text>
</g>
<g id="ID000018">
	<text transform="matrix(1 0 0 1 170.9777 204.5955)" class="st5 st1 st2">G</text>
</g>
<g id="ID000019">
	<text transform="matrix(1 0 0 1 172.0607 185.1472)" class="st5 st1 st2 st3">A</text>
</g>
<g id="ID000020">
	<text transform="matrix(1 0 0 1 170.9777 165.699)" class="st5 st1 st2">G</text>
</g>
<g id="ID000021">
	<text transform="matrix(1 0 0 1 240.1096 137.1062)" class="st6 st1 st2">C</text>
</g>
<g id="ID000022">
	<text transform="matrix(1 0 0 1 229.7043 153.0906)" class="st6 st1 st2 st3">A</text>
</g>
<g id="ID000023">
	<text transform="matrix(1 0 0 1 210.4211 165.699)" class="st5 st1 st2">C</text>
</g>
<g id="ID000024">
	<line class="st4" x1="226.6" y1="166.1" x2="235.7" y2="175.3"/>
</g>
<g id="ID000025">
	<text transform="matrix(1 0 0 1 235.7414 198.24)" class="st1 st2">30</text>
</g>
<g id="ID000026">
	<text transform="matrix(1 0 0 1 210.4211 185.1472)" class="st5 st1 st2">U</text>
</g>
<g id="ID000027">
	<text transform="matrix(1 0 0 1 210.4211 204.5955)" class="st5 st1 st2">C</text>
</g>
<g id="ID000028">
	<text transform="matrix(1 0 0 1 209.8869 224.0559)" class="st5 st1 st2">G</text>
</g>
<g id="ID000029">
	<text transform="matrix(1 0 0 1 210.4211 243.5032)" class="st5 st1 st2">C</text>
</g>
<g id="ID000030">
	<text transform="matrix(1 0 0 1 210.4211 262.9514)" class="st5 st1 st2">U</text>
</g>
<g id="ID000031">
	<text transform="matrix(1 0 0 1 209.8869 282.3997)" class="st5 st1 st2">G</text>
</g>
<g id="ID000032">
	<text transform="matrix(1 0 0 1 231.4875 280.7688)" class="st0 st1 st2">C</text>
</g>
<g id="ID000033">
	<text transform="matrix(1 0 0 1 251.4709 280.7688)" class="st0 st1 st2 st3">A</text>
</g>
<g id="ID000034">
	<text transform="matrix(1 0 0 1 270.384 280.7688)" class="st0 st1 st2">C</text>
</g>
<g id="ID000035">
	<text transform="matrix(1 0 0 1 287.8234 282.6321)" class="st0 st1 st2">U</text>
</g>
<g id="ID000036">
	<line class="st4" x1="296.8" y1="259.1" x2="296.8" y2="246.1"/>
</g>
<g id="ID000037">
	<text transform="matrix(1 0 0 1 286.0617 241.2229)" class="st1 st2">40</text>
</g>
<g id="ID000038">
	<text transform="matrix(1 0 0 1 301.257 292.5364)" class="st0 st1 st2">U</text>
</g>
<g id="ID000039">
	<text transform="matrix(1 0 0 1 313.6662 308.4163)" class="st0 st1 st2">C</text>
</g>
<g id="ID000040">
	<text transform="matrix(1 0 0 1 320.8195 327.8245)" class="st0 st1 st2">G</text>
</g>
<g id="ID000041">
	<text transform="matrix(1 0 0 1 318.5392 344.3918)" class="st0 st1 st2 st3">A</text>
</g>
<g id="ID000042">
	<text transform="matrix(1 0 0 1 313.6652 363.8245)" class="st0 st1 st2">C</text>
</g>
<g id="ID000043">
	<text transform="matrix(1 0 0 1 296.8234 364.594)" class="st0 st1 st2 st3">A</text>
</g>
<g id="ID000044">
	<text transform="matrix(1 0 0 1 279.5295 364.594)" class="st0 st1 st2">U</text>
</g>
<g id="ID000045">
	<text transform="matrix(1 0 0 1 256.342 363.8225)" class="st0 st1 st2">G</text>
</g>
<g id="ID000046">
	<line class="st4" x1="186.3" y1="273.6" x2="209.6" y2="273.6"/>
</g>
<g id="ID000047">
	<polygon class="st7" points="201.9,254.2 201.8,253.9 201.8,253.7 201.8,253.5 201.7,253.2 201.7,253 201.6,252.8 201.5,252.5 
		201.4,252.3 201.2,252.1 201.1,251.9 200.9,251.7 200.8,251.5 200.6,251.3 200.4,251.2 200.2,251 200,250.9 199.8,250.8 
		199.6,250.6 199.4,250.6 199.1,250.5 198.9,250.4 198.6,250.4 198.4,250.3 198.1,250.3 197.9,250.3 197.6,250.3 197.4,250.3 
		197.2,250.4 196.9,250.4 196.7,250.5 196.5,250.6 196.2,250.7 196,250.8 195.8,251 195.6,251.1 195.4,251.3 195.2,251.4 
		195.1,251.6 194.9,251.8 194.8,252 194.6,252.2 194.5,252.4 194.4,252.6 194.3,252.9 194.2,253.1 194.2,253.3 194.1,253.6 
		194.1,253.8 194.1,254.1 194.1,254.3 194.1,254.6 194.1,254.8 194.2,255.1 194.2,255.3 194.3,255.5 194.4,255.8 194.5,256 
		194.6,256.2 194.8,256.4 194.9,256.6 195.1,256.8 195.2,257 195.4,257.1 195.6,257.3 195.8,257.4 196,257.6 196.2,257.7 
		196.5,257.8 196.7,257.9 196.9,257.9 197.2,258 197.4,258 197.6,258.1 197.9,258.1 198.1,258.1 198.4,258.1 198.6,258 198.9,258 
		199.1,257.9 199.4,257.8 199.6,257.7 199.8,257.6 200,257.5 200.2,257.4 200.4,257.2 200.6,257.1 200.8,256.9 200.9,256.7 
		201.1,256.5 201.2,256.3 201.4,256.1 201.5,255.9 201.6,255.6 201.7,255.4 201.7,255.2 201.8,254.9 201.8,254.7 201.8,254.4 	"/>
</g>
<g id="ID000048">
	<line class="st4" x1="186.3" y1="234.7" x2="209.6" y2="234.7"/>
</g>
<g id="ID000049">
	<line class="st4" x1="186.3" y1="215.3" x2="209.6" y2="215.3"/>
</g>
<g id="ID000050">
	<line class="st4" x1="186.3" y1="195.8" x2="209.6" y2="195.8"/>
</g>
<g id="ID000051">
	<line class="st4" x1="186.3" y1="176.4" x2="209.6" y2="176.4"/>
</g>
<g id="ID000052">
	<line class="st8" x1="178.7" y1="149.2" x2="179.9" y2="104.8"/>
</g>
<g id="ID000053">
	<polygon class="st7" points="173.3,133.3 176.3,130.1 177.4,126.9 178,123.7 179.6,117.3 180.9,123.8 181.3,127 182.1,130.3 
		185,133.6 	"/>
</g>
<g id="ID000054">
	<line class="st4" x1="186.3" y1="156.9" x2="209.6" y2="156.9"/>
</g>
<g id="ID000056">
	<text transform="matrix(1 0 0 1 173.1428 105.7371)" class="st6 st1 st2">C</text>
</g>
<g id="ID000057">
	<text transform="matrix(1 0 0 1 173.1428 86.2898)" class="st6 st1 st2">U</text>
</g>
<g id="ID000058">
	<text transform="matrix(1 0 0 1 159.0949 66.8416)" class="st6 st1 st2 st3">A</text>
</g>
<g id="ID000059">
	<line class="st4" x1="152.6" y1="58.1" x2="139.6" y2="58.1"/>
</g>
<g id="ID000060">
	<text transform="matrix(1 0 0 1 118.0842 66.8416)" class="st1 st2">20</text>
</g>
<g id="ID000061">
	<text transform="matrix(1 0 0 1 168.8127 47.3933)" class="st6 st1 st2 st3">A</text>
</g>
<g id="ID000062">
	<text transform="matrix(1 0 0 1 190.0441 36.3884)" class="st6 st1 st2">C</text>
</g>
<g id="ID000063">
	<text transform="matrix(1 0 0 1 212.0392 47.3933)" class="st6 st1 st2">C</text>
</g>
<g id="ID000064">
	<text transform="matrix(1 0 0 1 222.3039 66.8416)" class="st6 st1 st2 st3">A</text>
</g>
<g id="ID000065">
	<text transform="matrix(1 0 0 1 212.5744 86.2898)" class="st6 st1 st2 st3">A</text>
</g>
<g id="ID000066">
	<text transform="matrix(1 0 0 1 211.5041 105.7371)" class="st6 st1 st2">G</text>
</g>
<g id="ID000067">
	<text transform="matrix(1 0 0 1 231.1564 114.5886)" class="st6 st1 st2 st3">A</text>
</g>
<g id="ID000068">
	<line class="st4" x1="187.9" y1="97" x2="211.3" y2="97"/>
</g>
<g id="ID000069">
	<line class="st4" x1="187.9" y1="77.5" x2="211.3" y2="77.5"/>
</g>
<text transform="matrix(1 0 0 1 192.6486 394.509)" class="st1 st9">5</text>
<text transform="matrix(1 0 0 1 203.2707 394.509)" class="st1 st9">’</text>
<text transform="matrix(1 0 0 1 259.1086 394.51)" class="st1 st9">3</text>
<text transform="matrix(1 0 0 1 269.7307 394.51)" class="st1 st9">’</text>
<text transform="matrix(1 0 0 1 11 26.14)" class="st1 st10">7</text>
<text transform="matrix(1 0 0 1 22.12 26.14)" class="st1 st10 st3">A</text>
<text transform="matrix(1 0 0 1 34.36 26.14)" class="st1 st10"> aptamer</text>
</svg>
