<svg id="图层_1" data-name="图层 1" xmlns="http://www.w3.org/2000/svg" viewBox="0 0 800 400">
  <defs>
    <style>
      .cls-1 {
        fill: #ff0;
      }

      .cls-10, .cls-12, .cls-13, .cls-14, .cls-2, .cls-3, .cls-4, .cls-5, .cls-7 {
        isolation: isolate;
      }

      .cls-14, .cls-2 {
        font-size: 24px;
      }

      .cls-10, .cls-12, .cls-14, .cls-2, .cls-3, .cls-4, .cls-5, .cls-7 {
        font-family: ArialMT, Arial;
      }

      .cls-10, .cls-12, .cls-3, .cls-4, .cls-5 {
        font-size: 40.13px;
      }

      .cls-3, .cls-4 {
        fill: #3cc;
      }

      .cls-10, .cls-3 {
        letter-spacing: -0.12em;
      }

      .cls-10, .cls-5 {
        fill: #909;
      }

      .cls-11, .cls-6, .cls-8 {
        fill: none;
      }

      .cls-11, .cls-6, .cls-8, .cls-9 {
        stroke: #000;
        stroke-miterlimit: 1.11;
      }

      .cls-6, .cls-9 {
        stroke-width: 0.14px;
      }

      .cls-7 {
        font-size: 18px;
      }

      .cls-11 {
        stroke-width: 1.19px;
      }

      .cls-12 {
        fill: #999;
      }

      .cls-14 {
        letter-spacing: -0.08em;
      }
    </style>
  </defs>
  <rect class="cls-1" x="347.77" y="179.51" width="64.23" height="27.15"/>
  <text class="cls-2" transform="translate(352.04 202.39)">Biotin</text>
  <g id="ID000002">
    <text class="cls-3" transform="translate(191.98 327.79)">A</text>
  </g>
  <g id="ID000003">
    <text class="cls-4" transform="translate(231.14 327.79)">C</text>
  </g>
  <g id="ID000004">
    <text class="cls-4" transform="translate(271.41 327.79)">C</text>
  </g>
  <g id="ID000005">
    <text class="cls-4" transform="translate(310.55 327.79)">G</text>
  </g>
  <g id="ID000006">
    <text class="cls-5" transform="translate(351.94 327.79)">U</text>
  </g>
  <g id="ID000007">
    <text class="cls-4" transform="translate(543.19 327.79)">C</text>
  </g>
  <g id="ID000008">
    <text class="cls-3" transform="translate(353.04 247.25)">A</text>
  </g>
  <g id="ID000009">
    <text class="cls-4" transform="translate(311.67 247.25)">C</text>
  </g>
  <g id="ID000010">
    <text class="cls-4" transform="translate(270.29 247.25)">G</text>
  </g>
  <g id="ID000011">
    <text class="cls-4" transform="translate(230.02 247.25)">G</text>
  </g>
  <g id="ID000012">
    <text class="cls-4" transform="translate(190.87 247.25)">U</text>
  </g>
  <g id="ID000013">
    <line class="cls-6" x1="148.76" y1="235.17" x2="121.92" y2="235.43"/>
  </g>
  <g id="ID000014">
    <text class="cls-7" transform="translate(92.57 242.28)">21</text>
  </g>
  <g id="ID000015">
    <text class="cls-4" transform="translate(150.61 247.25)">U</text>
  </g>
  <g id="ID000016">
    <line class="cls-8" x1="205.36" y1="293.56" x2="205.36" y2="251.39"/>
  </g>
  <g id="ID000017">
    <line class="cls-8" x1="245.63" y1="293.56" x2="245.63" y2="251.39"/>
  </g>
  <g id="ID000018">
    <line class="cls-8" x1="285.89" y1="293.56" x2="285.89" y2="251.39"/>
  </g>
  <g id="ID000019">
    <line class="cls-8" x1="326.16" y1="293.56" x2="326.16" y2="251.39"/>
  </g>
  <g id="ID000020">
    <line class="cls-8" x1="366.42" y1="293.56" x2="366.42" y2="251.39"/>
  </g>
  <g id="ID000021">
    <line class="cls-8" x1="333.36" y1="214.73" x2="359.22" y2="163.01"/>
  </g>
  <g id="ID000022">
    <polygon class="cls-9" points="336.93 207.59 352.05 197.6 335.85 189.5 336.93 207.59"/>
  </g>
  <g id="ID000023">
    <polygon class="cls-9" points="354.57 172.3 354.11 172.09 353.63 171.9 353.15 171.75 352.65 171.63 352.15 171.54 351.64 171.48 351.13 171.45 350.62 171.46 350.11 171.5 349.6 171.57 349.1 171.67 348.61 171.81 348.13 171.97 347.65 172.17 347.19 172.39 346.75 172.65 346.32 172.93 345.92 173.24 345.53 173.57 345.17 173.93 344.82 174.31 344.5 174.71 344.21 175.13 343.95 175.56 343.71 176.02 343.51 176.49 343.33 176.97 343.19 177.46 343.07 177.95 342.99 178.46 342.94 178.97 342.92 179.48 342.93 179.99 342.98 180.5 343.06 181 343.17 181.5 343.31 181.99 343.49 182.47 343.69 182.94 343.92 183.4 344.18 183.83 344.47 184.26 344.79 184.66 345.13 185.04 345.49 185.4 345.87 185.74 346.28 186.05 346.7 186.33 347.14 186.59 347.6 186.82 348.07 187.02 348.56 187.19 349.05 187.32 349.55 187.43 350.05 187.5 350.56 187.55 351.07 187.56 351.58 187.53 352.09 187.48 352.6 187.39 353.09 187.27 353.58 187.12 354.06 186.94 354.52 186.73 354.98 186.49 355.41 186.23 355.83 185.93 356.23 185.61 356.6 185.26 356.96 184.9 357.29 184.5 357.59 184.09 357.87 183.67 358.12 183.22 358.34 182.76 358.53 182.28 358.69 181.8 358.82 181.31 358.92 180.81 358.99 180.3 359.02 179.79 359.02 179.28 358.99 178.77 358.93 178.26 358.83 177.76 358.71 177.26 358.55 176.78 358.36 176.3 358.14 175.84 357.9 175.39 357.62 174.96 357.32 174.55 356.99 174.16 356.64 173.78 356.27 173.44 355.87 173.11 355.46 172.82 355.02 172.54 354.57 172.3"/>
  </g>
  <g id="ID000025">
    <text class="cls-3" transform="translate(594.63 297.59)">A</text>
  </g>
  <g id="ID000026">
    <text class="cls-4" transform="translate(592.41 247.25)">G</text>
  </g>
  <g id="ID000027">
    <line class="cls-6" x1="626.99" y1="248.11" x2="645.97" y2="267.1"/>
  </g>
  <g id="ID000028">
    <text class="cls-7" transform="translate(645.97 287.02)">10</text>
  </g>
  <g id="ID000029">
    <text class="cls-3" transform="translate(554.37 247.25)">A</text>
  </g>
  <g id="ID000030">
    <text class="cls-4" transform="translate(511.88 247.25)">G</text>
  </g>
  <g id="ID000031">
    <text class="cls-4" transform="translate(471.61 247.25)">G</text>
  </g>
  <g id="ID000032">
    <text class="cls-3" transform="translate(433.57 247.25)">A</text>
  </g>
  <g id="ID000033">
    <text class="cls-4" transform="translate(392.2 247.25)">C</text>
  </g>
  <g id="ID000034">
    <text class="cls-3" transform="translate(148.76 189.5)">A</text>
  </g>
  <g id="ID000035">
    <text class="cls-3" transform="translate(188.91 149.38)">A</text>
  </g>
  <g id="ID000036">
    <text class="cls-3" transform="translate(251.02 149.38)">A</text>
  </g>
  <g id="ID000037">
    <text class="cls-10" transform="translate(302.65 154.19)">A</text>
  </g>
  <g id="ID000038">
    <text class="cls-10" transform="translate(347.77 160.77)">A</text>
  </g>
  <g id="ID000039">
    <text class="cls-5" transform="translate(391.08 166.73)">G</text>
  </g>
  <g id="ID000040">
    <text class="cls-4" transform="translate(432.47 166.73)">U</text>
  </g>
  <g id="ID000041">
    <text class="cls-4" transform="translate(472.73 166.73)">C</text>
  </g>
  <g id="ID000042">
    <text class="cls-4" transform="translate(512.99 166.73)">C</text>
  </g>
  <g id="ID000043">
    <line class="cls-6" x1="527.48" y1="121.76" x2="527.48" y2="94.92"/>
  </g>
  <g id="ID000044">
    <text class="cls-7" transform="translate(515 84.85)">30</text>
  </g>
  <g id="ID000045">
    <text class="cls-4" transform="translate(553.26 166.73)">U</text>
  </g>
  <g id="ID000046">
    <text class="cls-4" transform="translate(593.52 166.73)">C</text>
  </g>
  <g id="ID000047">
    <line class="cls-8" x1="608.01" y1="213.03" x2="608.01" y2="171.45"/>
  </g>
  <g id="ID000048">
    <line class="cls-8" x1="567.75" y1="213.03" x2="567.75" y2="171.45"/>
  </g>
  <g id="ID000049">
    <line class="cls-8" x1="527.48" y1="213.03" x2="527.48" y2="171.45"/>
  </g>
  <g id="ID000050">
    <line class="cls-8" x1="487.22" y1="213.03" x2="487.22" y2="171.45"/>
  </g>
  <g id="ID000051">
    <line class="cls-8" x1="446.95" y1="213.03" x2="446.95" y2="171.45"/>
  </g>
  <g id="ID000052">
    <line class="cls-8" x1="406.69" y1="213.03" x2="406.69" y2="171.45"/>
  </g>
  <g id="ID000054">
    <line class="cls-11" x1="382.53" y1="309.66" x2="541.58" y2="309.66"/>
  </g>
  <g id="ID000055">
    <polygon class="cls-9" points="448.63 297.58 455.34 303.62 462.05 305.64 468.76 306.64 482.19 309.66 468.76 312.68 462.05 313.69 455.34 315.7 448.63 321.74 448.63 297.58"/>
  </g>
  <g id="ID000011-2">
    <text class="cls-12" transform="translate(153.78 328.27)">G</text>
  </g>
  <g id="ID000011-3">
    <text class="cls-12" transform="translate(111.92 328.75)">G</text>
  </g>
  <g id="ID000015-2">
    <text class="cls-12" transform="translate(631.29 166.73)">U</text>
  </g>
  <g class="cls-13">
    <text class="cls-2" transform="translate(93.09 358)">5</text>
    <text class="cls-14" transform="translate(106.44 358)">’</text>
  </g>
  <g class="cls-13">
    <text class="cls-2" transform="translate(673.4 143.42)">3</text>
    <text class="cls-14" transform="translate(686.75 143.42)">’</text>
  </g>
  <text class="cls-2" transform="translate(17.48 42.1)">Biotin aptamer</text>
</svg>
