<?xml version="1.0" encoding="utf-8"?>
<!-- Generator: Adobe Illustrator 25.2.0, SVG Export Plug-In . SVG Version: 6.00 Build 0)  -->
<svg version="1.1" id="图层_1" xmlns="http://www.w3.org/2000/svg" xmlns:xlink="http://www.w3.org/1999/xlink" x="0px" y="0px"
	 viewBox="0 0 800 400" style="enable-background:new 0 0 800 400;" xml:space="preserve">
<style type="text/css">
	.st0{fill:#17BECF;}
	.st1{font-family:'ArialMT';}
	.st2{font-size:29.0226px;}
	.st3{fill:#FF7F0E;}
	.st4{fill:none;stroke:#000000;stroke-width:0.1576;stroke-miterlimit:1.2611;}
	.st5{fill:#2CA02C;}
	.st6{stroke:#000000;stroke-width:0.1576;stroke-miterlimit:1.2611;}
	.st7{fill:#D62728;}
	.st8{fill:#9467BD;}
	.st9{font-size:22px;}
	.st10{font-size:24.8144px;}
</style>
<g id="ID000003">
	<g transform="translate(115.559,375.730)">
		<g transform="rotate(-0.0)">
			<text transform="matrix(1 0 0 1 -21.4076 -157.6089)" class="st0 st1 st2">G</text>
		</g>
	</g>
</g>
<g id="ID000004">
	<g transform="translate(151.578,375.730)">
		<g transform="rotate(-0.0)">
			<text transform="matrix(1 0 0 1 -29.1981 -157.6089)" class="st3 st1 st2">G</text>
		</g>
	</g>
</g>
<g id="ID000008">
	<g transform="translate(151.578,447.767)">
		<g transform="rotate(-0.0)">
			<text transform="matrix(1 0 0 1 -28.391 -171.5697)" class="st3 st1 st2">C</text>
		</g>
	</g>
</g>
<g id="ID000009">
	<g transform="translate(115.559,447.767)">
		<g transform="rotate(-0.0)">
			<text transform="matrix(1 0 0 1 -20.1669 -170.3285)" class="st0 st1 st2">U</text>
		</g>
	</g>
</g>
<g id="ID000012">
	<line class="st4" x1="133.6" y1="216.6" x2="133.6" y2="251.5"/>
</g>
<g id="ID000017">
	<g transform="translate(250.628,357.721)">
		<g transform="rotate(-0.0)">
			<text transform="matrix(1 0 0 1 -101.6661 -68.4026)" class="st0 st1 st2">G</text>
		</g>
	</g>
</g>
<g id="ID000018">
	<g transform="translate(286.647,375.730)">
		<g transform="rotate(-0.0)">
			<text transform="matrix(1 0 0 1 -109.3784 -159.0064)" class="st5 st1 st2">U</text>
		</g>
	</g>
</g>
<g id="ID000019">
	<g transform="translate(322.665,375.730)">
		<g transform="rotate(-0.0)">
			<text transform="matrix(1 0 0 1 -116.3584 -159.0064)" class="st5 st1 st2">U</text>
		</g>
	</g>
</g>
<g id="ID000020">
	<g transform="translate(358.684,375.730)">
		<g transform="rotate(-0.0)">
			<text transform="matrix(1 0 0 1 -123.3393 -159.0064)" class="st5 st1 st2">C</text>
		</g>
	</g>
</g>
<g id="ID000021">
	<g transform="translate(394.702,375.730)">
		<g transform="rotate(-0.0)">
			<text transform="matrix(1 0 0 1 -131.1283 -159.0064)" class="st5 st1 st2">G</text>
		</g>
	</g>
</g>
<g id="ID000022">
	<line class="st4" x1="389.4" y1="166.6" x2="389.4" y2="147.2"/>
</g>
<g id="ID000023">
	<g transform="translate(394.702,302.492)">
		<g transform="rotate(-0.0)">
			<text transform="matrix(1 0 0 1 -21.4754 -162.5887)" class="st1 st2">10</text>
		</g>
	</g>
</g>
<g id="ID000024">
	<g transform="translate(430.721,375.730)">
		<g transform="rotate(-0.0)">
			<text transform="matrix(1 0 0 1 -138.1097 -159.0064)" class="st5 st1 st2">G</text>
		</g>
	</g>
</g>
<g id="ID000025">
	<g transform="translate(466.739,375.730)">
		<g transform="rotate(-0.0)">
			<text transform="matrix(1 0 0 1 -145.0886 -159.0064)" class="st5 st1 st2">G</text>
		</g>
	</g>
</g>
<g id="ID000026">
	<g transform="translate(502.758,375.730)">
		<g transform="rotate(-0.0)">
			<text transform="matrix(1 0 0 1 -151.2629 -159.0064)" class="st5 st1 st2">U</text>
		</g>
	</g>
</g>
<g id="ID000027">
	<g transform="translate(538.776,357.721)">
		<g transform="rotate(-0.0)">
			<text transform="matrix(1 0 0 1 -157.443 -155.515)" class="st0 st1 st2">A</text>
		</g>
	</g>
</g>
<g id="ID000028">
	<g transform="translate(538.776,465.776)">
		<g transform="rotate(-0.0)">
			<text transform="matrix(1 0 0 1 -157.443 -176.4576)" class="st0 st1 st2">A</text>
		</g>
	</g>
</g>
<g id="ID000029">
	<g transform="translate(502.758,447.767)">
		<g transform="rotate(-0.0)">
			<text transform="matrix(1 0 0 1 -150.4631 -172.9672)" class="st5 st1 st2">A</text>
		</g>
	</g>
</g>
<g id="ID000030">
	<g transform="translate(466.739,447.767)">
		<g transform="rotate(-0.0)">
			<text transform="matrix(1 0 0 1 -144.2849 -172.9672)" class="st5 st1 st2">C</text>
		</g>
	</g>
</g>
<g id="ID000031">
	<g transform="translate(430.721,447.767)">
		<g transform="rotate(-0.0)">
			<text transform="matrix(1 0 0 1 -137.3021 -172.9672)" class="st5 st1 st2">C</text>
		</g>
	</g>
</g>
<g id="ID000032">
	<g transform="translate(394.702,447.767)">
		<g transform="rotate(-0.0)">
			<text transform="matrix(1 0 0 1 -130.3211 -172.9672)" class="st5 st1 st2">C</text>
		</g>
	</g>
</g>
<g id="ID000033">
	<g transform="translate(358.684,447.767)">
		<g transform="rotate(-0.0)">
			<text transform="matrix(1 0 0 1 -124.1459 -172.9672)" class="st5 st1 st2">G</text>
		</g>
	</g>
</g>
<g id="ID000036">
	<g transform="translate(322.665,447.767)">
		<g transform="rotate(-0.0)">
			<text transform="matrix(1 0 0 1 -117.1679 -172.9672)" class="st5 st1 st2">G</text>
		</g>
	</g>
</g>
<g id="ID000037">
	<g transform="translate(286.647,447.767)">
		<g transform="rotate(-0.0)">
			<text transform="matrix(1 0 0 1 -110.188 -172.9672)" class="st5 st1 st2">G</text>
		</g>
	</g>
</g>
<g id="ID000038">
	<polygon class="st6" points="187.7,238.6 188.1,238.4 188.5,238.4 188.9,238.4 189.2,238.3 189.6,238.2 189.9,238.1 190.2,237.9 
		190.6,237.8 190.8,237.6 191.2,237.3 191.5,237.2 191.7,236.9 192,236.7 192.2,236.3 192.5,236.1 192.7,235.7 192.8,235.5 
		193.1,235.1 193.2,234.7 193.3,234.5 193.5,234.1 193.5,233.7 193.6,233.3 193.6,233 193.6,232.6 193.6,232.2 193.5,231.9 
		193.5,231.5 193.3,231.1 193.2,230.7 193.1,230.5 193,230.1 192.8,229.7 192.6,229.5 192.3,229.1 192.1,228.9 191.8,228.6 
		191.6,228.4 191.3,228.1 191.1,227.9 190.7,227.8 190.4,227.5 190.1,227.4 189.7,227.3 189.4,227.1 189,227 188.6,227 188.2,226.9 
		187.9,226.9 187.6,226.9 187.2,226.9 186.9,227 186.5,227 186.1,227.1 185.8,227.3 185.4,227.4 185.1,227.5 184.8,227.8 
		184.4,227.9 184.1,228.1 183.9,228.4 183.7,228.6 183.4,228.9 183.2,229.1 182.9,229.5 182.7,229.7 182.5,230.1 182.4,230.5 
		182.3,230.7 182.2,231.1 182,231.5 182,231.9 181.9,232.2 181.9,232.6 181.9,233 181.9,233.3 182,233.7 182.2,234.1 182.2,234.5 
		182.3,234.7 182.4,235.1 182.7,235.5 182.8,235.7 183,236.1 183.3,236.3 183.5,236.7 183.8,236.9 184,237.2 184.3,237.3 
		184.6,237.6 184.9,237.8 185.3,237.9 185.6,238.1 185.9,238.2 186.3,238.3 186.6,238.4 187,238.4 187.4,238.4 	"/>
</g>
<g id="ID000039">
	<polygon class="st6" points="216.8,238.6 217.2,238.4 217.5,238.4 217.9,238.4 218.3,238.3 218.6,238.2 218.9,238.1 219.3,237.9 
		219.6,237.8 219.9,237.6 220.3,237.3 220.5,237.2 220.7,236.9 221,236.7 221.2,236.3 221.5,236.1 221.7,235.7 221.9,235.5 
		222.1,235.1 222.2,234.7 222.4,234.5 222.5,234.1 222.5,233.7 222.6,233.3 222.6,233 222.6,232.6 222.6,232.2 222.5,231.9 
		222.5,231.5 222.4,231.1 222.2,230.7 222.1,230.5 222,230.1 221.9,229.7 221.6,229.5 221.4,229.1 221.1,228.9 220.9,228.6 
		220.6,228.4 220.4,228.1 220.1,227.9 219.8,227.8 219.5,227.5 219.1,227.4 218.8,227.3 218.4,227.1 218,227 217.6,227 217.4,226.9 
		217,226.9 216.7,226.9 216.3,226.9 215.9,227 215.5,227 215.2,227.1 214.8,227.3 214.4,227.4 214.2,227.5 213.8,227.8 213.6,227.9 
		213.2,228.1 212.9,228.4 212.7,228.6 212.4,228.9 212.2,229.1 211.9,229.5 211.8,229.7 211.6,230.1 211.4,230.5 211.3,230.7 
		211.2,231.1 211.1,231.5 211.1,231.9 210.9,232.2 210.9,232.6 210.9,233 211.1,233.3 211.1,233.7 211.2,234.1 211.2,234.5 
		211.3,234.7 211.4,235.1 211.7,235.5 211.8,235.7 212.1,236.1 212.3,236.3 212.6,236.7 212.8,236.9 213.1,237.2 213.3,237.3 
		213.7,237.6 213.9,237.8 214.3,237.9 214.7,238.1 214.9,238.2 215.3,238.3 215.7,238.4 216,238.4 216.4,238.4 	"/>
</g>
<g id="ID000040">
	<line class="st4" x1="245.8" y1="215.2" x2="245.8" y2="250.1"/>
</g>
<g id="ID000041">
	<line class="st4" x1="274.8" y1="215.2" x2="274.8" y2="250.1"/>
</g>
<g id="ID000042">
	<line class="st4" x1="303.9" y1="215.2" x2="303.9" y2="250.1"/>
</g>
<g id="ID000043">
	<line class="st4" x1="332.9" y1="215.2" x2="332.9" y2="250.1"/>
</g>
<g id="ID000044">
	<line class="st4" x1="361.9" y1="215.2" x2="361.9" y2="250.1"/>
</g>
<g id="ID000046">
	<g transform="translate(574.794,375.730)">
		<g transform="rotate(-0.0)">
			<text transform="matrix(1 0 0 1 -166.0323 -159.0064)" class="st7 st1 st2">G</text>
		</g>
	</g>
</g>
<g id="ID000047">
	<g transform="translate(610.813,375.730)">
		<g transform="rotate(-0.0)">
			<text transform="matrix(1 0 0 1 -172.2056 -159.0064)" class="st7 st1 st2">C</text>
		</g>
	</g>
</g>
<g id="ID000048">
	<g transform="translate(646.831,375.730)">
		<g transform="rotate(-0.0)">
			<text transform="matrix(1 0 0 1 -178.3886 -159.0064)" class="st7 st1 st2">A</text>
		</g>
	</g>
</g>
<g id="ID000049">
	<g transform="translate(682.850,375.730)">
		<g transform="rotate(-0.0)">
			<text transform="matrix(1 0 0 1 -186.1683 -159.0064)" class="st7 st1 st2">C</text>
		</g>
	</g>
</g>
<g id="ID000050">
	<g transform="translate(718.868,375.730)">
		<g transform="rotate(-0.0)">
			<text transform="matrix(1 0 0 1 -192.3465 -159.0064)" class="st7 st1 st2">A</text>
		</g>
	</g>
</g>
<g id="ID000051">
	<g transform="translate(754.887,375.730)">
		<g transform="rotate(-0.0)">
			<text transform="matrix(1 0 0 1 -200.9368 -159.0064)" class="st7 st1 st2">G</text>
		</g>
	</g>
</g>
<g id="ID000054">
	<g transform="translate(790.905,375.730)">
		<g transform="rotate(-0.0)">
			<text transform="matrix(1 0 0 1 -206.3093 -159.0064)" class="st0 st1 st2">A</text>
		</g>
	</g>
</g>
<g id="ID000055">
	<g transform="translate(907.965,501.794)">
		<g transform="rotate(-0.0)">
			<text transform="matrix(1 0 0 1 -230.6066 -183.4376)" class="st0 st1 st2">G</text>
		</g>
	</g>
</g>
<g id="ID000056">
	<g transform="translate(880.951,519.804)">
		<g transform="rotate(-0.0)">
			<text transform="matrix(1 0 0 1 -223.7615 -186.93)" class="st0 st1 st2">A</text>
		</g>
	</g>
</g>
<g id="ID000057">
	<g transform="translate(844.933,510.799)">
		<g transform="rotate(-0.0)">
			<text transform="matrix(1 0 0 1 -216.7816 -185.1857)" class="st0 st1 st2">A</text>
		</g>
	</g>
</g>
<g id="ID000058">
	<g transform="translate(808.914,501.794)">
		<g transform="rotate(-0.0)">
			<text transform="matrix(1 0 0 1 -209.8007 -183.4376)" class="st0 st1 st2">A</text>
		</g>
	</g>
</g>
<g id="ID000059">
	<g transform="translate(781.901,474.781)">
		<g transform="rotate(-0.0)">
			<text transform="matrix(1 0 0 1 -205.3658 -178.2029)" class="st0 st1 st2">C</text>
		</g>
	</g>
</g>
<g id="ID000060">
	<g transform="translate(754.887,447.767)">
		<g transform="rotate(-0.0)">
			<text transform="matrix(1 0 0 1 -200.1292 -172.9672)" class="st7 st1 st2">U</text>
		</g>
	</g>
</g>
<g id="ID000061">
	<g transform="translate(718.868,447.767)">
		<g transform="rotate(-0.0)">
			<text transform="matrix(1 0 0 1 -193.1492 -172.9672)" class="st7 st1 st2">U</text>
		</g>
	</g>
</g>
<g id="ID000062">
	<line class="st4" x1="419.1" y1="278" x2="419.1" y2="297.4"/>
</g>
<g id="ID000063">
	<g transform="translate(718.868,522.085)">
		<g transform="rotate(-0.0)">
			<text transform="matrix(1 0 0 1 -315.8914 -190.4493)" class="st1 st2">40</text>
		</g>
	</g>
</g>
<g id="ID000064">
	<g transform="translate(682.850,447.767)">
		<g transform="rotate(-0.0)">
			<text transform="matrix(1 0 0 1 -186.9779 -172.9672)" class="st7 st1 st2">G</text>
		</g>
	</g>
</g>
<g id="ID000065">
	<g transform="translate(646.831,447.767)">
		<g transform="rotate(-0.0)">
			<text transform="matrix(1 0 0 1 -179.1855 -172.9672)" class="st7 st1 st2">U</text>
		</g>
	</g>
</g>
<g id="ID000066">
	<g transform="translate(610.813,447.767)">
		<g transform="rotate(-0.0)">
			<text transform="matrix(1 0 0 1 -173.0151 -172.9672)" class="st7 st1 st2">G</text>
		</g>
	</g>
</g>
<g id="ID000067">
	<g transform="translate(574.794,447.767)">
		<g transform="rotate(-0.0)">
			<text transform="matrix(1 0 0 1 -165.2276 -172.9672)" class="st7 st1 st2">C</text>
		</g>
	</g>
</g>
<g id="ID000068">
	<line class="st4" x1="420" y1="215.2" x2="420" y2="250.1"/>
</g>
<g id="ID000069">
	<line class="st4" x1="449" y1="215.2" x2="449" y2="250.1"/>
</g>
<g id="ID000070">
	<line class="st4" x1="478.1" y1="215.2" x2="478.1" y2="250.1"/>
</g>
<g id="ID000071">
	<line class="st4" x1="507.1" y1="215.2" x2="507.1" y2="250.1"/>
</g>
<g id="ID000072">
	<line class="st4" x1="536.1" y1="215.2" x2="536.1" y2="250.1"/>
</g>
<g id="ID000073">
	<polygon class="st6" points="565.3,238.6 565.5,238.4 565.9,238.4 566.3,238.4 566.7,238.3 567,238.2 567.4,238.1 567.8,237.9 
		568,237.8 568.4,237.6 568.6,237.3 569,237.2 569.3,236.9 569.5,236.7 569.8,236.3 570,236.1 570.1,235.7 570.4,235.5 570.5,235.1 
		570.6,234.7 570.8,234.5 570.9,234.1 571,233.7 571,233.3 571,233 571,232.6 571,232.2 571,231.9 570.9,231.5 570.9,231.1 
		570.8,230.7 570.6,230.5 570.4,230.1 570.3,229.7 570,229.5 569.9,229.1 569.6,228.9 569.4,228.6 569.1,228.4 568.8,228.1 
		568.5,227.9 568.3,227.8 567.9,227.5 567.5,227.4 567.3,227.3 566.9,227.1 566.5,227 566.2,227 565.8,226.9 565.4,226.9 565,226.9 
		564.7,226.9 564.3,227 563.9,227 563.6,227.1 563.3,227.3 562.9,227.4 562.6,227.5 562.2,227.8 561.9,227.9 561.7,228.1 
		561.3,228.4 561.1,228.6 560.8,228.9 560.6,229.1 560.5,229.5 560.2,229.7 560.1,230.1 559.8,230.5 559.7,230.7 559.6,231.1 
		559.6,231.5 559.5,231.9 559.5,232.2 559.5,232.6 559.5,233 559.5,233.3 559.5,233.7 559.6,234.1 559.7,234.5 559.8,234.7 
		560,235.1 560.1,235.5 560.3,235.7 560.5,236.1 560.7,236.3 561,236.7 561.2,236.9 561.5,237.2 561.8,237.3 562.1,237.6 
		562.4,237.8 562.7,237.9 563.1,238.1 563.4,238.2 563.8,238.3 564.2,238.4 564.6,238.4 564.9,238.4 	"/>
</g>
<g id="ID000075">
	<g transform="translate(817.919,339.711)">
		<g transform="rotate(-0.0)">
			<text transform="matrix(1 0 0 1 -212.3477 -152.0255)" class="st8 st1 st2">C</text>
		</g>
	</g>
</g>
<g id="ID000076">
	<g transform="translate(817.919,303.693)">
		<g transform="rotate(-0.0)">
			<text transform="matrix(1 0 0 1 -212.3477 -145.0455)" class="st8 st1 st2">C</text>
		</g>
	</g>
</g>
<g id="ID000077">
	<g transform="translate(817.919,267.674)">
		<g transform="rotate(-0.0)">
			<text transform="matrix(1 0 0 1 -211.546 -138.0646)" class="st0 st1 st2">A</text>
		</g>
	</g>
</g>
<g id="ID000078">
	<g transform="translate(835.928,231.656)">
		<g transform="rotate(-0.0)">
			<text transform="matrix(1 0 0 1 -215.8362 -131.0828)" class="st0 st1 st2">U</text>
		</g>
	</g>
</g>
<g id="ID000079">
	<g transform="translate(871.947,231.656)">
		<g transform="rotate(-0.0)">
			<text transform="matrix(1 0 0 1 -222.0173 -131.0828)" class="st0 st1 st2">A</text>
		</g>
	</g>
</g>
<g id="ID000080">
	<g transform="translate(889.956,267.674)">
		<g transform="rotate(-0.0)">
			<text transform="matrix(1 0 0 1 -226.3085 -138.0646)" class="st0 st1 st2">C</text>
		</g>
	</g>
</g>
<g id="ID000081">
	<g transform="translate(889.956,303.693)">
		<g transform="rotate(-0.0)">
			<text transform="matrix(1 0 0 1 -227.1152 -145.0455)" class="st8 st1 st2">G</text>
		</g>
	</g>
</g>
<g id="ID000082">
	<g transform="translate(889.956,339.711)">
		<g transform="rotate(-0.0)">
			<text transform="matrix(1 0 0 1 -227.1152 -152.0255)" class="st8 st1 st2">G</text>
		</g>
	</g>
</g>
<g id="ID000083">
	<g transform="translate(889.956,375.730)">
		<g transform="rotate(-0.0)">
			<text transform="matrix(1 0 0 1 -227.1152 -159.0064)" class="st0 st1 st2">G</text>
		</g>
	</g>
</g>
<g id="ID000086">
	<g transform="translate(916.970,402.744)">
		<g transform="rotate(-0.0)">
			<text transform="matrix(1 0 0 1 -230.7454 -164.242)" class="st0 st1 st2">A</text>
		</g>
	</g>
</g>
<g id="ID000087">
	<g transform="translate(934.979,438.762)">
		<g transform="rotate(-0.0)">
			<text transform="matrix(1 0 0 1 -235.8423 -171.222)" class="st0 st1 st2">G</text>
		</g>
	</g>
</g>
<g id="ID000088">
	<g transform="translate(934.979,474.781)">
		<g transform="rotate(-0.0)">
			<text transform="matrix(1 0 0 1 -234.2339 -178.2029)" class="st0 st1 st2">A</text>
		</g>
	</g>
</g>
<g id="ID000089">
	<line class="st4" x1="627.7" y1="174.7" x2="662.6" y2="174.7"/>
</g>
<g id="ID000090">
	<line class="st4" x1="627.7" y1="145.6" x2="662.6" y2="145.6"/>
</g>
<text transform="matrix(1 0 0 1 25.5643 29.6894)" class="st1 st9">C13.51  Aptamer</text>
<text transform="matrix(1 0 0 1 63.7695 202.2061)" class="st1 st10">5’</text>
<text transform="matrix(1 0 0 1 51.4961 281.1104)" class="st1 st10">3’</text>
<g id="ID000038_1_">
	<polygon class="st6" points="106.1,239.9 106.4,239.8 106.8,239.8 107.2,239.8 107.5,239.6 107.9,239.5 108.2,239.4 108.5,239.3 
		108.9,239.1 109.2,238.9 109.5,238.6 109.8,238.5 110,238.3 110.3,238 110.5,237.7 110.8,237.4 111,237 111.1,236.8 111.4,236.4 
		111.5,236 111.6,235.8 111.8,235.4 111.8,235.1 111.9,234.7 111.9,234.3 111.9,233.9 111.9,233.6 111.8,233.2 111.8,232.8 
		111.6,232.4 111.5,232.1 111.4,231.8 111.3,231.5 111.1,231.1 110.9,230.8 110.6,230.5 110.4,230.2 110.2,230 109.9,229.7 
		109.7,229.5 109.4,229.2 109,229.1 108.7,228.8 108.4,228.7 108,228.6 107.7,228.5 107.3,228.4 106.9,228.4 106.6,228.2 
		106.2,228.2 105.9,228.2 105.6,228.2 105.2,228.4 104.8,228.4 104.4,228.5 104.1,228.6 103.7,228.7 103.5,228.8 103.1,229.1 
		102.7,229.2 102.5,229.5 102.2,229.7 102,230 101.7,230.2 101.5,230.5 101.2,230.8 101,231.1 100.8,231.5 100.7,231.8 100.6,232.1 
		100.5,232.4 100.4,232.8 100.4,233.2 100.2,233.6 100.2,233.9 100.2,234.3 100.2,234.7 100.4,235.1 100.5,235.4 100.5,235.8 
		100.6,236 100.7,236.4 101,236.8 101.1,237 101.3,237.4 101.6,237.7 101.8,238 102.1,238.3 102.3,238.5 102.6,238.6 103,238.9 
		103.2,239.1 103.6,239.3 103.9,239.4 104.2,239.5 104.6,239.6 104.9,239.8 105.3,239.8 105.7,239.8 	"/>
</g>
</svg>
