<?xml version="1.0" encoding="utf-8"?>
<!-- Generator: Adobe Illustrator 25.2.0, SVG Export Plug-In . SVG Version: 6.00 Build 0)  -->
<svg version="1.1" id="图层_1" xmlns="http://www.w3.org/2000/svg" xmlns:xlink="http://www.w3.org/1999/xlink" x="0px" y="0px"
	 viewBox="0 0 400 400" style="enable-background:new 0 0 400 400;" xml:space="preserve">
<style type="text/css">
	.st0{fill:#C2B617;}
	.st1{font-family:'ArialMT';}
	.st2{font-size:9.92px;}
	.st3{fill:#B83332;}
	.st4{letter-spacing:-1;}
	.st5{fill:none;stroke:#000000;stroke-miterlimit:3.05;}
	.st6{stroke:#000000;stroke-miterlimit:3.05;}
	.st7{fill:#084595;}
	.st8{fill:#084595;stroke:#000000;stroke-miterlimit:3.05;}
	.st9{fill:#251E1C;stroke:#000000;stroke-miterlimit:3.05;}
	.st10{fill:none;stroke:#000000;stroke-width:0.99;stroke-miterlimit:3.05;}
	.st11{stroke:#000000;stroke-width:0.38;stroke-miterlimit:3.05;}
	.st12{fill:#CF3E7D;}
	.st13{font-size:20px;}
	.st14{font-size:12px;}
	.st15{letter-spacing:-0.9;}
</style>
<g id="ID000002">
	<text transform="matrix(0.97 0 0 1 26.8398 267.9301)" class="st0 st1 st2">G</text>
</g>
<g id="ID000003">
	<text transform="matrix(0.97 0 0 1 36.9102 267.9301)" class="st0 st1 st2">G</text>
</g>
<g id="ID000004">
	<text transform="matrix(0.97 0 0 1 46.98 267.9301)" class="st0 st1 st2">G</text>
</g>
<g id="ID000005">
	<text transform="matrix(0.97 0 0 1 57.5898 267.9203)" class="st3 st1 st2 st4">A</text>
</g>
<g id="ID000006">
	<text transform="matrix(0.97 0 0 1 67.1201 267.9203)" class="st3 st1 st2">G</text>
</g>
<g id="ID000007">
	<text transform="matrix(0.97 0 0 1 77.73 267.9203)" class="st3 st1 st2 st4">A</text>
</g>
<g id="ID000008">
	<text transform="matrix(0.97 0 0 1 87.54 267.9203)" class="st3 st1 st2">U</text>
</g>
<g id="ID000009">
	<text transform="matrix(0.97 0 0 1 97.8799 260.1498)" class="st0 st1 st2 st4">A</text>
</g>
<g id="ID000010">
	<text transform="matrix(0.97 0 0 1 100.1299 247.2001)" class="st0 st1 st2">C</text>
</g>
<g id="ID000011">
	<text transform="matrix(0.97 0 0 1 105.1699 306.7499)" class="st0 st1 st2">C</text>
</g>
<g id="ID000012">
	<text transform="matrix(0.97 0 0 1 97.8901 296.3998)" class="st0 st1 st2 st4">A</text>
</g>
<g id="ID000013">
	<text transform="matrix(0.97 0 0 1 87.7998 288.64)" class="st3 st1 st2 st4">A</text>
</g>
<g id="ID000014">
	<text transform="matrix(0.97 0 0 1 77.4697 288.64)" class="st3 st1 st2">U</text>
</g>
<g id="ID000015">
	<text transform="matrix(0.97 0 0 1 67.3901 288.64)" class="st3 st1 st2">C</text>
</g>
<g id="ID000016">
	<text transform="matrix(0.97 0 0 1 57.3198 288.64)" class="st3 st1 st2">U</text>
</g>
<g id="ID000017">
	<line class="st5" x1="60.8" y1="268.4" x2="60.8" y2="280.8"/>
</g>
<g id="ID000018">
	<line class="st5" x1="70.9" y1="268.4" x2="70.9" y2="280.8"/>
</g>
<g id="ID000019">
	<line class="st5" x1="80.9" y1="268.4" x2="80.9" y2="280.8"/>
</g>
<g id="ID000020">
	<line class="st5" x1="91" y1="268.3" x2="91" y2="280.8"/>
</g>
<g id="ID000022">
	<text transform="matrix(0.97 0 0 1 112.71 247.2001)" class="st0 st1 st2">C</text>
</g>
<g id="ID000023">
	<line class="st5" x1="116.2" y1="235.6" x2="116.2" y2="228.7"/>
</g>
<g id="ID000024">
	<text transform="matrix(0.97 0 0 1 110.8301 226.1302)" class="st1 st2">10</text>
</g>
<g id="ID000025">
	<text transform="matrix(0.97 0 0 1 115.5 260.14)" class="st0 st1 st2 st4">A</text>
</g>
<g id="ID000026">
	<text transform="matrix(0.97 0 0 1 122.52 267.91)" class="st3 st1 st2">G</text>
</g>
<g id="ID000027">
	<text transform="matrix(0.97 0 0 1 132.8701 267.91)" class="st3 st1 st2">C</text>
</g>
<g id="ID000028">
	<text transform="matrix(0.97 0 0 1 142.9399 267.91)" class="st3 st1 st2">U</text>
</g>
<g id="ID000029">
	<text transform="matrix(0.97 0 0 1 153.0098 267.91)" class="st3 st1 st2">U</text>
</g>
<g id="ID000030">
	<text transform="matrix(0.97 0 0 1 163.3501 267.91)" class="st3 st1 st2 st4">A</text>
</g>
<g id="ID000031">
	<text transform="matrix(0.97 0 0 1 173.1602 267.91)" class="st3 st1 st2">U</text>
</g>
<g id="ID000032">
	<text transform="matrix(0.97 0 0 1 183.23 267.8998)" class="st3 st1 st2">U</text>
</g>
<g id="ID000033">
	<text transform="matrix(0.97 0 0 1 190.79 257.5502)" class="st0 st1 st2">C</text>
</g>
<g id="ID000034">
	<text transform="matrix(0.97 0 0 1 198.6201 335.2299)" class="st0 st1 st2 st4">A</text>
</g>
<g id="ID000035">
	<line class="st5" x1="201.8" y1="337.5" x2="201.8" y2="344.4"/>
</g>
<g id="ID000036">
	<text transform="matrix(0.97 0 0 1 196.2598 354.5101)" class="st1 st2">90</text>
</g>
<g id="ID000037">
	<text transform="matrix(0.97 0 0 1 190.5298 324.87)" class="st0 st1 st2">G</text>
</g>
<g id="ID000038">
	<text transform="matrix(0.97 0 0 1 186.0298 311.9203)" class="st0 st1 st2 st4">A</text>
</g>
<g id="ID000039">
	<text transform="matrix(0.97 0 0 1 190.7998 298.9799)" class="st0 st1 st2">U</text>
</g>
<g id="ID000040">
	<text transform="matrix(0.97 0 0 1 183.5 288.62)" class="st3 st1 st2 st4">A</text>
</g>
<g id="ID000041">
	<text transform="matrix(0.97 0 0 1 172.8901 288.62)" class="st3 st1 st2">G</text>
</g>
<g id="ID000042">
	<text transform="matrix(0.97 0 0 1 163.0898 288.62)" class="st3 st1 st2">U</text>
</g>
<g id="ID000043">
	<text transform="matrix(0.97 0 0 1 153.29 288.6302)" class="st3 st1 st2 st4">A</text>
</g>
<g id="ID000044">
	<text transform="matrix(0.97 0 0 1 143.21 288.6302)" class="st3 st1 st2 st4">A</text>
</g>
<g id="ID000045">
	<text transform="matrix(0.97 0 0 1 132.6099 288.6302)" class="st3 st1 st2">G</text>
</g>
<g id="ID000046">
	<text transform="matrix(0.97 0 0 1 122.7998 288.6302)" class="st3 st1 st2">U</text>
</g>
<g id="ID000047">
	<line class="st5" x1="126.3" y1="290.9" x2="126.3" y2="297.8"/>
</g>
<g id="ID000048">
	<text transform="matrix(0.97 0 0 1 119.1299 308.14)" class="st1 st2">100</text>
</g>
<g id="ID000049">
	<text transform="matrix(0.97 0 0 1 112.4502 296.39)" class="st0 st1 st2">G</text>
</g>
<g id="ID000050">
	<polygon class="st6" points="126.3,276.6 126.4,276.6 126.5,276.6 126.7,276.6 126.8,276.5 126.9,276.5 127,276.5 127.2,276.4 
		127.3,276.4 127.4,276.3 127.5,276.2 127.6,276.1 127.7,276 127.8,276 127.8,275.9 127.9,275.8 128,275.6 128.1,275.5 128.1,275.4 
		128.2,275.3 128.2,275.2 128.2,275 128.3,274.9 128.3,274.8 128.3,274.6 128.3,274.5 128.3,274.4 128.3,274.3 128.2,274.1 
		128.2,274 128.2,273.9 128.1,273.8 128.1,273.6 128,273.5 127.9,273.4 127.9,273.3 127.8,273.2 127.7,273.1 127.6,273 127.5,272.9 
		127.4,272.8 127.3,272.8 127.2,272.7 127.1,272.6 127,272.6 126.8,272.6 126.7,272.5 126.6,272.5 126.5,272.5 126.3,272.5 
		126.2,272.5 126.1,272.5 126,272.5 125.8,272.5 125.7,272.6 125.6,272.6 125.5,272.6 125.4,272.7 125.2,272.8 125.1,272.8 
		125,272.9 124.9,273 124.8,273.1 124.8,273.2 124.7,273.3 124.6,273.4 124.5,273.5 124.5,273.6 124.4,273.8 124.4,273.9 124.3,274 
		124.3,274.1 124.3,274.3 124.3,274.4 124.3,274.5 124.3,274.6 124.3,274.8 124.3,274.9 124.3,275 124.3,275.2 124.4,275.3 
		124.4,275.4 124.5,275.5 124.6,275.6 124.6,275.8 124.7,275.9 124.8,276 124.9,276 125,276.1 125.1,276.2 125.2,276.3 125.3,276.4 
		125.4,276.4 125.5,276.5 125.7,276.5 125.8,276.5 125.9,276.6 126,276.6 126.2,276.6 	"/>
</g>
<g id="ID000051">
	<line class="st5" x1="136.4" y1="268.3" x2="136.4" y2="280.8"/>
</g>
<g id="ID000052">
	<line class="st5" x1="146.4" y1="268.3" x2="146.4" y2="280.8"/>
</g>
<g id="ID000053">
	<line class="st5" x1="156.5" y1="268.3" x2="156.5" y2="280.8"/>
</g>
<g id="ID000054">
	<line class="st5" x1="166.6" y1="268.3" x2="166.6" y2="280.8"/>
</g>
<g id="ID000055">
	<polygon class="st6" points="176.6,276.6 176.8,276.6 176.9,276.6 177,276.6 177.1,276.5 177.3,276.5 177.4,276.5 177.5,276.4 
		177.6,276.4 177.7,276.3 177.8,276.2 177.9,276.1 178,276 178.1,276 178.2,275.9 178.3,275.7 178.4,275.6 178.4,275.5 178.5,275.4 
		178.5,275.3 178.6,275.2 178.6,275 178.6,274.9 178.6,274.8 178.7,274.6 178.7,274.5 178.6,274.4 178.6,274.2 178.6,274.1 
		178.6,274 178.6,273.9 178.5,273.7 178.5,273.6 178.4,273.5 178.3,273.4 178.2,273.3 178.2,273.2 178.1,273.1 178,273 177.9,272.9 
		177.8,272.8 177.7,272.8 177.6,272.7 177.5,272.6 177.3,272.6 177.2,272.5 177.1,272.5 177,272.5 176.8,272.5 176.7,272.5 
		176.6,272.5 176.4,272.5 176.3,272.5 176.2,272.5 176.1,272.5 176,272.6 175.8,272.6 175.7,272.7 175.6,272.8 175.5,272.8 
		175.4,272.9 175.3,273 175.2,273.1 175.1,273.2 175,273.3 175,273.4 174.9,273.5 174.9,273.6 174.8,273.7 174.7,273.9 174.7,274 
		174.7,274.1 174.6,274.2 174.6,274.4 174.6,274.5 174.6,274.6 174.6,274.8 174.7,274.9 174.7,275 174.7,275.2 174.8,275.3 
		174.8,275.4 174.9,275.5 174.9,275.6 175,275.7 175.1,275.9 175.2,276 175.3,276 175.4,276.1 175.4,276.2 175.6,276.3 175.7,276.4 
		175.8,276.4 175.9,276.5 176,276.5 176.1,276.5 176.3,276.6 176.4,276.6 176.5,276.6 	"/>
</g>
<g id="ID000056">
	<line class="st5" x1="186.7" y1="268.3" x2="186.7" y2="280.8"/>
</g>
<g id="ID000058">
	<text transform="matrix(0.97 0 0 1 183.4897 247.1898)" class="st0 st1 st2 st4">A</text>
</g>
<g id="ID000059">
	<line class="st5" x1="180" y1="242.5" x2="173.3" y2="242.5"/>
</g>
<g id="ID000060">
	<text transform="matrix(0.97 0 0 1 161.2998 246.8402)" class="st1 st2">20</text>
</g>
<g id="ID000061">
	<text transform="matrix(0.97 0 0 1 196.0898 244.5902)" class="st7 st1 st2 st4">A</text>
</g>
<g id="ID000062">
	<text transform="matrix(0.97 0 0 1 195.8198 234.2298)" class="st7 st1 st2">U</text>
</g>
<g id="ID000063">
	<text transform="matrix(0.97 0 0 1 195.8198 223.87)" class="st7 st1 st2">U</text>
</g>
<g id="ID000064">
	<text transform="matrix(0.97 0 0 1 195.5498 213.5101)" class="st7 st1 st2">G</text>
</g>
<g id="ID000065">
	<text transform="matrix(0.97 0 0 1 195.8101 203.16)" class="st7 st1 st2">C</text>
</g>
<g id="ID000066">
	<text transform="matrix(0.97 0 0 1 188.2598 192.8002)" class="st0 st1 st2">U</text>
</g>
<g id="ID000067">
	<text transform="matrix(0.97 0 0 1 223.52 192.7899)" class="st0 st1 st2">C</text>
</g>
<g id="ID000068">
	<text transform="matrix(0.97 0 0 1 215.7002 203.1498)" class="st7 st1 st2">G</text>
</g>
<g id="ID000069">
	<text transform="matrix(0.97 0 0 1 215.9697 213.5101)" class="st7 st1 st2">U</text>
</g>
<g id="ID000070">
	<text transform="matrix(0.97 0 0 1 216.2397 223.87)" class="st7 st1 st2 st4">A</text>
</g>
<g id="ID000071">
	<line class="st5" x1="226.2" y1="219.2" x2="232.9" y2="219.2"/>
</g>
<g id="ID000072">
	<text transform="matrix(0.97 0 0 1 235.1499 222.3402)" class="st1 st2">50</text>
</g>
<g id="ID000073">
	<text transform="matrix(0.97 0 0 1 215.7002 234.2298)" class="st7 st1 st2">G</text>
</g>
<g id="ID000074">
	<text transform="matrix(0.97 0 0 1 215.9697 244.5902)" class="st7 st1 st2">U</text>
</g>
<g id="ID000075">
	<line class="st5" x1="203.3" y1="240.9" x2="215.4" y2="240.9"/>
</g>
<g id="ID000076">
	<polygon class="st8" points="211.4,230.5 211.4,230.4 211.4,230.2 211.4,230.1 211.3,230 211.3,229.9 211.2,229.7 211.2,229.6 
		211.1,229.5 211.1,229.4 211,229.3 210.9,229.2 210.8,229.1 210.7,229 210.6,228.9 210.6,228.8 210.4,228.7 210.3,228.7 
		210.2,228.6 210.1,228.6 210,228.5 209.9,228.5 209.7,228.5 209.6,228.5 209.5,228.4 209.3,228.4 209.2,228.4 209.1,228.5 
		209,228.5 208.8,228.5 208.7,228.5 208.6,228.6 208.5,228.7 208.4,228.7 208.3,228.8 208.2,228.9 208.1,228.9 208,229 207.9,229.1 
		207.8,229.2 207.7,229.3 207.6,229.4 207.6,229.6 207.5,229.7 207.5,229.8 207.4,229.9 207.4,230.1 207.4,230.2 207.4,230.3 
		207.4,230.4 207.4,230.6 207.4,230.7 207.4,230.8 207.4,231 207.4,231.1 207.5,231.2 207.5,231.3 207.6,231.5 207.6,231.6 
		207.7,231.7 207.8,231.8 207.9,231.9 208,232 208.1,232.1 208.2,232.2 208.3,232.2 208.4,232.3 208.5,232.4 208.6,232.4 
		208.7,232.5 208.8,232.5 209,232.5 209.1,232.6 209.2,232.6 209.3,232.6 209.5,232.6 209.6,232.6 209.7,232.6 209.9,232.5 
		210,232.5 210.1,232.4 210.2,232.4 210.3,232.3 210.4,232.3 210.6,232.2 210.6,232.1 210.7,232 210.8,231.9 210.9,231.8 211,231.7 
		211.1,231.6 211.1,231.5 211.2,231.4 211.2,231.3 211.3,231.2 211.3,231 211.4,230.9 211.4,230.8 211.4,230.6 	"/>
</g>
<g id="ID000077">
	<line class="st5" x1="203.3" y1="220.2" x2="215.4" y2="220.2"/>
</g>
<g id="ID000078">
	<polygon class="st9" points="211.4,209.8 211.4,209.7 211.4,209.5 211.4,209.4 211.3,209.3 211.3,209.1 211.2,209 211.2,208.9 
		211.1,208.8 211.1,208.7 211,208.6 210.9,208.5 210.8,208.4 210.7,208.3 210.6,208.2 210.5,208.1 210.4,208 210.3,208 210.2,207.9 
		210.1,207.9 210,207.8 209.8,207.8 209.7,207.8 209.6,207.7 209.5,207.7 209.3,207.7 209.2,207.7 209.1,207.7 209,207.8 
		208.8,207.8 208.7,207.8 208.6,207.9 208.5,207.9 208.4,208 208.3,208.1 208.2,208.1 208.1,208.2 208,208.3 207.9,208.4 
		207.8,208.5 207.7,208.6 207.6,208.7 207.6,208.8 207.5,209 207.5,209.1 207.4,209.2 207.4,209.3 207.4,209.5 207.4,209.6 
		207.4,209.7 207.4,209.9 207.4,210 207.4,210.1 207.4,210.2 207.4,210.4 207.5,210.5 207.5,210.6 207.6,210.7 207.6,210.9 
		207.7,211 207.8,211.1 207.9,211.2 208,211.3 208.1,211.4 208.2,211.4 208.3,211.5 208.4,211.6 208.5,211.6 208.6,211.7 
		208.7,211.8 208.8,211.8 209,211.8 209.1,211.8 209.2,211.9 209.3,211.9 209.5,211.9 209.6,211.9 209.7,211.8 209.9,211.8 
		210,211.8 210.1,211.7 210.2,211.7 210.3,211.6 210.4,211.6 210.6,211.5 210.6,211.4 210.7,211.3 210.8,211.2 210.9,211.1 211,211 
		211.1,210.9 211.1,210.8 211.2,210.7 211.2,210.6 211.3,210.4 211.3,210.3 211.4,210.2 211.4,210.1 211.4,209.9 	"/>
</g>
<g id="ID000079">
	<line class="st5" x1="203.3" y1="199.4" x2="215.4" y2="199.4"/>
</g>
<g id="ID000080">
	<line class="st10" x1="221.1" y1="243.7" x2="227.9" y2="259.5"/>
</g>
<g id="ID000081">
	<polygon class="st11" points="225.9,247.2 225.2,249.4 225.4,251.2 225.9,252.8 226.5,256.3 224.5,253.5 223.6,252 222.4,250.6 
		220.4,249.7 	"/>
</g>
<g id="ID000083">
	<text transform="matrix(0.97 0 0 1 195.8101 182.4398)" class="st7 st1 st2">U</text>
</g>
<g id="ID000084">
	<text transform="matrix(0.97 0 0 1 195.54 172.0799)" class="st7 st1 st2">G</text>
</g>
<g id="ID000085">
	<text transform="matrix(0.97 0 0 1 195.54 161.7201)" class="st7 st1 st2">G</text>
</g>
<g id="ID000086">
	<text transform="matrix(0.97 0 0 1 188.25 151.37)" class="st0 st1 st2">U</text>
</g>
<g id="ID000087">
	<line class="st5" x1="185" y1="146.7" x2="178.3" y2="146.7"/>
</g>
<g id="ID000088">
	<text transform="matrix(0.97 0 0 1 166.5601 150.1898)" class="st1 st2">30</text>
</g>
<g id="ID000089">
	<text transform="matrix(0.97 0 0 1 223.5098 151.3597)" class="st0 st1 st2">U</text>
</g>
<g id="ID000090">
	<text transform="matrix(0.97 0 0 1 215.96 161.7201)" class="st7 st1 st2">C</text>
</g>
<g id="ID000091">
	<text transform="matrix(0.97 0 0 1 215.96 172.0799)" class="st7 st1 st2">C</text>
</g>
<g id="ID000092">
	<text transform="matrix(0.97 0 0 1 216.23 182.4398)" class="st7 st1 st2 st4">A</text>
</g>
<g id="ID000093">
	<line class="st5" x1="203.3" y1="178.7" x2="215.4" y2="178.7"/>
</g>
<g id="ID000094">
	<line class="st5" x1="203.3" y1="168.4" x2="215.4" y2="168.4"/>
</g>
<g id="ID000095">
	<line class="st5" x1="203.3" y1="158" x2="215.4" y2="158"/>
</g>
<g id="ID000097">
	<text transform="matrix(0.97 0 0 1 188.52 138.4198)" class="st0 st1 st2 st4">A</text>
</g>
<g id="ID000098">
	<text transform="matrix(0.97 0 0 1 195.7998 128.0599)" class="st7 st1 st2">C</text>
</g>
<g id="ID000099">
	<text transform="matrix(0.97 0 0 1 195.7998 117.7001)" class="st7 st1 st2">C</text>
</g>
<g id="ID000100">
	<text transform="matrix(0.97 0 0 1 195.5298 107.35)" class="st7 st1 st2">G</text>
</g>
<g id="ID000101">
	<text transform="matrix(0.97 0 0 1 188.5098 96.9901)" class="st0 st1 st2 st4">A</text>
</g>
<g id="ID000102">
	<text transform="matrix(0.97 0 0 1 195.5298 86.6302)" class="st0 st1 st2">G</text>
</g>
<g id="ID000103">
	<text transform="matrix(0.97 0 0 1 215.9502 86.6302)" class="st0 st1 st2">C</text>
</g>
<g id="ID000104">
	<text transform="matrix(0.97 0 0 1 223.5 96.9798)" class="st0 st1 st2">U</text>
</g>
<g id="ID000105">
	<text transform="matrix(0.97 0 0 1 215.9502 107.3402)" class="st7 st1 st2">C</text>
</g>
<g id="ID000106">
	<text transform="matrix(0.97 0 0 1 215.6899 117.7001)" class="st7 st1 st2">G</text>
</g>
<g id="ID000107">
	<line class="st5" x1="226.1" y1="113" x2="232.9" y2="113"/>
</g>
<g id="ID000108">
	<text transform="matrix(0.97 0 0 1 234.8901 116.2201)" class="st1 st2">40</text>
</g>
<g id="ID000109">
	<text transform="matrix(0.97 0 0 1 215.6899 128.0599)" class="st7 st1 st2">G</text>
</g>
<g id="ID000110">
	<text transform="matrix(0.97 0 0 1 223.77 138.4198)" class="st0 st1 st2 st4">A</text>
</g>
<g id="ID000111">
	<line class="st5" x1="203.3" y1="124.3" x2="215.4" y2="124.3"/>
</g>
<g id="ID000112">
	<line class="st5" x1="203.3" y1="114" x2="215.4" y2="114"/>
</g>
<g id="ID000113">
	<line class="st5" x1="203.3" y1="103.6" x2="215.4" y2="103.6"/>
</g>
<g id="ID000114">
	<line class="st10" x1="203.3" y1="82" x2="215.4" y2="82"/>
</g>
<g id="ID000115">
	<polygon class="st11" points="206,78.9 207.7,80.4 209.4,80.9 211,81.2 214.4,82 211,82.7 209.4,83 207.7,83.5 206,85.1 	"/>
</g>
<g id="ID000117">
	<text transform="matrix(0.97 0 0 1 226.3198 267.8998)" class="st12 st1 st2 st4">A</text>
</g>
<g id="ID000118">
	<text transform="matrix(0.97 0 0 1 236.3901 267.8998)" class="st12 st1 st2 st4">A</text>
</g>
<g id="ID000119">
	<text transform="matrix(0.97 0 0 1 246.1899 267.89)" class="st12 st1 st2">C</text>
</g>
<g id="ID000120">
	<text transform="matrix(0.97 0 0 1 256 267.89)" class="st12 st1 st2">G</text>
</g>
<g id="ID000121">
	<text transform="matrix(0.97 0 0 1 266.0698 267.89)" class="st12 st1 st2">G</text>
</g>
<g id="ID000122">
	<text transform="matrix(0.97 0 0 1 276.1401 257.5302)" class="st0 st1 st2">G</text>
</g>
<g id="ID000123">
	<text transform="matrix(0.97 0 0 1 276.1401 298.9701)" class="st0 st1 st2">G</text>
</g>
<g id="ID000124">
	<line class="st5" x1="279.9" y1="301.2" x2="279.9" y2="308.1"/>
</g>
<g id="ID000125">
	<text transform="matrix(0.97 0 0 1 274.8398 317.7299)" class="st1 st2">80</text>
</g>
<g id="ID000126">
	<text transform="matrix(0.97 0 0 1 266.3398 288.6097)" class="st12 st1 st2">U</text>
</g>
<g id="ID000127">
	<text transform="matrix(0.97 0 0 1 256.27 288.6097)" class="st12 st1 st2">C</text>
</g>
<g id="ID000128">
	<text transform="matrix(0.97 0 0 1 245.9297 288.6097)" class="st12 st1 st2">G</text>
</g>
<g id="ID000129">
	<text transform="matrix(0.97 0 0 1 236.1201 288.6097)" class="st12 st1 st2">U</text>
</g>
<g id="ID000130">
	<text transform="matrix(0.97 0 0 1 226.0498 288.6097)" class="st12 st1 st2">U</text>
</g>
<g id="ID000131">
	<text transform="matrix(0.97 0 0 1 218.4897 298.9701)" class="st0 st1 st2">C</text>
</g>
<g id="ID000132">
	<text transform="matrix(0.97 0 0 1 223.54 311.9203)" class="st0 st1 st2">U</text>
</g>
<g id="ID000133">
	<text transform="matrix(0.97 0 0 1 218.5 324.8597)" class="st0 st1 st2">U</text>
</g>
<g id="ID000134">
	<text transform="matrix(0.97 0 0 1 210.6797 335.2201)" class="st0 st1 st2">G</text>
</g>
<g id="ID000135">
	<line class="st5" x1="229.5" y1="268.3" x2="229.5" y2="280.8"/>
</g>
<g id="ID000136">
	<line class="st5" x1="239.6" y1="268.3" x2="239.6" y2="280.8"/>
</g>
<g id="ID000137">
	<line class="st5" x1="249.7" y1="268.3" x2="249.7" y2="280.7"/>
</g>
<g id="ID000138">
	<line class="st5" x1="259.8" y1="268.3" x2="259.8" y2="280.7"/>
</g>
<g id="ID000139">
	<polygon class="st6" points="269.8,276.6 270,276.6 270.1,276.6 270.2,276.6 270.3,276.5 270.5,276.5 270.6,276.5 270.7,276.4 
		270.8,276.3 270.9,276.3 271,276.2 271.1,276.1 271.2,276 271.3,275.9 271.4,275.8 271.5,275.7 271.5,275.6 271.6,275.5 
		271.6,275.4 271.7,275.3 271.8,275.1 271.8,275 271.8,274.9 271.8,274.8 271.8,274.6 271.8,274.5 271.8,274.4 271.8,274.2 
		271.8,274.1 271.8,274 271.7,273.9 271.7,273.7 271.6,273.6 271.6,273.5 271.5,273.4 271.4,273.3 271.4,273.2 271.3,273.1 
		271.2,273 271.1,272.9 271,272.8 270.9,272.8 270.8,272.7 270.6,272.6 270.5,272.6 270.4,272.5 270.3,272.5 270.1,272.5 270,272.5 
		269.9,272.5 269.8,272.5 269.6,272.5 269.5,272.5 269.4,272.5 269.3,272.5 269.1,272.6 269,272.6 268.9,272.7 268.8,272.8 
		268.7,272.8 268.6,272.9 268.5,273 268.4,273.1 268.3,273.2 268.2,273.3 268.1,273.4 268.1,273.5 268,273.6 268,273.7 267.9,273.9 
		267.9,274 267.9,274.1 267.8,274.2 267.8,274.4 267.8,274.5 267.8,274.6 267.8,274.8 267.8,274.9 267.9,275 267.9,275.1 
		267.9,275.3 268,275.4 268,275.5 268.1,275.6 268.2,275.7 268.3,275.8 268.3,275.9 268.4,276 268.5,276.1 268.6,276.2 268.7,276.3 
		268.9,276.3 269,276.4 269.1,276.5 269.2,276.5 269.3,276.5 269.4,276.6 269.6,276.6 269.7,276.6 	"/>
</g>
<g id="ID000141">
	<text transform="matrix(0.97 0 0 1 286.4897 267.89)" class="st12 st1 st2">C</text>
</g>
<g id="ID000142">
	<text transform="matrix(0.97 0 0 1 296.5601 267.89)" class="st12 st1 st2">C</text>
</g>
<g id="ID000143">
	<line class="st5" x1="300" y1="256.3" x2="300" y2="249.4"/>
</g>
<g id="ID000144">
	<text transform="matrix(0.97 0 0 1 294.6699 246.8202)" class="st1 st2">60</text>
</g>
<g id="ID000145">
	<text transform="matrix(0.97 0 0 1 306.3701 267.89)" class="st12 st1 st2">G</text>
</g>
<g id="ID000146">
	<text transform="matrix(0.97 0 0 1 314.1895 311.8998)" class="st0 st1 st2">U</text>
</g>
<g id="ID000147">
	<text transform="matrix(0.97 0 0 1 311.6699 298.9598)" class="st0 st1 st2">U</text>
</g>
<g id="ID000148">
	<text transform="matrix(0.97 0 0 1 306.6396 288.6)" class="st12 st1 st2">C</text>
</g>
<g id="ID000149">
	<text transform="matrix(0.97 0 0 1 296.2998 288.6)" class="st12 st1 st2">G</text>
</g>
<g id="ID000150">
	<text transform="matrix(0.97 0 0 1 286.21 288.6)" class="st12 st1 st2">G</text>
</g>
<g id="ID000151">
	<line class="st5" x1="290" y1="268.3" x2="290" y2="280.7"/>
</g>
<g id="ID000152">
	<line class="st5" x1="300" y1="268.3" x2="300" y2="280.7"/>
</g>
<g id="ID000153">
	<line class="st10" x1="314.1" y1="263.2" x2="331.3" y2="263.2"/>
</g>
<g id="ID000154">
	<polygon class="st11" points="319.4,260.1 321,261.7 322.7,262.2 324.4,262.4 327.7,263.2 324.4,264 322.7,264.3 321,264.8 
		319.4,266.3 	"/>
</g>
<g id="ID000155">
	<line class="st5" x1="310.1" y1="268.3" x2="310.1" y2="280.7"/>
</g>
<g id="ID000157">
	<text transform="matrix(0.97 0 0 1 331.8203 267.8802)" class="st12 st1 st2">C</text>
</g>
<g id="ID000158">
	<text transform="matrix(0.97 0 0 1 341.8896 267.8802)" class="st12 st1 st2">C</text>
</g>
<g id="ID000159">
	<text transform="matrix(0.97 0 0 1 352.2305 267.8802)" class="st12 st1 st2 st4">A</text>
</g>
<g id="ID000160">
	<text transform="matrix(0.97 0 0 1 361.7598 267.8802)" class="st12 st1 st2">G</text>
</g>
<g id="ID000161">
	<text transform="matrix(0.97 0 0 1 372.0996 264.3402)" class="st0 st1 st2">U</text>
</g>
<g id="ID000162">
	<text transform="matrix(0.97 0 0 1 379.4004 278.2299)" class="st0 st1 st2">G</text>
</g>
<g id="ID000163">
	<text transform="matrix(0.97 0 0 1 372.1104 291.1801)" class="st0 st1 st2">U</text>
</g>
<g id="ID000164">
	<text transform="matrix(0.97 0 0 1 362.04 288.5902)" class="st12 st1 st2">C</text>
</g>
<g id="ID000165">
	<text transform="matrix(0.97 0 0 1 351.96 288.5902)" class="st12 st1 st2">U</text>
</g>
<g id="ID000166">
	<line class="st5" x1="355.5" y1="290.8" x2="355.5" y2="297.7"/>
</g>
<g id="ID000167">
	<text transform="matrix(0.97 0 0 1 350.4395 308.1)" class="st1 st2">70</text>
</g>
<g id="ID000168">
	<text transform="matrix(0.97 0 0 1 341.6201 288.6)" class="st12 st1 st2">G</text>
</g>
<g id="ID000169">
	<text transform="matrix(0.97 0 0 1 331.5498 288.6)" class="st12 st1 st2">G</text>
</g>
<g id="ID000170">
	<text transform="matrix(0.97 0 0 1 329.5703 298.9598)" class="st0 st1 st2 st4">A</text>
</g>
<g id="ID000171">
	<text transform="matrix(0.97 0 0 1 327.0498 311.8998)" class="st0 st1 st2 st4">A</text>
</g>
<g id="ID000172">
	<line class="st5" x1="335.3" y1="268.3" x2="335.3" y2="280.7"/>
</g>
<g id="ID000173">
	<line class="st5" x1="345.4" y1="268.3" x2="345.4" y2="280.7"/>
</g>
<g id="ID000174">
	<line class="st5" x1="355.5" y1="268.3" x2="355.5" y2="280.7"/>
</g>
<g id="ID000175">
	<line class="st5" x1="365.5" y1="268.3" x2="365.5" y2="280.7"/>
</g>
<text transform="matrix(1 0 0 1 154.2666 28.8384)" class="st1 st13">C52 aptamer</text>
<text transform="matrix(1.09 0 0 1 10.603 273.3639)" class="st1 st14">5</text>
<text transform="matrix(1.09 0 0 1 19.6196 271.2001)" class="st1 st14 st15">’</text>
<text transform="matrix(1.09 0 0 1 40.0859 293.741)" class="st1 st14">3</text>
<text transform="matrix(1.09 0 0 1 48.8096 291.8597)" class="st1 st14 st15">’</text>
</svg>
