<svg id="图层_1" data-name="图层 1" xmlns="http://www.w3.org/2000/svg" viewBox="0 0 400 400"><defs><style>.cls-1,.cls-10,.cls-11,.cls-13,.cls-14,.cls-15,.cls-16,.cls-17,.cls-18,.cls-19,.cls-2,.cls-20,.cls-3,.cls-4,.cls-6,.cls-7,.cls-8{isolation:isolate;font-size:10.51px;font-family:Helvetica;}.cls-1,.cls-20,.cls-4{fill:#0a0bff;}.cls-2,.cls-3{fill:#228b22;}.cls-10,.cls-14,.cls-2,.cls-4,.cls-8{letter-spacing:-0.05em;}.cls-12,.cls-5{fill:none;}.cls-12,.cls-5,.cls-9{stroke:#000;stroke-miterlimit:3.05;}.cls-5,.cls-9{stroke-width:0.38px;}.cls-7,.cls-8{fill:#32cd32;}.cls-10,.cls-11{fill:teal;}.cls-12{stroke-width:0.99px;}.cls-13{fill:pink;}.cls-14,.cls-15,.cls-16{fill:#ff870a;}.cls-15,.cls-19,.cls-20{letter-spacing:-0.05em;}.cls-17{fill:#c2c2ff;}.cls-18,.cls-19{fill:#80db9e;}.cls-21{font-size:20px;font-family:ArialMT, Arial;}.cls-22{letter-spacing:-0.04em;}</style></defs><g id="topgroup"><g id="ID000000"><g id="ID000002"><text class="cls-1" transform="translate(26.04 275.45) scale(0.89 1)">G</text></g><g id="ID000003"><text class="cls-1" transform="translate(35.83 275.45) scale(0.89 1)">G</text></g><g id="ID000004"><text class="cls-1" transform="translate(45.62 275.45) scale(0.89 1)">G</text></g><g id="ID000005"><text class="cls-2" transform="translate(55.93 275.45) scale(0.89 1)">A</text></g><g id="ID000006"><text class="cls-3" transform="translate(65.2 275.45) scale(0.89 1)">G</text></g><g id="ID000007"><text class="cls-2" transform="translate(75.51 275.45) scale(0.89 1)">A</text></g><g id="ID000008"><text class="cls-3" transform="translate(85.05 275.45) scale(0.89 1)">U</text></g><g id="ID000009"><text class="cls-4" transform="translate(95.1 267.22) scale(0.89 1)">A</text></g><g id="ID000010"><text class="cls-1" transform="translate(97.29 253.51) scale(0.89 1)">C</text></g><g id="ID000011"><text class="cls-1" transform="translate(102.18 316.58) scale(0.89 1)">C</text></g><g id="ID000012"><text class="cls-4" transform="translate(95.1 305.61) scale(0.89 1)">A</text></g><g id="ID000013"><text class="cls-2" transform="translate(85.3 297.39) scale(0.89 1)">A</text></g><g id="ID000014"><text class="cls-3" transform="translate(75.25 297.39) scale(0.89 1)">U</text></g><g id="ID000015"><text class="cls-3" transform="translate(65.46 297.39) scale(0.89 1)">C</text></g><g id="ID000016"><text class="cls-3" transform="translate(55.67 297.39) scale(0.89 1)">U</text></g><g id="ID000017"><line class="cls-5" x1="59.06" y1="274.9" x2="59.06" y2="288.06"/></g><g id="ID000018"><line class="cls-5" x1="68.85" y1="274.9" x2="68.85" y2="288.06"/></g><g id="ID000019"><line class="cls-5" x1="78.64" y1="274.9" x2="78.64" y2="288.06"/></g><g id="ID000020"><line class="cls-5" x1="88.43" y1="274.9" x2="88.43" y2="288.06"/></g><g id="ID000022"><text class="cls-1" transform="translate(109.52 253.51) scale(0.89 1)">C</text></g><g id="ID000023"><line class="cls-5" x1="112.91" y1="241.26" x2="112.91" y2="233.94"/></g><g id="ID000024"><text class="cls-6" transform="translate(107.69 231.2) scale(0.89 1)">10</text></g><g id="ID000025"><text class="cls-4" transform="translate(112.23 267.22) scale(0.89 1)">A</text></g><g id="ID000026"><text class="cls-7" transform="translate(119.05 275.45) scale(0.89 1)">G</text></g><g id="ID000027"><text class="cls-7" transform="translate(129.11 275.45) scale(0.89 1)">C</text></g><g id="ID000028"><text class="cls-7" transform="translate(138.9 275.45) scale(0.89 1)">U</text></g><g id="ID000029"><text class="cls-7" transform="translate(148.69 275.45) scale(0.89 1)">U</text></g><g id="ID000030"><text class="cls-8" transform="translate(158.74 275.45) scale(0.89 1)">A</text></g><g id="ID000031"><text class="cls-7" transform="translate(168.27 275.45) scale(0.89 1)">U</text></g><g id="ID000032"><text class="cls-7" transform="translate(178.06 275.45) scale(0.89 1)">U</text></g><g id="ID000033"><text class="cls-1" transform="translate(185.41 264.48) scale(0.89 1)">C</text></g><g id="ID000034"><text class="cls-4" transform="translate(193.01 346.75) scale(0.89 1)">A</text></g><g id="ID000035"><line class="cls-5" x1="196.14" y1="349.13" x2="196.14" y2="356.44"/></g><g id="ID000036"><text class="cls-6" transform="translate(190.92 369.39) scale(0.89 1)">90</text></g><g id="ID000037"><text class="cls-1" transform="translate(185.15 335.78) scale(0.89 1)">G</text></g><g id="ID000038"><text class="cls-4" transform="translate(180.77 322.07) scale(0.89 1)">A</text></g><g id="ID000039"><text class="cls-1" transform="translate(185.41 308.36) scale(0.89 1)">U</text></g><g id="ID000040"><text class="cls-8" transform="translate(178.32 297.39) scale(0.89 1)">A</text></g><g id="ID000041"><text class="cls-7" transform="translate(168.01 297.39) scale(0.89 1)">G</text></g><g id="ID000042"><text class="cls-7" transform="translate(158.48 297.39) scale(0.89 1)">U</text></g><g id="ID000043"><text class="cls-8" transform="translate(148.95 297.39) scale(0.89 1)">A</text></g><g id="ID000044"><text class="cls-8" transform="translate(139.16 297.39) scale(0.89 1)">A</text></g><g id="ID000045"><text class="cls-7" transform="translate(128.85 297.39) scale(0.89 1)">G</text></g><g id="ID000046"><text class="cls-7" transform="translate(119.32 297.39) scale(0.89 1)">U</text></g><g id="ID000047"><line class="cls-5" x1="122.7" y1="299.76" x2="122.7" y2="307.08"/></g><g id="ID000048"><text class="cls-6" transform="translate(114.88 320.02) scale(0.89 1)">100</text></g><g id="ID000049"><text class="cls-1" transform="translate(109.26 305.61) scale(0.89 1)">G</text></g><g id="ID000050"><polygon class="cls-9" points="122.7 284.67 122.83 284.67 122.95 284.66 123.07 284.63 123.2 284.6 123.31 284.56 123.43 284.52 123.55 284.46 123.66 284.4 123.76 284.32 123.86 284.25 123.96 284.16 124.06 284.07 124.14 283.97 124.22 283.86 124.3 283.75 124.37 283.64 124.43 283.52 124.49 283.39 124.53 283.26 124.57 283.13 124.61 283 124.63 282.86 124.65 282.72 124.66 282.58 124.66 282.44 124.66 282.31 124.64 282.17 124.62 282.03 124.59 281.89 124.56 281.76 124.51 281.63 124.46 281.5 124.4 281.38 124.33 281.26 124.26 281.15 124.18 281.04 124.1 280.94 124.01 280.84 123.91 280.75 123.81 280.67 123.71 280.6 123.6 280.53 123.49 280.47 123.37 280.42 123.25 280.37 123.14 280.34 123.01 280.31 122.89 280.3 122.77 280.29 122.64 280.29 122.52 280.3 122.39 280.31 122.27 280.34 122.15 280.37 122.03 280.42 121.92 280.47 121.81 280.53 121.7 280.6 121.59 280.67 121.49 280.75 121.4 280.84 121.31 280.94 121.22 281.04 121.15 281.15 121.07 281.26 121.01 281.38 120.95 281.5 120.9 281.63 120.85 281.76 120.82 281.89 120.79 282.03 120.77 282.17 120.75 282.31 120.75 282.44 120.75 282.58 120.76 282.72 120.78 282.86 120.8 283 120.83 283.13 120.88 283.26 120.92 283.39 120.98 283.52 121.04 283.64 121.11 283.75 121.18 283.86 121.27 283.97 121.35 284.07 121.44 284.16 121.54 284.25 121.64 284.32 121.75 284.4 121.86 284.46 121.98 284.52 122.09 284.56 122.21 284.6 122.33 284.63 122.46 284.66 122.58 284.67 122.7 284.67"/></g><g id="ID000051"><line class="cls-5" x1="132.5" y1="274.9" x2="132.5" y2="288.06"/></g><g id="ID000052"><line class="cls-5" x1="142.29" y1="274.9" x2="142.29" y2="288.06"/></g><g id="ID000053"><line class="cls-5" x1="152.08" y1="274.9" x2="152.08" y2="288.06"/></g><g id="ID000054"><line class="cls-5" x1="161.87" y1="274.9" x2="161.87" y2="288.06"/></g><g id="ID000055"><polygon class="cls-9" points="171.66 284.67 171.79 284.67 171.91 284.66 172.03 284.63 172.15 284.6 172.27 284.56 172.39 284.52 172.5 284.46 172.61 284.4 172.72 284.32 172.82 284.25 172.92 284.16 173.01 284.07 173.1 283.97 173.18 283.86 173.26 283.75 173.32 283.64 173.39 283.52 173.44 283.39 173.49 283.26 173.53 283.13 173.56 283 173.59 282.86 173.61 282.72 173.62 282.58 173.62 282.44 173.61 282.31 173.6 282.17 173.58 282.03 173.55 281.89 173.51 281.76 173.47 281.63 173.42 281.5 173.36 281.38 173.29 281.26 173.22 281.15 173.14 281.04 173.06 280.94 172.97 280.84 172.87 280.75 172.77 280.67 172.67 280.6 172.56 280.53 172.45 280.47 172.33 280.42 172.21 280.37 172.09 280.34 171.97 280.31 171.85 280.3 171.72 280.29 171.6 280.29 171.47 280.3 171.35 280.31 171.23 280.34 171.11 280.37 170.99 280.42 170.88 280.47 170.76 280.53 170.66 280.6 170.55 280.67 170.45 280.75 170.35 280.84 170.26 280.94 170.18 281.04 170.1 281.15 170.03 281.26 169.97 281.38 169.91 281.5 169.85 281.63 169.81 281.76 169.77 281.89 169.75 282.03 169.72 282.17 169.71 282.31 169.7 282.44 169.71 282.58 169.72 282.72 169.73 282.86 169.76 283 169.79 283.13 169.83 283.26 169.88 283.39 169.94 283.52 170 283.64 170.07 283.75 170.14 283.86 170.22 283.97 170.31 284.07 170.4 284.16 170.5 284.25 170.6 284.32 170.71 284.4 170.82 284.46 170.93 284.52 171.05 284.56 171.17 284.6 171.29 284.63 171.41 284.66 171.54 284.67 171.66 284.67"/></g><g id="ID000056"><line class="cls-5" x1="181.45" y1="274.9" x2="181.45" y2="288.06"/></g><g id="ID000058"><text class="cls-4" transform="translate(178.32 253.51) scale(0.89 1)">A</text></g><g id="ID000059"><line class="cls-5" x1="174.92" y1="248.57" x2="168.4" y2="248.57"/></g><g id="ID000060"><text class="cls-6" transform="translate(157.96 253.51) scale(0.89 1)">20</text></g><g id="ID000061"><text class="cls-10" transform="translate(190.56 250.76) scale(0.89 1)">A</text></g><g id="ID000062"><text class="cls-11" transform="translate(190.3 239.79) scale(0.89 1)">U</text></g><g id="ID000063"><text class="cls-11" transform="translate(190.3 228.82) scale(0.89 1)">U</text></g><g id="ID000064"><text class="cls-11" transform="translate(190.04 217.85) scale(0.89 1)">G</text></g><g id="ID000065"><text class="cls-11" transform="translate(190.3 206.88) scale(0.89 1)">C</text></g><g id="ID000066"><text class="cls-1" transform="translate(182.96 195.91) scale(0.89 1)">U</text></g><g id="ID000067"><text class="cls-1" transform="translate(217.23 195.91) scale(0.89 1)">C</text></g><g id="ID000068"><text class="cls-11" transform="translate(209.63 206.88) scale(0.89 1)">G</text></g><g id="ID000069"><text class="cls-11" transform="translate(209.89 217.85) scale(0.89 1)">U</text></g><g id="ID000070"><text class="cls-10" transform="translate(210.15 228.82) scale(0.89 1)">A</text></g><g id="ID000071"><line class="cls-5" x1="219.8" y1="223.89" x2="226.33" y2="223.89"/></g><g id="ID000072"><text class="cls-6" transform="translate(226.33 228.82) scale(0.89 1)">50</text></g><g id="ID000073"><text class="cls-11" transform="translate(209.63 239.79) scale(0.89 1)">G</text></g><g id="ID000074"><text class="cls-11" transform="translate(209.89 250.76) scale(0.89 1)">U</text></g><g id="ID000075"><line class="cls-5" x1="197.61" y1="245.83" x2="209.36" y2="245.83"/></g><g id="ID000076"><polygon class="cls-9" points="205.44 235.86 205.44 235.72 205.43 235.58 205.41 235.44 205.38 235.31 205.34 235.17 205.3 235.04 205.25 234.91 205.19 234.79 205.13 234.67 205.06 234.56 204.98 234.45 204.9 234.34 204.81 234.25 204.72 234.15 204.62 234.07 204.51 233.99 204.41 233.92 204.3 233.86 204.18 233.81 204.06 233.76 203.94 233.72 203.82 233.7 203.7 233.68 203.58 233.66 203.45 233.66 203.33 233.67 203.2 233.69 203.08 233.71 202.96 233.74 202.84 233.78 202.73 233.83 202.61 233.89 202.5 233.96 202.4 234.03 202.3 234.11 202.2 234.2 202.11 234.29 202.02 234.39 201.94 234.5 201.87 234.61 201.8 234.73 201.74 234.85 201.69 234.98 201.64 235.11 201.6 235.24 201.57 235.37 201.55 235.51 201.53 235.65 201.53 235.79 201.53 235.93 201.53 236.06 201.55 236.2 201.57 236.34 201.6 236.47 201.64 236.61 201.69 236.74 201.74 236.86 201.8 236.98 201.87 237.1 201.94 237.21 202.02 237.32 202.11 237.42 202.2 237.51 202.3 237.6 202.4 237.68 202.5 237.76 202.61 237.82 202.73 237.88 202.84 237.93 202.96 237.97 203.08 238 203.2 238.03 203.33 238.04 203.45 238.05 203.58 238.05 203.7 238.04 203.82 238.02 203.94 237.99 204.06 237.95 204.18 237.91 204.3 237.85 204.41 237.79 204.51 237.72 204.62 237.64 204.72 237.56 204.81 237.47 204.9 237.37 204.98 237.27 205.06 237.16 205.13 237.04 205.19 236.92 205.25 236.8 205.3 236.67 205.34 236.54 205.38 236.41 205.41 236.27 205.43 236.13 205.44 236 205.44 235.86"/></g><g id="ID000077"><line class="cls-5" x1="197.61" y1="223.89" x2="209.36" y2="223.89"/></g><g id="ID000078"><polygon class="cls-9" points="205.44 213.92 205.44 213.78 205.43 213.64 205.41 213.5 205.38 213.37 205.34 213.23 205.3 213.1 205.25 212.97 205.19 212.85 205.13 212.73 205.06 212.62 204.98 212.51 204.9 212.4 204.81 212.31 204.72 212.21 204.62 212.13 204.51 212.05 204.41 211.98 204.3 211.92 204.18 211.87 204.06 211.82 203.94 211.78 203.82 211.76 203.7 211.74 203.58 211.72 203.45 211.72 203.33 211.73 203.2 211.75 203.08 211.77 202.96 211.8 202.84 211.84 202.73 211.89 202.61 211.95 202.5 212.02 202.4 212.09 202.3 212.17 202.2 212.26 202.11 212.35 202.02 212.45 201.94 212.56 201.87 212.67 201.8 212.79 201.74 212.91 201.69 213.04 201.64 213.17 201.6 213.3 201.57 213.43 201.55 213.57 201.53 213.71 201.53 213.85 201.53 213.99 201.53 214.13 201.55 214.26 201.57 214.4 201.6 214.53 201.64 214.67 201.69 214.8 201.74 214.92 201.8 215.04 201.87 215.16 201.94 215.27 202.02 215.38 202.11 215.48 202.2 215.57 202.3 215.66 202.4 215.74 202.5 215.82 202.61 215.88 202.73 215.94 202.84 215.99 202.96 216.03 203.08 216.06 203.2 216.09 203.33 216.1 203.45 216.11 203.58 216.11 203.7 216.1 203.82 216.08 203.94 216.05 204.06 216.01 204.18 215.97 204.3 215.91 204.41 215.85 204.51 215.78 204.62 215.7 204.72 215.62 204.81 215.53 204.9 215.43 204.98 215.33 205.06 215.22 205.13 215.1 205.19 214.98 205.25 214.86 205.3 214.73 205.34 214.6 205.38 214.47 205.41 214.33 205.43 214.19 205.44 214.06 205.44 213.92"/></g><g id="ID000079"><line class="cls-5" x1="197.61" y1="201.95" x2="209.36" y2="201.95"/></g><g id="ID000080"><line class="cls-12" x1="214.86" y1="249.84" x2="221.47" y2="266.5"/></g><g id="ID000081"><polygon class="cls-9" points="219.53 253.49 218.85 255.83 219.06 257.72 219.5 259.5 220.16 263.18 218.16 260.17 217.28 258.61 216.16 257.17 214.16 256.16 219.53 253.49"/></g><g id="ID000083"><text class="cls-11" transform="translate(190.3 184.94) scale(0.89 1)">U</text></g><g id="ID000084"><text class="cls-11" transform="translate(190.04 173.97) scale(0.89 1)">G</text></g><g id="ID000085"><text class="cls-11" transform="translate(190.04 163) scale(0.89 1)">G</text></g><g id="ID000086"><text class="cls-1" transform="translate(182.96 152.03) scale(0.89 1)">U</text></g><g id="ID000087"><line class="cls-5" x1="179.82" y1="147.1" x2="173.29" y2="147.1"/></g><g id="ID000088"><text class="cls-6" transform="translate(162.86 152.03) scale(0.89 1)">30</text></g><g id="ID000089"><text class="cls-1" transform="translate(217.23 152.03) scale(0.89 1)">U</text></g><g id="ID000090"><text class="cls-11" transform="translate(209.89 163) scale(0.89 1)">C</text></g><g id="ID000091"><text class="cls-11" transform="translate(209.89 173.97) scale(0.89 1)">C</text></g><g id="ID000092"><text class="cls-10" transform="translate(210.15 184.94) scale(0.89 1)">A</text></g><g id="ID000093"><line class="cls-5" x1="197.61" y1="180.01" x2="209.36" y2="180.01"/></g><g id="ID000094"><line class="cls-5" x1="197.61" y1="169.04" x2="209.36" y2="169.04"/></g><g id="ID000095"><line class="cls-5" x1="197.61" y1="158.07" x2="209.36" y2="158.07"/></g><g id="ID000097"><text class="cls-4" transform="translate(183.22 138.32) scale(0.89 1)">A</text></g><g id="ID000098"><text class="cls-13" transform="translate(190.3 127.35) scale(0.89 1)">C</text></g><g id="ID000099"><text class="cls-13" transform="translate(190.3 116.38) scale(0.89 1)">C</text></g><g id="ID000100"><text class="cls-13" transform="translate(190.04 105.41) scale(0.89 1)">G</text></g><g id="ID000101"><text class="cls-4" transform="translate(183.22 94.44) scale(0.89 1)">A</text></g><g id="ID000102"><text class="cls-1" transform="translate(190.04 83.47) scale(0.89 1)">G</text></g><g id="ID000103"><text class="cls-1" transform="translate(209.89 83.47) scale(0.89 1)">C</text></g><g id="ID000104"><text class="cls-1" transform="translate(217.23 94.44) scale(0.89 1)">U</text></g><g id="ID000105"><text class="cls-13" transform="translate(209.89 105.41) scale(0.89 1)">C</text></g><g id="ID000106"><text class="cls-13" transform="translate(209.63 116.38) scale(0.89 1)">G</text></g><g id="ID000107"><line class="cls-5" x1="219.8" y1="111.44" x2="226.33" y2="111.44"/></g><g id="ID000108"><text class="cls-6" transform="translate(226.33 116.38) scale(0.89 1)">40</text></g><g id="ID000109"><text class="cls-13" transform="translate(209.63 127.35) scale(0.89 1)">G</text></g><g id="ID000110"><text class="cls-4" transform="translate(217.49 138.32) scale(0.89 1)">A</text></g><g id="ID000111"><line class="cls-5" x1="197.61" y1="122.41" x2="209.36" y2="122.41"/></g><g id="ID000112"><line class="cls-5" x1="197.61" y1="111.44" x2="209.36" y2="111.44"/></g><g id="ID000113"><line class="cls-5" x1="197.61" y1="100.47" x2="209.36" y2="100.47"/></g><g id="ID000114"><line class="cls-12" x1="197.61" y1="78.53" x2="209.36" y2="78.53"/></g><g id="ID000115"><polygon class="cls-9" points="200.22 75.24 201.85 76.89 203.48 77.44 205.12 77.71 208.38 78.53 205.12 79.36 203.48 79.63 201.85 80.18 200.22 81.83 200.22 75.24"/></g><g id="ID000117"><text class="cls-14" transform="translate(219.94 275.45) scale(0.89 1)">A</text></g><g id="ID000118"><text class="cls-15" transform="translate(229.73 275.45) scale(0.89 1)">A</text></g><g id="ID000119"><text class="cls-16" transform="translate(239.26 275.45) scale(0.89 1)">C</text></g><g id="ID000120"><text class="cls-16" transform="translate(248.79 275.45) scale(0.89 1)">G</text></g><g id="ID000121"><text class="cls-16" transform="translate(258.58 275.45) scale(0.89 1)">G</text></g><g id="ID000122"><text class="cls-1" transform="translate(268.37 264.48) scale(0.89 1)">G</text></g><g id="ID000123"><text class="cls-1" transform="translate(268.37 308.36) scale(0.89 1)">G</text></g><g id="ID000124"><line class="cls-5" x1="272.02" y1="310.73" x2="272.02" y2="318.05"/></g><g id="ID000125"><text class="cls-6" transform="translate(266.8 330.99) scale(0.89 1)">80</text></g><g id="ID000126"><text class="cls-16" transform="translate(258.84 297.39) scale(0.89 1)">U</text></g><g id="ID000127"><text class="cls-16" transform="translate(249.05 297.39) scale(0.89 1)">C</text></g><g id="ID000128"><text class="cls-16" transform="translate(239 297.39) scale(0.89 1)">G</text></g><g id="ID000129"><text class="cls-16" transform="translate(229.47 297.39) scale(0.89 1)">U</text></g><g id="ID000130"><text class="cls-16" transform="translate(219.68 297.39) scale(0.89 1)">U</text></g><g id="ID000131"><text class="cls-1" transform="translate(212.33 308.36) scale(0.89 1)">C</text></g><g id="ID000132"><text class="cls-1" transform="translate(217.23 322.07) scale(0.89 1)">U</text></g><g id="ID000133"><text class="cls-1" transform="translate(212.33 335.78) scale(0.89 1)">U</text></g><g id="ID000134"><text class="cls-1" transform="translate(204.73 346.75) scale(0.89 1)">G</text></g><g id="ID000135"><line class="cls-5" x1="223.07" y1="274.9" x2="223.07" y2="288.06"/></g><g id="ID000136"><line class="cls-5" x1="232.86" y1="274.9" x2="232.86" y2="288.06"/></g><g id="ID000137"><line class="cls-5" x1="242.65" y1="274.9" x2="242.65" y2="288.06"/></g><g id="ID000138"><line class="cls-5" x1="252.44" y1="274.9" x2="252.44" y2="288.06"/></g><g id="ID000139"><polygon class="cls-9" points="262.23 284.67 262.36 284.67 262.48 284.66 262.6 284.63 262.72 284.6 262.84 284.56 262.96 284.52 263.07 284.46 263.18 284.4 263.29 284.32 263.39 284.25 263.49 284.16 263.58 284.07 263.67 283.97 263.75 283.86 263.83 283.75 263.89 283.64 263.96 283.52 264.01 283.39 264.06 283.26 264.1 283.13 264.13 283 264.16 282.86 264.18 282.72 264.19 282.58 264.19 282.44 264.18 282.31 264.17 282.17 264.15 282.03 264.12 281.89 264.08 281.76 264.04 281.63 263.99 281.5 263.93 281.38 263.86 281.26 263.79 281.15 263.71 281.04 263.63 280.94 263.54 280.84 263.44 280.75 263.34 280.67 263.24 280.6 263.13 280.53 263.02 280.47 262.9 280.42 262.78 280.37 262.66 280.34 262.54 280.31 262.42 280.3 262.29 280.29 262.17 280.29 262.05 280.3 261.92 280.31 261.8 280.34 261.68 280.37 261.56 280.42 261.45 280.47 261.33 280.53 261.23 280.6 261.12 280.67 261.02 280.75 260.93 280.84 260.84 280.94 260.75 281.04 260.67 281.15 260.6 281.26 260.54 281.38 260.48 281.5 260.43 281.63 260.38 281.76 260.34 281.89 260.31 282.03 260.29 282.17 260.28 282.31 260.27 282.44 260.27 282.58 260.29 282.72 260.3 282.86 260.33 283 260.36 283.13 260.4 283.26 260.45 283.39 260.5 283.52 260.57 283.64 260.64 283.75 260.71 283.86 260.79 283.97 260.88 284.07 260.97 284.16 261.07 284.25 261.17 284.32 261.28 284.4 261.39 284.46 261.5 284.52 261.62 284.56 261.74 284.6 261.86 284.63 261.98 284.66 262.11 284.67 262.23 284.67"/></g><g id="ID000141"><text class="cls-17" transform="translate(278.43 275.45) scale(0.89 1)">C</text></g><g id="ID000142"><text class="cls-17" transform="translate(288.22 275.45) scale(0.89 1)">C</text></g><g id="ID000143"><line class="cls-5" x1="291.61" y1="263.2" x2="291.61" y2="255.88"/></g><g id="ID000144"><text class="cls-6" transform="translate(286.39 253.14) scale(0.89 1)">60</text></g><g id="ID000145"><text class="cls-17" transform="translate(297.75 275.45) scale(0.89 1)">G</text></g><g id="ID000146"><text class="cls-1" transform="translate(305.35 322.07) scale(0.89 1)">U</text></g><g id="ID000147"><text class="cls-1" transform="translate(302.9 308.36) scale(0.89 1)">U</text></g><g id="ID000148"><text class="cls-17" transform="translate(298.01 297.39) scale(0.89 1)">C</text></g><g id="ID000149"><text class="cls-17" transform="translate(287.96 297.39) scale(0.89 1)">G</text></g><g id="ID000150"><text class="cls-17" transform="translate(278.16 297.39) scale(0.89 1)">G</text></g><g id="ID000151"><line class="cls-5" x1="281.81" y1="274.9" x2="281.81" y2="288.06"/></g><g id="ID000152"><line class="cls-5" x1="291.61" y1="274.9" x2="291.61" y2="288.06"/></g><g id="ID000153"><line class="cls-12" x1="305.31" y1="270.51" x2="321.96" y2="270.51"/></g><g id="ID000154"><polygon class="cls-9" points="310.37 267.22 312 268.86 313.64 269.41 315.27 269.69 318.53 270.51 315.27 271.33 313.64 271.61 312 272.15 310.37 273.8 310.37 267.22"/></g><g id="ID000155"><line class="cls-5" x1="301.4" y1="274.9" x2="301.4" y2="288.06"/></g><g id="ID000157"><text class="cls-18" transform="translate(322.49 275.45) scale(0.89 1)">C</text></g><g id="ID000158"><text class="cls-18" transform="translate(332.28 275.45) scale(0.89 1)">C</text></g><g id="ID000159"><text class="cls-19" transform="translate(342.33 275.45) scale(0.89 1)">A</text></g><g id="ID000160"><text class="cls-18" transform="translate(351.6 275.45) scale(0.89 1)">G</text></g><g id="ID000161"><text class="cls-1" transform="translate(361.65 271.71) scale(0.89 1)">U</text></g><g id="ID000162"><text class="cls-1" transform="translate(368.74 286.42) scale(0.89 1)">G</text></g><g id="ID000163"><text class="cls-1" transform="translate(361.65 300.13) scale(0.89 1)">U</text></g><g id="ID000164"><text class="cls-18" transform="translate(351.86 297.39) scale(0.89 1)">C</text></g><g id="ID000165"><text class="cls-18" transform="translate(342.07 297.39) scale(0.89 1)">U</text></g><g id="ID000166"><line class="cls-5" x1="345.46" y1="299.76" x2="345.46" y2="307.08"/></g><g id="ID000167"><text class="cls-6" transform="translate(340.24 320.02) scale(0.89 1)">70</text></g><g id="ID000168"><text class="cls-18" transform="translate(332.02 297.39) scale(0.89 1)">G</text></g><g id="ID000169"><text class="cls-18" transform="translate(322.23 297.39) scale(0.89 1)">G</text></g><g id="ID000170"><text class="cls-20" transform="translate(320.3 308.36) scale(0.89 1)">A</text></g><g id="ID000171"><text class="cls-20" transform="translate(317.85 322.07) scale(0.89 1)">A</text></g><g id="ID000172"><line class="cls-5" x1="325.88" y1="274.9" x2="325.88" y2="288.06"/></g><g id="ID000173"><line class="cls-5" x1="335.67" y1="274.9" x2="335.67" y2="288.06"/></g><g id="ID000174"><line class="cls-5" x1="345.46" y1="274.9" x2="345.46" y2="288.06"/></g><g id="ID000175"><line class="cls-5" x1="355.25" y1="274.9" x2="355.25" y2="288.06"/></g></g></g><text class="cls-21" transform="translate(134.21 47.13)">C52 aptamer</text><text class="cls-21" transform="translate(7.91 278.91)">5<tspan class="cls-22" x="11.12" y="0">’</tspan></text><text class="cls-21" transform="translate(36.28 300.8)">3<tspan class="cls-22" x="11.12" y="0">’</tspan></text></svg>