<?xml version="1.0" encoding="utf-8"?>
<!-- Generator: Adobe Illustrator 25.2.0, SVG Export Plug-In . SVG Version: 6.00 Build 0)  -->
<svg version="1.1" id="_图层_1" xmlns="http://www.w3.org/2000/svg" xmlns:xlink="http://www.w3.org/1999/xlink" x="0px" y="0px"
	 viewBox="0 0 800 400" style="enable-background:new 0 0 800 400;" xml:space="preserve">
<style type="text/css">
	.st0{fill:#FFC0CB;}
	.st1{fill:none;stroke:#000000;stroke-width:1.3;stroke-linejoin:round;}
	.st2{fill:#09FEFE;}
	.st3{fill:#C2C2FF;}
	.st4{font-family:'ArialMT';}
	.st5{font-size:23px;}
	.st6{font-size:22px;}
	.st7{font-size:27px;}
</style>
<path class="st0" d="M124.4,163.7v-2.6h9.5v8.3c-1.4,1.1-2.9,2-4.5,2.6c-1.5,0.6-3.1,0.9-4.8,0.9c-2.1,0-4.1-0.5-6-1.4
	c-1.8-0.9-3.2-2.3-4.1-4.1c-0.9-1.9-1.4-3.9-1.4-6s0.4-4.2,1.4-6.1c0.8-1.8,2.2-3.3,3.9-4.2c1.8-0.9,3.8-1.4,5.9-1.4
	c1.5,0,3,0.2,4.4,0.8c1.2,0.4,2.3,1.2,3.1,2.2c0.8,1.1,1.4,2.3,1.7,3.7l-2.7,0.7c-0.3-1-0.7-1.9-1.2-2.7c-0.6-0.7-1.3-1.2-2.1-1.6
	c-1-0.4-2-0.6-3.1-0.6c-1.2,0-2.4,0.2-3.5,0.6c-0.9,0.4-1.7,0.9-2.4,1.6c-0.6,0.7-1.1,1.4-1.4,2.2c-0.6,1.4-0.9,3-0.8,4.5
	c0,1.7,0.3,3.4,1,5c0.6,1.3,1.7,2.4,3,3c1.3,0.7,2.7,1,4.2,1c1.3,0,2.6-0.3,3.7-0.7c1-0.4,1.9-0.9,2.8-1.6v-4.2h-6.5L124.4,163.7z"
	/>
<path class="st0" d="M151.6,163v-2.6h9.5v8.3c-1.4,1.1-2.9,2-4.5,2.6c-1.5,0.6-3.1,0.9-4.8,0.9c-2.1,0-4.1-0.5-6-1.4
	c-1.8-0.9-3.2-2.3-4.1-4.1c-0.9-1.9-1.4-3.9-1.4-6s0.4-4.2,1.4-6.1c0.8-1.8,2.2-3.3,3.9-4.2c1.8-0.9,3.8-1.4,5.9-1.4
	c1.5,0,3,0.2,4.4,0.8c1.2,0.4,2.3,1.2,3.1,2.2c0.8,1.1,1.4,2.3,1.7,3.7l-2.7,0.7c-0.3-1-0.7-1.9-1.2-2.7c-0.6-0.7-1.3-1.2-2.1-1.6
	c-1-0.4-2-0.6-3.1-0.6c-1.2,0-2.4,0.2-3.5,0.6c-0.9,0.4-1.7,0.9-2.4,1.6c-0.6,0.6-1.1,1.4-1.4,2.2c-0.6,1.4-0.9,3-0.9,4.5
	c0,1.7,0.3,3.4,1,5c0.6,1.3,1.7,2.4,3,3c1.3,0.7,2.7,1,4.2,1c1.3,0,2.6-0.3,3.8-0.7c1-0.4,1.9-0.9,2.8-1.6v-4.2h-6.5L151.6,163z"/>
<path class="st0" d="M169,170.1l8.6-22.4h3.2l9.1,22.4h-3.4l-2.6-6.8h-9.3l-2.4,6.8H169L169,170.1z M175.5,160.9h7.6l-2.3-6.2
	c-0.7-1.9-1.2-3.4-1.6-4.6c-0.3,1.5-0.7,2.9-1.2,4.3l-2.5,6.6V160.9z"/>
<path class="st0" d="M193.6,170.5l8.6-22.3h3.2l9.2,22.3h-3.4l-2.6-6.8h-9.3l-2.4,6.8h-3.2H193.6z M200,161.3h7.6l-2.3-6.2
	c-0.7-1.9-1.2-3.4-1.6-4.6c-0.3,1.5-0.7,2.9-1.2,4.3l-2.5,6.6V161.3z"/>
<path class="st0" d="M229.4,162v-2.6h9.5v8.3c-1.4,1.1-2.9,2-4.5,2.6c-1.5,0.6-3.1,0.9-4.8,0.9c-2.1,0-4.1-0.5-6-1.4
	c-1.7-0.9-3.2-2.3-4.1-4.1c-0.9-1.9-1.4-3.9-1.4-6s0.5-4.2,1.4-6.1c0.8-1.8,2.2-3.3,3.9-4.2c1.8-0.9,3.9-1.4,5.9-1.4
	c1.5,0,3,0.2,4.4,0.8c1.2,0.5,2.3,1.2,3.1,2.2c0.8,1.1,1.4,2.3,1.7,3.7l-2.7,0.7c-0.2-1-0.7-1.9-1.2-2.7c-0.6-0.7-1.3-1.2-2.1-1.6
	c-1-0.4-2-0.6-3.1-0.6c-1.2,0-2.4,0.2-3.5,0.6c-0.9,0.4-1.7,0.9-2.4,1.6c-0.6,0.7-1.1,1.4-1.4,2.2c-0.6,1.4-0.9,3-0.9,4.5
	c0,1.7,0.3,3.4,1,5c0.6,1.3,1.7,2.4,3,3c1.3,0.7,2.7,1,4.2,1c2.4,0,4.7-0.9,6.5-2.3v-4.2h-6.6L229.4,162z"/>
<path class="st0" d="M243,169l8.6-22.3h3.2L264,169h-3.4l-2.6-6.8h-9.3l-2.5,6.8H243z M249.4,159.8h7.6l-2.3-6.2
	c-0.7-1.9-1.2-3.4-1.6-4.6c-0.3,1.5-0.7,2.9-1.2,4.3L249.4,159.8z"/>
<path class="st0" d="M278.5,161.4v-2.6h9.5v8.3c-1.4,1.1-2.9,2-4.5,2.6c-1.5,0.6-3.1,0.9-4.8,0.9c-2.1,0-4.1-0.5-6-1.4
	c-1.8-0.9-3.2-2.3-4.1-4.1c-0.9-1.9-1.4-3.9-1.4-6s0.5-4.2,1.4-6.1c0.8-1.8,2.2-3.3,3.9-4.2c1.8-0.9,3.8-1.4,5.9-1.4
	c1.5,0,3,0.2,4.4,0.8c1.2,0.4,2.3,1.2,3.1,2.2c0.8,1.1,1.4,2.3,1.7,3.7l-2.7,0.7c-0.3-1-0.7-1.9-1.3-2.7c-0.6-0.7-1.3-1.2-2.1-1.6
	c-1-0.4-2-0.6-3.1-0.6c-1.2,0-2.4,0.2-3.5,0.6c-0.9,0.4-1.7,0.9-2.4,1.6c-0.6,0.6-1.1,1.4-1.4,2.2c-0.6,1.4-0.9,3-0.9,4.5
	c0,1.7,0.3,3.4,1,5c0.6,1.3,1.7,2.4,3,3c1.3,0.7,2.7,1,4.2,1c1.3,0,2.6-0.2,3.8-0.7c1-0.4,1.9-0.9,2.8-1.6v-4.1h-6.6L278.5,161.4z"
	/>
<path class="st0" d="M290.7,168.5l8.6-22.3h3.2l9.1,22.3h-3.4l-2.6-6.8h-9.3l-2.5,6.8H290.7L290.7,168.5z M297.2,159.3h7.6l-2.3-6.2
	c-0.7-1.9-1.2-3.4-1.6-4.6c-0.3,1.5-0.7,2.9-1.2,4.3l-2.5,6.6V159.3z"/>
<path class="st0" d="M330.2,146.8h3v12.9c0,1.8-0.2,3.6-0.8,5.3c-0.5,1.4-1.5,2.5-2.8,3.2c-1.6,0.9-3.4,1.3-5.2,1.2
	c-1.8,0-3.5-0.3-5.1-1.1c-1.3-0.7-2.3-1.8-2.9-3.1c-0.6-1.8-0.9-3.7-0.9-5.6v-12.9h3v12.9c0,1.5,0.1,2.9,0.5,4.3
	c0.3,0.9,1,1.7,1.8,2.1c1,0.5,2.1,0.8,3.2,0.7c2.2,0,3.7-0.5,4.6-1.5s1.4-2.9,1.4-5.7v-12.9L330.2,146.8z"/>
<path class="st0" d="M348.3,161v-2.6h9.5v8.3c-1.4,1.1-2.9,2-4.5,2.6c-1.5,0.6-3.1,0.9-4.8,0.9c-2.1,0-4.1-0.5-6-1.4
	c-1.8-0.9-3.2-2.3-4.1-4.1c-0.9-1.9-1.4-3.9-1.4-6s0.4-4.2,1.4-6.1c0.8-1.8,2.2-3.3,3.9-4.2c1.8-0.9,3.8-1.4,5.9-1.4
	c1.5,0,3,0.2,4.4,0.8c1.2,0.4,2.3,1.2,3.1,2.2c0.8,1.1,1.4,2.3,1.7,3.7l-2.7,0.7c-0.2-1-0.7-1.9-1.2-2.7c-0.6-0.7-1.3-1.2-2.1-1.6
	c-1-0.4-2-0.6-3.1-0.6c-1.2,0-2.4,0.2-3.5,0.6c-0.9,0.4-1.7,0.9-2.4,1.6c-0.6,0.7-1.1,1.4-1.4,2.2c-0.6,1.4-0.9,3-0.9,4.5
	c0,1.7,0.3,3.4,1,5c0.6,1.3,1.7,2.4,3,3c1.3,0.7,2.7,1,4.2,1c1.3,0,2.6-0.3,3.7-0.7c1-0.4,1.9-0.9,2.8-1.6v-4.2h-6.5V161z"/>
<line class="st1" x1="347.7" y1="141" x2="347.7" y2="125.4"/>
<path d="M340.5,115.5h-2.2v-15.4c-0.7,0.6-1.4,1.2-2.1,1.7c-0.7,0.5-1.6,0.9-2.4,1.2v-2.4c1.2-0.6,2.3-1.4,3.3-2.3
	c0.8-0.7,1.5-1.7,2-2.6h1.5V115.5L340.5,115.5z M346.3,105.8c0-1.9,0.2-3.8,0.7-5.6c0.3-1.2,1.1-2.4,2-3.3c1-0.8,2.1-1.2,3.3-1.1
	c0.9,0,1.8,0.2,2.5,0.6c0.7,0.4,1.4,1.1,1.8,1.8c0.5,0.9,0.9,1.8,1.1,2.9c0.3,1.5,0.4,3.1,0.4,4.7c0,1.8-0.2,3.8-0.7,5.5
	c-0.3,1.2-1.1,2.4-2,3.3c-2.3,1.8-5.6,1.5-7.5-0.9c-1.2-1.7-1.9-4.3-1.9-8l0,0L346.3,105.8z M348.6,105.8c0,3.3,0.3,5.4,1.1,6.4
	c0.8,1.6,2.7,2.1,4.1,1.1c0.5-0.3,0.8-0.7,1.1-1.1c0.7-1.1,1.1-3.3,1.1-6.4s-0.3-5.4-1.1-6.4c-0.6-1-1.6-1.6-2.6-1.6
	c-1,0-1.9,0.5-2.5,1.4C348.9,100.4,348.5,102.7,348.6,105.8L348.6,105.8L348.6,105.8z"/>
<path class="st2" d="M371.6,160v-2.6h9.5v8.3c-1.4,1.1-2.9,2-4.5,2.6c-1.5,0.6-3.1,0.9-4.8,0.9c-2.1,0-4.1-0.5-6-1.4
	c-1.7-0.9-3.2-2.3-4.1-4.1c-0.9-1.9-1.4-3.9-1.4-6s0.4-4.2,1.4-6.1c0.8-1.8,2.2-3.3,3.9-4.2c1.8-0.9,3.9-1.4,5.9-1.4
	c1.5,0,3,0.2,4.4,0.8c1.2,0.4,2.3,1.2,3.1,2.2c0.8,1.1,1.4,2.3,1.7,3.7l-2.7,0.7c-0.2-1-0.7-1.9-1.2-2.7c-0.6-0.7-1.3-1.2-2.1-1.6
	c-1-0.4-2-0.6-3.1-0.6c-1.2,0-2.4,0.2-3.5,0.6c-0.9,0.4-1.7,0.9-2.4,1.6c-0.6,0.7-1.1,1.4-1.4,2.2c-0.6,1.4-0.9,3-0.9,4.5
	c0,1.7,0.3,3.4,1,5c0.6,1.3,1.7,2.4,3,3c1.3,0.7,2.7,1,4.2,1c1.3,0,2.6-0.3,3.8-0.7c1-0.4,1.9-0.9,2.8-1.6v-4.2h-6.5L371.6,160z"/>
<path class="st2" d="M401.5,161l3,0.8c-0.5,2.2-1.6,4.1-3.4,5.6c-1.7,1.3-3.8,2-5.9,1.9c-2.1,0-4.1-0.4-5.9-1.5
	c-1.6-1-2.8-2.5-3.4-4.3c-0.8-1.9-1.2-3.9-1.2-6s0.4-4.2,1.3-6.1c0.8-1.7,2.1-3.1,3.8-4c1.7-0.9,3.5-1.4,5.4-1.4c2,0,4,0.5,5.6,1.7
	s2.7,2.9,3.2,4.8l-2.9,0.7c-0.4-1.4-1.2-2.6-2.3-3.6c-1.1-0.8-2.4-1.2-3.7-1.1c-1.5,0-3,0.4-4.3,1.2c-1.1,0.8-2,2-2.4,3.3
	c-0.5,1.4-0.7,2.8-0.7,4.3c0,1.7,0.2,3.4,0.8,5c0.5,1.3,1.4,2.4,2.6,3.2c1.1,0.7,2.5,1,3.8,1c1.5,0,3-0.5,4.2-1.4
	c1.2-1.1,2-2.6,2.3-4.2L401.5,161z"/>
<path class="st2" d="M418.3,160v-2.6h9.5v8.3c-1.4,1.1-2.9,2-4.5,2.6c-1.5,0.6-3.1,0.9-4.8,0.9c-2.1,0-4.1-0.5-6-1.4
	c-1.8-0.9-3.2-2.3-4.1-4.1c-0.9-1.9-1.4-3.9-1.4-6s0.5-4.2,1.4-6.1c0.8-1.8,2.2-3.3,3.9-4.2c1.8-0.9,3.9-1.4,5.9-1.4
	c1.5,0,3,0.2,4.4,0.8c1.2,0.4,2.3,1.2,3.1,2.2c0.8,1.1,1.4,2.3,1.7,3.7l-2.7,0.7c-0.2-1-0.7-1.9-1.2-2.7c-0.6-0.7-1.3-1.2-2.1-1.6
	c-1-0.4-2-0.6-3.1-0.6c-1.2,0-2.4,0.2-3.5,0.6c-0.9,0.4-1.7,0.9-2.4,1.6c-0.6,0.7-1.1,1.4-1.4,2.2c-0.6,1.4-0.9,3-0.9,4.5
	c0,1.7,0.3,3.4,1,5c0.6,1.3,1.7,2.4,3,3c1.3,0.7,2.7,1,4.2,1c1.3,0,2.6-0.3,3.8-0.7c1-0.4,1.9-0.9,2.8-1.6v-4.2h-6.5L418.3,160z"/>
<path class="st2" d="M430.5,168.8l8.6-22.4h3.2l9.1,22.4H448l-2.6-6.8h-9.3l-2.5,6.8H430.5L430.5,168.8z M437,159.6h7.6l-2.3-6.2
	c-0.7-1.9-1.2-3.4-1.6-4.6c-0.3,1.5-0.7,2.9-1.2,4.3l-2.5,6.6V159.6z"/>
<path class="st2" d="M471.5,159l3,0.8c-0.5,2.2-1.6,4.1-3.3,5.6c-1.7,1.3-3.8,2-5.9,1.9c-2.1,0-4.1-0.4-5.9-1.5
	c-1.6-1-2.8-2.5-3.5-4.3c-0.8-1.9-1.2-3.9-1.2-6s0.4-4.2,1.3-6.1c0.8-1.7,2.2-3.1,3.8-4c1.7-0.9,3.5-1.4,5.4-1.4c2,0,4,0.5,5.6,1.7
	s2.7,2.9,3.2,4.8l-2.9,0.7c-0.4-1.4-1.2-2.6-2.3-3.6c-1.1-0.8-2.4-1.2-3.7-1.1c-1.5,0-3,0.4-4.3,1.2c-1.1,0.8-2,2-2.4,3.3
	c-0.5,1.4-0.7,2.8-0.7,4.3c0,1.7,0.2,3.4,0.8,5c0.5,1.3,1.4,2.4,2.6,3.2c1.1,0.7,2.5,1,3.8,1c1.5,0,3-0.5,4.2-1.4
	c1.2-1.1,2-2.6,2.3-4.2L471.5,159z"/>
<path class="st3" d="M487.7,123.1h3V136c0,1.8-0.2,3.6-0.8,5.4c-0.5,1.3-1.5,2.5-2.8,3.2c-1.6,0.9-3.4,1.3-5.2,1.2
	c-1.8,0-3.5-0.3-5.1-1.1c-1.3-0.7-2.3-1.8-2.9-3.1c-0.6-1.8-0.9-3.7-0.9-5.6v-12.9h3V136c0,1.5,0.1,2.9,0.5,4.3
	c0.3,0.9,1,1.7,1.9,2.1c1,0.5,2.1,0.8,3.2,0.8c2.2,0,3.7-0.5,4.6-1.5s1.4-2.9,1.4-5.7L487.7,123.1L487.7,123.1z"/>
<path class="st3" d="M497.5,128l8.6-22.3h3.2l9.1,22.3H515l-2.6-6.8h-9.3l-2.5,6.8H497.5L497.5,128z M504,118.8h7.6l-2.3-6.2
	c-0.7-1.9-1.2-3.4-1.6-4.6c-0.3,1.5-0.7,2.9-1.2,4.3l-2.4,6.6L504,118.8z"/>
<path class="st3" d="M521.8,118.3l8.6-22.3h3.2l9.1,22.3h-3.4l-2.6-6.8h-9.3l-2.4,6.7h-3.2L521.8,118.3z M528.3,109.1h7.6l-2.3-6.2
	c-0.7-1.9-1.2-3.4-1.6-4.6c-0.3,1.5-0.7,2.9-1.2,4.3l-2.4,6.6L528.3,109.1z"/>
<path class="st3" d="M541.3,133.8l8.6-22.3h3.2l9.2,22.3h-3.4l-2.6-6.8H547l-2.5,6.8h-3.1H541.3z M547.8,124.6h7.6l-2.4-6.2
	c-0.7-1.9-1.2-3.4-1.6-4.6c-0.3,1.5-0.7,2.9-1.2,4.3l-2.4,6.6L547.8,124.6z"/>
<path class="st3" d="M558.8,151.3l8.6-22.3h3.2l9.2,22.4h-3.4l-2.6-6.8h-9.3l-2.4,6.7L558.8,151.3L558.8,151.3z M565.3,142.1h7.6
	l-2.3-6.2c-0.7-1.9-1.2-3.4-1.6-4.6c-0.3,1.5-0.7,2.9-1.2,4.3l-2.4,6.6L565.3,142.1z"/>
<line class="st1" x1="584.9" y1="139" x2="600.5" y2="139"/>
<path d="M613.7,146.3v2.3h-12.3c0-0.6,0-1.1,0.2-1.7c0.3-1,0.8-1.8,1.5-2.6c0.9-1.1,1.9-2.1,3-3c1.5-1.2,2.9-2.6,4.1-4.1
	c0.7-0.8,1-1.8,1.1-2.9c0-0.9-0.3-1.8-1-2.5s-1.6-1.1-2.5-1c-1,0-1.9,0.4-2.7,1.1c-0.7,0.8-1.1,1.8-1,2.9l-2.3-0.3
	c0-1.6,0.7-3.1,1.8-4.2c1.2-1.1,2.7-1.6,4.2-1.5c1.6,0,3.1,0.4,4.2,1.6c1,1,1.6,2.4,1.6,3.9c0,0.8-0.2,1.6-0.4,2.3
	c-0.4,0.9-0.9,1.7-1.5,2.4c-1.1,1.2-2.2,2.4-3.5,3.4c-1.3,1.2-2.2,2-2.7,2.5c-0.3,0.4-0.7,0.8-1,1.3h9.1L613.7,146.3z M616.1,138.9
	c0-1.9,0.2-3.8,0.7-5.6c0.3-1.2,1.1-2.4,2-3.2c0.9-0.8,2.2-1.2,3.3-1.1c0.9,0,1.8,0.2,2.7,0.6c0.7,0.4,1.4,1.1,1.8,1.8
	c0.5,0.9,0.9,1.8,1.2,2.9c0.3,1.5,0.4,3.1,0.4,4.6c0,1.8-0.2,3.8-0.7,5.6c-0.3,1.2-1.1,2.4-2,3.2c-1,0.8-2.2,1.2-3.4,1.1
	c-1.7,0-3.2-0.7-4.2-2C616.7,145.2,616,142.6,616.1,138.9L616.1,138.9z M618.5,138.9c0,3.2,0.3,5.4,1.1,6.4c0.8,1.6,2.7,2.1,4.2,1.1
	c0.5-0.3,0.8-0.7,1.1-1.1c0.7-1.1,1.1-3.2,1.1-6.4c0-3.2-0.3-5.4-1.1-6.4c-0.6-1-1.6-1.6-2.7-1.6c-1,0-1.9,0.5-2.5,1.4
	C618.8,133.5,618.5,135.7,618.5,138.9L618.5,138.9L618.5,138.9z"/>
<path class="st3" d="M582.3,172.6l3,0.8c-0.5,2.2-1.6,4.1-3.3,5.6c-1.7,1.3-3.8,2-5.9,1.9c-2.1,0-4.1-0.4-5.9-1.5
	c-1.6-1-2.8-2.5-3.5-4.3c-0.8-1.9-1.2-3.9-1.2-6s0.4-4.2,1.3-6.1c0.8-1.7,2.2-3,3.8-3.9c1.7-0.9,3.5-1.4,5.4-1.4c2,0,4,0.5,5.6,1.7
	s2.7,2.9,3.2,4.8l-2.9,0.7c-0.4-1.4-1.2-2.6-2.2-3.6c-1.1-0.8-2.4-1.2-3.7-1.1c-1.5,0-3,0.4-4.3,1.2c-1.1,0.8-2,2-2.4,3.3
	c-1,3-0.9,6.3,0.1,9.3c0.5,1.3,1.4,2.4,2.6,3.2c1.1,0.7,2.5,1.1,3.8,1.1c1.5,0,3-0.5,4.2-1.4c1.2-1.1,2-2.6,2.3-4.2L582.3,172.6z"/>
<path class="st3" d="M575.8,200.9v-2.6h9.5v8.3c-1.4,1.1-2.9,2-4.5,2.6c-1.5,0.6-3.1,0.9-4.8,0.9c-2.1,0-4.1-0.5-6-1.4
	c-1.8-0.9-3.2-2.3-4.1-4.1c-0.9-1.9-1.4-3.9-1.4-6s0.4-4.2,1.4-6.1c0.8-1.8,2.2-3.3,3.9-4.2c1.8-0.9,3.8-1.4,5.9-1.4
	c1.5,0,3,0.2,4.4,0.8c1.2,0.4,2.3,1.2,3.1,2.2c0.8,1.1,1.4,2.3,1.7,3.7l-2.7,0.7c-0.3-1-0.7-1.9-1.2-2.7c-0.6-0.7-1.3-1.2-2.1-1.6
	c-1-0.4-2-0.6-3.1-0.6c-1.2,0-2.4,0.2-3.5,0.6c-0.9,0.4-1.7,0.9-2.4,1.6c-0.6,0.6-1.1,1.4-1.4,2.2c-0.6,1.4-0.9,3-0.9,4.5
	c0,1.7,0.3,3.4,1,5c0.6,1.3,1.7,2.4,3,3c1.3,0.7,2.7,1,4.2,1c1.3,0,2.6-0.3,3.7-0.7c1-0.4,1.9-0.9,2.8-1.6v-4.2h-6.5L575.8,200.9z"
	/>
<path class="st3" d="M553,233l8.6-22.4h3.2L574,233h-3.4l-2.6-6.8h-9.3l-2.5,6.8H553z M559.5,223.8h7.5l-2.3-6.2
	c-0.7-1.9-1.2-3.4-1.6-4.6c-0.3,1.5-0.7,2.9-1.2,4.3l-2.4,6.6V223.8z"/>
<path class="st3" d="M547.3,236.8l3,0.8c-0.5,2.2-1.6,4.1-3.3,5.6c-1.7,1.3-3.8,2-6,1.9c-2.1,0-4.1-0.4-5.9-1.5
	c-1.6-1-2.8-2.5-3.4-4.3c-0.8-1.9-1.2-3.9-1.2-6s0.4-4.2,1.3-6.1c0.8-1.7,2.2-3,3.8-3.9c1.7-0.9,3.5-1.4,5.4-1.4c2,0,4,0.5,5.6,1.7
	s2.7,2.9,3.2,4.8l-2.9,0.7c-0.4-1.4-1.1-2.6-2.2-3.6c-1.1-0.8-2.4-1.2-3.7-1.1c-1.5,0-3,0.4-4.3,1.2c-1.1,0.8-2,2-2.4,3.3
	c-0.5,1.4-0.7,2.8-0.7,4.3c0,1.7,0.2,3.4,0.8,5c0.5,1.3,1.4,2.4,2.6,3.2c1.1,0.7,2.5,1.1,3.8,1.1c1.5,0,3.1-0.5,4.2-1.5
	C546.2,239.9,547,238.4,547.3,236.8L547.3,236.8z"/>
<path class="st3" d="M516.9,222.3h3v12.9c0,1.8-0.2,3.6-0.8,5.4c-0.5,1.3-1.5,2.5-2.8,3.2c-1.6,0.9-3.4,1.3-5.2,1.2
	c-1.8,0-3.5-0.3-5.1-1.1c-1.3-0.7-2.3-1.8-2.9-3.1c-0.6-1.8-0.9-3.7-0.9-5.6v-12.9h3v12.9c0,1.5,0.1,2.9,0.5,4.3
	c0.3,0.9,1,1.7,1.9,2.1c1,0.5,2.1,0.8,3.2,0.7c2.2,0,3.7-0.5,4.6-1.5c0.9-1,1.4-2.9,1.4-5.7v-12.9L516.9,222.3z"/>
<path class="st3" d="M493.5,210.6h3v12.9c0,1.8-0.2,3.6-0.8,5.4c-0.5,1.3-1.5,2.5-2.7,3.2c-1.6,0.9-3.4,1.3-5.2,1.2
	c-1.8,0-3.5-0.3-5.1-1.1c-1.3-0.7-2.3-1.8-2.9-3.1c-0.6-1.8-0.9-3.7-0.9-5.6v-12.9h3v12.9c0,1.4,0.1,2.9,0.5,4.3
	c0.3,0.9,1,1.7,1.9,2.1c1,0.5,2.1,0.8,3.2,0.8c2.2,0,3.7-0.5,4.6-1.5s1.4-2.9,1.4-5.7V210.6L493.5,210.6z"/>
<path class="st2" d="M465,206.7v-2.6h9.5v8.3c-1.3,1.1-2.8,2-4.5,2.6c-1.5,0.6-3.1,0.9-4.8,0.9c-2.1,0-4.1-0.5-6-1.4
	c-1.8-0.9-3.2-2.3-4.1-4.1c-0.9-1.9-1.4-3.9-1.4-6s0.5-4.2,1.4-6.1c0.8-1.8,2.2-3.3,3.9-4.2c1.8-0.9,3.8-1.4,5.9-1.4
	c1.5,0,3,0.2,4.4,0.8c1.2,0.4,2.3,1.2,3.1,2.2c0.8,1.1,1.4,2.3,1.7,3.7l-2.7,0.7c-0.3-1-0.7-1.9-1.3-2.7c-0.6-0.7-1.3-1.2-2.1-1.6
	c-1-0.4-2-0.6-3.1-0.6c-1.2,0-2.4,0.2-3.5,0.6c-0.9,0.4-1.7,0.9-2.4,1.6c-0.6,0.6-1.1,1.4-1.4,2.2c-0.6,1.4-0.9,3-0.9,4.5
	c0,1.7,0.3,3.4,1,5c0.6,1.3,1.7,2.4,3,3c1.3,0.7,2.7,1,4.2,1c1.3,0,2.6-0.3,3.8-0.7c1-0.4,1.9-0.9,2.8-1.6v-4.2H465V206.7z"/>
<path class="st2" d="M446.9,193.1h3V206c0,1.8-0.2,3.6-0.8,5.4c-0.5,1.4-1.5,2.5-2.8,3.2c-1.6,0.9-3.4,1.3-5.2,1.2
	c-1.8,0-3.5-0.3-5.1-1.1c-1.3-0.7-2.3-1.8-2.9-3.1c-0.6-1.8-0.9-3.7-0.9-5.6v-12.9h3V206c0,1.5,0.1,2.9,0.5,4.3
	c0.3,0.9,1,1.7,1.9,2.1c1,0.5,2.1,0.8,3.2,0.8c2.2,0,3.7-0.5,4.6-1.5s1.4-2.9,1.4-5.7L446.9,193.1L446.9,193.1z"/>
<path class="st2" d="M424.8,207.6l3,0.8c-0.5,2.2-1.6,4.1-3.4,5.6c-1.7,1.3-3.8,2-5.9,1.9c-2.1,0-4.1-0.4-5.9-1.5
	c-1.6-1-2.8-2.5-3.4-4.3c-0.8-1.9-1.2-3.9-1.2-6s0.4-4.2,1.3-6.1c0.8-1.7,2.2-3.1,3.8-3.9c1.7-0.9,3.5-1.4,5.4-1.4
	c2,0,4,0.5,5.6,1.7s2.7,2.9,3.2,4.8l-2.9,0.7c-0.4-1.4-1.2-2.6-2.3-3.6c-1.1-0.8-2.4-1.2-3.7-1.1c-1.5,0-3,0.4-4.3,1.2
	c-1.2,0.8-2,2-2.4,3.3c-0.5,1.4-0.7,2.8-0.7,4.3c0,1.7,0.2,3.4,0.8,5c0.5,1.3,1.4,2.4,2.6,3.2c1.1,0.7,2.5,1.1,3.8,1.1
	c1.5,0,3-0.5,4.2-1.4c1.2-1.1,2-2.6,2.3-4.3H424.8z"/>
<path class="st2" d="M395,206.7v-2.6h9.5v8.3c-1.3,1.1-2.9,2-4.5,2.6c-1.5,0.6-3.1,0.9-4.8,0.9c-2.1,0-4.1-0.5-6-1.4
	c-1.7-0.9-3.2-2.3-4.1-4.1c-0.9-1.9-1.4-3.9-1.4-6s0.5-4.2,1.4-6.1c0.8-1.8,2.2-3.3,3.9-4.2c1.8-0.9,3.8-1.4,5.9-1.4
	c1.5,0,3,0.3,4.4,0.8c1.2,0.4,2.3,1.2,3.1,2.2c0.8,1.1,1.4,2.3,1.7,3.7l-2.7,0.7c-0.2-1-0.7-1.9-1.2-2.7c-0.6-0.7-1.3-1.2-2.1-1.6
	c-1-0.4-2-0.6-3.1-0.6c-1.2,0-2.4,0.2-3.5,0.6c-0.9,0.4-1.7,0.9-2.4,1.6c-0.6,0.7-1.1,1.4-1.4,2.2c-0.6,1.4-0.9,3-0.9,4.5
	c0,1.7,0.3,3.4,1,5c0.6,1.3,1.7,2.4,3,3c1.3,0.7,2.7,1,4.2,1c1.3,0,2.6-0.3,3.8-0.7c1-0.4,1.9-0.9,2.8-1.6v-4.2H395V206.7z"/>
<line class="st1" x1="394.4" y1="218.7" x2="394.4" y2="234.3"/>
<path d="M378.3,257.1l2.4-0.3c0.2,1.1,0.6,2,1.4,2.8c0.7,0.6,1.6,0.8,2.4,0.8c1,0,2.1-0.4,2.9-1.1c0.8-0.7,1.2-1.7,1.1-2.7
	c0-1-0.3-1.9-1-2.5c-0.7-0.7-1.7-1.1-2.7-1c-0.6,0-1.1,0.1-1.7,0.2l0.3-2h0.3c1,0,1.9-0.2,2.7-0.7c0.8-0.5,1.3-1.4,1.2-2.3
	c0-0.7-0.3-1.5-0.9-2c-0.6-0.6-1.5-0.8-2.3-0.8c-0.9,0-1.7,0.2-2.4,0.8c-0.7,0.7-1.1,1.6-1.2,2.4l-2.4-0.4c0.2-1.3,0.9-2.6,2-3.5
	c1-0.8,2.4-1.3,3.8-1.2c1,0,2,0.2,3,0.7c0.9,0.4,1.6,1.1,2,1.8c0.4,0.7,0.7,1.6,0.7,2.4c0,0.7-0.3,1.6-0.7,2.1
	c-0.5,0.7-1.2,1.2-2,1.6c1,0.2,2,0.7,2.7,1.6c0.7,0.8,1,1.9,1,2.9c0,1.6-0.6,3-1.8,4.1c-1.3,1.1-3,1.7-4.7,1.6
	c-1.6,0-3.1-0.5-4.3-1.5C379,259.8,378.3,258.5,378.3,257.1L378.3,257.1z M393.4,252.9c0-1.8,0.2-3.5,0.7-5.2c0.3-1.1,1.1-2.2,2.1-3
	c1-0.7,2.3-1.1,3.5-1.1c1,0,1.9,0.2,2.7,0.6c0.8,0.4,1.5,1,1.9,1.7c0.5,0.8,1,1.7,1.2,2.7c0.3,1.4,0.4,2.9,0.4,4.3
	c0,1.7-0.2,3.5-0.7,5.2c-0.3,1.2-1.1,2.2-2.1,3c-2.4,1.7-5.9,1.4-8-0.8C393.9,258.8,393.3,256.3,393.4,252.9L393.4,252.9z
	 M395.9,252.9c0,3,0.3,5,1.1,6c0.9,1.5,2.9,2,4.4,1.1c0.5-0.2,0.9-0.7,1.1-1.1c0.8-1,1.1-3,1.1-6c0-2.9-0.3-5-1.1-6
	c-0.6-0.9-1.7-1.5-2.8-1.5c-1,0-2,0.5-2.6,1.3C396.2,247.8,395.9,250,395.9,252.9L395.9,252.9L395.9,252.9z"/>
<path class="st2" d="M378.2,207.6l3,0.8c-0.5,2.2-1.6,4.1-3.4,5.6c-1.7,1.3-3.8,2-5.9,1.9c-2.1,0-4.1-0.4-5.9-1.5
	c-1.6-1-2.8-2.5-3.4-4.3c-0.8-1.9-1.2-3.9-1.2-6s0.4-4.2,1.3-6.1c0.8-1.7,2.2-3.1,3.8-3.9c1.7-0.9,3.5-1.4,5.4-1.4
	c2,0,4,0.5,5.6,1.7s2.7,2.9,3.2,4.8l-2.9,0.7c-0.4-1.4-1.1-2.6-2.2-3.6c-1.1-0.8-2.4-1.2-3.7-1.1c-1.5,0-3,0.4-4.3,1.2
	c-1.2,0.8-2,2-2.4,3.3c-0.5,1.4-0.7,2.8-0.7,4.3c0,1.7,0.2,3.4,0.8,5c0.5,1.3,1.4,2.4,2.6,3.2c1.1,0.7,2.5,1.1,3.8,1.1
	c1.5,0,3-0.5,4.2-1.4C377.1,210.8,378,209.3,378.2,207.6L378.2,207.6z"/>
<line class="st1" x1="371.1" y1="169.4" x2="371.1" y2="190.3"/>
<line class="st1" x1="394.4" y1="169.4" x2="394.4" y2="190.3"/>
<line class="st1" x1="417.7" y1="169.4" x2="417.7" y2="190.3"/>
<line class="st1" x1="464.4" y1="169.4" x2="464.4" y2="190.3"/>
<line class="st1" x1="441" y1="191.5" x2="441" y2="168.2"/>
<text transform="matrix(0.9025 0 0 1 83.7998 172.6543)" class="st4 st5">5’</text>
<text transform="matrix(1 0 0 1 337.9001 218.7002)" class="st4 st6">3’</text>
<text transform="matrix(1 0 0 1 18.2266 36.6055)" class="st4 st7">cAMP-b aptamer</text>
</svg>
