<svg id="图层_1" data-name="图层 1" xmlns="http://www.w3.org/2000/svg" viewBox="0 0 400 400">
  <defs>
    <style>
      .cls-1, .cls-10, .cls-11, .cls-12, .cls-13, .cls-14, .cls-15, .cls-16, .cls-2, .cls-3, .cls-4, .cls-5, .cls-6, .cls-8 {
        isolation: isolate;
        font-size: 15.21px;
      }

      .cls-1, .cls-2 {
        fill: #999;
      }

      .cls-1, .cls-10, .cls-11, .cls-12, .cls-13, .cls-14, .cls-15, .cls-16, .cls-18, .cls-19, .cls-2, .cls-3, .cls-4, .cls-5, .cls-6, .cls-8 {
        font-family: ArialMT, Arial;
      }

      .cls-1, .cls-13, .cls-14, .cls-4, .cls-6 {
        letter-spacing: -0.06em;
      }

      .cls-3, .cls-4 {
        fill: #f09;
      }

      .cls-10, .cls-5, .cls-6 {
        fill: #0c0;
      }

      .cls-7 {
        fill: none;
      }

      .cls-17, .cls-7, .cls-9 {
        stroke: #000;
        stroke-miterlimit: 1.11;
      }

      .cls-7, .cls-9 {
        stroke-width: 0.14px;
      }

      .cls-10 {
        letter-spacing: -0.06em;
      }

      .cls-11, .cls-14 {
        fill: #f93;
      }

      .cls-12, .cls-13 {
        fill: #39f;
      }

      .cls-15, .cls-16, .cls-17 {
        fill: #fc6;
      }

      .cls-16 {
        letter-spacing: -0.06em;
      }

      .cls-17 {
        stroke-width: 0.64px;
      }

      .cls-18 {
        font-size: 20px;
      }

      .cls-19 {
        font-size: 18px;
      }

      .cls-20 {
        letter-spacing: -0.04em;
      }
    </style>
  </defs>
  <g id="ID000002">
    <text class="cls-1" transform="translate(59.98 272.66)">A</text>
  </g>
  <g id="ID000003">
    <text class="cls-2" transform="translate(59.14 257.95)">G</text>
  </g>
  <g id="ID000004">
    <text class="cls-3" transform="translate(59.14 243.24)">G</text>
  </g>
  <g id="ID000005">
    <text class="cls-3" transform="translate(59.14 228.54)">G</text>
  </g>
  <g id="ID000006">
    <text class="cls-4" transform="translate(59.98 213.83)">A</text>
  </g>
  <g id="ID000007">
    <text class="cls-3" transform="translate(59.14 199.12)">G</text>
  </g>
  <g id="ID000008">
    <text class="cls-3" transform="translate(49.33 179.51)">G</text>
  </g>
  <g id="ID000009">
    <text class="cls-3" transform="translate(97.14 179.51)">G</text>
  </g>
  <g id="ID000012">
    <text class="cls-3" transform="translate(88.98 199.12)">C</text>
  </g>
  <g id="ID000013">
    <text class="cls-3" transform="translate(88.98 213.83)">U</text>
  </g>
  <g id="ID000014">
    <text class="cls-3" transform="translate(88.98 228.54)">U</text>
  </g>
  <g id="ID000015">
    <text class="cls-3" transform="translate(88.98 243.24)">C</text>
  </g>
  <g id="ID000016">
    <text class="cls-5" transform="translate(88.56 257.95)">G</text>
  </g>
  <g id="ID000017">
    <text class="cls-6" transform="translate(91.41 272.66)">A</text>
  </g>
  <g id="ID000018">
    <text class="cls-5" transform="translate(90.18 289.96)">G</text>
  </g>
  <g id="ID000019">
    <text class="cls-5" transform="translate(94.27 308.16)">C</text>
  </g>
  <g id="ID000020">
    <text class="cls-5" transform="translate(101.06 326.54)">G</text>
  </g>
  <g id="ID000021">
    <text class="cls-5" transform="translate(119.62 337.62)">U</text>
  </g>
  <g id="ID000022">
    <line class="cls-7" x1="132.05" y1="324.07" x2="138.98" y2="317.13"/>
  </g>
  <g id="ID000023">
    <text class="cls-8" transform="translate(138.98 313.46)">30</text>
  </g>
  <g id="ID000024">
    <text class="cls-6" transform="translate(134.75 337.62)">A</text>
  </g>
  <g id="ID000025">
    <text class="cls-5" transform="translate(148.61 337.62)">G</text>
  </g>
  <g id="ID000026">
    <line class="cls-7" x1="70.94" y1="236.63" x2="88.59" y2="236.63"/>
  </g>
  <g id="ID000027">
    <polygon class="cls-9" points="82.71 221.92 82.7 221.73 82.68 221.55 82.65 221.36 82.61 221.18 82.56 221 82.5 220.82 82.42 220.65 82.34 220.49 82.24 220.33 82.14 220.17 82.02 220.03 81.89 219.89 81.76 219.76 81.62 219.63 81.47 219.52 81.32 219.42 81.16 219.33 80.99 219.24 80.81 219.17 80.64 219.11 80.46 219.06 80.28 219.02 80.09 219 79.91 218.98 79.72 218.98 79.53 218.99 79.35 219.01 79.16 219.04 78.98 219.08 78.8 219.14 78.63 219.21 78.46 219.28 78.3 219.37 78.14 219.47 77.98 219.58 77.84 219.69 77.7 219.82 77.57 219.96 77.45 220.1 77.34 220.25 77.24 220.41 77.15 220.57 77.07 220.74 77 220.91 76.94 221.09 76.9 221.27 76.86 221.45 76.84 221.64 76.83 221.82 76.83 222.01 76.84 222.2 76.86 222.38 76.9 222.57 76.94 222.75 77 222.92 77.07 223.1 77.15 223.27 77.24 223.43 77.34 223.59 77.45 223.74 77.57 223.88 77.7 224.01 77.84 224.14 77.98 224.26 78.14 224.37 78.3 224.47 78.46 224.55 78.63 224.63 78.8 224.7 78.98 224.75 79.16 224.8 79.35 224.83 79.53 224.85 79.72 224.86 79.91 224.86 80.09 224.84 80.28 224.81 80.46 224.78 80.64 224.73 80.81 224.67 80.99 224.59 81.16 224.51 81.32 224.42 81.47 224.31 81.62 224.2 81.76 224.08 81.89 223.95 82.02 223.81 82.14 223.66 82.24 223.51 82.34 223.35 82.42 223.18 82.5 223.01 82.56 222.84 82.61 222.66 82.65 222.47 82.68 222.29 82.7 222.1 82.71 221.92"/>
  </g>
  <g id="ID000028">
    <line class="cls-7" x1="70.94" y1="207.21" x2="88.59" y2="207.21"/>
  </g>
  <g id="ID000029">
    <line class="cls-7" x1="70.94" y1="192.5" x2="88.59" y2="192.5"/>
  </g>
  <g id="ID000031">
    <text class="cls-4" transform="translate(61.21 164.8)">A</text>
  </g>
  <g id="ID000032">
    <text class="cls-3" transform="translate(60.79 150.1)">C</text>
  </g>
  <g id="ID000033">
    <text class="cls-3" transform="translate(45.66 135.39)">G</text>
  </g>
  <g id="ID000034">
    <line class="cls-7" x1="41.77" y1="128.77" x2="31.97" y2="128.77"/>
  </g>
  <g id="ID000035">
    <text class="cls-8" transform="translate(15.05 135.39)">10</text>
  </g>
  <g id="ID000036">
    <text class="cls-4" transform="translate(42.83 117)">A</text>
  </g>
  <g id="ID000037">
    <text class="cls-3" transform="translate(49.76 102.3)">U</text>
  </g>
  <g id="ID000038">
    <text class="cls-3" transform="translate(64.04 94.94)">G</text>
  </g>
  <g id="ID000039">
    <text class="cls-3" transform="translate(79.17 94.94)">C</text>
  </g>
  <g id="ID000040">
    <text class="cls-3" transform="translate(93.46 102.3)">G</text>
  </g>
  <g id="ID000041">
    <text class="cls-3" transform="translate(100.81 117)">G</text>
  </g>
  <g id="ID000042">
    <text class="cls-3" transform="translate(100.81 135.39)">G</text>
  </g>
  <g id="ID000043">
    <text class="cls-3" transform="translate(89.78 150.1)">G</text>
  </g>
  <g id="ID000044">
    <text class="cls-3" transform="translate(90.21 164.8)">U</text>
  </g>
  <g id="ID000045">
    <line class="cls-7" x1="72.17" y1="158.19" x2="89.82" y2="158.19"/>
  </g>
  <g id="ID000046">
    <line class="cls-7" x1="72.17" y1="143.48" x2="89.82" y2="143.48"/>
  </g>
  <g id="ID000048">
    <text class="cls-5" transform="translate(167 337.62)">G</text>
  </g>
  <g id="ID000049">
    <text class="cls-6" transform="translate(186.23 337.62)">A</text>
  </g>
  <g id="ID000050">
    <text class="cls-10" transform="translate(204.61 337.62)">A</text>
  </g>
  <g id="ID000051">
    <text class="cls-5" transform="translate(203.77 319.23)">G</text>
  </g>
  <g id="ID000052">
    <text class="cls-10" transform="translate(204.61 300.85)">A</text>
  </g>
  <g id="ID000053">
    <text class="cls-10" transform="translate(204.61 282.46)">A</text>
  </g>
  <g id="ID000054">
    <text class="cls-10" transform="translate(204.61 267.76)">A</text>
  </g>
  <g id="ID000055">
    <text class="cls-11" transform="translate(203.77 253.05)">G</text>
  </g>
  <g id="ID000056">
    <line class="cls-7" x1="219.49" y1="246.43" x2="229.29" y2="246.43"/>
  </g>
  <g id="ID000057">
    <text class="cls-8" transform="translate(229.29 253.05)">40</text>
  </g>
  <g id="ID000058">
    <text class="cls-11" transform="translate(204.19 238.34)">C</text>
  </g>
  <g id="ID000059">
    <text class="cls-11" transform="translate(204.19 223.63)">C</text>
  </g>
  <g id="ID000060">
    <text class="cls-11" transform="translate(203.77 208.93)">G</text>
  </g>
  <g id="ID000061">
    <text class="cls-12" transform="translate(203.77 194.22)">G</text>
  </g>
  <g id="ID000062">
    <text class="cls-12" transform="translate(174.77 164.8)">C</text>
  </g>
  <g id="ID000063">
    <line class="cls-7" x1="170.46" y1="158.19" x2="160.66" y2="158.19"/>
  </g>
  <g id="ID000064">
    <text class="cls-8" transform="translate(143.74 164.8)">70</text>
  </g>
  <g id="ID000065">
    <text class="cls-12" transform="translate(174.35 179.51)">G</text>
  </g>
  <g id="ID000066">
    <text class="cls-13" transform="translate(175.19 194.22)">A</text>
  </g>
  <g id="ID000067">
    <text class="cls-11" transform="translate(174.77 208.93)">C</text>
  </g>
  <g id="ID000068">
    <text class="cls-11" transform="translate(174.35 223.63)">G</text>
  </g>
  <g id="ID000069">
    <text class="cls-11" transform="translate(174.35 238.34)">G</text>
  </g>
  <g id="ID000070">
    <text class="cls-14" transform="translate(175.19 253.05)">A</text>
  </g>
  <g id="ID000071">
    <line class="cls-7" x1="203.8" y1="231.72" x2="186.15" y2="231.72"/>
  </g>
  <g id="ID000072">
    <line class="cls-7" x1="203.8" y1="217.02" x2="186.15" y2="217.02"/>
  </g>
  <g id="ID000073">
    <line class="cls-7" x1="203.8" y1="202.31" x2="186.15" y2="202.31"/>
  </g>
  <g id="ID000075">
    <text class="cls-12" transform="translate(203.77 175.83)">G</text>
  </g>
  <g id="ID000076">
    <text class="cls-12" transform="translate(214.8 161.13)">G</text>
  </g>
  <g id="ID000077">
    <text class="cls-15" transform="translate(229.5 161.13)">G</text>
  </g>
  <g id="ID000078">
    <text class="cls-15" transform="translate(244.64 161.13)">C</text>
  </g>
  <g id="ID000079">
    <text class="cls-15" transform="translate(259.34 161.13)">U</text>
  </g>
  <g id="ID000080">
    <text class="cls-15" transform="translate(274.05 124.36)">U</text>
  </g>
  <g id="ID000081">
    <text class="cls-16" transform="translate(259.76 131.71)">A</text>
  </g>
  <g id="ID000082">
    <text class="cls-15" transform="translate(244.21 131.71)">G</text>
  </g>
  <g id="ID000083">
    <text class="cls-15" transform="translate(229.93 131.71)">C</text>
  </g>
  <g id="ID000084">
    <text class="cls-12" transform="translate(215.22 131.71)">C</text>
  </g>
  <g id="ID000085">
    <text class="cls-13" transform="translate(197.26 128.03)">A</text>
  </g>
  <g id="ID000086">
    <text class="cls-12" transform="translate(178.03 131.71)">G</text>
  </g>
  <g id="ID000087">
    <text class="cls-13" transform="translate(175.19 146.42)">A</text>
  </g>
  <g id="ID000088">
    <line class="cls-7" x1="220.71" y1="148.63" x2="220.71" y2="130.98"/>
  </g>
  <g id="ID000089">
    <line class="cls-7" x1="235.42" y1="148.63" x2="235.42" y2="130.98"/>
  </g>
  <g id="ID000090">
    <line class="cls-7" x1="250.13" y1="148.63" x2="250.13" y2="130.98"/>
  </g>
  <g id="ID000091">
    <line class="cls-17" x1="270.72" y1="154.51" x2="303.08" y2="154.51"/>
  </g>
  <g id="ID000092">
    <polygon class="cls-9" points="283.8 151.03 285.73 152.77 287.67 153.35 289.6 153.64 293.47 154.51 289.6 155.38 287.67 155.67 285.73 156.25 283.8 157.99 283.8 151.03"/>
  </g>
  <g id="ID000093">
    <line class="cls-7" x1="264.84" y1="148.63" x2="264.84" y2="130.98"/>
  </g>
  <g id="ID000095">
    <text class="cls-15" transform="translate(303.04 161.13)">G</text>
  </g>
  <g id="ID000096">
    <line class="cls-7" x1="308.96" y1="164.31" x2="308.96" y2="174.12"/>
  </g>
  <g id="ID000097">
    <text class="cls-8" transform="translate(300.5 191.47)">50</text>
  </g>
  <g id="ID000098">
    <text class="cls-15" transform="translate(318.17 161.13)">C</text>
  </g>
  <g id="ID000099">
    <text class="cls-16" transform="translate(333.3 161.13)">A</text>
  </g>
  <g id="ID000100">
    <text class="cls-15" transform="translate(347.16 168.48)">G</text>
  </g>
  <g id="ID000101">
    <text class="cls-16" transform="translate(366.39 164.8)">A</text>
  </g>
  <g id="ID000102">
    <text class="cls-15" transform="translate(373.33 146.42)">U</text>
  </g>
  <g id="ID000103">
    <text class="cls-16" transform="translate(362.72 128.03)">A</text>
  </g>
  <g id="ID000104">
    <text class="cls-16" transform="translate(348.01 124.36)">A</text>
  </g>
  <g id="ID000105">
    <text class="cls-15" transform="translate(332.88 131.71)">U</text>
  </g>
  <g id="ID000106">
    <text class="cls-15" transform="translate(317.75 131.71)">G</text>
  </g>
  <g id="ID000107">
    <text class="cls-15" transform="translate(303.47 131.71)">U</text>
  </g>
  <g id="ID000108">
    <line class="cls-7" x1="308.96" y1="115.29" x2="308.96" y2="105.48"/>
  </g>
  <g id="ID000109">
    <text class="cls-8" transform="translate(300.5 101.81)">60</text>
  </g>
  <g id="ID000110">
    <text class="cls-16" transform="translate(289.18 124.36)">A</text>
  </g>
  <g id="ID000111">
    <polygon class="cls-9" points="308.96 136.86 308.77 136.87 308.59 136.88 308.4 136.91 308.22 136.95 308.04 137.01 307.87 137.07 307.69 137.14 307.53 137.23 307.37 137.33 307.21 137.43 307.07 137.55 306.93 137.67 306.8 137.81 306.68 137.95 306.56 138.09 306.46 138.25 306.37 138.41 306.28 138.58 306.21 138.75 306.15 138.93 306.1 139.11 306.06 139.29 306.04 139.47 306.02 139.66 306.02 139.85 306.03 140.03 306.05 140.22 306.08 140.4 306.12 140.59 306.18 140.76 306.25 140.94 306.32 141.11 306.41 141.27 306.51 141.43 306.62 141.58 306.74 141.73 306.86 141.87 307 141.99 307.14 142.11 307.29 142.22 307.45 142.32 307.61 142.41 307.78 142.5 307.95 142.56 308.13 142.62 308.31 142.67 308.49 142.71 308.68 142.73 308.87 142.74 309.05 142.74 309.24 142.73 309.42 142.71 309.61 142.67 309.79 142.62 309.96 142.56 310.14 142.5 310.31 142.41 310.47 142.32 310.63 142.22 310.78 142.11 310.92 141.99 311.06 141.87 311.18 141.73 311.3 141.58 311.41 141.43 311.51 141.27 311.6 141.11 311.67 140.94 311.74 140.76 311.79 140.59 311.84 140.4 311.87 140.22 311.89 140.03 311.9 139.85 311.9 139.66 311.88 139.47 311.86 139.29 311.82 139.11 311.77 138.93 311.71 138.75 311.63 138.58 311.55 138.41 311.46 138.25 311.35 138.09 311.24 137.95 311.12 137.81 310.99 137.67 310.85 137.55 310.7 137.43 310.55 137.33 310.39 137.23 310.22 137.14 310.05 137.07 309.88 137.01 309.7 136.95 309.52 136.91 309.33 136.88 309.14 136.87 308.96 136.86"/>
  </g>
  <g id="ID000112">
    <line class="cls-7" x1="323.67" y1="148.63" x2="323.67" y2="130.98"/>
  </g>
  <g id="ID000113">
    <line class="cls-7" x1="338.37" y1="148.63" x2="338.37" y2="130.98"/>
  </g>
  <text class="cls-18" transform="translate(6.17 24.98)">R9-2 aptamer</text>
  <text class="cls-19" transform="translate(31.97 278.79)">5<tspan class="cls-20" x="10.01" y="0">’</tspan></text>
  <text class="cls-19" transform="translate(149.42 267.76)">3<tspan class="cls-20" x="10.01" y="0">’</tspan></text>
</svg>
