<?xml version="1.0" encoding="utf-8"?>
<!-- Generator: Adobe Illustrator 25.2.0, SVG Export Plug-In . SVG Version: 6.00 Build 0)  -->
<svg version="1.1" id="图层_1" xmlns="http://www.w3.org/2000/svg" xmlns:xlink="http://www.w3.org/1999/xlink" x="0px" y="0px"
	 viewBox="0 0 400 400" style="enable-background:new 0 0 400 400;" xml:space="preserve">
<style type="text/css">
	.st0{fill:#FFFC55;}
	.st1{fill:#0A0BFF;}
	.st2{font-family:'ArialMT';}
	.st3{font-size:22.33px;}
	.st4{letter-spacing:-1;}
	.st5{fill:none;stroke:#000000;stroke-width:0.12;stroke-miterlimit:10;}
	.st6{stroke:#000000;stroke-width:0.12;stroke-miterlimit:10;}
	.st7{fill:none;stroke:#000000;stroke-width:0.76;stroke-miterlimit:10;}
	.st8{fill:#0A0BFF;stroke:#000000;stroke-width:0.12;stroke-miterlimit:10;}
	.st9{fill:#FF00FF;}
	.st10{fill:#808080;}
	.st11{font-size:13.4383px;}
	.st12{font-size:20px;}
</style>
<ellipse class="st0" cx="105" cy="203.5" rx="37.7" ry="8.6"/>
<g id="ID000002">
	<text transform="matrix(1 0 0 1 318.7898 237.1449)" class="st1 st2 st3 st4">A</text>
</g>
<g id="ID000003">
	<text transform="matrix(1 0 0 1 295.2878 237.1449)" class="st1 st2 st3">G</text>
</g>
<g id="ID000004">
	<text transform="matrix(1 0 0 1 274.2634 237.1449)" class="st1 st2 st3 st4">A</text>
</g>
<g id="ID000005">
	<text transform="matrix(1 0 0 1 252.0017 237.1449)" class="st1 st2 st3 st4">A</text>
</g>
<g id="ID000006">
	<text transform="matrix(1 0 0 1 273.032 192.62)" class="st1 st2 st3">G</text>
</g>
<g id="ID000007">
	<text transform="matrix(1 0 0 1 295.907 192.62)" class="st1 st2 st3">C</text>
</g>
<g id="ID000008">
	<text transform="matrix(1 0 0 1 318.1697 192.62)" class="st1 st2 st3">U</text>
</g>
<g id="ID000011">
	<line class="st5" x1="326.2" y1="218.2" x2="326.2" y2="191.5"/>
</g>
<g id="ID000012">
	<line class="st5" x1="304" y1="218.2" x2="304" y2="191.5"/>
</g>
<g id="ID000013">
	<line class="st5" x1="281.7" y1="218.2" x2="281.7" y2="191.5"/>
</g>
<g id="ID000014">
	<polygon class="st6" points="281.7,200.4 281.4,200.4 281.1,200.4 280.9,200.5 280.6,200.5 280.3,200.6 280.1,200.7 279.8,200.8 
		279.5,201 279.3,201.1 279.1,201.3 278.8,201.5 278.6,201.6 278.4,201.8 278.3,202 278.1,202.3 277.9,202.5 277.8,202.8 277.7,203 
		277.6,203.3 277.5,203.5 277.4,203.8 277.3,204.1 277.3,204.4 277.3,204.6 277.3,204.9 277.3,205.2 277.3,205.5 277.4,205.8 
		277.4,206 277.5,206.3 277.6,206.6 277.7,206.8 277.9,207.1 278,207.3 278.2,207.6 278.3,207.8 278.5,208 278.7,208.2 279,208.4 
		279.2,208.5 279.4,208.7 279.7,208.8 279.9,208.9 280.2,209 280.5,209.1 280.7,209.2 281,209.3 281.3,209.3 281.6,209.3 
		281.9,209.3 282.1,209.3 282.4,209.3 282.7,209.2 283,209.1 283.2,209 283.5,208.9 283.8,208.8 284,208.7 284.2,208.5 284.5,208.4 
		284.7,208.2 284.9,208 285.1,207.8 285.3,207.6 285.4,207.3 285.6,207.1 285.7,206.8 285.8,206.6 285.9,206.3 286,206 286.1,205.8 
		286.1,205.5 286.1,205.2 286.2,204.9 286.2,204.6 286.1,204.4 286.1,204.1 286,203.8 286,203.5 285.9,203.3 285.8,203 285.6,202.8 
		285.5,202.5 285.3,202.3 285.2,202 285,201.8 284.8,201.6 284.6,201.5 284.3,201.3 284.1,201.1 283.9,201 283.6,200.8 283.4,200.7 
		283.1,200.6 282.8,200.5 282.6,200.5 282.3,200.4 282,200.4 	"/>
</g>
<g id="ID000015">
	<line class="st7" x1="218.3" y1="182.6" x2="272.8" y2="182.6"/>
</g>
<g id="ID000016">
	<polygon class="st8" points="238.1,175.9 241.8,179.3 245.5,180.4 249.2,180.9 256.7,182.6 249.2,184.3 245.5,184.8 241.8,185.9 
		238.1,189.3 	"/>
</g>
<g id="ID000018">
	<text transform="matrix(1 0 0 1 222.9373 237.1449)" class="st1 st2 st3">G</text>
</g>
<g id="ID000019">
	<text transform="matrix(1 0 0 1 200.6819 237.1449)" class="st1 st2 st3">G</text>
</g>
<g id="ID000020">
	<line class="st5" x1="209.4" y1="242" x2="209.4" y2="256.8"/>
</g>
<g id="ID000021">
	<text transform="matrix(1 0 0 1 197.6877 274.1146)" class="st2 st3">10</text>
</g>
<g id="ID000022">
	<text transform="matrix(1 0 0 1 179.6575 237.1449)" class="st1 st2 st3 st4">A</text>
</g>
<g id="ID000023">
	<text transform="matrix(1 0 0 1 156.1555 237.1449)" class="st1 st2 st3">G</text>
</g>
<g id="ID000024">
	<text transform="matrix(1 0 0 1 69.9934 236.9281)" class="st9 st2 st3">U</text>
</g>
<g id="ID000025">
	<text transform="matrix(1 0 0 1 66.0149 192.246)" class="st1 st2 st3">G</text>
</g>
<g id="ID000027">
	<text transform="matrix(1 0 0 1 32.9124 237.4134)" class="st1 st2 st3 st4">A</text>
</g>
<g id="ID000028">
	<text transform="matrix(1 0 0 1 15.6057 237.891)" class="st10 st2 st3">C</text>
</g>
<g id="ID000030">
	<text transform="matrix(1 0 0 1 14.9866 193.3661)" class="st10 st2 st3">G</text>
</g>
<g id="ID000033">
	<text transform="matrix(1 0 0 1 31.1497 192.62)" class="st1 st2 st3">U</text>
</g>
<g id="ID000034">
	<text transform="matrix(1 0 0 1 112.8176 160.3378)" class="st1 st2 st3">U</text>
</g>
<g id="ID000035">
	<text transform="matrix(1 0 0 1 127.8088 160.3378)" class="st1 st2 st3 st4">A</text>
</g>
<g id="ID000036">
	<text transform="matrix(1 0 0 1 143.9719 172.3954)" class="st1 st2 st3">G</text>
</g>
<g id="ID000037">
	<text transform="matrix(1 0 0 1 156.1555 192.62)" class="st1 st2 st3">G</text>
</g>
<g id="ID000038">
	<text transform="matrix(1 0 0 1 179.0383 192.62)" class="st1 st2 st3">U</text>
</g>
<g id="ID000039">
	<text transform="matrix(1 0 0 1 201.301 192.62)" class="st1 st2 st3">C</text>
</g>
<g id="ID000040">
	<line class="st5" x1="209.4" y1="218.2" x2="209.4" y2="191.5"/>
</g>
<g id="ID000041">
	<line class="st5" x1="187.1" y1="218.2" x2="187.1" y2="191.5"/>
</g>
<g id="ID000042">
	<line class="st5" x1="164.8" y1="218.2" x2="164.8" y2="191.5"/>
</g>
<g id="ID000043">
	<polygon class="st6" points="164.8,215.1 165.1,215.1 165.4,215.1 165.7,215 166,215 166.2,214.9 166.5,214.8 166.8,214.7 
		167,214.5 167.2,214.4 167.5,214.2 167.7,214.1 167.9,213.9 168.1,213.7 168.3,213.5 168.5,213.2 168.6,213 168.8,212.7 
		168.9,212.5 169,212.2 169.1,212 169.2,211.7 169.2,211.4 169.3,211.1 169.3,210.9 169.3,210.6 169.3,210.3 169.2,210 169.2,209.7 
		169.1,209.5 169,209.2 168.9,208.9 168.8,208.7 168.7,208.4 168.5,208.2 168.4,208 168.2,207.7 168,207.5 167.8,207.3 167.6,207.1 
		167.4,207 167.1,206.8 166.9,206.7 166.6,206.6 166.4,206.5 166.1,206.4 165.8,206.3 165.5,206.3 165.3,206.2 165,206.2 
		164.7,206.2 164.4,206.2 164.1,206.3 163.9,206.3 163.6,206.4 163.3,206.5 163.1,206.6 162.8,206.7 162.6,206.8 162.3,207 
		162.1,207.1 161.9,207.3 161.7,207.5 161.5,207.7 161.3,208 161.1,208.2 161,208.4 160.9,208.7 160.7,208.9 160.6,209.2 
		160.5,209.5 160.5,209.7 160.4,210 160.4,210.3 160.4,210.6 160.4,210.9 160.4,211.1 160.5,211.4 160.5,211.7 160.6,212 
		160.7,212.2 160.8,212.5 160.9,212.7 161.1,213 161.2,213.2 161.4,213.5 161.6,213.7 161.8,213.9 162,214.1 162.2,214.2 
		162.4,214.4 162.7,214.5 162.9,214.7 163.2,214.8 163.4,214.9 163.7,215 164,215 164.3,215.1 164.6,215.1 	"/>
</g>
<g id="ID000044">
	<polygon class="st6" points="160.4,194.6 160.4,203.5 169.3,203.5 169.3,194.6 	"/>
</g>
<g id="ID000006-2">
	<text transform="matrix(1 0 0 1 333.9744 236.6664)" class="st10 st2 st3">G</text>
</g>
<g id="ID000007-2">
	<text transform="matrix(1 0 0 1 334.4158 192.62)" class="st10 st2 st3">C</text>
</g>
<g id="ID000006-3">
	<text transform="matrix(1 0 0 1 352.8484 182.6004)" class="st10 st2 st3">G</text>
</g>
<g id="ID000002-2">
	<text transform="matrix(1 0 0 1 357.0369 241.9603)" class="st10 st2 st3 st4">A</text>
</g>
<g id="ID000002-3">
	<text transform="matrix(1 0 0 1 375.0886 221.4222)" class="st10 st2 st3 st4">A</text>
</g>
<g id="ID000002-4">
	<text transform="matrix(1 -6.283144e-03 6.283144e-03 1 368.8479 199.1234)" class="st10 st2 st3 st4">A</text>
</g>
<g id="ID000011-2">
	<line class="st5" x1="342.4" y1="219" x2="342.4" y2="192.2"/>
</g>
<g id="ID000040-2">
	<line class="st5" x1="23.7" y1="221" x2="23.7" y2="194.3"/>
</g>
<g id="ID000040-3">
	<line class="st5" x1="39.5" y1="219.9" x2="39.5" y2="193.2"/>
</g>
<g id="ID000034-2">
	<text transform="matrix(1 0 0 1 96.7512 172.3954)" class="st9 st2 st3">U</text>
</g>
<g id="ID000036-2">
	<text transform="matrix(1 0 0 1 83.8655 186.5272)" class="st1 st2 st3">G</text>
</g>
<g id="ID000039-2">
	<text transform="matrix(1 0 0 1 47.8508 192.246)" class="st1 st2 st3">C</text>
</g>
<g id="ID000029">
	<text transform="matrix(1 0 0 1 49.7102 237.4134)" class="st1 st2 st3">G</text>
</g>
<g id="ID000040-4">
	<line class="st5" x1="57.3" y1="220.4" x2="57.3" y2="193.7"/>
</g>
<g id="ID000015-2">
	<line class="st7" x1="87.3" y1="228.9" x2="156.2" y2="228.9"/>
</g>
<g id="ID000016-2">
	<polygon class="st6" points="112.4,222.2 117.1,225.6 121.7,226.7 126.4,227.3 135.8,228.9 126.4,230.6 121.7,231.1 117.1,232.3 
		112.4,235.6 	"/>
</g>
<g id="ID000020-2">
	<line class="st5" x1="77.3" y1="242" x2="77.3" y2="256.8"/>
</g>
<g id="ID000021-2">
	<text transform="matrix(1 0 0 1 63.0735 274.3832)" class="st2 st3">13</text>
</g>
<g id="ID000021-3">
	<text transform="matrix(1 0 0 1 65.679 159.6356)" class="st2 st3">29</text>
</g>
<g id="ID000020-3">
	<line class="st5" x1="75.5" y1="159.6" x2="75.5" y2="174.5"/>
</g>
<g id="ID000021-4">
	<text transform="matrix(1 0 0 1 92.2346 136.0663)" class="st2 st3">31</text>
</g>
<g id="ID000020-4">
	<line class="st5" x1="104" y1="140.1" x2="104" y2="155"/>
</g>
<text transform="matrix(1 0 0 1 77.2659 207.6927)" class="st2 st11">L-citrulline</text>
<text transform="matrix(1 0 0 1 20.5102 31.56)" class="st2 st12">L-Citrulline-aptamer</text>
<text transform="matrix(1 0 0 1 6.8105 265.4941)" class="st2 st12">5’</text>
<text transform="matrix(1 0 0 1 7.6501 166.3441)" class="st2 st12">3’</text>
</svg>
