<svg id="图层_1" data-name="图层 1" xmlns="http://www.w3.org/2000/svg" viewBox="0 0 800 400"><defs><style>.cls-1,.cls-13,.cls-14,.cls-15,.cls-16,.cls-17,.cls-18,.cls-19,.cls-2,.cls-3,.cls-4,.cls-5,.cls-6{isolation:isolate;}.cls-1,.cls-2,.cls-3,.cls-4,.cls-5,.cls-6{font-size:49.61px;}.cls-1,.cls-4{fill:#ff870a;}.cls-1,.cls-13,.cls-15,.cls-16,.cls-17,.cls-18,.cls-19,.cls-2,.cls-3,.cls-4,.cls-5,.cls-6{font-family:ArialMT, Arial;}.cls-2,.cls-5{fill:teal;}.cls-3,.cls-6{fill:#228b22;}.cls-4,.cls-5,.cls-6{letter-spacing:-0.29em;}.cls-10,.cls-11,.cls-7,.cls-8,.cls-9{stroke:#000;}.cls-10,.cls-7,.cls-8,.cls-9{stroke-miterlimit:1.11;stroke-width:0.14px;}.cls-11,.cls-8{fill:none;}.cls-9{fill:#fcfcfc;}.cls-10{fill:#fff;}.cls-11{stroke-miterlimit:10;stroke-width:0.75px;}.cls-12{fill:#ff0;}.cls-13{font-size:23.5px;}.cls-15,.cls-16{font-size:22.41px;}.cls-16{letter-spacing:-0.08em;}.cls-17{font-size:14.94px;}.cls-18,.cls-19{font-size:25.61px;}.cls-19{letter-spacing:-0.06em;}</style></defs><g id="ID000002"><text class="cls-1" transform="translate(39.76 244.52)">G</text></g><g id="ID000002-2"><text class="cls-1" transform="translate(81.66 244.52)">G</text></g><g id="ID000002-3"><text class="cls-1" transform="translate(265.07 244.52)">G</text></g><g id="ID000002-4"><text class="cls-2" transform="translate(417.54 244.52)">G</text></g><g id="ID000002-5"><text class="cls-2" transform="translate(497.87 304.39)">G</text></g><g id="ID000002-6"><text class="cls-3" transform="translate(576.82 244.52)">G</text></g><g id="ID000002-7"><text class="cls-3" transform="translate(689.27 228.06)">G</text></g><g id="ID000002-8"><text class="cls-3" transform="translate(617.21 304.39)">G</text></g><g id="ID000002-9"><text class="cls-3" transform="translate(654.54 304.39)">G</text></g><g id="ID000003"><text class="cls-4" transform="translate(125.54 244.52)">A</text></g><g id="ID000003-2"><text class="cls-4" transform="translate(168.28 244.52)">A</text></g><g id="ID000003-3"><text class="cls-5" transform="translate(284.03 184.39)">A</text></g><g id="ID000003-4"><text class="cls-5" transform="translate(322.31 184.39)">A</text></g><g id="ID000003-5"><text class="cls-5" transform="translate(380.71 304.39)">A</text></g><g id="ID000003-6"><text class="cls-5" transform="translate(307.57 304.39)">A</text></g><g id="ID000003-7"><text class="cls-5" transform="translate(222.74 184.39)">A</text></g><g id="ID000003-8"><text class="cls-6" transform="translate(722.09 298.34)">A</text></g><g id="ID000003-9"><text class="cls-6" transform="translate(692.84 322.34)">A</text></g><g id="ID000003-10"><text class="cls-6" transform="translate(722.09 250.17)">A</text></g><g id="ID000003-11"><text class="cls-5" transform="translate(516.72 201.47)">A</text></g><g id="ID000003-12"><text class="cls-6" transform="translate(542.75 304.39)">A</text></g><g id="ID000003-13"><text class="cls-5" transform="translate(307.57 244.52)">A</text></g><g id="ID000028"><text class="cls-2" transform="translate(379.82 244.52)">U</text></g><g id="ID000028-2"><text class="cls-2" transform="translate(342.95 238.79)">U</text></g><g id="ID000028-3"><text class="cls-2" transform="translate(417.73 201.47)">U</text></g><g id="ID000028-4"><text class="cls-1" transform="translate(124.65 304.39)">U</text></g><g id="ID000028-5"><text class="cls-1" transform="translate(167.39 304.39)">U</text></g><g id="ID000028-6"><text class="cls-3" transform="translate(541.86 244.52)">U</text></g><g id="ID000145"><polygon class="cls-7" points="390.27 132.79 387.98 130.69 385.88 130.12 383.59 129.74 379.01 128.78 383.59 127.64 385.88 127.44 387.98 126.68 390.27 124.58 390.27 132.79"/></g><g id="ID000145-2"><polygon class="cls-7" points="459.99 290.92 457.69 288.82 455.6 288.25 453.31 287.87 448.73 286.92 453.31 285.77 455.6 285.58 457.69 284.82 459.99 282.72 459.99 290.92"/></g><g id="ID000145-3"><polygon class="cls-7" points="214.55 224.08 216.88 226.13 219 226.66 221.29 226.99 225.89 227.85 221.34 229.09 219.05 229.33 216.97 230.14 214.72 232.28 214.55 224.08"/></g><g id="ID000145-4"><polygon class="cls-7" points="414.5 107.35 416.83 109.4 418.94 109.92 421.24 110.26 425.84 111.11 421.29 112.36 419 112.59 416.92 113.4 414.68 115.55 414.5 107.35"/></g><g id="ID000145-5"><polygon class="cls-7" points="264.27 163.11 266.6 165.16 268.71 165.69 271.01 166.02 275.61 166.88 271.06 168.12 268.77 168.36 266.69 169.16 264.44 171.31 264.27 163.11"/></g><g id="ID000022-2"><text class="cls-1" transform="translate(82.56 304.39)">C</text></g><g id="ID000022-2-2"><text class="cls-1" transform="translate(40.66 304.39)">C</text></g><g id="ID000022-2-3"><text class="cls-1" transform="translate(265.97 304.39)">C</text></g><g id="ID000022-2-4"><text class="cls-2" transform="translate(342.94 316.43)">C</text></g><g id="ID000022-2-5"><text class="cls-3" transform="translate(655.44 244.52)">C</text></g><g id="ID000022-2-6"><text class="cls-2" transform="translate(482.89 201.47)">C</text></g><g id="ID000022-2-7"><text class="cls-3" transform="translate(618.12 244.52)">C</text></g><g id="ID000022-2-8"><text class="cls-3" transform="translate(577.73 304.38)">C</text></g><g id="ID000033-2"><line class="cls-8" x1="60" y1="267.42" x2="60" y2="244.91"/></g><g id="ID000033-2-2"><line class="cls-8" x1="102.45" y1="267.42" x2="102.45" y2="244.91"/></g><g id="ID000033-2-3"><line class="cls-8" x1="142.86" y1="267.78" x2="142.86" y2="245.27"/></g><g id="ID000033-2-4"><line class="cls-8" x1="185.67" y1="267.42" x2="185.67" y2="244.91"/></g><g id="ID000033-2-5"><line class="cls-8" x1="288.76" y1="207.84" x2="300.54" y2="183.11"/></g><g id="ID000033-2-6"><line class="cls-8" x1="323.98" y1="209.2" x2="335.75" y2="184.47"/></g><g id="ID000033-2-7"><line class="cls-8" x1="517.88" y1="267.67" x2="532.99" y2="199.62"/></g><g id="ID000033-2-8"><line class="cls-8" x1="199.19" y1="282.2" x2="239.07" y2="282.18"/></g><g id="ID000033-2-9"><line class="cls-8" x1="239.07" y1="282.39" x2="239.07" y2="186.33"/></g><g id="ID000033-2-10"><line class="cls-8" x1="284.36" y1="267.78" x2="284.36" y2="245.27"/></g><g id="ID000033-2-11"><line class="cls-8" x1="324.07" y1="268.87" x2="324.07" y2="244.91"/></g><g id="ID000033-2-12"><line class="cls-8" x1="397.15" y1="268.87" x2="397.15" y2="244.91"/></g><g id="ID000033-2-13"><line class="cls-8" x1="559.12" y1="267.78" x2="559.12" y2="245.27"/></g><g id="ID000033-2-14"><line class="cls-8" x1="595.38" y1="267.78" x2="595.38" y2="245.27"/></g><g id="ID000033-2-15"><line class="cls-8" x1="638.86" y1="267.42" x2="638.86" y2="244.91"/></g><g id="ID000033-2-16"><line class="cls-8" x1="673.32" y1="267.78" x2="673.32" y2="245.27"/></g><g id="ID000214"><polygon class="cls-7" points="236.4 241 236.4 241.19 236.4 241.38 236.49 241.47 236.49 241.67 236.59 241.86 236.59 242.05 236.68 242.14 236.78 242.33 236.87 242.43 236.97 242.62 237.06 242.72 237.16 242.91 237.25 243 237.35 243.1 237.54 243.19 237.63 243.29 237.83 243.38 238.02 243.48 238.11 243.48 238.3 243.57 238.49 243.67 238.59 243.67 238.78 243.67 238.97 243.67 239.16 243.67 239.35 243.67 239.45 243.67 239.64 243.67 239.83 243.57 240.02 243.57 240.12 243.48 240.31 243.38 240.4 243.38 240.59 243.29 240.69 243.19 240.88 243 240.97 242.91 241.07 242.81 241.16 242.72 241.36 242.52 241.45 242.43 241.45 242.24 241.55 242.05 241.64 241.95 241.64 241.76 241.74 241.57 241.74 241.47 241.74 241.28 241.74 241.09 241.74 240.9 241.74 240.71 241.74 240.62 241.74 240.43 241.64 240.24 241.64 240.04 241.55 239.95 241.45 239.76 241.45 239.66 241.36 239.47 241.16 239.38 241.07 239.19 240.97 239.09 240.88 239 240.69 238.9 240.59 238.8 240.4 238.71 240.31 238.61 240.12 238.52 240.02 238.42 239.83 238.42 239.64 238.33 239.45 238.33 239.35 238.33 239.16 238.33 238.97 238.33 238.78 238.33 238.59 238.33 238.49 238.42 238.3 238.42 238.11 238.52 238.02 238.52 237.83 238.61 237.63 238.71 237.54 238.8 237.35 238.9 237.25 239 237.16 239.19 237.06 239.28 236.97 239.38 236.87 239.57 236.78 239.66 236.68 239.85 236.59 240.04 236.59 240.14 236.49 240.33 236.49 240.52 236.4 240.62 236.4 240.81 236.4 241"/></g><g id="ID000192"><polygon class="cls-7" points="217.46 282.16 222.74 285.24 222.71 279.17 217.46 282.16"/></g><g id="ID000192-2"><polygon class="cls-9" points="297.01 197.78 291.52 195.1 292 201.15 297.01 197.78"/></g><g id="ID000192-3"><polygon class="cls-9" points="528.88 233 522.96 231.5 524.67 237.33 528.88 233"/></g><g id="ID000190"><polygon class="cls-10" points="295.35 187.1 295.25 187.2 295.15 187.42 295.05 187.52 294.95 187.74 294.85 187.84 294.85 188.06 294.75 188.27 294.65 188.38 294.65 188.59 294.65 188.81 294.65 189.02 294.65 189.13 294.65 189.34 294.65 189.56 294.65 189.77 294.75 189.88 294.75 190.09 294.85 190.31 294.95 190.41 294.95 190.63 295.05 190.84 295.15 190.95 295.35 191.16 295.45 191.27 295.55 191.37 295.65 191.48 295.86 191.59 295.96 191.69 296.16 191.8 296.36 191.91 296.46 192.02 296.66 192.02 296.86 192.12 296.96 192.12 297.16 192.12 297.36 192.12 297.56 192.12 297.76 192.12 297.86 192.12 298.06 192.12 298.27 192.02 298.37 192.02 298.57 191.91 298.77 191.8 298.87 191.69 299.07 191.59 299.17 191.48 299.37 191.37 299.47 191.27 299.57 191.16 299.67 190.95 299.77 190.84 299.87 190.63 299.97 190.52 300.07 190.31 300.07 190.09 300.18 189.98 300.18 189.77 300.28 189.56 300.28 189.34 300.28 189.24 300.28 189.02 300.28 188.81 300.28 188.59 300.18 188.38 300.18 188.27 300.07 188.06 300.07 187.84 299.97 187.74 299.87 187.52 299.77 187.42 299.67 187.2 299.57 187.1 299.37 186.99 299.27 186.88 299.17 186.67 298.97 186.56 298.87 186.45 298.67 186.45 298.47 186.35 298.37 186.24 298.17 186.24 297.96 186.13 297.86 186.13 297.66 186.13 297.46 186.13 297.26 186.13 297.06 186.13 296.96 186.13 296.76 186.24 296.56 186.24 296.36 186.35 296.26 186.45 296.06 186.45 295.96 186.56 295.75 186.67 295.65 186.78 295.45 186.99 295.35 187.1"/></g><g id="ID000190-2"><polygon class="cls-10" points="329.45 190.45 329.35 190.55 329.25 190.77 329.15 190.87 329.05 191.09 328.95 191.19 328.95 191.41 328.85 191.62 328.75 191.73 328.75 191.94 328.75 192.16 328.75 192.37 328.75 192.48 328.75 192.69 328.75 192.91 328.75 193.12 328.85 193.23 328.85 193.44 328.95 193.65 329.05 193.76 329.05 193.97 329.15 194.19 329.25 194.3 329.45 194.51 329.55 194.62 329.65 194.72 329.75 194.83 329.95 194.94 330.05 195.04 330.25 195.15 330.45 195.26 330.56 195.37 330.76 195.37 330.96 195.47 331.06 195.47 331.26 195.47 331.46 195.47 331.66 195.47 331.86 195.47 331.96 195.47 332.16 195.47 332.36 195.37 332.46 195.37 332.67 195.26 332.87 195.15 332.97 195.04 333.17 194.94 333.27 194.83 333.47 194.72 333.57 194.62 333.67 194.51 333.77 194.3 333.87 194.19 333.97 193.97 334.07 193.87 334.17 193.65 334.17 193.44 334.27 193.33 334.27 193.12 334.37 192.91 334.37 192.69 334.37 192.59 334.37 192.37 334.37 192.16 334.37 191.94 334.27 191.73 334.27 191.62 334.17 191.41 334.17 191.19 334.07 191.09 333.97 190.87 333.87 190.77 333.77 190.55 333.67 190.45 333.47 190.34 333.37 190.23 333.27 190.02 333.07 189.91 332.97 189.8 332.77 189.8 332.56 189.7 332.46 189.59 332.26 189.59 332.06 189.48 331.96 189.48 331.76 189.48 331.56 189.48 331.36 189.48 331.16 189.48 331.06 189.48 330.86 189.59 330.66 189.59 330.45 189.7 330.36 189.8 330.15 189.8 330.05 189.91 329.85 190.02 329.75 190.13 329.55 190.34 329.45 190.45"/></g><g id="ID000189"><polygon class="cls-10" points="399.95 262.86 399.96 257.18 394.27 257.3 394.33 262.92 399.95 262.86"/></g><g id="ID000189-2"><polygon class="cls-10" points="530.31 224.98 531.6 219.45 526.03 218.29 524.83 223.78 530.31 224.98"/></g><g id="ID000189-3"><polygon class="cls-10" points="329.1 205.16 331.39 199.96 326.13 197.79 323.93 202.96 329.1 205.16"/></g><g id="ID000190-3"><polygon class="cls-10" points="321.95 254.95 321.85 255.05 321.75 255.27 321.65 255.38 321.55 255.59 321.45 255.7 321.45 255.91 321.35 256.12 321.25 256.23 321.25 256.44 321.25 256.66 321.25 256.87 321.25 256.98 321.25 257.19 321.25 257.41 321.25 257.62 321.35 257.73 321.35 257.94 321.45 258.15 321.55 258.26 321.55 258.48 321.65 258.69 321.75 258.8 321.95 259.01 322.05 259.12 322.15 259.23 322.25 259.33 322.45 259.44 322.56 259.55 322.76 259.65 322.96 259.76 323.06 259.87 323.26 259.87 323.46 259.97 323.56 259.97 323.76 259.97 323.96 259.97 324.16 259.97 324.36 259.97 324.46 259.97 324.67 259.97 324.87 259.87 324.97 259.87 325.17 259.76 325.37 259.65 325.47 259.55 325.67 259.44 325.77 259.33 325.97 259.23 326.07 259.12 326.17 259.01 326.27 258.8 326.37 258.69 326.47 258.48 326.57 258.37 326.67 258.15 326.67 257.94 326.77 257.83 326.77 257.62 326.88 257.41 326.88 257.19 326.88 257.09 326.88 256.87 326.88 256.66 326.88 256.44 326.77 256.23 326.77 256.12 326.67 255.91 326.67 255.7 326.57 255.59 326.47 255.38 326.37 255.27 326.27 255.05 326.17 254.95 325.97 254.84 325.87 254.73 325.77 254.52 325.57 254.41 325.47 254.31 325.27 254.31 325.07 254.2 324.97 254.09 324.76 254.09 324.56 253.98 324.46 253.98 324.26 253.98 324.06 253.98 323.86 253.98 323.66 253.98 323.56 253.98 323.36 254.09 323.16 254.09 322.96 254.2 322.86 254.31 322.65 254.31 322.56 254.41 322.35 254.52 322.25 254.63 322.05 254.84 321.95 254.95"/></g><g id="ID000190-4"><polygon class="cls-10" points="395.01 249.62 394.91 249.72 394.81 249.92 394.71 250.02 394.61 250.22 394.5 250.32 394.5 250.52 394.4 250.72 394.3 250.82 394.3 251.02 394.3 251.22 394.3 251.43 394.3 251.53 394.3 251.73 394.3 251.93 394.3 252.13 394.4 252.23 394.4 252.43 394.5 252.63 394.61 252.73 394.61 252.93 394.71 253.13 394.81 253.23 395.01 253.44 395.11 253.53 395.21 253.64 395.31 253.74 395.51 253.84 395.61 253.94 395.81 254.04 396.01 254.14 396.11 254.24 396.31 254.24 396.51 254.34 396.62 254.34 396.82 254.34 397.02 254.34 397.22 254.34 397.42 254.34 397.52 254.34 397.72 254.34 397.92 254.24 398.02 254.24 398.22 254.14 398.42 254.04 398.52 253.94 398.73 253.84 398.82 253.74 399.03 253.64 399.13 253.53 399.23 253.44 399.33 253.23 399.43 253.13 399.53 252.93 399.63 252.83 399.73 252.63 399.73 252.43 399.83 252.33 399.83 252.13 399.93 251.93 399.93 251.73 399.93 251.63 399.93 251.43 399.93 251.22 399.93 251.02 399.83 250.82 399.83 250.72 399.73 250.52 399.73 250.32 399.63 250.22 399.53 250.02 399.43 249.92 399.33 249.72 399.23 249.62 399.03 249.52 398.93 249.42 398.82 249.22 398.62 249.12 398.52 249.01 398.32 249.01 398.12 248.91 398.02 248.81 397.82 248.81 397.62 248.71 397.52 248.71 397.32 248.71 397.12 248.71 396.92 248.71 396.72 248.71 396.62 248.71 396.41 248.81 396.21 248.81 396.01 248.91 395.91 249.01 395.71 249.01 395.61 249.12 395.41 249.22 395.31 249.32 395.11 249.52 395.01 249.62"/></g><g id="ID000170"><line class="cls-11" x1="196.76" y1="228.06" x2="266.18" y2="228.06"/></g><g id="ID000170-2"><line class="cls-11" x1="410" y1="286.82" x2="498.72" y2="286.82"/></g><g id="ID000145-6"><polygon class="cls-7" points="248.87 290.92 246.58 288.82 244.48 288.25 242.19 287.87 237.61 286.92 242.19 285.77 244.48 285.58 246.58 284.82 248.87 282.72 248.87 290.92"/></g><g id="ID000170-3"><line class="cls-11" x1="201.46" y1="286.82" x2="266.18" y2="286.82"/></g><g id="ID000170-4"><line class="cls-11" x1="250.6" y1="167.21" x2="288.03" y2="167.21"/></g><g id="ID000170-5"><line class="cls-11" x1="239.07" y1="128.69" x2="436.36" y2="128.69"/></g><g id="ID000170-6"><line class="cls-11" x1="337.71" y1="111.64" x2="500.5" y2="111.64"/></g><g id="ID000170-7"><line class="cls-11" x1="436.36" y1="127.87" x2="436.36" y2="165.96"/></g><g id="ID000170-8"><line class="cls-11" x1="337.71" y1="110.78" x2="337.71" y2="147.73"/></g><g id="ID000170-9"><line class="cls-11" x1="500.5" y1="110.78" x2="500.5" y2="164.08"/></g><g id="ID000170-10"><line class="cls-11" x1="239.07" y1="127.87" x2="239.07" y2="146.91"/></g><ellipse class="cls-12" cx="481.98" cy="243.3" rx="19.68" ry="42.67"/><text class="cls-13" transform="translate(491 270.93) rotate(-90)">NBSI</text><g class="cls-14"><text class="cls-15" transform="translate(35.08 207.84)">5</text><text class="cls-16" transform="translate(47.54 207.84)">’</text></g><g class="cls-14"><text class="cls-15" transform="translate(35.08 325.52)">3</text><text class="cls-16" transform="translate(47.54 325.52)">’</text></g><g id="ID000013"><text class="cls-17" transform="translate(448.73 164.08)">10</text></g><g id="ID000013-2"><text class="cls-17" transform="translate(720.02 192.13)">20</text></g><g id="ID000013-3"><text class="cls-17" transform="translate(353.36 330.11)">30</text></g><g class="cls-14"><text class="cls-18" transform="translate(298.18 69.89)">Clivia</text><text class="cls-19" transform="translate(360.8 69.89)"> </text><text class="cls-18" transform="translate(366.51 69.89)">Aptamer</text></g></svg>