<?xml version="1.0" encoding="utf-8"?>
<!-- Generator: Adobe Illustrator 25.2.0, SVG Export Plug-In . SVG Version: 6.00 Build 0)  -->
<svg version="1.1" id="图层_1" xmlns="http://www.w3.org/2000/svg" xmlns:xlink="http://www.w3.org/1999/xlink" x="0px" y="0px"
	 viewBox="0 0 400 400" style="enable-background:new 0 0 400 400;" xml:space="preserve">
<style type="text/css">
	.st0{fill:#39B54A;}
	.st1{font-family:'ArialMT';}
	.st2{font-size:16.66px;}
	.st3{fill:#FBB03B;}
	.st4{fill:#F7931E;}
	.st5{fill:#3FA9F5;}
	.st6{fill:none;stroke:#000000;stroke-width:0.25;stroke-miterlimit:10;}
	.st7{font-size:14px;}
	.st8{font-size:20px;}
	.st9{stroke:#000000;stroke-width:0.25;stroke-miterlimit:10;}
</style>
<text transform="matrix(0.99 0 0 1 178.1099 367.29)" class="st0 st1 st2">G</text>
<text transform="matrix(0.99 0 0 1 178.5601 341.3896)" class="st0 st1 st2">G</text>
<text transform="matrix(0.99 0 0 1 164.1201 315.5596)" class="st0 st1 st2">G</text>
<text transform="matrix(0.99 0 0 1 178.6099 296.7305)" class="st0 st1 st2">A</text>
<text transform="matrix(0.99 0 0 1 178.0098 270.8896)" class="st0 st1 st2">C</text>
<text transform="matrix(0.99 0 0 1 178.0601 244.9297)" class="st0 st1 st2">A</text>
<text transform="matrix(0.99 0 0 1 160.9502 232.8301)" class="st3 st1 st2">G</text>
<text transform="matrix(0.99 0 0 1 154.27 216.5801)" class="st3 st1 st2">G</text>
<text transform="matrix(0.99 0 0 1 161.4902 201.2998)" class="st3 st1 st2">G</text>
<text transform="matrix(0.99 0 0 1 179.0298 194.3101)" class="st3 st1 st2">C</text>
<text transform="matrix(0.99 0 0 1 180.04 169.3701)" class="st4 st1 st2">U</text>
<text transform="matrix(0.99 0 0 1 160.4399 147.9302)" class="st3 st1 st2">A</text>
<text transform="matrix(0.99 0 0 1 181.1099 126.8501)" class="st3 st1 st2">G</text>
<text transform="matrix(0.99 0 0 1 181.23 106.1001)" class="st5 st1 st2">C</text>
<text transform="matrix(0.99 0 0 1 166.9199 96.8398)" class="st5 st1 st2">A</text>
<text transform="matrix(0.99 0 0 1 156.0098 80.1299)" class="st5 st1 st2">G</text>
<text transform="matrix(0.99 0 0 1 155.1401 62.6401)" class="st5 st1 st2">U</text>
<text transform="matrix(0.99 0 0 1 162.3701 47.3799)" class="st5 st1 st2">A</text>
<text transform="matrix(0.99 0 0 1 175.8999 35.46)" class="st5 st1 st2">G</text>
<text transform="matrix(0.99 0 0 1 192.46 28.0098)" class="st5 st1 st2">G</text>
<text transform="matrix(0.99 0 0 1 211.5996 28.7002)" class="st5 st1 st2">A</text>
<text transform="matrix(0.99 0 0 1 227.1504 39.9302)" class="st5 st1 st2">U</text>
<text transform="matrix(0.99 0 0 1 234.7803 54.8799)" class="st5 st1 st2">U</text>
<text transform="matrix(0.99 0 0 1 236.96 74.77)" class="st5 st1 st2">G</text>
<text transform="matrix(0.99 0 0 1 227.1504 93.9702)" class="st5 st1 st2">G</text>
<text transform="matrix(0.99 0 0 1 211.9102 106.1001)" class="st5 st1 st2">G</text>
<text transform="matrix(0.99 0 0 1 211.7998 126.8501)" class="st3 st1 st2">U</text>
<text transform="matrix(0.99 0 0 1 247.2305 157.0098)" class="st3 st1 st2">G</text>
<text transform="matrix(0.99 0 0 1 248.6299 135.8198)" class="st3 st1 st2">A</text>
<text transform="matrix(0.99 0 0 1 230.2695 126.8501)" class="st3 st1 st2">G</text>
<text transform="matrix(0.99 0 0 1 230.2695 166.7002)" class="st3 st1 st2">G</text>
<text transform="matrix(0.99 0 0 1 210.7305 169.3701)" class="st3 st1 st2">G</text>
<text transform="matrix(0.99 0 0 1 209.71 194.3101)" class="st3 st1 st2">G</text>
<text transform="matrix(0.99 0 0 1 227.1797 222.2002)" class="st3 st1 st2">A</text>
<text transform="matrix(0.99 0 0 1 208.7002 244.9297)" class="st0 st1 st2">U</text>
<text transform="matrix(0.99 0 0 1 209.2402 271.1299)" class="st0 st1 st2">G</text>
<text transform="matrix(0.99 0 0 1 209.2402 296.7305)" class="st0 st1 st2">U</text>
<text transform="matrix(0.99 0 0 1 230.8096 315.8096)" class="st0 st1 st2">G</text>
<text transform="matrix(0.99 0 0 1 209.2402 341.4004)" class="st0 st1 st2">C</text>
<text transform="matrix(0.99 0 0 1 208.79 367.29)" class="st0 st1 st2">U</text>
<text transform="matrix(0.99 0 0 1 216.6201 388.3096)" class="st1 st2">G</text>
<text transform="matrix(0.99 0 0 1 140.3198 182.1899)" class="st1 st2">10</text>
<text transform="matrix(0.99 0 0 1 245.3301 355.1699)" class="st1 st2">40</text>
<line class="st6" x1="192.4" y1="336.6" x2="208" y2="336.7"/>
<line class="st6" x1="191.8" y1="290.7" x2="207.4" y2="290.8"/>
<line class="st6" x1="191.8" y1="265.3" x2="207.4" y2="265.4"/>
<line class="st6" x1="191" y1="238.5" x2="206.6" y2="238.5"/>
<line class="st6" x1="191.9" y1="189.2" x2="207.5" y2="189.2"/>
<line class="st6" x1="194.9" y1="101.3" x2="210.6" y2="101.3"/>
<text transform="matrix(1 0 0 1 155.14 367.67)" class="st1 st7">5</text>
<text transform="matrix(1 0 0 1 162.93 367.67)" class="st1 st7">’</text>
<text transform="matrix(1 0 0 1 236.08 393.47)" class="st1 st7">3</text>
<text transform="matrix(1 0 0 1 243.87 393.47)" class="st1 st7">’</text>
<line class="st6" x1="164.1" y1="179.5" x2="178.8" y2="184.8"/>
<line class="st6" x1="224" y1="359" x2="239.4" y2="356.1"/>
<text transform="matrix(1 0 0 1 13.65 28.7)" class="st1 st8">FC5</text>
<text transform="matrix(1 0 0 1 51.43 28.7)" class="st1 st8">L</text>
<text transform="matrix(1 0 0 1 61.81 28.7)" class="st1 st8"> aptamer</text>
<circle class="st9" cx="201.2" cy="362" r="2.2"/>
<circle class="st9" cx="200.2" cy="162.8" r="2.2"/>
<circle class="st9" cx="202.4" cy="121.7" r="2.2"/>
</svg>
