<?xml version="1.0" encoding="utf-8"?>
<!-- Generator: Adobe Illustrator 25.2.0, SVG Export Plug-In . SVG Version: 6.00 Build 0)  -->
<svg version="1.1" id="图层_1" xmlns="http://www.w3.org/2000/svg" xmlns:xlink="http://www.w3.org/1999/xlink" x="0px" y="0px"
	 viewBox="0 0 800 400" style="enable-background:new 0 0 800 400;" xml:space="preserve">
<style type="text/css">
	.st0{fill:#FF9933;}
	.st1{font-family:'ArialMT';}
	.st2{font-size:21.4043px;}
	.st3{fill:none;stroke:#000000;stroke-width:0.38;stroke-miterlimit:3.05;}
	.st4{font-size:17.1235px;}
	.st5{font-size:16.41px;}
	.st6{fill:#80DB9E;}
	.st7{font-size:14.2695px;}
	.st8{fill:#33CC33;}
	.st9{fill:#CC00FF;}
	.st10{font-size:25px;}
</style>
<g id="ID000010">
	<text transform="matrix(1 0 0 1 374.7478 251.2924)" class="st0 st1 st2">A</text>
</g>
<g id="ID000021">
	<line class="st3" x1="428.3" y1="244" x2="392.1" y2="243.8"/>
</g>
<text transform="matrix(1 0 0 1 322.614 386.4106)" class="st1 st4">5</text>
<text transform="matrix(1 0 0 1 332.1384 386.4106)" class="st1 st4">’</text>
<text transform="matrix(1 0 0 1 638.5999 325.2934)" class="st1 st5">3</text>
<text transform="matrix(1 0 0 1 647.7249 325.2934)" class="st1 st5">’</text>
<g id="ID000011-2">
	<g>
		<text transform="matrix(1 0 0 1 430.6277 249.5502)" class="st0 st1 st2">U</text>
	</g>
</g>
<g id="ID000019-2">
	<text transform="matrix(1 0 0 1 447.2732 230.1586)" class="st6 st1 st2">A</text>
</g>
<g id="ID000018">
	<text transform="matrix(1 0 0 1 291.7043 265.2807)" class="st1 st7">10</text>
</g>
<g id="ID000010-2">
	<text transform="matrix(1 0 0 1 432.5964 207.185)" class="st6 st1 st2">C</text>
</g>
<g id="ID000020">
	<g>
		<text transform="matrix(1 0 0 1 374.0125 206.8207)" class="st6 st1 st2">G</text>
	</g>
</g>
<g id="ID000021-2">
	<line class="st3" x1="429.5" y1="198.2" x2="393.3" y2="198"/>
</g>
<g id="ID000019-3">
	<text transform="matrix(1 0 0 1 432.5613 184.4536)" class="st6 st1 st2">C</text>
</g>
<g id="ID000003-2">
	<text transform="matrix(1 0 0 1 433.3025 137.4067)" class="st6 st1 st2">U</text>
</g>
<g id="ID000005-5">
	<text transform="matrix(1 0 0 1 373.9978 136.1791)" class="st6 st1 st2">A</text>
</g>
<g id="ID000010-2-2">
	<text transform="matrix(1 0 0 1 433.3025 158.2543)" class="st6 st1 st2">G</text>
</g>
<g id="ID000020-3">
	<g>
		<text transform="matrix(1 0 0 1 373.9978 157.7407)" class="st6 st1 st2">C</text>
	</g>
</g>
<g id="ID000020-3-2">
	<g>
		<text transform="matrix(1 0 0 1 374.0125 183.6469)" class="st6 st1 st2">G</text>
	</g>
</g>
<line class="st3" x1="430.1" y1="150.3" x2="394" y2="150"/>
<line class="st3" x1="429.4" y1="176.3" x2="393.3" y2="176"/>
<line class="st3" x1="430.1" y1="129.1" x2="394" y2="128.9"/>
<g id="ID000003-2-2">
	<text transform="matrix(1 0 0 1 433.3025 93.7993)" class="st6 st1 st2">U</text>
</g>
<g id="ID000005-5-2">
	<text transform="matrix(1 0 0 1 373.9978 93.0571)" class="st6 st1 st2">A</text>
</g>
<g id="ID000010-2-3">
	<text transform="matrix(1 0 0 1 433.3025 114.6391)" class="st6 st1 st2">G</text>
</g>
<g id="ID000020-3-3">
	<text transform="matrix(1 0 0 1 372.821 114.6186)" class="st6 st1 st2">C</text>
</g>
<line class="st3" x1="430.1" y1="85.5" x2="394" y2="85.3"/>
<g id="ID000003-2-3">
	<text transform="matrix(1 0 0 1 451.0632 300.436)" class="st0 st1 st2">U</text>
</g>
<g id="ID000005-5-3">
	<text transform="matrix(1 0 0 1 636.9875 300.437)" class="st8 st1 st2">U</text>
</g>
<g id="ID000003-2-4">
	<text transform="matrix(1 0 0 1 544.26 300.437)" class="st8 st1 st2">C</text>
</g>
<g id="ID000010-3">
	<text transform="matrix(1 0 0 1 374.7478 273.9946)" class="st0 st1 st2">U</text>
</g>
<g id="ID000021-3">
	<line class="st3" x1="428" y1="266.7" x2="391.8" y2="266.5"/>
</g>
<g id="ID000011-2-2">
	<text transform="matrix(1 0 0 1 430.6277 275.3715)" class="st0 st1 st2">A</text>
</g>
<text transform="matrix(1 0 0 1 459.2737 89.332)" class="st1 st7">30</text>
<g id="ID000005-5-4">
	<text transform="matrix(1 0 0 1 564.2239 300.436)" class="st8 st1 st2">A</text>
</g>
<g id="ID000005-5-5">
	<text transform="matrix(1 0 0 1 359.8142 314.5483)" class="st9 st1 st2">U</text>
</g>
<g id="ID000010-2-4">
	<text transform="matrix(1 0 0 1 388.3152 52.3969)" class="st6 st1 st2">G</text>
</g>
<g id="ID000005-5-6">
	<text transform="matrix(1 0 0 1 470.2683 300.436)" class="st8 st1 st2">A</text>
</g>
<g id="ID000003-2-5">
	<text transform="matrix(1 0 0 1 327.366 339.9838)" class="st9 st1 st2">C</text>
</g>
<g id="ID000005-5-7">
	<text transform="matrix(1 0 0 1 508.4084 300.436)" class="st8 st1 st2">U</text>
</g>
<g id="ID000005-5-8">
	<text transform="matrix(1 0 0 1 368.1389 72.6489)" class="st6 st1 st2">A</text>
</g>
<g id="ID000003-2-6">
	<text transform="matrix(1 0 0 1 490.3274 300.436)" class="st8 st1 st2">C</text>
</g>
<g id="ID000005-5-9">
	<text transform="matrix(1 0 0 1 222.8123 324.4018)" class="st9 st1 st2">U</text>
</g>
<g id="ID000005-5-10">
	<text transform="matrix(1 0 0 1 526.9602 300.436)" class="st8 st1 st2">A</text>
</g>
<g id="ID000005-5-11">
	<text transform="matrix(1 0 0 1 442.7615 72.6489)" class="st6 st1 st2">A</text>
</g>
<g id="ID000010-2-5">
	<text transform="matrix(1 0 0 1 288.9236 292.1235)" class="st9 st1 st2">C</text>
</g>
<g id="ID000002-5">
	<text transform="matrix(1 0 0 1 252.7644 352.8911)" class="st9 st1 st2">A</text>
</g>
<g id="ID000010-2-6">
	<text transform="matrix(1 0 0 1 618.8704 300.436)" class="st8 st1 st2">C</text>
</g>
<g id="ID000010-2-7">
	<text transform="matrix(1 0 0 1 599.5618 300.436)" class="st8 st1 st2">G</text>
</g>
<g id="ID000002-5-2">
	<text transform="matrix(1 0 0 1 224.5027 300.6928)" class="st9 st1 st2">U</text>
</g>
<g id="ID000002-5-3">
	<text transform="matrix(1 0 0 1 252.7292 272.4682)" class="st9 st1 st2">A</text>
</g>
<g id="ID000010-2-8">
	<text transform="matrix(1 0 0 1 232.366 279.5453)" class="st9 st1 st2">C</text>
</g>
<g id="ID000010-2-9">
	<text transform="matrix(1 0 0 1 272.7849 279.5453)" class="st9 st1 st2">A</text>
</g>
<g id="ID000002-5-4">
	<text transform="matrix(1 0 0 1 233.4363 343.2592)" class="st9 st1 st2">A</text>
</g>
<g id="ID000002-5-5">
	<text transform="matrix(1 0 0 1 305.1472 374.8871)" class="st9 st1 st2">G</text>
</g>
<g id="ID000010-2-10">
	<text transform="matrix(1 0 0 1 418.0535 52.6537)" class="st6 st1 st2">G</text>
</g>
<g id="ID000002-5-6">
	<text transform="matrix(1 0 0 1 345.4949 326.3071)" class="st9 st1 st2">A</text>
</g>
<g id="ID000002-5-7">
	<text transform="matrix(1 0 0 1 581.5022 300.437)" class="st8 st1 st2">A</text>
</g>
<text transform="matrix(1 0 0 1 450.8049 322.6196)" class="st1 st7">40</text>
<line class="st3" x1="430.9" y1="107.3" x2="394.8" y2="107.1"/>
<g id="ID000010-4">
	<text transform="matrix(1 0 0 1 373.8914 299.0659)" class="st0 st1 st2">C</text>
</g>
<g id="ID000021-4">
	<line class="st3" x1="427.2" y1="291.8" x2="391" y2="291.6"/>
</g>
<g id="ID000011-2-3">
	<text transform="matrix(1 0 0 1 429.7712 300.436)" class="st0 st1 st2">G</text>
</g>
<line class="st3" x1="318.9" y1="354.9" x2="327.4" y2="340.1"/>
<g id="ID000003-2-7">
	<text transform="matrix(1 0 0 1 310.0066 328.3618)" class="st9 st1 st2">C</text>
</g>
<g id="ID000002-5-8">
	<text transform="matrix(1 0 0 1 287.7888 363.2582)" class="st9 st1 st2">G</text>
</g>
<line class="st3" x1="301.5" y1="343.3" x2="310" y2="328.5"/>
<g id="ID000003-2-8">
	<text transform="matrix(1 0 0 1 293.8611 317.9877)" class="st9 st1 st2">U</text>
</g>
<g id="ID000002-5-9">
	<text transform="matrix(1 0 0 1 271.6501 352.8911)" class="st9 st1 st2">G</text>
</g>
<line class="st3" x1="286.3" y1="269.2" x2="291.7" y2="264.2"/>
<line class="st3" x1="458.3" y1="311.4" x2="458.3" y2="302.3"/>
<line class="st3" x1="448.6" y1="85.5" x2="457.1" y2="85.5"/>
<text transform="matrix(1 0 0 1 31.1069 40)" class="st1 st10">R9-43 aptamer</text>
</svg>
