<?xml version="1.0" encoding="utf-8"?>
<!-- Generator: Adobe Illustrator 25.2.0, SVG Export Plug-In . SVG Version: 6.00 Build 0)  -->
<svg version="1.1" id="图层_1" xmlns="http://www.w3.org/2000/svg" xmlns:xlink="http://www.w3.org/1999/xlink" x="0px" y="0px"
	 viewBox="0 0 800 400" style="enable-background:new 0 0 800 400;" xml:space="preserve">
<style type="text/css">
	.st0{fill:none;stroke:#000000;stroke-width:0.25;stroke-miterlimit:10;}
	.st1{fill:#C2C2FF;}
	.st2{font-family:'ArialMT';}
	.st3{font-size:15px;}
	.st4{fill:#FF870A;}
	.st5{fill:#80DB9E;}
	.st6{fill:#09FEFE;}
	.st7{fill:#242424;}
	.st8{font-size:20px;}
</style>
<line class="st0" x1="316.6" y1="189.9" x2="310.6" y2="183.9"/>
<line class="st0" x1="301.5" y1="205.1" x2="295.4" y2="199"/>
<line class="st0" x1="286.3" y1="220.2" x2="280.2" y2="214.1"/>
<line class="st0" x1="271.1" y1="235.4" x2="265" y2="229.3"/>
<line class="st0" x1="240.7" y1="265.6" x2="234.7" y2="259.6"/>
<line class="st0" x1="225.6" y1="280.8" x2="219.5" y2="274.7"/>
<line class="st0" x1="210.4" y1="295.9" x2="204.3" y2="289.8"/>
<line class="st0" x1="445.8" y1="130.2" x2="445.8" y2="138.7"/>
<line class="st0" x1="467.3" y1="130.2" x2="467.3" y2="138.8"/>
<line class="st0" x1="488.7" y1="130.2" x2="488.7" y2="138.8"/>
<line class="st0" x1="510.2" y1="130.3" x2="510.1" y2="138.8"/>
<line class="st0" x1="531.6" y1="130.3" x2="531.6" y2="138.9"/>
<line class="st0" x1="424.3" y1="190.4" x2="418.2" y2="196.4"/>
<line class="st0" x1="439.4" y1="205.6" x2="433.4" y2="211.6"/>
<line class="st0" x1="454.6" y1="220.7" x2="448.5" y2="226.8"/>
<line class="st0" x1="469.7" y1="235.9" x2="463.6" y2="242"/>
<line class="st0" x1="500.1" y1="266.4" x2="494" y2="272.5"/>
<line class="st0" x1="515.3" y1="281.6" x2="509.2" y2="287.7"/>
<line class="st0" x1="530.4" y1="296.8" x2="524.3" y2="302.8"/>
<line class="st0" x1="560.7" y1="327.1" x2="554.6" y2="333.2"/>
<line class="st0" x1="575.8" y1="342.3" x2="569.7" y2="348.4"/>
<text transform="matrix(1 0 0 1 333.625 216.0763)" class="st1 st2 st3">G</text>
<text transform="matrix(1 0 0 1 317.1968 198.2016)" class="st4 st2 st3">G</text>
<text transform="matrix(1 0 0 1 302.0146 213.3409)" class="st4 st2 st3">G</text>
<text transform="matrix(1 0 0 1 287.0137 228.656)" class="st4 st2 st3">A</text>
<text transform="matrix(1 0 0 1 271.8359 243.791)" class="st4 st2 st3">A</text>
<text transform="matrix(1 0 0 1 256.9854 259.2536)" class="st1 st2 st3">C</text>
<text transform="matrix(1 0 0 1 241.2529 273.8364)" class="st4 st2 st3">U</text>
<text transform="matrix(1 0 0 1 226.627 289.5245)" class="st4 st2 st3">C</text>
<text transform="matrix(1 0 0 1 210.9414 304.1516)" class="st4 st2 st3">G</text>
<text transform="matrix(1 0 0 1 208.3164 332.9283)" class="st1 st2 st3">A</text>
<text transform="matrix(1 0 0 1 191.5781 344.2299)" class="st1 st2 st3">U</text>
<text transform="matrix(1 0 0 1 171.5693 342.4917)" class="st1 st2 st3">G</text>
<text transform="matrix(1 0 0 1 157.5283 328.4142)" class="st1 st2 st3">A</text>
<text transform="matrix(1 0 0 1 155.8027 308.3542)" class="st1 st2 st3">A</text>
<text transform="matrix(1 0 0 1 167.1953 291.6949)" class="st1 st2 st3">G</text>
<text transform="matrix(1 0 0 1 196.3135 289.4806)" class="st4 st2 st3">C</text>
<text transform="matrix(1 0 0 1 210.9873 273.8403)" class="st4 st2 st3">G</text>
<text transform="matrix(1 0 0 1 226.3438 258.8825)" class="st4 st2 st3">A</text>
<text transform="matrix(1 0 0 1 241.5234 243.7491)" class="st1 st2 st3">A</text>
<text transform="matrix(1 0 0 1 256.4766 228.3881)" class="st4 st2 st3">U</text>
<text transform="matrix(1 0 0 1 271.6543 213.2473)" class="st4 st2 st3">U</text>
<text transform="matrix(1 0 0 1 287.3853 198.666)" class="st4 st2 st3">C</text>
<text transform="matrix(1 0 0 1 302.0127 182.9776)" class="st4 st2 st3">U</text>
<text transform="matrix(1 0 0 1 281.0513 154.4479)" class="st1 st2 st3">G</text>
<text transform="matrix(1 0 0 1 280.3066 130.1512)" class="st1 st2 st3">U</text>
<text transform="matrix(1 0 0 1 286.8545 106.7935)" class="st1 st2 st3">U</text>
<text transform="matrix(1 0 0 1 300.0981 86.488)" class="st1 st2 st3">G</text>
<text transform="matrix(1 0 0 1 318.7573 70.9846)" class="st1 st2 st3">G</text>
<text transform="matrix(1 0 0 1 341.6875 62.2428)" class="st1 st2 st3">C</text>
<text transform="matrix(1 0 0 1 365.3433 59.5739)" class="st1 st2 st3">G</text>
<text transform="matrix(1 0 0 1 389.2329 64.8792)" class="st1 st2 st3">A</text>
<text transform="matrix(1 0 0 1 410.3442 76.8245)" class="st1 st2 st3">A</text>
<text transform="matrix(1 0 0 1 427.2695 94.843)" class="st1 st2 st3">C</text>
<text transform="matrix(1 0 0 1 441.8787 127.3837)" class="st5 st2 st3">U</text>
<text transform="matrix(1 0 0 1 463.3582 127.4598)" class="st5 st2 st3">G</text>
<text transform="matrix(1 0 0 1 484.7507 127.4456)" class="st5 st2 st3">U</text>
<text transform="matrix(1 0 0 1 506.4089 127.7012)" class="st5 st2 st3">A</text>
<text transform="matrix(1 0 0 1 528.1726 128.06)" class="st5 st2 st3">C</text>
<text transform="matrix(1 0 0 1 552.2427 118.2589)" class="st6 st2 st3">G</text>
<text transform="matrix(1 0 0 1 568.0708 131.0255)" class="st6 st2 st3">C</text>
<text transform="matrix(1 0 0 1 567.7163 150.3171)" class="st6 st2 st3">A</text>
<text transform="matrix(1 0 0 1 552.3584 162.5324)" class="st6 st2 st3">A</text>
<text transform="matrix(1 0 0 1 526.6924 150.9853)" class="st5 st2 st3">G</text>
<text transform="matrix(1 0 0 1 505.2139 150.9094)" class="st5 st2 st3">U</text>
<text transform="matrix(1 0 0 1 484.0049 151.1055)" class="st5 st2 st3">A</text>
<text transform="matrix(1 0 0 1 462.8936 151.4011)" class="st5 st2 st3">C</text>
<text transform="matrix(1 0 0 1 441.1318 151.042)" class="st5 st2 st3">A</text>
<text transform="matrix(1 0 0 1 435.2939 171.4901)" class="st1 st2 st3">C</text>
<text transform="matrix(1 0 0 1 424.8198 189.4964)" class="st5 st2 st3">U</text>
<text transform="matrix(1 0 0 1 440.001 204.7243)" class="st5 st2 st3">G</text>
<text transform="matrix(1 0 0 1 455.1348 219.9027)" class="st5 st2 st3">G</text>
<text transform="matrix(1 0 0 1 472.3735 233.6208)" class="st5 st2 st3">A</text>
<text transform="matrix(1 0 0 1 500.6445 265.5421)" class="st5 st2 st3">U</text>
<text transform="matrix(1 0 0 1 515.8242 280.7664)" class="st5 st2 st3">G</text>
<text transform="matrix(1 0 0 1 531.1396 296.1247)" class="st5 st2 st3">A</text>
<text transform="matrix(1 0 0 1 546.6016 311.6317)" class="st5 st2 st3">C</text>
<text transform="matrix(1 0 0 1 561.4102 326.4824)" class="st5 st2 st3">A</text>
<text transform="matrix(1 0 0 1 576.3701 341.4809)" class="st5 st2 st3">G</text>
<text transform="matrix(1 0 0 1 604.5762 348.0944)" class="st6 st2 st3">C</text>
<text transform="matrix(1 0 0 1 612.1709 366.5045)" class="st6 st2 st3">C</text>
<text transform="matrix(1 0 0 1 603.9707 384.3441)" class="st6 st2 st3">U</text>
<text transform="matrix(1 0 0 1 585.7832 392.1656)" class="st6 st2 st3">A</text>
<text transform="matrix(1 0 0 1 567.168 384.2914)" class="st6 st2 st3">U</text>
<text transform="matrix(1 0 0 1 560.7 359.2424)" class="st5 st2 st3">C</text>
<text transform="matrix(1 0 0 1 543.8911 344.2299)" class="st5 st2 st3">U</text>
<text transform="matrix(1 0 0 1 531.0957 326.4385)" class="st5 st2 st3">A</text>
<text transform="matrix(1 0 0 1 513.6592 313.4462)" class="st5 st2 st3">U</text>
<text transform="matrix(1 0 0 1 500.1 298.2934)" class="st5 st2 st3">C</text>
<text transform="matrix(1 0 0 1 483.0347 282.118)" class="st5 st2 st3">G</text>
<text transform="matrix(1 0 0 1 466.8398 277.2762)" class="st6 st2 st3">G</text>
<text transform="matrix(1 0 0 1 457.1494 267.5612)" class="st6 st2 st3">A</text>
<text transform="matrix(1 0 0 1 451.793 252.7599)" class="st5 st2 st3">U</text>
<text transform="matrix(1 0 0 1 439.4 236.973)" class="st5 st2 st3">C</text>
<text transform="matrix(1 0 0 1 422.3177 222.0318)" class="st5 st2 st3">C</text>
<text transform="matrix(1 0 0 1 409.8623 204.8564)" class="st5 st2 st3">A</text>
<text transform="matrix(1 0 0 1 387.3809 216.6619)" class="st1 st2 st3">C</text>
<text transform="matrix(1 0 0 1 369.2686 220.1427)" class="st1 st2 st3">G</text>
<text transform="matrix(1 0 0 1 326.2896 236.7534)" class="st7 st2 st8">5’</text>
<text transform="matrix(1 0 0 1 372.1562 244.1957)" class="st7 st2 st8">3’</text>
<text transform="matrix(1 0 0 1 226.3208 348.4002)" class="st7 st2 st3">10</text>
<text transform="matrix(1 0 0 1 236.3774 208.5999)" class="st7 st2 st3">20</text>
<text transform="matrix(1 0 0 1 363.5746 34.7669)" class="st7 st2 st3">30</text>
<text transform="matrix(1 0 0 1 592.5554 130.1516)" class="st7 st2 st3">40</text>
<text transform="matrix(1 0 0 1 461.4075 194.1161)" class="st7 st2 st3">50</text>
<text transform="matrix(1 0 0 1 630.9301 376.9582)" class="st7 st2 st3">60</text>
<text transform="matrix(1 0 0 1 448.287 301.42)" class="st7 st2 st3">70</text>
<text transform="matrix(1 0 0 1 23.2534 35.173)" class="st2 st8">M9-5 aptamer</text>
<line class="st0" x1="225.7" y1="337.5" x2="219.7" y2="331.5"/>
<line class="st0" x1="255.3" y1="217.1" x2="249.3" y2="211.1"/>
<line class="st0" x1="371.8" y1="46" x2="372.5" y2="37.6"/>
<line class="st0" x1="591.3" y1="125.5" x2="582.9" y2="124.9"/>
<line class="st0" x1="454" y1="197.3" x2="460.3" y2="191.3"/>
<line class="st0" x1="464.6" y1="286.1" x2="470.6" y2="278.5"/>
<line class="st0" x1="630.9" y1="366.7" x2="624.9" y2="360.7"/>
</svg>
