<svg id="图层_1" data-name="图层 1" xmlns="http://www.w3.org/2000/svg" viewBox="0 0 800 400"><defs><style>.cls-1{fill:#ff0;}.cls-10,.cls-11,.cls-12,.cls-13,.cls-14,.cls-15,.cls-16,.cls-2,.cls-20,.cls-21,.cls-22,.cls-3,.cls-4,.cls-5,.cls-6,.cls-8,.cls-9{isolation:isolate;}.cls-2,.cls-3{font-size:17px;}.cls-10,.cls-11,.cls-12,.cls-13,.cls-14,.cls-15,.cls-16,.cls-2,.cls-20,.cls-21,.cls-3,.cls-6,.cls-8,.cls-9{font-family:ArialMT, Arial;}.cls-3{letter-spacing:-0.06em;}.cls-13,.cls-4,.cls-5{fill:#0a0bff;}.cls-17,.cls-18,.cls-19,.cls-4,.cls-5,.cls-7{stroke:#000;stroke-miterlimit:1.11;}.cls-18,.cls-4,.cls-5{stroke-width:0.75px;}.cls-4{opacity:0.5;}.cls-5{opacity:0.4;}.cls-10,.cls-11,.cls-12,.cls-13,.cls-15,.cls-16,.cls-6,.cls-8,.cls-9{font-size:28px;}.cls-10,.cls-6{fill:#80db9e;}.cls-18,.cls-7{fill:none;}.cls-17,.cls-7{stroke-width:0.14px;}.cls-8,.cls-9{fill:teal;}.cls-10,.cls-15,.cls-16,.cls-9{letter-spacing:-0.22em;}.cls-11,.cls-16{fill:#006b93;}.cls-12,.cls-15{fill:#ff870a;}.cls-14,.cls-20{font-size:21px;}.cls-19{fill:#fff;}.cls-20{letter-spacing:-0.12em;}.cls-21{font-size:22.06px;}</style></defs><ellipse class="cls-1" cx="393.6" cy="249.1" rx="16.5" ry="32"/><text class="cls-2" transform="translate(400.07 279.05) rotate(-90)">D</text><text class="cls-3" transform="translate(400.07 267.11) rotate(-90)">F</text><text class="cls-2" transform="translate(400.07 258.01) rotate(-90)">AME</text><polygon class="cls-4" points="649.6 280.1 628.2 256.7 628.2 223.8 649.6 247.2 649.6 280.1"/><polygon class="cls-4" points="582.5 279.2 561.1 255.9 561.1 223 582.5 246.4 582.5 279.2"/><polygon class="cls-4" points="515.9 280.1 494.5 256.7 494.5 223.8 515.9 247.2 515.9 280.1"/><polygon class="cls-5" points="455.2 277.8 428 255.7 428 222.8 455.2 244.9 455.2 277.8"/><g id="ID000002"><text class="cls-6" transform="translate(161.92 50.69)">G</text></g><g id="ID000003"><text class="cls-6" transform="translate(164.14 101.62)">G</text></g><g id="ID000004"><text class="cls-6" transform="translate(164.87 128.2)">C</text></g><g id="ID000005"><text class="cls-6" transform="translate(164.87 154.77)">C</text></g><g id="ID000006"><text class="cls-6" transform="translate(164.14 181.35)">G</text></g><g id="ID000007"><text class="cls-6" transform="translate(164.14 207.92)">G</text></g><g id="ID000008"><text class="cls-6" transform="translate(111.72 207.92)">C</text></g><g id="ID000009"><text class="cls-6" transform="translate(111.72 181.35)">C</text></g><g id="ID000010"><text class="cls-6" transform="translate(110.99 154.77)">G</text></g><g id="ID000011"><text class="cls-6" transform="translate(110.99 128.2)">G</text></g><g id="ID000012"><text class="cls-6" transform="translate(111.72 101.62)">C</text></g><g id="ID000013"><line class="cls-7" x1="164.8" y1="89.7" x2="132.9" y2="89.7"/></g><g id="ID000014"><line class="cls-7" x1="164.8" y1="116.2" x2="132.9" y2="116.2"/></g><g id="ID000015"><line class="cls-7" x1="164.8" y1="142.8" x2="132.9" y2="142.8"/></g><g id="ID000005-2"><text class="cls-6" transform="translate(163.85 76.16)">C</text></g><g id="ID000010-2"><text class="cls-6" transform="translate(109.97 76.16)">G</text></g><g id="ID000015-2"><line class="cls-7" x1="163.8" y1="64.2" x2="131.9" y2="64.2"/></g><g id="ID000016"><line class="cls-7" x1="164.8" y1="169.4" x2="132.9" y2="169.4"/></g><g id="ID000009-2"><text class="cls-6" transform="translate(110.34 50.69)">C</text></g><g id="ID000016-2"><line class="cls-7" x1="163.4" y1="38.7" x2="131.5" y2="38.7"/></g><g id="ID000017"><line class="cls-7" x1="164.8" y1="196" x2="132.9" y2="196"/></g><g id="ID000019"><text class="cls-8" transform="translate(241.65 236.71)">G</text></g><g id="ID000019-2"><text class="cls-6" transform="translate(247.27 208.24)">G</text></g><g id="ID000020"><text class="cls-8" transform="translate(268.96 236.71)">C</text></g><g id="ID000021"><text class="cls-9" transform="translate(296.26 236.71)">A</text></g><g id="ID000022"><text class="cls-8" transform="translate(321.37 236.71)">G</text></g><g id="ID000023"><text class="cls-9" transform="translate(349.41 236.71)">A</text></g><g id="ID000023-2"><text class="cls-10" transform="translate(236.43 180.66)">A</text></g><g id="ID000024"><text class="cls-11" transform="translate(409.96 221.21)">G</text></g><g id="ID000025"><text class="cls-11" transform="translate(476.39 221.21)">G</text></g><g id="ID000026"><text class="cls-12" transform="translate(477.13 194.63)">U</text></g><g id="ID000027"><text class="cls-13" transform="translate(609.27 221.21)">G</text></g><g id="ID000028"><line class="cls-7" x1="623.7" y1="199.3" x2="634" y2="151.1"/></g><g id="ID000029"><text class="cls-14" transform="translate(625.81 149.61)">20</text></g><g id="ID000029-2"><text class="cls-14" transform="translate(234.72 140.75)">10</text></g><g id="ID000030"><text class="cls-13" transform="translate(542.83 221.21)">G</text></g><g id="ID000031"><text class="cls-11" transform="translate(509.61 254.43)">G</text></g><g id="ID000032"><text class="cls-12" transform="translate(643.22 181.35)">U</text></g><g id="ID000033"><text class="cls-13" transform="translate(642.49 254.43)">G</text></g><g id="ID000034"><text class="cls-13" transform="translate(576.05 254.43)">G</text></g><g id="ID000035"><text class="cls-11" transform="translate(450.55 251.43)">U</text></g><g id="ID000036"><text class="cls-11" transform="translate(509.61 300.94)">G</text></g><g id="ID000037"><text class="cls-12" transform="translate(643.22 347.44)">U</text></g><g id="ID000038"><text class="cls-13" transform="translate(642.49 300.94)">G</text></g><g id="ID000039"><text class="cls-13" transform="translate(576.05 300.94)">G</text></g><g id="ID000040"><line class="cls-7" x1="579.3" y1="300.3" x2="561.8" y2="325.5"/></g><g id="ID000041"><text class="cls-14" transform="translate(539.87 341.39)">30</text></g><g id="ID000042"><text class="cls-15" transform="translate(610.74 387.3)">A</text></g><g id="ID000043"><text class="cls-13" transform="translate(609.27 267.71)">G</text></g><g id="ID000044"><text class="cls-13" transform="translate(542.83 267.71)">G</text></g><g id="ID000045"><text class="cls-16" transform="translate(411.42 267.71)">A</text></g><g id="ID000046"><text class="cls-11" transform="translate(476.39 267.71)">G</text></g><g id="ID000047"><text class="cls-12" transform="translate(477.13 347.44)">U</text></g><g id="ID000048"><text class="cls-16" transform="translate(451.28 300.94)">A</text></g><g id="ID000049"><text class="cls-8" transform="translate(348.68 289.86)">U</text></g><g id="ID000049-2"><text class="cls-6" transform="translate(189.51 208.26)">U</text></g><g id="ID000049-3"><text class="cls-6" transform="translate(209.26 186.66)">U</text></g><g id="ID000050"><text class="cls-8" transform="translate(322.11 289.86)">C</text></g><g id="ID000051"><text class="cls-8" transform="translate(295.53 289.86)">U</text></g><g id="ID000052"><line class="cls-7" x1="306.1" y1="290.6" x2="306.1" y2="308.3"/></g><g id="ID000052-2"><line class="cls-7" x1="246.1" y1="140.8" x2="246.1" y2="158.5"/></g><g id="ID000053"><text class="cls-14" transform="translate(293.38 325.7)">40</text></g><g id="ID000054"><text class="cls-8" transform="translate(268.22 289.86)">G</text></g><g id="ID000055"><text class="cls-8" transform="translate(242.38 289.86)">U</text></g><g id="ID000056"><polygon class="cls-17" points="252.9 254 253.1 254 253.3 254 253.4 253.9 253.6 253.9 253.8 253.9 253.9 253.8 254.1 253.7 254.2 253.6 254.4 253.6 254.5 253.5 254.6 253.4 254.8 253.2 254.9 253.1 255 253 255.1 252.9 255.2 252.7 255.3 252.6 255.4 252.4 255.4 252.3 255.5 252.1 255.5 252 255.6 251.8 255.6 251.6 255.6 251.5 255.6 251.3 255.6 251.1 255.6 250.9 255.5 250.8 255.5 250.6 255.4 250.5 255.4 250.3 255.3 250.1 255.2 250 255.1 249.9 255 249.7 254.9 249.6 254.8 249.5 254.7 249.4 254.6 249.2 254.4 249.1 254.3 249.1 254.1 249 254 248.9 253.8 248.8 253.7 248.8 253.5 248.7 253.4 248.7 253.2 248.7 253 248.7 252.8 248.7 252.7 248.7 252.5 248.7 252.3 248.7 252.2 248.8 252 248.8 251.9 248.9 251.7 249 251.6 249.1 251.4 249.1 251.3 249.2 251.2 249.4 251 249.5 250.9 249.6 250.8 249.7 250.7 249.9 250.6 250 250.6 250.1 250.5 250.3 250.4 250.5 250.4 250.6 250.3 250.8 250.3 250.9 250.3 251.1 250.3 251.3 250.3 251.5 250.3 251.6 250.3 251.8 250.4 252 250.4 252.1 250.4 252.3 250.5 252.4 250.6 252.6 250.7 252.7 250.8 252.9 250.9 253 251 253.1 251.1 253.2 251.2 253.4 251.4 253.5 251.5 253.6 251.6 253.6 251.8 253.7 251.9 253.8 252.1 253.9 252.3 253.9 252.4 253.9 252.6 254 252.8 254 252.9 254"/></g><g id="ID000057"><line class="cls-7" x1="279.5" y1="235.4" x2="279.5" y2="267.3"/></g><g id="ID000058"><line class="cls-7" x1="306.1" y1="235.4" x2="306.1" y2="267.3"/></g><g id="ID000059"><line class="cls-7" x1="332.6" y1="235.4" x2="332.6" y2="267.3"/></g><g id="ID000060"><line class="cls-7" x1="359.2" y1="235.4" x2="359.2" y2="267.3"/></g><g id="ID000062"><line class="cls-18" x1="369.5" y1="222.2" x2="410.9" y2="211.8"/></g><g id="ID000063"><polygon class="cls-17" points="385.5 214.3 388.2 215.7 390.5 215.8 392.7 215.6 397.3 215.5 393.2 217.5 391.1 218.4 389.1 219.5 387.5 222 385.5 214.3"/></g><g id="ID000064"><line class="cls-18" x1="450.5" y1="287.8" x2="369.8" y2="279"/></g><g id="ID000065"><polygon class="cls-17" points="413.3 287.4 411.3 285.1 409.1 284.2 407 283.7 402.7 282.2 407.2 281.7 409.4 281.6 411.7 281.2 414.1 279.4 413.3 287.4"/></g><g id="ID000066"><line class="cls-18" x1="431.9" y1="209.2" x2="477" y2="209.2"/></g><g id="ID000067"><polygon class="cls-17" points="447.1 205.3 449.3 207.3 451.5 207.9 453.8 208.2 458.2 209.2 453.8 210.2 451.5 210.6 449.3 211.2 447.1 213.2 447.1 205.3"/></g><g id="ID000068"><polyline class="cls-18" points="498.3 182.7 620.5 182.7 620.5 198.6"/></g><g id="ID000069"><polygon class="cls-17" points="556.1 178.7 558.3 180.7 560.5 181.4 562.7 181.7 567.2 182.7 562.7 183.7 560.5 184 558.3 184.7 556.1 186.7 556.1 178.7"/></g><g id="ID000070"><line class="cls-18" x1="609.9" y1="209.2" x2="564.7" y2="209.2"/></g><g id="ID000071"><polygon class="cls-17" points="601.7 213.2 599.5 211.2 597.2 210.6 595 210.2 590.6 209.2 595 208.2 597.2 207.9 599.5 207.3 601.7 205.3 601.7 213.2"/></g><g id="ID000072"><line class="cls-18" x1="546.6" y1="216.8" x2="528.4" y2="234.9"/></g><g id="ID000073"><polygon class="cls-17" points="544.1 224.9 541.1 225.1 539.1 226.2 537.3 227.5 533.4 229.9 535.9 226.1 537.2 224.3 538.3 222.3 538.4 219.3 544.1 224.9"/></g><g id="ID000074"><line class="cls-18" x1="653.8" y1="180" x2="653.8" y2="231.8"/></g><g id="ID000075"><polygon class="cls-17" points="657.8 202.6 655.8 204.8 655.1 207 654.8 209.2 653.8 213.7 652.8 209.2 652.4 207 651.8 204.8 649.8 202.6 657.8 202.6"/></g><g id="ID000076"><polyline class="cls-18" points="521 231.8 521.9 169.4 643.1 169.4"/></g><g id="ID000077"><polygon class="cls-17" points="570.2 165.4 572.4 167.4 574.6 168.1 576.8 168.4 581.2 169.4 576.8 170.4 574.6 170.7 572.4 171.4 570.2 173.4 570.2 165.4"/></g><g id="ID000078"><line class="cls-18" x1="643.1" y1="242.5" x2="598" y2="242.5"/></g><g id="ID000079"><polygon class="cls-17" points="635.9 246.5 633.7 244.5 631.5 243.8 629.2 243.5 624.8 242.5 629.2 241.5 631.5 241.1 633.7 240.5 635.9 238.5 635.9 246.5"/></g><g id="ID000080"><polyline class="cls-18" points="464 252.7 474.4 289 510.3 289"/></g><g id="ID000081"><polygon class="cls-17" points="494 285 496.2 287 498.4 287.6 500.6 288 505.1 289 500.6 290 498.4 290.3 496.2 291 494 293 494 285"/></g><g id="ID000082"><polyline class="cls-18" points="587.3 231.8 587.3 162.8 461.1 162.8 461.1 231.8"/></g><g id="ID000083"><polygon class="cls-17" points="527.5 166.7 525.3 164.7 523.1 164.1 520.9 163.7 516.5 162.8 520.9 161.8 523.1 161.4 525.3 160.8 527.5 158.8 527.5 166.7"/></g><g id="ID000084"><line class="cls-18" x1="530.9" y1="292.5" x2="643.7" y2="332"/></g><g id="ID000085"><polygon class="cls-17" points="581.8 306.5 583.3 309.2 585.2 310.5 587.1 311.6 591 314 586.5 313.5 584.3 313 582 312.9 579.2 314.1 581.8 306.5"/></g><g id="ID000086"><line class="cls-18" x1="487.7" y1="266.4" x2="487.7" y2="324.9"/></g><g id="ID000087"><polygon class="cls-17" points="491.7 274.3 489.7 276.5 489 278.7 488.7 280.9 487.7 285.4 486.7 280.9 486.4 278.7 485.7 276.5 483.7 274.3 491.7 274.3"/></g><g id="ID000088"><line class="cls-18" x1="426.7" y1="255.8" x2="475" y2="255.8"/></g><g id="ID000089"><polygon class="cls-17" points="437.1 251.8 439.3 253.8 441.5 254.4 443.8 254.8 448.2 255.8 443.8 256.8 441.5 257.1 439.3 257.8 437.1 259.7 437.1 251.8"/></g><g id="ID000090"><line class="cls-18" x1="653.8" y1="324.9" x2="653.8" y2="299.6"/></g><g id="ID000091"><polygon class="cls-17" points="649.8 315.6 651.8 313.4 652.4 311.1 652.8 308.9 653.8 304.5 654.8 308.9 655.1 311.1 655.8 313.4 657.8 315.6 649.8 315.6"/></g><g id="ID000092"><line class="cls-18" x1="591.2" y1="298.9" x2="616.7" y2="365.4"/></g><g id="ID000093"><polygon class="cls-17" points="605.6 326.9 604.5 329.7 604.7 332 605.2 334.2 605.9 338.7 603.3 334.9 602.2 333 600.8 331.1 598.2 329.8 605.6 326.9"/></g><g id="ID000094"><line class="cls-18" x1="620.5" y1="364.7" x2="620.5" y2="266.4"/></g><g id="ID000095"><polygon class="cls-17" points="616.6 318.9 618.6 316.7 619.2 314.5 619.5 312.2 620.5 307.8 621.5 312.2 621.9 314.5 622.5 316.7 624.5 318.9 616.6 318.9"/></g><g id="ID000096"><polyline class="cls-18" points="554.1 266.4 554.1 308.9 421.2 308.9 421.2 266.4"/></g><g id="ID000097"><polygon class="cls-17" points="510 312.9 507.8 310.9 505.6 310.2 503.4 309.9 498.9 308.9 503.4 307.9 505.6 307.6 507.8 306.9 510 304.9 510 312.9"/></g><g id="ID000098"><line class="cls-18" x1="643.1" y1="289" x2="598" y2="289"/></g><g id="ID000099"><polygon class="cls-17" points="634.9 293 632.7 291 630.5 290.3 628.2 290 623.8 289 628.2 288 630.5 287.6 632.7 287 634.9 285 634.9 293"/></g><g id="ID000100"><line class="cls-18" x1="609.9" y1="255.8" x2="564.7" y2="255.8"/></g><g id="ID000101"><polygon class="cls-17" points="606.7 259.7 604.5 257.8 602.2 257.1 600 256.8 595.6 255.8 600 254.8 602.2 254.4 604.5 253.8 606.7 251.8 606.7 259.7"/></g><g id="ID000102"><line class="cls-18" x1="482.4" y1="326.2" x2="466.4" y2="298.2"/></g><g id="ID000103"><polygon class="cls-17" points="475.3 322.1 475.9 319.2 475.4 316.9 474.6 314.8 473.3 310.5 476.3 313.8 477.7 315.6 479.4 317.2 482.2 318.1 475.3 322.1"/></g><g id="ID000104"><line class="cls-7" x1="461.1" y1="253.1" x2="461.1" y2="278.4"/></g><g id="ID000105"><polygon class="cls-17" points="461.1 268.4 461.3 268.4 461.4 268.4 461.6 268.3 461.8 268.3 461.9 268.2 462.1 268.2 462.2 268.1 462.4 268 462.5 268 462.7 267.9 462.8 267.8 462.9 267.6 463 267.5 463.2 267.4 463.3 267.3 463.4 267.1 463.4 267 463.5 266.8 463.6 266.7 463.6 266.5 463.7 266.4 463.7 266.2 463.7 266 463.8 265.9 463.8 265.7 463.8 265.5 463.7 265.4 463.7 265.2 463.7 265 463.6 264.9 463.5 264.7 463.5 264.5 463.4 264.4 463.3 264.2 463.2 264.1 463.1 264 463 263.9 462.9 263.7 462.7 263.6 462.6 263.5 462.5 263.4 462.3 263.4 462.2 263.3 462 263.2 461.9 263.2 461.7 263.1 461.5 263.1 461.4 263.1 461.2 263.1 461 263.1 460.9 263.1 460.7 263.1 460.5 263.1 460.4 263.2 460.2 263.2 460 263.3 459.9 263.4 459.7 263.4 459.6 263.5 459.5 263.6 459.3 263.7 459.2 263.9 459.1 264 459 264.1 458.9 264.2 458.8 264.4 458.7 264.5 458.6 264.7 458.6 264.9 458.5 265 458.5 265.2 458.5 265.4 458.5 265.5 458.4 265.7 458.5 265.9 458.5 266 458.5 266.2 458.5 266.4 458.6 266.5 458.6 266.7 458.7 266.8 458.8 267 458.8 267.1 458.9 267.3 459 267.4 459.1 267.5 459.3 267.6 459.4 267.8 459.5 267.9 459.7 268 459.8 268 460 268.1 460.1 268.2 460.3 268.2 460.4 268.3 460.6 268.3 460.8 268.4 460.9 268.4 461.1 268.4"/></g><g id="ID000106"><line class="cls-7" x1="429.4" y1="216.1" x2="452.9" y2="235.7"/></g><g id="ID000107"><polygon class="cls-19" points="435.8 221.7 435.7 221.9 435.6 222 435.5 222.1 435.5 222.3 435.4 222.5 435.3 222.6 435.3 222.8 435.2 222.9 435.2 223.1 435.2 223.3 435.2 223.4 435.2 223.6 435.2 223.8 435.2 223.9 435.3 224.1 435.3 224.3 435.4 224.4 435.5 224.6 435.5 224.7 435.6 224.9 435.7 225 435.8 225.1 435.9 225.3 436.1 225.4 436.2 225.5 436.3 225.6 436.5 225.7 436.6 225.8 436.8 225.9 436.9 225.9 437.1 226 437.2 226 437.4 226.1 437.6 226.1 437.7 226.1 437.9 226.1 438.1 226.1 438.2 226.1 438.4 226 438.6 226 438.7 225.9 438.9 225.9 439 225.8 439.2 225.7 439.3 225.6 439.5 225.6 439.6 225.4 439.7 225.3 439.9 225.2 440 225.1 440.1 224.9 440.1 224.8 440.2 224.6 440.3 224.5 440.4 224.3 440.4 224.2 440.5 224 440.5 223.9 440.5 223.7 440.5 223.5 440.5 223.3 440.5 223.2 440.5 223 440.5 222.8 440.4 222.7 440.4 222.5 440.3 222.4 440.2 222.2 440.1 222.1 440 221.9 439.9 221.8 439.8 221.7 439.7 221.5 439.6 221.4 439.5 221.3 439.3 221.2 439.2 221.1 439 221.1 438.9 221 438.7 220.9 438.6 220.9 438.4 220.8 438.2 220.8 438.1 220.8 437.9 220.8 437.7 220.8 437.6 220.8 437.4 220.8 437.2 220.9 437.1 220.9 436.9 221 436.8 221 436.6 221.1 436.5 221.2 436.3 221.3 436.2 221.4 436 221.5 435.9 221.6 435.8 221.7"/></g><g id="ID000108"><polygon class="cls-19" points="448.2 227.9 444.1 224.5 440.7 228.6 444.8 232 448.2 227.9"/></g><g id="ID000109"><line class="cls-7" x1="421.2" y1="219.9" x2="421.2" y2="245.1"/></g><g id="ID000110"><polygon class="cls-19" points="421.2 228.3 418.2 233.5 424.2 233.5 421.2 228.3"/></g><g id="ID000111"><polygon class="cls-19" points="421.2 242.1 421.4 242.1 421.6 242.1 421.7 242 421.9 242 422.1 241.9 422.2 241.9 422.4 241.8 422.5 241.7 422.7 241.6 422.8 241.6 423 241.4 423.1 241.3 423.2 241.2 423.3 241.1 423.4 241 423.5 240.8 423.6 240.7 423.7 240.5 423.7 240.4 423.8 240.2 423.8 240 423.9 239.9 423.9 239.7 423.9 239.5 423.9 239.4 423.9 239.2 423.9 239 423.8 238.9 423.8 238.7 423.8 238.6 423.7 238.4 423.6 238.2 423.5 238.1 423.5 237.9 423.4 237.8 423.2 237.7 423.1 237.6 423 237.4 422.9 237.3 422.8 237.2 422.6 237.1 422.5 237.1 422.3 237 422.1 236.9 422 236.9 421.8 236.8 421.7 236.8 421.5 236.8 421.3 236.8 421.1 236.8 421 236.8 420.8 236.8 420.6 236.8 420.5 236.9 420.3 236.9 420.2 237 420 237.1 419.9 237.1 419.7 237.2 419.6 237.3 419.5 237.4 419.3 237.6 419.2 237.7 419.1 237.8 419 237.9 418.9 238.1 418.9 238.2 418.8 238.4 418.7 238.6 418.7 238.7 418.6 238.9 418.6 239 418.6 239.2 418.6 239.4 418.6 239.5 418.6 239.7 418.6 239.9 418.7 240 418.7 240.2 418.8 240.4 418.8 240.5 418.9 240.7 419 240.8 419.1 241 419.2 241.1 419.3 241.2 419.4 241.3 419.5 241.4 419.7 241.6 419.8 241.6 420 241.7 420.1 241.8 420.2 241.9 420.4 241.9 420.6 242 420.7 242 420.9 242.1 421.1 242.1 421.2 242.1"/></g><g id="ID000112"><line class="cls-7" x1="484.3" y1="219.3" x2="464.5" y2="278.9"/></g><g id="ID000113"><polygon class="cls-17" points="476.1 252.5 477.8 247.4 472.7 245.8 471 250.8 476.1 252.5"/></g><g id="ID000114"><line class="cls-7" x1="653.8" y1="253.1" x2="653.8" y2="278.4"/></g><g id="ID000115"><polygon class="cls-17" points="653.8 262.2 653.6 262.2 653.4 262.2 653.3 262.2 653.1 262.2 652.9 262.3 652.8 262.4 652.6 262.4 652.5 262.5 652.3 262.6 652.2 262.7 652.1 262.8 651.9 262.9 651.8 263 651.7 263.1 651.6 263.3 651.5 263.4 651.4 263.6 651.3 263.7 651.3 263.9 651.2 264 651.2 264.2 651.2 264.4 651.1 264.5 651.1 264.7 651.1 264.9 651.1 265 651.1 265.2 651.2 265.4 651.2 265.5 651.3 265.7 651.3 265.8 651.4 266 651.5 266.1 651.6 266.3 651.7 266.4 651.8 266.5 651.9 266.7 652 266.8 652.1 266.9 652.3 267 652.4 267.1 652.5 267.2 652.7 267.2 652.9 267.3 653 267.4 653.2 267.4 653.3 267.4 653.5 267.5 653.7 267.5 653.9 267.5 654 267.5 654.2 267.4 654.4 267.4 654.5 267.4 654.7 267.3 654.8 267.2 655 267.2 655.1 267.1 655.3 267 655.4 266.9 655.5 266.8 655.7 266.7 655.8 266.5 655.9 266.4 656 266.3 656.1 266.1 656.2 266 656.2 265.8 656.3 265.7 656.3 265.5 656.4 265.4 656.4 265.2 656.4 265 656.4 264.9 656.4 264.7 656.4 264.5 656.4 264.4 656.3 264.2 656.3 264 656.2 263.9 656.2 263.7 656.1 263.6 656 263.4 655.9 263.3 655.8 263.1 655.7 263 655.6 262.9 655.5 262.8 655.3 262.7 655.2 262.6 655.1 262.5 654.9 262.4 654.8 262.4 654.6 262.3 654.4 262.2 654.3 262.2 654.1 262.2 653.9 262.2 653.8 262.2"/></g><g id="ID000116"><polygon class="cls-17" points="656.4 275.3 656.4 270 651.1 270 651.1 275.3 656.4 275.3"/></g><g id="ID000117"><line class="cls-7" x1="579.8" y1="281.5" x2="561.6" y2="263.3"/></g><g id="ID000118"><polygon class="cls-17" points="577.5 279.1 577.6 279 577.7 278.9 577.8 278.7 577.9 278.6 578 278.5 578 278.3 578.1 278.1 578.2 278 578.2 277.8 578.2 277.6 578.3 277.5 578.3 277.3 578.3 277.1 578.2 277 578.2 276.8 578.2 276.6 578.2 276.5 578.1 276.3 578 276.2 578 276 577.9 275.9 577.8 275.7 577.7 275.6 577.6 275.5 577.5 275.3 577.3 275.2 577.2 275.1 577.1 275 576.9 274.9 576.8 274.9 576.6 274.8 576.5 274.7 576.3 274.7 576.1 274.6 576 274.6 575.8 274.6 575.6 274.6 575.5 274.6 575.3 274.6 575.1 274.6 575 274.7 574.8 274.7 574.6 274.8 574.5 274.8 574.3 274.9 574.2 275 574 275.1 573.9 275.2 573.8 275.3 573.7 275.4 573.6 275.6 573.5 275.7 573.4 275.8 573.3 276 573.2 276.1 573.1 276.3 573.1 276.4 573 276.6 573 276.8 573 276.9 573 277.1 573 277.3 573 277.4 573 277.6 573 277.8 573 277.9 573.1 278.1 573.2 278.3 573.2 278.4 573.3 278.6 573.4 278.7 573.5 278.9 573.6 279 573.7 279.1 573.8 279.2 574 279.3 574.1 279.4 574.2 279.5 574.4 279.6 574.5 279.7 574.7 279.7 574.8 279.8 575 279.8 575.2 279.9 575.3 279.9 575.5 279.9 575.7 279.9 575.8 279.9 576 279.9 576.2 279.9 576.3 279.8 576.5 279.8 576.7 279.7 576.8 279.6 577 279.5 577.1 279.5 577.2 279.4 577.4 279.2 577.5 279.1"/></g><g id="ID000119"><polygon class="cls-17" points="567.1 271.5 570.8 275.2 574.6 271.5 570.8 267.7 567.1 271.5"/></g><g id="ID000120"><line class="cls-7" x1="587.3" y1="253.1" x2="587.3" y2="278.4"/></g><g id="ID000121"><polygon class="cls-17" points="587.3 262.2 587.2 262.2 587 262.2 586.8 262.2 586.7 262.2 586.5 262.3 586.3 262.4 586.2 262.4 586 262.5 585.9 262.6 585.8 262.7 585.6 262.8 585.5 262.9 585.4 263 585.3 263.1 585.2 263.3 585.1 263.4 585 263.6 584.9 263.7 584.8 263.9 584.8 264 584.8 264.2 584.7 264.4 584.7 264.5 584.7 264.7 584.7 264.9 584.7 265 584.7 265.2 584.7 265.4 584.8 265.5 584.8 265.7 584.9 265.8 585 266 585 266.1 585.1 266.3 585.2 266.4 585.3 266.5 585.4 266.7 585.6 266.8 585.7 266.9 585.8 267 586 267.1 586.1 267.2 586.3 267.2 586.4 267.3 586.6 267.4 586.8 267.4 586.9 267.4 587.1 267.5 587.2 267.5 587.4 267.5 587.6 267.5 587.8 267.4 587.9 267.4 588.1 267.4 588.2 267.3 588.4 267.2 588.5 267.2 588.7 267.1 588.8 267 589 266.9 589.1 266.8 589.2 266.7 589.3 266.5 589.5 266.4 589.5 266.3 589.6 266.1 589.7 266 589.8 265.8 589.8 265.7 589.9 265.5 589.9 265.4 590 265.2 590 265 590 264.9 590 264.7 590 264.5 590 264.4 589.9 264.2 589.9 264 589.8 263.9 589.8 263.7 589.7 263.6 589.6 263.4 589.5 263.3 589.4 263.1 589.3 263 589.2 262.9 589 262.8 588.9 262.7 588.8 262.6 588.6 262.5 588.5 262.4 588.3 262.4 588.2 262.3 588 262.2 587.8 262.2 587.7 262.2 587.5 262.2 587.3 262.2"/></g><g id="ID000122"><polygon class="cls-17" points="590 275.3 590 270 584.7 270 584.7 275.3 590 275.3"/></g><g id="ID000123"><line class="cls-7" x1="646.2" y1="281.5" x2="628.1" y2="263.3"/></g><g id="ID000124"><polygon class="cls-17" points="641.9 278.1 642 278 642.2 277.9 642.2 277.7 642.3 277.6 642.4 277.5 642.5 277.3 642.5 277.1 642.6 277 642.6 276.8 642.7 276.6 642.7 276.5 642.7 276.3 642.7 276.1 642.7 276 642.7 275.8 642.6 275.6 642.6 275.5 642.5 275.3 642.5 275.2 642.4 275 642.3 274.9 642.2 274.7 642.1 274.6 642 274.5 641.9 274.3 641.8 274.2 641.6 274.1 641.5 274 641.4 273.9 641.2 273.9 641 273.8 640.9 273.7 640.7 273.7 640.6 273.6 640.4 273.6 640.2 273.6 640.1 273.6 639.9 273.6 639.7 273.6 639.6 273.6 639.4 273.7 639.2 273.7 639.1 273.8 638.9 273.8 638.8 273.9 638.6 274 638.5 274.1 638.4 274.2 638.2 274.3 638.1 274.4 638 274.6 637.9 274.7 637.8 274.8 637.7 275 637.6 275.1 637.6 275.3 637.5 275.4 637.5 275.6 637.4 275.8 637.4 275.9 637.4 276.1 637.4 276.3 637.4 276.4 637.4 276.6 637.4 276.8 637.5 276.9 637.5 277.1 637.6 277.3 637.7 277.4 637.7 277.6 637.8 277.7 637.9 277.9 638 278 638.1 278.1 638.3 278.2 638.4 278.3 638.5 278.4 638.7 278.5 638.8 278.6 639 278.7 639.1 278.7 639.3 278.8 639.4 278.8 639.6 278.9 639.8 278.9 639.9 278.9 640.1 278.9 640.3 278.9 640.5 278.9 640.6 278.9 640.8 278.8 640.9 278.8 641.1 278.7 641.2 278.6 641.4 278.5 641.5 278.5 641.7 278.4 641.8 278.2 641.9 278.1"/></g><g id="ID000125"><polygon class="cls-17" points="631.5 270.5 635.3 274.2 639 270.5 635.3 266.7 631.5 270.5"/></g><g id="ID000126"><line class="cls-7" x1="495.2" y1="216.8" x2="513.4" y2="234.9"/></g><g id="ID000127"><polygon class="cls-17" points="501.5 223.1 501.4 223.2 501.3 223.4 501.2 223.5 501.1 223.6 501 223.8 501 223.9 500.9 224.1 500.8 224.2 500.8 224.4 500.8 224.6 500.8 224.7 500.7 224.9 500.8 225.1 500.8 225.2 500.8 225.4 500.8 225.6 500.9 225.7 500.9 225.9 501 226.1 501 226.2 501.1 226.4 501.2 226.5 501.3 226.6 501.4 226.8 501.5 226.9 501.7 227 501.8 227.1 502 227.2 502.1 227.3 502.2 227.4 502.4 227.4 502.5 227.5 502.7 227.5 502.9 227.6 503 227.6 503.2 227.6 503.4 227.6 503.5 227.6 503.7 227.6 503.9 227.6 504 227.6 504.2 227.5 504.4 227.4 504.5 227.4 504.7 227.3 504.8 227.2 505 227.1 505.1 227 505.2 226.9 505.3 226.8 505.5 226.7 505.5 226.5 505.6 226.4 505.7 226.2 505.8 226.1 505.9 225.9 505.9 225.8 506 225.6 506 225.5 506 225.3 506 225.1 506.1 224.9 506 224.8 506 224.6 506 224.4 506 224.3 505.9 224.1 505.9 224 505.8 223.8 505.7 223.7 505.6 223.5 505.5 223.4 505.4 223.2 505.3 223.1 505.2 223 505.1 222.9 504.9 222.8 504.8 222.7 504.6 222.6 504.5 222.6 504.3 222.5 504.2 222.4 504 222.4 503.8 222.4 503.7 222.3 503.5 222.3 503.3 222.3 503.2 222.3 503 222.4 502.8 222.4 502.7 222.4 502.5 222.5 502.4 222.5 502.2 222.6 502 222.7 501.9 222.8 501.8 222.9 501.6 223 501.5 223.1"/></g><g id="ID000128"><polygon class="cls-17" points="512.9 230.8 509.2 227 505.4 230.8 509.2 234.5 512.9 230.8"/></g><g id="ID000129"><line class="cls-7" x1="513.4" y1="281.5" x2="495.2" y2="263.3"/></g><g id="ID000130"><polygon class="cls-17" points="510 278.1 510.2 278 510.3 277.9 510.4 277.7 510.5 277.6 510.5 277.5 510.6 277.3 510.7 277.1 510.7 277 510.8 276.8 510.8 276.6 510.8 276.5 510.8 276.3 510.8 276.1 510.8 276 510.8 275.8 510.8 275.6 510.7 275.5 510.7 275.3 510.6 275.2 510.5 275 510.4 274.9 510.4 274.7 510.2 274.6 510.1 274.5 510 274.3 509.9 274.2 509.8 274.1 509.6 274 509.5 273.9 509.3 273.9 509.2 273.8 509 273.7 508.9 273.7 508.7 273.6 508.5 273.6 508.4 273.6 508.2 273.6 508 273.6 507.9 273.6 507.7 273.6 507.5 273.7 507.4 273.7 507.2 273.8 507 273.8 506.9 273.9 506.8 274 506.6 274.1 506.5 274.2 506.4 274.3 506.2 274.4 506.1 274.6 506 274.7 505.9 274.8 505.8 275 505.8 275.1 505.7 275.3 505.6 275.4 505.6 275.6 505.6 275.8 505.5 275.9 505.5 276.1 505.5 276.3 505.5 276.4 505.5 276.6 505.6 276.8 505.6 276.9 505.6 277.1 505.7 277.3 505.8 277.4 505.9 277.6 506 277.7 506 277.9 506.1 278 506.3 278.1 506.4 278.2 506.5 278.3 506.6 278.4 506.8 278.5 506.9 278.6 507.1 278.7 507.2 278.7 507.4 278.8 507.6 278.8 507.7 278.9 507.9 278.9 508.1 278.9 508.2 278.9 508.4 278.9 508.6 278.9 508.7 278.9 508.9 278.8 509.1 278.8 509.2 278.7 509.4 278.6 509.5 278.5 509.7 278.5 509.8 278.4 509.9 278.2 510 278.1"/></g><g id="ID000131"><polygon class="cls-17" points="498.6 270.5 502.4 274.2 506.2 270.5 502.4 266.7 498.6 270.5"/></g><g id="ID000132"><line class="cls-7" x1="561.6" y1="216.8" x2="579.8" y2="234.9"/></g><g id="ID000133"><polygon class="cls-17" points="568 223.1 567.8 223.2 567.7 223.4 567.6 223.5 567.5 223.6 567.5 223.8 567.4 223.9 567.3 224.1 567.3 224.2 567.2 224.4 567.2 224.6 567.2 224.7 567.2 224.9 567.2 225.1 567.2 225.2 567.2 225.4 567.2 225.6 567.3 225.7 567.3 225.9 567.4 226.1 567.5 226.2 567.6 226.4 567.7 226.5 567.8 226.6 567.9 226.8 568 226.9 568.1 227 568.2 227.1 568.4 227.2 568.5 227.3 568.7 227.4 568.8 227.4 569 227.5 569.2 227.5 569.3 227.6 569.5 227.6 569.7 227.6 569.8 227.6 570 227.6 570.2 227.6 570.3 227.6 570.5 227.6 570.7 227.5 570.8 227.4 571 227.4 571.1 227.3 571.3 227.2 571.4 227.1 571.5 227 571.7 226.9 571.8 226.8 571.9 226.7 572 226.5 572.1 226.4 572.2 226.2 572.2 226.1 572.3 225.9 572.4 225.8 572.4 225.6 572.5 225.5 572.5 225.3 572.5 225.1 572.5 224.9 572.5 224.8 572.5 224.6 572.4 224.4 572.4 224.3 572.4 224.1 572.3 224 572.2 223.8 572.2 223.7 572.1 223.5 572 223.4 571.9 223.2 571.8 223.1 571.6 223 571.5 222.9 571.4 222.8 571.2 222.7 571.1 222.6 570.9 222.6 570.8 222.5 570.6 222.4 570.4 222.4 570.3 222.4 570.1 222.3 569.9 222.3 569.8 222.3 569.6 222.3 569.4 222.4 569.3 222.4 569.1 222.4 569 222.5 568.8 222.5 568.6 222.6 568.5 222.7 568.3 222.8 568.2 222.9 568.1 223 568 223.1"/></g><g id="ID000134"><polygon class="cls-17" points="579.4 230.8 575.6 227 571.8 230.8 575.6 234.5 579.4 230.8"/></g><g id="ID000135"><line class="cls-7" x1="520.9" y1="253.1" x2="520.9" y2="278.4"/></g><g id="ID000136"><polygon class="cls-17" points="520.9 261.2 520.7 261.2 520.6 261.2 520.4 261.2 520.2 261.2 520.1 261.3 519.9 261.4 519.8 261.4 519.6 261.5 519.5 261.6 519.3 261.7 519.2 261.8 519.1 261.9 518.9 262 518.8 262.1 518.7 262.3 518.6 262.4 518.5 262.6 518.5 262.7 518.4 262.9 518.4 263 518.3 263.2 518.3 263.4 518.2 263.5 518.2 263.7 518.2 263.9 518.2 264 518.3 264.2 518.3 264.4 518.3 264.5 518.4 264.7 518.4 264.8 518.5 265 518.6 265.1 518.7 265.3 518.8 265.4 518.9 265.5 519 265.7 519.1 265.8 519.2 265.9 519.4 266 519.5 266.1 519.7 266.2 519.8 266.2 520 266.3 520.2 266.4 520.3 266.4 520.5 266.4 520.6 266.5 520.8 266.5 521 266.5 521.2 266.5 521.3 266.4 521.5 266.4 521.6 266.4 521.8 266.3 522 266.2 522.1 266.2 522.3 266.1 522.4 266 522.5 265.9 522.7 265.8 522.8 265.7 522.9 265.5 523 265.4 523.1 265.3 523.2 265.1 523.3 265 523.3 264.8 523.4 264.7 523.5 264.5 523.5 264.4 523.5 264.2 523.5 264 523.5 263.9 523.5 263.7 523.5 263.5 523.5 263.4 523.5 263.2 523.4 263 523.4 262.9 523.3 262.7 523.2 262.6 523.2 262.4 523.1 262.3 523 262.1 522.8 262 522.7 261.9 522.6 261.8 522.5 261.7 522.3 261.6 522.2 261.5 522 261.4 521.9 261.4 521.7 261.3 521.6 261.2 521.4 261.2 521.2 261.2 521.1 261.2 520.9 261.2"/></g><g id="ID000137"><polygon class="cls-17" points="523.5 275.3 523.5 270 518.2 270 518.2 275.3 523.5 275.3"/></g><g id="ID000138"><line class="cls-7" x1="628.1" y1="216.8" x2="646.2" y2="234.9"/></g><g id="ID000139"><polygon class="cls-17" points="633.4 222.1 633.3 222.2 633.2 222.4 633.1 222.5 633 222.6 632.9 222.8 632.8 222.9 632.8 223.1 632.7 223.2 632.7 223.4 632.7 223.6 632.6 223.7 632.6 223.9 632.6 224.1 632.6 224.2 632.7 224.4 632.7 224.6 632.7 224.7 632.8 224.9 632.8 225.1 632.9 225.2 633 225.4 633.1 225.5 633.2 225.6 633.3 225.8 633.4 225.9 633.5 226 633.7 226.1 633.8 226.2 634 226.3 634.1 226.4 634.3 226.4 634.4 226.5 634.6 226.5 634.8 226.6 634.9 226.6 635.1 226.6 635.2 226.6 635.4 226.6 635.6 226.6 635.8 226.6 635.9 226.6 636.1 226.5 636.2 226.4 636.4 226.4 636.5 226.3 636.7 226.2 636.8 226.1 637 226 637.1 225.9 637.2 225.8 637.3 225.7 637.4 225.5 637.5 225.4 637.6 225.2 637.7 225.1 637.8 224.9 637.8 224.8 637.8 224.6 637.9 224.5 637.9 224.3 637.9 224.1 637.9 223.9 637.9 223.8 637.9 223.6 637.9 223.4 637.8 223.3 637.8 223.1 637.7 223 637.7 222.8 637.6 222.7 637.5 222.5 637.4 222.4 637.3 222.2 637.2 222.1 637.1 222 636.9 221.9 636.8 221.8 636.7 221.7 636.5 221.6 636.4 221.6 636.2 221.5 636 221.4 635.9 221.4 635.7 221.4 635.5 221.3 635.4 221.3 635.2 221.3 635 221.3 634.9 221.4 634.7 221.4 634.5 221.4 634.4 221.5 634.2 221.5 634.1 221.6 633.9 221.7 633.8 221.8 633.7 221.9 633.5 222 633.4 222.1"/></g><g id="ID000140"><polygon class="cls-17" points="644.8 229.8 641 226 637.3 229.8 641 233.5 644.8 229.8"/></g><g id="ID000141"><line class="cls-18" x1="242.9" y1="280.3" x2="128.1" y2="208.3"/></g><g id="ID000142"><polygon class="cls-17" points="187.3 250.2 186.5 247.3 184.9 245.5 183.2 244 179.9 240.8 184.3 242.3 186.4 243.2 188.6 243.8 191.6 243.3 187.3 250.2"/></g><text class="cls-14" transform="translate(188.63 44.1)">5</text><text class="cls-20" transform="translate(200.31 44.1)">’</text><text class="cls-14" transform="translate(92.93 44.1)">3</text><text class="cls-20" transform="translate(104.61 44.1)">’</text><text class="cls-21" transform="translate(314.02 107.82)">Beetroot</text><g class="cls-22"><text class="cls-21" transform="translate(407.22 107.82)">Aptamer</text></g></svg>