<?xml version="1.0" encoding="utf-8"?>
<!-- Generator: Adobe Illustrator 25.2.0, SVG Export Plug-In . SVG Version: 6.00 Build 0)  -->
<svg version="1.1" id="图层_1" xmlns="http://www.w3.org/2000/svg" xmlns:xlink="http://www.w3.org/1999/xlink" x="0px" y="0px"
	 viewBox="0 0 400 400" style="enable-background:new 0 0 400 400;" xml:space="preserve">
<style type="text/css">
	.st0{fill:#FFFF00;}
	.st1{font-family:'ArialMT';}
	.st2{font-size:11.5503px;}
	.st3{opacity:0.5;fill:#0A0BFF;stroke:#000000;stroke-width:0.75;stroke-miterlimit:1.11;enable-background:new    ;}
	.st4{opacity:0.4;fill:#0A0BFF;stroke:#000000;stroke-width:0.75;stroke-miterlimit:1.11;enable-background:new    ;}
	.st5{fill:#80DB9E;}
	.st6{font-size:19.0241px;}
	.st7{fill:none;stroke:#000000;stroke-width:0.14;stroke-miterlimit:1.11;}
	.st8{fill:#008080;}
	.st9{letter-spacing:-4;}
	.st10{fill:#006B93;}
	.st11{fill:#FF870A;}
	.st12{fill:#0A0BFF;}
	.st13{font-size:14.2681px;}
	.st14{stroke:#000000;stroke-width:0.14;stroke-miterlimit:1.11;}
	.st15{fill:none;stroke:#000000;stroke-width:0.75;stroke-miterlimit:1.11;}
	.st16{fill:#FFFFFF;stroke:#000000;stroke-miterlimit:1.11;}
	.st17{font-size:18px;}
	.st18{letter-spacing:-2;}
	.st19{font-size:22.06px;}
</style>
<ellipse class="st0" cx="202.8" cy="266.8" rx="11.2" ry="21.7"/>
<text transform="matrix(6.123234e-17 -1 1 6.123234e-17 207.21 287.1406)" class="st1 st2">D</text>
<text transform="matrix(6.123234e-17 -1 1 6.123234e-17 207.21 279.0283)" class="st1 st2">F</text>
<text transform="matrix(6.123234e-17 -1 1 6.123234e-17 207.21 272.8457)" class="st1 st2">AME</text>
<polygon class="st3" points="376.7,287.9 362.2,272 362.2,249.6 376.7,265.5 "/>
<polygon class="st3" points="331.2,287.2 316.6,271.4 316.6,249.1 331.2,265 "/>
<polygon class="st3" points="285.9,287.9 271.4,272 271.4,249.6 285.9,265.5 "/>
<polygon class="st4" points="244.7,286.3 226.2,271.3 226.2,248.9 244.7,263.9 "/>
<g id="ID000002">
	<text transform="matrix(1 0 0 1 45.4033 131.9849)" class="st5 st1 st6">G</text>
</g>
<g id="ID000003">
	<text transform="matrix(1 0 0 1 46.9116 166.5889)" class="st5 st1 st6">G</text>
</g>
<g id="ID000004">
	<text transform="matrix(1 0 0 1 47.4077 184.6479)" class="st5 st1 st6">C</text>
</g>
<g id="ID000005">
	<text transform="matrix(1 0 0 1 47.4077 202.7002)" class="st5 st1 st6">C</text>
</g>
<g id="ID000006">
	<text transform="matrix(1 0 0 1 46.9116 220.7598)" class="st5 st1 st6">G</text>
</g>
<g id="ID000007">
	<text transform="matrix(1 0 0 1 46.9116 238.8125)" class="st5 st1 st6">G</text>
</g>
<g id="ID000008">
	<text transform="matrix(1 0 0 1 11.2959 238.8125)" class="st5 st1 st6">C</text>
</g>
<g id="ID000009">
	<text transform="matrix(1 0 0 1 11.2959 220.7598)" class="st5 st1 st6">C</text>
</g>
<g id="ID000010">
	<text transform="matrix(1 0 0 1 10.8003 202.7002)" class="st5 st1 st6">G</text>
</g>
<g id="ID000011">
	<text transform="matrix(1 0 0 1 10.8003 184.6479)" class="st5 st1 st6">G</text>
</g>
<g id="ID000012">
	<text transform="matrix(1 0 0 1 11.2959 166.5889)" class="st5 st1 st6">C</text>
</g>
<g id="ID000013">
	<line class="st7" x1="47.4" y1="158.5" x2="25.7" y2="158.5"/>
</g>
<g id="ID000014">
	<line class="st7" x1="47.4" y1="176.5" x2="25.7" y2="176.5"/>
</g>
<g id="ID000015">
	<line class="st7" x1="47.4" y1="194.6" x2="25.7" y2="194.6"/>
</g>
<g id="ID000005-2">
	<text transform="matrix(1 0 0 1 46.7148 149.29)" class="st5 st1 st6">C</text>
</g>
<g id="ID000010-2">
	<text transform="matrix(1 0 0 1 10.1074 149.29)" class="st5 st1 st6">G</text>
</g>
<g id="ID000015-2">
	<line class="st7" x1="46.7" y1="141.2" x2="25" y2="141.2"/>
</g>
<g id="ID000016">
	<line class="st7" x1="47.4" y1="212.6" x2="25.7" y2="212.6"/>
</g>
<g id="ID000009-2">
	<text transform="matrix(1 0 0 1 10.3584 131.9849)" class="st5 st1 st6">C</text>
</g>
<g id="ID000016-2">
	<line class="st7" x1="46.4" y1="123.8" x2="24.7" y2="123.8"/>
</g>
<g id="ID000017">
	<line class="st7" x1="47.4" y1="230.7" x2="25.7" y2="230.7"/>
</g>
<g id="ID000019">
	<text transform="matrix(1 0 0 1 99.5747 258.373)" class="st8 st1 st6">G</text>
</g>
<g id="ID000019-2">
	<text transform="matrix(1 0 0 1 103.3931 239.0293)" class="st5 st1 st6">G</text>
</g>
<g id="ID000020">
	<text transform="matrix(1 0 0 1 118.1304 258.373)" class="st8 st1 st6">C</text>
</g>
<g id="ID000021">
	<text transform="matrix(1 0 0 1 136.6782 258.373)" class="st8 st1 st6 st9">A</text>
</g>
<g id="ID000022">
	<text transform="matrix(1 0 0 1 153.7388 258.373)" class="st8 st1 st6">G</text>
</g>
<g id="ID000023">
	<text transform="matrix(1 0 0 1 172.79 258.373)" class="st8 st1 st6 st9">A</text>
</g>
<g id="ID000023-2">
	<text transform="matrix(1 0 0 1 96.0278 220.291)" class="st5 st1 st6 st9">A</text>
</g>
<g id="ID000024">
	<text transform="matrix(1 0 0 1 213.9297 247.8418)" class="st10 st1 st6">G</text>
</g>
<g id="ID000025">
	<text transform="matrix(1 0 0 1 259.0645 247.8418)" class="st10 st1 st6">G</text>
</g>
<g id="ID000026">
	<text transform="matrix(1 0 0 1 259.5674 229.7832)" class="st11 st1 st6">U</text>
</g>
<g id="ID000027">
	<text transform="matrix(1 0 0 1 349.3477 247.8418)" class="st12 st1 st6">G</text>
</g>
<g id="ID000028">
	<line class="st7" x1="359.2" y1="233" x2="366.1" y2="200.2"/>
</g>
<g id="ID000029">
	<text transform="matrix(1 0 0 1 360.585 199.1943)" class="st1 st13">20</text>
</g>
<g id="ID000029-2">
	<text transform="matrix(1 0 0 1 94.8662 193.1748)" class="st1 st13">10</text>
</g>
<g id="ID000030">
	<text transform="matrix(1 0 0 1 304.2061 247.8418)" class="st12 st1 st6">G</text>
</g>
<g id="ID000031">
	<text transform="matrix(1 0 0 1 281.6357 270.4121)" class="st10 st1 st6">G</text>
</g>
<g id="ID000032">
	<text transform="matrix(1 0 0 1 372.4141 220.7598)" class="st11 st1 st6">U</text>
</g>
<g id="ID000033">
	<text transform="matrix(1 0 0 1 371.9189 270.4121)" class="st12 st1 st6">G</text>
</g>
<g id="ID000034">
	<text transform="matrix(1 0 0 1 326.7773 270.4121)" class="st12 st1 st6">G</text>
</g>
<g id="ID000035">
	<text transform="matrix(1 0 0 1 241.5078 268.374)" class="st10 st1 st6">U</text>
</g>
<g id="ID000036">
	<text transform="matrix(1 0 0 1 281.6357 302.0137)" class="st10 st1 st6">G</text>
</g>
<g id="ID000037">
	<text transform="matrix(1 0 0 1 372.4141 333.6064)" class="st11 st1 st6">U</text>
</g>
<g id="ID000038">
	<text transform="matrix(1 0 0 1 371.9189 302.0137)" class="st12 st1 st6">G</text>
</g>
<g id="ID000039">
	<text transform="matrix(1 0 0 1 326.7773 302.0137)" class="st12 st1 st6">G</text>
</g>
<g id="ID000040">
	<line class="st7" x1="329" y1="301.6" x2="317.1" y2="318.7"/>
</g>
<g id="ID000041">
	<text transform="matrix(1 0 0 1 302.1953 329.4961)" class="st1 st13">30</text>
</g>
<g id="ID000042">
	<text transform="matrix(1 0 0 1 350.3457 360.6895)" class="st11 st1 st6 st9">A</text>
</g>
<g id="ID000043">
	<text transform="matrix(1 0 0 1 349.3477 279.4355)" class="st12 st1 st6">G</text>
</g>
<g id="ID000044">
	<text transform="matrix(1 0 0 1 304.2061 279.4355)" class="st12 st1 st6">G</text>
</g>
<g id="ID000045">
	<text transform="matrix(1 0 0 1 214.9219 279.4355)" class="st10 st1 st6 st9">A</text>
</g>
<g id="ID000046">
	<text transform="matrix(1 0 0 1 259.0645 279.4355)" class="st10 st1 st6">G</text>
</g>
<g id="ID000047">
	<text transform="matrix(1 0 0 1 259.5674 333.6064)" class="st11 st1 st6">U</text>
</g>
<g id="ID000048">
	<text transform="matrix(1 0 0 1 242.0039 302.0137)" class="st10 st1 st6 st9">A</text>
</g>
<g id="ID000049">
	<text transform="matrix(1 0 0 1 172.2939 294.4844)" class="st8 st1 st6">U</text>
</g>
<g id="ID000049-2">
	<text transform="matrix(1 0 0 1 64.1489 239.043)" class="st5 st1 st6">U</text>
</g>
<g id="ID000049-3">
	<text transform="matrix(1 0 0 1 77.5679 224.3672)" class="st5 st1 st6">U</text>
</g>
<g id="ID000050">
	<text transform="matrix(1 0 0 1 154.2417 294.4844)" class="st8 st1 st6">C</text>
</g>
<g id="ID000051">
	<text transform="matrix(1 0 0 1 136.1826 294.4844)" class="st8 st1 st6">U</text>
</g>
<g id="ID000052">
	<line class="st7" x1="143.4" y1="295" x2="143.4" y2="307"/>
</g>
<g id="ID000052-2">
	<line class="st7" x1="102.6" y1="193.2" x2="102.6" y2="205.2"/>
</g>
<g id="ID000053">
	<text transform="matrix(1 0 0 1 134.7217 318.8359)" class="st1 st13">40</text>
</g>
<g id="ID000054">
	<text transform="matrix(1 0 0 1 117.627 294.4844)" class="st8 st1 st6">G</text>
</g>
<g id="ID000055">
	<text transform="matrix(1 0 0 1 100.0708 294.4844)" class="st8 st1 st6">U</text>
</g>
<g id="ID000056">
	<polygon class="st14" points="107.2,270.1 107.4,270.1 107.5,270.1 107.6,270.1 107.7,270.1 107.8,270.1 107.9,270 108,269.9 
		108.1,269.8 108.2,269.8 108.3,269.8 108.4,269.7 108.5,269.6 108.6,269.5 108.6,269.4 108.7,269.4 108.8,269.2 108.8,269.2 
		108.9,269 108.9,269 109,268.8 109,268.8 109.1,268.6 109.1,268.5 109.1,268.4 109.1,268.3 109.1,268.2 109.1,268 109,267.9 
		109,267.8 108.9,267.7 108.9,267.6 108.8,267.5 108.8,267.4 108.7,267.3 108.6,267.2 108.6,267.1 108.5,267.1 108.4,267 
		108.4,266.9 108.2,266.8 108.2,266.8 108,266.7 108,266.7 107.8,266.6 107.8,266.6 107.6,266.5 107.6,266.5 107.4,266.5 
		107.3,266.5 107.2,266.5 107.1,266.5 106.9,266.5 106.8,266.5 106.7,266.6 106.6,266.6 106.5,266.7 106.4,266.7 106.3,266.8 
		106.2,266.8 106.1,266.9 106.1,267 105.9,267.1 105.9,267.1 105.8,267.2 105.7,267.3 105.7,267.4 105.7,267.5 105.6,267.6 
		105.5,267.7 105.5,267.8 105.5,267.9 105.5,268 105.5,268.2 105.5,268.3 105.5,268.4 105.5,268.5 105.5,268.6 105.5,268.8 
		105.5,268.8 105.5,269 105.6,269 105.7,269.2 105.7,269.2 105.8,269.4 105.9,269.4 105.9,269.5 106,269.6 106.1,269.7 106.2,269.8 
		106.3,269.8 106.3,269.8 106.5,269.9 106.5,270 106.7,270.1 106.8,270.1 106.9,270.1 107,270.1 107.2,270.1 	"/>
</g>
<g id="ID000057">
	<line class="st7" x1="125.3" y1="257.5" x2="125.3" y2="279.2"/>
</g>
<g id="ID000058">
	<line class="st7" x1="143.4" y1="257.5" x2="143.4" y2="279.2"/>
</g>
<g id="ID000059">
	<line class="st7" x1="161.4" y1="257.5" x2="161.4" y2="279.2"/>
</g>
<g id="ID000060">
	<line class="st7" x1="179.4" y1="257.5" x2="179.4" y2="279.2"/>
</g>
<g id="ID000062">
	<line class="st15" x1="186.4" y1="248.5" x2="214.6" y2="241.4"/>
</g>
<g id="ID000063">
	<polygon class="st14" points="197.3,243.1 199.1,244.1 200.7,244.2 202.2,244 205.3,244 202.5,245.3 201.1,245.9 199.8,246.7 
		198.7,248.4 	"/>
</g>
<g id="ID000064">
	<line class="st15" x1="241.5" y1="293.1" x2="186.6" y2="287.1"/>
</g>
<g id="ID000065">
	<polygon class="st14" points="216.2,292.8 214.8,291.3 213.3,290.6 211.9,290.3 209,289.3 212.1,288.9 213.5,288.9 215.1,288.6 
		216.7,287.4 	"/>
</g>
<g id="ID000066">
	<line class="st15" x1="228.8" y1="239.7" x2="259.5" y2="239.7"/>
</g>
<g id="ID000067">
	<polygon class="st14" points="239.2,237 240.7,238.4 242.2,238.8 243.7,239 246.7,239.7 243.7,240.4 242.2,240.6 240.7,241 
		239.2,242.4 	"/>
</g>
<g id="ID000068">
	<polyline class="st15" points="274,221.7 357,221.7 357,232.5 	"/>
</g>
<g id="ID000069">
	<polygon class="st14" points="313.2,219 314.7,220.3 316.2,220.8 317.7,221 320.8,221.7 317.7,222.4 316.2,222.6 314.7,223 
		313.2,224.4 	"/>
</g>
<g id="ID000070">
	<line class="st15" x1="349.8" y1="239.7" x2="319.1" y2="239.7"/>
</g>
<g id="ID000071">
	<polygon class="st14" points="344.2,242.4 342.7,241 341.1,240.6 339.7,240.4 336.7,239.7 339.7,239 341.1,238.8 342.7,238.4 
		344.2,237 	"/>
</g>
<g id="ID000072">
	<line class="st15" x1="306.8" y1="244.8" x2="294.4" y2="257.1"/>
</g>
<g id="ID000073">
	<polygon class="st14" points="305.1,250.3 303,250.5 301.7,251.2 300.4,252.1 297.8,253.7 299.5,251.2 300.4,249.9 301.1,248.6 
		301.2,246.5 	"/>
</g>
<g id="ID000074">
	<line class="st15" x1="379.6" y1="219.8" x2="379.6" y2="255"/>
</g>
<g id="ID000075">
	<polygon class="st14" points="382.3,235.2 381,236.7 380.5,238.2 380.3,239.7 379.6,242.7 378.9,239.7 378.7,238.2 378.2,236.7 
		376.9,235.2 	"/>
</g>
<g id="ID000076">
	<polyline class="st15" points="289.4,255 290,212.6 372.3,212.6 	"/>
</g>
<g id="ID000077">
	<polygon class="st14" points="322.8,209.9 324.3,211.3 325.8,211.8 327.3,212 330.3,212.6 327.3,213.3 325.8,213.5 324.3,214 
		322.8,215.4 	"/>
</g>
<g id="ID000078">
	<line class="st15" x1="372.3" y1="262.3" x2="341.7" y2="262.3"/>
</g>
<g id="ID000079">
	<polygon class="st14" points="367.4,265 365.9,263.7 364.5,263.2 362.9,263 359.9,262.3 362.9,261.6 364.5,261.4 365.9,260.9 
		367.4,259.6 	"/>
</g>
<g id="ID000080">
	<polyline class="st15" points="250.6,269.2 257.7,293.9 282.1,293.9 	"/>
</g>
<g id="ID000081">
	<polygon class="st14" points="271,291.2 272.5,292.5 274,292.9 275.5,293.2 278.6,293.9 275.5,294.6 274,294.8 272.5,295.3 
		271,296.6 	"/>
</g>
<g id="ID000082">
	<polyline class="st15" points="334.4,255 334.4,208.2 248.7,208.2 248.7,255 	"/>
</g>
<g id="ID000083">
	<polygon class="st14" points="293.8,210.8 292.3,209.4 290.8,209 289.3,208.8 286.3,208.2 289.3,207.5 290.8,207.2 292.3,206.8 
		293.8,205.4 	"/>
</g>
<g id="ID000084">
	<line class="st15" x1="296.1" y1="296.3" x2="372.7" y2="323.1"/>
</g>
<g id="ID000085">
	<polygon class="st14" points="330.7,305.8 331.7,307.6 333,308.5 334.3,309.3 336.9,310.9 333.9,310.5 332.4,310.2 330.8,310.1 
		328.9,311 	"/>
</g>
<g id="ID000086">
	<line class="st15" x1="266.7" y1="278.5" x2="266.7" y2="318.3"/>
</g>
<g id="ID000087">
	<polygon class="st14" points="269.5,283.9 268.1,285.4 267.6,286.9 267.4,288.4 266.7,291.5 266.1,288.4 265.9,286.9 265.4,285.4 
		264,283.9 	"/>
</g>
<g id="ID000088">
	<line class="st15" x1="225.3" y1="271.3" x2="258.1" y2="271.3"/>
</g>
<g id="ID000089">
	<polygon class="st14" points="232.4,268.6 233.9,270 235.4,270.4 236.9,270.7 239.9,271.3 236.9,272 235.4,272.2 233.9,272.7 
		232.4,274 	"/>
</g>
<g id="ID000090">
	<line class="st15" x1="379.6" y1="318.3" x2="379.6" y2="301.1"/>
</g>
<g id="ID000091">
	<polygon class="st14" points="376.9,312 378.2,310.5 378.7,308.9 378.9,307.4 379.6,304.4 380.3,307.4 380.5,308.9 381,310.5 
		382.3,312 	"/>
</g>
<g id="ID000092">
	<line class="st15" x1="337.1" y1="300.6" x2="354.4" y2="345.8"/>
</g>
<g id="ID000093">
	<polygon class="st14" points="346.9,319.7 346.1,321.6 346.2,323.1 346.6,324.6 347.1,327.7 345.3,325.1 344.5,323.8 343.6,322.5 
		341.8,321.6 	"/>
</g>
<g id="ID000094">
	<line class="st15" x1="357" y1="345.3" x2="357" y2="278.5"/>
</g>
<g id="ID000095">
	<polygon class="st14" points="354.3,314.2 355.7,312.7 356.1,311.2 356.3,309.7 357,306.7 357.7,309.7 357.9,311.2 358.3,312.7 
		359.7,314.2 	"/>
</g>
<g id="ID000096">
	<polyline class="st15" points="311.9,278.5 311.9,307.4 221.6,307.4 221.6,278.5 	"/>
</g>
<g id="ID000097">
	<polygon class="st14" points="281.9,310.1 280.4,308.8 278.9,308.3 277.4,308.1 274.4,307.4 277.4,306.7 278.9,306.5 280.4,306.1 
		281.9,304.7 	"/>
</g>
<g id="ID000098">
	<line class="st15" x1="372.3" y1="293.9" x2="341.7" y2="293.9"/>
</g>
<g id="ID000099">
	<polygon class="st14" points="366.8,296.6 365.3,295.3 363.8,294.8 362.2,294.6 359.2,293.9 362.2,293.2 363.8,292.9 365.3,292.5 
		366.8,291.2 	"/>
</g>
<g id="ID000100">
	<line class="st15" x1="349.8" y1="271.3" x2="319.1" y2="271.3"/>
</g>
<g id="ID000101">
	<polygon class="st14" points="347.6,274 346.1,272.7 344.5,272.2 343,272 340.1,271.3 343,270.7 344.5,270.4 346.1,270 
		347.6,268.6 	"/>
</g>
<g id="ID000102">
	<line class="st15" x1="263.1" y1="319.2" x2="252.3" y2="300.2"/>
</g>
<g id="ID000103">
	<polygon class="st14" points="258.3,316.4 258.7,314.4 258.4,312.9 257.8,311.4 257,308.5 259,310.8 260,312 261.1,313.1 
		263,313.7 	"/>
</g>
<g id="ID000104">
	<line class="st7" x1="248.7" y1="269.5" x2="248.7" y2="286.7"/>
</g>
<g id="ID000105">
	<polygon class="st14" points="248.7,279.9 248.8,279.9 248.9,279.9 249,279.8 249.2,279.8 249.2,279.8 249.4,279.8 249.4,279.7 
		249.6,279.6 249.6,279.6 249.8,279.6 249.8,279.5 249.9,279.4 250,279.3 250.1,279.2 250.2,279.2 250.2,279 250.2,279 250.3,278.8 
		250.4,278.7 250.4,278.6 250.4,278.5 250.4,278.4 250.4,278.3 250.5,278.2 250.5,278.1 250.5,277.9 250.4,277.9 250.4,277.7 
		250.4,277.6 250.4,277.5 250.3,277.4 250.3,277.3 250.2,277.2 250.2,277.1 250.1,277 250,276.9 250,276.8 249.9,276.7 249.8,276.6 
		249.7,276.6 249.6,276.5 249.5,276.5 249.4,276.4 249.3,276.4 249.2,276.4 249.1,276.3 248.9,276.3 248.9,276.3 248.7,276.3 
		248.6,276.3 248.5,276.3 248.4,276.3 248.3,276.3 248.2,276.4 248.1,276.4 247.9,276.4 247.9,276.5 247.7,276.5 247.7,276.6 
		247.6,276.6 247.5,276.7 247.4,276.8 247.3,276.9 247.2,277 247.2,277.1 247.1,277.2 247,277.3 247,277.4 247,277.5 246.9,277.6 
		246.9,277.7 246.9,277.9 246.9,277.9 246.8,278.1 246.9,278.2 246.9,278.3 246.9,278.4 246.9,278.5 247,278.6 247,278.7 247,278.8 
		247.1,279 247.1,279 247.2,279.2 247.2,279.2 247.3,279.3 247.5,279.4 247.5,279.5 247.6,279.6 247.7,279.6 247.8,279.6 
		247.9,279.7 248,279.8 248.1,279.8 248.2,279.8 248.3,279.8 248.5,279.9 248.5,279.9 	"/>
</g>
<g id="ID000106">
	<line class="st7" x1="227.1" y1="244.4" x2="243.1" y2="257.7"/>
</g>
<g id="ID000107">
	<polygon class="st16" points="231.5,248.2 231.4,248.3 231.4,248.4 231.3,248.4 231.3,248.6 231.2,248.7 231.1,248.8 231.1,248.9 
		231.1,249 231.1,249.1 231.1,249.3 231.1,249.3 231.1,249.5 231.1,249.6 231.1,249.7 231.1,249.8 231.1,249.9 231.2,250 
		231.3,250.1 231.3,250.2 231.4,250.3 231.4,250.4 231.5,250.5 231.6,250.6 231.7,250.7 231.8,250.8 231.8,250.8 232,250.9 232,251 
		232.2,251 232.2,251 232.4,251.1 232.4,251.1 232.6,251.2 232.7,251.2 232.8,251.2 232.9,251.2 233,251.2 233.1,251.2 233.3,251.1 
		233.4,251.1 233.5,251 233.6,251 233.7,251 233.8,250.9 233.9,250.8 234,250.8 234.1,250.7 234.1,250.6 234.3,250.6 234.3,250.5 
		234.4,250.3 234.4,250.3 234.5,250.1 234.5,250.1 234.6,249.9 234.6,249.9 234.7,249.7 234.7,249.7 234.7,249.5 234.7,249.4 
		234.7,249.3 234.7,249.2 234.7,249.1 234.7,248.9 234.6,248.9 234.6,248.7 234.5,248.7 234.5,248.5 234.4,248.4 234.3,248.3 
		234.3,248.2 234.2,248.2 234.1,248 234.1,248 234,247.9 233.9,247.8 233.8,247.8 233.7,247.8 233.6,247.7 233.5,247.6 233.4,247.6 
		233.3,247.6 233.1,247.6 233,247.6 232.9,247.6 232.8,247.6 232.7,247.6 232.6,247.6 232.4,247.6 232.4,247.6 232.2,247.7 
		232.2,247.7 232,247.8 232,247.8 231.8,247.9 231.8,248 231.6,248 231.6,248.1 	"/>
</g>
<g id="ID000108">
	<polygon class="st16" points="239.9,252.4 237.1,250.1 234.8,252.9 237.6,255.2 	"/>
</g>
<g id="ID000109">
	<line class="st7" x1="221.6" y1="247" x2="221.6" y2="264.1"/>
</g>
<g id="ID000110">
	<polygon class="st16" points="221.6,252.7 219.5,256.2 223.6,256.2 	"/>
</g>
<g id="ID000111">
	<polygon class="st16" points="221.6,262 221.7,262 221.8,262 221.9,262 222,262 222.2,261.9 222.2,261.9 222.4,261.8 222.4,261.8 
		222.6,261.7 222.7,261.7 222.8,261.6 222.9,261.5 222.9,261.4 223,261.4 223.1,261.3 223.1,261.2 223.2,261.1 223.3,260.9 
		223.3,260.9 223.3,260.7 223.3,260.6 223.4,260.5 223.4,260.4 223.4,260.3 223.4,260.2 223.4,260.1 223.4,259.9 223.3,259.9 
		223.3,259.7 223.3,259.7 223.3,259.5 223.2,259.4 223.1,259.3 223.1,259.2 223.1,259.1 222.9,259 222.9,259 222.8,258.8 
		222.7,258.8 222.7,258.7 222.5,258.6 222.4,258.6 222.3,258.6 222.2,258.5 222.1,258.5 222,258.4 221.9,258.4 221.8,258.4 
		221.6,258.4 221.5,258.4 221.4,258.4 221.3,258.4 221.2,258.4 221.1,258.5 221,258.5 220.9,258.6 220.8,258.6 220.7,258.6 
		220.5,258.7 220.5,258.8 220.4,258.8 220.3,259 220.2,259 220.1,259.1 220.1,259.2 220,259.3 220,259.4 219.9,259.5 219.9,259.7 
		219.9,259.7 219.8,259.9 219.8,259.9 219.8,260.1 219.8,260.2 219.8,260.3 219.8,260.4 219.8,260.5 219.9,260.6 219.9,260.7 
		219.9,260.9 219.9,260.9 220,261.1 220.1,261.2 220.1,261.3 220.2,261.4 220.3,261.4 220.3,261.5 220.4,261.6 220.5,261.7 
		220.6,261.7 220.8,261.8 220.8,261.8 220.9,261.9 221,261.9 221.2,262 221.2,262 221.4,262 221.5,262 	"/>
</g>
<g id="ID000112">
	<line class="st7" x1="264.4" y1="246.5" x2="251" y2="287"/>
</g>
<g id="ID000113">
	<polygon class="st14" points="258.9,269.1 260,265.6 256.6,264.5 255.4,267.9 	"/>
</g>
<g id="ID000114">
	<line class="st7" x1="379.6" y1="269.5" x2="379.6" y2="286.7"/>
</g>
<g id="ID000115">
	<polygon class="st14" points="379.6,275.7 379.5,275.7 379.3,275.7 379.3,275.7 379.1,275.7 379,275.8 378.9,275.8 378.8,275.8 
		378.7,275.9 378.6,276 378.5,276 378.4,276.1 378.3,276.2 378.2,276.2 378.2,276.3 378.1,276.4 378,276.5 378,276.6 377.9,276.7 
		377.9,276.8 377.8,276.9 377.8,277.1 377.8,277.2 377.8,277.3 377.8,277.4 377.8,277.5 377.8,277.6 377.8,277.7 377.8,277.9 
		377.8,277.9 377.9,278.1 377.9,278.1 378,278.3 378,278.3 378.1,278.5 378.2,278.5 378.2,278.6 378.3,278.7 378.4,278.8 
		378.4,278.9 378.6,279 378.7,279 378.7,279.1 378.9,279.1 379,279.2 379.1,279.2 379.2,279.2 379.3,279.2 379.4,279.3 379.5,279.3 
		379.7,279.3 379.7,279.3 379.9,279.2 380,279.2 380.1,279.2 380.2,279.2 380.3,279.1 380.4,279.1 380.5,279 380.6,279 380.7,278.9 
		380.8,278.8 380.9,278.7 381,278.6 381,278.5 381.1,278.5 381.2,278.3 381.2,278.3 381.2,278.1 381.3,278.1 381.3,277.9 
		381.4,277.9 381.4,277.7 381.4,277.6 381.4,277.5 381.4,277.4 381.4,277.3 381.4,277.2 381.3,277.1 381.3,276.9 381.2,276.8 
		381.2,276.7 381.2,276.6 381.1,276.5 381,276.4 381,276.3 380.9,276.2 380.8,276.2 380.8,276.1 380.6,276 380.6,276 380.5,275.9 
		380.3,275.8 380.3,275.8 380.1,275.8 380,275.7 379.9,275.7 379.8,275.7 379.7,275.7 	"/>
</g>
<g id="ID000116">
	<polygon class="st14" points="381.4,284.6 381.4,281 377.8,281 377.8,284.6 	"/>
</g>
<g id="ID000117">
	<line class="st7" x1="329.3" y1="288.8" x2="317" y2="276.4"/>
</g>
<g id="ID000118">
	<polygon class="st14" points="327.8,287.2 327.8,287.1 327.9,287 328,286.9 328,286.8 328.1,286.8 328.1,286.6 328.2,286.5 
		328.2,286.4 328.2,286.3 328.2,286.2 328.3,286.1 328.3,286 328.3,285.8 328.2,285.7 328.2,285.6 328.2,285.5 328.2,285.4 
		328.2,285.3 328.1,285.2 328.1,285.1 328,285 328,284.9 327.9,284.8 327.8,284.7 327.8,284.6 327.6,284.5 327.6,284.5 327.5,284.4 
		327.4,284.3 327.3,284.3 327.2,284.3 327.1,284.2 326.9,284.2 326.8,284.1 326.7,284.1 326.6,284.1 326.5,284.1 326.4,284.1 
		326.3,284.1 326.1,284.1 326.1,284.2 325.9,284.2 325.8,284.3 325.7,284.3 325.6,284.3 325.5,284.4 325.4,284.5 325.3,284.5 
		325.2,284.6 325.2,284.7 325.1,284.8 325,284.9 325,284.9 324.9,285.1 324.8,285.1 324.8,285.3 324.8,285.3 324.7,285.5 
		324.7,285.6 324.7,285.7 324.7,285.8 324.7,286 324.7,286 324.7,286.2 324.7,286.3 324.7,286.4 324.8,286.5 324.8,286.6 
		324.8,286.7 324.9,286.8 325,286.9 325,287 325.1,287.1 325.2,287.2 325.2,287.2 325.4,287.3 325.5,287.4 325.5,287.4 325.7,287.5 
		325.7,287.6 325.9,287.6 325.9,287.7 326.1,287.7 326.2,287.7 326.3,287.7 326.4,287.7 326.5,287.7 326.6,287.7 326.7,287.7 
		326.9,287.7 326.9,287.7 327.1,287.7 327.2,287.6 327.3,287.5 327.4,287.4 327.5,287.4 327.6,287.4 327.7,287.2 	"/>
</g>
<g id="ID000119">
	<polygon class="st14" points="320.7,282 323.2,284.5 325.8,282 323.2,279.4 	"/>
</g>
<g id="ID000120">
	<line class="st7" x1="334.4" y1="269.5" x2="334.4" y2="286.7"/>
</g>
<g id="ID000121">
	<polygon class="st14" points="334.4,275.7 334.4,275.7 334.2,275.7 334.1,275.7 334,275.7 333.9,275.8 333.7,275.8 333.7,275.8 
		333.5,275.9 333.5,276 333.4,276 333.3,276.1 333.2,276.2 333.1,276.2 333.1,276.3 333,276.4 332.9,276.5 332.9,276.6 332.8,276.7 
		332.7,276.8 332.7,276.9 332.7,277.1 332.7,277.2 332.7,277.3 332.7,277.4 332.7,277.5 332.7,277.6 332.7,277.7 332.7,277.9 
		332.7,277.9 332.7,278.1 332.8,278.1 332.9,278.3 332.9,278.3 332.9,278.5 333,278.5 333.1,278.6 333.1,278.7 333.3,278.8 
		333.3,278.9 333.4,279 333.5,279 333.6,279.1 333.7,279.1 333.8,279.2 333.9,279.2 334.1,279.2 334.1,279.2 334.3,279.3 
		334.4,279.3 334.5,279.3 334.6,279.3 334.8,279.2 334.8,279.2 335,279.2 335,279.2 335.2,279.1 335.2,279.1 335.4,279 335.4,279 
		335.6,278.9 335.6,278.8 335.7,278.7 335.8,278.6 335.9,278.5 335.9,278.5 336,278.3 336.1,278.3 336.1,278.1 336.1,278.1 
		336.2,277.9 336.2,277.9 336.3,277.7 336.3,277.6 336.3,277.5 336.3,277.4 336.3,277.3 336.3,277.2 336.2,277.1 336.2,276.9 
		336.1,276.8 336.1,276.7 336.1,276.6 336,276.5 335.9,276.4 335.8,276.3 335.8,276.2 335.7,276.2 335.6,276.1 335.5,276 335.4,276 
		335.3,275.9 335.2,275.8 335.1,275.8 335,275.8 334.9,275.7 334.8,275.7 334.7,275.7 334.6,275.7 	"/>
</g>
<g id="ID000122">
	<polygon class="st14" points="336.3,284.6 336.3,281 332.7,281 332.7,284.6 	"/>
</g>
<g id="ID000123">
	<line class="st7" x1="374.4" y1="288.8" x2="362.1" y2="276.4"/>
</g>
<g id="ID000124">
	<polygon class="st14" points="371.5,286.5 371.6,286.4 371.7,286.4 371.7,286.2 371.8,286.2 371.9,286.1 371.9,286 371.9,285.8 
		372,285.7 372,285.6 372.1,285.5 372.1,285.4 372.1,285.3 372.1,285.1 372.1,285.1 372.1,284.9 372,284.8 372,284.7 371.9,284.6 
		371.9,284.5 371.9,284.4 371.8,284.3 371.7,284.2 371.7,284.1 371.6,284 371.5,283.9 371.4,283.8 371.3,283.8 371.2,283.7 
		371.2,283.6 371,283.6 370.9,283.6 370.8,283.5 370.7,283.5 370.6,283.4 370.5,283.4 370.4,283.4 370.3,283.4 370.2,283.4 
		370,283.4 370,283.4 369.8,283.5 369.7,283.5 369.6,283.6 369.5,283.6 369.4,283.6 369.3,283.7 369.2,283.8 369.1,283.8 369,283.9 
		368.9,284 368.9,284.1 368.8,284.2 368.7,284.3 368.7,284.4 368.6,284.5 368.6,284.6 368.5,284.7 368.5,284.8 368.5,284.9 
		368.5,285 368.5,285.1 368.5,285.3 368.5,285.3 368.5,285.5 368.5,285.6 368.5,285.7 368.5,285.8 368.6,286 368.7,286 368.7,286.2 
		368.7,286.2 368.8,286.4 368.9,286.4 368.9,286.5 369.1,286.6 369.1,286.6 369.2,286.7 369.3,286.8 369.4,286.8 369.5,286.9 
		369.6,286.9 369.8,287 369.8,287 370,287 370.1,287 370.2,287 370.3,287 370.4,287 370.6,287 370.6,287 370.8,287 370.8,287 
		371,286.9 371,286.8 371.2,286.8 371.2,286.8 371.4,286.7 371.4,286.6 	"/>
</g>
<g id="ID000125">
	<polygon class="st14" points="364.5,281.3 367,283.8 369.5,281.3 367,278.7 	"/>
</g>
<g id="ID000126">
	<line class="st7" x1="271.8" y1="244.8" x2="284.2" y2="257.1"/>
</g>
<g id="ID000127">
	<polygon class="st14" points="276.1,249.1 276.1,249.2 276,249.3 275.9,249.4 275.9,249.5 275.8,249.6 275.8,249.7 275.7,249.8 
		275.6,249.9 275.6,250 275.6,250.1 275.6,250.2 275.6,250.3 275.6,250.5 275.6,250.6 275.6,250.7 275.6,250.8 275.7,250.9 
		275.7,251 275.8,251.2 275.8,251.2 275.9,251.4 275.9,251.4 276,251.5 276.1,251.6 276.1,251.7 276.3,251.8 276.3,251.8 
		276.5,251.9 276.5,252 276.6,252 276.7,252 276.8,252.1 276.9,252.1 277.1,252.2 277.1,252.2 277.3,252.2 277.4,252.2 277.5,252.2 
		277.6,252.2 277.8,252.2 277.8,252.2 278,252.1 278.1,252 278.2,252 278.3,252 278.4,251.9 278.5,251.8 278.6,251.8 278.6,251.7 
		278.7,251.6 278.8,251.6 278.8,251.4 278.9,251.4 279,251.2 279,251.2 279.1,251 279.1,251 279.2,250.8 279.2,250.8 279.2,250.6 
		279.2,250.5 279.3,250.3 279.2,250.3 279.2,250.1 279.2,250 279.2,249.9 279.1,249.8 279.1,249.7 279,249.6 279,249.5 278.9,249.4 
		278.8,249.3 278.8,249.2 278.7,249.1 278.6,249.1 278.6,249 278.4,248.9 278.4,248.9 278.2,248.8 278.2,248.8 278,248.7 278,248.7 
		277.8,248.7 277.7,248.7 277.6,248.6 277.5,248.6 277.3,248.6 277.3,248.6 277.1,248.7 277,248.7 276.9,248.7 276.8,248.7 
		276.7,248.7 276.6,248.8 276.5,248.9 276.4,248.9 276.3,249 276.2,249.1 	"/>
</g>
<g id="ID000128">
	<polygon class="st14" points="283.9,254.4 281.4,251.8 278.8,254.4 281.4,256.9 	"/>
</g>
<g id="ID000129">
	<line class="st7" x1="284.2" y1="288.8" x2="271.8" y2="276.4"/>
</g>
<g id="ID000130">
	<polygon class="st14" points="281.9,286.5 282,286.4 282.1,286.4 282.2,286.2 282.2,286.2 282.2,286.1 282.3,286 282.4,285.8 
		282.4,285.7 282.4,285.6 282.4,285.5 282.4,285.4 282.4,285.3 282.4,285.1 282.4,285.1 282.4,284.9 282.4,284.8 282.4,284.7 
		282.4,284.6 282.3,284.5 282.2,284.4 282.2,284.3 282.2,284.2 282,284.1 282,284 281.9,283.9 281.8,283.8 281.8,283.8 281.6,283.7 
		281.6,283.6 281.4,283.6 281.4,283.6 281.2,283.5 281.2,283.5 281,283.4 280.9,283.4 280.8,283.4 280.7,283.4 280.5,283.4 
		280.5,283.4 280.3,283.4 280.2,283.5 280.1,283.5 280,283.6 279.9,283.6 279.8,283.6 279.7,283.7 279.6,283.8 279.5,283.8 
		279.5,283.9 279.3,284 279.3,284.1 279.2,284.2 279.1,284.3 279,284.4 279,284.5 279,284.6 278.9,284.7 278.9,284.8 278.9,284.9 
		278.8,285 278.8,285.1 278.8,285.3 278.8,285.3 278.8,285.5 278.9,285.6 278.9,285.7 278.9,285.8 279,286 279,286 279.1,286.2 
		279.2,286.2 279.2,286.4 279.3,286.4 279.4,286.5 279.5,286.6 279.5,286.6 279.6,286.7 279.7,286.8 279.8,286.8 279.9,286.9 
		280,286.9 280.1,287 280.3,287 280.3,287 280.5,287 280.6,287 280.7,287 280.8,287 280.9,287 281,287 281.2,287 281.3,287 
		281.4,286.9 281.5,286.8 281.6,286.8 281.7,286.8 281.8,286.7 281.8,286.6 	"/>
</g>
<g id="ID000131">
	<polygon class="st14" points="274.2,281.3 276.7,283.8 279.3,281.3 276.7,278.7 	"/>
</g>
<g id="ID000132">
	<line class="st7" x1="317" y1="244.8" x2="329.3" y2="257.1"/>
</g>
<g id="ID000133">
	<polygon class="st14" points="321.3,249.1 321.2,249.2 321.1,249.3 321,249.4 321,249.5 321,249.6 320.9,249.7 320.8,249.8 
		320.8,249.9 320.8,250 320.8,250.1 320.8,250.2 320.8,250.3 320.8,250.5 320.8,250.6 320.8,250.7 320.8,250.8 320.8,250.9 
		320.8,251 320.9,251.2 321,251.2 321,251.4 321.1,251.4 321.2,251.5 321.2,251.6 321.3,251.7 321.4,251.8 321.4,251.8 321.6,251.9 
		321.6,252 321.8,252 321.9,252 322,252.1 322.1,252.1 322.2,252.2 322.3,252.2 322.5,252.2 322.5,252.2 322.7,252.2 322.8,252.2 
		322.9,252.2 323,252.2 323.1,252.1 323.2,252 323.3,252 323.4,252 323.5,251.9 323.6,251.8 323.7,251.8 323.8,251.7 323.9,251.6 
		324,251.6 324,251.4 324.1,251.4 324.2,251.2 324.2,251.2 324.2,251 324.3,251 324.3,250.8 324.4,250.8 324.4,250.6 324.4,250.5 
		324.4,250.3 324.4,250.3 324.4,250.1 324.3,250 324.3,249.9 324.3,249.8 324.2,249.7 324.2,249.6 324.2,249.5 324.1,249.4 
		324,249.3 324,249.2 323.9,249.1 323.8,249.1 323.7,249 323.6,248.9 323.5,248.9 323.4,248.8 323.3,248.8 323.2,248.7 323.1,248.7 
		322.9,248.7 322.9,248.7 322.7,248.6 322.6,248.6 322.5,248.6 322.4,248.6 322.3,248.7 322.2,248.7 322.1,248.7 322,248.7 
		321.9,248.7 321.7,248.8 321.6,248.9 321.5,248.9 321.4,249 321.4,249.1 	"/>
</g>
<g id="ID000134">
	<polygon class="st14" points="329.1,254.4 326.5,251.8 323.9,254.4 326.5,256.9 	"/>
</g>
<g id="ID000135">
	<line class="st7" x1="289.3" y1="269.5" x2="289.3" y2="286.7"/>
</g>
<g id="ID000136">
	<polygon class="st14" points="289.3,275 289.2,275 289.1,275 289,275 288.8,275 288.8,275.1 288.6,275.1 288.6,275.1 288.4,275.2 
		288.4,275.3 288.2,275.4 288.2,275.4 288.1,275.5 287.9,275.6 287.9,275.6 287.8,275.8 287.7,275.8 287.7,276 287.7,276 
		287.6,276.2 287.6,276.2 287.5,276.4 287.5,276.5 287.5,276.6 287.5,276.7 287.5,276.8 287.5,276.9 287.5,277.1 287.5,277.2 
		287.5,277.3 287.6,277.4 287.6,277.5 287.7,277.6 287.7,277.7 287.8,277.8 287.9,277.9 287.9,277.9 288,278.1 288.1,278.1 
		288.2,278.2 288.3,278.3 288.4,278.3 288.5,278.4 288.6,278.4 288.7,278.5 288.8,278.5 288.9,278.5 289,278.5 289.1,278.6 
		289.2,278.6 289.4,278.6 289.5,278.6 289.6,278.5 289.7,278.5 289.8,278.5 289.9,278.5 290.1,278.4 290.1,278.4 290.3,278.3 
		290.3,278.3 290.4,278.2 290.5,278.1 290.6,278.1 290.7,277.9 290.7,277.9 290.8,277.8 290.9,277.7 290.9,277.6 290.9,277.5 
		291,277.4 291.1,277.3 291.1,277.2 291.1,277.1 291.1,276.9 291.1,276.8 291.1,276.7 291.1,276.6 291.1,276.5 291.1,276.4 
		291,276.2 291,276.2 290.9,276 290.9,276 290.9,275.8 290.8,275.8 290.7,275.6 290.6,275.6 290.5,275.5 290.5,275.4 290.4,275.4 
		290.3,275.3 290.2,275.2 290.1,275.1 290,275.1 289.8,275.1 289.8,275 289.6,275 289.5,275 289.4,275 	"/>
</g>
<g id="ID000137">
	<polygon class="st14" points="291.1,284.6 291.1,281 287.5,281 287.5,284.6 	"/>
</g>
<g id="ID000138">
	<line class="st7" x1="362.1" y1="244.8" x2="374.4" y2="257.1"/>
</g>
<g id="ID000139">
	<polygon class="st14" points="365.7,248.4 365.7,248.5 365.6,248.7 365.5,248.7 365.5,248.8 365.4,248.9 365.3,249 365.3,249.1 
		365.3,249.2 365.3,249.3 365.3,249.5 365.2,249.5 365.2,249.7 365.2,249.8 365.2,249.9 365.3,250 365.3,250.1 365.3,250.2 
		365.3,250.3 365.3,250.5 365.4,250.6 365.5,250.7 365.5,250.8 365.6,250.8 365.7,251 365.7,251 365.8,251.1 365.9,251.2 366,251.2 
		366.1,251.3 366.2,251.4 366.4,251.4 366.4,251.4 366.6,251.4 366.7,251.5 366.8,251.5 366.9,251.5 367,251.5 367.1,251.5 
		367.2,251.5 367.4,251.5 367.4,251.5 367.6,251.4 367.6,251.4 367.8,251.4 367.8,251.3 368,251.2 368.1,251.2 368.2,251.1 
		368.3,251 368.3,251 368.4,250.9 368.5,250.8 368.5,250.7 368.6,250.6 368.7,250.5 368.7,250.3 368.7,250.3 368.7,250.1 
		368.8,250.1 368.8,249.9 368.8,249.8 368.8,249.7 368.8,249.6 368.8,249.5 368.8,249.3 368.7,249.3 368.7,249.1 368.7,249.1 
		368.7,248.9 368.6,248.9 368.5,248.7 368.5,248.7 368.4,248.5 368.3,248.4 368.3,248.4 368.1,248.3 368.1,248.2 368,248.2 
		367.8,248.1 367.8,248.1 367.6,248 367.5,248 367.4,248 367.3,248 367.2,247.9 367.1,247.9 367,247.9 366.8,247.9 366.8,248 
		366.6,248 366.5,248 366.4,248 366.3,248 366.2,248.1 366.1,248.2 366,248.2 365.9,248.3 365.8,248.4 	"/>
</g>
<g id="ID000140">
	<polygon class="st14" points="373.5,253.7 370.9,251.1 368.4,253.7 370.9,256.2 	"/>
</g>
<g id="ID000141">
	<line class="st15" x1="100.4" y1="288" x2="22.4" y2="239.1"/>
</g>
<g id="ID000142">
	<polygon class="st14" points="62.6,267.5 62.1,265.6 61,264.3 59.9,263.3 57.6,261.2 60.6,262.2 62,262.8 63.5,263.2 65.6,262.9 	
		"/>
</g>
<text transform="matrix(1 0 0 1 53.652 108)" class="st1 st17">5</text>
<text transform="matrix(1 0 0 1 61.5875 108)" class="st1 st17 st18">’</text>
<text transform="matrix(1 0 0 1 8.2791 108)" class="st1 st17">3</text>
<text transform="matrix(1 0 0 1 16.2151 108)" class="st1 st17 st18">’</text>
<text transform="matrix(1 0 0 1 108.147 38.7972)" class="st1 st19">Beetroot</text>
<g>
	<text transform="matrix(1 0 0 1 201.347 38.7972)" class="st1 st19">Aptamer</text>
</g>
</svg>
