<svg id="图层_1" data-name="图层 1" xmlns="http://www.w3.org/2000/svg" viewBox="0 0 400 400"><defs><style>.cls-1,.cls-2,.cls-3,.cls-4,.cls-5,.cls-6,.cls-7,.cls-8{isolation:isolate;}.cls-1,.cls-2,.cls-3,.cls-4,.cls-5,.cls-6{font-size:21.13px;}.cls-1,.cls-2{fill:teal;}.cls-1,.cls-11,.cls-13,.cls-2,.cls-3,.cls-4,.cls-5,.cls-6,.cls-7{font-family:ArialMT, Arial;}.cls-2{letter-spacing:-0.06em;}.cls-3,.cls-4{fill:#ff870a;}.cls-4,.cls-6{letter-spacing:-0.06em;}.cls-5,.cls-6{fill:#228b22;}.cls-7{opacity:0.7;font-size:12.23px;}.cls-8{fill:none;stroke:#020202;opacity:0.55;}.cls-10,.cls-8{stroke-miterlimit:10;}.cls-9{opacity:0.75;}.cls-10{stroke:#000;stroke-width:0.07px;}.cls-11{font-size:16.68px;}.cls-12{letter-spacing:-0.04em;}.cls-13{font-size:20px;}</style></defs><text class="cls-1" transform="translate(27.61 282.81)">G</text><text class="cls-2" transform="translate(47.72 296.83)">A</text><text class="cls-1" transform="translate(68.62 309.78)">G</text><text class="cls-1" transform="translate(96.61 349.28)">G</text><text class="cls-1" transform="translate(77.06 357.42)">G</text><text class="cls-1" transform="translate(58.52 347.31)">G</text><text class="cls-2" transform="translate(93.76 308.78)">A</text><text class="cls-1" transform="translate(114.12 299.68)">C</text><text class="cls-3" transform="translate(134.91 288.92)">G</text><text class="cls-3" transform="translate(162.53 270.73)">U</text><text class="cls-3" transform="translate(183.39 258.49)">C</text><text class="cls-3" transform="translate(276.63 236.71)">C</text><text class="cls-3" transform="translate(228.11 227.42)">U</text><text class="cls-3" transform="translate(289.72 222.43)">U</text><text class="cls-3" transform="translate(244.4 210.86)">C</text><text class="cls-3" transform="translate(262.71 193.22)">C</text><text class="cls-4" transform="translate(281.36 173.27)">A</text><text class="cls-5" transform="translate(296.02 155.07)">G</text><text class="cls-6" transform="translate(310.53 133.91)">A</text><text class="cls-5" transform="translate(323.83 116.72)">U</text><text class="cls-6" transform="translate(337.13 97.17)">A</text><text class="cls-5" transform="translate(338.35 74.3)">U</text><text class="cls-5" transform="translate(358.34 64.53)">U</text><text class="cls-5" transform="translate(377.37 76.83)">C</text><text class="cls-5" transform="translate(375.75 99.13)">G</text><text class="cls-5" transform="translate(355.23 109.51)">U</text><text class="cls-6" transform="translate(342.03 129.07)">A</text><text class="cls-5" transform="translate(327.74 148.85)">U</text><text class="cls-5" transform="translate(313.46 168.42)">C</text><text class="cls-3" transform="translate(299.4 186.4)">U</text><text class="cls-3" transform="translate(228.55 279.07)">U</text><text class="cls-3" transform="translate(282.18 202.39)">G</text><text class="cls-3" transform="translate(258.57 232.09)">G</text><text class="cls-4" transform="translate(244.44 243.69)">A</text><text class="cls-4" transform="translate(211.79 282.27)">A</text><text class="cls-3" transform="translate(194.46 276.59)">G</text><text class="cls-4" transform="translate(173.61 289.41)">A</text><text class="cls-3" transform="translate(145.02 307.95)">U</text><text class="cls-1" transform="translate(123.26 319.12)">G</text><text class="cls-3" transform="translate(163.09 310.59)">G</text><text class="cls-3" transform="translate(140.8 266.32)">G</text><text class="cls-1" transform="translate(102.73 328.48)">U</text><text class="cls-1" transform="translate(52.06 328.83)">C</text><text class="cls-1" transform="translate(32.33 317.24)">U</text><text class="cls-1" transform="translate(12.73 299.88)">C</text><text class="cls-7" transform="translate(166.49 236.71)">10</text><text class="cls-7" transform="translate(324.66 90.76)">20</text><text class="cls-7" transform="translate(298.25 202.64)">30</text><text class="cls-7" transform="translate(173.57 319.38)">40</text><text class="cls-3" transform="translate(190.03 220.07)">G</text><text class="cls-3" transform="translate(180.42 238.79)">G</text><text class="cls-3" transform="translate(241.96 264.31)">G</text><text class="cls-3" transform="translate(209.57 217.6)">G</text><line class="cls-8" x1="72" y1="308.21" x2="65" y2="315.31"/><line class="cls-8" x1="124.48" y1="299.47" x2="127.96" y2="304.67"/><line class="cls-8" x1="104.4" y1="307.98" x2="107.88" y2="313.18"/><line class="cls-8" x1="174.34" y1="269.84" x2="178.75" y2="274.84"/><line class="cls-8" x1="195.13" y1="257.62" x2="198.63" y2="262.62"/><line class="cls-8" x1="241.33" y1="224.92" x2="249.17" y2="232.09"/><line class="cls-8" x1="255.14" y1="210.86" x2="262.77" y2="217.85"/><line class="cls-8" x1="276.01" y1="185.75" x2="284.23" y2="190.78"/><line class="cls-8" x1="295.49" y1="173.27" x2="301.07" y2="177.84"/><line class="cls-8" x1="311.14" y1="151.85" x2="316.57" y2="155.07"/><line class="cls-8" x1="324.66" y1="133.72" x2="329.07" y2="136.33"/><line class="cls-8" x1="336.46" y1="114.74" x2="345.1" y2="120.89"/><line class="cls-8" x1="350.79" y1="96.78" x2="356.9" y2="100.52"/><line class="cls-8" x1="30.82" y1="281.11" x2="25.48" y2="286.03"/><line class="cls-8" x1="49.36" y1="297.01" x2="44.01" y2="301.93"/><g id="ID000021" class="cls-9"><polygon class="cls-10" points="149.98 288.87 149.88 288.87 149.79 288.87 149.7 288.89 149.61 288.91 149.51 288.94 149.42 288.96 149.33 289.01 149.24 289.05 149.16 289.1 149.07 289.14 149 289.22 148.93 289.28 148.86 289.35 148.79 289.42 148.75 289.49 148.7 289.56 148.66 289.65 148.61 289.75 148.56 289.82 148.54 289.91 148.52 290 148.49 290.09 148.47 290.21 148.47 290.3 148.47 290.4 148.47 290.49 148.49 290.58 148.49 290.67 148.52 290.77 148.54 290.86 148.59 290.95 148.63 291.05 148.68 291.12 148.72 291.21 148.77 291.28 148.84 291.37 148.91 291.44 148.98 291.49 149.05 291.56 149.12 291.6 149.21 291.67 149.28 291.72 149.37 291.74 149.47 291.79 149.56 291.81 149.65 291.83 149.74 291.86 149.84 291.88 149.93 291.88 150.02 291.88 150.12 291.88 150.21 291.86 150.3 291.83 150.39 291.81 150.49 291.79 150.58 291.74 150.67 291.72 150.76 291.67 150.83 291.6 150.9 291.56 150.99 291.49 151.06 291.44 151.11 291.37 151.18 291.28 151.23 291.21 151.3 291.12 151.32 291.05 151.36 290.95 151.41 290.86 151.43 290.77 151.46 290.67 151.48 290.58 151.48 290.49 151.48 290.4 151.48 290.3 151.48 290.21 151.46 290.09 151.43 290 151.41 289.91 151.39 289.82 151.34 289.75 151.32 289.65 151.27 289.56 151.2 289.49 151.16 289.42 151.09 289.35 151.02 289.28 150.95 289.22 150.88 289.14 150.79 289.1 150.72 289.05 150.62 289.01 150.53 288.96 150.44 288.94 150.35 288.91 150.25 288.89 150.16 288.87 150.07 288.87 149.98 288.87"/></g><text class="cls-11" transform="translate(41.58 269.84)">5<tspan class="cls-12" x="9.28" y="0">’</tspan></text><text class="cls-11" transform="translate(13.78 314.47)">3<tspan class="cls-12" x="9.28" y="0">’</tspan></text><text class="cls-13" transform="translate(78.18 165.43)">Broccoli aptamer</text></svg>