<?xml version="1.0" encoding="utf-8"?>
<!-- Generator: Adobe Illustrator 25.4.1, SVG Export Plug-In . SVG Version: 6.00 Build 0)  -->
<svg version="1.1" id="图层_1" xmlns="http://www.w3.org/2000/svg" xmlns:xlink="http://www.w3.org/1999/xlink" x="0px" y="0px"
	 viewBox="0 0 800 400" style="enable-background:new 0 0 800 400;" xml:space="preserve">
<style type="text/css">
	.st0{fill:#00B1E9;}
	.st1{font-family:'Arial-BoldMT';}
	.st2{font-size:16.96px;}
	.st3{fill:#D800A5;}
	.st4{letter-spacing:-2;}
	.st5{fill:#E59B25;}
	.st6{font-family:'ArialMT';}
	.st7{fill:#F800FF;}
	.st8{fill:#459119;}
	.st9{fill:#999999;}
	.st10{fill:none;stroke:#000000;stroke-width:0.24;stroke-miterlimit:1.9;}
	.st11{fill:none;stroke:#000000;stroke-width:1.1;stroke-miterlimit:1.9;}
	.st12{stroke:#000000;stroke-width:0.24;stroke-miterlimit:1.9;}
	.st13{font-size:16.59px;}
	.st14{fill:#FFFF00;}
	.st15{font-size:20.17px;}
	.st16{font-size:23.94px;}
	.st17{letter-spacing:-3;}
	.st18{font-size:15.96px;}
	.st19{font-size:36px;}
	.st20{opacity:0.5;fill:#459119;enable-background:new    ;}
	.st21{opacity:0.3;fill:#459119;enable-background:new    ;}
</style>
<text transform="matrix(1 0 0 1 21.5 136.83)" class="st0 st1 st2">G</text>
<text transform="matrix(1 0 0 1 21.55 153.22)" class="st0 st1 st2">G</text>
<text transform="matrix(1 0 0 1 22.08 169.61)" class="st0 st1 st2">C</text>
<text transform="matrix(1 0 0 1 21.65 186.01)" class="st0 st1 st2">G</text>
<text transform="matrix(1 0 0 1 22.18 202.4)" class="st0 st1 st2">C</text>
<text transform="matrix(1 0 0 1 29.97 222.87)" class="st3 st1 st2">G</text>
<text transform="matrix(1 0 0 1 42.82 239.26)" class="st3 st1 st2 st4">A</text>
<text transform="matrix(1 0 0 1 54.67 259.68)" class="st3 st1 st2">G</text>
<text transform="matrix(1 0 0 1 103.95 292.32)" class="st5 st1 st2">G</text>
<text transform="matrix(1 0 0 1 174.13 292.15)" class="st5 st1 st2 st4">A</text>
<text transform="matrix(1 0 0 1 148.83 344.47)" class="st6 st2">10</text>
<text transform="matrix(1 0 0 1 365.08 280.53)" class="st7 st1 st2 st4">A</text>
<text transform="matrix(1 0 0 1 312.97 291.69)" class="st8 st1 st2">G</text>
<text transform="matrix(1 0 0 1 243.29 291.9)" class="st8 st1 st2">G</text>
<text transform="matrix(1 0 0 1 304.12 348.47)" class="st9 st1 st2 st4">A</text>
<text transform="matrix(1 0 0 1 345.85 320.27)" class="st8 st1 st2">G</text>
<text transform="matrix(1 0 0 1 276.17 320.48)" class="st8 st1 st2">G</text>
<text transform="matrix(1 0 0 1 197.44 320.73)" class="st5 st1 st2">U</text>
<text transform="matrix(1 0 0 1 128.43 320.94)" class="st5 st1 st2">C</text>
<text transform="matrix(1 0 0 1 96.01 222.67)" class="st9 st1 st2">U</text>
<text transform="matrix(1 0 0 1 127.82 275.85)" class="st5 st1 st2">G</text>
<text transform="matrix(1 0 0 1 155.49 229.59)" class="st6 st2">20</text>
<text transform="matrix(1 0 0 1 198.67 275.68)" class="st5 st1 st2 st4">A</text>
<text transform="matrix(1 0 0 1 345.71 275.19)" class="st8 st1 st2">G</text>
<text transform="matrix(1 0 0 1 276.04 275.4)" class="st8 st1 st2">G</text>
<text transform="matrix(1 0 0 1 378.8 209.55)" class="st7 st1 st2 st4">A</text>
<text transform="matrix(1 0 0 1 312.83 246.6)" class="st8 st1 st2">G</text>
<text transform="matrix(1 0 0 1 243.16 246.81)" class="st8 st1 st2">G</text>
<text transform="matrix(1 0 0 1 173.96 247.03)" class="st5 st1 st2">U</text>
<text transform="matrix(1 0 0 1 104.28 247.24)" class="st5 st1 st2">C</text>
<text transform="matrix(1 0 0 1 87.24 239.79)" class="st3 st1 st2 st4">A</text>
<text transform="matrix(1 0 0 1 75.53 226.83)" class="st3 st1 st2">C</text>
<text transform="matrix(1 0 0 1 83.98 184.76)" class="st6 st2">30</text>
<text transform="matrix(1 0 0 1 63.2 214.57)" class="st3 st1 st2">U</text>
<text transform="matrix(1 0 0 1 54.49 202.3)" class="st0 st1 st2">G</text>
<text transform="matrix(1 0 0 1 54.92 185.91)" class="st0 st1 st2">C</text>
<text transform="matrix(1 0 0 1 54.39 169.51)" class="st0 st1 st2">G</text>
<text transform="matrix(1 0 0 1 54.82 153.12)" class="st0 st1 st2">C</text>
<text transform="matrix(1 0 0 1 54.77 136.73)" class="st0 st1 st2">C</text>
<line class="st10" x1="34.4" y1="130.8" x2="54.1" y2="130.7"/>
<line class="st10" x1="34.4" y1="147.1" x2="54.1" y2="147.1"/>
<line class="st10" x1="34.5" y1="163.5" x2="54.2" y2="163.5"/>
<line class="st10" x1="34.5" y1="179.9" x2="54.2" y2="179.8"/>
<line class="st10" x1="34.6" y1="196.3" x2="54.3" y2="196.2"/>
<line class="st11" x1="198.1" y1="314.6" x2="141.5" y2="314.8"/>
<polyline class="st11" points="128.4,314.9 102.2,314.9 101.9,223.2 "/>
<line class="st11" x1="173.2" y1="241" x2="116.6" y2="241.1"/>
<line class="st11" x1="66.4" y1="257.2" x2="104.8" y2="282.6"/>
<polygon class="st12" points="81.7,263.1 82.4,265.7 83.7,267.4 85.3,268.8 88.2,271.8 84.3,270.3 82.4,269.5 80.3,268.8 
	77.6,269.2 "/>
<polygon class="st12" points="159.8,266 161.9,267.9 163.9,268.5 166,268.7 170.1,269.6 166,270.6 163.9,270.9 161.9,271.5 
	159.9,273.4 "/>
<polygon class="st12" points="151.5,244.5 149.5,242.6 147.4,242.1 145.4,241.8 141.2,240.9 145.4,239.9 147.4,239.6 149.4,239 
	151.5,237.1 "/>
<polygon class="st12" points="228.3,244.5 226.2,242.7 224.2,242.1 222.1,241.9 218,241 222.1,240 224.2,239.7 226.1,239.1 
	228.1,237.1 "/>
<polygon class="st12" points="141.5,282.5 143.5,284.4 145.6,285 147.6,285.3 151.7,286.3 147.6,287.1 145.5,287.4 143.4,288 
	141.4,289.8 "/>
<polygon class="st12" points="138.3,224.6 136.4,226.5 135.7,228.5 135.4,230.6 134.2,234.6 133.5,230.5 133.3,228.5 132.8,226.4 
	130.9,224.3 "/>
<polygon class="st12" points="266.7,351.7 268.7,353.5 270.8,354.1 272.9,354.5 276.9,355.4 272.9,356.2 270.8,356.6 268.7,357.2 
	266.8,359.1 "/>
<polygon class="st12" points="271.7,339.4 273.8,341.3 275.9,341.9 277.9,342.2 282,343 277.9,344 275.9,344.3 273.8,344.9 
	271.8,346.8 "/>
<polygon class="st12" points="120.4,318.6 118.3,316.8 116.3,316.2 114.2,316 110.1,315.1 114.1,314.1 116.2,313.8 118.2,313.1 
	120.2,311.2 "/>
<polygon class="st12" points="321.7,319.3 319.6,317.4 317.5,316.8 315.5,316.5 311.4,315.7 315.5,314.7 317.5,314.4 319.5,313.8 
	321.6,311.9 "/>
<polygon class="st12" points="345.6,282.3 343.2,281 341,280.9 339,281.1 334.8,281.2 338.5,279.3 340.5,278.5 342.3,277.4 
	343.8,275.2 "/>
<polygon class="st12" points="361,221.1 358.3,220.6 356.2,221.1 354.3,221.9 350.3,223.2 353.4,220.4 355,219 356.4,217.4 
	357.2,214.8 "/>
<polygon class="st12" points="324.1,329.3 326.8,329.6 328.8,328.9 330.7,327.9 334.5,326.3 331.8,329.5 330.2,330.9 329,332.6 
	328.4,335.3 "/>
<polygon class="st12" points="319.4,272.9 317.3,271.1 315.3,270.5 313.2,270.2 309.1,269.4 313.2,268.4 315.2,268 317.3,267.4 
	319.3,265.5 "/>
<polygon class="st12" points="301.7,244.3 299.6,242.5 297.6,241.9 295.5,241.6 291.5,240.8 295.5,239.8 297.6,239.5 299.6,238.8 
	301.6,236.9 "/>
<polygon class="st12" points="302.4,289.3 300.3,287.5 298.2,286.9 296.2,286.7 292.1,285.8 296.2,284.8 298.2,284.5 300.3,283.8 
	302.3,282 "/>
<polygon class="st12" points="269.9,318.1 267.8,316.4 265.7,315.8 263.6,315.6 259.5,314.9 263.5,313.8 265.5,313.4 267.5,312.7 
	269.5,310.8 "/>
<polygon class="st12" points="192.8,318.4 190.7,316.5 188.6,315.9 186.6,315.6 182.5,314.7 186.6,313.8 188.6,313.5 190.7,312.9 
	192.7,311 "/>
<polygon class="st12" points="232.9,212.5 235.1,214.3 237.1,214.9 239.1,215.2 243.2,216 239.2,217 237.1,217.4 235.1,218 
	233.1,219.9 "/>
<polygon class="st12" points="278.5,232 280.3,229.9 280.8,227.8 281,225.8 281.8,221.6 282.8,225.7 283.2,227.7 284,229.7 
	285.9,231.7 "/>
<line class="st11" x1="116.8" y1="286.2" x2="173.4" y2="286.1"/>
<polyline class="st11" points="180.2,355.7 372.7,355.1 372.5,279.4 "/>
<line class="st11" x1="180" y1="290" x2="180.2" y2="355.7"/>
<line class="st11" x1="364.8" y1="274.8" x2="325.4" y2="283.3"/>
<line class="st11" x1="312.7" y1="285.6" x2="256.1" y2="285.8"/>
<polyline class="st11" points="249.6,292.4 249.7,343.2 304.7,343 "/>
<line class="st11" x1="342.6" y1="316.2" x2="286" y2="316.4"/>
<line class="st11" x1="275.9" y1="314.4" x2="211.1" y2="314.6"/>
<polyline class="st11" points="108.4,216.8 134.6,217.3 134.8,263.2 "/>
<line class="st11" x1="141.3" y1="269.7" x2="197.9" y2="269.6"/>
<polyline class="st11" points="204.4,263 204.3,216.3 331.4,215.9 349.6,263 "/>
<line class="st11" x1="345.5" y1="269.1" x2="288.9" y2="269.3"/>
<polyline class="st11" points="282.3,262.8 282.1,203.7 378,203.4 "/>
<line class="st11" x1="378.9" y1="206.7" x2="324.8" y2="237.3"/>
<line class="st11" x1="312.6" y1="240.6" x2="256" y2="240.7"/>
<line class="st11" x1="242.9" y1="240.8" x2="187" y2="240.9"/>
<line class="st10" x1="324.2" y1="289.9" x2="347.2" y2="309.9"/>
<polygon class="st12" points="330,295 329.9,295.1 329.8,295.3 329.7,295.4 329.5,295.6 329.5,295.8 329.4,296 329.3,296.2 
	329.3,296.4 329.3,296.6 329.2,296.8 329.2,297 329.2,297.3 329.2,297.5 329.3,297.7 329.3,297.9 329.3,298.1 329.4,298.3 
	329.5,298.5 329.6,298.6 329.7,298.8 329.8,299 329.9,299.1 330.1,299.4 330.2,299.5 330.4,299.6 330.5,299.8 330.7,299.9 
	330.9,299.9 331.1,300.1 331.3,300.1 331.5,300.2 331.7,300.3 331.9,300.3 332.1,300.3 332.3,300.4 332.5,300.4 332.7,300.4 
	332.9,300.3 333.1,300.3 333.3,300.3 333.5,300.2 333.7,300.1 333.9,300.1 334.1,300 334.3,299.9 334.5,299.7 334.6,299.6 
	334.7,299.5 334.9,299.3 335.1,299.2 335.1,299 335.2,298.9 335.4,298.7 335.5,298.5 335.6,298.3 335.6,298.1 335.6,297.9 
	335.7,297.7 335.8,297.5 335.8,297.3 335.8,297.1 335.8,296.9 335.7,296.7 335.7,296.5 335.6,296.3 335.6,296 335.5,295.9 
	335.4,295.7 335.3,295.5 335.2,295.3 335.1,295.1 335,295 334.8,294.8 334.6,294.7 334.5,294.5 334.4,294.4 334.2,294.3 334,294.2 
	333.8,294.1 333.6,294 333.4,294 333.2,293.9 333,293.9 332.8,293.8 332.6,293.8 332.4,293.8 332.2,293.8 332,293.9 331.8,293.9 
	331.6,294 331.4,294 331.2,294.1 331,294.2 330.8,294.3 330.6,294.4 330.5,294.6 330.3,294.6 330.1,294.8 "/>
<polygon class="st12" points="343.6,302.4 338.6,298.1 334.3,303 339.3,307.3 "/>
<line class="st10" x1="254.6" y1="290.1" x2="277.5" y2="310.1"/>
<polygon class="st12" points="260.4,295.2 260.2,295.3 260.1,295.5 260,295.6 259.9,295.8 259.8,296 259.7,296.2 259.6,296.4 
	259.6,296.6 259.6,296.8 259.6,297 259.5,297.2 259.5,297.5 259.6,297.7 259.6,297.9 259.6,298.1 259.6,298.3 259.7,298.5 
	259.9,298.7 259.9,298.8 260,299 260.1,299.2 260.2,299.4 260.4,299.6 260.6,299.7 260.7,299.8 260.9,300 261,300.1 261.2,300.2 
	261.4,300.3 261.6,300.4 261.8,300.4 262,300.5 262.2,300.5 262.4,300.5 262.6,300.6 262.8,300.6 263,300.6 263.2,300.5 
	263.4,300.5 263.6,300.5 263.8,300.4 264,300.4 264.2,300.3 264.4,300.2 264.6,300.1 264.8,300 264.9,299.8 265,299.7 265.2,299.5 
	265.4,299.4 265.5,299.2 265.6,299.1 265.7,298.9 265.8,298.7 265.9,298.5 266,298.3 266,298.1 266,297.9 266.1,297.7 266.1,297.5 
	266.1,297.3 266.1,297.1 266,296.9 266,296.7 266,296.5 265.9,296.2 265.8,296.1 265.8,295.9 265.6,295.7 265.6,295.5 265.4,295.4 
	265.3,295.2 265.2,295 265,294.9 264.8,294.8 264.7,294.6 264.5,294.5 264.3,294.4 264.2,294.3 264,294.2 263.8,294.2 263.6,294.1 
	263.4,294.1 263.2,294 263,294 262.7,294 262.5,294 262.3,294.1 262.1,294.1 261.9,294.2 261.7,294.2 261.5,294.3 261.3,294.4 
	261.2,294.5 261,294.6 260.8,294.8 260.6,294.8 260.5,295 "/>
<polygon class="st12" points="273.9,302.6 269,298.3 264.6,303.2 269.6,307.5 "/>
<line class="st10" x1="352.1" y1="307.7" x2="352" y2="275.7"/>
<polygon class="st12" points="352.1,299.2 352.3,299.2 352.5,299.1 352.7,299.1 352.9,299.1 353.1,299 353.3,299 353.5,298.9 
	353.7,298.8 353.9,298.7 354.1,298.5 354.2,298.4 354.3,298.3 354.5,298.1 354.6,297.9 354.7,297.8 354.9,297.6 355,297.5 
	355.1,297.3 355.1,297.1 355.2,296.9 355.3,296.7 355.3,296.5 355.3,296.3 355.4,296.1 355.4,295.9 355.3,295.6 355.3,295.4 
	355.3,295.2 355.3,295 355.2,294.8 355.1,294.6 355,294.5 354.9,294.3 354.8,294.1 354.7,294 354.6,293.8 354.4,293.6 354.3,293.5 
	354.1,293.4 353.9,293.2 353.8,293.1 353.6,293 353.4,292.9 353.2,292.8 353,292.8 352.8,292.7 352.6,292.7 352.4,292.6 
	352.2,292.6 352,292.6 351.8,292.6 351.5,292.7 351.3,292.7 351.1,292.8 350.9,292.8 350.7,292.9 350.6,293 350.4,293.1 
	350.2,293.2 350.1,293.4 349.9,293.5 349.7,293.6 349.6,293.8 349.5,294 349.3,294.1 349.3,294.3 349.1,294.5 349.1,294.6 
	349,294.8 348.9,295 348.9,295.2 348.8,295.4 348.8,295.6 348.8,295.9 348.8,296.1 348.8,296.3 348.9,296.5 348.9,296.7 349,296.9 
	349,297.1 349.1,297.3 349.2,297.5 349.3,297.6 349.4,297.8 349.5,298 349.7,298.2 349.8,298.3 350,298.4 350.1,298.6 350.4,298.7 
	350.5,298.8 350.7,298.9 350.9,299 351.1,299 351.3,299.1 351.5,299.1 351.7,299.1 351.9,299.2 "/>
<polygon class="st12" points="348.8,284.1 348.8,290.7 355.4,290.7 355.4,284.1 "/>
<line class="st10" x1="282.4" y1="307.9" x2="282.3" y2="275.9"/>
<polygon class="st12" points="282.4,299.4 282.7,299.4 282.9,299.4 283.1,299.4 283.3,299.3 283.5,299.2 283.6,299.2 283.9,299.1 
	284,299 284.2,298.9 284.4,298.8 284.5,298.6 284.6,298.5 284.9,298.4 285,298.2 285.1,298 285.2,297.8 285.3,297.7 285.4,297.5 
	285.5,297.3 285.6,297.1 285.6,296.9 285.6,296.7 285.6,296.5 285.7,296.3 285.7,296.1 285.7,295.8 285.6,295.6 285.6,295.4 
	285.6,295.2 285.5,295 285.4,294.8 285.4,294.7 285.2,294.5 285.2,294.3 285,294.2 284.9,294 284.8,293.8 284.6,293.7 284.4,293.6 
	284.2,293.4 284.1,293.3 283.9,293.2 283.7,293.1 283.5,293 283.3,293 283.1,292.9 282.9,292.9 282.7,292.8 282.5,292.8 
	282.3,292.9 282.1,292.9 281.9,292.9 281.7,292.9 281.5,293 281.3,293 281.1,293.1 280.9,293.2 280.7,293.3 280.6,293.5 
	280.4,293.6 280.2,293.7 280,293.9 279.9,294 279.8,294.2 279.6,294.3 279.6,294.5 279.5,294.7 279.4,294.9 279.3,295 279.2,295.2 
	279.2,295.5 279.2,295.6 279.1,295.9 279.1,296.1 279.1,296.3 279.2,296.5 279.2,296.7 279.3,296.9 279.3,297.1 279.3,297.3 
	279.5,297.5 279.5,297.7 279.7,297.8 279.7,298 279.9,298.2 280,298.4 280.1,298.5 280.3,298.6 280.5,298.8 280.7,298.9 280.9,299 
	281,299.1 281.2,299.2 281.4,299.2 281.6,299.3 281.8,299.4 282,299.4 282.2,299.4 "/>
<polygon class="st12" points="279.1,284.3 279.1,290.9 285.7,290.9 285.7,284.3 "/>
<line class="st10" x1="204.6" y1="308.1" x2="204.4" y2="276.1"/>
<polygon class="st12" points="204.5,300.7 208.2,294.2 200.9,294.2 "/>
<polygon class="st12" points="204.5,284.6 204.3,284.6 204.1,284.6 203.9,284.6 203.7,284.7 203.5,284.7 203.3,284.8 203.1,284.9 
	202.9,285 202.8,285.1 202.6,285.2 202.4,285.4 202.2,285.5 202.1,285.6 202,285.8 201.8,286 201.8,286.1 201.6,286.3 201.5,286.5 
	201.4,286.7 201.4,286.9 201.4,287.1 201.3,287.3 201.2,287.5 201.2,287.7 201.2,287.9 201.2,288.1 201.3,288.3 201.3,288.5 
	201.4,288.7 201.4,288.9 201.5,289.1 201.6,289.3 201.7,289.5 201.8,289.7 201.9,289.8 202,290 202.2,290.2 202.4,290.3 
	202.5,290.4 202.6,290.6 202.8,290.7 203,290.8 203.2,290.8 203.4,291 203.6,291 203.8,291 204,291.1 204.2,291.1 204.4,291.1 
	204.6,291.1 204.8,291.1 205,291.1 205.2,291 205.4,291 205.6,291 205.8,290.8 206,290.8 206.2,290.7 206.4,290.5 206.6,290.4 
	206.7,290.3 206.8,290.1 207,290 207.2,289.8 207.2,289.7 207.4,289.5 207.5,289.3 207.6,289.1 207.6,288.9 207.7,288.7 
	207.8,288.5 207.8,288.3 207.8,288.1 207.8,287.9 207.8,287.7 207.8,287.5 207.8,287.3 207.7,287.1 207.7,286.9 207.6,286.7 
	207.5,286.5 207.4,286.3 207.3,286.1 207.1,286 207.1,285.8 206.9,285.6 206.7,285.5 206.6,285.4 206.5,285.2 206.3,285.1 
	206.1,285 205.9,284.9 205.7,284.8 205.5,284.7 205.3,284.7 205.1,284.6 204.9,284.6 204.8,284.6 "/>
<line class="st10" x1="130.5" y1="264.8" x2="114.4" y2="246.1"/>
<polygon class="st12" points="120.3,253 120.1,253.1 120,253.3 119.9,253.4 119.7,253.6 119.6,253.8 119.5,254 119.5,254.2 
	119.3,254.4 119.3,254.6 119.3,254.7 119.2,255 119.2,255.2 119.1,255.4 119.1,255.6 119.2,255.8 119.2,256 119.3,256.2 
	119.3,256.4 119.3,256.6 119.4,256.8 119.6,257 119.6,257.2 119.8,257.3 119.9,257.5 120,257.6 120.2,257.8 120.3,258 120.5,258.1 
	120.6,258.2 120.8,258.3 120.9,258.4 121.2,258.5 121.3,258.6 121.6,258.6 121.8,258.7 121.9,258.7 122.2,258.8 122.4,258.8 
	122.6,258.8 122.8,258.8 123,258.7 123.2,258.7 123.4,258.6 123.6,258.5 123.8,258.5 124,258.4 124.1,258.3 124.3,258.1 124.5,258 
	124.7,257.9 124.8,257.8 124.9,257.6 125.1,257.4 125.2,257.3 125.3,257.1 125.4,256.9 125.5,256.7 125.5,256.5 125.6,256.3 
	125.7,256.1 125.7,255.9 125.7,255.7 125.7,255.5 125.7,255.3 125.7,255.1 125.7,254.9 125.6,254.7 125.6,254.4 125.5,254.3 
	125.4,254.1 125.3,253.9 125.2,253.7 125.1,253.6 125,253.4 124.9,253.2 124.7,253.1 124.5,253 124.4,252.8 124.2,252.7 124,252.6 
	123.8,252.5 123.6,252.4 123.5,252.4 123.3,252.3 123.1,252.2 122.8,252.2 122.6,252.2 122.4,252.2 122.2,252.2 122,252.2 
	121.8,252.2 121.6,252.3 121.4,252.4 121.2,252.4 121,252.5 120.8,252.6 120.7,252.7 120.5,252.8 "/>
<line class="st10" x1="347" y1="264.8" x2="324" y2="244.8"/>
<polygon class="st12" points="341.2,259.8 341.4,259.6 341.5,259.4 341.6,259.3 341.7,259.1 341.8,258.9 341.9,258.7 341.9,258.5 
	342,258.3 342,258.1 342,257.9 342,257.7 342,257.5 342,257.3 342,257 342,256.8 341.9,256.6 341.8,256.4 341.8,256.3 341.6,256.1 
	341.6,255.9 341.4,255.7 341.3,255.6 341.2,255.4 341,255.2 340.9,255.1 340.7,255 340.6,254.8 340.4,254.8 340.2,254.6 340,254.6 
	339.8,254.5 339.6,254.4 339.4,254.4 339.2,254.4 339,254.4 338.8,254.4 338.6,254.4 338.4,254.4 338.2,254.4 338,254.4 
	337.8,254.5 337.6,254.6 337.4,254.6 337.2,254.8 337,254.8 336.9,255 336.6,255.1 336.5,255.2 336.4,255.4 336.2,255.5 
	336.1,255.7 336,255.9 335.9,256 335.8,256.2 335.7,256.4 335.7,256.6 335.6,256.8 335.5,257 335.5,257.2 335.5,257.4 335.5,257.6 
	335.5,257.9 335.5,258.1 335.6,258.3 335.6,258.5 335.7,258.7 335.7,258.9 335.9,259 335.9,259.2 336.1,259.4 336.2,259.6 
	336.3,259.8 336.5,259.9 336.6,260 336.7,260.2 336.9,260.3 337.1,260.4 337.3,260.6 337.5,260.6 337.7,260.7 337.9,260.8 
	338.1,260.8 338.3,260.8 338.5,260.9 338.7,260.9 338.9,260.9 339.1,260.9 339.3,260.9 339.5,260.8 339.7,260.8 339.9,260.7 
	340.1,260.6 340.3,260.5 340.5,260.4 340.7,260.4 340.8,260.2 341,260.1 341.1,260 "/>
<polygon class="st12" points="327.7,252.3 332.7,256.6 337,251.7 332,247.4 "/>
<line class="st10" x1="277.4" y1="265" x2="254.4" y2="245.1"/>
<polygon class="st12" points="271.6,260 271.7,259.8 271.8,259.6 272,259.5 272,259.3 272.2,259.1 272.2,258.9 272.3,258.7 
	272.3,258.5 272.4,258.3 272.4,258.1 272.4,257.9 272.4,257.7 272.4,257.5 272.4,257.2 272.3,257 272.2,256.8 272.1,256.6 
	272.1,256.5 272,256.3 271.9,256.1 271.8,255.9 271.7,255.8 271.5,255.6 271.4,255.4 271.2,255.3 271.1,255.2 270.9,255 270.7,255 
	270.5,254.8 270.4,254.8 270.1,254.7 270,254.6 269.8,254.6 269.6,254.6 269.4,254.6 269.1,254.6 268.9,254.6 268.7,254.6 
	268.5,254.6 268.3,254.6 268.1,254.7 267.9,254.8 267.7,254.9 267.5,255 267.4,255.1 267.2,255.2 267,255.3 266.8,255.5 
	266.7,255.6 266.6,255.7 266.4,255.9 266.3,256.1 266.2,256.2 266.1,256.5 266,256.6 266,256.9 265.9,257 265.9,257.2 265.8,257.5 
	265.8,257.6 265.8,257.9 265.8,258.1 265.8,258.3 265.9,258.5 266,258.7 266,258.9 266.1,259.1 266.2,259.2 266.2,259.5 
	266.4,259.6 266.5,259.8 266.6,260 266.8,260.1 266.9,260.2 267.1,260.4 267.2,260.5 267.5,260.6 267.6,260.8 267.8,260.8 
	268,260.9 268.2,261 268.4,261 268.6,261 268.8,261.1 269,261.1 269.2,261.1 269.4,261.1 269.6,261.1 269.8,261 270,261 
	270.2,260.9 270.4,260.8 270.6,260.8 270.8,260.6 271,260.6 271.2,260.4 271.3,260.3 271.4,260.2 "/>
<path class="st12" d="M258,252.6c5.7,5,4.3,5.2,9.2-0.6C261.6,246.8,263,246.8,258,252.6z"/>
<line class="st10" x1="54.8" y1="230.8" x2="75.2" y2="223.1"/>
<polygon class="st12" points="58,229.6 58,229.8 58.1,230 58.2,230.2 58.3,230.4 58.4,230.6 58.6,230.7 58.7,230.8 58.9,230.9 
	59,231.1 59.2,231.2 59.4,231.4 59.6,231.4 59.8,231.5 60,231.6 60.2,231.6 60.3,231.7 60.5,231.7 60.8,231.7 61,231.7 61.2,231.7 
	61.4,231.7 61.6,231.7 61.8,231.6 62,231.6 62.2,231.5 62.4,231.4 62.5,231.3 62.8,231.2 63,231.1 63.1,231 63.3,230.9 63.4,230.7 
	63.5,230.5 63.7,230.3 63.8,230.2 63.9,230 64,229.8 64.1,229.7 64.1,229.5 64.2,229.3 64.2,229.1 64.3,228.9 64.3,228.6 
	64.3,228.4 64.3,228.2 64.3,228 64.2,227.8 64.1,227.6 64.1,227.4 64,227.2 63.9,227 63.9,226.8 63.7,226.7 63.6,226.5 63.5,226.4 
	63.3,226.1 63.2,226 63,225.9 62.9,225.8 62.7,225.7 62.5,225.6 62.3,225.5 62.1,225.4 61.9,225.3 61.7,225.3 61.5,225.2 
	61.3,225.2 61.1,225.2 60.9,225.2 60.7,225.2 60.5,225.2 60.3,225.3 60.1,225.3 59.9,225.4 59.7,225.4 59.5,225.6 59.3,225.6 
	59.1,225.8 59,225.9 58.8,226 58.7,226.2 58.5,226.3 58.4,226.5 58.3,226.6 58.2,226.8 58.1,227 58,227.2 57.9,227.4 57.8,227.6 
	57.8,227.8 57.8,228 57.8,228.2 57.7,228.4 57.7,228.6 57.8,228.8 57.8,229 57.8,229.2 57.9,229.4 "/>
<polygon class="st12" points="73,223.9 65.7,222.8 68.3,229.7 "/>
<line class="st10" x1="66.5" y1="250.1" x2="88.2" y2="236.5"/>
<polygon class="st12" points="70.1,247.9 77.5,247.6 73.6,241.4 "/>
<polygon class="st12" points="83.7,239.3 83.6,239.1 83.4,238.9 83.3,238.8 83.2,238.7 83.1,238.5 82.8,238.4 82.7,238.3 
	82.5,238.2 82.3,238.1 82.1,238 81.9,237.9 81.7,237.9 81.5,237.8 81.3,237.8 81.1,237.8 80.9,237.7 80.7,237.8 80.5,237.8 
	80.3,237.8 80.1,237.9 79.9,237.9 79.7,238 79.5,238.1 79.3,238.2 79.1,238.3 79,238.4 78.8,238.5 78.7,238.7 78.5,238.8 78.4,239 
	78.3,239.1 78.1,239.3 78,239.5 77.9,239.7 77.9,239.9 77.8,240.1 77.7,240.3 77.7,240.5 77.7,240.7 77.7,240.9 77.7,241.1 
	77.7,241.3 77.7,241.5 77.7,241.7 77.8,241.9 77.9,242.1 77.9,242.3 78,242.5 78.1,242.7 78.2,242.9 78.3,243.1 78.5,243.2 
	78.6,243.4 78.7,243.5 78.9,243.7 79.1,243.7 79.3,243.9 79.5,244 79.6,244.1 79.8,244.1 80,244.2 80.2,244.2 80.4,244.2 
	80.7,244.3 80.9,244.3 81.1,244.3 81.3,244.3 81.5,244.2 81.7,244.2 81.9,244.2 82.1,244.1 82.3,244.1 82.5,243.9 82.7,243.8 
	82.8,243.7 83,243.6 83.1,243.4 83.3,243.3 83.4,243.2 83.5,243 83.7,242.8 83.8,242.6 83.9,242.5 84,242.3 84.1,242.1 84.1,241.9 
	84.1,241.7 84.2,241.5 84.2,241.2 84.2,241.1 84.2,240.9 84.2,240.6 84.2,240.4 84.1,240.2 84.1,240.1 84,239.9 83.9,239.6 
	83.8,239.4 "/>
<line class="st10" x1="114.5" y1="291.2" x2="130.6" y2="309.9"/>
<polygon class="st12" points="124.7,303 124.9,302.9 125,302.8 125.1,302.6 125.3,302.4 125.4,302.2 125.5,302 125.6,301.9 
	125.7,301.7 125.7,301.5 125.8,301.3 125.8,301.1 125.9,300.9 125.9,300.6 125.9,300.4 125.9,300.2 125.8,300 125.8,299.8 
	125.7,299.6 125.7,299.4 125.6,299.2 125.5,299 125.4,298.9 125.3,298.7 125.2,298.5 125.1,298.4 124.9,298.2 124.7,298 
	124.6,297.9 124.4,297.9 124.3,297.7 124.1,297.6 123.9,297.5 123.7,297.5 123.5,297.4 123.3,297.3 123.1,297.3 122.9,297.2 
	122.7,297.2 122.5,297.2 122.3,297.3 122,297.3 121.8,297.4 121.6,297.4 121.4,297.5 121.2,297.6 121.1,297.7 120.9,297.8 
	120.7,297.9 120.5,298 120.3,298.1 120.2,298.3 120.1,298.5 119.9,298.6 119.8,298.8 119.7,298.9 119.6,299.1 119.5,299.3 
	119.5,299.5 119.4,299.7 119.3,299.9 119.3,300.1 119.3,300.3 119.3,300.5 119.3,300.7 119.3,301 119.3,301.2 119.4,301.4 
	119.5,301.6 119.6,301.8 119.6,302 119.8,302.1 119.8,302.3 119.9,302.5 120.1,302.6 120.2,302.8 120.3,303 120.5,303.1 
	120.7,303.2 120.8,303.3 121,303.4 121.2,303.5 121.4,303.6 121.6,303.7 121.8,303.8 122,303.8 122.2,303.8 122.4,303.8 
	122.6,303.8 122.8,303.8 123,303.8 123.3,303.8 123.5,303.7 123.7,303.6 123.9,303.6 124,303.5 124.2,303.4 124.4,303.3 
	124.5,303.2 "/>
<line class="st10" x1="177.9" y1="290" x2="157.6" y2="330.6"/>
<line class="st10" x1="141.3" y1="263.6" x2="164" y2="230.5"/>
<line class="st10" x1="82.4" y1="215.6" x2="92.3" y2="185.6"/>
<line class="st11" x1="316.6" y1="339.2" x2="346.8" y2="318"/>
<text transform="matrix(1 -6.108614e-03 6.108614e-03 1 766.96 101.97)" class="st0 st1 st13">G</text>
<text transform="matrix(1 -6.108614e-03 6.108614e-03 1 767.81 118.68)" class="st0 st1 st2">G</text>
<text transform="matrix(1 -6.108614e-03 6.108614e-03 1 768.43 135.06)" class="st0 st1 st2">C</text>
<text transform="matrix(1 -6.108614e-03 6.108614e-03 1 768.1 151.46)" class="st0 st1 st2">G</text>
<text transform="matrix(1 -2.967055e-03 2.967055e-03 1 768.59 167.88)" class="st0 st1 st2">C</text>
<text transform="matrix(1 -2.967055e-03 2.967055e-03 1 760.04 188.43)" class="st3 st1 st2">G</text>
<text transform="matrix(1 0 0 1 748.16 204.91)" class="st3 st1 st2 st4">A</text>
<text transform="matrix(1 0 0 1 735.42 225.4)" class="st3 st1 st2">G</text>
<text transform="matrix(1 0 0 1 686.34 258.34)" class="st5 st1 st2">G</text>
<text transform="matrix(1 0 0 1 617.17 258.59)" class="st5 st1 st2 st4">A</text>
<text transform="matrix(1 0 0 1 637.13 311.78)" class="st6 st2">10</text>
<text transform="matrix(1 0 0 1 430.14 190.3)" class="st9 st1 st2 st4">A</text>
<text transform="matrix(1 0 0 1 477.31 258.98)" class="st8 st1 st2">G</text>
<text transform="matrix(1 0 0 1 547 258.77)" class="st8 st1 st2">G</text>
<text transform="matrix(1 0 0 1 393.52 315.65)" class="st7 st1 st2 st4">A</text>
<text transform="matrix(1 0 0 1 443.62 288.76)" class="st8 st1 st2">G</text>
<text transform="matrix(1 0 0 1 516.29 289.55)" class="st8 st1 st2">G</text>
<text transform="matrix(1 0 0 1 591.63 287.32)" class="st5 st1 st2">U</text>
<text transform="matrix(1 0 0 1 661.3 289.1)" class="st5 st1 st2">C</text>
<text transform="matrix(1 0 0 1 692.8 188.64)" class="st9 st1 st2">U</text>
<text transform="matrix(1 0 0 1 660.7 244.03)" class="st5 st1 st2">G</text>
<text transform="matrix(1 0 0 1 628.74 197.94)" class="st6 st2">20</text>
<text transform="matrix(1 0 0 1 591.53 243.27)" class="st5 st1 st2 st4">A</text>
<text transform="matrix(1 0 0 1 443.48 243.69)" class="st8 st1 st2">G</text>
<text transform="matrix(1 0 0 1 513.16 243.47)" class="st8 st1 st2">G</text>
<text transform="matrix(1 0 0 1 455.84 176.9)" class="st9 st1 st2 st4">A</text>
<text transform="matrix(1 0 0 1 477.18 213.89)" class="st8 st1 st2">G</text>
<text transform="matrix(1 0 0 1 545.86 213.68)" class="st8 st1 st2">G</text>
<text transform="matrix(1 0 0 1 616 215.47)" class="st5 st1 st2">U</text>
<text transform="matrix(1 0 0 1 685.68 214.26)" class="st5 st1 st2">C</text>
<text transform="matrix(1 0 0 1 702.74 205.71)" class="st3 st1 st2 st4">A</text>
<text transform="matrix(1 0 0 1 715.3 192.68)" class="st3 st1 st2">C</text>
<text transform="matrix(1 0 0 1 700.31 151.67)" class="st6 st2">30</text>
<text transform="matrix(1 -2.967055e-03 2.967055e-03 1 727.68 180.43)" class="st3 st1 st2">U</text>
<text transform="matrix(1 -2.967055e-03 2.967055e-03 1 735.33 168.08)" class="st0 st1 st2">G</text>
<text transform="matrix(1 -6.108614e-03 6.108614e-03 1 735.79 151.76)" class="st0 st1 st2">C</text>
<text transform="matrix(1 -6.108614e-03 6.108614e-03 1 735.17 135.37)" class="st0 st1 st2">G</text>
<text transform="matrix(1 -6.108614e-03 6.108614e-03 1 735.49 118.97)" class="st0 st1 st2">C</text>
<text transform="matrix(1 -6.108614e-03 6.108614e-03 1 735.34 102.26)" class="st0 st1 st13">C</text>
<line class="st10" x1="767.2" y1="97.3" x2="747.5" y2="97.3"/>
<line class="st10" x1="767.2" y1="113.7" x2="747.6" y2="113.8"/>
<line class="st10" x1="767.3" y1="130.1" x2="747.6" y2="130.1"/>
<line class="st10" x1="767.3" y1="146.5" x2="747.7" y2="146.5"/>
<line class="st10" x1="767.4" y1="162.9" x2="747.7" y2="163"/>
<line class="st11" x1="602.7" y1="283.2" x2="659.2" y2="283"/>
<polyline class="st11" points="674.3,282 700.5,281.9 700.2,190.1 "/>
<line class="st11" x1="629" y1="208.3" x2="685.5" y2="208.2"/>
<line class="st11" x1="735.9" y1="224" x2="697.7" y2="249.6"/>
<polygon class="st12" points="720.7,229.9 719.9,232.6 718.6,234.3 717.1,235.7 714.2,238.7 718.1,237.2 719.9,236.3 722,235.6 
	724.7,236 "/>
<polygon class="st12" points="642.5,233.4 640.5,235.2 638.4,235.8 636.4,236.1 632.3,237 636.4,237.9 638.4,238.2 640.5,238.8 
	642.5,240.7 "/>
<polygon class="st12" points="650.7,211.8 652.8,209.9 654.8,209.3 656.8,209 660.9,208.1 656.8,207.2 654.8,206.9 652.8,206.3 
	650.7,204.4 "/>
<polygon class="st12" points="573.9,212.3 576,210.4 578,209.9 580.1,209.6 584.2,208.7 580.2,207.8 578.1,207.4 576,206.8 
	574,204.9 "/>
<polygon class="st12" points="661,249.7 659,251.5 657,252.2 654.9,252.6 650.8,253.5 654.9,254.3 657,254.7 659,255.2 661.1,257 
	"/>
<polygon class="st12" points="661.8,191.7 663.7,193.7 664.4,195.7 664.8,197.8 665.9,201.8 666.7,197.6 666.9,195.6 667.4,193.5 
	669.1,191.4 "/>
<polygon class="st12" points="536.2,319.7 534.2,321.5 532.1,322.1 530,322.4 526,323.4 530,324.3 532.1,324.6 534.2,325.2 
	536.2,327 "/>
<polygon class="st12" points="531,307.5 529,309.3 526.9,309.9 524.9,310.2 520.8,311.1 524.9,312.1 526.9,312.4 529,313 
	531.1,314.8 "/>
<polygon class="st12" points="682.3,285.6 684.4,283.8 686.4,283.3 688.4,283 692.5,282.2 688.5,281.2 686.4,280.9 684.4,280.2 
	682.4,278.3 "/>
<polygon class="st12" points="481,285.9 483,284.1 485.1,283.5 487.1,283.2 491.3,282.2 487.1,281.3 485.1,281 483.1,280.4 
	481,278.5 "/>
<polygon class="st12" points="456.9,250.8 459.2,249.4 461.5,249.3 463.5,249.5 467.7,249.5 463.9,247.7 462,246.9 460.2,245.8 
	458.6,243.6 "/>
<polygon class="st12" points="467.1,194.5 469.7,195.4 471.2,197 472.4,198.7 475.1,201.8 474,197.8 473.4,195.8 473,193.7 
	473.7,191.1 "/>
<polygon class="st12" points="419.4,303.3 420.4,300.9 422,299.4 423.8,298.3 427.1,295.7 423,296.6 421,297.2 418.9,297.5 
	416.2,296.7 "/>
<polygon class="st12" points="483,241.2 485.1,239.4 487.1,238.8 489.2,238.5 493.3,237.5 489.2,236.6 487.1,236.3 485.1,235.6 
	483.1,233.9 "/>
<polygon class="st12" points="500.5,212.5 502.6,210.6 504.6,210.1 506.7,209.8 510.8,208.9 506.7,207.9 504.7,207.6 502.6,207 
	500.5,205.1 "/>
<polygon class="st12" points="500.1,257.5 502.2,255.7 504.2,255.1 506.3,254.8 510.4,253.9 506.3,252.9 504.2,252.7 502.2,252 
	500.1,250.2 "/>
<polygon class="st12" points="536.8,286.1 539,284.4 541,283.8 543.1,283.6 547.2,282.8 543.1,281.8 541.1,281.4 539.1,280.7 
	537.1,278.8 "/>
<polygon class="st12" points="610,285.9 612,284.1 614,283.4 616.1,283.1 620.1,282.2 616.1,281.3 614,280.9 612,280.3 610,278.5 
	"/>
<polygon class="st12" points="569.1,180.3 567,182.1 565,182.7 562.9,183 558.8,183.9 562.9,184.8 565,185.1 567,185.8 569,187.6 
	"/>
<polygon class="st12" points="523.6,200.1 521.9,198 521.3,195.9 521.1,193.8 520.3,189.7 519.3,193.8 518.9,195.8 518.1,197.8 
	516.3,199.8 "/>
<line class="st11" x1="685.7" y1="253.3" x2="629.1" y2="253.5"/>
<line class="st11" x1="436.5" y1="323.7" x2="436.1" y2="189.2"/>
<line class="st11" x1="423.3" y1="240.9" x2="423.1" y2="185.4"/>
<line class="st11" x1="423.1" y1="185.4" x2="430.3" y2="185.3"/>
<polyline class="st11" points="622.6,260.1 622.8,323.1 436.5,323.7 "/>
<line class="st11" x1="423.3" y1="240.5" x2="477.1" y2="251.6"/>
<line class="st11" x1="489.8" y1="253.9" x2="546.3" y2="253.7"/>
<polyline class="st11" points="552.9,260.2 553.1,311 404.6,311.5 "/>
<line class="st11" x1="457.1" y1="282.7" x2="516.5" y2="282.5"/>
<line class="st11" x1="528.6" y1="282.5" x2="591.5" y2="282.3"/>
<polyline class="st11" points="691.7,184.7 665.5,185.5 665.6,231.4 "/>
<line class="st11" x1="661" y1="237" x2="604.5" y2="237.1"/>
<polyline class="st11" points="597.9,230.6 597.8,183.9 470.7,184.3 452.8,231.5 "/>
<line class="st11" x1="457" y1="237.6" x2="513.5" y2="237.4"/>
<polyline class="st11" points="520,230.8 519.9,171.8 467.5,172 "/>
<line class="st11" x1="463.4" y1="177.9" x2="477.3" y2="205.6"/>
<line class="st11" x1="489.6" y1="208.8" x2="546.2" y2="208.6"/>
<line class="st11" x1="559.3" y1="208.6" x2="615.9" y2="208.4"/>
<line class="st10" x1="478.3" y1="258.2" x2="455.4" y2="278.4"/>
<polygon class="st12" points="472.5,263.3 472.7,263.5 472.8,263.6 472.9,263.8 473,264 473.1,264.2 473.1,264.4 473.2,264.6 
	473.3,264.8 473.3,265 473.3,265.2 473.3,265.4 473.3,265.6 473.3,265.8 473.3,266 473.3,266.2 473.2,266.4 473.1,266.6 
	473.1,266.8 473,267 472.9,267.2 472.7,267.3 472.6,267.5 472.5,267.7 472.3,267.9 472.2,268 472,268.1 471.9,268.2 471.7,268.3 
	471.5,268.4 471.3,268.5 471.1,268.6 470.9,268.7 470.7,268.7 470.5,268.7 470.3,268.7 470.1,268.7 469.9,268.7 469.7,268.7 
	469.5,268.7 469.3,268.7 469.1,268.6 468.9,268.5 468.7,268.5 468.5,268.3 468.3,268.3 468.1,268.1 468,268 467.8,267.9 
	467.7,267.8 467.5,267.5 467.4,267.4 467.3,267.2 467.1,267 467.1,266.9 467,266.7 467,266.5 466.9,266.3 466.8,266.1 466.8,265.9 
	466.8,265.7 466.8,265.5 466.8,265.2 466.8,265 466.9,264.8 466.9,264.6 466.9,264.4 467,264.2 467.1,264 467.2,263.9 467.3,263.7 
	467.5,263.5 467.5,263.4 467.7,263.2 467.9,263 468,262.9 468.2,262.8 468.3,262.7 468.5,262.6 468.7,262.5 468.9,262.4 
	469.1,262.4 469.3,262.3 469.5,262.2 469.7,262.2 469.9,262.2 470.1,262.2 470.3,262.2 470.5,262.2 470.8,262.3 471,262.4 
	471.1,262.4 471.3,262.5 471.5,262.5 471.7,262.7 471.9,262.8 472.1,262.9 472.3,263 472.4,263.1 "/>
<polygon class="st12" points="459,270.8 464,266.5 468.3,271.4 463.4,275.7 "/>
<line class="st10" x1="548" y1="257" x2="525.1" y2="277.1"/>
<polygon class="st12" points="544.2,261.1 544.3,261.3 544.5,261.4 544.5,261.6 544.7,261.8 544.8,262 544.8,262.2 544.9,262.4 
	545,262.6 545,262.8 545,263 545,263.2 545,263.4 545,263.6 545,263.8 545,264 544.9,264.2 544.8,264.4 544.8,264.6 544.6,264.8 
	544.6,265 544.4,265.1 544.3,265.3 544.2,265.5 544,265.6 543.9,265.8 543.7,265.9 543.5,266 543.4,266.1 543.2,266.2 543,266.3 
	542.8,266.4 542.6,266.5 542.4,266.5 542.2,266.5 542,266.5 541.8,266.5 541.6,266.5 541.4,266.5 541.2,266.5 541,266.5 
	540.7,266.4 540.6,266.3 540.4,266.3 540.2,266.1 540,266.1 539.8,265.9 539.6,265.8 539.5,265.7 539.4,265.5 539.2,265.3 
	539.1,265.2 539,265 538.8,264.8 538.8,264.7 538.7,264.5 538.6,264.3 538.6,264.1 538.5,263.9 538.5,263.7 538.4,263.5 
	538.4,263.3 538.5,263 538.5,262.8 538.5,262.6 538.6,262.4 538.6,262.2 538.7,262 538.8,261.8 538.9,261.7 539,261.5 539.1,261.3 
	539.2,261.1 539.4,261 539.6,260.8 539.7,260.7 539.8,260.6 540,260.5 540.2,260.3 540.4,260.3 540.6,260.2 540.8,260.1 541,260.1 
	541.2,260 541.4,260 541.6,260 541.8,260 542,260 542.2,260 542.4,260.1 542.6,260.1 542.8,260.2 543,260.3 543.2,260.3 
	543.4,260.5 543.6,260.5 543.8,260.7 543.9,260.8 544.1,260.9 "/>
<polygon class="st12" points="530.7,268.6 535.7,264.3 540,269.2 535.1,273.5 "/>
<line class="st10" x1="450.5" y1="276.1" x2="450.4" y2="244.2"/>
<polygon class="st12" points="450.5,267.7 450.3,267.7 450.1,267.7 449.9,267.7 449.7,267.6 449.5,267.5 449.3,267.5 449.1,267.4 
	448.9,267.3 448.7,267.1 448.5,267.1 448.3,266.9 448.2,266.8 448.1,266.7 447.9,266.5 447.8,266.3 447.7,266.1 447.6,265.9 
	447.5,265.8 447.4,265.6 447.3,265.4 447.3,265.2 447.3,265 447.2,264.8 447.2,264.5 447.2,264.4 447.2,264.1 447.2,264 
	447.3,263.8 447.3,263.5 447.4,263.4 447.5,263.1 447.5,263 447.6,262.8 447.7,262.6 447.9,262.4 448,262.3 448.1,262.1 448.2,262 
	448.5,261.8 448.6,261.7 448.8,261.6 448.9,261.5 449.1,261.4 449.3,261.4 449.5,261.3 449.7,261.2 449.9,261.1 450.1,261.1 
	450.4,261.1 450.6,261.1 450.8,261.1 451,261.1 451.2,261.2 451.4,261.3 451.6,261.3 451.8,261.4 452,261.5 452.1,261.6 
	452.3,261.7 452.5,261.8 452.6,261.9 452.8,262.1 452.9,262.3 453,262.4 453.2,262.6 453.3,262.7 453.4,262.9 453.5,263.1 
	453.6,263.3 453.6,263.5 453.6,263.7 453.7,263.9 453.7,264.1 453.7,264.3 453.7,264.5 453.7,264.7 453.7,265 453.6,265.2 
	453.6,265.4 453.5,265.6 453.5,265.7 453.4,265.9 453.2,266.1 453.1,266.3 453,266.5 452.9,266.7 452.7,266.8 452.6,266.9 
	452.4,267.1 452.3,267.1 452.1,267.3 451.9,267.4 451.7,267.5 451.5,267.5 451.3,267.6 451.1,267.7 450.9,267.7 450.7,267.7 "/>
<polygon class="st12" points="453.7,252.6 453.7,259.1 447.2,259.2 447.2,252.6 "/>
<line class="st10" x1="520.2" y1="275.9" x2="520.1" y2="244"/>
<polygon class="st12" points="520.2,270.1 520,270.1 519.8,270.1 519.6,270.1 519.4,270 519.1,270 519,269.9 518.8,269.9 
	518.6,269.7 518.4,269.6 518.2,269.5 518,269.4 517.9,269.2 517.8,269.1 517.6,268.9 517.5,268.8 517.4,268.6 517.2,268.4 
	517.2,268.2 517.1,268.1 517,267.9 517,267.7 516.9,267.5 516.9,267.2 516.9,267 516.9,266.8 516.9,266.6 516.9,266.4 517,266.2 
	517,266 517,265.8 517.1,265.6 517.2,265.4 517.3,265.2 517.4,265.1 517.5,264.9 517.7,264.7 517.8,264.5 518,264.4 518.1,264.3 
	518.3,264.1 518.5,264.1 518.6,263.9 518.8,263.9 519,263.8 519.2,263.7 519.4,263.7 519.6,263.6 519.8,263.6 520,263.6 
	520.2,263.6 520.5,263.6 520.7,263.6 520.9,263.7 521.1,263.7 521.3,263.8 521.5,263.9 521.7,263.9 521.8,264.1 522,264.1 
	522.1,264.2 522.3,264.4 522.5,264.5 522.6,264.7 522.7,264.9 522.9,265 523,265.2 523.1,265.4 523.1,265.6 523.2,265.8 523.3,266 
	523.3,266.2 523.4,266.4 523.4,266.6 523.4,266.8 523.4,267 523.4,267.2 523.4,267.4 523.3,267.6 523.3,267.8 523.2,268 
	523.2,268.2 523,268.4 523,268.6 522.8,268.8 522.7,268.9 522.5,269.1 522.4,269.2 522.3,269.4 522.1,269.5 522,269.6 521.8,269.7 
	521.5,269.8 521.4,269.9 521.2,270 521,270 520.8,270.1 520.6,270.1 520.4,270.1 "/>
<polygon class="st12" points="523.4,255.1 523.4,261.6 516.9,261.6 516.9,255.1 "/>
<line class="st10" x1="598" y1="275.7" x2="598" y2="243.7"/>
<polygon class="st12" points="598,268.2 594.3,261.8 601.7,261.8 "/>
<polygon class="st12" points="598,252.2 598.2,252.2 598.4,252.2 598.6,252.2 598.8,252.2 599,252.3 599.2,252.4 599.4,252.4 
	599.6,252.6 599.8,252.6 599.9,252.8 600.1,252.9 600.2,253 600.4,253.2 600.5,253.4 600.6,253.5 600.8,253.7 600.8,253.9 601,254 
	601,254.2 601.1,254.4 601.2,254.6 601.2,254.8 601.2,255 601.2,255.2 601.2,255.5 601.2,255.7 601.2,255.9 601.2,256.1 
	601.2,256.3 601.1,256.5 601,256.7 600.9,256.9 600.8,257.1 600.7,257.2 600.6,257.4 600.5,257.6 600.3,257.7 600.2,257.9 600,258 
	599.8,258.2 599.7,258.2 599.5,258.4 599.3,258.4 599.1,258.5 598.9,258.6 598.7,258.6 598.5,258.6 598.3,258.7 598.1,258.7 
	597.9,258.7 597.7,258.7 597.5,258.6 597.3,258.6 597.1,258.6 596.9,258.5 596.7,258.4 596.5,258.4 596.3,258.2 596.1,258.2 
	596,258 595.8,257.9 595.7,257.7 595.5,257.6 595.4,257.5 595.3,257.2 595.1,257.1 595.1,256.9 595,256.7 594.9,256.5 594.8,256.3 
	594.8,256.1 594.7,255.9 594.7,255.7 594.7,255.5 594.7,255.3 594.7,255.1 594.7,254.9 594.8,254.7 594.8,254.5 594.9,254.3 
	595,254.1 595.1,253.9 595.2,253.7 595.3,253.5 595.5,253.4 595.6,253.2 595.7,253.1 595.8,252.9 596,252.8 596.2,252.7 
	596.4,252.6 596.6,252.5 596.8,252.4 597,252.3 597.2,252.3 597.4,252.2 597.6,252.2 597.8,252.2 "/>
<line class="st10" x1="671.8" y1="231.9" x2="687.8" y2="213.1"/>
<polygon class="st12" points="682,220.1 682.1,220.2 682.3,220.4 682.4,220.5 682.5,220.7 682.7,220.9 682.7,221 682.9,221.2 
	682.9,221.4 683,221.6 683.1,221.8 683.1,222 683.1,222.2 683.1,222.4 683.1,222.7 683.1,222.9 683.1,223.1 683.1,223.3 683,223.5 
	682.9,223.7 682.9,223.9 682.8,224.1 682.7,224.2 682.5,224.4 682.5,224.5 682.3,224.7 682.2,224.9 682,225 681.9,225.1 
	681.7,225.3 681.5,225.4 681.3,225.5 681.1,225.6 681,225.7 680.8,225.7 680.5,225.7 680.3,225.8 680.2,225.8 680,225.8 
	679.8,225.8 679.5,225.8 679.3,225.8 679.1,225.7 678.9,225.7 678.7,225.6 678.5,225.5 678.3,225.5 678.2,225.4 678,225.2 
	677.8,225.1 677.6,225 677.5,224.8 677.3,224.7 677.2,224.6 677.1,224.4 677,224.1 676.9,224 676.8,223.8 676.8,223.6 676.7,223.4 
	676.6,223.2 676.6,223 676.5,222.8 676.5,222.6 676.5,222.4 676.6,222.2 676.6,222 676.7,221.8 676.7,221.6 676.8,221.4 
	676.9,221.2 676.9,221 677.1,220.8 677.2,220.6 677.3,220.5 677.5,220.3 677.6,220.2 677.7,220 677.9,219.9 678.1,219.8 
	678.3,219.7 678.5,219.6 678.7,219.5 678.9,219.4 679.1,219.4 679.3,219.4 679.5,219.3 679.7,219.3 679.9,219.3 680.1,219.3 
	680.3,219.3 680.5,219.4 680.7,219.4 680.9,219.4 681.1,219.6 681.3,219.6 681.5,219.7 681.7,219.8 681.8,219.9 "/>
<line class="st10" x1="455.3" y1="233.3" x2="478.2" y2="213.1"/>
<polygon class="st12" points="461,228.2 460.9,228.1 460.8,227.9 460.7,227.7 460.6,227.5 460.5,227.3 460.5,227.1 460.4,226.9 
	460.3,226.7 460.3,226.5 460.2,226.3 460.2,226.1 460.2,225.9 460.2,225.7 460.3,225.5 460.3,225.3 460.4,225.1 460.4,224.9 
	460.6,224.7 460.6,224.5 460.7,224.3 460.8,224.1 461,224 461.1,223.8 461.2,223.7 461.4,223.5 461.6,223.4 461.7,223.3 
	461.9,223.1 462.1,223.1 462.3,223 462.5,222.9 462.7,222.9 462.9,222.8 463.1,222.8 463.3,222.7 463.5,222.7 463.7,222.7 
	463.9,222.7 464.1,222.8 464.4,222.9 464.6,222.9 464.8,223 464.9,223.1 465.1,223.1 465.3,223.3 465.4,223.4 465.6,223.5 
	465.8,223.7 465.9,223.8 466.1,223.9 466.2,224.1 466.3,224.3 466.4,224.5 466.5,224.7 466.6,224.9 466.6,225.1 466.7,225.3 
	466.8,225.5 466.8,225.7 466.8,225.9 466.8,226.1 466.8,226.2 466.8,226.4 466.8,226.6 466.7,226.9 466.6,227.1 466.6,227.2 
	466.5,227.4 466.4,227.6 466.3,227.9 466.2,228 466,228.2 465.9,228.3 465.7,228.4 465.6,228.6 465.4,228.7 465.2,228.9 465,228.9 
	464.8,229.1 464.7,229.1 464.4,229.2 464.2,229.2 464,229.2 463.9,229.3 463.6,229.3 463.5,229.3 463.2,229.3 463,229.3 
	462.9,229.3 462.6,229.2 462.5,229.1 462.2,229.1 462,228.9 461.9,228.9 461.7,228.7 461.5,228.6 461.4,228.5 461.2,228.3 "/>
<polygon class="st12" points="474.5,220.7 469.6,225.1 465.3,220.1 470.2,215.7 "/>
<line class="st10" x1="525" y1="233.1" x2="547.8" y2="212.9"/>
<polygon class="st12" points="530.7,228 530.6,227.9 530.5,227.7 530.4,227.5 530.3,227.3 530.2,227.1 530.1,226.9 530.1,226.7 
	530,226.5 529.9,226.3 529.9,226.1 529.9,225.9 529.9,225.7 529.9,225.5 530,225.3 530,225.1 530.1,224.9 530.1,224.7 530.2,224.5 
	530.3,224.3 530.4,224.1 530.5,223.9 530.7,223.8 530.8,223.6 530.9,223.5 531.1,223.3 531.2,223.2 531.4,223.1 531.6,222.9 
	531.8,222.9 532,222.8 532.2,222.7 532.4,222.7 532.6,222.6 532.8,222.6 533,222.5 533.2,222.5 533.4,222.5 533.6,222.5 
	533.8,222.6 534,222.7 534.2,222.7 534.4,222.8 534.6,222.9 534.8,222.9 535,223.1 535.1,223.2 535.3,223.2 535.5,223.4 
	535.6,223.6 535.7,223.7 535.8,223.9 536,224.1 536.1,224.2 536.2,224.4 536.2,224.6 536.3,224.9 536.4,225 536.5,225.2 
	536.5,225.4 536.5,225.6 536.5,225.8 536.5,226 536.5,226.2 536.4,226.4 536.4,226.6 536.3,226.8 536.2,227 536.2,227.2 
	536.1,227.4 535.9,227.6 535.9,227.8 535.7,228 535.5,228.1 535.4,228.2 535.3,228.4 535.1,228.5 534.9,228.6 534.7,228.7 
	534.5,228.8 534.3,228.9 534.1,229 533.9,229 533.7,229 533.5,229.1 533.3,229.1 533.1,229.1 532.9,229.1 532.7,229.1 532.5,229.1 
	532.3,229 532.1,228.9 531.9,228.9 531.7,228.7 531.5,228.6 531.3,228.5 531.2,228.4 531.1,228.2 530.9,228.1 "/>
<path class="st12" d="M544.2,220.5c-5.6,5.1-4.3,5.2-9.2-0.6C540.6,214.8,539.3,214.7,544.2,220.5z"/>
<line class="st10" x1="747.4" y1="197.5" x2="726.8" y2="189.9"/>
<polygon class="st12" points="744.2,196.4 744.2,196.6 744,196.7 744,196.9 743.8,197.1 743.7,197.2 743.6,197.4 743.4,197.6 
	743.3,197.7 743.1,197.8 742.9,197.9 742.8,198 742.6,198.1 742.4,198.2 742.2,198.3 742,198.4 741.8,198.4 741.6,198.4 
	741.4,198.4 741.2,198.5 741,198.4 740.8,198.4 740.6,198.4 740.3,198.4 740.2,198.3 740,198.2 739.8,198.2 739.6,198 739.4,198 
	739.2,197.8 739,197.7 738.9,197.6 738.8,197.4 738.6,197.3 738.5,197.1 738.4,197 738.2,196.8 738.2,196.6 738.1,196.4 738,196.2 
	738,196 737.9,195.8 737.9,195.6 737.8,195.4 737.8,195.2 737.8,195 737.9,194.8 737.9,194.6 738,194.3 738,194.2 738.1,194 
	738.2,193.8 738.3,193.6 738.4,193.4 738.5,193.2 738.6,193 738.8,192.9 738.9,192.8 739.1,192.6 739.2,192.5 739.4,192.4 
	739.6,192.3 739.8,192.2 740,192.1 740.2,192 740.4,192 740.6,192 740.8,191.9 741,191.9 741.2,191.9 741.4,191.9 741.6,192 
	741.8,192 742,192 742.2,192.1 742.4,192.2 742.6,192.2 742.8,192.4 743,192.4 743.2,192.6 743.3,192.7 743.5,192.9 743.6,193 
	743.8,193.2 743.9,193.4 744,193.5 744.1,193.7 744.2,193.9 744.2,194.1 744.3,194.3 744.4,194.5 744.4,194.7 744.4,194.9 
	744.4,195.1 744.4,195.3 744.4,195.5 744.4,195.8 744.4,195.9 744.3,196.1 "/>
<polygon class="st12" points="729.2,190.8 736.4,189.5 733.8,196.4 "/>
<line class="st10" x1="735.8" y1="216.9" x2="714.1" y2="203.4"/>
<polygon class="st12" points="732.1,214.6 724.7,214.4 728.6,208.1 "/>
<polygon class="st12" points="718.5,206.1 718.6,206 718.7,205.8 718.8,205.7 719,205.5 719.2,205.3 719.3,205.3 719.5,205.1 
	719.7,205 719.8,204.9 720,204.9 720.2,204.7 720.5,204.7 720.7,204.7 720.8,204.6 721,204.6 721.3,204.6 721.5,204.6 721.7,204.7 
	721.9,204.7 722.1,204.7 722.3,204.8 722.5,204.9 722.7,204.9 722.8,205 723,205.1 723.2,205.3 723.4,205.4 723.5,205.5 
	723.7,205.7 723.8,205.8 724,206 724,206.2 724.2,206.3 724.2,206.5 724.3,206.7 724.4,206.9 724.4,207.1 724.5,207.3 724.5,207.5 
	724.6,207.7 724.6,207.9 724.5,208.1 724.5,208.3 724.5,208.6 724.5,208.8 724.4,209 724.3,209.1 724.2,209.3 724.1,209.5 
	724,209.7 723.8,209.9 723.7,210.1 723.6,210.2 723.5,210.3 723.3,210.4 723.1,210.6 723,210.7 722.8,210.8 722.6,210.9 722.4,211 
	722.2,211.1 722,211.1 721.8,211.1 721.6,211.1 721.4,211.2 721.2,211.2 721,211.1 720.7,211.1 720.5,211.1 720.3,211.1 720.1,211 
	719.9,210.9 719.8,210.8 719.6,210.7 719.4,210.6 719.3,210.5 719.1,210.3 718.9,210.2 718.8,210 718.7,209.9 718.5,209.7 
	718.4,209.5 718.3,209.3 718.3,209.1 718.2,208.9 718.1,208.7 718.1,208.5 718.1,208.3 718,208.1 718,207.9 718,207.7 718,207.5 
	718.1,207.3 718.1,207.1 718.1,206.9 718.2,206.7 718.3,206.5 718.4,206.3 "/>
<line class="st10" x1="688" y1="258.2" x2="672" y2="277"/>
<polygon class="st12" points="677.9,270.2 677.7,270 677.5,269.8 677.4,269.7 677.3,269.5 677.2,269.4 677.1,269.2 677,269 
	676.9,268.8 676.8,268.6 676.8,268.4 676.8,268.2 676.8,268 676.7,267.8 676.7,267.6 676.8,267.4 676.8,267.2 676.8,267 
	676.8,266.8 676.9,266.6 677,266.4 677.1,266.2 677.1,266 677.3,265.8 677.4,265.6 677.5,265.5 677.7,265.3 677.8,265.2 678,265 
	678.1,264.9 678.3,264.8 678.5,264.7 678.7,264.6 678.9,264.6 679.1,264.5 679.3,264.4 679.5,264.4 679.7,264.4 679.9,264.4 
	680.1,264.4 680.3,264.4 680.5,264.4 680.7,264.4 680.9,264.5 681.1,264.6 681.3,264.6 681.5,264.8 681.7,264.8 681.9,265 
	682.1,265.1 682.2,265.2 682.3,265.4 682.5,265.5 682.6,265.7 682.7,265.8 682.9,266 682.9,266.2 683,266.4 683.1,266.6 
	683.1,266.8 683.2,267 683.3,267.2 683.3,267.4 683.3,267.6 683.3,267.8 683.3,268 683.2,268.2 683.2,268.4 683.1,268.6 
	683.1,268.8 682.9,269 682.9,269.2 682.7,269.4 682.6,269.5 682.5,269.8 682.4,269.9 682.2,270 682.1,270.1 682,270.3 681.8,270.4 
	681.5,270.5 681.3,270.6 681.2,270.7 681,270.8 680.8,270.8 680.6,270.9 680.3,270.9 680.2,270.9 680,271 679.8,270.9 679.5,270.9 
	679.3,270.9 679.2,270.8 679,270.8 678.8,270.7 678.5,270.6 678.4,270.5 678.2,270.4 678,270.3 "/>
<line class="st10" x1="624.7" y1="257.4" x2="645.2" y2="297.9"/>
<line class="st10" x1="661" y1="230.9" x2="638.1" y2="197.9"/>
<line class="st10" x1="719" y1="180.4" x2="709.5" y2="152.5"/>
<line class="st11" x1="405.4" y1="306.8" x2="444.4" y2="286.5"/>
<ellipse transform="matrix(1 -2.967042e-03 2.967042e-03 1 -0.7563 1.188)" class="st14" cx="400" cy="255.5" rx="18" ry="38.5"/>
<text transform="matrix(-2.967024e-03 -1 1 -2.967024e-03 406.89 282.0598)" class="st6 st15">DFHO</text>
<text transform="matrix(1 0 0 1 19.72 116.95)" class="st6 st16">5</text>
<text transform="matrix(1 -2.967055e-03 2.967055e-03 1 33.02 116.96)" class="st6 st16 st17">’</text>
<text transform="matrix(1 0 0 1 56.99 116.84)" class="st6 st16">3</text>
<text transform="matrix(1 -2.967055e-03 2.967055e-03 1 70.29 116.85)" class="st6 st16 st17">’</text>
<text transform="matrix(1 0 0 1 769.06 83.64)" class="st6 st16">5</text>
<text transform="matrix(1 -2.967055e-03 2.967055e-03 1 782.35 83.65)" class="st6 st16 st17">’</text>
<text transform="matrix(1 0 0 1 731.61 83.75)" class="st6 st16">3</text>
<text transform="matrix(1 -2.967055e-03 2.967055e-03 1 744.91 83.77)" class="st6 st16 st17">’</text>
<text transform="matrix(1 0 0 1 11.13 136.94)" class="st6 st18">1</text>
<text transform="matrix(1 0 0 1 67.97 135.15)" class="st6 st18">36</text>
<text transform="matrix(1 0 0 1 780.4 102.38)" class="st6 st18">1</text>
<text transform="matrix(1 0 0 1 716.91 103.62)" class="st6 st18">36</text>
<text transform="matrix(1 0 0 1 267.33 97.27)" class="st6 st19">Corn aptamer</text>
<path class="st20" d="M279.5,273.8l0.1,31.8c0,1.9-1.7,1.9-3.9,0l-16.6-15.3c-2.1-2-3.9-5.1-3.9-7l-0.1-31.8c0-1.9,1.7-1.9,3.9,0
	l16.6,15.3C277.7,268.6,279.5,271.8,279.5,273.8z"/>
<path class="st21" d="M134.8,277.5l0.1,30.6c0,1.9-1.5,1.6-3.3-0.5l-14.5-17c-1.9-2.2-3.3-5.4-3.3-7.3l-0.1-30.6
	c0-1.9,1.5-1.6,3.3,0.5l14.5,17C133.3,272.4,134.8,275.6,134.8,277.5z"/>
<path class="st21" d="M669.8,243.6l0.1,26.2c0,1.6,1.5,1.2,3.3-0.9l14.4-16.3c1.9-2.1,3.3-5.1,3.3-6.7l-0.1-26.2
	c0-1.6-1.5-1.2-3.3,0.9l-14.4,16.3C671.3,239.1,669.8,242,669.8,243.6z"/>
<path class="st21" d="M202.5,274.9l0.1,30.6c0,1.9-1.1,1.6-2.5-0.5l-11-17c-1.4-2.2-2.3-4.7-2.6-7.3l-0.1-30.6
	c0-1.9,1.1-1.6,2.5,0.5l11,17C201.3,269.8,202.2,272.3,202.5,274.9z"/>
<path class="st21" d="M601.8,242.5l0.1,30.6c0,1.9,1.1,1.6,2.5-0.5l10.9-17.1c1.4-2.2,2.3-4.7,2.5-7.3l-0.1-30.6
	c0-1.9-1.1-1.6-2.5,0.5l-10.9,17.1C602.9,237.4,602,239.9,601.8,242.5z"/>
<path class="st20" d="M347.8,272.1l0.1,31.8c0,1.9-1.7,1.9-3.8,0l-16.6-15.3c-2.1-2-3.8-5.1-3.8-7l-0.1-31.8c0-1.9,1.7-1.9,3.8,0.1
	l16.6,15.3C346.1,267,347.8,270.1,347.8,272.1z"/>
<path class="st20" d="M478.6,250.9l1.4-31.8c0.1-1.9-1.6-2-3.8-0.1L459,233.7c-2.2,1.9-4,4.9-4.1,6.9l-1.4,31.8
	c-0.1,1.9,1.6,2,3.8,0.1l17.2-14.6C476.6,256,478.5,252.9,478.6,250.9z"/>
<path class="st20" d="M547.8,250.7l1.4-31.8c0.1-1.9-1.6-2-3.8-0.1l-17.2,14.6c-2.2,1.9-4,4.9-4.1,6.9l-1.4,31.8
	c-0.1,1.9,1.6,2,3.8,0.1l17.2-14.6C545.9,255.7,547.8,252.7,547.8,250.7z"/>
</svg>
