<svg id="图层_1" data-name="图层 1" xmlns="http://www.w3.org/2000/svg" viewBox="0 0 800 400">
  <defs>
    <style>
      .cls-1, .cls-10, .cls-11, .cls-17, .cls-2, .cls-23, .cls-24, .cls-25, .cls-26, .cls-27, .cls-28, .cls-29, .cls-3, .cls-5, .cls-6, .cls-7, .cls-8, .cls-9 {
        isolation: isolate;
      }

      .cls-1, .cls-10, .cls-11, .cls-18, .cls-19, .cls-2, .cls-20, .cls-3, .cls-4, .cls-5, .cls-6, .cls-7, .cls-8, .cls-9 {
        font-size: 16.96px;
      }

      .cls-1, .cls-17 {
        fill: #00b1e9;
      }

      .cls-1, .cls-10, .cls-11, .cls-17, .cls-18, .cls-19, .cls-2, .cls-20, .cls-23, .cls-24, .cls-25, .cls-26, .cls-27, .cls-3, .cls-4, .cls-5, .cls-6, .cls-7, .cls-8, .cls-9 {
        font-family: ArialMT, Arial;
      }

      .cls-14, .cls-18, .cls-2, .cls-3, .cls-4 {
        fill: #7b68ee;
      }

      .cls-10, .cls-18, .cls-19, .cls-3, .cls-6, .cls-8 {
        letter-spacing: -0.17em;
      }

      .cls-4 {
        letter-spacing: -0.12em;
      }

      .cls-5, .cls-6 {
        fill: #e59b25;
      }

      .cls-8 {
        fill: #f800ff;
      }

      .cls-20, .cls-9 {
        fill: lime;
      }

      .cls-10, .cls-11, .cls-19 {
        fill: #999;
      }

      .cls-12, .cls-13, .cls-16, .cls-21 {
        fill: none;
      }

      .cls-12, .cls-13, .cls-14, .cls-15, .cls-16, .cls-21 {
        stroke: #000;
      }

      .cls-12, .cls-15, .cls-16, .cls-21 {
        stroke-miterlimit: 1.9;
      }

      .cls-12, .cls-15 {
        stroke-width: 0.24px;
      }

      .cls-13, .cls-14 {
        stroke-miterlimit: 10;
      }

      .cls-13, .cls-14, .cls-16 {
        stroke-width: 0.25px;
      }

      .cls-17 {
        font-size: 16.59px;
      }

      .cls-21 {
        stroke-width: 0.5px;
      }

      .cls-22 {
        fill: #ff0;
      }

      .cls-23 {
        font-size: 20.17px;
      }

      .cls-24, .cls-25 {
        font-size: 20px;
      }

      .cls-25 {
        letter-spacing: -0.16em;
      }

      .cls-26 {
        font-size: 15.96px;
      }

      .cls-27 {
        font-size: 15px;
      }

      .cls-28 {
        fill: #6f6;
        opacity: 0.5;
      }

      .cls-29 {
        fill: #f93;
        opacity: 0.3;
      }
    </style>
  </defs>
  <text class="cls-1" transform="translate(21.5 136.83)">G</text>
  <text class="cls-1" transform="translate(21.55 153.22)">G</text>
  <text class="cls-1" transform="translate(22.08 169.61)">C</text>
  <text class="cls-1" transform="translate(21.65 186.01)">G</text>
  <text class="cls-1" transform="translate(22.18 202.4)">C</text>
  <text class="cls-2" transform="translate(28.59 223.1)">G</text>
  <text class="cls-3" transform="translate(42.82 239.26)">A</text>
  <text class="cls-4" transform="translate(54.67 259.68)">G</text>
  <text class="cls-5" transform="translate(103.95 292.32)">G</text>
  <text class="cls-6" transform="translate(174.13 292.15)">A</text>
  <text class="cls-7" transform="translate(148.83 344.47)">10</text>
  <text class="cls-8" transform="translate(365.08 280.53)">A</text>
  <text class="cls-9" transform="translate(312.97 291.69)">G</text>
  <text class="cls-9" transform="translate(243.29 291.9)">G</text>
  <text class="cls-10" transform="translate(304.12 348.47)">A</text>
  <text class="cls-9" transform="translate(345.85 320.27)">G</text>
  <text class="cls-9" transform="translate(276.17 320.48)">G</text>
  <text class="cls-5" transform="translate(197.44 320.73)">U</text>
  <text class="cls-5" transform="translate(128.43 320.94)">C</text>
  <text class="cls-11" transform="translate(96.01 222.67)">U</text>
  <text class="cls-5" transform="translate(127.82 275.85)">G</text>
  <text class="cls-7" transform="translate(155.49 229.59)">20</text>
  <text class="cls-6" transform="translate(198.67 275.68)">A</text>
  <text class="cls-9" transform="translate(345.71 275.19)">G</text>
  <text class="cls-9" transform="translate(276.04 275.4)">G</text>
  <text class="cls-8" transform="translate(382.88 211.86)">A</text>
  <text class="cls-9" transform="translate(312.83 246.6)">G</text>
  <text class="cls-9" transform="translate(243.16 246.81)">G</text>
  <text class="cls-5" transform="translate(175.06 248.1)">U</text>
  <text class="cls-5" transform="translate(104.28 247.24)">C</text>
  <text class="cls-3" transform="translate(87.24 239.79)">A</text>
  <text class="cls-2" transform="translate(75.53 226.83)">C</text>
  <text class="cls-7" transform="translate(83.98 184.76)">30</text>
  <text class="cls-2" transform="translate(63.2 214.57)">U</text>
  <text class="cls-1" transform="translate(54.49 202.3)">G</text>
  <text class="cls-1" transform="translate(54.92 185.91)">C</text>
  <text class="cls-1" transform="translate(54.39 169.51)">G</text>
  <text class="cls-1" transform="translate(54.82 153.12)">C</text>
  <text class="cls-1" transform="translate(54.77 136.73)">C</text>
  <line class="cls-12" x1="34.4" y1="130.8" x2="54.1" y2="130.7"/>
  <line class="cls-12" x1="34.4" y1="147.1" x2="54.1" y2="147.1"/>
  <line class="cls-12" x1="34.5" y1="163.5" x2="54.2" y2="163.5"/>
  <line class="cls-12" x1="34.5" y1="179.9" x2="54.2" y2="179.8"/>
  <line class="cls-12" x1="34.6" y1="196.3" x2="54.3" y2="196.2"/>
  <line class="cls-13" x1="198.1" y1="314.6" x2="141.5" y2="314.8"/>
  <polyline class="cls-13" points="128.4 314.9 102.2 314.9 101.9 223.2"/>
  <line class="cls-13" x1="173.2" y1="241" x2="116.6" y2="241.1"/>
  <line class="cls-14" x1="66.4" y1="257.2" x2="104.8" y2="282.6"/>
  <polygon class="cls-15" points="81.7 263.1 82.4 265.7 83.7 267.4 85.3 268.8 88.2 271.8 84.3 270.3 82.4 269.5 80.3 268.8 77.6 269.2 81.7 263.1"/>
  <polygon class="cls-15" points="159.8 266 161.9 267.9 163.9 268.5 166 268.7 170.1 269.6 166 270.6 163.9 270.9 161.9 271.5 159.9 273.4 159.8 266"/>
  <polygon class="cls-15" points="151.5 244.5 149.5 242.6 147.4 242.1 145.4 241.8 141.2 240.9 145.4 239.9 147.4 239.6 149.4 239 151.5 237.1 151.5 244.5"/>
  <polygon class="cls-15" points="228.3 244.5 226.2 242.7 224.2 242.1 222.1 241.9 218 241 222.1 240 224.2 239.7 226.1 239.1 228.1 237.1 228.3 244.5"/>
  <polygon class="cls-15" points="141.5 282.5 143.5 284.4 145.6 285 147.6 285.3 151.7 286.3 147.6 287.1 145.5 287.4 143.4 288 141.4 289.8 141.5 282.5"/>
  <polygon class="cls-15" points="138.3 224.6 136.4 226.5 135.7 228.5 135.4 230.6 134.2 234.6 133.5 230.5 133.3 228.5 132.8 226.4 130.9 224.3 138.3 224.6"/>
  <polygon class="cls-15" points="266.7 351.7 268.7 353.5 270.8 354.1 272.9 354.5 276.9 355.4 272.9 356.2 270.8 356.6 268.7 357.2 266.8 359.1 266.7 351.7"/>
  <polygon class="cls-15" points="271.7 339.4 273.8 341.3 275.9 341.9 277.9 342.2 282 343 277.9 344 275.9 344.3 273.8 344.9 271.8 346.8 271.7 339.4"/>
  <polygon class="cls-15" points="120.4 318.6 118.3 316.8 116.3 316.2 114.2 316 110.1 315.1 114.1 314.1 116.2 313.8 118.2 313.1 120.2 311.2 120.4 318.6"/>
  <polygon class="cls-15" points="321.7 319.3 319.6 317.4 317.5 316.8 315.5 316.5 311.4 315.7 315.5 314.7 317.5 314.4 319.5 313.8 321.6 311.9 321.7 319.3"/>
  <polygon class="cls-15" points="345.6 282.3 343.2 281 341 280.9 339 281.1 334.8 281.2 338.5 279.3 340.5 278.5 342.3 277.4 343.8 275.2 345.6 282.3"/>
  <polygon class="cls-15" points="361 221.1 358.3 220.6 356.2 221.1 354.3 221.9 350.3 223.2 353.4 220.4 355 219 356.4 217.4 357.2 214.8 361 221.1"/>
  <polygon class="cls-15" points="324.1 329.3 326.8 329.6 328.8 328.9 330.7 327.9 334.5 326.3 331.8 329.5 330.2 330.9 329 332.6 328.4 335.3 324.1 329.3"/>
  <polygon class="cls-15" points="319.4 272.9 317.3 271.1 315.3 270.5 313.2 270.2 309.1 269.4 313.2 268.4 315.2 268 317.3 267.4 319.3 265.5 319.4 272.9"/>
  <polygon class="cls-15" points="301.7 244.3 299.6 242.5 297.6 241.9 295.5 241.6 291.5 240.8 295.5 239.8 297.6 239.5 299.6 238.8 301.6 236.9 301.7 244.3"/>
  <polygon class="cls-15" points="302.4 289.3 300.3 287.5 298.2 286.9 296.2 286.7 292.1 285.8 296.2 284.8 298.2 284.5 300.3 283.8 302.3 282 302.4 289.3"/>
  <polygon class="cls-15" points="269.9 318.1 267.8 316.4 265.7 315.8 263.6 315.6 259.5 314.9 263.5 313.8 265.5 313.4 267.5 312.7 269.5 310.8 269.9 318.1"/>
  <polygon class="cls-15" points="192.8 318.4 190.7 316.5 188.6 315.9 186.6 315.6 182.5 314.7 186.6 313.8 188.6 313.5 190.7 312.9 192.7 311 192.8 318.4"/>
  <polygon class="cls-15" points="232.9 212.5 235.1 214.3 237.1 214.9 239.1 215.2 243.2 216 239.2 217 237.1 217.4 235.1 218 233.1 219.9 232.9 212.5"/>
  <polygon class="cls-15" points="278.5 232 280.3 229.9 280.8 227.8 281 225.8 281.8 221.6 282.8 225.7 283.2 227.7 284 229.7 285.9 231.7 278.5 232"/>
  <line class="cls-13" x1="116.8" y1="286.2" x2="173.4" y2="286.1"/>
  <polyline class="cls-16" points="180.2 355.7 372.7 355.1 372.5 279.4"/>
  <line class="cls-16" x1="180" y1="290" x2="180.2" y2="355.7"/>
  <line class="cls-16" x1="364.8" y1="274.8" x2="325.4" y2="283.3"/>
  <line class="cls-16" x1="312.7" y1="285.6" x2="256.1" y2="285.8"/>
  <polyline class="cls-16" points="249.6 292.4 249.7 343.2 304.7 343"/>
  <line class="cls-16" x1="342.6" y1="316.2" x2="286" y2="316.4"/>
  <line class="cls-16" x1="275.9" y1="314.4" x2="211.1" y2="314.6"/>
  <polyline class="cls-13" points="108.4 216.8 134.6 217.3 134.8 263.2"/>
  <line class="cls-13" x1="141.3" y1="269.7" x2="197.9" y2="269.6"/>
  <polyline class="cls-16" points="204.4 263 204.3 216.3 331.4 215.9 349.6 263"/>
  <line class="cls-16" x1="345.5" y1="269.1" x2="288.9" y2="269.3"/>
  <polyline class="cls-16" points="282.3 262.8 282.1 203.7 378 203.4"/>
  <line class="cls-16" x1="378.9" y1="206.7" x2="324.8" y2="237.3"/>
  <line class="cls-16" x1="312.6" y1="240.6" x2="256" y2="240.7"/>
  <line class="cls-16" x1="242.9" y1="240.8" x2="187" y2="240.9"/>
  <line class="cls-12" x1="324.2" y1="289.9" x2="347.2" y2="309.9"/>
  <polygon class="cls-15" points="330 295 329.9 295.1 329.8 295.3 329.7 295.4 329.5 295.6 329.5 295.8 329.4 296 329.3 296.2 329.3 296.4 329.3 296.6 329.2 296.8 329.2 297 329.2 297.3 329.2 297.5 329.3 297.7 329.3 297.9 329.3 298.1 329.4 298.3 329.5 298.5 329.6 298.6 329.7 298.8 329.8 299 329.9 299.1 330.1 299.4 330.2 299.5 330.4 299.6 330.5 299.8 330.7 299.9 330.9 299.9 331.1 300.1 331.3 300.1 331.5 300.2 331.7 300.3 331.9 300.3 332.1 300.3 332.3 300.4 332.5 300.4 332.7 300.4 332.9 300.3 333.1 300.3 333.3 300.3 333.5 300.2 333.7 300.1 333.9 300.1 334.1 300 334.3 299.9 334.5 299.7 334.6 299.6 334.7 299.5 334.9 299.3 335.1 299.2 335.1 299 335.2 298.9 335.4 298.7 335.5 298.5 335.6 298.3 335.6 298.1 335.6 297.9 335.7 297.7 335.8 297.5 335.8 297.3 335.8 297.1 335.8 296.9 335.7 296.7 335.7 296.5 335.6 296.3 335.6 296 335.5 295.9 335.4 295.7 335.3 295.5 335.2 295.3 335.1 295.1 335 295 334.8 294.8 334.6 294.7 334.5 294.5 334.4 294.4 334.2 294.3 334 294.2 333.8 294.1 333.6 294 333.4 294 333.2 293.9 333 293.9 332.8 293.8 332.6 293.8 332.4 293.8 332.2 293.8 332 293.9 331.8 293.9 331.6 294 331.4 294 331.2 294.1 331 294.2 330.8 294.3 330.6 294.4 330.5 294.6 330.3 294.6 330.1 294.8 330 295"/>
  <polygon class="cls-15" points="343.6 302.4 338.6 298.1 334.3 303 339.3 307.3 343.6 302.4"/>
  <line class="cls-12" x1="254.6" y1="290.1" x2="277.5" y2="310.1"/>
  <polygon class="cls-15" points="260.4 295.2 260.2 295.3 260.1 295.5 260 295.6 259.9 295.8 259.8 296 259.7 296.2 259.6 296.4 259.6 296.6 259.6 296.8 259.6 297 259.5 297.2 259.5 297.5 259.6 297.7 259.6 297.9 259.6 298.1 259.6 298.3 259.7 298.5 259.9 298.7 259.9 298.8 260 299 260.1 299.2 260.2 299.4 260.4 299.6 260.6 299.7 260.7 299.8 260.9 300 261 300.1 261.2 300.2 261.4 300.3 261.6 300.4 261.8 300.4 262 300.5 262.2 300.5 262.4 300.5 262.6 300.6 262.8 300.6 263 300.6 263.2 300.5 263.4 300.5 263.6 300.5 263.8 300.4 264 300.4 264.2 300.3 264.4 300.2 264.6 300.1 264.8 300 264.9 299.8 265 299.7 265.2 299.5 265.4 299.4 265.5 299.2 265.6 299.1 265.7 298.9 265.8 298.7 265.9 298.5 266 298.3 266 298.1 266 297.9 266.1 297.7 266.1 297.5 266.1 297.3 266.1 297.1 266 296.9 266 296.7 266 296.5 265.9 296.2 265.8 296.1 265.8 295.9 265.6 295.7 265.6 295.5 265.4 295.4 265.3 295.2 265.2 295 265 294.9 264.8 294.8 264.7 294.6 264.5 294.5 264.3 294.4 264.2 294.3 264 294.2 263.8 294.2 263.6 294.1 263.4 294.1 263.2 294 263 294 262.7 294 262.5 294 262.3 294.1 262.1 294.1 261.9 294.2 261.7 294.2 261.5 294.3 261.3 294.4 261.2 294.5 261 294.6 260.8 294.8 260.6 294.8 260.5 295 260.4 295.2"/>
  <polygon class="cls-15" points="273.9 302.6 269 298.3 264.6 303.2 269.6 307.5 273.9 302.6"/>
  <line class="cls-12" x1="352.1" y1="307.7" x2="352" y2="275.7"/>
  <polygon class="cls-15" points="352.1 299.2 352.3 299.2 352.5 299.1 352.7 299.1 352.9 299.1 353.1 299 353.3 299 353.5 298.9 353.7 298.8 353.9 298.7 354.1 298.5 354.2 298.4 354.3 298.3 354.5 298.1 354.6 297.9 354.7 297.8 354.9 297.6 355 297.5 355.1 297.3 355.1 297.1 355.2 296.9 355.3 296.7 355.3 296.5 355.3 296.3 355.4 296.1 355.4 295.9 355.3 295.6 355.3 295.4 355.3 295.2 355.3 295 355.2 294.8 355.1 294.6 355 294.5 354.9 294.3 354.8 294.1 354.7 294 354.6 293.8 354.4 293.6 354.3 293.5 354.1 293.4 353.9 293.2 353.8 293.1 353.6 293 353.4 292.9 353.2 292.8 353 292.8 352.8 292.7 352.6 292.7 352.4 292.6 352.2 292.6 352 292.6 351.8 292.6 351.5 292.7 351.3 292.7 351.1 292.8 350.9 292.8 350.7 292.9 350.6 293 350.4 293.1 350.2 293.2 350.1 293.4 349.9 293.5 349.7 293.6 349.6 293.8 349.5 294 349.3 294.1 349.3 294.3 349.1 294.5 349.1 294.6 349 294.8 348.9 295 348.9 295.2 348.8 295.4 348.8 295.6 348.8 295.9 348.8 296.1 348.8 296.3 348.9 296.5 348.9 296.7 349 296.9 349 297.1 349.1 297.3 349.2 297.5 349.3 297.6 349.4 297.8 349.5 298 349.7 298.2 349.8 298.3 350 298.4 350.1 298.6 350.4 298.7 350.5 298.8 350.7 298.9 350.9 299 351.1 299 351.3 299.1 351.5 299.1 351.7 299.1 351.9 299.2 352.1 299.2"/>
  <polygon class="cls-15" points="348.8 284.1 348.8 290.7 355.4 290.7 355.4 284.1 348.8 284.1"/>
  <line class="cls-12" x1="282.4" y1="307.9" x2="282.3" y2="275.9"/>
  <polygon class="cls-15" points="282.4 299.4 282.7 299.4 282.9 299.4 283.1 299.4 283.3 299.3 283.5 299.2 283.6 299.2 283.9 299.1 284 299 284.2 298.9 284.4 298.8 284.5 298.6 284.6 298.5 284.9 298.4 285 298.2 285.1 298 285.2 297.8 285.3 297.7 285.4 297.5 285.5 297.3 285.6 297.1 285.6 296.9 285.6 296.7 285.6 296.5 285.7 296.3 285.7 296.1 285.7 295.8 285.6 295.6 285.6 295.4 285.6 295.2 285.5 295 285.4 294.8 285.4 294.7 285.2 294.5 285.2 294.3 285 294.2 284.9 294 284.8 293.8 284.6 293.7 284.4 293.6 284.2 293.4 284.1 293.3 283.9 293.2 283.7 293.1 283.5 293 283.3 293 283.1 292.9 282.9 292.9 282.7 292.8 282.5 292.8 282.3 292.9 282.1 292.9 281.9 292.9 281.7 292.9 281.5 293 281.3 293 281.1 293.1 280.9 293.2 280.7 293.3 280.6 293.5 280.4 293.6 280.2 293.7 280 293.9 279.9 294 279.8 294.2 279.6 294.3 279.6 294.5 279.5 294.7 279.4 294.9 279.3 295 279.2 295.2 279.2 295.5 279.2 295.6 279.1 295.9 279.1 296.1 279.1 296.3 279.2 296.5 279.2 296.7 279.3 296.9 279.3 297.1 279.3 297.3 279.5 297.5 279.5 297.7 279.7 297.8 279.7 298 279.9 298.2 280 298.4 280.1 298.5 280.3 298.6 280.5 298.8 280.7 298.9 280.9 299 281 299.1 281.2 299.2 281.4 299.2 281.6 299.3 281.8 299.4 282 299.4 282.2 299.4 282.4 299.4"/>
  <polygon class="cls-15" points="279.1 284.3 279.1 290.9 285.7 290.9 285.7 284.3 279.1 284.3"/>
  <line class="cls-12" x1="204.6" y1="308.1" x2="204.4" y2="276.1"/>
  <polygon class="cls-15" points="204.5 300.7 208.2 294.2 200.9 294.2 204.5 300.7"/>
  <polygon class="cls-15" points="204.5 284.6 204.3 284.6 204.1 284.6 203.9 284.6 203.7 284.7 203.5 284.7 203.3 284.8 203.1 284.9 202.9 285 202.8 285.1 202.6 285.2 202.4 285.4 202.2 285.5 202.1 285.6 202 285.8 201.8 286 201.8 286.1 201.6 286.3 201.5 286.5 201.4 286.7 201.4 286.9 201.4 287.1 201.3 287.3 201.2 287.5 201.2 287.7 201.2 287.9 201.2 288.1 201.3 288.3 201.3 288.5 201.4 288.7 201.4 288.9 201.5 289.1 201.6 289.3 201.7 289.5 201.8 289.7 201.9 289.8 202 290 202.2 290.2 202.4 290.3 202.5 290.4 202.6 290.6 202.8 290.7 203 290.8 203.2 290.8 203.4 291 203.6 291 203.8 291 204 291.1 204.2 291.1 204.4 291.1 204.6 291.1 204.8 291.1 205 291.1 205.2 291 205.4 291 205.6 291 205.8 290.8 206 290.8 206.2 290.7 206.4 290.5 206.6 290.4 206.7 290.3 206.8 290.1 207 290 207.2 289.8 207.2 289.7 207.4 289.5 207.5 289.3 207.6 289.1 207.6 288.9 207.7 288.7 207.8 288.5 207.8 288.3 207.8 288.1 207.8 287.9 207.8 287.7 207.8 287.5 207.8 287.3 207.7 287.1 207.7 286.9 207.6 286.7 207.5 286.5 207.4 286.3 207.3 286.1 207.1 286 207.1 285.8 206.9 285.6 206.7 285.5 206.6 285.4 206.5 285.2 206.3 285.1 206.1 285 205.9 284.9 205.7 284.8 205.5 284.7 205.3 284.7 205.1 284.6 204.9 284.6 204.8 284.6 204.5 284.6"/>
  <line class="cls-12" x1="130.5" y1="264.8" x2="114.4" y2="246.1"/>
  <polygon class="cls-15" points="120.3 253 120.1 253.1 120 253.3 119.9 253.4 119.7 253.6 119.6 253.8 119.5 254 119.5 254.2 119.3 254.4 119.3 254.6 119.3 254.7 119.2 255 119.2 255.2 119.1 255.4 119.1 255.6 119.2 255.8 119.2 256 119.3 256.2 119.3 256.4 119.3 256.6 119.4 256.8 119.6 257 119.6 257.2 119.8 257.3 119.9 257.5 120 257.6 120.2 257.8 120.3 258 120.5 258.1 120.6 258.2 120.8 258.3 120.9 258.4 121.2 258.5 121.3 258.6 121.6 258.6 121.8 258.7 121.9 258.7 122.2 258.8 122.4 258.8 122.6 258.8 122.8 258.8 123 258.7 123.2 258.7 123.4 258.6 123.6 258.5 123.8 258.5 124 258.4 124.1 258.3 124.3 258.1 124.5 258 124.7 257.9 124.8 257.8 124.9 257.6 125.1 257.4 125.2 257.3 125.3 257.1 125.4 256.9 125.5 256.7 125.5 256.5 125.6 256.3 125.7 256.1 125.7 255.9 125.7 255.7 125.7 255.5 125.7 255.3 125.7 255.1 125.7 254.9 125.6 254.7 125.6 254.4 125.5 254.3 125.4 254.1 125.3 253.9 125.2 253.7 125.1 253.6 125 253.4 124.9 253.2 124.7 253.1 124.5 253 124.4 252.8 124.2 252.7 124 252.6 123.8 252.5 123.6 252.4 123.5 252.4 123.3 252.3 123.1 252.2 122.8 252.2 122.6 252.2 122.4 252.2 122.2 252.2 122 252.2 121.8 252.2 121.6 252.3 121.4 252.4 121.2 252.4 121 252.5 120.8 252.6 120.7 252.7 120.5 252.8 120.3 253"/>
  <line class="cls-12" x1="347" y1="264.8" x2="324" y2="244.8"/>
  <polygon class="cls-15" points="341.2 259.8 341.4 259.6 341.5 259.4 341.6 259.3 341.7 259.1 341.8 258.9 341.9 258.7 341.9 258.5 342 258.3 342 258.1 342 257.9 342 257.7 342 257.5 342 257.3 342 257 342 256.8 341.9 256.6 341.8 256.4 341.8 256.3 341.6 256.1 341.6 255.9 341.4 255.7 341.3 255.6 341.2 255.4 341 255.2 340.9 255.1 340.7 255 340.6 254.8 340.4 254.8 340.2 254.6 340 254.6 339.8 254.5 339.6 254.4 339.4 254.4 339.2 254.4 339 254.4 338.8 254.4 338.6 254.4 338.4 254.4 338.2 254.4 338 254.4 337.8 254.5 337.6 254.6 337.4 254.6 337.2 254.8 337 254.8 336.9 255 336.6 255.1 336.5 255.2 336.4 255.4 336.2 255.5 336.1 255.7 336 255.9 335.9 256 335.8 256.2 335.7 256.4 335.7 256.6 335.6 256.8 335.5 257 335.5 257.2 335.5 257.4 335.5 257.6 335.5 257.9 335.5 258.1 335.6 258.3 335.6 258.5 335.7 258.7 335.7 258.9 335.9 259 335.9 259.2 336.1 259.4 336.2 259.6 336.3 259.8 336.5 259.9 336.6 260 336.7 260.2 336.9 260.3 337.1 260.4 337.3 260.6 337.5 260.6 337.7 260.7 337.9 260.8 338.1 260.8 338.3 260.8 338.5 260.9 338.7 260.9 338.9 260.9 339.1 260.9 339.3 260.9 339.5 260.8 339.7 260.8 339.9 260.7 340.1 260.6 340.3 260.5 340.5 260.4 340.7 260.4 340.8 260.2 341 260.1 341.1 260 341.2 259.8"/>
  <polygon class="cls-15" points="327.7 252.3 332.7 256.6 337 251.7 332 247.4 327.7 252.3"/>
  <line class="cls-12" x1="277.4" y1="265" x2="254.4" y2="245.1"/>
  <polygon class="cls-15" points="271.6 260 271.7 259.8 271.8 259.6 272 259.5 272 259.3 272.2 259.1 272.2 258.9 272.3 258.7 272.3 258.5 272.4 258.3 272.4 258.1 272.4 257.9 272.4 257.7 272.4 257.5 272.4 257.2 272.3 257 272.2 256.8 272.1 256.6 272.1 256.5 272 256.3 271.9 256.1 271.8 255.9 271.7 255.8 271.5 255.6 271.4 255.4 271.2 255.3 271.1 255.2 270.9 255 270.7 255 270.5 254.8 270.4 254.8 270.1 254.7 270 254.6 269.8 254.6 269.6 254.6 269.4 254.6 269.1 254.6 268.9 254.6 268.7 254.6 268.5 254.6 268.3 254.6 268.1 254.7 267.9 254.8 267.7 254.9 267.5 255 267.4 255.1 267.2 255.2 267 255.3 266.8 255.5 266.7 255.6 266.6 255.7 266.4 255.9 266.3 256.1 266.2 256.2 266.1 256.5 266 256.6 266 256.9 265.9 257 265.9 257.2 265.8 257.5 265.8 257.6 265.8 257.9 265.8 258.1 265.8 258.3 265.9 258.5 266 258.7 266 258.9 266.1 259.1 266.2 259.2 266.2 259.5 266.4 259.6 266.5 259.8 266.6 260 266.8 260.1 266.9 260.2 267.1 260.4 267.2 260.5 267.5 260.6 267.6 260.8 267.8 260.8 268 260.9 268.2 261 268.4 261 268.6 261 268.8 261.1 269 261.1 269.2 261.1 269.4 261.1 269.6 261.1 269.8 261 270 261 270.2 260.9 270.4 260.8 270.6 260.8 270.8 260.6 271 260.6 271.2 260.4 271.3 260.3 271.4 260.2 271.6 260"/>
  <path class="cls-15" d="M258,252.6c5.7,5,4.3,5.2,9.2-.6C261.6,246.8,263,246.8,258,252.6Z"/>
  <line class="cls-12" x1="54.8" y1="230.8" x2="75.2" y2="223.1"/>
  <polygon class="cls-15" points="58 229.6 58 229.8 58.1 230 58.2 230.2 58.3 230.4 58.4 230.6 58.6 230.7 58.7 230.8 58.9 230.9 59 231.1 59.2 231.2 59.4 231.4 59.6 231.4 59.8 231.5 60 231.6 60.2 231.6 60.3 231.7 60.5 231.7 60.8 231.7 61 231.7 61.2 231.7 61.4 231.7 61.6 231.7 61.8 231.6 62 231.6 62.2 231.5 62.4 231.4 62.5 231.3 62.8 231.2 63 231.1 63.1 231 63.3 230.9 63.4 230.7 63.5 230.5 63.7 230.3 63.8 230.2 63.9 230 64 229.8 64.1 229.7 64.1 229.5 64.2 229.3 64.2 229.1 64.3 228.9 64.3 228.6 64.3 228.4 64.3 228.2 64.3 228 64.2 227.8 64.1 227.6 64.1 227.4 64 227.2 63.9 227 63.9 226.8 63.7 226.7 63.6 226.5 63.5 226.4 63.3 226.1 63.2 226 63 225.9 62.9 225.8 62.7 225.7 62.5 225.6 62.3 225.5 62.1 225.4 61.9 225.3 61.7 225.3 61.5 225.2 61.3 225.2 61.1 225.2 60.9 225.2 60.7 225.2 60.5 225.2 60.3 225.3 60.1 225.3 59.9 225.4 59.7 225.4 59.5 225.6 59.3 225.6 59.1 225.8 59 225.9 58.8 226 58.7 226.2 58.5 226.3 58.4 226.5 58.3 226.6 58.2 226.8 58.1 227 58 227.2 57.9 227.4 57.8 227.6 57.8 227.8 57.8 228 57.8 228.2 57.7 228.4 57.7 228.6 57.8 228.8 57.8 229 57.8 229.2 57.9 229.4 58 229.6"/>
  <polygon class="cls-15" points="73 223.9 65.7 222.8 68.3 229.7 73 223.9"/>
  <line class="cls-12" x1="66.5" y1="250.1" x2="88.2" y2="236.5"/>
  <polygon class="cls-15" points="70.1 247.9 77.5 247.6 73.6 241.4 70.1 247.9"/>
  <polygon class="cls-15" points="83.7 239.3 83.6 239.1 83.4 238.9 83.3 238.8 83.2 238.7 83.1 238.5 82.8 238.4 82.7 238.3 82.5 238.2 82.3 238.1 82.1 238 81.9 237.9 81.7 237.9 81.5 237.8 81.3 237.8 81.1 237.8 80.9 237.7 80.7 237.8 80.5 237.8 80.3 237.8 80.1 237.9 79.9 237.9 79.7 238 79.5 238.1 79.3 238.2 79.1 238.3 79 238.4 78.8 238.5 78.7 238.7 78.5 238.8 78.4 239 78.3 239.1 78.1 239.3 78 239.5 77.9 239.7 77.9 239.9 77.8 240.1 77.7 240.3 77.7 240.5 77.7 240.7 77.7 240.9 77.7 241.1 77.7 241.3 77.7 241.5 77.7 241.7 77.8 241.9 77.9 242.1 77.9 242.3 78 242.5 78.1 242.7 78.2 242.9 78.3 243.1 78.5 243.2 78.6 243.4 78.7 243.5 78.9 243.7 79.1 243.7 79.3 243.9 79.5 244 79.6 244.1 79.8 244.1 80 244.2 80.2 244.2 80.4 244.2 80.7 244.3 80.9 244.3 81.1 244.3 81.3 244.3 81.5 244.2 81.7 244.2 81.9 244.2 82.1 244.1 82.3 244.1 82.5 243.9 82.7 243.8 82.8 243.7 83 243.6 83.1 243.4 83.3 243.3 83.4 243.2 83.5 243 83.7 242.8 83.8 242.6 83.9 242.5 84 242.3 84.1 242.1 84.1 241.9 84.1 241.7 84.2 241.5 84.2 241.2 84.2 241.1 84.2 240.9 84.2 240.6 84.2 240.4 84.1 240.2 84.1 240.1 84 239.9 83.9 239.6 83.8 239.4 83.7 239.3"/>
  <line class="cls-12" x1="114.5" y1="291.2" x2="130.6" y2="309.9"/>
  <polygon class="cls-15" points="124.7 303 124.9 302.9 125 302.8 125.1 302.6 125.3 302.4 125.4 302.2 125.5 302 125.6 301.9 125.7 301.7 125.7 301.5 125.8 301.3 125.8 301.1 125.9 300.9 125.9 300.6 125.9 300.4 125.9 300.2 125.8 300 125.8 299.8 125.7 299.6 125.7 299.4 125.6 299.2 125.5 299 125.4 298.9 125.3 298.7 125.2 298.5 125.1 298.4 124.9 298.2 124.7 298 124.6 297.9 124.4 297.9 124.3 297.7 124.1 297.6 123.9 297.5 123.7 297.5 123.5 297.4 123.3 297.3 123.1 297.3 122.9 297.2 122.7 297.2 122.5 297.2 122.3 297.3 122 297.3 121.8 297.4 121.6 297.4 121.4 297.5 121.2 297.6 121.1 297.7 120.9 297.8 120.7 297.9 120.5 298 120.3 298.1 120.2 298.3 120.1 298.5 119.9 298.6 119.8 298.8 119.7 298.9 119.6 299.1 119.5 299.3 119.5 299.5 119.4 299.7 119.3 299.9 119.3 300.1 119.3 300.3 119.3 300.5 119.3 300.7 119.3 301 119.3 301.2 119.4 301.4 119.5 301.6 119.6 301.8 119.6 302 119.8 302.1 119.8 302.3 119.9 302.5 120.1 302.6 120.2 302.8 120.3 303 120.5 303.1 120.7 303.2 120.8 303.3 121 303.4 121.2 303.5 121.4 303.6 121.6 303.7 121.8 303.8 122 303.8 122.2 303.8 122.4 303.8 122.6 303.8 122.8 303.8 123 303.8 123.3 303.8 123.5 303.7 123.7 303.6 123.9 303.6 124 303.5 124.2 303.4 124.4 303.3 124.5 303.2 124.7 303"/>
  <line class="cls-12" x1="177.9" y1="290" x2="157.6" y2="330.6"/>
  <line class="cls-12" x1="141.3" y1="263.6" x2="164" y2="230.5"/>
  <line class="cls-12" x1="82.4" y1="215.6" x2="92.3" y2="185.6"/>
  <line class="cls-16" x1="316.6" y1="339.2" x2="346.8" y2="318"/>
  <text class="cls-17" transform="matrix(1, -0.01, 0.01, 1, 770.4, 133.61)">G</text>
  <text class="cls-1" transform="matrix(1, -0.01, 0.01, 1, 771.25, 150.32)">G</text>
  <text class="cls-1" transform="matrix(1, -0.01, 0.01, 1, 771.87, 166.7)">C</text>
  <text class="cls-1" transform="matrix(1, -0.01, 0.01, 1, 771.54, 183.1)">G</text>
  <text class="cls-1" transform="translate(772.03 199.52) rotate(-0.17)">C</text>
  <text class="cls-4" transform="translate(763.48 220.07) rotate(-0.17)">G</text>
  <text class="cls-18" transform="translate(751.6 236.55)">A</text>
  <text class="cls-4" transform="translate(738.86 257.04)">G</text>
  <text class="cls-5" transform="translate(689.78 289.98)">G</text>
  <text class="cls-6" transform="translate(620.61 290.23)">A</text>
  <text class="cls-7" transform="translate(640.57 343.42)">10</text>
  <text class="cls-19" transform="translate(433.58 221.94)">A</text>
  <text class="cls-20" transform="translate(480.75 290.62)">G</text>
  <text class="cls-20" transform="translate(550.44 290.41)">G</text>
  <text class="cls-8" transform="translate(394.9 347.98)">A</text>
  <text class="cls-20" transform="translate(447.06 320.4)">G</text>
  <text class="cls-20" transform="translate(519.73 321.19)">G</text>
  <text class="cls-5" transform="translate(595.07 318.96)">U</text>
  <text class="cls-5" transform="translate(664.74 320.74)">C</text>
  <text class="cls-11" transform="translate(696.24 220.28)">U</text>
  <text class="cls-5" transform="translate(664.14 275.67)">G</text>
  <text class="cls-7" transform="translate(632.18 229.58)">20</text>
  <text class="cls-6" transform="translate(594.97 274.91)">A</text>
  <text class="cls-20" transform="translate(446.92 275.33)">G</text>
  <text class="cls-20" transform="translate(516.6 275.11)">G</text>
  <text class="cls-10" transform="translate(459.28 208.54)">A</text>
  <text class="cls-20" transform="translate(480.62 245.53)">G</text>
  <text class="cls-20" transform="translate(549.3 245.32)">G</text>
  <text class="cls-5" transform="translate(619.44 247.11)">U</text>
  <text class="cls-5" transform="translate(689.12 245.9)">C</text>
  <text class="cls-18" transform="translate(706.18 237.35)">A</text>
  <text class="cls-4" transform="translate(718.74 224.32)">C</text>
  <text class="cls-7" transform="translate(703.75 183.31)">30</text>
  <text class="cls-4" transform="translate(731.12 212.07) rotate(-0.17)">U</text>
  <text class="cls-1" transform="translate(738.77 199.72) rotate(-0.17)">G</text>
  <text class="cls-1" transform="matrix(1, -0.01, 0.01, 1, 739.23, 183.4)">C</text>
  <text class="cls-1" transform="matrix(1, -0.01, 0.01, 1, 738.61, 167.01)">G</text>
  <text class="cls-1" transform="matrix(1, -0.01, 0.01, 1, 738.93, 150.61)">C</text>
  <text class="cls-17" transform="matrix(1, -0.01, 0.01, 1, 738.78, 133.9)">C</text>
  <line class="cls-12" x1="770.64" y1="128.94" x2="750.94" y2="128.94"/>
  <line class="cls-12" x1="770.64" y1="145.34" x2="751.04" y2="145.44"/>
  <line class="cls-12" x1="770.74" y1="161.74" x2="751.04" y2="161.74"/>
  <line class="cls-12" x1="770.74" y1="178.14" x2="751.14" y2="178.14"/>
  <line class="cls-12" x1="770.84" y1="194.54" x2="751.14" y2="194.64"/>
  <line class="cls-16" x1="606.14" y1="314.84" x2="662.64" y2="314.64"/>
  <polyline class="cls-16" points="677.74 313.64 703.94 313.54 703.64 221.74"/>
  <line class="cls-16" x1="632.44" y1="239.94" x2="688.94" y2="239.84"/>
  <line class="cls-16" x1="739.34" y1="255.64" x2="701.14" y2="281.24"/>
  <polygon points="724.14 261.54 723.34 264.24 722.04 265.94 720.54 267.34 717.64 270.34 721.54 268.84 723.34 267.94 725.44 267.24 728.14 267.64 724.14 261.54"/>
  <polygon class="cls-15" points="645.94 265.04 643.94 266.84 641.84 267.44 639.84 267.74 635.74 268.64 639.84 269.54 641.84 269.84 643.94 270.44 645.94 272.34 645.94 265.04"/>
  <polygon class="cls-15" points="654.14 243.44 656.24 241.54 658.24 240.94 660.24 240.64 664.34 239.74 660.24 238.84 658.24 238.54 656.24 237.94 654.14 236.04 654.14 243.44"/>
  <polygon class="cls-15" points="577.34 243.94 579.44 242.04 581.44 241.54 583.54 241.24 587.64 240.34 583.64 239.44 581.54 239.04 579.44 238.44 577.44 236.54 577.34 243.94"/>
  <polygon class="cls-15" points="664.44 281.34 662.44 283.14 660.44 283.84 658.34 284.24 654.24 285.14 658.34 285.94 660.44 286.34 662.44 286.84 664.54 288.64 664.44 281.34"/>
  <polygon class="cls-15" points="665.24 223.34 667.14 225.34 667.84 227.34 668.24 229.44 669.34 233.44 670.14 229.24 670.34 227.24 670.84 225.14 672.54 223.04 665.24 223.34"/>
  <polygon class="cls-15" points="539.64 351.34 537.64 353.14 535.54 353.74 533.44 354.04 529.44 355.04 533.44 355.94 535.54 356.24 537.64 356.84 539.64 358.64 539.64 351.34"/>
  <polygon class="cls-15" points="534.44 339.14 532.44 340.94 530.34 341.54 528.34 341.84 524.24 342.74 528.34 343.74 530.34 344.04 532.44 344.64 534.54 346.44 534.44 339.14"/>
  <polygon points="685.74 317.24 687.84 315.44 689.84 314.94 691.84 314.64 695.94 313.84 691.94 312.84 689.84 312.54 687.84 311.84 685.84 309.94 685.74 317.24"/>
  <polygon class="cls-15" points="484.44 317.54 486.44 315.74 488.54 315.14 490.54 314.84 494.74 313.84 490.54 312.94 488.54 312.64 486.54 312.04 484.44 310.14 484.44 317.54"/>
  <polygon class="cls-15" points="423.27 253.44 425.11 255.4 425.69 257.63 425.9 259.63 426.77 263.74 427.75 259.65 428.14 257.62 428.84 255.63 430.66 253.61 423.27 253.44"/>
  <polygon class="cls-15" points="470.54 226.14 473.14 227.04 474.64 228.64 475.84 230.34 478.54 233.44 477.44 229.44 476.84 227.44 476.44 225.34 477.14 222.74 470.54 226.14"/>
  <polygon class="cls-15" points="422.84 334.94 423.84 332.54 425.44 331.04 427.24 329.94 430.54 327.34 426.44 328.24 424.44 328.84 422.34 329.14 419.64 328.34 422.84 334.94"/>
  <polygon class="cls-15" points="486.44 272.84 488.54 271.04 490.54 270.44 492.64 270.14 496.74 269.14 492.64 268.24 490.54 267.94 488.54 267.24 486.54 265.54 486.44 272.84"/>
  <polygon class="cls-15" points="503.94 244.14 506.04 242.24 508.04 241.74 510.14 241.44 514.24 240.54 510.14 239.54 508.14 239.24 506.04 238.64 503.94 236.74 503.94 244.14"/>
  <polygon class="cls-15" points="503.54 289.14 505.64 287.34 507.64 286.74 509.74 286.44 513.84 285.54 509.74 284.54 507.64 284.34 505.64 283.64 503.54 281.84 503.54 289.14"/>
  <polygon class="cls-15" points="540.24 317.74 542.44 316.04 544.44 315.44 546.54 315.24 550.64 314.44 546.54 313.44 544.54 313.04 542.54 312.34 540.54 310.44 540.24 317.74"/>
  <polygon class="cls-15" points="613.44 317.54 615.44 315.74 617.44 315.04 619.54 314.74 623.54 313.84 619.54 312.94 617.44 312.54 615.44 311.94 613.44 310.14 613.44 317.54"/>
  <polygon class="cls-15" points="572.54 211.94 570.44 213.74 568.44 214.34 566.34 214.64 562.24 215.54 566.34 216.44 568.44 216.74 570.44 217.44 572.44 219.24 572.54 211.94"/>
  <polygon class="cls-15" points="527.04 231.74 525.34 229.64 524.74 227.54 524.54 225.44 523.74 221.34 522.74 225.44 522.34 227.44 521.54 229.44 519.74 231.44 527.04 231.74"/>
  <line class="cls-21" x1="689.14" y1="284.94" x2="632.54" y2="285.14"/>
  <line class="cls-16" x1="439.94" y1="355.34" x2="439.54" y2="220.84"/>
  <line class="cls-16" x1="426.74" y1="272.54" x2="426.54" y2="217.04"/>
  <line class="cls-16" x1="426.54" y1="217.04" x2="433.74" y2="216.94"/>
  <polyline class="cls-16" points="626.04 291.74 626.24 354.74 439.94 355.34"/>
  <line class="cls-16" x1="426.74" y1="272.14" x2="480.54" y2="283.24"/>
  <line class="cls-16" x1="493.24" y1="285.54" x2="549.74" y2="285.34"/>
  <polyline class="cls-16" points="556.34 291.84 556.54 342.64 408.04 343.14"/>
  <line class="cls-16" x1="460.54" y1="314.34" x2="519.94" y2="314.14"/>
  <line class="cls-16" x1="532.04" y1="314.14" x2="594.94" y2="313.94"/>
  <polyline class="cls-16" points="695.14 216.34 668.94 217.14 669.04 263.04"/>
  <line class="cls-16" x1="664.44" y1="268.64" x2="607.94" y2="268.74"/>
  <polyline class="cls-16" points="601.34 262.24 601.24 215.54 474.14 215.94 456.24 263.14"/>
  <line class="cls-16" x1="460.44" y1="269.24" x2="516.94" y2="269.04"/>
  <polyline class="cls-16" points="523.44 262.44 523.34 203.44 470.94 203.64"/>
  <line class="cls-16" x1="466.84" y1="209.54" x2="480.74" y2="237.24"/>
  <line class="cls-13" x1="493.04" y1="240.44" x2="549.64" y2="240.24"/>
  <line class="cls-16" x1="562.74" y1="240.24" x2="619.34" y2="240.04"/>
  <line class="cls-12" x1="481.74" y1="289.84" x2="458.84" y2="310.04"/>
  <polygon class="cls-15" points="475.94 294.94 476.14 295.14 476.24 295.24 476.34 295.44 476.44 295.64 476.54 295.84 476.54 296.04 476.64 296.24 476.74 296.44 476.74 296.64 476.74 296.84 476.74 297.04 476.74 297.24 476.74 297.44 476.74 297.64 476.74 297.84 476.64 298.04 476.54 298.24 476.54 298.44 476.44 298.64 476.34 298.84 476.14 298.94 476.04 299.14 475.94 299.34 475.74 299.54 475.64 299.64 475.44 299.74 475.34 299.84 475.14 299.94 474.94 300.04 474.74 300.14 474.54 300.24 474.34 300.34 474.14 300.34 473.94 300.34 473.74 300.34 473.54 300.34 473.34 300.34 473.14 300.34 472.94 300.34 472.74 300.34 472.54 300.24 472.34 300.14 472.14 300.14 471.94 299.94 471.74 299.94 471.54 299.74 471.44 299.64 471.24 299.54 471.14 299.44 470.94 299.14 470.84 299.04 470.74 298.84 470.54 298.64 470.54 298.54 470.44 298.34 470.44 298.14 470.34 297.94 470.24 297.74 470.24 297.54 470.24 297.34 470.24 297.14 470.24 296.84 470.24 296.64 470.34 296.44 470.34 296.24 470.34 296.04 470.44 295.84 470.54 295.64 470.64 295.54 470.74 295.34 470.94 295.14 470.94 295.04 471.14 294.84 471.34 294.64 471.44 294.54 471.64 294.44 471.74 294.34 471.94 294.24 472.14 294.14 472.34 294.04 472.54 294.04 472.74 293.94 472.94 293.84 473.14 293.84 473.34 293.84 473.54 293.84 473.74 293.84 473.94 293.84 474.24 293.94 474.44 294.04 474.54 294.04 474.74 294.14 474.94 294.14 475.14 294.34 475.34 294.44 475.54 294.54 475.74 294.64 475.84 294.74 475.94 294.94"/>
  <polygon class="cls-15" points="462.44 302.44 467.44 298.14 471.74 303.04 466.84 307.34 462.44 302.44"/>
  <line class="cls-12" x1="551.44" y1="288.64" x2="528.54" y2="308.74"/>
  <polygon class="cls-15" points="547.64 292.74 547.74 292.94 547.94 293.04 547.94 293.24 548.14 293.44 548.24 293.64 548.24 293.84 548.34 294.04 548.44 294.24 548.44 294.44 548.44 294.64 548.44 294.84 548.44 295.04 548.44 295.24 548.44 295.44 548.44 295.64 548.34 295.84 548.24 296.04 548.24 296.24 548.04 296.44 548.04 296.64 547.84 296.74 547.74 296.94 547.64 297.14 547.44 297.24 547.34 297.44 547.14 297.54 546.94 297.64 546.84 297.74 546.64 297.84 546.44 297.94 546.24 298.04 546.04 298.14 545.84 298.14 545.64 298.14 545.44 298.14 545.24 298.14 545.04 298.14 544.84 298.14 544.64 298.14 544.44 298.14 544.14 298.04 544.04 297.94 543.84 297.94 543.64 297.74 543.44 297.74 543.24 297.54 543.04 297.44 542.94 297.34 542.84 297.14 542.64 296.94 542.54 296.84 542.44 296.64 542.24 296.44 542.24 296.34 542.14 296.14 542.04 295.94 542.04 295.74 541.94 295.54 541.94 295.34 541.84 295.14 541.84 294.94 541.94 294.64 541.94 294.44 541.94 294.24 542.04 294.04 542.04 293.84 542.14 293.64 542.24 293.44 542.34 293.34 542.44 293.14 542.54 292.94 542.64 292.74 542.84 292.64 543.04 292.44 543.14 292.34 543.24 292.24 543.44 292.14 543.64 291.94 543.84 291.94 544.04 291.84 544.24 291.74 544.44 291.74 544.64 291.64 544.84 291.64 545.04 291.64 545.24 291.64 545.44 291.64 545.64 291.64 545.84 291.74 546.04 291.74 546.24 291.84 546.44 291.94 546.64 291.94 546.84 292.14 547.04 292.14 547.24 292.34 547.34 292.44 547.54 292.54 547.64 292.74"/>
  <polygon class="cls-15" points="534.14 300.24 539.14 295.94 543.44 300.84 538.54 305.14 534.14 300.24"/>
  <line class="cls-12" x1="453.94" y1="307.74" x2="453.84" y2="275.84"/>
  <polygon class="cls-15" points="453.94 299.34 453.74 299.34 453.54 299.34 453.34 299.34 453.14 299.24 452.94 299.14 452.74 299.14 452.54 299.04 452.34 298.94 452.14 298.74 451.94 298.74 451.74 298.54 451.64 298.44 451.54 298.34 451.34 298.14 451.24 297.94 451.14 297.74 451.04 297.54 450.94 297.44 450.84 297.24 450.74 297.04 450.74 296.84 450.74 296.64 450.64 296.44 450.64 296.14 450.64 296.04 450.64 295.74 450.64 295.64 450.74 295.44 450.74 295.14 450.84 295.04 450.94 294.74 450.94 294.64 451.04 294.44 451.14 294.24 451.34 294.04 451.44 293.94 451.54 293.74 451.64 293.64 451.94 293.44 452.04 293.34 452.24 293.24 452.34 293.14 452.54 293.04 452.74 293.04 452.94 292.94 453.14 292.84 453.34 292.74 453.54 292.74 453.84 292.74 454.04 292.74 454.24 292.74 454.44 292.74 454.64 292.84 454.84 292.94 455.04 292.94 455.24 293.04 455.44 293.14 455.54 293.24 455.74 293.34 455.94 293.44 456.04 293.54 456.24 293.74 456.34 293.94 456.44 294.04 456.64 294.24 456.74 294.34 456.84 294.54 456.94 294.74 457.04 294.94 457.04 295.14 457.04 295.34 457.14 295.54 457.14 295.74 457.14 295.94 457.14 296.14 457.14 296.34 457.14 296.64 457.04 296.84 457.04 297.04 456.94 297.24 456.94 297.34 456.84 297.54 456.64 297.74 456.54 297.94 456.44 298.14 456.34 298.34 456.14 298.44 456.04 298.54 455.84 298.74 455.74 298.74 455.54 298.94 455.34 299.04 455.14 299.14 454.94 299.14 454.74 299.24 454.54 299.34 454.34 299.34 454.14 299.34 453.94 299.34"/>
  <polygon class="cls-15" points="457.14 284.24 457.14 290.74 450.64 290.84 450.64 284.24 457.14 284.24"/>
  <line class="cls-12" x1="523.64" y1="307.54" x2="523.54" y2="275.64"/>
  <polygon class="cls-15" points="523.64 301.74 523.44 301.74 523.24 301.74 523.04 301.74 522.84 301.64 522.54 301.64 522.44 301.54 522.24 301.54 522.04 301.34 521.84 301.24 521.64 301.14 521.44 301.04 521.34 300.84 521.24 300.74 521.04 300.54 520.94 300.44 520.84 300.24 520.64 300.04 520.64 299.84 520.54 299.74 520.44 299.54 520.44 299.34 520.34 299.14 520.34 298.84 520.34 298.64 520.34 298.44 520.34 298.24 520.34 298.04 520.44 297.84 520.44 297.64 520.44 297.44 520.54 297.24 520.64 297.04 520.74 296.84 520.84 296.74 520.94 296.54 521.14 296.34 521.24 296.14 521.44 296.04 521.54 295.94 521.74 295.74 521.94 295.74 522.04 295.54 522.24 295.54 522.44 295.44 522.64 295.34 522.84 295.34 523.04 295.24 523.24 295.24 523.44 295.24 523.64 295.24 523.94 295.24 524.14 295.24 524.34 295.34 524.54 295.34 524.74 295.44 524.94 295.54 525.14 295.54 525.24 295.74 525.44 295.74 525.54 295.84 525.74 296.04 525.94 296.14 526.04 296.34 526.14 296.54 526.34 296.64 526.44 296.84 526.54 297.04 526.54 297.24 526.64 297.44 526.74 297.64 526.74 297.84 526.84 298.04 526.84 298.24 526.84 298.44 526.84 298.64 526.84 298.84 526.84 299.04 526.74 299.24 526.74 299.44 526.64 299.64 526.64 299.84 526.44 300.04 526.44 300.24 526.24 300.44 526.14 300.54 525.94 300.74 525.84 300.84 525.74 301.04 525.54 301.14 525.44 301.24 525.24 301.34 524.94 301.44 524.84 301.54 524.64 301.64 524.44 301.64 524.24 301.74 524.04 301.74 523.84 301.74 523.64 301.74"/>
  <polygon class="cls-15" points="526.84 286.74 526.84 293.24 520.34 293.24 520.34 286.74 526.84 286.74"/>
  <line class="cls-12" x1="601.44" y1="307.34" x2="601.44" y2="275.34"/>
  <polygon class="cls-15" points="601.44 299.84 597.74 293.44 605.14 293.44 601.44 299.84"/>
  <polygon class="cls-15" points="601.44 283.84 601.64 283.84 601.84 283.84 602.04 283.84 602.24 283.84 602.44 283.94 602.64 284.04 602.84 284.04 603.04 284.24 603.24 284.24 603.34 284.44 603.54 284.54 603.64 284.64 603.84 284.84 603.94 285.04 604.04 285.14 604.24 285.34 604.24 285.54 604.44 285.64 604.44 285.84 604.54 286.04 604.64 286.24 604.64 286.44 604.64 286.64 604.64 286.84 604.64 287.14 604.64 287.34 604.64 287.54 604.64 287.74 604.64 287.94 604.54 288.14 604.44 288.34 604.34 288.54 604.24 288.74 604.14 288.84 604.04 289.04 603.94 289.24 603.74 289.34 603.64 289.54 603.44 289.64 603.24 289.84 603.14 289.84 602.94 290.04 602.74 290.04 602.54 290.14 602.34 290.24 602.14 290.24 601.94 290.24 601.74 290.34 601.54 290.34 601.34 290.34 601.14 290.34 600.94 290.24 600.74 290.24 600.54 290.24 600.34 290.14 600.14 290.04 599.94 290.04 599.74 289.84 599.54 289.84 599.44 289.64 599.24 289.54 599.14 289.34 598.94 289.24 598.84 289.14 598.74 288.84 598.54 288.74 598.54 288.54 598.44 288.34 598.34 288.14 598.24 287.94 598.24 287.74 598.14 287.54 598.14 287.34 598.14 287.14 598.14 286.94 598.14 286.74 598.14 286.54 598.24 286.34 598.24 286.14 598.34 285.94 598.44 285.74 598.54 285.54 598.64 285.34 598.74 285.14 598.94 285.04 599.04 284.84 599.14 284.74 599.24 284.54 599.44 284.44 599.64 284.34 599.84 284.24 600.04 284.14 600.24 284.04 600.44 283.94 600.64 283.94 600.84 283.84 601.04 283.84 601.24 283.84 601.44 283.84"/>
  <line class="cls-12" x1="675.24" y1="263.54" x2="691.24" y2="244.74"/>
  <polygon class="cls-15" points="685.44 251.74 685.54 251.84 685.74 252.04 685.84 252.14 685.94 252.34 686.14 252.54 686.14 252.64 686.34 252.84 686.34 253.04 686.44 253.24 686.54 253.44 686.54 253.64 686.54 253.84 686.54 254.04 686.54 254.34 686.54 254.54 686.54 254.74 686.54 254.94 686.44 255.14 686.34 255.34 686.34 255.54 686.24 255.74 686.14 255.84 685.94 256.04 685.94 256.14 685.74 256.34 685.64 256.54 685.44 256.64 685.34 256.74 685.14 256.94 684.94 257.04 684.74 257.14 684.54 257.24 684.44 257.34 684.24 257.34 683.94 257.34 683.74 257.44 683.64 257.44 683.44 257.44 683.24 257.44 682.94 257.44 682.74 257.44 682.54 257.34 682.34 257.34 682.14 257.24 681.94 257.14 681.74 257.14 681.64 257.04 681.44 256.84 681.24 256.74 681.04 256.64 680.94 256.44 680.74 256.34 680.64 256.24 680.54 256.04 680.44 255.74 680.34 255.64 680.24 255.44 680.24 255.24 680.14 255.04 680.04 254.84 680.04 254.64 679.94 254.44 679.94 254.24 679.94 254.04 680.04 253.84 680.04 253.64 680.14 253.44 680.14 253.24 680.24 253.04 680.34 252.84 680.34 252.64 680.54 252.44 680.64 252.24 680.74 252.14 680.94 251.94 681.04 251.84 681.14 251.64 681.34 251.54 681.54 251.44 681.74 251.34 681.94 251.24 682.14 251.14 682.34 251.04 682.54 251.04 682.74 251.04 682.94 250.94 683.14 250.94 683.34 250.94 683.54 250.94 683.74 250.94 683.94 251.04 684.14 251.04 684.34 251.04 684.54 251.24 684.74 251.24 684.94 251.34 685.14 251.44 685.24 251.54 685.44 251.74"/>
  <line class="cls-12" x1="458.74" y1="264.94" x2="481.64" y2="244.74"/>
  <polygon class="cls-15" points="464.44 259.84 464.34 259.74 464.24 259.54 464.14 259.34 464.04 259.14 463.94 258.94 463.94 258.74 463.84 258.54 463.74 258.34 463.74 258.14 463.64 257.94 463.64 257.74 463.64 257.54 463.64 257.34 463.74 257.14 463.74 256.94 463.84 256.74 463.84 256.54 464.04 256.34 464.04 256.14 464.14 255.94 464.24 255.74 464.44 255.64 464.54 255.44 464.64 255.34 464.84 255.14 465.04 255.04 465.14 254.94 465.34 254.74 465.54 254.74 465.74 254.64 465.94 254.54 466.14 254.54 466.34 254.44 466.54 254.44 466.74 254.34 466.94 254.34 467.14 254.34 467.34 254.34 467.54 254.44 467.84 254.54 468.04 254.54 468.24 254.64 468.34 254.74 468.54 254.74 468.74 254.94 468.84 255.04 469.04 255.14 469.24 255.34 469.34 255.44 469.54 255.54 469.64 255.74 469.74 255.94 469.84 256.14 469.94 256.34 470.04 256.54 470.04 256.74 470.14 256.94 470.24 257.14 470.24 257.34 470.24 257.54 470.24 257.74 470.24 257.84 470.24 258.04 470.24 258.24 470.14 258.54 470.04 258.74 470.04 258.84 469.94 259.04 469.84 259.24 469.74 259.54 469.64 259.64 469.44 259.84 469.34 259.94 469.14 260.04 469.04 260.24 468.84 260.34 468.64 260.54 468.44 260.54 468.24 260.74 468.14 260.74 467.84 260.84 467.64 260.84 467.44 260.84 467.34 260.94 467.04 260.94 466.94 260.94 466.64 260.94 466.44 260.94 466.34 260.94 466.04 260.84 465.94 260.74 465.64 260.74 465.44 260.54 465.34 260.54 465.14 260.34 464.94 260.24 464.84 260.14 464.64 259.94 464.44 259.84"/>
  <polygon class="cls-15" points="477.94 252.34 473.04 256.74 468.74 251.74 473.64 247.34 477.94 252.34"/>
  <line class="cls-12" x1="528.44" y1="264.74" x2="551.24" y2="244.54"/>
  <polygon class="cls-15" points="534.14 259.64 534.04 259.54 533.94 259.34 533.84 259.14 533.74 258.94 533.64 258.74 533.54 258.54 533.54 258.34 533.44 258.14 533.34 257.94 533.34 257.74 533.34 257.54 533.34 257.34 533.34 257.14 533.44 256.94 533.44 256.74 533.54 256.54 533.54 256.34 533.64 256.14 533.74 255.94 533.84 255.74 533.94 255.54 534.14 255.44 534.24 255.24 534.34 255.14 534.54 254.94 534.64 254.84 534.84 254.74 535.04 254.54 535.24 254.54 535.44 254.44 535.64 254.34 535.84 254.34 536.04 254.24 536.24 254.24 536.44 254.14 536.64 254.14 536.84 254.14 537.04 254.14 537.24 254.24 537.44 254.34 537.64 254.34 537.84 254.44 538.04 254.54 538.24 254.54 538.44 254.74 538.54 254.84 538.74 254.84 538.94 255.04 539.04 255.24 539.14 255.34 539.24 255.54 539.44 255.74 539.54 255.84 539.64 256.04 539.64 256.24 539.74 256.54 539.84 256.64 539.94 256.84 539.94 257.04 539.94 257.24 539.94 257.44 539.94 257.64 539.94 257.84 539.84 258.04 539.84 258.24 539.74 258.44 539.64 258.64 539.64 258.84 539.54 259.04 539.34 259.24 539.34 259.44 539.14 259.64 538.94 259.74 538.84 259.84 538.74 260.04 538.54 260.14 538.34 260.24 538.14 260.34 537.94 260.44 537.74 260.54 537.54 260.64 537.34 260.64 537.14 260.64 536.94 260.74 536.74 260.74 536.54 260.74 536.34 260.74 536.14 260.74 535.94 260.74 535.74 260.64 535.54 260.54 535.34 260.54 535.14 260.34 534.94 260.24 534.74 260.14 534.64 260.04 534.54 259.84 534.34 259.74 534.14 259.64"/>
  <path class="cls-15" d="M547.64,252.14c-5.6,5.1-4.3,5.2-9.2-.6C544,246.44,542.74,246.34,547.64,252.14Z"/>
  <line class="cls-12" x1="750.84" y1="229.14" x2="730.24" y2="221.54"/>
  <polygon class="cls-15" points="747.64 228.04 747.64 228.24 747.44 228.34 747.44 228.54 747.24 228.74 747.14 228.84 747.04 229.04 746.84 229.24 746.74 229.34 746.54 229.44 746.34 229.54 746.24 229.64 746.04 229.74 745.84 229.84 745.64 229.94 745.44 230.04 745.24 230.04 745.04 230.04 744.84 230.04 744.64 230.14 744.44 230.04 744.24 230.04 744.04 230.04 743.74 230.04 743.64 229.94 743.44 229.84 743.24 229.84 743.04 229.64 742.84 229.64 742.64 229.44 742.44 229.34 742.34 229.24 742.24 229.04 742.04 228.94 741.94 228.74 741.84 228.64 741.64 228.44 741.64 228.24 741.54 228.04 741.44 227.84 741.44 227.64 741.34 227.44 741.34 227.24 741.24 227.04 741.24 226.84 741.24 226.64 741.34 226.44 741.34 226.24 741.44 225.94 741.44 225.84 741.54 225.64 741.64 225.44 741.74 225.24 741.84 225.04 741.94 224.84 742.04 224.64 742.24 224.54 742.34 224.44 742.54 224.24 742.64 224.14 742.84 224.04 743.04 223.94 743.24 223.84 743.44 223.74 743.64 223.64 743.84 223.64 744.04 223.64 744.24 223.54 744.44 223.54 744.64 223.54 744.84 223.54 745.04 223.64 745.24 223.64 745.44 223.64 745.64 223.74 745.84 223.84 746.04 223.84 746.24 224.04 746.44 224.04 746.64 224.24 746.74 224.34 746.94 224.54 747.04 224.64 747.24 224.84 747.34 225.04 747.44 225.14 747.54 225.34 747.64 225.54 747.64 225.74 747.74 225.94 747.84 226.14 747.84 226.34 747.84 226.54 747.84 226.74 747.84 226.94 747.84 227.14 747.84 227.44 747.84 227.54 747.74 227.74 747.64 228.04"/>
  <polygon class="cls-15" points="732.64 222.44 739.84 221.14 737.24 228.04 732.64 222.44"/>
  <line class="cls-12" x1="739.24" y1="248.54" x2="717.54" y2="235.04"/>
  <polygon class="cls-15" points="735.54 246.24 728.14 246.04 732.04 239.74 735.54 246.24"/>
  <polygon class="cls-15" points="721.94 237.74 722.04 237.64 722.14 237.44 722.24 237.34 722.44 237.14 722.64 236.94 722.74 236.94 722.94 236.74 723.14 236.64 723.24 236.54 723.44 236.54 723.64 236.34 723.94 236.34 724.14 236.34 724.24 236.24 724.44 236.24 724.74 236.24 724.94 236.24 725.14 236.34 725.34 236.34 725.54 236.34 725.74 236.44 725.94 236.54 726.14 236.54 726.24 236.64 726.44 236.74 726.64 236.94 726.84 237.04 726.94 237.14 727.14 237.34 727.24 237.44 727.44 237.64 727.44 237.84 727.64 237.94 727.64 238.14 727.74 238.34 727.84 238.54 727.84 238.74 727.94 238.94 727.94 239.14 728.04 239.34 728.04 239.54 727.94 239.74 727.94 239.94 727.94 240.24 727.94 240.44 727.84 240.64 727.74 240.74 727.64 240.94 727.54 241.14 727.44 241.34 727.24 241.54 727.14 241.74 727.04 241.84 726.94 241.94 726.74 242.04 726.54 242.24 726.44 242.34 726.24 242.44 726.04 242.54 725.84 242.64 725.64 242.74 725.44 242.74 725.24 242.74 725.04 242.74 724.84 242.84 724.64 242.84 724.44 242.74 724.14 242.74 723.94 242.74 723.74 242.74 723.54 242.64 723.34 242.54 723.24 242.44 723.04 242.34 722.84 242.24 722.74 242.14 722.54 241.94 722.34 241.84 722.24 241.64 722.14 241.54 721.94 241.34 721.84 241.14 721.74 240.94 721.74 240.74 721.64 240.54 721.54 240.34 721.54 240.14 721.54 239.94 721.44 239.74 721.44 239.54 721.44 239.34 721.44 239.14 721.54 238.94 721.54 238.74 721.54 238.54 721.64 238.34 721.74 238.14 721.84 237.94 721.94 237.74"/>
  <line class="cls-12" x1="691.44" y1="289.84" x2="675.44" y2="308.64"/>
  <polygon class="cls-15" points="681.34 301.84 681.14 301.64 680.94 301.44 680.84 301.34 680.74 301.14 680.64 301.04 680.54 300.84 680.44 300.64 680.34 300.44 680.24 300.24 680.24 300.04 680.24 299.84 680.24 299.64 680.14 299.44 680.14 299.24 680.24 299.04 680.24 298.84 680.24 298.64 680.24 298.44 680.34 298.24 680.44 298.04 680.54 297.84 680.54 297.64 680.74 297.44 680.84 297.24 680.94 297.14 681.14 296.94 681.24 296.84 681.44 296.64 681.54 296.54 681.74 296.44 681.94 296.34 682.14 296.24 682.34 296.24 682.54 296.14 682.74 296.04 682.94 296.04 683.14 296.04 683.34 296.04 683.54 296.04 683.74 296.04 683.94 296.04 684.14 296.04 684.34 296.14 684.54 296.24 684.74 296.24 684.94 296.44 685.14 296.44 685.34 296.64 685.54 296.74 685.64 296.84 685.74 297.04 685.94 297.14 686.04 297.34 686.14 297.44 686.34 297.64 686.34 297.84 686.44 298.04 686.54 298.24 686.54 298.44 686.64 298.64 686.74 298.84 686.74 299.04 686.74 299.24 686.74 299.44 686.74 299.64 686.64 299.84 686.64 300.04 686.54 300.24 686.54 300.44 686.34 300.64 686.34 300.84 686.14 301.04 686.04 301.14 685.94 301.44 685.84 301.54 685.64 301.64 685.54 301.74 685.44 301.94 685.24 302.04 684.94 302.14 684.74 302.24 684.64 302.34 684.44 302.44 684.24 302.44 684.04 302.54 683.74 302.54 683.64 302.54 683.44 302.64 683.24 302.54 682.94 302.54 682.74 302.54 682.64 302.44 682.44 302.44 682.24 302.34 681.94 302.24 681.84 302.14 681.64 302.04 681.44 301.94 681.34 301.84"/>
  <line class="cls-12" x1="628.14" y1="289.04" x2="648.64" y2="329.54"/>
  <line class="cls-12" x1="664.44" y1="262.54" x2="641.54" y2="229.54"/>
  <line class="cls-12" x1="722.44" y1="212.04" x2="712.94" y2="184.14"/>
  <line class="cls-16" x1="408.84" y1="338.44" x2="447.84" y2="318.14"/>
  <ellipse class="cls-22" cx="400.69" cy="267.2" rx="18" ry="38.5" transform="translate(-0.79 1.19) rotate(-0.17)"/>
  <text class="cls-23" transform="translate(407.58 293.75) rotate(-90.17)">DFHO</text>
  <text class="cls-24" transform="translate(19.72 116.95)">5</text>
  <text class="cls-25" transform="translate(33.02 116.96) rotate(-0.17)">’</text>
  <text class="cls-24" transform="translate(56.99 116.84)">3</text>
  <text class="cls-25" transform="translate(70.29 116.85) rotate(-0.17)">’</text>
  <text class="cls-24" transform="translate(772.5 115.28)">5</text>
  <text class="cls-25" transform="translate(785.79 115.29) rotate(-0.17)">’</text>
  <text class="cls-24" transform="translate(735.05 115.39)">3</text>
  <text class="cls-25" transform="translate(748.35 115.41) rotate(-0.17)">’</text>
  <text class="cls-26" transform="translate(11.13 136.94)">1</text>
  <text class="cls-27" transform="translate(67.97 135.15)">36</text>
  <text class="cls-26" transform="translate(783.84 134.02)">1</text>
  <text class="cls-26" transform="translate(720.35 135.26)">36</text>
  <text class="cls-24" transform="translate(338.18 31)">Corn aptamer</text>
  <path class="cls-28" d="M279.5,273.8l.1,31.8c0,1.9-1.7,1.9-3.9,0l-16.6-15.3c-2.1-2-3.9-5.1-3.9-7l-.1-31.8c0-1.9,1.7-1.9,3.9,0l16.6,15.3C277.7,268.6,279.5,271.8,279.5,273.8Z"/>
  <path class="cls-29" d="M134.8,277.5l.1,30.6c0,1.9-1.5,1.6-3.3-.5l-14.5-17c-1.9-2.2-3.3-5.4-3.3-7.3l-.1-30.6c0-1.9,1.5-1.6,3.3.5l14.5,17C133.3,272.4,134.8,275.6,134.8,277.5Z"/>
  <path class="cls-29" d="M673.24,275.24l.1,26.2c0,1.6,1.5,1.2,3.3-.9l14.4-16.3c1.9-2.1,3.3-5.1,3.3-6.7l-.1-26.2c0-1.6-1.5-1.2-3.3.9l-14.4,16.3C674.74,270.74,673.24,273.64,673.24,275.24Z"/>
  <path class="cls-29" d="M202.5,274.9l.1,30.6c0,1.9-1.1,1.6-2.5-.5l-11-17a17.32,17.32,0,0,1-2.6-7.3l-.1-30.6c0-1.9,1.1-1.6,2.5.5l11,17A17.32,17.32,0,0,1,202.5,274.9Z"/>
  <path class="cls-29" d="M605.24,274.14l.1,30.6c0,1.9,1.1,1.6,2.5-.5l10.9-17.1a15.93,15.93,0,0,0,2.5-7.3l-.1-30.6c0-1.9-1.1-1.6-2.5.5l-10.9,17.1A15.93,15.93,0,0,0,605.24,274.14Z"/>
  <path class="cls-28" d="M347.8,272.1l.1,31.8c0,1.9-1.7,1.9-3.8,0l-16.6-15.3c-2.1-2-3.8-5.1-3.8-7l-.1-31.8c0-1.9,1.7-1.9,3.8.1L344,265.2C346.1,267,347.8,270.1,347.8,272.1Z"/>
  <path class="cls-28" d="M483.64,281.17l1.4-31.8c.1-1.9-1.6-2-3.8-.1L464,264c-2.2,1.9-4,4.9-4.1,6.9l-1.4,31.8c-.1,1.9,1.6,2,3.8.1l17.2-14.6C481.64,286.27,483.54,283.17,483.64,281.17Z"/>
  <path class="cls-28" d="M551.24,282.34l1.4-31.8c.1-1.9-1.6-2-3.8-.1L531.64,265c-2.2,1.9-4,4.9-4.1,6.9l-1.4,31.8c-.1,1.9,1.6,2,3.8.1l17.2-14.6C549.34,287.34,551.24,284.34,551.24,282.34Z"/>
</svg>
