<svg id="图层_1" data-name="图层 1" xmlns="http://www.w3.org/2000/svg" viewBox="0 0 800 400"><defs><style>.cls-1{fill:#ff0;}.cls-10,.cls-11,.cls-13,.cls-14,.cls-16,.cls-17,.cls-18,.cls-19,.cls-2,.cls-20,.cls-3,.cls-4,.cls-5,.cls-6,.cls-8{isolation:isolate;}.cls-2{font-size:15.66px;}.cls-10,.cls-11,.cls-13,.cls-14,.cls-16,.cls-17,.cls-19,.cls-2,.cls-20,.cls-3,.cls-4,.cls-5,.cls-6,.cls-8{font-family:ArialMT, Arial;}.cls-3{font-size:9.08px;}.cls-10,.cls-11,.cls-13,.cls-14,.cls-16,.cls-17,.cls-4,.cls-5,.cls-6{font-size:30px;}.cls-4,.cls-5{fill:#80db9e;}.cls-14,.cls-5{letter-spacing:-0.09em;}.cls-18,.cls-6{fill:#0a0bff;}.cls-12,.cls-7{fill:none;}.cls-12,.cls-15,.cls-18,.cls-7,.cls-9{stroke:#000;stroke-miterlimit:3.05;}.cls-18,.cls-7,.cls-9{stroke-width:0.38px;}.cls-8{font-size:19px;}.cls-10{fill:#006b93;}.cls-11{fill:#f0f;}.cls-12{stroke-width:0.75px;}.cls-13,.cls-14{fill:#c2c2ff;}.cls-15{fill:#fff;}.cls-17{letter-spacing:-0.07em;}.cls-18{opacity:0.5;}.cls-19,.cls-20{font-size:25px;}.cls-20{letter-spacing:-0.04em;}</style></defs><ellipse class="cls-1" cx="503.2" cy="204.2" rx="13.6" ry="42.7"/><text class="cls-2" transform="translate(498.34 178.33) rotate(90)">DMHBI</text><text class="cls-3" transform="translate(503.55 228.78) rotate(90)">+</text><g id="ID000002"><text class="cls-4" transform="translate(81.98 209.51)">G</text></g><g id="ID000003"><text class="cls-4" transform="translate(108.36 209.51)">C</text></g><g id="ID000004"><text class="cls-4" transform="translate(134.01 209.51)">U</text></g><g id="ID000005"><text class="cls-5" transform="translate(160.38 209.51)">A</text></g><g id="ID000006"><text class="cls-4" transform="translate(184.59 209.51)">G</text></g><g id="ID000007"><text class="cls-4" transform="translate(210.96 209.51)">C</text></g><g id="ID000008"><text class="cls-4" transform="translate(236.61 209.51)">U</text></g><g id="ID000009"><text class="cls-6" transform="translate(364.14 209.51)">G</text></g><g id="ID000010"><text class="cls-4" transform="translate(267.95 164.62)">G</text></g><g id="ID000011"><line class="cls-7" x1="269.5" y1="154.1" x2="249.9" y2="154.1"/></g><g id="ID000012"><text class="cls-8" transform="translate(226.93 160.62)">10</text></g><g id="ID000013"><text class="cls-5" transform="translate(269.39 132.56)">A</text></g><g id="ID000014"><text class="cls-4" transform="translate(300.74 254.4)">U</text></g><g id="ID000015"><text class="cls-4" transform="translate(268.67 260.81)">C</text></g><g id="ID000016"><text class="cls-4" transform="translate(235.89 260.81)">G</text></g><g id="ID000017"><text class="cls-4" transform="translate(210.24 260.81)">G</text></g><g id="ID000018"><text class="cls-4" transform="translate(185.31 260.81)">C</text></g><g id="ID000019"><text class="cls-4" transform="translate(159.66 260.81)">U</text></g><g id="ID000020"><text class="cls-5" transform="translate(134.73 260.81)">A</text></g><g id="ID000021"><text class="cls-4" transform="translate(107.63 260.81)">G</text></g><g id="ID000022"><line class="cls-7" x1="118.8" y1="263.4" x2="118.8" y2="280.5"/></g><g id="ID000023"><text class="cls-8" transform="translate(108.28 296.74)">50</text></g><g id="ID000024"><text class="cls-4" transform="translate(82.71 260.81)">C</text></g><g id="ID000025"><text class="cls-4" transform="translate(57.06 260.81)">C</text></g><g id="ID000026"><text class="cls-4" transform="translate(56.35 209.82)">G</text></g><g id="ID000027"><line class="cls-7" x1="93.1" y1="208.2" x2="93.1" y2="239"/></g><g id="ID000027-2"><line class="cls-7" x1="68.6" y1="208.8" x2="68.6" y2="239.6"/></g><g id="ID000028"><line class="cls-7" x1="118.8" y1="208.2" x2="118.8" y2="239"/></g><g id="ID000029"><line class="cls-7" x1="144.4" y1="208.2" x2="144.4" y2="239"/></g><g id="ID000030"><line class="cls-7" x1="170.1" y1="208.2" x2="170.1" y2="239"/></g><g id="ID000031"><line class="cls-7" x1="299.3" y1="123.2" x2="289" y2="123.2"/></g><g id="ID000031-2"><line class="cls-7" x1="298.8" y1="253.1" x2="288.5" y2="253.1"/></g><g id="ID000032"><line class="cls-7" x1="221.4" y1="208.2" x2="221.4" y2="239"/></g><g id="ID000033"><polygon class="cls-9" points="247 224.2 247.2 224.2 247.3 224.2 247.5 224.1 247.6 224.1 247.8 224.1 248 224 248.1 223.9 248.2 223.9 248.4 223.8 248.5 223.7 248.6 223.6 248.8 223.5 248.9 223.4 249 223.2 249.1 223.1 249.2 223 249.3 222.8 249.3 222.7 249.4 222.5 249.4 222.4 249.5 222.2 249.5 222.1 249.6 221.9 249.6 221.7 249.6 221.6 249.6 221.4 249.5 221.2 249.5 221.1 249.5 220.9 249.4 220.8 249.4 220.6 249.3 220.5 249.2 220.3 249.1 220.2 249 220.1 248.9 219.9 248.8 219.8 248.7 219.7 248.6 219.6 248.5 219.5 248.3 219.4 248.2 219.3 248 219.3 247.9 219.2 247.7 219.2 247.6 219.1 247.4 219.1 247.2 219.1 247.1 219.1 246.9 219.1 246.8 219.1 246.6 219.1 246.4 219.1 246.3 219.2 246.1 219.2 246 219.3 245.8 219.3 245.7 219.4 245.6 219.5 245.4 219.6 245.3 219.7 245.2 219.8 245.1 219.9 245 220.1 244.9 220.2 244.8 220.3 244.7 220.5 244.6 220.6 244.6 220.8 244.5 220.9 244.5 221.1 244.5 221.2 244.4 221.4 244.4 221.6 244.4 221.7 244.4 221.9 244.5 222.1 244.5 222.2 244.6 222.4 244.6 222.5 244.7 222.7 244.7 222.8 244.8 223 244.9 223.1 245 223.2 245.1 223.4 245.2 223.5 245.4 223.6 245.5 223.7 245.6 223.8 245.8 223.9 245.9 223.9 246.1 224 246.2 224.1 246.4 224.1 246.5 224.1 246.7 224.2 246.8 224.2 247 224.2"/></g><g id="ID000035"><text class="cls-6" transform="translate(325.67 158.21)">G</text></g><g id="ID000036"><text class="cls-6" transform="translate(421.86 160.21)">G</text></g><g id="ID000037"><text class="cls-10" transform="translate(562.93 126.14)">G</text></g><g id="ID000038"><text class="cls-11" transform="translate(511.63 203.1)">G</text></g><g id="ID000039"><text class="cls-10" transform="translate(538.01 203.1)">C</text></g><g id="ID000040"><text class="cls-4" transform="translate(364.14 305.7)">G</text></g><g id="ID000041"><text class="cls-6" transform="translate(364.14 280.05)">G</text></g><g id="ID000042"><text class="cls-6" transform="translate(460.33 280.05)">G</text></g><g id="ID000043"><text class="cls-4" transform="translate(538.01 280.05)">U</text></g><g id="ID000044"><text class="cls-4" transform="translate(537.29 254.4)">G</text></g><g id="ID000045"><text class="cls-4" transform="translate(512.36 254.4)">C</text></g><g id="ID000046"><line class="cls-7" x1="522.8" y1="254.9" x2="522.8" y2="281.2"/></g><g id="ID000047"><text class="cls-8" transform="translate(512.28 294.32)">40</text></g><g id="ID000048"><text class="cls-6" transform="translate(421.86 235.16)">G</text></g><g id="ID000049"><text class="cls-6" transform="translate(325.67 235.16)">G</text></g><g id="ID000050"><line class="cls-7" x1="522.8" y1="202.8" x2="522.8" y2="233.6"/></g><g id="ID000051"><line class="cls-12" x1="558.7" y1="192.6" x2="589.4" y2="192.6"/></g><g id="ID000052"><polygon class="cls-9" points="570.8 188.7 572.9 190.6 575.1 191.3 577.2 191.6 581.5 192.6 577.2 193.5 575.1 193.8 572.9 194.5 570.8 196.4 570.8 188.7"/></g><g id="ID000053"><line class="cls-7" x1="548.4" y1="202.8" x2="548.4" y2="233.6"/></g><g id="ID000055"><text class="cls-13" transform="translate(588.59 203.1)">G</text></g><g id="ID000056"><text class="cls-13" transform="translate(614.96 203.1)">C</text></g><g id="ID000057"><text class="cls-13" transform="translate(640.61 203.1)">C</text></g><g id="ID000058"><text class="cls-14" transform="translate(666.98 203.1)">A</text></g><g id="ID000059"><line class="cls-7" x1="676.7" y1="180.4" x2="676.7" y2="163.4"/></g><g id="ID000060"><text class="cls-8" transform="translate(666.19 161.94)">20</text></g><g id="ID000061"><text class="cls-13" transform="translate(691.19 203.1)">G</text></g><g id="ID000062"><text class="cls-13" transform="translate(717.56 203.1)">U</text></g><g id="ID000063"><text class="cls-13" transform="translate(743.22 209.51)">U</text></g><g id="ID000064"><text class="cls-13" transform="translate(743.22 241.57)">C</text></g><g id="ID000065"><text class="cls-13" transform="translate(716.84 254.4)">G</text></g><g id="ID000066"><text class="cls-13" transform="translate(691.91 254.4)">C</text></g><g id="ID000067"><text class="cls-13" transform="translate(666.26 254.4)">U</text></g><g id="ID000068"><text class="cls-13" transform="translate(639.89 254.4)">G</text></g><g id="ID000069"><text class="cls-13" transform="translate(614.24 254.4)">G</text></g><g id="ID000070"><text class="cls-13" transform="translate(589.31 254.4)">U</text></g><g id="ID000071"><line class="cls-7" x1="599.7" y1="254.9" x2="599.7" y2="272"/></g><g id="ID000072"><text class="cls-8" transform="translate(589.24 286.32)">30</text></g><g id="ID000073"><text class="cls-10" transform="translate(518.05 158.21)">G</text></g><g id="ID000074"><text class="cls-6" transform="translate(460.33 209.51)">G</text></g><g id="ID000075"><text class="cls-10" transform="translate(416.17 331.35)">U</text></g><g id="ID000076"><text class="cls-10" transform="translate(390.52 331.35)">U</text></g><g id="ID000077"><polygon class="cls-9" points="599.7 217.8 599.9 217.8 600 217.8 600.2 217.7 600.3 217.7 600.5 217.6 600.7 217.6 600.8 217.5 601 217.4 601.1 217.4 601.2 217.3 601.3 217.2 601.5 217.1 601.6 216.9 601.7 216.8 601.8 216.7 601.9 216.6 602 216.4 602 216.3 602.1 216.1 602.2 216 602.2 215.8 602.2 215.6 602.2 215.5 602.3 215.3 602.3 215.2 602.3 215 602.2 214.8 602.2 214.7 602.2 214.5 602.1 214.4 602.1 214.2 602 214.1 601.9 213.9 601.8 213.8 601.7 213.6 601.6 213.5 601.5 213.4 601.4 213.3 601.3 213.2 601.2 213.1 601 213 600.9 212.9 600.7 212.9 600.6 212.8 600.4 212.7 600.3 212.7 600.1 212.7 600 212.6 599.8 212.6 599.6 212.6 599.5 212.6 599.3 212.7 599.1 212.7 599 212.7 598.8 212.8 598.7 212.9 598.5 212.9 598.4 213 598.2 213.1 598.1 213.2 598 213.3 597.9 213.4 597.8 213.5 597.7 213.6 597.6 213.8 597.5 213.9 597.4 214.1 597.3 214.2 597.3 214.4 597.2 214.5 597.2 214.7 597.2 214.8 597.1 215 597.1 215.2 597.1 215.3 597.2 215.5 597.2 215.6 597.2 215.8 597.2 216 597.3 216.1 597.4 216.3 597.4 216.4 597.5 216.6 597.6 216.7 597.7 216.8 597.8 216.9 597.9 217.1 598 217.2 598.2 217.3 598.3 217.4 598.5 217.4 598.6 217.5 598.8 217.6 598.9 217.6 599.1 217.7 599.2 217.7 599.4 217.8 599.5 217.8 599.7 217.8"/></g><g id="ID000078"><line class="cls-7" x1="625.3" y1="202.8" x2="625.3" y2="233.6"/></g><g id="ID000079"><line class="cls-7" x1="651" y1="202.8" x2="651" y2="233.6"/></g><g id="ID000080"><line class="cls-7" x1="676.7" y1="202.8" x2="676.7" y2="233.6"/></g><g id="ID000081"><line class="cls-7" x1="702.3" y1="202.8" x2="702.3" y2="233.6"/></g><g id="ID000083"><line class="cls-12" x1="257.3" y1="196" x2="365" y2="196"/></g><g id="ID000084"><polygon class="cls-9" points="263.9 192.1 266 194 268.2 194.7 270.3 195 274.6 196 270.3 196.9 268.2 197.2 266 197.9 263.9 199.8 263.9 192.1"/></g><g id="ID000085"><line class="cls-12" x1="512.7" y1="238.7" x2="443" y2="223.8"/></g><g id="ID000086"><polygon class="cls-9" points="489.6 237.8 488 235.5 486 234.4 484 233.6 480 231.8 484.4 231.8 486.5 231.9 488.8 231.7 491.2 230.3 489.6 237.8"/></g><g id="ID000087"><line class="cls-12" x1="288.4" y1="123.2" x2="327.4" y2="140.5"/></g><g id="ID000088"><polygon class="cls-9" points="305.7 126.2 306.9 128.8 308.6 130.3 310.4 131.4 313.9 134.1 309.6 133.2 307.5 132.6 305.3 132.3 302.6 133.2 305.7 126.2"/></g><g id="ID000089"><line class="cls-12" x1="568.4" y1="121.1" x2="528.4" y2="181"/></g><g id="ID000090"><polygon class="cls-9" points="557 145.4 554.3 146.1 552.5 147.5 551.1 149.1 547.9 152.2 549.5 148.1 550.4 146.1 551.1 144 550.7 141.1 557 145.4"/></g><g id="ID000091"><line class="cls-12" x1="366" y1="191.6" x2="288.4" y2="155.4"/></g><g id="ID000092"><polygon class="cls-9" points="326.3 177.2 325.2 174.5 323.5 173 321.7 171.9 318.2 169.2 322.5 170.1 324.6 170.7 326.8 171 329.6 170.2 326.3 177.2"/></g><g id="ID000093"><line class="cls-12" x1="347" y1="146.7" x2="422.7" y2="146.7"/></g><g id="ID000094"><polygon class="cls-9" points="382.6 142.8 384.8 144.7 386.9 145.4 389 145.7 393.3 146.7 389 147.6 386.9 147.9 384.8 148.6 382.6 150.5 382.6 142.8"/></g><g id="ID000095"><line class="cls-12" x1="443" y1="145.4" x2="564" y2="117.9"/></g><g id="ID000096"><polygon class="cls-9" points="499.1 128.8 501.6 130.2 503.8 130.4 506 130.2 510.3 130.2 506.4 132.1 504.4 132.9 502.4 133.9 500.8 136.3 499.1 128.8"/></g><g id="ID000097"><line class="cls-12" x1="597.6" y1="236.6" x2="539.2" y2="156.9"/></g><g id="ID000098"><polygon class="cls-9" points="572.8 208.8 573.1 206 572.4 203.9 571.4 201.9 569.6 197.9 572.9 200.8 574.5 202.3 576.2 203.7 579 204.3 572.8 208.8"/></g><g id="ID000099"><line class="cls-12" x1="521.5" y1="151.5" x2="479.1" y2="189.1"/></g><g id="ID000100"><polygon class="cls-9" points="519.6 157.6 516.7 157.5 514.7 158.5 512.9 159.7 509.1 161.8 511.6 158.2 513 156.6 514.2 154.7 514.5 151.8 519.6 157.6"/></g><g id="ID000101"><line class="cls-12" x1="467.9" y1="205.6" x2="430.1" y2="308.2"/></g><g id="ID000102"><polygon class="cls-9" points="453.6 255.5 451 256.8 449.7 258.6 448.7 260.5 446.3 264.2 446.9 259.8 447.3 257.7 447.4 255.5 446.4 252.8 453.6 255.5"/></g><g id="ID000103"><line class="cls-12" x1="481.7" y1="266.5" x2="538.1" y2="266.5"/></g><g id="ID000104"><polygon class="cls-9" points="506.7 262.7 508.8 264.6 511 265.2 513.1 265.5 517.4 266.5 513.1 267.5 511 267.8 508.8 268.4 506.7 270.4 506.7 262.7"/></g><g id="ID000105"><line class="cls-12" x1="422.7" y1="221.6" x2="347" y2="221.6"/></g><g id="ID000106"><polygon class="cls-9" points="388.1 225.5 386 223.5 383.9 222.9 381.7 222.6 377.4 221.6 381.7 220.6 383.9 220.3 386 219.7 388.1 217.8 388.1 225.5"/></g><g id="ID000107"><line class="cls-12" x1="385.5" y1="266.5" x2="461.2" y2="266.5"/></g><g id="ID000108"><polygon class="cls-9" points="416.1 262.7 418.2 264.6 420.4 265.2 422.5 265.5 426.8 266.5 422.5 267.5 420.4 267.8 418.2 268.4 416.1 270.4 416.1 262.7"/></g><g id="ID000109"><polyline class="cls-7" points="291.9 155.1 309.9 155.1 309.9 225.6 288.3 244"/></g><g id="ID000110"><polygon class="cls-9" points="309.7 188.9 309.9 188.9 310 188.9 310.2 188.9 310.4 188.8 310.5 188.8 310.7 188.7 310.8 188.7 311 188.6 311.1 188.5 311.2 188.4 311.4 188.3 311.5 188.2 311.6 188.1 311.7 188 311.8 187.8 311.9 187.7 312 187.6 312 187.4 312.1 187.3 312.2 187.1 312.2 186.9 312.2 186.8 312.3 186.6 312.3 186.5 312.3 186.3 312.3 186.1 312.3 186 312.2 185.8 312.2 185.7 312.1 185.5 312.1 185.4 312 185.2 311.9 185.1 311.9 184.9 311.8 184.8 311.7 184.7 311.5 184.6 311.4 184.4 311.3 184.3 311.2 184.2 311 184.1 310.9 184.1 310.8 184 310.6 183.9 310.4 183.9 310.3 183.8 310.1 183.8 310 183.8 309.8 183.8 309.6 183.8 309.5 183.8 309.3 183.8 309.1 183.8 309 183.9 308.8 183.9 308.7 184 308.5 184.1 308.4 184.1 308.3 184.2 308.1 184.3 308 184.4 307.9 184.6 307.8 184.7 307.7 184.8 307.6 184.9 307.5 185.1 307.4 185.2 307.4 185.4 307.3 185.5 307.2 185.7 307.2 185.8 307.2 186 307.2 186.1 307.1 186.3 307.1 186.5 307.2 186.6 307.2 186.8 307.2 186.9 307.3 187.1 307.3 187.3 307.4 187.4 307.5 187.6 307.5 187.7 307.6 187.8 307.7 188 307.8 188.1 308 188.2 308.1 188.3 308.2 188.4 308.3 188.5 308.5 188.6 308.6 188.7 308.8 188.7 308.9 188.8 309.1 188.8 309.2 188.9 309.4 188.9 309.6 188.9 309.7 188.9"/></g><g id="ID000111"><line class="cls-7" x1="299.1" y1="123.1" x2="299.1" y2="253.1"/></g><g id="ID000112"><polygon class="cls-15" points="296.5 174.2 296.5 180.4 301.6 180.4 301.6 174.2 296.5 174.2"/></g><g id="ID000113"><polygon class="cls-15" points="299.1 191.6 302 185.6 296.2 185.6 299.1 191.6"/></g><g id="ID000114"><line class="cls-7" x1="466.3" y1="204.8" x2="406" y2="308.9"/></g><g id="ID000115"><polygon class="cls-9" points="441.3 248.2 436.3 251.1 441.3 254 441.3 248.2"/></g><g id="ID000116"><polygon class="cls-9" points="433.5 260.9 433.7 261 433.8 261 434 261.1 434.1 261.1 434.3 261.2 434.5 261.2 434.6 261.2 434.8 261.2 435 261.2 435.1 261.2 435.3 261.2 435.4 261.1 435.6 261.1 435.8 261 435.9 261 436 260.9 436.2 260.8 436.3 260.8 436.5 260.6 436.6 260.5 436.7 260.4 436.8 260.3 436.9 260.2 437 260 437.1 259.9 437.1 259.8 437.2 259.6 437.3 259.5 437.3 259.3 437.4 259.1 437.4 259 437.4 258.8 437.4 258.7 437.4 258.5 437.4 258.3 437.4 258.2 437.3 258 437.3 257.9 437.2 257.7 437.1 257.6 437.1 257.4 437 257.3 436.9 257.1 436.8 257 436.7 256.9 436.6 256.8 436.5 256.7 436.3 256.6 436.2 256.5 436 256.4 435.9 256.3 435.8 256.3 435.6 256.2 435.4 256.2 435.3 256.1 435.1 256.1 435 256.1 434.8 256.1 434.6 256.1 434.5 256.1 434.3 256.1 434.1 256.2 434 256.2 433.9 256.3 433.7 256.4 433.6 256.4 433.4 256.5 433.3 256.6 433.2 256.7 433 256.8 432.9 256.9 432.8 257.1 432.7 257.2 432.6 257.3 432.6 257.5 432.5 257.6 432.4 257.8 432.4 257.9 432.3 258.1 432.3 258.2 432.3 258.4 432.3 258.6 432.3 258.7 432.3 258.9 432.3 259.1 432.3 259.2 432.4 259.4 432.4 259.5 432.5 259.7 432.6 259.8 432.6 260 432.7 260.1 432.8 260.2 432.9 260.4 433 260.5 433.1 260.6 433.3 260.7 433.4 260.8 433.5 260.9"/></g><g id="ID000117"><line class="cls-7" x1="728" y1="202.8" x2="728" y2="233.6"/></g><g id="ID000118"><polygon class="cls-15" points="728 210.3 725.1 215.3 730.8 215.3 728 210.3"/></g><g id="ID000119"><polygon class="cls-15" points="728 224.4 728.1 224.4 728.3 224.4 728.4 224.4 728.6 224.4 728.8 224.3 728.9 224.2 729.1 224.2 729.2 224.1 729.3 224 729.5 223.9 729.6 223.8 729.7 223.7 729.8 223.6 730 223.5 730 223.4 730.1 223.2 730.2 223.1 730.3 222.9 730.3 222.8 730.4 222.6 730.5 222.5 730.5 222.3 730.5 222.2 730.5 222 730.5 221.8 730.5 221.7 730.5 221.5 730.5 221.4 730.4 221.2 730.4 221 730.3 220.9 730.2 220.7 730.2 220.6 730.1 220.4 730 220.3 729.9 220.2 729.8 220.1 729.7 220 729.5 219.9 729.4 219.8 729.3 219.7 729.1 219.6 729 219.5 728.8 219.5 728.7 219.4 728.5 219.4 728.4 219.3 728.2 219.3 728 219.3 727.9 219.3 727.7 219.3 727.5 219.3 727.4 219.4 727.2 219.4 727.1 219.5 726.9 219.5 726.8 219.6 726.6 219.7 726.5 219.8 726.4 219.9 726.2 220 726.1 220.1 726 220.2 725.9 220.3 725.8 220.4 725.7 220.6 725.7 220.7 725.6 220.9 725.5 221 725.5 221.2 725.4 221.4 725.4 221.5 725.4 221.7 725.4 221.8 725.4 222 725.4 222.2 725.4 222.3 725.5 222.5 725.5 222.6 725.6 222.8 725.6 222.9 725.7 223.1 725.8 223.2 725.9 223.4 726 223.5 726.1 223.6 726.2 223.7 726.3 223.8 726.4 223.9 726.6 224 726.7 224.1 726.8 224.2 727 224.2 727.2 224.3 727.3 224.4 727.5 224.4 727.6 224.4 727.8 224.4 728 224.4"/></g><g id="ID000120"><line class="cls-7" x1="565.7" y1="118.6" x2="537.5" y2="138.7"/></g><g id="ID000121"><polygon class="cls-15" points="548.1 130.8 553.8 130.3 550.5 125.6 548.1 130.8"/></g><g id="ID000122"><line class="cls-7" x1="545.4" y1="182.1" x2="534.2" y2="156.1"/></g><g id="ID000123"><polygon class="cls-9" points="546.8 178.6 544.8 173.9 540 175.9 542.1 180.6 546.8 178.6"/></g><g id="ID000124"><polygon class="cls-9" points="539.1 168.6 539 168.7 538.8 168.8 538.7 168.9 538.6 168.9 538.5 169.1 538.3 169.2 538.2 169.3 538.1 169.4 538 169.5 537.9 169.7 537.9 169.8 537.8 170 537.7 170.1 537.7 170.3 537.7 170.4 537.6 170.6 537.6 170.8 537.6 170.9 537.6 171.1 537.6 171.2 537.6 171.4 537.7 171.6 537.7 171.7 537.8 171.9 537.8 172 537.9 172.2 538 172.3 538 172.4 538.2 172.6 538.3 172.7 538.4 172.8 538.5 172.9 538.6 173 538.8 173.1 538.9 173.2 539 173.3 539.2 173.4 539.3 173.4 539.5 173.5 539.7 173.5 539.8 173.5 540 173.5 540.1 173.5 540.3 173.5 540.5 173.5 540.6 173.5 540.8 173.5 540.9 173.4 541.1 173.4 541.2 173.3 541.4 173.2 541.5 173.1 541.7 173.1 541.8 173 541.9 172.9 542 172.7 542.1 172.6 542.2 172.5 542.3 172.4 542.4 172.2 542.5 172.1 542.5 171.9 542.6 171.8 542.6 171.6 542.7 171.4 542.7 171.3 542.7 171.1 542.7 171 542.7 170.8 542.7 170.6 542.7 170.5 542.6 170.3 542.6 170.2 542.5 170 542.5 169.9 542.4 169.7 542.3 169.6 542.2 169.4 542.1 169.3 542 169.2 541.9 169.1 541.8 169 541.6 168.9 541.5 168.8 541.3 168.7 541.2 168.6 541 168.6 540.9 168.5 540.7 168.5 540.6 168.4 540.4 168.4 540.2 168.4 540.1 168.4 539.9 168.4 539.8 168.4 539.6 168.5 539.5 168.5 539.3 168.6 539.1 168.6"/></g><g id="ID000125"><line class="cls-7" x1="439.1" y1="154.9" x2="465.3" y2="189.8"/></g><g id="ID000126"><polygon class="cls-9" points="448.7 166.9 448.5 167 448.4 167.1 448.3 167.2 448.2 167.4 448.1 167.5 448 167.6 447.9 167.8 447.9 167.9 447.8 168.1 447.8 168.2 447.7 168.4 447.7 168.6 447.7 168.7 447.6 168.9 447.6 169 447.6 169.2 447.7 169.4 447.7 169.5 447.7 169.7 447.8 169.8 447.9 170 447.9 170.1 448 170.3 448.1 170.4 448.2 170.6 448.3 170.7 448.4 170.8 448.5 170.9 448.6 171 448.8 171.1 448.9 171.2 449 171.3 449.2 171.3 449.4 171.4 449.5 171.4 449.7 171.5 449.8 171.5 450 171.5 450.1 171.5 450.3 171.5 450.5 171.5 450.6 171.5 450.8 171.5 451 171.4 451.1 171.4 451.3 171.3 451.4 171.2 451.5 171.2 451.7 171.1 451.8 171 451.9 170.9 452 170.8 452.2 170.6 452.3 170.5 452.4 170.4 452.4 170.2 452.5 170.1 452.6 169.9 452.6 169.8 452.7 169.6 452.7 169.5 452.8 169.3 452.8 169.2 452.8 169 452.8 168.8 452.8 168.7 452.7 168.5 452.7 168.4 452.6 168.2 452.6 168 452.5 167.9 452.5 167.8 452.4 167.6 452.3 167.5 452.2 167.3 452.1 167.2 452 167.1 451.8 167 451.7 166.9 451.6 166.8 451.4 166.7 451.3 166.6 451.1 166.6 451 166.5 450.8 166.5 450.7 166.4 450.5 166.4 450.4 166.4 450.2 166.4 450 166.4 449.9 166.4 449.7 166.5 449.5 166.5 449.4 166.6 449.2 166.6 449.1 166.7 448.9 166.8 448.8 166.8 448.7 166.9"/></g><g id="ID000127"><polygon class="cls-9" points="459.8 178.2 456.7 174.1 452.6 177.1 455.7 181.2 459.8 178.2"/></g><g id="ID000128"><line class="cls-7" x1="371.1" y1="189.8" x2="344.9" y2="154.9"/></g><g id="ID000129"><polygon class="cls-9" points="359.6 175.7 359.7 175.6 359.8 175.5 359.9 175.4 360 175.2 360.1 175.1 360.2 175 360.3 174.8 360.4 174.7 360.4 174.5 360.5 174.4 360.5 174.2 360.5 174.1 360.6 173.9 360.6 173.8 360.6 173.6 360.6 173.4 360.6 173.3 360.5 173.1 360.5 172.9 360.4 172.8 360.4 172.6 360.3 172.5 360.2 172.4 360.1 172.2 360 172.1 359.9 171.9 359.8 171.8 359.7 171.7 359.6 171.6 359.5 171.5 359.3 171.4 359.2 171.4 359 171.3 358.9 171.2 358.7 171.2 358.6 171.1 358.4 171.1 358.2 171.1 358.1 171.1 357.9 171.1 357.8 171.1 357.6 171.1 357.4 171.1 357.3 171.2 357.1 171.2 357 171.3 356.8 171.4 356.7 171.5 356.5 171.6 356.4 171.6 356.3 171.8 356.2 171.9 356.1 172 356 172.1 355.9 172.2 355.8 172.4 355.7 172.5 355.6 172.7 355.6 172.8 355.5 173 355.5 173.1 355.5 173.3 355.5 173.5 355.5 173.6 355.5 173.8 355.5 174 355.5 174.1 355.5 174.3 355.6 174.4 355.6 174.6 355.7 174.7 355.8 174.9 355.9 175 355.9 175.2 356 175.3 356.1 175.4 356.3 175.5 356.4 175.6 356.5 175.7 356.6 175.8 356.8 175.9 356.9 176 357.1 176 357.2 176.1 357.4 176.1 357.6 176.2 357.7 176.2 357.9 176.2 358 176.2 358.2 176.2 358.4 176.2 358.5 176.2 358.7 176.1 358.8 176.1 359 176 359.1 176 359.3 175.9 359.4 175.8 359.6 175.7"/></g><g id="ID000130"><polygon class="cls-9" points="349.4 165.5 352.5 169.6 356.6 166.5 353.5 162.4 349.4 165.5"/></g><g id="ID000131"><line class="cls-7" x1="338.8" y1="156.9" x2="338.8" y2="213.4"/></g><g id="ID000132"><polygon class="cls-9" points="338.8 182.9 338.6 182.9 338.5 182.9 338.3 182.9 338.1 183 338 183 337.8 183.1 337.7 183.1 337.5 183.2 337.4 183.3 337.3 183.4 337.1 183.5 337 183.6 336.9 183.7 336.8 183.9 336.7 184 336.6 184.1 336.5 184.3 336.5 184.4 336.4 184.6 336.3 184.7 336.3 184.9 336.2 185 336.2 185.2 336.2 185.4 336.2 185.5 336.2 185.7 336.2 185.8 336.3 186 336.3 186.1 336.4 186.3 336.4 186.5 336.5 186.6 336.6 186.8 336.6 186.9 336.7 187 336.8 187.1 337 187.3 337.1 187.4 337.2 187.5 337.3 187.6 337.5 187.7 337.6 187.8 337.8 187.8 337.9 187.9 338.1 187.9 338.2 188 338.4 188 338.5 188 338.7 188 338.9 188 339 188 339.2 188 339.4 188 339.5 187.9 339.7 187.9 339.8 187.8 340 187.8 340.1 187.7 340.2 187.6 340.4 187.5 340.5 187.4 340.6 187.3 340.7 187.1 340.8 187 340.9 186.9 341 186.8 341.1 186.6 341.1 186.5 341.2 186.3 341.2 186.1 341.3 186 341.3 185.8 341.3 185.7 341.4 185.5 341.3 185.4 341.3 185.2 341.3 185 341.3 184.9 341.2 184.7 341.2 184.6 341.1 184.4 341 184.3 341 184.1 340.9 184 340.8 183.9 340.7 183.7 340.5 183.6 340.4 183.5 340.3 183.4 340.2 183.3 340 183.2 339.9 183.1 339.7 183.1 339.6 183 339.4 183 339.3 182.9 339.1 182.9 338.9 182.9 338.8 182.9"/></g><g id="ID000133"><polygon class="cls-9" points="341.4 195.4 341.4 190.2 336.2 190.2 336.2 195.4 341.4 195.4"/></g><g id="ID000134"><line class="cls-7" x1="467.8" y1="261.7" x2="442.6" y2="232.4"/></g><g id="ID000135"><polygon class="cls-9" points="461.2 254.1 461.3 254 461.5 253.8 461.6 253.7 461.6 253.6 461.7 253.4 461.8 253.3 461.9 253.2 462 253 462 252.9 462 252.7 462.1 252.5 462.1 252.4 462.1 252.2 462.1 252.1 462.1 251.9 462.1 251.7 462 251.6 462 251.4 462 251.3 461.9 251.1 461.8 251 461.8 250.8 461.7 250.7 461.6 250.6 461.5 250.4 461.4 250.3 461.2 250.2 461.1 250.1 461 250 460.8 249.9 460.7 249.8 460.5 249.8 460.4 249.7 460.2 249.7 460.1 249.6 459.9 249.6 459.8 249.6 459.6 249.6 459.4 249.6 459.3 249.6 459.1 249.6 459 249.6 458.8 249.7 458.6 249.7 458.5 249.8 458.4 249.9 458.2 249.9 458.1 250 457.9 250.1 457.8 250.2 457.7 250.3 457.6 250.5 457.5 250.6 457.4 250.7 457.3 250.9 457.2 251 457.2 251.2 457.1 251.3 457.1 251.5 457 251.6 457 251.8 457 251.9 457 252.1 457 252.3 457 252.4 457 252.6 457.1 252.8 457.1 252.9 457.2 253.1 457.2 253.2 457.3 253.4 457.4 253.5 457.5 253.6 457.6 253.8 457.7 253.9 457.8 254 457.9 254.1 458 254.2 458.2 254.3 458.3 254.4 458.5 254.4 458.6 254.5 458.8 254.6 458.9 254.6 459.1 254.6 459.2 254.7 459.4 254.7 459.6 254.7 459.7 254.7 459.9 254.7 460.1 254.6 460.2 254.6 460.4 254.6 460.5 254.5 460.7 254.4 460.8 254.4 461 254.3 461.1 254.2 461.2 254.1"/></g><g id="ID000136"><polygon class="cls-9" points="446.2 240.7 449.6 244.6 453.5 241.3 450.1 237.4 446.2 240.7"/></g><g id="ID000137"><line class="cls-7" x1="472.5" y1="209.2" x2="472.5" y2="259.2"/></g><g id="ID000138"><polygon class="cls-9" points="472.5 234 472.3 234 472.1 234 472 234.1 471.8 234.1 471.6 234.1 471.5 234.2 471.4 234.2 471.2 234.3 471.1 234.4 470.9 234.5 470.8 234.6 470.7 234.7 470.6 234.8 470.5 234.9 470.4 235.1 470.3 235.2 470.2 235.4 470.1 235.5 470 235.6 470 235.8 470 236 469.9 236.1 469.9 236.3 469.9 236.4 469.9 236.6 469.9 236.8 469.9 236.9 469.9 237.1 470 237.2 470 237.4 470.1 237.6 470.1 237.7 470.2 237.9 470.3 238 470.4 238.1 470.5 238.2 470.6 238.4 470.7 238.5 470.9 238.6 471 238.7 471.1 238.8 471.3 238.8 471.4 238.9 471.6 239 471.7 239 471.9 239.1 472 239.1 472.2 239.1 472.4 239.1 472.5 239.1 472.7 239.1 472.9 239.1 473 239.1 473.2 239 473.3 239 473.5 238.9 473.6 238.8 473.8 238.8 473.9 238.7 474 238.6 474.2 238.5 474.3 238.4 474.4 238.2 474.5 238.1 474.6 238 474.7 237.9 474.8 237.7 474.8 237.6 474.9 237.4 474.9 237.2 475 237.1 475 236.9 475 236.8 475 236.6 475 236.4 475 236.3 475 236.1 474.9 236 474.9 235.8 474.8 235.6 474.8 235.5 474.7 235.4 474.6 235.2 474.5 235.1 474.4 234.9 474.3 234.8 474.2 234.7 474.1 234.6 474 234.5 473.8 234.4 473.7 234.3 473.5 234.2 473.4 234.2 473.2 234.1 473.1 234.1 472.9 234.1 472.8 234 472.6 234 472.5 234"/></g><g id="ID000139"><polygon class="cls-9" points="475 247.5 475 242.3 469.9 242.3 469.9 247.5 475 247.5"/></g><text class="cls-16" transform="translate(43.16 183.78)">5</text><text class="cls-17" transform="translate(59.84 183.78)">’</text><text class="cls-16" transform="translate(43.16 289.32)">3</text><text class="cls-17" transform="translate(59.84 289.32)">’</text><polygon class="cls-18" points="371.9 258.4 341.8 219.5 341.8 156.9 371.9 195.8 371.9 258.4"/><polygon class="cls-18" points="469.1 261.4 439 222.5 439 159.9 469.1 198.8 469.1 261.4"/><text class="cls-19" transform="translate(325.49 73.99)">Chili</text><text class="cls-20" transform="translate(374.11 73.99)"> </text><text class="cls-19" transform="translate(379.68 73.99)">Aptamer</text></svg>