<?xml version="1.0" encoding="utf-8"?>
<!-- Generator: Adobe Illustrator 25.2.0, SVG Export Plug-In . SVG Version: 6.00 Build 0)  -->
<svg version="1.1" id="_图层_1" xmlns="http://www.w3.org/2000/svg" xmlns:xlink="http://www.w3.org/1999/xlink" x="0px" y="0px"
	 viewBox="0 0 400 400" style="enable-background:new 0 0 400 400;" xml:space="preserve">
<style type="text/css">
	.st0{fill:#C2C2FF;}
	.st1{fill:#FFC0CB;}
	.st2{fill:none;stroke:#000000;stroke-width:1.33;stroke-linejoin:round;}
	.st3{fill:#228B22;}
	.st4{fill:#32CD32;}
	.st5{fill:none;stroke:#000000;stroke-width:0.25;stroke-linejoin:round;}
	.st6{fill:#09FEFE;}
	.st7{fill:#FFFFFF;stroke:#000000;stroke-miterlimit:10;}
	.st8{fill:none;stroke:#000000;stroke-width:0.25;stroke-miterlimit:10;}
	.st9{font-family:'ArialMT';}
	.st10{font-size:24px;}
	.st11{font-size:21px;}
</style>
<path class="st0" d="M239.9,376.6V375h5.8v5.1c-0.9,0.7-1.8,1.2-2.8,1.6s-1.9,0.5-2.9,0.5c-1.4,0-2.6-0.3-3.7-0.9
	c-1.1-0.6-1.9-1.4-2.5-2.5s-0.8-2.3-0.8-3.7s0.3-2.6,0.8-3.8s1.4-2,2.4-2.6s2.3-0.8,3.6-0.8c1,0,1.9,0.2,2.7,0.5
	c0.8,0.3,1.4,0.8,1.9,1.4s0.8,1.3,1,2.2l-1.6,0.5c-0.2-0.7-0.5-1.2-0.8-1.6c-0.3-0.4-0.7-0.7-1.3-1s-1.2-0.4-1.9-0.4
	c-0.8,0-1.5,0.1-2.2,0.4c-0.6,0.2-1.1,0.6-1.5,1s-0.7,0.9-0.9,1.4c-0.4,0.9-0.5,1.8-0.5,2.8c0,1.2,0.2,2.2,0.6,3.1
	c0.4,0.8,1,1.4,1.8,1.8c0.8,0.4,1.7,0.6,2.6,0.6c0.8,0,1.6-0.1,2.3-0.5c0.8-0.3,1.3-0.6,1.7-1v-2.6L239.9,376.6L239.9,376.6
	L239.9,376.6z"/>
<path class="st0" d="M225.4,376.2v-1.6h5.8v5.1c-0.9,0.7-1.8,1.2-2.8,1.6s-1.9,0.5-2.9,0.5c-1.4,0-2.6-0.3-3.7-0.9
	c-1.1-0.6-1.9-1.4-2.5-2.5s-0.8-2.3-0.8-3.7s0.3-2.6,0.8-3.8s1.4-2,2.4-2.6s2.3-0.8,3.6-0.8c1,0,1.9,0.2,2.7,0.5
	c0.8,0.3,1.4,0.8,1.9,1.4s0.8,1.3,1,2.2l-1.6,0.5c-0.2-0.7-0.5-1.2-0.8-1.6c-0.3-0.4-0.7-0.7-1.3-1s-1.2-0.4-1.9-0.4
	c-0.8,0-1.5,0.1-2.2,0.4c-0.6,0.2-1.1,0.6-1.5,1s-0.7,0.9-0.9,1.4c-0.4,0.9-0.5,1.8-0.5,2.8c0,1.2,0.2,2.2,0.6,3.1
	c0.4,0.8,1,1.4,1.8,1.8c0.8,0.4,1.7,0.6,2.6,0.6c0.8,0,1.6-0.1,2.3-0.5c0.8-0.3,1.3-0.6,1.7-1v-2.6L225.4,376.2L225.4,376.2
	L225.4,376.2z"/>
<path class="st0" d="M205.2,382l5.3-13.8h2l5.6,13.8H216l-1.6-4.2h-5.8l-1.5,4.2H205.2z M209.1,376.4h4.7l-1.4-3.8
	c-0.4-1.2-0.8-2.1-1-2.9c-0.2,0.9-0.4,1.8-0.7,2.6L209.1,376.4z"/>
<path class="st0" d="M198.3,376.1v-1.6h5.8v5.1c-0.9,0.7-1.8,1.2-2.8,1.6s-1.9,0.5-2.9,0.5c-1.4,0-2.6-0.3-3.7-0.9
	c-1.1-0.6-1.9-1.4-2.5-2.5s-0.8-2.3-0.8-3.7s0.3-2.6,0.8-3.8s1.4-2,2.4-2.6s2.3-0.8,3.6-0.8c1,0,1.9,0.2,2.7,0.5
	c0.8,0.3,1.4,0.8,1.9,1.4s0.8,1.3,1,2.2l-1.6,0.5c-0.2-0.7-0.5-1.2-0.8-1.6c-0.3-0.4-0.7-0.7-1.3-1s-1.2-0.4-1.9-0.4
	c-0.8,0-1.5,0.1-2.2,0.4c-0.6,0.2-1.1,0.6-1.5,1s-0.7,0.9-0.9,1.4c-0.4,0.9-0.5,1.8-0.5,2.8c0,1.2,0.2,2.2,0.6,3.1
	c0.4,0.8,1,1.4,1.8,1.8c0.8,0.4,1.7,0.6,2.6,0.6c0.8,0,1.6-0.1,2.3-0.5c0.8-0.3,1.3-0.6,1.7-1V376L198.3,376.1L198.3,376.1
	L198.3,376.1z"/>
<path class="st1" d="M188.5,376.2l1.8,0.5c-0.4,1.5-1.1,2.6-2.1,3.4s-2.2,1.2-3.6,1.2c-1.4,0-2.7-0.3-3.6-0.9
	c-0.9-0.6-1.6-1.5-2.1-2.6s-0.7-2.4-0.7-3.7c0-1.4,0.3-2.7,0.8-3.8s1.3-1.9,2.3-2.4s2.1-0.8,3.3-0.8c1.4,0,2.5,0.4,3.5,1
	c0.9,0.7,1.6,1.7,2,3l-1.8,0.4c-0.3-1-0.8-1.7-1.4-2.2s-1.4-0.7-2.3-0.7c-1.1,0-1.9,0.2-2.6,0.8s-1.2,1.2-1.5,2
	c-0.3,0.9-0.4,1.7-0.4,2.6c0,1.2,0.2,2.2,0.5,3.1c0.3,0.9,0.9,1.5,1.6,2s1.5,0.6,2.3,0.6c1,0,1.9-0.3,2.6-0.9
	S188.2,377.4,188.5,376.2L188.5,376.2L188.5,376.2z"/>
<path class="st1" d="M187.7,353h1.8v8c0,1.4-0.2,2.5-0.5,3.3c-0.3,0.8-0.9,1.5-1.7,2c-0.8,0.5-1.9,0.8-3.2,0.8
	c-1.3,0-2.3-0.2-3.2-0.7c-0.8-0.4-1.4-1.1-1.8-1.9c-0.4-0.8-0.5-2-0.5-3.4v-8h1.8v7.9c0,1.2,0.1,2.1,0.3,2.6c0.2,0.6,0.6,1,1.1,1.3
	s1.2,0.5,2,0.5c1.3,0,2.3-0.3,2.9-0.9c0.6-0.6,0.9-1.8,0.9-3.5L187.7,353L187.7,353L187.7,353z"/>
<path class="st1" d="M188.5,347.6l1.8,0.5c-0.4,1.5-1.1,2.6-2.1,3.4s-2.2,1.2-3.6,1.2c-1.4,0-2.7-0.3-3.6-0.9
	c-0.9-0.6-1.6-1.5-2.1-2.6s-0.7-2.4-0.7-3.7c0-1.4,0.3-2.7,0.8-3.8s1.3-1.9,2.3-2.4s2.1-0.8,3.3-0.8c1.4,0,2.5,0.4,3.5,1
	c0.9,0.7,1.6,1.7,2,3l-1.8,0.4c-0.3-1-0.8-1.7-1.4-2.2s-1.4-0.7-2.3-0.7c-1.1,0-1.9,0.2-2.6,0.8s-1.2,1.2-1.5,2
	c-0.3,0.9-0.4,1.7-0.4,2.6c0,1.2,0.2,2.2,0.5,3.1c0.3,0.9,0.9,1.5,1.6,2s1.5,0.6,2.3,0.6c1,0,1.9-0.3,2.6-0.9
	S188.2,348.8,188.5,347.6L188.5,347.6L188.5,347.6z"/>
<path class="st0" d="M145.7,347.6l1.8,0.5c-0.4,1.5-1.1,2.6-2.1,3.4s-2.2,1.2-3.6,1.2c-1.4,0-2.7-0.3-3.6-0.9
	c-0.9-0.6-1.6-1.5-2.1-2.6s-0.7-2.4-0.7-3.7c0-1.4,0.3-2.7,0.8-3.8s1.3-1.9,2.3-2.4s2.1-0.8,3.3-0.8c1.4,0,2.5,0.4,3.5,1
	c0.9,0.7,1.6,1.7,2,3l-1.8,0.4c-0.3-1-0.8-1.7-1.4-2.2c-0.6-0.5-1.4-0.7-2.3-0.7c-1.1,0-1.9,0.2-2.6,0.8s-1.2,1.2-1.5,2
	c-0.3,0.9-0.4,1.7-0.4,2.6c0,1.2,0.2,2.2,0.5,3.1c0.3,0.9,0.9,1.5,1.6,2s1.5,0.6,2.3,0.6c1,0,1.9-0.3,2.6-0.9
	S145.4,348.8,145.7,347.6L145.7,347.6L145.7,347.6z"/>
<path class="st1" d="M156.1,347v-1.6h5.8v5.1c-0.9,0.7-1.8,1.2-2.8,1.6s-1.9,0.5-2.9,0.5c-1.4,0-2.6-0.3-3.7-0.9s-1.9-1.4-2.5-2.5
	s-0.8-2.3-0.8-3.7s0.3-2.6,0.8-3.8s1.4-2,2.4-2.6s2.3-0.8,3.6-0.8c1,0,1.9,0.2,2.7,0.5c0.8,0.3,1.4,0.8,1.9,1.4s0.8,1.3,1,2.2
	l-1.6,0.5c-0.2-0.7-0.5-1.2-0.8-1.6c-0.3-0.4-0.7-0.7-1.3-1s-1.2-0.4-1.9-0.4c-0.8,0-1.5,0.1-2.2,0.4c-0.6,0.2-1.1,0.6-1.5,1
	s-0.7,0.9-0.9,1.4c-0.4,0.9-0.5,1.8-0.5,2.8c0,1.2,0.2,2.2,0.6,3.1c0.4,0.8,1,1.4,1.8,1.8c0.8,0.4,1.7,0.6,2.6,0.6
	c0.8,0,1.6-0.1,2.3-0.5c0.8-0.3,1.3-0.6,1.7-1v-2.6L156.1,347L156.1,347L156.1,347z"/>
<path class="st1" d="M149.3,366.7l5.3-13.8h2l5.6,13.8h-2.1l-1.6-4.2h-5.8l-1.5,4.2H149.3z M153.2,361.1h4.7l-1.4-3.8
	c-0.4-1.2-0.8-2.1-1-2.9c-0.2,0.9-0.4,1.8-0.7,2.6L153.2,361.1z"/>
<path class="st1" d="M156.1,375.6V374h5.8v5.1c-0.9,0.7-1.8,1.2-2.8,1.6s-1.9,0.5-2.9,0.5c-1.4,0-2.6-0.3-3.7-0.9s-1.9-1.4-2.5-2.5
	s-0.8-2.3-0.8-3.7s0.3-2.6,0.8-3.8s1.4-2,2.4-2.6s2.3-0.8,3.6-0.8c1,0,1.9,0.2,2.7,0.5c0.8,0.3,1.4,0.8,1.9,1.4s0.8,1.3,1,2.2
	l-1.6,0.5c-0.2-0.7-0.5-1.2-0.8-1.6c-0.3-0.4-0.7-0.7-1.3-1s-1.2-0.4-1.9-0.4c-0.8,0-1.5,0.1-2.2,0.4c-0.6,0.2-1.1,0.6-1.5,1
	s-0.7,0.9-0.9,1.4c-0.4,0.9-0.5,1.8-0.5,2.8c0,1.2,0.2,2.2,0.6,3.1c0.4,0.8,1,1.4,1.8,1.8c0.8,0.4,1.7,0.6,2.6,0.6
	c0.8,0,1.6-0.1,2.3-0.5c0.8-0.3,1.3-0.6,1.7-1v-2.6L156.1,375.6L156.1,375.6L156.1,375.6z"/>
<path class="st0" d="M137.2,381.1l5.3-13.8h2l5.6,13.8H148l-1.6-4.2h-5.8l-1.5,4.2H137.2z M141.2,375.4h4.7l-1.4-3.8
	c-0.4-1.2-0.8-2.1-1-2.9c-0.2,0.9-0.4,1.8-0.7,2.6L141.2,375.4z"/>
<path class="st0" d="M133.7,376.3l1.8,0.5c-0.4,1.5-1.1,2.6-2.1,3.4c-1,0.8-2.2,1.2-3.6,1.2c-1.4,0-2.7-0.3-3.6-0.9
	s-1.6-1.5-2.1-2.6s-0.7-2.4-0.7-3.7c0-1.4,0.3-2.7,0.8-3.8s1.3-1.9,2.3-2.4s2.1-0.8,3.3-0.8c1.4,0,2.5,0.4,3.5,1
	c0.9,0.7,1.6,1.7,2,3l-1.8,0.4c-0.3-1-0.8-1.7-1.4-2.2s-1.4-0.7-2.3-0.7c-1.1,0-1.9,0.2-2.6,0.8s-1.2,1.2-1.5,2
	c-0.3,0.9-0.4,1.7-0.4,2.6c0,1.2,0.2,2.2,0.5,3.1s0.9,1.5,1.6,2c0.7,0.5,1.5,0.6,2.3,0.6c1,0,1.9-0.3,2.6-0.9
	S133.4,377.5,133.7,376.3L133.7,376.3L133.7,376.3z"/>
<path class="st0" d="M115.4,376.3v-1.6h5.8v5.1c-0.9,0.7-1.8,1.2-2.8,1.6s-1.9,0.5-2.9,0.5c-1.4,0-2.6-0.3-3.7-0.9s-1.9-1.4-2.5-2.5
	s-0.8-2.3-0.8-3.7s0.3-2.6,0.8-3.8s1.4-2,2.4-2.6s2.3-0.8,3.6-0.8c1,0,1.9,0.2,2.7,0.5c0.8,0.3,1.4,0.8,1.9,1.4s0.8,1.3,1,2.2
	l-1.6,0.5c-0.2-0.7-0.5-1.2-0.8-1.6s-0.7-0.7-1.3-1s-1.2-0.4-1.9-0.4c-0.8,0-1.5,0.1-2.2,0.4c-0.6,0.2-1.1,0.6-1.5,1
	s-0.7,0.9-0.9,1.4c-0.4,0.9-0.5,1.8-0.5,2.8c0,1.2,0.2,2.2,0.6,3.1c0.4,0.8,1,1.4,1.8,1.8s1.7,0.6,2.6,0.6c0.8,0,1.6-0.1,2.3-0.5
	c0.8-0.3,1.3-0.6,1.7-1v-2.6L115.4,376.3L115.4,376.3L115.4,376.3z"/>
<path class="st0" d="M103.3,368.2h1.8v8c0,1.4-0.2,2.5-0.5,3.3s-0.9,1.5-1.7,2c-0.8,0.5-1.9,0.8-3.2,0.8s-2.3-0.2-3.2-0.7
	c-0.8-0.4-1.4-1.1-1.8-1.9s-0.5-2-0.5-3.4v-8H96v7.9c0,1.2,0.1,2.1,0.3,2.6c0.2,0.6,0.6,1,1.1,1.3s1.2,0.5,2,0.5
	c1.3,0,2.3-0.3,2.9-0.9s0.9-1.8,0.9-3.5L103.3,368.2L103.3,368.2L103.3,368.2z"/>
<path class="st1" d="M184.7,329.2v-1.6h5.8v5.1c-0.9,0.7-1.8,1.2-2.8,1.6s-1.9,0.5-2.9,0.5c-1.4,0-2.6-0.3-3.7-0.9s-1.9-1.4-2.5-2.5
	s-0.8-2.3-0.8-3.7s0.3-2.6,0.8-3.8s1.4-2,2.4-2.6s2.3-0.8,3.6-0.8c1,0,1.9,0.2,2.7,0.5c0.8,0.3,1.4,0.8,1.9,1.4s0.8,1.3,1,2.2
	l-1.6,0.5c-0.2-0.7-0.5-1.2-0.8-1.6c-0.3-0.4-0.7-0.7-1.3-1s-1.2-0.4-1.9-0.4c-0.8,0-1.5,0.1-2.2,0.4c-0.6,0.2-1.1,0.6-1.5,1
	s-0.7,0.9-0.9,1.4c-0.4,0.9-0.5,1.8-0.5,2.8c0,1.2,0.2,2.2,0.6,3.1c0.4,0.8,1,1.4,1.8,1.8c0.8,0.4,1.7,0.6,2.6,0.6
	c0.8,0,1.6-0.1,2.3-0.5c0.8-0.3,1.3-0.6,1.7-1v-2.6L184.7,329.2L184.7,329.2L184.7,329.2z"/>
<path class="st1" d="M184.7,314.9v-1.6h5.8v5.1c-0.9,0.7-1.8,1.2-2.8,1.6s-1.9,0.5-2.9,0.5c-1.4,0-2.6-0.3-3.7-0.9s-1.9-1.4-2.5-2.5
	s-0.8-2.3-0.8-3.7s0.3-2.6,0.8-3.8s1.4-2,2.4-2.6s2.3-0.8,3.6-0.8c1,0,1.9,0.2,2.7,0.5c0.8,0.3,1.4,0.8,1.9,1.4s0.8,1.3,1,2.2
	l-1.6,0.5c-0.2-0.7-0.5-1.2-0.8-1.6c-0.3-0.4-0.7-0.7-1.3-1s-1.2-0.4-1.9-0.4c-0.8,0-1.5,0.1-2.2,0.4c-0.6,0.2-1.1,0.6-1.5,1
	s-0.7,0.9-0.9,1.4c-0.4,0.9-0.5,1.8-0.5,2.8c0,1.2,0.2,2.2,0.6,3.1c0.4,0.8,1,1.4,1.8,1.8c0.8,0.4,1.7,0.6,2.6,0.6
	c0.8,0,1.6-0.1,2.3-0.5c0.8-0.3,1.3-0.6,1.7-1v-2.5H184.7L184.7,314.9L184.7,314.9z"/>
<path class="st1" d="M187.7,292.3h1.8v8c0,1.4-0.2,2.5-0.5,3.3c-0.3,0.8-0.9,1.5-1.7,2c-0.8,0.5-1.9,0.8-3.2,0.8
	c-1.3,0-2.3-0.2-3.2-0.7c-0.8-0.4-1.4-1.1-1.8-1.9c-0.4-0.8-0.5-2-0.5-3.4v-8h1.8v7.9c0,1.2,0.1,2.1,0.3,2.6c0.2,0.6,0.6,1,1.1,1.3
	s1.2,0.5,2,0.5c1.3,0,2.3-0.3,2.9-0.9c0.6-0.6,0.9-1.8,0.9-3.5L187.7,292.3L187.7,292.3L187.7,292.3z"/>
<line class="st2" x1="193.8" y1="298.6" x2="203.3" y2="298.6"/>
<path d="M210.4,306h-1.7v-10.8c-0.4,0.4-0.9,0.8-1.6,1.2s-1.2,0.7-1.8,0.9v-1.6c0.9-0.4,1.8-1,2.5-1.6c0.7-0.6,1.2-1.2,1.5-1.8h1.1
	V306z M214.7,299.2c0-1.6,0.2-2.9,0.5-3.9c0.3-1,0.8-1.8,1.5-2.3c0.7-0.5,1.5-0.8,2.5-0.8c0.7,0,1.4,0.1,1.9,0.5
	c0.6,0.3,1,0.7,1.4,1.3c0.4,0.6,0.6,1.2,0.9,2c0.2,0.8,0.3,1.9,0.3,3.2c0,1.6-0.2,2.9-0.5,3.9c-0.3,1-0.8,1.8-1.5,2.3
	c-0.7,0.5-1.5,0.8-2.5,0.8c-1.3,0-2.4-0.5-3.1-1.4C215.1,303.7,214.7,301.8,214.7,299.2L214.7,299.2z M216.4,299.2
	c0,2.3,0.3,3.8,0.8,4.5s1.2,1.1,2,1.1c0.8,0,1.4-0.4,2-1.1c0.5-0.8,0.8-2.2,0.8-4.5s-0.3-3.8-0.8-4.5s-1.2-1.1-2-1.1
	c-0.8,0-1.4,0.3-1.9,1C216.7,295.4,216.4,297,216.4,299.2L216.4,299.2L216.4,299.2z"/>
<path class="st1" d="M177.8,291.8l5.3-13.8h2l5.6,13.8h-2.1l-1.6-4.2h-5.8l-1.5,4.2H177.8z M181.8,286.1h4.7l-1.4-3.8
	c-0.4-1.2-0.8-2.1-1-2.9c-0.2,0.9-0.4,1.8-0.7,2.6L181.8,286.1z"/>
<path class="st1" d="M184.7,272.1v-1.6h5.8v5.1c-0.9,0.7-1.8,1.2-2.8,1.6s-1.9,0.5-2.9,0.5c-1.4,0-2.6-0.3-3.7-0.9s-1.9-1.4-2.5-2.5
	s-0.8-2.3-0.8-3.7s0.3-2.6,0.8-3.8c0.5-1.2,1.4-2,2.4-2.6s2.3-0.8,3.6-0.8c1,0,1.9,0.2,2.7,0.5c0.8,0.3,1.4,0.8,1.9,1.4
	s0.8,1.3,1,2.2l-1.6,0.4c-0.2-0.7-0.5-1.2-0.8-1.6c-0.3-0.4-0.7-0.7-1.3-1c-0.6-0.3-1.2-0.4-1.9-0.4c-0.8,0-1.5,0.1-2.2,0.4
	c-0.6,0.2-1.1,0.6-1.5,1s-0.7,0.9-0.9,1.4c-0.4,0.9-0.5,1.8-0.5,2.8c0,1.2,0.2,2.2,0.6,3.1c0.4,0.8,1,1.4,1.8,1.8
	c0.8,0.4,1.7,0.6,2.6,0.6c0.8,0,1.6-0.1,2.3-0.4c0.7-0.3,1.3-0.6,1.7-1V272L184.7,272.1L184.7,272.1L184.7,272.1z"/>
<path class="st1" d="M187.7,249.4h1.8v7.9c0,1.4-0.2,2.5-0.5,3.3c-0.3,0.8-0.9,1.5-1.7,2c-0.8,0.5-1.9,0.8-3.2,0.8
	c-1.3,0-2.3-0.2-3.2-0.7s-1.4-1.1-1.8-1.9c-0.4-0.8-0.5-2-0.5-3.4v-7.9h1.8v7.9c0,1.2,0.1,2.1,0.3,2.6c0.2,0.5,0.6,1,1.1,1.3
	c0.5,0.3,1.2,0.5,2,0.5c1.3,0,2.3-0.3,2.9-0.9c0.6-0.6,0.9-1.8,0.9-3.5L187.7,249.4L187.7,249.4L187.7,249.4z"/>
<path class="st0" d="M117.1,252.5l5.3-13.8h2l5.6,13.8h-2.1l-1.6-4.2h-5.8l-1.5,4.2H117.1z M121.1,246.8h4.7l-1.4-3.8
	c-0.4-1.2-0.8-2.1-1-2.9c-0.2,0.9-0.4,1.8-0.7,2.6L121.1,246.8z"/>
<path class="st0" d="M131.4,259.6l5.3-13.8h2l5.6,13.8h-2.1l-1.6-4.2h-5.7l-1.5,4.2H131.4z M135.4,254h4.7l-1.4-3.8
	c-0.4-1.2-0.8-2.1-1-2.9c-0.2,0.9-0.4,1.8-0.7,2.6L135.4,254z"/>
<path class="st1" d="M149.3,263.2l5.3-13.8h2l5.6,13.8h-2.1l-1.6-4.2h-5.8l-1.5,4.2H149.3z M153.2,257.5h4.7l-1.4-3.8
	c-0.4-1.2-0.8-2.1-1-2.9c-0.2,0.9-0.4,1.8-0.7,2.6L153.2,257.5z"/>
<path class="st1" d="M159.9,272.6l1.8,0.5c-0.4,1.5-1.1,2.6-2.1,3.4c-1,0.8-2.2,1.2-3.6,1.2c-1.4,0-2.7-0.3-3.6-0.9
	c-0.9-0.6-1.6-1.5-2.1-2.6s-0.7-2.4-0.7-3.7c0-1.4,0.3-2.7,0.8-3.8s1.3-1.9,2.3-2.4c1-0.6,2.1-0.8,3.3-0.8c1.4,0,2.5,0.4,3.5,1.1
	s1.6,1.7,2,3l-1.8,0.4c-0.3-1-0.8-1.7-1.4-2.2s-1.4-0.7-2.3-0.7c-1.1,0-1.9,0.2-2.6,0.8s-1.2,1.2-1.5,2c-0.3,0.9-0.4,1.7-0.4,2.6
	c0,1.2,0.2,2.2,0.5,3.1c0.3,0.9,0.9,1.5,1.6,2c0.7,0.4,1.5,0.6,2.3,0.6c1,0,1.9-0.3,2.6-0.9C159.2,274.7,159.7,273.8,159.9,272.6
	L159.9,272.6L159.9,272.6z"/>
<path class="st1" d="M159.2,278h1.8v8c0,1.4-0.2,2.5-0.5,3.3c-0.3,0.8-0.9,1.5-1.7,2c-0.8,0.5-1.9,0.8-3.2,0.8
	c-1.3,0-2.3-0.2-3.2-0.7c-0.8-0.4-1.4-1.1-1.8-1.9c-0.4-0.8-0.5-2-0.5-3.4v-7.9h1.8v7.9c0,1.2,0.1,2.1,0.3,2.6
	c0.2,0.6,0.6,1,1.1,1.3s1.2,0.5,2,0.5c1.3,0,2.3-0.3,2.9-0.9c0.6-0.6,0.9-1.8,0.9-3.5L159.2,278L159.2,278L159.2,278z"/>
<line class="st2" x1="146.2" y1="284.3" x2="136.7" y2="284.3"/>
<path d="M116.4,288.6l1.6-0.1c0.1,0.8,0.4,1.3,0.8,1.7c0.4,0.3,0.9,0.5,1.5,0.5c0.5,0,1-0.1,1.4-0.4c0.4-0.2,0.7-0.5,1-1
	c0.2-0.4,0.5-0.9,0.6-1.6s0.2-1.4,0.2-2.1v-0.3c-0.3,0.5-0.8,1-1.4,1.3s-1.2,0.5-1.9,0.5c-1.1,0-2.1-0.4-2.9-1.2
	c-0.8-0.8-1.2-1.9-1.2-3.3s0.4-2.5,1.2-3.4s1.9-1.3,3.1-1.3c0.9,0,1.7,0.2,2.5,0.7c0.7,0.5,1.3,1.2,1.7,2.1c0.4,0.9,0.6,2.2,0.6,3.9
	s-0.2,3.1-0.6,4.2c-0.4,1-1,1.8-1.7,2.4c-0.8,0.5-1.6,0.8-2.6,0.8c-1.1,0-2-0.3-2.6-0.9C116.9,290.5,116.5,289.7,116.4,288.6
	L116.4,288.6L116.4,288.6z M123.3,282.5c0-1-0.3-1.7-0.8-2.3c-0.5-0.6-1.1-0.9-1.9-0.9s-1.4,0.3-2,0.9s-0.8,1.4-0.8,2.4
	c0,0.9,0.3,1.6,0.8,2.1s1.2,0.8,2,0.8s1.4-0.3,1.9-0.8C123,284.2,123.3,283.5,123.3,282.5L123.3,282.5L123.3,282.5z M126.7,285
	c0-1.6,0.2-2.9,0.5-3.9s0.8-1.8,1.5-2.3c0.7-0.5,1.5-0.8,2.5-0.8c0.7,0,1.4,0.1,1.9,0.4c0.6,0.3,1,0.7,1.4,1.3
	c0.4,0.6,0.6,1.2,0.9,2c0.2,0.8,0.3,1.9,0.3,3.2c0,1.6-0.2,2.9-0.5,3.9c-0.3,1-0.8,1.8-1.5,2.3c-0.7,0.5-1.5,0.8-2.5,0.8
	c-1.3,0-2.4-0.5-3.1-1.4C127.1,289.4,126.7,287.5,126.7,285L126.7,285z M128.4,285c0,2.3,0.3,3.8,0.8,4.5s1.2,1.1,2,1.1
	c0.8,0,1.4-0.4,2-1.1c0.5-0.8,0.8-2.2,0.8-4.5s-0.3-3.8-0.8-4.5s-1.2-1.1-2-1.1c-0.8,0-1.4,0.3-1.9,1
	C128.7,281.2,128.4,282.7,128.4,285L128.4,285L128.4,285z"/>
<path class="st1" d="M149.3,306l5.3-13.8h2l5.6,13.8h-2.1l-1.6-4.2h-5.8l-1.5,4.2H149.3z M153.2,300.4h4.7l-1.4-3.8
	c-0.4-1.2-0.8-2.1-1-2.9c-0.2,0.9-0.4,1.8-0.7,2.6L153.2,300.4z"/>
<path class="st1" d="M159.9,315.5l1.8,0.5c-0.4,1.5-1.1,2.6-2.1,3.4s-2.2,1.2-3.6,1.2c-1.4,0-2.7-0.3-3.6-0.9
	c-0.9-0.6-1.6-1.5-2.1-2.6s-0.7-2.4-0.7-3.7c0-1.4,0.3-2.7,0.8-3.8s1.3-1.9,2.3-2.4s2.1-0.8,3.3-0.8c1.4,0,2.5,0.4,3.5,1
	c0.9,0.7,1.6,1.7,2,3l-1.8,0.4c-0.3-1-0.8-1.7-1.4-2.2s-1.4-0.7-2.3-0.7c-1.1,0-1.9,0.2-2.6,0.8s-1.2,1.2-1.5,2
	c-0.3,0.9-0.4,1.7-0.4,2.6c0,1.2,0.2,2.2,0.5,3.1c0.3,0.9,0.9,1.5,1.6,2s1.5,0.6,2.3,0.6c1,0,1.9-0.3,2.6-0.9
	S159.7,316.7,159.9,315.5L159.9,315.5L159.9,315.5z"/>
<path class="st1" d="M159.9,329.8l1.8,0.5c-0.4,1.5-1.1,2.6-2.1,3.4s-2.2,1.2-3.6,1.2c-1.4,0-2.7-0.3-3.6-0.9
	c-0.9-0.6-1.6-1.5-2.1-2.6s-0.7-2.4-0.7-3.7c0-1.4,0.3-2.7,0.8-3.8s1.3-1.9,2.3-2.4s2.1-0.8,3.3-0.8c1.4,0,2.5,0.4,3.5,1
	c0.9,0.7,1.6,1.7,2,3l-1.8,0.4c-0.3-1-0.8-1.7-1.4-2.2s-1.4-0.7-2.3-0.7c-1.1,0-1.9,0.2-2.6,0.8s-1.2,1.2-1.5,2
	c-0.3,0.9-0.4,1.7-0.4,2.6c0,1.2,0.2,2.2,0.5,3.1c0.3,0.9,0.9,1.5,1.6,2s1.5,0.6,2.3,0.6c1,0,1.9-0.3,2.6-0.9
	S159.7,330.9,159.9,329.8L159.9,329.8L159.9,329.8z"/>
<path class="st0" d="M144.9,320.8h1.8v8c0,1.4-0.2,2.5-0.5,3.3c-0.3,0.8-0.9,1.5-1.7,2c-0.8,0.5-1.9,0.8-3.2,0.8
	c-1.3,0-2.3-0.2-3.2-0.7c-0.8-0.4-1.4-1.1-1.8-1.9c-0.4-0.8-0.5-2-0.5-3.4v-8h1.8v7.9c0,1.2,0.1,2.1,0.3,2.6c0.2,0.6,0.6,1,1.1,1.3
	s1.2,0.5,2,0.5c1.3,0,2.3-0.3,2.9-0.9s0.9-1.8,0.9-3.5L144.9,320.8L144.9,320.8L144.9,320.8z"/>
<path class="st3" d="M231.1,254.2v-1.6h5.8v5.1c-0.9,0.7-1.8,1.2-2.8,1.6s-1.9,0.5-2.9,0.5c-1.4,0-2.6-0.3-3.7-0.9s-1.9-1.4-2.5-2.5
	s-0.8-2.3-0.8-3.7s0.3-2.6,0.8-3.8s1.4-2,2.4-2.6s2.3-0.8,3.6-0.8c1,0,1.9,0.2,2.7,0.5c0.8,0.3,1.4,0.8,1.9,1.4
	c0.5,0.6,0.8,1.3,1,2.2L235,250c-0.2-0.7-0.5-1.2-0.8-1.6c-0.3-0.4-0.7-0.7-1.3-1s-1.2-0.4-1.9-0.4c-0.8,0-1.5,0.1-2.2,0.4
	c-0.6,0.2-1.1,0.6-1.5,1s-0.7,0.9-0.9,1.4c-0.4,0.9-0.5,1.8-0.5,2.8c0,1.2,0.2,2.2,0.6,3.1c0.4,0.8,1,1.4,1.8,1.8
	c0.8,0.4,1.7,0.6,2.6,0.6c0.8,0,1.6-0.1,2.3-0.4c0.7-0.3,1.3-0.6,1.7-1v-2.6L231.1,254.2L231.1,254.2L231.1,254.2z"/>
<path class="st3" d="M238.5,259.6l5.3-13.8h2l5.6,13.8h-2.1l-1.6-4.2h-5.8l-1.5,4.2H238.5z M242.5,254h4.7l-1.4-3.8
	c-0.4-1.2-0.8-2.1-1-2.9c-0.2,0.9-0.4,1.8-0.7,2.6L242.5,254z"/>
<path class="st3" d="M263.5,254.8l1.8,0.5c-0.4,1.5-1.1,2.6-2.1,3.4s-2.2,1.2-3.6,1.2c-1.4,0-2.7-0.3-3.6-0.9
	c-0.9-0.6-1.6-1.5-2.1-2.6s-0.7-2.4-0.7-3.7c0-1.4,0.3-2.7,0.8-3.8s1.3-1.9,2.3-2.4c1-0.6,2.1-0.8,3.3-0.8c1.4,0,2.5,0.4,3.5,1.1
	s1.6,1.7,2,3l-1.8,0.4c-0.3-1-0.8-1.7-1.4-2.2s-1.4-0.7-2.3-0.7c-1.1,0-1.9,0.2-2.6,0.8s-1.2,1.2-1.5,2c-0.3,0.9-0.4,1.7-0.4,2.6
	c0,1.2,0.2,2.2,0.5,3.1c0.3,0.9,0.9,1.5,1.6,2c0.7,0.4,1.5,0.6,2.3,0.6c1,0,1.9-0.3,2.6-0.9C262.7,256.8,263.2,256,263.5,254.8
	L263.5,254.8L263.5,254.8z"/>
<path class="st3" d="M273.9,254.2v-1.6h5.8v5.1c-0.9,0.7-1.8,1.2-2.8,1.6s-1.9,0.5-2.9,0.5c-1.4,0-2.6-0.3-3.7-0.9s-1.9-1.4-2.5-2.5
	s-0.8-2.3-0.8-3.7s0.3-2.6,0.8-3.8s1.4-2,2.4-2.6s2.3-0.8,3.6-0.8c1,0,1.9,0.2,2.7,0.5c0.8,0.3,1.4,0.8,1.9,1.4
	c0.5,0.6,0.8,1.3,1,2.2l-1.6,0.4c-0.2-0.7-0.5-1.2-0.8-1.6s-0.7-0.7-1.3-1s-1.2-0.4-1.9-0.4c-0.8,0-1.5,0.1-2.2,0.4
	c-0.6,0.2-1.1,0.6-1.5,1s-0.7,0.9-0.9,1.4c-0.4,0.9-0.5,1.8-0.5,2.8c0,1.2,0.2,2.2,0.6,3.1c0.4,0.8,1,1.4,1.8,1.8
	c0.8,0.4,1.7,0.6,2.6,0.6c0.8,0,1.6-0.1,2.3-0.4s1.3-0.6,1.7-1v-2.6L273.9,254.2L273.9,254.2L273.9,254.2z"/>
<path class="st3" d="M292,254.8l1.8,0.5c-0.4,1.5-1.1,2.6-2.1,3.4s-2.2,1.2-3.6,1.2s-2.7-0.3-3.6-0.9s-1.6-1.5-2.1-2.6
	s-0.7-2.4-0.7-3.7c0-1.4,0.3-2.7,0.8-3.8s1.3-1.9,2.3-2.4c1-0.6,2.1-0.8,3.3-0.8c1.4,0,2.5,0.4,3.5,1.1s1.6,1.7,2,3l-1.8,0.4
	c-0.3-1-0.8-1.7-1.4-2.2s-1.4-0.7-2.3-0.7c-1.1,0-1.9,0.2-2.6,0.8s-1.2,1.2-1.5,2c-0.3,0.9-0.4,1.7-0.4,2.6c0,1.2,0.2,2.2,0.5,3.1
	c0.3,0.9,0.9,1.5,1.6,2c0.7,0.4,1.5,0.6,2.3,0.6c1,0,1.9-0.3,2.6-0.9C291.3,256.8,291.8,256,292,254.8L292,254.8L292,254.8z"/>
<path class="st3" d="M302.5,254.2v-1.6h5.8v5.1c-0.9,0.7-1.8,1.2-2.8,1.6s-1.9,0.5-2.9,0.5c-1.4,0-2.6-0.3-3.7-0.9s-1.9-1.4-2.5-2.5
	s-0.8-2.3-0.8-3.7s0.3-2.6,0.8-3.8s1.4-2,2.4-2.6s2.3-0.8,3.6-0.8c1,0,1.9,0.2,2.7,0.5c0.8,0.3,1.4,0.8,1.9,1.4
	c0.5,0.6,0.8,1.3,1,2.2l-1.6,0.4c-0.2-0.7-0.5-1.2-0.8-1.6s-0.7-0.7-1.3-1s-1.2-0.4-1.9-0.4c-0.8,0-1.5,0.1-2.2,0.4
	c-0.6,0.2-1.1,0.6-1.5,1s-0.7,0.9-0.9,1.4c-0.4,0.9-0.5,1.8-0.5,2.8c0,1.2,0.2,2.2,0.6,3.1c0.4,0.8,1,1.4,1.8,1.8
	c0.8,0.4,1.7,0.6,2.6,0.6c0.8,0,1.6-0.1,2.3-0.4s1.3-0.6,1.7-1v-2.6L302.5,254.2L302.5,254.2L302.5,254.2z"/>
<path class="st3" d="M319.8,245.9h1.8v7.9c0,1.4-0.2,2.5-0.5,3.3c-0.3,0.8-0.9,1.5-1.7,2c-0.8,0.5-1.9,0.8-3.2,0.8s-2.3-0.2-3.2-0.7
	c-0.8-0.4-1.4-1.1-1.8-1.9s-0.5-2-0.5-3.4V246h1.8v7.9c0,1.2,0.1,2.1,0.3,2.6s0.6,1,1.1,1.3c0.5,0.3,1.2,0.5,2,0.5
	c1.3,0,2.3-0.3,2.9-0.9c0.6-0.6,0.8-1.8,0.8-3.5L319.8,245.9L319.8,245.9L319.8,245.9z"/>
<line class="st2" x1="316.3" y1="261.7" x2="316.3" y2="271.2"/>
<path d="M315.3,288.8v1.6h-9.1c0-0.4,0-0.8,0.2-1.2c0.2-0.6,0.6-1.2,1.1-1.8c0.5-0.6,1.2-1.3,2.2-2.1c1.5-1.2,2.5-2.2,3-2.9
	c0.5-0.7,0.8-1.4,0.8-2s-0.2-1.2-0.7-1.7s-1.1-0.7-1.9-0.7s-1.5,0.2-2,0.7s-0.7,1.2-0.7,2l-1.7-0.2c0.1-1.3,0.6-2.3,1.3-3
	c0.8-0.7,1.8-1,3.1-1s2.4,0.4,3.1,1.1c0.8,0.7,1.1,1.6,1.1,2.7c0,0.5-0.1,1.1-0.3,1.6c-0.2,0.5-0.6,1.1-1.1,1.7s-1.4,1.4-2.6,2.4
	c-1,0.9-1.7,1.4-2,1.7c-0.3,0.3-0.5,0.6-0.7,0.9L315.3,288.8L315.3,288.8z M317.1,283.6c0-1.6,0.2-2.9,0.5-3.9s0.8-1.8,1.5-2.3
	s1.5-0.8,2.5-0.8c0.7,0,1.4,0.1,1.9,0.4c0.6,0.3,1,0.7,1.4,1.3s0.7,1.2,0.8,2c0.2,0.8,0.3,1.9,0.3,3.2c0,1.6-0.2,2.9-0.5,3.9
	s-0.8,1.8-1.5,2.3s-1.5,0.8-2.5,0.8c-1.3,0-2.4-0.5-3.1-1.4C317.5,288.1,317,286.2,317.1,283.6L317.1,283.6z M318.8,283.6
	c0,2.3,0.3,3.8,0.8,4.5c0.5,0.8,1.2,1.1,2,1.1s1.4-0.4,2-1.1c0.5-0.8,0.8-2.2,0.8-4.5s-0.3-3.8-0.8-4.5s-1.2-1.1-2-1.1
	s-1.4,0.3-1.9,1C319.1,279.8,318.8,281.4,318.8,283.6L318.8,283.6L318.8,283.6z"/>
<path class="st0" d="M334.1,249.4h1.8v7.9c0,1.4-0.2,2.5-0.5,3.3c-0.3,0.8-0.9,1.5-1.7,2c-0.8,0.5-1.9,0.8-3.2,0.8s-2.3-0.2-3.2-0.7
	c-0.8-0.4-1.4-1.1-1.8-1.9s-0.5-2-0.5-3.4v-7.9h1.8v7.9c0,1.2,0.1,2.1,0.3,2.6c0.2,0.6,0.6,1,1.1,1.3c0.5,0.3,1.2,0.5,2,0.5
	c1.3,0,2.3-0.3,2.9-0.9c0.6-0.6,0.8-1.8,0.8-3.5L334.1,249.4L334.1,249.4L334.1,249.4z"/>
<path class="st0" d="M345.4,257.8v-1.6h5.8v5.1c-0.9,0.7-1.8,1.2-2.8,1.6c-1,0.4-1.9,0.5-2.9,0.5c-1.3,0-2.6-0.3-3.7-0.9
	c-1.1-0.6-1.9-1.4-2.5-2.5s-0.8-2.3-0.8-3.7s0.3-2.6,0.8-3.8s1.4-2,2.4-2.6s2.3-0.8,3.6-0.8c1,0,1.9,0.2,2.7,0.5
	c0.8,0.3,1.4,0.8,1.9,1.4s0.8,1.3,1,2.2l-1.6,0.4c-0.2-0.7-0.5-1.2-0.8-1.6s-0.7-0.7-1.3-1s-1.2-0.4-1.9-0.4c-0.8,0-1.5,0.1-2.2,0.4
	s-1.1,0.6-1.5,1s-0.7,0.9-0.9,1.4c-0.3,0.9-0.5,1.8-0.5,2.8c0,1.2,0.2,2.2,0.6,3.1c0.4,0.8,1,1.4,1.8,1.8c0.8,0.4,1.7,0.6,2.6,0.6
	c0.8,0,1.6-0.1,2.3-0.4s1.3-0.6,1.7-1v-2.6L345.4,257.8L345.4,257.8L345.4,257.8z"/>
<path class="st0" d="M366.2,245.9h1.8v7.9c0,1.4-0.2,2.5-0.5,3.3c-0.3,0.8-0.9,1.5-1.7,2c-0.8,0.5-1.9,0.8-3.2,0.8s-2.3-0.2-3.2-0.7
	c-0.8-0.4-1.4-1.1-1.8-1.9s-0.5-2-0.5-3.4V246h1.8v7.9c0,1.2,0.1,2.1,0.3,2.6c0.2,0.6,0.6,1,1.1,1.3c0.5,0.3,1.2,0.5,2,0.5
	c1.3,0,2.3-0.3,2.9-0.9c0.6-0.6,0.8-1.8,0.8-3.5L366.2,245.9L366.2,245.9L366.2,245.9z"/>
<path class="st0" d="M366.8,236.4v-1.6h5.8v5.1c-0.9,0.7-1.8,1.2-2.8,1.6c-1,0.4-1.9,0.5-2.9,0.5c-1.3,0-2.6-0.3-3.7-0.9
	c-1.1-0.6-1.9-1.4-2.5-2.5s-0.8-2.3-0.8-3.7s0.3-2.6,0.8-3.8s1.4-2,2.4-2.6s2.3-0.8,3.6-0.8c1,0,1.9,0.2,2.7,0.5
	c0.8,0.3,1.4,0.8,1.9,1.4s0.8,1.3,1,2.2l-1.6,0.4c-0.2-0.7-0.5-1.2-0.8-1.6s-0.7-0.7-1.3-1s-1.2-0.4-1.9-0.4c-0.8,0-1.5,0.1-2.2,0.4
	s-1.1,0.6-1.5,1s-0.7,0.9-0.9,1.4c-0.3,0.9-0.5,1.8-0.5,2.8c0,1.2,0.2,2.2,0.6,3.1c0.4,0.8,1,1.4,1.8,1.8s1.7,0.6,2.6,0.6
	c0.8,0,1.6-0.1,2.3-0.4s1.3-0.6,1.7-1v-2.6L366.8,236.4L366.8,236.4L366.8,236.4z"/>
<path class="st0" d="M366.2,210.2h1.8v7.9c0,1.4-0.2,2.5-0.5,3.3s-0.9,1.5-1.7,2c-0.8,0.5-1.9,0.8-3.2,0.8s-2.3-0.2-3.2-0.7
	c-0.8-0.4-1.4-1.1-1.8-1.9s-0.5-2-0.5-3.4v-7.9h1.8v7.9c0,1.2,0.1,2.1,0.3,2.6c0.2,0.6,0.6,1,1.1,1.3s1.2,0.5,2,0.5
	c1.3,0,2.3-0.3,2.9-0.9s0.8-1.8,0.8-3.5L366.2,210.2L366.2,210.2L366.2,210.2z"/>
<path class="st0" d="M351.9,203h1.8v7.9c0,1.4-0.2,2.5-0.5,3.3s-0.9,1.5-1.7,2c-0.8,0.5-1.9,0.8-3.2,0.8s-2.3-0.2-3.2-0.7
	c-0.8-0.4-1.4-1.1-1.8-1.9s-0.5-2-0.5-3.4v-7.9h1.8v7.9c0,1.2,0.1,2.1,0.3,2.6c0.2,0.6,0.6,1,1.1,1.3s1.2,0.5,2,0.5
	c1.3,0,2.3-0.3,2.9-0.9s0.8-1.8,0.8-3.5L351.9,203L351.9,203L351.9,203z"/>
<path class="st0" d="M334.1,206.6h1.8v7.9c0,1.4-0.2,2.5-0.5,3.3s-0.9,1.5-1.7,2c-0.8,0.5-1.9,0.8-3.2,0.8s-2.3-0.2-3.2-0.7
	c-0.8-0.4-1.4-1.1-1.8-1.9s-0.5-2-0.5-3.4v-7.9h1.8v7.9c0,1.2,0.1,2.1,0.3,2.6c0.2,0.6,0.6,1,1.1,1.3s1.2,0.5,2,0.5
	c1.3,0,2.3-0.3,2.9-0.9s0.8-1.8,0.8-3.5L334.1,206.6L334.1,206.6L334.1,206.6z"/>
<path class="st3" d="M309.9,231.1l5.3-13.8h2l5.6,13.8h-2.1l-1.6-4.2h-5.8l-1.5,4.2H309.9z M313.9,225.4h4.7l-1.4-3.8
	c-0.4-1.2-0.8-2.1-1-2.9c-0.2,0.9-0.4,1.8-0.7,2.6L313.9,225.4z"/>
<path class="st3" d="M306.3,226.2l1.8,0.5c-0.4,1.5-1.1,2.6-2.1,3.4c-1,0.8-2.2,1.2-3.6,1.2s-2.7-0.3-3.6-0.9
	c-0.9-0.6-1.6-1.5-2.1-2.6s-0.7-2.4-0.7-3.7c0-1.4,0.3-2.7,0.8-3.8s1.3-1.9,2.3-2.4c1-0.6,2.1-0.8,3.3-0.8c1.4,0,2.5,0.4,3.5,1.1
	s1.6,1.7,2,3l-1.8,0.4c-0.3-1-0.8-1.7-1.4-2.2s-1.4-0.7-2.3-0.7c-1.1,0-1.9,0.2-2.6,0.8s-1.2,1.2-1.5,2c-0.3,0.9-0.4,1.7-0.4,2.6
	c0,1.2,0.2,2.2,0.5,3.1s0.9,1.5,1.6,2c0.7,0.4,1.5,0.6,2.3,0.6c1,0,1.9-0.3,2.6-0.9C305.6,228.3,306,227.4,306.3,226.2L306.3,226.2
	L306.3,226.2z"/>
<path class="st3" d="M288.2,225.7v-1.6h5.8v5.1c-0.9,0.7-1.8,1.2-2.8,1.6c-1,0.4-1.9,0.5-2.9,0.5c-1.4,0-2.6-0.3-3.7-0.9
	c-1.1-0.6-1.9-1.4-2.5-2.5s-0.8-2.3-0.8-3.7s0.3-2.6,0.8-3.8s1.4-2,2.4-2.6s2.3-0.8,3.6-0.8c1,0,1.9,0.2,2.7,0.5
	c0.8,0.3,1.4,0.8,1.9,1.4c0.5,0.6,0.8,1.3,1,2.2l-1.6,0.4c-0.2-0.7-0.5-1.2-0.8-1.6s-0.7-0.7-1.3-1s-1.2-0.4-1.9-0.4
	c-0.8,0-1.5,0.1-2.2,0.4c-0.6,0.2-1.1,0.6-1.5,1s-0.7,0.9-0.9,1.4c-0.4,0.9-0.5,1.8-0.5,2.8c0,1.2,0.2,2.2,0.6,3.1
	c0.4,0.8,1,1.4,1.8,1.8s1.7,0.6,2.6,0.6c0.8,0,1.6-0.1,2.3-0.4s1.3-0.6,1.7-1v-2.6L288.2,225.7L288.2,225.7L288.2,225.7z"/>
<line class="st2" x1="287.8" y1="214.1" x2="287.8" y2="204.5"/>
<path d="M277.9,196.7l1.7-0.2c0.2,1,0.5,1.6,1,2.1c0.5,0.4,1,0.6,1.7,0.6c0.8,0,1.5-0.3,2-0.8c0.5-0.6,0.8-1.2,0.8-2
	s-0.2-1.4-0.8-1.9c-0.5-0.5-1.1-0.8-1.9-0.8c-0.3,0-0.7,0.1-1.2,0.2l0.2-1.5c0.1,0,0.2,0,0.3,0c0.7,0,1.4-0.2,1.9-0.6
	c0.6-0.4,0.9-0.9,0.9-1.7c0-0.6-0.2-1.1-0.6-1.5s-1-0.6-1.6-0.6s-1.2,0.2-1.6,0.6c-0.4,0.4-0.7,1-0.9,1.9l-1.7-0.3
	c0.2-1.1,0.7-2,1.4-2.6c0.7-0.6,1.6-0.9,2.7-0.9c0.8,0,1.4,0.2,2.1,0.5c0.6,0.3,1.1,0.8,1.5,1.3c0.3,0.6,0.5,1.1,0.5,1.8
	s-0.2,1.1-0.5,1.6s-0.8,0.9-1.4,1.2c0.8,0.2,1.4,0.6,1.9,1.2s0.7,1.3,0.7,2.2c0,1.2-0.4,2.2-1.3,3.1c-0.9,0.8-2,1.2-3.3,1.2
	c-1.2,0-2.2-0.4-3-1.1C278.5,198.7,278,197.8,277.9,196.7L277.9,196.7L277.9,196.7z M288.5,193.5c0-1.6,0.2-2.9,0.5-3.9
	s0.8-1.8,1.5-2.3s1.5-0.8,2.5-0.8c0.7,0,1.4,0.1,1.9,0.4c0.6,0.3,1,0.7,1.4,1.3s0.6,1.2,0.9,2c0.2,0.8,0.3,1.9,0.3,3.2
	c0,1.6-0.2,2.9-0.5,3.9s-0.8,1.8-1.5,2.3s-1.5,0.8-2.5,0.8c-1.3,0-2.4-0.5-3.1-1.4C288.9,197.9,288.5,196.1,288.5,193.5L288.5,193.5
	L288.5,193.5z M290.2,193.5c0,2.3,0.3,3.8,0.8,4.5s1.2,1.1,2,1.1s1.4-0.4,2-1.1c0.5-0.8,0.8-2.2,0.8-4.5s-0.3-3.8-0.8-4.5
	s-1.2-1.1-2-1.1s-1.4,0.3-1.9,1C290.5,189.7,290.2,191.2,290.2,193.5L290.2,193.5L290.2,193.5z"/>
<path class="st3" d="M277.8,226.2l1.8,0.5c-0.4,1.5-1.1,2.6-2.1,3.4c-1,0.8-2.2,1.2-3.6,1.2s-2.7-0.3-3.6-0.9
	c-0.9-0.6-1.6-1.5-2.1-2.6s-0.7-2.4-0.7-3.7c0-1.4,0.3-2.7,0.8-3.8s1.3-1.9,2.3-2.4c1-0.6,2.1-0.8,3.3-0.8c1.4,0,2.5,0.4,3.5,1.1
	s1.6,1.7,2,3l-1.8,0.4c-0.3-1-0.8-1.7-1.4-2.2s-1.4-0.7-2.3-0.7c-1.1,0-1.9,0.2-2.6,0.8s-1.2,1.2-1.5,2c-0.3,0.9-0.4,1.7-0.4,2.6
	c0,1.2,0.2,2.2,0.5,3.1s0.9,1.5,1.6,2c0.7,0.4,1.5,0.6,2.3,0.6c1,0,1.9-0.3,2.6-0.9C277,228.3,277.5,227.4,277.8,226.2L277.8,226.2
	L277.8,226.2z"/>
<path class="st3" d="M259.7,225.7v-1.6h5.8v5.1c-0.9,0.7-1.8,1.2-2.8,1.6c-1,0.4-1.9,0.5-2.9,0.5c-1.4,0-2.6-0.3-3.7-0.9
	c-1.1-0.6-1.9-1.4-2.5-2.5s-0.8-2.3-0.8-3.7s0.3-2.6,0.8-3.8s1.4-2,2.4-2.6s2.3-0.8,3.6-0.8c1,0,1.9,0.2,2.7,0.5s1.4,0.8,1.9,1.4
	c0.5,0.6,0.8,1.3,1,2.2l-1.6,0.4c-0.2-0.7-0.5-1.2-0.8-1.6s-0.7-0.7-1.3-1c-0.6-0.3-1.2-0.4-1.9-0.4c-0.8,0-1.5,0.1-2.2,0.4
	c-0.6,0.2-1.1,0.6-1.5,1s-0.7,0.9-0.9,1.4c-0.4,0.9-0.5,1.8-0.5,2.8c0,1.2,0.2,2.2,0.6,3.1c0.4,0.8,1,1.4,1.8,1.8
	c0.8,0.4,1.7,0.6,2.6,0.6c0.8,0,1.6-0.1,2.3-0.4s1.3-0.6,1.7-1v-2.6L259.7,225.7L259.7,225.7L259.7,225.7z"/>
<path class="st3" d="M248.4,217.3h1.8v7.9c0,1.4-0.2,2.5-0.5,3.3c-0.3,0.8-0.9,1.5-1.7,2c-0.8,0.5-1.9,0.8-3.2,0.8
	c-1.3,0-2.3-0.2-3.2-0.7c-0.8-0.4-1.4-1.1-1.8-1.9c-0.4-0.8-0.5-2-0.5-3.4v-7.9h1.8v7.9c0,1.2,0.1,2.1,0.3,2.6
	c0.2,0.5,0.6,1,1.1,1.3s1.2,0.5,2,0.5c1.3,0,2.3-0.3,2.9-0.9c0.6-0.6,0.9-1.8,0.9-3.5L248.4,217.3L248.4,217.3L248.4,217.3z"/>
<path class="st3" d="M234.9,226.2l1.8,0.5c-0.4,1.5-1.1,2.6-2.1,3.4c-1,0.8-2.2,1.2-3.6,1.2c-1.4,0-2.7-0.3-3.6-0.9
	c-0.9-0.6-1.6-1.5-2.1-2.6s-0.7-2.4-0.7-3.7c0-1.4,0.3-2.7,0.8-3.8s1.3-1.9,2.3-2.4c1-0.6,2.1-0.8,3.3-0.8c1.4,0,2.5,0.4,3.5,1.1
	s1.6,1.7,2,3l-1.8,0.4c-0.3-1-0.8-1.7-1.4-2.2s-1.4-0.7-2.3-0.7c-1.1,0-1.9,0.2-2.6,0.8s-1.2,1.2-1.5,2c-0.3,0.9-0.4,1.7-0.4,2.6
	c0,1.2,0.2,2.2,0.5,3.1c0.3,0.9,0.9,1.5,1.6,2c0.7,0.4,1.5,0.6,2.3,0.6c1,0,1.9-0.3,2.6-0.9C234.2,228.3,234.6,227.4,234.9,226.2
	L234.9,226.2L234.9,226.2z"/>
<path class="st4" d="M230.6,199.5h1.8v7.9c0,1.4-0.2,2.5-0.5,3.3c-0.3,0.8-0.9,1.5-1.7,2c-0.8,0.5-1.9,0.8-3.2,0.8
	c-1.3,0-2.3-0.2-3.2-0.7c-0.8-0.4-1.4-1.1-1.8-1.9c-0.4-0.8-0.5-2-0.5-3.4v-7.9h1.8v7.9c0,1.2,0.1,2.1,0.3,2.6
	c0.2,0.5,0.6,1,1.1,1.3s1.2,0.5,2,0.5c1.3,0,2.3-0.3,2.9-0.9c0.6-0.6,0.9-1.8,0.9-3.5L230.6,199.5L230.6,199.5L230.6,199.5z"/>
<path class="st4" d="M227.5,193.5v-1.6h5.8v5.1c-0.9,0.7-1.8,1.2-2.8,1.6c-1,0.4-1.9,0.5-2.9,0.5c-1.4,0-2.6-0.3-3.7-0.9
	c-1.1-0.6-1.9-1.4-2.5-2.5s-0.8-2.3-0.8-3.7s0.3-2.6,0.8-3.8s1.4-2,2.4-2.6s2.3-0.8,3.6-0.8c1,0,1.9,0.2,2.7,0.5
	c0.8,0.3,1.4,0.8,1.9,1.4c0.5,0.6,0.8,1.3,1,2.2l-1.6,0.4c-0.2-0.7-0.5-1.2-0.8-1.6c-0.3-0.4-0.7-0.7-1.3-1s-1.2-0.4-1.9-0.4
	c-0.8,0-1.5,0.1-2.2,0.4c-0.6,0.2-1.1,0.6-1.5,1s-0.7,0.9-0.9,1.4c-0.4,0.9-0.5,1.8-0.5,2.8c0,1.2,0.2,2.2,0.6,3.1
	c0.4,0.8,1,1.4,1.8,1.8c0.8,0.4,1.7,0.6,2.6,0.6c0.8,0,1.6-0.1,2.3-0.4c0.7-0.3,1.3-0.6,1.7-1v-2.6L227.5,193.5L227.5,193.5
	L227.5,193.5z"/>
<path class="st4" d="M220.7,184.7l5.2-13.8h2l5.6,13.8h-2.1l-1.6-4.2H224l-1.5,4.2H220.7z M224.6,179h4.7l-1.4-3.8
	c-0.4-1.2-0.8-2.1-1-2.9c-0.2,0.9-0.4,1.8-0.7,2.6L224.6,179z"/>
<path class="st4" d="M230.6,156.6h1.8v7.9c0,1.4-0.2,2.5-0.5,3.3c-0.3,0.8-0.9,1.5-1.7,2c-0.8,0.5-1.9,0.8-3.2,0.8
	c-1.3,0-2.3-0.2-3.2-0.7c-0.8-0.4-1.4-1.1-1.8-1.9c-0.4-0.8-0.5-2-0.5-3.4v-7.9h1.8v7.9c0,1.2,0.1,2.1,0.3,2.6
	c0.2,0.5,0.6,1,1.1,1.3s1.2,0.5,2,0.5c1.3,0,2.3-0.3,2.9-0.9c0.6-0.6,0.9-1.8,0.9-3.5L230.6,156.6L230.6,156.6L230.6,156.6z"/>
<path class="st4" d="M227.5,150.7v-1.6h5.8v5.1c-0.9,0.7-1.8,1.2-2.8,1.6c-1,0.4-1.9,0.5-2.9,0.5c-1.4,0-2.6-0.3-3.7-0.9
	c-1.1-0.6-1.9-1.4-2.5-2.5s-0.8-2.3-0.8-3.7s0.3-2.6,0.8-3.8c0.5-1.2,1.4-2,2.4-2.6c1-0.6,2.3-0.8,3.6-0.8c1,0,1.9,0.2,2.7,0.5
	c0.8,0.3,1.4,0.8,1.9,1.3c0.5,0.6,0.8,1.3,1,2.2l-1.6,0.4c-0.2-0.7-0.5-1.2-0.8-1.7c-0.3-0.5-0.7-0.7-1.3-1s-1.2-0.4-1.9-0.4
	c-0.8,0-1.5,0.1-2.2,0.4c-0.6,0.2-1.1,0.6-1.5,1c-0.4,0.4-0.7,0.9-0.9,1.4c-0.4,0.8-0.5,1.8-0.5,2.8c0,1.2,0.2,2.2,0.6,3.1
	c0.4,0.8,1,1.4,1.8,1.8c0.8,0.4,1.7,0.6,2.6,0.6c0.8,0,1.6-0.1,2.3-0.4c0.7-0.3,1.3-0.6,1.7-1v-2.6L227.5,150.7L227.5,150.7
	L227.5,150.7z"/>
<path class="st0" d="M234.9,159.7l5.3-13.8h2l5.6,13.8h-2.1l-1.6-4.2h-5.8l-1.5,4.2H234.9z M238.9,154h4.7l-1.4-3.8
	c-0.4-1.2-0.8-2.1-1-2.8c-0.2,0.9-0.4,1.8-0.7,2.6L238.9,154z"/>
<path class="st0" d="M258.6,155.9v-1.6h5.8v5.1c-0.9,0.7-1.8,1.2-2.8,1.6c-1,0.4-1.9,0.5-2.9,0.5c-1.4,0-2.6-0.3-3.7-0.9
	c-1.1-0.6-1.9-1.4-2.5-2.5s-0.8-2.3-0.8-3.7s0.3-2.6,0.8-3.8s1.4-2,2.4-2.6c1-0.6,2.3-0.8,3.6-0.8c1,0,1.9,0.2,2.7,0.5
	c0.8,0.3,1.4,0.8,1.9,1.3c0.5,0.6,0.8,1.3,1,2.2l-1.6,0.4c-0.2-0.7-0.5-1.2-0.8-1.7c-0.3-0.5-0.7-0.7-1.3-1s-1.2-0.4-1.9-0.4
	c-0.8,0-1.5,0.1-2.2,0.4c-0.6,0.2-1.1,0.6-1.5,1c-0.4,0.4-0.7,0.9-0.9,1.4c-0.4,0.9-0.5,1.8-0.5,2.8c0,1.2,0.2,2.2,0.6,3.1
	c0.4,0.8,1,1.4,1.8,1.8c0.8,0.4,1.7,0.6,2.6,0.6c0.8,0,1.6-0.1,2.3-0.4c0.7-0.3,1.3-0.6,1.7-1v-2.3H258.6L258.6,155.9L258.6,155.9z"
	/>
<path class="st0" d="M273.4,138.8h1.8v7.9c0,1.4-0.2,2.5-0.5,3.3s-0.9,1.5-1.7,2c-0.8,0.5-1.9,0.8-3.2,0.8s-2.3-0.2-3.2-0.7
	c-0.8-0.4-1.4-1.1-1.8-1.9c-0.4-0.8-0.5-2-0.5-3.4v-7.9h1.8v7.9c0,1.2,0.1,2.1,0.3,2.6s0.6,1,1.1,1.3c0.5,0.3,1.2,0.5,2,0.5
	c1.3,0,2.3-0.3,2.9-0.9c0.6-0.6,0.9-1.8,0.9-3.5L273.4,138.8L273.4,138.8L273.4,138.8z"/>
<path class="st4" d="M202,142.3h1.8v7.9c0,1.4-0.2,2.5-0.5,3.3c-0.3,0.8-0.9,1.5-1.7,2c-0.8,0.5-1.9,0.8-3.2,0.8
	c-1.3,0-2.3-0.2-3.2-0.7c-0.8-0.4-1.4-1.1-1.8-1.9c-0.4-0.8-0.5-2-0.5-3.4v-7.9h1.8v7.9c0,1.2,0.1,2.1,0.3,2.6
	c0.2,0.5,0.6,1,1.1,1.3s1.2,0.5,2,0.5c1.3,0,2.3-0.3,2.9-0.9c0.6-0.6,0.9-1.8,0.9-3.5L202,142.3L202,142.3L202,142.3z"/>
<path class="st4" d="M192.1,170.4l5.3-13.8h2l5.6,13.8h-2.1l-1.6-4.2h-5.8l-1.5,4.2H192.1z M196.1,164.7h4.7l-1.4-3.8
	c-0.4-1.2-0.8-2.1-1-2.9c-0.2,0.9-0.4,1.8-0.7,2.6L196.1,164.7z"/>
<path class="st4" d="M202,170.9h1.8v7.9c0,1.4-0.2,2.5-0.5,3.3c-0.3,0.8-0.9,1.5-1.7,2c-0.8,0.5-1.9,0.8-3.2,0.8
	c-1.3,0-2.3-0.2-3.2-0.7c-0.8-0.4-1.4-1.1-1.8-1.9c-0.4-0.8-0.5-2-0.5-3.4v-8h1.8v7.9c0,1.2,0.1,2.1,0.3,2.6c0.2,0.5,0.6,1,1.1,1.3
	s1.2,0.5,2,0.5c1.3,0,2.3-0.3,2.9-0.9c0.6-0.6,0.9-1.8,0.9-3.5L202,170.9L202,170.9L202,170.9z"/>
<path class="st4" d="M202.8,194.1l1.8,0.5c-0.4,1.5-1.1,2.6-2.1,3.4c-1,0.8-2.2,1.2-3.6,1.2c-1.4,0-2.7-0.3-3.6-0.9
	c-0.9-0.6-1.6-1.5-2.1-2.6s-0.7-2.4-0.7-3.7c0-1.4,0.3-2.7,0.8-3.8s1.3-1.9,2.3-2.4c1-0.6,2.1-0.8,3.3-0.8c1.4,0,2.5,0.4,3.5,1.1
	s1.6,1.7,2,3l-1.8,0.4c-0.3-1-0.8-1.7-1.4-2.2s-1.4-0.7-2.3-0.7c-1.1,0-1.9,0.2-2.6,0.8s-1.2,1.2-1.5,2c-0.3,0.9-0.4,1.7-0.4,2.6
	c0,1.2,0.2,2.2,0.5,3.1c0.3,0.9,0.9,1.5,1.6,2c0.7,0.4,1.5,0.6,2.3,0.6c1,0,1.9-0.3,2.6-0.9C202,196.2,202.5,195.3,202.8,194.1
	L202.8,194.1L202.8,194.1z"/>
<path class="st4" d="M192.1,213.2l5.3-13.8h2l5.6,13.8h-2.1l-1.6-4.2h-5.8l-1.5,4.2H192.1z M196.1,207.6h4.7l-1.4-3.8
	c-0.4-1.2-0.8-2.1-1-2.9c-0.2,0.9-0.4,1.8-0.7,2.6L196.1,207.6z"/>
<path class="st0" d="M177.8,213.2l5.3-13.8h2l5.6,13.8h-2.1L187,209h-5.8l-1.5,4.2H177.8z M181.8,207.6h4.7l-1.4-3.8
	c-0.4-1.2-0.8-2.1-1-2.9c-0.2,0.9-0.4,1.8-0.7,2.6L181.8,207.6z"/>
<path class="st0" d="M163.5,216.8l5.3-13.8h2l5.6,13.8h-2.1l-1.6-4.2h-5.8l-1.5,4.2H163.5z M167.5,211.1h4.7l-1.4-3.8
	c-0.4-1.2-0.8-2.1-1-2.9c-0.2,0.9-0.4,1.8-0.7,2.6L167.5,211.1z"/>
<g>
	<line class="st5" x1="221.5" y1="205.7" x2="204.4" y2="205.7"/>
	<line class="st5" x1="221.5" y1="191.5" x2="204.4" y2="191.5"/>
	<line class="st5" x1="221.5" y1="177.2" x2="204.4" y2="177.2"/>
	<line class="st5" x1="221.5" y1="162.9" x2="204.4" y2="162.9"/>
</g>
<path class="st0" d="M274.2,129.8l1.8,0.5c-0.4,1.5-1.1,2.6-2.1,3.4s-2.2,1.2-3.6,1.2s-2.7-0.3-3.6-0.9c-0.9-0.6-1.6-1.5-2.1-2.6
	c-0.5-1.2-0.7-2.4-0.7-3.7c0-1.4,0.3-2.7,0.8-3.8s1.3-1.9,2.3-2.4s2.1-0.8,3.3-0.8c1.4,0,2.5,0.3,3.5,1.1c0.9,0.7,1.6,1.7,2,3
	l-1.8,0.4c-0.3-1-0.8-1.7-1.4-2.2s-1.4-0.7-2.3-0.7c-1.1,0-1.9,0.2-2.6,0.8s-1.2,1.2-1.5,2s-0.4,1.7-0.4,2.6c0,1.2,0.2,2.2,0.5,3.1
	c0.3,0.9,0.9,1.5,1.6,2s1.5,0.7,2.3,0.7c1,0,1.9-0.3,2.6-0.9C273.5,132,273.9,131,274.2,129.8L274.2,129.8L274.2,129.8z"/>
<path class="st0" d="M259.9,119.1l1.8,0.5c-0.4,1.5-1.1,2.6-2.1,3.4s-2.2,1.2-3.6,1.2c-1.4,0-2.7-0.3-3.6-0.9
	c-0.9-0.6-1.6-1.5-2.1-2.6c-0.5-1.2-0.7-2.4-0.7-3.7c0-1.4,0.3-2.7,0.8-3.8s1.3-1.9,2.3-2.4s2.1-0.8,3.3-0.8c1.4,0,2.5,0.3,3.5,1.1
	c0.9,0.7,1.6,1.7,2,3l-1.8,0.4c-0.3-1-0.8-1.7-1.4-2.2s-1.4-0.7-2.3-0.7c-1.1,0-1.9,0.2-2.6,0.8s-1.2,1.2-1.5,2
	c-0.3,0.8-0.4,1.7-0.4,2.6c0,1.2,0.2,2.2,0.5,3.1c0.3,0.9,0.9,1.5,1.6,2s1.5,0.7,2.3,0.7c1,0,1.9-0.3,2.6-0.9
	S259.6,120.3,259.9,119.1L259.9,119.1L259.9,119.1z"/>
<path class="st0" d="M244.8,120.9h1.8v7.9c0,1.4-0.2,2.5-0.5,3.3c-0.3,0.8-0.9,1.5-1.7,2c-0.8,0.5-1.9,0.8-3.2,0.8
	c-1.3,0-2.3-0.2-3.2-0.7c-0.8-0.4-1.4-1.1-1.8-1.9s-0.5-2-0.5-3.4v-8h1.8v7.9c0,1.2,0.1,2.1,0.3,2.6c0.2,0.5,0.6,1,1.1,1.3
	s1.2,0.5,2,0.5c1.3,0,2.3-0.3,2.9-0.9c0.6-0.6,0.9-1.8,0.9-3.5L244.8,120.9L244.8,120.9L244.8,120.9z"/>
<path class="st4" d="M231.3,133.4l1.8,0.5c-0.4,1.5-1.1,2.6-2.1,3.4s-2.2,1.2-3.6,1.2c-1.4,0-2.7-0.3-3.6-0.9
	c-0.9-0.6-1.6-1.5-2.1-2.6c-0.5-1.2-0.7-2.4-0.7-3.7c0-1.4,0.3-2.7,0.8-3.8c0.5-1.1,1.3-1.9,2.3-2.4s2.1-0.8,3.3-0.8
	c1.4,0,2.5,0.3,3.5,1.1c0.9,0.7,1.6,1.7,2,3l-1.8,0.4c-0.3-1-0.8-1.7-1.4-2.2s-1.4-0.7-2.3-0.7c-1.1,0-1.9,0.2-2.6,0.8
	s-1.2,1.2-1.5,2c-0.3,0.8-0.4,1.7-0.4,2.6c0,1.2,0.2,2.2,0.5,3.1c0.3,0.9,0.9,1.5,1.6,2s1.5,0.7,2.3,0.7c1,0,1.9-0.3,2.6-0.9
	C230.6,135.6,231.1,134.6,231.3,133.4L231.3,133.4L231.3,133.4z"/>
<path class="st4" d="M227.5,118.6V117h5.8v5.1c-0.9,0.7-1.8,1.2-2.8,1.6s-1.9,0.5-2.9,0.5c-1.4,0-2.6-0.3-3.7-0.9
	c-1.1-0.6-1.9-1.4-2.5-2.5s-0.8-2.3-0.8-3.7s0.3-2.6,0.8-3.8s1.4-2,2.4-2.6s2.3-0.8,3.6-0.8c1,0,1.9,0.2,2.7,0.5
	c0.8,0.3,1.4,0.8,1.9,1.3c0.5,0.6,0.8,1.3,1,2.2l-1.6,0.4c-0.2-0.7-0.5-1.2-0.8-1.7c-0.3-0.5-0.7-0.7-1.3-1s-1.2-0.4-1.9-0.4
	c-0.8,0-1.5,0.1-2.2,0.4c-0.6,0.2-1.1,0.6-1.5,1s-0.7,0.9-0.9,1.4c-0.4,0.8-0.5,1.8-0.5,2.8c0,1.2,0.2,2.2,0.6,3.1
	c0.4,0.8,1,1.4,1.8,1.8c0.8,0.4,1.7,0.6,2.6,0.6c0.8,0,1.6-0.2,2.3-0.4c0.8-0.3,1.3-0.6,1.7-1v-2.6L227.5,118.6L227.5,118.6
	L227.5,118.6z"/>
<path class="st4" d="M227.5,104.3v-1.6h5.8v5.1c-0.9,0.7-1.8,1.2-2.8,1.6s-1.9,0.5-2.9,0.5c-1.4,0-2.6-0.3-3.7-0.9
	c-1.1-0.6-1.9-1.4-2.5-2.5s-0.8-2.3-0.8-3.7s0.3-2.6,0.8-3.8s1.4-2,2.4-2.6s2.3-0.8,3.6-0.8c1,0,1.9,0.2,2.7,0.5
	c0.8,0.3,1.4,0.8,1.9,1.3c0.5,0.6,0.8,1.3,1,2.2l-1.6,0.4c-0.2-0.7-0.5-1.2-0.8-1.7c-0.3-0.5-0.7-0.7-1.3-1s-1.2-0.4-1.9-0.4
	c-0.8,0-1.5,0.1-2.2,0.4c-0.6,0.2-1.1,0.6-1.5,1s-0.7,0.9-0.9,1.4c-0.4,0.8-0.5,1.8-0.5,2.8c0,1.2,0.2,2.2,0.6,3.1
	c0.4,0.8,1,1.4,1.8,1.8c0.8,0.4,1.7,0.6,2.6,0.6c0.8,0,1.6-0.2,2.3-0.4c0.8-0.3,1.3-0.6,1.7-1V104L227.5,104.3L227.5,104.3
	L227.5,104.3z"/>
<path class="st0" d="M230.6,81.6h1.8v8c0,1.4-0.2,2.5-0.5,3.3c-0.3,0.8-0.9,1.5-1.7,2c-0.8,0.5-1.9,0.8-3.2,0.8
	c-1.3,0-2.3-0.2-3.2-0.7c-0.8-0.4-1.4-1.1-1.8-1.9c-0.4-0.8-0.5-2-0.5-3.4v-8h1.8v7.9c0,1.2,0.1,2.1,0.3,2.6c0.2,0.5,0.6,1,1.1,1.3
	s1.2,0.5,2,0.5c1.3,0,2.3-0.3,2.9-0.9c0.6-0.6,0.9-1.8,0.9-3.5L230.6,81.6L230.6,81.6L230.6,81.6z"/>
<path class="st0" d="M227.8,77.6l5.3-13.8h2l5.6,13.8h-2.1l-1.6-4.2h-5.8l-1.5,4.2H227.8z M231.8,71.9h4.7l-1.4-3.8
	c-0.4-1.2-0.8-2.1-1-2.8c-0.2,0.9-0.4,1.8-0.7,2.6L231.8,71.9z"/>
<line class="st2" x1="243.8" y1="70.1" x2="253.3" y2="70.1"/>
<path d="M254.1,73.9l1.8-0.2c0.1,0.9,0.4,1.5,0.9,2s1,0.7,1.7,0.7c0.8,0,1.5-0.3,2.1-0.9c0.6-0.6,0.8-1.4,0.8-2.4s-0.3-1.7-0.8-2.3
	s-1.2-0.8-2.1-0.8c-0.5,0-1,0.1-1.5,0.4s-0.8,0.6-1,1l-1.6-0.2l1.3-7.1h6.8v1.6H257l-0.7,3.7c0.8-0.6,1.7-0.9,2.6-0.9
	c1.2,0,2.2,0.4,3,1.2c0.8,0.8,1.2,1.9,1.2,3.2c0,1.3-0.4,2.3-1.1,3.2c-0.9,1.1-2.1,1.7-3.6,1.7c-1.2,0-2.3-0.3-3.1-1
	C254.5,76.1,254.2,75.1,254.1,73.9L254.1,73.9L254.1,73.9z M264.7,70.8c0-1.6,0.2-2.9,0.5-3.9s0.8-1.8,1.5-2.3s1.5-0.8,2.5-0.8
	c0.7,0,1.4,0.2,1.9,0.5c0.6,0.3,1,0.7,1.4,1.3s0.6,1.2,0.9,2c0.2,0.8,0.3,1.9,0.3,3.2c0,1.6-0.2,2.9-0.5,3.9s-0.8,1.8-1.5,2.3
	s-1.5,0.8-2.5,0.8c-1.3,0-2.4-0.5-3.1-1.4C265.1,75.2,264.7,73.3,264.7,70.8L264.7,70.8z M266.4,70.8c0,2.3,0.3,3.8,0.8,4.5
	c0.5,0.8,1.2,1.1,2,1.1s1.4-0.4,2-1.1c0.5-0.8,0.8-2.2,0.8-4.5c0-2.3-0.3-3.8-0.8-4.5c-0.5-0.7-1.2-1.1-2-1.1s-1.4,0.3-1.9,1
	C266.7,67,266.4,68.5,266.4,70.8L266.4,70.8L266.4,70.8z"/>
<path class="st0" d="M213.5,66.8l5.3-13.8h2l5.6,13.8h-2.1l-1.6-4.2h-5.8l-1.5,4.2H213.5z M217.5,61.2h4.7l-1.4-3.8
	c-0.4-1.2-0.8-2.1-1-2.9c-0.2,0.9-0.4,1.8-0.7,2.6C219,57.2,217.5,61.2,217.5,61.2z"/>
<path class="st0" d="M205.6,53.1h1.8v8c0,1.4-0.2,2.5-0.5,3.3c-0.3,0.8-0.9,1.5-1.7,2c-0.8,0.5-1.9,0.8-3.2,0.8
	c-1.3,0-2.3-0.2-3.2-0.7c-0.8-0.4-1.4-1.1-1.8-1.9c-0.4-0.8-0.5-2-0.5-3.4v-8h1.8v7.9c0,1.2,0.1,2.1,0.3,2.6c0.2,0.6,0.6,1,1.1,1.3
	c0.5,0.3,1.2,0.5,2,0.5c1.3,0,2.3-0.3,2.9-0.9c0.6-0.6,0.9-1.8,0.9-3.5L205.6,53.1L205.6,53.1L205.6,53.1z"/>
<path class="st0" d="M192.1,76.3l1.8,0.5c-0.4,1.5-1.1,2.6-2.1,3.4s-2.2,1.2-3.6,1.2c-1.4,0-2.7-0.3-3.6-0.9
	c-0.9-0.6-1.6-1.5-2.1-2.6c-0.5-1.2-0.7-2.4-0.7-3.7c0-1.4,0.3-2.7,0.8-3.8s1.3-1.9,2.3-2.4s2.1-0.8,3.3-0.8c1.4,0,2.5,0.3,3.5,1
	c1,0.7,1.6,1.7,2,3l-1.8,0.4c-0.3-1-0.8-1.7-1.4-2.2c-0.6-0.5-1.4-0.7-2.3-0.7c-1.1,0-1.9,0.2-2.6,0.8s-1.2,1.2-1.5,2
	c-0.3,0.8-0.4,1.7-0.4,2.6c0,1.2,0.2,2.2,0.5,3.1c0.3,0.9,0.9,1.5,1.6,2s1.5,0.7,2.3,0.7c1,0,1.9-0.3,2.6-0.9
	C191.4,78.4,191.8,77.5,192.1,76.3L192.1,76.3L192.1,76.3z"/>
<path class="st0" d="M199,90v-1.6h5.8v5.1c-0.9,0.7-1.8,1.2-2.8,1.6s-1.9,0.5-2.9,0.5c-1.4,0-2.6-0.3-3.7-0.9
	c-1.1-0.6-1.9-1.4-2.5-2.5s-0.8-2.3-0.8-3.7s0.3-2.6,0.8-3.8c0.5-1.2,1.4-2,2.4-2.6s2.3-0.8,3.6-0.8c1,0,1.9,0.2,2.7,0.5
	c0.8,0.3,1.4,0.8,1.9,1.3c0.5,0.6,0.8,1.3,1,2.2l-1.6,0.5c-0.2-0.7-0.5-1.2-0.8-1.7c-0.3-0.5-0.7-0.7-1.3-1
	c-0.6-0.2-1.2-0.4-1.9-0.4c-0.8,0-1.5,0.1-2.2,0.4c-0.6,0.2-1.1,0.6-1.5,1s-0.7,0.9-0.9,1.4c-0.4,0.8-0.5,1.8-0.5,2.8
	c0,1.2,0.2,2.2,0.6,3.1c0.4,0.8,1,1.4,1.8,1.8c0.8,0.4,1.7,0.6,2.6,0.6c0.8,0,1.6-0.2,2.3-0.4c0.8-0.3,1.3-0.6,1.7-1v-2.6L199,90
	L199,90L199,90z"/>
<path class="st4" d="M202.8,104.8l1.8,0.5c-0.4,1.5-1.1,2.6-2.1,3.4s-2.2,1.2-3.6,1.2c-1.4,0-2.7-0.3-3.6-0.9
	c-0.9-0.6-1.6-1.5-2.1-2.6c-0.5-1.2-0.7-2.4-0.7-3.7c0-1.4,0.3-2.7,0.8-3.8s1.3-1.9,2.3-2.4s2.1-0.8,3.3-0.8c1.4,0,2.5,0.3,3.5,1.1
	c0.9,0.7,1.6,1.7,2,3l-1.8,0.4c-0.3-1-0.8-1.7-1.4-2.2s-1.4-0.7-2.3-0.7c-1.1,0-1.9,0.2-2.6,0.8s-1.2,1.2-1.5,2
	c-0.3,0.8-0.4,1.7-0.4,2.6c0,1.2,0.2,2.2,0.5,3.1c0.3,0.9,0.9,1.5,1.6,2s1.5,0.7,2.3,0.7c1,0,1.9-0.3,2.6-0.9S202.5,106,202.8,104.8
	L202.8,104.8L202.8,104.8z"/>
<path class="st4" d="M202.8,119.1l1.8,0.5c-0.4,1.5-1.1,2.6-2.1,3.4s-2.2,1.2-3.6,1.2c-1.4,0-2.7-0.3-3.6-0.9
	c-0.9-0.6-1.6-1.5-2.1-2.6c-0.5-1.2-0.7-2.4-0.7-3.7c0-1.4,0.3-2.7,0.8-3.8s1.3-1.9,2.3-2.4s2.1-0.8,3.3-0.8c1.4,0,2.5,0.3,3.5,1.1
	c0.9,0.7,1.6,1.7,2,3l-1.8,0.4c-0.3-1-0.8-1.7-1.4-2.2s-1.4-0.7-2.3-0.7c-1.1,0-1.9,0.2-2.6,0.8s-1.2,1.2-1.5,2
	c-0.3,0.8-0.4,1.7-0.4,2.6c0,1.2,0.2,2.2,0.5,3.1c0.3,0.9,0.9,1.5,1.6,2s1.5,0.7,2.3,0.7c1,0,1.9-0.3,2.6-0.9
	S202.5,120.3,202.8,119.1L202.8,119.1L202.8,119.1z"/>
<path class="st4" d="M199,132.8v-1.6h5.8v5.1c-0.9,0.7-1.8,1.2-2.8,1.6c-1,0.4-1.9,0.5-2.9,0.5c-1.4,0-2.6-0.3-3.7-0.9
	c-1.1-0.6-1.9-1.4-2.5-2.5c-0.6-1.1-0.8-2.3-0.8-3.7s0.3-2.6,0.8-3.8s1.4-2,2.4-2.6s2.3-0.8,3.6-0.8c1,0,1.9,0.2,2.7,0.5
	c0.8,0.3,1.4,0.8,1.9,1.3c0.5,0.6,0.8,1.3,1,2.2l-1.6,0.4c-0.2-0.7-0.5-1.2-0.8-1.7c-0.3-0.5-0.7-0.7-1.3-1s-1.2-0.4-1.9-0.4
	c-0.8,0-1.5,0.1-2.2,0.4c-0.6,0.2-1.1,0.6-1.5,1s-0.7,0.9-0.9,1.4c-0.4,0.8-0.5,1.8-0.5,2.8c0,1.2,0.2,2.2,0.6,3.1
	c0.4,0.8,1,1.4,1.8,1.8c0.8,0.4,1.7,0.6,2.6,0.6c0.8,0,1.6-0.2,2.3-0.4c0.8-0.3,1.3-0.6,1.7-1v-2.2L199,132.8L199,132.8L199,132.8z"
	/>
<g>
	<line class="st5" x1="221.5" y1="130.8" x2="204.4" y2="130.8"/>
	<line class="st5" x1="221.5" y1="116.5" x2="204.4" y2="116.5"/>
	<line class="st5" x1="221.5" y1="102.2" x2="204.4" y2="102.2"/>
</g>
<path class="st0" d="M152.8,223.9l5.3-13.8h2l5.6,13.8h-2.1l-1.6-4.2h-5.8l-1.5,4.2H152.8z M156.8,218.3h4.7l-1.4-3.8
	c-0.4-1.2-0.8-2.1-1-2.9c-0.2,0.9-0.4,1.8-0.7,2.6L156.8,218.3z"/>
<path class="st6" d="M145.4,218.5v-1.6h5.8v5.1c-0.9,0.7-1.8,1.2-2.8,1.6c-1,0.4-1.9,0.5-2.9,0.5c-1.4,0-2.6-0.3-3.7-0.9
	c-1.1-0.6-1.9-1.4-2.5-2.5s-0.8-2.3-0.8-3.7s0.3-2.6,0.8-3.8s1.4-2,2.4-2.6s2.3-0.8,3.6-0.8c1,0,1.9,0.2,2.7,0.5
	c0.8,0.3,1.4,0.8,1.9,1.4c0.5,0.6,0.8,1.3,1,2.2l-1.6,0.4c-0.2-0.7-0.5-1.2-0.8-1.6c-0.3-0.4-0.7-0.7-1.3-1s-1.2-0.4-1.9-0.4
	c-0.8,0-1.5,0.1-2.2,0.4c-0.6,0.2-1.1,0.6-1.5,1s-0.7,0.9-0.9,1.4c-0.4,0.9-0.5,1.8-0.5,2.8c0,1.2,0.2,2.2,0.6,3.1
	c0.4,0.8,1,1.4,1.8,1.8c0.8,0.4,1.7,0.6,2.6,0.6c0.8,0,1.6-0.1,2.3-0.4c0.7-0.3,1.3-0.6,1.7-1v-2.6L145.4,218.5L145.4,218.5
	L145.4,218.5z"/>
<path class="st6" d="M148.4,195.9h1.8v7.9c0,1.4-0.2,2.5-0.5,3.3c-0.3,0.8-0.9,1.5-1.7,2c-0.8,0.5-1.9,0.8-3.2,0.8
	c-1.3,0-2.3-0.2-3.2-0.7c-0.8-0.4-1.4-1.1-1.8-1.9c-0.4-0.8-0.5-2-0.5-3.4v-8h1.8v7.9c0,1.2,0.1,2.1,0.3,2.6c0.2,0.5,0.6,1,1.1,1.3
	s1.2,0.5,2,0.5c1.3,0,2.3-0.3,2.9-0.9c0.6-0.6,0.9-1.8,0.9-3.5L148.4,195.9L148.4,195.9L148.4,195.9z"/>
<path class="st6" d="M149.2,190.5l1.8,0.5c-0.4,1.5-1.1,2.6-2.1,3.4c-1,0.8-2.2,1.2-3.6,1.2c-1.4,0-2.7-0.3-3.6-0.9
	c-0.9-0.6-1.6-1.5-2.1-2.6s-0.7-2.4-0.7-3.7c0-1.4,0.3-2.7,0.8-3.8s1.3-1.9,2.3-2.4c1-0.6,2.1-0.8,3.3-0.8c1.4,0,2.5,0.4,3.5,1.1
	s1.6,1.7,2,3l-1.8,0.4c-0.3-1-0.8-1.7-1.4-2.2c-0.6-0.5-1.4-0.7-2.3-0.7c-1.1,0-1.9,0.2-2.6,0.8s-1.2,1.2-1.5,2
	c-0.3,0.9-0.4,1.7-0.4,2.6c0,1.2,0.2,2.2,0.5,3.1c0.3,0.9,0.9,1.5,1.6,2c0.7,0.4,1.5,0.6,2.3,0.6c1,0,1.9-0.3,2.6-0.9
	C148.5,192.6,149,191.7,149.2,190.5L149.2,190.5L149.2,190.5z"/>
<path class="st6" d="M145.4,175.7v-1.6h5.8v5.1c-0.9,0.7-1.8,1.2-2.8,1.6c-1,0.4-1.9,0.5-2.9,0.5c-1.4,0-2.6-0.3-3.7-0.9
	c-1.1-0.6-1.9-1.4-2.5-2.5s-0.8-2.3-0.8-3.7s0.3-2.6,0.8-3.8s1.4-2,2.4-2.6s2.3-0.8,3.6-0.8c1,0,1.9,0.2,2.7,0.5
	c0.8,0.3,1.4,0.8,1.9,1.4c0.5,0.6,0.8,1.3,1,2.2l-1.6,0.4c-0.2-0.7-0.5-1.2-0.8-1.6c-0.3-0.4-0.7-0.7-1.3-1s-1.2-0.4-1.9-0.4
	c-0.8,0-1.5,0.1-2.2,0.4c-0.6,0.2-1.1,0.6-1.5,1s-0.7,0.9-0.9,1.4c-0.4,0.9-0.5,1.8-0.5,2.8c0,1.2,0.2,2.2,0.6,3.1
	c0.4,0.8,1,1.4,1.8,1.8c0.8,0.4,1.7,0.6,2.6,0.6c0.8,0,1.6-0.1,2.3-0.4c0.7-0.3,1.3-0.6,1.7-1v-2.6L145.4,175.7L145.4,175.7
	L145.4,175.7z"/>
<path class="st6" d="M145.4,161.4v-1.6h5.8v5.1c-0.9,0.7-1.8,1.2-2.8,1.6c-1,0.4-1.9,0.5-2.9,0.5c-1.4,0-2.6-0.3-3.7-0.9
	c-1.1-0.6-1.9-1.4-2.5-2.5s-0.8-2.3-0.8-3.7s0.3-2.6,0.8-3.8s1.4-2,2.4-2.6s2.3-0.8,3.6-0.8c1,0,1.9,0.2,2.7,0.5
	c0.8,0.3,1.4,0.8,1.9,1.4c0.5,0.6,0.8,1.3,1,2.2l-1.6,0.4c-0.2-0.7-0.5-1.2-0.8-1.6c-0.3-0.4-0.7-0.7-1.3-1s-1.2-0.4-1.9-0.4
	c-0.8,0-1.5,0.1-2.2,0.4c-0.6,0.2-1.1,0.6-1.5,1s-0.7,0.9-0.9,1.4c-0.4,0.9-0.5,1.8-0.5,2.8c0,1.2,0.2,2.2,0.6,3.1
	c0.4,0.8,1,1.4,1.8,1.8c0.8,0.4,1.7,0.6,2.6,0.6c0.8,0,1.6-0.1,2.3-0.4c0.7-0.3,1.3-0.6,1.7-1v-2.6L145.4,161.4L145.4,161.4
	L145.4,161.4z"/>
<path class="st0" d="M142.1,152.5l5.3-13.8h2l5.6,13.8h-2.1l-1.6-4.2h-5.8l-1.5,4.2H142.1z M146.1,146.9h4.7l-1.4-3.8
	c-0.4-1.2-0.8-2.1-1-2.8c-0.2,0.9-0.4,1.8-0.7,2.6L146.1,146.9z"/>
<path class="st0" d="M152.8,138.2l5.3-13.8h2l5.6,13.8h-2.1L162,134h-5.8l-1.5,4.2H152.8z M156.8,132.6h4.7l-1.4-3.8
	c-0.4-1.2-0.8-2.1-1-2.8c-0.2,0.9-0.4,1.8-0.7,2.6L156.8,132.6z"/>
<path class="st0" d="M159.2,110.2h1.8v7.9c0,1.4-0.2,2.5-0.5,3.3c-0.3,0.8-0.9,1.5-1.7,2c-0.8,0.5-1.9,0.8-3.2,0.8
	c-1.3,0-2.3-0.2-3.2-0.7c-0.8-0.4-1.4-1.1-1.8-1.9c-0.4-0.8-0.5-2-0.5-3.4v-7.9h1.8v7.9c0,1.2,0.1,2.1,0.3,2.6
	c0.2,0.5,0.6,1,1.1,1.3s1.2,0.5,2,0.5c1.3,0,2.3-0.3,2.9-0.9c0.6-0.6,0.9-1.8,0.9-3.5L159.2,110.2L159.2,110.2L159.2,110.2z"/>
<path class="st0" d="M141.9,107.8v-1.6h5.8v5.1c-0.9,0.7-1.8,1.2-2.8,1.6s-1.9,0.5-2.9,0.5c-1.4,0-2.6-0.3-3.7-0.9
	c-1.1-0.6-1.9-1.4-2.5-2.5s-0.8-2.3-0.8-3.7s0.3-2.6,0.8-3.8s1.4-2,2.4-2.6s2.3-0.8,3.6-0.8c1,0,1.9,0.2,2.7,0.5
	c0.8,0.3,1.4,0.8,1.9,1.3c0.5,0.6,0.8,1.3,1,2.2l-1.6,0.4c-0.2-0.7-0.5-1.2-0.8-1.7c-0.3-0.5-0.7-0.7-1.3-1s-1.2-0.4-1.9-0.4
	c-0.8,0-1.5,0.1-2.2,0.4c-0.6,0.2-1.1,0.6-1.5,1s-0.7,0.9-0.9,1.4c-0.4,0.8-0.5,1.8-0.5,2.8c0,1.2,0.2,2.2,0.6,3.1
	c0.4,0.8,1,1.4,1.8,1.8c0.8,0.4,1.7,0.6,2.6,0.6c0.8,0,1.6-0.2,2.3-0.4c0.8-0.3,1.3-0.6,1.7-1v-2.2L141.9,107.8L141.9,107.8
	L141.9,107.8z"/>
<path class="st0" d="M127.6,97.1v-1.6h5.8v5.1c-0.9,0.7-1.8,1.2-2.8,1.6s-1.9,0.5-2.9,0.5c-1.4,0-2.6-0.3-3.7-0.9s-1.9-1.4-2.5-2.5
	s-0.8-2.3-0.8-3.7s0.3-2.6,0.8-3.8s1.4-2,2.4-2.6s2.3-0.8,3.6-0.8c1,0,1.9,0.2,2.7,0.5s1.4,0.8,1.9,1.3c0.5,0.6,0.8,1.3,1,2.2
	l-1.6,0.4c-0.2-0.7-0.5-1.2-0.8-1.7s-0.7-0.7-1.3-1s-1.2-0.4-1.9-0.4c-0.8,0-1.5,0.1-2.2,0.4c-0.6,0.2-1.1,0.6-1.5,1
	s-0.7,0.9-0.9,1.4c-0.4,0.8-0.5,1.8-0.5,2.8c0,1.2,0.2,2.2,0.6,3.1c0.4,0.8,1,1.4,1.8,1.8s1.7,0.6,2.6,0.6c0.8,0,1.6-0.2,2.3-0.4
	c0.8-0.3,1.3-0.6,1.7-1v-2.6L127.6,97.1L127.6,97.1L127.6,97.1z"/>
<path class="st0" d="M106.4,106.1l5.3-13.8h2l5.6,13.8h-2.1l-1.6-4.2h-5.7l-1.5,4.2C108.3,106.1,106.4,106.1,106.4,106.1z
	 M110.4,100.5h4.7l-1.4-3.8c-0.4-1.2-0.8-2.1-1-2.8c-0.2,0.9-0.4,1.8-0.7,2.6L110.4,100.5z"/>
<path class="st0" d="M99,111.4v-1.6h5.8v5.1c-0.9,0.7-1.8,1.2-2.8,1.6s-1.9,0.5-2.9,0.5c-1.4,0-2.6-0.3-3.7-0.9s-1.9-1.4-2.5-2.5
	s-0.8-2.3-0.8-3.7s0.3-2.6,0.8-3.8s1.4-2,2.4-2.6s2.3-0.8,3.6-0.8c1,0,1.9,0.2,2.7,0.5c0.8,0.3,1.4,0.8,1.9,1.3
	c0.5,0.6,0.8,1.3,1,2.2l-1.6,0.4c-0.2-0.7-0.5-1.2-0.8-1.7s-0.7-0.7-1.3-1s-1.2-0.4-1.9-0.4c-0.8,0-1.5,0.1-2.2,0.4
	c-0.6,0.2-1.1,0.6-1.5,1s-0.7,0.9-0.9,1.4c-0.4,0.8-0.5,1.8-0.5,2.8c0,1.2,0.2,2.2,0.6,3.1c0.4,0.8,1,1.4,1.8,1.8s1.7,0.6,2.6,0.6
	c0.8,0,1.6-0.2,2.3-0.4c0.8-0.3,1.3-0.6,1.7-1v-2.6L99,111.4L99,111.4L99,111.4z"/>
<path class="st0" d="M95.4,129.3v-1.6h5.8v5.1c-0.9,0.7-1.8,1.2-2.8,1.6c-1,0.4-1.9,0.5-2.9,0.5c-1.4,0-2.6-0.3-3.7-0.9
	c-1.1-0.6-1.9-1.4-2.5-2.5c-0.6-1.1-0.8-2.3-0.8-3.7c0-1.4,0.3-2.6,0.8-3.8s1.4-2,2.4-2.6s2.3-0.8,3.6-0.8c1,0,1.9,0.2,2.7,0.5
	c0.8,0.3,1.4,0.8,1.9,1.3c0.5,0.6,0.8,1.3,1,2.2l-1.6,0.4c-0.2-0.7-0.5-1.2-0.8-1.7s-0.7-0.7-1.3-1s-1.2-0.4-1.9-0.4
	c-0.8,0-1.5,0.1-2.2,0.4c-0.6,0.2-1.1,0.6-1.5,1s-0.7,0.9-0.9,1.4c-0.4,0.8-0.5,1.8-0.5,2.8c0,1.2,0.2,2.2,0.6,3.1
	c0.4,0.8,1,1.4,1.8,1.8c0.8,0.4,1.7,0.6,2.6,0.6c0.8,0,1.6-0.2,2.3-0.4c0.8-0.3,1.3-0.6,1.7-1V129L95.4,129.3L95.4,129.3L95.4,129.3
	z"/>
<path class="st0" d="M102.6,147.1v-1.6h5.8v5.1c-0.9,0.7-1.8,1.2-2.8,1.6c-1,0.4-1.9,0.5-2.9,0.5c-1.4,0-2.6-0.3-3.7-0.9
	c-1.1-0.6-1.9-1.4-2.5-2.5c-0.6-1.1-0.8-2.3-0.8-3.7s0.3-2.6,0.8-3.8c0.5-1.2,1.4-2,2.4-2.6c1-0.6,2.3-0.8,3.6-0.8
	c1,0,1.9,0.2,2.7,0.5c0.8,0.3,1.4,0.8,1.9,1.3c0.5,0.6,0.8,1.3,1,2.2l-1.6,0.4c-0.2-0.7-0.5-1.2-0.8-1.7s-0.7-0.7-1.3-1
	s-1.2-0.4-1.9-0.4c-0.8,0-1.5,0.1-2.2,0.4c-0.6,0.2-1.1,0.6-1.5,1c-0.4,0.4-0.7,0.9-0.9,1.4c-0.4,0.8-0.5,1.8-0.5,2.8
	c0,1.2,0.2,2.2,0.6,3.1c0.4,0.8,1,1.4,1.8,1.8c0.8,0.4,1.7,0.6,2.6,0.6c0.8,0,1.6-0.1,2.3-0.4s1.3-0.6,1.7-1v-2.6L102.6,147.1
	L102.6,147.1L102.6,147.1z"/>
<path class="st6" d="M119.9,153h1.8v7.9c0,1.4-0.2,2.5-0.5,3.3s-0.9,1.5-1.7,2c-0.8,0.5-1.9,0.8-3.2,0.8s-2.3-0.2-3.2-0.7
	c-0.8-0.4-1.4-1.1-1.8-1.9s-0.5-2-0.5-3.4v-7.9h1.8v7.9c0,1.2,0.1,2.1,0.3,2.6s0.6,1,1.1,1.3s1.2,0.5,2,0.5c1.3,0,2.3-0.3,2.9-0.9
	c0.6-0.6,0.9-1.8,0.9-3.5L119.9,153L119.9,153L119.9,153z"/>
<line class="st2" x1="106.9" y1="159.3" x2="97.4" y2="159.3"/>
<path d="M79.4,159.3c-0.7-0.3-1.2-0.6-1.5-1.1s-0.5-1-0.5-1.7c0-1,0.4-1.8,1.1-2.5s1.7-1,2.9-1s2.2,0.4,2.9,1.1
	c0.7,0.7,1.1,1.6,1.1,2.6c0,0.6-0.2,1.2-0.5,1.7s-0.8,0.8-1.5,1.1c0.8,0.3,1.5,0.7,1.9,1.3s0.7,1.4,0.7,2.2c0,1.2-0.4,2.2-1.2,3
	s-1.9,1.2-3.3,1.2s-2.5-0.4-3.3-1.2s-1.2-1.8-1.2-3c0-0.9,0.2-1.6,0.7-2.2C78,160,78.6,159.6,79.4,159.3L79.4,159.3L79.4,159.3z
	 M79.1,156.5c0,0.6,0.2,1.2,0.6,1.6s1,0.6,1.6,0.6s1.2-0.2,1.6-0.6c0.4-0.4,0.6-0.9,0.6-1.5s-0.2-1.1-0.6-1.6
	c-0.4-0.4-1-0.6-1.6-0.6s-1.2,0.2-1.6,0.6C79.3,155.4,79.1,155.9,79.1,156.5L79.1,156.5L79.1,156.5z M78.5,162.8
	c0,0.5,0.1,0.9,0.3,1.4s0.6,0.8,1,1.1c0.5,0.2,0.9,0.4,1.5,0.4c0.8,0,1.5-0.3,2-0.8s0.8-1.2,0.8-2s-0.3-1.5-0.8-2s-1.2-0.8-2-0.8
	s-1.5,0.3-2,0.8C78.8,161.4,78.5,162,78.5,162.8L78.5,162.8L78.5,162.8z M87.4,160c0-1.6,0.2-2.9,0.5-3.9s0.8-1.8,1.5-2.3
	s1.5-0.8,2.5-0.8c0.7,0,1.4,0.1,1.9,0.4c0.6,0.3,1,0.7,1.4,1.3s0.6,1.2,0.9,2c0.2,0.8,0.3,1.9,0.3,3.2c0,1.6-0.2,2.9-0.5,3.9
	s-0.8,1.8-1.5,2.3s-1.5,0.8-2.5,0.8c-1.3,0-2.4-0.5-3.1-1.4C87.9,164.5,87.4,162.6,87.4,160L87.4,160L87.4,160z M89.2,160
	c0,2.3,0.3,3.8,0.8,4.5s1.2,1.1,2,1.1s1.4-0.4,2-1.1c0.5-0.8,0.8-2.2,0.8-4.5s-0.3-3.8-0.8-4.5s-1.2-1.1-2-1.1s-1.4,0.3-1.9,1
	C89.5,156.2,89.2,157.8,89.2,160L89.2,160L89.2,160z"/>
<path class="st6" d="M120.7,176.3l1.8,0.5c-0.4,1.5-1.1,2.6-2.1,3.4c-1,0.8-2.2,1.2-3.6,1.2s-2.7-0.3-3.6-0.9
	c-0.9-0.6-1.6-1.5-2.1-2.6s-0.7-2.4-0.7-3.7c0-1.4,0.3-2.7,0.8-3.8s1.3-1.9,2.3-2.4c1-0.6,2.1-0.8,3.3-0.8c1.4,0,2.5,0.4,3.5,1.1
	s1.6,1.7,2,3l-1.8,0.4c-0.3-1-0.8-1.7-1.4-2.2s-1.4-0.7-2.3-0.7c-1.1,0-1.9,0.2-2.6,0.8s-1.2,1.2-1.5,2c-0.3,0.9-0.4,1.7-0.4,2.6
	c0,1.2,0.2,2.2,0.5,3.1s0.9,1.5,1.6,2c0.7,0.4,1.5,0.6,2.3,0.6c1,0,1.9-0.3,2.6-0.9C119.9,178.3,120.4,177.4,120.7,176.3
	L120.7,176.3L120.7,176.3z"/>
<path class="st6" d="M116.9,190v-1.6h5.8v5.1c-0.9,0.7-1.8,1.2-2.8,1.6c-1,0.4-1.9,0.5-2.9,0.5c-1.4,0-2.6-0.3-3.7-0.9
	c-1.1-0.6-1.9-1.4-2.5-2.5s-0.8-2.3-0.8-3.7s0.3-2.6,0.8-3.8s1.4-2,2.4-2.6s2.3-0.8,3.6-0.8c1,0,1.9,0.2,2.7,0.5
	c0.8,0.3,1.4,0.8,1.9,1.4c0.5,0.6,0.8,1.3,1,2.2l-1.5,0.5c-0.2-0.7-0.5-1.2-0.8-1.6s-0.7-0.7-1.3-1s-1.2-0.4-1.9-0.4
	c-0.8,0-1.5,0.1-2.2,0.4c-0.6,0.2-1.1,0.6-1.5,1s-0.7,0.9-0.9,1.4c-0.4,0.9-0.5,1.8-0.5,2.8c0,1.2,0.2,2.2,0.6,3.1
	c0.4,0.8,1,1.4,1.8,1.8s1.7,0.6,2.6,0.6c0.8,0,1.6-0.1,2.3-0.4s1.3-0.6,1.7-1V190H116.9L116.9,190L116.9,190z"/>
<path class="st6" d="M110,209.6l5.3-13.8h2l5.6,13.8h-2.1l-1.6-4.2h-5.8l-1.5,4.2H110z M114,204h4.7l-1.4-3.8
	c-0.4-1.2-0.8-2.1-1-2.9c-0.2,0.9-0.4,1.8-0.7,2.6L114,204z"/>
<path class="st6" d="M120.7,219.1l1.8,0.5c-0.4,1.5-1.1,2.6-2.1,3.4c-1,0.8-2.2,1.2-3.6,1.2s-2.7-0.3-3.6-0.9
	c-0.9-0.6-1.6-1.5-2.1-2.6s-0.7-2.4-0.7-3.7c0-1.4,0.3-2.7,0.8-3.8s1.3-1.9,2.3-2.4c1-0.6,2.1-0.8,3.3-0.8c1.4,0,2.5,0.4,3.5,1.1
	s1.6,1.7,2,3l-1.8,0.4c-0.3-1-0.8-1.7-1.4-2.2s-1.4-0.7-2.3-0.7c-1.1,0-1.9,0.2-2.6,0.8s-1.2,1.2-1.5,2c-0.3,0.9-0.4,1.7-0.4,2.6
	c0,1.2,0.2,2.2,0.5,3.1s0.9,1.5,1.6,2c0.7,0.4,1.5,0.6,2.3,0.6c1,0,1.9-0.3,2.6-0.9C119.9,221.1,120.4,220.3,120.7,219.1
	L120.7,219.1L120.7,219.1z"/>
<path class="st0" d="M113.3,236.4v-1.6h5.8v5.1c-0.9,0.7-1.8,1.2-2.8,1.6c-1,0.4-1.9,0.5-2.9,0.5c-1.4,0-2.6-0.3-3.7-0.9
	c-1.1-0.6-1.9-1.4-2.5-2.5s-0.8-2.3-0.8-3.7s0.3-2.6,0.8-3.8s1.4-2,2.4-2.6s2.3-0.8,3.6-0.8c1,0,1.9,0.2,2.7,0.5
	c0.8,0.3,1.4,0.8,1.9,1.4c0.5,0.6,0.8,1.3,1,2.2l-1.6,0.4c-0.2-0.7-0.5-1.2-0.8-1.6s-0.7-0.7-1.3-1s-1.2-0.4-1.9-0.4
	c-0.8,0-1.5,0.1-2.2,0.4c-0.6,0.2-1.1,0.6-1.5,1s-0.7,0.9-0.9,1.4c-0.4,0.9-0.5,1.8-0.5,2.8c0,1.2,0.2,2.2,0.6,3.1
	c0.4,0.8,1,1.4,1.8,1.8s1.7,0.6,2.6,0.6c0.8,0,1.6-0.1,2.3-0.4s1.3-0.6,1.7-1v-2.6L113.3,236.4L113.3,236.4L113.3,236.4z"/>
<g>
	<line class="st5" x1="138.4" y1="216.5" x2="121.2" y2="216.5"/>
	<line class="st5" x1="138.4" y1="202.2" x2="121.2" y2="202.2"/>
	<line class="st5" x1="138.4" y1="187.9" x2="121.2" y2="187.9"/>
</g>
<path d="M203.1,258.4l2.2-2.3l2.3-0.9l2.4-0.4l4.7-1.3l-4.8-0.8l-2.4-0.3l-2.4-0.6l-2.5-2L203.1,258.4L203.1,258.4L203.1,258.4z"/>
<path class="st7" d="M189.9,255.5l34.7-2.4"/>
<line class="st5" x1="121.2" y1="174.3" x2="138.7" y2="174.3"/>
<line class="st5" x1="121.2" y1="159.9" x2="138.7" y2="159.9"/>
<line class="st5" x1="161.1" y1="257.5" x2="178.7" y2="257.5"/>
<line class="st5" x1="161.1" y1="270.7" x2="177.5" y2="270.7"/>
<line class="st5" x1="161.1" y1="285" x2="177.5" y2="285"/>
<line class="st5" x1="161.1" y1="298.6" x2="177.5" y2="298.6"/>
<line class="st5" x1="161.1" y1="313.5" x2="177.5" y2="313.5"/>
<line class="st5" x1="161.1" y1="328.4" x2="177.5" y2="328.4"/>
<line class="st5" x1="161.1" y1="345.4" x2="177.5" y2="345.4"/>
<line class="st5" x1="161.1" y1="359.8" x2="177.5" y2="359.8"/>
<line class="st5" x1="161.1" y1="374" x2="177.5" y2="374"/>
<line class="st8" x1="231" y1="245.4" x2="231" y2="231.3"/>
<line class="st8" x1="244.7" y1="246.1" x2="244.7" y2="232"/>
<line class="st8" x1="259.6" y1="245.6" x2="259.6" y2="231.5"/>
<line class="st8" x1="274.1" y1="245" x2="274.1" y2="230.9"/>
<line class="st8" x1="288.8" y1="245.1" x2="288.8" y2="231"/>
<line class="st8" x1="302.4" y1="245.4" x2="302.4" y2="231.3"/>
<line class="st8" x1="315.3" y1="245.8" x2="315.3" y2="231.7"/>
<g>
	<text transform="matrix(1 0 0 1 9.8556 26.8049)" class="st9 st10">D16-13 aptamer</text>
</g>
<text transform="matrix(1 0 0 1 250.2601 383.1)" class="st9 st11">5</text>
<text transform="matrix(1 0 0 1 261.9401 383.1)" class="st9 st11">’</text>
<text transform="matrix(1 0 0 1 76.87 383.1)" class="st9 st11">3</text>
<text transform="matrix(1 0 0 1 88.55 383.1)" class="st9 st11">’</text>
</svg>
