<?xml version="1.0" encoding="utf-8"?>
<!-- Generator: Adobe Illustrator 25.2.0, SVG Export Plug-In . SVG Version: 6.00 Build 0)  -->
<svg version="1.1" id="_图层_1" xmlns="http://www.w3.org/2000/svg" xmlns:xlink="http://www.w3.org/1999/xlink" x="0px" y="0px"
	 viewBox="0 0 400 400" style="enable-background:new 0 0 400 400;" xml:space="preserve">
<style type="text/css">
	.st0{fill:#C2C2FF;}
	.st1{fill:#FFC0CB;}
	.st2{fill:none;stroke:#000000;stroke-width:1.33;stroke-linejoin:round;}
	.st3{fill:#228B22;}
	.st4{fill:#32CD32;}
	.st5{fill:#09FEFE;}
	.st6{fill:#FFFFFF;stroke:#000000;stroke-miterlimit:10;}
	.st7{font-family:'ArialMT';}
	.st8{font-size:24px;}
	.st9{font-size:21px;}
</style>
<path class="st0" d="M234,353.7v-1.6h5.8v5.1c-0.9,0.7-1.8,1.2-2.8,1.6c-1,0.4-1.9,0.5-2.9,0.5c-1.4,0-2.6-0.3-3.7-0.9
	c-1.1-0.6-1.9-1.4-2.5-2.5c-0.6-1.1-0.8-2.3-0.8-3.7s0.3-2.6,0.8-3.8s1.4-2,2.4-2.6c1-0.6,2.3-0.8,3.6-0.8c1,0,1.9,0.2,2.7,0.5
	c0.8,0.3,1.4,0.8,1.9,1.4c0.5,0.6,0.8,1.3,1,2.2l-1.6,0.5c-0.2-0.7-0.5-1.2-0.8-1.6s-0.7-0.7-1.3-1s-1.2-0.4-1.9-0.4
	c-0.8,0-1.5,0.1-2.2,0.4c-0.6,0.2-1.1,0.6-1.5,1s-0.7,0.9-0.9,1.4c-0.4,0.9-0.5,1.8-0.5,2.8c0,1.2,0.2,2.2,0.6,3.1
	c0.4,0.8,1,1.4,1.8,1.8s1.7,0.6,2.6,0.6c0.8,0,1.6-0.1,2.3-0.5c0.8-0.3,1.3-0.6,1.7-1v-2.6L234,353.7L234,353.7L234,353.7z"/>
<path class="st0" d="M219.5,353.3v-1.6h5.8v5.1c-0.9,0.7-1.8,1.2-2.8,1.6c-1,0.4-1.9,0.5-2.9,0.5c-1.4,0-2.6-0.3-3.7-0.9
	c-1.1-0.6-1.9-1.4-2.5-2.5c-0.6-1.1-0.8-2.3-0.8-3.7s0.3-2.6,0.8-3.8s1.4-2,2.4-2.6c1-0.6,2.3-0.8,3.6-0.8c1,0,1.9,0.2,2.7,0.5
	c0.8,0.3,1.4,0.8,1.9,1.4c0.5,0.6,0.8,1.3,1,2.2l-1.6,0.5c-0.2-0.7-0.5-1.2-0.8-1.6s-0.7-0.7-1.3-1s-1.2-0.4-1.9-0.4
	c-0.8,0-1.5,0.1-2.2,0.4c-0.6,0.2-1.1,0.6-1.5,1s-0.7,0.9-0.9,1.4c-0.4,0.9-0.5,1.8-0.5,2.8c0,1.2,0.2,2.2,0.6,3.1
	c0.4,0.8,1,1.4,1.8,1.8s1.7,0.6,2.6,0.6c0.8,0,1.6-0.1,2.3-0.5c0.8-0.3,1.3-0.6,1.7-1v-2.6L219.5,353.3L219.5,353.3L219.5,353.3z"/>
<path class="st0" d="M199.3,359.1l5.3-13.8h2l5.6,13.8h-2.1l-1.6-4.2h-5.8l-1.5,4.2H199.3z M203.2,353.5h4.7l-1.4-3.8
	c-0.4-1.2-0.8-2.1-1-2.9c-0.2,0.9-0.4,1.8-0.7,2.6L203.2,353.5z"/>
<path class="st0" d="M192.4,353.2v-1.6h5.8v5.1c-0.9,0.7-1.8,1.2-2.8,1.6c-1,0.4-1.9,0.5-2.9,0.5c-1.4,0-2.6-0.3-3.7-0.9
	c-1.1-0.6-1.9-1.4-2.5-2.5c-0.6-1.1-0.8-2.3-0.8-3.7s0.3-2.6,0.8-3.8s1.4-2,2.4-2.6c1-0.6,2.3-0.8,3.6-0.8c1,0,1.9,0.2,2.7,0.5
	c0.8,0.3,1.4,0.8,1.9,1.4c0.5,0.6,0.8,1.3,1,2.2l-1.6,0.5c-0.2-0.7-0.5-1.2-0.8-1.6s-0.7-0.7-1.3-1s-1.2-0.4-1.9-0.4
	c-0.8,0-1.5,0.1-2.2,0.4c-0.6,0.2-1.1,0.6-1.5,1s-0.7,0.9-0.9,1.4c-0.4,0.9-0.5,1.8-0.5,2.8c0,1.2,0.2,2.2,0.6,3.1
	c0.4,0.8,1,1.4,1.8,1.8s1.7,0.6,2.6,0.6c0.8,0,1.6-0.1,2.3-0.5c0.8-0.3,1.3-0.6,1.7-1v-2.6L192.4,353.2L192.4,353.2L192.4,353.2z"/>
<path class="st1" d="M182.6,353.3l1.8,0.5c-0.4,1.5-1.1,2.6-2.1,3.4c-1,0.8-2.2,1.2-3.6,1.2s-2.7-0.3-3.6-0.9s-1.6-1.5-2.1-2.6
	c-0.5-1.1-0.7-2.4-0.7-3.7c0-1.4,0.3-2.7,0.8-3.8s1.3-1.9,2.3-2.4s2.1-0.8,3.3-0.8c1.4,0,2.5,0.4,3.5,1c0.9,0.7,1.6,1.7,2,3
	l-1.8,0.4c-0.3-1-0.8-1.7-1.4-2.2c-0.6-0.5-1.4-0.7-2.3-0.7c-1.1,0-1.9,0.2-2.6,0.8s-1.2,1.2-1.5,2c-0.3,0.9-0.4,1.7-0.4,2.6
	c0,1.2,0.2,2.2,0.5,3.1s0.9,1.5,1.6,2s1.5,0.6,2.3,0.6c1,0,1.9-0.3,2.6-0.9S182.3,354.5,182.6,353.3L182.6,353.3L182.6,353.3z"/>
<path class="st1" d="M181.8,330.1h1.8v8c0,1.4-0.2,2.5-0.5,3.3c-0.3,0.8-0.9,1.5-1.7,2c-0.8,0.5-1.9,0.8-3.2,0.8s-2.3-0.2-3.2-0.7
	c-0.8-0.4-1.4-1.1-1.8-1.9s-0.5-2-0.5-3.4v-8h1.8v7.9c0,1.2,0.1,2.1,0.3,2.6c0.2,0.6,0.6,1,1.1,1.3s1.2,0.5,2,0.5
	c1.3,0,2.3-0.3,2.9-0.9c0.6-0.6,0.9-1.8,0.9-3.5L181.8,330.1L181.8,330.1L181.8,330.1z"/>
<path class="st1" d="M182.6,324.7l1.8,0.5c-0.4,1.5-1.1,2.6-2.1,3.4c-1,0.8-2.2,1.2-3.6,1.2s-2.7-0.3-3.6-0.9s-1.6-1.5-2.1-2.6
	c-0.5-1.1-0.7-2.4-0.7-3.7c0-1.4,0.3-2.7,0.8-3.8s1.3-1.9,2.3-2.4s2.1-0.8,3.3-0.8c1.4,0,2.5,0.4,3.5,1c0.9,0.7,1.6,1.7,2,3
	l-1.8,0.4c-0.3-1-0.8-1.7-1.4-2.2c-0.6-0.5-1.4-0.7-2.3-0.7c-1.1,0-1.9,0.2-2.6,0.8s-1.2,1.2-1.5,2c-0.3,0.9-0.4,1.7-0.4,2.6
	c0,1.2,0.2,2.2,0.5,3.1s0.9,1.5,1.6,2s1.5,0.6,2.3,0.6c1,0,1.9-0.3,2.6-0.9S182.3,325.9,182.6,324.7L182.6,324.7L182.6,324.7z"/>
<path class="st0" d="M139.8,324.7l1.8,0.5c-0.4,1.5-1.1,2.6-2.1,3.4c-1,0.8-2.2,1.2-3.6,1.2s-2.7-0.3-3.6-0.9s-1.6-1.5-2.1-2.6
	c-0.5-1.1-0.7-2.4-0.7-3.7c0-1.4,0.3-2.7,0.8-3.8s1.3-1.9,2.3-2.4s2.1-0.8,3.3-0.8c1.4,0,2.5,0.4,3.5,1c0.9,0.7,1.6,1.7,2,3
	l-1.8,0.4c-0.3-1-0.8-1.7-1.4-2.2c-0.6-0.5-1.4-0.7-2.3-0.7c-1.1,0-1.9,0.2-2.6,0.8s-1.2,1.2-1.5,2c-0.3,0.9-0.4,1.7-0.4,2.6
	c0,1.2,0.2,2.2,0.5,3.1s0.9,1.5,1.6,2s1.5,0.6,2.3,0.6c1,0,1.9-0.3,2.6-0.9S139.5,325.9,139.8,324.7L139.8,324.7L139.8,324.7z"/>
<path class="st1" d="M150.2,324.1v-1.6h5.8v5.1c-0.9,0.7-1.8,1.2-2.8,1.6c-1,0.4-1.9,0.5-2.9,0.5c-1.4,0-2.6-0.3-3.7-0.9
	c-1.1-0.6-1.9-1.4-2.5-2.5c-0.6-1.1-0.8-2.3-0.8-3.7s0.3-2.6,0.8-3.8s1.4-2,2.4-2.6c1-0.6,2.3-0.8,3.6-0.8c1,0,1.9,0.2,2.7,0.5
	c0.8,0.3,1.4,0.8,1.9,1.4c0.5,0.6,0.8,1.3,1,2.2l-1.6,0.5c-0.2-0.7-0.5-1.2-0.8-1.6s-0.7-0.7-1.3-1s-1.2-0.4-1.9-0.4
	c-0.8,0-1.5,0.1-2.2,0.4c-0.6,0.2-1.1,0.6-1.5,1s-0.7,0.9-0.9,1.4c-0.4,0.9-0.5,1.8-0.5,2.8c0,1.2,0.2,2.2,0.6,3.1
	c0.4,0.8,1,1.4,1.8,1.8s1.7,0.6,2.6,0.6c0.8,0,1.6-0.1,2.3-0.5c0.8-0.3,1.3-0.6,1.7-1v-2.6L150.2,324.1L150.2,324.1L150.2,324.1z"/>
<path class="st1" d="M143.4,343.8l5.3-13.8h2l5.6,13.8h-2.1l-1.6-4.2h-5.8l-1.5,4.2H143.4z M147.3,338.2h4.7l-1.4-3.8
	c-0.4-1.2-0.8-2.1-1-2.9c-0.2,0.9-0.4,1.8-0.7,2.6L147.3,338.2z"/>
<path class="st1" d="M150.2,352.7v-1.6h5.8v5.1c-0.9,0.7-1.8,1.2-2.8,1.6c-1,0.4-1.9,0.5-2.9,0.5c-1.4,0-2.6-0.3-3.7-0.9
	c-1.1-0.6-1.9-1.4-2.5-2.5c-0.6-1.1-0.8-2.3-0.8-3.7s0.3-2.6,0.8-3.8s1.4-2,2.4-2.6c1-0.6,2.3-0.8,3.6-0.8c1,0,1.9,0.2,2.7,0.5
	c0.8,0.3,1.4,0.8,1.9,1.4c0.5,0.6,0.8,1.3,1,2.2l-1.6,0.5c-0.2-0.7-0.5-1.2-0.8-1.6s-0.7-0.7-1.3-1s-1.2-0.4-1.9-0.4
	c-0.8,0-1.5,0.1-2.2,0.4c-0.6,0.2-1.1,0.6-1.5,1s-0.7,0.9-0.9,1.4c-0.4,0.9-0.5,1.8-0.5,2.8c0,1.2,0.2,2.2,0.6,3.1
	c0.4,0.8,1,1.4,1.8,1.8s1.7,0.6,2.6,0.6c0.8,0,1.6-0.1,2.3-0.5c0.8-0.3,1.3-0.6,1.7-1v-2.6L150.2,352.7L150.2,352.7L150.2,352.7z"/>
<path class="st0" d="M131.3,358.2l5.3-13.8h2l5.6,13.8h-2.1l-1.6-4.2h-5.8l-1.5,4.2H131.3z M135.3,352.5h4.7l-1.4-3.8
	c-0.4-1.2-0.8-2.1-1-2.9c-0.2,0.9-0.4,1.8-0.7,2.6L135.3,352.5z"/>
<path class="st0" d="M127.8,353.4l1.8,0.5c-0.4,1.5-1.1,2.6-2.1,3.4c-1,0.8-2.2,1.2-3.6,1.2s-2.7-0.3-3.6-0.9s-1.6-1.5-2.1-2.6
	c-0.5-1.1-0.7-2.4-0.7-3.7c0-1.4,0.3-2.7,0.8-3.8s1.3-1.9,2.3-2.4s2.1-0.8,3.3-0.8c1.4,0,2.5,0.4,3.5,1c0.9,0.7,1.6,1.7,2,3
	l-1.8,0.4c-0.3-1-0.8-1.7-1.4-2.2c-0.6-0.5-1.4-0.7-2.3-0.7c-1.1,0-1.9,0.2-2.6,0.8s-1.2,1.2-1.5,2c-0.3,0.9-0.4,1.7-0.4,2.6
	c0,1.2,0.2,2.2,0.5,3.1s0.9,1.5,1.6,2s1.5,0.6,2.3,0.6c1,0,1.9-0.3,2.6-0.9S127.5,354.6,127.8,353.4L127.8,353.4L127.8,353.4z"/>
<path class="st0" d="M109.5,353.4v-1.6h5.8v5.1c-0.9,0.7-1.8,1.2-2.8,1.6c-1,0.4-1.9,0.5-2.9,0.5c-1.4,0-2.6-0.3-3.7-0.9
	c-1.1-0.6-1.9-1.4-2.5-2.5c-0.6-1.1-0.8-2.3-0.8-3.7s0.3-2.6,0.8-3.8s1.4-2,2.4-2.6c1-0.6,2.3-0.8,3.6-0.8c1,0,1.9,0.2,2.7,0.5
	c0.8,0.3,1.4,0.8,1.9,1.4c0.5,0.6,0.8,1.3,1,2.2l-1.6,0.5c-0.2-0.7-0.5-1.2-0.8-1.6s-0.7-0.7-1.3-1s-1.2-0.4-1.9-0.4
	c-0.8,0-1.5,0.1-2.2,0.4c-0.6,0.2-1.1,0.6-1.5,1s-0.7,0.9-0.9,1.4c-0.4,0.9-0.5,1.8-0.5,2.8c0,1.2,0.2,2.2,0.6,3.1
	c0.4,0.8,1,1.4,1.8,1.8s1.7,0.6,2.6,0.6c0.8,0,1.6-0.1,2.3-0.5c0.8-0.3,1.3-0.6,1.7-1v-2.6L109.5,353.4L109.5,353.4L109.5,353.4z"/>
<path class="st0" d="M97.4,345.3h1.8v8c0,1.4-0.2,2.5-0.5,3.3c-0.3,0.8-0.9,1.5-1.7,2c-0.8,0.5-1.9,0.8-3.2,0.8s-2.3-0.2-3.2-0.7
	c-0.8-0.4-1.4-1.1-1.8-1.9s-0.5-2-0.5-3.4v-8h1.8v7.9c0,1.2,0.1,2.1,0.3,2.6c0.2,0.6,0.6,1,1.1,1.3s1.2,0.5,2,0.5
	c1.3,0,2.3-0.3,2.9-0.9c0.6-0.6,0.9-1.8,0.9-3.5L97.4,345.3L97.4,345.3L97.4,345.3z"/>
<path class="st1" d="M178.8,306.3v-1.6h5.8v5.1c-0.9,0.7-1.8,1.2-2.8,1.6c-1,0.4-1.9,0.5-2.9,0.5c-1.4,0-2.6-0.3-3.7-0.9
	c-1.1-0.6-1.9-1.4-2.5-2.5c-0.6-1.1-0.8-2.3-0.8-3.7s0.3-2.6,0.8-3.8s1.4-2,2.4-2.6c1-0.6,2.3-0.8,3.6-0.8c1,0,1.9,0.2,2.7,0.5
	c0.8,0.3,1.4,0.8,1.9,1.4c0.5,0.6,0.8,1.3,1,2.2l-1.6,0.5c-0.2-0.7-0.5-1.2-0.8-1.6s-0.7-0.7-1.3-1s-1.2-0.4-1.9-0.4
	c-0.8,0-1.5,0.1-2.2,0.4c-0.6,0.2-1.1,0.6-1.5,1s-0.7,0.9-0.9,1.4c-0.4,0.9-0.5,1.8-0.5,2.8c0,1.2,0.2,2.2,0.6,3.1
	c0.4,0.8,1,1.4,1.8,1.8s1.7,0.6,2.6,0.6c0.8,0,1.6-0.1,2.3-0.5c0.8-0.3,1.3-0.6,1.7-1v-2.6L178.8,306.3L178.8,306.3L178.8,306.3z"/>
<path class="st1" d="M178.8,292v-1.6h5.8v5.1c-0.9,0.7-1.8,1.2-2.8,1.6c-1,0.4-1.9,0.5-2.9,0.5c-1.4,0-2.6-0.3-3.7-0.9
	c-1.1-0.6-1.9-1.4-2.5-2.5c-0.6-1.1-0.8-2.3-0.8-3.7s0.3-2.6,0.8-3.8s1.4-2,2.4-2.6c1-0.6,2.3-0.8,3.6-0.8c1,0,1.9,0.2,2.7,0.5
	c0.8,0.3,1.4,0.8,1.9,1.4c0.5,0.6,0.8,1.3,1,2.2l-1.6,0.5c-0.2-0.7-0.5-1.2-0.8-1.6s-0.7-0.7-1.3-1s-1.2-0.4-1.9-0.4
	c-0.8,0-1.5,0.1-2.2,0.4c-0.6,0.2-1.1,0.6-1.5,1s-0.7,0.9-0.9,1.4c-0.4,0.9-0.5,1.8-0.5,2.8c0,1.2,0.2,2.2,0.6,3.1
	c0.4,0.8,1,1.4,1.8,1.8s1.7,0.6,2.6,0.6c0.8,0,1.6-0.1,2.3-0.5c0.8-0.3,1.3-0.6,1.7-1V292L178.8,292L178.8,292L178.8,292z"/>
<path class="st1" d="M181.8,269.4h1.8v8c0,1.4-0.2,2.5-0.5,3.3c-0.3,0.8-0.9,1.5-1.7,2c-0.8,0.5-1.9,0.8-3.2,0.8s-2.3-0.2-3.2-0.7
	c-0.8-0.4-1.4-1.1-1.8-1.9s-0.5-2-0.5-3.4v-8h1.8v7.9c0,1.2,0.1,2.1,0.3,2.6c0.2,0.6,0.6,1,1.1,1.3s1.2,0.5,2,0.5
	c1.3,0,2.3-0.3,2.9-0.9c0.6-0.6,0.9-1.8,0.9-3.5L181.8,269.4L181.8,269.4L181.8,269.4z"/>
<line class="st2" x1="187.9" y1="275.7" x2="197.4" y2="275.7"/>
<path d="M204.5,283.1h-1.7v-10.8c-0.4,0.4-0.9,0.8-1.6,1.2s-1.2,0.7-1.8,0.9v-1.6c0.9-0.4,1.8-1,2.5-1.6c0.7-0.6,1.2-1.2,1.5-1.8
	h1.1V283.1z M208.8,276.3c0-1.6,0.2-2.9,0.5-3.9c0.3-1,0.8-1.8,1.5-2.3c0.7-0.5,1.5-0.8,2.5-0.8c0.7,0,1.4,0.1,1.9,0.5
	c0.6,0.3,1,0.7,1.4,1.3c0.4,0.6,0.6,1.2,0.9,2c0.2,0.8,0.3,1.9,0.3,3.2c0,1.6-0.2,2.9-0.5,3.9s-0.8,1.8-1.5,2.3
	c-0.7,0.5-1.5,0.8-2.5,0.8c-1.3,0-2.4-0.5-3.1-1.4C209.2,280.8,208.8,278.9,208.8,276.3L208.8,276.3z M210.5,276.3
	c0,2.3,0.3,3.8,0.8,4.5s1.2,1.1,2,1.1s1.4-0.4,2-1.1c0.5-0.8,0.8-2.2,0.8-4.5s-0.3-3.8-0.8-4.5c-0.5-0.7-1.2-1.1-2-1.1
	s-1.4,0.3-1.9,1C210.8,272.5,210.5,274.1,210.5,276.3L210.5,276.3L210.5,276.3z"/>
<path class="st1" d="M171.9,268.9l5.3-13.8h2l5.6,13.8h-2.1l-1.6-4.2h-5.8l-1.5,4.2H171.9z M175.9,263.2h4.7l-1.4-3.8
	c-0.4-1.2-0.8-2.1-1-2.9c-0.2,0.9-0.4,1.8-0.7,2.6L175.9,263.2z"/>
<path class="st1" d="M178.8,249.2v-1.6h5.8v5.1c-0.9,0.7-1.8,1.2-2.8,1.6c-1,0.4-1.9,0.5-2.9,0.5c-1.4,0-2.6-0.3-3.7-0.9
	c-1.1-0.6-1.9-1.4-2.5-2.5c-0.6-1.1-0.8-2.3-0.8-3.7s0.3-2.6,0.8-3.8s1.4-2,2.4-2.6c1-0.6,2.3-0.8,3.6-0.8c1,0,1.9,0.2,2.7,0.5
	c0.8,0.3,1.4,0.8,1.9,1.4c0.5,0.6,0.8,1.3,1,2.2l-1.6,0.4c-0.2-0.7-0.5-1.2-0.8-1.6s-0.7-0.7-1.3-1s-1.2-0.4-1.9-0.4
	c-0.8,0-1.5,0.1-2.2,0.4c-0.6,0.2-1.1,0.6-1.5,1s-0.7,0.9-0.9,1.4c-0.4,0.9-0.5,1.8-0.5,2.8c0,1.2,0.2,2.2,0.6,3.1
	c0.4,0.8,1,1.4,1.8,1.8s1.7,0.6,2.6,0.6c0.8,0,1.6-0.1,2.3-0.4s1.3-0.6,1.7-1v-2.6L178.8,249.2L178.8,249.2L178.8,249.2z"/>
<path class="st1" d="M181.8,226.5h1.8v7.9c0,1.4-0.2,2.5-0.5,3.3c-0.3,0.8-0.9,1.5-1.7,2c-0.8,0.5-1.9,0.8-3.2,0.8s-2.3-0.2-3.2-0.7
	s-1.4-1.1-1.8-1.9s-0.5-2-0.5-3.4v-7.9h1.8v7.9c0,1.2,0.1,2.1,0.3,2.6s0.6,1,1.1,1.3s1.2,0.5,2,0.5c1.3,0,2.3-0.3,2.9-0.9
	c0.6-0.6,0.9-1.8,0.9-3.5L181.8,226.5L181.8,226.5L181.8,226.5z"/>
<path class="st0" d="M111.2,229.6l5.3-13.8h2l5.6,13.8H122l-1.6-4.2h-5.8l-1.5,4.2H111.2z M115.2,223.9h4.7l-1.4-3.8
	c-0.4-1.2-0.8-2.1-1-2.9c-0.2,0.9-0.4,1.8-0.7,2.6L115.2,223.9z"/>
<path class="st0" d="M125.5,236.7l5.3-13.8h2l5.6,13.8h-2.1l-1.6-4.2H129l-1.5,4.2H125.5z M129.5,231.1h4.7l-1.4-3.8
	c-0.4-1.2-0.8-2.1-1-2.9c-0.2,0.9-0.4,1.8-0.7,2.6L129.5,231.1z"/>
<path class="st1" d="M143.4,240.3l5.3-13.8h2l5.6,13.8h-2.1l-1.6-4.2h-5.8l-1.5,4.2H143.4z M147.3,234.6h4.7l-1.4-3.8
	c-0.4-1.2-0.8-2.1-1-2.9c-0.2,0.9-0.4,1.8-0.7,2.6L147.3,234.6z"/>
<path class="st1" d="M154,249.7l1.8,0.5c-0.4,1.5-1.1,2.6-2.1,3.4c-1,0.8-2.2,1.2-3.6,1.2s-2.7-0.3-3.6-0.9
	c-0.9-0.6-1.6-1.5-2.1-2.6c-0.5-1.1-0.7-2.4-0.7-3.7c0-1.4,0.3-2.7,0.8-3.8s1.3-1.9,2.3-2.4c1-0.6,2.1-0.8,3.3-0.8
	c1.4,0,2.5,0.4,3.5,1.1s1.6,1.7,2,3l-1.8,0.4c-0.3-1-0.8-1.7-1.4-2.2c-0.6-0.5-1.4-0.7-2.3-0.7c-1.1,0-1.9,0.2-2.6,0.8
	s-1.2,1.2-1.5,2c-0.3,0.9-0.4,1.7-0.4,2.6c0,1.2,0.2,2.2,0.5,3.1s0.9,1.5,1.6,2c0.7,0.4,1.5,0.6,2.3,0.6c1,0,1.9-0.3,2.6-0.9
	C153.3,251.8,153.8,250.9,154,249.7L154,249.7L154,249.7z"/>
<path class="st1" d="M153.3,255.1h1.8v8c0,1.4-0.2,2.5-0.5,3.3c-0.3,0.8-0.9,1.5-1.7,2c-0.8,0.5-1.9,0.8-3.2,0.8s-2.3-0.2-3.2-0.7
	c-0.8-0.4-1.4-1.1-1.8-1.9s-0.5-2-0.5-3.4v-7.9h1.8v7.9c0,1.2,0.1,2.1,0.3,2.6c0.2,0.6,0.6,1,1.1,1.3s1.2,0.5,2,0.5
	c1.3,0,2.3-0.3,2.9-0.9c0.6-0.6,0.9-1.8,0.9-3.5L153.3,255.1L153.3,255.1L153.3,255.1z"/>
<line class="st2" x1="140.3" y1="261.4" x2="130.8" y2="261.4"/>
<path d="M110.5,265.7l1.6-0.1c0.1,0.8,0.4,1.3,0.8,1.7c0.4,0.3,0.9,0.5,1.5,0.5c0.5,0,1-0.1,1.4-0.4c0.4-0.2,0.7-0.5,1-1
	c0.2-0.4,0.5-0.9,0.6-1.6s0.2-1.4,0.2-2.1v-0.3c-0.3,0.5-0.8,1-1.4,1.3c-0.6,0.3-1.2,0.5-1.9,0.5c-1.1,0-2.1-0.4-2.9-1.2
	c-0.8-0.8-1.2-1.9-1.2-3.3s0.4-2.5,1.2-3.4s1.9-1.3,3.1-1.3c0.9,0,1.7,0.2,2.5,0.7c0.7,0.5,1.3,1.2,1.7,2.1c0.4,0.9,0.6,2.2,0.6,3.9
	s-0.2,3.1-0.6,4.2c-0.4,1-1,1.8-1.7,2.4c-0.8,0.5-1.6,0.8-2.6,0.8c-1.1,0-2-0.3-2.6-0.9C111,267.6,110.6,266.8,110.5,265.7
	L110.5,265.7L110.5,265.7z M117.4,259.6c0-1-0.3-1.7-0.8-2.3c-0.5-0.6-1.1-0.9-1.9-0.9s-1.4,0.3-2,0.9c-0.6,0.6-0.8,1.4-0.8,2.4
	c0,0.9,0.3,1.6,0.8,2.1c0.5,0.5,1.2,0.8,2,0.8s1.4-0.3,1.9-0.8C117.1,261.3,117.4,260.6,117.4,259.6L117.4,259.6L117.4,259.6z
	 M120.8,262.1c0-1.6,0.2-2.9,0.5-3.9c0.3-1,0.8-1.8,1.5-2.3c0.7-0.5,1.5-0.8,2.5-0.8c0.7,0,1.4,0.1,1.9,0.4c0.6,0.3,1,0.7,1.4,1.3
	c0.4,0.6,0.6,1.2,0.9,2c0.2,0.8,0.3,1.9,0.3,3.2c0,1.6-0.2,2.9-0.5,3.9s-0.8,1.8-1.5,2.3c-0.7,0.5-1.5,0.8-2.5,0.8
	c-1.3,0-2.4-0.5-3.1-1.4C121.2,266.5,120.8,264.6,120.8,262.1L120.8,262.1z M122.5,262.1c0,2.3,0.3,3.8,0.8,4.5s1.2,1.1,2,1.1
	s1.4-0.4,2-1.1c0.5-0.8,0.8-2.2,0.8-4.5s-0.3-3.8-0.8-4.5c-0.5-0.7-1.2-1.1-2-1.1s-1.4,0.3-1.9,1
	C122.8,258.3,122.5,259.8,122.5,262.1L122.5,262.1L122.5,262.1z"/>
<path class="st1" d="M143.4,283.1l5.3-13.8h2l5.6,13.8h-2.1l-1.6-4.2h-5.8l-1.5,4.2H143.4z M147.3,277.5h4.7l-1.4-3.8
	c-0.4-1.2-0.8-2.1-1-2.9c-0.2,0.9-0.4,1.8-0.7,2.6L147.3,277.5z"/>
<path class="st1" d="M154,292.6l1.8,0.5c-0.4,1.5-1.1,2.6-2.1,3.4c-1,0.8-2.2,1.2-3.6,1.2s-2.7-0.3-3.6-0.9s-1.6-1.5-2.1-2.6
	c-0.5-1.1-0.7-2.4-0.7-3.7c0-1.4,0.3-2.7,0.8-3.8s1.3-1.9,2.3-2.4s2.1-0.8,3.3-0.8c1.4,0,2.5,0.4,3.5,1c0.9,0.7,1.6,1.7,2,3
	l-1.8,0.4c-0.3-1-0.8-1.7-1.4-2.2c-0.6-0.5-1.4-0.7-2.3-0.7c-1.1,0-1.9,0.2-2.6,0.8s-1.2,1.2-1.5,2c-0.3,0.9-0.4,1.7-0.4,2.6
	c0,1.2,0.2,2.2,0.5,3.1s0.9,1.5,1.6,2s1.5,0.6,2.3,0.6c1,0,1.9-0.3,2.6-0.9S153.8,293.8,154,292.6L154,292.6L154,292.6z"/>
<path class="st1" d="M154,306.9l1.8,0.5c-0.4,1.5-1.1,2.6-2.1,3.4c-1,0.8-2.2,1.2-3.6,1.2s-2.7-0.3-3.6-0.9s-1.6-1.5-2.1-2.6
	c-0.5-1.1-0.7-2.4-0.7-3.7c0-1.4,0.3-2.7,0.8-3.8s1.3-1.9,2.3-2.4s2.1-0.8,3.3-0.8c1.4,0,2.5,0.4,3.5,1c0.9,0.7,1.6,1.7,2,3
	l-1.8,0.4c-0.3-1-0.8-1.7-1.4-2.2c-0.6-0.5-1.4-0.7-2.3-0.7c-1.1,0-1.9,0.2-2.6,0.8s-1.2,1.2-1.5,2c-0.3,0.9-0.4,1.7-0.4,2.6
	c0,1.2,0.2,2.2,0.5,3.1s0.9,1.5,1.6,2s1.5,0.6,2.3,0.6c1,0,1.9-0.3,2.6-0.9S153.8,308,154,306.9L154,306.9L154,306.9z"/>
<path class="st0" d="M139,297.9h1.8v8c0,1.4-0.2,2.5-0.5,3.3c-0.3,0.8-0.9,1.5-1.7,2c-0.8,0.5-1.9,0.8-3.2,0.8s-2.3-0.2-3.2-0.7
	c-0.8-0.4-1.4-1.1-1.8-1.9s-0.5-2-0.5-3.4v-8h1.8v7.9c0,1.2,0.1,2.1,0.3,2.6c0.2,0.6,0.6,1,1.1,1.3s1.2,0.5,2,0.5
	c1.3,0,2.3-0.3,2.9-0.9c0.6-0.6,0.9-1.8,0.9-3.5L139,297.9L139,297.9L139,297.9z"/>
<path class="st3" d="M225.2,231.3v-1.6h5.8v5.1c-0.9,0.7-1.8,1.2-2.8,1.6c-1,0.4-1.9,0.5-2.9,0.5c-1.4,0-2.6-0.3-3.7-0.9
	c-1.1-0.6-1.9-1.4-2.5-2.5c-0.6-1.1-0.8-2.3-0.8-3.7s0.3-2.6,0.8-3.8s1.4-2,2.4-2.6c1-0.6,2.3-0.8,3.6-0.8c1,0,1.9,0.2,2.7,0.5
	c0.8,0.3,1.4,0.8,1.9,1.4c0.5,0.6,0.8,1.3,1,2.2l-1.6,0.4c-0.2-0.7-0.5-1.2-0.8-1.6s-0.7-0.7-1.3-1s-1.2-0.4-1.9-0.4
	c-0.8,0-1.5,0.1-2.2,0.4c-0.6,0.2-1.1,0.6-1.5,1s-0.7,0.9-0.9,1.4c-0.4,0.9-0.5,1.8-0.5,2.8c0,1.2,0.2,2.2,0.6,3.1
	c0.4,0.8,1,1.4,1.8,1.8s1.7,0.6,2.6,0.6c0.8,0,1.6-0.1,2.3-0.4s1.3-0.6,1.7-1v-2.6L225.2,231.3L225.2,231.3L225.2,231.3z"/>
<path class="st3" d="M232.6,236.7l5.3-13.8h2l5.6,13.8h-2.1l-1.6-4.2H236l-1.5,4.2H232.6z M236.6,231.1h4.7l-1.4-3.8
	c-0.4-1.2-0.8-2.1-1-2.9c-0.2,0.9-0.4,1.8-0.7,2.6L236.6,231.1z"/>
<path class="st3" d="M257.6,231.9l1.8,0.5c-0.4,1.5-1.1,2.6-2.1,3.4c-1,0.8-2.2,1.2-3.6,1.2s-2.7-0.3-3.6-0.9
	c-0.9-0.6-1.6-1.5-2.1-2.6c-0.5-1.1-0.7-2.4-0.7-3.7c0-1.4,0.3-2.7,0.8-3.8s1.3-1.9,2.3-2.4c1-0.6,2.1-0.8,3.3-0.8
	c1.4,0,2.5,0.4,3.5,1.1s1.6,1.7,2,3l-1.8,0.4c-0.3-1-0.8-1.7-1.4-2.2c-0.6-0.5-1.4-0.7-2.3-0.7c-1.1,0-1.9,0.2-2.6,0.8
	s-1.2,1.2-1.5,2c-0.3,0.9-0.4,1.7-0.4,2.6c0,1.2,0.2,2.2,0.5,3.1s0.9,1.5,1.6,2c0.7,0.4,1.5,0.6,2.3,0.6c1,0,1.9-0.3,2.6-0.9
	C256.8,233.9,257.3,233.1,257.6,231.9L257.6,231.9L257.6,231.9z"/>
<path class="st3" d="M268,231.3v-1.6h5.8v5.1c-0.9,0.7-1.8,1.2-2.8,1.6c-1,0.4-1.9,0.5-2.9,0.5c-1.4,0-2.6-0.3-3.7-0.9
	c-1.1-0.6-1.9-1.4-2.5-2.5c-0.6-1.1-0.8-2.3-0.8-3.7s0.3-2.6,0.8-3.8s1.4-2,2.4-2.6c1-0.6,2.3-0.8,3.6-0.8c1,0,1.9,0.2,2.7,0.5
	c0.8,0.3,1.4,0.8,1.9,1.4c0.5,0.6,0.8,1.3,1,2.2l-1.6,0.4c-0.2-0.7-0.5-1.2-0.8-1.6s-0.7-0.7-1.3-1s-1.2-0.4-1.9-0.4
	c-0.8,0-1.5,0.1-2.2,0.4c-0.6,0.2-1.1,0.6-1.5,1s-0.7,0.9-0.9,1.4c-0.4,0.9-0.5,1.8-0.5,2.8c0,1.2,0.2,2.2,0.6,3.1
	c0.4,0.8,1,1.4,1.8,1.8s1.7,0.6,2.6,0.6c0.8,0,1.6-0.1,2.3-0.4s1.3-0.6,1.7-1v-2.6L268,231.3L268,231.3L268,231.3z"/>
<path class="st3" d="M286.1,231.9l1.8,0.5c-0.4,1.5-1.1,2.6-2.1,3.4c-1,0.8-2.2,1.2-3.6,1.2s-2.7-0.3-3.6-0.9
	c-0.9-0.6-1.6-1.5-2.1-2.6c-0.5-1.1-0.7-2.4-0.7-3.7c0-1.4,0.3-2.7,0.8-3.8s1.3-1.9,2.3-2.4c1-0.6,2.1-0.8,3.3-0.8
	c1.4,0,2.5,0.4,3.5,1.1s1.6,1.7,2,3l-1.8,0.4c-0.3-1-0.8-1.7-1.4-2.2c-0.6-0.5-1.4-0.7-2.3-0.7c-1.1,0-1.9,0.2-2.6,0.8
	s-1.2,1.2-1.5,2c-0.3,0.9-0.4,1.7-0.4,2.6c0,1.2,0.2,2.2,0.5,3.1s0.9,1.5,1.6,2c0.7,0.4,1.5,0.6,2.3,0.6c1,0,1.9-0.3,2.6-0.9
	C285.4,233.9,285.9,233.1,286.1,231.9L286.1,231.9L286.1,231.9z"/>
<path class="st3" d="M296.6,231.3v-1.6h5.8v5.1c-0.9,0.7-1.8,1.2-2.8,1.6c-1,0.4-1.9,0.5-2.9,0.5c-1.4,0-2.6-0.3-3.7-0.9
	c-1.1-0.6-1.9-1.4-2.5-2.5c-0.6-1.1-0.8-2.3-0.8-3.7s0.3-2.6,0.8-3.8s1.4-2,2.4-2.6c1-0.6,2.3-0.8,3.6-0.8c1,0,1.9,0.2,2.7,0.5
	c0.8,0.3,1.4,0.8,1.9,1.4c0.5,0.6,0.8,1.3,1,2.2l-1.6,0.4c-0.2-0.7-0.5-1.2-0.8-1.6s-0.7-0.7-1.3-1s-1.2-0.4-1.9-0.4
	c-0.8,0-1.5,0.1-2.2,0.4c-0.6,0.2-1.1,0.6-1.5,1s-0.7,0.9-0.9,1.4c-0.4,0.9-0.5,1.8-0.5,2.8c0,1.2,0.2,2.2,0.6,3.1
	c0.4,0.8,1,1.4,1.8,1.8s1.7,0.6,2.6,0.6c0.8,0,1.6-0.1,2.3-0.4s1.3-0.6,1.7-1v-2.6L296.6,231.3L296.6,231.3L296.6,231.3z"/>
<path class="st3" d="M313.9,223h1.8v7.9c0,1.4-0.2,2.5-0.5,3.3c-0.3,0.8-0.9,1.5-1.7,2c-0.8,0.5-1.9,0.8-3.2,0.8s-2.3-0.2-3.2-0.7
	c-0.8-0.4-1.4-1.1-1.8-1.9s-0.5-2-0.5-3.4v-7.9h1.8v7.9c0,1.2,0.1,2.1,0.3,2.6s0.6,1,1.1,1.3s1.2,0.5,2,0.5c1.3,0,2.3-0.3,2.9-0.9
	s0.8-1.8,0.8-3.5L313.9,223L313.9,223L313.9,223z"/>
<line class="st2" x1="310.4" y1="238.8" x2="310.4" y2="248.3"/>
<path d="M309.4,265.9v1.6h-9.1c0-0.4,0-0.8,0.2-1.2c0.2-0.6,0.6-1.2,1.1-1.8c0.5-0.6,1.2-1.3,2.2-2.1c1.5-1.2,2.5-2.2,3-2.9
	c0.5-0.7,0.8-1.4,0.8-2s-0.2-1.2-0.7-1.7c-0.5-0.5-1.1-0.7-1.9-0.7c-0.8,0-1.5,0.2-2,0.7c-0.5,0.5-0.7,1.2-0.7,2l-1.7-0.2
	c0.1-1.3,0.6-2.3,1.3-3c0.8-0.7,1.8-1,3.1-1s2.4,0.4,3.1,1.1c0.8,0.7,1.1,1.6,1.1,2.7c0,0.5-0.1,1.1-0.3,1.6
	c-0.2,0.5-0.6,1.1-1.1,1.7s-1.4,1.4-2.6,2.4c-1,0.9-1.7,1.4-2,1.7c-0.3,0.3-0.5,0.6-0.7,0.9L309.4,265.9L309.4,265.9z M311.2,260.7
	c0-1.6,0.2-2.9,0.5-3.9c0.3-1,0.8-1.8,1.5-2.3c0.7-0.5,1.5-0.8,2.5-0.8c0.7,0,1.4,0.1,1.9,0.4c0.6,0.3,1,0.7,1.4,1.3
	c0.4,0.6,0.7,1.2,0.8,2c0.2,0.8,0.3,1.9,0.3,3.2c0,1.6-0.2,2.9-0.5,3.9s-0.8,1.8-1.5,2.3c-0.7,0.5-1.5,0.8-2.5,0.8
	c-1.3,0-2.4-0.5-3.1-1.4C311.6,265.2,311.1,263.3,311.2,260.7L311.2,260.7z M312.9,260.7c0,2.3,0.3,3.8,0.8,4.5
	c0.5,0.8,1.2,1.1,2,1.1s1.4-0.4,2-1.1c0.5-0.8,0.8-2.2,0.8-4.5s-0.3-3.8-0.8-4.5c-0.5-0.7-1.2-1.1-2-1.1s-1.4,0.3-1.9,1
	C313.2,256.9,312.9,258.5,312.9,260.7L312.9,260.7L312.9,260.7z"/>
<path class="st0" d="M328.2,226.5h1.8v7.9c0,1.4-0.2,2.5-0.5,3.3c-0.3,0.8-0.9,1.5-1.7,2c-0.8,0.5-1.9,0.8-3.2,0.8s-2.3-0.2-3.2-0.7
	c-0.8-0.4-1.4-1.1-1.8-1.9s-0.5-2-0.5-3.4v-7.9h1.8v7.9c0,1.2,0.1,2.1,0.3,2.6c0.2,0.6,0.6,1,1.1,1.3c0.5,0.3,1.2,0.5,2,0.5
	c1.3,0,2.3-0.3,2.9-0.9s0.8-1.8,0.8-3.5L328.2,226.5L328.2,226.5L328.2,226.5z"/>
<path class="st0" d="M339.5,234.9v-1.6h5.8v5.1c-0.9,0.7-1.8,1.2-2.8,1.6c-1,0.4-1.9,0.5-2.9,0.5c-1.3,0-2.6-0.3-3.7-0.9
	c-1.1-0.6-1.9-1.4-2.5-2.5c-0.6-1.1-0.8-2.3-0.8-3.7s0.3-2.6,0.8-3.8s1.4-2,2.4-2.6s2.3-0.8,3.6-0.8c1,0,1.9,0.2,2.7,0.5
	c0.8,0.3,1.4,0.8,1.9,1.4s0.8,1.3,1,2.2l-1.6,0.4c-0.2-0.7-0.5-1.2-0.8-1.6s-0.7-0.7-1.3-1s-1.2-0.4-1.9-0.4c-0.8,0-1.5,0.1-2.2,0.4
	s-1.1,0.6-1.5,1s-0.7,0.9-0.9,1.4c-0.3,0.9-0.5,1.8-0.5,2.8c0,1.2,0.2,2.2,0.6,3.1c0.4,0.8,1,1.4,1.8,1.8s1.7,0.6,2.6,0.6
	c0.8,0,1.6-0.1,2.3-0.4s1.3-0.6,1.7-1v-2.6L339.5,234.9L339.5,234.9L339.5,234.9z"/>
<path class="st0" d="M360.3,223h1.8v7.9c0,1.4-0.2,2.5-0.5,3.3c-0.3,0.8-0.9,1.5-1.7,2c-0.8,0.5-1.9,0.8-3.2,0.8s-2.3-0.2-3.2-0.7
	c-0.8-0.4-1.4-1.1-1.8-1.9s-0.5-2-0.5-3.4v-7.9h1.8v7.9c0,1.2,0.1,2.1,0.3,2.6c0.2,0.6,0.6,1,1.1,1.3c0.5,0.3,1.2,0.5,2,0.5
	c1.3,0,2.3-0.3,2.9-0.9s0.8-1.8,0.8-3.5L360.3,223L360.3,223L360.3,223z"/>
<path class="st0" d="M360.9,213.5v-1.6h5.8v5.1c-0.9,0.7-1.8,1.2-2.8,1.6c-1,0.4-1.9,0.5-2.9,0.5c-1.3,0-2.6-0.3-3.7-0.9
	c-1.1-0.6-1.9-1.4-2.5-2.5c-0.6-1.1-0.8-2.3-0.8-3.7s0.3-2.6,0.8-3.8s1.4-2,2.4-2.6s2.3-0.8,3.6-0.8c1,0,1.9,0.2,2.7,0.5
	c0.8,0.3,1.4,0.8,1.9,1.4s0.8,1.3,1,2.2l-1.6,0.4c-0.2-0.7-0.5-1.2-0.8-1.6s-0.7-0.7-1.3-1s-1.2-0.4-1.9-0.4c-0.8,0-1.5,0.1-2.2,0.4
	s-1.1,0.6-1.5,1s-0.7,0.9-0.9,1.4c-0.3,0.9-0.5,1.8-0.5,2.8c0,1.2,0.2,2.2,0.6,3.1c0.4,0.8,1,1.4,1.8,1.8s1.7,0.6,2.6,0.6
	c0.8,0,1.6-0.1,2.3-0.4s1.3-0.6,1.7-1v-2.6L360.9,213.5L360.9,213.5L360.9,213.5z"/>
<path class="st0" d="M360.3,187.3h1.8v7.9c0,1.4-0.2,2.5-0.5,3.3c-0.3,0.8-0.9,1.5-1.7,2c-0.8,0.5-1.9,0.8-3.2,0.8s-2.3-0.2-3.2-0.7
	c-0.8-0.4-1.4-1.1-1.8-1.9s-0.5-2-0.5-3.4v-7.9h1.8v7.9c0,1.2,0.1,2.1,0.3,2.6c0.2,0.6,0.6,1,1.1,1.3c0.5,0.3,1.2,0.5,2,0.5
	c1.3,0,2.3-0.3,2.9-0.9s0.8-1.8,0.8-3.5L360.3,187.3L360.3,187.3L360.3,187.3z"/>
<path class="st0" d="M346,180.1h1.8v7.9c0,1.4-0.2,2.5-0.5,3.3c-0.3,0.8-0.9,1.5-1.7,2c-0.8,0.5-1.9,0.8-3.2,0.8s-2.3-0.2-3.2-0.7
	c-0.8-0.4-1.4-1.1-1.8-1.9s-0.5-2-0.5-3.4v-7.9h1.8v7.9c0,1.2,0.1,2.1,0.3,2.6c0.2,0.6,0.6,1,1.1,1.3c0.5,0.3,1.2,0.5,2,0.5
	c1.3,0,2.3-0.3,2.9-0.9s0.8-1.8,0.8-3.5L346,180.1L346,180.1L346,180.1z"/>
<path class="st0" d="M328.2,183.7h1.8v7.9c0,1.4-0.2,2.5-0.5,3.3c-0.3,0.8-0.9,1.5-1.7,2c-0.8,0.5-1.9,0.8-3.2,0.8s-2.3-0.2-3.2-0.7
	c-0.8-0.4-1.4-1.1-1.8-1.9s-0.5-2-0.5-3.4v-7.9h1.8v7.9c0,1.2,0.1,2.1,0.3,2.6c0.2,0.6,0.6,1,1.1,1.3c0.5,0.3,1.2,0.5,2,0.5
	c1.3,0,2.3-0.3,2.9-0.9s0.8-1.8,0.8-3.5L328.2,183.7L328.2,183.7L328.2,183.7z"/>
<path class="st3" d="M304,208.2l5.3-13.8h2l5.6,13.8h-2.1l-1.6-4.2h-5.8l-1.5,4.2H304z M308,202.5h4.7l-1.4-3.8
	c-0.4-1.2-0.8-2.1-1-2.9c-0.2,0.9-0.4,1.8-0.7,2.6L308,202.5z"/>
<path class="st3" d="M300.4,203.3l1.8,0.5c-0.4,1.5-1.1,2.6-2.1,3.4c-1,0.8-2.2,1.2-3.6,1.2s-2.7-0.3-3.6-0.9
	c-0.9-0.6-1.6-1.5-2.1-2.6c-0.5-1.1-0.7-2.4-0.7-3.7c0-1.4,0.3-2.7,0.8-3.8s1.3-1.9,2.3-2.4c1-0.6,2.1-0.8,3.3-0.8
	c1.4,0,2.5,0.4,3.5,1.1s1.6,1.7,2,3l-1.8,0.4c-0.3-1-0.8-1.7-1.4-2.2c-0.6-0.5-1.4-0.7-2.3-0.7c-1.1,0-1.9,0.2-2.6,0.8
	s-1.2,1.2-1.5,2c-0.3,0.9-0.4,1.7-0.4,2.6c0,1.2,0.2,2.2,0.5,3.1s0.9,1.5,1.6,2c0.7,0.4,1.5,0.6,2.3,0.6c1,0,1.9-0.3,2.6-0.9
	C299.7,205.4,300.1,204.5,300.4,203.3L300.4,203.3L300.4,203.3z"/>
<path class="st3" d="M282.3,202.8v-1.6h5.8v5.1c-0.9,0.7-1.8,1.2-2.8,1.6c-1,0.4-1.9,0.5-2.9,0.5c-1.4,0-2.6-0.3-3.7-0.9
	c-1.1-0.6-1.9-1.4-2.5-2.5c-0.6-1.1-0.8-2.3-0.8-3.7s0.3-2.6,0.8-3.8s1.4-2,2.4-2.6c1-0.6,2.3-0.8,3.6-0.8c1,0,1.9,0.2,2.7,0.5
	c0.8,0.3,1.4,0.8,1.9,1.4c0.5,0.6,0.8,1.3,1,2.2l-1.6,0.4c-0.2-0.7-0.5-1.2-0.8-1.6s-0.7-0.7-1.3-1s-1.2-0.4-1.9-0.4
	c-0.8,0-1.5,0.1-2.2,0.4c-0.6,0.2-1.1,0.6-1.5,1s-0.7,0.9-0.9,1.4c-0.4,0.9-0.5,1.8-0.5,2.8c0,1.2,0.2,2.2,0.6,3.1
	c0.4,0.8,1,1.4,1.8,1.8s1.7,0.6,2.6,0.6c0.8,0,1.6-0.1,2.3-0.4s1.3-0.6,1.7-1v-2.6L282.3,202.8L282.3,202.8L282.3,202.8z"/>
<line class="st2" x1="281.9" y1="191.2" x2="281.9" y2="181.6"/>
<path d="M272,173.8l1.7-0.2c0.2,1,0.5,1.6,1,2.1c0.5,0.4,1,0.6,1.7,0.6c0.8,0,1.5-0.3,2-0.8c0.5-0.6,0.8-1.2,0.8-2s-0.2-1.4-0.8-1.9
	c-0.5-0.5-1.1-0.8-1.9-0.8c-0.3,0-0.7,0.1-1.2,0.2l0.2-1.5c0.1,0,0.2,0,0.3,0c0.7,0,1.4-0.2,1.9-0.6c0.6-0.4,0.9-0.9,0.9-1.7
	c0-0.6-0.2-1.1-0.6-1.5s-1-0.6-1.6-0.6s-1.2,0.2-1.6,0.6c-0.4,0.4-0.7,1-0.9,1.9l-1.7-0.3c0.2-1.1,0.7-2,1.4-2.6
	c0.7-0.6,1.6-0.9,2.7-0.9c0.8,0,1.4,0.2,2.1,0.5c0.6,0.3,1.1,0.8,1.5,1.3c0.3,0.6,0.5,1.1,0.5,1.8s-0.2,1.1-0.5,1.6
	c-0.3,0.5-0.8,0.9-1.4,1.2c0.8,0.2,1.4,0.6,1.9,1.2s0.7,1.3,0.7,2.2c0,1.2-0.4,2.2-1.3,3.1c-0.9,0.8-2,1.2-3.3,1.2
	c-1.2,0-2.2-0.4-3-1.1C272.6,175.8,272.1,174.9,272,173.8L272,173.8L272,173.8z M282.6,170.6c0-1.6,0.2-2.9,0.5-3.9s0.8-1.8,1.5-2.3
	c0.7-0.5,1.5-0.8,2.5-0.8c0.7,0,1.4,0.1,1.9,0.4c0.6,0.3,1,0.7,1.4,1.3c0.4,0.6,0.6,1.2,0.9,2c0.2,0.8,0.3,1.9,0.3,3.2
	c0,1.6-0.2,2.9-0.5,3.9s-0.8,1.8-1.5,2.3c-0.7,0.5-1.5,0.8-2.5,0.8c-1.3,0-2.4-0.5-3.1-1.4C283,175,282.6,173.2,282.6,170.6
	L282.6,170.6L282.6,170.6z M284.3,170.6c0,2.3,0.3,3.8,0.8,4.5s1.2,1.1,2,1.1s1.4-0.4,2-1.1c0.5-0.8,0.8-2.2,0.8-4.5
	s-0.3-3.8-0.8-4.5c-0.5-0.7-1.2-1.1-2-1.1s-1.4,0.3-1.9,1C284.6,166.8,284.3,168.3,284.3,170.6L284.3,170.6L284.3,170.6z"/>
<path class="st3" d="M271.9,203.3l1.8,0.5c-0.4,1.5-1.1,2.6-2.1,3.4c-1,0.8-2.2,1.2-3.6,1.2s-2.7-0.3-3.6-0.9
	c-0.9-0.6-1.6-1.5-2.1-2.6c-0.5-1.1-0.7-2.4-0.7-3.7c0-1.4,0.3-2.7,0.8-3.8s1.3-1.9,2.3-2.4c1-0.6,2.1-0.8,3.3-0.8
	c1.4,0,2.5,0.4,3.5,1.1s1.6,1.7,2,3l-1.8,0.4c-0.3-1-0.8-1.7-1.4-2.2c-0.6-0.5-1.4-0.7-2.3-0.7c-1.1,0-1.9,0.2-2.6,0.8
	s-1.2,1.2-1.5,2c-0.3,0.9-0.4,1.7-0.4,2.6c0,1.2,0.2,2.2,0.5,3.1s0.9,1.5,1.6,2c0.7,0.4,1.5,0.6,2.3,0.6c1,0,1.9-0.3,2.6-0.9
	C271.1,205.4,271.6,204.5,271.9,203.3L271.9,203.3L271.9,203.3z"/>
<path class="st3" d="M253.8,202.8v-1.6h5.8v5.1c-0.9,0.7-1.8,1.2-2.8,1.6c-1,0.4-1.9,0.5-2.9,0.5c-1.4,0-2.6-0.3-3.7-0.9
	c-1.1-0.6-1.9-1.4-2.5-2.5c-0.6-1.1-0.8-2.3-0.8-3.7s0.3-2.6,0.8-3.8s1.4-2,2.4-2.6c1-0.6,2.3-0.8,3.6-0.8c1,0,1.9,0.2,2.7,0.5
	c0.8,0.3,1.4,0.8,1.9,1.4c0.5,0.6,0.8,1.3,1,2.2l-1.6,0.4c-0.2-0.7-0.5-1.2-0.8-1.6s-0.7-0.7-1.3-1s-1.2-0.4-1.9-0.4
	c-0.8,0-1.5,0.1-2.2,0.4c-0.6,0.2-1.1,0.6-1.5,1s-0.7,0.9-0.9,1.4c-0.4,0.9-0.5,1.8-0.5,2.8c0,1.2,0.2,2.2,0.6,3.1
	c0.4,0.8,1,1.4,1.8,1.8s1.7,0.6,2.6,0.6c0.8,0,1.6-0.1,2.3-0.4s1.3-0.6,1.7-1v-2.6L253.8,202.8L253.8,202.8L253.8,202.8z"/>
<path class="st3" d="M242.5,194.4h1.8v7.9c0,1.4-0.2,2.5-0.5,3.3c-0.3,0.8-0.9,1.5-1.7,2c-0.8,0.5-1.9,0.8-3.2,0.8s-2.3-0.2-3.2-0.7
	c-0.8-0.4-1.4-1.1-1.8-1.9s-0.5-2-0.5-3.4v-7.9h1.8v7.9c0,1.2,0.1,2.1,0.3,2.6s0.6,1,1.1,1.3s1.2,0.5,2,0.5c1.3,0,2.3-0.3,2.9-0.9
	c0.6-0.6,0.9-1.8,0.9-3.5L242.5,194.4L242.5,194.4L242.5,194.4z"/>
<path class="st3" d="M229,203.3l1.8,0.5c-0.4,1.5-1.1,2.6-2.1,3.4c-1,0.8-2.2,1.2-3.6,1.2s-2.7-0.3-3.6-0.9
	c-0.9-0.6-1.6-1.5-2.1-2.6c-0.5-1.1-0.7-2.4-0.7-3.7c0-1.4,0.3-2.7,0.8-3.8s1.3-1.9,2.3-2.4c1-0.6,2.1-0.8,3.3-0.8
	c1.4,0,2.5,0.4,3.5,1.1s1.6,1.7,2,3l-1.8,0.4c-0.3-1-0.8-1.7-1.4-2.2c-0.6-0.5-1.4-0.7-2.3-0.7c-1.1,0-1.9,0.2-2.6,0.8
	s-1.2,1.2-1.5,2c-0.3,0.9-0.4,1.7-0.4,2.6c0,1.2,0.2,2.2,0.5,3.1s0.9,1.5,1.6,2c0.7,0.4,1.5,0.6,2.3,0.6c1,0,1.9-0.3,2.6-0.9
	C228.3,205.4,228.7,204.5,229,203.3L229,203.3L229,203.3z"/>
<path class="st4" d="M224.7,176.6h1.8v7.9c0,1.4-0.2,2.5-0.5,3.3c-0.3,0.8-0.9,1.5-1.7,2c-0.8,0.5-1.9,0.8-3.2,0.8s-2.3-0.2-3.2-0.7
	c-0.8-0.4-1.4-1.1-1.8-1.9s-0.5-2-0.5-3.4v-7.9h1.8v7.9c0,1.2,0.1,2.1,0.3,2.6s0.6,1,1.1,1.3s1.2,0.5,2,0.5c1.3,0,2.3-0.3,2.9-0.9
	c0.6-0.6,0.9-1.8,0.9-3.5L224.7,176.6L224.7,176.6L224.7,176.6z"/>
<path class="st4" d="M221.6,170.6V169h5.8v5.1c-0.9,0.7-1.8,1.2-2.8,1.6c-1,0.4-1.9,0.5-2.9,0.5c-1.4,0-2.6-0.3-3.7-0.9
	c-1.1-0.6-1.9-1.4-2.5-2.5c-0.6-1.1-0.8-2.3-0.8-3.7s0.3-2.6,0.8-3.8s1.4-2,2.4-2.6c1-0.6,2.3-0.8,3.6-0.8c1,0,1.9,0.2,2.7,0.5
	c0.8,0.3,1.4,0.8,1.9,1.4c0.5,0.6,0.8,1.3,1,2.2l-1.6,0.4c-0.2-0.7-0.5-1.2-0.8-1.6s-0.7-0.7-1.3-1s-1.2-0.4-1.9-0.4
	c-0.8,0-1.5,0.1-2.2,0.4c-0.6,0.2-1.1,0.6-1.5,1s-0.7,0.9-0.9,1.4c-0.4,0.9-0.5,1.8-0.5,2.8c0,1.2,0.2,2.2,0.6,3.1
	c0.4,0.8,1,1.4,1.8,1.8s1.7,0.6,2.6,0.6c0.8,0,1.6-0.1,2.3-0.4s1.3-0.6,1.7-1v-2.6L221.6,170.6L221.6,170.6L221.6,170.6z"/>
<path class="st4" d="M214.8,161.8L220,148h2l5.6,13.8h-2.1l-1.6-4.2h-5.8l-1.5,4.2H214.8z M218.7,156.1h4.7l-1.4-3.8
	c-0.4-1.2-0.8-2.1-1-2.9c-0.2,0.9-0.4,1.8-0.7,2.6L218.7,156.1z"/>
<path class="st4" d="M224.7,133.7h1.8v7.9c0,1.4-0.2,2.5-0.5,3.3c-0.3,0.8-0.9,1.5-1.7,2c-0.8,0.5-1.9,0.8-3.2,0.8s-2.3-0.2-3.2-0.7
	c-0.8-0.4-1.4-1.1-1.8-1.9s-0.5-2-0.5-3.4v-7.9h1.8v7.9c0,1.2,0.1,2.1,0.3,2.6s0.6,1,1.1,1.3s1.2,0.5,2,0.5c1.3,0,2.3-0.3,2.9-0.9
	c0.6-0.6,0.9-1.8,0.9-3.5L224.7,133.7L224.7,133.7L224.7,133.7z"/>
<path class="st4" d="M221.6,127.8v-1.6h5.8v5.1c-0.9,0.7-1.8,1.2-2.8,1.6c-1,0.4-1.9,0.5-2.9,0.5c-1.4,0-2.6-0.3-3.7-0.9
	c-1.1-0.6-1.9-1.4-2.5-2.5c-0.6-1.1-0.8-2.3-0.8-3.7s0.3-2.6,0.8-3.8s1.4-2,2.4-2.6c1-0.6,2.3-0.8,3.6-0.8c1,0,1.9,0.2,2.7,0.5
	c0.8,0.3,1.4,0.8,1.9,1.3c0.5,0.6,0.8,1.3,1,2.2l-1.6,0.4c-0.2-0.7-0.5-1.2-0.8-1.7s-0.7-0.7-1.3-1s-1.2-0.4-1.9-0.4
	c-0.8,0-1.5,0.1-2.2,0.4c-0.6,0.2-1.1,0.6-1.5,1s-0.7,0.9-0.9,1.4c-0.4,0.8-0.5,1.8-0.5,2.8c0,1.2,0.2,2.2,0.6,3.1
	c0.4,0.8,1,1.4,1.8,1.8s1.7,0.6,2.6,0.6c0.8,0,1.6-0.1,2.3-0.4s1.3-0.6,1.7-1v-2.6L221.6,127.8L221.6,127.8L221.6,127.8z"/>
<path class="st0" d="M229,136.8l5.3-13.8h2l5.6,13.8h-2.1l-1.6-4.2h-5.8l-1.5,4.2H229z M233,131.1h4.7l-1.4-3.8
	c-0.4-1.2-0.8-2.1-1-2.8c-0.2,0.9-0.4,1.8-0.7,2.6L233,131.1z"/>
<path class="st0" d="M252.7,133v-1.6h5.8v5.1c-0.9,0.7-1.8,1.2-2.8,1.6c-1,0.4-1.9,0.5-2.9,0.5c-1.4,0-2.6-0.3-3.7-0.9
	c-1.1-0.6-1.9-1.4-2.5-2.5c-0.6-1.1-0.8-2.3-0.8-3.7s0.3-2.6,0.8-3.8s1.4-2,2.4-2.6c1-0.6,2.3-0.8,3.6-0.8c1,0,1.9,0.2,2.7,0.5
	c0.8,0.3,1.4,0.8,1.9,1.3c0.5,0.6,0.8,1.3,1,2.2l-1.6,0.4c-0.2-0.7-0.5-1.2-0.8-1.7s-0.7-0.7-1.3-1s-1.2-0.4-1.9-0.4
	c-0.8,0-1.5,0.1-2.2,0.4c-0.6,0.2-1.1,0.6-1.5,1s-0.7,0.9-0.9,1.4c-0.4,0.9-0.5,1.8-0.5,2.8c0,1.2,0.2,2.2,0.6,3.1
	c0.4,0.8,1,1.4,1.8,1.8s1.7,0.6,2.6,0.6c0.8,0,1.6-0.1,2.3-0.4s1.3-0.6,1.7-1V133L252.7,133L252.7,133L252.7,133z"/>
<path class="st0" d="M267.5,115.9h1.8v7.9c0,1.4-0.2,2.5-0.5,3.3c-0.3,0.8-0.9,1.5-1.7,2c-0.8,0.5-1.9,0.8-3.2,0.8s-2.3-0.2-3.2-0.7
	c-0.8-0.4-1.4-1.1-1.8-1.9c-0.4-0.8-0.5-2-0.5-3.4v-7.9h1.8v7.9c0,1.2,0.1,2.1,0.3,2.6s0.6,1,1.1,1.3c0.5,0.3,1.2,0.5,2,0.5
	c1.3,0,2.3-0.3,2.9-0.9c0.6-0.6,0.9-1.8,0.9-3.5L267.5,115.9L267.5,115.9L267.5,115.9z"/>
<path class="st4" d="M196.1,119.4h1.8v7.9c0,1.4-0.2,2.5-0.5,3.3c-0.3,0.8-0.9,1.5-1.7,2c-0.8,0.5-1.9,0.8-3.2,0.8s-2.3-0.2-3.2-0.7
	c-0.8-0.4-1.4-1.1-1.8-1.9s-0.5-2-0.5-3.4v-7.9h1.8v7.9c0,1.2,0.1,2.1,0.3,2.6s0.6,1,1.1,1.3s1.2,0.5,2,0.5c1.3,0,2.3-0.3,2.9-0.9
	c0.6-0.6,0.9-1.8,0.9-3.5L196.1,119.4L196.1,119.4L196.1,119.4z"/>
<path class="st4" d="M186.2,147.5l5.3-13.8h2l5.6,13.8H197l-1.6-4.2h-5.8l-1.5,4.2H186.2z M190.2,141.8h4.7l-1.4-3.8
	c-0.4-1.2-0.8-2.1-1-2.9c-0.2,0.9-0.4,1.8-0.7,2.6L190.2,141.8z"/>
<path class="st4" d="M196.1,148h1.8v7.9c0,1.4-0.2,2.5-0.5,3.3c-0.3,0.8-0.9,1.5-1.7,2c-0.8,0.5-1.9,0.8-3.2,0.8s-2.3-0.2-3.2-0.7
	c-0.8-0.4-1.4-1.1-1.8-1.9s-0.5-2-0.5-3.4V148h1.8v7.9c0,1.2,0.1,2.1,0.3,2.6s0.6,1,1.1,1.3s1.2,0.5,2,0.5c1.3,0,2.3-0.3,2.9-0.9
	c0.6-0.6,0.9-1.8,0.9-3.5L196.1,148L196.1,148L196.1,148z"/>
<path class="st4" d="M196.9,171.2l1.8,0.5c-0.4,1.5-1.1,2.6-2.1,3.4c-1,0.8-2.2,1.2-3.6,1.2s-2.7-0.3-3.6-0.9
	c-0.9-0.6-1.6-1.5-2.1-2.6c-0.5-1.1-0.7-2.4-0.7-3.7c0-1.4,0.3-2.7,0.8-3.8s1.3-1.9,2.3-2.4c1-0.6,2.1-0.8,3.3-0.8
	c1.4,0,2.5,0.4,3.5,1.1s1.6,1.7,2,3l-1.8,0.4c-0.3-1-0.8-1.7-1.4-2.2c-0.6-0.5-1.4-0.7-2.3-0.7c-1.1,0-1.9,0.2-2.6,0.8
	s-1.2,1.2-1.5,2c-0.3,0.9-0.4,1.7-0.4,2.6c0,1.2,0.2,2.2,0.5,3.1s0.9,1.5,1.6,2c0.7,0.4,1.5,0.6,2.3,0.6c1,0,1.9-0.3,2.6-0.9
	C196.1,173.3,196.6,172.4,196.9,171.2L196.9,171.2L196.9,171.2z"/>
<path class="st4" d="M186.2,190.3l5.3-13.8h2l5.6,13.8H197l-1.6-4.2h-5.8l-1.5,4.2H186.2z M190.2,184.7h4.7l-1.4-3.8
	c-0.4-1.2-0.8-2.1-1-2.9c-0.2,0.9-0.4,1.8-0.7,2.6L190.2,184.7z"/>
<path class="st0" d="M171.9,190.3l5.3-13.8h2l5.6,13.8h-2.1l-1.6-4.2h-5.8l-1.5,4.2H171.9z M175.9,184.7h4.7l-1.4-3.8
	c-0.4-1.2-0.8-2.1-1-2.9c-0.2,0.9-0.4,1.8-0.7,2.6L175.9,184.7z"/>
<path class="st0" d="M157.6,193.9l5.3-13.8h2l5.6,13.8h-2.1l-1.6-4.2h-5.8l-1.5,4.2H157.6z M161.6,188.2h4.7l-1.4-3.8
	c-0.4-1.2-0.8-2.1-1-2.9c-0.2,0.9-0.4,1.8-0.7,2.6L161.6,188.2z"/>
<g>
	<line class="st2" x1="215.5" y1="182.8" x2="198.4" y2="182.8"/>
	<line class="st2" x1="215.5" y1="168.6" x2="198.4" y2="168.6"/>
	<line class="st2" x1="215.5" y1="154.3" x2="198.4" y2="154.3"/>
	<line class="st2" x1="215.5" y1="140" x2="198.4" y2="140"/>
</g>
<path class="st0" d="M268.3,106.9l1.8,0.5c-0.4,1.5-1.1,2.6-2.1,3.4c-1,0.8-2.2,1.2-3.6,1.2s-2.7-0.3-3.6-0.9s-1.6-1.5-2.1-2.6
	c-0.5-1.2-0.7-2.4-0.7-3.7c0-1.4,0.3-2.7,0.8-3.8s1.3-1.9,2.3-2.4s2.1-0.8,3.3-0.8c1.4,0,2.5,0.3,3.5,1.1c0.9,0.7,1.6,1.7,2,3
	l-1.8,0.4c-0.3-1-0.8-1.7-1.4-2.2c-0.6-0.5-1.4-0.7-2.3-0.7c-1.1,0-1.9,0.2-2.6,0.8s-1.2,1.2-1.5,2c-0.3,0.8-0.4,1.7-0.4,2.6
	c0,1.2,0.2,2.2,0.5,3.1c0.3,0.9,0.9,1.5,1.6,2s1.5,0.7,2.3,0.7c1,0,1.9-0.3,2.6-0.9S268,108.1,268.3,106.9L268.3,106.9L268.3,106.9z
	"/>
<path class="st0" d="M254,96.2l1.8,0.5c-0.4,1.5-1.1,2.6-2.1,3.4c-1,0.8-2.2,1.2-3.6,1.2s-2.7-0.3-3.6-0.9s-1.6-1.5-2.1-2.6
	c-0.5-1.2-0.7-2.4-0.7-3.7c0-1.4,0.3-2.7,0.8-3.8s1.3-1.9,2.3-2.4s2.1-0.8,3.3-0.8c1.4,0,2.5,0.3,3.5,1.1c0.9,0.7,1.6,1.7,2,3
	l-1.8,0.4c-0.3-1-0.8-1.7-1.4-2.2c-0.6-0.5-1.4-0.7-2.3-0.7c-1.1,0-1.9,0.2-2.6,0.8s-1.2,1.2-1.5,2c-0.3,0.8-0.4,1.7-0.4,2.6
	c0,1.2,0.2,2.2,0.5,3.1c0.3,0.9,0.9,1.5,1.6,2s1.5,0.7,2.3,0.7c1,0,1.9-0.3,2.6-0.9S253.7,97.4,254,96.2L254,96.2L254,96.2z"/>
<path class="st0" d="M238.9,98h1.8v7.9c0,1.4-0.2,2.5-0.5,3.3c-0.3,0.8-0.9,1.5-1.7,2c-0.8,0.5-1.9,0.8-3.2,0.8s-2.3-0.2-3.2-0.7
	c-0.8-0.4-1.4-1.1-1.8-1.9c-0.4-0.8-0.5-2-0.5-3.4V98h1.8v7.9c0,1.2,0.1,2.1,0.3,2.6s0.6,1,1.1,1.3s1.2,0.5,2,0.5
	c1.3,0,2.3-0.3,2.9-0.9c0.6-0.6,0.9-1.8,0.9-3.5L238.9,98L238.9,98L238.9,98z"/>
<path class="st4" d="M225.4,110.5l1.8,0.5c-0.4,1.5-1.1,2.6-2.1,3.4c-1,0.8-2.2,1.2-3.6,1.2s-2.7-0.3-3.6-0.9s-1.6-1.5-2.1-2.6
	c-0.5-1.2-0.7-2.4-0.7-3.7c0-1.4,0.3-2.7,0.8-3.8s1.3-1.9,2.3-2.4s2.1-0.8,3.3-0.8c1.4,0,2.5,0.3,3.5,1.1c0.9,0.7,1.6,1.7,2,3
	l-1.8,0.4c-0.3-1-0.8-1.7-1.4-2.2c-0.6-0.5-1.4-0.7-2.3-0.7c-1.1,0-1.9,0.2-2.6,0.8s-1.2,1.2-1.5,2c-0.3,0.8-0.4,1.7-0.4,2.6
	c0,1.2,0.2,2.2,0.5,3.1c0.3,0.9,0.9,1.5,1.6,2s1.5,0.7,2.3,0.7c1,0,1.9-0.3,2.6-0.9S225.2,111.7,225.4,110.5L225.4,110.5
	L225.4,110.5z"/>
<path class="st4" d="M221.6,95.7v-1.6h5.8v5.1c-0.9,0.7-1.8,1.2-2.8,1.6c-1,0.4-1.9,0.5-2.9,0.5c-1.4,0-2.6-0.3-3.7-0.9
	c-1.1-0.6-1.9-1.4-2.5-2.5c-0.6-1.1-0.8-2.3-0.8-3.7s0.3-2.6,0.8-3.8s1.4-2,2.4-2.6c1-0.6,2.3-0.8,3.6-0.8c1,0,1.9,0.2,2.7,0.5
	c0.8,0.3,1.4,0.8,1.9,1.3c0.5,0.6,0.8,1.3,1,2.2l-1.6,0.4c-0.2-0.7-0.5-1.2-0.8-1.7s-0.7-0.7-1.3-1s-1.2-0.4-1.9-0.4
	c-0.8,0-1.5,0.1-2.2,0.4c-0.6,0.2-1.1,0.6-1.5,1s-0.7,0.9-0.9,1.4c-0.4,0.8-0.5,1.8-0.5,2.8c0,1.2,0.2,2.2,0.6,3.1
	c0.4,0.8,1,1.4,1.8,1.8c0.8,0.4,1.7,0.6,2.6,0.6c0.8,0,1.6-0.2,2.3-0.4c0.8-0.3,1.3-0.6,1.7-1v-2.6L221.6,95.7L221.6,95.7
	L221.6,95.7z"/>
<path class="st4" d="M221.6,81.4v-1.6h5.8v5.1c-0.9,0.7-1.8,1.2-2.8,1.6c-1,0.4-1.9,0.5-2.9,0.5c-1.4,0-2.6-0.3-3.7-0.9
	c-1.1-0.6-1.9-1.4-2.5-2.5c-0.6-1.1-0.8-2.3-0.8-3.7s0.3-2.6,0.8-3.8s1.4-2,2.4-2.6c1-0.6,2.3-0.8,3.6-0.8c1,0,1.9,0.2,2.7,0.5
	c0.8,0.3,1.4,0.8,1.9,1.3c0.5,0.6,0.8,1.3,1,2.2l-1.6,0.4c-0.2-0.7-0.5-1.2-0.8-1.7s-0.7-0.7-1.3-1s-1.2-0.4-1.9-0.4
	c-0.8,0-1.5,0.1-2.2,0.4c-0.6,0.2-1.1,0.6-1.5,1s-0.7,0.9-0.9,1.4c-0.4,0.8-0.5,1.8-0.5,2.8c0,1.2,0.2,2.2,0.6,3.1
	c0.4,0.8,1,1.4,1.8,1.8c0.8,0.4,1.7,0.6,2.6,0.6c0.8,0,1.6-0.2,2.3-0.4c0.8-0.3,1.3-0.6,1.7-1v-2.6L221.6,81.4L221.6,81.4
	L221.6,81.4z"/>
<path class="st0" d="M224.7,58.7h1.8v8c0,1.4-0.2,2.5-0.5,3.3c-0.3,0.8-0.9,1.5-1.7,2c-0.8,0.5-1.9,0.8-3.2,0.8s-2.3-0.2-3.2-0.7
	c-0.8-0.4-1.4-1.1-1.8-1.9c-0.4-0.8-0.5-2-0.5-3.4v-8h1.8v7.9c0,1.2,0.1,2.1,0.3,2.6s0.6,1,1.1,1.3s1.2,0.5,2,0.5
	c1.3,0,2.3-0.3,2.9-0.9c0.6-0.6,0.9-1.8,0.9-3.5L224.7,58.7L224.7,58.7L224.7,58.7z"/>
<path class="st0" d="M221.9,54.7l5.3-13.8h2l5.6,13.8h-2.1l-1.6-4.2h-5.8l-1.5,4.2H221.9z M225.9,49h4.7l-1.4-3.8
	c-0.4-1.2-0.8-2.1-1-2.8c-0.2,0.9-0.4,1.8-0.7,2.6L225.9,49z"/>
<line class="st2" x1="237.9" y1="47.2" x2="247.4" y2="47.2"/>
<path d="M248.2,51l1.8-0.2c0.1,0.9,0.4,1.5,0.9,2s1,0.7,1.7,0.7c0.8,0,1.5-0.3,2.1-0.9c0.6-0.6,0.8-1.4,0.8-2.4s-0.3-1.7-0.8-2.3
	c-0.5-0.6-1.2-0.8-2.1-0.8c-0.5,0-1,0.1-1.5,0.4s-0.8,0.6-1,1l-1.6-0.2l1.3-7.1h6.8v1.6h-5.5l-0.7,3.7c0.8-0.6,1.7-0.9,2.6-0.9
	c1.2,0,2.2,0.4,3,1.2c0.8,0.8,1.2,1.9,1.2,3.2s-0.4,2.3-1.1,3.2c-0.9,1.1-2.1,1.7-3.6,1.7c-1.2,0-2.3-0.3-3.1-1S248.3,52.2,248.2,51
	L248.2,51L248.2,51z M258.8,47.9c0-1.6,0.2-2.9,0.5-3.9c0.3-1,0.8-1.8,1.5-2.3c0.7-0.5,1.5-0.8,2.5-0.8c0.7,0,1.4,0.2,1.9,0.5
	c0.6,0.3,1,0.7,1.4,1.3c0.4,0.6,0.6,1.2,0.9,2c0.2,0.8,0.3,1.9,0.3,3.2c0,1.6-0.2,2.9-0.5,3.9s-0.8,1.8-1.5,2.3s-1.5,0.8-2.5,0.8
	c-1.3,0-2.4-0.5-3.1-1.4C259.2,52.3,258.8,50.4,258.8,47.9L258.8,47.9z M260.5,47.9c0,2.3,0.3,3.8,0.8,4.5c0.5,0.8,1.2,1.1,2,1.1
	s1.4-0.4,2-1.1c0.5-0.8,0.8-2.2,0.8-4.5s-0.3-3.8-0.8-4.5s-1.2-1.1-2-1.1s-1.4,0.3-1.9,1C260.8,44.1,260.5,45.6,260.5,47.9
	L260.5,47.9L260.5,47.9z"/>
<path class="st0" d="M207.6,43.9l5.3-13.8h2l5.6,13.8h-2.1l-1.6-4.2h-5.8l-1.5,4.2H207.6z M211.6,38.3h4.7l-1.4-3.8
	c-0.4-1.2-0.8-2.1-1-2.9c-0.2,0.9-0.4,1.8-0.7,2.6C213.1,34.3,211.6,38.3,211.6,38.3z"/>
<path class="st0" d="M199.7,30.2h1.8v8c0,1.4-0.2,2.5-0.5,3.3c-0.3,0.8-0.9,1.5-1.7,2c-0.8,0.5-1.9,0.8-3.2,0.8s-2.3-0.2-3.2-0.7
	c-0.8-0.4-1.4-1.1-1.8-1.9s-0.5-2-0.5-3.4v-8h1.8v7.9c0,1.2,0.1,2.1,0.3,2.6c0.2,0.6,0.6,1,1.1,1.3s1.2,0.5,2,0.5
	c1.3,0,2.3-0.3,2.9-0.9c0.6-0.6,0.9-1.8,0.9-3.5L199.7,30.2L199.7,30.2L199.7,30.2z"/>
<path class="st0" d="M186.2,53.4l1.8,0.5c-0.4,1.5-1.1,2.6-2.1,3.4c-1,0.8-2.2,1.2-3.6,1.2s-2.7-0.3-3.6-0.9
	c-0.9-0.6-1.6-1.5-2.1-2.6c-0.5-1.2-0.7-2.4-0.7-3.7c0-1.4,0.3-2.7,0.8-3.8s1.3-1.9,2.3-2.4s2.1-0.8,3.3-0.8c1.4,0,2.5,0.3,3.5,1
	s1.6,1.7,2,3l-1.8,0.4c-0.3-1-0.8-1.7-1.4-2.2c-0.6-0.5-1.4-0.7-2.3-0.7c-1.1,0-1.9,0.2-2.6,0.8s-1.2,1.2-1.5,2
	c-0.3,0.8-0.4,1.7-0.4,2.6c0,1.2,0.2,2.2,0.5,3.1c0.3,0.9,0.9,1.5,1.6,2s1.5,0.7,2.3,0.7c1,0,1.9-0.3,2.6-0.9S185.9,54.6,186.2,53.4
	L186.2,53.4L186.2,53.4z"/>
<path class="st0" d="M193.1,67.1v-1.6h5.8v5.1c-0.9,0.7-1.8,1.2-2.8,1.6c-1,0.4-1.9,0.5-2.9,0.5c-1.4,0-2.6-0.3-3.7-0.9
	c-1.1-0.6-1.9-1.4-2.5-2.5c-0.6-1.1-0.8-2.3-0.8-3.7s0.3-2.6,0.8-3.8s1.4-2,2.4-2.6c1-0.6,2.3-0.8,3.6-0.8c1,0,1.9,0.2,2.7,0.5
	c0.8,0.3,1.4,0.8,1.9,1.3c0.5,0.6,0.8,1.3,1,2.2l-1.6,0.5c-0.2-0.7-0.5-1.2-0.8-1.7s-0.7-0.7-1.3-1c-0.6-0.2-1.2-0.4-1.9-0.4
	c-0.8,0-1.5,0.1-2.2,0.4c-0.6,0.2-1.1,0.6-1.5,1s-0.7,0.9-0.9,1.4c-0.4,0.8-0.5,1.8-0.5,2.8c0,1.2,0.2,2.2,0.6,3.1
	c0.4,0.8,1,1.4,1.8,1.8c0.8,0.4,1.7,0.6,2.6,0.6c0.8,0,1.6-0.2,2.3-0.4c0.8-0.3,1.3-0.6,1.7-1v-2.6L193.1,67.1L193.1,67.1
	L193.1,67.1z"/>
<path class="st4" d="M196.9,81.9l1.8,0.5c-0.4,1.5-1.1,2.6-2.1,3.4c-1,0.8-2.2,1.2-3.6,1.2s-2.7-0.3-3.6-0.9s-1.6-1.5-2.1-2.6
	c-0.5-1.2-0.7-2.4-0.7-3.7c0-1.4,0.3-2.7,0.8-3.8s1.3-1.9,2.3-2.4s2.1-0.8,3.3-0.8c1.4,0,2.5,0.3,3.5,1.1c0.9,0.7,1.6,1.7,2,3
	l-1.8,0.4c-0.3-1-0.8-1.7-1.4-2.2c-0.6-0.5-1.4-0.7-2.3-0.7c-1.1,0-1.9,0.2-2.6,0.8s-1.2,1.2-1.5,2c-0.3,0.8-0.4,1.7-0.4,2.6
	c0,1.2,0.2,2.2,0.5,3.1c0.3,0.9,0.9,1.5,1.6,2s1.5,0.7,2.3,0.7c1,0,1.9-0.3,2.6-0.9S196.6,83.1,196.9,81.9L196.9,81.9L196.9,81.9z"
	/>
<path class="st4" d="M196.9,96.2l1.8,0.5c-0.4,1.5-1.1,2.6-2.1,3.4c-1,0.8-2.2,1.2-3.6,1.2s-2.7-0.3-3.6-0.9s-1.6-1.5-2.1-2.6
	c-0.5-1.2-0.7-2.4-0.7-3.7c0-1.4,0.3-2.7,0.8-3.8s1.3-1.9,2.3-2.4s2.1-0.8,3.3-0.8c1.4,0,2.5,0.3,3.5,1.1c0.9,0.7,1.6,1.7,2,3
	l-1.8,0.4c-0.3-1-0.8-1.7-1.4-2.2c-0.6-0.5-1.4-0.7-2.3-0.7c-1.1,0-1.9,0.2-2.6,0.8s-1.2,1.2-1.5,2c-0.3,0.8-0.4,1.7-0.4,2.6
	c0,1.2,0.2,2.2,0.5,3.1c0.3,0.9,0.9,1.5,1.6,2s1.5,0.7,2.3,0.7c1,0,1.9-0.3,2.6-0.9S196.6,97.4,196.9,96.2L196.9,96.2L196.9,96.2z"
	/>
<path class="st4" d="M193.1,109.9v-1.6h5.8v5.1c-0.9,0.7-1.8,1.2-2.8,1.6c-1,0.4-1.9,0.5-2.9,0.5c-1.4,0-2.6-0.3-3.7-0.9
	c-1.1-0.6-1.9-1.4-2.5-2.5c-0.6-1.1-0.8-2.3-0.8-3.7s0.3-2.6,0.8-3.8s1.4-2,2.4-2.6c1-0.6,2.3-0.8,3.6-0.8c1,0,1.9,0.2,2.7,0.5
	c0.8,0.3,1.4,0.8,1.9,1.3c0.5,0.6,0.8,1.3,1,2.2l-1.6,0.4c-0.2-0.7-0.5-1.2-0.8-1.7s-0.7-0.7-1.3-1s-1.2-0.4-1.9-0.4
	c-0.8,0-1.5,0.1-2.2,0.4c-0.6,0.2-1.1,0.6-1.5,1s-0.7,0.9-0.9,1.4c-0.4,0.8-0.5,1.8-0.5,2.8c0,1.2,0.2,2.2,0.6,3.1
	c0.4,0.8,1,1.4,1.8,1.8c0.8,0.4,1.7,0.6,2.6,0.6c0.8,0,1.6-0.2,2.3-0.4c0.8-0.3,1.3-0.6,1.7-1V110L193.1,109.9L193.1,109.9
	L193.1,109.9z"/>
<g>
	<line class="st2" x1="215.5" y1="107.9" x2="198.4" y2="107.9"/>
	<line class="st2" x1="215.5" y1="93.6" x2="198.4" y2="93.6"/>
	<line class="st2" x1="215.5" y1="79.3" x2="198.4" y2="79.3"/>
</g>
<path class="st0" d="M146.9,201l5.3-13.8h2l5.6,13.8h-2.1l-1.6-4.2h-5.8l-1.5,4.2H146.9z M150.9,195.4h4.7l-1.4-3.8
	c-0.4-1.2-0.8-2.1-1-2.9c-0.2,0.9-0.4,1.8-0.7,2.6L150.9,195.4z"/>
<path class="st5" d="M139.5,195.6V194h5.8v5.1c-0.9,0.7-1.8,1.2-2.8,1.6c-1,0.4-1.9,0.5-2.9,0.5c-1.4,0-2.6-0.3-3.7-0.9
	c-1.1-0.6-1.9-1.4-2.5-2.5c-0.6-1.1-0.8-2.3-0.8-3.7s0.3-2.6,0.8-3.8s1.4-2,2.4-2.6c1-0.6,2.3-0.8,3.6-0.8c1,0,1.9,0.2,2.7,0.5
	c0.8,0.3,1.4,0.8,1.9,1.4c0.5,0.6,0.8,1.3,1,2.2l-1.6,0.4c-0.2-0.7-0.5-1.2-0.8-1.6s-0.7-0.7-1.3-1s-1.2-0.4-1.9-0.4
	c-0.8,0-1.5,0.1-2.2,0.4c-0.6,0.2-1.1,0.6-1.5,1s-0.7,0.9-0.9,1.4c-0.4,0.9-0.5,1.8-0.5,2.8c0,1.2,0.2,2.2,0.6,3.1
	c0.4,0.8,1,1.4,1.8,1.8s1.7,0.6,2.6,0.6c0.8,0,1.6-0.1,2.3-0.4s1.3-0.6,1.7-1v-2.6L139.5,195.6L139.5,195.6L139.5,195.6z"/>
<path class="st5" d="M142.5,173h1.8v7.9c0,1.4-0.2,2.5-0.5,3.3c-0.3,0.8-0.9,1.5-1.7,2c-0.8,0.5-1.9,0.8-3.2,0.8s-2.3-0.2-3.2-0.7
	c-0.8-0.4-1.4-1.1-1.8-1.9s-0.5-2-0.5-3.4V173h1.8v7.9c0,1.2,0.1,2.1,0.3,2.6s0.6,1,1.1,1.3s1.2,0.5,2,0.5c1.3,0,2.3-0.3,2.9-0.9
	c0.6-0.6,0.9-1.8,0.9-3.5L142.5,173L142.5,173L142.5,173z"/>
<path class="st5" d="M143.3,167.6l1.8,0.5c-0.4,1.5-1.1,2.6-2.1,3.4c-1,0.8-2.2,1.2-3.6,1.2s-2.7-0.3-3.6-0.9
	c-0.9-0.6-1.6-1.5-2.1-2.6c-0.5-1.1-0.7-2.4-0.7-3.7c0-1.4,0.3-2.7,0.8-3.8s1.3-1.9,2.3-2.4c1-0.6,2.1-0.8,3.3-0.8
	c1.4,0,2.5,0.4,3.5,1.1s1.6,1.7,2,3l-1.8,0.4c-0.3-1-0.8-1.7-1.4-2.2c-0.6-0.5-1.4-0.7-2.3-0.7c-1.1,0-1.9,0.2-2.6,0.8
	s-1.2,1.2-1.5,2c-0.3,0.9-0.4,1.7-0.4,2.6c0,1.2,0.2,2.2,0.5,3.1s0.9,1.5,1.6,2c0.7,0.4,1.5,0.6,2.3,0.6c1,0,1.9-0.3,2.6-0.9
	C142.6,169.7,143.1,168.8,143.3,167.6L143.3,167.6L143.3,167.6z"/>
<path class="st5" d="M139.5,152.8v-1.6h5.8v5.1c-0.9,0.7-1.8,1.2-2.8,1.6c-1,0.4-1.9,0.5-2.9,0.5c-1.4,0-2.6-0.3-3.7-0.9
	c-1.1-0.6-1.9-1.4-2.5-2.5c-0.6-1.1-0.8-2.3-0.8-3.7s0.3-2.6,0.8-3.8s1.4-2,2.4-2.6c1-0.6,2.3-0.8,3.6-0.8c1,0,1.9,0.2,2.7,0.5
	c0.8,0.3,1.4,0.8,1.9,1.4c0.5,0.6,0.8,1.3,1,2.2l-1.6,0.4c-0.2-0.7-0.5-1.2-0.8-1.6s-0.7-0.7-1.3-1s-1.2-0.4-1.9-0.4
	c-0.8,0-1.5,0.1-2.2,0.4c-0.6,0.2-1.1,0.6-1.5,1s-0.7,0.9-0.9,1.4c-0.4,0.9-0.5,1.8-0.5,2.8c0,1.2,0.2,2.2,0.6,3.1
	c0.4,0.8,1,1.4,1.8,1.8s1.7,0.6,2.6,0.6c0.8,0,1.6-0.1,2.3-0.4s1.3-0.6,1.7-1v-2.6L139.5,152.8L139.5,152.8L139.5,152.8z"/>
<path class="st5" d="M139.5,138.5v-1.6h5.8v5.1c-0.9,0.7-1.8,1.2-2.8,1.6c-1,0.4-1.9,0.5-2.9,0.5c-1.4,0-2.6-0.3-3.7-0.9
	c-1.1-0.6-1.9-1.4-2.5-2.5c-0.6-1.1-0.8-2.3-0.8-3.7s0.3-2.6,0.8-3.8s1.4-2,2.4-2.6c1-0.6,2.3-0.8,3.6-0.8c1,0,1.9,0.2,2.7,0.5
	c0.8,0.3,1.4,0.8,1.9,1.4c0.5,0.6,0.8,1.3,1,2.2l-1.6,0.4c-0.2-0.7-0.5-1.2-0.8-1.6s-0.7-0.7-1.3-1s-1.2-0.4-1.9-0.4
	c-0.8,0-1.5,0.1-2.2,0.4c-0.6,0.2-1.1,0.6-1.5,1s-0.7,0.9-0.9,1.4c-0.4,0.9-0.5,1.8-0.5,2.8c0,1.2,0.2,2.2,0.6,3.1
	c0.4,0.8,1,1.4,1.8,1.8s1.7,0.6,2.6,0.6c0.8,0,1.6-0.1,2.3-0.4s1.3-0.6,1.7-1v-2.6L139.5,138.5L139.5,138.5L139.5,138.5z"/>
<path class="st0" d="M136.2,129.6l5.3-13.8h2l5.6,13.8H147l-1.6-4.2h-5.8l-1.5,4.2H136.2z M140.2,124h4.7l-1.4-3.8
	c-0.4-1.2-0.8-2.1-1-2.8c-0.2,0.9-0.4,1.8-0.7,2.6L140.2,124z"/>
<path class="st0" d="M146.9,115.3l5.3-13.8h2l5.6,13.8h-2.1l-1.6-4.2h-5.8l-1.5,4.2H146.9z M150.9,109.7h4.7l-1.4-3.8
	c-0.4-1.2-0.8-2.1-1-2.8c-0.2,0.9-0.4,1.8-0.7,2.6L150.9,109.7z"/>
<path class="st0" d="M153.3,87.3h1.8v7.9c0,1.4-0.2,2.5-0.5,3.3c-0.3,0.8-0.9,1.5-1.7,2c-0.8,0.5-1.9,0.8-3.2,0.8s-2.3-0.2-3.2-0.7
	c-0.8-0.4-1.4-1.1-1.8-1.9c-0.4-0.8-0.5-2-0.5-3.4v-7.9h1.8v7.9c0,1.2,0.1,2.1,0.3,2.6s0.6,1,1.1,1.3s1.2,0.5,2,0.5
	c1.3,0,2.3-0.3,2.9-0.9c0.6-0.6,0.9-1.8,0.9-3.5L153.3,87.3L153.3,87.3L153.3,87.3z"/>
<path class="st0" d="M136,84.9v-1.6h5.8v5.1c-0.9,0.7-1.8,1.2-2.8,1.6c-1,0.4-1.9,0.5-2.9,0.5c-1.4,0-2.6-0.3-3.7-0.9
	c-1.1-0.6-1.9-1.4-2.5-2.5c-0.6-1.1-0.8-2.3-0.8-3.7s0.3-2.6,0.8-3.8s1.4-2,2.4-2.6c1-0.6,2.3-0.8,3.6-0.8c1,0,1.9,0.2,2.7,0.5
	c0.8,0.3,1.4,0.8,1.9,1.3c0.5,0.6,0.8,1.3,1,2.2l-1.6,0.4c-0.2-0.7-0.5-1.2-0.8-1.7s-0.7-0.7-1.3-1s-1.2-0.4-1.9-0.4
	c-0.8,0-1.5,0.1-2.2,0.4c-0.6,0.2-1.1,0.6-1.5,1s-0.7,0.9-0.9,1.4c-0.4,0.8-0.5,1.8-0.5,2.8c0,1.2,0.2,2.2,0.6,3.1
	c0.4,0.8,1,1.4,1.8,1.8c0.8,0.4,1.7,0.6,2.6,0.6c0.8,0,1.6-0.2,2.3-0.4c0.8-0.3,1.3-0.6,1.7-1V85L136,84.9L136,84.9L136,84.9z"/>
<path class="st0" d="M121.7,74.2v-1.6h5.8v5.1c-0.9,0.7-1.8,1.2-2.8,1.6c-1,0.4-1.9,0.5-2.9,0.5c-1.4,0-2.6-0.3-3.7-0.9
	c-1.1-0.6-1.9-1.4-2.5-2.5c-0.6-1.1-0.8-2.3-0.8-3.7s0.3-2.6,0.8-3.8s1.4-2,2.4-2.6c1-0.6,2.3-0.8,3.6-0.8c1,0,1.9,0.2,2.7,0.5
	c0.8,0.3,1.4,0.8,1.9,1.3c0.5,0.6,0.8,1.3,1,2.2l-1.6,0.4c-0.2-0.7-0.5-1.2-0.8-1.7s-0.7-0.7-1.3-1s-1.2-0.4-1.9-0.4
	c-0.8,0-1.5,0.1-2.2,0.4c-0.6,0.2-1.1,0.6-1.5,1s-0.7,0.9-0.9,1.4c-0.4,0.8-0.5,1.8-0.5,2.8c0,1.2,0.2,2.2,0.6,3.1
	c0.4,0.8,1,1.4,1.8,1.8c0.8,0.4,1.7,0.6,2.6,0.6c0.8,0,1.6-0.2,2.3-0.4c0.8-0.3,1.3-0.6,1.7-1v-2.6L121.7,74.2L121.7,74.2
	L121.7,74.2z"/>
<path class="st0" d="M100.5,83.2l5.3-13.8h2l5.6,13.8h-2.1l-1.6-4.2H104l-1.5,4.2C102.4,83.2,100.5,83.2,100.5,83.2z M104.5,77.6
	h4.7l-1.4-3.8c-0.4-1.2-0.8-2.1-1-2.8c-0.2,0.9-0.4,1.8-0.7,2.6L104.5,77.6z"/>
<path class="st0" d="M93.1,88.5v-1.6h5.8V92c-0.9,0.7-1.8,1.2-2.8,1.6c-1,0.4-1.9,0.5-2.9,0.5c-1.4,0-2.6-0.3-3.7-0.9
	c-1.1-0.6-1.9-1.4-2.5-2.5c-0.6-1.1-0.8-2.3-0.8-3.7s0.3-2.6,0.8-3.8s1.4-2,2.4-2.6c1-0.6,2.3-0.8,3.6-0.8c1,0,1.9,0.2,2.7,0.5
	c0.8,0.3,1.4,0.8,1.9,1.3c0.5,0.6,0.8,1.3,1,2.2l-1.6,0.4c-0.2-0.7-0.5-1.2-0.8-1.7s-0.7-0.7-1.3-1s-1.2-0.4-1.9-0.4
	c-0.8,0-1.5,0.1-2.2,0.4c-0.6,0.2-1.1,0.6-1.5,1s-0.7,0.9-0.9,1.4c-0.4,0.8-0.5,1.8-0.5,2.8c0,1.2,0.2,2.2,0.6,3.1
	c0.4,0.8,1,1.4,1.8,1.8c0.8,0.4,1.7,0.6,2.6,0.6c0.8,0,1.6-0.2,2.3-0.4c0.8-0.3,1.3-0.6,1.7-1v-2.6L93.1,88.5L93.1,88.5L93.1,88.5z"
	/>
<path class="st0" d="M89.5,106.4v-1.6h5.8v5.1c-0.9,0.7-1.8,1.2-2.8,1.6c-1,0.4-1.9,0.5-2.9,0.5c-1.4,0-2.6-0.3-3.7-0.9
	c-1.1-0.6-1.9-1.4-2.5-2.5c-0.6-1.1-0.8-2.3-0.8-3.7s0.3-2.6,0.8-3.8s1.4-2,2.4-2.6c1-0.6,2.3-0.8,3.6-0.8c1,0,1.9,0.2,2.7,0.5
	c0.8,0.3,1.4,0.8,1.9,1.3c0.5,0.6,0.8,1.3,1,2.2l-1.6,0.4c-0.2-0.7-0.5-1.2-0.8-1.7s-0.7-0.7-1.3-1s-1.2-0.4-1.9-0.4
	c-0.8,0-1.5,0.1-2.2,0.4c-0.6,0.2-1.1,0.6-1.5,1s-0.7,0.9-0.9,1.4c-0.4,0.8-0.5,1.8-0.5,2.8c0,1.2,0.2,2.2,0.6,3.1
	c0.4,0.8,1,1.4,1.8,1.8c0.8,0.4,1.7,0.6,2.6,0.6c0.8,0,1.6-0.2,2.3-0.4c0.8-0.3,1.3-0.6,1.7-1v-2.6L89.5,106.4L89.5,106.4
	L89.5,106.4z"/>
<path class="st0" d="M96.7,124.2v-1.6h5.8v5.1c-0.9,0.7-1.8,1.2-2.8,1.6c-1,0.4-1.9,0.5-2.9,0.5c-1.4,0-2.6-0.3-3.7-0.9
	c-1.1-0.6-1.9-1.4-2.5-2.5c-0.6-1.1-0.8-2.3-0.8-3.7s0.3-2.6,0.8-3.8s1.4-2,2.4-2.6c1-0.6,2.3-0.8,3.6-0.8c1,0,1.9,0.2,2.7,0.5
	c0.8,0.3,1.4,0.8,1.9,1.3c0.5,0.6,0.8,1.3,1,2.2l-1.6,0.4c-0.2-0.7-0.5-1.2-0.8-1.7s-0.7-0.7-1.3-1s-1.2-0.4-1.9-0.4
	c-0.8,0-1.5,0.1-2.2,0.4c-0.6,0.2-1.1,0.6-1.5,1s-0.7,0.9-0.9,1.4c-0.4,0.8-0.5,1.8-0.5,2.8c0,1.2,0.2,2.2,0.6,3.1
	c0.4,0.8,1,1.4,1.8,1.8c0.8,0.4,1.7,0.6,2.6,0.6c0.8,0,1.6-0.1,2.3-0.4s1.3-0.6,1.7-1v-2.6L96.7,124.2L96.7,124.2L96.7,124.2z"/>
<path class="st5" d="M114,130.1h1.8v7.9c0,1.4-0.2,2.5-0.5,3.3c-0.3,0.8-0.9,1.5-1.7,2c-0.8,0.5-1.9,0.8-3.2,0.8s-2.3-0.2-3.2-0.7
	c-0.8-0.4-1.4-1.1-1.8-1.9s-0.5-2-0.5-3.4v-7.9h1.8v7.9c0,1.2,0.1,2.1,0.3,2.6s0.6,1,1.1,1.3s1.2,0.5,2,0.5c1.3,0,2.3-0.3,2.9-0.9
	c0.6-0.6,0.9-1.8,0.9-3.5L114,130.1L114,130.1L114,130.1z"/>
<line class="st2" x1="101" y1="136.4" x2="91.5" y2="136.4"/>
<path d="M73.5,136.4c-0.7-0.3-1.2-0.6-1.5-1.1c-0.3-0.5-0.5-1-0.5-1.7c0-1,0.4-1.8,1.1-2.5c0.7-0.7,1.7-1,2.9-1s2.2,0.4,2.9,1.1
	c0.7,0.7,1.1,1.6,1.1,2.6c0,0.6-0.2,1.2-0.5,1.7c-0.3,0.5-0.8,0.8-1.5,1.1c0.8,0.3,1.5,0.7,1.9,1.3s0.7,1.4,0.7,2.2
	c0,1.2-0.4,2.2-1.2,3s-1.9,1.2-3.3,1.2s-2.5-0.4-3.3-1.2s-1.2-1.8-1.2-3c0-0.9,0.2-1.6,0.7-2.2C72.1,137.1,72.7,136.7,73.5,136.4
	L73.5,136.4L73.5,136.4z M73.2,133.6c0,0.6,0.2,1.2,0.6,1.6s1,0.6,1.6,0.6s1.2-0.2,1.6-0.6c0.4-0.4,0.6-0.9,0.6-1.5
	s-0.2-1.1-0.6-1.6c-0.4-0.4-1-0.6-1.6-0.6s-1.2,0.2-1.6,0.6C73.4,132.5,73.2,133,73.2,133.6L73.2,133.6L73.2,133.6z M72.6,139.9
	c0,0.5,0.1,0.9,0.3,1.4s0.6,0.8,1,1.1c0.5,0.2,0.9,0.4,1.5,0.4c0.8,0,1.5-0.3,2-0.8s0.8-1.2,0.8-2s-0.3-1.5-0.8-2s-1.2-0.8-2-0.8
	s-1.5,0.3-2,0.8C72.9,138.5,72.6,139.1,72.6,139.9L72.6,139.9L72.6,139.9z M81.5,137.1c0-1.6,0.2-2.9,0.5-3.9s0.8-1.8,1.5-2.3
	c0.7-0.5,1.5-0.8,2.5-0.8c0.7,0,1.4,0.1,1.9,0.4c0.6,0.3,1,0.7,1.4,1.3c0.4,0.6,0.6,1.2,0.9,2c0.2,0.8,0.3,1.9,0.3,3.2
	c0,1.6-0.2,2.9-0.5,3.9s-0.8,1.8-1.5,2.3c-0.7,0.5-1.5,0.8-2.5,0.8c-1.3,0-2.4-0.5-3.1-1.4C82,141.6,81.5,139.7,81.5,137.1
	L81.5,137.1L81.5,137.1z M83.3,137.1c0,2.3,0.3,3.8,0.8,4.5s1.2,1.1,2,1.1s1.4-0.4,2-1.1c0.5-0.8,0.8-2.2,0.8-4.5s-0.3-3.8-0.8-4.5
	c-0.5-0.7-1.2-1.1-2-1.1s-1.4,0.3-1.9,1C83.6,133.3,83.3,134.9,83.3,137.1L83.3,137.1L83.3,137.1z"/>
<path class="st5" d="M114.8,153.4l1.8,0.5c-0.4,1.5-1.1,2.6-2.1,3.4c-1,0.8-2.2,1.2-3.6,1.2s-2.7-0.3-3.6-0.9
	c-0.9-0.6-1.6-1.5-2.1-2.6c-0.5-1.1-0.7-2.4-0.7-3.7c0-1.4,0.3-2.7,0.8-3.8s1.3-1.9,2.3-2.4c1-0.6,2.1-0.8,3.3-0.8
	c1.4,0,2.5,0.4,3.5,1.1s1.6,1.7,2,3l-1.8,0.4c-0.3-1-0.8-1.7-1.4-2.2c-0.6-0.5-1.4-0.7-2.3-0.7c-1.1,0-1.9,0.2-2.6,0.8
	s-1.2,1.2-1.5,2c-0.3,0.9-0.4,1.7-0.4,2.6c0,1.2,0.2,2.2,0.5,3.1s0.9,1.5,1.6,2c0.7,0.4,1.5,0.6,2.3,0.6c1,0,1.9-0.3,2.6-0.9
	C114,155.4,114.5,154.5,114.8,153.4L114.8,153.4L114.8,153.4z"/>
<path class="st5" d="M111,167.1v-1.6h5.8v5.1c-0.9,0.7-1.8,1.2-2.8,1.6c-1,0.4-1.9,0.5-2.9,0.5c-1.4,0-2.6-0.3-3.7-0.9
	c-1.1-0.6-1.9-1.4-2.5-2.5c-0.6-1.1-0.8-2.3-0.8-3.7s0.3-2.6,0.8-3.8s1.4-2,2.4-2.6c1-0.6,2.3-0.8,3.6-0.8c1,0,1.9,0.2,2.7,0.5
	c0.8,0.3,1.4,0.8,1.9,1.4c0.5,0.6,0.8,1.3,1,2.2L115,163c-0.2-0.7-0.5-1.2-0.8-1.6s-0.7-0.7-1.3-1s-1.2-0.4-1.9-0.4
	c-0.8,0-1.5,0.1-2.2,0.4c-0.6,0.2-1.1,0.6-1.5,1s-0.7,0.9-0.9,1.4c-0.4,0.9-0.5,1.8-0.5,2.8c0,1.2,0.2,2.2,0.6,3.1
	c0.4,0.8,1,1.4,1.8,1.8s1.7,0.6,2.6,0.6c0.8,0,1.6-0.1,2.3-0.4s1.3-0.6,1.7-1v-2.6L111,167.1L111,167.1L111,167.1z"/>
<path class="st5" d="M104.1,186.7l5.3-13.8h2l5.6,13.8h-2.1l-1.6-4.2h-5.8l-1.5,4.2H104.1z M108.1,181.1h4.7l-1.4-3.8
	c-0.4-1.2-0.8-2.1-1-2.9c-0.2,0.9-0.4,1.8-0.7,2.6L108.1,181.1z"/>
<path class="st5" d="M114.8,196.2l1.8,0.5c-0.4,1.5-1.1,2.6-2.1,3.4c-1,0.8-2.2,1.2-3.6,1.2s-2.7-0.3-3.6-0.9
	c-0.9-0.6-1.6-1.5-2.1-2.6c-0.5-1.1-0.7-2.4-0.7-3.7c0-1.4,0.3-2.7,0.8-3.8s1.3-1.9,2.3-2.4c1-0.6,2.1-0.8,3.3-0.8
	c1.4,0,2.5,0.4,3.5,1.1s1.6,1.7,2,3l-1.8,0.4c-0.3-1-0.8-1.7-1.4-2.2c-0.6-0.5-1.4-0.7-2.3-0.7c-1.1,0-1.9,0.2-2.6,0.8
	s-1.2,1.2-1.5,2c-0.3,0.9-0.4,1.7-0.4,2.6c0,1.2,0.2,2.2,0.5,3.1s0.9,1.5,1.6,2c0.7,0.4,1.5,0.6,2.3,0.6c1,0,1.9-0.3,2.6-0.9
	C114,198.2,114.5,197.4,114.8,196.2L114.8,196.2L114.8,196.2z"/>
<path class="st0" d="M107.4,213.5v-1.6h5.8v5.1c-0.9,0.7-1.8,1.2-2.8,1.6c-1,0.4-1.9,0.5-2.9,0.5c-1.4,0-2.6-0.3-3.7-0.9
	c-1.1-0.6-1.9-1.4-2.5-2.5c-0.6-1.1-0.8-2.3-0.8-3.7s0.3-2.6,0.8-3.8s1.4-2,2.4-2.6c1-0.6,2.3-0.8,3.6-0.8c1,0,1.9,0.2,2.7,0.5
	c0.8,0.3,1.4,0.8,1.9,1.4c0.5,0.6,0.8,1.3,1,2.2l-1.6,0.4c-0.2-0.7-0.5-1.2-0.8-1.6s-0.7-0.7-1.3-1s-1.2-0.4-1.9-0.4
	c-0.8,0-1.5,0.1-2.2,0.4c-0.6,0.2-1.1,0.6-1.5,1s-0.7,0.9-0.9,1.4c-0.4,0.9-0.5,1.8-0.5,2.8c0,1.2,0.2,2.2,0.6,3.1
	c0.4,0.8,1,1.4,1.8,1.8s1.7,0.6,2.6,0.6c0.8,0,1.6-0.1,2.3-0.4s1.3-0.6,1.7-1v-2.6L107.4,213.5L107.4,213.5L107.4,213.5z"/>
<g>
	<line class="st2" x1="133.4" y1="193.6" x2="116.2" y2="193.6"/>
	<line class="st2" x1="133.4" y1="179.3" x2="116.2" y2="179.3"/>
	<line class="st2" x1="133.4" y1="165" x2="116.2" y2="165"/>
</g>
<path d="M197.2,235.6l2.2-2.3l2.3-0.9l2.4-0.5l4.7-1.4l-4.8-0.7l-2.4-0.2l-2.4-0.5l-2.5-1.9L197.2,235.6L197.2,235.6L197.2,235.6z"
	/>
<path class="st6" d="M184,232.6l34.7-2.4"/>
<line class="st2" x1="115.1" y1="151.4" x2="132.6" y2="151.4"/>
<line class="st2" x1="117" y1="137" x2="134.5" y2="137"/>
<line class="st2" x1="154.3" y1="234.6" x2="171.9" y2="234.6"/>
<line class="st2" x1="154.9" y1="247.8" x2="171.3" y2="247.8"/>
<line class="st2" x1="155.9" y1="262.1" x2="172.3" y2="262.1"/>
<line class="st2" x1="154.7" y1="275.7" x2="171.1" y2="275.7"/>
<line class="st2" x1="154.4" y1="290.6" x2="170.8" y2="290.6"/>
<line class="st2" x1="154.9" y1="305.5" x2="171.3" y2="305.5"/>
<line class="st2" x1="156.1" y1="322.5" x2="172.5" y2="322.5"/>
<line class="st2" x1="154.9" y1="336.9" x2="171.3" y2="336.9"/>
<line class="st2" x1="156.1" y1="351.1" x2="172.5" y2="351.1"/>
<line class="st2" x1="225.1" y1="222.5" x2="225.1" y2="208.4"/>
<line class="st2" x1="238.8" y1="223.2" x2="238.8" y2="209.1"/>
<line class="st2" x1="253.7" y1="222.7" x2="253.7" y2="208.6"/>
<line class="st2" x1="268.2" y1="222.1" x2="268.2" y2="208"/>
<line class="st2" x1="282.9" y1="222.2" x2="282.9" y2="208.1"/>
<line class="st2" x1="296.5" y1="222.5" x2="296.5" y2="208.4"/>
<line class="st2" x1="309.4" y1="222.9" x2="309.4" y2="208.8"/>
<g>
	<text transform="matrix(1 0 0 1 12.8555 30.1701)" class="st7 st8">D16-13 aptamer</text>
</g>
<text transform="matrix(1 0 0 1 244.33 360.2)" class="st7 st9">5</text>
<text transform="matrix(1 0 0 1 256.01 360.2)" class="st7 st9">’</text>
<text transform="matrix(1 0 0 1 70.94 360.2)" class="st7 st9">3</text>
<text transform="matrix(1 0 0 1 82.62 360.2)" class="st7 st9">’</text>
</svg>
