<?xml version="1.0" encoding="utf-8"?>
<!-- Generator: Adobe Illustrator 25.2.0, SVG Export Plug-In . SVG Version: 6.00 Build 0)  -->
<svg version="1.1" id="_图层_1" xmlns="http://www.w3.org/2000/svg" xmlns:xlink="http://www.w3.org/1999/xlink" x="0px" y="0px"
	 viewBox="0 0 400 400" style="enable-background:new 0 0 400 400;" xml:space="preserve">
<style type="text/css">
	.st0{fill:#32CD32;}
	.st1{fill:#09FEFE;}
	.st2{fill:none;stroke:#000000;stroke-width:1.33;stroke-linejoin:round;}
	.st3{fill:#C2C2FF;}
	.st4{fill:#008080;}
	.st5{fill:#FFC0CB;}
	.st6{font-family:'ArialMT';}
	.st7{font-size:24px;}
	.st8{font-size:13.44px;}
</style>
<path class="st0" d="M38.8,281.8v-1.1h3.9v3.6c-0.6,0.5-1.2,0.9-1.8,1.1c-0.6,0.3-1.3,0.4-1.9,0.4c-0.9,0-1.7-0.2-2.5-0.6
	s-1.3-1-1.7-1.8c-0.4-0.8-0.6-1.6-0.6-2.6c0-1,0.2-1.8,0.6-2.6c0.4-0.8,0.9-1.4,1.6-1.8c0.7-0.4,1.5-0.6,2.4-0.6
	c0.7,0,1.3,0.1,1.8,0.3c0.5,0.2,1,0.5,1.3,0.9c0.3,0.4,0.5,0.9,0.7,1.6l-1.1,0.3c-0.1-0.5-0.3-0.9-0.5-1.2c-0.2-0.3-0.5-0.5-0.9-0.7
	c-0.4-0.2-0.8-0.3-1.3-0.3c-0.6,0-1,0.1-1.4,0.3c-0.4,0.2-0.7,0.4-1,0.7c-0.3,0.3-0.4,0.6-0.6,1c-0.2,0.6-0.4,1.3-0.4,2
	c0,0.9,0.1,1.6,0.4,2.2c0.3,0.6,0.7,1,1.2,1.3s1.1,0.4,1.7,0.4c0.5,0,1-0.1,1.5-0.3c0.5-0.2,0.9-0.4,1.1-0.7v-1.8L38.8,281.8
	L38.8,281.8L38.8,281.8z"/>
<path class="st0" d="M48.5,281.8v-1.1h3.9v3.6c-0.6,0.5-1.2,0.9-1.8,1.1c-0.6,0.3-1.3,0.4-1.9,0.4c-0.9,0-1.7-0.2-2.5-0.6
	c-0.7-0.4-1.3-1-1.7-1.8c-0.4-0.8-0.6-1.6-0.6-2.6c0-1,0.2-1.8,0.6-2.6c0.4-0.8,0.9-1.4,1.6-1.8c0.7-0.4,1.5-0.6,2.4-0.6
	c0.7,0,1.3,0.1,1.8,0.3c0.5,0.2,1,0.5,1.3,0.9c0.3,0.4,0.5,0.9,0.7,1.6l-1.1,0.3c-0.1-0.5-0.3-0.9-0.5-1.2c-0.2-0.3-0.5-0.5-0.9-0.7
	s-0.8-0.3-1.3-0.3c-0.6,0-1,0.1-1.4,0.3c-0.4,0.2-0.7,0.4-1,0.7c-0.3,0.3-0.4,0.6-0.6,1c-0.2,0.6-0.4,1.3-0.4,2
	c0,0.9,0.1,1.6,0.4,2.2c0.3,0.6,0.7,1,1.2,1.3c0.5,0.3,1.1,0.4,1.7,0.4c0.5,0,1-0.1,1.5-0.3c0.5-0.2,0.9-0.4,1.1-0.7v-1.8
	L48.5,281.8L48.5,281.8L48.5,281.8z"/>
<path class="st0" d="M53.6,285.6l3.5-9.7h1.3l3.8,9.7h-1.4l-1.1-2.9h-3.8l-1,2.9H53.6L53.6,285.6z M56.3,281.6h3.1l-1-2.7
	c-0.3-0.8-0.5-1.5-0.6-2c-0.1,0.6-0.3,1.2-0.5,1.9L56.3,281.6L56.3,281.6L56.3,281.6z"/>
<path class="st0" d="M67.8,281.8v-1.1h3.9v3.6c-0.6,0.5-1.2,0.9-1.8,1.1c-0.6,0.3-1.3,0.4-1.9,0.4c-0.9,0-1.7-0.2-2.5-0.6
	s-1.3-1-1.7-1.8c-0.4-0.8-0.6-1.6-0.6-2.6c0-1,0.2-1.8,0.6-2.6c0.4-0.8,0.9-1.4,1.6-1.8c0.7-0.4,1.5-0.6,2.4-0.6
	c0.7,0,1.3,0.1,1.8,0.3c0.5,0.2,1,0.5,1.3,0.9c0.3,0.4,0.5,0.9,0.7,1.6l-1.1,0.3c-0.1-0.5-0.3-0.9-0.5-1.2c-0.2-0.3-0.5-0.5-0.9-0.7
	s-0.8-0.3-1.3-0.3c-0.6,0-1,0.1-1.4,0.3c-0.4,0.2-0.7,0.4-1,0.7c-0.3,0.3-0.4,0.6-0.6,1c-0.2,0.6-0.4,1.3-0.4,2
	c0,0.9,0.1,1.6,0.4,2.2c0.3,0.6,0.7,1,1.2,1.3c0.5,0.3,1.1,0.4,1.7,0.4c0.5,0,1-0.1,1.5-0.3c0.5-0.2,0.9-0.4,1.1-0.7v-1.8
	L67.8,281.8L67.8,281.8L67.8,281.8z"/>
<path class="st0" d="M80.1,282.2l1.2,0.3c-0.3,1.1-0.7,1.9-1.4,2.4c-0.7,0.6-1.5,0.8-2.4,0.8c-1,0-1.8-0.2-2.4-0.6
	c-0.6-0.4-1.1-1-1.4-1.9c-0.3-0.8-0.5-1.7-0.5-2.6c0-1,0.2-1.9,0.5-2.6c0.4-0.8,0.9-1.3,1.6-1.7c0.7-0.4,1.4-0.6,2.2-0.6
	c0.9,0,1.7,0.2,2.3,0.7c0.6,0.5,1.1,1.2,1.3,2.1l-1.2,0.3c-0.2-0.7-0.5-1.2-0.9-1.5c-0.4-0.3-0.9-0.5-1.5-0.5
	c-0.7,0-1.3,0.2-1.8,0.5s-0.8,0.8-1,1.4c-0.2,0.6-0.3,1.2-0.3,1.9c0,0.8,0.1,1.6,0.3,2.2c0.2,0.6,0.6,1.1,1.1,1.4
	c0.5,0.3,1,0.5,1.6,0.5c0.7,0,1.3-0.2,1.7-0.6C79.6,283.6,79.9,283,80.1,282.2L80.1,282.2L80.1,282.2z"/>
<path class="st0" d="M89.2,275.9h1.2v5.6c0,1-0.1,1.8-0.3,2.3c-0.2,0.6-0.6,1-1.1,1.4c-0.5,0.4-1.3,0.5-2.1,0.5s-1.6-0.2-2.1-0.5
	s-0.9-0.8-1.2-1.4c-0.2-0.6-0.3-1.4-0.3-2.4v-5.6h1.2v5.6c0,0.8,0.1,1.5,0.2,1.9c0.1,0.4,0.4,0.7,0.8,0.9c0.4,0.2,0.8,0.3,1.3,0.3
	c0.9,0,1.5-0.2,1.9-0.6s0.6-1.3,0.6-2.5L89.2,275.9L89.2,275.9L89.2,275.9z"/>
<path class="st0" d="M99.4,282.2l1.2,0.3c-0.3,1.1-0.7,1.9-1.4,2.4c-0.7,0.6-1.5,0.8-2.4,0.8c-1,0-1.8-0.2-2.4-0.6
	c-0.6-0.4-1.1-1-1.4-1.9c-0.3-0.8-0.5-1.7-0.5-2.6c0-1,0.2-1.9,0.5-2.6c0.4-0.8,0.9-1.3,1.6-1.7c0.7-0.4,1.4-0.6,2.2-0.6
	c0.9,0,1.7,0.2,2.3,0.7c0.6,0.5,1.1,1.2,1.3,2.1l-1.2,0.3c-0.2-0.7-0.5-1.2-0.9-1.5c-0.4-0.3-0.9-0.5-1.5-0.5
	c-0.7,0-1.3,0.2-1.8,0.5s-0.8,0.8-1,1.4c-0.2,0.6-0.3,1.2-0.3,1.9c0,0.8,0.1,1.6,0.3,2.2c0.2,0.6,0.6,1.1,1.1,1.4
	c0.5,0.3,1,0.5,1.6,0.5c0.7,0,1.3-0.2,1.7-0.6C98.9,283.6,99.2,283,99.4,282.2L99.4,282.2L99.4,282.2z"/>
<path class="st1" d="M106.4,281.8v-1.1h3.9v3.6c-0.6,0.5-1.2,0.9-1.8,1.1c-0.6,0.3-1.3,0.4-1.9,0.4c-0.9,0-1.7-0.2-2.5-0.6
	s-1.3-1-1.7-1.8c-0.4-0.8-0.6-1.6-0.6-2.6c0-1,0.2-1.8,0.6-2.6c0.4-0.8,0.9-1.4,1.6-1.8c0.7-0.4,1.5-0.6,2.4-0.6
	c0.7,0,1.3,0.1,1.8,0.3c0.5,0.2,1,0.5,1.3,0.9c0.3,0.4,0.5,0.9,0.7,1.6l-1.1,0.3c-0.1-0.5-0.3-0.9-0.5-1.2c-0.2-0.3-0.5-0.5-0.9-0.7
	s-0.8-0.3-1.3-0.3c-0.6,0-1,0.1-1.4,0.3c-0.4,0.2-0.7,0.4-1,0.7c-0.3,0.3-0.4,0.6-0.6,1c-0.2,0.6-0.4,1.3-0.4,2
	c0,0.9,0.1,1.6,0.4,2.2c0.3,0.6,0.7,1,1.2,1.3c0.5,0.3,1.1,0.4,1.7,0.4c0.5,0,1-0.1,1.5-0.3c0.5-0.2,0.9-0.4,1.1-0.7v-1.8
	L106.4,281.8L106.4,281.8L106.4,281.8z"/>
<path class="st1" d="M106.4,271.6v-1.1h3.9v3.6c-0.6,0.5-1.2,0.9-1.8,1.1c-0.6,0.3-1.3,0.4-1.9,0.4c-0.9,0-1.7-0.2-2.5-0.6
	c-0.7-0.4-1.3-1-1.7-1.8c-0.4-0.8-0.6-1.6-0.6-2.6c0-1,0.2-1.8,0.6-2.6c0.4-0.8,0.9-1.4,1.6-1.8c0.7-0.4,1.5-0.6,2.4-0.6
	c0.7,0,1.3,0.1,1.8,0.3s1,0.5,1.3,0.9c0.3,0.4,0.5,0.9,0.7,1.6l-1.1,0.3c-0.1-0.5-0.3-0.9-0.5-1.2c-0.2-0.3-0.5-0.5-0.9-0.7
	c-0.4-0.2-0.8-0.3-1.3-0.3c-0.6,0-1,0.1-1.4,0.3c-0.4,0.2-0.7,0.4-1,0.7c-0.3,0.3-0.4,0.6-0.6,1c-0.2,0.6-0.4,1.3-0.4,2
	c0,0.9,0.1,1.6,0.4,2.2c0.3,0.6,0.7,1,1.2,1.3c0.5,0.3,1.1,0.4,1.7,0.4c0.5,0,1-0.1,1.5-0.3c0.5-0.2,0.9-0.4,1.1-0.7v-1.8
	L106.4,271.6L106.4,271.6L106.4,271.6z"/>
<path class="st1" d="M108.5,255.5h1.2v5.6c0,1-0.1,1.8-0.3,2.3c-0.2,0.6-0.6,1-1.1,1.4c-0.5,0.4-1.3,0.5-2.1,0.5
	c-0.9,0-1.6-0.2-2.1-0.5c-0.5-0.3-0.9-0.8-1.2-1.4c-0.2-0.6-0.3-1.4-0.3-2.4v-5.6h1.2v5.6c0,0.8,0.1,1.5,0.2,1.9
	c0.1,0.4,0.4,0.7,0.8,0.9c0.4,0.2,0.8,0.3,1.3,0.3c0.9,0,1.5-0.2,1.9-0.6s0.6-1.3,0.6-2.5L108.5,255.5L108.5,255.5L108.5,255.5z"/>
<line class="st2" x1="99.8" y1="259.8" x2="93.3" y2="259.8"/>
<path d="M83.7,265.2h-1.1v-7.6c-0.3,0.3-0.6,0.5-1.1,0.8c-0.4,0.3-0.8,0.5-1.2,0.6v-1.2c0.6-0.3,1.2-0.7,1.7-1.1
	c0.5-0.4,0.8-0.9,1-1.3h0.7V265.2L83.7,265.2L83.7,265.2z M86.6,260.4c0-1.1,0.1-2.1,0.3-2.8c0.2-0.7,0.6-1.2,1-1.6
	c0.4-0.4,1-0.6,1.7-0.6c0.5,0,0.9,0.1,1.3,0.3c0.4,0.2,0.7,0.5,0.9,0.9c0.2,0.4,0.4,0.9,0.6,1.4c0.1,0.6,0.2,1.3,0.2,2.3
	c0,1.1-0.1,2.1-0.3,2.8s-0.5,1.2-1,1.6c-0.4,0.4-1,0.6-1.7,0.6c-0.9,0-1.6-0.3-2.1-1C86.9,263.5,86.6,262.2,86.6,260.4L86.6,260.4
	L86.6,260.4z M87.8,260.4c0,1.6,0.2,2.7,0.5,3.2c0.4,0.5,0.8,0.8,1.3,0.8c0.5,0,1-0.3,1.3-0.8c0.4-0.5,0.5-1.6,0.5-3.2
	c0-1.6-0.2-2.7-0.5-3.2c-0.4-0.5-0.8-0.8-1.3-0.8c-0.5,0-0.9,0.2-1.2,0.7C88,257.7,87.8,258.8,87.8,260.4L87.8,260.4L87.8,260.4z"/>
<path class="st1" d="M101.9,255l3.5-9.7h1.3l3.8,9.7h-1.4L108,252h-3.8l-1,2.9H101.9L101.9,255z M104.5,251h3.1l-1-2.7
	c-0.3-0.8-0.5-1.5-0.6-2c-0.1,0.6-0.3,1.2-0.5,1.9L104.5,251L104.5,251L104.5,251z"/>
<path class="st1" d="M106.4,240.9v-1.1h3.9v3.6c-0.6,0.5-1.2,0.9-1.8,1.1c-0.6,0.3-1.3,0.4-1.9,0.4c-0.9,0-1.7-0.2-2.5-0.6
	c-0.7-0.4-1.3-1-1.7-1.8c-0.4-0.8-0.6-1.6-0.6-2.6c0-1,0.2-1.8,0.6-2.6s0.9-1.4,1.6-1.8c0.7-0.4,1.5-0.6,2.4-0.6
	c0.7,0,1.3,0.1,1.8,0.3c0.5,0.2,1,0.5,1.3,0.9c0.3,0.4,0.5,0.9,0.7,1.6l-1.1,0.3c-0.1-0.5-0.3-0.9-0.5-1.2c-0.2-0.3-0.5-0.5-0.9-0.7
	s-0.8-0.3-1.3-0.3c-0.6,0-1,0.1-1.4,0.3s-0.7,0.4-1,0.7c-0.3,0.3-0.4,0.6-0.6,1c-0.2,0.6-0.4,1.3-0.4,2c0,0.9,0.1,1.6,0.4,2.2
	c0.3,0.6,0.7,1,1.2,1.3c0.5,0.3,1.1,0.4,1.7,0.4c0.5,0,1-0.1,1.5-0.3c0.5-0.2,0.9-0.4,1.1-0.7v-1.8L106.4,240.9L106.4,240.9
	L106.4,240.9z"/>
<path class="st1" d="M108.5,224.8h1.2v5.6c0,1-0.1,1.8-0.3,2.3c-0.2,0.6-0.6,1-1.1,1.4c-0.5,0.4-1.3,0.5-2.1,0.5
	c-0.9,0-1.6-0.2-2.1-0.5s-0.9-0.8-1.2-1.4c-0.2-0.6-0.3-1.4-0.3-2.4v-5.6h1.2v5.6c0,0.8,0.1,1.5,0.2,1.9c0.1,0.4,0.4,0.7,0.8,0.9
	s0.8,0.3,1.3,0.3c0.9,0,1.5-0.2,1.9-0.6c0.4-0.4,0.6-1.3,0.6-2.5L108.5,224.8L108.5,224.8L108.5,224.8z"/>
<path class="st1" d="M121.2,234.5l3.5-9.7h1.3l3.8,9.7h-1.4l-1.1-2.9h-3.8l-1,2.9H121.2L121.2,234.5z M123.8,230.5h3.1l-1-2.7
	c-0.3-0.8-0.5-1.5-0.6-2c-0.1,0.6-0.3,1.2-0.5,1.9L123.8,230.5L123.8,230.5L123.8,230.5z"/>
<path class="st1" d="M128.3,241.3l1.2,0.3c-0.3,1.1-0.7,1.9-1.4,2.4c-0.7,0.6-1.5,0.8-2.4,0.8s-1.8-0.2-2.4-0.6
	c-0.6-0.4-1.1-1-1.4-1.9s-0.5-1.7-0.5-2.6c0-1,0.2-1.9,0.5-2.6c0.4-0.8,0.9-1.3,1.6-1.7c0.7-0.4,1.4-0.6,2.2-0.6
	c0.9,0,1.7,0.2,2.3,0.7c0.6,0.5,1.1,1.2,1.3,2.1l-1.2,0.3c-0.2-0.7-0.5-1.2-0.9-1.5c-0.4-0.3-0.9-0.5-1.5-0.5
	c-0.7,0-1.3,0.2-1.8,0.5c-0.5,0.4-0.8,0.8-1,1.4c-0.2,0.6-0.3,1.2-0.3,1.9c0,0.8,0.1,1.6,0.3,2.2c0.2,0.6,0.6,1.1,1.1,1.4
	c0.5,0.3,1,0.5,1.6,0.5c0.7,0,1.3-0.2,1.7-0.6C127.8,242.8,128.2,242.2,128.3,241.3L128.3,241.3L128.3,241.3z"/>
<path class="st1" d="M127.8,245.3h1.2v5.6c0,1-0.1,1.8-0.3,2.3c-0.2,0.6-0.6,1-1.1,1.4c-0.5,0.4-1.3,0.5-2.1,0.5s-1.6-0.2-2.1-0.5
	c-0.5-0.3-0.9-0.8-1.2-1.4c-0.2-0.6-0.3-1.4-0.3-2.4v-5.6h1.2v5.6c0,0.8,0.1,1.5,0.2,1.9c0.1,0.4,0.4,0.7,0.8,0.9s0.8,0.3,1.3,0.3
	c0.9,0,1.5-0.2,1.9-0.6c0.4-0.4,0.6-1.3,0.6-2.5L127.8,245.3L127.8,245.3L127.8,245.3z"/>
<path class="st1" d="M121.2,265.2l3.5-9.7h1.3l3.8,9.7h-1.4l-1.1-2.9h-3.8l-1,2.9H121.2L121.2,265.2z M123.8,261.2h3.1l-1-2.7
	c-0.3-0.8-0.5-1.5-0.6-2c-0.1,0.6-0.3,1.2-0.5,1.9L123.8,261.2L123.8,261.2L123.8,261.2z"/>
<line class="st2" x1="131.9" y1="259.8" x2="138.4" y2="259.8"/>
<path d="M139.1,262.9l1.1-0.1c0.1,0.5,0.3,0.9,0.5,1.2c0.3,0.2,0.6,0.4,1,0.4c0.3,0,0.6-0.1,0.9-0.3c0.3-0.2,0.5-0.4,0.6-0.7
	c0.2-0.3,0.3-0.7,0.4-1.1c0.1-0.5,0.2-1,0.2-1.5v-0.2c-0.2,0.4-0.5,0.7-0.9,0.9s-0.8,0.4-1.3,0.4c-0.8,0-1.4-0.3-1.9-0.9
	c-0.5-0.6-0.8-1.4-0.8-2.3c0-1,0.3-1.8,0.8-2.4c0.5-0.6,1.2-0.9,2.1-0.9c0.6,0,1.1,0.2,1.6,0.5c0.5,0.3,0.9,0.8,1.1,1.5
	c0.3,0.6,0.4,1.5,0.4,2.7s-0.1,2.2-0.4,3s-0.6,1.3-1.1,1.7c-0.5,0.4-1.1,0.6-1.8,0.6c-0.7,0-1.3-0.2-1.8-0.6
	C139.4,264.3,139.2,263.7,139.1,262.9L139.1,262.9L139.1,262.9z M143.7,258.6c0-0.7-0.2-1.2-0.5-1.6c-0.3-0.4-0.8-0.6-1.2-0.6
	s-0.9,0.2-1.3,0.6c-0.4,0.4-0.6,1-0.6,1.7c0,0.6,0.2,1.1,0.5,1.5s0.8,0.6,1.3,0.6c0.5,0,1-0.2,1.3-0.6S143.7,259.3,143.7,258.6
	L143.7,258.6L143.7,258.6z M146,260.4c0-1.1,0.1-2.1,0.3-2.8s0.6-1.2,1-1.6c0.4-0.4,1-0.6,1.7-0.6c0.5,0,0.9,0.1,1.3,0.3
	c0.4,0.2,0.7,0.5,0.9,0.9c0.2,0.4,0.4,0.9,0.6,1.4c0.1,0.6,0.2,1.3,0.2,2.3c0,1.1-0.1,2.1-0.3,2.8c-0.2,0.7-0.5,1.2-1,1.6
	c-0.4,0.4-1,0.6-1.7,0.6c-0.9,0-1.6-0.3-2.1-1C146.3,263.5,146,262.2,146,260.4L146,260.4L146,260.4z M147.2,260.4
	c0,1.6,0.2,2.7,0.5,3.2c0.4,0.5,0.8,0.8,1.3,0.8c0.5,0,1-0.3,1.3-0.8c0.4-0.5,0.5-1.6,0.5-3.2c0-1.6-0.2-2.7-0.5-3.2
	c-0.4-0.5-0.8-0.8-1.3-0.8s-0.9,0.2-1.2,0.7C147.4,257.7,147.2,258.8,147.2,260.4L147.2,260.4L147.2,260.4z"/>
<path class="st1" d="M128.3,272l1.2,0.3c-0.3,1.1-0.7,1.9-1.4,2.4s-1.5,0.8-2.4,0.8s-1.8-0.2-2.4-0.6c-0.6-0.4-1.1-1-1.4-1.9
	c-0.3-0.8-0.5-1.7-0.5-2.6c0-1,0.2-1.9,0.5-2.6s0.9-1.3,1.6-1.7c0.7-0.4,1.4-0.6,2.2-0.6c0.9,0,1.7,0.2,2.3,0.7
	c0.6,0.5,1.1,1.2,1.3,2.1l-1.2,0.3c-0.2-0.7-0.5-1.2-0.9-1.5c-0.4-0.3-0.9-0.5-1.5-0.5c-0.7,0-1.3,0.2-1.8,0.5
	c-0.5,0.4-0.8,0.8-1,1.4c-0.2,0.6-0.3,1.2-0.3,1.9c0,0.8,0.1,1.6,0.3,2.2c0.2,0.6,0.6,1.1,1.1,1.4c0.5,0.3,1,0.5,1.6,0.5
	c0.7,0,1.3-0.2,1.7-0.6C127.8,273.4,128.2,272.8,128.3,272L128.3,272L128.3,272z"/>
<path class="st1" d="M128.3,282.2l1.2,0.3c-0.3,1.1-0.7,1.9-1.4,2.4c-0.7,0.6-1.5,0.8-2.4,0.8s-1.8-0.2-2.4-0.6
	c-0.6-0.4-1.1-1-1.4-1.9c-0.3-0.8-0.5-1.7-0.5-2.6c0-1,0.2-1.9,0.5-2.6c0.4-0.8,0.9-1.3,1.6-1.7c0.7-0.4,1.4-0.6,2.2-0.6
	c0.9,0,1.7,0.2,2.3,0.7c0.6,0.5,1.1,1.2,1.3,2.1l-1.2,0.3c-0.2-0.7-0.5-1.2-0.9-1.5c-0.4-0.3-0.9-0.5-1.5-0.5
	c-0.7,0-1.3,0.2-1.8,0.5c-0.5,0.4-0.8,0.8-1,1.4c-0.2,0.6-0.3,1.2-0.3,1.9c0,0.8,0.1,1.6,0.3,2.2c0.2,0.6,0.6,1.1,1.1,1.4
	c0.5,0.3,1,0.5,1.6,0.5c0.7,0,1.3-0.2,1.7-0.6C127.8,283.6,128.2,283,128.3,282.2L128.3,282.2L128.3,282.2z"/>
<path class="st0" d="M137.4,275.9h1.2v5.6c0,1-0.1,1.8-0.3,2.3c-0.2,0.6-0.6,1-1.1,1.4c-0.5,0.4-1.3,0.5-2.1,0.5s-1.6-0.2-2.1-0.5
	s-0.9-0.8-1.2-1.4c-0.2-0.6-0.3-1.4-0.3-2.4v-5.6h1.2v5.6c0,0.8,0.1,1.5,0.2,1.9c0.1,0.4,0.4,0.7,0.8,0.9c0.4,0.2,0.8,0.3,1.3,0.3
	c0.9,0,1.5-0.2,1.9-0.6c0.4-0.4,0.6-1.3,0.6-2.5L137.4,275.9L137.4,275.9L137.4,275.9z"/>
<path class="st0" d="M147.6,282.2l1.2,0.3c-0.3,1.1-0.7,1.9-1.4,2.4c-0.7,0.6-1.5,0.8-2.4,0.8s-1.8-0.2-2.4-0.6
	c-0.6-0.4-1.1-1-1.4-1.9c-0.3-0.8-0.5-1.7-0.5-2.6c0-1,0.2-1.9,0.5-2.6c0.4-0.8,0.9-1.3,1.6-1.7c0.7-0.4,1.4-0.6,2.2-0.6
	c0.9,0,1.7,0.2,2.3,0.7c0.6,0.5,1.1,1.2,1.3,2.1l-1.2,0.3c-0.2-0.7-0.5-1.2-0.9-1.5c-0.4-0.3-0.9-0.5-1.5-0.5
	c-0.7,0-1.3,0.2-1.8,0.5c-0.5,0.4-0.8,0.8-1,1.4c-0.2,0.6-0.3,1.2-0.3,1.9c0,0.8,0.1,1.6,0.3,2.2c0.2,0.6,0.6,1.1,1.1,1.4
	c0.5,0.3,1,0.5,1.6,0.5c0.7,0,1.3-0.2,1.7-0.6C147.1,283.6,147.5,283,147.6,282.2L147.6,282.2L147.6,282.2z"/>
<path class="st0" d="M154.6,281.8v-1.1h3.9v3.6c-0.6,0.5-1.2,0.9-1.8,1.1c-0.6,0.3-1.3,0.4-1.9,0.4c-0.9,0-1.7-0.2-2.5-0.6
	c-0.7-0.4-1.3-1-1.7-1.8c-0.4-0.8-0.6-1.6-0.6-2.6c0-1,0.2-1.8,0.6-2.6c0.4-0.8,0.9-1.4,1.6-1.8c0.7-0.4,1.5-0.6,2.4-0.6
	c0.7,0,1.3,0.1,1.8,0.3c0.5,0.2,1,0.5,1.3,0.9c0.3,0.4,0.5,0.9,0.7,1.6l-1.1,0.3c-0.1-0.5-0.3-0.9-0.5-1.2c-0.2-0.3-0.5-0.5-0.9-0.7
	c-0.4-0.2-0.8-0.3-1.3-0.3c-0.6,0-1,0.1-1.4,0.3c-0.4,0.2-0.7,0.4-1,0.7c-0.3,0.3-0.4,0.6-0.6,1c-0.2,0.6-0.4,1.3-0.4,2
	c0,0.9,0.1,1.6,0.4,2.2c0.3,0.6,0.7,1,1.2,1.3c0.5,0.3,1.1,0.4,1.7,0.4c0.5,0,1-0.1,1.5-0.3s0.9-0.4,1.1-0.7v-1.8L154.6,281.8
	L154.6,281.8L154.6,281.8z"/>
<path class="st0" d="M159.8,285.6l3.5-9.7h1.3l3.8,9.7H167l-1.1-2.9h-3.8l-1,2.9H159.8L159.8,285.6z M162.4,281.6h3.1l-1-2.7
	c-0.3-0.8-0.5-1.5-0.6-2c-0.1,0.6-0.3,1.2-0.5,1.9L162.4,281.6L162.4,281.6L162.4,281.6z"/>
<path class="st0" d="M173.9,281.8v-1.1h3.9v3.6c-0.6,0.5-1.2,0.9-1.8,1.1c-0.6,0.3-1.3,0.4-1.9,0.4c-0.9,0-1.7-0.2-2.5-0.6
	c-0.7-0.4-1.3-1-1.7-1.8c-0.4-0.8-0.6-1.6-0.6-2.6c0-1,0.2-1.8,0.6-2.6c0.4-0.8,0.9-1.4,1.6-1.8c0.7-0.4,1.5-0.6,2.4-0.6
	c0.7,0,1.3,0.1,1.8,0.3c0.5,0.2,1,0.5,1.3,0.9c0.3,0.4,0.5,0.9,0.7,1.6l-1.1,0.3c-0.1-0.5-0.3-0.9-0.5-1.2c-0.2-0.3-0.5-0.5-0.9-0.7
	c-0.4-0.2-0.8-0.3-1.3-0.3c-0.6,0-1,0.1-1.4,0.3c-0.4,0.2-0.7,0.4-1,0.7c-0.3,0.3-0.4,0.6-0.6,1c-0.2,0.6-0.4,1.3-0.4,2
	c0,0.9,0.1,1.6,0.4,2.2c0.3,0.6,0.7,1,1.2,1.3c0.5,0.3,1.1,0.4,1.7,0.4c0.5,0,1-0.1,1.5-0.3c0.5-0.2,0.9-0.4,1.1-0.7v-1.8
	L173.9,281.8L173.9,281.8L173.9,281.8z"/>
<path class="st0" d="M179.1,285.6l3.5-9.7h1.3l3.8,9.7h-1.4l-1.1-2.9h-3.8l-1,2.9H179.1L179.1,285.6z M181.7,281.6h3.1l-1-2.7
	c-0.3-0.8-0.5-1.5-0.6-2c-0.1,0.6-0.3,1.2-0.5,1.9L181.7,281.6L181.7,281.6L181.7,281.6z"/>
<path class="st0" d="M195.9,282.2l1.2,0.3c-0.3,1.1-0.7,1.9-1.4,2.4c-0.7,0.6-1.5,0.8-2.4,0.8s-1.8-0.2-2.4-0.6
	c-0.6-0.4-1.1-1-1.4-1.9c-0.3-0.8-0.5-1.7-0.5-2.6c0-1,0.2-1.9,0.5-2.6c0.4-0.8,0.9-1.3,1.6-1.7c0.7-0.4,1.4-0.6,2.2-0.6
	c0.9,0,1.7,0.2,2.3,0.7c0.6,0.5,1.1,1.2,1.3,2.1l-1.2,0.3c-0.2-0.7-0.5-1.2-0.9-1.5c-0.4-0.3-0.9-0.5-1.5-0.5
	c-0.7,0-1.3,0.2-1.8,0.5c-0.5,0.4-0.8,0.8-1,1.4c-0.2,0.6-0.3,1.2-0.3,1.9c0,0.8,0.1,1.6,0.3,2.2c0.2,0.6,0.6,1.1,1.1,1.4
	c0.5,0.3,1,0.5,1.6,0.5c0.7,0,1.3-0.2,1.7-0.6C195.4,283.6,195.7,283,195.9,282.2L195.9,282.2L195.9,282.2z"/>
<path class="st0" d="M202.9,281.8v-1.1h3.9v3.6c-0.6,0.5-1.2,0.9-1.8,1.1c-0.6,0.3-1.3,0.4-1.9,0.4c-0.9,0-1.7-0.2-2.5-0.6
	c-0.7-0.4-1.3-1-1.7-1.8c-0.4-0.8-0.6-1.6-0.6-2.6c0-1,0.2-1.8,0.6-2.6c0.4-0.8,0.9-1.4,1.6-1.8c0.7-0.4,1.5-0.6,2.4-0.6
	c0.7,0,1.3,0.1,1.8,0.3c0.5,0.2,1,0.5,1.3,0.9c0.3,0.4,0.5,0.9,0.7,1.6l-1.1,0.3c-0.1-0.5-0.3-0.9-0.5-1.2c-0.2-0.3-0.5-0.5-0.9-0.7
	c-0.4-0.2-0.8-0.3-1.3-0.3c-0.6,0-1,0.1-1.4,0.3c-0.4,0.2-0.7,0.4-1,0.7c-0.3,0.3-0.4,0.6-0.6,1c-0.2,0.6-0.4,1.3-0.4,2
	c0,0.9,0.1,1.6,0.4,2.2c0.3,0.6,0.7,1,1.2,1.3c0.5,0.3,1.1,0.4,1.7,0.4c0.5,0,1-0.1,1.5-0.3c0.5-0.2,0.9-0.4,1.1-0.7v-1.8
	L202.9,281.8L202.9,281.8L202.9,281.8z"/>
<line class="st2" x1="202.7" y1="287" x2="202.7" y2="293.8"/>
<path d="M196.6,307.7h-1.1v-7.6c-0.3,0.3-0.6,0.5-1.1,0.8c-0.4,0.3-0.8,0.5-1.2,0.6v-1.2c0.6-0.3,1.2-0.7,1.7-1.1
	c0.5-0.4,0.8-0.9,1-1.3h0.7V307.7L196.6,307.7L196.6,307.7z M199.5,302.9c0-1.1,0.1-2.1,0.3-2.8c0.2-0.7,0.6-1.2,1-1.6
	c0.4-0.4,1-0.6,1.7-0.6c0.5,0,0.9,0.1,1.3,0.3s0.7,0.5,0.9,0.9c0.2,0.4,0.4,0.9,0.6,1.4c0.1,0.6,0.2,1.3,0.2,2.3
	c0,1.1-0.1,2.1-0.3,2.8c-0.2,0.7-0.5,1.2-1,1.6c-0.4,0.4-1,0.6-1.7,0.6c-0.9,0-1.6-0.3-2.1-1C199.8,306,199.5,304.7,199.5,302.9
	L199.5,302.9L199.5,302.9z M200.7,302.9c0,1.6,0.2,2.7,0.5,3.2c0.4,0.5,0.8,0.8,1.3,0.8c0.5,0,1-0.3,1.3-0.8
	c0.4-0.5,0.5-1.6,0.5-3.2s-0.2-2.7-0.5-3.2c-0.4-0.5-0.8-0.8-1.3-0.8s-0.9,0.2-1.2,0.7C200.9,300.2,200.7,301.3,200.7,302.9
	L200.7,302.9L200.7,302.9z M206.7,302.9c0-1.1,0.1-2.1,0.3-2.8c0.2-0.7,0.6-1.2,1-1.6c0.4-0.4,1-0.6,1.7-0.6c0.5,0,0.9,0.1,1.3,0.3
	s0.7,0.5,0.9,0.9c0.2,0.4,0.4,0.9,0.6,1.4c0.1,0.6,0.2,1.3,0.2,2.3c0,1.1-0.1,2.1-0.3,2.8c-0.2,0.7-0.5,1.2-1,1.6
	c-0.4,0.4-1,0.6-1.7,0.6c-0.9,0-1.6-0.3-2.1-1C207,306,206.7,304.7,206.7,302.9L206.7,302.9L206.7,302.9z M207.8,302.9
	c0,1.6,0.2,2.7,0.5,3.2c0.4,0.5,0.8,0.8,1.3,0.8c0.5,0,1-0.3,1.3-0.8c0.4-0.5,0.5-1.6,0.5-3.2s-0.2-2.7-0.5-3.2
	c-0.4-0.5-0.8-0.8-1.3-0.8s-0.9,0.2-1.2,0.7C208,300.2,207.8,301.3,207.8,302.9L207.8,302.9L207.8,302.9z"/>
<path class="st0" d="M215.8,276.5h1.2v5.6c0,1-0.1,1.8-0.3,2.3s-0.6,1-1.1,1.4s-1.3,0.5-2.1,0.5c-0.9,0-1.6-0.2-2.1-0.5
	c-0.5-0.3-0.9-0.8-1.2-1.4c-0.2-0.6-0.3-1.4-0.3-2.4v-5.6h1.2v5.6c0,0.8,0.1,1.5,0.2,1.9c0.1,0.4,0.4,0.7,0.8,0.9
	c0.4,0.2,0.8,0.3,1.3,0.3c0.9,0,1.5-0.2,1.9-0.6c0.4-0.4,0.6-1.3,0.6-2.5L215.8,276.5L215.8,276.5L215.8,276.5z"/>
<path class="st1" d="M106.4,220.5v-1.1h3.9v3.6c-0.6,0.5-1.2,0.9-1.8,1.1c-0.6,0.3-1.3,0.4-1.9,0.4c-0.9,0-1.7-0.2-2.5-0.6
	c-0.7-0.4-1.3-1-1.7-1.8c-0.4-0.8-0.6-1.6-0.6-2.6s0.2-1.8,0.6-2.6s0.9-1.4,1.6-1.8c0.7-0.4,1.5-0.6,2.4-0.6c0.7,0,1.3,0.1,1.8,0.3
	c0.5,0.2,1,0.5,1.3,0.9s0.5,0.9,0.7,1.6l-1.1,0.3c-0.1-0.5-0.3-0.9-0.5-1.2c-0.2-0.3-0.5-0.5-0.9-0.7s-0.8-0.3-1.3-0.3
	c-0.6,0-1,0.1-1.4,0.3c-0.4,0.2-0.7,0.4-1,0.7c-0.3,0.3-0.4,0.6-0.6,1c-0.2,0.6-0.4,1.3-0.4,2c0,0.9,0.1,1.6,0.4,2.2
	c0.3,0.6,0.7,1,1.2,1.3c0.5,0.3,1.1,0.4,1.7,0.4c0.5,0,1-0.1,1.5-0.3c0.5-0.2,0.9-0.4,1.1-0.7v-1.8L106.4,220.5L106.4,220.5
	L106.4,220.5z"/>
<path class="st1" d="M101.9,214.1l3.5-9.7h1.3l3.8,9.7h-1.4l-1.1-2.9h-3.8l-1,2.9H101.9L101.9,214.1z M104.5,210.1h3.1l-1-2.7
	c-0.3-0.8-0.5-1.5-0.6-2c-0.1,0.6-0.3,1.2-0.5,1.9L104.5,210.1L104.5,210.1L104.5,210.1z"/>
<path class="st1" d="M109,200.5l1.2,0.3c-0.3,1.1-0.7,1.9-1.4,2.4c-0.7,0.6-1.5,0.8-2.4,0.8c-1,0-1.8-0.2-2.4-0.6
	c-0.6-0.4-1.1-1-1.4-1.9c-0.3-0.8-0.5-1.7-0.5-2.6c0-1,0.2-1.9,0.5-2.6c0.4-0.8,0.9-1.3,1.6-1.7c0.7-0.4,1.4-0.6,2.2-0.6
	c0.9,0,1.7,0.2,2.3,0.7c0.6,0.5,1.1,1.2,1.3,2.1l-1.2,0.3c-0.2-0.7-0.5-1.2-0.9-1.5c-0.4-0.3-0.9-0.5-1.5-0.5
	c-0.7,0-1.3,0.2-1.8,0.5s-0.8,0.8-1,1.4c-0.2,0.6-0.3,1.2-0.3,1.9c0,0.8,0.1,1.6,0.3,2.2c0.2,0.6,0.6,1.1,1.1,1.4s1,0.5,1.6,0.5
	c0.7,0,1.3-0.2,1.7-0.6S108.9,201.3,109,200.5L109,200.5L109,200.5z"/>
<path class="st1" d="M106.4,189.9v-1.1h3.9v3.6c-0.6,0.5-1.2,0.9-1.8,1.1c-0.6,0.3-1.3,0.4-1.9,0.4c-0.9,0-1.7-0.2-2.5-0.6
	c-0.7-0.4-1.3-1-1.7-1.8c-0.4-0.8-0.6-1.6-0.6-2.6c0-1,0.2-1.8,0.6-2.6s0.9-1.4,1.6-1.8c0.7-0.4,1.5-0.6,2.4-0.6
	c0.7,0,1.3,0.1,1.8,0.3c0.5,0.2,1,0.5,1.3,0.9c0.3,0.4,0.5,0.9,0.7,1.6L109,187c-0.1-0.5-0.3-0.9-0.5-1.2c-0.2-0.3-0.5-0.5-0.9-0.7
	s-0.8-0.3-1.3-0.3c-0.6,0-1,0.1-1.4,0.3c-0.4,0.2-0.7,0.4-1,0.7c-0.3,0.3-0.4,0.6-0.6,1c-0.2,0.6-0.4,1.3-0.4,2
	c0,0.9,0.1,1.6,0.4,2.2c0.3,0.6,0.7,1,1.2,1.3c0.5,0.3,1.1,0.4,1.7,0.4c0.5,0,1-0.1,1.5-0.3c0.5-0.2,0.9-0.4,1.1-0.7v-1.8
	L106.4,189.9L106.4,189.9L106.4,189.9z"/>
<path class="st1" d="M109,180.1l1.2,0.3c-0.3,1.1-0.7,1.9-1.4,2.4c-0.7,0.6-1.5,0.8-2.4,0.8c-1,0-1.8-0.2-2.4-0.6
	c-0.6-0.4-1.1-1-1.4-1.9c-0.3-0.8-0.5-1.7-0.5-2.6c0-1,0.2-1.9,0.5-2.6c0.4-0.8,0.9-1.3,1.6-1.7c0.7-0.4,1.4-0.6,2.2-0.6
	c0.9,0,1.7,0.2,2.3,0.7c0.6,0.5,1.1,1.2,1.3,2.1l-1.2,0.3c-0.2-0.7-0.5-1.2-0.9-1.5c-0.4-0.3-0.9-0.5-1.5-0.5
	c-0.7,0-1.3,0.2-1.8,0.5c-0.5,0.4-0.8,0.8-1,1.4c-0.2,0.6-0.3,1.2-0.3,1.9c0,0.8,0.1,1.6,0.3,2.2c0.2,0.6,0.6,1.1,1.1,1.4
	c0.5,0.3,1,0.5,1.6,0.5c0.7,0,1.3-0.2,1.7-0.6S108.9,180.9,109,180.1L109,180.1L109,180.1z"/>
<path class="st1" d="M106.4,169.4v-1.1h3.9v3.6c-0.6,0.5-1.2,0.9-1.8,1.1c-0.6,0.3-1.3,0.4-1.9,0.4c-0.9,0-1.7-0.2-2.5-0.6
	c-0.7-0.4-1.3-1-1.7-1.8c-0.4-0.8-0.6-1.6-0.6-2.6s0.2-1.8,0.6-2.6c0.4-0.8,0.9-1.4,1.6-1.8c0.7-0.4,1.5-0.6,2.4-0.6
	c0.7,0,1.3,0.1,1.8,0.3c0.5,0.2,1,0.5,1.3,0.9c0.3,0.4,0.5,0.9,0.7,1.6l-1.1,0.3c-0.1-0.5-0.3-0.9-0.5-1.2c-0.2-0.3-0.5-0.5-0.9-0.7
	s-0.8-0.3-1.3-0.3c-0.6,0-1,0.1-1.4,0.3s-0.7,0.4-1,0.7c-0.3,0.3-0.4,0.6-0.6,1c-0.2,0.6-0.4,1.3-0.4,2c0,0.9,0.1,1.6,0.4,2.2
	c0.3,0.6,0.7,1,1.2,1.3c0.5,0.3,1.1,0.4,1.7,0.4c0.5,0,1-0.1,1.5-0.3c0.5-0.2,0.9-0.4,1.1-0.7v-1.8L106.4,169.4L106.4,169.4z"/>
<path class="st1" d="M108.5,153.3h1.2v5.6c0,1-0.1,1.8-0.3,2.3c-0.2,0.6-0.6,1-1.1,1.4c-0.5,0.4-1.3,0.5-2.1,0.5
	c-0.9,0-1.6-0.2-2.1-0.5s-0.9-0.8-1.2-1.4c-0.2-0.6-0.3-1.4-0.3-2.4v-5.6h1.2v5.6c0,0.8,0.1,1.5,0.2,1.9c0.1,0.4,0.4,0.7,0.8,0.9
	c0.4,0.2,0.8,0.3,1.3,0.3c0.9,0,1.5-0.2,1.9-0.6c0.4-0.4,0.6-1.3,0.6-2.5L108.5,153.3L108.5,153.3L108.5,153.3z"/>
<line class="st2" x1="101.6" y1="162.4" x2="97.1" y2="167.3"/>
<path d="M89.2,180v1.1h-6.1c0-0.3,0-0.6,0.1-0.8c0.2-0.4,0.4-0.9,0.7-1.3c0.3-0.4,0.8-0.9,1.5-1.5c1-0.9,1.7-1.6,2-2.1
	c0.3-0.5,0.5-1,0.5-1.4c0-0.5-0.2-0.9-0.5-1.2c-0.3-0.3-0.7-0.5-1.2-0.5c-0.5,0-1,0.2-1.3,0.5c-0.3,0.3-0.5,0.8-0.5,1.4l-1.2-0.1
	c0.1-0.9,0.4-1.6,0.9-2.1c0.5-0.5,1.2-0.7,2.1-0.7c0.9,0,1.6,0.3,2.1,0.8c0.5,0.5,0.8,1.2,0.8,1.9c0,0.4-0.1,0.8-0.2,1.1
	c-0.2,0.4-0.4,0.8-0.7,1.2c-0.3,0.4-0.9,1-1.7,1.7c-0.7,0.6-1.1,1-1.3,1.2c-0.2,0.2-0.3,0.4-0.5,0.6L89.2,180L89.2,180L89.2,180z
	 M90.4,176.3c0-1.1,0.1-2.1,0.3-2.8c0.2-0.7,0.6-1.2,1-1.6c0.4-0.4,1-0.6,1.7-0.6c0.5,0,0.9,0.1,1.3,0.3c0.4,0.2,0.7,0.5,0.9,0.9
	c0.2,0.4,0.4,0.9,0.6,1.4c0.1,0.6,0.2,1.3,0.2,2.3c0,1.1-0.1,2.1-0.3,2.8c-0.2,0.7-0.5,1.2-1,1.6c-0.4,0.4-1,0.6-1.7,0.6
	c-0.9,0-1.6-0.3-2.1-1C90.7,179.4,90.4,178.1,90.4,176.3L90.4,176.3L90.4,176.3z M91.6,176.3c0,1.6,0.2,2.7,0.5,3.2
	c0.4,0.5,0.8,0.8,1.3,0.8s1-0.3,1.3-0.8c0.4-0.5,0.5-1.6,0.5-3.2s-0.2-2.7-0.5-3.2c-0.4-0.5-0.8-0.8-1.3-0.8s-0.9,0.2-1.2,0.7
	C91.8,173.6,91.6,174.7,91.6,176.3L91.6,176.3L91.6,176.3z"/>
<path class="st0" d="M101.3,143.1h1.2v5.6c0,1-0.1,1.8-0.3,2.3s-0.6,1-1.1,1.4c-0.5,0.4-1.3,0.5-2.1,0.5s-1.6-0.2-2.1-0.5
	c-0.5-0.3-0.9-0.8-1.2-1.4c-0.2-0.6-0.3-1.4-0.3-2.4v-5.6h1.2v5.6c0,0.8,0.1,1.5,0.2,1.9c0.1,0.4,0.4,0.7,0.8,0.9s0.8,0.3,1.3,0.3
	c0.9,0,1.5-0.2,1.9-0.6s0.6-1.3,0.6-2.5L101.3,143.1L101.3,143.1L101.3,143.1z"/>
<path class="st0" d="M99.1,136.2v-1.1h3.9v3.6c-0.6,0.5-1.2,0.9-1.8,1.1c-0.6,0.3-1.3,0.4-1.9,0.4c-0.9,0-1.7-0.2-2.5-0.6
	c-0.7-0.4-1.3-1-1.7-1.8c-0.4-0.8-0.6-1.6-0.6-2.6s0.2-1.8,0.6-2.6s0.9-1.4,1.6-1.8c0.7-0.4,1.5-0.6,2.4-0.6c0.7,0,1.3,0.1,1.8,0.3
	c0.5,0.2,1,0.5,1.3,0.9c0.3,0.4,0.5,0.9,0.7,1.6l-1.1,0.3c-0.1-0.5-0.3-0.9-0.5-1.2s-0.5-0.5-0.9-0.7s-0.8-0.3-1.3-0.3
	c-0.6,0-1,0.1-1.4,0.3c-0.4,0.2-0.7,0.4-1,0.7c-0.3,0.3-0.4,0.6-0.6,1c-0.2,0.6-0.4,1.3-0.4,2c0,0.9,0.1,1.6,0.4,2.2s0.7,1,1.2,1.3
	c0.5,0.3,1.1,0.4,1.7,0.4c0.5,0,1-0.1,1.5-0.3c0.5-0.2,0.9-0.4,1.1-0.7v-1.8L99.1,136.2C99.1,136.2,99.1,136.2,99.1,136.2z"/>
<path class="st0" d="M108.5,117.6h1.2v5.6c0,1-0.1,1.8-0.3,2.3c-0.2,0.6-0.6,1-1.1,1.4c-0.5,0.4-1.3,0.5-2.1,0.5
	c-0.9,0-1.6-0.2-2.1-0.5c-0.5-0.3-0.9-0.8-1.2-1.4c-0.2-0.6-0.3-1.4-0.3-2.4v-5.6h1.2v5.6c0,0.8,0.1,1.5,0.2,1.9
	c0.1,0.4,0.4,0.7,0.8,0.9c0.4,0.2,0.8,0.3,1.3,0.3c0.9,0,1.5-0.2,1.9-0.6c0.4-0.4,0.6-1.3,0.6-2.5L108.5,117.6L108.5,117.6
	L108.5,117.6z"/>
<path class="st0" d="M116,120.9v-1.1h3.9v3.6c-0.6,0.5-1.2,0.9-1.8,1.1c-0.6,0.3-1.3,0.4-1.9,0.4c-0.9,0-1.7-0.2-2.5-0.6
	c-0.7-0.4-1.3-1-1.7-1.8c-0.4-0.8-0.6-1.6-0.6-2.6s0.2-1.8,0.6-2.6c0.4-0.8,0.9-1.4,1.6-1.8s1.5-0.6,2.4-0.6c0.7,0,1.3,0.1,1.8,0.3
	s1,0.5,1.3,0.9c0.3,0.4,0.5,0.9,0.7,1.6l-1.1,0.3c-0.1-0.5-0.3-0.9-0.5-1.2c-0.2-0.3-0.5-0.5-0.9-0.7c-0.4-0.2-0.8-0.3-1.3-0.3
	c-0.6,0-1,0.1-1.4,0.3c-0.4,0.2-0.7,0.4-1,0.7c-0.3,0.3-0.4,0.6-0.6,1c-0.2,0.6-0.4,1.3-0.4,2c0,0.9,0.1,1.6,0.4,2.2
	c0.3,0.6,0.7,1,1.2,1.3c0.5,0.3,1.1,0.4,1.7,0.4c0.5,0,1-0.1,1.5-0.3c0.5-0.2,0.9-0.4,1.1-0.7v-1.8L116,120.9
	C116,120.9,116,120.9,116,120.9z"/>
<path class="st0" d="M127.8,120.1h1.2v5.6c0,1-0.1,1.8-0.3,2.3c-0.2,0.6-0.6,1-1.1,1.4c-0.5,0.4-1.3,0.5-2.1,0.5s-1.6-0.2-2.1-0.5
	c-0.5-0.3-0.9-0.8-1.2-1.4c-0.2-0.6-0.3-1.4-0.3-2.4v-5.6h1.2v5.6c0,0.8,0.1,1.5,0.2,1.9c0.1,0.4,0.4,0.7,0.8,0.9
	c0.4,0.2,0.8,0.3,1.3,0.3c0.9,0,1.5-0.2,1.9-0.6c0.4-0.4,0.6-1.3,0.6-2.5L127.8,120.1L127.8,120.1L127.8,120.1z"/>
<path class="st0" d="M135,130.3h1.2v5.6c0,1-0.1,1.8-0.3,2.3c-0.2,0.6-0.6,1-1.1,1.4c-0.5,0.4-1.3,0.5-2.1,0.5s-1.6-0.2-2.1-0.5
	c-0.5-0.3-0.9-0.8-1.2-1.4c-0.2-0.6-0.3-1.4-0.3-2.4v-5.6h1.2v5.6c0,0.8,0.1,1.5,0.2,1.9c0.1,0.4,0.4,0.7,0.8,0.9
	c0.4,0.2,0.8,0.3,1.3,0.3c0.9,0,1.5-0.2,1.9-0.6c0.4-0.4,0.6-1.3,0.6-2.5L135,130.3L135,130.3L135,130.3z"/>
<path class="st0" d="M135,143.1h1.2v5.6c0,1-0.1,1.8-0.3,2.3s-0.6,1-1.1,1.4c-0.5,0.4-1.3,0.5-2.1,0.5s-1.6-0.2-2.1-0.5
	c-0.5-0.3-0.9-0.8-1.2-1.4c-0.2-0.6-0.3-1.4-0.3-2.4v-5.6h1.2v5.6c0,0.8,0.1,1.5,0.2,1.9c0.1,0.4,0.4,0.7,0.8,0.9
	c0.4,0.2,0.8,0.3,1.3,0.3c0.9,0,1.5-0.2,1.9-0.6c0.4-0.4,0.6-1.3,0.6-2.5L135,143.1L135,143.1L135,143.1z"/>
<path class="st1" d="M121.2,163l3.5-9.7h1.3l3.8,9.7h-1.4l-1.1-2.9h-3.8l-1,2.9H121.2L121.2,163z M123.8,159h3.1l-1-2.7
	c-0.3-0.8-0.5-1.5-0.6-2c-0.1,0.6-0.3,1.2-0.5,1.9L123.8,159L123.8,159L123.8,159z"/>
<path class="st1" d="M128.3,169.8l1.2,0.3c-0.3,1.1-0.7,1.9-1.4,2.4c-0.7,0.6-1.5,0.8-2.4,0.8s-1.8-0.2-2.4-0.6
	c-0.6-0.4-1.1-1-1.4-1.9c-0.3-0.8-0.5-1.7-0.5-2.6c0-1,0.2-1.9,0.5-2.6c0.4-0.8,0.9-1.3,1.6-1.7c0.7-0.4,1.4-0.6,2.2-0.6
	c0.9,0,1.7,0.2,2.3,0.7c0.6,0.5,1.1,1.2,1.3,2.1l-1.2,0.3c-0.2-0.7-0.5-1.2-0.9-1.5c-0.4-0.3-0.9-0.5-1.5-0.5
	c-0.7,0-1.3,0.2-1.8,0.5c-0.5,0.4-0.8,0.8-1,1.4c-0.2,0.6-0.3,1.2-0.3,1.9c0,0.8,0.1,1.6,0.3,2.2c0.2,0.6,0.6,1.1,1.1,1.4
	c0.5,0.3,1,0.5,1.6,0.5c0.7,0,1.3-0.2,1.7-0.6C127.8,171.3,128.2,170.7,128.3,169.8L128.3,169.8L128.3,169.8z"/>
<path class="st1" d="M125.7,179.7v-1.1h3.9v3.6c-0.6,0.5-1.2,0.9-1.8,1.1c-0.6,0.3-1.3,0.4-1.9,0.4c-0.9,0-1.7-0.2-2.5-0.6
	c-0.7-0.4-1.3-1-1.7-1.8c-0.4-0.8-0.6-1.6-0.6-2.6c0-1,0.2-1.8,0.6-2.6s0.9-1.4,1.6-1.8c0.7-0.4,1.5-0.6,2.4-0.6
	c0.7,0,1.3,0.1,1.8,0.3c0.5,0.2,1,0.5,1.3,0.9c0.3,0.4,0.5,0.9,0.7,1.6l-1.1,0.3c-0.1-0.5-0.3-0.9-0.5-1.2c-0.2-0.3-0.5-0.5-0.9-0.7
	s-0.8-0.3-1.3-0.3c-0.6,0-1,0.1-1.4,0.3c-0.4,0.2-0.7,0.4-1,0.7c-0.3,0.3-0.4,0.6-0.6,1c-0.2,0.6-0.4,1.3-0.4,2
	c0,0.9,0.1,1.6,0.4,2.2c0.3,0.6,0.7,1,1.2,1.3c0.5,0.3,1.1,0.4,1.7,0.4c0.5,0,1-0.1,1.5-0.3c0.5-0.2,0.9-0.4,1.1-0.7v-1.8
	L125.7,179.7L125.7,179.7L125.7,179.7z"/>
<line class="st2" x1="131.9" y1="178.1" x2="138.4" y2="178.1"/>
<path d="M138.9,180.9l1.1-0.2c0.1,0.7,0.4,1.2,0.7,1.5c0.3,0.3,0.7,0.4,1.1,0.4c0.5,0,1-0.2,1.3-0.6c0.4-0.4,0.5-0.9,0.5-1.4
	s-0.2-1-0.5-1.4c-0.3-0.4-0.8-0.5-1.3-0.5c-0.2,0-0.5,0-0.8,0.1l0.1-1c0.1,0,0.1,0,0.2,0c0.5,0,0.9-0.1,1.3-0.4
	c0.4-0.3,0.6-0.7,0.6-1.2c0-0.4-0.1-0.8-0.4-1.1c-0.3-0.3-0.6-0.4-1.1-0.4c-0.4,0-0.8,0.1-1.1,0.4c-0.3,0.3-0.5,0.7-0.6,1.3
	l-1.1-0.2c0.1-0.8,0.5-1.4,0.9-1.9c0.5-0.4,1.1-0.7,1.8-0.7c0.5,0,1,0.1,1.4,0.3c0.4,0.2,0.7,0.5,1,0.9c0.2,0.4,0.3,0.8,0.3,1.3
	c0,0.4-0.1,0.8-0.3,1.1c-0.2,0.3-0.5,0.6-0.9,0.8c0.5,0.1,1,0.4,1.3,0.8c0.3,0.4,0.5,0.9,0.5,1.6c0,0.8-0.3,1.6-0.9,2.2
	c-0.6,0.6-1.3,0.9-2.2,0.9c-0.8,0-1.5-0.3-2-0.8C139.3,182.4,139,181.7,138.9,180.9z M146,178.7c0-1.1,0.1-2.1,0.3-2.8
	s0.6-1.2,1-1.6c0.4-0.4,1-0.6,1.7-0.6c0.5,0,0.9,0.1,1.3,0.3c0.4,0.2,0.7,0.5,0.9,0.9c0.2,0.4,0.4,0.9,0.6,1.4
	c0.1,0.6,0.2,1.3,0.2,2.3c0,1.1-0.1,2.1-0.3,2.8c-0.2,0.7-0.5,1.2-1,1.6c-0.4,0.4-1,0.6-1.7,0.6c-0.9,0-1.6-0.3-2.1-1
	C146.3,181.8,146,180.5,146,178.7L146,178.7L146,178.7z M147.2,178.7c0,1.6,0.2,2.7,0.5,3.2c0.4,0.5,0.8,0.8,1.3,0.8
	c0.5,0,1-0.3,1.3-0.8c0.4-0.5,0.5-1.6,0.5-3.2s-0.2-2.7-0.5-3.2c-0.4-0.5-0.8-0.8-1.3-0.8s-0.9,0.2-1.2,0.7
	C147.4,176,147.2,177.1,147.2,178.7L147.2,178.7L147.2,178.7z"/>
<path class="st1" d="M128.3,190.3l1.2,0.3c-0.3,1.1-0.7,1.9-1.4,2.4c-0.7,0.6-1.5,0.8-2.4,0.8s-1.8-0.2-2.4-0.6
	c-0.6-0.4-1.1-1-1.4-1.9c-0.3-0.8-0.5-1.7-0.5-2.6c0-1,0.2-1.9,0.5-2.6s0.9-1.3,1.6-1.7c0.7-0.4,1.4-0.6,2.2-0.6
	c0.9,0,1.7,0.2,2.3,0.7c0.6,0.5,1.1,1.2,1.3,2.1l-1.2,0.3c-0.2-0.7-0.5-1.2-0.9-1.5c-0.4-0.3-0.9-0.5-1.5-0.5
	c-0.7,0-1.3,0.2-1.8,0.5c-0.5,0.4-0.8,0.8-1,1.4c-0.2,0.6-0.3,1.2-0.3,1.9c0,0.8,0.1,1.6,0.3,2.2c0.2,0.6,0.6,1.1,1.1,1.4
	c0.5,0.3,1,0.5,1.6,0.5c0.7,0,1.3-0.2,1.7-0.6C127.8,191.7,128.2,191.1,128.3,190.3L128.3,190.3L128.3,190.3z"/>
<path class="st1" d="M125.7,200.1v-1.1h3.9v3.6c-0.6,0.5-1.2,0.9-1.8,1.1c-0.6,0.3-1.3,0.4-1.9,0.4c-0.9,0-1.7-0.2-2.5-0.6
	c-0.7-0.4-1.3-1-1.7-1.8c-0.4-0.8-0.6-1.6-0.6-2.6c0-1,0.2-1.8,0.6-2.6s0.9-1.4,1.6-1.8c0.7-0.4,1.5-0.6,2.4-0.6
	c0.7,0,1.3,0.1,1.8,0.3c0.5,0.2,1,0.5,1.3,0.9c0.3,0.4,0.5,0.9,0.7,1.6l-1.1,0.3c-0.1-0.5-0.3-0.9-0.5-1.2c-0.2-0.3-0.5-0.5-0.9-0.7
	c-0.4-0.2-0.8-0.3-1.3-0.3c-0.6,0-1,0.1-1.4,0.3s-0.7,0.4-1,0.7c-0.3,0.3-0.4,0.6-0.6,1c-0.2,0.6-0.4,1.3-0.4,2
	c0,0.9,0.1,1.6,0.4,2.2c0.3,0.6,0.7,1,1.2,1.3c0.5,0.3,1.1,0.4,1.7,0.4c0.5,0,1-0.1,1.5-0.3c0.5-0.2,0.9-0.4,1.1-0.7v-1.8
	L125.7,200.1L125.7,200.1L125.7,200.1z"/>
<path class="st1" d="M127.8,204.4h1.2v5.6c0,1-0.1,1.8-0.3,2.3c-0.2,0.6-0.6,1-1.1,1.4s-1.3,0.5-2.1,0.5s-1.6-0.2-2.1-0.5
	c-0.5-0.3-0.9-0.8-1.2-1.4c-0.2-0.6-0.3-1.4-0.3-2.4v-5.6h1.2v5.6c0,0.8,0.1,1.5,0.2,1.9c0.1,0.4,0.4,0.7,0.8,0.9
	c0.4,0.2,0.8,0.3,1.3,0.3c0.9,0,1.5-0.2,1.9-0.6c0.4-0.4,0.6-1.3,0.6-2.5L127.8,204.4L127.8,204.4L127.8,204.4z"/>
<path class="st1" d="M128.3,220.9l1.2,0.3c-0.3,1.1-0.7,1.9-1.4,2.4c-0.7,0.6-1.5,0.8-2.4,0.8s-1.8-0.2-2.4-0.6
	c-0.6-0.4-1.1-1-1.4-1.9c-0.3-0.8-0.5-1.7-0.5-2.6c0-1,0.2-1.9,0.5-2.6s0.9-1.3,1.6-1.7c0.7-0.4,1.4-0.6,2.2-0.6
	c0.9,0,1.7,0.2,2.3,0.7c0.6,0.5,1.1,1.2,1.3,2.1l-1.2,0.3c-0.2-0.7-0.5-1.2-0.9-1.5s-0.9-0.5-1.5-0.5c-0.7,0-1.3,0.2-1.8,0.5
	c-0.5,0.4-0.8,0.8-1,1.4c-0.2,0.6-0.3,1.2-0.3,1.9c0,0.8,0.1,1.6,0.3,2.2c0.2,0.6,0.6,1.1,1.1,1.4c0.5,0.3,1,0.5,1.6,0.5
	c0.7,0,1.3-0.2,1.7-0.6C127.8,222.4,128.2,221.7,128.3,220.9L128.3,220.9L128.3,220.9z"/>
<path class="st0" d="M137.4,214.6h1.2v5.6c0,1-0.1,1.8-0.3,2.3c-0.2,0.6-0.6,1-1.1,1.4c-0.5,0.4-1.3,0.5-2.1,0.5s-1.6-0.2-2.1-0.5
	c-0.5-0.3-0.9-0.8-1.2-1.4c-0.2-0.6-0.3-1.4-0.3-2.4v-5.6h1.2v5.6c0,0.8,0.1,1.5,0.2,1.9c0.1,0.4,0.4,0.7,0.8,0.9
	c0.4,0.2,0.8,0.3,1.3,0.3c0.9,0,1.5-0.2,1.9-0.6c0.4-0.4,0.6-1.3,0.6-2.5L137.4,214.6L137.4,214.6L137.4,214.6z"/>
<path class="st0" d="M137.7,207.7v-1.1h3.9v3.6c-0.6,0.5-1.2,0.9-1.8,1.1c-0.6,0.3-1.3,0.4-1.9,0.4c-0.9,0-1.7-0.2-2.5-0.6
	c-0.7-0.4-1.3-1-1.7-1.8c-0.4-0.8-0.6-1.6-0.6-2.6s0.2-1.8,0.6-2.6c0.4-0.8,0.9-1.4,1.6-1.8c0.7-0.4,1.5-0.6,2.4-0.6
	c0.7,0,1.3,0.1,1.8,0.3c0.5,0.2,1,0.5,1.3,0.9c0.3,0.4,0.5,0.9,0.7,1.6l-1.1,0.3c-0.1-0.5-0.3-0.9-0.5-1.2c-0.2-0.3-0.5-0.5-0.9-0.7
	c-0.4-0.2-0.8-0.3-1.3-0.3c-0.6,0-1,0.1-1.4,0.3c-0.4,0.2-0.7,0.4-1,0.7c-0.3,0.3-0.4,0.6-0.6,1c-0.2,0.6-0.4,1.3-0.4,2
	c0,0.9,0.1,1.6,0.4,2.2c0.3,0.6,0.7,1,1.2,1.3c0.5,0.3,1.1,0.4,1.7,0.4c0.5,0,1-0.1,1.5-0.3c0.5-0.2,0.9-0.4,1.1-0.7v-1.8
	L137.7,207.7L137.7,207.7L137.7,207.7z"/>
<path class="st0" d="M142.9,206.4l3.5-9.7h1.3l3.8,9.7h-1.4l-1.1-2.9h-3.8l-1,2.9H142.9L142.9,206.4z M145.5,202.5h3.1l-1-2.7
	c-0.3-0.8-0.5-1.5-0.6-2c-0.1,0.6-0.3,1.2-0.5,1.9L145.5,202.5L145.5,202.5L145.5,202.5z"/>
<path class="st3" d="M159.2,204.4h1.2v5.6c0,1-0.1,1.8-0.3,2.3c-0.2,0.6-0.6,1-1.1,1.4c-0.5,0.4-1.3,0.5-2.1,0.5s-1.6-0.2-2.1-0.5
	c-0.5-0.3-0.9-0.8-1.2-1.4c-0.2-0.6-0.3-1.4-0.3-2.4v-5.6h1.2v5.6c0,0.8,0.1,1.5,0.2,1.9c0.1,0.4,0.4,0.7,0.8,0.9
	c0.4,0.2,0.8,0.3,1.3,0.3c0.9,0,1.5-0.2,1.9-0.6c0.4-0.4,0.6-1.3,0.6-2.5L159.2,204.4L159.2,204.4L159.2,204.4z"/>
<path class="st3" d="M166.7,210.3v-1.1h3.9v3.6c-0.6,0.5-1.2,0.9-1.8,1.1c-0.6,0.3-1.3,0.4-1.9,0.4c-0.9,0-1.7-0.2-2.5-0.6
	c-0.7-0.4-1.3-1-1.7-1.8c-0.4-0.8-0.6-1.6-0.6-2.6s0.2-1.8,0.6-2.6c0.4-0.8,0.9-1.4,1.6-1.8c0.7-0.4,1.5-0.6,2.4-0.6
	c0.7,0,1.3,0.1,1.8,0.3c0.5,0.2,1,0.5,1.3,0.9s0.5,0.9,0.7,1.6l-1.1,0.3c-0.1-0.5-0.3-0.9-0.5-1.2c-0.2-0.3-0.5-0.5-0.9-0.7
	c-0.4-0.2-0.8-0.3-1.3-0.3c-0.6,0-1,0.1-1.4,0.3s-0.7,0.4-1,0.7c-0.3,0.3-0.4,0.6-0.6,1c-0.2,0.6-0.4,1.3-0.4,2
	c0,0.9,0.1,1.6,0.4,2.2c0.3,0.6,0.7,1,1.2,1.3c0.5,0.3,1.1,0.4,1.7,0.4c0.5,0,1-0.1,1.5-0.3c0.5-0.2,0.9-0.4,1.1-0.7v-1.8
	L166.7,210.3L166.7,210.3L166.7,210.3z"/>
<path class="st3" d="M171.8,214.1l3.5-9.7h1.3l3.8,9.7H179l-1.1-2.9h-3.8l-1,2.9H171.8L171.8,214.1z M174.5,210.1h3.1l-1-2.7
	c-0.3-0.8-0.5-1.5-0.6-2c-0.1,0.6-0.3,1.2-0.5,1.9L174.5,210.1L174.5,210.1L174.5,210.1z"/>
<line class="st2" x1="176.2" y1="201.9" x2="176.2" y2="195.1"/>
<path d="M173.1,192v-2.3h-4v-1.1l4.2-6.3h0.9v6.3h1.2v1.1h-1.2v2.3H173.1z M173.1,188.6v-4.4l-2.9,4.4H173.1z M176.6,187.3
	c0-1.1,0.1-2.1,0.3-2.8c0.2-0.7,0.6-1.2,1-1.6c0.4-0.4,1-0.6,1.7-0.6c0.5,0,0.9,0.1,1.3,0.3c0.4,0.2,0.7,0.5,0.9,0.9
	c0.2,0.4,0.4,0.9,0.6,1.4c0.1,0.6,0.2,1.3,0.2,2.3c0,1.1-0.1,2.1-0.3,2.8c-0.2,0.7-0.5,1.2-1,1.6c-0.4,0.4-1,0.6-1.7,0.6
	c-0.9,0-1.6-0.3-2.1-1C177,190.4,176.7,189.1,176.6,187.3L176.6,187.3L176.6,187.3z M177.8,187.3c0,1.6,0.2,2.7,0.5,3.2
	c0.4,0.5,0.8,0.8,1.3,0.8c0.5,0,1-0.3,1.3-0.8c0.4-0.5,0.5-1.6,0.5-3.2s-0.2-2.7-0.5-3.2c-0.4-0.5-0.8-0.8-1.3-0.8s-0.9,0.2-1.2,0.7
	C178,184.6,177.8,185.7,177.8,187.3L177.8,187.3L177.8,187.3z"/>
<path class="st3" d="M186,210.3v-1.1h3.9v3.6c-0.6,0.5-1.2,0.9-1.8,1.1c-0.6,0.3-1.3,0.4-1.9,0.4c-0.9,0-1.7-0.2-2.5-0.6
	c-0.7-0.4-1.3-1-1.7-1.8c-0.4-0.8-0.6-1.6-0.6-2.6s0.2-1.8,0.6-2.6c0.4-0.8,0.9-1.4,1.6-1.8c0.7-0.4,1.5-0.6,2.4-0.6
	c0.7,0,1.3,0.1,1.8,0.3c0.5,0.2,1,0.5,1.3,0.9c0.3,0.4,0.5,0.9,0.7,1.6l-1.1,0.3c-0.1-0.5-0.3-0.9-0.5-1.2c-0.2-0.3-0.5-0.5-0.9-0.7
	c-0.4-0.2-0.8-0.3-1.3-0.3c-0.6,0-1,0.1-1.4,0.3c-0.4,0.2-0.7,0.4-1,0.7c-0.3,0.3-0.4,0.6-0.6,1c-0.2,0.6-0.4,1.3-0.4,2
	c0,0.9,0.1,1.6,0.4,2.2c0.3,0.6,0.7,1,1.2,1.3c0.5,0.3,1.1,0.4,1.7,0.4c0.5,0,1-0.1,1.5-0.3c0.5-0.2,0.9-0.4,1.1-0.7v-1.8L186,210.3
	L186,210.3L186,210.3z"/>
<path class="st3" d="M197.8,204.4h1.2v5.6c0,1-0.1,1.8-0.3,2.3c-0.2,0.6-0.6,1-1.1,1.4s-1.3,0.5-2.1,0.5s-1.6-0.2-2.1-0.5
	c-0.5-0.3-0.9-0.8-1.2-1.4c-0.2-0.6-0.3-1.4-0.3-2.4v-5.6h1.2v5.6c0,0.8,0.1,1.5,0.2,1.9c0.1,0.4,0.4,0.7,0.8,0.9
	c0.4,0.2,0.8,0.3,1.3,0.3c0.9,0,1.5-0.2,1.9-0.6c0.4-0.4,0.6-1.3,0.6-2.5L197.8,204.4L197.8,204.4L197.8,204.4z"/>
<path class="st3" d="M205.3,210.3v-1.1h3.9v3.6c-0.6,0.5-1.2,0.9-1.8,1.1c-0.6,0.3-1.3,0.4-1.9,0.4c-0.9,0-1.7-0.2-2.5-0.6
	c-0.7-0.4-1.3-1-1.7-1.8c-0.4-0.8-0.6-1.6-0.6-2.6s0.2-1.8,0.6-2.6c0.4-0.8,0.9-1.4,1.6-1.8c0.7-0.4,1.5-0.6,2.4-0.6
	c0.7,0,1.3,0.1,1.8,0.3c0.5,0.2,1,0.5,1.3,0.9s0.5,0.9,0.7,1.6l-1.1,0.3c-0.1-0.5-0.3-0.9-0.5-1.2c-0.2-0.3-0.5-0.5-0.9-0.7
	c-0.4-0.2-0.8-0.3-1.3-0.3c-0.6,0-1,0.1-1.4,0.3s-0.7,0.4-1,0.7c-0.3,0.3-0.4,0.6-0.6,1c-0.2,0.6-0.4,1.3-0.4,2
	c0,0.9,0.1,1.6,0.4,2.2c0.3,0.6,0.7,1,1.2,1.3c0.5,0.3,1.1,0.4,1.7,0.4c0.5,0,1-0.1,1.5-0.3c0.5-0.2,0.9-0.4,1.1-0.7v-1.8
	L205.3,210.3L205.3,210.3L205.3,210.3z"/>
<path class="st3" d="M214.9,210.3v-1.1h3.9v3.6c-0.6,0.5-1.2,0.9-1.8,1.1c-0.6,0.3-1.3,0.4-1.9,0.4c-0.9,0-1.7-0.2-2.5-0.6
	c-0.7-0.4-1.3-1-1.7-1.8c-0.4-0.8-0.6-1.6-0.6-2.6s0.2-1.8,0.6-2.6c0.4-0.8,0.9-1.4,1.6-1.8c0.7-0.4,1.5-0.6,2.4-0.6
	c0.7,0,1.3,0.1,1.8,0.3c0.5,0.2,1,0.5,1.3,0.9c0.3,0.4,0.5,0.9,0.7,1.6l-1.1,0.3c-0.1-0.5-0.3-0.9-0.5-1.2c-0.2-0.3-0.5-0.5-0.9-0.7
	c-0.4-0.2-0.8-0.3-1.3-0.3c-0.6,0-1,0.1-1.4,0.3s-0.7,0.4-1,0.7c-0.3,0.3-0.4,0.6-0.6,1c-0.2,0.6-0.4,1.3-0.4,2
	c0,0.9,0.1,1.6,0.4,2.2s0.7,1,1.2,1.3c0.5,0.3,1.1,0.4,1.7,0.4c0.5,0,1-0.1,1.5-0.3c0.5-0.2,0.9-0.4,1.1-0.7v-1.8L214.9,210.3
	L214.9,210.3L214.9,210.3z"/>
<path class="st0" d="M226.7,196.7h1.2v5.6c0,1-0.1,1.8-0.3,2.3c-0.2,0.6-0.6,1-1.1,1.4c-0.5,0.4-1.3,0.5-2.1,0.5s-1.6-0.2-2.1-0.5
	c-0.5-0.3-0.9-0.8-1.2-1.4c-0.2-0.6-0.3-1.4-0.3-2.4v-5.6h1.2v5.6c0,0.8,0.1,1.5,0.2,1.9c0.1,0.4,0.4,0.7,0.8,0.9
	c0.4,0.2,0.8,0.3,1.3,0.3c0.9,0,1.5-0.2,1.9-0.6c0.4-0.4,0.6-1.3,0.6-2.5L226.7,196.7L226.7,196.7L226.7,196.7z"/>
<path class="st0" d="M229.7,198.8l3.5-9.7h1.3l3.8,9.7h-1.4l-1.1-2.9H232l-1,2.9H229.7L229.7,198.8z M232.4,194.8h3.1l-1-2.7
	c-0.3-0.8-0.5-1.5-0.6-2c-0.1,0.6-0.3,1.2-0.5,1.9L232.4,194.8L232.4,194.8L232.4,194.8z"/>
<path class="st0" d="M236.9,243.9l1.2,0.3c-0.3,1.1-0.7,1.9-1.4,2.4c-0.7,0.6-1.5,0.8-2.4,0.8s-1.8-0.2-2.4-0.6
	c-0.6-0.4-1.1-1-1.4-1.9c-0.3-0.8-0.5-1.7-0.5-2.6c0-1,0.2-1.9,0.5-2.6c0.4-0.8,0.9-1.3,1.6-1.7c0.7-0.4,1.4-0.6,2.2-0.6
	c0.9,0,1.7,0.2,2.3,0.7c0.6,0.5,1.1,1.2,1.3,2.1l-1.2,0.3c-0.2-0.7-0.5-1.2-0.9-1.5c-0.4-0.3-0.9-0.5-1.5-0.5
	c-0.7,0-1.3,0.2-1.8,0.5c-0.5,0.4-0.8,0.8-1,1.4c-0.2,0.6-0.3,1.2-0.3,1.9c0,0.8,0.1,1.6,0.3,2.2c0.2,0.6,0.6,1.1,1.1,1.4
	s1,0.5,1.6,0.5c0.7,0,1.3-0.2,1.7-0.6C236.4,245.3,236.7,244.7,236.9,243.9L236.9,243.9L236.9,243.9z"/>
<path class="st0" d="M226.7,232.5h1.2v5.6c0,1-0.1,1.8-0.3,2.3c-0.2,0.6-0.6,1-1.1,1.4c-0.5,0.4-1.3,0.5-2.1,0.5s-1.6-0.2-2.1-0.5
	c-0.5-0.3-0.9-0.8-1.2-1.4c-0.2-0.6-0.3-1.4-0.3-2.4v-5.6h1.2v5.6c0,0.8,0.1,1.5,0.2,1.9c0.1,0.4,0.4,0.7,0.8,0.9
	c0.4,0.2,0.8,0.3,1.3,0.3c0.9,0,1.5-0.2,1.9-0.6c0.4-0.4,0.6-1.3,0.6-2.5L226.7,232.5L226.7,232.5L226.7,232.5z"/>
<path class="st3" d="M217.6,231.1l1.2,0.3c-0.3,1.1-0.7,1.9-1.4,2.4c-0.7,0.6-1.5,0.8-2.4,0.8c-1,0-1.8-0.2-2.4-0.6
	c-0.6-0.4-1.1-1-1.4-1.9c-0.3-0.8-0.5-1.7-0.5-2.6c0-1,0.2-1.9,0.5-2.6c0.4-0.8,0.9-1.3,1.6-1.7c0.7-0.4,1.4-0.6,2.2-0.6
	c0.9,0,1.7,0.2,2.3,0.7c0.6,0.5,1.1,1.2,1.3,2.1l-1.2,0.3c-0.2-0.7-0.5-1.2-0.9-1.5c-0.4-0.3-0.9-0.5-1.5-0.5
	c-0.7,0-1.3,0.2-1.8,0.5c-0.5,0.4-0.8,0.8-1,1.4c-0.2,0.6-0.3,1.2-0.3,1.9c0,0.8,0.1,1.6,0.3,2.2c0.2,0.6,0.6,1.1,1.1,1.4
	c0.5,0.3,1,0.5,1.6,0.5c0.7,0,1.3-0.2,1.7-0.6C217.1,232.6,217.4,232,217.6,231.1L217.6,231.1L217.6,231.1z"/>
<line class="st2" x1="210.2" y1="234" x2="205.7" y2="238.8"/>
<path d="M193.5,247.3c-0.5-0.2-0.8-0.4-1-0.8c-0.2-0.3-0.3-0.7-0.3-1.2c0-0.7,0.2-1.3,0.7-1.8c0.5-0.5,1.1-0.7,1.9-0.7
	c0.8,0,1.4,0.2,1.9,0.7c0.5,0.5,0.7,1.1,0.7,1.8c0,0.5-0.1,0.8-0.3,1.2c-0.2,0.3-0.6,0.6-1,0.8c0.6,0.2,1,0.5,1.3,0.9
	c0.3,0.4,0.4,0.9,0.4,1.5c0,0.8-0.3,1.5-0.8,2.1c-0.6,0.6-1.3,0.8-2.2,0.8c-0.9,0-1.6-0.3-2.2-0.8c-0.6-0.6-0.8-1.3-0.8-2.1
	c0-0.6,0.2-1.2,0.5-1.6C192.5,247.8,193,247.5,193.5,247.3L193.5,247.3L193.5,247.3z M193.3,245.3c0,0.5,0.1,0.8,0.4,1.1
	c0.3,0.3,0.6,0.4,1.1,0.4s0.8-0.1,1.1-0.4c0.3-0.3,0.4-0.6,0.4-1.1c0-0.4-0.1-0.8-0.4-1.1s-0.6-0.4-1.1-0.4c-0.4,0-0.8,0.1-1.1,0.4
	C193.5,244.6,193.3,244.9,193.3,245.3L193.3,245.3L193.3,245.3z M192.9,249.8c0,0.3,0.1,0.7,0.2,1c0.2,0.3,0.4,0.6,0.7,0.7
	c0.3,0.2,0.6,0.3,1,0.3c0.5,0,1-0.2,1.3-0.5c0.3-0.4,0.5-0.8,0.5-1.4s-0.2-1.1-0.5-1.4c-0.4-0.4-0.8-0.6-1.4-0.6
	c-0.5,0-1,0.2-1.3,0.6C193.1,248.8,192.9,249.3,192.9,249.8L192.9,249.8L192.9,249.8z M199,247.8c0-1.1,0.1-2.1,0.3-2.8
	c0.2-0.7,0.6-1.2,1-1.6c0.4-0.4,1-0.6,1.7-0.6c0.5,0,0.9,0.1,1.3,0.3c0.4,0.2,0.7,0.5,0.9,0.9c0.2,0.4,0.4,0.9,0.6,1.4
	c0.1,0.6,0.2,1.3,0.2,2.3c0,1.1-0.1,2.1-0.3,2.8c-0.2,0.7-0.5,1.2-1,1.6c-0.4,0.4-1,0.6-1.7,0.6c-0.9,0-1.6-0.3-2.1-1
	C199.3,251,199,249.6,199,247.8L199,247.8L199,247.8z M200.1,247.8c0,1.6,0.2,2.7,0.5,3.2s0.8,0.8,1.3,0.8c0.5,0,1-0.3,1.3-0.8
	c0.4-0.5,0.5-1.6,0.5-3.2c0-1.6-0.2-2.7-0.5-3.2c-0.4-0.5-0.8-0.8-1.3-0.8s-0.9,0.2-1.2,0.7C200.3,245.1,200.1,246.2,200.1,247.8
	L200.1,247.8L200.1,247.8z"/>
<path class="st3" d="M207.9,231.1l1.2,0.3c-0.3,1.1-0.7,1.9-1.4,2.4c-0.7,0.6-1.5,0.8-2.4,0.8s-1.8-0.2-2.4-0.6
	c-0.6-0.4-1.1-1-1.4-1.9c-0.3-0.8-0.5-1.7-0.5-2.6c0-1,0.2-1.9,0.5-2.6s0.9-1.3,1.6-1.7c0.7-0.4,1.4-0.6,2.2-0.6
	c0.9,0,1.7,0.2,2.3,0.7c0.6,0.5,1.1,1.2,1.3,2.1l-1.2,0.3c-0.2-0.7-0.5-1.2-0.9-1.5c-0.4-0.3-0.9-0.5-1.5-0.5
	c-0.7,0-1.3,0.2-1.8,0.5c-0.5,0.4-0.8,0.8-1,1.4c-0.2,0.6-0.3,1.2-0.3,1.9c0,0.8,0.1,1.6,0.3,2.2c0.2,0.6,0.6,1.1,1.1,1.4
	c0.5,0.3,1,0.5,1.6,0.5c0.7,0,1.3-0.2,1.7-0.6C207.4,232.6,207.8,232,207.9,231.1L207.9,231.1L207.9,231.1z"/>
<path class="st3" d="M191.1,234.5l3.5-9.7h1.3l3.8,9.7h-1.4l-1.1-2.9h-3.8l-1,2.9H191.1L191.1,234.5z M193.8,230.5h3.1l-1-2.7
	c-0.3-0.8-0.5-1.5-0.6-2c-0.1,0.6-0.3,1.2-0.5,1.9L193.8,230.5L193.8,230.5L193.8,230.5z"/>
<path class="st3" d="M188.6,231.1l1.2,0.3c-0.3,1.1-0.7,1.9-1.4,2.4c-0.7,0.6-1.5,0.8-2.4,0.8s-1.8-0.2-2.4-0.6
	c-0.6-0.4-1.1-1-1.4-1.9c-0.3-0.8-0.5-1.7-0.5-2.6c0-1,0.2-1.9,0.5-2.6s0.9-1.3,1.6-1.7c0.7-0.4,1.4-0.6,2.2-0.6
	c0.9,0,1.7,0.2,2.3,0.7c0.6,0.5,1.1,1.2,1.3,2.1l-1.2,0.3c-0.2-0.7-0.5-1.2-0.9-1.5c-0.4-0.3-0.9-0.5-1.5-0.5
	c-0.7,0-1.3,0.2-1.8,0.5c-0.5,0.4-0.8,0.8-1,1.4c-0.2,0.6-0.3,1.2-0.3,1.9c0,0.8,0.1,1.6,0.3,2.2c0.2,0.6,0.6,1.1,1.1,1.4
	c0.5,0.3,1,0.5,1.6,0.5c0.7,0,1.3-0.2,1.7-0.6C188.1,232.6,188.5,232,188.6,231.1L188.6,231.1L188.6,231.1z"/>
<path class="st3" d="M176.3,230.7v-1.1h3.9v3.6c-0.6,0.5-1.2,0.9-1.8,1.1c-0.6,0.3-1.3,0.4-1.9,0.4c-0.9,0-1.7-0.2-2.5-0.6
	c-0.7-0.4-1.3-1-1.7-1.8c-0.4-0.8-0.6-1.6-0.6-2.6c0-1,0.2-1.8,0.6-2.6c0.4-0.8,0.9-1.4,1.6-1.8c0.7-0.4,1.5-0.6,2.4-0.6
	c0.7,0,1.3,0.1,1.8,0.3c0.5,0.2,1,0.5,1.3,0.9c0.3,0.4,0.5,0.9,0.7,1.6l-1.1,0.3c-0.1-0.5-0.3-0.9-0.5-1.2c-0.2-0.3-0.5-0.5-0.9-0.7
	s-0.8-0.3-1.3-0.3c-0.6,0-1,0.1-1.4,0.3c-0.4,0.2-0.7,0.4-1,0.7c-0.3,0.3-0.4,0.6-0.6,1c-0.2,0.6-0.4,1.3-0.4,2
	c0,0.9,0.1,1.6,0.4,2.2c0.3,0.6,0.7,1,1.2,1.3c0.5,0.3,1.1,0.4,1.7,0.4c0.5,0,1-0.1,1.5-0.3c0.5-0.2,0.9-0.4,1.1-0.7v-1.8
	L176.3,230.7L176.3,230.7L176.3,230.7z"/>
<path class="st3" d="M162.2,234.5l3.5-9.7h1.3l3.8,9.7h-1.4l-1.1-2.9h-3.8l-1,2.9H162.2L162.2,234.5z M164.8,230.5h3.1l-1-2.7
	c-0.3-0.8-0.5-1.5-0.6-2c-0.1,0.6-0.3,1.2-0.5,1.9L164.8,230.5L164.8,230.5L164.8,230.5z"/>
<path class="st3" d="M152.5,234.5l3.5-9.7h1.3l3.8,9.7h-1.4l-1.1-2.9h-3.8l-1,2.9H152.5L152.5,234.5z M155.2,230.5h3.1l-1-2.7
	c-0.3-0.8-0.5-1.5-0.6-2c-0.1,0.6-0.3,1.2-0.5,1.9L155.2,230.5L155.2,230.5L155.2,230.5z"/>
<path class="st0" d="M246.5,197.9l1.2,0.3c-0.3,1.1-0.7,1.9-1.4,2.4c-0.7,0.6-1.5,0.8-2.4,0.8s-1.8-0.2-2.4-0.6
	c-0.6-0.4-1.1-1-1.4-1.9c-0.3-0.8-0.5-1.7-0.5-2.6c0-1,0.2-1.9,0.5-2.6c0.4-0.8,0.9-1.3,1.6-1.7c0.7-0.4,1.4-0.6,2.2-0.6
	c0.9,0,1.7,0.2,2.3,0.7c0.6,0.5,1.1,1.2,1.3,2.1l-1.2,0.3c-0.2-0.7-0.5-1.2-0.9-1.5c-0.4-0.3-0.9-0.5-1.5-0.5
	c-0.7,0-1.3,0.2-1.8,0.5c-0.5,0.4-0.8,0.8-1,1.4c-0.2,0.6-0.3,1.2-0.3,1.9c0,0.8,0.1,1.6,0.3,2.2c0.2,0.6,0.6,1.1,1.1,1.4
	c0.5,0.3,1,0.5,1.6,0.5c0.7,0,1.3-0.2,1.7-0.6C246,199.4,246.4,198.8,246.5,197.9L246.5,197.9L246.5,197.9z"/>
<path class="st0" d="M249,203.9l3.5-9.7h1.3l3.8,9.7h-1.4l-1.1-2.9h-3.8l-1,2.9H249L249,203.9z M251.7,199.9h3.1l-1-2.7
	c-0.3-0.8-0.5-1.5-0.6-2c-0.1,0.6-0.3,1.2-0.5,1.9L251.7,199.9L251.7,199.9L251.7,199.9z"/>
<path class="st4" d="M260.8,210.3v-1.1h3.9v3.6c-0.6,0.5-1.2,0.9-1.8,1.1c-0.6,0.3-1.3,0.4-1.9,0.4c-0.9,0-1.7-0.2-2.5-0.6
	c-0.7-0.4-1.3-1-1.7-1.8c-0.4-0.8-0.6-1.6-0.6-2.6s0.2-1.8,0.6-2.6c0.4-0.8,0.9-1.4,1.6-1.8c0.7-0.4,1.5-0.6,2.4-0.6
	c0.7,0,1.3,0.1,1.8,0.3c0.5,0.2,1,0.5,1.3,0.9c0.3,0.4,0.5,0.9,0.7,1.6l-1.1,0.3c-0.1-0.5-0.3-0.9-0.5-1.2s-0.5-0.5-0.9-0.7
	c-0.4-0.2-0.8-0.3-1.3-0.3c-0.6,0-1,0.1-1.4,0.3s-0.7,0.4-1,0.7c-0.3,0.3-0.4,0.6-0.6,1c-0.2,0.6-0.4,1.3-0.4,2
	c0,0.9,0.1,1.6,0.4,2.2c0.3,0.6,0.7,1,1.2,1.3c0.5,0.3,1.1,0.4,1.7,0.4c0.5,0,1-0.1,1.5-0.3c0.5-0.2,0.9-0.4,1.1-0.7v-1.8
	L260.8,210.3L260.8,210.3L260.8,210.3z"/>
<path class="st4" d="M272.5,204.4h1.2v5.6c0,1-0.1,1.8-0.3,2.3c-0.2,0.6-0.6,1-1.1,1.4c-0.5,0.4-1.3,0.5-2.1,0.5
	c-0.9,0-1.6-0.2-2.1-0.5c-0.5-0.3-0.9-0.8-1.2-1.4c-0.2-0.6-0.3-1.4-0.3-2.4v-5.6h1.2v5.6c0,0.8,0.1,1.5,0.2,1.9
	c0.1,0.4,0.4,0.7,0.8,0.9c0.4,0.2,0.8,0.3,1.3,0.3c0.9,0,1.5-0.2,1.9-0.6c0.4-0.4,0.6-1.3,0.6-2.5L272.5,204.4L272.5,204.4
	L272.5,204.4z"/>
<line class="st2" x1="270.2" y1="201.9" x2="270.2" y2="195.1"/>
<path d="M263.6,189.5l1.2-0.1c0.1,0.6,0.3,1.1,0.6,1.4c0.3,0.3,0.7,0.5,1.2,0.5c0.5,0,1-0.2,1.4-0.6c0.4-0.4,0.6-1,0.6-1.7
	c0-0.7-0.2-1.2-0.5-1.6c-0.4-0.4-0.8-0.6-1.4-0.6c-0.4,0-0.7,0.1-1,0.3c-0.3,0.2-0.5,0.4-0.7,0.7l-1.1-0.1l0.9-5h4.6v1.1h-3.7
	l-0.5,2.6c0.5-0.4,1.1-0.6,1.7-0.6c0.8,0,1.5,0.3,2,0.9c0.5,0.6,0.8,1.3,0.8,2.3s-0.2,1.6-0.7,2.3c-0.6,0.8-1.4,1.2-2.4,1.2
	c-0.8,0-1.5-0.2-2-0.7C263.9,191,263.6,190.3,263.6,189.5L263.6,189.5L263.6,189.5z M270.7,187.3c0-1.1,0.1-2.1,0.3-2.8
	s0.6-1.2,1-1.6c0.4-0.4,1-0.6,1.7-0.6c0.5,0,0.9,0.1,1.3,0.3c0.4,0.2,0.7,0.5,0.9,0.9c0.2,0.4,0.4,0.9,0.6,1.4
	c0.1,0.6,0.2,1.3,0.2,2.3c0,1.1-0.1,2.1-0.3,2.8c-0.2,0.7-0.5,1.2-1,1.6c-0.4,0.4-1,0.6-1.7,0.6c-0.9,0-1.6-0.3-2.1-1
	C271,190.4,270.7,189.1,270.7,187.3L270.7,187.3L270.7,187.3z M271.9,187.3c0,1.6,0.2,2.7,0.5,3.2c0.4,0.5,0.8,0.8,1.3,0.8
	s1-0.3,1.3-0.8c0.4-0.5,0.5-1.6,0.5-3.2s-0.2-2.7-0.5-3.2c-0.4-0.5-0.8-0.8-1.3-0.8s-0.9,0.2-1.2,0.7
	C272.1,184.6,271.9,185.7,271.9,187.3L271.9,187.3L271.9,187.3z"/>
<path d="M282.7,200.5l1.2,0.3c-0.3,1.1-0.7,1.9-1.4,2.4c-0.7,0.6-1.5,0.8-2.4,0.8s-1.8-0.2-2.4-0.6c-0.6-0.4-1.1-1-1.4-1.9
	c-0.3-0.8-0.5-1.7-0.5-2.6c0-1,0.2-1.9,0.5-2.6c0.4-0.8,0.9-1.3,1.6-1.7c0.7-0.4,1.4-0.6,2.2-0.6c0.9,0,1.7,0.2,2.3,0.7
	c0.6,0.5,1.1,1.2,1.3,2.1l-1.2,0.3c-0.2-0.7-0.5-1.2-0.9-1.5c-0.4-0.3-0.9-0.5-1.5-0.5c-0.7,0-1.3,0.2-1.8,0.5s-0.8,0.8-1,1.4
	c-0.2,0.6-0.3,1.2-0.3,1.9c0,0.8,0.1,1.6,0.3,2.2c0.2,0.6,0.6,1.1,1.1,1.4c0.5,0.3,1,0.5,1.6,0.5c0.7,0,1.3-0.2,1.7-0.6
	S282.6,201.3,282.7,200.5L282.7,200.5L282.7,200.5z"/>
<path d="M275.5,242.2l3.5-9.7h1.3l3.8,9.7h-1.4l-1.1-2.9h-3.8l-1,2.9H275.5z M278.2,238.2h3.1l-1-2.7c-0.3-0.8-0.5-1.5-0.6-2
	c-0.1,0.6-0.3,1.2-0.5,1.9L278.2,238.2L278.2,238.2L278.2,238.2z"/>
<path class="st4" d="M265.9,234.5l3.5-9.7h1.3l3.8,9.7h-1.4l-1.1-2.9h-3.8l-1,2.9H265.9L265.9,234.5z M268.5,230.5h3.1l-1-2.7
	c-0.3-0.8-0.5-1.5-0.6-2c-0.1,0.6-0.3,1.2-0.5,1.9L268.5,230.5L268.5,230.5L268.5,230.5z"/>
<path class="st4" d="M263.4,231.1l1.2,0.3c-0.3,1.1-0.7,1.9-1.4,2.4c-0.7,0.6-1.5,0.8-2.4,0.8s-1.8-0.2-2.4-0.6
	c-0.6-0.4-1.1-1-1.4-1.9c-0.3-0.8-0.5-1.7-0.5-2.6c0-1,0.2-1.9,0.5-2.6s0.9-1.3,1.6-1.7c0.7-0.4,1.4-0.6,2.2-0.6
	c0.9,0,1.7,0.2,2.3,0.7s1.1,1.2,1.3,2.1l-1.2,0.3c-0.2-0.7-0.5-1.2-0.9-1.5c-0.4-0.3-0.9-0.5-1.5-0.5c-0.7,0-1.3,0.2-1.8,0.5
	s-0.8,0.8-1,1.4c-0.2,0.6-0.3,1.2-0.3,1.9c0,0.8,0.1,1.6,0.3,2.2c0.2,0.6,0.6,1.1,1.1,1.4c0.5,0.3,1,0.5,1.6,0.5
	c0.7,0,1.3-0.2,1.7-0.6S263.3,232,263.4,231.1L263.4,231.1L263.4,231.1z"/>
<path class="st0" d="M249,242.2l3.5-9.7h1.3l3.8,9.7h-1.4l-1.1-2.9h-3.8l-1,2.9H249L249,242.2z M251.7,238.2h3.1l-1-2.7
	c-0.3-0.8-0.5-1.5-0.6-2c-0.1,0.6-0.3,1.2-0.5,1.9L251.7,238.2L251.7,238.2L251.7,238.2z"/>
<path class="st0" d="M246.5,243.9l1.2,0.3c-0.3,1.1-0.7,1.9-1.4,2.4c-0.7,0.6-1.5,0.8-2.4,0.8s-1.8-0.2-2.4-0.6
	c-0.6-0.4-1.1-1-1.4-1.9s-0.5-1.7-0.5-2.6c0-1,0.2-1.9,0.5-2.6c0.4-0.8,0.9-1.3,1.6-1.7c0.7-0.4,1.4-0.6,2.2-0.6
	c0.9,0,1.7,0.2,2.3,0.7c0.6,0.5,1.1,1.2,1.3,2.1l-1.2,0.3c-0.2-0.7-0.5-1.2-0.9-1.5c-0.4-0.3-0.9-0.5-1.5-0.5
	c-0.7,0-1.3,0.2-1.8,0.5c-0.5,0.4-0.8,0.8-1,1.4c-0.2,0.6-0.3,1.2-0.3,1.9c0,0.8,0.1,1.6,0.3,2.2c0.2,0.6,0.6,1.1,1.1,1.4
	c0.5,0.3,1,0.5,1.6,0.5c0.7,0,1.3-0.2,1.7-0.6C246,245.3,246.4,244.7,246.5,243.9L246.5,243.9L246.5,243.9z"/>
<path class="st5" d="M292.4,210.7l1.2,0.3c-0.3,1.1-0.7,1.9-1.4,2.4c-0.7,0.6-1.5,0.8-2.4,0.8c-1,0-1.8-0.2-2.4-0.6
	c-0.6-0.4-1.1-1-1.4-1.9c-0.3-0.8-0.5-1.7-0.5-2.6c0-1,0.2-1.9,0.5-2.6c0.4-0.8,0.9-1.3,1.6-1.7c0.7-0.4,1.4-0.6,2.2-0.6
	c0.9,0,1.7,0.2,2.3,0.7c0.6,0.5,1.1,1.2,1.3,2.1l-1.2,0.3c-0.2-0.7-0.5-1.2-0.9-1.5c-0.4-0.3-0.9-0.5-1.5-0.5
	c-0.7,0-1.3,0.2-1.8,0.5c-0.5,0.4-0.8,0.8-1,1.4c-0.2,0.6-0.3,1.2-0.3,1.9c0,0.8,0.1,1.6,0.3,2.2c0.2,0.6,0.6,1.1,1.1,1.4
	c0.5,0.3,1,0.5,1.6,0.5c0.7,0,1.3-0.2,1.7-0.6C291.9,212.1,292.2,211.5,292.4,210.7L292.4,210.7L292.4,210.7z"/>
<path class="st5" d="M294.8,214.1l3.5-9.7h1.3l3.8,9.7h-1.4l-1.1-2.9h-3.8l-1,2.9H294.8z M297.5,210.1h3.1l-1-2.7
	c-0.3-0.8-0.5-1.5-0.6-2c-0.1,0.6-0.3,1.2-0.5,1.9L297.5,210.1L297.5,210.1L297.5,210.1z"/>
<path class="st5" d="M309,210.3v-1.1h3.9v3.6c-0.6,0.5-1.2,0.9-1.8,1.1c-0.6,0.3-1.3,0.4-1.9,0.4c-0.9,0-1.7-0.2-2.5-0.6
	c-0.7-0.4-1.3-1-1.7-1.8c-0.4-0.8-0.6-1.6-0.6-2.6s0.2-1.8,0.6-2.6s0.9-1.4,1.6-1.8c0.7-0.4,1.5-0.6,2.4-0.6c0.7,0,1.3,0.1,1.8,0.3
	c0.5,0.2,1,0.5,1.3,0.9c0.3,0.4,0.5,0.9,0.7,1.6l-1.1,0.3c-0.1-0.5-0.3-0.9-0.5-1.2c-0.2-0.3-0.5-0.5-0.9-0.7
	c-0.4-0.2-0.8-0.3-1.3-0.3c-0.6,0-1,0.1-1.4,0.3c-0.4,0.2-0.7,0.4-1,0.7c-0.3,0.3-0.4,0.6-0.6,1c-0.2,0.6-0.4,1.3-0.4,2
	c0,0.9,0.1,1.6,0.4,2.2s0.7,1,1.2,1.3c0.5,0.3,1.1,0.4,1.7,0.4c0.5,0,1-0.1,1.5-0.3c0.5-0.2,0.9-0.4,1.1-0.7v-1.8L309,210.3
	L309,210.3L309,210.3z"/>
<path class="st5" d="M318.7,210.3v-1.1h3.9v3.6c-0.6,0.5-1.2,0.9-1.8,1.1c-0.6,0.3-1.3,0.4-1.9,0.4c-0.9,0-1.7-0.2-2.5-0.6
	c-0.7-0.4-1.3-1-1.7-1.8c-0.4-0.8-0.6-1.6-0.6-2.6s0.2-1.8,0.6-2.6s0.9-1.4,1.6-1.8c0.7-0.4,1.5-0.6,2.4-0.6c0.7,0,1.3,0.1,1.8,0.3
	s1,0.5,1.3,0.9c0.3,0.4,0.5,0.9,0.7,1.6l-1.1,0.3c-0.1-0.5-0.3-0.9-0.5-1.2c-0.2-0.3-0.5-0.5-0.9-0.7c-0.4-0.2-0.8-0.3-1.3-0.3
	c-0.6,0-1,0.1-1.4,0.3c-0.4,0.2-0.7,0.4-1,0.7c-0.3,0.3-0.4,0.6-0.6,1c-0.2,0.6-0.4,1.3-0.4,2c0,0.9,0.1,1.6,0.4,2.2
	c0.3,0.6,0.7,1,1.2,1.3c0.5,0.3,1.1,0.4,1.7,0.4c0.5,0,1-0.1,1.5-0.3c0.5-0.2,0.9-0.4,1.1-0.7v-1.8L318.7,210.3L318.7,210.3
	L318.7,210.3z"/>
<path class="st5" d="M328.3,210.3v-1.1h3.9v3.6c-0.6,0.5-1.2,0.9-1.8,1.1c-0.6,0.3-1.3,0.4-1.9,0.4c-0.9,0-1.7-0.2-2.5-0.6
	c-0.7-0.4-1.3-1-1.7-1.8c-0.4-0.8-0.6-1.6-0.6-2.6s0.2-1.8,0.6-2.6c0.4-0.8,0.9-1.4,1.6-1.8c0.7-0.4,1.5-0.6,2.4-0.6
	c0.7,0,1.3,0.1,1.8,0.3c0.5,0.2,1,0.5,1.3,0.9s0.5,0.9,0.7,1.6l-1.1,0.3c-0.1-0.5-0.3-0.9-0.5-1.2s-0.5-0.5-0.9-0.7
	c-0.4-0.2-0.8-0.3-1.3-0.3c-0.6,0-1,0.1-1.4,0.3c-0.4,0.2-0.7,0.4-1,0.7c-0.3,0.3-0.4,0.6-0.6,1c-0.2,0.6-0.4,1.3-0.4,2
	c0,0.9,0.1,1.6,0.4,2.2s0.7,1,1.2,1.3c0.5,0.3,1.1,0.4,1.7,0.4c0.5,0,1-0.1,1.5-0.3c0.5-0.2,0.9-0.4,1.1-0.7v-1.8L328.3,210.3
	L328.3,210.3L328.3,210.3z"/>
<path class="st5" d="M340.1,204.4h1.2v5.6c0,1-0.1,1.8-0.3,2.3c-0.2,0.6-0.6,1-1.1,1.4s-1.3,0.5-2.1,0.5c-0.9,0-1.6-0.2-2.1-0.5
	c-0.5-0.3-0.9-0.8-1.2-1.4c-0.2-0.6-0.3-1.4-0.3-2.4v-5.6h1.2v5.6c0,0.8,0.1,1.5,0.2,1.9c0.1,0.4,0.4,0.7,0.8,0.9
	c0.4,0.2,0.8,0.3,1.3,0.3c0.9,0,1.5-0.2,1.9-0.6c0.4-0.4,0.6-1.3,0.6-2.5L340.1,204.4L340.1,204.4L340.1,204.4z"/>
<path class="st0" d="M345.2,200.1v-1.1h3.9v3.6c-0.6,0.5-1.2,0.9-1.8,1.1c-0.6,0.3-1.3,0.4-1.9,0.4c-0.9,0-1.7-0.2-2.5-0.6
	c-0.7-0.4-1.3-1-1.7-1.8c-0.4-0.8-0.6-1.6-0.6-2.6c0-1,0.2-1.8,0.6-2.6s0.9-1.4,1.6-1.8c0.7-0.4,1.5-0.6,2.4-0.6
	c0.7,0,1.3,0.1,1.8,0.3c0.5,0.2,1,0.5,1.3,0.9c0.3,0.4,0.5,0.9,0.7,1.6l-1.1,0.3c-0.1-0.5-0.3-0.9-0.5-1.2s-0.5-0.5-0.9-0.7
	c-0.4-0.2-0.8-0.3-1.3-0.3c-0.6,0-1,0.1-1.4,0.3c-0.4,0.2-0.7,0.4-1,0.7c-0.3,0.3-0.4,0.6-0.6,1c-0.2,0.6-0.4,1.3-0.4,2
	c0,0.9,0.1,1.6,0.4,2.2c0.3,0.6,0.7,1,1.2,1.3c0.5,0.3,1.1,0.4,1.7,0.4c0.5,0,1-0.1,1.5-0.3s0.9-0.4,1.1-0.7v-1.8L345.2,200.1
	L345.2,200.1L345.2,200.1z"/>
<path class="st0" d="M352.7,198.8l3.5-9.7h1.3l3.8,9.7h-1.4l-1.1-2.9H355l-1,2.9H352.7z M355.4,194.8h3.1l-1-2.7
	c-0.3-0.8-0.5-1.5-0.6-2c-0.1,0.6-0.3,1.2-0.5,1.9L355.4,194.8L355.4,194.8L355.4,194.8z"/>
<path class="st0" d="M364.8,201.3l3.5-9.7h1.3l3.8,9.7H372l-1.1-2.9h-3.8l-1,2.9H364.8z M367.5,197.3h3.1l-1-2.7
	c-0.3-0.8-0.5-1.5-0.6-2c-0.1,0.6-0.3,1.2-0.5,1.9L367.5,197.3L367.5,197.3L367.5,197.3z"/>
<line class="st2" x1="369.1" y1="189.1" x2="369.1" y2="182.3"/>
<path d="M368.3,171.9l-1.1,0.1c-0.1-0.5-0.2-0.8-0.4-1c-0.3-0.3-0.7-0.5-1.1-0.5c-0.4,0-0.7,0.1-0.9,0.3c-0.4,0.3-0.6,0.7-0.8,1.2
	c-0.2,0.5-0.3,1.3-0.3,2.2c0.3-0.4,0.6-0.8,1-1s0.8-0.3,1.2-0.3c0.8,0,1.4,0.3,1.9,0.9c0.5,0.6,0.8,1.3,0.8,2.3
	c0,0.6-0.1,1.2-0.4,1.7s-0.6,0.9-1,1.2c-0.4,0.3-0.9,0.4-1.5,0.4c-0.9,0-1.7-0.4-2.3-1.1c-0.6-0.7-0.9-1.9-0.9-3.6
	c0-1.9,0.3-3.2,1-4.1c0.6-0.7,1.3-1.1,2.3-1.1c0.7,0,1.3,0.2,1.8,0.6C368,170.6,368.2,171.2,368.3,171.9L368.3,171.9L368.3,171.9z
	 M363.7,176.1c0,0.4,0.1,0.8,0.2,1.2c0.2,0.4,0.4,0.7,0.7,0.9c0.3,0.2,0.6,0.3,0.9,0.3c0.5,0,0.9-0.2,1.2-0.6c0.3-0.4,0.5-1,0.5-1.7
	s-0.2-1.2-0.5-1.6c-0.3-0.4-0.8-0.6-1.3-0.6c-0.5,0-0.9,0.2-1.3,0.6C363.9,175,363.7,175.5,363.7,176.1L363.7,176.1L363.7,176.1z
	 M369.6,174.5c0-1.1,0.1-2.1,0.3-2.8c0.2-0.7,0.6-1.2,1-1.6c0.4-0.4,1-0.6,1.7-0.6c0.5,0,0.9,0.1,1.3,0.3s0.7,0.5,0.9,0.9
	c0.2,0.4,0.4,0.9,0.6,1.4c0.1,0.6,0.2,1.3,0.2,2.3c0,1.1-0.1,2.1-0.3,2.8c-0.2,0.7-0.5,1.2-1,1.6c-0.4,0.4-1,0.6-1.7,0.6
	c-0.9,0-1.6-0.3-2.1-1C369.9,177.6,369.6,176.3,369.6,174.5L369.6,174.5L369.6,174.5z M370.8,174.5c0,1.6,0.2,2.7,0.5,3.2
	s0.8,0.8,1.3,0.8c0.5,0,1-0.3,1.3-0.8s0.5-1.6,0.5-3.2s-0.2-2.7-0.5-3.2s-0.8-0.8-1.3-0.8c-0.5,0-0.9,0.2-1.2,0.7
	C371,171.8,370.8,172.9,370.8,174.5L370.8,174.5z"/>
<path class="st0" d="M379,205.2v-1.1h3.9v3.6c-0.6,0.5-1.2,0.9-1.8,1.1c-0.6,0.3-1.3,0.4-1.9,0.4c-0.9,0-1.7-0.2-2.5-0.6
	c-0.7-0.4-1.3-1-1.7-1.8c-0.4-0.8-0.6-1.6-0.6-2.6c0-1,0.2-1.8,0.6-2.6s0.9-1.4,1.6-1.8c0.7-0.4,1.5-0.6,2.4-0.6
	c0.7,0,1.3,0.1,1.8,0.3c0.5,0.2,1,0.5,1.3,0.9c0.3,0.4,0.5,0.9,0.7,1.6l-1.1,0.3c-0.1-0.5-0.3-0.9-0.5-1.2c-0.2-0.3-0.5-0.5-0.9-0.7
	s-0.8-0.3-1.3-0.3c-0.6,0-1,0.1-1.4,0.3c-0.4,0.2-0.7,0.4-1,0.7c-0.3,0.3-0.4,0.6-0.6,1c-0.2,0.6-0.4,1.3-0.4,2
	c0,0.9,0.1,1.6,0.4,2.2s0.7,1,1.2,1.3s1.1,0.4,1.7,0.4c0.5,0,1-0.1,1.5-0.3s0.9-0.4,1.1-0.7v-1.8L379,205.2L379,205.2L379,205.2z"/>
<path class="st0" d="M385.9,212.1h1.2v5.6c0,1-0.1,1.8-0.3,2.3c-0.2,0.6-0.6,1-1.1,1.4s-1.3,0.5-2.1,0.5s-1.6-0.2-2.1-0.5
	c-0.5-0.3-0.9-0.8-1.2-1.4c-0.2-0.6-0.3-1.4-0.3-2.4V212h1.2v5.6c0,0.8,0.1,1.5,0.2,1.9c0.1,0.4,0.4,0.7,0.8,0.9
	c0.4,0.2,0.8,0.3,1.3,0.3c0.9,0,1.5-0.2,1.9-0.6c0.4-0.4,0.6-1.3,0.6-2.5L385.9,212.1L385.9,212.1L385.9,212.1z"/>
<path class="st0" d="M381.1,224.8h1.2v5.6c0,1-0.1,1.8-0.3,2.3c-0.2,0.6-0.6,1-1.1,1.4c-0.5,0.4-1.3,0.5-2.1,0.5
	c-0.9,0-1.6-0.2-2.1-0.5c-0.5-0.3-0.9-0.8-1.2-1.4c-0.2-0.6-0.3-1.4-0.3-2.4v-5.6h1.2v5.6c0,0.8,0.1,1.5,0.2,1.9
	c0.1,0.4,0.4,0.7,0.8,0.9c0.4,0.2,0.8,0.3,1.3,0.3c0.9,0,1.5-0.2,1.9-0.6c0.4-0.4,0.6-1.3,0.6-2.5L381.1,224.8L381.1,224.8
	L381.1,224.8z"/>
<path class="st0" d="M374.4,241.3l1.2,0.3c-0.3,1.1-0.7,1.9-1.4,2.4c-0.7,0.6-1.5,0.8-2.4,0.8c-1,0-1.8-0.2-2.4-0.6
	c-0.6-0.4-1.1-1-1.4-1.9c-0.3-0.8-0.5-1.7-0.5-2.6c0-1,0.2-1.9,0.5-2.6c0.4-0.8,0.9-1.3,1.6-1.7c0.7-0.4,1.4-0.6,2.2-0.6
	c0.9,0,1.7,0.2,2.3,0.7c0.6,0.5,1.1,1.2,1.3,2.1l-1.2,0.3c-0.2-0.7-0.5-1.2-0.9-1.5c-0.4-0.3-0.9-0.5-1.5-0.5
	c-0.7,0-1.3,0.2-1.8,0.5s-0.8,0.8-1,1.4c-0.2,0.6-0.3,1.2-0.3,1.9c0,0.8,0.1,1.6,0.3,2.2c0.2,0.6,0.6,1.1,1.1,1.4
	c0.5,0.3,1,0.5,1.6,0.5c0.7,0,1.3-0.2,1.7-0.6C373.9,242.8,374.2,242.2,374.4,241.3L374.4,241.3L374.4,241.3z"/>
<path class="st0" d="M362.3,243.9l1.2,0.3c-0.3,1.1-0.7,1.9-1.4,2.4c-0.7,0.6-1.5,0.8-2.4,0.8c-1,0-1.8-0.2-2.4-0.6
	c-0.6-0.4-1.1-1-1.4-1.9c-0.3-0.8-0.5-1.7-0.5-2.6c0-1,0.2-1.9,0.5-2.6c0.4-0.8,0.9-1.3,1.6-1.7c0.7-0.4,1.4-0.6,2.2-0.6
	c0.9,0,1.7,0.2,2.3,0.7c0.6,0.5,1.1,1.2,1.3,2.1l-1.2,0.3c-0.2-0.7-0.5-1.2-0.9-1.5c-0.4-0.3-0.9-0.5-1.5-0.5
	c-0.7,0-1.3,0.2-1.8,0.5s-0.8,0.8-1,1.4c-0.2,0.6-0.3,1.2-0.3,1.9c0,0.8,0.1,1.6,0.3,2.2c0.2,0.6,0.6,1.1,1.1,1.4
	c0.5,0.3,1,0.5,1.6,0.5c0.7,0,1.3-0.2,1.7-0.6C361.8,245.3,362.2,244.7,362.3,243.9L362.3,243.9L362.3,243.9z"/>
<path class="st0" d="M343.1,242.2l3.5-9.7h1.3l3.8,9.7h-1.4l-1.1-2.9h-3.8l-1,2.9H343.1z M345.7,238.2h3.1l-1-2.7
	c-0.3-0.8-0.5-1.5-0.6-2c-0.1,0.6-0.3,1.2-0.5,1.9L345.7,238.2L345.7,238.2L345.7,238.2z"/>
<path class="st5" d="M333.4,234.5l3.5-9.7h1.3l3.8,9.7h-1.4l-1.1-2.9h-3.8l-1,2.9H333.4z M336.1,230.5h3.1l-1-2.7
	c-0.3-0.8-0.5-1.5-0.6-2c-0.1,0.6-0.3,1.2-0.5,1.9L336.1,230.5L336.1,230.5L336.1,230.5z"/>
<path class="st5" d="M330.4,224.8h1.2v5.6c0,1-0.1,1.8-0.3,2.3c-0.2,0.6-0.6,1-1.1,1.4c-0.5,0.4-1.3,0.5-2.1,0.5
	c-0.9,0-1.6-0.2-2.1-0.5c-0.5-0.3-0.9-0.8-1.2-1.4c-0.2-0.6-0.3-1.4-0.3-2.4v-5.6h1.2v5.6c0,0.8,0.1,1.5,0.2,1.9
	c0.1,0.4,0.4,0.7,0.8,0.9c0.4,0.2,0.8,0.3,1.3,0.3c0.9,0,1.5-0.2,1.9-0.6c0.4-0.4,0.6-1.3,0.6-2.5L330.4,224.8L330.4,224.8
	L330.4,224.8z"/>
<path class="st5" d="M320.8,224.8h1.2v5.6c0,1-0.1,1.8-0.3,2.3c-0.2,0.6-0.6,1-1.1,1.4c-0.5,0.4-1.3,0.5-2.1,0.5s-1.6-0.2-2.1-0.5
	c-0.5-0.3-0.9-0.8-1.2-1.4c-0.2-0.6-0.3-1.4-0.3-2.4v-5.6h1.2v5.6c0,0.8,0.1,1.5,0.2,1.9c0.1,0.4,0.4,0.7,0.8,0.9s0.8,0.3,1.3,0.3
	c0.9,0,1.5-0.2,1.9-0.6c0.4-0.4,0.6-1.3,0.6-2.5L320.8,224.8L320.8,224.8L320.8,224.8z"/>
<path class="st5" d="M311.1,224.8h1.2v5.6c0,1-0.1,1.8-0.3,2.3c-0.2,0.6-0.6,1-1.1,1.4c-0.5,0.4-1.3,0.5-2.1,0.5
	c-0.9,0-1.6-0.2-2.1-0.5c-0.5-0.3-0.9-0.8-1.2-1.4c-0.2-0.6-0.3-1.4-0.3-2.4v-5.6h1.2v5.6c0,0.8,0.1,1.5,0.2,1.9
	c0.1,0.4,0.4,0.7,0.8,0.9s0.8,0.3,1.3,0.3c0.9,0,1.5-0.2,1.9-0.6c0.4-0.4,0.6-1.3,0.6-2.5L311.1,224.8L311.1,224.8L311.1,224.8z"/>
<line class="st2" x1="308.8" y1="235.9" x2="308.8" y2="242.8"/>
<path d="M302.3,248.2V247h5.9v0.9c-0.6,0.7-1.2,1.5-1.7,2.6c-0.6,1.1-1,2.2-1.3,3.4c-0.2,0.8-0.4,1.7-0.4,2.7h-1.2
	c0-0.8,0.2-1.7,0.4-2.8c0.3-1.1,0.7-2.1,1.2-3.1c0.5-1,1-1.9,1.6-2.5H302.3z M309.3,251.8c0-1.1,0.1-2.1,0.3-2.8s0.6-1.2,1-1.6
	c0.4-0.4,1-0.6,1.7-0.6c0.5,0,0.9,0.1,1.3,0.3c0.4,0.2,0.7,0.5,0.9,0.9c0.2,0.4,0.4,0.9,0.6,1.4c0.1,0.6,0.2,1.3,0.2,2.3
	c0,1.1-0.1,2.1-0.3,2.8c-0.2,0.7-0.5,1.2-1,1.6c-0.4,0.4-1,0.6-1.7,0.6c-0.9,0-1.6-0.3-2.1-1C309.6,254.9,309.3,253.6,309.3,251.8
	L309.3,251.8L309.3,251.8z M310.5,251.8c0,1.6,0.2,2.7,0.5,3.2s0.8,0.8,1.3,0.8c0.5,0,1-0.3,1.3-0.8c0.4-0.5,0.5-1.6,0.5-3.2
	c0-1.6-0.2-2.7-0.5-3.2c-0.4-0.5-0.8-0.8-1.3-0.8c-0.5,0-0.9,0.2-1.2,0.7C310.7,249.1,310.5,250.2,310.5,251.8L310.5,251.8z"/>
<path class="st5" d="M301.5,224.8h1.2v5.6c0,1-0.1,1.8-0.3,2.3c-0.2,0.6-0.6,1-1.1,1.4c-0.5,0.4-1.3,0.5-2.1,0.5
	c-0.9,0-1.6-0.2-2.1-0.5s-0.9-0.8-1.2-1.4c-0.2-0.6-0.3-1.4-0.3-2.4v-5.6h1.2v5.6c0,0.8,0.1,1.5,0.2,1.9c0.1,0.4,0.4,0.7,0.8,0.9
	c0.4,0.2,0.8,0.3,1.3,0.3c0.9,0,1.5-0.2,1.9-0.6c0.4-0.4,0.6-1.3,0.6-2.5L301.5,224.8L301.5,224.8L301.5,224.8z"/>
<path class="st5" d="M289.7,230.7v-1.1h3.9v3.6c-0.6,0.5-1.2,0.9-1.8,1.1c-0.6,0.3-1.3,0.4-1.9,0.4c-0.9,0-1.7-0.2-2.5-0.6
	c-0.7-0.4-1.3-1-1.7-1.8c-0.4-0.8-0.6-1.6-0.6-2.6c0-1,0.2-1.8,0.6-2.6s0.9-1.4,1.6-1.8c0.7-0.4,1.5-0.6,2.4-0.6
	c0.7,0,1.3,0.1,1.8,0.3c0.5,0.2,1,0.5,1.3,0.9c0.3,0.4,0.5,0.9,0.7,1.6l-1.1,0.3c-0.1-0.5-0.3-0.9-0.5-1.2c-0.2-0.3-0.5-0.5-0.9-0.7
	c-0.4-0.2-0.8-0.3-1.3-0.3c-0.6,0-1,0.1-1.4,0.3c-0.4,0.2-0.7,0.4-1,0.7c-0.3,0.3-0.4,0.6-0.6,1c-0.2,0.6-0.4,1.3-0.4,2
	c0,0.9,0.1,1.6,0.4,2.2c0.3,0.6,0.7,1,1.2,1.3c0.5,0.3,1.1,0.4,1.7,0.4c0.5,0,1-0.1,1.5-0.3s0.9-0.4,1.1-0.7v-1.8L289.7,230.7
	L289.7,230.7L289.7,230.7z"/>
<line class="st2" x1="156.8" y1="214.6" x2="156.8" y2="224.5"/>
<line class="st2" x1="166.4" y1="214.6" x2="166.4" y2="224.5"/>
<line class="st2" x1="176.2" y1="214.2" x2="176.2" y2="224.1"/>
<line class="st2" x1="186.1" y1="214.8" x2="186.1" y2="224.7"/>
<line class="st2" x1="195.3" y1="214.2" x2="195.3" y2="224.1"/>
<line class="st2" x1="205.4" y1="214.1" x2="205.4" y2="224"/>
<line class="st2" x1="215" y1="214.1" x2="215" y2="224"/>
<line class="st2" x1="260.9" y1="214.8" x2="260.9" y2="224.7"/>
<line class="st2" x1="270.1" y1="214.2" x2="270.1" y2="224.1"/>
<line class="st2" x1="290.1" y1="214.4" x2="290.1" y2="224.3"/>
<line class="st2" x1="299" y1="214.1" x2="299" y2="224"/>
<line class="st2" x1="308.8" y1="214.8" x2="308.8" y2="224.7"/>
<line class="st2" x1="318.3" y1="214.1" x2="318.3" y2="224"/>
<line class="st2" x1="328" y1="214.8" x2="328" y2="224.7"/>
<line class="st2" x1="337.7" y1="214.2" x2="337.7" y2="224.1"/>
<line class="st2" x1="121.2" y1="158.3" x2="110.6" y2="158.3"/>
<line class="st2" x1="121.2" y1="168.8" x2="110.6" y2="168.8"/>
<line class="st2" x1="120.5" y1="178.7" x2="109.9" y2="178.7"/>
<line class="st2" x1="121.2" y1="188.4" x2="110.6" y2="188.4"/>
<line class="st2" x1="120.4" y1="199.1" x2="109.8" y2="199.1"/>
<line class="st2" x1="121" y1="210.1" x2="110.4" y2="210.1"/>
<line class="st2" x1="121.4" y1="219.7" x2="110.7" y2="219.7"/>
<line class="st2" x1="121" y1="230.5" x2="110.4" y2="230.5"/>
<line class="st2" x1="121.4" y1="239.3" x2="110.7" y2="239.3"/>
<line class="st2" x1="121" y1="251" x2="110.4" y2="251"/>
<line class="st2" x1="121.4" y1="260.3" x2="110.7" y2="260.3"/>
<line class="st2" x1="121.2" y1="270.3" x2="110.6" y2="270.3"/>
<line class="st2" x1="121.4" y1="280" x2="110.7" y2="280"/>
<line class="st2" x1="152.5" y1="228.9" x2="133.3" y2="228.9"/>
<g>
	<text transform="matrix(1 0 0 1 13.3868 39.8944)" class="st6 st7">D16-05 aptamer</text>
</g>
<text transform="matrix(1 0 0 1 21.5635 285.2904)" class="st6 st8">5</text>
<text transform="matrix(1 0 0 1 29.041 285.2904)" class="st6 st8">’</text>
<text transform="matrix(1 0 0 1 220.7149 287.018)" class="st6 st8">3</text>
<text transform="matrix(1 0 0 1 228.1924 287.018)" class="st6 st8">’</text>
</svg>
