<?xml version="1.0" encoding="utf-8"?>
<!-- Generator: Adobe Illustrator 25.2.0, SVG Export Plug-In . SVG Version: 6.00 Build 0)  -->
<svg version="1.1" id="_图层_1" xmlns="http://www.w3.org/2000/svg" xmlns:xlink="http://www.w3.org/1999/xlink" x="0px" y="0px"
	 viewBox="0 0 400 400" style="enable-background:new 0 0 400 400;" xml:space="preserve">
<style type="text/css">
	.st0{fill:#32CD32;}
	.st1{fill:#09FEFE;}
	.st2{fill:none;stroke:#000000;stroke-width:1.33;stroke-linejoin:round;}
	.st3{fill:#C2C2FF;}
	.st4{fill:#008080;}
	.st5{fill:#FFC0CB;}
	.st6{fill:none;stroke:#000000;stroke-width:0.25;stroke-linejoin:round;}
	.st7{font-family:'ArialMT';}
	.st8{font-size:24px;}
	.st9{font-size:14.2571px;}
</style>
<path class="st0" d="M27.2,281.3v-1.2h4.1v3.8c-0.6,0.5-1.3,1-1.9,1.2c-0.6,0.3-1.4,0.4-2,0.4c-1,0-1.8-0.2-2.7-0.6
	c-0.8-0.4-1.4-1.1-1.8-1.9c-0.4-0.8-0.6-1.7-0.6-2.8s0.2-1.9,0.6-2.8c0.4-0.8,1-1.5,1.7-1.9c0.7-0.4,1.6-0.6,2.5-0.6
	c0.7,0,1.4,0.1,1.9,0.3s1.1,0.5,1.4,1c0.3,0.4,0.5,1,0.7,1.7l-1.2,0.3c-0.1-0.5-0.3-1-0.5-1.3c-0.2-0.3-0.5-0.5-1-0.7
	c-0.4-0.2-0.8-0.3-1.4-0.3c-0.6,0-1.1,0.1-1.5,0.3c-0.4,0.2-0.7,0.4-1.1,0.7c-0.3,0.3-0.4,0.6-0.6,1.1c-0.2,0.6-0.4,1.4-0.4,2.1
	c0,1,0.1,1.7,0.4,2.3c0.3,0.6,0.7,1.1,1.3,1.4c0.5,0.3,1.2,0.4,1.8,0.4c0.5,0,1.1-0.1,1.6-0.3c0.5-0.2,1-0.4,1.2-0.7v-1.9
	L27.2,281.3L27.2,281.3L27.2,281.3z"/>
<path class="st0" d="M37.5,281.3v-1.2h4.1v3.8c-0.6,0.5-1.3,1-1.9,1.2c-0.6,0.3-1.4,0.4-2,0.4c-1,0-1.8-0.2-2.7-0.6
	c-0.7-0.4-1.4-1.1-1.8-1.9s-0.6-1.7-0.6-2.8s0.2-1.9,0.6-2.8c0.4-0.8,1-1.5,1.7-1.9s1.6-0.6,2.5-0.6c0.7,0,1.4,0.1,1.9,0.3
	s1.1,0.5,1.4,1s0.5,1,0.7,1.7l-1.2,0.3c-0.1-0.5-0.3-1-0.5-1.3c-0.2-0.3-0.5-0.5-1-0.7c-0.4-0.2-0.8-0.3-1.4-0.3
	c-0.6,0-1.1,0.1-1.5,0.3c-0.4,0.2-0.7,0.4-1.1,0.7c-0.3,0.3-0.4,0.6-0.6,1.1c-0.2,0.6-0.4,1.4-0.4,2.1c0,1,0.1,1.7,0.4,2.3
	c0.3,0.6,0.7,1.1,1.3,1.4c0.5,0.3,1.2,0.4,1.8,0.4c0.5,0,1.1-0.1,1.6-0.3c0.5-0.2,1-0.4,1.2-0.7v-1.9L37.5,281.3L37.5,281.3
	L37.5,281.3z"/>
<path class="st0" d="M42.9,285.4l3.7-10.3H48l4,10.3h-1.5l-1.2-3.1h-4l-1.1,3.1H42.9L42.9,285.4z M45.8,281.1h3.3l-1.1-2.9
	c-0.3-0.8-0.5-1.6-0.6-2.1c-0.1,0.6-0.3,1.3-0.5,2L45.8,281.1L45.8,281.1L45.8,281.1z"/>
<path class="st0" d="M58,281.3v-1.2h4.1v3.8c-0.6,0.5-1.3,1-1.9,1.2c-0.6,0.3-1.4,0.4-2,0.4c-1,0-1.8-0.2-2.7-0.6
	c-0.8-0.4-1.4-1.1-1.8-1.9c-0.4-0.8-0.6-1.7-0.6-2.8s0.2-1.9,0.6-2.8c0.4-0.8,1-1.5,1.7-1.9c0.7-0.4,1.6-0.6,2.5-0.6
	c0.7,0,1.4,0.1,1.9,0.3s1.1,0.5,1.4,1c0.3,0.4,0.5,1,0.7,1.7l-1.2,0.3c-0.1-0.5-0.3-1-0.5-1.3c-0.2-0.3-0.5-0.5-1-0.7
	c-0.4-0.2-0.8-0.3-1.4-0.3c-0.6,0-1.1,0.1-1.5,0.3s-0.7,0.4-1.1,0.7c-0.3,0.3-0.4,0.6-0.6,1.1c-0.2,0.6-0.4,1.4-0.4,2.1
	c0,1,0.1,1.7,0.4,2.3c0.3,0.6,0.7,1.1,1.3,1.4c0.5,0.3,1.2,0.4,1.8,0.4c0.5,0,1.1-0.1,1.6-0.3c0.5-0.2,1-0.4,1.2-0.7v-1.9L58,281.3
	L58,281.3L58,281.3z"/>
<path class="st0" d="M71,281.8l1.3,0.3c-0.3,1.2-0.7,2-1.5,2.5c-0.7,0.6-1.6,0.8-2.5,0.8c-1.1,0-1.9-0.2-2.5-0.6
	c-0.6-0.4-1.2-1.1-1.5-2c-0.3-0.8-0.5-1.8-0.5-2.8c0-1.1,0.2-2,0.5-2.8c0.4-0.8,1-1.4,1.7-1.8c0.7-0.4,1.5-0.6,2.3-0.6
	c1,0,1.8,0.2,2.4,0.7s1.2,1.3,1.4,2.2l-1.3,0.3c-0.2-0.7-0.5-1.3-1-1.6c-0.4-0.3-1-0.5-1.6-0.5c-0.7,0-1.4,0.2-1.9,0.5
	c-0.5,0.3-0.8,0.8-1.1,1.5c-0.2,0.6-0.3,1.3-0.3,2c0,0.8,0.1,1.7,0.3,2.3c0.2,0.6,0.6,1.2,1.2,1.5c0.5,0.3,1.1,0.5,1.7,0.5
	c0.7,0,1.4-0.2,1.8-0.6C70.5,283.2,70.8,282.6,71,281.8L71,281.8L71,281.8z"/>
<path class="st0" d="M80.7,275.1H82v5.9c0,1.1-0.1,1.9-0.3,2.4c-0.2,0.6-0.6,1.1-1.2,1.5c-0.5,0.4-1.4,0.5-2.2,0.5s-1.7-0.2-2.2-0.5
	s-1-0.8-1.3-1.5c-0.2-0.6-0.3-1.5-0.3-2.5V275h1.3v5.9c0,0.8,0.1,1.6,0.2,2s0.4,0.7,0.8,1c0.4,0.2,0.8,0.3,1.4,0.3
	c1,0,1.6-0.2,2-0.6s0.6-1.4,0.6-2.7L80.7,275.1L80.7,275.1L80.7,275.1z"/>
<path class="st0" d="M91.5,281.8l1.3,0.3c-0.3,1.2-0.7,2-1.5,2.5c-0.7,0.6-1.6,0.8-2.5,0.8c-1.1,0-1.9-0.2-2.5-0.6s-1.2-1.1-1.5-2
	c-0.3-0.8-0.5-1.8-0.5-2.8c0-1.1,0.2-2,0.5-2.8c0.4-0.8,1-1.4,1.7-1.8c0.7-0.4,1.5-0.6,2.3-0.6c1,0,1.8,0.2,2.4,0.7
	c0.6,0.5,1.2,1.3,1.4,2.2l-1.3,0.3c-0.2-0.7-0.5-1.3-1-1.6c-0.4-0.3-1-0.5-1.6-0.5c-0.7,0-1.4,0.2-1.9,0.5c-0.5,0.3-0.8,0.8-1.1,1.5
	c-0.2,0.6-0.3,1.3-0.3,2c0,0.8,0.1,1.7,0.3,2.3c0.2,0.6,0.6,1.2,1.2,1.5c0.5,0.3,1.1,0.5,1.7,0.5c0.7,0,1.4-0.2,1.8-0.6
	C91,283.2,91.3,282.6,91.5,281.8L91.5,281.8L91.5,281.8z"/>
<path class="st1" d="M98.9,281.3v-1.2h4.1v3.8c-0.6,0.5-1.3,1-1.9,1.2c-0.6,0.3-1.4,0.4-2,0.4c-1,0-1.8-0.2-2.7-0.6
	s-1.4-1.1-1.8-1.9c-0.4-0.8-0.6-1.7-0.6-2.8s0.2-1.9,0.6-2.8c0.4-0.8,1-1.5,1.7-1.9s1.6-0.6,2.5-0.6c0.7,0,1.4,0.1,1.9,0.3
	c0.5,0.2,1.1,0.5,1.4,1s0.5,1,0.7,1.7l-1.2,0.3c-0.1-0.5-0.3-1-0.5-1.3c-0.2-0.3-0.5-0.5-1-0.7c-0.4-0.2-0.8-0.3-1.4-0.3
	c-0.6,0-1.1,0.1-1.5,0.3c-0.4,0.2-0.7,0.4-1.1,0.7c-0.3,0.3-0.4,0.6-0.6,1.1c-0.2,0.6-0.4,1.4-0.4,2.1c0,1,0.1,1.7,0.4,2.3
	c0.3,0.6,0.7,1.1,1.3,1.4c0.5,0.3,1.2,0.4,1.8,0.4c0.5,0,1.1-0.1,1.6-0.3c0.5-0.2,1-0.4,1.2-0.7v-1.9L98.9,281.3L98.9,281.3
	L98.9,281.3z"/>
<path class="st1" d="M98.9,270.5v-1.2h4.1v3.8c-0.6,0.5-1.3,1-1.9,1.2c-0.6,0.3-1.4,0.4-2,0.4c-1,0-1.8-0.2-2.7-0.6
	c-0.7-0.4-1.4-1.1-1.8-1.9c-0.4-0.8-0.6-1.7-0.6-2.8c0-1.1,0.2-1.9,0.6-2.8c0.4-0.8,1-1.5,1.7-1.9c0.7-0.4,1.6-0.6,2.5-0.6
	c0.7,0,1.4,0.1,1.9,0.3c0.5,0.2,1.1,0.5,1.4,1s0.5,1,0.7,1.7l-1.2,0.3c-0.1-0.5-0.3-1-0.5-1.3c-0.2-0.3-0.5-0.5-1-0.7
	c-0.4-0.2-0.8-0.3-1.4-0.3c-0.6,0-1.1,0.1-1.5,0.3c-0.4,0.2-0.7,0.4-1.1,0.7s-0.4,0.6-0.6,1.1c-0.2,0.6-0.4,1.4-0.4,2.1
	c0,1,0.1,1.7,0.4,2.3c0.3,0.6,0.7,1.1,1.3,1.4c0.5,0.3,1.2,0.4,1.8,0.4c0.5,0,1.1-0.1,1.6-0.3c0.5-0.2,1-0.4,1.2-0.7v-1.9
	L98.9,270.5L98.9,270.5L98.9,270.5z"/>
<path class="st1" d="M101.2,253.4h1.3v5.9c0,1.1-0.1,1.9-0.3,2.4c-0.2,0.6-0.6,1.1-1.2,1.5c-0.5,0.4-1.4,0.5-2.2,0.5
	c-1,0-1.7-0.2-2.2-0.5c-0.5-0.3-1-0.8-1.3-1.5c-0.2-0.6-0.3-1.5-0.3-2.5v-5.9h1.3v5.9c0,0.8,0.1,1.6,0.2,2s0.4,0.7,0.8,1
	c0.4,0.2,0.8,0.3,1.4,0.3c1,0,1.6-0.2,2-0.6c0.4-0.4,0.6-1.4,0.6-2.7L101.2,253.4L101.2,253.4L101.2,253.4z"/>
<line class="st2" x1="91.9" y1="258" x2="85" y2="258"/>
<path d="M74.8,263.7h-1.2v-8.1c-0.3,0.3-0.6,0.5-1.2,0.8c-0.4,0.3-0.8,0.5-1.3,0.6v-1.3c0.6-0.3,1.3-0.7,1.8-1.2
	c0.5-0.4,0.8-1,1.1-1.4h0.7V263.7L74.8,263.7L74.8,263.7z M77.9,258.6c0-1.2,0.1-2.2,0.3-3c0.2-0.7,0.6-1.3,1.1-1.7
	c0.4-0.4,1.1-0.6,1.8-0.6c0.5,0,1,0.1,1.4,0.3c0.4,0.2,0.7,0.5,1,1c0.2,0.4,0.4,1,0.6,1.5c0.1,0.6,0.2,1.4,0.2,2.4
	c0,1.2-0.1,2.2-0.3,3c-0.2,0.7-0.5,1.3-1.1,1.7c-0.4,0.4-1.1,0.6-1.8,0.6c-1,0-1.7-0.3-2.2-1.1C78.2,261.9,77.9,260.5,77.9,258.6
	L77.9,258.6L77.9,258.6z M79.2,258.6c0,1.7,0.2,2.9,0.5,3.4c0.4,0.5,0.8,0.8,1.4,0.8c0.5,0,1.1-0.3,1.4-0.8c0.4-0.5,0.5-1.7,0.5-3.4
	c0-1.7-0.2-2.9-0.5-3.4c-0.4-0.5-0.8-0.8-1.4-0.8c-0.5,0-1,0.2-1.3,0.7C79.4,255.8,79.2,256.9,79.2,258.6L79.2,258.6L79.2,258.6z"/>
<path class="st1" d="M94.2,252.9l3.7-10.3h1.4l4,10.3h-1.5l-1.2-3.2h-4l-1.1,3.1h-1.4V252.9z M96.9,248.7h3.3l-1.1-2.9
	c-0.3-0.8-0.5-1.6-0.6-2.1c-0.1,0.6-0.3,1.3-0.5,2L96.9,248.7L96.9,248.7L96.9,248.7z"/>
<path class="st1" d="M98.9,237.9v-1.2h4.1v3.8c-0.6,0.5-1.3,1-1.9,1.2c-0.6,0.3-1.4,0.4-2,0.4c-1,0-1.8-0.2-2.7-0.6
	c-0.7-0.4-1.4-1.1-1.8-1.9c-0.4-0.8-0.6-1.7-0.6-2.8c0-1.1,0.2-1.9,0.6-2.8c0.4-0.8,1-1.5,1.7-1.9s1.6-0.6,2.5-0.6
	c0.7,0,1.4,0.1,1.9,0.3c0.5,0.2,1.1,0.5,1.4,1c0.3,0.4,0.5,1,0.7,1.7l-1.2,0.3c-0.1-0.5-0.3-1-0.5-1.3c-0.2-0.3-0.5-0.5-1-0.7
	s-0.8-0.3-1.4-0.3c-0.6,0-1.1,0.1-1.5,0.3c-0.4,0.2-0.7,0.4-1.1,0.7c-0.3,0.3-0.4,0.6-0.6,1.1c-0.2,0.6-0.4,1.4-0.4,2.1
	c0,1,0.1,1.7,0.4,2.3c0.3,0.6,0.7,1.1,1.3,1.4c0.5,0.3,1.2,0.4,1.8,0.4c0.5,0,1.1-0.1,1.6-0.3c0.5-0.2,1-0.4,1.2-0.7v-1.9
	L98.9,237.9L98.9,237.9L98.9,237.9z"/>
<path class="st1" d="M101.2,220.9h1.3v5.9c0,1.1-0.1,1.9-0.3,2.4c-0.2,0.6-0.6,1.1-1.2,1.5c-0.5,0.4-1.4,0.5-2.2,0.5
	c-1,0-1.7-0.2-2.2-0.5c-0.5-0.3-1-0.8-1.3-1.5c-0.2-0.6-0.3-1.5-0.3-2.5v-5.9h1.3v5.9c0,0.8,0.1,1.6,0.2,2s0.4,0.7,0.8,1
	s0.8,0.3,1.4,0.3c1,0,1.6-0.2,2-0.6c0.4-0.4,0.6-1.4,0.6-2.7L101.2,220.9L101.2,220.9L101.2,220.9z"/>
<path class="st1" d="M114.6,231.2l3.7-10.3h1.4l4,10.3h-1.5l-1.2-3.1h-4l-1.1,3.1H114.6L114.6,231.2z M117.4,226.9h3.3l-1.1-2.9
	c-0.3-0.8-0.5-1.6-0.6-2.1c-0.1,0.6-0.3,1.3-0.5,2L117.4,226.9L117.4,226.9L117.4,226.9z"/>
<path class="st1" d="M122.2,238.4l1.3,0.3c-0.3,1.2-0.7,2-1.5,2.5c-0.7,0.6-1.6,0.8-2.5,0.8s-1.9-0.2-2.5-0.6
	c-0.6-0.4-1.2-1.1-1.5-2s-0.5-1.8-0.5-2.8c0-1.1,0.2-2,0.5-2.8c0.4-0.8,1-1.4,1.7-1.8c0.7-0.4,1.5-0.6,2.3-0.6c1,0,1.8,0.2,2.4,0.7
	c0.6,0.5,1.2,1.3,1.4,2.2l-1.3,0.3c-0.2-0.7-0.5-1.3-1-1.6c-0.4-0.3-1-0.5-1.6-0.5c-0.7,0-1.4,0.2-1.9,0.5c-0.5,0.4-0.8,0.8-1.1,1.5
	c-0.2,0.6-0.3,1.3-0.3,2c0,0.8,0.1,1.7,0.3,2.3c0.2,0.6,0.6,1.2,1.2,1.5c0.5,0.3,1.1,0.5,1.7,0.5c0.7,0,1.4-0.2,1.8-0.6
	C121.6,240,122.1,239.3,122.2,238.4L122.2,238.4L122.2,238.4z"/>
<path class="st1" d="M121.6,242.6h1.3v5.9c0,1.1-0.1,1.9-0.3,2.4c-0.2,0.6-0.6,1.1-1.2,1.5c-0.5,0.4-1.4,0.5-2.2,0.5
	s-1.7-0.2-2.2-0.5c-0.5-0.3-1-0.8-1.3-1.5c-0.2-0.6-0.3-1.5-0.3-2.5v-5.9h1.3v5.9c0,0.8,0.1,1.6,0.2,2c0.1,0.4,0.4,0.7,0.8,1
	c0.4,0.2,0.8,0.3,1.4,0.3c1,0,1.6-0.2,2-0.6c0.4-0.4,0.6-1.4,0.6-2.7L121.6,242.6L121.6,242.6L121.6,242.6z"/>
<path class="st1" d="M114.6,263.7l3.7-10.3h1.4l4,10.3h-1.5l-1.2-3.1h-4l-1.1,3.1H114.6L114.6,263.7z M117.4,259.5h3.3l-1.1-2.9
	c-0.3-0.8-0.5-1.6-0.6-2.1c-0.1,0.6-0.3,1.3-0.5,2L117.4,259.5L117.4,259.5L117.4,259.5z"/>
<path class="st1" d="M122.2,270.9l1.3,0.3c-0.3,1.2-0.7,2-1.5,2.5c-0.7,0.5-1.6,0.8-2.5,0.8s-1.9-0.2-2.5-0.6
	c-0.6-0.4-1.2-1.1-1.5-2c-0.3-0.8-0.5-1.8-0.5-2.8c0-1.1,0.2-2,0.5-2.8s1-1.4,1.7-1.8c0.7-0.4,1.5-0.6,2.3-0.6c1,0,1.8,0.2,2.4,0.7
	c0.6,0.5,1.2,1.3,1.4,2.2l-1.3,0.3c-0.2-0.7-0.5-1.3-1-1.6c-0.4-0.3-1-0.5-1.6-0.5c-0.7,0-1.4,0.2-1.9,0.5c-0.5,0.4-0.8,0.8-1.1,1.5
	c-0.2,0.6-0.3,1.3-0.3,2c0,0.8,0.1,1.7,0.3,2.3c0.2,0.6,0.6,1.2,1.2,1.5c0.5,0.3,1.1,0.5,1.7,0.5c0.7,0,1.4-0.2,1.8-0.6
	C121.6,272.4,122.1,271.8,122.2,270.9L122.2,270.9L122.2,270.9z"/>
<path class="st1" d="M122.2,281.8l1.3,0.3c-0.3,1.2-0.7,2-1.5,2.5c-0.7,0.6-1.6,0.8-2.5,0.8s-1.9-0.2-2.5-0.6
	c-0.6-0.4-1.2-1.1-1.5-2c-0.3-0.8-0.5-1.8-0.5-2.8c0-1.1,0.2-2,0.5-2.8c0.4-0.8,1-1.4,1.7-1.8c0.7-0.4,1.5-0.6,2.3-0.6
	c1,0,1.8,0.2,2.4,0.7c0.6,0.5,1.2,1.3,1.4,2.2l-1.3,0.3c-0.2-0.7-0.5-1.3-1-1.6c-0.4-0.3-1-0.5-1.6-0.5c-0.7,0-1.4,0.2-1.9,0.5
	c-0.5,0.4-0.8,0.8-1.1,1.5c-0.2,0.6-0.3,1.3-0.3,2c0,0.8,0.1,1.7,0.3,2.3c0.2,0.6,0.6,1.2,1.2,1.5c0.5,0.3,1.1,0.5,1.7,0.5
	c0.7,0,1.4-0.2,1.8-0.6C121.6,283.2,122.1,282.6,122.2,281.8L122.2,281.8L122.2,281.8z"/>
<path class="st0" d="M131.8,275.1h1.3v5.9c0,1.1-0.1,1.9-0.3,2.4c-0.2,0.6-0.6,1.1-1.2,1.5s-1.4,0.5-2.2,0.5c-0.8,0-1.7-0.2-2.2-0.5
	c-0.5-0.3-1-0.8-1.3-1.5c-0.2-0.6-0.3-1.5-0.3-2.5V275h1.3v5.9c0,0.8,0.1,1.6,0.2,2c0.1,0.4,0.4,0.7,0.8,1c0.4,0.2,0.8,0.3,1.4,0.3
	c1,0,1.6-0.2,2-0.6c0.4-0.4,0.6-1.4,0.6-2.7L131.8,275.1L131.8,275.1L131.8,275.1z"/>
<path class="st0" d="M142.6,281.8l1.3,0.3c-0.3,1.2-0.7,2-1.5,2.5c-0.7,0.6-1.6,0.8-2.5,0.8s-1.9-0.2-2.5-0.6
	c-0.6-0.4-1.2-1.1-1.5-2c-0.3-0.8-0.5-1.8-0.5-2.8c0-1.1,0.2-2,0.5-2.8c0.4-0.8,1-1.4,1.7-1.8c0.7-0.4,1.5-0.6,2.3-0.6
	c1,0,1.8,0.2,2.4,0.7c0.6,0.5,1.2,1.3,1.4,2.2l-1.3,0.3c-0.2-0.7-0.5-1.3-1-1.6c-0.4-0.3-1-0.5-1.6-0.5c-0.7,0-1.4,0.2-1.9,0.5
	c-0.5,0.4-0.8,0.8-1.1,1.5c-0.2,0.6-0.3,1.3-0.3,2c0,0.8,0.1,1.7,0.3,2.3c0.2,0.6,0.6,1.2,1.2,1.5c0.5,0.3,1.1,0.5,1.7,0.5
	c0.7,0,1.4-0.2,1.8-0.6C142.1,283.2,142.5,282.6,142.6,281.8L142.6,281.8L142.6,281.8z"/>
<path class="st0" d="M150.1,281.3v-1.2h4.1v3.8c-0.6,0.5-1.3,1-1.9,1.2c-0.6,0.3-1.4,0.4-2,0.4c-1,0-1.8-0.2-2.7-0.6
	c-0.7-0.4-1.4-1.1-1.8-1.9s-0.6-1.7-0.6-2.8s0.2-1.9,0.6-2.8c0.4-0.8,1-1.5,1.7-1.9c0.7-0.4,1.6-0.6,2.5-0.6c0.7,0,1.4,0.1,1.9,0.3
	s1.1,0.5,1.4,1c0.3,0.4,0.5,1,0.7,1.7l-1.2,0.3c-0.1-0.5-0.3-1-0.5-1.3c-0.2-0.3-0.5-0.5-1-0.7c-0.4-0.2-0.8-0.3-1.4-0.3
	c-0.6,0-1.1,0.1-1.5,0.3c-0.4,0.2-0.7,0.4-1.1,0.7c-0.3,0.3-0.4,0.6-0.6,1.1c-0.2,0.6-0.4,1.4-0.4,2.1c0,1,0.1,1.7,0.4,2.3
	c0.3,0.6,0.7,1.1,1.3,1.4c0.5,0.3,1.2,0.4,1.8,0.4c0.5,0,1.1-0.1,1.6-0.3s1-0.4,1.2-0.7v-1.9L150.1,281.3L150.1,281.3L150.1,281.3z"
	/>
<path class="st0" d="M155.6,285.4l3.7-10.3h1.4l4,10.3h-1.5l-1.2-3.1h-4l-1.1,3.1H155.6L155.6,285.4z M158.3,281.1h3.3l-1.1-2.9
	c-0.3-0.8-0.5-1.6-0.6-2.1c-0.1,0.6-0.3,1.3-0.5,2L158.3,281.1L158.3,281.1L158.3,281.1z"/>
<path class="st0" d="M170.5,281.3v-1.2h4.1v3.8c-0.6,0.5-1.3,1-1.9,1.2c-0.6,0.3-1.4,0.4-2,0.4c-1,0-1.8-0.2-2.7-0.6
	c-0.7-0.4-1.4-1.1-1.8-1.9s-0.6-1.7-0.6-2.8s0.2-1.9,0.6-2.8c0.4-0.8,1-1.5,1.7-1.9s1.6-0.6,2.5-0.6c0.7,0,1.4,0.1,1.9,0.3
	s1.1,0.5,1.4,1s0.5,1,0.7,1.7l-1.2,0.3c-0.1-0.5-0.3-1-0.5-1.3c-0.2-0.3-0.5-0.5-1-0.7c-0.4-0.2-0.8-0.3-1.4-0.3
	c-0.6,0-1.1,0.1-1.5,0.3s-0.7,0.4-1.1,0.7c-0.3,0.3-0.4,0.6-0.6,1.1c-0.2,0.6-0.4,1.4-0.4,2.1c0,1,0.1,1.7,0.4,2.3
	c0.3,0.6,0.7,1.1,1.3,1.4c0.5,0.3,1.2,0.4,1.8,0.4c0.5,0,1.1-0.1,1.6-0.3c0.5-0.2,1-0.4,1.2-0.7v-1.9L170.5,281.3L170.5,281.3
	L170.5,281.3z"/>
<path class="st0" d="M176,285.4l3.7-10.3h1.4l4,10.3h-1.5l-1.2-3.1h-4l-1.1,3.1H176L176,285.4z M178.8,281.1h3.3l-1.1-2.9
	c-0.3-0.8-0.5-1.6-0.6-2.1c-0.1,0.6-0.3,1.3-0.5,2L178.8,281.1L178.8,281.1L178.8,281.1z"/>
<path class="st0" d="M193.9,281.8l1.3,0.3c-0.3,1.2-0.7,2-1.5,2.5c-0.7,0.6-1.6,0.8-2.5,0.8s-1.9-0.2-2.5-0.6s-1.2-1.1-1.5-2
	c-0.3-0.8-0.5-1.8-0.5-2.8c0-1.1,0.2-2,0.5-2.8c0.4-0.8,1-1.4,1.7-1.8c0.7-0.4,1.5-0.6,2.3-0.6c1,0,1.8,0.2,2.4,0.7
	c0.6,0.5,1.2,1.3,1.4,2.2l-1.3,0.3c-0.2-0.7-0.5-1.3-1-1.6c-0.4-0.3-1-0.5-1.6-0.5c-0.7,0-1.4,0.2-1.9,0.5c-0.5,0.4-0.8,0.8-1.1,1.5
	c-0.2,0.6-0.3,1.3-0.3,2c0,0.8,0.1,1.7,0.3,2.3c0.2,0.6,0.6,1.2,1.2,1.5c0.5,0.3,1.1,0.5,1.7,0.5c0.7,0,1.4-0.2,1.8-0.6
	C193.3,283.2,193.7,282.6,193.9,281.8L193.9,281.8L193.9,281.8z"/>
<path class="st0" d="M201.3,281.3v-1.2h4.1v3.8c-0.6,0.5-1.3,1-1.9,1.2c-0.6,0.3-1.4,0.4-2,0.4c-1,0-1.8-0.2-2.7-0.6
	c-0.7-0.4-1.4-1.1-1.8-1.9s-0.6-1.7-0.6-2.8s0.2-1.9,0.6-2.8c0.4-0.8,1-1.5,1.7-1.9c0.7-0.4,1.6-0.6,2.5-0.6c0.7,0,1.4,0.1,1.9,0.3
	s1.1,0.5,1.4,1c0.3,0.4,0.5,1,0.7,1.7l-1.2,0.3c-0.1-0.5-0.3-1-0.5-1.3c-0.2-0.3-0.5-0.5-1-0.7c-0.4-0.2-0.8-0.3-1.4-0.3
	c-0.6,0-1.1,0.1-1.5,0.3c-0.4,0.2-0.7,0.4-1.1,0.7c-0.3,0.3-0.4,0.6-0.6,1.1c-0.2,0.6-0.4,1.4-0.4,2.1c0,1,0.1,1.7,0.4,2.3
	c0.3,0.6,0.7,1.1,1.3,1.4c0.5,0.3,1.2,0.4,1.8,0.4c0.5,0,1.1-0.1,1.6-0.3c0.5-0.2,1-0.4,1.2-0.7v-1.9L201.3,281.3L201.3,281.3
	L201.3,281.3z"/>
<line class="st2" x1="201.1" y1="286.8" x2="201.1" y2="294.1"/>
<path d="M194.6,308.8h-1.2v-8.1c-0.3,0.3-0.6,0.5-1.2,0.8c-0.4,0.3-0.8,0.5-1.3,0.6V301c0.6-0.3,1.3-0.7,1.8-1.2s0.8-1,1.1-1.4h0.7
	L194.6,308.8L194.6,308.8L194.6,308.8z M197.7,303.7c0-1.2,0.1-2.2,0.3-3s0.6-1.3,1.1-1.7c0.4-0.4,1.1-0.6,1.8-0.6
	c0.5,0,1,0.1,1.4,0.3c0.4,0.2,0.7,0.5,1,1s0.4,1,0.6,1.5c0.1,0.6,0.2,1.4,0.2,2.4c0,1.2-0.1,2.2-0.3,3s-0.5,1.3-1.1,1.7
	c-0.4,0.4-1.1,0.6-1.8,0.6c-1,0-1.7-0.3-2.2-1.1C198,307,197.7,305.6,197.7,303.7L197.7,303.7L197.7,303.7z M199,303.7
	c0,1.7,0.2,2.9,0.5,3.4c0.4,0.5,0.8,0.8,1.4,0.8s1.1-0.3,1.4-0.8c0.4-0.5,0.5-1.7,0.5-3.4c0-1.7-0.2-2.9-0.5-3.4
	c-0.4-0.5-0.8-0.8-1.4-0.8s-1,0.2-1.3,0.7C199.2,300.9,199,302,199,303.7L199,303.7L199,303.7z M205.3,303.7c0-1.2,0.1-2.2,0.3-3
	s0.6-1.3,1.1-1.7c0.4-0.4,1.1-0.6,1.8-0.6c0.5,0,1,0.1,1.4,0.3c0.4,0.2,0.7,0.5,1,1s0.4,1,0.6,1.5c0.1,0.6,0.2,1.4,0.2,2.4
	c0,1.2-0.1,2.2-0.3,3s-0.5,1.3-1.1,1.7c-0.4,0.4-1.1,0.6-1.8,0.6c-1,0-1.7-0.3-2.2-1.1C205.6,307,205.3,305.6,205.3,303.7
	L205.3,303.7L205.3,303.7z M206.5,303.7c0,1.7,0.2,2.9,0.5,3.4c0.4,0.5,0.8,0.8,1.4,0.8s1.1-0.3,1.4-0.8c0.4-0.5,0.5-1.7,0.5-3.4
	c0-1.7-0.2-2.9-0.5-3.4c-0.4-0.5-0.8-0.8-1.4-0.8s-1,0.2-1.3,0.7C206.7,300.9,206.5,302,206.5,303.7L206.5,303.7L206.5,303.7z"/>
<path class="st0" d="M215,275.7h1.3v5.9c0,1.1-0.1,1.9-0.3,2.4s-0.6,1.1-1.2,1.5c-0.5,0.4-1.4,0.5-2.2,0.5c-1,0-1.7-0.2-2.2-0.5
	c-0.5-0.3-1-0.8-1.3-1.5c-0.2-0.6-0.3-1.5-0.3-2.5v-5.9h1.3v5.9c0,0.8,0.1,1.6,0.2,2c0.1,0.4,0.4,0.7,0.8,1c0.4,0.2,0.8,0.3,1.4,0.3
	c1,0,1.6-0.2,2-0.6c0.4-0.4,0.6-1.4,0.6-2.7L215,275.7L215,275.7L215,275.7z"/>
<path class="st1" d="M98.9,216.3v-1.2h4.1v3.8c-0.6,0.5-1.3,1-1.9,1.2c-0.6,0.3-1.4,0.4-2,0.4c-1,0-1.8-0.2-2.7-0.6
	c-0.7-0.4-1.4-1.1-1.8-1.9c-0.4-0.8-0.6-1.7-0.6-2.8c0-1.1,0.2-1.9,0.6-2.8c0.4-0.8,1-1.5,1.7-1.9c0.7-0.4,1.6-0.6,2.5-0.6
	c0.7,0,1.4,0.1,1.9,0.3c0.5,0.2,1.1,0.5,1.4,1s0.5,1,0.7,1.7l-1.2,0.3c-0.1-0.5-0.3-1-0.5-1.3c-0.2-0.3-0.5-0.5-1-0.7
	s-0.8-0.3-1.4-0.3c-0.6,0-1.1,0.1-1.5,0.3c-0.4,0.2-0.7,0.4-1.1,0.7c-0.3,0.3-0.4,0.6-0.6,1.1c-0.2,0.6-0.4,1.4-0.4,2.1
	c0,1,0.1,1.7,0.4,2.3c0.3,0.6,0.7,1.1,1.3,1.4c0.5,0.3,1.2,0.4,1.8,0.4c0.5,0,1.1-0.1,1.6-0.3c0.5-0.2,1-0.4,1.2-0.7v-1.9
	L98.9,216.3L98.9,216.3L98.9,216.3z"/>
<path class="st1" d="M94.2,209.5l3.7-10.3h1.4l4,10.3h-1.5l-1.2-3.1h-4l-1.1,3.1H94.2L94.2,209.5z M96.9,205.3h3.3l-1.1-2.9
	c-0.3-0.8-0.5-1.6-0.6-2.1c-0.1,0.6-0.3,1.3-0.5,2L96.9,205.3L96.9,205.3L96.9,205.3z"/>
<path class="st1" d="M101.7,195.1l1.3,0.3c-0.3,1.2-0.7,2-1.5,2.5c-0.7,0.6-1.6,0.8-2.5,0.8c-1.1,0-1.9-0.2-2.5-0.6
	c-0.6-0.4-1.2-1.1-1.5-2c-0.3-0.8-0.5-1.8-0.5-2.8c0-1.1,0.2-2,0.5-2.8c0.4-0.8,1-1.4,1.7-1.8c0.7-0.4,1.5-0.6,2.3-0.6
	c1,0,1.8,0.2,2.4,0.7c0.6,0.5,1.2,1.3,1.4,2.2l-1.3,0.3c-0.2-0.7-0.5-1.3-1-1.6c-0.4-0.3-1-0.5-1.6-0.5c-0.7,0-1.4,0.2-1.9,0.5
	c-0.5,0.3-0.8,0.8-1.1,1.5c-0.2,0.6-0.3,1.3-0.3,2c0,0.8,0.1,1.7,0.3,2.3c0.2,0.6,0.6,1.2,1.2,1.5s1.1,0.5,1.7,0.5
	c0.7,0,1.4-0.2,1.8-0.6C101,196.7,101.6,195.9,101.7,195.1L101.7,195.1L101.7,195.1z"/>
<path class="st1" d="M98.9,183.8v-1.2h4.1v3.8c-0.6,0.5-1.3,1-1.9,1.2c-0.6,0.3-1.4,0.4-2,0.4c-1,0-1.8-0.2-2.7-0.6
	c-0.7-0.4-1.4-1.1-1.8-1.9c-0.4-0.8-0.6-1.7-0.6-2.8c0-1.1,0.2-1.9,0.6-2.8c0.4-0.8,1-1.5,1.7-1.9c0.7-0.4,1.6-0.6,2.5-0.6
	c0.7,0,1.4,0.1,1.9,0.3c0.5,0.2,1.1,0.5,1.4,1s0.5,1,0.7,1.7l-1.3,0.3c-0.1-0.5-0.3-1-0.5-1.3c-0.2-0.3-0.5-0.5-1-0.7
	s-0.8-0.3-1.4-0.3c-0.6,0-1.1,0.1-1.5,0.3c-0.4,0.2-0.7,0.4-1.1,0.7c-0.3,0.3-0.4,0.6-0.6,1.1c-0.2,0.6-0.4,1.4-0.4,2.1
	c0,1,0.1,1.7,0.4,2.3c0.3,0.6,0.7,1.1,1.3,1.4c0.5,0.3,1.2,0.4,1.8,0.4c0.5,0,1.1-0.1,1.6-0.3c0.5-0.2,1-0.4,1.2-0.7v-1.9H98.9
	L98.9,183.8L98.9,183.8z"/>
<path class="st1" d="M101.7,173.4l1.3,0.3c-0.3,1.2-0.7,2-1.5,2.5c-0.7,0.6-1.6,0.8-2.5,0.8c-1.1,0-1.9-0.2-2.5-0.6
	c-0.6-0.4-1.2-1.1-1.5-2c-0.3-0.8-0.5-1.8-0.5-2.8c0-1.1,0.2-2,0.5-2.8c0.4-0.8,1-1.4,1.7-1.8c0.7-0.4,1.5-0.6,2.3-0.6
	c1,0,1.8,0.2,2.4,0.7c0.6,0.5,1.2,1.3,1.4,2.2l-1.3,0.3c-0.2-0.7-0.5-1.3-1-1.6c-0.4-0.3-1-0.5-1.6-0.5c-0.7,0-1.4,0.2-1.9,0.5
	c-0.5,0.4-0.8,0.8-1.1,1.5c-0.2,0.6-0.3,1.3-0.3,2c0,0.8,0.1,1.7,0.3,2.3c0.2,0.6,0.6,1.2,1.2,1.5s1.1,0.5,1.7,0.5
	c0.7,0,1.4-0.2,1.8-0.6C101,175,101.6,174.3,101.7,173.4L101.7,173.4L101.7,173.4z"/>
<path class="st1" d="M98.9,162.1v-1.2h4.1v3.8c-0.6,0.5-1.3,1-1.9,1.2c-0.6,0.3-1.4,0.4-2,0.4c-1,0-1.8-0.2-2.7-0.6
	c-0.7-0.4-1.4-1.1-1.8-1.9c-0.4-0.8-0.6-1.7-0.6-2.8c0-1.1,0.2-1.9,0.6-2.8c0.4-0.8,1-1.5,1.7-1.9c0.7-0.4,1.6-0.6,2.5-0.6
	c0.7,0,1.4,0.1,1.9,0.3c0.5,0.2,1.1,0.5,1.4,1c0.3,0.4,0.5,1,0.7,1.7l-1.2,0.3c-0.1-0.5-0.3-1-0.5-1.3c-0.2-0.3-0.5-0.5-1-0.7
	c-0.4-0.2-0.8-0.3-1.4-0.3c-0.6,0-1.1,0.1-1.5,0.3c-0.4,0.2-0.7,0.4-1.1,0.7c-0.3,0.3-0.4,0.6-0.6,1.1c-0.2,0.6-0.4,1.4-0.4,2.1
	c0,1,0.1,1.7,0.4,2.3c0.3,0.6,0.7,1.1,1.3,1.4c0.5,0.3,1.2,0.4,1.8,0.4c0.5,0,1.1-0.1,1.6-0.3c0.5-0.2,1-0.4,1.2-0.7v-1.9
	L98.9,162.1L98.9,162.1z"/>
<path class="st1" d="M101.2,145h1.3v5.9c0,1.1-0.1,1.9-0.3,2.4c-0.2,0.6-0.6,1.1-1.2,1.5c-0.5,0.4-1.4,0.5-2.2,0.5
	c-1,0-1.7-0.2-2.2-0.5c-0.5-0.3-1-0.8-1.3-1.5c-0.2-0.6-0.3-1.5-0.3-2.5v-5.9h1.3v5.9c0,0.8,0.1,1.6,0.2,2s0.4,0.7,0.8,1
	s0.8,0.3,1.4,0.3c1,0,1.6-0.2,2-0.6c0.4-0.4,0.6-1.4,0.6-2.7L101.2,145L101.2,145L101.2,145z"/>
<line class="st2" x1="93.8" y1="154.7" x2="89.1" y2="159.9"/>
<path d="M80.7,173.3v1.2h-6.5c0-0.3,0-0.6,0.1-0.8c0.2-0.4,0.4-1,0.7-1.4c0.3-0.4,0.8-1,1.6-1.6c1.1-1,1.8-1.7,2.1-2.2
	c0.3-0.5,0.5-1.1,0.5-1.5c0-0.5-0.2-1-0.5-1.3c-0.3-0.3-0.7-0.5-1.3-0.5c-0.5,0-1.1,0.2-1.4,0.5c-0.3,0.3-0.5,0.8-0.5,1.5l-1.3-0.1
	c0.1-1,0.4-1.7,1-2.2c0.5-0.5,1.3-0.7,2.2-0.7c1,0,1.7,0.3,2.2,0.8c0.5,0.5,0.8,1.3,0.8,2c0,0.4-0.1,0.8-0.2,1.2
	c-0.2,0.4-0.4,0.8-0.7,1.3c-0.3,0.4-1,1.1-1.8,1.8c-0.7,0.6-1.2,1.1-1.4,1.3s-0.3,0.4-0.5,0.6L80.7,173.3L80.7,173.3L80.7,173.3z
	 M82,169.4c0-1.2,0.1-2.2,0.3-3c0.2-0.7,0.6-1.3,1.1-1.7c0.4-0.4,1.1-0.6,1.8-0.6c0.5,0,1,0.1,1.4,0.3c0.4,0.2,0.7,0.5,1,1
	c0.2,0.4,0.4,1,0.6,1.5c0.1,0.6,0.2,1.4,0.2,2.4c0,1.2-0.1,2.2-0.3,3c-0.2,0.7-0.5,1.3-1.1,1.7c-0.4,0.4-1.1,0.6-1.8,0.6
	c-1,0-1.7-0.3-2.2-1.1C82.3,172.7,82,171.3,82,169.4L82,169.4L82,169.4z M83.2,169.4c0,1.7,0.2,2.9,0.5,3.4c0.4,0.5,0.8,0.8,1.4,0.8
	s1.1-0.3,1.4-0.8c0.4-0.5,0.5-1.7,0.5-3.4s-0.2-2.9-0.5-3.4c-0.4-0.5-0.8-0.8-1.4-0.8s-1,0.2-1.3,0.7
	C83.4,166.6,83.2,167.7,83.2,169.4L83.2,169.4L83.2,169.4z"/>
<path class="st0" d="M93.5,134.2h1.3v5.9c0,1.1-0.1,1.9-0.3,2.4s-0.6,1.1-1.2,1.5c-0.5,0.4-1.4,0.5-2.2,0.5s-1.7-0.2-2.2-0.5
	c-0.5-0.3-1-0.8-1.3-1.5c-0.2-0.6-0.3-1.5-0.3-2.5v-5.9h1.3v5.9c0,0.8,0.1,1.6,0.2,2c0.1,0.4,0.4,0.7,0.8,1c0.4,0.2,0.8,0.3,1.4,0.3
	c1,0,1.6-0.2,2-0.6c0.4-0.4,0.6-1.4,0.6-2.7L93.5,134.2L93.5,134.2L93.5,134.2z"/>
<path class="st0" d="M86.8,125.5v-1.2H91v3.8c-0.6,0.5-1.3,1-1.9,1.2c-0.6,0.3-1.4,0.4-2,0.4c-1,0-1.8-0.2-2.7-0.6
	c-0.7-0.4-1.4-1.1-1.8-1.9c-0.4-0.8-0.6-1.7-0.6-2.8s0.2-1.9,0.6-2.8c0.4-0.8,1-1.5,1.7-1.9c0.7-0.4,1.6-0.6,2.5-0.6
	c0.7,0,1.4,0.1,1.9,0.3c0.5,0.2,1.1,0.5,1.4,1c0.3,0.4,0.5,1,0.7,1.7l-1.2,0.3c-0.1-0.5-0.3-1-0.5-1.3s-0.5-0.5-1-0.7
	c-0.4-0.2-0.8-0.3-1.4-0.3c-0.6,0-1.1,0.1-1.5,0.3c-0.4,0.2-0.7,0.4-1.1,0.7s-0.4,0.6-0.6,1.1c-0.2,0.6-0.4,1.4-0.4,2.1
	c0,1,0.1,1.7,0.4,2.3c0.3,0.6,0.7,1.1,1.3,1.4c0.5,0.3,1.2,0.4,1.8,0.4c0.5,0,1.1-0.1,1.6-0.3c0.5-0.2,1-0.4,1.2-0.7v-1.9
	L86.8,125.5L86.8,125.5z"/>
<path class="st0" d="M95.7,107.7h1.3v5.9c0,1.1-0.1,1.9-0.3,2.4c-0.2,0.6-0.6,1.1-1.2,1.5c-0.5,0.4-1.4,0.5-2.2,0.5
	c-1,0-1.7-0.2-2.2-0.5c-0.5-0.3-1-0.8-1.3-1.5c-0.2-0.6-0.3-1.5-0.3-2.5v-5.9h1.3v5.9c0,0.8,0.1,1.6,0.2,2c0.1,0.4,0.4,0.7,0.8,1
	c0.4,0.2,0.8,0.3,1.4,0.3c1,0,1.6-0.2,2-0.6s0.6-1.4,0.6-2.7L95.7,107.7L95.7,107.7L95.7,107.7z"/>
<path class="st0" d="M107.3,108.6v-1.2h4.1v3.8c-0.6,0.5-1.3,1-1.9,1.2c-0.6,0.3-1.4,0.4-2,0.4c-1,0-1.8-0.2-2.7-0.6
	c-0.7-0.4-1.4-1.1-1.8-1.9s-0.6-1.7-0.6-2.8c0-1.1,0.2-1.9,0.6-2.8c0.4-0.8,1-1.5,1.7-1.9c0.7-0.4,1.6-0.6,2.5-0.6
	c0.7,0,1.4,0.1,1.9,0.3c0.5,0.2,1.1,0.5,1.4,1c0.3,0.4,0.5,1,0.7,1.7l-1.2,0.3c-0.1-0.5-0.3-1-0.5-1.3c-0.2-0.3-0.5-0.5-1-0.7
	c-0.4-0.2-0.8-0.3-1.4-0.3c-0.6,0-1.1,0.1-1.5,0.3c-0.4,0.2-0.7,0.4-1.1,0.7c-0.3,0.3-0.4,0.6-0.6,1.1c-0.2,0.6-0.4,1.4-0.4,2.1
	c0,1,0.1,1.7,0.4,2.3c0.3,0.6,0.7,1.1,1.3,1.4c0.5,0.3,1.2,0.4,1.8,0.4c0.5,0,1.1-0.1,1.6-0.3c0.5-0.2,1-0.4,1.2-0.7v-1.9
	L107.3,108.6L107.3,108.6z"/>
<path class="st0" d="M125.4,107.7h1.3v5.9c0,1.1-0.1,1.9-0.3,2.4c-0.2,0.6-0.6,1.1-1.2,1.5c-0.5,0.4-1.4,0.5-2.2,0.5
	c-0.8,0-1.7-0.2-2.2-0.5c-0.5-0.3-1-0.8-1.3-1.5c-0.2-0.6-0.3-1.5-0.3-2.5v-5.9h1.3v5.9c0,0.8,0.1,1.6,0.2,2c0.1,0.4,0.4,0.7,0.8,1
	c0.4,0.2,0.8,0.3,1.4,0.3c1,0,1.6-0.2,2-0.6c0.4-0.4,0.6-1.4,0.6-2.7L125.4,107.7L125.4,107.7L125.4,107.7z"/>
<path class="st0" d="M132.9,120.3h1.3v5.9c0,1.1-0.1,1.9-0.3,2.4c-0.2,0.6-0.6,1.1-1.2,1.5c-0.5,0.4-1.4,0.5-2.2,0.5
	s-1.7-0.2-2.2-0.5c-0.5-0.3-1-0.8-1.3-1.5c-0.2-0.6-0.3-1.5-0.3-2.5v-5.9h1.3v5.9c0,0.8,0.1,1.6,0.2,2c0.1,0.4,0.4,0.7,0.8,1
	c0.4,0.2,0.8,0.3,1.4,0.3c1,0,1.6-0.2,2-0.6c0.4-0.4,0.6-1.4,0.6-2.7L132.9,120.3L132.9,120.3L132.9,120.3z"/>
<path class="st0" d="M128,133.6h1.3v5.9c0,1.1-0.1,1.9-0.3,2.4c-0.2,0.5-0.6,1.1-1.2,1.5s-1.4,0.5-2.2,0.5s-1.7-0.2-2.2-0.5
	c-0.5-0.3-1-0.8-1.3-1.5c-0.2-0.6-0.3-1.5-0.3-2.5v-5.9h1.3v5.9c0,0.8,0.1,1.6,0.2,2c0.1,0.4,0.4,0.7,0.8,1c0.4,0.2,0.8,0.3,1.4,0.3
	c1,0,1.6-0.2,2-0.6c0.4-0.4,0.6-1.4,0.6-2.7L128,133.6L128,133.6L128,133.6z"/>
<path class="st1" d="M114.6,155.3l3.7-10.3h1.4l4,10.3h-1.5l-1.2-3.1h-4l-1.1,3.1H114.6L114.6,155.3z M117.4,151.1h3.3l-1.1-2.9
	c-0.3-0.8-0.5-1.6-0.6-2.1c-0.1,0.6-0.3,1.3-0.5,2L117.4,151.1L117.4,151.1L117.4,151.1z"/>
<path class="st1" d="M122.2,162.5l1.3,0.3c-0.3,1.2-0.7,2-1.5,2.5c-0.7,0.6-1.6,0.8-2.5,0.8s-1.9-0.2-2.5-0.6
	c-0.6-0.4-1.2-1.1-1.5-2c-0.3-0.8-0.5-1.8-0.5-2.8c0-1.1,0.2-2,0.5-2.8c0.4-0.8,1-1.4,1.7-1.8c0.7-0.4,1.5-0.6,2.3-0.6
	c1,0,1.8,0.2,2.4,0.7c0.6,0.5,1.2,1.3,1.4,2.2l-1.3,0.3c-0.2-0.7-0.5-1.3-1-1.6c-0.4-0.3-1-0.5-1.6-0.5c-0.7,0-1.4,0.2-1.9,0.5
	c-0.5,0.4-0.8,0.8-1.1,1.5c-0.2,0.6-0.3,1.3-0.3,2c0,0.8,0.1,1.7,0.3,2.3c0.2,0.6,0.6,1.2,1.2,1.5c0.5,0.3,1.1,0.5,1.7,0.5
	c0.7,0,1.4-0.2,1.8-0.6C121.6,164.1,122.1,163.5,122.2,162.5L122.2,162.5L122.2,162.5z"/>
<path class="st1" d="M119.4,173v-1.2h4.1v3.8c-0.6,0.5-1.3,1-1.9,1.2c-0.6,0.3-1.4,0.4-2,0.4c-1,0-1.8-0.2-2.7-0.6
	c-0.7-0.4-1.4-1.1-1.8-1.9c-0.4-0.8-0.6-1.7-0.6-2.8c0-1.1,0.2-1.9,0.6-2.8c0.4-0.8,1-1.5,1.7-1.9c0.7-0.4,1.6-0.6,2.5-0.6
	c0.7,0,1.4,0.1,1.9,0.3c0.5,0.2,1.1,0.5,1.4,1c0.3,0.4,0.5,1,0.7,1.7l-1.2,0.3c-0.1-0.5-0.3-1-0.5-1.3c-0.2-0.3-0.5-0.5-1-0.7
	c-0.4-0.2-0.8-0.3-1.4-0.3c-0.6,0-1.1,0.1-1.5,0.3c-0.4,0.2-0.7,0.4-1.1,0.7c-0.3,0.3-0.4,0.6-0.6,1.1c-0.2,0.6-0.4,1.4-0.4,2.1
	c0,1,0.1,1.7,0.4,2.3c0.3,0.6,0.7,1.1,1.3,1.4c0.5,0.3,1.2,0.4,1.8,0.4c0.5,0,1.1-0.1,1.6-0.3c0.5-0.2,1-0.4,1.2-0.7V173L119.4,173
	L119.4,173L119.4,173z"/>
<path class="st1" d="M122.2,184.3l1.3,0.3c-0.3,1.2-0.7,2-1.5,2.5c-0.7,0.6-1.6,0.8-2.5,0.8s-1.9-0.2-2.5-0.6
	c-0.6-0.4-1.2-1.1-1.5-2c-0.3-0.8-0.5-1.8-0.5-2.8c0-1.1,0.2-2,0.5-2.8s1-1.4,1.7-1.8c0.7-0.4,1.5-0.6,2.3-0.6c1,0,1.8,0.2,2.4,0.7
	c0.6,0.5,1.2,1.3,1.4,2.2l-1.3,0.3c-0.2-0.7-0.5-1.3-1-1.6c-0.4-0.3-1-0.5-1.6-0.5c-0.7,0-1.4,0.2-1.9,0.5c-0.5,0.4-0.8,0.8-1.1,1.5
	c-0.2,0.6-0.3,1.3-0.3,2c0,0.8,0.1,1.7,0.3,2.3c0.2,0.6,0.6,1.2,1.2,1.5c0.5,0.3,1.1,0.5,1.7,0.5c0.7,0,1.4-0.2,1.8-0.6
	C121.6,185.8,122.1,185.1,122.2,184.3L122.2,184.3L122.2,184.3z"/>
<path class="st1" d="M119.4,194.7v-1.2h4.1v3.8c-0.6,0.5-1.3,1-1.9,1.2c-0.6,0.3-1.4,0.4-2,0.4c-1,0-1.8-0.2-2.7-0.6
	c-0.7-0.4-1.4-1.1-1.8-1.9c-0.4-0.8-0.6-1.7-0.6-2.8c0-1.1,0.2-1.9,0.6-2.8c0.4-0.8,1-1.5,1.7-1.9c0.7-0.4,1.6-0.6,2.5-0.6
	c0.7,0,1.4,0.1,1.9,0.3c0.5,0.2,1.1,0.5,1.4,1c0.3,0.4,0.5,1,0.7,1.7l-1.2,0.3c-0.1-0.5-0.3-1-0.5-1.3c-0.2-0.3-0.5-0.5-1-0.7
	c-0.4-0.2-0.8-0.3-1.4-0.3c-0.6,0-1.1,0.1-1.5,0.3c-0.4,0.2-0.7,0.4-1.1,0.7c-0.3,0.3-0.4,0.6-0.6,1.1c-0.2,0.6-0.4,1.4-0.4,2.1
	c0,1,0.1,1.7,0.4,2.3c0.3,0.6,0.7,1.1,1.3,1.4c0.5,0.3,1.2,0.4,1.8,0.4c0.5,0,1.1-0.1,1.6-0.3c0.5-0.2,1-0.4,1.2-0.7v-1.9
	L119.4,194.7L119.4,194.7L119.4,194.7z"/>
<path class="st1" d="M121.6,199.2h1.3v5.9c0,1.1-0.1,1.9-0.3,2.4c-0.2,0.6-0.6,1.1-1.2,1.5s-1.4,0.5-2.2,0.5s-1.7-0.2-2.2-0.5
	c-0.5-0.3-1-0.8-1.3-1.5c-0.2-0.6-0.3-1.5-0.3-2.5v-5.9h1.3v5.9c0,0.8,0.1,1.6,0.2,2c0.1,0.4,0.4,0.7,0.8,1c0.4,0.2,0.8,0.3,1.4,0.3
	c1,0,1.6-0.2,2-0.6c0.4-0.4,0.6-1.4,0.6-2.7L121.6,199.2L121.6,199.2L121.6,199.2z"/>
<path class="st1" d="M122.2,216.7l1.3,0.3c-0.3,1.2-0.7,2-1.5,2.5c-0.7,0.6-1.6,0.8-2.5,0.8s-1.9-0.2-2.5-0.6
	c-0.6-0.4-1.2-1.1-1.5-2c-0.3-0.8-0.5-1.8-0.5-2.8c0-1.1,0.2-2,0.5-2.8c0.3-0.7,1-1.4,1.7-1.8c0.7-0.4,1.5-0.6,2.3-0.6
	c1,0,1.8,0.2,2.4,0.7c0.6,0.5,1.2,1.3,1.4,2.2l-1.3,0.3c-0.2-0.7-0.5-1.3-1-1.6c-0.4-0.3-1-0.5-1.6-0.5c-0.7,0-1.4,0.2-1.9,0.5
	c-0.5,0.4-0.8,0.8-1.1,1.5s-0.3,1.3-0.3,2c0,0.8,0.1,1.7,0.3,2.3c0.2,0.6,0.6,1.2,1.2,1.5c0.5,0.3,1.1,0.5,1.7,0.5
	c0.7,0,1.4-0.2,1.8-0.6C121.6,218.3,122.1,217.6,122.2,216.7L122.2,216.7L122.2,216.7z"/>
<path class="st0" d="M131.8,210h1.3v5.9c0,1.1-0.1,1.9-0.3,2.4c-0.2,0.6-0.6,1.1-1.2,1.5s-1.4,0.5-2.2,0.5c-0.8,0-1.7-0.2-2.2-0.5
	c-0.5-0.3-1-0.8-1.3-1.5c-0.2-0.6-0.3-1.5-0.3-2.5v-5.9h1.3v5.9c0,0.8,0.1,1.6,0.2,2c0.1,0.4,0.4,0.7,0.8,1c0.4,0.2,0.8,0.3,1.4,0.3
	c1,0,1.6-0.2,2-0.6c0.4-0.4,0.6-1.4,0.6-2.7L131.8,210L131.8,210L131.8,210z"/>
<path class="st0" d="M132.1,202.7v-1.2h4.1v3.8c-0.6,0.5-1.3,1-1.9,1.2c-0.6,0.3-1.4,0.4-2,0.4c-1,0-1.8-0.2-2.7-0.6
	c-0.7-0.4-1.4-1.1-1.8-1.9c-0.4-0.8-0.6-1.7-0.6-2.8c0-1.1,0.2-1.9,0.6-2.8c0.4-0.8,1-1.5,1.7-1.9c0.7-0.4,1.6-0.6,2.5-0.6
	c0.7,0,1.4,0.1,1.9,0.3s1.1,0.5,1.4,1s0.5,1,0.7,1.7l-1.2,0.3c-0.1-0.5-0.3-1-0.5-1.3s-0.5-0.5-1-0.7s-0.8-0.3-1.4-0.3
	c-0.6,0-1.1,0.1-1.5,0.3s-0.7,0.4-1.1,0.7c-0.3,0.3-0.4,0.6-0.6,1.1c-0.2,0.6-0.4,1.4-0.4,2.1c0,1,0.1,1.7,0.4,2.3
	c0.3,0.6,0.7,1.1,1.3,1.4s1.2,0.4,1.8,0.4c0.5,0,1.1-0.1,1.6-0.3c0.5-0.2,1-0.4,1.2-0.7v-1.9L132.1,202.7L132.1,202.7L132.1,202.7z"
	/>
<path class="st0" d="M137.6,201.3l3.7-10.3h1.4l4,10.3h-1.5l-1.2-3.1h-4l-1.1,3.1H137.6L137.6,201.3z M140.4,197.2h3.3l-1.1-2.9
	c-0.3-0.8-0.5-1.6-0.6-2.1c-0.1,0.6-0.3,1.3-0.5,2L140.4,197.2L140.4,197.2L140.4,197.2z"/>
<path class="st3" d="M154.9,199.2h1.3v5.9c0,1.1-0.1,1.9-0.3,2.4c-0.2,0.6-0.6,1.1-1.2,1.5c-0.5,0.4-1.4,0.5-2.2,0.5
	s-1.7-0.2-2.2-0.5c-0.5-0.3-1-0.8-1.3-1.5c-0.2-0.6-0.3-1.5-0.3-2.5v-5.9h1.3v5.9c0,0.8,0.1,1.6,0.2,2c0.1,0.4,0.4,0.7,0.8,1
	c0.4,0.2,0.8,0.3,1.4,0.3c1,0,1.6-0.2,2-0.6c0.4-0.4,0.6-1.4,0.6-2.7L154.9,199.2L154.9,199.2L154.9,199.2z"/>
<path class="st3" d="M162.9,205.5v-1.2h4.1v3.8c-0.6,0.5-1.3,1-1.9,1.2c-0.6,0.3-1.4,0.4-2,0.4c-1,0-1.8-0.2-2.7-0.6
	c-0.7-0.4-1.4-1.1-1.8-1.9c-0.4-0.8-0.6-1.7-0.6-2.8c0-1.1,0.2-1.9,0.6-2.8c0.4-0.8,1-1.5,1.7-1.9c0.7-0.4,1.6-0.6,2.5-0.6
	c0.7,0,1.4,0.1,1.9,0.3c0.5,0.2,1.1,0.5,1.4,1c0.3,0.4,0.5,1,0.7,1.7l-1.2,0.3c-0.1-0.5-0.3-1-0.5-1.3c-0.2-0.3-0.5-0.5-1-0.7
	c-0.4-0.2-0.8-0.3-1.4-0.3c-0.6,0-1.1,0.1-1.5,0.3c-0.4,0.2-0.7,0.4-1.1,0.7c-0.3,0.3-0.4,0.6-0.6,1.1c-0.2,0.6-0.4,1.4-0.4,2.1
	c0,1,0.1,1.7,0.4,2.3c0.3,0.6,0.7,1.1,1.3,1.4c0.5,0.3,1.2,0.4,1.8,0.4c0.5,0,1.1-0.1,1.6-0.3s1-0.4,1.2-0.7v-1.9L162.9,205.5
	L162.9,205.5L162.9,205.5z"/>
<path class="st3" d="M168.3,209.5l3.7-10.3h1.4l4,10.3h-1.5l-1.2-3.1h-4l-1.1,3.1H168.3L168.3,209.5z M171.2,205.3h3.3l-1.1-2.9
	c-0.3-0.8-0.5-1.6-0.6-2.1c-0.1,0.6-0.3,1.3-0.5,2L171.2,205.3L171.2,205.3L171.2,205.3z"/>
<line class="st2" x1="173" y1="196.6" x2="173" y2="189.4"/>
<path d="M169.7,186.1v-2.4h-4.2v-1.2l4.5-6.7h1v6.7h1.3v1.2h-1.3v2.4H169.7z M169.7,182.5v-4.7l-3.1,4.7H169.7z M173.4,181.1
	c0-1.2,0.1-2.2,0.3-3c0.2-0.7,0.6-1.3,1.1-1.7c0.4-0.4,1.1-0.6,1.8-0.6c0.5,0,1,0.1,1.4,0.3c0.4,0.2,0.7,0.5,1,1
	c0.2,0.4,0.4,1,0.6,1.5c0.1,0.6,0.2,1.4,0.2,2.4c0,1.2-0.1,2.2-0.3,3s-0.5,1.3-1.1,1.7c-0.4,0.4-1.1,0.6-1.8,0.6
	c-1,0-1.7-0.3-2.2-1.1C173.8,184.4,173.5,183,173.4,181.1L173.4,181.1L173.4,181.1z M174.7,181.1c0,1.7,0.2,2.9,0.5,3.4
	c0.4,0.5,0.8,0.8,1.4,0.8c0.5,0,1.1-0.3,1.4-0.8c0.4-0.5,0.5-1.7,0.5-3.4s-0.2-2.9-0.5-3.4c-0.4-0.5-0.8-0.8-1.4-0.8
	c-0.5,0-1,0.2-1.3,0.7C174.9,178.2,174.7,179.4,174.7,181.1L174.7,181.1L174.7,181.1z"/>
<path class="st3" d="M183.4,205.5v-1.2h4.1v3.8c-0.6,0.5-1.3,1-1.9,1.2c-0.6,0.3-1.4,0.4-2,0.4c-1,0-1.8-0.2-2.7-0.6
	c-0.7-0.4-1.4-1.1-1.8-1.9c-0.4-0.8-0.6-1.7-0.6-2.8c0-1.1,0.2-1.9,0.6-2.8c0.4-0.8,1-1.5,1.7-1.9c0.7-0.4,1.6-0.6,2.5-0.6
	c0.7,0,1.4,0.1,1.9,0.3c0.5,0.2,1.1,0.5,1.4,1c0.3,0.4,0.5,1,0.7,1.7l-1.2,0.3c-0.1-0.5-0.3-1-0.5-1.3c-0.2-0.3-0.5-0.5-1-0.7
	c-0.4-0.2-0.8-0.3-1.4-0.3c-0.6,0-1.1,0.1-1.5,0.3c-0.4,0.2-0.7,0.4-1.1,0.7c-0.3,0.3-0.4,0.6-0.6,1.1c-0.2,0.6-0.4,1.4-0.4,2.1
	c0,1,0.1,1.7,0.4,2.3c0.3,0.6,0.7,1.1,1.3,1.4c0.5,0.3,1.2,0.4,1.8,0.4c0.5,0,1.1-0.1,1.6-0.3c0.5-0.2,1-0.4,1.2-0.7v-1.9
	L183.4,205.5L183.4,205.5L183.4,205.5z"/>
<path class="st3" d="M195.9,199.2h1.3v5.9c0,1.1-0.1,1.9-0.3,2.4c-0.2,0.6-0.6,1.1-1.2,1.5s-1.4,0.5-2.2,0.5c-0.8,0-1.7-0.2-2.2-0.5
	c-0.5-0.3-1-0.8-1.3-1.5c-0.2-0.6-0.3-1.5-0.3-2.5v-5.9h1.3v5.9c0,0.8,0.1,1.6,0.2,2s0.4,0.7,0.8,1s0.8,0.3,1.4,0.3
	c1,0,1.6-0.2,2-0.6c0.4-0.4,0.6-1.4,0.6-2.7L195.9,199.2L195.9,199.2L195.9,199.2z"/>
<path class="st3" d="M203.8,205.5v-1.2h4.1v3.8c-0.6,0.5-1.3,1-1.9,1.2c-0.6,0.3-1.4,0.4-2,0.4c-1,0-1.8-0.2-2.7-0.6
	c-0.7-0.4-1.4-1.1-1.8-1.9c-0.4-0.8-0.6-1.7-0.6-2.8c0-1.1,0.2-1.9,0.6-2.8c0.4-0.8,1-1.5,1.7-1.9c0.7-0.4,1.6-0.6,2.5-0.6
	c0.7,0,1.4,0.1,1.9,0.3c0.5,0.2,1.1,0.5,1.4,1c0.3,0.4,0.5,1,0.7,1.7l-1.2,0.3c-0.1-0.5-0.3-1-0.5-1.3c-0.2-0.3-0.5-0.5-1-0.7
	c-0.4-0.2-0.8-0.3-1.4-0.3c-0.6,0-1.1,0.1-1.5,0.3c-0.4,0.2-0.7,0.4-1.1,0.7c-0.3,0.3-0.4,0.6-0.6,1.1c-0.2,0.6-0.4,1.4-0.4,2.1
	c0,1,0.1,1.7,0.4,2.3c0.3,0.6,0.7,1.1,1.3,1.4c0.5,0.3,1.2,0.4,1.8,0.4c0.5,0,1.1-0.1,1.6-0.3s1-0.4,1.2-0.7v-1.9L203.8,205.5
	L203.8,205.5L203.8,205.5z"/>
<path class="st3" d="M214,205.5v-1.2h4.1v3.8c-0.6,0.5-1.3,1-1.9,1.2c-0.6,0.3-1.4,0.4-2,0.4c-1,0-1.8-0.2-2.7-0.6
	c-0.7-0.4-1.4-1.1-1.8-1.9c-0.4-0.8-0.6-1.7-0.6-2.8c0-1.1,0.2-1.9,0.6-2.8c0.4-0.8,1-1.5,1.7-1.9c0.7-0.4,1.6-0.6,2.5-0.6
	c0.7,0,1.4,0.1,1.9,0.3c0.5,0.2,1.1,0.5,1.4,1c0.3,0.4,0.5,1,0.7,1.7l-1.2,0.3c-0.1-0.5-0.3-1-0.5-1.3c-0.2-0.3-0.5-0.5-1-0.7
	c-0.4-0.2-0.8-0.3-1.4-0.3c-0.6,0-1.1,0.1-1.5,0.3c-0.4,0.2-0.7,0.4-1.1,0.7c-0.3,0.3-0.4,0.6-0.6,1.1c-0.2,0.6-0.4,1.4-0.4,2.1
	c0,1,0.1,1.7,0.4,2.3s0.7,1.1,1.3,1.4c0.5,0.3,1.2,0.4,1.8,0.4c0.5,0,1.1-0.1,1.6-0.3s1-0.4,1.2-0.7v-1.9L214,205.5L214,205.5
	L214,205.5z"/>
<path class="st0" d="M226.5,191.1h1.3v5.9c0,1.1-0.1,1.9-0.3,2.4c-0.2,0.6-0.6,1.1-1.2,1.5c-0.5,0.4-1.4,0.5-2.2,0.5
	s-1.7-0.2-2.2-0.5c-0.5-0.3-1-0.8-1.3-1.5c-0.2-0.6-0.3-1.5-0.3-2.5V191h1.3v5.9c0,0.8,0.1,1.6,0.2,2c0.1,0.4,0.4,0.7,0.8,1
	c0.4,0.2,0.8,0.3,1.4,0.3c1,0,1.6-0.2,2-0.6c0.4-0.4,0.6-1.4,0.6-2.7L226.5,191.1L226.5,191.1L226.5,191.1z"/>
<path class="st0" d="M229.7,193.3l3.7-10.3h1.4l4,10.3h-1.5l-1.2-3.1h-4l-1.1,3.1H229.7L229.7,193.3z M232.6,189h3.3l-1.1-2.9
	c-0.3-0.8-0.5-1.6-0.6-2.1c-0.1,0.6-0.3,1.3-0.5,2L232.6,189L232.6,189L232.6,189z"/>
<path class="st0" d="M237.4,241.1l1.3,0.3c-0.3,1.2-0.7,2-1.5,2.5c-0.7,0.6-1.6,0.8-2.5,0.8s-1.9-0.2-2.5-0.6
	c-0.6-0.4-1.2-1.1-1.5-2c-0.3-0.8-0.5-1.8-0.5-2.8c0-1.1,0.2-2,0.5-2.8c0.4-0.8,1-1.4,1.7-1.8c0.7-0.4,1.5-0.6,2.3-0.6
	c1,0,1.8,0.2,2.4,0.7c0.6,0.5,1.2,1.3,1.4,2.2l-1.3,0.3c-0.2-0.7-0.5-1.3-1-1.6c-0.4-0.3-1-0.5-1.6-0.5c-0.7,0-1.4,0.2-1.9,0.5
	c-0.5,0.4-0.8,0.8-1.1,1.5s-0.3,1.3-0.3,2c0,0.8,0.1,1.7,0.3,2.3c0.2,0.6,0.6,1.2,1.2,1.5s1.1,0.5,1.7,0.5c0.7,0,1.4-0.2,1.8-0.6
	C236.8,242.6,237.1,242,237.4,241.1L237.4,241.1L237.4,241.1z"/>
<path class="st0" d="M226.5,229h1.3v5.9c0,1.1-0.1,1.9-0.3,2.4c-0.2,0.6-0.6,1.1-1.2,1.5c-0.5,0.4-1.4,0.5-2.2,0.5s-1.7-0.2-2.2-0.5
	c-0.5-0.3-1-0.8-1.3-1.5c-0.2-0.6-0.3-1.5-0.3-2.5v-5.9h1.3v5.9c0,0.8,0.1,1.6,0.2,2c0.1,0.4,0.4,0.7,0.8,1c0.4,0.2,0.8,0.3,1.4,0.3
	c1,0,1.6-0.2,2-0.6c0.4-0.4,0.6-1.4,0.6-2.7L226.5,229L226.5,229L226.5,229z"/>
<path class="st3" d="M216.9,227.5l1.3,0.3c-0.3,1.2-0.7,2-1.5,2.5c-0.7,0.6-1.6,0.8-2.5,0.8c-1.1,0-1.9-0.2-2.5-0.6
	c-0.6-0.4-1.2-1.1-1.5-2c-0.3-0.8-0.5-1.8-0.5-2.8c0-1.1,0.2-2,0.5-2.8c0.4-0.8,1-1.4,1.7-1.8c0.7-0.4,1.5-0.6,2.3-0.6
	c1,0,1.8,0.2,2.4,0.7c0.6,0.5,1.2,1.3,1.4,2.2l-1.3,0.3c-0.2-0.7-0.5-1.3-1-1.6c-0.4-0.3-1-0.5-1.6-0.5c-0.7,0-1.4,0.2-1.9,0.5
	c-0.5,0.4-0.8,0.8-1.1,1.5c-0.2,0.6-0.3,1.3-0.3,2c0,0.8,0.1,1.7,0.3,2.3s0.6,1.2,1.2,1.5c0.5,0.3,1.1,0.5,1.7,0.5
	c0.7,0,1.4-0.2,1.8-0.6C216.4,229.1,216.7,228.5,216.9,227.5L216.9,227.5L216.9,227.5z"/>
<line class="st2" x1="209" y1="230.6" x2="204.3" y2="235.7"/>
<path d="M191.3,244.7c-0.5-0.2-0.8-0.4-1.1-0.8c-0.2-0.3-0.3-0.7-0.3-1.3c0-0.7,0.2-1.4,0.7-1.9c0.5-0.5,1.2-0.7,2-0.7
	s1.5,0.2,2,0.7c0.5,0.5,0.7,1.2,0.7,1.9c0,0.5-0.1,0.8-0.3,1.3c-0.2,0.3-0.6,0.6-1.1,0.8c0.6,0.2,1.1,0.5,1.4,1
	c0.3,0.4,0.4,1,0.4,1.6c0,0.8-0.3,1.6-0.8,2.2c-0.6,0.6-1.4,0.8-2.3,0.8s-1.7-0.3-2.3-0.8c-0.6-0.6-0.8-1.4-0.8-2.2
	c0-0.6,0.2-1.3,0.5-1.7C190.3,245.3,190.8,244.9,191.3,244.7L191.3,244.7L191.3,244.7z M191.1,242.6c0,0.5,0.1,0.8,0.4,1.2
	c0.3,0.3,0.6,0.4,1.2,0.4c0.5,0,0.8-0.1,1.2-0.4c0.3-0.3,0.4-0.6,0.4-1.2c0-0.4-0.1-0.8-0.4-1.2c-0.3-0.3-0.6-0.4-1.2-0.4
	c-0.4,0-0.8,0.1-1.2,0.4C191.3,241.9,191.1,242.2,191.1,242.6L191.1,242.6L191.1,242.6z M190.7,247.4c0,0.3,0.1,0.7,0.2,1.1
	c0.2,0.3,0.4,0.6,0.7,0.7c0.3,0.2,0.6,0.3,1.1,0.3c0.5,0,1.1-0.2,1.4-0.5c0.3-0.4,0.5-0.8,0.5-1.5c0-0.6-0.2-1.2-0.5-1.5
	c-0.4-0.4-0.8-0.6-1.5-0.6c-0.5,0-1.1,0.2-1.4,0.6C190.9,246.3,190.7,246.9,190.7,247.4L190.7,247.4L190.7,247.4z M197.2,245.3
	c0-1.2,0.1-2.2,0.3-3s0.6-1.3,1.1-1.7c0.4-0.4,1.1-0.6,1.8-0.6c0.5,0,1,0.1,1.4,0.3c0.4,0.2,0.7,0.5,1,1s0.4,1,0.6,1.5
	c0.1,0.6,0.2,1.4,0.2,2.4c0,1.2-0.1,2.2-0.3,3s-0.5,1.3-1.1,1.7c-0.4,0.4-1.1,0.6-1.8,0.6c-1,0-1.7-0.3-2.2-1.1
	C197.5,248.7,197.2,247.2,197.2,245.3L197.2,245.3L197.2,245.3z M198.3,245.3c0,1.7,0.2,2.9,0.5,3.4c0.3,0.5,0.8,0.8,1.4,0.8
	c0.5,0,1.1-0.3,1.4-0.8c0.4-0.5,0.5-1.7,0.5-3.4c0-1.7-0.2-2.9-0.5-3.4c-0.4-0.5-0.8-0.8-1.4-0.8c-0.5,0-1,0.2-1.3,0.7
	C198.5,242.4,198.3,243.6,198.3,245.3L198.3,245.3L198.3,245.3z"/>
<path class="st3" d="M206.6,227.5l1.3,0.3c-0.3,1.2-0.7,2-1.5,2.5c-0.7,0.6-1.6,0.8-2.5,0.8s-1.9-0.2-2.5-0.6
	c-0.6-0.4-1.2-1.1-1.5-2c-0.3-0.8-0.5-1.8-0.5-2.8c0-1.1,0.2-2,0.5-2.8c0.3-0.7,1-1.4,1.7-1.8c0.7-0.4,1.5-0.6,2.3-0.6
	c1,0,1.8,0.2,2.4,0.7s1.2,1.3,1.4,2.2l-1.3,0.3c-0.2-0.7-0.5-1.3-1-1.6c-0.4-0.3-1-0.5-1.6-0.5c-0.7,0-1.4,0.2-1.9,0.5
	c-0.5,0.4-0.8,0.8-1.1,1.5c-0.2,0.6-0.3,1.3-0.3,2c0,0.8,0.1,1.7,0.3,2.3s0.6,1.2,1.2,1.5c0.5,0.3,1.1,0.5,1.7,0.5
	c0.7,0,1.4-0.2,1.8-0.6C206.1,229.1,206.5,228.5,206.6,227.5L206.6,227.5L206.6,227.5z"/>
<path class="st3" d="M188.8,231.2l3.7-10.3h1.4l4,10.3h-1.5l-1.2-3.1h-4l-1.1,3.1H188.8L188.8,231.2z M191.6,226.9h3.3l-1.1-2.9
	c-0.3-0.8-0.5-1.6-0.6-2.1c-0.1,0.6-0.3,1.3-0.5,2L191.6,226.9L191.6,226.9L191.6,226.9z"/>
<path class="st3" d="M186.1,227.5l1.3,0.3c-0.3,1.2-0.7,2-1.5,2.5c-0.7,0.6-1.6,0.8-2.5,0.8s-1.9-0.2-2.5-0.6
	c-0.6-0.4-1.2-1.1-1.5-2c-0.3-0.8-0.5-1.8-0.5-2.8c0-1.1,0.2-2,0.5-2.8c0.3-0.7,1-1.4,1.7-1.8c0.7-0.4,1.5-0.6,2.3-0.6
	c1,0,1.8,0.2,2.4,0.7c0.6,0.5,1.2,1.3,1.4,2.2l-1.3,0.3c-0.2-0.7-0.5-1.3-1-1.6c-0.4-0.3-1-0.5-1.6-0.5c-0.7,0-1.4,0.2-1.9,0.5
	c-0.5,0.4-0.8,0.8-1.1,1.5c-0.2,0.6-0.3,1.3-0.3,2c0,0.8,0.1,1.7,0.3,2.3s0.6,1.2,1.2,1.5c0.5,0.3,1.1,0.5,1.7,0.5
	c0.7,0,1.4-0.2,1.8-0.6C185.6,229.1,186,228.5,186.1,227.5L186.1,227.5L186.1,227.5z"/>
<path class="st3" d="M173.1,227.1V226h4.1v3.8c-0.6,0.5-1.3,1-1.9,1.2c-0.6,0.3-1.4,0.4-2,0.4c-1,0-1.8-0.2-2.7-0.6
	c-0.7-0.4-1.4-1.1-1.8-1.9c-0.4-0.8-0.6-1.7-0.6-2.8c0-1.1,0.2-1.9,0.6-2.8c0.4-0.8,1-1.5,1.7-1.9c0.7-0.4,1.6-0.6,2.5-0.6
	c0.7,0,1.4,0.1,1.9,0.3s1.1,0.5,1.4,1c0.3,0.4,0.5,1,0.7,1.7l-1.2,0.3c-0.1-0.5-0.3-1-0.5-1.3s-0.5-0.5-1-0.7
	c-0.4-0.2-0.8-0.3-1.4-0.3c-0.6,0-1.1,0.1-1.5,0.3c-0.4,0.2-0.7,0.4-1.1,0.7c-0.3,0.3-0.4,0.6-0.6,1.1c-0.2,0.6-0.4,1.4-0.4,2.1
	c0,1,0.1,1.7,0.4,2.3c0.3,0.6,0.7,1.1,1.3,1.4s1.2,0.4,1.8,0.4c0.5,0,1.1-0.1,1.6-0.3s1-0.4,1.2-0.7v-1.9L173.1,227.1L173.1,227.1
	L173.1,227.1z"/>
<path class="st3" d="M158.1,231.2l3.7-10.3h1.4l4,10.3h-1.5l-1.2-3.1h-4l-1.1,3.1H158.1L158.1,231.2z M160.9,226.9h3.3l-1.1-2.9
	c-0.3-0.8-0.5-1.6-0.6-2.1c-0.1,0.6-0.3,1.3-0.5,2L160.9,226.9L160.9,226.9L160.9,226.9z"/>
<path class="st3" d="M147.8,231.2l3.7-10.3h1.4l4,10.3h-1.5l-1.2-3.1h-4l-1.1,3.1H147.8L147.8,231.2z M150.7,226.9h3.3l-1.1-2.9
	c-0.3-0.8-0.5-1.6-0.6-2.1c-0.1,0.6-0.3,1.3-0.5,2L150.7,226.9L150.7,226.9L150.7,226.9z"/>
<path class="st0" d="M247.5,192.3l1.3,0.3c-0.3,1.2-0.7,2-1.5,2.5c-0.7,0.6-1.6,0.8-2.5,0.8s-1.9-0.2-2.5-0.6
	c-0.6-0.4-1.2-1.1-1.5-2c-0.3-0.8-0.5-1.8-0.5-2.8c0-1.1,0.2-2,0.5-2.8c0.4-0.8,1-1.4,1.7-1.8c0.7-0.4,1.5-0.6,2.3-0.6
	c1,0,1.8,0.2,2.4,0.7c0.6,0.5,1.2,1.3,1.4,2.2l-1.3,0.3c-0.2-0.7-0.5-1.3-1-1.6c-0.4-0.3-1-0.5-1.6-0.5c-0.7,0-1.4,0.2-1.9,0.5
	c-0.5,0.4-0.8,0.8-1.1,1.5c-0.2,0.6-0.3,1.3-0.3,2c0,0.8,0.1,1.7,0.3,2.3c0.2,0.6,0.6,1.2,1.2,1.5c0.5,0.3,1.1,0.5,1.7,0.5
	c0.7,0,1.4-0.2,1.8-0.6C247,193.9,247.4,193.3,247.5,192.3L247.5,192.3L247.5,192.3z"/>
<path class="st0" d="M250.2,198.7l3.7-10.3h1.4l4,10.3h-1.5l-1.2-3.1h-4l-1.1,3.1H250.2L250.2,198.7z M253.1,194.5h3.3l-1.1-2.9
	c-0.3-0.8-0.5-1.6-0.6-2.1c-0.1,0.6-0.3,1.3-0.5,2L253.1,194.5L253.1,194.5L253.1,194.5z"/>
<path class="st4" d="M262.7,205.5v-1.2h4.1v3.8c-0.6,0.5-1.3,1-1.9,1.2c-0.6,0.3-1.4,0.4-2,0.4c-1,0-1.8-0.2-2.7-0.6
	c-0.7-0.4-1.4-1.1-1.8-1.9c-0.4-0.8-0.6-1.7-0.6-2.8c0-1.1,0.2-1.9,0.6-2.8c0.4-0.8,1-1.5,1.7-1.9c0.7-0.4,1.6-0.6,2.5-0.6
	c0.7,0,1.4,0.1,1.9,0.3c0.5,0.2,1.1,0.5,1.4,1c0.3,0.4,0.5,1,0.7,1.7l-1.2,0.3c-0.1-0.5-0.3-1-0.5-1.3c-0.2-0.3-0.5-0.5-1-0.7
	c-0.4-0.2-0.8-0.3-1.4-0.3c-0.6,0-1.1,0.1-1.5,0.3c-0.4,0.2-0.7,0.4-1.1,0.7c-0.3,0.3-0.4,0.6-0.6,1.1c-0.2,0.6-0.4,1.4-0.4,2.1
	c0,1,0.1,1.7,0.4,2.3c0.3,0.6,0.7,1.1,1.3,1.4c0.5,0.3,1.2,0.4,1.8,0.4c0.5,0,1.1-0.1,1.6-0.3s1-0.4,1.2-0.7v-1.9L262.7,205.5
	L262.7,205.5L262.7,205.5z"/>
<path class="st4" d="M275.1,199.2h1.3v5.9c0,1.1-0.1,1.9-0.3,2.4c-0.2,0.6-0.6,1.1-1.2,1.5s-1.4,0.5-2.2,0.5c-1,0-1.7-0.2-2.2-0.5
	c-0.5-0.3-1-0.8-1.3-1.5c-0.2-0.6-0.3-1.5-0.3-2.5v-5.9h1.3v5.9c0,0.8,0.1,1.6,0.2,2s0.4,0.7,0.8,1s0.8,0.3,1.4,0.3
	c1,0,1.6-0.2,2-0.6c0.4-0.4,0.6-1.4,0.6-2.7L275.1,199.2L275.1,199.2L275.1,199.2z"/>
<path d="M285.9,195.1l1.3,0.3c-0.3,1.2-0.7,2-1.5,2.5c-0.7,0.6-1.6,0.8-2.5,0.8s-1.9-0.2-2.5-0.6c-0.6-0.4-1.2-1.1-1.5-2
	c-0.3-0.8-0.5-1.8-0.5-2.8c0-1.1,0.2-2,0.5-2.8c0.4-0.8,1-1.4,1.7-1.8c0.7-0.4,1.5-0.6,2.3-0.6c1,0,1.8,0.2,2.4,0.7
	c0.6,0.5,1.2,1.3,1.4,2.2l-1.3,0.3c-0.2-0.7-0.5-1.3-1-1.6c-0.4-0.3-1-0.5-1.6-0.5c-0.7,0-1.4,0.2-1.9,0.5c-0.5,0.3-0.8,0.8-1.1,1.5
	c-0.2,0.6-0.3,1.3-0.3,2c0,0.8,0.1,1.7,0.3,2.3c0.2,0.6,0.6,1.2,1.2,1.5c0.5,0.3,1.1,0.5,1.7,0.5c0.7,0,1.4-0.2,1.8-0.6
	C285.3,196.7,285.8,195.9,285.9,195.1L285.9,195.1L285.9,195.1z"/>
<path d="M278.3,239.3L282,229h1.4l4,10.3h-1.5l-1.2-3.1h-4l-1.1,3.1H278.3z M281.2,235.1h3.3l-1.1-2.9c-0.3-0.8-0.5-1.6-0.6-2.1
	c-0.1,0.6-0.3,1.3-0.5,2L281.2,235.1L281.2,235.1L281.2,235.1z"/>
<path class="st4" d="M268.1,231.2l3.7-10.3h1.4l4,10.3h-1.5l-1.2-3.1h-4l-1.1,3.1H268.1L268.1,231.2z M270.9,226.9h3.3l-1.1-2.9
	c-0.3-0.8-0.5-1.6-0.6-2.1c-0.1,0.6-0.3,1.3-0.5,2L270.9,226.9L270.9,226.9L270.9,226.9z"/>
<path class="st4" d="M265.5,227.5l1.3,0.3c-0.3,1.2-0.7,2-1.5,2.5c-0.7,0.6-1.6,0.8-2.5,0.8s-1.9-0.2-2.5-0.6
	c-0.6-0.4-1.2-1.1-1.5-2c-0.3-0.8-0.5-1.8-0.5-2.8c0-1.1,0.2-2,0.5-2.8c0.3-0.7,1-1.4,1.7-1.8c0.7-0.4,1.5-0.6,2.3-0.6
	c1,0,1.8,0.2,2.4,0.7s1.2,1.3,1.4,2.2l-1.3,0.3c-0.2-0.7-0.5-1.3-1-1.6c-0.4-0.3-1-0.5-1.6-0.5c-0.7,0-1.4,0.2-1.9,0.5
	c-0.5,0.3-0.8,0.8-1.1,1.5c-0.2,0.6-0.3,1.3-0.3,2c0,0.8,0.1,1.7,0.3,2.3s0.6,1.2,1.2,1.5c0.5,0.3,1.1,0.5,1.7,0.5
	c0.7,0,1.4-0.2,1.8-0.6C264.8,229.1,265.4,228.5,265.5,227.5L265.5,227.5L265.5,227.5z"/>
<path class="st0" d="M250.2,239.3l3.7-10.3h1.4l4,10.3h-1.5l-1.2-3.1h-4l-1.1,3.1H250.2L250.2,239.3z M253.1,235.1h3.3l-1.1-2.9
	c-0.3-0.8-0.5-1.6-0.6-2.1c-0.1,0.6-0.3,1.3-0.5,2L253.1,235.1L253.1,235.1L253.1,235.1z"/>
<path class="st0" d="M247.5,241.1l1.3,0.3c-0.3,1.2-0.7,2-1.5,2.5c-0.7,0.6-1.6,0.8-2.5,0.8s-1.9-0.2-2.5-0.6
	c-0.6-0.4-1.2-1.1-1.5-2c-0.3-1-0.5-1.8-0.5-2.8c0-1.1,0.2-2,0.5-2.8c0.4-0.8,1-1.4,1.7-1.8c0.7-0.4,1.5-0.6,2.3-0.6
	c1,0,1.8,0.2,2.4,0.7c0.6,0.5,1.2,1.3,1.4,2.2l-1.3,0.3c-0.2-0.7-0.5-1.3-1-1.6c-0.4-0.3-1-0.5-1.6-0.5c-0.7,0-1.4,0.2-1.9,0.5
	c-0.5,0.4-0.8,0.8-1.1,1.5s-0.3,1.3-0.3,2c0,0.8,0.1,1.7,0.3,2.3c0.2,0.6,0.6,1.2,1.2,1.5c0.5,0.3,1.1,0.5,1.7,0.5
	c0.7,0,1.4-0.2,1.8-0.6C247,242.6,247.4,242,247.5,241.1L247.5,241.1L247.5,241.1z"/>
<path class="st5" d="M296.2,205.9l1.3,0.3c-0.3,1.2-0.7,2-1.5,2.5c-0.7,0.6-1.6,0.8-2.5,0.8c-1.1,0-1.9-0.2-2.5-0.6
	c-0.6-0.4-1.2-1.1-1.5-2c-0.3-0.8-0.5-1.8-0.5-2.8c0-1.1,0.2-2,0.5-2.8c0.4-0.8,1-1.4,1.7-1.8c0.7-0.4,1.5-0.6,2.3-0.6
	c1,0,1.8,0.2,2.4,0.7c0.6,0.5,1.2,1.3,1.4,2.2l-1.3,0.3c-0.2-0.7-0.5-1.3-1-1.6s-1-0.5-1.6-0.5c-0.7,0-1.4,0.2-1.9,0.5
	c-0.5,0.4-0.8,0.8-1.1,1.5c-0.2,0.6-0.3,1.3-0.3,2c0,0.8,0.1,1.7,0.3,2.3c0.2,0.6,0.6,1.2,1.2,1.5s1.1,0.5,1.7,0.5
	c0.7,0,1.4-0.2,1.8-0.6C295.7,207.4,296,206.8,296.2,205.9L296.2,205.9L296.2,205.9z"/>
<path class="st5" d="M298.8,209.5l3.7-10.3h1.4l4,10.3h-1.5l-1.2-3.1h-4l-1.1,3.1H298.8z M301.6,205.3h3.3l-1.1-2.9
	c-0.3-0.8-0.5-1.6-0.6-2.1c-0.1,0.6-0.3,1.3-0.5,2L301.6,205.3L301.6,205.3L301.6,205.3z"/>
<path class="st5" d="M313.8,205.5v-1.2h4.1v3.8c-0.6,0.5-1.3,1-1.9,1.2c-0.6,0.3-1.4,0.4-2,0.4c-1,0-1.8-0.2-2.7-0.6
	c-0.7-0.4-1.4-1.1-1.8-1.9c-0.4-0.8-0.6-1.7-0.6-2.8c0-1.1,0.2-1.9,0.6-2.8c0.4-0.8,1-1.5,1.7-1.9c0.7-0.4,1.6-0.6,2.5-0.6
	c0.7,0,1.4,0.1,1.9,0.3c0.5,0.2,1.1,0.5,1.4,1c0.3,0.4,0.5,1,0.7,1.7l-1.2,0.3c-0.1-0.5-0.3-1-0.5-1.3c-0.2-0.3-0.5-0.5-1-0.7
	c-0.4-0.2-0.8-0.3-1.4-0.3c-0.6,0-1.1,0.1-1.5,0.3c-0.4,0.2-0.7,0.4-1.1,0.7c-0.3,0.3-0.4,0.6-0.6,1.1c-0.2,0.6-0.4,1.4-0.4,2.1
	c0,1,0.1,1.7,0.4,2.3s0.7,1.1,1.3,1.4c0.5,0.3,1.2,0.4,1.8,0.4c0.5,0,1.1-0.1,1.6-0.3s1-0.4,1.2-0.7v-1.9L313.8,205.5L313.8,205.5
	L313.8,205.5z"/>
<path class="st5" d="M324.1,205.5v-1.2h4.1v3.8c-0.6,0.5-1.3,1-1.9,1.2c-0.6,0.3-1.4,0.4-2,0.4c-1,0-1.8-0.2-2.7-0.6
	c-0.7-0.4-1.4-1.1-1.8-1.9c-0.4-0.8-0.6-1.7-0.6-2.8c0-1.1,0.2-1.9,0.6-2.8c0.4-0.8,1-1.5,1.7-1.9c0.7-0.4,1.6-0.6,2.5-0.6
	c0.7,0,1.4,0.1,1.9,0.3c0.5,0.2,1.1,0.5,1.4,1c0.3,0.4,0.5,1,0.7,1.7l-1.2,0.3c-0.1-0.5-0.3-1-0.5-1.3c-0.2-0.3-0.5-0.5-1-0.7
	c-0.4-0.2-0.8-0.3-1.4-0.3c-0.6,0-1.1,0.1-1.5,0.3c-0.4,0.2-0.7,0.4-1.1,0.7c-0.3,0.3-0.4,0.6-0.6,1.1c-0.2,0.6-0.4,1.4-0.4,2.1
	c0,1,0.1,1.7,0.4,2.3c0.3,0.6,0.7,1.1,1.3,1.4c0.5,0.3,1.2,0.4,1.8,0.4c0.5,0,1.1-0.1,1.6-0.3s1-0.4,1.2-0.7v-1.9L324.1,205.5
	L324.1,205.5L324.1,205.5z"/>
<path class="st5" d="M334.3,205.5v-1.2h4.1v3.8c-0.6,0.5-1.3,1-1.9,1.2c-0.6,0.3-1.4,0.4-2,0.4c-1,0-1.8-0.2-2.7-0.6
	c-0.7-0.4-1.4-1.1-1.8-1.9c-0.4-0.8-0.6-1.7-0.6-2.8c0-1.1,0.2-1.9,0.6-2.8c0.4-0.8,1-1.5,1.7-1.9c0.7-0.4,1.6-0.6,2.5-0.6
	c0.7,0,1.4,0.1,1.9,0.3c0.5,0.2,1.1,0.5,1.4,1c0.3,0.4,0.5,1,0.7,1.7l-1.2,0.3c-0.1-0.5-0.3-1-0.5-1.3c-0.2-0.3-0.5-0.5-1-0.7
	c-0.4-0.2-0.8-0.3-1.4-0.3c-0.6,0-1.1,0.1-1.5,0.3c-0.4,0.2-0.7,0.4-1.1,0.7c-0.3,0.3-0.4,0.6-0.6,1.1c-0.2,0.6-0.4,1.4-0.4,2.1
	c0,1,0.1,1.7,0.4,2.3c0.3,0.6,0.7,1.1,1.3,1.4c0.5,0.3,1.2,0.4,1.8,0.4c0.5,0,1.1-0.1,1.6-0.3s1-0.4,1.2-0.7v-1.9L334.3,205.5
	L334.3,205.5L334.3,205.5z"/>
<path class="st5" d="M346.8,199.2h1.3v5.9c0,1.1-0.1,1.9-0.3,2.4c-0.2,0.6-0.6,1.1-1.2,1.5s-1.4,0.5-2.2,0.5c-1,0-1.7-0.2-2.2-0.5
	c-0.5-0.3-1-0.8-1.3-1.5c-0.2-0.6-0.3-1.5-0.3-2.5v-5.9h1.3v5.9c0,0.8,0.1,1.6,0.2,2c0.1,0.4,0.4,0.7,0.8,1s0.8,0.3,1.4,0.3
	c1,0,1.6-0.2,2-0.6c0.4-0.4,0.6-1.4,0.6-2.7L346.8,199.2L346.8,199.2L346.8,199.2z"/>
<path class="st0" d="M352.2,194.7v-1.2h4.1v3.8c-0.6,0.5-1.3,1-1.9,1.2c-0.6,0.3-1.4,0.4-2,0.4c-1,0-1.8-0.2-2.7-0.6
	c-0.7-0.4-1.4-1.1-1.8-1.9c-0.4-0.8-0.6-1.7-0.6-2.8c0-1.1,0.2-1.9,0.6-2.8c0.4-0.8,1-1.5,1.7-1.9c0.7-0.4,1.6-0.6,2.5-0.6
	c0.7,0,1.4,0.1,1.9,0.3s1.1,0.5,1.4,1c0.3,0.4,0.5,1,0.7,1.7l-1.2,0.3c-0.1-0.5-0.3-1-0.5-1.3c-0.2-0.3-0.5-0.5-1-0.7
	s-0.8-0.3-1.4-0.3c-0.6,0-1.1,0.1-1.5,0.3s-0.7,0.4-1.1,0.7c-0.3,0.3-0.4,0.6-0.6,1.1c-0.2,0.6-0.4,1.4-0.4,2.1c0,1,0.1,1.7,0.4,2.3
	c0.3,0.6,0.7,1.1,1.3,1.4s1.2,0.4,1.8,0.4c0.5,0,1.1-0.1,1.6-0.3c0.5-0.2,1-0.4,1.2-0.7v-1.9L352.2,194.7L352.2,194.7L352.2,194.7z"
	/>
<path class="st0" d="M360.2,193.3l3.7-10.3h1.4l4,10.3h-1.5l-1.2-3.1h-4l-1.1,3.1H360.2z M363.1,189h3.3l-1.1-2.9
	c-0.3-0.8-0.5-1.6-0.6-2.1c-0.1,0.6-0.3,1.3-0.5,2L363.1,189L363.1,189L363.1,189z"/>
<path class="st0" d="M373,195.9l3.7-10.3h1.4l4,10.3h-1.5l-1.2-3.1h-4l-1.1,3.1H373z M375.9,191.7h3.3l-1.1-2.9
	c-0.3-0.8-0.5-1.6-0.6-2.1c-0.1,0.6-0.3,1.3-0.5,2L375.9,191.7L375.9,191.7L375.9,191.7z"/>
<line class="st2" x1="377.6" y1="183" x2="377.6" y2="175.8"/>
<path d="M376.7,164.8l-1.2,0.1c-0.1-0.5-0.2-0.8-0.4-1.1c-0.3-0.3-0.7-0.5-1.2-0.5c-0.4,0-0.7,0.1-1,0.3c-0.4,0.3-0.6,0.7-0.8,1.3
	c-0.2,0.5-0.3,1.4-0.3,2.3c0.3-0.4,0.6-0.8,1.1-1.1c0.4-0.2,0.8-0.3,1.3-0.3c0.8,0,1.5,0.3,2,1s0.8,1.4,0.8,2.4
	c0,0.6-0.1,1.3-0.4,1.8c-0.3,0.5-0.6,1-1.1,1.3s-1,0.4-1.6,0.4c-1,0-1.8-0.4-2.4-1.2c-0.6-0.7-1-2-1-3.8c0-2,0.3-3.4,1.1-4.3
	c0.6-0.7,1.4-1.2,2.4-1.2c0.7,0,1.4,0.2,1.9,0.6C376.4,163.4,376.6,164,376.7,164.8L376.7,164.8L376.7,164.8z M371.9,169.2
	c0,0.4,0.1,0.8,0.2,1.3c0.2,0.4,0.4,0.7,0.7,1c0.3,0.2,0.6,0.3,1,0.3c0.5,0,1-0.2,1.3-0.6c0.3-0.4,0.5-1.1,0.5-1.8
	c0-0.7-0.2-1.3-0.5-1.7c-0.3-0.4-0.8-0.6-1.4-0.6s-1,0.2-1.4,0.6C372.1,168,371.9,168.6,371.9,169.2L371.9,169.2L371.9,169.2z
	 M378.1,167.5c0-1.2,0.1-2.2,0.3-3c0.2-0.7,0.6-1.3,1.1-1.7c0.4-0.4,1.1-0.6,1.8-0.6c0.5,0,1,0.1,1.4,0.3s0.7,0.5,1,1
	c0.2,0.4,0.4,1,0.6,1.5c0.1,0.6,0.2,1.4,0.2,2.4c0,1.2-0.1,2.2-0.3,3s-0.5,1.3-1.1,1.7c-0.4,0.4-1.1,0.6-1.8,0.6
	c-1,0-1.7-0.3-2.2-1.1C378.4,170.8,378.1,169.4,378.1,167.5L378.1,167.5L378.1,167.5z M379.4,167.5c0,1.7,0.2,2.9,0.5,3.4
	s0.8,0.8,1.4,0.8s1.1-0.3,1.4-0.8s0.5-1.7,0.5-3.4s-0.2-2.9-0.5-3.4c-0.3-0.5-0.8-0.8-1.4-0.8s-1,0.2-1.3,0.7
	C379.6,164.6,379.4,165.8,379.4,167.5L379.4,167.5z"/>
<path class="st0" d="M388.1,200.1v-1.2h4.1v3.8c-0.6,0.5-1.3,1-1.9,1.2c-0.6,0.3-1.4,0.4-2,0.4c-1,0-1.8-0.2-2.7-0.6
	c-0.7-0.4-1.4-1.1-1.8-1.9c-0.4-0.8-0.6-1.7-0.6-2.8c0-1.1,0.2-1.9,0.6-2.8c0.4-0.8,1-1.5,1.7-1.9c0.7-0.4,1.6-0.6,2.5-0.6
	c0.7,0,1.4,0.1,1.9,0.3c0.5,0.2,1.1,0.5,1.4,1c0.3,0.4,0.5,1,0.7,1.7L391,197c-0.1-0.5-0.3-1-0.5-1.3c-0.2-0.3-0.5-0.5-1-0.7
	s-0.8-0.3-1.4-0.3c-0.6,0-1.1,0.1-1.5,0.3s-0.7,0.4-1.1,0.7c-0.3,0.3-0.4,0.6-0.6,1.1c-0.2,0.6-0.4,1.4-0.4,2.1c0,1,0.1,1.7,0.4,2.3
	c0.3,0.6,0.7,1.1,1.3,1.4s1.2,0.4,1.8,0.4c0.5,0,1.1-0.1,1.6-0.3c0.5-0.2,1-0.4,1.2-0.7v-1.9L388.1,200.1L388.1,200.1L388.1,200.1z"
	/>
<path class="st0" d="M395.4,207.4h1.3v5.9c0,1.1-0.1,1.9-0.3,2.4c-0.2,0.6-0.6,1.1-1.2,1.5c-0.5,0.4-1.4,0.5-2.2,0.5
	s-1.7-0.2-2.2-0.5c-0.5-0.3-1-0.8-1.3-1.5c-0.2-0.6-0.3-1.5-0.3-2.5v-5.9h1.3v5.9c0,0.8,0.1,1.6,0.2,2s0.4,0.7,0.8,1
	c0.4,0.2,0.8,0.3,1.4,0.3c1,0,1.6-0.2,2-0.6c0.4-0.4,0.6-1.4,0.6-2.7L395.4,207.4L395.4,207.4L395.4,207.4z"/>
<path class="st0" d="M390.3,220.9h1.3v5.9c0,1.1-0.1,1.9-0.3,2.4c-0.2,0.6-0.6,1.1-1.2,1.5c-0.5,0.4-1.4,0.5-2.2,0.5
	c-1,0-1.7-0.2-2.2-0.5c-0.5-0.3-1-0.8-1.3-1.5c-0.2-0.6-0.3-1.5-0.3-2.5v-5.9h1.3v5.9c0,0.8,0.1,1.6,0.2,2s0.4,0.7,0.8,1
	s0.8,0.3,1.4,0.3c1,0,1.6-0.2,2-0.6c0.4-0.4,0.6-1.4,0.6-2.7L390.3,220.9L390.3,220.9L390.3,220.9z"/>
<path class="st0" d="M383.2,238.4l1.3,0.3c-0.3,1.2-0.7,2-1.5,2.5c-0.7,0.6-1.6,0.8-2.5,0.8c-1.1,0-1.9-0.2-2.5-0.6
	c-0.6-0.4-1.2-1.1-1.5-2c-0.3-0.8-0.5-1.8-0.5-2.8c0-1.1,0.2-2,0.5-2.8c0.4-0.8,1-1.4,1.7-1.8c0.7-0.4,1.5-0.6,2.3-0.6
	c1,0,1.8,0.2,2.4,0.7c0.6,0.5,1.2,1.3,1.4,2.2l-1.3,0.3c-0.2-0.7-0.5-1.3-1-1.6c-0.4-0.3-1-0.5-1.6-0.5c-0.7,0-1.4,0.2-1.9,0.5
	c-0.5,0.3-0.8,0.8-1.1,1.5c-0.2,0.6-0.3,1.3-0.3,2c0,0.8,0.1,1.7,0.3,2.3c0.2,0.6,0.6,1.2,1.2,1.5c0.5,0.3,1.1,0.5,1.7,0.5
	c0.7,0,1.4-0.2,1.8-0.6C382.7,240,383,239.3,383.2,238.4L383.2,238.4L383.2,238.4z"/>
<path class="st0" d="M370.4,241.1l1.3,0.3c-0.3,1.2-0.7,2-1.5,2.5c-0.7,0.6-1.6,0.8-2.5,0.8c-1.1,0-1.9-0.2-2.5-0.6
	c-0.6-0.4-1.2-1.1-1.5-2c-0.3-0.8-0.5-1.8-0.5-2.8c0-1.1,0.2-2,0.5-2.8c0.4-0.8,1-1.4,1.7-1.8c0.7-0.4,1.5-0.6,2.3-0.6
	c1,0,1.8,0.2,2.4,0.7c0.6,0.5,1.2,1.3,1.4,2.2l-1.3,0.3c-0.2-0.7-0.5-1.3-1-1.6c-0.4-0.3-1-0.5-1.6-0.5c-0.7,0-1.4,0.2-1.9,0.5
	c-0.5,0.3-0.8,0.8-1.1,1.5s-0.3,1.3-0.3,2c0,0.8,0.1,1.7,0.3,2.3c0.2,0.6,0.6,1.2,1.2,1.5c0.5,0.3,1.1,0.5,1.7,0.5
	c0.7,0,1.4-0.2,1.8-0.6C369.9,242.6,370.3,242,370.4,241.1L370.4,241.1L370.4,241.1z"/>
<path class="st0" d="M350,239.3l3.7-10.3h1.4l4,10.3h-1.5l-1.2-3.1h-4l-1.1,3.1H350z M352.8,235.1h3.3l-1.1-2.9
	c-0.3-0.8-0.5-1.6-0.6-2.1c-0.1,0.6-0.3,1.3-0.5,2L352.8,235.1L352.8,235.1L352.8,235.1z"/>
<path class="st5" d="M339.7,231.2l3.7-10.3h1.4l4,10.3h-1.5l-1.2-3.1h-4l-1.1,3.1H339.7z M342.6,226.9h3.3l-1.1-2.9
	c-0.3-0.8-0.5-1.6-0.6-2.1c-0.1,0.6-0.3,1.3-0.5,2L342.6,226.9L342.6,226.9L342.6,226.9z"/>
<path class="st5" d="M336.5,220.9h1.3v5.9c0,1.1-0.1,1.9-0.3,2.4c-0.2,0.6-0.6,1.1-1.2,1.5c-0.5,0.4-1.4,0.5-2.2,0.5
	c-1,0-1.7-0.2-2.2-0.5c-0.5-0.3-1-0.8-1.3-1.5c-0.2-0.6-0.3-1.5-0.3-2.5v-5.9h1.3v5.9c0,0.8,0.1,1.6,0.2,2c0.1,0.4,0.4,0.7,0.8,1
	c0.4,0.2,0.8,0.3,1.4,0.3c1,0,1.6-0.2,2-0.6c0.4-0.4,0.6-1.4,0.6-2.7L336.5,220.9L336.5,220.9L336.5,220.9z"/>
<path class="st5" d="M326.4,220.9h1.3v5.9c0,1.1-0.1,1.9-0.3,2.4c-0.2,0.6-0.6,1.1-1.2,1.5c-0.5,0.4-1.4,0.5-2.2,0.5
	s-1.7-0.2-2.2-0.5c-0.5-0.3-1-0.8-1.3-1.5c-0.2-0.6-0.3-1.5-0.3-2.5v-5.9h1.3v5.9c0,0.8,0.1,1.6,0.2,2s0.4,0.7,0.8,1
	s0.8,0.3,1.4,0.3c1,0,1.6-0.2,2-0.6c0.4-0.4,0.6-1.4,0.6-2.7L326.4,220.9L326.4,220.9L326.4,220.9z"/>
<path class="st5" d="M316.1,220.9h1.3v5.9c0,1.1-0.1,1.9-0.3,2.4c-0.2,0.6-0.6,1.1-1.2,1.5c-0.5,0.4-1.4,0.5-2.2,0.5
	c-1,0-1.7-0.2-2.2-0.5c-0.5-0.3-1-0.8-1.3-1.5c-0.2-0.6-0.3-1.5-0.3-2.5v-5.9h1.3v5.9c0,0.8,0.1,1.6,0.2,2c0.1,0.4,0.4,0.7,0.8,1
	s0.8,0.3,1.4,0.3c1,0,1.6-0.2,2-0.6c0.4-0.4,0.6-1.4,0.6-2.7L316.1,220.9L316.1,220.9L316.1,220.9z"/>
<line class="st2" x1="313.6" y1="232.6" x2="313.6" y2="240"/>
<path d="M306.7,245.7v-1.3h6.3v1c-0.6,0.7-1.3,1.6-1.8,2.8c-0.6,1.2-1.1,2.3-1.4,3.6c-0.2,0.8-0.4,1.8-0.4,2.9h-1.3
	c0-0.8,0.2-1.8,0.4-3c0.3-1.2,0.7-2.2,1.3-3.3c0.5-1.1,1.1-2,1.7-2.7H306.7z M314.2,249.5c0-1.2,0.1-2.2,0.3-3s0.6-1.3,1.1-1.7
	c0.4-0.4,1.1-0.6,1.8-0.6c0.5,0,1,0.1,1.4,0.3s0.7,0.5,1,1c0.2,0.4,0.4,1,0.6,1.5c0.1,0.6,0.2,1.4,0.2,2.4c0,1.2-0.1,2.2-0.3,3
	s-0.5,1.3-1.1,1.7c-0.4,0.4-1.1,0.6-1.8,0.6c-1,0-1.7-0.3-2.2-1.1C314.5,252.8,314.2,251.4,314.2,249.5L314.2,249.5L314.2,249.5z
	 M315.4,249.5c0,1.7,0.2,2.9,0.5,3.4c0.3,0.5,0.8,0.8,1.4,0.8s1.1-0.3,1.4-0.8c0.4-0.5,0.5-1.7,0.5-3.4c0-1.7-0.2-2.9-0.5-3.4
	c-0.4-0.5-0.8-0.8-1.4-0.8s-1,0.2-1.3,0.7C315.6,246.6,315.4,247.8,315.4,249.5L315.4,249.5z"/>
<path class="st5" d="M305.9,220.9h1.3v5.9c0,1.1-0.1,1.9-0.3,2.4c-0.2,0.6-0.6,1.1-1.2,1.5c-0.5,0.4-1.4,0.5-2.2,0.5
	c-1,0-1.7-0.2-2.2-0.5c-0.5-0.3-1-0.8-1.3-1.5c-0.2-0.6-0.3-1.5-0.3-2.5v-5.9h1.3v5.9c0,0.8,0.1,1.6,0.2,2s0.4,0.7,0.8,1
	s0.8,0.3,1.4,0.3c1,0,1.6-0.2,2-0.6c0.4-0.4,0.6-1.4,0.6-2.7L305.9,220.9L305.9,220.9L305.9,220.9z"/>
<path class="st5" d="M293.4,227.1V226h4.1v3.8c-0.6,0.5-1.3,1-1.9,1.2c-0.6,0.3-1.4,0.4-2,0.4c-1,0-1.8-0.2-2.7-0.6
	c-0.7-0.4-1.4-1.1-1.8-1.9c-0.4-0.8-0.6-1.7-0.6-2.8c0-1.1,0.2-1.9,0.6-2.8c0.4-0.8,1-1.5,1.7-1.9c0.7-0.4,1.6-0.6,2.5-0.6
	c0.7,0,1.4,0.1,1.9,0.3s1.1,0.5,1.4,1c0.3,0.4,0.5,1,0.7,1.7l-1.2,0.3c-0.1-0.5-0.3-1-0.5-1.3c-0.2-0.3-0.5-0.5-1-0.7
	c-0.4-0.2-0.8-0.3-1.4-0.3c-0.6,0-1.1,0.1-1.5,0.3c-0.4,0.2-0.7,0.4-1.1,0.7c-0.3,0.3-0.4,0.6-0.6,1.1c-0.2,0.6-0.4,1.4-0.4,2.1
	c0,1,0.1,1.7,0.4,2.3c0.3,0.6,0.7,1.1,1.3,1.4s1.2,0.4,1.8,0.4c0.5,0,1.1-0.1,1.6-0.3s1-0.4,1.2-0.7v-1.9L293.4,227.1L293.4,227.1
	L293.4,227.1z"/>
<line class="st6" x1="152.4" y1="209.7" x2="152.4" y2="220.2"/>
<line class="st6" x1="162.6" y1="209.7" x2="162.6" y2="220.2"/>
<line class="st6" x1="173" y1="209.7" x2="173" y2="220.2"/>
<line class="st6" x1="183.5" y1="209.7" x2="183.5" y2="220.2"/>
<line class="st6" x1="193.2" y1="209.7" x2="193.2" y2="220.2"/>
<line class="st6" x1="203.9" y1="209.7" x2="203.9" y2="220.2"/>
<line class="st6" x1="214.1" y1="209.7" x2="214.1" y2="220.2"/>
<line class="st6" x1="262.8" y1="209.7" x2="262.8" y2="220.2"/>
<line class="st6" x1="272.6" y1="209.7" x2="272.6" y2="220.2"/>
<line class="st6" x1="293.8" y1="209.7" x2="293.8" y2="220.2"/>
<line class="st6" x1="303.2" y1="209.7" x2="303.2" y2="220.2"/>
<line class="st6" x1="313.6" y1="209.7" x2="313.6" y2="220.2"/>
<line class="st6" x1="323.7" y1="209.7" x2="323.7" y2="220.2"/>
<line class="st6" x1="334" y1="209.7" x2="334" y2="220.2"/>
<line class="st6" x1="344.3" y1="209.7" x2="344.3" y2="220.2"/>
<line class="st6" x1="114.1" y1="150.3" x2="102.8" y2="150.3"/>
<line class="st6" x1="114.1" y1="161.5" x2="102.8" y2="161.5"/>
<line class="st6" x1="114.1" y1="172" x2="102.8" y2="172"/>
<line class="st6" x1="114.1" y1="182.3" x2="102.8" y2="182.3"/>
<line class="st6" x1="114.1" y1="193.6" x2="102.8" y2="193.6"/>
<line class="st6" x1="114.1" y1="205.3" x2="102.8" y2="205.3"/>
<line class="st6" x1="114.2" y1="215.5" x2="102.8" y2="215.5"/>
<line class="st6" x1="114.1" y1="226.9" x2="102.8" y2="226.9"/>
<line class="st6" x1="114.2" y1="236.2" x2="102.8" y2="236.2"/>
<line class="st6" x1="114.1" y1="248.7" x2="102.8" y2="248.7"/>
<line class="st6" x1="114.2" y1="258.5" x2="102.8" y2="258.5"/>
<line class="st6" x1="114.1" y1="269.1" x2="102.8" y2="269.1"/>
<line class="st6" x1="114.2" y1="279.4" x2="102.8" y2="279.4"/>
<line class="st2" x1="147.8" y1="225.2" x2="127.5" y2="225.2"/>
<g>
	<text transform="matrix(1 0 0 1 15.2346 27.5917)" class="st7 st8">D16-05 aptamer</text>
</g>
<text transform="matrix(1 0 0 1 8.9312 285.0342)" class="st7 st9">5</text>
<text transform="matrix(1 0 0 1 16.8633 285.0342)" class="st7 st9">’</text>
<text transform="matrix(1 0 0 1 220.1904 286.8672)" class="st7 st9">3</text>
<text transform="matrix(1 0 0 1 228.123 286.8672)" class="st7 st9">’</text>
<path d="M135,227.5l1-1.2l1.1-0.5l1.1-0.2l2.2-0.7l-2.2-0.4l-1.1-0.1L136,224l-1.1-1L135,227.5L135,227.5L135,227.5z"/>
</svg>
