<svg id="图层_1" data-name="图层 1" xmlns="http://www.w3.org/2000/svg" viewBox="0 0 400 400"><defs><style>.cls-1,.cls-2,.cls-3,.cls-4,.cls-5,.cls-6,.cls-7,.cls-8,.cls-9{isolation:isolate;}.cls-1,.cls-2,.cls-3,.cls-4,.cls-5,.cls-6,.cls-7,.cls-8{font-size:14.43px;}.cls-1,.cls-2{fill:teal;}.cls-1,.cls-11,.cls-13,.cls-2,.cls-3,.cls-4,.cls-5,.cls-6,.cls-7,.cls-8,.cls-9{font-family:ArialMT, Arial;}.cls-2,.cls-4,.cls-6,.cls-8{letter-spacing:-0.06em;}.cls-3,.cls-4{fill:#32cd32;}.cls-5,.cls-6{fill:#228b22;}.cls-7,.cls-8{fill:#80db9e;}.cls-11,.cls-9{font-size:9.99px;}.cls-10{stroke:#000;stroke-miterlimit:10;stroke-width:0.07px;}.cls-12{letter-spacing:-0.04em;}.cls-13{font-size:20px;}</style></defs><text class="cls-1" transform="translate(35.88 292.1)">G</text><text class="cls-1" transform="translate(46.98 284.81)">G</text><text class="cls-1" transform="translate(56.16 275.97)">G</text><text class="cls-2" transform="translate(48.59 265.05)">A</text><text class="cls-1" transform="translate(47.31 253.02)">G</text><text class="cls-2" transform="translate(50.51 240.19)">A</text><text class="cls-1" transform="translate(55.76 231.44)">G</text><text class="cls-1" transform="translate(49.36 219.13)">C</text><text class="cls-1" transform="translate(39.61 209.86)">G</text><text class="cls-1" transform="translate(39.89 196.56)">G</text><text class="cls-2" transform="translate(51.76 190.03)">A</text><text class="cls-2" transform="translate(63.25 196.81)">A</text><text class="cls-1" transform="translate(63.98 209.44)">G</text><text class="cls-1" transform="translate(70.98 221.9)">C</text><text class="cls-1" transform="translate(82.89 222.2)">G</text><text class="cls-1" transform="translate(95.54 226.16)">U</text><text class="cls-1" transform="translate(105.61 232.65)">G</text><text class="cls-1" transform="translate(110.27 244.98)">C</text><text class="cls-1" transform="translate(123.13 242.9)">U</text><text class="cls-1" transform="translate(136.05 238.34)">G</text><text class="cls-3" transform="translate(148.16 232.11)">G</text><text class="cls-3" transform="translate(158.99 224.3)">G</text><text class="cls-3" transform="translate(160.03 209.9)">C</text><text class="cls-3" transform="translate(170.66 201.55)">C</text><text class="cls-4" transform="translate(181.65 201.93)">A</text><text class="cls-3" transform="translate(189.42 191.16)">U</text><text class="cls-3" transform="translate(195.54 179.25)">G</text><text class="cls-3" transform="translate(192.9 166.09)">G</text><text class="cls-4" transform="translate(202.01 155.16)">A</text><text class="cls-3" transform="translate(213.32 154.3)">G</text><text class="cls-3" transform="translate(223.61 144.6)">U</text><text class="cls-5" transform="translate(234.33 134.39)">C</text><text class="cls-5" transform="translate(245.27 124.69)">G</text><text class="cls-6" transform="translate(257.57 115.87)">A</text><text class="cls-5" transform="translate(270 108.2)">U</text><text class="cls-5" transform="translate(267.88 94.55)">G</text><text class="cls-5" transform="translate(273.4 83.84)">U</text><text class="cls-5" transform="translate(280.92 72.76)">G</text><text class="cls-6" transform="translate(292.01 65.04)">A</text><text class="cls-5" transform="translate(304.68 61.4)">U</text><text class="cls-6" transform="translate(318.27 62.43)">A</text><text class="cls-6" transform="translate(330.46 67.88)">A</text><text class="cls-5" transform="translate(338.96 76.16)">G</text><text class="cls-5" transform="translate(351.6 70.46)">U</text><text class="cls-6" transform="translate(363.24 62.18)">A</text><text class="cls-5" transform="translate(374.78 69.06)">G</text><text class="cls-5" transform="translate(372.03 82.4)">G</text><text class="cls-6" transform="translate(359.46 84.89)">A</text><text class="cls-5" transform="translate(346.91 90.5)">C</text><text class="cls-5" transform="translate(346.93 102.85)">G</text><text class="cls-5" transform="translate(343.58 115.8)">G</text><text class="cls-6" transform="translate(336.26 126.83)">A</text><text class="cls-5" transform="translate(325.27 134.61)">G</text><text class="cls-5" transform="translate(312.46 138.21)">G</text><text class="cls-5" transform="translate(299.21 137.2)">U</text><text class="cls-5" transform="translate(287.01 131.64)">G</text><text class="cls-5" transform="translate(278.42 123.28)">G</text><text class="cls-5" transform="translate(266.7 130.02)">U</text><text class="cls-5" transform="translate(255.83 138.12)">C</text><text class="cls-5" transform="translate(245.06 147.23)">G</text><text class="cls-4" transform="translate(235 157.13)">A</text><text class="cls-3" transform="translate(224.53 167.42)">U</text><text class="cls-4" transform="translate(222.3 181.21)">A</text><text class="cls-3" transform="translate(210.12 188.08)">C</text><text class="cls-4" transform="translate(202.73 201.32)">A</text><text class="cls-3" transform="translate(193.68 213.76)">U</text><text class="cls-4" transform="translate(192.23 226.83)">A</text><text class="cls-4" transform="translate(182.89 236.15)">A</text><text class="cls-3" transform="translate(169.87 237.7)">C</text><text class="cls-3" transform="translate(157.34 246.44)">C</text><text class="cls-1" transform="translate(143.6 253.43)">C</text><text class="cls-2" transform="translate(128.79 258.46)">A</text><text class="cls-1" transform="translate(113.01 261.54)">G</text><text class="cls-2" transform="translate(107.73 271.87)">A</text><text class="cls-1" transform="translate(97.16 281.16)">G</text><text class="cls-1" transform="translate(102.16 294.65)">G</text><text class="cls-7" transform="translate(108.18 308.08)">U</text><text class="cls-7" transform="translate(114.52 321.14)">C</text><text class="cls-7" transform="translate(123.19 330.42)">G</text><text class="cls-8" transform="translate(121.92 343.66)">A</text><text class="cls-7" transform="translate(109.56 349.06)">U</text><text class="cls-7" transform="translate(98.7 341.35)">G</text><text class="cls-7" transform="translate(98.91 328.73)">G</text><text class="cls-8" transform="translate(93.4 315.47)">A</text><text class="cls-1" transform="translate(87.29 301.75)">U</text><text class="cls-1" transform="translate(81.57 287.84)">C</text><text class="cls-1" transform="translate(68.04 288.39)">C</text><text class="cls-1" transform="translate(57.52 297.09)">C</text><text class="cls-1" transform="translate(45.25 305.69)">C</text><text class="cls-1" transform="translate(36.5 316.48)">C</text><text class="cls-1" transform="translate(23.13 315.85)">C</text><text class="cls-9" transform="translate(29.06 191.79)">10</text><text class="cls-9" transform="translate(133.19 226.89)">20</text><text class="cls-9" transform="translate(210.92 143.38)">30</text><text class="cls-9" transform="translate(304.13 49.45)">40</text><text class="cls-9" transform="translate(358.67 103.01)">50</text><text class="cls-9" transform="translate(253.71 153.46)">60</text><text class="cls-9" transform="translate(163.63 254.7)">70</text><text class="cls-9" transform="translate(132.43 343.66)">80</text><text class="cls-9" transform="translate(40.6 325.21)">90</text><g id="ID000011"><polygon points="48 296.4 44.43 291.9 44.45 291.89 48.02 296.38 48 296.4"/></g><g id="ID000011-2" data-name="ID000011"><polygon points="59.27 288.55 55.7 284.05 55.72 284.04 59.29 288.54 59.27 288.55"/></g><g id="ID000011-3" data-name="ID000011"><polygon points="69.47 279.11 65.47 274.98 65.48 274.97 69.48 279.09 69.47 279.11"/></g><g id="ID000011-4" data-name="ID000011"><polygon points="66.21 224.38 72.15 220.61 72.16 220.63 66.22 224.4 66.21 224.38"/></g><g id="ID000011-5" data-name="ID000011"><polygon points="117.02 251.97 116.29 244.98 116.32 244.98 117.04 251.97 117.02 251.97"/></g><g id="ID000011-6" data-name="ID000011"><polygon points="100.7 309.35 108.81 305.68 108.81 305.71 100.71 309.38 100.7 309.35"/></g><g id="ID000011-7" data-name="ID000011"><polygon points="108.82 322.97 114.99 319.45 114.99 319.48 108.83 322.99 108.82 322.97"/></g><g id="ID000011-8" data-name="ID000011"><polygon points="91.15 281.63 97.84 279.29 97.84 279.31 91.15 281.65 91.15 281.63"/></g><g id="ID000011-9" data-name="ID000011"><polygon points="131.3 250.01 129.58 243.19 129.6 243.19 131.32 250.01 131.3 250.01"/></g><g id="ID000011-10" data-name="ID000011"><polygon points="145.12 245.16 143.4 238.35 143.42 238.34 145.14 245.16 145.12 245.16"/></g><g id="ID000011-11" data-name="ID000011"><polygon points="159.33 237.96 156.01 231.76 156.04 231.75 159.35 237.95 159.33 237.96"/></g><g id="ID000011-12" data-name="ID000011"><polygon points="171.02 229.78 167.18 223.89 167.2 223.88 171.04 229.77 171.02 229.78"/></g><g id="ID000011-13" data-name="ID000011"><polygon points="194.21 207.43 189.37 202.34 189.39 202.32 194.23 207.42 194.21 207.43"/></g><g id="ID000011-14" data-name="ID000011"><polygon points="203.54 195.14 197.63 189.43 197.66 189.41 203.56 195.12 203.54 195.14"/></g><g id="ID000011-15" data-name="ID000011"><polygon points="210.52 181.95 204.78 177.69 204.8 177.68 210.54 181.93 210.52 181.95"/></g><g id="ID000011-16" data-name="ID000011"><polygon points="236.37 149.97 231.78 144.5 231.8 144.49 236.39 149.96 236.37 149.97"/></g><g id="ID000011-17" data-name="ID000011"><polygon points="246.04 138.37 242.21 133.83 242.23 133.82 246.05 138.36 246.04 138.37"/></g><g id="ID000011-18" data-name="ID000011"><polygon points="257.53 129.1 253.71 124.56 253.72 124.55 257.55 129.09 257.53 129.1"/></g><g id="ID000011-19" data-name="ID000011"><polygon points="349.11 81.62 346.13 76.49 346.15 76.48 349.13 81.62 349.11 81.62"/></g><g id="ID000011-20" data-name="ID000011"><polygon points="361.62 76.32 358.64 71.19 358.65 71.18 361.64 76.31 361.62 76.32"/></g><g id="ID000011-21" data-name="ID000011"><polygon points="268.38 120.43 264.56 115.88 264.57 115.87 268.4 120.42 268.38 120.43"/></g><g id="ID000011-22" data-name="ID000011"><polygon points="58.45 213.73 65.22 207.96 65.23 207.99 58.46 213.76 58.45 213.73"/></g><g id="ID000021"><polygon class="cls-10" points="223.98 153.47 223.87 153.47 223.77 153.47 223.66 153.49 223.56 153.52 223.46 153.54 223.35 153.57 223.25 153.62 223.14 153.67 223.06 153.72 222.96 153.78 222.88 153.85 222.81 153.93 222.73 154.01 222.65 154.09 222.6 154.17 222.54 154.25 222.49 154.35 222.44 154.45 222.39 154.53 222.36 154.64 222.34 154.74 222.31 154.84 222.28 154.97 222.28 155.08 222.28 155.18 222.28 155.29 222.31 155.39 222.31 155.5 222.34 155.6 222.36 155.7 222.41 155.81 222.47 155.91 222.52 155.99 222.57 156.09 222.62 156.17 222.7 156.28 222.78 156.35 222.86 156.41 222.94 156.49 223.01 156.54 223.12 156.62 223.19 156.67 223.3 156.69 223.4 156.75 223.51 156.77 223.61 156.8 223.72 156.82 223.82 156.85 223.92 156.85 224.03 156.85 224.13 156.85 224.24 156.82 224.34 156.8 224.44 156.77 224.55 156.75 224.65 156.69 224.76 156.67 224.86 156.62 224.94 156.54 225.02 156.49 225.12 156.41 225.2 156.35 225.25 156.28 225.33 156.17 225.38 156.09 225.46 155.99 225.49 155.91 225.54 155.81 225.59 155.7 225.62 155.6 225.64 155.5 225.67 155.39 225.67 155.29 225.67 155.18 225.67 155.08 225.67 154.97 225.64 154.84 225.62 154.74 225.59 154.64 225.56 154.53 225.51 154.45 225.49 154.35 225.43 154.25 225.36 154.17 225.3 154.09 225.23 154.01 225.15 153.93 225.07 153.85 224.99 153.78 224.89 153.72 224.81 153.67 224.71 153.62 224.6 153.57 224.5 153.54 224.39 153.52 224.29 153.49 224.19 153.47 224.08 153.47 223.98 153.47"/></g><g id="ID000021-2" data-name="ID000021"><polygon class="cls-10" points="99.81 291.97 99.7 291.97 99.6 291.97 99.49 292 99.39 292.02 99.28 292.05 99.18 292.08 99.08 292.13 98.97 292.18 98.89 292.23 98.79 292.29 98.71 292.36 98.63 292.44 98.56 292.52 98.48 292.6 98.42 292.68 98.37 292.75 98.32 292.86 98.27 292.96 98.22 293.04 98.19 293.14 98.16 293.25 98.14 293.35 98.11 293.48 98.11 293.59 98.11 293.69 98.11 293.8 98.14 293.9 98.14 294 98.16 294.11 98.19 294.21 98.24 294.32 98.29 294.42 98.35 294.5 98.4 294.6 98.45 294.68 98.53 294.78 98.61 294.86 98.69 294.92 98.76 294.99 98.84 295.05 98.94 295.12 99.02 295.18 99.13 295.2 99.23 295.25 99.34 295.28 99.44 295.31 99.54 295.33 99.65 295.36 99.75 295.36 99.86 295.36 99.96 295.36 100.06 295.33 100.17 295.31 100.27 295.28 100.38 295.25 100.48 295.2 100.59 295.18 100.69 295.12 100.77 295.05 100.85 294.99 100.95 294.92 101.03 294.86 101.08 294.78 101.16 294.68 101.21 294.6 101.29 294.5 101.31 294.42 101.37 294.32 101.42 294.21 101.44 294.11 101.47 294 101.5 293.9 101.5 293.8 101.5 293.69 101.5 293.59 101.5 293.48 101.47 293.35 101.44 293.25 101.42 293.14 101.39 293.04 101.34 292.96 101.31 292.86 101.26 292.75 101.18 292.68 101.13 292.6 101.05 292.52 100.98 292.44 100.9 292.36 100.82 292.29 100.72 292.23 100.64 292.18 100.53 292.13 100.43 292.08 100.33 292.05 100.22 292.02 100.12 292 100.01 291.97 99.91 291.97 99.81 291.97"/></g><g id="ID000021-3" data-name="ID000021"><polygon class="cls-10" points="279.13 109.27 279.02 109.27 278.92 109.27 278.81 109.29 278.71 109.32 278.6 109.34 278.5 109.37 278.4 109.42 278.29 109.47 278.21 109.53 278.11 109.58 278.03 109.66 277.95 109.74 277.88 109.81 277.8 109.89 277.75 109.97 277.69 110.05 277.64 110.15 277.59 110.26 277.54 110.33 277.51 110.44 277.49 110.54 277.46 110.65 277.43 110.78 277.43 110.88 277.43 110.98 277.43 111.09 277.46 111.19 277.46 111.3 277.49 111.4 277.51 111.51 277.56 111.61 277.62 111.71 277.67 111.79 277.72 111.9 277.77 111.97 277.85 112.08 277.93 112.16 278 112.21 278.08 112.29 278.16 112.34 278.27 112.42 278.34 112.47 278.45 112.5 278.55 112.55 278.66 112.57 278.76 112.6 278.87 112.63 278.97 112.65 279.07 112.65 279.18 112.65 279.28 112.65 279.38 112.63 279.49 112.6 279.59 112.57 279.7 112.55 279.8 112.5 279.91 112.47 280.01 112.42 280.09 112.34 280.17 112.29 280.27 112.21 280.35 112.16 280.4 112.08 280.48 111.97 280.53 111.9 280.61 111.79 280.63 111.71 280.69 111.61 280.74 111.51 280.76 111.4 280.79 111.3 280.82 111.19 280.82 111.09 280.82 110.98 280.82 110.88 280.82 110.78 280.79 110.65 280.76 110.54 280.74 110.44 280.71 110.33 280.66 110.26 280.63 110.15 280.58 110.05 280.5 109.97 280.45 109.89 280.38 109.81 280.3 109.74 280.22 109.66 280.14 109.58 280.04 109.53 279.96 109.47 279.85 109.42 279.75 109.37 279.65 109.34 279.54 109.32 279.44 109.29 279.33 109.27 279.23 109.27 279.13 109.27"/></g><text class="cls-11" transform="translate(31.13 284.04)">5<tspan class="cls-12" x="5.55" y="0">’</tspan></text><text class="cls-11" transform="translate(17.24 309.38)">3<tspan class="cls-12" x="5.55" y="0">’</tspan></text><text class="cls-13" transform="translate(60.16 116.5)">E2F-E1 aptamer</text></svg>