<?xml version="1.0" encoding="utf-8"?>
<!-- Generator: Adobe Illustrator 25.2.0, SVG Export Plug-In . SVG Version: 6.00 Build 0)  -->
<svg version="1.1" id="图层_1" xmlns="http://www.w3.org/2000/svg" xmlns:xlink="http://www.w3.org/1999/xlink" x="0px" y="0px"
	 viewBox="0 0 800 400" style="enable-background:new 0 0 800 400;" xml:space="preserve">
<style type="text/css">
	.st0{font-family:'ArialMT';}
	.st1{font-size:25px;}
	.st2{fill:#C2C2FF;}
	.st3{font-size:18px;}
	.st4{fill:#FF870A;}
	.st5{fill:#80DB9E;}
	.st6{fill:#09FEFE;}
	.st7{font-size:19.9904px;}
	.st8{fill:none;stroke:#000000;stroke-width:0.25;stroke-miterlimit:10;}
</style>
<text transform="matrix(1 0 0 1 26.1909 37.6693)" class="st0 st1">I-1 aptamer</text>
<g id="ID000012_00000089554334047010967910000003244779316245020344_">
	<text transform="matrix(0.9999 1.570763e-02 -1.570763e-02 0.9999 332.9804 51.8967)" class="st2 st0 st3">A</text>
</g>
<g id="ID000012_00000049215066225572618460000001478180032641803451_">
	<text transform="matrix(0.9999 1.570763e-02 -1.570763e-02 0.9999 420.1418 143.827)" class="st4 st0 st3">A</text>
</g>
<g id="ID000012_00000111177631374106671590000000987190333366015361_">
	<text transform="matrix(0.9999 1.570763e-02 -1.570763e-02 0.9999 392.1784 151.4084)" class="st4 st0 st3">A</text>
</g>
<g id="ID000012_00000030461627007843950750000004207194397127093429_">
	<text transform="matrix(0.9999 1.570763e-02 -1.570763e-02 0.9999 385.8849 222.6811)" class="st4 st0 st3">A</text>
</g>
<g id="ID000012_00000137116814620229683530000018324858794890658706_">
	<text transform="matrix(0.9999 1.570763e-02 -1.570763e-02 0.9999 365.1123 18.4631)" class="st2 st0 st3">A</text>
</g>
<g id="ID000012_00000080173762288141659390000014543265889303788971_">
	<text transform="matrix(0.9999 1.570763e-02 -1.570763e-02 0.9999 337.8258 234.9047)" class="st2 st0 st3">A</text>
</g>
<g id="ID000012_00000051341103871169151310000000494628090886428046_">
	<text transform="matrix(0.9999 1.570763e-02 -1.570763e-02 0.9999 329.3889 254.3278)" class="st5 st0 st3">A</text>
</g>
<g id="ID000012_00000001628743819767076050000009056392462570442916_">
	<text transform="matrix(0.9999 1.570763e-02 -1.570763e-02 0.9999 318.0484 288.7553)" class="st5 st0 st3">A</text>
</g>
<g id="ID000012_00000008830198629615589290000006966228859495138988_">
	<text transform="matrix(0.9999 1.570763e-02 -1.570763e-02 0.9999 258.6529 284.9487)" class="st6 st0 st3">A</text>
</g>
<g id="ID000012_00000033335168796588631140000014919607716662767247_">
	<text transform="matrix(0.9999 1.570763e-02 -1.570763e-02 0.9999 253.1994 319.7976)" class="st6 st0 st3">A</text>
</g>
<g id="ID000012_00000049914026807960607920000010076831134936270760_">
	<text transform="matrix(0.9999 1.570763e-02 -1.570763e-02 0.9999 408.6367 288.7551)" class="st5 st0 st3">A</text>
</g>
<g id="ID000012_00000148622870213283222510000006698717309035688625_">
	<text transform="matrix(0.9999 1.570763e-02 -1.570763e-02 0.9999 499.8407 342.1875)" class="st2 st0 st3">A</text>
</g>
<g id="ID000012_00000011735255943640102850000011297654607540933814_">
	<text transform="matrix(0.9999 1.570763e-02 -1.570763e-02 0.9999 636.7151 360.942)" class="st2 st0 st3">A</text>
</g>
<g id="ID000012_00000169524781800431868490000014596991603434940321_">
	<text transform="matrix(0.9999 1.570763e-02 -1.570763e-02 0.9999 636.4407 376.7292)" class="st2 st0 st3">A</text>
</g>
<g id="ID000012_00000087390601075896545440000005672174556521545662_">
	<text transform="matrix(0.9999 1.570763e-02 -1.570763e-02 0.9999 624.7141 388.5661)" class="st2 st0 st3">A</text>
</g>
<g id="ID000012_00000129920801706241950700000003486121775569481398_">
	<text transform="matrix(0.9999 1.570763e-02 -1.570763e-02 0.9999 608.3411 395.6728)" class="st2 st0 st3">A</text>
</g>
<g id="ID000012_00000075877506719649250100000012779875658714493610_">
	<text transform="matrix(0.9999 1.570763e-02 -1.570763e-02 0.9999 553.1476 351.538)" class="st6 st0 st3">A</text>
</g>
<g id="ID000012_00000067227624648294489650000013723427577791755924_">
	<text transform="matrix(0.9999 1.570763e-02 -1.570763e-02 0.9999 398.1303 32.8072)" class="st2 st0 st3">A</text>
</g>
<g id="ID000012_00000040543071212366700750000012178815785228033183_">
	<text transform="matrix(0.9999 1.570763e-02 -1.570763e-02 0.9999 495.5813 89.564)" class="st2 st0 st3">A</text>
</g>
<g id="ID000012_00000165917433238555481820000009969493783087996553_">
	<text transform="matrix(0.9999 1.570763e-02 -1.570763e-02 0.9999 487.9963 101.1989)" class="st2 st0 st3">A</text>
</g>
<g id="ID000012_00000178897545500924432050000016863710115854204087_">
	<text transform="matrix(0.9999 1.570763e-02 -1.570763e-02 0.9999 484.5656 24.7438)" class="st2 st0 st3">A</text>
</g>
<g id="ID000012_00000029028779197013204280000018383762369457272215_">
	<text transform="matrix(0.9999 1.570763e-02 -1.570763e-02 0.9999 343.848 25.7607)" class="st2 st0 st3">U</text>
</g>
<g id="ID000012_00000101072855292759196680000017348625226278455731_">
	<text transform="matrix(0.9999 1.570763e-02 -1.570763e-02 0.9999 452.1449 12.2521)" class="st2 st0 st3">U</text>
</g>
<g id="ID000012_00000049924200706566867760000000746869470267356082_">
	<text transform="matrix(0.9999 1.570763e-02 -1.570763e-02 0.9999 469.6859 17.9482)" class="st2 st0 st3">U</text>
</g>
<g id="ID000012_00000089552905010177391270000010570175693955616143_">
	<text transform="matrix(0.9999 1.570763e-02 -1.570763e-02 0.9999 495.0804 39.925)" class="st2 st0 st3">U</text>
</g>
<g id="ID000012_00000180357942545011351210000015529720812698420918_">
	<text transform="matrix(0.9999 1.570763e-02 -1.570763e-02 0.9999 496.2103 54.9064)" class="st2 st0 st3">U</text>
</g>
<g id="ID000012_00000054960911346282660800000000922245608716038793_">
	<text transform="matrix(0.9999 1.570763e-02 -1.570763e-02 0.9999 477.134 114.1945)" class="st2 st0 st3">U</text>
</g>
<g id="ID000012_00000127727549169491931360000004055442505419240576_">
	<text transform="matrix(0.9999 1.570763e-02 -1.570763e-02 0.9999 461.3752 121.8029)" class="st2 st0 st3">U</text>
</g>
<g id="ID000012_00000139252903690322703260000017525532897747755409_">
	<text transform="matrix(0.9999 1.570763e-02 -1.570763e-02 0.9999 446.2964 131.8442)" class="st2 st0 st3">U</text>
</g>
<g id="ID000012_00000010288398374413191980000012924688372543747716_">
	<text transform="matrix(0.9999 1.570763e-02 -1.570763e-02 0.9999 391.2922 110.7128)" class="st2 st0 st3">U</text>
</g>
<g id="ID000012_00000094616190888554796920000001452987610778260409_">
	<text transform="matrix(0.9999 1.570763e-02 -1.570763e-02 0.9999 399.0998 134.3535)" class="st4 st0 st3">U</text>
</g>
<g id="ID000012_00000116217532126907456250000016697922429404862102_">
	<text transform="matrix(0.9999 1.570763e-02 -1.570763e-02 0.9999 412.641 159.968)" class="st4 st0 st3">U</text>
</g>
<g id="ID000012_00000121281469594452426250000011272918645202121608_">
	<text transform="matrix(0.9999 1.570763e-02 -1.570763e-02 0.9999 364.8424 213.2083)" class="st4 st0 st3">U</text>
</g>
<g id="ID000012_00000003800390549326894710000006513546925742379657_">
	<text transform="matrix(0.9999 1.570763e-02 -1.570763e-02 0.9999 400.5451 261.823)" class="st5 st0 st3">U</text>
</g>
<g id="ID000012_00000091012923958853643080000004354687591913790853_">
	<text transform="matrix(0.9999 1.570763e-02 -1.570763e-02 0.9999 335.4104 281.2439)" class="st5 st0 st3">U</text>
</g>
<g id="ID000012_00000126312051329574652770000000235282974613015168_">
	<text transform="matrix(0.9999 1.570763e-02 -1.570763e-02 0.9999 312.1756 263.8271)" class="st5 st0 st3">U</text>
</g>
<g id="ID000012_00000173883195478699981340000010884260943234570891_">
	<text transform="matrix(0.9999 1.570763e-02 -1.570763e-02 0.9999 267.3208 317.1896)" class="st6 st0 st3">U</text>
</g>
<g id="ID000012_00000101099089980989101820000009895154331212741803_">
	<text transform="matrix(0.9999 1.570763e-02 -1.570763e-02 0.9999 226.9669 299.1208)" class="st6 st0 st3">A</text>
</g>
<g id="ID000012_00000072965507482027883190000006669637699974065821_">
	<text transform="matrix(0.9999 1.570763e-02 -1.570763e-02 0.9999 237.8108 327.7838)" class="st6 st0 st3">U</text>
</g>
<g id="ID000012_00000167363643094041135060000005604140964948767618_">
	<text transform="matrix(0.9999 1.570763e-02 -1.570763e-02 0.9999 193.185 314.3707)" class="st6 st0 st3">A</text>
</g>
<g id="ID000012_00000036972947007698410770000008646062532474041510_">
	<text transform="matrix(0.9999 1.570763e-02 -1.570763e-02 0.9999 156.1628 319.7974)" class="st2 st0 st3">A</text>
</g>
<g id="ID000012_00000083795388176660425590000017535561537802502811_">
	<text transform="matrix(0.9999 1.570763e-02 -1.570763e-02 0.9999 201.9834 341.186)" class="st6 st0 st3">U</text>
</g>
<g id="ID000012_00000096762546056624558810000005003132913286413196_">
	<text transform="matrix(0.9999 1.570763e-02 -1.570763e-02 0.9999 175.5039 322.893)" class="st6 st0 st3">U</text>
</g>
<g id="ID000012_00000096766333607886211790000003665523784553487526_">
	<text transform="matrix(0.9999 1.570763e-02 -1.570763e-02 0.9999 160.9498 373.8074)" class="st2 st0 st3">U</text>
</g>
<g id="ID000012_00000063605136139397359940000017543964877600647849_">
	<text transform="matrix(0.9999 1.570763e-02 -1.570763e-02 0.9999 139.4194 362.7532)" class="st2 st0 st3">U</text>
</g>
<g id="ID000012_00000063635375605308799940000013783040453928587923_">
	<text transform="matrix(0.9999 1.570763e-02 -1.570763e-02 0.9999 139.0142 337.3788)" class="st2 st0 st3">U</text>
</g>
<g id="ID000012_00000165937046928148480980000003971488473697248672_">
	<text transform="matrix(0.9999 1.570763e-02 -1.570763e-02 0.9999 219.3371 333.462)" class="st6 st0 st3">U</text>
</g>
<g id="ID000012_00000025410745189488165360000012044949286115722908_">
	<text transform="matrix(0.9999 1.570763e-02 -1.570763e-02 0.9999 240.2184 294.6559)" class="st6 st0 st3">U</text>
</g>
<g id="ID000012_00000001624874862510348600000007123907548056383126_">
	<text transform="matrix(0.9999 1.570763e-02 -1.570763e-02 0.9999 356.1624 289.968)" class="st2 st0 st3">U</text>
</g>
<g id="ID000012_00000024701327826915249160000005329524313363214770_">
	<text transform="matrix(0.9999 1.570763e-02 -1.570763e-02 0.9999 416.7834 268.8779)" class="st5 st0 st3">U</text>
</g>
<g id="ID000012_00000063607660037854455610000001413880613750422184_">
	<text transform="matrix(0.9999 1.570763e-02 -1.570763e-02 0.9999 379.4515 236.3642)" class="st4 st0 st3">U</text>
</g>
<g id="ID000012_00000129891631922938135560000000524913977425025943_">
	<text transform="matrix(0.9999 1.570763e-02 -1.570763e-02 0.9999 385.1964 167.4819)" class="st4 st0 st3">A</text>
</g>
<g id="ID000012_00000053510005177831632610000002748347905239981709_">
	<text transform="matrix(0.9999 1.570763e-02 -1.570763e-02 0.9999 405.6584 176.0393)" class="st4 st0 st3">U</text>
</g>
<g id="ID000012_00000019648153635788796810000002541587626889016481_">
	<text transform="matrix(0.9999 1.570763e-02 -1.570763e-02 0.9999 375.7155 69.7963)" class="st4 st0 st3">G</text>
</g>
<g id="ID000012_00000054249497969102743970000018263127348823131784_">
	<text transform="matrix(0.9999 1.570763e-02 -1.570763e-02 0.9999 426.0363 127.9924)" class="st4 st0 st3">G</text>
</g>
<g id="ID000012_00000044897334507745093950000015234898235296135833_">
	<text transform="matrix(0.9999 1.570763e-02 -1.570763e-02 0.9999 358.4057 226.8844)" class="st4 st0 st3">G</text>
</g>
<g id="ID000012_00000035516852880531618530000013029719440843134092_">
	<text transform="matrix(0.9999 1.570763e-02 -1.570763e-02 0.9999 370.3437 199.4044)" class="st4 st0 st3">G</text>
</g>
<g id="ID000012_00000154395310179516885320000001935757212306982548_">
	<text transform="matrix(0.9999 1.570763e-02 -1.570763e-02 0.9999 391.8125 280.7794)" class="st5 st0 st3">G</text>
</g>
<g id="ID000012_00000128461374952907834210000002456186543303084673_">
	<text transform="matrix(0.9999 1.570763e-02 -1.570763e-02 0.9999 465.1206 290.4794)" class="st5 st0 st3">U</text>
</g>
<g id="ID000012_00000000917654766984515200000002243884626142417086_">
	<text transform="matrix(0.9999 1.570763e-02 -1.570763e-02 0.9999 491.0432 324.2263)" class="st5 st0 st3">U</text>
</g>
<g id="ID000012_00000064349758900796989300000004774418602518249355_">
	<g>
		<text transform="matrix(0.9999 1.570763e-02 -1.570763e-02 0.9999 521.3176 337.3791)" class="st2 st0 st3">U</text>
	</g>
</g>
<g id="ID000012_00000065052785350890322660000017597258517002095760_">
	<text transform="matrix(0.9999 1.570763e-02 -1.570763e-02 0.9999 561.0754 332.1682)" class="st6 st0 st3">U</text>
</g>
<g id="ID000012_00000037676197016562890700000008867652017025712525_">
	<text transform="matrix(0.9999 1.570763e-02 -1.570763e-02 0.9999 591.0394 395.467)" class="st2 st0 st3">U</text>
</g>
<g id="ID000012_00000072989025364023245220000008780671148570207126_">
	<text transform="matrix(0.9999 1.570763e-02 -1.570763e-02 0.9999 573.5464 380.226)" class="st2 st0 st3">U</text>
</g>
<g id="ID000012_00000040576515960107507310000014607443370802359691_">
	<text transform="matrix(0.9999 1.570763e-02 -1.570763e-02 0.9999 599.4075 327.7839)" class="st2 st0 st3">U</text>
</g>
<g id="ID000012_00000083067564036967816440000002242530717976505002_">
	<text transform="matrix(0.9999 1.570763e-02 -1.570763e-02 0.9999 456.3884 309.4393)" class="st5 st0 st3">G</text>
</g>
<g id="ID000012_00000135661325532298578100000012382119357415946425_">
	<text transform="matrix(0.9999 1.570763e-02 -1.570763e-02 0.9999 498.9658 304.848)" class="st5 st0 st3">G</text>
</g>
<g id="ID000012_00000063634484476846114860000012744591468002119868_">
	<text transform="matrix(0.9999 1.570763e-02 -1.570763e-02 0.9999 482.7646 297.8087)" class="st5 st0 st3">G</text>
</g>
<g id="ID000012_00000037668845810620712630000016688635677904695469_">
	<text transform="matrix(0.9999 1.570763e-02 -1.570763e-02 0.9999 537.3101 344.5953)" class="st6 st0 st3">G</text>
</g>
<g id="ID000012_00000075857244432985955420000009995316961162500031_">
	<text transform="matrix(0.9999 1.570763e-02 -1.570763e-02 0.9999 577.687 339.0486)" class="st6 st0 st3">G</text>
</g>
<g id="ID000012_00000003062507230622505980000000494074710923005095_">
	<text transform="matrix(0.9999 1.570763e-02 -1.570763e-02 0.9999 631.0294 341.186)" class="st2 st0 st3">G</text>
</g>
<g id="ID000012_00000017518970718109416900000011183908494859160496_">
	<text transform="matrix(0.9999 1.570763e-02 -1.570763e-02 0.9999 423.7519 294.6567)" class="st5 st0 st3">G</text>
</g>
<g id="ID000012_00000099644423548503421280000002163821566744150427_">
	<text transform="matrix(0.9999 1.570763e-02 -1.570763e-02 0.9999 375.4391 273.6678)" class="st5 st0 st3">G</text>
</g>
<g id="ID000012_00000052096601891899932710000018073181348516277169_">
	<text transform="matrix(0.9999 1.570763e-02 -1.570763e-02 0.9999 292.4868 271.6722)" class="st5 st0 st3">G</text>
</g>
<g id="ID000012_00000036959342380191415280000008660083065280731316_">
	<text transform="matrix(0.9999 1.570763e-02 -1.570763e-02 0.9999 285.0943 316.7249)" class="st2 st0 st3">G</text>
</g>
<g id="ID000012_00000057858626126664308830000014934774382456570510_">
	<text transform="matrix(0.9999 1.570763e-02 -1.570763e-02 0.9999 207.5352 309.4399)" class="st6 st0 st3">G</text>
</g>
<g id="ID000012_00000181067883513075805450000017491858535335619475_">
	<text transform="matrix(0.9999 1.570763e-02 -1.570763e-02 0.9999 187.7451 350.2101)" class="st6 st0 st3">G</text>
</g>
<g id="ID000012_00000176760850215216242990000003159254787247678345_">
	<text transform="matrix(0.9999 1.570763e-02 -1.570763e-02 0.9999 179.8924 366.1097)" class="st2 st0 st3">G</text>
</g>
<g id="ID000012_00000154427849536274424740000014410317368520806548_">
	<text transform="matrix(0.9999 1.570763e-02 -1.570763e-02 0.9999 416.0324 24.9644)" class="st2 st0 st3">G</text>
</g>
<g id="ID000012_00000161630618144389585740000001228300756289976767_">
	<text transform="matrix(0.9999 1.570763e-02 -1.570763e-02 0.9999 359.8083 62.8872)" class="st4 st0 st3">G</text>
</g>
<g id="ID000012_00000168117115432672833050000006036574673364896156_">
	<text transform="matrix(0.9999 1.570763e-02 -1.570763e-02 0.9999 341.3001 71.0085)" class="st2 st0 st3">G</text>
</g>
<g id="ID000012_00000130620427983233646620000016492061007292255616_">
	<text transform="matrix(0.9999 1.570763e-02 -1.570763e-02 0.9999 387.1667 47.3146)" class="st4 st0 st3">C</text>
</g>
<g id="ID000012_00000144328598125240878630000011185307148401750180_">
	<text transform="matrix(0.9999 1.570763e-02 -1.570763e-02 0.9999 405.5775 119.4414)" class="st4 st0 st3">C</text>
</g>
<g id="ID000012_00000078008351330016676280000016410111389785585821_">
	<text transform="matrix(0.9999 1.570763e-02 -1.570763e-02 0.9999 398.6279 192.2224)" class="st4 st0 st3">C</text>
</g>
<g id="ID000012_00000082336637232778822720000001620434647967961514_">
	<text transform="matrix(0.9999 1.570763e-02 -1.570763e-02 0.9999 377.8752 183.207)" class="st4 st0 st3">C</text>
</g>
<g id="ID000012_00000080175589789389306650000013626882921448402597_">
	<text transform="matrix(0.9999 1.570763e-02 -1.570763e-02 0.9999 391.3896 208.8844)" class="st4 st0 st3">C</text>
</g>
<g id="ID000012_00000039100943729118696350000001448682421272805532_">
	<text transform="matrix(0.9999 1.570763e-02 -1.570763e-02 0.9999 384.1711 254.7088)" class="st5 st0 st3">C</text>
</g>
<g id="ID000012_00000165935428253899535360000004020795669898419114_">
	<text transform="matrix(0.9999 1.570763e-02 -1.570763e-02 0.9999 300.3494 297.582)" class="st5 st0 st3">C</text>
</g>
<g id="ID000012_00000176721353572537632830000006893277481595425983_">
	<text transform="matrix(0.9999 1.570763e-02 -1.570763e-02 0.9999 432.4846 275.697)" class="st5 st0 st3">C</text>
</g>
<g id="ID000012_00000119094049355944758970000003528516302221513090_">
	<text transform="matrix(0.9999 1.570763e-02 -1.570763e-02 0.9999 439.1185 301.9349)" class="st5 st0 st3">G</text>
</g>
<g id="ID000012_00000056410865565455507480000007411641124419218613_">
	<text transform="matrix(0.9999 1.570763e-02 -1.570763e-02 0.9999 447.8507 282.978)" class="st5 st0 st3">C</text>
</g>
<g id="ID000012_00000150819881241725984860000012487691171991842697_">
	<text transform="matrix(0.9999 1.570763e-02 -1.570763e-02 0.9999 474.8412 317.1896)" class="st5 st0 st3">C</text>
</g>
<g id="ID000012_00000032630150378328917460000003848094170805919136_">
	<text transform="matrix(0.9999 1.570763e-02 -1.570763e-02 0.9999 546.262 325.1281)" class="st6 st0 st3">C</text>
</g>
<g id="ID000012_00000084506767444644990420000008175305163164839085_">
	<text transform="matrix(0.9999 1.570763e-02 -1.570763e-02 0.9999 618.1456 326.8257)" class="st2 st0 st3">C</text>
</g>
<g id="ID000012_00000152246796126512070030000015790462267484637328_">
	<text transform="matrix(0.9999 1.570763e-02 -1.570763e-02 0.9999 569.5432 358.9355)" class="st6 st0 st3">C</text>
</g>
<g id="ID000012_00000011742515656513027290000001575423695504694946_">
	<text transform="matrix(0.9999 1.570763e-02 -1.570763e-02 0.9999 431.9045 17.2334)" class="st2 st0 st3">C</text>
</g>
<g id="ID000012_00000152976070750721931780000000947137587044513431_">
	<text transform="matrix(0.9999 1.570763e-02 -1.570763e-02 0.9999 495.5813 71.7341)" class="st2 st0 st3">C</text>
</g>
<g id="ID000012_00000124862222514964479140000003944250332933672383_">
	<text transform="matrix(0.9999 1.570763e-02 -1.570763e-02 0.9999 371.2591 37.6691)" class="st4 st0 st3">C</text>
</g>
<g id="ID000018_00000104707097969389953970000009088350760481935533_">
	<text transform="matrix(0.9998 1.779618e-02 -1.779618e-02 0.9998 367.55 87.8063)" class="st0 st7">5’</text>
</g>
<g id="ID000018_00000054229788772175650710000009096838164884966548_">
	<text transform="matrix(0.9998 1.779618e-02 -1.779618e-02 0.9998 374.9999 110.7125)" class="st0 st7">3’</text>
</g>
<g id="ID000018_00000047051861094014620580000010548483793214802609_">
	<text transform="matrix(0.9998 1.779618e-02 -1.779618e-02 0.9998 379.4521 17.2332)" class="st0 st7">10</text>
</g>
<g id="ID000018_00000088816169876714967740000007119601329109330076_">
	<text transform="matrix(0.9998 1.779618e-02 -1.779618e-02 0.9998 496.2099 132.2497)" class="st0 st7">20</text>
</g>
<g id="ID000018_00000125560835962843683040000002521462374448496525_">
	<text transform="matrix(0.9998 1.779618e-02 -1.779618e-02 0.9998 405.0002 240.814)" class="st0 st7">30</text>
</g>
<g id="ID000018_00000023984459987092858170000016432546408118672513_">
	<text transform="matrix(0.9998 1.779618e-02 -1.779618e-02 0.9998 553.1472 299.4995)" class="st0 st7">40</text>
</g>
<g id="ID000018_00000136390826977509607860000017925325266316488065_">
	<text transform="matrix(0.9998 1.779618e-02 -1.779618e-02 0.9998 540.1201 395.6723)" class="st0 st7">50</text>
</g>
<g id="ID000018_00000128448332185439319080000017318853718984332474_">
	<text transform="matrix(0.9998 1.779618e-02 -1.779618e-02 0.9998 410.053 325.5996)" class="st0 st7">60</text>
</g>
<g id="ID000018_00000011738532453401202860000018194343902361471138_">
	<text transform="matrix(0.9998 1.779618e-02 -1.779618e-02 0.9998 269.5005 350.2101)" class="st0 st7">70</text>
</g>
<g id="ID000018_00000164485865980211708850000011626428680805939374_">
	<text transform="matrix(0.9998 1.779618e-02 -1.779618e-02 0.9998 145.6275 289.9679)" class="st0 st7">80</text>
</g>
<g id="ID000018_00000150083560996454300720000010903018515202752647_">
	<text transform="matrix(0.9998 1.779618e-02 -1.779618e-02 0.9998 313.91 226.8842)" class="st0 st7">90</text>
</g>
<line class="st8" x1="420.1" y1="115.1" x2="426.7" y2="117.7"/>
<line class="st8" x1="390.7" y1="48.1" x2="386.1" y2="56.4"/>
<line class="st8" x1="378" y1="42" x2="373.4" y2="50.3"/>
<line class="st8" x1="412.8" y1="130.9" x2="419.3" y2="133.6"/>
<line class="st8" x1="404.7" y1="148.2" x2="411.3" y2="150.9"/>
<line class="st8" x1="399.1" y1="164.8" x2="405.7" y2="167.5"/>
<line class="st8" x1="392.5" y1="180.6" x2="399.1" y2="183.2"/>
<line class="st8" x1="385" y1="196.9" x2="391.6" y2="199.6"/>
<line class="st8" x1="379.3" y1="211.2" x2="385.8" y2="213.8"/>
<line class="st8" x1="373.3" y1="225" x2="379.8" y2="227.7"/>
<line class="st8" x1="337.2" y1="258" x2="341" y2="266.9"/>
<line class="st8" x1="320.5" y1="265.8" x2="324.3" y2="274.6"/>
<line class="st8" x1="304.3" y1="274.3" x2="308.1" y2="283.1"/>
<line class="st8" x1="267.6" y1="290.1" x2="271.4" y2="299"/>
<line class="st8" x1="217.4" y1="309.4" x2="221.2" y2="318.3"/>
<line class="st8" x1="252" y1="296.8" x2="255.8" y2="305.7"/>
<line class="st8" x1="235.5" y1="304" x2="239.3" y2="312.8"/>
<line class="st8" x1="202.1" y1="316.7" x2="205.9" y2="325.6"/>
<line class="st8" x1="185.8" y1="326.6" x2="189.7" y2="335.5"/>
<line class="st8" x1="416" y1="275.7" x2="418.5" y2="270.7"/>
<line class="st8" x1="435" y1="281.7" x2="437.5" y2="276.7"/>
<line class="st8" x1="449.6" y1="289.1" x2="452.1" y2="284.2"/>
<line class="st8" x1="466.8" y1="297.1" x2="469.3" y2="292.2"/>
<line class="st8" x1="485.2" y1="304.4" x2="487.7" y2="299.5"/>
<line class="st8" x1="548.4" y1="331.5" x2="550.9" y2="326.5"/>
<line class="st8" x1="561.8" y1="338.5" x2="564.3" y2="333.5"/>
<line class="st8" x1="577.7" y1="345" x2="580.2" y2="340.1"/>
<line class="st8" x1="498.6" y1="311.2" x2="501.1" y2="306.2"/>
<line class="st8" x1="402.4" y1="267.8" x2="405" y2="262.8"/>
<line class="st8" x1="386.8" y1="261.3" x2="389.4" y2="256.3"/>
<line class="st8" x1="327.5" y1="231.9" x2="331.3" y2="240.8"/>
<line class="st8" x1="157" y1="292.7" x2="160.8" y2="301.5"/>
<line class="st8" x1="265.4" y1="322.4" x2="269.2" y2="331.3"/>
<line class="st8" x1="394.2" y1="230.9" x2="403" y2="232.9"/>
<line class="st8" x1="429.2" y1="297.2" x2="422.9" y2="306.7"/>
<line class="st8" x1="559.5" y1="302.8" x2="556" y2="310.4"/>
<line class="st8" x1="572.8" y1="377.6" x2="566.3" y2="384.8"/>
<line class="st8" x1="491" y1="111.9" x2="494.8" y2="120.8"/>
<line class="st8" x1="403.3" y1="10.8" x2="405.9" y2="19.8"/>
</svg>
