<?xml version="1.0" encoding="utf-8"?>
<!-- Generator: Adobe Illustrator 25.2.0, SVG Export Plug-In . SVG Version: 6.00 Build 0)  -->
<svg version="1.1" id="图层_1" xmlns="http://www.w3.org/2000/svg" xmlns:xlink="http://www.w3.org/1999/xlink" x="0px" y="0px"
	 viewBox="0 0 800 400" style="enable-background:new 0 0 800 400;" xml:space="preserve">
<style type="text/css">
	.st0{fill:#FFCC99;}
	.st1{font-family:'ArialMT';}
	.st2{font-size:17.8676px;}
	.st3{fill:#0A0BFF;}
	.st4{fill:#33CC33;}
	.st5{fill:none;stroke:#000000;stroke-width:0.2153;stroke-miterlimit:1.7227;}
	.st6{stroke:#000000;stroke-width:0.2153;stroke-miterlimit:1.7227;}
	.st7{fill:#FF870A;}
	.st8{font-size:20px;}
	.st9{font-size:16px;}
</style>
<g id="ID000002">
	<g transform="translate(111.000,355.768)">
		<g transform="rotate(-0.0)">
			<text transform="matrix(1 0 0 1 127.1533 -75.8334)" class="st0 st1 st2">G</text>
		</g>
	</g>
</g>
<g id="ID000003">
	<g transform="translate(129.923,355.768)">
		<g transform="rotate(-0.0)">
			<text transform="matrix(1 0 0 1 126.0252 -75.8334)" class="st0 st1 st2">G</text>
		</g>
	</g>
</g>
<g id="ID000004">
	<g transform="translate(148.847,355.768)">
		<g transform="rotate(-0.0)">
			<text transform="matrix(1 0 0 1 124.8981 -75.8334)" class="st0 st1 st2">G</text>
		</g>
	</g>
</g>
<g id="ID000005">
	<g transform="translate(167.771,355.768)">
		<g transform="rotate(-0.0)">
			<text transform="matrix(1 0 0 1 124.7603 -75.8334)" class="st0 st1 st2">A</text>
		</g>
	</g>
</g>
<g id="ID000006">
	<g>
		<g transform="translate(181.964,341.575)">
			<g transform="rotate(-0.0)">
				<text transform="matrix(1 0 0 1 122.9247 -74.9871)" class="st3 st1 st2">G</text>
			</g>
		</g>
	</g>
</g>
<g id="ID000007">
	<g>
		<g transform="translate(181.964,322.651)">
			<g transform="rotate(-0.0)">
				<text transform="matrix(1 0 0 1 123.9159 -73.861)" class="st3 st1 st2">A</text>
			</g>
		</g>
	</g>
</g>
<g id="ID000008">
	<g>
		<g transform="translate(181.964,303.727)">
			<g transform="rotate(-0.0)">
				<text transform="matrix(1 0 0 1 123.4208 -72.7309)" class="st3 st1 st2">C</text>
			</g>
		</g>
	</g>
</g>
<g id="ID000009">
	<g transform="translate(167.771,284.803)">
		<g transform="rotate(-0.0)">
			<text transform="matrix(1 0 0 1 124.7603 -71.6057)" class="st3 st1 st2">A</text>
		</g>
	</g>
</g>
<g id="ID000010">
	<g>
		<g transform="translate(219.812,303.727)">
			<g transform="rotate(-0.0)">
				<text transform="matrix(1 0 0 1 120.6694 -72.7309)" class="st3 st1 st2">G</text>
			</g>
		</g>
	</g>
</g>
<g id="ID000011">
	<g>
		<g transform="translate(219.812,322.651)">
			<g transform="rotate(-0.0)">
				<text transform="matrix(1 0 0 1 121.1665 -73.861)" class="st3 st1 st2">U</text>
			</g>
		</g>
	</g>
</g>
<g id="ID000012">
	<g>
		<g transform="translate(219.812,341.575)">
			<g transform="rotate(-0.0)">
				<text transform="matrix(1 0 0 1 121.1665 -74.9871)" class="st3 st1 st2">C</text>
			</g>
		</g>
	</g>
</g>
<g id="ID000013">
	<g transform="translate(243.467,355.768)">
		<g transform="rotate(-0.0)">
			<text transform="matrix(1 0 0 1 120.2498 -75.8334)" class="st4 st1 st2">A</text>
		</g>
	</g>
</g>
<g id="ID000014">
	<line class="st5" x1="318.8" y1="258.6" x2="340.2" y2="258.6"/>
</g>
<g id="ID000015">
	<line class="st5" x1="318.8" y1="240.7" x2="340.2" y2="240.7"/>
</g>
<g id="ID000016">
	<line class="st5" x1="318.8" y1="223" x2="340.2" y2="223"/>
</g>
<g id="ID000020">
	<g transform="translate(158.309,265.879)">
		<g transform="rotate(-0.0)">
			<text transform="matrix(1 0 0 1 125.3248 -70.4757)" class="st3 st1 st2">A</text>
		</g>
	</g>
</g>
<g id="ID000021">
	<g>
		<g transform="translate(158.309,242.224)">
			<g transform="rotate(-0.0)">
				<text transform="matrix(1 0 0 1 124.3345 -69.0677)" class="st3 st1 st2">G</text>
			</g>
		</g>
	</g>
</g>
<g id="ID000022">
	<line class="st5" x1="277.8" y1="165.2" x2="265.8" y2="165.2"/>
</g>
<g id="ID000023">
	<g transform="translate(133.077,242.224)">
		<g transform="rotate(-0.0)">
			<text transform="matrix(1 0 0 1 112.9128 -69.0677)" class="st1 st2">10</text>
		</g>
	</g>
</g>
<g id="ID000024">
	<g>
		<g transform="translate(158.309,223.300)">
			<g transform="rotate(-0.0)">
				<text transform="matrix(1 0 0 1 125.3248 -67.9377)" class="st3 st1 st2">A</text>
			</g>
		</g>
	</g>
</g>
<g id="ID000025">
	<g>
		<g transform="translate(158.309,204.376)">
			<g transform="rotate(-0.0)">
				<text transform="matrix(1 0 0 1 125.3248 -66.8116)" class="st3 st1 st2">A</text>
			</g>
		</g>
	</g>
</g>
<g id="ID000026">
	<g>
		<g transform="translate(158.309,185.452)">
			<g transform="rotate(-0.0)">
				<text transform="matrix(1 0 0 1 124.8316 -65.6834)" class="st3 st1 st2">U</text>
			</g>
		</g>
	</g>
</g>
<g id="ID000027">
	<g>
		<g transform="translate(158.309,166.528)">
			<g transform="rotate(-0.0)">
				<text transform="matrix(1 0 0 1 125.3248 -64.5553)" class="st3 st1 st2">A</text>
			</g>
		</g>
	</g>
</g>
<g id="ID000028">
	<g transform="translate(139.385,152.335)">
		<g transform="rotate(-0.0)">
			<text transform="matrix(1 0 0 1 126.4529 -63.71)" class="st3 st1 st2">A</text>
		</g>
	</g>
</g>
<g id="ID000029">
	<g transform="translate(139.385,128.681)">
		<g transform="rotate(-0.0)">
			<text transform="matrix(1 0 0 1 126.4529 -62.3001)" class="st3 st1 st2">A</text>
		</g>
	</g>
</g>
<g id="ID000030">
	<g transform="translate(139.385,105.026)">
		<g transform="rotate(-0.0)">
			<text transform="matrix(1 0 0 1 125.9597 -60.8907)" class="st3 st1 st2">C</text>
		</g>
	</g>
</g>
<g id="ID000031">
	<g transform="translate(153.578,86.102)">
		<g transform="rotate(-0.0)">
			<text transform="matrix(1 0 0 1 124.6163 -59.7626)" class="st3 st1 st2">G</text>
		</g>
	</g>
</g>
<g id="ID000032">
	<g transform="translate(177.233,86.102)">
		<g transform="rotate(-0.0)">
			<text transform="matrix(1 0 0 1 123.7045 -59.7626)" class="st3 st1 st2">C</text>
		</g>
	</g>
</g>
<g id="ID000033">
	<g transform="translate(196.157,90.833)">
		<g transform="rotate(-0.0)">
			<text transform="matrix(1 0 0 1 122.5764 -60.0434)" class="st3 st1 st2">U</text>
		</g>
	</g>
</g>
<g id="ID000034">
	<line class="st5" x1="337" y1="22.8" x2="349" y2="22.8"/>
</g>
<g id="ID000035">
	<g transform="translate(221.389,90.833)">
		<g transform="rotate(-0.0)">
			<text transform="matrix(1 0 0 1 127.5241 -60.0434)" class="st1 st2">20</text>
		</g>
	</g>
</g>
<g id="ID000036">
	<g transform="translate(210.350,109.757)">
		<g transform="rotate(-0.0)">
			<text transform="matrix(1 0 0 1 121.7301 -61.1716)" class="st3 st1 st2">C</text>
		</g>
	</g>
</g>
<g id="ID000037">
	<g transform="translate(219.812,133.412)">
		<g transform="rotate(-0.0)">
			<text transform="matrix(1 0 0 1 121.6597 -62.5829)" class="st3 st1 st2">A</text>
		</g>
	</g>
</g>
<g id="ID000038">
	<g transform="translate(210.350,152.335)">
		<g transform="rotate(-0.0)">
			<text transform="matrix(1 0 0 1 122.2223 -63.71)" class="st3 st1 st2">A</text>
		</g>
	</g>
</g>
<g id="ID000039">
	<g>
		<g transform="translate(196.157,166.528)">
			<g transform="rotate(-0.0)">
				<text transform="matrix(1 0 0 1 122.5764 -64.5553)" class="st3 st1 st2">U</text>
			</g>
		</g>
	</g>
</g>
<g id="ID000040">
	<g>
		<g transform="translate(196.157,185.452)">
			<g transform="rotate(-0.0)">
				<text transform="matrix(1 0 0 1 122.0784 -65.6834)" class="st3 st1 st2">G</text>
			</g>
		</g>
	</g>
</g>
<g id="ID000041">
	<g>
		<g transform="translate(196.157,204.376)">
			<g transform="rotate(-0.0)">
				<text transform="matrix(1 0 0 1 122.5764 -66.8116)" class="st3 st1 st2">U</text>
			</g>
		</g>
	</g>
</g>
<g id="ID000042">
	<g>
		<g transform="translate(196.157,223.300)">
			<g transform="rotate(-0.0)">
				<text transform="matrix(1 0 0 1 122.5764 -67.9377)" class="st3 st1 st2">U</text>
			</g>
		</g>
	</g>
</g>
<g id="ID000043">
	<g>
		<g transform="translate(196.157,242.224)">
			<g transform="rotate(-0.0)">
				<text transform="matrix(1 0 0 1 122.5764 -69.0677)" class="st3 st1 st2">C</text>
			</g>
		</g>
	</g>
</g>
<g id="ID000044">
	<g transform="translate(215.081,251.686)">
		<g transform="rotate(-0.0)">
			<text transform="matrix(1 0 0 1 114.4657 -69.6313)" class="st3 st1 st2">A</text>
		</g>
	</g>
</g>
<g id="ID000045">
	<line class="st5" x1="296.8" y1="165.2" x2="318" y2="165.2"/>
</g>
<g id="ID000046">
	<line class="st5" x1="296.8" y1="147.3" x2="318" y2="147.3"/>
</g>
<g id="ID000047">
	<line class="st5" x1="296.8" y1="129.6" x2="318" y2="129.6"/>
</g>
<g id="ID000048">
	<polygon class="st6" points="311,111.7 311,111.5 311,111.3 311,111 310.8,110.8 310.8,110.6 310.8,110.4 310.6,110.2 310.6,109.9 
		310.3,109.9 310.3,109.7 310.1,109.5 309.9,109.3 309.9,109.1 309.7,109.1 309.5,108.9 309.2,108.6 309,108.6 308.8,108.6 
		308.6,108.4 308.4,108.4 308.1,108.2 307.9,108.2 307.7,108.2 307.5,108.2 307.3,108.2 307.1,108.2 306.8,108.2 306.6,108.2 
		306.4,108.4 306.2,108.4 306,108.4 305.7,108.6 305.5,108.6 305.3,108.9 305.3,108.9 305.1,109.1 304.9,109.3 304.7,109.3 
		304.7,109.5 304.4,109.7 304.4,109.9 304.2,110.2 304.2,110.4 304,110.6 304,110.8 304,111 303.8,111.3 303.8,111.5 303.8,111.7 
		303.8,111.9 303.8,112.1 303.8,112.3 304,112.6 304,112.8 304,113 304.2,113.2 304.2,113.4 304.4,113.7 304.4,113.9 304.7,113.9 
		304.7,114.1 304.9,114.3 305.1,114.5 305.3,114.5 305.3,114.7 305.5,114.7 305.7,115 306,115 306.2,115.2 306.4,115.2 306.6,115.2 
		306.8,115.2 307.1,115.4 307.3,115.4 307.5,115.4 307.7,115.4 307.9,115.2 308.1,115.2 308.4,115.2 308.6,115.2 308.8,115 309,115 
		309.2,114.7 309.5,114.7 309.7,114.5 309.9,114.3 309.9,114.3 310.1,114.1 310.3,113.9 310.3,113.7 310.6,113.4 310.6,113.2 
		310.8,113 310.8,112.8 310.8,112.6 311,112.3 311,112.1 311,111.9 	"/>
</g>
<g id="ID000049">
	<line class="st5" x1="296.8" y1="94" x2="318" y2="94"/>
</g>
<g id="ID000051">
	<g transform="translate(238.736,251.686)">
		<g transform="rotate(-0.0)">
			<text transform="matrix(1 0 0 1 107.1564 -66.8545)" class="st3 st1 st2">A</text>
		</g>
	</g>
</g>
<g id="ID000052">
	<line class="st5" x1="352.8" y1="168.4" x2="352.8" y2="156.6"/>
</g>
<g id="ID000053">
	<g transform="translate(238.736,213.207)">
		<g transform="rotate(-0.0)">
			<text transform="matrix(1 0 0 1 104.2616 -61.0302)" class="st1 st2">30</text>
		</g>
	</g>
</g>
<g id="ID000054">
	<g>
		<g transform="translate(262.391,256.417)">
			<g transform="rotate(-0.0)">
				<text transform="matrix(1 0 0 1 96.7858 -71.5854)" class="st7 st1 st2">C</text>
			</g>
		</g>
	</g>
</g>
<g id="ID000055">
	<g>
		<g transform="translate(281.315,256.417)">
			<g transform="rotate(-0.0)">
				<text transform="matrix(1 0 0 1 95.6586 -71.5854)" class="st7 st1 st2">C</text>
			</g>
		</g>
	</g>
</g>
<g id="ID000056">
	<g>
		<g transform="translate(304.970,246.955)">
			<g transform="rotate(-0.0)">
				<text transform="matrix(1 0 0 1 94.7409 -71.0219)" class="st7 st1 st2">A</text>
			</g>
		</g>
	</g>
</g>
<g id="ID000057">
	<g>
		<g transform="translate(323.894,308.458)">
			<g transform="rotate(-0.0)">
				<text transform="matrix(1 0 0 1 93.6128 -74.686)" class="st7 st1 st2">A</text>
			</g>
		</g>
	</g>
</g>
<g id="ID000058">
	<g>
		<g transform="translate(304.970,303.727)">
			<g transform="rotate(-0.0)">
				<text transform="matrix(1 0 0 1 94.2487 -74.4033)" class="st7 st1 st2">C</text>
			</g>
		</g>
	</g>
</g>
<g id="ID000059">
	<g>
		<g transform="translate(281.315,294.265)">
			<g transform="rotate(-0.0)">
				<text transform="matrix(1 0 0 1 95.1596 -73.8397)" class="st7 st1 st2">G</text>
			</g>
		</g>
	</g>
</g>
<g id="ID000060">
	<line class="st5" x1="384.4" y1="223.3" x2="384.4" y2="235.3"/>
</g>
<g id="ID000061">
	<g transform="translate(281.315,333.311)">
		<g transform="rotate(-0.0)">
			<text transform="matrix(1 0 0 1 94.3535 -79.7309)" class="st1 st2">50</text>
		</g>
	</g>
</g>
<g id="ID000062">
	<g>
		<g transform="translate(262.391,294.265)">
			<g transform="rotate(-0.0)">
				<text transform="matrix(1 0 0 1 96.2877 -73.8397)" class="st7 st1 st2">G</text>
			</g>
		</g>
	</g>
</g>
<g id="ID000063">
	<line class="st5" x1="365.6" y1="184" x2="365.6" y2="205.2"/>
</g>
<g id="ID000064">
	<line class="st5" x1="383.5" y1="184" x2="383.5" y2="205.2"/>
</g>
<g id="ID000066">
	<g>
		<g transform="translate(323.894,246.955)">
			<g transform="rotate(-0.0)">
				<text transform="matrix(1 0 0 1 92.6216 -71.0219)" class="st7 st1 st2">G</text>
			</g>
		</g>
	</g>
</g>
<g id="ID000067">
	<g transform="translate(347.549,246.955)">
		<g transform="rotate(-0.0)">
			<text transform="matrix(1 0 0 1 92.2029 -71.0219)" class="st7 st1 st2">A</text>
		</g>
	</g>
</g>
<g id="ID000068">
	<g transform="translate(366.472,246.955)">
		<g transform="rotate(-0.0)">
			<text transform="matrix(1 0 0 1 90.0847 -71.0219)" class="st7 st1 st2">G</text>
		</g>
	</g>
</g>
<g id="ID000069">
	<g transform="translate(385.396,246.955)">
		<g transform="rotate(-0.0)">
			<text transform="matrix(1 0 0 1 89.4556 -71.0219)" class="st7 st1 st2">U</text>
		</g>
	</g>
</g>
<g id="ID000070">
	<g transform="translate(404.320,246.955)">
		<g transform="rotate(-0.0)">
			<text transform="matrix(1 0 0 1 87.8294 -71.0219)" class="st7 st1 st2">G</text>
		</g>
	</g>
</g>
<g id="ID000071">
	<g>
		<g transform="translate(427.975,237.493)">
			<g transform="rotate(-0.0)">
				<text transform="matrix(1 0 0 1 87.4107 -70.4564)" class="st7 st1 st2">A</text>
			</g>
		</g>
	</g>
</g>
<g id="ID000072">
	<g>
		<g transform="translate(446.899,251.686)">
			<g transform="rotate(-0.0)">
				<text transform="matrix(1 0 0 1 86.2827 -71.3037)" class="st7 st1 st2">A</text>
			</g>
		</g>
	</g>
</g>
<g id="ID000073">
	<line class="st5" x1="538.5" y1="162.4" x2="538.5" y2="150.6"/>
</g>
<g id="ID000074">
	<g transform="translate(446.899,213.207)">
		<g transform="rotate(-0.0)">
			<text transform="matrix(1 0 0 1 81.6484 -67.093)" class="st1 st2">40</text>
		</g>
	</g>
</g>
<g id="ID000075">
	<g>
		<g transform="translate(446.899,275.341)">
			<g transform="rotate(-0.0)">
				<text transform="matrix(1 0 0 1 86.2827 -72.7136)" class="st7 st1 st2">A</text>
			</g>
		</g>
	</g>
</g>
<g id="ID000076">
	<g>
		<g transform="translate(427.975,289.534)">
			<g transform="rotate(-0.0)">
				<text transform="matrix(1 0 0 1 86.9156 -73.5579)" class="st7 st1 st2">C</text>
			</g>
		</g>
	</g>
</g>
<g id="ID000077">
	<g>
		<g transform="translate(404.320,284.803)">
			<g transform="rotate(-0.0)">
				<text transform="matrix(1 0 0 1 88.3275 -73.2781)" class="st7 st1 st2">C</text>
			</g>
		</g>
	</g>
</g>
<g id="ID000078">
	<g transform="translate(385.396,284.803)">
		<g transform="rotate(-0.0)">
			<text transform="matrix(1 0 0 1 89.9458 -73.2781)" class="st7 st1 st2">A</text>
		</g>
	</g>
</g>
<g id="ID000079">
	<g transform="translate(366.472,284.803)">
		<g transform="rotate(-0.0)">
			<text transform="matrix(1 0 0 1 90.5837 -73.2781)" class="st7 st1 st2">C</text>
		</g>
	</g>
</g>
<g id="ID000080">
	<g transform="translate(347.549,284.803)">
		<g transform="rotate(-0.0)">
			<text transform="matrix(1 0 0 1 91.7108 -73.2781)" class="st7 st1 st2">U</text>
		</g>
	</g>
</g>
<g id="ID000081">
	<g>
		<g transform="translate(342.818,303.727)">
			<g transform="rotate(-0.0)">
				<text transform="matrix(1 0 0 1 92.4847 -74.4033)" class="st7 st1 st2">A</text>
			</g>
		</g>
	</g>
</g>
<g id="ID000082">
	<line class="st5" x1="445.7" y1="175.1" x2="445.7" y2="196.5"/>
</g>
<g id="ID000083">
	<line class="st5" x1="463.6" y1="175.1" x2="463.6" y2="196.5"/>
</g>
<g id="ID000084">
	<line class="st5" x1="481.3" y1="175.1" x2="481.3" y2="196.5"/>
</g>
<g id="ID000085">
	<line class="st5" x1="499.2" y1="175.1" x2="499.2" y2="196.5"/>
</g>
<g id="ID000087">
	<g transform="translate(262.391,374.692)">
		<g transform="rotate(-0.0)">
			<text transform="matrix(1 0 0 1 118.1315 -76.9635)" class="st4 st1 st2">G</text>
		</g>
	</g>
</g>
<g id="ID000088">
	<g transform="translate(281.315,374.692)">
		<g transform="rotate(-0.0)">
			<text transform="matrix(1 0 0 1 117.9946 -76.9635)" class="st4 st1 st2">A</text>
		</g>
	</g>
</g>
<g id="ID000089">
	<g transform="translate(300.239,374.692)">
		<g transform="rotate(-0.0)">
			<text transform="matrix(1 0 0 1 115.8752 -76.9635)" class="st4 st1 st2">G</text>
		</g>
	</g>
</g>
<g id="ID000090">
	<g transform="translate(319.163,374.692)">
		<g transform="rotate(-0.0)">
			<text transform="matrix(1 0 0 1 115.2462 -76.9635)" class="st4 st1 st2">C</text>
		</g>
	</g>
</g>
<g id="ID000091">
	<g transform="translate(338.087,374.692)">
		<g transform="rotate(-0.0)">
			<text transform="matrix(1 0 0 1 114.1181 -76.9635)" class="st4 st1 st2">C</text>
		</g>
	</g>
</g>
<g id="ID000092">
	<line class="st5" x1="458.6" y1="277.9" x2="458.6" y2="266.1"/>
</g>
<g id="ID000093">
	<g transform="translate(338.087,336.213)">
		<g transform="rotate(-0.0)">
			<text transform="matrix(1 0 0 1 110.6327 -74.6681)" class="st1 st2">60</text>
		</g>
	</g>
</g>
<g id="ID000094">
	<g transform="translate(357.010,374.692)">
		<g transform="rotate(-0.0)">
			<text transform="matrix(1 0 0 1 112.991 -76.9635)" class="st4 st1 st2">C</text>
		</g>
	</g>
</g>
<g id="ID000095">
	<g transform="translate(375.934,374.692)">
		<g transform="rotate(-0.0)">
			<text transform="matrix(1 0 0 1 111.8609 -76.9635)" class="st4 st1 st2">C</text>
		</g>
	</g>
</g>
<g id="ID000096">
	<g transform="translate(394.858,374.692)">
		<g transform="rotate(-0.0)">
			<text transform="matrix(1 0 0 1 110.7357 -76.9635)" class="st4 st1 st2">U</text>
		</g>
	</g>
</g>
<g id="ID000097">
	<g transform="translate(413.782,365.230)">
		<g transform="rotate(-0.0)">
			<text transform="matrix(1 0 0 1 109.6076 -76.397)" class="st4 st1 st2">U</text>
		</g>
	</g>
</g>
<g id="ID000098">
	<g transform="translate(437.437,369.961)">
		<g transform="rotate(-0.0)">
			<text transform="matrix(1 0 0 1 108.1978 -76.6807)" class="st4 st1 st2">C</text>
		</g>
	</g>
</g>
<g id="ID000099">
	<g transform="translate(451.630,388.884)">
		<g transform="rotate(-0.0)">
			<text transform="matrix(1 0 0 1 106.8553 -77.8078)" class="st4 st1 st2">G</text>
		</g>
	</g>
</g>
<g id="ID000100">
	<g transform="translate(442.168,412.539)">
		<g transform="rotate(-0.0)">
			<text transform="matrix(1 0 0 1 108.4082 -79.2158)" class="st4 st1 st2">A</text>
		</g>
	</g>
</g>
<g id="ID000101">
	<g transform="translate(418.513,422.001)">
		<g transform="rotate(-0.0)">
			<text transform="matrix(1 0 0 1 109.3239 -79.7823)" class="st4 st1 st2">C</text>
		</g>
	</g>
</g>
<g id="ID000102">
	<g transform="translate(394.858,412.539)">
		<g transform="rotate(-0.0)">
			<text transform="matrix(1 0 0 1 111.2279 -79.2158)" class="st4 st1 st2">A</text>
		</g>
	</g>
</g>
<g id="ID000103">
	<g transform="translate(375.934,412.539)">
		<g transform="rotate(-0.0)">
			<text transform="matrix(1 0 0 1 111.3648 -79.2158)" class="st4 st1 st2">G</text>
		</g>
	</g>
</g>
<g id="ID000104">
	<line class="st5" x1="494.2" y1="337.2" x2="494.2" y2="349"/>
</g>
<g id="ID000105">
	<g transform="translate(375.934,451.586)">
		<g transform="rotate(-0.0)">
			<text transform="matrix(1 0 0 1 108.3775 -81.545)" class="st1 st2">70</text>
		</g>
	</g>
</g>
<g id="ID000106">
	<g transform="translate(357.010,412.539)">
		<g transform="rotate(-0.0)">
			<text transform="matrix(1 0 0 1 112.4929 -79.2158)" class="st4 st1 st2">G</text>
		</g>
	</g>
</g>
<g id="ID000107">
	<g transform="translate(338.087,412.539)">
		<g transform="rotate(-0.0)">
			<text transform="matrix(1 0 0 1 114.6103 -79.2158)" class="st4 st1 st2">A</text>
		</g>
	</g>
</g>
<g id="ID000108">
	<g transform="translate(319.163,412.539)">
		<g transform="rotate(-0.0)">
			<text transform="matrix(1 0 0 1 114.7491 -79.2158)" class="st4 st1 st2">G</text>
		</g>
	</g>
</g>
<g id="ID000109">
	<g transform="translate(300.239,412.539)">
		<g transform="rotate(-0.0)">
			<text transform="matrix(1 0 0 1 115.8752 -79.2158)" class="st4 st1 st2">G</text>
		</g>
	</g>
</g>
<g id="ID000110">
	<g transform="translate(281.315,412.539)">
		<g transform="rotate(-0.0)">
			<text transform="matrix(1 0 0 1 117.5024 -79.2158)" class="st4 st1 st2">C</text>
		</g>
	</g>
</g>
<g id="ID000111">
	<g transform="translate(262.391,412.539)">
		<g transform="rotate(-0.0)">
			<text transform="matrix(1 0 0 1 118.6295 -79.2158)" class="st4 st1 st2">U</text>
		</g>
	</g>
</g>
<g id="ID000112">
	<g transform="translate(243.467,412.539)">
		<g transform="rotate(-0.0)">
			<text transform="matrix(1 0 0 1 119.7576 -79.2158)" class="st4 st1 st2">C</text>
		</g>
	</g>
</g>
<g id="ID000113">
	<g transform="translate(224.543,412.539)">
		<g transform="rotate(-0.0)">
			<text transform="matrix(1 0 0 1 121.3769 -79.2158)" class="st0 st1 st2">A</text>
		</g>
	</g>
</g>
<g id="ID000114">
	<g transform="translate(205.619,412.539)">
		<g transform="rotate(-0.0)">
			<text transform="matrix(1 0 0 1 122.0119 -79.2158)" class="st0 st1 st2">C</text>
		</g>
	</g>
</g>
<g id="ID000115">
	<g transform="translate(191.426,412.539)">
		<g transform="rotate(-0.0)">
			<text transform="matrix(1 0 0 1 123.3513 -79.2158)" class="st0 st1 st2">A</text>
		</g>
	</g>
</g>
<g id="ID000116">
	<line class="st5" x1="320.8" y1="337.2" x2="320.8" y2="349"/>
</g>
<g id="ID000117">
	<g transform="translate(191.426,451.586)">
		<g transform="rotate(-0.0)">
			<text transform="matrix(1 0 0 1 119.3728 -81.545)" class="st1 st2">80</text>
		</g>
	</g>
</g>
<g id="ID000118">
	<g transform="translate(172.502,412.539)">
		<g transform="rotate(-0.0)">
			<text transform="matrix(1 0 0 1 124.4794 -79.2158)" class="st0 st1 st2">A</text>
		</g>
	</g>
</g>
<g id="ID000119">
	<g transform="translate(153.578,412.539)">
		<g transform="rotate(-0.0)">
			<text transform="matrix(1 0 0 1 125.1144 -79.2158)" class="st0 st1 st2">C</text>
		</g>
	</g>
</g>
<g id="ID000120">
	<g transform="translate(139.385,412.539)">
		<g transform="rotate(-0.0)">
			<text transform="matrix(1 0 0 1 126.4529 -79.2158)" class="st0 st1 st2">A</text>
		</g>
	</g>
</g>
<g id="ID000121">
	<g transform="translate(125.192,412.539)">
		<g transform="rotate(-0.0)">
			<text transform="matrix(1 0 0 1 126.3075 -79.2158)" class="st0 st1 st2">G</text>
		</g>
	</g>
</g>
<g id="ID000122">
	<g transform="translate(106.269,412.539)">
		<g transform="rotate(-0.0)">
			<text transform="matrix(1 0 0 1 127.4351 -79.2158)" class="st0 st1 st2">G</text>
		</g>
	</g>
</g>
<g id="ID000123">
	<g transform="translate(92.076,412.539)">
		<g transform="rotate(-0.0)">
			<text transform="matrix(1 0 0 1 128.779 -79.2158)" class="st0 st1 st2">C</text>
		</g>
	</g>
</g>
<g id="ID000124">
	<line class="st5" x1="384.4" y1="296.2" x2="372.8" y2="318.9"/>
</g>
<g id="ID000125">
	<polygon class="st6" points="376.9,310.6 377.1,310.8 377.4,310.8 377.6,311 377.8,311 378,311 378.2,311 378.5,311 378.7,311 
		378.9,311 379.1,311 379.3,311 379.5,310.8 379.8,310.8 380,310.8 380.2,310.6 380.4,310.6 380.6,310.4 380.9,310.4 381.1,310.2 
		381.1,310 381.3,309.7 381.5,309.7 381.5,309.5 381.7,309.3 381.7,309.1 382,308.9 382,308.6 382,308.4 382.2,308.2 382.2,308 
		382.2,307.8 382.2,307.5 382.2,307.3 382.2,307.1 382.2,306.9 382,306.7 382,306.5 382,306.2 381.7,306 381.7,305.8 381.5,305.6 
		381.5,305.4 381.3,305.1 381.1,305.1 381.1,304.9 380.9,304.7 380.6,304.7 380.4,304.5 380.2,304.5 380,304.3 379.8,304.3 
		379.5,304.1 379.3,304.1 379.1,304.1 378.9,304.1 378.7,304.1 378.5,304.1 378.2,304.1 378,304.1 377.8,304.1 377.6,304.1 
		377.4,304.1 377.1,304.3 376.9,304.3 376.7,304.5 376.7,304.5 376.5,304.7 376.3,304.9 376.1,304.9 375.8,305.1 375.8,305.4 
		375.6,305.6 375.6,305.6 375.4,305.8 375.4,306 375.2,306.2 375.2,306.5 375.2,306.7 375,306.9 375,307.1 375,307.3 375,307.5 
		375,307.8 375,308 375.2,308.2 375.2,308.4 375.2,308.6 375.4,308.9 375.4,309.1 375.6,309.3 375.6,309.5 375.8,309.7 375.8,310 
		376.1,310 376.3,310.2 376.5,310.4 376.5,310.4 376.7,310.6 	"/>
</g>
<g id="ID000126">
	<line class="st5" x1="402" y1="296.2" x2="390.7" y2="318.9"/>
</g>
<g id="ID000127">
	<polygon class="st6" points="394.8,310.6 395.1,310.8 395.3,310.8 395.5,311 395.7,311 395.9,311 396.1,311 396.4,311 396.6,311 
		396.8,311 397,311 397.2,311 397.5,310.8 397.7,310.8 397.9,310.8 398.1,310.6 398.3,310.6 398.3,310.4 398.5,310.4 398.8,310.2 
		399,310 399,309.7 399.2,309.7 399.4,309.5 399.4,309.3 399.6,309.1 399.6,308.9 399.9,308.6 399.9,308.4 399.9,308.2 399.9,308 
		399.9,307.8 399.9,307.5 399.9,307.3 399.9,307.1 399.9,306.9 399.9,306.7 399.9,306.5 399.6,306.2 399.6,306 399.4,305.8 
		399.4,305.6 399.2,305.4 399.2,305.1 399,305.1 398.8,304.9 398.5,304.7 398.5,304.7 398.3,304.5 398.1,304.5 397.9,304.3 
		397.7,304.3 397.5,304.1 397.2,304.1 397,304.1 396.8,304.1 396.6,304.1 396.4,304.1 396.1,304.1 395.9,304.1 395.7,304.1 
		395.5,304.1 395.3,304.1 395.1,304.3 394.8,304.3 394.6,304.5 394.4,304.5 394.2,304.7 394,304.9 394,304.9 393.7,305.1 
		393.5,305.4 393.5,305.6 393.3,305.6 393.3,305.8 393.1,306 393.1,306.2 392.9,306.5 392.9,306.7 392.9,306.9 392.9,307.1 
		392.9,307.3 392.9,307.5 392.9,307.8 392.9,308 392.9,308.2 392.9,308.4 393.1,308.6 393.1,308.9 393.3,309.1 393.3,309.3 
		393.5,309.5 393.5,309.7 393.7,310 394,310 394,310.2 394.2,310.4 394.4,310.4 394.6,310.6 	"/>
</g>
<g id="ID000128">
	<line class="st5" x1="419.9" y1="296.2" x2="408.4" y2="318.9"/>
</g>
<g id="ID000129">
	<polygon class="st6" points="412.5,310.6 412.7,310.8 413,310.8 413.2,311 413.4,311 413.6,311 413.8,311 414,311 414.3,311 
		414.5,311 414.7,311 414.9,311 415.1,310.8 415.4,310.8 415.6,310.8 415.8,310.6 416,310.6 416.2,310.4 416.5,310.4 416.7,310.2 
		416.7,310 416.9,309.7 417.1,309.7 417.1,309.5 417.3,309.3 417.3,309.1 417.5,308.9 417.5,308.6 417.5,308.4 417.8,308.2 
		417.8,308 417.8,307.8 417.8,307.5 417.8,307.3 417.8,307.1 417.8,306.9 417.5,306.7 417.5,306.5 417.5,306.2 417.3,306 
		417.3,305.8 417.1,305.6 417.1,305.4 416.9,305.1 416.7,305.1 416.7,304.9 416.5,304.7 416.2,304.7 416,304.5 415.8,304.5 
		415.6,304.3 415.4,304.3 415.1,304.1 414.9,304.1 414.7,304.1 414.5,304.1 414.3,304.1 414,304.1 413.8,304.1 413.6,304.1 
		413.4,304.1 413.2,304.1 413,304.1 412.7,304.3 412.5,304.3 412.3,304.5 412.3,304.5 412.1,304.7 411.9,304.9 411.6,304.9 
		411.4,305.1 411.4,305.4 411.2,305.6 411.2,305.6 411,305.8 411,306 410.8,306.2 410.8,306.5 410.8,306.7 410.6,306.9 410.6,307.1 
		410.6,307.3 410.6,307.5 410.6,307.8 410.6,308 410.8,308.2 410.8,308.4 410.8,308.6 411,308.9 411,309.1 411.2,309.3 411.2,309.5 
		411.4,309.7 411.4,310 411.6,310 411.9,310.2 412.1,310.4 412.1,310.4 412.3,310.6 	"/>
</g>
<g id="ID000130">
	<line class="st5" x1="437.6" y1="296.2" x2="426.3" y2="318.9"/>
</g>
<g id="ID000131">
	<polygon class="st6" points="430.4,310.6 430.6,310.8 430.9,310.8 431.1,311 431.3,311 431.5,311 431.7,311 432,311 432.2,311 
		432.4,311 432.6,311 432.8,311 433,310.8 433.3,310.8 433.5,310.8 433.7,310.6 433.9,310.6 433.9,310.4 434.1,310.4 434.4,310.2 
		434.6,310 434.6,309.7 434.8,309.7 435,309.5 435,309.3 435.2,309.1 435.2,308.9 435.4,308.6 435.4,308.4 435.4,308.2 435.4,308 
		435.4,307.8 435.4,307.5 435.4,307.3 435.4,307.1 435.4,306.9 435.4,306.7 435.4,306.5 435.2,306.2 435.2,306 435,305.8 435,305.6 
		434.8,305.4 434.8,305.1 434.6,305.1 434.4,304.9 434.1,304.7 434.1,304.7 433.9,304.5 433.7,304.5 433.5,304.3 433.3,304.3 
		433,304.1 432.8,304.1 432.6,304.1 432.4,304.1 432.2,304.1 432,304.1 431.7,304.1 431.5,304.1 431.3,304.1 431.1,304.1 
		430.9,304.1 430.6,304.3 430.4,304.3 430.2,304.5 430,304.5 429.8,304.7 429.6,304.9 429.6,304.9 429.3,305.1 429.1,305.4 
		429.1,305.6 428.9,305.6 428.9,305.8 428.7,306 428.7,306.2 428.5,306.5 428.5,306.7 428.5,306.9 428.5,307.1 428.5,307.3 
		428.5,307.5 428.5,307.8 428.5,308 428.5,308.2 428.5,308.4 428.7,308.6 428.7,308.9 428.9,309.1 428.9,309.3 429.1,309.5 
		429.1,309.7 429.3,310 429.6,310 429.6,310.2 429.8,310.4 430,310.4 430.2,310.6 	"/>
</g>
<g id="ID000132">
	<line class="st5" x1="455.5" y1="296.2" x2="444" y2="318.9"/>
</g>
<g id="ID000133">
	<polygon class="st6" points="448.1,310.6 448.3,310.8 448.5,310.8 448.8,311 449,311 449.2,311 449.4,311 449.6,311 449.9,311 
		450.1,311 450.3,311 450.5,311 450.7,310.8 450.9,310.8 451.2,310.8 451.4,310.6 451.6,310.6 451.8,310.4 452,310.4 452.3,310.2 
		452.3,310 452.5,309.7 452.7,309.7 452.7,309.5 452.9,309.3 452.9,309.1 453.1,308.9 453.1,308.6 453.1,308.4 453.4,308.2 
		453.4,308 453.4,307.8 453.4,307.5 453.4,307.3 453.4,307.1 453.4,306.9 453.1,306.7 453.1,306.5 453.1,306.2 452.9,306 
		452.9,305.8 452.7,305.6 452.7,305.4 452.5,305.1 452.3,305.1 452.3,304.9 452,304.7 451.8,304.7 451.6,304.5 451.4,304.5 
		451.2,304.3 450.9,304.3 450.7,304.1 450.5,304.1 450.3,304.1 450.1,304.1 449.9,304.1 449.6,304.1 449.4,304.1 449.2,304.1 
		449,304.1 448.8,304.1 448.5,304.1 448.3,304.3 448.1,304.3 447.9,304.5 447.9,304.5 447.7,304.7 447.5,304.9 447.2,304.9 
		447,305.1 447,305.4 446.8,305.6 446.8,305.6 446.6,305.8 446.6,306 446.4,306.2 446.4,306.5 446.4,306.7 446.1,306.9 446.1,307.1 
		446.1,307.3 446.1,307.5 446.1,307.8 446.1,308 446.4,308.2 446.4,308.4 446.4,308.6 446.6,308.9 446.6,309.1 446.8,309.3 
		446.8,309.5 447,309.7 447,310 447.2,310 447.5,310.2 447.7,310.4 447.7,310.4 447.9,310.6 	"/>
</g>
<g id="ID000134">
	<line class="st5" x1="476.5" y1="296.9" x2="476.5" y2="318.2"/>
</g>
<g id="ID000135">
	<line class="st5" x1="494.2" y1="296.9" x2="494.2" y2="318.2"/>
</g>
<g id="ID000136">
	<line class="st5" x1="512.1" y1="296.9" x2="512.1" y2="318.2"/>
</g>
<text transform="matrix(1 0 0 1 34.1701 36.7003)" class="st1 st8">aptamer1</text>
<text transform="matrix(1 0 0 1 218.9038 266.0631)" class="st1 st9">5’</text>
<text transform="matrix(1 0 0 1 216.4932 357.1943)" class="st1 st9">3’</text>
</svg>
