<?xml version="1.0" encoding="utf-8"?>
<!-- Generator: Adobe Illustrator 25.2.0, SVG Export Plug-In . SVG Version: 6.00 Build 0)  -->
<svg version="1.1" id="图层_1" xmlns="http://www.w3.org/2000/svg" xmlns:xlink="http://www.w3.org/1999/xlink" x="0px" y="0px"
	 viewBox="0 0 800 400" style="enable-background:new 0 0 800 400;" xml:space="preserve">
<style type="text/css">
	.st0{fill:#80DB9E;}
	.st1{font-family:'ArialMT';}
	.st2{font-size:20.7806px;}
	.st3{fill:#CC00FF;}
	.st4{font-size:20.7798px;}
	.st5{font-size:19.9992px;}
	.st6{font-size:20px;}
	.st7{font-size:25px;}
	.st8{fill:none;stroke:#000000;stroke-miterlimit:3.05;}
	.st9{fill:none;stroke:#000000;stroke-miterlimit:10;}
	.st10{stroke:#000000;stroke-miterlimit:10;}
	.st11{fill:none;stroke:#000000;stroke-miterlimit:3.05;stroke-dasharray:3;}
	.st12{fill:none;stroke:#000000;stroke-width:1;stroke-miterlimit:3.0501;}
	.st13{fill:#FFFFFF;stroke:#FFFFFF;stroke-miterlimit:3.05;}
</style>
<g id="ID000015_00000173875694342317219160000002098257893630299547_">
	<text transform="matrix(1 4.652076e-03 -4.652076e-03 1 323.5977 152.9994)" class="st0 st1 st2">C</text>
</g>
<g id="ID000010">
	<text transform="matrix(1 4.649139e-03 -4.649139e-03 1 239.8704 64.3091)" class="st3 st1 st2">C</text>
</g>
<g id="ID000012_00000016067292605267584260000006553463823368688815_">
	<text transform="matrix(1 4.649632e-03 -4.649632e-03 1 218.9942 53.4664)" class="st3 st1 st2">G</text>
</g>
<g id="ID000012_00000114069821504491984110000005420683603148540087_">
	<text transform="matrix(1 4.661946e-03 -4.661946e-03 1 180.1747 106.2999)" class="st3 st1 st2">G</text>
</g>
<g id="ID000013_00000060732579886484763110000007444526265796362403_">
	<text transform="matrix(1 4.649879e-03 -4.649879e-03 1 197.9658 60.8777)" class="st3 st1 st2">U</text>
</g>
<g id="ID000015_00000089547750185757048420000015116919831868758430_">
	<text transform="matrix(1 4.662193e-03 -4.662193e-03 1 175.5441 80.8561)" class="st3 st1 st2">A</text>
</g>
<g id="ID000015_00000075875959331992954120000016825441887410001816_">
	<text transform="matrix(1 4.647658e-03 -4.647658e-03 1 260.1769 213.3298)" class="st0 st1 st2">A</text>
</g>
<g id="ID000015_00000050658015709337553990000002283497938199075212_">
	<text transform="matrix(0.9999 1.099147e-02 -1.099147e-02 0.9999 269.233 255.8518)" class="st0 st1 st4">A</text>
</g>
<g id="ID000015_00000093177655249248080780000006382430474721080754_">
	<text transform="matrix(0.9987 5.092480e-02 -5.092480e-02 0.9987 328.7557 293.8662)" class="st0 st1 st2">A</text>
</g>
<g id="ID000015_00000180339822483719563810000003281888003775395765_">
	<text transform="matrix(1 4.650126e-03 -4.650126e-03 1 198.1944 123.0479)" class="st3 st1 st2">A</text>
</g>
<g id="ID000015_00000149379351999371651850000006025661542335599238_">
	<text transform="matrix(1 4.649385e-03 -4.649385e-03 1 258.6744 85.1277)" class="st3 st1 st2">A</text>
</g>
<g id="ID000015_00000151508751079121024150000013009783453718922370_">
	<text transform="matrix(1 4.648892e-03 -4.648892e-03 1 377.29 190.5709)" class="st0 st1 st2">A</text>
</g>
<g id="ID000015_00000174592449113982740150000013408567036112059292_">
	<text transform="matrix(1 4.649632e-03 -4.649632e-03 1 257.3406 111.2995)" class="st3 st1 st2">A</text>
</g>
<g id="ID000018_00000126302616572394518040000003943863930817420420_">
	<text transform="matrix(0.9998 1.778804e-02 -1.778804e-02 0.9998 176.7121 133.9917)" class="st1 st5">40</text>
</g>
<g id="ID000018_00000143592601257654182230000003720791439508115601_">
	<text transform="matrix(1 4.647164e-03 -4.647164e-03 1 300.1486 145.5977)" class="st1 st6">30</text>
</g>
<g id="ID000018_00000172405182823206446850000015998629946086105756_">
	<text transform="matrix(1 4.649139e-03 -4.649139e-03 1 326.329 310.5648)" class="st1 st6">50</text>
</g>
<g id="ID000018_00000034049591968130399200000016334253554628962233_">
	<text transform="matrix(0.9987 5.092455e-02 -5.092455e-02 0.9987 470.8404 264.89)" class="st1 st6">20</text>
</g>
<g id="ID000018_00000042013885379710522390000016863190861060524455_">
	<text transform="matrix(1 4.646671e-03 -4.646671e-03 1 644.8269 247.6592)" class="st1 st6">10</text>
</g>
<g id="ID000018_00000178892049752088390650000018122296931550715577_">
	<text transform="matrix(1 4.645190e-03 -4.645190e-03 1 709.0739 231.681)" class="st1 st6">Loop 1</text>
</g>
<g id="ID000018_00000083058236350797335480000013294556649051359127_">
	<text transform="matrix(0.9999 1.099122e-02 -1.099122e-02 0.9999 334.8668 118.4988)" class="st1 st5">Internal-loop 1</text>
</g>
<g id="ID000018_00000180349014464896444350000012565145873355801264_">
	<text transform="matrix(1 4.646917e-03 -4.646917e-03 1 146.039 288.5605)" class="st1 st6">Internal-loop 2</text>
</g>
<g id="ID000018_00000114073545761696378860000001642555369758218888_">
	<text transform="matrix(1 4.646424e-03 -4.646424e-03 1 624.7599 366.7644)" class="st1 st6">Stem 1</text>
</g>
<g id="ID000018_00000142171719521579723150000005376099961556223361_">
	<text transform="matrix(1 4.648398e-03 -4.648398e-03 1 356.384 324.816)" class="st1 st6">Stem 2</text>
</g>
<g id="ID000018_00000151521906514778359660000001876631010181915071_">
	<text transform="matrix(1 4.647411e-03 -4.647411e-03 1 260.656 49.1635)" class="st1 st6">Stem 3</text>
</g>
<g id="ID000018_00000152264551861950779380000017636026122159715519_">
	<text transform="matrix(1 4.646671e-03 -4.646671e-03 1 520.9489 341.8232)" class="st1 st6">Bridge</text>
</g>
<g id="ID000019_00000016065581563820496390000002275176269432045740_">
	<text transform="matrix(1 4.649879e-03 -4.649879e-03 1 221.9337 133.9917)" class="st3 st1 st2">U</text>
</g>
<text transform="matrix(1 0 0 1 4.5615 33.2037)" class="st1 st7">4Aapt aptamer</text>
<text transform="matrix(0.9985 5.556532e-02 -5.556532e-02 0.9985 592.4444 375.5991)" class="st1 st6">5’</text>
<text transform="matrix(0.9948 0.1017 -0.1017 0.9948 496.5542 375.6001)" class="st1 st6">3’</text>
<line class="st8" x1="237.9" y1="125.4" x2="254.7" y2="111.6"/>
<g id="ID000015_00000041274110684075146840000002366897725515522714_">
	<text transform="matrix(0.9987 5.092480e-02 -5.092480e-02 0.9987 270.2236 130.6679)" class="st0 st1 st2">A</text>
</g>
<g id="ID000019_00000123437417597461899670000012702278250263212172_">
	<text transform="matrix(1 4.649632e-03 -4.649632e-03 1 235.0646 153.6898)" class="st0 st1 st2">U</text>
</g>
<line class="st8" x1="251" y1="145.1" x2="267.8" y2="131.3"/>
<g id="ID000015_00000168836185234033329050000013156981485704132509_">
	<text transform="matrix(0.9987 5.092480e-02 -5.092480e-02 0.9987 286.1354 272.3248)" class="st0 st1 st2">G</text>
</g>
<g id="ID000015_00000085953355077445052630000011899533751045788038_">
	<text transform="matrix(1 4.648151e-03 -4.648151e-03 1 349.8445 288.5603)" class="st0 st1 st2">G</text>
</g>
<g id="ID000015_00000011729762524441250520000003285128798636499133_">
	<text transform="matrix(1 4.648398e-03 -4.648398e-03 1 369.8096 269.9944)" class="st0 st1 st2">G</text>
</g>
<g id="ID000015_00000011025262162813269180000007113792421173529240_">
	<text transform="matrix(0.9987 5.092480e-02 -5.092480e-02 0.9987 307.7025 284.0839)" class="st0 st1 st2">G</text>
</g>
<g id="ID000015_00000152964682631486355800000017073541161698748049_">
	<text transform="matrix(1 4.648645e-03 -4.648645e-03 1 386.4918 213.5363)" class="st0 st1 st2">G</text>
</g>
<g id="ID000015_00000148636540588475930940000013800595058675741359_">
	<text transform="matrix(0.9987 5.092480e-02 -5.092480e-02 0.9987 385.7291 234.6546)" class="st0 st1 st2">U</text>
</g>
<g id="ID000019_00000087405516464223012600000005346311542107127680_">
	<text transform="matrix(1 4.649385e-03 -4.649385e-03 1 250.8764 173.8503)" class="st0 st1 st2">C</text>
</g>
<line class="st8" x1="267" y1="162.2" x2="283.7" y2="148.5"/>
<line class="st8" x1="281.5" y1="175.1" x2="298.3" y2="161.4"/>
<line class="st8" x1="323.9" y1="153.7" x2="323.9" y2="131.2"/>
<g id="ID000015_00000181052540004195376100000009424680147137228437_">
	<text transform="matrix(1 4.652323e-03 -4.652323e-03 1 302.2661 161.7036)" class="st0 st1 st2">C</text>
</g>
<g id="ID000015_00000043443702925321998930000012220246975157857968_">
	<text transform="matrix(1 4.647905e-03 -4.647905e-03 1 258.5091 234.8704)" class="st0 st1 st2">C</text>
</g>
<g id="ID000019_00000042698163344087913760000002058886268058959806_">
	<text transform="matrix(1 4.649139e-03 -4.649139e-03 1 266.6967 187.3866)" class="st0 st1 st2">G</text>
</g>
<g id="ID000019_00000012441041940792837560000011348830387880742036_">
	<text transform="matrix(1 4.649385e-03 -4.649385e-03 1 285.1398 146.0876)" class="st0 st1 st2">G</text>
</g>
<g id="ID000019_00000124145107683695156370000005127038713741264817_">
	<text transform="matrix(1 4.649385e-03 -4.649385e-03 1 345.9215 157.1465)" class="st0 st1 st2">G</text>
</g>
<g id="ID000019_00000056420237556311711250000000697871102258795697_">
	<text transform="matrix(1 4.689807e-03 -4.689807e-03 1 364.25 170.999)" class="st0 st1 st2">G</text>
</g>
<line class="st8" x1="381.3" y1="254.8" x2="388.7" y2="238.5"/>
<g id="ID000015_00000122699778534338695550000001673991194679229586_">
	<text transform="matrix(0.9987 5.092480e-02 -5.092480e-02 0.9987 389.876 279.375)" class="st0 st1 st2">C</text>
</g>
<g id="ID000015_00000050649082221813948420000014622852614074009245_">
	<text transform="matrix(0.9987 5.092480e-02 -5.092480e-02 0.9987 404.9442 243.2016)" class="st0 st1 st2">G</text>
</g>
<line class="st8" x1="401.1" y1="264" x2="408.4" y2="247.6"/>
<g id="ID000015_00000007389727789889493430000007729843243561586056_">
	<text transform="matrix(1 4.648151e-03 -4.648151e-03 1 406.8131 293.1039)" class="st0 st1 st2">U</text>
</g>
<g id="ID000015_00000138540899623638892470000008083511285081629591_">
	<text transform="matrix(1 4.648398e-03 -4.648398e-03 1 422.9702 258.1089)" class="st0 st1 st2">A</text>
</g>
<g id="ID000015_00000157992314130480916540000009467713360702489988_">
	<text transform="matrix(1 4.646917e-03 -4.646917e-03 1 528.8671 315.4735)" class="st0 st1 st2">A</text>
</g>
<g id="ID000015_00000179640689691360413120000013853804579930912430_">
	<text transform="matrix(1 4.646917e-03 -4.646917e-03 1 692.0938 320.3908)" class="st3 st1 st2">A</text>
</g>
<line class="st8" x1="417.8" y1="277.4" x2="425.1" y2="261"/>
<g id="ID000015_00000016053638222920241980000002400289506544927656_">
	<text transform="matrix(1 4.646917e-03 -4.646917e-03 1 550.681 316.0735)" class="st0 st1 st2">C</text>
</g>
<g id="ID000015_00000106140697623377662570000014105727866503630780_">
	<text transform="matrix(1 4.646917e-03 -4.646917e-03 1 574.2089 317.8012)" class="st0 st1 st2">A</text>
</g>
<g id="ID000015_00000144309842579780776570000014536008075620542119_">
	<text transform="matrix(0.9987 5.092455e-02 -5.092455e-02 0.9987 424.5724 309.3154)" class="st0 st1 st2">C</text>
</g>
<g id="ID000015_00000150071723142875578120000016121082221883857341_">
	<text transform="matrix(1 4.646917e-03 -4.646917e-03 1 592.4447 318.2177)" class="st0 st1 st2">C</text>
</g>
<g id="ID000015_00000010299601808915924560000012075444295024142267_">
	<text transform="matrix(1 4.647905e-03 -4.647905e-03 1 441.3076 271.9818)" class="st0 st1 st2">G</text>
</g>
<g id="ID000015_00000173840183265942388680000014889353872718377873_">
	<text transform="matrix(1 4.647164e-03 -4.647164e-03 1 602.8406 354.0174)" class="st0 st1 st2">G</text>
</g>
<line class="st8" x1="437.2" y1="292.4" x2="444.5" y2="276"/>
<g id="ID000015_00000052091498160978301500000013101325799286245537_">
	<text transform="matrix(1 4.647658e-03 -4.647658e-03 1 447.6093 322.6876)" class="st0 st1 st2">A</text>
</g>
<g id="ID000015_00000054235723331015882960000016434438753115238068_">
	<text transform="matrix(0.9987 5.092455e-02 -5.092455e-02 0.9987 462.4395 286.1943)" class="st0 st1 st2">U</text>
</g>
<line class="st8" x1="458" y1="306.4" x2="465.4" y2="290"/>
<g id="ID000015_00000058585619518150542590000016064415273571283079_">
	<text transform="matrix(1 4.647411e-03 -4.647411e-03 1 467.9334 335.4198)" class="st0 st1 st2">C</text>
</g>
<g id="ID000015_00000005979633530788353760000006142040418170265256_">
	<text transform="matrix(1 4.647164e-03 -4.647164e-03 1 483 299.2721)" class="st0 st1 st2">G</text>
</g>
<line class="st8" x1="478.9" y1="319.7" x2="486.2" y2="303.3"/>
<g id="ID000015_00000072962293993842158070000015025074689115665586_">
	<text transform="matrix(0.9999 -1.528027e-02 1.528027e-02 0.9999 489.4482 349.4308)" class="st0 st1 st2">A</text>
</g>
<g id="ID000015_00000111894874872460040170000016594309052480227235_">
	<text transform="matrix(1 4.647164e-03 -4.647164e-03 1 504.4148 313.1559)" class="st0 st1 st2">U</text>
</g>
<line class="st8" x1="499.7" y1="333" x2="507.1" y2="316.6"/>
<line class="st8" x1="607.7" y1="339.6" x2="601.4" y2="322.8"/>
<g id="ID000015_00000176016055905798837060000002591099006724908442_">
	<text transform="matrix(1 4.611933e-03 -4.611933e-03 1 614.3647 306.025)" class="st0 st1 st2">C</text>
</g>
<g id="ID000015_00000172433934825205490570000015505894607937542830_">
	<text transform="matrix(1 4.647164e-03 -4.647164e-03 1 624.7601 341.8239)" class="st0 st1 st2">G</text>
</g>
<line class="st8" x1="629.6" y1="327.4" x2="623.4" y2="310.6"/>
<g id="ID000015_00000126319437061793880270000012899237484552683409_">
	<text transform="matrix(1 4.646671e-03 -4.646671e-03 1 633.0831 294.0498)" class="st0 st1 st2">C</text>
</g>
<g id="ID000015_00000031894499865992994720000014474950572443802765_">
	<text transform="matrix(1 4.646917e-03 -4.646917e-03 1 643.4789 329.8495)" class="st0 st1 st2">G</text>
</g>
<line class="st8" x1="648.4" y1="315.4" x2="642.1" y2="298.6"/>
<g id="ID000015_00000052810804843614980790000004620220714764836280_">
	<text transform="matrix(1 4.646424e-03 -4.646424e-03 1 651.7511 283.0721)" class="st3 st1 st2">C</text>
</g>
<g id="ID000015_00000090266576967074664080000003097756138856625548_">
	<text transform="matrix(1 4.645930e-03 -4.645930e-03 1 688.4539 254.5889)" class="st3 st1 st2">C</text>
</g>
<g id="ID000015_00000111883872891849293650000006439441980976375725_">
	<text transform="matrix(1 4.645437e-03 -4.645437e-03 1 721.3942 280.6879)" class="st3 st1 st2">C</text>
</g>
<g id="ID000015_00000181056758027542852540000015630919150987400613_">
	<text transform="matrix(1 4.646671e-03 -4.646671e-03 1 715.1533 307.1046)" class="st3 st1 st2">C</text>
</g>
<g id="ID000015_00000075868329635494019660000007093314590924622253_">
	<text transform="matrix(1 4.646671e-03 -4.646671e-03 1 663.8891 320.3901)" class="st3 st1 st2">G</text>
</g>
<g id="ID000015_00000133519689335435706270000005492811566598252938_">
	<text transform="matrix(1 4.646177e-03 -4.646177e-03 1 664.973 263.4536)" class="st3 st1 st2">G</text>
</g>
<g id="ID000015_00000101813274038236242160000009883196889854661524_">
	<text transform="matrix(1 4.645683e-03 -4.645683e-03 1 709.0738 261.9181)" class="st3 st1 st2">G</text>
</g>
<line class="st8" x1="667" y1="304.4" x2="660.7" y2="287.6"/>
<g id="ID000018_00000044174203690828923540000003963028906223099273_">
	<text transform="matrix(1 4.661946e-03 -4.661946e-03 1 109.1731 104.1158)" class="st1 st6">Loop 2</text>
</g>
<g>
	<line class="st9" x1="248.8" y1="247" x2="227.8" y2="252.5"/>
	<polygon class="st9" points="264.2,242.9 247.7,242.7 249.9,251.2 	"/>
</g>
<g>
	<polygon class="st9" points="237.9,46.9 248.2,33.9 240.1,30.5 	"/>
</g>
<g>
	<polygon class="st9" points="460.4,270.2 470.6,257.2 462.6,253.8 	"/>
</g>
<g>
	<polygon class="st9" points="501.5,295.8 511.7,282.8 503.7,279.4 	"/>
</g>
<g>
	<polygon class="st10" points="266.1,193.9 251.1,186.9 249.6,195.5 	"/>
</g>
<g>
	<polygon class="st10" points="341.7,141.8 346.4,125.9 337.6,125.8 	"/>
</g>
<g>
	<polygon class="st10" points="365.3,153.2 378.6,143.4 371.7,138 	"/>
</g>
<g>
	<polygon class="st10" points="440.4,254.6 451.7,242.5 443.9,238.4 	"/>
</g>
<g>
	<polygon class="st10" points="483.4,283.4 494.6,271.2 486.8,267.2 	"/>
</g>
<g>
	<polygon class="st10" points="397.7,194.2 414.2,194.5 412,186 	"/>
</g>
<g>
	<polygon class="st9" points="230.7,141.2 216.5,149.7 222.8,155.8 	"/>
</g>
<g>
	<polygon class="st9" points="247.4,159.7 233.2,168.3 239.6,174.3 	"/>
</g>
<g>
	<line class="st9" x1="209.8" y1="30.1" x2="206.3" y2="8.7"/>
	<polygon class="st10" points="212.5,45.8 214.2,29.4 205.5,30.8 	"/>
</g>
<g>
	<line class="st9" x1="715.3" y1="73.7" x2="693.6" y2="73.5"/>
	<polygon class="st10" points="731.3,73.8 715.3,69.3 715.3,78.1 	"/>
</g>
<g>
	<line class="st9" x1="293.6" y1="298.5" x2="284.8" y2="318.3"/>
	<polygon class="st10" points="300.1,283.9 289.6,296.7 297.6,300.3 	"/>
</g>
<g>
	<line class="st9" x1="316" y1="307.1" x2="307.9" y2="327.2"/>
	<polygon class="st10" points="322,292.2 311.9,305.4 320,308.7 	"/>
</g>
<g>
	<line class="st9" x1="449.6" y1="373.3" x2="423.4" y2="355.6"/>
	<polygon class="st10" points="463.2,381.6 451.8,369.6 447.3,377.1 	"/>
</g>
<g>
	<line class="st9" x1="546" y1="286.5" x2="545.7" y2="264.9"/>
	<polygon class="st9" points="546.2,302.5 550.4,286.5 541.6,286.6 	"/>
</g>
<g>
	<line class="st9" x1="714.8" y1="96.9" x2="693.1" y2="97"/>
	<polygon class="st9" points="730.8,96.8 714.8,92.5 714.8,101.3 	"/>
</g>
<line class="st11" x1="423.4" y1="355.6" x2="439" y2="321"/>
<g>
	<line class="st9" x1="643.9" y1="254.2" x2="625" y2="243.6"/>
	<polygon class="st10" points="657.8,262 646,250.3 641.8,258 	"/>
</g>
<g>
	<polygon class="st9" points="680.7,246.7 677.8,230.4 669.9,234.2 	"/>
</g>
<text transform="matrix(1 0 0 1 540.8 80.6481)" class="st1 st6">RNase T1: G</text>
<text transform="matrix(1 0 0 1 540.8004 104.3269)" class="st1 st6">RNase A: U&amp;C</text>
<line class="st11" x1="407.1" y1="207.5" x2="692.1" y2="209.9"/>
<line class="st11" x1="695.8" y1="233.5" x2="688.5" y2="209.9"/>
<line class="st11" x1="389.9" y1="166.3" x2="735.4" y2="173.9"/>
<line class="st11" x1="737.5" y1="258.1" x2="733.8" y2="175.6"/>
<line class="st11" x1="735.6" y1="296" x2="784.4" y2="158.7"/>
<line class="st11" x1="363.7" y1="145.1" x2="787.6" y2="161.7"/>
<line class="st8" x1="404.9" y1="214.5" x2="379.2" y2="214.5"/>
<path class="st8" d="M404.9,214.5c0-46-36.2-83.3-81-83.3"/>
<path class="st8" d="M379.9,215.2c0-34-25.2-61.5-56.3-61.5"/>
<ellipse transform="matrix(0.9743 -0.2254 0.2254 0.9743 -45.8824 163.7505)" class="st12" cx="694.2" cy="282.8" rx="45.2" ry="46.4"/>
<ellipse transform="matrix(0.9743 -0.2254 0.2254 0.9743 -45.3342 163.9387)" class="st12" cx="695.3" cy="280.5" rx="23.8" ry="24.4"/>
<line class="st8" x1="672.2" y1="285.9" x2="649.3" y2="286"/>
<line class="st8" x1="680.5" y1="299.4" x2="658" y2="310.2"/>
<rect x="647.2" y="286.9" class="st13" width="10.5" height="22"/>
<rect x="670.6" y="286.9" class="st13" width="12.8" height="11.9"/>
</svg>
