<?xml version="1.0" encoding="utf-8"?>
<!-- Generator: Adobe Illustrator 25.2.0, SVG Export Plug-In . SVG Version: 6.00 Build 0)  -->
<svg version="1.1" id="图层_1" xmlns="http://www.w3.org/2000/svg" xmlns:xlink="http://www.w3.org/1999/xlink" x="0px" y="0px"
	 viewBox="0 0 800 400" style="enable-background:new 0 0 800 400;" xml:space="preserve">
<style type="text/css">
	.st0{fill:#C2C2FF;}
	.st1{font-family:'ArialMT';}
	.st2{font-size:25.6034px;}
	.st3{fill:#FF870A;}
	.st4{fill:#80DB9E;}
	.st5{font-size:24.6387px;}
	.st6{font-size:25px;}
	.st7{font-size:25.6037px;}
	.st8{fill:none;stroke:#000000;stroke-miterlimit:10;}
</style>
<g id="ID000015_00000018203950789531570280000014463831629925239434_">
	<text transform="matrix(0.9987 5.092493e-02 -5.092493e-02 0.9987 214.1161 87.1649)" class="st0 st1 st2">A</text>
</g>
<g id="ID000015_00000035501494889949334870000010344880879453497520_">
	<text transform="matrix(0.9987 5.092493e-02 -5.092493e-02 0.9987 168.8916 108.6211)" class="st3 st1 st2">A</text>
</g>
<g id="ID000015_00000142155119904648378790000017652740680539364028_">
	<text transform="matrix(0.9987 5.092493e-02 -5.092493e-02 0.9987 121.674 297.1086)" class="st3 st1 st2">A</text>
</g>
<g id="ID000015_00000061430656605144748210000001669769186540238271_">
	<text transform="matrix(0.9987 5.092493e-02 -5.092493e-02 0.9987 106.2401 167.549)" class="st4 st1 st2">A</text>
</g>
<g id="ID000015_00000014624965577411756840000003059566606438180517_">
	<text transform="matrix(0.9987 5.092493e-02 -5.092493e-02 0.9987 106.2406 237.2635)" class="st4 st1 st2">A</text>
</g>
<g id="ID000015_00000088103744170949961980000001848056615932296329_">
	<text transform="matrix(0.9987 5.092493e-02 -5.092493e-02 0.9987 214.1165 160.6626)" class="st0 st1 st2">A</text>
</g>
<g id="ID000018_00000152236119567861893620000013875292599121531067_">
	<text transform="matrix(0.9998 1.778953e-02 -1.778953e-02 0.9998 164.2907 217.7401)" class="st1 st5">20</text>
</g>
<g id="ID000018_00000018941803418308444660000003973046952310888115_">
	<text transform="matrix(0.9998 1.778953e-02 -1.778953e-02 0.9998 483.5756 217.7413)" class="st1 st5">30</text>
</g>
<g id="ID000018_00000070819051672907577860000001804077881662370443_">
	<text transform="matrix(0.9998 1.778953e-02 -1.778953e-02 0.9998 590.5565 360.5772)" class="st1 st5">40</text>
</g>
<g id="ID000018_00000100359108112622708860000004964592391739819437_">
	<text transform="matrix(0.9998 1.778953e-02 -1.778953e-02 0.9998 314.1151 371.2344)" class="st1 st5">50</text>
</g>
<g id="ID000018_00000168103179195021976770000010221613222759442823_">
	<text transform="matrix(0.9998 1.778953e-02 -1.778953e-02 0.9998 106.2418 93.3333)" class="st1 st5">5’</text>
</g>
<g id="ID000018_00000152229750472553366160000002227221605731997118_">
	<text transform="matrix(0.9998 1.778953e-02 -1.778953e-02 0.9998 94.3997 307.6096)" class="st1 st5">3’</text>
</g>
<text transform="matrix(1 0 0 1 6.4761 27.4933)" class="st1 st6">APT58 aptamer</text>
<g id="ID000015_00000091693973282165912970000016998497968686236069_">
	<text transform="matrix(0.9987 5.092493e-02 -5.092493e-02 0.9987 261.1017 145.1964)" class="st0 st1 st2">G</text>
</g>
<g id="ID000015_00000038412417232921242800000010104927897789755801_">
	<text transform="matrix(0.9987 5.092493e-02 -5.092493e-02 0.9987 191.0512 108.6207)" class="st3 st1 st2">G</text>
</g>
<g id="ID000015_00000023242396718322678300000003615227762708639388_">
	<text transform="matrix(0.9987 5.092493e-02 -5.092493e-02 0.9987 143.5434 257.6779)" class="st3 st1 st2">G</text>
</g>
<g id="ID000015_00000015319861220853950150000000175359905375791035_">
	<text transform="matrix(0.9987 5.092493e-02 -5.092493e-02 0.9987 143.5442 108.6213)" class="st3 st1 st2">G</text>
</g>
<g id="ID000015_00000025412804339529038010000006967540595338897848_">
	<text transform="matrix(0.9987 5.092493e-02 -5.092493e-02 0.9987 261.1021 108.6206)" class="st0 st1 st2">C</text>
</g>
<g id="ID000015_00000094586660033986462750000011304116752041225641_">
	<text transform="matrix(0.9987 5.092493e-02 -5.092493e-02 0.9987 191.0509 145.1954)" class="st3 st1 st2">C</text>
</g>
<g id="ID000015_00000043441688669966196310000010242188635416076431_">
	<text transform="matrix(0.9987 5.092493e-02 -5.092493e-02 0.9987 143.5432 297.1089)" class="st3 st1 st2">C</text>
</g>
<g id="ID000015_00000009576954220157006770000013389261408314327692_">
	<text transform="matrix(0.9987 5.092493e-02 -5.092493e-02 0.9987 191.7843 256.9764)" class="st3 st1 st2">G</text>
</g>
<g id="ID000015_00000093894608712112502330000001381987488823750794_">
	<text transform="matrix(0.9987 5.092493e-02 -5.092493e-02 0.9987 191.051 297.1103)" class="st3 st1 st2">C</text>
</g>
<g id="ID000015_00000129179062096138100720000000954474830976905657_">
	<text transform="matrix(0.9987 5.092493e-02 -5.092493e-02 0.9987 244.8873 256.9776)" class="st3 st1 st2">G</text>
</g>
<g id="ID000015_00000037681865478664921800000010499770826435704751_">
	<text transform="matrix(0.9987 5.092493e-02 -5.092493e-02 0.9987 318.669 257.6792)" class="st0 st1 st2">G</text>
</g>
<g id="ID000015_00000109722609452382785290000018102496426772761757_">
	<text transform="matrix(0.9987 5.092493e-02 -5.092493e-02 0.9987 274.6702 297.1118)" class="st0 st1 st2">G</text>
</g>
<g id="ID000015_00000041256841608266678090000010605429749097898682_">
	<text transform="matrix(0.9987 5.092493e-02 -5.092493e-02 0.9987 295.9214 315.3485)" class="st0 st1 st2">G</text>
</g>
<g id="ID000015_00000119091890356504345340000006548817933736915594_">
	<text transform="matrix(0.9987 5.092493e-02 -5.092493e-02 0.9987 339.4075 315.3492)" class="st0 st1 st2">G</text>
</g>
<g id="ID000015_00000086683396438395307730000017248700371907924359_">
	<text transform="matrix(0.9987 5.092493e-02 -5.092493e-02 0.9987 359.7006 297.1089)" class="st0 st1 st2">G</text>
</g>
<g id="ID000015_00000088851672128116748600000015369248064526078099_">
	<text transform="matrix(0.9987 5.092493e-02 -5.092493e-02 0.9987 391.3374 257.6796)" class="st0 st1 st2">G</text>
</g>
<g id="ID000015_00000106862691485892458000000004398570891829855122_">
	<text transform="matrix(0.9987 5.092493e-02 -5.092493e-02 0.9987 423.3359 257.6812)" class="st0 st1 st2">G</text>
</g>
<g id="ID000015_00000030477487934809078980000013995114919131768238_">
	<text transform="matrix(0.9987 5.092493e-02 -5.092493e-02 0.9987 488.2737 297.1087)" class="st3 st1 st2">G</text>
</g>
<g id="ID000015_00000027604501427178654100000002523504531629965968_">
	<text transform="matrix(0.9987 5.092493e-02 -5.092493e-02 0.9987 518.4544 257.6824)" class="st3 st1 st2">G</text>
</g>
<g id="ID000015_00000018957694161331334490000018002861731457597827_">
	<text transform="matrix(0.9987 5.092493e-02 -5.092493e-02 0.9987 617.548 318.8696)" class="st0 st1 st2">G</text>
</g>
<g id="ID000015_00000114053425577911005440000014390688396706313623_">
	<text transform="matrix(0.9987 5.092493e-02 -5.092493e-02 0.9987 244.154 297.1115)" class="st3 st1 st2">C</text>
</g>
<g id="ID000015_00000168099726834592377370000014655238435249003165_">
	<text transform="matrix(0.9987 5.092493e-02 -5.092493e-02 0.9987 456.942 257.6807)" class="st0 st1 st2">C</text>
</g>
<g id="ID000015_00000134952008422065762420000012529633804508168614_">
	<text transform="matrix(0.9987 5.092493e-02 -5.092493e-02 0.9987 423.3347 297.1122)" class="st0 st1 st2">C</text>
</g>
<g id="ID000015_00000107548714810915541270000008208858177332746660_">
	<text transform="matrix(0.9987 5.092493e-02 -5.092493e-02 0.9987 488.2727 257.6815)" class="st3 st1 st2">C</text>
</g>
<g id="ID000015_00000094602574606831846700000015698614071637830535_">
	<text transform="matrix(0.9987 5.092493e-02 -5.092493e-02 0.9987 617.5476 237.2637)" class="st0 st1 st2">C</text>
</g>
<g id="ID000015_00000038406116220856459550000010785753224164875940_">
	<text transform="matrix(0.9987 5.092493e-02 -5.092493e-02 0.9987 518.4544 297.1085)" class="st3 st1 st2">C</text>
</g>
<g id="ID000015_00000170971903604961911410000005098411675177325744_">
	<text transform="matrix(0.9987 5.092493e-02 -5.092493e-02 0.9987 143.544 145.1961)" class="st3 st1 st2">C</text>
</g>
<g id="ID000015_00000117654874868725479070000003491213113968769436_">
	<text transform="matrix(0.9987 5.092493e-02 -5.092493e-02 0.9987 121.6751 108.6199)" class="st3 st1 st2">G</text>
</g>
<g id="ID000015_00000169519254844434545060000018151783227818018720_">
	<text transform="matrix(0.9987 5.092493e-02 -5.092493e-02 0.9987 121.6739 145.1946)" class="st3 st1 st2">C</text>
</g>
<g id="ID000015_00000118354811201424816940000008850196930413541000_">
	<text transform="matrix(0.9987 5.092493e-02 -5.092493e-02 0.9987 106.2399 204.3907)" class="st4 st1 st2">C</text>
</g>
<g id="ID000015_00000080907520823731312520000010939853915966823605_">
	<text transform="matrix(0.9987 5.092493e-02 -5.092493e-02 0.9987 238.1399 160.6614)" class="st0 st1 st2">C</text>
</g>
<g id="ID000015_00000164503574457524854650000015669877016857726852_">
	<text transform="matrix(1 4.648101e-03 -4.648101e-03 1 238.1405 87.1672)" class="st0 st1 st7">U</text>
</g>
<g id="ID000015_00000014595065072040191200000007284956290918894987_">
	<text transform="matrix(1 4.648101e-03 -4.648101e-03 1 168.8905 145.1975)" class="st3 st1 st7">U</text>
</g>
<g id="ID000015_00000107578719991630936150000003147323042108815511_">
	<text transform="matrix(1 4.648101e-03 -4.648101e-03 1 121.6748 257.6794)" class="st3 st1 st7">U</text>
</g>
<g id="ID000015_00000180368901551695502840000008881252843394932923_">
	<text transform="matrix(0.9987 5.092493e-02 -5.092493e-02 0.9987 168.8905 297.1097)" class="st3 st1 st2">A</text>
</g>
<g id="ID000015_00000030471199975716655050000009808478025284917436_">
	<text transform="matrix(0.9987 5.092493e-02 -5.092493e-02 0.9987 220.1032 256.9762)" class="st3 st1 st2">A</text>
</g>
<g id="ID000015_00000028324292941352446100000012823123908527467408_">
	<text transform="matrix(0.9987 5.092493e-02 -5.092493e-02 0.9987 359.7004 256.9758)" class="st0 st1 st2">A</text>
</g>
<g id="ID000015_00000103223551650961867060000001591271166265479568_">
	<text transform="matrix(0.9987 5.092493e-02 -5.092493e-02 0.9987 391.3373 297.1087)" class="st0 st1 st2">A</text>
</g>
<g id="ID000015_00000044154943668917250470000002208173047608125616_">
	<text transform="matrix(0.9987 5.092493e-02 -5.092493e-02 0.9987 456.9418 297.1117)" class="st0 st1 st2">A</text>
</g>
<g id="ID000015_00000084519963278637175120000013280223318631671727_">
	<text transform="matrix(0.9987 5.092493e-02 -5.092493e-02 0.9987 318.6688 330.6107)" class="st0 st1 st2">A</text>
</g>
<g id="ID000015_00000096740620380614657720000012797803888890380937_">
	<text transform="matrix(1 4.648101e-03 -4.648101e-03 1 168.8912 257.6792)" class="st3 st1 st7">U</text>
</g>
<g id="ID000015_00000111169954267819341840000015155321726132934321_">
	<text transform="matrix(1 4.648101e-03 -4.648101e-03 1 220.103 297.112)" class="st3 st1 st7">U</text>
</g>
<g id="ID000015_00000152224311229672653550000003119270307883871374_">
	<text transform="matrix(1 4.648101e-03 -4.648101e-03 1 274.6706 257.6806)" class="st0 st1 st7">U</text>
</g>
<g id="ID000015_00000150066640495609517000000013970816575550019976_">
	<text transform="matrix(0.9987 5.092493e-02 -5.092493e-02 0.9987 546.7975 257.8026)" class="st3 st1 st2">A</text>
</g>
<g id="ID000015_00000131330475601692454140000018310821334937222838_">
	<text transform="matrix(1 4.648101e-03 -4.648101e-03 1 546.799 297.9391)" class="st3 st1 st7">U</text>
</g>
<g id="ID000015_00000146496891758065831410000013267440053319399322_">
	<text transform="matrix(0.9987 5.092493e-02 -5.092493e-02 0.9987 574.1101 258.3818)" class="st3 st1 st2">A</text>
</g>
<g id="ID000015_00000104667645589639422770000003158107036775774604_">
	<text transform="matrix(0.9987 5.092493e-02 -5.092493e-02 0.9987 595.6994 318.8693)" class="st0 st1 st2">A</text>
</g>
<g id="ID000015_00000085214308368056974860000008985098073797618064_">
	<text transform="matrix(0.9987 5.092493e-02 -5.092493e-02 0.9987 643.2437 258.3829)" class="st0 st1 st2">A</text>
</g>
<g id="ID000015_00000116935948584638237230000017415450504362481593_">
	<text transform="matrix(0.9987 5.092493e-02 -5.092493e-02 0.9987 643.2441 297.9372)" class="st0 st1 st2">A</text>
</g>
<g id="ID000015_00000181044785020983270260000014327892620984422815_">
	<text transform="matrix(0.9987 5.092493e-02 -5.092493e-02 0.9987 595.6999 237.2634)" class="st0 st1 st2">A</text>
</g>
<g id="ID000015_00000154386703303622637970000013628088175914578611_">
	<text transform="matrix(1 4.648101e-03 -4.648101e-03 1 574.111 298.5192)" class="st3 st1 st7">U</text>
</g>
<g id="ID000015_00000070106038277120795870000002137379001335047585_">
	<text transform="matrix(1 4.648101e-03 -4.648101e-03 1 653.5452 281.1245)" class="st0 st1 st7">U</text>
</g>
<line class="st8" x1="202.3" y1="112.3" x2="202.4" y2="125.9"/>
<line class="st8" x1="178.3" y1="112.3" x2="178.4" y2="125.9"/>
<line class="st8" x1="155" y1="112.3" x2="155.1" y2="125.9"/>
<line class="st8" x1="132.6" y1="112.3" x2="132.7" y2="125.9"/>
<line class="st8" x1="202.3" y1="262.9" x2="202.4" y2="276.4"/>
<line class="st8" x1="229.1" y1="262.9" x2="229.2" y2="276.4"/>
<line class="st8" x1="254.4" y1="262.9" x2="254.6" y2="276.4"/>
<line class="st8" x1="178.3" y1="262.9" x2="178.4" y2="276.4"/>
<line class="st8" x1="154.3" y1="262.7" x2="154.4" y2="276.3"/>
<line class="st8" x1="130.6" y1="262.7" x2="130.7" y2="276.3"/>
<line class="st8" x1="529.4" y1="263" x2="529.6" y2="276.5"/>
<line class="st8" x1="556.5" y1="262.7" x2="556.5" y2="276.3"/>
<line class="st8" x1="583.9" y1="262.7" x2="584" y2="276.3"/>
<line class="st8" x1="499.5" y1="262.7" x2="499.6" y2="276.3"/>
<line class="st8" x1="178.2" y1="221.6" x2="178.4" y2="235.2"/>
<line class="st8" x1="328.2" y1="334.2" x2="328.3" y2="347.7"/>
<line class="st8" x1="499.4" y1="221.6" x2="499.6" y2="235.2"/>
<line class="st8" x1="605.1" y1="323.8" x2="605.2" y2="337.4"/>
</svg>
