<?xml version="1.0" encoding="utf-8"?>
<!-- Generator: Adobe Illustrator 25.2.0, SVG Export Plug-In . SVG Version: 6.00 Build 0)  -->
<svg version="1.1" id="图层_1" xmlns="http://www.w3.org/2000/svg" xmlns:xlink="http://www.w3.org/1999/xlink" x="0px" y="0px"
	 viewBox="0 0 800 400" style="enable-background:new 0 0 800 400;" xml:space="preserve">
<style type="text/css">
	.st0{font-family:'ArialMT';}
	.st1{font-size:25px;}
	.st2{fill:#3399FF;}
	.st3{font-size:20.7806px;}
	.st4{fill:#80DB9E;}
	.st5{fill:#FF00FF;}
	.st6{fill:#FF9933;}
	.st7{fill:#FF3333;}
	.st8{font-size:19.992px;}
	.st9{font-size:16px;}
	.st10{fill:none;stroke:#000000;stroke-width:0.25;stroke-miterlimit:3.05;}
</style>
<text transform="matrix(1 0 0 1 23.8662 46.1373)" class="st0 st1">AptER-1 aptamer</text>
<g id="ID000012_00000021093500540814672850000009720021703209572250_">
	<text transform="matrix(0.9999 1.570652e-02 -1.570652e-02 0.9999 326.7264 84.9469)" class="st2 st0 st3">A</text>
</g>
<g id="ID000012_00000132067672931027451360000011479076388135863710_">
	<text transform="matrix(0.9999 1.570652e-02 -1.570652e-02 0.9999 364.7558 64.633)" class="st4 st0 st3">A</text>
</g>
<g id="ID000012_00000054985700956122577830000009570560941144676793_">
	<text transform="matrix(0.9999 1.570652e-02 -1.570652e-02 0.9999 386.5586 64.3629)" class="st4 st0 st3">A</text>
</g>
<g id="ID000012_00000045612272392515664390000008900508439403428013_">
	<text transform="matrix(0.9999 1.570652e-02 -1.570652e-02 0.9999 365.631 135.2921)" class="st4 st0 st3">A</text>
</g>
<g id="ID000012_00000102540659324201479700000007974207747874359708_">
	<text transform="matrix(0.9999 1.570652e-02 -1.570652e-02 0.9999 188.737 158.675)" class="st4 st0 st3">A</text>
</g>
<g id="ID000012_00000011750827267420706580000004448807019398802333_">
	<text transform="matrix(0.9999 1.570652e-02 -1.570652e-02 0.9999 250.1758 118.1608)" class="st4 st0 st3">A</text>
</g>
<g id="ID000012_00000097464393244494472630000014579041625059910032_">
	<text transform="matrix(0.9999 1.570673e-02 -1.570673e-02 0.9999 247.5836 170.6655)" class="st4 st0 st3">A</text>
</g>
<g id="ID000012_00000083055374228280450840000001098271801821873846_">
	<text transform="matrix(0.9999 1.570652e-02 -1.570652e-02 0.9999 317.0209 222.8273)" class="st5 st0 st3">A</text>
</g>
<g id="ID000012_00000175313162815314572210000000188631286839439539_">
	<text transform="matrix(0.9999 1.570652e-02 -1.570652e-02 0.9999 278.2133 192.8976)" class="st5 st0 st3">A</text>
</g>
<g id="ID000012_00000070802867267339956770000015363646618547923123_">
	<text transform="matrix(0.9999 1.570652e-02 -1.570652e-02 0.9999 387.4333 135.0226)" class="st4 st0 st3">A</text>
</g>
<g id="ID000012_00000163780630755816521670000000908869296210700417_">
	<text transform="matrix(0.9999 1.570652e-02 -1.570652e-02 0.9999 326.5184 114.7963)" class="st2 st0 st3">U</text>
</g>
<g id="ID000012_00000106136639181711777440000003056053886857141906_">
	<text transform="matrix(0.9999 1.570652e-02 -1.570652e-02 0.9999 278.0209 223.8627)" class="st5 st0 st3">U</text>
</g>
<g id="ID000012_00000176735247785063712910000013594111477563919019_">
	<text transform="matrix(0.9999 1.570652e-02 -1.570652e-02 0.9999 372.0898 191.7355)" class="st5 st0 st3">A</text>
</g>
<g id="ID000012_00000105393453250781583510000008701109089982788232_">
	<text transform="matrix(0.9999 1.570652e-02 -1.570652e-02 0.9999 371.8957 222.7006)" class="st5 st0 st3">U</text>
</g>
<g id="ID000012_00000148648247847815710890000000614154828032241799_">
	<text transform="matrix(0.9999 1.570652e-02 -1.570652e-02 0.9999 411.5375 191.2462)" class="st5 st0 st3">A</text>
</g>
<g id="ID000012_00000022521545047880828450000011898290108866488996_">
	<text transform="matrix(0.9999 1.570652e-02 -1.570652e-02 0.9999 476.2685 172.6908)" class="st4 st0 st3">A</text>
</g>
<g id="ID000012_00000078036981099366373060000018306788625633953677_">
	<text transform="matrix(0.9999 1.570652e-02 -1.570652e-02 0.9999 515.0178 259.8284)" class="st4 st0 st3">A</text>
</g>
<g id="ID000012_00000145739668191862857450000009658813165332128417_">
	<text transform="matrix(0.9999 1.570652e-02 -1.570652e-02 0.9999 544.9745 143.0832)" class="st4 st0 st3">A</text>
</g>
<g id="ID000012_00000180341328978048995260000010737045441798051205_">
	<text transform="matrix(0.9999 1.570652e-02 -1.570652e-02 0.9999 563.8998 152.713)" class="st4 st0 st3">A</text>
</g>
<g id="ID000012_00000148631689054357369570000001133241403643447694_">
	<text transform="matrix(0.9999 1.570652e-02 -1.570652e-02 0.9999 555.7701 259.8283)" class="st6 st0 st3">A</text>
</g>
<g id="ID000012_00000040574626054238957790000002815351610295831714_">
	<text transform="matrix(0.9999 1.570652e-02 -1.570652e-02 0.9999 527.0645 300.0634)" class="st6 st0 st3">A</text>
</g>
<g id="ID000012_00000084500965772305976070000018086797174497853081_">
	<text transform="matrix(0.9999 1.570652e-02 -1.570652e-02 0.9999 577.9213 384.7556)" class="st4 st0 st3">A</text>
</g>
<g id="ID000012_00000154406424464898087940000007174812393692802694_">
	<text transform="matrix(0.9999 1.570652e-02 -1.570652e-02 0.9999 531.0639 396.7558)" class="st4 st0 st3">A</text>
</g>
<g id="ID000012_00000023972142363906421500000007365521193353135523_">
	<text transform="matrix(0.9999 1.570652e-02 -1.570652e-02 0.9999 510.8287 384.7557)" class="st4 st0 st3">A</text>
</g>
<g id="ID000012_00000048486387710161240860000006035658599224009122_">
	<text transform="matrix(0.9999 1.570652e-02 -1.570652e-02 0.9999 516.0566 351.326)" class="st4 st0 st3">A</text>
</g>
<g id="ID000012_00000027596035975171585610000016940279676800718768_">
	<text transform="matrix(0.9999 1.570652e-02 -1.570652e-02 0.9999 589.2072 191.2458)" class="st4 st0 st3">A</text>
</g>
<g id="ID000012_00000147906658684429368180000008047710875734042022_">
	<text transform="matrix(0.9999 1.570652e-02 -1.570652e-02 0.9999 582.6271 232.351)" class="st4 st0 st3">A</text>
</g>
<g id="ID000012_00000038393519729836916700000003720723836672754057_">
	<text transform="matrix(0.9999 1.570652e-02 -1.570652e-02 0.9999 491.798 77.6319)" class="st4 st0 st3">A</text>
</g>
<g id="ID000012_00000139980042973744106400000014518167469960837563_">
	<text transform="matrix(0.9999 1.570652e-02 -1.570652e-02 0.9999 473.7004 240.0683)" class="st4 st0 st3">A</text>
</g>
<g id="ID000012_00000007427726896780468570000007379846958977883042_">
	<text transform="matrix(0.9999 1.570652e-02 -1.570652e-02 0.9999 483.7566 250.5838)" class="st4 st0 st3">A</text>
</g>
<g id="ID000012_00000080164849890602282340000001385771867523368103_">
	<text transform="matrix(0.9999 1.570652e-02 -1.570652e-02 0.9999 491.798 57.8672)" class="st4 st0 st3">A</text>
</g>
<g id="ID000012_00000168807620601593704270000006252177654165165952_">
	<text transform="matrix(0.9999 1.570652e-02 -1.570652e-02 0.9999 541.286 40.7528)" class="st4 st0 st3">A</text>
</g>
<g id="ID000012_00000074417421649161880400000018402079233908837823_">
	<text transform="matrix(0.9999 1.570652e-02 -1.570652e-02 0.9999 553.7816 77.6317)" class="st4 st0 st3">A</text>
</g>
<g id="ID000012_00000103967645952971461840000017603305171440670377_">
	<text transform="matrix(0.9999 1.570652e-02 -1.570652e-02 0.9999 553.7819 57.8668)" class="st4 st0 st3">A</text>
</g>
<g id="ID000012_00000173871055422182794950000002079122523625100723_">
	<text transform="matrix(0.9999 1.570652e-02 -1.570652e-02 0.9999 522.3862 27.7495)" class="st4 st0 st3">A</text>
</g>
<g id="ID000012_00000082353647280204452290000012685698494106059414_">
	<text transform="matrix(0.9999 1.570652e-02 -1.570652e-02 0.9999 411.3429 222.2113)" class="st5 st0 st3">U</text>
</g>
<g id="ID000012_00000096045611982564775240000006244056760855400323_">
	<text transform="matrix(0.9999 1.570652e-02 -1.570652e-02 0.9999 188.7369 224.9691)" class="st5 st0 st3">U</text>
</g>
<g id="ID000012_00000128477645211230180060000013914535679228930238_">
	<text transform="matrix(0.9999 1.570652e-02 -1.570652e-02 0.9999 316.0729 192.9828)" class="st5 st0 st3">U</text>
</g>
<g id="ID000012_00000106110097243124326750000010297025148296731809_">
	<text transform="matrix(0.9999 1.570652e-02 -1.570652e-02 0.9999 335.1315 192.7465)" class="st5 st0 st3">U</text>
</g>
<g id="ID000012_00000146501438331710664160000007063352649551110328_">
	<text transform="matrix(0.9999 1.570652e-02 -1.570652e-02 0.9999 402.9814 75.7289)" class="st4 st0 st3">U</text>
</g>
<g id="ID000012_00000124862926364769814560000003017154155727080094_">
	<text transform="matrix(0.9999 1.570652e-02 -1.570652e-02 0.9999 413.1338 97.4872)" class="st4 st0 st3">U</text>
</g>
<g id="ID000012_00000048499909563662482270000012652416764521858235_">
	<text transform="matrix(0.9999 1.570652e-02 -1.570652e-02 0.9999 230.5069 124.8385)" class="st4 st0 st3">U</text>
</g>
<g id="ID000012_00000029019563798569252500000002649926104508290745_">
	<text transform="matrix(0.9999 1.570652e-02 -1.570652e-02 0.9999 199.5444 146.3528)" class="st4 st0 st3">U</text>
</g>
<g id="ID000012_00000093871016117578977290000012676829185224800654_">
	<text transform="matrix(0.9999 1.570652e-02 -1.570652e-02 0.9999 267.4911 86.7957)" class="st2 st0 st3">G</text>
</g>
<g id="ID000012_00000042014447992952428390000011462974102182404528_">
	<text transform="matrix(0.9999 1.570652e-02 -1.570652e-02 0.9999 187.7784 195.1329)" class="st5 st0 st3">G</text>
</g>
<g id="ID000012_00000098941476960349665630000014624801992627879077_">
	<text transform="matrix(0.9999 1.570652e-02 -1.570652e-02 0.9999 429.3996 221.9877)" class="st5 st0 st3">U</text>
</g>
<g id="ID000012_00000108988098042604774470000009732027818259498652_">
	<text transform="matrix(0.9999 1.570652e-02 -1.570652e-02 0.9999 527.0639 259.8285)" class="st6 st0 st3">U</text>
</g>
<g id="ID000012_00000087410321717118434090000004292947926885038250_">
	<text transform="matrix(0.9999 1.570652e-02 -1.570652e-02 0.9999 555.7701 300.0638)" class="st6 st0 st3">U</text>
</g>
<g id="ID000012_00000061460748910076666660000000905632655508522130_">
	<text transform="matrix(0.9999 1.570652e-02 -1.570652e-02 0.9999 428.4425 192.1519)" class="st5 st0 st3">G</text>
</g>
<g id="ID000012_00000152956244489376356550000016062129415075494047_">
	<text transform="matrix(0.9999 1.570652e-02 -1.570652e-02 0.9999 296.7135 193.7843)" class="st5 st0 st3">G</text>
</g>
<g id="ID000012_00000042706047354435046010000001514148733059507856_">
	<text transform="matrix(0.9999 1.570652e-02 -1.570652e-02 0.9999 334.9289 223.7203)" class="st5 st0 st3">G</text>
</g>
<g id="ID000012_00000183968858526262581880000015982693414547084975_">
	<text transform="matrix(0.9999 1.570652e-02 -1.570652e-02 0.9999 285.4324 86.5736)" class="st2 st0 st3">G</text>
</g>
<g id="ID000012_00000036251742989430701230000011125545602058540193_">
	<text transform="matrix(0.9999 1.570652e-02 -1.570652e-02 0.9999 206.8019 225.3067)" class="st5 st0 st3">G</text>
</g>
<g id="ID000012_00000034773173466188759930000001961716681531748796_">
	<text transform="matrix(0.9999 1.570652e-02 -1.570652e-02 0.9999 187.7776 176.6979)" class="st4 st0 st3">G</text>
</g>
<g id="ID000012_00000077322035436537321220000016325013725979344054_">
	<text transform="matrix(0.9999 1.570555e-02 -1.570555e-02 0.9999 304.2139 86.3451)" class="st2 st0 st3">G</text>
</g>
<g id="ID000012_00000094613475685443247000000002878384736029451710_">
	<text transform="matrix(0.9999 1.570652e-02 -1.570652e-02 0.9999 346.4677 85.818)" class="st2 st0 st3">G</text>
</g>
<g id="ID000012_00000085943371460680216140000005932345951330783676_">
	<text transform="matrix(0.9999 1.570652e-02 -1.570652e-02 0.9999 304.5709 115.6301)" class="st2 st0 st3">G</text>
</g>
<g id="ID000012_00000170982791038403875100000004728156430366961050_">
	<text transform="matrix(0.9999 1.570652e-02 -1.570652e-02 0.9999 347.411 114.5375)" class="st2 st0 st3">C</text>
</g>
<g id="ID000012_00000145740116174098186920000016127961477812618174_">
	<text transform="matrix(0.9999 1.570652e-02 -1.570652e-02 0.9999 286.3759 115.2934)" class="st2 st0 st3">C</text>
</g>
<g id="ID000012_00000060031480957553234700000001475188418916410791_">
	<text transform="matrix(0.9999 1.570652e-02 -1.570652e-02 0.9999 268.4364 115.5155)" class="st2 st0 st3">C</text>
</g>
<g id="ID000012_00000018229117757912820790000002265678235927235764_">
	<text transform="matrix(0.9999 1.570652e-02 -1.570652e-02 0.9999 297.6711 223.6195)" class="st5 st0 st3">C</text>
</g>
<g id="ID000012_00000162319315841853678010000001147191167837061011_">
	<text transform="matrix(0.9999 1.570652e-02 -1.570652e-02 0.9999 446.1747 191.9337)" class="st5 st0 st3">G</text>
</g>
<g id="ID000012_00000074407775032738523320000006931889348513986981_">
	<text transform="matrix(0.9999 1.570652e-02 -1.570652e-02 0.9999 447.1317 221.7694)" class="st5 st0 st3">C</text>
</g>
<g id="ID000012_00000051371937134520492680000013435247981000366221_">
	<text transform="matrix(0.9999 1.570652e-02 -1.570652e-02 0.9999 390.0146 192.628)" class="st5 st0 st3">G</text>
</g>
<g id="ID000012_00000101800537264266088800000014739217833304967318_">
	<text transform="matrix(0.9999 1.570652e-02 -1.570652e-02 0.9999 390.9699 222.4643)" class="st5 st0 st3">C</text>
</g>
<g id="ID000012_00000139261976799858268630000012072642026526382758_">
	<text transform="matrix(0.9999 1.570652e-02 -1.570652e-02 0.9999 207.0026 194.3334)" class="st5 st0 st3">C</text>
</g>
<g id="ID000012_00000108299291471968519220000012372013138808590739_">
	<text transform="matrix(0.9999 1.570652e-02 -1.570652e-02 0.9999 223.3229 225.1026)" class="st5 st0 st3">G</text>
</g>
<g id="ID000012_00000069379720476724094530000002189433474120831113_">
	<text transform="matrix(0.9999 1.570652e-02 -1.570652e-02 0.9999 223.5265 194.1283)" class="st5 st0 st3">C</text>
</g>
<g id="ID000012_00000171689038546232096120000010269250086627863689_">
	<text transform="matrix(0.9999 1.570652e-02 -1.570652e-02 0.9999 463.9948 222.1227)" class="st5 st0 st3">G</text>
</g>
<g id="ID000012_00000016053795274553098160000003787188113112400558_">
	<text transform="matrix(0.9999 1.570652e-02 -1.570652e-02 0.9999 506.3529 127.5863)" class="st7 st0 st3">G</text>
</g>
<g id="ID000012_00000057138652914888409500000000394489562603460485_">
	<text transform="matrix(0.9999 1.570652e-02 -1.570652e-02 0.9999 580.0052 170.6651)" class="st4 st0 st3">G</text>
</g>
<g id="ID000012_00000153706260754761126190000000139124760446151869_">
	<text transform="matrix(0.9999 1.570652e-02 -1.570652e-02 0.9999 535.0586 110.1739)" class="st7 st0 st3">G</text>
</g>
<g id="ID000012_00000013890676483921731570000004393029308380572045_">
	<text transform="matrix(0.9999 1.570652e-02 -1.570652e-02 0.9999 568.3511 248.1157)" class="st4 st0 st3">G</text>
</g>
<g id="ID000012_00000120554500352052206650000000491639045032136081_">
	<text transform="matrix(0.9999 1.570652e-02 -1.570652e-02 0.9999 555.77 281.1572)" class="st6 st0 st3">G</text>
</g>
<g id="ID000012_00000063627376978890872580000001103020912242174345_">
	<text transform="matrix(0.9999 1.570652e-02 -1.570652e-02 0.9999 464.196 191.1488)" class="st5 st0 st3">C</text>
</g>
<g id="ID000012_00000140015823732727061290000010248352135233631105_">
	<text transform="matrix(0.9999 1.570652e-02 -1.570652e-02 0.9999 500.2344 259.8283)" class="st4 st0 st3">C</text>
</g>
<g id="ID000012_00000088831173149355865700000003725408496299510151_">
	<text transform="matrix(0.9999 1.570652e-02 -1.570652e-02 0.9999 535.0586 127.5864)" class="st7 st0 st3">C</text>
</g>
<g id="ID000012_00000032623869607821234020000016145716106669677748_">
	<text transform="matrix(0.9999 1.570652e-02 -1.570652e-02 0.9999 589.2073 214.3215)" class="st4 st0 st3">C</text>
</g>
<g id="ID000012_00000104698238641154728300000011932661654162722944_">
	<text transform="matrix(0.9999 1.570652e-02 -1.570652e-02 0.9999 527.0642 281.1574)" class="st6 st0 st3">C</text>
</g>
<g id="ID000012_00000098180283876042639580000014964772749228717953_">
	<text transform="matrix(0.9999 1.570652e-02 -1.570652e-02 0.9999 555.77 317.8631)" class="st6 st0 st3">G</text>
</g>
<g id="ID000012_00000106127499669038689730000005397065448092983984_">
	<text transform="matrix(0.9999 1.570652e-02 -1.570652e-02 0.9999 580.0054 366.9374)" class="st4 st0 st3">G</text>
</g>
<g id="ID000012_00000011740712671667245790000005576674467407320214_">
	<text transform="matrix(0.9999 1.570652e-02 -1.570652e-02 0.9999 527.0639 336.7378)" class="st6 st0 st3">G</text>
</g>
<g id="ID000012_00000149357246516990739680000011753842263725841338_">
	<text transform="matrix(0.9999 1.570652e-02 -1.570652e-02 0.9999 501.7969 366.9368)" class="st4 st0 st3">G</text>
</g>
<g id="ID000012_00000075877878891236984490000009823210730239050672_">
	<text transform="matrix(0.9999 1.570652e-02 -1.570652e-02 0.9999 527.0642 317.8633)" class="st6 st0 st3">C</text>
</g>
<g id="ID000012_00000132782416279882973580000009709456823462453415_">
	<text transform="matrix(0.9999 1.570652e-02 -1.570652e-02 0.9999 557.4172 336.7374)" class="st6 st0 st3">C</text>
</g>
<g id="ID000012_00000165914689751894940430000012565533114979281830_">
	<text transform="matrix(0.9999 1.570652e-02 -1.570652e-02 0.9999 557.4174 397.697)" class="st4 st0 st3">C</text>
</g>
<g id="ID000012_00000108273005655672490250000007096422831874343315_">
	<text transform="matrix(0.9999 1.570652e-02 -1.570652e-02 0.9999 569.8876 351.3256)" class="st4 st0 st3">C</text>
</g>
<g id="ID000012_00000029006538937819155890000018042497186956070591_">
	<text transform="matrix(0.9999 1.570652e-02 -1.570652e-02 0.9999 506.3527 92.5177)" class="st7 st0 st3">G</text>
</g>
<g id="ID000012_00000015320435917228437070000013844552866502177680_">
	<text transform="matrix(0.9999 1.570652e-02 -1.570652e-02 0.9999 535.0582 92.5177)" class="st7 st0 st3">C</text>
</g>
<g id="ID000012_00000077308356304417334780000015179117859994438787_">
	<text transform="matrix(0.9999 1.570652e-02 -1.570652e-02 0.9999 500.2349 40.753)" class="st4 st0 st3">C</text>
</g>
<g id="ID000012_00000027563465078529704550000002117101004447344548_">
	<text transform="matrix(0.9999 1.570652e-02 -1.570652e-02 0.9999 506.3529 110.174)" class="st7 st0 st3">C</text>
</g>
<g id="ID000012_00000130636021344480401030000004726089050192241038_">
	<text transform="matrix(0.9999 1.570652e-02 -1.570652e-02 0.9999 488.4709 155.9962)" class="st4 st0 st3">C</text>
</g>
<g id="ID000012_00000137111413527253027300000015038988117469765262_">
	<text transform="matrix(0.9999 1.570652e-02 -1.570652e-02 0.9999 501.7965 143.0828)" class="st4 st0 st3">C</text>
</g>
<g id="ID000012_00000152262160270300940790000011223447700793646251_">
	<text transform="matrix(0.9999 1.570652e-02 -1.570652e-02 0.9999 354.151 223.482)" class="st5 st0 st3">G</text>
</g>
<g id="ID000012_00000047027115778384056890000011201027173828758191_">
	<text transform="matrix(0.9999 1.570652e-02 -1.570652e-02 0.9999 354.3542 192.5082)" class="st5 st0 st3">C</text>
</g>
<g id="ID000012_00000086651932212816375380000010412926107346091429_">
	<text transform="matrix(0.9999 1.570652e-02 -1.570652e-02 0.9999 227.7842 175.7699)" class="st4 st0 st3">C</text>
</g>
<g id="ID000012_00000178201871808482800580000002443743831421055873_">
	<text transform="matrix(0.9999 1.570652e-02 -1.570652e-02 0.9999 264.9402 175.31)" class="st4 st0 st3">C</text>
</g>
<g id="ID000012_00000098212293396104246420000005547743997277035433_">
	<text transform="matrix(0.9999 1.570652e-02 -1.570652e-02 0.9999 250.1758 224.969)" class="st4 st0 st3">C</text>
</g>
<g id="ID000012_00000096745791195383015870000011442429498617723294_">
	<text transform="matrix(0.9999 1.570666e-02 -1.570666e-02 0.9999 403.5657 122.6964)" class="st4 st0 st3">C</text>
</g>
<g id="ID000012_00000013159476087087596680000012455661933993577112_">
	<text transform="matrix(0.9999 1.570652e-02 -1.570652e-02 0.9999 210.3683 130.735)" class="st4 st0 st3">C</text>
</g>
<g id="ID000018_00000104707097969389953970000009088350760481935533_">
	<text transform="matrix(0.9998 1.779470e-02 -1.779470e-02 0.9998 250.1764 77.6315)" class="st0 st8">5’</text>
</g>
<g id="ID000018_00000074432191412392947320000007456582386398894230_">
	<text transform="matrix(0.9998 1.779470e-02 -1.779470e-02 0.9998 418.1402 132.8572)" class="st0 st9">10</text>
</g>
<g id="ID000018_00000057848635540924979290000005587213198832862380_">
	<text transform="matrix(0.9998 1.779470e-02 -1.779470e-02 0.9998 181.6145 127.5859)" class="st0 st9">20</text>
</g>
<g id="ID000018_00000087408530048357999920000002682401390958191505_">
	<text transform="matrix(0.9998 1.779470e-02 -1.779470e-02 0.9998 287.6143 164.1544)" class="st0 st9">30</text>
</g>
<g id="ID000018_00000157989787038522224300000000827460235114090368_">
	<text transform="matrix(0.9998 1.779470e-02 -1.779470e-02 0.9998 446.1753 162.2957)" class="st0 st8">40</text>
</g>
<g id="ID000018_00000170269734257665548990000010129803433348538771_">
	<text transform="matrix(0.9998 1.779470e-02 -1.779470e-02 0.9998 563.9005 23.2553)" class="st0 st9">50</text>
</g>
<g id="ID000018_00000026863701441625556750000012940283768842799801_">
	<text transform="matrix(0.9998 1.779470e-02 -1.779470e-02 0.9998 619.5714 187.5154)" class="st0 st9">60</text>
</g>
<g id="ID000018_00000129195787454495755230000016770548904851610021_">
	<text transform="matrix(0.9998 1.779470e-02 -1.779470e-02 0.9998 617.0901 368.8469)" class="st0 st9">70</text>
</g>
<g id="ID000018_00000135679835746443086130000013241126173965745806_">
	<text transform="matrix(0.9998 1.779470e-02 -1.779470e-02 0.9998 491.7982 300.064)" class="st0 st9">80</text>
</g>
<g id="ID000018_00000050656357744263054860000004168672226813666452_">
	<text transform="matrix(0.9998 1.779470e-02 -1.779470e-02 0.9998 390.0136 250.5836)" class="st0 st9">90</text>
</g>
<g id="ID000018_00000158708764108149700550000009103583200380217021_">
	<text transform="matrix(0.9998 1.779470e-02 -1.779470e-02 0.9998 185.0219 252.1412)" class="st0 st9">100</text>
</g>
<g id="ID000018_00000054229788772175650710000009096838164884966548_">
	<text transform="matrix(0.9998 1.779470e-02 -1.779470e-02 0.9998 166.2313 234.2114)" class="st0 st8">3’</text>
</g>
<line class="st10" x1="276.5" y1="97.5" x2="276.5" y2="89.1"/>
<line class="st10" x1="215.5" y1="208.3" x2="215.5" y2="199.9"/>
<line class="st10" x1="231.5" y1="208.3" x2="231.5" y2="199.9"/>
<line class="st10" x1="196.7" y1="208.3" x2="196.7" y2="199.9"/>
<line class="st10" x1="304.6" y1="206.7" x2="304.6" y2="195.1"/>
<line class="st10" x1="324" y1="206.7" x2="324" y2="195.1"/>
<line class="st10" x1="285.4" y1="206.7" x2="285.4" y2="195.1"/>
<line class="st10" x1="363.1" y1="206.7" x2="363.1" y2="195.1"/>
<line class="st10" x1="380.3" y1="206.7" x2="380.3" y2="195.1"/>
<line class="st10" x1="342.9" y1="206.7" x2="342.9" y2="195.1"/>
<line class="st10" x1="418.1" y1="206.7" x2="418.1" y2="195.1"/>
<line class="st10" x1="454.4" y1="206.7" x2="454.4" y2="195.1"/>
<line class="st10" x1="473.7" y1="206.7" x2="473.7" y2="195.1"/>
<line class="st10" x1="534.3" y1="121.2" x2="522.7" y2="121.2"/>
<line class="st10" x1="555" y1="253.5" x2="543.4" y2="253.5"/>
<line class="st10" x1="555" y1="294.1" x2="543.4" y2="294.1"/>
<line class="st10" x1="555" y1="311.3" x2="543.4" y2="311.3"/>
<line class="st10" x1="556.2" y1="328.6" x2="544.6" y2="328.6"/>
<line class="st10" x1="555" y1="273.8" x2="543.4" y2="273.8"/>
<line class="st10" x1="534.3" y1="104" x2="522.7" y2="104"/>
<line class="st10" x1="534.6" y1="85.8" x2="523.1" y2="85.8"/>
<line class="st10" x1="437.2" y1="206.7" x2="437.2" y2="195.1"/>
<line class="st10" x1="397.9" y1="206.7" x2="397.9" y2="195.1"/>
<line class="st10" x1="294" y1="97.5" x2="294" y2="89.1"/>
<line class="st10" x1="334.9" y1="97.5" x2="334.9" y2="89.1"/>
<line class="st10" x1="355.3" y1="97.5" x2="355.3" y2="89.1"/>
<line class="st10" x1="199.5" y1="139.9" x2="192.4" y2="130.7"/>
<line class="st10" x1="289.8" y1="178.1" x2="294" y2="167.3"/>
<line class="st10" x1="400" y1="235.5" x2="400" y2="223.9"/>
<line class="st10" x1="196.7" y1="238.2" x2="196.7" y2="226.6"/>
<line class="st10" x1="466.6" y1="175.9" x2="461.8" y2="165.4"/>
<line class="st10" x1="555.7" y1="32" x2="563.6" y2="23.5"/>
<line class="st10" x1="605.8" y1="185.3" x2="617.1" y2="182.8"/>
<line class="st10" x1="612.9" y1="361.9" x2="598.6" y2="361.7"/>
<line class="st10" x1="512.6" y1="294" x2="524.2" y2="294.2"/>
</svg>
