<?xml version="1.0" encoding="utf-8"?>
<!-- Generator: Adobe Illustrator 25.2.0, SVG Export Plug-In . SVG Version: 6.00 Build 0)  -->
<svg version="1.1" id="图层_1" xmlns="http://www.w3.org/2000/svg" xmlns:xlink="http://www.w3.org/1999/xlink" x="0px" y="0px"
	 viewBox="0 0 800 400" style="enable-background:new 0 0 800 400;" xml:space="preserve">
<style type="text/css">
	.st0{fill:#17BECF;}
	.st1{font-family:'ArialMT';}
	.st2{font-size:19.6312px;}
	.st3{fill:#FF7F0E;}
	.st4{fill:none;stroke:#000000;stroke-width:0.1298;stroke-miterlimit:1.0381;}
	.st5{fill:#2CA02C;}
	.st6{stroke:#000000;stroke-width:0.1298;stroke-miterlimit:1.0381;}
	.st7{fill:#D62728;}
	.st8{fill:#9467BD;}
	.st9{font-size:20px;}
</style>
<g id="ID000002">
	<g transform="translate(711.056,574.585)">
		<g transform="rotate(-0.0)">
			<text transform="matrix(1 0 0 1 -357.9425 -305.3593)" class="st0 st1 st2">G</text>
		</g>
	</g>
</g>
<g id="ID000003">
	<g transform="translate(672.052,555.083)">
		<g transform="rotate(-0.0)">
			<text transform="matrix(1 0 0 1 -338.5723 -295.6737)" class="st0 st1 st2">G</text>
		</g>
	</g>
</g>
<g id="ID000004">
	<g transform="translate(633.049,535.581)">
		<g transform="rotate(-0.0)">
			<text transform="matrix(1 0 0 1 -319.2011 -285.9881)" class="st0 st1 st2">G</text>
		</g>
	</g>
</g>
<g id="ID000005">
	<g transform="translate(603.796,516.079)">
		<g transform="rotate(-0.0)">
			<text transform="matrix(1 0 0 1 -304.1268 -276.3044)" class="st0 st1 st2">C</text>
		</g>
	</g>
</g>
<g id="ID000006">
	<g transform="translate(564.793,496.578)">
		<g transform="rotate(-0.0)">
			<text transform="matrix(1 0 0 1 -285.3035 -266.6179)" class="st0 st1 st2">G</text>
		</g>
	</g>
</g>
<g id="ID000007">
	<g transform="translate(525.789,477.076)">
		<g transform="rotate(-0.0)">
			<text transform="matrix(1 0 0 1 -264.8444 -256.9328)" class="st0 st1 st2">A</text>
		</g>
	</g>
</g>
<g id="ID000008">
	<g transform="translate(486.786,457.574)">
		<g transform="rotate(-0.0)">
			<text transform="matrix(1 0 0 1 -245.4733 -247.2482)" class="st0 st1 st2">A</text>
		</g>
	</g>
</g>
<g id="ID000009">
	<g transform="translate(447.783,457.574)">
		<g transform="rotate(-0.0)">
			<text transform="matrix(1 0 0 1 -226.646 -247.2482)" class="st3 st1 st2">U</text>
		</g>
	</g>
</g>
<g id="ID000010">
	<g transform="translate(408.779,457.574)">
		<g transform="rotate(-0.0)">
			<text transform="matrix(1 0 0 1 -207.2739 -247.2482)" class="st3 st1 st2">U</text>
		</g>
	</g>
</g>
<g id="ID000011">
	<g transform="translate(369.776,457.574)">
		<g transform="rotate(-0.0)">
			<text transform="matrix(1 0 0 1 -187.9047 -247.2482)" class="st3 st1 st2">C</text>
		</g>
	</g>
</g>
<g id="ID000012">
	<line class="st4" x1="189" y1="214.6" x2="189" y2="227.7"/>
</g>
<g id="ID000013">
	<g transform="translate(369.776,538.051)">
		<g transform="rotate(-0.0)">
			<text transform="matrix(1 0 0 1 -191.7328 -287.214)" class="st1 st2">10</text>
		</g>
	</g>
</g>
<g id="ID000014">
	<g transform="translate(330.772,457.574)">
		<g transform="rotate(-0.0)">
			<text transform="matrix(1 0 0 1 -168.5325 -247.2482)" class="st3 st1 st2">C</text>
		</g>
	</g>
</g>
<g id="ID000015">
	<g transform="translate(291.769,457.574)">
		<g transform="rotate(-0.0)">
			<text transform="matrix(1 0 0 1 -149.7092 -247.2482)" class="st3 st1 st2">G</text>
		</g>
	</g>
</g>
<g id="ID000016">
	<g transform="translate(252.766,457.574)">
		<g transform="rotate(-0.0)">
			<text transform="matrix(1 0 0 1 -129.7931 -247.2482)" class="st3 st1 st2">C</text>
		</g>
	</g>
</g>
<g id="ID000017">
	<g transform="translate(213.762,457.574)">
		<g transform="rotate(-0.0)">
			<text transform="matrix(1 0 0 1 -110.9678 -247.2482)" class="st0 st1 st2">G</text>
		</g>
	</g>
</g>
<g id="ID000018">
	<g transform="translate(174.759,457.574)">
		<g transform="rotate(-0.0)">
			<text transform="matrix(1 0 0 1 -91.0517 -247.2482)" class="st0 st1 st2">U</text>
		</g>
	</g>
</g>
<g id="ID000019">
	<g transform="translate(135.755,457.574)">
		<g transform="rotate(-0.0)">
			<text transform="matrix(1 0 0 1 -72.2274 -247.2482)" class="st0 st1 st2">G</text>
		</g>
	</g>
</g>
<g id="ID000020">
	<g transform="translate(96.752,457.574)">
		<g transform="rotate(-0.0)">
			<text transform="matrix(1 0 0 1 -52.3103 -247.2482)" class="st0 st1 st2">U</text>
		</g>
	</g>
</g>
<g id="ID000021">
	<g transform="translate(57.749,457.574)">
		<g transform="rotate(-0.0)">
			<text transform="matrix(1 0 0 1 -33.487 -247.2482)" class="st0 st1 st2">G</text>
		</g>
	</g>
</g>
<g id="ID000022">
	<g transform="translate(28.496,418.571)">
		<g transform="rotate(-0.0)">
			<text transform="matrix(1 0 0 1 -18.4127 -227.877)" class="st0 st1 st2">C</text>
		</g>
	</g>
</g>
<g id="ID000023">
	<g transform="translate(57.749,379.567)">
		<g transform="rotate(-0.0)">
			<text transform="matrix(1 0 0 1 -32.9392 -208.5068)" class="st0 st1 st2">U</text>
		</g>
	</g>
</g>
<g id="ID000024">
	<line class="st4" x1="31.9" y1="149.2" x2="31.9" y2="136.1"/>
</g>
<g id="ID000025">
	<g transform="translate(57.749,300.261)">
		<g transform="rotate(-0.0)">
			<text transform="matrix(1 0 0 1 -36.7693 -169.1198)" class="st1 st2">20</text>
		</g>
	</g>
</g>
<g id="ID000026">
	<g transform="translate(96.752,379.567)">
		<g transform="rotate(-0.0)">
			<text transform="matrix(1 0 0 1 -52.8562 -208.5068)" class="st0 st1 st2">G</text>
		</g>
	</g>
</g>
<g id="ID000027">
	<g transform="translate(135.755,379.567)">
		<g transform="rotate(-0.0)">
			<text transform="matrix(1 0 0 1 -71.1395 -208.5068)" class="st0 st1 st2">A</text>
		</g>
	</g>
</g>
<g id="ID000028">
	<g transform="translate(174.759,379.567)">
		<g transform="rotate(-0.0)">
			<text transform="matrix(1 0 0 1 -91.5976 -208.5068)" class="st0 st1 st2">G</text>
		</g>
	</g>
</g>
<g id="ID000029">
	<g transform="translate(213.762,379.567)">
		<g transform="rotate(-0.0)">
			<text transform="matrix(1 0 0 1 -110.9678 -208.5068)" class="st0 st1 st2">G</text>
		</g>
	</g>
</g>
<g id="ID000030">
	<g transform="translate(252.766,379.567)">
		<g transform="rotate(-0.0)">
			<text transform="matrix(1 0 0 1 -130.338 -208.5068)" class="st3 st1 st2">G</text>
		</g>
	</g>
</g>
<g id="ID000031">
	<g transform="translate(291.769,379.567)">
		<g transform="rotate(-0.0)">
			<text transform="matrix(1 0 0 1 -149.1633 -208.5068)" class="st3 st1 st2">C</text>
		</g>
	</g>
</g>
<g id="ID000032">
	<g transform="translate(330.772,379.567)">
		<g transform="rotate(-0.0)">
			<text transform="matrix(1 0 0 1 -169.0803 -208.5068)" class="st3 st1 st2">G</text>
		</g>
	</g>
</g>
<g id="ID000033">
	<g transform="translate(369.776,379.567)">
		<g transform="rotate(-0.0)">
			<text transform="matrix(1 0 0 1 -188.4506 -208.5068)" class="st3 st1 st2">G</text>
		</g>
	</g>
</g>
<g id="ID000034">
	<g transform="translate(408.779,379.567)">
		<g transform="rotate(-0.0)">
			<text transform="matrix(1 0 0 1 -206.7319 -208.5068)" class="st3 st1 st2">A</text>
		</g>
	</g>
</g>
<g id="ID000035">
	<g transform="translate(447.783,379.567)">
		<g transform="rotate(-0.0)">
			<text transform="matrix(1 0 0 1 -226.104 -208.5068)" class="st3 st1 st2">A</text>
		</g>
	</g>
</g>
<g id="ID000036">
	<line class="st4" x1="228.3" y1="149.2" x2="228.3" y2="136.1"/>
</g>
<g id="ID000037">
	<g transform="translate(447.783,300.261)">
		<g transform="rotate(-0.0)">
			<text transform="matrix(1 0 0 1 -230.4741 -169.1198)" class="st1 st2">30</text>
		</g>
	</g>
</g>
<g id="ID000038">
	<g transform="translate(486.786,360.066)">
		<g transform="rotate(-0.0)">
			<text transform="matrix(1 0 0 1 -246.5621 -198.8213)" class="st0 st1 st2">G</text>
		</g>
	</g>
</g>
<g id="ID000039">
	<g transform="translate(525.789,330.813)">
		<g transform="rotate(-0.0)">
			<text transform="matrix(1 0 0 1 -264.8444 -184.2938)" class="st0 st1 st2">A</text>
		</g>
	</g>
</g>
<g id="ID000040">
	<g transform="translate(555.042,301.561)">
		<g transform="rotate(-0.0)">
			<text transform="matrix(1 0 0 1 -279.3728 -169.7664)" class="st0 st1 st2">A</text>
		</g>
	</g>
</g>
<g id="ID000041">
	<g transform="translate(584.295,282.059)">
		<g transform="rotate(-0.0)">
			<text transform="matrix(1 0 0 1 -294.4412 -160.0799)" class="st0 st1 st2">C</text>
		</g>
	</g>
</g>
<g id="ID000042">
	<g transform="translate(613.547,262.557)">
		<g transform="rotate(-0.0)">
			<text transform="matrix(1 0 0 1 -308.9686 -150.3943)" class="st0 st1 st2">U</text>
		</g>
	</g>
</g>
<g id="ID000043">
	<g transform="translate(652.551,243.056)">
		<g transform="rotate(-0.0)">
			<text transform="matrix(1 0 0 1 -327.7988 -140.7107)" class="st0 st1 st2">A</text>
		</g>
	</g>
</g>
<g id="ID000044">
	<line class="st4" x1="228.3" y1="193.7" x2="228.3" y2="170.1"/>
</g>
<g id="ID000045">
	<line class="st4" x1="208.6" y1="193.7" x2="208.6" y2="170.1"/>
</g>
<g id="ID000046">
	<line class="st4" x1="189" y1="193.7" x2="189" y2="170.1"/>
</g>
<g id="ID000047">
	<line class="st4" x1="169.4" y1="193.7" x2="169.4" y2="170.1"/>
</g>
<g id="ID000048">
	<line class="st4" x1="149.7" y1="193.7" x2="149.7" y2="170.1"/>
</g>
<g id="ID000049">
	<line class="st4" x1="130.1" y1="193.7" x2="130.1" y2="170.1"/>
</g>
<g id="ID000051">
	<g transform="translate(691.554,243.056)">
		<g transform="rotate(-0.0)">
			<text transform="matrix(1 0 0 1 -347.168 -140.7107)" class="st0 st1 st2">A</text>
		</g>
	</g>
</g>
<g id="ID000052">
	<g transform="translate(720.807,262.557)">
		<g transform="rotate(-0.0)">
			<text transform="matrix(1 0 0 1 -362.2384 -150.3943)" class="st0 st1 st2">U</text>
		</g>
	</g>
</g>
<g id="ID000053">
	<g transform="translate(759.810,282.059)">
		<g transform="rotate(-0.0)">
			<text transform="matrix(1 0 0 1 -381.6096 -160.0799)" class="st0 st1 st2">U</text>
		</g>
	</g>
</g>
<g id="ID000054">
	<g transform="translate(798.813,301.561)">
		<g transform="rotate(-0.0)">
			<text transform="matrix(1 0 0 1 -400.9788 -169.7664)" class="st0 st1 st2">U</text>
		</g>
	</g>
</g>
<g id="ID000055">
	<line class="st4" x1="404.9" y1="109.9" x2="404.9" y2="96.8"/>
</g>
<g id="ID000056">
	<g transform="translate(798.813,222.254)">
		<g transform="rotate(-0.0)">
			<text transform="matrix(1 0 0 1 -404.8079 -130.3794)" class="st1 st2">40</text>
		</g>
	</g>
</g>
<g id="ID000057">
	<g transform="translate(828.066,330.813)">
		<g transform="rotate(-0.0)">
			<text transform="matrix(1 0 0 1 -416.054 -184.2938)" class="st0 st1 st2">G</text>
		</g>
	</g>
</g>
<g id="ID000058">
	<g transform="translate(867.069,369.817)">
		<g transform="rotate(-0.0)">
			<text transform="matrix(1 0 0 1 -435.4232 -203.664)" class="st5 st1 st2">G</text>
		</g>
	</g>
</g>
<g id="ID000059">
	<g transform="translate(906.073,369.817)">
		<g transform="rotate(-0.0)">
			<text transform="matrix(1 0 0 1 -454.7954 -203.664)" class="st5 st1 st2">G</text>
		</g>
	</g>
</g>
<g id="ID000060">
	<g transform="translate(945.076,369.817)">
		<g transform="rotate(-0.0)">
			<text transform="matrix(1 0 0 1 -473.0777 -203.664)" class="st5 st1 st2">A</text>
		</g>
	</g>
</g>
<g id="ID000061">
	<g transform="translate(984.080,369.817)">
		<g transform="rotate(-0.0)">
			<text transform="matrix(1 0 0 1 -492.9889 -203.664)" class="st5 st1 st2">C</text>
		</g>
	</g>
</g>
<g id="ID000062">
	<g transform="translate(1023.083,369.817)">
		<g transform="rotate(-0.0)">
			<text transform="matrix(1 0 0 1 -512.906 -203.664)" class="st5 st1 st2">G</text>
		</g>
	</g>
</g>
<g id="ID000063">
	<g transform="translate(1062.086,369.817)">
		<g transform="rotate(-0.0)">
			<text transform="matrix(1 0 0 1 -532.2772 -203.664)" class="st5 st1 st2">G</text>
		</g>
	</g>
</g>
<g id="ID000064">
	<g transform="translate(1101.090,369.817)">
		<g transform="rotate(-0.0)">
			<text transform="matrix(1 0 0 1 -550.5594 -203.664)" class="st5 st1 st2">A</text>
		</g>
	</g>
</g>
<g id="ID000065">
	<g transform="translate(1140.093,369.817)">
		<g transform="rotate(-0.0)">
			<text transform="matrix(1 0 0 1 -570.4707 -203.664)" class="st5 st1 st2">U</text>
		</g>
	</g>
</g>
<g id="ID000066">
	<g transform="translate(1159.595,340.564)">
		<g transform="rotate(-0.0)">
			<text transform="matrix(1 0 0 1 -580.1572 -189.1357)" class="st0 st1 st2">U</text>
		</g>
	</g>
</g>
<g id="ID000067">
	<line class="st4" x1="586.6" y1="129.5" x2="586.6" y2="116.4"/>
</g>
<g id="ID000068">
	<g transform="translate(1159.595,261.257)">
		<g transform="rotate(-0.0)">
			<text transform="matrix(1 0 0 1 -583.9853 -149.7495)" class="st1 st2">50</text>
		</g>
	</g>
</g>
<g id="ID000069">
	<g transform="translate(1140.093,447.823)">
		<g transform="rotate(-0.0)">
			<text transform="matrix(1 0 0 1 -571.0176 -242.4044)" class="st5 st1 st2">G</text>
		</g>
	</g>
</g>
<g id="ID000070">
	<g transform="translate(1101.090,447.823)">
		<g transform="rotate(-0.0)">
			<text transform="matrix(1 0 0 1 -551.1014 -242.4044)" class="st5 st1 st2">U</text>
		</g>
	</g>
</g>
<g id="ID000071">
	<line class="st4" x1="557.1" y1="209.7" x2="557.1" y2="222.8"/>
</g>
<g id="ID000072">
	<g transform="translate(1101.090,528.300)">
		<g transform="rotate(-0.0)">
			<text transform="matrix(1 0 0 1 -554.9315 -282.3731)" class="st1 st2">70</text>
		</g>
	</g>
</g>
<g id="ID000073">
	<g transform="translate(1062.086,447.823)">
		<g transform="rotate(-0.0)">
			<text transform="matrix(1 0 0 1 -531.7294 -242.4044)" class="st5 st1 st2">C</text>
		</g>
	</g>
</g>
<g id="ID000074">
	<g transform="translate(1023.083,447.823)">
		<g transform="rotate(-0.0)">
			<text transform="matrix(1 0 0 1 -512.3601 -242.4044)" class="st5 st1 st2">C</text>
		</g>
	</g>
</g>
<g id="ID000075">
	<g transform="translate(984.080,447.823)">
		<g transform="rotate(-0.0)">
			<text transform="matrix(1 0 0 1 -493.5368 -242.4044)" class="st5 st1 st2">G</text>
		</g>
	</g>
</g>
<g id="ID000076">
	<g transform="translate(945.076,447.823)">
		<g transform="rotate(-0.0)">
			<text transform="matrix(1 0 0 1 -473.6187 -242.4044)" class="st5 st1 st2">U</text>
		</g>
	</g>
</g>
<g id="ID000077">
	<g transform="translate(906.073,447.823)">
		<g transform="rotate(-0.0)">
			<text transform="matrix(1 0 0 1 -454.2485 -242.4044)" class="st5 st1 st2">U</text>
		</g>
	</g>
</g>
<g id="ID000078">
	<g transform="translate(867.069,447.823)">
		<g transform="rotate(-0.0)">
			<text transform="matrix(1 0 0 1 -434.8783 -242.4044)" class="st5 st1 st2">C</text>
		</g>
	</g>
</g>
<g id="ID000079">
	<g transform="translate(828.066,447.823)">
		<g transform="rotate(-0.0)">
			<text transform="matrix(1 0 0 1 -416.054 -242.4044)" class="st0 st1 st2">G</text>
		</g>
	</g>
</g>
<g id="ID000080">
	<g transform="translate(798.813,477.076)">
		<g transform="rotate(-0.0)">
			<text transform="matrix(1 0 0 1 -401.5256 -256.9328)" class="st0 st1 st2">G</text>
		</g>
	</g>
</g>
<g id="ID000081">
	<g transform="translate(769.561,496.578)">
		<g transform="rotate(-0.0)">
			<text transform="matrix(1 0 0 1 -386.9982 -266.6179)" class="st0 st1 st2">G</text>
		</g>
	</g>
</g>
<g id="ID000082">
	<line class="st4" x1="439.3" y1="165.2" x2="439.3" y2="188.7"/>
</g>
<g id="ID000083">
	<polygon class="st6" points="458.9,180.9 459.2,180.9 459.4,180.9 459.7,180.8 459.9,180.8 460.2,180.7 460.4,180.6 460.6,180.5 
		460.8,180.4 461.1,180.3 461.3,180.1 461.5,180 461.6,179.8 461.8,179.6 462,179.4 462.1,179.2 462.3,179 462.4,178.8 462.5,178.6 
		462.6,178.4 462.7,178.1 462.8,177.9 462.8,177.6 462.8,177.4 462.9,177.2 462.9,176.9 462.9,176.7 462.8,176.4 462.8,176.2 
		462.7,175.9 462.7,175.7 462.6,175.4 462.5,175.2 462.3,175 462.2,174.8 462.1,174.6 461.9,174.4 461.7,174.2 461.6,174 
		461.4,173.9 461.2,173.7 461,173.6 460.7,173.5 460.5,173.4 460.3,173.3 460,173.2 459.8,173.1 459.6,173.1 459.3,173.1 459.1,173 
		458.8,173 458.6,173.1 458.3,173.1 458.1,173.1 457.8,173.2 457.6,173.3 457.4,173.4 457.1,173.5 456.9,173.6 456.7,173.7 
		456.5,173.9 456.3,174 456.1,174.2 456,174.4 455.8,174.6 455.7,174.8 455.5,175 455.4,175.2 455.3,175.4 455.2,175.7 455.2,175.9 
		455.1,176.2 455.1,176.4 455,176.7 455,176.9 455,177.2 455,177.4 455.1,177.6 455.1,177.9 455.2,178.1 455.3,178.4 455.4,178.6 
		455.5,178.8 455.6,179 455.7,179.2 455.9,179.4 456.1,179.6 456.2,179.8 456.4,180 456.6,180.1 456.8,180.3 457,180.4 457.3,180.5 
		457.5,180.6 457.7,180.7 458,180.8 458.2,180.8 458.4,180.9 458.7,180.9 	"/>
</g>
<g id="ID000084">
	<line class="st4" x1="478.6" y1="165.2" x2="478.6" y2="188.7"/>
</g>
<g id="ID000085">
	<line class="st4" x1="498.2" y1="165.2" x2="498.2" y2="188.7"/>
</g>
<g id="ID000086">
	<line class="st4" x1="517.8" y1="165.2" x2="517.8" y2="188.7"/>
</g>
<g id="ID000087">
	<line class="st4" x1="537.5" y1="165.2" x2="537.5" y2="188.7"/>
</g>
<g id="ID000088">
	<line class="st4" x1="557.1" y1="165.2" x2="557.1" y2="188.7"/>
</g>
<g id="ID000089">
	<polygon class="st6" points="576.7,180.9 577,180.9 577.2,180.9 577.5,180.8 577.7,180.8 578,180.7 578.2,180.6 578.4,180.5 
		578.6,180.4 578.9,180.3 579.1,180.1 579.3,180 579.4,179.8 579.6,179.6 579.8,179.4 579.9,179.2 580.1,179 580.2,178.8 
		580.3,178.6 580.4,178.4 580.5,178.1 580.6,177.9 580.6,177.6 580.6,177.4 580.7,177.2 580.7,176.9 580.7,176.7 580.6,176.4 
		580.6,176.2 580.5,175.9 580.4,175.7 580.4,175.4 580.3,175.2 580.1,175 580,174.8 579.9,174.6 579.7,174.4 579.5,174.2 579.4,174 
		579.2,173.9 579,173.7 578.8,173.6 578.5,173.5 578.3,173.4 578.1,173.3 577.8,173.2 577.6,173.1 577.4,173.1 577.1,173.1 
		576.9,173 576.6,173 576.4,173.1 576.1,173.1 575.9,173.1 575.6,173.2 575.4,173.3 575.2,173.4 574.9,173.5 574.7,173.6 
		574.5,173.7 574.3,173.9 574.1,174 573.9,174.2 573.8,174.4 573.6,174.6 573.5,174.8 573.3,175 573.2,175.2 573.1,175.4 573,175.7 
		573,175.9 572.9,176.2 572.9,176.4 572.8,176.7 572.8,176.9 572.8,177.2 572.8,177.4 572.9,177.6 572.9,177.9 573,178.1 
		573.1,178.4 573.2,178.6 573.3,178.8 573.4,179 573.5,179.2 573.7,179.4 573.9,179.6 574,179.8 574.2,180 574.4,180.1 574.6,180.3 
		574.8,180.4 575,180.5 575.3,180.6 575.5,180.7 575.8,180.8 576,180.8 576.2,180.9 576.5,180.9 	"/>
</g>
<g id="ID000091">
	<g transform="translate(1188.848,369.817)">
		<g transform="rotate(-0.0)">
			<text transform="matrix(1 0 0 1 -595.2316 -203.664)" class="st7 st1 st2">G</text>
		</g>
	</g>
</g>
<g id="ID000092">
	<g transform="translate(1227.851,369.817)">
		<g transform="rotate(-0.0)">
			<text transform="matrix(1 0 0 1 -614.0547 -203.664)" class="st7 st1 st2">C</text>
		</g>
	</g>
</g>
<g id="ID000093">
	<g transform="translate(1266.854,350.315)">
		<g transform="rotate(-0.0)">
			<text transform="matrix(1 0 0 1 -633.9719 -193.9794)" class="st0 st1 st2">G</text>
		</g>
	</g>
</g>
<g id="ID000094">
	<g transform="translate(1266.854,467.325)">
		<g transform="rotate(-0.0)">
			<text transform="matrix(1 0 0 1 -633.9719 -252.089)" class="st0 st1 st2">G</text>
		</g>
	</g>
</g>
<g id="ID000095">
	<g transform="translate(1227.851,447.823)">
		<g transform="rotate(-0.0)">
			<text transform="matrix(1 0 0 1 -614.6006 -242.4044)" class="st7 st1 st2">G</text>
		</g>
	</g>
</g>
<g id="ID000096">
	<g transform="translate(1188.848,447.823)">
		<g transform="rotate(-0.0)">
			<text transform="matrix(1 0 0 1 -594.6837 -242.4044)" class="st7 st1 st2">C</text>
		</g>
	</g>
</g>
<g id="ID000097">
	<line class="st4" x1="601.3" y1="165.2" x2="601.3" y2="188.7"/>
</g>
<g id="ID000098">
	<line class="st4" x1="620.9" y1="165.2" x2="620.9" y2="188.7"/>
</g>
<g id="ID000100">
	<g transform="translate(1305.858,369.817)">
		<g transform="rotate(-0.0)">
			<text transform="matrix(1 0 0 1 -653.3411 -203.664)" class="st8 st1 st2">G</text>
		</g>
	</g>
</g>
<g id="ID000101">
	<g transform="translate(1344.861,369.817)">
		<g transform="rotate(-0.0)">
			<text transform="matrix(1 0 0 1 -672.1674 -203.664)" class="st8 st1 st2">C</text>
		</g>
	</g>
</g>
<g id="ID000102">
	<g transform="translate(1383.865,360.066)">
		<g transform="rotate(-0.0)">
			<text transform="matrix(1 0 0 1 -691.5375 -198.8213)" class="st0 st1 st2">C</text>
		</g>
	</g>
</g>
<g id="ID000103">
	<g transform="translate(1422.868,340.564)">
		<g transform="rotate(-0.0)">
			<text transform="matrix(1 0 0 1 -711.4537 -189.1357)" class="st0 st1 st2">G</text>
		</g>
	</g>
</g>
<g id="ID000104">
	<g transform="translate(1461.871,360.066)">
		<g transform="rotate(-0.0)">
			<text transform="matrix(1 0 0 1 -730.277 -198.8213)" class="st0 st1 st2">U</text>
		</g>
	</g>
</g>
<g id="ID000105">
	<g transform="translate(1500.875,389.318)">
		<g transform="rotate(-0.0)">
			<text transform="matrix(1 0 0 1 -749.6492 -213.3486)" class="st0 st1 st2">U</text>
		</g>
	</g>
</g>
<g id="ID000106">
	<g transform="translate(1500.875,428.322)">
		<g transform="rotate(-0.0)">
			<text transform="matrix(1 0 0 1 -750.1951 -232.7208)" class="st0 st1 st2">G</text>
		</g>
	</g>
</g>
<g id="ID000107">
	<line class="st4" x1="758.3" y1="199.9" x2="758.3" y2="213"/>
</g>
<g id="ID000108">
	<g transform="translate(1500.875,508.799)">
		<g transform="rotate(-0.0)">
			<text transform="matrix(1 0 0 1 -753.4773 -272.6866)" class="st1 st2">60</text>
		</g>
	</g>
</g>
<g id="ID000109">
	<g transform="translate(1461.871,447.823)">
		<g transform="rotate(-0.0)">
			<text transform="matrix(1 0 0 1 -730.277 -242.4044)" class="st0 st1 st2">U</text>
		</g>
	</g>
</g>
<g id="ID000110">
	<g transform="translate(1422.868,457.574)">
		<g transform="rotate(-0.0)">
			<text transform="matrix(1 0 0 1 -710.9078 -247.2482)" class="st0 st1 st2">C</text>
		</g>
	</g>
</g>
<g id="ID000111">
	<g transform="translate(1380.614,444.573)">
		<g transform="rotate(-0.0)">
			<text transform="matrix(1 0 0 1 -689.9224 -240.7911)" class="st0 st1 st2">U</text>
		</g>
	</g>
</g>
<g id="ID000112">
	<g transform="translate(1344.861,447.823)">
		<g transform="rotate(-0.0)">
			<text transform="matrix(1 0 0 1 -672.7123 -242.4044)" class="st8 st1 st2">G</text>
		</g>
	</g>
</g>
<g id="ID000113">
	<g transform="translate(1305.858,447.823)">
		<g transform="rotate(-0.0)">
			<text transform="matrix(1 0 0 1 -652.7963 -242.4044)" class="st8 st1 st2">U</text>
		</g>
	</g>
</g>
<g id="ID000114">
	<polygon class="st6" points="660.2,180.9 660.4,180.9 660.7,180.9 660.9,180.8 661.2,180.8 661.4,180.7 661.6,180.6 661.9,180.5 
		662.1,180.4 662.3,180.3 662.5,180.1 662.7,180 662.9,179.8 663.1,179.6 663.2,179.4 663.4,179.2 663.5,179 663.6,178.8 
		663.7,178.6 663.8,178.4 663.9,178.1 664,177.9 664,177.6 664.1,177.4 664.1,177.2 664.1,176.9 664.1,176.7 664.1,176.4 664,176.2 
		664,175.9 663.9,175.7 663.8,175.4 663.7,175.2 663.6,175 663.4,174.8 663.3,174.6 663.1,174.4 663,174.2 662.8,174 662.6,173.9 
		662.4,173.7 662.2,173.6 662,173.5 661.8,173.4 661.5,173.3 661.3,173.2 661,173.1 660.8,173.1 660.6,173.1 660.3,173 660.1,173 
		659.8,173.1 659.6,173.1 659.3,173.1 659.1,173.2 658.8,173.3 658.6,173.4 658.4,173.5 658.2,173.6 658,173.7 657.7,173.9 
		657.6,174 657.4,174.2 657.2,174.4 657.1,174.6 656.9,174.8 656.8,175 656.7,175.2 656.6,175.4 656.5,175.7 656.4,175.9 
		656.3,176.2 656.3,176.4 656.3,176.7 656.3,176.9 656.3,177.2 656.3,177.4 656.3,177.6 656.4,177.9 656.4,178.1 656.5,178.4 
		656.6,178.6 656.7,178.8 656.8,179 657,179.2 657.1,179.4 657.3,179.6 657.5,179.8 657.7,180 657.8,180.1 658.1,180.3 658.3,180.4 
		658.5,180.5 658.7,180.6 659,180.7 659.2,180.8 659.4,180.8 659.7,180.9 659.9,180.9 	"/>
</g>
<g id="ID000115">
	<line class="st4" x1="679.8" y1="165.2" x2="679.8" y2="188.7"/>
</g>
<text transform="matrix(1 0 0 1 24.0909 33)" class="st1 st9">FB4 Aptamer</text>
<text transform="matrix(1 0 0 1 357.5175 295.8537)" class="st1 st9">5’</text>
<text transform="matrix(1 0 0 1 374.46 206.4367)" class="st1 st9">3’</text>
</svg>
