<?xml version="1.0" encoding="utf-8"?>
<!-- Generator: Adobe Illustrator 25.2.0, SVG Export Plug-In . SVG Version: 6.00 Build 0)  -->
<svg version="1.1" id="图层_1" xmlns="http://www.w3.org/2000/svg" xmlns:xlink="http://www.w3.org/1999/xlink" x="0px" y="0px"
	 viewBox="0 0 800 400" style="enable-background:new 0 0 800 400;" xml:space="preserve">
<style type="text/css">
	.st0{fill:#FF7F0E;}
	.st1{font-family:'ArialMT';}
	.st2{font-size:35.6164px;}
	.st3{fill:#17BECF;}
	.st4{fill:none;stroke:#000000;stroke-width:0.1298;stroke-miterlimit:1.0381;}
	.st5{font-size:20px;}
	.st6{stroke:#000000;stroke-width:0.1298;stroke-miterlimit:1.0381;}
	.st7{fill:#2CA02C;}
	.st8{fill:#D62728;}
</style>
<g id="ID000002">
	<g transform="translate(165.316,278.842)">
		<g transform="rotate(-0.0)">
			<text transform="matrix(1 0 0 1 -46.2299 -81.415)" class="st0 st1 st2">G</text>
		</g>
	</g>
</g>
<g id="ID000003">
	<g transform="translate(226.355,278.842)">
		<g transform="rotate(-0.0)">
			<text transform="matrix(1 0 0 1 -71.6302 -81.415)" class="st0 st1 st2">G</text>
		</g>
	</g>
</g>
<g id="ID000004">
	<g transform="translate(287.395,278.842)">
		<g transform="rotate(-0.0)">
			<text transform="matrix(1 0 0 1 -95.0569 -81.415)" class="st0 st1 st2">A</text>
		</g>
	</g>
</g>
<g id="ID000005">
	<g transform="translate(348.434,278.842)">
		<g transform="rotate(-0.0)">
			<text transform="matrix(1 0 0 1 -121.4377 -81.415)" class="st0 st1 st2">C</text>
		</g>
	</g>
</g>
<g id="ID000006">
	<g transform="translate(409.474,278.842)">
		<g transform="rotate(-0.0)">
			<text transform="matrix(1 0 0 1 -147.8312 -81.415)" class="st0 st1 st2">G</text>
		</g>
	</g>
</g>
<g id="ID000007">
	<g transform="translate(470.514,278.842)">
		<g transform="rotate(-0.0)">
			<text transform="matrix(1 0 0 1 -173.2307 -81.415)" class="st0 st1 st2">G</text>
		</g>
	</g>
</g>
<g id="ID000008">
	<g transform="translate(531.553,278.842)">
		<g transform="rotate(-0.0)">
			<text transform="matrix(1 0 0 1 -196.6563 -81.415)" class="st0 st1 st2">A</text>
		</g>
	</g>
</g>
<g id="ID000009">
	<g transform="translate(592.593,278.842)">
		<g transform="rotate(-0.0)">
			<text transform="matrix(1 0 0 1 -223.0382 -81.415)" class="st0 st1 st2">U</text>
		</g>
	</g>
</g>
<g id="ID000010">
	<g transform="translate(638.373,233.062)">
		<g transform="rotate(-0.0)">
			<text transform="matrix(1 0 0 1 -242.0896 -62.3674)" class="st3 st1 st2">U</text>
		</g>
	</g>
</g>
<g id="ID000011">
	<g transform="translate(592.593,400.921)">
		<g transform="rotate(-0.0)">
			<text transform="matrix(1 0 0 1 -224.0284 -132.2166)" class="st0 st1 st2">G</text>
		</g>
	</g>
</g>
<g id="ID000012">
	<g transform="translate(531.553,400.921)">
		<g transform="rotate(-0.0)">
			<text transform="matrix(1 0 0 1 -197.6387 -132.2166)" class="st0 st1 st2">U</text>
		</g>
	</g>
</g>
<g id="ID000013">
	<g transform="translate(470.514,400.921)">
		<g transform="rotate(-0.0)">
			<text transform="matrix(1 0 0 1 -172.2404 -132.2166)" class="st0 st1 st2">C</text>
		</g>
	</g>
</g>
<g id="ID000014">
	<line class="st4" x1="311.2" y1="276.4" x2="311.2" y2="300.2"/>
</g>
<g id="ID000015">
	<g transform="translate(470.514,526.866)">
		<g transform="rotate(-0.0)">
			<text transform="matrix(1 0 0 1 -170.46 -199.0042)" class="st1 st5">30</text>
		</g>
	</g>
</g>
<g id="ID000016">
	<g transform="translate(409.474,400.921)">
		<g transform="rotate(-0.0)">
			<text transform="matrix(1 0 0 1 -146.839 -132.2166)" class="st0 st1 st2">C</text>
		</g>
	</g>
</g>
<g id="ID000017">
	<g transform="translate(348.434,400.921)">
		<g transform="rotate(-0.0)">
			<text transform="matrix(1 0 0 1 -122.4299 -132.2166)" class="st0 st1 st2">G</text>
		</g>
	</g>
</g>
<g id="ID000018">
	<g transform="translate(287.395,400.921)">
		<g transform="rotate(-0.0)">
			<text transform="matrix(1 0 0 1 -96.0393 -132.2166)" class="st0 st1 st2">U</text>
		</g>
	</g>
</g>
<g id="ID000019">
	<g transform="translate(226.355,400.921)">
		<g transform="rotate(-0.0)">
			<text transform="matrix(1 0 0 1 -70.638 -132.2166)" class="st0 st1 st2">U</text>
		</g>
	</g>
</g>
<g id="ID000020">
	<g transform="translate(165.316,400.921)">
		<g transform="rotate(-0.0)">
			<text transform="matrix(1 0 0 1 -45.2396 -132.2166)" class="st0 st1 st2">C</text>
		</g>
	</g>
</g>
<g id="ID000021">
	<g transform="translate(104.276,400.921)">
		<g transform="rotate(-0.0)">
			<text transform="matrix(1 0 0 1 -20.8305 -132.2166)" class="st3 st1 st2">G</text>
		</g>
	</g>
</g>
<g id="ID000022">
	<line class="st4" x1="133" y1="195.6" x2="133" y2="238.4"/>
</g>
<g id="ID000023">
	<polygon class="st6" points="168.6,224.1 169.1,224.1 169.5,224.1 169.9,224 170.4,223.9 170.8,223.8 171.2,223.6 171.7,223.4 
		172.1,223.2 172.5,223 172.8,222.8 173.2,222.5 173.5,222.2 173.8,221.9 174.1,221.5 174.4,221.1 174.7,220.8 174.9,220.4 
		175.1,220 175.3,219.6 175.4,219.1 175.5,218.7 175.6,218.3 175.7,217.8 175.7,217.4 175.7,216.9 175.7,216.4 175.7,216 
		175.6,215.6 175.5,215.1 175.3,214.7 175.2,214.3 175,213.8 174.8,213.4 174.5,213.1 174.3,212.7 174,212.3 173.7,212 173.4,211.7 
		173,211.4 172.6,211.1 172.3,210.9 171.9,210.7 171.5,210.5 171,210.3 170.6,210.2 170.2,210.1 169.7,210 169.3,209.9 168.8,209.9 
		168.4,209.9 167.9,209.9 167.5,210 167,210.1 166.6,210.2 166.2,210.3 165.7,210.5 165.3,210.7 164.9,210.9 164.6,211.1 
		164.2,211.4 163.8,211.7 163.5,212 163.2,212.3 162.9,212.7 162.7,213.1 162.4,213.4 162.2,213.8 162,214.3 161.9,214.7 
		161.7,215.1 161.6,215.6 161.5,216 161.5,216.4 161.5,216.9 161.5,217.4 161.5,217.8 161.6,218.3 161.7,218.7 161.8,219.1 
		161.9,219.6 162.1,220 162.3,220.4 162.5,220.8 162.8,221.1 163.1,221.5 163.4,221.9 163.7,222.2 164,222.5 164.4,222.8 164.7,223 
		165.1,223.2 165.5,223.4 166,223.6 166.4,223.8 166.8,223.9 167.3,224 167.7,224.1 168.1,224.1 	"/>
</g>
<g id="ID000024">
	<line class="st4" x1="204.2" y1="195.6" x2="204.2" y2="238.4"/>
</g>
<g id="ID000025">
	<line class="st4" x1="239.9" y1="195.6" x2="239.9" y2="238.4"/>
</g>
<g id="ID000026">
	<line class="st4" x1="275.5" y1="195.6" x2="275.5" y2="238.4"/>
</g>
<g id="ID000027">
	<line class="st4" x1="311.2" y1="195.6" x2="311.2" y2="238.4"/>
</g>
<g id="ID000028">
	<line class="st4" x1="346.8" y1="195.6" x2="346.8" y2="238.4"/>
</g>
<g id="ID000029">
	<polygon class="st6" points="382.4,224.1 382.9,224.1 383.3,224.1 383.8,224 384.2,223.9 384.7,223.8 385.1,223.6 385.5,223.4 
		385.9,223.2 386.3,223 386.7,222.8 387,222.5 387.4,222.2 387.7,221.9 388,221.5 388.2,221.1 388.5,220.8 388.7,220.4 388.9,220 
		389.1,219.6 389.2,219.1 389.4,218.7 389.5,218.3 389.5,217.8 389.6,217.4 389.6,216.9 389.5,216.4 389.5,216 389.4,215.6 
		389.3,215.1 389.2,214.7 389,214.3 388.8,213.8 388.6,213.4 388.4,213.1 388.1,212.7 387.8,212.3 387.5,212 387.2,211.7 
		386.8,211.4 386.5,211.1 386.1,210.9 385.7,210.7 385.3,210.5 384.9,210.3 384.4,210.2 384,210.1 383.6,210 383.1,209.9 
		382.7,209.9 382.2,209.9 381.8,209.9 381.3,210 380.9,210.1 380.4,210.2 380,210.3 379.6,210.5 379.2,210.7 378.8,210.9 
		378.4,211.1 378,211.4 377.7,211.7 377.4,212 377.1,212.3 376.8,212.7 376.5,213.1 376.3,213.4 376.1,213.8 375.9,214.3 
		375.7,214.7 375.6,215.1 375.5,215.6 375.4,216 375.3,216.4 375.3,216.9 375.3,217.4 375.4,217.8 375.4,218.3 375.5,218.7 
		375.6,219.1 375.8,219.6 376,220 376.2,220.4 376.4,220.8 376.6,221.1 376.9,221.5 377.2,221.9 377.5,222.2 377.9,222.5 
		378.2,222.8 378.6,223 379,223.2 379.4,223.4 379.8,223.6 380.2,223.8 380.6,223.9 381.1,224 381.5,224.1 382,224.1 	"/>
</g>
<g id="ID000031">
	<g transform="translate(668.892,278.842)">
		<g transform="rotate(-0.0)">
			<text transform="matrix(1 0 0 1 -255.7787 -81.415)" class="st7 st1 st2">G</text>
		</g>
	</g>
</g>
<g id="ID000032">
	<line class="st4" x1="427" y1="157.6" x2="427" y2="133.9"/>
</g>
<g id="ID000033">
	<g transform="translate(668.892,154.728)">
		<g transform="rotate(-0.0)">
			<text transform="matrix(1 0 0 1 -253.8913 -29.5293)" class="st1 st5">10</text>
		</g>
	</g>
</g>
<g id="ID000034">
	<g transform="translate(729.932,278.842)">
		<g transform="rotate(-0.0)">
			<text transform="matrix(1 0 0 1 -280.1877 -81.415)" class="st7 st1 st2">C</text>
		</g>
	</g>
</g>
<g id="ID000035">
	<g transform="translate(790.972,233.062)">
		<g transform="rotate(-0.0)">
			<text transform="matrix(1 0 0 1 -306.5812 -62.3674)" class="st3 st1 st2">G</text>
		</g>
	</g>
</g>
<g id="ID000036">
	<g transform="translate(790.972,431.441)">
		<g transform="rotate(-0.0)">
			<text transform="matrix(1 0 0 1 -306.5812 -144.9164)" class="st3 st1 st2">G</text>
		</g>
	</g>
</g>
<g id="ID000037">
	<g transform="translate(729.932,400.921)">
		<g transform="rotate(-0.0)">
			<text transform="matrix(1 0 0 1 -281.1799 -132.2166)" class="st7 st1 st2">G</text>
		</g>
	</g>
</g>
<g id="ID000038">
	<g transform="translate(668.892,400.921)">
		<g transform="rotate(-0.0)">
			<text transform="matrix(1 0 0 1 -254.7883 -132.2166)" class="st7 st1 st2">C</text>
		</g>
	</g>
</g>
<g id="ID000039">
	<line class="st4" x1="427" y1="195.6" x2="427" y2="238.4"/>
</g>
<g id="ID000040">
	<line class="st4" x1="462.6" y1="195.6" x2="462.6" y2="238.4"/>
</g>
<g id="ID000042">
	<g transform="translate(852.011,278.842)">
		<g transform="rotate(-0.0)">
			<text transform="matrix(1 0 0 1 -331.9795 -81.415)" class="st8 st1 st2">G</text>
		</g>
	</g>
</g>
<g id="ID000043">
	<g transform="translate(913.051,278.842)">
		<g transform="rotate(-0.0)">
			<text transform="matrix(1 0 0 1 -356.3887 -81.415)" class="st8 st1 st2">C</text>
		</g>
	</g>
</g>
<g id="ID000044">
	<g transform="translate(974.090,278.842)">
		<g transform="rotate(-0.0)">
			<text transform="matrix(1 0 0 1 -381.7892 -81.415)" class="st3 st1 st2">C</text>
		</g>
	</g>
</g>
<g id="ID000045">
	<g transform="translate(1035.130,278.842)">
		<g transform="rotate(-0.0)">
			<text transform="matrix(1 0 0 1 -408.1806 -81.415)" class="st3 st1 st2">G</text>
		</g>
	</g>
</g>
<g id="ID000046">
	<g transform="translate(1096.170,278.842)">
		<g transform="rotate(-0.0)">
			<text transform="matrix(1 0 0 1 -432.5878 -81.415)" class="st3 st1 st2">U</text>
		</g>
	</g>
</g>
<g id="ID000047">
	<g transform="translate(1157.209,309.361)">
		<g transform="rotate(-0.0)">
			<text transform="matrix(1 0 0 1 -457.99 -94.1175)" class="st3 st1 st2">U</text>
		</g>
	</g>
</g>
<g id="ID000048">
	<g transform="translate(1157.209,385.661)">
		<g transform="rotate(-0.0)">
			<text transform="matrix(1 0 0 1 -458.9804 -125.8648)" class="st3 st1 st2">G</text>
		</g>
	</g>
</g>
<g id="ID000049">
	<g transform="translate(1096.170,400.921)">
		<g transform="rotate(-0.0)">
			<text transform="matrix(1 0 0 1 -432.5878 -132.2166)" class="st3 st1 st2">U</text>
		</g>
	</g>
</g>
<g id="ID000050">
	<line class="st4" x1="676.5" y1="276.4" x2="676.5" y2="300.2"/>
</g>
<g id="ID000051">
	<g transform="translate(1096.170,526.866)">
		<g transform="rotate(-0.0)">
			<text transform="matrix(1 0 0 1 -429.7741 -202.4263)" class="st1 st5">20</text>
		</g>
	</g>
</g>
<g id="ID000052">
	<g transform="translate(1035.130,400.921)">
		<g transform="rotate(-0.0)">
			<text transform="matrix(1 0 0 1 -407.1884 -132.2166)" class="st3 st1 st2">C</text>
		</g>
	</g>
</g>
<g id="ID000053">
	<g transform="translate(974.090,400.921)">
		<g transform="rotate(-0.0)">
			<text transform="matrix(1 0 0 1 -381.7892 -132.2166)" class="st3 st1 st2">U</text>
		</g>
	</g>
</g>
<g id="ID000054">
	<g transform="translate(913.051,400.921)">
		<g transform="rotate(-0.0)">
			<text transform="matrix(1 0 0 1 -357.3809 -132.2166)" class="st8 st1 st2">G</text>
		</g>
	</g>
</g>
<g id="ID000055">
	<g transform="translate(852.011,400.921)">
		<g transform="rotate(-0.0)">
			<text transform="matrix(1 0 0 1 -330.9893 -132.2166)" class="st8 st1 st2">U</text>
		</g>
	</g>
</g>
<g id="ID000056">
	<polygon class="st6" points="533.9,224.1 534.4,224.1 534.8,224.1 535.3,224 535.7,223.9 536.1,223.8 536.6,223.6 537,223.4 
		537.4,223.2 537.8,223 538.1,222.8 538.5,222.5 538.8,222.2 539.1,221.9 539.4,221.5 539.7,221.1 540,220.8 540.2,220.4 540.4,220 
		540.6,219.6 540.7,219.1 540.8,218.7 540.9,218.3 541,217.8 541,217.4 541,216.9 541,216.4 541,216 540.9,215.6 540.8,215.1 
		540.6,214.7 540.5,214.3 540.3,213.8 540.1,213.4 539.8,213.1 539.6,212.7 539.3,212.3 539,212 538.7,211.7 538.3,211.4 
		537.9,211.1 537.6,210.9 537.2,210.7 536.8,210.5 536.3,210.3 535.9,210.2 535.5,210.1 535,210 534.6,209.9 534.1,209.9 
		533.7,209.9 533.2,209.9 532.8,210 532.3,210.1 531.9,210.2 531.5,210.3 531,210.5 530.6,210.7 530.2,210.9 529.9,211.1 
		529.5,211.4 529.2,211.7 528.8,212 528.5,212.3 528.2,212.7 528,213.1 527.7,213.4 527.5,213.8 527.3,214.3 527.2,214.7 527,215.1 
		526.9,215.6 526.8,216 526.8,216.4 526.8,216.9 526.8,217.4 526.8,217.8 526.9,218.3 527,218.7 527.1,219.1 527.2,219.6 527.4,220 
		527.6,220.4 527.8,220.8 528.1,221.1 528.4,221.5 528.7,221.9 529,222.2 529.3,222.5 529.7,222.8 530.1,223 530.4,223.2 
		530.8,223.4 531.3,223.6 531.7,223.8 532.1,223.9 532.6,224 533,224.1 533.5,224.1 	"/>
</g>
<g id="ID000057">
	<line class="st4" x1="569.5" y1="195.6" x2="569.5" y2="238.4"/>
</g>
<text transform="matrix(1 0 0 1 29.9082 37.2041)" class="st1 st5">FB4 (truncated version) aptamer</text>
<text transform="matrix(1 0 0 1 85.3327 175.2108)" class="st1 st5">5’</text>
<text transform="matrix(1 0 0 1 49.316 260.473)" class="st1 st5">3’</text>
</svg>
