<?xml version="1.0" encoding="utf-8"?>
<!-- Generator: Adobe Illustrator 25.2.0, SVG Export Plug-In . SVG Version: 6.00 Build 0)  -->
<svg version="1.1" id="图层_1" xmlns="http://www.w3.org/2000/svg" xmlns:xlink="http://www.w3.org/1999/xlink" x="0px" y="0px"
	 viewBox="0 0 800 400" style="enable-background:new 0 0 800 400;" xml:space="preserve">
<style type="text/css">
	.st0{fill:#999999;}
	.st1{font-family:'ArialMT';}
	.st2{font-size:22.77px;}
	.st3{letter-spacing:-1;}
	.st4{fill:#FF3399;}
	.st5{fill:#FF0000;}
	.st6{fill:none;stroke:#000000;stroke-width:0.14;stroke-miterlimit:1.11;}
	.st7{font-size:16px;}
	.st8{fill:none;stroke:#000000;stroke-width:0.25;stroke-miterlimit:1.11;}
	.st9{fill:#FF9966;}
	.st10{fill:#66CC33;}
	.st11{stroke:#000000;stroke-width:0.14;stroke-miterlimit:1.11;}
	.st12{fill:none;stroke:#000000;stroke-width:1.08;stroke-miterlimit:1.11;}
	.st13{font-size:20px;}
</style>
<g id="ID000002">
	<text transform="matrix(1 0 0 1 329.54 176.82)" class="st0 st1 st2 st3">A</text>
</g>
<g id="ID000003">
	<text transform="matrix(1 0 0 1 357.75 176.82)" class="st4 st1 st2">C</text>
</g>
<g id="ID000004">
	<text transform="matrix(1 0 0 1 381.45 171.06)" class="st4 st1 st2 st3">A</text>
</g>
<g id="ID000005">
	<text transform="matrix(1 0 0 1 380.19 147.98)" class="st4 st1 st2">G</text>
</g>
<g id="ID000006">
	<text transform="matrix(1 0 0 1 380.82 124.91)" class="st4 st1 st2">C</text>
</g>
<g id="ID000007">
	<text transform="matrix(1 0 0 1 381.45 101.83)" class="st4 st1 st2 st3">A</text>
</g>
<g id="ID000008">
	<text transform="matrix(1 0 0 1 367.29 79.03)" class="st5 st1 st2">C</text>
</g>
<g id="ID000009">
	<text transform="matrix(1 0 0 1 378.17 54.04)" class="st5 st1 st2">U</text>
</g>
<g id="ID000010">
	<text transform="matrix(1 0 0 1 404.47 44.92)" class="st5 st1 st2">G</text>
</g>
<g id="ID000011">
	<text transform="matrix(1 0 0 1 428.77 54.04)" class="st5 st1 st2 st3">A</text>
</g>
<g id="ID000012">
	<line class="st6" x1="448.6" y1="46.7" x2="464" y2="46.7"/>
</g>
<g id="ID000013">
	<text transform="matrix(1 0 0 1 464.03 52.07)" class="st1 st7">10</text>
</g>
<g id="ID000014">
	<text transform="matrix(1 0 0 1 438.51 78.76)" class="st5 st1 st2">U</text>
</g>
<g id="ID000015">
	<text transform="matrix(1 0 0 1 426.97 101.83)" class="st4 st1 st2">U</text>
</g>
<g id="ID000016">
	<text transform="matrix(1 0 0 1 426.33 124.91)" class="st4 st1 st2">G</text>
</g>
<g id="ID000017">
	<text transform="matrix(1 0 0 1 426.97 147.98)" class="st4 st1 st2">C</text>
</g>
<g id="ID000018">
	<text transform="matrix(1 0 0 1 426.33 171.06)" class="st4 st1 st2">G</text>
</g>
<g id="ID000019">
	<line class="st8" x1="398.3" y1="160.7" x2="426" y2="160.7"/>
</g>
<g id="ID000020">
	<line class="st8" x1="398.3" y1="137.6" x2="426" y2="137.6"/>
</g>
<g id="ID000021">
	<line class="st8" x1="398.3" y1="114.5" x2="426" y2="114.5"/>
</g>
<g id="ID000022">
	<line class="st8" x1="398.3" y1="91.4" x2="426" y2="91.4"/>
</g>
<g id="ID000024">
	<text transform="matrix(1 0 0 1 426.33 222.97)" class="st9 st1 st2">G</text>
</g>
<g id="ID000025">
	<text transform="matrix(1 0 0 1 426.97 246.04)" class="st9 st1 st2">U</text>
</g>
<g id="ID000026">
	<text transform="matrix(1 0 0 1 426.97 269.12)" class="st9 st1 st2">C</text>
</g>
<g id="ID000027">
	<text transform="matrix(1 0 0 1 426.33 292.19)" class="st9 st1 st2">G</text>
</g>
<g id="ID000028">
	<text transform="matrix(1 0 0 1 427.6 315.26)" class="st9 st1 st2 st3">A</text>
</g>
<g id="ID000029">
	<line class="st6" x1="450.6" y1="304.9" x2="466" y2="304.9"/>
</g>
<g id="ID000030">
	<text transform="matrix(1 0 0 1 465.96 310.26)" class="st1 st7">20</text>
</g>
<g id="ID000031">
	<text transform="matrix(1 0 0 1 426.33 338.34)" class="st9 st1 st2">G</text>
</g>
<g id="ID000032">
	<text transform="matrix(1 0 0 1 437.87 361.41)" class="st10 st1 st2">G</text>
</g>
<g id="ID000033">
	<text transform="matrix(1 0 0 1 415.43 384.49)" class="st10 st1 st2">U</text>
</g>
<g id="ID000034">
	<text transform="matrix(1 0 0 1 387.22 384.49)" class="st10 st1 st2 st3">A</text>
</g>
<g id="ID000035">
	<text transform="matrix(1 0 0 1 368.65 361.41)" class="st10 st1 st2">G</text>
</g>
<g id="ID000036">
	<text transform="matrix(1 0 0 1 380.82 338.34)" class="st9 st1 st2">C</text>
</g>
<g id="ID000037">
	<text transform="matrix(1 0 0 1 380.82 315.26)" class="st9 st1 st2">U</text>
</g>
<g id="ID000038">
	<text transform="matrix(1 0 0 1 380.82 292.19)" class="st9 st1 st2">U</text>
</g>
<g id="ID000039">
	<text transform="matrix(1 0 0 1 380.19 269.12)" class="st9 st1 st2">G</text>
</g>
<g id="ID000040">
	<text transform="matrix(1 0 0 1 381.45 246.04)" class="st9 st1 st2 st3">A</text>
</g>
<g id="ID000041">
	<line class="st6" x1="378.2" y1="246.5" x2="367.3" y2="257.4"/>
</g>
<g id="ID000042">
	<text transform="matrix(1 0 0 1 343.96 271.64)" class="st1 st7">30</text>
</g>
<g id="ID000043">
	<text transform="matrix(1 0 0 1 380.82 222.97)" class="st9 st1 st2">U</text>
</g>
<g id="ID000044">
	<text transform="matrix(1 0 0 1 357.12 217.2)" class="st9 st1 st2">G</text>
</g>
<g id="ID000045">
	<text transform="matrix(1 0 0 1 328.27 217.2)" class="st0 st1 st2">G</text>
</g>
<g id="ID000046">
	<polygon class="st11" points="407.5,212.6 407.5,212.9 407.5,213.2 407.6,213.5 407.6,213.7 407.7,214 407.8,214.3 408,214.6 
		408.1,214.8 408.2,215.1 408.4,215.3 408.6,215.6 408.8,215.8 409,216 409.2,216.2 409.4,216.3 409.7,216.5 409.9,216.6 
		410.2,216.8 410.5,216.9 410.8,217 411,217.1 411.3,217.1 411.6,217.2 411.9,217.2 412.2,217.2 412.5,217.2 412.8,217.1 
		413.1,217.1 413.4,217 413.6,216.9 413.9,216.8 414.2,216.7 414.4,216.6 414.7,216.4 414.9,216.3 415.1,216.1 415.4,215.9 
		415.6,215.7 415.7,215.4 415.9,215.2 416.1,215 416.2,214.7 416.3,214.4 416.5,214.2 416.5,213.9 416.6,213.6 416.7,213.3 
		416.7,213 416.7,212.7 416.7,212.4 416.7,212.1 416.7,211.9 416.6,211.6 416.5,211.3 416.5,211 416.3,210.7 416.2,210.5 
		416.1,210.2 415.9,210 415.7,209.7 415.6,209.5 415.4,209.3 415.1,209.1 414.9,208.9 414.7,208.7 414.4,208.6 414.2,208.4 
		413.9,208.3 413.6,208.2 413.4,208.1 413.1,208.1 412.8,208 412.5,208 412.2,208 411.9,208 411.6,208 411.3,208 411,208.1 
		410.8,208.2 410.5,208.3 410.2,208.4 409.9,208.5 409.7,208.7 409.4,208.8 409.2,209 409,209.2 408.8,209.4 408.6,209.6 
		408.4,209.9 408.2,210.1 408.1,210.3 408,210.6 407.8,210.9 407.7,211.1 407.6,211.4 407.6,211.7 407.5,212 407.5,212.3 	"/>
</g>
<g id="ID000047">
	<line class="st8" x1="426" y1="235.7" x2="398.3" y2="235.7"/>
</g>
<g id="ID000048">
	<line class="st8" x1="426" y1="258.7" x2="398.3" y2="258.7"/>
</g>
<g id="ID000049">
	<polygon class="st11" points="407.5,281.8 407.5,282.1 407.5,282.4 407.6,282.7 407.6,283 407.7,283.2 407.8,283.5 408,283.8 
		408.1,284 408.2,284.3 408.4,284.5 408.6,284.8 408.8,285 409,285.2 409.2,285.4 409.4,285.6 409.7,285.7 409.9,285.9 410.2,286 
		410.5,286.1 410.8,286.2 411,286.3 411.3,286.4 411.6,286.4 411.9,286.4 412.2,286.4 412.5,286.4 412.8,286.4 413.1,286.3 
		413.4,286.2 413.6,286.2 413.9,286.1 414.2,285.9 414.4,285.8 414.7,285.6 414.9,285.5 415.1,285.3 415.4,285.1 415.6,284.9 
		415.7,284.7 415.9,284.4 416.1,284.2 416.2,283.9 416.3,283.7 416.5,283.4 416.5,283.1 416.6,282.8 416.7,282.5 416.7,282.2 
		416.7,282 416.7,281.7 416.7,281.4 416.7,281.1 416.6,280.8 416.5,280.5 416.5,280.2 416.3,280 416.2,279.7 416.1,279.4 
		415.9,279.2 415.7,279 415.6,278.7 415.4,278.5 415.1,278.3 414.9,278.1 414.7,278 414.4,277.8 414.2,277.7 413.9,277.5 
		413.6,277.5 413.4,277.4 413.1,277.3 412.8,277.2 412.5,277.2 412.2,277.2 411.9,277.2 411.6,277.2 411.3,277.3 411,277.3 
		410.8,277.4 410.5,277.5 410.2,277.6 409.9,277.7 409.7,277.9 409.4,278 409.2,278.2 409,278.4 408.8,278.6 408.6,278.8 
		408.4,279.1 408.2,279.3 408.1,279.6 408,279.8 407.8,280.1 407.7,280.4 407.6,280.6 407.6,280.9 407.5,281.2 407.5,281.5 	"/>
</g>
<g id="ID000050">
	<line class="st8" x1="426" y1="304.9" x2="398.3" y2="304.9"/>
</g>
<g id="ID000051">
	<line class="st8" x1="426" y1="328" x2="398.3" y2="328"/>
</g>
<g id="ID000053">
	<line class="st12" x1="435.2" y1="169.9" x2="435.2" y2="203.4"/>
</g>
<g id="ID000054">
	<polygon class="st11" points="439.3,179.9 437.2,182.1 436.6,184.4 436.2,186.7 435.2,191.3 434.2,186.7 433.8,184.4 433.1,182.1 
		431.1,179.9 	"/>
</g>
<text transform="matrix(1 0 0 1 309.85 166.63)" class="st1 st7">5</text>
<text transform="matrix(1 0 0 1 318.75 166.63)" class="st1 st7">’</text>
<text transform="matrix(1 0 0 1 307.43 223.24)" class="st1 st7">3</text>
<text transform="matrix(1 0 0 1 316.33 223.24)" class="st1 st7">’</text>
<text transform="matrix(1 0 0 1 40.12 44.92)" class="st1 st13">FC* RN</text>
<text transform="matrix(1 0 0 1 109.01 44.92)" class="st1 st13 st3">A</text>
<text transform="matrix(1 0 0 1 121.24 44.92)" class="st1 st13"> aptamer</text>
</svg>
