<svg id="图层_1" data-name="图层 1" xmlns="http://www.w3.org/2000/svg" viewBox="0 0 400 400"><defs><style>.cls-1,.cls-10,.cls-11,.cls-12,.cls-2,.cls-3,.cls-4,.cls-5,.cls-6,.cls-7,.cls-8,.cls-9{isolation:isolate;}.cls-1,.cls-10,.cls-2,.cls-3,.cls-4,.cls-5,.cls-6,.cls-7,.cls-8,.cls-9{font-size:12.56px;}.cls-1,.cls-2,.cls-5,.cls-6{fill:#ff870a;}.cls-1,.cls-10,.cls-11,.cls-15,.cls-17,.cls-2,.cls-3,.cls-4,.cls-5,.cls-6,.cls-7,.cls-8,.cls-9{font-family:ArialMT, Arial;}.cls-2{letter-spacing:-0.06em;}.cls-3,.cls-4{fill:#228b22;}.cls-4,.cls-5{letter-spacing:-0.06em;}.cls-6,.cls-8,.cls-9{letter-spacing:-0.06em;}.cls-7,.cls-8{fill:teal;}.cls-10,.cls-9{fill:#80db9e;}.cls-11{opacity:0.7;font-size:7px;}.cls-12{fill:none;stroke:#020202;opacity:0.55;}.cls-12,.cls-14{stroke-miterlimit:10;}.cls-13{opacity:0.75;}.cls-14{stroke:#000;stroke-width:0.07px;}.cls-15{font-size:9px;}.cls-16{letter-spacing:-0.04em;}.cls-17{font-size:20px;}</style></defs><text class="cls-1" transform="translate(201.03 289.34)">G</text><text class="cls-1" transform="translate(189.34 283.33)">G</text><text class="cls-2" transform="translate(179.69 274.26)">A</text><text class="cls-1" transform="translate(167.12 282.91)">C</text><text class="cls-1" transform="translate(154.06 289.06)">G</text><text class="cls-3" transform="translate(141.24 294.95)">G</text><text class="cls-3" transform="translate(129.35 301.1)">C</text><text class="cls-4" transform="translate(124.14 311.59)">A</text><text class="cls-3" transform="translate(111.49 315.39)">C</text><text class="cls-3" transform="translate(100.25 309.67)">C</text><text class="cls-4" transform="translate(86.76 311.39)">A</text><text class="cls-3" transform="translate(73.51 314.62)">C</text><text class="cls-3" transform="translate(60.15 318.87)">G</text><text class="cls-3" transform="translate(47.5 324.01)">G</text><text class="cls-3" transform="translate(42.6 334.54)">U</text><text class="cls-3" transform="translate(30.72 339.85)">C</text><text class="cls-3" transform="translate(18.19 334.92)">G</text><text class="cls-3" transform="translate(12.79 322.92)">G</text><text class="cls-4" transform="translate(17.82 310.54)">A</text><text class="cls-3" transform="translate(29.7 305.18)">U</text><text class="cls-3" transform="translate(40.69 307.91)">C</text><text class="cls-3" transform="translate(54.09 302.81)">C</text><text class="cls-3" transform="translate(67.76 298.3)">G</text><text class="cls-3" transform="translate(82.21 294.9)">U</text><text class="cls-3" transform="translate(96.81 292.59)">G</text><text class="cls-4" transform="translate(109.37 285.33)">A</text><text class="cls-3" transform="translate(120.82 285.49)">G</text><text class="cls-3" transform="translate(133.8 279.33)">U</text><text class="cls-1" transform="translate(146.6 273.4)">U</text><text class="cls-1" transform="translate(159.05 267.38)">G</text><text class="cls-1" transform="translate(170.94 260.93)">U</text><text class="cls-1" transform="translate(168.21 248.22)">G</text><text class="cls-5" transform="translate(169.16 237.17)">A</text><text class="cls-1" transform="translate(172.53 224.62)">C</text><text class="cls-5" transform="translate(179.14 213.57)">A</text><text class="cls-6" transform="translate(188.38 204.59)">A</text><text class="cls-1" transform="translate(199.26 198.07)">U</text><text class="cls-1" transform="translate(211.76 194.64)">U</text><text class="cls-1" transform="translate(224.75 195.32)">U</text><text class="cls-6" transform="translate(236.51 198.13)">A</text><text class="cls-1" transform="translate(246.46 204.38)">G</text><text class="cls-1" transform="translate(254.5 194.55)">C</text><text class="cls-1" transform="translate(254.03 183.37)">G</text><text class="cls-1" transform="translate(262.94 173.54)">G</text><text class="cls-1" transform="translate(274.37 172.41)">G</text><text class="cls-1" transform="translate(284.46 163.86)">U</text><text class="cls-7" transform="translate(293.72 153.93)">G</text><text class="cls-7" transform="translate(302.5 143.2)">G</text><text class="cls-7" transform="translate(311.03 131.97)">U</text><text class="cls-8" transform="translate(319.44 120.44)">A</text><text class="cls-7" transform="translate(322.59 108.93)">U</text><text class="cls-7" transform="translate(332.92 101.39)">U</text><text class="cls-8" transform="translate(341.62 89.98)">A</text><text class="cls-7" transform="translate(349.74 78.77)">G</text><text class="cls-8" transform="translate(357.6 66.72)">A</text><text class="cls-7" transform="translate(369.85 68.25)">G</text><text class="cls-7" transform="translate(373.95 81.17)">C</text><text class="cls-7" transform="translate(364.47 89.86)">C</text><text class="cls-7" transform="translate(355.68 100.7)">U</text><text class="cls-8" transform="translate(347.62 112)">A</text><text class="cls-7" transform="translate(344.35 124.47)">C</text><text class="cls-7" transform="translate(333.76 131.02)">U</text><text class="cls-7" transform="translate(325.26 142.53)">G</text><text class="cls-7" transform="translate(316.85 154.09)">C</text><text class="cls-7" transform="translate(307.67 165.35)">C</text><text class="cls-6" transform="translate(297.55 176.08)">A</text><text class="cls-1" transform="translate(286.54 185.95)">C</text><text class="cls-6" transform="translate(282.44 198.24)">A</text><text class="cls-1" transform="translate(269.29 204.59)">G</text><text class="cls-1" transform="translate(260.08 216.52)">C</text><text class="cls-6" transform="translate(263.68 227.9)">A</text><text class="cls-6" transform="translate(266.12 240.89)">A</text><text class="cls-1" transform="translate(264.71 254.27)">U</text><text class="cls-6" transform="translate(260.24 266.59)">A</text><text class="cls-1" transform="translate(253.47 276.83)">G</text><text class="cls-1" transform="translate(261.37 289.16)">G</text><text class="cls-9" transform="translate(268.87 301.8)">A</text><text class="cls-10" transform="translate(275.46 314.46)">U</text><text class="cls-10" transform="translate(282.35 326.88)">C</text><text class="cls-10" transform="translate(293.97 332.12)">G</text><text class="cls-9" transform="translate(300.28 343.84)">A</text><text class="cls-10" transform="translate(296.04 356.45)">U</text><text class="cls-9" transform="translate(284.6 362.54)">A</text><text class="cls-10" transform="translate(271.99 358.68)">C</text><text class="cls-9" transform="translate(265.79 346.97)">A</text><text class="cls-10" transform="translate(267.46 334.94)">G</text><text class="cls-9" transform="translate(261.33 322.42)">A</text><text class="cls-10" transform="translate(254.49 309.98)">U</text><text class="cls-1" transform="translate(247.83 297.82)">C</text><text class="cls-1" transform="translate(239.94 286.55)">U</text><text class="cls-11" transform="translate(97.48 315.54)">10</text><text class="cls-11" transform="translate(27.17 295.13)">20</text><text class="cls-11" transform="translate(154.72 257.6)">30</text><text class="cls-11" transform="translate(236.7 188.33)">40</text><text class="cls-11" transform="translate(311.48 117.67)">50</text><text class="cls-11" transform="translate(356.67 112.63)">60</text><text class="cls-11" transform="translate(268.85 216.52)">70</text><text class="cls-11" transform="translate(303.49 329.7)">80</text><text class="cls-11" transform="translate(236.79 292.95)">90</text><line class="cls-12" x1="46.99" y1="307.9" x2="50.3" y2="315.42"/><line class="cls-12" x1="73.86" y1="298.74" x2="76.2" y2="306.02"/><line class="cls-12" x1="87.11" y1="295.13" x2="90.19" y2="302.4"/><line class="cls-12" x1="102.71" y1="292.55" x2="103.77" y2="300.52"/><line class="cls-12" x1="127.48" y1="285.5" x2="132.04" y2="292.5"/><line class="cls-12" x1="166.06" y1="267.38" x2="169.38" y2="274.57"/><line class="cls-12" x1="177.33" y1="260.81" x2="182.72" y2="266.59"/><line class="cls-12" x1="261.24" y1="209.51" x2="255.44" y2="203.08"/><line class="cls-12" x1="270.5" y1="197.69" x2="262.79" y2="192.89"/><line class="cls-12" x1="288.23" y1="177.81" x2="282.42" y2="171.68"/><line class="cls-12" x1="299.47" y1="170.53" x2="291.71" y2="163.05"/><line class="cls-12" x1="308.83" y1="158.34" x2="302.15" y2="152.79"/><line class="cls-12" x1="318.16" y1="147.72" x2="311.48" y2="142.17"/><line class="cls-12" x1="333.98" y1="123.22" x2="327.3" y2="117.67"/><line class="cls-12" x1="348.58" y1="106.8" x2="340.81" y2="99.7"/><line class="cls-12" x1="356.02" y1="95.6" x2="349.03" y2="86.46"/><line class="cls-12" x1="365.1" y1="83.21" x2="358.72" y2="77.32"/><line class="cls-12" x1="269.73" y1="297.97" x2="262.43" y2="304.15"/><line class="cls-12" x1="262.94" y1="288.23" x2="256.57" y2="293.67"/><line class="cls-12" x1="276.44" y1="312.36" x2="268.13" y2="317.71"/><line class="cls-12" x1="283.45" y1="324.72" x2="276.14" y2="329.7"/><line class="cls-12" x1="59.65" y1="302.6" x2="62.95" y2="310.28"/><g id="ID000021" class="cls-13"><polygon class="cls-14" points="141.91 280.75 141.77 280.75 141.64 280.75 141.51 280.78 141.38 280.81 141.24 280.85 141.11 280.88 140.98 280.95 140.85 281.01 140.74 281.08 140.61 281.14 140.51 281.25 140.41 281.34 140.31 281.44 140.21 281.54 140.15 281.64 140.08 281.74 140.02 281.87 139.95 282.01 139.88 282.11 139.85 282.24 139.82 282.37 139.78 282.5 139.75 282.67 139.75 282.8 139.75 282.94 139.75 283.07 139.78 283.2 139.78 283.33 139.82 283.47 139.85 283.6 139.92 283.73 139.98 283.86 140.05 283.96 140.11 284.09 140.18 284.2 140.28 284.33 140.38 284.43 140.48 284.49 140.58 284.59 140.68 284.66 140.81 284.76 140.91 284.82 141.04 284.86 141.18 284.92 141.31 284.96 141.44 284.99 141.57 285.02 141.71 285.06 141.84 285.06 141.97 285.06 142.11 285.06 142.24 285.02 142.37 284.99 142.5 284.96 142.64 284.92 142.77 284.86 142.9 284.82 143.03 284.76 143.13 284.66 143.23 284.59 143.36 284.49 143.46 284.43 143.53 284.33 143.63 284.2 143.7 284.09 143.8 283.96 143.83 283.86 143.89 283.73 143.96 283.6 143.99 283.47 144.03 283.33 144.06 283.2 144.06 283.07 144.06 282.94 144.06 282.8 144.06 282.67 144.03 282.5 143.99 282.37 143.96 282.24 143.93 282.11 143.86 282.01 143.83 281.87 143.76 281.74 143.66 281.64 143.6 281.54 143.5 281.44 143.4 281.34 143.3 281.25 143.2 281.14 143.07 281.08 142.97 281.01 142.83 280.95 142.7 280.88 142.57 280.85 142.44 280.81 142.3 280.78 142.17 280.75 142.04 280.75 141.91 280.75"/></g><g id="ID000021-2" data-name="ID000021" class="cls-13"><polygon class="cls-14" points="154.65 275.17 154.51 275.17 154.38 275.17 154.25 275.2 154.12 275.23 153.98 275.27 153.85 275.3 153.72 275.37 153.59 275.43 153.48 275.5 153.35 275.56 153.25 275.67 153.15 275.76 153.05 275.86 152.95 275.96 152.89 276.06 152.82 276.16 152.76 276.29 152.69 276.43 152.62 276.53 152.59 276.66 152.56 276.79 152.52 276.92 152.49 277.09 152.49 277.22 152.49 277.36 152.49 277.49 152.52 277.62 152.52 277.75 152.56 277.89 152.59 278.02 152.66 278.15 152.72 278.28 152.79 278.38 152.85 278.51 152.92 278.62 153.02 278.75 153.12 278.85 153.22 278.91 153.32 279.01 153.42 279.08 153.55 279.18 153.65 279.24 153.78 279.28 153.92 279.34 154.05 279.38 154.18 279.41 154.31 279.44 154.45 279.48 154.58 279.48 154.71 279.48 154.85 279.48 154.98 279.44 155.11 279.41 155.24 279.38 155.38 279.34 155.51 279.28 155.64 279.24 155.77 279.18 155.87 279.08 155.97 279.01 156.1 278.91 156.2 278.85 156.27 278.75 156.37 278.62 156.44 278.51 156.54 278.38 156.57 278.28 156.63 278.15 156.7 278.02 156.73 277.89 156.77 277.75 156.8 277.62 156.8 277.49 156.8 277.36 156.8 277.22 156.8 277.09 156.77 276.92 156.73 276.79 156.7 276.66 156.67 276.53 156.6 276.43 156.57 276.29 156.5 276.16 156.4 276.06 156.34 275.96 156.24 275.86 156.14 275.76 156.04 275.67 155.94 275.56 155.81 275.5 155.71 275.43 155.57 275.37 155.44 275.3 155.31 275.27 155.18 275.23 155.04 275.2 154.91 275.17 154.78 275.17 154.65 275.17"/></g><g id="ID000021-3" data-name="ID000021" class="cls-13"><polygon class="cls-14" points="251.88 275.17 251.74 275.17 251.61 275.17 251.48 275.2 251.35 275.23 251.21 275.27 251.08 275.3 250.95 275.37 250.82 275.43 250.71 275.5 250.58 275.56 250.48 275.67 250.38 275.76 250.28 275.86 250.18 275.96 250.12 276.06 250.05 276.16 249.99 276.29 249.92 276.43 249.85 276.53 249.82 276.66 249.79 276.79 249.75 276.92 249.72 277.09 249.72 277.22 249.72 277.36 249.72 277.49 249.75 277.62 249.75 277.75 249.79 277.89 249.82 278.02 249.89 278.15 249.95 278.28 250.02 278.38 250.08 278.51 250.15 278.62 250.25 278.75 250.35 278.85 250.45 278.91 250.55 279.01 250.65 279.08 250.78 279.18 250.88 279.24 251.01 279.28 251.15 279.34 251.28 279.38 251.41 279.41 251.54 279.44 251.68 279.48 251.81 279.48 251.94 279.48 252.08 279.48 252.21 279.44 252.34 279.41 252.47 279.38 252.61 279.34 252.74 279.28 252.87 279.24 253 279.18 253.1 279.08 253.2 279.01 253.33 278.91 253.43 278.85 253.5 278.75 253.6 278.62 253.67 278.51 253.77 278.38 253.8 278.28 253.86 278.15 253.93 278.02 253.96 277.89 254 277.75 254.03 277.62 254.03 277.49 254.03 277.36 254.03 277.22 254.03 277.09 254 276.92 253.96 276.79 253.93 276.66 253.9 276.53 253.83 276.43 253.8 276.29 253.73 276.16 253.63 276.06 253.57 275.96 253.47 275.86 253.37 275.76 253.27 275.67 253.17 275.56 253.04 275.5 252.94 275.43 252.8 275.37 252.67 275.3 252.54 275.27 252.41 275.23 252.27 275.2 252.14 275.17 252.01 275.17 251.88 275.17"/></g><g id="ID000021-4" data-name="ID000021" class="cls-13"><polygon class="cls-14" points="322.76 131.24 322.62 131.24 322.49 131.24 322.36 131.27 322.23 131.3 322.09 131.34 321.96 131.37 321.83 131.44 321.7 131.5 321.59 131.57 321.46 131.63 321.36 131.74 321.26 131.83 321.16 131.93 321.06 132.03 321 132.13 320.93 132.23 320.87 132.36 320.8 132.5 320.73 132.6 320.7 132.73 320.67 132.86 320.63 132.99 320.6 133.16 320.6 133.29 320.6 133.43 320.6 133.56 320.63 133.69 320.63 133.82 320.67 133.96 320.7 134.09 320.77 134.22 320.83 134.35 320.9 134.45 320.96 134.58 321.03 134.69 321.13 134.82 321.23 134.92 321.33 134.98 321.43 135.08 321.53 135.15 321.66 135.25 321.76 135.31 321.89 135.35 322.03 135.41 322.16 135.45 322.29 135.48 322.42 135.51 322.56 135.55 322.69 135.55 322.82 135.55 322.96 135.55 323.09 135.51 323.22 135.48 323.35 135.45 323.49 135.41 323.62 135.35 323.75 135.31 323.88 135.25 323.98 135.15 324.08 135.08 324.21 134.98 324.31 134.92 324.38 134.82 324.48 134.69 324.55 134.58 324.65 134.45 324.68 134.35 324.74 134.22 324.81 134.09 324.84 133.96 324.88 133.82 324.91 133.69 324.91 133.56 324.91 133.43 324.91 133.29 324.91 133.16 324.88 132.99 324.84 132.86 324.81 132.73 324.78 132.6 324.71 132.5 324.68 132.36 324.61 132.23 324.51 132.13 324.45 132.03 324.35 131.93 324.25 131.83 324.15 131.74 324.05 131.63 323.92 131.57 323.82 131.5 323.68 131.44 323.55 131.37 323.42 131.34 323.29 131.3 323.15 131.27 323.02 131.24 322.89 131.24 322.76 131.24"/></g><text class="cls-15" transform="translate(200.25 297.54)">5<tspan class="cls-16" x="5.01" y="0">’</tspan></text><text class="cls-15" transform="translate(237.08 276.57)">3<tspan class="cls-16" x="5.01" y="0">’</tspan></text><text class="cls-17" transform="translate(177.56 95.6)">FB-1 aptamer</text></svg>