<?xml version="1.0" encoding="UTF-8"?>
<svg id="_图层_1" data-name="图层 1" xmlns="http://www.w3.org/2000/svg" viewBox="0 0 800 400">
  <defs>
    <style>
      .cls-1 {
        font-size: 30px;
      }

      .cls-1, .cls-2, .cls-3, .cls-4, .cls-5, .cls-6, .cls-7, .cls-8, .cls-9, .cls-10 {
        isolation: isolate;
      }

      .cls-1, .cls-3, .cls-4, .cls-5, .cls-6, .cls-7, .cls-11, .cls-8, .cls-9, .cls-10 {
        font-family: ArialMT, Arial;
      }

      .cls-1, .cls-12, .cls-5, .cls-6 {
        fill: #000;
      }

      .cls-3, .cls-4, .cls-6, .cls-7, .cls-8, .cls-9, .cls-10 {
        font-size: 28.57px;
      }

      .cls-3, .cls-7 {
        letter-spacing: -.06em;
      }

      .cls-3, .cls-10 {
        fill: #2ea103;
      }

      .cls-4, .cls-7, .cls-8 {
        fill: #b83233;
      }

      .cls-12, .cls-13, .cls-14 {
        stroke: #000;
        stroke-miterlimit: 2.03;
      }

      .cls-12, .cls-14 {
        stroke-width: .25px;
      }

      .cls-5 {
        font-size: 20px;
      }

      .cls-15 {
        fill: #8527b5;
        stroke-width: 0px;
      }

      .cls-13, .cls-14 {
        fill: none;
      }

      .cls-11 {
        fill: #fff;
        font-size: 21.38px;
      }

      .cls-8 {
        letter-spacing: -.06em;
      }

      .cls-16 {
        letter-spacing: -.04em;
      }

      .cls-9 {
        fill: #f17d07;
      }
    </style>
  </defs>
  <g>
    <g>
      <g id="ID000002">
        <text class="cls-4" transform="translate(103.77 194.5)"><tspan x="0" y="0">G</tspan></text>
      </g>
      <g id="ID000003">
        <text class="cls-4" transform="translate(132.43 194.5)"><tspan x="0" y="0">G</tspan></text>
      </g>
      <g id="ID000004">
        <text class="cls-7" transform="translate(162.67 194.5)"><tspan x="0" y="0">A</tspan></text>
      </g>
      <g id="ID000005">
        <text class="cls-4" transform="translate(190.55 194.5)"><tspan x="0" y="0">U</tspan></text>
      </g>
      <g id="ID000006">
        <text class="cls-7" transform="translate(220 194.5)"><tspan x="0" y="0">A</tspan></text>
      </g>
      <g id="ID000007">
        <text class="cls-4" transform="translate(247.87 194.5)"><tspan x="0" y="0">C</tspan></text>
      </g>
      <g id="ID000008">
        <text class="cls-7" transform="translate(277.32 194.5)"><tspan x="0" y="0">A</tspan></text>
      </g>
      <g id="ID000009">
        <text class="cls-4" transform="translate(305.19 194.5)"><tspan x="0" y="0">C</tspan></text>
      </g>
      <g id="ID000010">
        <text class="cls-7" transform="translate(329.25 172.48)"><tspan x="0" y="0">A</tspan></text>
      </g>
      <g id="ID000011">
        <text class="cls-4" transform="translate(304.4 251.82)"><tspan x="0" y="0">G</tspan></text>
      </g>
      <g id="ID000012">
        <text class="cls-4" transform="translate(276.53 251.82)"><tspan x="0" y="0">U</tspan></text>
      </g>
      <g id="ID000013">
        <text class="cls-4" transform="translate(247.07 251.82)"><tspan x="0" y="0">G</tspan></text>
      </g>
      <g id="ID000014">
        <text class="cls-4" transform="translate(219.21 251.82)"><tspan x="0" y="0">U</tspan></text>
      </g>
      <g id="ID000015">
        <text class="cls-7" transform="translate(191.33 251.82)"><tspan x="0" y="0">A</tspan></text>
      </g>
      <g id="ID000016">
        <text class="cls-4" transform="translate(161.89 251.82)"><tspan x="0" y="0">U</tspan></text>
      </g>
      <g id="ID000017">
        <text class="cls-4" transform="translate(133.22 251.82)"><tspan x="0" y="0">C</tspan></text>
      </g>
      <g id="ID000018">
        <text class="cls-4" transform="translate(104.56 251.82)"><tspan x="0" y="0">C</tspan></text>
      </g>
      <g id="ID000019">
        <line class="cls-13" x1="114.88" y1="193.06" x2="114.88" y2="227.46"/>
      </g>
      <g id="ID000020">
        <line class="cls-13" x1="143.54" y1="193.06" x2="143.54" y2="227.46"/>
      </g>
      <g id="ID000021">
        <line class="cls-13" x1="172.2" y1="193.06" x2="172.2" y2="227.46"/>
      </g>
      <g id="ID000022">
        <line class="cls-13" x1="200.86" y1="193.06" x2="200.86" y2="227.46"/>
      </g>
      <g id="ID000023">
        <line class="cls-13" x1="229.52" y1="193.06" x2="229.52" y2="227.46"/>
      </g>
      <g id="ID000024">
        <line class="cls-13" x1="258.18" y1="193.06" x2="258.18" y2="227.46"/>
      </g>
      <g id="ID000025">
        <line class="cls-13" x1="286.84" y1="193.06" x2="286.84" y2="227.46"/>
      </g>
      <g id="ID000026">
        <line class="cls-13" x1="315.5" y1="193.06" x2="315.5" y2="227.46"/>
      </g>
      <g id="ID000035">
        <text class="cls-8" transform="translate(408.13 194.5)"><tspan x="0" y="0">A</tspan></text>
      </g>
      <g id="ID000036">
        <text class="cls-9" transform="translate(435.21 194.5)"><tspan x="0" y="0">G</tspan></text>
      </g>
      <g id="ID000037">
        <text class="cls-9" transform="translate(464.66 194.5)"><tspan x="0" y="0">U</tspan></text>
      </g>
      <g id="ID000038">
        <text class="cls-9" transform="translate(492.53 194.5)"><tspan x="0" y="0">G</tspan></text>
      </g>
      <g id="ID000039">
        <text class="cls-3" transform="translate(522.77 194.5)"><tspan x="0" y="0">A</tspan></text>
      </g>
      <g id="ID000040">
        <text class="cls-10" transform="translate(550.65 194.5)"><tspan x="0" y="0">U</tspan></text>
      </g>
      <g id="ID000041">
        <text class="cls-9" transform="translate(579.3 194.5)"><tspan x="0" y="0">U</tspan></text>
      </g>
      <g id="ID000042">
        <text class="cls-10" transform="translate(607.17 194.5)"><tspan x="0" y="0">G</tspan></text>
      </g>
      <g id="ID000043">
        <text class="cls-3" transform="translate(630.25 223.16)"><tspan x="0" y="0">A</tspan></text>
      </g>
      <g id="ID000044">
        <line class="cls-13" x1="655.89" y1="213.26" x2="674.99" y2="213.26"/>
      </g>
      <g id="ID000045">
        <text class="cls-6" transform="translate(677.99 223.16)"><tspan x="0" y="0">20</tspan></text>
      </g>
      <g id="ID000046">
        <text class="cls-3" transform="translate(608.76 251.82)"><tspan x="0" y="0">A</tspan></text>
      </g>
      <g id="ID000047">
        <text class="cls-3" transform="translate(580.09 251.82)"><tspan x="0" y="0">A</tspan></text>
      </g>
      <g id="ID000048">
        <text class="cls-10" transform="translate(550.65 251.82)"><tspan x="0" y="0">C</tspan></text>
      </g>
      <g id="ID000049">
        <text class="cls-10" transform="translate(521.99 251.82)"><tspan x="0" y="0">U</tspan></text>
      </g>
      <g id="ID000050">
        <text class="cls-3" transform="translate(494.11 251.82)"><tspan x="0" y="0">A</tspan></text>
      </g>
      <g id="ID000051">
        <text class="cls-3" transform="translate(465.45 251.82)"><tspan x="0" y="0">A</tspan></text>
      </g>
      <g id="ID000052">
        <text class="cls-4" transform="translate(435.21 251.82)"><tspan x="0" y="0">G</tspan></text>
      </g>
      <g id="ID000053">
        <text class="cls-4" transform="translate(407.34 251.82)"><tspan x="0" y="0">U</tspan></text>
      </g>
      <g id="ID000054">
        <text class="cls-4" transform="translate(378.68 251.82)"><tspan x="0" y="0">C</tspan></text>
      </g>
      <g id="ID000055">
        <text class="cls-4" transform="translate(350.02 251.82)"><tspan x="0" y="0">U</tspan></text>
      </g>
      <g id="ID000056">
        <line class="cls-13" x1="360.33" y1="258.03" x2="360.33" y2="277.14"/>
      </g>
      <g id="ID000057">
        <text class="cls-6" transform="translate(344.44 310.96)"><tspan x="0" y="0">30</tspan></text>
      </g>
      <g id="ID000058">
        <line class="cls-13" x1="360.33" y1="193.06" x2="360.33" y2="227.46"/>
      </g>
      <g id="ID000059">
        <line class="cls-13" x1="388.99" y1="193.06" x2="388.99" y2="227.46"/>
      </g>
      <g id="ID000060">
        <polyline class="cls-13" points="379.4 184.37 379.49 281.91 560.96 281.91 560.96 247.3"/>
      </g>
      <g id="ID000061">
        <polygon class="cls-12" points="461.84 287.64 473.3 287.64 473.3 276.18 461.84 276.18 461.84 287.64"/>
      </g>
      <g id="ID000062">
        <polygon class="cls-12" points="488.21 281.91 488.19 281.55 488.16 281.19 488.1 280.83 488.02 280.47 487.92 280.12 487.8 279.78 487.65 279.45 487.48 279.13 487.3 278.81 487.09 278.51 486.87 278.23 486.62 277.96 486.36 277.7 486.09 277.46 485.8 277.24 485.5 277.04 485.18 276.86 484.86 276.7 484.52 276.56 484.18 276.44 483.83 276.34 483.47 276.27 483.11 276.22 482.75 276.19 482.38 276.18 482.02 276.2 481.66 276.24 481.3 276.3 480.95 276.39 480.6 276.5 480.26 276.63 479.93 276.78 479.61 276.95 479.3 277.14 479 277.35 478.72 277.58 478.45 277.83 478.2 278.09 477.97 278.37 477.75 278.66 477.56 278.97 477.38 279.29 477.22 279.61 477.09 279.95 476.97 280.3 476.88 280.65 476.81 281.01 476.77 281.37 476.75 281.73 476.75 282.09 476.77 282.46 476.81 282.82 476.88 283.18 476.97 283.53 477.09 283.87 477.22 284.21 477.38 284.54 477.56 284.86 477.75 285.16 477.97 285.46 478.2 285.73 478.45 286 478.72 286.24 479 286.47 479.3 286.68 479.61 286.88 479.93 287.05 480.26 287.2 480.6 287.33 480.95 287.44 481.3 287.52 481.66 287.59 482.02 287.63 482.38 287.64 482.75 287.64 483.11 287.61 483.47 287.56 483.83 287.48 484.18 287.39 484.52 287.27 484.86 287.13 485.18 286.97 485.5 286.78 485.8 286.58 486.09 286.36 486.36 286.12 486.62 285.87 486.87 285.6 487.09 285.31 487.3 285.01 487.48 284.7 487.65 284.38 487.8 284.04 487.92 283.7 488.02 283.35 488.1 283 488.16 282.64 488.19 282.28 488.21 281.91"/>
      </g>
      <g id="ID000063">
        <line class="cls-13" x1="417.65" y1="193.06" x2="417.65" y2="227.46"/>
      </g>
      <g id="ID000064">
        <polyline class="cls-13" points="446.32 170.13 446.32 152.94 474.98 152.94 474.98 170.13"/>
      </g>
      <g id="ID000065">
        <polygon class="cls-12" points="445.75 152.94 456.92 159.39 456.92 146.49 445.75 152.94"/>
      </g>
      <g id="ID000066">
        <polygon class="cls-12" points="473.83 147.21 462.36 147.21 462.36 158.67 473.83 158.67 473.83 147.21"/>
      </g>
      <g id="ID000067">
        <line class="cls-14" x1="446.32" y1="193.06" x2="446.32" y2="227.46"/>
      </g>
      <g id="ID000068">
        <polygon class="cls-12" points="446.32 197.08 445.95 197.09 445.59 197.12 445.23 197.18 444.88 197.26 444.53 197.36 444.18 197.49 443.85 197.63 443.53 197.8 443.22 197.99 442.92 198.19 442.63 198.42 442.36 198.66 442.1 198.92 441.87 199.19 441.65 199.48 441.44 199.79 441.26 200.1 441.1 200.43 440.96 200.76 440.84 201.11 440.74 201.46 440.67 201.81 440.62 202.17 440.59 202.53 440.58 202.9 440.6 203.26 440.64 203.62 440.7 203.98 440.79 204.34 440.9 204.68 441.03 205.02 441.18 205.35 441.35 205.67 441.54 205.98 441.75 206.28 441.98 206.56 442.23 206.83 442.49 207.08 442.77 207.31 443.06 207.53 443.37 207.73 443.69 207.9 444.02 208.06 444.35 208.19 444.7 208.31 445.05 208.4 445.41 208.47 445.77 208.51 446.13 208.54 446.5 208.54 446.86 208.51 447.22 208.47 447.58 208.4 447.93 208.31 448.28 208.19 448.61 208.06 448.94 207.9 449.26 207.73 449.57 207.53 449.86 207.31 450.14 207.08 450.4 206.83 450.65 206.56 450.88 206.28 451.09 205.98 451.28 205.67 451.45 205.35 451.6 205.02 451.73 204.68 451.84 204.34 451.93 203.98 451.99 203.62 452.03 203.26 452.05 202.9 452.04 202.53 452.01 202.17 451.96 201.81 451.89 201.46 451.79 201.11 451.67 200.76 451.53 200.43 451.37 200.1 451.19 199.79 450.98 199.48 450.76 199.19 450.53 198.92 450.27 198.66 450 198.42 449.71 198.19 449.41 197.99 449.1 197.8 448.78 197.63 448.44 197.49 448.1 197.36 447.75 197.26 447.4 197.18 447.04 197.12 446.68 197.09 446.32 197.08"/>
      </g>
      <g id="ID000069">
        <polygon class="cls-12" points="452.05 223.44 452.05 211.98 440.58 211.98 440.58 223.44 452.05 223.44"/>
      </g>
      <g id="ID000070">
        <polyline class="cls-13" points="503.64 170.13 503.64 160.1 589.62 160.1 589.62 170.13"/>
      </g>
      <g id="ID000071">
        <polygon class="cls-12" points="552.36 154.37 540.9 154.37 540.9 165.84 552.36 165.84 552.36 154.37"/>
      </g>
      <g id="ID000072">
        <polyline class="cls-14" points="589.62 193.06 589.62 195.93 474.98 224.59 474.98 224.59 474.98 227.46"/>
      </g>
      <g id="ID000073">
        <polygon class="cls-12" points="545.09 207.06 544.99 206.71 544.87 206.37 544.72 206.03 544.56 205.71 544.38 205.4 544.17 205.1 543.95 204.81 543.71 204.53 543.45 204.28 543.18 204.04 542.89 203.81 542.59 203.61 542.28 203.42 541.96 203.26 541.62 203.12 541.28 202.99 540.93 202.89 540.57 202.82 540.21 202.76 539.85 202.73 539.49 202.72 539.12 202.73 538.76 202.77 538.4 202.83 538.05 202.91 537.7 203.02 537.36 203.15 537.03 203.29 536.71 203.46 536.4 203.65 536.1 203.86 535.81 204.09 535.54 204.33 535.29 204.59 535.05 204.87 534.83 205.16 534.64 205.46 534.46 205.78 534.3 206.11 534.16 206.44 534.04 206.79 533.95 207.14 533.88 207.5 533.83 207.86 533.8 208.22 533.8 208.58 533.82 208.95 533.86 209.31 533.92 209.67 534.01 210.02 534.12 210.37 534.26 210.7 534.41 211.03 534.58 211.35 534.78 211.66 534.99 211.96 535.22 212.24 535.47 212.5 535.74 212.75 536.02 212.98 536.31 213.2 536.62 213.39 536.94 213.57 537.27 213.72 537.6 213.85 537.95 213.96 538.3 214.05 538.66 214.12 539.02 214.16 539.39 214.18 539.75 214.18 540.11 214.15 540.47 214.11 540.83 214.04 541.18 213.94 541.53 213.82 541.86 213.69 542.19 213.53 542.51 213.35 542.81 213.15 543.1 212.93 543.38 212.7 543.64 212.45 543.89 212.18 544.11 211.89 544.32 211.59 544.51 211.28 544.68 210.96 544.83 210.63 544.96 210.29 545.06 209.94 545.15 209.59 545.21 209.23 545.24 208.87 545.26 208.5 545.25 208.14 545.22 207.78 545.17 207.42 545.09 207.06"/>
      </g>
      <g id="ID000074">
        <polygon class="cls-12" points="520.9 219.02 532.02 216.24 529.24 205.12 518.12 207.9 520.9 219.02"/>
      </g>
      <g id="ID000031">
        <text class="cls-7" transform="translate(350.81 194.5)"><tspan x="0" y="0">A</tspan></text>
      </g>
      <g id="ID000034">
        <text class="cls-4" transform="translate(377.88 194.5)"><tspan x="0" y="0">G</tspan></text>
      </g>
      <line class="cls-14" x1="350.25" y1="142.37" x2="339.69" y2="150.87"/>
      <g>
        <g id="ID000028">
          <polygon class="cls-12" points="355.1 147.69 354.82 147.93 354.56 148.18 354.32 148.45 354.1 148.74 353.89 149.04 353.71 149.35 353.54 149.68 353.4 150.01 353.27 150.35 353.17 150.7 353.09 151.06 353.04 151.42 353 151.78 352.99 152.14 353.01 152.51 353.04 152.87 353.1 153.23 353.18 153.58 353.29 153.93 353.41 154.27 353.56 154.6 353.73 154.93 353.91 155.24 354.12 155.54 354.35 155.82 354.59 156.09 354.85 156.35 355.13 156.58 355.42 156.8 355.72 157.01 356.04 157.19 356.36 157.35 356.7 157.49 357.04 157.6 357.39 157.7 357.75 157.77 358.11 157.82 358.47 157.85 358.84 157.86 359.2 157.84 359.56 157.8 359.92 157.73 360.27 157.64 360.62 157.54 360.96 157.4 361.29 157.25 361.61 157.08 361.92 156.89 362.21 156.67 362.49 156.44 362.76 156.2 363.01 155.93 363.24 155.65 363.46 155.36 363.65 155.05 363.83 154.73 363.98 154.41 364.12 154.07 364.23 153.72 364.32 153.37 364.39 153.01 364.43 152.65 364.46 152.29 364.45 151.92 364.43 151.56 364.38 151.2 364.31 150.84 364.22 150.49 364.11 150.15 363.97 149.81 363.81 149.48 363.64 149.16 363.44 148.86 363.22 148.57 362.99 148.29 362.73 148.03 362.47 147.78 362.18 147.55 361.89 147.34 361.58 147.15 361.25 146.98 360.92 146.83 360.58 146.7 360.24 146.59 359.88 146.51 359.52 146.45 359.16 146.41 358.8 146.39 358.43 146.4 358.07 146.43 357.71 146.48 357.36 146.56 357.01 146.66 356.66 146.78 356.33 146.92 356 147.08 355.69 147.26 355.39 147.47 355.1 147.69"/>
        </g>
        <g id="ID000029">
          <polygon class="cls-12" points="376.23 164.47 368.97 155.59 360.1 162.85 367.35 171.73 376.23 164.47"/>
        </g>
        <line class="cls-14" x1="350.25" y1="142.18" x2="377.23" y2="173.79"/>
        <line class="cls-14" x1="377.23" y1="173.79" x2="367.82" y2="181.59"/>
      </g>
      <g class="cls-2">
        <text class="cls-1" transform="translate(95.88 169.57)"><tspan x="0" y="0">5</tspan><tspan class="cls-16" x="16.68" y="0">’</tspan></text>
      </g>
      <g class="cls-2">
        <text class="cls-1" transform="translate(96.48 284.12)"><tspan x="0" y="0">3</tspan><tspan class="cls-16" x="16.68" y="0">’</tspan></text>
      </g>
    </g>
    <rect class="cls-15" x="460.85" y="199.35" width="49.25" height="24.62"/>
    <text class="cls-11" transform="translate(465.53 219.07) scale(.9 1)"><tspan x="0" y="0">FMN</tspan></text>
  </g>
  <g class="cls-2">
    <text class="cls-5" transform="translate(293.74 94.68)"><tspan x="0" y="0">X2B2-C14U</tspan></text>
    <text class="cls-5" transform="translate(400.46 94.68)"><tspan x="0" y="0"> </tspan></text>
    <text class="cls-5" transform="translate(405.46 94.68)"><tspan x="0" y="0">aptamer</tspan></text>
  </g>
</svg>