<?xml version="1.0" encoding="utf-8"?>
<!-- Generator: Adobe Illustrator 25.2.0, SVG Export Plug-In . SVG Version: 6.00 Build 0)  -->
<svg version="1.1" id="图层_1" xmlns="http://www.w3.org/2000/svg" xmlns:xlink="http://www.w3.org/1999/xlink" x="0px" y="0px"
	 viewBox="0 0 800 400" style="enable-background:new 0 0 800 400;" xml:space="preserve">
<style type="text/css">
	.st0{fill:#09FEFE;}
	.st1{font-family:'ArialMT';}
	.st2{font-size:18.12px;}
	.st3{letter-spacing:-1;}
	.st4{fill:#FF00FF;}
	.st5{fill:none;stroke:#000000;stroke-width:0.14;stroke-miterlimit:1.11;}
	.st6{fill:#FF870A;}
	.st7{stroke:#000000;stroke-width:0.14;stroke-miterlimit:1.11;}
	.st8{fill:#FFFFFF;stroke:#000000;stroke-width:0.14;stroke-miterlimit:1.11;}
	.st9{font-size:20px;}
	.st10{fill:#FFFF33;stroke:#FFFF00;stroke-miterlimit:10;}
	.st11{font-size:12.88px;}
	.st12{font-size:15px;}
</style>
<g id="ID000002">
	<text transform="matrix(1 0 0 1 237.34 178.25)" class="st0 st1 st2">G</text>
</g>
<g id="ID000003">
	<text transform="matrix(1 0 0 1 255.27 178.25)" class="st0 st1 st2">G</text>
</g>
<g id="ID000004">
	<text transform="matrix(1 0 0 1 273.71 178.25)" class="st0 st1 st2">C</text>
</g>
<g id="ID000005">
	<text transform="matrix(1 0 0 1 291.14 178.25)" class="st0 st1 st2">G</text>
</g>
<g id="ID000006">
	<text transform="matrix(1 0 0 1 309.58 178.25)" class="st0 st1 st2">U</text>
</g>
<g id="ID000007">
	<text transform="matrix(1 0 0 1 327.01 178.25)" class="st0 st1 st2">G</text>
</g>
<g id="ID000008">
	<text transform="matrix(1 0 0 1 345.44 178.25)" class="st0 st1 st2">U</text>
</g>
<g id="ID000009">
	<text transform="matrix(1 0 0 1 363.88 178.25)" class="st0 st1 st2 st3">A</text>
</g>
<g id="ID000010">
	<text transform="matrix(1 0 0 1 380.81 178.25)" class="st0 st1 st2">G</text>
</g>
<g id="ID000011">
	<text transform="matrix(1 0 0 1 398.74 178.25)" class="st4 st1 st2">G</text>
</g>
<g id="ID000012">
	<line class="st5" x1="405.8" y1="158.2" x2="405.8" y2="146.3"/>
</g>
<g id="ID000013">
	<text transform="matrix(1 0 0 1 395.71 141.78)" class="st1 st2">10</text>
</g>
<g id="ID000014">
	<text transform="matrix(1 0 0 1 403.71 214.12)" class="st4 st1 st2 st3">A</text>
</g>
<g id="ID000015">
	<text transform="matrix(1 0 0 1 380.81 214.12)" class="st0 st1 st2">G</text>
</g>
<g id="ID000016">
	<text transform="matrix(1 0 0 1 362.87 214.12)" class="st0 st1 st2">G</text>
</g>
<g id="ID000017">
	<text transform="matrix(1 0 0 1 345.95 214.12)" class="st0 st1 st2 st3">A</text>
</g>
<g id="ID000018">
	<text transform="matrix(1 0 0 1 327.51 214.12)" class="st0 st1 st2">C</text>
</g>
<g id="ID000019">
	<line class="st5" x1="334" y1="218" x2="334" y2="230"/>
</g>
<g id="ID000020">
	<text transform="matrix(1 0 0 1 323.98 251.12)" class="st1 st2">30</text>
</g>
<g id="ID000021">
	<text transform="matrix(1 0 0 1 310.08 214.12)" class="st0 st1 st2 st3">A</text>
</g>
<g id="ID000022">
	<text transform="matrix(1 0 0 1 291.64 214.12)" class="st0 st1 st2">C</text>
</g>
<g id="ID000023">
	<text transform="matrix(1 0 0 1 273.21 214.12)" class="st0 st1 st2">G</text>
</g>
<g id="ID000024">
	<text transform="matrix(1 0 0 1 255.77 214.12)" class="st0 st1 st2">C</text>
</g>
<g id="ID000025">
	<text transform="matrix(1 0 0 1 237.84 214.12)" class="st0 st1 st2">C</text>
</g>
<g id="ID000026">
	<line class="st5" x1="244.4" y1="177.4" x2="244.4" y2="198.9"/>
</g>
<g id="ID000027">
	<line class="st5" x1="262.3" y1="177.4" x2="262.3" y2="198.9"/>
</g>
<g id="ID000028">
	<line class="st5" x1="280.2" y1="177.4" x2="280.2" y2="198.9"/>
</g>
<g id="ID000029">
	<line class="st5" x1="298.2" y1="177.4" x2="298.2" y2="198.9"/>
</g>
<g id="ID000030">
	<line class="st5" x1="316.1" y1="177.4" x2="316.1" y2="198.9"/>
</g>
<g id="ID000031">
	<line class="st5" x1="334" y1="177.4" x2="334" y2="198.9"/>
</g>
<g id="ID000032">
	<line class="st5" x1="352" y1="177.4" x2="352" y2="198.9"/>
</g>
<g id="ID000038">
	<text transform="matrix(1 0 0 1 417.68 160.32)" class="st0 st1 st2 st3">A</text>
</g>
<g id="ID000039">
	<text transform="matrix(1 0 0 1 435.11 178.25)" class="st4 st1 st2">U</text>
</g>
<g id="ID000040">
	<text transform="matrix(1 0 0 1 453.55 178.25)" class="st6 st1 st2 st3">A</text>
</g>
<g id="ID000041">
	<text transform="matrix(1 0 0 1 470.98 178.25)" class="st6 st1 st2">U</text>
</g>
<g id="ID000042">
	<text transform="matrix(1 0 0 1 488.41 178.25)" class="st6 st1 st2">G</text>
</g>
<g id="ID000043">
	<text transform="matrix(1 0 0 1 506.85 178.25)" class="st6 st1 st2">C</text>
</g>
<g id="ID000044">
	<text transform="matrix(1 0 0 1 524.78 178.25)" class="st6 st1 st2">U</text>
</g>
<g id="ID000045">
	<text transform="matrix(1 0 0 1 542.72 187.22)" class="st6 st1 st2">U</text>
</g>
<g id="ID000046">
	<text transform="matrix(1 0 0 1 542.72 209.63)" class="st6 st1 st2">C</text>
</g>
<g id="ID000047">
	<text transform="matrix(1 0 0 1 524.28 214.12)" class="st6 st1 st2">G</text>
</g>
<g id="ID000048">
	<line class="st5" x1="531.3" y1="218" x2="531.3" y2="230"/>
</g>
<g id="ID000049">
	<text transform="matrix(1 0 0 1 521.25 251.12)" class="st1 st2">20</text>
</g>
<g id="ID000050">
	<text transform="matrix(1 0 0 1 506.35 214.12)" class="st6 st1 st2">G</text>
</g>
<g id="ID000051">
	<text transform="matrix(1 0 0 1 488.92 214.12)" class="st6 st1 st2">C</text>
</g>
<g id="ID000052">
	<text transform="matrix(1 0 0 1 471.48 214.12)" class="st6 st1 st2 st3">A</text>
</g>
<g id="ID000053">
	<text transform="matrix(1 0 0 1 452.54 214.12)" class="st6 st1 st2">G</text>
</g>
<g id="ID000054">
	<text transform="matrix(1 0 0 1 431.61 214.12)" class="st4 st1 st2 st3">A</text>
</g>
<g id="ID000055">
	<line class="st5" x1="477.5" y1="177.4" x2="477.5" y2="198.9"/>
</g>
<g id="ID000056">
	<line class="st5" x1="495.5" y1="177.4" x2="495.5" y2="198.9"/>
</g>
<g id="ID000057">
	<line class="st5" x1="513.4" y1="177.4" x2="513.4" y2="198.9"/>
</g>
<g id="ID000059">
	<line class="st5" x1="413" y1="170.2" x2="434.5" y2="170.2"/>
</g>
<g id="ID000060">
	<polygon class="st7" points="414.4,170.2 421.4,174.2 421.4,166.1 	"/>
</g>
<g id="ID000061">
	<polygon class="st7" points="432,166.6 424.8,166.6 424.8,173.8 432,173.8 	"/>
</g>
<g id="ID000062">
	<polyline class="st5" points="430.9,152.2 526.8,152.2 526.8,161.2 528.1,163.8 	"/>
</g>
<g id="ID000063">
	<polygon class="st8" points="482.5,152.2 482.5,152 482.4,151.8 482.4,151.6 482.3,151.3 482.3,151.1 482.2,150.9 482.1,150.7 
		482,150.5 481.9,150.3 481.8,150.1 481.6,149.9 481.5,149.8 481.3,149.6 481.1,149.5 481,149.3 480.8,149.2 480.6,149.1 480.4,149 
		480.1,148.9 479.9,148.8 479.7,148.8 479.5,148.7 479.3,148.7 479,148.7 478.8,148.7 478.6,148.7 478.4,148.7 478.1,148.7 
		477.9,148.8 477.7,148.9 477.5,148.9 477.3,149 477.1,149.1 476.9,149.3 476.7,149.4 476.5,149.5 476.4,149.7 476.2,149.9 476,150 
		475.9,150.2 475.8,150.4 475.7,150.6 475.6,150.8 475.5,151 475.4,151.2 475.4,151.5 475.3,151.7 475.3,151.9 475.3,152.1 
		475.3,152.4 475.3,152.6 475.3,152.8 475.4,153 475.4,153.3 475.5,153.5 475.6,153.7 475.7,153.9 475.8,154.1 475.9,154.3 
		476,154.5 476.2,154.6 476.4,154.8 476.5,155 476.7,155.1 476.9,155.2 477.1,155.4 477.3,155.5 477.5,155.6 477.7,155.6 
		477.9,155.7 478.1,155.8 478.4,155.8 478.6,155.8 478.8,155.8 479,155.8 479.3,155.8 479.5,155.8 479.7,155.7 479.9,155.7 
		480.1,155.6 480.4,155.5 480.6,155.4 480.8,155.3 481,155.2 481.1,155 481.3,154.9 481.5,154.7 481.6,154.6 481.8,154.4 
		481.9,154.2 482,154 482.1,153.8 482.2,153.6 482.3,153.4 482.3,153.1 482.4,152.9 482.4,152.7 482.5,152.5 	"/>
</g>
<g id="ID000064">
	<line class="st5" x1="439.7" y1="177.4" x2="439.7" y2="198.9"/>
</g>
<g id="ID000065">
	<polygon class="st8" points="439.7,179.9 439.4,179.9 439.2,179.9 439,179.9 438.8,180 438.5,180 438.3,180.1 438.1,180.2 
		437.9,180.3 437.7,180.4 437.5,180.6 437.4,180.7 437.2,180.9 437,181 436.9,181.2 436.7,181.4 436.6,181.6 436.5,181.8 436.4,182 
		436.3,182.2 436.2,182.4 436.2,182.6 436.1,182.8 436.1,183.1 436.1,183.3 436.1,183.5 436.1,183.7 436.1,184 436.1,184.2 
		436.2,184.4 436.3,184.6 436.4,184.8 436.4,185 436.5,185.2 436.7,185.4 436.8,185.6 437,185.8 437.1,186 437.3,186.1 437.4,186.3 
		437.6,186.4 437.8,186.5 438,186.6 438.2,186.7 438.4,186.8 438.6,186.9 438.9,186.9 439.1,187 439.3,187 439.5,187 439.8,187 
		440,187 440.2,187 440.5,186.9 440.7,186.9 440.9,186.8 441.1,186.7 441.3,186.6 441.5,186.5 441.7,186.4 441.9,186.3 442,186.1 
		442.2,186 442.4,185.8 442.5,185.6 442.6,185.4 442.8,185.2 442.9,185 443,184.8 443,184.6 443.1,184.4 443.2,184.2 443.2,184 
		443.2,183.7 443.2,183.5 443.2,183.3 443.2,183.1 443.2,182.8 443.1,182.6 443.1,182.4 443,182.2 442.9,182 442.8,181.8 
		442.7,181.6 442.6,181.4 442.4,181.2 442.3,181 442.1,180.9 442,180.7 441.8,180.6 441.6,180.4 441.4,180.3 441.2,180.2 441,180.1 
		440.8,180 440.6,180 440.3,179.9 440.1,179.9 439.9,179.9 	"/>
</g>
<g id="ID000066">
	<polygon class="st8" points="443.2,196.4 443.2,189.2 436.1,189.2 436.1,196.4 	"/>
</g>
<g id="ID000067">
	<line class="st5" x1="459.6" y1="177.4" x2="459.6" y2="198.9"/>
</g>
<g id="ID000068">
	<polygon class="st8" points="456,179.9 456,187 463.2,187 463.2,179.9 	"/>
</g>
<g id="ID000069">
	<polygon class="st8" points="459.6,197.4 463.6,190.4 455.6,190.4 	"/>
</g>
<g id="ID000070">
	<line class="st5" x1="531.3" y1="177.4" x2="531.3" y2="198.9"/>
</g>
<g id="ID000071">
	<polygon class="st8" points="531.3,178.8 527.3,185.8 535.4,185.8 	"/>
</g>
<g id="ID000072">
	<polygon class="st8" points="531.3,196.4 531.6,196.4 531.8,196.3 532,196.3 532.2,196.2 532.5,196.2 532.7,196.1 532.9,196 
		533.1,195.9 533.3,195.8 533.5,195.7 533.6,195.5 533.8,195.4 534,195.2 534.1,195 534.2,194.9 534.4,194.7 534.5,194.5 
		534.6,194.3 534.7,194.1 534.8,193.8 534.8,193.6 534.9,193.4 534.9,193.2 534.9,192.9 534.9,192.7 534.9,192.5 534.9,192.3 
		534.8,192 534.8,191.8 534.7,191.6 534.6,191.4 534.5,191.2 534.4,191 534.3,190.8 534.2,190.6 534,190.4 533.9,190.3 533.7,190.1 
		533.5,190 533.4,189.8 533.2,189.7 533,189.6 532.8,189.5 532.6,189.4 532.3,189.3 532.1,189.3 531.9,189.2 531.7,189.2 
		531.4,189.2 531.2,189.2 531,189.2 530.8,189.2 530.5,189.3 530.3,189.3 530.1,189.4 529.9,189.5 529.7,189.6 529.5,189.7 
		529.3,189.8 529.1,190 528.9,190.1 528.8,190.3 528.6,190.4 528.5,190.6 528.3,190.8 528.2,191 528.1,191.2 528,191.4 527.9,191.6 
		527.9,191.8 527.8,192 527.8,192.3 527.8,192.5 527.7,192.7 527.8,192.9 527.8,193.2 527.8,193.4 527.8,193.6 527.9,193.8 
		528,194.1 528.1,194.3 528.2,194.5 528.3,194.7 528.4,194.9 528.5,195 528.7,195.2 528.8,195.4 529,195.5 529.2,195.7 529.4,195.8 
		529.6,195.9 529.8,196 530,196.1 530.2,196.2 530.4,196.2 530.7,196.3 530.9,196.3 531.1,196.4 	"/>
</g>
<g id="ID000073">
	<line class="st5" x1="250.8" y1="173.4" x2="309.7" y2="202.8"/>
</g>
<g id="ID000074">
	<polygon class="st8" points="285.1,186.5 278.6,183.3 275.4,189.7 281.9,192.9 	"/>
</g>
<g id="ID000075">
	<polyline class="st5" points="298.2,213.2 298.2,228.5 244.4,228.5 244.4,213.2 	"/>
</g>
<g id="ID000076">
	<polygon class="st7" points="267.7,232.1 274.9,232.1 274.9,224.9 267.7,224.9 	"/>
</g>
<g id="ID000077">
	<line class="st5" x1="369.9" y1="177.4" x2="369.9" y2="198.9"/>
</g>
<g id="ID000078">
	<polygon class="st7" points="369.9,191.7 370.1,191.7 370.4,191.7 370.6,191.6 370.8,191.6 371,191.5 371.3,191.4 371.5,191.4 
		371.7,191.2 371.9,191.1 372,191 372.2,190.9 372.4,190.7 372.6,190.6 372.7,190.4 372.8,190.2 373,190 373.1,189.8 373.2,189.6 
		373.3,189.4 373.4,189.2 373.4,189 373.5,188.7 373.5,188.5 373.5,188.3 373.5,188.1 373.5,187.8 373.5,187.6 373.4,187.4 
		373.4,187.2 373.3,186.9 373.2,186.7 373.1,186.5 373,186.3 372.9,186.1 372.8,185.9 372.6,185.8 372.5,185.6 372.3,185.4 
		372.1,185.3 372,185.2 371.8,185 371.6,184.9 371.4,184.8 371.1,184.7 370.9,184.7 370.7,184.6 370.5,184.6 370.3,184.5 370,184.5 
		369.8,184.5 369.6,184.5 369.4,184.6 369.1,184.6 368.9,184.7 368.7,184.7 368.5,184.8 368.3,184.9 368.1,185 367.9,185.2 
		367.7,185.3 367.5,185.4 367.4,185.6 367.2,185.8 367.1,185.9 366.9,186.1 366.8,186.3 366.7,186.5 366.6,186.7 366.5,186.9 
		366.5,187.2 366.4,187.4 366.4,187.6 366.4,187.8 366.3,188.1 366.3,188.3 366.4,188.5 366.4,188.7 366.4,189 366.5,189.2 
		366.6,189.4 366.7,189.6 366.8,189.8 366.9,190 367,190.2 367.1,190.4 367.3,190.6 367.5,190.7 367.6,190.9 367.8,191 368,191.1 
		368.2,191.2 368.4,191.4 368.6,191.4 368.8,191.5 369,191.6 369.2,191.6 369.5,191.7 369.7,191.7 	"/>
</g>
<g id="ID000079">
	<line class="st5" x1="387.9" y1="177.4" x2="387.9" y2="198.9"/>
</g>
<g id="ID000080">
	<polygon class="st7" points="387.9,191.7 388.1,191.7 388.3,191.7 388.5,191.6 388.8,191.6 389,191.5 389.2,191.4 389.4,191.4 
		389.6,191.2 389.8,191.1 390,191 390.2,190.9 390.3,190.7 390.5,190.6 390.6,190.4 390.8,190.2 390.9,190 391,189.8 391.1,189.6 
		391.2,189.4 391.3,189.2 391.3,189 391.4,188.7 391.4,188.5 391.4,188.3 391.4,188.1 391.4,187.8 391.4,187.6 391.4,187.4 
		391.3,187.2 391.2,186.9 391.2,186.7 391.1,186.5 391,186.3 390.8,186.1 390.7,185.9 390.6,185.8 390.4,185.6 390.2,185.4 
		390.1,185.3 389.9,185.2 389.7,185 389.5,184.9 389.3,184.8 389.1,184.7 388.9,184.7 388.6,184.6 388.4,184.6 388.2,184.5 
		388,184.5 387.7,184.5 387.5,184.5 387.3,184.6 387.1,184.6 386.9,184.7 386.6,184.7 386.4,184.8 386.2,184.9 386,185 385.8,185.2 
		385.6,185.3 385.5,185.4 385.3,185.6 385.1,185.8 385,185.9 384.9,186.1 384.8,186.3 384.6,186.5 384.5,186.7 384.5,186.9 
		384.4,187.2 384.4,187.4 384.3,187.6 384.3,187.8 384.3,188.1 384.3,188.3 384.3,188.5 384.3,188.7 384.4,189 384.4,189.2 
		384.5,189.4 384.6,189.6 384.7,189.8 384.8,190 384.9,190.2 385.1,190.4 385.2,190.6 385.4,190.7 385.5,190.9 385.7,191 
		385.9,191.1 386.1,191.2 386.3,191.4 386.5,191.4 386.7,191.5 387,191.6 387.2,191.6 387.4,191.7 387.6,191.7 	"/>
</g>
<g>
	<text transform="matrix(1 0 0 1 208.91 25.84)" class="st1 st9">FMN</text>
	<text transform="matrix(1 0 0 1 256.68 25.84)" class="st1 st9">Aptamer</text>
</g>
<ellipse class="st10" cx="415.8" cy="189.2" rx="22.6" ry="7"/>
<text transform="matrix(1.19 0 0 1 399.7002 193.9399)" class="st1 st11">FMN</text>
<text transform="matrix(1 0 0 1 227.07 166.59)" class="st1 st12">5</text>
<text transform="matrix(1 0 0 1 235.41 166.59)" class="st1 st12">’</text>
<text transform="matrix(1 0 0 1 227.18 224.88)" class="st1 st12">3</text>
<text transform="matrix(1 0 0 1 235.52 224.88)" class="st1 st12">’</text>
</svg>
