<?xml version="1.0" encoding="utf-8"?>
<!-- Generator: Adobe Illustrator 25.2.0, SVG Export Plug-In . SVG Version: 6.00 Build 0)  -->
<svg version="1.1" id="图层_1" xmlns="http://www.w3.org/2000/svg" xmlns:xlink="http://www.w3.org/1999/xlink" x="0px" y="0px"
	 viewBox="0 0 800 400" style="enable-background:new 0 0 800 400;" xml:space="preserve">
<style type="text/css">
	.st0{fill:#FF7F0E;}
	.st1{font-family:'ArialMT';}
	.st2{font-size:12.46px;}
	.st3{fill:none;stroke:#000000;stroke-width:0.5;}
	.st4{fill:#FF00FF;}
	.st5{fill:#32CD32;}
	.st6{stroke:#000000;stroke-width:0.5;}
	.st7{fill:#FFFFFF;stroke:#000000;stroke-width:0.5;}
	.st8{fill:#C2C2FF;}
	.st9{font-size:20px;}
</style>
<g id="topgroup">
	<g id="ID000000">
		<g id="ID000002">
			<text transform="matrix(1 0 0 1 383.72 116.57)" class="st0 st1 st2">G</text>
		</g>
		<g id="ID000003">
			<text transform="matrix(1 0 0 1 383.72 128.77)" class="st0 st1 st2">G</text>
		</g>
		<g id="ID000004">
			<text transform="matrix(1 0 0 1 383.72 140.97)" class="st0 st1 st2">G</text>
		</g>
		<g id="ID000005">
			<text transform="matrix(1 0 0 1 383.72 153.17)" class="st0 st1 st2">G</text>
		</g>
		<g id="ID000006">
			<text transform="matrix(1 0 0 1 384.07 165.37)" class="st0 st1 st2">U</text>
		</g>
		<g id="ID000007">
			<text transform="matrix(1 0 0 1 384.41 177.58)" class="st0 st1 st2">A</text>
		</g>
		<g id="ID000008">
			<text transform="matrix(1 0 0 1 381.02 192.83)" class="st0 st1 st2">U</text>
		</g>
		<g id="ID000009">
			<text transform="matrix(1 0 0 1 408.47 177.58)" class="st0 st1 st2">U</text>
		</g>
		<g id="ID000010">
			<text transform="matrix(1 0 0 1 408.82 165.37)" class="st0 st1 st2">A</text>
		</g>
		<g id="ID000011">
			<text transform="matrix(1 0 0 1 408.47 153.17)" class="st0 st1 st2">C</text>
		</g>
		<g id="ID000012">
			<text transform="matrix(1 0 0 1 408.47 140.97)" class="st0 st1 st2">C</text>
		</g>
		<g id="ID000013">
			<text transform="matrix(1 0 0 1 408.47 128.77)" class="st0 st1 st2">C</text>
		</g>
		<g id="ID000014">
			<line class="st3" x1="421.1" y1="123.3" x2="429.2" y2="123.3"/>
		</g>
		<g id="ID000015">
			<text transform="matrix(1 0 0 1 429.24 128.77)" class="st1 st2">70</text>
		</g>
		<g id="ID000016">
			<text transform="matrix(1 0 0 1 408.47 116.57)" class="st0 st1 st2">C</text>
		</g>
		<g id="ID000017">
			<text transform="matrix(1 0 0 1 408.82 104.37)" class="st0 st1 st2">A</text>
		</g>
		<g id="ID000018">
			<text transform="matrix(1 0 0 1 408.13 92.17)" class="st0 st1 st2">G</text>
		</g>
		<g id="ID000019">
			<text transform="matrix(1 0 0 1 408.47 79.96)" class="st0 st1 st2">C</text>
		</g>
		<g id="ID000020">
			<text transform="matrix(1 0 0 1 408.47 67.76)" class="st0 st1 st2">C</text>
		</g>
		<g id="ID000021">
			<text transform="matrix(1 0 0 1 408.82 55.56)" class="st0 st1 st2">A</text>
		</g>
		<g id="ID000022">
			<line class="st3" x1="393.4" y1="111.1" x2="408.1" y2="111.1"/>
		</g>
		<g id="ID000023">
			<line class="st3" x1="393.4" y1="123.3" x2="408.1" y2="123.3"/>
		</g>
		<g id="ID000024">
			<line class="st3" x1="393.4" y1="135.5" x2="408.1" y2="135.5"/>
		</g>
		<g id="ID000025">
			<line class="st3" x1="393.4" y1="147.7" x2="408.1" y2="147.7"/>
		</g>
		<g id="ID000026">
			<line class="st3" x1="393.4" y1="159.9" x2="408.1" y2="159.9"/>
		</g>
		<g id="ID000027">
			<line class="st3" x1="393.4" y1="172.1" x2="408.1" y2="172.1"/>
		</g>
		<g id="ID000029">
			<text transform="matrix(1 0 0 1 374.92 208.08)" class="st0 st1 st2">C</text>
		</g>
		<g id="ID000030">
			<text transform="matrix(1 0 0 1 362.37 215.27)" class="st4 st1 st2">G</text>
		</g>
		<g id="ID000031">
			<text transform="matrix(1 0 0 1 350.52 215.27)" class="st4 st1 st2">C</text>
		</g>
		<g id="ID000032">
			<text transform="matrix(1 0 0 1 338.31 215.27)" class="st4 st1 st2">C</text>
		</g>
		<g id="ID000033">
			<text transform="matrix(1 0 0 1 326.46 215.27)" class="st4 st1 st2">A</text>
		</g>
		<g id="ID000034">
			<text transform="matrix(1 0 0 1 314.26 203.07)" class="st4 st1 st2">A</text>
		</g>
		<g id="ID000035">
			<text transform="matrix(1 0 0 1 298.31 196.97)" class="st4 st1 st2">G</text>
		</g>
		<g id="ID000036">
			<text transform="matrix(1 0 0 1 283.41 203.07)" class="st0 st1 st2">C</text>
		</g>
		<g id="ID000037">
			<text transform="matrix(1 0 0 1 270.86 221.37)" class="st0 st1 st2">G</text>
		</g>
		<g id="ID000038">
			<text transform="matrix(1 0 0 1 276.96 235.53)" class="st0 st1 st2">G</text>
		</g>
		<g id="ID000039">
			<text transform="matrix(1 0 0 1 295.61 247.73)" class="st0 st1 st2">U</text>
		</g>
		<g id="ID000040">
			<line class="st3" x1="300.1" y1="250.4" x2="300.1" y2="258.5"/>
		</g>
		<g id="ID000041">
			<text transform="matrix(1 0 0 1 290.84 272.91)" class="st1 st2">20</text>
		</g>
		<g id="ID000042">
			<text transform="matrix(1 0 0 1 311.2 241.63)" class="st0 st1 st2">A</text>
		</g>
		<g id="ID000043">
			<text transform="matrix(1 0 0 1 326.46 241.63)" class="st0 st1 st2">A</text>
		</g>
		<g id="ID000044">
			<text transform="matrix(1 0 0 1 337.97 238.58)" class="st0 st1 st2">G</text>
		</g>
		<g id="ID000045">
			<text transform="matrix(1 0 0 1 350.17 238.58)" class="st0 st1 st2">G</text>
		</g>
		<g id="ID000046">
			<text transform="matrix(1 0 0 1 362.72 238.58)" class="st0 st1 st2">C</text>
		</g>
		<g id="ID000047">
			<text transform="matrix(1 0 0 1 375.26 238.58)" class="st0 st1 st2">A</text>
		</g>
		<g id="ID000048">
			<line class="st3" x1="367.2" y1="213.6" x2="367.2" y2="228.2"/>
		</g>
		<g id="ID000049">
			<line class="st3" x1="355" y1="213.6" x2="355" y2="228.2"/>
		</g>
		<g id="ID000050">
			<line class="st3" x1="342.8" y1="213.6" x2="342.8" y2="228.2"/>
		</g>
		<g id="ID000052">
			<text transform="matrix(1 0 0 1 377.97 253.83)" class="st0 st1 st2">C</text>
		</g>
		<g id="ID000053">
			<text transform="matrix(1 0 0 1 377.97 266.04)" class="st0 st1 st2">C</text>
		</g>
		<g id="ID000054">
			<text transform="matrix(1 0 0 1 377.62 278.24)" class="st0 st1 st2">G</text>
		</g>
		<g id="ID000055">
			<text transform="matrix(1 0 0 1 377.62 290.44)" class="st0 st1 st2">G</text>
		</g>
		<g id="ID000056">
			<line class="st3" x1="374.3" y1="285" x2="366.2" y2="285"/>
		</g>
		<g id="ID000057">
			<text transform="matrix(1 0 0 1 352.34 290.44)" class="st1 st2">30</text>
		</g>
		<g id="ID000058">
			<text transform="matrix(1 0 0 1 378.31 302.64)" class="st0 st1 st2">A</text>
		</g>
		<g id="ID000059">
			<text transform="matrix(1 0 0 1 368.82 314.84)" class="st0 st1 st2">U</text>
		</g>
		<g id="ID000060">
			<text transform="matrix(1 0 0 1 362.72 330.09)" class="st0 st1 st2">U</text>
		</g>
		<g id="ID000061">
			<text transform="matrix(1 0 0 1 374.92 339.25)" class="st0 st1 st2">C</text>
		</g>
		<g id="ID000062">
			<text transform="matrix(1 0 0 1 390.17 345.35)" class="st0 st1 st2">U</text>
		</g>
		<g id="ID000063">
			<text transform="matrix(1 0 0 1 405.08 342.3)" class="st0 st1 st2">G</text>
		</g>
		<g id="ID000064">
			<text transform="matrix(1 0 0 1 417.97 330.09)" class="st0 st1 st2">A</text>
		</g>
		<g id="ID000065">
			<text transform="matrix(1 0 0 1 414.57 314.84)" class="st0 st1 st2">U</text>
		</g>
		<g id="ID000066">
			<text transform="matrix(1 0 0 1 402.37 302.64)" class="st0 st1 st2">U</text>
		</g>
		<g id="ID000067">
			<text transform="matrix(1 0 0 1 402.37 290.44)" class="st0 st1 st2">C</text>
		</g>
		<g id="ID000068">
			<line class="st3" x1="415" y1="285" x2="423.1" y2="285"/>
		</g>
		<g id="ID000069">
			<text transform="matrix(1 0 0 1 423.14 290.44)" class="st1 st2">40</text>
		</g>
		<g id="ID000070">
			<text transform="matrix(1 0 0 1 402.37 278.24)" class="st0 st1 st2">C</text>
		</g>
		<g id="ID000071">
			<text transform="matrix(1 0 0 1 402.03 266.04)" class="st0 st1 st2">G</text>
		</g>
		<g id="ID000072">
			<text transform="matrix(1 0 0 1 402.03 253.83)" class="st0 st1 st2">G</text>
		</g>
		<g id="ID000073">
			<g>
				<text transform="matrix(1 0 0 1 417.97 247.73)" class="st5 st1 st2">A</text>
			</g>
		</g>
		<g id="ID000074">
			<g>
				<text transform="matrix(1 0 0 1 432.53 244.68)" class="st5 st1 st2">G</text>
			</g>
		</g>
		<g id="ID000075">
			<g>
				<text transform="matrix(1 0 0 1 441.68 229.43)" class="st5 st1 st2">G</text>
			</g>
		</g>
		<g id="ID000076">
			<line class="st3" x1="387.4" y1="248.3" x2="402" y2="248.3"/>
		</g>
		<g id="ID000077">
			<line class="st3" x1="387.4" y1="260.5" x2="402" y2="260.5"/>
		</g>
		<g id="ID000078">
			<line class="st3" x1="387.4" y1="272.8" x2="402" y2="272.8"/>
		</g>
		<g id="ID000079">
			<line class="st3" x1="387.4" y1="285" x2="402" y2="285"/>
		</g>
		<g id="ID000080">
			<line class="st3" x1="387.4" y1="297.1" x2="402" y2="297.1"/>
		</g>
		<g id="ID000082">
			<g>
				<text transform="matrix(1 0 0 1 426.78 217.23)" class="st5 st1 st2">U</text>
			</g>
		</g>
		<g id="ID000083">
			<text transform="matrix(1 0 0 1 423.73 201.98)" class="st0 st1 st2">C</text>
		</g>
		<g id="ID000084">
			<text transform="matrix(1 0 0 1 435.58 201.98)" class="st0 st1 st2">G</text>
		</g>
		<g id="ID000085">
			<line class="st3" x1="446.2" y1="202.2" x2="451.9" y2="208"/>
		</g>
		<g id="ID000086">
			<text transform="matrix(1 0 0 1 448.13 218.45)" class="st1 st2">50</text>
		</g>
		<g id="ID000087">
			<text transform="matrix(1 0 0 1 448.47 201.98)" class="st0 st1 st2">A</text>
		</g>
		<g id="ID000088">
			<text transform="matrix(1 0 0 1 459.98 201.98)" class="st0 st1 st2">G</text>
		</g>
		<g id="ID000089">
			<text transform="matrix(1 0 0 1 472.18 201.98)" class="st0 st1 st2">G</text>
		</g>
		<g id="ID000090">
			<text transform="matrix(1 0 0 1 487.78 211.13)" class="st0 st1 st2">U</text>
		</g>
		<g id="ID000091">
			<text transform="matrix(1 0 0 1 503.03 217.23)" class="st0 st1 st2">U</text>
		</g>
		<g id="ID000092">
			<text transform="matrix(1 0 0 1 518.29 211.13)" class="st0 st1 st2">C</text>
		</g>
		<g id="ID000093">
			<text transform="matrix(1 0 0 1 524.04 195.88)" class="st0 st1 st2">G</text>
		</g>
		<g id="ID000094">
			<text transform="matrix(1 0 0 1 518.63 180.63)" class="st0 st1 st2">A</text>
		</g>
		<g id="ID000095">
			<text transform="matrix(1 0 0 1 503.38 171.47)" class="st0 st1 st2">A</text>
		</g>
		<g id="ID000096">
			<text transform="matrix(1 0 0 1 487.78 174.53)" class="st0 st1 st2">U</text>
		</g>
		<g id="ID000097">
			<line class="st3" x1="492.3" y1="160.9" x2="492.3" y2="152.8"/>
		</g>
		<g id="ID000098">
			<text transform="matrix(1 0 0 1 485.35 149.72)" class="st1 st2">60</text>
		</g>
		<g id="ID000099">
			<text transform="matrix(1 0 0 1 472.53 177.58)" class="st0 st1 st2">C</text>
		</g>
		<g id="ID000100">
			<text transform="matrix(1 0 0 1 460.33 177.58)" class="st0 st1 st2">C</text>
		</g>
		<g id="ID000101">
			<text transform="matrix(1 0 0 1 448.13 177.58)" class="st0 st1 st2">U</text>
		</g>
		<g id="ID000102">
			<text transform="matrix(1 0 0 1 435.93 177.58)" class="st0 st1 st2">C</text>
		</g>
		<g id="ID000103">
			<text transform="matrix(1 0 0 1 423.38 177.58)" class="st0 st1 st2">G</text>
		</g>
		<g id="ID000104">
			<line class="st3" x1="428.2" y1="191.6" x2="428.2" y2="177"/>
		</g>
		<g id="ID000105">
			<line class="st3" x1="440.4" y1="191.6" x2="440.4" y2="177"/>
		</g>
		<g id="ID000106">
			<line class="st3" x1="452.6" y1="191.6" x2="452.6" y2="177"/>
		</g>
		<g id="ID000107">
			<line class="st3" x1="464.8" y1="191.6" x2="464.8" y2="177"/>
		</g>
		<g id="ID000108">
			<line class="st3" x1="477" y1="191.6" x2="477" y2="177"/>
		</g>
		<g id="ID000110">
			<polyline class="st3" points="281.8,234.9 282,367.3 522.8,367.3 522.8,210.5 			"/>
		</g>
		<g id="ID000111">
			<polygon class="st6" points="404.8,367.3 404.8,367.1 404.8,367 404.8,366.9 404.8,366.7 404.7,366.5 404.7,366.4 404.6,366.3 
				404.5,366.1 404.5,366 404.4,365.9 404.3,365.7 404.2,365.6 404.1,365.5 403.9,365.4 403.8,365.3 403.7,365.2 403.6,365.2 
				403.4,365.1 403.3,365 403.1,365 403,364.9 402.8,364.9 402.7,364.9 402.5,364.9 402.4,364.9 402.2,364.9 402.1,364.9 
				401.9,364.9 401.8,365 401.6,365 401.5,365.1 401.3,365.1 401.2,365.2 401.1,365.3 400.9,365.4 400.8,365.5 400.7,365.6 
				400.6,365.7 400.5,365.8 400.4,365.9 400.3,366.1 400.2,366.2 400.2,366.3 400.1,366.5 400.1,366.6 400,366.8 400,366.9 
				400,367.1 400,367.2 400,367.4 400,367.5 400,367.7 400,367.9 400.1,368 400.1,368.1 400.2,368.3 400.2,368.4 400.3,368.6 
				400.4,368.7 400.5,368.8 400.6,368.9 400.7,369 400.8,369.1 400.9,369.3 401.1,369.3 401.2,369.4 401.3,369.5 401.5,369.6 
				401.6,369.6 401.8,369.7 401.9,369.7 402.1,369.7 402.2,369.7 402.4,369.8 402.5,369.8 402.7,369.7 402.8,369.7 403,369.7 
				403.1,369.6 403.3,369.6 403.4,369.5 403.6,369.5 403.7,369.4 403.8,369.3 403.9,369.2 404.1,369.1 404.2,369 404.3,368.9 
				404.4,368.8 404.5,368.6 404.5,368.5 404.6,368.4 404.7,368.2 404.7,368.1 404.8,367.9 404.8,367.8 404.8,367.6 404.8,367.5 			
				"/>
		</g>
		<g id="ID000112">
			<line class="st3" x1="380.7" y1="188" x2="323.3" y2="195.8"/>
		</g>
		<g id="ID000113">
			<polygon class="st7" points="357.5,191.2 357.5,191 357.5,190.9 357.4,190.7 357.4,190.6 357.3,190.4 357.2,190.3 357.1,190.1 
				357.1,190 357,189.9 356.9,189.8 356.8,189.7 356.6,189.6 356.5,189.5 356.4,189.4 356.2,189.3 356.1,189.3 356,189.2 
				355.8,189.1 355.7,189.1 355.5,189.1 355.4,189.1 355.2,189.1 355.1,189 354.9,189.1 354.7,189.1 354.6,189.1 354.4,189.1 
				354.3,189.2 354.1,189.2 354,189.3 353.9,189.4 353.7,189.5 353.6,189.6 353.5,189.6 353.4,189.8 353.3,189.9 353.2,190 
				353.1,190.1 353,190.3 352.9,190.4 352.9,190.5 352.8,190.7 352.8,190.8 352.7,191 352.7,191.1 352.7,191.3 352.7,191.4 
				352.7,191.6 352.7,191.7 352.7,191.9 352.7,192 352.8,192.2 352.8,192.3 352.9,192.5 352.9,192.6 353,192.8 353.1,192.9 
				353.2,193 353.3,193.1 353.4,193.2 353.5,193.3 353.6,193.4 353.8,193.5 353.9,193.6 354,193.7 354.2,193.7 354.3,193.8 
				354.5,193.8 354.6,193.9 354.8,193.9 354.9,193.9 355.1,193.9 355.3,193.9 355.4,193.9 355.6,193.9 355.7,193.9 355.9,193.8 
				356,193.8 356.1,193.7 356.3,193.6 356.4,193.6 356.5,193.5 356.7,193.4 356.8,193.3 356.9,193.1 357,193 357.1,192.9 
				357.2,192.8 357.3,192.6 357.3,192.5 357.4,192.4 357.4,192.2 357.5,192.1 357.5,191.9 357.5,191.8 357.5,191.6 357.6,191.5 
				357.5,191.3 			"/>
		</g>
		<g id="ID000114">
			<polygon class="st7" points="346.7,195.1 351.6,194.4 350.9,189.6 346.1,190.3 			"/>
		</g>
		<g id="ID000115">
			<line class="st3" x1="495.7" y1="202.2" x2="519.3" y2="178.6"/>
		</g>
		<g id="ID000116">
			<polygon class="st7" points="503.6,194.4 503.7,194.5 503.8,194.6 503.9,194.6 504,194.7 504.2,194.8 504.3,194.9 504.5,194.9 
				504.6,195 504.8,195 504.9,195 505.1,195.1 505.2,195.1 505.4,195.1 505.5,195.1 505.7,195 505.9,195 506,195 506.1,194.9 
				506.3,194.9 506.4,194.8 506.6,194.7 506.7,194.6 506.8,194.5 506.9,194.4 507,194.3 507.1,194.2 507.2,194.1 507.3,194 
				507.4,193.8 507.5,193.7 507.5,193.6 507.6,193.4 507.6,193.3 507.7,193.1 507.7,193 507.7,192.8 507.7,192.6 507.7,192.5 
				507.7,192.3 507.7,192.2 507.7,192 507.6,191.9 507.6,191.7 507.5,191.6 507.4,191.5 507.4,191.3 507.3,191.2 507.2,191.1 
				507.1,191 507,190.9 506.8,190.8 506.7,190.6 506.6,190.6 506.5,190.5 506.3,190.4 506.2,190.4 506,190.3 505.9,190.3 
				505.7,190.2 505.6,190.2 505.4,190.2 505.3,190.2 505.1,190.2 505,190.2 504.8,190.2 504.7,190.3 504.5,190.3 504.4,190.4 
				504.2,190.4 504.1,190.5 504,190.6 503.8,190.7 503.7,190.8 503.6,190.9 503.5,191 503.4,191.1 503.3,191.2 503.2,191.4 
				503.1,191.5 503.1,191.6 503,191.8 503,191.9 502.9,192.1 502.9,192.2 502.9,192.4 502.9,192.5 502.9,192.7 502.9,192.8 
				502.9,193 502.9,193.1 502.9,193.3 503,193.4 503,193.6 503.1,193.7 503.2,193.9 503.3,194 503.4,194.1 503.5,194.2 			"/>
		</g>
		<g id="ID000117">
			<polygon class="st7" points="509.8,184.7 506.3,188.1 509.8,191.6 513.2,188.1 			"/>
		</g>
		<g id="ID000118">
			<line class="st3" x1="372.1" y1="324.6" x2="417.2" y2="324.6"/>
		</g>
		<g id="ID000119">
			<polygon class="st7" points="388.3,324.6 393.1,327.4 393.1,321.9 			"/>
		</g>
		<g id="ID000120">
			<polygon class="st7" points="400.3,322.2 395.4,322.2 395.4,327 400.3,327 			"/>
		</g>
		<g id="ID000121">
			<line class="st3" x1="378.2" y1="309.4" x2="414.2" y2="309.4"/>
		</g>
		<g id="ID000122">
			<polygon class="st6" points="398.6,309.4 398.6,309.2 398.6,309 398.6,308.9 398.6,308.7 398.5,308.6 398.5,308.4 398.4,308.3 
				398.3,308.2 398.3,308 398.2,307.9 398.1,307.8 398,307.7 397.9,307.6 397.7,307.5 397.6,307.4 397.5,307.3 397.4,307.2 
				397.2,307.1 397.1,307.1 396.9,307 396.8,307 396.6,307 396.5,306.9 396.3,306.9 396.2,306.9 396,306.9 395.9,306.9 395.7,307 
				395.5,307 395.4,307 395.3,307.1 395.1,307.2 395,307.2 394.8,307.3 394.7,307.4 394.6,307.5 394.5,307.6 394.4,307.7 
				394.3,307.8 394.2,308 394.1,308.1 394,308.2 394,308.4 393.9,308.5 393.9,308.7 393.8,308.8 393.8,309 393.8,309.1 393.8,309.3 
				393.8,309.4 393.8,309.6 393.8,309.7 393.8,309.9 393.9,310 393.9,310.2 394,310.3 394,310.5 394.1,310.6 394.2,310.7 
				394.3,310.9 394.4,311 394.5,311.1 394.6,311.2 394.7,311.3 394.8,311.4 395,311.5 395.1,311.5 395.3,311.6 395.4,311.7 
				395.5,311.7 395.7,311.7 395.9,311.8 396,311.8 396.2,311.8 396.3,311.8 396.5,311.8 396.6,311.8 396.8,311.7 396.9,311.7 
				397.1,311.6 397.2,311.6 397.4,311.5 397.5,311.4 397.6,311.3 397.7,311.3 397.9,311.1 398,311 398.1,310.9 398.2,310.8 
				398.3,310.7 398.3,310.5 398.4,310.4 398.5,310.3 398.5,310.1 398.6,310 398.6,309.8 398.6,309.7 398.6,309.5 			"/>
		</g>
		<g id="ID000123">
			<line class="st3" x1="330.6" y1="213.6" x2="330.6" y2="231.3"/>
		</g>
		<g id="ID000124">
			<polygon class="st7" points="330.6,216.1 327.9,220.8 333.4,220.8 			"/>
		</g>
		<g id="ID000125">
			<polygon class="st7" points="333.1,228 333.1,223.1 328.2,223.1 328.2,228 			"/>
		</g>
		<g id="ID000126">
			<line class="st3" x1="384.2" y1="234.1" x2="417.4" y2="241.2"/>
		</g>
		<g id="ID000127">
			<polygon class="st6" points="403.2,238.2 403.2,238 403.2,237.9 403.2,237.7 403.2,237.6 403.2,237.4 403.2,237.3 403.1,237.1 
				403.1,237 403.1,236.8 403,236.7 402.9,236.5 402.9,236.4 402.8,236.3 402.7,236.1 402.6,236 402.5,235.9 402.4,235.8 
				402.2,235.7 402.1,235.6 402,235.5 401.8,235.5 401.7,235.4 401.5,235.4 401.4,235.3 401.2,235.3 401.1,235.3 400.9,235.2 
				400.8,235.2 400.6,235.2 400.5,235.3 400.3,235.3 400.2,235.3 400,235.4 399.9,235.4 399.7,235.5 399.6,235.5 399.5,235.6 
				399.3,235.7 399.2,235.8 399.1,235.9 399,236 398.9,236.1 398.8,236.2 398.7,236.4 398.6,236.5 398.6,236.6 398.5,236.8 
				398.4,236.9 398.4,237.1 398.4,237.2 398.4,237.4 398.3,237.5 398.3,237.7 398.3,237.9 398.4,238 398.4,238.2 398.4,238.3 
				398.5,238.5 398.5,238.6 398.6,238.7 398.6,238.9 398.7,239 398.8,239.1 398.9,239.3 399,239.4 399.1,239.5 399.3,239.6 
				399.4,239.7 399.5,239.8 399.6,239.8 399.8,239.9 399.9,240 400.1,240 400.2,240.1 400.4,240.1 400.5,240.1 400.7,240.1 
				400.8,240.1 401,240.1 401.1,240.1 401.3,240.1 401.4,240 401.6,240 401.7,239.9 401.9,239.8 402,239.8 402.1,239.7 402.3,239.6 
				402.4,239.5 402.5,239.4 402.6,239.3 402.7,239.2 402.8,239 402.9,238.9 402.9,238.8 403,238.6 403.1,238.5 403.1,238.3 			"/>
		</g>
		<g id="ID000128">
			<polyline class="st3" points="320.6,200.9 321.5,202.6 316.2,231.3 			"/>
		</g>
		<g id="ID000129">
			<polygon class="st6" points="319.8,211.4 319.7,211.4 319.5,211.4 319.4,211.4 319.2,211.4 319.1,211.4 318.9,211.4 318.8,211.5 
				318.6,211.5 318.5,211.6 318.3,211.6 318.2,211.7 318.1,211.8 317.9,211.9 317.8,212 317.7,212.1 317.6,212.2 317.5,212.3 
				317.4,212.4 317.3,212.6 317.3,212.7 317.2,212.9 317.1,213 317.1,213.1 317,213.3 317,213.4 317,213.6 317,213.8 317,213.9 
				317,214.1 317,214.2 317,214.4 317.1,214.5 317.1,214.7 317.2,214.8 317.2,214.9 317.3,215.1 317.4,215.2 317.5,215.3 
				317.6,215.5 317.7,215.6 317.8,215.7 317.9,215.8 318.1,215.9 318.2,215.9 318.3,216 318.5,216.1 318.6,216.1 318.8,216.2 
				318.9,216.2 319.1,216.3 319.2,216.3 319.4,216.3 319.5,216.3 319.7,216.3 319.8,216.3 320,216.2 320.1,216.2 320.3,216.1 
				320.4,216.1 320.6,216 320.7,215.9 320.8,215.8 320.9,215.8 321.1,215.6 321.2,215.5 321.3,215.4 321.4,215.3 321.5,215.2 
				321.5,215 321.6,214.9 321.7,214.8 321.7,214.6 321.8,214.5 321.8,214.3 321.8,214.2 321.8,214 321.9,213.9 321.8,213.7 
				321.8,213.6 321.8,213.4 321.8,213.2 321.7,213.1 321.7,212.9 321.6,212.8 321.6,212.7 321.5,212.5 321.4,212.4 321.3,212.3 
				321.2,212.2 321.1,212.1 321,212 320.8,211.9 320.7,211.8 320.6,211.7 320.4,211.6 320.3,211.6 320.2,211.5 320,211.5 			"/>
		</g>
		<g id="ID000130">
			<polygon class="st6" points="317.7,223.2 321.3,219 315.9,218 			"/>
		</g>
		<g id="ID000131">
			<polyline class="st3" points="383.3,183 382.5,181.2 382.5,162.9 312.3,162.9 312.3,230 313.2,231.8 			"/>
		</g>
		<g id="ID000132">
			<polygon class="st7" points="353.7,162.9 349,160.2 349,165.7 			"/>
		</g>
		<g id="ID000133">
			<polygon class="st7" points="341.8,162.9 341.8,163.1 341.8,163.2 341.8,163.4 341.9,163.6 341.9,163.7 341.9,163.8 342,164 
				342.1,164.1 342.2,164.3 342.3,164.4 342.4,164.5 342.4,164.6 342.6,164.7 342.7,164.8 342.8,164.9 342.9,165 343.1,165.1 
				343.2,165.1 343.4,165.2 343.5,165.3 343.6,165.3 343.8,165.3 343.9,165.4 344.1,165.4 344.3,165.4 344.4,165.4 344.6,165.4 
				344.7,165.3 344.9,165.3 345,165.2 345.2,165.2 345.3,165.1 345.4,165.1 345.6,165 345.7,164.9 345.8,164.8 345.9,164.7 
				346,164.6 346.1,164.4 346.2,164.3 346.3,164.2 346.4,164.1 346.4,163.9 346.5,163.8 346.6,163.6 346.6,163.5 346.6,163.3 
				346.6,163.2 346.7,163 346.7,162.9 346.6,162.7 346.6,162.6 346.6,162.4 346.6,162.3 346.5,162.1 346.4,162 346.4,161.8 
				346.3,161.7 346.2,161.6 346.1,161.4 346,161.3 345.9,161.2 345.8,161.1 345.7,161 345.6,160.9 345.4,160.8 345.3,160.8 
				345.2,160.7 345,160.6 344.9,160.6 344.7,160.6 344.6,160.5 344.4,160.5 344.3,160.5 344.1,160.5 343.9,160.5 343.8,160.5 
				343.6,160.6 343.5,160.6 343.4,160.7 343.2,160.7 343.1,160.8 342.9,160.9 342.8,160.9 342.7,161 342.6,161.1 342.4,161.3 
				342.4,161.4 342.3,161.5 342.2,161.6 342.1,161.8 342,161.9 341.9,162 341.9,162.2 341.9,162.3 341.8,162.5 341.8,162.6 
				341.8,162.8 			"/>
		</g>
		<g id="ID000134">
			<polyline class="st3" points="275.7,219.7 275.7,352.1 507.5,352.1 507.5,216.6 			"/>
		</g>
		<g id="ID000135">
			<polygon class="st7" points="386,352.1 386,352.2 386,352.4 386.1,352.5 386.1,352.7 386.1,352.8 386.2,353 386.2,353.1 
				386.3,353.2 386.4,353.4 386.5,353.5 386.6,353.6 386.7,353.7 386.8,353.9 386.9,354 387,354 387.2,354.1 387.3,354.2 
				387.4,354.3 387.6,354.3 387.7,354.4 387.9,354.4 388,354.5 388.2,354.5 388.3,354.5 388.5,354.5 388.6,354.5 388.8,354.5 
				388.9,354.4 389.1,354.4 389.3,354.4 389.4,354.3 389.5,354.2 389.7,354.2 389.8,354.1 389.9,354 390,353.9 390.2,353.8 
				390.3,353.7 390.4,353.6 390.5,353.4 390.5,353.3 390.6,353.2 390.7,353 390.7,352.9 390.8,352.7 390.8,352.6 390.9,352.4 
				390.9,352.3 390.9,352.1 390.9,352 390.9,351.8 390.9,351.7 390.8,351.5 390.8,351.4 390.7,351.2 390.7,351.1 390.6,350.9 
				390.5,350.8 390.5,350.7 390.4,350.5 390.3,350.4 390.2,350.3 390,350.2 389.9,350.1 389.8,350 389.7,349.9 389.5,349.9 
				389.4,349.8 389.3,349.8 389.1,349.7 388.9,349.7 388.8,349.6 388.6,349.6 388.5,349.6 388.3,349.6 388.2,349.6 388,349.6 
				387.9,349.7 387.7,349.7 387.6,349.8 387.4,349.8 387.3,349.9 387.2,350 387,350.1 386.9,350.2 386.8,350.3 386.7,350.4 
				386.6,350.5 386.5,350.6 386.4,350.7 386.3,350.9 386.2,351 386.2,351.1 386.1,351.3 386.1,351.4 386.1,351.6 386,351.8 
				386,351.9 			"/>
		</g>
		<g id="ID000136">
			<polygon class="st7" points="398,352.1 393.2,349.3 393.2,354.8 			"/>
		</g>
		<g id="ID000137">
			<polyline class="st3" points="305.3,194.8 306.2,196.5 306.2,358.2 431.3,358.2 431.3,216.6 			"/>
		</g>
		<g id="ID000138">
			<polygon class="st7" points="371.2,358.2 371.2,358 371.2,357.9 371.1,357.7 371.1,357.5 371.1,357.4 371,357.3 370.9,357.1 
				370.9,357 370.8,356.8 370.7,356.7 370.6,356.6 370.5,356.5 370.4,356.4 370.3,356.3 370.1,356.2 370,356.1 369.9,356 
				369.8,355.9 369.6,355.9 369.5,355.8 369.3,355.8 369.2,355.8 369,355.7 368.9,355.7 368.7,355.7 368.5,355.7 368.4,355.7 
				368.2,355.8 368.1,355.8 367.9,355.9 367.8,355.9 367.6,356 367.5,356 367.4,356.1 367.3,356.2 367.1,356.3 367,356.4 
				366.9,356.5 366.8,356.6 366.7,356.8 366.6,356.9 366.6,357 366.5,357.2 366.4,357.3 366.4,357.5 366.4,357.6 366.3,357.8 
				366.3,357.9 366.3,358.1 366.3,358.2 366.3,358.4 366.3,358.5 366.4,358.7 366.4,358.9 366.4,359 366.5,359.1 366.6,359.3 
				366.6,359.4 366.7,359.5 366.8,359.7 366.9,359.8 367,359.9 367.1,360 367.3,360.1 367.4,360.2 367.5,360.3 367.6,360.3 
				367.8,360.4 367.9,360.5 368.1,360.5 368.2,360.5 368.4,360.6 368.5,360.6 368.7,360.6 368.9,360.6 369,360.6 369.2,360.6 
				369.3,360.5 369.5,360.5 369.6,360.4 369.8,360.4 369.9,360.3 370,360.2 370.1,360.1 370.3,360 370.4,360 370.5,359.8 
				370.6,359.7 370.7,359.6 370.8,359.5 370.9,359.3 370.9,359.2 371,359.1 371.1,358.9 371.1,358.8 371.1,358.6 371.2,358.5 
				371.2,358.3 			"/>
		</g>
		<g id="ID000139">
			<polyline class="st3" points="281.8,234.9 281.8,238.4 295.3,241.2 			"/>
		</g>
		<g id="ID000140">
			<polygon class="st6" points="282.4,238.5 286.4,242.2 287.6,236.8 			"/>
		</g>
		<g id="ID000141">
			<polygon class="st6" points="294.6,238.6 289.8,237.6 288.8,242.4 293.6,243.4 			"/>
		</g>
		<g id="ID000142">
			<polyline class="st3" points="327.9,212.8 324.5,217.8 324.5,233.1 324.5,257.5 324.5,382.6 446.5,382.6 446.5,228.8 			"/>
		</g>
		<g id="ID000143">
			<polygon class="st7" points="388,382.6 387.9,382.4 387.9,382.3 387.9,382.1 387.9,382 387.8,381.8 387.8,381.6 387.7,381.5 
				387.6,381.4 387.6,381.2 387.5,381.1 387.4,381 387.3,380.9 387.2,380.8 387.1,380.7 386.9,380.6 386.8,380.5 386.7,380.4 
				386.5,380.3 386.4,380.3 386.2,380.2 386.1,380.2 385.9,380.2 385.8,380.1 385.6,380.1 385.5,380.1 385.3,380.1 385.2,380.1 
				385,380.2 384.9,380.2 384.7,380.3 384.6,380.3 384.4,380.4 384.3,380.5 384.2,380.5 384,380.6 383.9,380.7 383.8,380.8 
				383.7,380.9 383.6,381 383.5,381.2 383.4,381.3 383.4,381.4 383.3,381.6 383.2,381.7 383.2,381.9 383.1,382 383.1,382.2 
				383.1,382.3 383.1,382.5 383.1,382.6 383.1,382.8 383.1,382.9 383.1,383.1 383.2,383.3 383.2,383.4 383.3,383.5 383.4,383.7 
				383.4,383.8 383.5,383.9 383.6,384.1 383.7,384.2 383.8,384.3 383.9,384.4 384,384.5 384.2,384.6 384.3,384.7 384.4,384.8 
				384.6,384.8 384.7,384.9 384.9,384.9 385,385 385.2,385 385.3,385 385.5,385 385.6,385 385.8,385 385.9,385 386.1,384.9 
				386.2,384.9 386.4,384.8 386.5,384.8 386.7,384.7 386.8,384.6 386.9,384.5 387.1,384.5 387.2,384.4 387.3,384.2 387.4,384.1 
				387.5,384 387.6,383.9 387.6,383.8 387.7,383.6 387.8,383.5 387.8,383.3 387.9,383.2 387.9,383 387.9,382.9 387.9,382.7 			"/>
		</g>
		<g id="ID000144">
			<polyline class="st3" points="376,199.1 376.4,199.5 342.8,199.5 342.8,203.8 			"/>
		</g>
		<g id="ID000145">
			<polygon class="st6" points="357.1,202 362,202 362,197.1 357.1,197.1 			"/>
		</g>
		<g id="ID000146">
			<line class="st3" x1="383.5" y1="205.2" x2="433.3" y2="236.6"/>
		</g>
		<g id="ID000147">
			<polygon class="st6" points="410.5,222.2 410.5,222.1 410.6,221.9 410.7,221.8 410.7,221.6 410.8,221.5 410.8,221.3 410.8,221.2 
				410.8,221 410.8,220.9 410.8,220.7 410.8,220.6 410.8,220.4 410.8,220.3 410.7,220.1 410.7,220 410.6,219.8 410.5,219.7 
				410.4,219.6 410.4,219.4 410.3,219.3 410.1,219.2 410,219.1 409.9,219 409.8,218.9 409.7,218.8 409.5,218.7 409.4,218.7 
				409.3,218.6 409.1,218.6 408.9,218.5 408.8,218.5 408.6,218.5 408.5,218.4 408.3,218.4 408.2,218.5 408,218.5 407.9,218.5 
				407.7,218.5 407.6,218.6 407.4,218.6 407.3,218.7 407.2,218.8 407,218.9 406.9,219 406.8,219.1 406.7,219.2 406.6,219.3 
				406.5,219.4 406.4,219.5 406.3,219.6 406.2,219.8 406.1,219.9 406.1,220.1 406.1,220.2 406,220.4 406,220.5 406,220.7 406,220.8 
				406,221 406,221.1 406,221.3 406,221.4 406.1,221.6 406.1,221.7 406.2,221.9 406.2,222 406.3,222.2 406.4,222.3 406.5,222.4 
				406.6,222.5 406.7,222.6 406.8,222.8 406.9,222.8 407.1,222.9 407.2,223 407.3,223.1 407.5,223.1 407.6,223.2 407.8,223.3 
				407.9,223.3 408.1,223.3 408.2,223.3 408.4,223.3 408.5,223.3 408.7,223.3 408.8,223.3 409,223.3 409.1,223.2 409.3,223.2 
				409.4,223.1 409.6,223 409.7,222.9 409.8,222.9 409.9,222.8 410.1,222.7 410.2,222.6 410.3,222.4 410.4,222.3 			"/>
		</g>
		<g id="ID000148">
			<line class="st3" x1="367.2" y1="200.6" x2="367.2" y2="192.4"/>
		</g>
		<g id="ID000149">
			<text transform="matrix(1 0 0 1 358.73 188.59)" class="st1 st2">10</text>
		</g>
		<g id="ID000006-2">
			<text transform="matrix(1 0 0 1 383.72 104.37)" class="st8 st1 st2">U</text>
		</g>
		<g id="ID000022-2">
			<line class="st3" x1="393.4" y1="100.3" x2="408.1" y2="100.3"/>
		</g>
	</g>
</g>
<text transform="matrix(1 0 0 1 384.41 89.42)" class="st1 st2">5</text>
<text transform="matrix(1 0 0 1 391.34 89.42)" class="st1 st2">’</text>
<text transform="matrix(1 0 0 1 408.4 40.89)" class="st1 st2">3</text>
<text transform="matrix(1 0 0 1 415.33 40.89)" class="st1 st2">’</text>
<text transform="matrix(1 0 0 1 440.42 34.5)" class="st1 st9">GlnRs-aptamer</text>
</svg>
