<?xml version="1.0" encoding="utf-8"?>
<!-- Generator: Adobe Illustrator 25.2.0, SVG Export Plug-In . SVG Version: 6.00 Build 0)  -->
<svg version="1.1" id="图层_1" xmlns="http://www.w3.org/2000/svg" xmlns:xlink="http://www.w3.org/1999/xlink" x="0px" y="0px"
	 viewBox="0 0 800 400" style="enable-background:new 0 0 800 400;" xml:space="preserve">
<style type="text/css">
	.st0{fill:#FF7F0E;}
	.st1{font-family:'ArialMT';}
	.st2{font-size:13.2395px;}
	.st3{fill:none;stroke:#000000;stroke-width:0.5;}
	.st4{fill:#FF00FF;}
	.st5{fill:#32CD32;}
	.st6{stroke:#000000;stroke-width:0.5;}
	.st7{fill:#FFFFFF;stroke:#000000;stroke-width:0.5;}
	.st8{fill:#C2C2FF;}
	.st9{enable-background:new    ;}
	.st10{font-size:20px;}
	.st11{font-family:'AdobeSongStd-Light-GBpc-EUC-H';}
</style>
<g id="topgroup">
	<g id="ID000000">
		<g id="ID000002">
			<text transform="matrix(1 0 0 1 390.7812 99.7764)" class="st0 st1 st2">G</text>
		</g>
		<g id="ID000003">
			<text transform="matrix(1 0 0 1 390.7812 112.7397)" class="st0 st1 st2">G</text>
		</g>
		<g id="ID000004">
			<text transform="matrix(1 0 0 1 390.7812 125.7031)" class="st0 st1 st2">G</text>
		</g>
		<g id="ID000005">
			<text transform="matrix(1 0 0 1 390.7812 138.666)" class="st0 st1 st2">G</text>
		</g>
		<g id="ID000006">
			<text transform="matrix(1 0 0 1 391.1533 151.6294)" class="st0 st1 st2">U</text>
		</g>
		<g id="ID000007">
			<text transform="matrix(1 0 0 1 391.5146 164.6035)" class="st0 st1 st2">A</text>
		</g>
		<g id="ID000008">
			<text transform="matrix(1 0 0 1 387.9126 180.8076)" class="st0 st1 st2">U</text>
		</g>
		<g id="ID000009">
			<text transform="matrix(1 0 0 1 417.0801 164.6035)" class="st0 st1 st2">U</text>
		</g>
		<g id="ID000010">
			<text transform="matrix(1 0 0 1 417.4521 151.6294)" class="st0 st1 st2">A</text>
		</g>
		<g id="ID000011">
			<text transform="matrix(1 0 0 1 417.0801 138.666)" class="st0 st1 st2">C</text>
		</g>
		<g id="ID000012">
			<text transform="matrix(1 0 0 1 417.0801 125.7031)" class="st0 st1 st2">C</text>
		</g>
		<g id="ID000013">
			<text transform="matrix(1 0 0 1 417.0801 112.7397)" class="st0 st1 st2">C</text>
		</g>
		<g id="ID000014">
			<line class="st3" x1="430.5" y1="106.9" x2="439.1" y2="106.9"/>
		</g>
		<g id="ID000015">
			<text transform="matrix(1 0 0 1 439.1494 112.7397)" class="st1 st2">70</text>
		</g>
		<g id="ID000016">
			<text transform="matrix(1 0 0 1 417.0801 99.7764)" class="st0 st1 st2">C</text>
		</g>
		<g id="ID000017">
			<text transform="matrix(1 0 0 1 417.4521 86.813)" class="st0 st1 st2">A</text>
		</g>
		<g id="ID000018">
			<text transform="matrix(1 0 0 1 416.7188 73.8496)" class="st0 st1 st2">G</text>
		</g>
		<g id="ID000019">
			<text transform="matrix(1 0 0 1 417.0801 60.876)" class="st0 st1 st2">C</text>
		</g>
		<g id="ID000020">
			<text transform="matrix(1 0 0 1 417.0801 47.9126)" class="st0 st1 st2">C</text>
		</g>
		<g id="ID000021">
			<text transform="matrix(1 0 0 1 417.4521 34.9492)" class="st0 st1 st2">A</text>
		</g>
		<g id="ID000022">
			<line class="st3" x1="401.1" y1="94" x2="416.7" y2="94"/>
		</g>
		<g id="ID000023">
			<line class="st3" x1="401.1" y1="106.9" x2="416.7" y2="106.9"/>
		</g>
		<g id="ID000024">
			<line class="st3" x1="401.1" y1="119.9" x2="416.7" y2="119.9"/>
		</g>
		<g id="ID000025">
			<line class="st3" x1="401.1" y1="132.9" x2="416.7" y2="132.9"/>
		</g>
		<g id="ID000026">
			<line class="st3" x1="401.1" y1="145.8" x2="416.7" y2="145.8"/>
		</g>
		<g id="ID000027">
			<line class="st3" x1="401.1" y1="158.8" x2="416.7" y2="158.8"/>
		</g>
		<g id="ID000029">
			<text transform="matrix(1 0 0 1 381.4307 197.0117)" class="st0 st1 st2">C</text>
		</g>
		<g id="ID000030">
			<text transform="matrix(1 0 0 1 368.0957 204.6514)" class="st4 st1 st2">G</text>
		</g>
		<g id="ID000031">
			<text transform="matrix(1 0 0 1 355.5044 204.6514)" class="st4 st1 st2">C</text>
		</g>
		<g id="ID000032">
			<text transform="matrix(1 0 0 1 342.5303 204.6514)" class="st4 st1 st2">C</text>
		</g>
		<g id="ID000033">
			<text transform="matrix(1 0 0 1 329.939 204.6514)" class="st4 st1 st2">A</text>
		</g>
		<g id="ID000034">
			<text transform="matrix(1 0 0 1 316.9756 191.688)" class="st4 st1 st2">A</text>
		</g>
		<g id="ID000035">
			<text transform="matrix(1 0 0 1 300.0278 185.2065)" class="st4 st1 st2">G</text>
		</g>
		<g id="ID000036">
			<text transform="matrix(1 0 0 1 284.1958 191.688)" class="st0 st1 st2">C</text>
		</g>
		<g id="ID000037">
			<text transform="matrix(1 0 0 1 270.8604 211.1328)" class="st0 st1 st2">G</text>
		</g>
		<g id="ID000038">
			<text transform="matrix(1 0 0 1 277.3418 226.1787)" class="st0 st1 st2">G</text>
		</g>
		<g id="ID000039">
			<text transform="matrix(1 0 0 1 297.1587 239.1426)" class="st0 st1 st2">U</text>
		</g>
		<g id="ID000040">
			<line class="st3" x1="301.9" y1="242" x2="301.9" y2="250.6"/>
		</g>
		<g id="ID000041">
			<text transform="matrix(1 0 0 1 292.0903 265.8975)" class="st1 st2">20</text>
		</g>
		<g id="ID000042">
			<text transform="matrix(1 0 0 1 313.7241 232.6602)" class="st0 st1 st2">A</text>
		</g>
		<g id="ID000043">
			<text transform="matrix(1 0 0 1 329.939 232.6602)" class="st0 st1 st2">A</text>
		</g>
		<g id="ID000044">
			<text transform="matrix(1 0 0 1 342.1689 229.4199)" class="st0 st1 st2">G</text>
		</g>
		<g id="ID000045">
			<text transform="matrix(1 0 0 1 355.1323 229.4199)" class="st0 st1 st2">G</text>
		</g>
		<g id="ID000046">
			<text transform="matrix(1 0 0 1 368.4673 229.4199)" class="st0 st1 st2">C</text>
		</g>
		<g id="ID000047">
			<text transform="matrix(1 0 0 1 381.792 229.4199)" class="st0 st1 st2">A</text>
		</g>
		<g id="ID000048">
			<line class="st3" x1="373.2" y1="202.9" x2="373.2" y2="218.4"/>
		</g>
		<g id="ID000049">
			<line class="st3" x1="360.3" y1="202.9" x2="360.3" y2="218.4"/>
		</g>
		<g id="ID000050">
			<line class="st3" x1="347.3" y1="202.9" x2="347.3" y2="218.4"/>
		</g>
		<g id="ID000052">
			<text transform="matrix(1 0 0 1 384.6714 245.624)" class="st0 st1 st2">C</text>
		</g>
		<g id="ID000053">
			<text transform="matrix(1 0 0 1 384.6714 258.5977)" class="st0 st1 st2">C</text>
		</g>
		<g id="ID000054">
			<text transform="matrix(1 0 0 1 384.2998 271.5605)" class="st0 st1 st2">G</text>
		</g>
		<g id="ID000055">
			<text transform="matrix(1 0 0 1 384.2998 284.5244)" class="st0 st1 st2">G</text>
		</g>
		<g id="ID000056">
			<line class="st3" x1="380.8" y1="278.7" x2="372.2" y2="278.7"/>
		</g>
		<g id="ID000057">
			<text transform="matrix(1 0 0 1 357.438 284.5244)" class="st1 st2">30</text>
		</g>
		<g id="ID000058">
			<text transform="matrix(1 0 0 1 385.0327 297.4873)" class="st0 st1 st2">A</text>
		</g>
		<g id="ID000059">
			<text transform="matrix(1 0 0 1 374.9492 310.4512)" class="st0 st1 st2">U</text>
		</g>
		<g id="ID000060">
			<text transform="matrix(1 0 0 1 368.4673 326.6553)" class="st0 st1 st2">U</text>
		</g>
		<g id="ID000061">
			<text transform="matrix(1 0 0 1 381.4307 336.3877)" class="st0 st1 st2">C</text>
		</g>
		<g id="ID000062">
			<text transform="matrix(1 0 0 1 397.6348 342.8691)" class="st0 st1 st2">U</text>
		</g>
		<g id="ID000063">
			<text transform="matrix(1 0 0 1 413.4775 339.6289)" class="st0 st1 st2">G</text>
		</g>
		<g id="ID000064">
			<text transform="matrix(1 0 0 1 427.1738 326.6553)" class="st0 st1 st2">A</text>
		</g>
		<g id="ID000065">
			<text transform="matrix(1 0 0 1 423.5615 310.4512)" class="st0 st1 st2">U</text>
		</g>
		<g id="ID000066">
			<text transform="matrix(1 0 0 1 410.5977 297.4873)" class="st0 st1 st2">U</text>
		</g>
		<g id="ID000067">
			<text transform="matrix(1 0 0 1 410.5977 284.5244)" class="st0 st1 st2">C</text>
		</g>
		<g id="ID000068">
			<line class="st3" x1="424" y1="278.7" x2="432.6" y2="278.7"/>
		</g>
		<g id="ID000069">
			<text transform="matrix(1 0 0 1 432.668 284.5244)" class="st1 st2">40</text>
		</g>
		<g id="ID000070">
			<text transform="matrix(1 0 0 1 410.5977 271.5605)" class="st0 st1 st2">C</text>
		</g>
		<g id="ID000071">
			<text transform="matrix(1 0 0 1 410.2373 258.5977)" class="st0 st1 st2">G</text>
		</g>
		<g id="ID000072">
			<text transform="matrix(1 0 0 1 410.2373 245.624)" class="st0 st1 st2">G</text>
		</g>
		<g id="ID000073">
			<g>
				<text transform="matrix(1 0 0 1 427.1738 239.1426)" class="st5 st1 st2">A</text>
			</g>
		</g>
		<g id="ID000074">
			<g>
				<text transform="matrix(1 0 0 1 442.6455 235.9014)" class="st5 st1 st2">G</text>
			</g>
		</g>
		<g id="ID000075">
			<g>
				<text transform="matrix(1 0 0 1 452.3672 219.6973)" class="st5 st1 st2">G</text>
			</g>
		</g>
		<g id="ID000076">
			<line class="st3" x1="394.7" y1="239.7" x2="410.2" y2="239.7"/>
		</g>
		<g id="ID000077">
			<line class="st3" x1="394.7" y1="252.7" x2="410.2" y2="252.7"/>
		</g>
		<g id="ID000078">
			<line class="st3" x1="394.7" y1="265.8" x2="410.2" y2="265.8"/>
		</g>
		<g id="ID000079">
			<line class="st3" x1="394.7" y1="278.7" x2="410.2" y2="278.7"/>
		</g>
		<g id="ID000080">
			<line class="st3" x1="394.7" y1="291.6" x2="410.2" y2="291.6"/>
		</g>
		<g id="ID000082">
			<g>
				<text transform="matrix(1 0 0 1 436.5352 206.7344)" class="st5 st1 st2">U</text>
			</g>
		</g>
		<g id="ID000083">
			<text transform="matrix(1 0 0 1 433.2949 190.5298)" class="st0 st1 st2">C</text>
		</g>
		<g id="ID000084">
			<text transform="matrix(1 0 0 1 445.8857 190.5298)" class="st0 st1 st2">G</text>
		</g>
		<g id="ID000085">
			<line class="st3" x1="457.2" y1="190.8" x2="463.2" y2="196.9"/>
		</g>
		<g id="ID000086">
			<text transform="matrix(1 0 0 1 459.2207 208.0303)" class="st1 st2">50</text>
		</g>
		<g id="ID000087">
			<text transform="matrix(1 0 0 1 459.582 190.5298)" class="st0 st1 st2">A</text>
		</g>
		<g id="ID000088">
			<text transform="matrix(1 0 0 1 471.8125 190.5298)" class="st0 st1 st2">G</text>
		</g>
		<g id="ID000089">
			<text transform="matrix(1 0 0 1 484.7754 190.5298)" class="st0 st1 st2">G</text>
		</g>
		<g id="ID000090">
			<text transform="matrix(1 0 0 1 501.3516 200.252)" class="st0 st1 st2">U</text>
		</g>
		<g id="ID000091">
			<text transform="matrix(1 0 0 1 517.5557 206.7344)" class="st0 st1 st2">U</text>
		</g>
		<g id="ID000092">
			<text transform="matrix(1 0 0 1 533.7705 200.252)" class="st0 st1 st2">C</text>
		</g>
		<g id="ID000093">
			<text transform="matrix(1 0 0 1 539.8799 184.0483)" class="st0 st1 st2">G</text>
		</g>
		<g id="ID000094">
			<text transform="matrix(1 0 0 1 534.1318 167.8442)" class="st0 st1 st2">A</text>
		</g>
		<g id="ID000095">
			<text transform="matrix(1 0 0 1 517.9277 158.1113)" class="st0 st1 st2">A</text>
		</g>
		<g id="ID000096">
			<text transform="matrix(1 0 0 1 501.3516 161.3623)" class="st0 st1 st2">U</text>
		</g>
		<g id="ID000097">
			<line class="st3" x1="506.2" y1="146.9" x2="506.2" y2="138.3"/>
		</g>
		<g id="ID000098">
			<text transform="matrix(1 0 0 1 498.7695 135.0005)" class="st1 st2">60</text>
		</g>
		<g id="ID000099">
			<text transform="matrix(1 0 0 1 485.1475 164.6035)" class="st0 st1 st2">C</text>
		</g>
		<g id="ID000100">
			<text transform="matrix(1 0 0 1 472.1846 164.6035)" class="st0 st1 st2">C</text>
		</g>
		<g id="ID000101">
			<text transform="matrix(1 0 0 1 459.2207 164.6035)" class="st0 st1 st2">U</text>
		</g>
		<g id="ID000102">
			<text transform="matrix(1 0 0 1 446.2578 164.6035)" class="st0 st1 st2">C</text>
		</g>
		<g id="ID000103">
			<text transform="matrix(1 0 0 1 432.9229 164.6035)" class="st0 st1 st2">G</text>
		</g>
		<g id="ID000104">
			<line class="st3" x1="438" y1="179.5" x2="438" y2="164"/>
		</g>
		<g id="ID000105">
			<line class="st3" x1="451" y1="179.5" x2="451" y2="164"/>
		</g>
		<g id="ID000106">
			<line class="st3" x1="464" y1="179.5" x2="464" y2="164"/>
		</g>
		<g id="ID000107">
			<line class="st3" x1="476.9" y1="179.5" x2="476.9" y2="164"/>
		</g>
		<g id="ID000108">
			<line class="st3" x1="489.9" y1="179.5" x2="489.9" y2="164"/>
		</g>
		<g id="ID000110">
			<polyline class="st3" points="282.5,225.5 282.7,366.2 538.6,366.2 538.6,199.6 			"/>
		</g>
		<g id="ID000111">
			<polygon class="st6" points="413.2,366.2 413.2,366 413.2,365.9 413.2,365.8 413.2,365.6 413.1,365.3 413.1,365.2 413,365.1 
				412.9,364.9 412.9,364.8 412.8,364.7 412.6,364.5 412.5,364.4 412.4,364.3 412.2,364.2 412.1,364.1 412,364 411.9,364 
				411.7,363.9 411.6,363.7 411.4,363.7 411.3,363.6 411.1,363.6 410.9,363.6 410.7,363.6 410.6,363.6 410.4,363.6 410.3,363.6 
				410.1,363.6 410,363.7 409.8,363.7 409.7,363.9 409.5,363.9 409.4,364 409.2,364.1 409,364.2 408.9,364.3 408.8,364.4 
				408.7,364.5 408.6,364.6 408.5,364.7 408.4,364.9 408.3,365 408.3,365.1 408.2,365.3 408.2,365.4 408.1,365.7 408.1,365.8 
				408.1,366 408.1,366.1 408.1,366.3 408.1,366.4 408.1,366.6 408.1,366.8 408.2,366.9 408.2,367 408.3,367.3 408.3,367.4 
				408.4,367.6 408.5,367.7 408.6,367.8 408.7,367.9 408.8,368 408.9,368.1 409,368.3 409.2,368.3 409.4,368.4 409.5,368.5 
				409.7,368.6 409.8,368.6 410,368.7 410.1,368.7 410.3,368.7 410.4,368.7 410.6,368.8 410.7,368.8 410.9,368.7 411.1,368.7 
				411.3,368.7 411.4,368.6 411.6,368.6 411.7,368.5 411.9,368.5 412,368.4 412.1,368.3 412.2,368.2 412.4,368.1 412.5,368 
				412.6,367.9 412.8,367.8 412.9,367.6 412.9,367.5 413,367.4 413.1,367.1 413.1,367 413.2,366.8 413.2,366.7 413.2,366.5 
				413.2,366.4 			"/>
		</g>
		<g id="ID000112">
			<line class="st3" x1="387.6" y1="175.7" x2="326.6" y2="184"/>
		</g>
		<g id="ID000113">
			<polygon class="st7" points="362.9,179.1 362.9,178.9 362.9,178.8 362.8,178.5 362.8,178.4 362.7,178.2 362.6,178.1 362.5,177.9 
				362.5,177.8 362.4,177.7 362.3,177.6 362.2,177.5 362,177.4 361.9,177.3 361.8,177.2 361.5,177.1 361.4,177.1 361.3,177 
				361.1,176.8 361,176.8 360.8,176.8 360.7,176.8 360.5,176.8 360.4,176.7 360.2,176.8 359.9,176.8 359.8,176.8 359.6,176.8 
				359.5,177 359.3,177 359.2,177.1 359.1,177.2 358.9,177.3 358.8,177.4 358.7,177.4 358.6,177.6 358.5,177.7 358.4,177.8 
				358.2,177.9 358.1,178.1 358,178.2 358,178.3 357.9,178.5 357.9,178.7 357.8,178.9 357.8,179 357.8,179.2 357.8,179.3 
				357.8,179.5 357.8,179.6 357.8,179.8 357.8,179.9 357.9,180.1 357.9,180.2 358,180.5 358,180.6 358.1,180.8 358.2,180.9 
				358.4,181 358.5,181.1 358.6,181.2 358.7,181.3 358.8,181.4 359,181.5 359.1,181.6 359.2,181.7 359.4,181.7 359.5,181.8 
				359.7,181.8 359.8,181.9 360.1,181.9 360.2,181.9 360.4,181.9 360.6,181.9 360.7,181.9 360.9,181.9 361,181.9 361.2,181.8 
				361.3,181.8 361.4,181.7 361.6,181.6 361.8,181.6 361.9,181.5 362.1,181.4 362.2,181.3 362.3,181.1 362.4,181 362.5,180.9 
				362.6,180.8 362.7,180.6 362.7,180.5 362.8,180.4 362.8,180.1 362.9,180 362.9,179.8 362.9,179.7 362.9,179.5 363,179.4 
				362.9,179.2 			"/>
		</g>
		<g id="ID000114">
			<polygon class="st7" points="351.4,183.2 356.7,182.5 355.9,177.4 350.8,178.1 			"/>
		</g>
		<g id="ID000115">
			<line class="st3" x1="509.8" y1="190.8" x2="534.8" y2="165.7"/>
		</g>
		<g id="ID000116">
			<polygon class="st7" points="518.2,182.5 518.3,182.6 518.4,182.7 518.5,182.7 518.6,182.8 518.8,182.9 518.9,183 519.1,183 
				519.2,183.1 519.4,183.1 519.5,183.1 519.8,183.2 519.9,183.2 520.1,183.2 520.2,183.2 520.4,183.1 520.6,183.1 520.7,183.1 
				520.8,183 521,183 521.1,182.9 521.3,182.8 521.5,182.7 521.6,182.6 521.7,182.5 521.8,182.4 521.9,182.3 522,182.2 522.1,182.1 
				522.2,181.8 522.3,181.7 522.3,181.6 522.4,181.4 522.4,181.3 522.5,181.1 522.5,181 522.5,180.8 522.5,180.6 522.5,180.5 
				522.5,180.2 522.5,180.1 522.5,179.9 522.4,179.8 522.4,179.6 522.3,179.5 522.2,179.4 522.2,179.2 522.1,179.1 522,179 
				521.9,178.9 521.8,178.8 521.6,178.7 521.5,178.4 521.3,178.4 521.2,178.3 521,178.2 520.9,178.2 520.7,178.1 520.6,178.1 
				520.4,178 520.3,178 520.1,178 520,178 519.8,178 519.6,178 519.4,178 519.3,178.1 519.1,178.1 519,178.2 518.8,178.2 
				518.7,178.3 518.6,178.4 518.4,178.5 518.3,178.7 518.2,178.8 518.1,178.9 517.9,179 517.8,179.1 517.7,179.3 517.6,179.4 
				517.6,179.5 517.5,179.7 517.5,179.8 517.4,180 517.4,180.1 517.4,180.4 517.4,180.5 517.4,180.7 517.4,180.8 517.4,181 
				517.4,181.1 517.4,181.3 517.5,181.4 517.5,181.6 517.6,181.7 517.7,181.9 517.8,182.1 517.9,182.2 518.1,182.3 			"/>
		</g>
		<g id="ID000117">
			<polygon class="st7" points="524.7,172.2 521,175.8 524.7,179.5 528.4,175.8 			"/>
		</g>
		<g id="ID000118">
			<line class="st3" x1="378.4" y1="320.8" x2="426.4" y2="320.8"/>
		</g>
		<g id="ID000119">
			<polygon class="st7" points="395.6,320.8 400.7,323.8 400.7,318 			"/>
		</g>
		<g id="ID000120">
			<polygon class="st7" points="408.4,318.3 403.2,318.3 403.2,323.4 408.4,323.4 			"/>
		</g>
		<g id="ID000121">
			<line class="st3" x1="384.9" y1="304.7" x2="423.2" y2="304.7"/>
		</g>
		<g id="ID000122">
			<polygon class="st6" points="406.6,304.7 406.6,304.5 406.6,304.2 406.6,304.1 406.6,303.9 406.5,303.8 406.5,303.6 406.4,303.5 
				406.3,303.4 406.3,303.2 406.2,303.1 406.1,303 406,302.9 405.8,302.8 405.6,302.7 405.5,302.5 405.4,302.4 405.3,302.3 
				405.1,302.2 405,302.2 404.8,302.1 404.7,302.1 404.5,302.1 404.4,302 404.1,302 404,302 403.8,302 403.7,302 403.5,302.1 
				403.3,302.1 403.2,302.1 403.1,302.2 402.9,302.3 402.8,302.3 402.6,302.4 402.4,302.5 402.3,302.7 402.2,302.8 402.1,302.9 
				402,303 401.9,303.2 401.8,303.3 401.7,303.4 401.7,303.6 401.6,303.7 401.6,303.9 401.5,304 401.5,304.2 401.5,304.4 
				401.5,304.6 401.5,304.7 401.5,304.9 401.5,305 401.5,305.2 401.6,305.3 401.6,305.5 401.7,305.6 401.7,305.8 401.8,305.9 
				401.9,306.1 402,306.3 402.1,306.4 402.2,306.5 402.3,306.6 402.4,306.7 402.6,306.8 402.8,306.9 402.9,306.9 403.1,307 
				403.2,307.1 403.3,307.1 403.5,307.1 403.7,307.2 403.8,307.2 404,307.2 404.1,307.2 404.4,307.2 404.5,307.2 404.7,307.1 
				404.8,307.1 405,307 405.1,307 405.3,306.9 405.4,306.8 405.5,306.7 405.6,306.7 405.8,306.5 406,306.4 406.1,306.3 406.2,306.2 
				406.3,306.1 406.3,305.8 406.4,305.7 406.5,305.6 406.5,305.4 406.6,305.3 406.6,305.1 406.6,305 406.6,304.8 			"/>
		</g>
		<g id="ID000123">
			<line class="st3" x1="334.3" y1="202.9" x2="334.3" y2="221.7"/>
		</g>
		<g id="ID000124">
			<polygon class="st7" points="334.3,205.5 331.5,210.5 337.3,210.5 			"/>
		</g>
		<g id="ID000125">
			<polygon class="st7" points="337,218.2 337,213 331.8,213 331.8,218.2 			"/>
		</g>
		<g id="ID000126">
			<line class="st3" x1="391.3" y1="224.7" x2="426.6" y2="232.2"/>
		</g>
		<g id="ID000127">
			<polygon class="st6" points="411.5,229 411.5,228.8 411.5,228.7 411.5,228.5 411.5,228.4 411.5,228.2 411.5,228.1 411.4,227.8 
				411.4,227.7 411.4,227.5 411.3,227.4 411.2,227.2 411.2,227.1 411.1,227 410.9,226.8 410.8,226.7 410.7,226.6 410.6,226.5 
				410.4,226.4 410.3,226.3 410.2,226.1 410,226.1 409.9,226 409.7,226 409.6,225.9 409.4,225.9 409.2,225.9 409,225.8 408.9,225.8 
				408.7,225.8 408.6,225.9 408.4,225.9 408.3,225.9 408.1,226 408,226 407.8,226.1 407.7,226.1 407.5,226.3 407.3,226.4 
				407.2,226.5 407.1,226.6 407,226.7 406.9,226.8 406.8,226.9 406.7,227.1 406.6,227.2 406.6,227.3 406.5,227.5 406.4,227.6 
				406.4,227.8 406.4,228 406.4,228.2 406.3,228.3 406.3,228.5 406.3,228.7 406.4,228.8 406.4,229 406.4,229.1 406.5,229.3 
				406.5,229.4 406.6,229.5 406.6,229.8 406.7,229.9 406.8,230 406.9,230.2 407,230.3 407.1,230.4 407.3,230.5 407.4,230.6 
				407.5,230.7 407.7,230.7 407.9,230.8 408,230.9 408.2,230.9 408.3,231 408.5,231 408.6,231 408.8,231 408.9,231 409.1,231 
				409.2,231 409.5,231 409.6,230.9 409.8,230.9 409.9,230.8 410.1,230.7 410.2,230.7 410.3,230.6 410.5,230.5 410.6,230.4 
				410.7,230.3 410.8,230.2 410.9,230.1 411.1,229.9 411.2,229.8 411.2,229.7 411.3,229.4 411.4,229.3 411.4,229.1 			"/>
		</g>
		<g id="ID000128">
			<polyline class="st3" points="323.7,189.4 324.7,191.2 319,221.7 			"/>
		</g>
		<g id="ID000129">
			<polygon class="st6" points="322.9,200.5 322.8,200.5 322.5,200.5 322.4,200.5 322.2,200.5 322.1,200.5 321.9,200.5 321.8,200.6 
				321.6,200.6 321.5,200.8 321.3,200.8 321.2,200.9 321.1,201 320.8,201.1 320.7,201.2 320.6,201.3 320.5,201.4 320.4,201.5 
				320.3,201.6 320.2,201.8 320.2,201.9 320.1,202.1 320,202.2 320,202.3 319.9,202.6 319.9,202.7 319.9,202.9 319.9,203.1 
				319.9,203.2 319.9,203.4 319.9,203.5 319.9,203.7 320,203.8 320,204 320.1,204.2 320.1,204.3 320.2,204.5 320.3,204.6 
				320.4,204.7 320.5,204.9 320.6,205 320.7,205.1 320.8,205.2 321.1,205.3 321.2,205.3 321.3,205.4 321.5,205.5 321.6,205.5 
				321.8,205.6 321.9,205.6 322.1,205.7 322.2,205.7 322.4,205.7 322.5,205.7 322.8,205.7 322.9,205.7 323.1,205.6 323.2,205.6 
				323.4,205.5 323.5,205.5 323.7,205.4 323.8,205.3 323.9,205.2 324,205.2 324.2,205 324.3,204.9 324.5,204.8 324.6,204.7 
				324.7,204.6 324.7,204.4 324.8,204.3 324.9,204.2 324.9,203.9 325,203.8 325,203.6 325,203.5 325,203.3 325.1,203.2 325,203 
				325,202.9 325,202.7 325,202.5 324.9,202.3 324.9,202.1 324.8,202 324.8,201.9 324.7,201.7 324.6,201.6 324.5,201.5 324.3,201.4 
				324.2,201.3 324.1,201.2 323.9,201.1 323.8,201 323.7,200.9 323.5,200.8 323.4,200.8 323.3,200.6 323.1,200.6 			"/>
		</g>
		<g id="ID000130">
			<polygon class="st6" points="320.6,213.1 324.5,208.6 318.7,207.6 			"/>
		</g>
		<g id="ID000131">
			<polyline class="st3" points="390.3,170.4 389.5,168.4 389.5,149 314.9,149 314.9,220.3 315.8,222.2 			"/>
		</g>
		<g id="ID000132">
			<polygon class="st7" points="358.9,149 353.9,146.1 353.9,152 			"/>
		</g>
		<g id="ID000133">
			<polygon class="st7" points="346.2,149 346.2,149.2 346.2,149.3 346.2,149.5 346.3,149.7 346.3,149.9 346.3,150 346.5,150.2 
				346.6,150.3 346.7,150.5 346.8,150.6 346.9,150.7 346.9,150.8 347.1,150.9 347.2,151 347.3,151.1 347.4,151.2 347.6,151.3 
				347.7,151.3 347.9,151.4 348,151.6 348.2,151.6 348.4,151.6 348.5,151.7 348.7,151.7 348.9,151.7 349,151.7 349.2,151.7 
				349.3,151.6 349.5,151.6 349.6,151.4 349.9,151.4 350,151.3 350.1,151.3 350.3,151.2 350.4,151.1 350.5,151 350.6,150.9 
				350.7,150.8 350.8,150.6 350.9,150.5 351,150.4 351.1,150.3 351.1,150.1 351.2,150 351.3,149.7 351.3,149.6 351.3,149.4 
				351.3,149.3 351.4,149.1 351.4,149 351.3,148.8 351.3,148.7 351.3,148.5 351.3,148.4 351.2,148.2 351.1,148 351.1,147.8 
				351,147.7 350.9,147.6 350.8,147.4 350.7,147.3 350.6,147.2 350.5,147.1 350.4,147 350.3,146.9 350.1,146.8 350,146.8 
				349.9,146.7 349.6,146.6 349.5,146.6 349.3,146.6 349.2,146.5 349,146.5 348.9,146.5 348.7,146.5 348.5,146.5 348.4,146.5 
				348.2,146.6 348,146.6 347.9,146.7 347.7,146.7 347.6,146.8 347.4,146.9 347.3,146.9 347.2,147 347.1,147.1 346.9,147.3 
				346.9,147.4 346.8,147.5 346.7,147.6 346.6,147.8 346.5,147.9 346.3,148 346.3,148.3 346.3,148.4 346.2,148.6 346.2,148.7 
				346.2,148.9 			"/>
		</g>
		<g id="ID000134">
			<polyline class="st3" points="276,209.4 276,350 522.3,350 522.3,206.1 			"/>
		</g>
		<g id="ID000135">
			<polygon class="st7" points="393.2,350 393.2,350.1 393.2,350.4 393.3,350.5 393.3,350.7 393.3,350.8 393.4,351 393.4,351.1 
				393.5,351.2 393.6,351.4 393.7,351.5 393.8,351.6 393.9,351.7 394.1,352 394.2,352.1 394.3,352.1 394.5,352.2 394.6,352.3 
				394.7,352.4 394.9,352.4 395,352.5 395.2,352.5 395.3,352.6 395.5,352.6 395.6,352.6 395.9,352.6 396,352.6 396.2,352.6 
				396.3,352.5 396.5,352.5 396.7,352.5 396.8,352.4 396.9,352.3 397.1,352.3 397.2,352.2 397.3,352.1 397.5,352 397.7,351.8 
				397.8,351.7 397.9,351.6 398,351.4 398,351.3 398.1,351.2 398.2,351 398.2,350.9 398.3,350.7 398.3,350.6 398.4,350.4 
				398.4,350.3 398.4,350 398.4,349.9 398.4,349.7 398.4,349.6 398.3,349.4 398.3,349.3 398.2,349.1 398.2,349 398.1,348.8 
				398,348.7 398,348.6 397.9,348.3 397.8,348.2 397.7,348.1 397.5,348 397.3,347.9 397.2,347.8 397.1,347.7 396.9,347.7 
				396.8,347.6 396.7,347.6 396.5,347.5 396.3,347.5 396.2,347.4 396,347.4 395.9,347.4 395.6,347.4 395.5,347.4 395.3,347.4 
				395.2,347.5 395,347.5 394.9,347.6 394.7,347.6 394.6,347.7 394.5,347.8 394.3,347.9 394.2,348 394.1,348.1 393.9,348.2 
				393.8,348.3 393.7,348.4 393.6,348.6 393.5,348.8 393.4,348.9 393.4,349 393.3,349.2 393.3,349.3 393.3,349.5 393.2,349.7 
				393.2,349.8 			"/>
		</g>
		<g id="ID000136">
			<polygon class="st7" points="406,350 400.9,347.1 400.9,352.9 			"/>
		</g>
		<g id="ID000137">
			<polyline class="st3" points="307.5,182.9 308.4,184.7 308.4,356.5 441.3,356.5 441.3,206.1 			"/>
		</g>
		<g id="ID000138">
			<polygon class="st7" points="377.5,356.5 377.5,356.3 377.5,356.2 377.4,356 377.4,355.8 377.4,355.7 377.3,355.6 377.2,355.4 
				377.2,355.2 377.1,355 376.9,354.9 376.8,354.8 376.7,354.7 376.6,354.6 376.5,354.5 376.3,354.4 376.2,354.3 376.1,354.2 
				376,354.1 375.8,354.1 375.7,354 375.5,354 375.4,354 375.1,353.9 375,353.9 374.8,353.9 374.6,353.9 374.5,353.9 374.3,354 
				374.2,354 374,354.1 373.9,354.1 373.7,354.2 373.5,354.2 373.4,354.3 373.3,354.4 373.1,354.5 373,354.6 372.9,354.7 
				372.8,354.8 372.7,355 372.6,355.1 372.6,355.2 372.5,355.5 372.4,355.6 372.4,355.8 372.4,355.9 372.3,356.1 372.3,356.2 
				372.3,356.4 372.3,356.5 372.3,356.7 372.3,356.8 372.4,357.1 372.4,357.3 372.4,357.4 372.5,357.5 372.6,357.7 372.6,357.8 
				372.7,357.9 372.8,358.1 372.9,358.2 373,358.3 373.1,358.4 373.3,358.5 373.4,358.6 373.5,358.8 373.7,358.8 373.9,358.9 
				374,359 374.2,359 374.3,359 374.5,359.1 374.6,359.1 374.8,359.1 375,359.1 375.1,359.1 375.4,359.1 375.5,359 375.7,359 
				375.8,358.9 376,358.9 376.1,358.8 376.2,358.6 376.3,358.5 376.5,358.4 376.6,358.4 376.7,358.2 376.8,358.1 376.9,358 
				377.1,357.9 377.2,357.7 377.2,357.6 377.3,357.5 377.4,357.3 377.4,357.2 377.4,356.9 377.5,356.8 377.5,356.6 			"/>
		</g>
		<g id="ID000139">
			<polyline class="st3" points="282.5,225.5 282.5,229.2 296.8,232.2 			"/>
		</g>
		<g id="ID000140">
			<polygon class="st6" points="283.1,229.3 287.4,233.3 288.6,227.5 			"/>
		</g>
		<g id="ID000141">
			<polygon class="st6" points="296.1,229.4 291,228.4 289.9,233.5 295,234.5 			"/>
		</g>
		<g id="ID000142">
			<polyline class="st3" points="331.5,202 327.9,207.3 327.9,223.6 327.9,249.5 327.9,382.4 457.5,382.4 457.5,219 			"/>
		</g>
		<g id="ID000143">
			<polygon class="st7" points="395.3,382.4 395.2,382.2 395.2,382.1 395.2,381.9 395.2,381.8 395.1,381.6 395.1,381.4 395,381.3 
				394.9,381.2 394.9,381 394.8,380.9 394.7,380.7 394.6,380.6 394.5,380.5 394.4,380.4 394.2,380.3 394.1,380.2 393.9,380.1 
				393.7,380 393.6,380 393.4,379.9 393.3,379.9 393.1,379.9 393,379.8 392.8,379.8 392.7,379.8 392.5,379.8 392.4,379.8 
				392.1,379.9 392,379.9 391.8,380 391.7,380 391.5,380.1 391.4,380.2 391.3,380.2 391.1,380.3 391,380.4 390.9,380.5 390.8,380.6 
				390.7,380.7 390.5,381 390.4,381.1 390.4,381.2 390.3,381.4 390.2,381.5 390.2,381.7 390.1,381.8 390.1,382 390.1,382.1 
				390.1,382.3 390.1,382.4 390.1,382.7 390.1,382.8 390.1,383 390.2,383.2 390.2,383.3 390.3,383.4 390.4,383.6 390.4,383.7 
				390.5,383.8 390.7,384 390.8,384.1 390.9,384.3 391,384.4 391.1,384.5 391.3,384.6 391.4,384.7 391.5,384.8 391.7,384.8 
				391.8,384.9 392,384.9 392.1,385 392.4,385 392.5,385 392.7,385 392.8,385 393,385 393.1,385 393.3,384.9 393.4,384.9 
				393.6,384.8 393.7,384.8 393.9,384.7 394.1,384.6 394.2,384.5 394.4,384.5 394.5,384.4 394.6,384.1 394.7,384 394.8,383.9 
				394.9,383.8 394.9,383.7 395,383.5 395.1,383.4 395.1,383.2 395.2,383.1 395.2,382.9 395.2,382.8 395.2,382.6 			"/>
		</g>
		<g id="ID000144">
			<polyline class="st3" points="382.6,187.5 383,187.9 347.3,187.9 347.3,192.5 			"/>
		</g>
		<g id="ID000145">
			<polygon class="st6" points="362.5,190.6 367.7,190.6 367.7,185.3 362.5,185.3 			"/>
		</g>
		<g id="ID000146">
			<line class="st3" x1="390.5" y1="194" x2="443.5" y2="227.3"/>
		</g>
		<g id="ID000147">
			<polygon class="st6" points="419.2,212 419.2,211.9 419.3,211.7 419.4,211.6 419.4,211.4 419.6,211.3 419.6,211.1 419.6,211 
				419.6,210.7 419.6,210.6 419.6,210.4 419.6,210.3 419.6,210.1 419.6,210 419.4,209.8 419.4,209.7 419.3,209.5 419.2,209.4 
				419.1,209.3 419.1,209 419,208.9 418.8,208.8 418.7,208.7 418.6,208.6 418.5,208.5 418.4,208.4 418.2,208.3 418.1,208.3 
				418,208.2 417.7,208.2 417.5,208.1 417.4,208.1 417.2,208.1 417.1,208 416.9,208 416.8,208.1 416.6,208.1 416.5,208.1 
				416.3,208.1 416.2,208.2 415.9,208.2 415.8,208.3 415.7,208.4 415.5,208.5 415.4,208.6 415.3,208.7 415.2,208.8 415.1,208.9 
				415,209 414.9,209.1 414.8,209.3 414.7,209.5 414.6,209.6 414.6,209.8 414.6,209.9 414.5,210.1 414.5,210.2 414.5,210.4 
				414.5,210.5 414.5,210.7 414.5,210.8 414.5,211.1 414.5,211.2 414.6,211.4 414.6,211.5 414.7,211.7 414.7,211.8 414.8,212 
				414.9,212.1 415,212.2 415.1,212.3 415.2,212.4 415.3,212.7 415.4,212.7 415.6,212.8 415.7,212.9 415.8,213 416,213 416.2,213.1 
				416.4,213.2 416.5,213.2 416.7,213.2 416.8,213.2 417,213.2 417.1,213.2 417.3,213.2 417.4,213.2 417.6,213.2 417.7,213.1 
				418,213.1 418.1,213 418.3,212.9 418.4,212.8 418.5,212.8 418.6,212.7 418.8,212.5 418.9,212.4 419,212.2 419.1,212.1 			"/>
		</g>
		<g id="ID000148">
			<line class="st3" x1="373.2" y1="189.1" x2="373.2" y2="180.4"/>
		</g>
		<g id="ID000149">
			<text transform="matrix(1 0 0 1 364.228 176.3022)" class="st1 st2">10</text>
		</g>
		<g id="ID000006-2">
			<text transform="matrix(1 0 0 1 390.7812 86.813)" class="st8 st1 st2">U</text>
		</g>
		<g id="ID000022-2">
			<line class="st3" x1="401.1" y1="82.5" x2="416.7" y2="82.5"/>
		</g>
	</g>
</g>
<text transform="matrix(1 0 0 1 391.5146 70.9277)" class="st1 st2">5</text>
<text transform="matrix(1 0 0 1 398.8779 70.9277)" class="st1 st2">’</text>
<text transform="matrix(1 0 0 1 417.0059 19.3613)" class="st1 st2">3</text>
<text transform="matrix(1 0 0 1 424.3691 19.3613)" class="st1 st2">’</text>
<text transform="matrix(1 0 0 1 24.9395 31.931)" class="st9"><tspan x="0" y="0" class="st1 st10">var-AGGU aptamer</tspan><tspan x="172.3" y="0" class="st11 st10">（</tspan><tspan x="192.3" y="0" class="st1 st10">tRNA variant</tspan><tspan x="305.6" y="0" class="st11 st10">）</tspan></text>
</svg>
