<?xml version="1.0" encoding="utf-8"?>
<!-- Generator: Adobe Illustrator 25.2.0, SVG Export Plug-In . SVG Version: 6.00 Build 0)  -->
<svg version="1.1" id="图层_1" xmlns="http://www.w3.org/2000/svg" xmlns:xlink="http://www.w3.org/1999/xlink" x="0px" y="0px"
	 viewBox="0 0 400 400" style="enable-background:new 0 0 400 400;" xml:space="preserve">
<style type="text/css">
	.st0{fill:#FF9933;}
	.st1{font-family:'ArialMT';}
	.st2{font-size:33.88px;}
	.st3{letter-spacing:-1;}
	.st4{fill:none;stroke:#000000;stroke-width:0.14;stroke-miterlimit:1.11;}
	.st5{stroke:#000000;stroke-width:0.14;stroke-miterlimit:1.11;}
	.st6{fill:#9966CC;}
	.st7{font-size:20px;}
	.st8{fill:#999999;}
</style>
<g id="ID000002">
	<text transform="matrix(1 0 0 1 200.36 364.83)" class="st0 st1 st2">G</text>
</g>
<g id="ID000003">
	<text transform="matrix(1 0 0 1 200.36 330.91)" class="st0 st1 st2">G</text>
</g>
<g id="ID000004">
	<text transform="matrix(1 0 0 1 201.3 297)" class="st0 st1 st2">C</text>
</g>
<g id="ID000005">
	<text transform="matrix(1 0 0 1 202.24 263.09)" class="st0 st1 st2 st3">A</text>
</g>
<g id="ID000006">
	<text transform="matrix(1 0 0 1 200.36 229.17)" class="st0 st1 st2">G</text>
</g>
<g id="ID000007">
	<g>
		<text transform="matrix(1 0 0 1 202.24 195.26)" class="st0 st1 st2">A</text>
	</g>
</g>
<g id="ID000008">
	<text transform="matrix(1 0 0 1 269.13 229.17)" class="st0 st1 st2">U</text>
</g>
<g id="ID000009">
	<text transform="matrix(1 0 0 1 269.13 263.09)" class="st0 st1 st2">U</text>
</g>
<g id="ID000010">
	<text transform="matrix(1 0 0 1 268.19 297)" class="st0 st1 st2">G</text>
</g>
<g id="ID000011">
	<text transform="matrix(1 0 0 1 269.13 330.91)" class="st0 st1 st2">C</text>
</g>
<g id="ID000012">
	<text transform="matrix(1 0 0 1 269.13 364.83)" class="st0 st1 st2">C</text>
</g>
<g id="ID000013">
	<line class="st4" x1="227.1" y1="349.6" x2="267.8" y2="349.6"/>
</g>
<g id="ID000014">
	<line class="st4" x1="227.1" y1="315.6" x2="267.8" y2="315.6"/>
</g>
<g id="ID000015">
	<line class="st4" x1="227.1" y1="281.7" x2="267.8" y2="281.7"/>
</g>
<g id="ID000016">
	<line class="st4" x1="227.1" y1="247.8" x2="267.8" y2="247.8"/>
</g>
<g id="ID000017">
	<polygon class="st5" points="254.2,213.9 254.2,213.5 254.2,213.1 254.1,212.6 254,212.2 253.9,211.8 253.8,211.4 253.6,211 
		253.4,210.6 253.2,210.2 252.9,209.9 252.6,209.6 252.4,209.2 252.1,208.9 251.7,208.6 251.4,208.4 251,208.1 250.7,207.9 
		250.3,207.7 249.9,207.6 249.5,207.4 249.1,207.3 248.6,207.2 248.2,207.2 247.8,207.1 247.3,207.1 246.9,207.1 246.5,207.2 
		246.1,207.3 245.6,207.4 245.2,207.5 244.8,207.7 244.4,207.8 244.1,208 243.7,208.3 243.3,208.5 243,208.8 242.7,209.1 
		242.4,209.4 242.1,209.7 241.9,210.1 241.6,210.4 241.4,210.8 241.2,211.2 241.1,211.6 240.9,212 240.8,212.4 240.8,212.8 
		240.7,213.3 240.7,213.7 240.7,214.1 240.7,214.6 240.8,215 240.8,215.4 240.9,215.8 241.1,216.2 241.2,216.6 241.4,217 
		241.6,217.4 241.9,217.8 242.1,218.1 242.4,218.4 242.7,218.8 243,219 243.3,219.3 243.7,219.6 244.1,219.8 244.4,220 244.8,220.2 
		245.2,220.3 245.6,220.4 246.1,220.6 246.5,220.6 246.9,220.7 247.3,220.7 247.8,220.7 248.2,220.6 248.6,220.6 249.1,220.5 
		249.5,220.4 249.9,220.2 250.3,220.1 250.7,219.9 251,219.7 251.4,219.4 251.7,219.2 252.1,218.9 252.4,218.6 252.6,218.3 
		252.9,217.9 253.2,217.6 253.4,217.2 253.6,216.8 253.8,216.4 253.9,216 254,215.6 254.1,215.2 254.2,214.8 254.2,214.3 	"/>
</g>
<g id="ID000019">
	<g>
		<text transform="matrix(1 0 0 1 167.39 178.3)" class="st0 st1 st2">C</text>
	</g>
</g>
<g id="ID000020">
	<g>
		<text transform="matrix(1 0 0 1 133.48 178.3)" class="st0 st1 st2">C</text>
	</g>
</g>
<g id="ID000021">
	<text transform="matrix(1 0 0 1 100.5 178.3)" class="st6 st1 st2 st3">A</text>
</g>
<g id="ID000022">
	<text transform="matrix(1 0 0 1 65.65 178.3)" class="st6 st1 st2">U</text>
</g>
<g id="ID000023">
	<line class="st4" x1="77.9" y1="185.6" x2="77.9" y2="208.3"/>
</g>
<g id="ID000025">
	<text transform="matrix(1 0 0 1 41.15 144.39)" class="st6 st1 st2 st3">A</text>
</g>
<g id="ID000026">
	<text transform="matrix(1 0 0 1 65.65 110.48)" class="st6 st1 st2">C</text>
</g>
<g id="ID000027">
	<text transform="matrix(1 0 0 1 98.62 110.48)" class="st6 st1 st2">G</text>
</g>
<g id="ID000028">
	<g>
		<text transform="matrix(1 0 0 1 132.54 110.48)" class="st0 st1 st2 st3">G</text>
	</g>
</g>
<g id="ID000029">
	<g>
		<text transform="matrix(1 0 0 1 166.45 110.48)" class="st0 st1 st2 st3">G</text>
	</g>
</g>
<g id="ID000030">
	<line class="st4" x1="179.6" y1="149.5" x2="179.6" y2="108.8"/>
</g>
<g id="ID000031">
	<line class="st4" x1="145.7" y1="149.5" x2="145.7" y2="108.8"/>
</g>
<g id="ID000032">
	<line class="st4" x1="83.9" y1="150.9" x2="105.7" y2="107.3"/>
</g>
<g id="ID000033">
	<polygon class="st5" points="97.9,123.1 97.5,122.9 97.1,122.7 96.7,122.6 96.2,122.5 95.8,122.4 95.4,122.4 95,122.3 94.5,122.3 
		94.1,122.4 93.7,122.4 93.3,122.5 92.8,122.6 92.4,122.8 92.1,122.9 91.7,123.1 91.3,123.3 90.9,123.6 90.6,123.8 90.3,124.1 
		89.9,124.4 89.7,124.8 89.4,125.1 89.2,125.4 88.9,125.8 88.7,126.2 88.6,126.6 88.4,127 88.3,127.4 88.2,127.8 88.1,128.2 
		88.1,128.7 88.1,129.1 88.1,129.5 88.1,130 88.2,130.4 88.3,130.8 88.4,131.2 88.5,131.6 88.7,132 88.9,132.4 89.1,132.8 
		89.4,133.1 89.6,133.5 89.9,133.8 90.2,134.1 90.6,134.4 90.9,134.6 91.2,134.9 91.6,135.1 92,135.3 92.4,135.5 92.8,135.6 
		93.2,135.7 93.6,135.8 94.1,135.9 94.5,135.9 94.9,135.9 95.4,135.9 95.8,135.9 96.2,135.8 96.6,135.7 97,135.6 97.4,135.4 
		97.8,135.2 98.2,135 98.6,134.8 98.9,134.5 99.3,134.3 99.6,134 99.9,133.7 100.2,133.3 100.4,133 100.7,132.6 100.9,132.3 
		101.1,131.9 101.2,131.5 101.3,131.1 101.4,130.6 101.5,130.2 101.6,129.8 101.6,129.4 101.6,128.9 101.6,128.5 101.5,128.1 
		101.5,127.7 101.4,127.2 101.2,126.8 101.1,126.4 100.9,126 100.7,125.7 100.4,125.3 100.2,124.9 99.9,124.6 99.6,124.3 99.3,124 
		99,123.8 98.6,123.5 98.2,123.3 	"/>
</g>
<text transform="matrix(1 0 0 1 179.62 382.01)" class="st1 st7">5</text>
<text transform="matrix(1 0 0 1 190.74 382.01)" class="st1 st7">’</text>
<text transform="matrix(1 0 0 1 299.19 382.25)" class="st1 st7">3</text>
<text transform="matrix(1 0 0 1 310.31 382.25)" class="st1 st7">’</text>
<g id="ID000023-2">
	<line class="st4" x1="200" y1="217.4" x2="177.4" y2="217.4"/>
</g>
<text transform="matrix(1 0 0 1 156.58 223.73)" class="st1 st7">5</text>
<text transform="matrix(1 0 0 1 63.81 229.17)" class="st1 st7">10</text>
<g id="ID000002-2">
	<text transform="matrix(1 0 0 1 216.53 61.11)" class="st8 st1 st2">G</text>
</g>
<g id="ID000007-2">
	<text transform="matrix(1 0 0 1 193.87 81.5)" class="st8 st1 st2 st3">A</text>
</g>
<g id="ID000007-3">
	<text transform="matrix(1 0 0 1 257.24 51.34)" class="st8 st1 st2 st3">A</text>
</g>
<g id="ID000007-4">
	<text transform="matrix(1 0 0 1 313.43 95.1)" class="st8 st1 st2 st3">A</text>
</g>
<g id="ID000007-5">
	<text transform="matrix(1 0 0 1 319.15 166.11)" class="st8 st1 st2 st3">A</text>
</g>
<g id="ID000007-6">
	<text transform="matrix(1 0 0 1 330.49 129.13)" class="st8 st1 st2 st3">A</text>
</g>
<g id="ID000012-2">
	<text transform="matrix(1 0 0 1 285.8 195.26)" class="st8 st1 st2">C</text>
</g>
<g id="ID000002-3">
	<text transform="matrix(1 0 0 1 292.41 66.7)" class="st8 st1 st2">G</text>
</g>
<g id="ID000023-3">
	<line class="st4" x1="363.4" y1="81.5" x2="340.8" y2="81.5"/>
</g>
<text transform="matrix(1 0 0 1 371.73 90.74)" class="st1 st7">20</text>
<g id="ID000023-4">
	<line class="st4" x1="323.8" y1="250.9" x2="301.2" y2="250.9"/>
</g>
<text transform="matrix(1 0 0 1 332.11 260.1)" class="st1 st7">25</text>
<text transform="matrix(1 0 0 1 19.57 32.1)" class="st1 st7">C13.28 aptamer</text>
</svg>
