<?xml version="1.0" encoding="utf-8"?>
<!-- Generator: Adobe Illustrator 25.2.0, SVG Export Plug-In . SVG Version: 6.00 Build 0)  -->
<svg version="1.1" id="图层_1" xmlns="http://www.w3.org/2000/svg" xmlns:xlink="http://www.w3.org/1999/xlink" x="0px" y="0px"
	 viewBox="0 0 400 400" style="enable-background:new 0 0 400 400;" xml:space="preserve">
<style type="text/css">
	.st0{fill:#FF9933;}
	.st1{font-family:'ArialMT';}
	.st2{font-size:33.88px;}
	.st3{fill:#9966CC;}
	.st4{letter-spacing:-1;}
	.st5{fill:none;stroke:#000000;stroke-width:0.14;stroke-miterlimit:1.11;}
	.st6{stroke:#000000;stroke-width:0.14;stroke-miterlimit:1.11;}
	.st7{font-size:20px;}
	.st8{fill:#999999;}
</style>
<g id="ID000019">
	<text transform="matrix(1 0 0 1 160.95 260.14)" class="st0 st1 st2">C</text>
</g>
<g id="ID000020">
	<text transform="matrix(1 0 0 1 127.04 260.14)" class="st0 st1 st2">C</text>
</g>
<g id="ID000021">
	<text transform="matrix(1 0 0 1 94.06 260.14)" class="st3 st1 st2 st4">A</text>
</g>
<g id="ID000022">
	<text transform="matrix(1 0 0 1 59.21 260.14)" class="st3 st1 st2">U</text>
</g>
<g id="ID000023">
	<line class="st5" x1="71.4" y1="267.5" x2="71.4" y2="290.1"/>
</g>
<g id="ID000025">
	<text transform="matrix(1 0 0 1 34.71 226.22)" class="st3 st1 st2 st4">A</text>
</g>
<g id="ID000026">
	<text transform="matrix(1 0 0 1 59.21 192.31)" class="st3 st1 st2">C</text>
</g>
<g id="ID000027">
	<text transform="matrix(1 0 0 1 92.18 192.31)" class="st3 st1 st2">G</text>
</g>
<g id="ID000028">
	<text transform="matrix(1 0 0 1 126.1 192.31)" class="st0 st1 st2">G</text>
</g>
<g id="ID000029">
	<text transform="matrix(1 0 0 1 160.01 192.31)" class="st0 st1 st2">G</text>
</g>
<g id="ID000030">
	<line class="st5" x1="173.2" y1="231.3" x2="173.2" y2="190.6"/>
</g>
<g id="ID000031">
	<line class="st5" x1="139.3" y1="231.3" x2="139.3" y2="190.6"/>
</g>
<g id="ID000032">
	<line class="st5" x1="77.5" y1="232.7" x2="99.3" y2="189.2"/>
</g>
<g id="ID000033">
	<polygon class="st6" points="91.4,204.9 91.1,204.7 90.6,204.6 90.2,204.4 89.8,204.3 89.4,204.2 89,204.2 88.5,204.2 88.1,204.2 
		87.7,204.2 87.2,204.3 86.8,204.4 86.4,204.5 86,204.6 85.6,204.8 85.2,205 84.8,205.2 84.5,205.4 84.2,205.7 83.8,206 83.5,206.3 
		83.2,206.6 83,206.9 82.7,207.3 82.5,207.6 82.3,208 82.1,208.4 82,208.8 81.8,209.2 81.8,209.6 81.7,210.1 81.6,210.5 81.6,210.9 
		81.6,211.4 81.7,211.8 81.7,212.2 81.8,212.6 81.9,213.1 82.1,213.5 82.3,213.9 82.5,214.2 82.7,214.6 82.9,215 83.2,215.3 
		83.5,215.6 83.8,215.9 84.1,216.2 84.4,216.5 84.8,216.7 85.2,216.9 85.6,217.1 86,217.3 86.4,217.4 86.8,217.6 87.2,217.6 
		87.6,217.7 88.1,217.7 88.5,217.7 88.9,217.7 89.3,217.7 89.8,217.6 90.2,217.5 90.6,217.4 91,217.2 91.4,217.1 91.8,216.9 
		92.1,216.6 92.5,216.4 92.8,216.1 93.1,215.8 93.4,215.5 93.7,215.2 94,214.8 94.2,214.5 94.4,214.1 94.6,213.7 94.8,213.3 
		94.9,212.9 95,212.5 95.1,212.1 95.2,211.6 95.2,211.2 95.2,210.8 95.2,210.3 95.1,209.9 95,209.5 94.9,209.1 94.8,208.7 
		94.6,208.3 94.4,207.9 94.2,207.5 94,207.1 93.8,206.8 93.5,206.5 93.2,206.1 92.9,205.9 92.5,205.6 92.2,205.3 91.8,205.1 	"/>
</g>
<text transform="matrix(1 0 0 1 173.19 286.86)" class="st1 st7">5</text>
<text transform="matrix(1 0 0 1 184.31 286.86)" class="st1 st7">’</text>
<text transform="matrix(1 0 0 1 287.77 330.87)" class="st1 st7">3</text>
<text transform="matrix(1 0 0 1 298.89 330.87)" class="st1 st7">’</text>
<text transform="matrix(1 0 0 1 64.37 311.01)" class="st1 st7">4</text>
<g id="ID000002">
	<text transform="matrix(1 0 0 1 210.09 142.94)" class="st8 st1 st2">G</text>
</g>
<g id="ID000007">
	<text transform="matrix(1 0 0 1 187.43 163.33)" class="st8 st1 st2 st4">A</text>
</g>
<g id="ID000007-2">
	<text transform="matrix(1 0 0 1 250.8 133.17)" class="st8 st1 st2 st4">A</text>
</g>
<g id="ID000007-3">
	<text transform="matrix(1 0 0 1 307 176.93)" class="st8 st1 st2 st4">A</text>
</g>
<g id="ID000007-4">
	<text transform="matrix(1 0 0 1 312.71 247.94)" class="st8 st1 st2 st4">A</text>
</g>
<g id="ID000007-5">
	<text transform="matrix(1 0 0 1 324.05 210.96)" class="st8 st1 st2 st4">A</text>
</g>
<g id="ID000012">
	<text transform="matrix(1 0 0 1 279.37 277.09)" class="st8 st1 st2">C</text>
</g>
<g id="ID000002-2">
	<text transform="matrix(1 0 0 1 285.97 148.53)" class="st8 st1 st2">G</text>
</g>
<g id="ID000023-2">
	<line class="st5" x1="357" y1="163.3" x2="334.3" y2="163.3"/>
</g>
<text transform="matrix(1 0 0 1 365.29 172.57)" class="st1 st7">14</text>
<text transform="matrix(1 0 0 1 20.57 45.17)" class="st1 st7">C13.18 aptamer</text>
<g id="ID000022-2">
	<text transform="matrix(1 0 0 1 262.41 311.01)" class="st8 st1 st2">U</text>
</g>
</svg>
