<?xml version="1.0" encoding="utf-8"?>
<!-- Generator: Adobe Illustrator 25.2.0, SVG Export Plug-In . SVG Version: 6.00 Build 0)  -->
<svg version="1.1" id="图层_1" xmlns="http://www.w3.org/2000/svg" xmlns:xlink="http://www.w3.org/1999/xlink" x="0px" y="0px"
	 viewBox="0 0 400 400" style="enable-background:new 0 0 400 400;" xml:space="preserve">
<style type="text/css">
	.st0{fill:#2EA103;}
	.st1{font-family:'ArialMT';}
	.st2{font-size:33.88px;}
	.st3{fill:#F17D07;}
	.st4{letter-spacing:-1;}
	.st5{fill:none;stroke:#000000;stroke-width:0.14;stroke-miterlimit:1.11;}
	.st6{stroke:#000000;stroke-width:0.14;stroke-miterlimit:1.11;}
	.st7{font-size:20px;}
	.st8{fill:#999999;}
</style>
<g id="ID000019">
	<text transform="matrix(1 0 0 1 144.9106 200.7722)" class="st0 st1 st2">C</text>
</g>
<g id="ID000020">
	<text transform="matrix(1 0 0 1 111.0005 200.7722)" class="st0 st1 st2">C</text>
</g>
<g id="ID000021">
	<text transform="matrix(1 0 0 1 78.0205 200.7722)" class="st3 st1 st2 st4">A</text>
</g>
<g id="ID000022">
	<text transform="matrix(1 0 0 1 43.1705 200.7722)" class="st3 st1 st2">U</text>
</g>
<g id="ID000023">
	<line class="st5" x1="55.4" y1="208.1" x2="55.4" y2="230.7"/>
</g>
<g id="ID000025">
	<text transform="matrix(1 0 0 1 18.6705 166.8522)" class="st3 st1 st2 st4">A</text>
</g>
<g id="ID000026">
	<text transform="matrix(1 0 0 1 43.1705 132.9422)" class="st3 st1 st2">C</text>
</g>
<g id="ID000027">
	<text transform="matrix(1 0 0 1 76.1405 132.9422)" class="st3 st1 st2">G</text>
</g>
<g id="ID000028">
	<text transform="matrix(1 0 0 1 110.0605 132.9422)" class="st0 st1 st2">G</text>
</g>
<g id="ID000029">
	<text transform="matrix(1 0 0 1 143.9706 132.9422)" class="st0 st1 st2">G</text>
</g>
<g id="ID000030">
	<line class="st5" x1="157.2" y1="171.9" x2="157.2" y2="131.2"/>
</g>
<g id="ID000031">
	<line class="st5" x1="123.2" y1="171.9" x2="123.2" y2="131.2"/>
</g>
<g id="ID000032">
	<line class="st5" x1="61.5" y1="173.4" x2="83.3" y2="129.8"/>
</g>
<g id="ID000033">
	<polygon class="st6" points="75.4,145.5 75,145.3 74.6,145.2 74.2,145.1 73.8,145 73.4,144.9 72.9,144.8 72.5,144.8 72.1,144.8 
		71.6,144.9 71.2,144.9 70.8,145 70.4,145.1 70,145.3 69.6,145.4 69.2,145.6 68.8,145.8 68.5,146.1 68.1,146.3 67.8,146.6 
		67.5,146.9 67.2,147.2 66.9,147.6 66.7,147.9 66.5,148.3 66.3,148.7 66.1,149.1 65.9,149.5 65.8,149.9 65.7,150.3 65.6,150.7 
		65.6,151.1 65.6,151.6 65.6,152 65.6,152.4 65.7,152.9 65.8,153.3 65.9,153.7 66.1,154.1 66.2,154.5 66.4,154.9 66.7,155.2 
		66.9,155.6 67.2,155.9 67.4,156.3 67.7,156.6 68.1,156.8 68.4,157.1 68.8,157.3 69.1,157.6 69.5,157.8 69.9,157.9 70.3,158.1 
		70.7,158.2 71.2,158.3 71.6,158.3 72,158.4 72.5,158.4 72.9,158.4 73.3,158.3 73.7,158.2 74.2,158.1 74.6,158 75,157.9 75.4,157.7 
		75.7,157.5 76.1,157.3 76.5,157 76.8,156.7 77.1,156.4 77.4,156.1 77.7,155.8 77.9,155.5 78.2,155.1 78.4,154.7 78.6,154.3 
		78.7,153.9 78.9,153.5 79,153.1 79.1,152.7 79.1,152.3 79.1,151.8 79.1,151.4 79.1,151 79.1,150.5 79,150.1 78.9,149.7 78.8,149.3 
		78.6,148.9 78.4,148.5 78.2,148.1 78,147.8 77.7,147.4 77.4,147.1 77.1,146.8 76.8,146.5 76.5,146.2 76.1,146 75.8,145.7 	"/>
</g>
<text transform="matrix(1 0 0 1 157.1506 227.4922)" class="st1 st7">5</text>
<text transform="matrix(1 0 0 1 168.2706 227.4922)" class="st1 st7">’</text>
<text transform="matrix(1 0 0 1 271.7306 271.5022)" class="st1 st7">3</text>
<text transform="matrix(1 0 0 1 282.8506 271.5022)" class="st1 st7">’</text>
<text transform="matrix(1 0 0 1 48.3305 251.6422)" class="st1 st7">4</text>
<g id="ID000002">
	<text transform="matrix(1 0 0 1 194.0505 83.5721)" class="st8 st1 st2">G</text>
</g>
<g id="ID000007">
	<text transform="matrix(1 0 0 1 171.3906 103.9622)" class="st8 st1 st2 st4">A</text>
</g>
<g id="ID000007-2">
	<text transform="matrix(1 0 0 1 234.7606 73.8022)" class="st8 st1 st2 st4">A</text>
</g>
<g id="ID000007-3">
	<text transform="matrix(1 0 0 1 290.9606 117.5622)" class="st8 st1 st2 st4">A</text>
</g>
<g id="ID000007-4">
	<text transform="matrix(1 0 0 1 296.6705 188.5722)" class="st8 st1 st2 st4">A</text>
</g>
<g id="ID000007-5">
	<text transform="matrix(1 0 0 1 308.0106 151.5922)" class="st8 st1 st2 st4">A</text>
</g>
<g id="ID000012">
	<text transform="matrix(1 0 0 1 263.3306 217.7222)" class="st8 st1 st2">C</text>
</g>
<g id="ID000002-2">
	<text transform="matrix(1 0 0 1 269.9305 89.1622)" class="st8 st1 st2">G</text>
</g>
<g id="ID000023-2">
	<line class="st5" x1="340.9" y1="104" x2="318.3" y2="104"/>
</g>
<text transform="matrix(1 0 0 1 349.2506 113.2023)" class="st1 st7">14</text>
<text transform="matrix(1 0 0 1 128.1516 27.6562)" class="st1 st7">C13.18 aptamer</text>
<g id="ID000022-2">
	<text transform="matrix(1 0 0 1 246.3706 251.6422)" class="st8 st1 st2">U</text>
</g>
</svg>
