<svg id="图层_1" data-name="图层 1" xmlns="http://www.w3.org/2000/svg" viewBox="0 0 400 400">
  <defs>
    <style>
      .cls-1, .cls-2, .cls-3, .cls-8, .cls-9 {
        isolation: isolate;
        font-size: 33.88px;
      }

      .cls-1 {
        fill: #0c6;
      }

      .cls-1, .cls-2, .cls-3, .cls-6, .cls-8, .cls-9 {
        font-family: ArialMT, Arial;
      }

      .cls-2, .cls-3 {
        fill: #96c;
      }

      .cls-2 {
        letter-spacing: -0.06em;
      }

      .cls-4 {
        fill: none;
      }

      .cls-4, .cls-5 {
        stroke: #000;
        stroke-miterlimit: 1.11;
        stroke-width: 0.14px;
      }

      .cls-6 {
        font-size: 20px;
      }

      .cls-7 {
        letter-spacing: -0.04em;
      }

      .cls-8, .cls-9 {
        fill: #999;
      }

      .cls-9 {
        letter-spacing: -0.06em;
      }
    </style>
  </defs>
  <g id="ID000019">
    <text class="cls-1" transform="translate(160.95 260.14)">C</text>
  </g>
  <g id="ID000020">
    <text class="cls-1" transform="translate(127.04 260.14)">C</text>
  </g>
  <g id="ID000021">
    <text class="cls-2" transform="translate(94.06 260.14)">A</text>
  </g>
  <g id="ID000022">
    <text class="cls-3" transform="translate(59.21 260.14)">U</text>
  </g>
  <g id="ID000023">
    <line class="cls-4" x1="71.45" y1="267.48" x2="71.45" y2="290.09"/>
  </g>
  <g id="ID000025">
    <text class="cls-2" transform="translate(34.71 226.22)">A</text>
  </g>
  <g id="ID000026">
    <text class="cls-3" transform="translate(59.21 192.31)">C</text>
  </g>
  <g id="ID000027">
    <text class="cls-3" transform="translate(92.18 192.31)">G</text>
  </g>
  <g id="ID000028">
    <text class="cls-1" transform="translate(126.1 192.31)">G</text>
  </g>
  <g id="ID000029">
    <text class="cls-1" transform="translate(160.01 192.31)">G</text>
  </g>
  <g id="ID000030">
    <line class="cls-4" x1="173.19" y1="231.31" x2="173.19" y2="190.61"/>
  </g>
  <g id="ID000031">
    <line class="cls-4" x1="139.27" y1="231.31" x2="139.27" y2="190.61"/>
  </g>
  <g id="ID000032">
    <line class="cls-4" x1="77.51" y1="232.74" x2="99.29" y2="189.18"/>
  </g>
  <g id="ID000033">
    <polygon class="cls-5" points="91.44 204.89 91.05 204.71 90.64 204.56 90.23 204.43 89.82 204.33 89.39 204.25 88.97 204.2 88.54 204.18 88.11 204.19 87.68 204.22 87.25 204.28 86.83 204.36 86.41 204.48 86.01 204.62 85.61 204.78 85.22 204.97 84.85 205.19 84.49 205.42 84.15 205.68 83.82 205.96 83.51 206.26 83.22 206.58 82.96 206.92 82.71 207.27 82.49 207.64 82.29 208.02 82.12 208.42 81.97 208.82 81.84 209.23 81.75 209.65 81.68 210.08 81.64 210.51 81.62 210.94 81.63 211.37 81.67 211.8 81.74 212.22 81.83 212.64 81.95 213.06 82.1 213.46 82.27 213.85 82.47 214.24 82.69 214.61 82.93 214.96 83.19 215.3 83.48 215.62 83.78 215.93 84.11 216.21 84.45 216.47 84.81 216.71 85.18 216.93 85.56 217.12 85.96 217.29 86.37 217.43 86.78 217.55 87.2 217.64 87.63 217.7 88.06 217.74 88.49 217.74 88.92 217.72 89.35 217.68 89.77 217.6 90.19 217.5 90.6 217.38 91 217.23 91.39 217.05 91.78 216.85 92.14 216.62 92.49 216.37 92.83 216.1 93.14 215.81 93.44 215.5 93.72 215.17 93.98 214.83 94.21 214.47 94.42 214.09 94.61 213.7 94.77 213.3 94.91 212.89 95.02 212.48 95.1 212.06 95.15 211.63 95.18 211.2 95.18 210.77 95.16 210.34 95.11 209.91 95.03 209.49 94.92 209.07 94.79 208.66 94.63 208.26 94.44 207.87 94.23 207.5 94 207.13 93.75 206.79 93.47 206.46 93.18 206.14 92.86 205.85 92.53 205.58 92.18 205.33 91.82 205.1 91.44 204.89"/>
  </g>
  <text class="cls-6" transform="translate(173.19 286.86)">5<tspan class="cls-7" x="11.12" y="0">’</tspan></text>
  <text class="cls-6" transform="translate(287.77 330.87)">3<tspan class="cls-7" x="11.12" y="0">’</tspan></text>
  <text class="cls-6" transform="translate(64.37 311.01)">4</text>
  <g id="ID000002">
    <text class="cls-8" transform="translate(210.09 142.94)">G</text>
  </g>
  <g id="ID000007">
    <text class="cls-9" transform="translate(187.43 163.33)">A</text>
  </g>
  <g id="ID000007-2" data-name="ID000007">
    <text class="cls-9" transform="translate(250.8 133.17)">A</text>
  </g>
  <g id="ID000007-3" data-name="ID000007">
    <text class="cls-9" transform="translate(307 176.93)">A</text>
  </g>
  <g id="ID000007-4" data-name="ID000007">
    <text class="cls-9" transform="translate(312.71 247.94)">A</text>
  </g>
  <g id="ID000007-5" data-name="ID000007">
    <text class="cls-9" transform="translate(324.05 210.96)">A</text>
  </g>
  <g id="ID000012">
    <text class="cls-8" transform="translate(279.37 277.09)">C</text>
  </g>
  <g id="ID000002-2" data-name="ID000002">
    <text class="cls-8" transform="translate(285.97 148.53)">G</text>
  </g>
  <g id="ID000023-2" data-name="ID000023">
    <line class="cls-4" x1="356.95" y1="163.33" x2="334.34" y2="163.33"/>
  </g>
  <text class="cls-6" transform="translate(365.29 172.57)">14</text>
  <text class="cls-6" transform="translate(20.57 45.17)">C13.18 aptamer</text>
  <g id="ID000022-2" data-name="ID000022">
    <text class="cls-8" transform="translate(262.41 311.01)">U</text>
  </g>
</svg>
