<?xml version="1.0" encoding="utf-8"?>
<!-- Generator: Adobe Illustrator 25.2.0, SVG Export Plug-In . SVG Version: 6.00 Build 0)  -->
<svg version="1.1" id="图层_1" xmlns="http://www.w3.org/2000/svg" xmlns:xlink="http://www.w3.org/1999/xlink" x="0px" y="0px"
	 viewBox="0 0 800 400" style="enable-background:new 0 0 800 400;" xml:space="preserve">
<style type="text/css">
	.st0{fill:#FFFF33;}
	.st1{fill:#09FEFE;}
	.st2{font-family:'ArialMT';}
	.st3{font-size:15.0071px;}
	.st4{fill:#80DB9E;}
	.st5{fill:none;stroke:#000000;stroke-width:0.5;}
	.st6{fill:#FFFFFF;stroke:#000000;stroke-width:0.5;}
	.st7{stroke:#000000;stroke-width:0.5;}
	.st8{fill:#C2C2FF;}
	.st9{fill:#FF00FF;}
	.st10{font-size:14px;}
	.st11{font-size:15px;}
	.st12{font-size:20px;}
</style>
<rect x="335.3" y="155" class="st0" width="33" height="20.2"/>
<g>
	<g id="ID000002">
		<g transform="translate(873.508,463.543)">
			<g transform="rotate(-0.0)">
				<text transform="matrix(1 0 0 1 -529.5726 -98.579)" class="st1 st2 st3">G</text>
			</g>
		</g>
	</g>
	<g id="ID000003">
		<g transform="translate(873.508,446.683)">
			<g transform="rotate(-0.0)">
				<text transform="matrix(1 0 0 1 -529.5726 -96.6018)" class="st1 st2 st3">G</text>
			</g>
		</g>
	</g>
	<g id="ID000004">
		<g transform="translate(873.508,429.823)">
			<g transform="rotate(-0.0)">
				<text transform="matrix(1 0 0 1 -529.5726 -94.6275)" class="st1 st2 st3">G</text>
			</g>
		</g>
	</g>
	<g id="ID000005">
		<g transform="translate(873.508,412.963)">
			<g transform="rotate(-0.0)">
				<text transform="matrix(1 0 0 1 -528.7444 -92.6503)" class="st1 st2 st3">A</text>
			</g>
		</g>
	</g>
	<g id="ID000006">
		<g transform="translate(873.508,396.103)">
			<g transform="rotate(-0.0)">
				<text transform="matrix(1 0 0 1 -529.1585 -90.6731)" class="st1 st2 st3">C</text>
			</g>
		</g>
	</g>
	<g id="ID000007">
		<g transform="translate(873.508,379.242)">
			<g transform="rotate(-0.0)">
				<text transform="matrix(1 0 0 1 -529.5726 -88.6959)" class="st1 st2 st3">G</text>
			</g>
		</g>
	</g>
	<g id="ID000008">
		<g transform="translate(873.508,362.382)">
			<g transform="rotate(-0.0)">
				<text transform="matrix(1 0 0 1 -528.7444 -86.7187)" class="st1 st2 st3">A</text>
			</g>
		</g>
	</g>
	<g id="ID000009">
		<g transform="translate(860.863,345.522)">
			<g transform="rotate(-0.0)">
				<text transform="matrix(1 0 0 1 -527.2586 -84.7445)" class="st4 st2 st3">A</text>
			</g>
		</g>
	</g>
	<g id="ID000010">
		<g transform="translate(844.002,328.662)">
			<g transform="rotate(-0.0)">
				<text transform="matrix(1 0 0 1 -527.8932 -82.7671)" class="st4 st2 st3">G</text>
			</g>
		</g>
	</g>
	<g id="ID000011">
		<g transform="translate(839.787,307.586)">
			<g transform="rotate(-0.0)">
				<text transform="matrix(1 0 0 1 -526.9809 -80.2966)" class="st4 st2 st3">U</text>
			</g>
		</g>
	</g>
	<g id="ID000012">
		<line class="st5" x1="310.1" y1="220.6" x2="300.2" y2="220.6"/>
	</g>
	<g id="ID000013">
		<g transform="translate(817.307,307.586)">
			<g transform="rotate(-0.0)">
				<text transform="matrix(1 0 0 1 -533.8413 -80.2968)" class="st2 st3">10</text>
			</g>
		</g>
	</g>
	<g id="ID000014">
		<g transform="translate(839.787,286.511)">
			<g transform="rotate(-0.0)">
				<text transform="matrix(1 0 0 1 -526.9811 -79.3894)" class="st4 st2 st3">G</text>
			</g>
		</g>
	</g>
	<g id="ID000015">
		<g transform="translate(903.013,244.361)">
			<g transform="rotate(-0.0)">
				<text transform="matrix(1 0 0 1 -532.2016 -72.8843)" class="st4 st2 st3">A</text>
			</g>
		</g>
	</g>
	<g id="ID000016">
		<g transform="translate(907.228,324.447)">
			<g transform="rotate(-0.0)">
				<text transform="matrix(1 0 0 1 -532.6949 -82.273)" class="st4 st2 st3">A</text>
			</g>
		</g>
	</g>
	<g id="ID000017">
		<g transform="translate(907.228,345.522)">
			<g transform="rotate(-0.0)">
				<text transform="matrix(1 0 0 1 -532.6949 -84.7445)" class="st4 st2 st3">A</text>
			</g>
		</g>
	</g>
	<g id="ID000018">
		<g transform="translate(907.228,362.382)">
			<g transform="rotate(-0.0)">
				<text transform="matrix(1 0 0 1 -532.6949 -86.7187)" class="st1 st2 st3">A</text>
			</g>
		</g>
	</g>
	<g id="ID000019">
		<g transform="translate(907.228,379.242)">
			<g transform="rotate(-0.0)">
				<text transform="matrix(1 0 0 1 -533.109 -88.6959)" class="st1 st2 st3">C</text>
			</g>
		</g>
	</g>
	<g id="ID000020">
		<g transform="translate(907.228,396.103)">
			<g transform="rotate(-0.0)">
				<text transform="matrix(1 0 0 1 -533.526 -90.6731)" class="st1 st2 st3">G</text>
			</g>
		</g>
	</g>
	<g id="ID000021">
		<g transform="translate(907.228,412.963)">
			<g transform="rotate(-0.0)">
				<text transform="matrix(1 0 0 1 -533.109 -92.6503)" class="st1 st2 st3">U</text>
			</g>
		</g>
	</g>
	<g id="ID000022">
		<g transform="translate(907.228,429.823)">
			<g transform="rotate(-0.0)">
				<text transform="matrix(1 0 0 1 -533.109 -94.6275)" class="st1 st2 st3">C</text>
			</g>
		</g>
	</g>
	<g id="ID000023">
		<g transform="translate(907.228,446.683)">
			<g transform="rotate(-0.0)">
				<text transform="matrix(1 0 0 1 -533.109 -96.6018)" class="st1 st2 st3">C</text>
			</g>
		</g>
	</g>
	<g id="ID000024">
		<line class="st5" x1="389.5" y1="343.4" x2="399.4" y2="343.4"/>
	</g>
	<g id="ID000025">
		<g transform="translate(929.709,446.683)">
			<g transform="rotate(-0.0)">
				<text transform="matrix(1 0 0 1 -530.3243 -96.6018)" class="st2 st3">40</text>
			</g>
		</g>
	</g>
	<g id="ID000026">
		<g transform="translate(907.228,463.543)">
			<g transform="rotate(-0.0)">
				<text transform="matrix(1 0 0 1 -533.109 -98.579)" class="st1 st2 st3">C</text>
			</g>
		</g>
	</g>
	<g id="ID000027">
		<line class="st5" x1="355.7" y1="358.3" x2="373.6" y2="358.3"/>
	</g>
	<g id="ID000028">
		<line class="st5" x1="355.7" y1="343.4" x2="373.6" y2="343.4"/>
	</g>
	<g id="ID000029">
		<line class="st5" x1="355.7" y1="328.5" x2="373.6" y2="328.5"/>
	</g>
	<g id="ID000030">
		<line class="st5" x1="355.7" y1="313.6" x2="373.6" y2="313.6"/>
	</g>
	<g id="ID000031">
		<line class="st5" x1="355.7" y1="298.7" x2="373.6" y2="298.7"/>
	</g>
	<g id="ID000032">
		<line class="st5" x1="355.7" y1="283.8" x2="373.6" y2="283.8"/>
	</g>
	<g id="ID000033">
		<line class="st5" x1="355.7" y1="269" x2="373.6" y2="269"/>
	</g>
	<g id="ID000034">
		<polygon class="st6" points="367.6,269 367.6,268.8 367.6,268.6 367.6,268.4 367.5,268.2 367.5,268 367.4,267.9 367.3,267.7 
			367.3,267.5 367.2,267.4 367.1,267.2 366.9,267.1 366.8,266.9 366.7,266.8 366.5,266.7 366.4,266.5 366.2,266.4 366.1,266.3 
			365.9,266.3 365.7,266.2 365.5,266.1 365.4,266.1 365.2,266 365,266 364.8,266 364.6,266 364.4,266 364.2,266 364,266.1 
			363.9,266.1 363.7,266.2 363.5,266.2 363.3,266.3 363.2,266.4 363,266.5 362.9,266.6 362.7,266.7 362.6,266.8 362.4,267 
			362.3,267.1 362.2,267.3 362.1,267.4 362,267.6 361.9,267.8 361.9,267.9 361.8,268.1 361.8,268.3 361.7,268.5 361.7,268.7 
			361.7,268.9 361.7,269.1 361.7,269.2 361.7,269.4 361.8,269.6 361.8,269.8 361.9,270 361.9,270.2 362,270.3 362.1,270.5 
			362.2,270.7 362.3,270.8 362.4,270.9 362.6,271.1 362.7,271.2 362.9,271.3 363,271.4 363.2,271.5 363.3,271.6 363.5,271.7 
			363.7,271.8 363.9,271.8 364,271.9 364.2,271.9 364.4,271.9 364.6,271.9 364.8,271.9 365,271.9 365.2,271.9 365.4,271.9 
			365.5,271.8 365.7,271.7 365.9,271.7 366.1,271.6 366.2,271.5 366.4,271.4 366.5,271.3 366.7,271.2 366.8,271 366.9,270.9 
			367.1,270.7 367.2,270.6 367.3,270.4 367.3,270.2 367.4,270.1 367.5,269.9 367.5,269.7 367.6,269.5 367.6,269.3 367.6,269.2 		"/>
	</g>
	<g id="ID000035">
		<line class="st5" x1="336.6" y1="248.5" x2="322" y2="207.6"/>
	</g>
	<g id="ID000036">
		<polygon class="st7" points="331.9,235.3 333.1,228.7 326.8,231 		"/>
	</g>
	<g id="ID000037">
		<polygon class="st7" points="327,221.6 326.8,221.7 326.7,221.7 326.5,221.8 326.3,221.9 326.2,222 326,222.2 325.9,222.3 
			325.8,222.4 325.6,222.6 325.5,222.7 325.4,222.9 325.3,223.1 325.3,223.2 325.2,223.4 325.1,223.6 325.1,223.8 325.1,223.9 
			325,224.1 325,224.3 325,224.5 325,224.7 325.1,224.9 325.1,225.1 325.2,225.3 325.2,225.4 325.3,225.6 325.4,225.8 325.5,225.9 
			325.6,226.1 325.7,226.3 325.8,226.4 325.9,226.5 326.1,226.7 326.2,226.8 326.4,226.9 326.5,227 326.7,227.1 326.9,227.1 
			327.1,227.2 327.2,227.3 327.4,227.3 327.6,227.3 327.8,227.4 328,227.4 328.2,227.4 328.4,227.3 328.5,227.3 328.7,227.3 
			328.9,227.2 329.1,227.2 329.3,227.1 329.4,227 329.6,226.9 329.8,226.8 329.9,226.7 330,226.6 330.2,226.4 330.3,226.3 
			330.4,226.1 330.5,226 330.6,225.8 330.7,225.6 330.8,225.5 330.8,225.3 330.9,225.1 330.9,224.9 331,224.7 331,224.5 331,224.4 
			331,224.2 331,224 330.9,223.8 330.9,223.6 330.8,223.4 330.8,223.3 330.7,223.1 330.6,222.9 330.5,222.8 330.4,222.6 
			330.3,222.5 330.1,222.3 330,222.2 329.9,222.1 329.7,221.9 329.5,221.8 329.4,221.8 329.2,221.7 329,221.6 328.9,221.5 
			328.7,221.5 328.5,221.5 328.3,221.4 328.1,221.4 327.9,221.4 327.7,221.4 327.6,221.4 327.4,221.5 327.2,221.5 		"/>
	</g>
	<g id="ID000038">
		<line class="st5" x1="340.9" y1="248.6" x2="373.5" y2="170.3"/>
	</g>
	<g id="ID000039">
		<polygon class="st6" points="357.3,216.9 359.6,211.4 354.1,209.1 351.8,214.6 		"/>
	</g>
	<g id="ID000040">
		<polygon class="st6" points="359.8,203.1 359.7,203 359.5,203 359.3,202.9 359.1,202.9 358.9,202.9 358.7,202.9 358.6,202.9 
			358.4,202.9 358.2,202.9 358,203 357.8,203 357.6,203.1 357.5,203.2 357.3,203.2 357.1,203.3 357,203.4 356.8,203.6 356.7,203.7 
			356.5,203.8 356.4,203.9 356.3,204.1 356.2,204.3 356.1,204.4 356,204.6 355.9,204.8 355.9,204.9 355.8,205.1 355.8,205.3 
			355.7,205.5 355.7,205.7 355.7,205.9 355.7,206.1 355.7,206.2 355.8,206.4 355.8,206.6 355.9,206.8 355.9,207 356,207.1 
			356.1,207.3 356.2,207.5 356.3,207.6 356.4,207.8 356.6,207.9 356.7,208 356.8,208.2 357,208.3 357.1,208.4 357.3,208.5 
			357.5,208.6 357.6,208.6 357.8,208.7 358,208.8 358.2,208.8 358.4,208.8 358.6,208.8 358.8,208.8 358.9,208.8 359.1,208.8 
			359.3,208.8 359.5,208.7 359.7,208.7 359.9,208.6 360,208.5 360.2,208.4 360.4,208.3 360.5,208.2 360.7,208.1 360.8,208 
			360.9,207.8 361,207.7 361.2,207.5 361.3,207.4 361.3,207.2 361.4,207 361.5,206.9 361.6,206.7 361.6,206.5 361.6,206.3 
			361.7,206.1 361.7,205.9 361.7,205.8 361.7,205.6 361.6,205.4 361.6,205.2 361.6,205 361.5,204.8 361.4,204.7 361.3,204.5 
			361.3,204.3 361.1,204.2 361,204 360.9,203.9 360.8,203.7 360.6,203.6 360.5,203.5 360.3,203.4 360.2,203.3 360,203.2 		"/>
	</g>
	<g id="ID000041">
		<line class="st5" x1="326.6" y1="234" x2="372.9" y2="151.4"/>
	</g>
	<g id="ID000042">
		<polygon class="st6" points="349,200.1 351.9,194.9 346.7,192 343.8,197.2 		"/>
	</g>
	<g id="ID000043">
		<polygon class="st6" points="353.1,186.7 352.9,186.6 352.8,186.5 352.6,186.5 352.4,186.4 352.2,186.4 352,186.4 351.9,186.3 
			351.7,186.3 351.5,186.3 351.3,186.4 351.1,186.4 350.9,186.4 350.7,186.5 350.6,186.5 350.4,186.6 350.2,186.7 350.1,186.8 
			349.9,186.9 349.8,187 349.6,187.1 349.5,187.3 349.4,187.4 349.2,187.6 349.1,187.7 349,187.9 349,188.1 348.9,188.2 
			348.8,188.4 348.8,188.6 348.7,188.8 348.7,189 348.7,189.2 348.7,189.3 348.7,189.5 348.7,189.7 348.7,189.9 348.8,190.1 
			348.8,190.3 348.9,190.5 349,190.6 349.1,190.8 349.2,191 349.3,191.1 349.4,191.3 349.5,191.4 349.7,191.5 349.8,191.6 
			350,191.8 350.1,191.9 350.3,192 350.5,192 350.6,192.1 350.8,192.2 351,192.2 351.2,192.2 351.4,192.3 351.6,192.3 351.7,192.3 
			351.9,192.3 352.1,192.3 352.3,192.2 352.5,192.2 352.7,192.1 352.8,192 353,192 353.2,191.9 353.3,191.8 353.5,191.7 
			353.6,191.5 353.8,191.4 353.9,191.3 354,191.1 354.1,191 354.2,190.8 354.3,190.6 354.4,190.5 354.5,190.3 354.5,190.1 
			354.6,189.9 354.6,189.7 354.6,189.6 354.6,189.4 354.6,189.2 354.6,189 354.6,188.8 354.6,188.6 354.5,188.4 354.4,188.3 
			354.4,188.1 354.3,187.9 354.2,187.7 354.1,187.6 354,187.4 353.9,187.3 353.7,187.2 353.6,187 353.4,186.9 353.3,186.8 		"/>
	</g>
	<g id="ID000044">
		<line class="st5" x1="324.6" y1="233.3" x2="344.3" y2="118.6"/>
	</g>
	<g id="ID000045">
		<polygon class="st7" points="332,182.7 332.2,182.7 332.4,182.7 332.6,182.7 332.8,182.7 333,182.7 333.2,182.7 333.3,182.6 
			333.5,182.6 333.7,182.5 333.9,182.4 334,182.3 334.2,182.2 334.3,182.1 334.5,182 334.6,181.8 334.7,181.7 334.9,181.5 
			335,181.4 335.1,181.2 335.1,181.1 335.2,180.9 335.3,180.7 335.3,180.5 335.4,180.3 335.4,180.2 335.4,180 335.4,179.8 
			335.4,179.6 335.4,179.4 335.4,179.2 335.3,179 335.3,178.9 335.2,178.7 335.2,178.5 335.1,178.3 335,178.2 334.9,178 
			334.7,177.9 334.6,177.7 334.5,177.6 334.3,177.5 334.2,177.4 334,177.2 333.9,177.2 333.7,177.1 333.5,177 333.4,176.9 
			333.2,176.9 333,176.8 332.8,176.8 332.6,176.8 332.4,176.8 332.2,176.8 332,176.8 331.9,176.9 331.7,176.9 331.5,177 331.3,177 
			331.2,177.1 331,177.2 330.8,177.3 330.7,177.4 330.5,177.5 330.4,177.6 330.3,177.8 330.1,177.9 330,178.1 329.9,178.2 
			329.8,178.4 329.7,178.6 329.7,178.7 329.6,178.9 329.6,179.1 329.5,179.3 329.5,179.5 329.5,179.7 329.5,179.9 329.5,180 
			329.5,180.2 329.6,180.4 329.6,180.6 329.7,180.8 329.7,181 329.8,181.1 329.9,181.3 330,181.5 330.1,181.6 330.2,181.7 
			330.4,181.9 330.5,182 330.7,182.1 330.8,182.2 331,182.3 331.1,182.4 331.3,182.5 331.5,182.6 331.7,182.6 331.8,182.7 		"/>
	</g>
	<g id="ID000046">
		<polygon class="st7" points="331.1,168.7 330.2,174.6 336.1,175.5 337,169.6 		"/>
	</g>
	<g id="ID000047">
		<line class="st5" x1="376.1" y1="170.7" x2="379.2" y2="229.5"/>
	</g>
	<g id="ID000048">
		<polygon class="st7" points="377.3,192.4 374.2,198.4 380.9,198 		"/>
	</g>
	<g id="ID000049">
		<polygon class="st7" points="381,206.8 380.7,200.9 374.8,201.2 375.1,207.1 		"/>
	</g>
	<g id="ID000050">
		<line class="st5" x1="330.5" y1="155" x2="376.4" y2="230.4"/>
	</g>
	<g id="ID000051">
		<polygon class="st7" points="355,195.2 355.2,195.1 355.3,195 355.5,194.9 355.6,194.8 355.8,194.6 355.9,194.5 356,194.3 
			356.1,194.2 356.2,194 356.2,193.8 356.3,193.6 356.4,193.5 356.4,193.3 356.4,193.1 356.5,192.9 356.5,192.7 356.5,192.5 
			356.4,192.3 356.4,192.1 356.4,192 356.3,191.8 356.3,191.6 356.2,191.4 356.1,191.3 356,191.1 355.9,190.9 355.8,190.8 
			355.7,190.6 355.5,190.5 355.4,190.4 355.2,190.3 355.1,190.2 354.9,190.1 354.8,190 354.6,189.9 354.4,189.9 354.2,189.8 
			354,189.8 353.8,189.7 353.7,189.7 353.5,189.7 353.3,189.7 353.1,189.7 352.9,189.8 352.7,189.8 352.5,189.9 352.4,189.9 
			352.2,190 352,190.1 351.9,190.2 351.7,190.3 351.6,190.4 351.4,190.5 351.3,190.7 351.2,190.8 351.1,191 351,191.1 350.9,191.3 
			350.8,191.5 350.7,191.6 350.6,191.8 350.6,192 350.6,192.2 350.5,192.4 350.5,192.6 350.5,192.8 350.5,192.9 350.5,193.1 
			350.6,193.3 350.6,193.5 350.7,193.7 350.8,193.9 350.8,194 350.9,194.2 351,194.4 351.1,194.5 351.3,194.7 351.4,194.8 
			351.5,194.9 351.7,195 351.8,195.2 352,195.3 352.1,195.3 352.3,195.4 352.5,195.5 352.7,195.5 352.9,195.6 353,195.6 
			353.2,195.7 353.4,195.7 353.6,195.7 353.8,195.6 354,195.6 354.2,195.6 354.4,195.5 354.5,195.5 354.7,195.4 354.9,195.3 		"/>
	</g>
	<g id="ID000052">
		<line class="st5" x1="323.8" y1="187.9" x2="375.7" y2="249.5"/>
	</g>
	<g id="ID000053">
		<polygon class="st7" points="351.7,221 351.8,220.9 352,220.7 352.1,220.6 352.2,220.5 352.3,220.3 352.4,220.1 352.5,220 
			352.6,219.8 352.6,219.6 352.7,219.4 352.7,219.2 352.7,219.1 352.7,218.9 352.7,218.7 352.7,218.5 352.7,218.3 352.7,218.1 
			352.6,217.9 352.6,217.8 352.5,217.6 352.4,217.4 352.3,217.2 352.2,217.1 352.1,216.9 352,216.8 351.9,216.6 351.8,216.5 
			351.6,216.4 351.5,216.3 351.3,216.2 351.1,216.1 351,216 350.8,215.9 350.6,215.9 350.4,215.8 350.2,215.8 350,215.8 
			349.9,215.8 349.7,215.8 349.5,215.8 349.3,215.8 349.1,215.8 348.9,215.9 348.7,215.9 348.6,216 348.4,216.1 348.2,216.2 
			348.1,216.3 347.9,216.4 347.8,216.5 347.6,216.6 347.5,216.8 347.4,216.9 347.3,217.1 347.2,217.2 347.1,217.4 347,217.6 
			347,217.8 346.9,217.9 346.9,218.1 346.8,218.3 346.8,218.5 346.8,218.7 346.8,218.9 346.8,219.1 346.8,219.3 346.9,219.4 
			346.9,219.6 347,219.8 347.1,220 347.1,220.1 347.2,220.3 347.3,220.5 347.5,220.6 347.6,220.8 347.7,220.9 347.9,221 348,221.1 
			348.2,221.2 348.3,221.3 348.5,221.4 348.7,221.5 348.8,221.6 349,221.6 349.2,221.7 349.4,221.7 349.6,221.7 349.8,221.7 
			350,221.7 350.2,221.7 350.3,221.7 350.5,221.6 350.7,221.6 350.9,221.5 351.1,221.4 351.2,221.3 351.4,221.2 351.5,221.1 		"/>
	</g>
	<g id="ID000055">
		<g transform="translate(839.787,265.436)">
			<g transform="rotate(-0.0)">
				<text transform="matrix(1 0 0 1 -525.6213 -79.1028)" class="st4 st2 st3">G</text>
			</g>
		</g>
	</g>
	<g id="ID000056">
		<g transform="translate(844.002,244.361)">
			<g transform="rotate(-0.0)">
				<text transform="matrix(1 0 0 1 -526.1156 -73.6369)" class="st4 st2 st3">U</text>
			</g>
		</g>
	</g>
	<g id="ID000057">
		<g transform="translate(848.218,227.500)">
			<g transform="rotate(-0.0)">
				<text transform="matrix(1 0 0 1 -526.1929 -72.5193)" class="st4 st2 st3">U</text>
			</g>
		</g>
	</g>
	<g id="ID000058">
		<g transform="translate(856.648,206.425)">
			<g transform="rotate(-0.0)">
				<text transform="matrix(1 0 0 1 -529.2035 -68.4364)" class="st4 st2 st3">G</text>
			</g>
		</g>
	</g>
	<g id="ID000059">
		<g transform="translate(865.078,185.350)">
			<g transform="rotate(-0.0)">
				<text transform="matrix(1 0 0 1 -528.584 -65.968)" class="st4 st2 st3">G</text>
			</g>
		</g>
	</g>
	<g id="ID000060">
		<g transform="translate(865.078,168.490)">
			<g transform="rotate(-0.0)">
				<text transform="matrix(1 0 0 1 -528.584 -63.9908)" class="st8 st2 st3">G</text>
			</g>
		</g>
	</g>
	<g id="ID000061">
		<g transform="translate(865.078,151.629)">
			<g transform="rotate(-0.0)">
				<text transform="matrix(1 0 0 1 -528.1699 -62.0136)" class="st8 st2 st3">C</text>
			</g>
		</g>
	</g>
	<g id="ID000062">
		<g transform="translate(865.078,134.769)">
			<g transform="rotate(-0.0)">
				<text transform="matrix(1 0 0 1 -528.584 -60.0364)" class="st8 st2 st3">G</text>
			</g>
		</g>
	</g>
	<g id="ID000063">
		<g transform="translate(865.078,117.909)">
			<g transform="rotate(-0.0)">
				<text transform="matrix(1 0 0 1 -528.1699 -58.0621)" class="st8 st2 st3">C</text>
			</g>
		</g>
	</g>
	<g id="ID000064">
		<line class="st5" x1="332.4" y1="53.2" x2="322.5" y2="53.2"/>
	</g>
	<g id="ID000065">
		<g transform="translate(842.597,117.909)">
			<g transform="rotate(-0.0)">
				<text transform="matrix(1 0 0 1 -536.8071 -58.0621)" class="st2 st3">20</text>
			</g>
		</g>
	</g>
	<g id="ID000066">
		<g transform="translate(865.078,101.049)">
			<g transform="rotate(-0.0)">
				<text transform="matrix(1 0 0 1 -528.1699 -56.085)" class="st8 st2 st3">U</text>
			</g>
		</g>
	</g>
	<g id="ID000067">
		<g transform="translate(872.103,82.783)">
			<g transform="rotate(-0.0)">
				<text transform="matrix(1 0 0 1 -528.9918 -53.942)" class="st8 st2 st3">U</text>
			</g>
		</g>
	</g>
	<g id="ID000068">
		<g transform="translate(893.178,82.783)">
			<g transform="rotate(-0.0)">
				<text transform="matrix(1 0 0 1 -531.4623 -53.942)" class="st8 st2 st3">C</text>
			</g>
		</g>
	</g>
	<g id="ID000069">
		<g transform="translate(898.798,101.049)">
			<g transform="rotate(-0.0)">
				<text transform="matrix(1 0 0 1 -532.5383 -56.085)" class="st8 st2 st3">G</text>
			</g>
		</g>
	</g>
	<g id="ID000070">
		<g transform="translate(898.798,117.909)">
			<g transform="rotate(-0.0)">
				<text transform="matrix(1 0 0 1 -532.5383 -58.0621)" class="st8 st2 st3">G</text>
			</g>
		</g>
	</g>
	<g id="ID000071">
		<g transform="translate(898.798,134.769)">
			<g transform="rotate(-0.0)">
				<text transform="matrix(1 0 0 1 -532.1204 -60.0364)" class="st8 st2 st3">C</text>
			</g>
		</g>
	</g>
	<g id="ID000072">
		<g transform="translate(898.798,151.629)">
			<g transform="rotate(-0.0)">
				<text transform="matrix(1 0 0 1 -532.5383 -62.0136)" class="st8 st2 st3">G</text>
			</g>
		</g>
	</g>
	<g id="ID000073">
		<g transform="translate(898.798,168.490)">
			<g transform="rotate(-0.0)">
				<text transform="matrix(1 0 0 1 -532.1204 -63.9908)" class="st8 st2 st3">U</text>
			</g>
		</g>
	</g>
	<g id="ID000074">
		<g transform="translate(898.798,185.350)">
			<g transform="rotate(-0.0)">
				<text transform="matrix(1 0 0 1 -532.5383 -65.968)" class="st4 st2 st3">G</text>
			</g>
		</g>
	</g>
	<g id="ID000075">
		<g transform="translate(898.798,202.210)">
			<g transform="rotate(-0.0)">
				<text transform="matrix(1 0 0 1 -529.3267 -67.9421)" class="st4 st2 st3">U</text>
			</g>
		</g>
	</g>
	<g id="ID000076">
		<line class="st5" x1="383.8" y1="127.6" x2="393.7" y2="127.6"/>
	</g>
	<g id="ID000077">
		<g transform="translate(921.278,202.210)">
			<g transform="rotate(-0.0)">
				<text transform="matrix(1 0 0 1 -529.3387 -67.9423)" class="st2 st3">30</text>
			</g>
		</g>
	</g>
	<g id="ID000078">
		<g transform="translate(903.013,223.285)">
			<g transform="rotate(-0.0)">
				<text transform="matrix(1 0 0 1 -532.2018 -71.1546)" class="st9 st2 st3">G</text>
			</g>
		</g>
	</g>
	<g id="ID000079">
		<polygon class="st7" points="360.2,97.8 360.2,97.6 360.2,97.4 360.1,97.2 360.1,97.1 360,96.9 360,96.7 359.9,96.5 359.8,96.4 
			359.7,96.2 359.6,96 359.5,95.9 359.4,95.7 359.2,95.6 359.1,95.5 358.9,95.4 358.8,95.3 358.6,95.2 358.4,95.1 358.3,95 
			358.1,95 357.9,94.9 357.7,94.9 357.5,94.8 357.4,94.8 357.2,94.8 357,94.8 356.8,94.9 356.6,94.9 356.4,94.9 356.2,95 
			356.1,95.1 355.9,95.1 355.7,95.2 355.6,95.3 355.4,95.4 355.3,95.6 355.1,95.7 355,95.8 354.9,96 354.8,96.1 354.7,96.3 
			354.6,96.4 354.5,96.6 354.4,96.8 354.4,97 354.3,97.1 354.3,97.3 354.2,97.5 354.2,97.7 354.2,97.9 354.2,98.1 354.3,98.3 
			354.3,98.5 354.4,98.6 354.4,98.8 354.5,99 354.6,99.2 354.7,99.3 354.8,99.5 354.9,99.6 355,99.8 355.1,99.9 355.3,100.1 
			355.4,100.2 355.6,100.3 355.7,100.4 355.9,100.5 356.1,100.5 356.2,100.6 356.4,100.7 356.6,100.7 356.8,100.7 357,100.8 
			357.2,100.8 357.4,100.8 357.5,100.8 357.7,100.7 357.9,100.7 358.1,100.6 358.3,100.6 358.4,100.5 358.6,100.4 358.8,100.3 
			358.9,100.2 359.1,100.1 359.2,100 359.4,99.9 359.5,99.7 359.6,99.6 359.7,99.4 359.8,99.2 359.9,99.1 360,98.9 360,98.7 
			360.1,98.5 360.1,98.4 360.2,98.2 360.2,98 		"/>
	</g>
	<g id="ID000080">
		<line class="st5" x1="348.3" y1="82.9" x2="366.1" y2="82.9"/>
	</g>
	<g id="ID000081">
		<line class="st5" x1="348.3" y1="68" x2="366.1" y2="68"/>
	</g>
	<g id="ID000082">
		<line class="st5" x1="348.3" y1="53.2" x2="366.1" y2="53.2"/>
	</g>
	<g id="ID000083">
		<line class="st5" x1="348.3" y1="38.3" x2="366.1" y2="38.3"/>
	</g>
	<g id="ID000084">
		<polygon class="st6" points="360.2,38.3 360.2,38.1 360.2,37.9 360.1,37.7 360.1,37.5 360,37.3 360,37.2 359.9,37 359.8,36.8 
			359.7,36.7 359.6,36.5 359.5,36.4 359.4,36.2 359.2,36.1 359.1,36 358.9,35.8 358.8,35.7 358.6,35.6 358.4,35.6 358.3,35.5 
			358.1,35.4 357.9,35.4 357.7,35.3 357.5,35.3 357.4,35.3 357.2,35.3 357,35.3 356.8,35.3 356.6,35.4 356.4,35.4 356.2,35.5 
			356.1,35.5 355.9,35.6 355.7,35.7 355.6,35.8 355.4,35.9 355.3,36 355.1,36.1 355,36.3 354.9,36.4 354.8,36.6 354.7,36.7 
			354.6,36.9 354.5,37.1 354.4,37.2 354.4,37.4 354.3,37.6 354.3,37.8 354.2,38 354.2,38.2 354.2,38.4 354.2,38.6 354.3,38.7 
			354.3,38.9 354.4,39.1 354.4,39.3 354.5,39.5 354.6,39.6 354.7,39.8 354.8,40 354.9,40.1 355,40.3 355.1,40.4 355.3,40.5 
			355.4,40.6 355.6,40.7 355.7,40.8 355.9,40.9 356.1,41 356.2,41.1 356.4,41.1 356.6,41.2 356.8,41.2 357,41.2 357.2,41.2 
			357.4,41.2 357.5,41.2 357.7,41.2 357.9,41.2 358.1,41.1 358.3,41 358.4,41 358.6,40.9 358.8,40.8 358.9,40.7 359.1,40.6 
			359.2,40.5 359.4,40.3 359.5,40.2 359.6,40 359.7,39.9 359.8,39.7 359.9,39.5 360,39.4 360,39.2 360.1,39 360.1,38.8 360.2,38.6 
			360.2,38.5 		"/>
	</g>
</g>
<text transform="matrix(1 0 0 1 337.0319 171.9794)" class="st2 st10">GTP</text>
<text transform="matrix(1 0 0 1 338.1745 380.6812)" class="st2 st11">5’</text>
<text transform="matrix(1 0 0 1 384.5712 380.5015)" class="st2 st11">3’</text>
<text transform="matrix(1 0 0 1 106.4547 34.0392)" class="st2 st12">GTP-aptamer</text>
</svg>
