<?xml version="1.0" encoding="UTF-8"?>
<svg id="_图层_1" data-name="图层 1" xmlns="http://www.w3.org/2000/svg" version="1.1" viewBox="0 0 800 400">
  <defs>
    <style>
      .cls-1 {
        letter-spacing: 1.1em;
      }

      .cls-1, .cls-2, .cls-3, .cls-4, .cls-5, .cls-6, .cls-7, .cls-8, .cls-9 {
        font-family: ArialMT, Arial;
      }

      .cls-1, .cls-2, .cls-4, .cls-5 {
        fill: #c2c2ff;
      }

      .cls-1, .cls-2, .cls-4, .cls-5, .cls-6, .cls-7, .cls-9 {
        font-size: 18.6px;
      }

      .cls-10 {
        stroke: #242424;
      }

      .cls-10, .cls-11 {
        fill: none;
        stroke-miterlimit: 10;
        stroke-width: .5px;
      }

      .cls-12, .cls-8 {
        isolation: isolate;
      }

      .cls-2, .cls-7 {
        letter-spacing: 1.1em;
      }

      .cls-3 {
        fill: #242424;
        font-size: 9.5px;
      }

      .cls-11 {
        stroke: #000;
      }

      .cls-4 {
        letter-spacing: 1em;
      }

      .cls-6 {
        fill: #ff870a;
      }

      .cls-7, .cls-9 {
        fill: #80db9e;
      }

      .cls-8 {
        fill: #000;
        font-size: 25px;
      }
    </style>
  </defs>
  <text class="cls-9" transform="translate(345.6 380)"><tspan x="0" y="0">G</tspan></text>
  <text class="cls-5" transform="translate(417.5 379.4)"><tspan x="0" y="0">G</tspan></text>
  <text class="cls-9" transform="translate(345.6 359.1)"><tspan x="0" y="0">C</tspan></text>
  <text class="cls-9" transform="translate(345.6 338.1)"><tspan x="0" y="0">U</tspan></text>
  <text class="cls-9" transform="translate(345.6 317.1)"><tspan x="0" y="0">U</tspan></text>
  <text class="cls-9" transform="translate(345.6 296.2)"><tspan x="0" y="0">G</tspan></text>
  <text class="cls-5" transform="translate(322.5 278.9)"><tspan x="0" y="0">A</tspan></text>
  <text class="cls-5" transform="translate(317.3 259.5)"><tspan x="0" y="0">C</tspan></text>
  <text class="cls-5" transform="translate(322.5 240.1)"><tspan x="0" y="0">G</tspan></text>
  <text class="cls-6" transform="translate(345.6 220.7)"><tspan x="0" y="0">G</tspan></text>
  <text class="cls-6" transform="translate(345.6 199.7)"><tspan x="0" y="0">A</tspan></text>
  <text class="cls-6" transform="translate(345.6 178.7)"><tspan x="0" y="0">G</tspan></text>
  <text class="cls-6" transform="translate(345.6 157.8)"><tspan x="0" y="0">A</tspan></text>
  <text class="cls-6" transform="translate(345.7 134.5)"><tspan x="0" y="0">U</tspan></text>
  <text class="cls-6" transform="translate(345.7 113.5)"><tspan x="0" y="0">C</tspan></text>
  <text class="cls-5" transform="translate(334.9 92)"><tspan x="0" y="0">A</tspan></text>
  <text class="cls-5" transform="translate(337.8 72.6)"><tspan x="0" y="0">A</tspan></text>
  <text class="cls-4" transform="translate(354.5 56.3)"><tspan x="0" y="0">G</tspan></text>
  <text class="cls-5" transform="translate(392.5 72.4)"><tspan x="0" y="0">G</tspan></text>
  <text class="cls-5" transform="translate(396 91.8)"><tspan x="0" y="0">C</tspan></text>
  <text class="cls-6" transform="translate(378.1 113.5)"><tspan x="0" y="0">G</tspan></text>
  <text class="cls-6" transform="translate(378.1 134.5)"><tspan x="0" y="0">A</tspan></text>
  <text class="cls-5" transform="translate(393.4 139.6)"><tspan x="0" y="0">G</tspan></text>
  <text class="cls-6" transform="translate(378 157.8)"><tspan x="0" y="0">U</tspan></text>
  <text class="cls-6" transform="translate(378 178.7)"><tspan x="0" y="0">C</tspan></text>
  <text class="cls-6" transform="translate(378 199.7)"><tspan x="0" y="0">U</tspan></text>
  <text class="cls-6" transform="translate(378 220.7)"><tspan x="0" y="0">C</tspan></text>
  <text class="cls-5" transform="translate(397.8 235.3)"><tspan x="0" y="0">A</tspan></text>
  <text class="cls-5" transform="translate(405.3 250.8)"><tspan x="0" y="0">U</tspan></text>
  <text class="cls-5" transform="translate(408.6 268.1)"><tspan x="0" y="0">A</tspan></text>
  <text class="cls-5" transform="translate(397.8 283.6)"><tspan x="0" y="0">C</tspan></text>
  <text class="cls-9" transform="translate(378 296.2)"><tspan x="0" y="0">C</tspan></text>
  <text class="cls-9" transform="translate(378 317.1)"><tspan x="0" y="0">A</tspan></text>
  <text class="cls-9" transform="translate(378 338.1)"><tspan x="0" y="0">A</tspan></text>
  <text class="cls-5" transform="translate(439.1 379.4)"><tspan x="0" y="0">A</tspan></text>
  <text class="cls-9" transform="translate(378 359.1)"><tspan x="0" y="0">G</tspan></text>
  <text class="cls-5" transform="translate(532 379.4)"><tspan x="0" y="0">G</tspan></text>
  <text class="cls-5" transform="translate(514.5 379.4)"><tspan x="0" y="0">G</tspan></text>
  <text class="cls-5" transform="translate(495.7 379.4)"><tspan x="0" y="0">G</tspan></text>
  <text class="cls-5" transform="translate(476.1 379.4)"><tspan x="0" y="0">G</tspan></text>
  <text class="cls-3" transform="translate(324.6 380)"><tspan x="0" y="0">5’</tspan></text>
  <text class="cls-3" transform="translate(552.8 376.9)"><tspan x="0" y="0">3’</tspan></text>
  <text class="cls-3" transform="translate(323.4 197.7)"><tspan x="0" y="0">10</tspan></text>
  <text class="cls-3" transform="translate(421.1 87.7)"><tspan x="0" y="0">20</tspan></text>
  <text class="cls-3" transform="translate(432.6 264.6)"><tspan x="0" y="0">30</tspan></text>
  <text class="cls-3" transform="translate(459 396.8)"><tspan x="0" y="0">40</tspan></text>
  <text class="cls-5" transform="translate(379.1 56.5)"><tspan x="0" y="0">G</tspan></text>
  <text class="cls-7" transform="translate(379.4 379.4)"><tspan x="0" y="0">U</tspan></text>
  <text class="cls-2" transform="translate(400.1 379.4)"><tspan x="0" y="0">U</tspan></text>
  <text class="cls-1" transform="translate(458 379.4)"><tspan x="0" y="0">U</tspan></text>
  <line class="cls-11" x1="359.7" y1="375.2" x2="378" y2="375.2"/>
  <line class="cls-11" x1="359.7" y1="353.7" x2="378" y2="353.7"/>
  <line class="cls-11" x1="359.7" y1="332.3" x2="378" y2="332.3"/>
  <line class="cls-11" x1="359.7" y1="310.8" x2="378" y2="310.8"/>
  <line class="cls-11" x1="359.7" y1="289.3" x2="378" y2="289.3"/>
  <line class="cls-11" x1="359.7" y1="214.3" x2="378" y2="214.3"/>
  <line class="cls-11" x1="359.7" y1="192.9" x2="378" y2="192.9"/>
  <line class="cls-11" x1="359.7" y1="171.4" x2="378" y2="171.4"/>
  <line class="cls-11" x1="359.7" y1="149.9" x2="378" y2="149.9"/>
  <line class="cls-11" x1="359.7" y1="128.5" x2="378" y2="128.5"/>
  <line class="cls-11" x1="359.7" y1="107" x2="378" y2="107"/>
  <line class="cls-10" x1="421.4" y1="84.2" x2="413" y2="84.2"/>
  <line class="cls-10" x1="432.4" y1="261.7" x2="424" y2="261.7"/>
  <line class="cls-10" x1="343.3" y1="194.9" x2="334.9" y2="194.9"/>
  <line class="cls-10" x1="463.7" y1="390.1" x2="463.7" y2="381.7"/>
  <g class="cls-12">
    <g class="cls-12">
      <g class="cls-12">
        <g class="cls-12">
          <g class="cls-12">
            <g class="cls-12">
              <g class="cls-12">
                <text class="cls-8" transform="translate(175.9 31)"><tspan x="0" y="0">Hemagglutinin (HA) protein-aptamer</tspan></text>
              </g>
            </g>
          </g>
        </g>
      </g>
    </g>
  </g>
</svg>