<svg id="图层_1" data-name="图层 1" xmlns="http://www.w3.org/2000/svg" viewBox="0 0 400 400">
  <defs>
    <style>
      .cls-1, .cls-13, .cls-2, .cls-4, .cls-5, .cls-6, .cls-7, .cls-8 {
        isolation: isolate;
      }

      .cls-1, .cls-13, .cls-2, .cls-5, .cls-6, .cls-7, .cls-8 {
        font-size: 24.76px;
      }

      .cls-1, .cls-2, .cls-5 {
        fill: #ff931e;
      }

      .cls-1, .cls-12, .cls-13, .cls-2, .cls-4, .cls-5, .cls-6, .cls-7, .cls-8, .cls-9 {
        font-family: ArialMT, Arial;
      }

      .cls-1, .cls-8 {
        letter-spacing: -0.06em;
      }

      .cls-3 {
        fill: none;
      }

      .cls-14, .cls-3 {
        stroke: #000;
        stroke-miterlimit: 1.11;
        stroke-width: 0.14px;
      }

      .cls-4, .cls-9 {
        font-size: 19.81px;
      }

      .cls-13, .cls-5 {
        letter-spacing: -0.11em;
      }

      .cls-13, .cls-6, .cls-7, .cls-8 {
        fill: #3c3;
      }

      .cls-6 {
        letter-spacing: -0.06em;
      }

      .cls-10 {
        letter-spacing: -0.04em;
      }

      .cls-11 {
        letter-spacing: -0.04em;
      }

      .cls-12 {
        font-size: 20px;
      }
    </style>
  </defs>
  <g id="ID000010">
    <text class="cls-1" transform="translate(149.79 344.38)">C</text>
  </g>
  <g id="ID000011">
    <text class="cls-2" transform="translate(150.14 315.89)">U</text>
  </g>
  <g id="ID000012">
    <line class="cls-3" x1="136.03" y1="136.04" x2="117" y2="135.92"/>
  </g>
  <g id="ID000013">
    <text class="cls-4" transform="translate(87.48 145.5)">10</text>
  </g>
  <g id="ID000014">
    <text class="cls-2" transform="translate(148.76 287.36)">G</text>
  </g>
  <g id="ID000017">
    <text class="cls-5" transform="translate(215.96 230.67)">A</text>
  </g>
  <g id="ID000020">
    <text class="cls-2" transform="translate(203.64 287.36)">C</text>
  </g>
  <g id="ID000021">
    <line class="cls-3" x1="306.44" y1="160.44" x2="306.44" y2="141.42"/>
  </g>
  <g id="ID000022">
    <text class="cls-4" transform="translate(294.18 181.62)">20</text>
  </g>
  <g id="ID000023">
    <text class="cls-1" transform="translate(203.64 315.89)">G</text>
  </g>
  <g id="ID000024">
    <text class="cls-2" transform="translate(203.64 344.38)">G</text>
  </g>
  <g id="ID000027">
    <line class="cls-3" x1="169.24" y1="335.51" x2="203.5" y2="335.51"/>
  </g>
  <g id="ID000029">
    <line class="cls-3" x1="169.24" y1="274.5" x2="203.5" y2="274.5"/>
  </g>
  <g id="ID000017-2" data-name="ID000017">
    <text class="cls-1" transform="translate(134.59 221.95)">G</text>
  </g>
  <g id="ID000017-3" data-name="ID000017">
    <text class="cls-1" transform="translate(139.12 264.94)">G</text>
  </g>
  <g id="ID000010-2" data-name="ID000010">
    <text class="cls-1" transform="translate(148.77 199.65)">C</text>
  </g>
  <g id="ID000011-2" data-name="ID000011">
    <text class="cls-6" transform="translate(147.31 171.09)">A</text>
  </g>
  <g id="ID000014-2" data-name="ID000014">
    <text class="cls-7" transform="translate(139.81 147.09)">U</text>
  </g>
  <g id="ID000020-2" data-name="ID000020">
    <text class="cls-7" transform="translate(209.45 145.5)">U</text>
  </g>
  <g id="ID000023-2" data-name="ID000023">
    <text class="cls-8" transform="translate(203.64 171.09)">U</text>
  </g>
  <g id="ID000024-2" data-name="ID000024">
    <text class="cls-2" transform="translate(203.64 199.65)">G</text>
  </g>
  <g id="ID000027-2" data-name="ID000027">
    <line class="cls-3" x1="169.24" y1="186.8" x2="203.5" y2="186.8"/>
  </g>
  <g id="ID000028">
    <line class="cls-3" x1="169.24" y1="158.26" x2="203.5" y2="158.26"/>
  </g>
  <g id="ID000017-4" data-name="ID000017">
    <text class="cls-8" transform="translate(137.86 116.03)">U</text>
  </g>
  <g id="ID000017-5" data-name="ID000017">
    <text class="cls-8" transform="translate(152.29 91.91)">U</text>
  </g>
  <g id="ID000017-6" data-name="ID000017">
    <text class="cls-8" transform="translate(208.69 91.91)">U</text>
  </g>
  <text class="cls-9" transform="translate(94.65 351.21)">5<tspan class="cls-10" x="11.02" y="0">’</tspan></text>
  <text class="cls-9" transform="translate(274.93 354.57)">3<tspan class="cls-11" x="11.02" y="0">’</tspan></text>
  <text class="cls-12" transform="translate(13.52 25.96)">AST14 aptamer</text>
  <g id="ID000017-7" data-name="ID000017">
    <text class="cls-5" transform="translate(124.36 242.8)">A</text>
  </g>
  <g id="ID000017-8" data-name="ID000017">
    <text class="cls-5" transform="translate(215.92 256.46)">A</text>
  </g>
  <g id="ID000070">
    <text class="cls-7" transform="translate(229.08 98.58)">G</text>
  </g>
  <g id="ID000071">
    <text class="cls-7" transform="translate(251.62 98.88)">G</text>
  </g>
  <g id="ID000075">
    <text class="cls-7" transform="translate(254.42 141.42)">C</text>
  </g>
  <g id="ID000076">
    <text class="cls-7" transform="translate(230.4 141.42)">C</text>
  </g>
  <g id="ID000085">
    <line class="cls-3" x1="238.54" y1="101.62" x2="238.54" y2="121.31"/>
  </g>
  <g id="ID000086">
    <line class="cls-3" x1="261.24" y1="101.62" x2="261.24" y2="121.31"/>
  </g>
  <g id="ID000014-3" data-name="ID000014">
    <text class="cls-6" transform="translate(296.81 141.42)">A</text>
  </g>
  <g id="ID000020-3" data-name="ID000020">
    <text class="cls-7" transform="translate(296.84 98.31)">U</text>
  </g>
  <g id="ID000017-9" data-name="ID000017">
    <text class="cls-8" transform="translate(307.45 121.31)">G</text>
  </g>
  <g id="ID000017-10" data-name="ID000017">
    <text class="cls-13" transform="translate(277.61 87.21)">A</text>
  </g>
  <g id="ID000017-11" data-name="ID000017">
    <text class="cls-13" transform="translate(182.58 87.21)">A</text>
  </g>
  <g id="ID000017-12" data-name="ID000017">
    <text class="cls-1" transform="translate(123.04 344.38)">G</text>
  </g>
  <g id="ID000017-13" data-name="ID000017">
    <text class="cls-5" transform="translate(249.79 344.38)">A</text>
  </g>
  <g id="ID000017-14" data-name="ID000017">
    <text class="cls-5" transform="translate(225.25 344.38)">A</text>
  </g>
  <g id="ID000116">
    <polygon class="cls-14" points="186.37 311.55 186.61 311.54 186.84 311.51 187.09 311.48 187.32 311.43 187.55 311.35 187.78 311.28 187.99 311.18 188.2 311.07 188.41 310.94 188.61 310.81 188.8 310.66 188.98 310.5 189.16 310.32 189.31 310.15 189.46 309.95 189.59 309.75 189.72 309.55 189.81 309.33 189.91 309.11 189.99 308.89 190.05 308.65 190.1 308.42 190.13 308.18 190.15 307.94 190.16 307.7 190.15 307.46 190.12 307.22 190.07 306.98 190.02 306.75 189.95 306.52 189.86 306.3 189.76 306.08 189.65 305.87 189.52 305.66 189.38 305.46 189.23 305.27 189.07 305.1 188.9 304.94 188.71 304.78 188.51 304.64 188.31 304.51 188.1 304.39 187.88 304.28 187.66 304.2 187.44 304.12 187.2 304.06 186.97 304.01 186.73 303.99 186.48 303.97 186.25 303.97 186.01 303.99 185.76 304.01 185.53 304.06 185.29 304.12 185.07 304.2 184.85 304.28 184.63 304.39 184.43 304.51 184.22 304.64 184.02 304.78 183.85 304.94 183.67 305.1 183.5 305.27 183.35 305.46 183.22 305.66 183.09 305.87 182.97 306.08 182.87 306.3 182.78 306.52 182.72 306.75 182.66 306.98 182.62 307.22 182.6 307.46 182.58 307.7 182.58 307.94 182.61 308.18 182.63 308.42 182.68 308.65 182.74 308.89 182.83 309.11 182.92 309.33 183.03 309.55 183.15 309.75 183.28 309.95 183.43 310.15 183.59 310.32 183.76 310.5 183.93 310.66 184.12 310.81 184.32 310.94 184.53 311.07 184.74 311.18 184.96 311.28 185.18 311.35 185.42 311.43 185.65 311.48 185.89 311.51 186.12 311.54 186.37 311.55"/>
  </g>
  <g id="ID000014-4" data-name="ID000014">
    <text class="cls-6" transform="translate(274.97 147.39)">A</text>
  </g>
</svg>
