<?xml version="1.0" encoding="utf-8"?>
<!-- Generator: Adobe Illustrator 25.2.0, SVG Export Plug-In . SVG Version: 6.00 Build 0)  -->
<svg version="1.1" id="图层_1" xmlns="http://www.w3.org/2000/svg" xmlns:xlink="http://www.w3.org/1999/xlink" x="0px" y="0px"
	 viewBox="0 0 800 400" style="enable-background:new 0 0 800 400;" xml:space="preserve">
<style type="text/css">
	.st0{fill:#80DB9E;}
	.st1{font-family:'ArialMT';}
	.st2{font-size:21.2567px;}
	.st3{fill:#DF00CF;}
	.st4{font-size:14.1711px;}
	.st5{fill:#DF00DB;}
	.st6{fill:none;stroke:#000000;stroke-width:0.38;stroke-miterlimit:3.05;}
	.st7{font-size:25px;}
	.st8{font-size:17.0054px;}
	.st9{font-size:16.2968px;}
</style>
<g id="ID000011_00000114785280881367481670000008480522946627953318_">
	<text transform="matrix(1 0 0 1 423.2996 117.3349)" class="st0 st1 st2">A</text>
</g>
<g id="ID000011_00000068673156192896351990000000254234345998077066_">
	<text transform="matrix(1 0 0 1 370.3631 98.6982)" class="st0 st1 st2">A</text>
</g>
<g id="ID000011_00000111159201369141578770000008004448708480373400_">
	<text transform="matrix(1 0 0 1 422.6834 209.3754)" class="st0 st1 st2">A</text>
</g>
<g id="ID000011_00000170265868977991796760000012990028429421669553_">
	<text transform="matrix(1 0 0 1 425.4109 324.0004)" class="st0 st1 st2">A</text>
</g>
<g id="ID000011_00000074406794018991445100000018150675877661918653_">
	<text transform="matrix(1 0 0 1 358.9666 248.9809)" class="st0 st1 st2">A</text>
</g>
<g id="ID000011_00000157272446265204601250000003338340483604275380_">
	<text transform="matrix(1 0 0 1 431.3065 284.0941)" class="st0 st1 st2">A</text>
</g>
<g id="ID000011_00000159461478134478781860000004088508397801798554_">
	<text transform="matrix(1 0 0 1 431.2742 245.1195)" class="st0 st1 st2">A</text>
</g>
<g id="ID000011_00000150807934167411996930000006219310810759944066_">
	<text transform="matrix(1 0 0 1 445.5252 263.9633)" class="st0 st1 st2">A</text>
</g>
<g id="ID000016_00000135668205735829418980000010527140223643711677_">
	<text transform="matrix(1 0 0 1 424.8426 306.0766)" class="st0 st1 st2">C</text>
</g>
<g id="ID000016_00000096763068301419090870000012934147233905352326_">
	<text transform="matrix(1 0 0 1 422.3846 134.7372)" class="st3 st1 st2">C</text>
</g>
<g id="ID000016_00000166645912175061034410000000055592784453823165_">
	<text transform="matrix(1 0 0 1 369.2361 80.1308)" class="st0 st1 st2">C</text>
</g>
<g id="ID000016_00000085943880257261983080000017932963124970129336_">
	<text transform="matrix(1 0 0 1 408.5984 37.0673)" class="st0 st1 st2">C</text>
</g>
<g id="ID000016_00000086692266798163236570000009142792979300779711_">
	<text transform="matrix(1 0 0 1 369.2361 345.3539)" class="st0 st1 st2">C</text>
</g>
<g id="ID000018">
	<text transform="matrix(1 0 0 1 314.5692 57.0536)" class="st1 st4">15</text>
</g>
<g id="ID000018_00000115514870234351053770000002579210218669066419_">
	<text transform="matrix(1 0 0 1 464.9549 96.1435)" class="st1 st4">20</text>
</g>
<g id="ID000018_00000117666296003751470590000007786998126918072209_">
	<text transform="matrix(1 0 0 1 322.4295 190.1855)" class="st1 st4">10</text>
</g>
<g id="ID000018_00000064349264682117999260000010887921005473521809_">
	<text transform="matrix(1 0 0 1 465.3641 187.3232)" class="st1 st4">25</text>
</g>
<g id="ID000018_00000043433499337516963580000017385386817387378869_">
	<text transform="matrix(1 0 0 1 330.4207 304.7523)" class="st1 st4">5</text>
</g>
<g id="ID000018_00000098194307368796604180000016470294390484326317_">
	<text transform="matrix(1 0 0 1 468.1385 282.5082)" class="st1 st4">30</text>
</g>
<g id="ID000019_00000052070327573275755350000000758817958668960134_">
	<text transform="matrix(1 0 0 1 369.2361 327.9965)" class="st0 st1 st2">U</text>
</g>
<g id="ID000019_00000067226277113744964670000000162060437259733406_">
	<text transform="matrix(1 0 0 1 369.2371 211.1137)" class="st0 st1 st2">U</text>
</g>
<g id="ID000019_00000008109178229373206150000002583524553379727751_">
	<text transform="matrix(1 0 0 1 365.0076 58.4257)" class="st0 st1 st2">U</text>
</g>
<g id="ID000019_00000041292555135185918190000010942745683061249948_">
	<text transform="matrix(1 0 0 1 382.8611 37.0663)" class="st0 st1 st2">U</text>
</g>
<g id="ID000019_00000067925227014505493390000011476006130336959630_">
	<text transform="matrix(1 0 0 1 422.9998 98.6982)" class="st0 st1 st2">U</text>
</g>
<g id="ID000019_00000075162121605037146360000010746395154983637426_">
	<text transform="matrix(1 0 0 1 370.2986 117.3349)" class="st0 st1 st2">U</text>
</g>
<g id="ID000019_00000090274417845589906360000002171281448224420522_">
	<text transform="matrix(1 0 0 1 422.1004 153.4599)" class="st5 st1 st2">U</text>
</g>
<g id="ID000012_00000017499111804898909130000003538850584559586491_">
	<text transform="matrix(1 0 0 1 368.2713 307.3168)" class="st0 st1 st2">G</text>
</g>
<g id="ID000012_00000078740341467804638890000008656253790680939164_">
	<text transform="matrix(1 0 0 1 421.8738 226.8695)" class="st0 st1 st2">G</text>
</g>
<g id="ID000012_00000067931110022023640870000001831841219668577725_">
	<text transform="matrix(1 0 0 1 369.7068 134.9911)" class="st0 st1 st2">G</text>
</g>
<g id="ID000012_00000090278801587085165440000015971089952537637256_">
	<text transform="matrix(1 0 0 1 422.1014 80.1308)" class="st0 st1 st2">G</text>
</g>
<g id="ID000012_00000145747908710658739960000006700819328999674558_">
	<text transform="matrix(1 0 0 1 426.8934 58.6806)" class="st0 st1 st2">G</text>
</g>
<g id="ID000012_00000138572770223877971480000004004007210275261845_">
	<text transform="matrix(1 0 0 1 420.4949 171.7294)" class="st0 st1 st2">G</text>
</g>
<g id="ID000012_00000050652572533139124520000010012134243674279599_">
	<text transform="matrix(1 0 0 1 420.9744 190.4403)" class="st0 st1 st2">G</text>
</g>
<g id="ID000012_00000111175910969798236470000002393981261626834822_">
	<text transform="matrix(1 0 0 1 357.8397 286.9145)" class="st0 st1 st2">G</text>
</g>
<g id="ID000016_00000106138437091020671470000001237065156933652358_">
	<text transform="matrix(1 0 0 1 425.8309 383.5277)" class="st0 st1 st2">C</text>
</g>
<g id="ID000016_00000016053849614586065450000009286206190547849131_">
	<text transform="matrix(1 0 0 1 425.0047 365.4438)" class="st0 st1 st2">C</text>
</g>
<g id="ID000016_00000031914731078649917590000000091872175939870595_">
	<text transform="matrix(1 0 0 1 368.6443 229.0356)" class="st0 st1 st2">C</text>
</g>
<g id="ID000016_00000121979401007140991240000007585095841348528784_">
	<text transform="matrix(1 0 0 1 369.2361 192.2304)" class="st0 st1 st2">C</text>
</g>
<g id="ID000012_00000030453125433587956290000009614593478624353181_">
	<text transform="matrix(1 0 0 1 369.2371 383.5277)" class="st0 st1 st2">G</text>
</g>
<g id="ID000012_00000114776894215148202810000005323254616510850964_">
	<text transform="matrix(1 0 0 1 369.2361 365.4438)" class="st0 st1 st2">G</text>
</g>
<g id="ID000012_00000080208127953092113740000007888127035658441360_">
	<text transform="matrix(1 0 0 1 424.284 345.3559)" class="st0 st1 st2">G</text>
</g>
<g id="ID000023_00000150077023338465670070000015883755042725346715_">
	<line class="st6" x1="365.7" y1="267.8" x2="365.8" y2="251.8"/>
</g>
<g id="ID000023_00000085931682403448757280000014921727926976440463_">
	<line class="st6" x1="378.1" y1="172.1" x2="377.6" y2="138.3"/>
</g>
<text transform="matrix(1 0 0 1 29.0219 43.2057)" class="st1 st7">HIV-1rev RNA-aptamer</text>
<text transform="matrix(1 0 0 1 503.8829 -84.5252)" class="st1 st7"> </text>
<text transform="matrix(1 0 0 1 352.8983 390.0785)" class="st1 st8">5’</text>
<text transform="matrix(1 0 0 1 447.7723 389.0102)" class="st1 st9">3’</text>
<g id="ID000023">
	<line class="st6" x1="421.3" y1="72.7" x2="385.4" y2="72.4"/>
</g>
<g id="ID000023_00000016074335850620614650000000724828108971795636_">
	<line class="st6" x1="421.7" y1="91.5" x2="385.8" y2="91.2"/>
</g>
<g id="ID000023_00000078027826130472004210000016519760779551389614_">
	<line class="st6" x1="422.4" y1="109.3" x2="386.5" y2="109"/>
</g>
<g id="ID000023_00000147931215955244841390000017090959687829637293_">
	<line class="st6" x1="421.7" y1="126.9" x2="385.8" y2="126.6"/>
</g>
<g id="ID000023_00000157997427915649568640000009849757203480635801_">
	<line class="st6" x1="420.8" y1="185.1" x2="384.9" y2="184.8"/>
</g>
<g id="ID000023_00000144296227511797546190000015896918049117507007_">
	<line class="st6" x1="420.8" y1="203.2" x2="384.9" y2="202.9"/>
</g>
<g id="ID000023_00000141453963323400577520000016301558615464137615_">
	<line class="st6" x1="420.8" y1="220.1" x2="384.9" y2="219.8"/>
</g>
<g id="ID000023_00000119832083454675070280000001428287298807776443_">
	<line class="st6" x1="423.3" y1="300.8" x2="387.5" y2="300.5"/>
</g>
<g id="ID000023_00000072997439302115829210000012689017459418936458_">
	<line class="st6" x1="422.9" y1="319.4" x2="387" y2="319.1"/>
</g>
<g id="ID000023_00000156559284129323071040000015391097059170119324_">
	<line class="st6" x1="422.9" y1="338" x2="387" y2="337.7"/>
</g>
<g id="ID000023_00000119077643454774589270000015752497419696430211_">
	<line class="st6" x1="423.3" y1="357.1" x2="387.5" y2="356.8"/>
</g>
<g id="ID000023_00000072256015086683393440000012801262759863765906_">
	<line class="st6" x1="423.7" y1="376.3" x2="387.9" y2="376"/>
</g>
<g id="ID000017">
	<line class="st6" x1="362" y1="184.9" x2="342.1" y2="184.7"/>
</g>
<g id="ID000017_00000001660428866086611750000005627677013199413934_">
	<line class="st6" x1="355.6" y1="52.2" x2="335.7" y2="52"/>
</g>
<g id="ID000017_00000026844920344729570700000015984041683167556270_">
	<line class="st6" x1="462.4" y1="91.6" x2="442.5" y2="91.4"/>
</g>
<g id="ID000017_00000018209065058763163690000003453683434016938942_">
	<line class="st6" x1="460.4" y1="183.3" x2="440.5" y2="183.1"/>
</g>
<g id="ID000017_00000101811034089864425410000014435986759806507686_">
	<line class="st6" x1="361.1" y1="299.6" x2="341.2" y2="299.5"/>
</g>
<g id="ID000017_00000015349063636015166450000008899741715878059418_">
	<line class="st6" x1="465.4" y1="277.2" x2="445.5" y2="277.1"/>
</g>
</svg>
