<svg id="图层_1" data-name="图层 1" xmlns="http://www.w3.org/2000/svg" viewBox="0 0 800 400"><defs><style>.cls-1,.cls-10,.cls-11,.cls-2,.cls-3,.cls-4,.cls-5,.cls-6,.cls-7,.cls-9{isolation:isolate;}.cls-1,.cls-2,.cls-3,.cls-4,.cls-5{font-size:56.39px;}.cls-1,.cls-2,.cls-9{fill:#32cd32;}.cls-1,.cls-12,.cls-2,.cls-3,.cls-4,.cls-5,.cls-6,.cls-7{font-family:ArialMT, Arial;}.cls-2,.cls-4{letter-spacing:-0.06em;}.cls-10,.cls-3,.cls-4{fill:#ff870a;}.cls-11,.cls-5{fill:#228b22;}.cls-6{font-size:19.15px;}.cls-12,.cls-7{font-size:30.85px;}.cls-8{letter-spacing:-0.04em;}.cls-10,.cls-11,.cls-9{stroke:#020202;stroke-miterlimit:10;opacity:0.55;}</style></defs><text class="cls-1" transform="translate(68.71 273.27)">G</text><text class="cls-1" transform="translate(122.76 280.96)">C</text><text class="cls-1" transform="translate(172.71 261.21)">C</text><text class="cls-2" transform="translate(223.28 240.21)">A</text><text class="cls-2" transform="translate(274.54 218.56)">A</text><text class="cls-3" transform="translate(324.58 196.3)">G</text><text class="cls-3" transform="translate(372.06 171.08)">C</text><text class="cls-4" transform="translate(386 120.06)">A</text><text class="cls-3" transform="translate(433.32 99.39)">G</text><text class="cls-3" transform="translate(479.66 123.95)">G</text><text class="cls-3" transform="translate(489.92 176.04)">U</text><text class="cls-3" transform="translate(533.98 205.34)">U</text><text class="cls-5" transform="translate(583.58 231.38)">C</text><text class="cls-5" transform="translate(631.5 255.72)">G</text><text class="cls-5" transform="translate(685.02 252.63)">U</text><text class="cls-5" transform="translate(713.53 296.17)">U</text><text class="cls-5" transform="translate(690.38 342.84)">U</text><text class="cls-5" transform="translate(641.68 346.53)">U</text><text class="cls-5" transform="translate(604.29 311.52)">C</text><text class="cls-5" transform="translate(553.75 285.84)">G</text><text class="cls-4" transform="translate(504.17 258.05)">A</text><text class="cls-4" transform="translate(453.64 226.21)">A</text><text class="cls-3" transform="translate(404.53 224.87)">G</text><text class="cls-3" transform="translate(352.51 252.16)">C</text><text class="cls-1" transform="translate(299.09 275.57)">U</text><text class="cls-1" transform="translate(247.64 297.71)">U</text><text class="cls-1" transform="translate(196.48 319.26)">G</text><text class="cls-1" transform="translate(146.22 340.21)">G</text><text class="cls-2" transform="translate(106.99 370.69)">A</text><text class="cls-6" transform="translate(516.24 89.65)">10</text><text class="cls-7" transform="translate(42.14 265.8)">5<tspan class="cls-8" x="17.16" y="0">’</tspan></text><text class="cls-6" transform="translate(541.89 298.38)">20</text><text class="cls-7" transform="translate(83.26 362.52)">3<tspan class="cls-8" x="17.16" y="0">’</tspan></text><line class="cls-9" x1="150.65" y1="280.95" x2="160.06" y2="301.22"/><line class="cls-9" x1="201.75" y1="259.92" x2="211.17" y2="280.19"/><line class="cls-9" x1="257.17" y1="239.9" x2="266.58" y2="260.17"/><line class="cls-9" x1="309.33" y1="217.81" x2="318.74" y2="238.07"/><line class="cls-10" x1="358.46" y1="194.2" x2="366.65" y2="212.71"/><line class="cls-10" x1="404.61" y1="167.49" x2="413.99" y2="188.88"/><line class="cls-11" x1="595.83" y1="229.78" x2="586.4" y2="247.32"/><line class="cls-10" x1="541.89" y1="200.14" x2="528.08" y2="224.87"/><line class="cls-10" x1="494.85" y1="165.63" x2="478.1" y2="194.2"/><line class="cls-11" x1="646.14" y1="254.41" x2="636.34" y2="273.55"/><text class="cls-12" transform="translate(299.2 36.93)"><tspan xml:space="preserve"> II-mini3-4 aptamer</tspan></text></svg>