<svg id="图层_1" data-name="图层 1" xmlns="http://www.w3.org/2000/svg" viewBox="0 0 800 400">
  <defs>
    <style>
      .cls-1, .cls-2, .cls-3, .cls-4, .cls-5, .cls-7, .cls-8 {
        isolation: isolate;
      }

      .cls-1, .cls-2, .cls-3, .cls-4, .cls-5, .cls-8 {
        font-size: 25.03px;
      }

      .cls-1, .cls-2, .cls-9 {
        fill: #0c3;
      }

      .cls-1, .cls-12, .cls-14, .cls-2, .cls-3, .cls-4, .cls-5, .cls-7, .cls-8 {
        font-family: ArialMT, Arial;
      }

      .cls-2, .cls-5, .cls-8 {
        letter-spacing: -0.06em;
      }

      .cls-3 {
        fill: #93f;
      }

      .cls-4, .cls-5 {
        fill: #f93;
      }

      .cls-10, .cls-6 {
        fill: none;
      }

      .cls-10, .cls-11, .cls-6, .cls-9 {
        stroke: #000;
        stroke-miterlimit: 1.11;
      }

      .cls-11, .cls-6, .cls-9 {
        stroke-width: 0.14px;
      }

      .cls-7 {
        font-size: 18px;
      }

      .cls-8 {
        fill: #999;
      }

      .cls-10 {
        stroke-width: 1.19px;
      }

      .cls-12 {
        font-size: 20px;
      }

      .cls-13 {
        letter-spacing: -0.04em;
      }

      .cls-14 {
        font-size: 25px;
      }
    </style>
  </defs>
  <g id="ID000002">
    <text class="cls-1" transform="translate(379 349.28)">G</text>
  </g>
  <g id="ID000003">
    <text class="cls-1" transform="translate(379 324.09)">G</text>
  </g>
  <g id="ID000004">
    <text class="cls-2" transform="translate(380.38 298.9)">A</text>
  </g>
  <g id="ID000005">
    <text class="cls-3" transform="translate(379 273.71)">G</text>
  </g>
  <g id="ID000006">
    <text class="cls-4" transform="translate(355.9 246.42)">G</text>
  </g>
  <g id="ID000007">
    <text class="cls-4" transform="translate(331.41 221.23)">fU</text>
  </g>
  <g id="ID000008">
    <text class="cls-5" transform="translate(430.76 210.74)">A</text>
  </g>
  <g id="ID000009">
    <text class="cls-4" transform="translate(430.07 273.71)">fC</text>
  </g>
  <g id="ID000010">
    <line class="cls-6" x1="455.9" y1="262.37" x2="472.69" y2="262.37"/>
  </g>
  <g id="ID000011">
    <text class="cls-7" transform="translate(479.76 267.76)">20</text>
  </g>
  <g id="ID000012">
    <text class="cls-4" transform="translate(430.07 298.9)">fU</text>
  </g>
  <g id="ID000013">
    <text class="cls-1" transform="translate(430.07 324.09)">fC</text>
  </g>
  <g id="ID000014">
    <text class="cls-1" transform="translate(430.07 349.28)">fC</text>
  </g>
  <g id="ID000015">
    <text class="cls-8" transform="translate(430.76 374.47)">A</text>
  </g>
  <g id="ID000016">
    <line class="cls-6" x1="398.8" y1="337.94" x2="429.03" y2="337.94"/>
  </g>
  <g id="ID000017">
    <line class="cls-9" x1="398.8" y1="312.75" x2="429.03" y2="312.75"/>
  </g>
  <g id="ID000018">
    <line class="cls-9" x1="398.8" y1="287.56" x2="429.03" y2="287.56"/>
  </g>
  <g id="ID000019">
    <line class="cls-6" x1="398.8" y1="262.37" x2="429.03" y2="262.37"/>
  </g>
  <g id="ID000020">
    <line class="cls-10" x1="439.11" y1="146.5" x2="439.11" y2="189.32"/>
  </g>
  <g id="ID000023">
    <text class="cls-3" transform="translate(334.91 185.54)">G</text>
  </g>
  <g id="ID000024">
    <text class="cls-4" transform="translate(354.5 160.36)">fC</text>
  </g>
  <g id="ID000025">
    <text class="cls-1" transform="translate(379.69 147.76)">fU</text>
  </g>
  <g id="ID000026">
    <text class="cls-1" transform="translate(379.69 122.57)">fC</text>
  </g>
  <g id="ID000027">
    <line class="cls-6" x1="371.94" y1="111.23" x2="355.14" y2="111.23"/>
  </g>
  <g id="ID000028">
    <text class="cls-7" transform="translate(329.25 118.71)">10</text>
  </g>
  <g id="ID000029">
    <text class="cls-1" transform="translate(379.69 97.38)">fC</text>
  </g>
  <g id="ID000030">
    <text class="cls-1" transform="translate(366.4 65.89)">G</text>
  </g>
  <g id="ID000031">
    <text class="cls-2" transform="translate(392.98 40.71)">A</text>
  </g>
  <g id="ID000032">
    <text class="cls-2" transform="translate(418.17 40.71)">A</text>
  </g>
  <g id="ID000033">
    <text class="cls-2" transform="translate(437.06 65.89)">A</text>
  </g>
  <g id="ID000034">
    <text class="cls-1" transform="translate(429.38 97.38)">G</text>
  </g>
  <g id="ID000035">
    <text class="cls-1" transform="translate(429.38 122.57)">G</text>
  </g>
  <g id="ID000036">
    <text class="cls-2" transform="translate(430.76 147.76)">A</text>
  </g>
  <g id="ID000037">
    <line class="cls-6" x1="398.8" y1="136.42" x2="429.03" y2="136.42"/>
  </g>
  <g id="ID000038">
    <line class="cls-6" x1="398.8" y1="111.23" x2="429.03" y2="111.23"/>
  </g>
  <g id="ID000039">
    <line class="cls-6" x1="398.8" y1="86.04" x2="429.03" y2="86.04"/>
  </g>
  <g id="ID000041">
    <line class="cls-10" x1="439.11" y1="209.47" x2="439.11" y2="252.3"/>
  </g>
  <g id="ID000042">
    <polygon class="cls-11" points="443.64 224.59 441.38 227.11 440.62 229.63 440.24 232.15 439.11 237.18 437.98 232.15 437.6 229.63 436.84 227.11 434.57 224.59 443.64 224.59"/>
  </g>
  <g id="ID000042-2" data-name="ID000042">
    <polygon class="cls-11" points="443.64 161.03 441.38 163.55 440.62 166.07 440.24 168.59 439.11 173.62 437.98 168.59 437.6 166.07 436.84 163.55 434.57 161.03 443.64 161.03"/>
  </g>
  <text class="cls-12" transform="translate(355.76 367.91)">5<tspan class="cls-13" x="11.12" y="0">’</tspan></text>
  <text class="cls-12" transform="translate(456.74 379.74)">3<tspan class="cls-13" x="11.12" y="0">’</tspan></text>
  <text class="cls-12" transform="translate(111.03 33.3)">Apt8 aptamer</text>
  <text class="cls-14" transform="translate(545.34 376.23) scale(0.58)">fC/fU: 2′-F substituents</text>
</svg>
