<?xml version="1.0" encoding="utf-8"?>
<!-- Generator: Adobe Illustrator 25.2.0, SVG Export Plug-In . SVG Version: 6.00 Build 0)  -->
<svg version="1.1" id="图层_1" xmlns="http://www.w3.org/2000/svg" xmlns:xlink="http://www.w3.org/1999/xlink" x="0px" y="0px"
	 viewBox="0 0 800 400" style="enable-background:new 0 0 800 400;" xml:space="preserve">
<style type="text/css">
	.st0{font-family:'ArialMT';}
	.st1{font-size:25px;}
	.st2{fill:#CC00FF;}
	.st3{font-size:20.7806px;}
	.st4{fill:#80DB9E;}
	.st5{font-size:19.9944px;}
	.st6{fill:none;stroke:#000000;stroke-width:0.25;stroke-miterlimit:3.05;}
</style>
<text transform="matrix(1 0 0 1 20.5095 44.3262)" class="st0 st1">Apt21-2 aptamer</text>
<g id="ID000012_00000148648250294949811600000002476682368564361104_">
	<g>
		<text transform="matrix(0.9999 1.570624e-02 -1.570624e-02 0.9999 199.4669 206.923)" class="st2 st0 st3">G</text>
	</g>
</g>
<g id="ID000012_00000079460421353227406410000013575399086094064034_">
	<text transform="matrix(0.9999 1.570624e-02 -1.570624e-02 0.9999 199.4666 238.2414)" class="st2 st0 st3">C</text>
</g>
<g id="ID000012_00000023965596799160377900000002338059191970458002_">
	<g>
		<text transform="matrix(0.9999 1.570624e-02 -1.570624e-02 0.9999 411.149 206.9225)" class="st2 st0 st3">G</text>
	</g>
</g>
<g id="ID000012_00000149370239662087621200000007743238852049200792_">
	<g>
		<text transform="matrix(0.9999 1.570624e-02 -1.570624e-02 0.9999 438.2904 207.4778)" class="st2 st0 st3">G</text>
	</g>
</g>
<g id="ID000012_00000013154582275799964100000017332142690933670316_">
	<text transform="matrix(0.9999 1.570624e-02 -1.570624e-02 0.9999 411.1488 238.238)" class="st2 st0 st3">C</text>
</g>
<g id="ID000012_00000078046162708021054610000017262732004309488270_">
	<g>
		<text transform="matrix(0.9999 1.570624e-02 -1.570624e-02 0.9999 594.9135 238.2373)" class="st4 st0 st3">C</text>
	</g>
</g>
<g id="ID000012_00000160150022854936651480000000393030941776859571_">
	<text transform="matrix(0.9999 1.570624e-02 -1.570624e-02 0.9999 223.0972 238.2407)" class="st2 st0 st3">C</text>
</g>
<g id="ID000012_00000167361114627021476720000005809052168194004406_">
	<text transform="matrix(0.9999 1.570624e-02 -1.570624e-02 0.9999 272.2303 206.9222)" class="st2 st0 st3">C</text>
</g>
<g id="ID000012_00000173133904934352884730000005688334391849619116_">
	<text transform="matrix(0.9999 1.570624e-02 -1.570624e-02 0.9999 363.995 207.4781)" class="st2 st0 st3">C</text>
</g>
<g id="ID000012_00000030475851409465618060000007172686053750199444_">
	<text transform="matrix(0.9999 1.570624e-02 -1.570624e-02 0.9999 387.6252 207.4778)" class="st2 st0 st3">C</text>
</g>
<g id="ID000012_00000034065401200064617450000012471684555361177746_">
	<g>
		<text transform="matrix(0.9999 1.570624e-02 -1.570624e-02 0.9999 223.0973 206.9224)" class="st2 st0 st3">G</text>
	</g>
</g>
<g id="ID000012_00000085930064692612023690000004836141927121983156_">
	<text transform="matrix(0.9999 1.570624e-02 -1.570624e-02 0.9999 491.7674 165.5701)" class="st4 st0 st3">G</text>
</g>
<g id="ID000012_00000053516712064315124310000007293238272094882178_">
	<text transform="matrix(0.9999 1.570624e-02 -1.570624e-02 0.9999 520.09 148.6166)" class="st4 st0 st3">G</text>
</g>
<g id="ID000012_00000052821098472161700920000002877069662913293448_">
	<text transform="matrix(0.9999 1.570624e-02 -1.570624e-02 0.9999 576.4721 185.5817)" class="st4 st0 st3">G</text>
</g>
<g id="ID000012_00000039829485674090812520000018162053552757414030_">
	<text transform="matrix(0.9999 1.570624e-02 -1.570624e-02 0.9999 550.3548 277.9434)" class="st4 st0 st3">G</text>
</g>
<g id="ID000012_00000061459225626214541380000011303632611306120583_">
	<g>
		<text transform="matrix(0.9999 1.570624e-02 -1.570624e-02 0.9999 520.09 294.747)" class="st4 st0 st3">U</text>
	</g>
</g>
<g id="ID000012_00000010300021106636162210000015598367013619358369_">
	<g>
		<text transform="matrix(0.9999 1.570624e-02 -1.570624e-02 0.9999 594.9135 207.4776)" class="st4 st0 st3">U</text>
	</g>
</g>
<g id="ID000012_00000039104086117912835070000003130165619043238551_">
	<g>
		<text transform="matrix(0.9999 1.570624e-02 -1.570624e-02 0.9999 363.9948 238.2416)" class="st2 st0 st3">G</text>
	</g>
</g>
<g id="ID000012_00000169539490023812344100000001378201104373801629_">
	<g>
		<text transform="matrix(0.9999 1.570624e-02 -1.570624e-02 0.9999 387.6252 238.241)" class="st2 st0 st3">G</text>
	</g>
</g>
<g id="ID000012_00000066474776468110117420000007580949925295497904_">
	<g>
		<text transform="matrix(0.9999 1.570624e-02 -1.570624e-02 0.9999 272.2305 238.2393)" class="st2 st0 st3">G</text>
	</g>
</g>
<g id="ID000012_00000130609152781270467470000008069546018420960915_">
	<g>
		<text transform="matrix(0.9999 1.570624e-02 -1.570624e-02 0.9999 342.0827 188.9415)" class="st2 st0 st3">G</text>
	</g>
</g>
<g id="ID000012_00000039122553436493776380000007056405722730207378_">
	<text transform="matrix(0.9999 1.570624e-02 -1.570624e-02 0.9999 247.494 206.9222)" class="st2 st0 st3">U</text>
</g>
<g id="ID000012_00000044864171208351583720000000390657865510058656_">
	<g>
		<text transform="matrix(0.9999 1.570624e-02 -1.570624e-02 0.9999 247.494 238.2402)" class="st2 st0 st3">A</text>
	</g>
</g>
<g id="ID000012_00000152984808922201753150000004635916939653860526_">
	<text transform="matrix(0.9999 1.570624e-02 -1.570624e-02 0.9999 299.1239 207.4785)" class="st2 st0 st3">U</text>
</g>
<g id="ID000012_00000158706926181280164420000018399345603734197647_">
	<text transform="matrix(0.9999 1.570624e-02 -1.570624e-02 0.9999 323.6164 238.2385)" class="st2 st0 st3">U</text>
</g>
<g id="ID000012_00000011006567019369270480000000258095330507749255_">
	<text transform="matrix(0.9999 1.570624e-02 -1.570624e-02 0.9999 438.2904 238.7956)" class="st2 st0 st3">U</text>
</g>
<g id="ID000012_00000178890799714965905430000014295604707853250220_">
	<g>
		<text transform="matrix(0.9999 1.570624e-02 -1.570624e-02 0.9999 299.1239 238.7965)" class="st2 st0 st3">A</text>
	</g>
</g>
<g id="ID000012_00000134242415017847585490000009592990002968377238_">
	<text transform="matrix(0.9999 1.570624e-02 -1.570624e-02 0.9999 468.4727 185.5821)" class="st4 st0 st3">A</text>
</g>
<g id="ID000012_00000124869110805541638620000017012175276455180422_">
	<text transform="matrix(0.9999 1.570624e-02 -1.570624e-02 0.9999 550.3549 165.5692)" class="st4 st0 st3">A</text>
</g>
<g id="ID000012_00000053534454344085795140000003461654337663354789_">
	<text transform="matrix(0.9999 1.570624e-02 -1.570624e-02 0.9999 576.4724 261.2036)" class="st4 st0 st3">A</text>
</g>
<g id="ID000012_00000121987638886813725070000004042249360772611216_">
	<text transform="matrix(0.9999 1.570624e-02 -1.570624e-02 0.9999 468.4727 261.2042)" class="st4 st0 st3">A</text>
</g>
<g id="ID000012_00000017515539369391556590000007497636926712566144_">
	<text transform="matrix(0.9999 1.570624e-02 -1.570624e-02 0.9999 491.7674 277.9438)" class="st4 st0 st3">A</text>
</g>
<g id="ID000012_00000059302877477654792760000002904752051193499529_">
	<g>
		<text transform="matrix(0.9999 1.570624e-02 -1.570624e-02 0.9999 323.6164 206.9213)" class="st2 st0 st3">A</text>
	</g>
</g>
<g id="ID000018_00000104707097969389953970000009088350760481935533_">
	<text transform="matrix(0.9998 1.779248e-02 -1.779248e-02 0.9998 181.151 193.6008)" class="st0 st5">5’</text>
</g>
<g id="ID000018_00000082333439080775457130000001671017922741111702_">
	<text transform="matrix(0.9998 1.779248e-02 -1.779248e-02 0.9998 405.8772 172.0422)" class="st0 st5">10</text>
</g>
<g id="ID000018_00000068670659811389216650000005826322722237743014_">
	<text transform="matrix(0.9998 1.779248e-02 -1.779248e-02 0.9998 557.1755 310.5496)" class="st0 st5">20</text>
</g>
<g id="ID000018_00000004547907834186406670000012712311260056402582_">
	<text transform="matrix(0.9998 1.779248e-02 -1.779248e-02 0.9998 272.2307 271.8283)" class="st0 st5">30</text>
</g>
<g id="ID000018_00000156545401921506472890000010424620206597986696_">
	<text transform="matrix(0.9998 1.779248e-02 -1.779248e-02 0.9998 181.1516 247.8545)" class="st0 st5">3’</text>
</g>
<line class="st6" x1="208.2" y1="221.2" x2="208.1" y2="209.4"/>
<line class="st6" x1="231.7" y1="221.2" x2="231.6" y2="209.4"/>
<line class="st6" x1="254.6" y1="221.2" x2="254.5" y2="209.4"/>
<line class="st6" x1="280.9" y1="221.2" x2="280.9" y2="209.4"/>
<line class="st6" x1="306.4" y1="221.4" x2="306.4" y2="209.6"/>
<line class="st6" x1="330.3" y1="221.4" x2="330.3" y2="209.6"/>
<line class="st6" x1="372.2" y1="221.4" x2="372.2" y2="209.6"/>
<line class="st6" x1="396.1" y1="221.6" x2="396.1" y2="209.8"/>
<line class="st6" x1="419.6" y1="221.6" x2="419.5" y2="209.8"/>
<line class="st6" x1="446.6" y1="221.8" x2="446.5" y2="210"/>
<line class="st6" x1="419.7" y1="188.9" x2="419.5" y2="177.1"/>
<line class="st6" x1="280.4" y1="252.1" x2="280.3" y2="240.3"/>
<line class="st6" x1="564.6" y1="291.5" x2="564.5" y2="279.7"/>
</svg>
