<svg id="图层_1" data-name="图层 1" xmlns="http://www.w3.org/2000/svg" viewBox="0 0 800 400">
  <defs>
    <style>
      .cls-1, .cls-10, .cls-2, .cls-3, .cls-4, .cls-5, .cls-6, .cls-7, .cls-8, .cls-9 {
        isolation: isolate;
      }

      .cls-1, .cls-10, .cls-11, .cls-2, .cls-3, .cls-4, .cls-5, .cls-6, .cls-7, .cls-8, .cls-9 {
        font-size: 13.77px;
      }

      .cls-1, .cls-2 {
        fill: #ff931e;
      }

      .cls-1, .cls-10, .cls-11, .cls-15, .cls-2, .cls-3, .cls-4, .cls-5, .cls-6, .cls-7, .cls-8, .cls-9 {
        font-family: ArialMT, Arial;
      }

      .cls-2, .cls-4, .cls-5, .cls-7, .cls-9 {
        letter-spacing: -0.06em;
      }

      .cls-14, .cls-3, .cls-4 {
        fill: #7ac943;
      }

      .cls-6, .cls-7 {
        fill: #0071bc;
      }

      .cls-8, .cls-9 {
        fill: #f0f;
      }

      .cls-12 {
        letter-spacing: -0.04em;
      }

      .cls-13 {
        fill: none;
      }

      .cls-13, .cls-14 {
        stroke: #000;
        stroke-miterlimit: 10;
        stroke-width: 0.25px;
      }

      .cls-15 {
        font-size: 22px;
      }
    </style>
  </defs>
  <text class="cls-1" transform="translate(436.5 229.82)">G</text>
  <text class="cls-1" transform="translate(417.99 229.82)">G</text>
  <text class="cls-2" transform="translate(399.63 229.82)">A</text>
  <text class="cls-1" transform="translate(376.96 229.82)">G</text>
  <text class="cls-2" transform="translate(359.55 229.82)">A</text>
  <text class="cls-1" transform="translate(338.4 229.82)">C</text>
  <text class="cls-2" transform="translate(318.47 229.82)">A</text>
  <text class="cls-2" transform="translate(296.27 229.82)">A</text>
  <text class="cls-1" transform="translate(274.65 229.82)">G</text>
  <text class="cls-2" transform="translate(253.14 229.82)">A</text>
  <text class="cls-2" transform="translate(229.74 229.82)">A</text>
  <text class="cls-1" transform="translate(222.93 246.21)">U</text>
  <text class="cls-2" transform="translate(209.79 253.98)">A</text>
  <text class="cls-2" transform="translate(189.12 256.02)">A</text>
  <text class="cls-2" transform="translate(170.9 246.21)">A</text>
  <text class="cls-1" transform="translate(160.76 228.23)">C</text>
  <text class="cls-3" transform="translate(161 207.12)">G</text>
  <text class="cls-3" transform="translate(143.8 194.79)">C</text>
  <text class="cls-3" transform="translate(124.95 183.16)">U</text>
  <text class="cls-3" transform="translate(103.74 177.01)">C</text>
  <text class="cls-4" transform="translate(81.56 176.91)">A</text>
  <text class="cls-4" transform="translate(59.85 177.52)">A</text>
  <text class="cls-3" transform="translate(43.08 191.19)">U</text>
  <text class="cls-3" transform="translate(22.58 186.95)">G</text>
  <text class="cls-4" transform="translate(13.49 168.17)">A</text>
  <text class="cls-3" transform="translate(21.92 149.08)">U</text>
  <text class="cls-3" transform="translate(42.18 143.9)">U</text>
  <text class="cls-3" transform="translate(59.21 156.86)">U</text>
  <text class="cls-3" transform="translate(81.17 156.98)">U</text>
  <text class="cls-3" transform="translate(103 156.56)">G</text>
  <text class="cls-3" transform="translate(123.44 148.92)">C</text>
  <text class="cls-4" transform="translate(136.3 165.96)">A</text>
  <text class="cls-3" transform="translate(154.32 178.06)">G</text>
  <text class="cls-3" transform="translate(173.32 190.12)">C</text>
  <text class="cls-2" transform="translate(193.27 182.64)">A</text>
  <text class="cls-1" transform="translate(213.54 186.59)">C</text>
  <text class="cls-1" transform="translate(228.65 207.08)">U</text>
  <text class="cls-1" transform="translate(251.21 207.08)">U</text>
  <text class="cls-1" transform="translate(274.42 207.08)">C</text>
  <text class="cls-1" transform="translate(296.28 207.08)">U</text>
  <text class="cls-1" transform="translate(317.51 207.08)">U</text>
  <text class="cls-1" transform="translate(337.98 207.08)">G</text>
  <text class="cls-1" transform="translate(358 207.08)">U</text>
  <text class="cls-1" transform="translate(377.3 207.08)">U</text>
  <text class="cls-5" transform="translate(388.23 193.3)">A</text>
  <text class="cls-1" transform="translate(398.54 207.08)">U</text>
  <text class="cls-1" transform="translate(417.3 207.08)">C</text>
  <text class="cls-1" transform="translate(436.31 207.08)">U</text>
  <text class="cls-6" transform="translate(443.96 187.63)">U</text>
  <text class="cls-7" transform="translate(459.26 173.28)">A</text>
  <text class="cls-7" transform="translate(478.59 166.08)">A</text>
  <text class="cls-6" transform="translate(499.28 167.3)">C</text>
  <text class="cls-6" transform="translate(516.99 177.03)">G</text>
  <text class="cls-7" transform="translate(530.06 193.3)">A</text>
  <text class="cls-7" transform="translate(532.44 213.36)">A</text>
  <text class="cls-8" transform="translate(531.75 233.97)">C</text>
  <text class="cls-8" transform="translate(547.85 233.67)">U</text>
  <text class="cls-8" transform="translate(566.66 233.67)">G</text>
  <text class="cls-8" transform="translate(583.13 233.67)">U</text>
  <text class="cls-8" transform="translate(602.37 234.08)">U</text>
  <text class="cls-8" transform="translate(622.43 233.67)">G</text>
  <text class="cls-9" transform="translate(635.24 222.7)">A</text>
  <text class="cls-8" transform="translate(643.88 234.2)">U</text>
  <text class="cls-8" transform="translate(661.27 234.2)">G</text>
  <text class="cls-9" transform="translate(677.91 232.97)">A</text>
  <text class="cls-8" transform="translate(695.03 232.56)">U</text>
  <text class="cls-8" transform="translate(712.1 232.56)">U</text>
  <text class="cls-8" transform="translate(728.95 234.43)">C</text>
  <text class="cls-8" transform="translate(745.77 221.79)">G</text>
  <text class="cls-9" transform="translate(766.33 227.17)">A</text>
  <text class="cls-8" transform="translate(774.8 246.47)">C</text>
  <text class="cls-9" transform="translate(764.93 265.02)">A</text>
  <text class="cls-8" transform="translate(744.04 269.02)">G</text>
  <text class="cls-8" transform="translate(727.92 255.16)">G</text>
  <text class="cls-9" transform="translate(713.78 255.16)">A</text>
  <text class="cls-8" transform="translate(705.32 265.02)">G</text>
  <text class="cls-8" transform="translate(696.12 276.05)">G</text>
  <text class="cls-8" transform="translate(683.61 265.18)">C</text>
  <text class="cls-8" transform="translate(677.92 255.33)">U</text>
  <text class="cls-8" transform="translate(662 255.49)">C</text>
  <text class="cls-9" transform="translate(644.97 255.16)">A</text>
  <text class="cls-8" transform="translate(623.16 256.44)">C</text>
  <text class="cls-9" transform="translate(603.46 256.61)">A</text>
  <text class="cls-9" transform="translate(584.22 256.27)">A</text>
  <text class="cls-8" transform="translate(569.09 256.27)">C</text>
  <text class="cls-9" transform="translate(548.91 256.44)">A</text>
  <text class="cls-8" transform="translate(530.15 256.74)">G</text>
  <text class="cls-8" transform="translate(530.88 275.15)">G</text>
  <text class="cls-8" transform="translate(530.88 291.28)">C</text>
  <text class="cls-10" transform="translate(250.1 254.14)">10</text>
  <text class="cls-10" transform="translate(101.96 203.77)">20</text>
  <text class="cls-10" transform="translate(101.96 134.05)">30</text>
  <text class="cls-10" transform="translate(293.81 183.55)">40</text>
  <text class="cls-10" transform="translate(599.59 212.84)">60</text>
  <text class="cls-10" transform="translate(776.62 207.08)">70</text>
  <text class="cls-11" transform="translate(440.15 252.81)">5<tspan class="cls-12" x="7.66" y="0">’</tspan></text>
  <text class="cls-11" transform="translate(530.88 308.74)">3<tspan class="cls-12" x="7.66" y="0">’</tspan></text>
  <line class="cls-13" x1="536.18" y1="235.34" x2="536.18" y2="246.07"/>
  <line class="cls-13" x1="553.2" y1="234.74" x2="553.2" y2="245.47"/>
  <line class="cls-13" x1="573.74" y1="235.34" x2="573.74" y2="246.07"/>
  <line class="cls-13" x1="588.38" y1="235.21" x2="588.38" y2="245.93"/>
  <line class="cls-13" x1="607.65" y1="234.55" x2="607.65" y2="245.27"/>
  <line class="cls-13" x1="629.02" y1="234.74" x2="629.02" y2="245.47"/>
  <line class="cls-13" x1="649.37" y1="233.63" x2="649.37" y2="244.35"/>
  <line class="cls-13" x1="666.56" y1="233.63" x2="666.56" y2="244.35"/>
  <line class="cls-13" x1="682.44" y1="234.09" x2="682.44" y2="244.81"/>
  <line class="cls-13" x1="718.12" y1="233.7" x2="718.12" y2="244.43"/>
  <line class="cls-13" x1="733.88" y1="234.28" x2="733.88" y2="245.01"/>
  <line class="cls-13" x1="441.88" y1="207.99" x2="441.88" y2="218.72"/>
  <line class="cls-13" x1="422.93" y1="207.99" x2="422.93" y2="218.72"/>
  <line class="cls-13" x1="403.99" y1="207.99" x2="403.99" y2="218.72"/>
  <line class="cls-13" x1="383.54" y1="208.98" x2="383.54" y2="219.7"/>
  <line class="cls-13" x1="363.75" y1="208.65" x2="363.75" y2="219.37"/>
  <line class="cls-13" x1="343.96" y1="207.99" x2="343.96" y2="218.72"/>
  <line class="cls-13" x1="322.5" y1="207.99" x2="322.5" y2="218.72"/>
  <line class="cls-13" x1="301.04" y1="207.99" x2="301.04" y2="218.72"/>
  <line class="cls-13" x1="279.58" y1="208.65" x2="279.58" y2="219.37"/>
  <line class="cls-13" x1="257.3" y1="207.74" x2="257.3" y2="218.46"/>
  <line class="cls-13" x1="233.7" y1="208.39" x2="233.7" y2="219.12"/>
  <line class="cls-13" x1="175.97" y1="189.02" x2="169.5" y2="197.58"/>
  <line class="cls-14" x1="158.28" y1="177.05" x2="151.81" y2="185.6"/>
  <line class="cls-14" x1="139.29" y1="164.74" x2="132.83" y2="173.3"/>
  <line class="cls-13" x1="109.03" y1="157.64" x2="109.03" y2="168.37"/>
  <line class="cls-13" x1="85.89" y1="157.64" x2="85.89" y2="168.37"/>
  <line class="cls-13" x1="64.63" y1="157.64" x2="64.63" y2="168.37"/>
  <line class="cls-13" x1="257.3" y1="231.81" x2="257.3" y2="240.89"/>
  <line class="cls-13" x1="109.03" y1="134.68" x2="109.03" y2="143.76"/>
  <line class="cls-13" x1="109.03" y1="179.01" x2="109.03" y2="188.09"/>
  <line class="cls-13" x1="301.04" y1="185.59" x2="301.04" y2="194.66"/>
  <line class="cls-13" x1="607.65" y1="215.16" x2="607.65" y2="224.24"/>
  <line class="cls-13" x1="779.83" y1="208.55" x2="773.42" y2="214.97"/>
  <text class="cls-15" transform="translate(14.53 30.68)">GL56 aptamer</text>
</svg>
