<?xml version="1.0" encoding="utf-8"?>
<!-- Generator: Adobe Illustrator 25.2.0, SVG Export Plug-In . SVG Version: 6.00 Build 0)  -->
<svg version="1.1" id="图层_1" xmlns="http://www.w3.org/2000/svg" xmlns:xlink="http://www.w3.org/1999/xlink" x="0px" y="0px"
	 viewBox="0 0 800 400" style="enable-background:new 0 0 800 400;" xml:space="preserve">
<style type="text/css">
	.st0{fill:#CC00FF;}
	.st1{font-family:'ArialMT';}
	.st2{font-size:12.7984px;}
	.st3{fill:none;stroke:#000000;stroke-width:0.38;stroke-miterlimit:3.05;}
	.st4{font-size:10.2387px;}
	.st5{font-size:9.8121px;}
	.st6{font-size:8.5322px;}
	.st7{font-size:25px;}
	.st8{fill:#80DB9E;}
</style>
<g id="ID000010">
	<g>
		<g>
			<text transform="matrix(1 0 0 1 401.7204 199.1255)" class="st0 st1 st2">G</text>
		</g>
	</g>
</g>
<g id="ID000021">
	<line class="st3" x1="433.8" y1="194.8" x2="412.1" y2="194.6"/>
</g>
<g>
	<text transform="matrix(1 0 0 1 453.0963 386.8687)" class="st1 st4">5</text>
	<text transform="matrix(1 0 0 1 458.7917 386.8687)" class="st1 st4">’</text>
</g>
<g>
	<text transform="matrix(1 0 0 1 364.0099 386.7505)" class="st1 st5">3</text>
	<text transform="matrix(1 0 0 1 369.466 386.7505)" class="st1 st5">’</text>
</g>
<g id="ID000011-2">
	<g>
		<g>
			<g>
				<text transform="matrix(1 0 0 1 435.0241 198.0816)" class="st0 st1 st2">U</text>
			</g>
		</g>
	</g>
</g>
<g id="ID000019-2">
	<g>
		<g>
			<g>
				<text transform="matrix(1 0 0 1 445.7428 184.0249)" class="st0 st1 st2">G</text>
			</g>
		</g>
	</g>
</g>
<g id="ID000022-2">
	<path class="st3" d="M412.1,211.8"/>
	<path class="st3" d="M433.7,211.9"/>
</g>
<g id="ID000018">
	<text transform="matrix(1 0 0 1 456.6221 289.4805)" class="st1 st6">10</text>
</g>
<g id="ID000008-3">
</g>
<g id="ID000021-2">
</g>
<g id="ID000008-4">
</g>
<g>
	<text transform="matrix(1 0 0 1 6.7624 29.4839)" class="st1 st7">S-PS8.4 aptamer</text>
</g>
<path class="st8" d="M436.7,117.2"/>
<g id="ID000018-2_00000070100528532391322640000017763762924123778987_">
	<text transform="matrix(1 0 0 1 457.4042 141.3458)" class="st1 st6">20</text>
</g>
<g id="ID000010_00000148653675511553157160000007912047499539854520_">
	<g>
		<g>
			<text transform="matrix(1 0 0 1 435.7545 170.9126)" class="st8 st1 st2">U</text>
		</g>
	</g>
</g>
<g id="ID000020_00000111884141847255406900000018422313973471666323_">
	<g>
		<g>
			<text transform="matrix(1 0 0 1 400.5866 170.6949)" class="st8 st1 st2">A</text>
		</g>
	</g>
</g>
<g id="ID000021_00000116951052645286011040000017511674958871112084_">
	<line class="st3" x1="433.1" y1="165.7" x2="411.5" y2="165.6"/>
</g>
<g id="ID000019-3_00000064350895882287164260000010545105664587981997_">
	<g>
		<g>
			<text transform="matrix(1 0 0 1 435.7545 157.3228)" class="st8 st1 st2">U</text>
		</g>
	</g>
</g>
<g id="ID000003-2_00000079451291924182146380000006083046471624180666_">
	<g>
		<g>
			<text transform="matrix(1 0 0 1 435.7545 131.0288)" class="st8 st1 st2">U</text>
		</g>
	</g>
</g>
<g id="ID000005-5_00000056413987010215294860000013512221189112853691_">
	<g>
		<g>
			<text transform="matrix(1 0 0 1 400.5866 130.2935)" class="st8 st1 st2">A</text>
		</g>
	</g>
</g>
<g id="ID000010-2_00000124846395258797553830000006564714959547236768_">
	<g>
		<g>
			<text transform="matrix(1 0 0 1 435.7751 143.4947)" class="st8 st1 st2">A</text>
		</g>
	</g>
</g>
<g id="ID000020-3_00000156551940241060734350000003200982859032237724_">
	<g>
		<g>
			<text transform="matrix(1 0 0 1 400.567 143.1861)" class="st8 st1 st2">U</text>
		</g>
	</g>
</g>
<g id="ID000020-3_00000138538923900835882680000007560290156150023832_">
	<g>
		<g>
			<text transform="matrix(1 0 0 1 400.567 156.8394)" class="st8 st1 st2">G</text>
		</g>
	</g>
</g>
<path class="st3" d="M435.5,132.4"/>
<line class="st3" x1="434.1" y1="138.8" x2="412.5" y2="138.7"/>
<line class="st3" x1="433.1" y1="152.6" x2="411.5" y2="152.4"/>
<line class="st3" x1="433" y1="126.3" x2="411.4" y2="126.1"/>
<g id="ID000003-2_00000117659728674381747870000018002188241624409219_">
	<g>
		<g>
			<text transform="matrix(1 0 0 1 435.7545 104.9517)" class="st8 st1 st2">C</text>
		</g>
	</g>
</g>
<g id="ID000005-5_00000152256039145968175060000009894670349151065237_">
	<g>
		<g>
			<text transform="matrix(1 0 0 1 400.567 104.5093)" class="st8 st1 st2">G</text>
		</g>
	</g>
</g>
<g id="ID000010-2_00000023260324117512390730000011536663946005937849_">
	<g>
		<g>
			<text transform="matrix(1 0 0 1 435.7555 117.4175)" class="st8 st1 st2">C</text>
		</g>
	</g>
</g>
<g id="ID000020-3_00000052098562037151131300000008926205305066624416_">
	<g>
		<g>
			<text transform="matrix(1 0 0 1 400.567 117.4019)" class="st8 st1 st2">G</text>
		</g>
	</g>
</g>
<path class="st3" d="M413.7,106.1"/>
<path class="st3" d="M435.3,106.3"/>
<path class="st3" d="M413.3,112.5"/>
<line class="st3" x1="434.1" y1="100.1" x2="412.5" y2="100"/>
<g id="ID000003-2_00000051371221853374712690000011913361229411948711_">
	<g>
		<g>
			<text transform="matrix(1 0 0 1 397.5342 25.6068)" class="st8 st1 st2">C</text>
		</g>
	</g>
</g>
<g id="ID000010_00000036964247026096463410000007949980024044154789_">
	<g>
		<g>
			<text transform="matrix(1 0 0 1 401.7204 212.6997)" class="st0 st1 st2">G</text>
		</g>
	</g>
</g>
<g id="ID000021_00000004531459644633397970000001202839653772907924_">
	<line class="st3" x1="433.6" y1="208.3" x2="412" y2="208.2"/>
</g>
<g id="ID000011-2_00000050638203413691963070000012153200129634314113_">
	<g>
		<g>
			<g>
				<text transform="matrix(1 0 0 1 435.0241 213.522)" class="st0 st1 st2">C</text>
			</g>
		</g>
	</g>
</g>
<g id="ID000021_00000119108732740122762110000013832931368809093281_">
	<path class="st3" d="M434.2,220.4"/>
</g>
<g id="ID000020-3_00000075130771658896990070000011337394087307161259_">
</g>
<text transform="matrix(1 0 0 1 453.6543 23.9283)" class="st1 st6">30</text>
<g id="ID000010-2_00000147183620152484167520000008366865284146639032_">
	<g>
		<g>
			<text transform="matrix(1 0 0 1 445.0651 95.7876)" class="st8 st1 st2">G</text>
		</g>
	</g>
</g>
<g id="ID000005-5_00000132061865886551228570000010793771529668549796_">
	<g>
		<g>
			<text transform="matrix(1 0 0 1 433.4971 25.76)" class="st8 st1 st2">A</text>
		</g>
	</g>
</g>
<g id="ID000003-2_00000002378033896747675760000005729764342292476038_">
	<g>
		<g>
			<text transform="matrix(1 0 0 1 391.7575 183.8706)" class="st0 st1 st2">G</text>
		</g>
	</g>
</g>
<g id="ID000005-5_00000078007658573398404150000018031641633082893484_">
	<g>
		<g>
			<text transform="matrix(1 0 0 1 452.6432 72.9781)" class="st8 st1 st2">U</text>
		</g>
	</g>
</g>
<g id="ID000010-2_00000109731301046810736330000013289957232585565862_">
	<g>
		<g>
			<text transform="matrix(1 0 0 1 448.0612 343.523)" class="st0 st1 st2">A</text>
		</g>
	</g>
</g>
<g id="ID000005-5_00000163794128014269170850000017710510371958482359_">
	<g>
		<g>
			<text transform="matrix(1 0 0 1 442.0133 61.315)" class="st8 st1 st2">A</text>
		</g>
	</g>
</g>
<g id="ID000010-2_00000132774914610787240160000016566196322527184008_">
	<g>
		<g>
			<g>
				<text transform="matrix(1 0 0 1 446.4206 259.1783)" class="st0 st1 st2">G</text>
			</g>
		</g>
	</g>
</g>
<g id="ID000005-5_00000152240183969886507160000012097983761282488977_">
	<g>
		<g>
			<text transform="matrix(1 0 0 1 459.8366 85.2681)" class="st8 st1 st2">A</text>
		</g>
	</g>
</g>
<g id="ID000010-2_00000047036055504615142740000006174697855534257583_">
	<g>
		<g>
			<text transform="matrix(1 0 0 1 374.8771 386.4429)" class="st0 st1 st2">C</text>
		</g>
	</g>
</g>
<g id="ID000010-2_00000127015955956635041860000000630832462691614116_">
	<g>
		<g>
			<text transform="matrix(1 0 0 1 455.9635 317.7007)" class="st0 st1 st2">A</text>
		</g>
	</g>
</g>
<g id="ID000002-5_00000075848328335305816940000017236795998922031750_">
	<g>
		<g>
			<g>
				<text transform="matrix(1 0 0 1 447.403 239.4693)" class="st0 st1 st2">A</text>
			</g>
		</g>
	</g>
</g>
<g id="ID000010-2_00000119100887742025145460000011564240810076302465_">
	<g>
		<g>
			<text transform="matrix(1 0 0 1 391.609 233.3892)" class="st0 st1 st2">C</text>
		</g>
	</g>
</g>
<g id="ID000010-2_00000142135730647909591970000003130581695254970240_">
	<g>
		<g>
			<text transform="matrix(1 0 0 1 417.2286 16.5966)" class="st8 st1 st2">G</text>
		</g>
	</g>
</g>
<g id="ID000002-5_00000005234859573288761730000017991808597282038667_">
	<g>
		<g>
			<text transform="matrix(1 0 0 1 383.0485 254.6187)" class="st0 st1 st2">A</text>
		</g>
	</g>
</g>
<line class="st3" x1="402.2" y1="90.4" x2="392.8" y2="80.1"/>
<line class="st3" x1="392.8" y1="63.8" x2="399.9" y2="53.4"/>
<g id="ID000002-5_00000160899211217452737060000012509395070744734895_">
	<g>
		<g>
			<text transform="matrix(1 0 0 1 387.6105 386.5962)" class="st0 st1 st2">G</text>
		</g>
	</g>
</g>
<g id="ID000002-5_00000024681509657756643550000004914745302099642020_">
	<g>
		<g>
			<text transform="matrix(1 0 0 1 394.0241 266.0249)" class="st0 st1 st2">U</text>
		</g>
	</g>
</g>
<g id="ID000003-2_00000030457078864281453720000000484598519408349835_">
	<g>
		<g>
			<text transform="matrix(1 0 0 1 457.404 333.1284)" class="st0 st1 st2">C</text>
		</g>
	</g>
</g>
<g id="ID000010-2_00000029765421459410817950000007130472776438929591_">
	<g>
		<g>
			<text transform="matrix(1 0 0 1 383.0485 76.6314)" class="st8 st1 st2">G</text>
		</g>
	</g>
</g>
<g id="ID000002-5_00000111161058743844544430000005381389429491141278_">
	<g>
		<g>
			<text transform="matrix(1 0 0 1 383.7262 242.607)" class="st0 st1 st2">A</text>
		</g>
	</g>
</g>
<text transform="matrix(1 0 0 1 376.6881 277.2906)" class="st1 st6">50</text>
<line class="st3" x1="433.5" y1="114.5" x2="411.9" y2="114.4"/>
<g id="ID000003-2_00000167372608957448901460000005042500679970231435_">
	<g>
		<g>
			<text transform="matrix(1 0 0 1 433.7311 38.8013)" class="st8 st1 st2">C</text>
		</g>
	</g>
</g>
<g id="ID000005-5_00000181061940522663123750000006793601050607708550_">
	<g>
		<g>
			<text transform="matrix(1 0 0 1 398.5934 38.3599)" class="st8 st1 st2">G</text>
		</g>
	</g>
</g>
<g id="ID000010-2_00000066494881600161047040000015092025350942022026_">
	<g>
		<g>
			<text transform="matrix(1 0 0 1 433.7311 51.2671)" class="st8 st1 st2">G</text>
		</g>
	</g>
</g>
<g id="ID000020-3_00000096022415925159354660000005551126569930224039_">
	<g>
		<g>
			<text transform="matrix(1 0 0 1 399.3063 51.2515)" class="st8 st1 st2">C</text>
		</g>
	</g>
</g>
<path class="st3" d="M411.8,40"/>
<path class="st3" d="M433.4,40.1"/>
<path class="st3" d="M411.3,46.4"/>
<line class="st3" x1="432" y1="34" x2="410.5" y2="33.9"/>
<line class="st3" x1="431.5" y1="48.4" x2="409.9" y2="48.3"/>
<g id="ID000022-2_00000121260562926641521150000013905668376172255629_">
	<path class="st3" d="M412.8,224.8"/>
	<path class="st3" d="M434.4,224.9"/>
</g>
<g id="ID000010_00000013892550109479161470000012215995026423906717_">
	<g>
		<g>
			<text transform="matrix(1 0 0 1 402.4323 225.7183)" class="st0 st1 st2">U</text>
		</g>
	</g>
</g>
<g id="ID000021_00000108270213980635251190000007291820820137838751_">
	<line class="st3" x1="434.3" y1="221.4" x2="412.6" y2="221.2"/>
</g>
<g id="ID000011-2_00000018943895429568456500000017547437989637227913_">
	<g>
		<g>
			<g>
				<text transform="matrix(1 0 0 1 435.3756 226.5396)" class="st0 st1 st2">A</text>
			</g>
		</g>
	</g>
</g>
<path class="st3" d="M434.9,233.4"/>
<g id="ID000005-5_00000018212370398170894430000017712716078575789969_">
	<g>
		<g>
			<text transform="matrix(1 0 0 1 399.903 277.7447)" class="st0 st1 st2">G</text>
		</g>
	</g>
</g>
<g id="ID000010-2_00000072971278819275354480000008793231564850520765_">
	<g>
		<g>
			<g>
				<text transform="matrix(1 0 0 1 435.0905 290.6529)" class="st0 st1 st2">C</text>
			</g>
		</g>
	</g>
</g>
<g id="ID000020-3_00000124160775090383252150000005879752121441649847_">
	<g>
		<g>
			<text transform="matrix(1 0 0 1 399.903 290.6372)" class="st0 st1 st2">G</text>
		</g>
	</g>
</g>
<path class="st3" d="M413.1,279.3"/>
<path class="st3" d="M434.6,279.5"/>
<path class="st3" d="M412.6,285.8"/>
<path class="st3" d="M411.8,273.3"/>
<path class="st3" d="M433.4,273.4"/>
<path class="st3" d="M411.2,287.6"/>
<path class="st3" d="M432.8,287.8"/>
<path class="st8" d="M435.2,289.5"/>
<g id="ID000003-2_00000169518008837869142400000014902818083106518975_">
	<g>
		<g>
			<g>
				<text transform="matrix(1 0 0 1 435.7936 302.6314)" class="st0 st1 st2">U</text>
			</g>
		</g>
	</g>
</g>
<g id="ID000005-5_00000006685392224593623060000015105512900657924740_">
	<g>
		<g>
			<text transform="matrix(1 0 0 1 400.567 302.6324)" class="st0 st1 st2">A</text>
		</g>
	</g>
</g>
<line class="st3" x1="433" y1="298.6" x2="411.4" y2="298.5"/>
<g id="ID000003-2_00000109020480031399002690000009463267245298308018_">
	<g>
		<g>
			<g>
				<text transform="matrix(1 0 0 1 434.2126 277.2906)" class="st0 st1 st2">C</text>
			</g>
		</g>
	</g>
</g>
<path class="st3" d="M412.2,278.4"/>
<path class="st3" d="M433.8,278.6"/>
<path class="st3" d="M411.7,284.8"/>
<line class="st3" x1="432.5" y1="272.5" x2="410.9" y2="272.4"/>
<g id="ID000010-2_00000059291151562817367210000012520054939749277080_">
	<g>
		<g>
			<text transform="matrix(1 0 0 1 444.8922 311.7056)" class="st0 st1 st2">G</text>
		</g>
	</g>
</g>
<line class="st3" x1="432.7" y1="286.8" x2="411.1" y2="286.7"/>
<path class="st8" d="M437.3,346.3"/>
<g id="ID000019-3_00000023271013612927711180000014794348489326336430_">
	<g>
		<g>
			<text transform="matrix(1 0 0 1 436.3307 386.4429)" class="st0 st1 st2">G</text>
		</g>
	</g>
</g>
<g id="ID000003-2_00000128467491839892948990000011478490579753331077_">
	<g>
		<g>
			<text transform="matrix(1 0 0 1 436.3307 360.148)" class="st0 st1 st2">G</text>
		</g>
	</g>
</g>
<g id="ID000005-5_00000032614606962278049680000001143724183746683269_">
	<g>
		<g>
			<text transform="matrix(1 0 0 1 401.1637 359.4136)" class="st0 st1 st2">C</text>
		</g>
	</g>
</g>
<g id="ID000010-2_00000154424070472756376660000012676990002650373023_">
	<g>
		<g>
			<text transform="matrix(1 0 0 1 436.3503 372.6148)" class="st0 st1 st2">G</text>
		</g>
	</g>
</g>
<g id="ID000020-3_00000035518679694926204150000015293238031947341470_">
	<g>
		<g>
			<text transform="matrix(1 0 0 1 401.1442 372.3042)" class="st0 st1 st2">C</text>
		</g>
	</g>
</g>
<g id="ID000020-3_00000086687072829495421690000008912356535036335267_">
	<g>
		<g>
			<text transform="matrix(1 0 0 1 401.1432 385.9585)" class="st0 st1 st2">C</text>
		</g>
	</g>
</g>
<path class="st3" d="M414.5,361.3"/>
<path class="st3" d="M436.1,361.4"/>
<line class="st3" x1="434.6" y1="368" x2="413" y2="367.8"/>
<line class="st3" x1="433.6" y1="381.7" x2="412" y2="381.5"/>
<line class="st3" x1="433.6" y1="355.4" x2="412" y2="355.3"/>
<g id="ID000010-2_00000053525713551969095370000007788496517013510024_">
	<g>
		<g>
			<text transform="matrix(1 0 0 1 436.3307 346.5367)" class="st0 st1 st2">A</text>
		</g>
	</g>
</g>
<g id="ID000020-3_00000103256691586157878910000005562429902235910332_">
	<g>
		<g>
			<text transform="matrix(1 0 0 1 401.1442 346.5201)" class="st0 st1 st2">U</text>
		</g>
	</g>
</g>
<path class="st3" d="M413.8,341.6"/>
<line class="st3" x1="434.1" y1="343.7" x2="412.5" y2="343.5"/>
<line class="st3" x1="404.4" y1="331.2" x2="404.4" y2="305.9"/>
<path class="st3" d="M452,118.9"/>
<path class="st3" d="M473.6,119"/>
<line class="st3" x1="452.3" y1="20.4" x2="442.5" y2="20.3"/>
<line class="st3" x1="454.9" y1="138.9" x2="445.1" y2="138.8"/>
<line class="st3" x1="456.4" y1="285.9" x2="446.6" y2="285.8"/>
<line class="st3" x1="397.2" y1="273.5" x2="387.3" y2="273.3"/>
</svg>
