<?xml version="1.0" encoding="utf-8"?>
<!-- Generator: Adobe Illustrator 25.2.0, SVG Export Plug-In . SVG Version: 6.00 Build 0)  -->
<svg version="1.1" id="图层_1" xmlns="http://www.w3.org/2000/svg" xmlns:xlink="http://www.w3.org/1999/xlink" x="0px" y="0px"
	 viewBox="0 0 800 400" style="enable-background:new 0 0 800 400;" xml:space="preserve">
<style type="text/css">
	.st0{fill:#17BECF;}
	.st1{font-family:'ArialMT';}
	.st2{font-size:19.9536px;}
	.st3{fill:#FF7F0E;}
	.st4{fill:none;stroke:#000000;stroke-width:0.1298;stroke-miterlimit:1.0381;}
	.st5{fill:none;stroke:#000000;stroke-width:0.9862;stroke-miterlimit:1.0381;}
	.st6{stroke:#000000;stroke-width:0.1298;stroke-miterlimit:1.0381;}
	.st7{fill:#2CA02C;}
	.st8{fill:#D62728;}
	.st9{fill:#9467BD;}
	.st10{fill:#8C564B;}
	.st11{fill:#E377C2;}
	.st12{font-size:20px;}
	.st13{font-size:21.8072px;}
</style>
<g id="ID000002">
	<g transform="translate(240.631,275.795)">
		<g transform="rotate(-0.0)">
			<text transform="matrix(1 0 0 1 -82.6847 -192.381)" class="st0 st1 st2">G</text>
		</g>
	</g>
</g>
<g id="ID000003">
	<g transform="translate(264.692,251.734)">
		<g transform="rotate(-0.0)">
			<text transform="matrix(1 0 0 1 -106.7457 -148.317)" class="st0 st1 st2">G</text>
		</g>
	</g>
</g>
<g id="ID000004">
	<g transform="translate(256.672,219.653)">
		<g transform="rotate(-0.0)">
			<text transform="matrix(1 0 0 1 -98.7257 -99.1999)" class="st0 st1 st2">C</text>
		</g>
	</g>
</g>
<g id="ID000005">
	<g transform="translate(232.611,195.592)">
		<g transform="rotate(-0.0)">
			<text transform="matrix(1 0 0 1 -74.6647 -57.6433)" class="st0 st1 st2">G</text>
		</g>
	</g>
</g>
<g id="ID000006">
	<g transform="translate(200.530,195.592)">
		<g transform="rotate(-0.0)">
			<text transform="matrix(1 0 0 1 -42.5837 -37.6398)" class="st0 st1 st2">C</text>
		</g>
	</g>
</g>
<g id="ID000007">
	<g transform="translate(176.469,219.653)">
		<g transform="rotate(-0.0)">
			<text transform="matrix(1 0 0 1 -18.5222 -41.4582)" class="st0 st1 st2">U</text>
		</g>
	</g>
</g>
<g id="ID000008">
	<g transform="translate(160.429,243.714)">
		<g transform="rotate(-0.0)">
			<text transform="matrix(1 0 0 1 -2.4827 -45.755)" class="st0 st1 st2">C</text>
		</g>
	</g>
</g>
<g id="ID000009">
	<g transform="translate(160.429,275.795)">
		<g transform="rotate(-0.0)">
			<text transform="matrix(1 0 0 1 -2.4827 -57.8302)" class="st0 st1 st2">C</text>
		</g>
	</g>
</g>
<g id="ID000010">
	<g transform="translate(168.449,307.876)">
		<g transform="rotate(-0.0)">
			<text transform="matrix(1 0 0 1 -10.5027 -69.9082)" class="st3 st1 st2">G</text>
		</g>
	</g>
</g>
<g id="ID000011">
	<g transform="translate(136.368,307.876)">
		<g transform="rotate(-0.0)">
			<text transform="matrix(1 0 0 1 3.8576 -69.9082)" class="st3 st1 st2">A</text>
		</g>
	</g>
</g>
<g id="ID000012">
	<line class="st4" x1="137.5" y1="219.5" x2="128" y2="210.1"/>
</g>
<g id="ID000013">
	<g transform="translate(106.122,255.173)">
		<g transform="rotate(-0.0)">
			<text transform="matrix(1 0 0 1 -0.2978 -50.0695)" class="st1 st2">10</text>
		</g>
	</g>
</g>
<g id="ID000014">
	<g transform="translate(104.287,307.876)">
		<g transform="rotate(-0.0)">
			<text transform="matrix(1 0 0 1 15.3815 -69.9082)" class="st3 st1 st2">C</text>
		</g>
	</g>
</g>
<g id="ID000015">
	<g transform="translate(72.206,307.876)">
		<g transform="rotate(-0.0)">
			<text transform="matrix(1 0 0 1 27.459 -69.9082)" class="st0 st1 st2">C</text>
		</g>
	</g>
</g>
<g id="ID000016">
	<g transform="translate(40.125,323.916)">
		<g transform="rotate(-0.0)">
			<text transform="matrix(1 0 0 1 39.5371 -75.9472)" class="st0 st1 st2">U</text>
		</g>
	</g>
</g>
<g id="ID000017">
	<g transform="translate(40.125,355.997)">
		<g transform="rotate(-0.0)">
			<text transform="matrix(1 0 0 1 39.5371 -88.0234)" class="st0 st1 st2">U</text>
		</g>
	</g>
</g>
<g id="ID000018">
	<g transform="translate(72.206,372.038)">
		<g transform="rotate(-0.0)">
			<text transform="matrix(1 0 0 1 28.0108 -94.0634)" class="st0 st1 st2">A</text>
		</g>
	</g>
</g>
<g id="ID000019">
	<g transform="translate(104.287,372.038)">
		<g transform="rotate(-0.0)">
			<text transform="matrix(1 0 0 1 14.8277 -94.0634)" class="st3 st1 st2">G</text>
		</g>
	</g>
</g>
<g id="ID000020">
	<g transform="translate(136.368,372.038)">
		<g transform="rotate(-0.0)">
			<text transform="matrix(1 0 0 1 3.3063 -94.0634)" class="st3 st1 st2">U</text>
		</g>
	</g>
</g>
<g id="ID000021">
	<g transform="translate(168.449,372.038)">
		<g transform="rotate(-0.0)">
			<text transform="matrix(1 0 0 1 -8.7713 -94.0634)" class="st3 st1 st2">C</text>
		</g>
	</g>
</g>
<g id="ID000022">
	<line class="st4" x1="166.9" y1="237" x2="166.9" y2="261"/>
</g>
<g id="ID000023">
	<line class="st4" x1="146.9" y1="237" x2="146.9" y2="261"/>
</g>
<g id="ID000024">
	<line class="st4" x1="126.9" y1="237" x2="126.9" y2="261"/>
</g>
<g id="ID000025">
	<line class="st5" x1="174.9" y1="268.9" x2="238.9" y2="268.9"/>
</g>
<g id="ID000026">
	<polygon class="st6" points="200.2,262.9 203.6,266 206.8,267 210.2,267.5 216.9,268.9 210.2,270.5 206.8,271 203.6,272 
		200.2,274.9 	"/>
</g>
<g id="ID000028">
	<g transform="translate(296.773,372.038)">
		<g transform="rotate(-0.0)">
			<text transform="matrix(1 0 0 1 -57.0777 -94.0634)" class="st7 st1 st2">U</text>
		</g>
	</g>
</g>
<g id="ID000029">
	<g transform="translate(328.854,372.038)">
		<g transform="rotate(-0.0)">
			<text transform="matrix(1 0 0 1 -69.1553 -94.0634)" class="st7 st1 st2">C</text>
		</g>
	</g>
</g>
<g id="ID000030">
	<line class="st4" x1="257.4" y1="278.4" x2="248.1" y2="287.8"/>
</g>
<g id="ID000031">
	<g transform="translate(298.608,425.703)">
		<g transform="rotate(-0.0)">
			<text transform="matrix(1 0 0 1 -72.7594 -114.2635)" class="st1 st2">20</text>
		</g>
	</g>
</g>
<g id="ID000032">
	<g transform="translate(360.935,372.038)">
		<g transform="rotate(-0.0)">
			<text transform="matrix(1 0 0 1 -81.2309 -94.0634)" class="st7 st1 st2">U</text>
		</g>
	</g>
</g>
<g id="ID000033">
	<g transform="translate(393.016,372.038)">
		<g transform="rotate(-0.0)">
			<text transform="matrix(1 0 0 1 -93.8641 -94.0634)" class="st7 st1 st2">G</text>
		</g>
	</g>
</g>
<g id="ID000034">
	<g transform="translate(425.097,372.038)">
		<g transform="rotate(-0.0)">
			<text transform="matrix(1 0 0 1 -105.386 -94.0634)" class="st7 st1 st2">C</text>
		</g>
	</g>
</g>
<g id="ID000035">
	<g transform="translate(409.057,396.099)">
		<g transform="rotate(-0.0)">
			<text transform="matrix(1 0 0 1 -98.7972 -103.1195)" class="st0 st1 st2">A</text>
		</g>
	</g>
</g>
<g id="ID000036">
	<g transform="translate(384.996,420.159)">
		<g transform="rotate(-0.0)">
			<text transform="matrix(1 0 0 1 -89.7392 -112.1766)" class="st0 st1 st2">A</text>
		</g>
	</g>
</g>
<g id="ID000037">
	<g transform="translate(384.996,452.240)">
		<g transform="rotate(-0.0)">
			<text transform="matrix(1 0 0 1 -90.8466 -124.2537)" class="st0 st1 st2">G</text>
		</g>
	</g>
</g>
<g id="ID000038">
	<g transform="translate(401.036,484.321)">
		<g transform="rotate(-0.0)">
			<text transform="matrix(1 0 0 1 -95.7787 -136.3318)" class="st0 st1 st2">A</text>
		</g>
	</g>
</g>
<g id="ID000039">
	<g transform="translate(441.138,508.382)">
		<g transform="rotate(-0.0)">
			<text transform="matrix(1 0 0 1 -111.4261 -145.3888)" class="st0 st1 st2">U</text>
		</g>
	</g>
</g>
<g id="ID000040">
	<g transform="translate(457.178,307.876)">
		<g transform="rotate(-0.0)">
			<text transform="matrix(1 0 0 1 -116.9119 -69.9082)" class="st0 st1 st2">A</text>
		</g>
	</g>
</g>
<g id="ID000041">
	<g transform="translate(425.097,307.876)">
		<g transform="rotate(-0.0)">
			<text transform="matrix(1 0 0 1 -105.9398 -69.9082)" class="st7 st1 st2">G</text>
		</g>
	</g>
</g>
<g id="ID000042">
	<line class="st4" x1="326.9" y1="215.6" x2="326.9" y2="202.3"/>
</g>
<g id="ID000043">
	<g transform="translate(425.097,242.644)">
		<g transform="rotate(-0.0)">
			<text transform="matrix(1 0 0 1 -114.8284 -45.3515)" class="st1 st2">100</text>
		</g>
	</g>
</g>
<g id="ID000044">
	<g transform="translate(393.016,307.876)">
		<g transform="rotate(-0.0)">
			<text transform="matrix(1 0 0 1 -93.3104 -69.9082)" class="st7 st1 st2">C</text>
		</g>
	</g>
</g>
<g id="ID000045">
	<g transform="translate(360.935,307.876)">
		<g transform="rotate(-0.0)">
			<text transform="matrix(1 0 0 1 -80.6835 -69.9082)" class="st7 st1 st2">A</text>
		</g>
	</g>
</g>
<g id="ID000046">
	<g transform="translate(328.854,307.876)">
		<g transform="rotate(-0.0)">
			<text transform="matrix(1 0 0 1 -69.7109 -69.9082)" class="st7 st1 st2">G</text>
		</g>
	</g>
</g>
<g id="ID000047">
	<g transform="translate(296.773,307.876)">
		<g transform="rotate(-0.0)">
			<text transform="matrix(1 0 0 1 -56.5284 -69.9082)" class="st7 st1 st2">A</text>
		</g>
	</g>
</g>
<g id="ID000048">
	<line class="st4" x1="246.9" y1="261" x2="246.9" y2="237"/>
</g>
<g id="ID000049">
	<line class="st4" x1="266.9" y1="261" x2="266.9" y2="237"/>
</g>
<g id="ID000050">
	<line class="st4" x1="286.9" y1="261" x2="286.9" y2="237"/>
</g>
<g id="ID000051">
	<line class="st4" x1="306.9" y1="261" x2="306.9" y2="237"/>
</g>
<g id="ID000052">
	<line class="st4" x1="326.9" y1="261" x2="326.9" y2="237"/>
</g>
<g id="ID000054">
	<g transform="translate(473.219,508.382)">
		<g transform="rotate(-0.0)">
			<text transform="matrix(1 0 0 1 -122.9504 -145.3888)" class="st0 st1 st2">A</text>
		</g>
	</g>
</g>
<g id="ID000055">
	<g transform="translate(497.280,484.321)">
		<g transform="rotate(-0.0)">
			<text transform="matrix(1 0 0 1 -132.008 -136.3318)" class="st0 st1 st2">A</text>
		</g>
	</g>
</g>
<g id="ID000056">
	<line class="st4" x1="381.4" y1="348.4" x2="390.8" y2="357.8"/>
</g>
<g id="ID000057">
	<g transform="translate(527.526,537.987)">
		<g transform="rotate(-0.0)">
			<text transform="matrix(1 0 0 1 -136.7413 -156.5329)" class="st1 st2">30</text>
		</g>
	</g>
</g>
<g id="ID000058">
	<g transform="translate(521.340,452.240)">
		<g transform="rotate(-0.0)">
			<text transform="matrix(1 0 0 1 -141.0671 -124.2537)" class="st0 st1 st2">A</text>
		</g>
	</g>
</g>
<g id="ID000059">
	<g transform="translate(521.340,420.159)">
		<g transform="rotate(-0.0)">
			<text transform="matrix(1 0 0 1 -141.6164 -112.1766)" class="st0 st1 st2">C</text>
		</g>
	</g>
</g>
<g id="ID000060">
	<g transform="translate(497.280,396.099)">
		<g transform="rotate(-0.0)">
			<text transform="matrix(1 0 0 1 -132.5598 -103.1195)" class="st0 st1 st2">C</text>
		</g>
	</g>
</g>
<g id="ID000061">
	<g transform="translate(489.259,372.038)">
		<g transform="rotate(-0.0)">
			<text transform="matrix(1 0 0 1 -130.0949 -94.0634)" class="st8 st1 st2">G</text>
		</g>
	</g>
</g>
<g id="ID000062">
	<g transform="translate(521.340,372.038)">
		<g transform="rotate(-0.0)">
			<text transform="matrix(1 0 0 1 -141.6164 -94.0634)" class="st8 st1 st2">U</text>
		</g>
	</g>
</g>
<g id="ID000063">
	<g transform="translate(553.421,372.038)">
		<g transform="rotate(-0.0)">
			<text transform="matrix(1 0 0 1 -154.2482 -94.0634)" class="st8 st1 st2">G</text>
		</g>
	</g>
</g>
<g id="ID000064">
	<g transform="translate(585.502,372.038)">
		<g transform="rotate(-0.0)">
			<text transform="matrix(1 0 0 1 -165.7715 -94.0634)" class="st8 st1 st2">C</text>
		</g>
	</g>
</g>
<g id="ID000065">
	<g transform="translate(617.583,372.038)">
		<g transform="rotate(-0.0)">
			<text transform="matrix(1 0 0 1 -177.8477 -94.0634)" class="st8 st1 st2">U</text>
		</g>
	</g>
</g>
<g id="ID000066">
	<g transform="translate(649.665,372.038)">
		<g transform="rotate(-0.0)">
			<text transform="matrix(1 0 0 1 -189.374 -94.0634)" class="st8 st1 st2">A</text>
		</g>
	</g>
</g>
<g id="ID000067">
	<g transform="translate(681.746,372.038)">
		<g transform="rotate(-0.0)">
			<text transform="matrix(1 0 0 1 -202.0009 -94.0634)" class="st8 st1 st2">U</text>
		</g>
	</g>
</g>
<g id="ID000068">
	<line class="st4" x1="477.5" y1="278.4" x2="468.1" y2="287.8"/>
</g>
<g id="ID000069">
	<g transform="translate(651.499,425.703)">
		<g transform="rotate(-0.0)">
			<text transform="matrix(1 0 0 1 -205.6045 -114.2635)" class="st1 st2">40</text>
		</g>
	</g>
</g>
<g id="ID000070">
	<g transform="translate(673.725,404.119)">
		<g transform="rotate(-0.0)">
			<text transform="matrix(1 0 0 1 -198.9828 -106.1385)" class="st0 st1 st2">U</text>
		</g>
	</g>
</g>
<g id="ID000071">
	<g transform="translate(665.705,436.200)">
		<g transform="rotate(-0.0)">
			<text transform="matrix(1 0 0 1 -196.5195 -118.2166)" class="st0 st1 st2">G</text>
		</g>
	</g>
</g>
<g id="ID000072">
	<g transform="translate(673.725,468.281)">
		<g transform="rotate(-0.0)">
			<text transform="matrix(1 0 0 1 -198.431 -130.2917)" class="st0 st1 st2">A</text>
		</g>
	</g>
</g>
<g id="ID000073">
	<g transform="translate(681.746,492.342)">
		<g transform="rotate(-0.0)">
			<text transform="matrix(1 0 0 1 -202.0009 -139.3498)" class="st0 st1 st2">C</text>
		</g>
	</g>
</g>
<g id="ID000074">
	<g transform="translate(721.847,508.382)">
		<g transform="rotate(-0.0)">
			<text transform="matrix(1 0 0 1 -217.0989 -145.3888)" class="st0 st1 st2">C</text>
		</g>
	</g>
</g>
<g id="ID000075">
	<g transform="translate(681.746,307.876)">
		<g transform="rotate(-0.0)">
			<text transform="matrix(1 0 0 1 -202.5575 -69.9082)" class="st8 st1 st2">G</text>
		</g>
	</g>
</g>
<g id="ID000076">
	<g transform="translate(649.665,307.876)">
		<g transform="rotate(-0.0)">
			<text transform="matrix(1 0 0 1 -189.9238 -69.9082)" class="st8 st1 st2">U</text>
		</g>
	</g>
</g>
<g id="ID000077">
	<g transform="translate(617.583,307.876)">
		<g transform="rotate(-0.0)">
			<text transform="matrix(1 0 0 1 -177.2959 -69.9082)" class="st8 st1 st2">A</text>
		</g>
	</g>
</g>
<g id="ID000078">
	<g transform="translate(585.502,307.876)">
		<g transform="rotate(-0.0)">
			<text transform="matrix(1 0 0 1 -166.3282 -69.9082)" class="st8 st1 st2">G</text>
		</g>
	</g>
</g>
<g id="ID000079">
	<g transform="translate(553.421,307.876)">
		<g transform="rotate(-0.0)">
			<text transform="matrix(1 0 0 1 -153.6945 -69.9082)" class="st8 st1 st2">C</text>
		</g>
	</g>
</g>
<g id="ID000080">
	<g transform="translate(521.340,307.876)">
		<g transform="rotate(-0.0)">
			<text transform="matrix(1 0 0 1 -141.0671 -69.9082)" class="st8 st1 st2">A</text>
		</g>
	</g>
</g>
<g id="ID000081">
	<g transform="translate(489.259,307.876)">
		<g transform="rotate(-0.0)">
			<text transform="matrix(1 0 0 1 -129.5393 -69.9082)" class="st8 st1 st2">C</text>
		</g>
	</g>
</g>
<g id="ID000082">
	<line class="st4" x1="366.9" y1="261" x2="366.9" y2="237"/>
</g>
<g id="ID000083">
	<line class="st4" x1="387" y1="261" x2="387" y2="237"/>
</g>
<g id="ID000084">
	<line class="st4" x1="406.9" y1="261" x2="406.9" y2="237"/>
</g>
<g id="ID000085">
	<line class="st4" x1="427" y1="261" x2="427" y2="237"/>
</g>
<g id="ID000086">
	<line class="st4" x1="446.9" y1="261" x2="446.9" y2="237"/>
</g>
<g id="ID000087">
	<line class="st4" x1="466.9" y1="261" x2="466.9" y2="237"/>
</g>
<g id="ID000088">
	<polygon class="st6" points="487,245 486.7,245 486.4,245 486.2,245.1 486,245.1 485.8,245.2 485.4,245.3 485.2,245.4 485,245.5 
		484.8,245.6 484.6,245.7 484.3,245.9 484.2,246 484,246.3 483.8,246.5 483.7,246.7 483.6,246.8 483.5,247.1 483.4,247.3 
		483.2,247.6 483.1,247.8 483,248 483,248.2 482.9,248.5 482.9,248.8 482.9,249 482.9,249.3 483,249.5 483,249.7 483.1,250.1 
		483.1,250.3 483.2,250.5 483.4,250.7 483.5,250.9 483.6,251.2 483.8,251.4 483.9,251.6 484.1,251.8 484.2,251.9 484.4,252.1 
		484.7,252.3 484.9,252.4 485.1,252.5 485.3,252.6 485.5,252.7 485.9,252.8 486.1,252.9 486.3,252.9 486.5,252.9 486.8,253 
		487.1,253 487.3,252.9 487.6,252.9 487.8,252.9 488,252.8 488.4,252.7 488.6,252.6 488.8,252.5 489,252.4 489.2,252.3 489.5,252.1 
		489.6,251.9 489.8,251.8 490,251.6 490.1,251.4 490.3,251.2 490.4,250.9 490.6,250.7 490.7,250.5 490.8,250.3 490.8,250.1 
		490.9,249.7 490.9,249.5 491,249.3 491,249 491,248.8 490.9,248.5 490.9,248.2 490.9,248 490.8,247.8 490.7,247.6 490.6,247.3 
		490.4,247.1 490.3,246.8 490.2,246.7 490,246.5 489.9,246.3 489.7,246 489.6,245.9 489.4,245.7 489.1,245.6 488.9,245.5 
		488.7,245.4 488.5,245.3 488.2,245.2 487.9,245.1 487.7,245.1 487.5,245 487.2,245 	"/>
</g>
<g id="ID000090">
	<g transform="translate(761.948,492.342)">
		<g transform="rotate(-0.0)">
			<text transform="matrix(1 0 0 1 -231.6423 -139.3498)" class="st0 st1 st2">A</text>
		</g>
	</g>
</g>
<g id="ID000091">
	<g transform="translate(777.989,468.281)">
		<g transform="rotate(-0.0)">
			<text transform="matrix(1 0 0 1 -238.2322 -130.2917)" class="st0 st1 st2">C</text>
		</g>
	</g>
</g>
<g id="ID000092">
	<g transform="translate(786.009,436.200)">
		<g transform="rotate(-0.0)">
			<text transform="matrix(1 0 0 1 -241.2492 -118.2166)" class="st0 st1 st2">C</text>
		</g>
	</g>
</g>
<g id="ID000093">
	<g transform="translate(777.989,404.119)">
		<g transform="rotate(-0.0)">
			<text transform="matrix(1 0 0 1 -238.2322 -106.1385)" class="st0 st1 st2">C</text>
		</g>
	</g>
</g>
<g id="ID000094">
	<g transform="translate(769.968,372.038)">
		<g transform="rotate(-0.0)">
			<text transform="matrix(1 0 0 1 -235.2112 -94.0634)" class="st9 st1 st2">U</text>
		</g>
	</g>
</g>
<g id="ID000095">
	<line class="st4" x1="551.4" y1="278.4" x2="560.8" y2="287.8"/>
</g>
<g id="ID000096">
	<g transform="translate(800.215,425.703)">
		<g transform="rotate(-0.0)">
			<text transform="matrix(1 0 0 1 -239.3937 -114.2635)" class="st1 st2">50</text>
		</g>
	</g>
</g>
<g id="ID000097">
	<g transform="translate(802.049,372.038)">
		<g transform="rotate(-0.0)">
			<text transform="matrix(1 0 0 1 -247.2912 -94.0634)" class="st9 st1 st2">C</text>
		</g>
	</g>
</g>
<g id="ID000098">
	<g transform="translate(834.130,372.038)">
		<g transform="rotate(-0.0)">
			<text transform="matrix(1 0 0 1 -258.8156 -94.0634)" class="st9 st1 st2">A</text>
		</g>
	</g>
</g>
<g id="ID000099">
	<g transform="translate(866.212,372.038)">
		<g transform="rotate(-0.0)">
			<text transform="matrix(1 0 0 1 -270.8936 -94.0634)" class="st9 st1 st2">A</text>
		</g>
	</g>
</g>
<g id="ID000100">
	<g transform="translate(898.293,388.078)">
		<g transform="rotate(-0.0)">
			<text transform="matrix(1 0 0 1 -283.5206 -100.1005)" class="st0 st1 st2">C</text>
		</g>
	</g>
</g>
<g id="ID000101">
	<g transform="translate(898.293,291.835)">
		<g transform="rotate(-0.0)">
			<text transform="matrix(1 0 0 1 -282.9688 -63.8682)" class="st0 st1 st2">A</text>
		</g>
	</g>
</g>
<g id="ID000102">
	<line class="st4" x1="621.9" y1="205.6" x2="621.9" y2="192.3"/>
</g>
<g id="ID000103">
	<g transform="translate(898.293,226.604)">
		<g transform="rotate(-0.0)">
			<text transform="matrix(1 0 0 1 -287.4141 -39.3125)" class="st1 st2">70</text>
		</g>
	</g>
</g>
<g id="ID000104">
	<g transform="translate(866.212,307.876)">
		<g transform="rotate(-0.0)">
			<text transform="matrix(1 0 0 1 -271.4454 -69.9082)" class="st9 st1 st2">U</text>
		</g>
	</g>
</g>
<g id="ID000105">
	<g transform="translate(834.130,307.876)">
		<g transform="rotate(-0.0)">
			<text transform="matrix(1 0 0 1 -259.3663 -69.9082)" class="st9 st1 st2">U</text>
		</g>
	</g>
</g>
<g id="ID000106">
	<g transform="translate(802.049,307.876)">
		<g transform="rotate(-0.0)">
			<text transform="matrix(1 0 0 1 -247.8449 -69.9082)" class="st9 st1 st2">G</text>
		</g>
	</g>
</g>
<g id="ID000107">
	<g transform="translate(769.968,307.876)">
		<g transform="rotate(-0.0)">
			<text transform="matrix(1 0 0 1 -234.6624 -69.9082)" class="st9 st1 st2">A</text>
		</g>
	</g>
</g>
<g id="ID000108">
	<line class="st4" x1="541.9" y1="261" x2="541.9" y2="237"/>
</g>
<g id="ID000109">
	<line class="st4" x1="562" y1="261" x2="562" y2="237"/>
</g>
<g id="ID000110">
	<line class="st4" x1="581.9" y1="261" x2="581.9" y2="237"/>
</g>
<g id="ID000111">
	<line class="st4" x1="602" y1="261" x2="602" y2="237"/>
</g>
<g id="ID000113">
	<g transform="translate(930.374,372.038)">
		<g transform="rotate(-0.0)">
			<text transform="matrix(1 0 0 1 -295.0488 -94.0634)" class="st10 st1 st2">A</text>
		</g>
	</g>
</g>
<g id="ID000114">
	<g transform="translate(962.455,372.038)">
		<g transform="rotate(-0.0)">
			<text transform="matrix(1 0 0 1 -307.6738 -94.0634)" class="st10 st1 st2">C</text>
		</g>
	</g>
</g>
<g id="ID000115">
	<g transform="translate(994.536,372.038)">
		<g transform="rotate(-0.0)">
			<text transform="matrix(1 0 0 1 -319.202 -94.0634)" class="st10 st1 st2">A</text>
		</g>
	</g>
</g>
<g id="ID000116">
	<g transform="translate(1026.617,372.038)">
		<g transform="rotate(-0.0)">
			<text transform="matrix(1 0 0 1 -331.8289 -94.0634)" class="st0 st1 st2">C</text>
		</g>
	</g>
</g>
<g id="ID000117">
	<g transform="translate(1058.698,372.038)">
		<g transform="rotate(-0.0)">
			<text transform="matrix(1 0 0 1 -343.9041 -94.0634)" class="st0 st1 st2">U</text>
		</g>
	</g>
</g>
<g id="ID000118">
	<g transform="translate(1090.779,372.038)">
		<g transform="rotate(-0.0)">
			<text transform="matrix(1 0 0 1 -355.9822 -94.0634)" class="st0 st1 st2">U</text>
		</g>
	</g>
</g>
<g id="ID000119">
	<line class="st4" x1="742" y1="282.4" x2="742" y2="295.7"/>
</g>
<g id="ID000120">
	<g transform="translate(1090.779,438.232)">
		<g transform="rotate(-0.0)">
			<text transform="matrix(1 0 0 1 -359.8748 -118.981)" class="st1 st2">60</text>
		</g>
	</g>
</g>
<g id="ID000121">
	<g transform="translate(1122.860,372.038)">
		<g transform="rotate(-0.0)">
			<text transform="matrix(1 0 0 1 -367.5084 -94.0634)" class="st0 st1 st2">A</text>
		</g>
	</g>
</g>
<g id="ID000122">
	<g transform="translate(1138.900,347.977)">
		<g transform="rotate(-0.0)">
			<text transform="matrix(1 0 0 1 -374.0992 -85.0034)" class="st0 st1 st2">U</text>
		</g>
	</g>
</g>
<g id="ID000123">
	<g transform="translate(1122.860,307.876)">
		<g transform="rotate(-0.0)">
			<text transform="matrix(1 0 0 1 -368.0573 -69.9082)" class="st0 st1 st2">U</text>
		</g>
	</g>
</g>
<g id="ID000124">
	<g transform="translate(1090.779,307.876)">
		<g transform="rotate(-0.0)">
			<text transform="matrix(1 0 0 1 -355.9822 -69.9082)" class="st0 st1 st2">U</text>
		</g>
	</g>
</g>
<g id="ID000125">
	<g transform="translate(1058.698,307.876)">
		<g transform="rotate(-0.0)">
			<text transform="matrix(1 0 0 1 -343.3533 -69.9082)" class="st0 st1 st2">A</text>
		</g>
	</g>
</g>
<g id="ID000126">
	<g transform="translate(1026.617,307.876)">
		<g transform="rotate(-0.0)">
			<text transform="matrix(1 0 0 1 -331.2771 -69.9082)" class="st0 st1 st2">A</text>
		</g>
	</g>
</g>
<g id="ID000127">
	<g transform="translate(994.536,307.876)">
		<g transform="rotate(-0.0)">
			<text transform="matrix(1 0 0 1 -319.7518 -69.9082)" class="st10 st1 st2">U</text>
		</g>
	</g>
</g>
<g id="ID000128">
	<g transform="translate(962.455,307.876)">
		<g transform="rotate(-0.0)">
			<text transform="matrix(1 0 0 1 -308.2294 -69.9082)" class="st10 st1 st2">G</text>
		</g>
	</g>
</g>
<g id="ID000129">
	<g transform="translate(930.374,307.876)">
		<g transform="rotate(-0.0)">
			<text transform="matrix(1 0 0 1 -295.5967 -69.9082)" class="st10 st1 st2">U</text>
		</g>
	</g>
</g>
<g id="ID000130">
	<line class="st4" x1="642" y1="261" x2="642" y2="237"/>
</g>
<g id="ID000131">
	<line class="st4" x1="662" y1="261" x2="662" y2="237"/>
</g>
<g id="ID000132">
	<line class="st4" x1="682" y1="261" x2="682" y2="237"/>
</g>
<g id="ID000134">
	<g transform="translate(753.928,275.795)">
		<g transform="rotate(-0.0)">
			<text transform="matrix(1 0 0 1 -228.6243 -57.8302)" class="st11 st1 st2">A</text>
		</g>
	</g>
</g>
<g id="ID000135">
	<g transform="translate(753.928,243.714)">
		<g transform="rotate(-0.0)">
			<text transform="matrix(1 0 0 1 -229.1741 -45.755)" class="st11 st1 st2">C</text>
		</g>
	</g>
</g>
<g id="ID000136">
	<g transform="translate(753.928,211.633)">
		<g transform="rotate(-0.0)">
			<text transform="matrix(1 0 0 1 -229.7297 -33.6774)" class="st11 st1 st2">G</text>
		</g>
	</g>
</g>
<g id="ID000137">
	<g transform="translate(753.928,179.552)">
		<g transform="rotate(-0.0)">
			<text transform="matrix(1 0 0 1 -229.7297 -21.5999)" class="st11 st1 st2">G</text>
		</g>
	</g>
</g>
<g id="ID000138">
	<g transform="translate(753.928,147.471)">
		<g transform="rotate(-0.0)">
			<text transform="matrix(1 0 0 1 -228.6243 -9.5223)" class="st0 st1 st2">A</text>
		</g>
	</g>
</g>
<g id="ID000139">
	<g transform="translate(753.928,115.389)">
		<g transform="rotate(-0.0)">
			<text transform="matrix(1 0 0 1 -229.1741 2.5544)" class="st0 st1 st2">C</text>
		</g>
	</g>
</g>
<g id="ID000140">
	<line class="st4" x1="545.3" y1="109" x2="558.6" y2="109"/>
</g>
<g id="ID000141">
	<g transform="translate(796.703,115.389)">
		<g transform="rotate(-0.0)">
			<text transform="matrix(1 0 0 1 -238.0731 2.5544)" class="st1 st2">80</text>
		</g>
	</g>
</g>
<g id="ID000142">
	<g transform="translate(753.928,83.308)">
		<g transform="rotate(-0.0)">
			<text transform="matrix(1 0 0 1 -229.1741 14.6319)" class="st0 st1 st2">C</text>
		</g>
	</g>
</g>
<g id="ID000143">
	<g transform="translate(753.928,51.227)">
		<g transform="rotate(-0.0)">
			<text transform="matrix(1 0 0 1 -229.1741 26.7076)" class="st0 st1 st2">U</text>
		</g>
	</g>
</g>
<g id="ID000144">
	<g transform="translate(721.847,35.187)">
		<g transform="rotate(-0.0)">
			<text transform="matrix(1 0 0 1 -216.5472 32.7446)" class="st0 st1 st2">A</text>
		</g>
	</g>
</g>
<g id="ID000145">
	<g transform="translate(689.766,51.227)">
		<g transform="rotate(-0.0)">
			<text transform="matrix(1 0 0 1 -205.0209 26.7076)" class="st0 st1 st2">C</text>
		</g>
	</g>
</g>
<g id="ID000146">
	<g transform="translate(689.766,83.308)">
		<g transform="rotate(-0.0)">
			<text transform="matrix(1 0 0 1 -205.5746 14.6319)" class="st0 st1 st2">G</text>
		</g>
	</g>
</g>
<g id="ID000147">
	<g transform="translate(689.766,115.389)">
		<g transform="rotate(-0.0)">
			<text transform="matrix(1 0 0 1 -204.4691 2.5544)" class="st0 st1 st2">A</text>
		</g>
	</g>
</g>
<g id="ID000148">
	<g transform="translate(689.766,147.471)">
		<g transform="rotate(-0.0)">
			<text transform="matrix(1 0 0 1 -204.4691 -9.5223)" class="st0 st1 st2">A</text>
		</g>
	</g>
</g>
<g id="ID000149">
	<g transform="translate(689.766,179.552)">
		<g transform="rotate(-0.0)">
			<text transform="matrix(1 0 0 1 -205.0209 -21.5999)" class="st11 st1 st2">C</text>
		</g>
	</g>
</g>
<g id="ID000150">
	<g transform="translate(689.766,211.633)">
		<g transform="rotate(-0.0)">
			<text transform="matrix(1 0 0 1 -205.0209 -33.6774)" class="st11 st1 st2">C</text>
		</g>
	</g>
</g>
<g id="ID000151">
	<g transform="translate(689.766,243.714)">
		<g transform="rotate(-0.0)">
			<text transform="matrix(1 0 0 1 -205.5746 -45.755)" class="st11 st1 st2">G</text>
		</g>
	</g>
</g>
<g id="ID000152">
	<line class="st4" x1="478.7" y1="188.9" x2="465.3" y2="188.9"/>
</g>
<g id="ID000153">
	<g transform="translate(646.991,243.714)">
		<g transform="rotate(-0.0)">
			<text transform="matrix(1 0 0 1 -203.908 -45.755)" class="st1 st2">90</text>
		</g>
	</g>
</g>
<g id="ID000154">
	<g transform="translate(689.766,275.795)">
		<g transform="rotate(-0.0)">
			<text transform="matrix(1 0 0 1 -205.0209 -57.8302)" class="st11 st1 st2">U</text>
		</g>
	</g>
</g>
<g id="ID000155">
	<line class="st4" x1="523.9" y1="209" x2="499.9" y2="209"/>
</g>
<g id="ID000156">
	<line class="st4" x1="523.9" y1="188.9" x2="499.9" y2="188.9"/>
</g>
<g id="ID000157">
	<line class="st4" x1="523.9" y1="169" x2="499.9" y2="169"/>
</g>
<g id="ID000158">
	<line class="st4" x1="523.9" y1="149" x2="499.9" y2="149"/>
</g>
<text transform="matrix(1 0 0 1 22.0077 35.1461)" class="st1 st12">J18  Aptamer</text>
<text transform="matrix(1 0 0 1 141.2505 81.1001)" class="st1 st13">5’</text>
<text transform="matrix(1 0 0 1 228.8516 222.5801)" class="st1 st13">3’</text>
</svg>
