<?xml version="1.0" encoding="utf-8"?>
<!-- Generator: Adobe Illustrator 25.2.0, SVG Export Plug-In . SVG Version: 6.00 Build 0)  -->
<svg version="1.1" id="图层_1" xmlns="http://www.w3.org/2000/svg" xmlns:xlink="http://www.w3.org/1999/xlink" x="0px" y="0px"
	 viewBox="0 0 800 400" style="enable-background:new 0 0 800 400;" xml:space="preserve">
<style type="text/css">
	.st0{font-family:'MicrosoftYaHei';}
	.st1{font-size:20px;}
	.st2{fill:#FF99CC;}
	.st3{font-size:24.6696px;}
	.st4{fill:#9999FF;}
	.st5{fill:#33CC33;}
	.st6{fill:none;stroke:#000000;stroke-width:0.25;stroke-miterlimit:10;}
	.st7{fill:#FF8001;}
	.st8{fill:#9999FF;stroke:#000000;stroke-width:0.25;stroke-miterlimit:10;}
	.st9{font-family:'ArialMT';}
</style>
<text transform="matrix(1 0 0 1 15.3156 36.4141)" class="st0 st1">K61 aptamer</text>
<text transform="matrix(1 0 0 1 382.7084 217.4023)" class="st2 st0 st3">C</text>
<text transform="matrix(1 0 0 1 442.5219 268.9365)" class="st4 st0 st3">G</text>
<text transform="matrix(1 0 0 1 488.602 281.7148)" class="st5 st0 st3">U</text>
<text transform="matrix(1 0 0 1 350.2191 217.4023)" class="st2 st0 st3">U</text>
<text transform="matrix(1 0 0 1 168.1351 212.6143)" class="st2 st0 st3">G</text>
<line class="st6" x1="343.7" y1="194.8" x2="343.7" y2="163.1"/>
<text transform="matrix(1 0 0 1 345.2231 101.7637)" class="st0 st1">10</text>
<text transform="matrix(1 0 0 1 118.2777 212.6143)" class="st2 st0 st3">G</text>
<text transform="matrix(1 0 0 1 151.7055 212.6885)" class="st2 st0 st3">G</text>
<text transform="matrix(1 0 0 1 442.5219 352.2627)" class="st4 st0 st3">G</text>
<text transform="matrix(1 0 0 1 644.1576 157.5234)" class="st7 st0 st3">G</text>
<text transform="matrix(1 0 0 1 307.2475 157.1816)" class="st2 st0 st3">G</text>
<text transform="matrix(1 0 0 1 277.3598 157.1816)" class="st2 st0 st3">G</text>
<text transform="matrix(1 0 0 1 247.4848 157.7988)" class="st2 st0 st3">G</text>
<text transform="matrix(1 0 0 1 231.7455 157.4902)" class="st2 st0 st3">G</text>
<text transform="matrix(1 0 0 1 215.2299 157.1816)" class="st2 st0 st3">G</text>
<text transform="matrix(1 0 0 1 135.2133 212.6143)" class="st2 st0 st3">A</text>
<text transform="matrix(1 0 0 1 185.7494 212.6143)" class="st2 st0 st3">A</text>
<text transform="matrix(1 0 0 1 487.3637 238.6914)" class="st5 st0 st3">A</text>
<text transform="matrix(1 0 0 1 648.4994 226.7588)" class="st7 st0 st3">A</text>
<text transform="matrix(1 0 0 1 323.6205 138.21)" class="st2 st0 st3">A</text>
<text transform="matrix(1 0 0 1 293.8754 157.1816)" class="st2 st0 st3">A</text>
<text transform="matrix(1 0 0 1 263.9887 157.1816)" class="st2 st0 st3">A</text>
<text transform="matrix(1 0 0 1 395.2807 249.4346)" class="st4 st0 st3">C</text>
<text transform="matrix(1 0 0 1 395.3051 269.6396)" class="st4 st0 st3">C</text>
<text transform="matrix(1 0 0 1 442.5229 309.9258)" class="st4 st0 st3">C</text>
<text transform="matrix(1 0 0 1 442.5229 289.9678)" class="st4 st0 st3">C</text>
<text transform="matrix(1 0 0 1 459.3451 219.8701)" class="st5 st0 st3">C</text>
<text transform="matrix(1 0 0 1 472.1859 219.8701)" class="st5 st0 st3">C</text>
<text transform="matrix(1 0 0 1 548.7484 164.5664)" class="st5 st0 st3">C</text>
<text transform="matrix(1 0 0 1 335.0346 159.6768)" class="st2 st0 st3">C</text>
<text transform="matrix(1 0 0 1 367.2904 159.3799)" class="st2 st0 st3">A</text>
<text transform="matrix(1 0 0 1 488.7387 219.8701)" class="st5 st0 st3">A</text>
<text transform="matrix(1 0 0 1 580.5844 223.0332)" class="st5 st0 st3">A</text>
<text transform="matrix(1 0 0 1 350.2191 159.9844)" class="st2 st0 st3">A</text>
<text transform="matrix(1 0 0 1 442.5229 248.9668)" class="st4 st0 st3">G</text>
<text transform="matrix(1 0 0 1 548.8842 223.0332)" class="st5 st0 st3">G</text>
<text transform="matrix(1 0 0 1 596.8158 223.0332)" class="st5 st0 st3">G</text>
<text transform="matrix(1 0 0 1 563.932 164.5654)" class="st5 st0 st3">G</text>
<text transform="matrix(1 0 0 1 532.2318 164.5664)" class="st5 st0 st3">G</text>
<text transform="matrix(1 0 0 1 472.0873 160.9219)" class="st5 st0 st3">G</text>
<text transform="matrix(1 0 0 1 456.8041 160.6133)" class="st5 st0 st3">G</text>
<text transform="matrix(1 0 0 1 442.1869 160.293)" class="st5 st0 st3">G</text>
<text transform="matrix(1 0 0 1 380.8832 159.9717)" class="st2 st0 st3">G</text>
<text transform="matrix(1 0 0 1 542.8148 260.457)" class="st5 st0 st3">C</text>
<text transform="matrix(1 0 0 1 657.183 177.4688)" class="st7 st0 st3">C</text>
<text transform="matrix(1 0 0 1 511.4652 156.9062)" class="st5 st0 st3">C</text>
<text transform="matrix(1 0 0 1 397.3881 151.7324)" class="st5 st0 st3">C</text>
<text transform="matrix(1 0 0 1 479.9994 260.457)" class="st5 st0 st3">U</text>
<text transform="matrix(1 0 0 1 534.5472 243.1641)" class="st5 st0 st3">U</text>
<text transform="matrix(1 0 0 1 613.3324 232.0127)" class="st7 st0 st3">U</text>
<text transform="matrix(1 0 0 1 630.1088 238.3779)" class="st7 st0 st3">U</text>
<text transform="matrix(1 0 0 1 657.1586 202.5078)" class="st7 st0 st3">U</text>
<text transform="matrix(1 0 0 1 627.9252 149.4316)" class="st7 st0 st3">U</text>
<text transform="matrix(1 0 0 1 611.6801 156.9062)" class="st7 st0 st3">U</text>
<text transform="matrix(1 0 0 1 427.5707 152.0527)" class="st5 st0 st3">U</text>
<text transform="matrix(1 0 0 1 411.3383 148.0322)" class="st5 st0 st3">U</text>
<text transform="matrix(1 0 0 1 367.2904 217.4023)" class="st2 st0 st3">U</text>
<text transform="matrix(1 0 0 1 442.5229 329.9199)" class="st4 st0 st3">U</text>
<text transform="matrix(1 0 0 1 443.3969 219.0557)" class="st5 st0 st3">U</text>
<text transform="matrix(1 0 0 1 532.3676 223.0332)" class="st5 st0 st3">U</text>
<text transform="matrix(1 0 0 1 564.0677 223.0332)" class="st5 st0 st3">U</text>
<text transform="matrix(1 0 0 1 596.681 164.5654)" class="st5 st0 st3">U</text>
<text transform="matrix(1 0 0 1 580.4476 164.5654)" class="st5 st0 st3">U</text>
<text transform="matrix(1 0 0 1 487.3705 162.1426)" class="st5 st0 st3">U</text>
<text transform="matrix(1 0 0 1 102.0326 212.6143)" class="st2 st0 st3">U</text>
<text transform="matrix(1 0 0 1 200.7484 212.6143)" class="st2 st0 st3">U</text>
<text transform="matrix(1 0 0 1 377.7016 241.3623)" class="st4 st0 st3">U</text>
<text transform="matrix(1 0 0 1 393.9389 355.7041)" class="st4 st0 st3">U</text>
<text transform="matrix(1 0 0 1 411.8197 374.6768)" class="st4 st0 st3">U</text>
<text transform="matrix(1 0 0 1 434.6772 374.9902)" class="st4 st0 st3">U</text>
<text transform="matrix(1 0 0 1 534.5463 286.2354)" class="st5 st0 st3">U</text>
<text transform="matrix(1 0 0 1 508.144 290.2812)" class="st5 st0 st3">U</text>
<text transform="matrix(1 0 0 1 335.0346 215.7871)" class="st2 st0 st3">G</text>
<text transform="matrix(1 0 0 1 395.3051 289.7451)" class="st4 st0 st3">G</text>
<text transform="matrix(1 0 0 1 396.5131 309.4941)" class="st4 st0 st3">G</text>
<text transform="matrix(1 0 0 1 395.3051 329.6982)" class="st4 st0 st3">G</text>
<text transform="matrix(1 0 0 1 216.4379 212.6143)" class="st2 st0 st3">C</text>
<text transform="matrix(1 0 0 1 232.9789 212.6143)" class="st2 st0 st3">C</text>
<text transform="matrix(1 0 0 1 278.5688 213.293)" class="st2 st0 st3">C</text>
<text transform="matrix(1 0 0 1 308.4438 213.6143)" class="st2 st0 st3">C</text>
<text transform="matrix(1 0 0 1 248.2621 213.293)" class="st2 st0 st3">U</text>
<text transform="matrix(1 0 0 1 262.7553 213.9961)" class="st2 st0 st3">U</text>
<text transform="matrix(1 0 0 1 292.1371 213.9219)" class="st2 st0 st3">U</text>
<line class="st6" x1="468" y1="198.6" x2="468" y2="166.9"/>
<line class="st6" x1="316.8" y1="192.5" x2="316.8" y2="160.7"/>
<line class="st6" x1="302.1" y1="192.3" x2="302.1" y2="160.6"/>
<line class="st6" x1="287.7" y1="192.3" x2="287.7" y2="160.6"/>
<line class="st6" x1="272" y1="192.3" x2="272" y2="160.6"/>
<line class="st6" x1="257.7" y1="192.3" x2="257.7" y2="160.6"/>
<line class="st6" x1="241.9" y1="192.3" x2="241.9" y2="160.6"/>
<line class="st6" x1="224.9" y1="192.3" x2="224.9" y2="160.6"/>
<line class="st6" x1="412.9" y1="322.1" x2="444.7" y2="322.1"/>
<line class="st6" x1="412.9" y1="301.9" x2="444.7" y2="301.9"/>
<line class="st6" x1="411.7" y1="281.7" x2="443.5" y2="281.7"/>
<line class="st8" x1="410.5" y1="261.5" x2="442.2" y2="261.5"/>
<line class="st8" x1="410.5" y1="241.3" x2="442.2" y2="241.3"/>
<line class="st6" x1="390.9" y1="194.8" x2="390.9" y2="163.1"/>
<line class="st6" x1="377.7" y1="194.8" x2="377.7" y2="163.1"/>
<line class="st6" x1="358.9" y1="194.8" x2="358.9" y2="163.1"/>
<line class="st6" x1="589.3" y1="200.8" x2="589.3" y2="169"/>
<line class="st6" x1="574.3" y1="201.1" x2="574.3" y2="169.3"/>
<line class="st6" x1="558" y1="201.1" x2="558" y2="169.3"/>
<line class="st6" x1="542.8" y1="201.1" x2="542.8" y2="169.3"/>
<line class="st6" x1="496.4" y1="198.9" x2="496.4" y2="167.2"/>
<line class="st6" x1="482.3" y1="198.9" x2="482.3" y2="167.2"/>
<text transform="matrix(1 0 0 1 287.684 265.2959)" class="st0 st1">70</text>
<text transform="matrix(1 0 0 1 705.2767 203.0137)" class="st0 st1">30</text>
<line class="st6" x1="302.1" y1="247" x2="302.1" y2="215.2"/>
<line class="st6" x1="707.1" y1="193.4" x2="675.3" y2="193.4"/>
<line class="st6" x1="358.9" y1="136.1" x2="358.9" y2="104.3"/>
<line class="st6" x1="452.3" y1="199.8" x2="452.3" y2="168"/>
<line class="st6" x1="605.5" y1="201.9" x2="605.5" y2="170.1"/>
<text transform="matrix(1 0 0 1 208.8521 129.374)" class="st9 st1">5’</text>
<text transform="matrix(1 0 0 1 92.7602 238.6914)" class="st9 st1">3’</text>
</svg>
