<?xml version="1.0" encoding="utf-8"?>
<!-- Generator: Adobe Illustrator 25.2.0, SVG Export Plug-In . SVG Version: 6.00 Build 0)  -->
<svg version="1.1" id="_图层_1" xmlns="http://www.w3.org/2000/svg" xmlns:xlink="http://www.w3.org/1999/xlink" x="0px" y="0px"
	 viewBox="0 0 800 400" style="enable-background:new 0 0 800 400;" xml:space="preserve">
<style type="text/css">
	.st0{fill:#FFC0CB;}
	.st1{fill:#FF6666;}
	.st2{fill:none;stroke:#000000;stroke-width:1.33;stroke-linejoin:round;}
	.st3{fill:#09FEFE;}
	.st4{fill:#32CD32;}
	.st5{fill:#FF870A;}
	.st6{font-family:'ArialMT';}
	.st7{font-size:23px;}
	.st8{letter-spacing:-2;}
	.st9{font-size:24px;}
	.st10{font-size:22px;}
</style>
<path class="st0" d="M153,325.9v-2h7v6.2c-1,0.8-2.1,1.5-3.3,2c-1.1,0.4-2.3,0.6-3.5,0.6c-1.5,0-3.1-0.3-4.4-1c-1.3-0.7-2.3-1.7-3-3
	c-0.7-1.4-1-2.9-1-4.4c0-1.6,0.3-3.1,1-4.5c0.6-1.3,1.6-2.4,2.9-3.1c1.4-0.7,2.9-1,4.4-1c1.1,0,2.2,0.2,3.3,0.6
	c0.9,0.3,1.7,0.9,2.3,1.6c0.6,0.8,1,1.7,1.3,2.7l-2,0.5c-0.2-0.7-0.5-1.4-0.9-2c-0.4-0.5-1-0.9-1.6-1.2c-0.7-0.3-1.5-0.4-2.3-0.4
	c-0.9,0-1.8,0.1-2.6,0.5c-0.7,0.3-1.3,0.7-1.8,1.2c-0.4,0.5-0.8,1-1.1,1.6c-0.4,1.1-0.6,2.2-0.6,3.4c-0.1,1.3,0.2,2.6,0.8,3.7
	c0.5,1,1.3,1.8,2.2,2.2c1,0.5,2,0.7,3.1,0.7c1,0,1.9-0.2,2.8-0.5c0.8-0.3,1.5-0.7,2.1-1.2v-3.1L153,325.9L153,325.9L153,325.9z"/>
<path class="st1" d="M153.1,307v-2h7v6.2c-1,0.8-2.1,1.5-3.3,2c-1.1,0.4-2.3,0.7-3.5,0.7c-1.6,0-3.1-0.3-4.4-1c-1.3-0.7-2.3-1.7-3-3
	c-0.7-1.4-1-2.9-1-4.4c0-1.6,0.3-3.1,1-4.5c0.6-1.3,1.6-2.4,2.9-3.1c1.4-0.7,2.9-1,4.4-1c1.1,0,2.2,0.2,3.3,0.6
	c0.9,0.3,1.7,0.9,2.3,1.6c0.6,0.8,1,1.7,1.3,2.7l-2,0.5c-0.2-0.7-0.5-1.4-0.9-2c-0.4-0.5-1-0.9-1.6-1.2c-0.7-0.3-1.5-0.5-2.3-0.4
	c-0.9,0-1.8,0.1-2.6,0.5c-0.7,0.3-1.3,0.7-1.8,1.2c-0.4,0.5-0.8,1-1.1,1.6c-0.4,1.1-0.6,2.2-0.6,3.3c0,1.3,0.2,2.6,0.8,3.7
	c0.5,1,1.3,1.7,2.2,2.2c1,0.5,2,0.7,3.1,0.7c1,0,1.9-0.2,2.8-0.6c0.8-0.3,1.4-0.7,2.1-1.2v-3.1L153.1,307L153.1,307L153.1,307z"/>
<path class="st1" d="M132.1,308.2v-2h7v6.2c-1,0.8-2.1,1.5-3.4,2c-1.1,0.4-2.3,0.6-3.5,0.6c-1.6,0-3.1-0.3-4.4-1
	c-1.3-0.7-2.3-1.7-3-3c-0.7-1.4-1-2.9-1-4.4c0-1.6,0.3-3.1,1-4.5c0.6-1.3,1.6-2.4,2.9-3.1c1.4-0.7,2.9-1,4.4-1
	c1.1,0,2.2,0.2,3.3,0.6c0.9,0.3,1.7,0.9,2.3,1.6c0.6,0.8,1,1.7,1.3,2.7l-2,0.5c-0.2-0.7-0.5-1.4-0.9-2c-0.4-0.5-1-0.9-1.6-1.2
	c-0.7-0.3-1.5-0.4-2.3-0.4c-0.9,0-1.8,0.1-2.6,0.5c-0.7,0.3-1.3,0.7-1.8,1.2c-0.4,0.5-0.8,1-1,1.6c-0.4,1.1-0.7,2.2-0.6,3.4
	c0,1.3,0.2,2.6,0.8,3.7c0.5,1,1.3,1.8,2.2,2.2c1,0.5,2,0.7,3.1,0.7c0.9,0,1.9-0.2,2.8-0.5c0.8-0.3,1.4-0.7,2.1-1.2v-3.1L132.1,308.2
	L132.1,308.2L132.1,308.2z"/>
<path class="st1" d="M105.9,314.6l6.4-16.6h2.4l6.8,16.6h-2.5l-1.9-5h-7l-1.8,5L105.9,314.6z M110.7,307.8h5.6l-1.7-4.6
	c-0.5-1.4-0.9-2.5-1.2-3.5c-0.2,1.1-0.5,2.1-0.9,3.2L110.7,307.8L110.7,307.8L110.7,307.8z"/>
<path class="st1" d="M86.6,316.6l6.4-16.6h2.4l6.8,16.6h-2.5l-1.9-5h-6.9l-1.8,5H86.6z M91.4,309.7h5.6l-1.7-4.6
	c-0.5-1.4-0.9-2.5-1.2-3.4c-0.2,1.1-0.5,2.1-0.9,3.2L91.4,309.7z"/>
<path class="st1" d="M79.5,291.7h2.2v9.6c0.1,1.4-0.1,2.7-0.6,4c-0.4,1-1.1,1.8-2,2.4c-1.2,0.7-2.5,1-3.9,0.9
	c-1.3,0.1-2.6-0.2-3.8-0.8c-0.9-0.5-1.7-1.3-2.1-2.3c-0.5-1.3-0.7-2.8-0.6-4.2v-9.6H71v9.6c-0.1,1.1,0.1,2.2,0.4,3.2
	c0.3,0.6,0.7,1.2,1.3,1.5c0.7,0.4,1.6,0.6,2.4,0.6c1.2,0.1,2.5-0.3,3.4-1.1c0.7-0.7,1-2.1,1-4.2L79.5,291.7L79.5,291.7L79.5,291.7z"
	/>
<path class="st1" d="M77.6,275.7v-2h7v6.2c-1,0.8-2.1,1.5-3.3,2c-1.1,0.4-2.3,0.7-3.5,0.7c-1.6,0-3.1-0.3-4.4-1
	c-1.3-0.7-2.3-1.7-3-3c-0.7-1.4-1-2.9-1-4.4c0-1.6,0.3-3.1,1-4.5c0.6-1.3,1.6-2.4,2.9-3.1c1.3-0.7,2.9-1,4.4-1
	c1.1,0,2.2,0.2,3.3,0.6c0.9,0.3,1.7,0.9,2.3,1.6c0.6,0.8,1,1.7,1.3,2.7l-2,0.5c-0.2-0.7-0.5-1.4-0.9-2c-0.4-0.5-1-0.9-1.6-1.2
	c-0.7-0.3-1.5-0.5-2.3-0.4c-0.9,0-1.8,0.1-2.6,0.5c-0.7,0.3-1.3,0.7-1.8,1.2c-0.4,0.5-0.8,1-1,1.6c-0.4,1.1-0.6,2.2-0.6,3.3
	c-0.1,1.3,0.2,2.6,0.8,3.7c0.5,1,1.3,1.7,2.2,2.2c1,0.5,2,0.7,3.1,0.7c1,0,1.9-0.2,2.8-0.5c0.8-0.3,1.4-0.7,2.1-1.2v-3.1L77.6,275.7
	L77.6,275.7L77.6,275.7z"/>
<path class="st1" d="M97.3,270.3v-2h7v6.2c-1,0.8-2.1,1.5-3.3,2c-1.1,0.4-2.3,0.6-3.5,0.6c-1.5,0-3.1-0.4-4.4-1
	c-1.3-0.7-2.3-1.7-3-3c-0.7-1.4-1-2.9-1-4.4c0-1.6,0.3-3.1,1-4.6c0.6-1.3,1.6-2.4,2.9-3.1c1.4-0.7,2.9-1,4.4-1
	c1.1,0,2.2,0.2,3.3,0.6c0.9,0.3,1.7,0.9,2.3,1.6c0.6,0.8,1,1.7,1.3,2.7l-2,0.5c-0.2-0.7-0.5-1.4-0.9-2c-0.4-0.5-1-0.9-1.6-1.2
	c-0.7-0.3-1.5-0.4-2.3-0.4c-0.9,0-1.8,0.1-2.6,0.5c-0.7,0.3-1.3,0.7-1.8,1.2c-0.4,0.5-0.8,1-1,1.6c-0.4,1.1-0.6,2.2-0.6,3.4
	c-0.1,1.3,0.2,2.6,0.8,3.7c0.5,1,1.3,1.8,2.2,2.2c1,0.5,2,0.7,3.1,0.7c1.8,0,3.5-0.6,4.9-1.7v-3.1L97.3,270.3L97.3,270.3z"/>
<path class="st1" d="M106.4,279.3l6.4-16.6h2.4l6.8,16.6h-2.5l-1.9-5h-7l-1.8,5H106.4z M111.2,272.5h5.6l-1.7-4.6
	c-0.5-1.4-0.9-2.5-1.2-3.4c-0.2,1.1-0.5,2.1-0.9,3.2L111.2,272.5z"/>
<path class="st1" d="M135.8,260.2h2.2v9.6c0.1,1.4-0.1,2.7-0.6,4c-0.4,1-1.1,1.9-2.1,2.4c-1.2,0.7-2.5,1-3.9,0.9
	c-1.3,0-2.6-0.2-3.8-0.8c-1-0.5-1.7-1.3-2.1-2.3c-0.5-1.3-0.7-2.8-0.6-4.2v-9.6h2.2v9.6c-0.1,1.1,0.1,2.2,0.4,3.2
	c0.3,0.7,0.8,1.2,1.4,1.6c0.7,0.4,1.6,0.6,2.4,0.6c1.2,0.1,2.5-0.3,3.4-1.1c0.7-0.7,1-2.1,1-4.2L135.8,260.2L135.8,260.2
	L135.8,260.2z"/>
<line class="st2" x1="123.6" y1="259.4" x2="115.3" y2="251.2"/>
<path d="M97.4,245.4h-2v-13c-0.6,0.5-1.2,1-1.9,1.4c-0.7,0.4-1.4,0.8-2.2,1.1v-2c1.1-0.5,2.1-1.2,3-2c0.7-0.6,1.4-1.4,1.8-2.2h1.3
	L97.4,245.4z M102.7,237.2c-0.1-1.6,0.2-3.2,0.6-4.8c0.3-1.1,0.9-2,1.8-2.8c0.8-0.7,1.9-1,3-1c0.8,0,1.6,0.2,2.3,0.5
	c0.7,0.4,1.3,0.9,1.7,1.6c0.5,0.8,0.8,1.6,1,2.5c0.3,1.3,0.4,2.6,0.4,3.9c0.1,1.6-0.2,3.2-0.6,4.7c-0.3,1.1-0.9,2-1.8,2.8
	c-2.1,1.6-5.1,1.2-6.8-0.7C103.3,242.6,102.7,240.3,102.7,237.2L102.7,237.2L102.7,237.2z M104.8,237.2c0,2.7,0.3,4.5,1,5.4
	c0.8,1.3,2.4,1.8,3.7,1c0.4-0.2,0.8-0.6,1-1c0.7-0.9,1-2.7,1-5.4s-0.3-4.5-1-5.4c-0.5-0.8-1.4-1.4-2.4-1.4c-0.9,0-1.8,0.4-2.2,1.2
	C105.2,232.6,104.8,234.5,104.8,237.2z"/>
<path class="st1" d="M156.2,271l2.2,0.6c-0.3,1.6-1.2,3.1-2.5,4.1c-1.3,1-2.8,1.5-4.4,1.4c-1.5,0.1-3.1-0.3-4.4-1.1
	c-1.2-0.8-2.1-1.9-2.6-3.2c-0.6-1.4-0.9-2.9-0.9-4.5c0-1.6,0.3-3.1,1-4.5c0.6-1.2,1.6-2.3,2.8-2.9c1.2-0.7,2.6-1,4-1
	c1.5,0,3,0.4,4.2,1.3c1.2,0.9,2,2.1,2.4,3.6l-2.2,0.5c-0.3-1-0.9-2-1.7-2.6c-0.8-0.6-1.8-0.9-2.8-0.8c-1.1,0-2.3,0.3-3.2,0.9
	c-0.9,0.6-1.5,1.5-1.8,2.5c-0.4,1-0.5,2.1-0.5,3.2c0,1.3,0.2,2.5,0.6,3.7c0.4,1,1,1.8,1.9,2.4c0.9,0.5,1.8,0.8,2.8,0.8
	c1.1,0,2.2-0.3,3.1-1.1C155.4,273.4,156,272.2,156.2,271L156.2,271L156.2,271z"/>
<path class="st1" d="M154.2,249.1l2.2,0.6c-0.3,1.6-1.2,3.1-2.5,4.1c-1.3,1-2.8,1.5-4.4,1.4c-1.5,0.1-3.1-0.3-4.4-1.1
	c-1.2-0.8-2.1-1.9-2.6-3.2c-0.6-1.4-0.9-2.9-0.9-4.5c0-1.6,0.3-3.1,1-4.5c0.6-1.2,1.6-2.3,2.8-2.9c1.2-0.7,2.6-1,4-1
	c1.5-0.1,3,0.4,4.2,1.3c1.2,0.9,2,2.1,2.4,3.6l-2.2,0.5c-0.3-1-0.9-2-1.7-2.6c-0.8-0.6-1.8-0.9-2.8-0.8c-1.1,0-2.3,0.3-3.2,0.9
	c-0.9,0.6-1.5,1.5-1.8,2.5c-0.4,1-0.5,2.1-0.5,3.2c0,1.3,0.2,2.5,0.6,3.7c0.4,1,1,1.8,1.9,2.4c0.9,0.5,1.8,0.8,2.8,0.8
	c1.1,0,2.2-0.3,3.1-1.1C153.4,251.5,154,250.3,154.2,249.1L154.2,249.1L154.2,249.1z"/>
<path class="st1" d="M128.3,233.1l6.4-16.6h2.4l6.8,16.6h-2.5l-1.9-5h-6.9l-1.8,5H128.3z M133.1,226.3h5.6l-1.7-4.6
	c-0.5-1.4-0.9-2.6-1.2-3.4c-0.2,1.1-0.5,2.1-0.9,3.2L133.1,226.3L133.1,226.3L133.1,226.3z"/>
<path class="st1" d="M136.8,205.4l2.2,0.6c-0.3,1.6-1.2,3.1-2.5,4.1c-1.3,1-2.8,1.5-4.4,1.4c-1.5,0.1-3.1-0.3-4.4-1.1
	c-1.2-0.8-2.1-1.9-2.6-3.2c-0.6-1.4-0.9-2.9-0.9-4.5c0-1.6,0.3-3.1,1-4.5c0.6-1.2,1.6-2.3,2.8-2.9c1.2-0.7,2.6-1,4-1
	c1.5-0.1,3,0.4,4.2,1.3c1.2,0.9,2,2.1,2.4,3.6l-2.2,0.5c-0.3-1-0.9-2-1.7-2.6c-0.8-0.6-1.8-0.9-2.8-0.8c-1.1,0-2.3,0.3-3.2,0.9
	c-0.9,0.6-1.5,1.5-1.8,2.5c-0.3,1-0.5,2.1-0.5,3.2c0,1.3,0.2,2.5,0.6,3.7c0.4,1,1,1.8,1.9,2.4c0.9,0.5,1.8,0.8,2.8,0.8
	c1.1,0,2.2-0.3,3.1-1.1C136,207.8,136.6,206.6,136.8,205.4L136.8,205.4L136.8,205.4z"/>
<path class="st1" d="M124.3,189.4l6.4-16.6h2.4l6.8,16.6h-2.5l-1.9-5h-6.9l-1.8,5H124.3L124.3,189.4z M129.1,182.6h5.6L133,178
	c-0.5-1.4-0.9-2.6-1.2-3.4c-0.2,1.1-0.5,2.1-0.9,3.2L129.1,182.6L129.1,182.6L129.1,182.6z"/>
<path class="st1" d="M142.9,150.9h2.2v9.6c0.1,1.4-0.1,2.7-0.6,4c-0.4,1-1.1,1.8-2,2.4c-1.2,0.7-2.5,1-3.9,0.9
	c-1.3,0.1-2.6-0.2-3.8-0.8c-1-0.5-1.7-1.3-2.1-2.3c-0.5-1.3-0.7-2.8-0.6-4.2v-9.6h2.2v9.6c-0.1,1.1,0.1,2.2,0.4,3.2
	c0.3,0.7,0.8,1.2,1.4,1.6c0.7,0.4,1.6,0.6,2.4,0.6c1.2,0.1,2.5-0.3,3.4-1.1c0.7-0.7,1-2.1,1-4.2L142.9,150.9L142.9,150.9
	L142.9,150.9z"/>
<path class="st1" d="M154.6,140.9l2.2,0.6c-0.3,1.6-1.2,3.1-2.5,4.1c-1.3,1-2.8,1.5-4.4,1.4c-1.5,0.1-3.1-0.3-4.4-1.1
	c-1.2-0.8-2.1-1.9-2.6-3.2c-0.6-1.4-0.9-2.9-0.9-4.5c0-1.6,0.3-3.1,1-4.5c0.6-1.2,1.6-2.3,2.8-2.9c1.2-0.7,2.6-1,4-1
	c1.5-0.1,3,0.4,4.2,1.3c1.2,0.9,2,2.1,2.4,3.6l-2.2,0.5c-0.3-1-0.9-2-1.7-2.6c-0.8-0.6-1.8-0.9-2.8-0.8c-1.1,0-2.3,0.3-3.2,0.9
	c-0.9,0.6-1.5,1.5-1.8,2.5c-0.4,1-0.5,2.1-0.5,3.2c0,1.3,0.2,2.6,0.7,3.8c0.4,1,1,1.8,1.9,2.4c0.9,0.5,1.8,0.8,2.8,0.8
	c1.1,0,2.2-0.3,3.1-1.1C153.8,143.2,154.4,142.1,154.6,140.9L154.6,140.9L154.6,140.9z"/>
<path class="st1" d="M171.8,119.3h2.2v9.6c0.1,1.4-0.1,2.7-0.6,4c-0.4,1-1.1,1.8-2,2.4c-1.2,0.7-2.5,1-3.9,0.9
	c-1.3,0.1-2.6-0.2-3.8-0.8c-1-0.5-1.7-1.3-2.1-2.3c-0.5-1.3-0.7-2.8-0.6-4.2v-9.6h2.2v9.6c-0.1,1.1,0.1,2.2,0.4,3.2
	c0.2,0.7,0.7,1.2,1.4,1.6c0.7,0.4,1.6,0.6,2.4,0.6c1.2,0.1,2.5-0.3,3.4-1.1c0.7-0.7,1-2.1,1-4.2L171.8,119.3L171.8,119.3
	L171.8,119.3z"/>
<path class="st1" d="M179.7,129.6l6.4-16.6h2.4l6.8,16.6h-2.5l-1.9-5h-6.9l-1.8,5L179.7,129.6L179.7,129.6L179.7,129.6z
	 M184.5,122.8h5.6l-1.7-4.6c-0.5-1.4-0.9-2.6-1.2-3.4c-0.2,1.1-0.5,2.1-0.9,3.2C186.3,117.9,184.5,122.8,184.5,122.8z"/>
<path class="st1" d="M211.1,122.8l2.2,0.6c-0.3,1.6-1.2,3.1-2.5,4.1c-1.3,1-2.8,1.5-4.4,1.4c-1.5,0.1-3.1-0.3-4.4-1.1
	c-1.2-0.8-2.1-1.9-2.6-3.2c-0.6-1.4-0.9-2.9-0.9-4.5c0-1.6,0.3-3.1,1-4.5c0.6-1.2,1.6-2.3,2.8-2.9c1.2-0.7,2.6-1,4-1
	c1.5-0.1,3,0.4,4.2,1.3c1.2,0.9,2,2.2,2.4,3.6l-2.2,0.5c-0.3-1-0.9-2-1.7-2.6c-0.8-0.6-1.8-0.9-2.8-0.8c-1.1,0-2.3,0.3-3.2,0.9
	c-0.9,0.6-1.5,1.5-1.8,2.5c-0.4,1-0.5,2.1-0.5,3.2c0,1.3,0.2,2.5,0.6,3.7c0.4,1,1,1.8,1.9,2.4c0.9,0.5,1.8,0.8,2.8,0.8
	c1.1,0,2.2-0.3,3.1-1.1C210.2,125.1,210.8,124,211.1,122.8L211.1,122.8L211.1,122.8z"/>
<line class="st2" x1="206.1" y1="108.8" x2="206.1" y2="97.2"/>
<path d="M204.5,89.4v1.9h-11c0-0.5,0.1-1,0.2-1.4c0.3-0.8,0.8-1.6,1.4-2.2c0.8-0.9,1.7-1.8,2.7-2.5c1.4-1,2.6-2.2,3.7-3.5
	c0.6-0.7,0.9-1.6,1-2.4c0-0.8-0.3-1.5-0.9-2c-0.6-0.6-1.4-0.9-2.3-0.8c-0.9,0-1.7,0.3-2.4,0.9c-0.6,0.7-0.9,1.6-0.9,2.4l-2.1-0.2
	c0.1-1.4,0.6-2.6,1.6-3.6c1.1-0.9,2.4-1.3,3.8-1.2c1.4-0.1,2.7,0.4,3.7,1.3c0.9,0.8,1.4,2.1,1.4,3.3c0,0.7-0.1,1.4-0.4,2
	c-0.3,0.7-0.8,1.4-1.4,2c-1,1-2,2-3.1,2.9c-1.2,1-2,1.7-2.4,2.1c-0.3,0.3-0.6,0.7-0.9,1.1L204.5,89.4L204.5,89.4L204.5,89.4z
	 M206.7,83.2c-0.1-1.6,0.2-3.2,0.6-4.7c0.3-1.1,0.9-2,1.8-2.8c0.9-0.7,1.9-1,3-1c0.8,0,1.6,0.2,2.4,0.5c0.7,0.4,1.2,0.9,1.7,1.6
	c0.5,0.8,0.8,1.6,1,2.5c0.3,1.3,0.4,2.6,0.4,3.9c0.1,1.6-0.1,3.2-0.6,4.7c-0.3,1.1-0.9,2-1.8,2.8c-2.1,1.6-5.1,1.2-6.8-0.7
	C207.3,88.5,206.7,86.3,206.7,83.2z M208.8,83.2c0,2.7,0.3,4.5,1,5.4c0.8,1.3,2.4,1.8,3.7,1c0.4-0.2,0.8-0.6,1-1
	c0.6-0.9,1-2.7,1-5.4s-0.3-4.5-1-5.4c-0.5-0.8-1.4-1.3-2.4-1.3c-0.9,0-1.8,0.4-2.2,1.2C209.2,78.6,208.8,80.4,208.8,83.2L208.8,83.2
	L208.8,83.2z"/>
<path class="st1" d="M226.7,126.1v-2h7v6.2c-1,0.8-2.1,1.5-3.4,1.9c-1.1,0.4-2.3,0.6-3.5,0.6c-1.6,0-3.1-0.3-4.4-1.1
	c-1.3-0.7-2.3-1.7-3-3c-0.7-1.4-1-2.9-1-4.4c0-1.6,0.3-3.1,1-4.5c0.6-1.3,1.6-2.4,2.9-3.1c1.4-0.7,2.9-1,4.4-1
	c1.1,0,2.2,0.2,3.3,0.6c0.9,0.3,1.7,0.9,2.3,1.6c0.6,0.8,1,1.7,1.3,2.7l-2,0.5c-0.2-0.7-0.5-1.4-0.9-2c-0.4-0.5-1-0.9-1.6-1.2
	c-0.7-0.3-1.5-0.4-2.3-0.4c-0.9,0-1.8,0.1-2.6,0.4c-0.7,0.3-1.3,0.7-1.8,1.2c-0.4,0.5-0.8,1-1,1.6c-0.4,1.1-0.6,2.2-0.6,3.3
	c0,1.3,0.2,2.6,0.8,3.7c0.5,1,1.3,1.8,2.2,2.2c1,0.5,2,0.7,3.1,0.7c0.9,0,1.9-0.2,2.8-0.6c0.8-0.3,1.4-0.7,2.1-1.2v-3.1L226.7,126.1
	L226.7,126.1L226.7,126.1z"/>
<path class="st1" d="M237.5,141.3l6.4-16.6h2.4l6.8,16.6h-2.5l-1.9-5h-6.9l-1.8,5H237.5z M242.3,134.5h5.6l-1.7-4.6
	c-0.5-1.4-0.9-2.6-1.2-3.4c-0.2,1.1-0.5,2.1-0.9,3.2L242.3,134.5L242.3,134.5L242.3,134.5z"/>
<path class="st1" d="M246.2,158.8l6.4-16.6h2.4l6.8,16.6h-2.5l-1.9-5h-7l-1.8,5H246.2L246.2,158.8L246.2,158.8z M251.1,152h5.6
	l-1.7-4.6c-0.5-1.4-0.9-2.6-1.2-3.4c-0.2,1.1-0.5,2.1-0.9,3.2L251.1,152L251.1,152L251.1,152z"/>
<path class="st3" d="M275.6,150.9h2.2v9.6c0,1.4-0.1,2.7-0.6,4c-0.4,1-1.1,1.8-2,2.4c-1.2,0.7-2.5,1-3.9,0.9
	c-1.3,0.1-2.6-0.2-3.8-0.8c-1-0.5-1.7-1.3-2.1-2.3c-0.5-1.3-0.7-2.8-0.6-4.2v-9.6h2.2v9.6c0,1.1,0.1,2.2,0.4,3.2
	c0.3,0.7,0.8,1.2,1.4,1.6c0.7,0.4,1.6,0.6,2.4,0.6c1.3,0.1,2.5-0.3,3.5-1.1c0.7-0.7,1-2.1,1-4.2L275.6,150.9L275.6,150.9
	L275.6,150.9z"/>
<path class="st3" d="M293.1,150.9h2.2v9.6c0,1.4-0.1,2.7-0.6,4c-0.4,1-1.1,1.9-2,2.4c-1.2,0.7-2.5,1-3.9,0.9c-1.3,0-2.6-0.2-3.8-0.8
	c-1-0.5-1.7-1.3-2.1-2.3c-0.5-1.3-0.7-2.8-0.6-4.2v-9.6h2.2v9.6c0,1.1,0.1,2.2,0.4,3.2c0.3,0.7,0.8,1.2,1.4,1.6
	c0.7,0.4,1.6,0.6,2.4,0.6c1.3,0.1,2.5-0.3,3.5-1.1c0.7-0.7,1-2.1,1-4.2L293.1,150.9L293.1,150.9L293.1,150.9z"/>
<path class="st3" d="M311.6,161.7l2.2,0.6c-0.3,1.6-1.2,3.1-2.5,4.1c-1.3,1-2.8,1.5-4.4,1.4c-1.5,0.1-3-0.3-4.4-1.1
	c-1.2-0.8-2.1-1.9-2.6-3.2c-0.6-1.4-0.9-2.9-0.9-4.5c0-1.6,0.3-3.1,1-4.5c0.6-1.2,1.6-2.3,2.8-2.9c1.2-0.7,2.6-1,4-1
	c1.5-0.1,3,0.4,4.2,1.3c1.2,0.9,2,2.1,2.4,3.6l-2.2,0.5c-0.3-1-0.9-2-1.7-2.6c-0.8-0.6-1.8-0.9-2.8-0.8c-1.1,0-2.3,0.3-3.2,0.9
	c-0.9,0.6-1.5,1.5-1.8,2.5c-0.4,1-0.5,2.1-0.5,3.2c0,1.3,0.2,2.5,0.6,3.7c0.4,1,1,1.8,1.9,2.4c0.9,0.5,1.8,0.8,2.8,0.8
	c1.1,0,2.3-0.3,3.1-1.1C310.7,164.1,311.4,162.9,311.6,161.7L311.6,161.7L311.6,161.7z"/>
<path class="st3" d="M317.2,147.5l6.4-16.6h2.4l6.8,16.6h-2.5l-1.9-5h-7l-1.8,5H317.2z M322,140.7h5.6l-1.7-4.6
	c-0.5-1.4-0.9-2.6-1.2-3.4c-0.2,1.1-0.5,2.1-0.9,3.2L322,140.7z"/>
<path class="st3" d="M327.6,205l2.2,0.6c-0.3,1.6-1.2,3.1-2.5,4.1c-1.3,1-2.8,1.5-4.4,1.4c-1.5,0.1-3-0.3-4.4-1.1
	c-1.1-0.8-2-1.9-2.6-3.2c-0.6-1.4-0.9-2.9-0.9-4.5c0-1.6,0.3-3.1,1-4.5c0.6-1.3,1.6-2.3,2.8-3c1.2-0.7,2.6-1,4-1
	c1.5-0.1,3,0.4,4.2,1.3c1.2,0.9,2,2.1,2.4,3.6l-2.2,0.5c-0.3-1-0.9-2-1.7-2.6c-0.8-0.6-1.8-0.9-2.8-0.8c-1.1,0-2.3,0.3-3.2,0.9
	c-0.9,0.6-1.5,1.5-1.8,2.5c-0.4,1-0.5,2.1-0.5,3.2c0,1.3,0.2,2.5,0.6,3.7c0.4,1,1,1.8,1.9,2.4c0.9,0.5,1.8,0.8,2.8,0.8
	c1.1,0,2.3-0.4,3.1-1.1C326.8,207.3,327.4,206.2,327.6,205L327.6,205L327.6,205z"/>
<path class="st3" d="M307.1,197v-2h7v6.2c-1,0.8-2.1,1.5-3.4,1.9c-1.1,0.4-2.3,0.6-3.5,0.6c-1.5,0-3.1-0.3-4.5-1
	c-1.3-0.7-2.3-1.7-3-3c-0.7-1.4-1-2.9-1-4.4c0-1.6,0.3-3.1,1-4.5c0.6-1.3,1.6-2.4,2.9-3.1c1.4-0.7,2.9-1,4.4-1
	c1.1,0,2.2,0.2,3.3,0.6c0.9,0.3,1.7,0.9,2.3,1.6c0.6,0.8,1,1.7,1.3,2.7l-2,0.6c-0.2-0.7-0.5-1.4-0.9-2c-0.4-0.5-1-0.9-1.6-1.2
	c-0.7-0.3-1.5-0.4-2.3-0.4c-0.9,0-1.8,0.1-2.6,0.4c-0.7,0.3-1.3,0.7-1.8,1.2c-0.4,0.5-0.8,1-1,1.6c-0.4,1.1-0.6,2.2-0.6,3.4
	c0,1.3,0.2,2.6,0.8,3.7c0.5,1,1.3,1.7,2.2,2.2c1,0.5,2,0.7,3.1,0.7c1,0,1.9-0.2,2.8-0.6c0.8-0.3,1.5-0.7,2.1-1.2V197L307.1,197
	L307.1,197z"/>
<path class="st3" d="M281.2,202.5l6.4-16.6h2.4l6.8,16.6h-2.5l-1.9-5h-7l-1.8,5H281.2z M286,195.7h5.6l-1.7-4.6
	c-0.5-1.4-0.9-2.6-1.2-3.4c-0.2,1.1-0.5,2.1-0.9,3.2L286,195.7L286,195.7L286,195.7z"/>
<path class="st3" d="M263.7,204.2l6.4-16.6h2.4l6.8,16.6h-2.5l-1.9-5h-7l-1.8,5H263.7z M268.5,197.3h5.6l-1.7-4.6
	c-0.5-1.4-0.9-2.6-1.2-3.4c-0.2,1.1-0.5,2.1-0.9,3.2L268.5,197.3z"/>
<path class="st3" d="M271.8,218.4v-1.7h7v5.5c-1,0.7-2.1,1.3-3.3,1.7c-1.1,0.4-2.3,0.6-3.5,0.6c-1.5,0-3.1-0.3-4.5-0.9
	c-1.3-0.6-2.3-1.5-3-2.7c-0.7-1.2-1-2.6-1-4c0-1.4,0.3-2.8,1-4c0.6-1.2,1.7-2.2,2.9-2.8c1.4-0.6,2.9-0.9,4.4-0.9
	c1.1,0,2.2,0.2,3.3,0.5c0.9,0.3,1.6,0.8,2.3,1.4c0.6,0.7,1,1.5,1.3,2.4l-2,0.5c-0.2-0.6-0.5-1.2-0.9-1.8c-0.4-0.5-1-0.8-1.6-1
	c-0.7-0.3-1.5-0.4-2.3-0.4c-0.9,0-1.8,0.1-2.6,0.4c-0.7,0.2-1.3,0.6-1.8,1.1c-0.4,0.4-0.8,0.9-1,1.5c-0.4,0.9-0.6,2-0.6,3
	c0,1.1,0.2,2.3,0.8,3.3c0.5,0.9,1.3,1.6,2.2,2c1,0.4,2,0.6,3.1,0.6c1,0,1.9-0.2,2.8-0.5c0.7-0.2,1.4-0.6,2.1-1v-2.8L271.8,218.4
	L271.8,218.4L271.8,218.4z"/>
<path class="st3" d="M276.7,239.5l2.2,0.6c-0.3,1.6-1.2,3.1-2.5,4.1c-1.3,1-2.8,1.5-4.4,1.4c-1.5,0.1-3-0.3-4.4-1.1
	c-1.2-0.8-2-1.9-2.6-3.2c-0.6-1.4-0.9-2.9-0.9-4.5c0-1.6,0.3-3.1,1-4.5c0.6-1.2,1.6-2.3,2.8-2.9c1.2-0.7,2.6-1,4-1
	c1.5-0.1,3,0.4,4.2,1.3c1.2,0.9,2,2.1,2.4,3.6l-2.2,0.5c-0.3-1-0.9-2-1.7-2.6c-0.8-0.6-1.8-0.9-2.8-0.8c-1.1,0-2.3,0.3-3.2,0.9
	c-0.9,0.6-1.5,1.5-1.8,2.5c-0.4,1-0.5,2.1-0.5,3.2c0,1.3,0.2,2.5,0.6,3.7c0.4,1,1,1.8,1.9,2.4c0.9,0.5,1.8,0.8,2.8,0.8
	c1.1,0,2.2-0.3,3.1-1.1C275.9,241.8,276.5,240.7,276.7,239.5L276.7,239.5L276.7,239.5z"/>
<path class="st3" d="M275.9,248.6h2.2v9.6c0,1.4-0.1,2.7-0.6,4c-0.4,1-1.1,1.8-2,2.4c-1.2,0.7-2.5,1-3.9,0.9
	c-1.3,0.1-2.6-0.2-3.8-0.8c-1-0.5-1.7-1.3-2.1-2.3c-0.5-1.3-0.7-2.8-0.6-4.2v-9.6h2.2v9.6c0,1.1,0.1,2.2,0.4,3.2
	c0.2,0.7,0.7,1.2,1.4,1.6c0.7,0.4,1.6,0.6,2.4,0.6c1.3,0.1,2.5-0.3,3.5-1.1c0.7-0.7,1-2.1,1-4.2L275.9,248.6L275.9,248.6z"/>
<path class="st3" d="M275.5,269.7h2.2v9.6c0,1.4-0.1,2.7-0.6,4c-0.4,1-1.1,1.9-2,2.4c-1.2,0.7-2.5,1-3.9,0.9c-1.3,0-2.6-0.2-3.8-0.8
	c-1-0.5-1.7-1.3-2.1-2.3c-0.5-1.3-0.7-2.8-0.6-4.2v-9.6h2.2v9.6c0,1.1,0.1,2.2,0.4,3.2c0.2,0.7,0.7,1.2,1.4,1.6
	c0.7,0.4,1.6,0.6,2.4,0.6c1.2,0.1,2.5-0.3,3.5-1.1c0.7-0.7,1-2.1,1-4.2L275.5,269.7L275.5,269.7L275.5,269.7z"/>
<line class="st2" x1="289.1" y1="171.4" x2="289.1" y2="183.1"/>
<line class="st2" x1="306.6" y1="171.4" x2="306.6" y2="183.1"/>
<path class="st3" d="M337.1,148l6.4-16.6h2.4l6.8,16.6h-2.5l-1.9-5h-7l-1.8,5H337.1z M341.9,141.2h5.6l-1.7-4.6
	c-0.5-1.4-0.9-2.6-1.2-3.4c-0.2,1.1-0.5,2.1-0.9,3.2L341.9,141.2L341.9,141.2L341.9,141.2z"/>
<path class="st4" d="M365.2,163.1l2.2,0.6c-0.3,1.6-1.2,3.1-2.5,4.1c-1.3,1-2.8,1.5-4.4,1.4c-1.5,0.1-3-0.3-4.4-1.1
	c-1.2-0.8-2.1-1.9-2.6-3.2c-0.6-1.4-0.9-2.9-0.9-4.5c0-1.6,0.3-3.1,1-4.5c0.6-1.2,1.6-2.3,2.8-2.9c1.2-0.7,2.6-1,4-1
	c1.5-0.1,3,0.4,4.2,1.3c1.2,0.9,2,2.1,2.4,3.6l-2.2,0.5c-0.3-1-0.9-2-1.7-2.6c-0.8-0.6-1.8-0.9-2.8-0.8c-1.1,0-2.3,0.3-3.2,0.9
	c-0.9,0.6-1.5,1.5-1.8,2.5c-0.4,1-0.5,2.1-0.5,3.2c0,1.3,0.2,2.5,0.6,3.7c0.4,1,1,1.8,1.9,2.4c0.9,0.5,1.8,0.8,2.8,0.8
	c1.1,0,2.3-0.4,3.1-1.1C364.4,165.5,365.1,164.3,365.2,163.1L365.2,163.1L365.2,163.1z"/>
<path class="st4" d="M378.8,162.5v-2h7v6.2c-1,0.8-2.1,1.5-3.3,2c-1.1,0.4-2.3,0.6-3.5,0.6c-1.5,0-3.1-0.3-4.5-1
	c-1.3-0.7-2.3-1.7-3-3c-0.7-1.4-1-2.9-1-4.4c0-1.6,0.3-3.1,1-4.5c0.6-1.3,1.6-2.4,2.9-3.1c1.4-0.7,2.9-1,4.4-1
	c1.1,0,2.2,0.2,3.3,0.6c0.9,0.3,1.7,0.9,2.3,1.6c0.6,0.8,1,1.7,1.3,2.7l-2,0.6c-0.2-0.7-0.5-1.4-0.9-2c-0.4-0.5-1-0.9-1.6-1.2
	c-0.7-0.3-1.5-0.4-2.3-0.4c-0.9,0-1.8,0.1-2.6,0.4c-0.7,0.3-1.3,0.7-1.8,1.2c-0.4,0.5-0.8,1.1-1,1.6c-0.4,1.1-0.6,2.2-0.6,3.3
	c0,1.3,0.2,2.6,0.8,3.7c0.5,1,1.3,1.7,2.2,2.2c1,0.5,2,0.7,3.1,0.7c1,0,1.9-0.2,2.8-0.6c0.8-0.3,1.5-0.7,2.1-1.2v-3.1L378.8,162.5
	L378.8,162.5L378.8,162.5z"/>
<line class="st2" x1="378" y1="148.2" x2="378" y2="136.6"/>
<path d="M368.2,126.4l2-0.3c0.1,0.9,0.5,1.8,1.2,2.5c0.6,0.5,1.3,0.8,2.1,0.8c0.9,0,1.8-0.3,2.4-1c0.7-0.7,1-1.5,1-2.5
	c0-0.9-0.3-1.7-0.9-2.3c-0.6-0.6-1.5-0.9-2.3-0.9c-0.5,0-1,0.1-1.4,0.2l0.2-1.8h0.3c0.8,0,1.6-0.2,2.3-0.7c0.7-0.5,1.1-1.3,1-2.1
	c0-0.7-0.2-1.4-0.8-1.9c-0.5-0.5-1.3-0.8-2-0.7c-0.7,0-1.5,0.2-2,0.8c-0.6,0.6-0.9,1.4-1,2.2l-2-0.4c0.2-1.2,0.8-2.3,1.7-3.2
	c0.9-0.8,2.1-1.2,3.3-1.1c0.9,0,1.7,0.2,2.5,0.6c0.7,0.3,1.3,0.9,1.8,1.6c0.4,0.6,0.6,1.4,0.6,2.1c0,0.7-0.2,1.4-0.6,2
	c-0.4,0.6-1,1.1-1.7,1.4c0.9,0.2,1.7,0.7,2.3,1.4c0.6,0.8,0.9,1.7,0.8,2.7c0,1.4-0.6,2.7-1.6,3.7c-1.1,1-2.5,1.6-4,1.5
	c-1.3,0.1-2.6-0.4-3.6-1.3C368.8,128.9,368.3,127.7,368.2,126.4z M381.1,122.6c0-1.6,0.1-3.2,0.6-4.7c0.3-1.1,1-2,1.8-2.8
	c0.9-0.7,1.9-1,3-1c0.8,0,1.6,0.2,2.3,0.5c0.7,0.4,1.3,0.9,1.7,1.6c0.5,0.8,0.8,1.6,1,2.5c0.3,1.3,0.4,2.6,0.4,3.9
	c0,1.6-0.1,3.2-0.6,4.7c-0.3,1.1-0.9,2-1.8,2.8c-2.1,1.6-5.1,1.2-6.8-0.7C381.7,127.9,381.1,125.7,381.1,122.6L381.1,122.6
	L381.1,122.6z M383.2,122.6c0,2.7,0.3,4.5,1,5.5c0.8,1.3,2.4,1.8,3.8,1c0.4-0.2,0.7-0.6,1-1c0.6-0.9,0.9-2.7,1-5.4
	c0-2.7-0.3-4.5-1-5.4c-0.5-0.8-1.4-1.3-2.4-1.3c-0.9,0-1.8,0.4-2.3,1.2C383.6,118,383.2,119.8,383.2,122.6
	C383.2,122.6,383.2,122.6,383.2,122.6z"/>
<path class="st4" d="M387.6,169l6.4-16.6h2.4l6.8,16.6h-2.5l-2-5h-6.9l-1.8,5H387.6z M392.4,162.2h5.6l-1.7-4.6
	c-0.5-1.4-0.9-2.6-1.2-3.4c-0.2,1.1-0.5,2.1-0.9,3.2L392.4,162.2z"/>
<path class="st4" d="M416.1,162.5v-2h7v6.2c-1,0.8-2.1,1.5-3.3,2c-1.1,0.4-2.3,0.6-3.5,0.6c-1.5,0-3.1-0.3-4.5-1
	c-1.3-0.7-2.3-1.7-3-3c-0.7-1.4-1-2.9-1-4.4c0-1.6,0.3-3.1,1-4.5c0.6-1.3,1.6-2.4,2.9-3.1c1.4-0.7,2.9-1,4.4-1
	c1.1,0,2.2,0.2,3.3,0.6c0.9,0.3,1.7,0.9,2.3,1.6c0.6,0.8,1,1.7,1.3,2.7l-2,0.6c-0.2-0.7-0.5-1.4-0.9-2c-0.4-0.5-1-0.9-1.6-1.2
	c-0.7-0.3-1.5-0.4-2.3-0.4c-0.9,0-1.8,0.1-2.6,0.4c-0.7,0.3-1.3,0.7-1.8,1.2c-0.4,0.5-0.8,1.1-1,1.6c-0.4,1.1-0.6,2.2-0.6,3.3
	c0,1.3,0.2,2.6,0.8,3.7c0.5,1,1.3,1.8,2.2,2.2c1,0.5,2,0.7,3.1,0.7c1.8,0,3.5-0.6,4.9-1.7v-3.1L416.1,162.5L416.1,162.5L416.1,162.5
	z"/>
<path class="st4" d="M439.2,152.4h2.2v9.6c0,1.4-0.1,2.7-0.6,4c-0.4,1-1.1,1.9-2,2.4c-1.2,0.7-2.5,1-3.9,0.9
	c-1.3,0.1-2.6-0.2-3.8-0.8c-1-0.5-1.7-1.3-2.1-2.3c-0.5-1.3-0.7-2.8-0.6-4.2v-9.6h2.2v9.6c0,1.1,0.1,2.2,0.4,3.2
	c0.3,0.7,0.8,1.2,1.4,1.6c0.7,0.4,1.6,0.6,2.4,0.6c1.3,0.1,2.5-0.3,3.5-1.1c0.7-0.7,1-2.1,1-4.2L439.2,152.4L439.2,152.4
	L439.2,152.4z"/>
<path class="st4" d="M454.2,162.5v-2h7v6.2c-1,0.8-2.1,1.5-3.4,2c-1.1,0.4-2.3,0.6-3.5,0.6c-1.5,0-3.1-0.3-4.5-1
	c-1.3-0.7-2.3-1.7-3-3c-0.7-1.4-1-2.9-1-4.4c0-1.6,0.3-3.1,1-4.5c0.6-1.3,1.6-2.4,2.9-3.1c1.4-0.7,2.9-1,4.4-1
	c1.1,0,2.2,0.2,3.3,0.6c0.9,0.3,1.7,0.9,2.3,1.6c0.6,0.8,1,1.6,1.3,2.6l-2,0.6c-0.2-0.7-0.5-1.4-0.9-2c-0.4-0.5-1-0.9-1.6-1.2
	c-0.7-0.3-1.5-0.4-2.3-0.4c-0.9,0-1.8,0.1-2.6,0.4c-0.7,0.3-1.3,0.7-1.8,1.2c-0.4,0.5-0.8,1.1-1,1.6c-0.4,1.1-0.6,2.2-0.6,3.3
	c0,1.3,0.2,2.6,0.8,3.7c0.5,1,1.3,1.7,2.2,2.2c1,0.5,2,0.7,3.1,0.7c1.8,0,3.5-0.6,4.9-1.7v-3.1L454.2,162.5z"/>
<path class="st4" d="M476.2,163.2l2.2,0.6c-0.3,1.6-1.2,3.1-2.5,4.1c-1.2,1-2.8,1.5-4.4,1.4c-1.5,0.1-3-0.3-4.4-1.1
	c-1.2-0.8-2-1.9-2.6-3.2c-0.6-1.4-0.9-2.9-0.9-4.5c0-1.6,0.3-3.1,1-4.5c0.6-1.2,1.6-2.3,2.8-2.9c1.2-0.7,2.6-1,4-1
	c1.5-0.1,3,0.4,4.2,1.3c1.2,0.9,2,2.2,2.4,3.6l-2.2,0.5c-0.3-1-0.9-2-1.7-2.6c-0.8-0.6-1.8-0.9-2.8-0.8c-1.1,0-2.3,0.3-3.2,0.9
	c-0.9,0.6-1.5,1.5-1.8,2.5c-0.4,1-0.5,2.1-0.5,3.2c0,1.3,0.2,2.5,0.6,3.7c0.4,1,1,1.8,1.9,2.4c0.9,0.5,1.8,0.8,2.8,0.8
	c1.1,0,2.3-0.4,3.1-1.1C475.3,165.5,475.9,164.4,476.2,163.2L476.2,163.2L476.2,163.2z"/>
<path class="st4" d="M480.8,169l6.4-16.6h2.4l6.8,16.6h-2.5l-1.9-5h-7l-1.8,5H480.8z M485.6,162.2h5.6l-1.7-4.6
	c-0.5-1.4-0.9-2.6-1.2-3.4c-0.2,1.1-0.5,2.1-0.9,3.2L485.6,162.2z"/>
<path class="st4" d="M506.6,162.5v-2h7v6.2c-1,0.8-2.1,1.5-3.4,2c-1.1,0.4-2.3,0.6-3.5,0.6c-1.5,0-3.1-0.3-4.5-1
	c-1.3-0.7-2.3-1.7-3-3c-0.7-1.4-1-2.9-1-4.4c0-1.6,0.3-3.1,1-4.5c0.6-1.3,1.6-2.4,2.9-3.1c1.4-0.7,2.9-1,4.4-1
	c1.1,0,2.2,0.2,3.2,0.6c0.9,0.3,1.7,0.9,2.3,1.6c0.6,0.8,1,1.7,1.3,2.7l-2,0.6c-0.2-0.7-0.5-1.4-0.9-2c-0.4-0.5-1-0.9-1.6-1.2
	c-0.7-0.3-1.5-0.4-2.3-0.4c-0.9,0-1.8,0.1-2.6,0.4c-0.7,0.3-1.3,0.7-1.8,1.2c-0.4,0.5-0.8,1.1-1,1.6c-0.4,1.1-0.6,2.2-0.6,3.3
	c0,1.3,0.2,2.6,0.8,3.7c0.5,1,1.3,1.7,2.2,2.2c1,0.5,2,0.7,3.1,0.7c1,0,1.9-0.2,2.8-0.6c0.8-0.3,1.5-0.7,2.1-1.2v-3.1L506.6,162.5z"
	/>
<path class="st4" d="M527.6,152.4h2.2v9.6c0,1.4-0.1,2.7-0.6,4c-0.4,1-1.1,1.8-2,2.4c-1.2,0.7-2.5,1-3.9,0.9
	c-1.3,0.1-2.6-0.2-3.8-0.8c-1-0.5-1.7-1.3-2.1-2.3c-0.5-1.3-0.7-2.8-0.6-4.2v-9.6h2.2v9.6c0,1.1,0.1,2.2,0.4,3.2
	c0.3,0.7,0.8,1.2,1.4,1.6c0.7,0.4,1.6,0.6,2.4,0.6c1.3,0.1,2.5-0.3,3.5-1.1c0.7-0.7,1-2.1,1-4.2L527.6,152.4L527.6,152.4
	L527.6,152.4z"/>
<path class="st4" d="M541.6,162.5v-2h7v6.2c-1,0.8-2.1,1.5-3.3,2c-1.1,0.4-2.3,0.6-3.5,0.6c-1.5,0-3.1-0.3-4.5-1
	c-1.3-0.7-2.3-1.7-3-3c-0.7-1.4-1-2.9-1-4.4c0-1.6,0.3-3.1,1-4.5c0.6-1.3,1.6-2.4,2.9-3.1c1.4-0.7,2.9-1,4.4-1
	c1.1,0,2.2,0.2,3.2,0.6c0.9,0.3,1.7,0.9,2.3,1.6c0.6,0.8,1,1.7,1.3,2.7l-2,0.6c-0.2-0.7-0.5-1.4-0.9-2c-0.4-0.5-1-0.9-1.6-1.2
	c-0.7-0.3-1.5-0.4-2.3-0.4c-0.9,0-1.8,0.1-2.6,0.4c-0.7,0.3-1.3,0.7-1.8,1.2c-0.4,0.5-0.8,1.1-1,1.6c-0.4,1.1-0.7,2.2-0.6,3.3
	c0,1.3,0.2,2.6,0.8,3.7c0.5,1,1.3,1.7,2.2,2.2c1,0.5,2,0.7,3.1,0.7c1,0,1.9-0.2,2.8-0.6c0.8-0.3,1.5-0.7,2.1-1.2v-3.1L541.6,162.5z"
	/>
<path class="st4" d="M559.1,162.5v-2h7v6.2c-1,0.8-2.1,1.5-3.3,2c-1.1,0.4-2.3,0.6-3.5,0.6c-1.5,0-3.1-0.3-4.5-1
	c-1.3-0.7-2.3-1.7-3-3c-0.7-1.4-1-2.9-1-4.4c0-1.6,0.3-3.1,1-4.5c0.6-1.3,1.6-2.4,2.9-3.1c1.4-0.7,2.9-1,4.4-1
	c1.1,0,2.2,0.2,3.2,0.6c0.9,0.3,1.7,0.9,2.3,1.6c0.6,0.8,1,1.7,1.3,2.7l-2,0.6c-0.2-0.7-0.5-1.4-0.9-2c-0.4-0.5-1-0.9-1.6-1.2
	c-0.7-0.3-1.5-0.4-2.3-0.4c-0.9,0-1.8,0.1-2.6,0.4c-0.7,0.3-1.3,0.7-1.8,1.2c-0.4,0.5-0.8,1.1-1,1.6c-0.4,1.1-0.7,2.2-0.6,3.3
	c0,1.3,0.2,2.6,0.8,3.7c0.5,1,1.3,1.7,2.2,2.2c1,0.5,2,0.7,3.1,0.7c1,0,1.9-0.2,2.8-0.6c0.8-0.3,1.5-0.7,2.1-1.2v-3.1L559.1,162.5z"
	/>
<path d="M550.5,135.1v-4h-7.2v-1.9l7.6-10.8h1.7v10.8h2.2v1.9h-2.2v4H550.5z M550.5,129.2v-7.5l-5.2,7.5H550.5z M556.9,126.9
	c0-1.6,0.2-3.2,0.6-4.8c0.3-1.1,1-2,1.8-2.8c0.8-0.7,1.9-1,3-1c0.8,0,1.6,0.2,2.3,0.5c0.7,0.4,1.3,0.9,1.7,1.6
	c0.5,0.8,0.8,1.6,1,2.5c0.3,1.3,0.4,2.6,0.4,3.9c0,1.6-0.2,3.2-0.6,4.7c-0.3,1.1-0.9,2-1.8,2.8c-2.1,1.6-5.1,1.2-6.8-0.7
	C557.4,132.3,556.9,130,556.9,126.9L556.9,126.9L556.9,126.9z M559,126.9c0,2.7,0.3,4.5,1,5.4c0.8,1.3,2.4,1.8,3.8,1
	c0.4-0.2,0.7-0.6,1-1c0.7-0.9,1-2.7,1-5.4s-0.3-4.5-1-5.4c-0.5-0.8-1.4-1.3-2.4-1.4c-0.9,0-1.8,0.4-2.2,1.2
	C559.4,122.3,559,124.2,559,126.9L559,126.9L559,126.9L559,126.9z"/>
<path class="st4" d="M576.5,162.5v-2h7v6.2c-1,0.8-2.1,1.5-3.3,2c-1.1,0.4-2.3,0.6-3.5,0.6c-1.5,0-3.1-0.3-4.5-1
	c-1.3-0.7-2.3-1.7-3-3c-0.7-1.4-1-2.9-1-4.4c0-1.6,0.3-3.1,1-4.5c0.6-1.3,1.6-2.4,2.9-3.1c1.4-0.7,2.9-1,4.4-1
	c1.1,0,2.2,0.2,3.3,0.6c0.9,0.3,1.7,0.9,2.3,1.6c0.6,0.8,1,1.7,1.3,2.7l-2,0.6c-0.2-0.7-0.5-1.4-0.9-2c-0.4-0.5-1-0.9-1.6-1.2
	c-0.7-0.3-1.5-0.4-2.3-0.4c-0.9,0-1.8,0.1-2.6,0.4c-0.7,0.3-1.3,0.7-1.8,1.2c-0.4,0.5-0.8,1.1-1,1.6c-0.4,1.1-0.7,2.2-0.6,3.3
	c0,1.3,0.2,2.6,0.8,3.7c0.5,1,1.3,1.7,2.2,2.2c1,0.5,2,0.7,3.1,0.7c1,0,1.9-0.2,2.8-0.6c0.8-0.3,1.5-0.7,2.1-1.2v-3.1L576.5,162.5
	L576.5,162.5L576.5,162.5z"/>
<path class="st5" d="M581.6,150.8l6.4-16.6h2.4l6.8,16.6h-2.5l-2-5h-6.9l-1.8,5H581.6z M586.4,143.9h5.6l-1.7-4.6
	c-0.5-1.4-0.9-2.6-1.2-3.4c-0.2,1.1-0.5,2.1-0.9,3.2L586.4,143.9L586.4,143.9L586.4,143.9z"/>
<path class="st5" d="M598.1,136.8l6.4-16.6h2.4l6.8,16.6h-2.5l-1.9-5h-7l-1.8,5H598.1z M602.9,130h5.6l-1.7-4.6
	c-0.5-1.4-0.9-2.6-1.2-3.4c-0.2,1.1-0.5,2.1-0.9,3.2L602.9,130L602.9,130L602.9,130z"/>
<path class="st5" d="M598.3,211.6l2.2,0.6c-0.3,1.6-1.2,3.1-2.5,4.1c-1.3,1-2.8,1.5-4.4,1.4c-1.5,0.1-3-0.3-4.4-1.1
	c-1.2-0.8-2-1.9-2.6-3.2c-0.6-1.4-0.9-2.9-0.9-4.5c0-1.6,0.3-3.1,1-4.5c0.6-1.2,1.6-2.3,2.8-2.9c1.2-0.7,2.6-1,4-1
	c1.5-0.1,3,0.4,4.2,1.3c1.2,0.9,2,2.1,2.4,3.6l-2.2,0.5c-0.3-1-0.8-2-1.7-2.6c-0.8-0.6-1.8-0.9-2.8-0.8c-1.1,0-2.3,0.3-3.2,0.9
	c-0.8,0.6-1.5,1.5-1.8,2.5c-0.3,1-0.5,2.1-0.5,3.2c0,1.3,0.2,2.5,0.6,3.7c0.4,1,1,1.8,1.9,2.4c0.8,0.5,1.8,0.8,2.8,0.8
	c1.1,0,2.3-0.4,3.1-1.1C597.5,213.9,598.1,212.8,598.3,211.6L598.3,211.6L598.3,211.6z"/>
<path class="st4" d="M580.1,187.3h2.2v9.6c0,1.4-0.1,2.7-0.6,4c-0.4,1-1.1,1.8-2,2.4c-1.2,0.7-2.5,1-3.9,0.9
	c-1.3,0.1-2.6-0.2-3.8-0.8c-1-0.5-1.7-1.3-2.1-2.3c-0.5-1.3-0.7-2.8-0.6-4.2v-9.6h2.2v9.6c0,1.1,0.1,2.2,0.4,3.2
	c0.3,0.7,0.8,1.2,1.4,1.6c0.7,0.4,1.6,0.6,2.4,0.6c1.3,0.1,2.5-0.3,3.5-1.1c0.7-0.7,1-2.1,1-4.2L580.1,187.3L580.1,187.3
	L580.1,187.3z"/>
<path class="st4" d="M562.6,187.3h2.2v9.6c0,1.4-0.1,2.7-0.6,4c-0.4,1-1.1,1.8-2,2.4c-1.2,0.7-2.5,1-3.9,0.9
	c-1.3,0.1-2.6-0.2-3.8-0.8c-1-0.5-1.7-1.3-2.1-2.3c-0.5-1.3-0.7-2.8-0.6-4.2v-9.6h2.2v9.6c0,1.1,0.1,2.2,0.4,3.2
	c0.3,0.7,0.8,1.2,1.4,1.6c0.7,0.4,1.6,0.6,2.4,0.6c1.3,0.1,2.5-0.3,3.5-1.1c0.7-0.7,1-2.1,1-4.2L562.6,187.3L562.6,187.3
	L562.6,187.3z"/>
<path class="st4" d="M546.1,198.1l2.2,0.6c-0.3,1.6-1.2,3.1-2.5,4.1c-1.3,1-2.8,1.5-4.4,1.4c-1.5,0.1-3-0.3-4.4-1.1
	c-1.2-0.8-2.1-1.9-2.6-3.2c-0.6-1.4-0.9-2.9-0.9-4.5c0-1.6,0.3-3.1,1-4.5c0.6-1.2,1.6-2.3,2.8-2.9c1.2-0.7,2.6-1,4-1
	c1.5-0.1,3,0.4,4.2,1.3c1.2,0.9,2,2.1,2.4,3.6l-2.2,0.5c-0.3-1-0.8-2-1.7-2.6c-0.8-0.6-1.8-0.9-2.8-0.8c-1.1,0-2.3,0.3-3.2,0.9
	c-0.8,0.6-1.5,1.5-1.8,2.5c-0.3,1-0.5,2.1-0.5,3.2c0,1.3,0.2,2.5,0.6,3.7c0.4,1,1,1.8,1.9,2.4c0.8,0.5,1.8,0.8,2.8,0.8
	c1.1,0,2.3-0.4,3.1-1.1C545.3,200.5,545.9,199.3,546.1,198.1L546.1,198.1L546.1,198.1z"/>
<path class="st4" d="M515.7,204l6.4-16.6h2.4l6.8,16.6h-2.5l-1.9-5h-7l-1.8,5H515.7z M520.5,197.2h5.6l-1.7-4.6
	c-0.5-1.4-0.9-2.5-1.2-3.4c-0.2,1.1-0.5,2.1-0.9,3.2L520.5,197.2L520.5,197.2L520.5,197.2z"/>
<line class="st2" x1="523.7" y1="206.5" x2="523.7" y2="218.1"/>
<path d="M521.9,229.6l-2,0.2c-0.1-0.6-0.4-1.2-0.8-1.8c-0.5-0.6-1.2-0.9-2-0.9c-0.6,0-1.2,0.2-1.7,0.5c-0.7,0.5-1.2,1.2-1.5,2.1
	c-0.4,1.2-0.6,2.5-0.6,3.8c0.4-0.7,1.1-1.3,1.8-1.7c0.7-0.4,1.5-0.5,2.2-0.5c1.3,0,2.6,0.5,3.5,1.5c1,1.1,1.5,2.4,1.4,3.9
	c0,1-0.2,2-0.7,2.9c-0.4,0.9-1,1.6-1.9,2.1c-0.8,0.5-1.7,0.7-2.7,0.7c-1.6,0.1-3.1-0.6-4.2-1.9c-1.1-1.2-1.6-3.3-1.6-6.2
	c0-3.2,0.6-5.5,1.8-7c1-1.3,2.6-2,4.2-1.9C519.7,225.4,521.8,227.2,521.9,229.6L521.9,229.6L521.9,229.6L521.9,229.6z M513.6,236.8
	c0,0.7,0.2,1.4,0.5,2c0.3,0.6,0.7,1.1,1.2,1.5c0.5,0.3,1.1,0.5,1.7,0.5c0.8,0,1.7-0.4,2.2-1c0.7-0.8,1-1.8,0.9-2.8
	c0.1-1-0.3-2-0.9-2.7c-0.6-0.7-1.4-1-2.3-1c-0.9,0-1.7,0.4-2.3,1C513.9,234.9,513.6,235.9,513.6,236.8z M524.3,234
	c0-1.6,0.2-3.2,0.6-4.8c0.3-1.1,1-2,1.8-2.8c0.8-0.7,1.9-1,3-1c0.8,0,1.6,0.2,2.3,0.5c0.7,0.4,1.2,0.9,1.7,1.6
	c0.5,0.8,0.8,1.6,1,2.5c0.3,1.3,0.4,2.6,0.4,3.9c0,1.6-0.2,3.2-0.6,4.7c-0.3,1.1-1,2-1.8,2.8c-2.1,1.6-5.1,1.2-6.8-0.7
	C524.8,239.4,524.3,237.1,524.3,234L524.3,234L524.3,234z M526.4,234c0,2.7,0.3,4.5,1,5.4c0.8,1.3,2.4,1.8,3.8,1
	c0.4-0.2,0.7-0.6,1-1c0.7-0.9,1-2.7,1-5.4s-0.3-4.5-1-5.4c-0.5-0.8-1.4-1.4-2.4-1.4c-0.9,0-1.8,0.4-2.2,1.2
	C526.8,229.4,526.4,231.3,526.4,234L526.4,234z"/>
<path class="st4" d="M511.1,199.1l2.2,0.6c-0.3,1.6-1.2,3.1-2.5,4.1c-1.3,1-2.8,1.5-4.4,1.4c-1.5,0.1-3-0.3-4.4-1.1
	c-1.2-0.8-2.1-1.9-2.6-3.2c-0.6-1.4-0.9-2.9-0.9-4.5c0-1.6,0.3-3.1,1-4.5c0.6-1.2,1.6-2.3,2.8-2.9c1.2-0.7,2.6-1,4-1
	c1.5-0.1,3,0.4,4.2,1.3c1.2,0.9,2,2.1,2.4,3.6l-2.2,0.5c-0.3-1-0.9-2-1.7-2.6c-0.8-0.6-1.8-0.9-2.8-0.8c-1.1,0-2.3,0.3-3.2,0.9
	c-0.9,0.6-1.5,1.5-1.8,2.5c-0.4,1-0.5,2.1-0.5,3.2c0,1.3,0.2,2.5,0.6,3.7c0.4,1,1,1.8,1.9,2.4c0.9,0.5,1.8,0.8,2.8,0.8
	c1.1,0,2.3-0.4,3.1-1.1C510.3,201.5,510.9,200.3,511.1,199.1L511.1,199.1L511.1,199.1z"/>
<path class="st4" d="M492.7,188.3h2.2v9.6c0,1.4-0.1,2.7-0.6,4c-0.4,1-1.1,1.8-2,2.4c-1.2,0.7-2.5,1-3.9,0.9
	c-1.3,0.1-2.6-0.2-3.8-0.8c-1-0.5-1.7-1.3-2.1-2.3c-0.5-1.3-0.7-2.8-0.6-4.2v-9.6h2.2v9.6c0,1.1,0.1,2.2,0.4,3.2
	c0.3,0.7,0.8,1.2,1.4,1.6c0.7,0.4,1.6,0.6,2.4,0.6c1.3,0.1,2.5-0.3,3.5-1.1c0.7-0.7,1-2.1,1-4.2L492.7,188.3L492.7,188.3
	L492.7,188.3z"/>
<path class="st4" d="M471.7,198.4v-2h7v6.2c-1,0.8-2.1,1.5-3.4,2c-1.1,0.4-2.3,0.7-3.5,0.7c-1.5,0-3.1-0.3-4.5-1.1
	c-1.3-0.7-2.3-1.7-3-3c-0.7-1.4-1-2.9-1-4.4c0-1.6,0.3-3.1,1-4.5c0.6-1.3,1.6-2.4,2.9-3.1c1.4-0.7,2.9-1,4.4-1
	c1.1,0,2.2,0.2,3.3,0.6c0.9,0.3,1.7,0.9,2.3,1.6c0.6,0.8,1,1.7,1.3,2.7l-2,0.5c-0.2-0.7-0.5-1.4-0.9-2c-0.4-0.5-1-0.9-1.6-1.2
	c-0.7-0.3-1.5-0.4-2.3-0.4c-0.9,0-1.8,0.1-2.6,0.4c-0.7,0.3-1.3,0.7-1.8,1.2c-0.4,0.5-0.8,1.1-1,1.6c-0.4,1.1-0.6,2.2-0.6,3.3
	c0,1.3,0.2,2.6,0.8,3.7c0.5,1,1.3,1.7,2.2,2.2s2,0.7,3.1,0.7c1,0,1.9-0.2,2.8-0.6c0.8-0.3,1.5-0.7,2.1-1.2v-3.1L471.7,198.4
	L471.7,198.4L471.7,198.4z"/>
<path class="st4" d="M458.7,200.1l2.2,0.6c-0.3,1.6-1.2,3.1-2.5,4.1c-1.2,1-2.8,1.5-4.4,1.4c-1.5,0.1-3-0.3-4.4-1.1
	c-1.2-0.8-2-1.9-2.6-3.2c-0.6-1.4-0.9-2.9-0.9-4.5c0-1.6,0.3-3.1,1-4.5c0.6-1.2,1.6-2.3,2.8-2.9c1.2-0.7,2.6-1,4-1
	c1.5-0.1,3,0.4,4.2,1.3c1.2,0.9,2,2.2,2.4,3.6l-2.2,0.5c-0.3-1-0.9-2-1.7-2.6c-0.8-0.6-1.8-0.8-2.7-0.8c-1.1,0-2.3,0.3-3.2,0.9
	c-0.9,0.6-1.5,1.5-1.8,2.5c-0.4,1-0.5,2.1-0.5,3.2c0,1.3,0.2,2.5,0.6,3.7c0.4,1,1,1.8,1.9,2.4c0.9,0.5,1.8,0.8,2.8,0.8
	c1.1,0,2.3-0.4,3.1-1.1C457.9,202.5,458.5,201.4,458.7,200.1L458.7,200.1L458.7,200.1z"/>
<path class="st4" d="M449,226.3l6.4-16.6h2.4l6.8,16.6h-2.5l-1.9-5.1h-6.9l-1.8,5.1H449z M453.8,219.5h5.6l-1.7-4.6
	c-0.5-1.4-0.9-2.6-1.2-3.4c-0.2,1.1-0.5,2.1-0.9,3.2L453.8,219.5z"/>
<path class="st4" d="M435.9,220.8v-2h7v6.2c-1,0.8-2.1,1.5-3.3,1.9c-1.1,0.4-2.3,0.6-3.5,0.6c-1.5,0-3.1-0.3-4.5-1.1
	c-1.3-0.7-2.3-1.7-3-3c-0.7-1.4-1-2.9-1-4.4c0-1.6,0.3-3.1,1-4.5c0.6-1.3,1.6-2.4,2.9-3.1c1.4-0.7,2.9-1,4.4-1
	c1.1,0,2.2,0.2,3.3,0.6c0.9,0.3,1.7,0.9,2.3,1.6c0.6,0.8,1,1.7,1.3,2.7l-2,0.5c-0.2-0.7-0.5-1.4-0.9-2c-0.4-0.5-1-0.9-1.6-1.2
	c-0.7-0.3-1.5-0.4-2.3-0.4c-0.9,0-1.8,0.1-2.6,0.4c-0.7,0.3-1.3,0.7-1.8,1.2c-0.4,0.5-0.8,1-1,1.6c-0.4,1.1-0.6,2.2-0.6,3.4
	c0,1.3,0.2,2.6,0.8,3.7c0.5,1,1.3,1.8,2.2,2.2c1,0.5,2,0.7,3.1,0.7c1,0,1.9-0.2,2.8-0.6c0.8-0.3,1.4-0.7,2.1-1.2v-3.1L435.9,220.8
	L435.9,220.8L435.9,220.8z"/>
<path class="st4" d="M426.9,206.1l6.4-16.6h2.4l6.8,16.6h-2.5l-1.9-5h-7l-1.8,5H426.9z M431.7,199.3h5.6l-1.7-4.6
	c-0.5-1.4-0.9-2.5-1.2-3.4c-0.2,1.1-0.5,2.1-0.9,3.2L431.7,199.3L431.7,199.3L431.7,199.3z"/>
<path class="st4" d="M420.2,201.1l2.2,0.6c-0.4,1.6-1.2,3.1-2.5,4.1c-1.3,1-2.8,1.5-4.4,1.4c-1.5,0.1-3-0.3-4.4-1.1
	c-1.2-0.8-2-1.9-2.6-3.2c-0.6-1.4-0.9-2.9-0.9-4.5c0-1.6,0.3-3.1,1-4.5c0.6-1.2,1.6-2.3,2.8-2.9c1.2-0.7,2.6-1,4-1
	c1.5-0.1,3,0.4,4.2,1.3c1.2,0.9,2,2.2,2.4,3.6l-2.2,0.5c-0.3-1-0.9-1.9-1.7-2.6c-0.8-0.6-1.8-0.9-2.8-0.8c-1.1,0-2.3,0.3-3.2,0.9
	c-0.9,0.6-1.5,1.5-1.8,2.5c-0.4,1-0.5,2.1-0.5,3.2c0,1.3,0.2,2.5,0.6,3.7c0.4,1,1,1.8,1.9,2.4c0.9,0.5,1.8,0.8,2.8,0.8
	c1.1,0,2.2-0.4,3.1-1.1C419.3,203.5,420,202.3,420.2,201.1L420.2,201.1L420.2,201.1z"/>
<path class="st4" d="M400.2,189.9h2.2v9.6c0,1.4-0.1,2.7-0.6,4c-0.4,1-1.1,1.9-2,2.4c-1.2,0.7-2.5,1-3.9,0.9
	c-1.3,0.1-2.6-0.2-3.8-0.8c-1-0.5-1.7-1.3-2.1-2.3c-0.5-1.3-0.7-2.8-0.6-4.2v-9.6h2.2v9.6c0,1.1,0.1,2.2,0.4,3.2
	c0.2,0.7,0.7,1.2,1.4,1.6c0.7,0.4,1.6,0.6,2.4,0.6c1.2,0.1,2.5-0.3,3.5-1.1c0.7-0.7,1-2.1,1-4.2L400.2,189.9L400.2,189.9
	L400.2,189.9z"/>
<path class="st4" d="M383.2,189.7h2.2v9.6c0,1.4-0.1,2.7-0.6,4c-0.4,1-1.1,1.8-2,2.4c-1.2,0.7-2.5,1-3.9,0.9
	c-1.3,0.1-2.6-0.2-3.8-0.8c-1-0.5-1.7-1.3-2.1-2.3c-0.5-1.3-0.7-2.8-0.6-4.2v-9.6h2.2v9.6c0,1.1,0.1,2.2,0.4,3.2
	c0.3,0.7,0.8,1.2,1.4,1.6c0.7,0.4,1.6,0.6,2.4,0.6c1.2,0.1,2.5-0.3,3.5-1.1c0.7-0.7,1-2.1,1-4.2L383.2,189.7L383.2,189.7
	L383.2,189.7z"/>
<path d="M354.2,233.6v-2H365v1.6c-1.2,1.4-2.3,2.9-3.1,4.5c-1,1.8-1.8,3.8-2.4,5.8c-0.4,1.5-0.7,3-0.8,4.6h-2.1
	c0.1-1.6,0.3-3.2,0.8-4.7c0.5-1.9,1.2-3.7,2.1-5.4c0.8-1.6,1.8-3,2.9-4.4L354.2,233.6L354.2,233.6L354.2,233.6z M367,239.9
	c0-1.6,0.1-3.2,0.6-4.7c0.3-1.1,1-2,1.8-2.8c0.9-0.7,1.9-1,3-1c0.8,0,1.6,0.2,2.3,0.5c0.7,0.4,1.3,0.9,1.7,1.6
	c0.5,0.8,0.8,1.6,1,2.5c0.3,1.3,0.4,2.6,0.4,3.9c0,1.6-0.2,3.2-0.6,4.7c-0.3,1.1-0.9,2-1.8,2.8c-0.9,0.7-1.9,1-3,1
	c-1.5,0.1-2.9-0.6-3.8-1.7C367.6,245.3,367,243,367,239.9L367,239.9L367,239.9z M369.1,239.9c0,2.7,0.3,4.5,1,5.4
	c0.8,1.3,2.4,1.8,3.8,1c0.4-0.2,0.7-0.6,1-1c0.6-0.9,1-2.7,1-5.4s-0.3-4.5-1-5.4c-0.5-0.8-1.4-1.4-2.4-1.4c-0.9,0-1.8,0.4-2.2,1.2
	C369.5,235.3,369.1,237.1,369.1,239.9L369.1,239.9z"/>
<path class="st4" d="M361.5,200.1v-2h7v6.2c-1,0.8-2.1,1.5-3.4,1.9c-1.1,0.4-2.3,0.6-3.5,0.6c-1.5,0-3.1-0.3-4.5-1
	c-1.3-0.7-2.3-1.7-3-3c-0.7-1.4-1-2.9-1-4.4c0-1.6,0.3-3.1,1-4.5c0.6-1.3,1.6-2.4,2.9-3.1c1.4-0.7,2.9-1,4.4-1
	c1.1,0,2.2,0.2,3.3,0.6c0.9,0.3,1.7,0.9,2.3,1.6c0.6,0.8,1,1.7,1.3,2.7l-2,0.6c-0.2-0.7-0.5-1.4-0.9-2c-0.4-0.5-1-0.9-1.6-1.2
	c-0.7-0.3-1.5-0.4-2.3-0.4c-0.9,0-1.8,0.1-2.6,0.4c-0.7,0.3-1.3,0.7-1.8,1.2c-0.4,0.5-0.8,1-1,1.6c-0.4,1.1-0.6,2.2-0.6,3.4
	c0,1.3,0.2,2.6,0.8,3.7c0.5,1,1.3,1.7,2.2,2.2c1,0.5,2,0.7,3.1,0.7c1,0,1.9-0.2,2.8-0.6c0.8-0.3,1.5-0.7,2.1-1.2v-3.1L361.5,200.1
	L361.5,200.1L361.5,200.1z"/>
<path class="st3" d="M334.1,211.1l6.4-16.6h2.4l6.8,16.6h-2.5l-2-5h-6.9l-1.8,5H334.1z M338.9,204.3h5.6l-1.7-4.6
	c-0.5-1.4-0.9-2.6-1.2-3.4c-0.2,1.1-0.5,2.1-0.9,3.2L338.9,204.3L338.9,204.3L338.9,204.3z"/>
<path class="st5" d="M613.1,154.7l6.4-16.7h2.4l6.8,16.6h-2.5l-1.9-5h-7l-1.8,5L613.1,154.7L613.1,154.7L613.1,154.7z M617.9,147.8
	h5.6l-1.7-4.6c-0.5-1.4-0.9-2.6-1.2-3.4c-0.2,1.1-0.5,2.1-0.9,3.2L617.9,147.8L617.9,147.8L617.9,147.8z"/>
<path class="st5" d="M634.9,170.5l2.2,0.6c-0.3,1.6-1.2,3.1-2.5,4.1c-1.3,1-2.8,1.5-4.4,1.4c-1.5,0.1-3-0.3-4.4-1.1
	c-1.2-0.8-2-1.9-2.6-3.2c-0.6-1.4-0.9-2.9-0.9-4.5c0-1.6,0.3-3.1,1-4.5c0.6-1.2,1.6-2.3,2.8-2.9c1.2-0.7,2.6-1,4-1
	c1.5-0.1,3,0.4,4.2,1.3c1.2,0.9,2,2.1,2.4,3.6l-2.2,0.5c-0.3-1-0.8-2-1.7-2.6c-0.8-0.6-1.8-0.9-2.8-0.8c-1.1,0-2.3,0.3-3.2,0.9
	c-0.8,0.6-1.5,1.5-1.8,2.5c-0.7,2.2-0.7,4.7,0.1,6.9c0.3,1,1,1.8,1.9,2.4c0.8,0.5,1.8,0.8,2.8,0.8c1.1,0,2.2-0.3,3.1-1.1
	C634.1,172.8,634.7,171.7,634.9,170.5L634.9,170.5L634.9,170.5z"/>
<path class="st5" d="M639.5,176.3l6.4-16.6h2.4l6.8,16.6h-2.5l-1.9-5h-7l-1.8,5H639.5z M644.3,169.5h5.7l-1.7-4.6
	c-0.5-1.4-0.9-2.6-1.2-3.4c-0.2,1.1-0.5,2.1-0.9,3.2L644.3,169.5L644.3,169.5L644.3,169.5z"/>
<path class="st5" d="M665.4,169.8v-2h7v6.2c-1,0.8-2.1,1.5-3.3,1.9c-1.1,0.4-2.3,0.6-3.5,0.6c-1.5,0-3.1-0.3-4.5-1
	c-1.3-0.7-2.3-1.7-3-3c-0.7-1.4-1-2.9-1-4.4c0-1.6,0.3-3.1,1-4.5c0.6-1.4,1.6-2.5,2.9-3.2c1.4-0.7,2.9-1,4.4-1
	c1.1,0,2.2,0.2,3.3,0.6c0.9,0.3,1.7,0.9,2.3,1.6c0.6,0.8,1,1.7,1.3,2.7l-2,0.6c-0.2-0.7-0.5-1.4-0.9-2c-0.4-0.5-1-0.9-1.6-1.2
	c-0.7-0.3-1.5-0.4-2.3-0.4c-0.9,0-1.8,0.1-2.6,0.4c-0.7,0.3-1.3,0.7-1.8,1.2c-0.4,0.5-0.8,1-1,1.6c-0.4,1.1-0.6,2.2-0.6,3.4
	c0,1.3,0.2,2.6,0.8,3.7c0.5,1,1.3,1.8,2.2,2.2c1,0.5,2,0.7,3.1,0.7c1,0,1.9-0.2,2.8-0.6c0.8-0.3,1.5-0.7,2.1-1.2v-3.1L665.4,169.8
	L665.4,169.8L665.4,169.8z"/>
<path class="st5" d="M687.2,162.3v-2h7v6.2c-1,0.8-2.1,1.5-3.3,1.9c-1.1,0.4-2.3,0.7-3.5,0.7c-1.5,0-3.1-0.3-4.5-1.1
	c-1.3-0.7-2.3-1.7-3-3c-0.7-1.4-1-2.9-1-4.4c0-1.6,0.3-3.1,1-4.5c0.6-1.3,1.6-2.4,2.9-3.1c1.3-0.7,2.9-1,4.4-1
	c1.1,0,2.2,0.2,3.3,0.6c0.9,0.3,1.7,0.9,2.3,1.6c0.6,0.8,1,1.7,1.3,2.7l-2,0.5c-0.2-0.7-0.5-1.4-0.9-2c-0.4-0.5-1-0.9-1.6-1.2
	c-0.7-0.3-1.5-0.4-2.3-0.4c-0.9,0-1.8,0.1-2.6,0.4c-0.7,0.3-1.3,0.7-1.8,1.2c-0.4,0.5-0.8,1.1-1,1.6c-0.4,1.1-0.6,2.2-0.6,3.3
	c0,1.3,0.2,2.6,0.8,3.7c0.5,1,1.3,1.8,2.2,2.2c1,0.5,2,0.7,3.1,0.7c1.8,0,3.5-0.6,4.9-1.7v-3.1L687.2,162.3L687.2,162.3L687.2,162.3
	z"/>
<path class="st5" d="M709.3,165.1h2.2v9.6c0,1.4-0.1,2.7-0.6,4c-0.4,1-1.1,1.9-2,2.4c-1.2,0.7-2.5,1-3.9,0.9
	c-1.3,0.1-2.6-0.2-3.8-0.8c-1-0.5-1.7-1.3-2.1-2.3c-0.5-1.3-0.7-2.8-0.6-4.2v-9.6h2.2v9.6c0,1.1,0.1,2.2,0.4,3.2
	c0.2,0.7,0.7,1.2,1.4,1.6c0.7,0.4,1.6,0.6,2.4,0.6c1.2,0.1,2.5-0.3,3.5-1.1c0.7-0.7,1-2.1,1-4.2L709.3,165.1L709.3,165.1
	L709.3,165.1z"/>
<path class="st5" d="M715.8,200.5l2.2,0.6c-0.3,1.6-1.2,3.1-2.5,4.1c-1.3,1-2.8,1.5-4.4,1.4c-1.5,0.1-3-0.3-4.4-1.1
	c-1.2-0.8-2-1.9-2.6-3.2c-0.6-1.4-0.9-2.9-0.9-4.4c0-1.6,0.3-3.1,1-4.5c0.6-1.2,1.6-2.3,2.8-2.9c1.2-0.7,2.6-1,4-1
	c1.5-0.1,3,0.4,4.2,1.3c1.2,0.9,2,2.1,2.4,3.6l-2.2,0.5c-0.3-1-0.8-1.9-1.7-2.6c-0.8-0.6-1.8-0.9-2.8-0.8c-1.1,0-2.3,0.3-3.2,0.9
	c-0.8,0.6-1.5,1.5-1.8,2.5c-0.3,1-0.5,2.1-0.5,3.2c0,1.3,0.2,2.5,0.6,3.7c0.3,1,1,1.8,1.9,2.4c0.8,0.5,1.8,0.8,2.8,0.8
	c1.1,0,2.3-0.4,3.1-1.1C714.9,202.9,715.5,201.8,715.8,200.5z"/>
<line class="st2" x1="708.6" y1="209.4" x2="708.6" y2="221.1"/>
<path d="M696.3,240.8l2.2-0.2c0.1,0.9,0.5,1.7,1.1,2.4c0.6,0.5,1.3,0.8,2.1,0.8c1,0,1.9-0.4,2.5-1.1c0.7-0.8,1.1-1.9,1-2.9
	c0-1-0.3-2-1-2.8c-0.7-0.7-1.6-1-2.6-1c-0.6,0-1.2,0.1-1.8,0.4c-0.5,0.3-0.9,0.7-1.2,1.2l-1.9-0.2l1.6-8.5h8.3v1.9h-6.6l-0.9,4.5
	c0.9-0.6,2-1,3.1-1c1.4,0,2.7,0.5,3.7,1.5c1,1,1.5,2.4,1.5,3.9c0,1.4-0.4,2.8-1.3,3.9c-1,1.3-2.7,2.1-4.3,2
	c-1.3,0.1-2.7-0.4-3.7-1.3C697,243.3,696.4,242.1,696.3,240.8L696.3,240.8L696.3,240.8z M709.3,236.9c0-1.6,0.2-3.2,0.6-4.7
	c0.3-1.1,1-2.1,1.8-2.8c0.8-0.7,1.9-1,3-1c0.8,0,1.6,0.2,2.3,0.5c0.7,0.4,1.2,0.9,1.7,1.6c0.5,0.8,0.8,1.6,1,2.5
	c0.3,1.3,0.4,2.6,0.4,3.9c0,1.6-0.2,3.2-0.6,4.7c-0.3,1.1-1,2-1.8,2.8c-2.1,1.6-5.1,1.3-6.8-0.7C709.8,242.3,709.3,240,709.3,236.9
	L709.3,236.9L709.3,236.9z M711.4,236.9c0,2.7,0.3,4.5,1,5.4c0.5,0.8,1.4,1.3,2.4,1.4c1,0,1.8-0.5,2.3-1.4c0.7-0.9,1-2.7,1-5.4
	s-0.3-4.5-1-5.4c-0.5-0.8-1.4-1.3-2.4-1.4c-0.9,0-1.8,0.4-2.2,1.2C711.8,232.3,711.4,234.2,711.4,236.9L711.4,236.9L711.4,236.9z"/>
<path class="st5" d="M690.8,198.8h2.2v9.6c0,1.4-0.1,2.7-0.6,4c-0.4,1-1.1,1.8-2,2.4c-1.2,0.7-2.5,1-3.9,0.9
	c-1.3,0.1-2.6-0.2-3.8-0.8c-1-0.5-1.7-1.3-2.1-2.3c-0.5-1.3-0.7-2.8-0.6-4.2v-9.6h2.2v9.6c0,1.1,0.1,2.2,0.4,3.2
	c0.3,0.7,0.8,1.2,1.4,1.6c0.7,0.4,1.6,0.6,2.4,0.6c1.2,0.1,2.5-0.3,3.5-1.1c0.7-0.7,1-2.1,1-4.2L690.8,198.8L690.8,198.8
	L690.8,198.8z"/>
<path class="st5" d="M668.9,194.6h2.2v9.6c0,1.4-0.1,2.7-0.6,4c-0.4,1-1.1,1.8-2,2.4c-1.2,0.7-2.5,1-3.9,0.9
	c-1.3,0.1-2.6-0.2-3.8-0.8c-1-0.5-1.7-1.3-2.1-2.3c-0.5-1.3-0.7-2.8-0.6-4.2v-9.6h2.2v9.6c0,1.1,0.1,2.2,0.4,3.2
	c0.2,0.7,0.7,1.2,1.3,1.6c0.7,0.4,1.6,0.6,2.4,0.6c1.2,0.1,2.5-0.3,3.5-1.1c0.7-0.7,1-2.1,1-4.2L668.9,194.6L668.9,194.6
	L668.9,194.6z"/>
<path class="st5" d="M651.5,194.6h2.2v9.6c0,1.4-0.1,2.7-0.6,4c-0.4,1-1.1,1.8-2,2.4c-1.2,0.7-2.5,1-3.9,0.9
	c-1.3,0.1-2.6-0.2-3.8-0.8c-1-0.5-1.7-1.3-2.1-2.3c-0.5-1.3-0.7-2.8-0.6-4.2v-9.6h2.2v9.6c0,1.1,0.1,2.2,0.4,3.2
	c0.3,0.7,0.8,1.2,1.4,1.6c0.7,0.4,1.6,0.6,2.4,0.6c1.2,0.1,2.5-0.3,3.5-1.1c0.7-0.7,1-2.1,1-4.2L651.5,194.6L651.5,194.6
	L651.5,194.6z"/>
<path class="st5" d="M630.4,204.7v-2h7v6.2c-1,0.8-2.1,1.5-3.3,1.9c-1.1,0.4-2.3,0.6-3.5,0.6c-1.5,0-3.1-0.3-4.5-1.1
	c-1.3-0.7-2.3-1.7-3-3c-0.7-1.4-1-2.9-1-4.4c0-1.6,0.3-3.1,1-4.5c0.6-1.3,1.6-2.4,2.9-3.1c1.4-0.7,2.9-1,4.4-1
	c1.1,0,2.2,0.2,3.3,0.6c0.9,0.3,1.7,0.9,2.3,1.6c0.6,0.8,1,1.7,1.3,2.7l-2,0.6c-0.2-0.7-0.5-1.4-0.9-2c-0.4-0.5-1-0.9-1.6-1.2
	c-0.7-0.3-1.5-0.4-2.3-0.4c-0.9,0-1.8,0.1-2.6,0.4c-0.7,0.3-1.3,0.7-1.8,1.2c-0.4,0.5-0.8,1-1,1.6c-0.4,1.1-0.6,2.2-0.6,3.4
	c0,1.3,0.2,2.6,0.8,3.7c0.5,1,1.3,1.8,2.2,2.2c1,0.5,2,0.7,3.1,0.7c1,0,1.9-0.2,2.8-0.6c0.8-0.3,1.4-0.7,2.1-1.2v-3.1L630.4,204.7
	L630.4,204.7L630.4,204.7z"/>
<path class="st5" d="M613,211.1v-2h7v6.2c-1,0.8-2.1,1.5-3.3,1.9c-1.1,0.4-2.3,0.7-3.5,0.7c-1.5,0-3.1-0.3-4.5-1
	c-1.3-0.7-2.3-1.7-3-3c-0.7-1.4-1-2.9-1-4.4c0-1.6,0.3-3.1,1-4.5c0.6-1.3,1.6-2.4,2.9-3.1c1.4-0.7,2.9-1,4.4-1
	c1.1,0,2.2,0.2,3.3,0.6c0.9,0.3,1.7,0.9,2.3,1.6c0.6,0.8,1,1.7,1.3,2.7l-2,0.6c-0.2-0.7-0.5-1.4-0.9-2c-0.4-0.5-1-0.9-1.6-1.2
	c-0.7-0.3-1.5-0.4-2.3-0.4c-0.9,0-1.8,0.1-2.6,0.4c-0.7,0.3-1.3,0.7-1.8,1.2c-0.4,0.5-0.8,1.1-1,1.6c-0.4,1.1-0.6,2.2-0.6,3.3
	c0,1.3,0.2,2.6,0.8,3.7c0.5,1,1.3,1.8,2.2,2.2c1,0.5,2,0.7,3.1,0.7c1.8,0,3.5-0.6,4.9-1.7v-3.1L613,211.1z"/>
<line class="st2" x1="130.6" y1="278.8" x2="130.6" y2="295.2"/>
<line class="st2" x1="271.7" y1="171.1" x2="271.7" y2="185.4"/>
<line class="st2" x1="433.8" y1="171.8" x2="433.8" y2="186.8"/>
<line class="st2" x1="150.4" y1="278.7" x2="150.4" y2="295.2"/>
<line class="st2" x1="113.5" y1="278.2" x2="113.5" y2="294.7"/>
<line class="st2" x1="360.4" y1="172.7" x2="360.4" y2="187.1"/>
<line class="st2" x1="379.5" y1="173.5" x2="379.5" y2="187.9"/>
<line class="st2" x1="394.4" y1="173.5" x2="394.4" y2="187.9"/>
<line class="st2" x1="362.7" y1="215.8" x2="362.7" y2="227.5"/>
<line class="st2" x1="415.2" y1="172.6" x2="415.2" y2="187"/>
<line class="st2" x1="454.3" y1="172.1" x2="454.3" y2="187.2"/>
<line class="st2" x1="471" y1="171.1" x2="471" y2="186.1"/>
<line class="st2" x1="488.3" y1="170.3" x2="488.3" y2="185.4"/>
<line class="st2" x1="506.8" y1="170.9" x2="506.8" y2="186"/>
<line class="st2" x1="524.3" y1="170.7" x2="524.3" y2="185.8"/>
<line class="st2" x1="540.9" y1="170.9" x2="540.9" y2="185.9"/>
<line class="st2" x1="557.1" y1="149.8" x2="557.1" y2="138.1"/>
<line class="st2" x1="556.9" y1="171.7" x2="556.9" y2="186.8"/>
<line class="st2" x1="574.1" y1="170.3" x2="574.1" y2="185.4"/>
<line class="st2" x1="629.8" y1="177.6" x2="629.8" y2="192.7"/>
<line class="st2" x1="647.1" y1="176.9" x2="647.1" y2="192"/>
<line class="st2" x1="663.7" y1="178.6" x2="663.7" y2="193.7"/>
<g>
	<g>
		<text transform="matrix(1 0 0 1 145.41 352.97)" class="st6 st7">5</text>
	</g>
	<g>
		<text transform="matrix(1 0 0 1 158.2 352.97)" class="st6 st7 st8">’</text>
	</g>
</g>
<g>
	<g>
		<text transform="matrix(1 0 0 1 264.5 312.25)" class="st6 st9">3</text>
	</g>
	<g>
		<text transform="matrix(1 0 0 1 277.85 312.25)" class="st6 st9 st8">’</text>
	</g>
</g>
<g>
	<text transform="matrix(1 0 0 1 43 39.25)" class="st6 st10">SLB10-1 aptamer</text>
</g>
</svg>
