<svg id="图层_1" data-name="图层 1" xmlns="http://www.w3.org/2000/svg" viewBox="0 0 800 400"><defs><style>.cls-1,.cls-10,.cls-11,.cls-12,.cls-13,.cls-14,.cls-2,.cls-6,.cls-7,.cls-8,.cls-9{isolation:isolate;}.cls-1,.cls-2,.cls-6,.cls-7{font-size:22.1px;font-family:Helvetica;}.cls-1,.cls-2{fill:#09fefe;}.cls-2,.cls-6{letter-spacing:-0.25em;}.cls-3,.cls-4{fill:none;}.cls-3,.cls-4,.cls-5{stroke:#000;stroke-miterlimit:3.05;}.cls-3{stroke-width:0.38px;}.cls-4{stroke-width:0.75px;}.cls-5{stroke-width:0.25px;}.cls-6,.cls-7{fill:#f0f;}.cls-10,.cls-11,.cls-12,.cls-13,.cls-9{font-size:20px;font-family:ArialMT, Arial;}.cls-10{letter-spacing:-0.08em;}.cls-11,.cls-12,.cls-13{fill:#251e1c;}.cls-11{letter-spacing:-0.09em;}.cls-13{letter-spacing:-0.11em;}.cls-14{fill:#228b22;opacity:0.7;}</style></defs><g id="ID000004"><text class="cls-1" transform="translate(270.02 171.55)">C</text></g><g id="ID000005"><text class="cls-2" transform="translate(290.02 171.13)">A</text></g><g id="ID000004-2"><text class="cls-1" transform="translate(310.02 171.13)">C</text></g><g id="ID000008"><text class="cls-1" transform="translate(310.02 221.47)">G</text></g><g id="ID000008-2"><text class="cls-1" transform="translate(350.02 171.13)">G</text></g><g id="ID000008-3"><text class="cls-1" transform="translate(330.02 171.13)">G</text></g><g id="ID000020"><line class="cls-3" x1="318" y1="201.3" x2="318" y2="175"/></g><g id="ID000044"><text class="cls-1" transform="translate(290.02 221.47)">U</text></g><g id="ID000020-2"><line class="cls-3" x1="298" y1="201.3" x2="298" y2="175"/></g><g id="ID000008-4"><text class="cls-1" transform="translate(270.02 221.47)">G</text></g><g id="ID000020-3"><line class="cls-3" x1="278" y1="201.3" x2="278" y2="175"/></g><g id="ID000004-3"><text class="cls-1" transform="translate(330.02 221.47)">C</text></g><g id="ID000020-4"><line class="cls-3" x1="338" y1="201.3" x2="338" y2="175"/></g><g id="ID000005-2"><text class="cls-2" transform="translate(351.08 221.89)">A</text></g><g id="ID000046"><polyline class="cls-4" points="358.77 201.19 356.99 201.28 356.77 175.11 356.77 175.11 356.77 175.11 358.55 175.02"/></g><g id="ID000048"><polygon class="cls-5" points="354 180.05 354.05 186 360 185.95 359.95 180 354 180.05"/></g><g id="ID000047"><polygon class="cls-5" points="356.35 196.93 356.54 196.97 356.73 196.99 356.91 197 357.11 197 357.3 196.99 357.49 196.97 357.67 196.93 357.86 196.88 358.04 196.81 358.21 196.75 358.38 196.66 358.55 196.57 358.71 196.47 358.86 196.36 359.01 196.23 359.15 196.1 359.28 195.96 359.39 195.81 359.5 195.66 359.6 195.49 359.69 195.32 359.77 195.15 359.84 194.97 359.9 194.79 359.94 194.6 359.97 194.42 359.99 194.23 360 194.04 359.99 193.85 359.98 193.66 359.95 193.47 359.91 193.28 359.86 193.1 359.8 192.92 359.73 192.75 359.64 192.57 359.54 192.41 359.44 192.25 359.32 192.1 359.2 191.96 359.06 191.82 358.92 191.7 358.77 191.57 358.61 191.47 358.45 191.37 358.28 191.29 358.1 191.21 357.93 191.14 357.74 191.1 357.56 191.06 357.37 191.02 357.18 191.01 356.99 191 356.8 191.01 356.61 191.03 356.42 191.06 356.24 191.1 356.05 191.15 355.88 191.22 355.7 191.29 355.53 191.38 355.37 191.48 355.22 191.59 355.07 191.71 354.92 191.84 354.79 191.97 354.67 192.12 354.55 192.27 354.45 192.43 354.36 192.6 354.27 192.77 354.2 192.94 354.14 193.12 354.08 193.3 354.05 193.49 354.02 193.68 354.01 193.87 354 194.06 354.01 194.25 354.03 194.44 354.07 194.62 354.12 194.81 354.17 194.99 354.24 195.17 354.32 195.34 354.41 195.51 354.51 195.67 354.62 195.83 354.75 195.97 354.87 196.12 355.01 196.25 355.16 196.37 355.31 196.48 355.47 196.58 355.63 196.67 355.81 196.75 355.98 196.83 356.17 196.88 356.35 196.93"/></g><g id="ID000044-2"><text class="cls-1" transform="translate(372.14 164.71)">U</text></g><g id="ID000005-3"><text class="cls-6" transform="translate(394.85 233.33)">A</text></g><g id="ID000004-4"><text class="cls-7" transform="translate(395.18 159.77)">C</text></g><g id="ID000004-5"><text class="cls-7" transform="translate(411.27 183.42)">C</text></g><g id="ID000004-6"><text class="cls-7" transform="translate(411.27 211.93)">C</text></g><g id="ID000008-5"><text class="cls-7" transform="translate(371.08 226.96)">G</text></g><g class="cls-8"><text class="cls-9" transform="translate(250.79 171.97)">5</text><text class="cls-10" transform="translate(261.91 171.97)">’</text></g><g class="cls-8"><text class="cls-9" transform="translate(250.79 221.47)">3</text><text class="cls-10" transform="translate(261.91 221.47)">’</text></g><g id="ID000006"><line class="cls-3" x1="401.79" y1="237.05" x2="401.79" y2="251.66"/></g><g id="ID000007"><text class="cls-9" transform="translate(390.77 269.17)">10</text></g><text class="cls-9" transform="translate(74.51 94.64)">LR06(GA) aptamer</text><g class="cls-8"><text class="cls-11" transform="translate(436.46 195.64)">T</text><text class="cls-12" transform="translate(447.19 195.64)">AR RN</text><text class="cls-13" transform="translate(509.42 195.64)">A</text></g><rect class="cls-14" x="436" y="177.99" width="88" height="20.32"/></svg>