<svg id="图层_1" data-name="图层 1" xmlns="http://www.w3.org/2000/svg" viewBox="0 0 800 400">
  <defs>
    <style>
      .cls-1, .cls-10, .cls-11, .cls-2, .cls-3, .cls-4, .cls-6, .cls-7, .cls-8, .cls-9 {
        isolation: isolate;
      }

      .cls-1, .cls-10, .cls-2, .cls-3, .cls-4, .cls-6, .cls-7, .cls-8, .cls-9 {
        font-size: 15.55px;
      }

      .cls-1, .cls-10, .cls-2 {
        fill: #9cf;
      }

      .cls-1, .cls-10, .cls-11, .cls-13, .cls-15, .cls-2, .cls-3, .cls-4, .cls-6, .cls-7, .cls-8, .cls-9 {
        font-family: ArialMT, Arial;
      }

      .cls-2, .cls-7 {
        letter-spacing: -0.06em;
      }

      .cls-3, .cls-4, .cls-7 {
        fill: #3c3;
      }

      .cls-10, .cls-3, .cls-9 {
        letter-spacing: -0.06em;
      }

      .cls-5 {
        fill: none;
      }

      .cls-12, .cls-5 {
        stroke: #000;
        stroke-miterlimit: 1.11;
        stroke-width: 0.14px;
      }

      .cls-8, .cls-9 {
        fill: #f93;
      }

      .cls-11 {
        font-size: 11.57px;
      }

      .cls-13 {
        font-size: 18px;
      }

      .cls-14 {
        letter-spacing: -0.04em;
      }

      .cls-15 {
        font-size: 20px;
      }
    </style>
  </defs>
  <g id="ID000002">
    <text class="cls-1" transform="translate(233.36 274.07)">G</text>
  </g>
  <g id="ID000003">
    <text class="cls-1" transform="translate(252.49 274.07)">G</text>
  </g>
  <g id="ID000004">
    <text class="cls-1" transform="translate(271.62 274.07)">G</text>
  </g>
  <g id="ID000005">
    <text class="cls-2" transform="translate(287.79 274.07)">A</text>
  </g>
  <g id="ID000006">
    <text class="cls-2" transform="translate(303.09 274.07)">A</text>
  </g>
  <g id="ID000007">
    <text class="cls-1" transform="translate(317.96 274.07)">U</text>
  </g>
  <g id="ID000008">
    <text class="cls-1" transform="translate(332.84 274.07)">G</text>
  </g>
  <g id="ID000009">
    <text class="cls-1" transform="translate(346.86 274.07)">G</text>
  </g>
  <g id="ID000010">
    <text class="cls-3" transform="translate(347.73 260.05)">A</text>
  </g>
  <g id="ID000011">
    <text class="cls-4" transform="translate(347.3 244.74)">U</text>
  </g>
  <g id="ID000012">
    <line class="cls-5" x1="342.71" y1="237.86" x2="332.51" y2="237.86"/>
  </g>
  <g id="ID000013">
    <text class="cls-6" transform="translate(315.21 244.74)">10</text>
  </g>
  <g id="ID000014">
    <text class="cls-4" transform="translate(347.3 229.44)">C</text>
  </g>
  <g id="ID000015">
    <text class="cls-4" transform="translate(347.3 214.14)">C</text>
  </g>
  <g id="ID000016">
    <text class="cls-3" transform="translate(347.73 198.83)">A</text>
  </g>
  <g id="ID000017">
    <text class="cls-3" transform="translate(394.91 186.08)">A</text>
  </g>
  <g id="ID000018">
    <text class="cls-4" transform="translate(377.9 198.83)">U</text>
  </g>
  <g id="ID000019">
    <text class="cls-4" transform="translate(377.47 214.14)">G</text>
  </g>
  <g id="ID000020">
    <text class="cls-4" transform="translate(377.47 229.44)">G</text>
  </g>
  <g id="ID000021">
    <line class="cls-5" x1="393.72" y1="222.55" x2="403.92" y2="222.55"/>
  </g>
  <g id="ID000022">
    <text class="cls-6" transform="translate(403.92 229.44)">40</text>
  </g>
  <g id="ID000023">
    <text class="cls-3" transform="translate(378.33 244.74)">A</text>
  </g>
  <g id="ID000024">
    <text class="cls-4" transform="translate(377.9 260.05)">U</text>
  </g>
  <g id="ID000025">
    <text class="cls-1" transform="translate(377.47 275.35)">G</text>
  </g>
  <g id="ID000026">
    <text class="cls-1" transform="translate(379.18 293.2)">U</text>
  </g>
  <g id="ID000027">
    <line class="cls-5" x1="359.03" y1="253.16" x2="377.4" y2="253.16"/>
  </g>
  <g id="ID000028">
    <line class="cls-5" x1="359.03" y1="237.86" x2="377.4" y2="237.86"/>
  </g>
  <g id="ID000029">
    <line class="cls-5" x1="359.03" y1="222.55" x2="377.4" y2="222.55"/>
  </g>
  <g id="ID000030">
    <line class="cls-5" x1="359.03" y1="207.25" x2="377.4" y2="207.25"/>
  </g>
  <g id="ID000031">
    <line class="cls-5" x1="359.03" y1="191.95" x2="377.4" y2="191.95"/>
  </g>
  <g id="ID000033">
    <text class="cls-4" transform="translate(348.57 178.43)">C</text>
  </g>
  <g id="ID000034">
    <text class="cls-3" transform="translate(349 163.13)">A</text>
  </g>
  <g id="ID000035">
    <text class="cls-4" transform="translate(348.57 147.82)">U</text>
  </g>
  <g id="ID000036">
    <text class="cls-4" transform="translate(348.57 132.52)">C</text>
  </g>
  <g id="ID000037">
    <text class="cls-4" transform="translate(348.57 117.21)">U</text>
  </g>
  <g id="ID000038">
    <text class="cls-3" transform="translate(349 101.91)">A</text>
  </g>
  <g id="ID000039">
    <text class="cls-4" transform="translate(348.57 86.61)">C</text>
  </g>
  <g id="ID000040">
    <line class="cls-5" x1="343.98" y1="79.72" x2="333.78" y2="79.72"/>
  </g>
  <g id="ID000041">
    <text class="cls-6" transform="translate(316.49 86.61)">20</text>
  </g>
  <g id="ID000042">
    <text class="cls-4" transform="translate(348.14 71.31)">G</text>
  </g>
  <g id="ID000043">
    <text class="cls-7" transform="translate(333.7 56)">A</text>
  </g>
  <g id="ID000044">
    <text class="cls-7" transform="translate(333.7 40.7)">A</text>
  </g>
  <g id="ID000045">
    <text class="cls-4" transform="translate(344.75 25.4)">U</text>
  </g>
  <g id="ID000046">
    <text class="cls-4" transform="translate(363.88 21.57)">U</text>
  </g>
  <g id="ID000047">
    <text class="cls-4" transform="translate(379.18 25.4)">C</text>
  </g>
  <g id="ID000048">
    <text class="cls-3" transform="translate(387.26 40.7)">A</text>
  </g>
  <g id="ID000049">
    <text class="cls-4" transform="translate(386.83 59.83)">C</text>
  </g>
  <g id="ID000050">
    <text class="cls-4" transform="translate(379.18 71.31)">C</text>
  </g>
  <g id="ID000051">
    <text class="cls-4" transform="translate(378.75 86.61)">G</text>
  </g>
  <g id="ID000052">
    <line class="cls-5" x1="395" y1="79.72" x2="405.2" y2="79.72"/>
  </g>
  <g id="ID000053">
    <text class="cls-6" transform="translate(405.2 86.61)">30</text>
  </g>
  <g id="ID000054">
    <text class="cls-4" transform="translate(379.18 101.91)">U</text>
  </g>
  <g id="ID000055">
    <text class="cls-3" transform="translate(379.61 117.21)">A</text>
  </g>
  <g id="ID000056">
    <text class="cls-4" transform="translate(378.75 132.52)">G</text>
  </g>
  <g id="ID000057">
    <text class="cls-3" transform="translate(379.61 147.82)">A</text>
  </g>
  <g id="ID000058">
    <text class="cls-4" transform="translate(379.18 163.13)">U</text>
  </g>
  <g id="ID000059">
    <text class="cls-4" transform="translate(378.75 178.43)">G</text>
  </g>
  <g id="ID000060">
    <line class="cls-5" x1="360.31" y1="171.54" x2="378.67" y2="171.54"/>
  </g>
  <g id="ID000061">
    <line class="cls-5" x1="360.31" y1="156.24" x2="378.67" y2="156.24"/>
  </g>
  <g id="ID000062">
    <line class="cls-5" x1="360.31" y1="140.93" x2="378.67" y2="140.93"/>
  </g>
  <g id="ID000063">
    <line class="cls-5" x1="360.31" y1="125.63" x2="378.67" y2="125.63"/>
  </g>
  <g id="ID000064">
    <line class="cls-5" x1="360.31" y1="110.33" x2="378.67" y2="110.33"/>
  </g>
  <g id="ID000065">
    <line class="cls-5" x1="360.31" y1="95.02" x2="378.67" y2="95.02"/>
  </g>
  <g id="ID000066">
    <line class="cls-5" x1="360.31" y1="79.72" x2="378.67" y2="79.72"/>
  </g>
  <g id="ID000067">
    <line class="cls-5" x1="360.31" y1="64.42" x2="378.67" y2="64.42"/>
  </g>
  <g id="ID000069">
    <text class="cls-1" transform="translate(390.22 304.68)">G</text>
  </g>
  <g id="ID000070">
    <text class="cls-8" transform="translate(405.96 304.68)">C</text>
  </g>
  <g id="ID000071">
    <text class="cls-8" transform="translate(420.83 304.68)">G</text>
  </g>
  <g id="ID000072">
    <text class="cls-8" transform="translate(436.13 304.68)">G</text>
  </g>
  <g id="ID000073">
    <text class="cls-8" transform="translate(451.87 304.68)">U</text>
  </g>
  <g id="ID000074">
    <text class="cls-9" transform="translate(446.25 336.63)">A</text>
  </g>
  <g id="ID000075">
    <text class="cls-8" transform="translate(421.26 335.29)">C</text>
  </g>
  <g id="ID000076">
    <text class="cls-8" transform="translate(405.53 335.29)">G</text>
  </g>
  <g id="ID000077">
    <text class="cls-10" transform="translate(396.88 346.77)">A</text>
  </g>
  <g id="ID000078">
    <text class="cls-10" transform="translate(384 355.69)">A</text>
  </g>
  <g id="ID000079">
    <text class="cls-1" transform="translate(366.36 358.24)">G</text>
  </g>
  <g id="ID000080">
    <text class="cls-1" transform="translate(351.06 351.75)">C</text>
  </g>
  <g id="ID000081">
    <text class="cls-1" transform="translate(340.66 340.43)">U</text>
  </g>
  <g id="ID000082">
    <text class="cls-1" transform="translate(336.04 324.15)">U</text>
  </g>
  <g id="ID000083">
    <line class="cls-5" x1="336.6" y1="324.2" x2="330.8" y2="332.6"/>
  </g>
  <g id="ID000084">
    <text class="cls-6" transform="translate(316.89 348.81)">80</text>
  </g>
  <g id="ID000085">
    <line class="cls-5" x1="411.57" y1="303.92" x2="411.57" y2="322.28"/>
  </g>
  <g id="ID000086">
    <line class="cls-5" x1="426.88" y1="303.92" x2="426.88" y2="322.28"/>
  </g>
  <g id="ID000088">
    <text class="cls-9" transform="translate(471.43 304.68)">A</text>
  </g>
  <g id="ID000089">
    <line class="cls-5" x1="476.61" y1="287.59" x2="476.61" y2="277.39"/>
  </g>
  <g id="ID000090">
    <text class="cls-6" transform="translate(467.97 273.57)">50</text>
  </g>
  <g id="ID000091">
    <text class="cls-8" transform="translate(485.87 304.68)">G</text>
  </g>
  <g id="ID000092">
    <text class="cls-9" transform="translate(502.03 304.68)">A</text>
  </g>
  <g id="ID000093">
    <text class="cls-8" transform="translate(516.48 304.68)">G</text>
  </g>
  <g id="ID000094">
    <text class="cls-8" transform="translate(532.21 304.68)">U</text>
  </g>
  <g id="ID000095">
    <text class="cls-8" transform="translate(547.52 304.68)">C</text>
  </g>
  <g id="ID000096">
    <text class="cls-8" transform="translate(562.82 304.68)">U</text>
  </g>
  <g id="ID000097">
    <text class="cls-8" transform="translate(578.12 297.03)">U</text>
  </g>
  <g id="ID000098">
    <text class="cls-8" transform="translate(597.25 293.2)">U</text>
  </g>
  <g id="ID000099">
    <text class="cls-8" transform="translate(612.55 300.86)">C</text>
  </g>
  <g id="ID000100">
    <text class="cls-9" transform="translate(624.46 316.16)">A</text>
  </g>
  <g id="ID000101">
    <line class="cls-5" x1="636.86" y1="302.06" x2="644.07" y2="294.84"/>
  </g>
  <g id="ID000102">
    <text class="cls-11" transform="translate(649.27 289.54)">60</text>
  </g>
  <g id="ID000103">
    <text class="cls-8" transform="translate(624.03 335.29)">C</text>
  </g>
  <g id="ID000104">
    <text class="cls-8" transform="translate(608.73 346.77)">U</text>
  </g>
  <g id="ID000105">
    <text class="cls-8" transform="translate(592.99 346.77)">G</text>
  </g>
  <g id="ID000106">
    <text class="cls-8" transform="translate(578.12 342.94)">C</text>
  </g>
  <g id="ID000107">
    <text class="cls-9" transform="translate(563.25 335.29)">A</text>
  </g>
  <g id="ID000108">
    <text class="cls-8" transform="translate(547.08 335.29)">G</text>
  </g>
  <g id="ID000109">
    <text class="cls-9" transform="translate(532.64 335.29)">A</text>
  </g>
  <g id="ID000110">
    <text class="cls-8" transform="translate(516.91 335.29)">C</text>
  </g>
  <g id="ID000111">
    <text class="cls-8" transform="translate(501.61 335.29)">U</text>
  </g>
  <g id="ID000112">
    <text class="cls-8" transform="translate(486.3 335.29)">U</text>
  </g>
  <g id="ID000113">
    <line class="cls-5" x1="491.92" y1="338.6" x2="491.92" y2="348.81"/>
  </g>
  <g id="ID000114">
    <text class="cls-6" transform="translate(483.27 366.86)">70</text>
  </g>
  <g id="ID000115">
    <text class="cls-8" transform="translate(462.39 336.91)">G</text>
  </g>
  <g id="ID000116">
    <polygon class="cls-12" points="491.92 316.16 492.11 316.15 492.3 316.13 492.5 316.1 492.69 316.06 492.87 316 493.06 315.94 493.23 315.86 493.4 315.77 493.57 315.67 493.73 315.56 493.88 315.44 494.03 315.31 494.17 315.17 494.29 315.03 494.41 314.87 494.52 314.71 494.62 314.54 494.7 314.37 494.78 314.19 494.84 314.01 494.89 313.82 494.93 313.63 494.96 313.44 494.97 313.24 494.98 313.05 494.97 312.86 494.95 312.66 494.91 312.47 494.87 312.28 494.81 312.1 494.74 311.92 494.66 311.74 494.57 311.57 494.46 311.4 494.35 311.24 494.23 311.09 494.1 310.95 493.96 310.82 493.81 310.69 493.65 310.58 493.49 310.47 493.32 310.38 493.14 310.29 492.96 310.22 492.78 310.16 492.59 310.11 492.4 310.07 492.21 310.05 492.01 310.04 491.82 310.04 491.63 310.05 491.43 310.07 491.24 310.11 491.05 310.16 490.87 310.22 490.69 310.29 490.51 310.38 490.35 310.47 490.18 310.58 490.02 310.69 489.88 310.82 489.74 310.95 489.6 311.09 489.48 311.24 489.37 311.4 489.27 311.57 489.17 311.74 489.09 311.92 489.02 312.1 488.97 312.28 488.92 312.47 488.89 312.66 488.87 312.86 488.86 313.05 488.86 313.24 488.88 313.44 488.9 313.63 488.94 313.82 488.99 314.01 489.06 314.19 489.13 314.37 489.22 314.54 489.32 314.71 489.42 314.87 489.54 315.03 489.67 315.17 489.81 315.31 489.95 315.44 490.1 315.56 490.26 315.67 490.43 315.77 490.6 315.86 490.78 315.94 490.96 316 491.15 316.06 491.34 316.1 491.53 316.13 491.72 316.15 491.92 316.16"/>
  </g>
  <g id="ID000117">
    <line class="cls-5" x1="507.22" y1="303.92" x2="507.22" y2="322.28"/>
  </g>
  <g id="ID000118">
    <line class="cls-5" x1="522.52" y1="303.92" x2="522.52" y2="322.28"/>
  </g>
  <g id="ID000119">
    <line class="cls-5" x1="537.83" y1="303.92" x2="537.83" y2="322.28"/>
  </g>
  <g id="ID000120">
    <line class="cls-5" x1="553.13" y1="303.92" x2="553.13" y2="322.28"/>
  </g>
  <g id="ID000121">
    <line class="cls-5" x1="568.43" y1="303.92" x2="568.43" y2="322.28"/>
  </g>
  <text class="cls-13" transform="translate(222.04 253.16)">5<tspan class="cls-14" x="10.01" y="0">’</tspan></text>
  <text class="cls-13" transform="translate(298.19 331.62)">3<tspan class="cls-14" x="10.01" y="0">’</tspan></text>
  <text class="cls-15" transform="translate(25.06 37.15)">RNA20 aptamer</text>
</svg>
