<?xml version="1.0" encoding="UTF-8"?>
<svg id="_图层_1" data-name="图层 1" xmlns="http://www.w3.org/2000/svg" viewBox="0 0 400 400">
  <defs>
    <style>
      .cls-1, .cls-2 {
        fill: #999;
      }

      .cls-1, .cls-2, .cls-3, .cls-4, .cls-5, .cls-6, .cls-7, .cls-8, .cls-9, .cls-10, .cls-11 {
        font-family: ArialMT, Arial;
      }

      .cls-1, .cls-2, .cls-3, .cls-5, .cls-6, .cls-7, .cls-9, .cls-10, .cls-11 {
        font-size: 14.84px;
        isolation: isolate;
      }

      .cls-1, .cls-9, .cls-10 {
        letter-spacing: -.06em;
      }

      .cls-12 {
        fill: none;
      }

      .cls-12, .cls-13 {
        stroke: #000;
        stroke-miterlimit: 1.11;
        stroke-width: .14px;
      }

      .cls-3, .cls-10 {
        fill: #390;
      }

      .cls-4 {
        font-size: 20px;
      }

      .cls-4, .cls-6, .cls-13, .cls-8 {
        fill: #000;
      }

      .cls-5, .cls-7 {
        fill: #f39;
      }

      .cls-7 {
        letter-spacing: -.06em;
      }

      .cls-8 {
        font-size: 16px;
      }

      .cls-9, .cls-11 {
        fill: #f93;
      }

      .cls-14 {
        letter-spacing: -.04em;
      }
    </style>
  </defs>
  <g id="ID000002">
    <text class="cls-11" transform="translate(182.51 185.9)"><tspan x="0" y="0">G</tspan></text>
  </g>
  <g id="ID000003">
    <text class="cls-10" transform="translate(198.39 200.97)"><tspan x="0" y="0">A</tspan></text>
  </g>
  <g id="ID000004">
    <text class="cls-3" transform="translate(213.05 200.97)"><tspan x="0" y="0">C</tspan></text>
  </g>
  <g id="ID000005">
    <text class="cls-3" transform="translate(231.88 189.67)"><tspan x="0" y="0">U</tspan></text>
  </g>
  <g id="ID000006">
    <text class="cls-3" transform="translate(231.88 242.39)"><tspan x="0" y="0">U</tspan></text>
  </g>
  <g id="ID000007">
    <text class="cls-3" transform="translate(212.63 231.09)"><tspan x="0" y="0">G</tspan></text>
  </g>
  <g id="ID000008">
    <text class="cls-3" transform="translate(197.98 231.09)"><tspan x="0" y="0">U</tspan></text>
  </g>
  <g id="ID000009">
    <text class="cls-11" transform="translate(182.51 242.39)"><tspan x="0" y="0">G</tspan></text>
  </g>
  <g id="ID000010">
    <line class="cls-12" x1="203.34" y1="200.21" x2="203.34" y2="218.29"/>
  </g>
  <g id="ID000011">
    <line class="cls-12" x1="218.41" y1="200.21" x2="218.41" y2="218.29"/>
  </g>
  <g id="ID000013">
    <text class="cls-2" transform="translate(31.87 185.9)"><tspan x="0" y="0">G</tspan></text>
  </g>
  <g id="ID000014">
    <text class="cls-2" transform="translate(46.94 185.9)"><tspan x="0" y="0">G</tspan></text>
  </g>
  <g id="ID000015">
    <text class="cls-2" transform="translate(62 185.9)"><tspan x="0" y="0">G</tspan></text>
  </g>
  <g id="ID000016">
    <text class="cls-1" transform="translate(77.89 185.9)"><tspan x="0" y="0">A</tspan></text>
  </g>
  <g id="ID000017">
    <text class="cls-2" transform="translate(92.54 185.9)"><tspan x="0" y="0">C</tspan></text>
  </g>
  <g id="ID000018">
    <text class="cls-11" transform="translate(107.19 197.2)"><tspan x="0" y="0">G</tspan></text>
  </g>
  <g id="ID000019">
    <text class="cls-11" transform="translate(122.67 197.2)"><tspan x="0" y="0">C</tspan></text>
  </g>
  <g id="ID000020">
    <text class="cls-9" transform="translate(138.14 197.2)"><tspan x="0" y="0">A</tspan></text>
  </g>
  <g id="ID000021">
    <text class="cls-11" transform="translate(152.38 197.2)"><tspan x="0" y="0">G</tspan></text>
  </g>
  <g id="ID000022">
    <text class="cls-11" transform="translate(167.44 185.9)"><tspan x="0" y="0">G</tspan></text>
  </g>
  <g id="ID000023">
    <line class="cls-12" x1="173.22" y1="169.08" x2="173.22" y2="159.04"/>
  </g>
  <g id="ID000024">
    <text class="cls-6" transform="translate(164.96 155.27)"><tspan x="0" y="0">10</tspan></text>
  </g>
  <g id="ID000025">
    <text class="cls-9" transform="translate(168.27 242.39)"><tspan x="0" y="0">A</tspan></text>
  </g>
  <g id="ID000026">
    <text class="cls-11" transform="translate(152.79 227.33)"><tspan x="0" y="0">C</tspan></text>
  </g>
  <g id="ID000027">
    <line class="cls-12" x1="158.15" y1="230.59" x2="158.15" y2="240.63"/>
  </g>
  <g id="ID000028">
    <text class="cls-6" transform="translate(149.9 258.41)"><tspan x="0" y="0">40</tspan></text>
  </g>
  <g id="ID000029">
    <text class="cls-11" transform="translate(137.73 227.33)"><tspan x="0" y="0">U</tspan></text>
  </g>
  <g id="ID000030">
    <text class="cls-11" transform="translate(122.25 227.33)"><tspan x="0" y="0">G</tspan></text>
  </g>
  <g id="ID000031">
    <text class="cls-11" transform="translate(107.6 227.33)"><tspan x="0" y="0">U</tspan></text>
  </g>
  <g id="ID000032">
    <text class="cls-1" transform="translate(92.95 238.62)"><tspan x="0" y="0">A</tspan></text>
  </g>
  <g id="ID000033">
    <text class="cls-2" transform="translate(77.06 238.62)"><tspan x="0" y="0">G</tspan></text>
  </g>
  <g id="ID000034">
    <text class="cls-2" transform="translate(62.41 238.62)"><tspan x="0" y="0">C</tspan></text>
  </g>
  <g id="ID000035">
    <text class="cls-2" transform="translate(46.94 238.62)"><tspan x="0" y="0">G</tspan></text>
  </g>
  <g id="ID000036">
    <text class="cls-2" transform="translate(31.87 238.62)"><tspan x="0" y="0">G</tspan></text>
  </g>
  <g id="ID000037">
    <polygon class="cls-13" points="112.96 208.5 113.15 208.49 113.34 208.47 113.53 208.44 113.72 208.4 113.9 208.35 114.08 208.28 114.26 208.21 114.43 208.12 114.59 208.02 114.75 207.91 114.9 207.79 115.04 207.67 115.18 207.53 115.3 207.39 115.42 207.23 115.52 207.07 115.62 206.91 115.7 206.74 115.78 206.56 115.84 206.38 115.89 206.2 115.93 206.01 115.96 205.82 115.97 205.63 115.98 205.44 115.97 205.25 115.95 205.06 115.91 204.87 115.87 204.68 115.81 204.5 115.74 204.32 115.66 204.15 115.57 203.98 115.47 203.82 115.36 203.66 115.24 203.51 115.11 203.37 114.97 203.24 114.83 203.12 114.67 203 114.51 202.9 114.34 202.81 114.17 202.73 113.99 202.65 113.81 202.59 113.63 202.55 113.44 202.51 113.25 202.49 113.06 202.47 112.87 202.47 112.68 202.49 112.49 202.51 112.3 202.55 112.11 202.59 111.93 202.65 111.76 202.73 111.58 202.81 111.42 202.9 111.25 203 111.1 203.12 110.95 203.24 110.82 203.37 110.69 203.51 110.57 203.66 110.45 203.82 110.35 203.98 110.26 204.15 110.18 204.32 110.12 204.5 110.06 204.68 110.01 204.87 109.98 205.06 109.96 205.25 109.95 205.44 109.95 205.63 109.97 205.82 110 206.01 110.04 206.2 110.09 206.38 110.15 206.56 110.22 206.74 110.31 206.91 110.4 207.07 110.51 207.23 110.62 207.39 110.75 207.53 110.88 207.67 111.03 207.79 111.18 207.91 111.33 208.02 111.5 208.12 111.67 208.21 111.84 208.28 112.02 208.35 112.21 208.4 112.39 208.44 112.58 208.47 112.77 208.49 112.96 208.5"/>
  </g>
  <g id="ID000038">
    <line class="cls-12" x1="128.03" y1="196.45" x2="128.03" y2="214.52"/>
  </g>
  <g id="ID000039">
    <line class="cls-12" x1="143.09" y1="196.45" x2="143.09" y2="214.52"/>
  </g>
  <g id="ID000040">
    <line class="cls-12" x1="158.15" y1="196.45" x2="158.15" y2="214.52"/>
  </g>
  <g id="ID000042">
    <text class="cls-5" transform="translate(246.53 200.97)"><tspan x="0" y="0">G</tspan></text>
  </g>
  <g id="ID000043">
    <text class="cls-5" transform="translate(262 200.97)"><tspan x="0" y="0">U</tspan></text>
  </g>
  <g id="ID000044">
    <text class="cls-7" transform="translate(277.48 200.97)"><tspan x="0" y="0">A</tspan></text>
  </g>
  <g id="ID000045">
    <text class="cls-5" transform="translate(292.13 200.97)"><tspan x="0" y="0">C</tspan></text>
  </g>
  <g id="ID000046">
    <text class="cls-5" transform="translate(306.78 200.97)"><tspan x="0" y="0">G</tspan></text>
  </g>
  <g id="ID000047">
    <text class="cls-5" transform="translate(321.84 200.97)"><tspan x="0" y="0">G</tspan></text>
  </g>
  <g id="ID000048">
    <line class="cls-12" x1="327.61" y1="184.15" x2="327.61" y2="174.1"/>
  </g>
  <g id="ID000049">
    <text class="cls-6" transform="translate(319.36 170.34)"><tspan x="0" y="0">20</tspan></text>
  </g>
  <g id="ID000050">
    <text class="cls-7" transform="translate(337.73 189.67)"><tspan x="0" y="0">A</tspan></text>
  </g>
  <g id="ID000051">
    <text class="cls-5" transform="translate(352.38 189.67)"><tspan x="0" y="0">U</tspan></text>
  </g>
  <g id="ID000052">
    <text class="cls-5" transform="translate(367.45 193.43)"><tspan x="0" y="0">C</tspan></text>
  </g>
  <g id="ID000053">
    <text class="cls-7" transform="translate(379.15 208.5)"><tspan x="0" y="0">A</tspan></text>
  </g>
  <g id="ID000054">
    <text class="cls-5" transform="translate(378.33 227.33)"><tspan x="0" y="0">G</tspan></text>
  </g>
  <g id="ID000055">
    <text class="cls-7" transform="translate(371.62 242.39)"><tspan x="0" y="0">A</tspan></text>
  </g>
  <g id="ID000056">
    <text class="cls-5" transform="translate(351.97 249.92)"><tspan x="0" y="0">G</tspan></text>
  </g>
  <g id="ID000057">
    <text class="cls-5" transform="translate(337.32 242.39)"><tspan x="0" y="0">U</tspan></text>
  </g>
  <g id="ID000058">
    <text class="cls-5" transform="translate(322.26 231.09)"><tspan x="0" y="0">C</tspan></text>
  </g>
  <g id="ID000059">
    <text class="cls-5" transform="translate(307.19 231.09)"><tspan x="0" y="0">U</tspan></text>
  </g>
  <g id="ID000060">
    <line class="cls-12" x1="312.55" y1="234.36" x2="312.55" y2="244.4"/>
  </g>
  <g id="ID000061">
    <text class="cls-6" transform="translate(304.3 262.17)"><tspan x="0" y="0">30</tspan></text>
  </g>
  <g id="ID000062">
    <text class="cls-5" transform="translate(292.13 231.09)"><tspan x="0" y="0">C</tspan></text>
  </g>
  <g id="ID000063">
    <text class="cls-5" transform="translate(277.07 231.09)"><tspan x="0" y="0">C</tspan></text>
  </g>
  <g id="ID000064">
    <text class="cls-5" transform="translate(262 231.09)"><tspan x="0" y="0">U</tspan></text>
  </g>
  <g id="ID000065">
    <text class="cls-7" transform="translate(247.35 231.09)"><tspan x="0" y="0">A</tspan></text>
  </g>
  <g id="ID000066">
    <line class="cls-12" x1="252.3" y1="200.21" x2="252.3" y2="218.29"/>
  </g>
  <g id="ID000067">
    <line class="cls-12" x1="267.36" y1="200.21" x2="267.36" y2="218.29"/>
  </g>
  <g id="ID000068">
    <line class="cls-12" x1="282.43" y1="200.21" x2="282.43" y2="218.29"/>
  </g>
  <g id="ID000069">
    <line class="cls-12" x1="297.49" y1="200.21" x2="297.49" y2="218.29"/>
  </g>
  <g id="ID000070">
    <polygon class="cls-13" points="312.55 212.26 312.74 212.26 312.93 212.24 313.12 212.21 313.31 212.17 313.49 212.11 313.67 212.05 313.85 211.97 314.02 211.88 314.18 211.79 314.34 211.68 314.49 211.56 314.63 211.43 314.76 211.3 314.89 211.15 315.01 211 315.11 210.84 315.21 210.67 315.29 210.5 315.37 210.33 315.43 210.15 315.48 209.96 315.52 209.77 315.55 209.58 315.56 209.39 315.56 209.2 315.55 209.01 315.53 208.82 315.5 208.63 315.46 208.45 315.4 208.27 315.33 208.09 315.25 207.91 315.16 207.74 315.06 207.58 314.95 207.43 314.83 207.28 314.7 207.14 314.56 207.01 314.41 206.88 314.26 206.77 314.1 206.67 313.93 206.57 313.76 206.49 313.58 206.42 313.4 206.36 313.22 206.31 313.03 206.28 312.84 206.25 312.65 206.24 312.46 206.24 312.27 206.25 312.08 206.28 311.89 206.31 311.7 206.36 311.52 206.42 311.34 206.49 311.17 206.57 311 206.67 310.84 206.77 310.69 206.88 310.54 207.01 310.4 207.14 310.28 207.28 310.15 207.43 310.04 207.58 309.94 207.74 309.85 207.91 309.77 208.09 309.71 208.27 309.65 208.45 309.6 208.63 309.57 208.82 309.55 209.01 309.54 209.2 309.54 209.39 309.56 209.58 309.59 209.77 309.62 209.96 309.67 210.15 309.74 210.33 309.81 210.5 309.9 210.67 309.99 210.84 310.1 211 310.21 211.15 310.34 211.3 310.47 211.43 310.62 211.56 310.77 211.68 310.92 211.79 311.09 211.88 311.26 211.97 311.43 212.05 311.61 212.11 311.8 212.17 311.98 212.21 312.17 212.24 312.36 212.26 312.55 212.26"/>
  </g>
  <g id="ID000071">
    <line class="cls-12" x1="327.61" y1="200.21" x2="327.61" y2="218.29"/>
  </g>
  <text class="cls-4" transform="translate(9.67 31.24)"><tspan x="0" y="0">C1 aptamer</tspan></text>
  <text class="cls-8" transform="translate(21.16 174.1)"><tspan x="0" y="0">5</tspan><tspan class="cls-14" x="8.9" y="0">’</tspan></text>
  <text class="cls-8" transform="translate(19.91 255.15)"><tspan x="0" y="0">3</tspan><tspan class="cls-14" x="8.9" y="0">’</tspan></text>
</svg>