<?xml version="1.0" encoding="utf-8"?>
<!-- Generator: Adobe Illustrator 25.2.0, SVG Export Plug-In . SVG Version: 6.00 Build 0)  -->
<svg version="1.1" id="图层_1" xmlns="http://www.w3.org/2000/svg" xmlns:xlink="http://www.w3.org/1999/xlink" x="0px" y="0px"
	 viewBox="0 0 800 400" style="enable-background:new 0 0 800 400;" xml:space="preserve">
<style type="text/css">
	.st0{fill:#80DB9E;}
	.st1{font-family:'ArialMT';}
	.st2{font-size:30px;}
	.st3{fill:none;stroke:#000000;stroke-width:0.38;stroke-miterlimit:3.05;}
	.st4{fill:#CC00FF;}
	.st5{font-size:20px;}
	.st6{font-size:25px;}
	.st7{font-size:24px;}
	.st8{font-size:23px;}
</style>
<g id="ID000002">
	<text transform="matrix(1 0 0 1 435.5764 345.3152)" class="st0 st1 st2">C</text>
</g>
<g id="ID000003">
	<text transform="matrix(1 0 0 1 435.8465 303.1152)" class="st0 st1 st2">C</text>
</g>
<g id="ID000004">
	<text transform="matrix(1 0 0 1 465.369 271.7152)" class="st0 st1 st2">A</text>
</g>
<g id="ID000005">
	<text transform="matrix(1 0 0 1 350.2765 302.5752)" class="st0 st1 st2">G</text>
</g>
<g id="ID000006">
	<text transform="matrix(1 0 0 1 351.8664 345.315)" class="st0 st1 st2">G</text>
</g>
<g id="ID000007">
	<line class="st3" x1="433.6" y1="334" x2="383" y2="333.6"/>
</g>
<g id="ID000008">
	<line class="st3" x1="433.3" y1="292" x2="382.7" y2="291.8"/>
</g>
<g id="ID000010">
	<text transform="matrix(1 0 0 1 436.1865 250.3452)" class="st0 st1 st2">C</text>
</g>
<g id="ID000011">
	<text transform="matrix(1 0 0 1 437.5965 208.1352)" class="st0 st1 st2">A</text>
</g>
<g id="ID000012">
	<text transform="matrix(1 0 0 1 435.5665 165.9352)" class="st0 st1 st2">G</text>
</g>
<g id="ID000013">
	<text transform="matrix(1 0 0 1 436.9965 123.7252)" class="st0 st1 st2">U</text>
</g>
<g id="ID000014">
	<text transform="matrix(1 0 0 1 394.4765 88.3252)" class="st4 st1 st2">C</text>
</g>
<g id="ID000015">
	<text transform="matrix(1 0 0 1 350.2265 119.6452)" class="st4 st1 st2">A</text>
</g>
<g id="ID000016">
	<text transform="matrix(1 0 0 1 352.3065 165.3952)" class="st0 st1 st2">C</text>
</g>
<g id="ID000017">
	<line class="st3" x1="345.3" y1="154" x2="317.2" y2="153.8"/>
</g>
<g id="ID000018">
	<text transform="matrix(1 0 0 1 287.4165 159.6952)" class="st1 st5">10</text>
</g>
<g id="ID000019">
	<text transform="matrix(1 0 0 1 352.0365 207.6052)" class="st0 st1 st2">U</text>
</g>
<g id="ID000020">
	<text transform="matrix(1 0 0 1 350.6165 249.8152)" class="st0 st1 st2">G</text>
</g>
<g id="ID000021">
	<line class="st3" x1="434.4" y1="239.1" x2="383.7" y2="238.8"/>
</g>
<g id="ID000022">
	<line class="st3" x1="433.6" y1="196.9" x2="383" y2="196.6"/>
</g>
<g id="ID000023">
	<line class="st3" x1="435" y1="154.9" x2="384.4" y2="154.5"/>
</g>
<text transform="matrix(1 0 0 1 187.2188 47.4108)" class="st1 st6">F6 aptamer</text>
<text transform="matrix(1 0 0 1 469.6133 354.0518)" class="st1 st7">5’</text>
<text transform="matrix(1 0 0 1 322.9998 354.3399)" class="st1 st8">3’</text>
</svg>
