<?xml version="1.0" encoding="utf-8"?>
<!-- Generator: Adobe Illustrator 25.2.0, SVG Export Plug-In . SVG Version: 6.00 Build 0)  -->
<svg version="1.1" id="图层_1" xmlns="http://www.w3.org/2000/svg" xmlns:xlink="http://www.w3.org/1999/xlink" x="0px" y="0px"
	 viewBox="0 0 800 400" style="enable-background:new 0 0 800 400;" xml:space="preserve">
<style type="text/css">
	.st0{fill:#00FF00;}
	.st1{font-family:'ArialMT';}
	.st2{font-size:30px;}
	.st3{letter-spacing:-1;}
	.st4{fill:none;stroke:#000000;stroke-width:0.38;stroke-miterlimit:3.05;}
	.st5{fill:#FF00FF;}
	.st6{font-size:20px;}
	.st7{font-size:25px;}
</style>
<g id="ID000002">
	<text transform="matrix(1 0 0 1 278.5 207.29)" class="st0 st1 st2">C</text>
</g>
<g id="ID000003">
	<text transform="matrix(1 0 0 1 320.7 207.45)" class="st0 st1 st2">C</text>
</g>
<g id="ID000004">
	<g>
		<text transform="matrix(-1 0 0 1 373.0195 179.24)" class="st0 st1 st2 st3">A</text>
	</g>
</g>
<g id="ID000005">
	<g>
		<text transform="matrix(1 0 0 1 320.19 291.46)" class="st0 st1 st2 st3">G</text>
	</g>
</g>
<g id="ID000006">
	<g>
		<text transform="matrix(1 0 0 1 277.45 293.16)" class="st0 st1 st2 st3">G</text>
	</g>
</g>
<g id="ID000007">
	<line class="st4" x1="289.9" y1="212" x2="290.2" y2="262.6"/>
</g>
<g id="ID000008">
	<line class="st4" x1="331.9" y1="212" x2="332" y2="262.6"/>
</g>
<g id="ID000010">
	<text transform="matrix(1 0 0 1 373.48 207.65)" class="st0 st1 st2">C</text>
</g>
<g id="ID000011">
	<text transform="matrix(1 0 0 1 416.51 208.13)" class="st0 st1 st2 st3">A</text>
</g>
<g id="ID000012">
	<text transform="matrix(1 0 0 1 457.05 207.65)" class="st0 st1 st2">G</text>
</g>
<g id="ID000013">
	<text transform="matrix(1 0 0 1 500.1 208.14)" class="st5 st1 st2">U</text>
</g>
<g id="ID000014">
	<text transform="matrix(1 0 0 1 535.38 249.78)" class="st5 st1 st2">C</text>
</g>
<g id="ID000015">
	<g>
		<text transform="matrix(1 0 0 1 504.77 289.28)" class="st0 st1 st2 st3">A</text>
	</g>
</g>
<g id="ID000016">
	<g>
		<text transform="matrix(1 0 0 1 458.21 292.3)" class="st0 st1 st2 st3">C</text>
	</g>
</g>
<g id="ID000017">
	<line class="st4" x1="472.4" y1="301.6" x2="472.5" y2="329.7"/>
</g>
<g id="ID000018">
	<text transform="matrix(1 0 0 1 460.79 353.69)" class="st1 st6">10</text>
</g>
<g id="ID000019">
	<g>
		<text transform="matrix(1 0 0 1 416 292.14)" class="st0 st1 st2 st3">U</text>
	</g>
</g>
<g id="ID000020">
	<g>
		<text transform="matrix(1 0 0 1 372.95 291.66)" class="st0 st1 st2 st3">G</text>
	</g>
</g>
<g id="ID000021">
	<line class="st4" x1="384.8" y1="212" x2="385" y2="262.7"/>
</g>
<g id="ID000022">
	<line class="st4" x1="427" y1="212" x2="427.2" y2="262.6"/>
</g>
<g id="ID000023">
	<line class="st4" x1="469" y1="212" x2="469.3" y2="262.6"/>
</g>
<text transform="matrix(1 0 0 1 345.67 29.53)" class="st1 st7">F6 aptamer</text>
<text transform="matrix(1 0 0 1 270.18 174.29)" class="st1 st6">5</text>
<text transform="matrix(1 0 0 1 281.3 174.29)" class="st1 st6">’</text>
<text transform="matrix(1 0 0 1 269.93 319.1)" class="st1 st6">3</text>
<text transform="matrix(1 0 0 1 281.05 319.1)" class="st1 st6">’</text>
</svg>
