<?xml version="1.0" encoding="UTF-8"?>
<svg id="_图层_1" data-name="图层 1" xmlns="http://www.w3.org/2000/svg" viewBox="0 0 800 400">
  <defs>
    <style>
      .cls-1 {
        fill: #09fefe;
      }

      .cls-1, .cls-2, .cls-3, .cls-4, .cls-5, .cls-6 {
        stroke-width: 0px;
      }

      .cls-7 {
        letter-spacing: -.08em;
      }

      .cls-7, .cls-2, .cls-8, .cls-9, .cls-10 {
        fill: #000;
      }

      .cls-7, .cls-8, .cls-11, .cls-9, .cls-10 {
        isolation: isolate;
      }

      .cls-7, .cls-8, .cls-9, .cls-10 {
        font-family: ArialMT, Arial;
      }

      .cls-7, .cls-9 {
        font-size: 27.45px;
      }

      .cls-8 {
        font-size: 15.25px;
      }

      .cls-3 {
        fill: #ff0;
      }

      .cls-10 {
        font-size: 20px;
      }

      .cls-4 {
        fill: #c2c2ff;
      }

      .cls-12 {
        fill: none;
        stroke: #000;
        stroke-linejoin: round;
        stroke-width: 1.33px;
      }

      .cls-5 {
        fill: #f0f;
      }

      .cls-6 {
        fill: #32cd32;
      }
    </style>
  </defs>
  <rect class="cls-3" x="351.71" y="172.66" width="105.68" height="22.3"/>
  <path class="cls-1" d="M236.85,158.22v-3.28h10.93v10.34c-1.54,1.36-3.3,2.46-5.19,3.26-1.74.72-3.61,1.09-5.5,1.09-2.42.03-4.8-.57-6.91-1.75-2.06-1.16-3.7-2.94-4.7-5.08-1.08-2.33-1.62-4.87-1.59-7.43-.02-2.63.51-5.22,1.58-7.62.91-2.19,2.49-4.02,4.53-5.23,2.08-1.17,4.43-1.76,6.82-1.71,1.74-.03,3.46.3,5.06.98,1.4.57,2.63,1.51,3.54,2.72.95,1.38,1.62,2.93,1.95,4.57l-3.05.91c-.29-1.19-.78-2.32-1.44-3.35-.64-.86-1.49-1.53-2.47-1.94-1.11-.51-2.33-.77-3.55-.76-1.39-.04-2.77.22-4.05.76-1.06.46-2.01,1.15-2.76,2.03-.69.82-1.24,1.75-1.62,2.76-.67,1.79-1.01,3.69-.99,5.6-.07,2.14.34,4.28,1.19,6.24.71,1.59,1.93,2.89,3.46,3.72,1.48.8,3.14,1.22,4.82,1.21,1.49,0,2.97-.31,4.34-.92,1.17-.46,2.26-1.13,3.2-1.96v-5.15h-7.6Z"/>
  <path class="cls-1" d="M263.73,158.22v-3.28h10.93v10.34c-1.54,1.36-3.3,2.46-5.2,3.26-1.74.72-3.61,1.09-5.49,1.09-2.42.03-4.8-.57-6.91-1.75-2.06-1.16-3.7-2.93-4.7-5.08-1.08-2.33-1.63-4.87-1.59-7.43-.02-2.63.51-5.22,1.58-7.62.91-2.19,2.49-4.02,4.53-5.23,2.08-1.17,4.43-1.76,6.82-1.71,1.74-.03,3.46.3,5.06.98,1.41.57,2.64,1.51,3.55,2.72.95,1.38,1.62,2.93,1.95,4.57l-3.05.91c-.29-1.19-.78-2.32-1.45-3.35-.63-.86-1.48-1.53-2.46-1.94-1.11-.51-2.33-.77-3.55-.76-1.39-.03-2.77.23-4.06.76-1.06.46-2.01,1.15-2.76,2.03-.69.82-1.23,1.76-1.62,2.76-.68,1.79-1.01,3.69-.99,5.6-.07,2.14.34,4.28,1.19,6.24.72,1.58,1.93,2.89,3.45,3.72,1.48.8,3.14,1.22,4.83,1.21,1.49,0,2.97-.31,4.34-.92,1.17-.46,2.26-1.13,3.2-1.96v-5.15h-7.62Z"/>
  <path class="cls-1" d="M277.57,169.13l9.91-27.85h3.7l10.57,27.85h-3.89l-3.01-8.44h-10.81l-2.84,8.44h-3.63ZM285.01,157.7h8.76l-2.69-7.72c-.82-2.34-1.43-4.26-1.84-5.78-.33,1.81-.79,3.6-1.39,5.34l-2.84,8.16Z"/>
  <path class="cls-1" d="M324.77,159.37l3.42.93c-.52,2.66-1.87,5.09-3.87,6.92-1.9,1.61-4.33,2.46-6.82,2.39-2.4.11-4.77-.53-6.79-1.83-1.83-1.34-3.22-3.2-3.98-5.34-.92-2.38-1.39-4.92-1.36-7.47-.07-2.62.45-5.23,1.52-7.62.92-2.05,2.45-3.77,4.38-4.92,1.89-1.12,4.06-1.7,6.26-1.68,2.35-.07,4.66.68,6.52,2.13,1.87,1.55,3.17,3.67,3.72,6.04l-3.37.85c-.4-1.71-1.31-3.25-2.61-4.43-1.22-.95-2.74-1.44-4.29-1.39-1.78-.06-3.53.47-4.97,1.52-1.35,1.05-2.33,2.5-2.81,4.14-1.14,3.77-1.09,7.8.14,11.54.53,1.62,1.58,3.01,2.99,3.96,1.3.86,2.83,1.31,4.39,1.3,1.79.05,3.52-.59,4.86-1.78,1.44-1.42,2.38-3.27,2.67-5.28Z"/>
  <path class="cls-1" d="M350.18,141.28h3.42v16.09c.08,2.26-.22,4.52-.88,6.68-.6,1.65-1.72,3.06-3.19,4.01-1.81,1.1-3.91,1.63-6.02,1.52-2.06.08-4.11-.38-5.93-1.34-1.52-.88-2.69-2.26-3.3-3.91-.74-2.25-1.07-4.62-.98-6.98v-16.09h3.41v16.07c-.08,1.8.14,3.6.63,5.34.39,1.11,1.15,2.05,2.15,2.65,1.13.65,2.42.98,3.72.93,2.52,0,4.31-.61,5.34-1.85s1.6-3.59,1.6-7.08l.04-16.04Z"/>
  <path class="cls-5" d="M371.28,158.22v-3.28h10.93v10.34c-1.54,1.36-3.3,2.46-5.19,3.26-1.74.72-3.61,1.09-5.5,1.09-2.42.03-4.8-.57-6.91-1.75-2.06-1.16-3.7-2.94-4.69-5.08-1.08-2.33-1.63-4.87-1.59-7.43-.02-2.62.51-5.22,1.57-7.62.91-2.19,2.5-4.02,4.54-5.23,2.08-1.17,4.43-1.76,6.82-1.71,1.74-.03,3.46.3,5.06.98,1.41.57,2.64,1.51,3.55,2.72.95,1.38,1.61,2.94,1.94,4.57l-3.05.91c-.29-1.19-.78-2.32-1.44-3.35-.63-.85-1.48-1.52-2.46-1.94-1.11-.51-2.33-.77-3.55-.76-1.39-.03-2.77.23-4.06.76-1.06.46-2.01,1.15-2.76,2.03-.69.82-1.24,1.75-1.62,2.76-.67,1.79-1.01,3.69-.99,5.6-.07,2.14.34,4.28,1.19,6.24.72,1.59,1.93,2.89,3.46,3.72,1.48.8,3.14,1.22,4.83,1.21,1.49,0,2.97-.31,4.34-.92,1.17-.46,2.26-1.13,3.2-1.96v-5.15h-7.62Z"/>
  <path class="cls-5" d="M398.15,158.22v-3.28h10.93v10.34c-1.54,1.36-3.3,2.46-5.19,3.26-1.74.72-3.61,1.09-5.5,1.09-2.42.03-4.8-.57-6.91-1.75-2.06-1.16-3.7-2.94-4.69-5.08-1.08-2.33-1.63-4.87-1.59-7.43-.02-2.62.51-5.22,1.57-7.62.91-2.19,2.5-4.02,4.54-5.23,2.08-1.17,4.43-1.76,6.82-1.71,1.74-.03,3.46.3,5.06.98,1.41.57,2.64,1.51,3.55,2.72.95,1.38,1.61,2.94,1.94,4.57l-3.05.91c-.29-1.19-.78-2.32-1.44-3.35-.63-.85-1.48-1.52-2.46-1.94-1.12-.51-2.33-.77-3.56-.76-1.39-.03-2.77.23-4.05.76-1.06.46-2.01,1.15-2.76,2.03-.69.82-1.24,1.75-1.62,2.76-.68,1.79-1.01,3.69-.99,5.6-.07,2.14.34,4.28,1.19,6.24.69,1.59,1.89,2.91,3.4,3.76,1.48.8,3.14,1.22,4.83,1.21,1.49,0,2.97-.31,4.34-.92,1.17-.46,2.26-1.13,3.2-1.96v-5.19h-7.56Z"/>
  <line class="cls-12" x1="397.28" y1="134.7" x2="397.28" y2="115.36"/>
  <path class="cls-2" d="M394.2,109.43h-2.06v-13.54c-.59.56-1.25,1.04-1.96,1.46-.68.43-1.41.8-2.17,1.1v-2.05c1.11-.53,2.13-1.21,3.03-2.03.75-.66,1.38-1.44,1.83-2.31h1.32v17.38ZM399.39,100.91c-.05-1.67.16-3.34.62-4.95.32-1.1.95-2.1,1.82-2.88,2.06-1.59,5.08-1.28,6.75.68.13.15.25.31.36.48.48.8.83,1.67,1.04,2.57.29,1.35.42,2.72.38,4.09.05,1.66-.15,3.31-.61,4.92-.31,1.11-.94,2.11-1.82,2.89-2.09,1.6-5.15,1.28-6.82-.72l-.04-.05c-1.11-1.44-1.66-3.78-1.67-7.03h0ZM401.51,100.91c0,2.84.33,4.74.99,5.68.64.95,1.44,1.42,2.39,1.42s1.75-.47,2.39-1.42.99-2.84.99-5.68-.32-4.74-.99-5.68c-.48-.85-1.4-1.39-2.41-1.42-.94-.01-1.82.47-2.29,1.25-.72,1.06-1.08,3.01-1.08,5.84h0Z"/>
  <path class="cls-4" d="M425.04,158.22v-3.28h10.93v10.34c-1.54,1.36-3.3,2.46-5.19,3.26-1.74.72-3.61,1.09-5.5,1.09-2.42.03-4.8-.57-6.91-1.75-2.06-1.16-3.7-2.94-4.7-5.08-1.08-2.33-1.62-4.87-1.58-7.43-.02-2.62.51-5.22,1.57-7.62.92-2.19,2.52-4.03,4.57-5.23,2.08-1.17,4.43-1.76,6.82-1.71,1.74-.03,3.46.3,5.06.98,1.41.57,2.64,1.51,3.55,2.72.95,1.38,1.61,2.94,1.94,4.57l-3.05.91c-.29-1.19-.78-2.32-1.44-3.35-.63-.85-1.48-1.52-2.46-1.94-1.12-.51-2.33-.77-3.56-.76-1.39-.03-2.77.23-4.05.76-1.06.46-2.01,1.15-2.76,2.03-.69.82-1.24,1.75-1.62,2.76-.68,1.79-1.01,3.69-.99,5.6-.07,2.14.34,4.28,1.19,6.24.69,1.59,1.88,2.91,3.39,3.76,1.48.8,3.14,1.22,4.83,1.21,1.49,0,2.97-.31,4.34-.92,1.17-.46,2.26-1.13,3.2-1.96v-5.19h-7.59Z"/>
  <path class="cls-4" d="M459.2,159.37l3.42.93c-.51,2.66-1.87,5.09-3.87,6.92-1.9,1.61-4.33,2.46-6.82,2.39-2.4.11-4.77-.53-6.79-1.83-1.83-1.35-3.21-3.2-3.98-5.34-.92-2.38-1.39-4.92-1.36-7.47-.07-2.62.45-5.23,1.52-7.62.93-2.05,2.46-3.77,4.39-4.92,1.89-1.12,4.06-1.7,6.26-1.68,2.35-.07,4.66.68,6.52,2.13,1.84,1.54,3.13,3.64,3.68,5.98l-3.37.85c-.4-1.71-1.31-3.25-2.61-4.43-1.22-.95-2.74-1.44-4.29-1.39-1.78-.06-3.54.47-4.98,1.52-1.35,1.05-2.33,2.5-2.81,4.14-.54,1.73-.81,3.53-.81,5.34-.04,2.11.28,4.2.96,6.2.53,1.62,1.58,3.01,2.99,3.96,1.3.86,2.83,1.31,4.38,1.3,1.79.04,3.52-.59,4.86-1.78,1.44-1.4,2.39-3.23,2.71-5.22Z"/>
  <path class="cls-6" d="M487.76,146.12v-3.27h10.93v10.33c-1.54,1.37-3.29,2.47-5.19,3.26-1.74.72-3.61,1.09-5.5,1.09-2.42.03-4.8-.58-6.91-1.75-2.06-1.16-3.7-2.94-4.69-5.08-1.08-2.33-1.63-4.87-1.59-7.43-.02-2.62.51-5.22,1.57-7.62.92-2.19,2.52-4.03,4.57-5.23,2.08-1.17,4.43-1.76,6.82-1.71,1.74-.02,3.46.31,5.06.97,1.41.58,2.63,1.52,3.55,2.73.95,1.38,1.61,2.93,1.94,4.57l-3.05.91c-.29-1.19-.78-2.32-1.44-3.35-.63-.86-1.48-1.53-2.46-1.95-1.12-.51-2.33-.77-3.56-.76-1.39-.03-2.77.23-4.05.76-1.06.46-2.01,1.15-2.76,2.03-.69.82-1.24,1.75-1.62,2.76-.67,1.79-1.01,3.69-.99,5.6-.07,2.14.34,4.28,1.19,6.24.72,1.58,1.93,2.89,3.46,3.72,1.48.8,3.14,1.22,4.83,1.21,1.49,0,2.97-.31,4.34-.92,1.17-.46,2.26-1.13,3.2-1.96v-5.19l-7.66.04Z"/>
  <path class="cls-6" d="M508.32,164.31l9.91-27.85h3.68l10.57,27.85h-3.89l-3.05-8.44h-10.76l-2.84,8.44h-3.63ZM515.76,152.88h8.73l-2.69-7.72c-.82-2.34-1.44-4.26-1.84-5.78-.33,1.81-.79,3.6-1.39,5.34l-2.81,8.16Z"/>
  <path class="cls-6" d="M530.33,192.05v-3.27h10.93v10.34c-1.54,1.36-3.3,2.47-5.19,3.26-1.74.72-3.61,1.09-5.5,1.09-2.42.03-4.8-.58-6.91-1.76-2.06-1.16-3.7-2.93-4.7-5.08-1.08-2.33-1.62-4.87-1.59-7.43-.03-2.63.51-5.23,1.58-7.62.92-2.2,2.52-4.03,4.57-5.24,2.08-1.17,4.43-1.75,6.82-1.71,1.74-.03,3.46.31,5.06.98,1.41.57,2.64,1.51,3.55,2.73.95,1.38,1.62,2.93,1.95,4.57l-3.05.91c-.29-1.19-.78-2.32-1.44-3.34-.63-.86-1.48-1.53-2.46-1.95-1.12-.51-2.33-.77-3.56-.76-1.39-.04-2.77.22-4.05.76-1.06.45-2.01,1.14-2.76,2.02-.72.84-1.3,1.79-1.69,2.83-.68,1.79-1.01,3.69-.99,5.6-.07,2.14.34,4.27,1.19,6.24.71,1.59,1.93,2.89,3.46,3.72,1.48.81,3.14,1.23,4.83,1.22,1.49,0,2.97-.32,4.34-.92,1.17-.47,2.25-1.14,3.2-1.96v-5.19l-7.59-.02Z"/>
  <path class="cls-5" d="M492.64,227.15l9.91-27.86h3.68l10.57,27.86h-3.89l-3.01-8.44h-10.8l-2.82,8.44h-3.64ZM500.09,215.71h8.75l-2.69-7.72c-.82-2.34-1.43-4.26-1.84-5.78-.32,1.81-.78,3.6-1.39,5.34l-2.84,8.16Z"/>
  <path class="cls-6" d="M467.99,251.33l9.91-27.86h3.68l10.57,27.86h-3.89l-3.05-8.45h-10.76l-2.84,8.45h-3.63ZM475.44,239.89h8.75l-2.69-7.72c-.82-2.34-1.44-4.27-1.84-5.78-.33,1.81-.79,3.6-1.39,5.34l-2.84,8.16Z"/>
  <path class="cls-5" d="M451.92,216.22v-3.27h10.93v10.34c-1.54,1.37-3.29,2.47-5.19,3.26-1.74.72-3.61,1.09-5.5,1.09-2.42.03-4.8-.58-6.91-1.75-2.06-1.16-3.7-2.94-4.7-5.09-1.08-2.33-1.62-4.87-1.58-7.43-.03-2.62.51-5.23,1.57-7.62.92-2.19,2.52-4.03,4.57-5.23,2.08-1.17,4.43-1.76,6.82-1.72,1.74-.03,3.46.31,5.06.98,1.41.58,2.63,1.52,3.55,2.73.95,1.38,1.61,2.94,1.94,4.57l-3.05.91c-.29-1.19-.78-2.32-1.44-3.35-.63-.86-1.48-1.53-2.46-1.95-1.12-.51-2.33-.77-3.56-.76-1.39-.04-2.77.22-4.05.76-1.06.46-1.99,1.15-2.74,2.03-.69.82-1.24,1.76-1.62,2.77-.68,1.79-1.01,3.69-.99,5.6-.07,2.14.34,4.27,1.19,6.24.72,1.59,1.93,2.9,3.46,3.73,1.48.8,3.14,1.22,4.83,1.21,1.49,0,2.97-.31,4.34-.92,1.17-.46,2.26-1.13,3.2-1.96v-5.19l-7.68.03Z"/>
  <path class="cls-5" d="M430.83,199.29h3.42v16.11c.08,2.26-.22,4.52-.88,6.68-.6,1.65-1.72,3.06-3.19,4.01-1.81,1.1-3.91,1.63-6.03,1.52-2.06.08-4.11-.38-5.93-1.35-1.52-.87-2.69-2.25-3.29-3.9-.74-2.24-1.08-4.6-.99-6.96v-16.11h3.41v16.11c-.07,1.8.14,3.6.63,5.34.39,1.11,1.15,2.05,2.16,2.65,1.13.65,2.42.97,3.72.93,2.52,0,4.3-.62,5.38-1.85s1.6-3.59,1.6-7.09v-16.1Z"/>
  <path class="cls-4" d="M403.95,199.29h3.42v16.11c.08,2.26-.22,4.52-.88,6.68-.6,1.65-1.72,3.06-3.19,4.01-1.81,1.1-3.91,1.63-6.03,1.52-2.06.08-4.11-.38-5.93-1.35-1.52-.88-2.68-2.26-3.29-3.9-.74-2.25-1.07-4.62-.98-6.98v-16.09h3.41v16.11c-.07,1.8.14,3.6.63,5.34.39,1.11,1.15,2.05,2.16,2.65,1.13.65,2.42.97,3.72.93,2.54,0,4.33-.62,5.38-1.85,1.04-1.23,1.58-3.59,1.6-7.09v-16.1Z"/>
  <line class="cls-12" x1="397.28" y1="231.39" x2="397.28" y2="250.72"/>
  <path class="cls-2" d="M395.18,272.87v2.15h-11.36c-.01-.53.07-1.05.25-1.55.32-.88.8-1.69,1.4-2.42.83-1,1.76-1.92,2.75-2.75,1.4-1.14,2.67-2.44,3.78-3.86.6-.78.94-1.72.99-2.69.02-.84-.3-1.64-.9-2.24-.62-.61-1.46-.94-2.34-.91-.92-.03-1.81.33-2.44,1-.65.74-.98,1.7-.93,2.68l-2.17-.24c.15-1.71.71-3.02,1.68-3.91,1.07-.93,2.47-1.41,3.9-1.34,1.45-.07,2.87.45,3.91,1.45.96.96,1.48,2.26,1.45,3.6,0,.73-.15,1.46-.42,2.14-.34.81-.82,1.56-1.4,2.23-1.01,1.13-2.1,2.2-3.26,3.2-1.26,1.13-2.07,1.89-2.44,2.29-.34.37-.63.78-.89,1.21l8.43-.02ZM397.35,266.05c-.05-1.75.16-3.51.63-5.2.32-1.16.97-2.21,1.86-3.03.86-.73,1.97-1.11,3.11-1.07.85-.02,1.68.19,2.42.59.72.41,1.31,1,1.72,1.7.49.84.85,1.75,1.07,2.7.29,1.42.43,2.86.39,4.31.05,1.74-.16,3.48-.62,5.16-.32,1.16-.97,2.22-1.86,3.04-2.14,1.68-5.27,1.34-6.98-.76l-.05-.05c-1.13-1.52-1.7-3.98-1.7-7.4ZM399.52,266.05c0,2.99.34,4.98,1.01,5.98.48.89,1.41,1.46,2.44,1.49.97,0,1.79-.5,2.45-1.49.66-1,1.01-2.99,1.01-5.95s-.33-4.98-1.01-5.98c-.49-.89-1.43-1.46-2.47-1.49-.96,0-1.84.49-2.32,1.3-.75,1.1-1.13,3.15-1.13,6.14h.01Z"/>
  <path class="cls-5" d="M377.06,199.29h3.42v16.11c.08,2.26-.22,4.52-.88,6.68-.6,1.65-1.72,3.06-3.19,4.01-1.81,1.1-3.91,1.63-6.02,1.52-2.06.08-4.11-.38-5.94-1.35-1.52-.88-2.68-2.26-3.29-3.9-.74-2.25-1.07-4.62-.98-6.98v-16.09h3.44v16.11c-.08,1.8.14,3.6.63,5.34.38,1.11,1.14,2.05,2.15,2.65,1.13.65,2.42.97,3.72.93,2.54,0,4.33-.62,5.38-1.85,1.04-1.23,1.58-3.59,1.6-7.09l-.03-16.1Z"/>
  <path class="cls-1" d="M331.34,227.15l9.91-27.86h3.68l10.56,27.86h-3.88l-3.05-8.44h-10.77l-2.84,8.44h-3.62ZM338.78,215.71h8.76l-2.69-7.72c-.82-2.34-1.44-4.27-1.84-5.78-.33,1.81-.79,3.6-1.4,5.34l-2.84,8.16Z"/>
  <path class="cls-1" d="M317.51,216.22v-3.27h10.93v10.34c-1.55,1.36-3.3,2.46-5.2,3.26-1.74.72-3.61,1.09-5.49,1.09-2.42.03-4.8-.57-6.92-1.75-2.06-1.16-3.7-2.94-4.69-5.09-1.08-2.33-1.63-4.87-1.59-7.43-.03-2.63.51-5.23,1.58-7.62.9-2.19,2.49-4.02,4.53-5.23,2.08-1.17,4.43-1.76,6.82-1.72,1.74-.03,3.46.31,5.06.98,1.41.58,2.63,1.52,3.55,2.73.95,1.38,1.62,2.93,1.95,4.57l-3.05.91c-.29-1.19-.78-2.32-1.45-3.35-.63-.86-1.48-1.53-2.46-1.95-1.11-.51-2.33-.77-3.55-.76-1.39-.03-2.77.23-4.06.76-1.06.46-2,1.15-2.76,2.02-.69.83-1.24,1.76-1.62,2.77-.67,1.79-1.01,3.69-.99,5.6-.07,2.14.34,4.27,1.2,6.24.71,1.59,1.93,2.9,3.45,3.73,1.48.8,3.14,1.22,4.83,1.21,1.49,0,2.97-.31,4.34-.92,1.17-.46,2.26-1.13,3.2-1.96v-5.19l-7.62.04Z"/>
  <path class="cls-1" d="M296.41,199.29h3.42v16.11c.08,2.26-.22,4.52-.88,6.68-.6,1.64-1.72,3.05-3.19,4-1.81,1.1-3.91,1.63-6.03,1.52-2.06.08-4.11-.38-5.93-1.35-1.52-.87-2.69-2.25-3.29-3.9-.75-2.25-1.08-4.62-.99-6.98v-16.07h3.42v16.11c-.08,1.8.13,3.6.63,5.34.39,1.11,1.15,2.04,2.15,2.65,1.13.65,2.42.97,3.72.93,2.52,0,4.31-.62,5.38-1.85,1.07-1.23,1.6-3.59,1.6-7.09l.02-16.1Z"/>
  <path class="cls-1" d="M271,217.38l3.42.93c-.5,2.66-1.83,5.08-3.81,6.92-1.92,1.61-4.36,2.45-6.86,2.36-2.4.11-4.77-.53-6.79-1.84-1.84-1.33-3.23-3.2-3.98-5.34-.92-2.38-1.38-4.92-1.36-7.47-.07-2.62.45-5.23,1.52-7.62.93-2.05,2.46-3.76,4.38-4.92,1.9-1.11,4.06-1.69,6.26-1.68,2.36-.08,4.66.68,6.52,2.13,1.85,1.54,3.14,3.63,3.69,5.97l-3.4.94c-.4-1.7-1.31-3.25-2.6-4.43-1.23-.95-2.75-1.44-4.3-1.39-1.78-.07-3.53.47-4.97,1.52-1.35,1.05-2.33,2.5-2.81,4.14-1.13,3.79-1.06,7.84.2,11.59.52,1.62,1.57,3.01,2.98,3.96,1.3.86,2.83,1.32,4.39,1.31,1.79.04,3.52-.59,4.86-1.78,1.45-1.43,2.39-3.3,2.67-5.31Z"/>
  <path class="cls-1" d="M244.12,217.38l3.42.93c-.51,2.66-1.87,5.09-3.87,6.92-1.9,1.61-4.33,2.46-6.82,2.39-2.4.11-4.77-.53-6.79-1.84-1.83-1.34-3.22-3.2-3.98-5.34-.92-2.38-1.38-4.92-1.36-7.47-.07-2.62.45-5.23,1.52-7.62.93-2.05,2.46-3.76,4.39-4.92,1.89-1.11,4.06-1.69,6.25-1.68,2.36-.07,4.67.69,6.53,2.13,1.84,1.54,3.13,3.63,3.68,5.97l-3.36.91c-.4-1.7-1.31-3.25-2.6-4.43-1.23-.95-2.75-1.44-4.3-1.39-1.78-.07-3.53.47-4.97,1.52-1.35,1.05-2.33,2.5-2.81,4.14-.54,1.73-.82,3.53-.82,5.34-.04,2.11.29,4.2.97,6.2.53,1.62,1.58,3.01,2.99,3.96,1.3.86,2.83,1.32,4.38,1.31,1.79.04,3.52-.59,4.86-1.78,1.45-1.41,2.39-3.26,2.69-5.26Z"/>
  <line class="cls-12" x1="237.1" y1="171.6" x2="237.1" y2="197.4"/>
  <line class="cls-12" x1="263.7" y1="171.6" x2="263.7" y2="197.4"/>
  <line class="cls-12" x1="290.3" y1="171.6" x2="290.3" y2="197.4"/>
  <line class="cls-12" x1="316.91" y1="171.6" x2="316.91" y2="197.4"/>
  <line class="cls-12" x1="343.51" y1="171.6" x2="343.51" y2="197.4"/>
  <g class="cls-11">
    <g class="cls-11">
      <text class="cls-8" transform="translate(364.41 188.29) scale(.94 1)"><tspan x="0" y="0" xml:space="preserve"> NeomycinB</tspan></text>
    </g>
  </g>
  <g class="cls-11">
    <g class="cls-11">
      <text class="cls-10" transform="translate(13.99 27.69)"><tspan x="0" y="0" xml:space="preserve"> NeomycinB  aptamer</tspan></text>
    </g>
  </g>
  <g class="cls-11">
    <g class="cls-11">
      <text class="cls-9" transform="translate(198.67 223.47)"><tspan x="0" y="0">3</tspan></text>
      <text class="cls-7" transform="translate(213.93 223.47)"><tspan x="0" y="0">’</tspan></text>
    </g>
  </g>
  <g class="cls-11">
    <g class="cls-11">
      <text class="cls-9" transform="translate(198.67 164.31)"><tspan x="0" y="0">5</tspan></text>
      <text class="cls-7" transform="translate(213.93 164.31)"><tspan x="0" y="0">’</tspan></text>
    </g>
  </g>
</svg>