<svg id="图层_1" data-name="图层 1" xmlns="http://www.w3.org/2000/svg" viewBox="0 0 800 400"><defs><style>.cls-1{fill:#ff0;}.cls-2{fill:#09fefe;}.cls-3{fill:#f0f;}.cls-4{fill:none;stroke:#000;stroke-linejoin:round;stroke-width:1.33px;}.cls-5{fill:#c2c2ff;}.cls-6{fill:#32cd32;}.cls-7,.cls-8,.cls-9{isolation:isolate;}.cls-8{font-size:20px;}.cls-8,.cls-9{font-family:ArialMT, Arial;}.cls-9{font-size:36px;}.cls-10{letter-spacing:-0.04em;}</style></defs><title>NeomycinB_aptamer_2D</title><rect class="cls-1" x="399.39" y="201.94" width="138.61" height="29.25"/><path class="cls-2" d="M248.75,183v-4.3h14.34v13.56a24.73,24.73,0,0,1-6.81,4.27,18.81,18.81,0,0,1-7.21,1.43,18.07,18.07,0,0,1-9.06-2.3,14.82,14.82,0,0,1-6.16-6.66,22.48,22.48,0,0,1-2.08-9.75,24.1,24.1,0,0,1,2.07-10,14.39,14.39,0,0,1,5.94-6.86,17.48,17.48,0,0,1,8.94-2.24,16.44,16.44,0,0,1,6.64,1.28A11,11,0,0,1,260,165a16.31,16.31,0,0,1,2.56,6l-4,1.2a14.38,14.38,0,0,0-1.89-4.39,7.87,7.87,0,0,0-3.24-2.55,11,11,0,0,0-4.66-1,12.74,12.74,0,0,0-5.31,1,10,10,0,0,0-3.62,2.66,12.47,12.47,0,0,0-2.13,3.62,20.22,20.22,0,0,0-1.3,7.34,19,19,0,0,0,1.56,8.19,10.39,10.39,0,0,0,4.54,4.88,13.15,13.15,0,0,0,6.32,1.59,14,14,0,0,0,5.69-1.21,14.38,14.38,0,0,0,4.2-2.57V183Z"/><path class="cls-2" d="M284,183v-4.3h14.34v13.56a24.7,24.7,0,0,1-6.82,4.27,18.72,18.72,0,0,1-7.2,1.43,18,18,0,0,1-9.06-2.3A14.77,14.77,0,0,1,269.1,189a22.3,22.3,0,0,1-2.08-9.75,24.1,24.1,0,0,1,2.07-10,14.39,14.39,0,0,1,5.94-6.86,17.48,17.48,0,0,1,8.94-2.24,16.44,16.44,0,0,1,6.64,1.28,11,11,0,0,1,4.66,3.57,16.31,16.31,0,0,1,2.56,6l-4,1.2a14.07,14.07,0,0,0-1.9-4.39,7.76,7.76,0,0,0-3.23-2.55,11,11,0,0,0-4.66-1,13.11,13.11,0,0,0-5.32,1,10,10,0,0,0-3.62,2.66,12.66,12.66,0,0,0-2.12,3.62,20.18,20.18,0,0,0-1.3,7.34,19,19,0,0,0,1.56,8.19,10.46,10.46,0,0,0,4.53,4.88,13.19,13.19,0,0,0,6.33,1.59,14,14,0,0,0,5.69-1.21,14.38,14.38,0,0,0,4.2-2.57V183Z"/><path class="cls-2" d="M302.15,197.32l13-36.53H320l13.86,36.53h-5.1l-3.95-11.07H310.63l-3.72,11.07Zm9.76-15H323.4l-3.53-10.12c-1.08-3.07-1.88-5.59-2.41-7.58a48,48,0,0,1-1.82,7Z"/><path class="cls-2" d="M364.06,184.51l4.49,1.22a16.63,16.63,0,0,1-5.08,9.08,13.27,13.27,0,0,1-8.94,3.13,15.24,15.24,0,0,1-8.91-2.4,14.9,14.9,0,0,1-5.22-7,26.47,26.47,0,0,1-1.79-9.8,23,23,0,0,1,2-10,14.39,14.39,0,0,1,5.75-6.45,15.8,15.8,0,0,1,8.21-2.2,13.22,13.22,0,0,1,8.55,2.79A14.6,14.6,0,0,1,368,170.8l-4.42,1.12a11.41,11.41,0,0,0-3.42-5.81,8.67,8.67,0,0,0-5.63-1.82,10.43,10.43,0,0,0-6.52,2,10.7,10.7,0,0,0-3.69,5.43,25.16,25.16,0,0,0,.19,15.13,10.07,10.07,0,0,0,3.92,5.2,10.42,10.42,0,0,0,5.76,1.71,9.22,9.22,0,0,0,6.37-2.33A12.17,12.17,0,0,0,364.06,184.51Z"/><path class="cls-2" d="M397.38,160.79h4.49v21.1a26.81,26.81,0,0,1-1.16,8.76,10.54,10.54,0,0,1-4.18,5.26,13.81,13.81,0,0,1-7.9,2,15.36,15.36,0,0,1-7.78-1.76,9.87,9.87,0,0,1-4.33-5.13,26.1,26.1,0,0,1-1.29-9.16v-21.1h4.47v21.08a22.07,22.07,0,0,0,.83,7,6.63,6.63,0,0,0,2.82,3.48,9.07,9.07,0,0,0,4.88,1.22c3.3,0,5.65-.8,7-2.42s2.1-4.71,2.1-9.29Z"/><path class="cls-3" d="M425.05,183v-4.3h14.33v13.56a24.73,24.73,0,0,1-6.81,4.27,18.81,18.81,0,0,1-7.21,1.43,18.07,18.07,0,0,1-9.06-2.3,14.75,14.75,0,0,1-6.15-6.66,22.3,22.3,0,0,1-2.08-9.75,24.25,24.25,0,0,1,2.06-10,14.41,14.41,0,0,1,5.95-6.86,17.48,17.48,0,0,1,8.94-2.24,16.44,16.44,0,0,1,6.64,1.28,11,11,0,0,1,4.66,3.57,16.46,16.46,0,0,1,2.55,6l-4,1.2a14.38,14.38,0,0,0-1.89-4.39,7.91,7.91,0,0,0-3.23-2.55,11,11,0,0,0-4.66-1,13.11,13.11,0,0,0-5.32,1,10,10,0,0,0-3.62,2.66,12.47,12.47,0,0,0-2.13,3.62,20.43,20.43,0,0,0-1.3,7.34,19,19,0,0,0,1.56,8.19,10.43,10.43,0,0,0,4.54,4.88,13.19,13.19,0,0,0,6.33,1.59,14,14,0,0,0,5.69-1.21,14.38,14.38,0,0,0,4.2-2.57V183Z"/><path class="cls-3" d="M460.3,183v-4.3h14.34v13.56a24.73,24.73,0,0,1-6.81,4.27,18.81,18.81,0,0,1-7.21,1.43,18.07,18.07,0,0,1-9.06-2.3,14.75,14.75,0,0,1-6.15-6.66,22.3,22.3,0,0,1-2.08-9.75,24.25,24.25,0,0,1,2.06-10,14.41,14.41,0,0,1,5.95-6.86,17.48,17.48,0,0,1,8.94-2.24,16.44,16.44,0,0,1,6.64,1.28,11,11,0,0,1,4.66,3.57,16.46,16.46,0,0,1,2.55,6l-4,1.2a14.38,14.38,0,0,0-1.89-4.39,7.91,7.91,0,0,0-3.23-2.55,11,11,0,0,0-4.67-1,13.06,13.06,0,0,0-5.31,1,10,10,0,0,0-3.62,2.66,12.47,12.47,0,0,0-2.13,3.62,20.18,20.18,0,0,0-1.3,7.34,19,19,0,0,0,1.56,8.19A10.43,10.43,0,0,0,454,192a13.19,13.19,0,0,0,6.33,1.59,14,14,0,0,0,5.69-1.21,14.38,14.38,0,0,0,4.2-2.57V183Z"/><line class="cls-4" x1="459.16" y1="152.16" x2="459.16" y2="126.8"/><path d="M450.27,115.36h-4.15V86.77a22.19,22.19,0,0,1-3.95,3.08,26.48,26.48,0,0,1-4.37,2.32V87.84a25,25,0,0,0,6.1-4.29,16.81,16.81,0,0,0,3.7-4.88h2.67Zm10.48-18A35.87,35.87,0,0,1,462,86.9a13.11,13.11,0,0,1,3.67-6.09A9.68,9.68,0,0,1,480,83.27a19.19,19.19,0,0,1,2.1,5.43,38.55,38.55,0,0,1,.77,8.64,36,36,0,0,1-1.22,10.38,13.06,13.06,0,0,1-3.67,6.1,9.79,9.79,0,0,1-13.76-1.52l-.09-.11q-3.35-4.56-3.36-14.85Zm4.27,0q0,9,2,12c1.3,2,2.91,3,4.81,3s3.52-1,4.82-3,2-6,2-12-.65-10-2-12a5.71,5.71,0,0,0-4.86-3A5.22,5.22,0,0,0,467.18,85Q465,88.35,465,97.34Z"/><path class="cls-5" d="M495.56,183v-4.3H509.9v13.56a24.73,24.73,0,0,1-6.81,4.27,18.81,18.81,0,0,1-7.21,1.43,18.07,18.07,0,0,1-9.06-2.3,14.82,14.82,0,0,1-6.16-6.66,22.47,22.47,0,0,1-2.07-9.75,24.25,24.25,0,0,1,2.06-10,14.42,14.42,0,0,1,6-6.86,17.48,17.48,0,0,1,8.94-2.24,16.44,16.44,0,0,1,6.64,1.28,11,11,0,0,1,4.66,3.57,16.46,16.46,0,0,1,2.55,6l-4,1.2a14.38,14.38,0,0,0-1.89-4.39,7.91,7.91,0,0,0-3.23-2.55,11,11,0,0,0-4.67-1,12.9,12.9,0,0,0-5.31,1,10,10,0,0,0-3.62,2.66,12.47,12.47,0,0,0-2.13,3.62,20.18,20.18,0,0,0-1.3,7.34,19,19,0,0,0,1.56,8.19A10.45,10.45,0,0,0,489.3,192a13.19,13.19,0,0,0,6.33,1.59,14,14,0,0,0,5.69-1.21,14.38,14.38,0,0,0,4.2-2.57V183Z"/><path class="cls-5" d="M540.36,184.51l4.48,1.22a16.56,16.56,0,0,1-5.07,9.08,13.29,13.29,0,0,1-8.95,3.13,15.24,15.24,0,0,1-8.91-2.4,15,15,0,0,1-5.22-7,26.47,26.47,0,0,1-1.79-9.8,23,23,0,0,1,2-10,14.41,14.41,0,0,1,5.76-6.45,15.78,15.78,0,0,1,8.21-2.2,13.22,13.22,0,0,1,8.55,2.79,14.58,14.58,0,0,1,4.83,7.84l-4.42,1.12a11.41,11.41,0,0,0-3.42-5.81,8.67,8.67,0,0,0-5.63-1.82,10.46,10.46,0,0,0-6.53,2,10.7,10.7,0,0,0-3.69,5.43,23.44,23.44,0,0,0-1.06,7,23.68,23.68,0,0,0,1.26,8.13,10,10,0,0,0,3.92,5.2,10.41,10.41,0,0,0,5.75,1.71,9.31,9.31,0,0,0,6.38-2.33A12.27,12.27,0,0,0,540.36,184.51Z"/><path class="cls-6" d="M577.83,167.14v-4.29h14.34V176.4a24.53,24.53,0,0,1-6.81,4.28,19,19,0,0,1-7.21,1.43,18.18,18.18,0,0,1-9.06-2.3,14.75,14.75,0,0,1-6.15-6.66,22.3,22.3,0,0,1-2.08-9.75,24.25,24.25,0,0,1,2.06-10,14.42,14.42,0,0,1,6-6.86,17.48,17.48,0,0,1,8.94-2.24,16.77,16.77,0,0,1,6.64,1.27,11.18,11.18,0,0,1,4.66,3.58,16.29,16.29,0,0,1,2.55,6l-4,1.2a14.38,14.38,0,0,0-1.89-4.39,7.93,7.93,0,0,0-3.23-2.56,11.08,11.08,0,0,0-4.67-1,13.06,13.06,0,0,0-5.31,1,10,10,0,0,0-3.62,2.66,12.47,12.47,0,0,0-2.13,3.62,20.43,20.43,0,0,0-1.3,7.34,19,19,0,0,0,1.56,8.19,10.48,10.48,0,0,0,4.54,4.88,13.19,13.19,0,0,0,6.33,1.59,14,14,0,0,0,5.69-1.21,14.38,14.38,0,0,0,4.2-2.57v-6.81Z"/><path class="cls-6" d="M604.79,191l13-36.53h4.83L636.48,191h-5.1l-4-11.07H613.27L609.55,191Zm9.76-15H626l-3.53-10.12q-1.62-4.6-2.41-7.58a48,48,0,0,1-1.82,7Z"/><path class="cls-6" d="M633.66,227.38v-4.29H648v13.56a24.76,24.76,0,0,1-6.81,4.28,19,19,0,0,1-7.21,1.43,18.05,18.05,0,0,1-9.06-2.31,14.77,14.77,0,0,1-6.16-6.66,22.33,22.33,0,0,1-2.08-9.75,23.94,23.94,0,0,1,2.07-10,14.4,14.4,0,0,1,6-6.87,17.58,17.58,0,0,1,8.94-2.24,16.61,16.61,0,0,1,6.64,1.28,10.87,10.87,0,0,1,4.65,3.58,16.31,16.31,0,0,1,2.56,6l-4,1.19a14.22,14.22,0,0,0-1.89-4.38,7.79,7.79,0,0,0-3.23-2.56,11.08,11.08,0,0,0-4.67-1,12.74,12.74,0,0,0-5.31,1,9.88,9.88,0,0,0-3.62,2.65A12.49,12.49,0,0,0,622.6,216a20,20,0,0,0-1.3,7.34,19,19,0,0,0,1.56,8.18,10.39,10.39,0,0,0,4.54,4.88,13.08,13.08,0,0,0,6.33,1.6,14.28,14.28,0,0,0,5.69-1.21,15.11,15.11,0,0,0,4.2-2.57v-6.81Z"/><path class="cls-3" d="M584.22,273.41l13-36.54h4.83l13.86,36.54h-5.1l-3.95-11.07H592.7L589,273.41Zm9.77-15h11.48l-3.53-10.12c-1.08-3.07-1.88-5.59-2.41-7.58a45.57,45.57,0,0,1-1.82,7Z"/><path class="cls-6" d="M551.9,305.12l13-36.54h4.83l13.86,36.54h-5.1l-4-11.08H560.38l-3.72,11.08Zm9.77-15h11.48L569.62,280q-1.62-4.61-2.41-7.58a48,48,0,0,1-1.82,7Z"/><path class="cls-3" d="M530.82,259.08v-4.29h14.34v13.56a24.53,24.53,0,0,1-6.81,4.28,19,19,0,0,1-7.21,1.43,18.18,18.18,0,0,1-9.06-2.3,14.79,14.79,0,0,1-6.16-6.67,22.47,22.47,0,0,1-2.07-9.75,24,24,0,0,1,2.06-10,14.42,14.42,0,0,1,6-6.86,17.46,17.46,0,0,1,8.94-2.25,16.61,16.61,0,0,1,6.64,1.28,11.18,11.18,0,0,1,4.66,3.58,16.46,16.46,0,0,1,2.55,6l-4,1.2a14.38,14.38,0,0,0-1.89-4.39,7.79,7.79,0,0,0-3.23-2.56,11.08,11.08,0,0,0-4.67-1,12.74,12.74,0,0,0-5.31,1A10,10,0,0,0,522,244a12.52,12.52,0,0,0-2.13,3.63,20,20,0,0,0-1.3,7.34,19,19,0,0,0,1.56,8.18,10.45,10.45,0,0,0,4.54,4.89,13.19,13.19,0,0,0,6.33,1.59,14,14,0,0,0,5.69-1.21,14.38,14.38,0,0,0,4.2-2.57v-6.81Z"/><path class="cls-3" d="M503.16,236.87h4.49V258a26.81,26.81,0,0,1-1.16,8.76,10.54,10.54,0,0,1-4.18,5.26,13.92,13.92,0,0,1-7.91,2,15.27,15.27,0,0,1-7.78-1.77,9.75,9.75,0,0,1-4.32-5.12A26.17,26.17,0,0,1,481,258V236.87h4.47V258a22.39,22.39,0,0,0,.82,7,6.65,6.65,0,0,0,2.83,3.48A9.25,9.25,0,0,0,494,269.7c3.3,0,5.64-.81,7.05-2.42s2.1-4.71,2.1-9.3Z"/><path class="cls-5" d="M467.9,236.87h4.49V258a26.81,26.81,0,0,1-1.16,8.76,10.54,10.54,0,0,1-4.18,5.26,13.92,13.92,0,0,1-7.91,2,15.27,15.27,0,0,1-7.78-1.77,9.88,9.88,0,0,1-4.32-5.12,26.1,26.1,0,0,1-1.29-9.16v-21.1h4.47V258a22.39,22.39,0,0,0,.82,7,6.65,6.65,0,0,0,2.83,3.48,9.25,9.25,0,0,0,4.88,1.22q5,0,7.05-2.42t2.1-9.3Z"/><line class="cls-4" x1="459.16" y1="278.97" x2="459.16" y2="304.33"/><path d="M456.47,351.06v4.32h-22.4a8.94,8.94,0,0,1,.49-3.12,16.76,16.76,0,0,1,2.75-4.85,43.64,43.64,0,0,1,5.43-5.53,48.41,48.41,0,0,0,7.46-7.75,9.68,9.68,0,0,0,1.95-5.4,6.23,6.23,0,0,0-1.77-4.5,6.16,6.16,0,0,0-4.61-1.83,6.25,6.25,0,0,0-4.81,2,7.72,7.72,0,0,0-1.83,5.38l-4.27-.48q.43-5.16,3.31-7.86a10.79,10.79,0,0,1,7.69-2.7,10.24,10.24,0,0,1,7.71,2.92,9.94,9.94,0,0,1,2.85,7.23,11.74,11.74,0,0,1-.83,4.3,16.76,16.76,0,0,1-2.76,4.47,70.84,70.84,0,0,1-6.42,6.43c-2.49,2.26-4.09,3.8-4.8,4.6a15.35,15.35,0,0,0-1.75,2.42Zm4.28-13.69A35.73,35.73,0,0,1,462,326.93a13.11,13.11,0,0,1,3.67-6.09,8.93,8.93,0,0,1,6.13-2.15,9.49,9.49,0,0,1,4.78,1.18,9.37,9.37,0,0,1,3.4,3.42,19.19,19.19,0,0,1,2.1,5.43,38.69,38.69,0,0,1,.77,8.65,35.92,35.92,0,0,1-1.22,10.37,13.17,13.17,0,0,1-3.67,6.11,9.79,9.79,0,0,1-13.76-1.52l-.09-.11Q460.77,347.65,460.75,337.37Zm4.27,0q0,9,2,12a5.67,5.67,0,0,0,4.81,3q2.87,0,4.82-3c1.3-2,2-6,2-11.95s-.65-10-2-12a5.71,5.71,0,0,0-4.86-3,5.25,5.25,0,0,0-4.57,2.62Q465,328.36,465,337.37Z"/><path class="cls-3" d="M432.64,236.87h4.49V258a26.81,26.81,0,0,1-1.16,8.76,10.54,10.54,0,0,1-4.18,5.26,13.89,13.89,0,0,1-7.9,2,15.28,15.28,0,0,1-7.79-1.77,9.88,9.88,0,0,1-4.32-5.12,26.1,26.1,0,0,1-1.29-9.16v-21.1H415V258a22.07,22.07,0,0,0,.83,7,6.55,6.55,0,0,0,2.82,3.48,9.25,9.25,0,0,0,4.88,1.22q5,0,7.05-2.42t2.1-9.3Z"/><path class="cls-2" d="M372.67,273.41l13-36.54h4.83l13.85,36.54h-5.09l-4-11.07H381.14l-3.72,11.07Zm9.76-15h11.49l-3.53-10.12c-1.08-3.07-1.89-5.6-2.41-7.58a46.78,46.78,0,0,1-1.83,7Z"/><path class="cls-2" d="M354.53,259.08v-4.29h14.34v13.56a25,25,0,0,1-6.82,4.28,18.91,18.91,0,0,1-7.2,1.43,18.11,18.11,0,0,1-9.07-2.3,14.67,14.67,0,0,1-6.15-6.67,22.3,22.3,0,0,1-2.08-9.75,24,24,0,0,1,2.07-10,14.35,14.35,0,0,1,5.94-6.86,17.49,17.49,0,0,1,8.94-2.25,16.61,16.61,0,0,1,6.64,1.28,11.18,11.18,0,0,1,4.66,3.58,16.31,16.31,0,0,1,2.56,6l-4,1.2a14.07,14.07,0,0,0-1.9-4.39,7.79,7.79,0,0,0-3.23-2.56,11,11,0,0,0-4.66-1,13.11,13.11,0,0,0-5.32,1,10,10,0,0,0-3.62,2.65,13.13,13.13,0,0,0-2.13,3.63,20.43,20.43,0,0,0-1.3,7.34,18.86,18.86,0,0,0,1.57,8.18,10.43,10.43,0,0,0,4.53,4.89,13.19,13.19,0,0,0,6.33,1.59,14,14,0,0,0,5.69-1.21,14.38,14.38,0,0,0,4.2-2.57v-6.81Z"/><path class="cls-2" d="M326.86,236.87h4.49V258a26.81,26.81,0,0,1-1.16,8.76A10.52,10.52,0,0,1,326,272a14,14,0,0,1-7.91,2,15.27,15.27,0,0,1-7.78-1.77,9.75,9.75,0,0,1-4.32-5.12,25.88,25.88,0,0,1-1.3-9.16V236.87h4.48V258a22.06,22.06,0,0,0,.82,7,6.68,6.68,0,0,0,2.82,3.48,9.25,9.25,0,0,0,4.88,1.22q4.95,0,7.05-2.42t2.1-9.3Z"/><path class="cls-2" d="M293.54,260.6l4.49,1.22a16.53,16.53,0,0,1-5,9.08,13.29,13.29,0,0,1-9,3.1,15.18,15.18,0,0,1-8.91-2.41,14.68,14.68,0,0,1-5.22-7,26.71,26.71,0,0,1-1.79-9.8,23,23,0,0,1,2-10,14.55,14.55,0,0,1,5.75-6.45,16,16,0,0,1,8.21-2.2,13.15,13.15,0,0,1,8.55,2.8,14.51,14.51,0,0,1,4.84,7.83L293,248a11.46,11.46,0,0,0-3.41-5.81,8.69,8.69,0,0,0-5.64-1.82,10.35,10.35,0,0,0-6.52,2,10.7,10.7,0,0,0-3.69,5.43A25.2,25.2,0,0,0,274,263a9.94,9.94,0,0,0,3.91,5.19,10.35,10.35,0,0,0,5.76,1.72,9.23,9.23,0,0,0,6.37-2.34A12.19,12.19,0,0,0,293.54,260.6Z"/><path class="cls-2" d="M258.28,260.6l4.49,1.22a16.56,16.56,0,0,1-5.07,9.08,13.29,13.29,0,0,1-8.95,3.13,15.18,15.18,0,0,1-8.91-2.41,14.9,14.9,0,0,1-5.22-7,26.71,26.71,0,0,1-1.79-9.8,23,23,0,0,1,2-10,14.52,14.52,0,0,1,5.76-6.45,16,16,0,0,1,8.2-2.2,13.31,13.31,0,0,1,8.56,2.8,14.59,14.59,0,0,1,4.83,7.83l-4.41,1.2a11.46,11.46,0,0,0-3.41-5.81,8.69,8.69,0,0,0-5.64-1.82,10.35,10.35,0,0,0-6.52,2,10.7,10.7,0,0,0-3.69,5.43,23.45,23.45,0,0,0-1.07,7,23.93,23.93,0,0,0,1.27,8.13,10,10,0,0,0,3.92,5.19,10.32,10.32,0,0,0,5.75,1.72,9.23,9.23,0,0,0,6.37-2.34A12.13,12.13,0,0,0,258.28,260.6Z"/><line class="cls-4" x1="249.07" y1="200.55" x2="249.07" y2="234.39"/><line class="cls-4" x1="283.96" y1="200.55" x2="283.96" y2="234.39"/><line class="cls-4" x1="318.85" y1="200.55" x2="318.85" y2="234.39"/><line class="cls-4" x1="353.75" y1="200.55" x2="353.75" y2="234.39"/><line class="cls-4" x1="388.64" y1="200.55" x2="388.64" y2="234.39"/><g class="cls-7"><text class="cls-8" transform="translate(416.05 222.44) scale(0.94 1)"><tspan xml:space="preserve"> NeomycinB</tspan></text></g><g class="cls-7"><text class="cls-8" transform="translate(163.36 46.87)"><tspan xml:space="preserve"> NeomycinB  aptamer</tspan></text></g><g class="cls-7"><text class="cls-9" transform="translate(198.67 268.58)">3<tspan class="cls-10" x="20.02" y="0">’</tspan></text></g><g class="cls-7"><text class="cls-9" transform="translate(198.67 191)">5<tspan class="cls-10" x="20.02" y="0">’</tspan></text></g></svg>