<svg id="图层_1" data-name="图层 1" xmlns="http://www.w3.org/2000/svg" viewBox="0 0 800 400">
  <defs>
    <style>
      .cls-1, .cls-10, .cls-11, .cls-2, .cls-3, .cls-4, .cls-7, .cls-8, .cls-9 {
        isolation: isolate;
      }

      .cls-1, .cls-10, .cls-11, .cls-2, .cls-3, .cls-4, .cls-7, .cls-9 {
        font-size: 25.52px;
      }

      .cls-1, .cls-2 {
        fill: #f9c;
      }

      .cls-1, .cls-10, .cls-11, .cls-14, .cls-2, .cls-3, .cls-4, .cls-7, .cls-8, .cls-9 {
        font-family: ArialMT, Arial;
      }

      .cls-11, .cls-2, .cls-7, .cls-9 {
        letter-spacing: -0.06em;
      }

      .cls-3, .cls-7 {
        fill: #f93;
      }

      .cls-4, .cls-9 {
        fill: #909;
      }

      .cls-13, .cls-5 {
        fill: none;
      }

      .cls-12, .cls-13, .cls-5, .cls-6 {
        stroke: #000;
        stroke-miterlimit: 1.11;
      }

      .cls-12, .cls-5, .cls-6 {
        stroke-width: 0.14px;
      }

      .cls-6 {
        fill: #fff;
      }

      .cls-8 {
        font-size: 18px;
      }

      .cls-10, .cls-11 {
        fill: #6c6;
      }

      .cls-13 {
        stroke-width: 1.14px;
      }

      .cls-14 {
        font-size: 20px;
      }

      .cls-15 {
        letter-spacing: -0.04em;
      }
    </style>
  </defs>
  <g id="ID000002">
    <text class="cls-1" transform="translate(354.06 396.88)">C</text>
  </g>
  <g id="ID000003">
    <text class="cls-2" transform="translate(354.76 371.8)">A</text>
  </g>
  <g id="ID000004">
    <text class="cls-1" transform="translate(354.06 346.73)">U</text>
  </g>
  <g id="ID000005">
    <text class="cls-2" transform="translate(354.76 321.65)">A</text>
  </g>
  <g id="ID000006">
    <text class="cls-1" transform="translate(354.06 296.57)">C</text>
  </g>
  <g id="ID000007">
    <text class="cls-3" transform="translate(354.06 271.49)">U</text>
  </g>
  <g id="ID000008">
    <text class="cls-3" transform="translate(328.98 252.68)">U</text>
  </g>
  <g id="ID000009">
    <text class="cls-4" transform="translate(416.05 246.41)">G</text>
  </g>
  <g id="ID000010">
    <text class="cls-3" transform="translate(404.22 271.49)">C</text>
  </g>
  <g id="ID000011">
    <text class="cls-1" transform="translate(403.5 296.57)">G</text>
  </g>
  <g id="ID000012">
    <text class="cls-1" transform="translate(404.22 321.65)">U</text>
  </g>
  <g id="ID000013">
    <text class="cls-2" transform="translate(404.92 346.73)">A</text>
  </g>
  <g id="ID000014">
    <text class="cls-1" transform="translate(404.22 371.8)">U</text>
  </g>
  <g id="ID000015">
    <text class="cls-1" transform="translate(403.5 396.88)">G</text>
  </g>
  <g id="ID000016">
    <line class="cls-5" x1="373.31" y1="385.6" x2="403.4" y2="385.6"/>
  </g>
  <g id="ID000017">
    <line class="cls-5" x1="373.31" y1="360.52" x2="403.4" y2="360.52"/>
  </g>
  <g id="ID000018">
    <line class="cls-5" x1="373.31" y1="335.44" x2="403.4" y2="335.44"/>
  </g>
  <g id="ID000019">
    <line class="cls-5" x1="373.31" y1="310.36" x2="403.4" y2="310.36"/>
  </g>
  <g id="ID000020">
    <line class="cls-5" x1="373.31" y1="285.28" x2="403.4" y2="285.28"/>
  </g>
  <g id="ID000021">
    <line class="cls-5" x1="373.31" y1="260.2" x2="403.4" y2="260.2"/>
  </g>
  <g id="ID000022">
    <polygon class="cls-6" points="376.82 260.2 376.83 260.52 376.86 260.84 376.91 261.15 376.98 261.46 377.07 261.77 377.18 262.07 377.31 262.36 377.45 262.64 377.61 262.91 377.8 263.18 377.99 263.43 378.2 263.66 378.43 263.89 378.67 264.1 378.92 264.29 379.19 264.46 379.46 264.62 379.75 264.76 380.04 264.89 380.34 264.99 380.65 265.08 380.96 265.14 381.28 265.19 381.6 265.21 381.91 265.22 382.23 265.2 382.55 265.17 382.86 265.11 383.17 265.04 383.47 264.94 383.77 264.83 384.06 264.7 384.34 264.55 384.61 264.38 384.87 264.19 385.12 263.99 385.35 263.78 385.57 263.55 385.78 263.3 385.96 263.05 386.14 262.78 386.29 262.5 386.43 262.21 386.55 261.92 386.65 261.62 386.73 261.31 386.79 260.99 386.83 260.68 386.85 260.36 386.85 260.04 386.83 259.73 386.79 259.41 386.73 259.1 386.65 258.79 386.55 258.49 386.43 258.19 386.29 257.9 386.14 257.63 385.96 257.36 385.78 257.1 385.57 256.86 385.35 256.63 385.12 256.41 384.87 256.21 384.61 256.03 384.34 255.86 384.06 255.71 383.77 255.58 383.47 255.46 383.17 255.37 382.86 255.29 382.55 255.24 382.23 255.2 381.91 255.19 381.6 255.19 381.28 255.22 380.96 255.26 380.65 255.33 380.34 255.41 380.04 255.52 379.75 255.64 379.46 255.78 379.19 255.94 378.92 256.12 378.67 256.31 378.43 256.52 378.2 256.74 377.99 256.98 377.8 257.23 377.61 257.49 377.45 257.76 377.31 258.05 377.18 258.34 377.07 258.64 376.98 258.94 376.91 259.25 376.86 259.57 376.83 259.88 376.82 260.2"/>
  </g>
  <g id="ID000023">
    <polygon class="cls-6" points="399.89 255.19 389.86 255.19 389.86 265.22 399.89 265.22 399.89 255.19"/>
  </g>
  <g id="ID000025">
    <text class="cls-3" transform="translate(315.73 221.33)">G</text>
  </g>
  <g id="ID000026">
    <text class="cls-7" transform="translate(335.95 189.98)">A</text>
  </g>
  <g id="ID000027">
    <text class="cls-7" transform="translate(354.76 164.9)">A</text>
  </g>
  <g id="ID000028">
    <line class="cls-5" x1="346.55" y1="153.61" x2="329.84" y2="153.61"/>
  </g>
  <g id="ID000029">
    <text class="cls-8" transform="translate(303.39 159.76)">10</text>
  </g>
  <g id="ID000030">
    <text class="cls-9" transform="translate(354.76 139.82)">A</text>
  </g>
  <g id="ID000031">
    <text class="cls-4" transform="translate(354.06 114.74)">C</text>
  </g>
  <g id="ID000032">
    <text class="cls-4" transform="translate(354.06 89.66)">U</text>
  </g>
  <g id="ID000033">
    <text class="cls-4" transform="translate(334.54 58.31)">G</text>
  </g>
  <g id="ID000034">
    <text class="cls-10" transform="translate(360.33 33.23)">U</text>
  </g>
  <g id="ID000035">
    <text class="cls-11" transform="translate(392.38 33.23)">A</text>
  </g>
  <g id="ID000036">
    <text class="cls-11" transform="translate(417.46 58.31)">A</text>
  </g>
  <g id="ID000037">
    <text class="cls-4" transform="translate(403.5 89.66)">G</text>
  </g>
  <g id="ID000038">
    <text class="cls-4" transform="translate(403.5 114.74)">G</text>
  </g>
  <g id="ID000039">
    <text class="cls-4" transform="translate(404.22 139.82)">U</text>
  </g>
  <g id="ID000040">
    <line class="cls-5" x1="430.15" y1="128.54" x2="446.87" y2="128.54"/>
  </g>
  <g id="ID000041">
    <text class="cls-8" transform="translate(448.77 134.99)">20</text>
  </g>
  <g id="ID000042">
    <text class="cls-4" transform="translate(404.22 164.9)">U</text>
  </g>
  <g id="ID000043">
    <text class="cls-4" transform="translate(416.05 189.98)">G</text>
  </g>
  <g id="ID000044">
    <line class="cls-5" x1="354.5" y1="178.69" x2="415.94" y2="178.69"/>
  </g>
  <g id="ID000045">
    <polygon class="cls-6" points="373.68 183.71 383.71 183.71 383.71 173.68 373.68 173.68 373.68 183.71"/>
  </g>
  <g id="ID000046">
    <polygon class="cls-6" points="398.26 178.69 388.48 173.05 388.48 184.34 398.26 178.69"/>
  </g>
  <g id="ID000047">
    <line class="cls-5" x1="373.31" y1="153.61" x2="403.4" y2="153.61"/>
  </g>
  <g id="ID000048">
    <line class="cls-5" x1="373.31" y1="128.54" x2="403.4" y2="128.54"/>
  </g>
  <g id="ID000049">
    <line class="cls-5" x1="373.31" y1="103.46" x2="403.4" y2="103.46"/>
  </g>
  <g id="ID000050">
    <polygon class="cls-12" points="393.37 78.38 393.36 78.06 393.33 77.74 393.28 77.43 393.21 77.12 393.12 76.81 393.01 76.51 392.88 76.22 392.74 75.94 392.57 75.67 392.39 75.4 392.2 75.15 391.98 74.92 391.76 74.69 391.52 74.48 391.26 74.29 391 74.11 390.72 73.95 390.44 73.81 390.14 73.69 389.84 73.59 389.54 73.5 389.23 73.44 388.91 73.39 388.59 73.37 388.27 73.36 387.96 73.38 387.64 73.41 387.33 73.47 387.02 73.54 386.71 73.64 386.42 73.75 386.13 73.88 385.85 74.03 385.58 74.2 385.32 74.39 385.07 74.59 384.84 74.8 384.62 75.03 384.41 75.28 384.22 75.53 384.05 75.8 383.89 76.08 383.76 76.37 383.64 76.66 383.54 76.96 383.46 77.27 383.4 77.58 383.36 77.9 383.34 78.22 383.34 78.53 383.36 78.85 383.4 79.17 383.46 79.48 383.54 79.79 383.64 80.09 383.76 80.39 383.89 80.67 384.05 80.95 384.22 81.22 384.41 81.48 384.62 81.72 384.84 81.95 385.07 82.17 385.32 82.37 385.58 82.55 385.85 82.72 386.13 82.87 386.42 83 386.71 83.12 387.02 83.21 387.33 83.29 387.64 83.34 387.96 83.38 388.27 83.39 388.59 83.39 388.91 83.36 389.23 83.32 389.54 83.25 389.84 83.17 390.14 83.06 390.44 82.94 390.72 82.8 391 82.64 391.26 82.46 391.52 82.27 391.76 82.06 391.98 81.84 392.2 81.6 392.39 81.35 392.57 81.09 392.74 80.82 392.88 80.53 393.01 80.24 393.12 79.94 393.21 79.64 393.28 79.33 393.33 79.01 393.36 78.69 393.37 78.38"/>
  </g>
  <g id="ID000051">
    <line class="cls-5" x1="354.5" y1="47.03" x2="415.94" y2="47.03"/>
  </g>
  <g id="ID000052">
    <polygon class="cls-6" points="372.18 47.03 381.96 52.67 381.96 41.38 372.18 47.03"/>
  </g>
  <g id="ID000053">
    <polygon class="cls-6" points="396.76 42.01 386.72 42.01 386.72 52.04 396.76 52.04 396.76 42.01"/>
  </g>
  <g id="ID000055">
    <line class="cls-13" x1="425.97" y1="188.73" x2="425.97" y2="225.09"/>
  </g>
  <g id="ID000056">
    <polygon class="cls-12" points="433.5 198.55 429.74 202.73 428.48 206.91 427.85 211.09 425.97 219.45 424.09 211.09 423.46 206.91 422.21 202.73 418.45 198.55 433.5 198.55"/>
  </g>
  <text class="cls-14" transform="translate(331 396.88)">5<tspan class="cls-15" x="11.12" y="0">’</tspan></text>
  <text class="cls-14" transform="translate(434.53 396.88)">3<tspan class="cls-15" x="11.12" y="0">’</tspan></text>
  <text class="cls-14" transform="translate(102.18 39.73)">NF-kappaB aptamer</text>
</svg>
