<?xml version="1.0" encoding="utf-8"?>
<!-- Generator: Adobe Illustrator 25.2.0, SVG Export Plug-In . SVG Version: 6.00 Build 0)  -->
<svg version="1.1" id="图层_1" xmlns="http://www.w3.org/2000/svg" xmlns:xlink="http://www.w3.org/1999/xlink" x="0px" y="0px"
	 viewBox="0 0 800 400" style="enable-background:new 0 0 800 400;" xml:space="preserve">
<style type="text/css">
	.st0{fill:#FF9999;}
	.st1{font-family:'ArialMT';}
	.st2{font-size:25.52px;}
	.st3{letter-spacing:-1;}
	.st4{fill:#990099;}
	.st5{fill:none;stroke:#000000;stroke-width:0.14;stroke-miterlimit:1.11;}
	.st6{fill:#FFFFFF;stroke:#000000;stroke-width:0.14;stroke-miterlimit:1.11;}
	.st7{font-size:18px;}
	.st8{stroke:#000000;stroke-width:0.14;stroke-miterlimit:1.11;}
	.st9{fill:none;stroke:#000000;stroke-width:1.14;stroke-miterlimit:1.11;}
	.st10{font-size:20px;}
</style>
<g id="ID000002">
	<text transform="matrix(1 0 0 1 354.06 396.88)" class="st0 st1 st2">C</text>
</g>
<g id="ID000003">
	<text transform="matrix(1 0 0 1 354.76 371.8)" class="st0 st1 st2 st3">A</text>
</g>
<g id="ID000004">
	<text transform="matrix(1 0 0 1 354.06 346.73)" class="st0 st1 st2">U</text>
</g>
<g id="ID000005">
	<text transform="matrix(1 0 0 1 354.76 321.65)" class="st0 st1 st2 st3">A</text>
</g>
<g id="ID000006">
	<text transform="matrix(1 0 0 1 354.06 296.57)" class="st0 st1 st2">C</text>
</g>
<g id="ID000007">
	<text transform="matrix(1 0 0 1 354.06 271.49)" class="st0 st1 st2">U</text>
</g>
<g id="ID000008">
	<text transform="matrix(1 0 0 1 328.98 252.68)" class="st0 st1 st2">U</text>
</g>
<g id="ID000009">
	<text transform="matrix(1 0 0 1 416.05 246.41)" class="st4 st1 st2">G</text>
</g>
<g id="ID000010">
	<text transform="matrix(1 0 0 1 404.22 271.49)" class="st0 st1 st2">C</text>
</g>
<g id="ID000011">
	<text transform="matrix(1 0 0 1 403.5 296.57)" class="st0 st1 st2">G</text>
</g>
<g id="ID000012">
	<text transform="matrix(1 0 0 1 404.22 321.65)" class="st0 st1 st2">U</text>
</g>
<g id="ID000013">
	<text transform="matrix(1 0 0 1 404.92 346.73)" class="st0 st1 st2 st3">A</text>
</g>
<g id="ID000014">
	<text transform="matrix(1 0 0 1 404.22 371.8)" class="st0 st1 st2">U</text>
</g>
<g id="ID000015">
	<text transform="matrix(1 0 0 1 403.5 396.88)" class="st0 st1 st2">G</text>
</g>
<g id="ID000016">
	<line class="st5" x1="373.3" y1="385.6" x2="403.4" y2="385.6"/>
</g>
<g id="ID000017">
	<line class="st5" x1="373.3" y1="360.5" x2="403.4" y2="360.5"/>
</g>
<g id="ID000018">
	<line class="st5" x1="373.3" y1="335.4" x2="403.4" y2="335.4"/>
</g>
<g id="ID000019">
	<line class="st5" x1="373.3" y1="310.4" x2="403.4" y2="310.4"/>
</g>
<g id="ID000020">
	<line class="st5" x1="373.3" y1="285.3" x2="403.4" y2="285.3"/>
</g>
<g id="ID000021">
	<line class="st5" x1="373.3" y1="260.2" x2="403.4" y2="260.2"/>
</g>
<g id="ID000022">
	<polygon class="st6" points="376.8,260.2 376.8,260.5 376.9,260.8 376.9,261.1 377,261.5 377.1,261.8 377.2,262.1 377.3,262.4 
		377.5,262.6 377.6,262.9 377.8,263.2 378,263.4 378.2,263.7 378.4,263.9 378.7,264.1 378.9,264.3 379.2,264.5 379.5,264.6 
		379.8,264.8 380,264.9 380.3,265 380.6,265.1 381,265.1 381.3,265.2 381.6,265.2 381.9,265.2 382.2,265.2 382.5,265.2 382.9,265.1 
		383.2,265 383.5,264.9 383.8,264.8 384.1,264.7 384.3,264.5 384.6,264.4 384.9,264.2 385.1,264 385.4,263.8 385.6,263.5 
		385.8,263.3 386,263 386.1,262.8 386.3,262.5 386.4,262.2 386.5,261.9 386.6,261.6 386.7,261.3 386.8,261 386.8,260.7 386.9,260.4 
		386.9,260 386.8,259.7 386.8,259.4 386.7,259.1 386.6,258.8 386.5,258.5 386.4,258.2 386.3,257.9 386.1,257.6 386,257.4 
		385.8,257.1 385.6,256.9 385.4,256.6 385.1,256.4 384.9,256.2 384.6,256 384.3,255.9 384.1,255.7 383.8,255.6 383.5,255.5 
		383.2,255.4 382.9,255.3 382.5,255.2 382.2,255.2 381.9,255.2 381.6,255.2 381.3,255.2 381,255.3 380.6,255.3 380.3,255.4 
		380,255.5 379.8,255.6 379.5,255.8 379.2,255.9 378.9,256.1 378.7,256.3 378.4,256.5 378.2,256.7 378,257 377.8,257.2 377.6,257.5 
		377.5,257.8 377.3,258 377.2,258.3 377.1,258.6 377,258.9 376.9,259.2 376.9,259.6 376.8,259.9 	"/>
</g>
<g id="ID000023">
	<polygon class="st6" points="399.9,255.2 389.9,255.2 389.9,265.2 399.9,265.2 	"/>
</g>
<g id="ID000025">
	<text transform="matrix(1 0 0 1 315.73 221.33)" class="st0 st1 st2">G</text>
</g>
<g id="ID000026">
	<text transform="matrix(1 0 0 1 335.95 189.98)" class="st0 st1 st2 st3">A</text>
</g>
<g id="ID000027">
	<text transform="matrix(1 0 0 1 354.76 164.9)" class="st0 st1 st2 st3">A</text>
</g>
<g id="ID000028">
	<line class="st5" x1="346.5" y1="153.6" x2="329.8" y2="153.6"/>
</g>
<g id="ID000029">
	<text transform="matrix(1 0 0 1 303.39 159.76)" class="st1 st7">10</text>
</g>
<g id="ID000030">
	<text transform="matrix(1 0 0 1 354.76 139.82)" class="st4 st1 st2 st3">A</text>
</g>
<g id="ID000031">
	<text transform="matrix(1 0 0 1 354.06 114.74)" class="st4 st1 st2">C</text>
</g>
<g id="ID000032">
	<text transform="matrix(1 0 0 1 354.06 89.66)" class="st4 st1 st2">U</text>
</g>
<g id="ID000033">
	<text transform="matrix(1 0 0 1 334.54 58.31)" class="st4 st1 st2">G</text>
</g>
<g id="ID000034">
	<text transform="matrix(1 0 0 1 360.33 33.23)" class="st0 st1 st2">U</text>
</g>
<g id="ID000035">
	<text transform="matrix(1 0 0 1 392.38 33.23)" class="st0 st1 st2 st3">A</text>
</g>
<g id="ID000036">
	<text transform="matrix(1 0 0 1 417.46 58.31)" class="st0 st1 st2 st3">A</text>
</g>
<g id="ID000037">
	<text transform="matrix(1 0 0 1 403.5 89.66)" class="st4 st1 st2">G</text>
</g>
<g id="ID000038">
	<text transform="matrix(1 0 0 1 403.5 114.74)" class="st4 st1 st2">G</text>
</g>
<g id="ID000039">
	<text transform="matrix(1 0 0 1 404.22 139.82)" class="st4 st1 st2">U</text>
</g>
<g id="ID000040">
	<line class="st5" x1="430.1" y1="128.5" x2="446.9" y2="128.5"/>
</g>
<g id="ID000041">
	<text transform="matrix(1 0 0 1 448.77 134.99)" class="st1 st7">20</text>
</g>
<g id="ID000042">
	<text transform="matrix(1 0 0 1 404.22 164.9)" class="st4 st1 st2">U</text>
</g>
<g id="ID000043">
	<text transform="matrix(1 0 0 1 416.05 189.98)" class="st4 st1 st2">G</text>
</g>
<g id="ID000044">
	<line class="st5" x1="354.5" y1="178.7" x2="415.9" y2="178.7"/>
</g>
<g id="ID000045">
	<polygon class="st6" points="373.7,183.7 383.7,183.7 383.7,173.7 373.7,173.7 	"/>
</g>
<g id="ID000046">
	<polygon class="st6" points="398.3,178.7 388.5,173.1 388.5,184.3 	"/>
</g>
<g id="ID000047">
	<line class="st5" x1="373.3" y1="153.6" x2="403.4" y2="153.6"/>
</g>
<g id="ID000048">
	<line class="st5" x1="373.3" y1="128.5" x2="403.4" y2="128.5"/>
</g>
<g id="ID000049">
	<line class="st5" x1="373.3" y1="103.5" x2="403.4" y2="103.5"/>
</g>
<g id="ID000050">
	<polygon class="st8" points="393.4,78.4 393.4,78.1 393.3,77.7 393.3,77.4 393.2,77.1 393.1,76.8 393,76.5 392.9,76.2 392.7,75.9 
		392.6,75.7 392.4,75.4 392.2,75.2 392,74.9 391.8,74.7 391.5,74.5 391.3,74.3 391,74.1 390.7,73.9 390.4,73.8 390.1,73.7 
		389.8,73.6 389.5,73.5 389.2,73.4 388.9,73.4 388.6,73.4 388.3,73.4 388,73.4 387.6,73.4 387.3,73.5 387,73.5 386.7,73.6 
		386.4,73.8 386.1,73.9 385.9,74 385.6,74.2 385.3,74.4 385.1,74.6 384.8,74.8 384.6,75 384.4,75.3 384.2,75.5 384,75.8 383.9,76.1 
		383.8,76.4 383.6,76.7 383.5,77 383.5,77.3 383.4,77.6 383.4,77.9 383.3,78.2 383.3,78.5 383.4,78.8 383.4,79.2 383.5,79.5 
		383.5,79.8 383.6,80.1 383.8,80.4 383.9,80.7 384,80.9 384.2,81.2 384.4,81.5 384.6,81.7 384.8,81.9 385.1,82.2 385.3,82.4 
		385.6,82.6 385.9,82.7 386.1,82.9 386.4,83 386.7,83.1 387,83.2 387.3,83.3 387.6,83.3 388,83.4 388.3,83.4 388.6,83.4 388.9,83.4 
		389.2,83.3 389.5,83.2 389.8,83.2 390.1,83.1 390.4,82.9 390.7,82.8 391,82.6 391.3,82.5 391.5,82.3 391.8,82.1 392,81.8 
		392.2,81.6 392.4,81.3 392.6,81.1 392.7,80.8 392.9,80.5 393,80.2 393.1,79.9 393.2,79.6 393.3,79.3 393.3,79 393.4,78.7 	"/>
</g>
<g id="ID000051">
	<line class="st5" x1="354.5" y1="47" x2="415.9" y2="47"/>
</g>
<g id="ID000052">
	<polygon class="st6" points="372.2,47 382,52.7 382,41.4 	"/>
</g>
<g id="ID000053">
	<polygon class="st6" points="396.8,42 386.7,42 386.7,52 396.8,52 	"/>
</g>
<g id="ID000055">
	<line class="st9" x1="426" y1="188.7" x2="426" y2="225.1"/>
</g>
<g id="ID000056">
	<polygon class="st8" points="433.5,198.6 429.7,202.7 428.5,206.9 427.9,211.1 426,219.4 424.1,211.1 423.5,206.9 422.2,202.7 
		418.5,198.6 	"/>
</g>
<text transform="matrix(1 0 0 1 331 396.88)" class="st1 st10">5</text>
<text transform="matrix(1 0 0 1 342.12 396.88)" class="st1 st10">’</text>
<text transform="matrix(1 0 0 1 434.53 396.88)" class="st1 st10">3</text>
<text transform="matrix(1 0 0 1 445.65 396.88)" class="st1 st10">’</text>
<text transform="matrix(1 0 0 1 71.3694 36.5122)" class="st1 st10">α-p50 RNA aptamer</text>
</svg>
