<?xml version="1.0" encoding="utf-8"?>
<!-- Generator: Adobe Illustrator 25.2.0, SVG Export Plug-In . SVG Version: 6.00 Build 0)  -->
<svg version="1.1" id="图层_1" xmlns="http://www.w3.org/2000/svg" xmlns:xlink="http://www.w3.org/1999/xlink" x="0px" y="0px"
	 viewBox="0 0 800 400" style="enable-background:new 0 0 800 400;" xml:space="preserve">
<style type="text/css">
	.st0{font-family:'MicrosoftYaHei';}
	.st1{font-size:20px;}
	.st2{fill:#66CC66;}
	.st3{font-size:16.0566px;}
	.st4{fill:#FF99CC;}
	.st5{fill:#FF99CC;stroke:#000000;stroke-width:0.25;stroke-miterlimit:10;}
	.st6{fill:#FFCC66;}
	.st7{fill:#FF9933;}
	.st8{fill:#33CC33;}
	.st9{fill:none;stroke:#000000;stroke-width:0.25;stroke-miterlimit:10;}
	.st10{font-family:'ArialMT';}
	.st11{font-size:18.5089px;}
</style>
<text transform="matrix(1 0 0 1 13.5094 23.5108)" class="st0 st1">no.21 aptamer</text>
<text transform="matrix(1 0 0 1 350.374 224.4629)" class="st2 st0 st3">A</text>
<text transform="matrix(1 0 0 1 359.9834 315.8789)" class="st4 st0 st3">A</text>
<text transform="matrix(1 0 0 1 393.001 315.9697)" class="st4 st0 st3">C</text>
<line class="st5" x1="311.6" y1="370.9" x2="332.2" y2="370.9"/>
<text transform="matrix(1 0 0 1 306.7861 224.4629)" class="st2 st0 st3">G</text>
<text transform="matrix(1 0 0 1 317.3105 224.4629)" class="st2 st0 st3">G</text>
<text transform="matrix(1 0 0 1 350.5576 135.4307)" class="st6 st0 st3">G</text>
<text transform="matrix(1 0 0 1 326.3467 135.2246)" class="st6 st0 st3">G</text>
<text transform="matrix(1 0 0 1 338.9902 142.0156)" class="st6 st0 st3">G</text>
<text transform="matrix(1 0 0 1 352.7334 36.5596)" class="st6 st0 st3">G</text>
<text transform="matrix(1 0 0 1 395.2109 23.0684)" class="st6 st0 st3">A</text>
<text transform="matrix(1 0 0 1 414.417 112.7773)" class="st6 st0 st3">G</text>
<text transform="matrix(1 0 0 1 422.7207 125.1348)" class="st6 st0 st3">G</text>
<text transform="matrix(1 0 0 1 403.6631 138.5342)" class="st6 st0 st3">G</text>
<text transform="matrix(1 0 0 1 467.1221 252.4082)" class="st7 st0 st3">G</text>
<text transform="matrix(1 0 0 1 490.6689 267.8232)" class="st7 st0 st3">G</text>
<text transform="matrix(1 0 0 1 397.0332 343.3994)" class="st4 st0 st3">G</text>
<text transform="matrix(1 0 0 1 332.0732 376.543)" class="st4 st0 st3">G</text>
<text transform="matrix(1 0 0 1 348.4395 302.1807)" class="st4 st0 st3">G</text>
<text transform="matrix(1 0 0 1 337.8447 302.1807)" class="st4 st0 st3">G</text>
<text transform="matrix(1 0 0 1 360.8643 145.0508)" class="st8 st0 st3">G</text>
<text transform="matrix(1 0 0 1 360.3389 102.4355)" class="st6 st0 st3">G</text>
<text transform="matrix(1 0 0 1 393.2998 88.9434)" class="st6 st0 st3">G</text>
<text transform="matrix(1 0 0 1 392.9443 159.3438)" class="st8 st0 st3">G</text>
<text transform="matrix(1 0 0 1 393.7686 186.0166)" class="st8 st0 st3">G</text>
<text transform="matrix(1 0 0 1 393.792 212.3691)" class="st8 st0 st3">G</text>
<text transform="matrix(1 0 0 1 456.3799 290.9805)" class="st7 st0 st3">G</text>
<text transform="matrix(1 0 0 1 446.4287 290.9805)" class="st7 st0 st3">G</text>
<text transform="matrix(1 0 0 1 435.7998 290.9805)" class="st7 st0 st3">G</text>
<text transform="matrix(1 0 0 1 425.0459 290.4424)" class="st7 st0 st3">G</text>
<text transform="matrix(1 0 0 1 359.9834 329.4736)" class="st4 st0 st3">G</text>
<text transform="matrix(1 0 0 1 359.1924 302.3867)" class="st4 st0 st3">G</text>
<text transform="matrix(1 0 0 1 361.1289 224.4629)" class="st8 st0 st3">A</text>
<text transform="matrix(1 0 0 1 360.3389 199.2217)" class="st8 st0 st3">A</text>
<text transform="matrix(1 0 0 1 394.2617 63.7939)" class="st6 st0 st3">A</text>
<text transform="matrix(1 0 0 1 394.0781 75.9453)" class="st6 st0 st3">A</text>
<text transform="matrix(1 0 0 1 393.7451 172.8691)" class="st8 st0 st3">A</text>
<text transform="matrix(1 0 0 1 318.2725 121.5381)" class="st6 st0 st3">A</text>
<text transform="matrix(1 0 0 1 327.6299 108.9404)" class="st6 st0 st3">A</text>
<text transform="matrix(1 0 0 1 350.374 108.4131)" class="st6 st0 st3">A</text>
<text transform="matrix(1 0 0 1 354.6113 50.5088)" class="st6 st0 st3">A</text>
<text transform="matrix(1 0 0 1 361.8262 22.7363)" class="st6 st0 st3">A</text>
<text transform="matrix(1 0 0 1 399.1973 49.7988)" class="st6 st0 st3">A</text>
<text transform="matrix(1 0 0 1 415.7812 134.0439)" class="st6 st0 st3">A</text>
<text transform="matrix(1 0 0 1 400.7891 232.3887)" class="st7 st0 st3">A</text>
<text transform="matrix(1 0 0 1 414.9785 252.6133)" class="st7 st0 st3">A</text>
<text transform="matrix(1 0 0 1 468.0967 294.8281)" class="st7 st0 st3">A</text>
<text transform="matrix(1 0 0 1 416.8799 297.2793)" class="st7 st0 st3">A</text>
<text transform="matrix(1 0 0 1 404.6719 297.2793)" class="st4 st0 st3">A</text>
<text transform="matrix(1 0 0 1 400.9609 371.3555)" class="st4 st0 st3">A</text>
<text transform="matrix(1 0 0 1 390.459 379.0977)" class="st4 st0 st3">A</text>
<text transform="matrix(1 0 0 1 380.2314 386.5186)" class="st4 st0 st3">A</text>
<text transform="matrix(1 0 0 1 343.915 383.5059)" class="st4 st0 st3">A</text>
<text transform="matrix(1 0 0 1 355.0244 388.6943)" class="st4 st0 st3">A</text>
<text transform="matrix(1 0 0 1 330.2979 362.5029)" class="st4 st0 st3">A</text>
<text transform="matrix(1 0 0 1 331.8896 349.2627)" class="st4 st0 st3">A</text>
<text transform="matrix(1 0 0 1 351.5879 334.0078)" class="st4 st0 st3">A</text>
<text transform="matrix(1 0 0 1 297.165 224.4619)" class="st2 st0 st3">C</text>
<text transform="matrix(1 0 0 1 339.8838 224.4629)" class="st2 st0 st3">C</text>
<text transform="matrix(1 0 0 1 338.624 103.5801)" class="st6 st0 st3">C</text>
<text transform="matrix(1 0 0 1 402.8857 36.5596)" class="st6 st0 st3">C</text>
<text transform="matrix(1 0 0 1 404.2139 107.7949)" class="st6 st0 st3">C</text>
<text transform="matrix(1 0 0 1 407.7754 244.7354)" class="st7 st0 st3">C</text>
<text transform="matrix(1 0 0 1 479.458 257.0801)" class="st7 st0 st3">C</text>
<text transform="matrix(1 0 0 1 490.6689 283.5137)" class="st7 st0 st3">C</text>
<text transform="matrix(1 0 0 1 479.4346 289.834)" class="st7 st0 st3">C</text>
<text transform="matrix(1 0 0 1 402.8857 358.2871)" class="st4 st0 st3">C</text>
<text transform="matrix(1 0 0 1 339.9062 341.0283)" class="st4 st0 st3">C</text>
<text transform="matrix(1 0 0 1 378.2158 16.7461)" class="st6 st0 st3">U</text>
<text transform="matrix(1 0 0 1 367.5537 392.1299)" class="st4 st0 st3">U</text>
<text transform="matrix(1 0 0 1 360.3389 212.3691)" class="st8 st0 st3">C</text>
<text transform="matrix(1 0 0 1 360.499 186.0166)" class="st8 st0 st3">C</text>
<text transform="matrix(1 0 0 1 361.3008 158.1982)" class="st8 st0 st3">C</text>
<text transform="matrix(1 0 0 1 360.6816 88.8408)" class="st6 st0 st3">C</text>
<text transform="matrix(1 0 0 1 393.9287 102.4355)" class="st6 st0 st3">C</text>
<text transform="matrix(1 0 0 1 425.8359 259.5312)" class="st7 st0 st3">C</text>
<text transform="matrix(1 0 0 1 436.5908 259.5312)" class="st7 st0 st3">C</text>
<text transform="matrix(1 0 0 1 447.207 259.3252)" class="st7 st0 st3">C</text>
<text transform="matrix(1 0 0 1 457.1592 259.1191)" class="st7 st0 st3">C</text>
<text transform="matrix(1 0 0 1 393.2998 328.3271)" class="st4 st0 st3">C</text>
<text transform="matrix(1 0 0 1 360.8643 172.4229)" class="st8 st0 st3">U</text>
<text transform="matrix(1 0 0 1 360.4062 76.5977)" class="st6 st0 st3">U</text>
<text transform="matrix(1 0 0 1 360.4062 63.7939)" class="st6 st0 st3">U</text>
<text transform="matrix(1 0 0 1 393.127 146.1963)" class="st8 st0 st3">U</text>
<text transform="matrix(1 0 0 1 393.6426 199.2217)" class="st8 st0 st3">U</text>
<text transform="matrix(1 0 0 1 393.792 225.4023)" class="st8 st0 st3">U</text>
<text transform="matrix(1 0 0 1 393.2998 302.5938)" class="st4 st0 st3">U</text>
<text transform="matrix(1 0 0 1 328.958 224.4629)" class="st2 st0 st3">A</text>
<line class="st9" x1="371.8" y1="321.9" x2="392.5" y2="321.9"/>
<line class="st9" x1="371.8" y1="308.8" x2="392.5" y2="308.8"/>
<line class="st9" x1="371.8" y1="294.8" x2="392.5" y2="294.8"/>
<line class="st9" x1="372.9" y1="217.6" x2="393.6" y2="217.6"/>
<line class="st9" x1="372.9" y1="206.3" x2="393.6" y2="206.3"/>
<line class="st9" x1="372.9" y1="192.4" x2="393.6" y2="192.4"/>
<line class="st9" x1="372.9" y1="180.9" x2="393.6" y2="180.9"/>
<line class="st9" x1="372.9" y1="166.9" x2="393.6" y2="166.9"/>
<line class="st9" x1="372.9" y1="152.8" x2="393.6" y2="152.8"/>
<line class="st9" x1="372.9" y1="138.7" x2="393.6" y2="138.7"/>
<line class="st9" x1="372.9" y1="95.1" x2="393.6" y2="95.1"/>
<line class="st9" x1="372.9" y1="81.4" x2="393.6" y2="81.4"/>
<line class="st9" x1="372.9" y1="70.8" x2="393.6" y2="70.8"/>
<line class="st9" x1="372.9" y1="57.6" x2="393.6" y2="57.6"/>
<line class="st9" x1="463.8" y1="278.6" x2="463.8" y2="261.1"/>
<line class="st9" x1="453.7" y1="278.6" x2="453.7" y2="261.1"/>
<line class="st9" x1="443" y1="278.6" x2="443" y2="261.1"/>
<line class="st9" x1="431.2" y1="278.6" x2="431.2" y2="261.1"/>
<text transform="matrix(1 0 0 1 286.457 109.3984)" class="st0 st3">70</text>
<text transform="matrix(1 0 0 1 454.8916 126.1768)" class="st0 st3">50</text>
<text transform="matrix(1 0 0 1 520.1943 283.7188)" class="st0 st3">30</text>
<text transform="matrix(1 0 0 1 291.3018 376.543)" class="st0 st3">10</text>
<line class="st9" x1="307.2" y1="103.6" x2="327.9" y2="103.6"/>
<line class="st9" x1="434.9" y1="119.3" x2="455.5" y2="119.3"/>
<line class="st9" x1="499.5" y1="277.7" x2="520.2" y2="277.7"/>
<text transform="matrix(1 0 0 1 318.4526 309.6904)" class="st10 st11">5’</text>
<text transform="matrix(1 0 0 1 280.3291 220.2441)" class="st10 st11">3’</text>
</svg>
