<svg id="图层_1" data-name="图层 1" xmlns="http://www.w3.org/2000/svg" viewBox="0 0 800 400"><defs><style>.cls-1{fill:#ff0;}.cls-12,.cls-13,.cls-14,.cls-16,.cls-17,.cls-18,.cls-19,.cls-2,.cls-20,.cls-3,.cls-4,.cls-5,.cls-7,.cls-8,.cls-9{isolation:isolate;font-family:ArialMT, Arial;}.cls-2{font-size:8.73px;}.cls-3{font-size:5.06px;}.cls-12,.cls-13,.cls-14,.cls-16,.cls-17,.cls-18,.cls-4,.cls-5,.cls-8,.cls-9{font-size:18.15px;}.cls-4,.cls-5{fill:#80db9e;}.cls-13,.cls-16,.cls-5,.cls-9{letter-spacing:-0.11em;}.cls-15,.cls-6{fill:none;}.cls-10,.cls-11,.cls-15,.cls-6{stroke:#000;stroke-miterlimit:3.05;}.cls-10,.cls-11,.cls-6{stroke-width:0.38px;}.cls-19,.cls-7{font-size:12.48px;}.cls-8,.cls-9{fill:#006b93;}.cls-11{fill:#fff;}.cls-12{fill:#c2c2ff;}.cls-13,.cls-14{fill:#ff870a;}.cls-15{stroke-width:0.75px;}.cls-16,.cls-17{fill:teal;}.cls-18{fill:#f0f;}.cls-19{letter-spacing:-0.04em;}.cls-20{font-size:20px;}</style></defs><ellipse class="cls-1" cx="451.8" cy="108.2" rx="21.1" ry="9.3"/><text class="cls-2" transform="translate(434.52 110.88)">OTB-SO</text><text class="cls-3" transform="translate(468 113.79)">3</text><g id="ID000002"><text class="cls-4" transform="translate(389.88 356.42)">G</text></g><g id="ID000003"><text class="cls-4" transform="translate(389.88 342.22)">G</text></g><g id="ID000004"><text class="cls-5" transform="translate(390.65 328.03)">A</text></g><g id="ID000005"><text class="cls-4" transform="translate(390.27 313.83)">U</text></g><g id="ID000006"><text class="cls-4" transform="translate(389.88 299.63)">G</text></g><g id="ID000007"><text class="cls-4" transform="translate(390.27 285.43)">C</text></g><g id="ID000008"><text class="cls-4" transform="translate(389.88 271.24)">G</text></g><g id="ID000009"><text class="cls-4" transform="translate(390.27 257.04)">C</text></g><g id="ID000010"><text class="cls-4" transform="translate(390.27 242.84)">C</text></g><g id="ID000011"><text class="cls-4" transform="translate(390.27 228.65)">U</text></g><g id="ID000012"><line class="cls-6" x1="391.8" y1="224" x2="372.8" y2="223.6"/></g><g id="ID000013"><text class="cls-7" transform="translate(359.28 227.36)">10</text></g><g id="ID000014"><text class="cls-8" transform="translate(390.27 214.45)">U</text></g><g id="ID000015"><text class="cls-8" transform="translate(380.42 199.07)">G</text></g><g id="ID000016"><text class="cls-9" transform="translate(395.38 184.87)">A</text></g><g id="ID000017"><text class="cls-9" transform="translate(395.38 167.13)">A</text></g><g id="ID000018"><text class="cls-9" transform="translate(381.19 156.48)">A</text></g><g id="ID000019"><text class="cls-4" transform="translate(418.66 228.65)">U</text></g><g id="ID000020"><text class="cls-4" transform="translate(418.28 242.84)">G</text></g><g id="ID000021"><text class="cls-4" transform="translate(418.28 257.04)">G</text></g><g id="ID000022"><text class="cls-4" transform="translate(418.66 271.24)">C</text></g><g id="ID000023"><text class="cls-4" transform="translate(418.28 285.43)">G</text></g><g id="ID000024"><text class="cls-4" transform="translate(418.66 299.63)">C</text></g><g id="ID000025"><text class="cls-5" transform="translate(419.04 313.83)">A</text></g><g id="ID000026"><text class="cls-4" transform="translate(418.66 328.03)">U</text></g><g id="ID000027"><text class="cls-4" transform="translate(418.66 342.22)">C</text></g><g id="ID000028"><text class="cls-4" transform="translate(418.66 356.42)">C</text></g><g id="ID000029"><line class="cls-6" x1="430.4" y1="350" x2="439.9" y2="350"/></g><g id="ID000030"><text class="cls-7" transform="translate(440.03 354.74)">60</text></g><g id="ID000031"><line class="cls-6" x1="403.2" y1="350" x2="420.2" y2="350"/></g><g id="ID000032"><line class="cls-6" x1="403.2" y1="335.8" x2="420.2" y2="335.8"/></g><g id="ID000033"><line class="cls-6" x1="403.2" y1="321.6" x2="420.2" y2="321.6"/></g><g id="ID000034"><line class="cls-6" x1="403.2" y1="307.4" x2="420.2" y2="307.4"/></g><g id="ID000035"><line class="cls-6" x1="403.2" y1="293.2" x2="420.2" y2="293.2"/></g><g id="ID000036"><line class="cls-6" x1="403.2" y1="279" x2="420.2" y2="279"/></g><g id="ID000037"><line class="cls-6" x1="403.2" y1="264.9" x2="420.2" y2="264.9"/></g><g id="ID000038"><line class="cls-6" x1="402.1" y1="250.6" x2="419.1" y2="250.6"/></g><g id="ID000039"><line class="cls-6" x1="402.1" y1="236.4" x2="419.1" y2="236.4"/></g><g id="ID000040"><line class="cls-6" x1="402.1" y1="222.3" x2="419.1" y2="222.3"/></g><g id="ID000041"><polygon class="cls-10" points="413.4 222.3 413.4 222.1 413.4 221.9 413.4 221.7 413.3 221.5 413.3 221.4 413.2 221.2 413.2 221 413.1 220.9 413 220.7 412.9 220.6 412.8 220.4 412.6 220.3 412.5 220.2 412.4 220.1 412.2 219.9 412.1 219.8 411.9 219.8 411.8 219.7 411.6 219.6 411.4 219.6 411.3 219.5 411.1 219.5 410.9 219.4 410.7 219.4 410.5 219.4 410.4 219.4 410.2 219.4 410 219.5 409.8 219.5 409.7 219.6 409.5 219.6 409.3 219.7 409.2 219.8 409 219.9 408.9 220 408.7 220.1 408.6 220.2 408.5 220.4 408.4 220.5 408.3 220.6 408.2 220.8 408.1 221 408 221.1 407.9 221.3 407.9 221.5 407.8 221.6 407.8 221.8 407.8 222 407.8 222.2 407.8 222.4 407.8 222.5 407.8 222.7 407.8 222.9 407.9 223.1 407.9 223.2 408 223.4 408.1 223.6 408.2 223.7 408.3 223.9 408.4 224 408.5 224.1 408.6 224.3 408.7 224.4 408.9 224.5 409 224.6 409.2 224.7 409.3 224.8 409.5 224.9 409.7 224.9 409.8 225 410 225 410.2 225.1 410.4 225.1 410.5 225.1 410.7 225.1 410.9 225.1 411.1 225.1 411.3 225 411.4 225 411.6 224.9 411.8 224.8 411.9 224.8 412.1 224.7 412.2 224.6 412.4 224.5 412.5 224.3 412.6 224.2 412.8 224.1 412.9 223.9 413 223.8 413.1 223.6 413.2 223.5 413.2 223.3 413.3 223.1 413.3 223 413.4 222.8 413.4 222.6 413.4 222.4 413.4 222.3"/></g><g id="ID000042"><line class="cls-6" x1="390.7" y1="207.9" x2="357.1" y2="207"/></g><g id="ID000043"><polygon class="cls-10" points="371.1 207.4 371.1 207.6 371.1 207.8 371.1 207.9 371.1 208.1 371.2 208.3 371.3 208.4 371.3 208.6 371.4 208.8 371.5 208.9 371.6 209.1 371.7 209.2 371.8 209.4 371.9 209.5 372.1 209.6 372.2 209.7 372.4 209.8 372.5 209.9 372.7 210 372.8 210.1 373 210.2 373.2 210.2 373.4 210.2 373.5 210.3 373.7 210.3 373.9 210.3 374.1 210.3 374.2 210.3 374.4 210.3 374.6 210.2 374.8 210.2 375 210.1 375.1 210 375.3 210 375.4 209.9 375.6 209.8 375.7 209.7 375.9 209.5 376 209.4 376.1 209.3 376.2 209.1 376.3 209 376.4 208.8 376.5 208.7 376.6 208.5 376.6 208.3 376.7 208.2 376.7 208 376.7 207.8 376.8 207.6 376.8 207.4 376.8 207.3 376.7 207.1 376.7 206.9 376.7 206.7 376.6 206.6 376.5 206.4 376.5 206.2 376.4 206.1 376.3 205.9 376.2 205.8 376.1 205.6 376 205.5 375.8 205.4 375.7 205.2 375.5 205.1 375.4 205.1 375.2 205 375.1 204.9 374.9 204.8 374.8 204.8 374.6 204.7 374.4 204.7 374.2 204.6 374 204.6 373.9 204.6 373.7 204.6 373.5 204.7 373.3 204.7 373.1 204.7 373 204.8 372.8 204.9 372.6 204.9 372.5 205 372.3 205.1 372.2 205.2 372 205.3 371.9 205.5 371.8 205.6 371.7 205.7 371.6 205.9 371.5 206 371.4 206.2 371.3 206.3 371.2 206.5 371.2 206.7 371.1 206.9 371.1 207 371.1 207.2 371.1 207.4"/></g><g id="ID000044"><line class="cls-6" x1="381.2" y1="192.7" x2="371.3" y2="192.7"/></g><g id="ID000045"><polygon class="cls-10" points="373.5 192.7 373.5 192.9 373.5 193 373.5 193.2 373.5 193.4 373.6 193.6 373.6 193.7 373.7 193.9 373.8 194.1 373.9 194.2 374 194.4 374.1 194.5 374.2 194.6 374.4 194.8 374.5 194.9 374.6 195 374.8 195.1 374.9 195.2 375.1 195.3 375.3 195.3 375.4 195.4 375.6 195.4 375.8 195.5 376 195.5 376.1 195.5 376.3 195.5 376.5 195.5 376.7 195.5 376.9 195.5 377 195.4 377.2 195.4 377.4 195.3 377.5 195.2 377.7 195.1 377.9 195 378 194.9 378.1 194.8 378.3 194.7 378.4 194.6 378.5 194.4 378.6 194.3 378.7 194.1 378.8 194 378.9 193.8 379 193.6 379 193.5 379 193.3 379.1 193.1 379.1 192.9 379.1 192.8 379.1 192.6 379.1 192.4 379.1 192.2 379 192.1 379 191.9 379 191.7 378.9 191.5 378.8 191.4 378.7 191.2 378.6 191.1 378.5 190.9 378.4 190.8 378.3 190.7 378.1 190.5 378 190.4 377.9 190.3 377.7 190.2 377.5 190.1 377.4 190.1 377.2 190 377 189.9 376.9 189.9 376.7 189.9 376.5 189.9 376.3 189.8 376.1 189.8 376 189.9 375.8 189.9 375.6 189.9 375.4 190 375.3 190 375.1 190.1 374.9 190.2 374.8 190.3 374.6 190.4 374.5 190.5 374.4 190.6 374.2 190.7 374.1 190.9 374 191 373.9 191.1 373.8 191.3 373.7 191.5 373.6 191.6 373.6 191.8 373.5 192 373.5 192.1 373.5 192.3 373.5 192.5 373.5 192.7"/></g><g id="ID000046"><line class="cls-6" x1="395.8" y1="176.6" x2="356.8" y2="162.6"/></g><g id="ID000047"><polygon class="cls-11" points="373.6 168.6 373.6 168.8 373.5 169 373.5 169.2 373.5 169.4 373.5 169.5 373.5 169.7 373.5 169.9 373.5 170.1 373.5 170.2 373.6 170.4 373.6 170.6 373.7 170.8 373.8 170.9 373.9 171.1 374 171.2 374.1 171.4 374.2 171.5 374.3 171.6 374.4 171.8 374.6 171.9 374.7 172 374.9 172.1 375 172.2 375.2 172.2 375.4 172.3 375.5 172.4 375.7 172.4 375.9 172.4 376.1 172.4 376.3 172.4 376.4 172.4 376.6 172.4 376.8 172.4 377 172.4 377.1 172.3 377.3 172.3 377.5 172.2 377.6 172.1 377.8 172 378 171.9 378.1 171.8 378.2 171.7 378.4 171.6 378.5 171.4 378.6 171.3 378.7 171.1 378.8 171 378.9 170.8 378.9 170.6 379 170.5 379 170.3 379.1 170.1 379.1 169.9 379.1 169.8 379.1 169.6 379.1 169.4 379.1 169.2 379.1 169.1 379 168.9 379 168.7 378.9 168.5 378.8 168.4 378.8 168.2 378.7 168.1 378.6 167.9 378.5 167.8 378.3 167.6 378.2 167.5 378.1 167.4 377.9 167.3 377.8 167.2 377.6 167.1 377.5 167 377.3 166.9 377.1 166.9 376.9 166.9 376.8 166.8 376.6 166.8 376.4 166.8 376.2 166.8 376 166.8 375.9 166.8 375.7 166.8 375.5 166.9 375.3 166.9 375.2 167 375 167.1 374.9 167.2 374.7 167.2 374.5 167.4 374.4 167.5 374.3 167.6 374.2 167.7 374 167.9 373.9 168 373.8 168.2 373.8 168.3 373.7 168.5 373.6 168.6"/></g><g id="ID000048"><polyline class="cls-6" points="401.1 155.1 401.1 96.8 427.4 96.8"/></g><g id="ID000049"><polygon class="cls-11" points="404 132.5 404 126.8 398.3 126.8 398.3 132.5 404 132.5"/></g><g id="ID000050"><polygon class="cls-11" points="401.1 119.4 401 119.4 400.8 119.4 400.6 119.5 400.4 119.5 400.2 119.6 400.1 119.6 399.9 119.7 399.8 119.8 399.6 119.9 399.5 120 399.3 120.1 399.2 120.2 399 120.3 398.9 120.5 398.8 120.6 398.7 120.8 398.6 120.9 398.5 121.1 398.5 121.2 398.4 121.4 398.4 121.6 398.3 121.8 398.3 121.9 398.3 122.1 398.3 122.3 398.3 122.5 398.3 122.7 398.4 122.8 398.4 123 398.5 123.2 398.5 123.4 398.6 123.5 398.7 123.7 398.8 123.8 398.9 124 399 124.1 399.1 124.2 399.2 124.4 399.4 124.5 399.5 124.6 399.7 124.7 399.8 124.8 400 124.9 400.2 124.9 400.3 125 400.5 125 400.7 125.1 400.9 125.1 401 125.1 401.2 125.1 401.4 125.1 401.6 125.1 401.8 125 401.9 125 402.1 124.9 402.3 124.9 402.4 124.8 402.6 124.7 402.7 124.6 402.9 124.5 403 124.4 403.1 124.2 403.3 124.1 403.4 124 403.5 123.8 403.6 123.7 403.7 123.5 403.8 123.4 403.8 123.2 403.9 123 403.9 122.8 403.9 122.7 404 122.5 404 122.3 404 122.1 404 121.9 403.9 121.8 403.9 121.6 403.8 121.4 403.8 121.2 403.7 121.1 403.6 120.9 403.5 120.8 403.4 120.6 403.3 120.5 403.2 120.3 403.1 120.2 403 120.1 402.8 120 402.7 119.9 402.5 119.8 402.4 119.7 402.2 119.6 402 119.6 401.8 119.5 401.7 119.5 401.5 119.4 401.3 119.4 401.1 119.4"/></g><g id="ID000051"><line class="cls-6" x1="405.9" y1="157.7" x2="474.4" y2="114.1"/></g><g id="ID000052"><polygon class="cls-11" points="451.2 129.2 451.1 129.1 451 129 450.9 128.8 450.8 128.7 450.6 128.6 450.5 128.5 450.4 128.4 450.2 128.3 450 128.2 449.9 128.1 449.7 128.1 449.5 128 449.4 128 449.2 128 449 127.9 448.8 127.9 448.6 127.9 448.5 128 448.3 128 448.1 128 447.9 128.1 447.8 128.2 447.6 128.2 447.4 128.3 447.3 128.4 447.1 128.5 447 128.6 446.9 128.8 446.7 128.9 446.6 129 446.5 129.2 446.4 129.3 446.3 129.5 446.2 129.6 446.2 129.8 446.1 130 446.1 130.1 446 130.3 446 130.5 446 130.7 446 130.9 446 131 446 131.2 446.1 131.4 446.1 131.6 446.2 131.7 446.2 131.9 446.3 132.1 446.4 132.2 446.5 132.4 446.6 132.5 446.7 132.7 446.8 132.8 447 132.9 447.1 133 447.3 133.1 447.4 133.2 447.6 133.3 447.7 133.4 447.9 133.5 448.1 133.5 448.2 133.6 448.4 133.6 448.6 133.6 448.8 133.6 449 133.6 449.1 133.6 449.3 133.6 449.5 133.5 449.7 133.5 449.8 133.4 450 133.4 450.2 133.3 450.3 133.2 450.5 133.1 450.6 133 450.8 132.9 450.9 132.8 451 132.6 451.1 132.5 451.2 132.3 451.3 132.2 451.4 132 451.5 131.9 451.5 131.7 451.6 131.5 451.6 131.3 451.6 131.1 451.7 131 451.7 130.8 451.7 130.6 451.7 130.4 451.6 130.2 451.6 130.1 451.5 129.9 451.5 129.7 451.4 129.6 451.3 129.4 451.2 129.2"/></g><g id="ID000053"><polyline class="cls-6" points="387.9 143.4 387.9 82 439 81.7"/></g><g id="ID000054"><polygon class="cls-11" points="384.1 119.4 384.1 125.1 389.8 125.1 389.8 119.4 384.1 119.4"/></g><g id="ID000056"><text class="cls-9" transform="translate(363.44 156.48)">A</text></g><g id="ID000057"><text class="cls-8" transform="translate(344.93 167.13)">G</text></g><g id="ID000058"><text class="cls-8" transform="translate(345.31 184.87)">C</text></g><g id="ID000059"><text class="cls-8" transform="translate(359.51 199.07)">C</text></g><g id="ID000060"><text class="cls-8" transform="translate(347.58 211)">U</text></g><g id="ID000062"><text class="cls-7" transform="translate(323.62 196.96)">20</text></g><g id="ID000063"><text class="cls-12" transform="translate(336.55 224.21)">G</text></g><g id="ID000064"><text class="cls-12" transform="translate(322.74 224.21)">C</text></g><g id="ID000065"><text class="cls-12" transform="translate(308.15 224.21)">G</text></g><g id="ID000066"><text class="cls-13" transform="translate(294.72 213.56)">A</text></g><g id="ID000067"><text class="cls-13" transform="translate(280.53 220.66)">A</text></g><g id="ID000068"><text class="cls-13" transform="translate(273.43 234.85)">A</text></g><g id="ID000069"><text class="cls-14" transform="translate(280.15 252.6)">C</text></g><g id="ID000070"><text class="cls-13" transform="translate(294.72 252.6)">A</text></g><g id="ID000071"><text class="cls-12" transform="translate(308.54 252.6)">C</text></g><g id="ID000072"><text class="cls-12" transform="translate(322.35 252.6)">G</text></g><g id="ID000073"><line class="cls-6" x1="328.9" y1="254.5" x2="328.9" y2="264"/></g><g id="ID000074"><text class="cls-7" transform="translate(322.31 273.95)">30</text></g><g id="ID000075"><text class="cls-12" transform="translate(336.11 252.6)">C</text></g><g id="ID000076"><polyline class="cls-6" points="345.8 178.5 337.2 178.5 337.2 111.1 420.3 111.1"/></g><g id="ID000077"><polygon class="cls-10" points="381.6 111.1 381.6 110.9 381.6 110.7 381.6 110.5 381.5 110.3 381.5 110.2 381.4 110 381.3 109.8 381.2 109.7 381.2 109.5 381.1 109.4 380.9 109.2 380.8 109.1 380.7 109 380.6 108.8 380.4 108.7 380.3 108.6 380.1 108.5 380 108.5 379.8 108.4 379.6 108.3 379.4 108.3 379.3 108.2 379.1 108.2 378.9 108.2 378.7 108.2 378.5 108.2 378.4 108.2 378.2 108.3 378 108.3 377.8 108.4 377.7 108.4 377.5 108.5 377.4 108.6 377.2 108.7 377 108.8 376.9 108.9 376.8 109 376.6 109.2 376.5 109.3 376.4 109.4 376.3 109.6 376.2 109.8 376.2 109.9 376.1 110.1 376 110.2 376 110.4 376 110.6 375.9 110.8 375.9 111 375.9 111.1 375.9 111.3 376 111.5 376 111.7 376 111.8 376.1 112 376.2 112.2 376.2 112.3 376.3 112.5 376.4 112.7 376.5 112.8 376.6 112.9 376.8 113.1 376.9 113.2 377 113.3 377.2 113.4 377.4 113.5 377.5 113.6 377.7 113.7 377.8 113.7 378 113.8 378.2 113.8 378.4 113.9 378.5 113.9 378.7 113.9 378.9 113.9 379.1 113.9 379.3 113.8 379.4 113.8 379.6 113.8 379.8 113.7 380 113.6 380.1 113.6 380.3 113.5 380.4 113.4 380.6 113.2 380.7 113.1 380.8 113 380.9 112.9 381.1 112.7 381.2 112.6 381.2 112.4 381.3 112.3 381.4 112.1 381.5 111.9 381.5 111.8 381.6 111.6 381.6 111.4 381.6 111.2 381.6 111.1"/></g><g id="ID000078"><line class="cls-6" x1="343.1" y1="224.6" x2="343.1" y2="241.7"/></g><g id="ID000079"><line class="cls-6" x1="328.9" y1="223.5" x2="328.9" y2="240.5"/></g><g id="ID000080"><line class="cls-6" x1="314.7" y1="223.5" x2="314.7" y2="240.5"/></g><g id="ID000081"><line class="cls-6" x1="288.6" y1="219.5" x2="298.2" y2="241"/></g><g id="ID000082"><polygon class="cls-11" points="290.4 223.5 289.7 229.9 295.5 227.2 290.4 223.5"/></g><g id="ID000083"><polygon class="cls-11" points="296 236.2 296.2 236.1 296.3 236 296.5 235.9 296.6 235.8 296.8 235.7 296.9 235.6 297 235.5 297.1 235.3 297.2 235.2 297.3 235 297.4 234.9 297.5 234.7 297.6 234.5 297.6 234.4 297.6 234.2 297.7 234 297.7 233.8 297.7 233.6 297.7 233.5 297.7 233.3 297.7 233.1 297.6 232.9 297.6 232.8 297.5 232.6 297.5 232.4 297.4 232.3 297.3 232.1 297.2 231.9 297.1 231.8 297 231.7 296.8 231.5 296.7 231.4 296.5 231.3 296.4 231.2 296.2 231.1 296.1 231 295.9 231 295.7 230.9 295.6 230.9 295.4 230.8 295.2 230.8 295 230.8 294.9 230.8 294.7 230.8 294.5 230.8 294.3 230.8 294.1 230.9 294 230.9 293.8 231 293.6 231.1 293.5 231.1 293.3 231.2 293.2 231.3 293 231.4 292.9 231.6 292.8 231.7 292.7 231.8 292.5 232 292.5 232.1 292.4 232.3 292.3 232.4 292.2 232.6 292.1 232.8 292.1 233 292.1 233.1 292 233.3 292 233.5 292 233.7 292 233.9 292.1 234 292.1 234.2 292.1 234.4 292.2 234.6 292.3 234.7 292.3 234.9 292.4 235 292.5 235.2 292.6 235.3 292.7 235.5 292.9 235.6 293 235.7 293.1 235.9 293.3 236 293.4 236.1 293.6 236.1 293.8 236.2 293.9 236.3 294.1 236.3 294.3 236.4 294.4 236.4 294.6 236.4 294.8 236.4 295 236.4 295.2 236.4 295.3 236.4 295.5 236.4 295.7 236.3 295.9 236.3 296 236.2"/></g><g id="ID000084"><polyline class="cls-15" points="346.5 243.8 465 243.8 465 203.8"/></g><g id="ID000085"><polygon class="cls-10" points="373.9 239.6 376.3 241.8 378.6 242.5 381 242.8 385.8 243.9 381 244.9 378.6 245.3 376.3 246 373.9 248.1 373.9 239.6"/></g><g id="ID000087"><text class="cls-16" transform="translate(459.27 202.62)">A</text></g><g id="ID000088"><text class="cls-17" transform="translate(458.5 188.42)">G</text></g><g id="ID000089"><text class="cls-17" transform="translate(458.89 174.22)">C</text></g><g id="ID000090"><text class="cls-17" transform="translate(458.89 160.03)">U</text></g><g id="ID000091"><text class="cls-17" transform="translate(458.5 145.83)">G</text></g><g id="ID000092"><text class="cls-17" transform="translate(468.02 131.63)">G</text></g><g id="ID000093"><text class="cls-17" transform="translate(473.09 117.44)">U</text></g><g id="ID000094"><text class="cls-18" transform="translate(465.6 103.24)">G</text></g><g id="ID000095"><text class="cls-16" transform="translate(454.72 89.04)">A</text></g><g id="ID000096"><line class="cls-6" x1="476.2" y1="69.9" x2="463.6" y2="79.3"/></g><g id="ID000096-2"><line class="cls-6" x1="336.7" y1="195.3" x2="348.4" y2="203.9"/></g><g id="ID000097"><text class="cls-7" transform="translate(475.05 71.01)">40</text></g><g id="ID000098"><text class="cls-16" transform="translate(437.98 89.04)">A</text></g><g id="ID000099"><text class="cls-17" transform="translate(426.95 103.24)">U</text></g><g id="ID000100"><text class="cls-17" transform="translate(419.46 117.44)">G</text></g><g id="ID000101"><text class="cls-16" transform="translate(427.33 131.63)">A</text></g><g id="ID000102"><text class="cls-17" transform="translate(430.5 145.83)">C</text></g><g id="ID000103"><text class="cls-16" transform="translate(430.88 160.03)">A</text></g><g id="ID000104"><text class="cls-17" transform="translate(430.11 174.22)">G</text></g><g id="ID000105"><text class="cls-17" transform="translate(430.5 188.42)">C</text></g><g id="ID000106"><text class="cls-17" transform="translate(430.5 202.62)">U</text></g><g id="ID000107"><text class="cls-16" transform="translate(430.88 216.81)">A</text></g><g id="ID000108"><line class="cls-6" x1="485.9" y1="210.5" x2="440.5" y2="210.5"/></g><g id="ID000109"><text class="cls-7" transform="translate(485.36 213.48)">50</text></g><g id="ID000110"><line class="cls-6" x1="460.5" y1="196.2" x2="443.4" y2="196.2"/></g><g id="ID000111"><line class="cls-6" x1="460.5" y1="182" x2="443.4" y2="182"/></g><g id="ID000112"><line class="cls-6" x1="460.5" y1="167.8" x2="443.4" y2="167.8"/></g><g id="ID000113"><line class="cls-6" x1="459.3" y1="153.6" x2="442.3" y2="153.6"/></g><g id="ID000114"><line class="cls-6" x1="459.3" y1="139.4" x2="442.3" y2="139.4"/></g><g id="ID000115"><line class="cls-6" x1="467" y1="98.8" x2="448.8" y2="89.7"/></g><g id="ID000116"><polygon class="cls-10" points="464.5 97.6 461 92.3 458.1 98 464.5 97.6"/></g><g id="ID000117"><polygon class="cls-10" points="452.1 91.4 452 91.5 451.9 91.7 451.9 91.9 451.8 92.1 451.8 92.2 451.8 92.4 451.8 92.6 451.8 92.8 451.8 92.9 451.8 93.1 451.9 93.3 451.9 93.5 452 93.6 452 93.8 452.1 94 452.2 94.1 452.3 94.3 452.4 94.4 452.5 94.6 452.6 94.7 452.8 94.8 452.9 94.9 453.1 95 453.2 95.1 453.4 95.2 453.5 95.3 453.7 95.3 453.9 95.4 454.1 95.4 454.2 95.4 454.4 95.5 454.6 95.5 454.8 95.5 455 95.5 455.1 95.4 455.3 95.4 455.5 95.3 455.7 95.3 455.8 95.2 456 95.1 456.1 95 456.3 94.9 456.4 94.8 456.6 94.7 456.7 94.6 456.8 94.4 456.9 94.3 457 94.1 457.1 94 457.2 93.8 457.3 93.7 457.3 93.5 457.4 93.3 457.4 93.1 457.4 93 457.5 92.8 457.5 92.6 457.5 92.4 457.4 92.2 457.4 92.1 457.4 91.9 457.3 91.7 457.2 91.6 457.2 91.4 457.1 91.2 457 91.1 456.9 90.9 456.8 90.8 456.6 90.7 456.5 90.5 456.4 90.4 456.2 90.3 456.1 90.2 455.9 90.1 455.8 90 455.6 90 455.4 89.9 455.2 89.9 455.1 89.8 454.9 89.8 454.7 89.8 454.5 89.8 454.4 89.8 454.2 89.8 454 89.9 453.8 89.9 453.6 90 453.5 90 453.3 90.1 453.2 90.2 453 90.3 452.9 90.4 452.7 90.5 452.6 90.6 452.5 90.8 452.4 90.9 452.3 91.1 452.2 91.2 452.1 91.4"/></g><text class="cls-7" transform="translate(383.09 368.71)">5</text><text class="cls-19" transform="translate(390.03 368.71)">’</text><text class="cls-7" transform="translate(430.79 368.71)">3</text><text class="cls-19" transform="translate(437.73 368.71)">’</text><text class="cls-20" transform="translate(314.83 54.49)">DIR2s-apt</text><text class="cls-20" transform="translate(413.76 54.49)">Aptamer</text></svg>