<?xml version="1.0" encoding="utf-8"?>
<!-- Generator: Adobe Illustrator 25.2.0, SVG Export Plug-In . SVG Version: 6.00 Build 0)  -->
<svg version="1.1" id="图层_1" xmlns="http://www.w3.org/2000/svg" xmlns:xlink="http://www.w3.org/1999/xlink" x="0px" y="0px"
	 viewBox="0 0 800 400" style="enable-background:new 0 0 800 400;" xml:space="preserve">
<style type="text/css">
	.st0{font-family:'ArialMT';}
	.st1{font-size:25px;}
	.st2{fill:#C2C2FF;}
	.st3{font-size:20.7806px;}
	.st4{fill:#80DB9E;}
	.st5{fill:#FF870A;}
	.st6{font-size:19.9928px;}
	.st7{fill:none;stroke:#000000;stroke-width:0.25;stroke-miterlimit:3.05;}
</style>
<text transform="matrix(1 0 0 1 23.8662 46.1373)" class="st0 st1">9C7 aptamer</text>
<g id="ID000012_00000034065401200064617450000012471684555361177746_">
	<g>
		<text transform="matrix(0.9999 1.570624e-02 -1.570624e-02 0.9999 273.3279 389.5537)" class="st2 st0 st3">G</text>
	</g>
</g>
<g id="ID000012_00000008865513974239311830000001467287583627290547_">
	<g>
		<text transform="matrix(0.9999 1.570624e-02 -1.570624e-02 0.9999 273.3271 368.4504)" class="st2 st0 st3">G</text>
	</g>
</g>
<g id="ID000012_00000090977333287268178150000011358688372721255329_">
	<text transform="matrix(0.9999 1.570624e-02 -1.570624e-02 0.9999 273.8612 344.7003)" class="st4 st0 st3">G</text>
</g>
<g id="ID000012_00000085950117530443808670000016720765069068648597_">
	<text transform="matrix(0.9999 1.570624e-02 -1.570624e-02 0.9999 272.8568 265.6174)" class="st4 st0 st3">G</text>
</g>
<g id="ID000012_00000008107693548418714380000007013085435344277173_">
	<text transform="matrix(0.9999 1.570624e-02 -1.570624e-02 0.9999 304.4402 243.737)" class="st4 st0 st3">G</text>
</g>
<g id="ID000012_00000015320383692216868010000012034652801683255190_">
	<g>
		<text transform="matrix(0.9999 1.570624e-02 -1.570624e-02 0.9999 328.3616 308.8372)" class="st2 st0 st3">G</text>
	</g>
</g>
<g id="ID000012_00000044864171208351583720000000390657865510058656_">
	<g>
		<text transform="matrix(0.9999 1.570624e-02 -1.570624e-02 0.9999 250.6646 308.8381)" class="st2 st0 st3">A</text>
	</g>
</g>
<g id="ID000012_00000046307973477459913060000006418203535398650273_">
	<g>
		<text transform="matrix(0.9999 1.570624e-02 -1.570624e-02 0.9999 304.9107 285.5211)" class="st4 st0 st3">A</text>
	</g>
</g>
<g id="ID000012_00000159449800252084637720000013668240111451672747_">
	<g>
		<text transform="matrix(0.9999 1.570624e-02 -1.570624e-02 0.9999 243.1341 180.2557)" class="st2 st0 st3">A</text>
	</g>
</g>
<g id="ID000012_00000044872723323004467110000005294788515821262005_">
	<g>
		<text transform="matrix(0.9999 1.570624e-02 -1.570624e-02 0.9999 228.7756 158.0992)" class="st2 st0 st3">A</text>
	</g>
</g>
<g id="ID000012_00000052083684629996665900000008600109897748740778_">
	<g>
		<text transform="matrix(0.9999 1.570624e-02 -1.570624e-02 0.9999 243.1344 130.3983)" class="st2 st0 st3">A</text>
	</g>
</g>
<g id="ID000012_00000139987545913495754940000010509485273906075323_">
	<g>
		<text transform="matrix(0.9999 1.570624e-02 -1.570624e-02 0.9999 265.7968 110.3732)" class="st2 st0 st3">A</text>
	</g>
</g>
<g id="ID000012_00000021093500540814672850000009720021703209572250_">
	<text transform="matrix(0.9999 1.570624e-02 -1.570624e-02 0.9999 297.8512 110.3727)" class="st5 st0 st3">A</text>
</g>
<g id="ID000012_00000170975336905849815240000009118862742065277105_">
	<text transform="matrix(0.9999 1.570624e-02 -1.570624e-02 0.9999 320.8313 95.5499)" class="st5 st0 st3">A</text>
</g>
<g id="ID000012_00000133531176895448367880000017608775617678956452_">
	<g>
		<text transform="matrix(0.9999 1.570624e-02 -1.570624e-02 0.9999 352.4302 32.9616)" class="st2 st0 st3">A</text>
	</g>
</g>
<g id="ID000012_00000085238330085230516260000005285625264071100341_">
	<g>
		<text transform="matrix(0.9999 1.570624e-02 -1.570624e-02 0.9999 403.4854 74.7023)" class="st2 st0 st3">A</text>
	</g>
</g>
<g id="ID000012_00000072267181047374234340000008063837738270100866_">
	<g>
		<text transform="matrix(0.9999 1.570624e-02 -1.570624e-02 0.9999 410.4313 130.3973)" class="st2 st0 st3">A</text>
	</g>
</g>
<g id="ID000012_00000095299759126276380880000016854977104957198256_">
	<g>
		<text transform="matrix(0.9999 1.570624e-02 -1.570624e-02 0.9999 432.9401 180.2536)" class="st5 st0 st3">A</text>
	</g>
</g>
<g id="ID000012_00000114777424927387422120000003249195730568766370_">
	<g>
		<text transform="matrix(0.9999 1.570624e-02 -1.570624e-02 0.9999 382.0773 22.6804)" class="st2 st0 st3">A</text>
	</g>
</g>
<g id="ID000012_00000095312236544751385660000001339301323478858882_">
	<g>
		<text transform="matrix(0.9999 1.570624e-02 -1.570624e-02 0.9999 321.7389 329.5529)" class="st2 st0 st3">A</text>
	</g>
</g>
<g id="ID000012_00000163780630755816521670000000908869296210700417_">
	<g>
		<text transform="matrix(0.9999 1.570624e-02 -1.570624e-02 0.9999 272.8569 285.5215)" class="st4 st0 st3">U</text>
	</g>
</g>
<g id="ID000012_00000055690191501196615880000009641984226903181973_">
	<text transform="matrix(0.9999 1.570624e-02 -1.570624e-02 0.9999 330.5876 130.3978)" class="st5 st0 st3">U</text>
</g>
<g id="ID000012_00000016790147940039695220000003938979890721907868_">
	<g>
		<text transform="matrix(0.9995 3.140860e-02 -3.140860e-02 0.9995 432.856 152.5484)" class="st5 st0 st3">U</text>
	</g>
</g>
<g id="ID000012_00000168081586026004552170000004693701218138318745_">
	<g>
		<text transform="matrix(0.9999 1.570624e-02 -1.570624e-02 0.9999 456.4499 179.6584)" class="st5 st0 st3">A</text>
	</g>
</g>
<g id="ID000012_00000096057048547937042630000012320627278538501566_">
	<g>
		<text transform="matrix(0.9999 1.570624e-02 -1.570624e-02 0.9999 478.7791 152.6677)" class="st5 st0 st3">A</text>
	</g>
</g>
<g id="ID000012_00000084514646127943274790000018213383888011845292_">
	<g>
		<text transform="matrix(0.9999 1.570624e-02 -1.570624e-02 0.9999 568.9443 199.2559)" class="st2 st0 st3">A</text>
	</g>
</g>
<g id="ID000012_00000094577677107415823540000006504526597850125202_">
	<g>
		<text transform="matrix(0.9999 1.570624e-02 -1.570624e-02 0.9999 456.4499 152.6683)" class="st5 st0 st3">U</text>
	</g>
</g>
<g id="ID000012_00000102504816899643074940000007762810906938490814_">
	<g>
		<text transform="matrix(0.9999 1.570624e-02 -1.570624e-02 0.9999 478.7787 180.2549)" class="st5 st0 st3">U</text>
	</g>
</g>
<g id="ID000012_00000066498384943166411260000001216328557799522978_">
	<text transform="matrix(0.9999 1.570624e-02 -1.570624e-02 0.9999 352.4303 115.9387)" class="st5 st0 st3">U</text>
</g>
<g id="ID000012_00000040546027276384012780000003396610756115918747_">
	<text transform="matrix(0.9999 1.570624e-02 -1.570624e-02 0.9999 299.5415 344.6997)" class="st4 st0 st3">C</text>
</g>
<g id="ID000012_00000169524285357805490160000009963988056620631475_">
	<text transform="matrix(0.9999 1.570624e-02 -1.570624e-02 0.9999 341.3775 152.669)" class="st4 st0 st3">C</text>
</g>
<g id="ID000012_00000026861120386705270180000016569749735881498787_">
	<text transform="matrix(0.9999 1.570624e-02 -1.570624e-02 0.9999 304.9107 265.6168)" class="st4 st0 st3">C</text>
</g>
<g id="ID000012_00000069386893976274427090000013917289703805097350_">
	<text transform="matrix(0.9999 1.570624e-02 -1.570624e-02 0.9999 272.3866 222.1646)" class="st4 st0 st3">G</text>
</g>
<g id="ID000012_00000103229051345657390160000000328863131246084781_">
	<text transform="matrix(0.9999 1.570624e-02 -1.570624e-02 0.9999 304.4405 222.1641)" class="st4 st0 st3">C</text>
</g>
<g id="ID000012_00000093871016117578977290000012676829185224800654_">
	<text transform="matrix(0.9999 1.570624e-02 -1.570624e-02 0.9999 272.3864 200.6069)" class="st4 st0 st3">G</text>
</g>
<g id="ID000012_00000018942593925829847810000006908353146477829760_">
	<text transform="matrix(0.9999 1.570624e-02 -1.570624e-02 0.9999 335.6276 74.7032)" class="st5 st0 st3">G</text>
</g>
<g id="ID000012_00000171720385806234431880000004970552718315775363_">
	<text transform="matrix(0.9999 1.570624e-02 -1.570624e-02 0.9999 341.3775 180.2551)" class="st4 st0 st3">G</text>
</g>
<g id="ID000012_00000178172997688680604760000015510315437054727575_">
	<text transform="matrix(0.9999 1.570624e-02 -1.570624e-02 0.9999 365.5293 152.6685)" class="st4 st0 st3">C</text>
</g>
<g id="ID000012_00000122704656003615967580000014777616513356975503_">
	<text transform="matrix(0.9999 1.570624e-02 -1.570624e-02 0.9999 365.5293 180.2546)" class="st4 st0 st3">G</text>
</g>
<g id="ID000012_00000061459582054656398460000009423906347183762343_">
	<text transform="matrix(0.9999 1.570624e-02 -1.570624e-02 0.9999 389.5753 152.6682)" class="st4 st0 st3">G</text>
</g>
<g id="ID000012_00000094599742994360745740000008224082116212862886_">
	<text transform="matrix(0.9999 1.570624e-02 -1.570624e-02 0.9999 389.5753 180.2542)" class="st4 st0 st3">C</text>
</g>
<g id="ID000012_00000054958845457259205620000014339255019989598908_">
	<g>
		<text transform="matrix(0.9999 1.570624e-02 -1.570624e-02 0.9999 499.4701 152.6685)" class="st5 st0 st3">G</text>
	</g>
</g>
<g id="ID000012_00000088119804910530080360000012522998374557809585_">
	<g>
		<text transform="matrix(0.9999 1.570624e-02 -1.570624e-02 0.9999 499.4701 180.2546)" class="st5 st0 st3">C</text>
	</g>
</g>
<g id="ID000012_00000094617642752545568650000009411898773271440278_">
	<g>
		<text transform="matrix(0.9999 1.570624e-02 -1.570624e-02 0.9999 522.3184 153.3553)" class="st5 st0 st3">G</text>
	</g>
</g>
<g id="ID000012_00000005976083454710534040000014191927209367660451_">
	<g>
		<text transform="matrix(0.9999 1.570624e-02 -1.570624e-02 0.9999 522.3184 180.9415)" class="st5 st0 st3">C</text>
	</g>
</g>
<g id="ID000012_00000170993145571388777680000003441310339047993505_">
	<g>
		<text transform="matrix(0.9999 1.570624e-02 -1.570624e-02 0.9999 544.0031 153.3553)" class="st5 st0 st3">G</text>
	</g>
</g>
<g id="ID000012_00000080208606901871069020000013551358127511725218_">
	<g>
		<text transform="matrix(0.9999 1.570624e-02 -1.570624e-02 0.9999 544.0031 180.9414)" class="st5 st0 st3">C</text>
	</g>
</g>
<g id="ID000012_00000040540515566953370740000004627322917258240677_">
	<g>
		<text transform="matrix(0.9999 1.570624e-02 -1.570624e-02 0.9999 592.2386 153.3547)" class="st2 st0 st3">C</text>
	</g>
</g>
<g id="ID000012_00000130615023769462311050000003968178638906888614_">
	<g>
		<text transform="matrix(0.9999 1.570624e-02 -1.570624e-02 0.9999 592.2385 179.6575)" class="st2 st0 st3">C</text>
	</g>
</g>
<g id="ID000012_00000098189309746900834570000008687035601894942117_">
	<g>
		<text transform="matrix(0.9999 1.570624e-02 -1.570624e-02 0.9999 568.9444 130.3976)" class="st2 st0 st3">C</text>
	</g>
</g>
<g id="ID000012_00000170982791038403875100000004728156430366961050_">
	<text transform="matrix(0.9999 1.570624e-02 -1.570624e-02 0.9999 304.4403 200.6064)" class="st4 st0 st3">C</text>
</g>
<g id="ID000012_00000170269834846717235460000013945952119982210197_">
	<text transform="matrix(0.9999 1.570624e-02 -1.570624e-02 0.9999 370.307 95.5493)" class="st5 st0 st3">C</text>
</g>
<g id="ID000012_00000021834984327113468420000005724536435405334195_">
	<g>
		<text transform="matrix(0.9999 1.570624e-02 -1.570624e-02 0.9999 406.0717 46.1375)" class="st2 st0 st3">C</text>
	</g>
</g>
<g id="ID000012_00000074413577122691434050000007415029074451020199_">
	<text transform="matrix(0.9999 1.570624e-02 -1.570624e-02 0.9999 272.3867 243.7378)" class="st4 st0 st3">C</text>
</g>
<g id="ID000018_00000104707097969389953970000009088350760481935533_">
	<text transform="matrix(0.9998 1.779396e-02 -1.779396e-02 0.9998 244.8329 389.5526)" class="st0 st6">5’</text>
</g>
<g id="ID000018_00000074432191412392947320000007456582386398894230_">
	<text transform="matrix(0.9998 1.779396e-02 -1.779396e-02 0.9998 223.31 208.1316)" class="st0 st6">10</text>
</g>
<g id="ID000018_00000016776568461928348080000008120274785395454901_">
	<text transform="matrix(0.9998 1.779396e-02 -1.779396e-02 0.9998 429.1745 83.2001)" class="st0 st6">20</text>
</g>
<g id="ID000018_00000173875532345894262190000001693141531838976410_">
	<text transform="matrix(0.9998 1.779396e-02 -1.779396e-02 0.9998 473.944 121.5564)" class="st0 st6">30</text>
</g>
<g id="ID000018_00000161597497116145835630000001696915511484909206_">
	<text transform="matrix(0.9998 1.779396e-02 -1.779396e-02 0.9998 496.5196 209.9663)" class="st0 st6">40</text>
</g>
<g id="ID000018_00000046333073655428963730000016054846294715392905_">
	<text transform="matrix(0.9998 1.779396e-02 -1.779396e-02 0.9998 335.6278 267.949)" class="st0 st6">50</text>
</g>
<g id="ID000018_00000054229788772175650710000009096838164884966548_">
	<text transform="matrix(0.9998 1.779396e-02 -1.779396e-02 0.9998 315.5369 368.8367)" class="st0 st6">3’</text>
</g>
<line class="st7" x1="298.9" y1="337.6" x2="290.8" y2="337.6"/>
<line class="st7" x1="463.6" y1="163.6" x2="463.8" y2="154.9"/>
<line class="st7" x1="531.2" y1="164.7" x2="531.3" y2="155.9"/>
<line class="st7" x1="486.5" y1="164.7" x2="486.7" y2="155.9"/>
<line class="st7" x1="508.1" y1="164.7" x2="508.2" y2="155.9"/>
<line class="st7" x1="552.5" y1="164.7" x2="552.7" y2="155.9"/>
<line class="st7" x1="439.2" y1="163.6" x2="439.3" y2="154.9"/>
<line class="st7" x1="373.6" y1="163.3" x2="373.7" y2="154.6"/>
<line class="st7" x1="398.4" y1="163.6" x2="398.6" y2="154.9"/>
<line class="st7" x1="349.9" y1="163.3" x2="350" y2="154.6"/>
<line class="st7" x1="300.5" y1="279.4" x2="292.4" y2="279.4"/>
<line class="st7" x1="327.4" y1="117.5" x2="318.6" y2="110.4"/>
<line class="st7" x1="348.1" y1="103.9" x2="339.2" y2="96.8"/>
<line class="st7" x1="366.4" y1="83.2" x2="357.6" y2="76.1"/>
<line class="st7" x1="301.1" y1="259.7" x2="293" y2="259.7"/>
<line class="st7" x1="300.8" y1="237.6" x2="292.7" y2="237.6"/>
<line class="st7" x1="300.8" y1="216.2" x2="292.7" y2="216.2"/>
<line class="st7" x1="300.8" y1="193.7" x2="292.7" y2="193.7"/>
<line class="st7" x1="486.7" y1="134.7" x2="486.8" y2="126"/>
<line class="st7" x1="508.2" y1="191.2" x2="508.2" y2="182.5"/>
<line class="st7" x1="418.5" y1="73.9" x2="429.2" y2="78"/>
<line class="st7" x1="332.7" y1="261.4" x2="324" y2="261.1"/>
<line class="st7" x1="237.2" y1="190.2" x2="242.8" y2="183.6"/>
</svg>
