<svg id="图层_1" data-name="图层 1" xmlns="http://www.w3.org/2000/svg" viewBox="0 0 400 400"><defs><style>.cls-1,.cls-2,.cls-3,.cls-4,.cls-5,.cls-6,.cls-7,.cls-8,.cls-9{isolation:isolate;}.cls-1,.cls-2,.cls-3,.cls-4,.cls-5,.cls-6,.cls-7,.cls-8{font-size:19.26px;}.cls-1,.cls-2{fill:teal;}.cls-1,.cls-12,.cls-13,.cls-2,.cls-3,.cls-4,.cls-5,.cls-6,.cls-7,.cls-8,.cls-9{font-family:ArialMT, Arial;}.cls-1,.cls-3,.cls-5,.cls-8{letter-spacing:-0.06em;}.cls-3,.cls-4{fill:#32cd32;}.cls-5,.cls-6{fill:#228b22;}.cls-7,.cls-8{fill:#80db9e;}.cls-9{font-size:10.7px;}.cls-10{fill:none;}.cls-10,.cls-11{stroke:#000;stroke-miterlimit:10;stroke-width:0.07px;}.cls-12{font-size:21.4px;}.cls-13{font-size:15px;}.cls-14{letter-spacing:-0.04em;}.cls-15{letter-spacing:-0.04em;}</style></defs><text class="cls-1" transform="translate(164.77 354.6)">A</text><text class="cls-2" transform="translate(171.78 337.56)">G</text><text class="cls-2" transform="translate(170.3 317.26)">G</text><text class="cls-1" transform="translate(163.27 300.59)">A</text><text class="cls-2" transform="translate(169.53 282.91)">C</text><text class="cls-2" transform="translate(169.94 261.44)">G</text><text class="cls-3" transform="translate(172.26 240.05)">A</text><text class="cls-4" transform="translate(164.18 223.21)">U</text><text class="cls-4" transform="translate(167.6 204.63)">G</text><text class="cls-4" transform="translate(181.13 192.15)">C</text><text class="cls-4" transform="translate(187.77 170.06)">G</text><text class="cls-4" transform="translate(177.77 155.86)">G</text><text class="cls-5" transform="translate(155.47 150.75)">A</text><text class="cls-6" transform="translate(134.4 144.03)">C</text><text class="cls-5" transform="translate(119.95 154.84)">A</text><text class="cls-6" transform="translate(102.88 164.51)">G</text><text class="cls-5" transform="translate(84.1 168.74)">A</text><text class="cls-6" transform="translate(64.64 166.64)">U</text><text class="cls-5" transform="translate(47.31 158.71)">A</text><text class="cls-6" transform="translate(33.14 145.74)">C</text><text class="cls-6" transform="translate(23.17 129.09)">G</text><text class="cls-6" transform="translate(19.12 110.3)">G</text><text class="cls-5" transform="translate(21.9 91.22)">A</text><text class="cls-5" transform="translate(29.99 73.91)">A</text><text class="cls-6" transform="translate(42.2 59.06)">C</text><text class="cls-6" transform="translate(58.42 49.31)">U</text><text class="cls-5" transform="translate(77.43 45.3)">A</text><text class="cls-6" transform="translate(96.62 47.04)">C</text><text class="cls-5" transform="translate(114.18 54.67)">A</text><text class="cls-6" transform="translate(128.42 67.43)">G</text><text class="cls-5" transform="translate(138.57 84.24)">A</text><text class="cls-6" transform="translate(142.38 102.15)">G</text><text class="cls-6" transform="translate(141.11 119.83)">G</text><text class="cls-6" transform="translate(159.83 126.78)">U</text><text class="cls-4" transform="translate(178.6 129.61)">C</text><text class="cls-3" transform="translate(182.99 112.81)">A</text><text class="cls-3" transform="translate(194.49 98.63)">A</text><text class="cls-4" transform="translate(210.99 89.56)">U</text><text class="cls-4" transform="translate(230.02 88.18)">U</text><text class="cls-3" transform="translate(248.14 95.14)">A</text><text class="cls-4" transform="translate(261.83 107.5)">C</text><text class="cls-4" transform="translate(269.81 122.83)">G</text><text class="cls-4" transform="translate(289.86 121.42)">G</text><text class="cls-7" transform="translate(310.11 118.72)">U</text><text class="cls-7" transform="translate(329.96 115.27)">G</text><text class="cls-7" transform="translate(345.11 104.66)">G</text><text class="cls-7" transform="translate(363.54 112.38)">C</text><text class="cls-7" transform="translate(367.01 131.33)">C</text><text class="cls-8" transform="translate(352.43 144.91)">A</text><text class="cls-7" transform="translate(335.79 140.53)">C</text><text class="cls-7" transform="translate(314.93 143.67)">G</text><text class="cls-4" transform="translate(294.36 146.31)">C</text><text class="cls-4" transform="translate(273.13 148.33)">C</text><text class="cls-3" transform="translate(261.75 163.91)">A</text><text class="cls-4" transform="translate(246.57 175.37)">G</text><text class="cls-3" transform="translate(229.1 181.07)">A</text><text class="cls-4" transform="translate(211.55 178.37)">C</text><text class="cls-4" transform="translate(205.28 196.54)">G</text><text class="cls-3" transform="translate(214.88 213.69)">A</text><text class="cls-4" transform="translate(210.52 231.69)">C</text><text class="cls-4" transform="translate(197.1 242.52)">U</text><text class="cls-2" transform="translate(195.25 262.66)">C</text><text class="cls-2" transform="translate(194.52 282.66)">G</text><text class="cls-2" transform="translate(203.21 299.28)">C</text><text class="cls-2" transform="translate(196.2 316.27)">C</text><text class="cls-2" transform="translate(197.74 335.97)">C</text><text class="cls-2" transform="translate(208.17 349.7)">G</text><text class="cls-1" transform="translate(207.23 368.66)">A</text><text class="cls-9" transform="translate(170.49 182.52)">10</text><text class="cls-9" transform="translate(22.6 152.85)">20</text><text class="cls-9" transform="translate(143.4 59.06)">30</text><text class="cls-9" transform="translate(258.43 84.92)">40</text><text class="cls-9" transform="translate(352.4 154.84)">50</text><text class="cls-9" transform="translate(225.75 234.61)">60</text><g id="ID000011"><line class="cls-10" x1="144.37" y1="129.5" x2="146.8" y2="120.56"/></g><g id="ID000011-2" data-name="ID000011"><line class="cls-10" x1="163.13" y1="136.76" x2="165.56" y2="127.82"/></g><g id="ID000011-3" data-name="ID000011"><line class="cls-10" x1="185.34" y1="140.76" x2="185.17" y2="129.99"/></g><g id="ID000011-4" data-name="ID000011"><line class="cls-10" x1="212.44" y1="168.47" x2="202.72" y2="165.8"/></g><g id="ID000011-5" data-name="ID000011"><line class="cls-10" x1="205.62" y1="189.6" x2="194.32" y2="186.7"/></g><g id="ID000011-6" data-name="ID000011"><line class="cls-10" x1="279.19" y1="133.62" x2="278.33" y2="123.72"/></g><g id="ID000011-7" data-name="ID000011"><line class="cls-10" x1="341.66" y1="126.24" x2="339.07" y2="115.86"/></g><g id="ID000011-8" data-name="ID000011"><line class="cls-10" x1="299.41" y1="131.14" x2="298.56" y2="122.7"/></g><g id="ID000011-9" data-name="ID000011"><line class="cls-10" x1="197.36" y1="235.45" x2="184.02" y2="234.61"/></g><g id="ID000011-10" data-name="ID000011"><line class="cls-10" x1="197.36" y1="255.9" x2="184.02" y2="255.06"/></g><g id="ID000011-11" data-name="ID000011"><line class="cls-10" x1="195.32" y1="276.35" x2="181.98" y2="275.5"/></g><g id="ID000011-12" data-name="ID000011"><line class="cls-10" x1="197.33" y1="309.56" x2="184.04" y2="311.01"/></g><g id="ID000011-13" data-name="ID000011"><line class="cls-10" x1="198.84" y1="329.19" x2="185.55" y2="330.65"/></g><g id="ID000021"><polygon class="cls-11" points="319.15 121.62 319.04 121.62 318.92 121.62 318.81 121.64 318.69 121.67 318.58 121.7 318.46 121.73 318.35 121.79 318.24 121.85 318.15 121.9 318.03 121.96 317.95 122.05 317.86 122.13 317.78 122.22 317.69 122.31 317.63 122.39 317.57 122.48 317.52 122.59 317.46 122.71 317.4 122.79 317.37 122.91 317.35 123.02 317.32 123.14 317.29 123.28 317.29 123.39 317.29 123.51 317.29 123.63 317.32 123.74 317.32 123.86 317.35 123.97 317.37 124.08 317.43 124.2 317.49 124.31 317.55 124.4 317.6 124.52 317.66 124.6 317.75 124.72 317.83 124.8 317.92 124.86 318.01 124.94 318.09 125 318.21 125.09 318.29 125.15 318.41 125.17 318.52 125.23 318.64 125.26 318.75 125.29 318.87 125.32 318.98 125.35 319.1 125.35 319.21 125.35 319.33 125.35 319.44 125.32 319.56 125.29 319.67 125.26 319.79 125.23 319.9 125.17 320.01 125.15 320.13 125.09 320.22 125 320.3 124.94 320.42 124.86 320.5 124.8 320.56 124.72 320.65 124.6 320.7 124.52 320.79 124.4 320.82 124.31 320.88 124.2 320.93 124.08 320.96 123.97 320.99 123.86 321.02 123.74 321.02 123.63 321.02 123.51 321.02 123.39 321.02 123.28 320.99 123.14 320.96 123.02 320.93 122.91 320.9 122.79 320.85 122.71 320.82 122.59 320.76 122.48 320.68 122.39 320.62 122.31 320.53 122.22 320.44 122.13 320.36 122.05 320.27 121.96 320.16 121.9 320.07 121.85 319.96 121.79 319.84 121.73 319.73 121.7 319.61 121.67 319.5 121.64 319.38 121.62 319.27 121.62 319.15 121.62"/></g><text class="cls-12" transform="translate(170.96 35.52)">P19 aptamer</text><text class="cls-13" transform="translate(151.54 365.66)">5<tspan class="cls-14" x="8.34" y="0">’</tspan></text><text class="cls-13" transform="translate(195.19 381.76)">3<tspan class="cls-15" x="8.34" y="0">’</tspan></text></svg>