<?xml version="1.0" encoding="utf-8"?>
<!-- Generator: Adobe Illustrator 25.2.0, SVG Export Plug-In . SVG Version: 6.00 Build 0)  -->
<svg version="1.1" id="图层_1" xmlns="http://www.w3.org/2000/svg" xmlns:xlink="http://www.w3.org/1999/xlink" x="0px" y="0px"
	 viewBox="0 0 800 400" style="enable-background:new 0 0 800 400;" xml:space="preserve">
<style type="text/css">
	.st0{fill:#999999;}
	.st1{font-family:'ArialMT';}
	.st2{font-size:10.8935px;}
	.st3{fill:#FF9933;}
	.st4{fill:none;stroke:#000000;stroke-width:0.14;stroke-miterlimit:1.11;}
	.st5{fill:#99CCFF;}
	.st6{stroke:#000000;stroke-width:0.14;stroke-miterlimit:1.11;}
	.st7{fill:none;stroke:#000000;stroke-width:0.36;stroke-miterlimit:1.11;}
	.st8{fill:#FF3399;}
	.st9{fill:#9933FF;}
	.st10{fill:#FF6666;}
	.st11{fill:#66CC00;}
	.st12{font-size:24.6645px;}
	.st13{font-size:20px;}
</style>
<g id="ID000002">
	<text transform="matrix(0.9869 0 0 1 737.1775 285.5657)" class="st0 st1 st2">G</text>
</g>
<g id="ID000003">
	<text transform="matrix(0.9869 0 0 1 737.1541 296.7454)" class="st3 st1 st2">G</text>
</g>
<g id="ID000004">
	<text transform="matrix(0.9869 0 0 1 737.1287 307.925)" class="st3 st1 st2">G</text>
</g>
<g id="ID000005">
	<text transform="matrix(0.9869 0 0 1 737.7068 319.1135)" class="st3 st1 st2">A</text>
</g>
<g id="ID000006">
	<text transform="matrix(0.9869 0 0 1 739.8474 330.2942)" class="st3 st1 st2">G</text>
</g>
<g id="ID000007">
	<text transform="matrix(0.9869 0 0 1 732.1404 344.259)" class="st3 st1 st2">A</text>
</g>
<g id="ID000008">
	<text transform="matrix(0.9869 0 0 1 718.3464 344.2307)" class="st3 st1 st2">A</text>
</g>
<g id="ID000009">
	<text transform="matrix(0.9869 0 0 1 709.7986 330.2258)" class="st3 st1 st2">U</text>
</g>
<g id="ID000010">
	<text transform="matrix(0.9869 0 0 1 715.3396 319.0803)" class="st3 st1 st2">U</text>
</g>
<g id="ID000011">
	<text transform="matrix(0.9869 0 0 1 715.365 307.8752)" class="st3 st1 st2">C</text>
</g>
<g id="ID000012">
	<line class="st4" x1="709.8" y1="305" x2="702.4" y2="304.9"/>
</g>
<g id="ID000013">
	<text transform="matrix(0.9869 0 0 1 690.5857 307.8752)" class="st1 st2">10</text>
</g>
<g id="ID000014">
	<text transform="matrix(0.9869 0 0 1 715.3787 296.6936)" class="st3 st1 st2">C</text>
</g>
<g id="ID000015">
	<text transform="matrix(0.9869 0 0 1 715.1052 285.5198)" class="st3 st1 st2">G</text>
</g>
<g id="ID000016">
	<text transform="matrix(0.9869 0 0 1 715.7224 274.344)" class="st3 st1 st2">A</text>
</g>
<g id="ID000017">
	<text transform="matrix(0.9869 0 0 1 715.448 263.1506)" class="st3 st1 st2">C</text>
</g>
<g id="ID000018">
	<text transform="matrix(0.9869 0 0 1 715.4705 251.969)" class="st3 st1 st2">C</text>
</g>
<g id="ID000019">
	<line class="st4" x1="736" y1="293.8" x2="722.8" y2="293.8"/>
</g>
<g id="ID000020">
	<line class="st4" x1="736" y1="305" x2="722.8" y2="305"/>
</g>
<g id="ID000021">
	<line class="st4" x1="736" y1="316.2" x2="722.8" y2="316.2"/>
</g>
<g id="ID000023">
	<text transform="matrix(0.9869 0 0 1 715.7869 240.801)" class="st3 st1 st2">A</text>
</g>
<g id="ID000024">
	<text transform="matrix(0.9869 0 0 1 704.1599 240.7737)" class="st3 st1 st2">G</text>
</g>
<g id="ID000025">
	<text transform="matrix(0.9869 0 0 1 693.7195 240.7581)" class="st3 st1 st2">A</text>
</g>
<g id="ID000026">
	<text transform="matrix(0.9869 0 0 1 681.075 240.7288)" class="st5 st1 st2">G</text>
</g>
<g id="ID000027">
	<text transform="matrix(0.9869 0 0 1 670.0427 240.7034)" class="st5 st1 st2">G</text>
</g>
<g id="ID000028">
	<line class="st4" x1="673.1" y1="245.2" x2="673.1" y2="252.7"/>
</g>
<g id="ID000029">
	<text transform="matrix(0.9869 0 0 1 669.2166 261.677)" class="st1 st2">20</text>
</g>
<g id="ID000030">
	<text transform="matrix(0.9869 0 0 1 659.3044 240.678)" class="st5 st1 st2">U</text>
</g>
<g id="ID000031">
	<text transform="matrix(0.9869 0 0 1 648.2673 240.6584)" class="st5 st1 st2">U</text>
</g>
<g id="ID000032">
	<text transform="matrix(0.9869 0 0 1 636.9353 240.6399)" class="st5 st1 st2">G</text>
</g>
<g id="ID000033">
	<text transform="matrix(0.9869 0 0 1 626.2009 240.6125)" class="st5 st1 st2">U</text>
</g>
<g id="ID000034">
	<text transform="matrix(0.9869 0 0 1 615.1638 240.595)" class="st5 st1 st2">U</text>
</g>
<g id="ID000035">
	<text transform="matrix(0.9869 0 0 1 604.4294 240.5793)" class="st5 st1 st2">A</text>
</g>
<g id="ID000036">
	<text transform="matrix(0.9869 0 0 1 594.408 240.5598)" class="st5 st1 st2">A</text>
</g>
<g id="ID000037">
	<text transform="matrix(0.9869 0 0 1 590.9812 210.4895)" class="st5 st1 st2">A</text>
</g>
<g id="ID000038">
	<text transform="matrix(0.9869 0 0 1 603.1628 218.2053)" class="st5 st1 st2">U</text>
</g>
<g id="ID000039">
	<text transform="matrix(0.9869 0 0 1 614.49 218.218)" class="st5 st1 st2">A</text>
</g>
<g id="ID000040">
	<text transform="matrix(0.9869 0 0 1 624.9324 218.2561)" class="st5 st1 st2">G</text>
</g>
<g id="ID000041">
	<line class="st4" x1="629.1" y1="207.9" x2="629.1" y2="200.4"/>
</g>
<g id="ID000042">
	<text transform="matrix(0.9869 0 0 1 622.2156 194.2493)" class="st1 st2">120</text>
</g>
<g id="ID000043">
	<text transform="matrix(0.9869 0 0 1 636.2673 218.2737)" class="st5 st1 st2">C</text>
</g>
<g id="ID000044">
	<text transform="matrix(0.9869 0 0 1 647.5925 218.2834)" class="st5 st1 st2">A</text>
</g>
<g id="ID000045">
	<text transform="matrix(0.9869 0 0 1 658.032 218.3235)" class="st5 st1 st2">G</text>
</g>
<g id="ID000046">
	<text transform="matrix(0.9869 0 0 1 669.3679 218.3391)" class="st5 st1 st2">U</text>
</g>
<g id="ID000047">
	<text transform="matrix(0.9869 0 0 1 680.4031 218.3567)" class="st5 st1 st2">C</text>
</g>
<g id="ID000048">
	<line class="st4" x1="684.2" y1="233.3" x2="684.2" y2="219.9"/>
</g>
<g id="ID000049">
	<polygon class="st6" points="673.2,224.4 673,224.4 672.9,224.4 672.8,224.4 672.6,224.4 672.5,224.5 672.3,224.5 672.2,224.6 
		672.1,224.7 672,224.7 671.9,224.8 671.7,224.9 671.6,225 671.5,225.1 671.5,225.2 671.4,225.3 671.3,225.4 671.2,225.5 
		671.1,225.7 671.1,225.8 671,225.9 671,226.1 671,226.2 671,226.4 671,226.5 670.9,226.6 671,226.8 671,226.9 671,227.1 671,227.2 
		671.1,227.3 671.1,227.5 671.2,227.6 671.2,227.7 671.3,227.8 671.4,228 671.5,228.1 671.6,228.2 671.7,228.3 671.8,228.4 
		671.9,228.4 672,228.5 672.1,228.6 672.3,228.6 672.4,228.7 672.5,228.8 672.7,228.8 672.8,228.8 672.9,228.8 673.1,228.8 
		673.2,228.8 673.4,228.8 673.5,228.8 673.6,228.8 673.8,228.8 673.9,228.7 674,228.7 674.2,228.6 674.3,228.5 674.4,228.4 
		674.5,228.4 674.6,228.3 674.7,228.2 674.8,228.1 674.9,228 675,227.9 675.1,227.7 675.1,227.6 675.2,227.5 675.2,227.3 
		675.3,227.2 675.3,227.1 675.3,226.9 675.4,226.8 675.4,226.6 675.4,226.5 675.3,226.4 675.3,226.2 675.3,226.1 675.3,225.9 
		675.2,225.8 675.2,225.7 675.1,225.6 675,225.4 675,225.3 674.9,225.2 674.8,225.1 674.7,225 674.6,224.9 674.5,224.8 674.4,224.7 
		674.2,224.7 674.1,224.6 674,224.5 673.8,224.5 673.7,224.4 673.6,224.4 673.4,224.4 673.3,224.4 	"/>
</g>
<g id="ID000050">
	<polygon class="st6" points="662.1,224.4 662,224.4 661.8,224.4 661.7,224.4 661.6,224.4 661.4,224.5 661.3,224.5 661.2,224.6 
		661,224.6 660.9,224.7 660.8,224.8 660.7,224.9 660.6,225 660.5,225.1 660.4,225.2 660.3,225.3 660.3,225.4 660.2,225.5 
		660.1,225.6 660.1,225.8 660,225.9 660,226.1 660,226.2 659.9,226.3 659.9,226.5 659.9,226.6 659.9,226.8 659.9,226.9 660,227 
		660,227.2 660,227.3 660.1,227.5 660.2,227.6 660.2,227.7 660.3,227.8 660.4,227.9 660.5,228.1 660.6,228.2 660.7,228.3 
		660.8,228.3 660.9,228.4 661,228.5 661.1,228.6 661.2,228.6 661.4,228.7 661.5,228.7 661.6,228.8 661.8,228.8 661.9,228.8 
		662.1,228.8 662.2,228.8 662.3,228.8 662.5,228.8 662.6,228.8 662.7,228.7 662.9,228.7 663,228.6 663.1,228.6 663.3,228.5 
		663.4,228.4 663.5,228.3 663.6,228.3 663.7,228.2 663.8,228.1 663.9,228 664,227.8 664,227.7 664.1,227.6 664.2,227.5 664.2,227.3 
		664.2,227.2 664.3,227.1 664.3,226.9 664.3,226.8 664.3,226.6 664.3,226.5 664.3,226.4 664.3,226.2 664.3,226.1 664.2,225.9 
		664.2,225.8 664.1,225.7 664.1,225.5 664,225.4 663.9,225.3 663.8,225.2 663.7,225.1 663.6,225 663.5,224.9 663.4,224.8 
		663.3,224.7 663.2,224.6 663.1,224.6 663,224.5 662.8,224.5 662.7,224.4 662.6,224.4 662.4,224.4 662.3,224.4 	"/>
</g>
<g id="ID000051">
	<line class="st4" x1="651.1" y1="233.3" x2="651.1" y2="219.9"/>
</g>
<g id="ID000052">
	<line class="st4" x1="640" y1="233.3" x2="640.1" y2="219.8"/>
</g>
<g id="ID000053">
	<polygon class="st6" points="629,224.3 628.9,224.3 628.7,224.3 628.6,224.3 628.5,224.3 628.3,224.4 628.2,224.5 628.1,224.5 
		627.9,224.6 627.8,224.6 627.7,224.7 627.6,224.8 627.5,224.9 627.4,225 627.3,225.1 627.2,225.2 627.2,225.3 627.1,225.5 
		627,225.6 626.9,225.7 626.9,225.8 626.9,226 626.8,226.1 626.8,226.3 626.8,226.4 626.8,226.5 626.8,226.7 626.8,226.8 626.9,227 
		626.9,227.1 626.9,227.2 627,227.4 627,227.5 627.1,227.6 627.2,227.8 627.2,227.9 627.3,228 627.5,228.1 627.5,228.2 627.7,228.3 
		627.8,228.4 627.9,228.4 628,228.5 628.1,228.6 628.3,228.6 628.4,228.7 628.5,228.7 628.7,228.7 628.8,228.7 629,228.7 
		629.1,228.7 629.2,228.7 629.4,228.7 629.5,228.7 629.6,228.7 629.8,228.6 629.9,228.6 630,228.5 630.1,228.4 630.3,228.4 
		630.4,228.3 630.5,228.2 630.6,228.1 630.7,228 630.8,227.9 630.9,227.8 630.9,227.6 631,227.5 631,227.4 631.1,227.3 631.1,227.1 
		631.2,227 631.2,226.8 631.2,226.7 631.2,226.6 631.2,226.4 631.2,226.3 631.2,226.1 631.2,226 631.1,225.9 631.1,225.7 631,225.6 
		631,225.5 630.9,225.3 630.8,225.2 630.7,225.1 630.6,225 630.5,224.9 630.4,224.8 630.3,224.7 630.2,224.6 630.1,224.6 630,224.5 
		629.8,224.5 629.7,224.4 629.6,224.4 629.4,224.3 629.3,224.3 629.2,224.3 	"/>
</g>
<g id="ID000054">
	<line class="st4" x1="618" y1="233.2" x2="618" y2="219.8"/>
</g>
<g id="ID000055">
	<line class="st4" x1="606.9" y1="233.2" x2="607" y2="219.8"/>
</g>
<g id="ID000056">
	<line class="st7" x1="591.5" y1="237.6" x2="573.4" y2="237.6"/>
</g>
<g id="ID000057">
	<polygon class="st6" points="585.9,240.5 584.4,239 582.8,238.6 581.2,238.3 578.1,237.6 581.2,236.9 582.8,236.6 584.4,236.1 
		585.9,234.7 	"/>
</g>
<g id="ID000059">
	<text transform="matrix(0.9869 0 0 1 564.0632 239.9387)" class="st5 st1 st2">G</text>
</g>
<g id="ID000060">
	<text transform="matrix(0.9869 0 0 1 553.3328 239.9133)" class="st5 st1 st2">U</text>
</g>
<g id="ID000061">
	<text transform="matrix(0.9869 0 0 1 541.9978 239.8928)" class="st5 st1 st2">G</text>
</g>
<g id="ID000062">
	<line class="st4" x1="536.4" y1="243.7" x2="536.4" y2="251.1"/>
</g>
<g id="ID000063">
	<text transform="matrix(0.9869 0 0 1 532.5369 260.1252)" class="st1 st2">30</text>
</g>
<g id="ID000064">
	<text transform="matrix(0.9869 0 0 1 531.2595 239.8684)" class="st5 st1 st2">C</text>
</g>
<g id="ID000065">
	<text transform="matrix(0.9869 0 0 1 519.9041 239.8508)" class="st5 st1 st2">G</text>
</g>
<g id="ID000066">
	<text transform="matrix(0.9869 0 0 1 503.366 240.3762)" class="st5 st1 st2">A</text>
</g>
<g id="ID000067">
	<text transform="matrix(0.9869 0 0 1 491.7175 240.3459)" class="st5 st1 st2">G</text>
</g>
<g id="ID000068">
	<text transform="matrix(0.9869 0 0 1 480.9832 240.3235)" class="st5 st1 st2">U</text>
</g>
<g id="ID000069">
	<text transform="matrix(0.9869 0 0 1 469.6482 240.304)" class="st5 st1 st2">G</text>
</g>
<g id="ID000070">
	<text transform="matrix(0.9869 0 0 1 464.4109 251.47)" class="st8 st1 st2">U</text>
</g>
<g id="ID000071">
	<text transform="matrix(0.9869 0 0 1 453.0583 259.8362)" class="st8 st1 st2">G</text>
</g>
<g id="ID000072">
	<text transform="matrix(0.9869 0 0 1 445.0662 268.2053)" class="st8 st1 st2">U</text>
</g>
<g id="ID000073">
	<text transform="matrix(0.9869 0 0 1 469.9939 217.9348)" class="st5 st1 st2">C</text>
</g>
<g id="ID000074">
	<text transform="matrix(0.9869 0 0 1 481.323 217.9514)" class="st5 st1 st2">A</text>
</g>
<g id="ID000075">
	<text transform="matrix(0.9869 0 0 1 492.0613 217.9817)" class="st5 st1 st2">C</text>
</g>
<g id="ID000076">
	<text transform="matrix(0.9869 0 0 1 503.114 218.0051)" class="st5 st1 st2">U</text>
</g>
<g id="ID000077">
	<text transform="matrix(0.9869 0 0 1 512.0349 211.2209)" class="st5 st1 st2">C</text>
</g>
<g id="ID000078">
	<line class="st4" x1="516.2" y1="198.9" x2="516.2" y2="191.4"/>
</g>
<g id="ID000079">
	<text transform="matrix(0.9869 0 0 1 507.3962 187.6301)" class="st1 st2">1</text>
	<text transform="matrix(0.9869 0 0 1 512.571 187.6301)" class="st1 st2">10</text>
</g>
<g id="ID000080">
	<text transform="matrix(0.9869 0 0 1 520.0574 217.7385)" class="st5 st1 st2">C</text>
</g>
<g id="ID000081">
	<text transform="matrix(0.9869 0 0 1 530.7957 217.7678)" class="st5 st1 st2">G</text>
</g>
<g id="ID000082">
	<text transform="matrix(0.9869 0 0 1 542.1228 217.7834)" class="st5 st1 st2">C</text>
</g>
<g id="ID000083">
	<text transform="matrix(0.9869 0 0 1 552.864 217.8059)" class="st5 st1 st2">G</text>
</g>
<g id="ID000084">
	<text transform="matrix(0.9869 0 0 1 564.1941 217.8284)" class="st5 st1 st2">U</text>
</g>
<g id="ID000085">
	<text transform="matrix(0.9869 0 0 1 577.0779 211.7249)" class="st5 st1 st2">C</text>
</g>
<g id="ID000096">
	<line class="st4" x1="506.4" y1="232" x2="506.4" y2="218.5"/>
</g>
<g id="ID000097">
	<line class="st4" x1="495.3" y1="231.9" x2="495.4" y2="218.5"/>
</g>
<g id="ID000098">
	<line class="st4" x1="484.3" y1="231.9" x2="484.3" y2="218.5"/>
</g>
<g id="ID000099">
	<line class="st4" x1="473.3" y1="231.9" x2="473.3" y2="218.5"/>
</g>
<g id="ID000100">
	<line class="st7" x1="423.8" y1="214.9" x2="467.4" y2="215"/>
</g>
<g id="ID000101">
	<polygon class="st6" points="441.9,211.6 443.7,213.3 445.6,213.9 447.4,214.1 451.1,215 447.4,215.8 445.6,216.1 443.7,216.6 
		441.9,218.3 	"/>
</g>
<g id="ID000103">
	<text transform="matrix(0.9869 0 0 1 434.031 268.1799)" class="st8 st1 st2">U</text>
</g>
<g id="ID000104">
	<line class="st4" x1="435.8" y1="272.7" x2="435.8" y2="280.2"/>
</g>
<g id="ID000105">
	<text transform="matrix(0.9869 0 0 1 431.8914 289.1594)" class="st1 st2">40</text>
</g>
<g id="ID000106">
	<text transform="matrix(0.9869 0 0 1 423.0056 262.5667)" class="st8 st1 st2">U</text>
</g>
<g id="ID000107">
	<text transform="matrix(0.9869 0 0 1 420.2761 248.5872)" class="st8 st1 st2">U</text>
</g>
<g id="ID000108">
	<text transform="matrix(0.9869 0 0 1 416.0056 240.2053)" class="st8 st1 st2">A</text>
</g>
<g id="ID000109">
	<text transform="matrix(0.9869 0 0 1 404.6716 240.1731)" class="st8 st1 st2">C</text>
</g>
<g id="ID000110">
	<text transform="matrix(0.9869 0 0 1 393.6365 240.1526)" class="st8 st1 st2">U</text>
</g>
<g id="ID000111">
	<text transform="matrix(0.9869 0 0 1 382.6028 240.1301)" class="st8 st1 st2">C</text>
</g>
<g id="ID000112">
	<text transform="matrix(0.9869 0 0 1 382.9426 217.7581)" class="st8 st1 st2">A</text>
</g>
<g id="ID000113">
	<text transform="matrix(0.9869 0 0 1 393.9763 217.7776)" class="st8 st1 st2">A</text>
</g>
<g id="ID000114">
	<text transform="matrix(0.9869 0 0 1 404.4187 217.8127)" class="st8 st1 st2">G</text>
</g>
<g id="ID000115">
	<text transform="matrix(0.9869 0 0 1 415.7527 217.8333)" class="st8 st1 st2">U</text>
</g>
<g id="ID000116">
	<line class="st4" x1="419.3" y1="232.8" x2="419.3" y2="219.4"/>
</g>
<g id="ID000117">
	<line class="st4" x1="408.3" y1="232.8" x2="408.3" y2="219.4"/>
</g>
<g id="ID000118">
	<line class="st4" x1="397.3" y1="232.8" x2="397.3" y2="219.3"/>
</g>
<g id="ID000120">
	<text transform="matrix(0.9869 0 0 1 341.0198 240.0422)" class="st8 st1 st2">C</text>
</g>
<g id="ID000121">
	<text transform="matrix(0.9869 0 0 1 329.6858 240.0286)" class="st8 st1 st2">G</text>
</g>
<g id="ID000122">
	<text transform="matrix(0.9869 0 0 1 319.2463 240.012)" class="st8 st1 st2">A</text>
</g>
<g id="ID000123">
	<text transform="matrix(0.9869 0 0 1 303.9084 203.5667)" class="st8 st1 st2">U</text>
</g>
<g id="ID000124">
	<text transform="matrix(0.9869 0 0 1 312.4045 207.2961)" class="st8 st1 st2">G</text>
</g>
<g id="ID000125">
	<text transform="matrix(0.9869 0 0 1 319.1946 217.6399)" class="st8 st1 st2">U</text>
</g>
<g id="ID000126">
	<text transform="matrix(0.9869 0 0 1 330.2278 217.6624)" class="st8 st1 st2">C</text>
</g>
<g id="ID000127">
	<line class="st4" x1="333.9" y1="207.3" x2="333.9" y2="199.8"/>
</g>
<g id="ID000128">
	<text transform="matrix(0.9869 0 0 1 326.0862 196.2004)" class="st1 st2">100</text>
</g>
<g id="ID000129">
	<text transform="matrix(0.9869 0 0 1 341.2688 217.6829)" class="st8 st1 st2">C</text>
</g>
<g id="ID000130">
	<line class="st4" x1="333.8" y1="232.6" x2="333.8" y2="219.2"/>
</g>
<g id="ID000131">
	<line class="st7" x1="318.3" y1="237.1" x2="291.3" y2="237"/>
</g>
<g id="ID000132">
	<polygon class="st6" points="308.5,240.4 306.7,238.7 304.8,238.2 303,237.9 299.3,237.1 303,236.2 304.8,235.9 306.7,235.4 
		308.5,233.7 	"/>
</g>
<g id="ID000133">
	<line class="st4" x1="322.8" y1="232.6" x2="322.8" y2="219.2"/>
</g>
<g id="ID000135">
	<text transform="matrix(0.9869 0 0 1 283.0842 239.926)" class="st8 st1 st2">U</text>
</g>
<g id="ID000136">
	<line class="st4" x1="286.9" y1="244.5" x2="286.9" y2="251.9"/>
</g>
<g id="ID000137">
	<text transform="matrix(0.9869 0 0 1 282.9768 260.9045)" class="st1 st2">50</text>
</g>
<g id="ID000138">
	<text transform="matrix(0.9869 0 0 1 271.7532 239.9133)" class="st8 st1 st2">G</text>
</g>
<g id="ID000139">
	<text transform="matrix(0.9869 0 0 1 261.3118 239.8958)" class="st8 st1 st2">A</text>
</g>
<g id="ID000140">
	<text transform="matrix(0.9869 0 0 1 249.9836 239.8635)" class="st8 st1 st2">U</text>
</g>
<g id="ID000141">
	<text transform="matrix(0.9869 0 0 1 241.2493 251.0315)" class="st9 st1 st2">A</text>
</g>
<g id="ID000142">
	<text transform="matrix(0.9869 0 0 1 241.0295 211.8909)" class="st9 st1 st2">C</text>
</g>
<g id="ID000143">
	<text transform="matrix(0.9869 0 0 1 250.135 217.5061)" class="st8 st1 st2">G</text>
</g>
<g id="ID000144">
	<text transform="matrix(0.9869 0 0 1 261.467 217.5237)" class="st8 st1 st2">U</text>
</g>
<g id="ID000145">
	<text transform="matrix(0.9869 0 0 1 272.5002 217.5442)" class="st8 st1 st2">C</text>
</g>
<g id="ID000146">
	<text transform="matrix(0.9869 0 0 1 283.8333 217.5559)" class="st8 st1 st2">A</text>
</g>
<g id="ID000147">
	<text transform="matrix(0.9869 0 0 1 293.4495 209.1975)" class="st8 st1 st2">C</text>
</g>
<g id="ID000148">
	<line class="st4" x1="286.9" y1="232.5" x2="286.9" y2="219.1"/>
</g>
<g id="ID000149">
	<line class="st4" x1="275.9" y1="232.5" x2="275.9" y2="219.1"/>
</g>
<g id="ID000150">
	<line class="st4" x1="264.8" y1="232.5" x2="264.9" y2="219.1"/>
</g>
<g id="ID000151">
	<polygon class="st6" points="253.8,223.5 253.7,223.5 253.5,223.6 253.4,223.6 253.3,223.6 253.1,223.6 253,223.7 252.9,223.7 
		252.7,223.8 252.6,223.9 252.5,224 252.4,224 252.3,224.2 252.2,224.3 252.1,224.4 252,224.5 251.9,224.6 251.9,224.7 251.8,224.8 
		251.7,225 251.7,225.1 251.7,225.2 251.6,225.4 251.6,225.5 251.6,225.7 251.6,225.8 251.6,225.9 251.6,226.1 251.6,226.2 
		251.7,226.4 251.7,226.5 251.8,226.6 251.8,226.8 251.9,226.9 252,227 252,227.1 252.1,227.2 252.2,227.3 252.3,227.4 252.4,227.5 
		252.6,227.6 252.7,227.7 252.8,227.7 252.9,227.8 253.1,227.9 253.2,227.9 253.3,228 253.4,228 253.6,228 253.7,228 253.9,228 
		254,228 254.2,228 254.3,228 254.4,227.9 254.6,227.9 254.7,227.8 254.8,227.8 254.9,227.7 255,227.6 255.2,227.5 255.3,227.4 
		255.4,227.3 255.5,227.2 255.6,227.1 255.6,227 255.7,226.9 255.8,226.8 255.8,226.6 255.9,226.5 255.9,226.4 256,226.2 256,226.1 
		256,225.9 256,225.8 256,225.7 256,225.5 256,225.4 255.9,225.2 255.9,225.1 255.9,225 255.8,224.8 255.7,224.7 255.7,224.6 
		255.6,224.5 255.5,224.4 255.4,224.3 255.3,224.2 255.2,224.1 255.1,224 255,223.9 254.9,223.8 254.8,223.7 254.6,223.7 
		254.5,223.6 254.4,223.6 254.2,223.6 254.1,223.6 254,223.5 	"/>
</g>
<g id="ID000153">
	<text transform="matrix(0.9869 0 0 1 227.1389 250.9944)" class="st9 st1 st2">C</text>
</g>
<g id="ID000154">
	<text transform="matrix(0.9869 0 0 1 214.2053 239.7952)" class="st9 st1 st2">G</text>
</g>
<g id="ID000155">
	<text transform="matrix(0.9869 0 0 1 203.7805 239.7727)" class="st9 st1 st2">G</text>
</g>
<g id="ID000156">
	<text transform="matrix(0.9869 0 0 1 192.5442 239.7532)" class="st9 st1 st2">G</text>
</g>
<g id="ID000157">
	<text transform="matrix(0.9869 0 0 1 181.304 240.5549)" class="st9 st1 st2">G</text>
</g>
<g id="ID000158">
	<text transform="matrix(0.9869 0 0 1 169.5813 211.7551)" class="st9 st1 st2">A</text>
</g>
<g id="ID000159">
	<text transform="matrix(0.9869 0 0 1 181.4456 217.3606)" class="st9 st1 st2">C</text>
</g>
<g id="ID000160">
	<text transform="matrix(0.9869 0 0 1 192.4797 217.386)" class="st9 st1 st2">U</text>
</g>
<g id="ID000161">
	<text transform="matrix(0.9869 0 0 1 203.1077 217.4084)" class="st9 st1 st2">C</text>
</g>
<g id="ID000162">
	<text transform="matrix(0.9869 0 0 1 214.344 217.4309)" class="st9 st1 st2">C</text>
</g>
<g id="ID000163">
	<text transform="matrix(0.9869 0 0 1 227.5139 211.8713)" class="st9 st1 st2">A</text>
</g>
<g id="ID000164">
	<line class="st4" x1="229" y1="201.5" x2="229" y2="194"/>
</g>
<g id="ID000165">
	<text transform="matrix(0.9869 0 0 1 225.1633 190.887)" class="st1 st2">90</text>
</g>
<g id="ID000166">
	<line class="st4" x1="217.9" y1="232.4" x2="217.9" y2="219"/>
</g>
<g id="ID000167">
	<line class="st4" x1="206.9" y1="232.4" x2="206.9" y2="219"/>
</g>
<g id="ID000168">
	<polygon class="st6" points="195.9,223.4 195.7,223.4 195.6,223.4 195.5,223.5 195.3,223.5 195.2,223.5 195.1,223.6 194.9,223.6 
		194.8,223.7 194.7,223.8 194.6,223.9 194.5,223.9 194.3,224 194.2,224.1 194.2,224.2 194.1,224.4 194,224.5 193.9,224.6 
		193.9,224.7 193.8,224.9 193.8,225 193.7,225.1 193.7,225.3 193.7,225.4 193.7,225.6 193.7,225.7 193.7,225.8 193.7,226 
		193.7,226.1 193.8,226.3 193.8,226.4 193.8,226.5 193.9,226.6 194,226.8 194,226.9 194.1,227 194.2,227.1 194.3,227.2 194.4,227.3 
		194.5,227.4 194.6,227.5 194.7,227.6 194.9,227.6 195,227.7 195.1,227.8 195.2,227.8 195.4,227.8 195.5,227.9 195.7,227.9 
		195.8,227.9 195.9,227.9 196.1,227.9 196.2,227.9 196.3,227.8 196.5,227.8 196.6,227.8 196.8,227.7 196.9,227.6 197,227.6 
		197.1,227.5 197.2,227.4 197.3,227.3 197.4,227.2 197.5,227.1 197.6,227 197.7,226.9 197.8,226.8 197.8,226.7 197.9,226.5 
		197.9,226.4 198,226.3 198,226.1 198.1,226 198.1,225.8 198.1,225.7 198.1,225.6 198.1,225.4 198.1,225.3 198,225.1 198,225 
		197.9,224.9 197.9,224.7 197.8,224.6 197.8,224.5 197.7,224.4 197.6,224.2 197.5,224.1 197.4,224 197.3,223.9 197.2,223.9 
		197.1,223.8 196.9,223.7 196.8,223.6 196.7,223.6 196.6,223.5 196.4,223.5 196.3,223.5 196.1,223.4 196,223.4 	"/>
</g>
<g id="ID000169">
	<line class="st7" x1="180.4" y1="236.8" x2="164.4" y2="236.8"/>
</g>
<g id="ID000170">
	<polygon class="st6" points="176.1,240.2 174.2,238.5 172.4,237.9 170.6,237.6 166.9,236.8 170.6,236 172.4,235.7 174.2,235.1 
		176.1,233.5 	"/>
</g>
<g id="ID000171">
	<line class="st4" x1="184.8" y1="232.3" x2="184.8" y2="218.9"/>
</g>
<g id="ID000173">
	<text transform="matrix(0.9869 0 0 1 157.0706 239.6877)" class="st9 st1 st2">A</text>
</g>
<g id="ID000174">
	<line class="st4" x1="160" y1="244.2" x2="159.9" y2="251.7"/>
</g>
<g id="ID000175">
	<text transform="matrix(0.9869 0 0 1 156.0618 260.6536)" class="st1 st2">60</text>
</g>
<g id="ID000176">
	<text transform="matrix(0.9869 0 0 1 146.2522 239.6604)" class="st9 st1 st2">G</text>
</g>
<g id="ID000177">
	<text transform="matrix(0.9869 0 0 1 136.1252 239.6311)" class="st9 st1 st2">C</text>
</g>
<g id="ID000178">
	<text transform="matrix(0.9869 0 0 1 124.7932 239.6174)" class="st9 st1 st2">G</text>
</g>
<g id="ID000179">
	<text transform="matrix(0.9869 0 0 1 114.0344 250.7659)" class="st9 st1 st2">U</text>
</g>
<g id="ID000180">
	<text transform="matrix(0.9869 0 0 1 125.136 217.2444)" class="st9 st1 st2">U</text>
</g>
<g id="ID000181">
	<text transform="matrix(0.9869 0 0 1 134.4514 217.2776)" class="st9 st1 st2">G</text>
</g>
<g id="ID000182">
	<text transform="matrix(0.9869 0 0 1 145.9895 217.2922)" class="st9 st1 st2">U</text>
</g>
<g id="ID000183">
	<text transform="matrix(0.9869 0 0 1 157.0227 217.3147)" class="st9 st1 st2">U</text>
</g>
<g id="ID000184">
	<line class="st4" x1="160" y1="232.3" x2="160" y2="218.9"/>
</g>
<g id="ID000185">
	<polygon class="st6" points="149,223.3 148.8,223.3 148.7,223.3 148.6,223.4 148.4,223.4 148.3,223.4 148.2,223.5 148,223.5 
		147.9,223.6 147.8,223.7 147.7,223.8 147.5,223.8 147.4,223.9 147.3,224 147.3,224.1 147.2,224.3 147.1,224.4 147,224.5 147,224.6 
		146.9,224.8 146.9,224.9 146.8,225 146.8,225.2 146.8,225.3 146.8,225.5 146.8,225.6 146.8,225.7 146.8,225.9 146.8,226 
		146.8,226.2 146.9,226.3 146.9,226.4 147,226.6 147.1,226.7 147.1,226.8 147.2,226.9 147.3,227 147.4,227.1 147.5,227.2 
		147.6,227.3 147.7,227.4 147.8,227.5 147.9,227.5 148.1,227.6 148.2,227.7 148.4,227.7 148.5,227.7 148.6,227.8 148.8,227.8 
		148.9,227.8 149,227.8 149.2,227.8 149.3,227.8 149.4,227.7 149.6,227.7 149.7,227.7 149.9,227.6 150,227.5 150.1,227.5 
		150.2,227.4 150.3,227.3 150.4,227.2 150.5,227.1 150.6,227 150.7,226.9 150.8,226.8 150.9,226.7 150.9,226.6 151,226.4 
		151.1,226.3 151.1,226.2 151.1,226 151.2,225.9 151.2,225.7 151.2,225.6 151.2,225.5 151.2,225.3 151.1,225.2 151.1,225 
		151.1,224.9 151,224.8 151,224.6 150.9,224.5 150.9,224.4 150.8,224.3 150.7,224.2 150.6,224.1 150.5,223.9 150.4,223.8 
		150.3,223.8 150.2,223.7 150,223.6 149.9,223.5 149.8,223.5 149.7,223.4 149.5,223.4 149.4,223.4 149.3,223.4 149.1,223.3 	"/>
</g>
<g id="ID000186">
	<line class="st4" x1="137.9" y1="232.2" x2="137.9" y2="218.8"/>
</g>
<g id="ID000187">
	<polygon class="st6" points="126.9,223.3 126.8,223.3 126.6,223.3 126.5,223.3 126.4,223.3 126.2,223.4 126.1,223.4 125.9,223.5 
		125.8,223.6 125.7,223.6 125.6,223.7 125.5,223.8 125.4,223.9 125.3,224 125.2,224.1 125.1,224.2 125,224.3 124.9,224.5 
		124.9,224.6 124.8,224.7 124.8,224.8 124.7,225 124.7,225.1 124.7,225.3 124.7,225.4 124.7,225.5 124.7,225.7 124.7,225.8 
		124.7,226 124.8,226.1 124.8,226.2 124.9,226.4 124.9,226.5 125,226.6 125.1,226.8 125.1,226.9 125.2,227 125.3,227.1 125.4,227.2 
		125.5,227.3 125.7,227.4 125.8,227.4 125.9,227.5 126,227.6 126.1,227.6 126.3,227.7 126.4,227.7 126.5,227.7 126.7,227.7 
		126.8,227.7 127,227.7 127.1,227.7 127.2,227.7 127.4,227.7 127.5,227.7 127.6,227.6 127.8,227.6 127.9,227.5 128,227.4 
		128.1,227.4 128.3,227.3 128.4,227.2 128.5,227.1 128.6,227 128.7,226.9 128.7,226.8 128.8,226.6 128.9,226.5 128.9,226.4 
		129,226.2 129,226.1 129.1,226 129.1,225.8 129.1,225.7 129.1,225.6 129.1,225.4 129.1,225.3 129.1,225.1 129,225 129,224.9 
		129,224.7 128.9,224.6 128.8,224.5 128.8,224.3 128.7,224.2 128.6,224.1 128.5,224 128.4,223.9 128.3,223.8 128.2,223.7 
		128.1,223.6 128,223.6 127.9,223.5 127.7,223.5 127.6,223.4 127.5,223.3 127.3,223.3 127.2,223.3 127,223.3 	"/>
</g>
<g id="ID000188">
	<line class="st7" x1="95.5" y1="214.3" x2="122.5" y2="214.3"/>
</g>
<g id="ID000189">
	<polygon class="st6" points="105.3,210.9 107.1,212.6 109,213.2 110.8,213.5 114.5,214.3 110.8,215.1 109,215.4 107.1,216 
		105.3,217.7 	"/>
</g>
<g id="ID000191">
	<text transform="matrix(0.9869 0 0 1 100.2395 250.7424)" class="st9 st1 st2">U</text>
</g>
<g id="ID000192">
	<text transform="matrix(0.9869 0 0 1 89.5256 239.5461)" class="st10 st1 st2">A</text>
</g>
<g id="ID000193">
	<text transform="matrix(0.9869 0 0 1 77.8928 239.5188)" class="st10 st1 st2">G</text>
</g>
<g id="ID000194">
	<text transform="matrix(0.9869 0 0 1 67.4407 245.0969)" class="st10 st1 st2">A</text>
</g>
<g id="ID000195">
	<text transform="matrix(0.9869 0 0 1 78.2356 217.1545)" class="st10 st1 st2">C</text>
</g>
<g id="ID000196">
	<text transform="matrix(0.9869 0 0 1 89.2688 217.1741)" class="st10 st1 st2">U</text>
</g>
<g id="ID000197">
	<line class="st4" x1="91.1" y1="206.8" x2="91.1" y2="199.4"/>
</g>
<g id="ID000198">
	<text transform="matrix(0.9869 0 0 1 87.2151 196.2004)" class="st1 st2">80</text>
</g>
<g id="ID000199">
	<line class="st4" x1="91" y1="232.2" x2="91" y2="218.7"/>
</g>
<g id="ID000200">
	<line class="st4" x1="80" y1="232.1" x2="80" y2="218.7"/>
</g>
<g id="ID000201">
	<line class="st7" x1="59.6" y1="214.2" x2="75.6" y2="214.2"/>
</g>
<g id="ID000202">
	<polygon class="st6" points="63.9,210.8 65.8,212.5 67.6,213.1 69.5,213.4 73.1,214.2 69.4,215.1 67.6,215.3 65.8,215.9 
		63.9,217.6 	"/>
</g>
<g id="ID000204">
	<text transform="matrix(0.9869 0 0 1 51.6458 239.4709)" class="st10 st1 st2">G</text>
</g>
<g id="ID000205">
	<text transform="matrix(0.9869 0 0 1 41.3157 239.4456)" class="st10 st1 st2">U</text>
</g>
<g id="ID000206">
	<line class="st4" x1="44.1" y1="244" x2="44.1" y2="251.4"/>
</g>
<g id="ID000207">
	<text transform="matrix(0.9869 0 0 1 40.1985 260.4143)" class="st1 st2">70</text>
</g>
<g id="ID000208">
	<text transform="matrix(0.9869 0 0 1 30.2805 239.4211)" class="st10 st1 st2">C</text>
</g>
<g id="ID000209">
	<text transform="matrix(0.9869 0 0 1 20.2502 244.9885)" class="st10 st1 st2">U</text>
</g>
<g id="ID000210">
	<text transform="matrix(0.9869 0 0 1 9.2366 233.7903)" class="st10 st1 st2">U</text>
</g>
<g id="ID000211">
	<text transform="matrix(0.9869 0 0 1 9.5608 219.802)" class="st10 st1 st2">A</text>
</g>
<g id="ID000212">
	<text transform="matrix(0.9869 0 0 1 20.3088 214.2415)" class="st10 st1 st2">U</text>
</g>
<g id="ID000213">
	<text transform="matrix(0.9869 0 0 1 30.0276 217.0637)" class="st10 st1 st2">G</text>
</g>
<g id="ID000214">
	<text transform="matrix(0.9869 0 0 1 41.4553 217.0706)" class="st10 st1 st2">A</text>
</g>
<g id="ID000215">
	<text transform="matrix(0.9869 0 0 1 52.3928 217.1067)" class="st10 st1 st2">C</text>
</g>
<g id="ID000216">
	<line class="st4" x1="55.2" y1="232.1" x2="55.2" y2="218.7"/>
</g>
<g id="ID000217">
	<line class="st4" x1="44.1" y1="232.1" x2="44.1" y2="218.6"/>
</g>
<g id="ID000218">
	<line class="st4" x1="33.1" y1="232" x2="33.1" y2="218.6"/>
</g>
<g id="ID000220">
	<text transform="matrix(0.9869 0 0 1 691.0242 208.4124)" class="st11 st1 st2">G</text>
</g>
<g id="ID000221">
	<text transform="matrix(0.9869 0 0 1 691.0457 197.2317)" class="st11 st1 st2">G</text>
</g>
<g id="ID000222">
	<text transform="matrix(0.9869 0 0 1 691.6619 186.0364)" class="st11 st1 st2">A</text>
</g>
<g id="ID000223">
	<text transform="matrix(0.9869 0 0 1 691.3865 174.865)" class="st11 st1 st2">U</text>
</g>
<g id="ID000224">
	<text transform="matrix(0.9869 0 0 1 691.4109 163.6814)" class="st11 st1 st2">C</text>
</g>
<g id="ID000225">
	<line class="st4" x1="690.4" y1="159.8" x2="683" y2="159.7"/>
</g>
<g id="ID000226">
	<text transform="matrix(0.9869 0 0 1 663.6482 163.1501)" class="st1 st2">130</text>
</g>
<g id="ID000227">
	<text transform="matrix(0.9869 0 0 1 691.4363 152.5007)" class="st11 st1 st2">C</text>
</g>
<g id="ID000228">
	<text transform="matrix(0.9869 0 0 1 691.4539 141.3191)" class="st11 st1 st2">U</text>
</g>
<g id="ID000229">
	<text transform="matrix(0.9869 0 0 1 690.5857 126.1169)" class="st11 st1 st2">G</text>
</g>
<g id="ID000230">
	<text transform="matrix(0.9869 0 0 1 690.908 114.9509)" class="st11 st1 st2">U</text>
</g>
<g id="ID000231">
	<text transform="matrix(0.9869 0 0 1 691.2263 103.7595)" class="st11 st1 st2">A</text>
</g>
<g id="ID000232">
	<text transform="matrix(0.9869 0 0 1 682.6765 92.571)" class="st11 st1 st2">C</text>
</g>
<g id="ID000233">
	<text transform="matrix(0.9869 0 0 1 677.4753 81.3718)" class="st11 st1 st2">A</text>
</g>
<g id="ID000234">
	<text transform="matrix(0.9869 0 0 1 674.4421 70.1892)" class="st11 st1 st2">U</text>
</g>
<g id="ID000235">
	<text transform="matrix(0.9869 0 0 1 674.7615 59.0037)" class="st11 st1 st2">A</text>
</g>
<g id="ID000236">
	<text transform="matrix(0.9869 0 0 1 677.2478 47.8142)" class="st11 st1 st2">U</text>
</g>
<g id="ID000237">
	<line class="st4" x1="671.7" y1="44.9" x2="664.3" y2="44.9"/>
</g>
<g id="ID000238">
	<text transform="matrix(0.9869 0 0 1 647.573 47.7742)" class="st1 st2">140</text>
</g>
<g id="ID000239">
	<text transform="matrix(0.9869 0 0 1 690.7556 39.4617)" class="st11 st1 st2">G</text>
</g>
<g id="ID000240">
	<text transform="matrix(0.9869 0 0 1 704.8601 36.6892)" class="st11 st1 st2">U</text>
</g>
<g id="ID000241">
	<text transform="matrix(0.9869 0 0 1 718.3376 42.3103)" class="st11 st1 st2">G</text>
</g>
<g id="ID000242">
	<text transform="matrix(0.9869 0 0 1 726.8845 56.321)" class="st11 st1 st2">C</text>
</g>
<g id="ID000243">
	<text transform="matrix(0.9869 0 0 1 726.5593 70.2849)" class="st11 st1 st2">G</text>
</g>
<g id="ID000244">
	<text transform="matrix(0.9869 0 0 1 726.8376 81.4802)" class="st11 st1 st2">U</text>
</g>
<g id="ID000245">
	<text transform="matrix(0.9869 0 0 1 724.0554 92.6541)" class="st11 st1 st2">C</text>
</g>
<g id="ID000246">
	<text transform="matrix(0.9869 0 0 1 712.9988 103.8142)" class="st11 st1 st2">U</text>
</g>
<g id="ID000247">
	<text transform="matrix(0.9869 0 0 1 713.2722 114.9832)" class="st11 st1 st2">A</text>
</g>
<g id="ID000248">
	<text transform="matrix(0.9869 0 0 1 712.9548 126.1746)" class="st11 st1 st2">C</text>
</g>
<g id="ID000251">
	<text transform="matrix(0.9869 0 0 1 723.196 134.3679)" class="st11 st1 st2">A</text>
</g>
<g id="ID000252">
	<text transform="matrix(0.9869 0 0 1 712.9578 142.1667)" class="st11 st1 st2">U</text>
</g>
<g id="ID000253">
	<text transform="matrix(0.9869 0 0 1 712.74 152.5007)" class="st11 st1 st2">G</text>
</g>
<g id="ID000254">
	<text transform="matrix(0.9869 0 0 1 712.9978 163.6814)" class="st11 st1 st2">G</text>
</g>
<g id="ID000255">
	<text transform="matrix(0.9869 0 0 1 713.4939 174.9958)" class="st11 st1 st2">A</text>
</g>
<g id="ID000256">
	<text transform="matrix(0.9869 0 0 1 712.9578 186.4163)" class="st11 st1 st2">U</text>
</g>
<g id="ID000257">
	<text transform="matrix(0.9869 0 0 1 712.4197 197.2317)" class="st11 st1 st2">C</text>
</g>
<g id="ID000258">
	<text transform="matrix(0.9869 0 0 1 712.9578 208.4124)" class="st11 st1 st2">C</text>
</g>
<g id="ID000259">
	<text transform="matrix(0.9869 0 0 1 723.9656 212.5442)" class="st11 st1 st2">U</text>
</g>
<g id="ID000260">
	<text transform="matrix(0.9869 0 0 1 735.5701 211.7249)" class="st11 st1 st2">C</text>
</g>
<g id="ID000261">
	<line class="st4" x1="738.9" y1="202.5" x2="738.9" y2="195.1"/>
</g>
<g id="ID000262">
	<text transform="matrix(0.9869 0 0 1 730.5281 187.2903)" class="st1 st2">160</text>
</g>
<g id="ID000263">
	<text transform="matrix(0.9869 0 0 1 746.0662 212.0471)" class="st0 st1 st2">A</text>
</g>
<g id="ID000278">
	<line class="st4" x1="699.3" y1="123.2" x2="712.6" y2="123.2"/>
</g>
<g id="ID000279">
	<line class="st4" x1="699.3" y1="112" x2="712.6" y2="112.1"/>
</g>
<g id="ID000280">
	<line class="st4" x1="699.4" y1="100.9" x2="712.6" y2="100.9"/>
</g>
<g id="ID000282">
	<line class="st7" x1="381.8" y1="237.2" x2="349.3" y2="237.2"/>
</g>
<g id="ID000283">
	<polygon class="st6" points="369.2,240.5 367.4,238.9 365.5,238.3 363.7,238 360,237.2 363.7,236.3 365.5,236.1 367.4,235.5 
		369.2,233.8 	"/>
</g>
<g id="ID000284">
	<line class="st7" x1="349.3" y1="214.8" x2="381.9" y2="214.9"/>
</g>
<g id="ID000285">
	<polygon class="st6" points="361.9,211.4 363.7,213.1 365.6,213.7 367.4,214 371.1,214.8 367.4,215.6 365.6,215.9 363.7,216.5 
		361.9,218.2 	"/>
</g>
<text transform="matrix(0.9869 0 0 1 752.9792 290.8665)" class="st1 st12">5</text>
<text transform="matrix(0.9869 0 0 1 766.5066 290.8645)" class="st1 st12">’</text>
<text transform="matrix(0.9869 0 0 1 763.1531 210.925)" class="st1 st12">3</text>
<text transform="matrix(0.9869 0 0 1 776.6833 210.925)" class="st1 st12">’</text>
<text transform="matrix(1 0 0 1 19.8894 26.9662)" class="st1 st13">PKC-10 aptamer</text>
<g id="ID000096_1_">
	<line class="st4" x1="557.2" y1="231.4" x2="557.2" y2="218"/>
</g>
<g id="ID000097_1_">
	<line class="st4" x1="546.1" y1="231.4" x2="546.1" y2="218"/>
</g>
<g id="ID000098_1_">
	<line class="st4" x1="535.1" y1="231.4" x2="535.1" y2="218"/>
</g>
<g id="ID000099_1_">
	<line class="st4" x1="524" y1="231.4" x2="524.1" y2="218"/>
</g>
<g id="ID000096_2_">
	<line class="st4" x1="567.9" y1="231.3" x2="568" y2="217.9"/>
</g>
<g id="ID000278_1_">
	<line class="st4" x1="699.7" y1="171.6" x2="712.9" y2="171.6"/>
</g>
<g id="ID000279_1_">
	<line class="st4" x1="699.7" y1="160.4" x2="713" y2="160.4"/>
</g>
<g id="ID000280_1_">
	<line class="st4" x1="699.7" y1="149.2" x2="713" y2="149.3"/>
</g>
<g id="ID000278_2_">
	<line class="st4" x1="699.3" y1="204.6" x2="712.5" y2="204.7"/>
</g>
<g id="ID000279_2_">
	<line class="st4" x1="699.3" y1="193.5" x2="712.6" y2="193.5"/>
</g>
<g id="ID000280_2_">
	<line class="st4" x1="699.3" y1="182.3" x2="712.6" y2="182.3"/>
</g>
<g id="ID000049_1_">
	<polygon class="st6" points="705.9,135.7 705.8,135.7 705.7,135.7 705.5,135.8 705.4,135.8 705.3,135.8 705.1,135.9 705,135.9 
		704.9,136 704.7,136.1 704.6,136.2 704.5,136.2 704.4,136.3 704.3,136.4 704.2,136.5 704.2,136.7 704.1,136.8 704,136.9 703.9,137 
		703.9,137.2 703.8,137.3 703.8,137.4 703.8,137.6 703.8,137.7 703.8,137.9 703.7,138 703.8,138.1 703.8,138.3 703.8,138.4 
		703.8,138.6 703.9,138.7 703.9,138.8 704,138.9 704,139.1 704.1,139.2 704.2,139.3 704.3,139.4 704.4,139.5 704.5,139.6 
		704.6,139.7 704.7,139.8 704.8,139.9 704.9,139.9 705.1,140 705.2,140.1 705.3,140.1 705.5,140.1 705.6,140.2 705.7,140.2 
		705.9,140.2 706,140.2 706.2,140.2 706.3,140.2 706.4,140.1 706.6,140.1 706.7,140.1 706.8,140 707,139.9 707.1,139.9 707.2,139.8 
		707.3,139.7 707.4,139.6 707.5,139.5 707.6,139.4 707.7,139.3 707.8,139.2 707.8,139.1 707.9,139 708,138.8 708,138.7 708.1,138.6 
		708.1,138.4 708.1,138.3 708.2,138.1 708.2,138 708.2,137.9 708.1,137.7 708.1,137.6 708.1,137.4 708.1,137.3 708,137.2 708,137 
		707.9,136.9 707.8,136.8 707.8,136.7 707.7,136.5 707.6,136.4 707.5,136.3 707.4,136.2 707.3,136.2 707.1,136.1 707,136 
		706.9,135.9 706.8,135.9 706.6,135.8 706.5,135.8 706.4,135.8 706.2,135.7 706.1,135.7 	"/>
</g>
</svg>
