<svg id="图层_1" data-name="图层 1" xmlns="http://www.w3.org/2000/svg" viewBox="0 0 400 400">
  <defs>
    <style>
      .cls-1, .cls-10, .cls-13, .cls-14, .cls-15, .cls-16, .cls-17, .cls-18, .cls-19, .cls-2, .cls-20, .cls-21, .cls-3, .cls-5, .cls-6, .cls-7 {
        isolation: isolate;
        font-size: 5.3px;
      }

      .cls-1, .cls-21 {
        fill: #999;
      }

      .cls-1, .cls-10, .cls-13, .cls-14, .cls-15, .cls-16, .cls-17, .cls-18, .cls-19, .cls-2, .cls-20, .cls-21, .cls-22, .cls-24, .cls-3, .cls-5, .cls-6, .cls-7 {
        font-family: ArialMT, Arial;
      }

      .cls-2, .cls-3 {
        fill: #f93;
      }

      .cls-13, .cls-14, .cls-16, .cls-19, .cls-21, .cls-3, .cls-7 {
        letter-spacing: -0.06em;
      }

      .cls-4, .cls-9 {
        fill: none;
      }

      .cls-12, .cls-4, .cls-8, .cls-9 {
        stroke: #000;
        stroke-miterlimit: 1.11;
      }

      .cls-4, .cls-8 {
        stroke-width: 0.14px;
      }

      .cls-12, .cls-6, .cls-7 {
        fill: #9cf;
      }

      .cls-12, .cls-9 {
        stroke-width: 0.36px;
      }

      .cls-10, .cls-13 {
        fill: #f39;
      }

      .cls-11 {
        letter-spacing: -0.07em;
      }

      .cls-14, .cls-15 {
        fill: #93f;
      }

      .cls-16, .cls-17 {
        fill: #f66;
      }

      .cls-18, .cls-19, .cls-20 {
        fill: #6c0;
      }

      .cls-20 {
        letter-spacing: -0.06em;
      }

      .cls-22 {
        font-size: 12px;
      }

      .cls-23 {
        letter-spacing: -0.04em;
      }

      .cls-24 {
        font-size: 20px;
      }
    </style>
  </defs>
  <g id="ID000002">
    <text class="cls-1" transform="translate(162.41 371.91)">G</text>
  </g>
  <g id="ID000003">
    <text class="cls-2" transform="translate(156.97 371.91)">G</text>
  </g>
  <g id="ID000004">
    <text class="cls-2" transform="translate(151.53 371.91)">G</text>
  </g>
  <g id="ID000005">
    <text class="cls-3" transform="translate(146.38 371.91)">A</text>
  </g>
  <g id="ID000006">
    <text class="cls-2" transform="translate(140.65 373.27)">G</text>
  </g>
  <g id="ID000007">
    <text class="cls-3" transform="translate(134.14 369.19)">A</text>
  </g>
  <g id="ID000008">
    <text class="cls-3" transform="translate(134.14 362.39)">A</text>
  </g>
  <g id="ID000009">
    <text class="cls-2" transform="translate(140.8 358.31)">U</text>
  </g>
  <g id="ID000010">
    <text class="cls-2" transform="translate(146.23 361.03)">U</text>
  </g>
  <g id="ID000011">
    <text class="cls-2" transform="translate(151.68 361.03)">C</text>
  </g>
  <g id="ID000012">
    <line class="cls-4" x1="153.59" y1="354.96" x2="153.59" y2="351.33"/>
  </g>
  <g id="ID000013">
    <text class="cls-5" transform="translate(150.64 349.97)">10</text>
  </g>
  <g id="ID000014">
    <text class="cls-2" transform="translate(157.12 361.03)">C</text>
  </g>
  <g id="ID000015">
    <text class="cls-2" transform="translate(162.41 361.03)">G</text>
  </g>
  <g id="ID000016">
    <text class="cls-3" transform="translate(168.14 361.03)">A</text>
  </g>
  <g id="ID000017">
    <text class="cls-2" transform="translate(173.44 361.03)">C</text>
  </g>
  <g id="ID000018">
    <text class="cls-2" transform="translate(178.88 361.03)">C</text>
  </g>
  <g id="ID000019">
    <line class="cls-4" x1="159.03" y1="367.29" x2="159.03" y2="360.76"/>
  </g>
  <g id="ID000020">
    <line class="cls-4" x1="153.59" y1="367.29" x2="153.59" y2="360.76"/>
  </g>
  <g id="ID000021">
    <line class="cls-4" x1="148.15" y1="367.29" x2="148.15" y2="360.76"/>
  </g>
  <g id="ID000023">
    <text class="cls-3" transform="translate(184.46 361.03)">A</text>
  </g>
  <g id="ID000024">
    <text class="cls-2" transform="translate(184.17 355.59)">G</text>
  </g>
  <g id="ID000025">
    <text class="cls-3" transform="translate(184.46 350.15)">A</text>
  </g>
  <g id="ID000026">
    <text class="cls-6" transform="translate(184.17 344.71)">G</text>
  </g>
  <g id="ID000027">
    <text class="cls-6" transform="translate(184.17 339.27)">G</text>
  </g>
  <g id="ID000028">
    <line class="cls-4" x1="182.61" y1="336.82" x2="178.98" y2="336.82"/>
  </g>
  <g id="ID000029">
    <text class="cls-5" transform="translate(173.08 339.27)">20</text>
  </g>
  <g id="ID000030">
    <text class="cls-6" transform="translate(184.32 333.83)">U</text>
  </g>
  <g id="ID000031">
    <text class="cls-6" transform="translate(184.32 328.39)">U</text>
  </g>
  <g id="ID000032">
    <text class="cls-6" transform="translate(184.17 322.95)">G</text>
  </g>
  <g id="ID000033">
    <text class="cls-6" transform="translate(184.32 317.51)">U</text>
  </g>
  <g id="ID000034">
    <text class="cls-6" transform="translate(184.32 312.07)">U</text>
  </g>
  <g id="ID000035">
    <text class="cls-7" transform="translate(184.46 306.63)">A</text>
  </g>
  <g id="ID000036">
    <text class="cls-7" transform="translate(184.46 301.19)">A</text>
  </g>
  <g id="ID000037">
    <text class="cls-7" transform="translate(200.79 301.19)">A</text>
  </g>
  <g id="ID000038">
    <text class="cls-6" transform="translate(195.2 306.63)">U</text>
  </g>
  <g id="ID000039">
    <text class="cls-7" transform="translate(195.35 312.07)">A</text>
  </g>
  <g id="ID000040">
    <text class="cls-6" transform="translate(195.05 317.51)">G</text>
  </g>
  <g id="ID000041">
    <line class="cls-4" x1="200.74" y1="315.06" x2="204.37" y2="315.06"/>
  </g>
  <g id="ID000042">
    <text class="cls-5" transform="translate(204.37 317.51)">120</text>
  </g>
  <g id="ID000043">
    <text class="cls-6" transform="translate(195.2 322.95)">C</text>
  </g>
  <g id="ID000044">
    <text class="cls-7" transform="translate(195.35 328.39)">A</text>
  </g>
  <g id="ID000045">
    <text class="cls-6" transform="translate(195.05 333.83)">G</text>
  </g>
  <g id="ID000046">
    <text class="cls-6" transform="translate(195.2 339.27)">U</text>
  </g>
  <g id="ID000047">
    <text class="cls-6" transform="translate(195.2 344.71)">C</text>
  </g>
  <g id="ID000048">
    <line class="cls-4" x1="188.41" y1="342.26" x2="194.94" y2="342.26"/>
  </g>
  <g id="ID000049">
    <polygon class="cls-8" points="192.76 336.82 192.76 336.75 192.75 336.68 192.74 336.62 192.73 336.55 192.71 336.48 192.68 336.42 192.66 336.35 192.62 336.29 192.59 336.23 192.55 336.18 192.51 336.12 192.46 336.07 192.41 336.02 192.36 335.98 192.3 335.94 192.25 335.9 192.19 335.86 192.13 335.83 192.06 335.81 192 335.78 191.93 335.76 191.86 335.75 191.79 335.74 191.72 335.74 191.66 335.73 191.59 335.74 191.52 335.75 191.45 335.76 191.38 335.77 191.32 335.79 191.25 335.82 191.19 335.85 191.13 335.88 191.07 335.92 191.01 335.96 190.96 336 190.91 336.05 190.86 336.1 190.82 336.15 190.78 336.2 190.74 336.26 190.71 336.32 190.68 336.39 190.65 336.45 190.63 336.51 190.61 336.58 190.6 336.65 190.59 336.72 190.59 336.79 190.59 336.86 190.59 336.93 190.6 336.99 190.61 337.06 190.63 337.13 190.65 337.19 190.68 337.26 190.71 337.32 190.74 337.38 190.78 337.44 190.82 337.49 190.86 337.55 190.91 337.6 190.96 337.64 191.01 337.69 191.07 337.73 191.13 337.76 191.19 337.8 191.25 337.83 191.32 337.85 191.38 337.87 191.45 337.89 191.52 337.9 191.59 337.91 191.66 337.91 191.72 337.91 191.79 337.9 191.86 337.89 191.93 337.88 192 337.86 192.06 337.84 192.13 337.81 192.19 337.78 192.25 337.75 192.3 337.71 192.36 337.67 192.41 337.62 192.46 337.57 192.51 337.52 192.55 337.47 192.59 337.41 192.62 337.35 192.66 337.29 192.68 337.23 192.71 337.16 192.73 337.1 192.74 337.03 192.75 336.96 192.76 336.89 192.76 336.82"/>
  </g>
  <g id="ID000050">
    <polygon class="cls-8" points="192.76 331.38 192.76 331.31 192.75 331.24 192.74 331.18 192.73 331.11 192.71 331.04 192.68 330.98 192.66 330.91 192.62 330.85 192.59 330.79 192.55 330.74 192.51 330.68 192.46 330.63 192.41 330.58 192.36 330.54 192.3 330.5 192.25 330.46 192.19 330.42 192.13 330.39 192.06 330.37 192 330.34 191.93 330.32 191.86 330.31 191.79 330.3 191.72 330.3 191.66 330.29 191.59 330.3 191.52 330.31 191.45 330.32 191.38 330.33 191.32 330.35 191.25 330.38 191.19 330.41 191.13 330.44 191.07 330.48 191.01 330.52 190.96 330.56 190.91 330.61 190.86 330.66 190.82 330.71 190.78 330.76 190.74 330.82 190.71 330.88 190.68 330.94 190.65 331.01 190.63 331.07 190.61 331.14 190.6 331.21 190.59 331.28 190.59 331.35 190.59 331.42 190.59 331.49 190.6 331.55 190.61 331.62 190.63 331.69 190.65 331.75 190.68 331.82 190.71 331.88 190.74 331.94 190.78 332 190.82 332.05 190.86 332.11 190.91 332.16 190.96 332.2 191.01 332.25 191.07 332.29 191.13 332.32 191.19 332.36 191.25 332.39 191.32 332.41 191.38 332.43 191.45 332.45 191.52 332.46 191.59 332.47 191.66 332.47 191.72 332.47 191.79 332.46 191.86 332.45 191.93 332.44 192 332.42 192.06 332.4 192.13 332.37 192.19 332.34 192.25 332.31 192.3 332.27 192.36 332.23 192.41 332.18 192.46 332.13 192.51 332.08 192.55 332.03 192.59 331.97 192.62 331.91 192.66 331.85 192.68 331.79 192.71 331.72 192.73 331.65 192.74 331.59 192.75 331.52 192.76 331.45 192.76 331.38"/>
  </g>
  <g id="ID000051">
    <line class="cls-4" x1="188.41" y1="325.94" x2="194.94" y2="325.94"/>
  </g>
  <g id="ID000052">
    <line class="cls-4" x1="188.41" y1="320.5" x2="194.94" y2="320.5"/>
  </g>
  <g id="ID000053">
    <polygon class="cls-8" points="192.76 315.06 192.76 314.99 192.75 314.92 192.74 314.86 192.73 314.79 192.71 314.72 192.68 314.66 192.66 314.59 192.62 314.53 192.59 314.47 192.55 314.42 192.51 314.36 192.46 314.31 192.41 314.26 192.36 314.22 192.3 314.17 192.25 314.14 192.19 314.1 192.13 314.07 192.06 314.04 192 314.02 191.93 314 191.86 313.99 191.79 313.98 191.72 313.97 191.66 313.97 191.59 313.98 191.52 313.98 191.45 314 191.38 314.01 191.32 314.03 191.25 314.06 191.19 314.09 191.13 314.12 191.07 314.15 191.01 314.19 190.96 314.24 190.91 314.29 190.86 314.33 190.82 314.39 190.78 314.44 190.74 314.5 190.71 314.56 190.68 314.62 190.65 314.69 190.63 314.75 190.61 314.82 190.6 314.89 190.59 314.96 190.59 315.03 190.59 315.1 190.59 315.16 190.6 315.23 190.61 315.3 190.63 315.37 190.65 315.43 190.68 315.5 190.71 315.56 190.74 315.62 190.78 315.68 190.82 315.73 190.86 315.79 190.91 315.84 190.96 315.88 191.01 315.93 191.07 315.97 191.13 316 191.19 316.04 191.25 316.06 191.32 316.09 191.38 316.11 191.45 316.13 191.52 316.14 191.59 316.14 191.66 316.15 191.72 316.15 191.79 316.14 191.86 316.13 191.93 316.12 192 316.1 192.06 316.08 192.13 316.05 192.19 316.02 192.25 315.99 192.3 315.95 192.36 315.9 192.41 315.86 192.46 315.81 192.51 315.76 192.55 315.7 192.59 315.65 192.62 315.59 192.66 315.53 192.68 315.46 192.71 315.4 192.73 315.33 192.74 315.27 192.75 315.2 192.76 315.13 192.76 315.06"/>
  </g>
  <g id="ID000054">
    <line class="cls-4" x1="188.41" y1="309.62" x2="194.94" y2="309.62"/>
  </g>
  <g id="ID000055">
    <line class="cls-4" x1="188.41" y1="304.18" x2="194.94" y2="304.18"/>
  </g>
  <g id="ID000056">
    <line class="cls-9" x1="186.23" y1="296.56" x2="186.23" y2="283.23"/>
  </g>
  <g id="ID000057">
    <polygon class="cls-8" points="184.6 291.71 185.42 290.81 185.69 289.9 185.82 288.99 186.23 287.18 186.64 288.99 186.78 289.9 187.05 290.81 187.86 291.71 184.6 291.71"/>
  </g>
  <g id="ID000059">
    <text class="cls-6" transform="translate(184.17 283.51)">G</text>
  </g>
  <g id="ID000060">
    <text class="cls-6" transform="translate(184.32 278.07)">U</text>
  </g>
  <g id="ID000061">
    <text class="cls-6" transform="translate(184.17 272.63)">G</text>
  </g>
  <g id="ID000062">
    <line class="cls-4" x1="182.61" y1="270.18" x2="178.98" y2="270.18"/>
  </g>
  <g id="ID000063">
    <text class="cls-5" transform="translate(173.08 272.63)">30</text>
  </g>
  <g id="ID000064">
    <text class="cls-6" transform="translate(184.32 267.19)">C</text>
  </g>
  <g id="ID000065">
    <text class="cls-6" transform="translate(184.17 261.74)">G</text>
  </g>
  <g id="ID000066">
    <text class="cls-7" transform="translate(184.46 256.31)">A</text>
  </g>
  <g id="ID000067">
    <text class="cls-6" transform="translate(184.17 250.86)">G</text>
  </g>
  <g id="ID000068">
    <text class="cls-6" transform="translate(184.32 245.42)">U</text>
  </g>
  <g id="ID000069">
    <text class="cls-6" transform="translate(184.17 239.98)">G</text>
  </g>
  <g id="ID000070">
    <text class="cls-10" transform="translate(178.88 237.26)">U</text>
  </g>
  <g id="ID000071">
    <text class="cls-10" transform="translate(174.65 231.82)">G</text>
  </g>
  <g id="ID000072">
    <text class="cls-10" transform="translate(170.72 227.74)">U</text>
  </g>
  <g id="ID000073">
    <text class="cls-6" transform="translate(195.2 239.98)">C</text>
  </g>
  <g id="ID000074">
    <text class="cls-7" transform="translate(195.35 245.42)">A</text>
  </g>
  <g id="ID000075">
    <text class="cls-6" transform="translate(195.2 250.86)">C</text>
  </g>
  <g id="ID000076">
    <text class="cls-6" transform="translate(195.2 256.31)">U</text>
  </g>
  <g id="ID000077">
    <text class="cls-6" transform="translate(195.2 261.74)">C</text>
  </g>
  <g id="ID000078">
    <line class="cls-4" x1="200.74" y1="259.3" x2="204.37" y2="259.3"/>
  </g>
  <g id="ID000079">
    <text class="cls-5" transform="translate(204.37 261.74)"><tspan class="cls-11">1</tspan><tspan x="2.55" y="0">10</tspan></text>
  </g>
  <g id="ID000080">
    <text class="cls-6" transform="translate(195.2 267.19)">C</text>
  </g>
  <g id="ID000081">
    <text class="cls-6" transform="translate(195.05 272.63)">G</text>
  </g>
  <g id="ID000082">
    <text class="cls-6" transform="translate(195.2 278.07)">C</text>
  </g>
  <g id="ID000083">
    <text class="cls-6" transform="translate(195.05 283.51)">G</text>
  </g>
  <g id="ID000084">
    <text class="cls-6" transform="translate(195.2 288.95)">U</text>
  </g>
  <g id="ID000085">
    <text class="cls-6" transform="translate(199.28 294.39)">C</text>
  </g>
  <g id="ID000086">
    <line class="cls-4" x1="188.18" y1="282.03" x2="195.17" y2="285.53"/>
  </g>
  <g id="ID000087">
    <polygon class="cls-8" points="192.65 284.26 192.68 284.2 192.7 284.14 192.72 284.07 192.74 284 192.75 283.94 192.76 283.87 192.76 283.8 192.76 283.73 192.75 283.66 192.75 283.59 192.73 283.52 192.71 283.46 192.69 283.39 192.66 283.33 192.63 283.27 192.6 283.21 192.56 283.15 192.52 283.1 192.47 283.04 192.43 282.99 192.38 282.95 192.32 282.9 192.26 282.87 192.21 282.83 192.14 282.8 192.08 282.77 192.01 282.75 191.95 282.73 191.88 282.71 191.81 282.7 191.75 282.69 191.68 282.69 191.61 282.69 191.54 282.7 191.47 282.71 191.4 282.72 191.34 282.74 191.27 282.77 191.21 282.79 191.15 282.82 191.09 282.86 191.03 282.9 190.98 282.94 190.92 282.99 190.88 283.04 190.83 283.09 190.79 283.14 190.75 283.2 190.72 283.26 190.69 283.32 190.66 283.39 190.63 283.45 190.62 283.52 190.6 283.59 190.59 283.65 190.59 283.72 190.59 283.79 190.59 283.86 190.59 283.93 190.61 284 190.62 284.06 190.64 284.13 190.67 284.19 190.7 284.26 190.73 284.32 190.76 284.38 190.8 284.43 190.85 284.49 190.9 284.54 190.94 284.59 191 284.63 191.05 284.67 191.11 284.71 191.17 284.74 191.23 284.77 191.3 284.8 191.36 284.82 191.43 284.84 191.5 284.85 191.56 284.86 191.63 284.87 191.7 284.87 191.77 284.86 191.84 284.85 191.91 284.84 191.98 284.82 192.04 284.8 192.11 284.78 192.17 284.75 192.23 284.71 192.29 284.68 192.34 284.64 192.4 284.59 192.44 284.54 192.49 284.49 192.54 284.44 192.58 284.38 192.61 284.33 192.65 284.26"/>
  </g>
  <g id="ID000088">
    <line class="cls-4" x1="188.18" y1="276.59" x2="195.17" y2="280.08"/>
  </g>
  <g id="ID000089">
    <polygon class="cls-8" points="192.65 278.82 192.68 278.76 192.7 278.7 192.72 278.63 192.74 278.56 192.75 278.5 192.76 278.43 192.76 278.36 192.76 278.29 192.75 278.22 192.75 278.15 192.73 278.08 192.71 278.02 192.69 277.95 192.66 277.89 192.63 277.83 192.6 277.77 192.56 277.71 192.52 277.65 192.47 277.6 192.43 277.55 192.38 277.51 192.32 277.46 192.26 277.42 192.21 277.39 192.14 277.36 192.08 277.33 192.01 277.31 191.95 277.29 191.88 277.27 191.81 277.26 191.75 277.25 191.68 277.25 191.61 277.25 191.54 277.26 191.47 277.27 191.4 277.28 191.34 277.3 191.27 277.33 191.21 277.35 191.15 277.38 191.09 277.42 191.03 277.46 190.98 277.5 190.92 277.55 190.88 277.6 190.83 277.65 190.79 277.7 190.75 277.76 190.72 277.82 190.69 277.88 190.66 277.95 190.63 278.01 190.62 278.08 190.6 278.14 190.59 278.21 190.59 278.28 190.59 278.35 190.59 278.42 190.59 278.49 190.61 278.56 190.62 278.62 190.64 278.69 190.67 278.75 190.7 278.82 190.73 278.88 190.76 278.94 190.8 278.99 190.85 279.05 190.9 279.1 190.94 279.15 191 279.19 191.05 279.23 191.11 279.27 191.17 279.3 191.23 279.33 191.3 279.36 191.36 279.38 191.43 279.4 191.5 279.41 191.56 279.42 191.63 279.43 191.7 279.43 191.77 279.42 191.84 279.41 191.91 279.4 191.98 279.38 192.04 279.36 192.11 279.34 192.17 279.31 192.23 279.27 192.29 279.24 192.34 279.2 192.4 279.15 192.44 279.1 192.49 279.05 192.54 279 192.58 278.94 192.61 278.88 192.65 278.82"/>
  </g>
  <g id="ID000090">
    <line class="cls-4" x1="188.18" y1="271.15" x2="195.17" y2="274.64"/>
  </g>
  <g id="ID000091">
    <polygon class="cls-8" points="192.65 273.38 192.68 273.32 192.7 273.26 192.72 273.19 192.74 273.12 192.75 273.06 192.76 272.99 192.76 272.92 192.76 272.85 192.75 272.78 192.75 272.71 192.73 272.64 192.71 272.58 192.69 272.51 192.66 272.45 192.63 272.39 192.6 272.33 192.56 272.27 192.52 272.21 192.47 272.16 192.43 272.11 192.38 272.07 192.32 272.02 192.26 271.98 192.21 271.95 192.14 271.92 192.08 271.89 192.01 271.87 191.95 271.85 191.88 271.83 191.81 271.82 191.75 271.81 191.68 271.81 191.61 271.81 191.54 271.82 191.47 271.83 191.4 271.84 191.34 271.86 191.27 271.89 191.21 271.91 191.15 271.94 191.09 271.98 191.03 272.02 190.98 272.06 190.92 272.11 190.88 272.16 190.83 272.21 190.79 272.26 190.75 272.32 190.72 272.38 190.69 272.44 190.66 272.5 190.63 272.57 190.62 272.64 190.6 272.7 190.59 272.77 190.59 272.84 190.59 272.91 190.59 272.98 190.59 273.05 190.61 273.12 190.62 273.18 190.64 273.25 190.67 273.31 190.7 273.38 190.73 273.44 190.76 273.5 190.8 273.55 190.85 273.61 190.9 273.66 190.94 273.71 191 273.75 191.05 273.79 191.11 273.83 191.17 273.86 191.23 273.89 191.3 273.92 191.36 273.94 191.43 273.96 191.5 273.97 191.56 273.98 191.63 273.99 191.7 273.99 191.77 273.98 191.84 273.97 191.91 273.96 191.98 273.94 192.04 273.92 192.11 273.9 192.17 273.87 192.23 273.83 192.29 273.8 192.34 273.75 192.4 273.71 192.44 273.66 192.49 273.61 192.54 273.56 192.58 273.5 192.61 273.44 192.65 273.38"/>
  </g>
  <g id="ID000092">
    <line class="cls-4" x1="188.18" y1="265.71" x2="195.17" y2="269.2"/>
  </g>
  <g id="ID000093">
    <polygon class="cls-8" points="192.65 267.94 192.68 267.88 192.7 267.82 192.72 267.75 192.74 267.68 192.75 267.62 192.76 267.55 192.76 267.48 192.76 267.41 192.75 267.34 192.75 267.27 192.73 267.2 192.71 267.14 192.69 267.07 192.66 267.01 192.63 266.95 192.6 266.89 192.56 266.83 192.52 266.77 192.47 266.72 192.43 266.67 192.38 266.63 192.32 266.58 192.26 266.54 192.21 266.51 192.14 266.48 192.08 266.45 192.01 266.43 191.95 266.4 191.88 266.39 191.81 266.38 191.75 266.37 191.68 266.37 191.61 266.37 191.54 266.38 191.47 266.39 191.4 266.4 191.34 266.42 191.27 266.44 191.21 266.47 191.15 266.5 191.09 266.54 191.03 266.58 190.98 266.62 190.92 266.67 190.88 266.72 190.83 266.77 190.79 266.82 190.75 266.88 190.72 266.94 190.69 267 190.66 267.06 190.63 267.13 190.62 267.2 190.6 267.26 190.59 267.33 190.59 267.4 190.59 267.47 190.59 267.54 190.59 267.61 190.61 267.68 190.62 267.74 190.64 267.81 190.67 267.87 190.7 267.94 190.73 268 190.76 268.06 190.8 268.11 190.85 268.17 190.9 268.22 190.94 268.27 191 268.31 191.05 268.35 191.11 268.39 191.17 268.42 191.23 268.45 191.3 268.48 191.36 268.5 191.43 268.52 191.5 268.53 191.56 268.54 191.63 268.54 191.7 268.54 191.77 268.54 191.84 268.53 191.91 268.52 191.98 268.5 192.04 268.48 192.11 268.45 192.17 268.43 192.23 268.39 192.29 268.36 192.34 268.31 192.4 268.27 192.44 268.22 192.49 268.17 192.54 268.12 192.58 268.06 192.61 268 192.65 267.94"/>
  </g>
  <g id="ID000094">
    <line class="cls-4" x1="188.18" y1="260.27" x2="195.17" y2="263.76"/>
  </g>
  <g id="ID000095">
    <polygon class="cls-8" points="192.65 262.5 192.68 262.44 192.7 262.38 192.72 262.31 192.74 262.24 192.75 262.18 192.76 262.11 192.76 262.04 192.76 261.97 192.75 261.9 192.75 261.83 192.73 261.76 192.71 261.7 192.69 261.63 192.66 261.57 192.63 261.51 192.6 261.45 192.56 261.39 192.52 261.33 192.47 261.28 192.43 261.23 192.38 261.19 192.32 261.14 192.26 261.1 192.21 261.07 192.14 261.04 192.08 261.01 192.01 260.98 191.95 260.96 191.88 260.95 191.81 260.94 191.75 260.93 191.68 260.93 191.61 260.93 191.54 260.94 191.47 260.95 191.4 260.96 191.34 260.98 191.27 261 191.21 261.03 191.15 261.06 191.09 261.1 191.03 261.14 190.98 261.18 190.92 261.23 190.88 261.27 190.83 261.33 190.79 261.38 190.75 261.44 190.72 261.5 190.69 261.56 190.66 261.62 190.63 261.69 190.62 261.76 190.6 261.82 190.59 261.89 190.59 261.96 190.59 262.03 190.59 262.1 190.59 262.17 190.61 262.24 190.62 262.3 190.64 262.37 190.67 262.43 190.7 262.5 190.73 262.56 190.76 262.62 190.8 262.67 190.85 262.73 190.9 262.78 190.94 262.82 191 262.87 191.05 262.91 191.11 262.95 191.17 262.98 191.23 263.01 191.3 263.04 191.36 263.06 191.43 263.08 191.5 263.09 191.56 263.1 191.63 263.1 191.7 263.1 191.77 263.1 191.84 263.09 191.91 263.08 191.98 263.06 192.04 263.04 192.11 263.01 192.17 262.99 192.23 262.95 192.29 262.92 192.34 262.87 192.4 262.83 192.44 262.78 192.49 262.73 192.54 262.68 192.58 262.62 192.61 262.56 192.65 262.5"/>
  </g>
  <g id="ID000096">
    <line class="cls-4" x1="188.41" y1="253.86" x2="194.94" y2="253.86"/>
  </g>
  <g id="ID000097">
    <line class="cls-4" x1="188.41" y1="248.42" x2="194.94" y2="248.42"/>
  </g>
  <g id="ID000098">
    <line class="cls-4" x1="188.41" y1="242.98" x2="194.94" y2="242.98"/>
  </g>
  <g id="ID000099">
    <line class="cls-4" x1="188.41" y1="237.53" x2="194.94" y2="237.53"/>
  </g>
  <g id="ID000100">
    <line class="cls-12" x1="197.11" y1="213.87" x2="197.11" y2="235.36"/>
  </g>
  <g id="ID000101">
    <polygon class="cls-8" points="198.75 222.8 197.93 223.71 197.66 224.61 197.52 225.52 197.11 227.33 196.71 225.52 196.57 224.61 196.3 223.71 195.48 222.8 198.75 222.8"/>
  </g>
  <g id="ID000103">
    <text class="cls-10" transform="translate(170.72 222.3)">U</text>
  </g>
  <g id="ID000104">
    <line class="cls-4" x1="169" y1="219.85" x2="165.38" y2="219.85"/>
  </g>
  <g id="ID000105">
    <text class="cls-5" transform="translate(159.48 222.3)">40</text>
  </g>
  <g id="ID000106">
    <text class="cls-10" transform="translate(173.44 216.86)">U</text>
  </g>
  <g id="ID000107">
    <text class="cls-10" transform="translate(180.24 215.5)">U</text>
  </g>
  <g id="ID000108">
    <text class="cls-13" transform="translate(184.46 214.14)">A</text>
  </g>
  <g id="ID000109">
    <text class="cls-10" transform="translate(184.32 208.7)">C</text>
  </g>
  <g id="ID000110">
    <text class="cls-10" transform="translate(184.32 203.26)">U</text>
  </g>
  <g id="ID000111">
    <text class="cls-10" transform="translate(184.32 197.82)">C</text>
  </g>
  <g id="ID000112">
    <text class="cls-13" transform="translate(195.35 197.82)">A</text>
  </g>
  <g id="ID000113">
    <text class="cls-13" transform="translate(195.35 203.26)">A</text>
  </g>
  <g id="ID000114">
    <text class="cls-10" transform="translate(195.05 208.7)">G</text>
  </g>
  <g id="ID000115">
    <text class="cls-10" transform="translate(195.2 214.14)">U</text>
  </g>
  <g id="ID000116">
    <line class="cls-4" x1="188.41" y1="211.69" x2="194.94" y2="211.69"/>
  </g>
  <g id="ID000117">
    <line class="cls-4" x1="188.41" y1="206.25" x2="194.94" y2="206.25"/>
  </g>
  <g id="ID000118">
    <line class="cls-4" x1="188.41" y1="200.81" x2="194.94" y2="200.81"/>
  </g>
  <g id="ID000120">
    <text class="cls-10" transform="translate(184.32 177.42)">C</text>
  </g>
  <g id="ID000121">
    <text class="cls-10" transform="translate(184.17 171.98)">G</text>
  </g>
  <g id="ID000122">
    <text class="cls-13" transform="translate(184.46 166.54)">A</text>
  </g>
  <g id="ID000123">
    <text class="cls-10" transform="translate(202 158.38)">U</text>
  </g>
  <g id="ID000124">
    <text class="cls-10" transform="translate(199.13 163.82)">G</text>
  </g>
  <g id="ID000125">
    <text class="cls-10" transform="translate(195.2 166.54)">U</text>
  </g>
  <g id="ID000126">
    <text class="cls-10" transform="translate(195.2 171.98)">C</text>
  </g>
  <g id="ID000127">
    <line class="cls-4" x1="200.74" y1="169.53" x2="204.37" y2="169.53"/>
  </g>
  <g id="ID000128">
    <text class="cls-5" transform="translate(204.37 171.98)">100</text>
  </g>
  <g id="ID000129">
    <text class="cls-10" transform="translate(195.2 177.42)">C</text>
  </g>
  <g id="ID000130">
    <line class="cls-4" x1="188.41" y1="169.53" x2="194.94" y2="169.53"/>
  </g>
  <g id="ID000131">
    <line class="cls-9" x1="186.23" y1="161.91" x2="186.23" y2="148.58"/>
  </g>
  <g id="ID000132">
    <polygon class="cls-8" points="184.6 157.06 185.42 156.16 185.69 155.25 185.82 154.34 186.23 152.53 186.64 154.34 186.78 155.25 187.05 156.16 187.86 157.06 184.6 157.06"/>
  </g>
  <g id="ID000133">
    <line class="cls-4" x1="188.41" y1="164.09" x2="194.94" y2="164.09"/>
  </g>
  <g id="ID000135">
    <text class="cls-10" transform="translate(184.32 148.86)">U</text>
  </g>
  <g id="ID000136">
    <line class="cls-4" x1="182.61" y1="146.41" x2="178.98" y2="146.41"/>
  </g>
  <g id="ID000137">
    <text class="cls-5" transform="translate(173.08 148.86)">50</text>
  </g>
  <g id="ID000138">
    <text class="cls-10" transform="translate(184.17 143.42)">G</text>
  </g>
  <g id="ID000139">
    <text class="cls-13" transform="translate(184.46 137.98)">A</text>
  </g>
  <g id="ID000140">
    <text class="cls-10" transform="translate(184.32 132.54)">U</text>
  </g>
  <g id="ID000141">
    <text class="cls-14" transform="translate(179.02 127.1)">A</text>
  </g>
  <g id="ID000142">
    <text class="cls-15" transform="translate(197.92 127.1)">C</text>
  </g>
  <g id="ID000143">
    <text class="cls-10" transform="translate(195.05 132.54)">G</text>
  </g>
  <g id="ID000144">
    <text class="cls-10" transform="translate(195.2 137.98)">U</text>
  </g>
  <g id="ID000145">
    <text class="cls-10" transform="translate(195.2 143.42)">C</text>
  </g>
  <g id="ID000146">
    <text class="cls-13" transform="translate(195.35 148.86)">A</text>
  </g>
  <g id="ID000147">
    <text class="cls-10" transform="translate(199.28 152.94)">C</text>
  </g>
  <g id="ID000148">
    <line class="cls-4" x1="188.41" y1="146.41" x2="194.94" y2="146.41"/>
  </g>
  <g id="ID000149">
    <line class="cls-4" x1="188.41" y1="140.97" x2="194.94" y2="140.97"/>
  </g>
  <g id="ID000150">
    <line class="cls-4" x1="188.41" y1="135.53" x2="194.94" y2="135.53"/>
  </g>
  <g id="ID000151">
    <polygon class="cls-8" points="192.76 130.09 192.76 130.02 192.75 129.95 192.74 129.88 192.73 129.81 192.71 129.75 192.68 129.68 192.66 129.62 192.62 129.56 192.59 129.5 192.55 129.44 192.51 129.39 192.46 129.34 192.41 129.29 192.36 129.24 192.3 129.2 192.25 129.16 192.19 129.13 192.13 129.1 192.06 129.07 192 129.05 191.93 129.03 191.86 129.01 191.79 129 191.72 129 191.66 129 191.59 129 191.52 129.01 191.45 129.02 191.38 129.04 191.32 129.06 191.25 129.08 191.19 129.11 191.13 129.14 191.07 129.18 191.01 129.22 190.96 129.26 190.91 129.31 190.86 129.36 190.82 129.41 190.78 129.47 190.74 129.53 190.71 129.59 190.68 129.65 190.65 129.72 190.63 129.78 190.61 129.85 190.6 129.91 190.59 129.98 190.59 130.05 190.59 130.12 190.59 130.19 190.6 130.26 190.61 130.33 190.63 130.39 190.65 130.46 190.68 130.52 190.71 130.59 190.74 130.65 190.78 130.7 190.82 130.76 190.86 130.81 190.91 130.86 190.96 130.91 191.01 130.95 191.07 130.99 191.13 131.03 191.19 131.06 191.25 131.09 191.32 131.12 191.38 131.13 191.45 131.15 191.52 131.16 191.59 131.17 191.66 131.18 191.72 131.17 191.79 131.17 191.86 131.16 191.93 131.14 192 131.13 192.06 131.1 192.13 131.08 192.19 131.04 192.25 131.01 192.3 130.97 192.36 130.93 192.41 130.89 192.46 130.84 192.51 130.79 192.55 130.73 192.59 130.68 192.62 130.62 192.66 130.56 192.68 130.49 192.71 130.43 192.73 130.36 192.74 130.29 192.75 130.22 192.76 130.16 192.76 130.09"/>
  </g>
  <g id="ID000153">
    <text class="cls-15" transform="translate(178.88 120.29)">C</text>
  </g>
  <g id="ID000154">
    <text class="cls-15" transform="translate(184.17 114.85)">G</text>
  </g>
  <g id="ID000155">
    <text class="cls-15" transform="translate(184.17 109.41)">G</text>
  </g>
  <g id="ID000156">
    <text class="cls-15" transform="translate(184.17 103.97)">G</text>
  </g>
  <g id="ID000157">
    <text class="cls-15" transform="translate(184.17 98.53)">G</text>
  </g>
  <g id="ID000158">
    <text class="cls-14" transform="translate(198.06 91.73)">A</text>
  </g>
  <g id="ID000159">
    <text class="cls-15" transform="translate(195.2 98.53)">C</text>
  </g>
  <g id="ID000160">
    <text class="cls-15" transform="translate(195.2 103.97)">U</text>
  </g>
  <g id="ID000161">
    <text class="cls-15" transform="translate(195.2 109.41)">C</text>
  </g>
  <g id="ID000162">
    <text class="cls-15" transform="translate(195.2 114.85)">C</text>
  </g>
  <g id="ID000163">
    <text class="cls-14" transform="translate(198.06 120.29)">A</text>
  </g>
  <g id="ID000164">
    <line class="cls-4" x1="203.46" y1="117.85" x2="207.09" y2="117.85"/>
  </g>
  <g id="ID000165">
    <text class="cls-5" transform="translate(207.09 120.29)">90</text>
  </g>
  <g id="ID000166">
    <line class="cls-4" x1="188.41" y1="112.4" x2="194.94" y2="112.4"/>
  </g>
  <g id="ID000167">
    <line class="cls-4" x1="188.41" y1="106.96" x2="194.94" y2="106.96"/>
  </g>
  <g id="ID000168">
    <polygon class="cls-8" points="192.76 101.53 192.76 101.45 192.75 101.39 192.74 101.32 192.73 101.25 192.71 101.19 192.68 101.12 192.66 101.06 192.62 101 192.59 100.94 192.55 100.88 192.51 100.83 192.46 100.77 192.41 100.72 192.36 100.68 192.3 100.64 192.25 100.6 192.19 100.56 192.13 100.53 192.06 100.51 192 100.48 191.93 100.47 191.86 100.45 191.79 100.44 191.72 100.44 191.66 100.44 191.59 100.44 191.52 100.45 191.45 100.46 191.38 100.48 191.32 100.5 191.25 100.52 191.19 100.55 191.13 100.58 191.07 100.62 191.01 100.66 190.96 100.7 190.91 100.75 190.86 100.8 190.82 100.85 190.78 100.91 190.74 100.97 190.71 101.03 190.68 101.09 190.65 101.15 190.63 101.22 190.61 101.28 190.6 101.35 190.59 101.42 190.59 101.49 190.59 101.56 190.59 101.63 190.6 101.7 190.61 101.76 190.63 101.83 190.65 101.9 190.68 101.96 190.71 102.02 190.74 102.08 190.78 102.14 190.82 102.2 190.86 102.25 190.91 102.3 190.96 102.35 191.01 102.39 191.07 102.43 191.13 102.47 191.19 102.5 191.25 102.53 191.32 102.55 191.38 102.57 191.45 102.59 191.52 102.6 191.59 102.61 191.66 102.61 191.72 102.61 191.79 102.61 191.86 102.6 191.93 102.58 192 102.56 192.06 102.54 192.13 102.51 192.19 102.48 192.25 102.45 192.3 102.41 192.36 102.37 192.41 102.32 192.46 102.28 192.51 102.22 192.55 102.17 192.59 102.11 192.62 102.05 192.66 101.99 192.68 101.93 192.71 101.86 192.73 101.8 192.74 101.73 192.75 101.66 192.76 101.59 192.76 101.53"/>
  </g>
  <g id="ID000169">
    <line class="cls-9" x1="186.23" y1="93.91" x2="186.23" y2="86.02"/>
  </g>
  <g id="ID000170">
    <polygon class="cls-8" points="184.6 91.78 185.42 90.87 185.69 89.96 185.82 89.06 186.23 87.24 186.64 89.06 186.78 89.96 187.05 90.87 187.86 91.78 184.6 91.78"/>
  </g>
  <g id="ID000171">
    <line class="cls-4" x1="188.41" y1="96.08" x2="194.94" y2="96.08"/>
  </g>
  <g id="ID000173">
    <text class="cls-14" transform="translate(184.46 86.29)">A</text>
  </g>
  <g id="ID000174">
    <line class="cls-4" x1="182.61" y1="83.84" x2="178.98" y2="83.84"/>
  </g>
  <g id="ID000175">
    <text class="cls-5" transform="translate(173.08 86.29)">60</text>
  </g>
  <g id="ID000176">
    <text class="cls-15" transform="translate(184.17 80.85)">G</text>
  </g>
  <g id="ID000177">
    <text class="cls-15" transform="translate(184.32 75.41)">C</text>
  </g>
  <g id="ID000178">
    <text class="cls-15" transform="translate(184.17 69.97)">G</text>
  </g>
  <g id="ID000179">
    <text class="cls-15" transform="translate(178.88 64.53)">U</text>
  </g>
  <g id="ID000180">
    <text class="cls-15" transform="translate(195.2 69.97)">U</text>
  </g>
  <g id="ID000181">
    <text class="cls-15" transform="translate(195.05 75.41)">G</text>
  </g>
  <g id="ID000182">
    <text class="cls-15" transform="translate(195.2 80.85)">U</text>
  </g>
  <g id="ID000183">
    <text class="cls-15" transform="translate(195.2 86.29)">U</text>
  </g>
  <g id="ID000184">
    <line class="cls-4" x1="188.41" y1="83.84" x2="194.94" y2="83.84"/>
  </g>
  <g id="ID000185">
    <polygon class="cls-8" points="192.76 78.4 192.76 78.33 192.75 78.27 192.74 78.2 192.73 78.13 192.71 78.06 192.68 78 192.66 77.94 192.62 77.87 192.59 77.81 192.55 77.76 192.51 77.7 192.46 77.65 192.41 77.6 192.36 77.56 192.3 77.52 192.25 77.48 192.19 77.44 192.13 77.41 192.06 77.39 192 77.36 191.93 77.34 191.86 77.33 191.79 77.32 191.72 77.32 191.66 77.31 191.59 77.32 191.52 77.33 191.45 77.34 191.38 77.35 191.32 77.38 191.25 77.4 191.19 77.43 191.13 77.46 191.07 77.5 191.01 77.54 190.96 77.58 190.91 77.63 190.86 77.68 190.82 77.73 190.78 77.79 190.74 77.84 190.71 77.9 190.68 77.97 190.65 78.03 190.63 78.1 190.61 78.16 190.6 78.23 190.59 78.3 190.59 78.37 190.59 78.44 190.59 78.51 190.6 78.58 190.61 78.64 190.63 78.71 190.65 78.78 190.68 78.84 190.71 78.9 190.74 78.96 190.78 79.02 190.82 79.08 190.86 79.13 190.91 79.18 190.96 79.22 191.01 79.27 191.07 79.31 191.13 79.34 191.19 79.38 191.25 79.41 191.32 79.43 191.38 79.45 191.45 79.47 191.52 79.48 191.59 79.49 191.66 79.49 191.72 79.49 191.79 79.48 191.86 79.47 191.93 79.46 192 79.44 192.06 79.42 192.13 79.39 192.19 79.36 192.25 79.33 192.3 79.29 192.36 79.25 192.41 79.2 192.46 79.15 192.51 79.1 192.55 79.05 192.59 78.99 192.62 78.93 192.66 78.87 192.68 78.81 192.71 78.74 192.73 78.68 192.74 78.61 192.75 78.54 192.76 78.47 192.76 78.4"/>
  </g>
  <g id="ID000186">
    <line class="cls-4" x1="188.41" y1="72.96" x2="194.94" y2="72.96"/>
  </g>
  <g id="ID000187">
    <polygon class="cls-8" points="192.76 67.52 192.76 67.45 192.75 67.38 192.74 67.32 192.73 67.25 192.71 67.18 192.68 67.12 192.66 67.05 192.62 66.99 192.59 66.93 192.55 66.88 192.51 66.82 192.46 66.77 192.41 66.72 192.36 66.68 192.3 66.64 192.25 66.6 192.19 66.56 192.13 66.53 192.06 66.5 192 66.48 191.93 66.46 191.86 66.45 191.79 66.44 191.72 66.44 191.66 66.43 191.59 66.44 191.52 66.44 191.45 66.46 191.38 66.47 191.32 66.49 191.25 66.52 191.19 66.55 191.13 66.58 191.07 66.62 191.01 66.66 190.96 66.7 190.91 66.75 190.86 66.8 190.82 66.85 190.78 66.91 190.74 66.96 190.71 67.02 190.68 67.09 190.65 67.15 190.63 67.22 190.61 67.28 190.6 67.35 190.59 67.42 190.59 67.49 190.59 67.56 190.59 67.63 190.6 67.69 190.61 67.76 190.63 67.83 190.65 67.89 190.68 67.96 190.71 68.02 190.74 68.08 190.78 68.14 190.82 68.19 190.86 68.25 190.91 68.3 190.96 68.34 191.01 68.39 191.07 68.43 191.13 68.46 191.19 68.5 191.25 68.53 191.32 68.55 191.38 68.57 191.45 68.59 191.52 68.6 191.59 68.61 191.66 68.61 191.72 68.61 191.79 68.6 191.86 68.59 191.93 68.58 192 68.56 192.06 68.54 192.13 68.51 192.19 68.48 192.25 68.45 192.3 68.41 192.36 68.37 192.41 68.32 192.46 68.27 192.51 68.22 192.55 68.17 192.59 68.11 192.62 68.05 192.66 67.99 192.68 67.93 192.71 67.86 192.73 67.8 192.74 67.73 192.75 67.66 192.76 67.59 192.76 67.52"/>
  </g>
  <g id="ID000188">
    <line class="cls-9" x1="197.11" y1="52.02" x2="197.11" y2="65.35"/>
  </g>
  <g id="ID000189">
    <polygon class="cls-8" points="198.75 56.87 197.93 57.77 197.66 58.68 197.52 59.59 197.11 61.4 196.71 59.59 196.57 58.68 196.3 57.77 195.48 56.87 198.75 56.87"/>
  </g>
  <g id="ID000191">
    <text class="cls-15" transform="translate(178.88 57.73)">U</text>
  </g>
  <g id="ID000192">
    <text class="cls-16" transform="translate(184.46 52.29)">A</text>
  </g>
  <g id="ID000193">
    <text class="cls-17" transform="translate(184.17 46.85)">G</text>
  </g>
  <g id="ID000194">
    <text class="cls-16" transform="translate(181.74 41.41)">A</text>
  </g>
  <g id="ID000195">
    <text class="cls-17" transform="translate(195.2 46.85)">C</text>
  </g>
  <g id="ID000196">
    <text class="cls-17" transform="translate(195.2 52.29)">U</text>
  </g>
  <g id="ID000197">
    <line class="cls-4" x1="200.74" y1="49.84" x2="204.37" y2="49.84"/>
  </g>
  <g id="ID000198">
    <text class="cls-5" transform="translate(204.37 52.29)">80</text>
  </g>
  <g id="ID000199">
    <line class="cls-4" x1="188.41" y1="49.84" x2="194.94" y2="49.84"/>
  </g>
  <g id="ID000200">
    <line class="cls-4" x1="188.41" y1="44.4" x2="194.94" y2="44.4"/>
  </g>
  <g id="ID000201">
    <line class="cls-9" x1="197.11" y1="34.34" x2="197.11" y2="42.22"/>
  </g>
  <g id="ID000202">
    <polygon class="cls-8" points="198.75 36.47 197.93 37.37 197.66 38.28 197.52 39.19 197.11 41 196.71 39.19 196.57 38.28 196.3 37.37 195.48 36.47 198.75 36.47"/>
  </g>
  <g id="ID000204">
    <text class="cls-17" transform="translate(184.17 34.61)">G</text>
  </g>
  <g id="ID000205">
    <text class="cls-17" transform="translate(184.32 29.17)">U</text>
  </g>
  <g id="ID000206">
    <line class="cls-4" x1="182.61" y1="26.72" x2="178.98" y2="26.72"/>
  </g>
  <g id="ID000207">
    <text class="cls-5" transform="translate(173.08 29.17)">70</text>
  </g>
  <g id="ID000208">
    <text class="cls-17" transform="translate(184.32 23.73)">C</text>
  </g>
  <g id="ID000209">
    <text class="cls-17" transform="translate(181.6 18.29)">U</text>
  </g>
  <g id="ID000210">
    <text class="cls-17" transform="translate(187.04 12.85)">U</text>
  </g>
  <g id="ID000211">
    <text class="cls-16" transform="translate(193.99 12.85)">A</text>
  </g>
  <g id="ID000212">
    <text class="cls-17" transform="translate(196.56 18.29)">U</text>
  </g>
  <g id="ID000213">
    <text class="cls-17" transform="translate(195.05 23.73)">G</text>
  </g>
  <g id="ID000214">
    <text class="cls-16" transform="translate(195.35 29.17)">A</text>
  </g>
  <g id="ID000215">
    <text class="cls-17" transform="translate(195.2 34.61)">C</text>
  </g>
  <g id="ID000216">
    <line class="cls-4" x1="188.41" y1="32.16" x2="194.94" y2="32.16"/>
  </g>
  <g id="ID000217">
    <line class="cls-4" x1="188.41" y1="26.72" x2="194.94" y2="26.72"/>
  </g>
  <g id="ID000218">
    <line class="cls-4" x1="188.41" y1="21.28" x2="194.94" y2="21.28"/>
  </g>
  <g id="ID000220">
    <text class="cls-18" transform="translate(201.85 348.79)">G</text>
  </g>
  <g id="ID000221">
    <text class="cls-18" transform="translate(207.29 348.79)">G</text>
  </g>
  <g id="ID000222">
    <text class="cls-19" transform="translate(213.03 348.79)">A</text>
  </g>
  <g id="ID000223">
    <text class="cls-18" transform="translate(218.32 348.79)">U</text>
  </g>
  <g id="ID000224">
    <text class="cls-18" transform="translate(223.76 348.79)">C</text>
  </g>
  <g id="ID000225">
    <line class="cls-4" x1="225.68" y1="342.72" x2="225.68" y2="339.09"/>
  </g>
  <g id="ID000226">
    <text class="cls-5" transform="translate(221.26 337.73)">130</text>
  </g>
  <g id="ID000227">
    <text class="cls-18" transform="translate(229.2 348.79)">C</text>
  </g>
  <g id="ID000228">
    <text class="cls-18" transform="translate(234.64 348.79)">U</text>
  </g>
  <g id="ID000229">
    <text class="cls-18" transform="translate(239.94 348.79)">G</text>
  </g>
  <g id="ID000230">
    <text class="cls-18" transform="translate(245.52 348.79)">U</text>
  </g>
  <g id="ID000231">
    <text class="cls-20" transform="translate(251.11 348.79)">A</text>
  </g>
  <g id="ID000232">
    <text class="cls-18" transform="translate(256.4 344.71)">C</text>
  </g>
  <g id="ID000233">
    <text class="cls-20" transform="translate(261.99 341.99)">A</text>
  </g>
  <g id="ID000234">
    <text class="cls-18" transform="translate(267.28 340.63)">U</text>
  </g>
  <g id="ID000235">
    <text class="cls-20" transform="translate(272.87 340.63)">A</text>
  </g>
  <g id="ID000236">
    <text class="cls-18" transform="translate(278.17 341.99)">U</text>
  </g>
  <g id="ID000237">
    <line class="cls-4" x1="280.08" y1="335.92" x2="280.08" y2="332.29"/>
  </g>
  <g id="ID000238">
    <text class="cls-5" transform="translate(275.66 330.93)">140</text>
  </g>
  <g id="ID000239">
    <text class="cls-18" transform="translate(282.1 348.79)">G</text>
  </g>
  <g id="ID000240">
    <text class="cls-18" transform="translate(283.61 355.59)">U</text>
  </g>
  <g id="ID000241">
    <text class="cls-18" transform="translate(280.74 362.39)">G</text>
  </g>
  <g id="ID000242">
    <text class="cls-18" transform="translate(274.08 366.47)">C</text>
  </g>
  <g id="ID000243">
    <text class="cls-18" transform="translate(267.14 366.47)">G</text>
  </g>
  <g id="ID000244">
    <text class="cls-18" transform="translate(261.84 366.47)">U</text>
  </g>
  <g id="ID000245">
    <text class="cls-18" transform="translate(256.4 365.11)">C</text>
  </g>
  <g id="ID000246">
    <text class="cls-18" transform="translate(250.96 359.67)">U</text>
  </g>
  <g id="ID000247">
    <text class="cls-20" transform="translate(245.67 359.67)">A</text>
  </g>
  <g id="ID000248">
    <text class="cls-18" transform="translate(240.08 359.67)">C</text>
  </g>
  <g id="ID000249">
    <line class="cls-4" x1="242" y1="360.85" x2="242" y2="364.48"/>
  </g>
  <g id="ID000250">
    <text class="cls-5" transform="translate(237.58 370.9)">150</text>
  </g>
  <g id="ID000251">
    <text class="cls-20" transform="translate(234.79 359.67)">A</text>
  </g>
  <g id="ID000252">
    <text class="cls-18" transform="translate(229.2 359.67)">U</text>
  </g>
  <g id="ID000253">
    <text class="cls-18" transform="translate(223.61 359.67)">G</text>
  </g>
  <g id="ID000254">
    <text class="cls-18" transform="translate(218.17 359.67)">G</text>
  </g>
  <g id="ID000255">
    <text class="cls-19" transform="translate(213.03 359.67)">A</text>
  </g>
  <g id="ID000256">
    <text class="cls-18" transform="translate(207.44 359.67)">U</text>
  </g>
  <g id="ID000257">
    <text class="cls-18" transform="translate(202 359.67)">C</text>
  </g>
  <g id="ID000258">
    <text class="cls-18" transform="translate(198.07 359.73)">C</text>
  </g>
  <g id="ID000259">
    <text class="cls-18" transform="translate(198.07 365.18)">U</text>
  </g>
  <g id="ID000260">
    <text class="cls-18" transform="translate(198.48 370.9)">C</text>
  </g>
  <g id="ID000261">
    <line class="cls-4" x1="203.46" y1="369.2" x2="207.09" y2="369.18"/>
  </g>
  <g id="ID000262">
    <text class="cls-5" transform="translate(207.86 370.9)">160</text>
  </g>
  <g id="ID000263">
    <text class="cls-21" transform="translate(198.48 375.93)">A</text>
  </g>
  <g id="ID000264">
    <line class="cls-4" x1="203.39" y1="349.27" x2="199.97" y2="355.46"/>
  </g>
  <g id="ID000265">
    <polygon class="cls-8" points="201.69 352.62 201.76 352.62 201.83 352.61 201.9 352.6 201.97 352.58 202.03 352.56 202.1 352.54 202.16 352.51 202.22 352.48 202.28 352.45 202.34 352.41 202.39 352.37 202.44 352.32 202.49 352.27 202.54 352.22 202.58 352.16 202.62 352.11 202.65 352.05 202.68 351.98 202.71 351.92 202.73 351.86 202.75 351.79 202.76 351.72 202.77 351.65 202.78 351.58 202.78 351.51 202.78 351.44 202.77 351.38 202.76 351.31 202.74 351.24 202.72 351.18 202.7 351.11 202.67 351.05 202.63 350.99 202.6 350.93 202.56 350.87 202.51 350.82 202.47 350.77 202.42 350.72 202.37 350.68 202.31 350.63 202.25 350.6 202.19 350.56 202.13 350.53 202.06 350.51 202 350.49 201.93 350.47 201.87 350.46 201.8 350.45 201.73 350.44 201.66 350.44 201.59 350.45 201.52 350.46 201.45 350.47 201.39 350.49 201.32 350.51 201.26 350.53 201.19 350.56 201.13 350.6 201.08 350.63 201.02 350.68 200.97 350.72 200.92 350.77 200.87 350.82 200.83 350.87 200.79 350.93 200.75 350.99 200.72 351.05 200.69 351.11 200.66 351.18 200.64 351.24 200.63 351.31 200.62 351.38 200.61 351.44 200.6 351.51 200.61 351.58 200.61 351.65 200.62 351.72 200.63 351.79 200.65 351.86 200.68 351.92 200.7 351.98 200.73 352.05 200.77 352.11 200.81 352.16 200.85 352.22 200.89 352.27 200.94 352.32 200.99 352.37 201.05 352.41 201.1 352.45 201.16 352.48 201.22 352.51 201.29 352.54 201.35 352.56 201.42 352.58 201.49 352.6 201.56 352.61 201.62 352.62 201.69 352.62"/>
  </g>
  <g id="ID000266">
    <line class="cls-4" x1="208.38" y1="348.29" x2="204.89" y2="355.28"/>
  </g>
  <g id="ID000267">
    <polygon class="cls-8" points="206.15 352.76 206.21 352.79 206.27 352.81 206.34 352.83 206.41 352.85 206.47 352.86 206.54 352.87 206.61 352.87 206.68 352.87 206.75 352.87 206.82 352.86 206.89 352.84 206.95 352.82 207.02 352.8 207.08 352.77 207.14 352.74 207.2 352.71 207.26 352.67 207.32 352.63 207.37 352.58 207.42 352.54 207.47 352.49 207.51 352.43 207.55 352.38 207.58 352.32 207.62 352.25 207.64 352.19 207.67 352.13 207.69 352.06 207.7 351.99 207.71 351.93 207.72 351.86 207.72 351.79 207.72 351.72 207.71 351.65 207.7 351.58 207.69 351.51 207.67 351.45 207.65 351.38 207.62 351.32 207.59 351.26 207.55 351.2 207.51 351.14 207.47 351.09 207.42 351.04 207.38 350.99 207.32 350.94 207.27 350.9 207.21 350.86 207.15 350.83 207.09 350.8 207.03 350.77 206.96 350.75 206.89 350.73 206.83 350.71 206.76 350.7 206.69 350.7 206.62 350.69 206.55 350.7 206.48 350.71 206.41 350.72 206.35 350.73 206.28 350.75 206.22 350.78 206.15 350.81 206.09 350.84 206.03 350.88 205.98 350.92 205.92 350.96 205.87 351 205.82 351.06 205.78 351.11 205.74 351.16 205.7 351.22 205.67 351.28 205.64 351.34 205.61 351.41 205.59 351.47 205.57 351.54 205.56 351.61 205.55 351.68 205.55 351.75 205.55 351.81 205.55 351.88 205.56 351.95 205.57 352.02 205.59 352.09 205.61 352.15 205.63 352.22 205.66 352.28 205.7 352.34 205.74 352.4 205.78 352.45 205.82 352.51 205.87 352.56 205.92 352.6 205.97 352.65 206.03 352.69 206.09 352.72 206.15 352.76"/>
  </g>
  <g id="ID000268">
    <line class="cls-4" x1="213.82" y1="348.29" x2="210.33" y2="355.28"/>
  </g>
  <g id="ID000269">
    <polygon class="cls-8" points="211.59 352.76 211.65 352.79 211.72 352.81 211.78 352.83 211.85 352.85 211.91 352.86 211.98 352.87 212.05 352.87 212.12 352.87 212.19 352.87 212.26 352.86 212.33 352.84 212.39 352.82 212.46 352.8 212.52 352.77 212.58 352.74 212.65 352.71 212.7 352.67 212.76 352.63 212.81 352.58 212.86 352.54 212.91 352.49 212.95 352.43 212.99 352.38 213.02 352.32 213.06 352.25 213.08 352.19 213.11 352.13 213.13 352.06 213.14 351.99 213.15 351.93 213.16 351.86 213.16 351.79 213.16 351.72 213.15 351.65 213.14 351.58 213.13 351.51 213.11 351.45 213.09 351.38 213.06 351.32 213.03 351.26 212.99 351.2 212.95 351.14 212.91 351.09 212.86 351.04 212.81 350.99 212.76 350.94 212.71 350.9 212.65 350.86 212.59 350.83 212.53 350.8 212.47 350.77 212.4 350.75 212.34 350.73 212.27 350.71 212.2 350.7 212.13 350.7 212.06 350.69 211.99 350.7 211.92 350.71 211.85 350.72 211.79 350.73 211.72 350.75 211.66 350.78 211.59 350.81 211.53 350.84 211.47 350.88 211.42 350.92 211.37 350.96 211.31 351 211.27 351.06 211.22 351.11 211.18 351.16 211.14 351.22 211.11 351.28 211.08 351.34 211.05 351.41 211.03 351.47 211.01 351.54 211 351.61 210.99 351.68 210.99 351.75 210.99 351.81 210.99 351.88 211 351.95 211.01 352.02 211.03 352.09 211.05 352.15 211.08 352.22 211.1 352.28 211.14 352.34 211.18 352.4 211.22 352.45 211.26 352.51 211.31 352.56 211.36 352.6 211.41 352.65 211.47 352.69 211.53 352.72 211.59 352.76"/>
  </g>
  <g id="ID000270">
    <line class="cls-4" x1="219.26" y1="348.29" x2="215.77" y2="355.28"/>
  </g>
  <g id="ID000271">
    <polygon class="cls-8" points="217.03 352.76 217.09 352.79 217.16 352.81 217.22 352.83 217.29 352.85 217.36 352.86 217.42 352.87 217.49 352.87 217.56 352.87 217.63 352.87 217.7 352.86 217.77 352.84 217.83 352.82 217.9 352.8 217.96 352.77 218.03 352.74 218.09 352.71 218.14 352.67 218.2 352.63 218.25 352.58 218.3 352.54 218.35 352.49 218.39 352.43 218.43 352.38 218.46 352.32 218.5 352.25 218.52 352.19 218.55 352.13 218.57 352.06 218.58 351.99 218.59 351.93 218.6 351.86 218.6 351.79 218.6 351.72 218.59 351.65 218.58 351.58 218.57 351.51 218.55 351.45 218.53 351.38 218.5 351.32 218.47 351.26 218.43 351.2 218.39 351.14 218.35 351.09 218.31 351.04 218.26 350.99 218.2 350.94 218.15 350.9 218.09 350.86 218.03 350.83 217.97 350.8 217.91 350.77 217.84 350.75 217.78 350.73 217.71 350.71 217.64 350.7 217.57 350.7 217.5 350.69 217.43 350.7 217.36 350.71 217.29 350.72 217.23 350.73 217.16 350.75 217.1 350.78 217.03 350.81 216.97 350.84 216.91 350.88 216.86 350.92 216.81 350.96 216.75 351 216.71 351.06 216.66 351.11 216.62 351.16 216.58 351.22 216.55 351.28 216.52 351.34 216.49 351.41 216.47 351.47 216.45 351.54 216.44 351.61 216.43 351.68 216.43 351.75 216.43 351.81 216.43 351.88 216.44 351.95 216.45 352.02 216.47 352.09 216.49 352.15 216.52 352.22 216.55 352.28 216.58 352.34 216.62 352.4 216.66 352.45 216.7 352.51 216.75 352.56 216.8 352.6 216.85 352.65 216.91 352.69 216.97 352.72 217.03 352.76"/>
  </g>
  <g id="ID000272">
    <line class="cls-4" x1="224.7" y1="348.29" x2="221.21" y2="355.28"/>
  </g>
  <g id="ID000273">
    <polygon class="cls-8" points="222.47 352.76 222.53 352.79 222.59 352.81 222.66 352.83 222.73 352.85 222.8 352.86 222.87 352.87 222.93 352.87 223 352.87 223.07 352.87 223.14 352.86 223.21 352.84 223.28 352.82 223.34 352.8 223.4 352.77 223.47 352.74 223.53 352.71 223.58 352.67 223.64 352.63 223.69 352.58 223.74 352.54 223.79 352.49 223.83 352.43 223.87 352.38 223.9 352.32 223.94 352.25 223.96 352.19 223.99 352.13 224.01 352.06 224.02 351.99 224.03 351.93 224.04 351.86 224.04 351.79 224.04 351.72 224.03 351.65 224.02 351.58 224.01 351.51 223.99 351.45 223.97 351.38 223.94 351.32 223.91 351.26 223.87 351.2 223.83 351.14 223.79 351.09 223.75 351.04 223.7 350.99 223.64 350.94 223.59 350.9 223.53 350.86 223.47 350.83 223.41 350.8 223.35 350.77 223.28 350.75 223.22 350.73 223.15 350.71 223.08 350.7 223.01 350.7 222.94 350.69 222.87 350.7 222.8 350.71 222.74 350.72 222.67 350.73 222.6 350.75 222.54 350.78 222.47 350.81 222.41 350.84 222.36 350.88 222.3 350.92 222.25 350.96 222.19 351 222.15 351.06 222.1 351.11 222.06 351.16 222.02 351.22 221.99 351.28 221.96 351.34 221.93 351.41 221.91 351.47 221.9 351.54 221.88 351.61 221.87 351.68 221.87 351.75 221.87 351.81 221.87 351.88 221.88 351.95 221.89 352.02 221.91 352.09 221.93 352.15 221.96 352.22 221.99 352.28 222.02 352.34 222.06 352.4 222.1 352.45 222.14 352.51 222.19 352.56 222.24 352.6 222.29 352.65 222.35 352.69 222.41 352.72 222.47 352.76"/>
  </g>
  <g id="ID000274">
    <line class="cls-4" x1="230.14" y1="348.29" x2="226.65" y2="355.28"/>
  </g>
  <g id="ID000275">
    <polygon class="cls-8" points="227.91 352.76 227.97 352.79 228.04 352.81 228.1 352.83 228.17 352.85 228.24 352.86 228.31 352.87 228.37 352.87 228.44 352.87 228.51 352.87 228.58 352.86 228.65 352.84 228.72 352.82 228.78 352.8 228.84 352.77 228.91 352.74 228.97 352.71 229.02 352.67 229.08 352.63 229.13 352.58 229.18 352.54 229.23 352.49 229.27 352.43 229.31 352.38 229.34 352.32 229.38 352.25 229.4 352.19 229.43 352.13 229.45 352.06 229.46 351.99 229.47 351.93 229.48 351.86 229.48 351.79 229.48 351.72 229.47 351.65 229.47 351.58 229.45 351.51 229.43 351.45 229.41 351.38 229.38 351.32 229.35 351.26 229.31 351.2 229.27 351.14 229.23 351.09 229.19 351.04 229.14 350.99 229.08 350.94 229.03 350.9 228.97 350.86 228.91 350.83 228.85 350.8 228.79 350.77 228.72 350.75 228.66 350.73 228.59 350.71 228.52 350.7 228.45 350.7 228.38 350.69 228.31 350.7 228.24 350.71 228.18 350.72 228.11 350.73 228.04 350.75 227.98 350.78 227.92 350.81 227.85 350.84 227.8 350.88 227.74 350.92 227.69 350.96 227.63 351 227.59 351.06 227.54 351.11 227.5 351.16 227.46 351.22 227.43 351.28 227.4 351.34 227.37 351.41 227.35 351.47 227.34 351.54 227.32 351.61 227.31 351.68 227.31 351.75 227.31 351.81 227.31 351.88 227.32 351.95 227.33 352.02 227.35 352.09 227.37 352.15 227.4 352.22 227.43 352.28 227.46 352.34 227.5 352.4 227.54 352.45 227.58 352.51 227.63 352.56 227.68 352.6 227.73 352.65 227.79 352.69 227.85 352.72 227.91 352.76"/>
  </g>
  <g id="ID000276">
    <line class="cls-4" x1="235.58" y1="348.29" x2="232.09" y2="355.28"/>
  </g>
  <g id="ID000277">
    <polygon class="cls-8" points="233.35 352.76 233.41 352.79 233.48 352.81 233.54 352.83 233.61 352.85 233.68 352.86 233.75 352.87 233.81 352.87 233.88 352.87 233.95 352.87 234.02 352.86 234.09 352.84 234.16 352.82 234.22 352.8 234.28 352.77 234.35 352.74 234.41 352.71 234.46 352.67 234.52 352.63 234.57 352.58 234.62 352.54 234.67 352.49 234.71 352.43 234.75 352.38 234.78 352.32 234.82 352.25 234.84 352.19 234.87 352.13 234.89 352.06 234.9 351.99 234.91 351.93 234.92 351.86 234.92 351.79 234.92 351.72 234.91 351.65 234.91 351.58 234.89 351.51 234.87 351.45 234.85 351.38 234.82 351.32 234.79 351.26 234.75 351.2 234.71 351.14 234.67 351.09 234.63 351.04 234.58 350.99 234.52 350.94 234.47 350.9 234.41 350.86 234.35 350.83 234.29 350.8 234.23 350.77 234.16 350.75 234.1 350.73 234.03 350.71 233.96 350.7 233.89 350.7 233.82 350.69 233.75 350.7 233.68 350.71 233.62 350.72 233.55 350.73 233.48 350.75 233.42 350.78 233.36 350.81 233.29 350.84 233.24 350.88 233.18 350.92 233.13 350.96 233.07 351 233.03 351.06 232.98 351.11 232.94 351.16 232.9 351.22 232.87 351.28 232.84 351.34 232.81 351.41 232.79 351.47 232.78 351.54 232.76 351.61 232.75 351.68 232.75 351.75 232.75 351.81 232.75 351.88 232.76 351.95 232.77 352.02 232.79 352.09 232.81 352.15 232.84 352.22 232.87 352.28 232.9 352.34 232.94 352.4 232.98 352.45 233.02 352.51 233.07 352.56 233.12 352.6 233.17 352.65 233.23 352.69 233.29 352.72 233.35 352.76"/>
  </g>
  <g id="ID000278">
    <line class="cls-4" x1="242" y1="348.52" x2="242" y2="355.05"/>
  </g>
  <g id="ID000279">
    <line class="cls-4" x1="247.44" y1="348.52" x2="247.44" y2="355.05"/>
  </g>
  <g id="ID000280">
    <line class="cls-4" x1="252.88" y1="348.52" x2="252.88" y2="355.05"/>
  </g>
  <g id="ID000282">
    <line class="cls-9" x1="186.23" y1="193.2" x2="186.23" y2="177.15"/>
  </g>
  <g id="ID000283">
    <polygon class="cls-8" points="184.6 186.98 185.42 186.08 185.69 185.17 185.82 184.26 186.23 182.45 186.64 184.26 186.78 185.17 187.05 186.08 187.86 186.98 184.6 186.98"/>
  </g>
  <g id="ID000284">
    <line class="cls-9" x1="197.11" y1="177.15" x2="197.11" y2="193.2"/>
  </g>
  <g id="ID000285">
    <polygon class="cls-8" points="198.75 183.36 197.93 184.26 197.66 185.17 197.52 186.08 197.11 187.89 196.71 186.08 196.57 185.17 196.3 184.26 195.48 183.36 198.75 183.36"/>
  </g>
  <text class="cls-22" transform="translate(153.59 388.64)">5<tspan class="cls-23" x="6.67" y="0">’</tspan></text>
  <text class="cls-22" transform="translate(198.33 388.64)">3<tspan class="cls-23" x="6.67" y="0">’</tspan></text>
  <text class="cls-24" transform="translate(8.7 25.37)">PKC-10 aptamer</text>
</svg>
