<svg id="图层_1" data-name="图层 1" xmlns="http://www.w3.org/2000/svg" viewBox="0 0 400 400">
  <defs>
    <style>
      .cls-1, .cls-10, .cls-12, .cls-13, .cls-14, .cls-15, .cls-16, .cls-18, .cls-19, .cls-2, .cls-20, .cls-21, .cls-22, .cls-23, .cls-4, .cls-5, .cls-9 {
        isolation: isolate;
        font-size: 5.79px;
      }

      .cls-1, .cls-2 {
        fill: #3cc;
      }

      .cls-1, .cls-10, .cls-12, .cls-13, .cls-14, .cls-15, .cls-16, .cls-18, .cls-19, .cls-2, .cls-20, .cls-21, .cls-22, .cls-23, .cls-24, .cls-26, .cls-4, .cls-5, .cls-9 {
        font-family: ArialMT, Arial;
      }

      .cls-10, .cls-13, .cls-15, .cls-2, .cls-5 {
        letter-spacing: -0.06em;
      }

      .cls-3, .cls-7 {
        fill: none;
      }

      .cls-11, .cls-3, .cls-6, .cls-7, .cls-8 {
        stroke: #000;
        stroke-miterlimit: 1.11;
      }

      .cls-3, .cls-6, .cls-8 {
        stroke-width: 0.14px;
      }

      .cls-5 {
        fill: #999;
      }

      .cls-11, .cls-7 {
        stroke-width: 0.56px;
      }

      .cls-10, .cls-11, .cls-8, .cls-9 {
        fill: #93f;
      }

      .cls-12, .cls-13 {
        fill: #cc0;
      }

      .cls-14, .cls-15, .cls-16 {
        fill: #f93;
      }

      .cls-16, .cls-19, .cls-21, .cls-22 {
        letter-spacing: -0.06em;
      }

      .cls-17 {
        letter-spacing: -0.07em;
      }

      .cls-18, .cls-19 {
        fill: #39f;
      }

      .cls-20, .cls-21 {
        fill: #3c3;
      }

      .cls-22, .cls-23 {
        fill: #f69;
      }

      .cls-24 {
        font-size: 12px;
      }

      .cls-25 {
        letter-spacing: -0.04em;
      }

      .cls-26 {
        font-size: 20px;
      }
    </style>
  </defs>
  <g id="ID000002">
    <text class="cls-1" transform="translate(374.99 188.19)">G</text>
  </g>
  <g id="ID000003">
    <text class="cls-1" transform="translate(368.99 188.19)">G</text>
  </g>
  <g id="ID000004">
    <text class="cls-1" transform="translate(363 188.19)">G</text>
  </g>
  <g id="ID000005">
    <text class="cls-2" transform="translate(357.32 188.19)">A</text>
  </g>
  <g id="ID000006">
    <text class="cls-1" transform="translate(352.51 192.69)">G</text>
  </g>
  <g id="ID000007">
    <text class="cls-2" transform="translate(348.33 197.18)">A</text>
  </g>
  <g id="ID000008">
    <text class="cls-1" transform="translate(357.16 176.2)">U</text>
  </g>
  <g id="ID000009">
    <text class="cls-1" transform="translate(363.16 176.2)">C</text>
  </g>
  <g id="ID000010">
    <text class="cls-1" transform="translate(369.16 176.2)">C</text>
  </g>
  <g id="ID000011">
    <text class="cls-1" transform="translate(375.15 176.2)">U</text>
  </g>
  <g id="ID000012">
    <line class="cls-3" x1="377.24" y1="169.51" x2="377.24" y2="165.51"/>
  </g>
  <g id="ID000013">
    <text class="cls-4" transform="translate(372.41 164.01)">160</text>
  </g>
  <g id="ID000014">
    <text class="cls-1" transform="translate(381.14 176.2)">C</text>
  </g>
  <g id="ID000015">
    <text class="cls-5" transform="translate(387.3 176.2)">A</text>
  </g>
  <g id="ID000016">
    <polygon class="cls-6" points="377.24 178.3 377.16 178.3 377.09 178.31 377.01 178.32 376.94 178.34 376.87 178.36 376.79 178.38 376.72 178.41 376.66 178.45 376.59 178.49 376.53 178.53 376.47 178.58 376.41 178.63 376.36 178.68 376.31 178.74 376.26 178.8 376.22 178.87 376.18 178.93 376.15 179 376.12 179.07 376.1 179.14 376.07 179.22 376.06 179.29 376.05 179.37 376.04 179.44 376.04 179.52 376.04 179.59 376.05 179.67 376.07 179.74 376.08 179.82 376.11 179.89 376.13 179.96 376.17 180.03 376.2 180.1 376.24 180.16 376.29 180.22 376.33 180.28 376.38 180.34 376.44 180.39 376.5 180.44 376.56 180.49 376.62 180.53 376.69 180.56 376.76 180.6 376.83 180.62 376.9 180.65 376.98 180.67 377.05 180.68 377.13 180.69 377.2 180.7 377.28 180.7 377.35 180.69 377.43 180.68 377.5 180.67 377.58 180.65 377.65 180.62 377.72 180.6 377.79 180.56 377.86 180.53 377.92 180.49 377.98 180.44 378.04 180.39 378.09 180.34 378.15 180.28 378.19 180.22 378.24 180.16 378.28 180.1 378.31 180.03 378.35 179.96 378.37 179.89 378.39 179.82 378.41 179.74 378.43 179.67 378.44 179.59 378.44 179.52 378.44 179.44 378.43 179.37 378.42 179.29 378.4 179.22 378.38 179.14 378.36 179.07 378.33 179 378.3 178.93 378.26 178.87 378.22 178.8 378.17 178.74 378.12 178.68 378.07 178.63 378.01 178.58 377.95 178.53 377.89 178.49 377.82 178.45 377.75 178.41 377.69 178.38 377.61 178.36 377.54 178.34 377.47 178.32 377.39 178.31 377.32 178.3 377.24 178.3"/>
  </g>
  <g id="ID000017">
    <line class="cls-3" x1="371.25" y1="183.09" x2="371.25" y2="175.9"/>
  </g>
  <g id="ID000018">
    <line class="cls-3" x1="365.25" y1="183.09" x2="365.25" y2="175.9"/>
  </g>
  <g id="ID000019">
    <line class="cls-3" x1="359.25" y1="183.09" x2="359.25" y2="175.9"/>
  </g>
  <g id="ID000020">
    <line class="cls-7" x1="336.17" y1="173.5" x2="356.86" y2="173.5"/>
  </g>
  <g id="ID000021">
    <polygon class="cls-6" points="344.52 171.7 345.52 172.6 346.51 172.9 347.51 173.05 349.51 173.5 347.51 173.95 346.51 174.1 345.52 174.4 344.52 175.3 344.52 171.7"/>
  </g>
  <g id="ID000023">
    <text class="cls-2" transform="translate(342.33 195.69)">A</text>
  </g>
  <g id="ID000024">
    <text class="cls-1" transform="translate(337.68 191.19)">U</text>
  </g>
  <g id="ID000025">
    <text class="cls-1" transform="translate(331.69 188.19)">U</text>
  </g>
  <g id="ID000026">
    <text class="cls-1" transform="translate(325.69 188.19)">C</text>
  </g>
  <g id="ID000027">
    <line class="cls-8" x1="327.78" y1="189.49" x2="327.78" y2="193.49"/>
  </g>
  <g id="ID000028">
    <text class="cls-4" transform="translate(324.56 200.56)">10</text>
  </g>
  <g id="ID000029">
    <text class="cls-1" transform="translate(319.7 188.19)">C</text>
  </g>
  <g id="ID000030">
    <text class="cls-9" transform="translate(313.54 188.19)">G</text>
  </g>
  <g id="ID000031">
    <text class="cls-10" transform="translate(310.86 194.19)">A</text>
  </g>
  <g id="ID000032">
    <text class="cls-9" transform="translate(306.21 200.18)">C</text>
  </g>
  <g id="ID000033">
    <text class="cls-9" transform="translate(300.21 201.68)">C</text>
  </g>
  <g id="ID000034">
    <text class="cls-9" transform="translate(300.21 173.2)">C</text>
  </g>
  <g id="ID000035">
    <text class="cls-10" transform="translate(307.86 173.2)">A</text>
  </g>
  <g id="ID000036">
    <text class="cls-9" transform="translate(313.7 176.2)">U</text>
  </g>
  <g id="ID000037">
    <text class="cls-1" transform="translate(319.53 176.2)">G</text>
  </g>
  <g id="ID000038">
    <text class="cls-1" transform="translate(325.53 176.2)">G</text>
  </g>
  <g id="ID000039">
    <text class="cls-2" transform="translate(331.85 176.2)">A</text>
  </g>
  <g id="ID000040">
    <line class="cls-3" x1="333.78" y1="183.09" x2="333.78" y2="175.9"/>
  </g>
  <g id="ID000041">
    <line class="cls-3" x1="327.78" y1="183.09" x2="327.78" y2="175.9"/>
  </g>
  <g id="ID000042">
    <line class="cls-3" x1="321.79" y1="183.09" x2="321.79" y2="175.9"/>
  </g>
  <g id="ID000043">
    <polygon class="cls-6" points="315.79 178.3 315.71 178.3 315.64 178.31 315.56 178.32 315.49 178.34 315.42 178.36 315.34 178.38 315.27 178.41 315.21 178.45 315.14 178.49 315.08 178.53 315.02 178.58 314.96 178.63 314.91 178.68 314.86 178.74 314.81 178.8 314.77 178.87 314.73 178.93 314.7 179 314.67 179.07 314.64 179.14 314.63 179.22 314.61 179.29 314.6 179.37 314.59 179.44 314.59 179.52 314.6 179.59 314.6 179.67 314.62 179.74 314.63 179.82 314.66 179.89 314.68 179.96 314.72 180.03 314.75 180.1 314.79 180.16 314.84 180.22 314.88 180.28 314.94 180.34 314.99 180.39 315.05 180.44 315.11 180.49 315.17 180.53 315.24 180.56 315.31 180.6 315.38 180.62 315.45 180.65 315.53 180.67 315.6 180.68 315.68 180.69 315.75 180.7 315.83 180.7 315.9 180.69 315.98 180.68 316.05 180.67 316.13 180.65 316.2 180.62 316.27 180.6 316.34 180.56 316.41 180.53 316.47 180.49 316.53 180.44 316.59 180.39 316.64 180.34 316.7 180.28 316.74 180.22 316.79 180.16 316.83 180.1 316.87 180.03 316.9 179.96 316.92 179.89 316.95 179.82 316.96 179.74 316.98 179.67 316.99 179.59 316.99 179.52 316.99 179.44 316.98 179.37 316.97 179.29 316.95 179.22 316.94 179.14 316.91 179.07 316.88 179 316.85 178.93 316.81 178.87 316.77 178.8 316.72 178.74 316.67 178.68 316.62 178.63 316.56 178.58 316.5 178.53 316.44 178.49 316.37 178.45 316.31 178.41 316.24 178.38 316.16 178.36 316.09 178.34 316.02 178.32 315.94 178.31 315.87 178.3 315.79 178.3"/>
  </g>
  <g id="ID000045">
    <text class="cls-10" transform="translate(294.38 200.18)">A</text>
  </g>
  <g id="ID000046">
    <text class="cls-9" transform="translate(289.56 195.69)">G</text>
  </g>
  <g id="ID000047">
    <text class="cls-10" transform="translate(286.88 189.69)">A</text>
  </g>
  <g id="ID000048">
    <text class="cls-9" transform="translate(280.56 189.69)">G</text>
  </g>
  <g id="ID000049">
    <text class="cls-9" transform="translate(274.57 189.69)">G</text>
  </g>
  <g id="ID000050">
    <line class="cls-3" x1="276.82" y1="190.99" x2="276.82" y2="194.98"/>
  </g>
  <g id="ID000051">
    <text class="cls-4" transform="translate(273.6 202.06)">20</text>
  </g>
  <g id="ID000052">
    <text class="cls-9" transform="translate(268.74 189.69)">C</text>
  </g>
  <g id="ID000053">
    <text class="cls-9" transform="translate(262.74 194.19)">U</text>
  </g>
  <g id="ID000054">
    <text class="cls-9" transform="translate(262.74 173.2)">C</text>
  </g>
  <g id="ID000055">
    <text class="cls-9" transform="translate(268.58 177.7)">G</text>
  </g>
  <g id="ID000056">
    <text class="cls-9" transform="translate(274.73 177.7)">U</text>
  </g>
  <g id="ID000057">
    <text class="cls-9" transform="translate(280.73 177.7)">C</text>
  </g>
  <g id="ID000058">
    <text class="cls-9" transform="translate(286.72 177.7)">U</text>
  </g>
  <g id="ID000059">
    <text class="cls-10" transform="translate(292.88 174.7)">A</text>
  </g>
  <g id="ID000060">
    <line class="cls-3" x1="294.81" y1="168.01" x2="294.81" y2="164.01"/>
  </g>
  <g id="ID000061">
    <text class="cls-4" transform="translate(289.97 162.51)">150</text>
  </g>
  <g id="ID000062">
    <line class="cls-3" x1="288.81" y1="184.59" x2="288.81" y2="177.4"/>
  </g>
  <g id="ID000063">
    <line class="cls-3" x1="282.82" y1="184.59" x2="282.82" y2="177.4"/>
  </g>
  <g id="ID000064">
    <polygon class="cls-6" points="276.82 179.8 276.75 179.8 276.67 179.81 276.6 179.82 276.52 179.84 276.45 179.86 276.38 179.88 276.31 179.91 276.24 179.95 276.17 179.99 276.11 180.03 276.05 180.08 275.99 180.13 275.94 180.18 275.89 180.24 275.85 180.3 275.8 180.37 275.76 180.43 275.73 180.5 275.7 180.57 275.68 180.64 275.66 180.71 275.64 180.79 275.63 180.86 275.62 180.94 275.62 181.02 275.63 181.09 275.63 181.17 275.65 181.24 275.67 181.32 275.69 181.39 275.72 181.46 275.75 181.53 275.78 181.6 275.82 181.66 275.87 181.72 275.92 181.78 275.97 181.84 276.02 181.89 276.08 181.94 276.14 181.98 276.21 182.03 276.27 182.06 276.34 182.09 276.41 182.12 276.48 182.15 276.56 182.17 276.63 182.18 276.71 182.19 276.78 182.19 276.86 182.19 276.94 182.19 277.01 182.18 277.09 182.17 277.16 182.15 277.23 182.12 277.3 182.09 277.37 182.06 277.44 182.03 277.5 181.98 277.56 181.94 277.62 181.89 277.68 181.84 277.73 181.78 277.78 181.72 277.82 181.66 277.86 181.6 277.9 181.53 277.93 181.46 277.95 181.39 277.98 181.32 278 181.24 278.01 181.17 278.02 181.09 278.02 181.02 278.02 180.94 278.01 180.86 278 180.79 277.99 180.71 277.97 180.64 277.94 180.57 277.91 180.5 277.88 180.43 277.84 180.37 277.8 180.3 277.75 180.24 277.7 180.18 277.65 180.13 277.59 180.08 277.53 180.03 277.47 179.99 277.4 179.95 277.34 179.91 277.27 179.88 277.2 179.86 277.12 179.84 277.05 179.82 276.97 179.81 276.9 179.8 276.82 179.8"/>
  </g>
  <g id="ID000065">
    <line class="cls-3" x1="270.83" y1="184.59" x2="270.83" y2="177.4"/>
  </g>
  <g id="ID000067">
    <text class="cls-9" transform="translate(255.25 189.69)">U</text>
  </g>
  <g id="ID000068">
    <text class="cls-10" transform="translate(249.41 189.69)">A</text>
  </g>
  <g id="ID000069">
    <text class="cls-9" transform="translate(243.26 189.69)">C</text>
  </g>
  <g id="ID000070">
    <text class="cls-10" transform="translate(237.42 189.69)">A</text>
  </g>
  <g id="ID000071">
    <text class="cls-10" transform="translate(231.43 177.7)">A</text>
  </g>
  <g id="ID000072">
    <line class="cls-3" x1="236.18" y1="172.18" x2="239.01" y2="169.35"/>
  </g>
  <g id="ID000073">
    <text class="cls-4" transform="translate(239.01 167.85)">140</text>
  </g>
  <g id="ID000074">
    <text class="cls-9" transform="translate(237.26 177.7)">U</text>
  </g>
  <g id="ID000075">
    <text class="cls-9" transform="translate(243.1 177.7)">G</text>
  </g>
  <g id="ID000076">
    <text class="cls-9" transform="translate(249.25 177.7)">U</text>
  </g>
  <g id="ID000077">
    <text class="cls-9" transform="translate(255.08 177.7)">G</text>
  </g>
  <g id="ID000078">
    <polygon class="cls-6" points="257.34 179.8 257.26 179.8 257.19 179.81 257.11 179.82 257.04 179.84 256.96 179.86 256.89 179.88 256.82 179.91 256.75 179.95 256.69 179.99 256.63 180.03 256.57 180.08 256.51 180.13 256.46 180.18 256.41 180.24 256.36 180.3 256.32 180.37 256.28 180.43 256.25 180.5 256.22 180.57 256.19 180.64 256.17 180.71 256.16 180.79 256.15 180.86 256.14 180.94 256.14 181.02 256.14 181.09 256.15 181.17 256.16 181.24 256.18 181.32 256.2 181.39 256.23 181.46 256.26 181.53 256.3 181.6 256.34 181.66 256.38 181.72 256.43 181.78 256.48 181.84 256.54 181.89 256.6 181.94 256.66 181.98 256.72 182.03 256.79 182.06 256.86 182.09 256.93 182.12 257 182.15 257.07 182.17 257.15 182.18 257.22 182.19 257.3 182.19 257.38 182.19 257.45 182.19 257.53 182.18 257.6 182.17 257.68 182.15 257.75 182.12 257.82 182.09 257.89 182.06 257.95 182.03 258.02 181.98 258.08 181.94 258.14 181.89 258.19 181.84 258.24 181.78 258.29 181.72 258.34 181.66 258.38 181.6 258.41 181.53 258.44 181.46 258.47 181.39 258.49 181.32 258.51 181.24 258.52 181.17 258.53 181.09 258.54 181.02 258.54 180.94 258.53 180.86 258.52 180.79 258.5 180.71 258.48 180.64 258.46 180.57 258.43 180.5 258.39 180.43 258.36 180.37 258.31 180.3 258.27 180.24 258.22 180.18 258.17 180.13 258.11 180.08 258.05 180.03 257.99 179.99 257.92 179.95 257.85 179.91 257.78 179.88 257.71 179.86 257.64 179.84 257.56 179.82 257.49 179.81 257.41 179.8 257.34 179.8"/>
  </g>
  <g id="ID000079">
    <line class="cls-3" x1="251.34" y1="184.59" x2="251.34" y2="177.4"/>
  </g>
  <g id="ID000080">
    <line class="cls-3" x1="245.35" y1="184.59" x2="245.35" y2="177.4"/>
  </g>
  <g id="ID000081">
    <line class="cls-11" x1="236.95" y1="186.99" x2="217.77" y2="186.99"/>
  </g>
  <g id="ID000082">
    <polygon class="cls-6" points="229.36 188.79 228.36 187.89 227.36 187.59 226.36 187.44 224.37 186.99 226.36 186.54 227.36 186.39 228.36 186.09 229.36 185.19 229.36 188.79"/>
  </g>
  <g id="ID000083">
    <line class="cls-3" x1="239.35" y1="184.59" x2="239.35" y2="177.4"/>
  </g>
  <g id="ID000085">
    <text class="cls-12" transform="translate(214.78 170.21)">U</text>
  </g>
  <g id="ID000086">
    <text class="cls-12" transform="translate(216.28 164.21)">U</text>
  </g>
  <g id="ID000087">
    <text class="cls-12" transform="translate(216.12 158.22)">G</text>
  </g>
  <g id="ID000088">
    <text class="cls-12" transform="translate(216.28 152.22)">U</text>
  </g>
  <g id="ID000089">
    <text class="cls-12" transform="translate(216.12 146.23)">G</text>
  </g>
  <g id="ID000090">
    <text class="cls-12" transform="translate(216.12 140.23)">G</text>
  </g>
  <g id="ID000091">
    <text class="cls-12" transform="translate(213.28 134.23)">U</text>
  </g>
  <g id="ID000092">
    <line class="cls-3" x1="211.38" y1="131.54" x2="207.38" y2="131.54"/>
  </g>
  <g id="ID000093">
    <text class="cls-4" transform="translate(197.72 134.23)">130</text>
  </g>
  <g id="ID000094">
    <text class="cls-12" transform="translate(217.78 126.74)">C</text>
  </g>
  <g id="ID000095">
    <text class="cls-13" transform="translate(225.43 126.74)">A</text>
  </g>
  <g id="ID000096">
    <text class="cls-12" transform="translate(229.61 134.23)">G</text>
  </g>
  <g id="ID000097">
    <text class="cls-12" transform="translate(228.27 140.23)">U</text>
  </g>
  <g id="ID000098">
    <text class="cls-12" transform="translate(228.27 146.23)">C</text>
  </g>
  <g id="ID000099">
    <text class="cls-13" transform="translate(228.43 152.22)">A</text>
  </g>
  <g id="ID000100">
    <text class="cls-12" transform="translate(228.27 158.22)">C</text>
  </g>
  <g id="ID000101">
    <text class="cls-13" transform="translate(228.43 164.21)">A</text>
  </g>
  <g id="ID000102">
    <text class="cls-12" transform="translate(231.27 170.21)">U</text>
  </g>
  <g id="ID000103">
    <line class="cls-3" x1="220.77" y1="161.51" x2="227.96" y2="161.51"/>
  </g>
  <g id="ID000104">
    <line class="cls-3" x1="220.77" y1="155.52" x2="227.96" y2="155.52"/>
  </g>
  <g id="ID000105">
    <line class="cls-3" x1="220.77" y1="149.52" x2="227.96" y2="149.52"/>
  </g>
  <g id="ID000106">
    <line class="cls-3" x1="220.77" y1="143.53" x2="227.96" y2="143.53"/>
  </g>
  <g id="ID000107">
    <polygon class="cls-6" points="225.56 137.53 225.56 137.46 225.55 137.38 225.54 137.31 225.53 137.23 225.5 137.16 225.48 137.09 225.45 137.02 225.41 136.95 225.37 136.88 225.33 136.82 225.28 136.76 225.23 136.71 225.18 136.65 225.12 136.6 225.06 136.56 225 136.51 224.93 136.47 224.86 136.44 224.79 136.41 224.72 136.39 224.65 136.37 224.57 136.35 224.5 136.34 224.42 136.34 224.35 136.33 224.27 136.34 224.19 136.34 224.12 136.36 224.04 136.38 223.97 136.4 223.9 136.43 223.83 136.46 223.76 136.49 223.7 136.53 223.64 136.58 223.58 136.63 223.52 136.68 223.47 136.73 223.42 136.79 223.38 136.85 223.34 136.92 223.3 136.98 223.27 137.05 223.24 137.12 223.21 137.19 223.19 137.27 223.18 137.34 223.17 137.42 223.17 137.49 223.17 137.57 223.17 137.65 223.18 137.72 223.19 137.8 223.21 137.87 223.24 137.94 223.27 138.01 223.3 138.08 223.34 138.15 223.38 138.21 223.42 138.27 223.47 138.33 223.52 138.39 223.58 138.44 223.64 138.49 223.7 138.53 223.76 138.57 223.83 138.61 223.9 138.64 223.97 138.66 224.04 138.69 224.12 138.71 224.19 138.72 224.27 138.73 224.35 138.73 224.42 138.73 224.5 138.72 224.57 138.71 224.65 138.7 224.72 138.68 224.79 138.65 224.86 138.62 224.93 138.59 225 138.55 225.06 138.51 225.12 138.46 225.18 138.41 225.23 138.36 225.28 138.3 225.33 138.24 225.37 138.18 225.41 138.12 225.45 138.05 225.48 137.98 225.5 137.91 225.53 137.83 225.54 137.76 225.55 137.68 225.56 137.61 225.56 137.53"/>
  </g>
  <g id="ID000109">
    <text class="cls-14" transform="translate(213.12 189.69)">G</text>
  </g>
  <g id="ID000110">
    <text class="cls-15" transform="translate(207.45 189.69)">A</text>
  </g>
  <g id="ID000111">
    <text class="cls-14" transform="translate(201.13 189.69)">G</text>
  </g>
  <g id="ID000112">
    <text class="cls-14" transform="translate(195.3 189.69)">U</text>
  </g>
  <g id="ID000113">
    <line class="cls-3" x1="197.39" y1="190.99" x2="197.39" y2="194.98"/>
  </g>
  <g id="ID000114">
    <text class="cls-4" transform="translate(194.17 202.06)">30</text>
  </g>
  <g id="ID000115">
    <text class="cls-14" transform="translate(189.14 189.69)">G</text>
  </g>
  <g id="ID000116">
    <text class="cls-14" transform="translate(183.3 189.69)">U</text>
  </g>
  <g id="ID000117">
    <text class="cls-14" transform="translate(177.15 189.69)">G</text>
  </g>
  <g id="ID000118">
    <text class="cls-14" transform="translate(172.81 195.69)">C</text>
  </g>
  <g id="ID000119">
    <text class="cls-14" transform="translate(177.31 177.7)">U</text>
  </g>
  <g id="ID000120">
    <text class="cls-16" transform="translate(183.46 177.7)">A</text>
  </g>
  <g id="ID000121">
    <text class="cls-14" transform="translate(189.3 177.7)">C</text>
  </g>
  <g id="ID000122">
    <text class="cls-16" transform="translate(195.46 177.7)">A</text>
  </g>
  <g id="ID000123">
    <line class="cls-3" x1="197.39" y1="171" x2="197.39" y2="167.01"/>
  </g>
  <g id="ID000124">
    <text class="cls-4" transform="translate(192.55 165.51)">120</text>
  </g>
  <g id="ID000125">
    <text class="cls-14" transform="translate(201.29 177.7)">C</text>
  </g>
  <g id="ID000126">
    <text class="cls-14" transform="translate(207.29 177.7)">U</text>
  </g>
  <g id="ID000127">
    <text class="cls-14" transform="translate(213.28 177.7)">C</text>
  </g>
  <g id="ID000128">
    <line class="cls-3" x1="215.37" y1="184.59" x2="215.37" y2="177.4"/>
  </g>
  <g id="ID000129">
    <line class="cls-3" x1="209.38" y1="184.59" x2="209.38" y2="177.4"/>
  </g>
  <g id="ID000130">
    <line class="cls-3" x1="203.38" y1="184.59" x2="203.38" y2="177.4"/>
  </g>
  <g id="ID000131">
    <line class="cls-3" x1="197.39" y1="184.59" x2="197.39" y2="177.4"/>
  </g>
  <g id="ID000132">
    <line class="cls-3" x1="191.39" y1="184.59" x2="191.39" y2="177.4"/>
  </g>
  <g id="ID000133">
    <line class="cls-3" x1="185.4" y1="184.59" x2="185.4" y2="177.4"/>
  </g>
  <g id="ID000134">
    <polygon class="cls-6" points="179.4 179.8 179.32 179.8 179.25 179.81 179.17 179.82 179.1 179.84 179.03 179.86 178.96 179.88 178.89 179.91 178.82 179.95 178.75 179.99 178.69 180.03 178.63 180.08 178.57 180.13 178.52 180.18 178.47 180.24 178.43 180.3 178.38 180.37 178.34 180.43 178.31 180.5 178.28 180.57 178.26 180.64 178.24 180.71 178.22 180.79 178.21 180.86 178.2 180.94 178.2 181.02 178.21 181.09 178.22 181.17 178.23 181.24 178.25 181.32 178.27 181.39 178.29 181.46 178.33 181.53 178.36 181.6 178.4 181.66 178.45 181.72 178.5 181.78 178.55 181.84 178.6 181.89 178.66 181.94 178.72 181.98 178.78 182.03 178.85 182.06 178.92 182.09 178.99 182.12 179.06 182.15 179.14 182.17 179.21 182.18 179.29 182.19 179.36 182.19 179.44 182.19 179.52 182.19 179.59 182.18 179.67 182.17 179.74 182.15 179.81 182.12 179.88 182.09 179.95 182.06 180.02 182.03 180.08 181.98 180.14 181.94 180.2 181.89 180.26 181.84 180.31 181.78 180.35 181.72 180.4 181.66 180.44 181.6 180.48 181.53 180.51 181.46 180.53 181.39 180.56 181.32 180.57 181.24 180.59 181.17 180.6 181.09 180.6 181.02 180.6 180.94 180.59 180.86 180.58 180.79 180.57 180.71 180.55 180.64 180.52 180.57 180.49 180.5 180.46 180.43 180.42 180.37 180.38 180.3 180.33 180.24 180.28 180.18 180.23 180.13 180.17 180.08 180.11 180.03 180.05 179.99 179.98 179.95 179.92 179.91 179.85 179.88 179.78 179.86 179.7 179.84 179.63 179.82 179.55 179.81 179.48 179.8 179.4 179.8"/>
  </g>
  <g id="ID000136">
    <text class="cls-14" transform="translate(169.66 189.69)">G</text>
  </g>
  <g id="ID000137">
    <text class="cls-14" transform="translate(163.82 189.69)">U</text>
  </g>
  <g id="ID000138">
    <text class="cls-16" transform="translate(157.99 189.69)">A</text>
  </g>
  <g id="ID000139">
    <text class="cls-16" transform="translate(151.99 189.69)">A</text>
  </g>
  <g id="ID000140">
    <text class="cls-14" transform="translate(151.67 177.7)">G</text>
  </g>
  <g id="ID000141">
    <text class="cls-14" transform="translate(157.83 177.7)">U</text>
  </g>
  <g id="ID000142">
    <text class="cls-16" transform="translate(163.98 177.7)">A</text>
  </g>
  <g id="ID000143">
    <text class="cls-14" transform="translate(169.82 177.7)">C</text>
  </g>
  <g id="ID000144">
    <line class="cls-3" x1="171.91" y1="184.59" x2="171.91" y2="177.4"/>
  </g>
  <g id="ID000145">
    <line class="cls-3" x1="165.91" y1="184.59" x2="165.91" y2="177.4"/>
  </g>
  <g id="ID000146">
    <line class="cls-3" x1="159.92" y1="184.59" x2="159.92" y2="177.4"/>
  </g>
  <g id="ID000148">
    <text class="cls-14" transform="translate(145.84 189.69)">U</text>
  </g>
  <g id="ID000149">
    <text class="cls-14" transform="translate(139.68 189.69)">G</text>
  </g>
  <g id="ID000150">
    <line class="cls-3" x1="141.93" y1="190.99" x2="141.93" y2="194.98"/>
  </g>
  <g id="ID000151">
    <text class="cls-4" transform="translate(138.71 202.06)">40</text>
  </g>
  <g id="ID000152">
    <text class="cls-14" transform="translate(133.68 189.69)">G</text>
  </g>
  <g id="ID000153">
    <text class="cls-14" transform="translate(127.85 189.69)">C</text>
  </g>
  <g id="ID000154">
    <text class="cls-14" transform="translate(127.85 177.7)">C</text>
  </g>
  <g id="ID000155">
    <text class="cls-14" transform="translate(133.84 177.7)">U</text>
  </g>
  <g id="ID000156">
    <line class="cls-3" x1="135.94" y1="171" x2="135.94" y2="167.01"/>
  </g>
  <g id="ID000157">
    <text class="cls-4" transform="translate(131.32 165.51)"><tspan class="cls-17">1</tspan><tspan x="2.79" y="0">10</tspan></text>
  </g>
  <g id="ID000158">
    <text class="cls-14" transform="translate(139.84 177.7)">C</text>
  </g>
  <g id="ID000159">
    <text class="cls-16" transform="translate(146 177.7)">A</text>
  </g>
  <g id="ID000160">
    <line class="cls-3" x1="147.93" y1="184.59" x2="147.93" y2="177.4"/>
  </g>
  <g id="ID000161">
    <line class="cls-3" x1="141.93" y1="184.59" x2="141.93" y2="177.4"/>
  </g>
  <g id="ID000162">
    <polygon class="cls-6" points="135.94 179.8 135.86 179.8 135.78 179.81 135.71 179.82 135.64 179.84 135.56 179.86 135.49 179.88 135.42 179.91 135.35 179.95 135.29 179.99 135.23 180.03 135.17 180.08 135.11 180.13 135.06 180.18 135.01 180.24 134.96 180.3 134.92 180.37 134.88 180.43 134.85 180.5 134.82 180.57 134.79 180.64 134.77 180.71 134.76 180.79 134.75 180.86 134.74 180.94 134.74 181.02 134.74 181.09 134.75 181.17 134.76 181.24 134.78 181.32 134.8 181.39 134.83 181.46 134.86 181.53 134.9 181.6 134.94 181.66 134.98 181.72 135.03 181.78 135.08 181.84 135.14 181.89 135.2 181.94 135.26 181.98 135.32 182.03 135.39 182.06 135.46 182.09 135.53 182.12 135.6 182.15 135.67 182.17 135.75 182.18 135.82 182.19 135.9 182.19 135.97 182.19 136.05 182.19 136.13 182.18 136.2 182.17 136.28 182.15 136.35 182.12 136.42 182.09 136.49 182.06 136.55 182.03 136.62 181.98 136.68 181.94 136.74 181.89 136.79 181.84 136.84 181.78 136.89 181.72 136.94 181.66 136.97 181.6 137.01 181.53 137.04 181.46 137.07 181.39 137.09 181.32 137.11 181.24 137.12 181.17 137.13 181.09 137.14 181.02 137.13 180.94 137.13 180.86 137.12 180.79 137.1 180.71 137.08 180.64 137.06 180.57 137.03 180.5 136.99 180.43 136.96 180.37 136.91 180.3 136.87 180.24 136.82 180.18 136.76 180.13 136.71 180.08 136.65 180.03 136.59 179.99 136.52 179.95 136.45 179.91 136.38 179.88 136.31 179.86 136.24 179.84 136.16 179.82 136.09 179.81 136.01 179.8 135.94 179.8"/>
  </g>
  <g id="ID000163">
    <line class="cls-7" x1="129.94" y1="189.39" x2="129.94" y2="210.07"/>
  </g>
  <g id="ID000164">
    <polygon class="cls-6" points="131.74 197.73 130.84 198.73 130.54 199.73 130.39 200.73 129.94 202.73 129.49 200.73 129.34 199.73 129.04 198.73 128.14 197.73 131.74 197.73"/>
  </g>
  <g id="ID000166">
    <text class="cls-18" transform="translate(127.69 215.17)">G</text>
  </g>
  <g id="ID000167">
    <text class="cls-18" transform="translate(127.85 221.16)">U</text>
  </g>
  <g id="ID000168">
    <text class="cls-18" transform="translate(127.85 227.16)">U</text>
  </g>
  <g id="ID000169">
    <text class="cls-18" transform="translate(127.85 233.16)">C</text>
  </g>
  <g id="ID000170">
    <text class="cls-18" transform="translate(127.85 239.15)">C</text>
  </g>
  <g id="ID000171">
    <text class="cls-18" transform="translate(127.85 245.15)">C</text>
  </g>
  <g id="ID000172">
    <text class="cls-19" transform="translate(128.01 251.14)">A</text>
  </g>
  <g id="ID000173">
    <text class="cls-19" transform="translate(132.51 257.14)">A</text>
  </g>
  <g id="ID000174">
    <line class="cls-3" x1="138.43" y1="254.44" x2="142.43" y2="254.44"/>
  </g>
  <g id="ID000175">
    <text class="cls-4" transform="translate(142.43 257.14)">50</text>
  </g>
  <g id="ID000176">
    <text class="cls-19" transform="translate(135.5 261.63)">A</text>
  </g>
  <g id="ID000177">
    <text class="cls-18" transform="translate(135.34 269.12)">U</text>
  </g>
  <g id="ID000178">
    <text class="cls-18" transform="translate(130.85 275.12)">U</text>
  </g>
  <g id="ID000179">
    <text class="cls-18" transform="translate(123.35 276.62)">C</text>
  </g>
  <g id="ID000180">
    <text class="cls-18" transform="translate(115.7 275.12)">G</text>
  </g>
  <g id="ID000181">
    <text class="cls-18" transform="translate(109.7 270.62)">G</text>
  </g>
  <g id="ID000182">
    <text class="cls-18" transform="translate(106.71 263.13)">G</text>
  </g>
  <g id="ID000183">
    <text class="cls-18" transform="translate(109.87 257.14)">C</text>
  </g>
  <g id="ID000184">
    <text class="cls-18" transform="translate(115.86 251.14)">U</text>
  </g>
  <g id="ID000185">
    <text class="cls-18" transform="translate(115.7 245.15)">G</text>
  </g>
  <g id="ID000186">
    <line class="cls-3" x1="113.96" y1="242.45" x2="109.96" y2="242.45"/>
  </g>
  <g id="ID000187">
    <text class="cls-4" transform="translate(103.52 245.15)">60</text>
  </g>
  <g id="ID000188">
    <text class="cls-18" transform="translate(115.7 239.15)">G</text>
  </g>
  <g id="ID000189">
    <text class="cls-18" transform="translate(115.7 233.16)">G</text>
  </g>
  <g id="ID000190">
    <text class="cls-19" transform="translate(116.02 227.16)">A</text>
  </g>
  <g id="ID000191">
    <text class="cls-19" transform="translate(116.02 221.16)">A</text>
  </g>
  <g id="ID000192">
    <text class="cls-18" transform="translate(115.86 215.17)">C</text>
  </g>
  <g id="ID000193">
    <text class="cls-18" transform="translate(114.51 208.98)">C</text>
  </g>
  <g id="ID000194">
    <text class="cls-18" transform="translate(110.46 203.65)">G</text>
  </g>
  <g id="ID000195">
    <line class="cls-3" x1="127.54" y1="212.47" x2="120.35" y2="212.47"/>
  </g>
  <g id="ID000196">
    <line class="cls-3" x1="127.54" y1="218.47" x2="120.35" y2="218.47"/>
  </g>
  <g id="ID000197">
    <line class="cls-3" x1="127.54" y1="224.46" x2="120.35" y2="224.46"/>
  </g>
  <g id="ID000198">
    <line class="cls-3" x1="127.54" y1="230.46" x2="120.35" y2="230.46"/>
  </g>
  <g id="ID000199">
    <line class="cls-3" x1="127.54" y1="236.45" x2="120.35" y2="236.45"/>
  </g>
  <g id="ID000200">
    <line class="cls-3" x1="127.54" y1="242.45" x2="120.35" y2="242.45"/>
  </g>
  <g id="ID000201">
    <line class="cls-3" x1="127.54" y1="248.44" x2="120.35" y2="248.44"/>
  </g>
  <g id="ID000204">
    <text class="cls-18" transform="translate(118.34 196.06)">U</text>
  </g>
  <g id="ID000205">
    <text class="cls-20" transform="translate(120.36 189.69)">C</text>
  </g>
  <g id="ID000206">
    <text class="cls-20" transform="translate(114.2 189.69)">G</text>
  </g>
  <g id="ID000207">
    <text class="cls-20" transform="translate(108.37 189.69)">U</text>
  </g>
  <g id="ID000208">
    <text class="cls-20" transform="translate(102.37 189.69)">U</text>
  </g>
  <g id="ID000209">
    <text class="cls-20" transform="translate(96.38 189.69)">C</text>
  </g>
  <g id="ID000210">
    <text class="cls-20" transform="translate(90.22 189.69)">G</text>
  </g>
  <g id="ID000211">
    <text class="cls-20" transform="translate(84.39 189.69)">U</text>
  </g>
  <g id="ID000212">
    <text class="cls-20" transform="translate(78.23 189.69)">G</text>
  </g>
  <g id="ID000213">
    <text class="cls-20" transform="translate(72.4 189.69)">U</text>
  </g>
  <g id="ID000214">
    <text class="cls-20" transform="translate(66.4 189.69)">U</text>
  </g>
  <g id="ID000215">
    <text class="cls-20" transform="translate(66.24 177.7)">G</text>
  </g>
  <g id="ID000216">
    <text class="cls-20" transform="translate(72.4 177.7)">U</text>
  </g>
  <g id="ID000217">
    <line class="cls-3" x1="74.49" y1="171" x2="74.49" y2="167.01"/>
  </g>
  <g id="ID000218">
    <text class="cls-4" transform="translate(69.66 165.51)">100</text>
  </g>
  <g id="ID000219">
    <text class="cls-20" transform="translate(78.39 177.7)">C</text>
  </g>
  <g id="ID000220">
    <text class="cls-20" transform="translate(84.22 177.7)">G</text>
  </g>
  <g id="ID000221">
    <text class="cls-20" transform="translate(90.38 177.7)">C</text>
  </g>
  <g id="ID000222">
    <text class="cls-20" transform="translate(96.22 177.7)">G</text>
  </g>
  <g id="ID000223">
    <text class="cls-20" transform="translate(102.21 177.7)">G</text>
  </g>
  <g id="ID000224">
    <text class="cls-21" transform="translate(108.53 177.7)">A</text>
  </g>
  <g id="ID000225">
    <text class="cls-20" transform="translate(114.36 177.7)">U</text>
  </g>
  <g id="ID000226">
    <text class="cls-20" transform="translate(120.2 177.7)">G</text>
  </g>
  <g id="ID000227">
    <line class="cls-3" x1="122.45" y1="184.59" x2="122.45" y2="177.4"/>
  </g>
  <g id="ID000228">
    <polygon class="cls-6" points="116.45 179.8 116.38 179.8 116.3 179.81 116.23 179.82 116.15 179.84 116.08 179.86 116.01 179.88 115.94 179.91 115.87 179.95 115.81 179.99 115.74 180.03 115.68 180.08 115.63 180.13 115.57 180.18 115.52 180.24 115.48 180.3 115.43 180.37 115.4 180.43 115.36 180.5 115.33 180.57 115.31 180.64 115.29 180.71 115.27 180.79 115.26 180.86 115.25 180.94 115.25 181.02 115.26 181.09 115.27 181.17 115.28 181.24 115.3 181.32 115.32 181.39 115.35 181.46 115.38 181.53 115.42 181.6 115.45 181.66 115.5 181.72 115.55 181.78 115.6 181.84 115.65 181.89 115.71 181.94 115.77 181.98 115.84 182.03 115.9 182.06 115.97 182.09 116.04 182.12 116.11 182.15 116.19 182.17 116.26 182.18 116.34 182.19 116.42 182.19 116.49 182.19 116.57 182.19 116.64 182.18 116.72 182.17 116.79 182.15 116.86 182.12 116.93 182.09 117 182.06 117.07 182.03 117.13 181.98 117.19 181.94 117.25 181.89 117.31 181.84 117.36 181.78 117.41 181.72 117.45 181.66 117.49 181.6 117.53 181.53 117.56 181.46 117.59 181.39 117.61 181.32 117.63 181.24 117.64 181.17 117.65 181.09 117.65 181.02 117.65 180.94 117.64 180.86 117.63 180.79 117.62 180.71 117.6 180.64 117.57 180.57 117.54 180.5 117.51 180.43 117.47 180.37 117.43 180.3 117.38 180.24 117.33 180.18 117.28 180.13 117.22 180.08 117.16 180.03 117.1 179.99 117.04 179.95 116.97 179.91 116.9 179.88 116.83 179.86 116.75 179.84 116.68 179.82 116.61 179.81 116.53 179.8 116.45 179.8"/>
  </g>
  <g id="ID000229">
    <line class="cls-3" x1="110.46" y1="184.59" x2="110.46" y2="177.4"/>
  </g>
  <g id="ID000230">
    <polygon class="cls-6" points="104.46 179.8 104.39 179.8 104.31 179.81 104.23 179.82 104.16 179.84 104.09 179.86 104.02 179.88 103.95 179.91 103.88 179.95 103.81 179.99 103.75 180.03 103.69 180.08 103.64 180.13 103.58 180.18 103.53 180.24 103.49 180.3 103.44 180.37 103.41 180.43 103.37 180.5 103.34 180.57 103.32 180.64 103.3 180.71 103.28 180.79 103.27 180.86 103.27 180.94 103.26 181.02 103.27 181.09 103.28 181.17 103.29 181.24 103.31 181.32 103.33 181.39 103.36 181.46 103.39 181.53 103.42 181.6 103.46 181.66 103.51 181.72 103.56 181.78 103.61 181.84 103.66 181.89 103.72 181.94 103.78 181.98 103.85 182.03 103.91 182.06 103.98 182.09 104.05 182.12 104.13 182.15 104.2 182.17 104.27 182.18 104.35 182.19 104.42 182.19 104.5 182.19 104.58 182.19 104.65 182.18 104.73 182.17 104.8 182.15 104.87 182.12 104.94 182.09 105.01 182.06 105.08 182.03 105.14 181.98 105.2 181.94 105.26 181.89 105.32 181.84 105.37 181.78 105.42 181.72 105.46 181.66 105.5 181.6 105.54 181.53 105.57 181.46 105.6 181.39 105.62 181.32 105.64 181.24 105.65 181.17 105.66 181.09 105.66 181.02 105.66 180.94 105.65 180.86 105.64 180.79 105.63 180.71 105.61 180.64 105.58 180.57 105.55 180.5 105.52 180.43 105.48 180.37 105.44 180.3 105.39 180.24 105.34 180.18 105.29 180.13 105.23 180.08 105.17 180.03 105.11 179.99 105.05 179.95 104.98 179.91 104.91 179.88 104.84 179.86 104.76 179.84 104.69 179.82 104.61 179.81 104.54 179.8 104.46 179.8"/>
  </g>
  <g id="ID000231">
    <line class="cls-3" x1="98.47" y1="184.59" x2="98.47" y2="177.4"/>
  </g>
  <g id="ID000232">
    <line class="cls-3" x1="92.47" y1="184.59" x2="92.47" y2="177.4"/>
  </g>
  <g id="ID000233">
    <polygon class="cls-6" points="86.48 179.8 86.4 179.8 86.33 179.81 86.25 179.82 86.18 179.84 86.1 179.86 86.03 179.88 85.96 179.91 85.89 179.95 85.83 179.99 85.77 180.03 85.71 180.08 85.65 180.13 85.6 180.18 85.55 180.24 85.5 180.3 85.46 180.37 85.42 180.43 85.39 180.5 85.36 180.57 85.33 180.64 85.31 180.71 85.3 180.79 85.29 180.86 85.28 180.94 85.28 181.02 85.28 181.09 85.29 181.17 85.3 181.24 85.32 181.32 85.34 181.39 85.37 181.46 85.4 181.53 85.44 181.6 85.48 181.66 85.52 181.72 85.57 181.78 85.62 181.84 85.68 181.89 85.74 181.94 85.8 181.98 85.86 182.03 85.93 182.06 86 182.09 86.07 182.12 86.14 182.15 86.21 182.17 86.29 182.18 86.36 182.19 86.44 182.19 86.52 182.19 86.59 182.19 86.67 182.18 86.74 182.17 86.81 182.15 86.89 182.12 86.96 182.09 87.03 182.06 87.09 182.03 87.16 181.98 87.22 181.94 87.28 181.89 87.33 181.84 87.38 181.78 87.43 181.72 87.48 181.66 87.52 181.6 87.55 181.53 87.58 181.46 87.61 181.39 87.63 181.32 87.65 181.24 87.66 181.17 87.67 181.09 87.68 181.02 87.67 180.94 87.67 180.86 87.66 180.79 87.64 180.71 87.62 180.64 87.6 180.57 87.57 180.5 87.53 180.43 87.5 180.37 87.45 180.3 87.41 180.24 87.36 180.18 87.31 180.13 87.25 180.08 87.19 180.03 87.13 179.99 87.06 179.95 86.99 179.91 86.92 179.88 86.85 179.86 86.78 179.84 86.7 179.82 86.63 179.81 86.55 179.8 86.48 179.8"/>
  </g>
  <g id="ID000234">
    <line class="cls-3" x1="80.48" y1="184.59" x2="80.48" y2="177.4"/>
  </g>
  <g id="ID000236">
    <text class="cls-22" transform="translate(59.07 189.69)">A</text>
  </g>
  <g id="ID000237">
    <line class="cls-3" x1="61" y1="190.99" x2="61" y2="194.98"/>
  </g>
  <g id="ID000238">
    <text class="cls-4" transform="translate(57.78 202.06)">80</text>
  </g>
  <g id="ID000239">
    <text class="cls-23" transform="translate(52.91 189.69)">U</text>
  </g>
  <g id="ID000240">
    <text class="cls-23" transform="translate(46.76 189.69)">G</text>
  </g>
  <g id="ID000241">
    <text class="cls-23" transform="translate(40.92 189.69)">C</text>
  </g>
  <g id="ID000242">
    <text class="cls-23" transform="translate(34.93 189.69)">C</text>
  </g>
  <g id="ID000243">
    <text class="cls-23" transform="translate(28.93 194.19)">C</text>
  </g>
  <g id="ID000244">
    <text class="cls-23" transform="translate(22.77 195.69)">G</text>
  </g>
  <g id="ID000245">
    <text class="cls-23" transform="translate(16.94 194.19)">U</text>
  </g>
  <g id="ID000246">
    <text class="cls-22" transform="translate(9.61 189.69)">A</text>
  </g>
  <g id="ID000247">
    <text class="cls-23" transform="translate(7.79 182.2)">G</text>
  </g>
  <g id="ID000248">
    <text class="cls-22" transform="translate(11.1 174.7)">A</text>
  </g>
  <g id="ID000249">
    <line class="cls-3" x1="13.04" y1="168.01" x2="13.04" y2="164.01"/>
  </g>
  <g id="ID000250">
    <text class="cls-4" transform="translate(9.82 162.51)">90</text>
  </g>
  <g id="ID000251">
    <text class="cls-23" transform="translate(16.94 171.7)">U</text>
  </g>
  <g id="ID000252">
    <text class="cls-22" transform="translate(23.09 171.7)">A</text>
  </g>
  <g id="ID000253">
    <text class="cls-23" transform="translate(28.93 174.7)">U</text>
  </g>
  <g id="ID000254">
    <text class="cls-23" transform="translate(34.76 177.7)">G</text>
  </g>
  <g id="ID000255">
    <text class="cls-23" transform="translate(40.76 177.7)">G</text>
  </g>
  <g id="ID000256">
    <text class="cls-23" transform="translate(46.92 177.7)">C</text>
  </g>
  <g id="ID000257">
    <text class="cls-22" transform="translate(53.07 177.7)">A</text>
  </g>
  <g id="ID000258">
    <text class="cls-22" transform="translate(59.07 177.7)">A</text>
  </g>
  <g id="ID000259">
    <line class="cls-3" x1="55" y1="184.59" x2="55" y2="177.4"/>
  </g>
  <g id="ID000260">
    <line class="cls-3" x1="49.01" y1="184.59" x2="49.01" y2="177.4"/>
  </g>
  <g id="ID000261">
    <line class="cls-3" x1="43.01" y1="184.59" x2="43.01" y2="177.4"/>
  </g>
  <g id="ID000262">
    <line class="cls-3" x1="37.02" y1="184.59" x2="37.02" y2="177.4"/>
  </g>
  <g id="ID000204-2" data-name="ID000204">
    <text class="cls-18" transform="translate(113.05 197.9)">U</text>
  </g>
  <text class="cls-24" transform="translate(376.04 201.68)">5<tspan class="cls-25" x="6.67" y="0">’</tspan></text>
  <text class="cls-24" transform="translate(389.17 168.99)">3<tspan class="cls-25" x="6.67" y="0">’</tspan></text>
  <text class="cls-26" transform="translate(8.1 29.57)">PKC-6 aptamer</text>
</svg>
