<?xml version="1.0" encoding="utf-8"?>
<!-- Generator: Adobe Illustrator 25.2.0, SVG Export Plug-In . SVG Version: 6.00 Build 0)  -->
<svg version="1.1" id="图层_1" xmlns="http://www.w3.org/2000/svg" xmlns:xlink="http://www.w3.org/1999/xlink" x="0px" y="0px"
	 viewBox="0 0 800 400" style="enable-background:new 0 0 800 400;" xml:space="preserve">
<style type="text/css">
	.st0{fill:#0A0BFF;}
	.st1{font-family:'ArialMT';}
	.st2{font-size:14.6991px;}
	.st3{fill:none;stroke:#000000;stroke-width:0.1724;stroke-miterlimit:1.3793;}
	.st4{fill:#FF870A;}
	.st5{stroke:#000000;stroke-width:0.1724;stroke-miterlimit:1.3793;}
	.st6{fill:#33CC33;}
	.st7{font-size:20px;}
	.st8{font-size:15px;}
</style>
<g id="ID000002">
	<g>
		<g transform="translate(382.378,111.880)">
			<g transform="rotate(-0.0)">
				<text transform="matrix(1 0 0 1 -69.6499 -6.1867)" class="st0 st1 st2">G</text>
			</g>
		</g>
	</g>
</g>
<g id="ID000003">
	<g>
		<g transform="translate(366.063,111.880)">
			<g transform="rotate(-0.0)">
				<text transform="matrix(1 0 0 1 -68.3242 -6.1867)" class="st0 st1 st2">G</text>
			</g>
		</g>
	</g>
</g>
<g id="ID000004">
	<g>
		<g transform="translate(349.748,111.880)">
			<g transform="rotate(-0.0)">
				<text transform="matrix(1 0 0 1 -66.9984 -6.1867)" class="st0 st1 st2">G</text>
			</g>
		</g>
	</g>
</g>
<g id="ID000005">
	<g transform="translate(333.433,124.117)">
		<g transform="rotate(-0.0)">
			<text transform="matrix(1 0 0 1 -64.8573 -7.1815)" class="st0 st1 st2">A</text>
		</g>
	</g>
</g>
<g id="ID000006">
	<g transform="translate(313.039,120.038)">
		<g transform="rotate(-0.0)">
			<text transform="matrix(1 0 0 1 -63.1996 -6.8491)" class="st0 st1 st2">A</text>
		</g>
	</g>
</g>
<g id="ID000007">
	<g transform="translate(296.724,107.802)">
		<g transform="rotate(-0.0)">
			<text transform="matrix(1 0 0 1 -62.2801 -5.8553)" class="st0 st1 st2">U</text>
		</g>
	</g>
</g>
<g id="ID000008">
	<g transform="translate(296.724,87.408)">
		<g transform="rotate(-0.0)">
			<text transform="matrix(1 0 0 1 -62.6883 -4.1971)" class="st0 st1 st2">G</text>
		</g>
	</g>
</g>
<g id="ID000009">
	<g transform="translate(313.039,71.093)">
		<g transform="rotate(-0.0)">
			<text transform="matrix(1 0 0 1 -64.0131 -2.8714)" class="st0 st1 st2">G</text>
		</g>
	</g>
</g>
<g id="ID000010">
	<g transform="translate(333.433,71.093)">
		<g transform="rotate(-0.0)">
			<text transform="matrix(1 0 0 1 -64.8573 -2.8714)" class="st0 st1 st2">A</text>
		</g>
	</g>
</g>
<g id="ID000011">
	<g>
		<g transform="translate(349.748,79.250)">
			<g transform="rotate(-0.0)">
				<text transform="matrix(1 0 0 1 -66.5892 -3.5318)" class="st0 st1 st2">U</text>
			</g>
		</g>
	</g>
</g>
<g id="ID000012">
	<line class="st3" x1="288.5" y1="59" x2="288.5" y2="49.1"/>
</g>
<g id="ID000013">
	<g transform="translate(349.748,46.076)">
		<g transform="rotate(-0.0)">
			<text transform="matrix(1 0 0 1 -69.4574 -0.8358)" class="st1 st2">10</text>
		</g>
	</g>
</g>
<g id="ID000014">
	<g>
		<g transform="translate(366.063,79.250)">
			<g transform="rotate(-0.0)">
				<text transform="matrix(1 0 0 1 -67.916 -3.5318)" class="st0 st1 st2">C</text>
			</g>
		</g>
	</g>
</g>
<g id="ID000015">
	<g>
		<g transform="translate(382.378,79.250)">
			<g transform="rotate(-0.0)">
				<text transform="matrix(1 0 0 1 -69.2417 -3.5318)" class="st0 st1 st2">C</text>
			</g>
		</g>
	</g>
</g>
<g id="ID000016">
	<g transform="translate(402.772,71.093)">
		<g transform="rotate(-0.0)">
			<text transform="matrix(1 0 0 1 -70.4941 -2.8714)" class="st0 st1 st2">A</text>
		</g>
	</g>
</g>
<g id="ID000023">
	<g transform="translate(419.087,67.014)">
		<g transform="rotate(-0.0)">
			<text transform="matrix(1 0 0 1 -72.2261 -2.5389)" class="st0 st1 st2">C</text>
		</g>
	</g>
</g>
<g id="ID000024">
	<g transform="translate(439.481,71.093)">
		<g transform="rotate(-0.0)">
			<text transform="matrix(1 0 0 1 -73.4795 -2.8714)" class="st4 st1 st2">A</text>
		</g>
	</g>
</g>
<g id="ID000025">
	<g transform="translate(455.796,71.093)">
		<g transform="rotate(-0.0)">
			<text transform="matrix(1 0 0 1 -75.2105 -2.8714)" class="st4 st1 st2">U</text>
		</g>
	</g>
</g>
<g id="ID000026">
	<g transform="translate(472.111,71.093)">
		<g transform="rotate(-0.0)">
			<text transform="matrix(1 0 0 1 -76.5362 -2.8714)" class="st4 st1 st2">C</text>
		</g>
	</g>
</g>
<g id="ID000027">
	<g transform="translate(488.426,71.093)">
		<g transform="rotate(-0.0)">
			<text transform="matrix(1 0 0 1 -77.863 -2.8714)" class="st4 st1 st2">U</text>
		</g>
	</g>
</g>
<g id="ID000028">
	<g transform="translate(504.741,71.093)">
		<g transform="rotate(-0.0)">
			<text transform="matrix(1 0 0 1 -78.7834 -2.8714)" class="st4 st1 st2">A</text>
		</g>
	</g>
</g>
<g id="ID000029">
	<g transform="translate(521.056,71.093)">
		<g transform="rotate(-0.0)">
			<text transform="matrix(1 0 0 1 -80.5155 -2.8714)" class="st4 st1 st2">C</text>
		</g>
	</g>
</g>
<g id="ID000030">
	<line class="st3" x1="445.9" y1="51.5" x2="445.9" y2="41.4"/>
</g>
<g id="ID000031">
	<g transform="translate(521.056,37.919)">
		<g transform="rotate(-0.0)">
			<text transform="matrix(1 0 0 1 -83.3826 -0.1744)" class="st1 st2">20</text>
		</g>
	</g>
</g>
<g id="ID000032">
	<g transform="translate(537.371,71.093)">
		<g transform="rotate(-0.0)">
			<text transform="matrix(1 0 0 1 -82.2523 -2.8714)" class="st4 st1 st2">G</text>
		</g>
	</g>
</g>
<g id="ID000033">
	<g transform="translate(553.686,71.093)">
		<g transform="rotate(-0.0)">
			<text transform="matrix(1 0 0 1 -82.7636 -2.8714)" class="st4 st1 st2">A</text>
		</g>
	</g>
</g>
<g id="ID000034">
	<g>
		<g transform="translate(570.001,62.935)">
			<g transform="rotate(-0.0)">
				<text transform="matrix(1 0 0 1 -84.0883 -2.2065)" class="st4 st1 st2">A</text>
			</g>
		</g>
	</g>
</g>
<g id="ID000035">
	<g>
		<g transform="translate(582.238,124.117)">
			<g transform="rotate(-0.0)">
				<text transform="matrix(1 0 0 1 -85.4904 -7.1815)" class="st4 st1 st2">U</text>
			</g>
		</g>
	</g>
</g>
<g id="ID000036">
	<g>
		<g transform="translate(565.923,115.959)">
			<g transform="rotate(-0.0)">
				<text transform="matrix(1 0 0 1 -84.5728 -6.5167)" class="st4 st1 st2">G</text>
			</g>
		</g>
	</g>
</g>
<g id="ID000037">
	<g transform="translate(553.686,103.723)">
		<g transform="rotate(-0.0)">
			<text transform="matrix(1 0 0 1 -83.1698 -5.5233)" class="st4 st1 st2">U</text>
		</g>
	</g>
</g>
<g id="ID000038">
	<g transform="translate(537.371,103.723)">
		<g transform="rotate(-0.0)">
			<text transform="matrix(1 0 0 1 -81.8441 -5.5233)" class="st4 st1 st2">C</text>
		</g>
	</g>
</g>
<g id="ID000039">
	<g transform="translate(521.056,103.723)">
		<g transform="rotate(-0.0)">
			<text transform="matrix(1 0 0 1 -80.9266 -5.5233)" class="st4 st1 st2">G</text>
		</g>
	</g>
</g>
<g id="ID000040">
	<g transform="translate(504.741,103.723)">
		<g transform="rotate(-0.0)">
			<text transform="matrix(1 0 0 1 -79.1887 -5.5233)" class="st4 st1 st2">U</text>
		</g>
	</g>
</g>
<g id="ID000041">
	<line class="st3" x1="430.8" y1="101.3" x2="430.8" y2="111.5"/>
</g>
<g id="ID000042">
	<g transform="translate(504.741,137.386)">
		<g transform="rotate(-0.0)">
			<text transform="matrix(1 0 0 1 -82.0559 -8.2586)" class="st1 st2">40</text>
		</g>
	</g>
</g>
<g id="ID000043">
	<g transform="translate(488.426,103.723)">
		<g transform="rotate(-0.0)">
			<text transform="matrix(1 0 0 1 -77.4567 -5.5233)" class="st4 st1 st2">A</text>
		</g>
	</g>
</g>
<g id="ID000044">
	<g transform="translate(472.111,103.723)">
		<g transform="rotate(-0.0)">
			<text transform="matrix(1 0 0 1 -76.9454 -5.5233)" class="st4 st1 st2">G</text>
		</g>
	</g>
</g>
<g id="ID000045">
	<g transform="translate(455.796,103.723)">
		<g transform="rotate(-0.0)">
			<text transform="matrix(1 0 0 1 -74.8042 -5.5233)" class="st4 st1 st2">A</text>
		</g>
	</g>
</g>
<g id="ID000046">
	<g transform="translate(439.481,103.723)">
		<g transform="rotate(-0.0)">
			<text transform="matrix(1 0 0 1 -73.8848 -5.5233)" class="st4 st1 st2">U</text>
		</g>
	</g>
</g>
<g id="ID000047">
	<g>
		<g transform="translate(443.560,124.117)">
			<g transform="rotate(-0.0)">
				<text transform="matrix(1 0 0 1 -73.8104 -7.1815)" class="st4 st1 st2">A</text>
			</g>
		</g>
	</g>
</g>
<g id="ID000048">
	<line class="st3" x1="370.8" y1="68.5" x2="370.8" y2="86.4"/>
</g>
<g id="ID000049">
	<line class="st3" x1="386" y1="68.5" x2="386" y2="86.4"/>
</g>
<g id="ID000050">
	<line class="st3" x1="400.9" y1="68.5" x2="400.9" y2="86.4"/>
</g>
<g id="ID000051">
	<line class="st3" x1="415.8" y1="68.5" x2="415.8" y2="86.4"/>
</g>
<g id="ID000052">
	<line class="st3" x1="430.8" y1="67.5" x2="430.8" y2="85.4"/>
</g>
<g id="ID000053">
	<line class="st3" x1="445.9" y1="68.5" x2="445.9" y2="86.4"/>
</g>
<g id="ID000054">
	<line class="st3" x1="460.9" y1="68.5" x2="460.9" y2="86.4"/>
</g>
<g id="ID000055">
	<line class="st3" x1="475.8" y1="68.5" x2="475.8" y2="86.4"/>
</g>
<g id="ID000057">
	<g>
		<g transform="translate(590.395,62.935)">
			<g transform="rotate(-0.0)">
				<text transform="matrix(1 0 0 1 -86.1543 -2.2065)" class="st4 st1 st2">U</text>
			</g>
		</g>
	</g>
</g>
<g id="ID000058">
	<g transform="translate(610.789,71.093)">
		<g transform="rotate(-0.0)">
			<text transform="matrix(1 0 0 1 -87.81 -2.8714)" class="st4 st1 st2">U</text>
		</g>
	</g>
</g>
<g id="ID000059">
	<g transform="translate(627.104,71.093)">
		<g transform="rotate(-0.0)">
			<text transform="matrix(1 0 0 1 -89.1367 -2.8714)" class="st4 st1 st2">C</text>
		</g>
	</g>
</g>
<g id="ID000060">
	<g>
		<g transform="translate(643.419,67.014)">
			<g transform="rotate(-0.0)">
				<text transform="matrix(1 0 0 1 -90.8736 -2.5389)" class="st4 st1 st2">G</text>
			</g>
		</g>
	</g>
</g>
<g id="ID000061">
	<g>
		<g transform="translate(663.813,67.014)">
			<g transform="rotate(-0.0)">
				<text transform="matrix(1 0 0 1 -92.5302 -2.5389)" class="st4 st1 st2">G</text>
			</g>
		</g>
	</g>
</g>
<g id="ID000062">
	<g>
		<g transform="translate(680.128,83.329)">
			<g transform="rotate(-0.0)">
				<text transform="matrix(1 0 0 1 -93.4497 -3.8652)" class="st4 st1 st2">U</text>
			</g>
		</g>
	</g>
</g>
<g id="ID000063">
	<g>
		<g transform="translate(667.892,103.723)">
			<g transform="rotate(-0.0)">
				<text transform="matrix(1 0 0 1 -92.454 -5.5233)" class="st4 st1 st2">U</text>
			</g>
		</g>
	</g>
</g>
<g id="ID000064">
	<line class="st3" x1="580.8" y1="101.3" x2="580.8" y2="111.5"/>
</g>
<g id="ID000065">
	<g transform="translate(667.892,137.386)">
		<g transform="rotate(-0.0)">
			<text transform="matrix(1 0 0 1 -95.3202 -8.2586)" class="st1 st2">30</text>
		</g>
	</g>
</g>
<g id="ID000066">
	<g>
		<g transform="translate(647.498,111.880)">
			<g transform="rotate(-0.0)">
				<text transform="matrix(1 0 0 1 -91.2055 -6.1867)" class="st4 st1 st2">G</text>
			</g>
		</g>
	</g>
</g>
<g id="ID000067">
	<g transform="translate(627.104,103.723)">
		<g transform="rotate(-0.0)">
			<text transform="matrix(1 0 0 1 -89.5468 -5.5233)" class="st4 st1 st2">G</text>
		</g>
	</g>
</g>
<g id="ID000068">
	<g transform="translate(610.789,103.723)">
		<g transform="rotate(-0.0)">
			<text transform="matrix(1 0 0 1 -88.2201 -5.5233)" class="st4 st1 st2">G</text>
		</g>
	</g>
</g>
<g id="ID000069">
	<g>
		<g transform="translate(594.474,120.038)">
			<g transform="rotate(-0.0)">
				<text transform="matrix(1 0 0 1 -86.4832 -6.8491)" class="st4 st1 st2">U</text>
			</g>
		</g>
	</g>
</g>
<g id="ID000070">
	<polygon class="st5" points="528.3,79.5 528.5,79.5 528.5,79.5 528.8,79.5 529.1,79.5 529.3,79.2 529.3,79.2 529.6,79.2 529.9,79 
		529.9,79 530.1,79 530.1,78.7 530.4,78.7 530.4,78.4 530.7,78.4 530.7,78.2 530.9,78.2 530.9,77.9 530.9,77.6 531.2,77.6 
		531.2,77.4 531.2,77.1 531.2,77.1 531.2,76.8 531.2,76.6 531.2,76.3 531.2,76.3 531.2,76 531.2,75.8 531.2,75.8 531.2,75.5 
		530.9,75.2 530.9,75.2 530.9,75 530.7,74.7 530.7,74.7 530.7,74.4 530.4,74.4 530.4,74.2 530.1,74.2 529.9,73.9 529.9,73.9 
		529.6,73.9 529.6,73.6 529.3,73.6 529.1,73.6 529.1,73.6 528.8,73.6 528.5,73.4 528.3,73.4 528.3,73.4 528,73.4 527.7,73.6 
		527.7,73.6 527.5,73.6 527.2,73.6 527.2,73.6 526.9,73.9 526.7,73.9 526.7,73.9 526.4,74.2 526.4,74.2 526.1,74.4 526.1,74.4 
		525.9,74.7 525.9,74.7 525.6,75 525.6,75.2 525.6,75.2 525.3,75.5 525.3,75.8 525.3,75.8 525.3,76 525.3,76.3 525.3,76.3 
		525.3,76.6 525.3,76.8 525.3,77.1 525.3,77.1 525.3,77.4 525.6,77.6 525.6,77.6 525.6,77.9 525.6,78.2 525.9,78.2 525.9,78.4 
		526.1,78.4 526.1,78.7 526.4,78.7 526.4,79 526.7,79 526.9,79 526.9,79.2 527.2,79.2 527.5,79.2 527.5,79.5 527.7,79.5 528,79.5 
		528,79.5 	"/>
</g>
<g id="ID000071">
	<line class="st3" x1="543.2" y1="70.6" x2="543.2" y2="85.4"/>
</g>
<g id="ID000073">
	<g transform="translate(435.402,144.510)">
		<g transform="rotate(-0.0)">
			<text transform="matrix(1 0 0 1 -73.961 -8.8396)" class="st6 st1 st2">G</text>
		</g>
	</g>
</g>
<g id="ID000074">
	<g transform="translate(435.402,160.826)">
		<g transform="rotate(-0.0)">
			<text transform="matrix(1 0 0 1 -73.1466 -10.1654)" class="st6 st1 st2">A</text>
		</g>
	</g>
</g>
<g id="ID000075">
	<g transform="translate(435.402,177.141)">
		<g transform="rotate(-0.0)">
			<text transform="matrix(1 0 0 1 -73.961 -11.4921)" class="st6 st1 st2">G</text>
		</g>
	</g>
</g>
<g id="ID000076">
	<g transform="translate(435.402,193.456)">
		<g transform="rotate(-0.0)">
			<text transform="matrix(1 0 0 1 -73.5528 -12.8183)" class="st6 st1 st2">C</text>
		</g>
	</g>
</g>
<g id="ID000077">
	<g transform="translate(451.717,209.771)">
		<g transform="rotate(-0.0)">
			<text transform="matrix(1 0 0 1 -75.2868 -14.1455)" class="st6 st1 st2">G</text>
		</g>
	</g>
</g>
<g id="ID000078">
	<line class="st3" x1="392.1" y1="189" x2="402.3" y2="189"/>
</g>
<g id="ID000079">
	<g transform="translate(473.471,209.771)">
		<g transform="rotate(-0.0)">
			<text transform="matrix(1 0 0 1 -71.3396 -14.1455)" class="st1 st2">50</text>
		</g>
	</g>
</g>
<g id="ID000080">
	<g transform="translate(459.875,230.164)">
		<g transform="rotate(-0.0)">
			<text transform="matrix(1 0 0 1 -75.5434 -15.8012)" class="st6 st1 st2">C</text>
		</g>
	</g>
</g>
<g id="ID000081">
	<g transform="translate(382.378,217.928)">
		<g transform="rotate(-0.0)">
			<text transform="matrix(1 0 0 1 -68.8355 -14.8079)" class="st6 st1 st2">A</text>
		</g>
	</g>
</g>
<g id="ID000082">
	<g transform="translate(390.536,205.692)">
		<g transform="rotate(-0.0)">
			<text transform="matrix(1 0 0 1 -69.5013 -13.8117)" class="st6 st1 st2">A</text>
		</g>
	</g>
</g>
<g id="ID000083">
	<g transform="translate(402.772,193.456)">
		<g transform="rotate(-0.0)">
			<text transform="matrix(1 0 0 1 -71.3086 -12.8183)" class="st6 st1 st2">G</text>
		</g>
	</g>
</g>
<g id="ID000084">
	<g transform="translate(402.772,177.141)">
		<g transform="rotate(-0.0)">
			<text transform="matrix(1 0 0 1 -70.8994 -11.4921)" class="st6 st1 st2">C</text>
		</g>
	</g>
</g>
<g id="ID000085">
	<g transform="translate(402.772,160.826)">
		<g transform="rotate(-0.0)">
			<text transform="matrix(1 0 0 1 -70.8994 -10.1654)" class="st6 st1 st2">U</text>
		</g>
	</g>
</g>
<g id="ID000086">
	<g transform="translate(402.772,144.510)">
		<g transform="rotate(-0.0)">
			<text transform="matrix(1 0 0 1 -70.8994 -8.8396)" class="st6 st1 st2">U</text>
		</g>
	</g>
</g>
<g id="ID000089">
	<polygon class="st5" points="349.2,129 349.2,129 349.2,129.3 349.2,129.6 349.2,129.6 349.2,129.8 349.5,130.1 349.5,130.1 
		349.5,130.4 349.8,130.6 349.8,130.6 349.8,130.9 350,130.9 350,131.2 350.3,131.2 350.3,131.4 350.6,131.4 350.8,131.4 
		350.8,131.7 351.1,131.7 351.4,131.7 351.4,131.7 351.6,132 351.9,132 351.9,132 352.2,132 352.4,132 352.7,132 352.7,132 
		353,131.7 353.2,131.7 353.2,131.7 353.5,131.7 353.8,131.4 353.8,131.4 354,131.4 354,131.2 354.3,131.2 354.3,130.9 354.6,130.9 
		354.6,130.6 354.8,130.4 354.8,130.4 354.8,130.1 355.1,129.8 355.1,129.8 355.1,129.6 355.1,129.3 355.1,129.3 355.1,129 
		355.1,128.8 355.1,128.5 355.1,128.5 355.1,128.2 355.1,128 355.1,128 354.8,127.7 354.8,127.4 354.8,127.4 354.6,127.2 
		354.6,127.2 354.3,126.9 354.3,126.9 354,126.6 354,126.6 353.8,126.4 353.8,126.4 353.5,126.1 353.2,126.1 353.2,126.1 353,126.1 
		352.7,126.1 352.7,125.8 352.4,125.8 352.2,125.8 351.9,125.8 351.9,125.8 351.6,125.8 351.4,126.1 351.4,126.1 351.1,126.1 
		350.8,126.1 350.8,126.4 350.6,126.4 350.3,126.4 350.3,126.6 350,126.6 350,126.9 349.8,126.9 349.8,127.2 349.8,127.2 
		349.5,127.4 349.5,127.7 349.5,127.7 349.2,128 349.2,128.2 349.2,128.2 349.2,128.5 349.2,128.8 	"/>
</g>
<g id="ID000090">
	<line class="st3" x1="361.2" y1="144" x2="343.1" y2="144"/>
</g>
<g id="ID000091">
	<line class="st3" x1="361.2" y1="158.9" x2="343.1" y2="158.9"/>
</g>
<g id="ID000092">
	<line class="st3" x1="361.2" y1="173.8" x2="343.1" y2="173.8"/>
</g>
<g id="ID000094">
	<g transform="translate(447.639,246.480)">
		<g transform="rotate(-0.0)">
			<text transform="matrix(1 0 0 1 -74.5467 -17.128)" class="st6 st1 st2">U</text>
		</g>
	</g>
</g>
<g id="ID000095">
	<g transform="translate(435.402,258.716)">
		<g transform="rotate(-0.0)">
			<text transform="matrix(1 0 0 1 -73.5528 -18.1218)" class="st6 st1 st2">U</text>
		</g>
	</g>
</g>
<g id="ID000096">
	<g transform="translate(435.402,275.031)">
		<g transform="rotate(-0.0)">
			<text transform="matrix(1 0 0 1 -73.5528 -19.4515)" class="st6 st1 st2">C</text>
		</g>
	</g>
</g>
<g id="ID000097">
	<g transform="translate(435.402,291.346)">
		<g transform="rotate(-0.0)">
			<text transform="matrix(1 0 0 1 -73.1466 -20.7782)" class="st6 st1 st2">A</text>
		</g>
	</g>
</g>
<g id="ID000098">
	<g transform="translate(435.402,307.661)">
		<g transform="rotate(-0.0)">
			<text transform="matrix(1 0 0 1 -73.1466 -22.102)" class="st6 st1 st2">A</text>
		</g>
	</g>
</g>
<g id="ID000099">
	<g transform="translate(447.639,323.976)">
		<g transform="rotate(-0.0)">
			<text transform="matrix(1 0 0 1 -74.5467 -23.4277)" class="st6 st1 st2">U</text>
		</g>
	</g>
</g>
<g id="ID000100">
	<g transform="translate(390.536,323.976)">
		<g transform="rotate(-0.0)">
			<text transform="matrix(1 0 0 1 -69.9036 -23.4277)" class="st6 st1 st2">C</text>
		</g>
	</g>
</g>
<g id="ID000101">
	<g transform="translate(402.772,307.661)">
		<g transform="rotate(-0.0)">
			<text transform="matrix(1 0 0 1 -70.8994 -22.102)" class="st6 st1 st2">U</text>
		</g>
	</g>
</g>
<g id="ID000102">
	<g transform="translate(402.772,291.346)">
		<g transform="rotate(-0.0)">
			<text transform="matrix(1 0 0 1 -70.8994 -20.7782)" class="st6 st1 st2">U</text>
		</g>
	</g>
</g>
<g id="ID000103">
	<line class="st3" x1="327.1" y1="263.9" x2="317.3" y2="263.9"/>
</g>
<g id="ID000104">
	<g transform="translate(381.019,291.346)">
		<g transform="rotate(-0.0)">
			<text transform="matrix(1 0 0 1 -80.1738 -20.7782)" class="st1 st2">70</text>
		</g>
	</g>
</g>
<g id="ID000105">
	<g transform="translate(402.772,275.031)">
		<g transform="rotate(-0.0)">
			<text transform="matrix(1 0 0 1 -71.3086 -19.4515)" class="st6 st1 st2">G</text>
		</g>
	</g>
</g>
<g id="ID000106">
	<g transform="translate(402.772,258.716)">
		<g transform="rotate(-0.0)">
			<text transform="matrix(1 0 0 1 -70.4941 -18.1218)" class="st6 st1 st2">A</text>
		</g>
	</g>
</g>
<g id="ID000107">
	<g transform="translate(390.536,246.480)">
		<g transform="rotate(-0.0)">
			<text transform="matrix(1 0 0 1 -69.9036 -17.128)" class="st6 st1 st2">C</text>
		</g>
	</g>
</g>
<g id="ID000108">
	<g transform="translate(378.300,234.243)">
		<g transform="rotate(-0.0)">
			<text transform="matrix(1 0 0 1 -69.319 -16.1346)" class="st6 st1 st2">G</text>
		</g>
	</g>
</g>
<g id="ID000109">
	<line class="st3" x1="361.2" y1="233.7" x2="343.1" y2="233.7"/>
</g>
<g id="ID000110">
	<line class="st3" x1="361.2" y1="248.9" x2="343.1" y2="248.9"/>
</g>
<g id="ID000111">
	<line class="st3" x1="361.2" y1="263.9" x2="343.1" y2="263.9"/>
</g>
<g id="ID000112">
	<line class="st3" x1="361.2" y1="278.8" x2="343.1" y2="278.8"/>
</g>
<g id="ID000114">
	<g transform="translate(435.402,344.370)">
		<g transform="rotate(-0.0)">
			<text transform="matrix(1 0 0 1 -73.5528 -25.0883)" class="st6 st1 st2">U</text>
		</g>
	</g>
</g>
<g id="ID000115">
	<g transform="translate(435.402,360.685)">
		<g transform="rotate(-0.0)">
			<text transform="matrix(1 0 0 1 -73.5528 -26.4121)" class="st6 st1 st2">C</text>
		</g>
	</g>
</g>
<g id="ID000116">
	<g transform="translate(447.639,377.000)">
		<g transform="rotate(-0.0)">
			<text transform="matrix(1 0 0 1 -74.1414 -27.7398)" class="st6 st1 st2">A</text>
		</g>
	</g>
</g>
<g id="ID000117">
	<line class="st3" x1="388.4" y1="342.4" x2="398.3" y2="342.4"/>
</g>
<g id="ID000118">
	<g transform="translate(469.392,377.000)">
		<g transform="rotate(-0.0)">
			<text transform="matrix(1 0 0 1 -71.0077 -27.7398)" class="st1 st2">60</text>
		</g>
	</g>
</g>
<g id="ID000119">
	<g transform="translate(443.560,397.394)">
		<g transform="rotate(-0.0)">
			<text transform="matrix(1 0 0 1 -74.2147 -29.3984)" class="st6 st1 st2">C</text>
		</g>
	</g>
</g>
<g id="ID000120">
	<g transform="translate(427.245,409.630)">
		<g transform="rotate(-0.0)">
			<text transform="matrix(1 0 0 1 -72.889 -30.3913)" class="st6 st1 st2">U</text>
		</g>
	</g>
</g>
<g id="ID000121">
	<g transform="translate(406.851,409.630)">
		<g transform="rotate(-0.0)">
			<text transform="matrix(1 0 0 1 -71.6415 -30.3913)" class="st6 st1 st2">G</text>
		</g>
	</g>
</g>
<g id="ID000122">
	<g transform="translate(390.536,397.394)">
		<g transform="rotate(-0.0)">
			<text transform="matrix(1 0 0 1 -69.9036 -29.3984)" class="st6 st1 st2">C</text>
		</g>
	</g>
</g>
<g id="ID000123">
	<g transform="translate(386.457,377.000)">
		<g transform="rotate(-0.0)">
			<text transform="matrix(1 0 0 1 -69.1684 -27.7398)" class="st6 st1 st2">A</text>
		</g>
	</g>
</g>
<g id="ID000124">
	<g transform="translate(402.772,360.685)">
		<g transform="rotate(-0.0)">
			<text transform="matrix(1 0 0 1 -71.3086 -26.4121)" class="st6 st1 st2">G</text>
		</g>
	</g>
</g>
<g id="ID000125">
	<g transform="translate(402.772,344.370)">
		<g transform="rotate(-0.0)">
			<text transform="matrix(1 0 0 1 -70.4941 -25.0883)" class="st6 st1 st2">A</text>
		</g>
	</g>
</g>
<g id="ID000126">
	<line class="st3" x1="361.2" y1="312.6" x2="343.1" y2="312.6"/>
</g>
<g id="ID000127">
	<line class="st3" x1="361.2" y1="327.5" x2="343.1" y2="327.5"/>
</g>
<text transform="matrix(1 0 0 1 17.2245 40.4121)" class="st1 st7">polβ aptamer</text>
<text transform="matrix(1 0 0 1 327.1219 113.3652)" class="st1 st8">5’</text>
<text transform="matrix(1 0 0 1 316.4874 140.1362)" class="st1 st8">3’</text>
<g id="ID000048_1_">
	<line class="st3" x1="319.4" y1="77.1" x2="319.4" y2="92.6"/>
</g>
<g id="ID000048_2_">
	<line class="st3" x1="303.5" y1="77.1" x2="303.5" y2="92.6"/>
</g>
<g id="ID000089_1_">
	<polygon class="st5" points="285.6,85 285.6,85 285.6,85.3 285.6,85.6 285.6,85.6 285.6,85.8 285.8,86.1 285.8,86.1 285.8,86.4 
		286.1,86.6 286.1,86.6 286.1,86.9 286.4,86.9 286.4,87.2 286.6,87.2 286.6,87.4 286.9,87.4 287.2,87.4 287.2,87.7 287.4,87.7 
		287.7,87.7 287.7,87.7 288,88 288.2,88 288.2,88 288.5,88 288.8,88 289,88 289,88 289.3,87.7 289.6,87.7 289.6,87.7 289.8,87.7 
		290.1,87.4 290.1,87.4 290.4,87.4 290.4,87.2 290.6,87.2 290.6,86.9 290.9,86.9 290.9,86.6 291.2,86.4 291.2,86.4 291.2,86.1 
		291.4,85.8 291.4,85.8 291.4,85.6 291.4,85.3 291.4,85.3 291.4,85 291.4,84.8 291.4,84.5 291.4,84.5 291.4,84.2 291.4,84 291.4,84 
		291.2,83.7 291.2,83.4 291.2,83.4 290.9,83.2 290.9,83.2 290.6,82.9 290.6,82.9 290.4,82.6 290.4,82.6 290.1,82.4 290.1,82.4 
		289.8,82.1 289.6,82.1 289.6,82.1 289.3,82.1 289,82.1 289,81.8 288.8,81.8 288.5,81.8 288.2,81.8 288.2,81.8 288,81.8 287.7,82.1 
		287.7,82.1 287.4,82.1 287.2,82.1 287.2,82.4 286.9,82.4 286.6,82.4 286.6,82.6 286.4,82.6 286.4,82.9 286.1,82.9 286.1,83.2 
		286.1,83.2 285.8,83.4 285.8,83.7 285.8,83.7 285.6,84 285.6,84.2 285.6,84.2 285.6,84.5 285.6,84.8 	"/>
</g>
</svg>
