<?xml version="1.0" encoding="utf-8"?>
<!-- Generator: Adobe Illustrator 25.2.0, SVG Export Plug-In . SVG Version: 6.00 Build 0)  -->
<svg version="1.1" id="图层_1" xmlns="http://www.w3.org/2000/svg" xmlns:xlink="http://www.w3.org/1999/xlink" x="0px" y="0px"
	 viewBox="0 0 800 400" style="enable-background:new 0 0 800 400;" xml:space="preserve">
<style type="text/css">
	.st0{fill:#CC00FF;}
	.st1{font-family:'ArialMT';}
	.st2{font-size:16.1203px;}
	.st3{fill:none;stroke:#000000;stroke-width:0.38;stroke-miterlimit:3.05;}
	.st4{font-size:12.8962px;}
	.st5{font-size:12.3589px;}
	.st6{font-size:10.7469px;}
	.st7{fill:#80DB9E;}
	.st8{letter-spacing:-1;}
	.st9{font-size:25px;}
	.st10{fill:#3399FF;}
	.st11{fill:#FF3399;}
	.st12{fill:#FF9933;}
	.st13{fill:none;stroke:#000000;stroke-width:0.38;stroke-miterlimit:3.05;stroke-dasharray:13.255,13.255;}
	.st14{fill:none;stroke:#000000;stroke-width:0.38;stroke-miterlimit:3.05;stroke-dasharray:13.28,13.28;}
</style>
<g id="ID000002">
	<text transform="matrix(1 0 0 1 366.6382 386.9225)" class="st0 st1 st2">C</text>
</g>
<g id="ID000003">
	<g>
		<text transform="matrix(1 0 0 1 379.4585 294.9576)" class="st0 st1 st2">U</text>
	</g>
</g>
<g id="ID000006">
	<text transform="matrix(1 0 0 1 320.4634 386.9225)" class="st0 st1 st2">G</text>
</g>
<g id="ID000007">
	<line class="st3" x1="364.2" y1="380.8" x2="337" y2="380.6"/>
</g>
<g id="ID000010">
	<g>
		<text transform="matrix(1 0 0 1 366.6382 307.943)" class="st0 st1 st2">C</text>
	</g>
</g>
<g id="ID000011">
	<g>
		<text transform="matrix(1 0 0 1 321.354 339.3727)" class="st0 st1 st2">A</text>
	</g>
</g>
<g id="ID000019">
	<g>
		<text transform="matrix(1 0 0 1 366.1919 339.5338)" class="st0 st1 st2">U</text>
	</g>
</g>
<g id="ID000020">
	<g>
		<text transform="matrix(1 0 0 1 320.4634 307.6695)" class="st0 st1 st2">G</text>
	</g>
</g>
<g id="ID000021">
	<line class="st3" x1="364.2" y1="301.2" x2="337" y2="301"/>
</g>
<g id="ID000022">
	<line class="st3" x1="364.2" y1="333" x2="337" y2="332.9"/>
</g>
<g>
	<text transform="matrix(1 0 0 1 309.2017 391.4625)" class="st1 st4">5</text>
	<text transform="matrix(1 0 0 1 316.3745 391.4625)" class="st1 st4">’</text>
</g>
<g>
	<text transform="matrix(1 0 0 1 381.603 391.4625)" class="st1 st5">3</text>
	<text transform="matrix(1 0 0 1 388.4761 391.4625)" class="st1 st5">’</text>
</g>
<g id="ID000002-2">
	<text transform="matrix(1 0 0 1 366.6382 371.1246)" class="st0 st1 st2">G</text>
</g>
<g id="ID000006-2">
	<text transform="matrix(1 0 0 1 320.9126 371.0709)" class="st0 st1 st2">C</text>
</g>
<g id="ID000002-3">
	<g>
		<text transform="matrix(1 0 0 1 366.1919 355.3316)" class="st0 st1 st2">U</text>
	</g>
</g>
<g id="ID000006-3">
	<text transform="matrix(1 0 0 1 321.354 355.2193)" class="st0 st1 st2">A</text>
</g>
<g id="ID000007-3">
	<line class="st3" x1="364.2" y1="349" x2="337" y2="348.8"/>
</g>
<g id="ID000011-2">
	<g>
		<text transform="matrix(1 0 0 1 366.6382 323.7408)" class="st0 st1 st2">A</text>
	</g>
</g>
<g id="ID000019-2">
	<g>
		<text transform="matrix(1 0 0 1 320.9126 323.5211)" class="st0 st1 st2">U</text>
	</g>
</g>
<g id="ID000022-2">
	<line class="st3" x1="364.2" y1="317.1" x2="337" y2="317"/>
</g>
<g id="ID000019-3">
	<g>
		<text transform="matrix(1 0 0 1 366.3071 229.3355)" class="st0 st1 st2">A</text>
	</g>
</g>
<g id="ID000002-4">
	<g>
		<text transform="matrix(1 0 0 1 366.2827 260.7379)" class="st0 st1 st2">G</text>
	</g>
</g>
<g id="ID000006-4">
	<g>
		<text transform="matrix(1 0 0 1 321.2358 260.4635)" class="st0 st1 st2">C</text>
	</g>
</g>
<g id="ID000002-5">
	<g>
		<text transform="matrix(1 0 0 1 366.2827 245.0367)" class="st0 st1 st2">U</text>
	</g>
</g>
<g id="ID000006-5">
	<g>
		<text transform="matrix(1 0 0 1 320.9702 244.5943)" class="st0 st1 st2">G</text>
	</g>
</g>
<g id="ID000018">
	<text transform="matrix(1 0 0 1 294.094 209.8981)" class="st1 st6">10</text>
</g>
<g id="ID000003-2">
	<g>
		<text transform="matrix(1 0 0 1 366.2827 197.5435)" class="st0 st1 st2">C</text>
	</g>
</g>
<g id="ID000005-5">
	<g>
		<text transform="matrix(1 0 0 1 320.4634 196.9869)" class="st0 st1 st2">G</text>
	</g>
</g>
<g id="ID000008-3">
</g>
<g id="ID000010-2">
	<g>
		<text transform="matrix(1 0 0 1 366.3071 213.2447)" class="st0 st1 st2">A</text>
	</g>
</g>
<g id="ID000020-3">
	<g>
		<text transform="matrix(1 0 0 1 320.9126 212.856)" class="st0 st1 st2">U</text>
	</g>
</g>
<g id="ID000021-2">
</g>
<g id="ID000003-3">
	<g>
		<text transform="matrix(1 0 0 1 366.3071 181.8375)" class="st0 st1 st2">A</text>
	</g>
</g>
<g id="ID000005-6">
	<g>
		<text transform="matrix(1 0 0 1 320.9126 181.1168)" class="st0 st1 st2">U</text>
	</g>
</g>
<g id="ID000008-4">
</g>
<g id="ID000018-2">
	<text transform="matrix(1 0 0 1 375.8435 9.3466)" class="st1 st6">20</text>
</g>
<g id="ID000010-3">
	<text transform="matrix(1 0 0 1 322.1851 80.2193)" class="st7 st1 st2 st8">A</text>
</g>
<g id="ID000011-7">
	<g>
		<text transform="matrix(1 0 0 1 378.9985 207.2818)" class="st0 st1 st2">G</text>
	</g>
</g>
<g id="ID000022-5">
	<line class="st3" x1="392.7" y1="107.1" x2="336.4" y2="106.9"/>
</g>
<g>
	<text transform="matrix(1 0 0 1 21.8999 32.101)" class="st1 st9">Apt1 aptamer</text>
</g>
<line class="st3" x1="363.6" y1="364.9" x2="336.3" y2="364.7"/>
<g id="ID000010_00000074404937730035786180000010507294167331999382_">
	<g>
		<text transform="matrix(1 0 0 1 391.8911 282.3766)" class="st0 st1 st2">C</text>
	</g>
</g>
<g id="ID000011-2_00000111160096832023922400000001896691426624740272_">
	<g>
		<text transform="matrix(1 0 0 1 380.7319 269.6129)" class="st0 st1 st2">A</text>
	</g>
</g>
<g id="ID000020-3_00000128471435943677373380000017110808404275872418_">
	<g>
		<text transform="matrix(1 0 0 1 320.9126 228.7252)" class="st0 st1 st2">U</text>
	</g>
</g>
<line class="st3" x1="327" y1="292.2" x2="326.6" y2="265.2"/>
<g id="ID000011-7_00000001656864254149281750000016905507585269906621_">
	<text transform="matrix(1 0 0 1 319.4653 148.8199)" class="st10 st1 st2">G</text>
</g>
<g id="ID000011-7_00000098928659705830176350000003099603124165738125_">
	<text transform="matrix(1 0 0 1 362.8384 134.5221)" class="st10 st1 st2">G</text>
</g>
<g id="ID000011-7_00000031888205945075074460000002806498525859700866_">
	<text transform="matrix(1 0 0 1 319.4653 131.2037)" class="st11 st1 st2">G</text>
</g>
<g id="ID000011-7_00000047028150480475540290000017153090630286729368_">
	<text transform="matrix(1 0 0 1 363.2935 116.9059)" class="st11 st1 st2">G</text>
</g>
<g id="ID000011-7_00000018203399366755812020000018367543473958264741_">
	<text transform="matrix(1 0 0 1 319.4653 113.3258)" class="st12 st1 st2">G</text>
</g>
<g id="ID000011-7_00000150820956875234691330000011933413261761847681_">
	<text transform="matrix(1 0 0 1 362.8384 99.0279)" class="st12 st1 st2">G</text>
</g>
<line class="st3" x1="363.9" y1="175.4" x2="336.7" y2="175.3"/>
<line class="st3" x1="363.8" y1="255" x2="336.7" y2="254.8"/>
<line class="st3" x1="363.8" y1="207.2" x2="336.7" y2="207.1"/>
<line class="st3" x1="363.8" y1="223.2" x2="336.7" y2="223"/>
<line class="st3" x1="363.8" y1="191.3" x2="336.7" y2="191.2"/>
<g id="ID000011-7_00000121995113711765375800000014629147691550010807_">
	<text transform="matrix(1 0 0 1 393.6733 150.1295)" class="st10 st1 st2">G</text>
</g>
<g id="ID000011-7_00000143616142387956685280000011780038945438990984_">
	<text transform="matrix(1 0 0 1 435.3008 134.6539)" class="st10 st1 st2">G</text>
</g>
<g id="ID000011-7_00000052083376708872538060000015365428133582118553_">
	<text transform="matrix(1 0 0 1 393.6733 132.5143)" class="st11 st1 st2">G</text>
</g>
<g id="ID000011-7_00000034074112967903097030000009625431573026278549_">
	<text transform="matrix(1 0 0 1 435.3008 117.0367)" class="st11 st1 st2">G</text>
</g>
<g id="ID000011-7_00000118379529532524195510000011303582184451783063_">
	<text transform="matrix(1 0 0 1 435.3008 99.1588)" class="st12 st1 st2">G</text>
</g>
<g id="ID000011-7_00000043421751734542164310000001027488968244224925_">
	<text transform="matrix(1 0 0 1 393.6724 114.6353)" class="st12 st1 st2">G</text>
</g>
<line class="st3" x1="391.8" y1="125.7" x2="335.5" y2="125.6"/>
<line class="st3" x1="392" y1="143.5" x2="335.7" y2="143.3"/>
<g>
	<g>
		<line class="st3" x1="433.8" y1="93.4" x2="430.5" y2="93.3"/>
		<line class="st13" x1="423.4" y1="93.3" x2="384.3" y2="93.2"/>
		<line class="st3" x1="380.7" y1="93.2" x2="377.5" y2="93.2"/>
	</g>
</g>
<g>
	<g>
		<line class="st3" x1="432.9" y1="112" x2="429.7" y2="112"/>
		<line class="st13" x1="422.6" y1="111.9" x2="383.4" y2="111.8"/>
		<line class="st3" x1="379.9" y1="111.8" x2="376.6" y2="111.8"/>
	</g>
</g>
<g>
	<g>
		<line class="st3" x1="433.1" y1="129.7" x2="429.9" y2="129.7"/>
		<line class="st13" x1="422.7" y1="129.7" x2="383.6" y2="129.6"/>
		<line class="st3" x1="380" y1="129.6" x2="376.8" y2="129.6"/>
	</g>
</g>
<line class="st3" x1="435.4" y1="98.7" x2="409" y2="107.6"/>
<line class="st3" x1="433.8" y1="116.8" x2="407.4" y2="125.7"/>
<line class="st3" x1="434" y1="134" x2="407.5" y2="142.8"/>
<g>
	<g>
		<line class="st3" x1="361.5" y1="95.2" x2="358.4" y2="96.2"/>
		<line class="st14" x1="351.6" y1="98.5" x2="341.5" y2="101.9"/>
		<line class="st3" x1="338.1" y1="103" x2="335" y2="104.1"/>
	</g>
</g>
<g>
	<g>
		<line class="st3" x1="359.8" y1="113.3" x2="356.8" y2="114.3"/>
		<line class="st14" x1="350" y1="116.6" x2="339.8" y2="120"/>
		<line class="st3" x1="336.4" y1="121.1" x2="333.4" y2="122.2"/>
	</g>
</g>
<g>
	<g>
		<line class="st3" x1="360" y1="130.4" x2="356.9" y2="131.5"/>
		<line class="st14" x1="350.1" y1="133.7" x2="340" y2="137.1"/>
		<line class="st3" x1="336.6" y1="138.2" x2="333.6" y2="139.3"/>
	</g>
</g>
<g id="ID000003-3_00000101815944710184993320000007387597264288615310_">
	<text transform="matrix(1 0 0 1 394.5269 172.774)" class="st7 st1 st2">A</text>
</g>
<g id="ID000002-5_00000072992437213399590100000017887656281901881789_">
	<text transform="matrix(1 0 0 1 436.2979 159.8824)" class="st7 st1 st2 st8">U</text>
</g>
<g id="ID000003-2_00000054229481154386022080000004493899882504561291_">
	<text transform="matrix(1 0 0 1 407.3643 190.4244)" class="st7 st1 st2">C</text>
</g>
<g id="ID000011-7_00000109004500914566102200000006596312462129887112_">
	<text transform="matrix(1 0 0 1 427.7627 202.9518)" class="st7 st1 st2">G</text>
</g>
<g id="ID000003-3_00000060715140892567148010000007745697493201472673_">
	<text transform="matrix(1 0 0 1 436.7158 183.065)" class="st7 st1 st2">A</text>
</g>
<g id="ID000010-3_00000085933542796832387090000014555899659499819392_">
	<text transform="matrix(1 0 0 1 328.2925 60.3629)" class="st7 st1 st2 st8">A</text>
</g>
<g id="ID000002-5_00000006707818477016272130000012462345448572972946_">
	<text transform="matrix(1 0 0 1 342.9126 45.8385)" class="st7 st1 st2 st8">U</text>
</g>
<g id="ID000002-5_00000092438576145467586130000014460012776208815518_">
	<text transform="matrix(1 0 0 1 361.4604 31.2477)" class="st7 st1 st2 st8">U</text>
</g>
<g id="ID000002-5_00000045611039169557366190000014439078443582283943_">
	<text transform="matrix(1 0 0 1 377.4722 43.6432)" class="st7 st1 st2 st8">U</text>
</g>
<g id="ID000011-7_00000077318648957570531480000007597351410233953948_">
	<text transform="matrix(1 0 0 1 390.5249 58.7262)" class="st7 st1 st2">G</text>
</g>
<g id="ID000003-3_00000144326044046042324900000016596643883273115060_">
	<text transform="matrix(1 0 0 1 397.2554 78.3131)" class="st7 st1 st2">A</text>
</g>
<g id="ID000010-3_00000011734193457403607140000007400914121417235633_">
	<text transform="matrix(1 0 0 1 397.23 38.6803)" class="st7 st1 st2 st8">A</text>
</g>
<g id="ID000010-3_00000127725669177347790500000013289039194215785376_">
	<text transform="matrix(1 0 0 1 418.3584 51.7818)" class="st7 st1 st2 st8">A</text>
</g>
<g id="ID000002-5_00000057833763040668163750000002837820558773165233_">
	<text transform="matrix(1 0 0 1 362.7339 74.5758)" class="st7 st1 st2 st8">U</text>
</g>
<g id="ID000011-7_00000011004274235461962780000015716828338839984001_">
	<text transform="matrix(1 0 0 1 373.0669 58.7252)" class="st7 st1 st2">G</text>
</g>
<g id="ID000011-7_00000138563115643055341580000004665211752566838451_">
	<text transform="matrix(1 0 0 1 435.4424 73.5572)" class="st7 st1 st2">G</text>
</g>
<line class="st3" x1="326.4" y1="164.7" x2="326.4" y2="151.9"/>
<line class="st3" x1="370.4" y1="163.7" x2="370.4" y2="137.1"/>
<line class="st3" x1="326.4" y1="96.7" x2="326.4" y2="84"/>
<g>
	<g>
		<line class="st3" x1="368.4" y1="85.4" x2="368.4" y2="82.2"/>
		<line class="st3" x1="368.4" y1="79.4" x2="368.4" y2="76.2"/>
	</g>
</g>
<g>
	<g>
		<line class="st3" x1="442.2" y1="85.4" x2="442.2" y2="82.2"/>
		<line class="st3" x1="442.2" y1="79.4" x2="442.2" y2="76.2"/>
	</g>
</g>
<g>
	<g>
		<line class="st3" x1="441.9" y1="146.6" x2="441.9" y2="143.3"/>
		<line class="st3" x1="441.9" y1="140.5" x2="441.9" y2="137.3"/>
	</g>
</g>
<g>
	<g>
		<line class="st3" x1="399.7" y1="158.3" x2="399.7" y2="155.1"/>
		<line class="st3" x1="399.7" y1="154.9" x2="399.7" y2="151.7"/>
	</g>
</g>
<line class="st3" x1="328.5" y1="67.3" x2="331.4" y2="62"/>
<line class="st3" x1="339.1" y1="52.4" x2="342.9" y2="46.9"/>
<line class="st3" x1="356" y1="36.5" x2="359.8" y2="31"/>
<line class="st3" x1="437.4" y1="190.4" x2="441.2" y2="184.8"/>
<line class="st3" x1="419.4" y1="190.4" x2="424.7" y2="194"/>
<line class="st3" x1="403.6" y1="174.6" x2="406.2" y2="178.2"/>
<line class="st3" x1="442.2" y1="162.7" x2="442.2" y2="168.4"/>
<line class="st3" x1="368.8" y1="61.8" x2="372.1" y2="57.2"/>
<line class="st3" x1="386.5" y1="46.1" x2="394.5" y2="36.5"/>
<line class="st3" x1="409.1" y1="34.8" x2="417.2" y2="42.3"/>
<line class="st3" x1="430.7" y1="53.4" x2="437.4" y2="59.6"/>
<line class="st3" x1="373.8" y1="28.8" x2="377.3" y2="32.1"/>
<line class="st3" x1="388.8" y1="42" x2="392.2" y2="45.3"/>
<line class="st3" x1="401" y1="59.4" x2="402.7" y2="63.8"/>
<line class="st3" x1="401" y1="99.6" x2="401" y2="80.4"/>
<g id="ID000018-2_00000070100528532391322640000017763762924123778987_">
	<text transform="matrix(1 0 0 1 460.6328 181.8375)" class="st1 st6">30</text>
</g>
<g id="ID000018-2_00000008835149228232146570000006865707238134902704_">
	<text transform="matrix(1 0 0 1 404.9254 268.3676)" class="st1 st6">50</text>
</g>
<line class="st3" x1="318.4" y1="207.1" x2="307.9" y2="207"/>
<line class="st3" x1="402.9" y1="265.2" x2="391.3" y2="265.1"/>
<line class="st3" x1="459.6" y1="178.2" x2="448.6" y2="178.1"/>
<line class="st3" x1="373.9" y1="9.3" x2="369.7" y2="17.7"/>
</svg>
