<svg id="图层_1" data-name="图层 1" xmlns="http://www.w3.org/2000/svg" viewBox="0 0 400 400"><defs><style>.cls-1,.cls-2,.cls-3,.cls-4,.cls-5,.cls-6,.cls-7,.cls-8,.cls-9{isolation:isolate;}.cls-1,.cls-2,.cls-3,.cls-4,.cls-5,.cls-6,.cls-7,.cls-8{font-size:16px;}.cls-1,.cls-2{fill:#228b22;}.cls-1,.cls-11,.cls-13,.cls-2,.cls-3,.cls-4,.cls-5,.cls-6,.cls-7,.cls-8,.cls-9{font-family:ArialMT, Arial;}.cls-2,.cls-3,.cls-5,.cls-7{letter-spacing:-0.06em;}.cls-3,.cls-6{fill:#ff870a;}.cls-4,.cls-5{fill:#80db9e;}.cls-7,.cls-8{fill:teal;}.cls-9{font-size:11px;}.cls-10{fill:none;stroke:#000;stroke-miterlimit:10;stroke-width:0.07px;}.cls-11{font-size:14px;}.cls-12{letter-spacing:-0.04em;}.cls-13{font-size:20px;}.cls-14{letter-spacing:-0.07em;}</style></defs><text class="cls-1" transform="translate(230.85 233.3)">G</text><text class="cls-1" transform="translate(214.01 238.12)">G</text><text class="cls-1" transform="translate(196.65 243.03)">G</text><text class="cls-2" transform="translate(179.29 247.13)">A</text><text class="cls-2" transform="translate(166.25 254.84)">A</text><text class="cls-1" transform="translate(150.25 251.85)">U</text><text class="cls-1" transform="translate(132.77 254.06)">G</text><text class="cls-1" transform="translate(115.49 256.48)">G</text><text class="cls-2" transform="translate(98.76 259.47)">A</text><text class="cls-1" transform="translate(82.05 263.62)">U</text><text class="cls-1" transform="translate(77.94 279.01)">C</text><text class="cls-1" transform="translate(68.64 291.35)">C</text><text class="cls-2" transform="translate(55.23 298.26)">A</text><text class="cls-1" transform="translate(39.13 299.14)">C</text><text class="cls-2" transform="translate(24.01 292.85)">A</text><text class="cls-1" transform="translate(13.34 280.41)">U</text><text class="cls-1" transform="translate(8.92 264.93)">C</text><text class="cls-1" transform="translate(10.91 248.77)">U</text><text class="cls-2" transform="translate(20.65 235.5)">A</text><text class="cls-1" transform="translate(34.96 227.55)">C</text><text class="cls-1" transform="translate(51.07 226.66)">G</text><text class="cls-2" transform="translate(66.42 232.84)">A</text><text class="cls-2" transform="translate(77.15 242.9)">A</text><text class="cls-1" transform="translate(94.35 239.09)">U</text><text class="cls-1" transform="translate(112.07 235.91)">U</text><text class="cls-1" transform="translate(130 233.45)">C</text><text class="cls-2" transform="translate(147.13 231.01)">A</text><text class="cls-2" transform="translate(160.95 222.49)">A</text><text class="cls-1" transform="translate(175.14 226.49)">U</text><text class="cls-1" transform="translate(192.14 222.88)">C</text><text class="cls-1" transform="translate(208.95 218.13)">C</text><text class="cls-1" transform="translate(225.82 212.81)">C</text><text class="cls-3" transform="translate(227.53 197.94)">A</text><text class="cls-3" transform="translate(231.09 182.15)">A</text><text class="cls-4" transform="translate(231.39 168.43)">U</text><text class="cls-4" transform="translate(219.96 153.41)">G</text><text class="cls-4" transform="translate(210.64 137.49)">G</text><text class="cls-4" transform="translate(203.21 121.39)">C</text><text class="cls-4" transform="translate(192.95 113.8)">U</text><text class="cls-4" transform="translate(184.3 99.87)">U</text><text class="cls-4" transform="translate(186.59 83.42)">G</text><text class="cls-5" transform="translate(199.19 72.59)">A</text><text class="cls-5" transform="translate(215.62 72)">A</text><text class="cls-4" transform="translate(228.68 82.13)">C</text><text class="cls-4" transform="translate(231.74 98.25)">U</text><text class="cls-4" transform="translate(225.88 112.03)">G</text><text class="cls-4" transform="translate(233.01 127.25)">C</text><text class="cls-4" transform="translate(241.33 141.7)">C</text><text class="cls-5" transform="translate(252.17 155.25)">A</text><text class="cls-3" transform="translate(262.21 145.68)">A</text><text class="cls-6" transform="translate(277.04 139.41)">C</text><text class="cls-6" transform="translate(292.42 137.29)">G</text><text class="cls-3" transform="translate(308.35 138.98)">A</text><text class="cls-3" transform="translate(323.28 143.38)">A</text><text class="cls-6" transform="translate(336.8 151.32)">C</text><text class="cls-6" transform="translate(347.44 162.34)">G</text><text class="cls-6" transform="translate(355.19 175.88)">U</text><text class="cls-6" transform="translate(360.12 190.67)">U</text><text class="cls-6" transform="translate(362.75 206.19)">C</text><text class="cls-3" transform="translate(360.54 221.87)">A</text><text class="cls-6" transform="translate(354.25 236.26)">C</text><text class="cls-6" transform="translate(345.78 249.81)">U</text><text class="cls-6" transform="translate(333.91 260.44)">G</text><text class="cls-6" transform="translate(320.13 267.84)">C</text><text class="cls-7" transform="translate(306.44 272.33)">A</text><text class="cls-8" transform="translate(307.75 288.89)">G</text><text class="cls-7" transform="translate(314.82 302.79)">A</text><text class="cls-8" transform="translate(304.93 316.68)">C</text><text class="cls-8" transform="translate(297.63 332.23)">U</text><text class="cls-8" transform="translate(291.08 348.17)">U</text><text class="cls-8" transform="translate(290 363.83)">G</text><text class="cls-7" transform="translate(277.25 373.53)">A</text><text class="cls-8" transform="translate(262.33 367.2)">C</text><text class="cls-8" transform="translate(259.84 351.07)">G</text><text class="cls-7" transform="translate(271.41 338.86)">A</text><text class="cls-7" transform="translate(278.33 323.05)">A</text><text class="cls-8" transform="translate(285.01 306.81)">G</text><text class="cls-8" transform="translate(288.11 290.97)">C</text><text class="cls-8" transform="translate(286.14 273.29)">U</text><text class="cls-6" transform="translate(272.01 268.91)">U</text><text class="cls-9" transform="translate(93.81 281.4)">10</text><text class="cls-9" transform="translate(28.63 203.65)">20</text><text class="cls-9" transform="translate(187.85 199)">30</text><text class="cls-9" transform="translate(160.3 99.38)">40</text><text class="cls-9" transform="translate(257.86 121.71)">50</text><text class="cls-9" transform="translate(336.59 221.38)">60</text><text class="cls-9" transform="translate(313.8 346.36)">70</text><text class="cls-9" transform="translate(258.14 284.81)">80</text><g id="ID000017"><line class="cls-10" x1="98.57" y1="272.45" x2="91.33" y2="262.98"/></g><g id="ID000017-2" data-name="ID000017"><line class="cls-10" x1="38.2" y1="216" x2="35.23" y2="204.45"/></g><g id="ID000017-3" data-name="ID000017"><line class="cls-10" x1="196.45" y1="211.03" x2="193.97" y2="199.36"/></g><g id="ID000017-4" data-name="ID000017"><line class="cls-10" x1="265.63" y1="134.16" x2="264.02" y2="122.34"/></g><g id="ID000017-5" data-name="ID000017"><line class="cls-10" x1="349.09" y1="217.16" x2="361.01" y2="217.1"/></g><g id="ID000017-6" data-name="ID000017"><line class="cls-10" x1="184.81" y1="95.61" x2="172.89" y2="95.27"/></g><g id="ID000017-7" data-name="ID000017"><line class="cls-10" x1="314.8" y1="342.5" x2="302.49" y2="342.72"/></g><g id="ID000017-8" data-name="ID000017"><line class="cls-10" x1="273.69" y1="268.21" x2="264.85" y2="276.77"/></g><g id="ID000017-9" data-name="ID000017"><line class="cls-10" x1="306.39" y1="267.89" x2="297.63" y2="268.05"/></g><g id="ID000017-10" data-name="ID000017"><line class="cls-10" x1="307.78" y1="284.69" x2="299.02" y2="284.93"/></g><g id="ID000017-11" data-name="ID000017"><line class="cls-10" x1="305.4" y1="307.42" x2="297.28" y2="304.14"/></g><g id="ID000017-12" data-name="ID000017"><line class="cls-10" x1="298.1" y1="324.69" x2="289.98" y2="321.41"/></g><g id="ID000017-13" data-name="ID000017"><line class="cls-10" x1="291.46" y1="341.06" x2="283.34" y2="337.77"/></g><g id="ID000017-14" data-name="ID000017"><line class="cls-10" x1="215.01" y1="114.52" x2="225.41" y2="108.72"/></g><g id="ID000017-15" data-name="ID000017"><line class="cls-10" x1="223.4" y1="130.67" x2="233.81" y2="124.87"/></g><g id="ID000017-16" data-name="ID000017"><line class="cls-10" x1="231.53" y1="146.81" x2="241.94" y2="141.01"/></g><g id="ID000017-17" data-name="ID000017"><line class="cls-10" x1="241.94" y1="159.87" x2="252.35" y2="154.07"/></g><g id="ID000017-18" data-name="ID000017"><line class="cls-10" x1="86.48" y1="251.15" x2="84.31" y2="242.88"/></g><g id="ID000017-19" data-name="ID000017"><line class="cls-10" x1="102.69" y1="247.97" x2="100.52" y2="239.7"/></g><g id="ID000017-20" data-name="ID000017"><line class="cls-10" x1="121.17" y1="244.56" x2="119.14" y2="236.26"/></g><g id="ID000017-21" data-name="ID000017"><line class="cls-10" x1="138.16" y1="242.28" x2="136.17" y2="233.96"/></g><g id="ID000017-22" data-name="ID000017"><line class="cls-10" x1="154.68" y1="239.74" x2="153.64" y2="231.25"/></g><g id="ID000017-23" data-name="ID000017"><line class="cls-10" x1="183.47" y1="234.68" x2="182.43" y2="226.2"/></g><g id="ID000017-24" data-name="ID000017"><line class="cls-10" x1="200.52" y1="231.98" x2="199.48" y2="223.49"/></g><g id="ID000017-25" data-name="ID000017"><line class="cls-10" x1="217.57" y1="226.64" x2="216.53" y2="218.15"/></g><g id="ID000017-26" data-name="ID000017"><line class="cls-10" x1="234.33" y1="221.38" x2="233.28" y2="212.89"/></g><text class="cls-11" transform="translate(245.66 230.77)">5<tspan class="cls-12" x="7.79" y="0">’</tspan></text><text class="cls-11" transform="translate(265.63 256.46)">3<tspan class="cls-12" x="7.79" y="0">’</tspan></text><text class="cls-13" transform="translate(34.72 159.81)">ps<tspan class="cls-14" x="21.12" y="0">1</tspan><tspan x="30.76" y="0">1-20 aptamer</tspan></text></svg>