<?xml version="1.0" encoding="UTF-8"?>
<svg id="_图层_1" data-name="图层 1" xmlns="http://www.w3.org/2000/svg" viewBox="0 0 400 400">
  <defs>
    <style>
      .cls-1, .cls-2, .cls-3, .cls-4, .cls-5, .cls-6, .cls-7, .cls-8, .cls-9, .cls-10, .cls-11, .cls-12, .cls-13, .cls-14, .cls-15, .cls-16 {
        font-family: ArialMT, Arial;
      }

      .cls-1, .cls-2, .cls-3, .cls-4, .cls-5, .cls-6, .cls-7, .cls-8, .cls-9, .cls-11, .cls-12, .cls-13, .cls-14, .cls-15 {
        font-size: 12.92px;
        isolation: isolate;
      }

      .cls-1, .cls-15 {
        fill: #3cc;
      }

      .cls-2 {
        fill: #999;
      }

      .cls-2, .cls-11, .cls-15 {
        letter-spacing: -.06em;
      }

      .cls-3, .cls-5, .cls-7, .cls-12 {
        letter-spacing: -.06em;
      }

      .cls-3, .cls-9 {
        fill: #0c3;
      }

      .cls-4, .cls-10, .cls-17, .cls-16 {
        fill: #000;
      }

      .cls-5, .cls-11, .cls-14 {
        fill: #f39;
      }

      .cls-6, .cls-12 {
        fill: #c3f;
      }

      .cls-7, .cls-8 {
        fill: #33f;
      }

      .cls-18, .cls-17 {
        stroke-width: .14px;
      }

      .cls-18, .cls-17, .cls-19 {
        stroke: #000;
        stroke-miterlimit: 1.11;
      }

      .cls-18, .cls-19 {
        fill: none;
      }

      .cls-10 {
        font-size: 20px;
      }

      .cls-13 {
        fill: #3c3;
      }

      .cls-16 {
        font-size: 16px;
      }

      .cls-20 {
        letter-spacing: -.04em;
      }

      .cls-19 {
        stroke-width: .61px;
      }
    </style>
  </defs>
  <g id="ID000002">
    <text class="cls-6" transform="translate(52.6 291.43)"><tspan x="0" y="0">G</tspan></text>
  </g>
  <g id="ID000003">
    <text class="cls-6" transform="translate(40.11 291.43)"><tspan x="0" y="0">G</tspan></text>
  </g>
  <g id="ID000004">
    <text class="cls-6" transform="translate(27.63 291.43)"><tspan x="0" y="0">G</tspan></text>
  </g>
  <g id="ID000005">
    <text class="cls-12" transform="translate(15.86 285.19)"><tspan x="0" y="0">A</tspan></text>
  </g>
  <g id="ID000006">
    <text class="cls-12" transform="translate(15.86 272.71)"><tspan x="0" y="0">A</tspan></text>
  </g>
  <g id="ID000007">
    <text class="cls-12" transform="translate(28.35 263.34)"><tspan x="0" y="0">A</tspan></text>
  </g>
  <g id="ID000008">
    <text class="cls-6" transform="translate(40.47 266.46)"><tspan x="0" y="0">C</tspan></text>
  </g>
  <g id="ID000009">
    <text class="cls-6" transform="translate(52.96 266.46)"><tspan x="0" y="0">U</tspan></text>
  </g>
  <g id="ID000010">
    <text class="cls-8" transform="translate(58.84 253.98)"><tspan x="0" y="0">G</tspan></text>
  </g>
  <g id="ID000011">
    <text class="cls-8" transform="translate(49.48 241.49)"><tspan x="0" y="0">G</tspan></text>
  </g>
  <g id="ID000012">
    <line class="cls-18" x1="46.18" y1="235.87" x2="37.85" y2="235.87"/>
  </g>
  <g id="ID000013">
    <text class="cls-4" transform="translate(23.48 241.49)"><tspan x="0" y="0">10</tspan></text>
  </g>
  <g id="ID000014">
    <text class="cls-7" transform="translate(40.83 229)"><tspan x="0" y="0">A</tspan></text>
  </g>
  <g id="ID000015">
    <text class="cls-8" transform="translate(31.11 219.64)"><tspan x="0" y="0">U</tspan></text>
  </g>
  <g id="ID000016">
    <text class="cls-8" transform="translate(30.75 204.04)"><tspan x="0" y="0">G</tspan></text>
  </g>
  <g id="ID000017">
    <polygon class="cls-17" points="57.62 270.83 57.46 270.84 57.31 270.85 57.15 270.88 57 270.91 56.84 270.96 56.7 271.01 56.55 271.08 56.41 271.15 56.27 271.23 56.14 271.32 56.02 271.42 55.9 271.52 55.79 271.64 55.68 271.76 55.59 271.88 55.5 272.01 55.42 272.15 55.35 272.29 55.29 272.44 55.24 272.59 55.2 272.74 55.16 272.9 55.14 273.05 55.13 273.21 55.13 273.37 55.13 273.53 55.15 273.68 55.18 273.84 55.22 273.99 55.26 274.15 55.32 274.29 55.39 274.44 55.46 274.58 55.54 274.71 55.64 274.84 55.74 274.96 55.84 275.08 55.96 275.19 56.08 275.29 56.21 275.39 56.34 275.47 56.48 275.55 56.62 275.62 56.77 275.68 56.92 275.73 57.07 275.77 57.23 275.79 57.39 275.82 57.54 275.83 57.7 275.83 57.86 275.82 58.02 275.79 58.17 275.77 58.33 275.73 58.48 275.68 58.62 275.62 58.77 275.55 58.91 275.47 59.04 275.39 59.17 275.29 59.29 275.19 59.4 275.08 59.51 274.96 59.61 274.84 59.7 274.71 59.79 274.58 59.86 274.44 59.93 274.29 59.98 274.15 60.03 273.99 60.07 273.84 60.09 273.68 60.11 273.53 60.12 273.37 60.12 273.21 60.1 273.05 60.08 272.9 60.05 272.74 60.01 272.59 59.96 272.44 59.89 272.29 59.82 272.15 59.74 272.01 59.66 271.88 59.56 271.76 59.46 271.64 59.35 271.52 59.23 271.42 59.1 271.32 58.97 271.23 58.84 271.15 58.7 271.08 58.55 271.01 58.4 270.96 58.25 270.91 58.1 270.88 57.94 270.85 57.78 270.84 57.62 270.83"/>
  </g>
  <g id="ID000018">
    <line class="cls-18" x1="45.14" y1="280.82" x2="45.14" y2="265.84"/>
  </g>
  <g id="ID000020">
    <text class="cls-8" transform="translate(46.36 204.04)"><tspan x="0" y="0">G</tspan></text>
  </g>
  <g id="ID000021">
    <text class="cls-7" transform="translate(59.56 210.28)"><tspan x="0" y="0">A</tspan></text>
  </g>
  <g id="ID000022">
    <text class="cls-7" transform="translate(75.16 216.52)"><tspan x="0" y="0">A</tspan></text>
  </g>
  <g id="ID000023">
    <text class="cls-9" transform="translate(87.29 222.76)"><tspan x="0" y="0">U</tspan></text>
  </g>
  <g id="ID000024">
    <text class="cls-9" transform="translate(86.93 210.28)"><tspan x="0" y="0">G</tspan></text>
  </g>
  <g id="ID000025">
    <text class="cls-9" transform="translate(86.93 197.79)"><tspan x="0" y="0">G</tspan></text>
  </g>
  <g id="ID000026">
    <text class="cls-9" transform="translate(86.93 185.31)"><tspan x="0" y="0">G</tspan></text>
  </g>
  <g id="ID000027">
    <line class="cls-18" x1="83.63" y1="179.69" x2="75.31" y2="179.69"/>
  </g>
  <g id="ID000028">
    <text class="cls-4" transform="translate(60.94 185.31)"><tspan x="0" y="0">20</tspan></text>
  </g>
  <g id="ID000029">
    <text class="cls-9" transform="translate(87.29 172.82)"><tspan x="0" y="0">C</tspan></text>
  </g>
  <g id="ID000030">
    <text class="cls-9" transform="translate(87.29 160.34)"><tspan x="0" y="0">U</tspan></text>
  </g>
  <g id="ID000031">
    <text class="cls-9" transform="translate(77.93 147.85)"><tspan x="0" y="0">C</tspan></text>
  </g>
  <g id="ID000032">
    <text class="cls-9" transform="translate(82.69 133.25)"><tspan x="0" y="0">G</tspan></text>
  </g>
  <g id="ID000033">
    <text class="cls-9" transform="translate(98.66 126)"><tspan x="0" y="0">C</tspan></text>
  </g>
  <g id="ID000034">
    <text class="cls-3" transform="translate(112.62 132.25)"><tspan x="0" y="0">A</tspan></text>
  </g>
  <g id="ID000035">
    <text class="cls-3" transform="translate(118.86 144.73)"><tspan x="0" y="0">A</tspan></text>
  </g>
  <g id="ID000036">
    <text class="cls-9" transform="translate(111.9 160.34)"><tspan x="0" y="0">G</tspan></text>
  </g>
  <g id="ID000037">
    <text class="cls-9" transform="translate(111.9 172.82)"><tspan x="0" y="0">G</tspan></text>
  </g>
  <g id="ID000038">
    <text class="cls-9" transform="translate(112.26 185.31)"><tspan x="0" y="0">C</tspan></text>
  </g>
  <g id="ID000039">
    <line class="cls-18" x1="125.25" y1="179.69" x2="133.57" y2="179.69"/>
  </g>
  <g id="ID000040">
    <text class="cls-4" transform="translate(133.57 185.31)"><tspan x="0" y="0">30</tspan></text>
  </g>
  <g id="ID000041">
    <text class="cls-9" transform="translate(112.26 197.79)"><tspan x="0" y="0">C</tspan></text>
  </g>
  <g id="ID000042">
    <text class="cls-9" transform="translate(112.26 210.28)"><tspan x="0" y="0">C</tspan></text>
  </g>
  <g id="ID000043">
    <text class="cls-13" transform="translate(124.75 219.64)"><tspan x="0" y="0">C</tspan></text>
  </g>
  <g id="ID000044">
    <line class="cls-18" x1="96.95" y1="204.66" x2="111.93" y2="204.66"/>
  </g>
  <g id="ID000045">
    <line class="cls-18" x1="96.95" y1="192.18" x2="111.93" y2="192.18"/>
  </g>
  <g id="ID000046">
    <line class="cls-18" x1="96.95" y1="179.69" x2="111.93" y2="179.69"/>
  </g>
  <g id="ID000047">
    <line class="cls-18" x1="96.95" y1="167.2" x2="111.93" y2="167.2"/>
  </g>
  <g id="ID000048">
    <polygon class="cls-17" points="106.94 154.72 106.93 154.56 106.92 154.4 106.89 154.25 106.86 154.09 106.82 153.94 106.76 153.79 106.7 153.65 106.62 153.51 106.54 153.37 106.45 153.24 106.36 153.11 106.25 153 106.14 152.89 106.02 152.78 105.89 152.68 105.76 152.6 105.62 152.52 105.48 152.45 105.33 152.39 105.18 152.34 105.03 152.29 104.88 152.26 104.72 152.24 104.56 152.23 104.4 152.22 104.24 152.23 104.09 152.25 103.93 152.28 103.78 152.31 103.63 152.36 103.48 152.42 103.33 152.48 103.19 152.56 103.06 152.64 102.93 152.73 102.81 152.83 102.69 152.94 102.58 153.05 102.48 153.18 102.39 153.3 102.3 153.44 102.22 153.58 102.16 153.72 102.1 153.87 102.05 154.02 102.01 154.17 101.98 154.32 101.96 154.48 101.95 154.64 101.95 154.8 101.96 154.96 101.98 155.11 102.01 155.27 102.05 155.42 102.1 155.57 102.16 155.72 102.22 155.86 102.3 156 102.39 156.14 102.48 156.26 102.58 156.38 102.69 156.5 102.81 156.61 102.93 156.71 103.06 156.8 103.19 156.88 103.33 156.96 103.48 157.02 103.63 157.08 103.78 157.13 103.93 157.16 104.09 157.19 104.24 157.21 104.4 157.22 104.56 157.21 104.72 157.2 104.88 157.18 105.03 157.15 105.18 157.1 105.33 157.05 105.48 156.99 105.62 156.92 105.76 156.84 105.89 156.75 106.02 156.66 106.14 156.55 106.25 156.44 106.36 156.32 106.45 156.2 106.54 156.07 106.62 155.93 106.7 155.79 106.76 155.65 106.82 155.5 106.86 155.35 106.89 155.19 106.92 155.04 106.93 154.88 106.94 154.72"/>
  </g>
  <g id="ID000050">
    <text class="cls-13" transform="translate(140.35 219.64)"><tspan x="0" y="0">C</tspan></text>
  </g>
  <g id="ID000051">
    <text class="cls-14" transform="translate(155.96 216.52)"><tspan x="0" y="0">U</tspan></text>
  </g>
  <g id="ID000052">
    <text class="cls-14" transform="translate(155.6 204.04)"><tspan x="0" y="0">G</tspan></text>
  </g>
  <g id="ID000053">
    <text class="cls-5" transform="translate(156.32 191.55)"><tspan x="0" y="0">A</tspan></text>
  </g>
  <g id="ID000054">
    <text class="cls-14" transform="translate(155.6 179.06)"><tspan x="0" y="0">G</tspan></text>
  </g>
  <g id="ID000055">
    <text class="cls-14" transform="translate(155.96 166.58)"><tspan x="0" y="0">C</tspan></text>
  </g>
  <g id="ID000056">
    <text class="cls-14" transform="translate(155.96 154.09)"><tspan x="0" y="0">U</tspan></text>
  </g>
  <g id="ID000059">
    <text class="cls-14" transform="translate(149.36 141.61)"><tspan x="0" y="0">G</tspan></text>
  </g>
  <g id="ID000060">
    <text class="cls-14" transform="translate(152.84 126)"><tspan x="0" y="0">C</tspan></text>
  </g>
  <g id="ID000061">
    <text class="cls-11" transform="translate(168.8 119.76)"><tspan x="0" y="0">A</tspan></text>
  </g>
  <g id="ID000062">
    <text class="cls-14" transform="translate(180.93 129.12)"><tspan x="0" y="0">C</tspan></text>
  </g>
  <g id="ID000063">
    <text class="cls-11" transform="translate(187.53 141.61)"><tspan x="0" y="0">A</tspan></text>
  </g>
  <g id="ID000064">
    <text class="cls-11" transform="translate(181.29 154.09)"><tspan x="0" y="0">A</tspan></text>
  </g>
  <g id="ID000065">
    <text class="cls-14" transform="translate(180.57 166.58)"><tspan x="0" y="0">G</tspan></text>
  </g>
  <g id="ID000066">
    <text class="cls-14" transform="translate(180.93 179.06)"><tspan x="0" y="0">U</tspan></text>
  </g>
  <g id="ID000067">
    <text class="cls-14" transform="translate(180.93 191.55)"><tspan x="0" y="0">U</tspan></text>
  </g>
  <g id="ID000068">
    <text class="cls-14" transform="translate(180.93 204.04)"><tspan x="0" y="0">C</tspan></text>
  </g>
  <g id="ID000069">
    <line class="cls-18" x1="193.92" y1="198.42" x2="202.24" y2="198.42"/>
  </g>
  <g id="ID000070">
    <text class="cls-4" transform="translate(202.24 204.04)"><tspan x="0" y="0">50</tspan></text>
  </g>
  <g id="ID000071">
    <text class="cls-11" transform="translate(181.29 216.52)"><tspan x="0" y="0">A</tspan></text>
  </g>
  <g id="ID000072">
    <text class="cls-14" transform="translate(187.17 232.13)"><tspan x="0" y="0">U</tspan></text>
  </g>
  <g id="ID000073">
    <line class="cls-18" x1="165.62" y1="210.9" x2="180.6" y2="210.9"/>
  </g>
  <g id="ID000074">
    <line class="cls-18" x1="165.62" y1="198.42" x2="180.6" y2="198.42"/>
  </g>
  <g id="ID000075">
    <line class="cls-18" x1="165.62" y1="185.93" x2="180.6" y2="185.93"/>
  </g>
  <g id="ID000076">
    <polygon class="cls-17" points="175.61 173.45 175.6 173.29 175.59 173.13 175.56 172.98 175.53 172.82 175.48 172.67 175.43 172.52 175.37 172.37 175.29 172.23 175.21 172.1 175.12 171.97 175.02 171.84 174.92 171.72 174.81 171.61 174.69 171.51 174.56 171.41 174.43 171.33 174.29 171.25 174.15 171.18 174 171.11 173.85 171.06 173.7 171.02 173.55 170.99 173.39 170.97 173.23 170.95 173.07 170.95 172.91 170.96 172.76 170.98 172.6 171 172.45 171.04 172.29 171.09 172.15 171.14 172 171.21 171.86 171.28 171.73 171.37 171.6 171.46 171.48 171.56 171.36 171.67 171.25 171.78 171.15 171.9 171.05 172.03 170.97 172.16 170.89 172.3 170.82 172.45 170.76 172.59 170.72 172.74 170.68 172.9 170.65 173.05 170.63 173.21 170.62 173.37 170.62 173.53 170.63 173.68 170.65 173.84 170.68 174 170.72 174.15 170.76 174.3 170.82 174.45 170.89 174.59 170.97 174.73 171.05 174.86 171.15 174.99 171.25 175.11 171.36 175.23 171.48 175.33 171.6 175.43 171.73 175.53 171.86 175.61 172 175.68 172.15 175.75 172.29 175.81 172.45 175.85 172.6 175.89 172.76 175.92 172.91 175.94 173.07 175.94 173.23 175.94 173.39 175.93 173.55 175.91 173.7 175.87 173.85 175.83 174 175.78 174.15 175.72 174.29 175.65 174.43 175.57 174.56 175.48 174.69 175.39 174.81 175.28 174.92 175.17 175.02 175.05 175.12 174.93 175.21 174.8 175.29 174.66 175.37 174.52 175.43 174.38 175.48 174.23 175.53 174.07 175.56 173.92 175.59 173.76 175.6 173.61 175.61 173.45"/>
  </g>
  <g id="ID000077">
    <line class="cls-18" x1="165.62" y1="160.96" x2="180.6" y2="160.96"/>
  </g>
  <g id="ID000078">
    <line class="cls-18" x1="165.62" y1="148.48" x2="180.6" y2="148.48"/>
  </g>
  <g id="ID000080">
    <text class="cls-1" transform="translate(202.42 238.37)"><tspan x="0" y="0">G</tspan></text>
  </g>
  <g id="ID000081">
    <text class="cls-1" transform="translate(214.91 238.37)"><tspan x="0" y="0">G</tspan></text>
  </g>
  <g id="ID000082">
    <text class="cls-1" transform="translate(227.75 238.37)"><tspan x="0" y="0">C</tspan></text>
  </g>
  <g id="ID000083">
    <text class="cls-1" transform="translate(239.88 238.37)"><tspan x="0" y="0">G</tspan></text>
  </g>
  <g id="ID000084">
    <text class="cls-15" transform="translate(249.96 225.88)"><tspan x="0" y="0">A</tspan></text>
  </g>
  <g id="ID000085">
    <text class="cls-1" transform="translate(255.48 216.52)"><tspan x="0" y="0">G</tspan></text>
  </g>
  <g id="ID000086">
    <text class="cls-1" transform="translate(267.97 207.16)"><tspan x="0" y="0">G</tspan></text>
  </g>
  <g id="ID000087">
    <text class="cls-1" transform="translate(240.24 263.34)"><tspan x="0" y="0">U</tspan></text>
  </g>
  <g id="ID000088">
    <text class="cls-1" transform="translate(227.39 263.34)"><tspan x="0" y="0">G</tspan></text>
  </g>
  <g id="ID000089">
    <text class="cls-1" transform="translate(215.27 263.34)"><tspan x="0" y="0">C</tspan></text>
  </g>
  <g id="ID000090">
    <text class="cls-1" transform="translate(202.78 263.34)"><tspan x="0" y="0">C</tspan></text>
  </g>
  <g id="ID000091">
    <text class="cls-2" transform="translate(190.65 269.58)"><tspan x="0" y="0">A</tspan></text>
  </g>
  <g id="ID000092">
    <line class="cls-18" x1="207.45" y1="237.75" x2="207.45" y2="252.73"/>
  </g>
  <g id="ID000093">
    <line class="cls-18" x1="219.93" y1="237.75" x2="219.93" y2="252.73"/>
  </g>
  <g id="ID000094">
    <line class="cls-18" x1="232.42" y1="237.75" x2="232.42" y2="252.73"/>
  </g>
  <g id="ID000095">
    <polygon class="cls-17" points="244.9 247.73 245.06 247.73 245.22 247.71 245.37 247.69 245.53 247.65 245.68 247.61 245.83 247.56 245.98 247.49 246.12 247.42 246.25 247.34 246.38 247.25 246.51 247.15 246.63 247.05 246.74 246.93 246.84 246.81 246.94 246.69 247.02 246.55 247.1 246.42 247.17 246.27 247.23 246.13 247.29 245.98 247.33 245.83 247.36 245.67 247.38 245.51 247.4 245.36 247.4 245.2 247.39 245.04 247.37 244.88 247.35 244.73 247.31 244.57 247.26 244.42 247.21 244.27 247.14 244.13 247.06 243.99 246.98 243.85 246.89 243.73 246.79 243.6 246.68 243.49 246.57 243.38 246.45 243.27 246.32 243.18 246.18 243.09 246.05 243.02 245.9 242.95 245.76 242.89 245.61 242.84 245.45 242.8 245.3 242.77 245.14 242.75 244.98 242.74 244.82 242.74 244.66 242.75 244.51 242.77 244.35 242.8 244.2 242.84 244.05 242.89 243.9 242.95 243.76 243.02 243.62 243.09 243.49 243.18 243.36 243.27 243.24 243.38 243.12 243.49 243.01 243.6 242.91 243.73 242.82 243.85 242.74 243.99 242.66 244.13 242.6 244.27 242.54 244.42 242.49 244.57 242.46 244.73 242.43 244.88 242.41 245.04 242.41 245.2 242.41 245.36 242.42 245.51 242.44 245.67 242.48 245.83 242.52 245.98 242.57 246.13 242.63 246.27 242.7 246.42 242.78 246.55 242.87 246.69 242.96 246.81 243.07 246.93 243.18 247.05 243.3 247.15 243.42 247.25 243.55 247.34 243.69 247.42 243.83 247.49 243.97 247.56 244.12 247.61 244.27 247.65 244.43 247.69 244.59 247.71 244.74 247.73 244.9 247.73"/>
  </g>
  <g id="ID000096">
    <line class="cls-19" x1="312.76" y1="256.74" x2="249.89" y2="257.16"/>
  </g>
  <g id="ID000097">
    <polygon class="cls-17" points="290.26 260.01 288.7 258.56 287.12 258.06 285.54 257.8 282.38 257.04 285.56 256.37 287.15 256.16 288.74 255.71 290.35 254.31 290.26 260.01"/>
  </g>
  <g id="ID000099">
    <text class="cls-1" transform="translate(283.94 210.28)"><tspan x="0" y="0">U</tspan></text>
  </g>
  <g id="ID000100">
    <line class="cls-18" x1="288.6" y1="196.34" x2="288.6" y2="188.01"/>
  </g>
  <g id="ID000101">
    <text class="cls-4" transform="translate(281.41 184.89)"><tspan x="0" y="0">60</tspan></text>
  </g>
  <g id="ID000102">
    <text class="cls-1" transform="translate(293.3 222.76)"><tspan x="0" y="0">C</tspan></text>
  </g>
  <g id="ID000103">
    <text class="cls-1" transform="translate(299.54 235.25)"><tspan x="0" y="0">C</tspan></text>
  </g>
  <g id="ID000104">
    <text class="cls-1" transform="translate(315.15 237.25)"><tspan x="0" y="0">U</tspan></text>
  </g>
  <g id="ID000105">
    <text class="cls-1" transform="translate(327.27 237.25)"><tspan x="0" y="0">G</tspan></text>
  </g>
  <g id="ID000106">
    <text class="cls-1" transform="translate(340.12 237.25)"><tspan x="0" y="0">C</tspan></text>
  </g>
  <g id="ID000107">
    <text class="cls-1" transform="translate(352.6 237.25)"><tspan x="0" y="0">U</tspan></text>
  </g>
  <g id="ID000108">
    <text class="cls-1" transform="translate(364.73 234.13)"><tspan x="0" y="0">G</tspan></text>
  </g>
  <g id="ID000109">
    <text class="cls-1" transform="translate(377.57 246.61)"><tspan x="0" y="0">U</tspan></text>
  </g>
  <g id="ID000110">
    <text class="cls-15" transform="translate(368.57 262.22)"><tspan x="0" y="0">A</tspan></text>
  </g>
  <g id="ID000111">
    <text class="cls-15" transform="translate(352.96 262.22)"><tspan x="0" y="0">A</tspan></text>
  </g>
  <g id="ID000112">
    <line class="cls-18" x1="357.27" y1="265.93" x2="357.27" y2="274.25"/>
  </g>
  <g id="ID000113">
    <text class="cls-4" transform="translate(350.08 285.98)"><tspan x="0" y="0">70</tspan></text>
  </g>
  <g id="ID000114">
    <text class="cls-1" transform="translate(339.76 262.22)"><tspan x="0" y="0">G</tspan></text>
  </g>
  <g id="ID000115">
    <text class="cls-1" transform="translate(327.63 262.22)"><tspan x="0" y="0">U</tspan></text>
  </g>
  <g id="ID000116">
    <text class="cls-1" transform="translate(314.79 262.22)"><tspan x="0" y="0">G</tspan></text>
  </g>
  <g id="ID000117">
    <polygon class="cls-17" points="319.81 246.61 319.97 246.61 320.13 246.59 320.29 246.57 320.44 246.53 320.59 246.49 320.74 246.43 320.89 246.37 321.03 246.3 321.16 246.22 321.29 246.13 321.42 246.03 321.54 245.92 321.65 245.81 321.75 245.69 321.85 245.56 321.94 245.43 322.01 245.3 322.08 245.15 322.15 245.01 322.2 244.86 322.24 244.7 322.27 244.55 322.3 244.39 322.31 244.23 322.31 244.08 322.3 243.92 322.29 243.76 322.26 243.6 322.22 243.45 322.17 243.3 322.12 243.15 322.05 243.01 321.98 242.87 321.89 242.73 321.8 242.6 321.7 242.48 321.59 242.36 321.48 242.26 321.36 242.15 321.23 242.06 321.1 241.97 320.96 241.9 320.81 241.83 320.67 241.77 320.52 241.72 320.36 241.68 320.21 241.65 320.05 241.63 319.89 241.62 319.73 241.62 319.58 241.63 319.42 241.65 319.26 241.68 319.11 241.72 318.96 241.77 318.81 241.83 318.67 241.9 318.53 241.97 318.4 242.06 318.27 242.15 318.15 242.26 318.03 242.36 317.93 242.48 317.83 242.6 317.73 242.73 317.65 242.87 317.58 243.01 317.51 243.15 317.45 243.3 317.41 243.45 317.37 243.6 317.34 243.76 317.32 243.92 317.32 244.08 317.32 244.23 317.33 244.39 317.35 244.55 317.39 244.7 317.43 244.86 317.48 245.01 317.54 245.15 317.61 245.3 317.69 245.43 317.78 245.56 317.88 245.69 317.98 245.81 318.09 245.92 318.21 246.03 318.33 246.13 318.46 246.22 318.6 246.3 318.74 246.37 318.89 246.43 319.03 246.49 319.19 246.53 319.34 246.57 319.5 246.59 319.66 246.61 319.81 246.61"/>
  </g>
  <g id="ID000118">
    <polygon class="cls-17" points="332.3 246.61 332.46 246.61 332.62 246.59 332.77 246.57 332.93 246.53 333.08 246.49 333.23 246.43 333.37 246.37 333.51 246.3 333.65 246.22 333.78 246.13 333.9 246.03 334.02 245.92 334.13 245.81 334.24 245.69 334.33 245.56 334.42 245.43 334.5 245.3 334.57 245.15 334.63 245.01 334.68 244.86 334.73 244.7 334.76 244.55 334.78 244.39 334.79 244.23 334.8 244.08 334.79 243.92 334.77 243.76 334.74 243.6 334.71 243.45 334.66 243.3 334.6 243.15 334.54 243.01 334.46 242.87 334.38 242.73 334.29 242.6 334.19 242.48 334.08 242.36 333.96 242.26 333.84 242.15 333.71 242.06 333.58 241.97 333.44 241.9 333.3 241.83 333.15 241.77 333 241.72 332.85 241.68 332.69 241.65 332.54 241.63 332.38 241.62 332.22 241.62 332.06 241.63 331.9 241.65 331.75 241.68 331.6 241.72 331.45 241.77 331.3 241.83 331.15 241.9 331.02 241.97 330.88 242.06 330.75 242.15 330.63 242.26 330.52 242.36 330.41 242.48 330.31 242.6 330.22 242.73 330.14 242.87 330.06 243.01 330 243.15 329.94 243.3 329.89 243.45 329.85 243.6 329.83 243.76 329.81 243.92 329.8 244.08 329.8 244.23 329.82 244.39 329.84 244.55 329.87 244.7 329.91 244.86 329.97 245.01 330.03 245.15 330.1 245.3 330.18 245.43 330.26 245.56 330.36 245.69 330.46 245.81 330.58 245.92 330.69 246.03 330.82 246.13 330.95 246.22 331.08 246.3 331.23 246.37 331.37 246.43 331.52 246.49 331.67 246.53 331.83 246.57 331.98 246.59 332.14 246.61 332.3 246.61"/>
  </g>
  <g id="ID000119">
    <line class="cls-18" x1="344.78" y1="236.63" x2="344.78" y2="251.61"/>
  </g>
  <g id="ID000120">
    <line class="cls-18" x1="357.27" y1="236.63" x2="357.27" y2="251.61"/>
  </g>
  <text class="cls-16" transform="translate(55.13 316.69)"><tspan x="0" y="0">5</tspan><tspan class="cls-20" x="8.9" y="0">’</tspan></text>
  <text class="cls-16" transform="translate(193.92 299.07)"><tspan x="0" y="0">3</tspan><tspan class="cls-20" x="8.9" y="0">’</tspan></text>
  <text class="cls-10" transform="translate(15.84 28.74)"><tspan x="0" y="0">B-6 aptamer</tspan></text>
</svg>