<?xml version="1.0" encoding="utf-8"?>
<!-- Generator: Adobe Illustrator 25.2.0, SVG Export Plug-In . SVG Version: 6.00 Build 0)  -->
<svg version="1.1" id="图层_1" xmlns="http://www.w3.org/2000/svg" xmlns:xlink="http://www.w3.org/1999/xlink" x="0px" y="0px"
	 viewBox="0 0 800 400" style="enable-background:new 0 0 800 400;" xml:space="preserve">
<style type="text/css">
	.st0{fill:#80DB9E;}
	.st1{font-family:'ArialMT';}
	.st2{font-size:21.2581px;}
	.st3{fill:#DF00CF;}
	.st4{font-size:14.1721px;}
	.st5{fill:#DF00DB;}
	.st6{fill:none;stroke:#000000;stroke-width:0.38;stroke-miterlimit:3.05;}
	.st7{font-size:25px;}
	.st8{font-size:17.0065px;}
	.st9{font-size:16.2979px;}
</style>
<g id="ID000011_00000114785280881367481670000008480522946627953318_">
	<text transform="matrix(1 0 0 1 423.8455 115.3168)" class="st0 st1 st2">A</text>
</g>
<g id="ID000011_00000068673156192896351990000000254234345998077066_">
	<text transform="matrix(1 0 0 1 370.9056 96.6781)" class="st0 st1 st2">A</text>
</g>
<g id="ID000011_00000111159201369141578770000008004448708480373400_">
	<text transform="matrix(1 0 0 1 423.2293 207.3637)" class="st0 st1 st2">A</text>
</g>
<g id="ID000011_00000170265868977991796760000012990028429421669553_">
	<text transform="matrix(1 0 0 1 425.9568 321.9975)" class="st0 st1 st2">A</text>
</g>
<g id="ID000011_00000074406794018991445100000018150675877661918653_">
	<text transform="matrix(1 0 0 1 359.5086 246.9731)" class="st0 st1 st2">A</text>
</g>
<g id="ID000011_00000157272446265204601250000003338340483604275380_">
	<text transform="matrix(1 0 0 1 431.8533 282.0883)" class="st0 st1 st2">A</text>
</g>
<g id="ID000011_00000159461478134478781860000004088508397801798554_">
	<text transform="matrix(1 0 0 1 431.8211 243.1098)" class="st0 st1 st2">A</text>
</g>
<g id="ID000011_00000150807934167411996930000006219310810759944066_">
	<text transform="matrix(1 0 0 1 446.0731 261.9555)" class="st0 st1 st2">A</text>
</g>
<g id="ID000016_00000135668205735829418980000010527140223643711677_">
	<text transform="matrix(1 0 0 1 425.3885 304.0697)" class="st0 st1 st2">C</text>
</g>
<g id="ID000016_00000096763068301419090870000012934147233905352326_">
	<text transform="matrix(1 0 0 1 422.9305 132.7196)" class="st3 st1 st2">C</text>
</g>
<g id="ID000016_00000166645912175061034410000000055592784453823165_">
	<text transform="matrix(1 0 0 1 369.7786 78.1107)" class="st0 st1 st2">C</text>
</g>
<g id="ID000016_00000085943880257261983080000017932963124970129336_">
	<text transform="matrix(1 0 0 1 414.3358 33.7188)" class="st0 st1 st2">C</text>
</g>
<g id="ID000016_00000086692266798163236570000009142792979300779711_">
	<text transform="matrix(1 0 0 1 369.7796 343.352)" class="st0 st1 st2">C</text>
</g>
<g id="ID000018">
	<text transform="matrix(1 0 0 1 315.1082 55.0316)" class="st1 st4">15</text>
</g>
<g id="ID000018_00000115514870234351053770000002579210218669066419_">
	<text transform="matrix(1 0 0 1 465.5037 94.1239)" class="st1 st4">20</text>
</g>
<g id="ID000018_00000117666296003751470590000007786998126918072209_">
	<text transform="matrix(1 0 0 1 322.97 188.1718)" class="st1 st4">10</text>
</g>
<g id="ID000018_00000064349264682117999260000010887921005473521809_">
	<text transform="matrix(1 0 0 1 465.9139 185.3105)" class="st1 st4">25</text>
</g>
<g id="ID000018_00000043433499337516963580000017385386817387378869_">
	<text transform="matrix(1 0 0 1 330.9617 302.7465)" class="st1 st4">5</text>
</g>
<g id="ID000018_00000098194307368796604180000016470294390484326317_">
	<text transform="matrix(1 0 0 1 468.6863 280.5014)" class="st1 st4">30</text>
</g>
<g id="ID000019_00000052070327573275755350000000758817958668960134_">
	<text transform="matrix(1 0 0 1 369.7786 325.9936)" class="st0 st1 st2">U</text>
</g>
<g id="ID000019_00000067226277113744964670000000162060437259733406_">
	<text transform="matrix(1 0 0 1 369.7796 209.1029)" class="st0 st1 st2">U</text>
</g>
<g id="ID000019_00000008109178229373206150000002583524553379727751_">
	<text transform="matrix(1 0 0 1 365.5511 55.893)" class="st0 st1 st2">U</text>
</g>
<g id="ID000019_00000041292555135185918190000010942745683061249948_">
	<text transform="matrix(1 0 0 1 385.9582 34.2787)" class="st0 st1 st2">U</text>
</g>
<g id="ID000019_00000067925227014505493390000011476006130336959630_">
	<text transform="matrix(1 0 0 1 423.5467 96.6781)" class="st0 st1 st2">U</text>
</g>
<g id="ID000019_00000075162121605037146360000010746395154983637426_">
	<text transform="matrix(1 0 0 1 370.8421 115.3158)" class="st0 st1 st2">U</text>
</g>
<g id="ID000019_00000090274417845589906360000002171281448224420522_">
	<text transform="matrix(1 0 0 1 422.6473 151.4438)" class="st5 st1 st2">U</text>
</g>
<g id="ID000012_00000017499111804898909130000003538850584559586491_">
	<text transform="matrix(1 0 0 1 368.8143 305.3109)" class="st0 st1 st2">G</text>
</g>
<g id="ID000012_00000078740341467804638890000008656253790680939164_">
	<text transform="matrix(1 0 0 1 422.4197 224.8598)" class="st0 st1 st2">G</text>
</g>
<g id="ID000012_00000067931110022023640870000001831841219668577725_">
	<text transform="matrix(1 0 0 1 370.2503 132.9745)" class="st0 st1 st2">G</text>
</g>
<g id="ID000012_00000090278801587085165440000015971089952537637256_">
	<text transform="matrix(1 0 0 1 422.6473 78.1107)" class="st0 st1 st2">G</text>
</g>
<g id="ID000012_00000145747908710658739960000006700819328999674558_">
	<text transform="matrix(1 0 0 1 428.8338 56.1488)" class="st0 st1 st2">G</text>
</g>
<g id="ID000012_00000138572770223877971480000004004007210275261845_">
	<text transform="matrix(1 0 0 1 421.0408 169.7148)" class="st0 st1 st2">G</text>
</g>
<g id="ID000012_00000050652572533139124520000010012134243674279599_">
	<text transform="matrix(1 0 0 1 421.5203 188.4267)" class="st0 st1 st2">G</text>
</g>
<g id="ID000012_00000111175910969798236470000002393981261626834822_">
	<text transform="matrix(1 0 0 1 358.3821 284.9076)" class="st0 st1 st2">G</text>
</g>
<g id="ID000016_00000106138437091020671470000001237065156933652358_">
	<text transform="matrix(1 0 0 1 426.3777 381.5258)" class="st0 st1 st2">C</text>
</g>
<g id="ID000016_00000016053849614586065450000009286206190547849131_">
	<text transform="matrix(1 0 0 1 425.5506 363.4438)" class="st0 st1 st2">C</text>
</g>
<g id="ID000016_00000031914731078649917590000000091872175939870595_">
	<text transform="matrix(1 0 0 1 369.1878 227.0238)" class="st0 st1 st2">C</text>
</g>
<g id="ID000016_00000121979401007140991240000007585095841348528784_">
	<text transform="matrix(1 0 0 1 369.7786 190.2177)" class="st0 st1 st2">C</text>
</g>
<g id="ID000012_00000030453125433587956290000009614593478624353181_">
	<text transform="matrix(1 0 0 1 369.7796 381.5277)" class="st0 st1 st2">G</text>
</g>
<g id="ID000012_00000114776894215148202810000005323254616510850964_">
	<text transform="matrix(1 0 0 1 369.7786 363.4438)" class="st0 st1 st2">G</text>
</g>
<g id="ID000012_00000080208127953092113740000007888127035658441360_">
	<text transform="matrix(1 0 0 1 424.8309 343.352)" class="st0 st1 st2">G</text>
</g>
<g id="ID000023_00000150077023338465670070000015883755042725346715_">
	<line class="st6" x1="366.5" y1="265.8" x2="366" y2="249.8"/>
</g>
<g id="ID000023_00000085931682403448757280000014921727926976440463_">
	<line class="st6" x1="378.7" y1="170.1" x2="378.2" y2="136.2"/>
</g>
<text transform="matrix(1 0 0 1 1.678467e-04 23.7971)" class="st1 st7">HIV-1rev RNA-aptamer</text>
<text transform="matrix(1 0 0 1 503.8829 -84.5252)" class="st1 st7"> </text>
<text transform="matrix(1 0 0 1 353.4402 388.0766)" class="st1 st8">5’</text>
<text transform="matrix(1 0 0 1 448.3201 387.0102)" class="st1 st9">3’</text>
<g id="ID000023">
	<line class="st6" x1="421.8" y1="70.7" x2="386" y2="70.4"/>
</g>
<g id="ID000023_00000016074335850620614650000000724828108971795636_">
	<line class="st6" x1="422.2" y1="89.5" x2="386.4" y2="89.2"/>
</g>
<g id="ID000023_00000078027826130472004210000016519760779551389614_">
	<line class="st6" x1="422.9" y1="107.3" x2="387.1" y2="107"/>
</g>
<g id="ID000023_00000147931215955244841390000017090959687829637293_">
	<line class="st6" x1="422.2" y1="124.9" x2="386.4" y2="124.6"/>
</g>
<g id="ID000023_00000157997427915649568640000009849757203480635801_">
	<line class="st6" x1="421.3" y1="183.1" x2="385.5" y2="182.8"/>
</g>
<g id="ID000023_00000144296227511797546190000015896918049117507007_">
	<line class="st6" x1="421.3" y1="201.1" x2="385.5" y2="200.9"/>
</g>
<g id="ID000023_00000141453963323400577520000016301558615464137615_">
	<line class="st6" x1="421.3" y1="218.1" x2="385.5" y2="217.8"/>
</g>
<g id="ID000023_00000119832083454675070280000001428287298807776443_">
	<line class="st6" x1="423.9" y1="298.8" x2="388" y2="298.5"/>
</g>
<g id="ID000023_00000072997439302115829210000012689017459418936458_">
	<line class="st6" x1="423.4" y1="317.4" x2="387.6" y2="317.1"/>
</g>
<g id="ID000023_00000156559284129323071040000015391097059170119324_">
	<line class="st6" x1="423.4" y1="336" x2="387.6" y2="335.7"/>
</g>
<g id="ID000023_00000119077643454774589270000015752497419696430211_">
	<line class="st6" x1="423.9" y1="355.1" x2="388" y2="354.8"/>
</g>
<g id="ID000023_00000072256015086683393440000012801262759863765906_">
	<line class="st6" x1="424.3" y1="374.3" x2="388.4" y2="374"/>
</g>
<g id="ID000017">
	<line class="st6" x1="362.6" y1="182.9" x2="342.7" y2="182.7"/>
</g>
<g id="ID000017_00000001660428866086611750000005627677013199413934_">
	<line class="st6" x1="356.1" y1="50.1" x2="336.2" y2="50"/>
</g>
<g id="ID000017_00000026844920344729570700000015984041683167556270_">
	<line class="st6" x1="463" y1="89.5" x2="443.1" y2="89.4"/>
</g>
<g id="ID000017_00000018209065058763163690000003453683434016938942_">
	<line class="st6" x1="460.9" y1="181.2" x2="441" y2="181.1"/>
</g>
<g id="ID000017_00000101811034089864425410000014435986759806507686_">
	<line class="st6" x1="361.7" y1="297.6" x2="341.7" y2="297.4"/>
</g>
<g id="ID000017_00000015349063636015166450000008899741715878059418_">
	<line class="st6" x1="466" y1="275.2" x2="446" y2="275.1"/>
</g>
</svg>
