<?xml version="1.0" encoding="utf-8"?>
<!-- Generator: Adobe Illustrator 25.2.0, SVG Export Plug-In . SVG Version: 6.00 Build 0)  -->
<svg version="1.1" id="图层_1" xmlns="http://www.w3.org/2000/svg" xmlns:xlink="http://www.w3.org/1999/xlink" x="0px" y="0px"
	 viewBox="0 0 800 400" style="enable-background:new 0 0 800 400;" xml:space="preserve">
<style type="text/css">
	.st0{fill:#80DB9E;}
	.st1{font-family:'ArialMT';}
	.st2{font-size:19.7295px;}
	.st3{fill:#FF00FF;}
	.st4{font-size:19.7297px;}
	.st5{fill:none;stroke:#000000;stroke-width:0.38;stroke-miterlimit:3.05;}
	.st6{font-size:15.7836px;}
	.st7{font-size:15.126px;}
	.st8{font-size:13.153px;}
	.st9{font-size:25px;}
</style>
<g id="ID000011_00000068673156192896351990000000254234345998077066_">
	<text transform="matrix(1 0 0 1 400 41.9702)" class="st0 st1 st2">A</text>
</g>
<g id="ID000011_00000109723932365345031190000000643564555070109327_">
	<text transform="matrix(1 0 0 1 360.5405 100.9775)" class="st0 st1 st2">A</text>
</g>
<g id="ID000011_00000023247591466399513710000016165085144169733765_">
	<text transform="matrix(1 0 0 1 411.8369 120.708)" class="st0 st1 st2">A</text>
</g>
<g id="ID000011_00000078742281097252966530000010192026673406259877_">
	<text transform="matrix(1 0 0 1 427.6211 181.8691)" class="st0 st1 st2">A</text>
</g>
<g id="ID000011_00000117675388852935806460000016432102069070004641_">
	<text transform="matrix(1 0 0 1 427.6211 275.2559)" class="st0 st1 st2">A</text>
</g>
<g id="ID000011_00000039843237845648500470000007974926107261726103_">
	<text transform="matrix(1 0 0 1 416.338 61.9907)" class="st0 st1 st2">A</text>
</g>
<g id="ID000016_00000166645912175061034410000000055592784453823165_">
	<text transform="matrix(1 0 0 1 370.0293 44.1045)" class="st0 st1 st2">C</text>
</g>
<g id="ID000016_00000111896565474032641960000009354227250873066664_">
	<text transform="matrix(1 0 0 1 359.5015 81.21)" class="st0 st1 st2">C</text>
</g>
<g id="ID000016_00000090275294209711393460000012085661733371891088_">
	<text transform="matrix(1 0 0 1 411.4551 141.0557)" class="st0 st1 st2">C</text>
</g>
<g id="ID000016_00000001661283415103580490000010859884130501367459_">
	<text transform="matrix(1 0 0 1 362.1313 220.6318)" class="st0 st1 st2">C</text>
</g>
<g id="ID000016_00000120551938157601336650000009532237118027179420_">
	<text transform="matrix(1 0 0 1 362.1313 240.3623)" class="st3 st1 st2">C</text>
</g>
<g id="ID000016_00000033348112526082330450000012412016449767221679_">
	<text transform="matrix(1 0 0 1 412.1123 198.9287)" class="st3 st1 st2">C</text>
</g>
<g id="ID000016_00000063599046526407510270000013180993145838876834_">
	<text transform="matrix(1 0 0 1 412.1123 294.9463)" class="st0 st1 st2">C</text>
</g>
<g id="ID000016_00000046324792888833184870000017693833416131857068_">
	<text transform="matrix(1 0 0 1 412.1123 336.3789)" class="st0 st1 st2">C</text>
</g>
<g id="ID000016_00000176029059760422395840000010500803402477860242_">
	<text transform="matrix(1 0 0 1 412.1123 375.8379)" class="st0 st1 st2">C</text>
</g>
<g id="ID000016_00000075155945637870984420000003757531211361966985_">
	<text transform="matrix(1 0 0 1 426.582 393.5938)" class="st0 st1 st2">C</text>
</g>
<g id="ID000016_00000042013197076045307260000006002941022438529920_">
	<text transform="matrix(1 0 0 1 362.1313 315.335)" class="st0 st1 st2">C</text>
</g>
<g id="ID000019_00000142149173384165958150000008365485646302694846_">
	<text transform="matrix(1 0 0 1 427.1523 256.1846)" class="st0 st1 st2">U</text>
</g>
<g id="ID000019_00000131352313968590255190000011780790678822679203_">
	<text transform="matrix(1 0 0 1 411.3682 99.0049)" class="st0 st1 st2">U</text>
</g>
<g id="ID000019_00000116929039688433672750000008630700363548211114_">
	<text transform="matrix(1 0 0 1 359.4146 120.708)" class="st0 st1 st2">U</text>
</g>
<g id="ID000019_00000180355193895585056210000011454957750652161411_">
	<text transform="matrix(1 0 0 1 412.0264 356.8047)" class="st0 st1 st2">U</text>
</g>
<g id="ID000012_00000029034351604969160440000004583832983480125316_">
	<text transform="matrix(1 0 0 1 355.9229 61.9907)" class="st0 st1 st2">G</text>
</g>
<g id="ID000012_00000018230432043984908620000003619915416797671050_">
	<text transform="matrix(1 0 0 1 410.5342 81.1143)" class="st0 st1 st2">G</text>
</g>
<g id="ID000012_00000099641347274435955940000004110812197652613255_">
	<text transform="matrix(1 0 0 1 359.2378 140.9609)" class="st0 st1 st2">G</text>
</g>
<g id="ID000012_00000013175832331293237560000016242982205703122332_">
	<text transform="matrix(1 0 0 1 411.8496 220.5371)" class="st0 st1 st2">G</text>
</g>
<g id="ID000012_00000070832492686757224620000004071196371150347175_">
	<text transform="matrix(1 0 0 1 361.2114 294.8516)" class="st0 st1 st2">G</text>
</g>
<g id="ID000012_00000005252752618292419850000017682864993731175846_">
	<text transform="matrix(1 0 0 1 411.8496 315.2383)" class="st0 st1 st2">G</text>
</g>
<g id="ID000012_00000065068240484926212700000001630544618172643735_">
	<text transform="matrix(1 0 0 1 361.2114 356.6709)" class="st0 st1 st2">G</text>
</g>
<g id="ID000012_00000067200407889134008100000016949425269578021781_">
	<text transform="matrix(1 0 0 1 361.2114 336.2842)" class="st0 st1 st2">G</text>
</g>
<g id="ID000012_00000082347116960343974020000017365703112604661666_">
	<text transform="matrix(1 0 0 1 361.2114 375.7422)" class="st0 st1 st2">G</text>
</g>
<g id="ID000012_00000018949232813656470060000016666774446213019548_">
	<text transform="matrix(1 0 0 1 411.8496 240.2666)" class="st0 st1 st2">G</text>
</g>
<g id="ID000012_00000074424587108780236500000003295168514583723925_">
	<text transform="matrix(1 0 0 1 361.2114 200.8076)" class="st0 st1 st2">G</text>
</g>
<g id="ID000012_00000013171318651368562160000010407957147914508472_">
	<text transform="matrix(1 2.257084e-03 -2.257084e-03 1 427.0277 162.7092)" class="st0 st1 st4">G</text>
</g>
<g id="ID000023_00000032635678253757170640000010080156620488840626_">
	<line class="st5" x1="408.9" y1="73.9" x2="375.6" y2="73.7"/>
</g>
<g id="ID000023_00000095330149359873097810000013486711885264147349_">
	<line class="st5" x1="408.9" y1="92.3" x2="375.6" y2="92.1"/>
</g>
<g id="ID000023_00000013900721196643353440000008473354497205363383_">
	<line class="st5" x1="408.9" y1="112.7" x2="375.6" y2="112.5"/>
</g>
<g id="ID000023_00000130610025377683723310000001841228116812055455_">
	<line class="st5" x1="408.9" y1="133.1" x2="375.6" y2="132.8"/>
</g>
<g id="ID000023_00000051372617200098187570000008993006663839872413_">
	<line class="st5" x1="408.9" y1="192.3" x2="375.6" y2="192"/>
</g>
<g id="ID000023_00000086685280479929084520000003698236561527937720_">
	<line class="st5" x1="408.9" y1="212.7" x2="375.6" y2="212.4"/>
</g>
<g id="ID000023_00000026872286556781783260000017301172659861956778_">
	<line class="st5" x1="408.9" y1="233.1" x2="375.6" y2="232.8"/>
</g>
<g id="ID000023_00000160880273904657806890000007081423357720072588_">
	<line class="st5" x1="408.9" y1="288.3" x2="375.6" y2="288.1"/>
</g>
<g id="ID000023_00000123430609621741118590000006650803934203008189_">
	<line class="st5" x1="408.9" y1="350.8" x2="375.6" y2="350.5"/>
</g>
<g id="ID000023_00000127024646610167903270000009643240120992739986_">
	<line class="st5" x1="408.9" y1="368.6" x2="375.6" y2="368.3"/>
</g>
<g id="ID000023_00000067918828376525748520000004791276154684194463_">
	<line class="st5" x1="408.9" y1="329.7" x2="375.6" y2="329.5"/>
</g>
<g id="ID000023_00000015344263704113868750000016605617294780434862_">
	<line class="st5" x1="408.9" y1="308.7" x2="375.6" y2="308.4"/>
</g>
<line class="st5" x1="368" y1="178.5" x2="367.5" y2="147.1"/>
<line class="st5" x1="368" y1="275.2" x2="367.5" y2="243.7"/>
<text transform="matrix(1 0 0 1 348.8823 393.877)" class="st1 st6">5’</text>
<text transform="matrix(1 0 0 1 446.6436 394.3594)" class="st1 st7">3’</text>
<g id="ID000018_00000043433499337516963580000017385386817387378869_">
	<text transform="matrix(1 0 0 1 329.4575 293.2129)" class="st1 st8">5</text>
</g>
<g id="ID000017_00000101811034089864425410000014435986759806507686_">
	<line class="st5" x1="357.9" y1="288.4" x2="339.4" y2="288.3"/>
</g>
<g id="ID000017_00000080169212527197373930000006112723050035209126_">
	<line class="st5" x1="355.9" y1="112.9" x2="337.4" y2="112.7"/>
</g>
<g id="ID000017_00000183231035643874539450000017156910861543195037_">
	<line class="st5" x1="461.1" y1="154.9" x2="442.7" y2="154.8"/>
</g>
<g id="ID000017_00000048469829938590169630000002529391410382554242_">
	<line class="st5" x1="459.2" y1="250.3" x2="440.7" y2="250.2"/>
</g>
<g id="ID000017_00000044880833731556753130000013303198571340259978_">
	<line class="st5" x1="444" y1="329.2" x2="425.6" y2="329.1"/>
</g>
<g id="ID000017_00000065066159583072225870000014755021960913794483_">
	<line class="st5" x1="435.2" y1="34.2" x2="416.7" y2="34"/>
</g>
<g id="ID000018_00000117666296003751470590000007786998126918072209_">
	<text transform="matrix(1 0 0 1 321.854 116.9609)" class="st1 st8">10</text>
</g>
<g id="ID000018">
	<text transform="matrix(1 0 0 1 439.7988 38.9082)" class="st1 st8">15</text>
</g>
<g id="ID000018_00000115514870234351053770000002579210218669066419_">
	<text transform="matrix(1 0 0 1 462.5918 160.3652)" class="st1 st8">20</text>
</g>
<g id="ID000018_00000064349264682117999260000010887921005473521809_">
	<text transform="matrix(1 0 0 1 463.249 253.7539)" class="st1 st8">25</text>
</g>
<g id="ID000018_00000098194307368796604180000016470294390484326317_">
	<text transform="matrix(1 0 0 1 444.833 333.9863)" class="st1 st8">30</text>
</g>
<text transform="matrix(1 0 0 1 9.9685 24.6395)" class="st1 st9">Rex peptide-aptamer-aptamer</text>
</svg>
