<?xml version="1.0" encoding="utf-8"?>
<!-- Generator: Adobe Illustrator 25.2.0, SVG Export Plug-In . SVG Version: 6.00 Build 0)  -->
<svg version="1.1" id="图层_1" xmlns="http://www.w3.org/2000/svg" xmlns:xlink="http://www.w3.org/1999/xlink" x="0px" y="0px"
	 viewBox="0 0 800 400" style="enable-background:new 0 0 800 400;" xml:space="preserve">
<style type="text/css">
	.st0{fill:#80DB9E;}
	.st1{font-family:'ArialMT';}
	.st2{font-size:19.7295px;}
	.st3{fill:#FF00FF;}
	.st4{font-size:19.7297px;}
	.st5{fill:none;stroke:#000000;stroke-width:0.38;stroke-miterlimit:3.05;}
	.st6{font-size:15.7836px;}
	.st7{font-size:15.126px;}
	.st8{font-size:13.153px;}
	.st9{font-size:20px;}
</style>
<g id="ID000011_00000068673156192896351990000000254234345998077066_">
	<text transform="matrix(1 0 0 1 415.8401 78.0834)" class="st0 st1 st2">A</text>
</g>
<g id="ID000011_00000109723932365345031190000000643564555070109327_">
	<text transform="matrix(1 0 0 1 376.3806 137.0907)" class="st0 st1 st2">A</text>
</g>
<g id="ID000011_00000023247591466399513710000016165085144169733765_">
	<text transform="matrix(1 0 0 1 427.677 156.8212)" class="st0 st1 st2">A</text>
</g>
<g id="ID000011_00000078742281097252966530000010192026673406259877_">
	<text transform="matrix(1 0 0 1 442.5412 202.3536)" class="st0 st1 st2">A</text>
</g>
<g id="ID000011_00000117675388852935806460000016432102069070004641_">
	<text transform="matrix(1 0 0 1 445.9036 276.851)" class="st0 st1 st2">A</text>
</g>
<g id="ID000011_00000039843237845648500470000007974926107261726103_">
	<text transform="matrix(1 0 0 1 432.1781 98.1039)" class="st0 st1 st2">A</text>
</g>
<g id="ID000016_00000166645912175061034410000000055592784453823165_">
	<text transform="matrix(1 0 0 1 385.8694 80.2177)" class="st0 st1 st2">C</text>
</g>
<g id="ID000016_00000111896565474032641960000009354227250873066664_">
	<text transform="matrix(1 0 0 1 375.3416 117.3232)" class="st0 st1 st2">C</text>
</g>
<g id="ID000016_00000090275294209711393460000012085661733371891088_">
	<text transform="matrix(1 0 0 1 427.2952 177.1689)" class="st0 st1 st2">C</text>
</g>
<g id="ID000016_00000001661283415103580490000010859884130501367459_">
	<g>
		<text transform="matrix(1 0 0 1 375.8811 230.9855)" class="st3 st1 st2">C</text>
	</g>
</g>
<g id="ID000016_00000120551938157601336650000009532237118027179420_">
	<text transform="matrix(1 0 0 1 375.8811 250.716)" class="st3 st1 st2">C</text>
</g>
<g id="ID000016_00000033348112526082330450000012412016449767221679_">
	<text transform="matrix(1 0 0 1 425.8621 209.2823)" class="st3 st1 st2">C</text>
</g>
<g id="ID000016_00000063599046526407510270000013180993145838876834_">
	<text transform="matrix(1 0 0 1 427.085 283.6972)" class="st0 st1 st2">C</text>
</g>
<g id="ID000016_00000046324792888833184870000017693833416131857068_">
	<text transform="matrix(1 0 0 1 427.085 325.1298)" class="st0 st1 st2">C</text>
</g>
<g id="ID000016_00000176029059760422395840000010500803402477860242_">
	<text transform="matrix(1 0 0 1 427.085 364.5888)" class="st0 st1 st2">C</text>
</g>
<g id="ID000016_00000075155945637870984420000003757531211361966985_">
	<text transform="matrix(1 0 0 1 441.5547 382.3447)" class="st0 st1 st2">C</text>
</g>
<g id="ID000016_00000042013197076045307260000006002941022438529920_">
	<text transform="matrix(1 0 0 1 377.104 304.0859)" class="st0 st1 st2">C</text>
</g>
<g id="ID000019_00000142149173384165958150000008365485646302694846_">
	<text transform="matrix(1 0 0 1 445.7789 258.24)" class="st0 st1 st2">U</text>
</g>
<g id="ID000019_00000131352313968590255190000011780790678822679203_">
	<text transform="matrix(1 0 0 1 427.2083 135.1181)" class="st0 st1 st2">U</text>
</g>
<g id="ID000019_00000116929039688433672750000008630700363548211114_">
	<text transform="matrix(1 0 0 1 375.2547 156.8212)" class="st0 st1 st2">U</text>
</g>
<g id="ID000019_00000180355193895585056210000011454957750652161411_">
	<text transform="matrix(1 0 0 1 426.9991 345.5556)" class="st0 st1 st2">U</text>
</g>
<g id="ID000012_00000029034351604969160440000004583832983480125316_">
	<text transform="matrix(1 0 0 1 371.763 98.1039)" class="st0 st1 st2">G</text>
</g>
<g id="ID000012_00000018230432043984908620000003619915416797671050_">
	<text transform="matrix(1 0 0 1 426.3743 117.2275)" class="st0 st1 st2">G</text>
</g>
<g id="ID000012_00000099641347274435955940000004110812197652613255_">
	<text transform="matrix(1 0 0 1 375.0779 177.0741)" class="st0 st1 st2">G</text>
</g>
<g id="ID000012_00000013175832331293237560000016242982205703122332_">
	<g>
		<text transform="matrix(1 0 0 1 425.5994 230.8907)" class="st3 st1 st2">G</text>
	</g>
</g>
<g id="ID000012_00000070832492686757224620000004071196371150347175_">
	<text transform="matrix(1 0 0 1 376.1841 283.6025)" class="st0 st1 st2">G</text>
</g>
<g id="ID000012_00000005252752618292419850000017682864993731175846_">
	<text transform="matrix(1 0 0 1 426.8223 303.9892)" class="st0 st1 st2">G</text>
</g>
<g id="ID000012_00000065068240484926212700000001630544618172643735_">
	<text transform="matrix(1 0 0 1 376.1841 345.4218)" class="st0 st1 st2">G</text>
</g>
<g id="ID000012_00000067200407889134008100000016949425269578021781_">
	<text transform="matrix(1 0 0 1 376.1841 325.0351)" class="st0 st1 st2">G</text>
</g>
<g id="ID000012_00000082347116960343974020000017365703112604661666_">
	<text transform="matrix(1 0 0 1 376.1841 364.4931)" class="st0 st1 st2">G</text>
</g>
<g id="ID000012_00000018949232813656470060000016666774446213019548_">
	<g>
		<text transform="matrix(1 0 0 1 425.5994 250.6203)" class="st3 st1 st2">G</text>
	</g>
</g>
<g id="ID000012_00000074424587108780236500000003295168514583723925_">
	<g>
		<text transform="matrix(1 0 0 1 374.9612 211.1613)" class="st3 st1 st2">G</text>
	</g>
</g>
<g id="ID000012_00000013171318651368562160000010407957147914508472_">
	<text transform="matrix(1 2.257084e-03 -2.257084e-03 1 443.2762 184.5938)" class="st0 st1 st4">G</text>
</g>
<g id="ID000023_00000032635678253757170640000010080156620488840626_">
	<line class="st5" x1="424.7" y1="110" x2="391.4" y2="109.8"/>
</g>
<g id="ID000023_00000095330149359873097810000013486711885264147349_">
	<line class="st5" x1="424.7" y1="128.4" x2="391.4" y2="128.2"/>
</g>
<g id="ID000023_00000013900721196643353440000008473354497205363383_">
	<line class="st5" x1="424.7" y1="148.8" x2="391.4" y2="148.6"/>
</g>
<g id="ID000023_00000130610025377683723310000001841228116812055455_">
	<line class="st5" x1="424.7" y1="169.2" x2="391.4" y2="168.9"/>
</g>
<g id="ID000023_00000051372617200098187570000008993006663839872413_">
	<line class="st5" x1="424.5" y1="202.7" x2="391.2" y2="202.4"/>
</g>
<g id="ID000023_00000086685280479929084520000003698236561527937720_">
	<line class="st5" x1="424.5" y1="223.1" x2="391.2" y2="222.8"/>
</g>
<g id="ID000023_00000026872286556781783260000017301172659861956778_">
	<line class="st5" x1="424.5" y1="243.5" x2="391.2" y2="243.2"/>
</g>
<g id="ID000023_00000160880273904657806890000007081423357720072588_">
	<line class="st5" x1="425.6" y1="277.1" x2="392.3" y2="276.9"/>
</g>
<g id="ID000023_00000123430609621741118590000006650803934203008189_">
	<line class="st5" x1="425.6" y1="339.6" x2="392.3" y2="339.3"/>
</g>
<g id="ID000023_00000127024646610167903270000009643240120992739986_">
	<line class="st5" x1="425.6" y1="357.4" x2="392.3" y2="357.1"/>
</g>
<g id="ID000023_00000067918828376525748520000004791276154684194463_">
	<line class="st5" x1="425.6" y1="318.5" x2="392.3" y2="318.3"/>
</g>
<g id="ID000023_00000015344263704113868750000016605617294780434862_">
	<line class="st5" x1="425.6" y1="297.5" x2="392.3" y2="297.2"/>
</g>
<text transform="matrix(1 0 0 1 363.855 382.6279)" class="st1 st6">5’</text>
<text transform="matrix(1 0 0 1 461.6163 383.1103)" class="st1 st7">3’</text>
<g id="ID000018_00000043433499337516963580000017385386817387378869_">
	<text transform="matrix(1 0 0 1 344.4302 281.9638)" class="st1 st8">5</text>
</g>
<g id="ID000017_00000101811034089864425410000014435986759806507686_">
	<line class="st5" x1="372.9" y1="277.2" x2="354.4" y2="277.1"/>
</g>
<g id="ID000017_00000080169212527197373930000006112723050035209126_">
	<line class="st5" x1="371.7" y1="149" x2="353.2" y2="148.8"/>
</g>
<g id="ID000017_00000044880833731556753130000013303198571340259978_">
	<line class="st5" x1="459" y1="318" x2="440.6" y2="317.9"/>
</g>
<g id="ID000018_00000117666296003751470590000007786998126918072209_">
	<text transform="matrix(1 0 0 1 337.6941 153.0741)" class="st1 st8">10</text>
</g>
<g id="ID000018_00000098194307368796604180000016470294390484326317_">
	<text transform="matrix(1 0 0 1 459.8057 322.7372)" class="st1 st8">30</text>
</g>
<text transform="matrix(1 0 0 1 11.8808 31.6734)" class="st1 st9">33-mer RNA aptamer </text>
</svg>
