<?xml version="1.0" encoding="utf-8"?>
<!-- Generator: Adobe Illustrator 25.2.0, SVG Export Plug-In . SVG Version: 6.00 Build 0)  -->
<svg version="1.1" id="图层_1" xmlns="http://www.w3.org/2000/svg" xmlns:xlink="http://www.w3.org/1999/xlink" x="0px" y="0px"
	 viewBox="0 0 800 400" style="enable-background:new 0 0 800 400;" xml:space="preserve">
<style type="text/css">
	.st0{font-family:'ArialMT';}
	.st1{font-size:25px;}
	.st2{fill:#C2C2FF;}
	.st3{font-size:20.78px;}
	.st4{fill:#80DB9E;}
	.st5{fill:#FF870A;}
	.st6{font-size:19.9912px;}
	.st7{fill:none;stroke:#000000;stroke-width:0.25;stroke-miterlimit:3.05;}
</style>
<text transform="matrix(1 0 0 1 10.4883 33.4083)" class="st0 st1">class II-1 aptamer</text>
<g id="ID000012_00000137117127880301586080000003242208866761419910_">
	<text transform="matrix(0.9999 1.570698e-02 -1.570698e-02 0.9999 171.3522 85.3307)" class="st2 st0 st3">A</text>
</g>
<g id="ID000012_00000052800987457583873640000015051008823717665466_">
	<text transform="matrix(0.9999 1.570698e-02 -1.570698e-02 0.9999 549.8228 152.5266)" class="st4 st0 st3">A</text>
</g>
<g id="ID000012_00000135674319178248923230000011007626322400028056_">
	<g>
		<text transform="matrix(0.9999 1.570698e-02 -1.570698e-02 0.9999 625.0513 133.9785)" class="st2 st0 st3">A</text>
	</g>
</g>
<g id="ID000012_00000180358388346558012050000011580048546187022779_">
	<g>
		<text transform="matrix(0.9999 1.570698e-02 -1.570698e-02 0.9999 709.0391 200.6887)" class="st2 st0 st3">A</text>
	</g>
</g>
<g id="ID000012_00000176018681289456321210000013504339159570007728_">
	<g>
		<text transform="matrix(0.9999 1.570698e-02 -1.570698e-02 0.9999 709.0389 130.7822)" class="st2 st0 st3">A</text>
	</g>
</g>
<g id="ID000012_00000051364927317426556150000018277135338315049915_">
	<g>
		<text transform="matrix(0.9999 1.570698e-02 -1.570698e-02 0.9999 751.7286 141.4726)" class="st2 st0 st3">A</text>
	</g>
</g>
<g id="ID000012_00000118366801429329420920000002263225920473462423_">
	<g>
		<text transform="matrix(0.9999 1.570698e-02 -1.570698e-02 0.9999 593.9925 96.8021)" class="st2 st0 st3">A</text>
	</g>
</g>
<g id="ID000012_00000183248091961641036070000007943231880476681883_">
	<g>
		<text transform="matrix(0.9999 1.570698e-02 -1.570698e-02 0.9999 574.2278 93.0373)" class="st2 st0 st3">A</text>
	</g>
</g>
<g id="ID000012_00000136380413877205328230000007713554749011748532_">
	<text transform="matrix(0.9999 1.570698e-02 -1.570698e-02 0.9999 456.6714 152.5264)" class="st5 st0 st3">A</text>
</g>
<g id="ID000012_00000104702420131679990220000007206354001651626389_">
	<text transform="matrix(0.9999 1.570698e-02 -1.570698e-02 0.9999 192.9482 85.331)" class="st2 st0 st3">A</text>
</g>
<g id="ID000012_00000089554334047010967910000003244779316245020344_">
	<text transform="matrix(0.9999 1.570698e-02 -1.570698e-02 0.9999 318.8985 107.6243)" class="st2 st0 st3">A</text>
</g>
<g id="ID000012_00000176042149529313569050000003277506239383167884_">
	<text transform="matrix(0.9999 1.570698e-02 -1.570698e-02 0.9999 332.0276 227.4075)" class="st5 st0 st3">A</text>
</g>
<g id="ID000012_00000036951145234406370860000001171004608539729576_">
	<text transform="matrix(0.9999 1.570698e-02 -1.570698e-02 0.9999 262.2375 192.8782)" class="st2 st0 st3">A</text>
</g>
<g id="ID000012_00000061447645308699190930000012435311287110549640_">
	<text transform="matrix(0.9999 1.570698e-02 -1.570698e-02 0.9999 279.0197 214.5074)" class="st2 st0 st3">A</text>
</g>
<g id="ID000012_00000037653424137305481610000010630444137899434629_">
	<g>
		<text transform="matrix(0.9999 1.570698e-02 -1.570698e-02 0.9999 281.8893 311.5252)" class="st2 st0 st3">A</text>
	</g>
</g>
<g id="ID000012_00000129919283634739673800000002227798511490388119_">
	<g>
		<text transform="matrix(0.9999 1.570698e-02 -1.570698e-02 0.9999 350.3598 311.5254)" class="st2 st0 st3">A</text>
	</g>
</g>
<g id="ID000012_00000107578153871611089410000014909541544827095741_">
	<text transform="matrix(0.9999 1.570698e-02 -1.570698e-02 0.9999 262.2372 238.6085)" class="st2 st0 st3">A</text>
</g>
<g id="ID000012_00000079471821260873873500000000726658022903440286_">
	<text transform="matrix(0.9999 1.570698e-02 -1.570698e-02 0.9999 226.9519 148.035)" class="st4 st0 st3">A</text>
</g>
<g id="ID000012_00000057828036159769810340000017128759505667138236_">
	<text transform="matrix(0.9999 1.570698e-02 -1.570698e-02 0.9999 419.366 152.5258)" class="st5 st0 st3">A</text>
</g>
<g id="ID000012_00000105395121571334125910000004778229057341999026_">
	<text transform="matrix(0.9999 1.570698e-02 -1.570698e-02 0.9999 399.6797 152.5267)" class="st5 st0 st3">A</text>
</g>
<g id="ID000012_00000093134958104049150050000006799506887750862489_">
	<text transform="matrix(0.9999 1.570698e-02 -1.570698e-02 0.9999 356.8664 138.1686)" class="st2 st0 st3">U</text>
</g>
<g id="ID000012_00000164479414478061805810000015899212884355125891_">
	<text transform="matrix(0.9999 1.570698e-02 -1.570698e-02 0.9999 242.5135 124.3483)" class="st4 st0 st3">U</text>
</g>
<g id="ID000012_00000182493909247175254790000006383242837873001365_">
	<text transform="matrix(0.9999 1.570698e-02 -1.570698e-02 0.9999 207.9252 103.1718)" class="st2 st0 st3">U</text>
</g>
<g id="ID000012_00000122682124678217713890000001087326731523239590_">
	<text transform="matrix(0.9999 1.570698e-02 -1.570698e-02 0.9999 153.9359 103.1714)" class="st2 st0 st3">U</text>
</g>
<g id="ID000012_00000084530851471588638350000011552953488596522883_">
	<text transform="matrix(0.9999 1.570698e-02 -1.570698e-02 0.9999 181.6153 143.4062)" class="st2 st0 st3">U</text>
</g>
<g id="ID000012_00000145048700219822617630000006440679143267178677_">
	<text transform="matrix(0.9999 1.570698e-02 -1.570698e-02 0.9999 207.925 138.1684)" class="st2 st0 st3">U</text>
</g>
<g id="ID000012_00000178922472172603966200000017197311325470707621_">
	<text transform="matrix(0.9999 1.570698e-02 -1.570698e-02 0.9999 242.5132 205.2272)" class="st2 st0 st3">U</text>
</g>
<g id="ID000012_00000031193918083088736570000003579246519791356824_">
	<text transform="matrix(0.9999 1.570698e-02 -1.570698e-02 0.9999 337.1632 124.3488)" class="st2 st0 st3">U</text>
</g>
<g id="ID000012_00000146488805362387105430000015688025136423632060_">
	<text transform="matrix(0.9999 1.570698e-02 -1.570698e-02 0.9999 297.7321 227.4077)" class="st5 st0 st3">U</text>
</g>
<g id="ID000012_00000099644952111919559750000014487600756943333770_">
	<g>
		<text transform="matrix(0.9999 1.570698e-02 -1.570698e-02 0.9999 327.7257 374.4482)" class="st2 st0 st3">U</text>
	</g>
</g>
<g id="ID000012_00000146458971542962810620000001501789230461844411_">
	<g>
		<text transform="matrix(0.9999 1.570698e-02 -1.570698e-02 0.9999 273.7599 333.7416)" class="st2 st0 st3">U</text>
	</g>
</g>
<g id="ID000012_00000181788990106384301540000000112907578555711873_">
	<g>
		<text transform="matrix(0.9999 1.570698e-02 -1.570698e-02 0.9999 357.4495 335.1478)" class="st2 st0 st3">U</text>
	</g>
</g>
<g id="ID000012_00000029028779197013204280000018383762369457272215_">
	<text transform="matrix(0.9999 1.570698e-02 -1.570698e-02 0.9999 456.6712 180.0125)" class="st5 st0 st3">U</text>
</g>
<g id="ID000012_00000161631032309025640210000013873789955288420519_">
	<text transform="matrix(0.9999 1.570698e-02 -1.570698e-02 0.9999 436.9856 180.0133)" class="st5 st0 st3">U</text>
</g>
<g id="ID000012_00000023263408834628793590000001757288287706193570_">
	<text transform="matrix(0.9999 1.570698e-02 -1.570698e-02 0.9999 569.5086 180.0129)" class="st4 st0 st3">U</text>
</g>
<g id="ID000012_00000096749497561937414860000007870905252230249365_">
	<g>
		<text transform="matrix(0.9999 1.570698e-02 -1.570698e-02 0.9999 692.304 189.4499)" class="st2 st0 st3">U</text>
	</g>
</g>
<g id="ID000012_00000127021088809032588820000015068139848390487467_">
	<g>
		<text transform="matrix(0.9999 1.570698e-02 -1.570698e-02 0.9999 692.3046 141.4727)" class="st2 st0 st3">U</text>
	</g>
</g>
<g id="ID000012_00000005260075793019977780000002718600891252814510_">
	<text transform="matrix(0.9999 1.570698e-02 -1.570698e-02 0.9999 549.8231 180.0137)" class="st4 st0 st3">U</text>
</g>
<g id="ID000012_00000080919761436038995980000009553815440474005170_">
	<text transform="matrix(0.9999 1.570698e-02 -1.570698e-02 0.9999 419.3664 180.0134)" class="st5 st0 st3">U</text>
</g>
<g id="ID000012_00000183249405065280398320000007246177860791656853_">
	<text transform="matrix(0.9999 1.570698e-02 -1.570698e-02 0.9999 399.68 180.0132)" class="st5 st0 st3">U</text>
</g>
<g id="ID000012_00000135676985088584459350000016671875193987887551_">
	<text transform="matrix(0.9999 1.570698e-02 -1.570698e-02 0.9999 591.7818 152.5268)" class="st4 st0 st3">G</text>
</g>
<g id="ID000012_00000167392746478899951190000012617734687624515485_">
	<g>
		<text transform="matrix(0.9999 1.570698e-02 -1.570698e-02 0.9999 615.6497 118.0622)" class="st2 st0 st3">G</text>
	</g>
</g>
<g id="ID000012_00000082367494200331278530000014537433094329339801_">
	<text transform="matrix(0.9999 1.570698e-02 -1.570698e-02 0.9999 625.0511 180.0137)" class="st4 st0 st3">G</text>
</g>
<g id="ID000012_00000039814173023328764830000003604654890958410892_">
	<text transform="matrix(0.9999 1.570698e-02 -1.570698e-02 0.9999 648.1099 152.5255)" class="st4 st0 st3">G</text>
</g>
<g id="ID000012_00000042697149451187117950000010620959801653089187_">
	<text transform="matrix(0.9999 1.570698e-02 -1.570698e-02 0.9999 672.5806 180.0134)" class="st4 st0 st3">G</text>
</g>
<g id="ID000012_00000156568879845792396600000009027621755769069707_">
	<g>
		<text transform="matrix(0.9999 1.570698e-02 -1.570698e-02 0.9999 751.7278 189.4496)" class="st2 st0 st3">G</text>
	</g>
</g>
<g id="ID000012_00000111179454662305277030000007247702175336432524_">
	<g>
		<text transform="matrix(0.9999 1.570698e-02 -1.570698e-02 0.9999 608.2524 197.1593)" class="st2 st0 st3">G</text>
	</g>
</g>
<g id="ID000012_00000062911934304891129850000011202553211484842411_">
	<text transform="matrix(0.9999 1.570698e-02 -1.570698e-02 0.9999 517.045 180.0133)" class="st5 st0 st3">G</text>
</g>
<g id="ID000012_00000019648153635788796810000002541587626889016481_">
	<text transform="matrix(0.9999 1.570698e-02 -1.570698e-02 0.9999 477.0081 152.5264)" class="st5 st0 st3">G</text>
</g>
<g id="ID000012_00000172436059134635901340000005564672132746209969_">
	<text transform="matrix(0.9999 1.570698e-02 -1.570698e-02 0.9999 436.9859 152.5264)" class="st5 st0 st3">G</text>
</g>
<g id="ID000012_00000016765849689237579670000012628798906812596615_">
	<text transform="matrix(0.9999 1.570698e-02 -1.570698e-02 0.9999 223.0504 113.8528)" class="st2 st0 st3">G</text>
</g>
<g id="ID000012_00000063592230824810930670000014766104840841106050_">
	<text transform="matrix(0.9999 1.570698e-02 -1.570698e-02 0.9999 242.5135 158.0286)" class="st4 st0 st3">G</text>
</g>
<g id="ID000012_00000127753072761903412570000013412204497944544177_">
	<text transform="matrix(0.9999 1.570698e-02 -1.570698e-02 0.9999 242.513 227.4075)" class="st2 st0 st3">G</text>
</g>
<g id="ID000012_00000038403187510542351620000014845559592266204348_">
	<g>
		<text transform="matrix(0.9999 1.570698e-02 -1.570698e-02 0.9999 281.8891 356.424)" class="st2 st0 st3">G</text>
	</g>
</g>
<g id="ID000012_00000183215278305600283550000010646538177466634938_">
	<text transform="matrix(0.9999 1.570698e-02 -1.570698e-02 0.9999 262.2374 168.7745)" class="st4 st0 st3">G</text>
</g>
<g id="ID000012_00000028303901785621603610000010042659625768053934_">
	<text transform="matrix(0.9999 1.570698e-02 -1.570698e-02 0.9999 497.3528 180.0132)" class="st5 st0 st3">G</text>
</g>
<g id="ID000012_00000034050139662664577880000002306128301156684198_">
	<text transform="matrix(0.9999 1.570698e-02 -1.570698e-02 0.9999 376.0857 152.5259)" class="st5 st0 st3">G</text>
</g>
<g id="ID000012_00000103957640327402295590000000354172591157874071_">
	<text transform="matrix(0.9999 1.570698e-02 -1.570698e-02 0.9999 332.0275 250.9183)" class="st5 st0 st3">G</text>
</g>
<g id="ID000012_00000102539304744919107120000011430235196269751226_">
	<text transform="matrix(0.9999 1.570698e-02 -1.570698e-02 0.9999 297.7318 273.723)" class="st5 st0 st3">G</text>
</g>
<g id="ID000012_00000080198530309232305990000009142494878794365599_">
	<text transform="matrix(0.9999 1.570698e-02 -1.570698e-02 0.9999 569.5092 152.5267)" class="st4 st0 st3">G</text>
</g>
<g id="ID000012_00000168093715362461597600000003818074290051296384_">
	<text transform="matrix(0.9999 1.570698e-02 -1.570698e-02 0.9999 591.7813 180.013)" class="st4 st0 st3">C</text>
</g>
<g id="ID000012_00000085212162228298535610000008714513775080758921_">
	<text transform="matrix(0.9999 1.570698e-02 -1.570698e-02 0.9999 625.0511 152.5269)" class="st4 st0 st3">C</text>
</g>
<g id="ID000012_00000101788706654631259800000011407920311418840736_">
	<text transform="matrix(0.9999 1.570698e-02 -1.570698e-02 0.9999 648.1099 180.0126)" class="st4 st0 st3">C</text>
</g>
<g id="ID000012_00000115485712102813929780000003331618125781259913_">
	<text transform="matrix(0.9999 1.570698e-02 -1.570698e-02 0.9999 672.5805 152.5268)" class="st4 st0 st3">C</text>
</g>
<g id="ID000012_00000144309507296500445100000012726534044252831126_">
	<g>
		<text transform="matrix(0.9999 1.570698e-02 -1.570698e-02 0.9999 758.5196 168.7745)" class="st2 st0 st3">C</text>
	</g>
</g>
<g id="ID000012_00000018916460424750660470000009527095078820096687_">
	<g>
		<text transform="matrix(0.9999 1.570698e-02 -1.570698e-02 0.9999 729.5218 130.7822)" class="st2 st0 st3">C</text>
	</g>
</g>
<g id="ID000012_00000167390873100727381130000000204616893727249329_">
	<g>
		<text transform="matrix(0.9999 1.570698e-02 -1.570698e-02 0.9999 729.5215 200.6886)" class="st2 st0 st3">C</text>
	</g>
</g>
<g id="ID000012_00000141425831493366151130000001870712652452711304_">
	<g>
		<text transform="matrix(0.9999 1.570698e-02 -1.570698e-02 0.9999 553.9922 93.0374)" class="st2 st0 st3">C</text>
	</g>
</g>
<g id="ID000012_00000158018882520317734470000014771958422581125034_">
	<text transform="matrix(0.9999 1.570698e-02 -1.570698e-02 0.9999 517.045 152.5266)" class="st5 st0 st3">C</text>
</g>
<g id="ID000012_00000057842192987999151430000013229943347476631457_">
	<g>
		<text transform="matrix(0.9999 1.570698e-02 -1.570698e-02 0.9999 608.252 103.1712)" class="st2 st0 st3">C</text>
	</g>
</g>
<g id="ID000012_00000134938498925120093440000006084181147943648919_">
	<text transform="matrix(0.9999 1.570698e-02 -1.570698e-02 0.9999 497.3528 152.5262)" class="st5 st0 st3">C</text>
</g>
<g id="ID000012_00000154392791151405584190000013557872722015568312_">
	<text transform="matrix(0.9999 1.570698e-02 -1.570698e-02 0.9999 477.0075 180.0135)" class="st5 st0 st3">C</text>
</g>
<g id="ID000012_00000043443981850761620570000018391394746729544083_">
	<text transform="matrix(0.9999 1.570698e-02 -1.570698e-02 0.9999 376.0854 180.0128)" class="st5 st0 st3">C</text>
</g>
<g id="ID000012_00000047744630192086195470000011886719799064411268_">
	<text transform="matrix(0.9999 1.570698e-02 -1.570698e-02 0.9999 356.8662 205.227)" class="st2 st0 st3">C</text>
</g>
<g id="ID000012_00000100346356562659446550000013401420570646140315_">
	<text transform="matrix(0.9999 1.570698e-02 -1.570698e-02 0.9999 297.7322 250.9187)" class="st5 st0 st3">C</text>
</g>
<g id="ID000012_00000104681783913334582670000012094400375814914190_">
	<g>
		<text transform="matrix(0.9999 1.570698e-02 -1.570698e-02 0.9999 304.791 374.4481)" class="st2 st0 st3">C</text>
	</g>
</g>
<g id="ID000012_00000098900384461920282100000014733964558137879700_">
	<text transform="matrix(0.9999 1.570698e-02 -1.570698e-02 0.9999 332.0269 295.3704)" class="st5 st0 st3">G</text>
</g>
<g id="ID000012_00000165192780530262720300000002296862683012722059_">
	<text transform="matrix(0.9999 1.570698e-02 -1.570698e-02 0.9999 297.7316 295.3707)" class="st5 st0 st3">C</text>
</g>
<g id="ID000012_00000137102091584094727370000004367536051776952195_">
	<g>
		<text transform="matrix(0.9999 1.570698e-02 -1.570698e-02 0.9999 350.3594 356.4242)" class="st2 st0 st3">C</text>
	</g>
</g>
<g id="ID000012_00000033358463268199106030000013354422003353826953_">
	<text transform="matrix(0.9999 1.570698e-02 -1.570698e-02 0.9999 332.0274 273.7224)" class="st5 st0 st3">C</text>
</g>
<g id="ID000012_00000130620427983233646620000016492061007292255616_">
	<text transform="matrix(0.9999 1.570698e-02 -1.570698e-02 0.9999 297.7325 124.3484)" class="st2 st0 st3">C</text>
</g>
<g id="ID000012_00000044176447270618946380000004920895329746363038_">
	<text transform="matrix(0.9999 1.570698e-02 -1.570698e-02 0.9999 277.2619 138.1685)" class="st4 st0 st3">C</text>
</g>
<g id="ID000012_00000161625627552299864610000018230532349691463575_">
	<text transform="matrix(0.9999 1.570698e-02 -1.570698e-02 0.9999 156.7726 128.6887)" class="st2 st0 st3">C</text>
</g>
<g id="ID000012_00000026138558818960190020000001889133113432445324_">
	<text transform="matrix(0.9999 1.570698e-02 -1.570698e-02 0.9999 259.7146 128.6891)" class="st4 st0 st3">C</text>
</g>
<g id="ID000012_00000000910616602484796860000007133575757073048229_">
	<g>
		<text transform="matrix(0.9999 1.570698e-02 -1.570698e-02 0.9999 532.1851 197.1593)" class="st2 st0 st3">C</text>
	</g>
</g>
<g id="ID000018_00000104707097969389953970000009088350760481935533_">
	<text transform="matrix(0.9998 1.779544e-02 -1.779544e-02 0.9998 584.3036 133.4003)" class="st0 st6">5’</text>
</g>
<g id="ID000018_00000005240790440685367580000013749272138437122451_">
	<text transform="matrix(0.9998 1.779544e-02 -1.779544e-02 0.9998 392.4323 118.0618)" class="st0 st6">10</text>
</g>
<g id="ID000018_00000018919578949443278470000004591136595677655200_">
	<text transform="matrix(0.9998 1.779544e-02 -1.779544e-02 0.9998 207.9252 73.2415)" class="st0 st6">20</text>
</g>
<g id="ID000018_00000079452624989042895300000008059337353740051356_">
	<text transform="matrix(0.9998 1.779544e-02 -1.779544e-02 0.9998 287.9691 185.0985)" class="st0 st6">30</text>
</g>
<g id="ID000018_00000040536256568878568320000001917535169621034889_">
	<text transform="matrix(0.9998 1.779544e-02 -1.779544e-02 0.9998 360.9792 236.016)" class="st0 st6">50</text>
</g>
<g id="ID000018_00000026161672118903032120000001216484520102137260_">
	<text transform="matrix(0.9998 1.779544e-02 -1.779544e-02 0.9998 532.1846 227.4078)" class="st0 st6">60</text>
</g>
<g id="ID000018_00000054229788772175650710000009096838164884966548_">
	<text transform="matrix(0.9998 1.779544e-02 -1.779544e-02 0.9998 532.1852 96.8015)" class="st0 st6">3’</text>
</g>
<line class="st7" x1="238.5" y1="133.3" x2="244.6" y2="125.2"/>
<line class="st7" x1="256.1" y1="141.5" x2="262.2" y2="133.4"/>
<line class="st7" x1="274.4" y1="151.5" x2="280.5" y2="143.4"/>
<line class="st7" x1="317.8" y1="243.4" x2="329.6" y2="243.3"/>
<line class="st7" x1="317.7" y1="220.1" x2="329.5" y2="220"/>
<line class="st7" x1="384.8" y1="163.6" x2="384.7" y2="154.2"/>
<line class="st7" x1="407.3" y1="163.6" x2="407.2" y2="154.2"/>
<line class="st7" x1="426.8" y1="163.6" x2="426.7" y2="154.2"/>
<line class="st7" x1="464" y1="163.6" x2="463.9" y2="154.2"/>
<line class="st7" x1="485.6" y1="163.6" x2="485.5" y2="154.2"/>
<line class="st7" x1="505.2" y1="163.6" x2="505.2" y2="154.2"/>
<line class="st7" x1="525.5" y1="163.6" x2="525.4" y2="154.2"/>
<line class="st7" x1="557.7" y1="163.6" x2="557.7" y2="154.2"/>
<line class="st7" x1="600.1" y1="164.9" x2="600" y2="155.5"/>
<line class="st7" x1="632.8" y1="164.7" x2="632.8" y2="155.2"/>
<line class="st7" x1="657" y1="164.5" x2="657" y2="155.1"/>
<line class="st7" x1="681.2" y1="164.5" x2="681.1" y2="155.1"/>
<line class="st7" x1="318" y1="267" x2="329.8" y2="266.9"/>
<line class="st7" x1="316.6" y1="288.4" x2="328.4" y2="288.3"/>
<line class="st7" x1="407.2" y1="134" x2="407.2" y2="124.5"/>
<line class="st7" x1="216.4" y1="85.3" x2="216.3" y2="75.9"/>
<line class="st7" x1="275" y1="185.1" x2="283" y2="180.1"/>
<line class="st7" x1="348.6" y1="221.4" x2="357.6" y2="224.2"/>
<line class="st7" x1="540.6" y1="209.9" x2="540.5" y2="200.5"/>
</svg>
