<?xml version="1.0" encoding="utf-8"?>
<!-- Generator: Adobe Illustrator 25.2.0, SVG Export Plug-In . SVG Version: 6.00 Build 0)  -->
<svg version="1.1" id="图层_1" xmlns="http://www.w3.org/2000/svg" xmlns:xlink="http://www.w3.org/1999/xlink" x="0px" y="0px"
	 viewBox="0 0 800 400" style="enable-background:new 0 0 800 400;" xml:space="preserve">
<style type="text/css">
	.st0{fill:#CC00FF;}
	.st1{font-family:'ArialMT';}
	.st2{font-size:17.8799px;}
	.st3{fill:none;stroke:#000000;stroke-width:0.38;stroke-miterlimit:3.05;}
	.st4{letter-spacing:-1;}
	.st5{fill:#80DB9E;}
	.st6{font-size:11.9199px;}
	.st7{font-size:25px;}
	.st8{font-size:14.3039px;}
	.st9{font-size:13.7079px;}
</style>
<g id="ID000002">
	<text transform="matrix(1 0 0 1 418.5811 365.8797)" class="st0 st1 st2">C</text>
</g>
<g id="ID000003">
	<text transform="matrix(1 0 0 1 418.0859 260.6394)" class="st0 st1 st2">G</text>
</g>
<g id="ID000005">
	<text transform="matrix(1 0 0 1 368.124 260.4002)" class="st0 st1 st2">C</text>
</g>
<g id="ID000006">
	<text transform="matrix(1 0 0 1 367.623 365.8797)" class="st0 st1 st2">G</text>
</g>
<g id="ID000007">
	<line class="st3" x1="414.9" y1="359.1" x2="384.8" y2="358.9"/>
</g>
<g id="ID000008">
	<line class="st3" x1="414.9" y1="253.9" x2="384.8" y2="253.7"/>
</g>
<g id="ID000010">
	<text transform="matrix(1 0 0 1 418.5811 278.1785)" class="st0 st1 st2">C</text>
</g>
<g id="ID000011">
	<text transform="matrix(1 0 0 1 368.6133 313.1394)" class="st0 st1 st2 st4">A</text>
</g>
<g id="ID000012">
	<text transform="matrix(1 0 0 1 418.0859 225.5589)" class="st5 st1 st2">G</text>
</g>
<g id="ID000016">
	<text transform="matrix(1 0 0 1 368.124 225.2366)" class="st5 st1 st2">C</text>
</g>
<g id="ID000018">
	<text transform="matrix(1 0 0 1 334.999 202.2312)" class="st1 st6">10</text>
</g>
<g id="ID000019">
	<text transform="matrix(1 0 0 1 418.5811 313.2586)" class="st0 st1 st2">U</text>
</g>
<g id="ID000020">
	<text transform="matrix(1 0 0 1 367.623 277.9763)" class="st0 st1 st2">G</text>
</g>
<g id="ID000021">
	<line class="st3" x1="415" y1="271.4" x2="384.8" y2="271.3"/>
</g>
<g id="ID000022">
	<line class="st3" x1="414.9" y1="306.5" x2="384.8" y2="306.3"/>
</g>
<g id="ID000023">
	<line class="st3" x1="414.9" y1="218.9" x2="384.8" y2="218.7"/>
</g>
<text transform="matrix(1 0 0 1 20.5468 38.5356)" class="st1 st7">ribosomal protein S8 aptamer</text>
<text transform="matrix(1 0 0 1 353.9336 370.9158)" class="st1 st8">5</text>
<text transform="matrix(1 0 0 1 361.8906 370.9158)" class="st1 st8">’</text>
<text transform="matrix(1 0 0 1 440.4658 370.9158)" class="st1 st9">3</text>
<text transform="matrix(1 0 0 1 448.0889 370.9158)" class="st1 st9">’</text>
<g id="ID000002-2">
	<text transform="matrix(1 0 0 1 418.5811 348.3396)" class="st0 st1 st2">C</text>
</g>
<g id="ID000006-2">
	<text transform="matrix(1 0 0 1 367.623 348.3045)" class="st0 st1 st2">G</text>
</g>
<g id="ID000007-2">
	<line class="st3" x1="414.9" y1="341.6" x2="384.8" y2="341.3"/>
</g>
<g id="ID000002-3">
	<text transform="matrix(1 0 0 1 418.5811 330.7996)" class="st0 st1 st2">C</text>
</g>
<g id="ID000006-3">
	<text transform="matrix(1 0 0 1 367.623 330.7215)" class="st0 st1 st2">G</text>
</g>
<g id="ID000007-3">
	<line class="st3" x1="414.9" y1="324.1" x2="384.8" y2="323.8"/>
</g>
<g id="ID000011-2">
	<text transform="matrix(1 0 0 1 419.0762 295.7185)" class="st0 st1 st2 st4">A</text>
</g>
<g id="ID000019-2">
	<text transform="matrix(1 0 0 1 368.124 295.5584)" class="st0 st1 st2">U</text>
</g>
<g id="ID000022-2">
	<line class="st3" x1="414.9" y1="289" x2="384.8" y2="288.8"/>
</g>
<g id="ID000003-2">
	<text transform="matrix(1 0 0 1 418.0859 243.0994)" class="st0 st1 st2">G</text>
</g>
<g id="ID000005-2">
	<text transform="matrix(1 0 0 1 368.124 242.8191)" class="st0 st1 st2">U</text>
</g>
<g id="ID000008-2">
	<line class="st3" x1="414.9" y1="236.3" x2="384.8" y2="236.2"/>
</g>
<g id="ID000011-3">
	<text transform="matrix(1 0 0 1 353.8145 205.2888)" class="st5 st1 st2 st4">A</text>
</g>
<g id="ID000019-3">
	<text transform="matrix(1 0 0 1 433.4932 206.6477)" class="st5 st1 st2 st4">A</text>
</g>
<g id="ID000010-2">
	<text transform="matrix(1 0 0 1 433.0039 188.0584)" class="st5 st1 st2">C</text>
</g>
<g id="ID000020-2">
	<text transform="matrix(1 0 0 1 352.8311 187.1526)" class="st5 st1 st2">G</text>
</g>
<g id="ID000011-4">
	<text transform="matrix(1 0 0 1 433.0039 169.4695)" class="st5 st1 st2">U</text>
</g>
<g id="ID000019-4">
	<text transform="matrix(1 0 0 1 353.3252 169.0169)" class="st5 st1 st2">U</text>
</g>
<g id="ID000011-5">
	<text transform="matrix(1 0 0 1 433.4688 149.9685)" class="st5 st1 st2 st4">A</text>
</g>
<g id="ID000019-5">
	<text transform="matrix(1 0 0 1 352.8311 150.8806)" class="st5 st1 st2">G</text>
</g>
<g id="ID000011-6">
	<text transform="matrix(1 0 0 1 369.1309 138.7815)" class="st5 st1 st2 st4">A</text>
</g>
<g id="ID000019-6">
	<text transform="matrix(1 0 0 1 419.5469 138.7815)" class="st5 st1 st2">U</text>
</g>
<g id="ID000022-6">
	<line class="st3" x1="417" y1="133.6" x2="386.9" y2="133.5"/>
</g>
<g id="ID000011-7">
	<text transform="matrix(1 0 0 1 420.0352 122.3562)" class="st5 st1 st2 st4">A</text>
</g>
<g id="ID000019-7">
	<text transform="matrix(1 0 0 1 368.6426 122.2488)" class="st5 st1 st2">U</text>
</g>
<g id="ID000022-7">
	<line class="st3" x1="417" y1="116.8" x2="386.9" y2="116.6"/>
</g>
<g id="ID000003-3">
	<text transform="matrix(1 0 0 1 419.0518 105.9241)" class="st5 st1 st2">G</text>
</g>
<g id="ID000005-3">
	<text transform="matrix(1 0 0 1 368.6426 105.7102)" class="st5 st1 st2">C</text>
</g>
<g id="ID000008-3">
	<line class="st3" x1="417.7" y1="99.1" x2="387.6" y2="99"/>
</g>
<g id="ID000003-4">
	<text transform="matrix(1 0 0 1 419.0518 89.4988)" class="st0 st1 st2">G</text>
</g>
<g id="ID000005-4">
	<text transform="matrix(1 0 0 1 368.6426 89.1775)" class="st0 st1 st2">C</text>
</g>
<g id="ID000008-4">
	<line class="st3" x1="417.7" y1="82.9" x2="387.6" y2="82.8"/>
</g>
<g id="ID000003-5">
	<text transform="matrix(1 0 0 1 425.751 68.2991)" class="st0 st1 st2">G</text>
</g>
<g id="ID000005-5">
	<text transform="matrix(1 0 0 1 361.7471 68.2991)" class="st0 st1 st2">U</text>
</g>
<g id="ID000005-6">
	<text transform="matrix(1 0 0 1 381.248 49.8948)" class="st0 st1 st2">U</text>
</g>
<g id="ID000005-7">
	<text transform="matrix(1 0 0 1 409.0273 49.8948)" class="st0 st1 st2">C</text>
</g>
<text transform="matrix(1 0 0 1 434.1133 47.1057)" class="st1 st6">20</text>
<text transform="matrix(1 0 0 1 438.5352 222.8054)" class="st1 st6">30</text>
<line class="st3" x1="371" y1="68.7" x2="374" y2="74.9"/>
<line class="st3" x1="431.3" y1="69.2" x2="428.3" y2="75.3"/>
<line class="st3" x1="429.3" y1="52.8" x2="424.5" y2="47.8"/>
<line class="st3" x1="372.5" y1="50.2" x2="378.1" y2="45.5"/>
<line class="st3" x1="407.3" y1="40.7" x2="394.3" y2="40.7"/>
</svg>
