<svg id="图层_1" data-name="图层 1" xmlns="http://www.w3.org/2000/svg" viewBox="0 0 400 400"><defs><style>.cls-1,.cls-10,.cls-2,.cls-3,.cls-4,.cls-5,.cls-6,.cls-7,.cls-8,.cls-9{isolation:isolate;}.cls-1,.cls-2,.cls-3,.cls-4,.cls-5,.cls-6,.cls-7,.cls-8{font-size:14px;}.cls-1,.cls-2,.cls-9{fill:#ff870a;}.cls-1,.cls-10,.cls-13,.cls-15,.cls-2,.cls-3,.cls-4,.cls-5,.cls-6,.cls-7,.cls-8,.cls-9{font-family:ArialMT, Arial;}.cls-2,.cls-4,.cls-6,.cls-8{letter-spacing:-0.06em;}.cls-3,.cls-4{fill:#228b22;}.cls-5,.cls-6{fill:teal;}.cls-7,.cls-8{fill:#80db9e;}.cls-13,.cls-9{font-size:11px;}.cls-10{font-size:8px;}.cls-11{fill:none;}.cls-11,.cls-12{stroke:#000;stroke-miterlimit:10;stroke-width:0.07px;}.cls-14{letter-spacing:-0.04em;}.cls-15{font-size:20px;}</style></defs><text class="cls-1" transform="translate(195.59 239)">G</text><text class="cls-1" transform="translate(181.59 234.2)">G</text><text class="cls-1" transform="translate(164.76 233.54)">G</text><text class="cls-1" transform="translate(150.73 236.75)">G</text><text class="cls-1" transform="translate(141.17 244.35)">C</text><text class="cls-1" transform="translate(128.02 242.63)">C</text><text class="cls-2" transform="translate(114.28 246.43)">A</text><text class="cls-3" transform="translate(100.52 250.64)">C</text><text class="cls-3" transform="translate(86.61 254.97)">C</text><text class="cls-4" transform="translate(72.84 259.41)">A</text><text class="cls-4" transform="translate(66.96 270.97)">A</text><text class="cls-3" transform="translate(59.3 281.98)">C</text><text class="cls-3" transform="translate(47.19 288.58)">G</text><text class="cls-4" transform="translate(33.98 289.33)">A</text><text class="cls-3" transform="translate(21.59 284.17)">C</text><text class="cls-4" transform="translate(12.79 273.94)">A</text><text class="cls-3" transform="translate(8.91 261.08)">U</text><text class="cls-3" transform="translate(10.75 247.74)">U</text><text class="cls-3" transform="translate(18.54 236.74)">G</text><text class="cls-4" transform="translate(30.54 230.2)">A</text><text class="cls-3" transform="translate(43.86 229.44)">U</text><text class="cls-4" transform="translate(56.52 234.56)">A</text><text class="cls-3" transform="translate(68.82 241.52)">U</text><text class="cls-3" transform="translate(82.49 237.56)">G</text><text class="cls-3" transform="translate(96.37 233.21)">G</text><text class="cls-1" transform="translate(110.37 228.92)">U</text><text class="cls-1" transform="translate(124.32 224.83)">G</text><text class="cls-2" transform="translate(136.41 218.12)">A</text><text class="cls-1" transform="translate(147.89 218.94)">C</text><text class="cls-1" transform="translate(161.82 215.63)">C</text><text class="cls-2" transform="translate(175.31 210.89)">A</text><text class="cls-1" transform="translate(188.37 216.76)">C</text><text class="cls-1" transform="translate(201.59 221.11)">C</text><text class="cls-1" transform="translate(214.91 220.56)">C</text><text class="cls-1" transform="translate(226.77 210.94)">C</text><text class="cls-5" transform="translate(238.03 201.95)">G</text><text class="cls-5" transform="translate(248.45 192.52)">G</text><text class="cls-5" transform="translate(273.26 195.13)">G</text><text class="cls-5" transform="translate(256.29 182.11)">C</text><text class="cls-5" transform="translate(244.54 175.39)">G</text><text class="cls-5" transform="translate(237.53 165.42)">U</text><text class="cls-5" transform="translate(233.32 152.55)">U</text><text class="cls-5" transform="translate(233.14 139.17)">G</text><text class="cls-6" transform="translate(237.4 126.44)">A</text><text class="cls-5" transform="translate(244.87 115.65)">U</text><text class="cls-6" transform="translate(255.66 107.48)">A</text><text class="cls-5" transform="translate(268.46 104.37)">U</text><text class="cls-6" transform="translate(281.79 104.12)">A</text><text class="cls-6" transform="translate(294.91 106.78)">A</text><text class="cls-6" transform="translate(305.82 114.56)">A</text><text class="cls-6" transform="translate(313.96 125.08)">A</text><text class="cls-5" transform="translate(318.31 137.68)">U</text><text class="cls-6" transform="translate(318.87 151.11)">A</text><text class="cls-5" transform="translate(314.85 164.09)">G</text><text class="cls-5" transform="translate(310.18 175.29)">U</text><text class="cls-5" transform="translate(298.94 181.4)">G</text><text class="cls-5" transform="translate(307.24 191.61)">C</text><text class="cls-5" transform="translate(317.99 200.7)">C</text><text class="cls-7" transform="translate(329.64 208.73)">C</text><text class="cls-8" transform="translate(340.33 211.06)">A</text><text class="cls-7" transform="translate(349.58 222)">U</text><text class="cls-7" transform="translate(358.79 229.6)">G</text><text class="cls-7" transform="translate(372.6 228.84)">G</text><text class="cls-8" transform="translate(380.08 240.11)">A</text><text class="cls-7" transform="translate(373.85 252.13)">U</text><text class="cls-7" transform="translate(360.66 252.99)">C</text><text class="cls-7" transform="translate(350.94 243.42)">C</text><text class="cls-7" transform="translate(338.9 236.43)">G</text><text class="cls-7" transform="translate(326.31 234.16)">C</text><text class="cls-7" transform="translate(319.28 223.76)">G</text><text class="cls-5" transform="translate(306.88 214.88)">G</text><text class="cls-5" transform="translate(294.94 204.52)">G</text><text class="cls-5" transform="translate(286.32 193.63)">U</text><text class="cls-5" transform="translate(262.83 205.16)">U</text><text class="cls-5" transform="translate(251.53 215.81)">C</text><text class="cls-1" transform="translate(239.48 225.07)">G</text><text class="cls-1" transform="translate(228.86 234.03)">G</text><text class="cls-9" transform="translate(224.39 247.34)">G</text><text class="cls-10" transform="translate(83.79 274.09)">10</text><text class="cls-10" transform="translate(28.7 218.64)">20</text><text class="cls-10" transform="translate(158.92 204.63)">30</text><text class="cls-10" transform="translate(229.82 169.3)">40</text><text class="cls-10" transform="translate(322.32 121.23)">50</text><text class="cls-10" transform="translate(355.97 210.11)">60</text><text class="cls-10" transform="translate(300.74 220.05)">70</text><g id="ID000011"><line class="cls-11" x1="76.42" y1="249.19" x2="74.72" y2="242.63"/></g><g id="ID000011-2" data-name="ID000011"><line class="cls-11" x1="90.93" y1="244.97" x2="89.22" y2="238.41"/></g><g id="ID000011-3" data-name="ID000011"><line class="cls-11" x1="104.43" y1="240.43" x2="102.73" y2="233.87"/></g><g id="ID000011-4" data-name="ID000011"><line class="cls-11" x1="117.43" y1="236.49" x2="115.72" y2="229.93"/></g><g id="ID000011-5" data-name="ID000011"><line class="cls-11" x1="132.22" y1="232.12" x2="130.51" y2="225.56"/></g><g id="ID000011-6" data-name="ID000011"><line class="cls-11" x1="155.18" y1="226.3" x2="153.48" y2="219.74"/></g><g id="ID000011-7" data-name="ID000011"><line class="cls-11" x1="169.07" y1="222.69" x2="167.36" y2="216.13"/></g><g id="ID000011-8" data-name="ID000011"><line class="cls-11" x1="88.01" y1="268.66" x2="81.56" y2="259.47"/></g><g id="ID000011-9" data-name="ID000011"><line class="cls-11" x1="190.02" y1="223.82" x2="191.83" y2="217.29"/></g><g id="ID000011-10" data-name="ID000011"><line class="cls-11" x1="202.29" y1="228.51" x2="204.09" y2="221.98"/></g><g id="ID000011-11" data-name="ID000011"><line class="cls-11" x1="229.48" y1="225.56" x2="224.15" y2="220.55"/></g><g id="ID000011-12" data-name="ID000011"><line class="cls-11" x1="241.29" y1="215.37" x2="235.97" y2="210.36"/></g><g id="ID000011-13" data-name="ID000011"><line class="cls-11" x1="253.16" y1="206.04" x2="247.83" y2="201.03"/></g><g id="ID000011-14" data-name="ID000011"><line class="cls-11" x1="273.73" y1="187.19" x2="265.33" y2="181.84"/></g><g id="ID000011-15" data-name="ID000011"><line class="cls-11" x1="308.61" y1="190.78" x2="304.24" y2="194.97"/></g><g id="ID000011-16" data-name="ID000011"><line class="cls-11" x1="320.87" y1="201.44" x2="316.5" y2="205.63"/></g><g id="ID000011-17" data-name="ID000011"><line class="cls-11" x1="332.06" y1="208.62" x2="328.61" y2="213.59"/></g><g id="ID000011-18" data-name="ID000011"><line class="cls-11" x1="362.21" y1="229.69" x2="359.44" y2="233.7"/></g><g id="ID000021"><polygon class="cls-12" points="261.08 191.59 260.95 191.59 260.83 191.59 260.7 191.62 260.57 191.65 260.45 191.68 260.32 191.71 260.2 191.78 260.07 191.84 259.98 191.9 259.85 191.96 259.76 192.06 259.66 192.15 259.57 192.25 259.48 192.34 259.41 192.44 259.35 192.53 259.29 192.66 259.22 192.78 259.16 192.88 259.13 193 259.1 193.13 259.07 193.25 259.04 193.41 259.04 193.53 259.04 193.66 259.04 193.79 259.07 193.91 259.07 194.04 259.1 194.16 259.13 194.29 259.19 194.41 259.26 194.54 259.32 194.63 259.38 194.76 259.44 194.85 259.54 194.98 259.63 195.07 259.73 195.14 259.82 195.23 259.92 195.29 260.04 195.39 260.14 195.45 260.26 195.48 260.39 195.55 260.51 195.58 260.64 195.61 260.76 195.64 260.89 195.67 261.01 195.67 261.14 195.67 261.27 195.67 261.39 195.64 261.52 195.61 261.64 195.58 261.77 195.55 261.89 195.48 262.02 195.45 262.15 195.39 262.24 195.29 262.33 195.23 262.46 195.14 262.56 195.07 262.62 194.98 262.71 194.85 262.77 194.76 262.87 194.63 262.9 194.54 262.96 194.41 263.03 194.29 263.06 194.16 263.09 194.04 263.12 193.91 263.12 193.79 263.12 193.66 263.12 193.53 263.12 193.41 263.09 193.25 263.06 193.13 263.03 193 263 192.88 262.93 192.78 262.9 192.66 262.84 192.53 262.74 192.44 262.68 192.34 262.59 192.25 262.49 192.15 262.4 192.06 262.3 191.96 262.18 191.9 262.08 191.84 261.96 191.78 261.83 191.71 261.71 191.68 261.58 191.65 261.45 191.62 261.33 191.59 261.2 191.59 261.08 191.59"/></g><g id="ID000021-2" data-name="ID000021"><polygon class="cls-12" points="298.69 180.06 298.57 180.06 298.44 180.06 298.32 180.1 298.19 180.13 298.07 180.16 297.94 180.19 297.81 180.25 297.69 180.32 297.6 180.38 297.47 180.44 297.38 180.54 297.28 180.63 297.19 180.72 297.09 180.82 297.03 180.91 296.97 181.01 296.9 181.13 296.84 181.26 296.78 181.35 296.75 181.48 296.72 181.6 296.68 181.73 296.65 181.89 296.65 182.01 296.65 182.14 296.65 182.26 296.68 182.39 296.68 182.52 296.72 182.64 296.75 182.77 296.81 182.89 296.87 183.02 296.94 183.11 297 183.24 297.06 183.33 297.16 183.46 297.25 183.55 297.34 183.62 297.44 183.71 297.53 183.77 297.66 183.87 297.75 183.93 297.88 183.96 298 184.02 298.13 184.06 298.25 184.09 298.38 184.12 298.51 184.15 298.63 184.15 298.76 184.15 298.88 184.15 299.01 184.12 299.13 184.09 299.26 184.06 299.39 184.02 299.51 183.96 299.64 183.93 299.76 183.87 299.86 183.77 299.95 183.71 300.08 183.62 300.17 183.55 300.24 183.46 300.33 183.33 300.39 183.24 300.49 183.11 300.52 183.02 300.58 182.89 300.64 182.77 300.68 182.64 300.71 182.52 300.74 182.39 300.74 182.26 300.74 182.14 300.74 182.01 300.74 181.89 300.71 181.73 300.68 181.6 300.64 181.48 300.61 181.35 300.55 181.26 300.52 181.13 300.45 181.01 300.36 180.91 300.3 180.82 300.2 180.72 300.11 180.63 300.01 180.54 299.92 180.44 299.8 180.38 299.7 180.32 299.57 180.25 299.45 180.19 299.32 180.16 299.2 180.13 299.07 180.1 298.95 180.06 298.82 180.06 298.69 180.06"/></g><g id="ID000021-3" data-name="ID000021"><polygon class="cls-12" points="349.69 222.79 349.57 222.79 349.44 222.79 349.32 222.82 349.19 222.85 349.06 222.88 348.94 222.91 348.81 222.97 348.69 223.04 348.59 223.1 348.47 223.16 348.37 223.26 348.28 223.35 348.19 223.45 348.09 223.54 348.03 223.63 347.96 223.73 347.9 223.85 347.84 223.98 347.78 224.07 347.75 224.2 347.71 224.32 347.68 224.45 347.65 224.61 347.65 224.73 347.65 224.86 347.65 224.99 347.68 225.11 347.68 225.24 347.71 225.36 347.75 225.49 347.81 225.61 347.87 225.74 347.93 225.83 348 225.96 348.06 226.05 348.15 226.18 348.25 226.27 348.34 226.34 348.44 226.43 348.53 226.49 348.66 226.59 348.75 226.65 348.88 226.68 349 226.75 349.13 226.78 349.25 226.81 349.38 226.84 349.5 226.87 349.63 226.87 349.76 226.87 349.88 226.87 350.01 226.84 350.13 226.81 350.26 226.78 350.38 226.75 350.51 226.68 350.64 226.65 350.76 226.59 350.86 226.49 350.95 226.43 351.08 226.34 351.17 226.27 351.23 226.18 351.33 226.05 351.39 225.96 351.48 225.83 351.52 225.74 351.58 225.61 351.64 225.49 351.67 225.36 351.7 225.24 351.74 225.11 351.74 224.99 351.74 224.86 351.74 224.73 351.74 224.61 351.7 224.45 351.67 224.32 351.64 224.2 351.61 224.07 351.55 223.98 351.52 223.85 351.45 223.73 351.36 223.63 351.3 223.54 351.2 223.45 351.11 223.35 351.01 223.26 350.92 223.16 350.79 223.1 350.7 223.04 350.57 222.97 350.45 222.91 350.32 222.88 350.2 222.85 350.07 222.82 349.94 222.79 349.82 222.79 349.69 222.79"/></g><text class="cls-13" transform="translate(197.92 249.19)">5<tspan class="cls-14" x="6.12" y="0">’</tspan></text><text class="cls-13" transform="translate(225.82 257.11)">3<tspan class="cls-14" x="6.12" y="0">’</tspan></text><text class="cls-15" transform="translate(60 163.55)">RNA22 aptamer</text></svg>