<?xml version="1.0" encoding="utf-8"?>
<!-- Generator: Adobe Illustrator 25.4.1, SVG Export Plug-In . SVG Version: 6.00 Build 0)  -->
<svg version="1.1" id="图层_1" xmlns="http://www.w3.org/2000/svg" xmlns:xlink="http://www.w3.org/1999/xlink" x="0px" y="0px"
	 viewBox="0 0 400 400" style="enable-background:new 0 0 400 400;" xml:space="preserve">
<style type="text/css">
	.st0{fill:#FF870A;}
	.st1{font-family:'ArialMT';}
	.st2{font-size:12.82px;}
	.st3{fill:#80DB9E;}
	.st4{fill:#32CD32;}
	.st5{fill:#228B22;}
	.st6{font-size:10px;}
	.st7{fill:none;stroke:#000000;stroke-width:7.000000e-02;stroke-miterlimit:10;}
	.st8{stroke:#000000;stroke-width:7.000000e-02;stroke-miterlimit:10;}
	.st9{font-size:20px;}
	.st10{letter-spacing:-1;}
</style>
<text transform="matrix(1 0 0 1 158.43 279.65)" class="st0 st1 st2">G</text>
<text transform="matrix(1 0 0 1 146.4 283.43)" class="st0 st1 st2">G</text>
<text transform="matrix(1 0 0 1 133.77 283.37)" class="st0 st1 st2">G</text>
<text transform="matrix(1 0 0 1 123.89 279.36)" class="st0 st1 st2">A</text>
<text transform="matrix(1 0 0 1 113.42 271.73)" class="st0 st1 st2">G</text>
<text transform="matrix(1 0 0 1 104.35 264.04)" class="st0 st1 st2">A</text>
<text transform="matrix(1 0 0 1 92.73 269.76)" class="st3 st1 st2">G</text>
<text transform="matrix(1 0 0 1 81.43 277.03)" class="st3 st1 st2">C</text>
<text transform="matrix(1 0 0 1 69.72 284.36)" class="st3 st1 st2">G</text>
<text transform="matrix(1 0 0 1 65.4 295.94)" class="st3 st1 st2">G</text>
<text transform="matrix(1 0 0 1 55.75 300.48)" class="st3 st1 st2">A</text>
<text transform="matrix(1 0 0 1 43.43 297.35)" class="st3 st1 st2">A</text>
<text transform="matrix(1 0 0 1 36.74 286.57)" class="st3 st1 st2">G</text>
<text transform="matrix(1 0 0 1 39.94 274.21)" class="st3 st1 st2">C</text>
<text transform="matrix(1 0 0 1 48.49 267.69)" class="st3 st1 st2">G</text>
<text transform="matrix(1 0 0 1 60.2 268.64)" class="st3 st1 st2">U</text>
<text transform="matrix(1 0 0 1 71.7 261.7)" class="st3 st1 st2">G</text>
<text transform="matrix(1 0 0 1 83.89 254.35)" class="st3 st1 st2">C</text>
<text transform="matrix(1 0 0 1 96.42 247.19)" class="st0 st1 st2">U</text>
<text transform="matrix(1 0 0 1 94.51 234.62)" class="st0 st1 st2">G</text>
<text transform="matrix(1 0 0 1 101.21 224.5)" class="st0 st1 st2">G</text>
<text transform="matrix(1 0 0 1 92.09 213.07)" class="st0 st1 st2">G</text>
<text transform="matrix(1 0 0 1 84.19 201.6)" class="st4 st1 st2">C</text>
<text transform="matrix(1 0 0 1 76.46 190.31)" class="st4 st1 st2">C</text>
<text transform="matrix(1 0 0 1 66.49 185.58)" class="st4 st1 st2">U</text>
<text transform="matrix(1 0 0 1 59.82 175.07)" class="st4 st1 st2">C</text>
<text transform="matrix(1 0 0 1 58.1 164.28)" class="st4 st1 st2">U</text>
<text transform="matrix(1 0 0 1 50.83 152.71)" class="st4 st1 st2">G</text>
<text transform="matrix(1 0 0 1 43.45 141.07)" class="st4 st1 st2">U</text>
<text transform="matrix(1 0 0 1 36.11 129.48)" class="st4 st1 st2">U</text>
<text transform="matrix(1 0 0 1 28.97 118.06)" class="st4 st1 st2">C</text>
<text transform="matrix(1 0 0 1 21.53 107.02)" class="st4 st1 st2">C</text>
<text transform="matrix(1 0 0 1 13.88 98.26)" class="st4 st1 st2">C</text>
<text transform="matrix(1 0 0 1 13.05 86.65)" class="st4 st1 st2">A</text>
<text transform="matrix(1 0 0 1 23.54 79.58)" class="st4 st1 st2">A</text>
<text transform="matrix(1 0 0 1 34.73 85.04)" class="st4 st1 st2">G</text>
<text transform="matrix(1 0 0 1 37.71 97.04)" class="st4 st1 st2">G</text>
<text transform="matrix(1 0 0 1 45.01 108.35)" class="st4 st1 st2">G</text>
<text transform="matrix(1 0 0 1 52.61 119.9)" class="st4 st1 st2">A</text>
<text transform="matrix(1 0 0 1 59.95 131.55)" class="st4 st1 st2">A</text>
<text transform="matrix(1 0 0 1 67.12 143.16)" class="st4 st1 st2">U</text>
<text transform="matrix(1 0 0 1 74.75 154.5)" class="st4 st1 st2">A</text>
<text transform="matrix(1 0 0 1 85.5 158.19)" class="st4 st1 st2">C</text>
<text transform="matrix(1 0 0 1 92.19 168.73)" class="st4 st1 st2">U</text>
<text transform="matrix(1 0 0 1 93.58 180.43)" class="st4 st1 st2">G</text>
<text transform="matrix(1 0 0 1 99.01 190.71)" class="st4 st1 st2">G</text>
<text transform="matrix(1 0 0 1 106.74 201.76)" class="st0 st1 st2">U</text>
<text transform="matrix(1 0 0 1 115.36 211.29)" class="st0 st1 st2">C</text>
<text transform="matrix(1 0 0 1 125 206.23)" class="st0 st1 st2">G</text>
<text transform="matrix(1 0 0 1 137.42 202.9)" class="st0 st1 st2">U</text>
<text transform="matrix(1 0 0 1 149.24 203.72)" class="st0 st1 st2">G</text>
<text transform="matrix(1 0 0 1 161.18 208.55)" class="st0 st1 st2">U</text>
<text transform="matrix(1 0 0 1 170.92 216.71)" class="st0 st1 st2">U</text>
<text transform="matrix(1 0 0 1 178.09 224.59)" class="st0 st1 st2">G</text>
<text transform="matrix(1 0 0 1 192.04 223.09)" class="st0 st1 st2">G</text>
<text transform="matrix(1 0 0 1 206.35 222.57)" class="st5 st1 st2">A</text>
<text transform="matrix(1 0 0 1 220.12 222.96)" class="st5 st1 st2">U</text>
<text transform="matrix(1 0 0 1 233.95 223.63)" class="st5 st1 st2">C</text>
<text transform="matrix(1 0 0 1 244.68 219.19)" class="st5 st1 st2">A</text>
<text transform="matrix(1 0 0 1 254.74 221.73)" class="st5 st1 st2">G</text>
<text transform="matrix(1 0 0 1 262.84 231.87)" class="st5 st1 st2">G</text>
<text transform="matrix(1 0 0 1 274.65 238.38)" class="st5 st1 st2">U</text>
<text transform="matrix(1 0 0 1 286.82 244.61)" class="st5 st1 st2">U</text>
<text transform="matrix(1 0 0 1 299.08 250.7)" class="st5 st1 st2">G</text>
<text transform="matrix(1 0 0 1 311.34 256.69)" class="st5 st1 st2">G</text>
<text transform="matrix(1 0 0 1 323.82 262.16)" class="st5 st1 st2">C</text>
<text transform="matrix(1 0 0 1 335.13 256.29)" class="st5 st1 st2">A</text>
<text transform="matrix(1 0 0 1 345.45 254.92)" class="st5 st1 st2">U</text>
<text transform="matrix(1 0 0 1 357.84 258.57)" class="st5 st1 st2">A</text>
<text transform="matrix(1 0 0 1 366.92 267.51)" class="st5 st1 st2">A</text>
<text transform="matrix(1 0 0 1 370.72 279.67)" class="st5 st1 st2">C</text>
<text transform="matrix(1 0 0 1 368.43 292.16)" class="st5 st1 st2">C</text>
<text transform="matrix(1 0 0 1 360.81 302.31)" class="st5 st1 st2">C</text>
<text transform="matrix(1 0 0 1 349.25 307.74)" class="st5 st1 st2">A</text>
<text transform="matrix(1 0 0 1 336.33 307.1)" class="st5 st1 st2">G</text>
<text transform="matrix(1 0 0 1 325.56 300.53)" class="st5 st1 st2">A</text>
<text transform="matrix(1 0 0 1 318.64 289.71)" class="st5 st1 st2">G</text>
<text transform="matrix(1 0 0 1 317.37 276.67)" class="st5 st1 st2">G</text>
<text transform="matrix(1 0 0 1 303.11 272.69)" class="st5 st1 st2">U</text>
<text transform="matrix(1 0 0 1 290.94 266.66)" class="st5 st1 st2">C</text>
<text transform="matrix(1 0 0 1 278.31 260.49)" class="st5 st1 st2">G</text>
<text transform="matrix(1 0 0 1 266.18 254.17)" class="st5 st1 st2">A</text>
<text transform="matrix(1 0 0 1 253.8 247.88)" class="st5 st1 st2">U</text>
<text transform="matrix(1 0 0 1 242.75 247.99)" class="st5 st1 st2">G</text>
<text transform="matrix(1 0 0 1 232.92 241.2)" class="st5 st1 st2">G</text>
<text transform="matrix(1 0 0 1 219.71 240.18)" class="st5 st1 st2">A</text>
<text transform="matrix(1 0 0 1 206.2 239.82)" class="st5 st1 st2">U</text>
<text transform="matrix(1 0 0 1 193.26 240.28)" class="st0 st1 st2">C</text>
<text transform="matrix(1 0 0 1 180.44 242)" class="st0 st1 st2">C</text>
<text transform="matrix(1 0 0 1 179.54 254.83)" class="st0 st1 st2">U</text>
<text transform="matrix(1 0 0 1 71.67 302.46)" class="st1 st6">10</text>
<text transform="matrix(1 0 0 1 83.32 232.03)" class="st1 st6">20</text>
<text transform="matrix(1 0 0 1 26.02 132.98)" class="st1 st6">30</text>
<text transform="matrix(1 0 0 1 68.51 128.31)" class="st1 st6">40</text>
<text transform="matrix(1 0 0 1 137.44 191.58)" class="st1 st6">50</text>
<text transform="matrix(1 0 0 1 263.52 214.29)" class="st1 st6">60</text>
<text transform="matrix(1 0 0 1 375.5 262.57)" class="st1 st6">70</text>
<text transform="matrix(1 0 0 1 287.48 275.09)" class="st1 st6">80</text>
<text transform="matrix(1 0 0 1 189.18 256.69)" class="st1 st6">90</text>
<g id="ID000011">
	<line class="st7" x1="30.1" y1="100.9" x2="38.6" y2="95.7"/>
</g>
<g id="ID000011-2">
	<line class="st7" x1="37.7" y1="112.3" x2="46.2" y2="107.2"/>
</g>
<g id="ID000011-3">
	<line class="st7" x1="44.5" y1="122.9" x2="53" y2="117.7"/>
</g>
<g id="ID000011-4">
	<line class="st7" x1="51.6" y1="134.5" x2="60.1" y2="129.3"/>
</g>
<g id="ID000011-5">
	<line class="st7" x1="66.2" y1="158.3" x2="74.7" y2="153.1"/>
</g>
<g id="ID000011-6">
	<line class="st7" x1="85.9" y1="183.6" x2="94.4" y2="178.4"/>
</g>
<g id="ID000011-7">
	<line class="st7" x1="92.6" y1="196.3" x2="101.1" y2="191.1"/>
</g>
<g id="ID000011-8">
	<line class="st7" x1="109.7" y1="216" x2="116.7" y2="210.1"/>
</g>
<g id="ID000011-9">
	<line class="st7" x1="94.6" y1="260.2" x2="90.8" y2="254.6"/>
</g>
<g id="ID000011-10">
	<line class="st7" x1="106" y1="254.3" x2="103.3" y2="248"/>
</g>
<g id="ID000011-11">
	<line class="st7" x1="83.2" y1="267.7" x2="79.4" y2="262"/>
</g>
<g id="ID000011-12">
	<line class="st7" x1="183.9" y1="231.6" x2="183.3" y2="224.8"/>
</g>
<g id="ID000011-13">
	<line class="st7" x1="197.3" y1="230.5" x2="196.7" y2="223.8"/>
</g>
<g id="ID000011-14">
	<line class="st7" x1="210.1" y1="229.7" x2="210.6" y2="222.9"/>
</g>
<g id="ID000011-15">
	<line class="st7" x1="223.6" y1="230.5" x2="224" y2="223.8"/>
</g>
<g id="ID000011-16">
	<line class="st7" x1="238.1" y1="231.3" x2="238.5" y2="224.5"/>
</g>
<g id="ID000011-17">
	<line class="st7" x1="272.2" y1="244.9" x2="275.8" y2="239.1"/>
</g>
<g id="ID000011-18">
	<line class="st7" x1="298" y1="257" x2="301.5" y2="251.3"/>
</g>
<g id="ID000011-18_00000042731201248953404170000008317736774901299611_">
	<line class="st7" x1="323.7" y1="267.3" x2="326.4" y2="261.7"/>
</g>
<g id="ID000021">
	<polygon class="st8" points="64,141.3 63.9,141.3 63.7,141.3 63.6,141.3 63.5,141.4 63.3,141.4 63.2,141.4 63.1,141.5 63,141.6 
		62.9,141.6 62.7,141.7 62.7,141.8 62.5,141.9 62.5,142 62.4,142.1 62.3,142.2 62.2,142.2 62.2,142.4 62.1,142.5 62,142.6 62,142.7 
		62,142.9 61.9,143 61.9,143.1 61.9,143.3 61.9,143.4 61.9,143.5 61.9,143.7 61.9,143.8 62,143.9 62,144.1 62.1,144.2 62.1,144.3 
		62.2,144.4 62.3,144.5 62.3,144.6 62.4,144.8 62.5,144.9 62.6,144.9 62.7,145 62.8,145.1 62.9,145.2 63,145.2 63.2,145.3 
		63.3,145.3 63.4,145.4 63.5,145.4 63.7,145.4 63.8,145.5 63.9,145.5 64.1,145.5 64.2,145.5 64.3,145.4 64.4,145.4 64.6,145.4 
		64.7,145.3 64.8,145.3 65,145.2 65.1,145.2 65.2,145.1 65.3,145 65.4,144.9 65.5,144.9 65.6,144.8 65.7,144.6 65.7,144.5 
		65.8,144.4 65.9,144.3 65.9,144.2 66,144.1 66,143.9 66.1,143.8 66.1,143.7 66.1,143.5 66.1,143.4 66.1,143.3 66.1,143.1 66.1,143 
		66,142.9 66,142.7 65.9,142.6 65.9,142.5 65.9,142.4 65.8,142.2 65.7,142.2 65.6,142.1 65.5,142 65.4,141.9 65.3,141.8 65.2,141.7 
		65.1,141.6 65,141.6 64.9,141.5 64.8,141.4 64.6,141.4 64.5,141.4 64.4,141.3 64.2,141.3 64.1,141.3 	"/>
</g>
<g id="ID000021-2">
	<polygon class="st8" points="104.3,201.8 104.2,201.8 104.1,201.8 103.9,201.8 103.8,201.9 103.7,201.9 103.6,201.9 103.4,202 
		103.3,202.1 103.2,202.1 103.1,202.2 103,202.3 102.9,202.4 102.8,202.5 102.7,202.6 102.6,202.7 102.6,202.8 102.5,202.9 
		102.4,203 102.4,203.1 102.3,203.2 102.3,203.4 102.3,203.5 102.2,203.6 102.2,203.8 102.2,203.9 102.2,204 102.3,204.2 
		102.3,204.3 102.3,204.4 102.3,204.6 102.4,204.7 102.5,204.8 102.5,204.9 102.6,205 102.7,205.1 102.8,205.3 102.8,205.4 
		102.9,205.4 103.1,205.5 103.1,205.6 103.3,205.7 103.4,205.7 103.5,205.8 103.6,205.8 103.8,205.9 103.9,205.9 104,205.9 
		104.1,206 104.3,206 104.4,206 104.5,206 104.7,205.9 104.8,205.9 104.9,205.9 105,205.8 105.2,205.8 105.3,205.7 105.4,205.7 
		105.5,205.6 105.6,205.5 105.7,205.4 105.8,205.4 105.9,205.3 106,205.1 106.1,205 106.2,204.9 106.2,204.8 106.2,204.7 
		106.3,204.6 106.3,204.4 106.4,204.3 106.4,204.2 106.4,204 106.4,203.9 106.4,203.8 106.4,203.6 106.4,203.5 106.3,203.4 
		106.3,203.2 106.3,203.1 106.2,203 106.2,202.9 106.1,202.8 106,202.7 106,202.6 105.9,202.5 105.8,202.4 105.7,202.3 105.6,202.2 
		105.4,202.1 105.4,202.1 105.2,202 105.1,201.9 105,201.9 104.8,201.9 104.7,201.8 104.6,201.8 104.5,201.8 	"/>
</g>
<g id="ID000021-3">
	<polygon class="st8" points="69.6,270.6 69.5,270.6 69.3,270.6 69.2,270.6 69.1,270.7 68.9,270.7 68.8,270.7 68.7,270.8 
		68.6,270.9 68.5,270.9 68.3,271 68.2,271.1 68.2,271.2 68.1,271.3 67.9,271.4 67.9,271.5 67.8,271.6 67.8,271.7 67.7,271.8 
		67.6,271.9 67.6,272 67.6,272.2 67.5,272.3 67.5,272.5 67.5,272.6 67.5,272.7 67.5,272.9 67.5,273 67.5,273.1 67.6,273.2 
		67.6,273.4 67.7,273.5 67.7,273.6 67.8,273.7 67.9,273.9 67.9,273.9 68,274.1 68.1,274.2 68.2,274.2 68.3,274.3 68.4,274.4 
		68.5,274.5 68.6,274.5 68.8,274.6 68.9,274.6 69,274.7 69.1,274.7 69.3,274.7 69.4,274.8 69.5,274.8 69.7,274.8 69.8,274.8 
		69.9,274.7 70,274.7 70.2,274.7 70.3,274.6 70.4,274.6 70.6,274.5 70.7,274.5 70.8,274.4 70.9,274.3 71,274.2 71.1,274.2 
		71.2,274.1 71.3,273.9 71.3,273.9 71.4,273.7 71.4,273.6 71.5,273.5 71.6,273.4 71.6,273.2 71.6,273.1 71.7,273 71.7,272.9 
		71.7,272.7 71.7,272.6 71.7,272.5 71.6,272.3 71.6,272.2 71.6,272 71.6,271.9 71.5,271.8 71.4,271.7 71.4,271.6 71.3,271.5 
		71.2,271.4 71.1,271.3 71,271.2 70.9,271.1 70.8,271 70.7,270.9 70.6,270.9 70.5,270.8 70.4,270.7 70.2,270.7 70.1,270.7 70,270.6 
		69.8,270.6 69.7,270.6 	"/>
</g>
<g id="ID000021-4">
	<polygon class="st8" points="263.5,233.5 263.4,233.5 263.3,233.5 263.1,233.6 263,233.6 262.9,233.6 262.8,233.7 262.6,233.7 
		262.5,233.8 262.4,233.9 262.3,233.9 262.2,234 262.1,234.1 262,234.2 261.9,234.3 261.8,234.4 261.8,234.5 261.7,234.6 
		261.6,234.8 261.6,234.9 261.5,235 261.5,235.1 261.5,235.2 261.4,235.4 261.4,235.5 261.4,235.6 261.4,235.8 261.5,235.9 
		261.5,236 261.5,236.2 261.5,236.3 261.6,236.4 261.7,236.6 261.7,236.6 261.8,236.8 261.9,236.9 261.9,237 262,237.1 262.1,237.2 
		262.2,237.3 262.3,237.3 262.5,237.4 262.5,237.5 262.7,237.5 262.8,237.6 262.9,237.6 263.1,237.6 263.2,237.7 263.3,237.7 
		263.5,237.7 263.6,237.7 263.7,237.7 263.8,237.7 264,237.6 264.1,237.6 264.2,237.6 264.4,237.5 264.5,237.5 264.6,237.4 
		264.7,237.3 264.8,237.3 264.9,237.2 265,237.1 265.1,237 265.2,236.9 265.2,236.8 265.3,236.6 265.4,236.6 265.4,236.4 
		265.5,236.3 265.5,236.2 265.6,236 265.6,235.9 265.6,235.8 265.6,235.6 265.6,235.5 265.6,235.4 265.6,235.2 265.5,235.1 
		265.5,235 265.5,234.9 265.4,234.8 265.4,234.6 265.3,234.5 265.2,234.4 265.1,234.3 265.1,234.2 265,234.1 264.9,234 264.8,233.9 
		264.6,233.9 264.5,233.8 264.4,233.7 264.3,233.7 264.2,233.6 264,233.6 263.9,233.6 263.8,233.5 263.6,233.5 	"/>
</g>
<g id="ID000021-5">
	<polygon class="st8" points="287.5,246.1 287.4,246.1 287.2,246.1 287.1,246.1 287,246.1 286.8,246.1 286.7,246.2 286.6,246.2 
		286.5,246.3 286.4,246.4 286.2,246.4 286.1,246.5 286,246.6 285.9,246.7 285.9,246.8 285.8,246.9 285.7,247 285.6,247.1 
		285.6,247.3 285.5,247.4 285.5,247.5 285.5,247.6 285.4,247.8 285.4,247.9 285.4,248 285.4,248.2 285.4,248.3 285.4,248.4 
		285.4,248.6 285.5,248.7 285.5,248.8 285.6,248.9 285.6,249.1 285.7,249.2 285.8,249.3 285.8,249.4 285.9,249.5 286,249.6 
		286.1,249.7 286.2,249.8 286.3,249.8 286.4,249.9 286.5,250 286.6,250 286.8,250.1 286.9,250.1 287,250.2 287.2,250.2 287.3,250.2 
		287.4,250.2 287.5,250.2 287.7,250.2 287.8,250.2 287.9,250.2 288.1,250.1 288.2,250.1 288.3,250 288.4,250 288.6,249.9 
		288.7,249.8 288.8,249.8 288.9,249.7 289,249.6 289,249.5 289.1,249.4 289.2,249.3 289.3,249.2 289.3,249.1 289.4,248.9 
		289.5,248.8 289.5,248.7 289.5,248.6 289.6,248.4 289.6,248.3 289.6,248.2 289.6,248 289.6,247.9 289.5,247.8 289.5,247.6 
		289.5,247.5 289.4,247.4 289.4,247.3 289.3,247.1 289.3,247 289.2,246.9 289.1,246.8 289,246.7 288.9,246.6 288.8,246.5 
		288.7,246.4 288.6,246.4 288.5,246.3 288.4,246.2 288.2,246.2 288.1,246.1 288,246.1 287.9,246.1 287.7,246.1 287.6,246.1 	"/>
</g>
<g id="ID000021-6">
	<polygon class="st8" points="312,258.4 311.9,258.4 311.8,258.4 311.6,258.4 311.5,258.5 311.4,258.5 311.2,258.5 311.1,258.6 
		311,258.7 310.9,258.7 310.8,258.8 310.7,258.9 310.6,259 310.5,259.1 310.4,259.2 310.3,259.3 310.3,259.4 310.2,259.5 
		310.1,259.6 310.1,259.7 310,259.9 310,260 310,260.1 309.9,260.3 309.9,260.4 309.9,260.5 309.9,260.6 310,260.8 310,260.9 
		310,261 310,261.2 310.1,261.3 310.2,261.4 310.2,261.5 310.3,261.6 310.4,261.7 310.5,261.9 310.5,262 310.6,262 310.7,262.1 
		310.8,262.2 311,262.3 311.1,262.4 311.2,262.4 311.3,262.4 311.4,262.5 311.6,262.5 311.7,262.5 311.8,262.6 312,262.6 
		312.1,262.6 312.2,262.6 312.3,262.5 312.5,262.5 312.6,262.5 312.7,262.4 312.9,262.4 313,262.4 313.1,262.3 313.2,262.2 
		313.3,262.1 313.4,262 313.5,262 313.6,261.9 313.7,261.7 313.8,261.6 313.9,261.5 313.9,261.4 313.9,261.3 314,261.2 314,261 
		314.1,260.9 314.1,260.8 314.1,260.6 314.1,260.5 314.1,260.4 314.1,260.3 314.1,260.1 314,260 314,259.9 314,259.7 313.9,259.6 
		313.9,259.5 313.8,259.4 313.7,259.3 313.7,259.2 313.6,259.1 313.5,259 313.4,258.9 313.3,258.8 313.1,258.7 313,258.7 
		312.9,258.6 312.8,258.5 312.7,258.5 312.5,258.5 312.4,258.4 312.3,258.4 312.1,258.4 	"/>
</g>
<text transform="matrix(1 0 0 1 160.69 289.71)" class="st1 st6">5</text>
<text transform="matrix(1 0 0 1 166.25 289.71)" class="st1 st6">’</text>
<text transform="matrix(1 0 0 1 170.94 252.82)" class="st1 st6">3</text>
<text transform="matrix(1 0 0 1 176.5 252.82)" class="st1 st6">’</text>
<text transform="matrix(1 0 0 1 151.64 158.19)" class="st1 st9">SE RN</text>
<text transform="matrix(1 0 0 1 212.76 158.19)" class="st1 st9 st10">A</text>
<text transform="matrix(1 0 0 1 225 158.19)" class="st1 st9"> aptamer</text>
</svg>
