<svg id="图层_1" data-name="图层 1" xmlns="http://www.w3.org/2000/svg" viewBox="0 0 400 400"><defs><style>.cls-1,.cls-12,.cls-13,.cls-14,.cls-15,.cls-2,.cls-3,.cls-4,.cls-5,.cls-6,.cls-7,.cls-8,.cls-9{isolation:isolate;}.cls-1,.cls-2,.cls-3,.cls-4,.cls-5,.cls-6,.cls-7,.cls-8{font-size:12.82px;}.cls-1,.cls-2{fill:#ff870a;}.cls-1,.cls-13,.cls-2,.cls-3,.cls-4,.cls-5,.cls-6,.cls-7,.cls-8,.cls-9{font-family:ArialMT, Arial;}.cls-2,.cls-4,.cls-6,.cls-7{letter-spacing:-0.11em;}.cls-3,.cls-4{fill:#80db9e;}.cls-5,.cls-6{fill:#32cd32;}.cls-7,.cls-8{fill:#228b22;}.cls-13,.cls-9{font-size:10px;}.cls-10{fill:none;}.cls-10,.cls-11{stroke:#000;stroke-miterlimit:10;stroke-width:0.07px;}.cls-13{letter-spacing:-0.08em;}.cls-14,.cls-15{font-size:20px;font-family:Helvetica-Bold, Helvetica;font-weight:700;}.cls-15{letter-spacing:-0.06em;}</style></defs><text class="cls-1" transform="translate(158.43 279.65)">G</text><text class="cls-1" transform="translate(146.4 283.43)">G</text><text class="cls-1" transform="translate(133.77 283.37)">G</text><text class="cls-2" transform="translate(123.89 279.36)">A</text><text class="cls-1" transform="translate(113.42 271.73)">G</text><text class="cls-2" transform="translate(104.35 264.04)">A</text><text class="cls-3" transform="translate(92.73 269.76)">G</text><text class="cls-3" transform="translate(81.43 277.03)">C</text><text class="cls-3" transform="translate(69.72 284.36)">G</text><text class="cls-3" transform="translate(65.4 295.94)">G</text><text class="cls-4" transform="translate(55.75 300.48)">A</text><text class="cls-4" transform="translate(43.43 297.35)">A</text><text class="cls-3" transform="translate(36.74 286.57)">G</text><text class="cls-3" transform="translate(39.94 274.21)">C</text><text class="cls-3" transform="translate(48.49 267.69)">G</text><text class="cls-3" transform="translate(60.2 268.64)">U</text><text class="cls-3" transform="translate(71.7 261.7)">G</text><text class="cls-3" transform="translate(83.89 254.35)">C</text><text class="cls-1" transform="translate(96.42 247.19)">U</text><text class="cls-1" transform="translate(94.51 234.62)">G</text><text class="cls-1" transform="translate(101.21 224.5)">G</text><text class="cls-1" transform="translate(92.09 213.07)">G</text><text class="cls-5" transform="translate(84.19 201.6)">C</text><text class="cls-5" transform="translate(76.46 190.31)">C</text><text class="cls-5" transform="translate(66.49 185.58)">U</text><text class="cls-5" transform="translate(59.82 175.07)">C</text><text class="cls-5" transform="translate(58.1 164.28)">U</text><text class="cls-5" transform="translate(50.83 152.71)">G</text><text class="cls-5" transform="translate(43.45 141.07)">U</text><text class="cls-5" transform="translate(36.11 129.48)">U</text><text class="cls-5" transform="translate(28.97 118.06)">C</text><text class="cls-5" transform="translate(21.53 107.02)">C</text><text class="cls-5" transform="translate(13.88 98.26)">C</text><text class="cls-6" transform="translate(13.05 86.65)">A</text><text class="cls-6" transform="translate(23.54 79.58)">A</text><text class="cls-5" transform="translate(34.73 85.04)">G</text><text class="cls-5" transform="translate(37.71 97.04)">G</text><text class="cls-5" transform="translate(45.01 108.35)">G</text><text class="cls-6" transform="translate(52.61 119.9)">A</text><text class="cls-6" transform="translate(59.95 131.55)">A</text><text class="cls-5" transform="translate(67.12 143.16)">U</text><text class="cls-6" transform="translate(74.75 154.5)">A</text><text class="cls-5" transform="translate(85.5 158.19)">C</text><text class="cls-5" transform="translate(92.19 168.73)">U</text><text class="cls-5" transform="translate(93.58 180.43)">G</text><text class="cls-5" transform="translate(99.01 190.71)">G</text><text class="cls-1" transform="translate(106.74 201.76)">U</text><text class="cls-1" transform="translate(115.36 211.29)">C</text><text class="cls-1" transform="translate(125 206.23)">G</text><text class="cls-1" transform="translate(137.42 202.9)">U</text><text class="cls-1" transform="translate(149.24 203.72)">G</text><text class="cls-1" transform="translate(161.18 208.55)">U</text><text class="cls-1" transform="translate(170.92 216.71)">U</text><text class="cls-1" transform="translate(178.09 224.59)">G</text><text class="cls-1" transform="translate(192.04 223.09)">G</text><text class="cls-7" transform="translate(206.35 222.57)">A</text><text class="cls-8" transform="translate(220.12 222.96)">U</text><text class="cls-8" transform="translate(233.95 223.63)">C</text><text class="cls-7" transform="translate(244.68 219.19)">A</text><text class="cls-8" transform="translate(254.74 221.73)">G</text><text class="cls-8" transform="translate(262.84 231.87)">G</text><text class="cls-8" transform="translate(274.65 238.38)">U</text><text class="cls-8" transform="translate(286.82 244.61)">U</text><text class="cls-8" transform="translate(299.08 250.7)">G</text><text class="cls-8" transform="translate(311.34 256.69)">G</text><text class="cls-8" transform="translate(323.82 262.16)">C</text><text class="cls-7" transform="translate(335.13 256.29)">A</text><text class="cls-8" transform="translate(345.45 254.92)">U</text><text class="cls-7" transform="translate(357.84 258.57)">A</text><text class="cls-7" transform="translate(366.92 267.51)">A</text><text class="cls-8" transform="translate(370.72 279.67)">C</text><text class="cls-8" transform="translate(368.43 292.16)">C</text><text class="cls-8" transform="translate(360.81 302.31)">C</text><text class="cls-7" transform="translate(349.25 307.74)">A</text><text class="cls-8" transform="translate(336.33 307.1)">G</text><text class="cls-7" transform="translate(325.56 300.53)">A</text><text class="cls-8" transform="translate(318.64 289.71)">G</text><text class="cls-8" transform="translate(317.37 276.67)">G</text><text class="cls-8" transform="translate(303.11 272.69)">U</text><text class="cls-8" transform="translate(290.94 266.66)">C</text><text class="cls-8" transform="translate(278.31 260.49)">G</text><text class="cls-7" transform="translate(266.18 254.17)">A</text><text class="cls-8" transform="translate(253.8 247.88)">U</text><text class="cls-8" transform="translate(242.75 247.99)">G</text><text class="cls-8" transform="translate(232.92 241.2)">G</text><text class="cls-7" transform="translate(219.71 240.18)">A</text><text class="cls-8" transform="translate(206.2 239.82)">U</text><text class="cls-1" transform="translate(193.26 240.28)">C</text><text class="cls-1" transform="translate(180.44 242)">C</text><text class="cls-1" transform="translate(179.54 254.83)">U</text><text class="cls-9" transform="translate(71.67 302.46)">10</text><text class="cls-9" transform="translate(83.32 232.03)">20</text><text class="cls-9" transform="translate(26.02 132.98)">30</text><text class="cls-9" transform="translate(68.51 128.31)">40</text><text class="cls-9" transform="translate(137.44 191.58)">50</text><text class="cls-9" transform="translate(263.52 214.29)">60</text><text class="cls-9" transform="translate(375.5 262.57)">70</text><text class="cls-9" transform="translate(287.48 275.09)">80</text><text class="cls-9" transform="translate(189.18 256.69)">90</text><g id="ID000011"><line class="cls-10" x1="30.11" y1="100.88" x2="38.61" y2="95.72"/></g><g id="ID000011-2"><line class="cls-10" x1="37.72" y1="112.33" x2="46.22" y2="107.18"/></g><g id="ID000011-3"><line class="cls-10" x1="44.47" y1="122.87" x2="52.96" y2="117.72"/></g><g id="ID000011-4"><line class="cls-10" x1="51.59" y1="134.47" x2="60.09" y2="129.31"/></g><g id="ID000011-5"><line class="cls-10" x1="66.15" y1="158.3" x2="74.65" y2="153.14"/></g><g id="ID000011-6"><line class="cls-10" x1="85.93" y1="183.56" x2="94.43" y2="178.4"/></g><g id="ID000011-7"><line class="cls-10" x1="92.64" y1="196.3" x2="101.14" y2="191.14"/></g><g id="ID000011-8"><line class="cls-10" x1="109.68" y1="216.01" x2="116.74" y2="210.1"/></g><g id="ID000011-9"><line class="cls-10" x1="94.57" y1="260.19" x2="90.81" y2="254.55"/></g><g id="ID000011-10"><line class="cls-10" x1="105.97" y1="254.27" x2="103.32" y2="248.03"/></g><g id="ID000011-11"><line class="cls-10" x1="83.2" y1="267.7" x2="79.44" y2="262.05"/></g><g id="ID000011-12"><line class="cls-10" x1="183.85" y1="231.58" x2="183.26" y2="224.82"/></g><g id="ID000011-13"><line class="cls-10" x1="197.26" y1="230.54" x2="196.67" y2="223.78"/></g><g id="ID000011-14"><line class="cls-10" x1="210.13" y1="229.67" x2="210.62" y2="222.9"/></g><g id="ID000011-15"><line class="cls-10" x1="223.56" y1="230.54" x2="224.01" y2="223.78"/></g><g id="ID000011-16"><line class="cls-10" x1="238.06" y1="231.26" x2="238.51" y2="224.5"/></g><g id="ID000011-17"><line class="cls-10" x1="272.23" y1="244.88" x2="275.83" y2="239.13"/></g><g id="ID000011-18"><line class="cls-10" x1="297.96" y1="257.05" x2="301.55" y2="251.3"/></g><g id="ID000021"><polygon class="cls-11" points="63.99 141.29 63.87 141.29 63.74 141.29 63.61 141.32 63.48 141.36 63.35 141.39 63.23 141.42 63.1 141.49 62.97 141.55 62.87 141.61 62.74 141.68 62.65 141.77 62.55 141.87 62.45 141.97 62.36 142.06 62.3 142.16 62.23 142.25 62.17 142.38 62.1 142.51 62.04 142.61 62.01 142.74 61.97 142.86 61.94 142.99 61.91 143.15 61.91 143.28 61.91 143.41 61.91 143.54 61.94 143.67 61.94 143.79 61.97 143.92 62.01 144.05 62.07 144.18 62.13 144.31 62.2 144.4 62.26 144.53 62.33 144.63 62.42 144.76 62.52 144.85 62.62 144.92 62.71 145.01 62.81 145.08 62.94 145.17 63.03 145.24 63.16 145.27 63.29 145.33 63.42 145.37 63.55 145.4 63.67 145.43 63.8 145.46 63.93 145.46 64.06 145.46 64.19 145.46 64.31 145.43 64.44 145.4 64.57 145.37 64.7 145.33 64.83 145.27 64.96 145.24 65.08 145.17 65.18 145.08 65.28 145.01 65.41 144.92 65.5 144.85 65.57 144.76 65.66 144.63 65.73 144.53 65.82 144.4 65.86 144.31 65.92 144.18 65.98 144.05 66.02 143.92 66.05 143.79 66.08 143.67 66.08 143.54 66.08 143.41 66.08 143.28 66.08 143.15 66.05 142.99 66.02 142.86 65.98 142.74 65.95 142.61 65.89 142.51 65.86 142.38 65.79 142.25 65.69 142.16 65.63 142.06 65.53 141.97 65.44 141.87 65.34 141.77 65.25 141.68 65.12 141.61 65.02 141.55 64.89 141.49 64.76 141.42 64.64 141.39 64.51 141.36 64.38 141.32 64.25 141.29 64.12 141.29 63.99 141.29"/></g><g id="ID000021-2"><polygon class="cls-11" points="104.33 201.79 104.2 201.79 104.07 201.79 103.94 201.82 103.81 201.86 103.69 201.89 103.56 201.92 103.43 201.99 103.3 202.05 103.21 202.11 103.08 202.18 102.98 202.27 102.89 202.37 102.79 202.47 102.69 202.56 102.63 202.66 102.56 202.75 102.5 202.88 102.44 203.01 102.37 203.11 102.34 203.24 102.31 203.37 102.28 203.49 102.24 203.65 102.24 203.78 102.24 203.91 102.24 204.04 102.28 204.17 102.28 204.29 102.31 204.42 102.34 204.55 102.4 204.68 102.47 204.81 102.53 204.9 102.6 205.03 102.66 205.13 102.76 205.26 102.85 205.35 102.95 205.42 103.05 205.51 103.14 205.58 103.27 205.67 103.37 205.74 103.5 205.77 103.62 205.83 103.75 205.87 103.88 205.9 104.01 205.93 104.14 205.96 104.26 205.96 104.39 205.96 104.52 205.96 104.65 205.93 104.78 205.9 104.91 205.87 105.03 205.83 105.16 205.77 105.29 205.74 105.42 205.67 105.52 205.58 105.61 205.51 105.74 205.42 105.84 205.35 105.9 205.26 106 205.13 106.06 205.03 106.16 204.9 106.19 204.81 106.25 204.68 106.32 204.55 106.35 204.42 106.38 204.29 106.41 204.17 106.41 204.04 106.41 203.91 106.41 203.78 106.41 203.65 106.38 203.49 106.35 203.37 106.32 203.24 106.28 203.11 106.22 203.01 106.19 202.88 106.13 202.75 106.03 202.66 105.96 202.56 105.87 202.47 105.77 202.37 105.68 202.27 105.58 202.18 105.45 202.11 105.36 202.05 105.23 201.99 105.1 201.92 104.97 201.89 104.84 201.86 104.71 201.82 104.58 201.79 104.46 201.79 104.33 201.79"/></g><g id="ID000021-3"><polygon class="cls-11" points="69.59 270.61 69.46 270.61 69.33 270.61 69.2 270.64 69.08 270.67 68.95 270.7 68.82 270.74 68.69 270.8 68.56 270.86 68.47 270.93 68.34 270.99 68.24 271.09 68.15 271.18 68.05 271.28 67.95 271.38 67.89 271.47 67.83 271.57 67.76 271.7 67.7 271.83 67.63 271.92 67.6 272.05 67.57 272.18 67.54 272.31 67.5 272.47 67.5 272.6 67.5 272.72 67.5 272.85 67.54 272.98 67.54 273.11 67.57 273.24 67.6 273.37 67.67 273.49 67.73 273.62 67.79 273.72 67.86 273.85 67.92 273.94 68.02 274.07 68.11 274.17 68.21 274.23 68.31 274.33 68.4 274.39 68.53 274.49 68.63 274.55 68.76 274.58 68.88 274.65 69.01 274.68 69.14 274.71 69.27 274.74 69.4 274.78 69.53 274.78 69.65 274.78 69.78 274.78 69.91 274.74 70.04 274.71 70.17 274.68 70.3 274.65 70.42 274.58 70.55 274.55 70.68 274.49 70.78 274.39 70.87 274.33 71 274.23 71.1 274.17 71.16 274.07 71.26 273.94 71.32 273.85 71.42 273.72 71.45 273.62 71.51 273.49 71.58 273.37 71.61 273.24 71.64 273.11 71.67 272.98 71.67 272.85 71.67 272.72 71.67 272.6 71.67 272.47 71.64 272.31 71.61 272.18 71.58 272.05 71.55 271.92 71.48 271.83 71.45 271.7 71.39 271.57 71.29 271.47 71.23 271.38 71.13 271.28 71.03 271.18 70.94 271.09 70.84 270.99 70.71 270.93 70.62 270.86 70.49 270.8 70.36 270.74 70.23 270.7 70.1 270.67 69.97 270.64 69.85 270.61 69.72 270.61 69.59 270.61"/></g><g id="ID000021-4"><polygon class="cls-11" points="263.52 233.54 263.39 233.54 263.26 233.54 263.13 233.57 263 233.6 262.87 233.63 262.75 233.67 262.62 233.73 262.49 233.79 262.39 233.86 262.26 233.92 262.17 234.02 262.07 234.12 261.98 234.21 261.88 234.31 261.82 234.4 261.75 234.5 261.69 234.63 261.62 234.76 261.56 234.85 261.53 234.98 261.5 235.11 261.46 235.24 261.43 235.4 261.43 235.53 261.43 235.65 261.43 235.78 261.46 235.91 261.46 236.04 261.5 236.17 261.53 236.3 261.59 236.42 261.66 236.55 261.72 236.65 261.78 236.78 261.85 236.87 261.94 237 262.04 237.1 262.14 237.16 262.23 237.26 262.33 237.32 262.46 237.42 262.55 237.48 262.68 237.51 262.81 237.58 262.94 237.61 263.07 237.64 263.19 237.68 263.32 237.71 263.45 237.71 263.58 237.71 263.71 237.71 263.84 237.68 263.96 237.64 264.09 237.61 264.22 237.58 264.35 237.51 264.48 237.48 264.61 237.42 264.7 237.32 264.8 237.26 264.93 237.16 265.02 237.1 265.09 237 265.18 236.87 265.25 236.78 265.34 236.65 265.38 236.55 265.44 236.42 265.5 236.3 265.54 236.17 265.57 236.04 265.6 235.91 265.6 235.78 265.6 235.65 265.6 235.53 265.6 235.4 265.57 235.24 265.54 235.11 265.5 234.98 265.47 234.85 265.41 234.76 265.38 234.63 265.31 234.5 265.21 234.4 265.15 234.31 265.06 234.21 264.96 234.12 264.86 234.02 264.77 233.92 264.64 233.86 264.54 233.79 264.41 233.73 264.29 233.67 264.16 233.63 264.03 233.6 263.9 233.57 263.77 233.54 263.64 233.54 263.52 233.54"/></g><g id="ID000021-5"><polygon class="cls-11" points="287.48 246.06 287.35 246.06 287.22 246.06 287.1 246.09 286.97 246.12 286.84 246.15 286.71 246.18 286.58 246.25 286.45 246.31 286.36 246.38 286.23 246.44 286.13 246.54 286.04 246.63 285.94 246.73 285.85 246.83 285.78 246.92 285.72 247.02 285.65 247.15 285.59 247.28 285.52 247.37 285.49 247.5 285.46 247.63 285.43 247.76 285.4 247.92 285.4 248.04 285.4 248.17 285.4 248.3 285.43 248.43 285.43 248.56 285.46 248.69 285.49 248.81 285.56 248.94 285.62 249.07 285.69 249.17 285.75 249.29 285.81 249.39 285.91 249.52 286 249.62 286.1 249.68 286.2 249.78 286.29 249.84 286.42 249.94 286.52 250 286.65 250.03 286.77 250.1 286.9 250.13 287.03 250.16 287.16 250.19 287.29 250.22 287.42 250.22 287.55 250.22 287.67 250.22 287.8 250.19 287.93 250.16 288.06 250.13 288.19 250.1 288.31 250.03 288.44 250 288.57 249.94 288.67 249.84 288.76 249.78 288.89 249.68 288.99 249.62 289.05 249.52 289.15 249.39 289.21 249.29 289.31 249.17 289.34 249.07 289.4 248.94 289.47 248.81 289.5 248.69 289.53 248.56 289.56 248.43 289.56 248.3 289.56 248.17 289.56 248.04 289.56 247.92 289.53 247.76 289.5 247.63 289.47 247.5 289.44 247.37 289.37 247.28 289.34 247.15 289.28 247.02 289.18 246.92 289.12 246.83 289.02 246.73 288.92 246.63 288.83 246.54 288.73 246.44 288.6 246.38 288.51 246.31 288.38 246.25 288.25 246.18 288.12 246.15 287.99 246.12 287.87 246.09 287.74 246.06 287.61 246.06 287.48 246.06"/></g><g id="ID000021-6"><polygon class="cls-11" points="312.02 258.4 311.89 258.4 311.76 258.4 311.64 258.44 311.51 258.47 311.38 258.5 311.25 258.53 311.12 258.6 310.99 258.66 310.9 258.72 310.77 258.79 310.67 258.88 310.58 258.98 310.48 259.08 310.38 259.17 310.32 259.27 310.26 259.37 310.19 259.49 310.13 259.62 310.06 259.72 310.03 259.85 310 259.98 309.97 260.1 309.94 260.26 309.94 260.39 309.94 260.52 309.94 260.65 309.97 260.78 309.97 260.9 310 261.03 310.03 261.16 310.1 261.29 310.16 261.42 310.23 261.51 310.29 261.64 310.35 261.74 310.45 261.87 310.55 261.96 310.64 262.03 310.74 262.12 310.83 262.19 310.96 262.28 311.06 262.35 311.19 262.38 311.31 262.44 311.44 262.48 311.57 262.51 311.7 262.54 311.83 262.57 311.96 262.57 312.08 262.57 312.21 262.57 312.34 262.54 312.47 262.51 312.6 262.48 312.73 262.44 312.85 262.38 312.98 262.35 313.11 262.28 313.21 262.19 313.3 262.12 313.43 262.03 313.53 261.96 313.59 261.87 313.69 261.74 313.75 261.64 313.85 261.51 313.88 261.42 313.94 261.29 314.01 261.16 314.04 261.03 314.07 260.9 314.11 260.78 314.11 260.65 314.11 260.52 314.11 260.39 314.11 260.26 314.07 260.1 314.04 259.98 314.01 259.85 313.98 259.72 313.91 259.62 313.88 259.49 313.82 259.37 313.72 259.27 313.66 259.17 313.56 259.08 313.46 258.98 313.37 258.88 313.27 258.79 313.14 258.72 313.05 258.66 312.92 258.6 312.79 258.53 312.66 258.5 312.53 258.47 312.4 258.44 312.28 258.4 312.15 258.4 312.02 258.4"/></g><g class="cls-12"><text class="cls-9" transform="translate(160.69 289.71)">5</text><text class="cls-13" transform="translate(166.25 289.71)">’</text></g><g class="cls-12"><text class="cls-9" transform="translate(170.94 252.82)">3</text><text class="cls-13" transform="translate(176.5 252.82)">’</text></g><g class="cls-12"><text class="cls-14" transform="translate(151.64 158.19)">SE RN</text><text class="cls-15" transform="translate(212.76 158.19)">A</text><text class="cls-14" transform="translate(225 158.19)"><tspan xml:space="preserve"> aptamer</tspan></text></g></svg>