<?xml version="1.0" encoding="utf-8"?>
<!-- Generator: Adobe Illustrator 25.2.0, SVG Export Plug-In . SVG Version: 6.00 Build 0)  -->
<svg version="1.1" id="图层_1" xmlns="http://www.w3.org/2000/svg" xmlns:xlink="http://www.w3.org/1999/xlink" x="0px" y="0px"
	 viewBox="0 0 400 400" style="enable-background:new 0 0 400 400;" xml:space="preserve">
<style type="text/css">
	.st0{fill:#CC00FF;}
	.st1{font-family:'ArialMT';}
	.st2{font-size:21.0578px;}
	.st3{fill:#80DB9E;}
	.st4{letter-spacing:-1;}
	.st5{fill:none;stroke:#000000;stroke-width:0.38;stroke-miterlimit:3.05;}
	.st6{font-size:16.8462px;}
	.st7{font-size:16.1443px;}
	.st8{font-size:14.0385px;}
	.st9{font-size:25px;}
	.st10{fill:#FF9933;}
</style>
<g id="ID000006">
	<text transform="matrix(1 0 0 1 146.3525 383.5927)" class="st0 st1 st2">G</text>
</g>
<g id="ID000010">
	<text transform="matrix(1 0 0 1 243.0498 314.1435)" class="st3 st1 st2">C</text>
</g>
<g id="ID000011">
	<text transform="matrix(1 0 0 1 186.0869 362.6415)" class="st3 st1 st2 st4">A</text>
</g>
<g id="ID000019">
	<text transform="matrix(1 0 0 1 243.0498 362.8505)" class="st3 st1 st2">U</text>
</g>
<g id="ID000020">
	<text transform="matrix(1 0 0 1 183.792 313.7861)" class="st3 st1 st2">G</text>
</g>
<g id="ID000021">
	<line class="st5" x1="240" y1="305.3" x2="204.4" y2="305.1"/>
</g>
<g id="ID000022">
	<line class="st5" x1="239.9" y1="354.3" x2="204.4" y2="354.1"/>
</g>
<text transform="matrix(1 0 0 1 127.0967 382.1826)" class="st1 st6">5</text>
<text transform="matrix(1 0 0 1 136.4678 382.1826)" class="st1 st6">’</text>
<text transform="matrix(1 0 0 1 267.9658 381.9853)" class="st1 st7">3</text>
<text transform="matrix(1 0 0 1 276.9443 381.9853)" class="st1 st7">’</text>
<g id="ID000006-2">
	<text transform="matrix(1 0 0 1 167.6475 383.7411)" class="st0 st1 st2">U</text>
</g>
<g id="ID000002-3">
	<text transform="matrix(1 0 0 1 244.0752 383.4892)" class="st0 st1 st2">U</text>
</g>
<g id="ID000006-3">
	<text transform="matrix(1 0 0 1 185.5049 383.3408)" class="st0 st1 st2">C</text>
</g>
<g id="ID000011-2">
	<text transform="matrix(1 0 0 1 243.0498 342.2216)" class="st3 st1 st2">G</text>
</g>
<g id="ID000019-2">
	<text transform="matrix(1 0 0 1 184.9639 341.9345)" class="st3 st1 st2">C</text>
</g>
<g id="ID000022-2">
	<line class="st5" x1="239.9" y1="333.6" x2="204.4" y2="333.4"/>
</g>
<g id="ID000019-3">
	<text transform="matrix(1 0 0 1 243.0498 291.788)" class="st3 st1 st2">U</text>
</g>
<g id="ID000002-5">
	<text transform="matrix(1 0 0 1 164.4189 330.8349)" class="st3 st1 st2">U</text>
</g>
<g id="ID000018">
	<text transform="matrix(1 0 0 1 154.408 246.1173)" class="st1 st8">10</text>
</g>
<g id="ID000003-2">
	<text transform="matrix(1 0 0 1 243.0498 250.2548)" class="st3 st1 st2">G</text>
</g>
<g id="ID000005-5">
	<text transform="matrix(1 0 0 1 184.9639 249.5302)" class="st3 st1 st2">C</text>
</g>
<g id="ID000010-2">
	<text transform="matrix(1 0 0 1 243.0498 270.7665)" class="st3 st1 st2">G</text>
</g>
<g id="ID000020-3">
	<text transform="matrix(1 0 0 1 184.9639 270.2587)" class="st3 st1 st2">C</text>
</g>
<text transform="matrix(1 0 0 1 14.9458 27.0496)" class="st1 st9">945 aptamer</text>
<g id="ID000020-3-2">
	<text transform="matrix(1 0 0 1 186.0869 290.9872)" class="st3 st1 st2 st4">A</text>
</g>
<line class="st5" x1="239.9" y1="262.9" x2="204.4" y2="262.7"/>
<line class="st5" x1="239.9" y1="283.8" x2="204.4" y2="283.5"/>
<line class="st5" x1="239.9" y1="242.1" x2="204.4" y2="241.9"/>
<g id="ID000005-5-2">
	<text transform="matrix(1 0 0 1 259.7119 232.0029)" class="st3 st1 st2">C</text>
</g>
<g id="ID000010-2-2">
	<text transform="matrix(1 0 0 1 243.085 219.8818)" class="st3 st1 st2 st4">A</text>
</g>
<g id="ID000020-2">
	<text transform="matrix(1 0 0 1 184.9639 219.5244)" class="st3 st1 st2">U</text>
</g>
<g id="ID000021-2">
	<line class="st5" x1="240" y1="211.1" x2="204.4" y2="210.9"/>
</g>
<g id="ID000019-3-2">
	<text transform="matrix(1 0 0 1 243.0498 197.5205)" class="st3 st1 st2">C</text>
</g>
<g id="ID000003-2-2">
	<text transform="matrix(1 0 0 1 243.0498 141.8212)" class="st3 st1 st2">C</text>
</g>
<g id="ID000005-5-3">
	<text transform="matrix(1 0 0 1 183.792 140.6142)" class="st3 st1 st2">G</text>
</g>
<g id="ID000010-2-3">
	<text transform="matrix(1 0 0 1 243.0498 162.331)" class="st3 st1 st2">G</text>
</g>
<g id="ID000020-3-3">
	<text transform="matrix(1 0 0 1 184.9639 161.8251)" class="st3 st1 st2">C</text>
</g>
<g id="ID000020-3-4">
	<text transform="matrix(1 0 0 1 183.792 196.7255)" class="st3 st1 st2">G</text>
</g>
<line class="st5" x1="239.9" y1="154.5" x2="204.4" y2="154.3"/>
<line class="st5" x1="239.9" y1="189.5" x2="204.4" y2="189.2"/>
<line class="st5" x1="239.9" y1="133.7" x2="204.4" y2="133.5"/>
<g id="ID000002-5-2">
	<text transform="matrix(1 0 0 1 166.083 178.3427)" class="st3 st1 st2">U</text>
</g>
<g id="ID000003-2-3">
	<text transform="matrix(1 0 0 1 243.0498 98.913)" class="st3 st1 st2">U</text>
</g>
<g id="ID000005-5-4">
	<text transform="matrix(1 0 0 1 186.0869 98.1884)" class="st3 st1 st2 st4">A</text>
</g>
<g id="ID000010-2-4">
	<text transform="matrix(1 0 0 1 243.0498 119.4228)" class="st3 st1 st2">G</text>
</g>
<g id="ID000020-3-5">
	<text transform="matrix(1 0 0 1 184.9639 119.4033)" class="st3 st1 st2">C</text>
</g>
<line class="st5" x1="239.9" y1="111.6" x2="204.4" y2="111.4"/>
<line class="st5" x1="239.9" y1="90.8" x2="204.4" y2="90.6"/>
<g id="ID000003-2-4">
	<text transform="matrix(1 0 0 1 247.2248 77.7069)" class="st10 st1 st2">C</text>
</g>
<g id="ID000005-5-5">
	<text transform="matrix(1 0 0 1 179.581 79.1131)" class="st10 st1 st2">G</text>
</g>
<g id="ID000005-5-6">
	<text transform="matrix(1 0 0 1 199.9998 57.2889)" class="st10 st1 st2">G</text>
</g>
<g id="ID000003-2-5">
	<text transform="matrix(1 0 0 1 227.4661 55.4544)" class="st10 st1 st2">U</text>
</g>
<g id="ID000018-2-2">
	<text transform="matrix(1 0 0 1 271.1956 267.9072)" class="st1 st8">30</text>
</g>
<line class="st5" x1="181.5" y1="242.9" x2="173.5" y2="242.7"/>
<line class="st5" x1="269.3" y1="263.9" x2="261.3" y2="263.7"/>
</svg>
