<?xml version="1.0" encoding="utf-8"?>
<!-- Generator: Adobe Illustrator 25.2.0, SVG Export Plug-In . SVG Version: 6.00 Build 0)  -->
<svg version="1.1" id="图层_1" xmlns="http://www.w3.org/2000/svg" xmlns:xlink="http://www.w3.org/1999/xlink" x="0px" y="0px"
	 viewBox="0 0 800 400" style="enable-background:new 0 0 800 400;" xml:space="preserve">
<style type="text/css">
	.st0{fill:#2CA02C;}
	.st1{font-family:'ArialMT';}
	.st2{font-size:13.7369px;}
	.st3{fill:none;stroke:#000000;stroke-width:0.8889;stroke-miterlimit:7.1111;}
	.st4{stroke:#000000;stroke-width:0.8889;stroke-miterlimit:7.1111;}
	.st5{fill:#FFFFFF;stroke:#000000;stroke-width:0.8889;stroke-miterlimit:7.1111;}
	.st6{fill:none;stroke:#000000;stroke-miterlimit:7.1111;}
	.st7{fill:#E377C2;}
	.st8{font-size:20px;}
	.st9{font-size:14px;}
</style>
<g transform="translate(460.750,65.306)">
	<g transform="rotate(-0.0)">
		<text transform="matrix(0.9327 0 0 1 18.5645 -39.2347)" class="st0 st1 st2">G</text>
	</g>
</g>
<g transform="translate(460.750,82.884)">
	<g transform="rotate(-0.0)">
		<text transform="matrix(0.9327 0 0 1 19.2754 -43.3987)" class="st0 st1 st2">A</text>
	</g>
</g>
<g transform="translate(460.750,100.463)">
	<g transform="rotate(-0.0)">
		<text transform="matrix(0.9327 0 0 1 18.9219 -47.5607)" class="st0 st1 st2">C</text>
	</g>
</g>
<g transform="translate(460.750,118.041)">
	<g transform="rotate(-0.0)">
		<text transform="matrix(0.9327 0 0 1 18.5645 -51.7236)" class="st0 st1 st2">G</text>
	</g>
</g>
<g transform="translate(460.750,135.620)">
	<g transform="rotate(-0.0)">
		<text transform="matrix(0.9327 0 0 1 18.9219 -55.8876)" class="st0 st1 st2">C</text>
	</g>
</g>
<g transform="translate(460.750,153.199)">
	<g transform="rotate(-0.0)">
		<text transform="matrix(0.9327 0 0 1 18.5645 -60.0515)" class="st0 st1 st2">G</text>
	</g>
</g>
<g transform="translate(460.750,170.777)">
	<g transform="rotate(-0.0)">
		<text transform="matrix(0.9327 0 0 1 19.2754 -64.2145)" class="st0 st1 st2">A</text>
	</g>
</g>
<g transform="translate(460.750,188.356)">
	<g transform="rotate(-0.0)">
		<text transform="matrix(0.9327 0 0 1 18.9219 -68.3775)" class="st0 st1 st2">C</text>
	</g>
</g>
<g transform="translate(460.750,205.934)">
	<g transform="rotate(-0.0)">
		<text transform="matrix(0.9327 0 0 1 18.9219 -72.5405)" class="st0 st1 st2">C</text>
	</g>
</g>
<line class="st3" x1="476" y1="127.3" x2="467.6" y2="127.3"/>
<g transform="translate(437.311,205.934)">
	<g transform="rotate(-0.0)">
		<text transform="matrix(0.9327 0 0 1 16.0503 -72.5405)" class="st1 st2">10</text>
	</g>
</g>
<g transform="translate(460.750,223.513)">
	<g transform="rotate(-0.0)">
		<text transform="matrix(0.9327 0 0 1 18.5645 -76.7044)" class="st0 st1 st2">G</text>
	</g>
</g>
<g transform="translate(460.750,241.092)">
	<g transform="rotate(-0.0)">
		<text transform="matrix(0.9327 0 0 1 19.2754 -80.8674)" class="st0 st1 st2">A</text>
	</g>
</g>
<g transform="translate(495.907,241.092)">
	<g transform="rotate(-0.0)">
		<text transform="matrix(0.9327 0 0 1 8.7903 -80.8674)" class="st0 st1 st2">C</text>
	</g>
</g>
<g transform="translate(495.907,223.513)">
	<g transform="rotate(-0.0)">
		<text transform="matrix(0.9327 0 0 1 8.7903 -76.7044)" class="st0 st1 st2">U</text>
	</g>
</g>
<g transform="translate(495.907,205.934)">
	<g transform="rotate(-0.0)">
		<text transform="matrix(0.9327 0 0 1 8.4328 -72.5405)" class="st0 st1 st2">G</text>
	</g>
</g>
<g transform="translate(495.907,188.356)">
	<g transform="rotate(-0.0)">
		<text transform="matrix(0.9327 0 0 1 8.4328 -68.3775)" class="st0 st1 st2">G</text>
	</g>
</g>
<g transform="translate(495.907,170.777)">
	<g transform="rotate(-0.0)">
		<text transform="matrix(0.9327 0 0 1 8.7903 -64.2145)" class="st0 st1 st2">U</text>
	</g>
</g>
<g transform="translate(495.907,153.199)">
	<g transform="rotate(-0.0)">
		<text transform="matrix(0.9327 0 0 1 8.7903 -60.0515)" class="st0 st1 st2">C</text>
	</g>
</g>
<g transform="translate(495.907,135.620)">
	<g transform="rotate(-0.0)">
		<text transform="matrix(0.9327 0 0 1 8.4328 -55.8876)" class="st0 st1 st2">G</text>
	</g>
</g>
<line class="st3" x1="517.7" y1="73.7" x2="526" y2="73.7"/>
<g transform="translate(519.345,135.620)">
	<g transform="rotate(-0.0)">
		<text transform="matrix(0.9327 0 0 1 6.6628 -55.8876)" class="st1 st2">80</text>
	</g>
</g>
<g transform="translate(495.907,118.041)">
	<g transform="rotate(-0.0)">
		<text transform="matrix(0.9327 0 0 1 8.7903 -51.7236)" class="st0 st1 st2">C</text>
	</g>
</g>
<g transform="translate(495.907,100.463)">
	<g transform="rotate(-0.0)">
		<text transform="matrix(0.9327 0 0 1 8.4328 -47.5607)" class="st0 st1 st2">G</text>
	</g>
</g>
<g transform="translate(495.907,82.884)">
	<g transform="rotate(-0.0)">
		<text transform="matrix(0.9327 0 0 1 8.7903 -43.3987)" class="st0 st1 st2">U</text>
	</g>
</g>
<g transform="translate(495.907,65.306)">
	<g transform="rotate(-0.0)">
		<text transform="matrix(0.9327 0 0 1 8.7903 -39.2347)" class="st0 st1 st2">C</text>
	</g>
</g>
<line class="st3" x1="489.3" y1="20.1" x2="504.3" y2="20.1"/>
<line class="st3" x1="489.3" y1="33.5" x2="504.3" y2="33.5"/>
<line class="st3" x1="489.3" y1="46.9" x2="504.3" y2="46.9"/>
<line class="st3" x1="489.3" y1="60.3" x2="504.3" y2="60.3"/>
<line class="st3" x1="489.3" y1="73.7" x2="504.3" y2="73.7"/>
<line class="st3" x1="489.3" y1="87.1" x2="504.3" y2="87.1"/>
<line class="st3" x1="489.3" y1="100.5" x2="504.3" y2="100.5"/>
<line class="st3" x1="489.3" y1="113.9" x2="504.3" y2="113.9"/>
<line class="st3" x1="489.3" y1="127.3" x2="504.3" y2="127.3"/>
<line class="st3" x1="488.8" y1="143.2" x2="504.8" y2="151.8"/>
<polygon class="st4" points="499,148.7 499.1,148.5 499.2,148.3 499.2,148.2 499.2,148 499.3,147.9 499.3,147.7 499.3,147.5 
	499.3,147.4 499.3,147.2 499.3,147.1 499.2,146.9 499.2,146.6 499.1,146.5 499.1,146.3 499,146.2 498.9,146.1 498.9,145.9 
	498.8,145.8 498.7,145.7 498.6,145.6 498.5,145.4 498.3,145.3 498.2,145.3 498.1,145.2 497.8,145.1 497.7,145 497.6,145 
	497.4,144.9 497.3,144.9 497.1,144.9 497,144.9 496.8,144.7 496.7,144.9 496.5,144.9 496.4,144.9 496.2,144.9 496,145 495.8,145 
	495.7,145.1 495.6,145.2 495.4,145.2 495.3,145.3 495.2,145.4 495.1,145.5 495,145.7 494.9,145.8 494.8,145.9 494.7,146 
	494.6,146.2 494.6,146.3 494.5,146.5 494.5,146.6 494.4,146.9 494.4,147 494.4,147.2 494.4,147.4 494.4,147.5 494.4,147.7 
	494.4,147.8 494.4,148 494.4,148.2 494.5,148.3 494.5,148.5 494.6,148.7 494.7,148.9 494.7,149 494.8,149.1 494.9,149.2 495,149.4 
	495.1,149.5 495.3,149.6 495.4,149.7 495.5,149.8 495.6,149.8 495.8,149.9 495.9,150 496,150 496.3,150.1 496.4,150.1 496.6,150.1 
	496.7,150.1 496.9,150.1 497,150.1 497.2,150.1 497.3,150.1 497.5,150 497.6,150 497.8,149.9 497.9,149.9 498.1,149.8 498.3,149.7 
	498.4,149.6 498.5,149.5 498.6,149.4 498.7,149.3 498.8,149.1 498.9,149 499,148.9 "/>
<line class="st3" x1="488.7" y1="156.8" x2="504" y2="166.1"/>
<polygon class="st5" points="490.7,158 493.5,163.2 496.3,157.9 "/>
<polygon class="st5" points="502.5,162.2 498.2,159.5 495.7,164.2 500.1,166.8 "/>
<g transform="translate(459.285,277.714)">
	<g transform="rotate(-0.0)">
		<text transform="matrix(0.9327 0 0 1 19.6955 -89.5411)" class="st0 st1 st2">A</text>
	</g>
</g>
<g transform="translate(459.285,295.292)">
	<g transform="rotate(-0.0)">
		<text transform="matrix(0.9327 0 0 1 19.6955 -93.7051)" class="st0 st1 st2">A</text>
	</g>
</g>
<g transform="translate(459.285,312.871)">
	<g transform="rotate(-0.0)">
		<text transform="matrix(0.9327 0 0 1 19.3439 -97.8681)" class="st0 st1 st2">U</text>
	</g>
</g>
<g transform="translate(459.285,330.450)">
	<g transform="rotate(-0.0)">
		<text transform="matrix(0.9327 0 0 1 18.9865 -102.0301)" class="st0 st1 st2">G</text>
	</g>
</g>
<g transform="translate(459.285,348.028)">
	<g transform="rotate(-0.0)">
		<text transform="matrix(0.9327 0 0 1 18.9865 -106.195)" class="st0 st1 st2">G</text>
	</g>
</g>
<g transform="translate(459.285,365.607)">
	<g transform="rotate(-0.0)">
		<text transform="matrix(0.9327 0 0 1 19.3439 -110.358)" class="st0 st1 st2">U</text>
	</g>
</g>
<g transform="translate(459.285,383.186)">
	<g transform="rotate(-0.0)">
		<text transform="matrix(0.9327 0 0 1 18.9865 -114.521)" class="st0 st1 st2">G</text>
	</g>
</g>
<g transform="translate(459.285,400.764)">
	<g transform="rotate(-0.0)">
		<text transform="matrix(0.9327 0 0 1 19.6955 -118.6849)" class="st0 st1 st2">A</text>
	</g>
</g>
<line class="st3" x1="480.1" y1="272.2" x2="471.8" y2="272.2"/>
<g transform="translate(435.846,400.764)">
	<g transform="rotate(-0.0)">
		<text transform="matrix(0.9327 0 0 1 18.6537 -124.6644)" class="st1 st2">20</text>
	</g>
</g>
<g transform="translate(459.285,418.343)">
	<g transform="rotate(-0.0)">
		<text transform="matrix(0.9327 0 0 1 19.6955 -122.8469)" class="st0 st1 st2">A</text>
	</g>
</g>
<g transform="translate(459.285,435.921)">
	<g transform="rotate(-0.0)">
		<text transform="matrix(0.9327 0 0 1 18.9865 -127.0108)" class="st0 st1 st2">G</text>
	</g>
</g>
<g transform="translate(459.285,453.500)">
	<g transform="rotate(-0.0)">
		<text transform="matrix(0.9327 0 0 1 18.9865 -131.1748)" class="st0 st1 st2">G</text>
	</g>
</g>
<g transform="translate(494.442,471.079)">
	<g transform="rotate(-0.0)">
		<text transform="matrix(0.9327 0 0 1 8.8549 -135.3378)" class="st0 st1 st2">G</text>
	</g>
</g>
<g transform="translate(494.442,453.500)">
	<g transform="rotate(-0.0)">
		<text transform="matrix(0.9327 0 0 1 9.2123 -131.1748)" class="st0 st1 st2">U</text>
	</g>
</g>
<g transform="translate(494.442,435.921)">
	<g transform="rotate(-0.0)">
		<text transform="matrix(0.9327 0 0 1 8.8549 -127.0108)" class="st0 st1 st2">G</text>
	</g>
</g>
<g transform="translate(494.442,418.343)">
	<g transform="rotate(-0.0)">
		<text transform="matrix(0.9327 0 0 1 9.5658 -122.8469)" class="st0 st1 st2">A</text>
	</g>
</g>
<g transform="translate(494.442,400.764)">
	<g transform="rotate(-0.0)">
		<text transform="matrix(0.9327 0 0 1 8.8549 -118.6849)" class="st0 st1 st2">G</text>
	</g>
</g>
<g transform="translate(494.442,383.186)">
	<g transform="rotate(-0.0)">
		<text transform="matrix(0.9327 0 0 1 9.2123 -114.521)" class="st0 st1 st2">C</text>
	</g>
</g>
<g transform="translate(494.442,365.607)">
	<g transform="rotate(-0.0)">
		<text transform="matrix(0.9327 0 0 1 9.2123 -110.358)" class="st0 st1 st2">U</text>
	</g>
</g>
<g transform="translate(494.442,348.028)">
	<g transform="rotate(-0.0)">
		<text transform="matrix(0.9327 0 0 1 9.2123 -106.195)" class="st0 st1 st2">C</text>
	</g>
</g>
<g transform="translate(494.442,330.450)">
	<g transform="rotate(-0.0)">
		<text transform="matrix(0.9327 0 0 1 9.2123 -102.0301)" class="st0 st1 st2">C</text>
	</g>
</g>
<g transform="translate(494.442,312.871)">
	<g transform="rotate(-0.0)">
		<text transform="matrix(0.9327 0 0 1 8.8549 -97.8681)" class="st0 st1 st2">G</text>
	</g>
</g>
<line class="st3" x1="516.6" y1="208.9" x2="525" y2="208.9"/>
<g transform="translate(517.880,312.871)">
	<g transform="rotate(-0.0)">
		<text transform="matrix(0.9327 0 0 1 7.0848 -97.8681)" class="st1 st2">70</text>
	</g>
</g>
<g transform="translate(494.442,295.292)">
	<g transform="rotate(-0.0)">
		<text transform="matrix(0.9327 0 0 1 9.2123 -93.7051)" class="st0 st1 st2">U</text>
	</g>
</g>
<g transform="translate(494.442,277.714)">
	<g transform="rotate(-0.0)">
		<text transform="matrix(0.9327 0 0 1 9.5658 -89.5411)" class="st0 st1 st2">A</text>
	</g>
</g>
<g transform="translate(494.442,260.135)">
	<g transform="rotate(-0.0)">
		<text transform="matrix(0.9327 0 0 1 9.5658 -85.3772)" class="st0 st1 st2">A</text>
	</g>
</g>
<line class="st3" x1="488.2" y1="182.1" x2="503.2" y2="182.1"/>
<polygon class="st5" points="490,184.9 495,184.9 495,179.5 490,179.5 "/>
<polygon class="st5" points="502.3,182.1 497.4,179.2 497.4,185.2 "/>
<line class="st3" x1="488.2" y1="195.5" x2="503.2" y2="195.5"/>
<polygon class="st4" points="498.3,208.9 498.3,208.8 498.3,208.6 498.3,208.4 498.2,208.3 498.2,208.1 498.1,208 498.1,207.8 
	497.9,207.7 497.8,207.6 497.7,207.4 497.6,207.2 497.6,207.1 497.4,207 497.3,206.9 497.2,206.8 497.1,206.7 497,206.6 
	496.8,206.5 496.7,206.5 496.5,206.4 496.4,206.4 496.2,206.3 496,206.3 495.8,206.3 495.7,206.3 495.5,206.3 495.4,206.3 
	495.2,206.3 495.1,206.4 495,206.4 494.8,206.5 494.7,206.6 494.5,206.6 494.4,206.7 494.3,206.8 494.1,206.9 494,207 493.9,207.1 
	493.8,207.4 493.7,207.5 493.6,207.6 493.5,207.8 493.5,207.9 493.4,208.1 493.4,208.2 493.3,208.4 493.3,208.5 493.3,208.7 
	493.3,208.8 493.3,209 493.3,209.3 493.3,209.4 493.3,209.6 493.4,209.7 493.4,209.9 493.5,210 493.5,210.2 493.6,210.3 
	493.7,210.5 493.8,210.6 493.9,210.7 494,210.8 494.1,210.9 494.3,211.2 494.4,211.2 494.5,211.3 494.7,211.4 494.8,211.5 
	495,211.5 495.1,211.6 495.2,211.6 495.4,211.6 495.5,211.7 495.7,211.7 495.8,211.7 496,211.7 496.2,211.6 496.4,211.6 
	496.5,211.6 496.7,211.5 496.8,211.4 497,211.4 497.1,211.3 497.2,211.2 497.3,211 497.4,210.9 497.6,210.8 497.6,210.7 
	497.7,210.5 497.8,210.4 497.9,210.3 498.1,210.1 498.1,210 498.2,209.8 498.2,209.7 498.3,209.5 498.3,209.4 498.3,209.1 "/>
<line class="st3" x1="488.2" y1="222.3" x2="503.2" y2="222.3"/>
<line class="st3" x1="488.2" y1="235.8" x2="503.2" y2="235.8"/>
<line class="st3" x1="488.2" y1="249.2" x2="503.2" y2="249.2"/>
<polygon class="st4" points="498.3,249.2 498.3,249.1 498.3,248.8 498.3,248.7 498.2,248.5 498.2,248.4 498.1,248.2 498.1,248.1 
	497.9,247.9 497.8,247.8 497.7,247.6 497.6,247.5 497.6,247.4 497.4,247.3 497.3,247.2 497.2,247 497.1,246.9 497,246.8 
	496.8,246.7 496.7,246.7 496.5,246.6 496.4,246.6 496.2,246.5 496,246.5 495.8,246.5 495.7,246.5 495.5,246.5 495.4,246.5 
	495.2,246.6 495.1,246.6 495,246.6 494.8,246.7 494.7,246.8 494.5,246.8 494.4,246.9 494.3,247 494.1,247.2 494,247.3 493.9,247.5 
	493.8,247.6 493.7,247.7 493.6,247.8 493.5,248 493.5,248.1 493.4,248.3 493.4,248.4 493.3,248.6 493.3,248.7 493.3,248.9 
	493.3,249.2 493.3,249.3 493.3,249.5 493.3,249.7 493.3,249.8 493.4,250 493.4,250.1 493.5,250.3 493.5,250.4 493.6,250.6 
	493.7,250.7 493.8,250.8 493.9,251 494,251.2 494.1,251.3 494.3,251.4 494.4,251.5 494.5,251.5 494.7,251.6 494.8,251.7 495,251.8 
	495.1,251.8 495.2,251.8 495.4,251.9 495.5,251.9 495.7,251.9 495.8,251.9 496,251.9 496.2,251.9 496.4,251.8 496.5,251.8 
	496.7,251.7 496.8,251.7 497,251.6 497.1,251.5 497.2,251.4 497.3,251.3 497.4,251.2 497.6,251.1 497.6,251 497.7,250.8 
	497.8,250.6 497.9,250.5 498.1,250.3 498.1,250.2 498.2,250 498.2,249.9 498.3,249.7 498.3,249.6 498.3,249.4 "/>
<line class="st3" x1="488.2" y1="262.7" x2="503.2" y2="262.7"/>
<polygon class="st4" points="498.3,262.7 498.3,262.5 498.3,262.3 498.3,262.1 498.2,261.9 498.2,261.8 498.1,261.6 498.1,261.5 
	497.9,261.3 497.8,261.2 497.7,261 497.6,260.9 497.6,260.8 497.4,260.7 497.3,260.6 497.2,260.5 497.1,260.4 497,260.2 
	496.8,260.1 496.7,260.1 496.5,260 496.4,260 496.2,260 496,259.9 495.8,259.9 495.7,259.9 495.5,259.9 495.4,259.9 495.2,260 
	495.1,260 495,260.1 494.8,260.1 494.7,260.2 494.5,260.4 494.4,260.4 494.3,260.5 494.1,260.6 494,260.7 493.9,260.9 493.8,261 
	493.7,261.1 493.6,261.3 493.5,261.4 493.5,261.5 493.4,261.7 493.4,261.8 493.3,262 493.3,262.3 493.3,262.4 493.3,262.6 
	493.3,262.7 493.3,262.9 493.3,263.1 493.3,263.2 493.4,263.4 493.4,263.5 493.5,263.7 493.5,263.8 493.6,264 493.7,264.2 
	493.8,264.3 493.9,264.5 494,264.6 494.1,264.7 494.3,264.8 494.4,264.9 494.5,265 494.7,265 494.8,265.1 495,265.2 495.1,265.2 
	495.2,265.2 495.4,265.3 495.5,265.3 495.7,265.3 495.8,265.3 496,265.3 496.2,265.3 496.4,265.2 496.5,265.2 496.7,265.1 
	496.8,265.1 497,265 497.1,264.9 497.2,264.8 497.3,264.7 497.4,264.6 497.6,264.5 497.6,264.4 497.7,264.3 497.8,264 497.9,263.9 
	498.1,263.7 498.1,263.6 498.2,263.4 498.2,263.3 498.3,263.1 498.3,263 498.3,262.8 "/>
<line class="st3" x1="488.2" y1="276.1" x2="503.2" y2="276.1"/>
<polygon class="st4" points="498.3,276.1 498.3,275.9 498.3,275.7 498.3,275.6 498.2,275.3 498.2,275.2 498.1,275 498.1,274.9 
	497.9,274.7 497.8,274.6 497.7,274.5 497.6,274.3 497.6,274.2 497.4,274.1 497.3,274 497.2,273.9 497.1,273.8 497,273.7 
	496.8,273.7 496.7,273.5 496.5,273.4 496.4,273.4 496.2,273.4 496,273.3 495.8,273.3 495.7,273.3 495.5,273.3 495.4,273.3 
	495.2,273.4 495.1,273.4 495,273.5 494.8,273.5 494.7,273.7 494.5,273.8 494.4,273.8 494.3,273.9 494.1,274 494,274.2 493.9,274.3 
	493.8,274.4 493.7,274.5 493.6,274.7 493.5,274.8 493.5,274.9 493.4,275.1 493.4,275.2 493.3,275.4 493.3,275.7 493.3,275.8 
	493.3,276 493.3,276.1 493.3,276.3 493.3,276.5 493.3,276.6 493.4,276.8 493.4,276.9 493.5,277.1 493.5,277.2 493.6,277.5 
	493.7,277.6 493.8,277.7 493.9,277.9 494,278 494.1,278.1 494.3,278.2 494.4,278.3 494.5,278.4 494.7,278.4 494.8,278.5 495,278.6 
	495.1,278.6 495.2,278.7 495.4,278.7 495.5,278.7 495.7,278.7 495.8,278.7 496,278.7 496.2,278.7 496.4,278.6 496.5,278.6 
	496.7,278.5 496.8,278.5 497,278.4 497.1,278.3 497.2,278.2 497.3,278.1 497.4,278 497.6,277.9 497.6,277.8 497.7,277.7 
	497.8,277.5 497.9,277.3 498.1,277.2 498.1,277 498.2,276.9 498.2,276.7 498.3,276.5 498.3,276.4 498.3,276.2 "/>
<line class="st3" x1="488.2" y1="289.5" x2="503.2" y2="289.5"/>
<polygon class="st4" points="498.3,289.5 498.3,289.3 498.3,289.1 498.3,289 498.2,288.8 498.2,288.6 498.1,288.4 498.1,288.3 
	497.9,288.1 497.8,288 497.7,287.9 497.6,287.7 497.6,287.6 497.4,287.5 497.3,287.4 497.2,287.3 497.1,287.2 497,287.1 
	496.8,287.1 496.7,287 496.5,286.9 496.4,286.9 496.2,286.9 496,286.7 495.8,286.7 495.7,286.7 495.5,286.7 495.4,286.9 
	495.2,286.9 495.1,286.9 495,287 494.8,287 494.7,287.1 494.5,287.2 494.4,287.3 494.3,287.3 494.1,287.4 494,287.6 493.9,287.7 
	493.8,287.8 493.7,287.9 493.6,288.1 493.5,288.2 493.5,288.4 493.4,288.5 493.4,288.8 493.3,288.9 493.3,289.1 493.3,289.2 
	493.3,289.4 493.3,289.6 493.3,289.7 493.3,289.9 493.3,290 493.4,290.2 493.4,290.3 493.5,290.5 493.5,290.7 493.6,290.9 
	493.7,291 493.8,291.1 493.9,291.3 494,291.4 494.1,291.5 494.3,291.6 494.4,291.7 494.5,291.8 494.7,291.8 494.8,291.9 495,292 
	495.1,292 495.2,292.1 495.4,292.1 495.5,292.1 495.7,292.1 495.8,292.1 496,292.1 496.2,292.1 496.4,292 496.5,292 496.7,291.9 
	496.8,291.9 497,291.8 497.1,291.7 497.2,291.6 497.3,291.5 497.4,291.4 497.6,291.3 497.6,291.2 497.7,291.1 497.8,290.9 
	497.9,290.8 498.1,290.7 498.1,290.4 498.2,290.3 498.2,290.1 498.3,290 498.3,289.8 498.3,289.6 "/>
<line class="st3" x1="479.9" y1="306.9" x2="462.6" y2="327.9"/>
<polygon class="st4" points="475,312.8 474.9,312.7 474.8,312.6 474.7,312.5 474.5,312.4 474.4,312.3 474.3,312.3 474.1,312.2 
	474,312.2 473.8,312.2 473.7,312.1 473.5,312.1 473.3,312.1 473.1,312.1 473,312.2 472.8,312.2 472.7,312.2 472.5,312.3 
	472.4,312.3 472.3,312.4 472.1,312.5 472,312.6 471.9,312.7 471.8,312.8 471.7,312.9 471.6,313 471.4,313.1 471.3,313.4 
	471.2,313.5 471.1,313.7 471.1,313.8 471,313.9 471,314.1 470.9,314.3 470.9,314.4 470.9,314.6 470.9,314.7 470.9,314.9 
	470.9,315.1 470.9,315.3 471,315.5 471,315.6 471.1,315.8 471.1,315.9 471.2,316.1 471.3,316.2 471.3,316.4 471.4,316.5 
	471.6,316.6 471.7,316.7 471.9,316.8 472,316.9 472.1,317 472.2,317.2 472.4,317.3 472.5,317.3 472.6,317.4 472.8,317.4 
	472.9,317.5 473.1,317.5 473.2,317.5 473.5,317.5 473.6,317.5 473.8,317.5 473.9,317.5 474.1,317.4 474.2,317.4 474.4,317.3 
	474.5,317.3 474.6,317.2 474.8,317 474.9,316.9 475,316.8 475.1,316.7 475.2,316.6 475.4,316.5 475.5,316.3 475.6,316.2 
	475.7,316.1 475.7,315.9 475.8,315.8 475.8,315.6 475.9,315.5 475.9,315.3 475.9,315 475.9,314.9 475.9,314.7 475.9,314.6 
	475.9,314.4 475.9,314.2 475.8,314.1 475.8,313.9 475.7,313.8 475.7,313.6 475.6,313.5 475.5,313.2 475.4,313.1 475.2,313 
	475.1,312.9 "/>
<polygon class="st4" points="469.3,323.8 472.6,319.8 468.9,316.2 465.5,320.2 "/>
<line class="st6" x1="509.1" y1="354.5" x2="508.5" y2="336.2"/>
<polygon class="st4" points="506.8,347.8 507.8,346.5 508,345.3 508.2,344.1 508.6,341.6 509.2,344 509.4,345.3 509.8,346.5 
	510.9,347.6 "/>
<line class="st3" x1="477.2" y1="331.5" x2="505.7" y2="308.8"/>
<polygon class="st4" points="494.6,317.3 494.5,317.2 494.4,317 494.3,316.9 494.1,316.8 494,316.7 493.8,316.6 493.7,316.5 
	493.6,316.4 493.4,316.4 493.3,316.3 493.2,316.3 493,316.2 492.9,316.2 492.7,316.2 492.6,316.2 492.4,316.2 492.2,316.2 
	492,316.3 491.9,316.3 491.7,316.3 491.6,316.4 491.4,316.5 491.3,316.5 491.2,316.6 491.1,316.7 490.9,316.8 490.8,316.9 
	490.7,317.2 490.6,317.3 490.5,317.4 490.5,317.5 490.3,317.7 490.2,317.8 490.2,318 490.1,318.1 490.1,318.3 490.1,318.5 
	490,318.6 490,318.8 490,318.9 490,319.2 490.1,319.4 490.1,319.5 490.1,319.7 490.2,319.8 490.2,320 490.3,320.1 490.5,320.3 
	490.6,320.4 490.6,320.5 490.7,320.6 490.8,320.8 491,321 491.1,321.1 491.2,321.2 491.3,321.2 491.5,321.3 491.6,321.4 
	491.7,321.4 491.9,321.5 492,321.5 492.2,321.6 492.4,321.6 492.6,321.6 492.7,321.6 492.9,321.6 493,321.5 493.2,321.5 
	493.3,321.5 493.5,321.4 493.6,321.3 493.7,321.3 493.9,321.2 494,321.1 494.1,321 494.3,320.8 494.4,320.7 494.5,320.6 
	494.6,320.4 494.7,320.3 494.8,320.2 494.8,320 494.9,319.9 495,319.7 495,319.6 495,319.4 495.1,319.3 495.1,319.1 495.1,318.8 
	495.1,318.7 495.1,318.5 495,318.3 495,318.2 495,318 494.9,317.9 494.8,317.7 494.8,317.6 494.7,317.5 "/>
<g transform="translate(460.750,474.008)">
	<g transform="rotate(-0.0)">
		<text transform="matrix(0.9327 0 0 1 19.2754 -136.0324)" class="st0 st1 st2">A</text>
	</g>
</g>
<g transform="translate(443.171,474.008)">
	<g transform="rotate(-0.0)">
		<text transform="matrix(0.9327 0 0 1 23.9872 -136.0324)" class="st0 st1 st2">C</text>
	</g>
</g>
<g transform="translate(425.592,474.008)">
	<g transform="rotate(-0.0)">
		<text transform="matrix(0.9327 0 0 1 28.6951 -136.0324)" class="st0 st1 st2">G</text>
	</g>
</g>
<g transform="translate(408.014,474.008)">
	<g transform="rotate(-0.0)">
		<text transform="matrix(0.9327 0 0 1 33.7614 -136.0324)" class="st0 st1 st2">G</text>
	</g>
</g>
<g transform="translate(390.435,474.008)">
	<g transform="rotate(-0.0)">
		<text transform="matrix(0.9327 0 0 1 39.5054 -136.0736)" class="st0 st1 st2">G</text>
	</g>
</g>
<g transform="translate(372.856,474.008)">
	<g transform="rotate(-0.0)">
		<text transform="matrix(0.9327 0 0 1 44.2495 -136.0324)" class="st0 st1 st2">U</text>
	</g>
</g>
<g transform="translate(355.278,474.008)">
	<g transform="rotate(-0.0)">
		<text transform="matrix(0.9327 0 0 1 49.3157 -136.0324)" class="st0 st1 st2">C</text>
	</g>
</g>
<line class="st3" x1="409.3" y1="323" x2="409.3" y2="314.1"/>
<g transform="translate(355.278,438.265)">
	<g transform="rotate(-0.0)">
		<text transform="matrix(0.9327 0 0 1 46.8157 -127.5658)" class="st1 st2">30</text>
	</g>
</g>
<g transform="translate(337.699,509.166)">
	<g transform="rotate(-0.0)">
		<text transform="matrix(0.9327 0 0 1 54.3811 -144.3584)" class="st0 st1 st2">U</text>
	</g>
</g>
<g transform="translate(355.278,509.166)">
	<g transform="rotate(-0.0)">
		<text transform="matrix(0.9327 0 0 1 48.9583 -144.3584)" class="st0 st1 st2">G</text>
	</g>
</g>
<g transform="translate(372.856,509.166)">
	<g transform="rotate(-0.0)">
		<text transform="matrix(0.9327 0 0 1 44.603 -144.3584)" class="st0 st1 st2">A</text>
	</g>
</g>
<g transform="translate(390.435,509.166)">
	<g transform="rotate(-0.0)">
		<text transform="matrix(0.9327 0 0 1 38.8267 -144.3584)" class="st0 st1 st2">G</text>
	</g>
</g>
<g transform="translate(408.014,509.166)">
	<g transform="rotate(-0.0)">
		<text transform="matrix(0.9327 0 0 1 34.1188 -144.3584)" class="st0 st1 st2">U</text>
	</g>
</g>
<g transform="translate(425.592,509.166)">
	<g transform="rotate(-0.0)">
		<text transform="matrix(0.9327 0 0 1 29.406 -144.3584)" class="st0 st1 st2">A</text>
	</g>
</g>
<g transform="translate(443.171,509.166)">
	<g transform="rotate(-0.0)">
		<text transform="matrix(0.9327 0 0 1 23.6298 -144.3584)" class="st0 st1 st2">G</text>
	</g>
</g>
<g transform="translate(460.750,509.166)">
	<g transform="rotate(-0.0)">
		<text transform="matrix(0.9327 0 0 1 19.2754 -144.3584)" class="st0 st1 st2">A</text>
	</g>
</g>
<g transform="translate(478.328,509.166)">
	<g transform="rotate(-0.0)">
		<text transform="matrix(0.9327 0 0 1 13.5001 -144.3584)" class="st0 st1 st2">G</text>
	</g>
</g>
<g transform="translate(495.907,509.166)">
	<g transform="rotate(-0.0)">
		<text transform="matrix(0.9327 0 0 1 8.7903 -144.3584)" class="st0 st1 st2">U</text>
	</g>
</g>
<line class="st3" x1="509.4" y1="367.7" x2="509.4" y2="376.7"/>
<g transform="translate(495.907,545.436)">
	<g transform="rotate(-0.0)">
		<text transform="matrix(0.9327 0 0 1 6.2903 -152.9477)" class="st1 st2">60</text>
	</g>
</g>
<line class="st3" x1="468.3" y1="335.7" x2="450.3" y2="354.9"/>
<polygon class="st5" points="461.5,339.1 458,342.9 461.5,346.7 465.1,342.9 "/>
<polygon class="st5" points="455.2,349.7 455.3,349.9 455.4,350 455.6,350.1 455.7,350.1 455.8,350.2 456,350.3 456.1,350.3 
	456.2,350.4 456.5,350.4 456.6,350.5 456.8,350.5 456.9,350.5 457.1,350.5 457.2,350.5 457.4,350.5 457.5,350.4 457.7,350.4 
	457.8,350.3 458,350.3 458.1,350.2 458.3,350.1 458.4,350 458.6,349.9 458.7,349.8 458.8,349.7 458.9,349.6 459,349.5 459.1,349.2 
	459.1,349.1 459.2,349 459.3,348.8 459.3,348.7 459.4,348.5 459.4,348.4 459.4,348.2 459.5,348 459.5,347.9 459.5,347.7 
	459.4,347.5 459.4,347.3 459.4,347.1 459.3,347 459.3,346.8 459.2,346.7 459.2,346.5 459.1,346.4 459,346.3 458.9,346.1 458.8,346 
	458.7,345.9 458.6,345.8 458.5,345.7 458.4,345.6 458.1,345.4 458,345.3 457.9,345.3 457.7,345.2 457.6,345.2 457.4,345.2 
	457.3,345.1 457.1,345.1 457,345.1 456.8,345.1 456.7,345.1 456.5,345.2 456.4,345.2 456.1,345.2 456,345.3 455.9,345.4 
	455.7,345.4 455.6,345.6 455.5,345.7 455.3,345.8 455.2,345.9 455.1,346 455,346.2 454.9,346.3 454.9,346.4 454.8,346.6 
	454.7,346.7 454.7,346.9 454.6,347 454.6,347.2 454.5,347.3 454.5,347.6 454.5,347.7 454.5,347.9 454.5,348.1 454.5,348.2 
	454.6,348.4 454.6,348.5 454.7,348.7 454.7,348.9 454.8,349 454.8,349.1 454.9,349.4 455,349.5 455.1,349.6 "/>
<line class="st3" x1="450.2" y1="337.9" x2="493.6" y2="354.8"/>
<polygon class="st4" points="474.7,346.6 474.7,346.7 474.6,346.9 474.6,347.1 474.5,347.2 474.5,347.4 474.5,347.5 474.5,347.8 
	474.5,347.9 474.5,348.1 474.5,348.3 474.6,348.4 474.6,348.6 474.6,348.7 474.7,348.9 474.8,349 474.8,349.2 474.9,349.3 
	475,349.4 475.1,349.7 475.2,349.8 475.3,349.9 475.5,350 475.6,350.1 475.7,350.2 475.9,350.2 476.1,350.3 476.2,350.3 
	476.4,350.4 476.5,350.4 476.7,350.5 476.8,350.5 477,350.5 477.1,350.5 477.3,350.5 477.4,350.4 477.5,350.4 477.8,350.4 
	477.9,350.3 478.1,350.2 478.2,350.2 478.3,350.1 478.5,350 478.6,349.9 478.7,349.8 478.8,349.7 478.9,349.4 479,349.3 
	479.1,349.2 479.1,349 479.2,348.9 479.3,348.8 479.3,348.6 479.4,348.4 479.4,348.3 479.4,348.1 479.4,348 479.4,347.8 
	479.4,347.5 479.4,347.4 479.4,347.2 479.3,347.1 479.3,346.9 479.3,346.8 479.2,346.6 479.1,346.5 479,346.3 479,346.2 
	478.9,346.1 478.8,346 478.6,345.8 478.5,345.6 478.4,345.5 478.3,345.5 478.2,345.4 478,345.3 477.9,345.3 477.6,345.2 
	477.5,345.2 477.3,345.1 477.2,345.1 477,345.1 476.9,345.1 476.7,345.1 476.6,345.1 476.4,345.2 476.3,345.2 476.2,345.2 
	476,345.3 475.9,345.4 475.7,345.5 475.5,345.5 475.4,345.6 475.3,345.8 475.2,345.9 475.1,346.1 475,346.2 474.9,346.3 
	474.8,346.5 "/>
<polygon class="st4" points="487.8,348.9 483,347.1 481.4,352.2 486.2,353.9 "/>
<line class="st3" x1="421.7" y1="338.1" x2="421.7" y2="353.4"/>
<line class="st3" x1="425.7" y1="336.4" x2="481.2" y2="356.3"/>
<polygon class="st4" points="441.4,341.8 444.8,346.7 447,341 "/>
<polygon class="st4" points="452.6,346.4 452.8,346.1 452.8,345.9 452.8,345.8 452.8,345.6 452.8,345.4 452.8,345.2 452.8,345.1 
	452.8,344.9 452.8,344.9 452.8,344.6 452.8,344.4 452.6,344.4 452.5,344 452.5,343.9 452.3,343.9 452.2,343.6 452.1,343.5 
	452,343.4 452,343.4 451.8,343.2 451.8,343.1 451.6,343 451.5,342.9 451.3,342.9 451.1,342.9 451,342.8 451,342.8 450.8,342.6 
	450.6,342.6 450.3,342.6 450.2,342.6 450,342.6 450,342.6 449.8,342.8 449.6,342.8 449.5,342.8 449.3,342.9 449.1,342.9 449,342.9 
	449,343 448.8,343.1 448.5,343.2 448.5,343.4 448.3,343.4 448.2,343.6 448.1,343.8 448.1,343.9 448,344 448,344.2 448,344.4 
	447.8,344.5 447.8,344.8 447.8,344.9 447.8,345 447.8,345.2 447.8,345.4 447.8,345.5 447.8,345.6 447.8,345.9 447.8,346.1 
	448,346.2 448,346.4 448,346.5 448.1,346.6 448.1,346.9 448.2,346.9 448.3,347 448.5,347.2 448.5,347.4 448.8,347.4 449,347.5 
	449,347.5 449.1,347.6 449.3,347.8 449.5,347.8 449.6,347.9 449.8,347.9 450,348 450,348 450.2,348 450.3,348 450.6,348 
	450.8,347.9 451,347.9 451,347.9 451.1,347.8 451.3,347.8 451.5,347.6 451.6,347.5 451.8,347.4 451.8,347.4 452,347.2 452,347.1 
	452.1,347 452.2,346.9 452.3,346.8 452.5,346.6 452.5,346.4 "/>
<line class="st6" x1="404.2" y1="331.9" x2="376.6" y2="331.9"/>
<polygon class="st4" points="395,334.3 393.6,333.1 392.1,332.7 390.7,332.5 387.8,331.9 390.7,331.4 392.1,331.1 393.6,330.8 
	395,329.6 "/>
<line class="st3" x1="409.3" y1="338.1" x2="409.3" y2="353.4"/>
<g transform="translate(302.542,474.008)">
	<g transform="rotate(-0.0)">
		<text transform="matrix(0.9327 0 0 1 64.5127 -136.0324)" class="st0 st1 st2">C</text>
	</g>
</g>
<g transform="translate(284.963,474.008)">
	<g transform="rotate(-0.0)">
		<text transform="matrix(0.9327 0 0 1 69.9315 -136.0324)" class="st0 st1 st2">A</text>
	</g>
</g>
<g transform="translate(267.385,474.008)">
	<g transform="rotate(-0.0)">
		<text transform="matrix(0.9327 0 0 1 74.2869 -136.0324)" class="st0 st1 st2">G</text>
	</g>
</g>
<g transform="translate(249.806,474.008)">
	<g transform="rotate(-0.0)">
		<text transform="matrix(0.9327 0 0 1 79.7106 -136.0324)" class="st0 st1 st2">U</text>
	</g>
</g>
<g transform="translate(232.228,474.008)">
	<g transform="rotate(-0.0)">
		<text transform="matrix(0.9327 0 0 1 84.4195 -136.0324)" class="st0 st1 st2">G</text>
	</g>
</g>
<g transform="translate(214.649,474.008)">
	<g transform="rotate(-0.0)">
		<text transform="matrix(0.9327 0 0 1 89.8412 -136.0324)" class="st0 st1 st2">C</text>
	</g>
</g>
<g transform="translate(197.070,474.008)">
	<g transform="rotate(-0.0)">
		<text transform="matrix(0.9327 0 0 1 94.5501 -136.0324)" class="st7 st1 st2">G</text>
	</g>
</g>
<g transform="translate(179.492,474.008)">
	<g transform="rotate(-0.0)">
		<text transform="matrix(0.9327 0 0 1 100.3264 -136.0324)" class="st7 st1 st2">A</text>
	</g>
</g>
<g transform="translate(161.913,474.008)">
	<g transform="rotate(-0.0)">
		<text transform="matrix(0.9327 0 0 1 104.6817 -136.0324)" class="st7 st1 st2">G</text>
	</g>
</g>
<g transform="translate(144.334,474.008)">
	<g transform="rotate(-0.0)">
		<text transform="matrix(0.9327 0 0 1 111.834 -122.8605)" class="st7 st1 st2">A</text>
	</g>
</g>
<line class="st3" x1="259" y1="337" x2="259" y2="328.1"/>
<g transform="translate(144.334,438.265)">
	<g transform="rotate(-0.0)">
		<text transform="matrix(0.9327 0 0 1 107.7598 -114.5365)" class="st1 st2">40</text>
	</g>
</g>
<g transform="translate(161.913,509.166)">
	<g transform="rotate(-0.0)">
		<text transform="matrix(0.9327 0 0 1 105.0392 -144.3584)" class="st7 st1 st2">C</text>
	</g>
</g>
<g transform="translate(179.492,509.166)">
	<g transform="rotate(-0.0)">
		<text transform="matrix(0.9327 0 0 1 99.9719 -144.3584)" class="st7 st1 st2">C</text>
	</g>
</g>
<g transform="translate(197.070,509.166)">
	<g transform="rotate(-0.0)">
		<text transform="matrix(0.9327 0 0 1 94.9066 -144.3584)" class="st7 st1 st2">C</text>
	</g>
</g>
<g transform="translate(214.649,509.166)">
	<g transform="rotate(-0.0)">
		<text transform="matrix(0.9327 0 0 1 89.4858 -144.3584)" class="st0 st1 st2">G</text>
	</g>
</g>
<g transform="translate(232.228,509.166)">
	<g transform="rotate(-0.0)">
		<text transform="matrix(0.9327 0 0 1 84.7749 -144.3584)" class="st0 st1 st2">C</text>
	</g>
</g>
<g transform="translate(249.806,509.166)">
	<g transform="rotate(-0.0)">
		<text transform="matrix(0.9327 0 0 1 80.0631 -144.3584)" class="st0 st1 st2">A</text>
	</g>
</g>
<g transform="translate(267.385,509.166)">
	<g transform="rotate(-0.0)">
		<text transform="matrix(0.9327 0 0 1 74.6423 -144.3584)" class="st0 st1 st2">C</text>
	</g>
</g>
<g transform="translate(284.963,509.166)">
	<g transform="rotate(-0.0)">
		<text transform="matrix(0.9327 0 0 1 69.578 -144.3584)" class="st0 st1 st2">U</text>
	</g>
</g>
<g transform="translate(302.542,509.166)">
	<g transform="rotate(-0.0)">
		<text transform="matrix(0.9327 0 0 1 64.1553 -144.3584)" class="st0 st1 st2">G</text>
	</g>
</g>
<g transform="translate(320.121,509.166)">
	<g transform="rotate(-0.0)">
		<text transform="matrix(0.9327 0 0 1 59.4474 -144.3584)" class="st0 st1 st2">U</text>
	</g>
</g>
<line class="st3" x1="384.2" y1="367.7" x2="384.2" y2="376.7"/>
<g transform="translate(320.121,545.436)">
	<g transform="rotate(-0.0)">
		<text transform="matrix(0.9327 0 0 1 56.9474 -152.9477)" class="st1 st2">50</text>
	</g>
</g>
<line class="st3" x1="371.7" y1="338.1" x2="371.7" y2="353.4"/>
<line class="st3" x1="359.2" y1="337.3" x2="359.2" y2="353.4"/>
<line class="st3" x1="346.7" y1="337.3" x2="346.7" y2="353.4"/>
<line class="st3" x1="334.1" y1="337.3" x2="334.1" y2="353.4"/>
<line class="st3" x1="321.6" y1="337.3" x2="321.6" y2="353.4"/>
<line class="st3" x1="309.1" y1="337.3" x2="309.1" y2="353.4"/>
<line class="st3" x1="296.6" y1="337.3" x2="296.6" y2="353.4"/>
<line class="st3" x1="273.8" y1="336.8" x2="281.8" y2="354"/>
<polygon class="st5" points="275,339.1 274.5,345.1 279.6,342.5 "/>
<polygon class="st5" points="280.5,350.8 280.6,350.8 280.7,350.7 280.8,350.6 280.9,350.5 281.1,350.4 281.2,350.3 281.3,350.1 
	281.3,350 281.4,349.9 281.5,349.7 281.6,349.6 281.6,349.4 281.7,349.2 281.7,349 281.7,348.9 281.8,348.7 281.8,348.5 
	281.8,348.4 281.7,348.2 281.7,348.1 281.7,347.9 281.7,347.7 281.6,347.6 281.6,347.3 281.5,347.2 281.4,347.1 281.3,346.9 
	281.2,346.8 281.2,346.7 281,346.6 280.9,346.4 280.8,346.3 280.7,346.2 280.6,346.2 280.4,346.1 280.2,346 280.1,346 279.9,345.9 
	279.8,345.9 279.6,345.9 279.5,345.8 279.3,345.8 279.2,345.8 279,345.8 278.9,345.9 278.7,345.9 278.6,345.9 278.3,346 
	278.2,346.1 278.1,346.1 277.9,346.2 277.8,346.3 277.7,346.4 277.6,346.5 277.5,346.6 277.4,346.7 277.3,346.9 277.2,347 
	277.1,347.1 277,347.3 277,347.5 276.9,347.7 276.9,347.8 276.9,348 276.8,348.2 276.8,348.3 276.8,348.5 276.8,348.6 276.8,348.8 
	276.9,349 276.9,349.1 276.9,349.4 277,349.5 277.1,349.7 277.1,349.8 277.2,350 277.3,350.1 277.4,350.2 277.5,350.3 277.6,350.4 
	277.7,350.5 277.8,350.6 277.9,350.7 278.1,350.8 278.2,350.9 278.5,350.9 278.6,351 278.7,351 278.9,351.1 279,351.1 279.2,351.1 
	279.3,351.1 279.5,351.1 279.6,351.1 279.8,351.1 279.9,351 280.1,351 280.2,350.9 "/>
<line class="st6" x1="484.1" y1="159.5" x2="483.5" y2="176.7"/>
<polygon class="st4" points="486.3,165 485.1,166.1 484.8,167.2 484.5,168.4 483.8,170.8 483.4,168.4 483.3,167.2 483,166 
	481.9,164.8 "/>
<text transform="matrix(1 0 0 1 22.945 43.2)" class="st1 st8">Spinach RNA aptamer</text>
<text transform="matrix(1 0 0 1 461.5777 20.0589)" class="st1 st9">5’</text>
<text transform="matrix(1 0 0 1 524.9769 20.059)" class="st1 st9">3’</text>
</svg>
