<svg id="图层_1" data-name="图层 1" xmlns="http://www.w3.org/2000/svg" viewBox="0 0 800 400">
  <defs>
    <style>
      .cls-1 {
        fill: #ff0;
      }

      .cls-10, .cls-11, .cls-12, .cls-13, .cls-14, .cls-15, .cls-17, .cls-18, .cls-2, .cls-3, .cls-5, .cls-6, .cls-7, .cls-8, .cls-9 {
        isolation: isolate;
        font-size: 12.31px;
      }

      .cls-10, .cls-2, .cls-3 {
        fill: #cc0;
      }

      .cls-10, .cls-11, .cls-12, .cls-13, .cls-14, .cls-15, .cls-17, .cls-18, .cls-2, .cls-21, .cls-23, .cls-3, .cls-5, .cls-6, .cls-7, .cls-8, .cls-9 {
        font-family: ArialMT, Arial;
      }

      .cls-12, .cls-14, .cls-3, .cls-6 {
        letter-spacing: -0.06em;
      }

      .cls-19, .cls-4 {
        fill: none;
      }

      .cls-16, .cls-19, .cls-20, .cls-4 {
        stroke: #000;
        stroke-miterlimit: 1.11;
      }

      .cls-16, .cls-20, .cls-4 {
        stroke-width: 0.14px;
      }

      .cls-6, .cls-7 {
        fill: #f9c;
      }

      .cls-8, .cls-9 {
        fill: #33f;
      }

      .cls-10, .cls-15, .cls-18, .cls-8 {
        letter-spacing: -0.06em;
      }

      .cls-11, .cls-12 {
        fill: #3c6;
      }

      .cls-13, .cls-14, .cls-15 {
        fill: #f63;
      }

      .cls-17, .cls-18 {
        fill: #3f9;
      }

      .cls-19 {
        stroke-width: 0.94px;
      }

      .cls-20 {
        fill: #fff;
      }

      .cls-21 {
        font-size: 10.24px;
      }

      .cls-22 {
        letter-spacing: -0.02em;
      }

      .cls-23 {
        font-size: 20px;
      }

      .cls-24 {
        letter-spacing: -0.06em;
      }
    </style>
  </defs>
  <rect class="cls-1" x="396.98" y="217.83" width="46.99" height="16.98" transform="translate(-0.48 0.9) rotate(-0.12)"/>
  <text class="cls-2" transform="translate(395.72 378.73)">G</text>
  <text class="cls-2" transform="translate(395.72 366.25)">G</text>
  <text class="cls-3" transform="translate(396.4 353.77)">A</text>
  <text class="cls-3" transform="translate(396.4 341.3)">A</text>
  <text class="cls-2" transform="translate(395.72 328.81)">G</text>
  <text class="cls-3" transform="translate(396.4 316.33)">A</text>
  <text class="cls-2" transform="translate(396.06 303.86)">U</text>
  <text class="cls-3" transform="translate(396.4 291.38)">A</text>
  <text class="cls-2" transform="translate(396.06 278.9)">C</text>
  <line class="cls-4" x1="393.71" y1="277.63" x2="387.83" y2="283.51"/>
  <text class="cls-5" transform="translate(374.13 298.24)">10</text>
  <text class="cls-6" transform="translate(396.4 266.42)">A</text>
  <text class="cls-6" transform="translate(396.4 250.82)">A</text>
  <text class="cls-7" transform="translate(386.36 235.22)">G</text>
  <text class="cls-7" transform="translate(375.46 223.53)">G</text>
  <text class="cls-8" transform="translate(449.44 228.98)">A</text>
  <line class="cls-4" x1="460.62" y1="225.82" x2="468.94" y2="225.82"/>
  <text class="cls-5" transform="translate(468.94 231.44)">70</text>
  <text class="cls-9" transform="translate(448.76 244.58)">G</text>
  <text class="cls-9" transform="translate(421.02 250.82)">C</text>
  <text class="cls-9" transform="translate(420.68 266.42)">G</text>
  <text class="cls-2" transform="translate(420.68 278.9)">G</text>
  <text class="cls-2" transform="translate(421.02 291.38)">U</text>
  <text class="cls-10" transform="translate(421.36 303.86)">A</text>
  <text class="cls-2" transform="translate(421.02 316.33)">U</text>
  <text class="cls-2" transform="translate(421.02 328.81)">C</text>
  <text class="cls-2" transform="translate(421.02 341.3)">U</text>
  <text class="cls-2" transform="translate(421.02 353.77)">U</text>
  <line class="cls-4" x1="434.79" y1="348.16" x2="443.11" y2="348.16"/>
  <text class="cls-5" transform="translate(443.1 353.77)">80</text>
  <text class="cls-2" transform="translate(421.02 366.25)">C</text>
  <text class="cls-2" transform="translate(421.02 378.73)">C</text>
  <text class="cls-2" transform="translate(421.02 391.21)">C</text>
  <line class="cls-4" x1="405.5" y1="373.12" x2="420.48" y2="373.12"/>
  <line class="cls-4" x1="405.5" y1="360.64" x2="420.48" y2="360.64"/>
  <line class="cls-4" x1="405.5" y1="348.16" x2="420.48" y2="348.16"/>
  <line class="cls-4" x1="405.5" y1="335.68" x2="420.48" y2="335.68"/>
  <line class="cls-4" x1="405.5" y1="323.2" x2="420.48" y2="323.2"/>
  <line class="cls-4" x1="405.5" y1="310.72" x2="420.48" y2="310.72"/>
  <line class="cls-4" x1="405.5" y1="298.24" x2="420.48" y2="298.24"/>
  <line class="cls-4" x1="405.5" y1="285.76" x2="420.48" y2="285.76"/>
  <line class="cls-4" x1="405.5" y1="273.28" x2="420.48" y2="273.28"/>
  <text class="cls-7" transform="translate(371.1 191.54)">U</text>
  <text class="cls-7" transform="translate(370.76 175.94)">G</text>
  <text class="cls-6" transform="translate(371.44 163.46)">A</text>
  <text class="cls-11" transform="translate(373.88 150.98)">G</text>
  <text class="cls-11" transform="translate(374.22 138.5)">C</text>
  <text class="cls-11" transform="translate(374.22 126.02)">C</text>
  <line class="cls-4" x1="370.35" y1="120.41" x2="362.03" y2="120.41"/>
  <text class="cls-5" transform="translate(348.33 126.02)">20</text>
  <text class="cls-11" transform="translate(374.22 113.55)">C</text>
  <text class="cls-12" transform="translate(374.56 101.07)">A</text>
  <text class="cls-12" transform="translate(374.56 88.59)">A</text>
  <text class="cls-11" transform="translate(371.1 76.11)">U</text>
  <text class="cls-12" transform="translate(371.44 63.63)">A</text>
  <text class="cls-12" transform="translate(371.44 51.15)">A</text>
  <text class="cls-11" transform="translate(399.18 76.11)">U</text>
  <text class="cls-11" transform="translate(399.18 88.59)">U</text>
  <text class="cls-11" transform="translate(399.18 101.07)">U</text>
  <text class="cls-11" transform="translate(398.84 113.55)">G</text>
  <text class="cls-11" transform="translate(398.84 126.02)">G</text>
  <text class="cls-11" transform="translate(398.84 138.5)">G</text>
  <text class="cls-11" transform="translate(399.18 150.98)">U</text>
  <text class="cls-13" transform="translate(399.18 163.46)">U</text>
  <text class="cls-14" transform="translate(399.52 179.06)">A</text>
  <text class="cls-13" transform="translate(398.84 191.54)">G</text>
  <text class="cls-13" transform="translate(401.96 204.02)">G</text>
  <text class="cls-14" transform="translate(408.88 216.5)">A</text>
  <text class="cls-13" transform="translate(421.02 216.5)">U</text>
  <text class="cls-15" transform="translate(424.48 204.02)">A</text>
  <polygon class="cls-16" points="393.64 145.37 393.64 145.21 393.62 145.05 393.6 144.9 393.56 144.74 393.52 144.59 393.46 144.44 393.4 144.29 393.33 144.15 393.25 144.02 393.16 143.89 393.06 143.76 392.95 143.65 392.84 143.53 392.72 143.43 392.6 143.33 392.46 143.25 392.33 143.17 392.19 143.1 392.04 143.04 391.89 142.98 391.74 142.94 391.58 142.91 391.43 142.89 391.27 142.88 391.11 142.87 390.95 142.88 390.79 142.9 390.64 142.93 390.48 142.96 390.33 143.01 390.18 143.06 390.04 143.13 389.9 143.21 389.77 143.29 389.64 143.38 389.51 143.48 389.4 143.59 389.29 143.7 389.19 143.82 389.09 143.95 389.01 144.09 388.93 144.22 388.86 144.37 388.8 144.51 388.75 144.66 388.71 144.82 388.68 144.97 388.66 145.13 388.65 145.29 388.65 145.45 388.66 145.6 388.68 145.76 388.71 145.92 388.75 146.07 388.8 146.22 388.86 146.37 388.93 146.51 389.01 146.65 389.09 146.78 389.19 146.91 389.29 147.03 389.4 147.15 389.51 147.25 389.64 147.35 389.77 147.45 389.9 147.53 390.04 147.6 390.18 147.67 390.33 147.73 390.48 147.77 390.64 147.81 390.79 147.84 390.95 147.86 391.11 147.86 391.27 147.86 391.43 147.85 391.58 147.83 391.74 147.79 391.89 147.75 392.04 147.7 392.19 147.64 392.33 147.57 392.46 147.49 392.6 147.4 392.72 147.31 392.84 147.2 392.95 147.09 393.06 146.97 393.16 146.85 393.25 146.72 393.33 146.58 393.4 146.44 393.46 146.29 393.52 146.15 393.56 145.99 393.6 145.84 393.62 145.68 393.64 145.53 393.64 145.37"/>
  <line class="cls-4" x1="383.66" y1="132.89" x2="398.64" y2="132.89"/>
  <line class="cls-4" x1="383.66" y1="120.41" x2="398.64" y2="120.41"/>
  <line class="cls-4" x1="383.66" y1="107.93" x2="398.64" y2="107.93"/>
  <line class="cls-4" x1="383.66" y1="95.45" x2="398.64" y2="95.45"/>
  <line class="cls-4" x1="383.66" y1="82.97" x2="398.64" y2="82.97"/>
  <text class="cls-11" transform="translate(371.1 38.67)">U</text>
  <text class="cls-12" transform="translate(383.92 29.31)">A</text>
  <text class="cls-11" transform="translate(399.18 38.67)">U</text>
  <text class="cls-11" transform="translate(398.84 51.15)">G</text>
  <line class="cls-4" x1="395.31" y1="45.53" x2="386.99" y2="45.53"/>
  <text class="cls-11" transform="translate(398.84 63.63)">G</text>
  <text class="cls-17" transform="translate(424.14 63.63)">C</text>
  <text class="cls-17" transform="translate(424.14 51.15)">C</text>
  <text class="cls-17" transform="translate(424.14 38.67)">U</text>
  <text class="cls-17" transform="translate(442.86 32.43)">U</text>
  <text class="cls-18" transform="translate(452.56 38.67)">A</text>
  <line class="cls-4" x1="464.99" y1="33.05" x2="473.3" y2="33.05"/>
  <text class="cls-5" transform="translate(473.3 38.67)">60</text>
  <line class="cls-4" x1="408.62" y1="45.53" x2="423.6" y2="45.53"/>
  <line class="cls-4" x1="408.62" y1="58.01" x2="423.6" y2="58.01"/>
  <text class="cls-13" transform="translate(426.92 191.54)">G</text>
  <text class="cls-13" transform="translate(426.92 179.06)">G</text>
  <text class="cls-15" transform="translate(427.6 166.58)">A</text>
  <text class="cls-15" transform="translate(427.6 154.1)">A</text>
  <text class="cls-17" transform="translate(423.8 141.62)">G</text>
  <text class="cls-17" transform="translate(424.14 129.14)">U</text>
  <text class="cls-18" transform="translate(424.48 116.67)">A</text>
  <text class="cls-17" transform="translate(423.8 104.19)">G</text>
  <text class="cls-18" transform="translate(424.48 91.71)">A</text>
  <text class="cls-17" transform="translate(423.8 79.23)">G</text>
  <text class="cls-18" transform="translate(455.68 54.27)">A</text>
  <text class="cls-18" transform="translate(449.44 66.75)">A</text>
  <text class="cls-17" transform="translate(449.1 79.23)">C</text>
  <text class="cls-17" transform="translate(449.1 91.71)">U</text>
  <text class="cls-17" transform="translate(449.1 104.19)">C</text>
  <text class="cls-17" transform="translate(449.1 116.67)">U</text>
  <text class="cls-17" transform="translate(449.1 129.14)">C</text>
  <text class="cls-9" transform="translate(449.1 141.62)">U</text>
  <text class="cls-8" transform="translate(449.44 213.38)">A</text>
  <line class="cls-4" x1="433.58" y1="111.05" x2="448.55" y2="111.05"/>
  <line class="cls-4" x1="433.58" y1="98.57" x2="448.55" y2="98.57"/>
  <line class="cls-4" x1="433.58" y1="86.09" x2="448.55" y2="86.09"/>
  <line class="cls-4" x1="433.58" y1="73.61" x2="448.55" y2="73.61"/>
  <line class="cls-19" x1="453.55" y1="141" x2="453.55" y2="202.77"/>
  <polygon class="cls-16" points="457.29 167.73 455.42 169.81 454.79 171.89 454.48 173.97 453.55 178.13 452.61 173.97 452.3 171.89 451.67 169.81 449.8 167.73 457.29 167.73"/>
  <line class="cls-19" x1="378.17" y1="212.16" x2="376.05" y2="190.89"/>
  <polygon class="cls-16" points="374.48 205.55 375.68 203.84 375.98 202.24 376.05 200.65 376.43 197.46 377.4 200.51 377.77 202.05 378.37 203.56 379.86 204.98 374.48 205.55"/>
  <line class="cls-4" x1="431.27" y1="178.42" x2="429.48" y2="239.81"/>
  <polygon class="cls-16" points="429.87 211.81 430.02 211.82 430.18 211.82 430.34 211.81 430.5 211.79 430.65 211.75 430.81 211.71 430.96 211.66 431.1 211.6 431.25 211.53 431.38 211.46 431.51 211.37 431.64 211.27 431.76 211.17 431.88 211.06 431.98 210.94 432.08 210.82 432.17 210.69 432.25 210.55 432.33 210.41 432.39 210.27 432.45 210.12 432.49 209.97 432.53 209.81 432.56 209.66 432.57 209.5 432.58 209.34 432.57 209.19 432.56 209.03 432.54 208.87 432.5 208.72 432.46 208.56 432.41 208.41 432.34 208.27 432.27 208.13 432.19 207.99 432.1 207.86 432.01 207.74 431.9 207.62 431.79 207.5 431.67 207.4 431.55 207.3 431.41 207.21 431.28 207.13 431.14 207.06 430.99 207 430.84 206.95 430.69 206.9 430.53 206.87 430.38 206.85 430.22 206.83 430.06 206.83 429.9 206.84 429.75 206.85 429.59 206.88 429.44 206.91 429.28 206.96 429.13 207.02 428.99 207.08 428.85 207.15 428.71 207.24 428.59 207.33 428.46 207.43 428.35 207.53 428.24 207.65 428.13 207.77 428.04 207.89 427.95 208.03 427.87 208.16 427.8 208.31 427.74 208.45 427.69 208.6 427.65 208.76 427.62 208.91 427.6 209.07 427.59 209.23 427.59 209.39 427.6 209.54 427.62 209.7 427.64 209.86 427.68 210.01 427.73 210.16 427.79 210.31 427.86 210.45 427.93 210.59 428.02 210.72 428.11 210.85 428.21 210.97 428.32 211.09 428.43 211.2 428.56 211.3 428.69 211.39 428.82 211.48 428.96 211.55 429.1 211.62 429.25 211.68 429.4 211.73 429.55 211.76 429.71 211.79 429.87 211.81"/>
  <line class="cls-4" x1="433.05" y1="133.78" x2="449.08" y2="125.76"/>
  <polygon class="cls-16" points="443.3 128.65 443.22 128.51 443.14 128.38 443.05 128.25 442.95 128.13 442.84 128.01 442.72 127.9 442.6 127.8 442.48 127.71 442.34 127.62 442.2 127.55 442.06 127.48 441.91 127.42 441.76 127.37 441.61 127.33 441.45 127.3 441.3 127.28 441.14 127.27 440.98 127.27 440.82 127.28 440.66 127.31 440.51 127.34 440.36 127.38 440.2 127.43 440.06 127.48 439.92 127.55 439.78 127.63 439.64 127.72 439.52 127.81 439.39 127.91 439.28 128.02 439.17 128.14 439.07 128.26 438.98 128.39 438.9 128.53 438.83 128.67 438.76 128.81 438.7 128.96 438.66 129.11 438.62 129.27 438.59 129.42 438.58 129.58 438.57 129.74 438.57 129.9 438.59 130.05 438.61 130.21 438.64 130.37 438.69 130.52 438.74 130.67 438.8 130.81 438.87 130.96 438.95 131.09 439.04 131.22 439.13 131.35 439.24 131.47 439.35 131.58 439.47 131.69 439.59 131.78 439.72 131.87 439.86 131.95 440 132.03 440.15 132.09 440.3 132.14 440.45 132.19 440.6 132.22 440.76 132.25 440.92 132.26 441.07 132.26 441.23 132.26 441.39 132.24 441.55 132.22 441.7 132.18 441.85 132.14 442 132.08 442.15 132.02 442.29 131.94 442.42 131.86 442.55 131.77 442.68 131.68 442.8 131.57 442.91 131.46 443.01 131.34 443.1 131.21 443.19 131.08 443.27 130.94 443.34 130.8 443.4 130.65 443.45 130.5 443.49 130.35 443.53 130.19 443.55 130.04 443.56 129.88 443.56 129.72 443.55 129.56 443.54 129.4 443.51 129.25 443.47 129.09 443.42 128.94 443.37 128.8 443.3 128.65"/>
  <line class="cls-4" x1="380.36" y1="187.27" x2="450.07" y2="209.09"/>
  <polygon class="cls-20" points="420.75 195.99 415.94 194.64 414.6 199.45 419.4 200.8 420.75 195.99"/>
  <polyline class="cls-4" points="375.55 28.06 375.55 8.09 460.2 8.09 459.84 43.66"/>
  <polygon class="cls-20" points="412.13 8.09 412.14 8.25 412.15 8.41 412.18 8.57 412.21 8.72 412.26 8.87 412.31 9.02 412.38 9.17 412.45 9.31 412.53 9.44 412.62 9.57 412.72 9.7 412.82 9.82 412.94 9.93 413.06 10.03 413.18 10.13 413.31 10.21 413.45 10.29 413.59 10.36 413.74 10.43 413.89 10.48 414.04 10.52 414.2 10.55 414.35 10.57 414.51 10.59 414.67 10.59 414.83 10.58 414.99 10.56 415.14 10.54 415.3 10.5 415.45 10.45 415.59 10.4 415.74 10.33 415.88 10.26 416.01 10.17 416.14 10.08 416.26 9.98 416.38 9.87 416.49 9.76 416.59 9.64 416.69 9.51 416.77 9.38 416.85 9.24 416.92 9.1 416.98 8.95 417.02 8.8 417.06 8.64 417.1 8.49 417.12 8.33 417.13 8.17 417.13 8.02 417.12 7.86 417.1 7.7 417.06 7.54 417.02 7.39 416.98 7.24 416.92 7.09 416.85 6.95 416.77 6.81 416.69 6.68 416.59 6.55 416.49 6.43 416.38 6.32 416.26 6.21 416.14 6.11 416.01 6.02 415.88 5.93 415.74 5.86 415.59 5.79 415.45 5.74 415.3 5.69 415.14 5.65 414.99 5.62 414.83 5.61 414.67 5.6 414.51 5.6 414.35 5.61 414.2 5.64 414.04 5.67 413.89 5.71 413.74 5.76 413.59 5.82 413.45 5.89 413.31 5.97 413.18 6.06 413.06 6.16 412.94 6.26 412.82 6.37 412.72 6.49 412.62 6.61 412.53 6.75 412.45 6.88 412.38 7.02 412.31 7.17 412.26 7.32 412.21 7.47 412.18 7.62 412.15 7.78 412.14 7.94 412.13 8.09"/>
  <polygon class="cls-20" points="423.62 5.6 418.62 5.6 418.62 10.59 423.62 10.59 423.62 5.6"/>
  <line class="cls-4" x1="408.59" y1="158.4" x2="426.75" y2="160.42"/>
  <polygon class="cls-20" points="411.96 158.77 411.95 158.93 411.95 159.09 411.95 159.25 411.97 159.41 412 159.56 412.04 159.72 412.08 159.87 412.14 160.01 412.21 160.16 412.28 160.3 412.37 160.43 412.46 160.56 412.56 160.68 412.67 160.8 412.78 160.91 412.9 161.01 413.03 161.1 413.16 161.19 413.3 161.27 413.44 161.34 413.59 161.39 413.74 161.44 413.89 161.48 414.05 161.51 414.21 161.53 414.36 161.54 414.52 161.54 414.68 161.53 414.84 161.51 414.99 161.48 415.15 161.44 415.3 161.39 415.44 161.34 415.59 161.27 415.73 161.19 415.86 161.1 415.99 161.01 416.11 160.91 416.22 160.8 416.33 160.68 416.43 160.56 416.52 160.43 416.61 160.3 416.68 160.16 416.75 160.01 416.8 159.86 416.85 159.71 416.89 159.56 416.91 159.4 416.93 159.25 416.94 159.09 416.94 158.93 416.92 158.77 416.9 158.61 416.87 158.46 416.83 158.31 416.77 158.16 416.71 158.01 416.64 157.87 416.56 157.73 416.48 157.6 416.38 157.47 416.27 157.35 416.16 157.24 416.05 157.14 415.92 157.04 415.79 156.95 415.65 156.87 415.51 156.79 415.37 156.73 415.22 156.68 415.07 156.63 414.91 156.6 414.76 156.57 414.6 156.56 414.44 156.55 414.28 156.56 414.13 156.57 413.97 156.6 413.81 156.63 413.66 156.68 413.51 156.73 413.37 156.79 413.23 156.87 413.09 156.95 412.96 157.04 412.84 157.14 412.72 157.24 412.61 157.36 412.5 157.47 412.41 157.6 412.32 157.73 412.24 157.87 412.17 158.01 412.11 158.16 412.06 158.31 412.02 158.46 411.98 158.62 411.96 158.77"/>
  <polygon class="cls-20" points="423.65 157.56 418.69 157.01 418.14 161.97 423.1 162.52 423.65 157.56"/>
  <line class="cls-4" x1="380.54" y1="70.49" x2="398.64" y2="70.49"/>
  <polygon class="cls-16" points="392.08 70.49 392.08 70.33 392.06 70.17 392.04 70.02 392 69.86 391.96 69.71 391.91 69.56 391.84 69.42 391.77 69.28 391.69 69.14 391.6 69.01 391.5 68.89 391.39 68.77 391.28 68.66 391.16 68.55 391.04 68.46 390.9 68.37 390.77 68.29 390.63 68.22 390.48 68.16 390.33 68.11 390.18 68.07 390.02 68.03 389.87 68.01 389.71 68 389.55 68 389.39 68 389.23 68.02 389.08 68.05 388.92 68.08 388.77 68.13 388.62 68.19 388.48 68.25 388.34 68.33 388.21 68.41 388.08 68.5 387.95 68.61 387.84 68.71 387.73 68.83 387.63 68.95 387.53 69.08 387.45 69.21 387.37 69.35 387.3 69.49 387.24 69.64 387.19 69.79 387.15 69.94 387.12 70.1 387.1 70.25 387.09 70.41 387.09 70.57 387.1 70.73 387.12 70.89 387.15 71.04 387.19 71.19 387.24 71.34 387.3 71.49 387.37 71.64 387.45 71.77 387.53 71.91 387.63 72.03 387.73 72.16 387.84 72.27 387.95 72.38 388.08 72.48 388.21 72.57 388.34 72.65 388.48 72.73 388.62 72.79 388.77 72.85 388.92 72.9 389.08 72.93 389.23 72.96 389.39 72.98 389.55 72.99 389.71 72.98 389.87 72.97 390.02 72.95 390.18 72.92 390.33 72.88 390.48 72.82 390.63 72.76 390.77 72.69 390.9 72.61 391.04 72.52 391.16 72.43 391.28 72.33 391.39 72.21 391.5 72.1 391.6 71.97 391.69 71.84 391.77 71.7 391.84 71.56 391.91 71.42 391.96 71.27 392 71.12 392.04 70.96 392.06 70.81 392.08 70.65 392.08 70.49"/>
  <line class="cls-4" x1="380.54" y1="45.53" x2="398.64" y2="45.53"/>
  <polygon class="cls-16" points="383.85 45.53 383.85 45.69 383.87 45.85 383.89 46 383.93 46.16 383.97 46.31 384.03 46.46 384.09 46.6 384.16 46.75 384.24 46.88 384.33 47.01 384.43 47.14 384.54 47.25 384.65 47.37 384.77 47.47 384.9 47.56 385.03 47.65 385.17 47.73 385.31 47.8 385.45 47.86 385.6 47.92 385.76 47.96 385.91 47.99 386.07 48.01 386.23 48.02 386.38 48.03 386.54 48.02 386.7 48 386.86 47.98 387.01 47.94 387.16 47.89 387.31 47.83 387.45 47.77 387.59 47.69 387.73 47.61 387.86 47.52 387.98 47.42 388.1 47.31 388.2 47.2 388.31 47.08 388.4 46.95 388.49 46.81 388.56 46.68 388.63 46.53 388.69 46.39 388.74 46.23 388.78 46.08 388.81 45.93 388.83 45.77 388.84 45.61 388.84 45.45 388.83 45.3 388.81 45.14 388.78 44.98 388.74 44.83 388.69 44.68 388.63 44.53 388.56 44.39 388.49 44.25 388.4 44.12 388.31 43.99 388.2 43.87 388.1 43.75 387.98 43.65 387.86 43.55 387.73 43.45 387.59 43.37 387.45 43.3 387.31 43.23 387.16 43.17 387.01 43.13 386.86 43.09 386.7 43.06 386.54 43.04 386.38 43.04 386.23 43.04 386.07 43.05 385.91 43.07 385.76 43.11 385.6 43.15 385.45 43.2 385.31 43.26 385.17 43.33 385.03 43.41 384.9 43.5 384.77 43.59 384.65 43.7 384.54 43.81 384.43 43.93 384.33 44.05 384.24 44.18 384.16 44.32 384.09 44.46 384.03 44.6 383.97 44.75 383.93 44.91 383.89 45.06 383.87 45.22 383.85 45.37 383.85 45.53"/>
  <polygon class="cls-16" points="396.08 45.53 391.21 42.73 391.21 48.34 396.08 45.53"/>
  <polyline class="cls-4" points="429.8 203.25 447.31 273.28 430.46 273.28"/>
  <polygon class="cls-16" points="437.16 232.7 437.01 232.74 436.86 232.79 436.71 232.85 436.57 232.93 436.43 233 436.3 233.09 436.18 233.19 436.06 233.3 435.95 233.41 435.84 233.53 435.74 233.65 435.66 233.78 435.58 233.92 435.5 234.06 435.44 234.21 435.39 234.35 435.35 234.51 435.31 234.66 435.29 234.82 435.27 234.98 435.27 235.13 435.27 235.29 435.29 235.45 435.32 235.61 435.35 235.76 435.4 235.91 435.45 236.06 435.52 236.21 435.59 236.35 435.68 236.48 435.77 236.61 435.86 236.73 435.97 236.85 436.08 236.96 436.2 237.06 436.33 237.16 436.46 237.25 436.6 237.32 436.74 237.4 436.89 237.46 437.04 237.5 437.19 237.55 437.35 237.58 437.51 237.6 437.66 237.61 437.82 237.61 437.98 237.6 438.14 237.59 438.29 237.56 438.45 237.52 438.6 237.47 438.75 237.41 438.89 237.34 439.03 237.27 439.16 237.19 439.29 237.09 439.41 236.99 439.53 236.88 439.64 236.77 439.74 236.65 439.83 236.52 439.92 236.38 439.99 236.25 440.06 236.1 440.12 235.95 440.17 235.8 440.2 235.65 440.23 235.49 440.25 235.34 440.26 235.18 440.26 235.02 440.25 234.86 440.23 234.71 440.2 234.55 440.15 234.4 440.1 234.25 440.04 234.1 439.98 233.96 439.9 233.82 439.81 233.69 439.72 233.56 439.61 233.44 439.5 233.33 439.39 233.22 439.26 233.12 439.13 233.03 439 232.95 438.86 232.87 438.71 232.81 438.56 232.75 438.41 232.71 438.26 232.67 438.1 232.64 437.94 232.63 437.79 232.62 437.63 232.63 437.47 232.64 437.31 232.66 437.16 232.7"/>
  <polygon class="cls-16" points="440.13 244.56 441.67 239.16 436.22 240.52 440.13 244.56"/>
  <line class="cls-4" x1="400.77" y1="240.22" x2="403.37" y2="190.91"/>
  <polygon class="cls-16" points="401.77 221.3 401.93 221.3 402.08 221.29 402.24 221.28 402.4 221.25 402.55 221.21 402.7 221.17 402.85 221.11 403 221.05 403.13 220.97 403.27 220.89 403.4 220.8 403.52 220.7 403.64 220.59 403.75 220.48 403.85 220.36 403.95 220.23 404.03 220.1 404.11 219.96 404.18 219.82 404.24 219.67 404.29 219.52 404.33 219.37 404.36 219.21 404.38 219.05 404.39 218.9 404.39 218.74 404.38 218.58 404.36 218.42 404.33 218.27 404.3 218.11 404.25 217.96 404.19 217.82 404.12 217.67 404.05 217.53 403.96 217.4 403.87 217.27 403.77 217.15 403.66 217.03 403.54 216.93 403.42 216.83 403.29 216.73 403.16 216.65 403.02 216.57 402.87 216.51 402.73 216.45 402.57 216.4 402.42 216.36 402.26 216.34 402.11 216.32 401.95 216.31 401.79 216.31 401.63 216.32 401.48 216.34 401.32 216.38 401.17 216.42 401.02 216.47 400.87 216.53 400.73 216.6 400.59 216.68 400.46 216.76 400.33 216.86 400.21 216.96 400.1 217.07 399.99 217.19 399.89 217.31 399.81 217.44 399.72 217.58 399.65 217.72 399.58 217.87 399.53 218.01 399.49 218.17 399.45 218.32 399.42 218.48 399.41 218.63 399.4 218.79 399.41 218.95 399.42 219.11 399.44 219.26 399.48 219.42 399.52 219.57 399.58 219.72 399.64 219.87 399.71 220.01 399.79 220.14 399.88 220.27 399.98 220.4 400.08 220.52 400.19 220.63 400.31 220.73 400.44 220.83 400.57 220.92 400.71 221 400.85 221.07 401 221.13 401.14 221.18 401.3 221.23 401.45 221.26 401.61 221.28 401.77 221.3"/>
  <polygon class="cls-16" points="402.41 209.09 399.35 213.8 404.96 214.09 402.41 209.09"/>
  <line class="cls-4" x1="392.23" y1="224.73" x2="402.54" y2="178.32"/>
  <polygon class="cls-16" points="395.98 207.86 399.78 203.72 394.3 202.5 395.98 207.86"/>
  <polygon class="cls-16" points="398.63 195.92 398.48 195.89 398.32 195.87 398.16 195.86 398 195.86 397.85 195.87 397.69 195.9 397.53 195.93 397.38 195.97 397.23 196.01 397.08 196.07 396.94 196.14 396.8 196.22 396.67 196.31 396.54 196.4 396.42 196.5 396.31 196.61 396.2 196.73 396.1 196.85 396.01 196.98 395.93 197.12 395.85 197.26 395.79 197.4 395.73 197.55 395.68 197.7 395.65 197.85 395.62 198.01 395.6 198.17 395.6 198.33 395.6 198.49 395.61 198.64 395.64 198.8 395.67 198.96 395.71 199.11 395.76 199.26 395.82 199.4 395.9 199.54 395.98 199.68 396.06 199.81 396.16 199.94 396.26 200.06 396.38 200.17 396.49 200.28 396.62 200.37 396.75 200.46 396.89 200.54 397.03 200.62 397.17 200.68 397.32 200.73 397.47 200.78 397.63 200.81 397.79 200.83 397.94 200.85 398.1 200.85 398.26 200.85 398.42 200.83 398.57 200.81 398.73 200.77 398.88 200.73 399.03 200.67 399.17 200.61 399.31 200.53 399.45 200.45 399.58 200.36 399.7 200.26 399.82 200.16 399.93 200.04 400.04 199.92 400.13 199.8 400.22 199.67 400.3 199.53 400.37 199.39 400.43 199.24 400.48 199.09 400.52 198.94 400.55 198.78 400.57 198.63 400.59 198.47 400.59 198.31 400.58 198.15 400.56 197.99 400.53 197.84 400.5 197.68 400.45 197.53 400.39 197.38 400.32 197.24 400.25 197.1 400.17 196.97 400.07 196.84 399.97 196.72 399.87 196.6 399.75 196.49 399.63 196.39 399.5 196.3 399.37 196.21 399.23 196.13 399.08 196.07 398.94 196.01 398.79 195.96 398.63 195.92"/>
  <polyline class="cls-4" points="389.61 18.96 391.15 14.33 457.49 14.33 456.88 28.07"/>
  <polygon class="cls-20" points="418.58 16.83 423.57 16.83 423.57 11.84 418.58 11.84 418.58 16.83"/>
  <polygon class="cls-20" points="430.06 14.33 430.05 14.18 430.04 14.02 430.01 13.86 429.98 13.71 429.93 13.55 429.88 13.41 429.82 13.26 429.74 13.12 429.66 12.98 429.57 12.85 429.47 12.73 429.37 12.61 429.26 12.5 429.14 12.4 429.01 12.3 428.88 12.21 428.74 12.13 428.6 12.06 428.45 12 428.3 11.95 428.15 11.91 428 11.88 427.84 11.85 427.68 11.84 427.52 11.84 427.36 11.85 427.21 11.86 427.05 11.89 426.9 11.93 426.75 11.97 426.6 12.03 426.45 12.1 426.31 12.17 426.18 12.26 426.05 12.35 425.93 12.45 425.81 12.55 425.7 12.67 425.6 12.79 425.51 12.92 425.42 13.05 425.34 13.19 425.27 13.33 425.22 13.48 425.17 13.63 425.13 13.78 425.1 13.94 425.08 14.1 425.07 14.25 425.07 14.41 425.08 14.57 425.1 14.73 425.13 14.88 425.17 15.04 425.22 15.19 425.27 15.33 425.34 15.48 425.42 15.62 425.51 15.75 425.6 15.88 425.7 16 425.81 16.11 425.93 16.22 426.05 16.32 426.18 16.41 426.31 16.5 426.45 16.57 426.6 16.64 426.75 16.69 426.9 16.74 427.05 16.78 427.21 16.8 427.36 16.82 427.52 16.83 427.68 16.83 427.84 16.81 428 16.79 428.15 16.76 428.3 16.72 428.45 16.66 428.6 16.6 428.74 16.53 428.88 16.45 429.01 16.37 429.14 16.27 429.26 16.17 429.37 16.06 429.47 15.94 429.57 15.81 429.66 15.68 429.74 15.55 429.82 15.41 429.88 15.26 429.93 15.11 429.98 14.96 430.01 14.81 430.04 14.65 430.05 14.49 430.06 14.33"/>
  <polyline class="cls-4" points="406.4 62.16 409.87 67.37 447.31 67.37 450.02 64.66"/>
  <polygon class="cls-20" points="422.1 67.37 426.96 70.18 426.96 64.56 422.1 67.37"/>
  <polygon class="cls-20" points="434.33 67.37 434.32 67.21 434.31 67.06 434.28 66.9 434.25 66.74 434.2 66.59 434.15 66.44 434.08 66.3 434.01 66.16 433.93 66.02 433.84 65.89 433.74 65.77 433.64 65.65 433.52 65.54 433.4 65.43 433.28 65.34 433.15 65.25 433.01 65.17 432.87 65.1 432.72 65.04 432.57 64.99 432.42 64.95 432.26 64.91 432.11 64.89 431.95 64.88 431.79 64.88 431.63 64.88 431.48 64.9 431.32 64.93 431.17 64.97 431.01 65.01 430.87 65.07 430.72 65.14 430.58 65.21 430.45 65.29 430.32 65.39 430.2 65.48 430.08 65.59 429.97 65.71 429.87 65.83 429.78 65.96 429.69 66.09 429.61 66.23 429.55 66.37 429.49 66.52 429.44 66.67 429.4 66.82 429.37 66.98 429.35 67.13 429.34 67.29 429.34 67.45 429.35 67.61 429.37 67.77 429.4 67.92 429.44 68.08 429.49 68.22 429.55 68.37 429.61 68.52 429.69 68.65 429.78 68.79 429.87 68.91 429.97 69.04 430.08 69.15 430.2 69.26 430.32 69.36 430.45 69.45 430.58 69.53 430.72 69.61 430.87 69.67 431.01 69.73 431.17 69.78 431.32 69.81 431.48 69.84 431.63 69.86 431.79 69.87 431.95 69.86 432.11 69.85 432.26 69.83 432.42 69.8 432.57 69.75 432.72 69.7 432.87 69.64 433.01 69.57 433.15 69.49 433.28 69.4 433.4 69.31 433.52 69.2 433.64 69.09 433.74 68.98 433.84 68.85 433.93 68.72 434.01 68.58 434.08 68.44 434.15 68.3 434.2 68.15 434.25 68 434.28 67.84 434.31 67.69 434.32 67.53 434.33 67.37"/>
  <line class="cls-4" x1="380.36" y1="156.5" x2="448.74" y2="137.35"/>
  <polygon class="cls-20" points="416.95 146.25 416.9 146.1 416.85 145.96 416.78 145.81 416.7 145.67 416.62 145.54 416.53 145.41 416.43 145.29 416.32 145.17 416.21 145.06 416.08 144.96 415.96 144.87 415.82 144.78 415.68 144.71 415.54 144.64 415.39 144.58 415.24 144.53 415.09 144.49 414.93 144.46 414.78 144.44 414.62 144.43 414.46 144.43 414.3 144.44 414.14 144.46 413.99 144.5 413.84 144.53 413.69 144.59 413.54 144.64 413.4 144.71 413.26 144.79 413.13 144.88 413 144.97 412.88 145.07 412.76 145.18 412.66 145.3 412.56 145.42 412.46 145.55 412.38 145.69 412.31 145.83 412.24 145.97 412.19 146.12 412.14 146.27 412.1 146.42 412.08 146.58 412.06 146.74 412.05 146.9 412.06 147.06 412.07 147.21 412.09 147.37 412.12 147.52 412.17 147.68 412.22 147.83 412.28 147.97 412.35 148.11 412.43 148.25 412.52 148.38 412.62 148.51 412.72 148.63 412.83 148.74 412.95 148.84 413.07 148.94 413.2 149.03 413.34 149.11 413.48 149.19 413.63 149.25 413.78 149.3 413.93 149.35 414.08 149.38 414.24 149.4 414.4 149.42 414.56 149.42 414.71 149.42 414.87 149.4 415.03 149.38 415.18 149.34 415.33 149.3 415.48 149.24 415.63 149.18 415.77 149.1 415.9 149.02 416.03 148.93 416.16 148.84 416.28 148.73 416.39 148.62 416.49 148.5 416.58 148.37 416.67 148.24 416.75 148.1 416.82 147.96 416.88 147.81 416.93 147.66 416.98 147.51 417.01 147.35 417.03 147.2 417.04 147.04 417.04 146.88 417.04 146.72 417.02 146.56 416.99 146.41 416.95 146.25"/>
  <line class="cls-4" x1="384.22" y1="172.72" x2="431.07" y2="154.5"/>
  <polygon class="cls-20" points="395.32 168.34 400.87 169.2 398.83 163.96 395.32 168.34"/>
  <polygon class="cls-20" points="404.87 163.71 404.81 163.56 404.74 163.42 404.66 163.28 404.57 163.15 404.47 163.03 404.37 162.91 404.26 162.79 404.14 162.69 404.01 162.59 403.88 162.5 403.75 162.42 403.6 162.35 403.46 162.29 403.31 162.24 403.16 162.19 403 162.16 402.85 162.13 402.69 162.12 402.53 162.12 402.37 162.12 402.21 162.14 402.06 162.16 401.9 162.2 401.75 162.24 401.6 162.3 401.46 162.36 401.32 162.44 401.18 162.52 401.05 162.61 400.93 162.71 400.81 162.81 400.7 162.93 400.6 163.05 400.5 163.18 400.42 163.31 400.34 163.45 400.27 163.59 400.21 163.73 400.16 163.88 400.12 164.04 400.08 164.19 400.06 164.35 400.05 164.51 400.05 164.67 400.06 164.82 400.08 164.98 400.11 165.14 400.14 165.29 400.19 165.44 400.25 165.59 400.31 165.73 400.39 165.87 400.48 166.01 400.57 166.13 400.67 166.26 400.78 166.37 400.89 166.48 401.01 166.58 401.14 166.68 401.27 166.76 401.41 166.84 401.56 166.9 401.7 166.96 401.86 167.01 402.01 167.05 402.17 167.08 402.32 167.1 402.48 167.11 402.64 167.11 402.8 167.09 402.95 167.07 403.11 167.04 403.26 167 403.41 166.95 403.56 166.89 403.7 166.82 403.84 166.75 403.97 166.66 404.1 166.56 404.22 166.46 404.33 166.35 404.44 166.23 404.54 166.11 404.63 165.98 404.71 165.85 404.79 165.71 404.85 165.56 404.91 165.41 404.95 165.26 404.99 165.11 405.02 164.95 405.03 164.79 405.04 164.64 405.04 164.48 405.02 164.32 405 164.16 404.97 164.01 404.92 163.86 404.87 163.71"/>
  <polyline class="cls-4" points="426.68 215.73 444.19 285.76 430.46 285.76"/>
  <polygon class="cls-16" points="434.04 245.18 433.89 245.22 433.74 245.27 433.59 245.33 433.45 245.41 433.31 245.49 433.18 245.57 433.06 245.67 432.94 245.78 432.83 245.89 432.72 246.01 432.63 246.13 432.54 246.26 432.45 246.4 432.38 246.54 432.32 246.69 432.27 246.83 432.23 246.99 432.19 247.14 432.17 247.3 432.15 247.46 432.15 247.61 432.15 247.77 432.17 247.93 432.2 248.09 432.23 248.24 432.28 248.39 432.33 248.54 432.4 248.69 432.47 248.82 432.56 248.96 432.64 249.09 432.74 249.21 432.85 249.33 432.96 249.44 433.08 249.54 433.21 249.64 433.34 249.73 433.48 249.81 433.62 249.87 433.77 249.93 433.92 249.99 434.07 250.03 434.23 250.06 434.38 250.08 434.54 250.09 434.7 250.09 434.86 250.08 435.02 250.06 435.17 250.04 435.33 250 435.48 249.95 435.63 249.89 435.77 249.82 435.91 249.75 436.04 249.66 436.17 249.57 436.29 249.47 436.41 249.36 436.52 249.25 436.62 249.13 436.71 249 436.8 248.86 436.87 248.72 436.94 248.58 437 248.43 437.05 248.28 437.08 248.13 437.11 247.97 437.13 247.82 437.14 247.66 437.14 247.5 437.13 247.34 437.11 247.19 437.07 247.03 437.04 246.88 436.98 246.73 436.93 246.58 436.86 246.44 436.78 246.3 436.69 246.17 436.6 246.04 436.49 245.92 436.38 245.81 436.27 245.7 436.14 245.6 436.01 245.51 435.88 245.43 435.74 245.35 435.59 245.29 435.44 245.23 435.29 245.19 435.14 245.15 434.98 245.12 434.82 245.11 434.67 245.1 434.51 245.1 434.35 245.12 434.19 245.14 434.04 245.18"/>
  <polygon class="cls-16" points="437 257.04 438.55 251.64 433.1 253 437 257.04"/>
  <line class="cls-4" x1="396.12" y1="229.11" x2="448.58" y2="223.86"/>
  <polygon class="cls-20" points="416.63 227.06 416.66 227.21 416.69 227.37 416.73 227.52 416.78 227.67 416.84 227.82 416.9 227.96 416.98 228.1 417.07 228.23 417.16 228.36 417.27 228.48 417.38 228.59 417.49 228.7 417.62 228.8 417.75 228.89 417.88 228.97 418.02 229.05 418.17 229.11 418.31 229.17 418.46 229.22 418.62 229.25 418.77 229.28 418.93 229.29 419.09 229.3 419.25 229.3 419.41 229.29 419.56 229.26 419.72 229.23 419.87 229.19 420.02 229.13 420.17 229.07 420.31 229 420.44 228.92 420.58 228.83 420.7 228.74 420.82 228.63 420.93 228.52 421.04 228.4 421.13 228.28 421.22 228.15 421.31 228.01 421.38 227.87 421.44 227.72 421.49 227.57 421.54 227.42 421.57 227.27 421.6 227.11 421.61 226.95 421.61 226.79 421.61 226.64 421.59 226.48 421.57 226.32 421.53 226.17 421.49 226.02 421.43 225.87 421.37 225.72 421.29 225.58 421.21 225.45 421.12 225.32 421.02 225.19 420.92 225.08 420.8 224.97 420.68 224.86 420.56 224.77 420.43 224.68 420.29 224.6 420.14 224.53 420 224.47 419.85 224.42 419.7 224.38 419.54 224.35 419.38 224.32 419.23 224.31 419.07 224.31 418.91 224.32 418.75 224.34 418.6 224.37 418.44 224.4 418.29 224.45 418.14 224.51 418 224.58 417.86 224.65 417.73 224.74 417.6 224.83 417.48 224.93 417.36 225.04 417.25 225.15 417.15 225.27 417.06 225.4 416.97 225.53 416.89 225.67 416.83 225.82 416.77 225.96 416.72 226.11 416.68 226.27 416.65 226.42 416.63 226.58 416.62 226.74 416.62 226.9 416.63 227.06"/>
  <polygon class="cls-20" points="428.8 225.84 423.68 223.53 424.24 229.12 428.8 225.84"/>
  <line class="cls-4" x1="408.19" y1="183.9" x2="427.15" y2="175.47"/>
  <polygon class="cls-20" points="412.42 182.02 412.49 182.16 412.57 182.3 412.65 182.43 412.75 182.56 412.85 182.68 412.96 182.79 413.08 182.9 413.2 183 413.33 183.09 413.47 183.17 413.61 183.25 413.75 183.31 413.9 183.37 414.05 183.41 414.2 183.45 414.36 183.48 414.52 183.49 414.68 183.5 414.83 183.5 414.99 183.48 415.15 183.46 415.31 183.43 415.46 183.38 415.61 183.33 415.75 183.27 415.89 183.2 416.03 183.12 416.16 183.03 416.29 182.93 416.41 182.83 416.52 182.72 416.62 182.6 416.72 182.47 416.81 182.34 416.89 182.21 416.96 182.06 417.02 181.92 417.08 181.77 417.12 181.62 417.16 181.46 417.18 181.31 417.19 181.15 417.2 180.99 417.19 180.83 417.18 180.67 417.15 180.52 417.12 180.36 417.07 180.21 417.01 180.06 416.95 179.92 416.88 179.78 416.79 179.64 416.7 179.51 416.61 179.39 416.5 179.27 416.38 179.16 416.26 179.06 416.14 178.96 416.01 178.88 415.87 178.8 415.73 178.73 415.58 178.67 415.43 178.62 415.28 178.57 415.12 178.54 414.96 178.52 414.81 178.51 414.65 178.51 414.49 178.52 414.33 178.54 414.18 178.56 414.02 178.6 413.87 178.65 413.73 178.71 413.58 178.77 413.44 178.85 413.31 178.93 413.18 179.03 413.06 179.13 412.94 179.24 412.83 179.35 412.73 179.47 412.64 179.6 412.55 179.73 412.48 179.87 412.41 180.02 412.35 180.16 412.3 180.31 412.26 180.47 412.24 180.62 412.22 180.78 412.21 180.94 412.21 181.1 412.22 181.25 412.24 181.41 412.27 181.57 412.31 181.72 412.36 181.87 412.42 182.02"/>
  <polygon class="cls-20" points="421.9 175.07 417.34 177.1 419.37 181.66 423.93 179.63 421.9 175.07"/>
  <polyline class="cls-4" points="432.73 190.81 447.31 260.1 430.46 260.64"/>
  <polygon class="cls-16" points="438.69 219.1 436.94 224.44 442.43 223.29 438.69 219.1"/>
  <polygon class="cls-16" points="441.2 231.07 441.36 231.03 441.51 230.99 441.65 230.93 441.8 230.86 441.94 230.79 442.07 230.71 442.2 230.61 442.32 230.51 442.44 230.41 442.55 230.29 442.65 230.17 442.75 230.04 442.83 229.91 442.91 229.77 442.98 229.63 443.03 229.48 443.08 229.33 443.12 229.18 443.15 229.02 443.17 228.86 443.18 228.71 443.18 228.55 443.17 228.39 443.15 228.23 443.12 228.08 443.08 227.92 443.03 227.77 442.97 227.63 442.9 227.48 442.83 227.34 442.74 227.21 442.65 227.08 442.55 226.96 442.44 226.85 442.32 226.74 442.2 226.64 442.07 226.55 441.93 226.47 441.79 226.39 441.65 226.33 441.5 226.27 441.35 226.22 441.2 226.19 441.04 226.16 440.88 226.14 440.73 226.13 440.57 226.14 440.41 226.15 440.25 226.17 440.1 226.2 439.94 226.25 439.8 226.3 439.65 226.36 439.51 226.43 439.37 226.51 439.24 226.6 439.11 226.69 438.99 226.8 438.88 226.91 438.77 227.03 438.68 227.15 438.59 227.28 438.5 227.42 438.43 227.56 438.37 227.7 438.32 227.85 438.27 228 438.24 228.16 438.21 228.31 438.2 228.47 438.19 228.63 438.2 228.79 438.21 228.95 438.24 229.1 438.27 229.26 438.32 229.41 438.37 229.56 438.44 229.7 438.51 229.84 438.59 229.98 438.68 230.11 438.78 230.24 438.88 230.35 439 230.46 439.12 230.57 439.24 230.66 439.37 230.75 439.51 230.83 439.65 230.9 439.8 230.96 439.95 231.01 440.1 231.06 440.26 231.09 440.41 231.11 440.57 231.12 440.73 231.12 440.89 231.12 441.05 231.1 441.2 231.07"/>
  <line class="cls-4" x1="433.32" y1="31.47" x2="442.57" y2="28.39"/>
  <polygon class="cls-16" points="431.79 31.98 437.29 33.11 435.52 27.78 431.79 31.98"/>
  <polygon class="cls-16" points="442.6 25.75 437.87 27.33 439.45 32.06 444.18 30.49 442.6 25.75"/>
  <polyline class="cls-4" points="433.46 46.62 456.67 51.77 456.26 52.18"/>
  <polygon class="cls-16" points="438.73 47.79 442.87 51.58 444.09 46.1 438.73 47.79"/>
  <polygon class="cls-16" points="450.67 50.44 450.7 50.28 450.72 50.13 450.73 49.97 450.72 49.81 450.71 49.65 450.69 49.49 450.66 49.34 450.62 49.19 450.57 49.04 450.51 48.89 450.44 48.75 450.37 48.61 450.28 48.48 450.19 48.35 450.08 48.23 449.98 48.11 449.86 48.01 449.74 47.91 449.61 47.81 449.47 47.73 449.33 47.66 449.19 47.59 449.04 47.54 448.89 47.49 448.73 47.45 448.58 47.43 448.42 47.41 448.26 47.4 448.1 47.41 447.94 47.42 447.79 47.44 447.63 47.47 447.48 47.52 447.33 47.57 447.19 47.63 447.04 47.7 446.91 47.78 446.77 47.87 446.65 47.97 446.53 48.07 446.42 48.18 446.31 48.3 446.21 48.42 446.13 48.55 446.05 48.69 445.97 48.83 445.91 48.98 445.86 49.13 445.81 49.28 445.78 49.43 445.75 49.59 445.74 49.75 445.73 49.91 445.74 50.06 445.76 50.22 445.78 50.38 445.82 50.53 445.86 50.68 445.92 50.83 445.98 50.98 446.05 51.12 446.13 51.25 446.23 51.38 446.32 51.51 446.43 51.63 446.54 51.74 446.66 51.84 446.79 51.94 446.92 52.02 447.06 52.1 447.2 52.17 447.35 52.23 447.5 52.28 447.65 52.33 447.81 52.36 447.96 52.38 448.12 52.39 448.28 52.39 448.44 52.38 448.59 52.37 448.75 52.34 448.9 52.3 449.06 52.25 449.2 52.2 449.35 52.13 449.49 52.05 449.62 51.97 449.75 51.88 449.87 51.78 449.99 51.67 450.1 51.55 450.2 51.43 450.29 51.31 450.38 51.17 450.45 51.03 450.52 50.89 450.58 50.74 450.63 50.59 450.67 50.44"/>
  <line class="cls-4" x1="449.61" y1="242.03" x2="429.41" y2="257.74"/>
  <polygon class="cls-16" points="444.04 246.36 443.94 246.24 443.83 246.12 443.71 246.01 443.59 245.91 443.46 245.82 443.33 245.74 443.19 245.66 443.04 245.59 442.9 245.54 442.75 245.49 442.59 245.45 442.44 245.42 442.28 245.4 442.12 245.4 441.96 245.4 441.8 245.41 441.65 245.43 441.49 245.46 441.34 245.5 441.19 245.56 441.04 245.62 440.9 245.68 440.76 245.76 440.63 245.85 440.5 245.94 440.38 246.05 440.27 246.16 440.16 246.28 440.06 246.4 439.98 246.53 439.89 246.67 439.82 246.81 439.75 246.95 439.7 247.1 439.65 247.25 439.62 247.41 439.59 247.56 439.58 247.72 439.57 247.88 439.58 248.04 439.59 248.19 439.61 248.35 439.65 248.5 439.69 248.66 439.75 248.81 439.81 248.95 439.88 249.09 439.96 249.23 440.05 249.36 440.15 249.49 440.25 249.6 440.36 249.72 440.48 249.82 440.61 249.92 440.74 250 440.88 250.08 441.02 250.16 441.16 250.22 441.31 250.27 441.47 250.31 441.62 250.35 441.78 250.37 441.94 250.38 442.09 250.39 442.25 250.38 442.41 250.36 442.56 250.34 442.72 250.3 442.87 250.25 443.02 250.2 443.16 250.13 443.3 250.06 443.44 249.98 443.57 249.88 443.69 249.78 443.81 249.68 443.92 249.56 444.02 249.44 444.12 249.32 444.2 249.19 444.28 249.05 444.35 248.9 444.41 248.76 444.46 248.61 444.5 248.45 444.53 248.3 444.55 248.14 444.56 247.98 444.56 247.82 444.55 247.67 444.53 247.51 444.5 247.35 444.47 247.2 444.42 247.05 444.36 246.9 444.29 246.76 444.22 246.62 444.13 246.49 444.04 246.36"/>
  <polygon class="cls-16" points="436.51 255.38 440.45 252.31 437.38 248.37 433.44 251.44 436.51 255.38"/>
  <line class="cls-4" x1="448.67" y1="240.05" x2="430.34" y2="244.12"/>
  <polygon class="cls-16" points="445.84 240.68 440.48 238.99 441.7 244.47 445.84 240.68"/>
  <polygon class="cls-16" points="434.44 245.76 439.32 244.68 438.23 239.81 433.36 240.89 434.44 245.76"/>
  <text class="cls-2" transform="translate(396.37 391.36)">G</text>
  <line class="cls-4" x1="405.5" y1="386.52" x2="420.48" y2="386.52"/>
  <text class="cls-21" transform="matrix(0.98, 0, 0, 1, 398.22, 230.63)">DFHBI-1<tspan class="cls-22" x="39.82" y="0">T</tspan></text>
  <text class="cls-23" transform="translate(26.76 32.58)">Squash RN<tspan class="cls-24" x="102.28" y="0">A</tspan><tspan x="114.51" y="0" xml:space="preserve"> aptamer</tspan></text>
</svg>
