<?xml version="1.0" encoding="utf-8"?>
<!-- Generator: Adobe Illustrator 25.2.0, SVG Export Plug-In . SVG Version: 6.00 Build 0)  -->
<svg version="1.1" id="图层_1" xmlns="http://www.w3.org/2000/svg" xmlns:xlink="http://www.w3.org/1999/xlink" x="0px" y="0px"
	 viewBox="0 0 800 400" style="enable-background:new 0 0 800 400;" xml:space="preserve">
<style type="text/css">
	.st0{fill:#FFFF00;}
	.st1{fill:#CCCC00;}
	.st2{font-family:'ArialMT';}
	.st3{font-size:12.31px;}
	.st4{fill:none;stroke:#000000;stroke-width:0.14;stroke-miterlimit:1.11;}
	.st5{fill:#FF99CC;}
	.st6{fill:#3333FF;}
	.st7{fill:#33CC66;}
	.st8{fill:#FF6633;}
	.st9{stroke:#000000;stroke-width:0.14;stroke-miterlimit:1.11;}
	.st10{fill:#33FF99;}
	.st11{fill:none;stroke:#000000;stroke-width:0.94;stroke-miterlimit:1.11;}
	.st12{fill:#FFFFFF;stroke:#000000;stroke-width:0.14;stroke-miterlimit:1.11;}
	.st13{font-size:10.24px;}
	.st14{font-size:20px;}
	.st15{letter-spacing:-1;}
	.st16{font-size:18px;}
</style>
<rect x="397" y="217.8" transform="matrix(1 -2.094389e-03 2.094389e-03 1 -0.4731 0.8811)" class="st0" width="47" height="17"/>
<text transform="matrix(1 0 0 1 395.72 378.73)" class="st1 st2 st3">G</text>
<text transform="matrix(1 0 0 1 395.72 366.25)" class="st1 st2 st3">G</text>
<text transform="matrix(1 0 0 1 396.4 353.77)" class="st1 st2 st3">A</text>
<text transform="matrix(1 0 0 1 396.4 341.3)" class="st1 st2 st3">A</text>
<text transform="matrix(1 0 0 1 395.72 328.81)" class="st1 st2 st3">G</text>
<text transform="matrix(1 0 0 1 396.4 316.33)" class="st1 st2 st3">A</text>
<text transform="matrix(1 0 0 1 396.06 303.86)" class="st1 st2 st3">U</text>
<text transform="matrix(1 0 0 1 396.4 291.38)" class="st1 st2 st3">A</text>
<text transform="matrix(1 0 0 1 396.06 278.9)" class="st1 st2 st3">C</text>
<line class="st4" x1="393.7" y1="277.6" x2="387.8" y2="283.5"/>
<text transform="matrix(1 0 0 1 374.13 298.24)" class="st2 st3">10</text>
<text transform="matrix(1 0 0 1 396.4 266.42)" class="st5 st2 st3">A</text>
<text transform="matrix(1 0 0 1 396.4 250.82)" class="st5 st2 st3">A</text>
<text transform="matrix(1 0 0 1 386.36 235.22)" class="st5 st2 st3">G</text>
<text transform="matrix(1 0 0 1 375.46 223.53)" class="st5 st2 st3">G</text>
<text transform="matrix(1 0 0 1 449.44 228.98)" class="st6 st2 st3">A</text>
<line class="st4" x1="460.6" y1="225.8" x2="468.9" y2="225.8"/>
<text transform="matrix(1 0 0 1 468.94 231.44)" class="st2 st3">70</text>
<text transform="matrix(1 0 0 1 448.76 244.58)" class="st6 st2 st3">G</text>
<text transform="matrix(1 0 0 1 421.02 250.82)" class="st6 st2 st3">C</text>
<text transform="matrix(1 0 0 1 420.68 266.42)" class="st6 st2 st3">G</text>
<text transform="matrix(1 0 0 1 420.68 278.9)" class="st1 st2 st3">G</text>
<text transform="matrix(1 0 0 1 421.02 291.38)" class="st1 st2 st3">U</text>
<text transform="matrix(1 0 0 1 421.36 303.86)" class="st1 st2 st3">A</text>
<text transform="matrix(1 0 0 1 421.02 316.33)" class="st1 st2 st3">U</text>
<text transform="matrix(1 0 0 1 421.02 328.81)" class="st1 st2 st3">C</text>
<text transform="matrix(1 0 0 1 421.02 341.3)" class="st1 st2 st3">U</text>
<text transform="matrix(1 0 0 1 421.02 353.77)" class="st1 st2 st3">U</text>
<line class="st4" x1="434.8" y1="348.2" x2="443.1" y2="348.2"/>
<text transform="matrix(1 0 0 1 443.1 353.77)" class="st2 st3">80</text>
<text transform="matrix(1 0 0 1 421.02 366.25)" class="st1 st2 st3">C</text>
<text transform="matrix(1 0 0 1 421.02 378.73)" class="st1 st2 st3">C</text>
<text transform="matrix(1 0 0 1 421.02 391.21)" class="st1 st2 st3">C</text>
<line class="st4" x1="405.5" y1="373.1" x2="420.5" y2="373.1"/>
<line class="st4" x1="405.5" y1="360.6" x2="420.5" y2="360.6"/>
<line class="st4" x1="405.5" y1="348.2" x2="420.5" y2="348.2"/>
<line class="st4" x1="405.5" y1="335.7" x2="420.5" y2="335.7"/>
<line class="st4" x1="405.5" y1="323.2" x2="420.5" y2="323.2"/>
<line class="st4" x1="405.5" y1="310.7" x2="420.5" y2="310.7"/>
<line class="st4" x1="405.5" y1="298.2" x2="420.5" y2="298.2"/>
<line class="st4" x1="405.5" y1="285.8" x2="420.5" y2="285.8"/>
<line class="st4" x1="405.5" y1="273.3" x2="420.5" y2="273.3"/>
<text transform="matrix(1 0 0 1 371.1 191.54)" class="st5 st2 st3">U</text>
<text transform="matrix(1 0 0 1 370.76 175.94)" class="st5 st2 st3">G</text>
<text transform="matrix(1 0 0 1 371.44 163.46)" class="st5 st2 st3">A</text>
<text transform="matrix(1 0 0 1 373.88 150.98)" class="st7 st2 st3">G</text>
<text transform="matrix(1 0 0 1 374.22 138.5)" class="st7 st2 st3">C</text>
<text transform="matrix(1 0 0 1 374.22 126.02)" class="st7 st2 st3">C</text>
<line class="st4" x1="370.4" y1="120.4" x2="362" y2="120.4"/>
<text transform="matrix(1 0 0 1 348.33 126.02)" class="st2 st3">20</text>
<text transform="matrix(1 0 0 1 374.22 113.55)" class="st7 st2 st3">C</text>
<text transform="matrix(1 0 0 1 374.56 101.07)" class="st7 st2 st3">A</text>
<text transform="matrix(1 0 0 1 374.56 88.59)" class="st7 st2 st3">A</text>
<text transform="matrix(1 0 0 1 371.1 76.11)" class="st7 st2 st3">U</text>
<text transform="matrix(1 0 0 1 371.44 63.63)" class="st7 st2 st3">A</text>
<text transform="matrix(1 0 0 1 371.44 51.15)" class="st7 st2 st3">A</text>
<text transform="matrix(1 0 0 1 399.18 76.11)" class="st7 st2 st3">U</text>
<text transform="matrix(1 0 0 1 399.18 88.59)" class="st7 st2 st3">U</text>
<text transform="matrix(1 0 0 1 399.18 101.07)" class="st7 st2 st3">U</text>
<text transform="matrix(1 0 0 1 398.84 113.55)" class="st7 st2 st3">G</text>
<text transform="matrix(1 0 0 1 398.84 126.02)" class="st7 st2 st3">G</text>
<text transform="matrix(1 0 0 1 398.84 138.5)" class="st7 st2 st3">G</text>
<text transform="matrix(1 0 0 1 399.18 150.98)" class="st7 st2 st3">U</text>
<text transform="matrix(1 0 0 1 399.18 163.46)" class="st8 st2 st3">U</text>
<text transform="matrix(1 0 0 1 399.52 179.06)" class="st8 st2 st3">A</text>
<text transform="matrix(1 0 0 1 398.84 191.54)" class="st8 st2 st3">G</text>
<text transform="matrix(1 0 0 1 401.96 204.02)" class="st8 st2 st3">G</text>
<text transform="matrix(1 0 0 1 408.88 216.5)" class="st8 st2 st3">A</text>
<text transform="matrix(1 0 0 1 421.02 216.5)" class="st8 st2 st3">U</text>
<text transform="matrix(1 0 0 1 424.48 204.02)" class="st8 st2 st3">A</text>
<polygon class="st9" points="393.6,145.4 393.6,145.2 393.6,145.1 393.6,144.9 393.6,144.7 393.5,144.6 393.5,144.4 393.4,144.3 
	393.3,144.1 393.2,144 393.2,143.9 393.1,143.8 393,143.6 392.8,143.5 392.7,143.4 392.6,143.3 392.5,143.2 392.3,143.2 
	392.2,143.1 392,143 391.9,143 391.7,142.9 391.6,142.9 391.4,142.9 391.3,142.9 391.1,142.9 391,142.9 390.8,142.9 390.6,142.9 
	390.5,143 390.3,143 390.2,143.1 390,143.1 389.9,143.2 389.8,143.3 389.6,143.4 389.5,143.5 389.4,143.6 389.3,143.7 389.2,143.8 
	389.1,143.9 389,144.1 388.9,144.2 388.9,144.4 388.8,144.5 388.8,144.7 388.7,144.8 388.7,145 388.7,145.1 388.6,145.3 
	388.6,145.4 388.7,145.6 388.7,145.8 388.7,145.9 388.8,146.1 388.8,146.2 388.9,146.4 388.9,146.5 389,146.6 389.1,146.8 
	389.2,146.9 389.3,147 389.4,147.1 389.5,147.2 389.6,147.4 389.8,147.4 389.9,147.5 390,147.6 390.2,147.7 390.3,147.7 
	390.5,147.8 390.6,147.8 390.8,147.8 391,147.9 391.1,147.9 391.3,147.9 391.4,147.9 391.6,147.8 391.7,147.8 391.9,147.8 
	392,147.7 392.2,147.6 392.3,147.6 392.5,147.5 392.6,147.4 392.7,147.3 392.8,147.2 393,147.1 393.1,147 393.2,146.9 393.2,146.7 
	393.3,146.6 393.4,146.4 393.5,146.3 393.5,146.1 393.6,146 393.6,145.8 393.6,145.7 393.6,145.5 "/>
<line class="st4" x1="383.7" y1="132.9" x2="398.6" y2="132.9"/>
<line class="st4" x1="383.7" y1="120.4" x2="398.6" y2="120.4"/>
<line class="st4" x1="383.7" y1="107.9" x2="398.6" y2="107.9"/>
<line class="st4" x1="383.7" y1="95.4" x2="398.6" y2="95.4"/>
<line class="st4" x1="383.7" y1="83" x2="398.6" y2="83"/>
<text transform="matrix(1 0 0 1 371.1 38.67)" class="st7 st2 st3">U</text>
<text transform="matrix(1 0 0 1 383.92 29.31)" class="st7 st2 st3">A</text>
<text transform="matrix(1 0 0 1 399.18 38.67)" class="st7 st2 st3">U</text>
<text transform="matrix(1 0 0 1 398.84 51.15)" class="st7 st2 st3">G</text>
<line class="st4" x1="395.3" y1="45.5" x2="387" y2="45.5"/>
<text transform="matrix(1 0 0 1 398.84 63.63)" class="st7 st2 st3">G</text>
<text transform="matrix(1 0 0 1 424.14 63.63)" class="st10 st2 st3">C</text>
<text transform="matrix(1 0 0 1 424.14 51.15)" class="st10 st2 st3">C</text>
<text transform="matrix(1 0 0 1 424.14 38.67)" class="st10 st2 st3">U</text>
<text transform="matrix(1 0 0 1 442.86 32.43)" class="st10 st2 st3">U</text>
<text transform="matrix(1 0 0 1 452.56 38.67)" class="st10 st2 st3">A</text>
<line class="st4" x1="465" y1="33" x2="473.3" y2="33"/>
<text transform="matrix(1 0 0 1 473.3 38.67)" class="st2 st3">60</text>
<line class="st4" x1="408.6" y1="45.5" x2="423.6" y2="45.5"/>
<line class="st4" x1="408.6" y1="58" x2="423.6" y2="58"/>
<text transform="matrix(1 0 0 1 426.92 191.54)" class="st8 st2 st3">G</text>
<text transform="matrix(1 0 0 1 426.92 179.06)" class="st8 st2 st3">G</text>
<text transform="matrix(1 0 0 1 427.6 166.58)" class="st8 st2 st3">A</text>
<text transform="matrix(1 0 0 1 427.6 154.1)" class="st8 st2 st3">A</text>
<text transform="matrix(1 0 0 1 423.8 141.62)" class="st10 st2 st3">G</text>
<text transform="matrix(1 0 0 1 424.14 129.14)" class="st10 st2 st3">U</text>
<text transform="matrix(1 0 0 1 424.48 116.67)" class="st10 st2 st3">A</text>
<text transform="matrix(1 0 0 1 423.8 104.19)" class="st10 st2 st3">G</text>
<text transform="matrix(1 0 0 1 424.48 91.71)" class="st10 st2 st3">A</text>
<text transform="matrix(1 0 0 1 423.8 79.23)" class="st10 st2 st3">G</text>
<text transform="matrix(1 0 0 1 455.68 54.27)" class="st10 st2 st3">A</text>
<text transform="matrix(1 0 0 1 449.44 66.75)" class="st10 st2 st3">A</text>
<text transform="matrix(1 0 0 1 449.1 79.23)" class="st10 st2 st3">C</text>
<text transform="matrix(1 0 0 1 449.1 91.71)" class="st10 st2 st3">U</text>
<text transform="matrix(1 0 0 1 449.1 104.19)" class="st10 st2 st3">C</text>
<text transform="matrix(1 0 0 1 449.1 116.67)" class="st10 st2 st3">U</text>
<text transform="matrix(1 0 0 1 449.1 129.14)" class="st10 st2 st3">C</text>
<text transform="matrix(1 0 0 1 449.1 141.62)" class="st6 st2 st3">U</text>
<text transform="matrix(1 0 0 1 449.44 213.38)" class="st6 st2 st3">A</text>
<line class="st4" x1="433.6" y1="111.1" x2="448.5" y2="111.1"/>
<line class="st4" x1="433.6" y1="98.6" x2="448.5" y2="98.6"/>
<line class="st4" x1="433.6" y1="86.1" x2="448.5" y2="86.1"/>
<line class="st4" x1="433.6" y1="73.6" x2="448.5" y2="73.6"/>
<line class="st11" x1="453.5" y1="141" x2="453.5" y2="202.8"/>
<polygon class="st9" points="457.3,167.7 455.4,169.8 454.8,171.9 454.5,174 453.5,178.1 452.6,174 452.3,171.9 451.7,169.8 
	449.8,167.7 "/>
<line class="st11" x1="378.2" y1="212.2" x2="376" y2="190.9"/>
<polygon class="st9" points="374.5,205.6 375.7,203.8 376,202.2 376,200.6 376.4,197.5 377.4,200.5 377.8,202.1 378.4,203.6 
	379.9,205 "/>
<line class="st4" x1="431.3" y1="178.4" x2="429.5" y2="239.8"/>
<polygon class="st9" points="429.9,211.8 430,211.8 430.2,211.8 430.3,211.8 430.5,211.8 430.6,211.8 430.8,211.7 431,211.7 
	431.1,211.6 431.2,211.5 431.4,211.5 431.5,211.4 431.6,211.3 431.8,211.2 431.9,211.1 432,210.9 432.1,210.8 432.2,210.7 
	432.2,210.6 432.3,210.4 432.4,210.3 432.5,210.1 432.5,210 432.5,209.8 432.6,209.7 432.6,209.5 432.6,209.3 432.6,209.2 
	432.6,209 432.5,208.9 432.5,208.7 432.5,208.6 432.4,208.4 432.3,208.3 432.3,208.1 432.2,208 432.1,207.9 432,207.7 431.9,207.6 
	431.8,207.5 431.7,207.4 431.5,207.3 431.4,207.2 431.3,207.1 431.1,207.1 431,207 430.8,206.9 430.7,206.9 430.5,206.9 
	430.4,206.9 430.2,206.8 430.1,206.8 429.9,206.8 429.8,206.9 429.6,206.9 429.4,206.9 429.3,207 429.1,207 429,207.1 428.9,207.1 
	428.7,207.2 428.6,207.3 428.5,207.4 428.4,207.5 428.2,207.6 428.1,207.8 428,207.9 428,208 427.9,208.2 427.8,208.3 427.7,208.4 
	427.7,208.6 427.6,208.8 427.6,208.9 427.6,209.1 427.6,209.2 427.6,209.4 427.6,209.5 427.6,209.7 427.6,209.9 427.7,210 
	427.7,210.2 427.8,210.3 427.9,210.4 427.9,210.6 428,210.7 428.1,210.9 428.2,211 428.3,211.1 428.4,211.2 428.6,211.3 
	428.7,211.4 428.8,211.5 429,211.6 429.1,211.6 429.2,211.7 429.4,211.7 429.5,211.8 429.7,211.8 "/>
<line class="st4" x1="433" y1="133.8" x2="449.1" y2="125.8"/>
<polygon class="st9" points="443.3,128.6 443.2,128.5 443.1,128.4 443,128.2 443,128.1 442.8,128 442.7,127.9 442.6,127.8 
	442.5,127.7 442.3,127.6 442.2,127.6 442.1,127.5 441.9,127.4 441.8,127.4 441.6,127.3 441.5,127.3 441.3,127.3 441.1,127.3 
	441,127.3 440.8,127.3 440.7,127.3 440.5,127.3 440.4,127.4 440.2,127.4 440.1,127.5 439.9,127.6 439.8,127.6 439.6,127.7 
	439.5,127.8 439.4,127.9 439.3,128 439.2,128.1 439.1,128.3 439,128.4 438.9,128.5 438.8,128.7 438.8,128.8 438.7,129 438.7,129.1 
	438.6,129.3 438.6,129.4 438.6,129.6 438.6,129.7 438.6,129.9 438.6,130.1 438.6,130.2 438.6,130.4 438.7,130.5 438.7,130.7 
	438.8,130.8 438.9,131 439,131.1 439,131.2 439.1,131.4 439.2,131.5 439.4,131.6 439.5,131.7 439.6,131.8 439.7,131.9 439.9,131.9 
	440,132 440.1,132.1 440.3,132.1 440.5,132.2 440.6,132.2 440.8,132.2 440.9,132.3 441.1,132.3 441.2,132.3 441.4,132.2 
	441.5,132.2 441.7,132.2 441.9,132.1 442,132.1 442.1,132 442.3,131.9 442.4,131.9 442.5,131.8 442.7,131.7 442.8,131.6 
	442.9,131.5 443,131.3 443.1,131.2 443.2,131.1 443.3,130.9 443.3,130.8 443.4,130.6 443.5,130.5 443.5,130.4 443.5,130.2 
	443.5,130 443.6,129.9 443.6,129.7 443.5,129.6 443.5,129.4 443.5,129.2 443.5,129.1 443.4,128.9 443.4,128.8 "/>
<line class="st4" x1="380.4" y1="187.3" x2="450.1" y2="209.1"/>
<polygon class="st12" points="420.8,196 415.9,194.6 414.6,199.4 419.4,200.8 "/>
<polyline class="st4" points="375.5,28.1 375.5,8.1 460.2,8.1 459.8,43.7 "/>
<polygon class="st12" points="412.1,8.1 412.1,8.2 412.1,8.4 412.2,8.6 412.2,8.7 412.3,8.9 412.3,9 412.4,9.2 412.5,9.3 412.5,9.4 
	412.6,9.6 412.7,9.7 412.8,9.8 412.9,9.9 413.1,10 413.2,10.1 413.3,10.2 413.5,10.3 413.6,10.4 413.7,10.4 413.9,10.5 414,10.5 
	414.2,10.6 414.4,10.6 414.5,10.6 414.7,10.6 414.8,10.6 415,10.6 415.1,10.5 415.3,10.5 415.5,10.4 415.6,10.4 415.7,10.3 
	415.9,10.3 416,10.2 416.1,10.1 416.3,10 416.4,9.9 416.5,9.8 416.6,9.6 416.7,9.5 416.8,9.4 416.9,9.2 416.9,9.1 417,8.9 417,8.8 
	417.1,8.6 417.1,8.5 417.1,8.3 417.1,8.2 417.1,8 417.1,7.9 417.1,7.7 417.1,7.5 417,7.4 417,7.2 416.9,7.1 416.9,6.9 416.8,6.8 
	416.7,6.7 416.6,6.6 416.5,6.4 416.4,6.3 416.3,6.2 416.1,6.1 416,6 415.9,5.9 415.7,5.9 415.6,5.8 415.5,5.7 415.3,5.7 415.1,5.7 
	415,5.6 414.8,5.6 414.7,5.6 414.5,5.6 414.4,5.6 414.2,5.6 414,5.7 413.9,5.7 413.7,5.8 413.6,5.8 413.5,5.9 413.3,6 413.2,6.1 
	413.1,6.2 412.9,6.3 412.8,6.4 412.7,6.5 412.6,6.6 412.5,6.8 412.5,6.9 412.4,7 412.3,7.2 412.3,7.3 412.2,7.5 412.2,7.6 
	412.1,7.8 412.1,7.9 "/>
<polygon class="st12" points="423.6,5.6 418.6,5.6 418.6,10.6 423.6,10.6 "/>
<line class="st4" x1="408.6" y1="158.4" x2="426.8" y2="160.4"/>
<polygon class="st12" points="412,158.8 412,158.9 412,159.1 412,159.2 412,159.4 412,159.6 412,159.7 412.1,159.9 412.1,160 
	412.2,160.2 412.3,160.3 412.4,160.4 412.5,160.6 412.6,160.7 412.7,160.8 412.8,160.9 412.9,161 413,161.1 413.2,161.2 
	413.3,161.3 413.4,161.3 413.6,161.4 413.7,161.4 413.9,161.5 414,161.5 414.2,161.5 414.4,161.5 414.5,161.5 414.7,161.5 
	414.8,161.5 415,161.5 415.1,161.4 415.3,161.4 415.4,161.3 415.6,161.3 415.7,161.2 415.9,161.1 416,161 416.1,160.9 416.2,160.8 
	416.3,160.7 416.4,160.6 416.5,160.4 416.6,160.3 416.7,160.2 416.8,160 416.8,159.9 416.9,159.7 416.9,159.6 416.9,159.4 
	416.9,159.2 416.9,159.1 416.9,158.9 416.9,158.8 416.9,158.6 416.9,158.5 416.8,158.3 416.8,158.2 416.7,158 416.6,157.9 
	416.6,157.7 416.5,157.6 416.4,157.5 416.3,157.4 416.2,157.2 416,157.1 415.9,157 415.8,156.9 415.6,156.9 415.5,156.8 
	415.4,156.7 415.2,156.7 415.1,156.6 414.9,156.6 414.8,156.6 414.6,156.6 414.4,156.6 414.3,156.6 414.1,156.6 414,156.6 
	413.8,156.6 413.7,156.7 413.5,156.7 413.4,156.8 413.2,156.9 413.1,156.9 413,157 412.8,157.1 412.7,157.2 412.6,157.4 
	412.5,157.5 412.4,157.6 412.3,157.7 412.2,157.9 412.2,158 412.1,158.2 412.1,158.3 412,158.5 412,158.6 "/>
<polygon class="st12" points="423.6,157.6 418.7,157 418.1,162 423.1,162.5 "/>
<line class="st4" x1="380.5" y1="70.5" x2="398.6" y2="70.5"/>
<polygon class="st9" points="392.1,70.5 392.1,70.3 392.1,70.2 392,70 392,69.9 392,69.7 391.9,69.6 391.8,69.4 391.8,69.3 
	391.7,69.1 391.6,69 391.5,68.9 391.4,68.8 391.3,68.7 391.2,68.6 391,68.5 390.9,68.4 390.8,68.3 390.6,68.2 390.5,68.2 
	390.3,68.1 390.2,68.1 390,68 389.9,68 389.7,68 389.5,68 389.4,68 389.2,68 389.1,68.1 388.9,68.1 388.8,68.1 388.6,68.2 
	388.5,68.2 388.3,68.3 388.2,68.4 388.1,68.5 388,68.6 387.8,68.7 387.7,68.8 387.6,68.9 387.5,69.1 387.5,69.2 387.4,69.3 
	387.3,69.5 387.2,69.6 387.2,69.8 387.1,69.9 387.1,70.1 387.1,70.2 387.1,70.4 387.1,70.6 387.1,70.7 387.1,70.9 387.1,71 
	387.2,71.2 387.2,71.3 387.3,71.5 387.4,71.6 387.5,71.8 387.5,71.9 387.6,72 387.7,72.2 387.8,72.3 388,72.4 388.1,72.5 
	388.2,72.6 388.3,72.7 388.5,72.7 388.6,72.8 388.8,72.8 388.9,72.9 389.1,72.9 389.2,73 389.4,73 389.5,73 389.7,73 389.9,73 
	390,72.9 390.2,72.9 390.3,72.9 390.5,72.8 390.6,72.8 390.8,72.7 390.9,72.6 391,72.5 391.2,72.4 391.3,72.3 391.4,72.2 
	391.5,72.1 391.6,72 391.7,71.8 391.8,71.7 391.8,71.6 391.9,71.4 392,71.3 392,71.1 392,71 392.1,70.8 392.1,70.7 "/>
<line class="st4" x1="380.5" y1="45.5" x2="398.6" y2="45.5"/>
<polygon class="st9" points="383.9,45.5 383.9,45.7 383.9,45.8 383.9,46 383.9,46.2 384,46.3 384,46.5 384.1,46.6 384.2,46.8 
	384.2,46.9 384.3,47 384.4,47.1 384.5,47.2 384.6,47.4 384.8,47.5 384.9,47.6 385,47.7 385.2,47.7 385.3,47.8 385.5,47.9 
	385.6,47.9 385.8,48 385.9,48 386.1,48 386.2,48 386.4,48 386.5,48 386.7,48 386.9,48 387,47.9 387.2,47.9 387.3,47.8 387.5,47.8 
	387.6,47.7 387.7,47.6 387.9,47.5 388,47.4 388.1,47.3 388.2,47.2 388.3,47.1 388.4,47 388.5,46.8 388.6,46.7 388.6,46.5 
	388.7,46.4 388.7,46.2 388.8,46.1 388.8,45.9 388.8,45.8 388.8,45.6 388.8,45.5 388.8,45.3 388.8,45.1 388.8,45 388.7,44.8 
	388.7,44.7 388.6,44.5 388.6,44.4 388.5,44.2 388.4,44.1 388.3,44 388.2,43.9 388.1,43.8 388,43.7 387.9,43.5 387.7,43.5 
	387.6,43.4 387.5,43.3 387.3,43.2 387.2,43.2 387,43.1 386.9,43.1 386.7,43.1 386.5,43 386.4,43 386.2,43 386.1,43 385.9,43.1 
	385.8,43.1 385.6,43.2 385.5,43.2 385.3,43.3 385.2,43.3 385,43.4 384.9,43.5 384.8,43.6 384.6,43.7 384.5,43.8 384.4,43.9 
	384.3,44 384.2,44.2 384.2,44.3 384.1,44.5 384,44.6 384,44.8 383.9,44.9 383.9,45.1 383.9,45.2 383.9,45.4 "/>
<polygon class="st9" points="396.1,45.5 391.2,42.7 391.2,48.3 "/>
<polyline class="st4" points="429.8,203.2 447.3,273.3 430.5,273.3 "/>
<polygon class="st9" points="437.2,232.7 437,232.7 436.9,232.8 436.7,232.9 436.6,232.9 436.4,233 436.3,233.1 436.2,233.2 
	436.1,233.3 436,233.4 435.8,233.5 435.7,233.6 435.7,233.8 435.6,233.9 435.5,234.1 435.4,234.2 435.4,234.4 435.4,234.5 
	435.3,234.7 435.3,234.8 435.3,235 435.3,235.1 435.3,235.3 435.3,235.4 435.3,235.6 435.4,235.8 435.4,235.9 435.5,236.1 
	435.5,236.2 435.6,236.4 435.7,236.5 435.8,236.6 435.9,236.7 436,236.9 436.1,237 436.2,237.1 436.3,237.2 436.5,237.2 
	436.6,237.3 436.7,237.4 436.9,237.5 437,237.5 437.2,237.6 437.4,237.6 437.5,237.6 437.7,237.6 437.8,237.6 438,237.6 
	438.1,237.6 438.3,237.6 438.5,237.5 438.6,237.5 438.8,237.4 438.9,237.3 439,237.3 439.2,237.2 439.3,237.1 439.4,237 
	439.5,236.9 439.6,236.8 439.7,236.6 439.8,236.5 439.9,236.4 440,236.2 440.1,236.1 440.1,235.9 440.2,235.8 440.2,235.6 
	440.2,235.5 440.2,235.3 440.3,235.2 440.3,235 440.2,234.9 440.2,234.7 440.2,234.6 440.1,234.4 440.1,234.2 440,234.1 440,234 
	439.9,233.8 439.8,233.7 439.7,233.6 439.6,233.4 439.5,233.3 439.4,233.2 439.3,233.1 439.1,233 439,232.9 438.9,232.9 
	438.7,232.8 438.6,232.8 438.4,232.7 438.3,232.7 438.1,232.6 437.9,232.6 437.8,232.6 437.6,232.6 437.5,232.6 437.3,232.7 "/>
<polygon class="st9" points="440.1,244.6 441.7,239.2 436.2,240.5 "/>
<line class="st4" x1="400.8" y1="240.2" x2="403.4" y2="190.9"/>
<polygon class="st9" points="401.8,221.3 401.9,221.3 402.1,221.3 402.2,221.3 402.4,221.2 402.5,221.2 402.7,221.2 402.9,221.1 
	403,221.1 403.1,221 403.3,220.9 403.4,220.8 403.5,220.7 403.6,220.6 403.8,220.5 403.9,220.4 404,220.2 404,220.1 404.1,220 
	404.2,219.8 404.2,219.7 404.3,219.5 404.3,219.4 404.4,219.2 404.4,219.1 404.4,218.9 404.4,218.7 404.4,218.6 404.4,218.4 
	404.3,218.3 404.3,218.1 404.2,218 404.2,217.8 404.1,217.7 404,217.5 404,217.4 403.9,217.3 403.8,217.1 403.7,217 403.5,216.9 
	403.4,216.8 403.3,216.7 403.2,216.6 403,216.6 402.9,216.5 402.7,216.4 402.6,216.4 402.4,216.4 402.3,216.3 402.1,216.3 
	402,216.3 401.8,216.3 401.6,216.3 401.5,216.3 401.3,216.4 401.2,216.4 401,216.5 400.9,216.5 400.7,216.6 400.6,216.7 
	400.5,216.8 400.3,216.9 400.2,217 400.1,217.1 400,217.2 399.9,217.3 399.8,217.4 399.7,217.6 399.6,217.7 399.6,217.9 399.5,218 
	399.5,218.2 399.5,218.3 399.4,218.5 399.4,218.6 399.4,218.8 399.4,218.9 399.4,219.1 399.4,219.3 399.5,219.4 399.5,219.6 
	399.6,219.7 399.6,219.9 399.7,220 399.8,220.1 399.9,220.3 400,220.4 400.1,220.5 400.2,220.6 400.3,220.7 400.4,220.8 
	400.6,220.9 400.7,221 400.9,221.1 401,221.1 401.1,221.2 401.3,221.2 401.5,221.3 401.6,221.3 "/>
<polygon class="st9" points="402.4,209.1 399.4,213.8 405,214.1 "/>
<line class="st4" x1="392.2" y1="224.7" x2="402.5" y2="178.3"/>
<polygon class="st9" points="396,207.9 399.8,203.7 394.3,202.5 "/>
<polygon class="st9" points="398.6,195.9 398.5,195.9 398.3,195.9 398.2,195.9 398,195.9 397.9,195.9 397.7,195.9 397.5,195.9 
	397.4,196 397.2,196 397.1,196.1 396.9,196.1 396.8,196.2 396.7,196.3 396.5,196.4 396.4,196.5 396.3,196.6 396.2,196.7 
	396.1,196.9 396,197 395.9,197.1 395.9,197.3 395.8,197.4 395.7,197.6 395.7,197.7 395.6,197.9 395.6,198 395.6,198.2 395.6,198.3 
	395.6,198.5 395.6,198.6 395.6,198.8 395.7,199 395.7,199.1 395.8,199.3 395.8,199.4 395.9,199.5 396,199.7 396.1,199.8 
	396.2,199.9 396.3,200.1 396.4,200.2 396.5,200.3 396.6,200.4 396.8,200.5 396.9,200.5 397,200.6 397.2,200.7 397.3,200.7 
	397.5,200.8 397.6,200.8 397.8,200.8 397.9,200.9 398.1,200.9 398.3,200.9 398.4,200.8 398.6,200.8 398.7,200.8 398.9,200.7 
	399,200.7 399.2,200.6 399.3,200.5 399.5,200.4 399.6,200.4 399.7,200.3 399.8,200.2 399.9,200 400,199.9 400.1,199.8 400.2,199.7 
	400.3,199.5 400.4,199.4 400.4,199.2 400.5,199.1 400.5,198.9 400.5,198.8 400.6,198.6 400.6,198.5 400.6,198.3 400.6,198.1 
	400.6,198 400.5,197.8 400.5,197.7 400.5,197.5 400.4,197.4 400.3,197.2 400.2,197.1 400.2,197 400.1,196.8 400,196.7 399.9,196.6 
	399.8,196.5 399.6,196.4 399.5,196.3 399.4,196.2 399.2,196.1 399.1,196.1 398.9,196 398.8,196 "/>
<polyline class="st4" points="389.6,19 391.1,14.3 457.5,14.3 456.9,28.1 "/>
<polygon class="st12" points="418.6,16.8 423.6,16.8 423.6,11.8 418.6,11.8 "/>
<polygon class="st12" points="430.1,14.3 430,14.2 430,14 430,13.9 430,13.7 429.9,13.6 429.9,13.4 429.8,13.3 429.7,13.1 429.7,13 
	429.6,12.9 429.5,12.7 429.4,12.6 429.3,12.5 429.1,12.4 429,12.3 428.9,12.2 428.7,12.1 428.6,12.1 428.5,12 428.3,11.9 
	428.1,11.9 428,11.9 427.8,11.9 427.7,11.8 427.5,11.8 427.4,11.9 427.2,11.9 427,11.9 426.9,11.9 426.8,12 426.6,12 426.5,12.1 
	426.3,12.2 426.2,12.3 426,12.4 425.9,12.4 425.8,12.6 425.7,12.7 425.6,12.8 425.5,12.9 425.4,13.1 425.3,13.2 425.3,13.3 
	425.2,13.5 425.2,13.6 425.1,13.8 425.1,13.9 425.1,14.1 425.1,14.2 425.1,14.4 425.1,14.6 425.1,14.7 425.1,14.9 425.2,15 
	425.2,15.2 425.3,15.3 425.3,15.5 425.4,15.6 425.5,15.8 425.6,15.9 425.7,16 425.8,16.1 425.9,16.2 426,16.3 426.2,16.4 
	426.3,16.5 426.5,16.6 426.6,16.6 426.8,16.7 426.9,16.7 427,16.8 427.2,16.8 427.4,16.8 427.5,16.8 427.7,16.8 427.8,16.8 
	428,16.8 428.1,16.8 428.3,16.7 428.5,16.7 428.6,16.6 428.7,16.5 428.9,16.5 429,16.4 429.1,16.3 429.3,16.2 429.4,16.1 
	429.5,15.9 429.6,15.8 429.7,15.7 429.7,15.6 429.8,15.4 429.9,15.3 429.9,15.1 430,15 430,14.8 430,14.6 430,14.5 "/>
<polyline class="st4" points="406.4,62.2 409.9,67.4 447.3,67.4 450,64.7 "/>
<polygon class="st12" points="422.1,67.4 427,70.2 427,64.6 "/>
<polygon class="st12" points="434.3,67.4 434.3,67.2 434.3,67.1 434.3,66.9 434.2,66.7 434.2,66.6 434.1,66.4 434.1,66.3 434,66.2 
	433.9,66 433.8,65.9 433.7,65.8 433.6,65.7 433.5,65.5 433.4,65.4 433.3,65.3 433.1,65.2 433,65.2 432.9,65.1 432.7,65 432.6,65 
	432.4,64.9 432.3,64.9 432.1,64.9 432,64.9 431.8,64.9 431.6,64.9 431.5,64.9 431.3,64.9 431.2,65 431,65 430.9,65.1 430.7,65.1 
	430.6,65.2 430.5,65.3 430.3,65.4 430.2,65.5 430.1,65.6 430,65.7 429.9,65.8 429.8,66 429.7,66.1 429.6,66.2 429.5,66.4 
	429.5,66.5 429.4,66.7 429.4,66.8 429.4,67 429.4,67.1 429.3,67.3 429.3,67.4 429.4,67.6 429.4,67.8 429.4,67.9 429.4,68.1 
	429.5,68.2 429.5,68.4 429.6,68.5 429.7,68.7 429.8,68.8 429.9,68.9 430,69 430.1,69.2 430.2,69.3 430.3,69.4 430.5,69.4 
	430.6,69.5 430.7,69.6 430.9,69.7 431,69.7 431.2,69.8 431.3,69.8 431.5,69.8 431.6,69.9 431.8,69.9 432,69.9 432.1,69.8 
	432.3,69.8 432.4,69.8 432.6,69.8 432.7,69.7 432.9,69.6 433,69.6 433.1,69.5 433.3,69.4 433.4,69.3 433.5,69.2 433.6,69.1 
	433.7,69 433.8,68.8 433.9,68.7 434,68.6 434.1,68.4 434.1,68.3 434.2,68.2 434.2,68 434.3,67.8 434.3,67.7 434.3,67.5 "/>
<line class="st4" x1="380.4" y1="156.5" x2="448.7" y2="137.4"/>
<polygon class="st12" points="417,146.2 416.9,146.1 416.9,146 416.8,145.8 416.7,145.7 416.6,145.5 416.5,145.4 416.4,145.3 
	416.3,145.2 416.2,145.1 416.1,145 416,144.9 415.8,144.8 415.7,144.7 415.5,144.6 415.4,144.6 415.2,144.5 415.1,144.5 
	414.9,144.5 414.8,144.4 414.6,144.4 414.5,144.4 414.3,144.4 414.1,144.5 414,144.5 413.8,144.5 413.7,144.6 413.5,144.6 
	413.4,144.7 413.3,144.8 413.1,144.9 413,145 412.9,145.1 412.8,145.2 412.7,145.3 412.6,145.4 412.5,145.6 412.4,145.7 
	412.3,145.8 412.2,146 412.2,146.1 412.1,146.3 412.1,146.4 412.1,146.6 412.1,146.7 412,146.9 412.1,147.1 412.1,147.2 
	412.1,147.4 412.1,147.5 412.2,147.7 412.2,147.8 412.3,148 412.4,148.1 412.4,148.2 412.5,148.4 412.6,148.5 412.7,148.6 
	412.8,148.7 413,148.8 413.1,148.9 413.2,149 413.3,149.1 413.5,149.2 413.6,149.2 413.8,149.3 413.9,149.4 414.1,149.4 
	414.2,149.4 414.4,149.4 414.6,149.4 414.7,149.4 414.9,149.4 415,149.4 415.2,149.3 415.3,149.3 415.5,149.2 415.6,149.2 
	415.8,149.1 415.9,149 416,148.9 416.2,148.8 416.3,148.7 416.4,148.6 416.5,148.5 416.6,148.4 416.7,148.2 416.8,148.1 416.8,148 
	416.9,147.8 416.9,147.7 417,147.5 417,147.4 417,147.2 417,147 417,146.9 417,146.7 417,146.6 417,146.4 "/>
<line class="st4" x1="384.2" y1="172.7" x2="431.1" y2="154.5"/>
<polygon class="st12" points="395.3,168.3 400.9,169.2 398.8,164 "/>
<polygon class="st12" points="404.9,163.7 404.8,163.6 404.7,163.4 404.7,163.3 404.6,163.1 404.5,163 404.4,162.9 404.3,162.8 
	404.1,162.7 404,162.6 403.9,162.5 403.8,162.4 403.6,162.4 403.5,162.3 403.3,162.2 403.2,162.2 403,162.2 402.9,162.1 
	402.7,162.1 402.5,162.1 402.4,162.1 402.2,162.1 402.1,162.2 401.9,162.2 401.8,162.2 401.6,162.3 401.5,162.4 401.3,162.4 
	401.2,162.5 401,162.6 400.9,162.7 400.8,162.8 400.7,162.9 400.6,163.1 400.5,163.2 400.4,163.3 400.3,163.4 400.3,163.6 
	400.2,163.7 400.2,163.9 400.1,164 400.1,164.2 400.1,164.4 400,164.5 400,164.7 400.1,164.8 400.1,165 400.1,165.1 400.1,165.3 
	400.2,165.4 400.2,165.6 400.3,165.7 400.4,165.9 400.5,166 400.6,166.1 400.7,166.3 400.8,166.4 400.9,166.5 401,166.6 
	401.1,166.7 401.3,166.8 401.4,166.8 401.6,166.9 401.7,167 401.9,167 402,167.1 402.2,167.1 402.3,167.1 402.5,167.1 402.6,167.1 
	402.8,167.1 403,167.1 403.1,167 403.3,167 403.4,166.9 403.6,166.9 403.7,166.8 403.8,166.8 404,166.7 404.1,166.6 404.2,166.5 
	404.3,166.4 404.4,166.2 404.5,166.1 404.6,166 404.7,165.9 404.8,165.7 404.9,165.6 404.9,165.4 405,165.3 405,165.1 405,164.9 
	405,164.8 405,164.6 405,164.5 405,164.3 405,164.2 405,164 404.9,163.9 "/>
<polyline class="st4" points="426.7,215.7 444.2,285.8 430.5,285.8 "/>
<polygon class="st9" points="434,245.2 433.9,245.2 433.7,245.3 433.6,245.3 433.5,245.4 433.3,245.5 433.2,245.6 433.1,245.7 
	432.9,245.8 432.8,245.9 432.7,246 432.6,246.1 432.5,246.3 432.5,246.4 432.4,246.5 432.3,246.7 432.3,246.8 432.2,247 
	432.2,247.1 432.2,247.3 432.1,247.5 432.1,247.6 432.1,247.8 432.2,247.9 432.2,248.1 432.2,248.2 432.3,248.4 432.3,248.5 
	432.4,248.7 432.5,248.8 432.6,249 432.6,249.1 432.7,249.2 432.9,249.3 433,249.4 433.1,249.5 433.2,249.6 433.3,249.7 
	433.5,249.8 433.6,249.9 433.8,249.9 433.9,250 434.1,250 434.2,250.1 434.4,250.1 434.5,250.1 434.7,250.1 434.9,250.1 435,250.1 
	435.2,250 435.3,250 435.5,249.9 435.6,249.9 435.8,249.8 435.9,249.8 436,249.7 436.2,249.6 436.3,249.5 436.4,249.4 436.5,249.2 
	436.6,249.1 436.7,249 436.8,248.9 436.9,248.7 436.9,248.6 437,248.4 437,248.3 437.1,248.1 437.1,248 437.1,247.8 437.1,247.7 
	437.1,247.5 437.1,247.3 437.1,247.2 437.1,247 437,246.9 437,246.7 436.9,246.6 436.9,246.4 436.8,246.3 436.7,246.2 436.6,246 
	436.5,245.9 436.4,245.8 436.3,245.7 436.1,245.6 436,245.5 435.9,245.4 435.7,245.4 435.6,245.3 435.4,245.2 435.3,245.2 
	435.1,245.1 435,245.1 434.8,245.1 434.7,245.1 434.5,245.1 434.4,245.1 434.2,245.1 "/>
<polygon class="st9" points="437,257 438.5,251.6 433.1,253 "/>
<line class="st4" x1="396.1" y1="229.1" x2="448.6" y2="223.9"/>
<polygon class="st12" points="416.6,227.1 416.7,227.2 416.7,227.4 416.7,227.5 416.8,227.7 416.8,227.8 416.9,228 417,228.1 
	417.1,228.2 417.2,228.4 417.3,228.5 417.4,228.6 417.5,228.7 417.6,228.8 417.8,228.9 417.9,229 418,229.1 418.2,229.1 
	418.3,229.2 418.5,229.2 418.6,229.2 418.8,229.3 418.9,229.3 419.1,229.3 419.2,229.3 419.4,229.3 419.6,229.3 419.7,229.2 
	419.9,229.2 420,229.1 420.2,229.1 420.3,229 420.4,228.9 420.6,228.8 420.7,228.7 420.8,228.6 420.9,228.5 421,228.4 421.1,228.3 
	421.2,228.1 421.3,228 421.4,227.9 421.4,227.7 421.5,227.6 421.5,227.4 421.6,227.3 421.6,227.1 421.6,226.9 421.6,226.8 
	421.6,226.6 421.6,226.5 421.6,226.3 421.5,226.2 421.5,226 421.4,225.9 421.4,225.7 421.3,225.6 421.2,225.4 421.1,225.3 
	421,225.2 420.9,225.1 420.8,225 420.7,224.9 420.6,224.8 420.4,224.7 420.3,224.6 420.1,224.5 420,224.5 419.9,224.4 419.7,224.4 
	419.5,224.4 419.4,224.3 419.2,224.3 419.1,224.3 418.9,224.3 418.8,224.3 418.6,224.4 418.4,224.4 418.3,224.4 418.1,224.5 
	418,224.6 417.9,224.6 417.7,224.7 417.6,224.8 417.5,224.9 417.4,225 417.2,225.1 417.1,225.3 417.1,225.4 417,225.5 416.9,225.7 
	416.8,225.8 416.8,226 416.7,226.1 416.7,226.3 416.6,226.4 416.6,226.6 416.6,226.7 416.6,226.9 "/>
<polygon class="st12" points="428.8,225.8 423.7,223.5 424.2,229.1 "/>
<line class="st4" x1="408.2" y1="183.9" x2="427.1" y2="175.5"/>
<polygon class="st12" points="412.4,182 412.5,182.2 412.6,182.3 412.6,182.4 412.8,182.6 412.9,182.7 413,182.8 413.1,182.9 
	413.2,183 413.3,183.1 413.5,183.2 413.6,183.2 413.8,183.3 413.9,183.4 414,183.4 414.2,183.4 414.4,183.5 414.5,183.5 
	414.7,183.5 414.8,183.5 415,183.5 415.1,183.5 415.3,183.4 415.5,183.4 415.6,183.3 415.8,183.3 415.9,183.2 416,183.1 416.2,183 
	416.3,182.9 416.4,182.8 416.5,182.7 416.6,182.6 416.7,182.5 416.8,182.3 416.9,182.2 417,182.1 417,181.9 417.1,181.8 
	417.1,181.6 417.2,181.5 417.2,181.3 417.2,181.1 417.2,181 417.2,180.8 417.2,180.7 417.1,180.5 417.1,180.4 417.1,180.2 
	417,180.1 417,179.9 416.9,179.8 416.8,179.6 416.7,179.5 416.6,179.4 416.5,179.3 416.4,179.2 416.3,179.1 416.1,179 416,178.9 
	415.9,178.8 415.7,178.7 415.6,178.7 415.4,178.6 415.3,178.6 415.1,178.5 415,178.5 414.8,178.5 414.6,178.5 414.5,178.5 
	414.3,178.5 414.2,178.6 414,178.6 413.9,178.6 413.7,178.7 413.6,178.8 413.4,178.9 413.3,178.9 413.2,179 413.1,179.1 
	412.9,179.2 412.8,179.4 412.7,179.5 412.6,179.6 412.5,179.7 412.5,179.9 412.4,180 412.4,180.2 412.3,180.3 412.3,180.5 
	412.2,180.6 412.2,180.8 412.2,180.9 412.2,181.1 412.2,181.2 412.2,181.4 412.3,181.6 412.3,181.7 412.4,181.9 "/>
<polygon class="st12" points="421.9,175.1 417.3,177.1 419.4,181.7 423.9,179.6 "/>
<polyline class="st4" points="432.7,190.8 447.3,260.1 430.5,260.6 "/>
<polygon class="st9" points="438.7,219.1 436.9,224.4 442.4,223.3 "/>
<polygon class="st9" points="441.2,231.1 441.4,231 441.5,231 441.6,230.9 441.8,230.9 441.9,230.8 442.1,230.7 442.2,230.6 
	442.3,230.5 442.4,230.4 442.5,230.3 442.6,230.2 442.8,230 442.8,229.9 442.9,229.8 443,229.6 443,229.5 443.1,229.3 443.1,229.2 
	443.1,229 443.2,228.9 443.2,228.7 443.2,228.6 443.2,228.4 443.1,228.2 443.1,228.1 443.1,227.9 443,227.8 443,227.6 442.9,227.5 
	442.8,227.3 442.7,227.2 442.6,227.1 442.5,227 442.4,226.9 442.3,226.7 442.2,226.6 442.1,226.6 441.9,226.5 441.8,226.4 
	441.6,226.3 441.5,226.3 441.4,226.2 441.2,226.2 441,226.2 440.9,226.1 440.7,226.1 440.6,226.1 440.4,226.1 440.2,226.2 
	440.1,226.2 439.9,226.2 439.8,226.3 439.6,226.4 439.5,226.4 439.4,226.5 439.2,226.6 439.1,226.7 439,226.8 438.9,226.9 
	438.8,227 438.7,227.1 438.6,227.3 438.5,227.4 438.4,227.6 438.4,227.7 438.3,227.9 438.3,228 438.2,228.2 438.2,228.3 
	438.2,228.5 438.2,228.6 438.2,228.8 438.2,228.9 438.2,229.1 438.3,229.3 438.3,229.4 438.4,229.6 438.4,229.7 438.5,229.8 
	438.6,230 438.7,230.1 438.8,230.2 438.9,230.4 439,230.5 439.1,230.6 439.2,230.7 439.4,230.8 439.5,230.8 439.6,230.9 439.8,231 
	440,231 440.1,231.1 440.3,231.1 440.4,231.1 440.6,231.1 440.7,231.1 440.9,231.1 441,231.1 "/>
<line class="st4" x1="433.3" y1="31.5" x2="442.6" y2="28.4"/>
<polygon class="st9" points="431.8,32 437.3,33.1 435.5,27.8 "/>
<polygon class="st9" points="442.6,25.8 437.9,27.3 439.5,32.1 444.2,30.5 "/>
<polyline class="st4" points="433.5,46.6 456.7,51.8 456.3,52.2 "/>
<polygon class="st9" points="438.7,47.8 442.9,51.6 444.1,46.1 "/>
<polygon class="st9" points="450.7,50.4 450.7,50.3 450.7,50.1 450.7,50 450.7,49.8 450.7,49.7 450.7,49.5 450.7,49.3 450.6,49.2 
	450.6,49 450.5,48.9 450.4,48.8 450.4,48.6 450.3,48.5 450.2,48.3 450.1,48.2 450,48.1 449.9,48 449.7,47.9 449.6,47.8 449.5,47.7 
	449.3,47.7 449.2,47.6 449,47.5 448.9,47.5 448.7,47.5 448.6,47.4 448.4,47.4 448.3,47.4 448.1,47.4 447.9,47.4 447.8,47.4 
	447.6,47.5 447.5,47.5 447.3,47.6 447.2,47.6 447,47.7 446.9,47.8 446.8,47.9 446.6,48 446.5,48.1 446.4,48.2 446.3,48.3 
	446.2,48.4 446.1,48.5 446,48.7 446,48.8 445.9,49 445.9,49.1 445.8,49.3 445.8,49.4 445.8,49.6 445.7,49.8 445.7,49.9 445.7,50.1 
	445.8,50.2 445.8,50.4 445.8,50.5 445.9,50.7 445.9,50.8 446,51 446,51.1 446.1,51.2 446.2,51.4 446.3,51.5 446.4,51.6 446.5,51.7 
	446.7,51.8 446.8,51.9 446.9,52 447.1,52.1 447.2,52.2 447.4,52.2 447.5,52.3 447.6,52.3 447.8,52.4 448,52.4 448.1,52.4 
	448.3,52.4 448.4,52.4 448.6,52.4 448.8,52.3 448.9,52.3 449.1,52.2 449.2,52.2 449.4,52.1 449.5,52 449.6,52 449.8,51.9 
	449.9,51.8 450,51.7 450.1,51.5 450.2,51.4 450.3,51.3 450.4,51.2 450.5,51 450.5,50.9 450.6,50.7 450.6,50.6 "/>
<line class="st4" x1="449.6" y1="242" x2="429.4" y2="257.7"/>
<polygon class="st9" points="444,246.4 443.9,246.2 443.8,246.1 443.7,246 443.6,245.9 443.5,245.8 443.3,245.7 443.2,245.7 
	443,245.6 442.9,245.5 442.8,245.5 442.6,245.4 442.4,245.4 442.3,245.4 442.1,245.4 442,245.4 441.8,245.4 441.6,245.4 
	441.5,245.5 441.3,245.5 441.2,245.6 441,245.6 440.9,245.7 440.8,245.8 440.6,245.9 440.5,245.9 440.4,246.1 440.3,246.2 
	440.2,246.3 440.1,246.4 440,246.5 439.9,246.7 439.8,246.8 439.8,246.9 439.7,247.1 439.6,247.2 439.6,247.4 439.6,247.6 
	439.6,247.7 439.6,247.9 439.6,248 439.6,248.2 439.6,248.4 439.6,248.5 439.7,248.7 439.8,248.8 439.8,248.9 439.9,249.1 
	440,249.2 440,249.4 440.1,249.5 440.2,249.6 440.4,249.7 440.5,249.8 440.6,249.9 440.7,250 440.9,250.1 441,250.2 441.2,250.2 
	441.3,250.3 441.5,250.3 441.6,250.4 441.8,250.4 441.9,250.4 442.1,250.4 442.2,250.4 442.4,250.4 442.6,250.3 442.7,250.3 
	442.9,250.2 443,250.2 443.2,250.1 443.3,250.1 443.4,250 443.6,249.9 443.7,249.8 443.8,249.7 443.9,249.6 444,249.4 444.1,249.3 
	444.2,249.2 444.3,249.1 444.4,248.9 444.4,248.8 444.5,248.6 444.5,248.4 444.5,248.3 444.5,248.1 444.6,248 444.6,247.8 
	444.5,247.7 444.5,247.5 444.5,247.4 444.5,247.2 444.4,247.1 444.4,246.9 444.3,246.8 444.2,246.6 444.1,246.5 "/>
<polygon class="st9" points="436.5,255.4 440.5,252.3 437.4,248.4 433.4,251.4 "/>
<line class="st4" x1="448.7" y1="240.1" x2="430.3" y2="244.1"/>
<polygon class="st9" points="445.8,240.7 440.5,239 441.7,244.5 "/>
<polygon class="st9" points="434.4,245.8 439.3,244.7 438.2,239.8 433.4,240.9 "/>
<text transform="matrix(1 0 0 1 396.37 391.36)" class="st1 st2 st3">G</text>
<line class="st4" x1="405.5" y1="386.5" x2="420.5" y2="386.5"/>
<text transform="matrix(0.98 0 0 1 398.2202 230.6299)" class="st2 st13">DFHBI-1</text>
<text transform="matrix(0.98 0 0 1 437.2437 230.6299)" class="st2 st13">T</text>
<text transform="matrix(1 0 0 1 26.76 32.58)" class="st2 st14">Squash RN</text>
<text transform="matrix(1 0 0 1 129.04 32.58)" class="st2 st14 st15">A</text>
<text transform="matrix(1 0 0 1 141.27 32.58)" class="st2 st14"> aptamer</text>
<text transform="matrix(1 0 0 1 366.19 395.5977)" class="st2 st16">5’</text>
<text transform="matrix(1 0 0 1 442.065 395.5977)" class="st2 st16">3’</text>
</svg>
