<svg id="图层_1" data-name="图层 1" xmlns="http://www.w3.org/2000/svg" viewBox="0 0 800 400"><defs><style>.cls-1{fill:#09fefe;}.cls-2{fill:pink;}.cls-3{fill:none;stroke:#000;stroke-linejoin:round;stroke-width:1.33px;}.cls-4{fill:#f0f;}.cls-5{fill:teal;}.cls-6{fill:#32cd32;}.cls-7{fill:#c2c2ff;}.cls-8{font-size:20px;}.cls-11,.cls-8{font-family:ArialMT, Arial;}.cls-9{letter-spacing:-0.06em;}.cls-10{fill:#ff0;}.cls-11{font-size:15px;}.cls-12{letter-spacing:-0.04em;}</style></defs><title>Streptomycin_aptamer_2D</title><path class="cls-1" d="M395.08,46.61V44.43H403v6.9a14,14,0,0,1-3.73,2.17,11.27,11.27,0,0,1-4,.72,10.53,10.53,0,0,1-5-1.17,7.74,7.74,0,0,1-3.38-3.39,10.68,10.68,0,0,1-1.14-4.95,11.61,11.61,0,0,1,1.13-5.07,7.6,7.6,0,0,1,3.27-3.49,10.22,10.22,0,0,1,4.9-1.14,9.85,9.85,0,0,1,3.65.65,6.13,6.13,0,0,1,2.55,1.82,8,8,0,0,1,1.41,3l-2.22.61a7,7,0,0,0-1-2.23,4.26,4.26,0,0,0-1.77-1.3,6.65,6.65,0,0,0-2.57-.49,7.38,7.38,0,0,0-2.91.52,5.39,5.39,0,0,0-2,1.35A6.39,6.39,0,0,0,389,40.81a9.73,9.73,0,0,0-.71,3.74,9,9,0,0,0,.86,4.15,5.46,5.46,0,0,0,2.49,2.49,7.72,7.72,0,0,0,3.47.81,8.23,8.23,0,0,0,3.12-.62,8.34,8.34,0,0,0,2.31-1.31V46.61Z"/><path class="cls-1" d="M395.08,66V63.82H403v6.89a13.71,13.71,0,0,1-3.73,2.17,11.06,11.06,0,0,1-4,.73,10.53,10.53,0,0,1-5-1.17,7.74,7.74,0,0,1-3.38-3.39,10.69,10.69,0,0,1-1.14-5A11.6,11.6,0,0,1,386.9,59a7.55,7.55,0,0,1,3.27-3.49,10.22,10.22,0,0,1,4.9-1.14,9.65,9.65,0,0,1,3.65.65,6,6,0,0,1,2.55,1.82,8,8,0,0,1,1.41,3l-2.22.61a6.92,6.92,0,0,0-1-2.23,4.18,4.18,0,0,0-1.77-1.3,6.47,6.47,0,0,0-2.57-.49,7.57,7.57,0,0,0-2.91.51,5.64,5.64,0,0,0-2,1.35A6.52,6.52,0,0,0,389,60.2a9.81,9.81,0,0,0-.71,3.74,9,9,0,0,0,.86,4.16,5.49,5.49,0,0,0,2.49,2.48,7.6,7.6,0,0,0,3.47.82,8.23,8.23,0,0,0,3.12-.62,8.09,8.09,0,0,0,2.31-1.32V66Z"/><path class="cls-1" d="M385.79,92.69l7.14-18.58h2.65l7.6,18.58h-2.8l-2.17-5.62h-7.77l-2,5.62Zm5.36-7.63h6.3l-1.94-5.14c-.59-1.57-1-2.85-1.31-3.86a24.16,24.16,0,0,1-1,3.55Z"/><path class="cls-1" d="M399.3,93.51h2.46v10.73a12.78,12.78,0,0,1-.63,4.45,5.38,5.38,0,0,1-2.29,2.68,8.08,8.08,0,0,1-4.34,1,8.93,8.93,0,0,1-4.27-.89,5.11,5.11,0,0,1-2.37-2.61,12.46,12.46,0,0,1-.71-4.66V93.51h2.46v10.72a10.5,10.5,0,0,0,.45,3.57,3.45,3.45,0,0,0,1.54,1.77,5.46,5.46,0,0,0,2.69.62,5.12,5.12,0,0,0,3.86-1.23c.77-.82,1.15-2.4,1.15-4.73Z"/><path class="cls-1" d="M400.37,125l2.46.62a8.3,8.3,0,0,1-2.79,4.62,7.66,7.66,0,0,1-4.91,1.59,8.84,8.84,0,0,1-4.88-1.22,7.67,7.67,0,0,1-2.87-3.55,12.68,12.68,0,0,1-1-5,10.94,10.94,0,0,1,1.11-5.06,7.57,7.57,0,0,1,3.15-3.28,9.22,9.22,0,0,1,4.51-1.12,7.6,7.6,0,0,1,4.69,1.42,7.33,7.33,0,0,1,2.65,4l-2.42.58a5.68,5.68,0,0,0-1.88-3,5,5,0,0,0-3.09-.92,6,6,0,0,0-3.58,1,5.47,5.47,0,0,0-2,2.76,11.12,11.12,0,0,0-.58,3.57,11.36,11.36,0,0,0,.69,4.14,5.13,5.13,0,0,0,2.15,2.64,6,6,0,0,0,3.15.88,5.32,5.32,0,0,0,3.5-1.19A6.14,6.14,0,0,0,400.37,125Z"/><path class="cls-2" d="M414.48,124.2V122h7.87v6.89a13.76,13.76,0,0,1-3.74,2.17,11,11,0,0,1-3.95.73,10.57,10.57,0,0,1-5-1.17,7.72,7.72,0,0,1-3.37-3.39,10.57,10.57,0,0,1-1.15-5,11.47,11.47,0,0,1,1.14-5.06,7.48,7.48,0,0,1,3.26-3.49,10.26,10.26,0,0,1,4.91-1.14,9.59,9.59,0,0,1,3.64.65,6.08,6.08,0,0,1,2.56,1.82,8.09,8.09,0,0,1,1.4,3l-2.21.61a6.92,6.92,0,0,0-1-2.23,4.28,4.28,0,0,0-1.78-1.3,6.42,6.42,0,0,0-2.56-.49,7.66,7.66,0,0,0-2.92.51,5.59,5.59,0,0,0-2,1.35,6.52,6.52,0,0,0-1.17,1.84,9.62,9.62,0,0,0-.71,3.74,9.09,9.09,0,0,0,.85,4.16,5.46,5.46,0,0,0,2.5,2.48,7.7,7.7,0,0,0,3.47.82,8.3,8.3,0,0,0,3.12-.62,8.09,8.09,0,0,0,2.31-1.32V124.2Z"/><path class="cls-2" d="M444,125l2.46.62a8.29,8.29,0,0,1-2.78,4.62,7.67,7.67,0,0,1-4.91,1.59,8.86,8.86,0,0,1-4.89-1.22A7.73,7.73,0,0,1,431,127a12.68,12.68,0,0,1-1-5,10.94,10.94,0,0,1,1.11-5.06,7.59,7.59,0,0,1,3.16-3.28,9.19,9.19,0,0,1,4.5-1.12A7.6,7.6,0,0,1,443.5,114a7.33,7.33,0,0,1,2.65,4l-2.42.58a5.73,5.73,0,0,0-1.87-3,5.07,5.07,0,0,0-3.1-.92,6,6,0,0,0-3.58,1,5.47,5.47,0,0,0-2,2.76,11.12,11.12,0,0,0-.58,3.57,11.36,11.36,0,0,0,.69,4.14,5.13,5.13,0,0,0,2.15,2.64,6,6,0,0,0,3.15.88,5.3,5.3,0,0,0,3.5-1.19A6.14,6.14,0,0,0,444,125Z"/><path class="cls-2" d="M448.83,131.49,456,112.9h2.66l7.6,18.59h-2.8l-2.17-5.63h-7.77l-2,5.63Zm5.36-7.64h6.3l-1.94-5.14c-.59-1.56-1-2.85-1.32-3.86a22.64,22.64,0,0,1-1,3.55Z"/><path class="cls-2" d="M472,137.15h2.46v10.73a12.78,12.78,0,0,1-.63,4.45,5.39,5.39,0,0,1-2.29,2.68,8.12,8.12,0,0,1-4.35,1,8.88,8.88,0,0,1-4.26-.9,5.13,5.13,0,0,1-2.37-2.6,12.35,12.35,0,0,1-.71-4.67V137.15h2.45v10.72a10.46,10.46,0,0,0,.45,3.57,3.47,3.47,0,0,0,1.55,1.77,5.42,5.42,0,0,0,2.68.62,5.13,5.13,0,0,0,3.87-1.23c.77-.82,1.15-2.4,1.15-4.73Z"/><path class="cls-2" d="M346.59,148.45v-2.19h7.87v6.9a14,14,0,0,1-3.73,2.17,11.28,11.28,0,0,1-4,.73,10.57,10.57,0,0,1-5-1.17,7.8,7.8,0,0,1-3.37-3.4,10.68,10.68,0,0,1-1.14-4.95,11.4,11.4,0,0,1,1.13-5.06,7.56,7.56,0,0,1,3.26-3.5,10.26,10.26,0,0,1,4.91-1.14,9.68,9.68,0,0,1,3.65.66,6.09,6.09,0,0,1,2.55,1.81,8,8,0,0,1,1.4,3L352,143a7,7,0,0,0-1-2.23,4.33,4.33,0,0,0-1.77-1.3,6.65,6.65,0,0,0-2.57-.48,7.57,7.57,0,0,0-2.91.51,5.31,5.31,0,0,0-2,1.35,6.39,6.39,0,0,0-1.17,1.84,9.77,9.77,0,0,0-.71,3.74,9,9,0,0,0,.85,4.15,5.48,5.48,0,0,0,2.5,2.49,7.72,7.72,0,0,0,3.47.81,9.17,9.17,0,0,0,5.43-1.93v-3.45Z"/><path class="cls-1" d="M356.29,124.2V122h7.87v6.89a13.76,13.76,0,0,1-3.74,2.17,11,11,0,0,1-3.95.73,10.57,10.57,0,0,1-5-1.17,7.72,7.72,0,0,1-3.37-3.39,10.57,10.57,0,0,1-1.15-5,11.47,11.47,0,0,1,1.14-5.06,7.48,7.48,0,0,1,3.26-3.49,10.26,10.26,0,0,1,4.91-1.14,9.59,9.59,0,0,1,3.64.65,6.08,6.08,0,0,1,2.56,1.82,8.09,8.09,0,0,1,1.4,3l-2.21.61a6.92,6.92,0,0,0-1-2.23,4.28,4.28,0,0,0-1.78-1.3,6.39,6.39,0,0,0-2.56-.49,7.66,7.66,0,0,0-2.92.51,5.59,5.59,0,0,0-2,1.35,6.52,6.52,0,0,0-1.17,1.84,9.62,9.62,0,0,0-.71,3.74,9.09,9.09,0,0,0,.85,4.16,5.46,5.46,0,0,0,2.5,2.48,7.7,7.7,0,0,0,3.47.82,8.3,8.3,0,0,0,3.12-.62,8.09,8.09,0,0,0,2.31-1.32V124.2Z"/><path class="cls-1" d="M347,112.09l7.13-18.58h2.65l7.61,18.58h-2.81l-2.16-5.63h-7.77l-2,5.63Zm5.36-7.63h6.29l-1.93-5.15c-.59-1.56-1-2.85-1.32-3.85a22.83,22.83,0,0,1-1,3.54Z"/><path class="cls-1" d="M360.51,74.11H363V84.84a12.78,12.78,0,0,1-.63,4.45A5.5,5.5,0,0,1,360.05,92a8.21,8.21,0,0,1-4.35,1,8.88,8.88,0,0,1-4.26-.9,5.13,5.13,0,0,1-2.37-2.6,12.32,12.32,0,0,1-.71-4.67V74.11h2.45V84.84a10.4,10.4,0,0,0,.45,3.56,3.47,3.47,0,0,0,1.55,1.77,5.42,5.42,0,0,0,2.68.62,5.13,5.13,0,0,0,3.87-1.23c.77-.82,1.15-2.4,1.15-4.72Z"/><path class="cls-1" d="M361.58,66.78l2.45.62A8.24,8.24,0,0,1,361.25,72a7.67,7.67,0,0,1-4.91,1.59,8.9,8.9,0,0,1-4.89-1.22,7.74,7.74,0,0,1-2.86-3.54,12.58,12.58,0,0,1-1-5,10.94,10.94,0,0,1,1.1-5.06,7.59,7.59,0,0,1,3.16-3.28,9.22,9.22,0,0,1,4.51-1.12,7.6,7.6,0,0,1,4.69,1.42,7.38,7.38,0,0,1,2.65,4l-2.42.58a5.74,5.74,0,0,0-1.88-3,5,5,0,0,0-3.09-.92,6,6,0,0,0-3.58,1,5.34,5.34,0,0,0-2,2.75,11.85,11.85,0,0,0,.11,7.71A5.11,5.11,0,0,0,353,70.63a6,6,0,0,0,3.16.88,5.32,5.32,0,0,0,3.5-1.19A6.14,6.14,0,0,0,361.58,66.78Z"/><line class="cls-3" x1="386.72" y1="62.96" x2="363.45" y2="62.96"/><line class="cls-3" x1="386.72" y1="82.36" x2="363.45" y2="82.36"/><line class="cls-3" x1="386.72" y1="101.75" x2="363.45" y2="101.75"/><line class="cls-3" x1="386.72" y1="121.15" x2="363.45" y2="121.15"/><path class="cls-2" d="M467.19,161.39h2.46v10.74a12.78,12.78,0,0,1-.63,4.45,5.43,5.43,0,0,1-2.29,2.68,8.1,8.1,0,0,1-4.35,1,8.88,8.88,0,0,1-4.26-.9,5,5,0,0,1-2.37-2.6,12.26,12.26,0,0,1-.71-4.66V161.39h2.45v10.73a10.4,10.4,0,0,0,.45,3.56,3.44,3.44,0,0,0,1.55,1.77,5.31,5.31,0,0,0,2.68.63,5.09,5.09,0,0,0,3.87-1.24c.77-.82,1.15-2.39,1.15-4.72Z"/><line class="cls-3" x1="475.3" y1="169.64" x2="488.23" y2="169.64"/><path d="M497.91,180h-2.29V165.43a11.86,11.86,0,0,1-2.16,1.58,15.43,15.43,0,0,1-2.4,1.18V166a14.13,14.13,0,0,0,3.35-2.18,8.48,8.48,0,0,0,2-2.48h1.48Zm5.77-9.17a17,17,0,0,1,.68-5.3,6.64,6.64,0,0,1,2-3.1,5.13,5.13,0,0,1,3.37-1.09,5.5,5.5,0,0,1,2.62.6,4.9,4.9,0,0,1,1.86,1.73,9.39,9.39,0,0,1,1.16,2.77,18.3,18.3,0,0,1,.42,4.39,17.31,17.31,0,0,1-.67,5.28,6.69,6.69,0,0,1-2,3.11,5.69,5.69,0,0,1-7.61-.83C504.3,176.82,503.68,174.3,503.68,170.81Zm2.36,0c0,3.05.35,5.08,1.07,6.09a3.06,3.06,0,0,0,5.28,0c.72-1,1.07-3,1.07-6.08s-.35-5.09-1.07-6.1a3.2,3.2,0,0,0-2.67-1.51,2.9,2.9,0,0,0-2.5,1.34Q506,166.24,506,170.81Z"/><path class="cls-4" d="M443,161.39h2.45v10.74a12.78,12.78,0,0,1-.63,4.45,5.38,5.38,0,0,1-2.29,2.68,8.08,8.08,0,0,1-4.34,1,8.93,8.93,0,0,1-4.27-.9,5,5,0,0,1-2.37-2.6,12.46,12.46,0,0,1-.71-4.66V161.39h2.46v10.73a10.4,10.4,0,0,0,.45,3.56,3.4,3.4,0,0,0,1.55,1.77,5.29,5.29,0,0,0,2.68.63,5.07,5.07,0,0,0,3.86-1.24c.77-.82,1.16-2.39,1.16-4.72Z"/><path class="cls-2" d="M419.33,172.69V170.5h7.87v6.89a13.76,13.76,0,0,1-3.74,2.17,11,11,0,0,1-3.95.73,10.57,10.57,0,0,1-5-1.17,7.8,7.8,0,0,1-3.38-3.39,10.68,10.68,0,0,1-1.14-4.95,11.48,11.48,0,0,1,1.14-5.07,7.53,7.53,0,0,1,3.26-3.49,10.26,10.26,0,0,1,4.91-1.14,9.79,9.79,0,0,1,3.64.65,6.08,6.08,0,0,1,2.56,1.82,8.17,8.17,0,0,1,1.4,3l-2.21.61a6.92,6.92,0,0,0-1-2.23,4.28,4.28,0,0,0-1.78-1.3,6.42,6.42,0,0,0-2.56-.49,7.43,7.43,0,0,0-2.92.52,5.45,5.45,0,0,0-2,1.34,6.52,6.52,0,0,0-1.17,1.84,9.64,9.64,0,0,0-.72,3.75,9.07,9.07,0,0,0,.86,4.15,5.51,5.51,0,0,0,2.49,2.49,7.77,7.77,0,0,0,3.48.81,9.17,9.17,0,0,0,5.43-1.93v-3.46Z"/><path class="cls-5" d="M395.08,172.69V170.5H403v6.89a13.71,13.71,0,0,1-3.73,2.17,11.06,11.06,0,0,1-4,.73,10.53,10.53,0,0,1-5-1.17,7.74,7.74,0,0,1-3.38-3.39,10.68,10.68,0,0,1-1.14-4.95,11.61,11.61,0,0,1,1.13-5.07,7.6,7.6,0,0,1,3.27-3.49,10.22,10.22,0,0,1,4.9-1.14,9.85,9.85,0,0,1,3.65.65,6,6,0,0,1,2.55,1.82,8,8,0,0,1,1.41,3l-2.22.61a6.92,6.92,0,0,0-1-2.23,4.18,4.18,0,0,0-1.77-1.3,6.47,6.47,0,0,0-2.57-.49,7.38,7.38,0,0,0-2.91.52,5.49,5.49,0,0,0-2,1.34,6.52,6.52,0,0,0-1.17,1.84,9.82,9.82,0,0,0-.71,3.75,9,9,0,0,0,.86,4.15,5.51,5.51,0,0,0,2.49,2.49,7.72,7.72,0,0,0,3.47.81,8.23,8.23,0,0,0,3.12-.62,8.34,8.34,0,0,0,2.31-1.31v-3.46Z"/><path class="cls-5" d="M385.79,199.37l7.14-18.58h2.65l7.6,18.58h-2.8l-2.17-5.62h-7.77l-2,5.62Zm5.36-7.63h6.3l-1.94-5.14c-.59-1.57-1-2.85-1.31-3.86a24.16,24.16,0,0,1-1,3.55Z"/><path class="cls-5" d="M400.37,212.26l2.46.61A8.3,8.3,0,0,1,400,217.5a7.66,7.66,0,0,1-4.91,1.59,8.76,8.76,0,0,1-4.88-1.23,7.64,7.64,0,0,1-2.87-3.54,12.75,12.75,0,0,1-1-5,10.91,10.91,0,0,1,1.11-5.06,7.59,7.59,0,0,1,3.15-3.29,9.34,9.34,0,0,1,4.51-1.12,7.6,7.6,0,0,1,4.69,1.42,7.39,7.39,0,0,1,2.65,4l-2.42.57a5.65,5.65,0,0,0-1.88-2.95,5,5,0,0,0-3.09-.93,6,6,0,0,0-3.58,1,5.38,5.38,0,0,0-2,2.76,11,11,0,0,0-.58,3.57,11.31,11.31,0,0,0,.69,4.13,5.2,5.2,0,0,0,2.15,2.65,6,6,0,0,0,3.15.87,5.27,5.27,0,0,0,3.5-1.19A6.11,6.11,0,0,0,400.37,212.26Z"/><path class="cls-4" d="M418.7,214.73h2.46v10.74a12.78,12.78,0,0,1-.63,4.45,5.48,5.48,0,0,1-2.29,2.68,8.12,8.12,0,0,1-4.35,1,9,9,0,0,1-4.26-.89,5.11,5.11,0,0,1-2.37-2.61,12.26,12.26,0,0,1-.71-4.66V214.73H409v10.73a10.4,10.4,0,0,0,.45,3.56,3.4,3.4,0,0,0,1.55,1.77,5.31,5.31,0,0,0,2.68.63,5.13,5.13,0,0,0,3.87-1.23c.77-.83,1.15-2.4,1.15-4.73Z"/><path class="cls-6" d="M428.4,234.13h2.45v10.73a12.84,12.84,0,0,1-.63,4.46,5.45,5.45,0,0,1-2.28,2.68,8.14,8.14,0,0,1-4.35,1,8.93,8.93,0,0,1-4.27-.9,5.17,5.17,0,0,1-2.37-2.6,12.52,12.52,0,0,1-.71-4.67V234.13h2.46v10.73a10.4,10.4,0,0,0,.45,3.56,3.47,3.47,0,0,0,1.55,1.77,5.29,5.29,0,0,0,2.68.62,5.13,5.13,0,0,0,3.87-1.23c.76-.82,1.15-2.39,1.15-4.72Z"/><path class="cls-6" d="M303.35,257.56,310.49,239h2.65l7.6,18.58h-2.8l-2.16-5.62H308l-2,5.62Zm5.37-7.63H315l-1.94-5.14c-.59-1.57-1-2.85-1.31-3.86a23,23,0,0,1-1,3.55Z"/><path class="cls-6" d="M322.78,231.65l2.46.62a8.29,8.29,0,0,1-2.78,4.62,7.67,7.67,0,0,1-4.91,1.59,8.9,8.9,0,0,1-4.89-1.22,7.68,7.68,0,0,1-2.86-3.54,12.59,12.59,0,0,1-1-5,10.94,10.94,0,0,1,1.11-5.06,7.59,7.59,0,0,1,3.16-3.28,9.22,9.22,0,0,1,4.51-1.12,7.57,7.57,0,0,1,4.68,1.42,7.32,7.32,0,0,1,2.65,4l-2.41.57a5.74,5.74,0,0,0-1.88-3,5,5,0,0,0-3.1-.92,6,6,0,0,0-3.58,1,5.4,5.4,0,0,0-2,2.75,12,12,0,0,0,.11,7.71,5.13,5.13,0,0,0,2.15,2.64,6,6,0,0,0,3.16.88,5.29,5.29,0,0,0,3.49-1.19A6.09,6.09,0,0,0,322.78,231.65Z"/><path class="cls-4" d="M336.89,216.33v-2.18h7.87V221a14,14,0,0,1-3.73,2.17,11.27,11.27,0,0,1-4,.72,10.53,10.53,0,0,1-5-1.17,7.74,7.74,0,0,1-3.38-3.39,10.68,10.68,0,0,1-1.14-5,11.61,11.61,0,0,1,1.13-5.07,7.6,7.6,0,0,1,3.27-3.49,10.22,10.22,0,0,1,4.9-1.14,9.85,9.85,0,0,1,3.65.65,6.13,6.13,0,0,1,2.55,1.82,8,8,0,0,1,1.41,3l-2.22.61a7,7,0,0,0-1-2.23,4.26,4.26,0,0,0-1.77-1.3,6.65,6.65,0,0,0-2.57-.49,7.38,7.38,0,0,0-2.91.52,5.47,5.47,0,0,0-2,1.35,6.39,6.39,0,0,0-1.17,1.84,9.73,9.73,0,0,0-.71,3.74,9,9,0,0,0,.86,4.15,5.46,5.46,0,0,0,2.49,2.49,7.72,7.72,0,0,0,3.47.81,8.23,8.23,0,0,0,3.12-.62,8.34,8.34,0,0,0,2.31-1.31v-3.46Z"/><line class="cls-3" x1="327.15" y1="204.14" x2="318" y2="195"/><path d="M285.1,196h-2.2V182a11.44,11.44,0,0,1-2.09,1.52,15.8,15.8,0,0,1-2.32,1.14v-2.13a13.16,13.16,0,0,0,3.23-2.11,8.09,8.09,0,0,0,2-2.39h1.42ZM299,196h-2.2V182a11.8,11.8,0,0,1-2.09,1.52,15.8,15.8,0,0,1-2.32,1.14v-2.13a13.16,13.16,0,0,0,3.23-2.11,8.26,8.26,0,0,0,2-2.39H299Zm5.57-8.84a16.24,16.24,0,0,1,.65-5.11,6.47,6.47,0,0,1,1.94-3,5,5,0,0,1,3.25-1.05,5.28,5.28,0,0,1,2.53.58,4.77,4.77,0,0,1,1.79,1.67,9.1,9.1,0,0,1,1.12,2.67,17.68,17.68,0,0,1,.4,4.23,16.49,16.49,0,0,1-.65,5.09,6.31,6.31,0,0,1-1.93,3,5.46,5.46,0,0,1-7.33-.79Q304.53,192.22,304.53,187.16Zm2.26,0c0,2.94.35,4.9,1,5.87a3,3,0,0,0,5.1,0c.69-1,1-2.93,1-5.86s-.34-4.91-1-5.88a3.07,3.07,0,0,0-2.57-1.45,2.8,2.8,0,0,0-2.42,1.29Q306.79,182.76,306.79,187.16Z"/><path class="cls-5" d="M356.29,211.48V209.3h7.87v6.9a14,14,0,0,1-3.74,2.17,11.19,11.19,0,0,1-3.95.73,10.46,10.46,0,0,1-5-1.18,7.72,7.72,0,0,1-3.37-3.39,10.56,10.56,0,0,1-1.15-5,11.41,11.41,0,0,1,1.14-5.06,7.51,7.51,0,0,1,3.26-3.5,10.26,10.26,0,0,1,4.91-1.14,9.79,9.79,0,0,1,3.64.65,6.16,6.16,0,0,1,2.56,1.82,8.17,8.17,0,0,1,1.4,3l-2.21.61a7,7,0,0,0-1-2.23,4.37,4.37,0,0,0-1.78-1.3,6.56,6.56,0,0,0-2.56-.49,7.65,7.65,0,0,0-2.92.52,5.35,5.35,0,0,0-2,1.35,6.39,6.39,0,0,0-1.17,1.84,9.55,9.55,0,0,0-.71,3.74,9,9,0,0,0,.85,4.15,5.43,5.43,0,0,0,2.5,2.49,7.69,7.69,0,0,0,3.47.81,9.17,9.17,0,0,0,5.43-1.93v-3.46Z"/><path class="cls-5" d="M360.51,180.79H363v10.73a12.74,12.74,0,0,1-.63,4.45,5.5,5.5,0,0,1-2.29,2.69,8.21,8.21,0,0,1-4.35,1,8.88,8.88,0,0,1-4.26-.9,5.09,5.09,0,0,1-2.37-2.6,12.32,12.32,0,0,1-.71-4.67V180.79h2.45v10.73a10.4,10.4,0,0,0,.45,3.56,3.47,3.47,0,0,0,1.55,1.77,5.31,5.31,0,0,0,2.68.62,5.13,5.13,0,0,0,3.87-1.23c.77-.82,1.15-2.39,1.15-4.72Z"/><path class="cls-5" d="M361.58,173.46l2.45.62a8.24,8.24,0,0,1-2.78,4.62,7.67,7.67,0,0,1-4.91,1.59,8.9,8.9,0,0,1-4.89-1.22,7.74,7.74,0,0,1-2.86-3.54,12.58,12.58,0,0,1-1-5,10.94,10.94,0,0,1,1.1-5.06,7.59,7.59,0,0,1,3.16-3.28,9.22,9.22,0,0,1,4.51-1.12,7.6,7.6,0,0,1,4.69,1.42,7.37,7.37,0,0,1,2.65,4l-2.42.57a5.74,5.74,0,0,0-1.88-3,5,5,0,0,0-3.09-.92,6,6,0,0,0-3.58,1,5.34,5.34,0,0,0-2,2.75,11.85,11.85,0,0,0,.11,7.71,5.11,5.11,0,0,0,2.14,2.64,6,6,0,0,0,3.16.88,5.32,5.32,0,0,0,3.5-1.19A6.14,6.14,0,0,0,361.58,173.46Z"/><line class="cls-3" x1="386.72" y1="169.64" x2="363.45" y2="169.64"/><line class="cls-3" x1="386.72" y1="189.04" x2="363.45" y2="189.04"/><line class="cls-3" x1="386.72" y1="208.43" x2="363.45" y2="208.43"/><path class="cls-6" d="M419.77,270.45l2.45.61a8.23,8.23,0,0,1-2.78,4.63,7.67,7.67,0,0,1-4.91,1.59,8.82,8.82,0,0,1-4.89-1.23,7.68,7.68,0,0,1-2.86-3.54,12.58,12.58,0,0,1-1-5,10.91,10.91,0,0,1,1.11-5.06,7.61,7.61,0,0,1,3.16-3.29,9.22,9.22,0,0,1,4.51-1.12,7.6,7.6,0,0,1,4.69,1.42,7.45,7.45,0,0,1,2.65,4l-2.42.57a5.71,5.71,0,0,0-1.88-3,5,5,0,0,0-3.09-.93,6,6,0,0,0-3.58,1,5.33,5.33,0,0,0-2,2.76,11,11,0,0,0-.59,3.57,11.31,11.31,0,0,0,.69,4.13,5.25,5.25,0,0,0,2.15,2.65,6.06,6.06,0,0,0,3.16.87,5.22,5.22,0,0,0,3.49-1.19A6.07,6.07,0,0,0,419.77,270.45Z"/><path class="cls-7" d="M404.15,277.77h2.46v10.74A12.82,12.82,0,0,1,406,293a5.43,5.43,0,0,1-2.29,2.68,8.08,8.08,0,0,1-4.34,1,8.93,8.93,0,0,1-4.27-.9,5,5,0,0,1-2.37-2.6,12.5,12.5,0,0,1-.71-4.66V277.77h2.46V288.5a10.4,10.4,0,0,0,.45,3.56,3.38,3.38,0,0,0,1.54,1.77,5.31,5.31,0,0,0,2.68.63,5.09,5.09,0,0,0,3.87-1.24c.77-.82,1.15-2.39,1.15-4.72Z"/><path class="cls-7" d="M399.93,308.47v-2.19h7.87v6.9a14,14,0,0,1-3.73,2.17,11.06,11.06,0,0,1-4,.73,10.57,10.57,0,0,1-5-1.17,7.77,7.77,0,0,1-3.37-3.39,10.72,10.72,0,0,1-1.14-5,11.43,11.43,0,0,1,1.13-5.06A7.53,7.53,0,0,1,395,298a10.15,10.15,0,0,1,4.91-1.15,9.65,9.65,0,0,1,3.65.66,6,6,0,0,1,2.55,1.82,8.1,8.1,0,0,1,1.41,3l-2.22.61a7.09,7.09,0,0,0-1-2.24,4.23,4.23,0,0,0-1.77-1.29,6.47,6.47,0,0,0-2.57-.49,7.57,7.57,0,0,0-2.91.51,5.39,5.39,0,0,0-2,1.35,6.52,6.52,0,0,0-1.17,1.84,9.77,9.77,0,0,0-.71,3.74,9,9,0,0,0,.85,4.15,5.53,5.53,0,0,0,2.5,2.49,7.72,7.72,0,0,0,3.47.81,8.22,8.22,0,0,0,3.12-.61,8.09,8.09,0,0,0,2.31-1.32v-3.45Z"/><line class="cls-3" x1="412.26" y1="305.42" x2="425.19" y2="305.42"/><path d="M438.26,313.56v2.19H426a4,4,0,0,1,.26-1.58,8.48,8.48,0,0,1,1.51-2.47,24.08,24.08,0,0,1,3-2.82,25,25,0,0,0,4.1-3.93,4.8,4.8,0,0,0,1.06-2.75,3,3,0,0,0-1-2.29,3.5,3.5,0,0,0-2.52-.93,3.54,3.54,0,0,0-2.64,1,3.76,3.76,0,0,0-1,2.74l-2.34-.25a5.76,5.76,0,0,1,1.81-4,6.18,6.18,0,0,1,4.22-1.38,5.88,5.88,0,0,1,4.23,1.49,4.86,4.86,0,0,1,1.56,3.67,5.58,5.58,0,0,1-.45,2.19,8.48,8.48,0,0,1-1.52,2.27,34.48,34.48,0,0,1-3.51,3.27q-2.06,1.74-2.64,2.34a7,7,0,0,0-1,1.24Zm2.39-7a16.79,16.79,0,0,1,.68-5.31,6.6,6.6,0,0,1,2-3.1,5.2,5.2,0,0,1,3.37-1.09,5.5,5.5,0,0,1,2.62.6,5,5,0,0,1,1.87,1.74,9.71,9.71,0,0,1,1.15,2.76,18.4,18.4,0,0,1,.42,4.4,17,17,0,0,1-.67,5.28,6.6,6.6,0,0,1-2,3.1,5.16,5.16,0,0,1-3.38,1.1,5.09,5.09,0,0,1-4.22-1.92Q440.65,311.83,440.65,306.59Zm2.35,0c0,3.05.35,5.08,1.07,6.09a3.06,3.06,0,0,0,5.28,0q1.08-1.51,1.08-6.08t-1.08-6.1a3.16,3.16,0,0,0-2.66-1.51,2.91,2.91,0,0,0-2.51,1.34Q443,302,443,306.59Z"/><path class="cls-7" d="M405.22,328.64l2.46.61a8.3,8.3,0,0,1-2.79,4.63,7.66,7.66,0,0,1-4.91,1.59,8.76,8.76,0,0,1-4.88-1.23,7.69,7.69,0,0,1-2.87-3.54,12.76,12.76,0,0,1-1-5,10.9,10.9,0,0,1,1.11-5,7.59,7.59,0,0,1,3.15-3.29,9.22,9.22,0,0,1,4.51-1.12,7.6,7.6,0,0,1,4.69,1.42,7.39,7.39,0,0,1,2.65,4l-2.42.57a5.71,5.71,0,0,0-1.88-3,5,5,0,0,0-3.09-.93,6,6,0,0,0-3.58,1,5.38,5.38,0,0,0-2,2.76,11,11,0,0,0-.58,3.57,11.35,11.35,0,0,0,.69,4.13,5.15,5.15,0,0,0,2.15,2.65,6,6,0,0,0,3.15.87,5.32,5.32,0,0,0,3.5-1.19A6.11,6.11,0,0,0,405.22,328.64Z"/><path class="cls-7" d="M405.22,348l2.46.62a8.3,8.3,0,0,1-2.79,4.62,7.66,7.66,0,0,1-4.91,1.59,8.84,8.84,0,0,1-4.88-1.22,7.69,7.69,0,0,1-2.87-3.54,12.76,12.76,0,0,1-1-5,10.94,10.94,0,0,1,1.11-5.06,7.57,7.57,0,0,1,3.15-3.28,9.22,9.22,0,0,1,4.51-1.12,7.6,7.6,0,0,1,4.69,1.42,7.32,7.32,0,0,1,2.65,4l-2.42.57a5.74,5.74,0,0,0-1.88-3,5,5,0,0,0-3.09-.92,6,6,0,0,0-3.58,1,5.4,5.4,0,0,0-2,2.75,11.12,11.12,0,0,0-.58,3.57,11.36,11.36,0,0,0,.69,4.14,5.08,5.08,0,0,0,2.15,2.64,6,6,0,0,0,3.15.88,5.32,5.32,0,0,0,3.5-1.19A6.14,6.14,0,0,0,405.22,348Z"/><path class="cls-7" d="M366.43,369.51l2.45.61a8.2,8.2,0,0,1-2.78,4.62,7.67,7.67,0,0,1-4.91,1.59,8.82,8.82,0,0,1-4.89-1.22,7.68,7.68,0,0,1-2.86-3.54,12.59,12.59,0,0,1-1-5,10.94,10.94,0,0,1,1.11-5.06,7.59,7.59,0,0,1,3.16-3.28,9.22,9.22,0,0,1,4.51-1.12,7.6,7.6,0,0,1,4.69,1.42,7.37,7.37,0,0,1,2.65,4l-2.42.57a5.71,5.71,0,0,0-1.88-3,5,5,0,0,0-3.09-.93,6,6,0,0,0-3.58,1,5.34,5.34,0,0,0-2,2.75,11.15,11.15,0,0,0-.59,3.58,11.35,11.35,0,0,0,.69,4.13,5.18,5.18,0,0,0,2.15,2.64,6,6,0,0,0,3.16.88,5.29,5.29,0,0,0,3.49-1.19A6.07,6.07,0,0,0,366.43,369.51Z"/><path class="cls-7" d="M361.14,347.26v-2.19H369V352a13.76,13.76,0,0,1-3.74,2.17,11,11,0,0,1-3.95.73,10.57,10.57,0,0,1-5-1.17A7.72,7.72,0,0,1,353,350.3a10.57,10.57,0,0,1-1.15-5,11.47,11.47,0,0,1,1.14-5.06,7.48,7.48,0,0,1,3.26-3.49,10.26,10.26,0,0,1,4.91-1.14,9.59,9.59,0,0,1,3.64.65,6.08,6.08,0,0,1,2.56,1.82,8.09,8.09,0,0,1,1.4,3l-2.21.61a6.92,6.92,0,0,0-1-2.23,4.28,4.28,0,0,0-1.78-1.3,6.42,6.42,0,0,0-2.56-.49,7.62,7.62,0,0,0-2.92.51,5.59,5.59,0,0,0-2,1.35,6.52,6.52,0,0,0-1.17,1.84,9.62,9.62,0,0,0-.72,3.74,9.09,9.09,0,0,0,.86,4.16,5.46,5.46,0,0,0,2.5,2.48,7.57,7.57,0,0,0,3.47.82,9.17,9.17,0,0,0,5.43-1.93v-3.46Z"/><path class="cls-7" d="M361.14,327.86v-2.18H369v6.9a14,14,0,0,1-3.74,2.17,11.19,11.19,0,0,1-3.95.73,10.58,10.58,0,0,1-5-1.18A7.72,7.72,0,0,1,353,330.9a10.56,10.56,0,0,1-1.15-4.95,11.48,11.48,0,0,1,1.14-5.07,7.53,7.53,0,0,1,3.26-3.49,10.26,10.26,0,0,1,4.91-1.14,9.79,9.79,0,0,1,3.64.65,6.16,6.16,0,0,1,2.56,1.82,8.17,8.17,0,0,1,1.4,3l-2.21.61a7,7,0,0,0-1-2.23,4.37,4.37,0,0,0-1.78-1.3,6.6,6.6,0,0,0-2.56-.49,7.62,7.62,0,0,0-2.92.52,5.35,5.35,0,0,0-2,1.35,6.39,6.39,0,0,0-1.17,1.84,9.55,9.55,0,0,0-.72,3.74,9.07,9.07,0,0,0,.86,4.15,5.43,5.43,0,0,0,2.5,2.49,7.69,7.69,0,0,0,3.47.81,9.17,9.17,0,0,0,5.43-1.93v-3.46Z"/><path class="cls-7" d="M366.43,309.24l2.45.62a8.24,8.24,0,0,1-2.78,4.62,7.67,7.67,0,0,1-4.91,1.59,8.82,8.82,0,0,1-4.89-1.23,7.58,7.58,0,0,1-2.86-3.54,12.51,12.51,0,0,1-1-5,10.94,10.94,0,0,1,1.11-5.06,7.59,7.59,0,0,1,3.16-3.28,9.23,9.23,0,0,1,4.51-1.13,7.66,7.66,0,0,1,4.69,1.42,7.45,7.45,0,0,1,2.65,4l-2.42.57a5.75,5.75,0,0,0-1.88-2.95,5,5,0,0,0-3.09-.92,6,6,0,0,0-3.58,1,5.37,5.37,0,0,0-2,2.76,11,11,0,0,0-.59,3.57,11.36,11.36,0,0,0,.69,4.14,5.18,5.18,0,0,0,2.15,2.64A6.07,6.07,0,0,0,361,314a5.25,5.25,0,0,0,3.49-1.2A6.07,6.07,0,0,0,366.43,309.24Z"/><path class="cls-7" d="M351.85,296.36,359,277.77h2.65l7.61,18.59h-2.81l-2.16-5.63H356.5l-2,5.63Zm5.36-7.64h6.29l-1.93-5.14c-.59-1.56-1-2.85-1.32-3.85a21.81,21.81,0,0,1-1,3.54Z"/><path class="cls-6" d="M347,285l2.46.62a8.3,8.3,0,0,1-2.79,4.62,7.66,7.66,0,0,1-4.91,1.59,8.84,8.84,0,0,1-4.88-1.22,7.69,7.69,0,0,1-2.87-3.54,12.76,12.76,0,0,1-1-5,10.94,10.94,0,0,1,1.11-5.06,7.57,7.57,0,0,1,3.15-3.28,9.22,9.22,0,0,1,4.51-1.12,7.6,7.6,0,0,1,4.69,1.42,7.32,7.32,0,0,1,2.65,4l-2.42.57a5.71,5.71,0,0,0-1.88-2.95,5,5,0,0,0-3.09-.93,6,6,0,0,0-3.58,1,5.4,5.4,0,0,0-2,2.75,11.14,11.14,0,0,0-.58,3.58,11.35,11.35,0,0,0,.69,4.13,5.08,5.08,0,0,0,2.15,2.64,6,6,0,0,0,3.15.88,5.32,5.32,0,0,0,3.5-1.19A6.11,6.11,0,0,0,347,285Z"/><path class="cls-6" d="M327.63,275.3l2.46.61a8.29,8.29,0,0,1-2.78,4.63,7.73,7.73,0,0,1-4.91,1.58,8.8,8.8,0,0,1-4.89-1.22,7.68,7.68,0,0,1-2.86-3.54,12.59,12.59,0,0,1-1-5,10.9,10.9,0,0,1,1.11-5.05,7.61,7.61,0,0,1,3.16-3.29,9.19,9.19,0,0,1,4.5-1.12,7.58,7.58,0,0,1,4.69,1.42,7.39,7.39,0,0,1,2.65,4l-2.41.57a5.77,5.77,0,0,0-1.88-2.95,5,5,0,0,0-3.1-.93,6,6,0,0,0-3.58,1,5.38,5.38,0,0,0-2,2.76,11,11,0,0,0-.58,3.57,11.35,11.35,0,0,0,.69,4.13,5.2,5.2,0,0,0,2.15,2.65,6,6,0,0,0,3.15.87,5.3,5.3,0,0,0,3.5-1.19A6.06,6.06,0,0,0,327.63,275.3Z"/><line class="cls-3" x1="391.57" y1="286.02" x2="368.3" y2="286.02"/><line class="cls-3" x1="391.57" y1="305.42" x2="368.3" y2="305.42"/><line class="cls-3" x1="391.57" y1="324.81" x2="368.3" y2="324.81"/><line class="cls-3" x1="391.57" y1="344.21" x2="368.3" y2="344.21"/><text></text><text class="cls-8" transform="translate(13.27 28.51)">Streptmycin RN<tspan class="cls-9" x="140.03" y="0">A</tspan><tspan x="152.27" y="0" xml:space="preserve"> aptamer</tspan></text><rect class="cls-10" x="327.24" y="232.27" width="79.92" height="25.79"/><text class="cls-11" transform="translate(327.28 249)">Streptmycin</text><text class="cls-8" transform="translate(388.67 26.67)">5<tspan class="cls-12" x="11.12" y="0">’</tspan></text><text class="cls-8" transform="translate(349.67 49.67)">3<tspan class="cls-12" x="11.12" y="0">’</tspan></text></svg>