<?xml version="1.0" encoding="UTF-8"?>
<svg id="_图层_1" data-name="图层 1" xmlns="http://www.w3.org/2000/svg" viewBox="0 0 800 400">
  <defs>
    <style>
      .cls-1 {
        fill: #09fefe;
      }

      .cls-1, .cls-2, .cls-3, .cls-4, .cls-5, .cls-6, .cls-7, .cls-8 {
        stroke-width: 0px;
      }

      .cls-9 {
        font-size: 15px;
      }

      .cls-9, .cls-10, .cls-2, .cls-11, .cls-12 {
        fill: #000;
      }

      .cls-9, .cls-10, .cls-13, .cls-11, .cls-12 {
        isolation: isolate;
      }

      .cls-9, .cls-10, .cls-11, .cls-12 {
        font-family: ArialMT, Arial;
      }

      .cls-10 {
        letter-spacing: -.08em;
      }

      .cls-10, .cls-11, .cls-12 {
        font-size: 20px;
      }

      .cls-3 {
        fill: #ff0;
      }

      .cls-4 {
        fill: pink;
      }

      .cls-5 {
        fill: #c2c2ff;
      }

      .cls-14 {
        fill: none;
        stroke: #000;
        stroke-linejoin: round;
        stroke-width: 1.33px;
      }

      .cls-6 {
        fill: teal;
      }

      .cls-7 {
        fill: #f0f;
      }

      .cls-8 {
        fill: #32cd32;
      }

      .cls-12 {
        letter-spacing: -.11em;
      }
    </style>
  </defs>
  <path class="cls-1" d="M395.08,46.61v-2.18h7.92v6.9c-1.12.91-2.38,1.64-3.73,2.17-1.28.48-2.63.72-4,.72-1.74.03-3.46-.37-5-1.17-1.46-.74-2.64-1.93-3.38-3.39-.77-1.53-1.16-3.23-1.14-4.95-.01-1.75.38-3.49,1.13-5.07.69-1.48,1.83-2.71,3.27-3.49,1.51-.78,3.2-1.17,4.9-1.14,1.25-.02,2.49.2,3.65.65.99.38,1.87,1,2.55,1.82.67.89,1.15,1.91,1.41,3l-2.22.61c-.2-.8-.54-1.55-1-2.23-.47-.58-1.08-1.03-1.77-1.3-.82-.33-1.69-.5-2.57-.49-1-.02-1.98.15-2.91.52-.76.29-1.44.75-2,1.35-.5.55-.91,1.18-1.19,1.87-.48,1.19-.72,2.46-.71,3.74-.05,1.43.25,2.85.86,4.15.53,1.08,1.41,1.96,2.49,2.49,1.08.54,2.27.81,3.47.81,1.07,0,2.13-.21,3.12-.62.84-.31,1.61-.75,2.31-1.31v-3.46h-5.46Z"/>
  <path class="cls-1" d="M395.08,66v-2.18h7.92v6.89c-1.12.92-2.38,1.65-3.73,2.17-1.28.49-2.63.74-4,.73-1.74.03-3.46-.37-5-1.17-1.46-.74-2.64-1.93-3.38-3.39-.78-1.55-1.17-3.27-1.14-5,0-1.75.39-3.47,1.15-5.05.68-1.49,1.83-2.71,3.27-3.49,1.51-.78,3.2-1.17,4.9-1.14,1.25-.02,2.49.2,3.65.65,1,.37,1.88,1,2.55,1.82.67.89,1.15,1.91,1.41,3l-2.22.61c-.2-.8-.54-1.55-1-2.23-.46-.58-1.07-1.03-1.77-1.3-.81-.34-1.69-.5-2.57-.49-.99-.02-1.98.15-2.91.51-.76.3-1.44.76-2,1.35-.51.56-.92,1.21-1.21,1.91-.48,1.19-.72,2.46-.71,3.74-.05,1.44.25,2.86.86,4.16.54,1.08,1.41,1.95,2.49,2.48,1.08.54,2.26.83,3.47.82,1.07,0,2.13-.21,3.12-.62.84-.31,1.62-.76,2.31-1.32v-3.46h-5.46Z"/>
  <path class="cls-1" d="M385.79,92.69l7.14-18.58h2.65l7.6,18.58h-2.8l-2.17-5.62h-7.77l-2,5.62h-2.65ZM391.15,85.06h6.3l-1.94-5.14c-.59-1.57-1-2.85-1.31-3.86-.24,1.21-.58,2.39-1,3.55l-2.05,5.45Z"/>
  <path class="cls-1" d="M399.3,93.51h2.46v10.73c.05,1.51-.16,3.02-.63,4.45-.44,1.13-1.25,2.07-2.29,2.68-1.32.73-2.83,1.08-4.34,1-1.48.06-2.94-.24-4.27-.89-1.07-.56-1.91-1.49-2.37-2.61-.53-1.49-.77-3.08-.71-4.66v-10.7h2.46v10.72c-.06,1.21.1,2.41.45,3.57.29.75.84,1.38,1.54,1.77.83.43,1.76.65,2.69.62,1.4.14,2.8-.31,3.86-1.23.77-.82,1.15-2.4,1.15-4.73v-10.72Z"/>
  <path class="cls-1" d="M400.37,125l2.46.62c-.39,1.81-1.37,3.43-2.79,4.62-1.4,1.08-3.14,1.64-4.91,1.59-1.71.07-3.41-.35-4.88-1.22-1.29-.86-2.3-2.1-2.87-3.55-.67-1.58-1.01-3.28-1-5-.04-1.75.34-3.49,1.11-5.06.69-1.39,1.79-2.54,3.15-3.28,1.38-.75,2.94-1.14,4.51-1.12,1.68-.06,3.33.44,4.69,1.42,1.31,1,2.24,2.41,2.65,4l-2.42.58c-.29-1.17-.95-2.23-1.88-3-.9-.64-1.99-.96-3.09-.92-1.27-.05-2.52.3-3.58,1-.94.68-1.64,1.65-2,2.76-.39,1.15-.58,2.36-.58,3.57-.03,1.41.2,2.81.69,4.14.4,1.1,1.15,2.03,2.15,2.64.95.58,2.04.88,3.15.88,1.27.03,2.51-.39,3.5-1.19,1.02-.91,1.7-2.14,1.94-3.48Z"/>
  <path class="cls-4" d="M414.48,124.2v-2.2h7.87v6.89c-1.12.92-2.39,1.65-3.74,2.17-1.26.48-2.6.73-3.95.73-1.74.03-3.45-.37-5-1.17-1.45-.75-2.63-1.93-3.37-3.39-.79-1.55-1.18-3.26-1.15-5-.01-1.75.38-3.48,1.14-5.06.68-1.49,1.82-2.71,3.26-3.49,1.52-.78,3.2-1.17,4.91-1.14,1.24-.02,2.48.2,3.64.65,1,.37,1.88,1,2.56,1.82.67.89,1.15,1.91,1.4,3l-2.21.61c-.2-.8-.54-1.55-1-2.23-.47-.58-1.08-1.03-1.78-1.3-.81-.34-1.68-.5-2.56-.49-1-.02-1.99.15-2.92.51-.76.3-1.44.76-2,1.35-.49.54-.89,1.17-1.17,1.84-.48,1.19-.72,2.46-.71,3.74-.05,1.43.24,2.86.85,4.16.54,1.08,1.42,1.95,2.5,2.48,1.08.54,2.27.82,3.47.82,1.07,0,2.13-.21,3.12-.62.84-.31,1.62-.76,2.31-1.32v-3.36h-5.47Z"/>
  <path class="cls-4" d="M444,125l2.46.62c-.39,1.81-1.36,3.43-2.78,4.62-1.4,1.08-3.14,1.64-4.91,1.59-1.71.08-3.41-.35-4.89-1.22-1.31-.88-2.31-2.14-2.88-3.61-.67-1.58-1.01-3.28-1-5-.04-1.75.34-3.49,1.11-5.06.69-1.39,1.8-2.54,3.16-3.28,1.38-.75,2.93-1.14,4.5-1.12,1.7-.05,3.36.46,4.73,1.46,1.31,1,2.24,2.41,2.65,4l-2.42.58c-.29-1.17-.95-2.22-1.87-3-.91-.64-1.99-.96-3.1-.92-1.27-.05-2.52.3-3.58,1-.94.68-1.64,1.65-2,2.76-.39,1.15-.58,2.36-.58,3.57-.03,1.41.2,2.81.69,4.14.4,1.1,1.15,2.03,2.15,2.64.95.58,2.04.88,3.15.88,1.27.04,2.51-.39,3.5-1.19,1-.91,1.67-2.13,1.91-3.46Z"/>
  <path class="cls-4" d="M448.83,131.49l7.17-18.59h2.66l7.6,18.59h-2.8l-2.17-5.63h-7.77l-2,5.63h-2.69ZM454.19,123.85h6.3l-1.94-5.14c-.59-1.56-1-2.85-1.32-3.86-.24,1.21-.57,2.4-1,3.55l-2.04,5.45Z"/>
  <path class="cls-4" d="M472,137.15h2.46v10.73c.05,1.51-.16,3.02-.63,4.45-.44,1.12-1.25,2.07-2.29,2.68-1.33.73-2.84,1.08-4.35,1-1.47.06-2.94-.25-4.26-.9-1.07-.56-1.91-1.48-2.37-2.6-.53-1.5-.78-3.08-.71-4.67v-10.69h2.45v10.72c-.06,1.21.09,2.41.45,3.57.29.75.84,1.38,1.55,1.77.83.43,1.75.65,2.68.62,1.4.14,2.8-.31,3.87-1.23.77-.82,1.15-2.4,1.15-4.73v-10.72Z"/>
  <path class="cls-4" d="M346.59,148.45v-2.19h7.87v6.9c-1.12.91-2.38,1.64-3.73,2.17-1.28.48-2.63.73-4,.73-1.74.03-3.45-.37-5-1.17-1.45-.75-2.63-1.94-3.37-3.4-.77-1.53-1.16-3.23-1.14-4.95-.02-1.75.37-3.48,1.13-5.06.68-1.49,1.82-2.72,3.26-3.5,1.52-.78,3.2-1.17,4.91-1.14,1.25-.02,2.49.21,3.65.66.99.37,1.87,1,2.55,1.81.67.89,1.15,1.91,1.4,3l-2.12.69c-.2-.8-.54-1.55-1-2.23-.47-.58-1.08-1.03-1.77-1.3-.82-.33-1.69-.49-2.57-.48-.99-.02-1.98.15-2.91.51-.76.29-1.45.75-2,1.35-.49.54-.89,1.16-1.17,1.84-.48,1.19-.72,2.46-.71,3.74-.05,1.43.24,2.85.85,4.15.54,1.08,1.41,1.96,2.5,2.49,1.08.54,2.27.81,3.47.81,1.97-.04,3.87-.72,5.43-1.93v-3.45l-5.53-.05Z"/>
  <path class="cls-1" d="M356.29,124.2v-2.2h7.87v6.89c-1.12.92-2.39,1.65-3.74,2.17-1.26.48-2.6.73-3.95.73-1.74.03-3.45-.37-5-1.17-1.45-.75-2.63-1.93-3.37-3.39-.79-1.55-1.18-3.26-1.15-5-.01-1.75.38-3.48,1.14-5.06.68-1.49,1.82-2.71,3.26-3.49,1.52-.78,3.2-1.17,4.91-1.14,1.24-.02,2.48.2,3.64.65,1,.37,1.88,1,2.56,1.82.67.89,1.15,1.91,1.4,3l-2.21.61c-.2-.8-.54-1.55-1-2.23-.47-.58-1.08-1.03-1.78-1.3-.81-.34-1.68-.5-2.56-.49-1-.02-1.99.15-2.92.51-.76.3-1.44.76-2,1.35-.49.54-.89,1.17-1.17,1.84-.48,1.19-.72,2.46-.71,3.74-.05,1.43.24,2.86.85,4.16.54,1.08,1.42,1.95,2.5,2.48,1.08.54,2.27.82,3.47.82,1.07,0,2.13-.21,3.12-.62.84-.31,1.62-.76,2.31-1.32v-3.36h-5.47Z"/>
  <path class="cls-1" d="M347,112.09l7.13-18.58h2.65l7.61,18.58h-2.81l-2.16-5.63h-7.77l-2,5.63h-2.65ZM352.36,104.46h6.29l-1.93-5.15c-.59-1.56-1-2.85-1.32-3.85-.24,1.2-.57,2.39-1,3.54l-2.04,5.46Z"/>
  <path class="cls-1" d="M360.51,74.11h2.49v10.73c.05,1.51-.16,3.02-.63,4.45-.45,1.14-1.27,2.09-2.32,2.71-1.33.73-2.84,1.07-4.35,1-1.47.06-2.94-.25-4.26-.9-1.07-.56-1.91-1.48-2.37-2.6-.54-1.5-.78-3.08-.71-4.67v-10.72h2.45v10.73c-.06,1.2.09,2.41.45,3.56.29.75.84,1.38,1.55,1.77.83.43,1.75.65,2.68.62,1.4.14,2.8-.31,3.87-1.23.77-.82,1.15-2.4,1.15-4.72v-10.73Z"/>
  <path class="cls-1" d="M361.58,66.78l2.45.62c-.39,1.8-1.37,3.42-2.78,4.6-1.4,1.08-3.14,1.64-4.91,1.59-1.71.07-3.41-.35-4.89-1.22-1.29-.87-2.28-2.1-2.86-3.54-.67-1.58-1.01-3.28-1-5-.04-1.75.33-3.49,1.1-5.06.69-1.39,1.8-2.54,3.16-3.28,1.38-.75,2.94-1.14,4.51-1.12,1.68-.06,3.33.44,4.69,1.42,1.3,1,2.24,2.41,2.65,4l-2.42.58c-.29-1.17-.95-2.22-1.88-3-.9-.64-1.99-.96-3.09-.92-1.27-.05-2.52.3-3.58,1-.95.67-1.65,1.64-2,2.75-.82,2.51-.79,5.22.11,7.71.38,1.13,1.14,2.09,2.16,2.72.95.58,2.05.89,3.16.88,1.27.03,2.51-.39,3.5-1.19,1.02-.93,1.7-2.18,1.92-3.54Z"/>
  <line class="cls-14" x1="386.72" y1="62.96" x2="363.45" y2="62.96"/>
  <line class="cls-14" x1="386.72" y1="82.36" x2="363.45" y2="82.36"/>
  <line class="cls-14" x1="386.72" y1="101.75" x2="363.45" y2="101.75"/>
  <line class="cls-14" x1="386.72" y1="121.15" x2="363.45" y2="121.15"/>
  <path class="cls-4" d="M467.19,161.39h2.46v10.74c.05,1.51-.16,3.02-.63,4.45-.44,1.12-1.25,2.07-2.29,2.68-1.33.73-2.83,1.08-4.35,1-1.47.06-2.94-.25-4.26-.9-1.08-.55-1.92-1.47-2.37-2.6-.54-1.49-.78-3.08-.71-4.66v-10.71h2.45v10.73c-.06,1.2.09,2.41.45,3.56.29.75.84,1.38,1.55,1.77.82.44,1.75.66,2.68.63,1.41.14,2.81-.31,3.87-1.24.77-.82,1.15-2.39,1.15-4.72v-10.73Z"/>
  <line class="cls-14" x1="475.3" y1="169.64" x2="488.23" y2="169.64"/>
  <path class="cls-2" d="M497.91,180h-2.29v-14.57c-.66.61-1.38,1.14-2.16,1.58-.76.46-1.57.86-2.4,1.18v-2.19c1.21-.56,2.34-1.3,3.35-2.18.82-.69,1.5-1.53,2-2.48h1.48l.02,18.66ZM503.68,170.83c-.05-1.79.18-3.58.68-5.3.36-1.2,1.05-2.28,2-3.1.96-.75,2.15-1.14,3.37-1.09.91-.02,1.81.19,2.62.6.76.4,1.4,1,1.86,1.73.53.86.92,1.79,1.16,2.77.32,1.44.46,2.92.42,4.39.05,1.78-.18,3.57-.67,5.28-.36,1.2-1.05,2.28-2,3.11-2.37,1.73-5.67,1.37-7.61-.83-1.21-1.57-1.83-4.09-1.83-7.58v.02ZM506.04,170.83c0,3.05.35,5.08,1.07,6.09.85,1.46,2.73,1.95,4.19,1.09.45-.26.83-.64,1.09-1.09.72-1,1.07-3,1.07-6.08s-.35-5.09-1.07-6.1c-.58-.92-1.58-1.49-2.67-1.51-1.01-.02-1.96.49-2.5,1.34-.81,1.11-1.22,3.19-1.22,6.24l.04.02Z"/>
  <path class="cls-7" d="M443,161.39h2.45v10.74c.05,1.51-.16,3.02-.63,4.45-.44,1.13-1.25,2.07-2.29,2.68-1.32.73-2.83,1.08-4.34,1-1.48.06-2.94-.25-4.27-.9-1.08-.55-1.92-1.47-2.37-2.6-.53-1.49-.77-3.08-.71-4.66v-10.71h2.46v10.73c-.06,1.2.09,2.41.45,3.56.29.76.84,1.38,1.55,1.77.82.44,1.75.66,2.68.63,1.4.14,2.8-.31,3.86-1.24.77-.82,1.16-2.39,1.16-4.72v-10.73Z"/>
  <path class="cls-4" d="M419.33,172.69v-2.19h7.87v6.89c-1.12.92-2.39,1.65-3.74,2.17-1.26.48-2.6.73-3.95.73-1.74.03-3.45-.37-5-1.17-1.45-.75-2.64-1.93-3.38-3.39-.77-1.53-1.16-3.23-1.14-4.95-.01-1.75.38-3.49,1.14-5.07.68-1.49,1.82-2.71,3.26-3.49,1.52-.78,3.2-1.17,4.91-1.14,1.24-.02,2.48.2,3.64.65,1,.37,1.88,1,2.56,1.82.67.89,1.14,1.91,1.4,3l-2.21.61c-.2-.8-.54-1.55-1-2.23-.47-.58-1.08-1.03-1.78-1.3-.81-.34-1.68-.5-2.56-.49-1-.02-1.99.15-2.92.52-.76.29-1.44.75-2,1.34-.49.54-.89,1.17-1.17,1.84-.49,1.19-.73,2.46-.72,3.75-.05,1.43.25,2.85.86,4.15.54,1.08,1.41,1.95,2.49,2.49,1.08.54,2.27.81,3.48.81,1.97-.04,3.87-.72,5.43-1.93v-3.46l-5.47.04Z"/>
  <path class="cls-6" d="M395.08,172.69v-2.19h7.92v6.89c-1.12.92-2.38,1.65-3.73,2.17-1.28.49-2.63.74-4,.73-1.74.03-3.46-.37-5-1.17-1.46-.74-2.64-1.93-3.38-3.39-.77-1.53-1.16-3.23-1.14-4.95-.01-1.75.38-3.49,1.13-5.07.69-1.48,1.83-2.71,3.27-3.49,1.51-.78,3.2-1.17,4.9-1.14,1.25-.02,2.49.2,3.65.65,1,.37,1.88,1,2.55,1.82.67.89,1.15,1.91,1.41,3l-2.22.61c-.2-.8-.54-1.55-1-2.23-.46-.58-1.07-1.03-1.77-1.3-.81-.34-1.69-.5-2.57-.49-1-.02-1.98.15-2.91.52-.76.29-1.44.75-2,1.34-.49.54-.89,1.17-1.17,1.84-.48,1.19-.72,2.47-.71,3.75-.05,1.43.25,2.85.86,4.15.54,1.08,1.41,1.95,2.49,2.49,1.08.54,2.27.81,3.47.81,1.07,0,2.13-.21,3.12-.62.84-.31,1.61-.75,2.31-1.31v-3.46l-5.48.04Z"/>
  <path class="cls-6" d="M385.79,199.37l7.14-18.58h2.65l7.6,18.58h-2.8l-2.17-5.62h-7.77l-2,5.62h-2.65ZM391.15,191.74h6.3l-1.94-5.14c-.59-1.57-1-2.85-1.31-3.86-.24,1.21-.58,2.39-1,3.55l-2.05,5.45Z"/>
  <path class="cls-6" d="M400.37,212.26l2.46.61c-.4,1.82-1.39,3.45-2.83,4.63-1.4,1.08-3.14,1.64-4.91,1.59-1.71.08-3.41-.35-4.88-1.23-1.29-.86-2.3-2.1-2.87-3.54-.67-1.58-1.01-3.28-1-5-.04-1.75.34-3.49,1.11-5.06.69-1.39,1.79-2.54,3.15-3.29,1.38-.75,2.94-1.13,4.51-1.12,1.68-.06,3.33.44,4.69,1.42,1.3,1,2.24,2.41,2.65,4l-2.42.57c-.3-1.16-.96-2.19-1.88-2.95-.9-.64-1.99-.97-3.09-.93-1.27-.05-2.52.3-3.58,1-.95.68-1.65,1.65-2,2.76-.39,1.15-.58,2.36-.58,3.57-.03,1.41.2,2.81.69,4.13.4,1.1,1.16,2.03,2.15,2.65.95.58,2.04.88,3.15.87,1.27.04,2.52-.38,3.5-1.19,1.03-.91,1.73-2.14,1.98-3.49Z"/>
  <path class="cls-7" d="M418.7,214.73h2.46v10.74c.05,1.51-.16,3.02-.63,4.45-.45,1.12-1.25,2.06-2.29,2.68-1.33.73-2.84,1.08-4.35,1-1.47.06-2.93-.25-4.26-.89-1.07-.56-1.91-1.49-2.37-2.61-.54-1.49-.78-3.08-.71-4.66v-10.71h2.45v10.73c-.06,1.2.09,2.41.45,3.56.29.76.84,1.38,1.55,1.77.82.44,1.75.66,2.68.63,1.4.14,2.8-.31,3.87-1.23.77-.83,1.15-2.4,1.15-4.73v-10.73Z"/>
  <path class="cls-8" d="M428.4,234.13h2.45v10.73c.05,1.51-.16,3.02-.63,4.46-.44,1.12-1.24,2.06-2.28,2.68-1.33.73-2.84,1.08-4.35,1-1.48.06-2.94-.25-4.27-.9-1.07-.56-1.91-1.48-2.37-2.6-.53-1.5-.77-3.08-.71-4.67v-10.7h2.46v10.73c-.06,1.2.09,2.41.45,3.56.29.75.84,1.38,1.55,1.77.82.44,1.75.65,2.68.62,1.4.14,2.8-.31,3.87-1.23.76-.82,1.15-2.39,1.15-4.72v-10.73Z"/>
  <path class="cls-8" d="M303.35,257.56l7.14-18.56h2.65l7.6,18.58h-2.8l-2.16-5.62h-7.78l-2,5.62-2.65-.02ZM308.72,249.93h6.28l-1.94-5.14c-.59-1.57-1-2.85-1.31-3.86-.24,1.21-.57,2.4-1,3.55l-2.03,5.45Z"/>
  <path class="cls-8" d="M322.78,231.65l2.46.62c-.39,1.81-1.36,3.43-2.78,4.62-1.4,1.08-3.14,1.64-4.91,1.59-1.71.07-3.41-.35-4.89-1.22-1.29-.86-2.29-2.1-2.86-3.54-.67-1.58-1.01-3.28-1-5-.04-1.75.34-3.49,1.11-5.06.69-1.39,1.8-2.54,3.16-3.28,1.38-.75,2.94-1.14,4.51-1.12,1.67-.06,3.32.44,4.68,1.42,1.31,1,2.24,2.41,2.65,4l-2.41.57c-.29-1.17-.95-2.22-1.88-3-.9-.64-1.99-.97-3.1-.92-1.27-.05-2.52.3-3.58,1-.95.68-1.65,1.64-2,2.75-.81,2.51-.77,5.22.11,7.71.4,1.1,1.15,2.03,2.15,2.64.95.58,2.05.89,3.16.88,1.27.03,2.51-.39,3.49-1.19,1.01-.91,1.69-2.13,1.93-3.47Z"/>
  <path class="cls-7" d="M336.89,216.33v-2.18h7.87v6.85c-1.12.91-2.38,1.64-3.73,2.17-1.28.48-2.63.72-4,.72-1.74.03-3.46-.37-5-1.17-1.46-.74-2.64-1.93-3.38-3.39-.78-1.55-1.17-3.27-1.14-5-.01-1.75.38-3.49,1.13-5.07.69-1.48,1.83-2.71,3.27-3.49,1.51-.78,3.2-1.17,4.9-1.14,1.25-.02,2.49.2,3.65.65.99.38,1.87,1,2.55,1.82.67.89,1.15,1.91,1.41,3l-2.22.61c-.2-.8-.54-1.55-1-2.23-.47-.58-1.08-1.03-1.77-1.3-.82-.33-1.69-.5-2.57-.49-1-.02-1.98.15-2.91.52-.76.3-1.44.76-2,1.35-.49.54-.89,1.16-1.17,1.84-.48,1.19-.72,2.46-.71,3.74-.05,1.43.25,2.85.86,4.15.53,1.08,1.41,1.96,2.49,2.49,1.08.54,2.27.81,3.47.81,1.07,0,2.13-.21,3.12-.62.84-.31,1.61-.75,2.31-1.31v-3.46l-5.43.13Z"/>
  <line class="cls-14" x1="327.15" y1="204.14" x2="318" y2="195"/>
  <path class="cls-2" d="M285.1,196h-2.2v-14c-.64.58-1.34,1.09-2.09,1.52-.74.44-1.52.82-2.32,1.14v-2.13c1.17-.54,2.26-1.25,3.23-2.11.82-.66,1.49-1.47,2-2.39h1.42l-.04,17.97ZM299,196h-2.2v-14c-.64.58-1.34,1.09-2.09,1.52-.74.44-1.52.82-2.32,1.14v-2.13c1.17-.54,2.26-1.25,3.23-2.11.81-.66,1.49-1.47,2-2.39h1.38v17.97ZM304.57,187.16c-.06-1.73.16-3.45.65-5.11.35-1.16,1.02-2.2,1.94-3,.93-.72,2.08-1.09,3.25-1.05.88-.02,1.75.18,2.53.58.73.39,1.35.97,1.79,1.67.51.82.89,1.73,1.12,2.67.3,1.39.44,2.81.4,4.23.05,1.72-.17,3.44-.65,5.09-.34,1.16-1.01,2.21-1.93,3-2.28,1.67-5.46,1.33-7.33-.79-1.21-1.49-1.81-3.92-1.81-7.29h.04ZM306.83,187.16c0,2.94.35,4.9,1,5.87.87,1.41,2.72,1.84,4.13.97.39-.24.73-.58.97-.97.69-1,1-2.93,1-5.86s-.34-4.91-1-5.88c-.55-.89-1.52-1.44-2.57-1.45-.98-.02-1.89.47-2.42,1.29-.77,1.09-1.15,3.1-1.15,6.03h.04Z"/>
  <path class="cls-6" d="M356.29,211.48v-2.18h7.87v6.9c-1.13.91-2.39,1.64-3.74,2.17-1.26.48-2.6.73-3.95.73-1.74.03-3.46-.38-5-1.18-1.45-.75-2.63-1.93-3.37-3.39-.79-1.55-1.18-3.26-1.15-5-.01-1.75.38-3.48,1.14-5.06.68-1.49,1.82-2.72,3.26-3.5,1.52-.78,3.2-1.17,4.91-1.14,1.24-.02,2.48.2,3.64.65,1,.38,1.88,1,2.56,1.82.67.89,1.14,1.91,1.4,3l-2.21.61c-.2-.8-.54-1.55-1-2.23-.47-.58-1.09-1.03-1.78-1.3-.81-.33-1.68-.5-2.56-.49-1-.02-1.99.16-2.92.52-.76.29-1.44.75-2,1.35-.49.54-.89,1.16-1.17,1.84-.49,1.19-.73,2.46-.71,3.74-.05,1.43.24,2.85.85,4.15.53,1.09,1.41,1.96,2.5,2.49,1.08.54,2.27.82,3.47.81,1.97-.04,3.87-.72,5.43-1.93v-3.46l-5.47.08Z"/>
  <path class="cls-6" d="M360.51,180.79h2.49v10.73c.06,1.51-.16,3.02-.63,4.45-.45,1.12-1.25,2.07-2.29,2.69-1.33.73-2.84,1.07-4.35,1-1.47.06-2.94-.25-4.26-.9-1.07-.56-1.91-1.48-2.37-2.6-.54-1.5-.78-3.08-.71-4.67v-10.7h2.45v10.73c-.06,1.2.09,2.41.45,3.56.29.75.84,1.38,1.55,1.77.82.44,1.75.65,2.68.62,1.4.14,2.8-.31,3.87-1.23.77-.82,1.15-2.39,1.15-4.72l-.03-10.73Z"/>
  <path class="cls-6" d="M361.58,173.46l2.45.62c-.38,1.81-1.36,3.44-2.78,4.62-1.4,1.08-3.14,1.64-4.91,1.59-1.71.07-3.41-.35-4.89-1.22-1.29-.87-2.28-2.1-2.86-3.54-.67-1.58-1.01-3.28-1-5-.04-1.75.33-3.49,1.1-5.06.69-1.39,1.8-2.54,3.16-3.28,1.38-.75,2.94-1.14,4.51-1.12,1.68-.06,3.33.44,4.69,1.42,1.3,1,2.24,2.41,2.65,4l-2.42.57c-.29-1.17-.95-2.22-1.88-3-.9-.64-1.99-.96-3.09-.92-1.27-.05-2.52.3-3.58,1-.95.67-1.65,1.64-2,2.75-.82,2.51-.79,5.22.11,7.71.39,1.1,1.15,2.03,2.14,2.64.95.58,2.05.89,3.16.88,1.27.03,2.51-.39,3.5-1.19,1.01-.91,1.7-2.13,1.94-3.47Z"/>
  <line class="cls-14" x1="386.72" y1="169.64" x2="363.45" y2="169.64"/>
  <line class="cls-14" x1="386.72" y1="189.04" x2="363.45" y2="189.04"/>
  <line class="cls-14" x1="386.72" y1="208.43" x2="363.45" y2="208.43"/>
  <path class="cls-8" d="M419.77,270.45l2.45.61c-.38,1.81-1.36,3.44-2.78,4.63-1.4,1.08-3.14,1.64-4.91,1.59-1.71.07-3.41-.35-4.89-1.23-1.29-.86-2.29-2.1-2.86-3.54-.67-1.58-1.01-3.28-1-5-.04-1.75.34-3.49,1.11-5.06.69-1.39,1.8-2.54,3.16-3.29,1.38-.75,2.94-1.14,4.51-1.12,1.68-.06,3.33.44,4.69,1.42,1.3,1,2.23,2.41,2.65,4l-2.42.57c-.29-1.17-.95-2.22-1.88-3-.9-.64-1.99-.97-3.09-.93-1.27-.05-2.52.3-3.58,1-.95.68-1.65,1.65-2,2.76-.39,1.15-.59,2.36-.59,3.57-.03,1.41.2,2.81.69,4.13.4,1.1,1.16,2.03,2.15,2.65.95.57,2.05.88,3.16.87,1.27.04,2.51-.38,3.49-1.19,1.01-.9,1.69-2.11,1.94-3.44Z"/>
  <path class="cls-5" d="M404.15,277.77h2.46v10.74c.06,1.52-.14,3.04-.61,4.49-.44,1.12-1.25,2.07-2.29,2.68-1.32.73-2.83,1.08-4.34,1-1.48.06-2.94-.25-4.27-.9-1.08-.55-1.92-1.47-2.37-2.6-.53-1.49-.77-3.08-.71-4.66v-10.75h2.46v10.73c-.06,1.2.09,2.41.45,3.56.29.75.83,1.38,1.54,1.77.82.44,1.75.66,2.68.63,1.41.14,2.81-.31,3.87-1.24.77-.82,1.15-2.39,1.15-4.72l-.02-10.73Z"/>
  <path class="cls-5" d="M399.93,308.47v-2.19h7.87v6.9c-1.12.91-2.38,1.64-3.73,2.17-1.28.49-2.63.74-4,.73-1.74.03-3.45-.37-5-1.17-1.45-.75-2.63-1.93-3.37-3.39-.78-1.55-1.17-3.27-1.14-5-.02-1.75.37-3.48,1.13-5.06.7-1.48,1.86-2.7,3.31-3.46,1.51-.79,3.2-1.19,4.91-1.15,1.25-.02,2.49.21,3.65.66,1,.37,1.88,1,2.55,1.82.67.89,1.15,1.91,1.41,3l-2.22.61c-.2-.8-.54-1.56-1-2.24-.47-.58-1.08-1.02-1.77-1.29-.81-.34-1.69-.5-2.57-.49-.99-.02-1.98.15-2.91.51-.76.29-1.44.75-2,1.35-.49.54-.89,1.17-1.17,1.84-.48,1.19-.72,2.46-.71,3.74-.05,1.43.24,2.85.85,4.15.54,1.08,1.42,1.96,2.5,2.49,1.08.54,2.27.81,3.47.81,1.07,0,2.13-.21,3.12-.61.84-.31,1.62-.76,2.31-1.32v-3.45l-5.49.04Z"/>
  <line class="cls-14" x1="412.26" y1="305.42" x2="425.19" y2="305.42"/>
  <path class="cls-2" d="M438.26,313.56v2.19h-12.26c-.02-.54.07-1.08.26-1.58.36-.9.87-1.74,1.51-2.47.92-1.02,1.92-1.97,3-2.82,1.51-1.15,2.89-2.47,4.1-3.93.63-.78,1-1.74,1.06-2.75.02-.87-.35-1.71-1-2.29-.68-.63-1.59-.97-2.52-.93-.98-.05-1.94.32-2.64,1-.69.74-1.05,1.73-1,2.74l-2.34-.25c.05-1.52.7-2.96,1.81-4,1.19-.97,2.69-1.46,4.22-1.38,1.55-.08,3.07.45,4.23,1.49,1.02.94,1.59,2.28,1.56,3.67,0,.75-.15,1.5-.45,2.19-.38.83-.89,1.6-1.52,2.27-1.09,1.17-2.27,2.26-3.51,3.27-1.37,1.16-2.25,1.94-2.64,2.34-.38.37-.71.79-1,1.24h9.13ZM440.65,306.56c-.06-1.79.17-3.59.68-5.31.36-1.2,1.05-2.28,2-3.1.96-.75,2.15-1.13,3.37-1.09.91-.02,1.81.19,2.62.6.76.41,1.41,1.01,1.87,1.74.52.86.91,1.79,1.15,2.76.32,1.44.46,2.92.42,4.4.06,1.78-.17,3.57-.67,5.28-.36,1.2-1.05,2.28-2,3.1-.96.76-2.16,1.15-3.38,1.1-1.63.07-3.2-.64-4.22-1.92-1.23-1.53-1.84-4.04-1.84-7.53v-.03ZM443,306.56c0,3.05.35,5.08,1.07,6.09.85,1.46,2.73,1.95,4.19,1.09.45-.26.83-.64,1.09-1.09.72-1.01,1.08-3.03,1.08-6.08s-.36-5.08-1.08-6.1c-.57-.93-1.57-1.5-2.66-1.51-1.01-.02-1.96.49-2.51,1.34-.79,1.13-1.18,3.23-1.18,6.29v-.03Z"/>
  <path class="cls-5" d="M405.22,328.64l2.46.61c-.39,1.81-1.37,3.44-2.79,4.63-1.4,1.08-3.14,1.64-4.91,1.59-1.71.08-3.41-.35-4.88-1.23-1.29-.86-2.29-2.1-2.87-3.54-.67-1.58-1.01-3.28-1-5-.03-1.73.35-3.45,1.11-5,.69-1.39,1.79-2.54,3.15-3.29,1.38-.75,2.94-1.14,4.51-1.12,1.68-.06,3.33.44,4.69,1.42,1.3,1,2.24,2.41,2.65,4l-2.42.57c-.29-1.17-.95-2.22-1.88-3-.9-.64-1.99-.97-3.09-.93-1.27-.05-2.52.3-3.58,1-.95.68-1.65,1.65-2,2.76-.39,1.15-.58,2.36-.58,3.57-.03,1.41.21,2.81.69,4.13.39,1.1,1.15,2.04,2.15,2.65.95.58,2.04.88,3.15.87,1.27.03,2.51-.39,3.5-1.19,1.02-.92,1.7-2.15,1.94-3.5Z"/>
  <path class="cls-5" d="M405.22,348l2.46.62c-.39,1.81-1.37,3.43-2.79,4.62-1.4,1.08-3.14,1.64-4.91,1.59-1.71.07-3.41-.35-4.88-1.22-1.29-.86-2.29-2.1-2.87-3.54-.67-1.58-1.01-3.28-1-5-.04-1.75.34-3.49,1.11-5.06.69-1.39,1.79-2.54,3.15-3.28,1.38-.75,2.94-1.14,4.51-1.12,1.68-.06,3.33.44,4.69,1.42,1.31,1,2.24,2.41,2.65,4l-2.42.57c-.29-1.17-.95-2.22-1.88-3-.9-.64-1.99-.96-3.09-.92-1.27-.05-2.52.3-3.58,1-.95.68-1.65,1.64-2,2.75-.39,1.15-.58,2.36-.58,3.57-.03,1.41.2,2.81.69,4.14.39,1.1,1.15,2.03,2.15,2.64.95.58,2.04.88,3.15.88,1.27.03,2.51-.39,3.5-1.19,1.01-.91,1.7-2.13,1.94-3.47Z"/>
  <path class="cls-5" d="M366.43,369.51l2.45.61c-.38,1.81-1.36,3.44-2.78,4.62-1.4,1.08-3.14,1.64-4.91,1.59-1.71.08-3.41-.35-4.89-1.22-1.29-.86-2.29-2.1-2.86-3.54-.67-1.58-1.01-3.28-1-5-.04-1.75.34-3.49,1.11-5.06.69-1.39,1.8-2.54,3.16-3.28,1.38-.75,2.94-1.14,4.51-1.12,1.68-.06,3.33.44,4.69,1.42,1.3,1,2.24,2.41,2.65,4l-2.42.57c-.29-1.17-.95-2.22-1.88-3-.9-.64-1.99-.97-3.09-.93-1.27-.05-2.52.3-3.58,1-.95.67-1.65,1.64-2,2.75-.39,1.15-.59,2.36-.59,3.58-.03,1.41.21,2.81.69,4.13.4,1.1,1.16,2.03,2.15,2.64.95.58,2.05.89,3.16.88,1.27.03,2.51-.39,3.49-1.19,1.01-.9,1.7-2.12,1.94-3.45Z"/>
  <path class="cls-5" d="M361.14,347.26v-2.19h7.86v6.93c-1.12.92-2.39,1.65-3.74,2.17-1.26.48-2.6.73-3.95.73-1.74.03-3.45-.37-5-1.17-1.44-.77-2.6-1.97-3.31-3.43-.79-1.55-1.18-3.26-1.15-5-.01-1.75.38-3.48,1.14-5.06.68-1.49,1.82-2.71,3.26-3.49,1.52-.78,3.2-1.17,4.91-1.14,1.24-.02,2.48.2,3.64.65,1,.37,1.88,1,2.56,1.82.67.89,1.15,1.91,1.4,3l-2.21.61c-.2-.8-.54-1.55-1-2.23-.47-.58-1.08-1.03-1.78-1.3-.81-.34-1.68-.5-2.56-.49-1-.02-1.99.15-2.92.51-.76.3-1.44.76-2,1.35-.49.54-.89,1.17-1.17,1.84-.49,1.19-.73,2.46-.72,3.74-.05,1.44.25,2.86.86,4.16.54,1.08,1.42,1.95,2.5,2.48,1.07.55,2.26.83,3.47.82,1.97-.04,3.87-.72,5.43-1.93v-3.46l-5.52.08Z"/>
  <path class="cls-5" d="M361.14,327.86v-2.18h7.86v6.9c-1.13.91-2.39,1.64-3.74,2.17-1.26.48-2.6.73-3.95.73-1.74.02-3.46-.38-5-1.18-1.43-.76-2.59-1.95-3.31-3.4-.78-1.53-1.18-3.23-1.15-4.95-.01-1.75.38-3.49,1.14-5.07.68-1.49,1.82-2.71,3.26-3.49,1.52-.78,3.2-1.17,4.91-1.14,1.24-.02,2.48.2,3.64.65,1,.38,1.88,1,2.56,1.82.67.89,1.14,1.91,1.4,3l-2.21.61c-.2-.8-.54-1.55-1-2.23-.47-.58-1.09-1.03-1.78-1.3-.81-.33-1.68-.5-2.56-.49-1-.02-1.99.16-2.92.52-.76.29-1.44.75-2,1.35-.49.54-.89,1.16-1.17,1.84-.49,1.19-.73,2.46-.72,3.74-.05,1.43.25,2.85.86,4.15.53,1.09,1.41,1.96,2.5,2.49,1.08.54,2.27.82,3.47.81,1.97-.04,3.87-.72,5.43-1.93v-3.46l-5.52.04Z"/>
  <path class="cls-5" d="M366.43,309.24l2.45.62c-.38,1.81-1.36,3.44-2.78,4.62-1.4,1.08-3.14,1.64-4.91,1.59-1.71.07-3.41-.35-4.89-1.23-1.29-.86-2.29-2.09-2.86-3.54-.67-1.58-1.01-3.28-1-5-.04-1.75.34-3.49,1.11-5.06.69-1.39,1.8-2.54,3.16-3.28,1.38-.76,2.93-1.14,4.51-1.13,1.68-.05,3.32.45,4.69,1.42,1.3,1,2.23,2.41,2.65,4l-2.42.57c-.31-1.15-.96-2.19-1.88-2.95-.9-.64-1.99-.96-3.09-.92-1.27-.05-2.52.3-3.58,1-.95.68-1.65,1.65-2,2.76-.39,1.15-.59,2.36-.59,3.57-.03,1.41.2,2.81.69,4.14.4,1.1,1.16,2.03,2.15,2.64.95.6,2.04.92,3.16.94,1.27.04,2.51-.39,3.49-1.2,1.04-.93,1.72-2.19,1.94-3.56Z"/>
  <path class="cls-5" d="M351.85,296.36l7.15-18.59h2.65l7.61,18.59h-2.81l-2.16-5.63h-7.79l-2,5.63h-2.65ZM357.21,288.72h6.29l-1.93-5.14c-.59-1.56-1-2.85-1.32-3.85-.23,1.21-.57,2.39-1,3.54l-2.04,5.45Z"/>
  <path class="cls-8" d="M347,285l2.46.62c-.39,1.81-1.37,3.43-2.79,4.62-1.4,1.08-3.14,1.64-4.91,1.59-1.71.07-3.41-.35-4.88-1.22-1.29-.86-2.29-2.1-2.87-3.54-.67-1.58-1.01-3.28-1-5-.04-1.75.34-3.49,1.11-5.06.69-1.39,1.79-2.54,3.15-3.28,1.38-.75,2.94-1.14,4.51-1.12,1.68-.06,3.33.44,4.69,1.42,1.31,1,2.24,2.41,2.65,4l-2.42.57c-.3-1.16-.96-2.19-1.88-2.95-.9-.64-1.99-.97-3.09-.93-1.27-.05-2.52.3-3.58,1-.95.68-1.65,1.64-2,2.75-.39,1.15-.58,2.36-.58,3.58-.03,1.41.21,2.81.69,4.13.39,1.1,1.15,2.03,2.15,2.64.95.58,2.04.88,3.15.88,1.27.03,2.51-.39,3.5-1.19,1.02-.92,1.71-2.16,1.94-3.51Z"/>
  <path class="cls-8" d="M327.63,275.3l2.46.61c-.38,1.81-1.36,3.44-2.78,4.63-1.41,1.07-3.14,1.63-4.91,1.58-1.71.08-3.41-.35-4.89-1.22-1.29-.86-2.29-2.1-2.86-3.54-.67-1.58-1.01-3.28-1-5-.04-1.75.34-3.48,1.11-5.05.69-1.39,1.8-2.54,3.16-3.29,1.38-.75,2.93-1.14,4.5-1.12,1.68-.06,3.33.44,4.69,1.42,1.3,1,2.24,2.41,2.65,4l-2.41.57c-.31-1.15-.96-2.18-1.88-2.95-.9-.65-1.99-.97-3.1-.93-1.27-.05-2.52.3-3.58,1-.95.68-1.65,1.65-2,2.76-.39,1.15-.58,2.36-.58,3.57-.03,1.41.21,2.81.69,4.13.4,1.1,1.16,2.03,2.15,2.65.95.58,2.04.88,3.15.87,1.27.04,2.51-.39,3.5-1.19,1.02-.91,1.7-2.15,1.93-3.5Z"/>
  <line class="cls-14" x1="391.57" y1="286.02" x2="368.3" y2="286.02"/>
  <line class="cls-14" x1="391.57" y1="305.42" x2="368.3" y2="305.42"/>
  <line class="cls-14" x1="391.57" y1="324.81" x2="368.3" y2="324.81"/>
  <line class="cls-14" x1="391.57" y1="344.21" x2="368.3" y2="344.21"/>
  <g class="cls-13">
    <text class="cls-11" transform="translate(13.27 28.51)"><tspan x="0" y="0">Streptmycin RN</tspan></text>
    <text class="cls-12" transform="translate(153.3 28.51)"><tspan x="0" y="0">A</tspan></text>
    <text class="cls-11" transform="translate(165.54 28.51)"><tspan x="0" y="0" xml:space="preserve"> aptamer</tspan></text>
  </g>
  <rect class="cls-3" x="327.24" y="232.27" width="79.92" height="25.79"/>
  <text class="cls-9" transform="translate(327.28 249)"><tspan x="0" y="0">Streptmycin</tspan></text>
  <g class="cls-13">
    <text class="cls-11" transform="translate(388.67 26.67)"><tspan x="0" y="0">5</tspan></text>
    <text class="cls-10" transform="translate(399.79 26.67)"><tspan x="0" y="0">’</tspan></text>
  </g>
  <g class="cls-13">
    <text class="cls-11" transform="translate(349.67 49.67)"><tspan x="0" y="0">3</tspan></text>
    <text class="cls-10" transform="translate(360.79 49.67)"><tspan x="0" y="0">’</tspan></text>
  </g>
  <g class="cls-13">
    <text class="cls-11" transform="translate(354.09 395.96)"><tspan x="0" y="0">5</tspan></text>
    <text class="cls-10" transform="translate(365.21 395.96)"><tspan x="0" y="0">’</tspan></text>
  </g>
  <g class="cls-13">
    <text class="cls-11" transform="translate(391.89 374.36)"><tspan x="0" y="0">3</tspan></text>
    <text class="cls-10" transform="translate(403.01 374.36)"><tspan x="0" y="0">’</tspan></text>
  </g>
</svg>