<?xml version="1.0" encoding="utf-8"?>
<!-- Generator: Adobe Illustrator 25.2.0, SVG Export Plug-In . SVG Version: 6.00 Build 0)  -->
<svg version="1.1" id="_图层_1" xmlns="http://www.w3.org/2000/svg" xmlns:xlink="http://www.w3.org/1999/xlink" x="0px" y="0px"
	 viewBox="0 0 800 400" style="enable-background:new 0 0 800 400;" xml:space="preserve">
<style type="text/css">
	.st0{fill:none;stroke:#AAAAAA;stroke-width:2;stroke-linejoin:round;stroke-dasharray:5,10;}
	.st1{fill:#09FEFE;}
	.st2{fill:#FFC0CB;}
	.st3{fill:none;stroke:#000000;stroke-width:1.33;stroke-linejoin:round;}
	.st4{fill:#FF00FF;}
	.st5{fill:#008080;}
	.st6{fill:#32CD32;}
	.st7{fill:#C2C2FF;}
	.st8{font-family:'ArialMT';}
	.st9{font-size:20px;}
	.st10{letter-spacing:-2;}
	.st11{fill:#FFFF00;}
	.st12{font-size:13.65px;}
	.st13{font-size:18.2px;}
	.st14{letter-spacing:-1;}
</style>
<path class="st0" d="M401.2,307.5c23.2,5.2,37.7,28.5,32.4,52.1s-28.4,38.5-51.5,33.3c-23.2-5.2-37.7-28.5-32.4-52.1"/>
<path class="st1" d="M384.6,36.3v-2h7.2v6.3c-1,0.8-2.2,1.5-3.4,2c-1.2,0.4-2.4,0.7-3.6,0.7c-1.6,0-3.1-0.3-4.5-1.1
	c-1.3-0.7-2.4-1.8-3.1-3.1c-0.7-1.4-1.1-2.9-1-4.5c0-1.6,0.3-3.2,1-4.6c0.6-1.4,1.7-2.5,3-3.2c1.4-0.7,2.9-1.1,4.5-1
	c1.1,0,2.3,0.2,3.3,0.6c0.9,0.3,1.7,0.9,2.3,1.7c0.6,0.8,1,1.7,1.3,2.7l-2,0.6c-0.2-0.7-0.5-1.4-0.9-2c-0.4-0.5-1-0.9-1.6-1.2
	c-0.7-0.3-1.5-0.5-2.3-0.5c-0.9,0-1.8,0.1-2.6,0.5c-0.7,0.3-1.3,0.7-1.8,1.2c-0.5,0.5-0.8,1.1-1.1,1.7c-0.4,1.1-0.7,2.2-0.6,3.4
	c0,1.3,0.2,2.6,0.8,3.8c0.5,1,1.3,1.8,2.3,2.3c1,0.5,2.1,0.7,3.2,0.7c1,0,1.9-0.2,2.8-0.6c0.8-0.3,1.5-0.7,2.1-1.2v-3.2L384.6,36.3
	L384.6,36.3z"/>
<path class="st1" d="M384.6,53.9v-2h7.2v6.3c-1,0.8-2.2,1.5-3.4,2c-1.2,0.4-2.4,0.7-3.6,0.7c-1.6,0-3.1-0.3-4.5-1.1
	c-1.3-0.7-2.4-1.8-3.1-3.1c-0.7-1.4-1.1-3-1-4.5c0-1.6,0.4-3.2,1-4.6c0.6-1.3,1.7-2.5,3-3.2c1.4-0.7,2.9-1.1,4.5-1
	c1.1,0,2.3,0.2,3.3,0.6c0.9,0.3,1.7,0.9,2.3,1.7c0.6,0.8,1,1.7,1.3,2.7l-2,0.6c-0.2-0.7-0.5-1.4-0.9-2c-0.4-0.5-1-0.9-1.6-1.2
	c-0.7-0.3-1.5-0.5-2.3-0.5c-0.9,0-1.8,0.1-2.6,0.5c-0.7,0.3-1.3,0.7-1.8,1.2c-0.5,0.5-0.8,1.1-1.1,1.7c-0.4,1.1-0.7,2.2-0.6,3.4
	c0,1.3,0.2,2.6,0.8,3.8c0.5,1,1.3,1.8,2.3,2.3c1,0.5,2.1,0.8,3.2,0.8c1,0,1.9-0.2,2.8-0.6c0.8-0.3,1.5-0.7,2.1-1.2v-3.2L384.6,53.9
	L384.6,53.9z"/>
<path class="st1" d="M376.1,78.2l6.5-16.9h2.4l6.9,16.9h-2.5l-2-5.1h-7.1l-1.8,5.1H376.1z M381,71.3h5.7l-1.8-4.7
	c-0.5-1.4-0.9-2.6-1.2-3.5c-0.2,1.1-0.5,2.2-0.9,3.2L381,71.3L381,71.3z"/>
<path class="st1" d="M388.5,79h2.2v9.8c0,1.4-0.1,2.7-0.6,4.1c-0.4,1-1.1,1.9-2.1,2.4c-1.2,0.7-2.6,1-4,0.9
	c-1.3,0.1-2.7-0.2-3.9-0.8c-1-0.5-1.7-1.3-2.2-2.4c-0.5-1.4-0.7-2.8-0.6-4.2V79h2.2v9.8c0,1.1,0.1,2.2,0.4,3.2
	c0.3,0.7,0.8,1.2,1.4,1.6c0.8,0.4,1.6,0.6,2.5,0.6c1.3,0.1,2.5-0.3,3.5-1.1c0.7-0.8,1-2.2,1-4.3L388.5,79L388.5,79z"/>
<path class="st1" d="M389.4,107.6l2.2,0.6c-0.4,1.7-1.2,3.1-2.5,4.2c-1.3,1-2.9,1.5-4.5,1.4c-1.6,0.1-3.1-0.3-4.4-1.1
	c-1.2-0.8-2.1-1.9-2.6-3.2c-0.6-1.4-0.9-3-0.9-4.6c0-1.6,0.3-3.2,1-4.6c0.6-1.3,1.6-2.3,2.9-3c1.3-0.7,2.7-1,4.1-1
	c1.5-0.1,3,0.4,4.3,1.3c1.2,0.9,2,2.2,2.4,3.6l-2.2,0.5c-0.3-1.1-0.9-2-1.7-2.7c-0.8-0.6-1.8-0.9-2.8-0.8c-1.2-0.1-2.3,0.3-3.3,0.9
	c-0.9,0.6-1.5,1.5-1.8,2.5c-0.4,1.1-0.5,2.1-0.5,3.2c0,1.3,0.2,2.6,0.6,3.8c0.4,1,1,1.8,2,2.4c0.9,0.5,1.9,0.8,2.9,0.8
	c1.2,0,2.3-0.3,3.2-1.1C388.6,110,389.2,108.8,389.4,107.6L389.4,107.6z"/>
<path class="st2" d="M402.3,106.9v-2h7.2v6.3c-1,0.8-2.2,1.5-3.4,2c-1.1,0.4-2.4,0.7-3.6,0.7c-1.6,0-3.1-0.3-4.5-1.1
	c-1.3-0.7-2.4-1.8-3.1-3.1c-0.7-1.4-1.1-3-1-4.6c0-1.6,0.3-3.2,1-4.6c0.6-1.3,1.7-2.5,3-3.2c1.4-0.7,2.9-1.1,4.5-1
	c1.1,0,2.3,0.2,3.3,0.6c0.9,0.3,1.7,0.9,2.3,1.7c0.6,0.8,1,1.7,1.3,2.7l-2,0.6c-0.2-0.7-0.5-1.4-0.9-2c-0.4-0.5-1-0.9-1.6-1.2
	c-0.7-0.3-1.5-0.5-2.3-0.4c-0.9,0-1.8,0.1-2.7,0.5c-0.7,0.3-1.3,0.7-1.8,1.2c-0.5,0.5-0.8,1.1-1.1,1.7c-0.4,1.1-0.7,2.2-0.6,3.4
	c0,1.3,0.2,2.6,0.8,3.8c0.5,1,1.3,1.8,2.3,2.3c1,0.5,2.1,0.8,3.2,0.8c1,0,1.9-0.2,2.8-0.6c0.8-0.3,1.5-0.7,2.1-1.2v-3.1L402.3,106.9
	L402.3,106.9z"/>
<path class="st2" d="M429.1,107.6l2.2,0.6c-0.4,1.6-1.2,3.1-2.5,4.2c-1.3,1-2.9,1.5-4.5,1.4c-1.6,0.1-3.1-0.3-4.5-1.1
	c-1.2-0.8-2.1-1.9-2.6-3.3c-0.6-1.4-0.9-3-0.9-4.6c0-1.6,0.3-3.2,1-4.6c0.6-1.3,1.6-2.3,2.9-3c1.3-0.7,2.7-1,4.1-1
	c1.5-0.1,3.1,0.4,4.3,1.3c1.2,0.9,2,2.2,2.4,3.6l-2.2,0.5c-0.3-1.1-0.9-2-1.7-2.7c-0.8-0.6-1.8-0.9-2.8-0.8
	c-1.2-0.1-2.3,0.3-3.3,0.9c-0.9,0.6-1.5,1.5-1.8,2.5c-0.4,1.1-0.5,2.1-0.5,3.2c0,1.3,0.2,2.6,0.6,3.8c0.4,1,1,1.8,2,2.4
	c0.9,0.5,1.9,0.8,2.9,0.8c1.2,0,2.3-0.3,3.2-1.1C428.3,109.9,428.9,108.8,429.1,107.6L429.1,107.6z"/>
<path class="st2" d="M433.5,113.5l6.5-16.9h2.4l6.9,16.9h-2.5l-2-5.1h-7.1l-1.8,5.1H433.5z M438.4,106.6h5.7l-1.8-4.7
	c-0.5-1.4-0.9-2.6-1.2-3.5c-0.2,1.1-0.5,2.2-0.9,3.2L438.4,106.6L438.4,106.6z"/>
<path class="st2" d="M454.6,118.7h2.2v9.8c0,1.4-0.1,2.7-0.6,4.1c-0.4,1-1.1,1.9-2.1,2.4c-1.2,0.7-2.6,1-4,0.9
	c-1.3,0.1-2.7-0.2-3.9-0.8c-1-0.5-1.7-1.4-2.2-2.4c-0.5-1.4-0.7-2.8-0.6-4.2v-9.7h2.2v9.8c0,1.1,0.1,2.2,0.4,3.2
	c0.3,0.7,0.8,1.2,1.4,1.6c0.8,0.4,1.6,0.6,2.4,0.6c1.3,0.1,2.5-0.3,3.5-1.1c0.7-0.8,1-2.2,1-4.3V118.7L454.6,118.7z"/>
<path class="st2" d="M340.5,129v-2h7.2v6.3c-1,0.8-2.2,1.5-3.4,2c-1.2,0.4-2.4,0.7-3.6,0.7c-1.6,0-3.1-0.3-4.5-1.1
	c-1.3-0.7-2.4-1.8-3.1-3.1c-0.7-1.4-1.1-2.9-1-4.5c0-1.6,0.3-3.2,1-4.6c0.6-1.4,1.7-2.5,3-3.2c1.4-0.7,2.9-1.1,4.5-1
	c1.1,0,2.3,0.2,3.3,0.6c0.9,0.3,1.7,0.9,2.3,1.7c0.6,0.8,1,1.7,1.3,2.7l-1.9,0.6c-0.2-0.7-0.5-1.4-0.9-2c-0.4-0.5-1-0.9-1.6-1.2
	c-0.7-0.3-1.5-0.4-2.3-0.4c-0.9,0-1.8,0.1-2.6,0.5c-0.7,0.3-1.3,0.7-1.8,1.2c-0.5,0.5-0.8,1.1-1.1,1.7c-0.4,1.1-0.7,2.2-0.6,3.4
	c0,1.3,0.2,2.6,0.8,3.8c0.5,1,1.3,1.8,2.3,2.3c1,0.5,2.1,0.7,3.2,0.7c1.8,0,3.5-0.7,4.9-1.8V129L340.5,129L340.5,129z"/>
<path class="st1" d="M349.3,106.9v-2h7.2v6.3c-1,0.8-2.2,1.5-3.4,2c-1.1,0.4-2.4,0.7-3.6,0.7c-1.6,0-3.1-0.3-4.5-1.1
	c-1.3-0.7-2.4-1.8-3.1-3.1c-0.7-1.4-1.1-3-1-4.6c0-1.6,0.3-3.2,1-4.6c0.6-1.3,1.7-2.5,3-3.2c1.4-0.7,2.9-1.1,4.5-1
	c1.1,0,2.3,0.2,3.3,0.6c0.9,0.3,1.7,0.9,2.3,1.7c0.6,0.8,1,1.7,1.3,2.7l-2,0.6c-0.2-0.7-0.5-1.4-0.9-2c-0.4-0.5-1-0.9-1.6-1.2
	c-0.7-0.3-1.5-0.5-2.3-0.4c-0.9,0-1.8,0.1-2.7,0.5c-0.7,0.3-1.3,0.7-1.8,1.2c-0.5,0.5-0.8,1.1-1.1,1.7c-0.4,1.1-0.7,2.2-0.6,3.4
	c0,1.3,0.2,2.6,0.8,3.8c0.5,1,1.3,1.8,2.3,2.3c1,0.5,2.1,0.8,3.2,0.8c1,0,1.9-0.2,2.8-0.6c0.8-0.3,1.5-0.7,2.1-1.2v-3.1L349.3,106.9
	L349.3,106.9z"/>
<path class="st1" d="M340.9,95.9l6.5-16.9h2.4l6.9,16.9h-2.6l-2-5.1h-7.1l-1.8,5.1L340.9,95.9L340.9,95.9z M345.7,88.9h5.7l-1.8-4.7
	c-0.5-1.4-0.9-2.6-1.2-3.5c-0.2,1.1-0.5,2.2-0.9,3.2L345.7,88.9z"/>
<path class="st1" d="M353.1,61.3h2.3v9.8c0,1.4-0.1,2.7-0.6,4.1c-0.4,1-1.1,1.9-2.1,2.5c-1.2,0.7-2.6,1-4,0.9
	c-1.3,0.1-2.7-0.2-3.9-0.8c-1-0.5-1.7-1.3-2.2-2.4c-0.5-1.4-0.7-2.8-0.6-4.2v-9.8h2.2v9.8c0,1.1,0.1,2.2,0.4,3.2
	c0.3,0.7,0.8,1.2,1.4,1.6c0.8,0.4,1.6,0.6,2.4,0.6c1.3,0.1,2.5-0.3,3.5-1.1c0.7-0.8,1-2.2,1-4.3V61.3L353.1,61.3z"/>
<path class="st1" d="M354.1,54.6l2.2,0.6c-0.4,1.6-1.2,3.1-2.5,4.2c-1.3,1-2.9,1.5-4.5,1.5c-1.6,0.1-3.1-0.3-4.5-1.1
	c-1.2-0.8-2.1-1.9-2.6-3.2c-0.6-1.4-0.9-3-0.9-4.5c0-1.6,0.3-3.2,1-4.6c0.6-1.3,1.6-2.3,2.9-3c1.3-0.7,2.7-1,4.1-1
	c1.5,0,3,0.4,4.3,1.3c1.2,0.9,2,2.2,2.4,3.6l-2.2,0.5c-0.3-1.1-0.9-2-1.7-2.7c-0.8-0.6-1.8-0.9-2.8-0.8c-1.2,0-2.3,0.3-3.3,0.9
	c-0.9,0.6-1.5,1.5-1.8,2.5c-0.8,2.3-0.7,4.8,0.1,7c0.4,1,1,1.9,2,2.5c0.9,0.5,1.9,0.8,2.9,0.8c1.2,0,2.3-0.3,3.2-1.1
	C353.3,57,353.9,55.9,354.1,54.6L354.1,54.6z"/>
<line class="st3" x1="377" y1="51.2" x2="355.8" y2="51.2"/>
<line class="st3" x1="377" y1="68.8" x2="355.8" y2="68.8"/>
<line class="st3" x1="377" y1="86.5" x2="355.8" y2="86.5"/>
<line class="st3" x1="377" y1="104.1" x2="355.8" y2="104.1"/>
<path class="st2" d="M450.2,140.8h2.2v9.8c0,1.4-0.1,2.7-0.6,4.1c-0.4,1-1.1,1.9-2.1,2.4c-1.2,0.7-2.6,1-4,0.9
	c-1.3,0.1-2.7-0.2-3.9-0.8c-1-0.5-1.8-1.3-2.2-2.4c-0.5-1.4-0.7-2.8-0.6-4.2v-9.8h2.2v9.8c0,1.1,0.1,2.2,0.4,3.2
	c0.3,0.7,0.8,1.3,1.4,1.6c0.8,0.4,1.6,0.6,2.4,0.6c1.3,0.1,2.6-0.3,3.5-1.1c0.7-0.8,1-2.2,1-4.3V140.8L450.2,140.8z"/>
<line class="st3" x1="457.6" y1="148.3" x2="469.4" y2="148.3"/>
<path d="M478.2,157.7h-2.1v-13.3c-0.6,0.6-1.3,1-2,1.4c-0.7,0.4-1.4,0.8-2.2,1.1v-2c1.1-0.5,2.1-1.2,3-2c0.7-0.6,1.4-1.4,1.8-2.3
	h1.4L478.2,157.7L478.2,157.7z M483.5,149.3c0-1.6,0.2-3.3,0.6-4.8c0.3-1.1,1-2.1,1.8-2.8c0.9-0.7,2-1,3.1-1c0.8,0,1.6,0.2,2.4,0.6
	c0.7,0.4,1.3,0.9,1.7,1.6c0.5,0.8,0.8,1.6,1.1,2.5c0.3,1.3,0.4,2.6,0.4,4c0,1.6-0.2,3.2-0.6,4.8c-0.3,1.1-1,2.1-1.8,2.8
	c-2.2,1.6-5.2,1.2-6.9-0.8C484,154.8,483.5,152.5,483.5,149.3L483.5,149.3L483.5,149.3z M485.6,149.3c0,2.8,0.3,4.6,1,5.5
	c0.8,1.3,2.5,1.8,3.8,1c0.4-0.2,0.8-0.6,1-1c0.7-0.9,1-2.7,1-5.5s-0.3-4.6-1-5.6c-0.5-0.8-1.4-1.4-2.4-1.4c-0.9,0-1.8,0.4-2.3,1.2
	C485.9,144.7,485.6,146.6,485.6,149.3L485.6,149.3L485.6,149.3z"/>
<path class="st4" d="M428.2,140.8h2.2v9.8c0,1.4-0.1,2.7-0.6,4.1c-0.4,1-1.1,1.9-2.1,2.4c-1.2,0.7-2.6,1-4,0.9
	c-1.3,0.1-2.7-0.2-3.9-0.8c-1-0.5-1.8-1.3-2.2-2.4c-0.5-1.4-0.7-2.8-0.6-4.2v-9.8h2.2v9.8c0,1.1,0.1,2.2,0.4,3.2
	c0.3,0.7,0.8,1.3,1.4,1.6c0.8,0.4,1.6,0.6,2.4,0.6c1.3,0.1,2.5-0.3,3.5-1.1c0.7-0.8,1.1-2.2,1.1-4.3V140.8L428.2,140.8z"/>
<path class="st2" d="M406.7,151v-2h7.2v6.3c-1,0.8-2.2,1.5-3.4,2c-1.1,0.4-2.4,0.7-3.6,0.7c-1.6,0-3.1-0.3-4.5-1.1
	c-1.3-0.7-2.4-1.8-3.1-3.1c-0.7-1.4-1.1-2.9-1-4.5c0-1.6,0.3-3.2,1-4.6c0.6-1.4,1.7-2.5,3-3.2c1.4-0.7,2.9-1.1,4.5-1
	c1.1,0,2.3,0.2,3.3,0.6c0.9,0.3,1.7,0.9,2.3,1.7c0.6,0.8,1,1.7,1.3,2.7l-2,0.6c-0.2-0.7-0.5-1.4-0.9-2c-0.4-0.5-1-0.9-1.6-1.2
	c-0.7-0.3-1.5-0.5-2.3-0.4c-0.9,0-1.8,0.1-2.7,0.5c-0.7,0.3-1.3,0.7-1.8,1.2c-0.5,0.5-0.8,1.1-1.1,1.7c-0.4,1.1-0.7,2.2-0.7,3.4
	c0,1.3,0.2,2.6,0.8,3.8c0.5,1,1.3,1.8,2.3,2.3c1,0.5,2.1,0.7,3.2,0.7c1.8,0,3.5-0.7,4.9-1.8V151L406.7,151L406.7,151z"/>
<path class="st5" d="M384.6,151v-2h7.2v6.3c-1,0.8-2.2,1.5-3.4,2c-1.2,0.4-2.4,0.7-3.6,0.7c-1.6,0-3.1-0.3-4.5-1.1
	c-1.3-0.7-2.4-1.8-3.1-3.1c-0.7-1.4-1.1-2.9-1-4.5c0-1.6,0.3-3.2,1-4.6c0.6-1.4,1.7-2.5,3-3.2c1.4-0.7,2.9-1.1,4.5-1
	c1.1,0,2.3,0.2,3.3,0.6c0.9,0.3,1.7,0.9,2.3,1.7c0.6,0.8,1,1.7,1.3,2.7l-2,0.6c-0.2-0.7-0.5-1.4-0.9-2c-0.4-0.5-1-0.9-1.6-1.2
	c-0.7-0.3-1.5-0.5-2.3-0.4c-0.9,0-1.8,0.1-2.6,0.5c-0.7,0.3-1.3,0.7-1.8,1.2c-0.5,0.5-0.8,1.1-1.1,1.7c-0.4,1.1-0.7,2.2-0.6,3.4
	c0,1.3,0.2,2.6,0.8,3.8c0.5,1,1.3,1.8,2.3,2.3c1,0.5,2.1,0.7,3.2,0.7c1,0,1.9-0.2,2.8-0.6c0.8-0.3,1.5-0.7,2.1-1.2V151L384.6,151
	L384.6,151z"/>
<path class="st5" d="M376.1,175.3l6.5-16.9h2.4l6.9,16.9h-2.5l-2-5.1h-7.1l-1.8,5.1H376.1z M381,168.4h5.7l-1.8-4.7
	c-0.5-1.4-0.9-2.6-1.2-3.5c-0.2,1.1-0.5,2.2-0.9,3.2L381,168.4L381,168.4z"/>
<path class="st5" d="M389.4,187.1l2.2,0.6c-0.4,1.6-1.3,3.1-2.6,4.2c-1.3,1-2.9,1.5-4.5,1.4c-1.6,0.1-3.1-0.3-4.4-1.1
	c-1.2-0.8-2.1-1.9-2.6-3.2c-0.6-1.4-0.9-3-0.9-4.6c0-1.6,0.3-3.2,1-4.6c0.6-1.3,1.6-2.3,2.9-3c1.3-0.7,2.7-1,4.1-1
	c1.5-0.1,3,0.4,4.3,1.3c1.2,0.9,2,2.2,2.4,3.6l-2.2,0.5c-0.3-1.1-0.9-2-1.7-2.7c-0.8-0.6-1.8-0.9-2.8-0.9c-1.2-0.1-2.3,0.3-3.3,0.9
	c-0.9,0.6-1.5,1.5-1.8,2.5c-0.4,1.1-0.5,2.1-0.5,3.2c0,1.3,0.2,2.6,0.6,3.8c0.4,1,1,1.9,2,2.4c0.9,0.5,1.9,0.8,2.9,0.8
	c1.2,0,2.3-0.4,3.2-1.1C388.6,189.4,389.2,188.3,389.4,187.1L389.4,187.1z"/>
<path class="st4" d="M406.1,189.3h2.2v9.8c0,1.4-0.1,2.7-0.6,4.1c-0.4,1-1.1,1.9-2.1,2.4c-1.2,0.7-2.6,1-4,0.9
	c-1.3,0.1-2.7-0.2-3.9-0.8c-1-0.5-1.7-1.4-2.2-2.4c-0.5-1.4-0.7-2.8-0.6-4.2v-9.8h2.2v9.8c0,1.1,0.1,2.2,0.4,3.2
	c0.3,0.7,0.8,1.3,1.4,1.6c0.8,0.4,1.6,0.6,2.4,0.6c1.3,0.1,2.5-0.3,3.5-1.1c0.7-0.8,1-2.2,1-4.3V189.3L406.1,189.3z"/>
<path class="st6" d="M414.9,207h2.2v9.8c0,1.4-0.1,2.8-0.6,4.1c-0.4,1-1.1,1.9-2.1,2.4c-1.2,0.7-2.6,1-4,0.9
	c-1.3,0.1-2.7-0.2-3.9-0.8c-1-0.5-1.7-1.4-2.2-2.4c-0.5-1.4-0.7-2.8-0.6-4.2V207h2.2v9.8c0,1.1,0.1,2.2,0.4,3.2
	c0.3,0.7,0.8,1.2,1.4,1.6c0.8,0.4,1.6,0.6,2.4,0.6c1.3,0.1,2.5-0.3,3.5-1.1c0.7-0.8,1-2.2,1-4.3L414.9,207L414.9,207z"/>
<path class="st6" d="M301.1,228.3l6.5-16.9h2.4l6.9,16.9h-2.5l-2-5.1h-7.1l-1.8,5.1L301.1,228.3L301.1,228.3z M306,221.3h5.7
	l-1.8-4.7c-0.5-1.4-0.9-2.6-1.2-3.5c-0.2,1.1-0.5,2.2-0.9,3.2L306,221.3L306,221.3z"/>
<path class="st6" d="M318.8,204.7l2.2,0.6c-0.4,1.6-1.2,3.1-2.5,4.2c-1.3,1-2.9,1.5-4.5,1.4c-1.6,0.1-3.1-0.3-4.5-1.1
	c-1.2-0.8-2.1-1.9-2.6-3.2c-0.6-1.4-0.9-3-0.9-4.6c0-1.6,0.3-3.2,1-4.6c0.6-1.3,1.6-2.3,2.9-3c1.3-0.7,2.7-1,4.1-1
	c1.5-0.1,3,0.4,4.3,1.3c1.2,0.9,2,2.2,2.4,3.6l-2.2,0.5c-0.3-1.1-0.9-2-1.7-2.7c-0.8-0.6-1.8-0.9-2.8-0.8c-1.2-0.1-2.3,0.3-3.3,0.9
	c-0.9,0.6-1.5,1.5-1.8,2.5c-0.7,2.3-0.7,4.8,0.1,7c0.4,1,1,1.9,2,2.4c0.9,0.5,1.9,0.8,2.9,0.8c1.1,0,2.3-0.4,3.2-1.1
	C318,207,318.6,205.9,318.8,204.7L318.8,204.7z"/>
<path class="st4" d="M331.6,190.8v-2h7.2v6.2c-1,0.8-2.2,1.5-3.4,2c-1.2,0.4-2.4,0.7-3.6,0.7c-1.6,0-3.1-0.3-4.5-1.1
	c-1.3-0.7-2.4-1.8-3.1-3.1c-0.7-1.4-1.1-3-1-4.6c0-1.6,0.3-3.2,1-4.6c0.6-1.4,1.7-2.5,3-3.2c1.4-0.7,2.9-1.1,4.5-1
	c1.1,0,2.3,0.2,3.3,0.6c0.9,0.3,1.7,0.9,2.3,1.7c0.6,0.8,1,1.7,1.3,2.7l-2,0.6c-0.2-0.7-0.5-1.4-0.9-2c-0.4-0.5-1-0.9-1.6-1.2
	c-0.7-0.3-1.5-0.4-2.3-0.4c-0.9,0-1.8,0.1-2.6,0.5c-0.7,0.3-1.3,0.7-1.8,1.2c-0.5,0.5-0.8,1.1-1.1,1.7c-0.4,1.1-0.7,2.2-0.6,3.4
	c0,1.3,0.2,2.6,0.8,3.8c0.5,1,1.3,1.8,2.3,2.3c1,0.5,2.1,0.7,3.2,0.7c1,0,1.9-0.2,2.8-0.6c0.8-0.3,1.5-0.7,2.1-1.2v-3.1L331.6,190.8
	L331.6,190.8z"/>
<line class="st3" x1="322.8" y1="179.7" x2="314.5" y2="171.3"/>
<path d="M284.5,172.2h-2v-12.7c-0.6,0.5-1.2,1-1.9,1.4c-0.7,0.4-1.4,0.8-2.1,1V160c1.1-0.5,2.1-1.1,2.9-1.9c0.7-0.6,1.4-1.3,1.8-2.2
	h1.3L284.5,172.2L284.5,172.2z M297.2,172.2h-2v-12.7c-0.6,0.5-1.2,1-1.9,1.4c-0.7,0.4-1.4,0.8-2.1,1V160c1.1-0.5,2.1-1.1,2.9-1.9
	c0.7-0.6,1.4-1.3,1.8-2.2h1.3L297.2,172.2L297.2,172.2z M302.2,164.2c0-1.6,0.1-3.1,0.6-4.6c0.3-1.1,0.9-2,1.8-2.7
	c0.8-0.7,1.9-1,3-1c0.8,0,1.6,0.2,2.3,0.5c0.7,0.4,1.2,0.9,1.6,1.5c0.5,0.8,0.8,1.6,1,2.4c0.3,1.3,0.4,2.6,0.4,3.9
	c0,1.6-0.1,3.1-0.6,4.6c-0.3,1.1-0.9,2-1.8,2.7c-2.1,1.5-5,1.2-6.7-0.7C302.7,169.5,302.2,167.3,302.2,164.2L302.2,164.2
	L302.2,164.2z M304.3,164.2c0,2.7,0.3,4.5,0.9,5.3c0.8,1.3,2.5,1.7,3.8,0.9c0.4-0.2,0.7-0.5,0.9-0.9c0.6-0.9,0.9-2.7,0.9-5.3
	s-0.3-4.5-0.9-5.4c-0.5-0.8-1.4-1.3-2.3-1.3c-0.9,0-1.7,0.4-2.2,1.2C304.6,159.7,304.2,161.5,304.3,164.2L304.3,164.2L304.3,164.2z"
	/>
<path class="st5" d="M349.3,186.3v-2h7.2v6.3c-1,0.8-2.2,1.5-3.4,2c-1.1,0.4-2.4,0.7-3.6,0.7c-1.6,0-3.1-0.3-4.5-1.1
	c-1.3-0.7-2.4-1.8-3.1-3.1c-0.7-1.4-1.1-3-1-4.6c0-1.6,0.3-3.2,1-4.6c0.6-1.4,1.7-2.5,3-3.2c1.4-0.7,2.9-1.1,4.5-1
	c1.1,0,2.3,0.2,3.3,0.6c0.9,0.3,1.7,0.9,2.3,1.7c0.6,0.8,1,1.7,1.3,2.7l-2,0.6c-0.2-0.7-0.5-1.4-0.9-2c-0.4-0.5-1-0.9-1.6-1.2
	c-0.7-0.3-1.5-0.4-2.3-0.4c-0.9,0-1.8,0.1-2.7,0.5c-0.7,0.3-1.3,0.7-1.8,1.2c-0.5,0.5-0.8,1.1-1.1,1.7c-0.4,1.1-0.7,2.2-0.6,3.4
	c0,1.3,0.2,2.6,0.8,3.8c0.5,1,1.3,1.8,2.3,2.3c1,0.5,2.1,0.7,3.2,0.7c1.8,0,3.5-0.7,4.9-1.8v-3.1L349.3,186.3L349.3,186.3z"/>
<path class="st5" d="M353.1,158.4h2.3v9.8c0,1.4-0.1,2.7-0.6,4.1c-0.4,1-1.1,1.9-2.1,2.4c-1.2,0.7-2.6,1-4,0.9
	c-1.3,0.1-2.7-0.2-3.9-0.8c-1-0.5-1.7-1.4-2.2-2.4c-0.5-1.4-0.7-2.8-0.6-4.2v-9.7h2.2v9.8c0,1.1,0.1,2.2,0.4,3.2
	c0.3,0.7,0.8,1.2,1.4,1.6c0.8,0.4,1.6,0.6,2.4,0.6c1.3,0.1,2.5-0.3,3.5-1.1c0.7-0.8,1-2.2,1-4.3L353.1,158.4L353.1,158.4z"/>
<path class="st5" d="M354.1,151.7l2.2,0.6c-0.4,1.6-1.2,3.1-2.5,4.2c-1.3,1-2.9,1.5-4.5,1.4c-1.6,0.1-3.1-0.3-4.5-1.1
	c-1.2-0.8-2.1-1.9-2.6-3.2c-0.6-1.4-0.9-3-0.9-4.6c0-1.6,0.3-3.2,1-4.6c0.6-1.3,1.6-2.3,2.9-3c1.3-0.7,2.7-1,4.1-1
	c1.5-0.1,3,0.4,4.3,1.3c1.2,0.9,2,2.2,2.4,3.6l-2.2,0.5c-0.3-1.1-0.9-2-1.7-2.7c-0.8-0.6-1.8-0.9-2.8-0.8c-1.2-0.1-2.3,0.3-3.3,0.9
	c-0.9,0.6-1.5,1.5-1.8,2.5c-0.8,2.3-0.7,4.8,0.1,7c0.4,1,1,1.9,2,2.4c0.9,0.5,1.9,0.8,2.9,0.8c1.2,0,2.3-0.4,3.2-1.1
	C353.3,154.1,353.9,152.9,354.1,151.7L354.1,151.7z"/>
<line class="st3" x1="377" y1="148.3" x2="355.8" y2="148.3"/>
<line class="st3" x1="377" y1="165.9" x2="355.8" y2="165.9"/>
<line class="st3" x1="377" y1="183.6" x2="355.8" y2="183.6"/>
<path class="st6" d="M407.1,240l2.2,0.6c-0.4,1.6-1.2,3.1-2.5,4.2c-1.3,1-2.9,1.5-4.5,1.4c-1.6,0.1-3.1-0.3-4.5-1.1
	c-1.2-0.8-2.1-1.9-2.6-3.2c-0.6-1.4-0.9-3-0.9-4.6c0-1.6,0.3-3.2,1-4.6c0.6-1.3,1.6-2.3,2.9-3c1.3-0.7,2.7-1,4.1-1
	c1.5-0.1,3,0.4,4.3,1.3c1.2,0.9,2,2.2,2.4,3.6l-2.2,0.5c-0.3-1.1-0.9-2-1.7-2.7c-0.8-0.6-1.8-0.9-2.8-0.9c-1.2-0.1-2.3,0.3-3.3,0.9
	c-0.9,0.6-1.5,1.5-1.8,2.5c-0.4,1.1-0.5,2.1-0.5,3.2c0,1.3,0.2,2.6,0.6,3.8c0.4,1,1,1.9,2,2.4c0.9,0.5,1.9,0.8,2.9,0.8
	c1.2,0,2.3-0.4,3.2-1.1C406.2,242.3,406.9,241.2,407.1,240L407.1,240z"/>
<path class="st7" d="M392.9,246.7h2.2v9.8c0.1,1.4-0.1,2.8-0.6,4.1c-0.4,1-1.1,1.9-2.1,2.4c-1.2,0.7-2.6,1-4,0.9
	c-1.3,0-2.7-0.2-3.9-0.8c-1-0.5-1.8-1.3-2.2-2.4c-0.5-1.4-0.7-2.8-0.6-4.2v-9.8h2.2v9.8c0,1.1,0.1,2.2,0.4,3.2
	c0.3,0.7,0.8,1.3,1.4,1.6c0.8,0.4,1.6,0.6,2.4,0.6c1.3,0.1,2.6-0.3,3.5-1.1c0.7-0.8,1-2.2,1-4.3L392.9,246.7L392.9,246.7z"/>
<path class="st7" d="M389,274.6v-2h7.2v6.3c-1,0.8-2.2,1.5-3.4,2c-1.2,0.4-2.4,0.7-3.6,0.7c-1.6,0-3.1-0.3-4.5-1.1
	c-1.3-0.7-2.4-1.8-3.1-3.1c-0.7-1.4-1.1-3-1-4.5c0-1.6,0.3-3.2,1-4.6c0.6-1.4,1.7-2.5,3-3.1c1.4-0.7,2.9-1.1,4.5-1
	c1.1,0,2.3,0.2,3.3,0.6c0.9,0.3,1.7,0.9,2.3,1.7c0.6,0.8,1,1.7,1.3,2.7l-2,0.6c-0.2-0.7-0.5-1.4-0.9-2c-0.4-0.5-1-0.9-1.6-1.2
	c-0.7-0.3-1.5-0.5-2.3-0.5c-0.9,0-1.8,0.1-2.6,0.5c-0.7,0.3-1.3,0.7-1.8,1.2c-0.5,0.5-0.8,1.1-1.1,1.7c-0.4,1.1-0.7,2.2-0.6,3.4
	c0,1.3,0.2,2.6,0.8,3.8c0.5,1,1.3,1.8,2.3,2.3c1,0.5,2.1,0.7,3.2,0.7c1,0,1.9-0.2,2.8-0.6c0.8-0.3,1.5-0.7,2.1-1.2v-3.1L389,274.6
	L389,274.6z"/>
<line class="st3" x1="400.2" y1="271.9" x2="412" y2="271.9"/>
<path d="M423.9,279.2v2h-11.2c0-0.5,0.1-1,0.2-1.4c0.3-0.8,0.8-1.6,1.4-2.2c0.8-0.9,1.8-1.8,2.7-2.6c1.4-1,2.6-2.2,3.7-3.6
	c0.6-0.7,0.9-1.6,1-2.5c0-0.8-0.3-1.6-0.9-2.1c-0.6-0.6-1.5-0.9-2.3-0.9c-0.9,0-1.8,0.3-2.4,0.9c-0.6,0.7-1,1.6-0.9,2.5l-2.1-0.2
	c0-1.4,0.6-2.7,1.6-3.6c1.1-0.9,2.5-1.3,3.8-1.3c1.4-0.1,2.8,0.4,3.9,1.4c0.9,0.9,1.5,2.1,1.4,3.3c0,0.7-0.1,1.4-0.4,2
	c-0.4,0.8-0.8,1.5-1.4,2.1c-1,1.1-2.1,2.1-3.2,3c-1.2,1.1-2,1.8-2.4,2.1c-0.4,0.3-0.6,0.7-0.9,1.1L423.9,279.2L423.9,279.2z
	 M426.1,272.9c0-1.6,0.2-3.3,0.6-4.8c0.3-1.1,1-2.1,1.8-2.8c0.9-0.7,2-1,3.1-1c0.8,0,1.6,0.2,2.4,0.5c0.7,0.4,1.3,0.9,1.7,1.6
	c0.5,0.8,0.8,1.6,1,2.5c0.3,1.3,0.4,2.7,0.4,4c0,1.6-0.2,3.2-0.6,4.8c-0.3,1.1-1,2.1-1.8,2.8c-0.9,0.7-2,1-3.1,1
	c-1.5,0.1-2.9-0.6-3.8-1.8C426.6,278.4,426.1,276.1,426.1,272.9L426.1,272.9L426.1,272.9z M428.2,272.9c0,2.8,0.3,4.6,1,5.5
	c0.8,1.3,2.5,1.8,3.8,1c0.4-0.2,0.8-0.6,1-1c0.7-0.9,1-2.8,1-5.5s-0.3-4.6-1-5.5c-0.5-0.8-1.4-1.4-2.4-1.4c-0.9,0-1.8,0.4-2.3,1.2
	C428.6,268.2,428.2,270.1,428.2,272.9L428.2,272.9L428.2,272.9z"/>
<path class="st7" d="M393.8,293l2.2,0.6c-0.4,1.6-1.2,3.1-2.5,4.2c-1.3,1-2.9,1.5-4.5,1.5c-1.6,0.1-3.1-0.3-4.4-1.1
	c-1.2-0.8-2.1-1.9-2.6-3.2c-0.6-1.4-0.9-3-0.9-4.5c0-1.6,0.3-3.1,1-4.5c0.6-1.3,1.6-2.3,2.9-3c1.3-0.7,2.7-1,4.1-1
	c1.5,0,3,0.4,4.3,1.3c1.2,0.9,2,2.2,2.4,3.6l-2.2,0.5c-0.3-1.1-0.9-2-1.7-2.7c-0.8-0.6-1.8-0.9-2.8-0.9c-1.2,0-2.3,0.3-3.3,0.9
	c-0.9,0.6-1.5,1.5-1.8,2.5c-0.4,1-0.5,2.1-0.5,3.2c0,1.3,0.2,2.6,0.6,3.8c0.4,1,1,1.9,2,2.4c0.9,0.5,1.9,0.8,2.9,0.8
	c1.2,0,2.3-0.4,3.2-1.1C393,295.3,393.6,294.2,393.8,293L393.8,293z"/>
<path class="st7" d="M393.8,310.6l2.2,0.6c-0.4,1.6-1.2,3.1-2.5,4.2c-1.3,1-2.9,1.5-4.5,1.5c-1.6,0.1-3.1-0.3-4.4-1.1
	c-1.2-0.8-2.1-1.9-2.6-3.2c-0.6-1.4-0.9-3-0.9-4.5c0-1.6,0.3-3.2,1-4.6c0.6-1.3,1.6-2.3,2.9-3c1.3-0.7,2.7-1,4.1-1
	c1.5,0,3,0.4,4.3,1.3c1.2,0.9,2,2.2,2.4,3.6l-2.2,0.5c-0.3-1.1-0.9-2-1.7-2.7c-0.8-0.6-1.8-0.9-2.8-0.8c-1.2,0-2.3,0.3-3.3,0.9
	c-0.9,0.6-1.5,1.5-1.8,2.5c-0.4,1-0.5,2.1-0.5,3.2c0,1.3,0.2,2.6,0.6,3.8c0.4,1,1,1.9,2,2.4c0.9,0.5,1.9,0.8,2.9,0.8
	c1.2,0,2.3-0.4,3.2-1.1C393,312.9,393.6,311.8,393.8,310.6L393.8,310.6z"/>
<path class="st7" d="M358.5,330.2l2.2,0.6c-0.4,1.6-1.2,3.1-2.5,4.2c-1.3,1-2.9,1.5-4.5,1.5c-1.6,0.1-3.1-0.3-4.5-1.1
	c-1.2-0.8-2.1-1.9-2.6-3.2c-0.6-1.4-0.9-3-0.9-4.5c0-1.6,0.3-3.2,1-4.6c0.6-1.3,1.6-2.3,2.9-3c1.3-0.7,2.7-1,4.1-1
	c1.5,0,3,0.4,4.3,1.3c1.2,0.9,2,2.2,2.4,3.6l-2.2,0.5c-0.3-1.1-0.9-2-1.7-2.7c-0.8-0.6-1.8-0.9-2.8-0.9c-1.2,0-2.3,0.3-3.3,0.9
	c-0.9,0.6-1.5,1.5-1.8,2.5c-0.4,1-0.5,2.1-0.5,3.3c0,1.3,0.2,2.6,0.6,3.8c0.4,1,1,1.9,2,2.4c0.9,0.5,1.9,0.8,2.9,0.8
	c1.1,0,2.3-0.4,3.2-1.1C357.7,332.5,358.3,331.4,358.5,330.2L358.5,330.2z"/>
<path class="st7" d="M353.7,309.9v-2h7.1v6.3c-1,0.8-2.2,1.5-3.4,2c-1.1,0.4-2.4,0.7-3.6,0.7c-1.6,0-3.1-0.3-4.5-1.1
	c-1.3-0.7-2.4-1.8-3-3.1c-0.7-1.4-1.1-3-1-4.5c0-1.6,0.3-3.2,1-4.6c0.6-1.4,1.7-2.5,3-3.2c1.4-0.7,2.9-1.1,4.5-1
	c1.1,0,2.3,0.2,3.3,0.6c0.9,0.3,1.7,0.9,2.3,1.7c0.6,0.8,1,1.7,1.3,2.7l-2,0.6c-0.2-0.7-0.5-1.4-0.9-2c-0.4-0.5-1-0.9-1.6-1.2
	c-0.7-0.3-1.5-0.5-2.3-0.5c-0.9,0-1.8,0.1-2.7,0.5c-0.7,0.3-1.3,0.7-1.8,1.2c-0.5,0.5-0.8,1.1-1.1,1.7c-0.4,1.1-0.7,2.2-0.7,3.4
	c0,1.3,0.2,2.6,0.8,3.8c0.5,1,1.3,1.8,2.3,2.3c1,0.5,2.1,0.8,3.2,0.8c1.8,0,3.5-0.7,4.9-1.8v-3.1L353.7,309.9L353.7,309.9z"/>
<path class="st7" d="M353.7,292.3v-2h7.1v6.3c-1,0.8-2.2,1.5-3.4,2c-1.1,0.4-2.4,0.7-3.6,0.7c-1.6,0-3.1-0.4-4.5-1.1
	c-1.3-0.7-2.4-1.8-3-3.1c-0.7-1.4-1.1-2.9-1-4.5c0-1.6,0.3-3.2,1-4.6c0.6-1.4,1.7-2.5,3-3.2c1.4-0.7,2.9-1.1,4.5-1
	c1.1,0,2.3,0.2,3.3,0.6c0.9,0.3,1.7,0.9,2.3,1.7c0.6,0.8,1,1.7,1.3,2.7l-2,0.6c-0.2-0.7-0.5-1.4-0.9-2c-0.4-0.5-1-0.9-1.6-1.2
	c-0.7-0.3-1.5-0.5-2.3-0.5c-0.9,0-1.8,0.1-2.7,0.5c-0.7,0.3-1.3,0.7-1.8,1.2c-0.5,0.5-0.8,1.1-1.1,1.7c-0.4,1.1-0.7,2.2-0.7,3.4
	c0,1.3,0.2,2.6,0.8,3.8c0.5,1,1.3,1.8,2.3,2.3c1,0.5,2.1,0.7,3.2,0.7c1.8,0,3.5-0.7,4.9-1.8v-3.1L353.7,292.3L353.7,292.3z"/>
<path class="st7" d="M358.5,275.3l2.2,0.6c-0.4,1.6-1.2,3.1-2.5,4.2c-1.3,1-2.9,1.5-4.5,1.5c-1.6,0.1-3.1-0.3-4.5-1.1
	c-1.2-0.8-2.1-1.9-2.6-3.2c-0.6-1.4-0.9-3-0.9-4.5c0-1.6,0.3-3.2,1-4.6c0.6-1.3,1.6-2.3,2.9-3c1.3-0.7,2.7-1,4.1-1
	c1.5,0,3,0.4,4.3,1.3c1.2,0.9,2,2.2,2.4,3.6l-2.2,0.5c-0.3-1-0.9-2-1.7-2.7c-0.8-0.6-1.8-0.9-2.8-0.8c-1.2,0-2.3,0.3-3.3,0.9
	c-0.9,0.6-1.5,1.5-1.8,2.5c-0.4,1-0.5,2.1-0.5,3.2c0,1.3,0.2,2.6,0.6,3.8c0.4,1,1,1.9,2,2.4c0.9,0.5,1.9,0.8,2.9,0.9
	c1.2,0,2.3-0.4,3.2-1.1C357.7,277.7,358.3,276.6,358.5,275.3L358.5,275.3z"/>
<path class="st7" d="M345.3,263.6l6.5-16.9h2.4l6.9,16.9h-2.6l-2-5.1h-7.1l-1.8,5.1H345.3z M350.1,256.6h5.7l-1.8-4.7
	c-0.5-1.4-0.9-2.6-1.2-3.5c-0.2,1.1-0.5,2.2-0.9,3.2L350.1,256.6z"/>
<path class="st6" d="M340.9,253.3l2.2,0.6c-0.4,1.6-1.2,3.1-2.5,4.2c-1.3,1-2.9,1.5-4.5,1.5c-1.6,0.1-3.1-0.3-4.4-1.1
	c-1.2-0.8-2.1-1.9-2.6-3.2c-0.6-1.4-0.9-3-0.9-4.6c0-1.6,0.3-3.2,1-4.6c0.6-1.3,1.6-2.3,2.9-3c1.3-0.7,2.7-1,4.1-1
	c1.5-0.1,3,0.4,4.3,1.3c1.2,0.9,2,2.2,2.4,3.6l-2.2,0.5c-0.3-1.1-0.9-2-1.7-2.7c-0.8-0.6-1.8-0.9-2.8-0.9c-1.2-0.1-2.3,0.3-3.3,0.9
	c-0.9,0.6-1.5,1.5-1.8,2.5c-0.4,1.1-0.5,2.1-0.5,3.3c0,1.3,0.2,2.6,0.6,3.8c0.4,1,1,1.8,2,2.4c0.9,0.5,1.9,0.8,2.9,0.8
	c1.2,0,2.3-0.4,3.2-1.1C340,255.6,340.6,254.5,340.9,253.3L340.9,253.3z"/>
<path class="st6" d="M323.2,244.4l2.2,0.6c-0.4,1.6-1.2,3.1-2.5,4.2c-1.3,1-2.9,1.5-4.5,1.4c-1.6,0.1-3.1-0.3-4.5-1.1
	c-1.2-0.8-2.1-1.9-2.6-3.2c-0.6-1.4-0.9-3-0.9-4.6c0-1.6,0.3-3.2,1-4.6c0.6-1.3,1.6-2.3,2.9-3c1.3-0.7,2.7-1,4.1-1
	c1.5-0.1,3,0.4,4.3,1.3c1.2,0.9,2,2.2,2.4,3.6l-2.2,0.5c-0.3-1.1-0.9-2-1.7-2.7c-0.8-0.6-1.8-0.9-2.8-0.9c-1.2-0.1-2.3,0.3-3.3,0.9
	c-0.9,0.6-1.5,1.5-1.8,2.5c-0.4,1.1-0.5,2.1-0.5,3.2c0,1.3,0.2,2.6,0.6,3.8c0.4,1,1,1.9,2,2.4c0.9,0.5,1.9,0.8,2.9,0.8
	c1.2,0,2.3-0.4,3.2-1.1C322.4,246.8,323,245.6,323.2,244.4L323.2,244.4z"/>
<line class="st3" x1="381.4" y1="254.2" x2="360.2" y2="254.2"/>
<line class="st3" x1="381.4" y1="271.9" x2="360.2" y2="271.9"/>
<line class="st3" x1="381.4" y1="289.5" x2="360.2" y2="289.5"/>
<line class="st3" x1="381.4" y1="307.1" x2="360.2" y2="307.1"/>
<g>
	<text transform="matrix(1 0 0 1 13.27 28.51)" class="st8 st9">Streptmycin RN</text>
	<text transform="matrix(1 0 0 1 153.3 28.51)" class="st8 st9 st10">A</text>
	<text transform="matrix(1 0 0 1 165.54 28.51)" class="st8 st9"> aptamer</text>
</g>
<rect x="322.9" y="205.3" class="st11" width="72.7" height="23.5"/>
<text transform="matrix(1 0 0 1 322.9 220.49)" class="st8 st12">Streptmycin</text>
<g>
	<text transform="matrix(1 0 0 1 378.77 18.13)" class="st8 st13">5</text>
	<text transform="matrix(1 0 0 1 388.9 18.13)" class="st8 st13 st14">’</text>
</g>
<g>
	<text transform="matrix(1 0 0 1 343.28 39.06)" class="st8 st13">3</text>
	<text transform="matrix(1 0 0 1 353.4 39.06)" class="st8 st13 st14">’</text>
</g>
</svg>
