<?xml version="1.0" encoding="utf-8"?>
<!-- Generator: Adobe Illustrator 25.2.0, SVG Export Plug-In . SVG Version: 6.00 Build 0)  -->
<svg version="1.1" id="图层_1" xmlns="http://www.w3.org/2000/svg" xmlns:xlink="http://www.w3.org/1999/xlink" x="0px" y="0px"
	 viewBox="0 0 800 400" style="enable-background:new 0 0 800 400;" xml:space="preserve">
<style type="text/css">
	.st0{fill:#CC00FF;}
	.st1{font-family:'ArialMT';}
	.st2{font-size:22.4442px;}
	.st3{fill:none;stroke:#000000;stroke-width:0.38;stroke-miterlimit:3.05;}
	.st4{font-size:17.9554px;}
	.st5{font-size:17.2072px;}
	.st6{font-size:14.9628px;}
	.st7{font-size:25px;}
	.st8{fill:#FF9933;}
	.st9{fill:#80DB9E;}
	.st10{fill:#3399FF;}
</style>
<g id="ID000010">
	<g>
		<text transform="matrix(1 0 0 1 373.5659 184.9089)" class="st0 st1 st2">C</text>
	</g>
</g>
<g id="ID000020">
	<g>
		<text transform="matrix(1 0 0 1 447.8633 41.0861)" class="st0 st1 st2">A</text>
	</g>
</g>
<g id="ID000021">
	<line class="st3" x1="426.8" y1="177.5" x2="388.9" y2="177.3"/>
</g>
<text transform="matrix(1 0 0 1 317.4629 114.3293)" class="st1 st4">5</text>
<text transform="matrix(1 0 0 1 327.4502 114.3293)" class="st1 st4">’</text>
<text transform="matrix(1 0 0 1 329.1934 56.4606)" class="st1 st5">3</text>
<text transform="matrix(1 0 0 1 338.7622 56.4606)" class="st1 st5">’</text>
<g id="ID000011-2">
	<g>
		<text transform="matrix(1 0 0 1 428.3223 184.9089)" class="st0 st1 st2">G</text>
	</g>
</g>
<g id="ID000019-2">
	<g>
		<text transform="matrix(1 0 0 1 465.6768 52.3083)" class="st0 st1 st2">A</text>
	</g>
</g>
<g id="ID000018">
	<text transform="matrix(1 0 0 1 313.7936 304.6117)" class="st1 st6">10</text>
</g>
<g id="ID000020-3">
	<g>
		<text transform="matrix(1 0 0 1 429.437 32.8415)" class="st0 st1 st2">G</text>
	</g>
</g>
<text transform="matrix(1 0 0 1 -3.051758e-05 30.5749)" class="st1 st7"> RNA-1 aptamer</text>
<g id="ID000020-3-2">
	<g>
		<text transform="matrix(1 0 0 1 387.459 32.8415)" class="st0 st1 st2">A</text>
	</g>
</g>
<g id="ID000010-2">
	<g>
		<text transform="matrix(1 0 0 1 407.292 30.5749)" class="st0 st1 st2">G</text>
	</g>
</g>
<g id="ID000020-2">
	<g>
		<text transform="matrix(1 0 0 1 445.4023 173.0808)" class="st0 st1 st2">U</text>
	</g>
</g>
<g id="ID000019-3">
	<text transform="matrix(1 0 0 1 448.1553 362.3825)" class="st8 st1 st2">C</text>
</g>
<g id="ID000003-2">
	<text transform="matrix(1 0 0 1 428.3223 251.822)" class="st9 st1 st2">G</text>
</g>
<g id="ID000005-5">
	<text transform="matrix(1 0 0 1 361.4683 368.9138)" class="st8 st1 st2">C</text>
</g>
<g id="ID000020-3-3">
	<text transform="matrix(1 0 0 1 459.7812 342.1452)" class="st8 st1 st2">G</text>
</g>
<g id="ID000002-5">
	<text transform="matrix(1 0 0 1 349.6777 350.8464)" class="st8 st1 st2">U</text>
</g>
<g id="ID000003-2-2">
	<text transform="matrix(1 0 0 1 440.1426 291.9157)" class="st8 st1 st2">U</text>
</g>
<g id="ID000005-5-2">
	<g>
		<text transform="matrix(1 0 0 1 484.4253 118.1447)" class="st0 st1 st2">A</text>
	</g>
</g>
<g id="ID000010-2-2">
	<text transform="matrix(1 0 0 1 345.4883 306.9001)" class="st8 st1 st2">G</text>
</g>
<g id="ID000020-3-4">
	<text transform="matrix(1 0 0 1 453.6016 306.9001)" class="st8 st1 st2">C</text>
</g>
<line class="st3" x1="469.8" y1="321.8" x2="467.5" y2="312.4"/>
<g id="ID000003-2-3">
	<g>
		<text transform="matrix(1 0 0 1 486.3555 97.0544)" class="st0 st1 st2">U</text>
	</g>
</g>
<g id="ID000005-5-3">
	<g>
		<text transform="matrix(1 0 0 1 477.2285 72.5231)" class="st0 st1 st2">U</text>
	</g>
</g>
<g id="ID000003-2-4">
	<g>
		<text transform="matrix(1 0 0 1 475.5674 141.8757)" class="st0 st1 st2">C</text>
	</g>
</g>
<g id="ID000010-3">
	<text transform="matrix(1 0 0 1 373.5659 208.7072)" class="st9 st1 st2">C</text>
</g>
<g id="ID000021-3">
	<line class="st3" x1="426.5" y1="201.3" x2="388.6" y2="201.1"/>
</g>
<g id="ID000011-2-2">
	<text transform="matrix(1 0 0 1 428.3223 210.4201)" class="st9 st1 st2">G</text>
</g>
<g id="ID000010-4">
	<text transform="matrix(1 0 0 1 374.7627 229.4455)" class="st9 st1 st2">A</text>
</g>
<g id="ID000021-4">
	<line class="st3" x1="426.3" y1="222.1" x2="388.3" y2="221.8"/>
</g>
<g id="ID000011-2-3">
	<text transform="matrix(1 0 0 1 428.3223 231.1589)" class="st9 st1 st2">U</text>
</g>
<g id="ID000010-5">
	<text transform="matrix(1 0 0 1 373.5659 249.9597)" class="st9 st1 st2">C</text>
</g>
<g id="ID000021-5">
	<line class="st3" x1="427.7" y1="241" x2="389.8" y2="240.8"/>
</g>
<text transform="matrix(1 0 0 1 481.5272 266.038)" class="st1 st6">30</text>
<g id="ID000020-3-5">
	<g>
		<text transform="matrix(1 0 0 1 462.2129 160.736)" class="st0 st1 st2">A</text>
	</g>
</g>
<g id="ID000003-2-5">
	<text transform="matrix(1 0 0 1 428.3521 271.2663)" class="st9 st1 st2">A</text>
</g>
<g id="ID000010-6">
	<text transform="matrix(1 0 0 1 373.5659 269.404)" class="st9 st1 st2">U</text>
</g>
<g id="ID000021-6">
	<line class="st3" x1="427.9" y1="261.5" x2="389.9" y2="261.3"/>
</g>
<g id="ID000020-3-6">
	<text transform="matrix(1 0 0 1 394.6484 389.5554)" class="st8 st1 st2">A</text>
</g>
<g id="ID000019-2-2">
	<text transform="matrix(1 0 0 1 376.1396 381.4079)" class="st8 st1 st2">A</text>
</g>
<g id="ID000020-3-7">
	<text transform="matrix(1 0 0 1 548.8926 282.197)" class="st10 st1 st2">G</text>
</g>
<g id="ID000020-3-8">
	<text transform="matrix(1 0 0 1 526.9199 279.5036)" class="st10 st1 st2">A</text>
</g>
<g id="ID000010-7">
	<text transform="matrix(1 0 0 1 504.1162 287.86)" class="st10 st1 st2">G</text>
</g>
<g id="ID000005-5-4">
	<text transform="matrix(1 0 0 1 433.1475 375.0934)" class="st8 st1 st2">A</text>
</g>
<g id="ID000003-2-6">
	<text transform="matrix(1 0 0 1 326.2607 135.5241)" class="st0 st1 st2">G</text>
</g>
<g id="ID000005-5-5">
	<text transform="matrix(1 0 0 1 346.6777 46.9665)" class="st0 st1 st2">U</text>
</g>
<g id="ID000003-2-7">
	<text transform="matrix(1 0 0 1 413.5762 385.2536)" class="st8 st1 st2">C</text>
</g>
<g id="ID000020-4">
	<text transform="matrix(1 0 0 1 339.6899 151.8635)" class="st0 st1 st2">G</text>
</g>
<g id="ID000019-2-3">
	<text transform="matrix(1 0 0 1 567.4912 294.3239)" class="st10 st1 st2">A</text>
</g>
<g id="ID000020-3-9">
	<text transform="matrix(1 0 0 1 554.0322 339.445)" class="st10 st1 st2">G</text>
</g>
<g id="ID000020-3-10">
	<text transform="matrix(1 0 0 1 517.2832 342.1452)" class="st10 st1 st2">A</text>
</g>
<g id="ID000010-8">
	<g>
		<text transform="matrix(1 0 0 1 356.1191 168.2028)" class="st0 st1 st2">G</text>
	</g>
</g>
<g id="ID000005-5-6">
	<text transform="matrix(1 0 0 1 536.4287 346.0427)" class="st10 st1 st2">A</text>
</g>
<g id="ID000003-2-8">
	<text transform="matrix(1 0 0 1 365.4258 36.238)" class="st0 st1 st2">C</text>
</g>
<g id="ID000005-5-7">
	<text transform="matrix(1 0 0 1 568.3438 320.6813)" class="st10 st1 st2">U</text>
</g>
<g id="ID000003-2-9">
	<text transform="matrix(1 0 0 1 343.4458 328.7165)" class="st8 st1 st2">C</text>
</g>
<g id="ID000005-5-8">
	<text transform="matrix(1 0 0 1 356.8823 286.1989)" class="st8 st1 st2">C</text>
</g>
<g id="ID000020-3-11">
	<text transform="matrix(1 0 0 1 479.001 339.445)" class="st9 st1 st2">G</text>
</g>
<g id="ID000020-3-12">
	<text transform="matrix(1 0 0 1 472.8145 304.1999)" class="st9 st1 st2">C</text>
</g>
<line class="st3" x1="489" y1="319.1" x2="486.8" y2="309.7"/>
<g id="ID000020-3-13">
	<g>
		<text transform="matrix(1 0 0 1 497.5098 336.7516)" class="st9 st1 st2">U</text>
	</g>
</g>
<g id="ID000020-3-14">
	<text transform="matrix(1 0 0 1 491.3232 301.4987)" class="st9 st1 st2">A</text>
</g>
<line class="st3" x1="507.6" y1="316.4" x2="505.3" y2="307"/>
<text transform="matrix(1 0 0 1 384.9026 53.8654)" class="st1 st6">50</text>
<g id="ID000021_1_">
	<line class="st3" x1="394.4" y1="42.7" x2="395" y2="33.1"/>
</g>
<g id="ID000021_2_">
	<line class="st3" x1="344.3" y1="299.9" x2="333.2" y2="299.7"/>
</g>
<g id="ID000021_3_">
	<line class="st3" x1="494" y1="282.3" x2="491.3" y2="269.4"/>
</g>
</svg>
