<?xml version="1.0" encoding="utf-8"?>
<!-- Generator: Adobe Illustrator 27.0.0, SVG Export Plug-In . SVG Version: 6.00 Build 0)  -->
<svg version="1.1" id="图层_1" xmlns="http://www.w3.org/2000/svg" xmlns:xlink="http://www.w3.org/1999/xlink" x="0px" y="0px"
	 viewBox="0 0 800 400" style="enable-background:new 0 0 800 400;" xml:space="preserve">
<style type="text/css">
	.st0{fill:#B83332;}
	.st1{font-family:'ArialMT';}
	.st2{font-size:15.1274px;}
	.st3{fill:#C2B617;}
	.st4{fill:#084595;}
	.st5{fill:#CF3E7D;}
	.st6{fill:#18988C;}
	.st7{opacity:0.75;enable-background:new    ;}
	.st8{font-size:8.1455px;}
	.st9{opacity:0.55;fill:none;stroke:#020202;stroke-miterlimit:10;enable-background:new    ;}
	.st10{opacity:0.75;}
	.st11{stroke:#000000;stroke-width:7.000000e-02;stroke-miterlimit:10;}
	.st12{font-size:11.6365px;}
	.st13{font-size:16px;}
</style>
<text transform="matrix(1 0 0 1 221.2666 362.4531)" class="st0 st1 st2">G</text>
<text transform="matrix(1 0 0 1 235.6963 360.8711)" class="st0 st1 st2">G</text>
<text transform="matrix(1 0 0 1 250.1943 358.415)" class="st0 st1 st2">A</text>
<text transform="matrix(1 0 0 1 256.6182 344.3691)" class="st0 st1 st2">A</text>
<text transform="matrix(1 0 0 1 269.6865 341.9961)" class="st0 st1 st2">C</text>
<text transform="matrix(1 0 0 1 282.126 343.7539)" class="st0 st1 st2">A</text>
<text transform="matrix(1 0 0 1 291.4111 354.5986)" class="st0 st1 st2">C</text>
<text transform="matrix(1 0 0 1 305.3867 354.6914)" class="st0 st1 st2">U</text>
<text transform="matrix(1 0 0 1 319.5596 352.3877)" class="st0 st1 st2">A</text>
<text transform="matrix(1 0 0 1 325.041 341.5078)" class="st0 st1 st2">U</text>
<text transform="matrix(1 0 0 1 338.1084 336.2715)" class="st0 st1 st2">C</text>
<text transform="matrix(1 0 0 1 350.7227 338.5859)" class="st0 st1 st2">C</text>
<text transform="matrix(1 0 0 1 360.2871 347.8379)" class="st0 st1 st2">G</text>
<text transform="matrix(1 0 0 1 375.334 347.7686)" class="st0 st1 st2">A</text>
<text transform="matrix(1 0 0 1 390.7051 346.9766)" class="st0 st1 st2">C</text>
<text transform="matrix(1 0 0 1 406.1816 346.1152)" class="st0 st1 st2">U</text>
<text transform="matrix(1 0 0 1 417.7373 339.96)" class="st0 st1 st2">G</text>
<text transform="matrix(1 0 0 1 427.3721 327.4971)" class="st0 st1 st2">G</text>
<text transform="matrix(1 0 0 1 437.2051 315.3486)" class="st0 st1 st2">C</text>
<text transform="matrix(1 0 0 1 446.2227 303.0254)" class="st0 st1 st2">A</text>
<text transform="matrix(1 0 0 1 455.1484 290.377)" class="st0 st1 st2">C</text>
<text transform="matrix(1 0 0 1 464.2939 277.4951)" class="st0 st1 st2">C</text>
<text transform="matrix(1 0 0 1 469.415 264.4043)" class="st0 st1 st2">U</text>
<text transform="matrix(1 0 0 1 465.9229 248.8467)" class="st0 st1 st2">G</text>
<text transform="matrix(1 0 0 1 460.792 234.5449)" class="st0 st1 st2">U</text>
<text transform="matrix(1 0 0 1 458.2441 219.1494)" class="st0 st1 st2">G</text>
<text transform="matrix(1 0 0 1 455.8818 203.9297)" class="st0 st1 st2">C</text>
<text transform="matrix(1 0 0 1 451.541 190.1045)" class="st0 st1 st2">U</text>
<text transform="matrix(1 0 0 1 440.1484 190.6172)" class="st3 st1 st2">C</text>
<text transform="matrix(1 0 0 1 426.5566 186.3584)" class="st3 st1 st2">U</text>
<text transform="matrix(1 0 0 1 416.8643 176.4902)" class="st3 st1 st2">A</text>
<text transform="matrix(1 0 0 1 411.8486 165.5166)" class="st4 st1 st2">U</text>
<text transform="matrix(1 0 0 1 397.4199 165.1797)" class="st4 st1 st2">A</text>
<text transform="matrix(1 0 0 1 381.9785 166.3086)" class="st4 st1 st2">G</text>
<text transform="matrix(1 0 0 1 367.1768 167.7402)" class="st4 st1 st2">C</text>
<text transform="matrix(1 0 0 1 352.2705 169.4033)" class="st4 st1 st2">A</text>
<text transform="matrix(1 0 0 1 338.4346 173.0693)" class="st4 st1 st2">G</text>
<text transform="matrix(1 0 0 1 329.1602 162.2129)" class="st4 st1 st2">A</text>
<text transform="matrix(1 0 0 1 336.375 149.7031)" class="st4 st1 st2">A</text>
<text transform="matrix(1 0 0 1 350.6992 149.4473)" class="st4 st1 st2">U</text>
<text transform="matrix(1 0 0 1 365.5586 148.2256)" class="st4 st1 st2">G</text>
<text transform="matrix(1 0 0 1 381.1748 146.8643)" class="st4 st1 st2">C</text>
<text transform="matrix(1 0 0 1 396.7676 145.9219)" class="st4 st1 st2">U</text>
<text transform="matrix(1 0 0 1 413.501 145.8047)" class="st4 st1 st2">A</text>
<text transform="matrix(1 0 0 1 420.8096 133.9014)" class="st3 st1 st2">A</text>
<text transform="matrix(1 0 0 1 429.9775 128.1406)" class="st5 st1 st2">C</text>
<text transform="matrix(1 0 0 1 431.0254 113.0137)" class="st5 st1 st2">A</text>
<text transform="matrix(1 0 0 1 431.457 97.1182)" class="st5 st1 st2">U</text>
<text transform="matrix(1 0 0 1 432.5264 81.9551)" class="st5 st1 st2">U</text>
<text transform="matrix(1 0 0 1 428.9658 67.5381)" class="st5 st1 st2">A</text>
<text transform="matrix(1 0 0 1 436.9727 55.9951)" class="st5 st1 st2">G</text>
<text transform="matrix(1 0 0 1 451.3193 57.2637)" class="st5 st1 st2">A</text>
<text transform="matrix(1 0 0 1 457.1611 70.0635)" class="st5 st1 st2">U</text>
<text transform="matrix(1 0 0 1 451.1445 82.0137)" class="st5 st1 st2">G</text>
<text transform="matrix(1 0 0 1 449.958 96.8857)" class="st5 st1 st2">A</text>
<text transform="matrix(1 0 0 1 448.876 112.0361)" class="st5 st1 st2">U</text>
<text transform="matrix(1 0 0 1 447.2119 126.8721)" class="st5 st1 st2">G</text>
<text transform="matrix(1 0 0 1 460.6748 132.2246)" class="st3 st1 st2">G</text>
<text transform="matrix(1 0 0 1 470.9043 139.8936)" class="st3 st1 st2">A</text>
<text transform="matrix(1 0 0 1 475.4893 152.5547)" class="st6 st1 st2">G</text>
<text transform="matrix(1 0 0 1 490.2207 151.8906)" class="st6 st1 st2">G</text>
<text transform="matrix(1 0 0 1 505.7324 149.6338)" class="st6 st1 st2">G</text>
<text transform="matrix(1 0 0 1 521.3828 147.2822)" class="st6 st1 st2">G</text>
<text transform="matrix(1 0 0 1 537.3486 145.6191)" class="st6 st1 st2">C</text>
<text transform="matrix(1 0 0 1 552.4639 144.4785)" class="st6 st1 st2">G</text>
<text transform="matrix(1 0 0 1 558.9912 130.7246)" class="st6 st1 st2">C</text>
<text transform="matrix(1 0 0 1 572.1416 128.0127)" class="st6 st1 st2">A</text>
<text transform="matrix(1 0 0 1 586.3955 127.4893)" class="st6 st1 st2">A</text>
<text transform="matrix(1 0 0 1 598.6611 134.2734)" class="st6 st1 st2">G</text>
<text transform="matrix(1 0 0 1 605.8877 146.5029)" class="st6 st1 st2">G</text>
<text transform="matrix(1 0 0 1 606.2598 160.6533)" class="st6 st1 st2">U</text>
<text transform="matrix(1 0 0 1 599.7783 173.2559)" class="st6 st1 st2">U</text>
<text transform="matrix(1 0 0 1 587.8965 180.749)" class="st6 st1 st2">A</text>
<text transform="matrix(1 0 0 1 573.6777 181.0166)" class="st6 st1 st2">A</text>
<text transform="matrix(1 0 0 1 561.2373 175.4434)" class="st6 st1 st2">C</text>
<text transform="matrix(1 0 0 1 553.3477 164.4111)" class="st6 st1 st2">C</text>
<text transform="matrix(1 0 0 1 538.1738 165.0166)" class="st6 st1 st2">G</text>
<text transform="matrix(1 0 0 1 523.373 166.5762)" class="st6 st1 st2">C</text>
<text transform="matrix(1 0 0 1 507.9658 168.6943)" class="st6 st1 st2">C</text>
<text transform="matrix(1 0 0 1 491.6406 170.8936)" class="st6 st1 st2">U</text>
<text transform="matrix(1 0 0 1 475.0117 172.1387)" class="st6 st1 st2">C</text>
<text transform="matrix(1 0 0 1 467.9707 183.4717)" class="st0 st1 st2">A</text>
<text transform="matrix(1 0 0 1 473.2783 199.9033)" class="st0 st1 st2">G</text>
<text transform="matrix(1 0 0 1 476.2451 215.7402)" class="st0 st1 st2">U</text>
<text transform="matrix(1 0 0 1 479.0264 231.0889)" class="st0 st1 st2">A</text>
<text transform="matrix(1 0 0 1 481.877 246.1465)" class="st0 st1 st2">C</text>
<text transform="matrix(1 0 0 1 485.2627 260.5176)" class="st0 st1 st2">A</text>
<text transform="matrix(1 0 0 1 495.6777 270.0713)" class="st0 st1 st2">U</text>
<text transform="matrix(1 0 0 1 490.9648 283.6738)" class="st0 st1 st2">C</text>
<text transform="matrix(1 0 0 1 479.4912 289.7246)" class="st0 st1 st2">G</text>
<text transform="matrix(1 0 0 1 470.6133 301.6992)" class="st0 st1 st2">G</text>
<text transform="matrix(1 0 0 1 461.7461 314.4521)" class="st0 st1 st2">U</text>
<text transform="matrix(1 0 0 1 452.3789 327.0889)" class="st0 st1 st2">G</text>
<text transform="matrix(1 0 0 1 443.0703 339.3311)" class="st0 st1 st2">C</text>
<text transform="matrix(1 0 0 1 434.0977 351.3057)" class="st0 st1 st2">C</text>
<text transform="matrix(1 0 0 1 430.7344 364.4551)" class="st0 st1 st2">U</text>
<text transform="matrix(1 0 0 1 418.458 370.959)" class="st0 st1 st2">U</text>
<text transform="matrix(1 0 0 1 406.1699 364.6641)" class="st0 st1 st2">G</text>
<text transform="matrix(1 0 0 1 392.3584 365.1875)" class="st0 st1 st2">G</text>
<text transform="matrix(1 0 0 1 376.7998 366.0723)" class="st0 st1 st2">U</text>
<text transform="matrix(1 0 0 1 361.4277 366.5381)" class="st0 st1 st2">C</text>
<text transform="matrix(1 0 0 1 349.5361 375.9512)" class="st0 st1 st2">A</text>
<text transform="matrix(1 0 0 1 335.1992 377.5576)" class="st0 st1 st2">U</text>
<text transform="matrix(1 0 0 1 322.5039 370.7373)" class="st0 st1 st2">U</text>
<text transform="matrix(1 0 0 1 307.8076 372.9258)" class="st0 st1 st2">A</text>
<text transform="matrix(1 0 0 1 291.458 373.3096)" class="st0 st1 st2">G</text>
<text transform="matrix(1 0 0 1 279.1934 382.1875)" class="st0 st1 st2">G</text>
<text transform="matrix(1 0 0 1 265.2529 383.1074)" class="st0 st1 st2">A</text>
<text transform="matrix(1 0 0 1 252.8252 378.0811)" class="st0 st1 st2">U</text>
<text transform="matrix(1 0 0 1 237.9297 380.4658)" class="st0 st1 st2">C</text>
<text transform="matrix(1 0 0 1 222.9189 382.3389)" class="st0 st1 st2">C</text>
<text transform="matrix(1 0 0 1 210.7236 387.0879)" class="st0 st1 st2">C</text>
<text transform="matrix(1 0 0 1 197.7031 380.7803)" class="st0 st1 st2">G</text>
<text transform="matrix(1 0 0 1 319.5361 329.5215)" class="st7 st1 st8">10</text>
<text transform="matrix(1 0 0 1 437.9141 298.1387)" class="st7 st1 st8">20</text>
<text transform="matrix(1 0 0 1 425.4404 192.9209)" class="st7 st1 st8">30</text>
<text transform="matrix(1 0 0 1 349.5361 135.4834)" class="st7 st1 st8">40</text>
<text transform="matrix(1 0 0 1 420.7861 62.8369)" class="st7 st1 st8">50</text>
<text transform="matrix(1 0 0 1 481.4229 141.5459)" class="st7 st1 st8">60</text>
<text transform="matrix(1 0 0 1 617.8721 144.4785)" class="st7 st1 st8">70</text>
<text transform="matrix(1 0 0 1 492.8379 178.2822)" class="st7 st1 st8">80</text>
<text transform="matrix(1 0 0 1 487.0898 295.6826)" class="st7 st1 st8">90</text>
<text transform="matrix(1 0 0 1 375.3105 373.4844)" class="st7 st1 st8">100</text>
<text transform="matrix(1 0 0 1 236.499 388.4375)" class="st1 st8">1</text>
<text transform="matrix(1 0 0 1 240.4209 388.4375)" class="st1 st8">10</text>
<line class="st9" x1="227.6" y1="362.6" x2="228.4" y2="371.3"/>
<line class="st9" x1="242.2" y1="361" x2="243" y2="369.7"/>
<line class="st9" x1="256.2" y1="358.6" x2="257" y2="367.2"/>
<line class="st9" x1="297.5" y1="354.8" x2="297.7" y2="362.3"/>
<line class="st9" x1="312" y1="354.9" x2="312.4" y2="362.1"/>
<line class="st9" x1="324.8" y1="352.4" x2="327.6" y2="359.9"/>
<line class="st9" x1="366.9" y1="348" x2="367.3" y2="355.5"/>
<line class="st9" x1="381" y1="347.7" x2="381.4" y2="355.2"/>
<line class="st9" x1="397.2" y1="347.2" x2="397.6" y2="354.2"/>
<line class="st9" x1="428.2" y1="338.8" x2="435.5" y2="342.9"/>
<line class="st9" x1="438.2" y1="326" x2="444.8" y2="330.3"/>
<line class="st9" x1="455.6" y1="300.6" x2="462.6" y2="304.8"/>
<line class="st9" x1="465.1" y1="288.3" x2="472.3" y2="292.5"/>
<line class="st9" x1="473.8" y1="276.6" x2="481.1" y2="280.8"/>
<line class="st9" x1="479.3" y1="258.6" x2="487.1" y2="254.7"/>
<line class="st9" x1="476.7" y1="244" x2="482.8" y2="242"/>
<line class="st9" x1="470.6" y1="228.8" x2="480.9" y2="225.5"/>
<line class="st9" x1="465.8" y1="198" x2="474.1" y2="196"/>
<line class="st9" x1="461.6" y1="183.9" x2="469.4" y2="178.2"/>
<line class="st9" x1="480.8" y1="161.1" x2="481" y2="152.7"/>
<line class="st9" x1="512.4" y1="157.7" x2="512.6" y2="149.8"/>
<line class="st9" x1="528.5" y1="155.6" x2="528.1" y2="147.5"/>
<line class="st9" x1="544" y1="154" x2="543.6" y2="145.6"/>
<line class="st9" x1="559" y1="153.4" x2="558.9" y2="144.7"/>
<line class="st9" x1="439.7" y1="122.4" x2="448" y2="121.9"/>
<line class="st9" x1="417.2" y1="154.7" x2="418.6" y2="145.9"/>
<line class="st9" x1="402.2" y1="154.3" x2="402.6" y2="146.1"/>
<line class="st9" x1="387.9" y1="155.3" x2="387.5" y2="147"/>
<line class="st9" x1="372.6" y1="156.7" x2="372.2" y2="148.4"/>
<line class="st9" x1="357.2" y1="158.3" x2="356.7" y2="149.7"/>
<line class="st9" x1="441.3" y1="91.1" x2="452.2" y2="90.6"/>
<line class="st9" x1="439.4" y1="106.8" x2="449.9" y2="106.5"/>
<line class="st9" x1="446.9" y1="313.7" x2="454.1" y2="318.2"/>
<g id="ID000021-2" class="st10">
	<polygon class="st11" points="411.8,348.7 411.8,348.7 411.7,348.7 411.6,348.8 411.5,348.8 411.4,348.8 411.3,348.8 411.2,348.9 
		411.1,348.9 411,349 410.9,349 410.9,349.1 410.8,349.2 410.7,349.2 410.7,349.3 410.6,349.4 410.6,349.4 410.5,349.5 410.5,349.6 
		410.4,349.7 410.4,349.8 410.4,349.9 410.4,350 410.3,350.1 410.3,350.2 410.3,350.3 410.3,350.4 410.4,350.5 410.4,350.5 
		410.4,350.7 410.4,350.7 410.5,350.8 410.5,350.9 410.5,351 410.6,351.1 410.6,351.2 410.7,351.3 410.8,351.3 410.8,351.4 
		410.9,351.4 411,351.5 411.1,351.6 411.2,351.6 411.2,351.6 411.3,351.7 411.4,351.7 411.5,351.7 411.6,351.7 411.7,351.8 
		411.8,351.8 411.9,351.8 412,351.8 412.1,351.7 412.2,351.7 412.3,351.7 412.4,351.7 412.5,351.6 412.6,351.6 412.7,351.6 
		412.7,351.5 412.8,351.4 412.9,351.4 413,351.3 413,351.3 413.1,351.2 413.1,351.1 413.2,351 413.2,350.9 413.3,350.8 413.3,350.7 
		413.3,350.7 413.4,350.5 413.4,350.5 413.4,350.4 413.4,350.3 413.4,350.2 413.4,350.1 413.4,350 413.3,349.9 413.3,349.8 
		413.3,349.7 413.2,349.6 413.2,349.5 413.2,349.4 413.1,349.4 413,349.3 413,349.2 412.9,349.2 412.8,349.1 412.8,349 412.7,349 
		412.6,348.9 412.5,348.9 412.4,348.8 412.3,348.8 412.2,348.8 412.1,348.8 412,348.7 411.9,348.7 	"/>
</g>
<g id="ID000021-2-2" class="st10">
	<polygon class="st11" points="473.3,211 473.2,211 473.1,211 473,211 472.9,211 472.8,211.1 472.7,211.1 472.6,211.1 472.5,211.2 
		472.5,211.2 472.4,211.3 472.3,211.4 472.2,211.4 472.2,211.5 472.1,211.6 472,211.6 472,211.7 471.9,211.8 471.9,211.9 471.9,212 
		471.8,212.1 471.8,212.1 471.8,212.2 471.8,212.4 471.8,212.4 471.8,212.5 471.8,212.6 471.8,212.7 471.8,212.8 471.8,212.9 
		471.8,213 471.9,213.1 471.9,213.2 472,213.3 472,213.4 472.1,213.4 472.1,213.5 472.2,213.6 472.3,213.6 472.3,213.7 472.4,213.8 
		472.5,213.8 472.6,213.9 472.7,213.9 472.8,213.9 472.9,214 473,214 473,214 473.1,214 473.2,214 473.3,214 473.4,214 473.5,214 
		473.6,214 473.7,214 473.8,213.9 473.9,213.9 474,213.9 474.1,213.8 474.2,213.8 474.2,213.7 474.3,213.6 474.4,213.6 474.4,213.5 
		474.5,213.4 474.5,213.4 474.6,213.3 474.6,213.2 474.7,213.1 474.7,213 474.8,212.9 474.8,212.8 474.8,212.7 474.8,212.6 
		474.8,212.5 474.8,212.4 474.8,212.4 474.8,212.2 474.8,212.1 474.7,212.1 474.7,212 474.7,211.9 474.6,211.8 474.6,211.7 
		474.5,211.6 474.5,211.6 474.4,211.5 474.3,211.4 474.3,211.4 474.2,211.3 474.1,211.2 474,211.2 473.9,211.1 473.8,211.1 
		473.7,211.1 473.7,211 473.6,211 473.5,211 473.4,211 	"/>
</g>
<g id="ID000021-2-3" class="st10">
	<polygon class="st11" points="496.7,154 496.6,154 496.5,154 496.4,154.1 496.3,154.1 496.2,154.1 496.1,154.1 496,154.2 
		495.9,154.2 495.9,154.3 495.8,154.3 495.7,154.4 495.6,154.5 495.6,154.5 495.5,154.6 495.5,154.7 495.4,154.7 495.4,154.8 
		495.3,154.9 495.3,155 495.2,155.1 495.2,155.2 495.2,155.3 495.2,155.4 495.2,155.5 495.2,155.6 495.2,155.7 495.2,155.8 
		495.2,155.9 495.2,156 495.2,156.1 495.3,156.2 495.3,156.2 495.4,156.3 495.4,156.4 495.5,156.5 495.6,156.6 495.6,156.6 
		495.7,156.7 495.8,156.8 495.8,156.8 495.9,156.9 496,156.9 496.1,156.9 496.2,157 496.3,157 496.4,157 496.5,157.1 496.6,157.1 
		496.6,157.1 496.7,157.1 496.8,157.1 496.9,157.1 497,157 497.1,157 497.2,157 497.3,156.9 497.4,156.9 497.5,156.9 497.6,156.8 
		497.6,156.8 497.7,156.7 497.8,156.6 497.9,156.6 497.9,156.5 498,156.4 498,156.3 498.1,156.2 498.1,156.2 498.2,156.1 498.2,156 
		498.2,155.9 498.2,155.8 498.2,155.7 498.2,155.6 498.2,155.5 498.2,155.4 498.2,155.3 498.2,155.2 498.2,155.1 498.1,155 
		498.1,154.9 498.1,154.8 498,154.7 497.9,154.7 497.9,154.6 497.8,154.5 497.7,154.5 497.7,154.4 497.6,154.3 497.5,154.3 
		497.4,154.2 497.4,154.2 497.3,154.1 497.2,154.1 497.1,154.1 497,154.1 496.9,154 496.8,154 	"/>
</g>
<g id="ID000021-2-4" class="st10">
	<polygon class="st11" points="446.8,74.9 446.7,74.9 446.6,74.9 446.5,74.9 446.4,75 446.3,75 446.2,75 446.1,75.1 446,75.1 
		445.9,75.1 445.9,75.2 445.8,75.3 445.7,75.3 445.6,75.4 445.6,75.5 445.5,75.5 445.5,75.6 445.4,75.7 445.4,75.8 445.3,75.9 
		445.3,76 445.3,76.1 445.3,76.2 445.2,76.3 445.2,76.4 445.2,76.5 445.2,76.6 445.3,76.7 445.3,76.7 445.3,76.8 445.3,76.9 
		445.4,77 445.4,77.1 445.4,77.2 445.5,77.3 445.5,77.3 445.6,77.4 445.7,77.5 445.8,77.6 445.8,77.6 445.9,77.7 446,77.7 
		446.1,77.8 446.2,77.8 446.2,77.9 446.3,77.9 446.4,77.9 446.5,77.9 446.6,78 446.7,78 446.8,78 446.9,78 447,77.9 447.1,77.9 
		447.2,77.9 447.3,77.9 447.4,77.8 447.5,77.8 447.6,77.7 447.6,77.7 447.7,77.6 447.8,77.6 447.9,77.5 447.9,77.4 448,77.3 
		448,77.3 448.1,77.2 448.1,77.1 448.2,77 448.2,76.9 448.2,76.8 448.3,76.7 448.3,76.7 448.3,76.6 448.3,76.5 448.3,76.4 
		448.3,76.3 448.3,76.2 448.2,76.1 448.2,76 448.2,75.9 448.1,75.8 448.1,75.7 448.1,75.6 448,75.5 448,75.5 447.9,75.4 447.8,75.3 
		447.7,75.3 447.7,75.2 447.6,75.1 447.5,75.1 447.4,75.1 447.3,75 447.2,75 447.1,75 447,74.9 447,74.9 446.9,74.9 	"/>
</g>
<text transform="matrix(1 0 0 1 216.9727 352.3877)" class="st1 st12">5</text>
<text transform="matrix(1 0 0 1 223.4434 352.3877)" class="st1 st12">’</text>
<text transform="matrix(1 0 0 1 192.8037 370.7373)" class="st1 st12">3</text>
<text transform="matrix(1 0 0 1 199.2734 370.7373)" class="st1 st12">’</text>
<text transform="matrix(1 0 0 1 344.3874 24.289)" class="st1 st13">SRB-2 aptamer</text>
</svg>
