<svg id="图层_1" data-name="图层 1" xmlns="http://www.w3.org/2000/svg" viewBox="0 0 400 400"><defs><style>.cls-1,.cls-10,.cls-11,.cls-12,.cls-13,.cls-14,.cls-15,.cls-17,.cls-2,.cls-3,.cls-4,.cls-5,.cls-6,.cls-7,.cls-8,.cls-9{isolation:isolate;}.cls-1,.cls-10,.cls-11,.cls-12,.cls-13,.cls-14,.cls-2,.cls-3,.cls-4,.cls-5,.cls-6,.cls-7,.cls-8,.cls-9{font-size:13px;}.cls-1,.cls-2,.cls-3,.cls-4{fill:#ff870a;}.cls-1,.cls-10,.cls-11,.cls-12,.cls-13,.cls-14,.cls-15,.cls-2,.cls-20,.cls-22,.cls-3,.cls-4,.cls-5,.cls-6,.cls-7,.cls-8,.cls-9{font-family:ArialMT, Arial;}.cls-2{letter-spacing:-0.06em;}.cls-14,.cls-3,.cls-6{letter-spacing:-0.06em;}.cls-11,.cls-13,.cls-4,.cls-8,.cls-9{letter-spacing:-0.06em;}.cls-5,.cls-6,.cls-9{fill:teal;}.cls-7,.cls-8{fill:#228b22;}.cls-10,.cls-11{fill:#80db9e;}.cls-12,.cls-13,.cls-14{fill:#32cd32;}.cls-15,.cls-18{opacity:0.75;}.cls-15{font-size:7px;}.cls-16{letter-spacing:-0.07em;}.cls-17{fill:none;stroke:#020202;opacity:0.55;}.cls-17,.cls-19{stroke-miterlimit:10;}.cls-19{stroke:#000;stroke-width:0.07px;}.cls-20{font-size:10px;}.cls-21{letter-spacing:-0.04em;}.cls-22{font-size:20px;}</style></defs><text class="cls-1" transform="translate(37.73 319.53)">G</text><text class="cls-1" transform="translate(50.13 318.17)">G</text><text class="cls-2" transform="translate(62.59 316.06)">A</text><text class="cls-2" transform="translate(68.11 303.99)">A</text><text class="cls-1" transform="translate(79.34 301.95)">C</text><text class="cls-2" transform="translate(90.03 303.46)">A</text><text class="cls-1" transform="translate(98.01 312.78)">C</text><text class="cls-1" transform="translate(110.02 312.86)">U</text><text class="cls-2" transform="translate(122.2 310.88)">A</text><text class="cls-1" transform="translate(126.91 301.53)">U</text><text class="cls-1" transform="translate(138.14 297.03)">C</text><text class="cls-1" transform="translate(148.98 299.02)">C</text><text class="cls-1" transform="translate(157.2 306.97)">G</text><text class="cls-3" transform="translate(170.13 306.91)">A</text><text class="cls-1" transform="translate(183.34 306.23)">C</text><text class="cls-1" transform="translate(196.64 305.49)">U</text><text class="cls-1" transform="translate(206.57 300.2)">G</text><text class="cls-1" transform="translate(214.85 289.49)">G</text><text class="cls-1" transform="translate(223.3 279.05)">C</text><text class="cls-4" transform="translate(231.05 268.46)">A</text><text class="cls-1" transform="translate(238.72 257.59)">C</text><text class="cls-1" transform="translate(246.58 246.52)">C</text><text class="cls-1" transform="translate(250.98 235.27)">U</text><text class="cls-1" transform="translate(247.98 221.9)">G</text><text class="cls-5" transform="translate(243.57 209.61)">U</text><text class="cls-5" transform="translate(241.38 196.38)">G</text><text class="cls-5" transform="translate(239.35 183.3)">C</text><text class="cls-5" transform="translate(235.62 171.42)">U</text><text class="cls-5" transform="translate(225.83 171.86)">C</text><text class="cls-5" transform="translate(214.15 168.2)">U</text><text class="cls-6" transform="translate(205.82 159.72)">A</text><text class="cls-5" transform="translate(201.51 150.29)">U</text><text class="cls-6" transform="translate(189.11 150)">A</text><text class="cls-5" transform="translate(175.84 150.97)">G</text><text class="cls-7" transform="translate(163.12 152.2)">C</text><text class="cls-8" transform="translate(150.31 153.63)">A</text><text class="cls-7" transform="translate(138.42 156.78)">G</text><text class="cls-8" transform="translate(130.45 147.45)">A</text><text class="cls-8" transform="translate(136.65 136.7)">A</text><text class="cls-7" transform="translate(148.96 136.48)">U</text><text class="cls-7" transform="translate(161.73 135.43)">G</text><text class="cls-5" transform="translate(175.15 134.26)">C</text><text class="cls-5" transform="translate(188.55 133.45)">U</text><text class="cls-6" transform="translate(202.93 133.35)">A</text><text class="cls-6" transform="translate(209.21 123.12)">A</text><text class="cls-5" transform="translate(217.09 118.17)">C</text><text class="cls-9" transform="translate(217.99 105.17)">A</text><text class="cls-10" transform="translate(218.36 91.51)">U</text><text class="cls-10" transform="translate(219.28 78.48)">U</text><text class="cls-11" transform="translate(216.22 66.09)">A</text><text class="cls-10" transform="translate(223.1 56.17)">G</text><text class="cls-11" transform="translate(235.43 57.26)">A</text><text class="cls-10" transform="translate(240.45 68.26)">U</text><text class="cls-10" transform="translate(235.28 78.53)">G</text><text class="cls-11" transform="translate(234.26 91.31)">A</text><text class="cls-5" transform="translate(233.33 104.33)">U</text><text class="cls-5" transform="translate(231.9 117.08)">G</text><text class="cls-5" transform="translate(243.47 121.68)">G</text><text class="cls-9" transform="translate(252.26 128.27)">A</text><text class="cls-5" transform="translate(256.2 139.15)">G</text><text class="cls-5" transform="translate(268.86 138.58)">G</text><text class="cls-5" transform="translate(282.19 136.64)">G</text><text class="cls-12" transform="translate(295.64 134.62)">G</text><text class="cls-12" transform="translate(309.36 133.19)">C</text><text class="cls-12" transform="translate(322.35 132.21)">G</text><text class="cls-12" transform="translate(327.96 120.39)">C</text><text class="cls-13" transform="translate(339.26 118.06)">A</text><text class="cls-14" transform="translate(351.51 117.61)">A</text><text class="cls-12" transform="translate(362.05 123.44)">G</text><text class="cls-12" transform="translate(368.26 133.95)">G</text><text class="cls-12" transform="translate(368.58 146.11)">U</text><text class="cls-12" transform="translate(363.01 156.94)">U</text><text class="cls-13" transform="translate(352.8 163.38)">A</text><text class="cls-14" transform="translate(340.58 163.61)">A</text><text class="cls-12" transform="translate(329.89 158.82)">C</text><text class="cls-12" transform="translate(323.11 149.34)">C</text><text class="cls-12" transform="translate(310.07 149.86)">G</text><text class="cls-12" transform="translate(297.35 151.2)">C</text><text class="cls-5" transform="translate(284.11 153.02)">C</text><text class="cls-5" transform="translate(270.08 154.91)">U</text><text class="cls-5" transform="translate(255.79 155.98)">C</text><text class="cls-9" transform="translate(249.74 165.72)">A</text><text class="cls-5" transform="translate(254.3 179.84)">G</text><text class="cls-5" transform="translate(256.85 193.45)">U</text><text class="cls-6" transform="translate(259.24 206.64)">A</text><text class="cls-1" transform="translate(261.69 219.58)">C</text><text class="cls-4" transform="translate(264.6 231.93)">A</text><text class="cls-1" transform="translate(273.55 240.14)">U</text><text class="cls-1" transform="translate(269.5 251.83)">C</text><text class="cls-1" transform="translate(259.64 257.03)">G</text><text class="cls-1" transform="translate(252.01 267.32)">G</text><text class="cls-1" transform="translate(244.39 278.28)">U</text><text class="cls-1" transform="translate(236.34 289.14)">G</text><text class="cls-1" transform="translate(228.34 299.66)">C</text><text class="cls-1" transform="translate(220.63 309.95)">C</text><text class="cls-1" transform="translate(217.74 321.25)">U</text><text class="cls-1" transform="translate(207.19 326.84)">U</text><text class="cls-1" transform="translate(196.63 321.43)">G</text><text class="cls-1" transform="translate(184.76 321.88)">G</text><text class="cls-1" transform="translate(171.39 322.64)">U</text><text class="cls-1" transform="translate(158.18 323.04)">C</text><text class="cls-3" transform="translate(147.96 331.13)">A</text><text class="cls-1" transform="translate(135.64 332.51)">U</text><text class="cls-1" transform="translate(124.73 326.65)">U</text><text class="cls-2" transform="translate(112.1 328.53)">A</text><text class="cls-1" transform="translate(98.05 328.86)">G</text><text class="cls-1" transform="translate(87.51 336.49)">G</text><text class="cls-2" transform="translate(75.53 337.28)">A</text><text class="cls-1" transform="translate(64.85 332.96)">U</text><text class="cls-1" transform="translate(52.05 335.01)">C</text><text class="cls-1" transform="translate(39.15 336.62)">C</text><text class="cls-1" transform="translate(28.67 340.7)">C</text><text class="cls-1" transform="translate(17.48 335.28)">G</text><text class="cls-15" transform="translate(122.18 291.23)">10</text><text class="cls-15" transform="translate(223.91 264.26)">20</text><text class="cls-15" transform="translate(213.19 173.84)">30</text><text class="cls-15" transform="translate(147.96 124.48)">40</text><text class="cls-15" transform="translate(209.19 62.05)">50</text><text class="cls-15" transform="translate(261.3 129.69)">60</text><text class="cls-15" transform="translate(378.56 132.21)">70</text><text class="cls-15" transform="translate(271.11 161.26)">80</text><text class="cls-15" transform="translate(266.17 262.15)">90</text><text class="cls-15" transform="translate(170.11 329.01)">100</text><text class="cls-15" transform="translate(50.82 341.86)"><tspan class="cls-16">1</tspan><tspan x="3.37" y="0">10</tspan></text><line class="cls-17" x1="43.18" y1="319.69" x2="43.87" y2="327.16"/><line class="cls-17" x1="55.69" y1="318.3" x2="56.38" y2="325.77"/><line class="cls-17" x1="67.74" y1="316.18" x2="68.43" y2="323.65"/><line class="cls-17" x1="103.22" y1="312.94" x2="103.45" y2="319.39"/><line class="cls-17" x1="115.67" y1="313.02" x2="116.03" y2="319.23"/><line class="cls-17" x1="126.71" y1="310.88" x2="129.11" y2="317.34"/><line class="cls-17" x1="162.9" y1="307.13" x2="163.22" y2="313.58"/><line class="cls-17" x1="174.99" y1="306.88" x2="175.31" y2="313.33"/><line class="cls-17" x1="188.95" y1="306.38" x2="189.27" y2="312.41"/><line class="cls-17" x1="215.54" y1="299.19" x2="221.84" y2="302.69"/><line class="cls-17" x1="224.15" y1="288.19" x2="229.79" y2="291.87"/><line class="cls-17" x1="239.15" y1="266.34" x2="245.11" y2="269.96"/><line class="cls-17" x1="247.23" y1="255.78" x2="253.49" y2="259.4"/><line class="cls-17" x1="254.75" y1="245.75" x2="261" y2="249.37"/><line class="cls-17" x1="259.5" y1="230.3" x2="266.17" y2="226.94"/><line class="cls-17" x1="257.27" y1="217.72" x2="262.51" y2="216.04"/><line class="cls-17" x1="252.01" y1="204.64" x2="260.81" y2="201.87"/><line class="cls-17" x1="247.86" y1="178.22" x2="254.99" y2="176.51"/><line class="cls-17" x1="244.29" y1="166.05" x2="250.98" y2="161.18"/><line class="cls-17" x1="260.73" y1="146.51" x2="260.95" y2="139.31"/><line class="cls-17" x1="287.91" y1="143.56" x2="288.13" y2="136.8"/><line class="cls-17" x1="301.77" y1="141.74" x2="301.4" y2="134.78"/><line class="cls-17" x1="315.08" y1="140.4" x2="314.71" y2="133.19"/><line class="cls-17" x1="327.93" y1="139.87" x2="327.85" y2="132.37"/><line class="cls-17" x1="225.43" y1="113.21" x2="232.59" y2="112.81"/><line class="cls-17" x1="206.09" y1="140.98" x2="207.32" y2="133.41"/><line class="cls-17" x1="193.26" y1="140.69" x2="193.57" y2="133.6"/><line class="cls-17" x1="180.97" y1="141.5" x2="180.55" y2="134.41"/><line class="cls-17" x1="167.82" y1="142.69" x2="167.4" y2="135.6"/><line class="cls-17" x1="154.53" y1="144.12" x2="154.1" y2="136.7"/><line class="cls-17" x1="226.83" y1="86.38" x2="236.2" y2="85.9"/><line class="cls-17" x1="225.2" y1="99.82" x2="234.25" y2="99.54"/><line class="cls-17" x1="231.6" y1="277.63" x2="237.79" y2="281.48"/><g id="ID000021-2" class="cls-18"><polygon class="cls-19" points="201.51 307.74 201.43 307.74 201.35 307.74 201.27 307.76 201.19 307.77 201.11 307.8 201.03 307.82 200.95 307.86 200.87 307.89 200.81 307.94 200.73 307.98 200.67 308.04 200.61 308.1 200.55 308.16 200.49 308.22 200.44 308.28 200.41 308.34 200.37 308.42 200.33 308.5 200.29 308.56 200.27 308.64 200.24 308.72 200.23 308.8 200.21 308.9 200.21 308.98 200.21 309.06 200.21 309.14 200.23 309.22 200.23 309.3 200.24 309.39 200.27 309.46 200.31 309.54 200.35 309.62 200.38 309.68 200.43 309.77 200.47 309.83 200.53 309.91 200.59 309.97 200.65 310 200.71 310.07 200.77 310.11 200.85 310.17 200.91 310.21 200.99 310.23 201.07 310.27 201.15 310.29 201.23 310.31 201.31 310.33 201.39 310.35 201.47 310.35 201.55 310.35 201.63 310.35 201.71 310.33 201.79 310.31 201.88 310.29 201.95 310.27 202.03 310.23 202.12 310.21 202.2 310.17 202.26 310.11 202.32 310.07 202.4 310 202.46 309.97 202.5 309.91 202.56 309.83 202.6 309.77 202.66 309.68 202.68 309.62 202.72 309.54 202.76 309.46 202.78 309.39 202.8 309.3 202.82 309.22 202.82 309.14 202.82 309.06 202.82 308.98 202.82 308.9 202.8 308.8 202.78 308.72 202.76 308.64 202.74 308.56 202.7 308.5 202.68 308.42 202.64 308.34 202.58 308.28 202.54 308.22 202.47 308.16 202.41 308.1 202.35 308.04 202.29 307.98 202.22 307.94 202.15 307.89 202.07 307.86 202 307.82 201.91 307.8 201.83 307.77 201.75 307.76 201.68 307.74 201.59 307.74 201.51 307.74"/></g><g id="ID000021-2-2" data-name="ID000021-2" class="cls-18"><polygon class="cls-19" points="254.3 189.37 254.22 189.37 254.14 189.37 254.06 189.39 253.98 189.41 253.9 189.43 253.82 189.45 253.74 189.5 253.66 189.53 253.6 189.57 253.52 189.62 253.46 189.68 253.4 189.73 253.34 189.79 253.28 189.85 253.23 189.91 253.2 189.97 253.15 190.06 253.12 190.14 253.08 190.2 253.06 190.28 253.03 190.36 253.01 190.44 253 190.54 253 190.62 253 190.7 253 190.78 253.01 190.86 253.01 190.94 253.03 191.02 253.06 191.1 253.09 191.18 253.14 191.26 253.17 191.32 253.22 191.41 253.26 191.47 253.32 191.54 253.38 191.6 253.44 191.64 253.49 191.7 253.56 191.75 253.64 191.81 253.7 191.85 253.78 191.87 253.86 191.9 253.94 191.93 254.02 191.94 254.1 191.96 254.18 191.99 254.26 191.99 254.34 191.99 254.42 191.99 254.5 191.96 254.58 191.94 254.66 191.93 254.74 191.9 254.82 191.87 254.91 191.85 254.99 191.81 255.05 191.75 255.11 191.7 255.19 191.64 255.25 191.6 255.29 191.54 255.35 191.47 255.39 191.41 255.45 191.32 255.47 191.26 255.51 191.18 255.55 191.1 255.57 191.02 255.59 190.94 255.61 190.86 255.61 190.78 255.61 190.7 255.61 190.62 255.61 190.54 255.59 190.44 255.57 190.36 255.55 190.28 255.53 190.2 255.49 190.14 255.47 190.06 255.43 189.97 255.37 189.91 255.32 189.85 255.26 189.79 255.2 189.73 255.14 189.68 255.08 189.62 255 189.57 254.94 189.53 254.86 189.5 254.78 189.45 254.7 189.43 254.62 189.41 254.54 189.39 254.46 189.37 254.38 189.37 254.3 189.37"/></g><g id="ID000021-2-3" data-name="ID000021-2" class="cls-18"><polygon class="cls-19" points="274.43 140.43 274.35 140.43 274.27 140.43 274.18 140.45 274.11 140.47 274.03 140.49 273.95 140.51 273.86 140.55 273.78 140.59 273.72 140.63 273.64 140.67 273.58 140.73 273.52 140.79 273.46 140.85 273.4 140.91 273.36 140.97 273.32 141.03 273.28 141.12 273.24 141.19 273.2 141.25 273.18 141.33 273.16 141.41 273.14 141.5 273.12 141.59 273.12 141.67 273.12 141.76 273.12 141.84 273.14 141.92 273.14 142 273.16 142.08 273.18 142.16 273.22 142.24 273.26 142.32 273.3 142.38 273.34 142.46 273.38 142.52 273.44 142.6 273.5 142.66 273.57 142.7 273.62 142.76 273.68 142.8 273.77 142.86 273.83 142.9 273.9 142.92 273.98 142.96 274.06 142.98 274.15 143 274.23 143.02 274.31 143.04 274.38 143.04 274.47 143.04 274.55 143.04 274.63 143.02 274.71 143 274.79 142.98 274.87 142.96 274.95 142.92 275.03 142.9 275.11 142.86 275.17 142.8 275.23 142.76 275.31 142.7 275.37 142.66 275.42 142.6 275.48 142.52 275.51 142.46 275.57 142.38 275.59 142.32 275.63 142.24 275.68 142.16 275.69 142.08 275.71 142 275.74 141.92 275.74 141.84 275.74 141.76 275.74 141.67 275.74 141.59 275.71 141.5 275.69 141.41 275.68 141.33 275.65 141.25 275.62 141.19 275.59 141.12 275.55 141.03 275.49 140.97 275.45 140.91 275.39 140.85 275.33 140.79 275.27 140.73 275.21 140.67 275.13 140.63 275.07 140.59 274.99 140.55 274.91 140.51 274.83 140.49 274.75 140.47 274.67 140.45 274.59 140.43 274.5 140.43 274.43 140.43"/></g><g id="ID000021-2-4" data-name="ID000021-2" class="cls-18"><polygon class="cls-19" points="231.51 72.43 231.43 72.43 231.35 72.43 231.27 72.45 231.19 72.47 231.11 72.49 231.03 72.51 230.95 72.55 230.87 72.59 230.81 72.63 230.73 72.67 230.67 72.73 230.61 72.79 230.55 72.85 230.49 72.91 230.44 72.97 230.41 73.03 230.37 73.12 230.33 73.19 230.29 73.25 230.27 73.33 230.25 73.41 230.23 73.5 230.21 73.59 230.21 73.67 230.21 73.76 230.21 73.84 230.23 73.92 230.23 74 230.25 74.08 230.27 74.16 230.31 74.24 230.35 74.32 230.38 74.38 230.43 74.46 230.47 74.52 230.53 74.6 230.59 74.66 230.65 74.7 230.71 74.76 230.77 74.8 230.85 74.86 230.91 74.9 230.99 74.92 231.07 74.96 231.15 74.98 231.23 75 231.31 75.02 231.39 75.04 231.47 75.04 231.56 75.04 231.63 75.04 231.71 75.02 231.79 75 231.88 74.98 231.96 74.96 232.03 74.92 232.12 74.9 232.2 74.86 232.26 74.8 232.32 74.76 232.4 74.7 232.46 74.66 232.5 74.6 232.56 74.52 232.6 74.46 232.66 74.38 232.68 74.32 232.72 74.24 232.76 74.16 232.78 74.08 232.8 74 232.82 73.92 232.82 73.84 232.82 73.76 232.82 73.67 232.82 73.59 232.8 73.5 232.78 73.41 232.76 73.33 232.74 73.25 232.7 73.19 232.68 73.12 232.64 73.03 232.58 72.97 232.54 72.91 232.48 72.85 232.42 72.79 232.35 72.73 232.29 72.67 232.22 72.63 232.16 72.59 232.08 72.55 232 72.51 231.91 72.49 231.83 72.47 231.75 72.45 231.68 72.43 231.59 72.43 231.51 72.43"/></g><text class="cls-20" transform="translate(34.04 310.88)">5<tspan class="cls-21" x="5.56" y="0">’</tspan></text><text class="cls-20" transform="translate(13.27 326.65)">3<tspan class="cls-21" x="5.56" y="0">’</tspan></text><text class="cls-22" transform="translate(55.69 230.83)">SRB-2 aptamer</text></svg>