<?xml version="1.0" encoding="utf-8"?>
<!-- Generator: Adobe Illustrator 25.2.0, SVG Export Plug-In . SVG Version: 6.00 Build 0)  -->
<svg version="1.1" id="图层_1" xmlns="http://www.w3.org/2000/svg" xmlns:xlink="http://www.w3.org/1999/xlink" x="0px" y="0px"
	 viewBox="0 0 800 400" style="enable-background:new 0 0 800 400;" xml:space="preserve">
<style type="text/css">
	.st0{font-family:'MicrosoftYaHei';}
	.st1{font-size:20px;}
	.st2{fill:none;stroke:#000000;stroke-width:0.25;stroke-miterlimit:10;}
	.st3{fill:#33CC33;}
	.st4{font-size:20.2481px;}
	.st5{fill:#FF9933;}
	.st6{fill:#FF99CC;}
	.st7{fill:none;stroke:#000000;stroke-width:2;stroke-miterlimit:10;}
	.st8{font-family:'ArialMT';}
	.st9{font-size:18px;}
</style>
<text transform="matrix(1 0 0 1 14.8457 31.744)" class="st0 st1">T1.7.5 aptamer</text>
<line class="st2" x1="413.8" y1="151.5" x2="435.3" y2="151.5"/>
<text transform="matrix(1 0 0 1 395.4282 377.9893)" class="st3 st0 st4">G</text>
<text transform="matrix(1 0 0 1 453.6416 377.9893)" class="st3 st0 st4">G</text>
<text transform="matrix(1 0 0 1 548.1807 360.2295)" class="st3 st0 st4">G</text>
<text transform="matrix(1 0 0 1 518.2129 325.666)" class="st3 st0 st4">G</text>
<text transform="matrix(1 0 0 1 465.1729 324.916)" class="st3 st0 st4">G</text>
<text transform="matrix(1 0 0 1 439.1641 324.6533)" class="st3 st0 st4">G</text>
<text transform="matrix(1 0 0 1 425.6084 319.7227)" class="st3 st0 st4">G</text>
<text transform="matrix(1 0 0 1 412.0518 314.377)" class="st5 st0 st4">G</text>
<text transform="matrix(1 0 0 1 397.7368 258.0371)" class="st5 st0 st4">G</text>
<text transform="matrix(1 0 0 1 398.1821 210.5049)" class="st6 st0 st4">G</text>
<text transform="matrix(1 0 0 1 398.1821 177.6011)" class="st6 st0 st4">G</text>
<text transform="matrix(1 0 0 1 397.2002 160.522)" class="st6 st0 st4">G</text>
<text transform="matrix(1 0 0 1 397.2002 126.9204)" class="st6 st0 st4">G</text>
<text transform="matrix(1 0 0 1 396.208 92.8828)" class="st6 st0 st4">G</text>
<text transform="matrix(1 0 0 1 367.9922 31.7031)" class="st6 st0 st4">G</text>
<text transform="matrix(1 0 0 1 345.7598 108.4541)" class="st6 st0 st4">G</text>
<text transform="matrix(1 0 0 1 344.7676 193.1719)" class="st6 st0 st4">G</text>
<text transform="matrix(1 0 0 1 337.2251 243.4688)" class="st6 st0 st4">G</text>
<text transform="matrix(1 0 0 1 342.7935 291.9521)" class="st5 st0 st4">G</text>
<text transform="matrix(1 0 0 1 342.8135 309.3457)" class="st5 st0 st4">G</text>
<text transform="matrix(1 0 0 1 311.501 309.3457)" class="st5 st0 st4">G</text>
<text transform="matrix(1 0 0 1 296.1792 309.3457)" class="st5 st0 st4">G</text>
<text transform="matrix(1 0 0 1 278.0723 309.3447)" class="st5 st0 st4">G</text>
<text transform="matrix(1 0 0 1 441.1895 377.9893)" class="st3 st0 st4">C</text>
<text transform="matrix(1 0 0 1 467.1982 377.9893)" class="st3 st0 st4">C</text>
<text transform="matrix(1 0 0 1 519.2051 376.8125)" class="st3 st0 st4">C</text>
<text transform="matrix(1 0 0 1 478.7295 314.6309)" class="st3 st0 st4">C</text>
<text transform="matrix(1 0 0 1 452.7207 324.6533)" class="st3 st0 st4">C</text>
<text transform="matrix(1 0 0 1 399.3262 309.8115)" class="st5 st0 st4">C</text>
<text transform="matrix(1 0 0 1 399.498 291.9521)" class="st5 st0 st4">C</text>
<text transform="matrix(1 0 0 1 398.9819 194.1846)" class="st6 st0 st4">C</text>
<text transform="matrix(1 0 0 1 397.2002 110.0029)" class="st6 st0 st4">C</text>
<text transform="matrix(1 0 0 1 344.7676 42.0298)" class="st6 st0 st4">C</text>
<text transform="matrix(1 0 0 1 347.0962 91.8706)" class="st6 st0 st4">C</text>
<text transform="matrix(1 0 0 1 345.7598 125.5737)" class="st6 st0 st4">C</text>
<text transform="matrix(1 0 0 1 343.7856 259.0488)" class="st5 st0 st4">C</text>
<text transform="matrix(1 0 0 1 503.1689 377.2178)" class="st3 st0 st4">U</text>
<text transform="matrix(1 0 0 1 398.729 275.3691)" class="st5 st0 st4">U</text>
<text transform="matrix(1 0 0 1 398.9819 226.8848)" class="st6 st0 st4">U</text>
<text transform="matrix(1 0 0 1 397.2002 143.6753)" class="st6 st0 st4">U</text>
<text transform="matrix(1 0 0 1 396.4912 76.2998)" class="st6 st0 st4">U</text>
<text transform="matrix(1 0 0 1 400.5811 58.2891)" class="st6 st0 st4">U</text>
<text transform="matrix(1 0 0 1 395.4282 42.0298)" class="st6 st0 st4">U</text>
<text transform="matrix(1 0 0 1 339.4927 59.3018)" class="st6 st0 st4">U</text>
<text transform="matrix(1 0 0 1 345.3042 158.9829)" class="st6 st0 st4">U</text>
<text transform="matrix(1 0 0 1 345.3042 176.4067)" class="st6 st0 st4">U</text>
<text transform="matrix(1 0 0 1 345.3042 210.5049)" class="st6 st0 st4">U</text>
<text transform="matrix(1 0 0 1 378.6934 377.9893)" class="st3 st0 st4">A</text>
<text transform="matrix(1 0 0 1 411.291 377.9893)" class="st3 st0 st4">A</text>
<text transform="matrix(1 0 0 1 427.8535 377.9883)" class="st3 st0 st4">A</text>
<text transform="matrix(1 0 0 1 534.6445 371.6797)" class="st3 st0 st4">A</text>
<text transform="matrix(1 0 0 1 548.1602 341.54)" class="st3 st0 st4">A</text>
<text transform="matrix(1 0 0 1 534.4219 332.6611)" class="st3 st0 st4">A</text>
<text transform="matrix(1 0 0 1 504.4746 324.6533)" class="st3 st0 st4">A</text>
<text transform="matrix(1 0 0 1 492.1943 314.6309)" class="st3 st0 st4">A</text>
<text transform="matrix(1 0 0 1 346.772 75.3379)" class="st6 st0 st4">A</text>
<text transform="matrix(1 0 0 1 346.0938 142.3696)" class="st6 st0 st4">A</text>
<text transform="matrix(1 0 0 1 345.0815 227.0576)" class="st6 st0 st4">A</text>
<text transform="matrix(1 0 0 1 343.7856 275.3691)" class="st5 st0 st4">A</text>
<text transform="matrix(1 0 0 1 327.8418 309.3447)" class="st5 st0 st4">A</text>
<line class="st2" x1="448.6" y1="360.5" x2="448.6" y2="326.7"/>
<line class="st2" x1="461.6" y1="360.5" x2="461.6" y2="326.7"/>
<line class="st2" x1="474.6" y1="360.5" x2="474.6" y2="326.7"/>
<line class="st2" x1="511.4" y1="359.4" x2="511.4" y2="325.7"/>
<line class="st2" x1="526.3" y1="360.5" x2="526.3" y2="326.7"/>
<line class="st7" x1="361.8" y1="301.8" x2="395.6" y2="301.8"/>
<line class="st7" x1="361.8" y1="283.3" x2="395.6" y2="283.3"/>
<line class="st7" x1="361.8" y1="250.5" x2="395.6" y2="250.5"/>
<line class="st7" x1="361.8" y1="266.9" x2="395.6" y2="266.9"/>
<line class="st7" x1="361.8" y1="219.3" x2="395.6" y2="219.3"/>
<line class="st7" x1="361.8" y1="202.3" x2="395.6" y2="202.3"/>
<line class="st7" x1="361.8" y1="185.3" x2="395.6" y2="185.3"/>
<line class="st7" x1="361.8" y1="168.4" x2="395.6" y2="168.4"/>
<line class="st7" x1="361.8" y1="151.5" x2="395.6" y2="151.5"/>
<line class="st7" x1="361.8" y1="134.5" x2="395.6" y2="134.5"/>
<line class="st7" x1="361.8" y1="118.6" x2="395.6" y2="118.6"/>
<line class="st7" x1="361.8" y1="102.6" x2="395.6" y2="102.6"/>
<line class="st7" x1="361.8" y1="87.3" x2="395.6" y2="87.3"/>
<line class="st7" x1="361.8" y1="69.4" x2="395.6" y2="69.4"/>
<line class="st2" x1="563.2" y1="352.5" x2="584.7" y2="352.5"/>
<line class="st2" x1="318.3" y1="52.5" x2="339.8" y2="52.5"/>
<text transform="matrix(1 0 0 1 584.6875 359.8848)" class="st0 st4">50</text>
<text transform="matrix(1 0 0 1 434.335 160.522)" class="st0 st4">30</text>
<text transform="matrix(1 0 0 1 294.0864 60.9819)" class="st0 st4">20</text>
<text transform="matrix(1 0 0 1 266.6816 292.209)" class="st8 st9">5’</text>
<text transform="matrix(1 0 0 1 360.7812 393.5429)" class="st8 st9">3’</text>
</svg>
