<svg id="图层_1" data-name="图层 1" xmlns="http://www.w3.org/2000/svg" viewBox="0 0 400 400">
  <defs>
    <style>
      .cls-1, .cls-10, .cls-11, .cls-2, .cls-3, .cls-4, .cls-6, .cls-7, .cls-8, .cls-9 {
        isolation: isolate;
        font-size: 12.32px;
      }

      .cls-1, .cls-10, .cls-11, .cls-13, .cls-15, .cls-2, .cls-3, .cls-4, .cls-6, .cls-7, .cls-8, .cls-9 {
        font-family: ArialMT, Arial;
      }

      .cls-2, .cls-4, .cls-6, .cls-9 {
        letter-spacing: -0.06em;
      }

      .cls-10, .cls-3, .cls-4 {
        fill: #0c6;
      }

      .cls-5 {
        fill: none;
      }

      .cls-12, .cls-5 {
        stroke: #000;
        stroke-miterlimit: 1.11;
        stroke-width: 0.14px;
      }

      .cls-6, .cls-7 {
        fill: #f39;
      }

      .cls-8, .cls-9 {
        fill: #f93;
      }

      .cls-10, .cls-11 {
        letter-spacing: -0.06em;
      }

      .cls-13 {
        font-size: 12px;
      }

      .cls-14 {
        letter-spacing: -0.04em;
      }

      .cls-15 {
        font-size: 20px;
      }
    </style>
  </defs>
  <g id="ID000002">
    <text class="cls-1" transform="translate(6.15 237.09)">U</text>
  </g>
  <g id="ID000003">
    <text class="cls-2" transform="translate(16.47 236.79)">A</text>
  </g>
  <g id="ID000004">
    <text class="cls-2" transform="translate(26.95 237.09)">A</text>
  </g>
  <g id="ID000005">
    <text class="cls-1" transform="translate(37.45 237.53)">U</text>
  </g>
  <g id="ID000006">
    <text class="cls-2" transform="translate(47.92 236.94)">A</text>
  </g>
  <g id="ID000007">
    <text class="cls-1" transform="translate(57.16 237.82)">U</text>
  </g>
  <g id="ID000008">
    <text class="cls-2" transform="translate(67.79 236.94)">A</text>
  </g>
  <g id="ID000009">
    <text class="cls-1" transform="translate(77.09 237.53)">U</text>
  </g>
  <g id="ID000010">
    <text class="cls-3" transform="translate(87.71 237.38)">C</text>
  </g>
  <g id="ID000011">
    <text class="cls-4" transform="translate(98.89 237.09)">A</text>
  </g>
  <g id="ID000012">
    <line class="cls-5" x1="102.98" y1="226.26" x2="102.98" y2="218.26"/>
  </g>
  <g id="ID000013">
    <text class="cls-1" transform="translate(95.94 212.64)">10</text>
  </g>
  <g id="ID000014">
    <text class="cls-4" transform="translate(110.36 237.23)">A</text>
  </g>
  <g id="ID000015">
    <text class="cls-3" transform="translate(120.34 237.23)">G</text>
  </g>
  <g id="ID000016">
    <text class="cls-6" transform="translate(132.49 236.64)">A</text>
  </g>
  <g id="ID000017">
    <text class="cls-7" transform="translate(131.81 224.64)">G</text>
  </g>
  <g id="ID000018">
    <text class="cls-7" transform="translate(132.15 212.64)">C</text>
  </g>
  <g id="ID000019">
    <text class="cls-7" transform="translate(132.15 200.64)">C</text>
  </g>
  <g id="ID000020">
    <text class="cls-7" transform="translate(132.15 188.63)">U</text>
  </g>
  <g id="ID000021">
    <text class="cls-6" transform="translate(133.05 175.78)">A</text>
  </g>
  <g id="ID000023">
    <text class="cls-8" transform="translate(129.15 152.47)">C</text>
  </g>
  <g id="ID000024">
    <line class="cls-5" x1="124.69" y1="149.12" x2="116.69" y2="149.12"/>
  </g>
  <g id="ID000025">
    <text class="cls-1" transform="translate(102.98 154.52)">20</text>
  </g>
  <g id="ID000026">
    <text class="cls-9" transform="translate(138.43 140.22)">A</text>
  </g>
  <g id="ID000027">
    <text class="cls-9" transform="translate(149.82 140.22)">A</text>
  </g>
  <g id="ID000028">
    <text class="cls-8" transform="translate(157.14 152.47)">C</text>
  </g>
  <g id="ID000029">
    <text class="cls-7" transform="translate(155.81 175.78)">U</text>
  </g>
  <g id="ID000030">
    <text class="cls-7" transform="translate(155.81 163.49)">C</text>
  </g>
  <g id="ID000031">
    <text class="cls-7" transform="translate(155.82 188.63)">G</text>
  </g>
  <g id="ID000032">
    <text class="cls-7" transform="translate(155.82 200.64)">G</text>
  </g>
  <g id="ID000033">
    <text class="cls-7" transform="translate(155.82 212.64)">G</text>
  </g>
  <g id="ID000034">
    <text class="cls-7" transform="translate(156.16 224.64)">C</text>
  </g>
  <g id="ID000035">
    <text class="cls-7" transform="translate(156.16 236.64)">U</text>
  </g>
  <g id="ID000036">
    <line class="cls-5" x1="160.61" y1="239.25" x2="160.61" y2="247.25"/>
  </g>
  <g id="ID000037">
    <text class="cls-1" transform="translate(153.76 261.41)">30</text>
  </g>
  <g id="ID000038">
    <text class="cls-4" transform="translate(166.87 236.64)">A</text>
  </g>
  <g id="ID000039">
    <text class="cls-3" transform="translate(177.93 236.79)">U</text>
  </g>
  <g id="ID000040">
    <text class="cls-10" transform="translate(189.97 236.64)">A</text>
  </g>
  <g id="ID000041">
    <text class="cls-10" transform="translate(201.07 236.94)">A</text>
  </g>
  <g id="ID000042">
    <text class="cls-10" transform="translate(211.31 236.94)">A</text>
  </g>
  <g id="ID000043">
    <text class="cls-3" transform="translate(222.13 236.94)">C</text>
  </g>
  <g id="ID000044">
    <text class="cls-3" transform="translate(234.24 237.08)">U</text>
  </g>
  <g id="ID000045">
    <text class="cls-10" transform="translate(245.13 236.79)">A</text>
  </g>
  <g id="ID000046">
    <text class="cls-10" transform="translate(255.95 236.94)">A</text>
  </g>
  <g id="ID000047">
    <text class="cls-3" transform="translate(265.75 236.64)">G</text>
  </g>
  <g id="ID000048">
    <line class="cls-5" x1="270.83" y1="225.08" x2="270.83" y2="217.08"/>
  </g>
  <g id="ID000049">
    <text class="cls-1" transform="translate(263.97 214.08)">40</text>
  </g>
  <g id="ID000050">
    <text class="cls-3" transform="translate(277.08 236.79)">G</text>
  </g>
  <g id="ID000051">
    <text class="cls-10" transform="translate(289.94 236.94)">A</text>
  </g>
  <g id="ID000052">
    <text class="cls-10" transform="translate(301.1 236.64)">A</text>
  </g>
  <g id="ID000053">
    <text class="cls-3" transform="translate(310.9 236.94)">U</text>
  </g>
  <g id="ID000054">
    <text class="cls-11" transform="translate(321.56 236.64)">A</text>
  </g>
  <g id="ID000055">
    <text class="cls-1" transform="translate(332.08 236.64)">U</text>
  </g>
  <g id="ID000056">
    <text class="cls-1" transform="translate(342.9 236.64)">C</text>
  </g>
  <g id="ID000057">
    <text class="cls-1" transform="translate(354.06 236.64)">U</text>
  </g>
  <g id="ID000058">
    <text class="cls-11" transform="translate(365.19 236.79)">A</text>
  </g>
  <g id="ID000059">
    <text class="cls-1" transform="translate(375.84 237.23)">U</text>
  </g>
  <g id="ID000060">
    <line class="cls-5" x1="380.24" y1="223.64" x2="380.24" y2="215.64"/>
  </g>
  <g id="ID000061">
    <text class="cls-1" transform="translate(373.39 212.64)">50</text>
  </g>
  <g id="ID000062">
    <text class="cls-1" transform="translate(385.98 237.38)">G</text>
  </g>
  <g id="ID000063">
    <line class="cls-5" x1="141.41" y1="231.24" x2="155.81" y2="231.24"/>
  </g>
  <g id="ID000064">
    <line class="cls-5" x1="141.41" y1="219.24" x2="155.81" y2="219.24"/>
  </g>
  <g id="ID000065">
    <line class="cls-5" x1="141.41" y1="207.24" x2="155.81" y2="207.24"/>
  </g>
  <g id="ID000066">
    <line class="cls-5" x1="141.41" y1="195.23" x2="155.81" y2="195.23"/>
  </g>
  <g id="ID000067">
    <polygon class="cls-12" points="151.01 183.23 151 183.08 150.99 182.93 150.97 182.78 150.93 182.63 150.89 182.48 150.84 182.34 150.78 182.2 150.71 182.06 150.63 181.93 150.54 181.81 150.45 181.69 150.34 181.57 150.24 181.47 150.12 181.37 150 181.28 149.87 181.19 149.74 181.12 149.6 181.05 149.46 180.99 149.32 180.94 149.17 180.9 149.02 180.87 148.87 180.84 148.72 180.83 148.57 180.83 148.42 180.84 148.27 180.85 148.12 180.88 147.97 180.92 147.82 180.96 147.68 181.02 147.54 181.08 147.41 181.15 147.28 181.23 147.15 181.32 147.03 181.42 146.92 181.52 146.82 181.63 146.72 181.75 146.63 181.87 146.55 182 146.47 182.13 146.41 182.27 146.35 182.41 146.3 182.56 146.27 182.7 146.24 182.85 146.22 183 146.21 183.16 146.21 183.31 146.22 183.46 146.24 183.61 146.27 183.76 146.3 183.91 146.35 184.05 146.41 184.19 146.47 184.33 146.55 184.46 146.63 184.59 146.72 184.72 146.82 184.83 146.92 184.94 147.03 185.05 147.15 185.14 147.28 185.23 147.41 185.31 147.54 185.38 147.68 185.44 147.82 185.5 147.97 185.54 148.12 185.58 148.27 185.61 148.42 185.62 148.57 185.63 148.72 185.63 148.87 185.62 149.02 185.59 149.17 185.56 149.32 185.52 149.46 185.47 149.6 185.41 149.74 185.35 149.87 185.27 150 185.19 150.12 185.09 150.24 184.99 150.34 184.89 150.45 184.77 150.54 184.65 150.63 184.53 150.71 184.4 150.78 184.26 150.84 184.12 150.89 183.98 150.93 183.83 150.97 183.69 150.99 183.53 151 183.38 151.01 183.23"/>
  </g>
  <text class="cls-13" transform="translate(7.12 258.59)">5<tspan class="cls-14" x="6.67" y="0">’</tspan></text>
  <text class="cls-13" transform="translate(386.64 258.59)">3<tspan class="cls-14" x="6.67" y="0">’</tspan></text>
  <text class="cls-15" transform="translate(11.61 26.3)">Major variant aptamer</text>
  <g id="ID000066-2" data-name="ID000066">
    <line class="cls-5" x1="141.41" y1="171.23" x2="155.81" y2="171.23"/>
  </g>
  <g id="ID000033-2" data-name="ID000033">
    <text class="cls-7" transform="translate(132.05 163.49)">G</text>
  </g>
  <g id="ID000066-3" data-name="ID000066">
    <line class="cls-5" x1="141.56" y1="158.22" x2="155.96" y2="158.22"/>
  </g>
</svg>
