<?xml version="1.0" encoding="utf-8"?>
<!-- Generator: Adobe Illustrator 25.2.0, SVG Export Plug-In . SVG Version: 6.00 Build 0)  -->
<svg version="1.1" id="图层_1" xmlns="http://www.w3.org/2000/svg" xmlns:xlink="http://www.w3.org/1999/xlink" x="0px" y="0px"
	 viewBox="0 0 800 400" style="enable-background:new 0 0 800 400;" xml:space="preserve">
<style type="text/css">
	.st0{font-family:'MicrosoftYaHei';}
	.st1{font-size:20px;}
	.st2{fill:#FF8001;}
	.st3{font-size:15.4653px;}
	.st4{fill:none;stroke:#000000;stroke-width:0.25;stroke-miterlimit:10;}
	.st5{fill:#99CCFF;}
	.st6{fill:#FF99CC;}
	.st7{fill:#99CCFF;stroke:#000000;stroke-width:0.25;stroke-miterlimit:10;}
	.st8{fill:#FF99CC;stroke:#000000;stroke-width:0.25;stroke-miterlimit:10;}
	.st9{font-family:'ArialMT';}
	.st10{font-size:15px;}
</style>
<text transform="matrix(1 0 0 1 22.8421 31.61)" class="st0 st1">T705 aptamer</text>
<text transform="matrix(1 0 0 1 349.219 34.03)" class="st2 st0 st3">C</text>
<line class="st4" x1="363.5" y1="382.2" x2="384.2" y2="382.2"/>
<text transform="matrix(1 0 0 1 387.0037 376.9465)" class="st5 st0 st3">C</text>
<text transform="matrix(1 0 0 1 397.1189 281.5374)" class="st6 st0 st3">C</text>
<text transform="matrix(1 0 0 1 386.7693 276.4993)" class="st6 st0 st3">C</text>
<text transform="matrix(1 0 0 1 386.0759 237.8167)" class="st6 st0 st3">C</text>
<text transform="matrix(1 0 0 1 385.7341 209.6584)" class="st6 st0 st3">C</text>
<text transform="matrix(1 0 0 1 387.759 34.03)" class="st2 st0 st3">C</text>
<text transform="matrix(1 0 0 1 360.675 22.1365)" class="st2 st0 st3">C</text>
<g>
	<text transform="matrix(1 0 0 1 353.2903 73.8728)" class="st2 st0 st3">C</text>
</g>
<text transform="matrix(1 0 0 1 330.6394 110.6467)" class="st2 st0 st3">C</text>
<text transform="matrix(1 0 0 1 329.8875 124.9016)" class="st2 st0 st3">C</text>
<text transform="matrix(1 0 0 1 350.1375 136.7932)" class="st6 st0 st3">C</text>
<text transform="matrix(1 0 0 1 350.1472 149.4377)" class="st6 st0 st3">C</text>
<text transform="matrix(1 0 0 1 349.7957 276.304)" class="st6 st0 st3">C</text>
<text transform="matrix(1 0 0 1 339.4363 281.5374)" class="st6 st0 st3">C</text>
<text transform="matrix(1 0 0 1 349.2195 326.4397)" class="st5 st0 st3">C</text>
<text transform="matrix(1 0 0 1 339.4363 333.1965)" class="st5 st0 st3">C</text>
<text transform="matrix(1 0 0 1 347.8718 388.8381)" class="st5 st0 st3">C</text>
<text transform="matrix(1 0 0 1 387.1013 389.0334)" class="st5 st0 st3">G</text>
<text transform="matrix(1 0 0 1 385.6365 327.1321)" class="st5 st0 st3">G</text>
<text transform="matrix(1 0 0 1 396.8455 294.4055)" class="st6 st0 st3">G</text>
<text transform="matrix(1 0 0 1 385.7341 250.9094)" class="st6 st0 st3">G</text>
<text transform="matrix(1 0 0 1 384.7087 148.178)" class="st6 st0 st3">G</text>
<text transform="matrix(1 0 0 1 384.7087 134.7434)" class="st6 st0 st3">G</text>
<g>
	<text transform="matrix(1 0 0 1 385.6467 73.8728)" class="st2 st0 st3">G</text>
</g>
<g>
	<text transform="matrix(1 0 0 1 352.0891 60.9558)" class="st2 st0 st3">G</text>
</g>
<text transform="matrix(1 0 0 1 348.9558 196.6633)" class="st6 st0 st3">G</text>
<text transform="matrix(1 0 0 1 348.9558 208.3694)" class="st6 st0 st3">G</text>
<text transform="matrix(1 0 0 1 349.7859 237.8167)" class="st6 st0 st3">G</text>
<text transform="matrix(1 0 0 1 339.4363 294.2102)" class="st6 st0 st3">G</text>
<text transform="matrix(1 0 0 1 347.8523 376.9465)" class="st5 st0 st3">G</text>
<text transform="matrix(1 0 0 1 419.8972 393.2893)" class="st5 st0 st3">U</text>
<text transform="matrix(1 0 0 1 408.6882 393.2893)" class="st5 st0 st3">U</text>
<text transform="matrix(1 0 0 1 386.6716 314.5481)" class="st5 st0 st3">U</text>
<text transform="matrix(1 0 0 1 386.4958 263.6409)" class="st6 st0 st3">U</text>
<text transform="matrix(1 0 0 1 385.7439 197.386)" class="st6 st0 st3">U</text>
<text transform="matrix(1 0 0 1 385.7439 185.0051)" class="st6 st0 st3">U</text>
<text transform="matrix(1 0 0 1 385.3923 172.7229)" class="st6 st0 st3">U</text>
<text transform="matrix(1 0 0 1 385.0505 160.636)" class="st6 st0 st3">U</text>
<text transform="matrix(1 0 0 1 388.0388 115.488)" class="st2 st0 st3">U</text>
<g>
	<text transform="matrix(1 0 0 1 385.6467 98.5164)" class="st2 st0 st3">U</text>
</g>
<g>
	<text transform="matrix(1 0 0 1 385.6467 60.9558)" class="st2 st0 st3">U</text>
</g>
<g>
	<text transform="matrix(1 0 0 1 385.6467 49.0642)" class="st2 st0 st3">U</text>
</g>
<text transform="matrix(1 0 0 1 375.2087 22.5281)" class="st2 st0 st3">U</text>
<g>
	<text transform="matrix(1 0 0 1 353.2903 85.7947)" class="st2 st0 st3">U</text>
</g>
<g>
	<text transform="matrix(1 0 0 1 340.3904 100.8201)" class="st2 st0 st3">U</text>
</g>
<text transform="matrix(1 0 0 1 340.3826 130.1936)" class="st2 st0 st3">U</text>
<text transform="matrix(1 0 0 1 349.7859 251.0168)" class="st6 st0 st3">U</text>
<text transform="matrix(1 0 0 1 349.1892 301.7776)" class="st5 st0 st3">U</text>
<text transform="matrix(1 0 0 1 348.6042 353.3479)" class="st5 st0 st3">U</text>
<text transform="matrix(1 0 0 1 348.6238 365.054)" class="st5 st0 st3">U</text>
<text transform="matrix(1 0 0 1 397.4607 392.2649)" class="st5 st0 st3">A</text>
<text transform="matrix(1 0 0 1 387.1013 365.2493)" class="st5 st0 st3">A</text>
<text transform="matrix(1 0 0 1 386.6716 353.3479)" class="st5 st0 st3">A</text>
<text transform="matrix(1 0 0 1 392.2273 336.8958)" class="st5 st0 st3">A</text>
<g>
	<text transform="matrix(1 0 0 1 386.4958 301.7776)" class="st5 st0 st3">A</text>
</g>
<text transform="matrix(1 0 0 1 393.5251 221.5891)" class="st6 st0 st3">A</text>
<g>
	<text transform="matrix(1 0 0 1 386.4075 85.7947)" class="st2 st0 st3">A</text>
</g>
<g>
	<text transform="matrix(1 0 0 1 353.0168 48.0388)" class="st2 st0 st3">A</text>
</g>
<g>
	<text transform="matrix(1 0 0 1 353.1145 98.5164)" class="st2 st0 st3">A</text>
</g>
<text transform="matrix(1 0 0 1 350.5466 161.9153)" class="st6 st0 st3">A</text>
<text transform="matrix(1 0 0 1 350.5564 173.2698)" class="st6 st0 st3">A</text>
<text transform="matrix(1 0 0 1 350.1277 184.967)" class="st6 st0 st3">A</text>
<text transform="matrix(1 0 0 1 340.2166 216.6487)" class="st6 st0 st3">A</text>
<text transform="matrix(1 0 0 1 340.197 228.3459)" class="st6 st0 st3">A</text>
<text transform="matrix(1 0 0 1 349.991 263.6409)" class="st6 st0 st3">A</text>
<text transform="matrix(1 0 0 1 349.9714 314.5481)" class="st5 st0 st3">A</text>
<text transform="matrix(1 0 0 1 339.2703 344.9211)" class="st5 st0 st3">A</text>
<line class="st4" x1="363.5" y1="320.6" x2="384.2" y2="320.6"/>
<line class="st4" x1="363.5" y1="308.3" x2="384.2" y2="308.3"/>
<line class="st4" x1="363.5" y1="295.4" x2="384.2" y2="295.4"/>
<line class="st4" x1="363.5" y1="270.6" x2="384.2" y2="270.6"/>
<line class="st4" x1="363.5" y1="257.8" x2="384.2" y2="257.8"/>
<line class="st4" x1="363.5" y1="244.8" x2="384.2" y2="244.8"/>
<line class="st4" x1="363.5" y1="231.9" x2="384.2" y2="231.9"/>
<line class="st4" x1="363.5" y1="202.6" x2="384.2" y2="202.6"/>
<line class="st4" x1="363.5" y1="190.4" x2="384.2" y2="190.4"/>
<line class="st4" x1="363.5" y1="178.2" x2="384.2" y2="178.2"/>
<line class="st4" x1="363.5" y1="167.7" x2="384.2" y2="167.7"/>
<line class="st4" x1="363.5" y1="155.1" x2="384.2" y2="155.1"/>
<line class="st4" x1="363.5" y1="143.9" x2="384.2" y2="143.9"/>
<line class="st4" x1="363.5" y1="130.4" x2="384.2" y2="130.4"/>
<line class="st4" x1="364.8" y1="90.5" x2="385.6" y2="90.5"/>
<line class="st4" x1="364.8" y1="78.9" x2="385.6" y2="78.9"/>
<line class="st4" x1="364.8" y1="67.4" x2="385.6" y2="67.4"/>
<line class="st4" x1="364.8" y1="55.9" x2="385.6" y2="55.9"/>
<line class="st4" x1="364.8" y1="43.3" x2="385.6" y2="43.3"/>
<line class="st4" x1="363.5" y1="370.3" x2="384.2" y2="370.3"/>
<line class="st4" x1="363.5" y1="359.9" x2="384.2" y2="359.9"/>
<line class="st4" x1="363.5" y1="347.9" x2="384.2" y2="347.9"/>
<line class="st7" x1="396.3" y1="320.6" x2="417" y2="320.6"/>
<line class="st8" x1="397.3" y1="202.6" x2="418" y2="202.6"/>
<line class="st4" x1="329.8" y1="178.2" x2="350.5" y2="178.2"/>
<text transform="matrix(1 0 0 1 417.8367 326.4397)" class="st0 st3">60</text>
<text transform="matrix(1 0 0 1 418.0222 208.3596)" class="st0 st3">50</text>
<text transform="matrix(1 0 0 1 311.3171 185.0051)" class="st0 st3">20</text>
<text transform="matrix(1 0 0 1 328.7908 389.2297)" class="st9 st10">5’</text>
<text transform="matrix(1 0 0 1 439.5146 392.2649)" class="st9 st10">3’</text>
</svg>
