<svg id="图层_1" data-name="图层 1" xmlns="http://www.w3.org/2000/svg" viewBox="0 0 800 400">
  <defs>
    <style>
      .cls-1, .cls-10, .cls-11, .cls-12, .cls-13, .cls-14, .cls-2, .cls-3, .cls-5, .cls-9 {
        isolation: isolate;
        font-size: 16.24px;
      }

      .cls-1, .cls-2, .cls-6 {
        fill: #f39;
      }

      .cls-1, .cls-10, .cls-11, .cls-12, .cls-13, .cls-14, .cls-16, .cls-18, .cls-2, .cls-3, .cls-5, .cls-9 {
        font-family: ArialMT, Arial;
      }

      .cls-13, .cls-2, .cls-9 {
        letter-spacing: -0.06em;
      }

      .cls-3, .cls-9 {
        fill: #c3c;
      }

      .cls-4, .cls-8 {
        fill: none;
      }

      .cls-15, .cls-4, .cls-6, .cls-7, .cls-8 {
        stroke: #000;
        stroke-miterlimit: 1.11;
      }

      .cls-15, .cls-4, .cls-6, .cls-7 {
        stroke-width: 0.14px;
      }

      .cls-8 {
        stroke-width: 1.06px;
      }

      .cls-10, .cls-11 {
        fill: #3c0;
      }

      .cls-11, .cls-14 {
        letter-spacing: -0.06em;
      }

      .cls-12, .cls-13, .cls-14 {
        fill: #ff870a;
      }

      .cls-15 {
        fill: #fff;
      }

      .cls-16 {
        font-size: 20px;
      }

      .cls-17 {
        letter-spacing: -0.06em;
      }

      .cls-18 {
        font-size: 22px;
      }

      .cls-19 {
        letter-spacing: -0.11em;
      }

      .cls-20 {
        letter-spacing: -0.04em;
      }
    </style>
  </defs>
  <g id="ID000002">
    <text class="cls-1" transform="translate(370.51 362.08)">G</text>
  </g>
  <g id="ID000003">
    <text class="cls-1" transform="translate(370.51 343.83)">G</text>
  </g>
  <g id="ID000004">
    <text class="cls-1" transform="translate(370.51 325.57)">G</text>
  </g>
  <g id="ID000005">
    <text class="cls-2" transform="translate(371.41 307.32)">A</text>
  </g>
  <g id="ID000006">
    <text class="cls-1" transform="translate(370.51 289.06)">G</text>
  </g>
  <g id="ID000007">
    <text class="cls-3" transform="translate(370.96 270.81)">C</text>
  </g>
  <g id="ID000008">
    <text class="cls-3" transform="translate(370.96 252.55)">U</text>
  </g>
  <g id="ID000009">
    <text class="cls-3" transform="translate(407.02 270.81)">G</text>
  </g>
  <g id="ID000010">
    <text class="cls-1" transform="translate(407.47 289.06)">C</text>
  </g>
  <g id="ID000011">
    <line class="cls-4" x1="425.5" y1="281.62" x2="437.67" y2="281.62"/>
  </g>
  <g id="ID000012">
    <text class="cls-5" transform="translate(437.67 289.06)">30</text>
  </g>
  <g id="ID000013">
    <text class="cls-1" transform="translate(407.47 307.32)">U</text>
  </g>
  <g id="ID000014">
    <text class="cls-1" transform="translate(407.47 325.57)">C</text>
  </g>
  <g id="ID000015">
    <text class="cls-1" transform="translate(407.47 343.83)">C</text>
  </g>
  <g id="ID000016">
    <text class="cls-1" transform="translate(407.47 362.08)">C</text>
  </g>
  <g id="ID000017">
    <line class="cls-6" x1="384.13" y1="354.63" x2="406.03" y2="354.63"/>
  </g>
  <g id="ID000018">
    <line class="cls-6" x1="384.13" y1="336.38" x2="406.03" y2="336.38"/>
  </g>
  <g id="ID000019">
    <line class="cls-6" x1="384.13" y1="318.13" x2="406.03" y2="318.13"/>
  </g>
  <g id="ID000020">
    <line class="cls-6" x1="384.13" y1="299.87" x2="406.03" y2="299.87"/>
  </g>
  <g id="ID000021">
    <line class="cls-4" x1="384.13" y1="281.62" x2="406.03" y2="281.62"/>
  </g>
  <g id="ID000022">
    <line class="cls-4" x1="384.13" y1="263.36" x2="406.03" y2="263.36"/>
  </g>
  <g id="ID000023">
    <polyline class="cls-4" points="369.52 245.11 363.13 245.11 363.13 190.34 369.52 190.34"/>
  </g>
  <g id="ID000024">
    <polygon class="cls-7" points="363.13 226.12 363.37 226.12 363.6 226.09 363.82 226.06 364.05 226.01 364.27 225.94 364.49 225.86 364.7 225.77 364.91 225.66 365.11 225.54 365.3 225.41 365.48 225.27 365.65 225.11 365.81 224.95 365.97 224.77 366.11 224.59 366.24 224.4 366.35 224.2 366.45 223.99 366.54 223.78 366.62 223.56 366.68 223.33 366.73 223.11 366.76 222.88 366.78 222.65 366.78 222.41 366.77 222.18 366.75 221.95 366.71 221.72 366.65 221.5 366.58 221.28 366.5 221.06 366.4 220.85 366.3 220.65 366.17 220.45 366.04 220.26 365.89 220.08 365.74 219.91 365.57 219.75 365.39 219.6 365.2 219.47 365.01 219.34 364.81 219.23 364.6 219.13 364.38 219.04 364.16 218.97 363.94 218.91 363.71 218.87 363.48 218.84 363.25 218.82 363.02 218.82 362.79 218.84 362.56 218.87 362.33 218.91 362.11 218.97 361.88 219.04 361.67 219.13 361.46 219.23 361.26 219.34 361.06 219.47 360.88 219.6 360.7 219.75 360.53 219.91 360.37 220.08 360.23 220.26 360.09 220.45 359.97 220.65 359.86 220.85 359.77 221.06 359.68 221.28 359.61 221.5 359.56 221.72 359.52 221.95 359.49 222.18 359.48 222.41 359.49 222.65 359.5 222.88 359.54 223.11 359.58 223.33 359.65 223.56 359.72 223.78 359.81 223.99 359.92 224.2 360.03 224.4 360.16 224.59 360.3 224.77 360.45 224.95 360.61 225.11 360.79 225.27 360.97 225.41 361.16 225.54 361.36 225.66 361.56 225.77 361.78 225.86 361.99 225.94 362.22 226.01 362.44 226.06 362.67 226.09 362.9 226.12 363.13 226.12"/>
  </g>
  <g id="ID000025">
    <polygon class="cls-7" points="359.48 209.33 359.48 216.63 366.78 216.63 366.78 209.33 359.48 209.33"/>
  </g>
  <g id="ID000026">
    <line class="cls-8" x1="413.33" y1="215.9" x2="413.33" y2="256.06"/>
  </g>
  <g id="ID000027">
    <polygon class="cls-7" points="418.81 229.9 416.07 232.94 415.16 235.98 414.7 239.02 413.33 245.11 411.96 239.02 411.51 235.98 410.59 232.94 407.86 229.9 418.81 229.9"/>
  </g>
  <g id="ID000029">
    <text class="cls-3" transform="translate(370.96 234.3)">U</text>
  </g>
  <g id="ID000030">
    <text class="cls-3" transform="translate(370.51 216.05)">G</text>
  </g>
  <g id="ID000031">
    <text class="cls-9" transform="translate(371.41 197.79)">A</text>
  </g>
  <g id="ID000032">
    <line class="cls-4" x1="364.65" y1="190.34" x2="352.48" y2="190.34"/>
  </g>
  <g id="ID000033">
    <text class="cls-5" transform="translate(334.42 197.79)">10</text>
  </g>
  <g id="ID000034">
    <text class="cls-10" transform="translate(370.96 179.53)">U</text>
  </g>
  <g id="ID000035">
    <text class="cls-10" transform="translate(370.96 161.28)">C</text>
  </g>
  <g id="ID000036">
    <text class="cls-10" transform="translate(407.47 143.03)">C</text>
  </g>
  <g id="ID000037">
    <text class="cls-10" transform="translate(407.02 161.28)">G</text>
  </g>
  <g id="ID000038">
    <text class="cls-11" transform="translate(407.92 179.53)">A</text>
  </g>
  <g id="ID000039">
    <text class="cls-3" transform="translate(407.47 197.79)">U</text>
  </g>
  <g id="ID000040">
    <text class="cls-3" transform="translate(407.47 216.05)">C</text>
  </g>
  <g id="ID000041">
    <line class="cls-4" x1="384.13" y1="208.6" x2="406.03" y2="208.6"/>
  </g>
  <g id="ID000042">
    <line class="cls-4" x1="384.13" y1="190.34" x2="406.03" y2="190.34"/>
  </g>
  <g id="ID000043">
    <line class="cls-4" x1="384.13" y1="172.09" x2="406.03" y2="172.09"/>
  </g>
  <g id="ID000044">
    <line class="cls-8" x1="376.82" y1="146.53" x2="376.82" y2="106.37"/>
  </g>
  <g id="ID000045">
    <polygon class="cls-7" points="371.35 132.54 374.09 129.5 375 126.45 375.45 123.41 376.82 117.33 378.19 123.41 378.65 126.45 379.56 129.5 382.3 132.54 371.35 132.54"/>
  </g>
  <g id="ID000046">
    <line class="cls-4" x1="384.13" y1="153.84" x2="406.03" y2="153.84"/>
  </g>
  <g id="ID000047">
    <polyline class="cls-4" points="420.63 117.33 436.15 117.33 436.15 172.09 420.63 172.09"/>
  </g>
  <g id="ID000048">
    <polygon class="cls-7" points="436.15 136.31 435.92 136.32 435.69 136.34 435.46 136.38 435.23 136.43 435.01 136.49 434.79 136.57 434.58 136.67 434.38 136.77 434.18 136.89 433.99 137.02 433.8 137.16 433.63 137.32 433.47 137.49 433.32 137.66 433.18 137.84 433.05 138.04 432.93 138.24 432.83 138.45 432.74 138.66 432.67 138.88 432.6 139.1 432.56 139.33 432.52 139.56 432.5 139.79 432.5 140.02 432.51 140.25 432.54 140.48 432.58 140.71 432.63 140.94 432.7 141.16 432.78 141.37 432.88 141.58 432.99 141.79 433.11 141.98 433.25 142.17 433.39 142.35 433.55 142.52 433.72 142.68 433.89 142.83 434.08 142.97 434.28 143.09 434.48 143.21 434.69 143.31 434.9 143.39 435.12 143.47 435.35 143.52 435.57 143.57 435.8 143.6 436.04 143.61 436.27 143.61 436.5 143.6 436.73 143.57 436.95 143.52 437.18 143.47 437.4 143.39 437.62 143.31 437.82 143.21 438.03 143.09 438.22 142.97 438.41 142.83 438.58 142.68 438.75 142.52 438.91 142.35 439.06 142.17 439.19 141.98 439.31 141.79 439.42 141.58 439.52 141.37 439.6 141.16 439.67 140.94 439.72 140.71 439.76 140.48 439.79 140.25 439.8 140.02 439.8 139.79 439.78 139.56 439.75 139.33 439.7 139.1 439.64 138.88 439.56 138.66 439.47 138.45 439.37 138.24 439.25 138.04 439.13 137.84 438.98 137.66 438.83 137.49 438.67 137.32 438.5 137.16 438.32 137.02 438.12 136.89 437.93 136.77 437.72 136.67 437.51 136.57 437.29 136.49 437.07 136.43 436.84 136.38 436.61 136.34 436.38 136.32 436.15 136.31"/>
  </g>
  <g id="ID000049">
    <polygon class="cls-7" points="439.8 153.1 439.8 145.8 432.5 145.8 432.5 153.1 439.8 153.1"/>
  </g>
  <g id="ID000051">
    <text class="cls-10" transform="translate(370.96 106.52)">C</text>
  </g>
  <g id="ID000052">
    <text class="cls-12" transform="translate(370.96 88.26)">C</text>
  </g>
  <g id="ID000053">
    <text class="cls-12" transform="translate(370.51 70.01)">G</text>
  </g>
  <g id="ID000054">
    <text class="cls-12" transform="translate(361.38 51.76)">G</text>
  </g>
  <g id="ID000055">
    <text class="cls-13" transform="translate(375.97 28.94)">A</text>
  </g>
  <g id="ID000056">
    <text class="cls-14" transform="translate(407.92 28.94)">A</text>
  </g>
  <g id="ID000057">
    <text class="cls-14" transform="translate(417.05 51.76)">A</text>
  </g>
  <g id="ID000058">
    <text class="cls-12" transform="translate(407.47 70.01)">C</text>
  </g>
  <g id="ID000059">
    <line class="cls-4" x1="425.5" y1="62.56" x2="437.67" y2="62.56"/>
  </g>
  <g id="ID000060">
    <text class="cls-5" transform="translate(437.67 70.01)">20</text>
  </g>
  <g id="ID000061">
    <text class="cls-12" transform="translate(407.02 88.26)">G</text>
  </g>
  <g id="ID000062">
    <text class="cls-10" transform="translate(407.02 106.52)">G</text>
  </g>
  <g id="ID000063">
    <text class="cls-10" transform="translate(407.47 124.77)">U</text>
  </g>
  <g id="ID000064">
    <line class="cls-4" x1="384.13" y1="99.07" x2="406.03" y2="99.07"/>
  </g>
  <g id="ID000065">
    <line class="cls-4" x1="384.13" y1="80.82" x2="406.03" y2="80.82"/>
  </g>
  <g id="ID000066">
    <line class="cls-4" x1="384.13" y1="62.56" x2="406.03" y2="62.56"/>
  </g>
  <g id="ID000067">
    <line class="cls-4" x1="375" y1="44.31" x2="415.16" y2="44.31"/>
  </g>
  <g id="ID000068">
    <polygon class="cls-15" points="385.59 44.31 392.7 48.42 392.7 40.2 385.59 44.31"/>
  </g>
  <g id="ID000069">
    <polygon class="cls-15" points="403.48 40.66 396.17 40.66 396.17 47.96 403.48 47.96 403.48 40.66"/>
  </g>
  <g id="ID000070">
    <line class="cls-4" x1="388.69" y1="21.49" x2="406.03" y2="21.49"/>
  </g>
  <g id="ID000071">
    <polygon class="cls-7" points="388.96 25.14 396.26 25.14 396.26 17.84 388.96 17.84 388.96 25.14"/>
  </g>
  <g id="ID000072">
    <polygon class="cls-7" points="406.85 21.49 399.74 17.38 399.74 25.6 406.85 21.49"/>
  </g>
  <text class="cls-16" transform="translate(50.89 43.31)"><tspan xml:space="preserve"> aptamer RN</tspan><tspan class="cls-17" x="113.37" y="0">A</tspan><tspan x="125.61" y="0"> </tspan></text>
  <text class="cls-18" transform="translate(182.05 35.99) scale(0.58)"><tspan class="cls-19">T</tspan><tspan x="11" y="0">at</tspan></text>
  <text class="cls-16" transform="translate(352.48 377.06)">5<tspan class="cls-20" x="11.12" y="0">’</tspan></text>
  <text class="cls-16" transform="translate(418.78 377.3)">3<tspan class="cls-20" x="11.12" y="0">’</tspan></text>
</svg>
