<?xml version="1.0" encoding="utf-8"?>
<!-- Generator: Adobe Illustrator 25.2.0, SVG Export Plug-In . SVG Version: 6.00 Build 0)  -->
<svg version="1.1" id="图层_1" xmlns="http://www.w3.org/2000/svg" xmlns:xlink="http://www.w3.org/1999/xlink" x="0px" y="0px"
	 viewBox="0 0 800 400" style="enable-background:new 0 0 800 400;" xml:space="preserve">
<style type="text/css">
	.st0{fill:#FF870A;}
	.st1{font-family:'ArialMT';}
	.st2{font-size:19.0084px;}
	.st3{fill:#33CC33;}
	.st4{fill:none;stroke:#000000;stroke-width:0.2857;stroke-miterlimit:2.2857;}
	.st5{fill:#0A0BFF;}
	.st6{fill:#FF3399;}
	.st7{font-size:20px;}
	.st8{font-size:15px;}
</style>
<g id="ID000002">
	<g transform="translate(182.088,407.605)">
		<g transform="rotate(-0.0)">
			<text transform="matrix(1 0 0 1 102.0492 -68.7571)" class="st0 st1 st2">G</text>
		</g>
	</g>
</g>
<g id="ID000003">
	<g transform="translate(182.088,392.527)">
		<g transform="rotate(-0.0)">
			<text transform="matrix(1 0 0 1 102.0492 -72.7875)" class="st0 st1 st2">G</text>
		</g>
	</g>
</g>
<g id="ID000004">
	<g transform="translate(182.088,377.449)">
		<g transform="rotate(-0.0)">
			<text transform="matrix(1 0 0 1 102.0492 -76.815)" class="st0 st1 st2">G</text>
		</g>
	</g>
</g>
<g id="ID000005">
	<g transform="translate(182.088,362.371)">
		<g transform="rotate(-0.0)">
			<text transform="matrix(1 0 0 1 102.5775 -80.8444)" class="st0 st1 st2">C</text>
		</g>
	</g>
</g>
<g id="ID000006">
	<g transform="translate(170.780,343.523)">
		<g transform="rotate(-0.0)">
			<text transform="matrix(1 0 0 1 99.5564 -85.8831)" class="st3 st1 st2">C</text>
		</g>
	</g>
</g>
<g id="ID000007">
	<g>
		<g transform="translate(231.092,358.601)">
			<g transform="rotate(-0.0)">
				<text transform="matrix(1 0 0 1 115.6751 -81.8527)" class="st0 st1 st2">C</text>
			</g>
		</g>
	</g>
</g>
<g id="ID000008">
	<g transform="translate(212.245,362.371)">
		<g transform="rotate(-0.0)">
			<text transform="matrix(1 0 0 1 110.108 -80.8444)" class="st0 st1 st2">G</text>
		</g>
	</g>
</g>
<g id="ID000009">
	<g transform="translate(212.245,377.449)">
		<g transform="rotate(-0.0)">
			<text transform="matrix(1 0 0 1 111.6959 -76.815)" class="st0 st1 st2">T</text>
		</g>
	</g>
</g>
<g id="ID000010">
	<g transform="translate(212.245,392.527)">
		<g transform="rotate(-0.0)">
			<text transform="matrix(1 0 0 1 110.6373 -72.7875)" class="st0 st1 st2">C</text>
		</g>
	</g>
</g>
<g id="ID000011">
	<line class="st4" x1="342.6" y1="311.2" x2="355.2" y2="311.2"/>
</g>
<g id="ID000012">
	<g transform="translate(232.349,392.527)">
		<g transform="rotate(-0.0)">
			<text transform="matrix(1 0 0 1 122.8741 -72.7875)" class="st1 st2">90</text>
		</g>
	</g>
</g>
<g id="ID000013">
	<g transform="translate(212.245,407.605)">
		<g transform="rotate(-0.0)">
			<text transform="matrix(1 0 0 1 110.6373 -68.7571)" class="st0 st1 st2">C</text>
		</g>
	</g>
</g>
<g id="ID000014">
	<g>
		<g transform="translate(219.784,426.453)">
			<g transform="rotate(-0.0)">
				<text transform="matrix(1 0 0 1 112.1227 -63.7213)" class="st0 st1 st2">G</text>
			</g>
		</g>
	</g>
</g>
<g id="ID000015">
	<g>
		<g transform="translate(234.862,433.992)">
			<g transform="rotate(-0.0)">
				<text transform="matrix(1 0 0 1 117.2059 -61.7066)" class="st0 st1 st2">A</text>
			</g>
		</g>
	</g>
</g>
<g id="ID000016">
	<g>
		<g transform="translate(253.709,433.992)">
			<g transform="rotate(-0.0)">
				<text transform="matrix(1 0 0 1 121.1889 -61.7066)" class="st0 st1 st2">G</text>
			</g>
		</g>
	</g>
</g>
<g id="ID000017">
	<g>
		<g transform="translate(272.557,433.992)">
			<g transform="rotate(-0.0)">
				<text transform="matrix(1 0 0 1 127.2794 -61.7066)" class="st0 st1 st2">A</text>
			</g>
		</g>
	</g>
</g>
<g id="ID000018">
	<line class="st4" x1="299.1" y1="330.3" x2="322.2" y2="330.3"/>
</g>
<g id="ID000019">
	<line class="st4" x1="299.1" y1="311.2" x2="322.2" y2="311.2"/>
</g>
<g id="ID000020">
	<line class="st4" x1="299.1" y1="291.9" x2="322.2" y2="291.9"/>
</g>
<g id="ID000021">
	<line class="st4" x1="299.1" y1="272.9" x2="322.2" y2="272.9"/>
</g>
<g id="ID000025">
	<g transform="translate(170.780,324.676)">
		<g transform="rotate(-0.0)">
			<text transform="matrix(1 0 0 1 100.0818 -90.918)" class="st3 st1 st2">A</text>
		</g>
	</g>
</g>
<g id="ID000026">
	<g transform="translate(170.780,305.828)">
		<g transform="rotate(-0.0)">
			<text transform="matrix(1 0 0 1 99.0271 -95.9557)" class="st3 st1 st2">G</text>
		</g>
	</g>
</g>
<g id="ID000027">
	<g transform="translate(170.780,290.750)">
		<g transform="rotate(-0.0)">
			<text transform="matrix(1 0 0 1 99.0271 -99.9842)" class="st3 st1 st2">G</text>
		</g>
	</g>
</g>
<g id="ID000028">
	<g transform="translate(170.780,275.672)">
		<g transform="rotate(-0.0)">
			<text transform="matrix(1 0 0 1 99.5564 -104.0136)" class="st3 st1 st2">C</text>
		</g>
	</g>
</g>
<g id="ID000029">
	<g transform="translate(155.702,260.594)">
		<g transform="rotate(-0.0)">
			<text transform="matrix(1 0 0 1 96.0524 -108.043)" class="st3 st1 st2">A</text>
		</g>
	</g>
</g>
<g id="ID000030">
	<line class="st4" x1="249" y1="152.9" x2="240.1" y2="162"/>
</g>
<g id="ID000031">
	<g transform="translate(141.486,285.816)">
		<g transform="rotate(-0.0)">
			<text transform="matrix(1 0 0 1 77.4491 -101.3041)" class="st1 st2">10</text>
		</g>
	</g>
</g>
<g id="ID000032">
	<g transform="translate(227.323,268.133)">
		<g transform="rotate(-0.0)">
			<text transform="matrix(1 0 0 1 115.7253 -106.0293)" class="st3 st1 st2">T</text>
		</g>
	</g>
</g>
<g id="ID000033">
	<g transform="translate(216.014,271.902)">
		<g transform="rotate(-0.0)">
			<text transform="matrix(1 0 0 1 112.1691 -105.0219)" class="st3 st1 st2">A</text>
		</g>
	</g>
</g>
<g id="ID000034">
	<g transform="translate(200.936,275.672)">
		<g transform="rotate(-0.0)">
			<text transform="matrix(1 0 0 1 107.0869 -104.0136)" class="st3 st1 st2">G</text>
		</g>
	</g>
</g>
<g id="ID000035">
	<line class="st4" x1="315.5" y1="150.2" x2="315.5" y2="137.6"/>
</g>
<g id="ID000036">
	<g transform="translate(200.936,245.013)">
		<g transform="rotate(-0.0)">
			<text transform="matrix(1 0 0 1 103.9073 -112.2071)" class="st1 st2">70</text>
		</g>
	</g>
</g>
<g id="ID000037">
	<g transform="translate(200.936,290.750)">
		<g transform="rotate(-0.0)">
			<text transform="matrix(1 0 0 1 107.6143 -99.9842)" class="st3 st1 st2">C</text>
		</g>
	</g>
</g>
<g id="ID000038">
	<g transform="translate(200.936,305.828)">
		<g transform="rotate(-0.0)">
			<text transform="matrix(1 0 0 1 107.6143 -95.9557)" class="st3 st1 st2">C</text>
		</g>
	</g>
</g>
<g id="ID000039">
	<g transform="translate(216.014,313.367)">
		<g transform="rotate(-0.0)">
			<text transform="matrix(1 0 0 1 109.0573 -112.1263)" class="st3 st1 st2">A</text>
		</g>
	</g>
</g>
<g id="ID000040">
	<g transform="translate(231.092,313.367)">
		<g transform="rotate(-0.0)">
			<text transform="matrix(1 0 0 1 111.4211 -117.3324)" class="st3 st1 st2">A</text>
		</g>
	</g>
</g>
<g id="ID000041">
	<line class="st4" x1="284.9" y1="201.2" x2="307.8" y2="201.2"/>
</g>
<g id="ID000042">
	<line class="st4" x1="284.9" y1="182.2" x2="307.8" y2="182.2"/>
</g>
<g id="ID000043">
	<line class="st4" x1="284.9" y1="163.1" x2="307.8" y2="163.1"/>
</g>
<g id="ID000045">
	<g>
		<g transform="translate(148.163,245.516)">
			<g transform="rotate(-0.0)">
				<text transform="matrix(1 0 0 1 92.984 -112.0734)" class="st5 st1 st2">G</text>
			</g>
		</g>
	</g>
</g>
<g id="ID000046">
	<g>
		<g transform="translate(133.085,245.516)">
			<g transform="rotate(-0.0)">
				<text transform="matrix(1 0 0 1 89.4829 -112.0734)" class="st5 st1 st2">C</text>
			</g>
		</g>
	</g>
</g>
<g id="ID000047">
	<g transform="translate(118.007,260.594)">
		<g transform="rotate(-0.0)">
			<text transform="matrix(1 0 0 1 84.9251 -108.043)" class="st5 st1 st2">G</text>
		</g>
	</g>
</g>
<g id="ID000048">
	<g transform="translate(102.929,268.133)">
		<g transform="rotate(-0.0)">
			<text transform="matrix(1 0 0 1 81.9494 -106.0293)" class="st5 st1 st2">A</text>
		</g>
	</g>
</g>
<g id="ID000049">
	<g transform="translate(84.081,264.363)">
		<g transform="rotate(-0.0)">
			<text transform="matrix(1 0 0 1 75.8589 -107.0376)" class="st5 st1 st2">G</text>
		</g>
	</g>
</g>
<g id="ID000050">
	<g transform="translate(69.003,249.285)">
		<g transform="rotate(-0.0)">
			<text transform="matrix(1 0 0 1 72.8832 -111.066)" class="st5 st1 st2">A</text>
		</g>
	</g>
</g>
<g id="ID000051">
	<g transform="translate(69.003,230.438)">
		<g transform="rotate(-0.0)">
			<text transform="matrix(1 0 0 1 71.8295 -116.1028)" class="st5 st1 st2">G</text>
		</g>
	</g>
</g>
<g id="ID000052">
	<g transform="translate(72.772,211.590)">
		<g transform="rotate(-0.0)">
			<text transform="matrix(1 0 0 1 73.8896 -121.1386)" class="st5 st1 st2">A</text>
		</g>
	</g>
</g>
<g id="ID000053">
	<g transform="translate(84.081,204.051)">
		<g transform="rotate(-0.0)">
			<text transform="matrix(1 0 0 1 77.4468 -123.1533)" class="st5 st1 st2">T</text>
		</g>
	</g>
</g>
<g id="ID000054">
	<g transform="translate(102.929,200.281)">
		<g transform="rotate(-0.0)">
			<text transform="matrix(1 0 0 1 81.9494 -124.1607)" class="st5 st1 st2">A</text>
		</g>
	</g>
</g>
<g id="ID000055">
	<line class="st4" x1="191.3" y1="54.9" x2="191.3" y2="42"/>
</g>
<g id="ID000056">
	<g transform="translate(102.929,169.623)">
		<g transform="rotate(-0.0)">
			<text transform="matrix(1 0 0 1 77.718 -132.3542)" class="st1 st2">20</text>
		</g>
	</g>
</g>
<g id="ID000057">
	<g transform="translate(118.007,207.820)">
		<g transform="rotate(-0.0)">
			<text transform="matrix(1 0 0 1 85.9788 -122.1469)" class="st5 st1 st2">A</text>
		</g>
	</g>
</g>
<g id="ID000058">
	<g>
		<g transform="translate(133.085,215.359)">
			<g transform="rotate(-0.0)">
				<text transform="matrix(1 0 0 1 88.9536 -120.1312)" class="st5 st1 st2">G</text>
			</g>
		</g>
	</g>
</g>
<g id="ID000059">
	<g>
		<g transform="translate(148.163,215.359)">
			<g transform="rotate(-0.0)">
				<text transform="matrix(1 0 0 1 93.5113 -120.1312)" class="st5 st1 st2">C</text>
			</g>
		</g>
	</g>
</g>
<g id="ID000060">
	<g transform="translate(163.241,200.281)">
		<g transform="rotate(-0.0)">
			<text transform="matrix(1 0 0 1 98.0661 -124.1607)" class="st3 st1 st2">A</text>
		</g>
	</g>
</g>
<g id="ID000061">
	<g transform="translate(170.780,185.203)">
		<g transform="rotate(-0.0)">
			<text transform="matrix(1 0 0 1 99.0271 -128.1911)" class="st3 st1 st2">G</text>
		</g>
	</g>
</g>
<g id="ID000062">
	<g transform="translate(185.858,177.664)">
		<g transform="rotate(-0.0)">
			<text transform="matrix(1 0 0 1 104.1103 -130.2048)" class="st3 st1 st2">A</text>
		</g>
	</g>
</g>
<g id="ID000063">
	<g transform="translate(200.936,173.895)">
		<g transform="rotate(-0.0)">
			<text transform="matrix(1 0 0 1 108.1387 -131.2131)" class="st3 st1 st2">A</text>
		</g>
	</g>
</g>
<g id="ID000064">
	<line class="st4" x1="248.5" y1="117.2" x2="248.5" y2="94.3"/>
</g>
<g id="ID000065">
	<line class="st4" x1="229.5" y1="117.2" x2="229.5" y2="94.3"/>
</g>
<g id="ID000067">
	<g transform="translate(216.014,177.664)">
		<g transform="rotate(-0.0)">
			<text transform="matrix(1 0 0 1 111.1154 -130.2048)" class="st3 st1 st2">G</text>
		</g>
	</g>
</g>
<g id="ID000068">
	<g transform="translate(227.323,185.203)">
		<g transform="rotate(-0.0)">
			<text transform="matrix(1 0 0 1 115.1902 -128.1911)" class="st3 st1 st2">A</text>
		</g>
	</g>
</g>
<g id="ID000069">
	<g transform="translate(238.631,196.512)">
		<g transform="rotate(-0.0)">
			<text transform="matrix(1 0 0 1 118.2123 -125.168)" class="st3 st1 st2">A</text>
		</g>
	</g>
</g>
<g id="ID000070">
	<line class="st4" x1="363.2" y1="50" x2="363.2" y2="37.4"/>
</g>
<g id="ID000071">
	<g transform="translate(238.631,165.853)">
		<g transform="rotate(-0.0)">
			<text transform="matrix(1 0 0 1 113.9808 -133.3616)" class="st1 st2">30</text>
		</g>
	</g>
</g>
<g id="ID000072">
	<g transform="translate(249.940,211.590)">
		<g transform="rotate(-0.0)">
			<text transform="matrix(1 0 0 1 120.1806 -121.1386)" class="st3 st1 st2">G</text>
		</g>
	</g>
</g>
<g id="ID000073">
	<g transform="translate(265.018,211.590)">
		<g transform="rotate(-0.0)">
			<text transform="matrix(1 0 0 1 125.7989 -121.1386)" class="st6 st1 st2">T</text>
		</g>
	</g>
</g>
<g id="ID000074">
	<g transform="translate(280.096,211.590)">
		<g transform="rotate(-0.0)">
			<text transform="matrix(1 0 0 1 129.2932 -121.1386)" class="st6 st1 st2">A</text>
		</g>
	</g>
</g>
<g id="ID000075">
	<g transform="translate(295.174,211.590)">
		<g transform="rotate(-0.0)">
			<text transform="matrix(1 0 0 1 133.8558 -121.1386)" class="st6 st1 st2">T</text>
		</g>
	</g>
</g>
<g id="ID000076">
	<g transform="translate(310.252,211.590)">
		<g transform="rotate(-0.0)">
			<text transform="matrix(1 0 0 1 136.2983 -121.1386)" class="st6 st1 st2">G</text>
		</g>
	</g>
</g>
<g id="ID000077">
	<g transform="translate(325.330,211.590)">
		<g transform="rotate(-0.0)">
			<text transform="matrix(1 0 0 1 141.9156 -121.1386)" class="st6 st1 st2">T</text>
		</g>
	</g>
</g>
<g id="ID000078">
	<g transform="translate(340.408,211.590)">
		<g transform="rotate(-0.0)">
			<text transform="matrix(1 0 0 1 144.3581 -121.1386)" class="st6 st1 st2">G</text>
		</g>
	</g>
</g>
<g id="ID000079">
	<g transform="translate(355.486,211.590)">
		<g transform="rotate(-0.0)">
			<text transform="matrix(1 0 0 1 149.4393 -121.1386)" class="st6 st1 st2">A</text>
		</g>
	</g>
</g>
<g id="ID000080">
	<g transform="translate(370.565,200.281)">
		<g transform="rotate(-0.0)">
			<text transform="matrix(1 0 0 1 152.9443 -124.1607)" class="st6 st1 st2">C</text>
		</g>
	</g>
</g>
<g id="ID000081">
	<g transform="translate(385.643,192.742)">
		<g transform="rotate(-0.0)">
			<text transform="matrix(1 0 0 1 156.9737 -126.1754)" class="st6 st1 st2">C</text>
		</g>
	</g>
</g>
<g id="ID000082">
	<line class="st4" x1="549.5" y1="45.3" x2="549.5" y2="32.5"/>
</g>
<g id="ID000083">
	<g transform="translate(385.643,162.084)">
		<g transform="rotate(-0.0)">
			<text transform="matrix(1 0 0 1 153.2667 -134.3689)" class="st1 st2">40</text>
		</g>
	</g>
</g>
<g id="ID000084">
	<g transform="translate(389.412,249.285)">
		<g transform="rotate(-0.0)">
			<text transform="matrix(1 0 0 1 157.9811 -111.066)" class="st6 st1 st2">C</text>
		</g>
	</g>
</g>
<g id="ID000085">
	<g transform="translate(370.565,249.285)">
		<g transform="rotate(-0.0)">
			<text transform="matrix(1 0 0 1 154.0038 -111.066)" class="st6 st1 st2">T</text>
		</g>
	</g>
</g>
<g id="ID000086">
	<g transform="translate(355.486,241.746)">
		<g transform="rotate(-0.0)">
			<text transform="matrix(1 0 0 1 149.9745 -113.0807)" class="st6 st1 st2">T</text>
		</g>
	</g>
</g>
<g id="ID000087">
	<g transform="translate(340.408,241.746)">
		<g transform="rotate(-0.0)">
			<text transform="matrix(1 0 0 1 144.8864 -113.0807)" class="st6 st1 st2">C</text>
		</g>
	</g>
</g>
<g id="ID000088">
	<line class="st4" x1="492.3" y1="132.7" x2="492.3" y2="145.6"/>
</g>
<g id="ID000089">
	<g transform="translate(340.408,272.857)">
		<g transform="rotate(-0.0)">
			<text transform="matrix(1 0 0 1 141.1784 -104.7679)" class="st1 st2">60</text>
		</g>
	</g>
</g>
<g id="ID000090">
	<g transform="translate(325.330,241.746)">
		<g transform="rotate(-0.0)">
			<text transform="matrix(1 0 0 1 141.3814 -113.0807)" class="st6 st1 st2">A</text>
		</g>
	</g>
</g>
<g id="ID000091">
	<g transform="translate(310.252,241.746)">
		<g transform="rotate(-0.0)">
			<text transform="matrix(1 0 0 1 136.8276 -113.0807)" class="st6 st1 st2">C</text>
		</g>
	</g>
</g>
<g id="ID000092">
	<g transform="translate(295.174,241.746)">
		<g transform="rotate(-0.0)">
			<text transform="matrix(1 0 0 1 133.3226 -113.0807)" class="st6 st1 st2">A</text>
		</g>
	</g>
</g>
<g id="ID000093">
	<g transform="translate(280.096,241.746)">
		<g transform="rotate(-0.0)">
			<text transform="matrix(1 0 0 1 129.8273 -113.0807)" class="st6 st1 st2">T</text>
		</g>
	</g>
</g>
<g id="ID000094">
	<g transform="translate(265.018,241.746)">
		<g transform="rotate(-0.0)">
			<text transform="matrix(1 0 0 1 124.211 -113.0807)" class="st6 st1 st2">G</text>
		</g>
	</g>
</g>
<g id="ID000095">
	<g transform="translate(249.940,241.746)">
		<g transform="rotate(-0.0)">
			<text transform="matrix(1 0 0 1 120.7109 -113.0807)" class="st3 st1 st2">C</text>
		</g>
	</g>
</g>
<g id="ID000096">
	<g transform="translate(242.401,256.824)">
		<g transform="rotate(-0.0)">
			<text transform="matrix(1 0 0 1 118.1678 -109.0503)" class="st3 st1 st2">G</text>
		</g>
	</g>
</g>
<g id="ID000097">
	<line class="st4" x1="377.6" y1="89.5" x2="377.6" y2="112.5"/>
</g>
<g id="ID000098">
	<line class="st4" x1="396.7" y1="89.5" x2="396.7" y2="112.5"/>
</g>
<g id="ID000099">
	<line class="st4" x1="415.8" y1="89.5" x2="415.8" y2="112.5"/>
</g>
<g id="ID000100">
	<line class="st4" x1="434.8" y1="89.5" x2="434.8" y2="112.5"/>
</g>
<g id="ID000101">
	<line class="st4" x1="453.9" y1="89.5" x2="453.9" y2="112.5"/>
</g>
<g id="ID000102">
	<line class="st4" x1="473" y1="89.5" x2="473" y2="112.5"/>
</g>
<g id="ID000103">
	<line class="st4" x1="492.3" y1="89.5" x2="492.3" y2="112.5"/>
</g>
<g id="ID000104">
	<line class="st4" x1="511.3" y1="89.5" x2="511.3" y2="112.5"/>
</g>
<g id="ID000108">
	<g transform="translate(404.490,196.512)">
		<g transform="rotate(-0.0)">
			<text transform="matrix(1 0 0 1 162.5349 -125.168)" class="st6 st1 st2">A</text>
		</g>
	</g>
</g>
<g id="ID000109">
	<g transform="translate(423.338,207.820)">
		<g transform="rotate(-0.0)">
			<text transform="matrix(1 0 0 1 168.1049 -122.1469)" class="st6 st1 st2">T</text>
		</g>
	</g>
</g>
<g id="ID000110">
	<g transform="translate(438.416,207.820)">
		<g transform="rotate(-0.0)">
			<text transform="matrix(1 0 0 1 170.5474 -122.1469)" class="st6 st1 st2">G</text>
		</g>
	</g>
</g>
<g id="ID000111">
	<g transform="translate(453.494,207.820)">
		<g transform="rotate(-0.0)">
			<text transform="matrix(1 0 0 1 175.1071 -122.1469)" class="st6 st1 st2">C</text>
		</g>
	</g>
</g>
<g id="ID000112">
	<g transform="translate(468.572,207.820)">
		<g transform="rotate(-0.0)">
			<text transform="matrix(1 0 0 1 180.1951 -122.1469)" class="st6 st1 st2">T</text>
		</g>
	</g>
</g>
<g id="ID000113">
	<g transform="translate(483.650,207.820)">
		<g transform="rotate(-0.0)">
			<text transform="matrix(1 0 0 1 183.1649 -122.1469)" class="st6 st1 st2">C</text>
		</g>
	</g>
</g>
<g id="ID000114">
	<g transform="translate(502.498,200.281)">
		<g transform="rotate(-0.0)">
			<text transform="matrix(1 0 0 1 188.2017 -124.1607)" class="st6 st1 st2">C</text>
		</g>
	</g>
</g>
<g id="ID000115">
	<g transform="translate(517.576,215.359)">
		<g transform="rotate(-0.0)">
			<text transform="matrix(1 0 0 1 192.7556 -120.1312)" class="st6 st1 st2">A</text>
		</g>
	</g>
</g>
<g id="ID000116">
	<g transform="translate(517.576,234.207)">
		<g transform="rotate(-0.0)">
			<text transform="matrix(1 0 0 1 191.7018 -115.0955)" class="st6 st1 st2">G</text>
		</g>
	</g>
</g>
<g id="ID000117">
	<g transform="translate(498.728,241.746)">
		<g transform="rotate(-0.0)">
			<text transform="matrix(1 0 0 1 187.7188 -113.0807)" class="st6 st1 st2">A</text>
		</g>
	</g>
</g>
<g id="ID000118">
	<line class="st4" x1="692.7" y1="132.7" x2="692.7" y2="145.6"/>
</g>
<g id="ID000119">
	<g transform="translate(498.728,272.857)">
		<g transform="rotate(-0.0)">
			<text transform="matrix(1 0 0 1 183.4864 -104.7679)" class="st1 st2">50</text>
		</g>
	</g>
</g>
<g id="ID000120">
	<g transform="translate(483.650,237.977)">
		<g transform="rotate(-0.0)">
			<text transform="matrix(1 0 0 1 182.6366 -114.0871)" class="st6 st1 st2">G</text>
		</g>
	</g>
</g>
<g id="ID000121">
	<g transform="translate(468.572,237.977)">
		<g transform="rotate(-0.0)">
			<text transform="matrix(1 0 0 1 179.659 -114.0871)" class="st6 st1 st2">A</text>
		</g>
	</g>
</g>
<g id="ID000122">
	<g transform="translate(453.494,237.977)">
		<g transform="rotate(-0.0)">
			<text transform="matrix(1 0 0 1 174.5758 -114.0871)" class="st6 st1 st2">G</text>
		</g>
	</g>
</g>
<g id="ID000123">
	<g transform="translate(438.416,237.977)">
		<g transform="rotate(-0.0)">
			<text transform="matrix(1 0 0 1 171.0777 -114.0871)" class="st6 st1 st2">C</text>
		</g>
	</g>
</g>
<g id="ID000124">
	<g transform="translate(423.338,237.977)">
		<g transform="rotate(-0.0)">
			<text transform="matrix(1 0 0 1 167.5717 -114.0871)" class="st6 st1 st2">A</text>
		</g>
	</g>
</g>
<g id="ID000125">
	<g transform="translate(408.260,245.516)">
		<g transform="rotate(-0.0)">
			<text transform="matrix(1 0 0 1 163.5432 -112.0734)" class="st6 st1 st2">A</text>
		</g>
	</g>
</g>
<g id="ID000126">
	<line class="st4" x1="597.2" y1="84.8" x2="597.2" y2="107.7"/>
</g>
<g id="ID000127">
	<line class="st4" x1="616.4" y1="84.8" x2="616.4" y2="107.7"/>
</g>
<g id="ID000128">
	<line class="st4" x1="635.5" y1="84.8" x2="635.5" y2="107.7"/>
</g>
<g id="ID000129">
	<line class="st4" x1="654.6" y1="84.8" x2="654.6" y2="107.7"/>
</g>
<g id="ID000130">
	<line class="st4" x1="673.7" y1="84.8" x2="673.7" y2="107.7"/>
</g>
<g id="ID000132">
	<g transform="translate(242.401,320.906)">
		<g transform="rotate(-0.0)">
			<text transform="matrix(1 0 0 1 115.9709 -119.665)" class="st3 st1 st2">A</text>
		</g>
	</g>
</g>
<g id="ID000133">
	<g transform="translate(249.940,335.984)">
		<g transform="rotate(-0.0)">
			<text transform="matrix(1 0 0 1 113.8845 -114.2297)" class="st3 st1 st2">C</text>
		</g>
	</g>
</g>
<g id="ID000134">
	<g transform="translate(265.018,343.523)">
		<g transform="rotate(-0.0)">
			<text transform="matrix(1 0 0 1 100.293 -104.9906)" class="st0 st1 st2">C</text>
		</g>
	</g>
</g>
<g id="ID000135">
	<g transform="translate(280.096,343.523)">
		<g transform="rotate(-0.0)">
			<text transform="matrix(1 0 0 1 103.7951 -104.9906)" class="st0 st1 st2">G</text>
		</g>
	</g>
</g>
<g id="ID000136">
	<g>
		<g transform="translate(291.405,328.445)">
			<g transform="rotate(-0.0)">
				<text transform="matrix(1 0 0 1 107.8689 -109.019)" class="st0 st1 st2">A</text>
			</g>
		</g>
	</g>
</g>
<g id="ID000137">
	<g>
		<g transform="translate(310.252,328.445)">
			<g transform="rotate(-0.0)">
				<text transform="matrix(1 0 0 1 112.3813 -109.019)" class="st0 st1 st2">C</text>
			</g>
		</g>
	</g>
</g>
<g id="ID000138">
	<line class="st4" x1="429.4" y1="198.1" x2="429.4" y2="185.5"/>
</g>
<g id="ID000139">
	<g transform="translate(310.252,297.786)">
		<g transform="rotate(-0.0)">
			<text transform="matrix(1 0 0 1 108.6743 -117.2135)" class="st1 st2">80</text>
		</g>
	</g>
</g>
<g id="ID000140">
	<g>
		<g transform="translate(325.330,339.754)">
			<g transform="rotate(-0.0)">
				<text transform="matrix(1 0 0 1 116.4098 -105.9979)" class="st0 st1 st2">C</text>
			</g>
		</g>
	</g>
</g>
<g id="ID000141">
	<g>
		<g transform="translate(329.100,354.832)">
			<g transform="rotate(-0.0)">
				<text transform="matrix(1 0 0 1 117.9425 -101.9685)" class="st0 st1 st2">A</text>
			</g>
		</g>
	</g>
</g>
<g id="ID000142">
	<g>
		<g transform="translate(317.791,373.679)">
			<g transform="rotate(-0.0)">
				<text transform="matrix(1 0 0 1 114.396 -96.9297)" class="st0 st1 st2">C</text>
			</g>
		</g>
	</g>
</g>
<g id="ID000143">
	<g>
		<g transform="translate(298.944,377.449)">
			<g transform="rotate(-0.0)">
				<text transform="matrix(1 0 0 1 109.8846 -95.9224)" class="st0 st1 st2">A</text>
			</g>
		</g>
	</g>
</g>
<g id="ID000144">
	<g transform="translate(280.096,373.679)">
		<g transform="rotate(-0.0)">
			<text transform="matrix(1 0 0 1 104.3234 -96.9297)" class="st0 st1 st2">C</text>
		</g>
	</g>
</g>
<g id="ID000145">
	<g transform="translate(265.018,373.679)">
		<g transform="rotate(-0.0)">
			<text transform="matrix(1 0 0 1 99.7647 -96.9297)" class="st0 st1 st2">G</text>
		</g>
	</g>
</g>
<g id="ID000146">
	<line class="st4" x1="372.2" y1="237.6" x2="372.2" y2="260.4"/>
</g>
<g id="ID000147">
	<line class="st4" x1="391.3" y1="237.6" x2="391.3" y2="260.4"/>
</g>
<text transform="matrix(1 0 0 1 20.1025 35.6962)" class="st1 st7">A07 aptamer</text>
<text transform="matrix(1 0 0 1 264.4692 346.5002)" class="st1 st8">5’</text>
<text transform="matrix(1 0 0 1 429.4668 379.3148)" class="st1 st8">3’</text>
</svg>
