<?xml version="1.0" encoding="UTF-8"?>
<svg id="_图层_1" data-name=" 图层 1" xmlns="http://www.w3.org/2000/svg" viewBox="0 0 800 400">
  <defs>
    <style>
      .cls-1, .cls-2, .cls-3, .cls-4, .cls-5, .cls-6, .cls-7, .cls-8, .cls-9, .cls-10, .cls-11, .cls-12, .cls-13, .cls-14, .cls-15, .cls-16, .cls-17, .cls-18, .cls-19 {
        isolation: isolate;
      }

      .cls-1, .cls-2, .cls-3, .cls-4, .cls-5, .cls-6, .cls-7, .cls-8, .cls-9, .cls-10, .cls-11, .cls-13, .cls-14, .cls-15, .cls-16, .cls-17, .cls-18, .cls-19 {
        font-family: ArialMT, Arial;
      }

      .cls-1, .cls-2, .cls-6, .cls-8, .cls-9, .cls-11, .cls-13, .cls-16, .cls-17, .cls-18 {
        font-size: 32.06px;
      }

      .cls-2, .cls-11 {
        fill: #2ea103;
      }

      .cls-3 {
        font-size: 16px;
      }

      .cls-4, .cls-7 {
        font-size: 27.62px;
      }

      .cls-20 {
        letter-spacing: -.11em;
      }

      .cls-21 {
        fill: #fff;
      }

      .cls-21, .cls-22, .cls-23 {
        stroke-width: 1.2px;
      }

      .cls-21, .cls-22, .cls-23, .cls-24 {
        stroke: #000;
        stroke-miterlimit: 9.61;
      }

      .cls-5 {
        letter-spacing: -.08em;
      }

      .cls-5, .cls-15 {
        font-size: 28.16px;
      }

      .cls-6, .cls-18 {
        fill: #f17d07;
      }

      .cls-7 {
        letter-spacing: -.08em;
      }

      .cls-8, .cls-17 {
        fill: #b83233;
      }

      .cls-9, .cls-10, .cls-13 {
        fill: #084595;
      }

      .cls-10, .cls-14, .cls-19 {
        font-size: 32.69px;
      }

      .cls-10, .cls-19 {
        letter-spacing: -.12em;
      }

      .cls-11, .cls-13, .cls-17, .cls-18 {
        letter-spacing: -.12em;
      }

      .cls-23, .cls-24 {
        fill: none;
      }

      .cls-14, .cls-16, .cls-19 {
        fill: #999;
      }
    </style>
  </defs>
  <g id="topgroup">
    <g id="ID000000">
      <g>
        <g id="ID000002">
          <g class="cls-12">
            <text class="cls-8" transform="translate(125.58 193.43) scale(1.07 1)"><tspan x="0" y="0">C</tspan></text>
          </g>
        </g>
        <g id="ID000003">
          <g class="cls-12">
            <text class="cls-8" transform="translate(158.46 193.43) scale(1.07 1)"><tspan x="0" y="0">G</tspan></text>
          </g>
        </g>
        <g id="ID000004">
          <g class="cls-12">
            <text class="cls-8" transform="translate(192.28 193.43) scale(1.07 1)"><tspan x="0" y="0">G</tspan></text>
          </g>
        </g>
        <g id="ID000005">
          <g class="cls-12">
            <text class="cls-17" transform="translate(228.01 193.43) scale(1.07 1)"><tspan x="0" y="0">A</tspan></text>
          </g>
        </g>
        <g id="ID000006">
          <g class="cls-12">
            <text class="cls-6" transform="translate(251.47 169.76) scale(1.07 1)"><tspan x="0" y="0">G</tspan></text>
          </g>
        </g>
        <g id="ID000007">
          <g class="cls-12">
            <text class="cls-17" transform="translate(278.75 193.43) scale(1.07 1)"><tspan x="0" y="0">A</tspan></text>
          </g>
        </g>
        <g id="ID000008">
          <g class="cls-12">
            <text class="cls-17" transform="translate(312.57 193.43) scale(1.07 1)"><tspan x="0" y="0">A</tspan></text>
          </g>
        </g>
        <g id="ID000009">
          <line class="cls-23" x1="324.03" y1="158.18" x2="324.03" y2="137.14"/>
        </g>
        <g id="ID000010">
          <g class="cls-12">
            <text class="cls-1" transform="translate(304.92 129.25) scale(1.07 1)"><tspan x="0" y="0">10</tspan></text>
          </g>
        </g>
        <g id="ID000011">
          <g class="cls-12">
            <text class="cls-8" transform="translate(345.45 193.43) scale(1.07 1)"><tspan x="0" y="0">U</tspan></text>
          </g>
        </g>
        <g id="ID000012">
          <g class="cls-12">
            <text class="cls-6" transform="translate(378.32 193.43) scale(1.07 1)"><tspan x="0" y="0">G</tspan></text>
          </g>
        </g>
        <g id="ID000013">
          <g class="cls-12">
            <text class="cls-17" transform="translate(329.48 256.55) scale(1.07 1)"><tspan x="0" y="0">A</tspan></text>
          </g>
        </g>
        <g id="ID000014">
          <g class="cls-12">
            <text class="cls-17" transform="translate(295.66 256.55) scale(1.07 1)"><tspan x="0" y="0">A</tspan></text>
          </g>
        </g>
        <g id="ID000015">
          <g class="cls-12">
            <text class="cls-17" transform="translate(261.83 256.55) scale(1.07 1)"><tspan x="0" y="0">A</tspan></text>
          </g>
        </g>
        <g id="ID000016">
          <g class="cls-12">
            <text class="cls-17" transform="translate(228.01 256.55) scale(1.07 1)"><tspan x="0" y="0">A</tspan></text>
          </g>
        </g>
        <g id="ID000017">
          <g class="cls-12">
            <text class="cls-8" transform="translate(193.23 256.55) scale(1.07 1)"><tspan x="0" y="0">C</tspan></text>
          </g>
        </g>
        <g id="ID000018">
          <g class="cls-12">
            <text class="cls-8" transform="translate(159.41 256.55) scale(1.07 1)"><tspan x="0" y="0">C</tspan></text>
          </g>
        </g>
        <g id="ID000019">
          <g class="cls-12">
            <text class="cls-8" transform="translate(124.63 256.55) scale(1.07 1)"><tspan x="0" y="0">G</tspan></text>
          </g>
        </g>
        <g id="ID000020">
          <line class="cls-23" x1="137.99" y1="263.39" x2="137.99" y2="284.43"/>
        </g>
        <g id="ID000021">
          <g class="cls-12">
            <text class="cls-1" transform="translate(118.88 321.67) scale(1.07 1)"><tspan x="0" y="0">40</tspan></text>
          </g>
        </g>
        <g id="ID000022">
          <g class="cls-12">
            <text class="cls-8" transform="translate(90.8 256.55) scale(1.07 1)"><tspan x="0" y="0">G</tspan></text>
          </g>
        </g>
        <g id="ID000023">
          <line class="cls-23" x1="131.94" y1="190.52" x2="110.22" y2="231.06"/>
        </g>
        <g id="ID000024">
          <polygon class="cls-22" points="118.05 216.43 118.44 216.6 118.84 216.75 119.25 216.87 119.67 216.96 120.09 217.03 120.52 217.08 120.95 217.1 121.38 217.09 121.81 217.06 122.23 217.01 122.65 216.93 123.06 216.82 123.47 216.69 123.87 216.54 124.25 216.36 124.63 216.16 124.98 215.94 125.33 215.7 125.65 215.44 125.96 215.16 126.25 214.86 126.51 214.55 126.76 214.22 126.98 213.88 127.18 213.52 127.35 213.15 127.5 212.78 127.62 212.39 127.72 212 127.79 211.61 127.83 211.21 127.84 210.81 127.83 210.41 127.79 210.01 127.73 209.61 127.63 209.22 127.51 208.84 127.37 208.46 127.2 208.09 127 207.74 126.78 207.39 126.54 207.06 126.28 206.75 125.99 206.45 125.69 206.16 125.36 205.9 125.02 205.66 124.67 205.44 124.3 205.23 123.91 205.05 123.52 204.9 123.11 204.77 122.7 204.66 122.28 204.58 121.85 204.52 121.43 204.48 121 204.48 120.57 204.49 120.14 204.54 119.72 204.6 119.3 204.7 118.89 204.82 118.49 204.96 118.1 205.12 117.72 205.31 117.35 205.52 117 205.75 116.67 206 116.35 206.27 116.05 206.56 115.78 206.87 115.52 207.19 115.29 207.53 115.08 207.87 114.89 208.24 114.73 208.61 114.6 208.99 114.49 209.38 114.4 209.77 114.35 210.17 114.32 210.56 114.32 210.96 114.34 211.36 114.4 211.76 114.48 212.16 114.58 212.54 114.71 212.92 114.87 213.3 115.06 213.66 115.26 214.01 115.49 214.35 115.75 214.67 116.02 214.98 116.32 215.27 116.63 215.54 116.96 215.8 117.31 216.03 117.68 216.24 118.05 216.43"/>
        </g>
        <g id="ID000025">
          <line class="cls-23" x1="171.82" y1="191.85" x2="171.82" y2="229.72"/>
        </g>
        <g id="ID000026">
          <line class="cls-23" x1="205.64" y1="191.85" x2="205.64" y2="229.72"/>
        </g>
        <g id="ID000027">
          <line class="cls-23" x1="239.47" y1="191.85" x2="239.47" y2="229.72"/>
        </g>
        <g id="ID000028">
          <polygon class="cls-21" points="239.47 217.1 239.9 217.09 240.32 217.05 240.75 216.99 241.17 216.9 241.58 216.78 241.98 216.65 242.37 216.49 242.76 216.3 243.12 216.1 243.48 215.87 243.82 215.62 244.13 215.36 244.44 215.07 244.72 214.77 244.98 214.45 245.22 214.12 245.43 213.77 245.62 213.41 245.79 213.04 245.93 212.66 246.04 212.28 246.13 211.88 246.19 211.49 246.22 211.09 246.23 210.69 246.21 210.29 246.16 209.89 246.09 209.49 245.99 209.11 245.86 208.72 245.71 208.35 245.53 207.98 245.33 207.63 245.1 207.29 244.85 206.96 244.58 206.65 244.29 206.36 243.98 206.08 243.65 205.83 243.3 205.59 242.94 205.37 242.57 205.18 242.18 205 241.78 204.86 241.37 204.73 240.96 204.63 240.54 204.55 240.11 204.5 239.68 204.48 239.25 204.48 238.82 204.5 238.4 204.55 237.98 204.63 237.56 204.73 237.15 204.86 236.75 205 236.37 205.18 235.99 205.37 235.63 205.59 235.28 205.83 234.96 206.08 234.65 206.36 234.35 206.65 234.08 206.96 233.83 207.29 233.61 207.63 233.4 207.98 233.23 208.35 233.07 208.72 232.95 209.11 232.85 209.49 232.77 209.89 232.72 210.29 232.7 210.69 232.71 211.09 232.74 211.49 232.8 211.88 232.89 212.28 233.01 212.66 233.15 213.04 233.31 213.41 233.5 213.77 233.72 214.12 233.96 214.45 234.22 214.77 234.5 215.07 234.8 215.36 235.12 215.62 235.46 215.87 235.81 216.1 236.18 216.3 236.56 216.49 236.95 216.65 237.36 216.78 237.77 216.9 238.19 216.99 238.61 217.05 239.04 217.09 239.47 217.1"/>
        </g>
        <g id="ID000029">
          <line class="cls-23" x1="286.92" y1="191.47" x2="276.57" y2="230.1"/>
        </g>
        <g id="ID000030">
          <polygon class="cls-21" points="285.52 196.7 285.1 196.62 284.68 196.56 284.25 196.52 283.82 196.51 283.39 196.53 282.96 196.57 282.54 196.64 282.12 196.73 281.71 196.85 281.31 196.99 280.92 197.15 280.54 197.34 280.17 197.55 279.82 197.78 279.49 198.03 279.17 198.3 278.87 198.58 278.59 198.89 278.34 199.21 278.1 199.55 277.89 199.89 277.7 200.25 277.54 200.63 277.4 201.01 277.29 201.39 277.21 201.78 277.15 202.18 277.12 202.58 277.12 202.98 277.14 203.38 277.19 203.78 277.27 204.17 277.38 204.56 277.51 204.94 277.66 205.32 277.85 205.68 278.05 206.03 278.28 206.37 278.53 206.69 278.81 207 279.1 207.29 279.42 207.57 279.75 207.82 280.09 208.06 280.46 208.27 280.83 208.46 281.22 208.63 281.62 208.78 282.03 208.9 282.45 209 282.87 209.07 283.3 209.12 283.73 209.14 284.16 209.13 284.58 209.1 285.01 209.05 285.43 208.97 285.84 208.87 286.25 208.74 286.65 208.59 287.03 208.41 287.41 208.21 287.77 207.99 288.11 207.75 288.44 207.49 288.74 207.21 289.03 206.92 289.3 206.6 289.55 206.28 289.77 205.93 289.97 205.58 290.14 205.21 290.29 204.84 290.42 204.45 290.51 204.06 290.59 203.67 290.63 203.27 290.65 202.87 290.63 202.47 290.6 202.07 290.53 201.67 290.44 201.28 290.32 200.9 290.18 200.52 290.01 200.15 289.82 199.8 289.6 199.45 289.36 199.12 289.09 198.8 288.81 198.5 288.51 198.22 288.18 197.95 287.84 197.71 287.49 197.49 287.12 197.28 286.73 197.1 286.34 196.95 285.94 196.81 285.52 196.7"/>
        </g>
        <g id="ID000031">
          <polygon class="cls-21" points="284.54 226.4 287.82 214.16 274.69 211.09 271.41 223.34 284.54 226.4"/>
        </g>
        <g id="ID000032">
          <line class="cls-23" x1="320.75" y1="191.47" x2="310.4" y2="230.1"/>
        </g>
        <g id="ID000033">
          <polygon class="cls-21" points="319.35 196.7 318.93 196.62 318.5 196.56 318.07 196.52 317.65 196.51 317.22 196.53 316.79 196.57 316.37 196.64 315.95 196.73 315.54 196.85 315.14 196.99 314.74 197.15 314.36 197.34 314 197.55 313.65 197.78 313.31 198.03 312.99 198.3 312.7 198.58 312.42 198.89 312.16 199.21 311.93 199.55 311.72 199.89 311.53 200.25 311.37 200.63 311.23 201.01 311.12 201.39 311.03 201.78 310.98 202.18 310.95 202.58 310.94 202.98 310.97 203.38 311.02 203.78 311.1 204.17 311.2 204.56 311.33 204.94 311.49 205.32 311.67 205.68 311.88 206.03 312.11 206.37 312.36 206.69 312.63 207 312.93 207.29 313.24 207.57 313.57 207.82 313.92 208.06 314.28 208.27 314.66 208.46 315.05 208.63 315.45 208.78 315.86 208.9 316.27 209 316.7 209.07 317.12 209.12 317.55 209.14 317.98 209.13 318.41 209.1 318.83 209.05 319.25 208.97 319.67 208.87 320.08 208.74 320.47 208.59 320.86 208.41 321.23 208.21 321.59 207.99 321.93 207.75 322.26 207.49 322.57 207.21 322.86 206.92 323.13 206.6 323.37 206.28 323.59 205.93 323.79 205.58 323.97 205.21 324.12 204.84 324.24 204.45 324.34 204.06 324.41 203.67 324.45 203.27 324.47 202.87 324.46 202.47 324.42 202.07 324.36 201.67 324.27 201.28 324.15 200.9 324 200.52 323.83 200.15 323.64 199.8 323.42 199.45 323.18 199.12 322.92 198.8 322.63 198.5 322.33 198.22 322.01 197.95 321.67 197.71 321.31 197.49 320.94 197.28 320.56 197.1 320.16 196.95 319.76 196.81 319.35 196.7"/>
        </g>
        <g id="ID000034">
          <polygon class="cls-21" points="318.36 226.4 321.64 214.16 308.52 211.09 305.24 223.34 318.36 226.4"/>
        </g>
        <g id="ID000035">
          <line class="cls-23" x1="354.57" y1="191.47" x2="344.22" y2="230.1"/>
        </g>
        <g id="ID000036">
          <polygon class="cls-21" points="353.17 196.7 352.75 196.62 352.33 196.56 351.9 196.52 351.47 196.51 351.04 196.53 350.61 196.57 350.19 196.64 349.77 196.73 349.36 196.85 348.96 196.99 348.57 197.15 348.19 197.34 347.82 197.55 347.47 197.78 347.14 198.03 346.82 198.3 346.52 198.58 346.24 198.89 345.98 199.21 345.75 199.55 345.54 199.89 345.35 200.25 345.19 200.63 345.05 201.01 344.94 201.39 344.86 201.78 344.8 202.18 344.77 202.58 344.77 202.98 344.79 203.38 344.84 203.78 344.92 204.17 345.03 204.56 345.16 204.94 345.31 205.32 345.5 205.68 345.7 206.03 345.93 206.37 346.18 206.69 346.46 207 346.75 207.29 347.07 207.57 347.4 207.82 347.74 208.06 348.11 208.27 348.48 208.46 348.87 208.63 349.27 208.78 349.68 208.9 350.1 209 350.52 209.07 350.95 209.12 351.38 209.14 351.81 209.13 352.23 209.1 352.66 209.05 353.08 208.97 353.49 208.87 353.9 208.74 354.3 208.59 354.68 208.41 355.06 208.21 355.42 207.99 355.76 207.75 356.09 207.49 356.39 207.21 356.68 206.92 356.95 206.6 357.2 206.28 357.42 205.93 357.62 205.58 357.79 205.21 357.94 204.84 358.07 204.45 358.16 204.06 358.24 203.67 358.28 203.27 358.3 202.87 358.28 202.47 358.25 202.07 358.18 201.67 358.09 201.28 357.97 200.9 357.83 200.52 357.66 200.15 357.47 199.8 357.25 199.45 357.01 199.12 356.74 198.8 356.46 198.5 356.15 198.22 355.83 197.95 355.49 197.71 355.14 197.49 354.77 197.28 354.38 197.1 353.99 196.95 353.58 196.81 353.17 196.7"/>
        </g>
        <g id="ID000037">
          <polygon class="cls-21" points="352.19 226.4 355.47 214.16 342.34 211.09 339.06 223.34 352.19 226.4"/>
        </g>
        <g id="ID000038">
          <line class="cls-23" x1="402.5" y1="186.8" x2="516.15" y2="266.34"/>
        </g>
        <g id="ID000039">
          <polygon class="cls-21" points="466.36 231.49 460.38 218.43 451.25 229.79 466.36 231.49"/>
        </g>
        <g id="ID000040">
          <polyline class="cls-23" points="547.27 242.35 357.85 242.35 357.85 242.35 357.85 242.35 354.47 242.35"/>
        </g>
        <g id="ID000041">
          <polygon class="cls-22" points="470.15 242.35 456.96 235.25 456.96 249.45 470.15 242.35"/>
        </g>
        <g id="ID000042">
          <polygon class="cls-22" points="437 242.35 437.02 242.75 437.06 243.15 437.13 243.54 437.22 243.93 437.34 244.32 437.49 244.69 437.66 245.06 437.86 245.42 438.08 245.76 438.32 246.09 438.59 246.41 438.87 246.7 439.18 246.99 439.5 247.25 439.84 247.49 440.2 247.71 440.57 247.91 440.96 248.09 441.35 248.25 441.76 248.38 442.17 248.48 442.59 248.56 443.02 248.62 443.45 248.65 443.88 248.66 444.31 248.64 444.73 248.6 445.16 248.53 445.57 248.43 445.98 248.31 446.38 248.17 446.77 248 447.15 247.82 447.52 247.6 447.87 247.37 448.2 247.12 448.51 246.85 448.81 246.56 449.09 246.25 449.34 245.93 449.57 245.59 449.78 245.24 449.97 244.88 450.13 244.51 450.26 244.13 450.37 243.74 450.45 243.35 450.5 242.95 450.53 242.55 450.53 242.15 450.5 241.75 450.45 241.35 450.37 240.96 450.26 240.57 450.13 240.19 449.97 239.82 449.78 239.46 449.57 239.11 449.34 238.77 449.09 238.45 448.81 238.14 448.51 237.85 448.2 237.58 447.87 237.33 447.52 237.09 447.15 236.88 446.77 236.69 446.38 236.53 445.98 236.38 445.57 236.26 445.16 236.17 444.73 236.1 444.31 236.06 443.88 236.04 443.45 236.04 443.02 236.08 442.59 236.13 442.17 236.21 441.76 236.32 441.35 236.45 440.96 236.61 440.57 236.78 440.2 236.99 439.84 237.21 439.5 237.45 439.18 237.71 438.87 237.99 438.59 238.29 438.32 238.61 438.08 238.94 437.86 239.28 437.66 239.64 437.49 240 437.34 240.38 437.22 240.76 437.13 241.15 437.06 241.55 437.02 241.95 437 242.35"/>
        </g>
        <g id="ID000043">
          <polyline class="cls-23" points="582.53 184.87 526.98 210.79 408.59 210.79 319.95 238.36"/>
        </g>
        <g id="ID000044">
          <polygon class="cls-21" points="459 210.79 472.18 217.89 472.18 203.69 459 210.79"/>
        </g>
        <g id="ID000046">
          <g class="cls-12">
            <text class="cls-2" transform="translate(413.1 169.76) scale(1.07 1)"><tspan x="0" y="0">U</tspan></text>
          </g>
        </g>
        <g id="ID000047">
          <g class="cls-12">
            <text class="cls-2" transform="translate(446.92 153.98) scale(1.07 1)"><tspan x="0" y="0">U</tspan></text>
          </g>
        </g>
        <g id="ID000048">
          <g class="cls-12">
            <text class="cls-18" transform="translate(481.7 153.98) scale(1.07 1)"><tspan x="0" y="0">A</tspan></text>
          </g>
        </g>
        <g id="ID000049">
          <g class="cls-12">
            <text class="cls-6" transform="translate(514.57 169.76) scale(1.07 1)"><tspan x="0" y="0">U</tspan></text>
          </g>
        </g>
        <g id="ID000050">
          <g class="cls-12">
            <text class="cls-6" transform="translate(547.27 186.8) scale(1.07 1)"><tspan x="0" y="0">G</tspan></text>
          </g>
        </g>
        <g id="ID000051">
          <g class="cls-12">
            <text class="cls-9" transform="translate(581.27 193.43) scale(1.07 1)"><tspan x="0" y="0">G</tspan></text>
          </g>
        </g>
        <g id="ID000052">
          <g class="cls-12">
            <text class="cls-9" transform="translate(616.05 193.43) scale(1.07 1)"><tspan x="0" y="0">C</tspan></text>
          </g>
        </g>
        <g id="ID000053">
          <g class="cls-12">
            <text class="cls-9" transform="translate(648.92 193.43) scale(1.07 1)"><tspan x="0" y="0">G</tspan></text>
          </g>
        </g>
        <g id="ID000054">
          <line class="cls-23" x1="662.28" y1="158.18" x2="662.28" y2="137.14"/>
        </g>
        <g id="ID000055">
          <g class="cls-12">
            <text class="cls-1" transform="translate(643.17 129.25) scale(1.07 1)"><tspan x="0" y="0">20</tspan></text>
          </g>
        </g>
        <g id="ID000056">
          <g class="cls-12">
            <text class="cls-9" transform="translate(683.7 193.43) scale(1.07 1)"><tspan x="0" y="0">C</tspan></text>
          </g>
        </g>
        <g id="ID000057">
          <g class="cls-12">
            <text class="cls-9" transform="translate(719.38 190.8) scale(1.07 1)"><tspan x="0" y="0">G</tspan></text>
          </g>
        </g>
        <g id="ID000058">
          <g class="cls-12">
            <text class="cls-13" transform="translate(721.29 261.81) scale(1.07 1)"><tspan x="0" y="0">A</tspan></text>
          </g>
        </g>
        <g id="ID000059">
          <g class="cls-12">
            <text class="cls-9" transform="translate(682.74 256.55) scale(1.07 1)"><tspan x="0" y="0">G</tspan></text>
          </g>
        </g>
        <g id="ID000060">
          <g class="cls-12">
            <text class="cls-9" transform="translate(649.87 256.55) scale(1.07 1)"><tspan x="0" y="0">C</tspan></text>
          </g>
        </g>
        <g id="ID000061">
          <g class="cls-12">
            <text class="cls-9" transform="translate(615.09 256.55) scale(1.07 1)"><tspan x="0" y="0">G</tspan></text>
          </g>
        </g>
        <g id="ID000062">
          <g class="cls-12">
            <text class="cls-9" transform="translate(582.22 256.55) scale(1.07 1)"><tspan x="0" y="0">C</tspan></text>
          </g>
        </g>
        <g id="ID000063">
          <g class="cls-12">
            <text class="cls-18" transform="translate(549.35 256.55) scale(1.07 1)"><tspan x="0" y="0">A</tspan></text>
          </g>
        </g>
        <g id="ID000064">
          <line class="cls-23" x1="560.8" y1="263.39" x2="560.8" y2="284.43"/>
        </g>
        <g id="ID000065">
          <g class="cls-12">
            <text class="cls-1" transform="translate(541.7 321.67) scale(1.07 1)"><tspan x="0" y="0">30</tspan></text>
          </g>
        </g>
        <g id="ID000066">
          <g class="cls-12">
            <text class="cls-6" transform="translate(513.62 288.11) scale(1.07 1)"><tspan x="0" y="0">G</tspan></text>
          </g>
        </g>
        <g id="ID000067">
          <g class="cls-12">
            <text class="cls-11" transform="translate(481.7 296) scale(1.07 1)"><tspan x="0" y="0">A</tspan></text>
          </g>
        </g>
        <g id="ID000068">
          <g class="cls-12">
            <text class="cls-6" transform="translate(445.97 288.11) scale(1.07 1)"><tspan x="0" y="0">G</tspan></text>
          </g>
        </g>
        <g id="ID000069">
          <line class="cls-23" x1="560.8" y1="191.85" x2="560.8" y2="229.72"/>
        </g>
        <g id="ID000070">
          <polygon class="cls-22" points="560.8 217.1 561.23 217.09 561.66 217.05 562.08 216.99 562.5 216.9 562.91 216.78 563.32 216.65 563.71 216.49 564.09 216.3 564.46 216.1 564.81 215.87 565.15 215.62 565.47 215.36 565.77 215.07 566.05 214.77 566.31 214.45 566.55 214.12 566.77 213.77 566.96 213.41 567.12 213.04 567.26 212.66 567.38 212.28 567.47 211.88 567.53 211.49 567.56 211.09 567.57 210.69 567.55 210.29 567.5 209.89 567.43 209.49 567.32 209.11 567.2 208.72 567.04 208.35 566.86 207.98 566.66 207.63 566.44 207.29 566.19 206.96 565.92 206.65 565.62 206.36 565.31 206.08 564.98 205.83 564.64 205.59 564.28 205.37 563.9 205.18 563.52 205 563.12 204.86 562.71 204.73 562.29 204.63 561.87 204.55 561.45 204.5 561.02 204.48 560.59 204.48 560.16 204.5 559.73 204.55 559.31 204.63 558.9 204.73 558.49 204.86 558.09 205 557.7 205.18 557.33 205.37 556.97 205.59 556.62 205.83 556.29 206.08 555.98 206.36 555.69 206.65 555.42 206.96 555.17 207.29 554.95 207.63 554.74 207.98 554.56 208.35 554.41 208.72 554.28 209.11 554.18 209.49 554.11 209.89 554.06 210.29 554.04 210.69 554.05 211.09 554.08 211.49 554.14 211.88 554.23 212.28 554.34 212.66 554.48 213.04 554.65 213.41 554.84 213.77 555.06 214.12 555.29 214.45 555.55 214.77 555.83 215.07 556.13 215.36 556.45 215.62 556.79 215.87 557.15 216.1 557.51 216.3 557.9 216.49 558.29 216.65 558.69 216.78 559.1 216.9 559.52 216.99 559.95 217.05 560.37 217.09 560.8 217.1"/>
        </g>
        <g id="ID000071">
          <line class="cls-23" x1="594.63" y1="191.85" x2="594.63" y2="229.72"/>
        </g>
        <g id="ID000072">
          <line class="cls-23" x1="628.45" y1="191.85" x2="628.45" y2="229.72"/>
        </g>
        <g id="ID000073">
          <line class="cls-23" x1="662.28" y1="191.85" x2="662.28" y2="229.72"/>
        </g>
        <g id="ID000074">
          <line class="cls-23" x1="696.1" y1="191.85" x2="696.1" y2="229.72"/>
        </g>
        <g id="ID000075">
          <line class="cls-23" x1="732.75" y1="189.22" x2="732.75" y2="234.98"/>
        </g>
        <g id="ID000076">
          <polygon class="cls-21" points="732.75 195.7 725.14 208 740.36 208 732.75 195.7"/>
        </g>
        <g id="ID000077">
          <polygon class="cls-21" points="739.51 226.62 739.51 214 725.98 214 725.98 226.62 739.51 226.62"/>
        </g>
        <g id="ID000079">
          <line class="cls-24" x1="446.32" y1="270.44" x2="353.95" y2="245.82"/>
        </g>
        <g id="ID000080">
          <polygon class="cls-22" points="408.19 270.12 404.16 264.13 399.21 261.16 394.02 258.96 383.87 253.79 395.41 254.41 401.06 255.09 406.95 255.02 413.76 251.92 408.19 270.12"/>
        </g>
      </g>
    </g>
  </g>
  <g class="cls-12">
    <text class="cls-4" transform="translate(37.36 146.42) scale(1.07 1)"><tspan x="0" y="0">5</tspan></text>
    <text class="cls-7" transform="translate(53.79 146.42) scale(1.07 1)"><tspan x="0" y="0">’</tspan></text>
  </g>
  <g class="cls-12">
    <text class="cls-15" transform="translate(34.3 297.96) scale(1.05 1)"><tspan x="0" y="0">3</tspan></text>
    <text class="cls-5" transform="translate(50.74 297.96) scale(1.05 1)"><tspan x="0" y="0">’</tspan></text>
  </g>
  <g id="ID000002-2">
    <g class="cls-12">
      <text class="cls-16" transform="translate(92.63 193.43) scale(1.07 1)"><tspan x="0" y="0">C</tspan></text>
    </g>
  </g>
  <g id="ID000004-2">
    <g class="cls-12">
      <text class="cls-16" transform="translate(34.3 193.43) scale(1.07 1)"><tspan x="0" y="0">G</tspan></text>
    </g>
  </g>
  <g id="ID000004-3">
    <g class="cls-12">
      <text class="cls-16" transform="translate(63.83 193.43) scale(1.07 1)"><tspan x="0" y="0">G</tspan></text>
    </g>
  </g>
  <g id="ID000058-2">
    <g class="cls-12">
      <text class="cls-19" transform="translate(755.75 240.58) scale(1.05 1)"><tspan x="0" y="0">A</tspan></text>
    </g>
  </g>
  <g id="ID000058-3">
    <g class="cls-12">
      <text class="cls-10" transform="translate(755.7 205.55) scale(1.05 1)"><tspan x="0" y="0">A</tspan></text>
    </g>
  </g>
  <g id="ID000011-2">
    <g class="cls-12">
      <text class="cls-14" transform="translate(63.9 255.06) scale(1.05 1)"><tspan x="0" y="0">U</tspan></text>
    </g>
  </g>
  <g id="ID000002-3">
    <g class="cls-12">
      <text class="cls-14" transform="translate(34.3 255.06) scale(1.05 1)"><tspan x="0" y="0">C</tspan></text>
    </g>
  </g>
  <g class="cls-12">
    <text class="cls-3" transform="translate(323.4 41.92)"><tspan class="cls-20" x="0" y="0">T</tspan><tspan x="8" y="0">etR binding aptamer</tspan></text>
  </g>
</svg>