<?xml version="1.0" encoding="utf-8"?>
<!-- Generator: Adobe Illustrator 25.2.0, SVG Export Plug-In . SVG Version: 6.00 Build 0)  -->
<svg version="1.1" id="图层_1" xmlns="http://www.w3.org/2000/svg" xmlns:xlink="http://www.w3.org/1999/xlink" x="0px" y="0px"
	 viewBox="0 0 800 400" style="enable-background:new 0 0 800 400;" xml:space="preserve">
<style type="text/css">
	.st0{fill:#FFFF00;stroke:#000000;stroke-width:0.5;}
	.st1{fill:#FF870A;}
	.st2{font-family:'ArialMT';}
	.st3{font-size:15.785px;}
	.st4{fill:#80DB9E;}
	.st5{fill:#FF00FF;}
	.st6{fill:none;stroke:#000000;stroke-width:0.5;}
	.st7{fill:#00BCDF;}
	.st8{stroke:#000000;stroke-width:0.5;}
	.st9{fill:#00BCDF;stroke:#000000;stroke-width:0.5;}
	.st10{fill:#0A0BFF;}
	.st11{fill:#008080;}
	.st12{font-size:19.7386px;}
	.st13{font-size:11.3433px;}
	.st14{font-size:12.1025px;}
	.st15{fill:none;}
	.st16{font-size:8px;}
	.st17{fill:#251E1C;}
	.st18{font-size:20px;}
</style>
<ellipse class="st0" cx="368.8" cy="283.8" rx="23" ry="9.9"/>
<g id="ID000002">
	<text transform="matrix(1.08 0 0 1 377.4092 371.877)" class="st1 st2 st3">G</text>
</g>
<g id="ID000003">
	<text transform="matrix(1.08 0 0 1 378.3506 357.2979)" class="st1 st2 st3">A</text>
</g>
<g id="ID000004">
	<text transform="matrix(1.08 0 0 1 377.9023 342.7148)" class="st1 st2 st3">G</text>
</g>
<g id="ID000005">
	<text transform="matrix(1.08 0 0 1 377.9023 328.1396)" class="st1 st2 st3">G</text>
</g>
<g id="ID000006">
	<text transform="matrix(1.08 0 0 1 377.9023 313.5566)" class="st1 st2 st3">G</text>
</g>
<g id="ID000007">
	<text transform="matrix(1.08 0 0 1 311.9922 229.7266)" class="st2 st3">A</text>
</g>
<g id="ID000008">
	<text transform="matrix(1.08 0 0 1 304.1289 277.1104)" class="st2 st3">A</text>
</g>
<g id="ID000009">
	<text transform="matrix(1.08 0 0 1 319.3916 288.0449)" class="st2 st3">U</text>
</g>
<g id="ID000010">
	<text transform="matrix(0.93 0 0 1 392.0459 306.2646)" class="st4 st2 st3">A</text>
</g>
<g id="ID000011">
	<text transform="matrix(1.08 0 0 1 335.5898 295.3311)" class="st5 st2 st3">A</text>
</g>
<g id="ID000012">
	<line class="st6" x1="333.8" y1="295.3" x2="326.4" y2="302.1"/>
</g>
<g id="ID000013">
	<text transform="matrix(1.08 0 0 1 307.4951 320.2812)" class="st2 st3">60</text>
</g>
<g id="ID000014">
	<text transform="matrix(1.08 0 0 1 346.9141 313.5566)" class="st1 st2 st3">C</text>
</g>
<g id="ID000015">
	<text transform="matrix(1.08 0 0 1 346.9141 328.1396)" class="st1 st2 st3">C</text>
</g>
<g id="ID000016">
	<text transform="matrix(1.08 0 0 1 346.9141 342.7148)" class="st1 st2 st3">C</text>
</g>
<g id="ID000017">
	<text transform="matrix(1.08 0 0 1 346.9141 357.2979)" class="st1 st2 st3">U</text>
</g>
<g id="ID000018">
	<text transform="matrix(1.08 0 0 1 346.9141 371.877)" class="st1 st2 st3">C</text>
</g>
<g id="ID000019">
	<text transform="matrix(1.08 0 0 1 389.207 288.0449)" class="st4 st2 st3">G</text>
</g>
<g id="ID000020">
	<line class="st6" x1="378.2" y1="365" x2="359.4" y2="365"/>
</g>
<g id="ID000021">
	<line class="st6" x1="378.2" y1="350.4" x2="359.4" y2="350.4"/>
</g>
<g id="ID000022">
	<line class="st6" x1="378.2" y1="335.8" x2="359.4" y2="335.8"/>
</g>
<g id="ID000023">
	<line class="st6" x1="378.2" y1="321.2" x2="359.4" y2="321.2"/>
</g>
<g id="ID000024">
	<line class="st6" x1="378.2" y1="306.6" x2="359.4" y2="306.6"/>
</g>
<g id="ID000026">
	<g>
		<g>
			<text transform="matrix(1.08 0 0 1 374.4424 218.7939)" class="st7 st2 st3">U</text>
		</g>
	</g>
</g>
<g id="ID000027">
	<text transform="matrix(1.08 0 0 1 374.9102 204.21)" class="st7 st2 st3">A</text>
</g>
<g id="ID000028">
	<text transform="matrix(1.08 0 0 1 373.9678 189.6323)" class="st7 st2 st3">G</text>
</g>
<g id="ID000029">
	<line class="st8" x1="391.1" y1="182.7" x2="401.5" y2="182.7"/>
</g>
<g id="ID000030">
	<text transform="matrix(1.08 0 0 1 401.5654 189.6323)" class="st2 st3">30</text>
</g>
<g id="ID000031">
	<text transform="matrix(1.08 0 0 1 373.9678 175.0513)" class="st7 st2 st3">G</text>
</g>
<g id="ID000032">
	<text transform="matrix(1.08 0 0 1 374.4424 160.4731)" class="st7 st2 st3">U</text>
</g>
<g id="ID000033">
	<text transform="matrix(1.08 0 0 1 374.9102 145.8911)" class="st7 st2 st3">A</text>
</g>
<g id="ID000034">
	<text transform="matrix(1.08 0 0 1 374.4424 131.3149)" class="st7 st2 st3">C</text>
</g>
<g id="ID000035">
	<text transform="matrix(1.08 0 0 1 374.4424 116.7319)" class="st7 st2 st3">C</text>
</g>
<g id="ID000036">
	<text transform="matrix(1.08 0 0 1 394.5752 105.7983)" class="st7 st2 st3">A</text>
</g>
<g id="ID000037">
	<text transform="matrix(1.08 0 0 1 405.8994 91.2212)" class="st7 st2 st3">U</text>
</g>
<g id="ID000038">
	<text transform="matrix(1.08 0 0 1 405.8994 72.9966)" class="st7 st2 st3">U</text>
</g>
<g id="ID000039">
	<text transform="matrix(1.08 0 0 1 393.6289 54.77)" class="st7 st2 st3">G</text>
</g>
<g id="ID000040">
	<text transform="matrix(1.08 0 0 1 374.4424 43.8364)" class="st7 st2 st3">C</text>
</g>
<g id="ID000041">
	<line class="st9" x1="388" y1="30" x2="395.4" y2="23.1"/>
</g>
<g id="ID000042">
	<text transform="matrix(1.08 0 0 1 395.4238 19.3501)" class="st2 st3">40</text>
</g>
<g id="ID000043">
	<text transform="matrix(1.08 0 0 1 355.251 43.8364)" class="st7 st2 st3">A</text>
</g>
<g id="ID000044">
	<text transform="matrix(1.08 0 0 1 335.1172 47.4849)" class="st7 st2 st3">C</text>
</g>
<g id="ID000045">
	<text transform="matrix(1.08 0 0 1 327.2539 65.7046)" class="st7 st2 st3">U</text>
</g>
<g id="ID000046">
	<text transform="matrix(1.08 0 0 1 327.2539 83.9302)" class="st7 st2 st3">C</text>
</g>
<g id="ID000047">
	<text transform="matrix(1.08 0 0 1 335.1172 102.1548)" class="st7 st2 st3">C</text>
</g>
<g id="ID000048">
	<text transform="matrix(1.08 0 0 1 342.5117 116.7319)" class="st7 st2 st3">G</text>
</g>
<g id="ID000049">
	<text transform="matrix(1.08 0 0 1 342.5117 131.3149)" class="st7 st2 st3">G</text>
</g>
<g id="ID000050">
	<text transform="matrix(1.08 0 0 1 342.9805 145.8911)" class="st7 st2 st3">U</text>
</g>
<g id="ID000051">
	<text transform="matrix(1.08 0 0 1 343.4531 160.4731)" class="st7 st2 st3">A</text>
</g>
<g id="ID000052">
	<text transform="matrix(1.08 0 0 1 342.9805 175.0513)" class="st7 st2 st3">C</text>
</g>
<g id="ID000053">
	<line class="st8" x1="338.7" y1="168.1" x2="328.2" y2="168.1"/>
</g>
<g id="ID000054">
	<text transform="matrix(1.08 0 0 1 309.2168 175.0513)" class="st2 st3">50</text>
</g>
<g id="ID000055">
	<text transform="matrix(1.08 0 0 1 342.9805 189.6323)" class="st7 st2 st3">C</text>
</g>
<g id="ID000056">
	<text transform="matrix(1.08 0 0 1 342.9805 204.21)" class="st7 st2 st3">U</text>
</g>
<g id="ID000057">
	<g>
		<g>
			<text transform="matrix(1.08 0 0 1 343.4531 218.7939)" class="st7 st2 st3">A</text>
		</g>
	</g>
</g>
<g id="ID000058">
	<text transform="matrix(1.08 0 0 1 327.7227 226.082)" class="st2 st3">A</text>
</g>
<g id="ID000059">
	<line class="st6" x1="374.3" y1="211.9" x2="355.4" y2="211.9"/>
</g>
<g id="ID000060">
	<line class="st9" x1="374.3" y1="197.3" x2="355.4" y2="197.3"/>
</g>
<g id="ID000061">
	<line class="st9" x1="374.3" y1="182.7" x2="355.4" y2="182.7"/>
</g>
<g id="ID000062">
	<line class="st9" x1="374.3" y1="168.1" x2="355.4" y2="168.1"/>
</g>
<g id="ID000063">
	<line class="st9" x1="374.3" y1="153.6" x2="355.4" y2="153.6"/>
</g>
<g id="ID000064">
	<line class="st9" x1="374.3" y1="139" x2="355.4" y2="139"/>
</g>
<g id="ID000065">
	<line class="st9" x1="374.3" y1="124.3" x2="355.4" y2="124.3"/>
</g>
<g id="ID000066">
	<line class="st9" x1="374.3" y1="109.8" x2="355.4" y2="109.8"/>
</g>
<g id="ID000068">
	<text transform="matrix(1.08 0 0 1 409.3652 251.5947)" class="st10 st2 st3">G</text>
</g>
<g id="ID000069">
	<line class="st6" x1="423.4" y1="251.6" x2="430.8" y2="258.5"/>
</g>
<g id="ID000070">
	<text transform="matrix(1.08 0 0 1 430.8145 276.5439)" class="st2 st3">10</text>
</g>
<g id="ID000071">
	<text transform="matrix(1.08 0 0 1 425.5635 251.5947)" class="st10 st2 st3">U</text>
</g>
<g id="ID000072">
	<text transform="matrix(1.08 0 0 1 440.8213 251.5947)" class="st10 st2 st3">G</text>
</g>
<g id="ID000073">
	<text transform="matrix(1.08 0 0 1 458.8047 260.0996)" class="st11 st2 st3">A</text>
</g>
<g id="ID000074">
	<text transform="matrix(1.08 0 0 1 477.1533 262.5293)" class="st11 st2 st3">A</text>
</g>
<g id="ID000075">
	<text transform="matrix(1.08 0 0 1 491.9424 266.1768)" class="st11 st2 st3">G</text>
</g>
<g id="ID000076">
	<text transform="matrix(0.85 0 0 1 514.6348 262.7207)" class="st11 st2 st12">A</text>
</g>
<g id="ID000077">
	<text transform="matrix(1.08 0 0 1 524.3457 247.9521)" class="st11 st2 st3">A</text>
</g>
<g id="ID000078">
	<text transform="matrix(1.08 0 0 1 523.873 229.7266)" class="st11 st2 st3">U</text>
</g>
<g id="ID000079">
	<text transform="matrix(1.08 0 0 1 520.4121 211.501)" class="st11 st2 st3">A</text>
</g>
<g id="ID000080">
	<text transform="matrix(1.08 0 0 1 508.1475 196.9243)" class="st11 st2 st3">C</text>
</g>
<g id="ID000081">
	<line class="st6" x1="514.4" y1="180.3" x2="514.4" y2="170.6"/>
</g>
<g id="ID000082">
	<text transform="matrix(1.08 0 0 1 504.8242 166.7397)" class="st2 st3">20</text>
</g>
<g id="ID000083">
	<text transform="matrix(1.08 0 0 1 488.0078 200.5664)" class="st11 st2 st3">G</text>
</g>
<g id="ID000084">
	<text transform="matrix(1.08 0 0 1 473.2246 200.5664)" class="st11 st2 st3">A</text>
</g>
<g id="ID000085">
	<text transform="matrix(1.08 0 0 1 453.0918 207.8525)" class="st11 st2 st3">C</text>
</g>
<g id="ID000086">
	<text transform="matrix(1.08 0 0 1 441.2949 222.4365)" class="st10 st2 st3">C</text>
</g>
<g id="ID000087">
	<text transform="matrix(1.08 0 0 1 426.0371 222.4365)" class="st10 st2 st3">A</text>
</g>
<g id="ID000088">
	<text transform="matrix(1.08 0 0 1 409.8389 222.4365)" class="st10 st2 st3">C</text>
</g>
<g id="ID000089">
	<text transform="matrix(1.08 0 0 1 394.1074 222.4365)" class="st10 st2 st3">C</text>
</g>
<g id="ID000090">
	<text transform="matrix(1.08 0 0 1 304.1289 244.3047)" class="st2 st3">A</text>
</g>
<g id="ID000091">
	<text transform="matrix(1.08 0 0 1 299.7275 262.5293)" class="st2 st3">C</text>
</g>
<g id="ID000092">
	<text transform="matrix(1.08 0 0 1 390.1484 269.8193)" class="st4 st2 st3">A</text>
</g>
<g id="ID000093">
	<text transform="matrix(1.08 0 0 1 393.6289 251.5947)" class="st10 st2 st3">G</text>
</g>
<g id="ID000094">
	<line class="st6" x1="416" y1="238.8" x2="416" y2="221.4"/>
</g>
<g id="ID000095">
	<line class="st6" x1="431.7" y1="238.8" x2="431.7" y2="221.4"/>
</g>
<g id="ID000096">
	<line class="st6" x1="447.5" y1="238.8" x2="447.5" y2="221.4"/>
</g>
<g id="ID000097">
	<line class="st6" x1="400.2" y1="238.8" x2="400.2" y2="221.4"/>
</g>
<text transform="matrix(1.06 0 0 1 383.5615 386.1318)" class="st2 st13">5</text>
<text transform="matrix(1.06 0 0 1 390.251 386.1318)" class="st2 st13">’</text>
<text transform="matrix(1.08 0 0 1 348.7227 386.3779)" class="st2 st14">3</text>
<text transform="matrix(1.08 0 0 1 355.9961 386.3779)" class="st2 st14">’</text>
<rect x="350.9" y="284.6" class="st15" width="52.3" height="10.1"/>
<text transform="matrix(1 0 0 1 350.9701 286.2354)" class="st2 st16">tetracycline</text>
<text transform="matrix(1 0 0 1 13.98 30.4165)" class="st17 st2 st18">tetracycline-aptamer</text>
</svg>
