<?xml version="1.0" encoding="utf-8"?>
<!-- Generator: Adobe Illustrator 25.2.0, SVG Export Plug-In . SVG Version: 6.00 Build 0)  -->
<svg version="1.1" id="图层_1" xmlns="http://www.w3.org/2000/svg" xmlns:xlink="http://www.w3.org/1999/xlink" x="0px" y="0px"
	 viewBox="0 0 800 400" style="enable-background:new 0 0 800 400;" xml:space="preserve">
<style type="text/css">
	.st0{fill:#CC00FF;}
	.st1{font-family:'ArialMT';}
	.st2{font-size:16.0963px;}
	.st3{fill:#80DB9E;}
	.st4{letter-spacing:-1;}
	.st5{fill:none;stroke:#000000;stroke-width:0.38;stroke-miterlimit:3.05;}
	.st6{font-size:12.877px;}
	.st7{font-size:12.3405px;}
	.st8{font-size:10.7308px;}
	.st9{font-size:25px;}
	.st10{letter-spacing:-3;}
	.st11{fill:none;}
	.st12{fill:none;stroke:#000000;stroke-width:0.38;stroke-miterlimit:10;}
</style>
<g id="ID000002">
	<text transform="matrix(1 0 0 1 406.0422 390.0296)" class="st0 st1 st2">C</text>
</g>
<g id="ID000003">
	<text transform="matrix(1 0 0 1 406.4827 295.3949)" class="st3 st1 st2 st4">A</text>
</g>
<g id="ID000005">
	<text transform="matrix(1 0 0 1 362.0251 295.0667)" class="st3 st1 st2 st4">A</text>
</g>
<g id="ID000006">
	<text transform="matrix(1 0 0 1 361.1394 390.0296)" class="st0 st1 st2">G</text>
</g>
<g id="ID000007">
	<line class="st5" x1="403.6" y1="383.9" x2="376.4" y2="383.7"/>
</g>
<g id="ID000010">
	<text transform="matrix(1 0 0 1 406.0422 311.1683)" class="st3 st1 st2">C</text>
</g>
<g id="ID000011">
	<text transform="matrix(1 0 0 1 361.5852 342.5511)" class="st3 st1 st2">C</text>
</g>
<g id="ID000019">
	<text transform="matrix(1 0 0 1 405.5969 342.7122)" class="st3 st1 st2">G</text>
</g>
<g id="ID000020">
	<text transform="matrix(1 0 0 1 361.1394 310.8949)" class="st3 st1 st2">G</text>
</g>
<g id="ID000021">
	<line class="st5" x1="403.6" y1="304.5" x2="376.4" y2="304.3"/>
</g>
<g id="ID000022">
	<line class="st5" x1="403.6" y1="336.2" x2="376.4" y2="336.1"/>
</g>
<g>
	<text transform="matrix(1 0 0 1 348.6917 394.5628)" class="st1 st6">5</text>
	<text transform="matrix(1 0 0 1 355.8547 394.5628)" class="st1 st6 st4">’</text>
</g>
<g>
	<text transform="matrix(1 0 0 1 420.9856 394.5628)" class="st1 st7">3</text>
	<text transform="matrix(1 0 0 1 427.8479 394.5628)" class="st1 st7">’</text>
</g>
<g id="ID000002-2">
	<text transform="matrix(1 0 0 1 406.0422 374.2552)" class="st0 st1 st2">U</text>
</g>
<g id="ID000006-2">
	<text transform="matrix(1 0 0 1 361.1394 374.2015)" class="st0 st1 st2">G</text>
</g>
<g id="ID000002-3">
	<text transform="matrix(1 0 0 1 405.5969 358.4867)" class="st3 st1 st2">G</text>
</g>
<g id="ID000006-3">
	<text transform="matrix(1 0 0 1 361.5852 358.3744)" class="st0 st1 st2">C</text>
</g>
<g id="ID000007-3">
	<line class="st5" x1="403.6" y1="352.2" x2="376.4" y2="351.9"/>
</g>
<g id="ID000011-2">
	<text transform="matrix(1 0 0 1 406.0422 326.9437)" class="st3 st1 st2">C</text>
</g>
<g id="ID000019-2">
	<text transform="matrix(1 0 0 1 361.1394 326.723)" class="st3 st1 st2">G</text>
</g>
<g id="ID000022-2">
	<line class="st5" x1="403.6" y1="320.3" x2="376.4" y2="320.2"/>
</g>
<g id="ID000005-2">
	<text transform="matrix(1 0 0 1 348.1873 278.8255)" class="st3 st1 st2">G</text>
</g>
<g id="ID000005-3">
	<text transform="matrix(1 0 0 1 361.2952 159.4935)" class="st3 st1 st2">U</text>
</g>
<g id="ID000011-3">
	<text transform="matrix(1 0 0 1 361.5852 232.1097)" class="st3 st1 st2">U</text>
</g>
<g id="ID000019-3">
	<text transform="matrix(1 0 0 1 405.9993 232.6781)" class="st3 st1 st2 st4">A</text>
</g>
<g id="ID000020-2">
	<text transform="matrix(1 0 0 1 360.4099 175.3221)" class="st3 st1 st2">U</text>
</g>
<g id="ID000002-4">
	<text transform="matrix(1 0 0 1 405.9993 264.0335)" class="st3 st1 st2 st4">A</text>
</g>
<g id="ID000006-4">
	<text transform="matrix(1 0 0 1 361.1394 263.7601)" class="st3 st1 st2 st4">A</text>
</g>
<g id="ID000002-5">
	<text transform="matrix(1 0 0 1 405.9993 248.3558)" class="st3 st1 st2 st4">A</text>
</g>
<g id="ID000006-5">
	<text transform="matrix(1 0 0 1 361.5852 247.9369)" class="st3 st1 st2 st4">A</text>
</g>
<g id="ID000011-4">
	<text transform="matrix(1 0 0 1 405.2971 191.8636)" class="st3 st1 st2">G</text>
</g>
<g id="ID000019-4">
	<text transform="matrix(1 0 0 1 360.4099 191.1497)" class="st3 st1 st2">G</text>
</g>
<g id="ID000005-4">
	<text transform="matrix(1 0 0 1 360.8547 143.6659)" class="st3 st1 st2 st4">A</text>
</g>
<g id="ID000018">
	<text transform="matrix(1 0 0 1 344.448 246.0062)" class="st1 st8">10</text>
</g>
<g id="ID000003-2">
	<text transform="matrix(1 0 0 1 405.2698 82.1034)" class="st3 st1 st2">G</text>
</g>
<g id="ID000005-5">
	<text transform="matrix(1 0 0 1 360.8547 81.5292)" class="st3 st1 st2">C</text>
</g>
<g id="ID000008-3">
	<line class="st5" x1="402.4" y1="75" x2="375.3" y2="74.9"/>
</g>
<g id="ID000010-2">
	<text transform="matrix(1 0 0 1 405.2698 97.7806)" class="st3 st1 st2">C</text>
</g>
<g id="ID000011-5">
	<text transform="matrix(1 0 0 1 347.3347 130.0697)" class="st3 st1 st2">U</text>
</g>
<g id="ID000020-3">
	<text transform="matrix(1 0 0 1 359.9646 97.3563)" class="st3 st1 st2">G</text>
</g>
<g id="ID000021-2">
	<line class="st5" x1="402.4" y1="90.9" x2="375.2" y2="90.8"/>
</g>
<g id="ID000011-6">
	<text transform="matrix(1 0 0 1 405.2913 113.4637)" class="st3 st1 st2 st4">A</text>
</g>
<g id="ID000019-5">
	<text transform="matrix(1 0 0 1 359.9646 113.1849)" class="st3 st1 st2">G</text>
</g>
<g id="ID000003-3">
	<text transform="matrix(1 0 0 1 405.2698 66.4203)" class="st3 st1 st2">C</text>
</g>
<g id="ID000005-6">
	<text transform="matrix(1 0 0 1 360.4153 65.701)" class="st3 st1 st2">G</text>
</g>
<g id="ID000008-4">
	<line class="st5" x1="402.4" y1="59.1" x2="375.3" y2="59"/>
</g>
<g id="ID000018-2">
	<text transform="matrix(1 0 0 1 346.1487 63.8924)" class="st1 st8">20</text>
</g>
<g id="ID000003-4">
	<text transform="matrix(1 0 0 1 394.4001 18.2328)" class="st0 st1 st2">A</text>
</g>
<g id="ID000010-3">
	<text transform="matrix(1 0 0 1 405.2913 35.0643)" class="st3 st1 st2 st4">A</text>
</g>
<g id="ID000020-4">
	<text transform="matrix(1 0 0 1 360.8547 34.8709)" class="st3 st1 st2">G</text>
</g>
<g id="ID000011-7">
	<text transform="matrix(1 0 0 1 405.2698 50.742)" class="st3 st1 st2">G</text>
</g>
<g id="ID000019-6">
	<text transform="matrix(1 0 0 1 360.8547 50.6937)" class="st3 st1 st2">C</text>
</g>
<g id="ID000022-5">
	<line class="st5" x1="403.3" y1="44.3" x2="376.2" y2="44.2"/>
</g>
<g id="ID000005-7">
	<text transform="matrix(1 0 0 1 375.4656 18.2328)" class="st0 st1 st2">A</text>
</g>
<g id="ID000019-7">
	<text transform="matrix(1 0 0 1 420.4915 204.1068)" class="st3 st1 st2 st4">A</text>
</g>
<g id="ID000005-8">
	<text transform="matrix(1 0 0 1 420.1321 219.8968)" class="st3 st1 st2">G</text>
</g>
<g id="ID000018-3">
	<text transform="matrix(1 0 0 1 423.1477 111.307)" class="st1 st8">30</text>
</g>
<g id="ID000018-4">
	<text transform="matrix(1 0 0 1 423.1477 356.7904)" class="st1 st8">40</text>
</g>
<g>
	<text transform="matrix(1 0 0 1 11.9692 35.3799)" class="st1 st9 st10">T</text>
	<text transform="matrix(1 0 0 1 24.4692 35.3799)" class="st1 st9">etR aptamer</text>
</g>
<line class="st5" x1="355.6" y1="115.4" x2="360.9" y2="113.3"/>
<line class="st11" x1="362.6" y1="129.6" x2="365.3" y2="132.1"/>
<line class="st5" x1="358.2" y1="130.1" x2="361.7" y2="132.1"/>
<line class="st5" x1="410.8" y1="116.3" x2="410.8" y2="175.5"/>
<line class="st5" x1="369.7" y1="20.5" x2="374.3" y2="15.8"/>
<line class="st5" x1="386.2" y1="11" x2="395.3" y2="11"/>
<line class="st5" x1="406.1" y1="15.5" x2="410.9" y2="20.3"/>
<line class="st5" x1="366.4" y1="194.6" x2="366.4" y2="217.3"/>
<line class="st5" x1="412" y1="265.9" x2="412" y2="280.4"/>
<line class="st5" x1="357.9" y1="265.9" x2="360.6" y2="263.2"/>
<line class="st5" x1="360.4" y1="279.2" x2="364.3" y2="283.1"/>
<line class="st12" x1="418.8" y1="191.9" x2="421.8" y2="194.9"/>
<line class="st12" x1="417.3" y1="221.2" x2="420.4" y2="218"/>
</svg>
