<?xml version="1.0" encoding="utf-8"?>
<!-- Generator: Adobe Illustrator 25.2.0, SVG Export Plug-In . SVG Version: 6.00 Build 0)  -->
<svg version="1.1" id="_图层_1" xmlns="http://www.w3.org/2000/svg" xmlns:xlink="http://www.w3.org/1999/xlink" x="0px" y="0px"
	 viewBox="0 0 800 400" style="enable-background:new 0 0 800 400;" xml:space="preserve">
<style type="text/css">
	.st0{fill:#B83233;}
	.st1{font-family:'ArialMT';}
	.st2{font-size:32.06px;}
	.st3{letter-spacing:-1.9;}
	.st4{fill:#F17D07;}
	.st5{fill:none;stroke:#000000;stroke-width:0.5;stroke-miterlimit:9.61;}
	.st6{font-size:21px;}
	.st7{fill:none;stroke:#000000;stroke-miterlimit:9.61;}
	.st8{stroke:#000000;stroke-width:1.2;stroke-miterlimit:9.61;}
	.st9{fill:#FFFFFF;stroke:#000000;stroke-width:1.2;stroke-miterlimit:9.61;}
	.st10{fill:#FFFFFF;stroke:#000000;stroke-miterlimit:9.61;}
	.st11{fill:#2EA103;}
	.st12{fill:#084595;}
	.st13{letter-spacing:-1;}
	.st14{fill:#999999;}
	.st15{font-size:32.69px;}
	.st16{letter-spacing:-2.9;}
	.st17{font-size:20px;}
</style>
<g id="ID000002">
	<g>
		<text transform="matrix(1.07 0 0 1 125.5801 193.4302)" class="st0 st1 st2">C</text>
	</g>
</g>
<g id="ID000003">
	<g>
		<text transform="matrix(1.07 0 0 1 158.46 193.4302)" class="st0 st1 st2">G</text>
	</g>
</g>
<g id="ID000004">
	<g>
		<text transform="matrix(1.07 0 0 1 192.2803 193.4302)" class="st0 st1 st2">G</text>
	</g>
</g>
<g id="ID000005">
	<g>
		<text transform="matrix(1.07 0 0 1 228.0103 193.4302)" class="st0 st1 st2 st3">A</text>
	</g>
</g>
<g id="ID000006">
	<g>
		<text transform="matrix(1.07 0 0 1 251.4702 169.7598)" class="st4 st1 st2">G</text>
	</g>
</g>
<g id="ID000007">
	<g>
		<text transform="matrix(1.07 0 0 1 278.75 193.4302)" class="st0 st1 st2 st3">A</text>
	</g>
</g>
<g id="ID000008">
	<g>
		<text transform="matrix(1.07 0 0 1 312.5698 193.4302)" class="st0 st1 st2 st3">A</text>
	</g>
</g>
<g id="ID000009">
	<line class="st5" x1="324" y1="158.2" x2="324" y2="137.1"/>
</g>
<g id="ID000010">
	<g>
		<text transform="matrix(1.07 0 0 1 309.9297 132.6938)" class="st1 st6">10</text>
	</g>
</g>
<g id="ID000011">
	<g>
		<text transform="matrix(1.07 0 0 1 345.4502 193.4302)" class="st0 st1 st2">U</text>
	</g>
</g>
<g id="ID000012">
	<g>
		<text transform="matrix(1.07 0 0 1 378.3198 193.4302)" class="st4 st1 st2">G</text>
	</g>
</g>
<g id="ID000013">
	<g>
		<text transform="matrix(1.07 0 0 1 329.48 256.5498)" class="st0 st1 st2 st3">A</text>
	</g>
</g>
<g id="ID000014">
	<g>
		<text transform="matrix(1.07 0 0 1 295.6602 256.5498)" class="st0 st1 st2 st3">A</text>
	</g>
</g>
<g id="ID000015">
	<g>
		<text transform="matrix(1.07 0 0 1 261.8301 256.5498)" class="st0 st1 st2 st3">A</text>
	</g>
</g>
<g id="ID000016">
	<g>
		<text transform="matrix(1.07 0 0 1 228.0103 256.5498)" class="st0 st1 st2 st3">A</text>
	</g>
</g>
<g id="ID000017">
	<g>
		<text transform="matrix(1.07 0 0 1 193.23 256.5498)" class="st0 st1 st2">C</text>
	</g>
</g>
<g id="ID000018">
	<g>
		<text transform="matrix(1.07 0 0 1 159.4102 256.5498)" class="st0 st1 st2">C</text>
	</g>
</g>
<g id="ID000019">
	<g>
		<text transform="matrix(1.07 0 0 1 124.6299 256.5498)" class="st0 st1 st2">G</text>
	</g>
</g>
<g id="ID000020">
	<line class="st5" x1="138" y1="263.4" x2="138" y2="284.4"/>
</g>
<g id="ID000021">
	<g>
		<text transform="matrix(1.07 0 0 1 125.3115 305.8091)" class="st1 st6">40</text>
	</g>
</g>
<g id="ID000022">
	<g>
		<text transform="matrix(1.07 0 0 1 90.7998 256.5498)" class="st0 st1 st2">G</text>
	</g>
</g>
<g id="ID000023">
	<line class="st7" x1="131.9" y1="190.5" x2="110.2" y2="231.1"/>
</g>
<g id="ID000024">
	<polygon class="st8" points="118.1,216.4 118.4,216.6 118.8,216.8 119.2,216.9 119.7,217 120.1,217 120.5,217.1 120.9,217.1 
		121.4,217.1 121.8,217.1 122.2,217 122.7,216.9 123.1,216.8 123.5,216.7 123.9,216.5 124.2,216.4 124.6,216.2 125,215.9 
		125.3,215.7 125.7,215.4 126,215.2 126.2,214.9 126.5,214.6 126.8,214.2 127,213.9 127.2,213.5 127.3,213.1 127.5,212.8 
		127.6,212.4 127.7,212 127.8,211.6 127.8,211.2 127.8,210.8 127.8,210.4 127.8,210 127.7,209.6 127.6,209.2 127.5,208.8 
		127.4,208.5 127.2,208.1 127,207.7 126.8,207.4 126.5,207.1 126.3,206.8 126,206.4 125.7,206.2 125.4,205.9 125,205.7 124.7,205.4 
		124.3,205.2 123.9,205.1 123.5,204.9 123.1,204.8 122.7,204.7 122.3,204.6 121.8,204.5 121.4,204.5 121,204.5 120.6,204.5 
		120.1,204.5 119.7,204.6 119.3,204.7 118.9,204.8 118.5,205 118.1,205.1 117.7,205.3 117.3,205.5 117,205.8 116.7,206 116.3,206.3 
		116.1,206.6 115.8,206.9 115.5,207.2 115.3,207.5 115.1,207.9 114.9,208.2 114.7,208.6 114.6,209 114.5,209.4 114.4,209.8 
		114.3,210.2 114.3,210.6 114.3,211 114.3,211.4 114.4,211.8 114.5,212.2 114.6,212.5 114.7,212.9 114.9,213.3 115.1,213.7 
		115.3,214 115.5,214.4 115.8,214.7 116,215 116.3,215.3 116.6,215.5 117,215.8 117.3,216 117.7,216.2 	"/>
</g>
<g id="ID000025">
	<line class="st7" x1="171.8" y1="191.9" x2="171.8" y2="229.7"/>
</g>
<g id="ID000026">
	<line class="st7" x1="205.6" y1="191.9" x2="205.6" y2="229.7"/>
</g>
<g id="ID000027">
	<line class="st7" x1="239.5" y1="191.9" x2="239.5" y2="229.7"/>
</g>
<g id="ID000028">
	<polygon class="st9" points="239.5,217.1 239.9,217.1 240.3,217.1 240.8,217 241.2,216.9 241.6,216.8 242,216.6 242.4,216.5 
		242.8,216.3 243.1,216.1 243.5,215.9 243.8,215.6 244.1,215.4 244.4,215.1 244.7,214.8 245,214.4 245.2,214.1 245.4,213.8 
		245.6,213.4 245.8,213 245.9,212.7 246,212.3 246.1,211.9 246.2,211.5 246.2,211.1 246.2,210.7 246.2,210.3 246.2,209.9 
		246.1,209.5 246,209.1 245.9,208.7 245.7,208.4 245.5,208 245.3,207.6 245.1,207.3 244.9,207 244.6,206.6 244.3,206.4 244,206.1 
		243.6,205.8 243.3,205.6 242.9,205.4 242.6,205.2 242.2,205 241.8,204.9 241.4,204.7 241,204.6 240.5,204.6 240.1,204.5 
		239.7,204.5 239.2,204.5 238.8,204.5 238.4,204.6 238,204.6 237.6,204.7 237.1,204.9 236.8,205 236.4,205.2 236,205.4 235.6,205.6 
		235.3,205.8 235,206.1 234.6,206.4 234.4,206.6 234.1,207 233.8,207.3 233.6,207.6 233.4,208 233.2,208.4 233.1,208.7 232.9,209.1 
		232.9,209.5 232.8,209.9 232.7,210.3 232.7,210.7 232.7,211.1 232.7,211.5 232.8,211.9 232.9,212.3 233,212.7 233.1,213 
		233.3,213.4 233.5,213.8 233.7,214.1 234,214.4 234.2,214.8 234.5,215.1 234.8,215.4 235.1,215.6 235.5,215.9 235.8,216.1 
		236.2,216.3 236.6,216.5 236.9,216.6 237.4,216.8 237.8,216.9 238.2,217 238.6,217.1 239,217.1 	"/>
</g>
<g id="ID000029">
	<line class="st7" x1="286.9" y1="191.5" x2="276.6" y2="230.1"/>
</g>
<g id="ID000030">
	<polygon class="st10" points="285.5,196.7 285.1,196.6 284.7,196.6 284.2,196.5 283.8,196.5 283.4,196.5 283,196.6 282.5,196.6 
		282.1,196.7 281.7,196.9 281.3,197 280.9,197.1 280.5,197.3 280.2,197.6 279.8,197.8 279.5,198 279.2,198.3 278.9,198.6 
		278.6,198.9 278.3,199.2 278.1,199.6 277.9,199.9 277.7,200.2 277.5,200.6 277.4,201 277.3,201.4 277.2,201.8 277.1,202.2 
		277.1,202.6 277.1,203 277.1,203.4 277.2,203.8 277.3,204.2 277.4,204.6 277.5,204.9 277.7,205.3 277.9,205.7 278,206 278.3,206.4 
		278.5,206.7 278.8,207 279.1,207.3 279.4,207.6 279.8,207.8 280.1,208.1 280.5,208.3 280.8,208.5 281.2,208.6 281.6,208.8 
		282,208.9 282.5,209 282.9,209.1 283.3,209.1 283.7,209.1 284.2,209.1 284.6,209.1 285,209.1 285.4,209 285.8,208.9 286.2,208.7 
		286.6,208.6 287,208.4 287.4,208.2 287.8,208 288.1,207.8 288.4,207.5 288.7,207.2 289,206.9 289.3,206.6 289.5,206.3 289.8,205.9 
		290,205.6 290.1,205.2 290.3,204.8 290.4,204.4 290.5,204.1 290.6,203.7 290.6,203.3 290.6,202.9 290.6,202.5 290.6,202.1 
		290.5,201.7 290.4,201.3 290.3,200.9 290.2,200.5 290,200.1 289.8,199.8 289.6,199.4 289.4,199.1 289.1,198.8 288.8,198.5 
		288.5,198.2 288.2,197.9 287.8,197.7 287.5,197.5 287.1,197.3 286.7,197.1 286.3,196.9 285.9,196.8 	"/>
</g>
<g id="ID000031">
	<polygon class="st9" points="284.5,226.4 287.8,214.2 274.7,211.1 271.4,223.3 	"/>
</g>
<g id="ID000032">
	<line class="st7" x1="320.8" y1="191.5" x2="310.4" y2="230.1"/>
</g>
<g id="ID000033">
	<polygon class="st10" points="319.4,196.7 318.9,196.6 318.5,196.6 318.1,196.5 317.6,196.5 317.2,196.5 316.8,196.6 316.4,196.6 
		316,196.7 315.5,196.9 315.1,197 314.7,197.1 314.4,197.3 314,197.6 313.6,197.8 313.3,198 313,198.3 312.7,198.6 312.4,198.9 
		312.2,199.2 311.9,199.6 311.7,199.9 311.5,200.2 311.4,200.6 311.2,201 311.1,201.4 311,201.8 311,202.2 311,202.6 310.9,203 
		311,203.4 311,203.8 311.1,204.2 311.2,204.6 311.3,204.9 311.5,205.3 311.7,205.7 311.9,206 312.1,206.4 312.4,206.7 312.6,207 
		312.9,207.3 313.2,207.6 313.6,207.8 313.9,208.1 314.3,208.3 314.7,208.5 315,208.6 315.5,208.8 315.9,208.9 316.3,209 
		316.7,209.1 317.1,209.1 317.5,209.1 318,209.1 318.4,209.1 318.8,209.1 319.2,209 319.7,208.9 320.1,208.7 320.5,208.6 
		320.9,208.4 321.2,208.2 321.6,208 321.9,207.8 322.3,207.5 322.6,207.2 322.9,206.9 323.1,206.6 323.4,206.3 323.6,205.9 
		323.8,205.6 324,205.2 324.1,204.8 324.2,204.4 324.3,204.1 324.4,203.7 324.5,203.3 324.5,202.9 324.5,202.5 324.4,202.1 
		324.4,201.7 324.3,201.3 324.1,200.9 324,200.5 323.8,200.1 323.6,199.8 323.4,199.4 323.2,199.1 322.9,198.8 322.6,198.5 
		322.3,198.2 322,197.9 321.7,197.7 321.3,197.5 320.9,197.3 320.6,197.1 320.2,196.9 319.8,196.8 	"/>
</g>
<g id="ID000034">
	<polygon class="st9" points="318.4,226.4 321.6,214.2 308.5,211.1 305.2,223.3 	"/>
</g>
<g id="ID000035">
	<line class="st7" x1="354.6" y1="191.5" x2="344.2" y2="230.1"/>
</g>
<g id="ID000036">
	<polygon class="st10" points="353.2,196.7 352.8,196.6 352.3,196.6 351.9,196.5 351.5,196.5 351,196.5 350.6,196.6 350.2,196.6 
		349.8,196.7 349.4,196.9 349,197 348.6,197.1 348.2,197.3 347.8,197.6 347.5,197.8 347.1,198 346.8,198.3 346.5,198.6 346.2,198.9 
		346,199.2 345.8,199.6 345.5,199.9 345.4,200.2 345.2,200.6 345,201 344.9,201.4 344.9,201.8 344.8,202.2 344.8,202.6 344.8,203 
		344.8,203.4 344.8,203.8 344.9,204.2 345,204.6 345.2,204.9 345.3,205.3 345.5,205.7 345.7,206 345.9,206.4 346.2,206.7 346.5,207 
		346.8,207.3 347.1,207.6 347.4,207.8 347.7,208.1 348.1,208.3 348.5,208.5 348.9,208.6 349.3,208.8 349.7,208.9 350.1,209 
		350.5,209.1 351,209.1 351.4,209.1 351.8,209.1 352.2,209.1 352.7,209.1 353.1,209 353.5,208.9 353.9,208.7 354.3,208.6 
		354.7,208.4 355.1,208.2 355.4,208 355.8,207.8 356.1,207.5 356.4,207.2 356.7,206.9 357,206.6 357.2,206.3 357.4,205.9 
		357.6,205.6 357.8,205.2 357.9,204.8 358.1,204.4 358.2,204.1 358.2,203.7 358.3,203.3 358.3,202.9 358.3,202.5 358.2,202.1 
		358.2,201.7 358.1,201.3 358,200.9 357.8,200.5 357.7,200.1 357.5,199.8 357.2,199.4 357,199.1 356.7,198.8 356.5,198.5 
		356.1,198.2 355.8,197.9 355.5,197.7 355.1,197.5 354.8,197.3 354.4,197.1 354,196.9 353.6,196.8 	"/>
</g>
<g id="ID000037">
	<polygon class="st9" points="352.2,226.4 355.5,214.2 342.3,211.1 339.1,223.3 	"/>
</g>
<g id="ID000038">
	<line class="st7" x1="402.5" y1="186.8" x2="516.2" y2="266.3"/>
</g>
<g id="ID000039">
	<polygon class="st9" points="466.4,231.5 460.4,218.4 451.2,229.8 	"/>
</g>
<g id="ID000040">
	<polyline class="st7" points="547.3,242.4 357.9,242.4 357.9,242.4 357.9,242.4 354.5,242.4 	"/>
</g>
<g id="ID000041">
	<polygon class="st8" points="470.1,242.4 457,235.2 457,249.4 	"/>
</g>
<g id="ID000042">
	<polygon class="st8" points="437,242.4 437,242.8 437.1,243.1 437.1,243.5 437.2,243.9 437.3,244.3 437.5,244.7 437.7,245.1 
		437.9,245.4 438.1,245.8 438.3,246.1 438.6,246.4 438.9,246.7 439.2,247 439.5,247.2 439.8,247.5 440.2,247.7 440.6,247.9 
		441,248.1 441.4,248.2 441.8,248.4 442.2,248.5 442.6,248.6 443,248.6 443.5,248.6 443.9,248.7 444.3,248.6 444.7,248.6 
		445.2,248.5 445.6,248.4 446,248.3 446.4,248.2 446.8,248 447.1,247.8 447.5,247.6 447.9,247.4 448.2,247.1 448.5,246.9 
		448.8,246.6 449.1,246.2 449.3,245.9 449.6,245.6 449.8,245.2 450,244.9 450.1,244.5 450.3,244.1 450.4,243.7 450.5,243.4 
		450.5,242.9 450.5,242.6 450.5,242.1 450.5,241.8 450.5,241.4 450.4,241 450.3,240.6 450.1,240.2 450,239.8 449.8,239.5 
		449.6,239.1 449.3,238.8 449.1,238.4 448.8,238.1 448.5,237.9 448.2,237.6 447.9,237.3 447.5,237.1 447.1,236.9 446.8,236.7 
		446.4,236.5 446,236.4 445.6,236.3 445.2,236.2 444.7,236.1 444.3,236.1 443.9,236 443.5,236 443,236.1 442.6,236.1 442.2,236.2 
		441.8,236.3 441.4,236.4 441,236.6 440.6,236.8 440.2,237 439.8,237.2 439.5,237.4 439.2,237.7 438.9,238 438.6,238.3 438.3,238.6 
		438.1,238.9 437.9,239.3 437.7,239.6 437.5,240 437.3,240.4 437.2,240.8 437.1,241.1 437.1,241.6 437,241.9 	"/>
</g>
<g id="ID000043">
	<polyline class="st7" points="582.5,184.9 527,210.8 408.6,210.8 320,238.4 	"/>
</g>
<g id="ID000044">
	<polygon class="st9" points="459,210.8 472.2,217.9 472.2,203.7 	"/>
</g>
<g id="ID000046">
	<g>
		<text transform="matrix(1.07 0 0 1 413.1001 169.7598)" class="st11 st1 st2">U</text>
	</g>
</g>
<g id="ID000047">
	<g>
		<text transform="matrix(1.07 0 0 1 446.9199 153.98)" class="st11 st1 st2">U</text>
	</g>
</g>
<g id="ID000048">
	<g>
		<text transform="matrix(1.07 0 0 1 481.7002 153.98)" class="st4 st1 st2 st3">A</text>
	</g>
</g>
<g id="ID000049">
	<g>
		<text transform="matrix(1.07 0 0 1 514.5698 169.7598)" class="st4 st1 st2">U</text>
	</g>
</g>
<g id="ID000050">
	<g>
		<text transform="matrix(1.07 0 0 1 547.27 186.7998)" class="st4 st1 st2">G</text>
	</g>
</g>
<g id="ID000051">
	<g>
		<text transform="matrix(1.07 0 0 1 581.27 193.4302)" class="st12 st1 st2">G</text>
	</g>
</g>
<g id="ID000052">
	<g>
		<text transform="matrix(1.07 0 0 1 616.0498 193.4302)" class="st12 st1 st2">C</text>
	</g>
</g>
<g id="ID000053">
	<g>
		<text transform="matrix(1.07 0 0 1 648.9199 193.4302)" class="st12 st1 st2">G</text>
	</g>
</g>
<g id="ID000054">
	<line class="st5" x1="662.3" y1="158.2" x2="662.3" y2="137.1"/>
</g>
<g id="ID000055">
	<g>
		<text transform="matrix(1.07 0 0 1 648.9902 131.1406)" class="st1 st6">20</text>
	</g>
</g>
<g id="ID000056">
	<g>
		<text transform="matrix(1.07 0 0 1 683.7002 193.4302)" class="st12 st1 st2">C</text>
	</g>
</g>
<g id="ID000057">
	<g>
		<text transform="matrix(1.07 0 0 1 719.3799 190.7998)" class="st12 st1 st2">G</text>
	</g>
</g>
<g id="ID000058">
	<g>
		<text transform="matrix(1.07 0 0 1 721.29 261.8101)" class="st12 st1 st2 st3">A</text>
	</g>
</g>
<g id="ID000059">
	<g>
		<text transform="matrix(1.07 0 0 1 682.7402 256.5498)" class="st12 st1 st2">G</text>
	</g>
</g>
<g id="ID000060">
	<g>
		<text transform="matrix(1.07 0 0 1 649.8701 256.5498)" class="st12 st1 st2">C</text>
	</g>
</g>
<g id="ID000061">
	<g>
		<text transform="matrix(1.07 0 0 1 615.0898 256.5498)" class="st12 st1 st2">G</text>
	</g>
</g>
<g id="ID000062">
	<g>
		<text transform="matrix(1.07 0 0 1 582.2202 256.5498)" class="st12 st1 st2">C</text>
	</g>
</g>
<g id="ID000063">
	<g>
		<text transform="matrix(1.07 0 0 1 549.3501 256.5498)" class="st4 st1 st2 st3">A</text>
	</g>
</g>
<g id="ID000064">
	<line class="st5" x1="560.8" y1="263.4" x2="560.8" y2="284.4"/>
</g>
<g id="ID000065">
	<g>
		<text transform="matrix(1.07 0 0 1 547.2656 304.8218)" class="st1 st6">30</text>
	</g>
</g>
<g id="ID000066">
	<g>
		<text transform="matrix(1.07 0 0 1 513.6201 288.1099)" class="st4 st1 st2">G</text>
	</g>
</g>
<g id="ID000067">
	<g>
		<text transform="matrix(1.07 0 0 1 481.7002 296)" class="st11 st1 st2 st3">A</text>
	</g>
</g>
<g id="ID000068">
	<g>
		<text transform="matrix(1.07 0 0 1 445.9702 288.1099)" class="st4 st1 st2">G</text>
	</g>
</g>
<g id="ID000069">
	<line class="st7" x1="560.8" y1="191.9" x2="560.8" y2="229.7"/>
</g>
<g id="ID000070">
	<polygon class="st8" points="560.8,217.1 561.2,217.1 561.7,217.1 562.1,217 562.5,216.9 562.9,216.8 563.3,216.6 563.7,216.5 
		564.1,216.3 564.5,216.1 564.8,215.9 565.2,215.6 565.5,215.4 565.8,215.1 566,214.8 566.3,214.4 566.5,214.1 566.8,213.8 
		567,213.4 567.1,213 567.3,212.7 567.4,212.3 567.5,211.9 567.5,211.5 567.6,211.1 567.6,210.7 567.5,210.3 567.5,209.9 
		567.4,209.5 567.3,209.1 567.2,208.7 567,208.4 566.9,208 566.7,207.6 566.4,207.3 566.2,207 565.9,206.6 565.6,206.4 565.3,206.1 
		565,205.8 564.6,205.6 564.3,205.4 563.9,205.2 563.5,205 563.1,204.9 562.7,204.7 562.3,204.6 561.9,204.6 561.5,204.5 561,204.5 
		560.6,204.5 560.2,204.5 559.7,204.6 559.3,204.6 558.9,204.7 558.5,204.9 558.1,205 557.7,205.2 557.3,205.4 557,205.6 
		556.6,205.8 556.3,206.1 556,206.4 555.7,206.6 555.4,207 555.2,207.3 555,207.6 554.7,208 554.6,208.4 554.4,208.7 554.3,209.1 
		554.2,209.5 554.1,209.9 554.1,210.3 554,210.7 554,211.1 554.1,211.5 554.1,211.9 554.2,212.3 554.3,212.7 554.5,213 554.7,213.4 
		554.8,213.8 555.1,214.1 555.3,214.4 555.5,214.8 555.8,215.1 556.1,215.4 556.5,215.6 556.8,215.9 557.2,216.1 557.5,216.3 
		557.9,216.5 558.3,216.6 558.7,216.8 559.1,216.9 559.5,217 560,217.1 560.4,217.1 	"/>
</g>
<g id="ID000071">
	<line class="st7" x1="594.6" y1="191.9" x2="594.6" y2="229.7"/>
</g>
<g id="ID000072">
	<line class="st7" x1="628.5" y1="191.9" x2="628.5" y2="229.7"/>
</g>
<g id="ID000073">
	<line class="st7" x1="662.3" y1="191.9" x2="662.3" y2="229.7"/>
</g>
<g id="ID000074">
	<line class="st7" x1="696.1" y1="191.9" x2="696.1" y2="229.7"/>
</g>
<g id="ID000075">
	<line class="st7" x1="732.8" y1="189.2" x2="732.8" y2="235"/>
</g>
<g id="ID000076">
	<polygon class="st9" points="732.8,195.7 725.1,208 740.4,208 	"/>
</g>
<g id="ID000077">
	<polygon class="st9" points="739.5,226.6 739.5,214 726,214 726,226.6 	"/>
</g>
<g id="ID000079">
	<line class="st7" x1="446.3" y1="270.4" x2="354" y2="245.8"/>
</g>
<g id="ID000080">
	<polygon class="st8" points="408.2,270.1 404.2,264.1 399.2,261.2 394,259 383.9,253.8 395.4,254.4 401.1,255.1 407,255 
		413.8,251.9 	"/>
</g>
<g>
	<text transform="matrix(1.07 0 0 1 37.3599 146.4199)" class="st1 st6">5</text>
	<text transform="matrix(1.07 0 0 1 53.79 146.4199)" class="st1 st6">’</text>
</g>
<g>
	<text transform="matrix(1.05 0 0 1 34.2998 297.96)" class="st1 st6">3</text>
	<text transform="matrix(1.05 0 0 1 50.7397 297.96)" class="st1 st6 st13">’</text>
</g>
<g id="ID000002-2">
	<g>
		<text transform="matrix(1.07 0 0 1 92.6299 193.4302)" class="st14 st1 st2">C</text>
	</g>
</g>
<g id="ID000004-2">
	<g>
		<text transform="matrix(1.07 0 0 1 34.2998 193.4302)" class="st14 st1 st2">G</text>
	</g>
</g>
<g id="ID000004-3">
	<g>
		<text transform="matrix(1.07 0 0 1 63.8301 193.4302)" class="st14 st1 st2">G</text>
	</g>
</g>
<g id="ID000058-2">
	<g>
		<text transform="matrix(1.05 0 0 1 755.75 240.5801)" class="st14 st1 st15 st16">A</text>
	</g>
</g>
<g id="ID000058-3">
	<g>
		<text transform="matrix(1.05 0 0 1 755.7002 205.5498)" class="st12 st1 st15 st16">A</text>
	</g>
</g>
<g id="ID000011-2">
	<g>
		<text transform="matrix(1.05 0 0 1 63.8999 255.0601)" class="st14 st1 st15">U</text>
	</g>
</g>
<g id="ID000002-3">
	<g>
		<text transform="matrix(1.05 0 0 1 34.2998 255.0601)" class="st14 st1 st15">C</text>
	</g>
</g>
<g>
	<text transform="matrix(1 0 0 1 266.5966 41.9982)" class="st1 st17">TetR binding RNA aptamer K1</text>
</g>
</svg>
