<?xml version="1.0" encoding="utf-8"?>
<!-- Generator: Adobe Illustrator 25.2.0, SVG Export Plug-In . SVG Version: 6.00 Build 0)  -->
<svg version="1.1" id="_图层_1" xmlns="http://www.w3.org/2000/svg" xmlns:xlink="http://www.w3.org/1999/xlink" x="0px" y="0px"
	 viewBox="0 0 800 400" style="enable-background:new 0 0 800 400;" xml:space="preserve">
<style type="text/css">
	.st0{font-family:'ArialMT';}
	.st1{font-size:21px;}
	.st2{fill:#B83233;}
	.st3{font-size:12.28px;}
	.st4{fill:#2EA103;}
	.st5{fill:#F17D07;}
	.st6{fill:none;stroke:#000000;stroke-width:0.8;stroke-miterlimit:6.4;}
	.st7{fill:none;stroke:#000000;stroke-miterlimit:6.4;}
	.st8{stroke:#000000;stroke-miterlimit:6.4;}
	.st9{fill:#FFFFFF;stroke:#000000;stroke-width:0.8;stroke-miterlimit:6.4;}
	.st10{stroke:#000000;stroke-width:0.8;stroke-miterlimit:6.4;}
	.st11{fill:#CF3E7D;}
	.st12{fill:#C2B617;}
	.st13{fill:#084595;}
	.st14{fill:#8527B5;stroke:#FFFFFF;stroke-miterlimit:6.4;}
	.st15{fill:#FFFFFF;}
	.st16{font-size:8.33px;}
	.st17{font-size:13.64px;}
</style>
<text transform="matrix(1 0 0 1 287.91 35.1801)" class="st0 st1">Tetracycline aptamer</text>
<g id="ID000002">
	<text transform="matrix(1 0 0 1 384.91 360.03)" class="st2 st0 st3">G</text>
</g>
<g id="ID000003">
	<text transform="matrix(1 0 0 1 385.59 347.65)" class="st2 st0 st3">A</text>
</g>
<g id="ID000004">
	<text transform="matrix(1 0 0 1 384.91 335.26)" class="st2 st0 st3">G</text>
</g>
<g id="ID000005">
	<text transform="matrix(1 0 0 1 384.91 322.88)" class="st2 st0 st3">G</text>
</g>
<g id="ID000006">
	<text transform="matrix(1 0 0 1 384.91 310.5)" class="st2 st0 st3">G</text>
</g>
<g id="ID000007">
	<text transform="matrix(1 0 0 1 388.79 299.19)" class="st4 st0 st3">A</text>
</g>
<g id="ID000008">
	<text transform="matrix(1 0 0 1 397.29 289.9)" class="st4 st0 st3">G</text>
</g>
<g id="ID000009">
	<text transform="matrix(1 0 0 1 329.53 271.33)" class="st4 st0 st3">C</text>
</g>
<g id="ID000010">
	<text transform="matrix(1 0 0 1 339.15 283.71)" class="st4 st0 st3">A</text>
</g>
<g id="ID000011">
	<text transform="matrix(1 0 0 1 348.1 293)" class="st4 st0 st3">U</text>
</g>
<g id="ID000012">
	<text transform="matrix(1 0 0 1 357.73 299.19)" class="st5 st0 st3">A</text>
</g>
<g id="ID000013">
	<line class="st6" x1="356" y1="299.5" x2="350.1" y2="305.3"/>
</g>
<g id="ID000014">
	<text transform="matrix(1 0 0 1 336.49 319.9)" class="st0 st3">60</text>
</g>
<g id="ID000015">
	<text transform="matrix(1 0 0 1 360.48 310.5)" class="st2 st0 st3">C</text>
</g>
<g id="ID000016">
	<text transform="matrix(1 0 0 1 360.48 322.88)" class="st2 st0 st3">C</text>
</g>
<g id="ID000017">
	<text transform="matrix(1 0 0 1 360.48 335.26)" class="st2 st0 st3">C</text>
</g>
<g id="ID000018">
	<text transform="matrix(1 0 0 1 360.48 347.65)" class="st2 st0 st3">U</text>
</g>
<g id="ID000019">
	<text transform="matrix(1 0 0 1 360.48 360.03)" class="st2 st0 st3">C</text>
</g>
<g id="ID000020">
	<line class="st7" x1="384.7" y1="355.5" x2="369.9" y2="355.5"/>
</g>
<g id="ID000021">
	<line class="st7" x1="384.7" y1="343.1" x2="369.9" y2="343.1"/>
</g>
<g id="ID000022">
	<line class="st7" x1="384.7" y1="330.8" x2="369.9" y2="330.8"/>
</g>
<g id="ID000023">
	<line class="st7" x1="384.7" y1="318.4" x2="369.9" y2="318.4"/>
</g>
<g id="ID000024">
	<line class="st7" x1="384.7" y1="306" x2="369.9" y2="306"/>
</g>
<g id="ID000025">
	<line class="st7" x1="386.7" y1="294.9" x2="368.7" y2="294.9"/>
</g>
<g id="ID000026">
	<polygon class="st8" points="373.3,294.7 373.3,294.8 373.3,295 373.3,295.1 373.4,295.3 373.4,295.5 373.5,295.6 373.5,295.8 
		373.6,295.9 373.7,296 373.8,296.1 373.9,296.3 374,296.4 374.1,296.5 374.2,296.6 374.3,296.7 374.5,296.8 374.6,296.9 
		374.7,296.9 374.9,297 375,297 375.2,297.1 375.3,297.1 375.5,297.1 375.6,297.2 375.8,297.2 376,297.1 376.1,297.1 376.3,297.1 
		376.4,297.1 376.6,297 376.7,297 376.9,296.9 377,296.8 377.1,296.8 377.2,296.7 377.4,296.6 377.5,296.5 377.6,296.3 377.7,296.2 
		377.8,296.1 377.9,296 378,295.8 378,295.7 378.1,295.5 378.1,295.4 378.2,295.2 378.2,295.1 378.2,294.9 378.2,294.8 378.2,294.6 
		378.2,294.5 378.2,294.3 378.2,294.1 378.1,294 378.1,293.8 378,293.7 378,293.5 377.9,293.4 377.8,293.3 377.7,293.1 377.6,293 
		377.5,292.9 377.4,292.8 377.2,292.7 377.1,292.6 377,292.5 376.9,292.5 376.7,292.4 376.6,292.3 376.4,292.3 376.3,292.3 
		376.1,292.2 376,292.2 375.8,292.2 375.6,292.2 375.5,292.2 375.3,292.2 375.2,292.3 375,292.3 374.9,292.4 374.7,292.4 
		374.6,292.5 374.5,292.6 374.3,292.7 374.2,292.8 374.1,292.9 374,293 373.9,293.1 373.8,293.2 373.7,293.4 373.6,293.5 
		373.5,293.6 373.5,293.8 373.4,293.9 373.4,294.1 373.3,294.2 373.3,294.4 373.3,294.5 	"/>
</g>
<g id="ID000027">
	<line class="st6" x1="397.1" y1="283.8" x2="348.2" y2="278.7"/>
</g>
<g id="ID000028">
	<polygon class="st9" points="378.3,281.8 378.3,281.7 378.3,281.5 378.3,281.4 378.3,281.2 378.3,281 378.2,280.9 378.2,280.8 
		378.1,280.6 378.1,280.5 378,280.3 377.9,280.2 377.8,280.1 377.7,279.9 377.6,279.8 377.5,279.7 377.4,279.6 377.2,279.5 
		377.1,279.4 377,279.4 376.8,279.3 376.7,279.2 376.5,279.2 376.4,279.1 376.2,279.1 376.1,279.1 375.9,279.1 375.8,279.1 
		375.6,279.1 375.5,279.1 375.3,279.2 375.1,279.2 375,279.2 374.9,279.3 374.7,279.4 374.6,279.5 374.4,279.5 374.3,279.6 
		374.2,279.7 374.1,279.8 374,280 373.9,280.1 373.8,280.2 373.7,280.4 373.6,280.5 373.6,280.6 373.5,280.8 373.5,280.9 
		373.4,281.1 373.4,281.2 373.4,281.4 373.4,281.5 373.4,281.7 373.4,281.9 373.4,282 373.5,282.2 373.5,282.3 373.5,282.5 
		373.6,282.6 373.7,282.8 373.8,282.9 373.9,283 373.9,283.1 374,283.3 374.2,283.4 374.3,283.5 374.4,283.6 374.5,283.7 
		374.7,283.7 374.8,283.8 375,283.9 375.1,283.9 375.2,284 375.4,284 375.6,284 375.7,284 375.9,284 376,284 376.2,284 376.3,284 
		376.5,284 376.6,283.9 376.8,283.9 376.9,283.8 377.1,283.7 377.2,283.6 377.3,283.6 377.5,283.5 377.6,283.4 377.7,283.2 
		377.8,283.1 377.9,283 378,282.9 378,282.7 378.1,282.6 378.2,282.4 378.2,282.3 378.3,282.1 378.3,282 	"/>
</g>
<g id="ID000029">
	<polygon class="st9" points="366.7,283.1 371.7,283.6 372.2,278.7 367.2,278.2 	"/>
</g>
<polyline class="st7" points="497.9,208.6 497.5,198 332,198 332,261.1 331.6,261.5 "/>
<g id="ID000031">
	<polygon class="st9" points="412,197.6 412,197.8 412,198 412,198.1 412,198.3 412.1,198.4 412.1,198.6 412.2,198.7 412.3,198.9 
		412.4,199 412.5,199.1 412.5,199.2 412.6,199.4 412.8,199.5 412.9,199.6 413,199.7 413.1,199.8 413.3,199.8 413.4,199.9 413.6,200 
		413.7,200 413.9,200.1 414,200.1 414.2,200.1 414.3,200.1 414.5,200.1 414.6,200.1 414.8,200.1 415,200.1 415.1,200 415.2,200 
		415.4,199.9 415.5,199.9 415.7,199.8 415.8,199.7 416,199.6 416.1,199.5 416.2,199.4 416.3,199.3 416.4,199.2 416.5,199.1 
		416.6,198.9 416.6,198.8 416.7,198.6 416.8,198.5 416.8,198.4 416.9,198.2 416.9,198.1 416.9,197.9 416.9,197.7 416.9,197.6 
		416.9,197.4 416.9,197.3 416.9,197.1 416.8,197 416.8,196.8 416.7,196.7 416.6,196.5 416.6,196.4 416.5,196.2 416.4,196.1 
		416.3,196 416.2,195.9 416.1,195.8 416,195.7 415.8,195.6 415.7,195.5 415.5,195.4 415.4,195.4 415.2,195.3 415.1,195.3 415,195.2 
		414.8,195.2 414.6,195.2 414.5,195.2 414.3,195.2 414.2,195.2 414,195.2 413.9,195.2 413.7,195.3 413.6,195.3 413.4,195.4 
		413.3,195.5 413.1,195.6 413,195.6 412.9,195.7 412.8,195.8 412.6,195.9 412.5,196.1 412.5,196.2 412.4,196.3 412.3,196.4 
		412.2,196.6 412.1,196.7 412.1,196.9 412,197 412,197.2 412,197.3 412,197.5 	"/>
</g>
<g id="ID000032">
	<polyline class="st7" points="477.6,211.4 343.5,211.4 344.3,274.5 	"/>
</g>
<g id="ID000033">
	<polygon class="st10" points="416.2,208.6 411.3,208.6 411.3,213.6 416.2,213.6 	"/>
</g>
<g id="ID000034">
	<polygon class="st10" points="404.8,211.1 404.8,211.3 404.9,211.4 404.9,211.6 404.9,211.7 405,211.9 405,212 405.1,212.2 
		405.1,212.3 405.2,212.4 405.3,212.6 405.4,212.7 405.5,212.8 405.6,212.9 405.8,213 405.9,213.1 406,213.2 406.1,213.3 
		406.3,213.4 406.4,213.4 406.6,213.5 406.7,213.5 406.9,213.5 407,213.6 407.2,213.6 407.4,213.6 407.5,213.6 407.7,213.6 
		407.8,213.5 408,213.5 408.1,213.4 408.3,213.4 408.4,213.3 408.5,213.2 408.7,213.2 408.8,213.1 408.9,213 409,212.9 409.2,212.8 
		409.3,212.6 409.4,212.5 409.4,212.4 409.5,212.2 409.6,212.1 409.6,211.9 409.7,211.8 409.7,211.6 409.8,211.5 409.8,211.3 
		409.8,211.2 409.8,211 409.8,210.9 409.8,210.7 409.7,210.6 409.7,210.4 409.6,210.3 409.6,210.1 409.5,210 409.4,209.8 
		409.4,209.7 409.3,209.6 409.2,209.4 409,209.3 408.9,209.2 408.8,209.1 408.7,209 408.5,209 408.4,208.9 408.3,208.8 408.1,208.8 
		408,208.7 407.8,208.7 407.7,208.6 407.5,208.6 407.4,208.6 407.2,208.6 407,208.6 406.9,208.7 406.7,208.7 406.6,208.7 
		406.4,208.8 406.3,208.9 406.1,208.9 406,209 405.9,209.1 405.8,209.2 405.6,209.3 405.5,209.4 405.4,209.5 405.3,209.6 
		405.2,209.8 405.1,209.9 405.1,210 405,210.2 405,210.3 404.9,210.5 404.9,210.6 404.9,210.8 404.8,210.9 	"/>
</g>
<g id="ID000036">
	<text transform="matrix(1 0 0 1 391.44 221.8)" class="st11 st0 st3">U</text>
</g>
<g id="ID000037">
	<text transform="matrix(1 0 0 1 391.78 209.42)" class="st11 st0 st3">A</text>
</g>
<g id="ID000038">
	<text transform="matrix(1 0 0 1 391.1 197.03)" class="st11 st0 st3">G</text>
</g>
<g id="ID000041">
	<text transform="matrix(1 0 0 1 391.1 184.65)" class="st11 st0 st3">G</text>
</g>
<g id="ID000042">
	<text transform="matrix(1 0 0 1 391.44 172.27)" class="st11 st0 st3">U</text>
</g>
<g id="ID000043">
	<text transform="matrix(1 0 0 1 391.78 159.89)" class="st11 st0 st3">A</text>
</g>
<g id="ID000044">
	<text transform="matrix(1 0 0 1 391.44 147.51)" class="st11 st0 st3">C</text>
</g>
<g id="ID000051">
	<line class="st6" x1="389.8" y1="64.2" x2="397.5" y2="63.3"/>
</g>
<g id="ID000052">
	<text transform="matrix(1 0 0 1 399.31 66.34)" class="st0 st3">40</text>
</g>
<g id="ID000059">
	<text transform="matrix(1 0 0 1 366.33 147.51)" class="st11 st0 st3">G</text>
</g>
<g id="ID000060">
	<text transform="matrix(1 0 0 1 366.67 159.89)" class="st11 st0 st3">U</text>
</g>
<g id="ID000061">
	<text transform="matrix(1 0 0 1 367.01 172.27)" class="st11 st0 st3">A</text>
</g>
<g id="ID000062">
	<text transform="matrix(1 0 0 1 366.67 184.65)" class="st11 st0 st3">C</text>
</g>
<g id="ID000063">
	<line class="st6" x1="365.3" y1="173.2" x2="359.4" y2="167.4"/>
</g>
<g id="ID000064">
	<text transform="matrix(1 0 0 1 345.78 164.3101)" class="st0 st3">50</text>
</g>
<g id="ID000065">
	<text transform="matrix(1 0 0 1 366.67 197.03)" class="st11 st0 st3">C</text>
</g>
<g id="ID000066">
	<text transform="matrix(1 0 0 1 366.67 209.42)" class="st11 st0 st3">U</text>
</g>
<g id="ID000067">
	<text transform="matrix(1 0 0 1 367.01 221.8)" class="st11 st0 st3">A</text>
</g>
<g id="ID000068">
	<text transform="matrix(1 0 0 1 354.63 231.09)" class="st4 st0 st3">A</text>
</g>
<g id="ID000069">
	<text transform="matrix(1 0 0 1 345.34 243.47)" class="st4 st0 st3">A</text>
</g>
<g id="ID000070">
	<text transform="matrix(1 0 0 1 332.96 255.85)" class="st4 st0 st3">A</text>
</g>
<g id="ID000071">
	<line class="st7" x1="390.9" y1="217.3" x2="376.1" y2="217.3"/>
</g>
<g id="ID000072">
	<line class="st7" x1="390.9" y1="204.9" x2="376.1" y2="204.9"/>
</g>
<g id="ID000073">
	<line class="st7" x1="390.9" y1="192.5" x2="376.1" y2="192.5"/>
</g>
<g id="ID000074">
	<line class="st7" x1="390.9" y1="180.1" x2="376.1" y2="180.1"/>
</g>
<g id="ID000075">
	<line class="st7" x1="390.9" y1="167.8" x2="376.1" y2="167.8"/>
</g>
<g id="ID000076">
	<line class="st7" x1="390.9" y1="155.4" x2="376.1" y2="155.4"/>
</g>
<g id="ID000077">
	<line class="st7" x1="390.9" y1="143" x2="376.1" y2="143"/>
</g>
<g id="ID000045">
	<text transform="matrix(1 0 0 1 391.44 135.12)" class="st11 st0 st3">C</text>
</g>
<g id="ID000046">
	<text transform="matrix(1 0 0 1 404.16 122.74)" class="st12 st0 st3">A</text>
</g>
<g id="ID000047">
	<text transform="matrix(1 0 0 1 406.92 107.26)" class="st12 st0 st3">U</text>
</g>
<g id="ID000048">
	<text transform="matrix(1 0 0 1 406.92 91.79)" class="st12 st0 st3">U</text>
</g>
<g id="ID000049">
	<text transform="matrix(1 0 0 1 394.19 79.4)" class="st12 st0 st3">G</text>
</g>
<g id="ID000050">
	<text transform="matrix(1 0 0 1 379.06 70.12)" class="st12 st0 st3">C</text>
</g>
<g id="ID000053">
	<text transform="matrix(1 0 0 1 363.92 70.12)" class="st12 st0 st3">A</text>
</g>
<g id="ID000054">
	<text transform="matrix(1 0 0 1 351.2 79.4)" class="st12 st0 st3">C</text>
</g>
<g id="ID000055">
	<text transform="matrix(1 0 0 1 341.91 94.88)" class="st12 st0 st3">U</text>
</g>
<g id="ID000056">
	<text transform="matrix(1 0 0 1 341.91 110.36)" class="st12 st0 st3">C</text>
</g>
<g id="ID000057">
	<text transform="matrix(1 0 0 1 351.2 125.84)" class="st12 st0 st3">C</text>
</g>
<g id="ID000058">
	<text transform="matrix(1 0 0 1 366.33 135.12)" class="st11 st0 st3">G</text>
</g>
<g id="ID000078">
	<line class="st7" x1="390.9" y1="130.6" x2="376.1" y2="130.6"/>
</g>
<g id="ID000079">
	<polyline class="st7" points="508.3,222.9 508.3,187.6 338.1,187.6 338.1,247.7 	"/>
</g>
<g id="ID000080">
	<polygon class="st9" points="419.7,187.4 419.7,187.6 419.7,187.7 419.8,187.9 419.8,188 419.8,188.2 419.9,188.3 420,188.5 
		420,188.6 420.1,188.8 420.2,188.9 420.3,189 420.4,189.1 420.5,189.2 420.6,189.3 420.7,189.4 420.9,189.5 421,189.6 421.1,189.7 
		421.3,189.7 421.5,189.8 421.6,189.8 421.8,189.9 421.9,189.9 422.1,189.9 422.2,189.9 422.4,189.9 422.5,189.9 422.7,189.8 
		422.8,189.8 423,189.8 423.1,189.7 423.3,189.6 423.4,189.6 423.5,189.5 423.7,189.4 423.8,189.3 423.9,189.2 424,189.1 
		424.1,188.9 424.2,188.8 424.3,188.7 424.4,188.6 424.5,188.4 424.5,188.3 424.6,188.1 424.6,188 424.6,187.8 424.6,187.6 
		424.7,187.5 424.7,187.3 424.6,187.2 424.6,187 424.6,186.9 424.6,186.7 424.5,186.6 424.5,186.4 424.4,186.3 424.3,186.1 
		424.2,186 424.1,185.9 424,185.8 423.9,185.6 423.8,185.5 423.7,185.4 423.5,185.4 423.4,185.3 423.3,185.2 423.1,185.1 423,185.1 
		422.8,185 422.7,185 422.5,185 422.4,184.9 422.2,184.9 422.1,184.9 421.9,184.9 421.8,185 421.6,185 421.5,185.1 421.3,185.1 
		421.1,185.2 421,185.2 420.9,185.3 420.7,185.4 420.6,185.5 420.5,185.6 420.4,185.7 420.3,185.8 420.2,185.9 420.1,186.1 
		420,186.2 420,186.4 419.9,186.5 419.8,186.6 419.8,186.8 419.8,186.9 419.7,187.1 419.7,187.2 	"/>
</g>
<g id="ID000082">
	<text transform="matrix(1 0 0 1 401.06 274.42)" class="st4 st0 st3">A</text>
</g>
<g id="ID000083">
	<text transform="matrix(1 0 0 1 403.48 258.94)" class="st13 st0 st3">G</text>
</g>
<g id="ID000085">
	<text transform="matrix(1 0 0 1 428.58 258.94)" class="st13 st0 st3">U</text>
</g>
<g id="ID000086">
	<text transform="matrix(1 0 0 1 440.63 258.94)" class="st13 st0 st3">G</text>
</g>
<g id="ID000087">
	<text transform="matrix(1 0 0 1 453.69 258.94)" class="st12 st0 st3">A</text>
</g>
<g id="ID000088">
	<text transform="matrix(1 0 0 1 463.99 265.48)" class="st12 st0 st3">A</text>
</g>
<g id="ID000089">
	<text transform="matrix(1 0 0 1 477.77 274.42)" class="st12 st0 st3">G</text>
</g>
<g id="ID000090">
	<text transform="matrix(1 0 0 1 490.83 268.23)" class="st12 st0 st3">A</text>
</g>
<g id="ID000091">
	<text transform="matrix(1 0 0 1 500.12 258.94)" class="st12 st0 st3">A</text>
</g>
<g id="ID000092">
	<text transform="matrix(1 0 0 1 505.97 246.56)" class="st12 st0 st3">U</text>
</g>
<g id="ID000093">
	<text transform="matrix(1 0 0 1 504.22 232.09)" class="st12 st0 st3">A</text>
</g>
<g id="ID000094">
	<text transform="matrix(1 0 0 1 493.59 218.7)" class="st12 st0 st3">C</text>
</g>
<g id="ID000095">
	<line class="st6" x1="506.3" y1="213.1" x2="514.5" y2="213.1"/>
</g>
<g id="ID000096">
	<text transform="matrix(1 0 0 1 514.53 218.7)" class="st0 st3">20</text>
</g>
<g id="ID000097">
	<text transform="matrix(1 0 0 1 477.77 215.61)" class="st12 st0 st3">G</text>
</g>
<g id="ID000098">
	<text transform="matrix(1 0 0 1 462.97 220.11)" class="st12 st0 st3">A</text>
</g>
<g id="ID000099">
	<text transform="matrix(1 0 0 1 453.35 227.99)" class="st12 st0 st3">C</text>
</g>
<g id="ID000100">
	<text transform="matrix(1 0 0 1 440.97 234.18)" class="st13 st0 st3">C</text>
</g>
<g id="ID000101">
	<text transform="matrix(1 0 0 1 428.92 234.18)" class="st13 st0 st3">A</text>
</g>
<g id="ID000102">
	<text transform="matrix(1 0 0 1 416.2 234.18)" class="st13 st0 st3">C</text>
</g>
<g id="ID000103">
	<text transform="matrix(1 0 0 1 403.82 234.18)" class="st13 st0 st3">C</text>
</g>
<path class="st7" d="M410.8,272.9c1.7,0,61.9-2.8,62.4-4.3l22.8-49.3"/>
<g id="ID000105">
	<polygon class="st10" points="481.5,252.9 481.7,252.9 481.8,252.9 482,252.8 482.1,252.8 482.3,252.8 482.4,252.7 482.6,252.6 
		482.7,252.6 482.8,252.5 483,252.4 483.1,252.3 483.2,252.2 483.3,252.1 483.4,252 483.5,251.8 483.6,251.7 483.7,251.6 
		483.8,251.4 483.8,251.3 483.9,251.1 483.9,251 483.9,250.8 484,250.7 484,250.5 484,250.4 484,250.2 484,250.1 483.9,249.9 
		483.9,249.7 483.8,249.6 483.8,249.4 483.7,249.3 483.6,249.2 483.6,249 483.5,248.9 483.4,248.8 483.3,248.7 483.1,248.6 
		483,248.5 482.9,248.4 482.8,248.3 482.6,248.2 482.5,248.1 482.4,248.1 482.2,248 482,248 481.9,248 481.7,247.9 481.6,247.9 
		481.4,247.9 481.3,247.9 481.1,248 481,248 480.8,248 480.6,248.1 480.5,248.1 480.4,248.2 480.2,248.3 480.1,248.4 480,248.5 
		479.9,248.6 479.7,248.7 479.6,248.8 479.5,248.9 479.4,249 479.4,249.2 479.3,249.3 479.2,249.4 479.2,249.6 479.1,249.7 
		479.1,249.9 479,250.1 479,250.2 479,250.4 479,250.5 479,250.7 479.1,250.8 479.1,251 479.1,251.1 479.2,251.3 479.2,251.4 
		479.3,251.6 479.4,251.7 479.5,251.8 479.6,252 479.7,252.1 479.8,252.2 479.9,252.3 480,252.4 480.2,252.5 480.3,252.6 
		480.4,252.6 480.6,252.7 480.7,252.8 480.9,252.8 481,252.8 481.2,252.9 481.3,252.9 	"/>
</g>
<g id="ID000106">
	<polygon class="st10" points="487.1,238 483.3,242.8 487.8,242.8 	"/>
</g>
<g id="ID000107">
	<line class="st7" x1="408.2" y1="249.5" x2="408.2" y2="234.6"/>
</g>
<g id="ID000108">
	<line class="st7" x1="420.6" y1="249.5" x2="420.6" y2="234.6"/>
</g>
<g id="ID000109">
	<line class="st7" x1="433" y1="249.5" x2="433" y2="234.6"/>
</g>
<g id="ID000110">
	<line class="st7" x1="445.4" y1="249.5" x2="445.4" y2="234.6"/>
</g>
<g id="ID000111">
	<line class="st7" x1="457.8" y1="249.5" x2="457.8" y2="228.4"/>
</g>
<g id="ID000112">
	<polygon class="st10" points="457.8,235.4 457.6,235.4 457.5,235.4 457.3,235.5 457.2,235.5 457,235.5 456.9,235.6 456.7,235.7 
		456.6,235.7 456.4,235.8 456.3,235.9 456.2,236 456.1,236.1 456,236.2 455.9,236.3 455.8,236.5 455.7,236.6 455.6,236.7 
		455.5,236.9 455.5,237 455.4,237.2 455.4,237.3 455.3,237.5 455.3,237.6 455.3,237.8 455.3,237.9 455.3,238.1 455.3,238.2 
		455.4,238.4 455.4,238.6 455.4,238.7 455.5,238.9 455.6,239 455.6,239.1 455.7,239.3 455.8,239.4 455.9,239.5 456,239.6 
		456.1,239.7 456.2,239.8 456.4,239.9 456.5,240 456.6,240.1 456.8,240.2 456.9,240.2 457.1,240.3 457.2,240.3 457.4,240.3 
		457.5,240.4 457.7,240.4 457.9,240.4 458,240.4 458.2,240.3 458.3,240.3 458.5,240.3 458.6,240.2 458.8,240.2 458.9,240.1 
		459.1,240 459.2,239.9 459.3,239.8 459.4,239.7 459.5,239.6 459.6,239.5 459.8,239.4 459.8,239.3 459.9,239.1 460,239 460.1,238.9 
		460.1,238.7 460.2,238.6 460.2,238.4 460.2,238.2 460.2,238.1 460.3,237.9 460.3,237.8 460.2,237.6 460.2,237.5 460.2,237.3 
		460.1,237.2 460.1,237 460,236.9 460,236.7 459.9,236.6 459.8,236.5 459.7,236.3 459.6,236.2 459.5,236.1 459.4,236 459.2,235.9 
		459.1,235.8 459,235.7 458.9,235.7 458.7,235.6 458.6,235.5 458.4,235.5 458.2,235.5 458.1,235.4 457.9,235.4 	"/>
</g>
<rect x="351.1" y="248.2" class="st14" width="45.8" height="22.8"/>
<text transform="matrix(1 0 0 1 352.2771 262.7775)" class="st15 st0 st16">Tetracycline</text>
<g id="ID000083-2">
	<text transform="matrix(1 0 0 1 415.96 258.95)" class="st13 st0 st3">G</text>
</g>
<text transform="matrix(1 0 0 1 385.57 376.42)" class="st0 st17">5</text>
<text transform="matrix(1 0 0 1 393.16 376.42)" class="st0 st17">’</text>
<text transform="matrix(0.87 0 0 1 361.2598 376.5801)" class="st0 st17">3</text>
<text transform="matrix(0.87 0 0 1 367.8633 376.5801)" class="st0 st17">’</text>
</svg>
