<svg id="图层_1" data-name="图层 1" xmlns="http://www.w3.org/2000/svg" viewBox="0 0 800 400">
  <defs>
    <style>
      .cls-1 {
        fill: #c2c2ff;
      }

      .cls-2 {
        fill: none;
        stroke: #000;
        stroke-linejoin: round;
        stroke-width: 1.33px;
      }

      .cls-3 {
        fill: #f0f;
      }

      .cls-4 {
        fill: #0a0bff;
      }

      .cls-5 {
        fill: #32cd32;
      }

      .cls-6 {
        fill: #ff870a;
      }

      .cls-7 {
        fill: #09fefe;
      }

      .cls-8 {
        fill: #ff0;
      }

      .cls-10, .cls-11, .cls-12, .cls-13, .cls-9 {
        isolation: isolate;
      }

      .cls-9 {
        font-size: 9.57px;
      }

      .cls-10, .cls-15, .cls-9 {
        font-family: ArialMT, Arial;
      }

      .cls-10, .cls-14 {
        font-size: 20px;
      }

      .cls-12, .cls-13 {
        font-size: 29.18px;
        font-family: ArialNarrow, Arial;
      }

      .cls-13 {
        letter-spacing: -0.06em;
      }

      .cls-14 {
        font-family: AdobeSongStd-Light-GBpc-EUC-H, Adobe Song Std;
      }
    </style>
  </defs>
  <path class="cls-1" d="M403.05,130.7v-2.45h9.25V136a16.76,16.76,0,0,1-4.41,2.45,13.61,13.61,0,0,1-4.63.82,13.07,13.07,0,0,1-5.85-1.32,8.9,8.9,0,0,1-4-3.83,11.55,11.55,0,0,1-1.35-5.54,12.45,12.45,0,0,1,1.34-5.67,8.7,8.7,0,0,1,3.84-3.91,12.46,12.46,0,0,1,5.77-1.27,11.55,11.55,0,0,1,4.27.72,7.09,7.09,0,0,1,3,2,9,9,0,0,1,1.65,3.4l-2.6.68a7.58,7.58,0,0,0-1.21-2.49,5.13,5.13,0,0,0-2.1-1.45,7.94,7.94,0,0,0-3-.55,9.54,9.54,0,0,0-3.43.57,6.46,6.46,0,0,0-2.33,1.51,7.56,7.56,0,0,0-1.38,2,10.42,10.42,0,0,0-.83,4.17,9.73,9.73,0,0,0,1,4.67,6.37,6.37,0,0,0,2.88,2.77,9.51,9.51,0,0,0,4.08,1,10.2,10.2,0,0,0,3.66-.69,9.88,9.88,0,0,0,2.71-1.46v-3.81Z"/>
  <path class="cls-1" d="M433.57,131.55l2.89.71a8.77,8.77,0,0,1-9,7,10.83,10.83,0,0,1-5.77-1.37,8.68,8.68,0,0,1-3.36-4,13.55,13.55,0,0,1-1.14-5.59,11.76,11.76,0,0,1,1.29-5.66,8.59,8.59,0,0,1,3.71-3.67,10.92,10.92,0,0,1,5.3-1.25A9.26,9.26,0,0,1,433,119.3a8.17,8.17,0,0,1,3.1,4.46l-2.88.64a6.44,6.44,0,0,0-2.2-3.3,6,6,0,0,0-3.61-1,7.37,7.37,0,0,0-4.22,1.13,6,6,0,0,0-2.37,3.06,12.85,12.85,0,0,0,.13,8.62,5.78,5.78,0,0,0,2.52,3,7.47,7.47,0,0,0,3.71,1,6.38,6.38,0,0,0,4.1-1.33A6.74,6.74,0,0,0,433.57,131.55Z"/>
  <path class="cls-1" d="M457.71,131.55l2.88.71a8.79,8.79,0,0,1-9,7,10.85,10.85,0,0,1-5.77-1.37,8.63,8.63,0,0,1-3.36-4,13.55,13.55,0,0,1-1.15-5.59,11.66,11.66,0,0,1,1.3-5.66,8.79,8.79,0,0,1,3.7-3.67,10.92,10.92,0,0,1,5.3-1.25,9.15,9.15,0,0,1,5.51,1.59,8.2,8.2,0,0,1,3.11,4.46l-2.88.64a6.38,6.38,0,0,0-2.2-3.3,6,6,0,0,0-3.61-1,7.32,7.32,0,0,0-4.21,1.13,6,6,0,0,0-2.37,3.06,12.7,12.7,0,0,0,.18,8.64,5.85,5.85,0,0,0,2.53,3,7.43,7.43,0,0,0,3.7,1,6.41,6.41,0,0,0,4.11-1.33A6.8,6.8,0,0,0,457.71,131.55Z"/>
  <path class="cls-1" d="M483.43,138.35V136h9.25v7.72a16.21,16.21,0,0,1-4.4,2.43,13.39,13.39,0,0,1-4.64.83,12.81,12.81,0,0,1-5.84-1.33,8.83,8.83,0,0,1-4-3.83,11.23,11.23,0,0,1-1.35-5.55,12.32,12.32,0,0,1,1.34-5.66,8.6,8.6,0,0,1,3.84-3.91,12.28,12.28,0,0,1,5.76-1.28,12,12,0,0,1,4.28.73,7.06,7.06,0,0,1,3,2,9.11,9.11,0,0,1,1.66,3.41l-2.62.67a7.32,7.32,0,0,0-1.22-2.49,5,5,0,0,0-2.08-1.46,8.18,8.18,0,0,0-3-.54,9.11,9.11,0,0,0-3.42.57,6.24,6.24,0,0,0-2.32,1.52,7.19,7.19,0,0,0-1.4,2,10.46,10.46,0,0,0-.82,4.18,9.54,9.54,0,0,0,1,4.64,6.27,6.27,0,0,0,2.88,2.79,9.34,9.34,0,0,0,4.08.9,10.19,10.19,0,0,0,3.66-.68,9.91,9.91,0,0,0,2.71-1.47v-3.88Z"/>
  <path class="cls-1" d="M496.72,131.2l8.38-20.81h3.1l8.95,20.81h-3.29l-2.56-6.31h-9.13l-2.38,6.31Zm6.31-8.55h7.4l-2.27-5.74c-.69-1.74-1.21-3.17-1.56-4.31a24.9,24.9,0,0,1-1.17,4Z"/>
  <path class="cls-1" d="M490.68,108.21l8.39-20.78h3.1l8.95,20.78h-3.3l-2.54-6.3h-9.09l-2.39,6.3Zm6.3-8.54h7.39l-2.26-5.73c-.7-1.75-1.21-3.18-1.55-4.31a27.39,27.39,0,0,1-1.17,4Z"/>
  <path class="cls-1" d="M472.6,91,481,70.18h3.11L493,91h-3.3l-2.56-6.31h-9.11L475.66,91Zm6.31-8.55h7.36L484,76.7c-.68-1.76-1.21-3.19-1.55-4.31a25.77,25.77,0,0,1-1.18,4Z"/>
  <path class="cls-1" d="M451.28,84.74V82.29h9.25V90a17.26,17.26,0,0,1-4.4,2.44,13.61,13.61,0,0,1-4.64.81A12.8,12.8,0,0,1,445.64,92a9,9,0,0,1-4-3.87,11.61,11.61,0,0,1-1.34-5.55,12.4,12.4,0,0,1,1.33-5.66A8.8,8.8,0,0,1,445.51,73a12.42,12.42,0,0,1,5.76-1.29,11.59,11.59,0,0,1,4.28.74,7.06,7.06,0,0,1,3,2,8.54,8.54,0,0,1,1.64,3.45l-2.6.68a7.44,7.44,0,0,0-1.21-2.48,5,5,0,0,0-2.09-1.46,7.82,7.82,0,0,0-3-.54,9.13,9.13,0,0,0-3.43.57,6.31,6.31,0,0,0-2.32,1.5,7.47,7.47,0,0,0-1.39,2,10.32,10.32,0,0,0-.82,4.18,9.69,9.69,0,0,0,1,4.66,6.29,6.29,0,0,0,2.93,2.77,9.51,9.51,0,0,0,4.08,1,10,10,0,0,0,3.65-.69,9.37,9.37,0,0,0,2.71-1.46V84.79Z"/>
  <path class="cls-1" d="M427.16,84.74V82.29h9.3V90a16.89,16.89,0,0,1-4.41,2.44,13.65,13.65,0,0,1-4.64.81A12.63,12.63,0,0,1,421.57,92a8.85,8.85,0,0,1-4-3.87,11.46,11.46,0,0,1-1.33-5.55,12.4,12.4,0,0,1,1.33-5.66A8.73,8.73,0,0,1,421.39,73a12.48,12.48,0,0,1,5.77-1.29,11.57,11.57,0,0,1,4.27.74,7.09,7.09,0,0,1,3,2,9,9,0,0,1,1.64,3.45l-2.61.68a7.44,7.44,0,0,0-1.21-2.48,5,5,0,0,0-2.09-1.46,7.75,7.75,0,0,0-3-.54,9.08,9.08,0,0,0-3.42.57,6.43,6.43,0,0,0-2.33,1.5,7.47,7.47,0,0,0-1.39,2,10.68,10.68,0,0,0-.83,4.18,9.71,9.71,0,0,0,1,4.69,6.33,6.33,0,0,0,2.88,2.84,9.59,9.59,0,0,0,4.09,1,10,10,0,0,0,3.66-.69,9.46,9.46,0,0,0,2.74-1.48V84.86Z"/>
  <path class="cls-1" d="M409.47,85.6l2.88.69a9.07,9.07,0,0,1-3.26,5.18,9.27,9.27,0,0,1-5.77,1.78,10.7,10.7,0,0,1-5.76-1.37,8.65,8.65,0,0,1-3.32-4,13.59,13.59,0,0,1-1.16-5.56,11.89,11.89,0,0,1,1.3-5.66A8.8,8.8,0,0,1,398.09,73a11.42,11.42,0,0,1,5.26-1.29,9.27,9.27,0,0,1,5.52,1.59A8.26,8.26,0,0,1,412,77.76l-2.88.65a6.42,6.42,0,0,0-2.2-3.31,6,6,0,0,0-3.61-1,7.26,7.26,0,0,0-4.21,1.14,6,6,0,0,0-2.37,3.06,12.73,12.73,0,0,0,.12,8.61,5.82,5.82,0,0,0,2.52,3,7.44,7.44,0,0,0,3.71,1,6.38,6.38,0,0,0,4.11-1.34A6.72,6.72,0,0,0,409.47,85.6Z"/>
  <line class="cls-2" x1="402.53" y1="66.43" x2="402.53" y2="51.1"/>
  <path d="M400.6,45.06v2h-9.7a4.45,4.45,0,0,1,.21-1.46,7.64,7.64,0,0,1,1.18-2.27,19.69,19.69,0,0,1,2.37-2.6,21.75,21.75,0,0,0,3.23-3.63,4.75,4.75,0,0,0,.85-2.52,3.09,3.09,0,0,0-.75-2.11,2.47,2.47,0,0,0-2-.84,2.63,2.63,0,0,0-2.1,1,3.84,3.84,0,0,0-.79,2.52l-1.85-.22a5.75,5.75,0,0,1,1.42-3.69A4.49,4.49,0,0,1,396,29.94a4.25,4.25,0,0,1,3.28,1.34,4.86,4.86,0,0,1,1.22,3.36,5.92,5.92,0,0,1-.35,2A8.44,8.44,0,0,1,399,38.75a32.09,32.09,0,0,1-2.78,3c-1.08,1-1.78,1.77-2.09,2.15a7.07,7.07,0,0,0-.76,1.14Zm1.78-6.45a18.1,18.1,0,0,1,.55-4.88,6.23,6.23,0,0,1,1.6-2.86,3.67,3.67,0,0,1,2.65-1,3.89,3.89,0,0,1,2.08.55A4.32,4.32,0,0,1,410.73,32a10,10,0,0,1,.92,2.52,20.88,20.88,0,0,1,.33,4,18.45,18.45,0,0,1-.53,4.88,6.46,6.46,0,0,1-1.59,2.86,3.74,3.74,0,0,1-2.68,1,3.85,3.85,0,0,1-3.35-1.74q-1.44-2.12-1.44-7Zm1.87,0q0,4.2.84,5.62a2.23,2.23,0,0,0,3.57.79,2.87,2.87,0,0,0,.61-.79q.86-1.42.85-5.62c0-2.82-.28-4.68-.85-5.61a2.47,2.47,0,0,0-2.11-1.4,2.24,2.24,0,0,0-1.94,1.22q-.95,1.6-1,5.79Z"/>
  <path class="cls-1" d="M379.32,79.86l2.88.69a8.83,8.83,0,0,1-9.06,7,10.79,10.79,0,0,1-5.76-1.37,8.6,8.6,0,0,1-3.36-4,13.48,13.48,0,0,1-1.17-5.57,12.06,12.06,0,0,1,1.31-5.67,8.61,8.61,0,0,1,3.71-3.68A11.36,11.36,0,0,1,373.19,66a9.35,9.35,0,0,1,5.5,1.59A8.22,8.22,0,0,1,381.81,72l-2.89.64a6.44,6.44,0,0,0-2.2-3.3,6.07,6.07,0,0,0-3.61-1,7.47,7.47,0,0,0-4.19,1.17,6.14,6.14,0,0,0-2.37,3.06,12.85,12.85,0,0,0,.13,8.61,5.8,5.8,0,0,0,2.53,2.94,7.07,7.07,0,0,0,3.71,1A6.41,6.41,0,0,0,377,83.76,6.74,6.74,0,0,0,379.32,79.86Z"/>
  <path class="cls-3" d="M349.14,79.86l2.89.69a8.81,8.81,0,0,1-9,7,10.85,10.85,0,0,1-5.77-1.37,8.68,8.68,0,0,1-3.37-4,13.66,13.66,0,0,1-1.15-5.57,11.81,11.81,0,0,1,1.3-5.67,8.7,8.7,0,0,1,3.7-3.68A11.43,11.43,0,0,1,343,66a9.33,9.33,0,0,1,5.51,1.59A8.29,8.29,0,0,1,351.65,72l-2.88.64a6.38,6.38,0,0,0-2.2-3.3,6,6,0,0,0-3.6-1,7.36,7.36,0,0,0-4.22,1.14,6.08,6.08,0,0,0-2.37,3.06,12.85,12.85,0,0,0,.12,8.61,5.85,5.85,0,0,0,2.53,3,7.22,7.22,0,0,0,3.7.95,6.41,6.41,0,0,0,4.11-1.33A6.77,6.77,0,0,0,349.14,79.86Z"/>
  <path class="cls-4" d="M359.9,351.34v-2.43h9.25v7.71a16.46,16.46,0,0,1-4.39,2.44,13.62,13.62,0,0,1-4.64.82,13.07,13.07,0,0,1-5.85-1.32,8.9,8.9,0,0,1-4-3.83,11.47,11.47,0,0,1-1.34-5.58,12.32,12.32,0,0,1,1.34-5.66,8.53,8.53,0,0,1,3.84-3.9,12.44,12.44,0,0,1,5.76-1.29,12,12,0,0,1,4.28.73,7.34,7.34,0,0,1,3,2,8.85,8.85,0,0,1,1.65,3.42l-2.61.66a7.32,7.32,0,0,0-1.22-2.49,5,5,0,0,0-2.09-1.45,7.75,7.75,0,0,0-3-.54,8.92,8.92,0,0,0-3.42.57,6.21,6.21,0,0,0-2.32,1.51,7.22,7.22,0,0,0-1.41,2,10.56,10.56,0,0,0-.84,4.19,9.68,9.68,0,0,0,1,4.65,6.3,6.3,0,0,0,2.88,2.78,9.29,9.29,0,0,0,4.07.9,10.21,10.21,0,0,0,3.67-.68,9,9,0,0,0,2.7-1.48v-3.87Z"/>
  <path class="cls-5" d="M360.87,320.28v-2.44h9.25v7.72a17,17,0,0,1-4.39,2.43,14,14,0,0,1-4.64.83,13,13,0,0,1-5.85-1.33,8.9,8.9,0,0,1-4-3.83,11.59,11.59,0,0,1-1.35-5.55,12.33,12.33,0,0,1,1.34-5.67,8.65,8.65,0,0,1,3.84-3.91,12.45,12.45,0,0,1,5.76-1.27,11.58,11.58,0,0,1,4.28.73,7.41,7.41,0,0,1,3,2,8.81,8.81,0,0,1,1.64,3.4l-2.6.67a8,8,0,0,0-1.21-2.48,5.26,5.26,0,0,0-2.1-1.46,8.14,8.14,0,0,0-3-.54,9.2,9.2,0,0,0-3.43.57,6.51,6.51,0,0,0-2.32,1.51,7.34,7.34,0,0,0-1.38,2,10.25,10.25,0,0,0-.83,4.17,9.55,9.55,0,0,0,1,4.65,6.3,6.3,0,0,0,2.88,2.78,9.35,9.35,0,0,0,4.08.91,10.2,10.2,0,0,0,3.66-.69,9.48,9.48,0,0,0,2.71-1.46v-3.88Z"/>
  <path class="cls-5" d="M367.29,298.17l2.88.69a8.77,8.77,0,0,1-9,7,10.71,10.71,0,0,1-5.76-1.38,8.6,8.6,0,0,1-3.36-4,13.75,13.75,0,0,1-1.16-5.56,11.79,11.79,0,0,1,1.31-5.67,8.78,8.78,0,0,1,3.7-3.69,11.38,11.38,0,0,1,5.29-1.25,9.27,9.27,0,0,1,5.52,1.59,8.41,8.41,0,0,1,3.11,4.47l-2.88.66a6.41,6.41,0,0,0-2.19-3.32,6.13,6.13,0,0,0-3.61-1,7.27,7.27,0,0,0-4.18,1.09,6,6,0,0,0-2.36,3.05,12.25,12.25,0,0,0-.72,4.08,12.53,12.53,0,0,0,.81,4.62,5.72,5.72,0,0,0,2.53,3,7.2,7.2,0,0,0,3.7,1,6.36,6.36,0,0,0,4.11-1.34A6.79,6.79,0,0,0,367.29,298.17Z"/>
  <path class="cls-5" d="M360.87,274.32v-2.44h9.25v7.74a16.77,16.77,0,0,1-4.39,2.44,14,14,0,0,1-4.64.82,12.81,12.81,0,0,1-5.85-1.32,8.8,8.8,0,0,1-4-3.83,11.48,11.48,0,0,1-1.35-5.55,12.29,12.29,0,0,1,1.34-5.66,8.65,8.65,0,0,1,3.84-3.91,12.34,12.34,0,0,1,5.76-1.28,11.58,11.58,0,0,1,4.28.73,7.15,7.15,0,0,1,3,2,8.81,8.81,0,0,1,1.64,3.4l-2.6.67a7.53,7.53,0,0,0-1.21-2.48,5.26,5.26,0,0,0-2.1-1.46,7.75,7.75,0,0,0-3-.54,9.2,9.2,0,0,0-3.43.57,6.51,6.51,0,0,0-2.32,1.51,7.34,7.34,0,0,0-1.38,2,10.3,10.3,0,0,0-.83,4.18,9.55,9.55,0,0,0,1,4.65,6.3,6.3,0,0,0,2.88,2.78,9.67,9.67,0,0,0,4.08.91,10.19,10.19,0,0,0,3.66-.68,9.54,9.54,0,0,0,2.71-1.48V274.3Z"/>
  <path class="cls-6" d="M362.06,259.49l8.38-20.78h3.11l9,20.78h-3.3l-2.54-6.29h-9.17l-2.39,6.29Zm6.31-8.53h7.39l-2.25-5.74c-.7-1.74-1.22-3.18-1.56-4.3a26.7,26.7,0,0,1-1.15,4Z"/>
  <path class="cls-6" d="M390.13,215.72H393v12a14,14,0,0,1-.74,5,6.24,6.24,0,0,1-2.71,3,9.86,9.86,0,0,1-5.09,1.15,11,11,0,0,1-5-.95,5.84,5.84,0,0,1-2.77-2.92,13.18,13.18,0,0,1-.84-5.21V215.72h2.88v12a11.2,11.2,0,0,0,.54,4,3.8,3.8,0,0,0,1.81,2,6.51,6.51,0,0,0,3.15.7c2.12,0,3.62-.46,4.51-1.38s1.37-2.68,1.37-5.28Z"/>
  <path class="cls-6" d="M277.65,225l8.39-20.8h3.1l8.94,20.8h-3.29l-2.54-6.3h-9.14l-2.39,6.3Zm6.32-8.54h7.43l-2.28-5.74c-.69-1.75-1.21-3.19-1.54-4.32a25.56,25.56,0,0,1-1.18,4Z"/>
  <path class="cls-6" d="M294.51,245.59v-2.44h9.25v7.72a16.46,16.46,0,0,1-4.39,2.44,13.7,13.7,0,0,1-4.64.81,13,13,0,0,1-5.86-1.31,9,9,0,0,1-4-3.83,11.56,11.56,0,0,1-1.35-5.55,12.32,12.32,0,0,1,1.34-5.66,8.66,8.66,0,0,1,3.84-3.89,12.31,12.31,0,0,1,5.76-1.28,11.8,11.8,0,0,1,4.28.74,7.15,7.15,0,0,1,3,2,8.7,8.7,0,0,1,1.64,3.39l-2.6.68a7.14,7.14,0,0,0-1.22-2.49,5,5,0,0,0-2.09-1.45,7.7,7.7,0,0,0-3-.54,9.2,9.2,0,0,0-3.43.57,6.18,6.18,0,0,0-2.33,1.5,7.4,7.4,0,0,0-1.37,2,10.31,10.31,0,0,0-.84,4.18,9.93,9.93,0,0,0,1,4.66,6.33,6.33,0,0,0,2.93,2.77,9.26,9.26,0,0,0,4.06.91,10,10,0,0,0,3.67-.69,9.19,9.19,0,0,0,2.7-1.46v-3.88Z"/>
  <path class="cls-5" d="M319,275.18l2.88.71a8.8,8.8,0,0,1-9,6.95,10.71,10.71,0,0,1-5.76-1.38,8.6,8.6,0,0,1-3.36-3.95,13.73,13.73,0,0,1-1.16-5.59,11.77,11.77,0,0,1,1.3-5.66,8.64,8.64,0,0,1,3.71-3.67,11.13,11.13,0,0,1,5.32-1.3,9.14,9.14,0,0,1,5.51,1.58,8.25,8.25,0,0,1,3.12,4.48l-2.89.64a6.3,6.3,0,0,0-2.2-3.31,6,6,0,0,0-3.61-1,7.26,7.26,0,0,0-4.21,1.14,6.09,6.09,0,0,0-2.37,3.06,12,12,0,0,0-.68,4,12.2,12.2,0,0,0,.81,4.64,5.76,5.76,0,0,0,2.52,2.95,7.43,7.43,0,0,0,3.7,1,6.43,6.43,0,0,0,4.11-1.35A6.72,6.72,0,0,0,319,275.18Z"/>
  <line class="cls-2" x1="296.01" y1="271.33" x2="279.93" y2="271.33"/>
  <path d="M252.39,272.71l1.82-.29a5,5,0,0,0,1,2.57,2.43,2.43,0,0,0,1.82.79,2.72,2.72,0,0,0,2.14-1,3.75,3.75,0,0,0,.87-2.51,3.54,3.54,0,0,0-.8-2.4,2.64,2.64,0,0,0-2.07-.94,4.73,4.73,0,0,0-1.28.23l.19-1.83h.29a3.31,3.31,0,0,0,2.07-.71,2.55,2.55,0,0,0,.91-2.14,2.81,2.81,0,0,0-.64-1.91,2.3,2.3,0,0,0-3.47,0,4.07,4.07,0,0,0-.9,2.31l-1.82-.38a5.72,5.72,0,0,1,1.5-3.27,4,4,0,0,1,2.9-1.15,4.29,4.29,0,0,1,2.21.59,4,4,0,0,1,1.54,1.67,4.76,4.76,0,0,1,.54,2.19,4.13,4.13,0,0,1-.49,2,3.64,3.64,0,0,1-1.52,1.45,3.41,3.41,0,0,1,2,1.44,4.93,4.93,0,0,1,.71,2.76,5.45,5.45,0,0,1-1.4,3.79,4.55,4.55,0,0,1-3.53,1.57,4.25,4.25,0,0,1-3.22-1.34A5.6,5.6,0,0,1,252.39,272.71Zm11.27-3.93a18,18,0,0,1,.54-4.87,6.23,6.23,0,0,1,1.59-2.85,3.67,3.67,0,0,1,2.65-1,3.59,3.59,0,0,1,2.06.56,4.18,4.18,0,0,1,1.47,1.56,9.74,9.74,0,0,1,.91,2.51,19.26,19.26,0,0,1,.32,4,17.94,17.94,0,0,1-.52,4.86,6.31,6.31,0,0,1-1.58,2.85,3.7,3.7,0,0,1-2.66,1,3.83,3.83,0,0,1-3.33-1.77c-1-1.41-1.47-3.71-1.47-6.92Zm1.85,0c0,2.79.28,4.65.84,5.6a2.22,2.22,0,0,0,3.55.79,3,3,0,0,0,.61-.79q.86-1.41.85-5.59c0-2.8-.28-4.67-.85-5.63a2.47,2.47,0,0,0-2.09-1.39,2.25,2.25,0,0,0-2,1.22c-.65,1.05-.95,2.95-.95,5.76Z"/>
  <path class="cls-5" d="M312.6,297.29v-2.38h9.25v7.72a16.93,16.93,0,0,1-4.4,2.43,13.62,13.62,0,0,1-4.64.82,12.81,12.81,0,0,1-5.85-1.32,8.86,8.86,0,0,1-4-3.82,11.55,11.55,0,0,1-1.35-5.57,12.32,12.32,0,0,1,1.34-5.66,8.68,8.68,0,0,1,3.84-3.9,12.73,12.73,0,0,1,5.76-1.29,12.12,12.12,0,0,1,4.29.75,7.07,7.07,0,0,1,3,2,8.69,8.69,0,0,1,1.66,3.41l-2.61.67a7.58,7.58,0,0,0-1.21-2.49,5,5,0,0,0-2.09-1.45,7.76,7.76,0,0,0-3-.55,9.17,9.17,0,0,0-3.43.58,6.31,6.31,0,0,0-2.32,1.5,7.68,7.68,0,0,0-1.39,2,10.46,10.46,0,0,0-.82,4.18,9.72,9.72,0,0,0,1,4.66,6.43,6.43,0,0,0,2.93,2.77,9.34,9.34,0,0,0,4.08.9,10.4,10.4,0,0,0,3.66-.67,9.3,9.3,0,0,0,2.71-1.48v-3.83Z"/>
  <path class="cls-5" d="M317.77,307.64h2.88v12a13.58,13.58,0,0,1-.75,5,6.2,6.2,0,0,1-2.71,3,10,10,0,0,1-5.1,1.17,11,11,0,0,1-5-1,6,6,0,0,1-2.79-2.92,13.17,13.17,0,0,1-.83-5.21v-12h2.88v12a11.09,11.09,0,0,0,.53,4,3.89,3.89,0,0,0,1.8,2,6.8,6.8,0,0,0,3.15.69c2.12,0,3.63-.46,4.52-1.38s1.34-2.68,1.35-5.28Z"/>
  <path class="cls-4" d="M317.9,351.21l2.88.69a8.75,8.75,0,0,1-9,7,10.75,10.75,0,0,1-5.77-1.36,8.82,8.82,0,0,1-3.37-4,13.73,13.73,0,0,1-1.14-5.56,11.75,11.75,0,0,1,1.3-5.66,8.67,8.67,0,0,1,3.7-3.69,11.35,11.35,0,0,1,5.31-1.26,9.35,9.35,0,0,1,5.5,1.59,8.13,8.13,0,0,1,3.1,4.48l-2.83.64a6.4,6.4,0,0,0-2.13-3.29,6,6,0,0,0-3.61-1,7.45,7.45,0,0,0-4.22,1.15,6.08,6.08,0,0,0-2.37,3.06,12,12,0,0,0-.68,4,12.19,12.19,0,0,0,.81,4.63,5.82,5.82,0,0,0,2.52,3,7.23,7.23,0,0,0,3.7,1,6.46,6.46,0,0,0,4.12-1.33A6.84,6.84,0,0,0,317.9,351.21Z"/>
  <path class="cls-6" d="M368.09,207.79,376.48,187h3.1l8.94,20.79h-3.29l-2.57-6.29h-9.13l-2.4,6.29Zm6.32-8.53h7.41l-2.28-5.74c-.71-1.74-1.22-3.18-1.56-4.31a24.48,24.48,0,0,1-1.17,4Z"/>
  <path class="cls-7" d="M373.3,177.52l2.88.7a9.22,9.22,0,0,1-3.27,5.16,9.32,9.32,0,0,1-5.76,1.8,11,11,0,0,1-5.77-1.38,8.86,8.86,0,0,1-3.36-4,13.55,13.55,0,0,1-1.14-5.59,11.76,11.76,0,0,1,1.29-5.66,8.64,8.64,0,0,1,3.71-3.67,11.28,11.28,0,0,1,5.3-1.26,9.26,9.26,0,0,1,5.51,1.59,8.16,8.16,0,0,1,3.1,4.47l-2.88.64a6.32,6.32,0,0,0-2.2-3.3,6,6,0,0,0-3.6-1,7.42,7.42,0,0,0-4.23,1.14,6.12,6.12,0,0,0-2.36,3.06,11.5,11.5,0,0,0-.68,4,12,12,0,0,0,.8,4.64,5.76,5.76,0,0,0,2.52,2.95,7.26,7.26,0,0,0,3.71,1,6.48,6.48,0,0,0,4.11-1.34A6.87,6.87,0,0,0,373.3,177.52Z"/>
  <path class="cls-7" d="M373.3,154.54l2.88.7a8.75,8.75,0,0,1-9,6.95,10.93,10.93,0,0,1-5.77-1.36,8.8,8.8,0,0,1-3.36-4,13.45,13.45,0,0,1-1.14-5.57,11.8,11.8,0,0,1,1.29-5.67,8.7,8.7,0,0,1,3.71-3.67,11.17,11.17,0,0,1,5.3-1.27,9.32,9.32,0,0,1,5.51,1.6,8.11,8.11,0,0,1,3.1,4.47l-2.88.65a6.24,6.24,0,0,0-2.2-3.3,6,6,0,0,0-3.6-1,7.42,7.42,0,0,0-4.23,1.14,6.09,6.09,0,0,0-2.36,3,11.56,11.56,0,0,0-.68,4,11.91,11.91,0,0,0,.8,4.62,5.78,5.78,0,0,0,2.52,3,7.26,7.26,0,0,0,3.71,1,6.36,6.36,0,0,0,4.11-1.34A6.9,6.9,0,0,0,373.3,154.54Z"/>
  <path class="cls-1" d="M380.15,161.83l8.38-20.77h3.1l8.94,20.79h-3.29l-2.55-6.29h-9.12l-2.39,6.29Zm6.35-8.54h7.41l-2.28-5.75c-.69-1.74-1.2-3.18-1.54-4.31a27.39,27.39,0,0,1-1.17,4Z"/>
  <line class="cls-2" x1="401.85" y1="161.52" x2="413.21" y2="172.35"/>
  <path d="M421.73,197.7H420V184.28a11.27,11.27,0,0,1-3.48,2.52v-2a10.37,10.37,0,0,0,2.55-2,7.73,7.73,0,0,0,1.54-2.3h1.12Zm4.36-8.44a18.44,18.44,0,0,1,.51-4.88,6.33,6.33,0,0,1,1.54-2.86,3.5,3.5,0,0,1,2.56-1,3.56,3.56,0,0,1,2,.56,4.19,4.19,0,0,1,1.41,1.58,9,9,0,0,1,.88,2.52,20.16,20.16,0,0,1,.33,4,18.41,18.41,0,0,1-.5,4.87,6.32,6.32,0,0,1-1.53,2.86,3.45,3.45,0,0,1-2.57,1,3.65,3.65,0,0,1-3.21-1.78c-.95-1.41-1.41-3.73-1.41-7Zm1.78,0q0,4.22.82,5.61c.79,1.48,2.32,1.83,3.44.79a3.33,3.33,0,0,0,.57-.79q.82-1.4.82-5.6c0-2.82-.27-4.73-.82-5.62a2.33,2.33,0,0,0-2-1.38,2.11,2.11,0,0,0-1.91,1.21q-.9,1.56-.9,5.78Z"/>
  <path class="cls-1" d="M323.8,83.58h2.89v12a13.63,13.63,0,0,1-.75,5,6.15,6.15,0,0,1-2.71,3,10,10,0,0,1-5.08,1.15,11,11,0,0,1-5-1,5.94,5.94,0,0,1-2.79-2.87,13.38,13.38,0,0,1-.83-5.21V83.58h2.88v12a11.22,11.22,0,0,0,.52,4,3.85,3.85,0,0,0,1.81,2,6.62,6.62,0,0,0,3.15.69c2.12,0,3.62-.45,4.5-1.36s1.34-2.68,1.37-5.3Z"/>
  <path class="cls-3" d="M317.77,112.32h2.88v12a13.6,13.6,0,0,1-.75,5,6.22,6.22,0,0,1-2.71,3,10,10,0,0,1-5.1,1.15,10.89,10.89,0,0,1-5-1,6,6,0,0,1-2.79-2.92,13.25,13.25,0,0,1-.83-5.22v-12h2.88v12a11,11,0,0,0,.53,4,3.82,3.82,0,0,0,1.8,2,6.67,6.67,0,0,0,3.15.69c2.13,0,3.62-.45,4.52-1.36s1.35-2.68,1.35-5.3Z"/>
  <path class="cls-7" d="M318.63,153.67v-2.42h9.28V159a16.76,16.76,0,0,1-4.42,2.48,13.71,13.71,0,0,1-4.65.81,12.89,12.89,0,0,1-5.84-1.31,8.85,8.85,0,0,1-4-3.82,11.62,11.62,0,0,1-1.34-5.56A12.44,12.44,0,0,1,309,145.9a8.61,8.61,0,0,1,3.84-3.91,12.48,12.48,0,0,1,5.77-1.29,12.1,12.1,0,0,1,4.28.75,7,7,0,0,1,3,2,8.87,8.87,0,0,1,1.65,3.41l-2.6.68a7.56,7.56,0,0,0-1.22-2.5,5,5,0,0,0-2.09-1.45,8.21,8.21,0,0,0-3-.54,9,9,0,0,0-3.41.57,6.26,6.26,0,0,0-2.34,1.5,7.49,7.49,0,0,0-1.38,2,10.51,10.51,0,0,0-.84,4.18,9.89,9.89,0,0,0,1,4.67,6.27,6.27,0,0,0,2.88,2.77,9.45,9.45,0,0,0,4.08.9,10.27,10.27,0,0,0,3.66-.68,9.6,9.6,0,0,0,2.7-1.47v-3.83Z"/>
  <path class="cls-7" d="M318.63,176.66v-2.44h9.28v7.71a16.93,16.93,0,0,1-4.4,2.43,14,14,0,0,1-4.65.83,13,13,0,0,1-5.84-1.32,8.82,8.82,0,0,1-4-3.83,11.66,11.66,0,0,1-1.34-5.54,12.33,12.33,0,0,1,1.34-5.67,8.6,8.6,0,0,1,3.84-3.91,12.59,12.59,0,0,1,5.76-1.28,12.1,12.1,0,0,1,4.29.73,7.06,7.06,0,0,1,3,2,9,9,0,0,1,1.65,3.41l-2.6.66a7.76,7.76,0,0,0-1.22-2.48,5.06,5.06,0,0,0-2.09-1.46,8.23,8.23,0,0,0-3-.54,9.06,9.06,0,0,0-3.41.57,6.28,6.28,0,0,0-2.33,1.52,7.13,7.13,0,0,0-1.38,2,10.43,10.43,0,0,0-.84,4.17,9.67,9.67,0,0,0,1,4.65,6.27,6.27,0,0,0,2.88,2.79,9.59,9.59,0,0,0,4.07.91,10.2,10.2,0,0,0,3.66-.69,9.77,9.77,0,0,0,2.71-1.47v-3.77Z"/>
  <path class="cls-6" d="M307,194.75l2.89.7a8.77,8.77,0,0,1-9,7,10.71,10.71,0,0,1-5.77-1.36,8.68,8.68,0,0,1-3.37-4,13.67,13.67,0,0,1-1.15-5.58,11.62,11.62,0,0,1,1.3-5.65,8.75,8.75,0,0,1,3.71-3.69,11.14,11.14,0,0,1,5.29-1.25,9.18,9.18,0,0,1,5.52,1.59,8.1,8.1,0,0,1,3.1,4.46l-2.88.64a6.28,6.28,0,0,0-2.19-3.3,6.11,6.11,0,0,0-3.6-1,7.37,7.37,0,0,0-4.22,1.15,6,6,0,0,0-2.37,3.06,12,12,0,0,0-.68,4,12.54,12.54,0,0,0,.8,4.63,5.89,5.89,0,0,0,2.53,3,7.24,7.24,0,0,0,3.71,1,6.45,6.45,0,0,0,4.1-1.32A6.75,6.75,0,0,0,307,194.75Z"/>
  <rect class="cls-8" x="328.33" y="99.04" width="63.77" height="29.51"/>
  <text class="cls-9" transform="translate(332.77 117.61) scale(0.98 1)">Theophylline</text>
  <line class="cls-2" x1="348.73" y1="271.33" x2="323.65" y2="271.33"/>
  <line class="cls-2" x1="348.73" y1="296.94" x2="323.65" y2="296.94"/>
  <line class="cls-2" x1="348.73" y1="319.7" x2="323.65" y2="319.7"/>
  <line class="cls-2" x1="354.71" y1="177.44" x2="329.62" y2="177.44"/>
  <line class="cls-2" x1="402.71" y1="112.4" x2="402.71" y2="97.08"/>
  <line class="cls-2" x1="356.2" y1="153.26" x2="331.11" y2="153.26"/>
  <line class="cls-2" x1="426.6" y1="112.4" x2="426.6" y2="97.08"/>
  <line class="cls-2" x1="450.48" y1="112.4" x2="450.48" y2="97.08"/>
  <text class="cls-10" transform="translate(16.63 28.63)">Theophylline aptamer</text>
  <g class="cls-11">
    <text class="cls-12" transform="translate(376.38 380.71) scale(1.21 1)">5</text>
    <text class="cls-13" transform="translate(392.44 380.71) scale(1.21 1)">’</text>
  </g>
  <g class="cls-11">
    <text class="cls-12" transform="translate(271.9 380.72) scale(1.21 1)">3</text>
    <text class="cls-13" transform="translate(287.96 380.72) scale(1.21 1)">’</text>
  </g>
  <text class="cls-14" transform="translate(221.73 28.63)">(<tspan class="cls-15" x="7.48" y="0">TCT8-4 aptamer</tspan><tspan x="154.19" y="0">)</tspan></text>
</svg>
