<svg id="图层_1" data-name="图层 1" xmlns="http://www.w3.org/2000/svg" viewBox="0 0 800 400"><defs><style>.cls-1{fill:#c2c2ff;}.cls-2{fill:none;stroke:#000;stroke-linejoin:round;stroke-width:1.33px;}.cls-3{fill:#f0f;}.cls-4{fill:#0a0bff;}.cls-5{fill:#32cd32;}.cls-6{fill:#ff870a;}.cls-7{fill:#09fefe;}.cls-8{fill:#ff0;}.cls-10,.cls-9{isolation:isolate;font-family:ArialMT, Arial;}.cls-9{font-size:9.39px;}.cls-10{font-size:20px;}.cls-11{font-size:28.64px;font-family:ArialNarrow, Arial;}.cls-12{letter-spacing:-0.03em;}</style></defs><title>Theophylline_aptamer_2D</title><path class="cls-1" d="M409.22,128.83v-2.4h9.63V134a17.79,17.79,0,0,1-4.59,2.4,14.9,14.9,0,0,1-4.82.8,14.36,14.36,0,0,1-6.09-1.29,9.07,9.07,0,0,1-4.13-3.76,10.81,10.81,0,0,1-1.4-5.44,11.58,11.58,0,0,1,1.39-5.56,8.75,8.75,0,0,1,4-3.84,13.63,13.63,0,0,1,6-1.25,12.93,12.93,0,0,1,4.45.71,7.37,7.37,0,0,1,3.13,2,8.59,8.59,0,0,1,1.72,3.34l-2.71.67a7.22,7.22,0,0,0-1.26-2.45,5.26,5.26,0,0,0-2.18-1.42,8.78,8.78,0,0,0-3.13-.54,10.58,10.58,0,0,0-3.57.56,6.79,6.79,0,0,0-2.42,1.48,7.37,7.37,0,0,0-1.44,2,9.68,9.68,0,0,0-.86,4.1,9.12,9.12,0,0,0,1,4.58,6.5,6.5,0,0,0,3,2.72,10.36,10.36,0,0,0,4.24.94,11,11,0,0,0,3.81-.68,10.27,10.27,0,0,0,2.82-1.43V128.9Z"/><path class="cls-1" d="M441,129.67l3,.69a9,9,0,0,1-3.4,5.08,10.19,10.19,0,0,1-6,1.75,11.83,11.83,0,0,1-6-1.35,8.68,8.68,0,0,1-3.5-3.89,12.67,12.67,0,0,1-1.19-5.48,11,11,0,0,1,1.35-5.56,8.67,8.67,0,0,1,3.86-3.6,12.07,12.07,0,0,1,5.51-1.23,10.07,10.07,0,0,1,5.74,1.56,8.08,8.08,0,0,1,3.23,4.38l-3,.63a6.26,6.26,0,0,0-2.29-3.24,6.56,6.56,0,0,0-3.76-1,8,8,0,0,0-4.39,1.11,6,6,0,0,0-2.47,3,11.13,11.13,0,0,0-.71,3.91,11.26,11.26,0,0,0,.85,4.55,5.81,5.81,0,0,0,2.62,2.91,8.07,8.07,0,0,0,3.86.94,6.88,6.88,0,0,0,4.27-1.31A6.56,6.56,0,0,0,441,129.67Z"/><path class="cls-1" d="M466.12,129.67l3,.69a9.05,9.05,0,0,1-3.41,5.08,10.1,10.1,0,0,1-6,1.75,11.82,11.82,0,0,1-6-1.35,8.58,8.58,0,0,1-3.5-3.89,12.54,12.54,0,0,1-1.2-5.48,11,11,0,0,1,1.35-5.56,8.89,8.89,0,0,1,3.86-3.6,12.07,12.07,0,0,1,5.51-1.23,10,10,0,0,1,5.74,1.56,8.1,8.1,0,0,1,3.24,4.38l-3,.63a6.26,6.26,0,0,0-2.29-3.24,6.56,6.56,0,0,0-3.76-1,8,8,0,0,0-4.38,1.11,6,6,0,0,0-2.47,3A11.8,11.8,0,0,0,453,131a5.83,5.83,0,0,0,2.63,2.91,8.06,8.06,0,0,0,3.85.94,6.91,6.91,0,0,0,4.28-1.31A6.56,6.56,0,0,0,466.12,129.67Z"/><path class="cls-1" d="M492.9,136.34V134h9.63v7.57a17.54,17.54,0,0,1-4.58,2.39,14.93,14.93,0,0,1-4.83.81,14,14,0,0,1-6.08-1.3,9,9,0,0,1-4.13-3.76,10.63,10.63,0,0,1-1.4-5.45,11.43,11.43,0,0,1,1.39-5.55,8.7,8.7,0,0,1,4-3.84,13.58,13.58,0,0,1,6-1.26,13,13,0,0,1,4.45.72,7.42,7.42,0,0,1,3.13,2,8.7,8.7,0,0,1,1.72,3.35l-2.72.65a7.21,7.21,0,0,0-1.27-2.44,5.22,5.22,0,0,0-2.17-1.43,9,9,0,0,0-3.13-.53,10,10,0,0,0-3.56.56,6.46,6.46,0,0,0-2.42,1.49,6.93,6.93,0,0,0-1.45,2,9.76,9.76,0,0,0-.86,4.1,9,9,0,0,0,1.05,4.56,6.47,6.47,0,0,0,3,2.74,10.34,10.34,0,0,0,4.25.88,11,11,0,0,0,3.81-.67,10.3,10.3,0,0,0,2.82-1.44v-3.81Z"/><path class="cls-1" d="M506.73,129.32l8.73-20.42h3.22L528,129.32h-3.43l-2.66-6.19h-9.5l-2.48,6.19Zm6.57-8.39H521l-2.36-5.63q-1.08-2.56-1.62-4.23a24.15,24.15,0,0,1-1.22,3.9Z"/><path class="cls-1" d="M500.45,106.76l8.73-20.4h3.23l9.31,20.4h-3.43l-2.65-6.18h-9.46l-2.49,6.18ZM507,98.38h7.7l-2.36-5.63c-.72-1.71-1.26-3.12-1.61-4.23a25.19,25.19,0,0,1-1.22,3.9Z"/><path class="cls-1" d="M481.62,89.85l8.73-20.42h3.23l9.31,20.42h-3.43l-2.67-6.19h-9.48l-2.5,6.19Zm6.57-8.39h7.66l-2.37-5.63c-.71-1.72-1.26-3.13-1.61-4.23a24.08,24.08,0,0,1-1.23,3.89Z"/><path class="cls-1" d="M459.43,83.72v-2.4h9.63V88.9a18.18,18.18,0,0,1-4.58,2.39,15,15,0,0,1-4.83.8,14.07,14.07,0,0,1-6.09-1.29A9.07,9.07,0,0,1,449.43,87a10.83,10.83,0,0,1-1.4-5.45A11.54,11.54,0,0,1,449.42,76a8.87,8.87,0,0,1,4-3.85,13.61,13.61,0,0,1,6-1.26,12.76,12.76,0,0,1,4.46.72,7.39,7.39,0,0,1,3.12,2A8.29,8.29,0,0,1,468.71,77l-2.71.67a7.18,7.18,0,0,0-1.26-2.44,5.28,5.28,0,0,0-2.18-1.43,8.55,8.55,0,0,0-3.13-.53,10.11,10.11,0,0,0-3.57.56,6.76,6.76,0,0,0-2.42,1.47,7.42,7.42,0,0,0-1.44,2,9.68,9.68,0,0,0-.86,4.1,9.08,9.08,0,0,0,1,4.57,6.45,6.45,0,0,0,3.05,2.72,10.4,10.4,0,0,0,4.25.94,11.18,11.18,0,0,0,3.8-.67,10,10,0,0,0,2.82-1.44V83.77Z"/><path class="cls-1" d="M434.32,83.72v-2.4H444V88.9a18.07,18.07,0,0,1-4.59,2.39,15,15,0,0,1-4.83.8,14,14,0,0,1-6.08-1.29A9,9,0,0,1,424.32,87a10.71,10.71,0,0,1-1.39-5.45A11.54,11.54,0,0,1,424.32,76a8.8,8.8,0,0,1,4-3.85,13.65,13.65,0,0,1,6-1.26,12.7,12.7,0,0,1,4.45.72,7.42,7.42,0,0,1,3.13,2A8.62,8.62,0,0,1,443.61,77l-2.72.67a7.18,7.18,0,0,0-1.26-2.44,5.19,5.19,0,0,0-2.17-1.43,8.64,8.64,0,0,0-3.14-.53,10,10,0,0,0-3.56.56,6.62,6.62,0,0,0-2.42,1.47,7.25,7.25,0,0,0-1.45,2,9.83,9.83,0,0,0-.86,4.1A9,9,0,0,0,427.08,86a6.41,6.41,0,0,0,3,2.79,10.4,10.4,0,0,0,4.25.94,11,11,0,0,0,3.81-.68A10,10,0,0,0,441,87.6V83.84Z"/><path class="cls-1" d="M415.91,84.57l3,.68a8.91,8.91,0,0,1-3.4,5.08,10.12,10.12,0,0,1-6,1.75,11.73,11.73,0,0,1-6-1.35,8.68,8.68,0,0,1-3.46-3.9,12.71,12.71,0,0,1-1.2-5.46,11.11,11.11,0,0,1,1.35-5.56,8.94,8.94,0,0,1,3.86-3.62,12.4,12.4,0,0,1,5.48-1.26,10,10,0,0,1,5.74,1.56,8.15,8.15,0,0,1,3.24,4.38l-3,.64a6.33,6.33,0,0,0-2.29-3.25,6.56,6.56,0,0,0-3.76-1,7.92,7.92,0,0,0-4.38,1.12,6,6,0,0,0-2.47,3,11.84,11.84,0,0,0,.13,8.45,5.85,5.85,0,0,0,2.62,2.91,8.1,8.1,0,0,0,3.86.94,6.93,6.93,0,0,0,4.28-1.31A6.59,6.59,0,0,0,415.91,84.57Z"/><line class="cls-2" x1="408.68" y1="65.75" x2="408.68" y2="50.71"/><path d="M407,41.68v2.4h-15a4.15,4.15,0,0,1,.33-1.74,8.94,8.94,0,0,1,1.83-2.71,27,27,0,0,1,3.66-3.09,30.79,30.79,0,0,0,5-4.33,4.88,4.88,0,0,0,1.3-3,3.21,3.21,0,0,0-1.16-2.52,4.46,4.46,0,0,0-3.09-1,4.69,4.69,0,0,0-3.24,1.13,3.91,3.91,0,0,0-1.22,3l-2.87-.26a6.1,6.1,0,0,1,2.21-4.39,8.18,8.18,0,0,1,5.17-1.51A7.72,7.72,0,0,1,405,25.26a5.14,5.14,0,0,1,1.88,4,5.59,5.59,0,0,1-.55,2.41,9.34,9.34,0,0,1-1.88,2.49,42.25,42.25,0,0,1-4.3,3.6c-1.67,1.26-2.75,2.11-3.22,2.56a9.58,9.58,0,0,0-1.19,1.36ZM409.76,34a16.93,16.93,0,0,1,.84-5.82,7.28,7.28,0,0,1,2.47-3.41,6.78,6.78,0,0,1,4.11-1.19,7.39,7.39,0,0,1,3.21.66,5.91,5.91,0,0,1,2.27,1.88,10,10,0,0,1,1.42,3,18.52,18.52,0,0,1,.51,4.81,17.32,17.32,0,0,1-.82,5.81,7.37,7.37,0,0,1-2.46,3.41,6.77,6.77,0,0,1-4.13,1.21A6.58,6.58,0,0,1,412,42.29q-2.24-2.52-2.23-8.28Zm2.88,0q0,5,1.31,6.7a4,4,0,0,0,5.51.94,3.82,3.82,0,0,0,.94-.94Q421.72,39,421.72,34c0-3.36-.44-5.58-1.32-6.69a4,4,0,0,0-3.25-1.67,3.7,3.7,0,0,0-3,1.46Q412.67,29,412.67,34Z"/><path class="cls-1" d="M384.52,78.93l3,.68a9.05,9.05,0,0,1-3.43,5.08,10.05,10.05,0,0,1-6,1.75,11.81,11.81,0,0,1-6-1.34,8.65,8.65,0,0,1-3.5-3.9,12.62,12.62,0,0,1-1.21-5.47,11.12,11.12,0,0,1,1.36-5.56,8.75,8.75,0,0,1,3.86-3.61,12.36,12.36,0,0,1,5.54-1.27,10.17,10.17,0,0,1,5.73,1.56,8.1,8.1,0,0,1,3.24,4.4l-3,.63a6.28,6.28,0,0,0-2.3-3.24,6.55,6.55,0,0,0-3.75-1,8,8,0,0,0-4.36,1.15,6,6,0,0,0-2.47,3,11.94,11.94,0,0,0,.13,8.45A5.82,5.82,0,0,0,374,83.13a7.85,7.85,0,0,0,3.86.94,6.93,6.93,0,0,0,4.28-1.31A6.56,6.56,0,0,0,384.52,78.93Z"/><path class="cls-3" d="M353.11,78.93l3,.68a9.07,9.07,0,0,1-3.41,5.08,10.05,10.05,0,0,1-6,1.75,11.76,11.76,0,0,1-6-1.34,8.67,8.67,0,0,1-3.51-3.9,12.75,12.75,0,0,1-1.2-5.47,11.11,11.11,0,0,1,1.35-5.56,8.86,8.86,0,0,1,3.86-3.61,12.36,12.36,0,0,1,5.54-1.27,10.18,10.18,0,0,1,5.74,1.56,8.15,8.15,0,0,1,3.24,4.4l-3,.63a6.21,6.21,0,0,0-2.29-3.24,6.55,6.55,0,0,0-3.75-1,8,8,0,0,0-4.39,1.12,6,6,0,0,0-2.47,3,11.94,11.94,0,0,0,.13,8.45,5.88,5.88,0,0,0,2.63,2.91,7.94,7.94,0,0,0,3.85.93,6.91,6.91,0,0,0,4.28-1.31A6.58,6.58,0,0,0,353.11,78.93Z"/><path class="cls-4" d="M364.31,345.39V343h9.63v7.57a17.64,17.64,0,0,1-4.57,2.39,15,15,0,0,1-4.84.81,14.15,14.15,0,0,1-6.08-1.3,9,9,0,0,1-4.14-3.76,10.76,10.76,0,0,1-1.39-5.47,11.61,11.61,0,0,1,1.39-5.56,8.68,8.68,0,0,1,4-3.83,13.62,13.62,0,0,1,6-1.26,13.22,13.22,0,0,1,4.45.72,7.54,7.54,0,0,1,3.13,2,8.49,8.49,0,0,1,1.72,3.35l-2.71.65a7.12,7.12,0,0,0-1.27-2.44,5.25,5.25,0,0,0-2.18-1.43,8.77,8.77,0,0,0-3.13-.53,10,10,0,0,0-3.56.56,6.59,6.59,0,0,0-2.42,1.49,7.28,7.28,0,0,0-1.47,2,9.85,9.85,0,0,0-.87,4.11,9,9,0,0,0,1.06,4.56,6.31,6.31,0,0,0,3,2.73,10.18,10.18,0,0,0,4.24.89,11.34,11.34,0,0,0,3.82-.67,9.87,9.87,0,0,0,2.81-1.45v-3.8Z"/><path class="cls-5" d="M365.32,314.9v-2.39h9.62v7.57a17.64,17.64,0,0,1-4.57,2.39,15,15,0,0,1-4.83.81,14.23,14.23,0,0,1-6.09-1.3,9.07,9.07,0,0,1-4.13-3.76,10.83,10.83,0,0,1-1.4-5.45,11.61,11.61,0,0,1,1.39-5.56,8.75,8.75,0,0,1,4-3.84,13.64,13.64,0,0,1,6-1.25,12.94,12.94,0,0,1,4.45.72,7.68,7.68,0,0,1,3.13,2,8.43,8.43,0,0,1,1.71,3.34l-2.71.66a7.37,7.37,0,0,0-1.26-2.44,5.38,5.38,0,0,0-2.18-1.43,9,9,0,0,0-3.13-.53,10.11,10.11,0,0,0-3.57.56,6.79,6.79,0,0,0-2.42,1.48,7.27,7.27,0,0,0-1.44,2,9.61,9.61,0,0,0-.86,4.1,8.93,8.93,0,0,0,1.05,4.56,6.4,6.4,0,0,0,3,2.73,10.19,10.19,0,0,0,4.25.89,11,11,0,0,0,3.81-.68,10,10,0,0,0,2.82-1.43v-3.81Z"/><path class="cls-5" d="M372,293.2l3,.68a9,9,0,0,1-3.41,5.08,10,10,0,0,1-6,1.75,11.73,11.73,0,0,1-6-1.35,8.6,8.6,0,0,1-3.5-3.9,12.71,12.71,0,0,1-1.2-5.46,10.91,10.91,0,0,1,1.36-5.56,8.86,8.86,0,0,1,3.85-3.62,12.36,12.36,0,0,1,5.51-1.23,10,10,0,0,1,5.74,1.56,8.21,8.21,0,0,1,3.24,4.39l-3,.64a6.23,6.23,0,0,0-2.28-3.25,6.64,6.64,0,0,0-3.76-1A8,8,0,0,0,361.2,283a6,6,0,0,0-2.45,3A11.24,11.24,0,0,0,358,290a11.58,11.58,0,0,0,.84,4.54,5.76,5.76,0,0,0,2.63,2.9,7.85,7.85,0,0,0,3.86.94,6.88,6.88,0,0,0,4.27-1.31A6.57,6.57,0,0,0,372,293.2Z"/><path class="cls-5" d="M365.32,269.79V267.4h9.62V275a17.48,17.48,0,0,1-4.57,2.39,15,15,0,0,1-4.83.8,14.07,14.07,0,0,1-6.09-1.29,9,9,0,0,1-4.13-3.76,10.72,10.72,0,0,1-1.4-5.45,11.54,11.54,0,0,1,1.39-5.55,8.75,8.75,0,0,1,4-3.84,13.65,13.65,0,0,1,6-1.26,13,13,0,0,1,4.45.72,7.58,7.58,0,0,1,3.13,2,8.43,8.43,0,0,1,1.71,3.34l-2.71.66a7.18,7.18,0,0,0-1.26-2.44,5.38,5.38,0,0,0-2.18-1.43,8.55,8.55,0,0,0-3.13-.53,10.11,10.11,0,0,0-3.57.56,6.79,6.79,0,0,0-2.42,1.48,7.37,7.37,0,0,0-1.44,2,9.69,9.69,0,0,0-.86,4.11,9,9,0,0,0,1.05,4.56,6.4,6.4,0,0,0,3,2.73,10.39,10.39,0,0,0,4.25.89,11.24,11.24,0,0,0,3.81-.67,10.06,10.06,0,0,0,2.82-1.45v-3.8Z"/><path class="cls-6" d="M366.55,255.24l8.73-20.4h3.23l9.35,20.4h-3.43l-2.65-6.18h-9.54l-2.49,6.18Zm6.57-8.37h7.7l-2.35-5.64c-.73-1.71-1.27-3.12-1.62-4.22a25.22,25.22,0,0,1-1.2,3.88Z"/><path class="cls-6" d="M395.77,212.28h3v11.8A12.87,12.87,0,0,1,398,229a6.26,6.26,0,0,1-2.82,2.95,10.81,10.81,0,0,1-5.3,1.13,12.07,12.07,0,0,1-5.24-.94,5.87,5.87,0,0,1-2.89-2.86,12.26,12.26,0,0,1-.87-5.12V212.28h3v11.79a10.2,10.2,0,0,0,.56,3.91,3.86,3.86,0,0,0,1.88,1.94,7.14,7.14,0,0,0,3.28.68q3.31,0,4.7-1.35c.94-.89,1.42-2.63,1.42-5.18Z"/><path class="cls-6" d="M278.68,221.42,287.42,201h3.23l9.3,20.42h-3.42l-2.65-6.19h-9.51l-2.49,6.19Zm6.58-8.39H293l-2.37-5.63c-.72-1.72-1.26-3.13-1.61-4.24a24.19,24.19,0,0,1-1.23,3.9Z"/><path class="cls-6" d="M296.24,241.6v-2.4h9.63v7.58a17.7,17.7,0,0,1-4.58,2.39,15,15,0,0,1-4.83.8,14.07,14.07,0,0,1-6.09-1.29,9.12,9.12,0,0,1-4.13-3.76,10.81,10.81,0,0,1-1.4-5.44,11.58,11.58,0,0,1,1.39-5.56,8.74,8.74,0,0,1,4-3.82,13.43,13.43,0,0,1,6-1.25,12.74,12.74,0,0,1,4.45.72,7.48,7.48,0,0,1,3.13,2,8.46,8.46,0,0,1,1.71,3.33l-2.7.67a7,7,0,0,0-1.27-2.44,5.25,5.25,0,0,0-2.18-1.43,8.54,8.54,0,0,0-3.12-.53,10,10,0,0,0-3.57.56,6.66,6.66,0,0,0-2.43,1.47,7.39,7.39,0,0,0-1.43,2,9.65,9.65,0,0,0-.87,4.1,9.2,9.2,0,0,0,1,4.57,6.41,6.41,0,0,0,3.05,2.72,10.1,10.1,0,0,0,4.23.89,10.87,10.87,0,0,0,3.82-.67,9.84,9.84,0,0,0,2.81-1.44v-3.8Z"/><path class="cls-5" d="M321.76,270.64l3,.69a9,9,0,0,1-3.41,5.07,10,10,0,0,1-6,1.76,11.73,11.73,0,0,1-6-1.36,8.6,8.6,0,0,1-3.5-3.88,12.83,12.83,0,0,1-1.2-5.48,11,11,0,0,1,1.35-5.56,8.78,8.78,0,0,1,3.86-3.6A12.21,12.21,0,0,1,315.4,257a10,10,0,0,1,5.74,1.56,8.12,8.12,0,0,1,3.24,4.39l-3,.63a6.27,6.27,0,0,0-2.29-3.25,6.56,6.56,0,0,0-3.76-1,7.92,7.92,0,0,0-4.38,1.12,6,6,0,0,0-2.47,3,11.15,11.15,0,0,0-.71,3.92,11.42,11.42,0,0,0,.84,4.55,5.8,5.8,0,0,0,2.63,2.9,8,8,0,0,0,3.85.94,7,7,0,0,0,4.28-1.32A6.56,6.56,0,0,0,321.76,270.64Z"/><line class="cls-2" x1="297.8" y1="266.86" x2="281.06" y2="266.86"/><path d="M247,272.42l2.82-.34a5.35,5.35,0,0,0,1.63,3.07,4.31,4.31,0,0,0,2.82.94,4.73,4.73,0,0,0,3.32-1.22,3.92,3.92,0,0,0,1.36-3A3.66,3.66,0,0,0,257.7,269a4.68,4.68,0,0,0-3.2-1.12,9.25,9.25,0,0,0-2,.27l.3-2.19h.45a6.12,6.12,0,0,0,3.21-.84,2.81,2.81,0,0,0,1.42-2.57,2.89,2.89,0,0,0-1-2.28,3.93,3.93,0,0,0-2.68-.94,4,4,0,0,0-2.71.94,4.38,4.38,0,0,0-1.39,2.76l-2.82-.45a6.22,6.22,0,0,1,2.32-3.91,7.22,7.22,0,0,1,4.51-1.38,8.12,8.12,0,0,1,3.43.71,5.66,5.66,0,0,1,2.39,2,4.63,4.63,0,0,1,.83,2.62A4.09,4.09,0,0,1,260,265a5.4,5.4,0,0,1-2.35,1.73,5.43,5.43,0,0,1,3.14,1.72,4.89,4.89,0,0,1,1.11,3.3,5.77,5.77,0,0,1-2.17,4.54,8.14,8.14,0,0,1-5.48,1.87,7.64,7.64,0,0,1-5-1.6A6,6,0,0,1,247,272.42Zm17.49-4.7a16.69,16.69,0,0,1,.83-5.82,7.28,7.28,0,0,1,2.47-3.41,6.78,6.78,0,0,1,4.11-1.19,7.13,7.13,0,0,1,3.21.67,5.88,5.88,0,0,1,2.27,1.87,10.06,10.06,0,0,1,1.42,3,18.09,18.09,0,0,1,.5,4.81,17.1,17.1,0,0,1-.81,5.81,7.37,7.37,0,0,1-2.46,3.41,6.77,6.77,0,0,1-4.13,1.21,6.58,6.58,0,0,1-5.16-2.12c-1.52-1.68-2.28-4.43-2.28-8.27Zm2.87,0q0,5,1.31,6.7a4,4,0,0,0,5.51.94,3.82,3.82,0,0,0,.94-.94q1.32-1.68,1.32-6.69T275.12,261a4,4,0,0,0-3.25-1.66,3.72,3.72,0,0,0-3.07,1.46c-1,1.25-1.47,3.53-1.47,6.89Z"/><path class="cls-5" d="M315.07,292.34V290h9.63v7.58a18,18,0,0,1-4.58,2.38,14.71,14.71,0,0,1-4.83.81,13.94,13.94,0,0,1-6.09-1.3,9,9,0,0,1-4.13-3.75,10.86,10.86,0,0,1-1.4-5.46,11.61,11.61,0,0,1,1.39-5.56,8.83,8.83,0,0,1,4-3.83,13.93,13.93,0,0,1,6-1.26,13.24,13.24,0,0,1,4.46.73,7.39,7.39,0,0,1,3.12,2,8.33,8.33,0,0,1,1.72,3.34l-2.71.66a7.18,7.18,0,0,0-1.26-2.44,5.19,5.19,0,0,0-2.18-1.43,8.78,8.78,0,0,0-3.13-.54,10.35,10.35,0,0,0-3.57.57,6.65,6.65,0,0,0-2.42,1.48,7.37,7.37,0,0,0-1.44,2,9.68,9.68,0,0,0-.86,4.1,9.08,9.08,0,0,0,1,4.57,6.5,6.5,0,0,0,3.05,2.72,10.23,10.23,0,0,0,4.25.89,11.48,11.48,0,0,0,3.81-.66,10.06,10.06,0,0,0,2.82-1.45v-3.76Z"/><path class="cls-5" d="M320.45,302.5h3v11.79a12.71,12.71,0,0,1-.78,4.89,6.26,6.26,0,0,1-2.82,2.95,11,11,0,0,1-5.31,1.14,12,12,0,0,1-5.22-1,5.93,5.93,0,0,1-2.9-2.86,12.29,12.29,0,0,1-.87-5.12V302.5h3v11.78a10.52,10.52,0,0,0,.55,3.93,3.88,3.88,0,0,0,1.88,1.93,7.27,7.27,0,0,0,3.28.68q3.31,0,4.7-1.35t1.41-5.19Z"/><path class="cls-4" d="M320.58,345.26l3,.68a9.07,9.07,0,0,1-3.4,5.08,10.11,10.11,0,0,1-6,1.74,11.72,11.72,0,0,1-6-1.34,8.73,8.73,0,0,1-3.51-3.9,12.85,12.85,0,0,1-1.19-5.46,11.11,11.11,0,0,1,1.35-5.56,8.88,8.88,0,0,1,3.86-3.62,12.4,12.4,0,0,1,5.52-1.23,10.09,10.09,0,0,1,5.73,1.56,8,8,0,0,1,3.23,4.39l-2.95.63A6.28,6.28,0,0,0,318,335a6.55,6.55,0,0,0-3.75-1,8.11,8.11,0,0,0-4.4,1.13,6.11,6.11,0,0,0-2.47,3,11.41,11.41,0,0,0-.7,3.92,11.2,11.2,0,0,0,.84,4.54,5.77,5.77,0,0,0,2.62,2.91,7.9,7.9,0,0,0,3.86.94,7,7,0,0,0,4.28-1.3A6.55,6.55,0,0,0,320.58,345.26Z"/><path class="cls-6" d="M372.83,204.5l8.74-20.41h3.22l9.31,20.41h-3.43L388,198.32h-9.51L376,204.5Zm6.58-8.38h7.71l-2.37-5.63q-1.1-2.56-1.62-4.23a23.49,23.49,0,0,1-1.22,3.9Z"/><path class="cls-7" d="M378.25,174.79l3,.68a9,9,0,0,1-3.4,5.07,10.06,10.06,0,0,1-6,1.76,11.89,11.89,0,0,1-6-1.35,8.79,8.79,0,0,1-3.5-3.89,12.67,12.67,0,0,1-1.19-5.48,11,11,0,0,1,1.35-5.56,8.73,8.73,0,0,1,3.86-3.6,12.24,12.24,0,0,1,5.51-1.24,10.1,10.1,0,0,1,5.74,1.56,8.06,8.06,0,0,1,3.23,4.39l-3,.63a6.21,6.21,0,0,0-2.29-3.24,6.55,6.55,0,0,0-3.75-1,8,8,0,0,0-4.4,1.12,6.06,6.06,0,0,0-2.46,3,10.92,10.92,0,0,0-.71,3.92,11.25,11.25,0,0,0,.84,4.55,5.79,5.79,0,0,0,2.62,2.9,8,8,0,0,0,3.86.94,7,7,0,0,0,4.28-1.32A6.59,6.59,0,0,0,378.25,174.79Z"/><path class="cls-7" d="M378.25,152.23l3,.69a9.12,9.12,0,0,1-3.4,5.08,10.13,10.13,0,0,1-6,1.74,11.78,11.78,0,0,1-6-1.34,8.76,8.76,0,0,1-3.5-3.9,12.6,12.6,0,0,1-1.19-5.47,11,11,0,0,1,1.35-5.56,8.8,8.8,0,0,1,3.86-3.61,12.24,12.24,0,0,1,5.51-1.24,10.11,10.11,0,0,1,5.74,1.57,8,8,0,0,1,3.23,4.39l-3,.63a6.21,6.21,0,0,0-2.29-3.24,6.55,6.55,0,0,0-3.75-1,8.08,8.08,0,0,0-4.4,1.12,6.06,6.06,0,0,0-2.46,3,10.92,10.92,0,0,0-.71,3.92,11.2,11.2,0,0,0,.84,4.54,5.79,5.79,0,0,0,2.62,2.9,7.9,7.9,0,0,0,3.86.94,6.89,6.89,0,0,0,4.28-1.31A6.62,6.62,0,0,0,378.25,152.23Z"/><path class="cls-1" d="M385.39,159.39,394.11,139h3.23l9.3,20.41h-3.42l-2.66-6.18h-9.49l-2.49,6.18ZM392,151h7.71l-2.37-5.64c-.72-1.71-1.25-3.12-1.61-4.23a25.53,25.53,0,0,1-1.22,3.9Z"/><line class="cls-2" x1="407.97" y1="159.08" x2="419.8" y2="169.71"/><path d="M431.63,198.22h-2.82v-16a14.82,14.82,0,0,1-2.64,1.73,18.68,18.68,0,0,1-2.94,1.28v-2.42a16.89,16.89,0,0,0,4.09-2.38,9.37,9.37,0,0,0,2.47-2.74h1.81Zm7-10.06a16.62,16.62,0,0,1,.83-5.82,7.23,7.23,0,0,1,2.47-3.41,6.76,6.76,0,0,1,4.11-1.2,7.22,7.22,0,0,1,3.2.67,5.86,5.86,0,0,1,2.28,1.88,9.31,9.31,0,0,1,1.41,3,17.82,17.82,0,0,1,.52,4.82,16.58,16.58,0,0,1-.8,5.81,7.26,7.26,0,0,1-2.46,3.41,6.65,6.65,0,0,1-4.12,1.21,6.57,6.57,0,0,1-5.17-2.12c-1.53-1.68-2.27-4.45-2.27-8.28Zm2.87,0c0,3.35.43,5.58,1.31,6.69a4,4,0,0,0,5.53.94,4.15,4.15,0,0,0,.93-.94q1.31-1.66,1.31-6.68c0-3.36-.44-5.64-1.31-6.7a4,4,0,0,0-3.26-1.65,3.68,3.68,0,0,0-3.07,1.45q-1.44,1.86-1.44,6.89Z"/><path class="cls-1" d="M326.73,82.59h3V94.4a12.6,12.6,0,0,1-.78,4.9,6.14,6.14,0,0,1-2.82,2.94,10.78,10.78,0,0,1-5.29,1.13,12,12,0,0,1-5.23-.94,6,6,0,0,1-2.91-2.82,12.4,12.4,0,0,1-.86-5.11V82.59h3V94.4a10.43,10.43,0,0,0,.54,3.92,3.86,3.86,0,0,0,1.88,1.94,7.27,7.27,0,0,0,3.28.68q3.31,0,4.69-1.34t1.42-5.2Z"/><path class="cls-3" d="M320.45,110.79h3v11.78a12.79,12.79,0,0,1-.78,4.9,6.26,6.26,0,0,1-2.82,2.95,10.83,10.83,0,0,1-5.31,1.13,11.88,11.88,0,0,1-5.22-1,6,6,0,0,1-2.9-2.87,12.26,12.26,0,0,1-.87-5.12V110.79h3v11.78a10.46,10.46,0,0,0,.55,3.93,3.84,3.84,0,0,0,1.88,1.93,7.27,7.27,0,0,0,3.28.68c2.21,0,3.76-.44,4.7-1.34s1.41-2.63,1.41-5.2Z"/><path class="cls-7" d="M321.34,151.38V149H331v7.57A17.7,17.7,0,0,1,326.4,159a15,15,0,0,1-4.84.8,14,14,0,0,1-6.08-1.29,9,9,0,0,1-4.14-3.75,10.92,10.92,0,0,1-1.39-5.45,11.61,11.61,0,0,1,1.39-5.56,8.73,8.73,0,0,1,4-3.84,13.68,13.68,0,0,1,6-1.26,13.24,13.24,0,0,1,4.46.73,7.29,7.29,0,0,1,3.12,2,8.45,8.45,0,0,1,1.72,3.34l-2.71.67a7.07,7.07,0,0,0-1.27-2.45,5.19,5.19,0,0,0-2.17-1.43,9.09,9.09,0,0,0-3.14-.53,10,10,0,0,0-3.55.56,6.61,6.61,0,0,0-2.43,1.48,7.23,7.23,0,0,0-1.44,2,9.84,9.84,0,0,0-.87,4.1,9.24,9.24,0,0,0,1.05,4.58,6.41,6.41,0,0,0,3,2.72,10.31,10.31,0,0,0,4.24.89,11.24,11.24,0,0,0,3.81-.67,10.3,10.3,0,0,0,2.82-1.44v-3.76Z"/><path class="cls-7" d="M321.34,173.94v-2.39H331v7.56a17.7,17.7,0,0,1-4.58,2.39,15,15,0,0,1-4.84.81,14.32,14.32,0,0,1-6.08-1.29,9,9,0,0,1-4.14-3.76,10.91,10.91,0,0,1-1.39-5.44,11.58,11.58,0,0,1,1.39-5.56,8.73,8.73,0,0,1,4-3.84,13.68,13.68,0,0,1,6-1.26,13.24,13.24,0,0,1,4.46.72,7.39,7.39,0,0,1,3.12,2,8.56,8.56,0,0,1,1.72,3.35l-2.71.65a7.21,7.21,0,0,0-1.27-2.44,5.28,5.28,0,0,0-2.17-1.43,9,9,0,0,0-3.14-.53,10,10,0,0,0-3.55.56,6.5,6.5,0,0,0-2.43,1.49,7.09,7.09,0,0,0-1.44,2,9.81,9.81,0,0,0-.87,4.1,9,9,0,0,0,1.05,4.56,6.45,6.45,0,0,0,3,2.74,10.47,10.47,0,0,0,4.24.89,11,11,0,0,0,3.81-.68,10.3,10.3,0,0,0,2.82-1.44V174Z"/><path class="cls-6" d="M309.2,191.7l3,.68a9,9,0,0,1-3.4,5.08,10.07,10.07,0,0,1-6,1.75,11.7,11.7,0,0,1-6-1.34,8.67,8.67,0,0,1-3.51-3.9,12.75,12.75,0,0,1-1.2-5.47,10.85,10.85,0,0,1,1.36-5.55,8.82,8.82,0,0,1,3.86-3.62,12.26,12.26,0,0,1,5.51-1.23,10,10,0,0,1,5.74,1.56,8,8,0,0,1,3.23,4.38l-3,.63a6.17,6.17,0,0,0-2.28-3.24,6.62,6.62,0,0,0-3.75-1,8,8,0,0,0-4.39,1.13,6,6,0,0,0-2.47,3,11.14,11.14,0,0,0-.7,3.92,11.57,11.57,0,0,0,.83,4.54,5.92,5.92,0,0,0,2.63,2.91,8,8,0,0,0,3.86.94,6.94,6.94,0,0,0,4.27-1.3A6.6,6.6,0,0,0,309.2,191.7Z"/><rect class="cls-8" x="331.44" y="97.76" width="66.38" height="28.96"/><text class="cls-9" transform="translate(336.06 115.99) scale(1.04 1)">Theophylline</text><line class="cls-2" x1="352.68" y1="266.86" x2="326.57" y2="266.86"/><line class="cls-2" x1="352.68" y1="291.99" x2="326.57" y2="291.99"/><line class="cls-2" x1="352.68" y1="314.33" x2="326.57" y2="314.33"/><line class="cls-2" x1="358.9" y1="174.71" x2="332.78" y2="174.71"/><line class="cls-2" x1="408.87" y1="110.87" x2="408.87" y2="95.84"/><line class="cls-2" x1="360.45" y1="150.98" x2="334.34" y2="150.98"/><line class="cls-2" x1="433.74" y1="110.87" x2="433.74" y2="95.84"/><line class="cls-2" x1="458.6" y1="110.87" x2="458.6" y2="95.84"/><text class="cls-10" transform="translate(39.76 28.63)">Theophylline aptamer</text><text class="cls-11" transform="translate(353.92 381.22) scale(1.28 1)">5<tspan class="cls-12" x="13.06" y="0">’</tspan></text><text class="cls-11" transform="translate(305.56 381.22) scale(1.28 1)">3<tspan class="cls-12" x="13.06" y="0">’</tspan></text></svg>