<svg id="图层_1" data-name="图层 1" xmlns="http://www.w3.org/2000/svg" viewBox="0 0 800 400"><defs><style>.cls-1,.cls-2,.cls-4{font-size:20px;font-family:MicrosoftYaHei, Microsoft YaHei;}.cls-1{fill:#ff8001;}.cls-2{fill:#018837;}.cls-3{fill:#cd1083;stroke:#000;stroke-miterlimit:10;stroke-width:2px;}</style></defs><text class="cls-1" transform="translate(229.95 104.68)">tMG RNA aptamer</text><text class="cls-2" transform="translate(413.43 296.38)">C</text><text class="cls-2" transform="translate(398.18 296.38)">G</text><text class="cls-2" transform="translate(477.1 297.45)">G</text><text class="cls-2" transform="translate(550.19 297.7)">G</text><text class="cls-2" transform="translate(602.19 296.95)">G</text><text class="cls-2" transform="translate(615.51 296.7)">G</text><text class="cls-2" transform="translate(588.82 256.68)">G</text><text class="cls-2" transform="translate(536.8 257.92)">G</text><text class="cls-2" transform="translate(463.71 256.67)">G</text><text class="cls-2" transform="translate(450.56 256.92)">G</text><text class="cls-1" transform="translate(423.87 248)">G</text><text class="cls-2" transform="translate(410.48 256.67)">G</text><text class="cls-2" transform="translate(367.48 256.16)">G</text><text class="cls-2" transform="translate(354.09 256.42)">G</text><text class="cls-2" transform="translate(340.71 256.16)">G</text><text class="cls-2" transform="translate(452.54 297.7)">C</text><text class="cls-2" transform="translate(464.68 297.7)">C</text><text class="cls-1" transform="translate(485.78 312.4)">C</text><text class="cls-1" transform="translate(523.19 325.25)">G</text><text class="cls-1" transform="translate(496.05 325.25)">G</text><text class="cls-1" transform="translate(509.5 335.94)">G</text><text class="cls-2" transform="translate(537.8 297.45)">C</text><text class="cls-2" transform="translate(589.8 297.45)">C</text><text class="cls-1" transform="translate(627.82 264.28)">C</text><text class="cls-2" transform="translate(614.51 256.92)">C</text><text class="cls-2" transform="translate(602.21 256.92)">C</text><text class="cls-2" transform="translate(550.19 257.18)">C</text><text class="cls-2" transform="translate(398.18 256.16)">C</text><text class="cls-2" transform="translate(385.87 256.16)">C</text><text class="cls-1" transform="translate(627.79 287.21)">U</text><text class="cls-2" transform="translate(575.66 256.68)">U</text><text class="cls-2" transform="translate(562.49 257.43)">U</text><text class="cls-1" transform="translate(496.26 240.86)">U</text><text class="cls-2" transform="translate(477.1 257.18)">U</text><text class="cls-2" transform="translate(376.27 310.51)">A</text><text class="cls-1" transform="translate(433.17 306.22)">A</text><text class="cls-1" transform="translate(531 309.51)">A</text><text class="cls-2" transform="translate(563.26 297.45)">A</text><text class="cls-2" transform="translate(577.42 297.7)">A</text><text class="cls-1" transform="translate(641.12 271.58)">A</text><text class="cls-1" transform="translate(518.96 240.78)">A</text><text class="cls-1" transform="translate(437.26 248)">A</text><text class="cls-2" transform="translate(384.87 296.38)">G</text><text class="cls-2" transform="translate(342.04 296.38)">C</text><text class="cls-2" transform="translate(355.07 296.38)">C</text><text class="cls-2" transform="translate(367.48 296.38)">C</text><line class="cls-3" x1="558.55" y1="282.25" x2="558.55" y2="256.91"/><line class="cls-3" x1="544.84" y1="283.25" x2="544.84" y2="257.91"/><line class="cls-3" x1="484.6" y1="281.43" x2="484.6" y2="256.09"/><line class="cls-3" x1="472.74" y1="281.68" x2="472.74" y2="256.34"/><line class="cls-3" x1="459.87" y1="281.68" x2="459.87" y2="256.34"/><line class="cls-3" x1="419.81" y1="281.43" x2="419.81" y2="256.09"/><line class="cls-3" x1="406.34" y1="281.68" x2="406.34" y2="256.34"/><line class="cls-3" x1="392.87" y1="281.68" x2="392.87" y2="256.34"/><line class="cls-3" x1="374.64" y1="281.43" x2="374.64" y2="256.09"/><line class="cls-3" x1="362.31" y1="281.68" x2="362.31" y2="256.34"/><line class="cls-3" x1="349.99" y1="281.68" x2="349.99" y2="256.34"/><line class="cls-3" x1="420.21" y1="322.18" x2="420.21" y2="296.84"/><line class="cls-3" x1="559.55" y1="321.98" x2="548.78" y2="299.04"/><line class="cls-3" x1="621.76" y1="239.65" x2="621.76" y2="214.31"/><line class="cls-3" x1="472.74" y1="239.65" x2="472.74" y2="214.31"/><text class="cls-4" transform="translate(410.48 337.5)">40</text><text class="cls-4" transform="translate(548.78 337.25)">30</text><text class="cls-4" transform="translate(610.75 212.57)">20</text><text class="cls-4" transform="translate(460.31 212.31)">10</text><line class="cls-3" x1="621.76" y1="281.43" x2="621.76" y2="256.09"/><line class="cls-3" x1="610.56" y1="282.25" x2="610.56" y2="256.91"/><line class="cls-3" x1="597.17" y1="281.43" x2="597.17" y2="256.09"/><line class="cls-3" x1="583.77" y1="282.43" x2="583.77" y2="257.09"/><line class="cls-3" x1="570.37" y1="283.25" x2="570.37" y2="257.91"/></svg>