<svg id="图层_1" data-name="图层 1" xmlns="http://www.w3.org/2000/svg" viewBox="0 0 800 400">
  <defs>
    <style>
      .cls-1 {
        font-size: 25.87px;
        fill: #242424;
      }

      .cls-1, .cls-10, .cls-11, .cls-12, .cls-2, .cls-3, .cls-4, .cls-5, .cls-6, .cls-7, .cls-8, .cls-9 {
        font-family: ArialMT, Arial;
      }

      .cls-2 {
        font-size: 20px;
      }

      .cls-10, .cls-11, .cls-12, .cls-3, .cls-4, .cls-5, .cls-6, .cls-7, .cls-8, .cls-9 {
        isolation: isolate;
        font-size: 20.9px;
      }

      .cls-3, .cls-4 {
        fill: #ff931e;
      }

      .cls-10, .cls-4, .cls-5, .cls-8 {
        letter-spacing: -0.06em;
      }

      .cls-5, .cls-6 {
        fill: #3fa9f5;
      }

      .cls-7, .cls-8 {
        fill: #22b573;
      }

      .cls-10, .cls-11, .cls-15, .cls-9 {
        fill: #ff7bac;
      }

      .cls-11 {
        letter-spacing: -0.06em;
      }

      .cls-13 {
        fill: none;
      }

      .cls-13, .cls-14, .cls-15 {
        stroke: #000;
        stroke-miterlimit: 10;
        stroke-width: 0.25px;
      }
    </style>
  </defs>
  <text class="cls-1" transform="translate(403.22 259.17)">5’</text>
  <text class="cls-1" transform="translate(446.16 368.08)">3’</text>
  <text class="cls-2" transform="translate(19.52 28.96)">TN29 aptamer</text>
  <text class="cls-3" transform="translate(418.83 236.2)">U</text>
  <text class="cls-4" transform="translate(419.48 215.16)">A</text>
  <text class="cls-3" transform="translate(418.16 196.04)">G</text>
  <text class="cls-3" transform="translate(397.16 196.04)">G</text>
  <text class="cls-3" transform="translate(373.52 196.04)">G</text>
  <text class="cls-4" transform="translate(349.81 196.04)">A</text>
  <text class="cls-4" transform="translate(325.69 196.04)">A</text>
  <text class="cls-3" transform="translate(303.03 196.04)">G</text>
  <text class="cls-5" transform="translate(285.11 209.72)">A</text>
  <text class="cls-6" transform="translate(264.83 196.04)">G</text>
  <text class="cls-5" transform="translate(243.2 196.54)">A</text>
  <text class="cls-5" transform="translate(223.58 205.5)">A</text>
  <text class="cls-7" transform="translate(221.33 229.01)">G</text>
  <text class="cls-7" transform="translate(221.34 251.93)">G</text>
  <text class="cls-8" transform="translate(223.61 274.13)">A</text>
  <text class="cls-7" transform="translate(233.97 293.42)">C</text>
  <text class="cls-8" transform="translate(237.34 314.7)">A</text>
  <text class="cls-7" transform="translate(225.66 333.46)">U</text>
  <text class="cls-8" transform="translate(205.38 340.11)">A</text>
  <text class="cls-7" transform="translate(184.65 332.52)">U</text>
  <text class="cls-7" transform="translate(174.02 313.29)">G</text>
  <text class="cls-8" transform="translate(178.43 292.11)">A</text>
  <text class="cls-7" transform="translate(189.59 275.14)">U</text>
  <text class="cls-7" transform="translate(189.59 251.93)">C</text>
  <text class="cls-7" transform="translate(189.59 228.76)">C</text>
  <text class="cls-6" transform="translate(189.59 207.44)">U</text>
  <text class="cls-6" transform="translate(170.95 196.29)">G</text>
  <text class="cls-6" transform="translate(154.82 185.84)">C</text>
  <text class="cls-6" transform="translate(150.11 165.83)">C</text>
  <text class="cls-6" transform="translate(150.11 143.7)">C</text>
  <text class="cls-6" transform="translate(159.99 122.93)">C</text>
  <text class="cls-5" transform="translate(179.79 108.9)">A</text>
  <text class="cls-5" transform="translate(201.59 105.71)">A</text>
  <text class="cls-6" transform="translate(222.44 110.29)">C</text>
  <text class="cls-6" transform="translate(235.02 125.96)">C</text>
  <text class="cls-5" transform="translate(243.23 146.56)">A</text>
  <text class="cls-6" transform="translate(243.27 165.58)">U</text>
  <text class="cls-6" transform="translate(265.94 163.52)">C</text>
  <text class="cls-6" transform="translate(285.08 150.62)">G</text>
  <text class="cls-3" transform="translate(303.81 163.83)">C</text>
  <text class="cls-3" transform="translate(326.66 163.82)">U</text>
  <text class="cls-3" transform="translate(349.42 163.83)">U</text>
  <text class="cls-3" transform="translate(372.81 163.83)">C</text>
  <text class="cls-3" transform="translate(396.76 163.83)">C</text>
  <text class="cls-3" transform="translate(417.83 163.83)">U</text>
  <text class="cls-9" transform="translate(437.06 163.82)">C</text>
  <text class="cls-9" transform="translate(437.06 141.17)">G</text>
  <text class="cls-10" transform="translate(437.09 117)">A</text>
  <text class="cls-9" transform="translate(437.06 93.38)">C</text>
  <text class="cls-9" transform="translate(437.06 70.32)">G</text>
  <text class="cls-9" transform="translate(425.7 55.11)">C</text>
  <text class="cls-9" transform="translate(431.22 32.47)">G</text>
  <text class="cls-9" transform="translate(454.89 24.68)">C</text>
  <text class="cls-9" transform="translate(473.82 32.22)">G</text>
  <text class="cls-9" transform="translate(482.13 55.61)">U</text>
  <text class="cls-9" transform="translate(471.06 70.57)">U</text>
  <text class="cls-9" transform="translate(469.95 92.6)">G</text>
  <text class="cls-9" transform="translate(472.71 119.07)">U</text>
  <text class="cls-9" transform="translate(472.71 137.5)">C</text>
  <text class="cls-9" transform="translate(472.71 164.08)">G</text>
  <text class="cls-9" transform="translate(493.42 164.88)">G</text>
  <text class="cls-9" transform="translate(512.62 154.51)">C</text>
  <text class="cls-11" transform="translate(533.08 147.62)">A</text>
  <text class="cls-9" transform="translate(553.99 144.75)">U</text>
  <text class="cls-9" transform="translate(575.4 145.85)">U</text>
  <text class="cls-9" transform="translate(595.99 150.83)">G</text>
  <text class="cls-11" transform="translate(615.78 159.58)">A</text>
  <text class="cls-9" transform="translate(633.46 171.72)">C</text>
  <text class="cls-9" transform="translate(648.19 186.9)">U</text>
  <text class="cls-11" transform="translate(660.66 204.59)">A</text>
  <text class="cls-9" transform="translate(669.12 224.15)">G</text>
  <text class="cls-9" transform="translate(674.19 245.02)">U</text>
  <text class="cls-11" transform="translate(675.69 266.33)">A</text>
  <text class="cls-9" transform="translate(673.45 287.73)">C</text>
  <text class="cls-11" transform="translate(665.32 307.73)">A</text>
  <text class="cls-9" transform="translate(654.59 326.26)">U</text>
  <text class="cls-9" transform="translate(642.32 344.04)">G</text>
  <text class="cls-11" transform="translate(625.84 357.52)">A</text>
  <text class="cls-9" transform="translate(607.31 368.08)">C</text>
  <text class="cls-9" transform="translate(586.91 375.09)">C</text>
  <text class="cls-11" transform="translate(565.52 378.3)">A</text>
  <text class="cls-9" transform="translate(544.12 377.57)">C</text>
  <text class="cls-9" transform="translate(522.74 372.97)">U</text>
  <text class="cls-9" transform="translate(502.95 364.64)">U</text>
  <text class="cls-9" transform="translate(484.97 352.77)">G</text>
  <text class="cls-10" transform="translate(469.9 337.86)">A</text>
  <text class="cls-12" transform="translate(260.53 230.06)">10</text>
  <text class="cls-12" transform="translate(161.04 368.08)">20</text>
  <text class="cls-12" transform="translate(104.09 128.49)">30</text>
  <text class="cls-12" transform="translate(302.55 125.96)">40</text>
  <text class="cls-12" transform="translate(697.23 196.54)">70</text>
  <line class="cls-13" x1="405.7" y1="163.94" x2="405.7" y2="180.22"/>
  <line class="cls-13" x1="381.61" y1="163.89" x2="381.61" y2="180.17"/>
  <line class="cls-13" x1="357.02" y1="163.89" x2="357.02" y2="180.17"/>
  <line class="cls-13" x1="332.44" y1="165.28" x2="332.44" y2="181.56"/>
  <line class="cls-13" x1="309.95" y1="163.52" x2="309.95" y2="179.8"/>
  <line class="cls-13" x1="272.89" y1="164.17" x2="272.89" y2="180.45"/>
  <line class="cls-13" x1="249.93" y1="165.28" x2="249.93" y2="181.56"/>
  <line class="cls-13" x1="221.63" y1="200.19" x2="205.35" y2="200.19"/>
  <line class="cls-13" x1="221.52" y1="221.7" x2="205.24" y2="221.7"/>
  <line class="cls-13" x1="221.52" y1="246.31" x2="205.24" y2="246.31"/>
  <line class="cls-13" x1="222.91" y1="267.71" x2="206.63" y2="267.71"/>
  <line class="cls-13" x1="469.66" y1="86.77" x2="453.38" y2="86.77"/>
  <line class="cls-13" x1="469.66" y1="111.37" x2="453.38" y2="111.37"/>
  <line class="cls-13" x1="471.06" y1="132.77" x2="454.78" y2="132.77"/>
  <line class="cls-13" x1="471.17" y1="156.64" x2="454.89" y2="156.64"/>
  <rect class="cls-14" x="461.31" y="60.59" width="4.24" height="4.24" rx="1.23"/>
  <rect class="cls-14" x="424.63" y="171.3" width="4.24" height="4.24" rx="1.23"/>
  <line class="cls-13" x1="187.51" y1="333.16" x2="179.03" y2="347.05"/>
  <line class="cls-13" x1="132.98" y1="127.47" x2="147.01" y2="135.74"/>
  <line class="cls-13" x1="312.83" y1="129.36" x2="312.83" y2="145.64"/>
  <line class="cls-15" x1="691.19" y1="189.75" x2="675.84" y2="195.19"/>
  <line class="cls-13" x1="272.89" y1="197.66" x2="272.89" y2="213.94"/>
</svg>
