<svg id="图层_1" data-name="图层 1" xmlns="http://www.w3.org/2000/svg" viewBox="0 0 800 400"><defs><style>.cls-1,.cls-10,.cls-12,.cls-13,.cls-14,.cls-15,.cls-19,.cls-2,.cls-4,.cls-5,.cls-6,.cls-7,.cls-8,.cls-9{isolation:isolate;}.cls-1,.cls-10,.cls-13,.cls-14,.cls-15,.cls-2,.cls-8,.cls-9{font-size:49px;}.cls-1,.cls-6,.cls-7{fill:#0a0bff;}.cls-1,.cls-10,.cls-12,.cls-13,.cls-14,.cls-15,.cls-19,.cls-2,.cls-4,.cls-5,.cls-8,.cls-9{font-family:ArialMT, Arial;}.cls-2{fill:#f0f;}.cls-3{fill:#ff0;}.cls-4,.cls-5{font-size:18px;}.cls-4{letter-spacing:-0.02em;}.cls-11,.cls-16,.cls-17,.cls-18,.cls-6,.cls-7{stroke:#000;stroke-miterlimit:1.11;}.cls-11,.cls-17,.cls-6,.cls-7{stroke-width:0.14px;}.cls-6{opacity:0.5;}.cls-7{opacity:0.4;}.cls-15,.cls-8{fill:#80db9e;}.cls-10,.cls-9{fill:#ff870a;}.cls-10,.cls-13,.cls-15{letter-spacing:-0.16em;}.cls-11,.cls-16{fill:none;}.cls-12,.cls-19{font-size:31px;}.cls-13,.cls-14{fill:#006b93;}.cls-16{stroke-width:0.75px;}.cls-18{fill:#fff;}.cls-19{letter-spacing:-0.1em;}.cls-20{letter-spacing:-0.06em;}</style></defs><g id="ID000009"><text class="cls-1" transform="translate(374.47 250.91)">G</text></g><g id="ID000010"><text class="cls-1" transform="translate(261.46 250.91)">G</text></g><g id="ID000011"><text class="cls-2" transform="translate(148.45 250.91)">G</text></g><g id="ID000028"><text class="cls-1" transform="translate(374.47 179)">G</text></g><g id="ID000029"><text class="cls-1" transform="translate(261.46 179)">G</text></g><g id="ID000031"><text class="cls-1" transform="translate(148.45 179)">G</text></g><ellipse class="cls-3" cx="137.5" cy="243.8" rx="16.1" ry="48.4"/><text class="cls-4" transform="translate(145.2 286.64) rotate(-90)">T</text><text class="cls-5" transform="translate(145.2 275.97) rotate(-90)">O1-Biotin</text><polygon class="cls-6" points="398.8 172.3 450 189.7 450 247.4 398.8 230 398.8 172.3"/><polygon class="cls-6" points="284.8 172.3 336 189.6 336 247.3 284.8 230 284.8 172.3"/><polygon class="cls-7" points="170.8 171.2 222 188.5 222 246.2 170.8 228.9 170.8 171.2"/><g id="ID000002"><text class="cls-8" transform="translate(713.51 137.9)">G</text></g><g id="ID000003"><text class="cls-8" transform="translate(673.31 137.9)">U</text></g><g id="ID000004"><text class="cls-8" transform="translate(631.31 137.9)">G</text></g><g id="ID000005"><text class="cls-8" transform="translate(591.12 137.9)">C</text></g><g id="ID000006"><text class="cls-9" transform="translate(549.13 137.9)">G</text></g><g id="ID000007"><text class="cls-10" transform="translate(509.81 137.9)">A</text></g><g id="ID000008"><text class="cls-10" transform="translate(468.72 137.9)">A</text></g><g id="ID000012"><line class="cls-11" x1="79.2" y1="330" x2="156.5" y2="248.2"/></g><g id="ID000013"><text class="cls-12" transform="translate(45.2 349.34)">10</text></g><g id="ID000014"><text class="cls-13" transform="translate(150.23 292.01)">A</text></g><g id="ID000015"><text class="cls-14" transform="translate(529.47 271.46)">C</text></g><g id="ID000016"><text class="cls-1" transform="translate(436.11 271.46)">G</text></g><g id="ID000017"><text class="cls-1" transform="translate(323.1 271.46)">G</text></g><g id="ID000018"><text class="cls-2" transform="translate(97.97 271.46)">U</text></g><g id="ID000019"><text class="cls-1" transform="translate(199.82 271.46)">G</text></g><g id="ID000020"><text class="cls-14" transform="translate(437.01 333.1)">C</text></g><g id="ID000021"><text class="cls-1" transform="translate(436.11 199.54)">G</text></g><g id="ID000022"><text class="cls-1" transform="translate(323.1 199.54)">G</text></g><g id="ID000023"><text class="cls-13" transform="translate(88.59 199.54)">A</text></g><g id="ID000024"><line class="cls-11" x1="91.6" y1="185.8" x2="64.2" y2="185.5"/></g><g id="ID000025"><text class="cls-12" transform="translate(29.74 194.51)">20</text></g><g id="ID000026"><text class="cls-1" transform="translate(199.82 199.54)">G</text></g><g id="ID000027"><text class="cls-13" transform="translate(376.26 137.9)">A</text></g><g id="ID000030"><text class="cls-13" transform="translate(119.41 148.17)">A</text></g><g id="ID000032"><text class="cls-10" transform="translate(550.91 220.09)">A</text></g><g id="ID000033"><text class="cls-8" transform="translate(590.22 220.09)">G</text></g><g id="ID000034"><text class="cls-8" transform="translate(632.21 220.09)">C</text></g><g id="ID000035"><text class="cls-15" transform="translate(674.2 220.09)">A</text></g><g id="ID000036"><line class="cls-11" x1="689.8" y1="218.5" x2="689.8" y2="245.9"/></g><g id="ID000037"><text class="cls-12" transform="translate(672.03 268.36)">30</text></g><g id="ID000038"><text class="cls-8" transform="translate(714.4 220.09)">C</text></g><g id="ID000039"><line class="cls-11" x1="730.9" y1="138.3" x2="730.9" y2="187.6"/></g><g id="ID000040"><line class="cls-11" x1="689.8" y1="138.3" x2="689.8" y2="187.6"/></g><g id="ID000041"><line class="cls-11" x1="648.7" y1="138.3" x2="648.7" y2="187.6"/></g><g id="ID000042"><line class="cls-11" x1="607.6" y1="138.3" x2="607.6" y2="187.6"/></g><g id="ID000043"><line class="cls-16" x1="233.1" y1="259.6" x2="437.6" y2="312.9"/></g><g id="ID000044"><polygon class="cls-17" points="323.1 275.9 325.7 279.7 328.7 281.5 331.9 282.9 338.2 286.1 331.1 285.9 327.7 285.5 324.1 285.7 320 287.8 323.1 275.9"/></g><g id="ID000046"><line class="cls-16" x1="375.4" y1="234.9" x2="295.3" y2="234.9"/></g><g id="ID000047"><polygon class="cls-17" points="327.5 241.1 324.1 238 320.7 236.9 317.2 236.4 310.4 234.9 317.2 233.4 320.7 232.8 324.1 231.8 327.5 228.7 327.5 241.1"/></g><g id="ID000048"><line class="cls-16" x1="120.6" y1="183.5" x2="200.8" y2="183.5"/></g><g id="ID000049"><polygon class="cls-17" points="137.5 177.4 141 180.4 144.4 181.5 147.8 182 154.7 183.5 147.8 185.1 144.4 185.6 141 186.6 137.5 189.7 137.5 177.4"/></g><g id="ID000050"><polyline class="cls-16" points="278.9 146.5 278.9 132.1 151.5 132.1"/></g><g id="ID000051"><polygon class="cls-17" points="241.3 138.3 237.9 135.2 234.5 134.2 231.1 133.7 224.2 132.1 231.1 130.6 234.5 130.1 237.9 129.1 241.3 126 241.3 138.3"/></g><g id="ID000052"><line class="cls-16" x1="473.9" y1="134.6" x2="402.3" y2="222.2"/></g><g id="ID000053"><polygon class="cls-17" points="469.5 150.4 465 151.1 462 153.1 459.4 155.4 453.9 159.7 457 153.4 458.8 150.5 460.2 147.2 460 142.6 469.5 150.4"/></g><g id="ID000054"><line class="cls-16" x1="262.4" y1="234.9" x2="182.3" y2="234.9"/></g><g id="ID000055"><polygon class="cls-17" points="251.5 241.1 248.1 238 244.7 236.9 241.2 236.4 234.4 234.9 241.2 233.4 244.7 232.8 248.1 231.8 251.5 228.7 251.5 241.1"/></g><g id="ID000056"><line class="cls-16" x1="437.1" y1="183.5" x2="356.9" y2="183.5"/></g><g id="ID000057"><polygon class="cls-17" points="402.2 189.7 398.7 186.6 395.3 185.6 391.9 185.1 385 183.5 391.9 182 395.3 181.5 398.7 180.4 402.2 177.4 402.2 189.7"/></g><g id="ID000058"><polyline class="cls-16" points="165.8 292.4 165.8 358.2 546 358.2 546 271.9"/></g><g id="ID000059"><polygon class="cls-17" points="350.8 352 354.2 355.1 357.6 356.1 361 356.6 367.9 358.2 361 359.7 357.6 360.2 354.2 361.3 350.8 364.3 350.8 352"/></g><g id="ID000060"><line class="cls-16" x1="529.5" y1="255.4" x2="470" y2="255.4"/></g><g id="ID000061"><polygon class="cls-17" points="518.9 261.6 515.5 258.5 512.1 257.5 508.6 257 501.8 255.4 508.6 253.9 512.1 253.4 515.5 252.4 518.9 249.3 518.9 261.6"/></g><g id="ID000062"><line class="cls-16" x1="437.1" y1="255.4" x2="356.9" y2="255.4"/></g><g id="ID000063"><polygon class="cls-17" points="402.2 261.6 398.7 258.5 395.3 257.5 391.9 257 385 255.4 391.9 253.9 395.3 253.4 398.7 252.4 402.2 249.3 402.2 261.6"/></g><g id="ID000064"><polyline class="cls-16" points="340.5 271.9 340.5 317.1 114.5 317.1 114.5 271.9"/></g><g id="ID000065"><polygon class="cls-17" points="236.6 323.2 233.2 320.2 229.8 319.1 226.4 318.6 219.5 317.1 226.4 315.5 229.8 315 233.2 314 236.6 310.9 236.6 323.2"/></g><g id="ID000066"><polyline class="cls-16" points="470 317.1 484.3 317.1 484.3 183.5 470 183.5"/></g><g id="ID000067"><polygon class="cls-17" points="478.2 278.5 481.2 275 482.3 271.6 482.8 268.2 484.3 261.3 485.9 268.2 486.4 271.6 487.4 275 490.5 278.5 478.2 278.5"/></g><g id="ID000068"><polyline class="cls-16" points="340.6 166.1 340.6 100.3 104.3 100.3 104.3 166.1"/></g><g id="ID000069"><polygon class="cls-17" points="227.5 107.5 224.1 104.4 220.7 103.4 217.2 102.9 210.4 101.3 217.2 99.8 220.7 99.3 224.1 98.2 227.5 95.2 227.5 107.5"/></g><g id="ID000070"><polyline class="cls-16" points="217.2 167.1 217.2 122.8 375.4 122"/></g><g id="ID000071"><polygon class="cls-17" points="291.1 116.3 294.5 119.4 298 120.4 301.4 120.9 308.3 122.4 301.4 124 298 124.5 294.6 125.6 291.2 128.6 291.1 116.3"/></g><g id="ID000072"><line class="cls-16" x1="375.4" y1="163" x2="295.3" y2="163"/></g><g id="ID000073"><polygon class="cls-17" points="369.5 169.1 366.1 166.1 362.7 165 359.2 164.5 352.4 163 359.2 161.4 362.7 160.9 366.1 159.9 369.5 156.8 369.5 169.1"/></g><g id="ID000074"><polyline class="cls-16" points="182.3 163 248 163 248 204 550.1 204.1"/></g><g id="ID000075"><polygon class="cls-17" points="393.9 197.8 397.3 200.9 400.8 201.9 404.2 202.5 411 204 404.2 205.6 400.7 206.1 397.3 207.1 393.9 210.2 393.9 197.8"/></g><g id="ID000076"><line class="cls-11" x1="441.9" y1="171.9" x2="403.5" y2="133.5"/></g><g id="ID000077"><polygon class="cls-18" points="433.3 163.4 430.9 154.4 424.4 160.9 433.3 163.4"/></g><g id="ID000078"><polygon class="cls-18" points="413.3 150.1 419.1 156 425 150.1 419.1 144.3 413.3 150.1"/></g><g id="ID000079"><line class="cls-11" x1="566.5" y1="138.3" x2="566.5" y2="187.6"/></g><g id="ID000080"><polygon class="cls-18" points="566.5 148.6 561.9 156.6 571.1 156.6 566.5 148.6"/></g><g id="ID000081"><polygon class="cls-18" points="570.6 173.8 570.6 165.6 562.4 165.6 562.4 173.8 570.6 173.8"/></g><g id="ID000082"><line class="cls-11" x1="437.9" y1="178.3" x2="407.5" y2="168.2"/></g><g id="ID000083"><polygon class="cls-17" points="433.7 176.9 433.8 176.7 433.9 176.4 433.9 176.2 433.9 175.9 433.9 175.6 433.9 175.4 433.9 175.1 433.9 174.9 433.8 174.6 433.7 174.4 433.6 174.1 433.5 173.9 433.4 173.6 433.3 173.4 433.1 173.2 433 173 432.8 172.8 432.6 172.6 432.4 172.4 432.2 172.3 432 172.1 431.8 172 431.5 171.9 431.3 171.8 431.1 171.7 430.8 171.6 430.6 171.6 430.3 171.5 430 171.5 429.8 171.5 429.5 171.5 429.3 171.6 429 171.6 428.8 171.7 428.5 171.7 428.3 171.8 428 171.9 427.8 172.1 427.6 172.2 427.4 172.3 427.1 172.5 427 172.7 426.8 172.9 426.6 173.1 426.5 173.3 426.3 173.5 426.2 173.7 426.1 174 426 174.2 425.9 174.4 425.8 174.7 425.8 175 425.7 175.2 425.7 175.5 425.7 175.7 425.7 176 425.8 176.3 425.8 176.5 425.9 176.8 426 177 426.1 177.3 426.2 177.5 426.3 177.7 426.4 177.9 426.6 178.1 426.8 178.4 426.9 178.5 427.1 178.7 427.3 178.9 427.5 179 427.8 179.2 428 179.3 428.2 179.4 428.5 179.5 428.7 179.6 429 179.6 429.2 179.7 429.5 179.7 429.7 179.7 430 179.7 430.3 179.7 430.5 179.7 430.8 179.6 431 179.6 431.3 179.5 431.5 179.4 431.8 179.3 432 179.1 432.2 179 432.4 178.8 432.6 178.7 432.8 178.5 433 178.3 433.1 178.1 433.3 177.9 433.4 177.6 433.5 177.4 433.6 177.2 433.7 176.9"/></g><g id="ID000084"><polygon class="cls-17" points="414.4 174.5 422.1 177.1 424.8 169.3 417 166.7 414.4 174.5"/></g><g id="ID000085"><line class="cls-11" x1="165.8" y1="218.4" x2="165.8" y2="179.4"/></g><g id="ID000086"><polygon class="cls-17" points="165.8 207.7 166.1 207.7 166.4 207.7 166.6 207.6 166.9 207.6 167.1 207.5 167.4 207.4 167.6 207.3 167.8 207.2 168.1 207.1 168.3 206.9 168.5 206.8 168.7 206.6 168.9 206.4 169 206.2 169.2 206 169.3 205.8 169.5 205.6 169.6 205.3 169.7 205.1 169.8 204.8 169.8 204.6 169.9 204.3 169.9 204.1 169.9 203.8 169.9 203.6 169.9 203.3 169.9 203 169.9 202.8 169.8 202.5 169.7 202.3 169.6 202 169.5 201.8 169.4 201.6 169.3 201.3 169.1 201.1 168.9 200.9 168.8 200.7 168.6 200.6 168.4 200.4 168.2 200.2 168 200.1 167.7 200 167.5 199.9 167.2 199.8 167 199.7 166.8 199.6 166.5 199.6 166.2 199.5 166 199.5 165.7 199.5 165.4 199.5 165.2 199.6 164.9 199.6 164.7 199.7 164.4 199.8 164.2 199.9 164 200 163.7 200.1 163.5 200.2 163.3 200.4 163.1 200.6 162.9 200.7 162.7 200.9 162.6 201.1 162.4 201.3 162.3 201.6 162.2 201.8 162.1 202 162 202.3 161.9 202.5 161.8 202.8 161.8 203 161.8 203.3 161.7 203.6 161.7 203.8 161.8 204.1 161.8 204.3 161.9 204.6 161.9 204.8 162 205.1 162.1 205.3 162.2 205.6 162.4 205.8 162.5 206 162.7 206.2 162.8 206.4 163 206.6 163.2 206.8 163.4 206.9 163.6 207.1 163.9 207.2 164.1 207.3 164.3 207.4 164.6 207.5 164.8 207.6 165.1 207.6 165.3 207.7 165.6 207.7 165.8 207.7"/></g><g id="ID000087"><polygon class="cls-17" points="161.7 188.1 161.7 196.4 169.9 196.4 169.9 188.1 161.7 188.1"/></g><g id="ID000088"><line class="cls-11" x1="407.5" y1="240.1" x2="437.9" y2="250.2"/></g><g id="ID000089"><polygon class="cls-17" points="414.6 242.5 414.6 242.7 414.5 243 414.5 243.2 414.5 243.5 414.4 243.8 414.5 244 414.5 244.3 414.5 244.5 414.6 244.8 414.6 245.1 414.7 245.3 414.8 245.5 415 245.8 415.1 246 415.2 246.2 415.4 246.4 415.6 246.6 415.8 246.8 416 247 416.1 247.1 416.4 247.3 416.6 247.4 416.8 247.5 417.1 247.6 417.3 247.7 417.6 247.8 417.8 247.8 418.1 247.9 418.3 247.9 418.6 247.9 418.9 247.9 419.1 247.9 419.4 247.8 419.6 247.8 419.9 247.7 420.1 247.6 420.4 247.5 420.6 247.4 420.8 247.2 421 247.1 421.2 246.9 421.4 246.7 421.6 246.5 421.8 246.3 421.9 246.1 422.1 245.9 422.2 245.7 422.3 245.4 422.4 245.2 422.5 245 422.6 244.7 422.6 244.4 422.6 244.2 422.7 243.9 422.7 243.7 422.6 243.4 422.6 243.1 422.6 242.9 422.5 242.6 422.4 242.4 422.3 242.1 422.2 241.9 422.1 241.7 422 241.5 421.8 241.3 421.6 241.1 421.5 240.9 421.3 240.7 421.1 240.5 420.8 240.4 420.6 240.2 420.4 240.1 420.2 240 419.9 239.9 419.7 239.8 419.4 239.8 419.1 239.7 418.9 239.7 418.6 239.7 418.4 239.7 418.1 239.7 417.9 239.7 417.6 239.8 417.4 239.9 417.1 239.9 416.9 240 416.6 240.1 416.4 240.3 416.2 240.4 416 240.6 415.8 240.8 415.6 240.9 415.4 241.1 415.2 241.3 415.1 241.6 415 241.8 414.9 242 414.7 242.2 414.6 242.5"/></g><g id="ID000090"><polygon class="cls-17" points="436 245.9 428.2 243.3 425.6 251.1 433.4 253.7 436 245.9"/></g><g id="ID000091"><line class="cls-11" x1="340.5" y1="239" x2="340.5" y2="200"/></g><g id="ID000092"><polygon class="cls-17" points="340.5 227.3 340.8 227.3 341 227.2 341.3 227.2 341.5 227.1 341.8 227.1 342 227 342.3 226.9 342.5 226.8 342.7 226.6 342.9 226.5 343.1 226.3 343.3 226.1 343.5 225.9 343.7 225.8 343.9 225.6 344 225.3 344.1 225.1 344.2 224.9 344.3 224.6 344.4 224.4 344.5 224.1 344.5 223.9 344.6 223.6 344.6 223.4 344.6 223.1 344.6 222.8 344.6 222.6 344.5 222.3 344.5 222.1 344.4 221.8 344.3 221.6 344.2 221.3 344.1 221.1 343.9 220.9 343.8 220.7 343.6 220.5 343.4 220.3 343.2 220.1 343 219.9 342.8 219.8 342.6 219.6 342.4 219.5 342.1 219.4 341.9 219.3 341.7 219.2 341.4 219.2 341.1 219.1 340.9 219.1 340.6 219.1 340.4 219.1 340.1 219.1 339.9 219.1 339.6 219.2 339.3 219.2 339.1 219.3 338.9 219.4 338.6 219.5 338.4 219.6 338.2 219.8 338 219.9 337.8 220.1 337.6 220.3 337.4 220.5 337.2 220.7 337.1 220.9 336.9 221.1 336.8 221.3 336.7 221.6 336.6 221.8 336.5 222.1 336.5 222.3 336.4 222.6 336.4 222.8 336.4 223.1 336.4 223.4 336.4 223.6 336.5 223.9 336.5 224.1 336.6 224.4 336.7 224.6 336.8 224.9 336.9 225.1 337 225.3 337.1 225.6 337.3 225.8 337.5 225.9 337.7 226.1 337.9 226.3 338.1 226.5 338.3 226.6 338.5 226.8 338.7 226.9 339 227 339.2 227.1 339.5 227.1 339.7 227.2 340 227.2 340.2 227.3 340.5 227.3"/></g><g id="ID000093"><polygon class="cls-17" points="336.4 206.7 336.4 214.9 344.6 214.9 344.6 206.7 336.4 206.7"/></g><g id="ID000094"><line class="cls-11" x1="453.5" y1="239" x2="453.5" y2="200"/></g><g id="ID000095"><polygon class="cls-17" points="453.5 227.3 453.8 227.3 454 227.2 454.3 227.2 454.5 227.1 454.8 227.1 455 227 455.3 226.9 455.5 226.8 455.7 226.6 456 226.5 456.1 226.3 456.4 226.1 456.5 225.9 456.7 225.8 456.9 225.6 457 225.3 457.1 225.1 457.2 224.9 457.4 224.6 457.4 224.4 457.5 224.1 457.6 223.9 457.6 223.6 457.6 223.4 457.6 223.1 457.6 222.8 457.6 222.6 457.5 222.3 457.5 222.1 457.4 221.8 457.3 221.6 457.2 221.3 457.1 221.1 456.9 220.9 456.8 220.7 456.6 220.5 456.4 220.3 456.2 220.1 456 219.9 455.8 219.8 455.6 219.6 455.4 219.5 455.2 219.4 454.9 219.3 454.7 219.2 454.4 219.2 454.2 219.1 453.9 219.1 453.6 219.1 453.4 219.1 453.1 219.1 452.9 219.1 452.6 219.2 452.4 219.2 452.1 219.3 451.9 219.4 451.6 219.5 451.4 219.6 451.2 219.8 451 219.9 450.8 220.1 450.6 220.3 450.4 220.5 450.2 220.7 450.1 220.9 450 221.1 449.8 221.3 449.7 221.6 449.6 221.8 449.5 222.1 449.5 222.3 449.4 222.6 449.4 222.8 449.4 223.1 449.4 223.4 449.4 223.6 449.5 223.9 449.5 224.1 449.6 224.4 449.7 224.6 449.8 224.9 449.9 225.1 450 225.3 450.2 225.6 450.3 225.8 450.5 225.9 450.7 226.1 450.9 226.3 451.1 226.5 451.3 226.6 451.5 226.8 451.7 226.9 452 227 452.2 227.1 452.5 227.1 452.7 227.2 453 227.2 453.2 227.3 453.5 227.3"/></g><g id="ID000096"><polygon class="cls-17" points="449.4 206.7 449.4 214.9 457.6 214.9 457.6 206.7 449.4 206.7"/></g><g id="ID000097"><line class="cls-11" x1="324.9" y1="178.3" x2="294.5" y2="168.2"/></g><g id="ID000098"><polygon class="cls-17" points="319.7 176.9 319.8 176.7 319.9 176.4 319.9 176.2 319.9 175.9 319.9 175.6 319.9 175.4 319.9 175.1 319.9 174.9 319.8 174.6 319.7 174.4 319.6 174.1 319.5 173.9 319.4 173.6 319.3 173.4 319.1 173.2 319 173 318.8 172.8 318.6 172.6 318.4 172.4 318.2 172.3 318 172.1 317.8 172 317.5 171.9 317.3 171.8 317 171.7 316.8 171.6 316.5 171.6 316.3 171.5 316 171.5 315.8 171.5 315.5 171.5 315.2 171.6 315 171.6 314.7 171.7 314.5 171.7 314.2 171.8 314 171.9 313.8 172.1 313.5 172.2 313.3 172.3 313.1 172.5 312.9 172.7 312.8 172.9 312.6 173.1 312.4 173.3 312.3 173.5 312.2 173.7 312.1 174 312 174.2 311.9 174.4 311.8 174.7 311.8 175 311.7 175.2 311.7 175.5 311.7 175.7 311.7 176 311.8 176.3 311.8 176.5 311.9 176.8 312 177 312 177.3 312.1 177.5 312.3 177.7 312.4 177.9 312.6 178.1 312.7 178.4 312.9 178.5 313.1 178.7 313.3 178.9 313.5 179 313.7 179.2 314 179.3 314.2 179.4 314.5 179.5 314.7 179.6 315 179.6 315.2 179.7 315.5 179.7 315.7 179.7 316 179.7 316.2 179.7 316.5 179.7 316.8 179.6 317 179.6 317.3 179.5 317.5 179.4 317.7 179.3 318 179.1 318.2 179 318.4 178.8 318.6 178.7 318.8 178.5 319 178.3 319.1 178.1 319.3 177.9 319.4 177.6 319.5 177.4 319.6 177.2 319.7 176.9"/></g><g id="ID000099"><polygon class="cls-17" points="301.3 174.5 309.1 177.1 311.7 169.3 303.9 166.7 301.3 174.5"/></g><g id="ID000100"><line class="cls-11" x1="294.5" y1="240.1" x2="324.9" y2="250.2"/></g><g id="ID000101"><polygon class="cls-17" points="303.6 242.5 303.6 242.7 303.5 243 303.5 243.2 303.4 243.5 303.4 243.8 303.4 244 303.5 244.3 303.5 244.5 303.6 244.8 303.6 245.1 303.7 245.3 303.8 245.5 303.9 245.8 304.1 246 304.2 246.2 304.4 246.4 304.5 246.6 304.7 246.8 304.9 247 305.1 247.1 305.4 247.3 305.6 247.4 305.8 247.5 306.1 247.6 306.3 247.7 306.5 247.8 306.8 247.8 307.1 247.9 307.3 247.9 307.6 247.9 307.9 247.9 308.1 247.9 308.4 247.8 308.6 247.8 308.9 247.7 309.1 247.6 309.4 247.5 309.6 247.4 309.8 247.2 310 247.1 310.2 246.9 310.4 246.7 310.6 246.5 310.8 246.3 310.9 246.1 311.1 245.9 311.2 245.7 311.3 245.4 311.4 245.2 311.5 245 311.5 244.7 311.6 244.4 311.6 244.2 311.6 243.9 311.6 243.7 311.6 243.4 311.6 243.1 311.5 242.9 311.5 242.6 311.4 242.4 311.3 242.1 311.2 241.9 311.1 241.7 310.9 241.5 310.8 241.3 310.6 241.1 310.4 240.9 310.2 240.7 310 240.5 309.8 240.4 309.6 240.2 309.4 240.1 309.1 240 308.9 239.9 308.6 239.8 308.4 239.8 308.1 239.7 307.9 239.7 307.6 239.7 307.4 239.7 307.1 239.7 306.9 239.7 306.6 239.8 306.3 239.9 306.1 239.9 305.9 240 305.6 240.1 305.4 240.3 305.2 240.4 305 240.6 304.8 240.8 304.6 240.9 304.4 241.1 304.2 241.3 304.1 241.6 304 241.8 303.8 242 303.7 242.2 303.6 242.5"/></g><g id="ID000102"><polygon class="cls-17" points="322 244.9 314.2 242.3 311.6 250.1 319.4 252.7 322 244.9"/></g><g id="ID000103"><polyline class="cls-16" points="98 255.4 93.9 255.4 93.9 337.6 217.2 337.6 217.2 271.9"/></g><g id="ID000104"><polygon class="cls-17" points="150.4 331.5 153.8 334.5 157.3 335.6 160.7 336.1 167.5 337.6 160.7 339.2 157.3 339.7 153.8 340.7 150.4 343.8 150.4 331.5"/></g><text class="cls-12" transform="translate(749.84 95.17)">5</text><text class="cls-19" transform="translate(767.08 95.17)">’</text><text class="cls-12" transform="translate(748.54 243.34)">3</text><text class="cls-19" transform="translate(765.78 243.34)">’</text><text class="cls-12" transform="translate(291.22 58.21)">Mango<tspan class="cls-20" x="94.79" y="0"> </tspan><tspan x="101.69" y="0">Aptamer</tspan></text></svg>