<?xml version="1.0" encoding="utf-8"?>
<!-- Generator: Adobe Illustrator 27.0.0, SVG Export Plug-In . SVG Version: 6.00 Build 0)  -->
<svg version="1.1" id="_图层_1" xmlns="http://www.w3.org/2000/svg" xmlns:xlink="http://www.w3.org/1999/xlink" x="0px" y="0px"
	 viewBox="0 0 800 400" style="enable-background:new 0 0 800 400;" xml:space="preserve">
<style type="text/css">
	.st0{fill:#8527B5;}
	.st1{fill:#18988C;}
	.st2{font-family:'ArialMT';}
	.st3{font-size:28.21px;}
	.st4{fill:#F17D07;}
	.st5{fill:#FFFFFF;}
	.st6{font-size:10.36px;}
	.st7{opacity:0.5;fill:#0A0BFF;stroke:#000000;stroke-miterlimit:1.11;enable-background:new    ;}
	.st8{opacity:0.4;fill:#0A0BFF;stroke:#000000;stroke-miterlimit:1.11;enable-background:new    ;}
	.st9{fill:#B83332;}
	.st10{fill:#084595;}
	.st11{letter-spacing:-5;}
	.st12{fill:none;stroke:#000000;stroke-width:0.25;stroke-miterlimit:1.11;}
	.st13{font-size:17.85px;}
	.st14{fill:#04A103;}
	.st15{fill:#C2B617;}
	.st16{fill:none;stroke:#000000;stroke-miterlimit:10;}
	.st17{fill:none;stroke:#000000;stroke-miterlimit:1.11;}
	.st18{stroke:#000000;stroke-miterlimit:1.11;}
	.st19{fill:#FFFFFF;stroke:#000000;stroke-miterlimit:1.11;}
	.st20{font-size:20px;}
</style>
<rect x="558.6" y="131.8" class="st0" width="14.5" height="51.2"/>
<g id="ID000009">
	<text transform="matrix(1 0 0 1 410.16 161.77)" class="st1 st2 st3">G</text>
</g>
<g id="ID000010">
	<text transform="matrix(1 0 0 1 475.22 161.77)" class="st1 st2 st3">G</text>
</g>
<g id="ID000011">
	<text transform="matrix(1 0 0 1 540.28 161.77)" class="st4 st2 st3">G</text>
</g>
<g id="ID000028">
	<text transform="matrix(1 0 0 1 410.16 120.37)" class="st1 st2 st3">G</text>
</g>
<g id="ID000029">
	<text transform="matrix(1 0 0 1 475.22 120.37)" class="st1 st2 st3">G</text>
</g>
<g id="ID000031">
	<text transform="matrix(1 0 0 1 540.28 120.37)" class="st1 st2 st3">G</text>
</g>
<text transform="matrix(6.123234e-17 -1 1 6.123234e-17 569.62 182.3301)" class="st5 st2 st6">T</text>
<text transform="matrix(6.123234e-17 -1 1 6.123234e-17 569.62 176.1904)" class="st5 st2 st6">O1-Biotin</text>
<polygon class="st7" points="418.1,149.7 388.6,159.8 388.6,126.5 418.1,116.5 "/>
<polygon class="st7" points="483.7,149.7 454.2,159.7 454.2,126.5 483.7,116.5 "/>
<polygon class="st8" points="549.4,149.1 519.9,159.1 519.9,125.8 549.4,115.9 "/>
<g id="ID000002">
	<text transform="matrix(1 0 0 1 214.98 96.71)" class="st9 st2 st3">G</text>
</g>
<g id="ID000003">
	<text transform="matrix(1 0 0 1 239.7 96.71)" class="st9 st2 st3">U</text>
</g>
<g id="ID000004">
	<text transform="matrix(1 0 0 1 262.31 96.71)" class="st9 st2 st3">G</text>
</g>
<g id="ID000005">
	<text transform="matrix(1 0 0 1 287.01 96.71)" class="st9 st2 st3">C</text>
</g>
<g id="ID000006">
	<text transform="matrix(1 0 0 1 309.62 96.71)" class="st10 st2 st3">G</text>
</g>
<g id="ID000007">
	<text transform="matrix(1 0 0 1 335.37 96.71)" class="st10 st2 st3 st11">A</text>
</g>
<g id="ID000008">
	<text transform="matrix(1 0 0 1 359.02 96.71)" class="st10 st2 st3 st11">A</text>
</g>
<g id="ID000012">
	<line class="st12" x1="557.6" y1="160.2" x2="602.1" y2="207.3"/>
</g>
<g id="ID000013">
	<text transform="matrix(1 0 0 1 601.81 218.43)" class="st2 st13">10</text>
</g>
<g id="ID000014">
	<text transform="matrix(1 0 0 1 542.37 185.43)" class="st14 st2 st3 st11">A</text>
</g>
<g id="ID000015">
	<text transform="matrix(1 0 0 1 322.5 173.6)" class="st15 st2 st3">C</text>
</g>
<g id="ID000016">
	<text transform="matrix(1 0 0 1 374.68 173.6)" class="st1 st2 st3">G</text>
</g>
<g id="ID000017">
	<text transform="matrix(1 0 0 1 439.74 173.6)" class="st1 st2 st3">G</text>
</g>
<g id="ID000018">
	<text transform="matrix(1 0 0 1 570.91 173.6)" class="st4 st2 st3">U</text>
</g>
<g id="ID000019">
	<text transform="matrix(1 0 0 1 510.71 173.6)" class="st1 st2 st3">G</text>
</g>
<g id="ID000020">
	<text transform="matrix(1 0 0 1 375.73 209.08)" class="st15 st2 st3">C</text>
</g>
<g id="ID000021">
	<text transform="matrix(1 0 0 1 374.68 132.19)" class="st1 st2 st3">G</text>
</g>
<g id="ID000022">
	<text transform="matrix(1 0 0 1 439.74 132.19)" class="st1 st2 st3">G</text>
</g>
<g id="ID000023">
	<text transform="matrix(1 0 0 1 577.86 132.19)" class="st14 st2 st3 st11">A</text>
</g>
<g id="ID000024">
	<line class="st12" x1="610.7" y1="124.1" x2="595" y2="124.3"/>
</g>
<g id="ID000025">
	<text transform="matrix(1 0 0 1 610.71 129.3)" class="st2 st13">20</text>
</g>
<g id="ID000026">
	<text transform="matrix(1 0 0 1 510.71 132.19)" class="st1 st2 st3">G</text>
</g>
<g id="ID000027">
	<text transform="matrix(1 0 0 1 412.25 96.71)" class="st15 st2 st3 st11">A</text>
</g>
<g id="ID000030">
	<text transform="matrix(1 0 0 1 560.11 102.62)" class="st14 st2 st3 st11">A</text>
</g>
<g id="ID000032">
	<text transform="matrix(1 0 0 1 311.71 144.02)" class="st10 st2 st3 st11">A</text>
</g>
<g id="ID000033">
	<text transform="matrix(1 0 0 1 285.96 144.02)" class="st9 st2 st3">G</text>
</g>
<g id="ID000034">
	<text transform="matrix(1 0 0 1 263.36 144.02)" class="st9 st2 st3">C</text>
</g>
<g id="ID000035">
	<text transform="matrix(1 0 0 1 240.73 144.02)" class="st9 st2 st3 st11">A</text>
</g>
<g id="ID000036">
	<line class="st12" x1="250.6" y1="158.9" x2="250.6" y2="143.1"/>
</g>
<g id="ID000037">
	<text transform="matrix(1 0 0 1 240.95 171.81)" class="st2 st13">30</text>
</g>
<g id="ID000038">
	<text transform="matrix(1 0 0 1 216.04 144.02)" class="st9 st2 st3">C</text>
</g>
<g id="ID000039">
	<line class="st16" x1="226.9" y1="125.3" x2="226.9" y2="96.9"/>
</g>
<g id="ID000040">
	<line class="st17" x1="250.6" y1="125.3" x2="250.6" y2="96.9"/>
</g>
<g id="ID000041">
	<line class="st17" x1="274.2" y1="125.3" x2="274.2" y2="96.9"/>
</g>
<g id="ID000042">
	<line class="st17" x1="297.9" y1="125.3" x2="297.9" y2="96.9"/>
</g>
<g id="ID000043">
	<line class="st17" x1="395.8" y1="197.4" x2="513.5" y2="166.8"/>
</g>
<g id="ID000044">
	<polygon class="st18" points="463.5,183 461.1,181.8 459,181.7 457.1,181.9 453,182 456.6,180.2 458.5,179.4 460.2,178.3 
		461.7,176.1 	"/>
</g>
<g id="ID000046">
	<line class="st17" x1="477.7" y1="152.6" x2="431.6" y2="152.6"/>
</g>
<g id="ID000047">
	<polygon class="st18" points="459.1,149 461.1,150.8 463.1,151.3 465.1,151.7 469,152.6 465.1,153.4 463.1,153.7 461.1,154.3 
		459.1,156.1 	"/>
</g>
<g id="ID000048">
	<line class="st17" x1="532.1" y1="123" x2="578.2" y2="123"/>
</g>
<g id="ID000049">
	<polygon class="st18" points="568.5,126.5 566.5,124.7 564.5,124.2 562.6,123.9 558.6,123 562.6,122.1 564.5,121.8 566.5,121.2 
		568.5,119.4 	"/>
</g>
<g id="ID000050">
	<polyline class="st17" points="560.5,93.4 487.1,93.4 487.1,101.7 	"/>
</g>
<g id="ID000051">
	<polygon class="st18" points="508.8,89.9 510.7,91.6 512.7,92.2 514.6,92.5 518.6,93.4 514.6,94.3 512.7,94.6 510.7,95.2 
		508.8,96.9 	"/>
</g>
<g id="ID000052">
	<line class="st17" x1="416.1" y1="145.2" x2="374.9" y2="94.8"/>
</g>
<g id="ID000053">
	<polygon class="st18" points="382.9,99.4 382.8,102.1 383.6,104 384.6,105.6 386.4,109.3 383.2,106.8 381.7,105.5 380,104.3 
		377.4,103.9 	"/>
</g>
<g id="ID000054">
	<line class="st17" x1="542.7" y1="152.6" x2="496.6" y2="152.6"/>
</g>
<g id="ID000055">
	<polygon class="st18" points="502.9,149 504.9,150.8 506.8,151.3 508.8,151.7 512.7,152.6 508.8,153.4 506.8,153.7 504.9,154.3 
		502.9,156.1 	"/>
</g>
<g id="ID000056">
	<line class="st17" x1="442.2" y1="123" x2="396" y2="123"/>
</g>
<g id="ID000057">
	<polygon class="st18" points="416.1,119.4 418.2,121.2 420.1,121.8 422.1,122.1 426,123 422.1,123.9 420.1,124.2 418.2,124.7 
		416.1,126.5 	"/>
</g>
<g id="ID000058">
	<polyline class="st17" points="333.4,173.9 333.4,223.5 552.2,223.5 552.2,185.6 	"/>
</g>
<g id="ID000059">
	<polygon class="st18" points="445.7,227 443.8,225.3 441.8,224.7 439.9,224.4 435.9,223.5 439.9,222.6 441.8,222.3 443.8,221.8 
		445.7,220 	"/>
</g>
<g id="ID000060">
	<line class="st17" x1="377.1" y1="164.4" x2="342.9" y2="164.4"/>
</g>
<g id="ID000061">
	<polygon class="st18" points="349,160.8 350.9,162.6 352.9,163.2 354.9,163.5 358.8,164.4 354.9,165.3 352.9,165.6 350.9,166.1 
		349,167.9 	"/>
</g>
<g id="ID000062">
	<line class="st17" x1="442.2" y1="164.4" x2="396" y2="164.4"/>
</g>
<g id="ID000063">
	<polygon class="st18" points="416.1,160.8 418.2,162.6 420.1,163.2 422.1,163.5 426,164.4 422.1,165.3 420.1,165.6 418.2,166.1 
		416.1,167.9 	"/>
</g>
<g id="ID000064">
	<polyline class="st17" points="581.8,173.9 581.8,199.9 451.7,199.9 451.7,173.9 	"/>
</g>
<g id="ID000065">
	<polygon class="st18" points="511.5,196.3 513.4,198.1 515.4,198.7 517.3,198.9 521.3,199.9 517.3,200.7 515.4,201 513.4,201.6 
		511.5,203.4 	"/>
</g>
<g id="ID000066">
	<polyline class="st17" points="377.1,123 368.9,123 368.9,199.9 377.1,199.9 	"/>
</g>
<g id="ID000067">
	<polygon class="st18" points="365.3,177.6 367.1,175.6 367.7,173.7 368,171.7 368.9,167.8 369.7,171.7 370,173.7 370.7,175.6 
		372.4,177.6 	"/>
</g>
<g id="ID000068">
	<polyline class="st17" points="587.6,112.9 587.6,75.1 451.6,75.1 451.6,112.9 	"/>
</g>
<g id="ID000069">
	<polygon class="st18" points="516.7,72.1 518.7,73.8 520.6,74.5 522.6,74.8 526.6,75.6 522.6,76.6 520.6,76.8 518.7,77.4 
		516.7,79.2 	"/>
</g>
<g id="ID000070">
	<polyline class="st17" points="431.6,87.6 522.6,88 522.6,113.5 	"/>
</g>
<g id="ID000071">
	<polygon class="st18" points="480,91.3 478.1,89.6 476.1,89 474.2,88.7 470.2,87.8 474.2,86.9 476.1,86.6 478.1,86.1 480.1,84.3 	
		"/>
</g>
<g id="ID000072">
	<line class="st17" x1="477.7" y1="111.2" x2="431.6" y2="111.2"/>
</g>
<g id="ID000073">
	<polygon class="st18" points="435,107.6 436.9,109.4 438.9,109.9 440.9,110.2 444.8,111.2 440.9,112 438.9,112.3 436.9,112.9 
		435,114.7 	"/>
</g>
<g id="ID000074">
	<polyline class="st17" points="331,134.8 504.9,134.8 504.9,111.2 542.7,111.2 	"/>
</g>
<g id="ID000075">
	<polygon class="st18" points="420.9,138.3 419,136.6 417,136 415,135.7 411.1,134.8 415,133.9 417,133.6 419,133 420.9,131.2 	"/>
</g>
<g id="ID000076">
	<line class="st17" x1="415.4" y1="94.2" x2="393.3" y2="116.3"/>
</g>
<g id="ID000077">
	<polygon class="st19" points="403.4,109.9 399.6,106.2 398.2,111.4 	"/>
</g>
<g id="ID000078">
	<polygon class="st19" points="406.4,100.4 403,103.7 406.4,107.1 409.8,103.7 	"/>
</g>
<g id="ID000079">
	<line class="st17" x1="321.6" y1="125.3" x2="321.6" y2="96.9"/>
</g>
<g id="ID000080">
	<polygon class="st19" points="318.9,107.5 324.2,107.5 321.6,102.9 	"/>
</g>
<g id="ID000081">
	<polygon class="st19" points="323.9,117.4 323.9,112.7 319.2,112.7 319.2,117.4 	"/>
</g>
<g id="ID000082">
	<line class="st17" x1="413.1" y1="114.2" x2="395.6" y2="120"/>
</g>
<g id="ID000083">
	<polygon class="st18" points="398.1,119.3 398.1,119.4 398.2,119.6 398.2,119.7 398.4,119.8 398.4,120 398.5,120.1 398.6,120.2 
		398.8,120.2 398.9,120.4 399,120.4 399.1,120.5 399.3,120.6 399.4,120.7 399.6,120.7 399.7,120.7 399.9,120.8 400,120.8 
		400.1,120.8 400.3,120.8 400.4,120.8 400.6,120.8 400.7,120.7 400.9,120.7 401,120.7 401.2,120.6 401.3,120.5 401.4,120.5 
		401.6,120.4 401.7,120.3 401.8,120.2 401.9,120.1 402,120 402.1,119.8 402.2,119.7 402.3,119.6 402.3,119.5 402.4,119.4 
		402.4,119.2 402.5,119.1 402.6,118.9 402.6,118.8 402.6,118.6 402.6,118.5 402.6,118.3 402.6,118.2 402.6,118.1 402.6,117.9 
		402.5,117.7 402.4,117.6 402.4,117.5 402.3,117.3 402.3,117.2 402.1,117.1 402.1,117 402,116.9 401.9,116.7 401.8,116.6 
		401.6,116.5 401.5,116.4 401.4,116.4 401.3,116.3 401.1,116.2 401,116.2 400.8,116.2 400.7,116.1 400.5,116.1 400.4,116.1 
		400.2,116.1 400.1,116.1 400,116.1 399.8,116.1 399.7,116.1 399.5,116.2 399.4,116.2 399.3,116.3 399.1,116.3 399,116.4 
		398.9,116.5 398.8,116.6 398.6,116.7 398.5,116.8 398.4,116.9 398.4,117 398.2,117.1 398.2,117.3 398.1,117.4 398.1,117.6 
		398,117.7 398,117.8 397.9,118 397.9,118.1 397.9,118.3 397.9,118.4 397.9,118.6 397.9,118.8 397.9,118.9 398,119 398,119.2 	"/>
</g>
<g id="ID000084">
	<polygon class="st18" points="407.6,113.3 403.1,114.8 404.7,119.3 409.1,117.8 	"/>
</g>
<g id="ID000085">
	<line class="st17" x1="552.2" y1="120.6" x2="552.2" y2="143.1"/>
</g>
<g id="ID000086">
	<polygon class="st18" points="552.3,136.9 552.5,136.9 552.6,136.8 552.8,136.8 552.9,136.8 553.1,136.7 553.2,136.7 553.3,136.6 
		553.5,136.6 553.6,136.4 553.7,136.4 553.8,136.3 554,136.1 554,136 554.1,135.9 554.2,135.8 554.3,135.7 554.4,135.5 554.4,135.4 
		554.5,135.2 554.5,135.1 554.5,134.9 554.5,134.8 554.6,134.6 554.6,134.5 554.5,134.4 554.5,134.2 554.5,134.1 554.5,133.9 
		554.4,133.8 554.4,133.6 554.3,133.5 554.2,133.4 554.2,133.2 554.1,133.1 554,133 553.9,132.9 553.8,132.8 553.7,132.7 
		553.6,132.6 553.4,132.5 553.3,132.5 553.2,132.4 553,132.3 552.9,132.3 552.8,132.2 552.6,132.2 552.5,132.2 552.3,132.2 
		552.1,132.2 552,132.2 551.8,132.2 551.7,132.2 551.5,132.3 551.4,132.3 551.2,132.4 551.1,132.5 551,132.5 550.8,132.6 
		550.7,132.7 550.6,132.8 550.5,132.9 550.5,133 550.3,133.1 550.2,133.2 550.2,133.4 550.1,133.5 550,133.6 550,133.8 549.9,133.9 
		549.9,134.1 549.9,134.2 549.9,134.4 549.9,134.5 549.9,134.6 549.9,134.8 549.9,134.9 549.9,135.1 549.9,135.2 550,135.4 
		550,135.5 550.1,135.7 550.2,135.8 550.3,135.9 550.4,136 550.5,136.1 550.6,136.3 550.7,136.4 550.8,136.4 550.9,136.6 
		551.1,136.6 551.2,136.7 551.3,136.7 551.5,136.8 551.6,136.8 551.8,136.8 551.9,136.9 552.1,136.9 552.2,136.9 	"/>
</g>
<g id="ID000087">
	<polygon class="st18" points="549.9,125.6 549.9,130.4 554.6,130.4 554.6,125.6 	"/>
</g>
<g id="ID000088">
	<line class="st17" x1="395.6" y1="161.4" x2="413.1" y2="155.5"/>
</g>
<g id="ID000089">
	<polygon class="st18" points="409,156.8 408.8,156.6 408.8,156.5 408.7,156.4 408.7,156.2 408.5,156.1 408.4,156 408.3,155.9 
		408.2,155.8 408.1,155.7 408,155.7 407.9,155.5 407.7,155.5 407.6,155.4 407.4,155.4 407.3,155.4 407.1,155.3 407,155.3 
		406.8,155.3 406.7,155.3 406.5,155.3 406.4,155.3 406.2,155.4 406.1,155.4 406,155.4 405.8,155.5 405.7,155.5 405.5,155.6 
		405.4,155.7 405.3,155.8 405.1,155.9 405,156 405,156.1 404.9,156.2 404.7,156.4 404.7,156.5 404.6,156.6 404.6,156.7 404.5,156.9 
		404.5,157 404.4,157.1 404.4,157.3 404.4,157.4 404.3,157.6 404.3,157.7 404.4,157.9 404.4,158 404.4,158.2 404.5,158.4 
		404.5,158.5 404.6,158.6 404.6,158.8 404.7,158.9 404.8,159 404.9,159.1 405,159.2 405.1,159.3 405.2,159.5 405.3,159.6 
		405.4,159.6 405.5,159.8 405.7,159.8 405.8,159.9 406,159.9 406.1,160 406.2,160 406.4,160 406.5,160 406.7,160 406.9,160 407,160 
		407.2,160 407.3,160 407.5,159.9 407.6,159.9 407.7,159.8 407.9,159.8 408,159.7 408.1,159.6 408.2,159.5 408.3,159.4 408.4,159.3 
		408.5,159.2 408.7,159.1 408.7,158.9 408.8,158.8 408.9,158.6 409,158.5 409,158.4 409,158.2 409.1,158.1 409.1,158 409.1,157.8 
		409.1,157.7 409.1,157.5 409.1,157.3 409.1,157.2 409,157 409,156.9 	"/>
</g>
<g id="ID000090">
	<polygon class="st18" points="398.2,163.4 402.7,161.9 401.2,157.4 396.7,158.9 	"/>
</g>
<g id="ID000091">
	<line class="st17" x1="451.7" y1="132.5" x2="451.7" y2="154.9"/>
</g>
<g id="ID000092">
	<polygon class="st18" points="451.8,148.2 452,148.1 452.1,148.1 452.2,148.1 452.4,148.1 452.5,148 452.7,147.9 452.8,147.9 
		452.9,147.8 453,147.7 453.2,147.6 453.3,147.5 453.4,147.4 453.5,147.3 453.6,147.2 453.7,147 453.7,146.9 453.8,146.8 
		453.9,146.6 453.9,146.5 454,146.3 454,146.2 454,146 454,145.9 454,145.8 454,145.6 454,145.5 454,145.3 454,145.2 453.9,145 
		453.9,144.9 453.8,144.7 453.7,144.6 453.6,144.5 453.6,144.4 453.5,144.3 453.3,144.1 453.2,144 453.1,143.9 453,143.9 
		452.9,143.7 452.8,143.7 452.6,143.6 452.5,143.6 452.4,143.5 452.2,143.5 452,143.4 451.9,143.4 451.7,143.4 451.6,143.4 
		451.4,143.4 451.3,143.4 451.1,143.5 451,143.5 450.9,143.6 450.7,143.6 450.6,143.7 450.5,143.7 450.3,143.9 450.2,143.9 
		450.1,144 450,144.1 449.9,144.3 449.8,144.4 449.7,144.5 449.6,144.6 449.5,144.7 449.5,144.9 449.4,145 449.4,145.2 449.4,145.3 
		449.3,145.5 449.3,145.6 449.3,145.8 449.3,145.9 449.3,146 449.4,146.2 449.4,146.3 449.4,146.5 449.5,146.6 449.5,146.8 
		449.6,146.9 449.6,147 449.7,147.2 449.8,147.3 449.9,147.4 450,147.5 450.2,147.6 450.3,147.7 450.4,147.8 450.5,147.9 
		450.6,147.9 450.8,148 450.9,148.1 451.1,148.1 451.2,148.1 451.4,148.1 451.5,148.2 451.7,148.2 	"/>
</g>
<g id="ID000093">
	<polygon class="st18" points="449.3,136.3 449.3,141 454,141 454,136.3 	"/>
</g>
<g id="ID000094">
	<line class="st17" x1="386.6" y1="132.5" x2="386.6" y2="154.9"/>
</g>
<g id="ID000095">
	<polygon class="st18" points="386.8,148.2 386.9,148.1 387.1,148.1 387.2,148.1 387.4,148.1 387.5,148 387.6,147.9 387.8,147.9 
		387.9,147.8 388,147.7 388.1,147.6 388.2,147.5 388.3,147.4 388.5,147.3 388.5,147.2 388.6,147 388.7,146.9 388.7,146.8 
		388.8,146.6 388.9,146.5 388.9,146.3 388.9,146.2 389,146 389,145.9 389,145.8 389,145.6 389,145.5 388.9,145.3 388.9,145.2 
		388.9,145 388.8,144.9 388.7,144.7 388.6,144.6 388.6,144.5 388.5,144.4 388.4,144.3 388.3,144.1 388.2,144 388,143.9 387.9,143.9 
		387.8,143.7 387.7,143.7 387.5,143.6 387.4,143.6 387.2,143.5 387.1,143.5 387,143.4 386.8,143.4 386.7,143.4 386.5,143.4 
		386.4,143.4 386.2,143.4 386.1,143.5 385.9,143.5 385.8,143.6 385.6,143.6 385.5,143.7 385.4,143.7 385.3,143.9 385.2,143.9 
		385.1,144 384.9,144.1 384.8,144.3 384.7,144.4 384.6,144.5 384.5,144.6 384.5,144.7 384.4,144.9 384.4,145 384.3,145.2 
		384.3,145.3 384.2,145.5 384.2,145.6 384.2,145.8 384.2,145.9 384.2,146 384.2,146.2 384.3,146.3 384.4,146.5 384.4,146.6 
		384.5,146.8 384.5,146.9 384.6,147 384.6,147.2 384.8,147.3 384.9,147.4 384.9,147.5 385.1,147.6 385.2,147.7 385.3,147.8 
		385.5,147.9 385.6,147.9 385.8,148 385.9,148.1 386,148.1 386.1,148.1 386.3,148.1 386.4,148.2 386.6,148.2 	"/>
</g>
<g id="ID000096">
	<polygon class="st18" points="384.2,136.3 384.2,141 389,141 389,136.3 	"/>
</g>
<g id="ID000097">
	<line class="st17" x1="478.1" y1="114.2" x2="460.6" y2="120"/>
</g>
<g id="ID000098">
	<polygon class="st18" points="463.7,119.3 463.8,119.4 463.8,119.6 463.9,119.7 464,119.8 464,120 464.1,120.1 464.3,120.2 
		464.4,120.2 464.5,120.4 464.6,120.4 464.8,120.5 464.9,120.6 465,120.7 465.2,120.7 465.3,120.7 465.5,120.8 465.6,120.8 
		465.8,120.8 465.9,120.8 466,120.8 466.2,120.8 466.3,120.7 466.5,120.7 466.6,120.7 466.8,120.6 466.9,120.5 467.1,120.5 
		467.2,120.4 467.3,120.3 467.4,120.2 467.5,120.1 467.7,120 467.7,119.8 467.8,119.7 467.9,119.6 468,119.5 468.1,119.4 
		468.1,119.2 468.1,119.1 468.2,118.9 468.2,118.8 468.2,118.6 468.2,118.5 468.2,118.3 468.2,118.2 468.2,118.1 468.2,117.9 
		468.1,117.7 468.1,117.6 468,117.5 468,117.3 467.9,117.2 467.8,117.1 467.7,117 467.6,116.9 467.5,116.7 467.4,116.6 467.3,116.5 
		467.2,116.4 467,116.4 466.9,116.3 466.8,116.2 466.6,116.2 466.5,116.2 466.3,116.1 466.2,116.1 466,116.1 465.9,116.1 
		465.8,116.1 465.6,116.1 465.5,116.1 465.3,116.1 465.2,116.2 465,116.2 464.9,116.3 464.7,116.3 464.6,116.4 464.5,116.5 
		464.4,116.6 464.3,116.7 464.1,116.8 464,116.9 464,117 463.9,117.1 463.8,117.3 463.8,117.4 463.7,117.6 463.6,117.7 463.6,117.8 
		463.5,118 463.5,118.1 463.5,118.3 463.5,118.4 463.5,118.6 463.5,118.8 463.5,118.9 463.6,119 463.6,119.2 	"/>
</g>
<g id="ID000099">
	<polygon class="st18" points="472.7,113.3 468.2,114.8 469.7,119.3 474.2,117.8 	"/>
</g>
<g id="ID000100">
	<line class="st17" x1="460.6" y1="161.4" x2="478.1" y2="155.5"/>
</g>
<g id="ID000101">
	<polygon class="st18" points="472.9,156.8 472.8,156.6 472.7,156.5 472.6,156.4 472.6,156.2 472.4,156.1 472.3,156 472.2,155.9 
		472.1,155.8 472,155.7 471.9,155.7 471.8,155.5 471.6,155.5 471.5,155.4 471.4,155.4 471.2,155.4 471,155.3 470.9,155.3 
		470.7,155.3 470.6,155.3 470.4,155.3 470.3,155.3 470.1,155.4 470,155.4 469.9,155.4 469.7,155.5 469.6,155.5 469.5,155.6 
		469.3,155.7 469.2,155.8 469.1,155.9 469,156 468.9,156.1 468.8,156.2 468.7,156.4 468.6,156.5 468.5,156.6 468.5,156.7 
		468.4,156.9 468.4,157 468.4,157.1 468.3,157.3 468.3,157.4 468.3,157.6 468.3,157.7 468.3,157.9 468.3,158 468.4,158.2 
		468.4,158.4 468.4,158.5 468.5,158.6 468.5,158.8 468.6,158.9 468.7,159 468.8,159.1 468.9,159.2 469,159.3 469.1,159.5 
		469.2,159.6 469.3,159.6 469.5,159.8 469.6,159.8 469.7,159.9 469.9,159.9 470,160 470.1,160 470.3,160 470.4,160 470.6,160 
		470.8,160 470.9,160 471.1,160 471.2,160 471.4,159.9 471.5,159.9 471.6,159.8 471.8,159.8 471.9,159.7 472,159.6 472.2,159.5 
		472.3,159.4 472.4,159.3 472.4,159.2 472.6,159.1 472.6,158.9 472.7,158.8 472.8,158.6 472.9,158.5 472.9,158.4 472.9,158.2 
		473,158.1 473,158 473,157.8 473,157.7 473,157.5 473,157.3 473,157.2 472.9,157 472.9,156.9 	"/>
</g>
<g id="ID000102">
	<polygon class="st18" points="463.8,162.8 468.3,161.3 466.8,156.8 462.3,158.3 	"/>
</g>
<g id="ID000103">
	<polyline class="st17" points="522.6,173.9 522.6,211.7 593.6,211.7 593.6,164.4 591.3,164.4 	"/>
</g>
<g id="ID000104">
	<polygon class="st18" points="561.1,215.2 559.1,213.5 557.1,212.9 555.2,212.6 551.2,211.7 555.2,210.8 557.1,210.5 559.1,209.9 
		561.1,208.2 	"/>
</g>
<text transform="matrix(1 0 0 1 206.09 72.11)" class="st2 st13">5</text>
<text transform="matrix(1 0 0 1 216.01 72.11)" class="st2 st13">’</text>
<text transform="matrix(1 0 0 1 206.83 157.41)" class="st2 st13">3</text>
<text transform="matrix(1 0 0 1 216.75 157.41)" class="st2 st13">’</text>
<text transform="matrix(1 0 0 1 329.0714 27.3439)" class="st2 st20">Mango aptamer</text>
</svg>
