<svg id="图层_1" data-name="图层 1" xmlns="http://www.w3.org/2000/svg" viewBox="0 0 400 400">
  <defs>
    <style>
      .cls-1, .cls-10, .cls-11, .cls-12, .cls-13, .cls-14, .cls-15, .cls-17, .cls-18, .cls-19, .cls-2, .cls-20, .cls-21, .cls-3, .cls-4, .cls-9 {
        isolation: isolate;
      }

      .cls-1, .cls-10, .cls-11, .cls-12, .cls-13, .cls-14, .cls-15, .cls-17, .cls-19, .cls-2, .cls-20, .cls-21, .cls-3, .cls-4, .cls-9 {
        font-size: 8.34px;
      }

      .cls-1, .cls-2 {
        fill: #cc0;
      }

      .cls-1, .cls-10, .cls-11, .cls-12, .cls-13, .cls-14, .cls-15, .cls-17, .cls-18, .cls-19, .cls-2, .cls-20, .cls-21, .cls-22, .cls-24, .cls-3, .cls-4, .cls-9 {
        font-family: ArialMT, Arial;
      }

      .cls-11, .cls-12, .cls-15, .cls-19, .cls-2, .cls-21, .cls-4 {
        letter-spacing: -0.06em;
      }

      .cls-3, .cls-4, .cls-8 {
        fill: #3cc;
      }

      .cls-16, .cls-5, .cls-6, .cls-7, .cls-8 {
        stroke: #000;
        stroke-miterlimit: 2.84;
      }

      .cls-16, .cls-5, .cls-6, .cls-8 {
        stroke-width: 0.36px;
      }

      .cls-6, .cls-7 {
        fill: none;
      }

      .cls-7 {
        stroke-width: 0.5px;
      }

      .cls-10, .cls-11 {
        fill: #f9c;
      }

      .cls-12, .cls-13 {
        fill: #c9f;
      }

      .cls-14, .cls-15, .cls-16 {
        fill: #0c6;
      }

      .cls-17, .cls-18, .cls-19 {
        fill: #f93;
      }

      .cls-18 {
        font-size: 8.34px;
      }

      .cls-20, .cls-21 {
        fill: #33f;
      }

      .cls-22 {
        font-size: 16px;
      }

      .cls-23 {
        letter-spacing: -0.04em;
      }

      .cls-24 {
        font-size: 20px;
      }
    </style>
  </defs>
  <g id="ID000002">
    <text class="cls-1" transform="translate(167.93 377.13)">G</text>
  </g>
  <g id="ID000003">
    <text class="cls-1" transform="translate(167.93 368.5)">G</text>
  </g>
  <g id="ID000004">
    <text class="cls-1" transform="translate(167.93 359.87)">G</text>
  </g>
  <g id="ID000005">
    <text class="cls-2" transform="translate(168.39 351.24)">A</text>
  </g>
  <g id="ID000006">
    <text class="cls-3" transform="translate(167.93 342.6)">G</text>
  </g>
  <g id="ID000007">
    <text class="cls-4" transform="translate(168.39 333.97)">A</text>
  </g>
  <g id="ID000008">
    <text class="cls-1" transform="translate(185.42 351.24)">U</text>
  </g>
  <g id="ID000009">
    <text class="cls-1" transform="translate(185.42 359.87)">C</text>
  </g>
  <g id="ID000010">
    <text class="cls-1" transform="translate(185.42 368.5)">C</text>
  </g>
  <g id="ID000011">
    <text class="cls-1" transform="translate(185.42 377.13)">U</text>
  </g>
  <g id="ID000012">
    <text class="cls-1" transform="translate(185.42 385.77)">C</text>
  </g>
  <g id="ID000013">
    <text class="cls-2" transform="translate(185.65 394.4)">A</text>
  </g>
  <g id="ID000014">
    <polygon class="cls-5" points="181.53 373.25 181.52 373.14 181.51 373.03 181.5 372.92 181.47 372.81 181.44 372.71 181.4 372.61 181.36 372.51 181.31 372.41 181.25 372.31 181.19 372.22 181.12 372.14 181.05 372.06 180.97 371.98 180.89 371.91 180.8 371.84 180.71 371.78 180.62 371.73 180.52 371.68 180.42 371.64 180.31 371.6 180.21 371.57 180.1 371.55 179.99 371.53 179.88 371.52 179.77 371.52 179.66 371.53 179.55 371.54 179.45 371.56 179.34 371.58 179.24 371.62 179.13 371.65 179.03 371.7 178.94 371.75 178.84 371.81 178.75 371.87 178.67 371.94 178.59 372.02 178.51 372.1 178.44 372.18 178.38 372.27 178.32 372.36 178.27 372.46 178.22 372.56 178.18 372.66 178.14 372.76 178.12 372.87 178.09 372.98 178.08 373.08 178.07 373.19 178.07 373.3 178.08 373.41 178.09 373.52 178.12 373.63 178.14 373.73 178.18 373.84 178.22 373.94 178.27 374.04 178.32 374.13 178.38 374.23 178.44 374.31 178.51 374.4 178.59 374.48 178.67 374.55 178.75 374.62 178.84 374.69 178.94 374.74 179.03 374.8 179.13 374.84 179.24 374.88 179.34 374.91 179.45 374.94 179.55 374.96 179.66 374.97 179.77 374.98 179.88 374.97 179.99 374.96 180.1 374.95 180.21 374.93 180.31 374.9 180.42 374.86 180.52 374.82 180.62 374.77 180.71 374.72 180.8 374.65 180.89 374.59 180.97 374.52 181.05 374.44 181.12 374.36 181.19 374.27 181.25 374.18 181.31 374.09 181.36 373.99 181.4 373.89 181.44 373.79 181.47 373.68 181.5 373.57 181.51 373.47 181.52 373.36 181.53 373.25"/>
  </g>
  <g id="ID000015">
    <line class="cls-6" x1="174.62" y1="364.62" x2="184.98" y2="364.62"/>
  </g>
  <g id="ID000016">
    <line class="cls-6" x1="174.62" y1="355.98" x2="184.98" y2="355.98"/>
  </g>
  <g id="ID000017">
    <line class="cls-6" x1="174.62" y1="347.35" x2="184.98" y2="347.35"/>
  </g>
  <g id="ID000018">
    <line class="cls-7" x1="171.17" y1="326.63" x2="171.17" y2="286.06"/>
  </g>
  <g id="ID000019">
    <polygon class="cls-5" points="168.58 309.22 169.87 307.79 170.3 306.35 170.52 304.91 171.17 302.03 171.81 304.91 172.03 306.35 172.46 307.79 173.76 309.22 168.58 309.22"/>
  </g>
  <g id="ID000021">
    <text class="cls-4" transform="translate(168.39 286.49)">A</text>
  </g>
  <g id="ID000022">
    <text class="cls-3" transform="translate(168.16 277.86)">U</text>
  </g>
  <g id="ID000023">
    <text class="cls-3" transform="translate(168.16 269.23)">U</text>
  </g>
  <g id="ID000024">
    <text class="cls-3" transform="translate(168.16 260.6)">C</text>
  </g>
  <g id="ID000025">
    <line class="cls-8" x1="165.41" y1="256.71" x2="159.66" y2="256.71"/>
  </g>
  <g id="ID000026">
    <text class="cls-9" transform="translate(150.38 260.6)">10</text>
  </g>
  <g id="ID000027">
    <text class="cls-3" transform="translate(168.16 251.96)">C</text>
  </g>
  <g id="ID000028">
    <text class="cls-3" transform="translate(167.93 243.33)">G</text>
  </g>
  <g id="ID000029">
    <text class="cls-4" transform="translate(168.39 234.7)">A</text>
  </g>
  <g id="ID000030">
    <text class="cls-3" transform="translate(168.16 226.06)">C</text>
  </g>
  <g id="ID000031">
    <text class="cls-3" transform="translate(168.16 217.43)">C</text>
  </g>
  <g id="ID000032">
    <text class="cls-4" transform="translate(168.39 208.8)">A</text>
  </g>
  <g id="ID000033">
    <text class="cls-3" transform="translate(167.93 200.17)">G</text>
  </g>
  <g id="ID000034">
    <text class="cls-4" transform="translate(168.39 191.54)">A</text>
  </g>
  <g id="ID000035">
    <text class="cls-4" transform="translate(162.71 185.57)">A</text>
  </g>
  <g id="ID000036">
    <text class="cls-10" transform="translate(159.6 178.48)">G</text>
  </g>
  <g id="ID000037">
    <line class="cls-6" x1="155.13" y1="175.61" x2="149.37" y2="175.61"/>
  </g>
  <g id="ID000038">
    <text class="cls-9" transform="translate(140.1 179.49)">20</text>
  </g>
  <g id="ID000039">
    <text class="cls-10" transform="translate(192.95 178.48)">C</text>
  </g>
  <g id="ID000040">
    <text class="cls-3" transform="translate(189.74 185.57)">G</text>
  </g>
  <g id="ID000041">
    <text class="cls-3" transform="translate(185.42 191.54)">U</text>
  </g>
  <g id="ID000042">
    <text class="cls-3" transform="translate(185.42 200.17)">U</text>
  </g>
  <g id="ID000043">
    <line class="cls-6" x1="194.19" y1="196.28" x2="199.94" y2="196.28"/>
  </g>
  <g id="ID000044">
    <text class="cls-9" transform="translate(199.94 200.17)">60</text>
  </g>
  <g id="ID000045">
    <text class="cls-3" transform="translate(185.42 208.8)">U</text>
  </g>
  <g id="ID000046">
    <text class="cls-3" transform="translate(185.19 217.43)">G</text>
  </g>
  <g id="ID000047">
    <text class="cls-3" transform="translate(185.19 226.06)">G</text>
  </g>
  <g id="ID000048">
    <text class="cls-3" transform="translate(185.42 234.7)">U</text>
  </g>
  <g id="ID000049">
    <text class="cls-4" transform="translate(192.68 238.84)">A</text>
  </g>
  <g id="ID000050">
    <text class="cls-3" transform="translate(185.42 243.99)">C</text>
  </g>
  <g id="ID000051">
    <text class="cls-3" transform="translate(185.19 252.63)">G</text>
  </g>
  <g id="ID000052">
    <text class="cls-3" transform="translate(185.19 261.26)">G</text>
  </g>
  <g id="ID000053">
    <text class="cls-3" transform="translate(185.19 269.89)">G</text>
  </g>
  <g id="ID000054">
    <text class="cls-4" transform="translate(185.65 278.12)">A</text>
  </g>
  <g id="ID000057">
    <text class="cls-3" transform="translate(192.53 280.35)">C</text>
  </g>
  <g id="ID000061">
    <polygon class="cls-5" points="181.23 267.19 181.27 267.09 181.31 266.99 181.35 266.88 181.37 266.77 181.39 266.67 181.41 266.56 181.41 266.45 181.41 266.34 181.4 266.23 181.39 266.12 181.36 266.01 181.33 265.91 181.3 265.81 181.26 265.7 181.21 265.61 181.15 265.51 181.09 265.42 181.03 265.33 180.96 265.25 180.88 265.17 180.8 265.1 180.71 265.03 180.62 264.97 180.53 264.91 180.43 264.86 180.33 264.81 180.23 264.78 180.12 264.75 180.02 264.72 179.91 264.7 179.8 264.69 179.69 264.69 179.58 264.69 179.47 264.7 179.36 264.72 179.26 264.74 179.15 264.77 179.05 264.81 178.95 264.85 178.85 264.9 178.76 264.96 178.66 265.02 178.58 265.09 178.5 265.16 178.42 265.24 178.35 265.32 178.28 265.41 178.22 265.5 178.16 265.59 178.12 265.69 178.07 265.79 178.04 265.9 178.01 266 177.99 266.11 177.97 266.22 177.96 266.33 177.96 266.44 177.96 266.55 177.97 266.65 177.99 266.76 178.02 266.87 178.05 266.97 178.09 267.08 178.13 267.18 178.19 267.27 178.24 267.37 178.31 267.46 178.38 267.54 178.45 267.62 178.53 267.7 178.61 267.77 178.7 267.83 178.79 267.89 178.89 267.95 178.99 267.99 179.09 268.04 179.19 268.07 179.3 268.1 179.41 268.12 179.51 268.13 179.62 268.14 179.73 268.14 179.84 268.13 179.95 268.12 180.06 268.1 180.16 268.07 180.27 268.04 180.37 268 180.47 267.95 180.56 267.9 180.66 267.84 180.75 267.78 180.83 267.71 180.91 267.63 180.99 267.55 181.05 267.47 181.12 267.38 181.18 267.28 181.23 267.19"/>
  </g>
  <g id="ID000068">
    <line class="cls-6" x1="174.62" y1="230.81" x2="184.98" y2="230.81"/>
  </g>
  <g id="ID000069">
    <line class="cls-6" x1="174.62" y1="222.18" x2="184.98" y2="222.18"/>
  </g>
  <g id="ID000070">
    <line class="cls-6" x1="174.62" y1="213.55" x2="184.98" y2="213.55"/>
  </g>
  <g id="ID000071">
    <line class="cls-6" x1="174.62" y1="204.92" x2="184.98" y2="204.92"/>
  </g>
  <g id="ID000072">
    <polygon class="cls-5" points="181.53 196.28 181.52 196.17 181.51 196.06 181.5 195.96 181.47 195.85 181.44 195.74 181.4 195.64 181.36 195.54 181.31 195.44 181.25 195.35 181.19 195.26 181.12 195.17 181.05 195.09 180.97 195.01 180.89 194.94 180.8 194.88 180.71 194.82 180.62 194.76 180.52 194.71 180.42 194.67 180.31 194.63 180.21 194.6 180.1 194.58 179.99 194.57 179.88 194.56 179.77 194.56 179.66 194.56 179.55 194.57 179.45 194.59 179.34 194.62 179.24 194.65 179.13 194.69 179.03 194.74 178.94 194.79 178.84 194.85 178.75 194.91 178.67 194.98 178.59 195.05 178.51 195.13 178.44 195.22 178.38 195.3 178.32 195.4 178.27 195.49 178.22 195.59 178.18 195.69 178.14 195.8 178.12 195.9 178.09 196.01 178.08 196.12 178.07 196.23 178.07 196.34 178.08 196.45 178.09 196.56 178.12 196.66 178.14 196.77 178.18 196.87 178.22 196.97 178.27 197.07 178.32 197.17 178.38 197.26 178.44 197.35 178.51 197.43 178.59 197.51 178.67 197.59 178.75 197.66 178.84 197.72 178.94 197.78 179.03 197.83 179.13 197.88 179.24 197.91 179.34 197.95 179.45 197.97 179.55 197.99 179.66 198 179.77 198.01 179.88 198.01 179.99 198 180.1 197.98 180.21 197.96 180.31 197.93 180.42 197.9 180.52 197.85 180.62 197.81 180.71 197.75 180.8 197.69 180.89 197.62 180.97 197.55 181.05 197.47 181.12 197.39 181.19 197.31 181.25 197.22 181.31 197.12 181.36 197.03 181.4 196.93 181.44 196.82 181.47 196.72 181.5 196.61 181.51 196.5 181.52 196.39 181.53 196.28"/>
  </g>
  <g id="ID000073">
    <line class="cls-6" x1="174.62" y1="187.65" x2="184.98" y2="187.65"/>
  </g>
  <g id="ID000075">
    <text class="cls-10" transform="translate(161.84 170.22)">C</text>
  </g>
  <g id="ID000076">
    <text class="cls-10" transform="translate(168.1 163.7)">U</text>
  </g>
  <g id="ID000077">
    <text class="cls-10" transform="translate(168.1 155.06)">U</text>
  </g>
  <g id="ID000078">
    <text class="cls-11" transform="translate(168.33 146.43)">A</text>
  </g>
  <g id="ID000079">
    <text class="cls-10" transform="translate(167.86 137.8)">G</text>
  </g>
  <g id="ID000080">
    <text class="cls-10" transform="translate(168.1 129.16)">U</text>
  </g>
  <g id="ID000081">
    <text class="cls-12" transform="translate(161.85 122.69)">A</text>
  </g>
  <g id="ID000082">
    <text class="cls-13" transform="translate(157.31 116.22)">U</text>
  </g>
  <g id="ID000083">
    <text class="cls-10" transform="translate(185.13 129.16)">G</text>
  </g>
  <g id="ID000084">
    <text class="cls-10" transform="translate(185.36 137.8)">C</text>
  </g>
  <g id="ID000085">
    <text class="cls-10" transform="translate(185.36 146.43)">U</text>
  </g>
  <g id="ID000086">
    <text class="cls-10" transform="translate(185.13 155.06)">G</text>
  </g>
  <g id="ID000087">
    <text class="cls-11" transform="translate(185.59 163.7)">A</text>
  </g>
  <g id="ID000088">
    <text class="cls-10" transform="translate(191.35 170.42)">U</text>
  </g>
  <g id="ID000089">
    <line class="cls-6" x1="174.56" y1="159.81" x2="184.92" y2="159.81"/>
  </g>
  <g id="ID000090">
    <polygon class="cls-5" points="181.47 151.18 181.46 151.07 181.45 150.96 181.43 150.85 181.41 150.74 181.38 150.64 181.34 150.54 181.3 150.44 181.25 150.34 181.19 150.25 181.13 150.15 181.06 150.07 180.99 149.99 180.91 149.91 180.83 149.84 180.74 149.77 180.65 149.71 180.55 149.66 180.46 149.61 180.35 149.57 180.25 149.53 180.15 149.5 180.04 149.48 179.93 149.46 179.82 149.45 179.71 149.45 179.6 149.46 179.49 149.47 179.38 149.49 179.28 149.51 179.17 149.55 179.07 149.59 178.97 149.63 178.88 149.68 178.78 149.74 178.69 149.8 178.61 149.87 178.53 149.95 178.45 150.03 178.38 150.11 178.32 150.2 178.26 150.29 178.2 150.39 178.16 150.49 178.12 150.59 178.08 150.69 178.05 150.8 178.03 150.91 178.02 151.01 178.01 151.12 178.01 151.23 178.02 151.34 178.03 151.45 178.05 151.56 178.08 151.66 178.12 151.77 178.16 151.87 178.2 151.97 178.26 152.06 178.32 152.16 178.38 152.25 178.45 152.33 178.53 152.41 178.61 152.48 178.69 152.55 178.78 152.62 178.88 152.67 178.97 152.72 179.07 152.77 179.17 152.81 179.28 152.84 179.38 152.87 179.49 152.89 179.6 152.9 179.71 152.91 179.82 152.9 179.93 152.89 180.04 152.88 180.15 152.86 180.25 152.83 180.35 152.79 180.46 152.75 180.55 152.7 180.65 152.65 180.74 152.59 180.83 152.52 180.91 152.45 180.99 152.37 181.06 152.29 181.13 152.2 181.19 152.11 181.25 152.02 181.3 151.92 181.34 151.82 181.38 151.72 181.41 151.61 181.43 151.5 181.45 151.4 181.46 151.29 181.47 151.18"/>
  </g>
  <g id="ID000091">
    <line class="cls-6" x1="174.56" y1="142.55" x2="184.92" y2="142.55"/>
  </g>
  <g id="ID000092">
    <line class="cls-6" x1="174.56" y1="133.91" x2="184.92" y2="133.91"/>
  </g>
  <g id="ID000093">
    <polygon class="cls-5" points="181.47 125.28 181.46 125.17 181.45 125.06 181.43 124.95 181.41 124.85 181.38 124.74 181.34 124.64 181.3 124.54 181.25 124.44 181.19 124.35 181.13 124.26 181.06 124.17 180.99 124.09 180.91 124.01 180.83 123.94 180.74 123.87 180.65 123.81 180.55 123.76 180.46 123.71 180.35 123.67 180.25 123.63 180.15 123.6 180.04 123.58 179.93 123.56 179.82 123.56 179.71 123.56 179.6 123.56 179.49 123.57 179.38 123.59 179.28 123.62 179.17 123.65 179.07 123.69 178.97 123.73 178.88 123.79 178.78 123.84 178.69 123.91 178.61 123.98 178.53 124.05 178.45 124.13 178.38 124.21 178.32 124.3 178.26 124.39 178.2 124.49 178.16 124.59 178.12 124.69 178.08 124.79 178.05 124.9 178.03 125.01 178.02 125.12 178.01 125.23 178.01 125.34 178.02 125.44 178.03 125.55 178.05 125.66 178.08 125.77 178.12 125.87 178.16 125.97 178.2 126.07 178.26 126.17 178.32 126.26 178.38 126.35 178.45 126.43 178.53 126.51 178.61 126.59 178.69 126.66 178.78 126.72 178.88 126.78 178.97 126.83 179.07 126.87 179.17 126.91 179.28 126.94 179.38 126.97 179.49 126.99 179.6 127 179.71 127.01 179.82 127.01 179.93 127 180.04 126.98 180.15 126.96 180.25 126.93 180.35 126.89 180.46 126.85 180.55 126.8 180.65 126.75 180.74 126.69 180.83 126.62 180.91 126.55 180.99 126.47 181.06 126.39 181.13 126.31 181.19 126.21 181.25 126.12 181.3 126.02 181.34 125.92 181.38 125.82 181.41 125.72 181.43 125.61 181.45 125.5 181.46 125.39 181.47 125.28"/>
  </g>
  <g id="ID000094">
    <line class="cls-7" x1="188.37" y1="98.52" x2="188.37" y2="121.83"/>
  </g>
  <g id="ID000095">
    <polygon class="cls-5" points="190.96 107.3 189.67 108.73 189.23 110.17 189.02 111.61 188.37 114.49 187.72 111.61 187.51 110.17 187.08 108.73 185.78 107.3 190.96 107.3"/>
  </g>
  <g id="ID000097">
    <text class="cls-12" transform="translate(161.85 107.58)">A</text>
  </g>
  <g id="ID000098">
    <text class="cls-13" transform="translate(167.86 98.95)">G</text>
  </g>
  <g id="ID000099">
    <line class="cls-6" x1="165.35" y1="95.07" x2="159.6" y2="95.07"/>
  </g>
  <g id="ID000100">
    <text class="cls-9" transform="translate(150.32 98.95)">30</text>
  </g>
  <g id="ID000101">
    <text class="cls-13" transform="translate(168.1 90.32)">C</text>
  </g>
  <g id="ID000102">
    <text class="cls-13" transform="translate(167.86 81.69)">G</text>
  </g>
  <g id="ID000103">
    <text class="cls-12" transform="translate(168.33 73.05)">A</text>
  </g>
  <g id="ID000104">
    <text class="cls-13" transform="translate(167.86 64.42)">G</text>
  </g>
  <g id="ID000105">
    <text class="cls-12" transform="translate(192.06 55.79)">A</text>
  </g>
  <g id="ID000106">
    <text class="cls-13" transform="translate(185.36 64.42)">C</text>
  </g>
  <g id="ID000107">
    <text class="cls-13" transform="translate(185.36 73.05)">U</text>
  </g>
  <g id="ID000108">
    <text class="cls-13" transform="translate(185.36 81.69)">C</text>
  </g>
  <g id="ID000109">
    <text class="cls-13" transform="translate(185.13 90.32)">G</text>
  </g>
  <g id="ID000110">
    <text class="cls-13" transform="translate(185.36 98.95)">U</text>
  </g>
  <g id="ID000111">
    <line class="cls-6" x1="194.13" y1="95.07" x2="199.88" y2="95.07"/>
  </g>
  <g id="ID000112">
    <text class="cls-9" transform="translate(199.88 98.95)">50</text>
  </g>
  <g id="ID000113">
    <polygon class="cls-5" points="181.47 95.07 181.46 94.96 181.45 94.85 181.43 94.74 181.41 94.63 181.38 94.53 181.34 94.43 181.3 94.33 181.25 94.23 181.19 94.13 181.13 94.04 181.06 93.96 180.99 93.88 180.91 93.8 180.83 93.73 180.74 93.66 180.65 93.6 180.55 93.55 180.46 93.5 180.35 93.45 180.25 93.42 180.15 93.39 180.04 93.37 179.93 93.35 179.82 93.34 179.71 93.34 179.6 93.35 179.49 93.36 179.38 93.38 179.28 93.4 179.17 93.44 179.07 93.47 178.97 93.52 178.88 93.57 178.78 93.63 178.69 93.69 178.61 93.76 178.53 93.84 178.45 93.92 178.38 94 178.32 94.09 178.26 94.18 178.2 94.28 178.16 94.38 178.12 94.48 178.08 94.58 178.05 94.69 178.03 94.79 178.02 94.9 178.01 95.01 178.01 95.12 178.02 95.23 178.03 95.34 178.05 95.45 178.08 95.55 178.12 95.66 178.16 95.76 178.2 95.86 178.26 95.95 178.32 96.05 178.38 96.14 178.45 96.22 178.53 96.3 178.61 96.37 178.69 96.44 178.78 96.5 178.88 96.56 178.97 96.61 179.07 96.66 179.17 96.7 179.28 96.73 179.38 96.76 179.49 96.78 179.6 96.79 179.71 96.79 179.82 96.79 179.93 96.78 180.04 96.77 180.15 96.75 180.25 96.72 180.35 96.68 180.46 96.64 180.55 96.59 180.65 96.53 180.74 96.47 180.83 96.41 180.91 96.33 180.99 96.26 181.06 96.18 181.13 96.09 181.19 96 181.25 95.91 181.3 95.81 181.34 95.71 181.38 95.61 181.41 95.5 181.43 95.39 181.45 95.29 181.46 95.18 181.47 95.07"/>
  </g>
  <g id="ID000114">
    <line class="cls-6" x1="174.56" y1="86.43" x2="184.92" y2="86.43"/>
  </g>
  <g id="ID000115">
    <line class="cls-6" x1="174.56" y1="77.8" x2="184.92" y2="77.8"/>
  </g>
  <g id="ID000116">
    <line class="cls-6" x1="174.56" y1="69.17" x2="184.92" y2="69.17"/>
  </g>
  <g id="ID000117">
    <line class="cls-6" x1="174.56" y1="60.54" x2="184.92" y2="60.54"/>
  </g>
  <g id="ID000119">
    <text class="cls-13" transform="translate(167.86 51.47)">G</text>
  </g>
  <g id="ID000120">
    <text class="cls-13" transform="translate(168.1 42.84)">U</text>
  </g>
  <g id="ID000121">
    <text class="cls-14" transform="translate(163.78 34.21)">U</text>
  </g>
  <g id="ID000122">
    <text class="cls-14" transform="translate(165.94 25.58)">U</text>
  </g>
  <g id="ID000123">
    <text class="cls-15" transform="translate(172.64 16.94)">A</text>
  </g>
  <g id="ID000124">
    <text class="cls-14" transform="translate(180.81 16.94)">G</text>
  </g>
  <g id="ID000125">
    <line class="cls-16" x1="189.81" y1="13.06" x2="195.56" y2="13.06"/>
  </g>
  <g id="ID000126">
    <text class="cls-9" transform="translate(195.56 16.94)">40</text>
  </g>
  <g id="ID000127">
    <text class="cls-14" transform="translate(189.68 25.58)">C</text>
  </g>
  <g id="ID000128">
    <text class="cls-14" transform="translate(191.83 34.21)">U</text>
  </g>
  <g id="ID000129">
    <text class="cls-12" transform="translate(185.59 42.84)">A</text>
  </g>
  <g id="ID000130">
    <text class="cls-13" transform="translate(185.36 51.47)">C</text>
  </g>
  <g id="ID000131">
    <line class="cls-6" x1="174.56" y1="47.59" x2="184.92" y2="47.59"/>
  </g>
  <g id="ID000132">
    <line class="cls-6" x1="174.56" y1="38.96" x2="184.92" y2="38.96"/>
  </g>
  <g id="ID000134">
    <text class="cls-17" transform="translate(195.24 290)">C</text>
  </g>
  <g id="ID000135">
    <text class="cls-17" transform="translate(193.47 302.67)">U</text>
  </g>
  <g id="ID000136">
    <text class="cls-17" transform="translate(201.87 300.54)">G</text>
  </g>
  <g id="ID000137">
    <text class="cls-17" transform="translate(210.29 298.75)">C</text>
  </g>
  <g id="ID000138">
    <text class="cls-17" transform="translate(218.73 296.7)">G</text>
  </g>
  <g id="ID000139">
    <text class="cls-17" transform="translate(227 294.87)">U</text>
  </g>
  <g id="ID000140">
    <text class="cls-18" transform="matrix(0.97, -0.23, 0.23, 0.97, 235.87, 293.56)">G</text>
  </g>
  <g id="ID000141">
    <text class="cls-17" transform="translate(243.93 290.93)">U</text>
  </g>
  <g id="ID000142">
    <text class="cls-19" transform="translate(252.56 288.97)">A</text>
  </g>
  <g id="ID000145">
    <text class="cls-17" transform="translate(258.09 284.96)">G</text>
  </g>
  <g id="ID000146">
    <text class="cls-17" transform="translate(267.51 285.06)">C</text>
  </g>
  <g id="ID000147">
    <text class="cls-17" transform="translate(273.19 294.87)">C</text>
  </g>
  <g id="ID000148">
    <text class="cls-17" transform="translate(270.75 302.72)">C</text>
  </g>
  <g id="ID000149">
    <text class="cls-19" transform="translate(263.28 307.23)">A</text>
  </g>
  <g id="ID000150">
    <text class="cls-17" transform="translate(256.24 305.79)">U</text>
  </g>
  <g id="ID000151">
    <text class="cls-19" transform="translate(248.06 307.74)">A</text>
  </g>
  <g id="ID000152">
    <text class="cls-17" transform="translate(239.43 309.7)">U</text>
  </g>
  <g id="ID000153">
    <text class="cls-17" transform="translate(230.82 310.32)">G</text>
  </g>
  <g id="ID000154">
    <text class="cls-17" transform="translate(222.43 313.03)">U</text>
  </g>
  <g id="ID000157">
    <text class="cls-17" transform="translate(213.7 314.65)">G</text>
  </g>
  <g id="ID000158">
    <text class="cls-17" transform="translate(205.35 316.67)">C</text>
  </g>
  <g id="ID000159">
    <text class="cls-17" transform="translate(196.72 317.78)">G</text>
  </g>
  <g id="ID000160">
    <polygon class="cls-5" points="198.45 308.91 198.56 308.88 198.66 308.84 198.76 308.8 198.86 308.75 198.96 308.7 199.05 308.64 199.14 308.57 199.22 308.5 199.3 308.43 199.37 308.35 199.44 308.26 199.5 308.17 199.56 308.08 199.61 307.98 199.66 307.88 199.7 307.78 199.73 307.67 199.75 307.57 199.77 307.46 199.78 307.35 199.79 307.24 199.78 307.13 199.78 307.02 199.76 306.91 199.74 306.81 199.71 306.7 199.67 306.6 199.63 306.5 199.58 306.4 199.52 306.31 199.46 306.21 199.4 306.13 199.32 306.05 199.25 305.97 199.16 305.89 199.08 305.83 198.99 305.77 198.89 305.71 198.79 305.66 198.69 305.62 198.59 305.58 198.49 305.55 198.38 305.53 198.27 305.51 198.16 305.5 198.05 305.5 197.94 305.5 197.83 305.51 197.72 305.53 197.62 305.56 197.51 305.59 197.41 305.63 197.31 305.67 197.21 305.72 197.12 305.78 197.03 305.84 196.94 305.91 196.86 305.98 196.79 306.06 196.72 306.14 196.65 306.23 196.59 306.32 196.53 306.42 196.49 306.52 196.44 306.62 196.41 306.72 196.38 306.83 196.36 306.94 196.34 307.04 196.34 307.15 196.34 307.26 196.34 307.37 196.35 307.48 196.37 307.59 196.4 307.69 196.43 307.8 196.47 307.9 196.52 308 196.57 308.1 196.63 308.19 196.69 308.28 196.76 308.36 196.84 308.44 196.92 308.52 197 308.59 197.09 308.65 197.18 308.71 197.28 308.76 197.38 308.81 197.48 308.85 197.59 308.88 197.69 308.91 197.8 308.93 197.91 308.94 198.02 308.95 198.13 308.95 198.24 308.94 198.34 308.93 198.45 308.91"/>
  </g>
  <g id="ID000161">
    <line class="cls-6" x1="205.3" y1="300.23" x2="207.64" y2="310.31"/>
  </g>
  <g id="ID000162">
    <line class="cls-6" x1="213.7" y1="298.27" x2="216.05" y2="308.36"/>
  </g>
  <g id="ID000163">
    <polygon class="cls-5" points="223.68 303.04 223.78 303.01 223.89 302.98 223.99 302.94 224.09 302.89 224.18 302.84 224.27 302.78 224.36 302.71 224.44 302.64 224.52 302.56 224.6 302.48 224.67 302.4 224.73 302.31 224.79 302.21 224.84 302.12 224.88 302.02 224.92 301.91 224.95 301.81 224.98 301.7 225 301.6 225.01 301.49 225.01 301.38 225.01 301.27 225 301.16 224.98 301.05 224.96 300.94 224.93 300.84 224.9 300.73 224.85 300.63 224.8 300.54 224.75 300.44 224.69 300.35 224.62 300.26 224.55 300.18 224.47 300.1 224.39 300.03 224.3 299.96 224.21 299.9 224.12 299.85 224.02 299.8 223.92 299.75 223.81 299.72 223.71 299.69 223.6 299.66 223.49 299.65 223.38 299.64 223.28 299.63 223.17 299.64 223.06 299.65 222.95 299.67 222.84 299.69 222.74 299.72 222.63 299.76 222.53 299.81 222.44 299.86 222.34 299.91 222.25 299.98 222.17 300.05 222.09 300.12 222.01 300.2 221.94 300.28 221.87 300.37 221.81 300.46 221.76 300.56 221.71 300.65 221.67 300.75 221.63 300.86 221.61 300.96 221.58 301.07 221.57 301.18 221.56 301.29 221.56 301.4 221.57 301.51 221.58 301.62 221.6 301.72 221.63 301.83 221.66 301.94 221.7 302.04 221.74 302.14 221.8 302.23 221.85 302.33 221.92 302.41 221.99 302.5 222.06 302.58 222.14 302.65 222.23 302.72 222.32 302.79 222.41 302.85 222.5 302.9 222.6 302.95 222.71 302.99 222.81 303.02 222.92 303.05 223.02 303.07 223.13 303.08 223.24 303.09 223.35 303.08 223.46 303.08 223.57 303.06 223.68 303.04"/>
  </g>
  <g id="ID000164">
    <polygon class="cls-5" points="232.09 301.09 232.19 301.06 232.29 301.02 232.4 300.98 232.5 300.94 232.59 300.88 232.68 300.82 232.77 300.76 232.85 300.68 232.93 300.61 233.01 300.53 233.07 300.44 233.14 300.35 233.19 300.26 233.25 300.16 233.29 300.06 233.33 299.96 233.36 299.86 233.39 299.75 233.41 299.64 233.42 299.53 233.42 299.42 233.42 299.31 233.41 299.2 233.39 299.1 233.37 298.99 233.34 298.88 233.3 298.78 233.26 298.68 233.21 298.58 233.16 298.49 233.09 298.39 233.03 298.31 232.96 298.23 232.88 298.15 232.8 298.07 232.71 298.01 232.62 297.95 232.52 297.89 232.43 297.84 232.33 297.8 232.22 297.76 232.12 297.73 232.01 297.71 231.9 297.69 231.79 297.68 231.68 297.68 231.57 297.68 231.47 297.69 231.36 297.71 231.25 297.74 231.15 297.77 231.04 297.81 230.94 297.85 230.84 297.9 230.75 297.96 230.66 298.02 230.58 298.09 230.5 298.16 230.42 298.24 230.35 298.32 230.28 298.41 230.22 298.5 230.17 298.6 230.12 298.7 230.08 298.8 230.04 298.9 230.01 299.01 229.99 299.12 229.98 299.23 229.97 299.33 229.97 299.44 229.97 299.55 229.99 299.66 230.01 299.77 230.03 299.88 230.07 299.98 230.11 300.08 230.15 300.18 230.21 300.28 230.26 300.37 230.33 300.46 230.4 300.54 230.47 300.62 230.55 300.7 230.64 300.77 230.72 300.83 230.82 300.89 230.91 300.94 231.01 300.99 231.11 301.03 231.22 301.06 231.32 301.09 231.43 301.11 231.54 301.13 231.65 301.13 231.76 301.13 231.87 301.12 231.98 301.11 232.09 301.09"/>
  </g>
  <g id="ID000165">
    <polygon class="cls-5" points="240.49 299.13 240.6 299.1 240.7 299.07 240.81 299.03 240.9 298.98 241 298.93 241.09 298.87 241.18 298.8 241.26 298.73 241.34 298.65 241.41 298.57 241.48 298.49 241.55 298.4 241.6 298.3 241.65 298.21 241.7 298.11 241.74 298 241.77 297.9 241.79 297.79 241.81 297.69 241.82 297.58 241.83 297.47 241.83 297.36 241.82 297.25 241.8 297.14 241.78 297.03 241.75 296.93 241.71 296.82 241.67 296.72 241.62 296.63 241.56 296.53 241.5 296.44 241.44 296.35 241.36 296.27 241.29 296.19 241.2 296.12 241.12 296.05 241.03 295.99 240.93 295.94 240.84 295.89 240.73 295.84 240.63 295.81 240.53 295.78 240.42 295.75 240.31 295.74 240.2 295.73 240.09 295.72 239.98 295.73 239.87 295.74 239.76 295.76 239.66 295.78 239.55 295.81 239.45 295.85 239.35 295.9 239.25 295.95 239.16 296 239.07 296.07 238.99 296.13 238.9 296.21 238.83 296.29 238.76 296.37 238.69 296.46 238.63 296.55 238.57 296.64 238.53 296.74 238.49 296.84 238.45 296.95 238.42 297.05 238.4 297.16 238.38 297.27 238.38 297.38 238.38 297.49 238.38 297.6 238.4 297.71 238.41 297.81 238.44 297.92 238.47 298.02 238.51 298.13 238.56 298.23 238.61 298.32 238.67 298.42 238.74 298.5 238.81 298.59 238.88 298.67 238.96 298.74 239.04 298.81 239.13 298.88 239.22 298.94 239.32 298.99 239.42 299.04 239.52 299.08 239.63 299.11 239.73 299.14 239.84 299.16 239.95 299.17 240.06 299.18 240.17 299.18 240.28 299.17 240.39 299.15 240.49 299.13"/>
  </g>
  <g id="ID000166">
    <line class="cls-6" x1="247.34" y1="290.45" x2="249.68" y2="300.54"/>
  </g>
  <g id="ID000167">
    <line class="cls-6" x1="255.75" y1="288.5" x2="258.09" y2="298.59"/>
  </g>
  <g id="ID000169">
    <text class="cls-20" transform="translate(195.25 327.89)">U</text>
  </g>
  <g id="ID000170">
    <text class="cls-20" transform="translate(203.88 327.89)">C</text>
  </g>
  <g id="ID000171">
    <text class="cls-20" transform="translate(212.51 327.89)">U</text>
  </g>
  <g id="ID000172">
    <text class="cls-21" transform="translate(223.53 325.74)">A</text>
  </g>
  <g id="ID000173">
    <text class="cls-20" transform="translate(231.93 332.21)">C</text>
  </g>
  <g id="ID000174">
    <text class="cls-21" transform="translate(232.16 343)">A</text>
  </g>
  <g id="ID000175">
    <text class="cls-20" transform="translate(223.3 345.16)">U</text>
  </g>
  <g id="ID000176">
    <line class="cls-6" x1="226.31" y1="347.03" x2="226.31" y2="352.79"/>
  </g>
  <g id="ID000177">
    <text class="cls-9" transform="translate(219.36 362.97)">100</text>
  </g>
  <g id="ID000178">
    <text class="cls-20" transform="translate(212.28 345.16)">G</text>
  </g>
  <g id="ID000179">
    <text class="cls-20" transform="translate(203.65 345.16)">G</text>
  </g>
  <g id="ID000180">
    <text class="cls-21" transform="translate(195.48 345.16)">A</text>
  </g>
  <g id="ID000181">
    <line class="cls-6" x1="198.26" y1="327.46" x2="198.26" y2="337.82"/>
  </g>
  <g id="ID000182">
    <line class="cls-6" x1="206.89" y1="327.46" x2="206.89" y2="337.82"/>
  </g>
  <g id="ID000183">
    <polygon class="cls-5" points="215.52 334.37 215.63 334.37 215.74 334.36 215.85 334.34 215.95 334.31 216.06 334.28 216.16 334.25 216.26 334.2 216.36 334.15 216.45 334.1 216.54 334.03 216.63 333.96 216.71 333.89 216.79 333.81 216.86 333.73 216.93 333.64 216.99 333.55 217.04 333.46 217.09 333.36 217.13 333.26 217.17 333.15 217.2 333.05 217.22 332.94 217.24 332.83 217.25 332.72 217.25 332.62 217.24 332.51 217.23 332.4 217.21 332.29 217.19 332.18 217.15 332.08 217.11 331.98 217.07 331.88 217.02 331.78 216.96 331.69 216.9 331.6 216.83 331.51 216.75 331.43 216.67 331.36 216.59 331.29 216.5 331.22 216.41 331.16 216.31 331.11 216.21 331.06 216.11 331.02 216.01 330.99 215.9 330.96 215.79 330.94 215.69 330.92 215.57 330.92 215.47 330.92 215.36 330.92 215.25 330.94 215.14 330.96 215.03 330.99 214.93 331.02 214.83 331.06 214.73 331.11 214.63 331.16 214.54 331.22 214.45 331.29 214.37 331.36 214.29 331.43 214.22 331.51 214.15 331.6 214.08 331.69 214.03 331.78 213.97 331.88 213.93 331.98 213.89 332.08 213.86 332.18 213.83 332.29 213.81 332.4 213.8 332.51 213.79 332.62 213.8 332.72 213.81 332.83 213.82 332.94 213.84 333.05 213.87 333.15 213.91 333.26 213.95 333.36 214 333.46 214.05 333.55 214.12 333.64 214.18 333.73 214.25 333.81 214.33 333.89 214.41 333.96 214.5 334.03 214.59 334.1 214.68 334.15 214.78 334.2 214.88 334.25 214.98 334.28 215.09 334.31 215.19 334.34 215.3 334.36 215.41 334.37 215.52 334.37"/>
  </g>
  <g id="ID000068-2" data-name="ID000068">
    <line class="cls-6" x1="174.74" y1="257.72" x2="185.1" y2="257.72"/>
  </g>
  <g id="ID000069-2" data-name="ID000069">
    <line class="cls-6" x1="174.74" y1="249.09" x2="185.1" y2="249.09"/>
  </g>
  <g id="ID000070-2" data-name="ID000070">
    <line class="cls-6" x1="174.74" y1="240.46" x2="185.1" y2="240.46"/>
  </g>
  <g id="ID000068-3" data-name="ID000068">
    <line class="cls-6" x1="174.73" y1="275.1" x2="185.09" y2="275.1"/>
  </g>
  <text class="cls-22" transform="translate(147.61 381.39)">5<tspan class="cls-23" x="8.9" y="0">’</tspan></text>
  <text class="cls-22" transform="translate(202.31 394.4)">3<tspan class="cls-23" x="8.9" y="0">’</tspan></text>
  <text class="cls-24" transform="translate(9.63 23.23)">J6 aptamer</text>
</svg>
