<?xml version="1.0" encoding="utf-8"?>
<!-- Generator: Adobe Illustrator 25.4.1, SVG Export Plug-In . SVG Version: 6.00 Build 0)  -->
<svg version="1.1" id="图层_1" xmlns="http://www.w3.org/2000/svg" xmlns:xlink="http://www.w3.org/1999/xlink" x="0px" y="0px"
	 viewBox="0 0 400 400" style="enable-background:new 0 0 400 400;" xml:space="preserve">
<style type="text/css">
	.st0{fill:#FF870A;}
	.st1{font-family:'ArialMT';}
	.st2{font-size:13px;}
	.st3{fill:#008080;}
	.st4{fill:#C2C2FF;}
	.st5{fill:#228B22;}
	.st6{fill:#80DB9E;}
	.st7{fill:none;stroke:#000000;stroke-width:7.000000e-02;stroke-miterlimit:10;}
	.st8{font-size:20px;}
	.st9{font-size:10px;}
	.st10{opacity:0.75;}
	.st11{stroke:#000000;stroke-width:7.000000e-02;stroke-miterlimit:10;}
</style>
<text transform="matrix(1 0 0 1 231.03 331.91)" class="st0 st1 st2">G</text>
<text transform="matrix(1 0 0 1 238.49 320.88)" class="st0 st1 st2">G</text>
<text transform="matrix(1 0 0 1 246 312.01)" class="st3 st1 st2">G</text>
<text transform="matrix(1 0 0 1 240.85 299.65)" class="st3 st1 st2">C</text>
<text transform="matrix(1 0 0 1 234.99 287.05)" class="st3 st1 st2">G</text>
<text transform="matrix(1 0 0 1 229.8 274.46)" class="st3 st1 st2">C</text>
<text transform="matrix(1 0 0 1 220.74 271.49)" class="st3 st1 st2">U</text>
<text transform="matrix(1 0 0 1 211.86 262.32)" class="st3 st1 st2">A</text>
<text transform="matrix(1 0 0 1 209.05 249.74)" class="st3 st1 st2">A</text>
<text transform="matrix(1 0 0 1 210.25 237.26)" class="st3 st1 st2">G</text>
<text transform="matrix(1 0 0 1 201.61 227.78)" class="st3 st1 st2">U</text>
<text transform="matrix(1 0 0 1 194.22 216.31)" class="st4 st1 st2">C</text>
<text transform="matrix(1 0 0 1 186.62 205.04)" class="st4 st1 st2">C</text>
<text transform="matrix(1 0 0 1 177.55 200.48)" class="st4 st1 st2">U</text>
<text transform="matrix(1 0 0 1 170.67 189.92)" class="st4 st1 st2">C</text>
<text transform="matrix(1 0 0 1 170.84 178.1)" class="st4 st1 st2">G</text>
<text transform="matrix(1 0 0 1 163.43 166.83)" class="st4 st1 st2">C</text>
<text transform="matrix(1 0 0 1 155.34 155.4)" class="st4 st1 st2">U</text>
<text transform="matrix(1 0 0 1 148.15 143.44)" class="st4 st1 st2">C</text>
<text transform="matrix(1 0 0 1 143.46 129.75)" class="st5 st1 st2">A</text>
<text transform="matrix(1 0 0 1 138 116.2)" class="st5 st1 st2">U</text>
<text transform="matrix(1 0 0 1 134.68 101.91)" class="st5 st1 st2">A</text>
<text transform="matrix(1 0 0 1 133.32 87.02)" class="st5 st1 st2">C</text>
<text transform="matrix(1 0 0 1 134.5 71.57)" class="st5 st1 st2">A</text>
<text transform="matrix(1 0 0 1 123.11 62.26)" class="st5 st1 st2">A</text>
<text transform="matrix(1 0 0 1 108.1 59.35)" class="st5 st1 st2">C</text>
<text transform="matrix(1 0 0 1 94.03 54.53)" class="st6 st1 st2">G</text>
<text transform="matrix(1 0 0 1 82.45 49.01)" class="st6 st1 st2">A</text>
<text transform="matrix(1 0 0 1 70.74 47.56)" class="st6 st1 st2">G</text>
<text transform="matrix(1 0 0 1 63.63 36.97)" class="st6 st1 st2">G</text>
<text transform="matrix(1 0 0 1 69.19 25.47)" class="st6 st1 st2">G</text>
<text transform="matrix(1 0 0 1 81.84 24.37)" class="st6 st1 st2">G</text>
<text transform="matrix(1 0 0 1 89.41 33.84)" class="st6 st1 st2">U</text>
<text transform="matrix(1 0 0 1 101.72 39.37)" class="st6 st1 st2">C</text>
<text transform="matrix(1 0 0 1 113.85 43.86)" class="st5 st1 st2">G</text>
<text transform="matrix(1 0 0 1 126.1 45.99)" class="st5 st1 st2">U</text>
<text transform="matrix(1 0 0 1 132.07 33.85)" class="st5 st1 st2">G</text>
<text transform="matrix(1 0 0 1 143.36 29.61)" class="st5 st1 st2">U</text>
<text transform="matrix(1 0 0 1 156.27 30.87)" class="st5 st1 st2">A</text>
<text transform="matrix(1 0 0 1 166.08 38.76)" class="st5 st1 st2">G</text>
<text transform="matrix(1 0 0 1 170.74 50.55)" class="st5 st1 st2">G</text>
<text transform="matrix(1 0 0 1 169.39 63.09)" class="st5 st1 st2">G</text>
<text transform="matrix(1 0 0 1 161.44 71.15)" class="st5 st1 st2">A</text>
<text transform="matrix(1 0 0 1 149.5 74.68)" class="st5 st1 st2">U</text>
<text transform="matrix(1 0 0 1 148.25 86.9)" class="st5 st1 st2">G</text>
<text transform="matrix(1 0 0 1 149.61 99.8)" class="st5 st1 st2">U</text>
<text transform="matrix(1 0 0 1 152.92 112.43)" class="st5 st1 st2">A</text>
<text transform="matrix(1 0 0 1 157.54 124.59)" class="st5 st1 st2">U</text>
<text transform="matrix(1 0 0 1 162.62 135.27)" class="st4 st1 st2">G</text>
<text transform="matrix(1 0 0 1 169.71 146.57)" class="st4 st1 st2">G</text>
<text transform="matrix(1 0 0 1 177.35 157.8)" class="st4 st1 st2">G</text>
<text transform="matrix(1 0 0 1 185.52 168.99)" class="st4 st1 st2">C</text>
<text transform="matrix(1 0 0 1 196.16 172.58)" class="st4 st1 st2">U</text>
<text transform="matrix(1 0 0 1 203.28 183.12)" class="st4 st1 st2">U</text>
<text transform="matrix(1 0 0 1 202.86 194.03)" class="st4 st1 st2">G</text>
<text transform="matrix(1 0 0 1 210.31 205.47)" class="st4 st1 st2">G</text>
<text transform="matrix(1 0 0 1 218.06 216.88)" class="st3 st1 st2">A</text>
<text transform="matrix(1 0 0 1 225.88 226.87)" class="st3 st1 st2">C</text>
<text transform="matrix(1 0 0 1 236.84 229.1)" class="st3 st1 st2">A</text>
<text transform="matrix(1 0 0 1 248.22 235.11)" class="st3 st1 st2">C</text>
<text transform="matrix(1 0 0 1 254.32 246.44)" class="st3 st1 st2">A</text>
<text transform="matrix(1 0 0 1 253.35 257.21)" class="st3 st1 st2">C</text>
<text transform="matrix(1 0 0 1 247.36 267.73)" class="st3 st1 st2">G</text>
<text transform="matrix(1 0 0 1 252.65 280.13)" class="st3 st1 st2">C</text>
<text transform="matrix(1 0 0 1 257.91 292.56)" class="st3 st1 st2">G</text>
<text transform="matrix(1 0 0 1 263.92 304.81)" class="st3 st1 st2">C</text>
<text transform="matrix(1 0 0 1 274.69 305.89)" class="st0 st1 st2">G</text>
<text transform="matrix(1 0 0 1 287.44 308.63)" class="st0 st1 st2">A</text>
<text transform="matrix(1 0 0 1 298.62 315.11)" class="st0 st1 st2">C</text>
<text transform="matrix(1 0 0 1 306.85 324.74)" class="st0 st1 st2">U</text>
<text transform="matrix(1 0 0 1 312.26 336.46)" class="st0 st1 st2">C</text>
<text transform="matrix(1 0 0 1 313.16 349.18)" class="st0 st1 st2">G</text>
<text transform="matrix(1 0 0 1 310.39 361.64)" class="st0 st1 st2">G</text>
<text transform="matrix(1 0 0 1 304.14 372.67)" class="st0 st1 st2">A</text>
<text transform="matrix(1 0 0 1 294.27 381.01)" class="st0 st1 st2">U</text>
<text transform="matrix(1 0 0 1 282.84 386.09)" class="st0 st1 st2">C</text>
<text transform="matrix(1 0 0 1 270.17 387.63)" class="st0 st1 st2">C</text>
<text transform="matrix(1 0 0 1 257.45 384.93)" class="st0 st1 st2">U</text>
<text transform="matrix(1 0 0 1 246.62 378.49)" class="st0 st1 st2">A</text>
<text transform="matrix(1 0 0 1 238.13 369.06)" class="st0 st1 st2">C</text>
<text transform="matrix(1 0 0 1 188.88 238.97)" class="st1 st2">10</text>
<text transform="matrix(1 0 0 1 122.47 130.12)" class="st1 st2">20</text>
<text transform="matrix(1 0 0 1 42.5 35.96)" class="st1 st2">30</text>
<text transform="matrix(1 0 0 1 183.52 38.91)" class="st1 st2">40</text>
<text transform="matrix(1 0 0 1 185.77 144.99)" class="st1 st2">50</text>
<text transform="matrix(1 0 0 1 264.6 234.63)" class="st1 st2">60</text>
<text transform="matrix(1 0 0 1 322.9 323.07)" class="st1 st2">70</text>
<text transform="matrix(1 0 0 1 217.23 369.74)" class="st1 st2">80</text>
<g id="ID000017-4">
	<line class="st7" x1="87.2" y1="39.5" x2="90.8" y2="33.4"/>
</g>
<g id="ID000017-4-2">
	<line class="st7" x1="101.3" y1="44.6" x2="104.1" y2="39.4"/>
</g>
<g id="ID000017-4-3">
	<line class="st7" x1="113.8" y1="49.6" x2="117.3" y2="43.5"/>
</g>
<g id="ID000017-4-4">
	<line class="st7" x1="127.1" y1="52.3" x2="129.3" y2="45.9"/>
</g>
<g id="ID000017-4-5">
	<line class="st7" x1="143" y1="67.8" x2="149.7" y2="68.7"/>
</g>
<g id="ID000017-4-6">
	<line class="st7" x1="142.2" y1="82.6" x2="148.9" y2="82.8"/>
</g>
<g id="ID000017-4-7">
	<line class="st7" x1="143" y1="97.1" x2="149.6" y2="95.6"/>
</g>
<g id="ID000017-4-8">
	<line class="st7" x1="56.7" y1="32.1" x2="63.5" y2="32.2"/>
</g>
<g id="ID000017-4-9">
	<line class="st7" x1="176.6" y1="34.3" x2="183.3" y2="34.4"/>
</g>
<g id="ID000017-4-10">
	<line class="st7" x1="137.3" y1="125.8" x2="144.1" y2="125.8"/>
</g>
<g id="ID000017-4-11">
	<line class="st7" x1="203.4" y1="233.5" x2="210.2" y2="233.6"/>
</g>
<g id="ID000017-4-12">
	<line class="st7" x1="179" y1="141" x2="185.8" y2="141.1"/>
</g>
<g id="ID000017-4-13">
	<line class="st7" x1="257.1" y1="230.1" x2="263.9" y2="230.2"/>
</g>
<g id="ID000017-4-14">
	<line class="st7" x1="316.3" y1="318.2" x2="323.1" y2="318.3"/>
</g>
<g id="ID000017-4-15">
	<line class="st7" x1="231.7" y1="365" x2="238.5" y2="365.1"/>
</g>
<g id="ID000017-4-16">
	<line class="st7" x1="146.8" y1="110.7" x2="153.4" y2="109.2"/>
</g>
<g id="ID000017-4-17">
	<line class="st7" x1="151.4" y1="123.8" x2="158" y2="122.3"/>
</g>
<g id="ID000017-4-18">
	<line class="st7" x1="157.8" y1="138.1" x2="163.7" y2="134.7"/>
</g>
<g id="ID000017-4-20">
	<line class="st7" x1="172.7" y1="160.7" x2="178.6" y2="157.4"/>
</g>
<g id="ID000017-4-21">
	<line class="st7" x1="180.8" y1="172" x2="186.6" y2="168.6"/>
</g>
<g id="ID000017-4-22">
	<line class="st7" x1="197.1" y1="197.7" x2="203.6" y2="193.6"/>
</g>
<g id="ID000017-4-23">
	<line class="st7" x1="203.6" y1="208.9" x2="210.1" y2="204.8"/>
</g>
<g id="ID000017-4-24">
	<line class="st7" x1="211" y1="221" x2="217.5" y2="216.9"/>
</g>
<g id="ID000017-4-25">
	<line class="st7" x1="220.2" y1="230.1" x2="226.8" y2="226.1"/>
</g>
<g id="ID000017-4-26">
	<line class="st7" x1="240" y1="268.6" x2="248.5" y2="266.4"/>
</g>
<g id="ID000017-4-27">
	<line class="st7" x1="244.8" y1="281.2" x2="253.3" y2="279"/>
</g>
<g id="ID000017-4-28">
	<line class="st7" x1="250.1" y1="293.9" x2="258.6" y2="291.7"/>
</g>
<g id="ID000017-4-29">
	<line class="st7" x1="256.1" y1="306.1" x2="264.6" y2="303.9"/>
</g>
<text transform="matrix(1 0 0 1 221.6 111.81)" class="st1 st8">TR-D28 aptamer</text>
<text transform="matrix(1 0 0 1 222.99 331.07)" class="st1 st9">5</text>
<text transform="matrix(1 0 0 1 228.55 331.07)" class="st1 st9">’</text>
<text transform="matrix(1 0 0 1 248.05 367.06)" class="st1 st9">3</text>
<text transform="matrix(1 0 0 1 253.61 367.06)" class="st1 st9">’</text>
<g id="ID000021-2" class="st10">
	<polygon class="st11" points="168,143.9 167.9,143.9 167.8,143.9 167.6,144 167.5,144 167.4,144 167.2,144.1 167.1,144.1 
		167,144.2 166.9,144.3 166.7,144.3 166.6,144.4 166.5,144.5 166.4,144.6 166.3,144.7 166.3,144.8 166.2,144.9 166.1,145.1 
		166.1,145.2 166,145.3 166,145.4 165.9,145.6 165.9,145.7 165.9,145.9 165.9,146 165.9,146.1 165.9,146.3 165.9,146.4 165.9,146.5 
		165.9,146.7 166,146.8 166,146.9 166.1,147 166.2,147.1 166.2,147.3 166.3,147.4 166.4,147.5 166.5,147.6 166.6,147.7 166.7,147.8 
		166.8,147.8 166.9,147.9 167,148 167.2,148 167.3,148.1 167.4,148.1 167.6,148.2 167.7,148.2 167.8,148.2 168,148.2 168.1,148.2 
		168.2,148.2 168.4,148.2 168.5,148.2 168.6,148.1 168.8,148.1 168.9,148 169,148 169.2,147.9 169.3,147.8 169.4,147.8 169.5,147.7 
		169.6,147.6 169.7,147.5 169.8,147.4 169.8,147.3 169.9,147.1 169.9,147 170,146.9 170.1,146.8 170.1,146.7 170.1,146.5 
		170.2,146.4 170.2,146.3 170.2,146.1 170.2,146 170.2,145.9 170.1,145.7 170.1,145.6 170.1,145.4 170,145.3 170,145.2 169.9,145.1 
		169.9,144.9 169.8,144.8 169.7,144.7 169.6,144.6 169.5,144.5 169.4,144.4 169.3,144.3 169.2,144.3 169.1,144.2 169,144.1 
		168.8,144.1 168.7,144 168.6,144 168.4,144 168.3,143.9 168.2,143.9 	"/>
</g>
</svg>
