<?xml version="1.0" encoding="utf-8"?>
<!-- Generator: Adobe Illustrator 25.2.0, SVG Export Plug-In . SVG Version: 6.00 Build 0)  -->
<svg version="1.1" id="图层_1" xmlns="http://www.w3.org/2000/svg" xmlns:xlink="http://www.w3.org/1999/xlink" x="0px" y="0px"
	 viewBox="0 0 800 400" style="enable-background:new 0 0 800 400;" xml:space="preserve">
<style type="text/css">
	.st0{fill:#FFFF33;stroke:#FFFF00;stroke-width:1;stroke-miterlimit:10;}
	.st1{fill:#80DB9E;}
	.st2{font-family:'ArialMT';}
	.st3{font-size:18.14px;}
	.st4{letter-spacing:-1;}
	.st5{fill:none;stroke:#000000;stroke-width:7.000000e-02;stroke-miterlimit:10;}
	.st6{fill:none;stroke:#000000;stroke-width:0.2;stroke-miterlimit:10;}
	.st7{fill:#FF00FF;}
	.st8{fill:none;stroke:#000000;stroke-width:0.64;stroke-miterlimit:10;}
	.st9{stroke:#000000;stroke-width:7.000000e-02;stroke-miterlimit:10;}
	.st10{fill:#FFFFFF;stroke:#000000;stroke-width:0.2;stroke-miterlimit:10;}
	.st11{fill:#FFFFFF;stroke:#000000;stroke-width:7.000000e-02;stroke-miterlimit:10;}
	.st12{font-size:14px;}
	.st13{font-size:20px;}
	.st14{font-size:13.92px;}
</style>
<ellipse transform="matrix(1 -2.443451e-03 2.443451e-03 1 -0.6183 0.9476)" class="st0" cx="387.5" cy="253.5" rx="7" ry="47.6"/>
<g id="ID000002">
	<text transform="matrix(1 0 0 1 397.08 252.26)" class="st1 st2 st3">G</text>
</g>
<g id="ID000003">
	<text transform="matrix(1 0 0 1 397.08 234.17)" class="st1 st2 st3">G</text>
</g>
<g id="ID000004">
	<text transform="matrix(1 0 0 1 398.08 216.08)" class="st1 st2 st3 st4">A</text>
</g>
<g id="ID000005">
	<text transform="matrix(1 0 0 1 398.08 197.98)" class="st1 st2 st3 st4">A</text>
</g>
<g id="ID000006">
	<text transform="matrix(1 0 0 1 397.58 179.89)" class="st1 st2 st3">C</text>
</g>
<g id="ID000007">
	<text transform="matrix(1 0 0 1 397.58 161.8)" class="st1 st2 st3">C</text>
</g>
<g id="ID000008">
	<text transform="matrix(1 0 0 1 397.08 143.71)" class="st1 st2 st3">G</text>
</g>
<g id="ID000009">
	<text transform="matrix(1 0 0 1 397.08 125.62)" class="st1 st2 st3">G</text>
</g>
<g id="ID000010">
	<text transform="matrix(1 0 0 1 397.58 107.53)" class="st1 st2 st3">U</text>
</g>
<g id="ID000011">
	<text transform="matrix(1 0 0 1 396.58 87.93)" class="st1 st2 st3">G</text>
</g>
<g id="ID000012">
	<line class="st5" x1="414.2" y1="71.3" x2="422.7" y2="62.7"/>
</g>
<g id="ID000013">
	<text transform="matrix(1 0 0 1 415.59 58.42)" class="st2 st3">10</text>
</g>
<g id="ID000014">
	<text transform="matrix(1 0 0 1 363.41 51.74)" class="st1 st2 st3 st4">A</text>
</g>
<g id="ID000015">
	<text transform="matrix(1 0 0 1 362.91 69.84)" class="st1 st2 st3">C</text>
</g>
<g id="ID000016">
	<text transform="matrix(1 0 0 1 362.91 87.93)" class="st1 st2 st3">C</text>
</g>
<g id="ID000017">
	<text transform="matrix(1 0 0 1 361.9 107.53)" class="st1 st2 st3 st4">A</text>
</g>
<g id="ID000018">
	<line class="st5" x1="355.9" y1="99.4" x2="313.5" y2="99.4"/>
</g>
<g id="ID000020">
	<text transform="matrix(1 0 0 1 361.4 125.62)" class="st1 st2 st3">C</text>
</g>
<g id="ID000021">
	<text transform="matrix(1 0 0 1 361.4 143.71)" class="st1 st2 st3">C</text>
</g>
<g id="ID000022">
	<text transform="matrix(1 0 0 1 362.91 164.82)" class="st1 st2 st3">U</text>
</g>
<g id="ID000023">
	<text transform="matrix(1 0 0 1 362.91 182.91)" class="st1 st2 st3">C</text>
</g>
<g id="ID000024">
	<text transform="matrix(1 0 0 1 363.41 201)" class="st1 st2 st3 st4">A</text>
</g>
<g id="ID000025">
	<text transform="matrix(1 0 0 1 362.4 219.09)" class="st1 st2 st3">G</text>
</g>
<g id="ID000026">
	<text transform="matrix(1 0 0 1 362.91 237.18)" class="st1 st2 st3">U</text>
</g>
<g id="ID000027">
	<line class="st6" x1="396.9" y1="135.6" x2="375.2" y2="135.6"/>
</g>
<g id="ID000028">
	<line class="st6" x1="396.9" y1="117.5" x2="375.2" y2="117.5"/>
</g>
<g id="ID000029">
	<line class="st6" x1="396.9" y1="99.4" x2="375.2" y2="99.4"/>
</g>
<g id="ID000031">
	<text transform="matrix(1 0 0 1 399.09 368.34)" class="st7 st2 st3">C</text>
</g>
<g id="ID000032">
	<text transform="matrix(1 0 0 1 398.58 350.25)" class="st1 st2 st3">G</text>
</g>
<g id="ID000033">
	<text transform="matrix(1 0 0 1 399.09 332.16)" class="st1 st2 st3">C</text>
</g>
<g id="ID000034">
	<text transform="matrix(1 0 0 1 399.59 314.06)" class="st7 st2 st3 st4">A</text>
</g>
<g id="ID000035">
	<text transform="matrix(1 0 0 1 362.91 15.56)" class="st1 st2 st3">U</text>
</g>
<g id="ID000036">
	<text transform="matrix(1 0 0 1 363.41 33.65)" class="st7 st2 st3 st4">A</text>
</g>
<g id="ID000037">
	<text transform="matrix(1 0 0 1 362.4 259.8)" class="st7 st2 st3">G</text>
</g>
<g id="ID000038">
	<text transform="matrix(1 0 0 1 362.91 277.88)" class="st7 st2 st3">C</text>
</g>
<g id="ID000039">
	<text transform="matrix(1 0 0 1 362.4 295.98)" class="st1 st2 st3">G</text>
</g>
<g id="ID000040">
	<line class="st5" x1="357.4" y1="287.8" x2="335.8" y2="287.8"/>
</g>
<g id="ID000041">
	<text transform="matrix(1 0 0 1 315.08 295.98)" class="st2 st3">30</text>
</g>
<g id="ID000042">
	<text transform="matrix(1 0 0 1 363.41 314.06)" class="st1 st2 st3 st4">A</text>
</g>
<g id="ID000043">
	<text transform="matrix(1 0 0 1 362.4 332.16)" class="st1 st2 st3">G</text>
</g>
<g id="ID000044">
	<text transform="matrix(1 0 0 1 362.91 350.25)" class="st1 st2 st3">C</text>
</g>
<g id="ID000045">
	<text transform="matrix(1 0 0 1 363.41 368.34)" class="st1 st2 st3 st4">A</text>
</g>
<g id="ID000046">
	<text transform="matrix(1 0 0 1 363.41 386.44)" class="st1 st2 st3 st4">A</text>
</g>
<g id="ID000047">
	<line class="st6" x1="398.4" y1="342.1" x2="376.7" y2="342.1"/>
</g>
<g id="ID000048">
	<line class="st6" x1="398.4" y1="324" x2="376.7" y2="324"/>
</g>
<g id="ID000050">
	<polyline class="st8" points="412.9,305.9 441.8,305.9 441.8,7.4 376.7,7.4 	"/>
</g>
<g id="ID000051">
	<polygon class="st9" points="436.4,162.7 439.1,159.7 440,156.7 440.5,153.7 441.8,147.6 443.2,153.7 443.6,156.7 444.5,159.7 
		447.2,162.7 	"/>
</g>
<g id="ID000052">
	<polyline class="st8" points="412.9,79.8 432.8,79.8 432.8,360.2 412.9,360.2 	"/>
</g>
<g id="ID000053">
	<polygon class="st9" points="438.2,214 435.5,217 434.6,220 434.1,223 432.8,229 431.4,223 431,220 430.1,217 427.4,214 	"/>
</g>
<g id="ID000054">
	<polyline class="st5" points="362.2,61.7 328.8,61.7 328.8,251.6 362.2,251.6 	"/>
</g>
<g id="ID000055">
	<polygon class="st9" points="328.8,160.3 329,160.3 329.2,160.3 329.4,160.2 329.7,160.2 329.9,160.1 330.1,160 330.3,159.9 
		330.5,159.8 330.7,159.7 330.9,159.6 331.1,159.4 331.2,159.3 331.4,159.1 331.6,159 331.7,158.8 331.8,158.6 331.9,158.4 
		332,158.2 332.1,158 332.2,157.8 332.3,157.5 332.3,157.3 332.4,157.1 332.4,156.8 332.4,156.6 332.4,156.4 332.3,156.2 
		332.3,155.9 332.2,155.7 332.2,155.5 332.1,155.3 332,155.1 331.9,154.9 331.8,154.7 331.6,154.5 331.5,154.3 331.3,154.1 
		331.2,154 331,153.8 330.8,153.7 330.6,153.6 330.4,153.5 330.2,153.4 330,153.3 329.8,153.2 329.5,153.1 329.3,153.1 329.1,153.1 
		328.9,153.1 328.6,153.1 328.4,153.1 328.2,153.1 328,153.1 327.7,153.2 327.5,153.3 327.3,153.4 327.1,153.5 326.9,153.6 
		326.7,153.7 326.5,153.8 326.3,154 326.2,154.1 326,154.3 325.9,154.5 325.7,154.7 325.6,154.9 325.5,155.1 325.4,155.3 
		325.3,155.5 325.3,155.7 325.2,155.9 325.2,156.2 325.1,156.4 325.1,156.6 325.1,156.8 325.2,157.1 325.2,157.3 325.2,157.5 
		325.3,157.8 325.4,158 325.5,158.2 325.6,158.4 325.7,158.6 325.8,158.8 325.9,159 326.1,159.1 326.3,159.3 326.4,159.4 
		326.6,159.6 326.8,159.7 327,159.8 327.2,159.9 327.4,160 327.6,160.1 327.8,160.2 328.1,160.2 328.3,160.3 328.5,160.3 	"/>
</g>
<g id="ID000056">
	<polyline class="st5" points="362.2,79.8 355.9,79.8 355.9,211 362.2,211 	"/>
</g>
<g id="ID000057">
	<polygon class="st9" points="355.9,149 356.1,149 356.4,149 356.6,148.9 356.8,148.9 357,148.8 357.2,148.7 357.4,148.6 
		357.6,148.5 357.9,148.4 358,148.3 358.2,148.1 358.4,148 358.5,147.8 358.7,147.7 358.8,147.5 359,147.3 359.1,147.1 359.2,146.9 
		359.3,146.7 359.4,146.4 359.4,146.2 359.5,146 359.5,145.8 359.5,145.6 359.5,145.3 359.5,145.1 359.5,144.9 359.4,144.6 
		359.4,144.4 359.3,144.2 359.2,144 359.1,143.8 359,143.6 358.9,143.4 358.8,143.2 358.6,143 358.5,142.8 358.3,142.7 358.1,142.5 
		357.9,142.4 357.8,142.3 357.5,142.2 357.3,142.1 357.1,142 356.9,141.9 356.7,141.8 356.5,141.8 356.2,141.8 356,141.8 
		355.8,141.8 355.5,141.8 355.3,141.8 355.1,141.8 354.9,141.9 354.6,142 354.4,142.1 354.2,142.2 354,142.3 353.8,142.4 
		353.6,142.5 353.5,142.7 353.3,142.8 353.1,143 353,143.2 352.9,143.4 352.8,143.6 352.6,143.8 352.5,144 352.5,144.2 352.4,144.4 
		352.4,144.6 352.3,144.9 352.3,145.1 352.3,145.3 352.3,145.6 352.3,145.8 352.3,146 352.4,146.2 352.4,146.4 352.5,146.7 
		352.6,146.9 352.7,147.1 352.8,147.3 352.9,147.5 353.1,147.7 353.2,147.8 353.4,148 353.6,148.1 353.8,148.3 353.9,148.4 
		354.1,148.5 354.3,148.6 354.5,148.7 354.8,148.8 355,148.9 355.2,148.9 355.4,149 355.7,149 	"/>
</g>
<g id="ID000058">
	<polyline class="st5" points="405.6,367.4 405.6,396.4 351.4,396.4 351.4,287.8 362.2,287.8 	"/>
</g>
<g id="ID000059">
	<polygon class="st9" points="374.9,396.4 374.9,396.6 374.9,396.8 375,397.1 375,397.3 375.1,397.5 375.1,397.7 375.2,397.9 
		375.3,398.1 375.5,398.3 375.6,398.5 375.7,398.7 375.9,398.9 376,399 376.2,399.2 376.4,399.3 376.6,399.5 376.8,399.6 377,399.7 
		377.2,399.8 377.4,399.8 377.6,399.9 377.9,400 378.1,400 378.3,400 378.6,400 378.8,400 379,400 379.2,399.9 379.5,399.9 
		379.7,399.8 379.9,399.7 380.1,399.6 380.3,399.5 380.5,399.4 380.7,399.3 380.9,399.1 381,399 381.2,398.8 381.4,398.6 
		381.5,398.4 381.6,398.2 381.7,398 381.8,397.8 381.9,397.6 382,397.4 382,397.2 382.1,397 382.1,396.7 382.1,396.5 382.1,396.3 
		382.1,396 382.1,395.8 382,395.6 382,395.4 381.9,395.1 381.8,394.9 381.7,394.7 381.6,394.5 381.5,394.3 381.4,394.1 381.2,394 
		381,393.8 380.9,393.6 380.7,393.5 380.5,393.4 380.3,393.2 380.1,393.1 379.9,393 379.7,393 379.5,392.9 379.2,392.8 379,392.8 
		378.8,392.8 378.6,392.8 378.3,392.8 378.1,392.8 377.9,392.8 377.6,392.9 377.4,392.9 377.2,393 377,393.1 376.8,393.2 
		376.6,393.3 376.4,393.4 376.2,393.6 376,393.7 375.9,393.9 375.7,394.1 375.6,394.2 375.5,394.4 375.3,394.6 375.2,394.8 
		375.1,395 375.1,395.2 375,395.5 375,395.7 374.9,395.9 374.9,396.1 	"/>
</g>
<g id="ID000060">
	<polyline class="st5" points="362.2,7.4 346.8,7.4 346.8,269.7 362.2,269.7 	"/>
</g>
<g id="ID000061">
	<polygon class="st9" points="346.8,142.2 347.1,142.2 347.3,142.2 347.5,142.1 347.8,142.1 348,142 348.2,141.9 348.4,141.8 
		348.6,141.7 348.8,141.6 349,141.5 349.2,141.3 349.3,141.2 349.5,141 349.6,140.9 349.8,140.7 349.9,140.5 350,140.3 350.1,140.1 
		350.2,139.9 350.3,139.6 350.4,139.4 350.4,139.2 350.4,139 350.5,138.8 350.5,138.5 350.5,138.3 350.4,138.1 350.4,137.8 
		350.3,137.6 350.3,137.4 350.2,137.2 350.1,137 350,136.8 349.9,136.6 349.7,136.4 349.6,136.2 349.4,136 349.3,135.9 349.1,135.7 
		348.9,135.6 348.7,135.5 348.5,135.4 348.3,135.3 348.1,135.2 347.9,135.1 347.6,135 347.4,135 347.2,135 347,135 346.7,135 
		346.5,135 346.3,135 346,135 345.8,135.1 345.6,135.2 345.4,135.3 345.2,135.4 345,135.5 344.8,135.6 344.6,135.7 344.4,135.9 
		344.3,136 344.1,136.2 344,136.4 343.8,136.6 343.7,136.8 343.6,137 343.5,137.2 343.4,137.4 343.4,137.6 343.3,137.8 343.3,138.1 
		343.2,138.3 343.2,138.5 343.2,138.8 343.2,139 343.3,139.2 343.3,139.4 343.4,139.6 343.5,139.9 343.5,140.1 343.6,140.3 
		343.8,140.5 343.9,140.7 344,140.9 344.2,141 344.4,141.2 344.5,141.3 344.7,141.5 344.9,141.6 345.1,141.7 345.3,141.8 
		345.5,141.9 345.7,142 345.9,142.1 346.2,142.1 346.4,142.2 346.6,142.2 	"/>
</g>
<g id="ID000062">
	<line class="st6" x1="398.4" y1="305.9" x2="376.7" y2="305.9"/>
</g>
<g id="ID000063">
	<polygon class="st10" points="383.9,305.9 383.9,306.1 384,306.4 384,306.6 384,306.8 384.1,307.1 384.2,307.3 384.3,307.5 
		384.4,307.7 384.5,307.9 384.6,308.1 384.8,308.2 384.9,308.4 385.1,308.6 385.3,308.7 385.5,308.9 385.6,309 385.8,309.1 
		386,309.2 386.3,309.3 386.5,309.4 386.7,309.4 386.9,309.5 387.1,309.5 387.4,309.5 387.6,309.5 387.8,309.5 388.1,309.5 
		388.3,309.5 388.5,309.4 388.7,309.4 389,309.3 389.2,309.2 389.4,309.1 389.5,308.9 389.7,308.8 389.9,308.7 390.1,308.5 
		390.2,308.3 390.4,308.2 390.5,308 390.6,307.8 390.8,307.6 390.9,307.4 391,307.2 391,306.9 391.1,306.7 391.1,306.5 391.1,306.3 
		391.2,306 391.2,305.8 391.1,305.6 391.1,305.4 391.1,305.1 391,304.9 391,304.7 390.9,304.5 390.8,304.3 390.6,304.1 390.5,303.9 
		390.4,303.7 390.2,303.5 390.1,303.4 389.9,303.2 389.7,303 389.5,302.9 389.4,302.8 389.2,302.7 389,302.6 388.7,302.5 
		388.5,302.4 388.3,302.4 388.1,302.4 387.8,302.3 387.6,302.3 387.4,302.3 387.1,302.3 386.9,302.4 386.7,302.4 386.5,302.5 
		386.3,302.5 386,302.6 385.8,302.7 385.6,302.9 385.5,303 385.3,303.1 385.1,303.3 384.9,303.4 384.8,303.6 384.6,303.8 384.5,304 
		384.4,304.2 384.3,304.4 384.2,304.6 384.1,304.8 384,305 384,305.2 384,305.5 383.9,305.7 	"/>
</g>
<g id="ID000064">
	<polyline class="st5" points="362.2,7.4 337.8,7.4 337.8,229 362.2,229 	"/>
</g>
<g id="ID000065">
	<polygon class="st11" points="334.2,109.9 334.2,117.1 341.4,117.1 341.4,109.9 	"/>
</g>
<g id="ID000066">
	<polygon class="st11" points="337.8,126.6 338,126.5 338.3,126.5 338.5,126.5 338.7,126.4 338.9,126.4 339.1,126.3 339.4,126.2 
		339.6,126.1 339.8,126 339.9,125.8 340.1,125.7 340.3,125.6 340.5,125.4 340.6,125.2 340.8,125 340.9,124.8 341,124.6 341.1,124.4 
		341.2,124.2 341.2,124 341.3,123.8 341.4,123.6 341.4,123.3 341.4,123.1 341.4,122.9 341.4,122.7 341.4,122.4 341.3,122.2 
		341.3,122 341.2,121.8 341.1,121.5 341,121.3 340.9,121.1 340.8,120.9 340.7,120.7 340.5,120.6 340.4,120.4 340.2,120.2 340,120.1 
		339.9,119.9 339.7,119.8 339.5,119.7 339.2,119.6 339,119.5 338.8,119.5 338.6,119.4 338.4,119.4 338.1,119.3 337.9,119.3 
		337.7,119.3 337.5,119.3 337.2,119.4 337,119.4 336.8,119.5 336.6,119.5 336.4,119.6 336.1,119.7 335.9,119.8 335.8,119.9 
		335.6,120.1 335.4,120.2 335.2,120.4 335.1,120.6 334.9,120.7 334.8,120.9 334.7,121.1 334.6,121.3 334.5,121.5 334.4,121.8 
		334.3,122 334.3,122.2 334.2,122.4 334.2,122.7 334.2,122.9 334.2,123.1 334.2,123.3 334.2,123.6 334.3,123.8 334.3,124 
		334.4,124.2 334.5,124.4 334.6,124.6 334.7,124.8 334.9,125 335,125.2 335.1,125.4 335.3,125.6 335.5,125.7 335.6,125.8 335.8,126 
		336,126.1 336.2,126.2 336.5,126.3 336.7,126.4 336.9,126.4 337.1,126.5 337.3,126.5 337.6,126.5 	"/>
</g>
<g id="ID000067">
	<polyline class="st5" points="412.9,79.8 419.2,79.8 419.2,256.2 374,256.2 374.6,256.8 	"/>
</g>
<g id="ID000068">
	<polygon class="st9" points="419.2,159.7 419,159.7 418.8,159.7 418.5,159.7 418.3,159.8 418.1,159.8 417.9,159.9 417.6,160 
		417.5,160.1 417.2,160.2 417.1,160.4 416.9,160.5 416.7,160.7 416.5,160.8 416.4,161 416.3,161.2 416.1,161.4 416,161.6 
		415.9,161.8 415.8,162 415.8,162.2 415.7,162.4 415.6,162.6 415.6,162.9 415.6,163.1 415.6,163.3 415.6,163.6 415.6,163.8 
		415.7,164 415.7,164.2 415.8,164.5 415.9,164.7 416,164.9 416.1,165.1 416.2,165.3 416.3,165.5 416.5,165.6 416.6,165.8 416.8,166 
		417,166.1 417.2,166.3 417.4,166.4 417.5,166.5 417.8,166.6 418,166.7 418.2,166.8 418.4,166.8 418.6,166.9 418.9,166.9 
		419.1,166.9 419.3,166.9 419.5,166.9 419.8,166.9 420,166.8 420.2,166.8 420.5,166.7 420.7,166.6 420.9,166.5 421.1,166.4 
		421.3,166.3 421.5,166.1 421.6,166 421.8,165.8 421.9,165.6 422.1,165.5 422.2,165.3 422.3,165.1 422.5,164.9 422.5,164.7 
		422.6,164.5 422.7,164.2 422.8,164 422.8,163.8 422.8,163.6 422.8,163.3 422.8,163.1 422.8,162.9 422.8,162.6 422.7,162.4 
		422.7,162.2 422.6,162 422.5,161.8 422.4,161.6 422.3,161.4 422.2,161.2 422,161 421.9,160.8 421.7,160.7 421.5,160.5 421.4,160.4 
		421.2,160.2 421,160.1 420.8,160 420.5,159.9 420.3,159.8 420.1,159.8 419.9,159.7 419.7,159.7 419.4,159.7 	"/>
</g>
<g id="ID000069">
	<polygon class="st9" points="422.8,176.3 422.8,169.1 415.6,169.1 415.6,176.3 	"/>
</g>
<g id="ID000013-2">
	<text transform="matrix(1 0 0 1 291.01 107.74)" class="st2 st3">20</text>
</g>
<text transform="matrix(1 0 0 1 405.64 266.74)" class="st2 st12">5</text>
<text transform="matrix(1 0 0 1 413.43 266.74)" class="st2 st12">’</text>
<text transform="matrix(1 0 0 1 378.5 387.9)" class="st2 st12">3</text>
<text transform="matrix(1 0 0 1 386.29 387.9)" class="st2 st12">’</text>
<text transform="matrix(1 0 0 1 18.95 23.67)" class="st2 st13">V</text>
<text transform="matrix(1 0 0 1 31.93 23.67)" class="st2 st13">itamin B12 aptamer</text>
<text transform="matrix(0 1 -1 0 382.9297 221.04)" class="st2 st14">V</text>
<text transform="matrix(0 1 -1 0 382.9297 230.08)" class="st2 st14">itamin B12</text>
</svg>
