<svg id="图层_1" data-name="图层 1" xmlns="http://www.w3.org/2000/svg" viewBox="0 0 400 400"><defs><style>.cls-1,.cls-2,.cls-3,.cls-4,.cls-5,.cls-6{isolation:isolate;}.cls-1,.cls-2,.cls-3,.cls-4,.cls-5{font-size:24px;}.cls-1{fill:#ff870a;}.cls-1,.cls-10,.cls-2,.cls-3,.cls-4,.cls-5,.cls-6,.cls-8{font-family:ArialMT, Arial;}.cls-2,.cls-5{fill:#32cd32;}.cls-3,.cls-4{fill:#228b22;}.cls-4,.cls-5{letter-spacing:-0.06em;}.cls-6{font-size:17px;}.cls-7{fill:none;stroke:#000;stroke-miterlimit:10;stroke-width:0.07px;}.cls-8{font-size:16px;}.cls-9{letter-spacing:-0.04em;}.cls-10{font-size:20px;}</style></defs><text class="cls-1" transform="translate(216.6 302.68)">C</text><text class="cls-1" transform="translate(218.62 282.07)">G</text><text class="cls-2" transform="translate(204.35 261.44)">U</text><text class="cls-2" transform="translate(190.69 239.77)">C</text><text class="cls-2" transform="translate(177.89 216.81)">C</text><text class="cls-2" transform="translate(166.85 192.75)">C</text><text class="cls-2" transform="translate(154.04 173.96)">U</text><text class="cls-2" transform="translate(141.15 154.69)">U</text><text class="cls-3" transform="translate(120.88 137.84)">C</text><text class="cls-3" transform="translate(96.82 143.68)">G</text><text class="cls-3" transform="translate(77.93 142.94)">C</text><text class="cls-4" transform="translate(56.67 132.37)">A</text><text class="cls-4" transform="translate(42.56 113.74)">A</text><text class="cls-3" transform="translate(38 90.88)">C</text><text class="cls-3" transform="translate(44.17 68.36)">C</text><text class="cls-3" transform="translate(59.43 50.97)">C</text><text class="cls-3" transform="translate(79.71 40.53)">U</text><text class="cls-3" transform="translate(103.09 40.82)">U</text><text class="cls-3" transform="translate(123.83 51.47)">U</text><text class="cls-4" transform="translate(135.45 67.17)">A</text><text class="cls-4" transform="translate(144.16 88.16)">A</text><text class="cls-3" transform="translate(142.5 109.45)">G</text><text class="cls-5" transform="translate(160.16 121.77)">A</text><text class="cls-2" transform="translate(180.81 123.28)">C</text><text class="cls-2" transform="translate(200.09 133.68)">U</text><text class="cls-2" transform="translate(206.6 155.93)">U</text><text class="cls-2" transform="translate(198.2 178.89)">G</text><text class="cls-2" transform="translate(207.46 200.74)">G</text><text class="cls-2" transform="translate(219.46 222.05)">G</text><text class="cls-5" transform="translate(233.32 242.66)">A</text><text class="cls-1" transform="translate(247.97 262.6)">C</text><text class="cls-1" transform="translate(269.7 257.15)">C</text><text class="cls-1" transform="translate(292.14 263.25)">C</text><text class="cls-1" transform="translate(309.64 278.45)">U</text><text class="cls-1" transform="translate(318.79 299.87)">G</text><text class="cls-1" transform="translate(318.26 323.2)">C</text><text class="cls-1" transform="translate(306.32 343.41)">U</text><text class="cls-1" transform="translate(288.25 357.28)">C</text><text class="cls-1" transform="translate(265.06 362.3)">U</text><text class="cls-1" transform="translate(242.48 356.4)">U</text><text class="cls-6" transform="translate(97.09 158.77)">10</text><text class="cls-6" transform="translate(149.18 58.49)">20</text><text class="cls-6" transform="translate(245.7 231.67)">30</text><text class="cls-6" transform="translate(242.07 371.39)">40</text><g id="ID000017"><line class="cls-7" x1="135.02" y1="122.1" x2="146.69" y2="107.42"/></g><g id="ID000017-2" data-name="ID000017"><line class="cls-7" x1="149.18" y1="137.35" x2="166.72" y2="121.96"/></g><g id="ID000017-3" data-name="ID000017"><line class="cls-7" x1="183.62" y1="182.39" x2="200.08" y2="173.39"/></g><g id="ID000017-4" data-name="ID000017"><line class="cls-7" x1="192.85" y1="206.07" x2="209.31" y2="197.08"/></g><g id="ID000017-5" data-name="ID000017"><line class="cls-7" x1="205.13" y1="228.97" x2="221.58" y2="219.97"/></g><g id="ID000017-6" data-name="ID000017"><line class="cls-7" x1="219.73" y1="249.62" x2="236.19" y2="240.62"/></g><g id="ID000017-7" data-name="ID000017"><line class="cls-7" x1="236.15" y1="268.03" x2="252.6" y2="259.04"/></g><text class="cls-8" transform="translate(204.91 297.39)">5<tspan class="cls-9" x="8.9" y="0">’</tspan></text><text class="cls-8" transform="translate(230.95 345.11)">3<tspan class="cls-9" x="8.9" y="0">’</tspan></text><text class="cls-10" transform="translate(231.62 120.37)">W2 aptamer</text></svg>