<?xml version="1.0" encoding="utf-8"?>
<!-- Generator: Adobe Illustrator 25.2.0, SVG Export Plug-In . SVG Version: 6.00 Build 0)  -->
<svg version="1.1" id="图层_1" xmlns="http://www.w3.org/2000/svg" xmlns:xlink="http://www.w3.org/1999/xlink" x="0px" y="0px"
	 viewBox="0 0 800 400" style="enable-background:new 0 0 800 400;" xml:space="preserve">
<style type="text/css">
	.st0{fill:#FF7F0E;}
	.st1{font-family:'ArialMT';}
	.st2{font-size:17.8931px;}
	.st3{fill:#17BECF;}
	.st4{fill:none;stroke:#000000;stroke-width:0.1298;stroke-miterlimit:1.0381;}
	.st5{fill:#2CA02C;}
	.st6{fill:#D62728;}
	.st7{fill:#9467BD;}
	.st8{stroke:#000000;stroke-width:0.1298;stroke-miterlimit:1.0381;}
	.st9{fill:#8C564B;}
	.st10{fill:none;stroke:#000000;stroke-width:1.0122;stroke-miterlimit:1.0381;}
	.st11{fill:#E377C2;}
	.st12{font-size:20px;}
</style>
<g id="ID000002">
	<g transform="translate(446.483,380.211)">
		<g transform="rotate(-0.0)">
			<text transform="matrix(1 0 0 1 -213.0289 -190.0615)" class="st0 st1 st2">G</text>
		</g>
	</g>
</g>
<g id="ID000003">
	<g transform="translate(414.323,380.211)">
		<g transform="rotate(-0.0)">
			<text transform="matrix(1 0 0 1 -198.8533 -190.0615)" class="st0 st1 st2">G</text>
		</g>
	</g>
</g>
<g id="ID000004">
	<g transform="translate(398.243,460.610)">
		<g transform="rotate(-0.0)">
			<text transform="matrix(1 0 0 1 -190.7728 -225.5025)" class="st3 st1 st2">A</text>
		</g>
	</g>
</g>
<g id="ID000005">
	<g transform="translate(414.323,444.531)">
		<g transform="rotate(-0.0)">
			<text transform="matrix(1 0 0 1 -198.3543 -218.4147)" class="st0 st1 st2">C</text>
		</g>
	</g>
</g>
<g id="ID000006">
	<g transform="translate(446.483,444.531)">
		<g transform="rotate(-0.0)">
			<text transform="matrix(1 0 0 1 -212.5299 -218.4147)" class="st0 st1 st2">C</text>
		</g>
	</g>
</g>
<g id="ID000007">
	<g transform="translate(478.642,452.570)">
		<g transform="rotate(-0.0)">
			<text transform="matrix(1 0 0 1 -227.2055 -221.9596)" class="st3 st1 st2">G</text>
		</g>
	</g>
</g>
<g id="ID000008">
	<g transform="translate(510.802,468.650)">
		<g transform="rotate(-0.0)">
			<text transform="matrix(1 0 0 1 -240.8865 -229.0464)" class="st3 st1 st2">U</text>
		</g>
	</g>
</g>
<g id="ID000009">
	<line class="st4" x1="240.4" y1="189.2" x2="240.4" y2="210.8"/>
</g>
<g id="ID000010">
	<line class="st4" x1="222.4" y1="189.2" x2="222.4" y2="210.8"/>
</g>
<g id="ID000012">
	<g transform="translate(374.124,380.211)">
		<g transform="rotate(-0.0)">
			<text transform="matrix(1 0 0 1 -181.1304 -190.0615)" class="st5 st1 st2">G</text>
		</g>
	</g>
</g>
<g id="ID000013">
	<g transform="translate(341.964,380.211)">
		<g transform="rotate(-0.0)">
			<text transform="matrix(1 0 0 1 -165.9606 -190.0615)" class="st5 st1 st2">A</text>
		</g>
	</g>
</g>
<g id="ID000014">
	<g transform="translate(309.804,380.211)">
		<g transform="rotate(-0.0)">
			<text transform="matrix(1 0 0 1 -152.7767 -190.0615)" class="st5 st1 st2">G</text>
		</g>
	</g>
</g>
<g id="ID000015">
	<g transform="translate(285.685,364.131)">
		<g transform="rotate(-0.0)">
			<text transform="matrix(1 0 0 1 -142.1425 -182.9708)" class="st3 st1 st2">G</text>
		</g>
	</g>
</g>
<g id="ID000016">
	<g transform="translate(261.565,340.012)">
		<g transform="rotate(-0.0)">
			<text transform="matrix(1 0 0 1 -130.5177 -172.3381)" class="st3 st1 st2">A</text>
		</g>
	</g>
</g>
<g id="ID000017">
	<g transform="translate(277.645,460.610)">
		<g transform="rotate(-0.0)">
			<text transform="matrix(1 0 0 1 -137.6084 -225.5025)" class="st3 st1 st2">A</text>
		</g>
	</g>
</g>
<g id="ID000018">
	<line class="st4" x1="146" y1="239" x2="146" y2="251"/>
</g>
<g id="ID000019">
	<g transform="translate(277.645,526.966)">
		<g transform="rotate(-0.0)">
			<text transform="matrix(1 0 0 1 -141.5913 -254.755)" class="st1 st2">20</text>
		</g>
	</g>
</g>
<g id="ID000020">
	<g transform="translate(309.804,444.531)">
		<g transform="rotate(-0.0)">
			<text transform="matrix(1 0 0 1 -152.2781 -218.4147)" class="st5 st1 st2">C</text>
		</g>
	</g>
</g>
<g id="ID000021">
	<g transform="translate(341.964,444.531)">
		<g transform="rotate(-0.0)">
			<text transform="matrix(1 0 0 1 -166.4557 -218.4147)" class="st5 st1 st2">U</text>
		</g>
	</g>
</g>
<g id="ID000022">
	<g transform="translate(374.124,444.531)">
		<g transform="rotate(-0.0)">
			<text transform="matrix(1 0 0 1 -180.6313 -218.4147)" class="st5 st1 st2">C</text>
		</g>
	</g>
</g>
<g id="ID000023">
	<line class="st4" x1="200" y1="189.2" x2="200" y2="210.8"/>
</g>
<g id="ID000024">
	<line class="st4" x1="182" y1="189.2" x2="182" y2="210.8"/>
</g>
<g id="ID000025">
	<line class="st4" x1="164" y1="189.2" x2="164" y2="210.8"/>
</g>
<g id="ID000027">
	<g transform="translate(229.405,364.131)">
		<g transform="rotate(-0.0)">
			<text transform="matrix(1 0 0 1 -116.8347 -182.9708)" class="st3 st1 st2">C</text>
		</g>
	</g>
</g>
<g id="ID000028">
	<g transform="translate(205.286,380.211)">
		<g transform="rotate(-0.0)">
			<text transform="matrix(1 0 0 1 -106.6996 -190.0615)" class="st6 st1 st2">G</text>
		</g>
	</g>
</g>
<g id="ID000029">
	<g transform="translate(173.126,380.211)">
		<g transform="rotate(-0.0)">
			<text transform="matrix(1 0 0 1 -91.5323 -190.0615)" class="st6 st1 st2">A</text>
		</g>
	</g>
</g>
<g id="ID000030">
	<line class="st4" x1="87.6" y1="170" x2="87.6" y2="158.1"/>
</g>
<g id="ID000031">
	<g transform="translate(173.126,314.820)">
		<g transform="rotate(-0.0)">
			<text transform="matrix(1 0 0 1 -95.5147 -161.2321)" class="st1 st2">10</text>
		</g>
	</g>
</g>
<g id="ID000032">
	<g transform="translate(140.966,380.211)">
		<g transform="rotate(-0.0)">
			<text transform="matrix(1 0 0 1 -77.8474 -190.0615)" class="st6 st1 st2">U</text>
		</g>
	</g>
</g>
<g id="ID000033">
	<g transform="translate(108.807,380.211)">
		<g transform="rotate(-0.0)">
			<text transform="matrix(1 0 0 1 -64.1674 -190.0615)" class="st3 st1 st2">G</text>
		</g>
	</g>
</g>
<g id="ID000034">
	<g transform="translate(76.647,388.251)">
		<g transform="rotate(-0.0)">
			<text transform="matrix(1 0 0 1 -49.4908 -193.6035)" class="st3 st1 st2">C</text>
		</g>
	</g>
</g>
<g id="ID000035">
	<g transform="translate(76.647,428.451)">
		<g transform="rotate(-0.0)">
			<text transform="matrix(1 0 0 1 -49.9898 -211.3279)" class="st3 st1 st2">G</text>
		</g>
	</g>
</g>
<g id="ID000036">
	<g transform="translate(108.807,444.531)">
		<g transform="rotate(-0.0)">
			<text transform="matrix(1 0 0 1 -64.1674 -218.4147)" class="st3 st1 st2">G</text>
		</g>
	</g>
</g>
<g id="ID000037">
	<g transform="translate(140.966,444.531)">
		<g transform="rotate(-0.0)">
			<text transform="matrix(1 0 0 1 -77.3523 -218.4147)" class="st6 st1 st2">A</text>
		</g>
	</g>
</g>
<g id="ID000038">
	<g transform="translate(173.126,444.531)">
		<g transform="rotate(-0.0)">
			<text transform="matrix(1 0 0 1 -92.025 -218.4147)" class="st6 st1 st2">U</text>
		</g>
	</g>
</g>
<g id="ID000039">
	<g transform="translate(205.286,444.531)">
		<g transform="rotate(-0.0)">
			<text transform="matrix(1 0 0 1 -106.2006 -218.4147)" class="st6 st1 st2">C</text>
		</g>
	</g>
</g>
<g id="ID000040">
	<g transform="translate(237.445,460.610)">
		<g transform="rotate(-0.0)">
			<text transform="matrix(1 0 0 1 -119.8845 -225.5025)" class="st3 st1 st2">A</text>
		</g>
	</g>
</g>
<g id="ID000041">
	<line class="st4" x1="105.6" y1="189.2" x2="105.6" y2="210.8"/>
</g>
<g id="ID000042">
	<line class="st4" x1="87.6" y1="189.2" x2="87.6" y2="210.8"/>
</g>
<g id="ID000043">
	<line class="st4" x1="69.6" y1="189.2" x2="69.6" y2="210.8"/>
</g>
<g id="ID000045">
	<g transform="translate(542.962,452.570)">
		<g transform="rotate(-0.0)">
			<text transform="matrix(1 0 0 1 -254.5714 -221.9596)" class="st3 st1 st2">A</text>
		</g>
	</g>
</g>
<g id="ID000046">
	<g transform="translate(575.121,444.531)">
		<g transform="rotate(-0.0)">
			<text transform="matrix(1 0 0 1 -269.7377 -218.4147)" class="st7 st1 st2">G</text>
		</g>
	</g>
</g>
<g id="ID000047">
	<line class="st4" x1="312.3" y1="230" x2="312.3" y2="242"/>
</g>
<g id="ID000048">
	<g transform="translate(575.121,510.887)">
		<g transform="rotate(-0.0)">
			<text transform="matrix(1 0 0 1 -272.7328 -247.6672)" class="st1 st2">30</text>
		</g>
	</g>
</g>
<g id="ID000049">
	<g transform="translate(607.281,444.531)">
		<g transform="rotate(-0.0)">
			<text transform="matrix(1 0 0 1 -283.9173 -218.4147)" class="st7 st1 st2">G</text>
		</g>
	</g>
</g>
<g id="ID000050">
	<g transform="translate(639.441,444.531)">
		<g transform="rotate(-0.0)">
			<text transform="matrix(1 0 0 1 -297.5963 -218.4147)" class="st7 st1 st2">U</text>
		</g>
	</g>
</g>
<g id="ID000051">
	<g transform="translate(671.600,444.531)">
		<g transform="rotate(-0.0)">
			<text transform="matrix(1 0 0 1 -311.7724 -218.4147)" class="st7 st1 st2">C</text>
		</g>
	</g>
</g>
<g id="ID000052">
	<g transform="translate(703.760,444.531)">
		<g transform="rotate(-0.0)">
			<text transform="matrix(1 0 0 1 -325.9509 -218.4147)" class="st7 st1 st2">U</text>
		</g>
	</g>
</g>
<g id="ID000053">
	<g transform="translate(719.840,348.052)">
		<g transform="rotate(-0.0)">
			<text transform="matrix(1 0 0 1 -332.5466 -175.883)" class="st3 st1 st2">A</text>
		</g>
	</g>
</g>
<g id="ID000054">
	<line class="st4" x1="393.3" y1="152.1" x2="393.3" y2="140.1"/>
</g>
<g id="ID000055">
	<g transform="translate(719.840,282.660)">
		<g transform="rotate(-0.0)">
			<text transform="matrix(1 0 0 1 -336.5291 -147.0564)" class="st1 st2">70</text>
		</g>
	</g>
</g>
<g id="ID000056">
	<g transform="translate(703.760,380.211)">
		<g transform="rotate(-0.0)">
			<text transform="matrix(1 0 0 1 -326.4471 -190.0615)" class="st7 st1 st2">G</text>
		</g>
	</g>
</g>
<g id="ID000057">
	<g transform="translate(671.600,380.211)">
		<g transform="rotate(-0.0)">
			<text transform="matrix(1 0 0 1 -312.2694 -190.0615)" class="st7 st1 st2">G</text>
		</g>
	</g>
</g>
<g id="ID000058">
	<g transform="translate(639.441,380.211)">
		<g transform="rotate(-0.0)">
			<text transform="matrix(1 0 0 1 -297.1012 -190.0615)" class="st7 st1 st2">A</text>
		</g>
	</g>
</g>
<g id="ID000059">
	<g transform="translate(607.281,380.211)">
		<g transform="rotate(-0.0)">
			<text transform="matrix(1 0 0 1 -283.4182 -190.0615)" class="st7 st1 st2">U</text>
		</g>
	</g>
</g>
<g id="ID000060">
	<g transform="translate(575.121,380.211)">
		<g transform="rotate(-0.0)">
			<text transform="matrix(1 0 0 1 -269.2406 -190.0615)" class="st7 st1 st2">C</text>
		</g>
	</g>
</g>
<g id="ID000061">
	<g transform="translate(542.962,364.131)">
		<g transform="rotate(-0.0)">
			<text transform="matrix(1 0 0 1 -255.064 -182.9708)" class="st3 st1 st2">C</text>
		</g>
	</g>
</g>
<g id="ID000062">
	<line class="st4" x1="312.3" y1="210.8" x2="312.3" y2="189.2"/>
</g>
<g id="ID000063">
	<polygon class="st8" points="330.3,196.4 330.1,196.4 329.9,196.4 329.7,196.5 329.4,196.5 329.2,196.6 329,196.7 328.8,196.8 
		328.6,196.9 328.4,197 328.2,197.1 328,197.3 327.8,197.4 327.7,197.6 327.5,197.7 327.4,197.9 327.3,198.1 327.2,198.3 
		327.1,198.5 327,198.7 326.9,198.9 326.8,199.2 326.8,199.4 326.8,199.6 326.7,199.8 326.7,200.1 326.7,200.3 326.8,200.5 
		326.8,200.7 326.9,201 326.9,201.2 327,201.4 327.1,201.6 327.2,201.8 327.3,202 327.5,202.2 327.6,202.4 327.8,202.5 327.9,202.7 
		328.1,202.8 328.3,203 328.5,203.1 328.7,203.2 328.9,203.3 329.1,203.4 329.3,203.5 329.5,203.5 329.8,203.6 330,203.6 
		330.2,203.6 330.4,203.6 330.7,203.6 330.9,203.6 331.1,203.5 331.3,203.5 331.6,203.4 331.8,203.3 332,203.2 332.2,203.1 
		332.4,203 332.6,202.8 332.7,202.7 332.9,202.5 333,202.4 333.2,202.2 333.3,202 333.4,201.8 333.6,201.6 333.6,201.4 333.7,201.2 
		333.8,201 333.9,200.7 333.9,200.5 333.9,200.3 333.9,200.1 333.9,199.8 333.9,199.6 333.9,199.4 333.8,199.2 333.8,198.9 
		333.7,198.7 333.6,198.5 333.5,198.3 333.4,198.1 333.3,197.9 333.1,197.7 333,197.6 332.8,197.4 332.6,197.3 332.5,197.1 
		332.3,197 332.1,196.9 331.9,196.8 331.7,196.7 331.5,196.6 331.2,196.5 331,196.5 330.8,196.4 330.6,196.4 	"/>
</g>
<g id="ID000064">
	<line class="st4" x1="348.3" y1="210.8" x2="348.3" y2="189.2"/>
</g>
<g id="ID000065">
	<line class="st4" x1="366.3" y1="210.8" x2="366.3" y2="189.2"/>
</g>
<g id="ID000066">
	<polygon class="st8" points="384.3,196.4 384,196.4 383.8,196.4 383.6,196.5 383.4,196.5 383.2,196.6 382.9,196.7 382.7,196.8 
		382.5,196.9 382.3,197 382.1,197.1 382,197.3 381.8,197.4 381.6,197.6 381.5,197.7 381.3,197.9 381.2,198.1 381.1,198.3 381,198.5 
		380.9,198.7 380.8,198.9 380.8,199.2 380.7,199.4 380.7,199.6 380.7,199.8 380.7,200.1 380.7,200.3 380.7,200.5 380.8,200.7 
		380.8,201 380.9,201.2 381,201.4 381.1,201.6 381.2,201.8 381.3,202 381.4,202.2 381.6,202.4 381.7,202.5 381.9,202.7 382.1,202.8 
		382.2,203 382.4,203.1 382.6,203.2 382.8,203.3 383,203.4 383.3,203.5 383.5,203.5 383.7,203.6 383.9,203.6 384.2,203.6 
		384.4,203.6 384.6,203.6 384.8,203.6 385.1,203.5 385.3,203.5 385.5,203.4 385.7,203.3 385.9,203.2 386.1,203.1 386.3,203 
		386.5,202.8 386.7,202.7 386.8,202.5 387,202.4 387.1,202.2 387.3,202 387.4,201.8 387.5,201.6 387.6,201.4 387.7,201.2 387.7,201 
		387.8,200.7 387.8,200.5 387.9,200.3 387.9,200.1 387.9,199.8 387.9,199.6 387.8,199.4 387.8,199.2 387.7,198.9 387.6,198.7 
		387.5,198.5 387.4,198.3 387.3,198.1 387.2,197.9 387.1,197.7 386.9,197.6 386.8,197.4 386.6,197.3 386.4,197.1 386.2,197 
		386,196.9 385.8,196.8 385.6,196.7 385.4,196.6 385.2,196.5 385,196.5 384.7,196.4 384.5,196.4 	"/>
</g>
<g id="ID000068">
	<g transform="translate(768.079,444.531)">
		<g transform="rotate(-0.0)">
			<text transform="matrix(1 0 0 1 -353.8119 -218.4147)" class="st9 st1 st2">A</text>
		</g>
	</g>
</g>
<g id="ID000069">
	<g transform="translate(800.239,444.531)">
		<g transform="rotate(-0.0)">
			<text transform="matrix(1 0 0 1 -368.9798 -218.4147)" class="st9 st1 st2">G</text>
		</g>
	</g>
</g>
<g id="ID000070">
	<g transform="translate(832.398,444.531)">
		<g transform="rotate(-0.0)">
			<text transform="matrix(1 0 0 1 -382.6593 -218.4147)" class="st9 st1 st2">U</text>
		</g>
	</g>
</g>
<g id="ID000071">
	<g transform="translate(864.558,444.531)">
		<g transform="rotate(-0.0)">
			<text transform="matrix(1 0 0 1 -397.3339 -218.4147)" class="st9 st1 st2">G</text>
		</g>
	</g>
</g>
<g id="ID000072">
	<g transform="translate(896.718,444.531)">
		<g transform="rotate(-0.0)">
			<text transform="matrix(1 0 0 1 -410.5193 -218.4147)" class="st9 st1 st2">A</text>
		</g>
	</g>
</g>
<g id="ID000073">
	<g transform="translate(928.877,444.531)">
		<g transform="rotate(-0.0)">
			<text transform="matrix(1 0 0 1 -425.69 -218.4147)" class="st9 st1 st2">G</text>
		</g>
	</g>
</g>
<g id="ID000074">
	<line class="st4" x1="510.2" y1="230" x2="510.2" y2="242"/>
</g>
<g id="ID000075">
	<g transform="translate(928.877,510.887)">
		<g transform="rotate(-0.0)">
			<text transform="matrix(1 0 0 1 -428.6812 -247.6672)" class="st1 st2">40</text>
		</g>
	</g>
</g>
<g id="ID000076">
	<g transform="translate(961.037,452.570)">
		<g transform="rotate(-0.0)">
			<text transform="matrix(1 0 0 1 -438.8764 -221.9596)" class="st3 st1 st2">A</text>
		</g>
	</g>
</g>
<g id="ID000077">
	<g transform="translate(993.196,468.650)">
		<g transform="rotate(-0.0)">
			<text transform="matrix(1 0 0 1 -453.053 -229.0464)" class="st3 st1 st2">A</text>
		</g>
	</g>
</g>
<g id="ID000078">
	<g transform="translate(1025.356,484.730)">
		<g transform="rotate(-0.0)">
			<text transform="matrix(1 0 0 1 -467.7227 -236.1352)" class="st3 st1 st2">C</text>
		</g>
	</g>
</g>
<g id="ID000079">
	<g transform="translate(928.877,380.211)">
		<g transform="rotate(-0.0)">
			<text transform="matrix(1 0 0 1 -425.191 -190.0615)" class="st9 st1 st2">C</text>
		</g>
	</g>
</g>
<g id="ID000080">
	<g transform="translate(896.718,380.211)">
		<g transform="rotate(-0.0)">
			<text transform="matrix(1 0 0 1 -411.0144 -190.0615)" class="st9 st1 st2">U</text>
		</g>
	</g>
</g>
<g id="ID000081">
	<g transform="translate(864.558,380.211)">
		<g transform="rotate(-0.0)">
			<text transform="matrix(1 0 0 1 -396.8369 -190.0615)" class="st9 st1 st2">C</text>
		</g>
	</g>
</g>
<g id="ID000082">
	<g transform="translate(832.398,380.211)">
		<g transform="rotate(-0.0)">
			<text transform="matrix(1 0 0 1 -383.1583 -190.0615)" class="st9 st1 st2">G</text>
		</g>
	</g>
</g>
<g id="ID000083">
	<g transform="translate(800.239,380.211)">
		<g transform="rotate(-0.0)">
			<text transform="matrix(1 0 0 1 -368.4827 -190.0615)" class="st9 st1 st2">C</text>
		</g>
	</g>
</g>
<g id="ID000084">
	<g transform="translate(768.079,380.211)">
		<g transform="rotate(-0.0)">
			<text transform="matrix(1 0 0 1 -354.3031 -190.0615)" class="st9 st1 st2">U</text>
		</g>
	</g>
</g>
<g id="ID000085">
	<g transform="translate(751.999,348.052)">
		<g transform="rotate(-0.0)">
			<text transform="matrix(1 0 0 1 -347.7144 -175.883)" class="st3 st1 st2">G</text>
		</g>
	</g>
</g>
<g id="ID000086">
	<line class="st4" x1="420.2" y1="210.8" x2="420.2" y2="189.2"/>
</g>
<g id="ID000087">
	<line class="st4" x1="438.2" y1="210.8" x2="438.2" y2="189.2"/>
</g>
<g id="ID000088">
	<polygon class="st8" points="456.2,196.4 456,196.4 455.8,196.4 455.5,196.5 455.3,196.5 455.1,196.6 454.9,196.7 454.7,196.8 
		454.5,196.9 454.3,197 454.1,197.1 453.9,197.3 453.7,197.4 453.6,197.6 453.4,197.7 453.3,197.9 453.2,198.1 453,198.3 
		452.9,198.5 452.8,198.7 452.8,198.9 452.7,199.2 452.7,199.4 452.6,199.6 452.6,199.8 452.6,200.1 452.6,200.3 452.6,200.5 
		452.7,200.7 452.7,201 452.8,201.2 452.9,201.4 453,201.6 453.1,201.8 453.2,202 453.3,202.2 453.5,202.4 453.6,202.5 453.8,202.7 
		454,202.8 454.2,203 454.4,203.1 454.6,203.2 454.8,203.3 455,203.4 455.2,203.5 455.4,203.5 455.6,203.6 455.9,203.6 456.1,203.6 
		456.3,203.6 456.5,203.6 456.8,203.6 457,203.5 457.2,203.5 457.4,203.4 457.6,203.3 457.9,203.2 458.1,203.1 458.2,203 
		458.4,202.8 458.6,202.7 458.8,202.5 458.9,202.4 459.1,202.2 459.2,202 459.3,201.8 459.4,201.6 459.5,201.4 459.6,201.2 
		459.7,201 459.7,200.7 459.8,200.5 459.8,200.3 459.8,200.1 459.8,199.8 459.8,199.6 459.7,199.4 459.7,199.2 459.6,198.9 
		459.6,198.7 459.5,198.5 459.4,198.3 459.3,198.1 459.1,197.9 459,197.7 458.8,197.6 458.7,197.4 458.5,197.3 458.3,197.1 
		458.2,197 458,196.9 457.8,196.8 457.5,196.7 457.3,196.6 457.1,196.5 456.9,196.5 456.7,196.4 456.4,196.4 	"/>
</g>
<g id="ID000089">
	<line class="st4" x1="474.2" y1="210.8" x2="474.2" y2="189.2"/>
</g>
<g id="ID000090">
	<line class="st4" x1="492.2" y1="210.8" x2="492.2" y2="189.2"/>
</g>
<g id="ID000091">
	<line class="st4" x1="510.2" y1="210.8" x2="510.2" y2="189.2"/>
</g>
<g id="ID000092">
	<line class="st10" x1="624.3" y1="182" x2="517.3" y2="182"/>
</g>
<g id="ID000093">
	<polygon class="st8" points="576.8,187.4 573.8,184.7 570.8,183.8 567.8,183.4 561.9,182 567.8,180.7 570.8,180.2 573.8,179.3 
		576.8,176.6 	"/>
</g>
<g id="ID000095">
	<g transform="translate(1057.516,484.730)">
		<g transform="rotate(-0.0)">
			<text transform="matrix(1 0 0 1 -481.9013 -236.1352)" class="st3 st1 st2">U</text>
		</g>
	</g>
</g>
<g id="ID000096">
	<g transform="translate(1089.675,468.650)">
		<g transform="rotate(-0.0)">
			<text transform="matrix(1 0 0 1 -496.0779 -229.0464)" class="st3 st1 st2">U</text>
		</g>
	</g>
</g>
<g id="ID000097">
	<g transform="translate(1121.835,460.610)">
		<g transform="rotate(-0.0)">
			<text transform="matrix(1 0 0 1 -510.2554 -225.5025)" class="st3 st1 st2">C</text>
		</g>
	</g>
</g>
<g id="ID000098">
	<g transform="translate(1145.955,444.531)">
		<g transform="rotate(-0.0)">
			<text transform="matrix(1 0 0 1 -520.3939 -218.4147)" class="st11 st1 st2">A</text>
		</g>
	</g>
</g>
<g id="ID000099">
	<g transform="translate(1178.114,444.531)">
		<g transform="rotate(-0.0)">
			<text transform="matrix(1 0 0 1 -534.5726 -218.4147)" class="st11 st1 st2">A</text>
		</g>
	</g>
</g>
<g id="ID000100">
	<g transform="translate(1210.274,444.531)">
		<g transform="rotate(-0.0)">
			<text transform="matrix(1 0 0 1 -549.7394 -218.4147)" class="st11 st1 st2">G</text>
		</g>
	</g>
</g>
<g id="ID000101">
	<g transform="translate(1242.433,444.531)">
		<g transform="rotate(-0.0)">
			<text transform="matrix(1 0 0 1 -563.4199 -218.4147)" class="st11 st1 st2">U</text>
		</g>
	</g>
</g>
<g id="ID000102">
	<line class="st4" x1="685.5" y1="230" x2="685.5" y2="242"/>
</g>
<g id="ID000103">
	<g transform="translate(1242.433,510.887)">
		<g transform="rotate(-0.0)">
			<text transform="matrix(1 0 0 1 -566.911 -247.6672)" class="st1 st2">50</text>
		</g>
	</g>
</g>
<g id="ID000104">
	<g transform="translate(1274.593,444.531)">
		<g transform="rotate(-0.0)">
			<text transform="matrix(1 0 0 1 -577.5974 -218.4147)" class="st11 st1 st2">C</text>
		</g>
	</g>
</g>
<g id="ID000105">
	<g transform="translate(1306.753,444.531)">
		<g transform="rotate(-0.0)">
			<text transform="matrix(1 0 0 1 -591.775 -218.4147)" class="st11 st1 st2">U</text>
		</g>
	</g>
</g>
<g id="ID000106">
	<g transform="translate(1338.912,444.531)">
		<g transform="rotate(-0.0)">
			<text transform="matrix(1 0 0 1 -605.4564 -218.4147)" class="st3 st1 st2">A</text>
		</g>
	</g>
</g>
<g id="ID000107">
	<g transform="translate(1371.072,428.451)">
		<g transform="rotate(-0.0)">
			<text transform="matrix(1 0 0 1 -620.1292 -211.3279)" class="st3 st1 st2">C</text>
		</g>
	</g>
</g>
<g id="ID000108">
	<g transform="translate(1371.072,396.291)">
		<g transform="rotate(-0.0)">
			<text transform="matrix(1 0 0 1 -620.1292 -197.1484)" class="st3 st1 st2">U</text>
		</g>
	</g>
</g>
<g id="ID000109">
	<g transform="translate(1338.912,380.211)">
		<g transform="rotate(-0.0)">
			<text transform="matrix(1 0 0 1 -605.9517 -190.0615)" class="st3 st1 st2">C</text>
		</g>
	</g>
</g>
<g id="ID000110">
	<g transform="translate(1306.753,380.211)">
		<g transform="rotate(-0.0)">
			<text transform="matrix(1 0 0 1 -591.2819 -190.0615)" class="st11 st1 st2">A</text>
		</g>
	</g>
</g>
<g id="ID000111">
	<g transform="translate(1274.593,380.211)">
		<g transform="rotate(-0.0)">
			<text transform="matrix(1 0 0 1 -578.0966 -190.0615)" class="st11 st1 st2">G</text>
		</g>
	</g>
</g>
<g id="ID000112">
	<g transform="translate(1242.433,380.211)">
		<g transform="rotate(-0.0)">
			<text transform="matrix(1 0 0 1 -562.9247 -190.0615)" class="st11 st1 st2">A</text>
		</g>
	</g>
</g>
<g id="ID000113">
	<g transform="translate(1210.274,380.211)">
		<g transform="rotate(-0.0)">
			<text transform="matrix(1 0 0 1 -549.2404 -190.0615)" class="st11 st1 st2">C</text>
		</g>
	</g>
</g>
<g id="ID000114">
	<line class="st4" x1="667.5" y1="170" x2="667.5" y2="158.1"/>
</g>
<g id="ID000115">
	<g transform="translate(1210.274,314.820)">
		<g transform="rotate(-0.0)">
			<text transform="matrix(1 0 0 1 -552.7327 -161.2321)" class="st1 st2">60</text>
		</g>
	</g>
</g>
<g id="ID000116">
	<g transform="translate(1178.114,380.211)">
		<g transform="rotate(-0.0)">
			<text transform="matrix(1 0 0 1 -535.5637 -190.0615)" class="st11 st1 st2">G</text>
		</g>
	</g>
</g>
<g id="ID000117">
	<g transform="translate(1145.955,380.211)">
		<g transform="rotate(-0.0)">
			<text transform="matrix(1 0 0 1 -520.3939 -190.0615)" class="st11 st1 st2">A</text>
		</g>
	</g>
</g>
<g id="ID000118">
	<line class="st4" x1="631.5" y1="210.8" x2="631.5" y2="189.2"/>
</g>
<g id="ID000119">
	<line class="st4" x1="649.5" y1="210.8" x2="649.5" y2="189.2"/>
</g>
<g id="ID000120">
	<line class="st4" x1="667.5" y1="210.8" x2="667.5" y2="189.2"/>
</g>
<g id="ID000121">
	<line class="st4" x1="685.5" y1="210.8" x2="685.5" y2="189.2"/>
</g>
<g id="ID000122">
	<line class="st4" x1="703.5" y1="210.8" x2="703.5" y2="189.2"/>
</g>
<g id="ID000123">
	<line class="st4" x1="721.4" y1="210.8" x2="721.4" y2="189.2"/>
</g>
<g id="ID000125">
	<line class="st10" x1="391.5" y1="218" x2="413" y2="218"/>
</g>
<g id="ID000126">
	<polygon class="st8" points="396.3,212.6 399.3,215.3 402.3,216.2 405.3,216.6 411.3,218 405.3,219.3 402.3,219.8 399.3,220.7 
		396.3,223.4 	"/>
</g>
<text transform="matrix(1 0 0 1 15.1894 33.8439)" class="st1 st12">WT-15 Aptamer</text>
<text transform="matrix(1 0 0 1 234.8476 163.1002)" class="st1 st12">5’</text>
<text transform="matrix(1 0 0 1 300.101 153.5879)" class="st1 st12">3’</text>
</svg>
