<svg id="_图层_1" data-name=" 图层 1" xmlns="http://www.w3.org/2000/svg" viewBox="0 0 800 400">
  <defs>
    <style>
      .cls-1 {
        fill: #c2c2ff;
      }

      .cls-2 {
        fill: pink;
      }

      .cls-3 {
        fill: none;
        stroke: #000;
        stroke-linejoin: round;
        stroke-width: 1.3px;
      }

      .cls-4 {
        fill: #09fefe;
      }

      .cls-5 {
        fill: #32cd32;
      }

      .cls-6, .cls-7 {
        isolation: isolate;
      }

      .cls-6, .cls-7, .cls-8 {
        font-size: 20px;
        font-family: ArialMT, Arial;
      }

      .cls-7 {
        letter-spacing: -0.04em;
      }

      .cls-9 {
        letter-spacing: -0.06em;
      }
    </style>
  </defs>
  <path class="cls-1" d="M238.1,191.9V189h10.4v9.1a19.21,19.21,0,0,1-5,2.9,16,16,0,0,1-5.2,1,13.7,13.7,0,0,1-6.6-1.6,10.85,10.85,0,0,1-4.5-4.5,13.62,13.62,0,0,1-1.5-6.6,15.6,15.6,0,0,1,1.5-6.7,9.62,9.62,0,0,1,4.3-4.6,13.23,13.23,0,0,1,6.5-1.5,12.8,12.8,0,0,1,4.8.9,8.14,8.14,0,0,1,3.4,2.4,12.26,12.26,0,0,1,1.9,4l-2.9.8a8.26,8.26,0,0,0-1.4-3,4.63,4.63,0,0,0-2.4-1.7,7.89,7.89,0,0,0-3.4-.6,10.72,10.72,0,0,0-3.9.7,6.77,6.77,0,0,0-2.6,1.8,7.76,7.76,0,0,0-1.6,2.4,12.31,12.31,0,0,0-.9,5,12.89,12.89,0,0,0,1.1,5.5,7.52,7.52,0,0,0,3.3,3.3,10.39,10.39,0,0,0,4.6,1.1,11.5,11.5,0,0,0,4.1-.8,13.45,13.45,0,0,0,3.1-1.7V192l-7.1-.1Z"/>
  <path class="cls-1" d="M264,191.9V189h10.5v9.1a19.21,19.21,0,0,1-5,2.9,16,16,0,0,1-5.2,1,13.7,13.7,0,0,1-6.6-1.6,10.85,10.85,0,0,1-4.5-4.5,14.85,14.85,0,0,1-1.5-6.6,15.6,15.6,0,0,1,1.5-6.7,9.62,9.62,0,0,1,4.3-4.6,13.49,13.49,0,0,1,6.5-1.5,12.8,12.8,0,0,1,4.8.9,8.14,8.14,0,0,1,3.4,2.4,12.26,12.26,0,0,1,1.9,4l-2.9.8a8.26,8.26,0,0,0-1.4-3,4.63,4.63,0,0,0-2.4-1.7,7.89,7.89,0,0,0-3.4-.6,10.72,10.72,0,0,0-3.9.7,6.77,6.77,0,0,0-2.6,1.8,7.76,7.76,0,0,0-1.6,2.4,12.31,12.31,0,0,0-.9,5,12.89,12.89,0,0,0,1.1,5.5,7.52,7.52,0,0,0,3.3,3.3,10.3,10.3,0,0,0,4.6,1,11.5,11.5,0,0,0,4.1-.8,13.45,13.45,0,0,0,3.1-1.7v-4.6Z"/>
  <path class="cls-1" d="M297,192.9l3.3.8A10.22,10.22,0,0,1,290,202a12.31,12.31,0,0,1-6.5-1.6,10.35,10.35,0,0,1-3.8-4.7,16.54,16.54,0,0,1-1.3-6.6,14.28,14.28,0,0,1,1.5-6.7,10.47,10.47,0,0,1,4.2-4.4,12.42,12.42,0,0,1,6-1.5,10.56,10.56,0,0,1,6.2,1.9,9.59,9.59,0,0,1,3.5,5.3l-3.2.8a7.76,7.76,0,0,0-2.5-3.9,6,6,0,0,0-4.1-1.2,8.18,8.18,0,0,0-4.8,1.4,7.18,7.18,0,0,0-2.7,3.7,15,15,0,0,0-.8,4.7,17.13,17.13,0,0,0,.9,5.5,6.26,6.26,0,0,0,2.9,3.5,7.87,7.87,0,0,0,4.2,1.2,7,7,0,0,0,4.6-1.6,7.91,7.91,0,0,0,2.6-4.7Z"/>
  <path class="cls-1" d="M303.5,201.5l9.5-24.7h3.5l10.1,24.7h-3.7L320,194H309.7l-2.7,7.5Zm7.2-10.1H319l-2.6-6.8q-1.2-3.15-1.8-5.1a36.16,36.16,0,0,1-1.3,4.7l-2.7,7.2Z"/>
  <path class="cls-1" d="M348.8,192.9l3.3.8a10.51,10.51,0,0,1-3.7,6.1,10.32,10.32,0,0,1-6.5,2.1,12.31,12.31,0,0,1-6.5-1.6,10.35,10.35,0,0,1-3.8-4.7,16.54,16.54,0,0,1-1.3-6.6,14.28,14.28,0,0,1,1.5-6.7,10.47,10.47,0,0,1,4.2-4.4,12.42,12.42,0,0,1,6-1.5,10.56,10.56,0,0,1,6.2,1.9,9.59,9.59,0,0,1,3.5,5.3l-3.2.8a7.76,7.76,0,0,0-2.5-3.9,6,6,0,0,0-4.1-1.2,8.18,8.18,0,0,0-4.8,1.4,7.18,7.18,0,0,0-2.7,3.7,15,15,0,0,0-.8,4.7,17.13,17.13,0,0,0,.9,5.5,6.26,6.26,0,0,0,2.9,3.5,7.87,7.87,0,0,0,4.2,1.2,7,7,0,0,0,4.6-1.6,7.29,7.29,0,0,0,2.5-4.7Z"/>
  <path class="cls-1" d="M367.6,191.9V189h10.5v9.1a19.21,19.21,0,0,1-5,2.9,16,16,0,0,1-5.2,1,13.7,13.7,0,0,1-6.6-1.6,10.85,10.85,0,0,1-4.5-4.5,14.85,14.85,0,0,1-1.5-6.6,15.6,15.6,0,0,1,1.5-6.7,9.62,9.62,0,0,1,4.3-4.6,13.49,13.49,0,0,1,6.5-1.5,12.8,12.8,0,0,1,4.8.9,8.14,8.14,0,0,1,3.4,2.4,12.26,12.26,0,0,1,1.9,4l-3,.8a8.26,8.26,0,0,0-1.4-3,4.63,4.63,0,0,0-2.4-1.7,7.89,7.89,0,0,0-3.4-.6,10.72,10.72,0,0,0-3.9.7,6.77,6.77,0,0,0-2.6,1.8,7.76,7.76,0,0,0-1.6,2.4,12.31,12.31,0,0,0-.9,5,12.89,12.89,0,0,0,1.1,5.5,7.52,7.52,0,0,0,3.3,3.3,9.73,9.73,0,0,0,4.7,1,11.5,11.5,0,0,0,4.1-.8,13.45,13.45,0,0,0,3.1-1.7v-4.6h-7.2Z"/>
  <path class="cls-1" d="M399.2,176.9h3.3v14.2a19.55,19.55,0,0,1-.8,5.9,7.52,7.52,0,0,1-3,3.6,10.63,10.63,0,0,1-5.8,1.4,12.44,12.44,0,0,1-5.7-1.2,6.84,6.84,0,0,1-3.1-3.4,18.73,18.73,0,0,1-1-6.2V177h3.3v14.2a14.81,14.81,0,0,0,.6,4.7,4.87,4.87,0,0,0,2.1,2.4,6.37,6.37,0,0,0,3.6.8c2.4,0,4.1-.5,5.1-1.6s1.5-3.2,1.5-6.3V177Z"/>
  <path class="cls-2" d="M406.5,166v-2.9H417v9.1a19.21,19.21,0,0,1-5,2.9,16,16,0,0,1-5.2,1,13.7,13.7,0,0,1-6.6-1.6,10.85,10.85,0,0,1-4.5-4.5,14.85,14.85,0,0,1-1.5-6.6,15.6,15.6,0,0,1,1.5-6.7,9.62,9.62,0,0,1,4.3-4.6,14.12,14.12,0,0,1,11.3-.6,8.14,8.14,0,0,1,3.4,2.4,12.26,12.26,0,0,1,1.9,4l-2.9.8a8.26,8.26,0,0,0-1.4-3,4.63,4.63,0,0,0-2.4-1.7,7.89,7.89,0,0,0-3.4-.6,10.72,10.72,0,0,0-3.9.7,6.77,6.77,0,0,0-2.6,1.8,6.08,6.08,0,0,0-1.5,2.4,12.41,12.41,0,0,0-1,5,12.89,12.89,0,0,0,1.1,5.5A6.64,6.64,0,0,0,402,172a10.39,10.39,0,0,0,4.6,1.1,11.5,11.5,0,0,0,4.1-.8,13.45,13.45,0,0,0,3.1-1.7v-4.5l-7.3-.1Z"/>
  <path class="cls-2" d="M425.1,125h3.3v14.2a19.55,19.55,0,0,1-.8,5.9,7.52,7.52,0,0,1-3,3.6,10.63,10.63,0,0,1-5.8,1.4,12.44,12.44,0,0,1-5.7-1.2,6.84,6.84,0,0,1-3.1-3.4,16.38,16.38,0,0,1-.9-6.2V125.1h3.3v14.2a14.81,14.81,0,0,0,.6,4.7,5.2,5.2,0,0,0,2,2.4,6.37,6.37,0,0,0,3.6.8c2.4,0,4.1-.5,5.1-1.6s1.5-3.2,1.5-6.3V125.1Z"/>
  <path class="cls-2" d="M433.1,123.8l9.5-24.7h3.5l10.1,24.7h-3.7l-2.9-7.5H439.3l-2.7,7.5Zm7.1-10.1h8.4l-2.6-6.8q-1.2-3.15-1.8-5.1a36.16,36.16,0,0,1-1.3,4.7Z"/>
  <line class="cls-3" x1="444.8" y1="93" x2="444.8" y2="75.7"/>
  <path class="cls-2" d="M426,243.7v-2.9h10.5v9.1a19.21,19.21,0,0,1-5,2.9,15.48,15.48,0,0,1-5.2,1,13.7,13.7,0,0,1-6.6-1.6,10.85,10.85,0,0,1-4.5-4.5,14.85,14.85,0,0,1-1.5-6.6,15.6,15.6,0,0,1,1.5-6.7,9.62,9.62,0,0,1,4.3-4.6,13.23,13.23,0,0,1,6.5-1.5,12.8,12.8,0,0,1,4.8.9,8.14,8.14,0,0,1,3.4,2.4,12.26,12.26,0,0,1,1.9,4l-3,.8a8.26,8.26,0,0,0-1.4-3,4.63,4.63,0,0,0-2.4-1.7,7.89,7.89,0,0,0-3.4-.6,10.72,10.72,0,0,0-3.9.7,6.77,6.77,0,0,0-2.6,1.8,7.93,7.93,0,0,0-1.5,2.5,12.31,12.31,0,0,0-.9,5,12.89,12.89,0,0,0,1.1,5.5,7.52,7.52,0,0,0,3.3,3.3A10.39,10.39,0,0,0,426,251a11.5,11.5,0,0,0,4.1-.8,13.45,13.45,0,0,0,3.1-1.7v-4.6H426Z"/>
  <path class="cls-1" d="M381.3,253.4l9.5-24.7h3.5l10.1,24.7h-3.7l-2.9-7.5H387.5l-2.7,7.5Zm7.1-10.2h8.4l-2.6-6.8q-1.2-3.15-1.8-5.1a36.16,36.16,0,0,1-1.3,4.7l-2.7,7.2Z"/>
  <path class="cls-1" d="M374.7,244.7l3.3.8a10.51,10.51,0,0,1-3.7,6.1,10.32,10.32,0,0,1-6.5,2.1,13.32,13.32,0,0,1-6.5-1.6,10.35,10.35,0,0,1-3.8-4.7,16.54,16.54,0,0,1-1.3-6.6,14.28,14.28,0,0,1,1.5-6.7,9.93,9.93,0,0,1,4.2-4.4,12.42,12.42,0,0,1,6-1.5,10.56,10.56,0,0,1,6.2,1.9,9.59,9.59,0,0,1,3.5,5.3l-3.2.8a7.76,7.76,0,0,0-2.5-3.9,6,6,0,0,0-4.1-1.2,8.18,8.18,0,0,0-4.8,1.4,7.18,7.18,0,0,0-2.7,3.7,15,15,0,0,0-.8,4.7,17.13,17.13,0,0,0,.9,5.5,6.26,6.26,0,0,0,2.9,3.5,7.87,7.87,0,0,0,4.2,1.2,7,7,0,0,0,4.6-1.6,7.91,7.91,0,0,0,2.6-4.7Z"/>
  <path class="cls-1" d="M341.7,243.7v-2.9h10.4v9.1a19.21,19.21,0,0,1-5,2.9,16,16,0,0,1-5.2,1,13.7,13.7,0,0,1-6.6-1.6,10.85,10.85,0,0,1-4.5-4.5,13.62,13.62,0,0,1-1.5-6.6,15.6,15.6,0,0,1,1.5-6.7,9.62,9.62,0,0,1,4.3-4.6,13.23,13.23,0,0,1,6.5-1.5,12.8,12.8,0,0,1,4.8.9,8.14,8.14,0,0,1,3.4,2.4,12.26,12.26,0,0,1,1.9,4l-2.9.8a8.26,8.26,0,0,0-1.4-3,4.63,4.63,0,0,0-2.4-1.7,7.89,7.89,0,0,0-3.4-.6,10.72,10.72,0,0,0-3.9.7,6.77,6.77,0,0,0-2.6,1.8,6.08,6.08,0,0,0-1.5,2.4,12.31,12.31,0,0,0-.9,5,12.89,12.89,0,0,0,1.1,5.5,7.52,7.52,0,0,0,3.3,3.3,10.39,10.39,0,0,0,4.6,1.1,11.37,11.37,0,0,0,7.2-2.6v-4.6Z"/>
  <path class="cls-1" d="M321.5,228.7h3.3V243a19.55,19.55,0,0,1-.8,5.9,7.52,7.52,0,0,1-3,3.6,10.63,10.63,0,0,1-5.8,1.4,12.44,12.44,0,0,1-5.7-1.2,6.66,6.66,0,0,1-3.1-3.5,16.38,16.38,0,0,1-.9-6.2V228.7h3.3v14.2a14.81,14.81,0,0,0,.6,4.7,5.2,5.2,0,0,0,2,2.4,6.37,6.37,0,0,0,3.6.8c2.4,0,4.1-.5,5.1-1.6s1.5-3.2,1.5-6.3V228.7Z"/>
  <path class="cls-1" d="M289.9,243.7v-2.9h10.4v9.1a19.21,19.21,0,0,1-5,2.9,16,16,0,0,1-5.2,1,13.7,13.7,0,0,1-6.6-1.6,10.85,10.85,0,0,1-4.5-4.5,13.62,13.62,0,0,1-1.5-6.6,15.6,15.6,0,0,1,1.5-6.7,9.62,9.62,0,0,1,4.3-4.6,13.23,13.23,0,0,1,6.5-1.5,12.8,12.8,0,0,1,4.8.9,8.14,8.14,0,0,1,3.4,2.4,12.26,12.26,0,0,1,1.9,4l-2.9.8a8.26,8.26,0,0,0-1.4-3,4.63,4.63,0,0,0-2.4-1.7,7.89,7.89,0,0,0-3.4-.6,10.72,10.72,0,0,0-3.9.7,6.77,6.77,0,0,0-2.6,1.8,6.08,6.08,0,0,0-1.5,2.4,12.31,12.31,0,0,0-.9,5,12.89,12.89,0,0,0,1.1,5.5,7.52,7.52,0,0,0,3.3,3.3,10.39,10.39,0,0,0,4.6,1.1,11.37,11.37,0,0,0,7.2-2.6v-4.6Z"/>
  <line class="cls-3" x1="289.3" y1="257.1" x2="289.3" y2="274.4"/>
  <path class="cls-1" d="M271,244.7l3.3.8a10.51,10.51,0,0,1-3.7,6.1,10.32,10.32,0,0,1-6.5,2.1,13.32,13.32,0,0,1-6.5-1.6,10.35,10.35,0,0,1-3.8-4.7,16.54,16.54,0,0,1-1.3-6.6,14.28,14.28,0,0,1,1.5-6.7,9.93,9.93,0,0,1,4.2-4.4,12.42,12.42,0,0,1,6-1.5,10.56,10.56,0,0,1,6.2,1.9,9.59,9.59,0,0,1,3.5,5.3l-3.2.8a7.76,7.76,0,0,0-2.5-3.9,6,6,0,0,0-4.1-1.2,8.18,8.18,0,0,0-4.8,1.4,7.18,7.18,0,0,0-2.7,3.7,15,15,0,0,0-.8,4.7,17.13,17.13,0,0,0,.9,5.5,6.26,6.26,0,0,0,2.9,3.5,7.87,7.87,0,0,0,4.2,1.2,7,7,0,0,0,4.6-1.6,7.91,7.91,0,0,0,2.6-4.7Z"/>
  <path class="cls-1" d="M245.1,244.7l3.3.8a10.51,10.51,0,0,1-3.7,6.1,10.32,10.32,0,0,1-6.5,2.1,13.32,13.32,0,0,1-6.5-1.6,10.35,10.35,0,0,1-3.8-4.7,16.54,16.54,0,0,1-1.3-6.6,14.28,14.28,0,0,1,1.5-6.7,9.93,9.93,0,0,1,4.2-4.4,12.42,12.42,0,0,1,6-1.5,10.56,10.56,0,0,1,6.2,1.9,9.59,9.59,0,0,1,3.5,5.3l-3.2.8a7.76,7.76,0,0,0-2.5-3.9,6,6,0,0,0-4.1-1.2,8.18,8.18,0,0,0-4.8,1.4,7.18,7.18,0,0,0-2.7,3.7,15,15,0,0,0-.8,4.7,17.13,17.13,0,0,0,.9,5.5,6.26,6.26,0,0,0,2.9,3.5,7.87,7.87,0,0,0,4.2,1.2,7,7,0,0,0,4.6-1.6,7.77,7.77,0,0,0,2.5-4.7Z"/>
  <line class="cls-3" x1="237.4" y1="205" x2="237.4" y2="225.9"/>
  <line class="cls-3" x1="263.4" y1="205" x2="263.4" y2="225.9"/>
  <line class="cls-3" x1="289.3" y1="205" x2="289.3" y2="225.9"/>
  <line class="cls-3" x1="341.1" y1="205" x2="341.1" y2="225.9"/>
  <line class="cls-3" x1="367" y1="205" x2="367" y2="225.9"/>
  <line class="cls-3" x1="392.9" y1="205" x2="392.9" y2="225.9"/>
  <path class="cls-2" d="M473.5,125h3.3v14.2a19.55,19.55,0,0,1-.8,5.9,7.52,7.52,0,0,1-3,3.6,10.63,10.63,0,0,1-5.8,1.4,12.44,12.44,0,0,1-5.7-1.2,6.84,6.84,0,0,1-3.1-3.4,16.38,16.38,0,0,1-.9-6.2V125.1h3.3v14.2a14.81,14.81,0,0,0,.6,4.7,5.2,5.2,0,0,0,2,2.4,6.37,6.37,0,0,0,3.6.8c2.4,0,4.1-.5,5.1-1.6s1.5-3.2,1.5-6.3V125.1Z"/>
  <path class="cls-2" d="M489.9,151h3.3v14.2a16.92,16.92,0,0,1-.9,5.9,7.52,7.52,0,0,1-3,3.6,10.63,10.63,0,0,1-5.8,1.4,12.44,12.44,0,0,1-5.7-1.2,6.66,6.66,0,0,1-3.1-3.5,16.38,16.38,0,0,1-.9-6.2V151H477v14.2a14.81,14.81,0,0,0,.6,4.7,4.52,4.52,0,0,0,2,2.3,6.37,6.37,0,0,0,3.6.8c2.4,0,4.1-.6,5.1-1.6s1.5-3.2,1.5-6.3V150.9Z"/>
  <path class="cls-4" d="M478.5,201.5l9.5-24.7h3.5l10.1,24.7h-3.7L495,194H484.6l-2.7,7.5h-3.4Zm7.1-10.1H494l-2.6-6.8q-1.2-3.15-1.8-5.1a36.16,36.16,0,0,1-1.3,4.7l-2.7,7.2Z"/>
  <path class="cls-4" d="M523.7,192.9l3.3.8a10.51,10.51,0,0,1-3.7,6.1,10.32,10.32,0,0,1-6.5,2.1,12.31,12.31,0,0,1-6.5-1.6,10.35,10.35,0,0,1-3.8-4.7,16.54,16.54,0,0,1-1.3-6.6,14.28,14.28,0,0,1,1.5-6.7,9.93,9.93,0,0,1,4.2-4.4,12.42,12.42,0,0,1,6-1.5,10.56,10.56,0,0,1,6.2,1.9,9.59,9.59,0,0,1,3.5,5.3l-3.2.8a7.76,7.76,0,0,0-2.5-3.9,6,6,0,0,0-4.1-1.2,8.18,8.18,0,0,0-4.8,1.4,7.18,7.18,0,0,0-2.7,3.7,15,15,0,0,0-.8,4.7,17.13,17.13,0,0,0,.9,5.5,6.5,6.5,0,0,0,2.8,3.5,7.87,7.87,0,0,0,4.2,1.2,7,7,0,0,0,4.6-1.6,7.91,7.91,0,0,0,2.6-4.7Z"/>
  <path class="cls-4" d="M549.6,192.9l3.3.8a10.51,10.51,0,0,1-3.7,6.1,10.32,10.32,0,0,1-6.5,2.1,12.31,12.31,0,0,1-6.5-1.6,10.35,10.35,0,0,1-3.8-4.7,16.54,16.54,0,0,1-1.3-6.6,14.28,14.28,0,0,1,1.5-6.7,9.93,9.93,0,0,1,4.2-4.4,12.42,12.42,0,0,1,6-1.5,10.56,10.56,0,0,1,6.2,1.9,9.59,9.59,0,0,1,3.5,5.3l-3.2.8a7.76,7.76,0,0,0-2.5-3.9,6,6,0,0,0-4.1-1.2,8.18,8.18,0,0,0-4.8,1.4,7.18,7.18,0,0,0-2.7,3.7,15,15,0,0,0-.8,4.7,17.13,17.13,0,0,0,.9,5.5,6.26,6.26,0,0,0,2.9,3.5,7.87,7.87,0,0,0,4.2,1.2,7,7,0,0,0,4.6-1.6,7.29,7.29,0,0,0,2.5-4.7Z"/>
  <path class="cls-5" d="M575.5,186.4l3.3.8a10.51,10.51,0,0,1-3.7,6.1,10.32,10.32,0,0,1-6.5,2.1,12.31,12.31,0,0,1-6.5-1.6,10.35,10.35,0,0,1-3.8-4.7,16.54,16.54,0,0,1-1.3-6.6,14.28,14.28,0,0,1,1.5-6.7,10.47,10.47,0,0,1,4.2-4.4,12.42,12.42,0,0,1,6-1.5,10.56,10.56,0,0,1,6.2,1.9,9.59,9.59,0,0,1,3.5,5.3l-3.2.8a7.76,7.76,0,0,0-2.5-3.9,6,6,0,0,0-4.1-1.2,8.18,8.18,0,0,0-4.8,1.4,7.18,7.18,0,0,0-2.7,3.7,15,15,0,0,0-.8,4.7,17.13,17.13,0,0,0,.9,5.5,6.5,6.5,0,0,0,2.8,3.5,7.87,7.87,0,0,0,4.2,1.2,7.43,7.43,0,0,0,4.7-1.6,7.29,7.29,0,0,0,2.5-4.7Z"/>
  <path class="cls-5" d="M600,176.9h3.3v14.2a19.55,19.55,0,0,1-.8,5.9,7.52,7.52,0,0,1-3,3.6,10.63,10.63,0,0,1-5.8,1.4,12.44,12.44,0,0,1-5.7-1.2,6.84,6.84,0,0,1-3.1-3.4,16.47,16.47,0,0,1-1-6.2V177h3.3v14.2a14.81,14.81,0,0,0,.6,4.7,4.87,4.87,0,0,0,2.1,2.4,6.23,6.23,0,0,0,3.5.8c2.4,0,4.1-.5,5.1-1.6s1.5-3.2,1.5-6.3V176.9Z"/>
  <path class="cls-5" d="M601.6,221l9.4-24.7h3.5L624.6,221h-3.7l-2.9-7.5H607.7L605,221Zm7.1-10.1h8.4l-2.6-6.9q-1.2-3.15-1.8-5.1a36.16,36.16,0,0,1-1.3,4.7l-2.7,7.3Z"/>
  <path class="cls-5" d="M600.9,243.7v-2.9h10.4v9.1a19.21,19.21,0,0,1-5,2.9,16,16,0,0,1-5.2,1,13.7,13.7,0,0,1-6.6-1.6,10.85,10.85,0,0,1-4.5-4.5,14.85,14.85,0,0,1-1.5-6.6,15.6,15.6,0,0,1,1.5-6.7,9.62,9.62,0,0,1,4.3-4.6,13.23,13.23,0,0,1,6.5-1.5,12.8,12.8,0,0,1,4.8.9,8.14,8.14,0,0,1,3.4,2.4,12.26,12.26,0,0,1,1.9,4l-2.9.8a8.26,8.26,0,0,0-1.4-3,4.63,4.63,0,0,0-2.4-1.7,7.89,7.89,0,0,0-3.4-.6,10.72,10.72,0,0,0-3.9.7,6.77,6.77,0,0,0-2.6,1.8,6.08,6.08,0,0,0-1.5,2.4,12.41,12.41,0,0,0-1,5,12.89,12.89,0,0,0,1.1,5.5,7.52,7.52,0,0,0,3.3,3.3,10.39,10.39,0,0,0,4.6,1.1,11.37,11.37,0,0,0,7.2-2.6v-4.6h-7.1Z"/>
  <path class="cls-5" d="M580.6,235.2h3.3v14.2a19.55,19.55,0,0,1-.8,5.9,6.86,6.86,0,0,1-3,3.5,10.63,10.63,0,0,1-5.8,1.4,12.44,12.44,0,0,1-5.7-1.2,7.29,7.29,0,0,1-3.2-3.5,16.38,16.38,0,0,1-.9-6.2V235.1h3.3v14.2a14.81,14.81,0,0,0,.6,4.7,5.2,5.2,0,0,0,2,2.4,6.37,6.37,0,0,0,3.6.8c2.4,0,4.1-.5,5.1-1.6s1.5-3.2,1.5-6.3V235.2Z"/>
  <line class="cls-3" x1="574.3" y1="263.6" x2="574.3" y2="280.8"/>
  <path class="cls-4" d="M542.6,243.7v-2.9H553v9.1a19.21,19.21,0,0,1-5,2.9,16,16,0,0,1-5.2,1,13.7,13.7,0,0,1-6.6-1.6,10.85,10.85,0,0,1-4.5-4.5,13.62,13.62,0,0,1-1.5-6.6,15.6,15.6,0,0,1,1.5-6.7,9.62,9.62,0,0,1,4.3-4.6,13.23,13.23,0,0,1,6.5-1.5,12.8,12.8,0,0,1,4.8.9,8.14,8.14,0,0,1,3.4,2.4,12.26,12.26,0,0,1,1.9,4l-2.9.8a8.26,8.26,0,0,0-1.4-3,4.81,4.81,0,0,0-2.3-1.7,7.89,7.89,0,0,0-3.4-.6,10.72,10.72,0,0,0-3.9.7,6.77,6.77,0,0,0-2.6,1.8,6.08,6.08,0,0,0-1.5,2.4,12.31,12.31,0,0,0-.9,5,12.89,12.89,0,0,0,1.1,5.5,7.52,7.52,0,0,0,3.3,3.3,10.39,10.39,0,0,0,4.6,1.1,11.37,11.37,0,0,0,7.2-2.6v-4.6Z"/>
  <path class="cls-4" d="M516.7,243.7v-2.9h10.5v9.1a19.21,19.21,0,0,1-5,2.9,16,16,0,0,1-5.2,1,13.7,13.7,0,0,1-6.6-1.6,10.85,10.85,0,0,1-4.5-4.5,14.85,14.85,0,0,1-1.5-6.6,15.6,15.6,0,0,1,1.5-6.7,9.62,9.62,0,0,1,4.3-4.6,13.49,13.49,0,0,1,6.5-1.5,12.8,12.8,0,0,1,4.8.9,8.14,8.14,0,0,1,3.4,2.4,12.26,12.26,0,0,1,1.9,4l-3,.8a8.26,8.26,0,0,0-1.4-3,4.63,4.63,0,0,0-2.4-1.7,7.89,7.89,0,0,0-3.4-.6,10.72,10.72,0,0,0-3.9.7,6.77,6.77,0,0,0-2.6,1.8,6.08,6.08,0,0,0-1.5,2.4,14.37,14.37,0,0,0-1,5,12.89,12.89,0,0,0,1.1,5.5,7.52,7.52,0,0,0,3.3,3.3,10.39,10.39,0,0,0,4.6,1.1,11.5,11.5,0,0,0,4.1-.8,13.45,13.45,0,0,0,3.1-1.7v-4.6h-7.2Z"/>
  <path class="cls-4" d="M496.4,228.7h3.3V243a19.55,19.55,0,0,1-.8,5.9,7.52,7.52,0,0,1-3,3.6,10.63,10.63,0,0,1-5.8,1.4,12.44,12.44,0,0,1-5.7-1.2,6.66,6.66,0,0,1-3.1-3.5,16.38,16.38,0,0,1-.9-6.2V228.7h3.3v14.2a14.81,14.81,0,0,0,.6,4.7,4.87,4.87,0,0,0,2.1,2.4,6.37,6.37,0,0,0,3.6.8c2.4,0,4.1-.5,5.1-1.6s1.5-3.2,1.5-6.3V228.7Z"/>
  <path class="cls-2" d="M465.4,244.7l3.3.8a10.51,10.51,0,0,1-3.7,6.1,10.32,10.32,0,0,1-6.5,2.1,13.32,13.32,0,0,1-6.5-1.6,10.35,10.35,0,0,1-3.8-4.7,16.54,16.54,0,0,1-1.3-6.6,14.28,14.28,0,0,1,1.5-6.7,9.93,9.93,0,0,1,4.2-4.4,12.42,12.42,0,0,1,6-1.5,10.56,10.56,0,0,1,6.2,1.9,9.59,9.59,0,0,1,3.5,5.3l-3.2.8a7.76,7.76,0,0,0-2.5-3.9,6,6,0,0,0-4.1-1.2,8.18,8.18,0,0,0-4.8,1.4,7.18,7.18,0,0,0-2.7,3.7,15,15,0,0,0-.8,4.7,17.13,17.13,0,0,0,.9,5.5,6.26,6.26,0,0,0,2.9,3.5,7.87,7.87,0,0,0,4.2,1.2,7,7,0,0,0,4.6-1.6,7.91,7.91,0,0,0,2.6-4.7Z"/>
  <line class="cls-3" x1="490.1" y1="203.9" x2="490.1" y2="223.9"/>
  <line class="cls-3" x1="516" y1="203.9" x2="516" y2="223.9"/>
  <line class="cls-3" x1="541.9" y1="203.9" x2="541.9" y2="223.9"/>
  <line class="cls-3" x1="314.9" y1="224.5" x2="314.9" y2="203.5"/>
  <g>
    <text class="cls-6" transform="translate(216.49 159) rotate(-3.1)">5</text>
    <text class="cls-7" transform="translate(234.89 158) rotate(-3.1)">’</text>
  </g>
  <g>
    <text class="cls-6" transform="translate(217.4 287.54) rotate(-3.1)">3</text>
    <text class="cls-7" transform="translate(235.8 286.54) rotate(-3.1)">’</text>
  </g>
  <text class="cls-6" transform="translate(278.4 293.3)">30</text>
  <text class="cls-6" transform="translate(433.1 66)">10</text>
  <text class="cls-6" transform="translate(564.5 304.3)">20</text>
  <text class="cls-8" transform="translate(16.73 38.14)">XB<tspan class="cls-9" x="26.68" y="0">A</tspan><tspan x="38.92" y="0" xml:space="preserve"> RN</tspan><tspan class="cls-9" x="73.36" y="0">A</tspan><tspan x="85.6" y="0" xml:space="preserve"> aptamer</tspan></text>
</svg>
