<?xml version="1.0" encoding="utf-8"?>
<!-- Generator: Adobe Illustrator 25.2.0, SVG Export Plug-In . SVG Version: 6.00 Build 0)  -->
<svg version="1.1" id="_图层_1" xmlns="http://www.w3.org/2000/svg" xmlns:xlink="http://www.w3.org/1999/xlink" x="0px" y="0px"
	 viewBox="0 0 800 400" style="enable-background:new 0 0 800 400;" xml:space="preserve">
<style type="text/css">
	.st0{fill:#C2C2FF;}
	.st1{fill:#FFC0CB;}
	.st2{fill:none;stroke:#000000;stroke-width:1.3;stroke-linejoin:round;}
	.st3{fill:#09FEFE;}
	.st4{fill:#32CD32;}
	.st5{font-family:'ArialMT';}
	.st6{font-size:33px;}
	.st7{font-size:28px;}
	.st8{font-size:24px;}
</style>
<path class="st0" d="M238.1,191.9V189h10.4v9.1c-1.5,1.2-3.2,2.2-5,2.9c-1.7,0.6-3.5,1-5.2,1c-2.3,0-4.6-0.5-6.6-1.6
	c-1.9-1-3.5-2.6-4.5-4.5c-1-2-1.6-4.3-1.5-6.6c0-2.3,0.5-4.6,1.5-6.7c0.9-2,2.4-3.6,4.3-4.6c2-1,4.2-1.6,6.5-1.5
	c1.7,0,3.3,0.3,4.8,0.9c1.3,0.5,2.5,1.3,3.4,2.4c0.9,1.2,1.5,2.6,1.9,4l-2.9,0.8c-0.3-1.1-0.7-2.1-1.4-3c-0.6-0.8-1.4-1.4-2.4-1.7
	c-1.1-0.4-2.2-0.7-3.4-0.6c-1.3,0-2.6,0.2-3.9,0.7c-1,0.4-1.9,1-2.6,1.8c-0.7,0.7-1.2,1.5-1.6,2.4c-0.6,1.6-1,3.3-0.9,5
	c0,1.9,0.3,3.8,1.1,5.5c0.7,1.4,1.9,2.6,3.3,3.3c1.4,0.7,3,1.1,4.6,1.1c1.4,0,2.8-0.3,4.1-0.8c1.1-0.4,2.1-1,3.1-1.7V192
	L238.1,191.9L238.1,191.9z"/>
<path class="st0" d="M264,191.9V189h10.5v9.1c-1.5,1.2-3.2,2.2-5,2.9c-1.7,0.6-3.5,1-5.2,1c-2.3,0-4.6-0.5-6.6-1.6
	c-1.9-1-3.5-2.6-4.5-4.5c-1-2-1.5-4.3-1.5-6.6s0.5-4.6,1.5-6.7c0.9-2,2.4-3.6,4.3-4.6c2-1,4.3-1.6,6.5-1.5c1.7,0,3.3,0.3,4.8,0.9
	c1.3,0.5,2.5,1.3,3.4,2.4c0.9,1.2,1.5,2.6,1.9,4l-2.9,0.8c-0.3-1.1-0.7-2.1-1.4-3c-0.6-0.8-1.4-1.4-2.4-1.7
	c-1.1-0.4-2.2-0.7-3.4-0.6c-1.3,0-2.6,0.2-3.9,0.7c-1,0.4-1.9,1-2.6,1.8c-0.7,0.7-1.2,1.5-1.6,2.4c-0.6,1.6-1,3.3-0.9,5
	c0,1.9,0.3,3.8,1.1,5.5c0.7,1.4,1.9,2.6,3.3,3.3s3,1,4.6,1c1.4,0,2.8-0.3,4.1-0.8c1.1-0.4,2.1-1,3.1-1.7v-4.6L264,191.9L264,191.9z"
	/>
<path class="st0" d="M297,192.9l3.3,0.8c-0.5,2.4-1.8,4.6-3.7,6.1c-1.9,1.5-4.2,2.2-6.6,2.2c-2.3,0.1-4.5-0.5-6.5-1.6
	c-1.7-1.1-3-2.8-3.8-4.7c-0.9-2.1-1.3-4.3-1.3-6.6s0.4-4.6,1.5-6.7c0.9-1.8,2.4-3.4,4.2-4.4c1.8-1,3.9-1.5,6-1.5
	c2.2,0,4.4,0.6,6.2,1.9c1.7,1.3,3,3.2,3.5,5.3l-3.2,0.8c-0.4-1.5-1.3-2.9-2.5-3.9c-1.2-0.9-2.6-1.3-4.1-1.2c-1.7,0-3.4,0.4-4.8,1.4
	c-1.3,0.9-2.2,2.2-2.7,3.7s-0.8,3.1-0.8,4.7c0,1.9,0.3,3.7,0.9,5.5c0.5,1.5,1.5,2.7,2.9,3.5c1.3,0.8,2.7,1.2,4.2,1.2
	c1.7,0,3.3-0.5,4.6-1.6c1.4-1.2,2.3-2.9,2.6-4.7L297,192.9z"/>
<path class="st0" d="M303.5,201.5l9.5-24.7h3.5l10.1,24.7h-3.7L320,194h-10.3l-2.7,7.5H303.5z M310.7,191.4h8.3l-2.6-6.8
	c-0.8-2.1-1.4-3.8-1.8-5.1c-0.3,1.6-0.8,3.2-1.3,4.7l-2.7,7.2L310.7,191.4z"/>
<path class="st0" d="M348.8,192.9l3.3,0.8c-0.5,2.4-1.8,4.6-3.7,6.1c-1.9,1.4-4.2,2.2-6.5,2.1c-2.3,0.1-4.5-0.5-6.5-1.6
	c-1.7-1.1-3-2.8-3.8-4.7c-0.9-2.1-1.3-4.3-1.3-6.6s0.4-4.6,1.5-6.7c0.9-1.8,2.4-3.4,4.2-4.4c1.8-1,3.9-1.5,6-1.5
	c2.2,0,4.4,0.6,6.2,1.9c1.7,1.3,3,3.2,3.5,5.3l-3.2,0.8c-0.4-1.5-1.3-2.9-2.5-3.9c-1.2-0.9-2.6-1.3-4.1-1.2c-1.7,0-3.4,0.4-4.8,1.4
	c-1.3,0.9-2.2,2.2-2.7,3.7s-0.8,3.1-0.8,4.7c0,1.9,0.3,3.7,0.9,5.5c0.5,1.5,1.5,2.7,2.9,3.5c1.3,0.8,2.7,1.2,4.2,1.2
	c1.7,0,3.3-0.5,4.6-1.6c1.4-1.2,2.3-2.9,2.5-4.7L348.8,192.9z"/>
<path class="st0" d="M367.6,191.9V189h10.5v9.1c-1.5,1.2-3.2,2.2-5,2.9c-1.7,0.6-3.5,1-5.2,1c-2.3,0-4.6-0.5-6.6-1.6
	c-1.9-1-3.5-2.6-4.5-4.5c-1-2-1.5-4.3-1.5-6.6s0.5-4.6,1.5-6.7c0.9-2,2.4-3.6,4.3-4.6c2-1,4.3-1.6,6.5-1.5c1.7,0,3.3,0.3,4.8,0.9
	c1.3,0.5,2.5,1.3,3.4,2.4c0.9,1.2,1.5,2.6,1.9,4l-3,0.8c-0.3-1.1-0.7-2.1-1.4-3c-0.6-0.8-1.4-1.4-2.4-1.7c-1.1-0.4-2.2-0.7-3.4-0.6
	c-1.3,0-2.6,0.2-3.9,0.7c-1,0.4-1.9,1-2.6,1.8c-0.7,0.7-1.2,1.5-1.6,2.4c-0.6,1.6-1,3.3-0.9,5c0,1.9,0.3,3.8,1.1,5.5
	c0.7,1.4,1.9,2.6,3.3,3.3c1.5,0.7,3.1,1.1,4.7,1c1.4,0,2.8-0.3,4.1-0.8c1.1-0.4,2.1-1,3.1-1.7v-4.6h-7.3L367.6,191.9z"/>
<path class="st0" d="M399.2,176.9h3.3v14.2c0,2-0.2,4-0.8,5.9c-0.6,1.5-1.6,2.7-3,3.6c-1.8,1-3.7,1.5-5.8,1.4c-2,0-3.9-0.3-5.7-1.2
	c-1.4-0.7-2.5-2-3.1-3.4c-0.7-2-1-4.1-1-6.2V177h3.3v14.2c0,1.6,0.1,3.2,0.6,4.7c0.4,1,1.1,1.8,2.1,2.4c1.1,0.6,2.3,0.9,3.6,0.8
	c2.4,0,4.1-0.5,5.1-1.6s1.5-3.2,1.5-6.3V177L399.2,176.9z"/>
<path class="st1" d="M406.5,166v-2.9H417v9.1c-1.5,1.2-3.2,2.2-5,2.9c-1.7,0.6-3.5,1-5.2,1c-2.3,0-4.6-0.5-6.6-1.6
	c-1.9-1-3.5-2.6-4.5-4.5c-1-2-1.5-4.3-1.5-6.6s0.5-4.6,1.5-6.7c0.9-2,2.4-3.6,4.3-4.6c2-1,4.2-1.6,6.5-1.5c1.6,0,3.3,0.3,4.8,0.9
	c1.3,0.5,2.5,1.3,3.4,2.4c0.9,1.2,1.5,2.6,1.9,4l-2.9,0.8c-0.3-1.1-0.7-2.1-1.4-3c-0.6-0.8-1.4-1.4-2.4-1.7
	c-1.1-0.4-2.2-0.7-3.4-0.6c-1.3,0-2.6,0.2-3.9,0.7c-1,0.4-1.9,1-2.6,1.8c-0.7,0.7-1.2,1.5-1.5,2.4c-0.7,1.6-1,3.3-1,5
	c0,1.9,0.3,3.8,1.1,5.5c0.7,1.4,1.9,2.6,3.4,3.2c1.4,0.7,3,1.1,4.6,1.1c1.4,0,2.8-0.3,4.1-0.8c1.1-0.4,2.1-1,3.1-1.7v-4.5L406.5,166
	L406.5,166z"/>
<path class="st1" d="M425.1,125h3.3v14.2c0,2-0.2,4-0.8,5.9c-0.6,1.5-1.6,2.7-3,3.6c-1.8,1-3.7,1.5-5.8,1.4c-2,0-3.9-0.3-5.7-1.2
	c-1.4-0.7-2.5-2-3.1-3.4c-0.7-2-1-4.1-0.9-6.2v-14.2h3.3v14.2c0,1.6,0.1,3.2,0.6,4.7c0.4,1,1.1,1.8,2,2.4c1.1,0.6,2.3,0.9,3.6,0.8
	c2.4,0,4.1-0.5,5.1-1.6s1.5-3.2,1.5-6.3v-14.2L425.1,125z"/>
<path class="st1" d="M433.1,123.8l9.5-24.7h3.5l10.1,24.7h-3.7l-2.9-7.5h-10.3l-2.7,7.5H433.1z M440.2,113.7h8.4l-2.6-6.8
	c-0.8-2.1-1.4-3.8-1.8-5.1c-0.3,1.6-0.8,3.2-1.3,4.7C442.9,106.5,440.2,113.7,440.2,113.7z"/>
<line class="st2" x1="444.8" y1="93" x2="444.8" y2="75.7"/>
<path class="st1" d="M426,243.7v-2.9h10.5v9.1c-1.5,1.2-3.2,2.2-5,2.9c-1.7,0.6-3.4,1-5.2,1c-2.3,0-4.6-0.5-6.6-1.6
	c-1.9-1-3.5-2.6-4.5-4.5c-1-2-1.5-4.3-1.5-6.6s0.5-4.6,1.5-6.7c0.9-2,2.4-3.6,4.3-4.6c2-1,4.2-1.6,6.5-1.5c1.7,0,3.3,0.3,4.8,0.9
	c1.3,0.5,2.5,1.3,3.4,2.4c0.9,1.2,1.5,2.6,1.9,4l-3,0.8c-0.3-1.1-0.7-2.1-1.4-3c-0.6-0.8-1.4-1.4-2.4-1.7c-1.1-0.4-2.2-0.7-3.4-0.6
	c-1.3,0-2.6,0.2-3.9,0.7c-1,0.4-1.9,1-2.6,1.8c-0.6,0.7-1.2,1.6-1.5,2.5c-0.6,1.6-1,3.3-0.9,5c0,1.9,0.3,3.8,1.1,5.5
	c0.7,1.4,1.9,2.6,3.3,3.3s3,1.1,4.6,1.1c1.4,0,2.8-0.3,4.1-0.8c1.1-0.4,2.1-1,3.1-1.7v-4.6H426L426,243.7z"/>
<path class="st0" d="M381.3,253.4l9.5-24.7h3.5l10.1,24.7h-3.7l-2.9-7.5h-10.3l-2.7,7.5H381.3z M388.4,243.2h8.4l-2.6-6.8
	c-0.8-2.1-1.4-3.8-1.8-5.1c-0.3,1.6-0.8,3.2-1.3,4.7L388.4,243.2L388.4,243.2z"/>
<path class="st0" d="M374.7,244.7l3.3,0.8c-0.5,2.4-1.8,4.6-3.7,6.1c-1.9,1.4-4.2,2.2-6.5,2.1c-2.3,0-4.5-0.5-6.5-1.6
	c-1.7-1.1-3-2.8-3.8-4.7c-0.9-2.1-1.3-4.3-1.3-6.6s0.4-4.6,1.5-6.7c0.9-1.9,2.4-3.4,4.2-4.4c1.8-1,3.9-1.5,6-1.5
	c2.2,0,4.4,0.6,6.2,1.9c1.7,1.3,3,3.2,3.5,5.3l-3.2,0.8c-0.4-1.5-1.3-2.9-2.5-3.9c-1.2-0.9-2.6-1.3-4.1-1.2c-1.7,0-3.4,0.4-4.8,1.4
	c-1.3,0.9-2.2,2.2-2.7,3.7s-0.8,3.1-0.8,4.7c0,1.9,0.3,3.7,0.9,5.5c0.5,1.5,1.5,2.7,2.9,3.5c1.3,0.8,2.7,1.2,4.2,1.2
	c1.7,0,3.3-0.5,4.6-1.6c1.4-1.2,2.3-2.9,2.6-4.7L374.7,244.7z"/>
<path class="st0" d="M341.7,243.7v-2.9h10.4v9.1c-1.5,1.2-3.2,2.2-5,2.9c-1.7,0.6-3.5,1-5.2,1c-2.3,0-4.6-0.5-6.6-1.6
	c-1.9-1-3.5-2.6-4.5-4.5c-1-2-1.6-4.3-1.5-6.6c0-2.3,0.5-4.6,1.5-6.7c0.9-2,2.4-3.6,4.3-4.6c2-1,4.2-1.6,6.5-1.5
	c1.7,0,3.3,0.3,4.8,0.9c1.3,0.5,2.5,1.3,3.4,2.4c0.9,1.2,1.5,2.6,1.9,4l-2.9,0.8c-0.3-1.1-0.7-2.1-1.4-3c-0.6-0.8-1.4-1.4-2.4-1.7
	c-1.1-0.4-2.2-0.7-3.4-0.6c-1.3,0-2.6,0.2-3.9,0.7c-1,0.4-1.9,1-2.6,1.8c-0.7,0.7-1.2,1.5-1.5,2.4c-0.6,1.6-1,3.3-0.9,5
	c0,1.9,0.3,3.8,1.1,5.5c0.7,1.4,1.9,2.6,3.3,3.3s3,1.1,4.6,1.1c2.6,0,5.1-0.9,7.2-2.6v-4.6L341.7,243.7L341.7,243.7z"/>
<path class="st0" d="M321.5,228.7h3.3V243c0,2-0.2,4-0.8,5.9c-0.6,1.5-1.6,2.7-3,3.6c-1.8,1-3.7,1.5-5.8,1.4c-2,0-3.9-0.3-5.7-1.2
	c-1.4-0.7-2.5-2-3.1-3.5c-0.7-2-1-4.1-0.9-6.2v-14.3h3.3v14.2c0,1.6,0.1,3.2,0.6,4.7c0.4,1,1.1,1.8,2,2.4c1.1,0.6,2.3,0.9,3.6,0.8
	c2.4,0,4.1-0.5,5.1-1.6s1.5-3.2,1.5-6.3v-14.2L321.5,228.7z"/>
<path class="st0" d="M289.9,243.7v-2.9h10.4v9.1c-1.5,1.2-3.2,2.2-5,2.9c-1.7,0.6-3.5,1-5.2,1c-2.3,0-4.6-0.5-6.6-1.6
	c-1.9-1-3.5-2.6-4.5-4.5c-1-2-1.6-4.3-1.5-6.6c0-2.3,0.5-4.6,1.5-6.7c0.9-2,2.4-3.6,4.3-4.6c2-1,4.2-1.6,6.5-1.5
	c1.7,0,3.3,0.3,4.8,0.9c1.3,0.5,2.5,1.3,3.4,2.4c0.9,1.2,1.5,2.6,1.9,4l-2.9,0.8c-0.3-1.1-0.7-2.1-1.4-3c-0.6-0.8-1.4-1.4-2.4-1.7
	c-1.1-0.4-2.2-0.7-3.4-0.6c-1.3,0-2.6,0.2-3.9,0.7c-1,0.4-1.9,1-2.6,1.8c-0.7,0.7-1.2,1.5-1.5,2.4c-0.6,1.6-1,3.3-0.9,5
	c0,1.9,0.3,3.8,1.1,5.5c0.7,1.4,1.9,2.6,3.3,3.3s3,1.1,4.6,1.1c2.6,0,5.1-0.9,7.2-2.6v-4.6L289.9,243.7L289.9,243.7z"/>
<line class="st2" x1="289.3" y1="257.1" x2="289.3" y2="274.4"/>
<path class="st0" d="M271,244.7l3.3,0.8c-0.5,2.4-1.8,4.6-3.7,6.1c-1.9,1.4-4.2,2.2-6.5,2.1c-2.3,0-4.5-0.5-6.5-1.6
	c-1.7-1.1-3-2.8-3.8-4.7c-0.9-2.1-1.3-4.3-1.3-6.6s0.4-4.6,1.5-6.7c0.9-1.9,2.4-3.4,4.2-4.4c1.8-1,3.9-1.5,6-1.5
	c2.2,0,4.4,0.6,6.2,1.9c1.7,1.3,3,3.2,3.5,5.3l-3.2,0.8c-0.4-1.5-1.3-2.9-2.5-3.9c-1.2-0.9-2.6-1.3-4.1-1.2c-1.7,0-3.4,0.4-4.8,1.4
	c-1.3,0.9-2.2,2.2-2.7,3.7s-0.8,3.1-0.8,4.7c0,1.9,0.3,3.7,0.9,5.5c0.5,1.5,1.5,2.7,2.9,3.5c1.3,0.8,2.7,1.2,4.2,1.2
	c1.7,0,3.3-0.5,4.6-1.6c1.4-1.2,2.3-2.9,2.6-4.7V244.7z"/>
<path class="st0" d="M245.1,244.7l3.3,0.8c-0.5,2.4-1.8,4.6-3.7,6.1c-1.9,1.4-4.2,2.2-6.5,2.1c-2.3,0-4.5-0.5-6.5-1.6
	c-1.7-1.1-3-2.8-3.8-4.7c-0.9-2.1-1.3-4.3-1.3-6.6s0.4-4.6,1.5-6.7c0.9-1.9,2.4-3.4,4.2-4.4s3.9-1.5,6-1.5c2.2,0,4.4,0.6,6.2,1.9
	c1.7,1.3,3,3.2,3.5,5.3l-3.2,0.8c-0.4-1.5-1.3-2.9-2.5-3.9c-1.2-0.9-2.6-1.3-4.1-1.2c-1.7,0-3.4,0.4-4.8,1.4
	c-1.3,0.9-2.2,2.2-2.7,3.7s-0.8,3.1-0.8,4.7c0,1.9,0.3,3.7,0.9,5.5c0.5,1.5,1.5,2.7,2.9,3.5c1.3,0.8,2.7,1.2,4.2,1.2
	c1.7,0,3.3-0.5,4.6-1.6c1.4-1.2,2.2-2.9,2.5-4.7L245.1,244.7z"/>
<line class="st2" x1="237.4" y1="205" x2="237.4" y2="225.9"/>
<line class="st2" x1="263.4" y1="205" x2="263.4" y2="225.9"/>
<line class="st2" x1="289.3" y1="205" x2="289.3" y2="225.9"/>
<line class="st2" x1="341.1" y1="205" x2="341.1" y2="225.9"/>
<line class="st2" x1="367" y1="205" x2="367" y2="225.9"/>
<line class="st2" x1="392.9" y1="205" x2="392.9" y2="225.9"/>
<path class="st1" d="M473.5,125h3.3v14.2c0,2-0.2,4-0.8,5.9c-0.6,1.5-1.6,2.7-3,3.6c-1.8,1-3.7,1.5-5.8,1.4c-2,0-3.9-0.3-5.7-1.2
	c-1.4-0.7-2.5-2-3.1-3.4c-0.7-2-1-4.1-0.9-6.2v-14.2h3.3v14.2c0,1.6,0.1,3.2,0.6,4.7c0.4,1,1.1,1.8,2,2.4c1.1,0.6,2.3,0.9,3.6,0.8
	c2.4,0,4.1-0.5,5.1-1.6s1.5-3.2,1.5-6.3v-14.2L473.5,125z"/>
<path class="st1" d="M489.9,151h3.3v14.2c0,2-0.2,4-0.9,5.9c-0.6,1.5-1.6,2.7-3,3.6c-1.8,1-3.7,1.5-5.8,1.4c-2,0-3.9-0.3-5.7-1.2
	c-1.4-0.7-2.5-2-3.1-3.5c-0.7-2-1-4.1-0.9-6.2V151h3.2v14.2c0,1.6,0.1,3.2,0.6,4.7c0.4,1,1.1,1.8,2,2.3c1.1,0.6,2.3,0.9,3.6,0.8
	c2.4,0,4.1-0.6,5.1-1.6s1.5-3.2,1.5-6.3v-14.2L489.9,151z"/>
<path class="st3" d="M478.5,201.5l9.5-24.7h3.5l10.1,24.7h-3.7L495,194h-10.4l-2.7,7.5h-3.5H478.5z M485.6,191.4h8.4l-2.6-6.8
	c-0.8-2.1-1.4-3.8-1.8-5.1c-0.3,1.6-0.8,3.2-1.3,4.7L485.6,191.4L485.6,191.4z"/>
<path class="st3" d="M523.7,192.9l3.3,0.8c-0.5,2.4-1.8,4.6-3.7,6.1c-1.9,1.4-4.2,2.2-6.5,2.1c-2.3,0.1-4.5-0.5-6.5-1.6
	c-1.7-1.1-3-2.8-3.8-4.7c-0.9-2.1-1.3-4.3-1.3-6.6s0.4-4.6,1.5-6.7c0.9-1.9,2.4-3.4,4.2-4.4c1.8-1,3.9-1.5,6-1.5
	c2.2,0,4.4,0.6,6.2,1.9c1.7,1.3,3,3.2,3.5,5.3l-3.2,0.8c-0.4-1.5-1.3-2.9-2.5-3.9c-1.2-0.9-2.6-1.3-4.1-1.2c-1.7,0-3.4,0.4-4.8,1.4
	c-1.3,0.9-2.2,2.2-2.7,3.7s-0.8,3.1-0.8,4.7c0,1.9,0.3,3.7,0.9,5.5c0.5,1.5,1.5,2.7,2.8,3.5c1.3,0.8,2.7,1.2,4.2,1.2
	c1.7,0,3.3-0.5,4.6-1.6c1.4-1.2,2.3-2.9,2.6-4.7L523.7,192.9z"/>
<path class="st3" d="M549.6,192.9l3.3,0.8c-0.5,2.4-1.8,4.6-3.7,6.1c-1.9,1.4-4.2,2.2-6.5,2.1c-2.3,0.1-4.5-0.5-6.5-1.6
	c-1.7-1.1-3-2.8-3.8-4.7c-0.9-2.1-1.3-4.3-1.3-6.6s0.4-4.6,1.5-6.7c0.9-1.9,2.4-3.4,4.2-4.4s3.9-1.5,6-1.5c2.2,0,4.4,0.6,6.2,1.9
	c1.7,1.3,3,3.2,3.5,5.3l-3.2,0.8c-0.4-1.5-1.3-2.9-2.5-3.9c-1.2-0.9-2.6-1.3-4.1-1.2c-1.7,0-3.4,0.4-4.8,1.4
	c-1.3,0.9-2.2,2.2-2.7,3.7s-0.8,3.1-0.8,4.7c0,1.9,0.3,3.7,0.9,5.5c0.5,1.5,1.5,2.7,2.9,3.5c1.3,0.8,2.7,1.2,4.2,1.2
	c1.7,0,3.3-0.5,4.6-1.6c1.4-1.2,2.3-2.9,2.5-4.7L549.6,192.9z"/>
<path class="st4" d="M575.5,186.4l3.3,0.8c-0.5,2.4-1.8,4.6-3.7,6.1c-1.9,1.4-4.2,2.2-6.5,2.1c-2.3,0.1-4.5-0.5-6.5-1.6
	c-1.7-1.1-3-2.8-3.8-4.7c-0.9-2.1-1.3-4.3-1.3-6.6s0.4-4.6,1.5-6.7c0.9-1.8,2.4-3.4,4.2-4.4s3.9-1.5,6-1.5c2.2,0,4.4,0.6,6.2,1.9
	c1.7,1.3,3,3.2,3.5,5.3l-3.2,0.8c-0.4-1.5-1.3-2.9-2.5-3.9c-1.2-0.9-2.6-1.3-4.1-1.2c-1.7,0-3.4,0.4-4.8,1.4
	c-1.3,0.9-2.2,2.2-2.7,3.7s-0.8,3.1-0.8,4.7c0,1.9,0.3,3.7,0.9,5.5c0.5,1.5,1.5,2.7,2.8,3.5s2.7,1.2,4.2,1.2c1.7,0,3.3-0.5,4.7-1.6
	c1.4-1.2,2.3-2.9,2.5-4.7L575.5,186.4z"/>
<path class="st4" d="M600,176.9h3.3v14.2c0,2-0.2,4-0.8,5.9c-0.6,1.5-1.6,2.7-3,3.6c-1.8,1-3.7,1.5-5.8,1.4c-2,0-3.9-0.3-5.7-1.2
	c-1.4-0.7-2.5-2-3.1-3.4c-0.7-2-1.1-4.1-1-6.2V177h3.3v14.2c0,1.6,0.1,3.2,0.6,4.7c0.4,1,1.1,1.8,2.1,2.4c1.1,0.6,2.3,0.9,3.5,0.8
	c2.4,0,4.1-0.5,5.1-1.6s1.5-3.2,1.5-6.3L600,176.9L600,176.9z"/>
<path class="st4" d="M601.6,221l9.4-24.7h3.5l10.1,24.7h-3.7l-2.9-7.5h-10.3L605,221H601.6L601.6,221z M608.7,210.9h8.4l-2.6-6.9
	c-0.8-2.1-1.4-3.8-1.8-5.1c-0.3,1.6-0.8,3.2-1.3,4.7L608.7,210.9L608.7,210.9z"/>
<path class="st4" d="M600.9,243.7v-2.9h10.4v9.1c-1.5,1.2-3.2,2.2-5,2.9c-1.7,0.6-3.5,1-5.2,1c-2.3,0-4.6-0.5-6.6-1.6
	c-1.9-1-3.5-2.6-4.5-4.5c-1-2-1.5-4.3-1.5-6.6s0.5-4.6,1.5-6.7c0.9-2,2.4-3.6,4.3-4.6c2-1,4.2-1.6,6.5-1.5c1.7,0,3.3,0.3,4.8,0.9
	c1.3,0.5,2.5,1.3,3.4,2.4c0.9,1.2,1.5,2.6,1.9,4l-2.9,0.8c-0.3-1.1-0.7-2.1-1.4-3c-0.6-0.8-1.4-1.4-2.4-1.7
	c-1.1-0.4-2.2-0.7-3.4-0.6c-1.3,0-2.6,0.2-3.9,0.7c-1,0.4-1.9,1-2.6,1.8c-0.7,0.7-1.2,1.5-1.5,2.4c-0.7,1.6-1,3.3-1,5
	c0,1.9,0.3,3.8,1.1,5.5c0.7,1.4,1.9,2.6,3.3,3.3c1.4,0.7,3,1.1,4.6,1.1c2.6,0,5.1-0.9,7.2-2.6v-4.6h-7.2L600.9,243.7z"/>
<path class="st4" d="M580.6,235.2h3.3v14.2c0,2-0.2,4-0.8,5.9c-0.6,1.5-1.6,2.7-3,3.5c-1.8,1-3.7,1.5-5.8,1.4c-2,0-3.9-0.3-5.7-1.2
	c-1.4-0.7-2.5-2-3.2-3.5c-0.7-2-1-4.1-0.9-6.2v-14.2h3.3v14.2c0,1.6,0.1,3.2,0.6,4.7c0.4,1,1.1,1.8,2,2.4c1.1,0.6,2.3,0.9,3.6,0.8
	c2.4,0,4.1-0.5,5.1-1.6s1.5-3.2,1.5-6.3v-14.2L580.6,235.2z"/>
<line class="st2" x1="574.3" y1="263.6" x2="574.3" y2="280.8"/>
<path class="st3" d="M542.6,243.7v-2.9H553v9.1c-1.5,1.2-3.2,2.2-5,2.9c-1.7,0.6-3.5,1-5.2,1c-2.3,0-4.6-0.5-6.6-1.6
	c-1.9-1-3.5-2.6-4.5-4.5c-1-2-1.6-4.3-1.5-6.6c0-2.3,0.5-4.6,1.5-6.7c0.9-2,2.4-3.6,4.3-4.6c2-1,4.2-1.6,6.5-1.5
	c1.7,0,3.3,0.3,4.8,0.9c1.3,0.5,2.5,1.3,3.4,2.4c0.9,1.2,1.5,2.6,1.9,4l-2.9,0.8c-0.3-1.1-0.7-2.1-1.4-3c-0.6-0.8-1.4-1.4-2.3-1.7
	c-1.1-0.4-2.2-0.7-3.4-0.6c-1.3,0-2.6,0.2-3.9,0.7c-1,0.4-1.9,1-2.6,1.8c-0.7,0.7-1.2,1.5-1.5,2.4c-0.6,1.6-1,3.3-0.9,5
	c0,1.9,0.3,3.8,1.1,5.5c0.7,1.4,1.9,2.6,3.3,3.3c1.4,0.7,3,1.1,4.6,1.1c2.6,0,5.1-0.9,7.2-2.6v-4.6L542.6,243.7L542.6,243.7z"/>
<path class="st3" d="M516.7,243.7v-2.9h10.5v9.1c-1.5,1.2-3.2,2.2-5,2.9c-1.7,0.6-3.5,1-5.2,1c-2.3,0-4.6-0.5-6.6-1.6
	c-1.9-1-3.5-2.6-4.5-4.5c-1-2-1.5-4.3-1.5-6.6s0.5-4.6,1.5-6.7c0.9-2,2.4-3.6,4.3-4.6c2-1,4.3-1.6,6.5-1.5c1.7,0,3.3,0.3,4.8,0.9
	c1.3,0.5,2.5,1.3,3.4,2.4c0.9,1.2,1.5,2.6,1.9,4l-3,0.8c-0.3-1.1-0.7-2.1-1.4-3c-0.6-0.8-1.4-1.4-2.4-1.7c-1.1-0.4-2.2-0.7-3.4-0.6
	c-1.3,0-2.6,0.2-3.9,0.7c-1,0.4-1.9,1-2.6,1.8c-0.7,0.7-1.2,1.5-1.5,2.4c-0.6,1.6-1,3.3-1,5c0,1.9,0.3,3.8,1.1,5.5
	c0.7,1.4,1.9,2.6,3.3,3.3c1.4,0.7,3,1.1,4.6,1.1c1.4,0,2.8-0.3,4.1-0.8c1.1-0.4,2.1-1,3.1-1.7v-4.6h-7.2L516.7,243.7z"/>
<path class="st3" d="M496.4,228.7h3.3V243c0,2-0.2,4-0.8,5.9c-0.6,1.5-1.6,2.7-3,3.6c-1.8,1-3.7,1.5-5.8,1.4c-2,0-3.9-0.3-5.7-1.2
	c-1.4-0.7-2.5-2-3.1-3.5c-0.7-2-1-4.1-0.9-6.2v-14.3h3.3v14.2c0,1.6,0.1,3.2,0.6,4.7c0.4,1,1.1,1.8,2.1,2.4c1.1,0.6,2.3,0.9,3.6,0.8
	c2.4,0,4.1-0.5,5.1-1.6s1.5-3.2,1.5-6.3v-14.2L496.4,228.7z"/>
<path class="st1" d="M465.4,244.7l3.3,0.8c-0.5,2.4-1.8,4.6-3.7,6.1c-1.9,1.4-4.2,2.2-6.5,2.1c-2.3,0-4.5-0.5-6.5-1.6
	c-1.7-1.1-3-2.8-3.8-4.7c-0.9-2.1-1.3-4.3-1.3-6.6s0.4-4.6,1.5-6.7c0.9-1.9,2.4-3.4,4.2-4.4c1.8-1,3.9-1.5,6-1.5
	c2.2,0,4.4,0.6,6.2,1.9c1.7,1.3,3,3.2,3.5,5.3l-3.2,0.8c-0.4-1.5-1.3-2.9-2.5-3.9c-1.2-0.9-2.6-1.3-4.1-1.2c-1.7,0-3.4,0.4-4.8,1.4
	c-1.3,0.9-2.2,2.2-2.7,3.7s-0.8,3.1-0.8,4.7c0,1.9,0.3,3.7,0.9,5.5c0.5,1.5,1.5,2.7,2.9,3.5c1.3,0.8,2.7,1.2,4.2,1.2
	c1.7,0,3.3-0.5,4.6-1.6c1.4-1.2,2.3-2.9,2.6-4.7L465.4,244.7z"/>
<line class="st2" x1="490.1" y1="203.9" x2="490.1" y2="223.9"/>
<line class="st2" x1="516" y1="203.9" x2="516" y2="223.9"/>
<line class="st2" x1="541.9" y1="203.9" x2="541.9" y2="223.9"/>
<line class="st2" x1="314.9" y1="224.5" x2="314.9" y2="203.5"/>
<g>
	<text transform="matrix(0.9985 -5.407881e-02 5.407881e-02 0.9985 194.6 204.3)" class="st5 st6">5</text>
	<text transform="matrix(0.9985 -5.407881e-02 5.407881e-02 0.9985 213 203.3)" class="st5 st6">’</text>
</g>
<g>
	<text transform="matrix(0.9985 -5.407881e-02 5.407881e-02 0.9985 194.6 255.1)" class="st5 st6">3</text>
	<text transform="matrix(0.9985 -5.407881e-02 5.407881e-02 0.9985 213 254.1)" class="st5 st6">’</text>
</g>
<g>
	<text transform="matrix(1 0 0 1 27.4873 48.7441)" class="st5 st7">XB</text>
	<text transform="matrix(1 0 0 1 64.8873 48.7441)" class="st5 st7">A</text>
	<text transform="matrix(1 0 0 1 81.9873 48.7441)" class="st5 st7"> RN</text>
	<text transform="matrix(1 0 0 1 130.1873 48.7441)" class="st5 st7">A aptamer</text>
</g>
<text transform="matrix(1 0 0 1 278.4 293.3)" class="st5 st8">30</text>
<text transform="matrix(1 0 0 1 433.1 66)" class="st5 st8">10</text>
<text transform="matrix(1 0 0 1 564.5 304.3)" class="st5 st8">20</text>
</svg>
