<svg id="图层_1" data-name="图层 1" xmlns="http://www.w3.org/2000/svg" viewBox="0 0 800 400"><defs><style>.cls-1{fill:#ff0;}.cls-10,.cls-11,.cls-12,.cls-13,.cls-14,.cls-19,.cls-2,.cls-20,.cls-21,.cls-22,.cls-3,.cls-4,.cls-5,.cls-6,.cls-8,.cls-9{isolation:isolate;}.cls-2{font-size:14.01px;}.cls-10,.cls-11,.cls-12,.cls-13,.cls-14,.cls-2,.cls-20,.cls-21,.cls-22,.cls-3,.cls-5,.cls-6,.cls-8,.cls-9{font-family:ArialMT, Arial;}.cls-10,.cls-11,.cls-12,.cls-13,.cls-14,.cls-3,.cls-5,.cls-6,.cls-9{font-size:31px;}.cls-3{fill:#0a0b9b;}.cls-4{fill:#0a0bff;opacity:0.5;}.cls-5,.cls-6{fill:#80db9e;}.cls-10,.cls-11,.cls-6,.cls-9{letter-spacing:-0.12em;}.cls-15,.cls-7{fill:none;}.cls-15,.cls-16,.cls-17,.cls-18,.cls-7{stroke:#000;stroke-miterlimit:2.19;}.cls-16,.cls-17,.cls-7{stroke-width:0.27px;}.cls-20,.cls-8{font-size:24px;}.cls-12,.cls-9{fill:#ff870a;}.cls-10,.cls-14{fill:#c2c2ff;}.cls-11,.cls-13,.cls-17{fill:#006b93;}.cls-15{stroke-width:0.75px;}.cls-18{fill:#fff;}.cls-20{letter-spacing:-0.08em;}.cls-21,.cls-22{font-size:20px;}.cls-22{letter-spacing:-0.06em;}</style></defs><ellipse class="cls-1" cx="199.1" cy="264.79" rx="15.72" ry="37.74" transform="translate(-40.57 36.07) rotate(-9.4)"/><text class="cls-2" transform="translate(210.14 296.41) rotate(-99.18)">YO3-biotin</text><g id="ID000011"><text class="cls-3" transform="translate(213.49 314.29)">G</text></g><g id="ID000028"><text class="cls-3" transform="translate(213.49 235.34)">G</text></g><polygon class="cls-4" points="267.72 322.38 228.91 304 228.91 230.84 267.72 249.22 267.72 322.38"/><g id="ID000010"><text class="cls-3" transform="translate(321.15 314.29)">G</text></g><g id="ID000030"><text class="cls-3" transform="translate(321.15 235.34)">G</text></g><polygon class="cls-4" points="375.89 324.26 337.08 305.88 337.08 232.72 375.89 251.09 375.89 324.26"/><g id="ID000002"><text class="cls-5" transform="translate(605.67 316.06)">G</text></g><g id="ID000003"><text class="cls-5" transform="translate(577.77 316.06)">C</text></g><g id="ID000004"><text class="cls-5" transform="translate(549.06 316.06)">U</text></g><g id="ID000005"><text class="cls-6" transform="translate(521.15 316.06)">A</text></g><g id="ID000006"><text class="cls-5" transform="translate(491.64 316.06)">C</text></g><g id="ID000007"><text class="cls-5" transform="translate(462.12 316.06)">G</text></g><g id="ID000008"><text class="cls-6" transform="translate(435.02 316.06)">A</text></g><g id="ID000009"><text class="cls-6" transform="translate(406.31 316.06)">A</text></g><g id="ID000012"><line class="cls-7" x1="212.79" y1="301.37" x2="147.4" y2="301.37"/></g><g id="ID000013"><text class="cls-8" transform="translate(118.8 308.8)">10</text></g><g id="ID000014"><text class="cls-9" transform="translate(179.21 199.45)">A</text></g><g id="ID000015"><text class="cls-10" transform="translate(272.51 199.45)">A</text></g><g id="ID000016"><text class="cls-3" transform="translate(364.21 335.82)">G</text></g><g id="ID000017"><text class="cls-3" transform="translate(256.55 335.82)">G</text></g><g id="ID000018"><text class="cls-11" transform="translate(179.21 335.82)">A</text></g><g id="ID000019"><text class="cls-12" transform="translate(257.36 386.06)">U</text></g><g id="ID000020"><text class="cls-12" transform="translate(365.02 386.06)">U</text></g><g id="ID000021"><text class="cls-3" transform="translate(364.21 256.87)">G</text></g><g id="ID000022"><text class="cls-3" transform="translate(256.55 256.87)">G</text></g><g id="ID000023"><text class="cls-13" transform="translate(257.36 156.39)">U</text></g><g id="ID000024"><line class="cls-7" x1="279.33" y1="143.47" x2="453.9" y2="143.47"/></g><g id="ID000025"><text class="cls-8" transform="translate(453.01 151.76)">20</text></g><g id="ID000026"><text class="cls-11" transform="translate(236.63 156.39)">A</text></g><g id="ID000027"><text class="cls-13" transform="translate(156.88 235.34)">U</text></g><g id="ID000029"><text class="cls-14" transform="translate(271.71 235.34)">U</text></g><g id="ID000031"><text class="cls-13" transform="translate(321.15 113.32)">G</text></g><g id="ID000032"><text class="cls-13" transform="translate(257.36 113.32)">U</text></g><g id="ID000033"><text class="cls-11" transform="translate(236.63 113.32)">A</text></g><g id="ID000034"><text class="cls-13" transform="translate(221.47 84.61)">U</text></g><g id="ID000035"><text class="cls-9" transform="translate(407.7 84.61)">A</text></g><g id="ID000036"><line class="cls-7" x1="424.53" y1="72.69" x2="443.67" y2="72.69"/></g><g id="ID000037"><text class="cls-8" transform="translate(442.67 80.61)">30</text></g><g id="ID000038"><text class="cls-5" transform="translate(407.54 258.95)">U</text></g><g id="ID000039"><text class="cls-5" transform="translate(436.25 258.95)">U</text></g><g id="ID000040"><text class="cls-5" transform="translate(464.96 258.95)">C</text></g><g id="ID000041"><text class="cls-5" transform="translate(492.86 258.95)">G</text></g><g id="ID000042"><text class="cls-5" transform="translate(522.38 258.95)">U</text></g><g id="ID000043"><text class="cls-6" transform="translate(551.89 258.95)">A</text></g><g id="ID000044"><text class="cls-5" transform="translate(578.99 258.95)">G</text></g><g id="ID000045"><text class="cls-5" transform="translate(608.5 258.95)">C</text></g><g id="ID000046"><line class="cls-7" x1="618.14" y1="258.47" x2="618.14" y2="292.92"/></g><g id="ID000047"><line class="cls-7" x1="589.43" y1="258.47" x2="589.43" y2="292.92"/></g><g id="ID000048"><line class="cls-7" x1="560.72" y1="258.47" x2="560.72" y2="292.92"/></g><g id="ID000049"><line class="cls-7" x1="532.01" y1="258.47" x2="532.01" y2="292.92"/></g><g id="ID000050"><line class="cls-7" x1="503.3" y1="258.47" x2="503.3" y2="292.92"/></g><g id="ID000051"><line class="cls-7" x1="474.59" y1="258.47" x2="474.59" y2="292.92"/></g><g id="ID000052"><line class="cls-7" x1="445.89" y1="258.47" x2="445.89" y2="292.92"/></g><g id="ID000053"><line class="cls-7" x1="417.04" y1="259.38" x2="417.04" y2="293.83"/></g><g id="ID000054"><line class="cls-15" x1="267.85" y1="232.46" x2="267.85" y2="154.95"/></g><g id="ID000055"><polygon class="cls-16" points="263.54 206.32 265.69 203.93 266.41 201.54 266.77 199.15 267.85 194.36 268.92 199.15 269.28 201.54 270 203.93 272.15 206.32 263.54 206.32"/></g><g id="ID000057"><line class="cls-15" x1="320.96" y1="301.37" x2="236.27" y2="301.37"/></g><g id="ID000058"><polygon class="cls-16" points="282.23 305.67 279.83 303.52 277.44 302.8 275.05 302.44 270.26 301.37 275.05 300.29 277.44 299.93 279.83 299.21 282.23 297.06 282.23 305.67"/></g><g id="ID000059"><line class="cls-15" x1="410.28" y1="301.85" x2="344.26" y2="302.07"/></g><g id="ID000060"><polygon class="cls-16" points="390.33 305.67 387.9 303.56 385.5 302.88 383.1 302.56 378.3 301.57 383.06 300.41 385.45 300.01 387.83 299.25 390.19 297.06 390.33 305.67"/></g><g id="ID000061"><line class="cls-15" x1="288.69" y1="196.01" x2="369.02" y2="313.42"/></g><g id="ID000062"><polygon class="cls-16" points="329.62 248.1 329.19 251.29 329.95 253.67 331 255.85 332.82 260.4 329.23 257.06 327.58 255.29 325.64 253.72 322.51 252.97 329.62 248.1"/></g><g id="ID000063"><line class="cls-15" x1="364.02" y1="322.9" x2="279.33" y2="322.9"/></g><g id="ID000064"><polygon class="cls-16" points="325.29 327.2 322.9 325.05 320.51 324.33 318.11 323.97 313.33 322.9 318.11 321.82 320.51 321.46 322.9 320.75 325.29 318.59 325.29 327.2"/></g><g id="ID000065"><line class="cls-15" x1="196.07" y1="186.53" x2="274.01" y2="186.53"/></g><g id="ID000066"><polygon class="cls-16" points="231.93 182.22 234.32 184.38 236.72 185.09 239.11 185.45 243.9 186.53 239.11 187.61 236.72 187.97 234.32 188.68 231.93 190.84 231.93 182.22"/></g><g id="ID000067"><line class="cls-15" x1="221.36" y1="290.41" x2="192.32" y2="197.49"/></g><g id="ID000068"><polygon class="cls-16" points="204.57 250.31 205.91 247.39 205.88 244.89 205.51 242.5 205.11 237.61 207.57 241.86 208.62 244.04 210.02 246.1 212.79 247.75 204.57 250.31"/></g><g id="ID000069"><path class="cls-15" d="M399,375.06V246.62"/></g><g id="ID000070"><polygon class="cls-16" points="394.8 328.88 396.95 326.49 397.67 324.09 398.03 321.7 399.11 316.92 400.18 321.7 400.54 324.09 401.26 326.49 403.41 328.88 394.8 328.88"/></g><g id="ID000071"><line class="cls-15" x1="364.02" y1="243.95" x2="279.33" y2="243.95"/></g><g id="ID000072"><polygon class="cls-16" points="346.29 248.25 343.9 246.1 341.51 245.38 339.11 245.02 334.33 243.95 339.11 242.87 341.51 242.51 343.9 241.79 346.29 239.64 346.29 248.25"/></g><g id="ID000073"><line class="cls-15" x1="332.44" y1="210.93" x2="332.44" y2="111.89"/></g><g id="ID000074"><polygon class="cls-16" points="328.13 179.02 330.29 176.63 331.01 174.24 331.37 171.85 332.44 167.06 333.52 171.85 333.88 174.24 334.6 176.63 336.75 179.02 328.13 179.02"/></g><g id="ID000075"><line class="cls-15" x1="178.85" y1="222.42" x2="213.3" y2="222.42"/></g><g id="ID000076"><polygon class="cls-16" points="185.46 218.11 187.85 220.26 190.24 220.98 192.63 221.34 197.42 222.42 192.63 223.49 190.24 223.85 187.85 224.57 185.46 226.72 185.46 218.11"/></g><g id="ID000077"><line class="cls-7" x1="199.98" y1="325.88" x2="364.42" y2="370.15"/></g><g id="ID000078"><polygon class="cls-16" points="270.89 344.61 275.46 349.18 277.13 342.95 270.89 344.61"/></g><g id="ID000079"><polygon class="cls-16" points="290.18 350.7 290.22 350.53 290.25 350.35 290.27 350.17 290.28 349.99 290.27 349.8 290.26 349.62 290.23 349.44 290.19 349.26 290.14 349.09 290.08 348.92 290.01 348.75 289.93 348.58 289.84 348.43 289.74 348.28 289.62 348.13 289.5 348 289.38 347.87 289.24 347.75 289.1 347.63 288.94 347.53 288.79 347.44 288.63 347.36 288.46 347.29 288.29 347.23 288.11 347.18 287.93 347.14 287.75 347.11 287.57 347.09 287.39 347.09 287.21 347.1 287.03 347.11 286.85 347.14 286.67 347.19 286.49 347.24 286.32 347.3 286.16 347.38 286 347.46 285.84 347.55 285.69 347.66 285.55 347.77 285.41 347.89 285.29 348.02 285.17 348.16 285.06 348.31 284.96 348.46 284.87 348.62 284.79 348.78 284.72 348.95 284.66 349.12 284.61 349.3 284.58 349.48 284.55 349.66 284.54 349.84 284.54 350.02 284.55 350.2 284.57 350.39 284.6 350.56 284.65 350.74 284.7 350.92 284.77 351.08 284.85 351.25 284.93 351.41 285.03 351.56 285.14 351.71 285.25 351.85 285.38 351.99 285.51 352.11 285.65 352.23 285.8 352.33 285.95 352.43 286.11 352.52 286.27 352.6 286.44 352.66 286.62 352.72 286.8 352.76 286.97 352.8 287.15 352.82 287.34 352.83 287.52 352.83 287.7 352.81 287.88 352.79 288.06 352.75 288.24 352.71 288.41 352.65 288.58 352.58 288.74 352.5 288.9 352.41 289.05 352.31 289.2 352.2 289.34 352.08 289.47 351.96 289.59 351.82 289.7 351.68 289.81 351.53 289.9 351.38 289.99 351.22 290.06 351.05 290.13 350.88 290.18 350.7"/></g><g id="ID000080"><line class="cls-17" x1="247.31" y1="131.98" x2="247.31" y2="111.89"/></g><g id="ID000081"><polygon class="cls-18" points="244.44 119.06 244.44 124.81 250.19 124.81 250.19 119.06 244.44 119.06"/></g><g id="ID000082"><line class="cls-7" x1="282.2" y1="195.71" x2="282.2" y2="217.49"/></g><g id="ID000083"><polygon class="cls-18" points="279.33 200.14 279.33 205.88 285.07 205.88 285.07 200.14 279.33 200.14"/></g><g id="ID000084"><polygon class="cls-18" points="282.2 213.81 282.38 213.8 282.56 213.78 282.74 213.76 282.92 213.72 283.1 213.66 283.27 213.6 283.43 213.53 283.6 213.45 283.75 213.35 283.9 213.25 284.05 213.14 284.18 213.01 284.31 212.88 284.43 212.75 284.54 212.6 284.64 212.45 284.73 212.29 284.81 212.13 284.88 211.96 284.94 211.79 284.99 211.61 285.03 211.44 285.05 211.25 285.07 211.07 285.07 210.89 285.06 210.71 285.04 210.53 285.01 210.35 284.97 210.17 284.91 210 284.85 209.83 284.77 209.66 284.69 209.5 284.59 209.35 284.49 209.2 284.37 209.06 284.25 208.92 284.12 208.8 283.98 208.68 283.83 208.57 283.68 208.47 283.52 208.39 283.35 208.31 283.18 208.24 283.01 208.18 282.83 208.14 282.65 208.1 282.47 208.08 282.29 208.07 282.11 208.07 281.93 208.08 281.75 208.1 281.57 208.14 281.39 208.18 281.22 208.24 281.05 208.31 280.88 208.39 280.73 208.47 280.57 208.57 280.43 208.68 280.29 208.8 280.15 208.92 280.03 209.06 279.92 209.2 279.81 209.35 279.71 209.5 279.63 209.66 279.55 209.83 279.49 210 279.43 210.17 279.39 210.35 279.36 210.53 279.34 210.71 279.33 210.89 279.33 211.07 279.35 211.25 279.37 211.44 279.41 211.61 279.46 211.79 279.52 211.96 279.59 212.13 279.67 212.29 279.76 212.45 279.86 212.6 279.97 212.75 280.09 212.88 280.22 213.01 280.36 213.14 280.5 213.25 280.65 213.35 280.81 213.45 280.97 213.53 281.13 213.6 281.31 213.66 281.48 213.72 281.66 213.76 281.84 213.78 282.02 213.8 282.2 213.81"/></g><g id="ID000085"><line class="cls-7" x1="186.49" y1="311.67" x2="169.77" y2="233.64"/></g><g id="ID000086"><polygon class="cls-18" points="177.53 269.85 177.35 269.89 177.18 269.95 177.01 270.01 176.84 270.09 176.68 270.18 176.53 270.27 176.38 270.38 176.24 270.5 176.11 270.62 175.98 270.75 175.87 270.89 175.76 271.04 175.66 271.19 175.57 271.35 175.5 271.52 175.43 271.69 175.37 271.86 175.33 272.04 175.29 272.22 175.27 272.4 175.26 272.58 175.26 272.76 175.27 272.94 175.3 273.12 175.33 273.3 175.38 273.48 175.44 273.65 175.51 273.82 175.59 273.99 175.67 274.14 175.77 274.3 175.88 274.44 176 274.58 176.13 274.71 176.26 274.84 176.4 274.95 176.55 275.06 176.71 275.15 176.87 275.24 177.03 275.31 177.21 275.37 177.38 275.43 177.56 275.47 177.74 275.5 177.92 275.52 178.1 275.53 178.28 275.52 178.46 275.51 178.64 275.48 178.82 275.44 179 275.39 179.17 275.33 179.34 275.26 179.5 275.18 179.66 275.09 179.81 274.99 179.95 274.88 180.09 274.76 180.22 274.63 180.34 274.49 180.45 274.35 180.55 274.2 180.65 274.04 180.73 273.88 180.8 273.71 180.86 273.54 180.91 273.36 180.95 273.19 180.98 273.01 181 272.82 181 272.64 181 272.46 180.98 272.28 180.95 272.1 180.91 271.92 180.85 271.75 180.79 271.58 180.72 271.41 180.63 271.25 180.54 271.09 180.43 270.94 180.32 270.8 180.2 270.67 180.07 270.54 179.93 270.42 179.78 270.31 179.63 270.21 179.47 270.12 179.31 270.04 179.14 269.97 178.97 269.91 178.79 269.86 178.62 269.83 178.44 269.8 178.25 269.79 178.07 269.79 177.89 269.8 177.71 269.82 177.53 269.85"/></g><g id="ID000087"><line class="cls-7" x1="268.85" y1="132.98" x2="268.85" y2="112.89"/></g><g id="ID000088"><polygon class="cls-18" points="268.85 119.06 268.66 119.07 268.48 119.08 268.3 119.11 268.13 119.15 267.95 119.2 267.78 119.27 267.61 119.34 267.45 119.42 267.29 119.52 267.14 119.62 267 119.73 266.87 119.86 266.74 119.98 266.62 120.12 266.51 120.27 266.41 120.42 266.31 120.58 266.23 120.74 266.16 120.91 266.11 121.08 266.06 121.26 266.02 121.43 265.99 121.61 265.98 121.8 265.98 121.98 265.98 122.16 266 122.34 266.04 122.52 266.08 122.7 266.13 122.87 266.2 123.04 266.27 123.21 266.36 123.37 266.46 123.52 266.56 123.67 266.68 123.81 266.8 123.95 266.93 124.07 267.07 124.19 267.22 124.3 267.37 124.4 267.53 124.48 267.69 124.56 267.86 124.63 268.04 124.69 268.21 124.73 268.39 124.77 268.57 124.79 268.75 124.8 268.94 124.8 269.12 124.79 269.3 124.77 269.48 124.73 269.65 124.69 269.83 124.63 270 124.56 270.16 124.48 270.32 124.4 270.47 124.3 270.62 124.19 270.76 124.07 270.89 123.95 271.02 123.81 271.13 123.67 271.24 123.52 271.33 123.37 271.42 123.21 271.49 123.04 271.56 122.87 271.61 122.7 271.66 122.52 271.69 122.34 271.71 122.16 271.72 121.98 271.71 121.8 271.7 121.61 271.67 121.43 271.64 121.26 271.59 121.08 271.53 120.91 271.46 120.74 271.38 120.58 271.29 120.42 271.19 120.27 271.07 120.12 270.95 119.98 270.83 119.86 270.69 119.73 270.55 119.62 270.4 119.52 270.24 119.42 270.08 119.34 269.91 119.27 269.74 119.2 269.57 119.15 269.39 119.11 269.21 119.08 269.03 119.07 268.85 119.06"/></g><g id="ID000089"><line class="cls-7" x1="321.4" y1="97.25" x2="243" y2="74.85"/></g><g id="ID000090"><polygon class="cls-16" points="292.14 88.89 292.18 88.71 292.22 88.53 292.24 88.35 292.25 88.17 292.25 87.99 292.23 87.8 292.21 87.62 292.17 87.44 292.13 87.27 292.07 87.1 292 86.93 291.92 86.76 291.83 86.61 291.73 86.45 291.62 86.31 291.5 86.17 291.38 86.04 291.24 85.91 291.1 85.8 290.95 85.7 290.8 85.6 290.63 85.52 290.47 85.44 290.3 85.38 290.12 85.33 289.94 85.28 289.76 85.25 289.58 85.23 289.4 85.23 289.22 85.23 289.04 85.25 288.86 85.27 288.68 85.31 288.5 85.36 288.33 85.42 288.17 85.5 288 85.58 287.85 85.67 287.69 85.77 287.55 85.88 287.41 86 287.29 86.13 287.17 86.27 287.05 86.41 286.95 86.56 286.86 86.72 286.78 86.88 286.7 87.05 286.64 87.22 286.59 87.4 286.55 87.58 286.53 87.75 286.51 87.94 286.51 88.12 286.51 88.3 286.53 88.48 286.56 88.66 286.6 88.84 286.66 89.01 286.72 89.18 286.79 89.35 286.88 89.51 286.97 89.67 287.08 89.82 287.19 89.96 287.31 90.09 287.44 90.22 287.58 90.34 287.73 90.45 287.88 90.55 288.04 90.64 288.2 90.72 288.37 90.79 288.55 90.84 288.72 90.89 288.9 90.93 289.08 90.95 289.26 90.97 289.44 90.97 289.63 90.96 289.81 90.94 289.99 90.9 290.16 90.86 290.34 90.8 290.51 90.74 290.67 90.66 290.83 90.57 290.99 90.48 291.13 90.37 291.27 90.25 291.41 90.13 291.53 90 291.65 89.86 291.75 89.71 291.85 89.55 291.94 89.39 292.02 89.23 292.08 89.06 292.14 88.89"/></g><g id="ID000091"><polygon class="cls-16" points="271.47 85.97 277 87.55 278.57 82.03 273.05 80.45 271.47 85.97"/></g><g id="ID000092"><line class="cls-7" x1="278.74" y1="240.32" x2="321.55" y2="226.05"/></g><g id="ID000093"><polygon class="cls-16" points="291.34 236.45 291.4 236.62 291.48 236.79 291.56 236.95 291.65 237.1 291.76 237.25 291.87 237.4 291.99 237.53 292.12 237.66 292.26 237.78 292.41 237.89 292.56 237.99 292.72 238.08 292.88 238.16 293.05 238.23 293.22 238.29 293.4 238.34 293.58 238.37 293.76 238.4 293.94 238.41 294.12 238.41 294.3 238.4 294.48 238.38 294.66 238.35 294.84 238.31 295.01 238.25 295.18 238.19 295.35 238.11 295.51 238.02 295.66 237.93 295.81 237.82 295.95 237.7 296.08 237.58 296.21 237.45 296.33 237.31 296.43 237.16 296.53 237.01 296.62 236.85 296.7 236.68 296.76 236.51 296.82 236.34 296.87 236.16 296.9 235.98 296.92 235.8 296.93 235.62 296.93 235.44 296.92 235.26 296.89 235.07 296.86 234.9 296.81 234.72 296.75 234.55 296.69 234.38 296.61 234.22 296.52 234.06 296.42 233.9 296.31 233.76 296.19 233.62 296.07 233.49 295.93 233.36 295.79 233.25 295.64 233.14 295.49 233.05 295.33 232.96 295.16 232.89 294.99 232.82 294.81 232.77 294.64 232.73 294.46 232.7 294.28 232.68 294.1 232.67 293.91 232.68 293.73 232.69 293.55 232.72 293.37 232.75 293.2 232.8 293.03 232.86 292.86 232.94 292.69 233.02 292.54 233.11 292.39 233.21 292.24 233.32 292.11 233.44 291.98 233.57 291.86 233.71 291.74 233.85 291.64 234 291.55 234.16 291.46 234.32 291.39 234.49 291.33 234.66 291.28 234.83 291.24 235.01 291.21 235.19 291.2 235.37 291.19 235.55 291.2 235.74 291.22 235.92 291.25 236.1 291.29 236.28 291.34 236.45"/></g><g id="ID000094"><polygon class="cls-16" points="305.04 228.19 299.59 230 301.41 235.45 306.86 233.64 305.04 228.19"/></g><g id="ID000095"><line class="cls-7" x1="343.71" y1="308.5" x2="366.23" y2="319.76"/></g><g id="ID000096"><polygon class="cls-16" points="349.73 311.51 349.65 311.68 349.59 311.85 349.53 312.02 349.49 312.2 349.46 312.38 349.44 312.56 349.43 312.74 349.43 312.92 349.44 313.1 349.47 313.28 349.5 313.46 349.55 313.64 349.61 313.81 349.68 313.98 349.76 314.14 349.85 314.3 349.95 314.45 350.06 314.6 350.18 314.74 350.31 314.87 350.44 314.99 350.59 315.1 350.74 315.2 350.89 315.3 351.05 315.38 351.22 315.46 351.39 315.52 351.57 315.57 351.74 315.61 351.92 315.64 352.11 315.66 352.29 315.67 352.47 315.66 352.65 315.64 352.83 315.62 353.01 315.58 353.18 315.52 353.36 315.46 353.52 315.39 353.68 315.31 353.84 315.21 353.99 315.11 354.13 315 354.27 314.88 354.4 314.75 354.52 314.61 354.63 314.47 354.73 314.32 354.82 314.16 354.9 314 354.98 313.83 355.04 313.66 355.08 313.48 355.12 313.3 355.15 313.12 355.16 312.94 355.17 312.76 355.16 312.58 355.14 312.4 355.11 312.22 355.07 312.04 355.01 311.87 354.95 311.69 354.87 311.53 354.79 311.37 354.69 311.21 354.59 311.06 354.47 310.92 354.35 310.79 354.22 310.66 354.08 310.54 353.93 310.44 353.78 310.34 353.62 310.25 353.46 310.17 353.29 310.1 353.12 310.04 352.94 310 352.76 309.96 352.58 309.94 352.4 309.93 352.22 309.93 352.03 309.94 351.85 309.96 351.68 309.99 351.5 310.04 351.32 310.09 351.16 310.16 350.99 310.24 350.83 310.33 350.68 310.42 350.53 310.53 350.39 310.65 350.26 310.77 350.13 310.91 350.02 311.05 349.91 311.2 349.82 311.35 349.73 311.51"/></g><g id="ID000097"><polygon class="cls-16" points="363.5 315.19 358.37 312.62 355.8 317.75 360.93 320.32 363.5 315.19"/></g><g id="ID000098"><line class="cls-7" x1="267.85" y1="311.41" x2="267.85" y2="255.43"/></g><g id="ID000099"><polygon class="cls-16" points="267.85 289.76 268.03 289.75 268.21 289.74 268.39 289.71 268.57 289.67 268.74 289.62 268.91 289.55 269.08 289.48 269.24 289.4 269.4 289.3 269.55 289.2 269.69 289.09 269.83 288.96 269.95 288.84 270.07 288.7 270.19 288.55 270.29 288.4 270.38 288.24 270.46 288.08 270.53 287.91 270.59 287.74 270.64 287.56 270.67 287.39 270.7 287.21 270.71 287.02 270.72 286.84 270.71 286.66 270.69 286.48 270.66 286.3 270.61 286.12 270.56 285.95 270.49 285.78 270.42 285.61 270.33 285.45 270.24 285.3 270.13 285.15 270.02 285.01 269.89 284.87 269.76 284.75 269.62 284.63 269.47 284.52 269.32 284.42 269.16 284.34 269 284.26 268.83 284.19 268.65 284.13 268.48 284.09 268.3 284.05 268.12 284.03 267.94 284.02 267.75 284.02 267.57 284.03 267.39 284.05 267.21 284.09 267.04 284.13 266.86 284.19 266.69 284.26 266.53 284.34 266.37 284.42 266.22 284.52 266.07 284.63 265.93 284.75 265.8 284.87 265.68 285.01 265.56 285.15 265.46 285.3 265.36 285.45 265.27 285.61 265.2 285.78 265.13 285.95 265.08 286.12 265.04 286.3 265 286.48 264.98 286.66 264.98 286.84 264.98 287.02 264.99 287.21 265.02 287.39 265.06 287.56 265.11 287.74 265.16 287.91 265.23 288.08 265.31 288.24 265.41 288.4 265.51 288.55 265.62 288.7 265.74 288.84 265.87 288.96 266 289.09 266.14 289.2 266.29 289.3 266.45 289.4 266.61 289.48 266.78 289.55 266.95 289.62 267.13 289.67 267.3 289.71 267.48 289.74 267.66 289.75 267.85 289.76"/></g><g id="ID000100"><polygon class="cls-16" points="264.98 273.09 264.98 278.83 270.72 278.83 270.72 273.09 264.98 273.09"/></g><g id="ID000101"><line class="cls-7" x1="375.51" y1="311.41" x2="375.51" y2="255.43"/></g><g id="ID000102"><polygon class="cls-16" points="375.5 289.76 375.69 289.75 375.87 289.74 376.05 289.71 376.23 289.67 376.4 289.62 376.57 289.55 376.74 289.48 376.9 289.4 377.06 289.3 377.21 289.2 377.35 289.09 377.49 288.96 377.61 288.84 377.73 288.7 377.84 288.55 377.94 288.4 378.04 288.24 378.12 288.08 378.19 287.91 378.25 287.74 378.3 287.56 378.33 287.39 378.36 287.21 378.37 287.02 378.38 286.84 378.37 286.66 378.35 286.48 378.31 286.3 378.27 286.12 378.22 285.95 378.15 285.78 378.08 285.61 377.99 285.45 377.89 285.3 377.79 285.15 377.68 285.01 377.55 284.87 377.42 284.75 377.28 284.63 377.13 284.52 376.98 284.42 376.82 284.34 376.66 284.26 376.49 284.19 376.31 284.13 376.14 284.09 375.96 284.05 375.78 284.03 375.6 284.02 375.41 284.02 375.23 284.03 375.05 284.05 374.87 284.09 374.7 284.13 374.52 284.19 374.35 284.26 374.19 284.34 374.03 284.42 373.88 284.52 373.73 284.63 373.59 284.75 373.46 284.87 373.33 285.01 373.22 285.15 373.12 285.3 373.02 285.45 372.93 285.61 372.86 285.78 372.79 285.95 372.74 286.12 372.69 286.3 372.66 286.48 372.64 286.66 372.63 286.84 372.64 287.02 372.65 287.21 372.68 287.39 372.71 287.56 372.76 287.74 372.82 287.91 372.89 288.08 372.98 288.24 373.07 288.4 373.17 288.55 373.28 288.7 373.4 288.84 373.52 288.96 373.66 289.09 373.8 289.2 373.95 289.3 374.11 289.4 374.27 289.48 374.44 289.55 374.61 289.62 374.78 289.67 374.96 289.71 375.14 289.74 375.32 289.75 375.5 289.76"/></g><g id="ID000103"><polygon class="cls-16" points="372.63 273.09 372.63 278.83 378.38 278.83 378.38 273.09 372.63 273.09"/></g><g id="ID000104"><line class="cls-7" x1="235.05" y1="306.5" x2="257.57" y2="317.76"/></g><g id="ID000105"><polygon class="cls-16" points="241.07 309.51 240.99 309.68 240.93 309.85 240.87 310.02 240.83 310.2 240.8 310.38 240.78 310.56 240.77 310.74 240.77 310.92 240.78 311.1 240.81 311.28 240.85 311.46 240.89 311.64 240.95 311.81 241.02 311.98 241.1 312.14 241.19 312.3 241.29 312.45 241.4 312.6 241.52 312.74 241.65 312.87 241.78 312.99 241.93 313.1 242.08 313.2 242.23 313.3 242.4 313.38 242.56 313.46 242.73 313.52 242.91 313.57 243.09 313.61 243.26 313.64 243.45 313.66 243.63 313.67 243.81 313.66 243.99 313.64 244.17 313.62 244.35 313.58 244.52 313.52 244.7 313.46 244.86 313.39 245.03 313.31 245.18 313.21 245.33 313.11 245.48 313 245.61 312.88 245.74 312.75 245.86 312.61 245.97 312.47 246.07 312.32 246.16 312.16 246.25 312 246.32 311.83 246.38 311.66 246.43 311.48 246.46 311.3 246.49 311.12 246.5 310.94 246.51 310.76 246.5 310.58 246.48 310.4 246.45 310.22 246.41 310.04 246.35 309.87 246.29 309.69 246.22 309.53 246.13 309.37 246.03 309.21 245.93 309.06 245.81 308.92 245.69 308.79 245.56 308.66 245.42 308.54 245.27 308.44 245.12 308.34 244.96 308.25 244.8 308.17 244.63 308.1 244.46 308.04 244.28 308 244.1 307.96 243.92 307.94 243.74 307.93 243.56 307.93 243.38 307.94 243.19 307.96 243.02 307.99 242.84 308.04 242.67 308.09 242.5 308.16 242.33 308.24 242.17 308.33 242.02 308.42 241.87 308.53 241.73 308.65 241.6 308.77 241.47 308.91 241.36 309.05 241.25 309.2 241.16 309.35 241.07 309.51"/></g><g id="ID000106"><polygon class="cls-16" points="254.84 313.19 249.71 310.62 247.14 315.75 252.27 318.32 254.84 313.19"/></g><g id="ID000107"><line class="cls-15" x1="236.27" y1="222.42" x2="270.72" y2="222.42"/></g><g id="ID000108"><polygon class="cls-16" points="249.88 218.11 252.27 220.26 254.66 220.98 257.05 221.34 261.84 222.42 257.05 223.49 254.66 223.85 252.27 224.57 249.88 226.72 249.88 218.11"/></g><g id="ID000109"><line class="cls-15" x1="291.68" y1="222.42" x2="320.96" y2="222.42"/></g><g id="ID000110"><polygon class="cls-16" points="295.71 218.11 298.1 220.26 300.49 220.98 302.88 221.34 307.67 222.42 302.88 223.49 300.49 223.85 298.1 224.57 295.71 226.72 295.71 218.11"/></g><g id="ID000111"><line class="cls-15" x1="256.36" y1="322.9" x2="200.38" y2="322.9"/></g><g id="ID000112"><polygon class="cls-16" points="231.99 327.2 229.59 325.05 227.2 324.33 224.81 323.97 220.02 322.9 224.81 321.82 227.2 321.46 229.59 320.75 231.99 318.59 231.99 327.2"/></g><g id="ID000113"><line class="cls-15" x1="198.58" y1="329.06" x2="258.16" y2="366.97"/></g><g id="ID000114"><polygon class="cls-16" points="226.5 341.66 227.36 344.76 228.99 346.65 230.82 348.23 234.28 351.71 229.66 350.05 227.45 349.07 225.04 348.39 221.87 348.92 226.5 341.66"/></g><g id="ID000115"><polyline class="cls-15" points="234.83 143.47 167.36 143.47 167.36 210.93"/></g><g id="ID000116"><polygon class="cls-16" points="204.71 147.77 202.32 145.62 199.93 144.9 197.53 144.54 192.75 143.47 197.53 142.39 199.93 142.03 202.32 141.31 204.71 139.16 204.71 147.77"/></g><g id="ID000117"><line class="cls-15" x1="243.44" y1="71.69" x2="409.84" y2="71.69"/></g><g id="ID000118"><polygon class="cls-16" points="318.06 67.39 320.45 69.54 322.85 70.26 325.24 70.62 330.02 71.69 325.24 72.77 322.85 73.13 320.45 73.85 318.06 76 318.06 67.39"/></g><g id="ID000119"><line class="cls-15" x1="416.39" y1="83.15" x2="418.68" y2="238"/></g><g id="ID000120"><polygon class="cls-16" points="420.7 98.71 418.57 101.12 417.87 103.52 417.54 105.92 416.5 110.71 415.38 105.94 415 103.55 414.26 101.16 412.09 98.79 420.7 98.71"/></g><g id="ID000121"><line class="cls-15" x1="320.96" y1="100.4" x2="279.33" y2="100.4"/></g><g id="ID000122"><polygon class="cls-16" points="303.76 104.71 301.37 102.56 298.97 101.84 296.58 101.48 291.8 100.4 296.58 99.33 298.97 98.97 301.37 98.25 303.76 96.1 303.76 104.71"/></g><g id="ID000123"><line class="cls-15" x1="279.33" y1="373.14" x2="364.02" y2="373.14"/></g><g id="ID000123-2"><line class="cls-15" x1="384.98" y1="374.64" x2="399" y2="374.64"/></g><g id="ID000123-3"><line class="cls-15" x1="386.34" y1="246.89" x2="399" y2="246.89"/></g><g id="ID000124"><polygon class="cls-16" points="318.06 368.83 320.45 370.99 322.85 371.7 325.24 372.06 330.02 373.14 325.24 374.21 322.85 374.57 320.45 375.29 318.06 377.44 318.06 368.83"/></g><g class="cls-19"><text class="cls-8" transform="translate(616.98 337.83)">5</text><text class="cls-20" transform="translate(630.33 337.83)">’</text></g><g class="cls-19"><text class="cls-8" transform="translate(616.98 231.38)">3</text><text class="cls-20" transform="translate(630.33 231.38)">’</text></g><g class="cls-19"><text class="cls-21" transform="translate(317.6 39.53)">Mango-III</text><text class="cls-22" transform="translate(402.08 39.53)"> </text><text class="cls-21" transform="translate(406.54 39.53)">Aptamer</text></g></svg>