<svg id="图层_1" data-name="图层 1" xmlns="http://www.w3.org/2000/svg" viewBox="0 0 800 800">
  <defs>
    <style>
      .cls-1 {
        fill: #4874cb;
      }

      .cls-1, .cls-10, .cls-11, .cls-12, .cls-13, .cls-14, .cls-15, .cls-16, .cls-3, .cls-4, .cls-5, .cls-6, .cls-7, .cls-8, .cls-9 {
        fill-rule: evenodd;
      }

      .cls-2, .cls-28, .cls-49 {
        fill: none;
      }

      .cls-2, .cls-28 {
        stroke: #fff;
        stroke-linejoin: round;
      }

      .cls-2 {
        stroke-width: 0.75px;
      }

      .cls-3 {
        fill: #ee822f;
      }

      .cls-4 {
        fill: #f2ba02;
      }

      .cls-5 {
        fill: #75bd42;
      }

      .cls-6 {
        fill: #30c0b4;
      }

      .cls-7 {
        fill: #e54c5e;
      }

      .cls-8 {
        fill: #ef949e;
      }

      .cls-9 {
        fill: #f5b482;
      }

      .cls-10 {
        fill: #fed961;
      }

      .cls-11 {
        fill: #fd5c0c;
      }

      .cls-12 {
        fill: #588e31;
      }

      .cls-13 {
        fill: #a01727;
      }

      .cls-14 {
        fill: #6d90d5;
      }

      .cls-15 {
        fill: #f19b59;
      }

      .cls-16 {
        fill: #fdcc2c;
      }

      .cls-17, .cls-19 {
        font-size: 19.76px;
      }

      .cls-17, .cls-19, .cls-21 {
        fill: #404040;
      }

      .cls-17, .cls-19, .cls-29, .cls-45 {
        font-family: Calibri;
      }

      .cls-18, .cls-19 {
        letter-spacing: 0.01em;
      }

      .cls-20 {
        letter-spacing: 0em;
      }

      .cls-21 {
        font-size: 34.37px;
        font-family: Calibri-Bold, Calibri;
        font-weight: 700;
      }

      .cls-22 {
        letter-spacing: 0em;
      }

      .cls-23 {
        letter-spacing: 0em;
      }

      .cls-24 {
        letter-spacing: -0.01em;
      }

      .cls-25 {
        letter-spacing: -0.01em;
      }

      .cls-26 {
        letter-spacing: 0em;
      }

      .cls-27 {
        letter-spacing: 0em;
      }

      .cls-28 {
        stroke-width: 0.6px;
      }

      .cls-29, .cls-45 {
        font-size: 17.19px;
        fill: #595959;
      }

      .cls-30 {
        letter-spacing: 0em;
      }

      .cls-31 {
        letter-spacing: 0em;
      }

      .cls-32 {
        letter-spacing: 0em;
      }

      .cls-33 {
        letter-spacing: 0em;
      }

      .cls-34 {
        letter-spacing: 0em;
      }

      .cls-35 {
        letter-spacing: 0em;
      }

      .cls-36 {
        letter-spacing: -0.02em;
      }

      .cls-37 {
        letter-spacing: -0.01em;
      }

      .cls-38 {
        letter-spacing: -0.01em;
      }

      .cls-39 {
        letter-spacing: -0.02em;
      }

      .cls-40 {
        letter-spacing: -0.01em;
      }

      .cls-41 {
        letter-spacing: -0.02em;
      }

      .cls-42 {
        letter-spacing: -0.02em;
      }

      .cls-43 {
        letter-spacing: -0.01em;
      }

      .cls-44 {
        letter-spacing: -0.01em;
      }

      .cls-45 {
        letter-spacing: -0.01em;
      }

      .cls-46 {
        letter-spacing: -0.01em;
      }

      .cls-47 {
        letter-spacing: -0.01em;
      }

      .cls-48 {
        letter-spacing: -0.09em;
      }

      .cls-49 {
        stroke: #000;
        stroke-miterlimit: 10;
        stroke-width: 0.5px;
      }
    </style>
  </defs>
  <path class="cls-1" d="M383.65,183.07A225.46,225.46,0,0,1,447,231.24l-82.65,76a113,113,0,0,0-31.68-24.08l51-100.05Z"/>
  <path class="cls-2" d="M383.65,183.07A225.46,225.46,0,0,1,447,231.24l-82.65,76a113,113,0,0,0-31.68-24.08l51-100.05Z"/>
  <path class="cls-3" d="M426.68,258a224.67,224.67,0,0,1,42.66,67.14l-104,42.47A112.28,112.28,0,0,0,344,334.08l82.7-76Z"/>
  <path class="cls-2" d="M426.68,258a224.67,224.67,0,0,1,42.66,67.14l-104,42.47A112.28,112.28,0,0,0,344,334.08l82.7-76Z"/>
  <path class="cls-4" d="M469.31,325.26a223.67,223.67,0,0,1,9.2,27.55l-108.6,28.63a111.34,111.34,0,0,0-4.6-13.78l104-42.4Z"/>
  <path class="cls-2" d="M469.31,325.26a223.67,223.67,0,0,1,9.2,27.55l-108.6,28.63a111.34,111.34,0,0,0-4.6-13.78l104-42.4Z"/>
  <path class="cls-5" d="M478.52,352.84a225.48,225.48,0,0,1,7.37,57.31c0,5-.16,10-.48,14.91l-112-7.57c.16-2.47.24-4.95.24-7.46a112.33,112.33,0,0,0-3.69-28.65l108.6-28.54Z"/>
  <path class="cls-2" d="M478.52,352.84a225.48,225.48,0,0,1,7.37,57.31c0,5-.16,10-.48,14.91l-112-7.57c.16-2.47.24-4.95.24-7.46a112.33,112.33,0,0,0-3.69-28.65l108.6-28.54Z"/>
  <path class="cls-6" d="M485.43,424.94a225.28,225.28,0,0,1-3.78,28.86L371.47,431.9a112.26,112.26,0,0,0,1.88-14.43l112.08,7.47Z"/>
  <path class="cls-2" d="M485.43,424.94a225.28,225.28,0,0,1-3.78,28.86L371.47,431.9a112.26,112.26,0,0,0,1.88-14.43l112.08,7.47Z"/>
  <path class="cls-7" d="M481.62,453.77C461.22,556.9,370.32,634.6,261.27,634.6,152,634.6,60.87,556.5,40.8,453.12l110.28-21.57a112.33,112.33,0,0,0,220.41.32l110.13,21.9Z"/>
  <path class="cls-2" d="M481.62,453.77C461.22,556.9,370.32,634.6,261.27,634.6,152,634.6,60.87,556.5,40.8,453.12l110.28-21.57a112.33,112.33,0,0,0,220.41.32l110.13,21.9Z"/>
  <path class="cls-8" d="M40.86,453.05a225.8,225.8,0,0,1-4.14-43.12c0-7.51.37-14.92,1.08-22.17L149.55,399q-.54,5.48-.54,11.09a112.67,112.67,0,0,0,2.07,21.56L40.86,453.05Z"/>
  <path class="cls-2" d="M40.86,453.05a225.8,225.8,0,0,1-4.14-43.12c0-7.51.37-14.92,1.08-22.17L149.55,399q-.54,5.48-.54,11.09a112.67,112.67,0,0,0,2.07,21.56L40.86,453.05Z"/>
  <path class="cls-9" d="M37.79,387.89A223.6,223.6,0,0,1,50.9,331.33L156.12,370.7A111.23,111.23,0,0,0,149.57,399L37.79,387.89Z"/>
  <path class="cls-2" d="M37.79,387.89A223.6,223.6,0,0,1,50.9,331.33L156.12,370.7A111.23,111.23,0,0,0,149.57,399L37.79,387.89Z"/>
  <path class="cls-10" d="M50.93,331.36q3.85-10.31,8.63-20l100.87,49.35q-2.38,4.88-4.31,10L50.93,331.36Z"/>
  <path class="cls-2" d="M50.93,331.36q3.85-10.31,8.63-20l100.87,49.35q-2.38,4.88-4.31,10L50.93,331.36Z"/>
  <path class="cls-11" d="M59.56,311.32a225.21,225.21,0,0,1,52.49-69l74.61,83.86a112.82,112.82,0,0,0-26.25,34.53L59.56,311.32Z"/>
  <path class="cls-2" d="M59.56,311.32a225.21,225.21,0,0,1,52.49-69l74.61,83.86a112.82,112.82,0,0,0-26.25,34.53L59.56,311.32Z"/>
  <path class="cls-12" d="M112,242.23q8.14-7.24,17-13.7l66.17,90.76q-4.41,3.21-8.48,6.85L112,242.23Z"/>
  <path class="cls-2" d="M112,242.23q8.14-7.24,17-13.7l66.17,90.76q-4.41,3.21-8.48,6.85L112,242.23Z"/>
  <path class="cls-13" d="M129,228.54A224.93,224.93,0,0,1,153.52,213l53.91,98.55a112.91,112.91,0,0,0-12.26,7.79L129,228.54Z"/>
  <path class="cls-2" d="M129,228.54A224.93,224.93,0,0,1,153.52,213l53.91,98.55a112.91,112.91,0,0,0-12.26,7.79L129,228.54Z"/>
  <path class="cls-14" d="M153.55,213a223.84,223.84,0,0,1,33.14-14.8L224,304.1a111.56,111.56,0,0,0-16.57,7.41L153.55,213Z"/>
  <path class="cls-2" d="M153.55,213a223.84,223.84,0,0,1,33.14-14.8L224,304.1a111.56,111.56,0,0,0-16.57,7.41L153.55,213Z"/>
  <path class="cls-15" d="M186.73,198.17q10.31-3.63,20.89-6.23L234.47,301q-5.33,1.31-10.44,3.11l-37.3-105.93Z"/>
  <path class="cls-2" d="M186.73,198.17q10.31-3.63,20.89-6.23L234.47,301q-5.33,1.31-10.44,3.11l-37.3-105.93Z"/>
  <path class="cls-16" d="M207.64,191.93a225.49,225.49,0,0,1,155.79,18L312.3,310a112.79,112.79,0,0,0-77.9-9L207.64,191.93Z"/>
  <path class="cls-2" d="M207.64,191.93a225.49,225.49,0,0,1,155.79,18L312.3,310a112.79,112.79,0,0,0-77.9-9L207.64,191.93Z"/>
  <text class="cls-17" transform="translate(371.3 255.8)"><tspan class="cls-18">6</tspan><tspan x="10.16" y="0">%</tspan></text>
  <text class="cls-19" transform="translate(414.52 317.13)">6<tspan class="cls-20" x="10.16" y="0">%</tspan></text>
  <text class="cls-19" transform="translate(447.01 350.01)">2<tspan class="cls-20" x="10.16" y="0">%</tspan></text>
  <text class="cls-19" transform="translate(451.13 399.02)">5<tspan class="cls-20" x="10.16" y="0">%</tspan></text>
  <text class="cls-19" transform="translate(452.1 440.9)">2<tspan class="cls-20" x="10.16" y="0">%</tspan></text>
  <text class="cls-17" transform="translate(243.71 585.26)"><tspan class="cls-18">44</tspan><tspan x="20.31" y="0">%</tspan></text>
  <text class="cls-17" transform="translate(59.31 421.28)"><tspan class="cls-18">5</tspan><tspan x="10.16" y="0">%</tspan></text>
  <text class="cls-17" transform="translate(64.36 371.8)"><tspan class="cls-18">4</tspan><tspan x="10.16" y="0">%</tspan></text>
  <text class="cls-17" transform="translate(16.47 325.26)"><tspan class="cls-18">1</tspan><tspan x="10.16" y="0">%</tspan></text>
  <text class="cls-17" transform="translate(97.71 299.48)"><tspan class="cls-18">6</tspan><tspan x="10.16" y="0">%</tspan></text>
  <text class="cls-17" transform="translate(70.73 230.89)"><tspan class="cls-18">1</tspan><tspan x="10.16" y="0">%</tspan></text>
  <text class="cls-17" transform="translate(117.84 205.5)"><tspan class="cls-18">2</tspan><tspan x="10.16" y="0">%</tspan></text>
  <text class="cls-17" transform="translate(165.37 226.03)"><tspan class="cls-18">3</tspan><tspan x="10.16" y="0">%</tspan></text>
  <text class="cls-17" transform="translate(179.69 178.9)"><tspan class="cls-18">2</tspan><tspan x="10.16" y="0">%</tspan></text>
  <text class="cls-17" transform="translate(263.31 249.47)"><tspan class="cls-18">11</tspan><tspan x="20.31" y="0">%</tspan></text>
  <text class="cls-21" transform="translate(235.71 141.54)">RNA<tspan class="cls-22" x="62.82" y="0"> </tspan><tspan x="70.62" y="0">a</tspan><tspan class="cls-23" x="87.59" y="0">p</tspan><tspan class="cls-24" x="105.93" y="0">t</tspan><tspan x="117.47" y="0">ame</tspan><tspan class="cls-25" x="179.7" y="0">r</tspan><tspan class="cls-26" x="191.54" y="0">s</tspan><tspan class="cls-22" x="205.21" y="0"> </tspan><tspan class="cls-27" x="213.02" y="0">type</tspan></text>
  <polygon class="cls-1" points="557.9 139.62 569.07 139.62 569.07 150.79 557.9 150.79 557.9 139.62 557.9 139.62"/>
  <polygon class="cls-28" points="557.9 139.62 569.07 139.62 569.07 150.79 557.9 150.79 557.9 139.62 557.9 139.62 557.9 139.62"/>
  <polygon class="cls-3" points="557.9 175.56 569.07 175.56 569.07 186.73 557.9 186.73 557.9 175.56 557.9 175.56"/>
  <polygon class="cls-28" points="557.9 175.56 569.07 175.56 569.07 186.73 557.9 186.73 557.9 175.56 557.9 175.56 557.9 175.56"/>
  <polygon class="cls-4" points="557.9 211.51 569.07 211.51 569.07 222.68 557.9 222.68 557.9 211.51 557.9 211.51"/>
  <polygon class="cls-28" points="557.9 211.51 569.07 211.51 569.07 222.68 557.9 222.68 557.9 211.51 557.9 211.51 557.9 211.51"/>
  <polygon class="cls-5" points="557.9 247.46 569.07 247.46 569.07 258.63 557.9 258.63 557.9 247.46 557.9 247.46"/>
  <polygon class="cls-28" points="557.9 247.46 569.07 247.46 569.07 258.63 557.9 258.63 557.9 247.46 557.9 247.46 557.9 247.46"/>
  <polygon class="cls-6" points="557.9 283.4 569.07 283.4 569.07 294.57 557.9 294.57 557.9 283.4 557.9 283.4"/>
  <polygon class="cls-28" points="557.9 283.4 569.07 283.4 569.07 294.57 557.9 294.57 557.9 283.4 557.9 283.4 557.9 283.4"/>
  <polygon class="cls-7" points="557.9 319.35 569.07 319.35 569.07 330.52 557.9 330.52 557.9 319.35 557.9 319.35"/>
  <polygon class="cls-28" points="557.9 319.35 569.07 319.35 569.07 330.52 557.9 330.52 557.9 319.35 557.9 319.35 557.9 319.35"/>
  <polygon class="cls-8" points="557.9 355.29 569.07 355.29 569.07 366.46 557.9 366.46 557.9 355.29 557.9 355.29"/>
  <polygon class="cls-28" points="557.9 355.29 569.07 355.29 569.07 366.46 557.9 366.46 557.9 355.29 557.9 355.29 557.9 355.29"/>
  <polygon class="cls-9" points="557.9 391.24 569.07 391.24 569.07 402.41 557.9 402.41 557.9 391.24 557.9 391.24"/>
  <polygon class="cls-28" points="557.9 391.24 569.07 391.24 569.07 402.41 557.9 402.41 557.9 391.24 557.9 391.24 557.9 391.24"/>
  <polygon class="cls-10" points="557.9 427.19 569.07 427.19 569.07 438.36 557.9 438.36 557.9 427.19 557.9 427.19"/>
  <polygon class="cls-28" points="557.9 427.19 569.07 427.19 569.07 438.36 557.9 438.36 557.9 427.19 557.9 427.19 557.9 427.19"/>
  <polygon class="cls-11" points="557.9 463.13 569.07 463.13 569.07 474.3 557.9 474.3 557.9 463.13 557.9 463.13"/>
  <polygon class="cls-28" points="557.9 463.13 569.07 463.13 569.07 474.3 557.9 474.3 557.9 463.13 557.9 463.13 557.9 463.13"/>
  <polygon class="cls-12" points="557.9 499.08 569.07 499.08 569.07 510.25 557.9 510.25 557.9 499.08 557.9 499.08"/>
  <polygon class="cls-28" points="557.9 499.08 569.07 499.08 569.07 510.25 557.9 510.25 557.9 499.08 557.9 499.08 557.9 499.08"/>
  <polygon class="cls-13" points="557.9 535.02 569.07 535.02 569.07 546.2 557.9 546.2 557.9 535.02 557.9 535.02"/>
  <polygon class="cls-28" points="557.9 535.02 569.07 535.02 569.07 546.2 557.9 546.2 557.9 535.02 557.9 535.02 557.9 535.02"/>
  <polygon class="cls-14" points="557.9 570.97 569.07 570.97 569.07 582.14 557.9 582.14 557.9 570.97 557.9 570.97"/>
  <polygon class="cls-28" points="557.9 570.97 569.07 570.97 569.07 582.14 557.9 582.14 557.9 570.97 557.9 570.97 557.9 570.97"/>
  <polygon class="cls-15" points="557.9 606.92 569.07 606.92 569.07 618.09 557.9 618.09 557.9 606.92 557.9 606.92"/>
  <polygon class="cls-28" points="557.9 606.92 569.07 606.92 569.07 618.09 557.9 618.09 557.9 606.92 557.9 606.92 557.9 606.92"/>
  <polygon class="cls-16" points="557.9 642.86 569.07 642.86 569.07 654.03 557.9 654.03 557.9 642.86 557.9 642.86"/>
  <polygon class="cls-28" points="557.9 642.86 569.07 642.86 569.07 654.03 557.9 654.03 557.9 642.86 557.9 642.86 557.9 642.86"/>
  <text class="cls-29" transform="translate(574.72 151.06)">A<tspan class="cls-30" x="9.94" y="0">m</tspan><tspan class="cls-31" x="23.69" y="0">in</tspan><tspan class="cls-30" x="36.66" y="0">o</tspan><tspan class="cls-32" x="45.74" y="0"> </tspan><tspan class="cls-33" x="49.61" y="0">A</tspan><tspan class="cls-34" x="59.55" y="0">c</tspan><tspan class="cls-31" x="66.79" y="0">ids</tspan><tspan class="cls-26" x="86.48" y="0"> </tspan><tspan class="cls-35" x="90.35" y="0">&amp;</tspan><tspan class="cls-26" x="102.09" y="0"> </tspan><tspan class="cls-36" x="105.96" y="0">P</tspan><tspan class="cls-26" x="114.49" y="0">e</tspan><tspan class="cls-37" x="123.02" y="0">p</tspan><tspan x="131.92" y="0">tid</tspan><tspan class="cls-32" x="150.52" y="0">e</tspan><tspan x="159.05" y="0">s</tspan></text>
  <text class="cls-29" transform="translate(574.72 187.01)"><tspan class="cls-30">B</tspan><tspan x="9.37" y="0">a</tspan><tspan class="cls-34" x="17.6" y="0">c</tspan><tspan class="cls-38" x="24.83" y="0">t</tspan><tspan class="cls-32" x="30.35" y="0">e</tspan><tspan class="cls-30" x="38.88" y="0">r</tspan><tspan class="cls-31" x="44.89" y="0">ia</tspan></text>
  <text class="cls-29" transform="translate(574.72 222.97)"><tspan class="cls-30">B</tspan><tspan class="cls-31" x="9.37" y="0">i</tspan><tspan class="cls-30" x="13.31" y="0">o</tspan><tspan x="22.39" y="0">l</tspan><tspan class="cls-35" x="26.33" y="0">o</tspan><tspan class="cls-33" x="35.41" y="0">gi</tspan><tspan class="cls-34" x="47.45" y="0">c</tspan><tspan x="54.68" y="0">s</tspan><tspan class="cls-26" x="61.4" y="0"> </tspan><tspan class="cls-30" x="65.27" y="0">&amp;</tspan><tspan class="cls-32" x="77.01" y="0" xml:space="preserve"> S</tspan><tspan class="cls-31" x="88.75" y="0">ignaling</tspan><tspan class="cls-26" x="143.05" y="0"> </tspan><tspan x="146.92" y="0">M</tspan><tspan class="cls-35" x="161.62" y="0">o</tspan><tspan x="170.7" y="0">l</tspan><tspan class="cls-32" x="174.64" y="0">e</tspan><tspan class="cls-34" x="183.17" y="0">c</tspan><tspan x="190.41" y="0">ul</tspan><tspan class="cls-32" x="203.38" y="0">e</tspan><tspan x="211.91" y="0">s</tspan></text>
  <text class="cls-29" transform="translate(574.72 258.9)"><tspan class="cls-34">c</tspan><tspan class="cls-32" x="7.23" y="0">e</tspan><tspan x="15.77" y="0">ll</tspan></text>
  <text class="cls-29" transform="translate(574.72 294.85)"><tspan class="cls-32">F</tspan><tspan x="7.88" y="0">lu</tspan><tspan class="cls-30" x="20.85" y="0">o</tspan><tspan class="cls-39" x="29.93" y="0">r</tspan><tspan class="cls-30" x="35.67" y="0">o</tspan><tspan x="44.75" y="0">ph</tspan><tspan class="cls-35" x="62.8" y="0">o</tspan><tspan class="cls-40" x="71.88" y="0">r</tspan><tspan class="cls-32" x="77.62" y="0">e</tspan><tspan x="86.15" y="0">s</tspan></text>
  <text class="cls-29" transform="translate(574.72 330.81)">Ma<tspan class="cls-30" x="22.92" y="0">mm</tspan><tspan x="50.42" y="0">alian</tspan></text>
  <text class="cls-29" transform="translate(574.72 366.75)">Nu<tspan class="cls-34" x="20.12" y="0">c</tspan><tspan x="27.35" y="0">l</tspan><tspan class="cls-32" x="31.3" y="0">e</tspan><tspan class="cls-30" x="39.83" y="0">o</tspan><tspan x="48.91" y="0">sid</tspan><tspan class="cls-32" x="68.61" y="0">e</tspan><tspan x="77.14" y="0">s</tspan><tspan class="cls-26" x="83.86" y="0"> </tspan><tspan class="cls-30" x="87.73" y="0">&amp;</tspan><tspan class="cls-26" x="99.47" y="0"> </tspan><tspan class="cls-31" x="103.34" y="0">Nu</tspan><tspan class="cls-34" x="123.46" y="0">c</tspan><tspan class="cls-31" x="130.69" y="0">l</tspan><tspan class="cls-26" x="134.64" y="0">e</tspan><tspan class="cls-30" x="143.17" y="0">o</tspan><tspan x="152.25" y="0">tid</tspan><tspan class="cls-32" x="170.85" y="0">e</tspan><tspan x="179.39" y="0">s</tspan></text>
  <text class="cls-29" transform="translate(574.72 402.69)"><tspan class="cls-30">o</tspan><tspan class="cls-32" x="9.08" y="0">t</tspan><tspan class="cls-31" x="14.82" y="0">h</tspan><tspan class="cls-26" x="23.85" y="0">e</tspan><tspan x="32.38" y="0">r</tspan></text>
  <text class="cls-29" transform="translate(574.72 438.63)"><tspan class="cls-41">P</tspan><tspan x="8.47" y="0">a</tspan><tspan class="cls-42" x="16.7" y="0">r</tspan><tspan x="22.36" y="0">asi</tspan><tspan class="cls-43" x="41.26" y="0">t</tspan><tspan x="46.78" y="0">e</tspan></text>
  <text class="cls-29" transform="translate(574.72 474.58)">Pha<tspan class="cls-30" x="26.14" y="0">rm</tspan><tspan class="cls-33" x="45.89" y="0">a</tspan><tspan class="cls-34" x="54.13" y="0">c</tspan><tspan class="cls-32" x="61.36" y="0">e</tspan><tspan x="69.89" y="0">uti</tspan><tspan class="cls-44" x="88.49" y="0">c</tspan><tspan x="95.59" y="0">als</tspan></text>
  <text class="cls-29" transform="translate(574.72 510.53)">P<tspan class="cls-30" x="8.88" y="0">r</tspan><tspan class="cls-31" x="14.89" y="0">i</tspan><tspan class="cls-30" x="18.83" y="0">o</tspan><tspan x="27.91" y="0">n</tspan></text>
  <text class="cls-29" transform="translate(574.72 546.48)"><tspan class="cls-32">R</tspan><tspan x="9.31" y="0">NA</tspan></text>
  <text class="cls-45" transform="translate(574.72 582.42)">S<tspan class="cls-30" x="7.67" y="0">y</tspan><tspan class="cls-46" x="15.47" y="0">n</tspan><tspan class="cls-32" x="24.29" y="0">t</tspan><tspan class="cls-31" x="30.03" y="0">h</tspan><tspan class="cls-47" x="39.06" y="0">e</tspan><tspan class="cls-33" x="47.44" y="0">tic</tspan></text>
  <text class="cls-29" transform="translate(574.72 618.37)"><tspan class="cls-48">T</tspan><tspan class="cls-42" x="6.81" y="0">o</tspan><tspan x="15.55" y="0">xin</tspan></text>
  <text class="cls-29" transform="translate(574.72 654.32)">Vi<tspan class="cls-42" x="13.69" y="0">r</tspan><tspan class="cls-33" x="19.36" y="0">al</tspan></text>
  <line class="cls-49" x1="36.72" y1="319.13" x2="54.52" y2="322.38"/>
  <line class="cls-49" x1="93.43" y1="227.36" x2="121.29" y2="234.41"/>
  <line class="cls-49" x1="129.38" y1="205.85" x2="140.3" y2="220.8"/>
  <line class="cls-49" x1="192.08" y1="178.97" x2="195.15" y2="195.39"/>
</svg>
