<svg id="图层_1" data-name="图层 1" xmlns="http://www.w3.org/2000/svg" viewBox="0 0 260 220"><defs><style>.cls-1,.cls-2,.cls-3,.cls-4,.cls-5{isolation:isolate;}.cls-1,.cls-2,.cls-3{font-size:12.96px;}.cls-1{fill:#304ff7;}.cls-1,.cls-2,.cls-3,.cls-5{font-family:ArialMT, Arial;}.cls-2{fill:#6dab3c;}.cls-3{fill:#ff0d0d;}.cls-5{font-size:14.62px;}</style></defs><polygon points="58.65 110.66 72.97 94.66 73.14 95.37 73.3 96.07 59.57 111.43 59.12 111.05 58.65 110.66"/><polygon points="72.97 94.66 101.04 106.15 101.1 106.81 100.45 107.18 73.3 96.07 73.14 95.37 72.97 94.66"/><polygon points="101.67 107.16 99.69 129.62 99.07 129.56 98.47 129.51 100.45 107.18 101.1 106.81 101.67 107.16"/><text class="cls-1" transform="translate(93.66 141.35) scale(1.03 1)">N</text><text class="cls-1" transform="translate(103.33 141.35) scale(1.03 1)">H</text><polygon points="68.26 142.8 56.82 124.42 57.34 124.12 57.86 123.82 69.23 142.08 68.94 142.75 68.26 142.8"/><polygon points="127.07 90.94 153.63 105.16 153.64 105.83 153.04 106.19 127.09 92.3 127.08 91.63 127.07 90.94"/><polygon points="153.63 105.16 179.61 89.97 179.62 90.65 179.65 91.33 154.26 106.16 153.64 105.83 153.63 105.16"/><polygon points="179.61 89.97 206.18 104.18 206.2 104.86 205.59 105.21 179.65 91.33 179.62 90.65 179.61 89.97"/><polygon points="180 94.22 202.89 106.45 202.6 106.96 202.29 107.48 179.42 95.23 179.71 94.72 180 94.22"/><polygon points="206.81 105.19 207.37 133.9 206.78 134.25 206.17 133.92 205.59 105.21 206.2 104.86 206.81 105.19"/><polygon points="206.79 134.93 181.4 149.75 180.79 149.44 180.78 148.75 206.17 133.92 206.78 134.25 206.79 134.93"/><polygon points="203.41 132.79 181.03 145.86 180.71 145.36 180.4 144.85 202.78 131.78 203.09 132.27 203.41 132.79"/><polygon points="180.19 149.78 153.62 135.58 154.22 135.22 154.83 134.88 180.78 148.75 180.79 149.44 180.19 149.78"/><polygon points="153.62 135.58 153.04 106.19 153.64 105.83 154.26 106.16 154.83 134.88 154.22 135.22 153.62 135.58"/><polygon points="157.22 133.14 156.72 107.82 157.33 107.8 157.93 107.79 158.43 133.1 157.82 133.13 157.22 133.14"/><polygon points="206.18 104.18 226.56 92.26 226.88 92.76 227.19 93.27 206.81 105.19 206.2 104.86 206.18 104.18"/><text class="cls-2" transform="translate(228.08 94.92) scale(1.03 1)">F</text><polygon points="207.37 133.9 227.22 144.5 226.93 145.02 226.64 145.52 206.79 134.93 206.78 134.25 207.37 133.9"/><text class="cls-3" transform="translate(228.14 153.69) scale(1.03 1)">O</text><text class="cls-3" transform="translate(238.55 153.69) scale(1.03 1)">H</text><polygon points="181.4 149.75 181.85 172.27 181.25 172.28 180.65 172.29 180.19 149.78 180.79 149.44 181.4 149.75"/><text class="cls-2" transform="translate(177.29 184.07) scale(1.03 1)">F</text><text class="cls-3" transform="translate(61.06 71.99) scale(1.03 1)">O</text><text class="cls-1" transform="translate(48.43 122.83) scale(1.03 1)">N</text><polygon points="47.17 117.67 22.98 115.65 23.03 115.07 23.09 114.48 47.27 116.5 47.23 117.08 47.17 117.67"/><text class="cls-1" transform="translate(22.18 178.71) scale(1.03 1)">N</text><text class="cls-3" transform="translate(10 205.79) scale(1.03 1)">O</text><polygon points="71.07 97.15 65.47 73.81 66.06 73.67 66.65 73.55 72.26 96.88 71.67 97.02 71.07 97.15"/><polygon points="74.62 96.36 69.01 73 69.61 72.88 70.2 72.74 75.81 96.08 75.21 96.21 74.62 96.36"/><polygon points="57.55 170.37 33.13 173.31 33.06 172.72 32.98 172.16 56.7 169.29 57.13 169.82 57.55 170.37"/><polygon points="92.59 138.03 69.38 143.26 68.94 142.75 69.23 142.08 92.31 136.88 92.45 137.45 92.59 138.03"/><polygon points="101.04 106.15 127.07 90.94 127.08 91.63 127.09 92.3 101.67 107.16 101.1 106.81 101.04 106.15"/><polygon points="104.25 108.39 126.84 95.19 127.15 95.7 127.47 96.2 104.87 109.4 104.56 108.91 104.25 108.39"/><polygon points="69.38 143.26 57.55 170.37 57.13 169.82 56.7 169.29 68.26 142.8 68.94 142.75 69.38 143.26"/><polygon points="65.42 143.26 55.15 166.81 54.59 166.58 54.03 166.35 64.3 142.81 64.86 143.04 65.42 143.26"/><polygon points="28.08 181.6 21.97 195.59 21.41 195.38 20.86 195.15 26.96 181.15 27.52 181.37 28.08 181.6"/><polygon points="24.73 180.23 18.61 194.23 18.05 194 17.49 193.77 23.61 179.77 24.17 180 24.73 180.23"/><g class="cls-4"><text class="cls-5" transform="translate(14.22 22.54) scale(1.03 1)">3,5-difluoro-4-hydroxybenzylidene </text><text class="cls-5" transform="translate(54.38 40.09) scale(1.03 1)">imidazolinone-2-oxime</text><text class="cls-5" transform="translate(103.34 57.63) scale(1.03 1)">(DFHO)</text></g></svg>