<svg id="图层_1" data-name="图层 1" xmlns="http://www.w3.org/2000/svg" viewBox="0 0 400 400">
  <defs>
    <style>
      .cls-1, .cls-2, .cls-3, .cls-4, .cls-5 {
        isolation: isolate;
      }

      .cls-1, .cls-2, .cls-3 {
        font-size: 15.89px;
      }

      .cls-1 {
        fill: #304ff7;
      }

      .cls-1, .cls-2, .cls-3, .cls-5 {
        font-family: ArialMT, Arial;
      }

      .cls-2 {
        fill: #6dab3c;
      }

      .cls-3 {
        fill: #ff0d0d;
      }

      .cls-5 {
        font-size: 20px;
      }
    </style>
  </defs>
  <polygon points="120.52 193.08 138.07 173.46 138.28 174.34 138.48 175.19 121.65 194.02 121.09 193.56 120.52 193.08"/>
  <polygon points="138.07 173.46 172.49 187.55 172.56 188.36 171.76 188.81 138.48 175.19 138.28 174.34 138.07 173.46"/>
  <polygon points="173.26 188.79 170.83 216.32 170.07 216.25 169.34 216.19 171.76 188.81 172.56 188.36 173.26 188.79"/>
  <text class="cls-1" transform="translate(163.44 230.7) scale(1.03 1)">N</text>
  <text class="cls-1" transform="translate(175.29 230.7) scale(1.03 1)">H</text>
  <polygon points="132.3 232.48 118.28 209.95 118.91 209.58 119.55 209.21 133.49 231.6 133.13 232.42 132.3 232.48"/>
  <polygon points="204.4 168.9 236.96 186.34 236.97 187.16 236.23 187.6 204.42 170.57 204.41 169.75 204.4 168.9"/>
  <polygon points="236.96 186.34 268.81 167.72 268.82 168.55 268.86 169.38 237.73 187.56 236.97 187.16 236.96 186.34"/>
  <polygon points="268.81 167.72 301.38 185.13 301.4 185.97 300.65 186.4 268.86 169.38 268.82 168.55 268.81 167.72"/>
  <polygon points="269.28 172.93 297.35 187.92 296.99 188.54 296.61 189.18 268.57 174.16 268.93 173.54 269.28 172.93"/>
  <polygon points="302.15 186.37 302.84 221.57 302.11 222 301.37 221.59 300.65 186.4 301.4 185.97 302.15 186.37"/>
  <polygon points="302.13 222.83 271 241 270.25 240.62 270.24 239.77 301.37 221.59 302.11 222 302.13 222.83"/>
  <polygon points="297.98 220.21 270.55 236.23 270.15 235.62 269.77 234.99 297.21 218.97 297.59 219.57 297.98 220.21"/>
  <polygon points="269.52 241.04 236.94 223.63 237.68 223.19 238.43 222.77 270.24 239.77 270.25 240.62 269.52 241.04"/>
  <polygon points="236.94 223.63 236.23 187.6 236.97 187.16 237.73 187.56 238.43 222.77 237.68 223.19 236.94 223.63"/>
  <polygon points="241.36 220.64 240.74 189.6 241.49 189.57 242.23 189.56 242.84 220.59 242.09 220.63 241.36 220.64"/>
  <polygon points="301.38 185.13 326.36 170.52 326.75 171.13 327.13 171.76 302.15 186.37 301.4 185.97 301.38 185.13"/>
  <text class="cls-2" transform="translate(328.23 173.78) scale(1.03 1)">F</text>
  <polygon points="302.84 221.57 327.17 234.56 326.82 235.2 326.46 235.81 302.13 222.83 302.11 222 302.84 221.57"/>
  <text class="cls-3" transform="translate(328.3 245.83) scale(1.03 1)">O</text>
  <text class="cls-3" transform="translate(341.06 245.83) scale(1.03 1)">H</text>
  <polygon points="271 241 271.55 268.61 270.82 268.62 270.08 268.63 269.52 241.04 270.25 240.62 271 241"/>
  <text class="cls-2" transform="translate(265.96 283.07) scale(1.03 1)">F</text>
  <text class="cls-3" transform="translate(123.47 145.67) scale(1.03 1)">O</text>
  <text class="cls-1" transform="translate(107.99 208) scale(1.03 1)">N</text>
  <polygon points="106.44 201.67 76.79 199.2 76.85 198.49 76.92 197.76 106.57 200.24 106.52 200.95 106.44 201.67"/>
  <text class="cls-1" transform="translate(75.81 276.5) scale(1.03 1)">N</text>
  <text class="cls-3" transform="translate(60.88 309.7) scale(1.03 1)">O</text>
  <polygon points="135.75 176.52 128.88 147.9 129.6 147.73 130.33 147.59 137.2 176.19 136.48 176.36 135.75 176.52"/>
  <polygon points="140.1 175.55 133.22 146.91 133.96 146.76 134.68 146.59 141.56 175.21 140.82 175.37 140.1 175.55"/>
  <polygon points="119.17 266.28 89.23 269.88 89.15 269.16 89.05 268.47 118.13 264.95 118.66 265.6 119.17 266.28"/>
  <polygon points="162.13 226.63 133.67 233.04 133.13 232.42 133.49 231.6 161.78 225.22 161.96 225.92 162.13 226.63"/>
  <polygon points="172.49 187.55 204.4 168.9 204.41 169.75 204.42 170.57 173.26 188.79 172.56 188.36 172.49 187.55"/>
  <polygon points="176.42 190.3 204.11 174.11 204.49 174.74 204.89 175.35 177.18 191.53 176.8 190.93 176.42 190.3"/>
  <polygon points="133.67 233.04 119.17 266.28 118.66 265.6 118.13 264.95 132.3 232.48 133.13 232.42 133.67 233.04"/>
  <polygon points="128.82 233.04 116.23 261.91 115.54 261.63 114.86 261.35 127.44 232.49 128.13 232.77 128.82 233.04"/>
  <polygon points="83.04 280.05 75.55 297.2 74.87 296.94 74.19 296.66 81.67 279.49 82.36 279.76 83.04 280.05"/>
  <polygon points="78.94 278.37 71.43 295.53 70.75 295.25 70.06 294.96 77.56 277.8 78.25 278.08 78.94 278.37"/>
  <g class="cls-4">
    <text class="cls-5" transform="translate(54.96 33.2)">3,5-difluoro-4-hydroxybenzylidene </text>
    <text class="cls-5" transform="translate(108.33 57.2)">imidazolinone-2-oxime</text>
    <text class="cls-5" transform="translate(173.39 81.2)">(DFHO)</text>
  </g>
</svg>
