<svg id="图层_1" data-name="图层 1" xmlns="http://www.w3.org/2000/svg" viewBox="0 0 400 400"><defs><style>.cls-1,.cls-2{isolation:isolate;}.cls-2{font-size:21.24px;fill:#ff0d0d;}.cls-2,.cls-3{font-family:ArialMT, Arial;}.cls-3{font-size:20px;}</style></defs><polygon points="304.1 120.37 319.34 167.24 318.25 167.01 317.16 166.78 302.61 122.02 303.36 121.19 304.1 120.37"/><polygon points="299.81 125.86 312.64 165.32 311.72 165.62 310.81 165.92 297.98 126.45 298.89 126.15 299.81 125.86"/><polygon points="319.34 167.24 286.36 203.87 286.02 202.81 285.68 201.75 317.16 166.78 318.25 167.01 319.34 167.24"/><polygon points="286.36 203.87 239.12 193.83 238.9 192.8 239.64 191.97 285.68 201.75 286.02 202.81 286.36 203.87"/><polygon points="283.76 197.4 243.16 188.78 243.37 187.84 243.56 186.9 284.16 195.52 283.96 196.46 283.76 197.4"/><polygon points="237.77 192.43 223.31 147.95 224.01 146.99 225.1 147.22 239.64 191.97 238.9 192.8 237.77 192.43"/><polygon points="223.58 146.02 255.89 110.13 256.24 111.18 256.58 112.24 225.1 147.22 224.01 146.99 223.58 146.02"/><polygon points="229.82 147.73 257.58 116.89 258.3 117.53 259.02 118.18 231.25 149.02 230.54 148.37 229.82 147.73"/><polygon points="255.89 110.13 304.1 120.37 303.36 121.19 302.61 122.02 256.58 112.24 256.24 111.18 255.89 110.13"/><polygon points="223.31 147.95 176.54 147.96 175.84 146.99 175.14 146.03 223.58 146.02 224.01 146.99 223.31 147.95"/><polygon points="173.95 150.96 152.18 121 152.96 120.44 153.74 119.87 175.51 149.82 174.73 150.39 173.95 150.96"/><polygon points="178.63 147.56 156.86 117.6 157.64 117.04 158.42 116.47 180.19 146.43 179.41 146.99 178.63 147.56"/><g class="cls-1"><text class="cls-2" transform="translate(139.25 116.63)">O</text></g><polygon points="176.54 147.96 165.35 182.39 164.43 182.09 163.52 181.8 175.14 146.03 175.84 146.99 176.54 147.96"/><g class="cls-1"><text class="cls-2" transform="translate(152.69 201.41)">O</text></g><polygon points="171.71 199.43 199.93 219.93 199.93 221.12 198.16 221.03 170.58 200.99 171.14 200.21 171.71 199.43"/><polygon points="199.93 222.23 159.18 245.77 158.21 245.21 158.21 244.1 198.16 221.03 199.93 221.12 199.93 222.23"/><polygon points="159.18 245.77 159.18 292.83 158.22 293.38 157.26 292.83 157.25 245.77 158.21 245.21 159.18 245.77"/><polygon points="158.22 294.5 116.5 318.59 116.5 317.48 116.5 316.36 157.26 292.83 158.22 293.38 158.22 294.5"/><polygon points="152.92 290.88 116.98 311.63 116.5 310.8 116.02 309.97 151.96 289.21 152.44 290.05 152.92 290.88"/><polygon points="116.5 318.59 74.78 294.51 74.78 293.39 75.75 292.84 116.5 316.36 116.5 317.48 116.5 318.59"/><polygon points="73.82 292.84 73.81 244.66 74.78 245.22 75.74 245.78 75.75 292.84 74.78 293.39 73.82 292.84"/><polygon points="79.6 290.06 79.59 248.56 80.56 248.56 81.52 248.56 81.53 290.06 80.56 290.06 79.6 290.06"/><polygon points="73.81 244.66 116.49 220.02 116.49 221.13 116.49 222.24 75.74 245.78 74.78 245.22 73.81 244.66"/><polygon points="116.49 220.02 158.21 244.1 158.21 245.21 157.25 245.77 116.49 222.24 116.49 221.13 116.49 220.02"/><polygon points="116.97 226.97 152.91 247.72 152.43 248.55 151.95 249.38 116.01 228.64 116.49 227.8 116.97 226.97"/><polygon points="74.78 294.51 43.74 312.44 43.26 311.6 42.77 310.77 73.82 292.84 74.78 293.39 74.78 294.51"/><g class="cls-1"><text class="cls-2" transform="translate(9.46 326.09)">H</text><text class="cls-2" transform="translate(24.8 326.09)">O</text></g><polygon points="159.18 292.83 190.23 310.75 189.75 311.58 189.27 312.42 158.22 294.5 158.22 293.38 159.18 292.83"/><g class="cls-1"><text class="cls-2" transform="translate(191.68 326.07)">O</text></g><polygon points="209.65 310.75 240.69 292.82 241.66 293.37 241.66 294.49 210.61 312.41 210.13 311.58 209.65 310.75"/><polygon points="240.69 245.76 199.93 222.23 199.93 221.12 201.7 221.03 241.65 244.09 241.65 245.2 240.69 245.76"/><polygon points="199.93 219.93 237.77 192.43 238.9 192.8 239.12 193.83 201.7 221.03 199.93 221.12 199.93 219.93"/><polygon points="241.65 244.09 283.37 220 283.37 221.11 283.37 222.22 242.62 245.76 241.65 245.2 241.65 244.09"/><polygon points="283.37 220 326.05 244.64 325.09 245.19 324.13 245.75 283.37 222.22 283.37 221.11 283.37 220"/><polygon points="283.85 226.95 319.79 247.69 319.31 248.53 318.83 249.36 282.89 228.62 283.37 227.78 283.85 226.95"/><polygon points="326.05 244.63 326.06 292.81 325.1 293.37 324.13 292.81 324.13 245.75 325.09 245.19 326.05 244.63"/><polygon points="325.1 294.48 283.38 318.57 283.38 317.46 283.38 316.34 324.13 292.81 325.1 293.37 325.1 294.48"/><polygon points="319.8 290.86 283.86 311.62 283.38 310.78 282.9 309.95 318.83 289.19 319.31 290.03 319.8 290.86"/><polygon points="283.38 318.57 241.66 294.49 241.66 293.37 242.62 292.82 283.38 316.34 283.38 317.46 283.38 318.57"/><polygon points="240.69 292.82 240.69 245.76 241.65 245.2 242.62 245.76 242.62 292.82 241.66 293.37 240.69 292.82"/><polygon points="246.47 290.04 246.47 248.54 247.43 248.54 248.4 248.54 248.4 290.04 247.44 290.04 246.47 290.04"/><polygon points="326.06 292.81 357.12 310.72 356.64 311.55 356.16 312.39 325.1 294.48 325.1 293.37 326.06 292.81"/><g class="cls-1"><text class="cls-2" transform="translate(358.56 326.03)">O</text><text class="cls-2" transform="translate(375.09 326.03)">H</text></g><text class="cls-3" transform="translate(148.31 80.89)">Fluorescein</text></svg>