<?xml version="1.0" encoding="utf-8"?>
<!-- Generator: Adobe Illustrator 23.0.3, SVG Export Plug-In . SVG Version: 6.00 Build 0)  -->
<svg version="1.1" id="图层_1" xmlns="http://www.w3.org/2000/svg" xmlns:xlink="http://www.w3.org/1999/xlink" x="0px" y="0px"
	 viewBox="0 0 400 400" style="enable-background:new 0 0 400 400;" xml:space="preserve">
<style type="text/css">
	.st0{fill:#304FF7;}
	.st1{font-family:'ArialMT';}
	.st2{font-size:12.5137px;}
	.st3{fill:#FF0D0D;}
	.st4{fill:#FF8000;}
	.st5{font-size:7.7008px;}
	.st6{fill:none;}
	.st7{font-size:20px;}
</style>
<polygon points="305.6,228.9 321.9,217.3 322.2,217.8 322.5,218.2 306.2,229.9 305.9,229.4 "/>
<polygon points="305.9,232.9 323.9,220.1 324.2,220.5 324.5,221 305.8,234.3 305.9,233.6 "/>
<text transform="matrix(1 0 0 1 324.439 222.1855)" class="st0 st1 st2">N</text>
<polygon points="326.4,211 320,190.6 320.4,190.1 321,190.1 327.5,210.6 327,210.8 "/>
<polygon points="320,190.6 292.5,190.4 292,189.8 292.4,189.2 320.1,189.5 320.4,190.1 "/>
<polygon points="318.5,187.2 294,187 294,186.4 294,185.9 318.5,186.1 318.5,186.6 "/>
<polygon points="292.5,190.4 285.7,210.6 285.2,210.4 284.6,210.2 291.4,189.9 292,189.8 "/>
<text transform="matrix(1 0 0 1 278.5269 221.7865)" class="st0 st1 st2">N</text>
<polygon points="256.1,224.6 276.6,216.1 277.4,218.5 278.2,220.9 256.4,225.7 256,225.3 "/>
<polygon points="256.4,225.7 247.5,252.3 247,252.2 246.6,251.6 255.3,225.5 256,225.3 "/>
<polygon points="247,252.7 218.6,252.5 218.6,251.9 219,251.4 246.6,251.6 247,252.2 "/>
<polygon points="218.1,252.1 209.6,225.3 210.1,224.9 210.7,225.1 219,251.4 218.6,251.9 "/>
<polygon points="210,224.2 227.9,211.5 228.2,211.9 228.5,212.4 210.7,225.1 210.1,224.9 "/>
<text transform="matrix(1 0 0 1 228.2998 213.4433)" class="st3 st1 st2">O</text>
<polygon points="238.4,211.6 256.1,224.6 256,225.3 255.3,225.5 237.7,212.5 238.1,212 "/>
<polygon points="209.6,225.3 181.5,218.1 183.2,215.9 184.7,213.7 210,224.2 210.1,224.9 "/>
<polygon points="181.5,218.1 166.9,231 166.5,230.6 166.1,230.2 184.7,213.7 183.2,215.9 "/>
<text transform="matrix(1 0 0 1 157.0337 239.725)" class="st3 st1 st2">O</text>
<polygon points="155.7,233.2 140.1,228 140.3,227.4 140.5,226.9 156.1,232.1 155.9,232.6 "/>
<text transform="matrix(1 0 0 1 130.8179 230.7191)" class="st4 st1 st2">P</text>
<polygon points="134.9,218.6 139.7,204.3 140.3,204.5 140.8,204.7 136,219 135.5,218.8 "/>
<polygon points="138.2,219.7 143,205.4 143.5,205.6 144,205.8 139.3,220.1 138.7,219.9 "/>
<text transform="matrix(1 0 0 1 139.125 203.8085)" class="st3 st1 st2">O</text>
<polygon points="133.4,232.1 128.3,247.3 127.8,247.1 127.3,246.9 132.3,231.8 132.9,232 "/>
<text transform="matrix(1 0 0 1 112.0815 257.6298)" class="st3 st1 st2">H</text>
<text transform="matrix(1 0 0 1 121.1186 257.6298)" class="st3 st1 st2">O</text>
<polygon points="129.5,224.4 113.9,219.2 114.1,218.7 114.3,218.1 129.9,223.3 129.7,223.9 "/>
<text transform="matrix(1 0 0 1 103.209 221.7172)" class="st3 st1 st2">O</text>
<polygon points="106.2,210.5 103.1,195.3 103.7,195.2 104.3,195 107.3,210.2 106.8,210.3 "/>
<text transform="matrix(1 0 0 1 98.2475 193.9076)" class="st4 st1 st2">P</text>
<polygon points="97.6,192.1 81.1,195.5 81,194.9 80.8,194.4 97.3,191 97.5,191.6 "/>
<polygon points="96.9,188.8 80.4,192.2 80.3,191.6 80.2,191.1 96.7,187.7 96.8,188.3 "/>
<text transform="matrix(1 0 0 1 69.7436 199.5673)" class="st3 st1 st2">O</text>
<polygon points="107.6,187.2 124.1,183.8 124.2,184.4 124.3,185 107.8,188.3 107.7,187.8 "/>
<text transform="matrix(1 0 0 1 125.3584 188.2519)" class="st3 st1 st2">O</text>
<text transform="matrix(1 0 0 1 135.0923 188.2519)" class="st3 st1 st2">H</text>
<polygon points="100.6,182.6 97.5,167.5 98,167.3 98.6,167.2 101.7,182.4 101.1,182.5 "/>
<text transform="matrix(1 0 0 1 91.8931 166.102)" class="st3 st1 st2">O</text>
<polygon points="90.6,159.6 75,154.3 75.2,153.8 75.3,153.3 90.9,158.5 90.8,159 "/>
<text transform="matrix(1 0 0 1 65.6772 157.0961)" class="st4 st1 st2">P</text>
<polygon points="69.8,145 74.6,130.7 75.1,130.9 75.7,131.1 70.9,145.4 70.3,145.2 "/>
<polygon points="73,146.1 77.8,131.8 78.4,132 78.9,132.1 74.1,146.4 73.6,146.3 "/>
<text transform="matrix(1 0 0 1 73.9848 130.1855)" class="st3 st1 st2">O</text>
<polygon points="68.3,158.5 63.2,173.7 62.7,173.5 62.1,173.3 67.2,158.2 67.7,158.3 "/>
<text transform="matrix(1 0 0 1 46.9414 184.0102)" class="st3 st1 st2">H</text>
<text transform="matrix(1 0 0 1 55.9785 184.0102)" class="st3 st1 st2">O</text>
<polygon points="64.4,150.8 48.8,145.6 48.9,145 49.1,144.5 64.7,149.7 64.5,150.3 "/>
<text transform="matrix(1 0 0 1 29.0366 148.0941)" class="st3 st1 st2">H</text>
<text transform="matrix(1 0 0 1 38.0737 148.0941)" class="st3 st1 st2">O</text>
<polygon points="218,251.6 219.1,252.4 218.7,252.8 218.4,253.3 217.4,252.5 217.7,252.1 "/>
<polygon points="216,254 217.4,255 217.1,255.5 216.7,255.9 215.3,254.9 215.6,254.4 "/>
<polygon points="213.9,256.3 215.8,257.7 215.4,258.1 215.1,258.6 213.2,257.2 213.6,256.7 "/>
<polygon points="211.9,258.6 214.2,260.3 213.8,260.8 213.5,261.2 211.2,259.5 211.5,259.1 "/>
<polygon points="209.8,261 212.5,263 212.2,263.4 211.8,263.9 209.1,261.9 209.4,261.4 "/>
<polygon points="207.7,263.3 210.9,265.7 210.5,266.1 210.2,266.6 207,264.2 207.4,263.8 "/>
<polygon points="205.7,265.7 209.3,268.3 208.9,268.8 208.6,269.2 205,266.6 205.3,266.1 "/>
<polygon points="203.6,268 207.6,271 207.3,271.4 206.9,271.9 202.9,268.9 203.3,268.4 "/>
<text transform="matrix(1 0 0 1 187.8164 279.7978)" class="st3 st1 st2">H</text>
<text transform="matrix(1 0 0 1 196.853 279.7978)" class="st3 st1 st2">O</text>
<polygon points="246.5,252.6 247.5,251.9 247.9,252.3 248.2,252.8 247.2,253.5 246.8,253.1 "/>
<polygon points="248.1,255.3 249.6,254.2 249.9,254.7 250.2,255.2 248.8,256.2 248.4,255.7 "/>
<polygon points="249.7,258 251.6,256.6 251.9,257.1 252.2,257.5 250.3,258.9 250,258.4 "/>
<polygon points="251.3,260.7 253.6,259 253.9,259.5 254.3,259.9 251.9,261.6 251.6,261.1 "/>
<polygon points="252.9,263.3 255.6,261.4 256,261.8 256.3,262.3 253.5,264.3 253.2,263.8 "/>
<polygon points="254.4,266 257.7,263.7 258,264.2 258.3,264.7 255.1,267 254.8,266.5 "/>
<polygon points="256,268.7 259.7,266.1 260,266.6 260.3,267 256.7,269.6 256.4,269.2 "/>
<polygon points="257.6,271.4 261.7,268.5 262,269 262.4,269.4 258.3,272.3 258,271.9 "/>
<text transform="matrix(1 0 0 1 258.5889 280.3344)" class="st3 st1 st2">O</text>
<text transform="matrix(1 0 0 1 268.3228 280.3344)" class="st3 st1 st2">H</text>
<polygon points="288.1,219.8 305.9,232.9 305.9,233.6 305.8,234.3 287.4,220.7 287.8,220.2 "/>
<polygon points="291.4,189.9 280.8,171.1 281.3,170.8 281.8,170.5 292.4,189.2 292,189.8 "/>
<text transform="matrix(1 0 0 1 273.5547 170.1776)" class="st0 st1 st2">N</text>
<polygon points="280.9,159.2 291.8,140.7 292.5,140.7 292.8,141.2 281.9,159.8 281.4,159.5 "/>
<polygon points="283.8,160.9 293.9,143.8 294.4,144.1 294.9,144.4 284.8,161.5 284.3,161.2 "/>
<polygon points="292.8,140.1 315.7,140.3 315.7,140.9 315.7,141.4 292.8,141.2 292.5,140.7 "/>
<text transform="matrix(1 0 0 1 316.333 135.62)" class="st0 st1 st2">H</text>
<text transform="matrix(1 0 0 1 316.333 147.0443)" class="st0 st1 st2">N</text>
<polygon points="324.5,146.1 335.5,165.6 334.8,165.6 334.2,165.6 323.5,146.7 324,146.4 "/>
<polygon points="333.9,163.3 357.2,163.5 357.2,164.1 357.2,164.7 333.9,164.5 333.9,163.9 "/>
<polygon points="333.8,166.7 357.2,166.9 357.2,167.5 357.2,168.1 333.8,167.9 333.8,167.3 "/>
<text transform="matrix(1 0 0 1 358.3345 170.9179)" class="st3 st1 st2">O</text>
<polygon points="335.5,165.6 321,190.1 320.4,190.1 320.1,189.5 334.2,165.6 334.8,165.6 "/>
<polygon points="291.8,140.7 280.4,120.6 280.9,120.3 281.4,120 292.8,140.1 292.5,140.7 "/>
<text transform="matrix(1 0 0 1 260.772 119.4164)" class="st0 st1 st2">H</text>
<text transform="matrix(1 0 0 1 269.8091 121.3417)" class="st0 st1 st5">2</text>
<text transform="matrix(1 0 0 1 274.0918 119.4164)" class="st0 st1 st2">N</text>
<rect x="45.4" y="64.8" class="st6" width="337.6" height="27.1"/>
<text transform="matrix(1 0 0 1 45.3598 81.9673)" class="st1 st7">Guanosine-5&apos;-triphosphate(GTP)</text>
</svg>
