<?xml version="1.0" encoding="utf-8"?>
<!-- Generator: Adobe Illustrator 22.1.0, SVG Export Plug-In . SVG Version: 6.00 Build 0)  -->
<svg version="1.1" id="图层_1" xmlns="http://www.w3.org/2000/svg" xmlns:xlink="http://www.w3.org/1999/xlink" x="0px" y="0px"
	 viewBox="0 0 400 400" style="enable-background:new 0 0 400 400;" xml:space="preserve">
<style type="text/css">
	.st0{fill:#304FF7;}
	.st1{font-family:'ArialMT';}
	.st2{font-size:12.5445px;}
	.st3{fill:#FF0D0D;}
	.st4{font-size:20px;}
</style>
<polygon points="277.1,274.3 266.5,255.9 267,255.7 267.5,255.4 278.1,273.7 277.6,274 "/>
<text transform="matrix(1 0 0 1 258.8528 254.4155)" class="st0 st1 st2">N</text>
<polygon points="266.5,242.7 277.3,224.1 277.6,224.7 277.9,225.3 267.5,243.3 267,243 "/>
<polygon points="277.3,224.1 305.7,224.1 306.1,224.7 306.4,225.3 277.9,225.3 277.6,224.7 "/>
<polygon points="305.7,224.1 316.1,206.1 316.6,206.4 317.1,206.7 306.4,225.3 306.1,224.7 "/>
<text transform="matrix(1 0 0 1 315.3968 205.143)" class="st3 st1 st2">O</text>
<text transform="matrix(1 0 0 1 325.1536 205.143)" class="st3 st1 st2">H</text>
<polygon points="257.7,249.9 235.3,249.9 234.9,249.3 235.3,248.8 257.7,248.8 257.7,249.3 "/>
<polygon points="235.3,249.9 221,274.5 220.7,274 220.4,273.4 234.3,249.3 234.9,249.3 "/>
<polygon points="231.5,249.6 219.2,270.8 218.7,270.6 218.2,270.3 230.5,249.1 231,249.3 "/>
<polygon points="221,274.5 191.9,274.5 192.3,274 192.6,273.4 220.4,273.4 220.7,274 "/>
<polygon points="191.9,274.5 177.7,249.9 178,249.3 178.7,249.3 192.6,273.4 192.3,274 "/>
<polygon points="193.7,270.8 181.5,249.6 182,249.3 182.5,249.1 194.7,270.3 194.2,270.6 "/>
<polygon points="177.7,248.8 191.9,224.1 192.3,224.7 192.6,225.3 178.7,249.3 178,249.3 "/>
<polygon points="191.9,224.1 221,224.1 220.7,224.7 220.4,225.3 192.6,225.3 192.3,224.7 "/>
<polygon points="194.2,227.5 218.7,227.5 218.7,228.1 218.7,228.7 194.2,228.7 194.2,228.1 "/>
<polygon points="221,224.1 235.3,248.8 234.9,249.3 234.3,249.3 220.4,225.3 220.7,224.7 "/>
<polygon points="177.7,249.9 149.3,249.9 149.6,249.3 149.9,248.8 177.7,248.8 178,249.3 "/>
<polygon points="149.3,249.9 135,225.3 135.4,224.7 136,224.7 149.9,248.8 149.6,249.3 "/>
<polygon points="151.1,246.2 138.8,225 139.3,224.7 139.8,224.4 152.1,245.6 151.6,245.9 "/>
<polygon points="135,225.3 106.9,225.3 106.9,224.7 106.9,224.1 135,224.1 135.4,224.7 "/>
<polygon points="106.9,228.7 84.1,228.7 84.1,228.1 84.1,227.5 106.9,227.5 106.9,228.1 "/>
<polygon points="106.9,225.3 84.1,225.3 84.1,224.7 84.1,224.1 106.9,224.1 106.9,224.7 "/>
<polygon points="106.9,221.9 84.1,221.9 84.1,221.3 84.1,220.7 106.9,220.7 106.9,221.3 "/>
<text transform="matrix(1 0 0 1 73.9451 229.7793)" class="st0 st1 st2">N</text>
<polygon points="135,224.1 148.9,200.1 149.6,200.1 149.9,200.6 136,224.7 135.4,224.7 "/>
<polygon points="151.6,196.1 176.1,196.1 176.1,196.6 176.1,197.2 151.6,197.2 151.6,196.6 "/>
<polygon points="149.9,199.5 177.7,199.5 178,200.1 178.4,200.6 149.9,200.6 149.6,200.1 "/>
<polygon points="177.7,199.5 191.6,175.4 192.3,175.4 192.9,175.4 178.4,200.6 178,200.1 "/>
<polygon points="187.8,175.7 175.6,154.5 176.1,154.2 176.6,153.9 188.8,175.1 188.3,175.4 "/>
<polygon points="191.6,175.4 177.7,151.4 178,150.8 178.7,150.8 192.9,175.4 192.3,175.4 "/>
<polygon points="177.7,151.4 149.9,151.4 149.6,150.8 149.3,150.2 177.7,150.2 178,150.8 "/>
<polygon points="152.1,154.5 139.8,175.7 139.3,175.4 138.8,175.1 151.1,153.9 151.6,154.2 "/>
<polygon points="149.9,151.4 136,175.4 135.4,175.4 134.7,175.4 149.3,150.2 149.6,150.8 "/>
<polygon points="136,175.4 149.9,199.5 149.6,200.1 148.9,200.1 134.7,175.4 135.4,175.4 "/>
<polygon points="177.7,150.2 191.8,125.9 192.3,126.2 192.8,126.4 178.7,150.8 178,150.8 "/>
<polygon points="188.8,124.2 199.4,105.9 199.9,106.1 200.4,106.4 189.8,124.7 189.3,124.4 "/>
<polygon points="191.8,125.9 202.3,107.6 202.8,107.8 203.3,108.1 192.8,126.4 192.3,126.2 "/>
<polygon points="194.7,127.6 205.3,109.3 205.8,109.6 206.3,109.8 195.7,128.1 195.2,127.9 "/>
<text transform="matrix(1 0 0 1 201.9578 106.5991)" class="st0 st1 st2">N</text>
<text transform="matrix(1 0 0 1 34.6839 36.6667)"><tspan x="0" y="0" class="st1 st4">(4-((2-hydroxyethyl)(methyl)amino)-</tspan><tspan x="-10.1" y="24" class="st1 st4">benzylidene)-cyanophenylacetonitrile </tspan><tspan x="98.9" y="48" class="st1 st4">           (HBC)</tspan></text>
</svg>
