<svg id="图层_1" data-name="图层 1" xmlns="http://www.w3.org/2000/svg" viewBox="0 0 400 400"><defs><style>.cls-1,.cls-2,.cls-3,.cls-4{isolation:isolate;}.cls-2,.cls-3,.cls-4{font-size:13.07px;}.cls-2{fill:#304ff7;}.cls-2,.cls-3,.cls-4,.cls-5{font-family:ArialMT, Arial;}.cls-3{fill:#ff0d0d;}.cls-4{fill:#6dab3c;}.cls-5{font-size:18px;}</style></defs><polygon points="180.21 190.31 189.42 210.73 188.88 210.97 188.34 211.22 179.13 190.8 179.67 190.55 180.21 190.31"/><g class="cls-1"><text class="cls-2" transform="translate(187.13 222.85)">N</text></g><polygon points="188.6 224.45 177.89 243.21 177.16 243.29 176.79 242.74 187.57 223.86 188.09 224.15 188.6 224.45"/><polygon points="181.97 242.41 194.26 255.94 193.82 256.33 193.38 256.73 181.09 243.21 181.53 242.81 181.97 242.41"/><polygon points="177.89 243.21 191.63 258.33 191.19 258.73 190.75 259.12 176.92 243.92 177.16 243.29 177.89 243.21"/><g class="cls-1"><text class="cls-2" transform="translate(192.37 270.51)">N</text></g><polygon points="202.75 262.01 223.46 252.67 224.1 253.03 224.11 253.68 203.24 263.1 203 262.55 202.75 262.01"/><polygon points="227.6 250.5 249.87 267.01 249.83 267.72 249.79 268.43 226.89 251.45 227.24 250.97 227.6 250.5"/><polygon points="224.65 252.62 250.04 263.34 249.81 263.88 249.58 264.43 224.11 253.68 224.1 253.03 224.65 252.62"/><polygon points="249.87 267.01 274.83 252.44 275.42 252.78 275.42 253.47 249.79 268.43 249.83 267.72 249.87 267.01"/><polygon points="279.26 250.2 301.43 262.85 301.13 263.37 300.84 263.88 278.67 251.23 278.97 250.72 279.26 250.2"/><polygon points="276.01 252.44 301.15 266.79 301.15 267.48 301.16 268.16 275.42 253.47 275.42 252.78 276.01 252.44"/><polygon points="301.15 266.79 326.15 252.2 326.74 252.53 327.34 252.88 301.16 268.16 301.15 267.48 301.15 266.79"/><polygon points="322.58 250.5 322.46 224.98 323.05 224.98 323.64 224.97 323.77 250.5 323.18 250.5 322.58 250.5"/><polygon points="326.15 252.2 326.01 223.25 326.6 222.91 327.19 223.25 327.34 252.88 326.74 252.53 326.15 252.2"/><polygon points="326.01 223.25 300.87 208.9 300.87 208.22 300.86 207.53 326.59 222.22 326.6 222.91 326.01 223.25"/><polygon points="301.18 212.83 279.14 225.7 278.84 225.19 278.54 224.68 300.59 211.81 300.88 212.32 301.18 212.83"/><polygon points="300.87 208.9 275.87 223.49 275.28 223.16 274.68 222.82 300.86 207.53 300.87 208.22 300.87 208.9"/><polygon points="275.87 223.49 276.01 252.44 275.42 252.78 274.83 252.44 274.68 222.82 275.28 223.16 275.87 223.49"/><polygon points="326.59 222.22 345.98 210.9 346.28 211.41 346.58 211.92 327.19 223.25 326.6 222.91 326.59 222.22"/><g class="cls-1"><text class="cls-2" transform="translate(347.47 213.26)">N</text></g><polygon points="358.38 210.82 378.21 222.14 377.92 222.66 377.62 223.17 357.79 211.85 358.09 211.34 358.38 210.82"/><polygon points="351.56 201.38 351.45 178 352.04 178.34 352.63 178.68 352.75 201.37 352.15 201.38 351.56 201.38"/><polygon points="351.45 178 377.04 163.06 377.63 163.4 378.22 163.74 352.63 178.68 352.04 178.34 351.45 178"/><polygon points="377.04 163.06 376.92 140.36 377.52 140.36 378.11 140.35 378.22 163.74 377.63 163.4 377.04 163.06"/><g class="cls-1"><text class="cls-3" transform="translate(372.4 139.06)">O</text><text class="cls-3" transform="translate(382.56 139.06)">H</text></g><polygon points="223.46 252.67 220.32 224.08 220.86 223.58 221.4 223.09 224.65 252.62 224.1 253.03 223.46 252.67"/><polygon points="218.31 222.7 234.92 207.59 235.32 208.03 235.72 208.47 219.11 223.57 218.71 223.14 218.31 222.7"/><polygon points="220.7 225.33 237.31 210.22 237.71 210.66 238.11 211.1 221.5 226.21 221.1 225.77 220.7 225.33"/><g class="cls-1"><text class="cls-3" transform="translate(237.7 208.94)">O</text></g><polygon points="220.32 224.08 197.63 219.37 197.75 218.79 197.87 218.21 221.4 223.09 220.86 223.58 220.32 224.08"/><polygon points="176.92 243.92 147.38 247.17 147.71 246.53 148.03 245.9 176.79 242.74 177.16 243.29 176.92 243.92"/><polygon points="147.38 247.17 132.53 220.84 133.04 220.54 133.56 220.25 148.03 245.9 147.71 246.53 147.38 247.17"/><polygon points="148.82 243.43 129.94 223.27 130.18 222.65 130.41 222.03 149.69 242.62 149.25 243.02 148.82 243.43"/><polygon points="129.94 223.27 101.13 226.44 100.72 225.89 101 225.26 130.41 222.03 130.18 222.65 129.94 223.27"/><polygon points="96.16 226.69 81.06 206.11 81.54 205.76 82.02 205.41 97.12 225.99 96.64 226.34 96.16 226.69"/><polygon points="100.04 225.96 82.91 202.63 83.19 202 83.47 201.38 101 225.26 100.72 225.89 100.04 225.96"/><polygon points="82.91 202.63 54.14 205.79 53.74 205.24 53.33 204.69 83.47 201.38 83.19 202 82.91 202.63"/><polygon points="56.71 208.79 46.44 232.16 45.9 231.92 45.36 231.68 55.62 208.31 56.17 208.55 56.71 208.79"/><polygon points="54.14 205.79 42.5 232.29 41.82 232.37 41.41 231.82 53.33 204.69 53.74 205.24 54.14 205.79"/><polygon points="42.5 232.29 59.63 255.63 59.35 256.25 59.08 256.88 41.54 233 41.82 232.37 42.5 232.29"/><polygon points="60.94 251.91 86.31 249.12 86.37 249.71 86.44 250.29 61.07 253.09 61 252.5 60.94 251.91"/><polygon points="59.63 255.63 88.4 252.46 88.8 253.02 89.21 253.57 59.08 256.88 59.35 256.25 59.63 255.63"/><polygon points="88.4 252.46 100.04 225.96 100.72 225.89 101.13 226.44 89.21 253.57 88.8 253.02 88.4 252.46"/><polygon points="41.54 233 17.61 235.63 17.54 235.04 17.48 234.45 41.41 231.82 41.82 232.37 41.54 233"/><g class="cls-1"><text class="cls-4" transform="translate(8.38 240.9)">F</text></g><text class="cls-5" transform="translate(29.19 79)">4-(N-(2-hydroxyethyl)(methyl))benzylidene-<tspan x="-24.51" y="21.6">3-methyl-2-styryl-3, 5-dihydro-4H-imidazol-4-one </tspan><tspan x="144.55" y="43.2">(NBSI)</tspan></text></svg>