<svg id="图层_1" data-name="图层 1" xmlns="http://www.w3.org/2000/svg" viewBox="0 0 400 400"><defs><style>.cls-1,.cls-2,.cls-3,.cls-4{isolation:isolate;}.cls-2,.cls-3,.cls-4{font-size:21.82px;}.cls-2{fill:#304ff7;}.cls-2,.cls-3,.cls-4,.cls-6{font-family:ArialMT, Arial;}.cls-3{fill:#ff0d0d;}.cls-4{fill:#c39517;}.cls-5{fill:none;stroke:#304ff7;stroke-miterlimit:3.77;stroke-width:0.89px;}.cls-6{font-size:20px;}</style></defs><polygon points="100.82 168.99 108.98 206.32 108.01 206.53 107.05 206.74 98.89 169.41 99.86 169.2 100.82 168.99"/><g class="cls-1"><text class="cls-2" transform="translate(102.54 226.37)">N</text></g><polygon points="101.36 229.2 78.74 254.61 77.53 254.49 77.08 253.5 99.88 227.88 100.62 228.54 101.36 229.2"/><polygon points="74.14 261.43 31.52 261.68 31.52 260.69 31.51 259.7 74.13 259.45 74.13 260.44 74.14 261.43"/><polygon points="76.96 255.48 28.63 255.75 28.05 254.77 27.48 253.78 77.08 253.5 77.53 254.49 76.96 255.48"/><polygon points="28.63 255.75 4.71 297.75 3.56 297.75 2.42 297.76 27.48 253.78 28.05 254.77 28.63 255.75"/><polygon points="11.27 297.21 32.79 334 31.94 334.5 31.08 335 9.56 298.21 10.42 297.71 11.27 297.21"/><polygon points="4.71 297.75 29.11 339.46 28.54 340.45 27.98 341.45 2.42 297.76 3.56 297.75 4.71 297.75"/><polygon points="29.11 339.46 77.44 339.19 78.01 340.17 78.59 341.16 27.98 341.45 28.54 340.45 29.11 339.46"/><polygon points="73.69 333.76 94.79 296.74 95.65 297.23 96.51 297.72 75.41 334.74 74.55 334.25 73.69 333.76"/><polygon points="77.44 339.19 101.36 297.19 102.5 297.19 103.15 298.06 78.59 341.16 78.01 340.17 77.44 339.19"/><polygon points="103 296.07 140.16 287.95 140.37 288.91 140.58 289.88 103.15 298.06 102.5 297.19 103 296.07"/><g class="cls-1"><text class="cls-3" transform="translate(142.35 295.46)">O</text></g><polygon points="150.94 275.52 154.67 238.01 155.72 237.4 156.65 238.07 152.91 275.72 151.93 275.62 150.94 275.52"/><polygon points="155.73 236.32 198.07 217.92 198.46 218.83 198.86 219.74 156.65 238.07 155.72 237.4 155.73 236.32"/><polygon points="160.41 240 198.35 211.24 198.43 212.42 198.5 213.6 161.61 241.58 161.01 240.79 160.41 240"/><polygon points="198.35 211.24 241.46 235.8 241.41 236.91 240.48 237.52 198.5 213.6 198.43 212.42 198.35 211.24"/><polygon points="242.47 237.51 246.63 274.97 245.64 275.07 244.66 275.18 240.48 237.52 241.41 236.91 242.47 237.51"/><polygon points="236.83 240.46 240.72 275.62 239.74 275.73 238.76 275.84 234.86 240.68 235.84 240.57 236.83 240.46"/><g class="cls-1"><text class="cls-2" transform="translate(238.99 294.91)">N</text></g><polygon points="256.92 287.15 294.81 294.97 295.31 296.09 294.68 296.97 256.52 289.08 256.72 288.12 256.92 287.15"/><polygon points="303.02 295.55 324.54 332.33 323.68 332.83 322.83 333.33 301.31 296.55 302.16 296.05 303.02 295.55"/><polygon points="296.45 296.08 320.85 337.8 320.29 338.79 319.72 339.78 294.68 296.97 295.31 296.09 296.45 296.08"/><polygon points="320.85 337.8 369.18 337.52 369.76 338.51 370.34 339.49 319.72 339.78 320.29 338.79 320.85 337.8"/><polygon points="365.44 332.1 386.54 295.07 387.39 295.56 388.25 296.05 367.16 333.08 366.3 332.59 365.44 332.1"/><polygon points="369.18 337.52 393.11 295.53 394.25 295.52 395.39 295.52 370.34 339.49 369.76 338.51 369.18 337.52"/><polygon points="393.11 295.53 368.7 253.81 369.27 252.82 369.83 251.83 395.39 295.52 394.25 295.52 393.11 295.53"/><polygon points="365.88 259.77 323.27 260.01 323.26 259.02 323.26 258.03 365.87 257.79 365.88 258.78 365.88 259.77"/><polygon points="368.7 253.81 320.38 254.09 319.8 253.1 320.24 252.11 369.83 251.83 369.27 252.82 368.7 253.81"/><polygon points="318.58 253.24 295.01 227.36 295.74 226.69 296.47 226.02 320.24 252.11 319.8 253.1 318.58 253.24"/><g class="cls-1"><text class="cls-4" transform="translate(279.22 225.37)">S</text></g><polygon points="277.64 221.62 242.47 237.51 241.41 236.91 241.46 235.8 276.83 219.81 277.24 220.71 277.64 221.62"/><polygon points="320.38 254.09 296.45 296.08 295.31 296.09 294.81 294.97 318.58 253.24 319.8 253.1 320.38 254.09"/><polygon points="237.67 295.79 210.95 320.12 210.29 319.39 209.62 318.66 236.34 294.32 237.01 295.05 237.67 295.79"/><line class="cls-5" x1="254.12" y1="274.69" x2="262.37" y2="274.69"/><line class="cls-5" x1="258.25" y1="270.57" x2="258.25" y2="278.82"/><polygon points="154.67 238.01 119.87 222.76 120.27 221.85 120.67 220.95 155.73 236.32 155.72 237.4 154.67 238.01"/><polygon points="101.36 297.19 76.96 255.48 77.53 254.49 78.74 254.61 103 296.07 102.5 297.19 101.36 297.19"/><text class="cls-6" transform="translate(111.23 110.81)">Oxazole thiazole blue <tspan x="71.18" y="24">(OTB)</tspan></text></svg>