<svg id="图层_1" data-name="图层 1" xmlns="http://www.w3.org/2000/svg" viewBox="0 0 400 400"><defs><style>.cls-1,.cls-2,.cls-3,.cls-4{isolation:isolate;}.cls-2,.cls-3{font-size:8.93px;}.cls-2{fill:#ff0d0d;}.cls-2,.cls-3,.cls-4,.cls-5{font-family:ArialMT, Arial;}.cls-3,.cls-4{fill:#304ff7;}.cls-4{font-size:5.5px;}.cls-5{font-size:20px;}</style></defs><title>Streptomycin_stru_ligand1</title><polygon points="187.03 154.3 186.16 154.39 186.12 153.99 186.08 153.59 186.95 153.5 186.99 153.9 187.03 154.3"/><polygon points="186.96 152.14 185.79 152.27 185.75 151.86 185.7 151.46 186.87 151.34 186.91 151.74 186.96 152.14"/><polygon points="186.88 149.99 185.41 150.14 185.37 149.74 185.33 149.33 186.8 149.18 186.84 149.58 186.88 149.99"/><polygon points="186.81 147.83 185.04 148.01 185 147.61 184.96 147.21 186.72 147.02 186.77 147.42 186.81 147.83"/><polygon points="186.73 145.67 184.66 145.88 184.62 145.48 184.58 145.08 186.65 144.86 186.69 145.26 186.73 145.67"/><polygon points="186.66 143.51 184.29 143.76 184.25 143.35 184.21 142.95 186.57 142.7 186.62 143.1 186.66 143.51"/><polygon points="186.59 141.35 183.92 141.63 183.87 141.22 183.83 140.82 186.5 140.54 186.54 140.95 186.59 141.35"/><polygon points="186.51 139.19 183.54 139.5 183.5 139.1 183.46 138.69 186.43 138.38 186.47 138.79 186.51 139.19"/><polygon points="186.44 137.03 183.17 137.37 183.13 136.97 183.08 136.57 186.35 136.22 186.4 136.63 186.44 137.03"/><polygon points="186.36 134.87 182.79 135.25 182.75 134.84 182.71 134.44 186.28 134.07 186.32 134.47 186.36 134.87"/><polygon points="186.65 154.89 172.03 168.05 171.55 167.94 171.28 167.64 186.33 154.09 186.6 154.4 186.65 154.89"/><polygon points="172.03 168.05 180.03 186.01 179.78 186.45 179.41 186.61 171.36 168.52 171.55 167.94 172.03 168.05"/><polygon points="180.03 186.01 199.58 183.97 199.92 184.34 199.73 184.76 179.82 186.85 179.78 186.45 180.03 186.01"/><polygon points="199.58 183.97 202.78 168.95 203.18 169.03 203.57 169.12 200.36 184.2 199.92 184.34 199.58 183.97"/><g class="cls-1"><text class="cls-2" transform="translate(200.66 168.15)">O</text></g><polygon points="199.65 162.41 186.65 154.89 186.6 154.4 186.8 154.05 200.06 161.7 199.85 162.06 199.65 162.41"/><polygon points="200.36 184.2 210.77 193.67 209.41 194.89 208.06 196.11 199.73 184.76 199.92 184.34 200.36 184.2"/><g class="cls-1"><text class="cls-2" transform="translate(209.99 203.01)">O</text></g><polygon points="233.15 195.65 218.13 200.27 217.75 198.48 217.37 196.7 232.97 194.82 233.27 195.19 233.15 195.65"/><polygon points="233.73 195.09 246.96 209.8 246.82 210.25 246.52 210.52 233.15 195.65 233.27 195.19 233.73 195.09"/><polygon points="246.96 209.8 266.32 205.69 266.63 206.04 266.46 206.49 246.9 210.64 246.82 210.25 246.96 209.8"/><polygon points="266.32 205.69 272.44 186.88 272.9 186.78 273.28 186.91 267.1 205.92 266.63 206.04 266.32 205.69"/><polygon points="272.44 186.88 259.21 172.17 259.35 171.73 259.82 171.65 273.2 186.51 272.9 186.78 272.44 186.88"/><polygon points="259.21 172.17 239.85 176.28 239.54 175.93 239.46 175.53 259.01 171.39 259.35 171.73 259.21 172.17"/><polygon points="239.83 175.58 239.16 176.18 238.89 175.88 238.62 175.58 239.29 174.98 239.56 175.28 239.83 175.58"/><polygon points="238.51 173.78 237.51 174.68 237.24 174.38 236.97 174.08 237.97 173.18 238.24 173.48 238.51 173.78"/><polygon points="237.19 171.98 235.86 173.18 235.59 172.88 235.32 172.58 236.65 171.38 236.92 171.68 237.19 171.98"/><polygon points="235.87 170.18 234.21 171.68 233.94 171.38 233.67 171.08 235.33 169.58 235.6 169.88 235.87 170.18"/><polygon points="234.55 168.38 232.56 170.18 232.29 169.88 232.02 169.57 234.01 167.78 234.28 168.08 234.55 168.38"/><polygon points="233.23 166.59 230.91 168.68 230.64 168.37 230.37 168.07 232.69 165.99 232.96 166.29 233.23 166.59"/><polygon points="231.91 164.79 229.26 167.17 228.99 166.87 228.72 166.57 231.37 164.19 231.64 164.49 231.91 164.79"/><g class="cls-1"><text class="cls-2" transform="translate(216.07 164.49)">H</text><text class="cls-2" transform="translate(222.52 164.49)">O</text></g><polygon points="239.85 176.28 233.73 195.09 233.27 195.19 232.97 194.82 239.16 175.81 239.54 175.93 239.85 176.28"/><polygon points="259.01 171.39 262.42 156.41 264.15 156.97 265.88 157.54 259.82 171.65 259.35 171.73 259.01 171.39"/><g class="cls-1"><text class="cls-2" transform="translate(262.14 156.09)">O</text><text class="cls-2" transform="translate(269.09 156.09)">H</text></g><polygon points="273.05 187.21 272.86 186.34 273.26 186.25 273.65 186.17 273.84 187.04 273.44 187.12 273.05 187.21"/><polygon points="275.22 186.94 274.96 185.7 275.35 185.61 275.75 185.53 276.01 186.78 275.62 186.86 275.22 186.94"/><polygon points="277.39 186.68 277.05 185.06 277.44 184.97 277.84 184.89 278.19 186.51 277.79 186.59 277.39 186.68"/><polygon points="279.56 186.41 279.14 184.42 279.54 184.33 279.93 184.25 280.36 186.25 279.96 186.33 279.56 186.41"/><polygon points="281.74 186.15 281.23 183.78 281.63 183.69 282.03 183.61 282.53 185.98 282.13 186.06 281.74 186.15"/><polygon points="283.91 185.88 283.33 183.14 283.72 183.05 284.12 182.97 284.7 185.72 284.31 185.8 283.91 185.88"/><polygon points="286.08 185.62 285.42 182.5 285.81 182.41 286.21 182.33 286.87 185.45 286.48 185.53 286.08 185.62"/><polygon points="288.25 185.35 287.51 181.86 287.91 181.77 288.3 181.69 289.05 185.19 288.65 185.27 288.25 185.35"/><g class="cls-1"><text class="cls-3" transform="translate(289.48 186.2)">N</text></g><polygon points="297.08 186.85 304.1 197.95 303.75 198.17 303.41 198.38 296.4 187.28 296.74 187.06 297.08 186.85"/><polygon points="295.19 188.37 306.36 197.2 306.25 197.64 305.78 197.78 294.68 189.01 294.94 188.69 295.19 188.37"/><polygon points="306.36 197.2 321.95 193.89 322.03 194.29 322.11 194.69 306.57 197.98 306.25 197.64 306.36 197.2"/><g class="cls-1"><text class="cls-3" transform="translate(322.84 195.9)">N</text><text class="cls-3" transform="translate(329.29 195.9)">H</text><text class="cls-4" transform="translate(335.74 197.27)">2</text></g><polygon points="306.57 197.98 301.84 212.52 301.45 212.39 301.07 212.26 305.78 197.78 306.25 197.64 306.57 197.98"/><g class="cls-1"><text class="cls-3" transform="translate(287.34 219.36)">H</text><text class="cls-4" transform="translate(293.79 220.73)">2</text><text class="cls-3" transform="translate(296.84 219.36)">N</text></g><polygon points="267.1 205.92 277.48 215.37 276.12 216.59 274.77 217.81 266.46 206.49 266.63 206.04 267.1 205.92"/><g class="cls-1"><text class="cls-2" transform="translate(276.7 224.71)">O</text><text class="cls-2" transform="translate(283.65 224.71)">H</text></g><polygon points="246.37 210.17 247.23 210.44 247.1 210.83 246.97 211.21 246.12 210.94 246.25 210.55 246.37 210.17"/><polygon points="245.41 212.42 246.68 212.83 246.56 213.22 246.43 213.6 245.16 213.19 245.28 212.8 245.41 212.42"/><polygon points="244.44 214.67 246.14 215.22 246.01 215.61 245.89 215.99 244.19 215.44 244.31 215.06 244.44 214.67"/><polygon points="243.47 216.92 245.6 217.61 245.47 218 245.35 218.38 243.22 217.69 243.35 217.31 243.47 216.92"/><polygon points="242.51 219.17 245.05 220 244.93 220.39 244.8 220.77 242.25 219.94 242.38 219.56 242.51 219.17"/><polygon points="241.54 221.43 244.51 222.39 244.38 222.78 244.26 223.16 241.29 222.2 241.41 221.81 241.54 221.43"/><polygon points="240.57 223.68 243.97 224.78 243.84 225.17 243.72 225.55 240.32 224.45 240.45 224.06 240.57 223.68"/><g class="cls-1"><text class="cls-3" transform="translate(237.33 233.12)">N</text></g><polygon points="236.54 230.76 221.57 231.66 221.54 231.25 221.52 230.85 236.5 229.96 236.52 230.36 236.54 230.76"/><polygon points="236.16 228.36 221.07 234.02 220.74 233.71 220.86 233.23 235.87 227.6 236.01 227.98 236.16 228.36"/><polygon points="221.07 234.02 216.33 248.59 215.94 248.46 215.56 248.34 220.28 233.8 220.74 233.71 221.07 234.02"/><g class="cls-1"><text class="cls-3" transform="translate(201.83 255.43)">H</text><text class="cls-4" transform="translate(208.27 256.8)">2</text><text class="cls-3" transform="translate(211.33 255.43)">N</text></g><polygon points="220.28 233.8 210.93 223.41 211.23 223.13 211.53 222.86 220.86 233.23 220.74 233.71 220.28 233.8"/><g class="cls-1"><text class="cls-3" transform="translate(194.55 221.12)">H</text><text class="cls-4" transform="translate(201 222.49)">2</text><text class="cls-3" transform="translate(204.05 221.12)">N</text></g><polygon points="179.35 186.28 180.13 186.73 179.93 187.08 179.73 187.43 178.95 186.98 179.15 186.63 179.35 186.28"/><polygon points="177.98 188.21 179.14 188.88 178.94 189.24 178.74 189.59 177.57 188.91 177.78 188.56 177.98 188.21"/><polygon points="176.6 190.15 178.15 191.04 177.95 191.39 177.75 191.74 176.2 190.85 176.4 190.5 176.6 190.15"/><polygon points="175.23 192.08 177.16 193.2 176.96 193.55 176.76 193.9 174.82 192.78 175.03 192.43 175.23 192.08"/><polygon points="173.85 194.01 176.18 195.36 175.97 195.71 175.77 196.06 173.45 194.72 173.65 194.37 173.85 194.01"/><polygon points="172.48 195.95 175.19 197.51 174.98 197.86 174.78 198.21 172.07 196.65 172.28 196.3 172.48 195.95"/><polygon points="171.11 197.88 174.2 199.67 173.99 200.02 173.79 200.37 170.7 198.59 170.9 198.24 171.11 197.88"/><g class="cls-1"><text class="cls-2" transform="translate(166.17 207.6)">O</text></g><polygon points="149.61 203.55 165.36 202.16 165.36 203.98 165.36 205.8 149.61 204.4 149.39 203.97 149.61 203.55"/><polygon points="149.61 204.4 139.74 221.49 139.26 221.51 139.03 221.1 148.92 203.97 149.39 203.97 149.61 204.4"/><polygon points="139 221.91 119 221.9 119 221.5 119.24 221.09 139.03 221.1 139.26 221.51 139 221.91"/><polygon points="118.66 221.7 108.66 204.38 108.89 203.96 109.36 203.96 119.24 221.09 119 221.5 118.66 221.7"/><polygon points="108.67 203.53 118.67 186.22 119.02 186.42 119.25 186.83 109.36 203.96 108.89 203.96 108.67 203.53"/><polygon points="119.02 186.02 134.99 186.02 134.99 186.43 134.99 186.83 119.25 186.83 119.02 186.42 119.02 186.02"/><g class="cls-1"><text class="cls-2" transform="translate(135.8 190.05)">O</text></g><polygon points="142.22 190.73 149.61 203.55 149.39 203.97 148.92 203.97 141.52 191.14 141.87 190.94 142.22 190.73"/><polygon points="119.38 186.16 118.62 186.6 118.42 186.25 118.21 185.9 118.97 185.46 119.17 185.81 119.38 186.16"/><polygon points="118.43 184.22 117.41 184.81 117.21 184.46 117.01 184.1 118.02 183.52 118.23 183.87 118.43 184.22"/><polygon points="117.48 182.28 116.2 183.01 116 182.66 115.8 182.31 117.08 181.57 117.28 181.93 117.48 182.28"/><polygon points="116.54 180.34 115 181.22 114.79 180.87 114.59 180.52 116.13 179.63 116.33 179.98 116.54 180.34"/><polygon points="115.59 178.39 113.79 179.43 113.59 179.08 113.38 178.73 115.19 177.69 115.39 178.04 115.59 178.39"/><polygon points="114.64 176.45 112.58 177.64 112.38 177.29 112.18 176.94 114.24 175.75 114.44 176.1 114.64 176.45"/><polygon points="113.7 174.51 111.37 175.85 111.17 175.5 110.97 175.15 113.29 173.81 113.5 174.16 113.7 174.51"/><polygon points="112.75 172.57 110.17 174.06 109.96 173.71 109.76 173.36 112.35 171.87 112.55 172.22 112.75 172.57"/><polygon points="111.81 170.63 108.96 172.27 108.76 171.92 108.55 171.57 111.4 169.92 111.6 170.27 111.81 170.63"/><polygon points="110.86 168.68 107.75 170.48 107.55 170.13 107.35 169.78 110.45 167.98 110.66 168.33 110.86 168.68"/><polygon points="108.2 169.28 92.93 169.28 92.93 168.87 92.93 168.47 109.6 168.47 108.9 168.88 108.2 169.28"/><g class="cls-1"><text class="cls-2" transform="translate(78.73 172.49)">H</text><text class="cls-2" transform="translate(85.18 172.49)">O</text></g><polygon points="108.66 204.38 92.92 205.77 92.92 203.95 92.92 202.13 108.67 203.53 108.89 203.96 108.66 204.38"/><g class="cls-1"><text class="cls-2" transform="translate(78.71 207.56)">H</text><text class="cls-2" transform="translate(85.16 207.56)">O</text></g><polygon points="118.58 221.33 119.36 221.78 119.16 222.13 118.96 222.48 118.18 222.03 118.38 221.68 118.58 221.33"/><polygon points="117.21 223.26 118.37 223.94 118.17 224.29 117.97 224.64 116.8 223.97 117.01 223.62 117.21 223.26"/><polygon points="115.83 225.2 117.38 226.09 117.18 226.44 116.98 226.8 115.43 225.9 115.63 225.55 115.83 225.2"/><polygon points="114.46 227.13 116.39 228.25 116.19 228.6 115.99 228.95 114.06 227.84 114.26 227.49 114.46 227.13"/><polygon points="113.08 229.07 115.41 230.41 115.2 230.76 115 231.11 112.68 229.77 112.88 229.42 113.08 229.07"/><polygon points="111.71 231 114.42 232.57 114.21 232.92 114.01 233.27 111.31 231.71 111.51 231.35 111.71 231"/><polygon points="110.33 232.94 113.43 234.72 113.22 235.07 113.02 235.43 109.93 233.64 110.13 233.29 110.33 232.94"/><g class="cls-1"><text class="cls-2" transform="translate(98.95 242.65)">H</text><text class="cls-2" transform="translate(105.4 242.65)">O</text></g><polygon points="139.74 221.49 148.36 233.63 146.78 234.55 145.2 235.46 139 221.91 139.26 221.51 139.74 221.49"/><g class="cls-1"><text class="cls-3" transform="translate(146.15 242.67)">N</text><text class="cls-3" transform="translate(152.6 242.67)">H</text></g><polygon points="147.13 243.76 139.6 256.79 139.25 256.59 138.9 256.38 146.42 243.35 146.78 243.55 147.13 243.76"/><polygon points="171.36 168.52 154 178.53 154 178.06 154 177.59 171.34 167.59 171.55 167.94 171.36 168.52"/><polygon points="154 178.53 140.55 170.75 140.75 170.4 140.95 170.05 154 177.59 154 178.06 154 178.53"/><polygon points="153.8 175.61 141.76 168.65 141.97 168.3 142.17 167.95 154.21 174.91 154 175.26 153.8 175.61"/><g class="cls-1"><text class="cls-2" transform="translate(132.99 171.54)">O</text></g><polygon points="171.87 167.62 171.14 168.15 170.9 167.82 170.67 167.5 171.4 166.97 171.63 167.3 171.87 167.62"/><polygon points="170.7 165.63 169.61 166.42 169.37 166.09 169.13 165.76 170.22 164.97 170.46 165.3 170.7 165.63"/><polygon points="169.53 163.64 168.08 164.69 167.84 164.36 167.6 164.03 169.05 162.98 169.29 163.31 169.53 163.64"/><polygon points="168.35 161.64 166.55 162.96 166.31 162.63 166.07 162.3 167.88 160.99 168.12 161.32 168.35 161.64"/><polygon points="167.18 159.65 165.01 161.22 164.78 160.9 164.54 160.57 166.71 158.99 166.94 159.32 167.18 159.65"/><polygon points="166.01 157.66 163.48 159.49 163.24 159.16 163.01 158.84 165.53 157 165.77 157.33 166.01 157.66"/><polygon points="164.84 155.66 161.95 157.76 161.71 157.43 161.47 157.1 164.36 155.01 164.6 155.34 164.84 155.66"/><g class="cls-1"><text class="cls-2" transform="translate(149.73 155.17)">H</text><text class="cls-2" transform="translate(156.18 155.17)">O</text></g><text class="cls-5" transform="translate(136.48 86.5)">Streptomycin</text></svg>