<svg id="_图层_1" data-name=" 图层 1" xmlns="http://www.w3.org/2000/svg" xmlns:xlink="http://www.w3.org/1999/xlink" viewBox="0 0 1200 400">
  <defs>
    <style>
      .cls-1, .cls-7 {
        fill: none;
      }

      .cls-2, .cls-3 {
        isolation: isolate;
      }

      .cls-3 {
        font-size: 26px;
        font-family: ArialMT, Arial;
      }

      .cls-4 {
        letter-spacing: -0.11em;
      }

      .cls-5 {
        clip-path: url(#clip-path);
      }

      .cls-6, .cls-8 {
        fill: gray;
      }

      .cls-6 {
        stroke: gray;
      }

      .cls-7 {
        stroke: orange;
        stroke-linecap: square;
        stroke-linejoin: round;
        stroke-width: 2.4px;
      }
    </style>
    <clipPath id="clip-path">
      <rect class="cls-1" x="188.22" y="79.47" width="803.6" height="638.73"/>
    </clipPath>
  </defs>
  <g class="cls-2">
    <text class="cls-3" transform="translate(431.14 42.61)"><tspan class="cls-4">T</tspan><tspan x="13" y="0">etR Protein (Residues 2-203)</tspan></text>
  </g>
  <g id="figure_1" data-name="figure 1">
    <g id="axes_1" data-name="axes 1">
      <g id="patch_2" data-name="patch 2">
        <g class="cls-5">
          <path class="cls-6" d="M187.42,127.37h65.09v-1.91H187.42Z"/>
        </g>
      </g>
      <g id="patch_3" data-name="patch 3">
        <g class="cls-5">
          <path class="cls-6" d="M557.08,127.37H590v-1.91H557.08Z"/>
        </g>
      </g>
      <g id="patch_4" data-name="patch 4">
        <g class="cls-5">
          <path class="cls-6" d="M717.8,127.37h49v-1.91h-49Z"/>
        </g>
      </g>
      <g id="patch_5" data-name="patch 5">
        <g class="cls-5">
          <path class="cls-6" d="M846.37,127.37h81.17v-1.91H846.37Z"/>
        </g>
      </g>
      <g id="patch_6" data-name="patch 6">
        <g class="cls-5">
          <path class="cls-6" d="M380.29,191.25H557.88v-1.92H380.29Z"/>
        </g>
      </g>
      <g id="patch_7" data-name="patch 7">
        <g class="cls-5">
          <path class="cls-6" d="M830.3,191.25h65.09v-1.92H830.3Z"/>
        </g>
      </g>
      <g id="patch_8" data-name="patch 8">
        <g class="cls-5">
          <path class="cls-6" d="M975,191.25h16.88v-1.92H975Z"/>
        </g>
      </g>
      <g id="patch_9" data-name="patch 9">
        <g class="cls-5">
          <path class="cls-6" d="M187.42,255.12h81.16V253.2H187.42Z"/>
        </g>
      </g>
      <g id="patch_10" data-name="patch 10">
        <g class="cls-5">
          <path class="cls-6" d="M524.93,255.12H590V253.2h-65.1Z"/>
        </g>
      </g>
      <g id="patch_11" data-name="patch 11">
        <g class="cls-5">
          <path class="cls-6" d="M267.78,319H381.09v-1.91H267.78Z"/>
        </g>
      </g>
      <g id="patch_12" data-name="patch 12">
        <g class="cls-5">
          <path class="cls-6" d="M573.15,319h33v-1.91h-33Z"/>
        </g>
      </g>
      <g id="patch_13" data-name="patch 13">
        <g class="cls-5">
          <path class="cls-6" d="M926.73,319h32.95v-1.91H926.73Z"/>
        </g>
      </g>
      <g id="line2d_1" data-name="line2d 1">
        <g class="cls-5">
          <path class="cls-7" d="M254.52,127.37l3,4.7,3,1.67,3-2.42,3-5,3-4.3,3-.89,3,3.1,3,5.1,3,3.81,3,.08,3-3.7,3-5.11,3-3.23,3,.73,3,4.21,3,5,3,2.56,3-1.52,3-4.62,3-4.76,3-1.83,3,2.28,3,4.91,3,4.4,3,1,3-3,3-5.08,3-3.92,3-.24,3,3.59,3,5.12,3,3.35,3-.57,3-4.12,3-5,3-2.7,3,1.37,3,4.55,3,4.81,3,2,3-2.13,3-4.86,3-4.48,3-1.21,3,2.84,3,5.06,3,4,3,.41,3-3.48,3-5.12,3-3.47,3,.4,3,4,3,5.06,3,2.83,3-1.2,3-4.48,3-4.87,3-2.12,3,2,3,4.81,3,4.55,3,1.37,3-2.7,3-5,3-4.13,3-.57,3,3.36,3,5.12,3,3.59,3-.24,3-3.93,3-5.08,3-3,3,1,3,4.39,3,4.92,3,2.27,3-1.82,3-4.76,3-4.62,3-1.52,3,2.56,3,5,3,4.22,3,.73,3-3.23,3-5.11,3-3.71,3,.08,3,3.82,3,5.1,3,3.1,3-.89,3-4.31,3-5,3-2.41,3,1.67,3,4.69"/>
        </g>
      </g>
      <g id="line2d_2" data-name="line2d 2">
        <g class="cls-5">
          <path class="cls-7" d="M592,127.37l1.25,2.38,1.25,2,1.25,1.4,1.25.57,1.25-.34,1.25-1.21,1.25-1.9L602,128l1.25-2.41,1.25-2.15,1.25-1.58,1.25-.79,1.25.12,1.25,1,1.25,1.75,1.25,2.24,1.25,2.42,1.25,2.25,1.25,1.75,1.26,1,1.25.12,1.25-.8,1.25-1.58,1.25-2.15,1.25-2.4,1.25-2.32,1.25-1.9,1.25-1.21,1.25-.35,1.25.57,1.25,1.41,1.25,2,1.25,2.37,1.25,2.38,1.25,2,1.25,1.4,1.25.57,1.25-.34,1.25-1.21,1.25-1.9,1.25-2.32,1.25-2.41,1.25-2.15,1.25-1.58,1.25-.79,1.25.12,1.25,1,1.25,1.75,1.25,2.24,1.25,2.42,1.25,2.25,1.25,1.75,1.25,1,1.25.12,1.25-.8,1.25-1.58,1.25-2.15,1.25-2.4,1.25-2.32,1.25-1.9,1.25-1.21,1.25-.35,1.25.57L672,123l1.25,2,1.25,2.37,1.25,2.38,1.25,2,1.25,1.4,1.25.57,1.25-.34L682,132.2l1.25-1.9,1.25-2.32,1.25-2.41,1.25-2.15,1.25-1.58,1.25-.79,1.25.12,1.25,1,1.25,1.75,1.25,2.24,1.25,2.42,1.25,2.25,1.25,1.75,1.25,1,1.25.12,1.25-.8,1.25-1.58,1.25-2.15,1.25-2.4,1.25-2.32,1.25-1.9,1.25-1.21,1.25-.35,1.25.57,1.25,1.41,1.25,2,1.25,2.37"/>
        </g>
      </g>
      <g id="line2d_3" data-name="line2d 3">
        <g class="cls-5">
          <path class="cls-7" d="M768.83,127.37l.76,1.61.76,1.5.77,1.3.76,1,.76.67.76.28.77-.13.76-.52.76-.9.77-1.2.76-1.44L778,128l.77-1.62.76-1.55.76-1.39.76-1.13.77-.81.76-.43.76,0,.77.38.76.76.76,1.1.77,1.36.76,1.53.76,1.62.76,1.59.77,1.46.76,1.24.76.93.77.58.76.18.76-.23.77-.63.76-1,.76-1.28.76-1.48.77-1.59.76-1.61.76-1.52.77-1.34.76-1,.76-.72.77-.33.76.07.76.48.77.86.76,1.17.76,1.41.76,1.56.77,1.62.76,1.57.76,1.41.77,1.17.76.85.76.48.77.08.76-.33.76-.72.76-1.06.77-1.33.76-1.52.76-1.61.77-1.6.76-1.48.76-1.27.77-1,.76-.62.76-.23.76.18.77.57.76.94.76,1.24.77,1.46.76,1.59.76,1.61.77,1.54.76,1.36.76,1.1.76.76.77.38.76,0,.76-.44.77-.8.76-1.14.76-1.39.77-1.55.76-1.61.76-1.58.76-1.44.77-1.2.76-.9.76-.53.77-.13.76.28.76.68.77,1,.76,1.3.76,1.5.76,1.6"/>
        </g>
      </g>
      <g id="line2d_4" data-name="line2d 4">
        <g class="cls-5">
          <path class="cls-7" d="M929.55,127.37l.6,1.21.6,1.17.6,1.08.6.95.6.8.6.6.6.4.6.17.6-.05.6-.29.6-.51.6-.7.61-.88.6-1,.6-1.13.6-1.19.6-1.21.6-1.2.6-1.12.6-1,.6-.87.6-.71.6-.5.6-.29.6-.06.6.18.6.39.61.61.6.8.6,1,.6,1.08.6,1.16.6,1.21.6,1.21.6,1.17.6,1.08.6.95.6.8.6.6.6.4.6.17.6-.05.61-.29.6-.51.6-.7.6-.88.6-1,.6-1.13L959,128l.6-1.21.6-1.2.6-1.12.6-1,.6-.87.6-.71.6-.5.6-.29.61-.06.6.18.6.39.6.61.6.8.6,1L968,125l.6,1.16.6,1.21.6,1.21.6,1.17.6,1.08.6.95.6.8.6.6.61.4.6.17.6-.05.6-.29.6-.51.6-.7.6-.88.6-1,.6-1.13.6-1.19.6-1.21.6-1.2.6-1.12.6-1,.61-.87.6-.71.6-.5.6-.29.6-.06.6.18.6.39.6.61.6.8.6,1,.6,1.08.6,1.16.6,1.21"/>
        </g>
      </g>
      <g id="line2d_5" data-name="line2d 5">
        <g class="cls-5">
          <path class="cls-7" d="M190.23,191.25l1.9,3.1,1.9,2.32,1.9,1,1.9-.66,1.9-2.1,1.9-3,1.9-3.16,1.9-2.53,1.9-1.24,1.9.36,1.9,1.86L213,190l1.9,3.2,1.9,2.7,1.89,1.51,1.9,0,1.9-1.6,1.9-2.75,1.9-3.21,1.9-2.85,1.9-1.78L232,185l1.9,1.33,1.9,2.58,1.9,3.18,1.9,3,1.9,2,1.9.55,1.9-1.05,1.9-2.39,1.9-3.13L251,188l1.9-2.26,1.9-.85,1.9.76,1.9,2.17,1.9,3.05,1.9,3.15,1.9,2.46,1.9,1.14,1.9-.45,1.9-1.95,1.9-2.93,1.9-3.2,1.9-2.64,1.9-1.43,1.9.16,1.9,1.69,1.9,2.8,1.89,3.21,1.9,2.8,1.9,1.7,1.9.15,1.9-1.43,1.9-2.64,1.9-3.19,1.9-2.94,1.9-2,1.9-.45,1.9,1.14,1.9,2.46,1.9,3.15,1.9,3,1.9,2.18,1.9.75,1.9-.85,1.89-2.25,1.9-3.08,1.9-3.13,1.9-2.39,1.9-1.05,1.9.56,1.9,2,1.9,3,1.9,3.18,1.9,2.58,1.9,1.34,1.9-.26,1.9-1.77,1.9-2.86,1.9-3.2,1.9-2.76,1.9-1.6,1.89-.05,1.9,1.51,1.9,2.7,1.9,3.21,1.9,2.89,1.9,1.86,1.9.36,1.9-1.24,1.9-2.52,1.9-3.17,1.9-3,1.9-2.1,1.9-.65,1.9.95,1.9,2.32,1.9,3.11"/>
        </g>
      </g>
      <g id="line2d_6" data-name="line2d 6">
        <g class="cls-5">
          <path class="cls-7" d="M559.89,191.25l2.71,4.4,2.71,2,2.71-1.56,2.71-4.22,2.72-4.55,2.71-2.38,2.71,1.12,2.71,4,2.71,4.66,2.71,2.75,2.71-.67,2.71-3.73,2.71-4.73,2.72-3.11,2.71.23,2.71,3.43,2.71,4.75,2.71,3.44,2.71.22,2.71-3.11,2.71-4.72,2.72-3.74,2.71-.67,2.71,2.75,2.71,4.67,2.71,4,2.71,1.12,2.71-2.38,2.71-4.55,2.71-4.22,2.72-1.55,2.71,2,2.71,4.41,2.71,4.4,2.71,2,2.71-1.56,2.71-4.22,2.71-4.55,2.71-2.38,2.72,1.12,2.71,4,2.71,4.66,2.71,2.75,2.71-.67,2.71-3.73,2.71-4.73,2.71-3.11,2.71.23,2.72,3.43,2.71,4.75,2.71,3.44,2.71.22,2.71-3.11,2.71-4.72,2.71-3.74,2.71-.67,2.72,2.75,2.71,4.67,2.71,4,2.71,1.12,2.71-2.38,2.71-4.55,2.71-4.22,2.71-1.55,2.71,2,2.72,4.41,2.71,4.4,2.71,2,2.71-1.56,2.71-4.22,2.71-4.55,2.71-2.38L757.8,186l2.71,4,2.72,4.66,2.71,2.75,2.71-.67,2.71-3.73,2.71-4.73,2.71-3.11,2.71.23,2.71,3.43,2.71,4.75,2.72,3.44,2.71.22,2.71-3.11,2.71-4.72,2.71-3.74,2.71-.67,2.71,2.75,2.71,4.67,2.71,4,2.72,1.12,2.71-2.38,2.71-4.55,2.71-4.22,2.71-1.55,2.71,2,2.71,4.41"/>
        </g>
      </g>
      <g id="line2d_7" data-name="line2d 7">
        <g class="cls-5">
          <path class="cls-7" d="M897.4,191.25l.77,1.6.76,1.5.76,1.3.76,1,.77.68.76.28.76-.13.77-.53.76-.9.76-1.2.77-1.44.76-1.58.76-1.61.76-1.55.77-1.39.76-1.14.76-.81.77-.43.76,0,.76.38.77.76.76,1.1.76,1.36.76,1.54.77,1.61.76,1.59.76,1.46.77,1.24.76.94.76.57.77.18.76-.23.76-.62.77-1,.76-1.27.76-1.48.76-1.6.77-1.61.76-1.52.76-1.33.77-1.06.76-.72.76-.33.77.08.76.48.76.85.76,1.17.77,1.41.76,1.57.76,1.61.77,1.57.76,1.41.76,1.17.77.86.76.48.76.07.76-.33.77-.72.76-1.05.76-1.34.77-1.52.76-1.61.76-1.59.77-1.48.76-1.28.76-1,.76-.62.77-.23.76.18.76.58.77.93.76,1.24.76,1.46.77,1.59.76,1.62.76,1.53.76,1.36.77,1.1.76.76.76.38.77,0,.76-.43.76-.81.77-1.14.76-1.38.76-1.55.76-1.62.77-1.58.76-1.44.76-1.2.77-.9.76-.53.76-.12.77.28.76.67.76,1,.77,1.3.76,1.5.76,1.61"/>
        </g>
      </g>
      <g id="line2d_8" data-name="line2d 8">
        <g class="cls-5">
          <path class="cls-7" d="M270.59,255.12l2.55,4.11,2.55,2.18,2.55-.76,2.55-3.35,2.55-4.36,2.55-3.35,2.55-.76L291,251l2.55,4.11,2.55,4.11,2.55,2.18,2.55-.76,2.55-3.35,2.55-4.36,2.55-3.35,2.54-.76,2.55,2.18,2.55,4.11,2.55,4.11,2.55,2.18,2.55-.76,2.55-3.35,2.55-4.36,2.54-3.35,2.55-.76,2.55,2.18,2.55,4.11,2.55,4.11,2.55,2.18,2.55-.76,2.55-3.35,2.55-4.36,2.54-3.35,2.55-.76L359.8,251l2.55,4.11,2.55,4.11,2.55,2.18,2.55-.76,2.55-3.35,2.54-4.36,2.55-3.35,2.55-.76,2.55,2.18,2.55,4.11,2.55,4.11,2.55,2.18,2.55-.76,2.54-3.35,2.55-4.36,2.55-3.35,2.55-.76,2.55,2.18,2.55,4.11,2.55,4.11,2.55,2.18,2.54-.76,2.55-3.35,2.55-4.36,2.55-3.35,2.55-.76,2.55,2.18,2.55,4.11,2.55,4.11,2.55,2.18,2.54-.76,2.55-3.35,2.55-4.36,2.55-3.35,2.55-.76,2.55,2.18,2.55,4.11,2.55,4.11,2.54,2.18,2.55-.76,2.55-3.35,2.55-4.36,2.55-3.35,2.55-.76L474.5,251l2.55,4.11,2.54,4.11,2.55,2.18,2.55-.76,2.55-3.35,2.55-4.36,2.55-3.35,2.55-.76,2.55,2.18,2.55,4.11,2.54,4.11,2.55,2.18,2.55-.76,2.55-3.35,2.55-4.36,2.55-3.35,2.55-.76,2.55,2.18,2.54,4.11"/>
        </g>
      </g>
      <g id="line2d_9" data-name="line2d 9">
        <g class="cls-5">
          <path class="cls-7" d="M592,255.12l4,5.63,4-.31,4-5.93,4-5.28,4,.93,4,6.17,4,4.89,4-1.55,4-6.35,4-4.45,4,2.14,4,6.48,4,4,4-2.73,4-6.55,4-3.46,4,3.28,4,6.56,4,2.92,4-3.81,4-6.51,4-2.34,4,4.3,4,6.4,4,1.75,4-4.75,4-6.24,4-1.14,4,5.16,4,6,4,.52,4-5.52,4-5.73,4,.1,4,5.83,4,5.41,4-.73,4-6.09,4-5,4,1.35,4,6.29,4,4.61,4-1.95,4-6.44,4-4.14,4,2.53,4,6.53,4,3.64,4-3.1,4-6.56,4-3.1,4,3.63,4,6.54,4,2.53,4-4.14,4-6.44,4-2,4,4.61,4,6.29,4,1.35,4-5,4-6.09,4-.73,4,5.4,4,5.84,4,.1,4-5.73,4-5.52,4,.52,4,6,4,5.16,4-1.14,4-6.24,4-4.75,4,1.75,4,6.4,4,4.3,4-2.34,4-6.51,4-3.81,4,2.92,4,6.56,4,3.28,4-3.46,4-6.55,4-2.73,4,4,4,6.48,4,2.14,4-4.45,4-6.35,4-1.55,4,4.89,4,6.17,4,.93,4-5.28,4-5.93,4-.31,4,5.63"/>
        </g>
      </g>
      <g id="line2d_10" data-name="line2d 10">
        <g class="cls-5">
          <path class="cls-7" d="M190.23,319l.77,1.61.76,1.5.76,1.3.77,1,.76.67.76.28.76-.13.77-.52.76-.9.76-1.2.77-1.44.76-1.58.76-1.62.77-1.55.76-1.39.76-1.13.76-.81.77-.43.76,0,.76.38.77.76.76,1.1.76,1.36.77,1.53.76,1.62.76,1.59.76,1.46.77,1.24.76.93.76.58.77.18.76-.23.76-.63.77-1,.76-1.28.76-1.48.77-1.59.76-1.61.76-1.52.76-1.34.77-1.05.76-.72.76-.33.77.07.76.48.76.86.77,1.17.76,1.41.76,1.56.76,1.62.77,1.57.76,1.41.76,1.17.77.85.76.48.76.08.77-.33.76-.72.76-1.06.76-1.33.77-1.52.76-1.61.76-1.6.77-1.48.76-1.27.76-1,.77-.62.76-.23.76.18.76.57.77.94.76,1.24.76,1.46.77,1.59.76,1.61.76,1.54.77,1.36.76,1.1.76.76.76.38.77,0,.76-.44.76-.8.77-1.14.76-1.39.76-1.55.77-1.61.76-1.58.76-1.44.76-1.2.77-.9.76-.53.76-.13.77.28.76.68.76,1,.77,1.3.76,1.5.76,1.6"/>
        </g>
      </g>
      <g id="line2d_11" data-name="line2d 11">
        <g class="cls-5">
          <path class="cls-7" d="M383.1,319l1.9,3.11,1.9,2.32,1.9.95,1.9-.65,1.89-2.1,1.9-3,1.9-3.17,1.9-2.52,1.9-1.24,1.9.36,1.9,1.86,1.9,2.89,1.9,3.21,1.9,2.7,1.9,1.51,1.9-.05,1.9-1.6,1.9-2.76,1.9-3.2,1.9-2.86L423,313l1.9-.26,1.89,1.34,1.9,2.58,1.9,3.18,1.9,3,1.9,2,1.9.56,1.9-1.05,1.9-2.39,1.9-3.13,1.9-3.08,1.9-2.25,1.9-.85,1.9.75,1.9,2.18,1.9,3,1.9,3.15,1.9,2.46,1.89,1.14,1.9-.46,1.9-1.94,1.9-2.94,1.9-3.19,1.9-2.64,1.9-1.43,1.9.15,1.9,1.7,1.9,2.8,1.9,3.21,1.9,2.8,1.9,1.69,1.9.15,1.9-1.42,1.9-2.64,1.9-3.2,1.89-2.94,1.9-1.94,1.9-.45,1.9,1.14,1.9,2.46,1.9,3.15,1.9,3.05,1.9,2.17,1.9.76,1.9-.86,1.9-2.25,1.9-3.07,1.9-3.13,1.9-2.39,1.9-1.05,1.9.55,1.9,2,1.89,3,1.9,3.19,1.9,2.58,1.9,1.33,1.9-.25,1.9-1.78,1.9-2.85,1.9-3.21,1.9-2.75,1.9-1.6,1.9,0,1.9,1.51,1.9,2.7,1.9,3.2,1.9,2.9,1.9,1.86,1.9.36,1.9-1.24,1.89-2.53,1.9-3.16,1.9-3,1.9-2.1,1.9-.66,1.9,1,1.9,2.32,1.9,3.1"/>
        </g>
      </g>
      <g id="line2d_12" data-name="line2d 12">
        <g class="cls-5">
          <path class="cls-7" d="M608.11,319l3.19,5,3.2,1.29,3.2-3.32,3.2-5.49,3.2-3.59,3.2,1,3.19,4.8,3.2,5.1,3.2,1.63,3.2-3.05,3.2-5.46,3.19-3.85,3.2.61,3.2,4.61,3.2,5.22,3.2,2,3.2-2.74,3.19-5.43,3.2-4.09,3.2.26,3.2,4.42,3.2,5.32,3.19,2.28,3.2-2.44,3.2-5.35,3.2-4.32,3.2-.09,3.19,4.21,3.2,5.39,3.2,2.59,3.2-2.12,3.2-5.27,3.2-4.52,3.19-.43,3.2,4,3.2,5.45,3.2,2.89,3.2-1.79,3.19-5.16,3.2-4.71,3.2-.79,3.2,3.73,3.2,5.48,3.2,3.18,3.19-1.46,3.2-5,3.2-4.88,3.2-1.12,3.2,3.46,3.19,5.49,3.2,3.46,3.2-1.12,3.2-4.88,3.2-5,3.2-1.47,3.19,3.19,3.2,5.48,3.2,3.72,3.2-.78,3.2-4.71,3.19-5.16,3.2-1.79,3.2,2.89,3.2,5.45,3.2,4,3.2-.44,3.19-4.52,3.2-5.27,3.2-2.12,3.2,2.6,3.2,5.39,3.19,4.2,3.2-.08,3.2-4.32L848,315l3.2-2.43,3.2,2.28,3.19,5.31,3.2,4.42,3.2.26,3.2-4.09,3.2-5.42,3.19-2.74,3.2,2,3.2,5.21,3.2,4.62,3.2.61,3.2-3.85,3.19-5.47,3.2-3,3.2,1.63,3.2,5.1,3.2,4.8,3.19.95,3.2-3.6,3.2-5.48,3.2-3.33,3.2,1.3,3.19,4.95"/>
        </g>
      </g>
      <g id="text_1" data-name="text 1">
        <g>
          <path id="DejaVuSansMono-Bold-83" d="M192,107.07a4.88,4.88,0,0,1-2-1.18,2.46,2.46,0,0,1-.52-1.66,2.64,2.64,0,0,1,.86-2.1,3.37,3.37,0,0,1,2.36-.77,6.3,6.3,0,0,1,1.36.15,8,8,0,0,1,1.35.46v1.91a5.48,5.48,0,0,0-1.28-.68,3.89,3.89,0,0,0-1.28-.23,1.76,1.76,0,0,0-1.08.28.94.94,0,0,0-.38.82.93.93,0,0,0,.27.68,4,4,0,0,0,1.15.59l.84.31a3.81,3.81,0,0,1,1.75,1.16,2.84,2.84,0,0,1,.56,1.82,2.74,2.74,0,0,1-.88,2.23,4.11,4.11,0,0,1-2.67.74,6.22,6.22,0,0,1-1.47-.18,6.73,6.73,0,0,1-1.42-.52v-2a6.46,6.46,0,0,0,1.51.82,4.16,4.16,0,0,0,1.44.27,1.78,1.78,0,0,0,1.12-.32,1.15,1.15,0,0,0,.4-.92,1.19,1.19,0,0,0-.27-.77,1.68,1.68,0,0,0-.76-.53Z"/>
          <path id="DejaVuSansMono-Bold-82" d="M210.26,106.74a1.08,1.08,0,0,1,.51.28,3.25,3.25,0,0,1,.52.84l1.79,3.54h-2.14l-1.19-2.49a2,2,0,0,1-.14-.29c-.35-.74-.76-1.12-1.23-1.12h-.62v3.9h-1.95v-9.86h2.81a4.34,4.34,0,0,1,2.73.67,2.65,2.65,0,0,1,.83,2.2,2.5,2.5,0,0,1-.49,1.62A2.08,2.08,0,0,1,210.26,106.74Zm-2.5-3.57v2.69h.91a1.68,1.68,0,0,0,1.15-.31,1.33,1.33,0,0,0,.35-1,1.32,1.32,0,0,0-.35-1,1.68,1.68,0,0,0-1.15-.32Z"/>
          <path id="DejaVuSansMono-Bold-76" d="M222.71,111.4v-9.86h1.95v8.15h4.18v1.71Z"/>
          <path id="DejaVuSansMono-Bold-68" d="M240.38,103.29v6.36h.53a1.81,1.81,0,0,0,1.64-.73,4.54,4.54,0,0,0,.49-2.46,4.48,4.48,0,0,0-.49-2.44,1.83,1.83,0,0,0-1.64-.73Zm-1.95-1.75h2.09a4.54,4.54,0,0,1,3.48,1.15,5.46,5.46,0,0,1,1.07,3.77,5.54,5.54,0,0,1-1.07,3.79,4.54,4.54,0,0,1-3.48,1.15h-2.09Z"/>
        </g>
      </g>
      <g id="text_2" data-name="text 2">
        <path id="DejaVuSans-124" d="M189.74,91.85v7.2h-.6v-7.2Z"/>
      </g>
      <g id="text_3" data-name="text 3">
        <path id="DejaVuSans-49" d="M189.3,88.33h1.39v-4.8l-1.52.3v-.78l1.51-.3h.85v5.58h1.39v.72H189.3Z"/>
      </g>
      <g id="text_4" data-name="text 4">
        <g>
          <path id="DejaVuSansMono-Bold-75" d="M253.69,101.54h1.95v3.9l3.05-3.9h2.21l-3.11,3.88,3.22,6h-2.17L256.5,107l-.86,1.1v3.34h-1.95Z"/>
          <path id="DejaVuSansMono-Bold-83-2" data-name="DejaVuSansMono-Bold-83" d="M272.59,107.07a4.81,4.81,0,0,1-2-1.18,2.46,2.46,0,0,1-.52-1.66,2.64,2.64,0,0,1,.86-2.1,3.37,3.37,0,0,1,2.36-.77,6.37,6.37,0,0,1,1.36.15A8,8,0,0,1,276,102v1.91a5.48,5.48,0,0,0-1.28-.68,3.89,3.89,0,0,0-1.28-.23,1.81,1.81,0,0,0-1.09.28,1,1,0,0,0-.37.82.93.93,0,0,0,.27.68,4,4,0,0,0,1.15.59l.84.31a3.81,3.81,0,0,1,1.75,1.16,2.9,2.9,0,0,1,.56,1.82,2.74,2.74,0,0,1-.88,2.23,4.11,4.11,0,0,1-2.67.74,6.16,6.16,0,0,1-1.47-.18,6.73,6.73,0,0,1-1.42-.52v-2a6.46,6.46,0,0,0,1.51.82,4.12,4.12,0,0,0,1.44.27,1.78,1.78,0,0,0,1.12-.32,1.14,1.14,0,0,0,.39-.92,1.18,1.18,0,0,0-.26-.77,1.71,1.71,0,0,0-.77-.53Z"/>
          <path id="DejaVuSansMono-Bold-75-2" data-name="DejaVuSansMono-Bold-75" d="M286.29,101.54h1.95v3.9l3.05-3.9h2.21l-3.11,3.88,3.22,6h-2.17L289.1,107l-.86,1.1v3.34h-1.95Z"/>
          <path id="DejaVuSansMono-Bold-86" d="M305.89,109.78l1.74-8.24h2l-2.35,9.86h-2.7l-2.35-9.86h2Z"/>
          <path id="DejaVuSansMono-Bold-73" d="M319.25,103.25v-1.71h5.88v1.71h-2v6.44h2v1.71h-5.88v-1.71h2v-6.44Z"/>
          <path id="DejaVuSansMono-Bold-78" d="M335.2,101.54h2.1l2.75,7.17v-7.17h1.72v9.86h-2.08l-2.77-7.17v7.17H335.2Z"/>
          <path id="DejaVuSansMono-Bold-83-3" data-name="DejaVuSansMono-Bold-83" d="M354.09,107.07a4.88,4.88,0,0,1-2-1.18,2.46,2.46,0,0,1-.52-1.66,2.68,2.68,0,0,1,.86-2.1,3.37,3.37,0,0,1,2.36-.77,6.3,6.3,0,0,1,1.36.15,8,8,0,0,1,1.35.46v1.91a5.48,5.48,0,0,0-1.28-.68,3.89,3.89,0,0,0-1.28-.23,1.76,1.76,0,0,0-1.08.28.94.94,0,0,0-.38.82.93.93,0,0,0,.27.68,4,4,0,0,0,1.15.59l.84.31a3.81,3.81,0,0,1,1.75,1.16,2.84,2.84,0,0,1,.56,1.82,2.74,2.74,0,0,1-.88,2.23,4.11,4.11,0,0,1-2.67.74,6.22,6.22,0,0,1-1.47-.18,6.73,6.73,0,0,1-1.42-.52v-2a6.46,6.46,0,0,0,1.51.82,4.16,4.16,0,0,0,1.44.27,1.76,1.76,0,0,0,1.12-.32,1.15,1.15,0,0,0,.4-.92,1.19,1.19,0,0,0-.27-.77,1.68,1.68,0,0,0-.76-.53Z"/>
          <path id="DejaVuSansMono-Bold-65" d="M371.09,103.32l-.92,4H372Zm-1.19-1.78h2.39L375,111.4H373l-.61-2.43h-2.61l-.59,2.43h-2Z"/>
          <path id="DejaVuSansMono-Bold-76-2" data-name="DejaVuSansMono-Bold-76" d="M384.8,111.4v-9.86h1.95v8.15h4.18v1.71Z"/>
          <path id="DejaVuSansMono-Bold-69" d="M406.87,111.4h-6.14v-9.86h6.14v1.71h-4.19v2.13h3.8v1.72h-3.8v2.59h4.19Z"/>
          <path id="DejaVuSansMono-Bold-76-3" data-name="DejaVuSansMono-Bold-76" d="M417.41,111.4v-9.86h1.95v8.15h4.17v1.71Z"/>
          <path id="DejaVuSansMono-Bold-76-4" data-name="DejaVuSansMono-Bold-76" d="M433.71,111.4v-9.86h2v8.15h4.17v1.71Z"/>
          <path id="DejaVuSansMono-Bold-78-2" data-name="DejaVuSansMono-Bold-78" d="M449.31,101.54h2.09l2.75,7.17v-7.17h1.72v9.86h-2.08L451,104.23v7.17h-1.71Z"/>
          <path id="DejaVuSansMono-Bold-69-2" data-name="DejaVuSansMono-Bold-69" d="M472.08,111.4h-6.15v-9.86h6.15v1.71h-4.2v2.13h3.8v1.72h-3.8v2.59h4.2Z"/>
          <path id="DejaVuSansMono-Bold-86-2" data-name="DejaVuSansMono-Bold-86" d="M485.19,109.78l1.74-8.24h2l-2.34,9.86h-2.71l-2.34-9.86h2Z"/>
          <path id="DejaVuSansMono-Bold-71" d="M503.18,109.62v-1.88h-1.33V106.1h3v4.52a4.1,4.1,0,0,1-1.24.73,4.33,4.33,0,0,1-1.45.25,3.53,3.53,0,0,1-3-1.34,7.35,7.35,0,0,1,0-7.59,3.69,3.69,0,0,1,3-1.31,3.85,3.85,0,0,1,1.17.17,4.35,4.35,0,0,1,1.08.48v2.16a2.8,2.8,0,0,0-.94-.79,2.58,2.58,0,0,0-1.17-.27,1.85,1.85,0,0,0-1.66.84,4.7,4.7,0,0,0-.55,2.53,4.82,4.82,0,0,0,.53,2.5,1.69,1.69,0,0,0,1.54.86,2.12,2.12,0,0,0,.53,0A1,1,0,0,0,503.18,109.62Z"/>
          <path id="DejaVuSansMono-Bold-73-2" data-name="DejaVuSansMono-Bold-73" d="M514.86,103.25v-1.71h5.87v1.71h-2v6.44h2v1.71h-5.87v-1.71h2v-6.44Z"/>
          <path id="DejaVuSansMono-Bold-69-3" data-name="DejaVuSansMono-Bold-69" d="M537.28,111.4h-6.15v-9.86h6.15v1.71h-4.2v2.13h3.8v1.72h-3.8v2.59h4.2Z"/>
          <path id="DejaVuSansMono-Bold-71-2" data-name="DejaVuSansMono-Bold-71" d="M552.08,109.62v-1.88h-1.33V106.1h3v4.52a4.1,4.1,0,0,1-1.24.73,4.29,4.29,0,0,1-1.45.25,3.53,3.53,0,0,1-3-1.34,7.41,7.41,0,0,1,0-7.59,3.69,3.69,0,0,1,3-1.31,3.85,3.85,0,0,1,1.17.17,4,4,0,0,1,1.08.48v2.16a2.8,2.8,0,0,0-.94-.79,2.58,2.58,0,0,0-1.17-.27,1.85,1.85,0,0,0-1.66.84,4.7,4.7,0,0,0-.55,2.53,4.82,4.82,0,0,0,.53,2.5,1.69,1.69,0,0,0,1.54.86,2.07,2.07,0,0,0,.53,0A1,1,0,0,0,552.08,109.62Z"/>
        </g>
      </g>
      <g id="text_5" data-name="text 5">
        <path id="DejaVuSans-124-2" data-name="DejaVuSans-124" d="M254,91.85v7.2h-.59v-7.2Z"/>
      </g>
      <g id="text_6" data-name="text 6">
        <path id="DejaVuSans-53" d="M253.45,82.75h3.34v.72h-2.56V85a2.39,2.39,0,0,1,.74-.12,2.37,2.37,0,0,1,1.67.57,2.06,2.06,0,0,1,.62,1.57,2,2,0,0,1-.64,1.58,2.6,2.6,0,0,1-1.78.56,4.43,4.43,0,0,1-.81-.07,5.77,5.77,0,0,1-.85-.2V88a3.26,3.26,0,0,0,.78.31,3.44,3.44,0,0,0,.86.1,1.66,1.66,0,0,0,1.16-.38,1.34,1.34,0,0,0,.42-1,1.33,1.33,0,0,0-.42-1,1.66,1.66,0,0,0-1.16-.39,3.08,3.08,0,0,0-.68.08,3.73,3.73,0,0,0-.69.23Z"/>
      </g>
      <g id="text_7" data-name="text 7">
        <g>
          <path id="DejaVuSansMono-Bold-76-5" data-name="DejaVuSansMono-Bold-76" d="M559.77,111.4v-9.86h2v8.15h4.17v1.71Z"/>
          <path id="DejaVuSansMono-Bold-84" d="M579.63,111.4h-2v-8.16h-2.5v-1.7h7v1.7h-2.51Z"/>
        </g>
      </g>
      <g id="text_8" data-name="text 8">
        <path id="DejaVuSans-124-3" data-name="DejaVuSans-124" d="M559.39,91.85v7.2h-.59v-7.2Z"/>
      </g>
      <g id="text_9" data-name="text 9">
        <g>
          <path id="DejaVuSans-50" d="M559.54,88.33h3v.72h-4v-.72L559.84,87c.55-.56.91-.92,1-1.09a3.75,3.75,0,0,0,.57-.78,1.33,1.33,0,0,0,.16-.62,1,1,0,0,0-.35-.82,1.32,1.32,0,0,0-.92-.32,2.89,2.89,0,0,0-.84.14,5.13,5.13,0,0,0-1,.42v-.86a7.57,7.57,0,0,1,1-.31,3.59,3.59,0,0,1,.82-.1,2.33,2.33,0,0,1,1.56.49,1.6,1.6,0,0,1,.58,1.3,1.85,1.85,0,0,1-.15.74,3.35,3.35,0,0,1-.53.82c-.07.08-.29.32-.67.71S560.23,87.63,559.54,88.33Z"/>
          <path id="DejaVuSans-52" d="M566.64,83.49l-2.15,3.37h2.15Zm-.22-.74h1.07v4.11h.9v.7h-.9v1.49h-.85V87.56H563.8v-.82Z"/>
        </g>
      </g>
      <g id="text_10" data-name="text 10">
        <g>
          <path id="DejaVuSansMono-Bold-84-2" data-name="DejaVuSansMono-Bold-84" d="M595.48,111.4h-2v-8.16H591v-1.7h7v1.7h-2.5Z"/>
          <path id="DejaVuSansMono-Bold-82-2" data-name="DejaVuSansMono-Bold-82" d="M612.06,106.74a1,1,0,0,1,.51.28,3.25,3.25,0,0,1,.52.84l1.79,3.54h-2.14l-1.19-2.49a2,2,0,0,1-.14-.29c-.35-.74-.76-1.12-1.23-1.12h-.62v3.9h-1.95v-9.86h2.81a4.39,4.39,0,0,1,2.74.67,2.68,2.68,0,0,1,.82,2.2,2.5,2.5,0,0,1-.49,1.62A2.08,2.08,0,0,1,612.06,106.74Zm-2.5-3.57v2.69h.92a1.67,1.67,0,0,0,1.14-.31,1.33,1.33,0,0,0,.35-1,1.32,1.32,0,0,0-.35-1,1.65,1.65,0,0,0-1.14-.32Z"/>
          <path id="DejaVuSansMono-Bold-75-3" data-name="DejaVuSansMono-Bold-75" d="M623.8,101.54h2v3.9l3-3.9H631l-3.11,3.88,3.22,6H629L626.62,107l-.87,1.1v3.34h-2Z"/>
          <path id="DejaVuSansMono-Bold-76-6" data-name="DejaVuSansMono-Bold-76" d="M640.81,111.4v-9.86h2v8.15h4.17v1.71Z"/>
          <path id="DejaVuSansMono-Bold-65-2" data-name="DejaVuSansMono-Bold-65" d="M659.7,103.32l-.92,4h1.85Zm-1.19-1.78h2.39l2.66,9.86h-1.95L661,109h-2.61l-.59,2.43h-1.95Z"/>
          <path id="DejaVuSansMono-Bold-81" d="M676.26,111.56l-.15,0H676a2.92,2.92,0,0,1-2.58-1.3,8.84,8.84,0,0,1,0-7.65,3.26,3.26,0,0,1,5.19,0,6.91,6.91,0,0,1,.87,3.83,8.69,8.69,0,0,1-.42,2.91,3.12,3.12,0,0,1-1.21,1.68l1.23,1.2-1.33,1Zm-.26-8.45a1.13,1.13,0,0,0-1.09.8,9.88,9.88,0,0,0,0,5.14,1.14,1.14,0,0,0,1.09.79,1.15,1.15,0,0,0,1.1-.79,9.88,9.88,0,0,0,0-5.14A1.14,1.14,0,0,0,676,103.11Z"/>
          <path id="DejaVuSansMono-Bold-75-4" data-name="DejaVuSansMono-Bold-75" d="M689,101.54h2v3.9l3.06-3.9h2.2l-3.11,3.88,3.23,6h-2.17L691.82,107l-.87,1.1v3.34h-2Z"/>
          <path id="DejaVuSansMono-Bold-76-7" data-name="DejaVuSansMono-Bold-76" d="M706,111.4v-9.86h2v8.15h4.17v1.71Z"/>
        </g>
      </g>
      <g id="text_11" data-name="text 11">
        <path id="DejaVuSans-124-4" data-name="DejaVuSans-124" d="M591.54,91.85v7.2h-.6v-7.2Z"/>
      </g>
      <g id="text_12" data-name="text 12">
        <g>
          <path id="DejaVuSans-50-2" data-name="DejaVuSans-50" d="M591.68,88.33h3v.72h-4v-.72L592,87c.56-.56.91-.92,1-1.09a3.13,3.13,0,0,0,.57-.78,1.35,1.35,0,0,0,.17-.62,1.06,1.06,0,0,0-.35-.82,1.36,1.36,0,0,0-.92-.32,3,3,0,0,0-.85.14,5.43,5.43,0,0,0-.95.42v-.86a7.57,7.57,0,0,1,1-.31,3.59,3.59,0,0,1,.82-.1,2.33,2.33,0,0,1,1.56.49,1.6,1.6,0,0,1,.58,1.3,1.84,1.84,0,0,1-.14.74A3.67,3.67,0,0,1,594,86l-.67.71Z"/>
          <path id="DejaVuSans-54" d="M598.38,85.56a1.12,1.12,0,0,0-.91.39,1.87,1.87,0,0,0,0,2.15,1.22,1.22,0,0,0,1.81,0,1.87,1.87,0,0,0,0-2.15A1.12,1.12,0,0,0,598.38,85.56Zm1.69-2.67v.77a4.21,4.21,0,0,0-.65-.23,2.89,2.89,0,0,0-.65-.08,1.55,1.55,0,0,0-1.29.57,3.19,3.19,0,0,0-.51,1.72,1.77,1.77,0,0,1,.63-.56,1.75,1.75,0,0,1,.83-.19,2,2,0,0,1,1.5.57,2.22,2.22,0,0,1,.55,1.57,2.12,2.12,0,0,1-.58,1.56,2,2,0,0,1-1.52.58,1.92,1.92,0,0,1-1.68-.84,4.26,4.26,0,0,1-.57-2.42,3.7,3.7,0,0,1,.71-2.39,2.29,2.29,0,0,1,1.9-.88,3.66,3.66,0,0,1,.65.06A4.14,4.14,0,0,1,600.07,82.89Z"/>
        </g>
      </g>
      <g id="text_13" data-name="text 13">
        <g>
          <path id="DejaVuSansMono-Bold-71-3" data-name="DejaVuSansMono-Bold-71" d="M724.77,109.62v-1.88h-1.34V106.1h3v4.52a4,4,0,0,1-1.24.73,4.29,4.29,0,0,1-1.45.25,3.54,3.54,0,0,1-3-1.34,7.41,7.41,0,0,1,0-7.59,3.69,3.69,0,0,1,3-1.31,3.85,3.85,0,0,1,1.17.17,4,4,0,0,1,1.08.48v2.16a2.8,2.8,0,0,0-.94-.79,2.52,2.52,0,0,0-1.17-.27,1.85,1.85,0,0,0-1.66.84,4.71,4.71,0,0,0-.54,2.53,4.83,4.83,0,0,0,.52,2.5,1.7,1.7,0,0,0,1.54.86,2.07,2.07,0,0,0,.53,0A1.15,1.15,0,0,0,724.77,109.62Z"/>
          <path id="DejaVuSansMono-Bold-86-3" data-name="DejaVuSansMono-Bold-86" d="M739.38,109.78l1.73-8.24h2l-2.35,9.86H738l-2.35-9.86h2Z"/>
          <path id="DejaVuSansMono-Bold-69-4" data-name="DejaVuSansMono-Bold-69" d="M758.86,111.4h-6.15v-9.86h6.15v1.71h-4.2v2.13h3.81v1.72h-3.81v2.59h4.2Z"/>
        </g>
      </g>
      <g id="text_14" data-name="text 14">
        <path id="DejaVuSans-124-5" data-name="DejaVuSans-124" d="M720.11,91.85v7.2h-.59v-7.2Z"/>
      </g>
      <g id="text_15" data-name="text 15">
        <g>
          <path id="DejaVuSans-51" d="M722.11,85.65a1.62,1.62,0,0,1,.95.55,1.52,1.52,0,0,1,.35,1,1.75,1.75,0,0,1-.64,1.44,2.89,2.89,0,0,1-1.83.51,3.83,3.83,0,0,1-.81-.08,6.25,6.25,0,0,1-.87-.23V88a3.18,3.18,0,0,0,.78.31,3.6,3.6,0,0,0,.88.1,2,2,0,0,0,1.22-.31,1.08,1.08,0,0,0,.42-.92,1.06,1.06,0,0,0-.39-.87,1.69,1.69,0,0,0-1.09-.32h-.73v-.7h.77a1.55,1.55,0,0,0,1-.25.86.86,0,0,0,.33-.72.88.88,0,0,0-.34-.75,1.64,1.64,0,0,0-1-.26,4.17,4.17,0,0,0-.75.08,7.7,7.7,0,0,0-.88.23v-.75c.32-.09.63-.16.91-.21a5.7,5.7,0,0,1,.8-.06,2.36,2.36,0,0,1,1.53.44,1.42,1.42,0,0,1,.57,1.19,1.32,1.32,0,0,1-.3.88A1.54,1.54,0,0,1,722.11,85.65Z"/>
          <path id="DejaVuSans-52-2" data-name="DejaVuSans-52" d="M727.36,83.49l-2.15,3.37h2.15Zm-.22-.74h1.07v4.11h.9v.7h-.9v1.49h-.85V87.56h-2.84v-.82Z"/>
        </g>
      </g>
      <g id="text_16" data-name="text 16">
        <g>
          <path id="DejaVuSansMono-Bold-81-2" data-name="DejaVuSansMono-Bold-81" d="M771.56,111.56l-.16,0h-.12a2.92,2.92,0,0,1-2.58-1.3,8.84,8.84,0,0,1,0-7.65,3.26,3.26,0,0,1,5.19,0,6.91,6.91,0,0,1,.87,3.83,9,9,0,0,1-.41,2.91,3.23,3.23,0,0,1-1.21,1.68l1.22,1.2-1.33,1Zm-.27-8.45a1.13,1.13,0,0,0-1.09.8,9.88,9.88,0,0,0,0,5.14,1.14,1.14,0,0,0,1.09.79,1.15,1.15,0,0,0,1.1-.79,9.88,9.88,0,0,0,0-5.14A1.14,1.14,0,0,0,771.29,103.11Z"/>
          <path id="DejaVuSansMono-Bold-80" d="M786.54,103.17v2.9h.8a2.14,2.14,0,0,0,1.34-.32,1.82,1.82,0,0,0,0-2.25,2.06,2.06,0,0,0-1.34-.33Zm-1.95-1.63h2.68a4.73,4.73,0,0,1,2.94.72,3.57,3.57,0,0,1,0,4.72,4.66,4.66,0,0,1-2.94.73h-.73v3.69h-1.95Z"/>
          <path id="DejaVuSansMono-Bold-84-3" data-name="DejaVuSansMono-Bold-84" d="M804.87,111.4h-2v-8.16h-2.51v-1.7h7v1.7h-2.51Z"/>
          <path id="DejaVuSansMono-Bold-76-8" data-name="DejaVuSansMono-Bold-76" d="M817.61,111.4v-9.86h1.95v8.15h4.17v1.71Z"/>
          <path id="DejaVuSansMono-Bold-89" d="M832.47,101.54h2.11l1.91,4,1.93-4h2.1l-3,6v3.88h-2v-3.88Z"/>
        </g>
      </g>
      <g id="text_17" data-name="text 17">
        <path id="DejaVuSans-124-6" data-name="DejaVuSans-124" d="M768.33,91.85v7.2h-.6v-7.2Z"/>
      </g>
      <g id="text_18" data-name="text 18">
        <g>
          <path id="DejaVuSans-51-2" data-name="DejaVuSans-51" d="M770.32,85.65a1.65,1.65,0,0,1,1,.55,1.51,1.51,0,0,1,.34,1,1.73,1.73,0,0,1-.64,1.44,2.86,2.86,0,0,1-1.82.51,3.86,3.86,0,0,1-.82-.08,5.78,5.78,0,0,1-.86-.23V88a3.1,3.1,0,0,0,.77.31,3.65,3.65,0,0,0,.88.1,2,2,0,0,0,1.22-.31,1.08,1.08,0,0,0,.42-.92,1.06,1.06,0,0,0-.39-.87A1.67,1.67,0,0,0,769.3,86h-.74v-.7h.77a1.55,1.55,0,0,0,1-.25.84.84,0,0,0,.34-.72.89.89,0,0,0-.35-.75,1.61,1.61,0,0,0-1-.26,4,4,0,0,0-.75.08,7.7,7.7,0,0,0-.88.23v-.75a9,9,0,0,1,.91-.21,5.56,5.56,0,0,1,.79-.06,2.41,2.41,0,0,1,1.54.44,1.42,1.42,0,0,1,.57,1.19,1.32,1.32,0,0,1-.3.88A1.57,1.57,0,0,1,770.32,85.65Z"/>
          <path id="DejaVuSans-55" d="M773,82.75h4.05v.36l-2.28,5.94h-.89l2.15-5.58h-3Z"/>
        </g>
      </g>
      <g id="text_19" data-name="text 19">
        <g>
          <path id="DejaVuSansMono-Bold-87" d="M847.58,101.54h1.7l.71,7.24.86-4.69h1.61l1,4.69.55-7.24h1.72l-1.14,9.86h-1.82l-1.12-5.18-1,5.18h-1.8Z"/>
          <path id="DejaVuSansMono-Bold-72" d="M864.78,101.54h2v3.76h2.43v-3.76h2v9.86h-2V107h-2.43v4.38h-2Z"/>
          <path id="DejaVuSansMono-Bold-86-4" data-name="DejaVuSansMono-Bold-86" d="M884.25,109.78l1.74-8.24h2l-2.34,9.86H882.9l-2.34-9.86h2Z"/>
          <path id="DejaVuSansMono-Bold-75-5" data-name="DejaVuSansMono-Bold-75" d="M897.25,101.54h2v3.9l3.06-3.9h2.21l-3.12,3.88,3.23,6h-2.17L900.07,107l-.87,1.1v3.34h-2Z"/>
          <path id="DejaVuSansMono-Bold-78-3" data-name="DejaVuSansMono-Bold-78" d="M913.57,101.54h2.09l2.75,7.17v-7.17h1.72v9.86h-2.08l-2.76-7.17v7.17h-1.72Z"/>
        </g>
      </g>
      <g id="text_20" data-name="text 20">
        <path id="DejaVuSans-124-7" data-name="DejaVuSans-124" d="M848.69,91.85v7.2h-.6v-7.2Z"/>
      </g>
      <g id="text_21" data-name="text 21">
        <g>
          <path id="DejaVuSans-52-3" data-name="DejaVuSans-52" d="M850.44,83.49l-2.15,3.37h2.15Zm-.22-.74h1.07v4.11h.9v.7h-.9v1.49h-.85V87.56H847.6v-.82Z"/>
          <path id="DejaVuSans-50-3" data-name="DejaVuSans-50" d="M854.33,88.33h3v.72h-4v-.72L854.63,87c.56-.56.91-.92,1-1.09a3.13,3.13,0,0,0,.57-.78,1.35,1.35,0,0,0,.17-.62,1.06,1.06,0,0,0-.35-.82,1.36,1.36,0,0,0-.92-.32,3,3,0,0,0-.85.14,5.43,5.43,0,0,0-.95.42v-.86a7.57,7.57,0,0,1,1-.31,3.59,3.59,0,0,1,.82-.1,2.33,2.33,0,0,1,1.56.49,1.6,1.6,0,0,1,.58,1.3,1.84,1.84,0,0,1-.14.74,3.67,3.67,0,0,1-.53.82l-.67.71Z"/>
        </g>
      </g>
      <g id="text_22" data-name="text 22">
        <g>
          <path id="DejaVuSansMono-Bold-75-6" data-name="DejaVuSansMono-Bold-75" d="M928.71,101.54h1.95v3.9l3.06-3.9h2.2l-3.11,3.88,3.23,6h-2.17L931.53,107l-.87,1.1v3.34h-1.95Z"/>
          <path id="DejaVuSansMono-Bold-82-3" data-name="DejaVuSansMono-Bold-82" d="M949.57,106.74a1,1,0,0,1,.51.28,3.25,3.25,0,0,1,.52.84l1.79,3.54h-2.14l-1.19-2.49c0-.07-.08-.16-.14-.29-.35-.74-.76-1.12-1.23-1.12h-.62v3.9h-2v-9.86h2.82a4.36,4.36,0,0,1,2.73.67,2.68,2.68,0,0,1,.83,2.2A2.51,2.51,0,0,1,951,106,2.06,2.06,0,0,1,949.57,106.74Zm-2.5-3.57v2.69H948a1.67,1.67,0,0,0,1.14-.31,1.3,1.3,0,0,0,.35-1,1.32,1.32,0,0,0-.34-1,1.68,1.68,0,0,0-1.15-.32Z"/>
          <path id="DejaVuSansMono-Bold-65-3" data-name="DejaVuSansMono-Bold-65" d="M964.61,103.32l-.92,4h1.85Zm-1.19-1.78h2.39l2.66,9.86h-2l-.61-2.43H963.3l-.59,2.43h-2Z"/>
          <path id="DejaVuSansMono-Bold-76-9" data-name="DejaVuSansMono-Bold-76" d="M978.33,111.4v-9.86h1.95v8.15h4.17v1.71Z"/>
        </g>
      </g>
      <g id="text_23" data-name="text 23">
        <path id="DejaVuSans-124-8" data-name="DejaVuSans-124" d="M929.05,91.85v7.2h-.6v-7.2Z"/>
      </g>
      <g id="text_24" data-name="text 24">
        <g>
          <path id="DejaVuSans-52-4" data-name="DejaVuSans-52" d="M930.8,83.49l-2.15,3.37h2.15Zm-.22-.74h1.07v4.11h.9v.7h-.9v1.49h-.85V87.56H928v-.82Z"/>
          <path id="DejaVuSans-55-2" data-name="DejaVuSans-55" d="M933.74,82.75h4v.36l-2.28,5.94h-.89l2.15-5.58h-3Z"/>
        </g>
      </g>
      <g id="text_25" data-name="text 25">
        <g>
          <path id="DejaVuSansMono-Bold-76-10" data-name="DejaVuSansMono-Bold-76" d="M190.11,175.28v-9.87h1.95v8.15h4.17v1.72Z"/>
          <path id="DejaVuSansMono-Bold-68-2" data-name="DejaVuSansMono-Bold-68" d="M207.78,167.17v6.35h.53a1.84,1.84,0,0,0,1.64-.72,4.6,4.6,0,0,0,.49-2.47,4.48,4.48,0,0,0-.49-2.44,1.84,1.84,0,0,0-1.64-.72Zm-1.95-1.76h2.09a4.54,4.54,0,0,1,3.48,1.15,5.48,5.48,0,0,1,1.07,3.77,5.54,5.54,0,0,1-1.07,3.79,4.55,4.55,0,0,1-3.48,1.16h-2.09Z"/>
          <path id="DejaVuSansMono-Bold-65-4" data-name="DejaVuSansMono-Bold-65" d="M225.3,167.19l-.92,4h1.85Zm-1.19-1.78h2.39l2.66,9.87h-1.95l-.61-2.44H224l-.59,2.44h-2Z"/>
          <path id="DejaVuSansMono-Bold-76-11" data-name="DejaVuSansMono-Bold-76" d="M239,175.28v-9.87h2v8.15h4.18v1.72Z"/>
          <path id="DejaVuSansMono-Bold-65-5" data-name="DejaVuSansMono-Bold-65" d="M257.9,167.19l-.92,4h1.85Zm-1.19-1.78h2.39l2.66,9.87h-1.95l-.61-2.44h-2.61l-.59,2.44h-1.95Z"/>
          <path id="DejaVuSansMono-Bold-73-3" data-name="DejaVuSansMono-Bold-73" d="M271.27,167.13v-1.72h5.87v1.72h-2v6.43h2v1.72h-5.87v-1.72h2v-6.43Z"/>
          <path id="DejaVuSansMono-Bold-69-5" data-name="DejaVuSansMono-Bold-69" d="M293.69,175.28h-6.15v-9.87h6.15v1.72h-4.2v2.13h3.8V171h-3.8v2.58h4.2Z"/>
          <path id="DejaVuSansMono-Bold-77" d="M303.3,165.41h2.32l1.18,4.33,1.17-4.33h2.34v9.87h-1.68v-7.91l-1,4.32H306l-1-4.32v7.91H303.3Z"/>
          <path id="DejaVuSansMono-Bold-76-12" data-name="DejaVuSansMono-Bold-76" d="M320.52,175.28v-9.87h2v8.15h4.17v1.72Z"/>
          <path id="DejaVuSansMono-Bold-68-3" data-name="DejaVuSansMono-Bold-68" d="M338.19,167.17v6.35h.52a1.83,1.83,0,0,0,1.64-.72,4.6,4.6,0,0,0,.49-2.47,4.48,4.48,0,0,0-.49-2.44,1.83,1.83,0,0,0-1.64-.72Zm-2-1.76h2.09a4.55,4.55,0,0,1,3.49,1.15,5.48,5.48,0,0,1,1.06,3.77,5.54,5.54,0,0,1-1.06,3.79,4.56,4.56,0,0,1-3.49,1.16h-2.09Z"/>
          <path id="DejaVuSansMono-Bold-82-4" data-name="DejaVuSansMono-Bold-82" d="M357,170.62a1,1,0,0,1,.51.27,3.45,3.45,0,0,1,.52.84l1.79,3.55h-2.14l-1.19-2.49c0-.07-.08-.17-.14-.3q-.53-1.11-1.23-1.11h-.62v3.9h-1.95v-9.87h2.82a4.36,4.36,0,0,1,2.73.67,2.68,2.68,0,0,1,.83,2.2,2.47,2.47,0,0,1-.5,1.62A2.1,2.1,0,0,1,357,170.62Zm-2.5-3.57v2.69h.92a1.73,1.73,0,0,0,1.14-.31,1.73,1.73,0,0,0,0-2.07,1.68,1.68,0,0,0-1.15-.31Z"/>
          <path id="DejaVuSansMono-Bold-72-2" data-name="DejaVuSansMono-Bold-72" d="M368.84,165.41h2v3.76h2.43v-3.76h1.95v9.87h-1.95v-4.39h-2.43v4.39h-2Z"/>
        </g>
      </g>
      <g id="text_26" data-name="text 26">
        <path id="DejaVuSans-124-9" data-name="DejaVuSans-124" d="M189.74,155.72v7.2h-.6v-7.2Z"/>
      </g>
      <g id="text_27" data-name="text 27">
        <g>
          <path id="DejaVuSans-53-2" data-name="DejaVuSans-53" d="M189.16,146.62h3.34v.72h-2.56v1.54a2.22,2.22,0,0,1,.37-.09,2.62,2.62,0,0,1,2,.55,2,2,0,0,1,.62,1.56,2,2,0,0,1-.64,1.58,2.55,2.55,0,0,1-1.78.57,5.66,5.66,0,0,1-.81-.07,7.4,7.4,0,0,1-.85-.2v-.86a3.33,3.33,0,0,0,.79.31,3.88,3.88,0,0,0,.85.1,1.66,1.66,0,0,0,1.16-.39,1.33,1.33,0,0,0,.42-1,1.34,1.34,0,0,0-.42-1,1.66,1.66,0,0,0-1.16-.38,3.05,3.05,0,0,0-1.37.31Z"/>
          <path id="DejaVuSans-49-2" data-name="DejaVuSans-49" d="M194.79,152.21h1.4V147.4l-1.52.3v-.77l1.51-.31H197v5.59h1.39v.71h-3.63Z"/>
        </g>
      </g>
      <g id="text_28" data-name="text 28">
        <g>
          <path id="DejaVuSansMono-Bold-72-3" data-name="DejaVuSansMono-Bold-72" d="M382.4,165.41h2v3.76h2.43v-3.76h2v9.87h-2v-4.39h-2.43v4.39h-2Z"/>
          <path id="DejaVuSansMono-Bold-84-4" data-name="DejaVuSansMono-Bold-84" d="M402.84,175.28h-1.95v-8.16h-2.5v-1.71h7v1.71h-2.51Z"/>
          <path id="DejaVuSansMono-Bold-72-4" data-name="DejaVuSansMono-Bold-72" d="M415,165.41H417v3.76h2.44v-3.76h1.95v9.87h-1.95v-4.39H417v4.39H415Z"/>
          <path id="DejaVuSansMono-Bold-70" d="M437.74,167.13h-4.19v2.13h3.82V171h-3.82v4.3H431.6v-9.87h6.14Z"/>
          <path id="DejaVuSansMono-Bold-67" d="M453.84,175a4.27,4.27,0,0,1-1,.36,4.53,4.53,0,0,1-1.06.12,3.66,3.66,0,0,1-3.05-1.32,7.4,7.4,0,0,1,0-7.6,3.66,3.66,0,0,1,3.05-1.32,4.68,4.68,0,0,1,1.07.12,3.88,3.88,0,0,1,1,.36v2.16a3.89,3.89,0,0,0-1-.67,2.22,2.22,0,0,0-1-.22,1.81,1.81,0,0,0-1.62.85,6.15,6.15,0,0,0,0,5,1.81,1.81,0,0,0,1.62.85,2.22,2.22,0,0,0,1-.22,3.89,3.89,0,0,0,1-.67Z"/>
          <path id="DejaVuSansMono-Bold-80-2" data-name="DejaVuSansMono-Bold-80" d="M466,167.05v2.89h.8a2.12,2.12,0,0,0,1.35-.32,1.86,1.86,0,0,0,0-2.25,2.19,2.19,0,0,0-1.35-.32Zm-1.95-1.64h2.68a4.66,4.66,0,0,1,2.94.73,3.57,3.57,0,0,1,0,4.72,4.73,4.73,0,0,1-2.94.72H466v3.7h-1.95Z"/>
          <path id="DejaVuSansMono-Bold-76-13" data-name="DejaVuSansMono-Bold-76" d="M480.78,175.28v-9.87h2v8.15h4.17v1.72Z"/>
          <path id="DejaVuSansMono-Bold-69-6" data-name="DejaVuSansMono-Bold-69" d="M502.85,175.28H496.7v-9.87h6.15v1.72h-4.2v2.13h3.8V171h-3.8v2.58h4.2Z"/>
          <path id="DejaVuSansMono-Bold-71-4" data-name="DejaVuSansMono-Bold-71" d="M517.66,173.49v-1.88h-1.34V170h3v4.52a3.79,3.79,0,0,1-1.24.73,4.05,4.05,0,0,1-1.45.25,3.54,3.54,0,0,1-3-1.33,6.06,6.06,0,0,1-1-3.79,6,6,0,0,1,1.05-3.8,3.66,3.66,0,0,1,3-1.32,4.19,4.19,0,0,1,1.17.17,4,4,0,0,1,1.08.48v2.17a2.63,2.63,0,0,0-.94-.8,2.52,2.52,0,0,0-1.17-.27,1.85,1.85,0,0,0-1.66.84,4.74,4.74,0,0,0-.54,2.53,4.87,4.87,0,0,0,.52,2.51,1.72,1.72,0,0,0,1.54.86,2,2,0,0,0,.53-.06A1,1,0,0,0,517.66,173.49Z"/>
          <path id="DejaVuSansMono-Bold-69-7" data-name="DejaVuSansMono-Bold-69" d="M535.45,175.28H529.3v-9.87h6.15v1.72h-4.2v2.13h3.81V171h-3.81v2.58h4.2Z"/>
          <path id="DejaVuSansMono-Bold-83-4" data-name="DejaVuSansMono-Bold-83" d="M547.87,171a5,5,0,0,1-2-1.18,2.48,2.48,0,0,1-.52-1.66,2.65,2.65,0,0,1,.86-2.11,3.42,3.42,0,0,1,2.36-.77,5.8,5.8,0,0,1,1.36.16,6.53,6.53,0,0,1,1.35.46v1.9a5.08,5.08,0,0,0-1.28-.67,3.66,3.66,0,0,0-1.28-.24,1.81,1.81,0,0,0-1.09.29,1,1,0,0,0-.37.81.93.93,0,0,0,.27.68,3.76,3.76,0,0,0,1.15.59l.84.32a3.8,3.8,0,0,1,1.75,1.15,2.9,2.9,0,0,1,.56,1.82,2.73,2.73,0,0,1-.88,2.23,4.05,4.05,0,0,1-2.67.74,6.54,6.54,0,0,1-2.89-.7v-2a6.52,6.52,0,0,0,1.51.83,4.12,4.12,0,0,0,1.44.27,1.72,1.72,0,0,0,1.12-.33,1.13,1.13,0,0,0,.39-.92,1.18,1.18,0,0,0-.26-.77,1.79,1.79,0,0,0-.77-.53Z"/>
        </g>
      </g>
      <g id="text_29" data-name="text 29">
        <path id="DejaVuSans-124-10" data-name="DejaVuSans-124" d="M382.6,155.72v7.2H382v-7.2Z"/>
      </g>
      <g id="text_30" data-name="text 30">
        <g>
          <path id="DejaVuSans-54-2" data-name="DejaVuSans-54" d="M383.94,149.43a1.13,1.13,0,0,0-.91.4,1.61,1.61,0,0,0-.33,1.07A1.66,1.66,0,0,0,383,152a1.15,1.15,0,0,0,.91.39,1.14,1.14,0,0,0,.91-.39,1.66,1.66,0,0,0,.34-1.08,1.61,1.61,0,0,0-.34-1.07A1.11,1.11,0,0,0,383.94,149.43Zm1.69-2.67v.78a3.28,3.28,0,0,0-.64-.23,2.46,2.46,0,0,0-.65-.08,1.52,1.52,0,0,0-1.29.57,3,3,0,0,0-.51,1.72,1.69,1.69,0,0,1,.62-.57,1.81,1.81,0,0,1,.83-.19,2,2,0,0,1,1.5.58,2.45,2.45,0,0,1,0,3.12,2,2,0,0,1-1.53.59,1.91,1.91,0,0,1-1.67-.84,4.24,4.24,0,0,1-.58-2.43,3.71,3.71,0,0,1,.71-2.38,2.32,2.32,0,0,1,1.9-.89,3.57,3.57,0,0,1,.65.06A4.64,4.64,0,0,1,385.63,146.76Z"/>
          <path id="DejaVuSans-51-3" data-name="DejaVuSans-51" d="M390.09,149.53a1.59,1.59,0,0,1,1,.54,1.55,1.55,0,0,1,.34,1,1.73,1.73,0,0,1-.64,1.44,2.8,2.8,0,0,1-1.82.52,4.65,4.65,0,0,1-.82-.08,5.85,5.85,0,0,1-.86-.24v-.82a2.76,2.76,0,0,0,.77.31,3.66,3.66,0,0,0,.88.11,2,2,0,0,0,1.22-.32,1.08,1.08,0,0,0,.42-.92,1.06,1.06,0,0,0-.39-.87,1.67,1.67,0,0,0-1.08-.31h-.74v-.7h.77a1.55,1.55,0,0,0,1-.26.82.82,0,0,0,.34-.72.87.87,0,0,0-.35-.74,1.55,1.55,0,0,0-1-.26,4,4,0,0,0-.75.07,6.3,6.3,0,0,0-.89.24v-.76a7.58,7.58,0,0,1,.91-.2,4.64,4.64,0,0,1,.8-.07,2.47,2.47,0,0,1,1.54.44,1.41,1.41,0,0,1,.56,1.19,1.35,1.35,0,0,1-.3.89A1.6,1.6,0,0,1,390.09,149.53Z"/>
        </g>
      </g>
      <g id="text_31" data-name="text 31">
        <g>
          <path id="DejaVuSansMono-Bold-87-2" data-name="DejaVuSansMono-Bold-87" d="M558.28,165.41H560l.71,7.24.85-4.68h1.62l1,4.68.56-7.24h1.71l-1.13,9.87h-1.82l-1.13-5.18-1.05,5.18h-1.8Z"/>
          <path id="DejaVuSansMono-Bold-81-3" data-name="DejaVuSansMono-Bold-81" d="M578.92,175.43l-.16,0h-.12a2.9,2.9,0,0,1-2.57-1.29,8.75,8.75,0,0,1,0-7.65,3.23,3.23,0,0,1,5.18,0,6.87,6.87,0,0,1,.88,3.82,8.8,8.8,0,0,1-.42,2.92,3.11,3.11,0,0,1-1.21,1.67l1.23,1.2-1.34,1Zm-.26-8.45a1.16,1.16,0,0,0-1.1.8,9.88,9.88,0,0,0,0,5.14,1.16,1.16,0,0,0,1.1.8,1.15,1.15,0,0,0,1.09-.8,9.61,9.61,0,0,0,0-5.14A1.15,1.15,0,0,0,578.66,167Z"/>
          <path id="DejaVuSansMono-Bold-68-4" data-name="DejaVuSansMono-Bold-68" d="M593.74,167.17v6.35h.53a1.84,1.84,0,0,0,1.64-.72,4.7,4.7,0,0,0,.49-2.47,4.57,4.57,0,0,0-.49-2.44,1.84,1.84,0,0,0-1.64-.72Zm-2-1.76h2.09a4.54,4.54,0,0,1,3.48,1.15,5.48,5.48,0,0,1,1.07,3.77,5.54,5.54,0,0,1-1.07,3.79,4.55,4.55,0,0,1-3.48,1.16h-2.09Z"/>
          <path id="DejaVuSansMono-Bold-70-2" data-name="DejaVuSansMono-Bold-70" d="M614.53,167.13h-4.19v2.13h3.82V171h-3.82v4.3h-2v-9.87h6.14Z"/>
          <path id="DejaVuSansMono-Bold-76-14" data-name="DejaVuSansMono-Bold-76" d="M625,175.28v-9.87h1.95v8.15h4.17v1.72Z"/>
          <path id="DejaVuSansMono-Bold-82-5" data-name="DejaVuSansMono-Bold-82" d="M645.12,170.62a1,1,0,0,1,.5.27,3.41,3.41,0,0,1,.53.84l1.78,3.55h-2.14l-1.19-2.49c0-.07-.08-.17-.13-.3-.35-.74-.76-1.11-1.24-1.11h-.62v3.9h-2v-9.87h2.82a4.34,4.34,0,0,1,2.73.67,2.65,2.65,0,0,1,.83,2.2,2.47,2.47,0,0,1-.49,1.62A2.13,2.13,0,0,1,645.12,170.62Zm-2.51-3.57v2.69h.92a1.74,1.74,0,0,0,1.15-.31,1.36,1.36,0,0,0,.35-1,1.33,1.33,0,0,0-.35-1,1.68,1.68,0,0,0-1.15-.31Z"/>
          <path id="DejaVuSansMono-Bold-78-4" data-name="DejaVuSansMono-Bold-78" d="M656.87,165.41H659l2.75,7.17v-7.17h1.72v9.87h-2.09l-2.76-7.17v7.17h-1.72Z"/>
          <path id="DejaVuSansMono-Bold-78-5" data-name="DejaVuSansMono-Bold-78" d="M673.17,165.41h2.1l2.75,7.17v-7.17h1.72v9.87h-2.09l-2.76-7.17v7.17h-1.72Z"/>
          <path id="DejaVuSansMono-Bold-65-6" data-name="DejaVuSansMono-Bold-65" d="M692.76,167.19l-.92,4h1.84Zm-1.19-1.78H694l2.67,9.87h-2l-.61-2.44h-2.61l-.6,2.44h-2Z"/>
          <path id="DejaVuSansMono-Bold-75-7" data-name="DejaVuSansMono-Bold-75" d="M705.76,165.41h2v3.9l3-3.9H713l-3.11,3.89,3.22,6h-2.16l-2.34-4.44-.87,1.09v3.35h-2Z"/>
          <path id="DejaVuSansMono-Bold-83-5" data-name="DejaVuSansMono-Bold-83" d="M724.66,171a5.11,5.11,0,0,1-2-1.18,2.48,2.48,0,0,1-.52-1.66A2.68,2.68,0,0,1,723,166a3.42,3.42,0,0,1,2.36-.77,5.74,5.74,0,0,1,1.36.16,6.53,6.53,0,0,1,1.35.46v1.9a5.08,5.08,0,0,0-1.28-.67,3.66,3.66,0,0,0-1.28-.24,1.76,1.76,0,0,0-1.08.29,1,1,0,0,0-.11,1.49,3.76,3.76,0,0,0,1.15.59l.84.32a3.8,3.8,0,0,1,1.75,1.15,2.84,2.84,0,0,1,.56,1.82,2.73,2.73,0,0,1-.88,2.23,4.05,4.05,0,0,1-2.67.74,6.54,6.54,0,0,1-2.89-.7v-2a6.52,6.52,0,0,0,1.51.83,4.16,4.16,0,0,0,1.44.27,1.7,1.7,0,0,0,1.12-.33,1.14,1.14,0,0,0,.4-.92,1.19,1.19,0,0,0-.27-.77,1.75,1.75,0,0,0-.76-.53Z"/>
          <path id="DejaVuSansMono-Bold-70-3" data-name="DejaVuSansMono-Bold-70" d="M744.94,167.13h-4.2v2.13h3.82V171h-3.82v4.3h-2v-9.87h6.15Z"/>
          <path id="DejaVuSansMono-Bold-82-6" data-name="DejaVuSansMono-Bold-82" d="M759.22,170.62a1,1,0,0,1,.51.27,3.45,3.45,0,0,1,.52.84l1.79,3.55H759.9l-1.19-2.49a2.2,2.2,0,0,1-.14-.3q-.52-1.11-1.23-1.11h-.62v3.9h-2v-9.87h2.81a4.39,4.39,0,0,1,2.74.67,2.68,2.68,0,0,1,.82,2.2,2.47,2.47,0,0,1-.49,1.62A2.13,2.13,0,0,1,759.22,170.62Zm-2.5-3.57v2.69h.92a1.73,1.73,0,0,0,1.14-.31,1.36,1.36,0,0,0,.35-1,1.33,1.33,0,0,0-.35-1,1.65,1.65,0,0,0-1.14-.31Z"/>
          <path id="DejaVuSansMono-Bold-67-2" data-name="DejaVuSansMono-Bold-67" d="M777.33,175a4.19,4.19,0,0,1-1,.36,4.62,4.62,0,0,1-1.07.12,3.67,3.67,0,0,1-3-1.32,7.4,7.4,0,0,1,0-7.6,3.67,3.67,0,0,1,3-1.32,4.77,4.77,0,0,1,1.08.12,4,4,0,0,1,1,.36v2.16a3.86,3.86,0,0,0-1-.67,2.26,2.26,0,0,0-1-.22,1.8,1.8,0,0,0-1.61.85,6,6,0,0,0,0,5,1.8,1.8,0,0,0,1.61.85,2.26,2.26,0,0,0,1-.22,3.86,3.86,0,0,0,1-.67Z"/>
          <path id="DejaVuSansMono-Bold-65-7" data-name="DejaVuSansMono-Bold-65" d="M790.56,167.19l-.92,4h1.85Zm-1.19-1.78h2.39l2.66,9.87h-1.95l-.61-2.44h-2.61l-.59,2.44h-1.95Z"/>
          <path id="DejaVuSansMono-Bold-76-15" data-name="DejaVuSansMono-Bold-76" d="M804.28,175.28v-9.87h2v8.15h4.17v1.72Z"/>
          <path id="DejaVuSansMono-Bold-76-16" data-name="DejaVuSansMono-Bold-76" d="M820.58,175.28v-9.87h1.95v8.15h4.17v1.72Z"/>
        </g>
      </g>
      <g id="text_32" data-name="text 32">
        <path id="DejaVuSans-124-11" data-name="DejaVuSans-124" d="M559.39,155.72v7.2h-.59v-7.2Z"/>
      </g>
      <g id="text_33" data-name="text 33">
        <g>
          <path id="DejaVuSans-55-3" data-name="DejaVuSans-55" d="M558.59,146.62h4V147l-2.29,5.93h-.89l2.16-5.58h-3Z"/>
          <path id="DejaVuSans-52-5" data-name="DejaVuSans-52" d="M566.64,147.37l-2.15,3.36h2.15Zm-.22-.75h1.07v4.11h.9v.71h-.9v1.48h-.85v-1.48H563.8v-.82Z"/>
        </g>
      </g>
      <g id="text_34" data-name="text 34">
        <g>
          <path id="DejaVuSansMono-Bold-83-6" data-name="DejaVuSansMono-Bold-83" d="M834.88,171a5.11,5.11,0,0,1-2-1.18,2.48,2.48,0,0,1-.52-1.66,2.68,2.68,0,0,1,.86-2.11,3.42,3.42,0,0,1,2.36-.77,5.74,5.74,0,0,1,1.36.16,6.34,6.34,0,0,1,1.35.46v1.9a5.08,5.08,0,0,0-1.28-.67,3.66,3.66,0,0,0-1.28-.24,1.76,1.76,0,0,0-1.08.29,1,1,0,0,0-.38.81.93.93,0,0,0,.27.68,3.76,3.76,0,0,0,1.15.59l.84.32a3.8,3.8,0,0,1,1.75,1.15,2.84,2.84,0,0,1,.56,1.82,2.73,2.73,0,0,1-.88,2.23,4,4,0,0,1-2.66.74,6.3,6.3,0,0,1-1.48-.18,6.22,6.22,0,0,1-1.42-.52v-2a6.52,6.52,0,0,0,1.51.83,4.16,4.16,0,0,0,1.44.27,1.7,1.7,0,0,0,1.12-.33,1.14,1.14,0,0,0,.4-.92,1.19,1.19,0,0,0-.27-.77,1.75,1.75,0,0,0-.76-.53Z"/>
          <path id="DejaVuSansMono-Bold-72-5" data-name="DejaVuSansMono-Bold-72" d="M848.71,165.41h1.95v3.76h2.44v-3.76h1.95v9.87H853.1v-4.39h-2.44v4.39h-1.95Z"/>
          <path id="DejaVuSansMono-Bold-82-7" data-name="DejaVuSansMono-Bold-82" d="M869.44,170.62a1,1,0,0,1,.51.27,3.45,3.45,0,0,1,.52.84l1.79,3.55h-2.14l-1.19-2.49c0-.07-.08-.17-.14-.3q-.52-1.11-1.23-1.11h-.62v3.9h-2v-9.87h2.81a4.39,4.39,0,0,1,2.74.67,2.68,2.68,0,0,1,.83,2.2,2.47,2.47,0,0,1-.5,1.62A2.13,2.13,0,0,1,869.44,170.62Zm-2.5-3.57v2.69h.92a1.73,1.73,0,0,0,1.14-.31,1.36,1.36,0,0,0,.35-1,1.33,1.33,0,0,0-.35-1,1.65,1.65,0,0,0-1.14-.31Z"/>
          <path id="DejaVuSansMono-Bold-68-5" data-name="DejaVuSansMono-Bold-68" d="M883.26,167.17v6.35h.53a1.83,1.83,0,0,0,1.64-.72,4.6,4.6,0,0,0,.49-2.47,4.48,4.48,0,0,0-.49-2.44,1.83,1.83,0,0,0-1.64-.72Zm-2-1.76h2.09a4.55,4.55,0,0,1,3.49,1.15,5.48,5.48,0,0,1,1.06,3.77,5.54,5.54,0,0,1-1.06,3.79,4.56,4.56,0,0,1-3.49,1.16h-2.09Z"/>
        </g>
      </g>
      <g id="text_35" data-name="text 35">
        <path id="DejaVuSans-124-12" data-name="DejaVuSans-124" d="M832.62,155.72v7.2H832v-7.2Z"/>
      </g>
      <g id="text_36" data-name="text 36">
        <g>
          <path id="DejaVuSans-57" d="M832.05,152.79V152a4.61,4.61,0,0,0,.65.23,3,3,0,0,0,.65.08,1.55,1.55,0,0,0,1.29-.57,3,3,0,0,0,.51-1.72,1.72,1.72,0,0,1-.62.55,1.78,1.78,0,0,1-.83.2,2,2,0,0,1-1.5-.57,2.16,2.16,0,0,1-.55-1.57,2.13,2.13,0,0,1,.57-1.55,2.06,2.06,0,0,1,1.53-.59,1.89,1.89,0,0,1,1.67.84,4.32,4.32,0,0,1,.58,2.43,3.75,3.75,0,0,1-.71,2.38,2.32,2.32,0,0,1-1.9.89,3.59,3.59,0,0,1-.65-.07A4,4,0,0,1,832.05,152.79Zm1.7-2.67a1.14,1.14,0,0,0,.91-.39,1.87,1.87,0,0,0,0-2.15,1.24,1.24,0,0,0-1.82,0,1.92,1.92,0,0,0,0,2.15A1.14,1.14,0,0,0,833.75,150.12Z"/>
          <path id="DejaVuSans-49-3" data-name="DejaVuSans-49" d="M837.68,152.21h1.39V147.4l-1.52.3v-.77l1.51-.31h.85v5.59h1.39v.71h-3.62Z"/>
        </g>
      </g>
      <g id="text_37" data-name="text 37">
        <g>
          <path id="DejaVuSansMono-Bold-71-5" data-name="DejaVuSansMono-Bold-71" d="M901.56,173.49v-1.88h-1.34V170h3v4.52a3.79,3.79,0,0,1-1.24.73,4.05,4.05,0,0,1-1.45.25,3.55,3.55,0,0,1-3-1.33,6.06,6.06,0,0,1-1-3.79,6,6,0,0,1,1-3.8,3.68,3.68,0,0,1,3-1.32,4.3,4.3,0,0,1,1.17.17,4.35,4.35,0,0,1,1.08.48v2.17a2.75,2.75,0,0,0-.95-.8,2.51,2.51,0,0,0-1.16-.27,1.84,1.84,0,0,0-1.66.84,4.63,4.63,0,0,0-.55,2.53,4.76,4.76,0,0,0,.53,2.51,1.7,1.7,0,0,0,1.54.86,2.09,2.09,0,0,0,.53-.06A.93.93,0,0,0,901.56,173.49Z"/>
          <path id="DejaVuSansMono-Bold-65-8" data-name="DejaVuSansMono-Bold-65" d="M916.17,167.19l-.92,4h1.84ZM915,165.41h2.38l2.67,9.87h-1.95l-.61-2.44h-2.61l-.6,2.44h-2Z"/>
          <path id="DejaVuSansMono-Bold-75-8" data-name="DejaVuSansMono-Bold-75" d="M929.17,165.41h2v3.9l3-3.9h2.21l-3.11,3.89,3.22,6h-2.17L932,170.84l-.87,1.09v3.35h-2Z"/>
          <path id="DejaVuSansMono-Bold-86-5" data-name="DejaVuSansMono-Bold-86" d="M948.77,173.65l1.74-8.24h2l-2.35,9.87h-2.7l-2.35-9.87h2Z"/>
          <path id="DejaVuSansMono-Bold-72-6" data-name="DejaVuSansMono-Bold-72" d="M961.9,165.41h2v3.76h2.44v-3.76h2v9.87h-2v-4.39h-2.44v4.39h-2Z"/>
        </g>
      </g>
      <g id="text_38" data-name="text 38">
        <path id="DejaVuSans-124-13" data-name="DejaVuSans-124" d="M896.91,155.72v7.2h-.6v-7.2Z"/>
      </g>
      <g id="text_39" data-name="text 39">
        <g>
          <path id="DejaVuSans-57-2" data-name="DejaVuSans-57" d="M896.34,152.79V152a4.21,4.21,0,0,0,.65.23,3,3,0,0,0,.65.08,1.55,1.55,0,0,0,1.29-.57,3.16,3.16,0,0,0,.51-1.72,1.67,1.67,0,0,1-.63.55,1.76,1.76,0,0,1-.83.2,2,2,0,0,1-1.49-.57,2.16,2.16,0,0,1-.55-1.57,2.13,2.13,0,0,1,.57-1.55,2,2,0,0,1,1.53-.59,1.91,1.91,0,0,1,1.67.84,4.32,4.32,0,0,1,.57,2.43,3.74,3.74,0,0,1-.7,2.38,2.32,2.32,0,0,1-1.9.89A3.59,3.59,0,0,1,897,153,4,4,0,0,1,896.34,152.79Zm1.7-2.67a1.15,1.15,0,0,0,.91-.39,1.92,1.92,0,0,0,0-2.15,1.16,1.16,0,0,0-.91-.4,1.14,1.14,0,0,0-.91.4,1.87,1.87,0,0,0,0,2.15A1.14,1.14,0,0,0,898,150.12Z"/>
          <path id="DejaVuSans-53-3" data-name="DejaVuSans-53" d="M901.82,146.62h3.35v.72H902.6v1.54l.37-.09a2.43,2.43,0,0,1,.38,0,2.33,2.33,0,0,1,1.67.58,2,2,0,0,1,.61,1.56,2,2,0,0,1-.63,1.58,2.57,2.57,0,0,1-1.78.57,5.54,5.54,0,0,1-.81-.07,6.94,6.94,0,0,1-.85-.2v-.86a3.26,3.26,0,0,0,.78.31,4,4,0,0,0,.86.1,1.62,1.62,0,0,0,1.15-.39,1.3,1.3,0,0,0,.43-1,1.32,1.32,0,0,0-.43-1,1.61,1.61,0,0,0-1.15-.38,3.08,3.08,0,0,0-.68.07,3.42,3.42,0,0,0-.7.24Z"/>
        </g>
      </g>
      <g id="text_40" data-name="text 40">
        <path id="DejaVuSansMono-Bold-76-17" data-name="DejaVuSansMono-Bold-76" d="M977.64,175.28v-9.87h2v8.15h4.17v1.72Z"/>
      </g>
      <g id="text_41" data-name="text 41">
        <path id="DejaVuSans-124-14" data-name="DejaVuSans-124" d="M977.27,155.72v7.2h-.6v-7.2Z"/>
      </g>
      <g id="text_42" data-name="text 42">
        <g>
          <path id="DejaVuSans-49-4" data-name="DejaVuSans-49" d="M976.83,152.21h1.39V147.4l-1.52.3v-.77l1.51-.31h.85v5.59h1.39v.71h-3.62Z"/>
          <path id="DejaVuSans-48" d="M984,147.18a1.06,1.06,0,0,0-1,.65,5.9,5.9,0,0,0,0,3.89,1.08,1.08,0,0,0,2,0,5.9,5.9,0,0,0,0-3.89A1.06,1.06,0,0,0,984,147.18Zm0-.67a1.84,1.84,0,0,1,1.62.84,5.55,5.55,0,0,1,0,4.86,1.84,1.84,0,0,1-1.62.84,1.82,1.82,0,0,1-1.62-.84,5.55,5.55,0,0,1,0-4.86A1.82,1.82,0,0,1,984,146.51Z"/>
          <path id="DejaVuSans-48-2" data-name="DejaVuSans-48" d="M989.5,147.18a1.06,1.06,0,0,0-1,.65,5.73,5.73,0,0,0,0,3.89,1.08,1.08,0,0,0,2,0,5.9,5.9,0,0,0,0-3.89A1.06,1.06,0,0,0,989.5,147.18Zm0-.67a1.81,1.81,0,0,1,1.61.84,5.55,5.55,0,0,1,0,4.86,2,2,0,0,1-3.23,0,5.55,5.55,0,0,1,0-4.86A1.82,1.82,0,0,1,989.5,146.51Z"/>
        </g>
      </g>
      <g id="text_43" data-name="text 43">
        <g>
          <path id="DejaVuSansMono-Bold-71-6" data-name="DejaVuSansMono-Bold-71" d="M194.39,237.37v-1.89h-1.33v-1.64h3v4.52a4,4,0,0,1-1.24.74,4.38,4.38,0,0,1-1.46.24,3.55,3.55,0,0,1-3-1.33,7.41,7.41,0,0,1,0-7.59,3.68,3.68,0,0,1,3.05-1.32,4.3,4.3,0,0,1,1.17.17,4.38,4.38,0,0,1,1.08.49v2.16a2.86,2.86,0,0,0-.95-.8,2.63,2.63,0,0,0-1.16-.26,1.84,1.84,0,0,0-1.66.83,4.65,4.65,0,0,0-.55,2.54,4.84,4.84,0,0,0,.53,2.5,1.7,1.7,0,0,0,1.54.86,2.73,2.73,0,0,0,.53-.05A1,1,0,0,0,194.39,237.37Z"/>
          <path id="DejaVuSansMono-Bold-84-5" data-name="DejaVuSansMono-Bold-84" d="M210,239.15H208V231h-2.51v-1.71h7V231H210Z"/>
          <path id="DejaVuSansMono-Bold-82-8" data-name="DejaVuSansMono-Bold-82" d="M226.56,234.49a1,1,0,0,1,.51.28,3.34,3.34,0,0,1,.52.83l1.79,3.55h-2.14l-1.19-2.49a2.68,2.68,0,0,1-.14-.29c-.35-.75-.76-1.12-1.23-1.12h-.62v3.9h-1.95v-9.87h2.81a4.39,4.39,0,0,1,2.74.68,2.67,2.67,0,0,1,.82,2.19,2.47,2.47,0,0,1-.49,1.62A2.13,2.13,0,0,1,226.56,234.49Zm-2.5-3.57v2.69H225a1.67,1.67,0,0,0,1.14-.31,1.36,1.36,0,0,0,.35-1,1.33,1.33,0,0,0-.35-1,1.65,1.65,0,0,0-1.14-.31Z"/>
          <path id="DejaVuSansMono-Bold-80-3" data-name="DejaVuSansMono-Bold-80" d="M240.55,230.92v2.9h.8a2.08,2.08,0,0,0,1.34-.33,1.8,1.8,0,0,0,0-2.24,2.08,2.08,0,0,0-1.34-.33Zm-2-1.64h2.68a4.61,4.61,0,0,1,2.93.73,3.54,3.54,0,0,1,0,4.72,4.68,4.68,0,0,1-2.93.73h-.73v3.69h-2Z"/>
          <path id="DejaVuSansMono-Bold-84-6" data-name="DejaVuSansMono-Bold-84" d="M258.88,239.15h-1.95V231h-2.51v-1.71h7V231h-2.5Z"/>
        </g>
      </g>
      <g id="text_44" data-name="text 44">
        <path id="DejaVuSans-124-15" data-name="DejaVuSans-124" d="M189.74,219.6v7.2h-.6v-7.2Z"/>
      </g>
      <g id="text_45" data-name="text 45">
        <g>
          <path id="DejaVuSans-49-5" data-name="DejaVuSans-49" d="M189.3,216.08h1.39v-4.81l-1.52.31v-.78l1.51-.3h.85v5.58h1.39v.72H189.3Z"/>
          <path id="DejaVuSans-48-3" data-name="DejaVuSans-48" d="M196.47,211.06a1,1,0,0,0-1,.65,4.43,4.43,0,0,0-.33,1.94,4.48,4.48,0,0,0,.33,1.95,1.09,1.09,0,0,0,2,0,4.48,4.48,0,0,0,.33-1.95,4.43,4.43,0,0,0-.33-1.94A1,1,0,0,0,196.47,211.06Zm0-.68a1.84,1.84,0,0,1,1.62.84,5.55,5.55,0,0,1,0,4.86,1.84,1.84,0,0,1-1.62.84,1.82,1.82,0,0,1-1.62-.84,5.55,5.55,0,0,1,0-4.86A1.82,1.82,0,0,1,196.47,210.38Z"/>
          <path id="DejaVuSans-49-6" data-name="DejaVuSans-49" d="M200.29,216.08h1.39v-4.81l-1.51.31v-.78l1.51-.3h.85v5.58h1.39v.72h-3.63Z"/>
        </g>
      </g>
      <g id="text_46" data-name="text 46">
        <g>
          <path id="DejaVuSansMono-Bold-69-8" data-name="DejaVuSansMono-Bold-69" d="M276.24,239.15H270.1v-9.87h6.14V231h-4.19v2.13h3.8v1.72h-3.8v2.58h4.19Z"/>
          <path id="DejaVuSansMono-Bold-75-9" data-name="DejaVuSansMono-Bold-75" d="M286.06,229.28H288v3.9l3.05-3.9h2.21l-3.11,3.89,3.22,6h-2.16l-2.34-4.44-.87,1.1v3.34h-1.95Z"/>
          <path id="DejaVuSansMono-Bold-81-4" data-name="DejaVuSansMono-Bold-81" d="M305.92,239.3l-.15,0h-.12a2.92,2.92,0,0,1-2.58-1.29,8.84,8.84,0,0,1,0-7.65,3.23,3.23,0,0,1,5.18,0,6.8,6.8,0,0,1,.88,3.83,8.69,8.69,0,0,1-.42,2.91,3.12,3.12,0,0,1-1.21,1.68l1.23,1.2-1.33,1Zm-.26-8.44a1.14,1.14,0,0,0-1.09.79,9.65,9.65,0,0,0,0,5.15,1.15,1.15,0,0,0,2.18,0,9.65,9.65,0,0,0,0-5.15A1.13,1.13,0,0,0,305.66,230.86Z"/>
          <path id="DejaVuSansMono-Bold-89-2" data-name="DejaVuSansMono-Bold-89" d="M317.94,229.28H320l1.92,4,1.92-4H326l-3,6v3.89H321v-3.89Z"/>
          <path id="DejaVuSansMono-Bold-69-9" data-name="DejaVuSansMono-Bold-69" d="M341.45,239.15H335.3v-9.87h6.15V231h-4.2v2.13h3.8v1.72h-3.8v2.58h4.2Z"/>
          <path id="DejaVuSansMono-Bold-84-7" data-name="DejaVuSansMono-Bold-84" d="M355.54,239.15h-2V231h-2.51v-1.71h7V231h-2.5Z"/>
          <path id="DejaVuSansMono-Bold-76-18" data-name="DejaVuSansMono-Bold-76" d="M368.28,239.15v-9.87h2v8.15h4.17v1.72Z"/>
          <path id="DejaVuSansMono-Bold-69-10" data-name="DejaVuSansMono-Bold-69" d="M390.35,239.15H384.2v-9.87h6.15V231h-4.2v2.13H390v1.72h-3.8v2.58h4.2Z"/>
          <path id="DejaVuSansMono-Bold-78-6" data-name="DejaVuSansMono-Bold-78" d="M400.18,229.28h2.09l2.75,7.17v-7.17h1.72v9.87h-2.08L401.89,232v7.17h-1.71Z"/>
          <path id="DejaVuSansMono-Bold-81-5" data-name="DejaVuSansMono-Bold-81" d="M420,239.3l-.16,0h-.12a2.93,2.93,0,0,1-2.58-1.29,8.84,8.84,0,0,1,0-7.65,3.24,3.24,0,0,1,5.19,0,6.89,6.89,0,0,1,.87,3.83,9,9,0,0,1-.41,2.91,3.23,3.23,0,0,1-1.21,1.68l1.22,1.2-1.33,1Zm-.27-8.44a1.14,1.14,0,0,0-1.09.79,9.92,9.92,0,0,0,0,5.15,1.14,1.14,0,0,0,1.09.79,1.15,1.15,0,0,0,1.1-.79,9.92,9.92,0,0,0,0-5.15A1.15,1.15,0,0,0,419.76,230.86Z"/>
          <path id="DejaVuSansMono-Bold-76-19" data-name="DejaVuSansMono-Bold-76" d="M433.48,239.15v-9.87h1.95v8.15h4.17v1.72Z"/>
          <path id="DejaVuSansMono-Bold-65-9" data-name="DejaVuSansMono-Bold-65" d="M452.36,231.07l-.92,4h1.85Zm-1.19-1.79h2.39l2.66,9.87h-2l-.6-2.44h-2.62l-.59,2.44h-1.95Z"/>
          <path id="DejaVuSansMono-Bold-70-4" data-name="DejaVuSansMono-Bold-70" d="M471.94,231h-4.2v2.13h3.82v1.72h-3.82v4.3h-1.95v-9.87h6.15Z"/>
          <path id="DejaVuSansMono-Bold-76-20" data-name="DejaVuSansMono-Bold-76" d="M482.38,239.15v-9.87h1.95v8.15h4.17v1.72Z"/>
          <path id="DejaVuSansMono-Bold-67-3" data-name="DejaVuSansMono-Bold-67" d="M504.34,238.87a4.24,4.24,0,0,1-1,.35,4.53,4.53,0,0,1-1.06.12,3.65,3.65,0,0,1-3.05-1.31,7.42,7.42,0,0,1,0-7.61,3.66,3.66,0,0,1,3.05-1.32,4.68,4.68,0,0,1,1.07.12,3.88,3.88,0,0,1,1,.36v2.17a3.7,3.7,0,0,0-1-.68,2.35,2.35,0,0,0-1-.21,1.79,1.79,0,0,0-1.62.85,6,6,0,0,0,0,5,1.79,1.79,0,0,0,1.62.85,2.35,2.35,0,0,0,1-.21,4,4,0,0,0,1-.68Z"/>
          <path id="DejaVuSansMono-Bold-81-6" data-name="DejaVuSansMono-Bold-81" d="M517.83,239.3l-.16,0h-.12a2.9,2.9,0,0,1-2.57-1.29,8.75,8.75,0,0,1,0-7.65,3.23,3.23,0,0,1,5.18,0,6.89,6.89,0,0,1,.87,3.83,8.71,8.71,0,0,1-.41,2.91,3.18,3.18,0,0,1-1.21,1.68l1.23,1.2-1.34,1Zm-.27-8.44a1.14,1.14,0,0,0-1.09.79,9.92,9.92,0,0,0,0,5.15,1.15,1.15,0,0,0,2.19,0,9.92,9.92,0,0,0,0-5.15A1.14,1.14,0,0,0,517.56,230.86Z"/>
        </g>
      </g>
      <g id="text_47" data-name="text 47">
        <path id="DejaVuSans-124-16" data-name="DejaVuSans-124" d="M270.1,219.6v7.2h-.6v-7.2Z"/>
      </g>
      <g id="text_48" data-name="text 48">
        <g>
          <path id="DejaVuSans-49-7" data-name="DejaVuSans-49" d="M269.66,216.08h1.39v-4.81l-1.52.31v-.78l1.51-.3h.85v5.58h1.39v.72h-3.62Z"/>
          <path id="DejaVuSans-48-4" data-name="DejaVuSans-48" d="M276.83,211.06a1,1,0,0,0-1,.65,4.43,4.43,0,0,0-.33,1.94,4.48,4.48,0,0,0,.33,1.95,1.09,1.09,0,0,0,2,0,4.48,4.48,0,0,0,.33-1.95,4.43,4.43,0,0,0-.33-1.94A1,1,0,0,0,276.83,211.06Zm0-.68a1.84,1.84,0,0,1,1.62.84,5.55,5.55,0,0,1,0,4.86,1.84,1.84,0,0,1-1.62.84,1.82,1.82,0,0,1-1.62-.84,5.55,5.55,0,0,1,0-4.86A1.82,1.82,0,0,1,276.83,210.38Z"/>
          <path id="DejaVuSans-54-3" data-name="DejaVuSans-54" d="M282.43,213.31a1.15,1.15,0,0,0-.91.39,1.92,1.92,0,0,0,0,2.15,1.15,1.15,0,0,0,.91.39,1.12,1.12,0,0,0,.91-.39,1.87,1.87,0,0,0,0-2.15A1.12,1.12,0,0,0,282.43,213.31Zm1.69-2.67v.77a3.28,3.28,0,0,0-.64-.23,3,3,0,0,0-.65-.08,1.55,1.55,0,0,0-1.29.57,3,3,0,0,0-.51,1.72,1.75,1.75,0,0,1,.62-.56,1.82,1.82,0,0,1,.83-.2,1.94,1.94,0,0,1,1.5.58,2.45,2.45,0,0,1,0,3.12,2,2,0,0,1-1.53.59,1.91,1.91,0,0,1-1.67-.84,4.32,4.32,0,0,1-.58-2.43,3.73,3.73,0,0,1,.71-2.38,2.32,2.32,0,0,1,1.9-.89,2.88,2.88,0,0,1,.65.07A3.66,3.66,0,0,1,284.12,210.64Z"/>
        </g>
      </g>
      <g id="text_49" data-name="text 49">
        <g>
          <path id="DejaVuSansMono-Bold-81-7" data-name="DejaVuSansMono-Bold-81" d="M530.47,239.3l-.15,0h-.12a2.93,2.93,0,0,1-2.58-1.29,8.84,8.84,0,0,1,0-7.65,3.24,3.24,0,0,1,5.19,0,6.89,6.89,0,0,1,.87,3.83,8.69,8.69,0,0,1-.42,2.91,3.16,3.16,0,0,1-1.2,1.68l1.22,1.2L532,241Zm-.26-8.44a1.14,1.14,0,0,0-1.09.79,9.92,9.92,0,0,0,0,5.15,1.14,1.14,0,0,0,1.09.79,1.15,1.15,0,0,0,1.1-.79,9.92,9.92,0,0,0,0-5.15A1.15,1.15,0,0,0,530.21,230.86Z"/>
          <path id="DejaVuSansMono-Bold-71-7" data-name="DejaVuSansMono-Bold-71" d="M548.2,237.37v-1.89h-1.33v-1.64h3v4.52a4,4,0,0,1-1.24.74,4.33,4.33,0,0,1-1.45.24,3.52,3.52,0,0,1-3-1.33,7.35,7.35,0,0,1,0-7.59,3.65,3.65,0,0,1,3-1.32,4.19,4.19,0,0,1,1.17.17,4.38,4.38,0,0,1,1.08.49v2.16a2.83,2.83,0,0,0-.94-.8,2.71,2.71,0,0,0-1.17-.26,1.85,1.85,0,0,0-1.66.83,4.65,4.65,0,0,0-.55,2.54,4.84,4.84,0,0,0,.53,2.5,1.71,1.71,0,0,0,1.54.86,2.73,2.73,0,0,0,.53-.05A1,1,0,0,0,548.2,237.37Z"/>
          <path id="DejaVuSansMono-Bold-70-5" data-name="DejaVuSansMono-Bold-70" d="M566.09,231h-4.2v2.13h3.82v1.72h-3.82v4.3h-1.95v-9.87h6.15Z"/>
          <path id="DejaVuSansMono-Bold-83-7" data-name="DejaVuSansMono-Bold-83" d="M578.41,234.82a5,5,0,0,1-2-1.18,2.52,2.52,0,0,1-.52-1.66,2.68,2.68,0,0,1,.86-2.11,3.44,3.44,0,0,1,2.36-.77,6.24,6.24,0,0,1,1.36.16,6.72,6.72,0,0,1,1.35.46v1.9a5.37,5.37,0,0,0-1.27-.67,3.7,3.7,0,0,0-1.29-.23,1.76,1.76,0,0,0-1.08.28,1,1,0,0,0-.38.81.88.88,0,0,0,.28.68,3.36,3.36,0,0,0,1.14.59l.84.32a3.76,3.76,0,0,1,1.75,1.16,2.82,2.82,0,0,1,.57,1.81,2.75,2.75,0,0,1-.89,2.24,4.06,4.06,0,0,1-2.66.73,6.15,6.15,0,0,1-1.47-.17,6.81,6.81,0,0,1-1.43-.52v-2a6.73,6.73,0,0,0,1.51.83,4.17,4.17,0,0,0,1.45.27,1.67,1.67,0,0,0,1.11-.33,1.09,1.09,0,0,0,.4-.91,1.24,1.24,0,0,0-.26-.78,1.75,1.75,0,0,0-.77-.52Z"/>
        </g>
      </g>
      <g id="text_50" data-name="text 50">
        <path id="DejaVuSans-124-17" data-name="DejaVuSans-124" d="M527.25,219.6v7.2h-.6v-7.2Z"/>
      </g>
      <g id="text_51" data-name="text 51">
        <g>
          <path id="DejaVuSans-49-8" data-name="DejaVuSans-49" d="M526.81,216.08h1.39v-4.81l-1.51.31v-.78l1.5-.3H529v5.58h1.4v.72h-3.63Z"/>
          <path id="DejaVuSans-50-4" data-name="DejaVuSans-50" d="M532.89,216.08h3v.72h-4v-.72q.48-.51,1.32-1.35c.56-.56.91-.93,1-1.09a3.54,3.54,0,0,0,.57-.78,1.35,1.35,0,0,0,.17-.63,1,1,0,0,0-.36-.81,1.31,1.31,0,0,0-.91-.32,3,3,0,0,0-.85.14,4.78,4.78,0,0,0-1,.42v-.86a6.24,6.24,0,0,1,1-.31,3.64,3.64,0,0,1,.82-.11,2.39,2.39,0,0,1,1.56.49,1.62,1.62,0,0,1,.58,1.31,2.07,2.07,0,0,1-.14.74,4.08,4.08,0,0,1-.53.82l-.67.7Z"/>
          <path id="DejaVuSans-50-5" data-name="DejaVuSans-50" d="M538.39,216.08h3v.72h-4v-.72q.48-.51,1.32-1.35c.56-.56.91-.93,1-1.09a4.36,4.36,0,0,0,.57-.78,1.34,1.34,0,0,0,.16-.63,1,1,0,0,0-.35-.81,1.32,1.32,0,0,0-.92-.32,2.89,2.89,0,0,0-.84.14,4.54,4.54,0,0,0-1,.42v-.86a6.24,6.24,0,0,1,1-.31,3.64,3.64,0,0,1,.82-.11,2.39,2.39,0,0,1,1.56.49,1.62,1.62,0,0,1,.58,1.31,1.88,1.88,0,0,1-.15.74,3.58,3.58,0,0,1-.52.82l-.68.7C539.61,214.83,539.08,215.38,538.39,216.08Z"/>
        </g>
      </g>
      <g id="text_52" data-name="text 52">
        <g>
          <path id="DejaVuSansMono-Bold-76-21" data-name="DejaVuSansMono-Bold-76" d="M591.91,239.15v-9.87h2v8.15H598v1.72Z"/>
          <path id="DejaVuSansMono-Bold-69-11" data-name="DejaVuSansMono-Bold-69" d="M614,239.15h-6.14v-9.87H614V231h-4.19v2.13h3.8v1.72h-3.8v2.58H614Z"/>
          <path id="DejaVuSansMono-Bold-78-7" data-name="DejaVuSansMono-Bold-78" d="M623.81,229.28h2.1l2.75,7.17v-7.17h1.72v9.87H628.3L625.53,232v7.17h-1.72Z"/>
          <path id="DejaVuSansMono-Bold-65-10" data-name="DejaVuSansMono-Bold-65" d="M643.4,231.07l-.92,4h1.85Zm-1.19-1.79h2.39l2.66,9.87h-2l-.61-2.44h-2.61l-.59,2.44h-2Z"/>
          <path id="DejaVuSansMono-Bold-76-22" data-name="DejaVuSansMono-Bold-76" d="M657.12,239.15v-9.87h2v8.15h4.17v1.72Z"/>
          <path id="DejaVuSansMono-Bold-89-3" data-name="DejaVuSansMono-Bold-89" d="M672,229.28h2.1l1.92,4,1.92-4H680l-3,6v3.89h-2v-3.89Z"/>
          <path id="DejaVuSansMono-Bold-65-11" data-name="DejaVuSansMono-Bold-65" d="M692.3,231.07l-.92,4h1.85Zm-1.19-1.79h2.39l2.66,9.87h-1.95l-.61-2.44H691l-.59,2.44h-1.95Z"/>
          <path id="DejaVuSansMono-Bold-76-23" data-name="DejaVuSansMono-Bold-76" d="M706,239.15v-9.87h2v8.15h4.17v1.72Z"/>
          <path id="DejaVuSansMono-Bold-83-8" data-name="DejaVuSansMono-Bold-83" d="M724.2,234.82a5,5,0,0,1-2-1.18,2.52,2.52,0,0,1-.52-1.66,2.68,2.68,0,0,1,.86-2.11,3.42,3.42,0,0,1,2.36-.77,6.24,6.24,0,0,1,1.36.16,6.72,6.72,0,0,1,1.35.46v1.9a5.37,5.37,0,0,0-1.27-.67,3.7,3.7,0,0,0-1.29-.23A1.76,1.76,0,0,0,724,231a1,1,0,0,0-.38.81.88.88,0,0,0,.28.68,3.36,3.36,0,0,0,1.14.59l.84.32a3.76,3.76,0,0,1,1.75,1.16,2.82,2.82,0,0,1,.57,1.81,2.75,2.75,0,0,1-.89,2.24,4.06,4.06,0,0,1-2.66.73,6.15,6.15,0,0,1-1.47-.17,6.81,6.81,0,0,1-1.43-.52v-2a6.73,6.73,0,0,0,1.51.83,4.17,4.17,0,0,0,1.45.27,1.67,1.67,0,0,0,1.11-.33,1.09,1.09,0,0,0,.4-.91,1.24,1.24,0,0,0-.26-.78,1.75,1.75,0,0,0-.77-.52Z"/>
          <path id="DejaVuSansMono-Bold-65-12" data-name="DejaVuSansMono-Bold-65" d="M741.2,231.07l-.92,4h1.85ZM740,229.28h2.39l2.66,9.87h-1.95l-.61-2.44h-2.61l-.59,2.44h-1.95Z"/>
          <path id="DejaVuSansMono-Bold-86-6" data-name="DejaVuSansMono-Bold-86" d="M757.5,237.52l1.74-8.24h2l-2.34,9.87h-2.71l-2.34-9.87h2Z"/>
          <path id="DejaVuSansMono-Bold-71-8" data-name="DejaVuSansMono-Bold-71" d="M775.49,237.37v-1.89h-1.33v-1.64h3v4.52a3.93,3.93,0,0,1-1.24.74,4.28,4.28,0,0,1-1.45.24,3.52,3.52,0,0,1-3-1.33,7.41,7.41,0,0,1,0-7.59,3.66,3.66,0,0,1,3-1.32,4.19,4.19,0,0,1,1.17.17,4.07,4.07,0,0,1,1.08.49v2.16a2.83,2.83,0,0,0-.94-.8,2.71,2.71,0,0,0-1.17-.26,1.85,1.85,0,0,0-1.66.83,4.74,4.74,0,0,0-.55,2.54,4.84,4.84,0,0,0,.53,2.5,1.71,1.71,0,0,0,1.54.86,2.65,2.65,0,0,0,.53-.05A1,1,0,0,0,775.49,237.37Z"/>
          <path id="DejaVuSansMono-Bold-72-7" data-name="DejaVuSansMono-Bold-72" d="M786.94,229.28h1.95V233h2.44v-3.76h1.95v9.87h-1.95v-4.39h-2.44v4.39h-1.95Z"/>
          <path id="DejaVuSansMono-Bold-70-6" data-name="DejaVuSansMono-Bold-70" d="M809.68,231h-4.19v2.13h3.82v1.72h-3.82v4.3h-2v-9.87h6.14Z"/>
          <path id="DejaVuSansMono-Bold-84-8" data-name="DejaVuSansMono-Bold-84" d="M823.68,239.15h-1.95V231h-2.5v-1.71h7V231h-2.51Z"/>
          <path id="DejaVuSansMono-Bold-76-24" data-name="DejaVuSansMono-Bold-76" d="M836.42,239.15v-9.87h2v8.15h4.17v1.72Z"/>
          <path id="DejaVuSansMono-Bold-71-9" data-name="DejaVuSansMono-Bold-71" d="M857,237.37v-1.89h-1.34v-1.64h3v4.52a3.93,3.93,0,0,1-1.24.74,4.28,4.28,0,0,1-1.45.24,3.54,3.54,0,0,1-3-1.33,7.41,7.41,0,0,1,0-7.59,3.66,3.66,0,0,1,3-1.32,4.19,4.19,0,0,1,1.17.17,4.07,4.07,0,0,1,1.08.49v2.16a2.83,2.83,0,0,0-.94-.8,2.64,2.64,0,0,0-1.17-.26,1.85,1.85,0,0,0-1.66.83,4.75,4.75,0,0,0-.54,2.54,4.85,4.85,0,0,0,.52,2.5,1.72,1.72,0,0,0,1.54.86,2.65,2.65,0,0,0,.53-.05A1.15,1.15,0,0,0,857,237.37Z"/>
          <path id="DejaVuSansMono-Bold-67-4" data-name="DejaVuSansMono-Bold-67" d="M874.68,238.87a4.17,4.17,0,0,1-1,.35,4.68,4.68,0,0,1-1.07.12,3.66,3.66,0,0,1-3-1.31,7.42,7.42,0,0,1,0-7.61,3.67,3.67,0,0,1,3-1.32,4.68,4.68,0,0,1,1.07.12,3.88,3.88,0,0,1,1,.36v2.17a3.7,3.7,0,0,0-1-.68,2.35,2.35,0,0,0-1-.21,1.8,1.8,0,0,0-1.62.85,6.13,6.13,0,0,0,0,5,1.8,1.8,0,0,0,1.62.85,2.35,2.35,0,0,0,1-.21,4,4,0,0,0,1-.68Z"/>
          <path id="DejaVuSansMono-Bold-86-7" data-name="DejaVuSansMono-Bold-86" d="M887.91,237.52l1.73-8.24h2l-2.35,9.87h-2.7l-2.35-9.87h2Z"/>
          <path id="DejaVuSansMono-Bold-76-25" data-name="DejaVuSansMono-Bold-76" d="M901.62,239.15v-9.87h2v8.15h4.17v1.72Z"/>
          <path id="DejaVuSansMono-Bold-69-12" data-name="DejaVuSansMono-Bold-69" d="M923.69,239.15h-6.15v-9.87h6.15V231h-4.2v2.13h3.81v1.72h-3.81v2.58h4.2Z"/>
          <path id="DejaVuSansMono-Bold-68-6" data-name="DejaVuSansMono-Bold-68" d="M935.59,231v6.35h.53a1.84,1.84,0,0,0,1.64-.72,6.4,6.4,0,0,0,0-4.91,1.84,1.84,0,0,0-1.64-.72Zm-2-1.76h2.09a4.55,4.55,0,0,1,3.48,1.16,7.19,7.19,0,0,1,0,7.55,4.51,4.51,0,0,1-3.48,1.16h-2.09Z"/>
          <path id="DejaVuSansMono-Bold-81-8" data-name="DejaVuSansMono-Bold-81" d="M953.37,239.3l-.16,0h-.12a2.9,2.9,0,0,1-2.57-1.29,8.75,8.75,0,0,1,0-7.65,3.23,3.23,0,0,1,5.18,0,6.8,6.8,0,0,1,.88,3.83,8.69,8.69,0,0,1-.42,2.91,3.18,3.18,0,0,1-1.21,1.68l1.23,1.2-1.33,1Zm-.26-8.44a1.14,1.14,0,0,0-1.09.79,9.65,9.65,0,0,0,0,5.15,1.15,1.15,0,0,0,2.18,0,9.65,9.65,0,0,0,0-5.15A1.14,1.14,0,0,0,953.11,230.86Z"/>
          <path id="DejaVuSansMono-Bold-69-13" data-name="DejaVuSansMono-Bold-69" d="M972.59,239.15h-6.14v-9.87h6.14V231H968.4v2.13h3.8v1.72h-3.8v2.58h4.19Z"/>
          <path id="DejaVuSansMono-Bold-72-8" data-name="DejaVuSansMono-Bold-72" d="M982.54,229.28h2V233h2.44v-3.76h2v9.87h-2v-4.39h-2.44v4.39h-2Z"/>
        </g>
      </g>
      <g id="text_53" data-name="text 53">
        <path id="DejaVuSans-124-18" data-name="DejaVuSans-124" d="M591.54,219.6v7.2h-.6v-7.2Z"/>
      </g>
      <g id="text_54" data-name="text 54">
        <g>
          <path id="DejaVuSans-49-9" data-name="DejaVuSans-49" d="M591.1,216.08h1.39v-4.81l-1.52.31v-.78l1.51-.3h.85v5.58h1.39v.72H591.1Z"/>
          <path id="DejaVuSans-50-6" data-name="DejaVuSans-50" d="M597.18,216.08h3v.72h-4v-.72q.48-.51,1.32-1.35c.56-.56.91-.93,1-1.09a4.36,4.36,0,0,0,.57-.78,1.35,1.35,0,0,0,.17-.63,1,1,0,0,0-.36-.81,1.32,1.32,0,0,0-.92-.32,3,3,0,0,0-.84.14,4.78,4.78,0,0,0-.95.42v-.86a6.24,6.24,0,0,1,1-.31,3.64,3.64,0,0,1,.82-.11,2.39,2.39,0,0,1,1.56.49,1.62,1.62,0,0,1,.58,1.31,2.07,2.07,0,0,1-.14.74,4.08,4.08,0,0,1-.53.82l-.67.7Z"/>
          <path id="DejaVuSans-54-4" data-name="DejaVuSans-54" d="M603.87,213.31a1.15,1.15,0,0,0-.91.39,1.92,1.92,0,0,0,0,2.15,1.15,1.15,0,0,0,.91.39,1.12,1.12,0,0,0,.91-.39,1.87,1.87,0,0,0,0-2.15A1.12,1.12,0,0,0,603.87,213.31Zm1.69-2.67v.77a3.28,3.28,0,0,0-.64-.23,3,3,0,0,0-.65-.08,1.55,1.55,0,0,0-1.29.57,3,3,0,0,0-.51,1.72,1.77,1.77,0,0,1,.63-.56,1.74,1.74,0,0,1,.82-.2,1.94,1.94,0,0,1,1.5.58,2.45,2.45,0,0,1,0,3.12,2,2,0,0,1-1.53.59,1.91,1.91,0,0,1-1.67-.84,4.32,4.32,0,0,1-.58-2.43,3.73,3.73,0,0,1,.71-2.38,2.33,2.33,0,0,1,1.9-.89,2.81,2.81,0,0,1,.65.07A3.66,3.66,0,0,1,605.56,210.64Z"/>
        </g>
      </g>
      <g id="text_55" data-name="text 55">
        <g>
          <path id="DejaVuSansMono-Bold-81-9" data-name="DejaVuSansMono-Bold-81" d="M193,303.18l-.15,0h-.12a2.89,2.89,0,0,1-2.58-1.3,8.84,8.84,0,0,1,0-7.65,3.25,3.25,0,0,1,5.18,0,6.82,6.82,0,0,1,.88,3.83,8.69,8.69,0,0,1-.42,2.91,3.18,3.18,0,0,1-1.21,1.68l1.23,1.2-1.33,1Zm-.26-8.45a1.13,1.13,0,0,0-1.09.8,9.61,9.61,0,0,0,0,5.14,1.15,1.15,0,0,0,2.18,0,9.61,9.61,0,0,0,0-5.14A1.12,1.12,0,0,0,192.7,294.73Z"/>
          <path id="DejaVuSansMono-Bold-86-8" data-name="DejaVuSansMono-Bold-86" d="M209,301.4l1.74-8.24h2L210.35,303h-2.7l-2.35-9.86h2Z"/>
          <path id="DejaVuSansMono-Bold-65-13" data-name="DejaVuSansMono-Bold-65" d="M225.3,294.94l-.92,4h1.85Zm-1.19-1.78h2.39l2.66,9.86h-1.95l-.61-2.43H224L223.4,303h-2Z"/>
          <path id="DejaVuSansMono-Bold-75-10" data-name="DejaVuSansMono-Bold-75" d="M238.3,293.16h1.95v3.9l3.05-3.9h2.21L242.4,297l3.22,6h-2.16l-2.34-4.44-.87,1.1V303H238.3Z"/>
          <path id="DejaVuSansMono-Bold-69-14" data-name="DejaVuSansMono-Bold-69" d="M261.09,303h-6.15v-9.86h6.15v1.71h-4.2V297h3.8v1.72h-3.8v2.59h4.2Z"/>
        </g>
      </g>
      <g id="text_56" data-name="text 56">
        <path id="DejaVuSans-124-19" data-name="DejaVuSans-124" d="M189.74,283.47v7.2h-.6v-7.2Z"/>
      </g>
      <g id="text_57" data-name="text 57">
        <g>
          <path id="DejaVuSans-49-10" data-name="DejaVuSans-49" d="M189.3,280h1.39v-4.8l-1.52.3v-.78l1.51-.3h.85V280h1.39v.72H189.3Z"/>
          <path id="DejaVuSans-53-4" data-name="DejaVuSans-53" d="M194.66,274.37H198v.72h-2.56v1.54a2.39,2.39,0,0,1,.74-.12,2.37,2.37,0,0,1,1.67.57,2.06,2.06,0,0,1,.62,1.57,2,2,0,0,1-.64,1.58,2.62,2.62,0,0,1-1.78.56,4.43,4.43,0,0,1-.81-.07,5.49,5.49,0,0,1-.85-.2v-.86a3.26,3.26,0,0,0,.78.31,3.44,3.44,0,0,0,.86.1,1.66,1.66,0,0,0,1.16-.38,1.34,1.34,0,0,0,.42-1,1.33,1.33,0,0,0-.42-1,1.66,1.66,0,0,0-1.16-.39,3.08,3.08,0,0,0-.68.08,3.73,3.73,0,0,0-.69.23Z"/>
          <path id="DejaVuSans-49-11" data-name="DejaVuSans-49" d="M200.29,280h1.39v-4.8l-1.51.3v-.78l1.51-.3h.85V280h1.39v.72h-3.63Z"/>
        </g>
      </g>
      <g id="text_58" data-name="text 58">
        <g>
          <path id="DejaVuSansMono-Bold-69-15" data-name="DejaVuSansMono-Bold-69" d="M276.24,303H270.1v-9.86h6.14v1.71h-4.19V297h3.8v1.72h-3.8v2.59h4.19Z"/>
          <path id="DejaVuSansMono-Bold-82-9" data-name="DejaVuSansMono-Bold-82" d="M290.62,298.36a1.08,1.08,0,0,1,.51.28,3.25,3.25,0,0,1,.52.84l1.79,3.54H291.3l-1.19-2.49a2,2,0,0,1-.14-.29c-.35-.74-.76-1.12-1.23-1.12h-.62V303h-1.95v-9.86H289a4.34,4.34,0,0,1,2.73.67,2.65,2.65,0,0,1,.83,2.2,2.5,2.5,0,0,1-.49,1.62A2.08,2.08,0,0,1,290.62,298.36Zm-2.5-3.57v2.69H289a1.68,1.68,0,0,0,1.15-.31,1.33,1.33,0,0,0,.35-1,1.32,1.32,0,0,0-.35-1,1.66,1.66,0,0,0-1.15-.32Z"/>
          <path id="DejaVuSansMono-Bold-69-16" data-name="DejaVuSansMono-Bold-69" d="M308.84,303H302.7v-9.86h6.14v1.71h-4.19V297h3.8v1.72h-3.8v2.59h4.19Z"/>
          <path id="DejaVuSansMono-Bold-48" d="M321.14,298.1a.81.81,0,0,1,.24-.59.78.78,0,0,1,.58-.24.82.82,0,0,1,.83.83.78.78,0,0,1-.24.58.81.81,0,0,1-.59.24.78.78,0,0,1-.58-.24A.77.77,0,0,1,321.14,298.1Zm.82-3.47c-.45,0-.78.28-1,.83a11.4,11.4,0,0,0,0,5.28c.21.55.54.82,1,.82s.78-.27,1-.82a11.4,11.4,0,0,0,0-5.28C322.74,294.91,322.41,294.63,322,294.63Zm-3.26,3.47a7.27,7.27,0,0,1,.81-3.84,3,3,0,0,1,4.9,0,9.42,9.42,0,0,1,0,7.69,3,3,0,0,1-4.9,0A7.29,7.29,0,0,1,318.7,298.1Z"/>
          <path id="DejaVuSansMono-Bold-83-9" data-name="DejaVuSansMono-Bold-83" d="M337.56,298.69a4.88,4.88,0,0,1-2-1.18,2.46,2.46,0,0,1-.52-1.66,2.68,2.68,0,0,1,.86-2.1,3.37,3.37,0,0,1,2.36-.77,6.3,6.3,0,0,1,1.36.15,7.42,7.42,0,0,1,1.35.46v1.91a5.29,5.29,0,0,0-1.28-.68,3.89,3.89,0,0,0-1.28-.23,1.76,1.76,0,0,0-1.08.28,1,1,0,0,0-.38.82.9.9,0,0,0,.28.68,3.78,3.78,0,0,0,1.14.59l.84.31a3.76,3.76,0,0,1,1.75,1.16,2.85,2.85,0,0,1,.57,1.82,2.74,2.74,0,0,1-.89,2.23,4.1,4.1,0,0,1-2.66.74,6.3,6.3,0,0,1-1.48-.18,6.73,6.73,0,0,1-1.42-.52v-2a6.46,6.46,0,0,0,1.51.82,4.17,4.17,0,0,0,1.45.27,1.75,1.75,0,0,0,1.11-.32,1.12,1.12,0,0,0,.4-.92,1.19,1.19,0,0,0-.27-.77,1.68,1.68,0,0,0-.76-.53Z"/>
          <path id="DejaVuSansMono-Bold-77-2" data-name="DejaVuSansMono-Bold-77" d="M351.06,293.16h2.32l1.18,4.32,1.17-4.32h2.34V303h-1.68v-7.9l-1,4.32h-1.56l-1.05-4.32V303h-1.68Z"/>
          <path id="DejaVuSansMono-Bold-80-4" data-name="DejaVuSansMono-Bold-80" d="M369.81,294.79v2.9h.8a2.14,2.14,0,0,0,1.34-.32,1.82,1.82,0,0,0,0-2.25,2.06,2.06,0,0,0-1.34-.33Zm-1.95-1.63h2.68a4.68,4.68,0,0,1,2.93.72,3.54,3.54,0,0,1,0,4.72,4.61,4.61,0,0,1-2.93.73h-.73V303h-1.95Z"/>
        </g>
      </g>
      <g id="text_59" data-name="text 59">
        <path id="DejaVuSans-124-20" data-name="DejaVuSans-124" d="M270.1,283.47v7.2h-.6v-7.2Z"/>
      </g>
      <g id="text_60" data-name="text 60">
        <g>
          <path id="DejaVuSans-49-12" data-name="DejaVuSans-49" d="M269.66,280h1.39v-4.8l-1.52.3v-.78l1.51-.3h.85V280h1.39v.72h-3.62Z"/>
          <path id="DejaVuSans-53-5" data-name="DejaVuSans-53" d="M275,274.37h3.34v.72H275.8v1.54a2.39,2.39,0,0,1,.74-.12,2.37,2.37,0,0,1,1.67.57,2.06,2.06,0,0,1,.62,1.57,2,2,0,0,1-.64,1.58,2.62,2.62,0,0,1-1.78.56,4.43,4.43,0,0,1-.81-.07,5.49,5.49,0,0,1-.85-.2v-.86a3.26,3.26,0,0,0,.78.31,3.44,3.44,0,0,0,.86.1,1.66,1.66,0,0,0,1.16-.38,1.34,1.34,0,0,0,.42-1,1.33,1.33,0,0,0-.42-1,1.66,1.66,0,0,0-1.16-.39,3.08,3.08,0,0,0-.68.08,3.73,3.73,0,0,0-.69.23Z"/>
          <path id="DejaVuSans-54-5" data-name="DejaVuSans-54" d="M282.43,277.18a1.15,1.15,0,0,0-.91.39,1.92,1.92,0,0,0,0,2.15,1.13,1.13,0,0,0,.91.4,1.1,1.1,0,0,0,.91-.4,1.87,1.87,0,0,0,0-2.15A1.12,1.12,0,0,0,282.43,277.18Zm1.69-2.67v.77a4.1,4.1,0,0,0-.64-.23,3,3,0,0,0-.65-.08,1.55,1.55,0,0,0-1.29.57,3,3,0,0,0-.51,1.72,1.75,1.75,0,0,1,.62-.56,1.81,1.81,0,0,1,.83-.19,2,2,0,0,1,1.5.57,2.18,2.18,0,0,1,.55,1.57,2.16,2.16,0,0,1-.57,1.56,2,2,0,0,1-1.53.58,1.91,1.91,0,0,1-1.67-.84,4.26,4.26,0,0,1-.58-2.42,3.76,3.76,0,0,1,.71-2.39,2.31,2.31,0,0,1,1.9-.88,3.57,3.57,0,0,1,.65.06A3.66,3.66,0,0,1,284.12,274.51Z"/>
        </g>
      </g>
      <g id="text_61" data-name="text 61">
        <g>
          <path id="DejaVuSansMono-Bold-80-5" data-name="DejaVuSansMono-Bold-80" d="M384.51,294.79v2.9h.8a2.19,2.19,0,0,0,1.35-.32,1.86,1.86,0,0,0,0-2.25,2.12,2.12,0,0,0-1.35-.33Zm-1.95-1.63h2.68a4.73,4.73,0,0,1,2.94.72,3.57,3.57,0,0,1,0,4.72,4.66,4.66,0,0,1-2.94.73h-.73V303h-1.95Z"/>
          <path id="DejaVuSansMono-Bold-76-26" data-name="DejaVuSansMono-Bold-76" d="M399.28,303v-9.86h2v8.15h4.17V303Z"/>
          <path id="DejaVuSansMono-Bold-76-27" data-name="DejaVuSansMono-Bold-76" d="M415.58,303v-9.86h1.95v8.15h4.17V303Z"/>
          <path id="DejaVuSansMono-Bold-82-10" data-name="DejaVuSansMono-Bold-82" d="M435.73,298.36a1,1,0,0,1,.5.28,3.22,3.22,0,0,1,.53.84l1.78,3.54H436.4l-1.19-2.49c0-.07-.08-.16-.14-.29-.35-.74-.76-1.12-1.23-1.12h-.62V303h-2v-9.86h2.82a4.34,4.34,0,0,1,2.73.67,2.68,2.68,0,0,1,.83,2.2,2.51,2.51,0,0,1-.5,1.62A2.05,2.05,0,0,1,435.73,298.36Zm-2.51-3.57v2.69h.92a1.7,1.7,0,0,0,1.15-.31,1.33,1.33,0,0,0,.34-1,1.32,1.32,0,0,0-.34-1,1.68,1.68,0,0,0-1.15-.32Z"/>
          <path id="DejaVuSansMono-Bold-81-10" data-name="DejaVuSansMono-Bold-81" d="M451,303.18l-.16,0h-.12a2.89,2.89,0,0,1-2.57-1.3,8.75,8.75,0,0,1,0-7.65,3.25,3.25,0,0,1,5.18,0,6.91,6.91,0,0,1,.87,3.83,8.71,8.71,0,0,1-.41,2.91,3.18,3.18,0,0,1-1.21,1.68l1.23,1.2-1.34,1Zm-.27-8.45a1.14,1.14,0,0,0-1.09.8,9.88,9.88,0,0,0,0,5.14,1.15,1.15,0,0,0,2.19,0,9.88,9.88,0,0,0,0-5.14A1.14,1.14,0,0,0,450.76,294.73Z"/>
          <path id="DejaVuSansMono-Bold-65-14" data-name="DejaVuSansMono-Bold-65" d="M467.06,294.94l-.91,4H468Zm-1.18-1.78h2.38l2.66,9.86H469l-.6-2.43h-2.62l-.59,2.43h-2Z"/>
          <path id="DejaVuSansMono-Bold-73-4" data-name="DejaVuSansMono-Bold-73" d="M480.43,294.87v-1.71h5.88v1.71h-2v6.44h2V303h-5.88v-1.71h2v-6.44Z"/>
          <path id="DejaVuSansMono-Bold-69-17" data-name="DejaVuSansMono-Bold-69" d="M502.85,303H496.7v-9.86h6.15v1.71h-4.2V297h3.8v1.72h-3.8v2.59h4.2Z"/>
          <path id="DejaVuSansMono-Bold-76-28" data-name="DejaVuSansMono-Bold-76" d="M513.38,303v-9.86h2v8.15h4.17V303Z"/>
          <path id="DejaVuSansMono-Bold-70-7" data-name="DejaVuSansMono-Bold-70" d="M535.54,294.87h-4.19V297h3.82v1.72h-3.82V303h-2v-9.86h6.14Z"/>
          <path id="DejaVuSansMono-Bold-68-7" data-name="DejaVuSansMono-Bold-68" d="M547.35,294.91v6.36h.53a1.82,1.82,0,0,0,1.64-.73,4.63,4.63,0,0,0,.49-2.46,4.57,4.57,0,0,0-.49-2.44,1.84,1.84,0,0,0-1.64-.73Zm-2-1.75h2.09a4.54,4.54,0,0,1,3.48,1.15,5.48,5.48,0,0,1,1.07,3.77,5.54,5.54,0,0,1-1.07,3.79,4.54,4.54,0,0,1-3.48,1.15H545.4Z"/>
          <path id="DejaVuSansMono-Bold-72-9" data-name="DejaVuSansMono-Bold-72" d="M561.7,293.16h1.95v3.76h2.44v-3.76H568V303h-1.95v-4.38h-2.44V303H561.7Z"/>
        </g>
      </g>
      <g id="text_62" data-name="text 62">
        <path id="DejaVuSans-124-21" data-name="DejaVuSans-124" d="M382.6,283.47v7.2H382v-7.2Z"/>
      </g>
      <g id="text_63" data-name="text 63">
        <g>
          <path id="DejaVuSans-49-13" data-name="DejaVuSans-49" d="M382.16,280h1.39v-4.8l-1.51.3v-.78l1.5-.3h.86V280h1.39v.72h-3.63Z"/>
          <path id="DejaVuSans-54-6" data-name="DejaVuSans-54" d="M389.44,277.18a1.14,1.14,0,0,0-.91.39,1.87,1.87,0,0,0,0,2.15,1.11,1.11,0,0,0,.91.4,1.13,1.13,0,0,0,.91-.4,1.92,1.92,0,0,0,0-2.15A1.15,1.15,0,0,0,389.44,277.18Zm1.69-2.67v.77a3.87,3.87,0,0,0-.65-.23,2.82,2.82,0,0,0-.65-.08,1.51,1.51,0,0,0-1.28.57,3,3,0,0,0-.51,1.72,1.67,1.67,0,0,1,.62-.56,1.78,1.78,0,0,1,.83-.19,2,2,0,0,1,1.5.57,2.18,2.18,0,0,1,.55,1.57,2.16,2.16,0,0,1-.57,1.56,2.07,2.07,0,0,1-1.53.58,1.89,1.89,0,0,1-1.67-.84,4.18,4.18,0,0,1-.58-2.42,3.76,3.76,0,0,1,.71-2.39,2.31,2.31,0,0,1,1.9-.88,3.57,3.57,0,0,1,.65.06A3.89,3.89,0,0,1,391.13,274.51Z"/>
          <path id="DejaVuSans-51-4" data-name="DejaVuSans-51" d="M395.59,277.27a1.59,1.59,0,0,1,1,.55,1.52,1.52,0,0,1,.35,1,1.73,1.73,0,0,1-.64,1.44,2.88,2.88,0,0,1-1.82.51,3.86,3.86,0,0,1-.82-.08,6.25,6.25,0,0,1-.87-.23v-.82a3.34,3.34,0,0,0,.78.31,3.6,3.6,0,0,0,.88.1,2,2,0,0,0,1.22-.31,1.08,1.08,0,0,0,.42-.92,1.06,1.06,0,0,0-.39-.87,1.67,1.67,0,0,0-1.08-.32h-.74V277h.77a1.55,1.55,0,0,0,1-.25.86.86,0,0,0,.33-.72.88.88,0,0,0-.34-.75,1.63,1.63,0,0,0-1-.26,4.18,4.18,0,0,0-.76.08,8.28,8.28,0,0,0-.88.23v-.75c.33-.09.63-.16.91-.21a5.7,5.7,0,0,1,.8-.06,2.41,2.41,0,0,1,1.54.44,1.44,1.44,0,0,1,.56,1.19,1.32,1.32,0,0,1-.3.88A1.54,1.54,0,0,1,395.59,277.27Z"/>
        </g>
      </g>
      <g id="text_64" data-name="text 64">
        <g>
          <path id="DejaVuSansMono-Bold-81-11" data-name="DejaVuSansMono-Bold-81" d="M578.69,303.18l-.16,0h-.12a2.89,2.89,0,0,1-2.57-1.3,8.75,8.75,0,0,1,0-7.65,3.25,3.25,0,0,1,5.18,0,6.82,6.82,0,0,1,.88,3.83,8.69,8.69,0,0,1-.42,2.91,3.18,3.18,0,0,1-1.21,1.68l1.23,1.2-1.33,1Zm-.26-8.45a1.13,1.13,0,0,0-1.09.8,9.61,9.61,0,0,0,0,5.14,1.15,1.15,0,0,0,2.18,0,9.61,9.61,0,0,0,0-5.14A1.13,1.13,0,0,0,578.43,294.73Z"/>
          <path id="DejaVuSansMono-Bold-71-10" data-name="DejaVuSansMono-Bold-71" d="M596.42,301.24v-1.88h-1.34v-1.64h3v4.52a4,4,0,0,1-1.24.73,4.29,4.29,0,0,1-1.45.25,3.56,3.56,0,0,1-3-1.34,7.41,7.41,0,0,1,0-7.59,3.71,3.71,0,0,1,3-1.31,4,4,0,0,1,1.17.17,4.35,4.35,0,0,1,1.08.48v2.16a2.83,2.83,0,0,0-.95-.79,2.51,2.51,0,0,0-1.16-.27,1.84,1.84,0,0,0-1.66.84,4.61,4.61,0,0,0-.55,2.53,4.72,4.72,0,0,0,.53,2.5,1.68,1.68,0,0,0,1.54.86,2.12,2.12,0,0,0,.53,0A1.09,1.09,0,0,0,596.42,301.24Z"/>
        </g>
      </g>
      <g id="text_65" data-name="text 65">
        <path id="DejaVuSans-124-22" data-name="DejaVuSans-124" d="M575.47,283.47v7.2h-.6v-7.2Z"/>
      </g>
      <g id="text_66" data-name="text 66">
        <g>
          <path id="DejaVuSans-49-14" data-name="DejaVuSans-49" d="M575,280h1.39v-4.8l-1.52.3v-.78l1.51-.3h.85V280h1.39v.72H575Z"/>
          <path id="DejaVuSans-55-4" data-name="DejaVuSans-55" d="M580.16,274.37h4.05v.36l-2.29,5.94H581l2.16-5.58h-3Z"/>
          <path id="DejaVuSans-53-6" data-name="DejaVuSans-53" d="M585.88,274.37h3.35v.72h-2.57v1.54a2.49,2.49,0,0,1,.37-.09l.37,0a2.35,2.35,0,0,1,1.67.57,2.3,2.3,0,0,1,0,3.15,2.63,2.63,0,0,1-1.79.56,4.59,4.59,0,0,1-.81-.07,5.65,5.65,0,0,1-.84-.2v-.86a3.26,3.26,0,0,0,.78.31,3.38,3.38,0,0,0,.86.1,1.63,1.63,0,0,0,1.15-.38,1.32,1.32,0,0,0,.43-1,1.3,1.3,0,0,0-.43-1,1.64,1.64,0,0,0-1.15-.39,3.25,3.25,0,0,0-.69.08,4.29,4.29,0,0,0-.69.23Z"/>
        </g>
      </g>
      <g id="text_67" data-name="text 67">
        <g>
          <path id="DejaVuSansMono-Bold-65-15" data-name="DejaVuSansMono-Bold-65" d="M610.57,294.94l-.92,4h1.85Zm-1.19-1.78h2.39l2.66,9.86h-1.95l-.61-2.43h-2.61l-.59,2.43h-1.95Z"/>
          <path id="DejaVuSansMono-Bold-69-18" data-name="DejaVuSansMono-Bold-69" d="M630.06,303h-6.15v-9.86h6.15v1.71h-4.2V297h3.8v1.72h-3.8v2.59h4.2Z"/>
          <path id="DejaVuSansMono-Bold-80-6" data-name="DejaVuSansMono-Bold-80" d="M642.12,294.79v2.9h.8a2.14,2.14,0,0,0,1.34-.32,1.82,1.82,0,0,0,0-2.25,2.06,2.06,0,0,0-1.34-.33Zm-2-1.63h2.68a4.73,4.73,0,0,1,2.94.72,3.57,3.57,0,0,1,0,4.72,4.66,4.66,0,0,1-2.94.73h-.73V303h-2Z"/>
          <path id="DejaVuSansMono-Bold-65-16" data-name="DejaVuSansMono-Bold-65" d="M659.47,294.94l-.92,4h1.85Zm-1.19-1.78h2.39l2.66,9.86h-2l-.61-2.43h-2.61l-.59,2.43h-2Z"/>
          <path id="DejaVuSansMono-Bold-70-8" data-name="DejaVuSansMono-Bold-70" d="M679.05,294.87h-4.2V297h3.82v1.72h-3.82V303h-2v-9.86h6.15Z"/>
          <path id="DejaVuSansMono-Bold-76-29" data-name="DejaVuSansMono-Bold-76" d="M689.49,303v-9.86h2v8.15h4.17V303Z"/>
          <path id="DejaVuSansMono-Bold-70-9" data-name="DejaVuSansMono-Bold-70" d="M711.65,294.87h-4.2V297h3.82v1.72h-3.82V303h-2v-9.86h6.15Z"/>
          <path id="DejaVuSansMono-Bold-71-11" data-name="DejaVuSansMono-Bold-71" d="M726.37,301.24v-1.88H725v-1.64h3v4.52a4.1,4.1,0,0,1-1.24.73,4.29,4.29,0,0,1-1.45.25,3.54,3.54,0,0,1-3-1.34,7.41,7.41,0,0,1,0-7.59,3.69,3.69,0,0,1,3-1.31,3.85,3.85,0,0,1,1.17.17,4,4,0,0,1,1.08.48v2.16a2.8,2.8,0,0,0-.94-.79,2.55,2.55,0,0,0-1.17-.27,1.85,1.85,0,0,0-1.66.84,4.7,4.7,0,0,0-.55,2.53,4.82,4.82,0,0,0,.53,2.5,1.7,1.7,0,0,0,1.54.86,2.07,2.07,0,0,0,.53,0A1.15,1.15,0,0,0,726.37,301.24Z"/>
          <path id="DejaVuSansMono-Bold-76-30" data-name="DejaVuSansMono-Bold-76" d="M738.39,303v-9.86h2v8.15h4.17V303Z"/>
          <path id="DejaVuSansMono-Bold-69-19" data-name="DejaVuSansMono-Bold-69" d="M760.46,303h-6.15v-9.86h6.15v1.71h-4.2V297h3.8v1.72h-3.8v2.59h4.2Z"/>
          <path id="DejaVuSansMono-Bold-76-31" data-name="DejaVuSansMono-Bold-76" d="M771,303v-9.86h2v8.15h4.17V303Z"/>
          <path id="DejaVuSansMono-Bold-73-5" data-name="DejaVuSansMono-Bold-73" d="M786.94,294.87v-1.71h5.88v1.71h-2v6.44h2V303h-5.88v-1.71h2v-6.44Z"/>
          <path id="DejaVuSansMono-Bold-73-6" data-name="DejaVuSansMono-Bold-73" d="M803.24,294.87v-1.71h5.88v1.71h-2v6.44h2V303h-5.88v-1.71h2v-6.44Z"/>
          <path id="DejaVuSansMono-Bold-67-5" data-name="DejaVuSansMono-Bold-67" d="M825.55,302.74a4.19,4.19,0,0,1-1,.36,4.68,4.68,0,0,1-1.07.12,3.67,3.67,0,0,1-3-1.32,7.42,7.42,0,0,1,0-7.61,3.69,3.69,0,0,1,3-1.31,4.68,4.68,0,0,1,1.07.12,3.51,3.51,0,0,1,1,.35v2.17a4,4,0,0,0-1-.68,2.35,2.35,0,0,0-1-.21,1.81,1.81,0,0,0-1.62.85,6.15,6.15,0,0,0,0,5,1.82,1.82,0,0,0,1.62.84,2.35,2.35,0,0,0,1-.21,3.7,3.7,0,0,0,1-.68Z"/>
          <path id="DejaVuSansMono-Bold-71-12" data-name="DejaVuSansMono-Bold-71" d="M840.47,301.24v-1.88h-1.34v-1.64h3v4.52a4,4,0,0,1-1.24.73,4.29,4.29,0,0,1-1.45.25,3.54,3.54,0,0,1-3-1.34,7.41,7.41,0,0,1,0-7.59,3.71,3.71,0,0,1,3.05-1.31,4,4,0,0,1,1.17.17,4.12,4.12,0,0,1,1.07.48v2.16a2.71,2.71,0,0,0-.94-.79,2.52,2.52,0,0,0-1.17-.27,1.85,1.85,0,0,0-1.66.84,6.18,6.18,0,0,0,0,5,1.68,1.68,0,0,0,1.54.86,2,2,0,0,0,.52,0A1.15,1.15,0,0,0,840.47,301.24Z"/>
          <path id="DejaVuSansMono-Bold-76-32" data-name="DejaVuSansMono-Bold-76" d="M852.49,303v-9.86h2v8.15h4.17V303Z"/>
          <path id="DejaVuSansMono-Bold-69-20" data-name="DejaVuSansMono-Bold-69" d="M874.56,303h-6.14v-9.86h6.14v1.71h-4.19V297h3.8v1.72h-3.8v2.59h4.19Z"/>
          <path id="DejaVuSansMono-Bold-75-11" data-name="DejaVuSansMono-Bold-75" d="M884.38,293.16h2v3.9l3-3.9h2.21L888.48,297l3.22,6h-2.17l-2.34-4.44-.86,1.1V303h-2Z"/>
          <path id="DejaVuSansMono-Bold-81-12" data-name="DejaVuSansMono-Bold-81" d="M904.24,303.18l-.15,0H904a2.89,2.89,0,0,1-2.57-1.3,8.75,8.75,0,0,1,0-7.65,3.25,3.25,0,0,1,5.18,0,6.82,6.82,0,0,1,.88,3.83A8.69,8.69,0,0,1,907,301a3.18,3.18,0,0,1-1.21,1.68l1.23,1.2-1.33,1Zm-.26-8.45a1.13,1.13,0,0,0-1.09.8,9.61,9.61,0,0,0,0,5.14,1.15,1.15,0,0,0,2.18,0,9.61,9.61,0,0,0,0-5.14A1.13,1.13,0,0,0,904,294.73Z"/>
          <path id="DejaVuSansMono-Bold-76-33" data-name="DejaVuSansMono-Bold-76" d="M917.69,303v-9.86h1.95v8.15h4.17V303Z"/>
        </g>
      </g>
      <g id="text_68" data-name="text 68">
        <path id="DejaVuSans-124-23" data-name="DejaVuSans-124" d="M607.61,283.47v7.2H607v-7.2Z"/>
      </g>
      <g id="text_69" data-name="text 69">
        <g>
          <path id="DejaVuSans-49-15" data-name="DejaVuSans-49" d="M607.17,280h1.39v-4.8l-1.51.3v-.78l1.5-.3h.85V280h1.4v.72h-3.63Z"/>
          <path id="DejaVuSans-55-5" data-name="DejaVuSans-55" d="M612.3,274.37h4.05v.36l-2.28,5.94h-.89l2.15-5.58h-3Z"/>
          <path id="DejaVuSans-55-6" data-name="DejaVuSans-55" d="M617.8,274.37h4.05v.36l-2.29,5.94h-.89l2.16-5.58h-3Z"/>
        </g>
      </g>
      <g id="text_70" data-name="text 70">
        <g>
          <path id="DejaVuSansMono-Bold-75-12" data-name="DejaVuSansMono-Bold-75" d="M928.71,293.16h1.95v3.9l3.06-3.9h2.2L932.81,297l3.23,6h-2.17l-2.34-4.44-.87,1.1V303h-1.95Z"/>
          <path id="DejaVuSansMono-Bold-67-6" data-name="DejaVuSansMono-Bold-67" d="M951.38,302.74a4,4,0,0,1-1,.36,4.62,4.62,0,0,1-1.07.12,3.65,3.65,0,0,1-3-1.32,7.36,7.36,0,0,1,0-7.61,3.67,3.67,0,0,1,3-1.31,4.7,4.7,0,0,1,1.08.12,3.44,3.44,0,0,1,1,.35v2.17a3.74,3.74,0,0,0-1-.68,2.37,2.37,0,0,0-1-.21,1.78,1.78,0,0,0-1.61.85,6,6,0,0,0,0,5,1.79,1.79,0,0,0,1.61.84,2.37,2.37,0,0,0,1-.21,3.51,3.51,0,0,0,1-.68Z"/>
        </g>
      </g>
      <g id="text_71" data-name="text 71">
        <path id="DejaVuSans-124-24" data-name="DejaVuSans-124" d="M929.05,283.47v7.2h-.6v-7.2Z"/>
      </g>
      <g id="text_72" data-name="text 72">
        <g>
          <path id="DejaVuSans-49-16" data-name="DejaVuSans-49" d="M928.61,280H930v-4.8l-1.51.3v-.78l1.5-.3h.86V280h1.39v.72h-3.63Z"/>
          <path id="DejaVuSans-57-3" data-name="DejaVuSans-57" d="M934,280.54v-.78a3.62,3.62,0,0,0,.65.23,2.46,2.46,0,0,0,.65.08,1.57,1.57,0,0,0,1.29-.56,3,3,0,0,0,.51-1.73,1.75,1.75,0,0,1-.62.56,1.78,1.78,0,0,1-.83.19,2,2,0,0,1-1.5-.57,2.45,2.45,0,0,1,0-3.12,2.05,2.05,0,0,1,1.53-.58,1.91,1.91,0,0,1,1.67.83,4.33,4.33,0,0,1,.58,2.44,3.7,3.7,0,0,1-.71,2.37,2.29,2.29,0,0,1-1.9.89,3.57,3.57,0,0,1-.65-.06A5.14,5.14,0,0,1,934,280.54Zm1.7-2.67a1.14,1.14,0,0,0,.91-.39,1.66,1.66,0,0,0,.33-1.08,1.61,1.61,0,0,0-.33-1.07,1.24,1.24,0,0,0-1.82,0,1.61,1.61,0,0,0-.33,1.07,1.66,1.66,0,0,0,.33,1.08A1.14,1.14,0,0,0,935.68,277.87Z"/>
          <path id="DejaVuSans-55-7" data-name="DejaVuSans-55" d="M939.24,274.37h4v.36L941,280.67h-.88l2.15-5.58h-3Z"/>
        </g>
      </g>
      <g id="text_73" data-name="text 73">
        <g>
          <path id="DejaVuSansMono-67" class="cls-8" d="M970.79,322.47a4.59,4.59,0,0,1-1,.41,4.68,4.68,0,0,1-1.14.14,3.55,3.55,0,0,1-3-1.34,6.09,6.09,0,0,1-1-3.78,6,6,0,0,1,1-3.77,3.51,3.51,0,0,1,2.94-1.35,4.69,4.69,0,0,1,1.14.13,4.59,4.59,0,0,1,1,.41v1.37a3.51,3.51,0,0,0-1-.62,3.18,3.18,0,0,0-1.13-.21,2.16,2.16,0,0,0-2,1,7.39,7.39,0,0,0,0,6.06,2.16,2.16,0,0,0,2,1,3.2,3.2,0,0,0,1.14-.21,3.55,3.55,0,0,0,1-.61Z"/>
          <path id="DejaVuSansMono-108" class="cls-8" d="M984.22,320.14a2.12,2.12,0,0,0,.3,1.24,1,1,0,0,0,.89.41h1.42v1h-1.54a2.11,2.11,0,0,1-1.68-.7,3,3,0,0,1-.6-2v-6.72h-2v-.95h3.16Z"/>
          <path id="DejaVuSansMono-111" class="cls-8" d="M992.22,316.27a1.59,1.59,0,0,0-1.4.73,5.06,5.06,0,0,0,0,4.26,1.72,1.72,0,0,0,2.81,0,5,5,0,0,0,0-4.26A1.59,1.59,0,0,0,992.22,316.27Zm0-1a2.9,2.9,0,0,1,2.36,1,5.56,5.56,0,0,1,0,5.78,3.27,3.27,0,0,1-4.71,0,5.56,5.56,0,0,1,0-5.78A2.88,2.88,0,0,1,992.22,315.24Z"/>
          <path id="DejaVuSansMono-111-2" data-name="DejaVuSansMono-111" class="cls-8" d="M1000.37,316.27a1.59,1.59,0,0,0-1.4.73,5.06,5.06,0,0,0,0,4.26,1.72,1.72,0,0,0,2.81,0,5,5,0,0,0,0-4.26A1.59,1.59,0,0,0,1000.37,316.27Zm0-1a2.9,2.9,0,0,1,2.36,1,5.56,5.56,0,0,1,0,5.78,3.27,3.27,0,0,1-4.71,0,5.56,5.56,0,0,1,0-5.78A2.88,2.88,0,0,1,1000.37,315.24Z"/>
          <path id="DejaVuSansMono-112" class="cls-8" d="M1006.93,321.89v3.75h-1.22V315.42h1.22v.95a2.05,2.05,0,0,1,.81-.84,2.36,2.36,0,0,1,1.17-.29,2.47,2.47,0,0,1,2.1,1,4.76,4.76,0,0,1,.77,2.88A4.66,4.66,0,0,1,1011,322a2.46,2.46,0,0,1-2.1,1,2.41,2.41,0,0,1-1.19-.29A2,2,0,0,1,1006.93,321.89Zm3.57-2.76a4.07,4.07,0,0,0-.45-2.13,1.46,1.46,0,0,0-1.32-.73,1.52,1.52,0,0,0-1.35.73,5.27,5.27,0,0,0,0,4.26,1.52,1.52,0,0,0,1.35.73,1.45,1.45,0,0,0,1.32-.72A4.11,4.11,0,0,0,1010.5,319.13Z"/>
        </g>
      </g>
      <g id="text_74" data-name="text 74">
        <path id="DejaVuSans-124-25" data-name="DejaVuSans-124" d="M945.12,283.47v7.2h-.6v-7.2Z"/>
      </g>
      <g id="text_75" data-name="text 75">
        <g>
          <path id="DejaVuSans-49-17" data-name="DejaVuSans-49" d="M944.68,280h1.39v-4.8l-1.51.3v-.78l1.51-.3h.85V280h1.39v.72h-3.63Z"/>
          <path id="DejaVuSans-57-4" data-name="DejaVuSans-57" d="M950.06,280.54v-.78a3.15,3.15,0,0,0,.65.23,2.39,2.39,0,0,0,.64.08,1.56,1.56,0,0,0,1.29-.56,3,3,0,0,0,.51-1.73,1.67,1.67,0,0,1-.62.56,1.78,1.78,0,0,1-.83.19,2,2,0,0,1-1.5-.57,2.14,2.14,0,0,1-.55-1.56,2.11,2.11,0,0,1,.58-1.56,2,2,0,0,1,1.52-.58,1.91,1.91,0,0,1,1.67.83,4.25,4.25,0,0,1,.58,2.44,3.7,3.7,0,0,1-.71,2.37,2.28,2.28,0,0,1-1.9.89,3.66,3.66,0,0,1-.65-.06A4.64,4.64,0,0,1,950.06,280.54Zm1.69-2.67a1.14,1.14,0,0,0,.91-.39,1.66,1.66,0,0,0,.34-1.08,1.61,1.61,0,0,0-.34-1.07,1.11,1.11,0,0,0-.91-.4,1.13,1.13,0,0,0-.91.4,1.61,1.61,0,0,0-.33,1.07,1.66,1.66,0,0,0,.33,1.08A1.15,1.15,0,0,0,951.75,277.87Z"/>
          <path id="DejaVuSans-56" d="M957.35,277.68a1.36,1.36,0,0,0-1,.32,1.15,1.15,0,0,0-.35.9,1.13,1.13,0,0,0,.35.89,1.55,1.55,0,0,0,1.91,0,1.32,1.32,0,0,0,0-1.79A1.37,1.37,0,0,0,957.35,277.68Zm-.85-.36a1.52,1.52,0,0,1-.86-.52,1.4,1.4,0,0,1-.3-.91,1.48,1.48,0,0,1,.54-1.2,2.74,2.74,0,0,1,3,0,1.48,1.48,0,0,1,.53,1.2,1.4,1.4,0,0,1-.3.91,1.52,1.52,0,0,1-.85.52,1.66,1.66,0,0,1,1,.56,1.53,1.53,0,0,1,.34,1,1.76,1.76,0,0,1-.56,1.4,2.86,2.86,0,0,1-3.2,0,1.76,1.76,0,0,1-.56-1.4,1.54,1.54,0,0,1,.35-1A1.66,1.66,0,0,1,956.5,277.32Zm-.31-1.35a1,1,0,0,0,.3.76,1.46,1.46,0,0,0,1.72,0,1.09,1.09,0,0,0,0-1.52,1.46,1.46,0,0,0-1.72,0A1,1,0,0,0,956.19,276Z"/>
        </g>
      </g>
    </g>
  </g>
</svg>
