<svg id="图层_1" data-name="图层 1" xmlns="http://www.w3.org/2000/svg" viewBox="0 0 400 400"><defs><style>.cls-1,.cls-2,.cls-3{isolation:isolate;}.cls-2,.cls-3{font-size:17.71px;}.cls-2{fill:#304ff7;}.cls-2,.cls-3,.cls-4{font-family:ArialMT, Arial;}.cls-3{fill:#ff0d0d;}.cls-4{font-size:20px;}</style></defs><title>Theophylline_stru_ligand1</title><polygon points="207.23 139.42 206.95 170.66 206.14 170.65 205.34 170.64 205.62 139.4 206.43 139.41 207.23 139.42"/><g class="cls-1"><text class="cls-2" transform="translate(199.67 186.76)">N</text></g><polygon points="198.46 184.81 171.89 199.82 171.09 199.35 171.01 198.48 197.66 183.41 198.06 184.11 198.46 184.81"/><polygon points="171.89 199.82 171.54 239.07 170.73 239.52 169.93 238.93 170.29 199.93 171.09 199.35 171.89 199.82"/><polygon points="167.05 202.82 166.75 235.99 165.94 235.98 165.14 235.97 165.44 202.81 166.24 202.81 167.05 202.82"/><polygon points="171.54 239.07 205.35 259 205.34 259.92 205.33 260.85 170.63 240.4 170.73 239.52 171.54 239.07"/><polygon points="208.57 258.56 208.27 291.19 207.47 291.18 206.67 291.17 206.96 258.55 207.76 258.55 208.57 258.56"/><polygon points="203.75 258.52 203.45 291.14 202.65 291.14 201.85 291.13 202.14 258.5 202.94 258.51 203.75 258.52"/><g class="cls-1"><text class="cls-3" transform="translate(198.09 307.27)">O</text></g><polygon points="205.35 259 231.91 243.98 232.31 244.68 232.7 245.38 205.33 260.85 205.34 259.92 205.35 259"/><g class="cls-1"><text class="cls-2" transform="translate(233.91 247.33)">N</text></g><polygon points="239.59 231.21 239.87 200.44 240.67 199.98 241.48 199.52 241.19 231.23 240.39 231.22 239.59 231.21"/><polygon points="237.88 197.87 265.56 182.22 265.96 182.91 266.35 183.62 238.67 199.27 238.28 198.57 237.88 197.87"/><polygon points="240.25 202.06 267.94 186.41 268.33 187.11 268.73 187.81 241.04 203.46 240.65 202.76 240.25 202.06"/><g class="cls-1"><text class="cls-3" transform="translate(268.75 187.38)">O</text></g><polygon points="239.87 200.44 213.66 184.99 214.06 184.3 214.47 183.61 241.48 199.52 240.67 199.98 239.87 200.44"/><polygon points="248.72 244.18 275.33 259.86 274.92 260.55 274.51 261.24 247.91 245.56 248.31 244.87 248.72 244.18"/><polygon points="170.63 240.4 140.66 249.84 140.42 249.07 140.18 248.31 169.93 238.93 170.73 239.52 170.63 240.4"/><g class="cls-1"><text class="cls-2" transform="translate(126.02 258.77)">N</text></g><g class="cls-1"><text class="cls-2" transform="translate(126.02 274.94)">H</text></g><polygon points="125.39 243.13 108.11 218.87 109.1 218.88 110.09 218.89 126.7 242.19 126.05 242.66 125.39 243.13"/><polygon points="108.11 218.87 125.74 195.05 126.39 195.53 127.03 196.01 110.09 218.89 109.1 218.88 108.11 218.87"/><polygon points="114.41 218.46 129.62 197.92 130.26 198.4 130.91 198.88 115.7 219.41 115.06 218.94 114.41 218.46"/><g class="cls-1"><text class="cls-2" transform="translate(126.61 193.77)">N</text></g><polygon points="141.26 188.51 171.01 198.48 171.09 199.35 170.29 199.93 140.75 190.04 141 189.28 141.26 188.51"/><text class="cls-4" transform="translate(139 106)">Theophylline</text></svg>