<svg id="图层_1" data-name="图层 1" xmlns="http://www.w3.org/2000/svg" viewBox="0 0 1200 400"><defs><style>.cls-1,.cls-2,.cls-4,.cls-5,.cls-6,.cls-7,.cls-8,.cls-9{isolation:isolate;font-size:25.78px;font-family:Helvetica;}.cls-1{fill:#ff870a;}.cls-2,.cls-5,.cls-6{fill:#0a0bff;}.cls-3{fill:none;stroke:#000;stroke-miterlimit:3.05;stroke-width:0.38px;}.cls-4{fill:teal;}.cls-5,.cls-8{letter-spacing:-0.05em;}.cls-6{letter-spacing:-0.05em;}.cls-7,.cls-8{fill:#80db9e;}.cls-10{font-size:19.43px;font-family:ArialMT, Arial;}.cls-11{letter-spacing:-0.06em;}.cls-12{letter-spacing:-0.04em;}</style></defs><g id="topgroup"><g id="ID000000"><g id="ID000002"><text class="cls-1" transform="translate(525.49 81.19) scale(1.51 1)">G</text></g><g id="ID000003"><text class="cls-1" transform="translate(525.49 106.9) scale(1.51 1)">G</text></g><g id="ID000004"><text class="cls-1" transform="translate(526.57 132.62) scale(1.51 1)">C</text></g><g id="ID000005"><text class="cls-1" transform="translate(525.49 158.33) scale(1.51 1)">G</text></g><g id="ID000006"><text class="cls-2" transform="translate(500.68 181.9) scale(1.51 1)">U</text></g><g id="ID000007"><text class="cls-2" transform="translate(626.9 181.9) scale(1.51 1)">U</text></g><g id="ID000008"><text class="cls-1" transform="translate(604.25 158.33) scale(1.51 1)">C</text></g><g id="ID000009"><text class="cls-1" transform="translate(603.16 132.62) scale(1.51 1)">G</text></g><g id="ID000010"><text class="cls-1" transform="translate(604.25 106.9) scale(1.51 1)">C</text></g><g id="ID000011"><text class="cls-1" transform="translate(604.25 81.19) scale(1.51 1)">C</text></g><g id="ID000012"><line class="cls-3" x1="556.17" y1="69.62" x2="602.77" y2="69.62"/></g><g id="ID000015"><line class="cls-3" x1="556.17" y1="121.05" x2="602.77" y2="121.05"/></g><g id="ID000016"><line class="cls-3" x1="556.17" y1="146.76" x2="602.77" y2="146.76"/></g><g id="ID000018"><text class="cls-4" transform="translate(529.81 207.61) scale(1.51 1)">C</text></g><g id="ID000019"><text class="cls-5" transform="translate(501.75 233.32) scale(1.51 1)">A</text></g><g id="ID000020"><text class="cls-6" transform="translate(637.69 226.9) scale(1.51 1)">A</text></g><g id="ID000021"><text class="cls-4" transform="translate(606.4 207.61) scale(1.51 1)">G</text></g><g id="ID000022"><line class="cls-3" x1="559.4" y1="196.04" x2="606.01" y2="196.04"/></g><g id="ID000024"><text class="cls-7" transform="translate(529.81 265.46) scale(1.51 1)">C</text></g><g id="ID000025"><text class="cls-8" transform="translate(530.88 291.18) scale(1.51 1)">A</text></g><g id="ID000026"><text class="cls-7" transform="translate(529.81 316.89) scale(1.51 1)">C</text></g><g id="ID000027"><line class="cls-3" x1="517.97" y1="305.32" x2="492.08" y2="305.32"/></g><g id="ID000028"><text class="cls-9" transform="translate(448.77 316.89) scale(1.51 1)">10</text></g><g id="ID000029"><text class="cls-7" transform="translate(529.81 342.6) scale(1.51 1)">C</text></g><g id="ID000030"><text class="cls-2" transform="translate(520.09 368.32) scale(1.51 1)">U</text></g><g id="ID000031"><text class="cls-2" transform="translate(549.23 387.6) scale(1.51 1)">U</text></g><g id="ID000032"><text class="cls-2" transform="translate(588.06 387.6) scale(1.51 1)">C</text></g><g id="ID000033"><text class="cls-2" transform="translate(616.11 368.32) scale(1.51 1)">G</text></g><g id="ID000034"><text class="cls-7" transform="translate(606.4 342.6) scale(1.51 1)">G</text></g><g id="ID000035"><text class="cls-7" transform="translate(606.4 316.89) scale(1.51 1)">G</text></g><g id="ID000036"><text class="cls-7" transform="translate(607.48 291.18) scale(1.51 1)">U</text></g><g id="ID000037"><text class="cls-7" transform="translate(606.4 265.46) scale(1.51 1)">G</text></g><g id="ID000038"><text class="cls-6" transform="translate(637.69 246.18) scale(1.51 1)">A</text></g><g id="ID000039"><line class="cls-3" x1="676.56" y1="234.61" x2="702.46" y2="234.61"/></g><g id="ID000040"><text class="cls-9" transform="translate(702.46 246.18) scale(1.51 1)">20</text></g><g id="ID000041"><line class="cls-3" x1="559.4" y1="253.89" x2="606.01" y2="253.89"/></g><g id="ID000042"><line class="cls-3" x1="559.4" y1="279.61" x2="606.01" y2="279.61"/></g><g id="ID000043"><line class="cls-3" x1="559.4" y1="305.32" x2="606.01" y2="305.32"/></g><g id="ID000044"><line class="cls-3" x1="559.4" y1="331.03" x2="606.01" y2="331.03"/></g><g id="ID000012-2" data-name="ID000012"><line class="cls-3" x1="556.16" y1="95.37" x2="602.77" y2="95.37"/></g><text class="cls-10" transform="translate(426.25 30.77) scale(1.03 1)">A-site of the 16S rRN<tspan class="cls-11" x="183.55" y="0">A</tspan><tspan x="195.44" y="0" xml:space="preserve"> decoding region</tspan></text><text class="cls-10" transform="translate(502.32 76.71) scale(1.03 1)">5<tspan class="cls-12" x="10.8" y="0">’</tspan></text><text class="cls-10" transform="translate(643.13 76.71) scale(1.03 1)">3<tspan class="cls-12" x="10.8" y="0">’</tspan></text></g></g></svg>