<?xml version="1.0" encoding="utf-8"?>
<!-- Generator: Adobe Illustrator 25.2.0, SVG Export Plug-In . SVG Version: 6.00 Build 0)  -->
<svg version="1.1" id="图层_1" xmlns="http://www.w3.org/2000/svg" xmlns:xlink="http://www.w3.org/1999/xlink" x="0px" y="0px"
	 viewBox="0 0 800 400" style="enable-background:new 0 0 800 400;" xml:space="preserve">
<style type="text/css">
	.st0{fill:#FF870A;}
	.st1{font-family:'ArialMT';}
	.st2{font-size:27.0036px;}
	.st3{fill:#0A0BFF;}
	.st4{fill:none;stroke:#000000;stroke-width:0.38;stroke-miterlimit:3.05;}
	.st5{fill:#008080;}
	.st6{letter-spacing:-0.8;}
	.st7{fill:#80DB9E;}
	.st8{font-size:20.3522px;}
	.st9{letter-spacing:-1.1;}
</style>
<text transform="matrix(1.3078 0 0 1 321.1235 76.2249)" class="st0 st1 st2">G</text>
<text transform="matrix(1.3078 0 0 1 321.1235 103.1555)" class="st0 st1 st2">G</text>
<text transform="matrix(1.3078 0 0 1 322.1035 130.0969)" class="st0 st1 st2">C</text>
<text transform="matrix(1.3078 0 0 1 321.1235 157.0266)" class="st0 st1 st2">G</text>
<text transform="matrix(1.3078 0 0 1 298.6152 181.7151)" class="st3 st1 st2">U</text>
<text transform="matrix(1.3078 0 0 1 413.1245 181.7151)" class="st3 st1 st2">U</text>
<text transform="matrix(1.3078 0 0 1 392.5762 157.0266)" class="st0 st1 st2">C</text>
<text transform="matrix(1.3078 0 0 1 391.5874 130.0969)" class="st0 st1 st2">G</text>
<text transform="matrix(1.3078 0 0 1 392.5762 103.1555)" class="st0 st1 st2">C</text>
<text transform="matrix(1.3078 0 0 1 392.5762 76.2249)" class="st0 st1 st2">C</text>
<line class="st4" x1="349" y1="64.1" x2="391.2" y2="64.1"/>
<line class="st4" x1="349" y1="118" x2="391.2" y2="118"/>
<line class="st4" x1="349" y1="144.9" x2="391.2" y2="144.9"/>
<text transform="matrix(1.3078 0 0 1 325.0435 208.6443)" class="st5 st1 st2">C</text>
<text transform="matrix(1.3078 0 0 1 299.5854 235.5759)" class="st3 st1 st2 st6">A</text>
<text transform="matrix(1.3078 0 0 1 422.9136 228.8503)" class="st3 st1 st2 st6">A</text>
<text transform="matrix(1.3078 0 0 1 394.5278 208.6443)" class="st5 st1 st2">G</text>
<line class="st4" x1="351.9" y1="196.5" x2="394.2" y2="196.5"/>
<text transform="matrix(1.3078 0 0 1 325.0435 269.239)" class="st7 st1 st2">C</text>
<text transform="matrix(1.3078 0 0 1 326.0137 296.1804)" class="st7 st1 st2 st6">A</text>
<text transform="matrix(1.3078 0 0 1 325.0435 323.1121)" class="st7 st1 st2">C</text>
<line class="st4" x1="314.3" y1="311" x2="290.8" y2="311"/>
<text transform="matrix(1.3078 0 0 1 251.521 323.1121)" class="st1 st2">10</text>
<text transform="matrix(1.3078 0 0 1 325.0435 350.0408)" class="st7 st1 st2">C</text>
<text transform="matrix(1.3078 0 0 1 316.2241 376.9822)" class="st3 st1 st2">U</text>
<text transform="matrix(1.3078 0 0 1 342.6611 397.1775)" class="st3 st1 st2">U</text>
<text transform="matrix(1.3078 0 0 1 377.8882 397.1775)" class="st3 st1 st2">C</text>
<text transform="matrix(1.3078 0 0 1 403.3354 376.9822)" class="st3 st1 st2">G</text>
<text transform="matrix(1.3078 0 0 1 394.5278 350.0408)" class="st7 st1 st2">G</text>
<text transform="matrix(1.3078 0 0 1 394.5278 323.1121)" class="st7 st1 st2">G</text>
<text transform="matrix(1.3078 0 0 1 395.5073 296.1804)" class="st7 st1 st2">U</text>
<text transform="matrix(1.3078 0 0 1 394.5278 269.239)" class="st7 st1 st2">G</text>
<text transform="matrix(1.3078 0 0 1 422.9136 249.0447)" class="st3 st1 st2 st6">A</text>
<line class="st4" x1="458.2" y1="236.9" x2="481.7" y2="236.9"/>
<text transform="matrix(1.3078 0 0 1 481.6733 249.0447)" class="st1 st2">20</text>
<line class="st4" x1="351.9" y1="257.1" x2="394.2" y2="257.1"/>
<line class="st4" x1="351.9" y1="284.1" x2="394.2" y2="284.1"/>
<line class="st4" x1="351.9" y1="311" x2="394.2" y2="311"/>
<line class="st4" x1="351.9" y1="337.9" x2="394.2" y2="337.9"/>
<line class="st4" x1="348.9" y1="91.1" x2="391.2" y2="91.1"/>
<text transform="matrix(0.8921 0 0 1 13.6421 23.6567)" class="st1 st8">A-site of the 16S rRN</text>
<text transform="matrix(0.8921 0 0 1 185.1577 23.6567)" class="st1 st8 st9">A</text>
<text transform="matrix(0.8921 0 0 1 196.2671 23.6567)" class="st1 st8"> decoding region</text>
<text transform="matrix(0.8921 0 0 1 300.103 71.5325)" class="st1 st8">5</text>
<text transform="matrix(0.8921 0 0 1 310.1948 71.5325)" class="st1 st8">’</text>
<text transform="matrix(0.8921 0 0 1 427.8481 71.5325)" class="st1 st8">3</text>
<text transform="matrix(0.8921 0 0 1 437.9409 71.5325)" class="st1 st8">’</text>
</svg>
