<svg id="图层_1" data-name="图层 1" xmlns="http://www.w3.org/2000/svg" xmlns:xlink="http://www.w3.org/1999/xlink" viewBox="0 0 1200 400"><defs><style>.cls-1,.cls-5{fill:none;}.cls-2{clip-path:url(#clip-path);}.cls-3,.cls-6{fill:gray;}.cls-3{stroke:gray;}.cls-4{fill:#20b2aa;stroke:#20b2aa;}.cls-5{stroke:orange;stroke-linecap:square;stroke-linejoin:round;stroke-width:2.4px;}.cls-7{font-size:20px;font-family:ArialMT, Arial;}</style><clipPath id="clip-path"><rect class="cls-1" x="162.74" y="41.03" width="1022.55" height="812.76"/></clipPath></defs><g id="patch_2" data-name="patch 2"><g class="cls-2"><path class="cls-3" d="M161.72,102H183.2V99.54H161.72Z"/></g></g><g id="patch_3" data-name="patch 3"><g class="cls-2"><path class="cls-4" d="M183.2,114.17H364.29V89.79H183.2Z"/></g></g><g id="patch_4" data-name="patch 4"><g class="cls-2"><path class="cls-3" d="M366.23,102h21.48V99.54H366.23Z"/></g></g><g id="patch_5" data-name="patch 5"><g class="cls-2"><path class="cls-3" d="M611.64,102h41.93V99.54H611.64Z"/></g></g><g id="patch_6" data-name="patch 6"><g class="cls-2"><path class="cls-4" d="M653.57,114.17H691.5V89.79H653.57Z"/></g></g><g id="patch_7" data-name="patch 7"><g class="cls-2"><path class="cls-3" d="M693.45,102H796.72V99.54H693.45Z"/></g></g><g id="patch_8" data-name="patch 8"><g class="cls-2"><path class="cls-3" d="M1000.21,102h144.18V99.54H1000.21Z"/></g></g><g id="patch_9" data-name="patch 9"><g class="cls-2"><path class="cls-4" d="M1144.39,114.17h37.94V89.79h-37.94Z"/></g></g><g id="patch_10" data-name="patch 10"><g class="cls-2"><path class="cls-4" d="M162.74,195.45h17.49V171.07H162.74Z"/></g></g><g id="patch_11" data-name="patch 11"><g class="cls-2"><path class="cls-3" d="M182.17,183.26h21.48v-2.44H182.17Z"/></g></g><g id="patch_12" data-name="patch 12"><g class="cls-2"><path class="cls-4" d="M203.65,195.45h78.84V171.07H203.65Z"/></g></g><g id="patch_13" data-name="patch 13"><g class="cls-2"><path class="cls-3" d="M284.43,183.26h41.92v-2.44H284.43Z"/></g></g><g id="patch_14" data-name="patch 14"><g class="cls-2"><path class="cls-4" d="M326.35,195.45h78.84V171.07H326.35Z"/></g></g><g id="patch_15" data-name="patch 15"><g class="cls-2"><path class="cls-3" d="M407.13,183.26h430.5v-2.44H407.13Z"/></g></g><g id="patch_16" data-name="patch 16"><g class="cls-2"><path class="cls-3" d="M898,183.26h62.37v-2.44H898Z"/></g></g><g id="patch_17" data-name="patch 17"><g class="cls-2"><path class="cls-4" d="M960.33,195.45h78.84V171.07H960.33Z"/></g></g><g id="patch_18" data-name="patch 18"><g class="cls-2"><path class="cls-3" d="M1041.11,183.26h144.18v-2.44H1041.11Z"/></g></g><g id="patch_19" data-name="patch 19"><g class="cls-2"><path class="cls-3" d="M161.72,264.54H224.1V262.1H161.72Z"/></g></g><g id="patch_20" data-name="patch 20"><g class="cls-2"><path class="cls-4" d="M224.1,276.73h78.84V252.34H224.1Z"/></g></g><g id="patch_21" data-name="patch 21"><g class="cls-2"><path class="cls-3" d="M304.88,264.54H408.16V262.1H304.88Z"/></g></g><g id="patch_22" data-name="patch 22"><g class="cls-2"><path class="cls-4" d="M408.16,276.73H548.35V252.34H408.16Z"/></g></g><g id="patch_23" data-name="patch 23"><g class="cls-2"><path class="cls-3" d="M550.29,264.54h226V262.1h-226Z"/></g></g><g id="patch_24" data-name="patch 24"><g class="cls-2"><path class="cls-4" d="M776.27,276.73H896V252.34H776.27Z"/></g></g><g id="patch_25" data-name="patch 25"><g class="cls-2"><path class="cls-3" d="M898,264.54h41.92V262.1H898Z"/></g></g><g id="patch_26" data-name="patch 26"><g class="cls-2"><path class="cls-4" d="M939.88,276.73h119.74V252.34H939.88Z"/></g></g><g id="patch_27" data-name="patch 27"><g class="cls-2"><path class="cls-3" d="M1061.56,264.54h82.83V262.1h-82.83Z"/></g></g><g id="patch_28" data-name="patch 28"><g class="cls-2"><path class="cls-4" d="M1144.39,276.73h17.49V252.34h-17.49Z"/></g></g><g id="patch_29" data-name="patch 29"><g class="cls-2"><path class="cls-3" d="M1163.82,264.54h21.47V262.1h-21.47Z"/></g></g><g id="patch_30" data-name="patch 30"><g class="cls-2"><path class="cls-3" d="M161.72,345.81h82.83v-2.44H161.72Z"/></g></g><g id="patch_31" data-name="patch 31"><g class="cls-2"><path class="cls-4" d="M244.55,358H262V333.62H244.55Z"/></g></g><g id="patch_32" data-name="patch 32"><g class="cls-2"><path class="cls-3" d="M264,345.81h21.47v-2.44H264Z"/></g></g><g id="line2d_1" data-name="line2d 1"><g class="cls-2"><path class="cls-5" d="M390.26,102l2.21,4,2.21,3,2.21,1.21,2.21-.83,2.21-2.68,2.21-3.83,2.21-4,2.21-3.2,2.21-1.58,2.22.45,2.21,2.37,2.21,3.68,2.21,4.08,2.21,3.43,2.21,1.93,2.21-.06,2.21-2,2.21-3.51,2.21-4.08,2.21-3.63,2.21-2.26,2.21-.32,2.21,1.69L443.31,99l2.21,4.05,2.21,3.79,2.21,2.58,2.21.71,2.21-1.34,2.21-3,2.21-4L461,97.81l2.21-2.87,2.21-1.08,2.21,1,2.21,2.77,2.21,3.88,2.22,4,2.21,3.12,2.21,1.46,2.21-.58L483.1,107l2.21-3.74,2.21-4.07,2.21-3.36L491.94,94l2.21.19,2.21,2.15,2.21,3.57,2.21,4.08,2.21,3.57,2.21,2.15,2.21.2,2.21-1.81,2.21-3.37L514,100.7,516.25,97l2.21-2.47,2.21-.58,2.21,1.45,2.21,3.13,2.21,4,2.21,3.88,2.21,2.77,2.21,1,2.22-1.09,2.21-2.86,2.21-3.92,2.21-4,2.21-3,2.21-1.34,2.21.71,2.21,2.57,2.21,3.79,2.21,4,2.21,3.29,2.21,1.7,2.21-.33,2.21-2.26,2.21-3.63,2.21-4.08,2.21-3.5,2.21-2,2.21-.07L578.14,96l2.21,3.44,2.21,4.07,2.21,3.69,2.21,2.37,2.21.45,2.21-1.58,2.21-3.21,2.21-4L598,97.37l2.21-2.67,2.21-.84,2.21,1.22,2.21,3,2.21,4"/></g></g><g id="line2d_2" data-name="line2d 2"><g class="cls-2"><path class="cls-5" d="M799.28,102l2,3.5,2,2.81,2,1.59,2,.06,2-1.49,2-2.74,2-3.47,2-3.52,2-2.88,2-1.69,2-.17,2,1.38,2,2.67,2,3.44,2,3.53,2,3,2,1.79,2,.29,2-1.28,2-2.59,2-3.4,2-3.56,2-3,2-1.89,2-.39,2,1.17,2,2.51,2,3.36,2,3.57,2,3.07,2,2,2,.51,2-1.07,2-2.43,2-3.32,2-3.58,2-3.13,2-2.07,2-.63,2,1,2,2.34,2,3.28,2,3.58,2,3.19,2,2.17,2,.73,2-.84,2-2.26,2-3.24,2-3.58,2-3.23,2-2.26,2-.84,2,.73,2,2.17,2,3.18,2,3.58,2,3.28,2,2.35,2,.95,2-.62,2-2.08,2-3.13,2-3.57,2-3.33,2-2.43,2-1.06,2,.51,2,2,2,3.08,2,3.56,2,3.37,2,2.51,2,1.17,2-.4,2-1.88,2-3,2-3.55,2-3.4,2-2.59,2-1.28,2,.28,2,1.79,2,2.95,2,3.54,2,3.43,2,2.67,2,1.39,2-.17,2-1.69,2-2.89,2-3.51,2-3.47,2-2.74,2-1.49,2,0,2,1.59,2,2.82,2,3.49"/></g></g><g id="line2d_3" data-name="line2d 3"><g class="cls-2"><path class="cls-5" d="M840.18,183.26l.56,1,.56,1,.56,1,.55.93.56.87.56.79.56.7.55.6.56.48.56.37.56.24.56.12.55,0,.56-.15.56-.27.56-.4.55-.51.56-.63.56-.72.56-.81.56-.89.55-.94.56-1,.56-1,.56-1,.55-1,.56-1,.56-1,.56-.92.56-.85.55-.76.56-.68.56-.57.56-.46.55-.33.56-.22.56-.08.56.05.56.18.55.31.56.42.56.55.56.65.55.74.56.83.56.91.56.95.55,1,.56,1,.56,1,.56,1,.56,1,.55.95.56.9.56.83.56.75.55.65.56.54.56.43.56.31.56.18.55,0,.56-.09.56-.21.56-.33.55-.46.56-.57.56-.68.56-.77.56-.85.55-.91.56-1,.56-1,.56-1,.55-1,.56-1,.56-1,.56-.95.56-.88.55-.81.56-.72.56-.63.56-.51.55-.4.56-.28.56-.14.56,0,.56.11.55.25.56.37.56.48.56.6.55.7.56.79.56.87.56.93.55,1,.56,1,.56,1"/></g></g><g id="text_1" data-name="text 1"><path id="DejaVuSansMono-Bold-87" d="M163.26,69.11h2.17l.9,9.21,1.08-6h2.06l1.26,6,.71-9.21h2.19l-1.45,12.55h-2.31l-1.43-6.59-1.34,6.59h-2.3Z"/></g><g id="text_2" data-name="text 2"><path id="DejaVuSans-124" d="M164.67,56.78v9.16h-.76V56.78Z"/></g><g id="text_3" data-name="text 3"><path id="DejaVuSans-49" d="M164.11,52.31h1.77V46.19l-1.93.39v-1l1.92-.39H167v7.11h1.78v.91h-4.62Z"/></g><g id="text_4" data-name="text 4"><path id="DejaVuSansMono-Bold-84" d="M190.13,81.66h-2.48V71.28h-3.19V69.11h8.86v2.17h-3.19Z"/><path id="DejaVuSansMono-Bold-89" d="M204.52,69.11h2.67l2.44,5,2.45-5h2.67l-3.87,7.61v4.94h-2.49V76.72Z"/><path id="DejaVuSansMono-Bold-72" d="M226.34,69.11h2.48v4.78h3.11V69.11h2.48V81.66h-2.48V76.08h-3.11v5.58h-2.48Z"/><path id="DejaVuSansMono-Bold-89-2" data-name="DejaVuSansMono-Bold-89" d="M246,69.11h2.67l2.44,5,2.45-5h2.67l-3.87,7.61v4.94h-2.48V76.72Z"/><path id="DejaVuSansMono-Bold-83" d="M271,76.15a6.24,6.24,0,0,1-2.54-1.5,3.17,3.17,0,0,1-.66-2.11,3.4,3.4,0,0,1,1.09-2.68,4.3,4.3,0,0,1,3-1,7.94,7.94,0,0,1,1.74.2,8.41,8.41,0,0,1,1.71.58v2.42a6.64,6.64,0,0,0-1.62-.85,4.73,4.73,0,0,0-1.63-.3,2.27,2.27,0,0,0-1.38.36,1.22,1.22,0,0,0-.48,1,1.12,1.12,0,0,0,.35.86,4.38,4.38,0,0,0,1.46.75l1.07.41a4.8,4.8,0,0,1,2.22,1.47,3.62,3.62,0,0,1,.72,2.31A3.48,3.48,0,0,1,274.88,81a5.14,5.14,0,0,1-3.39.94,8.6,8.6,0,0,1-1.87-.22,8.06,8.06,0,0,1-1.81-.67V78.46a8.36,8.36,0,0,0,1.92,1.05,5.26,5.26,0,0,0,1.84.35,2.17,2.17,0,0,0,1.42-.42,1.45,1.45,0,0,0,.5-1.16,1.55,1.55,0,0,0-.33-1,2.17,2.17,0,0,0-1-.67Z"/><path id="DejaVuSansMono-Bold-69" d="M296.65,81.66h-7.82V69.11h7.82v2.18h-5.34V74h4.84v2.19h-4.84v3.29h5.34Z"/><path id="DejaVuSansMono-Bold-75" d="M309.14,69.11h2.48v5l3.89-5h2.81l-4,4.94,4.11,7.61H315.7l-3-5.65-1.1,1.4v4.25h-2.48Z"/><path id="DejaVuSansMono-Bold-80" d="M332.74,71.19v3.69h1a2.67,2.67,0,0,0,1.71-.42,2.32,2.32,0,0,0,0-2.85,2.67,2.67,0,0,0-1.71-.42Zm-2.48-2.08h3.41a6,6,0,0,1,3.74.92,4.56,4.56,0,0,1,0,6,6,6,0,0,1-3.74.92h-.93v4.7h-2.48Z"/><path id="DejaVuSansMono-Bold-77" d="M350.36,69.11h3l1.5,5.5,1.49-5.5h3V81.66h-2.14V71.6l-1.33,5.5h-2l-1.35-5.5V81.66h-2.14Z"/></g><g id="text_5" data-name="text 5"><path id="DejaVuSans-124-2" data-name="DejaVuSans-124" d="M185.12,56.78v9.16h-.76V56.78Z"/></g><g id="text_6" data-name="text 6"><path id="DejaVuSans-50" d="M185.31,52.31h3.78v.91H184v-.91c.41-.43,1-1,1.68-1.72s1.16-1.18,1.34-1.39a5.08,5.08,0,0,0,.73-1,1.71,1.71,0,0,0,.21-.8,1.34,1.34,0,0,0-.45-1,1.68,1.68,0,0,0-1.17-.4,3.59,3.59,0,0,0-1.08.18,6.12,6.12,0,0,0-1.21.53V45.59a8.31,8.31,0,0,1,1.23-.4,4.54,4.54,0,0,1,1-.13,3,3,0,0,1,2,.62,2.08,2.08,0,0,1,.74,1.66,2.29,2.29,0,0,1-.19.94,4.44,4.44,0,0,1-.67,1c-.09.11-.38.41-.86.9S186.18,51.41,185.31,52.31Z"/></g><g id="text_7" data-name="text 7"><path id="DejaVuSansMono-Bold-78" d="M368.77,69.11h2.66l3.5,9.12V69.11h2.19V81.66h-2.65L371,72.54v9.12h-2.18Z"/></g><g id="text_8" data-name="text 8"><path id="DejaVuSans-124-3" data-name="DejaVuSans-124" d="M369.18,56.78v9.16h-.76V56.78Z"/></g><g id="text_9" data-name="text 9"><path id="DejaVuSans-49-2" data-name="DejaVuSans-49" d="M368.62,52.31h1.77V46.19l-1.93.39v-1l1.92-.39h1.08v7.11h1.77v.91h-4.61Z"/><path id="DejaVuSans-49-3" data-name="DejaVuSans-49" d="M375.61,52.31h1.78V46.19l-1.93.39v-1l1.91-.39h1.09v7.11h1.77v.91h-4.62Z"/></g><g id="text_10" data-name="text 10"><path id="DejaVuSansMono-Bold-87-2" data-name="DejaVuSansMono-Bold-87" d="M388.22,69.11h2.17l.9,9.21,1.08-6h2.06l1.26,6,.71-9.21h2.19l-1.45,12.55h-2.31l-1.43-6.59-1.34,6.59h-2.3Z"/><path id="DejaVuSansMono-Bold-81" d="M414.48,81.86l-.2,0h-.16a3.69,3.69,0,0,1-3.27-1.65,8.65,8.65,0,0,1-1.12-4.86,8.66,8.66,0,0,1,1.12-4.87,4.12,4.12,0,0,1,6.59,0,8.74,8.74,0,0,1,1.12,4.87,11.23,11.23,0,0,1-.53,3.7,4,4,0,0,1-1.54,2.14l1.56,1.52L416.35,84Zm-.34-10.75a1.46,1.46,0,0,0-1.39,1,9,9,0,0,0-.44,3.28,8.94,8.94,0,0,0,.44,3.27,1.46,1.46,0,0,0,2.78,0A8.73,8.73,0,0,0,416,75.4a8.75,8.75,0,0,0-.44-3.28A1.45,1.45,0,0,0,414.14,71.11Z"/><path id="DejaVuSansMono-Bold-82" d="M436.49,75.73a1.27,1.27,0,0,1,.64.35,4.56,4.56,0,0,1,.67,1.07l2.27,4.51h-2.72l-1.52-3.17-.17-.37c-.45-1-1-1.42-1.57-1.42h-.79v5h-2.48V69.11h3.58a5.55,5.55,0,0,1,3.48.85,3.43,3.43,0,0,1,1.05,2.8,3.15,3.15,0,0,1-.63,2.06A2.66,2.66,0,0,1,436.49,75.73Zm-3.19-4.54v3.42h1.17a2.2,2.2,0,0,0,1.46-.39,1.73,1.73,0,0,0,.44-1.32,1.69,1.69,0,0,0-.44-1.31,2.12,2.12,0,0,0-1.46-.4Z"/><path id="DejaVuSansMono-Bold-65" d="M455.62,71.38l-1.17,5.14h2.35Zm-1.51-2.27h3l3.38,12.55h-2.48l-.77-3.1H454l-.76,3.1h-2.48Z"/><path id="DejaVuSansMono-Bold-82-2" data-name="DejaVuSansMono-Bold-82" d="M478,75.73a1.23,1.23,0,0,1,.64.35,4.25,4.25,0,0,1,.67,1.07l2.27,4.51h-2.72l-1.52-3.17-.17-.37c-.44-1-1-1.42-1.57-1.42h-.79v5H472.3V69.11h3.58a5.55,5.55,0,0,1,3.48.85,3.4,3.4,0,0,1,1.06,2.8,3.15,3.15,0,0,1-.63,2.06A2.69,2.69,0,0,1,478,75.73Zm-3.19-4.54v3.42H476a2.18,2.18,0,0,0,1.46-.39,1.7,1.7,0,0,0,.44-1.32,1.66,1.66,0,0,0-.44-1.31,2.11,2.11,0,0,0-1.46-.4Z"/><path id="DejaVuSansMono-Bold-82-3" data-name="DejaVuSansMono-Bold-82" d="M498.71,75.73a1.3,1.3,0,0,1,.65.35,4.61,4.61,0,0,1,.66,1.07l2.27,4.51h-2.72l-1.51-3.17c-.05-.09-.11-.21-.18-.37-.44-1-1-1.42-1.57-1.42h-.78v5H493V69.11h3.59a5.54,5.54,0,0,1,3.47.85,3.4,3.4,0,0,1,1.06,2.8,3.15,3.15,0,0,1-.63,2.06A2.69,2.69,0,0,1,498.71,75.73Zm-3.18-4.54v3.42h1.16a2.18,2.18,0,0,0,1.46-.39,1.7,1.7,0,0,0,.44-1.32,1.66,1.66,0,0,0-.44-1.31,2.11,2.11,0,0,0-1.46-.4Z"/><path id="DejaVuSansMono-Bold-70" d="M522,71.29h-5.34V74h4.86v2.19h-4.86v5.47H514.2V69.11H522Z"/><path id="DejaVuSansMono-Bold-67" d="M542.5,81.3a5.5,5.5,0,0,1-2.6.61A4.68,4.68,0,0,1,536,80.23a7.57,7.57,0,0,1-1.33-4.83A7.64,7.64,0,0,1,536,70.55a4.71,4.71,0,0,1,3.88-1.67,6.12,6.12,0,0,1,1.37.15,5,5,0,0,1,1.23.45v2.76a4.89,4.89,0,0,0-1.24-.86,3,3,0,0,0-1.24-.27A2.29,2.29,0,0,0,538,72.19a6,6,0,0,0-.69,3.21,6,6,0,0,0,.69,3.2A2.29,2.29,0,0,0,540,79.68a3,3,0,0,0,1.24-.27,5,5,0,0,0,1.24-.87Z"/><path id="DejaVuSansMono-Bold-82-4" data-name="DejaVuSansMono-Bold-82" d="M560.94,75.73a1.27,1.27,0,0,1,.64.35,4.56,4.56,0,0,1,.67,1.07l2.27,4.51H561.8l-1.52-3.17-.18-.37c-.44-1-1-1.42-1.56-1.42h-.79v5h-2.48V69.11h3.58a5.57,5.57,0,0,1,3.48.85,3.43,3.43,0,0,1,1,2.8,3.15,3.15,0,0,1-.63,2.06A2.66,2.66,0,0,1,560.94,75.73Zm-3.19-4.54v3.42h1.17a2.2,2.2,0,0,0,1.46-.39,1.73,1.73,0,0,0,.44-1.32,1.69,1.69,0,0,0-.44-1.31,2.12,2.12,0,0,0-1.46-.4Z"/><path id="DejaVuSansMono-Bold-68" d="M578.52,71.34v8.09h.68a2.33,2.33,0,0,0,2.08-.92,5.83,5.83,0,0,0,.62-3.14,5.73,5.73,0,0,0-.62-3.11,2.33,2.33,0,0,0-2.08-.92ZM576,69.11h2.66c2,0,3.53.49,4.43,1.46s1.36,2.58,1.36,4.8-.45,3.83-1.36,4.82-2.38,1.47-4.43,1.47H576Z"/><path id="DejaVuSansMono-Bold-78-2" data-name="DejaVuSansMono-Bold-78" d="M596.63,69.11h2.67l3.5,9.12V69.11H605V81.66h-2.64l-3.52-9.12v9.12h-2.19Z"/></g><g id="text_11" data-name="text 11"><path id="DejaVuSans-124-4" data-name="DejaVuSans-124" d="M389.63,56.78v9.16h-.76V56.78Z"/></g><g id="text_12" data-name="text 12"><path id="DejaVuSans-49-4" data-name="DejaVuSans-49" d="M389.07,52.31h1.77V46.19l-1.93.39v-1l1.92-.39h1.08v7.11h1.78v.91h-4.62Z"/><path id="DejaVuSans-50-2" data-name="DejaVuSans-50" d="M396.81,52.31h3.79v.91h-5.09v-.91c.41-.43,1-1,1.68-1.72s1.16-1.18,1.34-1.39a5.08,5.08,0,0,0,.73-1,1.82,1.82,0,0,0,.2-.8,1.34,1.34,0,0,0-.45-1,1.64,1.64,0,0,0-1.16-.4,3.59,3.59,0,0,0-1.08.18,5.87,5.87,0,0,0-1.21.53V45.59a8.21,8.21,0,0,1,1.22-.4,4.56,4.56,0,0,1,1.05-.13,2.94,2.94,0,0,1,2,.62,2,2,0,0,1,.74,1.66,2.46,2.46,0,0,1-.18.94,4.53,4.53,0,0,1-.68,1c-.09.11-.37.41-.85.9Z"/></g><g id="text_13" data-name="text 13"><path id="DejaVuSansMono-Bold-89-3" data-name="DejaVuSansMono-Bold-89" d="M613.24,69.11h2.68l2.44,5,2.44-5h2.68l-3.88,7.61v4.94h-2.48V76.72Z"/><path id="DejaVuSansMono-Bold-84-2" data-name="DejaVuSansMono-Bold-84" d="M640.35,81.66h-2.49V71.28h-3.19V69.11h8.86v2.17h-3.18Z"/></g><g id="text_14" data-name="text 14"><path id="DejaVuSans-124-5" data-name="DejaVuSans-124" d="M614.59,56.78v9.16h-.76V56.78Z"/></g><g id="text_15" data-name="text 15"><path id="DejaVuSans-50-3" data-name="DejaVuSans-50" d="M614.78,52.31h3.78v.91h-5.09v-.91c.41-.43,1-1,1.68-1.72s1.16-1.18,1.34-1.39a5.08,5.08,0,0,0,.73-1,1.71,1.71,0,0,0,.21-.8,1.34,1.34,0,0,0-.45-1,1.68,1.68,0,0,0-1.17-.4,3.59,3.59,0,0,0-1.08.18,6.12,6.12,0,0,0-1.21.53V45.59a8.31,8.31,0,0,1,1.23-.4,4.54,4.54,0,0,1,1-.13,3,3,0,0,1,2,.62,2.08,2.08,0,0,1,.74,1.66,2.29,2.29,0,0,1-.19.94,4.44,4.44,0,0,1-.67,1c-.09.11-.38.41-.86.9S615.65,51.41,614.78,52.31Z"/><path id="DejaVuSans-51" d="M624.12,48.89a2.16,2.16,0,0,1,1.22.7,2,2,0,0,1,.44,1.3,2.21,2.21,0,0,1-.82,1.83,3.6,3.6,0,0,1-2.32.65,5.38,5.38,0,0,1-1-.1,7.19,7.19,0,0,1-1.1-.29v-1a4,4,0,0,0,1,.4,4.52,4.52,0,0,0,1.12.13,2.52,2.52,0,0,0,1.55-.4,1.37,1.37,0,0,0,.54-1.17,1.35,1.35,0,0,0-.5-1.11,2.12,2.12,0,0,0-1.38-.4h-.94v-.89h1a2.07,2.07,0,0,0,1.23-.32,1.08,1.08,0,0,0,.42-.92,1.13,1.13,0,0,0-.44-1,2,2,0,0,0-1.25-.33,4.75,4.75,0,0,0-1,.1,7.56,7.56,0,0,0-1.12.3v-1c.41-.11.8-.2,1.16-.26a7.47,7.47,0,0,1,1-.08,3.06,3.06,0,0,1,2,.56,1.81,1.81,0,0,1,.72,1.51,1.73,1.73,0,0,1-.38,1.13A2,2,0,0,1,624.12,48.89Z"/></g><g id="text_16" data-name="text 16"><path id="DejaVuSansMono-Bold-68-2" data-name="DejaVuSansMono-Bold-68" d="M657.71,71.34v8.09h.68a2.33,2.33,0,0,0,2.08-.92,5.83,5.83,0,0,0,.62-3.14,5.73,5.73,0,0,0-.62-3.11,2.33,2.33,0,0,0-2.08-.92Zm-2.48-2.23h2.66c2.05,0,3.53.49,4.43,1.46s1.36,2.58,1.36,4.8-.46,3.83-1.36,4.82-2.38,1.47-4.43,1.47h-2.66Z"/><path id="DejaVuSansMono-Bold-76" d="M676.71,81.66V69.11h2.48V79.48h5.31v2.18Z"/></g><g id="text_17" data-name="text 17"><path id="DejaVuSans-124-6" data-name="DejaVuSans-124" d="M655.49,56.78v9.16h-.76V56.78Z"/></g><g id="text_18" data-name="text 18"><path id="DejaVuSans-50-4" data-name="DejaVuSans-50" d="M655.68,52.31h3.78v.91h-5.09v-.91c.41-.43,1-1,1.69-1.72s1.15-1.18,1.34-1.39a5.4,5.4,0,0,0,.72-1,1.71,1.71,0,0,0,.21-.8,1.34,1.34,0,0,0-.45-1,1.68,1.68,0,0,0-1.17-.4,3.48,3.48,0,0,0-1.07.18,5.87,5.87,0,0,0-1.21.53V45.59a7.85,7.85,0,0,1,1.22-.4,4.54,4.54,0,0,1,1-.13,3,3,0,0,1,2,.62,2.08,2.08,0,0,1,.74,1.66,2.29,2.29,0,0,1-.19.94,4.13,4.13,0,0,1-.67,1c-.09.11-.37.41-.85.9Z"/><path id="DejaVuSans-53" d="M661.75,45.2H666v.92h-3.27v2a2.17,2.17,0,0,1,.47-.12,2.59,2.59,0,0,1,.48,0,3,3,0,0,1,2.12.73,2.59,2.59,0,0,1,.79,2,2.55,2.55,0,0,1-.81,2,3.32,3.32,0,0,1-2.27.71,6,6,0,0,1-1-.08,9.37,9.37,0,0,1-1.08-.26V51.94a4.71,4.71,0,0,0,1,.39,4.28,4.28,0,0,0,1.09.13A2.09,2.09,0,0,0,665,52a1.69,1.69,0,0,0,.54-1.32,1.71,1.71,0,0,0-.54-1.33,2.09,2.09,0,0,0-1.47-.49,3.69,3.69,0,0,0-.87.1,4,4,0,0,0-.88.3Z"/></g><g id="text_19" data-name="text 19"><path id="DejaVuSansMono-Bold-86" d="M700.16,79.59l2.21-10.48h2.5l-3,12.55h-3.44l-3-12.55H698Z"/><path id="DejaVuSansMono-Bold-65-2" data-name="DejaVuSansMono-Bold-65" d="M720.9,71.38l-1.16,5.14h2.34Zm-1.51-2.27h3l3.39,12.55h-2.49l-.77-3.1h-3.32l-.76,3.1H716Z"/><path id="DejaVuSansMono-Bold-73" d="M737.91,71.29V69.11h7.48v2.18h-2.5v8.19h2.5v2.18h-7.48V79.48h2.5V71.29Z"/><path id="DejaVuSansMono-Bold-81-2" data-name="DejaVuSansMono-Bold-81" d="M762.72,81.86l-.2,0h-.15a3.72,3.72,0,0,1-3.28-1.65A8.74,8.74,0,0,1,758,75.4a8.75,8.75,0,0,1,1.11-4.87,4.13,4.13,0,0,1,6.6,0,8.75,8.75,0,0,1,1.11,4.87,11,11,0,0,1-.53,3.7,4,4,0,0,1-1.54,2.14l1.57,1.52L764.6,84Zm-.33-10.75a1.45,1.45,0,0,0-1.39,1,9,9,0,0,0-.44,3.28,8.94,8.94,0,0,0,.44,3.27,1.46,1.46,0,0,0,2.78,0,8.94,8.94,0,0,0,.44-3.27,9,9,0,0,0-.44-3.28A1.45,1.45,0,0,0,762.39,71.11Z"/><path id="DejaVuSansMono-Bold-78-3" data-name="DejaVuSansMono-Bold-78" d="M779,69.11h2.67l3.49,9.12V69.11h2.19V81.66h-2.65l-3.52-9.12v9.12H779Z"/></g><g id="text_20" data-name="text 20"><path id="DejaVuSans-124-7" data-name="DejaVuSans-124" d="M696.39,56.78v9.16h-.76V56.78Z"/></g><g id="text_21" data-name="text 21"><path id="DejaVuSans-50-5" data-name="DejaVuSans-50" d="M696.58,52.31h3.78v.91h-5.08v-.91c.41-.43,1-1,1.68-1.72s1.16-1.18,1.34-1.39a5,5,0,0,0,.72-1,1.71,1.71,0,0,0,.21-.8,1.34,1.34,0,0,0-.45-1,1.65,1.65,0,0,0-1.16-.4,3.59,3.59,0,0,0-1.08.18,5.87,5.87,0,0,0-1.21.53V45.59a8.21,8.21,0,0,1,1.22-.4,4.54,4.54,0,0,1,1-.13,3,3,0,0,1,2,.62,2.08,2.08,0,0,1,.74,1.66,2.46,2.46,0,0,1-.18.94,4.53,4.53,0,0,1-.68,1c-.09.11-.37.41-.85.9Z"/><path id="DejaVuSans-55" d="M702.37,45.2h5.15v.46l-2.91,7.56h-1.13l2.74-7.1h-3.85Z"/></g><g id="text_22" data-name="text 22"><path id="DejaVuSansMono-Bold-75-2" data-name="DejaVuSansMono-Bold-75" d="M798.22,69.11h2.48v5l3.89-5h2.81l-4,4.94,4.11,7.61h-2.76l-3-5.65-1.1,1.4v4.25h-2.48Z"/><path id="DejaVuSansMono-Bold-65-3" data-name="DejaVuSansMono-Bold-65" d="M823.16,71.38,822,76.52h2.35Zm-1.51-2.27h3l3.39,12.55h-2.48l-.77-3.1h-3.33l-.75,3.1h-2.49Z"/><path id="DejaVuSansMono-Bold-69-2" data-name="DejaVuSansMono-Bold-69" d="M848,81.66h-7.82V69.11H848v2.18h-5.34V74h4.84v2.19h-4.84v3.29H848Z"/><path id="DejaVuSansMono-Bold-73-2" data-name="DejaVuSansMono-Bold-73" d="M860.91,71.29V69.11h7.48v2.18h-2.5v8.19h2.5v2.18h-7.48V79.48h2.5V71.29Z"/><path id="DejaVuSansMono-Bold-69-3" data-name="DejaVuSansMono-Bold-69" d="M889.44,81.66h-7.83V69.11h7.83v2.18H884.1V74h4.83v2.19H884.1v3.29h5.34Z"/><path id="DejaVuSansMono-Bold-89-4" data-name="DejaVuSansMono-Bold-89" d="M901,69.11h2.68l2.43,5,2.45-5h2.68l-3.88,7.61v4.94h-2.48V76.72Z"/><path id="DejaVuSansMono-Bold-76-2" data-name="DejaVuSansMono-Bold-76" d="M923.58,81.66V69.11h2.48V79.48h5.31v2.18Z"/><path id="DejaVuSansMono-Bold-69-4" data-name="DejaVuSansMono-Bold-69" d="M951.66,81.66h-7.82V69.11h7.82v2.18h-5.34V74h4.84v2.19h-4.84v3.29h5.34Z"/><path id="DejaVuSansMono-Bold-75-3" data-name="DejaVuSansMono-Bold-75" d="M964.15,69.11h2.48v5l3.89-5h2.81l-4,4.94,4.1,7.61h-2.76l-3-5.65-1.11,1.4v4.25h-2.48Z"/><path id="DejaVuSansMono-Bold-84-3" data-name="DejaVuSansMono-Bold-84" d="M990.34,81.66h-2.48V71.28h-3.19V69.11h8.85v2.17h-3.18Z"/></g><g id="text_23" data-name="text 23"><path id="DejaVuSans-124-8" data-name="DejaVuSans-124" d="M798.65,56.78v9.16h-.76V56.78Z"/></g><g id="text_24" data-name="text 24"><path id="DejaVuSans-51-2" data-name="DejaVuSans-51" d="M801.19,48.89a2.16,2.16,0,0,1,1.21.7,2,2,0,0,1,.44,1.3,2.18,2.18,0,0,1-.82,1.83,3.58,3.58,0,0,1-2.32.65,5.28,5.28,0,0,1-1-.1,7,7,0,0,1-1.11-.29v-1a4,4,0,0,0,1,.4,4.58,4.58,0,0,0,1.12.13,2.57,2.57,0,0,0,1.56-.4,1.39,1.39,0,0,0,.53-1.17,1.35,1.35,0,0,0-.5-1.11,2.12,2.12,0,0,0-1.38-.4H799v-.89h1a2,2,0,0,0,1.22-.32,1.08,1.08,0,0,0,.42-.92,1.1,1.1,0,0,0-.44-1,2,2,0,0,0-1.25-.33,4.65,4.65,0,0,0-1,.1,7.66,7.66,0,0,0-1.13.3v-1c.42-.11.8-.2,1.16-.26a7.47,7.47,0,0,1,1-.08,3.06,3.06,0,0,1,1.95.56,1.81,1.81,0,0,1,.72,1.51,1.73,1.73,0,0,1-.38,1.13A1.92,1.92,0,0,1,801.19,48.89Z"/><path id="DejaVuSans-50-6" data-name="DejaVuSans-50" d="M805.83,52.31h3.78v.91h-5.08v-.91c.41-.43,1-1,1.68-1.72s1.16-1.18,1.34-1.39a5,5,0,0,0,.72-1,1.71,1.71,0,0,0,.21-.8,1.34,1.34,0,0,0-.45-1,1.65,1.65,0,0,0-1.16-.4,3.59,3.59,0,0,0-1.08.18,5.87,5.87,0,0,0-1.21.53V45.59a8.21,8.21,0,0,1,1.22-.4,4.54,4.54,0,0,1,1-.13,3,3,0,0,1,2,.62,2.08,2.08,0,0,1,.74,1.66,2.46,2.46,0,0,1-.18.94,4.53,4.53,0,0,1-.68,1c-.09.11-.37.41-.85.9Z"/></g><g id="text_25" data-name="text 25"><path id="DejaVuSansMono-Bold-76-3" data-name="DejaVuSansMono-Bold-76" d="M1003.64,81.66V69.11h2.48V79.48h5.31v2.18Z"/><path id="DejaVuSansMono-Bold-80-2" data-name="DejaVuSansMono-Bold-80" d="M1026.33,71.19v3.69h1a2.67,2.67,0,0,0,1.71-.42,2.32,2.32,0,0,0,0-2.85,2.67,2.67,0,0,0-1.71-.42Zm-2.48-2.08h3.41A5.9,5.9,0,0,1,1031,70a4.53,4.53,0,0,1,0,6,6,6,0,0,1-3.73.92h-.93v4.7h-2.48Z"/><path id="DejaVuSansMono-Bold-70-2" data-name="DejaVuSansMono-Bold-70" d="M1052.58,71.29h-5.34V74h4.86v2.19h-4.86v5.47h-2.48V69.11h7.82Z"/><path id="DejaVuSansMono-Bold-83-2" data-name="DejaVuSansMono-Bold-83" d="M1068.26,76.15a6.17,6.17,0,0,1-2.54-1.5,3.18,3.18,0,0,1-.67-2.11,3.4,3.4,0,0,1,1.1-2.68,4.3,4.3,0,0,1,3-1,7.78,7.78,0,0,1,1.73.2,8.71,8.71,0,0,1,1.72.58v2.42a6.64,6.64,0,0,0-1.62-.85,4.79,4.79,0,0,0-1.64-.3,2.31,2.31,0,0,0-1.38.36,1.22,1.22,0,0,0-.47,1,1.15,1.15,0,0,0,.34.86,4.49,4.49,0,0,0,1.46.75l1.07.41a4.84,4.84,0,0,1,2.23,1.47,3.62,3.62,0,0,1,.72,2.31,3.48,3.48,0,0,1-1.13,2.84,5.17,5.17,0,0,1-3.39.94,8.53,8.53,0,0,1-1.87-.22,7.89,7.89,0,0,1-1.81-.67V78.46a8.36,8.36,0,0,0,1.92,1.05,5.26,5.26,0,0,0,1.84.35,2.12,2.12,0,0,0,1.41-.42,1.43,1.43,0,0,0,.51-1.16,1.51,1.51,0,0,0-.34-1,2.13,2.13,0,0,0-1-.67Z"/><path id="DejaVuSansMono-Bold-82-5" data-name="DejaVuSansMono-Bold-82" d="M1091.5,75.73a1.23,1.23,0,0,1,.64.35,4.25,4.25,0,0,1,.67,1.07l2.27,4.51h-2.72l-1.52-3.17-.17-.37c-.45-1-1-1.42-1.57-1.42h-.79v5h-2.48V69.11h3.58a5.55,5.55,0,0,1,3.48.85,3.44,3.44,0,0,1,1.06,2.8,3.15,3.15,0,0,1-.63,2.06A2.69,2.69,0,0,1,1091.5,75.73Zm-3.19-4.54v3.42h1.17a2.18,2.18,0,0,0,1.46-.39,1.73,1.73,0,0,0,.44-1.32,1.69,1.69,0,0,0-.44-1.31,2.12,2.12,0,0,0-1.46-.4Z"/><path id="DejaVuSansMono-Bold-83-3" data-name="DejaVuSansMono-Bold-83" d="M1109.74,76.15a6.24,6.24,0,0,1-2.54-1.5,3.17,3.17,0,0,1-.66-2.11,3.4,3.4,0,0,1,1.09-2.68,4.3,4.3,0,0,1,3-1,7.94,7.94,0,0,1,1.74.2,8.41,8.41,0,0,1,1.71.58v2.42a6.64,6.64,0,0,0-1.62-.85,4.73,4.73,0,0,0-1.63-.3,2.27,2.27,0,0,0-1.38.36,1.22,1.22,0,0,0-.48,1,1.12,1.12,0,0,0,.35.86,4.38,4.38,0,0,0,1.46.75l1.07.41a4.8,4.8,0,0,1,2.22,1.47,3.62,3.62,0,0,1,.72,2.31,3.48,3.48,0,0,1-1.13,2.84,5.14,5.14,0,0,1-3.39.94,8.6,8.6,0,0,1-1.87-.22,8.06,8.06,0,0,1-1.81-.67V78.46a8.36,8.36,0,0,0,1.92,1.05,5.26,5.26,0,0,0,1.84.35,2.17,2.17,0,0,0,1.42-.42,1.45,1.45,0,0,0,.5-1.16,1.55,1.55,0,0,0-.33-1,2.17,2.17,0,0,0-1-.67Z"/><path id="DejaVuSansMono-Bold-89-5" data-name="DejaVuSansMono-Bold-89" d="M1126.26,69.11h2.68l2.44,5,2.44-5h2.68l-3.88,7.61v4.94h-2.48V76.72Z"/></g><g id="text_26" data-name="text 26"><path id="DejaVuSans-124-9" data-name="DejaVuSans-124" d="M1003.16,56.78v9.16h-.76V56.78Z"/></g><g id="text_27" data-name="text 27"><path id="DejaVuSans-52" d="M1005.39,46.15l-2.74,4.28h2.74Zm-.29-.95h1.37v5.23h1.14v.9h-1.14v1.89h-1.08V51.33h-3.62v-1Z"/><path id="DejaVuSans-50-7" data-name="DejaVuSans-50" d="M1010.34,52.31h3.78v.91H1009v-.91c.41-.43,1-1,1.68-1.72s1.16-1.18,1.34-1.39a5,5,0,0,0,.72-1,1.71,1.71,0,0,0,.21-.8,1.34,1.34,0,0,0-.45-1,1.65,1.65,0,0,0-1.16-.4,3.59,3.59,0,0,0-1.08.18,5.87,5.87,0,0,0-1.21.53V45.59a7.85,7.85,0,0,1,1.22-.4,4.54,4.54,0,0,1,1-.13,3,3,0,0,1,2,.62,2.08,2.08,0,0,1,.74,1.66,2.46,2.46,0,0,1-.18.94,4.53,4.53,0,0,1-.68,1c-.09.11-.37.41-.85.9Z"/></g><g id="text_28" data-name="text 28"><path id="DejaVuSansMono-Bold-89-6" data-name="DejaVuSansMono-Bold-89" d="M1145,69.11h2.67l2.44,5,2.45-5h2.68l-3.88,7.61v4.94h-2.48V76.72Z"/><path id="DejaVuSansMono-Bold-87-3" data-name="DejaVuSansMono-Bold-87" d="M1165.64,69.11h2.17l.9,9.21,1.09-6h2.06l1.26,6,.71-9.21H1176l-1.44,12.55h-2.32l-1.43-6.59-1.33,6.59h-2.3Z"/></g><g id="text_29" data-name="text 29"><path id="DejaVuSans-124-10" data-name="DejaVuSans-124" d="M1146.31,56.78v9.16h-.76V56.78Z"/></g><g id="text_30" data-name="text 30"><path id="DejaVuSans-52-2" data-name="DejaVuSans-52" d="M1148.55,46.15l-2.74,4.28h2.74Zm-.29-.95h1.37v5.23h1.14v.9h-1.14v1.89h-1.08V51.33h-3.62v-1Z"/><path id="DejaVuSans-57" d="M1152.59,53.05v-1a4.61,4.61,0,0,0,.83.3,3.34,3.34,0,0,0,.82.1,2,2,0,0,0,1.64-.72,3.83,3.83,0,0,0,.65-2.2,2.07,2.07,0,0,1-.79.71,2.21,2.21,0,0,1-1.06.25,2.5,2.5,0,0,1-1.9-.73,3.11,3.11,0,0,1,0-4,2.62,2.62,0,0,1,1.94-.74,2.42,2.42,0,0,1,2.13,1.06,5.55,5.55,0,0,1,.73,3.1,4.7,4.7,0,0,1-.9,3,2.92,2.92,0,0,1-2.42,1.13,4,4,0,0,1-.83-.08A5.75,5.75,0,0,1,1152.59,53.05Zm2.16-3.4a1.43,1.43,0,0,0,1.16-.5,2.38,2.38,0,0,0,0-2.73,1.43,1.43,0,0,0-1.16-.5,1.41,1.41,0,0,0-1.15.5,2.38,2.38,0,0,0,0,2.73A1.41,1.41,0,0,0,1154.75,49.65Z"/></g><g id="text_31" data-name="text 31"><path id="DejaVuSansMono-Bold-73-3" data-name="DejaVuSansMono-Bold-73" d="M164.7,152.57v-2.19h7.48v2.19h-2.5v8.18h2.5v2.19H164.7v-2.19h2.5v-8.18Z"/></g><g id="text_32" data-name="text 32"><path id="DejaVuSans-124-11" data-name="DejaVuSans-124" d="M164.67,138.06v9.16h-.76v-9.16Z"/></g><g id="text_33" data-name="text 33"><path id="DejaVuSans-53-2" data-name="DejaVuSans-53" d="M163.93,126.48h4.26v.91h-3.27v2l.48-.12a3.59,3.59,0,0,1,.47,0,3,3,0,0,1,2.12.73,2.9,2.9,0,0,1,0,4,3.27,3.27,0,0,1-2.27.72,6.15,6.15,0,0,1-1-.09,8.29,8.29,0,0,1-1.08-.25v-1.09a4.93,4.93,0,0,0,1,.39,4.85,4.85,0,0,0,1.09.13,2.14,2.14,0,0,0,1.47-.49,1.71,1.71,0,0,0,.54-1.33,1.68,1.68,0,0,0-.54-1.32,2.09,2.09,0,0,0-1.47-.49,4.28,4.28,0,0,0-.87.09,5.73,5.73,0,0,0-.88.3Z"/><path id="DejaVuSans-49-5" data-name="DejaVuSans-49" d="M171.1,133.58h1.78v-6.11l-1.93.38v-1l1.92-.38H174v7.1h1.77v.91H171.1Z"/></g><g id="text_34" data-name="text 34"><path id="DejaVuSansMono-Bold-71" d="M191,160.67v-2.4h-1.7v-2.08h3.87v5.75a5,5,0,0,1-1.58.93,5.31,5.31,0,0,1-1.84.31,4.51,4.51,0,0,1-3.77-1.69,9.4,9.4,0,0,1,0-9.66,4.68,4.68,0,0,1,3.88-1.67,5.29,5.29,0,0,1,1.48.21,5.36,5.36,0,0,1,1.38.62v2.75a3.45,3.45,0,0,0-1.2-1,3.24,3.24,0,0,0-1.49-.35,2.36,2.36,0,0,0-2.11,1.07,6,6,0,0,0-.7,3.22,6.13,6.13,0,0,0,.68,3.19,2.15,2.15,0,0,0,2,1.09,2.7,2.7,0,0,0,.67-.07A1.15,1.15,0,0,0,191,160.67Z"/></g><g id="text_35" data-name="text 35"><path id="DejaVuSans-124-12" data-name="DejaVuSans-124" d="M185.12,138.06v9.16h-.76v-9.16Z"/></g><g id="text_36" data-name="text 36"><path id="DejaVuSans-53-3" data-name="DejaVuSans-53" d="M184.38,126.48h4.26v.91h-3.26v2a2.57,2.57,0,0,1,.94-.15,3,3,0,0,1,2.13.73,2.93,2.93,0,0,1,0,4,3.32,3.32,0,0,1-2.28.72,6.15,6.15,0,0,1-1-.09,8.29,8.29,0,0,1-1.08-.25v-1.09a4.93,4.93,0,0,0,1,.39,4.85,4.85,0,0,0,1.09.13,2.14,2.14,0,0,0,1.47-.49,1.72,1.72,0,0,0,.55-1.33,1.68,1.68,0,0,0-.55-1.32,2.09,2.09,0,0,0-1.47-.49,4.28,4.28,0,0,0-.87.09,5.73,5.73,0,0,0-.88.3Z"/><path id="DejaVuSans-50-8" data-name="DejaVuSans-50" d="M192.3,133.58h3.79v.91H191v-.91c.41-.42,1-1,1.68-1.71s1.16-1.18,1.34-1.39a5.08,5.08,0,0,0,.73-1,1.85,1.85,0,0,0,.2-.8,1.33,1.33,0,0,0-.45-1,1.64,1.64,0,0,0-1.16-.4,3.56,3.56,0,0,0-1.08.17,6.56,6.56,0,0,0-1.21.54v-1.1a9.43,9.43,0,0,1,1.22-.39,4.61,4.61,0,0,1,1-.14,2.94,2.94,0,0,1,2,.63,2,2,0,0,1,.74,1.66,2.5,2.5,0,0,1-.18.94,4.75,4.75,0,0,1-.68,1l-.85.9Z"/></g><g id="text_37" data-name="text 37"><path id="DejaVuSansMono-Bold-73-4" data-name="DejaVuSansMono-Bold-73" d="M205.61,152.57v-2.19h7.47v2.19h-2.49v8.18h2.49v2.19h-7.47v-2.19h2.49v-8.18Z"/><path id="DejaVuSansMono-Bold-82-6" data-name="DejaVuSansMono-Bold-82" d="M231.69,157a1.27,1.27,0,0,1,.64.35,4.44,4.44,0,0,1,.67,1.06l2.27,4.52h-2.72L231,159.77l-.17-.37c-.45-1-1-1.42-1.57-1.42h-.79v5H226V150.38h3.58a5.55,5.55,0,0,1,3.48.86,3.4,3.4,0,0,1,1,2.79,3.18,3.18,0,0,1-.63,2.07A2.66,2.66,0,0,1,231.69,157Zm-3.19-4.54v3.42h1.17a2.14,2.14,0,0,0,1.46-.4,1.69,1.69,0,0,0,.44-1.31,1.72,1.72,0,0,0-.44-1.32,2.18,2.18,0,0,0-1.46-.39Z"/><path id="DejaVuSansMono-Bold-75-4" data-name="DejaVuSansMono-Bold-75" d="M246.63,150.38h2.48v5l3.88-5h2.81l-4,5,4.1,7.61h-2.75l-3-5.65-1.1,1.39v4.26h-2.48Z"/><path id="DejaVuSansMono-Bold-73-5" data-name="DejaVuSansMono-Bold-73" d="M267.83,152.57v-2.19h7.48v2.19h-2.5v8.18h2.5v2.19h-7.48v-2.19h2.5v-8.18Z"/></g><g id="text_38" data-name="text 38"><path id="DejaVuSans-124-13" data-name="DejaVuSans-124" d="M205.57,138.06v9.16h-.76v-9.16Z"/></g><g id="text_39" data-name="text 39"><path id="DejaVuSans-53-4" data-name="DejaVuSans-53" d="M204.83,126.48h4.26v.91h-3.26v2a3.59,3.59,0,0,1,.47-.12,3.71,3.71,0,0,1,.47,0,3,3,0,0,1,2.13.73,2.93,2.93,0,0,1,0,4,3.32,3.32,0,0,1-2.28.72,6,6,0,0,1-1-.09,7.6,7.6,0,0,1-1.08-.25v-1.09a4.63,4.63,0,0,0,1,.39,4.85,4.85,0,0,0,1.09.13,2.14,2.14,0,0,0,1.47-.49,1.69,1.69,0,0,0,.55-1.33,1.65,1.65,0,0,0-.55-1.32,2.09,2.09,0,0,0-1.47-.49,4.12,4.12,0,0,0-.86.09,5.49,5.49,0,0,0-.89.3Z"/><path id="DejaVuSans-51-3" data-name="DejaVuSans-51" d="M215.1,130.17a2,2,0,0,1,1.22.7,2,2,0,0,1,.44,1.29,2.23,2.23,0,0,1-.82,1.84,3.66,3.66,0,0,1-2.32.65,5.46,5.46,0,0,1-1-.1,8.67,8.67,0,0,1-1.1-.3V133.2a3.61,3.61,0,0,0,1,.4,4.58,4.58,0,0,0,1.12.14,2.51,2.51,0,0,0,1.55-.41,1.35,1.35,0,0,0,.54-1.17,1.33,1.33,0,0,0-.5-1.1,2.12,2.12,0,0,0-1.38-.4h-.93v-.9h1a2,2,0,0,0,1.23-.32,1.08,1.08,0,0,0,.42-.92,1.11,1.11,0,0,0-.44-.94,2,2,0,0,0-1.25-.33,5.54,5.54,0,0,0-1,.09,11.22,11.22,0,0,0-1.12.3v-1a9.89,9.89,0,0,1,1.16-.26,6.22,6.22,0,0,1,1-.09,3.12,3.12,0,0,1,1.95.56,1.83,1.83,0,0,1,.72,1.52,1.75,1.75,0,0,1-.38,1.13A2.07,2.07,0,0,1,215.1,130.17Z"/></g><g id="text_40" data-name="text 40"><path id="DejaVuSansMono-Bold-71-2" data-name="DejaVuSansMono-Bold-71" d="M293.3,160.67v-2.4h-1.7v-2.08h3.87v5.75a5.18,5.18,0,0,1-1.58.93,5.36,5.36,0,0,1-1.85.31,4.52,4.52,0,0,1-3.77-1.69,7.7,7.7,0,0,1-1.32-4.82,7.56,7.56,0,0,1,1.34-4.84,4.64,4.64,0,0,1,3.87-1.67,5.42,5.42,0,0,1,1.49.21A5.29,5.29,0,0,1,295,151v2.75a3.45,3.45,0,0,0-1.2-1,3.2,3.2,0,0,0-1.48-.35,2.35,2.35,0,0,0-2.11,1.07,5.9,5.9,0,0,0-.7,3.22,6.14,6.14,0,0,0,.67,3.19,2.16,2.16,0,0,0,2,1.09,2.65,2.65,0,0,0,.67-.07A1.2,1.2,0,0,0,293.3,160.67Z"/><path id="DejaVuSansMono-Bold-71-3" data-name="DejaVuSansMono-Bold-71" d="M314,160.67v-2.4h-1.7v-2.08h3.87v5.75a5.06,5.06,0,0,1-1.58.93,5.32,5.32,0,0,1-1.85.31,4.49,4.49,0,0,1-3.76-1.69,9.4,9.4,0,0,1,0-9.66,4.66,4.66,0,0,1,3.87-1.67,5.36,5.36,0,0,1,1.49.21,5.14,5.14,0,0,1,1.37.62v2.75a3.45,3.45,0,0,0-1.2-1,3.2,3.2,0,0,0-1.48-.35,2.35,2.35,0,0,0-2.11,1.07,5.9,5.9,0,0,0-.7,3.22,6.14,6.14,0,0,0,.67,3.19,2.16,2.16,0,0,0,2,1.09,2.65,2.65,0,0,0,.67-.07A1.2,1.2,0,0,0,314,160.67Z"/></g><g id="text_41" data-name="text 41"><path id="DejaVuSans-124-14" data-name="DejaVuSans-124" d="M287.37,138.06v9.16h-.76v-9.16Z"/></g><g id="text_42" data-name="text 42"><path id="DejaVuSans-53-5" data-name="DejaVuSans-53" d="M286.64,126.48h4.25v.91h-3.26v2a4.05,4.05,0,0,1,.47-.12l.48,0a3,3,0,0,1,2.12.73,2.6,2.6,0,0,1,.79,2,2.55,2.55,0,0,1-.81,2,3.29,3.29,0,0,1-2.27.72,6.06,6.06,0,0,1-1-.09,7.6,7.6,0,0,1-1.08-.25v-1.09a4.51,4.51,0,0,0,1,.39,4.72,4.72,0,0,0,1.09.13,2.14,2.14,0,0,0,1.47-.49,1.71,1.71,0,0,0,.54-1.33,1.68,1.68,0,0,0-.54-1.32,2.09,2.09,0,0,0-1.47-.49,4.28,4.28,0,0,0-.87.09,5.39,5.39,0,0,0-.88.3Z"/><path id="DejaVuSans-55-2" data-name="DejaVuSans-55" d="M293.35,126.48h5.15v.46l-2.91,7.55h-1.13l2.74-7.1h-3.85Z"/></g><g id="text_43" data-name="text 43"><path id="DejaVuSansMono-Bold-73-6" data-name="DejaVuSansMono-Bold-73" d="M328.31,152.57v-2.19h7.48v2.19h-2.5v8.18h2.5v2.19h-7.48v-2.19h2.5v-8.18Z"/><path id="DejaVuSansMono-Bold-87-4" data-name="DejaVuSansMono-Bold-87" d="M347.61,150.38h2.16l.91,9.22,1.08-6h2.06l1.26,6,.71-9.22H358l-1.45,12.56h-2.31l-1.43-6.59-1.34,6.59h-2.3Z"/><path id="DejaVuSansMono-Bold-84-4" data-name="DejaVuSansMono-Bold-84" d="M374.77,162.94h-2.48V152.55H369.1v-2.17H378v2.17h-3.19Z"/><path id="DejaVuSansMono-Bold-87-5" data-name="DejaVuSansMono-Bold-87" d="M389.09,150.38h2.17l.9,9.22,1.08-6h2.06l1.27,6,.7-9.22h2.19L398,162.94H395.7l-1.43-6.59-1.34,6.59h-2.29Z"/></g><g id="text_44" data-name="text 44"><path id="DejaVuSans-124-15" data-name="DejaVuSans-124" d="M328.28,138.06v9.16h-.76v-9.16Z"/></g><g id="text_45" data-name="text 45"><path id="DejaVuSans-53-6" data-name="DejaVuSans-53" d="M327.54,126.48h4.26v.91h-3.27v2l.47-.12.48,0a3,3,0,0,1,2.12.73,2.9,2.9,0,0,1,0,4,3.29,3.29,0,0,1-2.27.72,6.06,6.06,0,0,1-1-.09,7.6,7.6,0,0,1-1.08-.25v-1.09a4.71,4.71,0,0,0,1,.39,4.79,4.79,0,0,0,1.09.13,2.14,2.14,0,0,0,1.47-.49,1.71,1.71,0,0,0,.54-1.33,1.68,1.68,0,0,0-.54-1.32,2.09,2.09,0,0,0-1.47-.49,4.28,4.28,0,0,0-.87.09,5.39,5.39,0,0,0-.88.3Z"/><path id="DejaVuSans-57-2" data-name="DejaVuSans-57" d="M334.56,134.33v-1a3.65,3.65,0,0,0,.82.29,3.43,3.43,0,0,0,.82.11,1.93,1.93,0,0,0,1.64-.73,3.82,3.82,0,0,0,.65-2.19,2.15,2.15,0,0,1-.79.71,2.33,2.33,0,0,1-1.06.25,2.5,2.5,0,0,1-1.9-.73,2.75,2.75,0,0,1-.7-2,2.7,2.7,0,0,1,.73-2,2.58,2.58,0,0,1,1.94-.75,2.43,2.43,0,0,1,2.13,1.07,5.43,5.43,0,0,1,.73,3.09,4.71,4.71,0,0,1-.9,3,2.93,2.93,0,0,1-2.42,1.13,4.76,4.76,0,0,1-.83-.08A6.63,6.63,0,0,1,334.56,134.33Zm2.15-3.4a1.45,1.45,0,0,0,1.16-.5,2.4,2.4,0,0,0,0-2.74,1.58,1.58,0,0,0-2.31,0,2.4,2.4,0,0,0,0,2.74A1.44,1.44,0,0,0,336.71,130.93Z"/></g><g id="text_46" data-name="text 46"><path id="DejaVuSansMono-Bold-86-2" data-name="DejaVuSansMono-Bold-86" d="M413.85,160.87l2.21-10.49h2.5l-3,12.56h-3.44l-3-12.56h2.49Z"/><path id="DejaVuSansMono-Bold-71-4" data-name="DejaVuSansMono-Bold-71" d="M436.74,160.67v-2.4h-1.69v-2.08h3.86v5.75a5,5,0,0,1-1.57.93,5.36,5.36,0,0,1-1.85.31,4.51,4.51,0,0,1-3.77-1.69,7.7,7.7,0,0,1-1.33-4.82,7.62,7.62,0,0,1,1.34-4.84,4.68,4.68,0,0,1,3.88-1.67,5.3,5.3,0,0,1,2.86.83v2.75a3.45,3.45,0,0,0-1.2-1,3.23,3.23,0,0,0-1.48-.35,2.37,2.37,0,0,0-2.12,1.07,6,6,0,0,0-.69,3.22,6.14,6.14,0,0,0,.67,3.19,2.16,2.16,0,0,0,2,1.09,2.65,2.65,0,0,0,.67-.07A1.15,1.15,0,0,0,436.74,160.67Z"/><path id="DejaVuSansMono-Bold-84-5" data-name="DejaVuSansMono-Bold-84" d="M456.58,162.94H454.1V152.55h-3.19v-2.17h8.85v2.17h-3.18Z"/><path id="DejaVuSansMono-Bold-78-4" data-name="DejaVuSansMono-Bold-78" d="M471.89,150.38h2.67l3.5,9.13v-9.13h2.19v12.56H477.6l-3.52-9.13v9.13h-2.19Z"/><path id="DejaVuSansMono-Bold-75-5" data-name="DejaVuSansMono-Bold-75" d="M492.62,150.38h2.48v5l3.88-5h2.81l-4,5,4.11,7.61h-2.76l-3-5.65-1.1,1.39v4.26h-2.48Z"/><path id="DejaVuSansMono-Bold-83-4" data-name="DejaVuSansMono-Bold-83" d="M516.67,157.43a6.45,6.45,0,0,1-2.55-1.5,3.2,3.2,0,0,1-.66-2.12,3.41,3.41,0,0,1,1.09-2.68,4.36,4.36,0,0,1,3-1,7.9,7.9,0,0,1,1.73.19,9.11,9.11,0,0,1,1.71.59v2.42a6.69,6.69,0,0,0-1.62-.86,4.72,4.72,0,0,0-1.63-.29,2.27,2.27,0,0,0-1.38.36,1.21,1.21,0,0,0-.48,1,1.18,1.18,0,0,0,.35.87,4.79,4.79,0,0,0,1.46.75l1.07.4a4.89,4.89,0,0,1,2.23,1.47,3.73,3.73,0,0,1,.71,2.32,3.5,3.5,0,0,1-1.12,2.84,5.23,5.23,0,0,1-3.39.93,8,8,0,0,1-1.88-.22,8.55,8.55,0,0,1-1.81-.66v-2.57a8.05,8.05,0,0,0,1.92,1.06,5.24,5.24,0,0,0,1.84.34,2.22,2.22,0,0,0,1.42-.41,1.43,1.43,0,0,0,.51-1.17,1.58,1.58,0,0,0-.34-1,2.34,2.34,0,0,0-1-.67Z"/><path id="DejaVuSansMono-Bold-76-4" data-name="DejaVuSansMono-Bold-76" d="M535,162.94V150.38h2.48v10.37h5.31v2.19Z"/><path id="DejaVuSansMono-Bold-84-6" data-name="DejaVuSansMono-Bold-84" d="M560.29,162.94H557.8V152.55h-3.19v-2.17h8.86v2.17h-3.18Z"/><path id="DejaVuSansMono-Bold-69-5" data-name="DejaVuSansMono-Bold-69" d="M583.83,162.94H576V150.38h7.82v2.19h-5.34v2.71h4.84v2.19h-4.84v3.28h5.34Z"/><path id="DejaVuSansMono-Bold-69-6" data-name="DejaVuSansMono-Bold-69" d="M604.58,162.94h-7.83V150.38h7.83v2.19h-5.34v2.71h4.83v2.19h-4.83v3.28h5.34Z"/><path id="DejaVuSansMono-Bold-65-4" data-name="DejaVuSansMono-Bold-65" d="M621.26,152.65l-1.16,5.14h2.34Zm-1.51-2.27h3l3.39,12.56h-2.49l-.77-3.1H619.6l-.76,3.1h-2.48Z"/><path id="DejaVuSansMono-Bold-69-7" data-name="DejaVuSansMono-Bold-69" d="M646.06,162.94h-7.82V150.38h7.82v2.19h-5.34v2.71h4.84v2.19h-4.84v3.28h5.34Z"/><path id="DejaVuSansMono-Bold-78-5" data-name="DejaVuSansMono-Bold-78" d="M658.57,150.38h2.66l3.5,9.13v-9.13h2.19v12.56h-2.65l-3.52-9.13v9.13h-2.18Z"/><path id="DejaVuSansMono-Bold-87-6" data-name="DejaVuSansMono-Bold-87" d="M678.31,150.38h2.17l.9,9.22,1.08-6h2.06l1.26,6,.71-9.22h2.19l-1.45,12.56h-2.31l-1.43-6.59-1.34,6.59h-2.3Z"/><path id="DejaVuSansMono-Bold-71-5" data-name="DejaVuSansMono-Bold-71" d="M706.38,160.67v-2.4h-1.7v-2.08h3.87v5.75a5,5,0,0,1-1.57.93,5.36,5.36,0,0,1-1.85.31,4.51,4.51,0,0,1-3.77-1.69,7.7,7.7,0,0,1-1.33-4.82,7.62,7.62,0,0,1,1.34-4.84,4.68,4.68,0,0,1,3.88-1.67,5.3,5.3,0,0,1,2.86.83v2.75a3.45,3.45,0,0,0-1.2-1,3.24,3.24,0,0,0-1.49-.35,2.36,2.36,0,0,0-2.11,1.07,6,6,0,0,0-.7,3.22,6.13,6.13,0,0,0,.68,3.19,2.16,2.16,0,0,0,2,1.09,2.65,2.65,0,0,0,.67-.07A1.15,1.15,0,0,0,706.38,160.67Z"/><path id="DejaVuSansMono-Bold-68-3" data-name="DejaVuSansMono-Bold-68" d="M723.42,152.62v8.08h.68a2.31,2.31,0,0,0,2.08-.92,5.79,5.79,0,0,0,.62-3.13,5.71,5.71,0,0,0-.62-3.11,2.33,2.33,0,0,0-2.08-.92Zm-2.48-2.24h2.66c2,0,3.53.49,4.43,1.47s1.36,2.58,1.36,4.8-.45,3.83-1.36,4.82-2.38,1.47-4.43,1.47h-2.66Z"/><path id="DejaVuSansMono-Bold-71-6" data-name="DejaVuSansMono-Bold-71" d="M747.87,160.67v-2.4h-1.7v-2.08H750v5.75a5.18,5.18,0,0,1-1.58.93,5.36,5.36,0,0,1-1.85.31,4.52,4.52,0,0,1-3.77-1.69,7.7,7.7,0,0,1-1.32-4.82,7.56,7.56,0,0,1,1.34-4.84,4.64,4.64,0,0,1,3.87-1.67,5.42,5.42,0,0,1,1.49.21,5.29,5.29,0,0,1,1.37.62v2.75a3.45,3.45,0,0,0-1.2-1,3.2,3.2,0,0,0-1.48-.35,2.35,2.35,0,0,0-2.11,1.07,5.9,5.9,0,0,0-.7,3.22,6.14,6.14,0,0,0,.67,3.19,2.16,2.16,0,0,0,2,1.09,2.65,2.65,0,0,0,.67-.07A1.2,1.2,0,0,0,747.87,160.67Z"/><path id="DejaVuSansMono-Bold-69-8" data-name="DejaVuSansMono-Bold-69" d="M770.51,162.94h-7.82V150.38h7.82v2.19h-5.34v2.71H770v2.19h-4.83v3.28h5.34Z"/><path id="DejaVuSansMono-Bold-80-3" data-name="DejaVuSansMono-Bold-80" d="M785.86,152.47v3.68h1a2.75,2.75,0,0,0,1.71-.41,2.33,2.33,0,0,0,0-2.86,2.75,2.75,0,0,0-1.71-.41Zm-2.48-2.09h3.4a5.93,5.93,0,0,1,3.74.93,4.52,4.52,0,0,1,0,6,5.93,5.93,0,0,1-3.74.93h-.92v4.7h-2.48Z"/><path id="DejaVuSansMono-Bold-78-6" data-name="DejaVuSansMono-Bold-78" d="M803.76,150.38h2.66l3.5,9.13v-9.13h2.19v12.56h-2.65l-3.52-9.13v9.13h-2.18Z"/><path id="DejaVuSansMono-Bold-78-7" data-name="DejaVuSansMono-Bold-78" d="M824.5,150.38h2.67l3.5,9.13v-9.13h2.18v12.56H830.2l-3.52-9.13v9.13H824.5Z"/></g><g id="text_47" data-name="text 47"><path id="DejaVuSans-124-16" data-name="DejaVuSans-124" d="M410.08,138.06v9.16h-.76v-9.16Z"/></g><g id="text_48" data-name="text 48"><path id="DejaVuSans-54" d="M411.79,130.05a1.45,1.45,0,0,0-1.16.5,2.4,2.4,0,0,0,0,2.74,1.58,1.58,0,0,0,2.31,0,2.4,2.4,0,0,0,0-2.74A1.44,1.44,0,0,0,411.79,130.05Zm2.15-3.4v1a4.31,4.31,0,0,0-.83-.29,3.29,3.29,0,0,0-.82-.1,2,2,0,0,0-1.64.72,3.9,3.9,0,0,0-.65,2.19,2.21,2.21,0,0,1,.8-.72,2.31,2.31,0,0,1,1.05-.24,2.51,2.51,0,0,1,1.91.73,2.75,2.75,0,0,1,.7,2,2.67,2.67,0,0,1-.73,2,2.6,2.6,0,0,1-1.94.75,2.43,2.43,0,0,1-2.13-1.07,5.42,5.42,0,0,1-.74-3.09,4.7,4.7,0,0,1,.91-3,2.93,2.93,0,0,1,2.42-1.13,4.65,4.65,0,0,1,.82.08A8.17,8.17,0,0,1,413.94,126.65Z"/><path id="DejaVuSans-51-4" data-name="DejaVuSans-51" d="M419.61,130.17a2,2,0,0,1,1.22.7,2,2,0,0,1,.44,1.29,2.23,2.23,0,0,1-.82,1.84,3.66,3.66,0,0,1-2.32.65,5.46,5.46,0,0,1-1-.1,8.67,8.67,0,0,1-1.1-.3V133.2a3.61,3.61,0,0,0,1,.4,4.52,4.52,0,0,0,1.12.14,2.51,2.51,0,0,0,1.55-.41,1.35,1.35,0,0,0,.54-1.17,1.33,1.33,0,0,0-.5-1.1,2.12,2.12,0,0,0-1.38-.4h-.94v-.9h1a2,2,0,0,0,1.23-.32,1.08,1.08,0,0,0,.42-.92,1.11,1.11,0,0,0-.44-.94,2,2,0,0,0-1.25-.33,5.54,5.54,0,0,0-1,.09,11.22,11.22,0,0,0-1.12.3v-1a9.89,9.89,0,0,1,1.16-.26,6.22,6.22,0,0,1,1-.09,3.12,3.12,0,0,1,1.95.56,1.83,1.83,0,0,1,.72,1.52,1.75,1.75,0,0,1-.38,1.13A2.07,2.07,0,0,1,419.61,130.17Z"/></g><g id="text_49" data-name="text 49"><path id="DejaVuSansMono-Bold-75-6" data-name="DejaVuSansMono-Bold-75" d="M839.12,150.38h2.48v5l3.89-5h2.81l-4,5,4.1,7.61h-2.76l-3-5.65-1.11,1.39v4.26h-2.48Z"/><path id="DejaVuSansMono-Bold-75-7" data-name="DejaVuSansMono-Bold-75" d="M859.86,150.38h2.49v5l3.88-5H869l-4,5,4.1,7.61h-2.76l-3-5.65-1.1,1.39v4.26h-2.49Z"/><path id="DejaVuSansMono-Bold-78-8" data-name="DejaVuSansMono-Bold-78" d="M880.62,150.38h2.67l3.5,9.13v-9.13H889v12.56h-2.64l-3.52-9.13v9.13h-2.19Z"/></g><g id="text_50" data-name="text 50"><path id="DejaVuSans-124-17" data-name="DejaVuSans-124" d="M839.55,138.06v9.16h-.76v-9.16Z"/></g><g id="text_51" data-name="text 51"><path id="DejaVuSans-56" d="M841.12,130.69a1.72,1.72,0,0,0-1.22.41,1.7,1.7,0,0,0,0,2.28,1.76,1.76,0,0,0,1.22.41,1.71,1.71,0,0,0,1.22-.42,1.45,1.45,0,0,0,.45-1.13,1.48,1.48,0,0,0-.45-1.14A1.69,1.69,0,0,0,841.12,130.69Zm-1.08-.46a2,2,0,0,1-1.09-.65,1.8,1.8,0,0,1-.39-1.17,1.87,1.87,0,0,1,.68-1.52,2.92,2.92,0,0,1,1.88-.56,2.89,2.89,0,0,1,1.88.56,1.87,1.87,0,0,1,.68,1.52,1.8,1.8,0,0,1-.39,1.17,2,2,0,0,1-1.08.65,2.17,2.17,0,0,1,1.22.71,2,2,0,0,1,.44,1.3,2.27,2.27,0,0,1-.71,1.79,3.67,3.67,0,0,1-4.08,0,2.27,2.27,0,0,1-.71-1.79,2,2,0,0,1,.44-1.3A2.19,2.19,0,0,1,840,130.23Zm-.4-1.72a1.22,1.22,0,0,0,.39,1,1.87,1.87,0,0,0,2.18,0,1.2,1.2,0,0,0,.4-1,1.21,1.21,0,0,0-.4-1,1.87,1.87,0,0,0-2.18,0A1.24,1.24,0,0,0,839.64,128.51Z"/><path id="DejaVuSans-52-3" data-name="DejaVuSans-52" d="M848.78,127.42,846,131.7h2.74Zm-.29-.94h1.37v5.22H851v.9h-1.14v1.89h-1.08V132.6h-3.62v-1Z"/></g><g id="text_52" data-name="text 52"><path id="DejaVuSansMono-Bold-75-8" data-name="DejaVuSansMono-Bold-75" d="M900.48,150.38H903v5l3.88-5h2.81l-4,5,4.1,7.61H907l-3-5.65-1.1,1.39v4.26h-2.48Z"/><path id="DejaVuSansMono-Bold-69-9" data-name="DejaVuSansMono-Bold-69" d="M929.47,162.94h-7.82V150.38h7.82v2.19h-5.34v2.71H929v2.19h-4.83v3.28h5.34Z"/><path id="DejaVuSansMono-Bold-68-4" data-name="DejaVuSansMono-Bold-68" d="M944.61,152.62v8.08h.67a2.33,2.33,0,0,0,2.09-.92,5.88,5.88,0,0,0,.62-3.13,5.8,5.8,0,0,0-.62-3.11,2.35,2.35,0,0,0-2.09-.92Zm-2.48-2.24h2.65c2.06,0,3.53.49,4.44,1.47s1.35,2.58,1.35,4.8-.45,3.83-1.35,4.82-2.38,1.47-4.44,1.47h-2.65Z"/></g><g id="text_53" data-name="text 53"><path id="DejaVuSans-124-18" data-name="DejaVuSans-124" d="M900.9,138.06v9.16h-.76v-9.16Z"/></g><g id="text_54" data-name="text 54"><path id="DejaVuSans-56-2" data-name="DejaVuSans-56" d="M902.47,130.69a1.68,1.68,0,0,0-1.21.41,1.7,1.7,0,0,0,0,2.28,1.72,1.72,0,0,0,1.21.41,1.69,1.69,0,0,0,1.22-.42,1.45,1.45,0,0,0,.45-1.13,1.51,1.51,0,0,0-.44-1.14A1.73,1.73,0,0,0,902.47,130.69Zm-1.08-.46a2,2,0,0,1-1.09-.65,1.8,1.8,0,0,1-.39-1.17,1.85,1.85,0,0,1,.69-1.52,3.42,3.42,0,0,1,3.75,0,1.85,1.85,0,0,1,.69,1.52,1.8,1.8,0,0,1-.39,1.17,2,2,0,0,1-1.09.65,2.13,2.13,0,0,1,1.22.71,1.93,1.93,0,0,1,.44,1.3,2.24,2.24,0,0,1-.71,1.79,3.65,3.65,0,0,1-4.07,0,2.24,2.24,0,0,1-.72-1.79,2,2,0,0,1,.44-1.3A2.23,2.23,0,0,1,901.39,130.23Zm-.4-1.72a1.22,1.22,0,0,0,.39,1,1.55,1.55,0,0,0,1.09.35,1.58,1.58,0,0,0,1.1-.35,1.22,1.22,0,0,0,.39-1,1.24,1.24,0,0,0-.39-1,1.63,1.63,0,0,0-1.1-.35,1.6,1.6,0,0,0-1.09.35A1.24,1.24,0,0,0,901,128.51Z"/><path id="DejaVuSans-55-3" data-name="DejaVuSans-55" d="M906.88,126.48H912v.46l-2.91,7.55H908l2.74-7.1h-3.85Z"/></g><g id="text_55" data-name="text 55"><path id="DejaVuSansMono-Bold-67-2" data-name="DejaVuSansMono-Bold-67" d="M969.94,162.58a5.58,5.58,0,0,1-1.24.45,6,6,0,0,1-1.36.15,4.65,4.65,0,0,1-3.88-1.67,9.41,9.41,0,0,1,0-9.68,4.65,4.65,0,0,1,3.88-1.67,6.19,6.19,0,0,1,1.37.15,5.17,5.17,0,0,1,1.23.45v2.76a4.76,4.76,0,0,0-1.25-.86,3,3,0,0,0-1.24-.28,2.27,2.27,0,0,0-2.05,1.09,7.66,7.66,0,0,0,0,6.4,2.28,2.28,0,0,0,2.05,1.08,3,3,0,0,0,1.24-.27,4.76,4.76,0,0,0,1.25-.86Z"/><path id="DejaVuSansMono-Bold-86-3" data-name="DejaVuSansMono-Bold-86" d="M986.77,160.87,989,150.38h2.5l-3,12.56h-3.44l-3-12.56h2.5Z"/><path id="DejaVuSansMono-Bold-69-10" data-name="DejaVuSansMono-Bold-69" d="M1011.56,162.94h-7.82V150.38h7.82v2.19h-5.34v2.71h4.84v2.19h-4.84v3.28h5.34Z"/><path id="DejaVuSansMono-Bold-73-7" data-name="DejaVuSansMono-Bold-73" d="M1024.52,152.57v-2.19H1032v2.19h-2.49v8.18H1032v2.19h-7.47v-2.19H1027v-8.18Z"/></g><g id="text_56" data-name="text 56"><path id="DejaVuSans-124-19" data-name="DejaVuSans-124" d="M962.26,138.06v9.16h-.76v-9.16Z"/></g><g id="text_57" data-name="text 57"><path id="DejaVuSans-57-3" data-name="DejaVuSans-57" d="M961.54,134.33v-1a3.73,3.73,0,0,0,.83.29,3.36,3.36,0,0,0,.82.11,1.94,1.94,0,0,0,1.64-.73,3.9,3.9,0,0,0,.65-2.19,2.15,2.15,0,0,1-.79.71,2.36,2.36,0,0,1-1.06.25,2.49,2.49,0,0,1-1.9-.73,3.1,3.1,0,0,1,0-4,2.61,2.61,0,0,1,2-.75,2.41,2.41,0,0,1,2.12,1.07,5.43,5.43,0,0,1,.73,3.09,4.71,4.71,0,0,1-.9,3,2.91,2.91,0,0,1-2.41,1.13,4.67,4.67,0,0,1-.83-.08A6.33,6.33,0,0,1,961.54,134.33Zm2.16-3.4a1.44,1.44,0,0,0,1.15-.5,2.4,2.4,0,0,0,0-2.74,1.44,1.44,0,0,0-1.15-.5,1.46,1.46,0,0,0-1.16.5,2.44,2.44,0,0,0,0,2.74A1.46,1.46,0,0,0,963.7,130.93Z"/><path id="DejaVuSans-48" d="M970.82,127.19a1.35,1.35,0,0,0-1.26.83,7.5,7.5,0,0,0,0,4.95,1.39,1.39,0,0,0,2.53,0,7.5,7.5,0,0,0,0-4.95A1.36,1.36,0,0,0,970.82,127.19Zm0-.86a2.32,2.32,0,0,1,2.06,1.07,7.08,7.08,0,0,1,0,6.18,2.52,2.52,0,0,1-4.12,0,7.08,7.08,0,0,1,0-6.18A2.33,2.33,0,0,1,970.82,126.33Z"/></g><g id="text_58" data-name="text 58"><path id="DejaVuSansMono-Bold-89-7" data-name="DejaVuSansMono-Bold-89" d="M1042.71,150.38h2.68l2.44,5.05,2.45-5.05H1053l-3.88,7.61v4.95h-2.48V158Z"/><path id="DejaVuSansMono-Bold-73-8" data-name="DejaVuSansMono-Bold-73" d="M1064.84,152.57v-2.19h7.47v2.19h-2.49v8.18h2.49v2.19h-7.47v-2.19h2.49v-8.18Z"/><path id="DejaVuSansMono-Bold-75-9" data-name="DejaVuSansMono-Bold-75" d="M1085.12,150.38h2.48v5l3.88-5h2.81l-4,5,4.1,7.61h-2.76l-3-5.65-1.1,1.39v4.26h-2.48Z"/><path id="DejaVuSansMono-Bold-82-7" data-name="DejaVuSansMono-Bold-82" d="M1111.66,157a1.23,1.23,0,0,1,.64.35,4.14,4.14,0,0,1,.67,1.06l2.27,4.52h-2.72l-1.52-3.17-.17-.37c-.45-1-1-1.42-1.57-1.42h-.79v5H1106V150.38h3.58a5.55,5.55,0,0,1,3.48.86,3.4,3.4,0,0,1,1.06,2.79,3.18,3.18,0,0,1-.63,2.07A2.69,2.69,0,0,1,1111.66,157Zm-3.19-4.54v3.42h1.17a2.12,2.12,0,0,0,1.46-.4,2.19,2.19,0,0,0,0-2.63,2.18,2.18,0,0,0-1.46-.39Z"/><path id="DejaVuSansMono-Bold-78-9" data-name="DejaVuSansMono-Bold-78" d="M1126.61,150.38h2.67l3.5,9.13v-9.13H1135v12.56h-2.65l-3.52-9.13v9.13h-2.19Z"/><path id="DejaVuSansMono-Bold-75-10" data-name="DejaVuSansMono-Bold-75" d="M1147.34,150.38h2.48v5l3.89-5h2.81l-4,5,4.11,7.61h-2.76l-3-5.65-1.1,1.39v4.26h-2.48Z"/><path id="DejaVuSansMono-Bold-68-5" data-name="DejaVuSansMono-Bold-68" d="M1170.73,152.62v8.08h.67a2.33,2.33,0,0,0,2.09-.92,5.88,5.88,0,0,0,.62-3.13,5.8,5.8,0,0,0-.62-3.11,2.35,2.35,0,0,0-2.09-.92Zm-2.48-2.24h2.66c2,0,3.53.49,4.43,1.47s1.35,2.58,1.35,4.8-.45,3.83-1.35,4.82-2.38,1.47-4.43,1.47h-2.66Z"/></g><g id="text_59" data-name="text 59"><path id="DejaVuSans-124-20" data-name="DejaVuSans-124" d="M1044.06,138.06v9.16h-.76v-9.16Z"/></g><g id="text_60" data-name="text 60"><path id="DejaVuSans-57-4" data-name="DejaVuSans-57" d="M1043.34,134.33v-1a3.91,3.91,0,0,0,.83.29,3.36,3.36,0,0,0,.82.11,1.93,1.93,0,0,0,1.64-.73,3.82,3.82,0,0,0,.65-2.19,2.15,2.15,0,0,1-.79.71,2.33,2.33,0,0,1-1.06.25,2.5,2.5,0,0,1-1.9-.73,2.75,2.75,0,0,1-.7-2,2.7,2.7,0,0,1,.73-2,2.58,2.58,0,0,1,1.94-.75,2.43,2.43,0,0,1,2.13,1.07,5.51,5.51,0,0,1,.73,3.09,4.71,4.71,0,0,1-.9,3,3,3,0,0,1-2.42,1.13,4.76,4.76,0,0,1-.83-.08A6.75,6.75,0,0,1,1043.34,134.33Zm2.16-3.4a1.46,1.46,0,0,0,1.16-.5,2.4,2.4,0,0,0,0-2.74,1.46,1.46,0,0,0-1.16-.5,1.43,1.43,0,0,0-1.15.5,2.4,2.4,0,0,0,0,2.74A1.43,1.43,0,0,0,1045.5,130.93Z"/><path id="DejaVuSans-52-4" data-name="DejaVuSans-52" d="M1053.29,127.42l-2.74,4.28h2.74Zm-.29-.94h1.37v5.22h1.14v.9h-1.14v1.89h-1.08V132.6h-3.62v-1Z"/></g><g id="text_61" data-name="text 61"><path id="DejaVuSansMono-Bold-65-5" data-name="DejaVuSansMono-Bold-65" d="M168.44,233.93l-1.17,5.14h2.35Zm-1.52-2.27h3l3.39,12.56h-2.48l-.77-3.11h-3.33l-.76,3.11h-2.48Z"/><path id="DejaVuSansMono-Bold-71-7" data-name="DejaVuSansMono-Bold-71" d="M191.33,241.94v-2.39h-1.7v-2.09h3.87v5.75a5.17,5.17,0,0,1-1.58.94,5.31,5.31,0,0,1-1.84.31,4.51,4.51,0,0,1-3.77-1.69,9.4,9.4,0,0,1,0-9.66,4.68,4.68,0,0,1,3.88-1.68,5,5,0,0,1,1.48.22,5.33,5.33,0,0,1,1.38.61V235a3.68,3.68,0,0,0-1.2-1,3.23,3.23,0,0,0-1.49-.34,2.36,2.36,0,0,0-2.11,1.07,6,6,0,0,0-.7,3.22,6.13,6.13,0,0,0,.68,3.19,2.16,2.16,0,0,0,2,1.09,2.7,2.7,0,0,0,.67-.07A1.16,1.16,0,0,0,191.33,241.94Z"/><path id="DejaVuSansMono-Bold-75-11" data-name="DejaVuSansMono-Bold-75" d="M205.72,231.66h2.49v5l3.88-5h2.81l-4,4.94,4.1,7.62h-2.76l-3-5.66-1.1,1.4v4.26h-2.49Z"/></g><g id="text_62" data-name="text 62"><path id="DejaVuSans-124-21" data-name="DejaVuSans-124" d="M164.67,219.33v9.17h-.76v-9.17Z"/></g><g id="text_63" data-name="text 63"><path id="DejaVuSans-49-6" data-name="DejaVuSans-49" d="M164.11,214.86h1.77v-6.12l-1.93.39v-1l1.92-.39H167v7.11h1.78v.91h-4.62Z"/><path id="DejaVuSans-48-2" data-name="DejaVuSans-48" d="M173.23,208.47a1.34,1.34,0,0,0-1.25.82,7.34,7.34,0,0,0,0,5,1.37,1.37,0,0,0,2.52,0,7.5,7.5,0,0,0,0-5A1.35,1.35,0,0,0,173.23,208.47Zm0-.86a2.3,2.3,0,0,1,2.06,1.07,7,7,0,0,1,0,6.18,2.51,2.51,0,0,1-4.11,0,7.08,7.08,0,0,1,0-6.18A2.3,2.3,0,0,1,173.23,207.61Z"/><path id="DejaVuSans-49-7" data-name="DejaVuSans-49" d="M178.1,214.86h1.77v-6.12l-1.93.39v-1l1.92-.39h1.08v7.11h1.78v.91H178.1Z"/></g><g id="text_64" data-name="text 64"><path id="DejaVuSansMono-Bold-87-7" data-name="DejaVuSansMono-Bold-87" d="M224.61,231.66h2.17l.9,9.22,1.08-6h2.06l1.27,6,.7-9.22H235l-1.45,12.56h-2.31l-1.43-6.6-1.34,6.6h-2.29Z"/><path id="DejaVuSansMono-Bold-78-10" data-name="DejaVuSansMono-Bold-78" d="M246.35,231.66H249l3.5,9.12v-9.12h2.18v12.56h-2.65l-3.51-9.13v9.13h-2.19Z"/><path id="DejaVuSansMono-Bold-68-6" data-name="DejaVuSansMono-Bold-68" d="M269.73,233.9V242h.67a2.33,2.33,0,0,0,2.08-.92,5.81,5.81,0,0,0,.63-3.14,5.72,5.72,0,0,0-.63-3.11,2.33,2.33,0,0,0-2.08-.91Zm-2.49-2.24h2.66c2.05,0,3.53.49,4.43,1.47s1.36,2.57,1.36,4.79-.45,3.84-1.36,4.82-2.38,1.48-4.43,1.48h-2.66Z"/><path id="DejaVuSansMono-Bold-68-7" data-name="DejaVuSansMono-Bold-68" d="M290.47,233.9V242h.67a2.35,2.35,0,0,0,2.09-.92,5.92,5.92,0,0,0,.62-3.14,5.82,5.82,0,0,0-.62-3.11,2.34,2.34,0,0,0-2.09-.91ZM288,231.66h2.65c2.06,0,3.53.49,4.43,1.47s1.36,2.57,1.36,4.79-.45,3.84-1.36,4.82-2.37,1.48-4.43,1.48H288Z"/></g><g id="text_65" data-name="text 65"><path id="DejaVuSans-124-22" data-name="DejaVuSans-124" d="M226,219.33v9.17h-.76v-9.17Z"/></g><g id="text_66" data-name="text 66"><path id="DejaVuSans-49-8" data-name="DejaVuSans-49" d="M225.46,214.86h1.77v-6.12l-1.92.39v-1l1.91-.39h1.09v7.11h1.77v.91h-4.62Z"/><path id="DejaVuSans-48-3" data-name="DejaVuSans-48" d="M234.59,208.47a1.34,1.34,0,0,0-1.26.82,7.5,7.5,0,0,0,0,5,1.37,1.37,0,0,0,2.52,0,7.5,7.5,0,0,0,0-5A1.34,1.34,0,0,0,234.59,208.47Zm0-.86a2.31,2.31,0,0,1,2.06,1.07,7.08,7.08,0,0,1,0,6.18,2.52,2.52,0,0,1-4.12,0,7.08,7.08,0,0,1,0-6.18A2.3,2.3,0,0,1,234.59,207.61Z"/><path id="DejaVuSans-52-5" data-name="DejaVuSans-52" d="M242.24,208.7,239.51,213h2.73Zm-.28-.95h1.36V213h1.15v.9h-1.15v1.89h-1.08v-1.89h-3.61v-1Z"/></g><g id="text_67" data-name="text 67"><path id="DejaVuSansMono-Bold-65-6" data-name="DejaVuSansMono-Bold-65" d="M311.59,233.93l-1.16,5.14h2.34Zm-1.51-2.27h3l3.39,12.56H314l-.77-3.11h-3.32l-.76,3.11h-2.48Z"/><path id="DejaVuSansMono-Bold-67-3" data-name="DejaVuSansMono-Bold-67" d="M336.25,243.86a5.58,5.58,0,0,1-1.24.45,6,6,0,0,1-1.36.15,4.68,4.68,0,0,1-3.88-1.67,9.41,9.41,0,0,1,0-9.68,4.66,4.66,0,0,1,3.88-1.68,6.19,6.19,0,0,1,1.37.15,4.66,4.66,0,0,1,1.23.46v2.76a5,5,0,0,0-1.24-.87,3,3,0,0,0-1.25-.27,2.28,2.28,0,0,0-2.05,1.08,7.69,7.69,0,0,0,0,6.41,2.28,2.28,0,0,0,2.05,1.08A3,3,0,0,0,335,242a5.16,5.16,0,0,0,1.24-.86Z"/><path id="DejaVuSansMono-Bold-72-2" data-name="DejaVuSansMono-Bold-72" d="M349.05,231.66h2.48v4.78h3.1v-4.78h2.48v12.56h-2.48v-5.59h-3.1v5.59h-2.48Z"/><path id="DejaVuSansMono-Bold-75-12" data-name="DejaVuSansMono-Bold-75" d="M369.62,231.66h2.48v5l3.89-5h2.81l-4,4.94,4.1,7.62h-2.76l-3-5.66-1.1,1.4v4.26h-2.48Z"/><path id="DejaVuSansMono-Bold-76-5" data-name="DejaVuSansMono-Bold-76" d="M391.27,244.22V231.66h2.48V242h5.31v2.19Z"/></g><g id="text_68" data-name="text 68"><path id="DejaVuSans-124-23" data-name="DejaVuSans-124" d="M307.83,219.33v9.17h-.76v-9.17Z"/></g><g id="text_69" data-name="text 69"><path id="DejaVuSans-49-9" data-name="DejaVuSans-49" d="M307.27,214.86H309v-6.12l-1.93.39v-1l1.92-.39h1.08v7.11h1.77v.91h-4.61Z"/><path id="DejaVuSans-48-4" data-name="DejaVuSans-48" d="M316.39,208.47a1.34,1.34,0,0,0-1.26.82,7.5,7.5,0,0,0,0,5,1.38,1.38,0,0,0,2.53,0,7.5,7.5,0,0,0,0-5A1.35,1.35,0,0,0,316.39,208.47Zm0-.86a2.3,2.3,0,0,1,2.06,1.07,7.08,7.08,0,0,1,0,6.18,2.52,2.52,0,0,1-4.12,0,7.08,7.08,0,0,1,0-6.18A2.31,2.31,0,0,1,316.39,207.61Z"/><path id="DejaVuSans-56-3" data-name="DejaVuSans-56" d="M323.39,212a1.71,1.71,0,0,0-1.22.42,1.68,1.68,0,0,0,0,2.27,1.71,1.71,0,0,0,1.22.42,1.68,1.68,0,0,0,1.21-.42,1.67,1.67,0,0,0,0-2.27A1.71,1.71,0,0,0,323.39,212Zm-1.09-.46a1.92,1.92,0,0,1-1.08-.65,1.79,1.79,0,0,1-.39-1.16,1.84,1.84,0,0,1,.68-1.52,3.44,3.44,0,0,1,3.76,0,1.87,1.87,0,0,1,.68,1.52,1.79,1.79,0,0,1-.39,1.16,1.92,1.92,0,0,1-1.08.65,2.12,2.12,0,0,1,1.22.72,2,2,0,0,1,.44,1.29,2.23,2.23,0,0,1-.72,1.79,3.6,3.6,0,0,1-4.07,0,2.22,2.22,0,0,1-.71-1.79,1.91,1.91,0,0,1,.44-1.29A2.12,2.12,0,0,1,322.3,211.5Zm-.39-1.71a1.26,1.26,0,0,0,.38,1,1.89,1.89,0,0,0,2.19,0,1.24,1.24,0,0,0,.39-1,1.22,1.22,0,0,0-.39-1,1.89,1.89,0,0,0-2.19,0A1.25,1.25,0,0,0,321.91,209.79Z"/></g><g id="text_70" data-name="text 70"><path id="DejaVuSansMono-Bold-75-13" data-name="DejaVuSansMono-Bold-75" d="M409.65,231.66h2.48v5l3.89-5h2.81l-4,4.94,4.1,7.62h-2.76l-3-5.66-1.11,1.4v4.26h-2.48Z"/><path id="DejaVuSansMono-Bold-65-7" data-name="DejaVuSansMono-Bold-65" d="M434.59,233.93l-1.17,5.14h2.35Zm-1.51-2.27h3l3.39,12.56H437l-.77-3.11h-3.33l-.75,3.11h-2.48Z"/><path id="DejaVuSansMono-Bold-65-8" data-name="DejaVuSansMono-Bold-65" d="M455.33,233.93l-1.17,5.14h2.35Zm-1.51-2.27h3l3.38,12.56h-2.48l-.77-3.11h-3.32l-.76,3.11h-2.48Z"/><path id="DejaVuSansMono-Bold-76-6" data-name="DejaVuSansMono-Bold-76" d="M472.78,244.22V231.66h2.49V242h5.3v2.19Z"/><path id="DejaVuSansMono-Bold-67-4" data-name="DejaVuSansMono-Bold-67" d="M500.73,243.86a5.58,5.58,0,0,1-1.24.45,6,6,0,0,1-1.36.15,4.68,4.68,0,0,1-3.88-1.67,9.41,9.41,0,0,1,0-9.68,4.66,4.66,0,0,1,3.88-1.68,6.19,6.19,0,0,1,1.37.15,4.66,4.66,0,0,1,1.23.46v2.76a4.81,4.81,0,0,0-1.25-.87,3,3,0,0,0-1.24-.27,2.28,2.28,0,0,0-2.05,1.08,7.69,7.69,0,0,0,0,6.41,2.28,2.28,0,0,0,2.05,1.08,3,3,0,0,0,1.24-.27,5,5,0,0,0,1.25-.86Z"/><path id="DejaVuSansMono-Bold-89-8" data-name="DejaVuSansMono-Bold-89" d="M512.44,231.66h2.68l2.44,5,2.44-5h2.68l-3.88,7.61v4.95h-2.48v-4.95Z"/><path id="DejaVuSansMono-Bold-84-7" data-name="DejaVuSansMono-Bold-84" d="M539.54,244.22h-2.48V233.83h-3.19v-2.17h8.86v2.17h-3.19Z"/></g><g id="text_71" data-name="text 71"><path id="DejaVuSans-124-24" data-name="DejaVuSans-124" d="M410.08,219.33v9.17h-.76v-9.17Z"/></g><g id="text_72" data-name="text 72"><path id="DejaVuSans-49-10" data-name="DejaVuSans-49" d="M409.52,214.86h1.77v-6.12l-1.93.39v-1l1.92-.39h1.09v7.11h1.77v.91h-4.62Z"/><path id="DejaVuSans-49-11" data-name="DejaVuSans-49" d="M416.52,214.86h1.77v-6.12l-1.93.39v-1l1.92-.39h1.08v7.11h1.77v.91h-4.61Z"/><path id="DejaVuSans-51-5" data-name="DejaVuSans-51" d="M426.61,211.45a2.06,2.06,0,0,1,1.21.69,1.92,1.92,0,0,1,.44,1.3,2.24,2.24,0,0,1-.81,1.84,3.68,3.68,0,0,1-2.32.65,6.2,6.2,0,0,1-1-.1,7.85,7.85,0,0,1-1.1-.3v-1.05a3.54,3.54,0,0,0,1,.4,4.6,4.6,0,0,0,1.13.13,2.56,2.56,0,0,0,1.55-.4,1.39,1.39,0,0,0,.53-1.17,1.35,1.35,0,0,0-.49-1.11,2.15,2.15,0,0,0-1.39-.4h-.93V211h1a2,2,0,0,0,1.22-.32,1.09,1.09,0,0,0,.43-.92,1.13,1.13,0,0,0-.44-1,2.06,2.06,0,0,0-1.26-.33,4.73,4.73,0,0,0-.95.1,7.25,7.25,0,0,0-1.12.3v-1c.41-.11.79-.2,1.15-.26a7.47,7.47,0,0,1,1-.08,3.1,3.1,0,0,1,2,.56,1.82,1.82,0,0,1,.72,1.52,1.65,1.65,0,0,1-.38,1.12A2,2,0,0,1,426.61,211.45Z"/></g><g id="text_73" data-name="text 73"><path id="DejaVuSansMono-Bold-65-9" data-name="DejaVuSansMono-Bold-65" d="M557,233.93l-1.17,5.14h2.34Zm-1.52-2.27h3l3.39,12.56h-2.48l-.78-3.11h-3.32l-.76,3.11H552.1Z"/><path id="DejaVuSansMono-Bold-83-5" data-name="DejaVuSansMono-Bold-83" d="M576.86,238.71a6.28,6.28,0,0,1-2.54-1.51,3.11,3.11,0,0,1-.67-2.11,3.4,3.4,0,0,1,1.09-2.68,4.36,4.36,0,0,1,3-1,7.92,7.92,0,0,1,1.73.2,9.07,9.07,0,0,1,1.71.58v2.43a6.36,6.36,0,0,0-1.62-.86,4.73,4.73,0,0,0-1.63-.3,2.2,2.2,0,0,0-1.38.37,1.21,1.21,0,0,0-.48,1,1.15,1.15,0,0,0,.35.86,4.38,4.38,0,0,0,1.46.75l1.07.41a4.89,4.89,0,0,1,2.23,1.47,3.68,3.68,0,0,1,.71,2.31,3.47,3.47,0,0,1-1.12,2.84,5.17,5.17,0,0,1-3.39.94,8,8,0,0,1-1.88-.22,8.55,8.55,0,0,1-1.81-.66V241a8.36,8.36,0,0,0,1.92,1.05,5.3,5.3,0,0,0,1.84.35,2.17,2.17,0,0,0,1.42-.42,1.41,1.41,0,0,0,.51-1.16,1.56,1.56,0,0,0-.34-1,2.21,2.21,0,0,0-1-.67Z"/><path id="DejaVuSansMono-Bold-67-5" data-name="DejaVuSansMono-Bold-67" d="M602.4,243.86a5.41,5.41,0,0,1-1.24.45,6,6,0,0,1-1.36.15,4.71,4.71,0,0,1-3.88-1.67,9.47,9.47,0,0,1,0-9.68,4.68,4.68,0,0,1,3.88-1.68,6.12,6.12,0,0,1,1.37.15,4.66,4.66,0,0,1,1.23.46v2.76a5,5,0,0,0-1.24-.87,3,3,0,0,0-1.24-.27,2.29,2.29,0,0,0-2.06,1.08,7.79,7.79,0,0,0,0,6.41,2.29,2.29,0,0,0,2.06,1.08,3,3,0,0,0,1.24-.27,5.16,5.16,0,0,0,1.24-.86Z"/><path id="DejaVuSansMono-Bold-81-3" data-name="DejaVuSansMono-Bold-81" d="M619.57,244.41l-.2,0h-.16a3.69,3.69,0,0,1-3.27-1.65,11.13,11.13,0,0,1,0-9.73,4.12,4.12,0,0,1,6.59,0,8.66,8.66,0,0,1,1.12,4.87,11.3,11.3,0,0,1-.53,3.71,4.06,4.06,0,0,1-1.54,2.13l1.56,1.53-1.7,1.26Zm-.34-10.75a1.46,1.46,0,0,0-1.39,1,12.69,12.69,0,0,0,0,6.55,1.46,1.46,0,0,0,2.78,0,12.41,12.41,0,0,0,0-6.55A1.45,1.45,0,0,0,619.23,233.66Z"/><path id="DejaVuSansMono-Bold-80-4" data-name="DejaVuSansMono-Bold-80" d="M638.63,233.74v3.69h1a2.75,2.75,0,0,0,1.71-.41,2.29,2.29,0,0,0,0-2.86,2.67,2.67,0,0,0-1.71-.42Zm-2.48-2.08h3.41a6,6,0,0,1,3.74.92,4.53,4.53,0,0,1,0,6,6,6,0,0,1-3.74.92h-.93v4.71h-2.48Z"/><path id="DejaVuSansMono-Bold-87-8" data-name="DejaVuSansMono-Bold-87" d="M655.53,231.66h2.17l.9,9.22,1.09-6h2.06l1.26,6,.71-9.22h2.18l-1.44,12.56h-2.32l-1.43-6.6-1.33,6.6h-2.3Z"/><path id="DejaVuSansMono-Bold-83-6" data-name="DejaVuSansMono-Bold-83" d="M680.56,238.71A6.35,6.35,0,0,1,678,237.2a3.15,3.15,0,0,1-.66-2.11,3.4,3.4,0,0,1,1.09-2.68,4.35,4.35,0,0,1,3-1,7.94,7.94,0,0,1,1.74.2,9.07,9.07,0,0,1,1.71.58v2.43a6.36,6.36,0,0,0-1.62-.86,4.73,4.73,0,0,0-1.63-.3,2.2,2.2,0,0,0-1.38.37,1.21,1.21,0,0,0-.48,1,1.15,1.15,0,0,0,.35.86,4.38,4.38,0,0,0,1.46.75l1.07.41a4.8,4.8,0,0,1,2.22,1.47,3.62,3.62,0,0,1,.72,2.31,3.47,3.47,0,0,1-1.12,2.84,5.19,5.19,0,0,1-3.4.94,8,8,0,0,1-1.87-.22,8.55,8.55,0,0,1-1.81-.66V241a8.36,8.36,0,0,0,1.92,1.05,5.26,5.26,0,0,0,1.84.35,2.17,2.17,0,0,0,1.42-.42,1.43,1.43,0,0,0,.5-1.16,1.55,1.55,0,0,0-.33-1,2.25,2.25,0,0,0-1-.67Z"/><path id="DejaVuSansMono-Bold-67-6" data-name="DejaVuSansMono-Bold-67" d="M706.11,243.86a5.58,5.58,0,0,1-1.24.45,6,6,0,0,1-1.36.15,4.69,4.69,0,0,1-3.88-1.67,9.41,9.41,0,0,1,0-9.68,4.67,4.67,0,0,1,3.88-1.68,6.19,6.19,0,0,1,1.37.15,4.66,4.66,0,0,1,1.23.46v2.76a5,5,0,0,0-1.24-.87,3,3,0,0,0-1.24-.27,2.29,2.29,0,0,0-2.06,1.08,7.69,7.69,0,0,0,0,6.41,2.29,2.29,0,0,0,2.06,1.08,3,3,0,0,0,1.24-.27,5.16,5.16,0,0,0,1.24-.86Z"/><path id="DejaVuSansMono-Bold-83-7" data-name="DejaVuSansMono-Bold-83" d="M722.05,238.71a6.28,6.28,0,0,1-2.54-1.51,3.11,3.11,0,0,1-.67-2.11,3.43,3.43,0,0,1,1.09-2.68,4.38,4.38,0,0,1,3-1,7.85,7.85,0,0,1,1.73.2,9.42,9.42,0,0,1,1.72.58v2.43a6.58,6.58,0,0,0-1.63-.86,4.73,4.73,0,0,0-1.63-.3,2.2,2.2,0,0,0-1.38.37,1.21,1.21,0,0,0-.48,1,1.15,1.15,0,0,0,.35.86,4.38,4.38,0,0,0,1.46.75l1.07.41a4.89,4.89,0,0,1,2.23,1.47,3.68,3.68,0,0,1,.71,2.31,3.47,3.47,0,0,1-1.12,2.84,5.17,5.17,0,0,1-3.39.94,8,8,0,0,1-1.88-.22,8.75,8.75,0,0,1-1.81-.66V241a8.36,8.36,0,0,0,1.92,1.05,5.3,5.3,0,0,0,1.84.35,2.15,2.15,0,0,0,1.42-.42,1.41,1.41,0,0,0,.51-1.16,1.56,1.56,0,0,0-.34-1,2.21,2.21,0,0,0-1-.67Z"/><path id="DejaVuSansMono-Bold-71-8" data-name="DejaVuSansMono-Bold-71" d="M745.83,241.94v-2.39h-1.7v-2.09H748v5.75a5.17,5.17,0,0,1-1.58.94,5.31,5.31,0,0,1-1.84.31,4.51,4.51,0,0,1-3.77-1.69,7.72,7.72,0,0,1-1.33-4.82,7.6,7.6,0,0,1,1.34-4.84,4.68,4.68,0,0,1,3.88-1.68,5,5,0,0,1,1.48.22,5.33,5.33,0,0,1,1.38.61V235a3.68,3.68,0,0,0-1.2-1,3.23,3.23,0,0,0-1.49-.34,2.36,2.36,0,0,0-2.11,1.07,6,6,0,0,0-.7,3.22,6.13,6.13,0,0,0,.68,3.19,2.16,2.16,0,0,0,2,1.09,2.7,2.7,0,0,0,.67-.07A1.16,1.16,0,0,0,745.83,241.94Z"/><path id="DejaVuSansMono-Bold-72-3" data-name="DejaVuSansMono-Bold-72" d="M760.39,231.66h2.48v4.78H766v-4.78h2.48v12.56H766v-5.59h-3.11v5.59h-2.48Z"/></g><g id="text_74" data-name="text 74"><path id="DejaVuSans-124-25" data-name="DejaVuSans-124" d="M553.24,219.33v9.17h-.76v-9.17Z"/></g><g id="text_75" data-name="text 75"><path id="DejaVuSans-49-12" data-name="DejaVuSans-49" d="M552.68,214.86h1.77v-6.12l-1.93.39v-1l1.92-.39h1.08v7.11h1.77v.91h-4.61Z"/><path id="DejaVuSans-50-9" data-name="DejaVuSans-50" d="M560.42,214.86h3.78v.91h-5.09v-.91l1.69-1.72c.71-.72,1.15-1.18,1.34-1.39a5,5,0,0,0,.72-1,1.7,1.7,0,0,0,.21-.79,1.31,1.31,0,0,0-.45-1,1.69,1.69,0,0,0-1.17-.41,3.48,3.48,0,0,0-1.07.18,6.56,6.56,0,0,0-1.21.54v-1.1a7.85,7.85,0,0,1,1.22-.4,4.54,4.54,0,0,1,1-.13,3,3,0,0,1,2,.62,2.09,2.09,0,0,1,.74,1.67,2.24,2.24,0,0,1-.19.93,4.16,4.16,0,0,1-.67,1l-.85.9Z"/><path id="DejaVuSans-48-5" data-name="DejaVuSans-48" d="M568.8,208.47a1.34,1.34,0,0,0-1.26.82,7.5,7.5,0,0,0,0,5,1.37,1.37,0,0,0,2.52,0,7.34,7.34,0,0,0,0-5A1.34,1.34,0,0,0,568.8,208.47Zm0-.86a2.31,2.31,0,0,1,2.06,1.07,7.08,7.08,0,0,1,0,6.18,2.52,2.52,0,0,1-4.12,0,7.08,7.08,0,0,1,0-6.18A2.3,2.3,0,0,1,568.8,207.61Z"/></g><g id="text_76" data-name="text 76"><path id="DejaVuSansMono-Bold-71-9" data-name="DejaVuSansMono-Bold-71" d="M784.12,241.94v-2.39h-1.7v-2.09h3.87v5.75a5,5,0,0,1-3.43,1.25,4.49,4.49,0,0,1-3.76-1.69,9.4,9.4,0,0,1,0-9.66,4.68,4.68,0,0,1,3.87-1.68,5,5,0,0,1,1.49.22,5.12,5.12,0,0,1,1.37.61V235a3.49,3.49,0,0,0-1.2-1,3.19,3.19,0,0,0-1.48-.34,2.35,2.35,0,0,0-2.11,1.07,5.87,5.87,0,0,0-.7,3.22,6.24,6.24,0,0,0,.67,3.19,2.17,2.17,0,0,0,2,1.09,2.73,2.73,0,0,0,.68-.07A1.16,1.16,0,0,0,784.12,241.94Z"/><path id="DejaVuSansMono-Bold-69-11" data-name="DejaVuSansMono-Bold-69" d="M806.76,244.22h-7.82V231.66h7.82v2.19h-5.34v2.7h4.84v2.19h-4.84V242h5.34Z"/><path id="DejaVuSansMono-Bold-67-7" data-name="DejaVuSansMono-Bold-67" d="M827.36,243.86a5.41,5.41,0,0,1-1.24.45,6,6,0,0,1-1.36.15,4.71,4.71,0,0,1-3.88-1.67,9.47,9.47,0,0,1,0-9.68,4.68,4.68,0,0,1,3.88-1.68,6.12,6.12,0,0,1,1.37.15,4.66,4.66,0,0,1,1.23.46v2.76a5,5,0,0,0-1.24-.87,3,3,0,0,0-1.24-.27,2.29,2.29,0,0,0-2.06,1.08,7.79,7.79,0,0,0,0,6.41,2.29,2.29,0,0,0,2.06,1.08,3,3,0,0,0,1.24-.27,5.16,5.16,0,0,0,1.24-.86Z"/><path id="DejaVuSansMono-Bold-86-4" data-name="DejaVuSansMono-Bold-86" d="M844.19,242.15l2.21-10.49h2.5l-3,12.56h-3.44l-3-12.56H842Z"/><path id="DejaVuSansMono-Bold-69-12" data-name="DejaVuSansMono-Bold-69" d="M869,244.22h-7.83V231.66H869v2.19h-5.34v2.7h4.83v2.19h-4.83V242H869Z"/><path id="DejaVuSansMono-Bold-73-9" data-name="DejaVuSansMono-Bold-73" d="M881.94,233.85v-2.19h7.48v2.19h-2.5V242h2.5v2.19h-7.48V242h2.5v-8.18Z"/></g><g id="text_77" data-name="text 77"><path id="DejaVuSans-124-26" data-name="DejaVuSans-124" d="M778.2,219.33v9.17h-.76v-9.17Z"/></g><g id="text_78" data-name="text 78"><path id="DejaVuSans-49-13" data-name="DejaVuSans-49" d="M777.64,214.86h1.77v-6.12l-1.93.39v-1l1.92-.39h1.08v7.11h1.77v.91h-4.61Z"/><path id="DejaVuSans-51-6" data-name="DejaVuSans-51" d="M787.73,211.45a2.12,2.12,0,0,1,1.22.69,2,2,0,0,1,.43,1.3,2.24,2.24,0,0,1-.81,1.84,3.68,3.68,0,0,1-2.32.65,6.3,6.3,0,0,1-1-.1,8.24,8.24,0,0,1-1.1-.3v-1.05a3.67,3.67,0,0,0,1,.4,4.66,4.66,0,0,0,1.13.13,2.54,2.54,0,0,0,1.55-.4,1.53,1.53,0,0,0,0-2.28,2.12,2.12,0,0,0-1.38-.4h-.94V211h1a2,2,0,0,0,1.22-.32,1.06,1.06,0,0,0,.43-.92,1.13,1.13,0,0,0-.44-1,2,2,0,0,0-1.25-.33,4.75,4.75,0,0,0-1,.1,7.56,7.56,0,0,0-1.12.3v-1c.41-.11.8-.2,1.16-.26a7.33,7.33,0,0,1,1-.08,3.13,3.13,0,0,1,2,.56,1.82,1.82,0,0,1,.72,1.52,1.66,1.66,0,0,1-.39,1.12A2,2,0,0,1,787.73,211.45Z"/><path id="DejaVuSans-49-14" data-name="DejaVuSans-49" d="M791.63,214.86h1.77v-6.12l-1.93.39v-1l1.92-.39h1.08v7.11h1.77v.91h-4.61Z"/></g><g id="text_79" data-name="text 79"><path id="DejaVuSansMono-Bold-73-10" data-name="DejaVuSansMono-Bold-73" d="M900.94,233.85v-2.19h7.48v2.19h-2.5V242h2.5v2.19h-7.48V242h2.5v-8.18Z"/><path id="DejaVuSansMono-Bold-78-11" data-name="DejaVuSansMono-Bold-78" d="M921.23,231.66h2.67l3.5,9.12v-9.12h2.19v12.56h-2.65l-3.52-9.13v9.13h-2.19Z"/></g><g id="text_80" data-name="text 80"><path id="DejaVuSans-124-27" data-name="DejaVuSans-124" d="M900.9,219.33v9.17h-.76v-9.17Z"/></g><g id="text_81" data-name="text 81"><path id="DejaVuSans-49-15" data-name="DejaVuSans-49" d="M900.34,214.86h1.77v-6.12l-1.92.39v-1l1.91-.39h1.09v7.11H905v.91h-4.62Z"/><path id="DejaVuSans-51-7" data-name="DejaVuSans-51" d="M910.44,211.45a2.06,2.06,0,0,1,1.21.69,2,2,0,0,1,.44,1.3,2.22,2.22,0,0,1-.82,1.84,3.64,3.64,0,0,1-2.32.65,6.19,6.19,0,0,1-1-.1,8.37,8.37,0,0,1-1.11-.3v-1.05a3.61,3.61,0,0,0,1,.4,4.58,4.58,0,0,0,1.12.13,2.57,2.57,0,0,0,1.56-.4,1.39,1.39,0,0,0,.53-1.17,1.36,1.36,0,0,0-.5-1.11,2.12,2.12,0,0,0-1.38-.4h-.93V211h1a2,2,0,0,0,1.22-.32,1.08,1.08,0,0,0,.42-.92,1.1,1.1,0,0,0-.44-1,2,2,0,0,0-1.25-.33,4.65,4.65,0,0,0-1,.1,7.66,7.66,0,0,0-1.13.3v-1c.42-.11.8-.2,1.16-.26a7.47,7.47,0,0,1,1-.08,3.12,3.12,0,0,1,1.95.56,1.82,1.82,0,0,1,.72,1.52,1.71,1.71,0,0,1-.38,1.12A2,2,0,0,1,910.44,211.45Z"/><path id="DejaVuSans-55-4" data-name="DejaVuSans-55" d="M913.87,207.75H919v.47l-2.91,7.55H915l2.74-7.1h-3.85Z"/></g><g id="text_82" data-name="text 82"><path id="DejaVuSansMono-Bold-78-12" data-name="DejaVuSansMono-Bold-78" d="M941.39,231.66h2.67l3.5,9.12v-9.12h2.19v12.56H947.1l-3.52-9.13v9.13h-2.19Z"/><path id="DejaVuSansMono-Bold-89-9" data-name="DejaVuSansMono-Bold-89" d="M961.2,231.66h2.68l2.44,5,2.44-5h2.68l-3.88,7.61v4.95h-2.48v-4.95Z"/><path id="DejaVuSansMono-Bold-84-8" data-name="DejaVuSansMono-Bold-84" d="M988.3,244.22h-2.48V233.83h-3.19v-2.17h8.86v2.17H988.3Z"/><path id="DejaVuSansMono-Bold-67-8" data-name="DejaVuSansMono-Bold-67" d="M1011.71,243.86a5.41,5.41,0,0,1-1.24.45,6,6,0,0,1-1.36.15,4.71,4.71,0,0,1-3.88-1.67,9.47,9.47,0,0,1,0-9.68,4.68,4.68,0,0,1,3.88-1.68,6.12,6.12,0,0,1,1.37.15,4.66,4.66,0,0,1,1.23.46v2.76a5,5,0,0,0-1.24-.87,3,3,0,0,0-1.24-.27,2.29,2.29,0,0,0-2.06,1.08,7.79,7.79,0,0,0,0,6.41,2.29,2.29,0,0,0,2.06,1.08,3,3,0,0,0,1.24-.27,5.16,5.16,0,0,0,1.24-.86Z"/><path id="DejaVuSansMono-Bold-78-13" data-name="DejaVuSansMono-Bold-78" d="M1024.36,231.66H1027l3.5,9.12v-9.12h2.18v12.56h-2.65l-3.51-9.13v9.13h-2.19Z"/><path id="DejaVuSansMono-Bold-67-9" data-name="DejaVuSansMono-Bold-67" d="M1053.19,243.86a5.24,5.24,0,0,1-1.24.45,6,6,0,0,1-1.36.15,4.67,4.67,0,0,1-3.87-1.67,9.41,9.41,0,0,1,0-9.68,4.65,4.65,0,0,1,3.87-1.68,6.06,6.06,0,0,1,1.37.15,4.66,4.66,0,0,1,1.23.46v2.76a4.78,4.78,0,0,0-1.24-.87,3,3,0,0,0-1.24-.27,2.3,2.3,0,0,0-2.06,1.08,7.79,7.79,0,0,0,0,6.41,2.3,2.3,0,0,0,2.06,1.08A3,3,0,0,0,1052,242a5,5,0,0,0,1.24-.86Z"/></g><g id="text_83" data-name="text 83"><path id="DejaVuSans-124-28" data-name="DejaVuSans-124" d="M941.81,219.33v9.17h-.76v-9.17Z"/></g><g id="text_84" data-name="text 84"><path id="DejaVuSans-49-16" data-name="DejaVuSans-49" d="M941.25,214.86H943v-6.12l-1.93.39v-1l1.92-.39h1.08v7.11h1.77v.91h-4.61Z"/><path id="DejaVuSans-51-8" data-name="DejaVuSans-51" d="M951.34,211.45a2.06,2.06,0,0,1,1.21.69,2,2,0,0,1,.44,1.3,2.22,2.22,0,0,1-.82,1.84,3.63,3.63,0,0,1-2.31.65,6.2,6.2,0,0,1-1-.1,7.85,7.85,0,0,1-1.1-.3v-1.05a3.54,3.54,0,0,0,1,.4,4.58,4.58,0,0,0,1.12.13,2.57,2.57,0,0,0,1.56-.4,1.39,1.39,0,0,0,.53-1.17,1.35,1.35,0,0,0-.49-1.11,2.17,2.17,0,0,0-1.39-.4h-.93V211h1a2,2,0,0,0,1.22-.32,1.08,1.08,0,0,0,.42-.92,1.12,1.12,0,0,0-.43-1,2.06,2.06,0,0,0-1.26-.33,4.73,4.73,0,0,0-.95.1,7.25,7.25,0,0,0-1.12.3v-1c.41-.11.79-.2,1.15-.26a7.47,7.47,0,0,1,1-.08,3.1,3.1,0,0,1,2,.56,1.82,1.82,0,0,1,.72,1.52,1.65,1.65,0,0,1-.38,1.12A2,2,0,0,1,951.34,211.45Z"/><path id="DejaVuSans-57-5" data-name="DejaVuSans-57" d="M955.08,215.6v-1a5.11,5.11,0,0,0,.83.29,3.34,3.34,0,0,0,.82.1,2,2,0,0,0,1.64-.72,3.9,3.9,0,0,0,.65-2.19,2.24,2.24,0,0,1-.79.71,2.36,2.36,0,0,1-1.06.24,2.52,2.52,0,0,1-1.9-.72,2.75,2.75,0,0,1-.71-2,2.71,2.71,0,0,1,.73-2,2.61,2.61,0,0,1,2-.75,2.39,2.39,0,0,1,2.12,1.07,5.43,5.43,0,0,1,.73,3.09,4.75,4.75,0,0,1-.9,3,2.91,2.91,0,0,1-2.41,1.13,4.67,4.67,0,0,1-.83-.08A6.43,6.43,0,0,1,955.08,215.6Zm2.16-3.4a1.43,1.43,0,0,0,1.15-.49,2.4,2.4,0,0,0,0-2.74,1.44,1.44,0,0,0-1.15-.5,1.46,1.46,0,0,0-1.16.5,2.44,2.44,0,0,0,0,2.74A1.45,1.45,0,0,0,957.24,212.2Z"/></g><g id="text_85" data-name="text 85"><path id="DejaVuSansMono-Bold-68-8" data-name="DejaVuSansMono-Bold-68" d="M1066.73,233.9V242h.67a2.34,2.34,0,0,0,2.09-.92,5.83,5.83,0,0,0,.62-3.14,5.73,5.73,0,0,0-.62-3.11,2.33,2.33,0,0,0-2.09-.91Zm-2.48-2.24h2.66c2,0,3.53.49,4.43,1.47s1.36,2.57,1.36,4.79-.46,3.84-1.36,4.82-2.38,1.48-4.43,1.48h-2.66Z"/><path id="DejaVuSansMono-Bold-86-5" data-name="DejaVuSansMono-Bold-86" d="M1089,242.15l2.21-10.49h2.5l-3,12.56h-3.44l-3-12.56h2.5Z"/><path id="DejaVuSansMono-Bold-71-10" data-name="DejaVuSansMono-Bold-71" d="M1111.92,241.94v-2.39h-1.7v-2.09h3.86v5.75a5.25,5.25,0,0,1-1.57.94,5.36,5.36,0,0,1-1.85.31,4.52,4.52,0,0,1-3.77-1.69,7.72,7.72,0,0,1-1.32-4.82,7.54,7.54,0,0,1,1.34-4.84,4.65,4.65,0,0,1,3.87-1.68,5.07,5.07,0,0,1,1.49.22,5.26,5.26,0,0,1,1.37.61V235a3.68,3.68,0,0,0-1.2-1,3.19,3.19,0,0,0-1.48-.34,2.38,2.38,0,0,0-2.12,1.07,6,6,0,0,0-.69,3.22,6.14,6.14,0,0,0,.67,3.19,2.16,2.16,0,0,0,2,1.09,2.65,2.65,0,0,0,.67-.07A1.21,1.21,0,0,0,1111.92,241.94Z"/><path id="DejaVuSansMono-Bold-89-10" data-name="DejaVuSansMono-Bold-89" d="M1125.39,231.66h2.68l2.43,5,2.45-5h2.68l-3.88,7.61v4.95h-2.48v-4.95Z"/></g><g id="text_86" data-name="text 86"><path id="DejaVuSans-124-29" data-name="DejaVuSans-124" d="M1064.51,219.33v9.17h-.76v-9.17Z"/></g><g id="text_87" data-name="text 87"><path id="DejaVuSans-49-17" data-name="DejaVuSans-49" d="M1064,214.86h1.77v-6.12l-1.93.39v-1l1.92-.39h1.09v7.11h1.77v.91H1064Z"/><path id="DejaVuSans-52-6" data-name="DejaVuSans-52" d="M1073.74,208.7,1071,213h2.74Zm-.29-.95h1.37V213H1076v.9h-1.14v1.89h-1.08v-1.89h-3.62v-1Z"/><path id="DejaVuSans-53-7" data-name="DejaVuSans-53" d="M1077.76,207.75H1082v.92h-3.26v2a3.59,3.59,0,0,1,.47-.12,2.49,2.49,0,0,1,.47,0,3,3,0,0,1,2.13.74,2.93,2.93,0,0,1,0,4,3.31,3.31,0,0,1-2.27.72,6.06,6.06,0,0,1-1-.09,7.67,7.67,0,0,1-1.08-.26v-1.09a3.78,3.78,0,0,0,1,.39,4.34,4.34,0,0,0,1.09.13,2.09,2.09,0,0,0,1.47-.49,1.65,1.65,0,0,0,.55-1.32,1.69,1.69,0,0,0-.55-1.33,2.14,2.14,0,0,0-1.47-.49,4.12,4.12,0,0,0-.86.1,4.24,4.24,0,0,0-.89.3Z"/></g><g id="text_88" data-name="text 88"><path id="DejaVuSansMono-Bold-89-11" data-name="DejaVuSansMono-Bold-89" d="M1145,231.66h2.67l2.44,5,2.45-5h2.68l-3.88,7.61v4.95h-2.48v-4.95Z"/></g><g id="text_89" data-name="text 89"><path id="DejaVuSans-124-30" data-name="DejaVuSans-124" d="M1146.31,219.33v9.17h-.76v-9.17Z"/></g><g id="text_90" data-name="text 90"><path id="DejaVuSans-49-18" data-name="DejaVuSans-49" d="M1145.75,214.86h1.78v-6.12l-1.93.39v-1l1.92-.39h1.08v7.11h1.77v.91h-4.62Z"/><path id="DejaVuSans-52-7" data-name="DejaVuSans-52" d="M1155.54,208.7,1152.8,213h2.74Zm-.28-.95h1.36V213h1.15v.9h-1.15v1.89h-1.08v-1.89h-3.62v-1Z"/><path id="DejaVuSans-57-6" data-name="DejaVuSans-57" d="M1159.59,215.6v-1a5.11,5.11,0,0,0,.83.29,3.34,3.34,0,0,0,.82.1,2,2,0,0,0,1.64-.72,3.9,3.9,0,0,0,.65-2.19,2.33,2.33,0,0,1-.79.71,2.36,2.36,0,0,1-1.06.24,2.52,2.52,0,0,1-1.9-.72,2.75,2.75,0,0,1-.71-2,2.71,2.71,0,0,1,.73-2,2.61,2.61,0,0,1,2-.75,2.4,2.4,0,0,1,2.12,1.07,5.43,5.43,0,0,1,.73,3.09,4.75,4.75,0,0,1-.9,3,2.91,2.91,0,0,1-2.41,1.13,4.67,4.67,0,0,1-.83-.08A6.43,6.43,0,0,1,1159.59,215.6Zm2.16-3.4a1.43,1.43,0,0,0,1.15-.49,2.4,2.4,0,0,0,0-2.74,1.44,1.44,0,0,0-1.15-.5,1.46,1.46,0,0,0-1.16.5,2.4,2.4,0,0,0,0,2.74A1.45,1.45,0,0,0,1161.75,212.2Z"/></g><g id="text_91" data-name="text 91"><path id="DejaVuSansMono-Bold-71-11" data-name="DejaVuSansMono-Bold-71" d="M1172.69,241.94v-2.39H1171v-2.09h3.87v5.75a5,5,0,0,1-3.43,1.25,4.49,4.49,0,0,1-3.76-1.69,7.66,7.66,0,0,1-1.33-4.82,7.54,7.54,0,0,1,1.34-4.84,4.65,4.65,0,0,1,3.87-1.68,5,5,0,0,1,1.49.22,5.12,5.12,0,0,1,1.37.61V235a3.68,3.68,0,0,0-1.2-1,3.19,3.19,0,0,0-1.48-.34,2.35,2.35,0,0,0-2.11,1.07,5.87,5.87,0,0,0-.7,3.22,6.14,6.14,0,0,0,.67,3.19,2.16,2.16,0,0,0,2,1.09,2.65,2.65,0,0,0,.67-.07A1.21,1.21,0,0,0,1172.69,241.94Z"/></g><g id="text_92" data-name="text 92"><path id="DejaVuSans-124-31" data-name="DejaVuSans-124" d="M1166.77,219.33v9.17H1166v-9.17Z"/></g><g id="text_93" data-name="text 93"><path id="DejaVuSans-49-19" data-name="DejaVuSans-49" d="M1166.21,214.86H1168v-6.12l-1.93.39v-1l1.92-.39h1.08v7.11h1.77v.91h-4.61Z"/><path id="DejaVuSans-53-8" data-name="DejaVuSans-53" d="M1173,207.75h4.26v.92H1174v2a3.59,3.59,0,0,1,.47-.12,2.49,2.49,0,0,1,.47,0,3,3,0,0,1,2.13.74,2.93,2.93,0,0,1,0,4,3.31,3.31,0,0,1-2.27.72,6.06,6.06,0,0,1-1-.09,7.67,7.67,0,0,1-1.08-.26v-1.09a3.78,3.78,0,0,0,1,.39,4.34,4.34,0,0,0,1.09.13,2.09,2.09,0,0,0,1.47-.49,1.65,1.65,0,0,0,.55-1.32,1.69,1.69,0,0,0-.55-1.33,2.14,2.14,0,0,0-1.47-.49,4.12,4.12,0,0,0-.86.1,4.06,4.06,0,0,0-.89.3Z"/><path id="DejaVuSans-48-6" data-name="DejaVuSans-48" d="M1182.33,208.47a1.34,1.34,0,0,0-1.26.82,7.5,7.5,0,0,0,0,5,1.37,1.37,0,0,0,2.52,0,7.5,7.5,0,0,0,0-5A1.34,1.34,0,0,0,1182.33,208.47Zm0-.86a2.31,2.31,0,0,1,2.06,1.07,7.08,7.08,0,0,1,0,6.18,2.52,2.52,0,0,1-4.12,0,7.08,7.08,0,0,1,0-6.18A2.3,2.3,0,0,1,1182.33,207.61Z"/></g><g id="text_94" data-name="text 94"><path id="DejaVuSansMono-Bold-80-5" data-name="DejaVuSansMono-Bold-80" d="M167.1,315v3.68h1a2.68,2.68,0,0,0,1.71-.41,2.33,2.33,0,0,0,0-2.86,2.75,2.75,0,0,0-1.71-.41Zm-2.48-2.09H168a5.91,5.91,0,0,1,3.73.93,4.53,4.53,0,0,1,0,6,6,6,0,0,1-3.73.92h-.93v4.7h-2.48Z"/><path id="DejaVuSansMono-Bold-81-4" data-name="DejaVuSansMono-Bold-81" d="M189.52,325.69l-.2,0-.16,0a3.69,3.69,0,0,1-3.27-1.65,11.13,11.13,0,0,1,0-9.73,4.12,4.12,0,0,1,6.59,0,8.74,8.74,0,0,1,1.12,4.87,11.23,11.23,0,0,1-.53,3.7,4,4,0,0,1-1.54,2.13l1.56,1.53-1.7,1.27Zm-.34-10.75a1.45,1.45,0,0,0-1.39,1,9,9,0,0,0-.44,3.28,8.84,8.84,0,0,0,.44,3.26,1.46,1.46,0,0,0,2.78,0,8.63,8.63,0,0,0,.44-3.26,8.75,8.75,0,0,0-.44-3.28A1.44,1.44,0,0,0,189.18,314.94Z"/><path id="DejaVuSansMono-Bold-67-10" data-name="DejaVuSansMono-Bold-67" d="M213.83,325.13a5.24,5.24,0,0,1-1.24.45,5.45,5.45,0,0,1-1.36.16,4.65,4.65,0,0,1-3.87-1.68,9.41,9.41,0,0,1,0-9.68,4.67,4.67,0,0,1,3.87-1.67,6.06,6.06,0,0,1,1.37.15,5,5,0,0,1,1.23.45v2.76a4.72,4.72,0,0,0-1.24-.86,3,3,0,0,0-1.24-.27,2.3,2.3,0,0,0-2.06,1.08,7.79,7.79,0,0,0,0,6.41,2.3,2.3,0,0,0,2.06,1.08,2.84,2.84,0,0,0,1.24-.28,4.72,4.72,0,0,0,1.24-.86Z"/><path id="DejaVuSansMono-Bold-81-5" data-name="DejaVuSansMono-Bold-81" d="M231,325.69l-.2,0-.15,0a3.69,3.69,0,0,1-3.28-1.65,11.22,11.22,0,0,1,0-9.73,4.12,4.12,0,0,1,6.59,0,8.66,8.66,0,0,1,1.12,4.87,11.23,11.23,0,0,1-.53,3.7,4,4,0,0,1-1.54,2.13l1.56,1.53-1.7,1.27Zm-.34-10.75a1.46,1.46,0,0,0-1.39,1,9,9,0,0,0-.43,3.28,8.89,8.89,0,0,0,.43,3.26,1.46,1.46,0,0,0,2.79,0,8.89,8.89,0,0,0,.43-3.26,9,9,0,0,0-.43-3.28A1.45,1.45,0,0,0,230.66,314.94Z"/></g><g id="text_95" data-name="text 95"><path id="DejaVuSans-124-32" data-name="DejaVuSans-124" d="M164.67,300.61v9.16h-.76v-9.16Z"/></g><g id="text_96" data-name="text 96"><path id="DejaVuSans-49-20" data-name="DejaVuSans-49" d="M164.11,296.13h1.77V290l-1.93.38v-1l1.92-.39H167v7.1h1.78v.92h-4.62Z"/><path id="DejaVuSans-53-9" data-name="DejaVuSans-53" d="M170.93,289h4.25v.91h-3.26v2a2,2,0,0,1,.47-.12,2.59,2.59,0,0,1,.48,0,3,3,0,0,1,2.12.73,2.62,2.62,0,0,1,.79,2,2.56,2.56,0,0,1-.81,2,3.34,3.34,0,0,1-2.27.71,7.26,7.26,0,0,1-1-.08,9.37,9.37,0,0,1-1.08-.26v-1.09a4.51,4.51,0,0,0,1,.39,4.72,4.72,0,0,0,1.09.13,2.09,2.09,0,0,0,1.47-.49,1.71,1.71,0,0,0,.54-1.33,1.69,1.69,0,0,0-.54-1.32,2.09,2.09,0,0,0-1.47-.49,3.69,3.69,0,0,0-.87.1,4,4,0,0,0-.88.3Z"/><path id="DejaVuSans-49-21" data-name="DejaVuSans-49" d="M178.1,296.13h1.77V290l-1.93.38v-1l1.92-.39h1.08v7.1h1.78v.92H178.1Z"/></g><g id="text_97" data-name="text 97"><path id="DejaVuSansMono-Bold-70-3" data-name="DejaVuSansMono-Bold-70" d="M254.41,315.12h-5.34v2.71h4.86V320h-4.86v5.47h-2.48V312.93h7.82Z"/></g><g id="text_98" data-name="text 98"><path id="DejaVuSans-124-33" data-name="DejaVuSans-124" d="M246.47,300.61v9.16h-.76v-9.16Z"/></g><g id="text_99" data-name="text 99"><path id="DejaVuSans-49-22" data-name="DejaVuSans-49" d="M245.91,296.13h1.77V290l-1.92.38v-1l1.91-.39h1.09v7.1h1.77v.92h-4.62Z"/><path id="DejaVuSans-53-10" data-name="DejaVuSans-53" d="M252.73,289H257v.91h-3.27v2a2.17,2.17,0,0,1,.47-.12,2.59,2.59,0,0,1,.48,0,3,3,0,0,1,2.12.73,2.58,2.58,0,0,1,.79,2,2.56,2.56,0,0,1-.81,2,3.32,3.32,0,0,1-2.27.71,7.37,7.37,0,0,1-1-.08,9.89,9.89,0,0,1-1.08-.26v-1.09a4.71,4.71,0,0,0,1,.39,4.79,4.79,0,0,0,1.09.13,2.09,2.09,0,0,0,1.47-.49,1.71,1.71,0,0,0,.54-1.33,1.69,1.69,0,0,0-.54-1.32,2.09,2.09,0,0,0-1.47-.49,3.69,3.69,0,0,0-.87.1,4,4,0,0,0-.88.3Z"/><path id="DejaVuSans-53-11" data-name="DejaVuSans-53" d="M259.73,289H264v.91h-3.26v2a2,2,0,0,1,.47-.12,2.56,2.56,0,0,1,.47,0,3,3,0,0,1,2.13.73,2.61,2.61,0,0,1,.78,2,2.55,2.55,0,0,1-.8,2,3.35,3.35,0,0,1-2.27.71,7.26,7.26,0,0,1-1-.08,9.37,9.37,0,0,1-1.08-.26v-1.09a4.51,4.51,0,0,0,1,.39,4.72,4.72,0,0,0,1.09.13,2.09,2.09,0,0,0,1.47-.49,1.71,1.71,0,0,0,.54-1.33,1.69,1.69,0,0,0-.54-1.32,2.09,2.09,0,0,0-1.47-.49,3.69,3.69,0,0,0-.87.1,4,4,0,0,0-.88.3Z"/></g><g id="text_100" data-name="text 100"><path id="DejaVuSansMono-Bold-86-6" data-name="DejaVuSansMono-Bold-86" d="M270.69,323.42l2.21-10.49h2.5l-3,12.56H269l-3-12.56h2.5Z"/></g><g id="text_101" data-name="text 101"><path id="DejaVuSans-124-34" data-name="DejaVuSans-124" d="M266.92,300.61v9.16h-.76v-9.16Z"/></g><g id="text_102" data-name="text 102"><path id="DejaVuSans-49-23" data-name="DejaVuSans-49" d="M266.36,296.13h1.77V290l-1.92.38v-1l1.91-.39h1.09v7.1H271v.92h-4.62Z"/><path id="DejaVuSans-53-12" data-name="DejaVuSans-53" d="M273.18,289h4.26v.91h-3.26v2a1.91,1.91,0,0,1,.47-.12,2.42,2.42,0,0,1,.47,0,3,3,0,0,1,2.13.73,2.61,2.61,0,0,1,.78,2,2.56,2.56,0,0,1-.81,2,3.32,3.32,0,0,1-2.27.71,7.37,7.37,0,0,1-1-.08,10.48,10.48,0,0,1-1.08-.26v-1.09a4.93,4.93,0,0,0,1,.39,4.85,4.85,0,0,0,1.09.13,2.09,2.09,0,0,0,1.47-.49,1.71,1.71,0,0,0,.54-1.33,1.69,1.69,0,0,0-.54-1.32,2.09,2.09,0,0,0-1.47-.49,3.69,3.69,0,0,0-.87.1,4.17,4.17,0,0,0-.88.3Z"/><path id="DejaVuSans-54-2" data-name="DejaVuSans-54" d="M282.62,292.61a1.43,1.43,0,0,0-1.16.5,2,2,0,0,0-.42,1.36,2.06,2.06,0,0,0,.42,1.37,1.6,1.6,0,0,0,2.32,0,2.06,2.06,0,0,0,.42-1.37,2,2,0,0,0-.42-1.36A1.43,1.43,0,0,0,282.62,292.61Zm2.15-3.4v1a5,5,0,0,0-.82-.29,3.37,3.37,0,0,0-.83-.1,2,2,0,0,0-1.64.72,4,4,0,0,0-.64,2.19,2.07,2.07,0,0,1,.79-.71,2.2,2.2,0,0,1,1.05-.25,2.49,2.49,0,0,1,1.91.73,2.75,2.75,0,0,1,.7,2,2.71,2.71,0,0,1-.73,2,2.6,2.6,0,0,1-1.94.74,2.42,2.42,0,0,1-2.13-1.06,5.43,5.43,0,0,1-.73-3.09,4.71,4.71,0,0,1,.9-3,2.92,2.92,0,0,1,2.42-1.13,4,4,0,0,1,.83.08A5.35,5.35,0,0,1,284.77,289.21Z"/></g><g id="text_103" data-name="text 103"><path id="DejaVuSansMono-67" class="cls-6" d="M299.59,350.24a5.66,5.66,0,0,1-2.78.69,4.5,4.5,0,0,1-3.75-1.7,9.31,9.31,0,0,1,0-9.61,4.5,4.5,0,0,1,3.74-1.72,6,6,0,0,1,2.78.69v1.74a4.79,4.79,0,0,0-1.34-.78,4,4,0,0,0-1.44-.27,2.76,2.76,0,0,0-2.48,1.28,9.47,9.47,0,0,0,0,7.71,2.74,2.74,0,0,0,2.48,1.28,4,4,0,0,0,1.45-.27,4.6,4.6,0,0,0,1.33-.78Z"/><path id="DejaVuSansMono-108" class="cls-6" d="M316.68,347.27a2.75,2.75,0,0,0,.38,1.58,1.31,1.31,0,0,0,1.13.52H320v1.32h-2a2.7,2.7,0,0,1-2.15-.89,3.84,3.84,0,0,1-.76-2.53v-8.55h-2.48v-1.21h4Z"/><path id="DejaVuSansMono-111" class="cls-6" d="M326.86,342.35a2,2,0,0,0-1.79.92,6.44,6.44,0,0,0,0,5.43,2.2,2.2,0,0,0,3.58,0,6.44,6.44,0,0,0,0-5.43A2,2,0,0,0,326.86,342.35Zm0-1.31a3.63,3.63,0,0,1,3,1.27,5.64,5.64,0,0,1,1,3.68,5.7,5.7,0,0,1-1,3.68,4.2,4.2,0,0,1-6,0,7.09,7.09,0,0,1,0-7.36A3.64,3.64,0,0,1,326.86,341Z"/><path id="DejaVuSansMono-111-2" data-name="DejaVuSansMono-111" class="cls-6" d="M337.23,342.35a2,2,0,0,0-1.78.92,6.35,6.35,0,0,0,0,5.43,2.19,2.19,0,0,0,3.57,0,6.35,6.35,0,0,0,0-5.43A2,2,0,0,0,337.23,342.35Zm0-1.31a3.66,3.66,0,0,1,3,1.27,7.09,7.09,0,0,1,0,7.36,4.2,4.2,0,0,1-6,0,7.09,7.09,0,0,1,0-7.36A3.64,3.64,0,0,1,337.23,341Z"/><path id="DejaVuSansMono-112" class="cls-6" d="M345.57,349.5v4.77H344v-13h1.55v1.2a2.63,2.63,0,0,1,1-1.06,2.92,2.92,0,0,1,1.49-.37,3.16,3.16,0,0,1,2.68,1.32,6.12,6.12,0,0,1,1,3.66,5.9,5.9,0,0,1-1,3.6,3.13,3.13,0,0,1-2.67,1.31,3,3,0,0,1-1.51-.36A2.61,2.61,0,0,1,345.57,349.5Zm4.54-3.51a5.22,5.22,0,0,0-.57-2.72,1.84,1.84,0,0,0-1.68-.92,1.91,1.91,0,0,0-1.71.92,6.64,6.64,0,0,0,0,5.43,1.91,1.91,0,0,0,1.71.92,1.84,1.84,0,0,0,1.68-.92A5.18,5.18,0,0,0,350.11,346Z"/></g><g id="text_104" data-name="text 104"><path id="DejaVuSans-124-35" data-name="DejaVuSans-124" d="M266.92,300.61v9.16h-.76v-9.16Z"/></g><g id="text_105" data-name="text 105"><path id="DejaVuSans-49-24" data-name="DejaVuSans-49" d="M266.36,296.13h1.77V290l-1.92.38v-1l1.91-.39h1.09v7.1H271v.92h-4.62Z"/><path id="DejaVuSans-53-13" data-name="DejaVuSans-53" d="M273.18,289h4.26v.91h-3.26v2a1.91,1.91,0,0,1,.47-.12,2.42,2.42,0,0,1,.47,0,3,3,0,0,1,2.13.73,2.61,2.61,0,0,1,.78,2,2.56,2.56,0,0,1-.81,2,3.32,3.32,0,0,1-2.27.71,7.37,7.37,0,0,1-1-.08,10.48,10.48,0,0,1-1.08-.26v-1.09a4.93,4.93,0,0,0,1,.39,4.85,4.85,0,0,0,1.09.13,2.09,2.09,0,0,0,1.47-.49,1.71,1.71,0,0,0,.54-1.33,1.69,1.69,0,0,0-.54-1.32,2.09,2.09,0,0,0-1.47-.49,3.69,3.69,0,0,0-.87.1,4.17,4.17,0,0,0-.88.3Z"/><path id="DejaVuSans-54-3" data-name="DejaVuSans-54" d="M282.62,292.61a1.43,1.43,0,0,0-1.16.5,2,2,0,0,0-.42,1.36,2.06,2.06,0,0,0,.42,1.37,1.6,1.6,0,0,0,2.32,0,2.06,2.06,0,0,0,.42-1.37,2,2,0,0,0-.42-1.36A1.43,1.43,0,0,0,282.62,292.61Zm2.15-3.4v1a5,5,0,0,0-.82-.29,3.37,3.37,0,0,0-.83-.1,2,2,0,0,0-1.64.72,4,4,0,0,0-.64,2.19,2.07,2.07,0,0,1,.79-.71,2.2,2.2,0,0,1,1.05-.25,2.49,2.49,0,0,1,1.91.73,2.75,2.75,0,0,1,.7,2,2.71,2.71,0,0,1-.73,2,2.6,2.6,0,0,1-1.94.74,2.42,2.42,0,0,1-2.13-1.06,5.43,5.43,0,0,1-.73-3.09,4.71,4.71,0,0,1,.9-3,2.92,2.92,0,0,1,2.42-1.13,4,4,0,0,1,.83.08A5.35,5.35,0,0,1,284.77,289.21Z"/></g><text class="cls-7" transform="translate(36.89 42.26)">L-selectin<tspan x="-30.58" y="24">(residue 39-194)</tspan></text></svg>