<svg id="图层_1" data-name="图层 1" xmlns="http://www.w3.org/2000/svg" xmlns:xlink="http://www.w3.org/1999/xlink" viewBox="0 0 1200 400"><defs><style>.cls-1,.cls-5{fill:none;}.cls-2{clip-path:url(#clip-path);}.cls-3,.cls-6{fill:gray;}.cls-3{stroke:gray;}.cls-4{fill:#20b2aa;stroke:#20b2aa;}.cls-5{stroke:orange;stroke-linecap:square;stroke-linejoin:round;stroke-width:2.4px;}.cls-7{font-size:20px;font-family:ArialMT, Arial;}.cls-8{letter-spacing:-0.07em;}</style><clipPath id="clip-path"><rect class="cls-1" x="272.82" y="81.87" width="873.47" height="694.27"/></clipPath></defs><g id="patch_2" data-name="patch 2"><g class="cls-2"><path class="cls-3" d="M272,133.94h18.34v-2.08H272Z"/></g></g><g id="patch_3" data-name="patch 3"><g class="cls-2"><path class="cls-3" d="M534,133.94H569.8v-2.08H534Z"/></g></g><g id="patch_4" data-name="patch 4"><g class="cls-2"><path class="cls-4" d="M569.8,144.36H707V123.53H569.8Z"/></g></g><g id="patch_5" data-name="patch 5"><g class="cls-2"><path class="cls-3" d="M796,133.94H901.72v-2.08H796Z"/></g></g><g id="patch_6" data-name="patch 6"><g class="cls-2"><path class="cls-4" d="M901.72,144.36H951.6V123.53H901.72Z"/></g></g><g id="patch_7" data-name="patch 7"><g class="cls-2"><path class="cls-3" d="M953.26,133.94h35.81v-2.08H953.26Z"/></g></g><g id="patch_8" data-name="patch 8"><g class="cls-2"><path class="cls-4" d="M989.07,144.36h137.22V123.53H989.07Z"/></g></g><g id="patch_9" data-name="patch 9"><g class="cls-2"><path class="cls-3" d="M1128,133.94h18.34v-2.08H1128Z"/></g></g><g id="patch_10" data-name="patch 10"><g class="cls-2"><path class="cls-3" d="M272,203.37H412.58v-2.08H272Z"/></g></g><g id="patch_11" data-name="patch 11"><g class="cls-2"><path class="cls-4" d="M412.58,213.79h277V193h-277Z"/></g></g><g id="patch_12" data-name="patch 12"><g class="cls-2"><path class="cls-3" d="M691.21,203.37H831.84v-2.08H691.21Z"/></g></g><g id="patch_13" data-name="patch 13"><g class="cls-2"><path class="cls-4" d="M831.84,213.79h259.51V193H831.84Z"/></g></g><g id="patch_14" data-name="patch 14"><g class="cls-2"><path class="cls-3" d="M1093,203.37h18.34v-2.08H1093Z"/></g></g><g id="line2d_1" data-name="line2d 1"><g class="cls-2"><path class="cls-5" d="M292.47,133.94l2.42,4.12,2.42,2.51,2.42-.06,2.41-2.63,2.42-4.16,2.42-4.07,2.42-2.4,2.41.21,2.42,2.73,2.42,4.19,2.42,4,2.41,2.28,2.42-.34,2.42-2.84,2.42-4.23,2.41-4,2.42-2.17,2.42.48,2.42,2.94,2.41,4.25,2.42,3.92,2.42,2,2.42-.61,2.41-3,2.42-4.28,2.42-3.85,2.42-1.93,2.41.75,2.42,3.14,2.42,4.3,2.42,3.78,2.41,1.8,2.42-.88,2.42-3.23,2.42-4.31,2.41-3.72,2.42-1.68,2.42,1,2.42,3.31,2.41,4.33,2.42,3.64,2.42,1.55,2.42-1.16,2.41-3.4,2.42-4.33,2.42-3.57L406.1,127l2.41,1.29,2.42,3.49,2.42,4.33,2.42,3.49,2.41,1.29,2.42-1.42L423,135.9l2.42-4.33,2.41-3.41,2.42-1.15,2.42,1.55,2.42,3.64,2.41,4.32,2.42,3.32,2.42,1,2.42-1.68,2.41-3.72,2.42-4.31,2.42-3.23,2.42-.89,2.41,1.8,2.42,3.79,2.42,4.3,2.42,3.13,2.41.76,2.42-1.93,2.42-3.85,2.42-4.28,2.41-3,2.42-.61,2.42,2,2.42,3.92,2.41,4.25,2.42,2.94,2.42.48,2.42-2.17,2.41-4,2.42-4.22,2.42-2.84,2.42-.34,2.41,2.28,2.42,4,2.42,4.2,2.42,2.73,2.41.21,2.42-2.4,2.42-4.08,2.42-4.15,2.41-2.63,2.42-.07,2.42,2.52,2.42,4.11"/></g></g><g id="line2d_2" data-name="line2d 2"><g class="cls-2"><path class="cls-5" d="M711.74,133.94l.83,1.75.83,1.63.83,1.42.83,1.1.83.73.83.31.83-.14.83-.57.83-1,.82-1.31.83-1.56.83-1.72.83-1.75.83-1.69.83-1.51.83-1.23.83-.88.83-.47.83,0,.83.42.83.83.83,1.19.83,1.48.83,1.67.82,1.75.83,1.73.83,1.59L735,139l.83,1,.83.63.83.2.83-.25.83-.68.83-1.07.83-1.38.83-1.61.83-1.74.83-1.74.83-1.66.83-1.44.82-1.16.83-.78.83-.36.83.09.83.52.83.93.83,1.27.83,1.53.83,1.71.83,1.75.83,1.7.83,1.54.83,1.27.83.93.83.52.82.09.83-.36.83-.79.83-1.15.83-1.44.83-1.66.83-1.75L764,132l.83-1.61.83-1.38.83-1.07.83-.68.83-.25.83.2.83.62.83,1,.82,1.35.83,1.59.83,1.72.83,1.76.83,1.67.83,1.48.83,1.19.83.83.83.41.83,0,.83-.47.83-.88.83-1.23.83-1.51.83-1.69.83-1.76.82-1.71.83-1.56.83-1.31.83-1,.83-.57.83-.14.83.3.83.74.83,1.1.83,1.42.83,1.63.83,1.74"/></g></g><g id="text_1" data-name="text 1"><path id="DejaVuSansMono-Bold-78" d="M274.11,105.86h2.28l3,7.8v-7.8h1.87v10.73H279l-3-7.8v7.8h-1.87Z"/></g><g id="text_2" data-name="text 2"><path id="DejaVuSans-124" d="M274.47,95.33v7.83h-.65V95.33Z"/></g><g id="text_3" data-name="text 3"><path id="DejaVuSans-49" d="M274,91.51h1.51V86.28l-1.65.33v-.84l1.64-.33h.93v6.07h1.51v.78H274Z"/></g><g id="text_4" data-name="text 4"><path id="DejaVuSansMono-Bold-84" d="M296.22,116.59H294.1v-8.87h-2.73v-1.86h7.57v1.86h-2.72Z"/><path id="DejaVuSansMono-Bold-69" d="M316.33,116.59h-6.68V105.86h6.68v1.87h-4.56V110h4.13v1.87h-4.13v2.81h4.56Z"/><path id="DejaVuSansMono-Bold-73" d="M327.4,107.73v-1.87h6.39v1.87h-2.14v7h2.14v1.87H327.4v-1.87h2.13v-7Z"/><path id="DejaVuSansMono-Bold-76" d="M345.5,116.59V105.86h2.12v8.86h4.53v1.87Z"/><path id="DejaVuSansMono-Bold-75" d="M362.44,105.86h2.12v4.24l3.32-4.24h2.4l-3.39,4.23,3.51,6.5H368l-2.54-4.83-.94,1.19v3.64h-2.12Z"/><path id="DejaVuSansMono-Bold-83" d="M383,111.88a5.41,5.41,0,0,1-2.17-1.28,2.71,2.71,0,0,1-.57-1.81,2.9,2.9,0,0,1,.94-2.29,3.72,3.72,0,0,1,2.56-.83,6.17,6.17,0,0,1,1.48.17,7.5,7.5,0,0,1,1.47.5v2.07a5.69,5.69,0,0,0-1.39-.74,4,4,0,0,0-1.39-.25,1.91,1.91,0,0,0-1.18.31,1,1,0,0,0-.41.88,1,1,0,0,0,.3.74,3.86,3.86,0,0,0,1.24.64l.92.35a4.13,4.13,0,0,1,1.9,1.25,3.14,3.14,0,0,1,.61,2,3,3,0,0,1-1,2.43,4.46,4.46,0,0,1-2.9.8,7.36,7.36,0,0,1-1.6-.19,7.13,7.13,0,0,1-1.54-.57v-2.19a7.26,7.26,0,0,0,1.64.9,4.62,4.62,0,0,0,1.57.29,1.89,1.89,0,0,0,1.21-.35,1.22,1.22,0,0,0,.43-1,1.26,1.26,0,0,0-.29-.84,1.86,1.86,0,0,0-.83-.57Z"/><path id="DejaVuSansMono-Bold-73-2" data-name="DejaVuSansMono-Bold-73" d="M398.27,107.73v-1.87h6.39v1.87h-2.14v7h2.14v1.87h-6.39v-1.87h2.13v-7Z"/><path id="DejaVuSansMono-Bold-68" d="M417.85,107.77v6.91h.58a2,2,0,0,0,1.78-.79,5,5,0,0,0,.53-2.68,4.85,4.85,0,0,0-.53-2.65,2,2,0,0,0-1.78-.79Zm-2.11-1.91H418a4.92,4.92,0,0,1,3.78,1.26,5.93,5.93,0,0,1,1.16,4.09,6,6,0,0,1-1.16,4.12,4.92,4.92,0,0,1-3.78,1.26h-2.27Z"/><path id="DejaVuSansMono-Bold-78-2" data-name="DejaVuSansMono-Bold-78" d="M433.32,105.86h2.28l3,7.8v-7.8h1.87v10.73H438.2l-3-7.8v7.8h-1.87Z"/><path id="DejaVuSansMono-Bold-69-2" data-name="DejaVuSansMono-Bold-69" d="M458.07,116.59h-6.68V105.86h6.68v1.87h-4.56V110h4.13v1.87h-4.13v2.81h4.56Z"/><path id="DejaVuSansMono-Bold-87" d="M467.9,105.86h1.86l.77,7.87.92-5.09h1.76l1.08,5.09.61-7.87h1.86l-1.23,10.73h-2L472.33,111l-1.14,5.64h-2Z"/><path id="DejaVuSansMono-Bold-82" d="M491.42,111.52a1.19,1.19,0,0,1,.55.3,3.61,3.61,0,0,1,.57.91l1.94,3.86h-2.33l-1.29-2.71c0-.08-.09-.18-.15-.32-.38-.81-.83-1.21-1.34-1.21h-.67v4.24h-2.12V105.86h3.06a4.72,4.72,0,0,1,3,.73,2.92,2.92,0,0,1,.9,2.39,2.68,2.68,0,0,1-.54,1.76A2.24,2.24,0,0,1,491.42,111.52Zm-2.72-3.88v2.93h1a1.88,1.88,0,0,0,1.24-.34,1.48,1.48,0,0,0,.38-1.13,1.46,1.46,0,0,0-.38-1.12,1.79,1.79,0,0,0-1.24-.34Z"/><path id="DejaVuSansMono-Bold-75-2" data-name="DejaVuSansMono-Bold-75" d="M504.18,105.86h2.12v4.24l3.32-4.24H512l-3.39,4.23,3.51,6.5h-2.36l-2.54-4.83L506.3,113v3.64h-2.12Z"/><path id="DejaVuSansMono-Bold-84-2" data-name="DejaVuSansMono-Bold-84" d="M526.55,116.59h-2.12v-8.87H521.7v-1.86h7.57v1.86h-2.72Z"/></g><g id="text_5" data-name="text 5"><path id="DejaVuSans-124-2" data-name="DejaVuSans-124" d="M291.93,95.33v7.83h-.64V95.33Z"/></g><g id="text_6" data-name="text 6"><path id="DejaVuSans-50" d="M292.09,91.51h3.24v.78H291v-.78L292.42,90c.6-.61,1-1,1.14-1.18a4.5,4.5,0,0,0,.62-.85,1.47,1.47,0,0,0,.18-.68,1.16,1.16,0,0,0-.38-.89,1.44,1.44,0,0,0-1-.34,3.1,3.1,0,0,0-.92.15,5.36,5.36,0,0,0-1,.46v-.94a8.42,8.42,0,0,1,1.05-.34,4.23,4.23,0,0,1,.89-.11,2.58,2.58,0,0,1,1.7.53,1.76,1.76,0,0,1,.63,1.42,2,2,0,0,1-.16.8,3.9,3.9,0,0,1-.57.89c-.08.09-.32.35-.73.77S292.84,90.75,292.09,91.51Z"/></g><g id="text_7" data-name="text 7"><path id="DejaVuSansMono-Bold-81" d="M540,116.75l-.17,0h-.13a3.17,3.17,0,0,1-2.8-1.41,9.56,9.56,0,0,1,0-8.31,3.52,3.52,0,0,1,5.64,0,7.46,7.46,0,0,1,1,4.16,9.57,9.57,0,0,1-.45,3.16,3.4,3.4,0,0,1-1.32,1.82l1.34,1.31-1.45,1.08Zm-.28-9.18a1.24,1.24,0,0,0-1.19.87,10.74,10.74,0,0,0,0,5.59,1.25,1.25,0,0,0,2.38,0,10.74,10.74,0,0,0,0-5.59A1.25,1.25,0,0,0,539.73,107.57Z"/><path id="DejaVuSansMono-Bold-67" d="M560.78,116.28a4.72,4.72,0,0,1-1,.39,5.5,5.5,0,0,1-1.16.13,4,4,0,0,1-3.32-1.43,8.07,8.07,0,0,1,0-8.27,4,4,0,0,1,3.32-1.43,5.06,5.06,0,0,1,1.17.13,4,4,0,0,1,1,.38v2.36a3.88,3.88,0,0,0-1.06-.73,2.45,2.45,0,0,0-1.06-.24,2,2,0,0,0-1.75.92,6.56,6.56,0,0,0,0,5.48,2,2,0,0,0,1.75.92,2.59,2.59,0,0,0,1.06-.23,3.94,3.94,0,0,0,1.06-.74Z"/></g><g id="text_8" data-name="text 8"><path id="DejaVuSans-124-3" data-name="DejaVuSans-124" d="M536.51,95.33v7.83h-.65V95.33Z"/></g><g id="text_9" data-name="text 9"><path id="DejaVuSans-49-2" data-name="DejaVuSans-49" d="M536,91.51h1.51V86.28l-1.65.33v-.84l1.64-.33h.93v6.07H540v.78H536Z"/><path id="DejaVuSans-54" d="M543.94,88.5a1.23,1.23,0,0,0-1,.42,2.08,2.08,0,0,0,0,2.34,1.21,1.21,0,0,0,1,.43,1.23,1.23,0,0,0,1-.43,2.08,2.08,0,0,0,0-2.34A1.25,1.25,0,0,0,543.94,88.5Zm1.84-2.91v.85a3.79,3.79,0,0,0-.71-.26,3.34,3.34,0,0,0-.7-.08,1.65,1.65,0,0,0-1.4.62,3.27,3.27,0,0,0-.55,1.87,1.78,1.78,0,0,1,.67-.61,1.87,1.87,0,0,1,.9-.22,2.14,2.14,0,0,1,1.63.63,2.35,2.35,0,0,1,.6,1.7,2.33,2.33,0,0,1-.62,1.7,2.24,2.24,0,0,1-1.66.63,2.07,2.07,0,0,1-1.82-.91,4.64,4.64,0,0,1-.63-2.64,4.07,4.07,0,0,1,.77-2.59,2.53,2.53,0,0,1,2.07-1,3.42,3.42,0,0,1,.71.07A4.84,4.84,0,0,1,545.78,85.59Z"/></g><g id="text_10" data-name="text 10"><path id="DejaVuSansMono-Bold-77" d="M570.86,105.86h2.53l1.27,4.71,1.28-4.71h2.54v10.73h-1.82V108l-1.14,4.7h-1.69l-1.15-4.7v8.6h-1.82Z"/><path id="DejaVuSansMono-Bold-80" d="M591.24,107.64v3.15h.87a2.35,2.35,0,0,0,1.46-.35,2,2,0,0,0,0-2.44,2.28,2.28,0,0,0-1.46-.36Zm-2.12-1.78H592a5,5,0,0,1,3.19.79,3.85,3.85,0,0,1,0,5.13,5,5,0,0,1-3.19.79h-.79v4h-2.12Z"/><path id="DejaVuSansMono-Bold-82-2" data-name="DejaVuSansMono-Bold-82" d="M611.47,111.52a1.14,1.14,0,0,1,.55.3,3.61,3.61,0,0,1,.57.91l1.94,3.86h-2.32l-1.3-2.71c0-.08-.09-.18-.15-.32-.38-.81-.82-1.21-1.34-1.21h-.67v4.24h-2.12V105.86h3.06a4.72,4.72,0,0,1,3,.73,2.92,2.92,0,0,1,.9,2.39,2.68,2.68,0,0,1-.54,1.76A2.22,2.22,0,0,1,611.47,111.52Zm-2.72-3.88v2.93h1a1.86,1.86,0,0,0,1.24-.34,1.88,1.88,0,0,0,0-2.25,1.83,1.83,0,0,0-1.25-.34Z"/><path id="DejaVuSansMono-Bold-69-3" data-name="DejaVuSansMono-Bold-69" d="M631.28,116.59H624.6V105.86h6.68v1.87h-4.56V110h4.13v1.87h-4.13v2.81h4.56Z"/><path id="DejaVuSansMono-Bold-86" d="M645.53,114.82l1.89-9h2.14L647,116.59h-2.94l-2.55-10.73h2.13Z"/><path id="DejaVuSansMono-Bold-65" d="M663.25,107.8l-1,4.39h2ZM662,105.86h2.59l2.9,10.73h-2.12l-.66-2.65h-2.84l-.65,2.65h-2.12Z"/><path id="DejaVuSansMono-Bold-73-3" data-name="DejaVuSansMono-Bold-73" d="M677.78,107.73v-1.87h6.39v1.87H682v7h2.14v1.87h-6.39v-1.87h2.13v-7Z"/><path id="DejaVuSansMono-Bold-68-2" data-name="DejaVuSansMono-Bold-68" d="M697.37,107.77v6.91h.57a2,2,0,0,0,1.78-.79,5,5,0,0,0,.53-2.68,4.85,4.85,0,0,0-.53-2.65,2,2,0,0,0-1.78-.79Zm-2.12-1.91h2.27a4.92,4.92,0,0,1,3.78,1.26,5.93,5.93,0,0,1,1.16,4.09,6,6,0,0,1-1.16,4.12,4.92,4.92,0,0,1-3.78,1.26h-2.27Z"/></g><g id="text_11" data-name="text 11"><path id="DejaVuSans-124-4" data-name="DejaVuSans-124" d="M571.45,95.33v7.83h-.65V95.33Z"/></g><g id="text_12" data-name="text 12"><path id="DejaVuSans-49-3" data-name="DejaVuSans-49" d="M571,91.51h1.51V86.28l-1.65.33v-.84l1.64-.33h.93v6.07h1.51v.78H571Z"/><path id="DejaVuSans-56" d="M578.76,89a1.46,1.46,0,0,0-1,.35,1.27,1.27,0,0,0-.37,1,1.26,1.26,0,0,0,.37,1,1.46,1.46,0,0,0,1,.36,1.45,1.45,0,0,0,1-.36,1.23,1.23,0,0,0,.38-1,1.27,1.27,0,0,0-.37-1A1.47,1.47,0,0,0,578.76,89Zm-.92-.4a1.62,1.62,0,0,1-.93-.55,1.54,1.54,0,0,1-.33-1,1.6,1.6,0,0,1,.58-1.3,2.5,2.5,0,0,1,1.6-.47,2.53,2.53,0,0,1,1.61.47,1.6,1.6,0,0,1,.58,1.3,1.54,1.54,0,0,1-.33,1,1.62,1.62,0,0,1-.93.55,1.9,1.9,0,0,1,1,.61,1.71,1.71,0,0,1,.37,1.11,1.9,1.9,0,0,1-.61,1.53,2.57,2.57,0,0,1-1.74.53,2.6,2.6,0,0,1-1.74-.53,1.93,1.93,0,0,1-.61-1.53,1.72,1.72,0,0,1,.38-1.11A1.9,1.9,0,0,1,577.84,88.64Zm-.34-1.46a1.07,1.07,0,0,0,.33.83,1.33,1.33,0,0,0,.93.3,1.38,1.38,0,0,0,.94-.3,1.07,1.07,0,0,0,.33-.83,1.06,1.06,0,0,0-.33-.83,1.38,1.38,0,0,0-.94-.3,1.33,1.33,0,0,0-.93.3A1.06,1.06,0,0,0,577.5,87.18Z"/></g><g id="text_13" data-name="text 13"><path id="DejaVuSansMono-Bold-86-2" data-name="DejaVuSansMono-Bold-86" d="M714.42,114.82l1.89-9h2.13l-2.55,10.73H713l-2.56-10.73h2.14Z"/><path id="DejaVuSansMono-Bold-71" d="M734,114.65V112.6h-1.45v-1.78h3.3v4.91a4.42,4.42,0,0,1-1.35.8,4.5,4.5,0,0,1-1.57.27,3.86,3.86,0,0,1-3.22-1.45,6.53,6.53,0,0,1-1.14-4.11,6.44,6.44,0,0,1,1.15-4.14,4,4,0,0,1,3.31-1.43,4.53,4.53,0,0,1,2.44.71v2.35a3.08,3.08,0,0,0-1-.87,2.85,2.85,0,0,0-1.27-.29,2,2,0,0,0-1.81.91,5.17,5.17,0,0,0-.59,2.76,5.27,5.27,0,0,0,.57,2.72,1.86,1.86,0,0,0,1.68.93,2.37,2.37,0,0,0,.57-.06A1.06,1.06,0,0,0,734,114.65Z"/><path id="DejaVuSansMono-Bold-75-3" data-name="DejaVuSansMono-Bold-75" d="M746.27,105.86h2.12v4.24l3.32-4.24h2.4l-3.39,4.23,3.51,6.5h-2.36l-2.54-4.83-.94,1.19v3.64h-2.12Z"/><path id="DejaVuSansMono-Bold-69-4" data-name="DejaVuSansMono-Bold-69" d="M771,116.59h-6.69V105.86H771v1.87h-4.57V110h4.14v1.87h-4.14v2.81H771Z"/><path id="DejaVuSansMono-Bold-70" d="M788.85,107.73h-4.56V110h4.15v1.87h-4.15v4.68h-2.12V105.86h6.68Z"/></g><g id="text_14" data-name="text 14"><path id="DejaVuSans-124-5" data-name="DejaVuSans-124" d="M711.2,95.33v7.83h-.65V95.33Z"/></g><g id="text_15" data-name="text 15"><path id="DejaVuSans-50-2" data-name="DejaVuSans-50" d="M711.36,91.51h3.23v.78h-4.34v-.78L711.68,90c.61-.61,1-1,1.15-1.18a5,5,0,0,0,.62-.85,1.47,1.47,0,0,0,.18-.68,1.14,1.14,0,0,0-.39-.89,1.43,1.43,0,0,0-1-.34,3.15,3.15,0,0,0-.92.15,5.29,5.29,0,0,0-1,.46v-.94a7.48,7.48,0,0,1,1.05-.34,4.23,4.23,0,0,1,.89-.11,2.55,2.55,0,0,1,1.69.53,1.77,1.77,0,0,1,.64,1.42,2.15,2.15,0,0,1-.16.8,4,4,0,0,1-.58.89c-.07.09-.32.35-.73.77S712.11,90.75,711.36,91.51Z"/><path id="DejaVuSans-54-2" data-name="DejaVuSans-54" d="M718.63,88.5a1.26,1.26,0,0,0-1,.42,2.08,2.08,0,0,0,0,2.34,1.24,1.24,0,0,0,1,.43,1.21,1.21,0,0,0,1-.43,2,2,0,0,0,0-2.34A1.23,1.23,0,0,0,718.63,88.5Zm1.84-2.91v.85a4,4,0,0,0-.7-.26,3.43,3.43,0,0,0-.71-.08,1.66,1.66,0,0,0-1.4.62,3.35,3.35,0,0,0-.55,1.87,1.89,1.89,0,0,1,1.58-.83,2.14,2.14,0,0,1,1.63.63,2.66,2.66,0,0,1,0,3.4,2.22,2.22,0,0,1-1.66.63,2.06,2.06,0,0,1-1.81-.91,4.64,4.64,0,0,1-.63-2.64,4.07,4.07,0,0,1,.77-2.59,2.51,2.51,0,0,1,2.07-1,3.39,3.39,0,0,1,.7.07A4.3,4.3,0,0,1,720.47,85.59Z"/></g><g id="text_16" data-name="text 16"><path id="DejaVuSansMono-Bold-71-2" data-name="DejaVuSansMono-Bold-71" d="M803.61,114.65V112.6h-1.45v-1.78h3.3v4.91a4.42,4.42,0,0,1-1.35.8,4.52,4.52,0,0,1-1.58.27,3.85,3.85,0,0,1-3.21-1.45,6.53,6.53,0,0,1-1.14-4.11,6.44,6.44,0,0,1,1.15-4.14,4,4,0,0,1,3.31-1.43,4.53,4.53,0,0,1,2.44.71v2.35a3,3,0,0,0-1-.87,2.78,2.78,0,0,0-1.26-.29,2,2,0,0,0-1.81.91,5.17,5.17,0,0,0-.59,2.76A5.27,5.27,0,0,0,801,114a1.86,1.86,0,0,0,1.68.93,2.37,2.37,0,0,0,.57-.06A1.06,1.06,0,0,0,803.61,114.65Z"/><path id="DejaVuSansMono-Bold-86-3" data-name="DejaVuSansMono-Bold-86" d="M819.48,114.82l1.89-9h2.14L821,116.59H818l-2.55-10.73h2.13Z"/><path id="DejaVuSansMono-Bold-65-2" data-name="DejaVuSansMono-Bold-65" d="M837.2,107.8l-1,4.39h2Zm-1.29-1.94h2.59l2.9,10.73h-2.12l-.66-2.65h-2.84l-.65,2.65H833Z"/><path id="DejaVuSansMono-Bold-84-3" data-name="DejaVuSansMono-Bold-84" d="M856,116.59h-2.12v-8.87h-2.72v-1.86h7.57v1.86H856Z"/><path id="DejaVuSansMono-Bold-78-3" data-name="DejaVuSansMono-Bold-78" d="M869.07,105.86h2.28l3,7.8v-7.8h1.87v10.73h-2.26l-3-7.8v7.8h-1.86Z"/><path id="DejaVuSansMono-Bold-84-4" data-name="DejaVuSansMono-Bold-84" d="M891.42,116.59H889.3v-8.87h-2.72v-1.86h7.56v1.86h-2.72Z"/></g><g id="text_17" data-name="text 17"><path id="DejaVuSans-124-6" data-name="DejaVuSans-124" d="M798.55,95.33v7.83h-.65V95.33Z"/></g><g id="text_18" data-name="text 18"><path id="DejaVuSans-51" d="M800.72,88.6a1.75,1.75,0,0,1,1,.59,1.68,1.68,0,0,1,.38,1.11,1.92,1.92,0,0,1-.7,1.57,3.09,3.09,0,0,1-2,.55,5.55,5.55,0,0,1-.89-.08,7.4,7.4,0,0,1-.94-.26v-.89a3.44,3.44,0,0,0,.84.34,4.35,4.35,0,0,0,1,.11,2.18,2.18,0,0,0,1.33-.34,1.19,1.19,0,0,0,.46-1,1.16,1.16,0,0,0-.43-1A1.8,1.8,0,0,0,799.6,89h-.8v-.76h.84a1.72,1.72,0,0,0,1-.27,1,1,0,0,0,0-1.6,1.73,1.73,0,0,0-1.07-.28,4.06,4.06,0,0,0-.82.08,7.23,7.23,0,0,0-.95.26v-.83a8.54,8.54,0,0,1,1-.22,5.24,5.24,0,0,1,.86-.07,2.63,2.63,0,0,1,1.67.48,1.56,1.56,0,0,1,.62,1.29,1.44,1.44,0,0,1-.33,1A1.71,1.71,0,0,1,800.72,88.6Z"/><path id="DejaVuSans-49-4" data-name="DejaVuSans-49" d="M804.05,91.51h1.51V86.28l-1.65.33v-.84l1.64-.33h.93v6.07H808v.78h-3.94Z"/></g><g id="text_19" data-name="text 19"><path id="DejaVuSansMono-Bold-70-2" data-name="DejaVuSansMono-Bold-70" d="M910.15,107.73h-4.56V110h4.15v1.87h-4.15v4.68h-2.12V105.86h6.68Z"/><path id="DejaVuSansMono-Bold-70-3" data-name="DejaVuSansMono-Bold-70" d="M927.86,107.73H923.3V110h4.16v1.87H923.3v4.68h-2.12V105.86h6.68Z"/><path id="DejaVuSansMono-Bold-75-4" data-name="DejaVuSansMono-Bold-75" d="M938.43,105.86h2.12v4.24l3.32-4.24h2.4l-3.38,4.23,3.5,6.5H944l-2.55-4.83-.94,1.19v3.64h-2.12Z"/></g><g id="text_20" data-name="text 20"><path id="DejaVuSans-124-7" data-name="DejaVuSans-124" d="M903.36,95.33v7.83h-.64V95.33Z"/></g><g id="text_21" data-name="text 21"><path id="DejaVuSans-51-2" data-name="DejaVuSans-51" d="M905.53,88.6a1.74,1.74,0,0,1,1,.59,1.67,1.67,0,0,1,.37,1.11,1.91,1.91,0,0,1-.69,1.57,3.13,3.13,0,0,1-2,.55,5.45,5.45,0,0,1-.89-.08,7.4,7.4,0,0,1-.94-.26v-.89a3.15,3.15,0,0,0,.84.34,4.35,4.35,0,0,0,1,.11,2.2,2.2,0,0,0,1.33-.34,1.18,1.18,0,0,0,.45-1,1.15,1.15,0,0,0-.42-1,1.82,1.82,0,0,0-1.18-.34h-.8v-.76h.84a1.72,1.72,0,0,0,1-.27,1.06,1.06,0,0,0,0-1.6,1.75,1.75,0,0,0-1.07-.28,4,4,0,0,0-.82.08,7.79,7.79,0,0,0-1,.26v-.83a8.54,8.54,0,0,1,1-.22,5.45,5.45,0,0,1,.87-.07,2.65,2.65,0,0,1,1.67.48,1.55,1.55,0,0,1,.61,1.29,1.43,1.43,0,0,1-.32,1A1.74,1.74,0,0,1,905.53,88.6Z"/><path id="DejaVuSans-55" d="M908.47,85.44h4.4v.4l-2.49,6.45h-1l2.34-6.07h-3.29Z"/></g><g id="text_22" data-name="text 22"><path id="DejaVuSansMono-Bold-80-2" data-name="DejaVuSansMono-Bold-80" d="M957.85,107.64v3.15h.87a2.35,2.35,0,0,0,1.46-.35,2,2,0,0,0,0-2.44,2.28,2.28,0,0,0-1.46-.36Zm-2.12-1.78h2.91a5,5,0,0,1,3.19.79,3.85,3.85,0,0,1,0,5.13,5,5,0,0,1-3.19.79h-.79v4h-2.12Z"/><path id="DejaVuSansMono-Bold-80-3" data-name="DejaVuSansMono-Bold-80" d="M975.57,107.64v3.15h.87a2.35,2.35,0,0,0,1.46-.35,2,2,0,0,0,0-2.44,2.28,2.28,0,0,0-1.46-.36Zm-2.12-1.78h2.91a5.06,5.06,0,0,1,3.19.79,3.88,3.88,0,0,1,0,5.13,5.06,5.06,0,0,1-3.19.79h-.79v4h-2.12Z"/></g><g id="text_23" data-name="text 23"><path id="DejaVuSans-124-8" data-name="DejaVuSans-124" d="M955.77,95.33v7.83h-.65V95.33Z"/></g><g id="text_24" data-name="text 24"><path id="DejaVuSans-52" d="M957.68,86.25l-2.34,3.65h2.34Zm-.24-.81h1.16V89.9h1v.77h-1v1.62h-.92V90.67h-3.09v-.89Z"/><path id="DejaVuSans-48" d="M963.09,86.05a1.16,1.16,0,0,0-1.08.71A6.36,6.36,0,0,0,962,91a1.18,1.18,0,0,0,2.16,0,6.36,6.36,0,0,0,0-4.22A1.16,1.16,0,0,0,963.09,86.05Zm0-.73a2,2,0,0,1,1.76.91,6,6,0,0,1,0,5.28,2.16,2.16,0,0,1-3.52,0,6,6,0,0,1,0-5.28A2,2,0,0,1,963.09,85.32Z"/></g><g id="text_25" data-name="text 25"><path id="DejaVuSansMono-Bold-67-2" data-name="DejaVuSansMono-Bold-67" d="M997.27,116.28a4.8,4.8,0,0,1-1.06.39,5.35,5.35,0,0,1-1.16.13,4,4,0,0,1-3.31-1.43,8.07,8.07,0,0,1,0-8.27,4,4,0,0,1,3.31-1.43,4.94,4.94,0,0,1,1.17.13,4,4,0,0,1,1,.38v2.36a4,4,0,0,0-1.06-.73,2.45,2.45,0,0,0-1.06-.24,2,2,0,0,0-1.75.92,6.56,6.56,0,0,0,0,5.48,2,2,0,0,0,1.75.92,2.59,2.59,0,0,0,1.06-.23,4.1,4.1,0,0,0,1.06-.74Z"/><path id="DejaVuSansMono-Bold-86-4" data-name="DejaVuSansMono-Bold-86" d="M1011.65,114.82l1.89-9h2.13l-2.55,10.73h-2.94l-2.55-10.73h2.14Z"/><path id="DejaVuSansMono-Bold-83-2" data-name="DejaVuSansMono-Bold-83" d="M1028.6,111.88a5.49,5.49,0,0,1-2.17-1.28,2.76,2.76,0,0,1-.56-1.81,2.93,2.93,0,0,1,.93-2.29,3.75,3.75,0,0,1,2.57-.83,6.29,6.29,0,0,1,1.48.17,7.42,7.42,0,0,1,1.46.5v2.07a5.51,5.51,0,0,0-1.39-.74,4,4,0,0,0-1.39-.25,1.93,1.93,0,0,0-1.18.31,1,1,0,0,0-.41.88,1,1,0,0,0,.3.74,3.94,3.94,0,0,0,1.25.64l.91.35a4.08,4.08,0,0,1,1.9,1.25,3.14,3.14,0,0,1,.62,2,3,3,0,0,1-1,2.43,4.43,4.43,0,0,1-2.89.8,7,7,0,0,1-3.15-.76v-2.19a7.48,7.48,0,0,0,1.64.9,4.62,4.62,0,0,0,1.57.29,1.88,1.88,0,0,0,1.21-.35,1.23,1.23,0,0,0,.44-1,1.32,1.32,0,0,0-.29-.84,1.92,1.92,0,0,0-.83-.57Z"/><path id="DejaVuSansMono-Bold-86-5" data-name="DejaVuSansMono-Bold-86" d="M1047.08,114.82l1.89-9h2.14l-2.55,10.73h-2.94l-2.55-10.73h2.13Z"/><path id="DejaVuSansMono-Bold-89" d="M1060.43,105.86h2.29l2.08,4.31,2.09-4.31h2.29l-3.31,6.5v4.23h-2.12v-4.23Z"/><path id="DejaVuSansMono-Bold-82-3" data-name="DejaVuSansMono-Bold-82" d="M1083.89,111.52a1.19,1.19,0,0,1,.55.3,3.61,3.61,0,0,1,.57.91l1.94,3.86h-2.33l-1.29-2.71c0-.08-.09-.18-.15-.32-.38-.81-.82-1.21-1.34-1.21h-.67v4.24h-2.12V105.86h3.06a4.72,4.72,0,0,1,3,.73,2.92,2.92,0,0,1,.9,2.39,2.68,2.68,0,0,1-.54,1.76A2.24,2.24,0,0,1,1083.89,111.52Zm-2.72-3.88v2.93h1a1.86,1.86,0,0,0,1.24-.34,1.48,1.48,0,0,0,.38-1.13,1.45,1.45,0,0,0-.37-1.12,1.83,1.83,0,0,0-1.25-.34Z"/><path id="DejaVuSansMono-Bold-67-3" data-name="DejaVuSansMono-Bold-67" d="M1103.58,116.28a5,5,0,0,1-1.06.39,5.5,5.5,0,0,1-1.16.13,4,4,0,0,1-3.31-1.43,8,8,0,0,1,0-8.27,4,4,0,0,1,3.31-1.43,5.06,5.06,0,0,1,1.17.13,4.25,4.25,0,0,1,1,.38v2.36a4.21,4.21,0,0,0-1.06-.73,2.48,2.48,0,0,0-1.06-.24,2,2,0,0,0-1.76.92,6.66,6.66,0,0,0,0,5.48,2,2,0,0,0,1.76.92,2.63,2.63,0,0,0,1.06-.23,4.27,4.27,0,0,0,1.06-.74Z"/><path id="DejaVuSansMono-Bold-71-3" data-name="DejaVuSansMono-Bold-71" d="M1119.79,114.65V112.6h-1.45v-1.78h3.31v4.91a4.42,4.42,0,0,1-1.35.8,4.56,4.56,0,0,1-1.58.27,3.87,3.87,0,0,1-3.22-1.45,6.59,6.59,0,0,1-1.13-4.11,6.5,6.5,0,0,1,1.14-4.14,4,4,0,0,1,3.31-1.43,4.53,4.53,0,0,1,1.27.18,4.64,4.64,0,0,1,1.18.53v2.35a3,3,0,0,0-1-.87,2.82,2.82,0,0,0-1.27-.29,2,2,0,0,0-1.8.91,5.07,5.07,0,0,0-.6,2.76,5.26,5.26,0,0,0,.58,2.72,1.84,1.84,0,0,0,1.67.93,2.46,2.46,0,0,0,.58-.06A1,1,0,0,0,1119.79,114.65Z"/></g><g id="text_26" data-name="text 26"><path id="DejaVuSans-124-9" data-name="DejaVuSans-124" d="M990.71,95.33v7.83h-.65V95.33Z"/></g><g id="text_27" data-name="text 27"><path id="DejaVuSans-52-2" data-name="DejaVuSans-52" d="M992.62,86.25l-2.34,3.65h2.34Zm-.25-.81h1.17V89.9h1v.77h-1v1.62h-.92V90.67h-3.09v-.89Z"/><path id="DejaVuSans-50-3" data-name="DejaVuSans-50" d="M996.85,91.51h3.23v.78h-4.35v-.78L997.17,90c.61-.61,1-1,1.14-1.18a4.09,4.09,0,0,0,.62-.85,1.47,1.47,0,0,0,.18-.68,1.16,1.16,0,0,0-.38-.89,1.44,1.44,0,0,0-1-.34,3.1,3.1,0,0,0-.92.15,5,5,0,0,0-1,.46v-.94a7.82,7.82,0,0,1,1-.34,4.31,4.31,0,0,1,.89-.11,2.58,2.58,0,0,1,1.7.53,1.76,1.76,0,0,1,.63,1.42,2,2,0,0,1-.16.8,3.58,3.58,0,0,1-.57.89c-.08.09-.32.35-.73.77Z"/></g><g id="text_28" data-name="text 28"><path id="DejaVuSansMono-Bold-71-4" data-name="DejaVuSansMono-Bold-71" d="M1135.53,114.65V112.6h-1.46v-1.78h3.31v4.91a4.42,4.42,0,0,1-1.35.8,4.52,4.52,0,0,1-1.58.27,3.85,3.85,0,0,1-3.21-1.45,6.53,6.53,0,0,1-1.14-4.11,6.44,6.44,0,0,1,1.15-4.14,4,4,0,0,1,3.31-1.43,4.58,4.58,0,0,1,1.27.18,4.73,4.73,0,0,1,1.17.53v2.35a3,3,0,0,0-1-.87,2.78,2.78,0,0,0-1.26-.29,2,2,0,0,0-1.81.91,5.17,5.17,0,0,0-.59,2.76,5.27,5.27,0,0,0,.57,2.72,1.85,1.85,0,0,0,1.68.93,2.37,2.37,0,0,0,.57-.06A1.13,1.13,0,0,0,1135.53,114.65Z"/></g><g id="text_29" data-name="text 29"><path id="DejaVuSans-124-10" data-name="DejaVuSans-124" d="M1130.47,95.33v7.83h-.65V95.33Z"/></g><g id="text_30" data-name="text 30"><path id="DejaVuSans-53" d="M1129.84,85.44h3.63v.78h-2.78V87.9a2.8,2.8,0,0,1,.8-.14,2.55,2.55,0,0,1,1.82.63,2.21,2.21,0,0,1,.67,1.7,2.18,2.18,0,0,1-.69,1.72,2.8,2.8,0,0,1-1.94.61,5.3,5.3,0,0,1-.88-.07,6.79,6.79,0,0,1-.92-.22V91.2a3.4,3.4,0,0,0,.85.33,4,4,0,0,0,.93.11,1.81,1.81,0,0,0,1.26-.42,1.42,1.42,0,0,0,.46-1.13,1.45,1.45,0,0,0-.46-1.13,1.81,1.81,0,0,0-1.26-.42,3.72,3.72,0,0,0-.74.08,3.94,3.94,0,0,0-.75.26Z"/><path id="DejaVuSans-48-2" data-name="DejaVuSans-48" d="M1137.78,86.05a1.16,1.16,0,0,0-1.07.71,6.36,6.36,0,0,0,0,4.22,1.17,1.17,0,0,0,2.15,0,6.2,6.2,0,0,0,0-4.22A1.16,1.16,0,0,0,1137.78,86.05Zm0-.73a2,2,0,0,1,1.76.91,6,6,0,0,1,0,5.28,2.15,2.15,0,0,1-3.51,0,6,6,0,0,1,0-5.28A2,2,0,0,1,1137.78,85.32Z"/></g><g id="text_31" data-name="text 31"><path id="DejaVuSansMono-Bold-67-4" data-name="DejaVuSansMono-Bold-67" d="M281,185.71a4.25,4.25,0,0,1-1,.38,4.91,4.91,0,0,1-1.16.13,4,4,0,0,1-3.32-1.43,8.07,8.07,0,0,1,0-8.27,4,4,0,0,1,3.32-1.43,5.67,5.67,0,0,1,1.17.13,4.46,4.46,0,0,1,1,.39V178a3.94,3.94,0,0,0-1.06-.74,2.59,2.59,0,0,0-1.06-.23,2,2,0,0,0-1.75.92,6.66,6.66,0,0,0,0,5.48,2,2,0,0,0,1.75.92,2.59,2.59,0,0,0,1.06-.23,4.18,4.18,0,0,0,1.06-.74Z"/><path id="DejaVuSansMono-Bold-67-5" data-name="DejaVuSansMono-Bold-67" d="M298.74,185.71a4.32,4.32,0,0,1-1.06.38,4.79,4.79,0,0,1-1.16.13,4,4,0,0,1-3.31-1.43,8.07,8.07,0,0,1,0-8.27,4,4,0,0,1,3.31-1.43,5.52,5.52,0,0,1,1.17.13,4.38,4.38,0,0,1,1.05.39V178a3.94,3.94,0,0,0-1.06-.74,2.59,2.59,0,0,0-1.06-.23,2,2,0,0,0-1.75.92,6.56,6.56,0,0,0,0,5.48,2,2,0,0,0,1.75.92,2.59,2.59,0,0,0,1.06-.23,4.18,4.18,0,0,0,1.06-.74Z"/><path id="DejaVuSansMono-Bold-78-4" data-name="DejaVuSansMono-Bold-78" d="M309.55,175.29h2.28l3,7.79v-7.79h1.86V186h-2.26l-3-7.79V186h-1.87Z"/><path id="DejaVuSansMono-Bold-83-3" data-name="DejaVuSansMono-Bold-83" d="M330.08,181.31a5.45,5.45,0,0,1-2.17-1.28,2.71,2.71,0,0,1-.57-1.81,2.91,2.91,0,0,1,.93-2.29,3.7,3.7,0,0,1,2.57-.84,6.86,6.86,0,0,1,1.48.17,8.13,8.13,0,0,1,1.46.5v2.07a5.94,5.94,0,0,0-1.38-.73,4.1,4.1,0,0,0-1.4-.25,1.93,1.93,0,0,0-1.18.31,1,1,0,0,0-.41.88,1,1,0,0,0,.3.74,4.17,4.17,0,0,0,1.25.64l.91.34a4.26,4.26,0,0,1,1.91,1.26,3.16,3.16,0,0,1,.61,2,3,3,0,0,1-1,2.42,4.42,4.42,0,0,1-2.9.8,6.73,6.73,0,0,1-1.6-.19,6.86,6.86,0,0,1-1.55-.56v-2.19a7.48,7.48,0,0,0,1.64.9,4.67,4.67,0,0,0,1.57.29,1.88,1.88,0,0,0,1.21-.35,1.23,1.23,0,0,0,.44-1,1.32,1.32,0,0,0-.29-.84,1.85,1.85,0,0,0-.83-.58Z"/><path id="DejaVuSansMono-Bold-69-5" data-name="DejaVuSansMono-Bold-69" d="M352,186h-6.68V175.29H352v1.87h-4.56v2.31h4.13v1.87h-4.13v2.81H352Z"/><path id="DejaVuSansMono-Bold-71-5" data-name="DejaVuSansMono-Bold-71" d="M368.11,184.07v-2h-1.45v-1.78H370v4.91a4.23,4.23,0,0,1-1.34.79,4.56,4.56,0,0,1-1.58.27,3.87,3.87,0,0,1-3.22-1.44,8.08,8.08,0,0,1,0-8.26,4,4,0,0,1,3.31-1.43,4.54,4.54,0,0,1,1.27.19,4.61,4.61,0,0,1,1.18.52v2.35a3,3,0,0,0-1-.86,2.7,2.7,0,0,0-1.27-.29,2,2,0,0,0-1.8.91,5,5,0,0,0-.6,2.75,5.17,5.17,0,0,0,.58,2.72,1.83,1.83,0,0,0,1.67.94,2.52,2.52,0,0,0,.58-.06A.89.89,0,0,0,368.11,184.07Z"/><path id="DejaVuSansMono-Bold-76-2" data-name="DejaVuSansMono-Bold-76" d="M381.18,186V175.29h2.12v8.86h4.53V186Z"/><path id="DejaVuSansMono-Bold-81-2" data-name="DejaVuSansMono-Bold-81" d="M402,186.18l-.17,0h-.13a3.16,3.16,0,0,1-2.79-1.4,9.49,9.49,0,0,1,0-8.32,3.52,3.52,0,0,1,5.63,0,7.51,7.51,0,0,1,1,4.16,9.63,9.63,0,0,1-.45,3.17,3.39,3.39,0,0,1-1.32,1.82l1.34,1.31L403.6,188Zm-.28-9.18a1.25,1.25,0,0,0-1.19.86,7.62,7.62,0,0,0-.37,2.8,7.52,7.52,0,0,0,.37,2.79,1.25,1.25,0,0,0,2.38,0,7.52,7.52,0,0,0,.37-2.79,7.62,7.62,0,0,0-.37-2.8A1.25,1.25,0,0,0,401.71,177Z"/></g><g id="text_32" data-name="text 32"><path id="DejaVuSans-124-11" data-name="DejaVuSans-124" d="M274.47,164.76v7.83h-.65v-7.83Z"/></g><g id="text_33" data-name="text 33"><path id="DejaVuSans-53-2" data-name="DejaVuSans-53" d="M273.84,154.87h3.63v.78h-2.79v1.68a3.11,3.11,0,0,1,.41-.11,2.69,2.69,0,0,1,.4,0,2.55,2.55,0,0,1,1.82.63,2.24,2.24,0,0,1,.67,1.7,2.18,2.18,0,0,1-.69,1.72,2.87,2.87,0,0,1-1.94.61,6.65,6.65,0,0,1-.88-.07,8.16,8.16,0,0,1-.92-.22v-.94a3.87,3.87,0,0,0,.85.34,4,4,0,0,0,.93.11,1.81,1.81,0,0,0,1.26-.42,1.47,1.47,0,0,0,.46-1.13,1.45,1.45,0,0,0-.46-1.13,1.81,1.81,0,0,0-1.26-.42,3.65,3.65,0,0,0-.74.08,3.71,3.71,0,0,0-.75.26Z"/><path id="DejaVuSans-49-5" data-name="DejaVuSans-49" d="M280,160.94h1.52v-5.23l-1.65.33v-.84l1.64-.33h.92v6.07h1.52v.78h-4Z"/></g><g id="text_34" data-name="text 34"><path id="DejaVuSansMono-Bold-67-6" data-name="DejaVuSansMono-Bold-67" d="M420.78,185.71a4.47,4.47,0,0,1-1.06.38,4.85,4.85,0,0,1-1.16.13,4,4,0,0,1-3.31-1.43,8.07,8.07,0,0,1,0-8.27,4,4,0,0,1,3.31-1.43,5.52,5.52,0,0,1,1.17.13,4.38,4.38,0,0,1,1,.39V178a4.1,4.1,0,0,0-1.06-.74,2.59,2.59,0,0,0-1.06-.23,2,2,0,0,0-1.76.92,6.66,6.66,0,0,0,0,5.48,2,2,0,0,0,1.76.92,2.59,2.59,0,0,0,1.06-.23,4.36,4.36,0,0,0,1.06-.74Z"/><path id="DejaVuSansMono-Bold-77-2" data-name="DejaVuSansMono-Bold-77" d="M431.35,175.29h2.53l1.28,4.7,1.27-4.7H439V186h-1.82v-8.59L436,182.11h-1.69l-1.14-4.69V186h-1.83Z"/><path id="DejaVuSansMono-Bold-78-5" data-name="DejaVuSansMono-Bold-78" d="M449.3,175.29h2.28l3,7.79v-7.79h1.87V186h-2.26l-3-7.79V186H449.3Z"/><path id="DejaVuSansMono-Bold-84-5" data-name="DejaVuSansMono-Bold-84" d="M471.66,186h-2.12v-8.87h-2.73v-1.85h7.57v1.85h-2.72Z"/><path id="DejaVuSansMono-Bold-83-4" data-name="DejaVuSansMono-Bold-83" d="M487.55,181.31a5.53,5.53,0,0,1-2.17-1.28,2.71,2.71,0,0,1-.57-1.81,2.91,2.91,0,0,1,.93-2.29,3.72,3.72,0,0,1,2.57-.84,6.79,6.79,0,0,1,1.48.17,8.5,8.5,0,0,1,1.47.5v2.07a6,6,0,0,0-1.39-.73,4,4,0,0,0-1.39-.25,1.89,1.89,0,0,0-1.18.31,1,1,0,0,0-.41.88,1,1,0,0,0,.3.74,4.08,4.08,0,0,0,1.24.64l.91.34a4.2,4.2,0,0,1,1.91,1.26,3.1,3.1,0,0,1,.61,2,3,3,0,0,1-1,2.42,4.42,4.42,0,0,1-2.9.8,6.79,6.79,0,0,1-1.6-.19,6.86,6.86,0,0,1-1.55-.56v-2.19a7.54,7.54,0,0,0,1.65.9,4.58,4.58,0,0,0,1.57.29,1.89,1.89,0,0,0,1.21-.35,1.22,1.22,0,0,0,.43-1,1.32,1.32,0,0,0-.29-.84,1.85,1.85,0,0,0-.83-.58Z"/><path id="DejaVuSansMono-Bold-84-6" data-name="DejaVuSansMono-Bold-84" d="M507.09,186H505v-8.87h-2.72v-1.85h7.56v1.85h-2.72Z"/><path id="DejaVuSansMono-Bold-83-5" data-name="DejaVuSansMono-Bold-83" d="M523,181.31a5.61,5.61,0,0,1-2.17-1.28,2.76,2.76,0,0,1-.56-1.81,2.91,2.91,0,0,1,.93-2.29,3.7,3.7,0,0,1,2.57-.84,6.86,6.86,0,0,1,1.48.17,8.13,8.13,0,0,1,1.46.5v2.07a5.81,5.81,0,0,0-1.39-.73,4,4,0,0,0-1.39-.25,1.93,1.93,0,0,0-1.18.31,1,1,0,0,0-.41.88,1,1,0,0,0,.3.74,4.17,4.17,0,0,0,1.25.64l.91.34a4.16,4.16,0,0,1,1.9,1.26,3.1,3.1,0,0,1,.62,2,3,3,0,0,1-1,2.42,4.39,4.39,0,0,1-2.89.8,7.15,7.15,0,0,1-3.15-.75v-2.19a7.48,7.48,0,0,0,1.64.9,4.62,4.62,0,0,0,1.57.29,1.88,1.88,0,0,0,1.21-.35,1.23,1.23,0,0,0,.44-1,1.32,1.32,0,0,0-.29-.84,1.85,1.85,0,0,0-.83-.58Z"/><path id="DejaVuSansMono-Bold-89-2" data-name="DejaVuSansMono-Bold-89" d="M537.09,175.29h2.29l2.08,4.31,2.09-4.31h2.29l-3.31,6.5V186h-2.12v-4.22Z"/><path id="DejaVuSansMono-Bold-76-3" data-name="DejaVuSansMono-Bold-76" d="M556.37,186V175.29h2.12v8.86H563V186Z"/><path id="DejaVuSansMono-Bold-83-6" data-name="DejaVuSansMono-Bold-83" d="M576.14,181.31A5.53,5.53,0,0,1,574,180a2.71,2.71,0,0,1-.57-1.81,2.91,2.91,0,0,1,.93-2.29,3.72,3.72,0,0,1,2.57-.84,6.79,6.79,0,0,1,1.48.17,8.13,8.13,0,0,1,1.46.5v2.07a5.75,5.75,0,0,0-1.38-.73,4.1,4.1,0,0,0-1.4-.25,1.93,1.93,0,0,0-1.18.31,1,1,0,0,0-.41.88,1,1,0,0,0,.3.74,4.17,4.17,0,0,0,1.25.64l.91.34a4.2,4.2,0,0,1,1.91,1.26,3.16,3.16,0,0,1,.61,2,3,3,0,0,1-1,2.42,4.42,4.42,0,0,1-2.9.8A6.73,6.73,0,0,1,575,186a6.86,6.86,0,0,1-1.55-.56v-2.19a7.72,7.72,0,0,0,1.64.9,4.67,4.67,0,0,0,1.57.29,1.91,1.91,0,0,0,1.22-.35,1.25,1.25,0,0,0,.43-1,1.32,1.32,0,0,0-.29-.84,1.85,1.85,0,0,0-.83-.58Z"/><path id="DejaVuSansMono-Bold-75-5" data-name="DejaVuSansMono-Bold-75" d="M591,175.29h2.12v4.24l3.32-4.24h2.4l-3.39,4.22L599,186h-2.36l-2.54-4.82-.94,1.19V186H591Z"/><path id="DejaVuSansMono-Bold-84-7" data-name="DejaVuSansMono-Bold-84" d="M613.4,186h-2.12v-8.87h-2.73v-1.85h7.57v1.85H613.4Z"/><path id="DejaVuSansMono-Bold-76-4" data-name="DejaVuSansMono-Bold-76" d="M627.24,186V175.29h2.12v8.86h4.54V186Z"/><path id="DejaVuSansMono-Bold-70-4" data-name="DejaVuSansMono-Bold-70" d="M651.33,177.16h-4.56v2.31h4.15v1.87h-4.15V186h-2.12V175.29h6.68Z"/><path id="DejaVuSansMono-Bold-69-6" data-name="DejaVuSansMono-Bold-69" d="M669,186h-6.68V175.29H669v1.87h-4.56v2.31h4.13v1.87h-4.13v2.81H669Z"/><path id="DejaVuSansMono-Bold-73-4" data-name="DejaVuSansMono-Bold-73" d="M680,177.16v-1.87h6.38v1.87h-2.13v7h2.13V186H680v-1.86h2.13v-7Z"/></g><g id="text_35" data-name="text 35"><path id="DejaVuSans-124-12" data-name="DejaVuSans-124" d="M414.22,164.76v7.83h-.65v-7.83Z"/></g><g id="text_36" data-name="text 36"><path id="DejaVuSans-53-3" data-name="DejaVuSans-53" d="M413.59,154.87h3.64v.78h-2.79v1.68a3,3,0,0,1,.4-.11,2.83,2.83,0,0,1,.41,0,2.52,2.52,0,0,1,1.81.63,2.49,2.49,0,0,1,0,3.42,2.84,2.84,0,0,1-1.94.61,6.79,6.79,0,0,1-.88-.07,9.34,9.34,0,0,1-.92-.22v-.94a3.53,3.53,0,0,0,1.78.45,1.81,1.81,0,0,0,1.26-.42,1.62,1.62,0,0,0,0-2.26,1.81,1.81,0,0,0-1.26-.42,3.81,3.81,0,0,0-.74.08,4.19,4.19,0,0,0-.75.26Z"/><path id="DejaVuSans-57" d="M419.58,161.57v-.84a4,4,0,0,0,.71.25,2.86,2.86,0,0,0,.7.09,1.68,1.68,0,0,0,1.4-.62,3.27,3.27,0,0,0,.56-1.87,1.86,1.86,0,0,1-.68.6,1.93,1.93,0,0,1-.9.22,2.14,2.14,0,0,1-1.63-.63,2.34,2.34,0,0,1-.6-1.7,2.31,2.31,0,0,1,.63-1.69,2.23,2.23,0,0,1,1.66-.64,2.06,2.06,0,0,1,1.81.92,4.59,4.59,0,0,1,.63,2.64,4,4,0,0,1-.77,2.58,2.49,2.49,0,0,1-2.07,1,3.39,3.39,0,0,1-.7-.07A6.11,6.11,0,0,1,419.58,161.57Zm1.85-2.9a1.24,1.24,0,0,0,1-.43,2.07,2.07,0,0,0,0-2.33,1.24,1.24,0,0,0-1-.43,1.21,1.21,0,0,0-1,.43,2.07,2.07,0,0,0,0,2.33A1.21,1.21,0,0,0,421.43,158.67Z"/></g><g id="text_37" data-name="text 37"><path id="DejaVuSansMono-Bold-84-8" data-name="DejaVuSansMono-Bold-84" d="M698,186H695.9v-8.87h-2.73v-1.85h7.57v1.85H698Z"/><path id="DejaVuSansMono-Bold-86-6" data-name="DejaVuSansMono-Bold-86" d="M714.67,184.25l1.89-9h2.13L716.14,186H713.2l-2.55-10.72h2.14Z"/><path id="DejaVuSansMono-Bold-80-4" data-name="DejaVuSansMono-Bold-80" d="M731.24,177.07v3.15h.87a2.26,2.26,0,0,0,1.46-.36,1.95,1.95,0,0,0,0-2.44,2.33,2.33,0,0,0-1.46-.35Zm-2.12-1.78H732a5.09,5.09,0,0,1,3.2.79,3.88,3.88,0,0,1,0,5.13,5.09,5.09,0,0,1-3.2.79h-.79v4h-2.12Z"/><path id="DejaVuSansMono-Bold-76-5" data-name="DejaVuSansMono-Bold-76" d="M747.29,186V175.29h2.12v8.86H754V186Z"/><path id="DejaVuSansMono-Bold-83-7" data-name="DejaVuSansMono-Bold-83" d="M767.06,181.31a5.53,5.53,0,0,1-2.17-1.28,2.71,2.71,0,0,1-.57-1.81,2.89,2.89,0,0,1,.94-2.29,3.67,3.67,0,0,1,2.56-.84,6.79,6.79,0,0,1,1.48.17,8.23,8.23,0,0,1,1.47.5v2.07a6,6,0,0,0-1.39-.73,4,4,0,0,0-1.39-.25,1.89,1.89,0,0,0-1.18.31,1,1,0,0,0-.41.88,1,1,0,0,0,.3.74,4.08,4.08,0,0,0,1.24.64l.92.34a4.22,4.22,0,0,1,1.9,1.26,3.1,3.1,0,0,1,.61,2,3,3,0,0,1-1,2.42,4.42,4.42,0,0,1-2.9.8,6.79,6.79,0,0,1-1.6-.19,6.61,6.61,0,0,1-1.54-.56v-2.19a7.26,7.26,0,0,0,1.64.9,4.62,4.62,0,0,0,1.57.29,1.89,1.89,0,0,0,1.21-.35,1.22,1.22,0,0,0,.43-1,1.26,1.26,0,0,0-.29-.84,1.85,1.85,0,0,0-.83-.58Z"/><path id="DejaVuSansMono-Bold-81-3" data-name="DejaVuSansMono-Bold-81" d="M785.83,186.18l-.17,0h-.14a3.16,3.16,0,0,1-2.79-1.4,9.49,9.49,0,0,1,0-8.32,3.52,3.52,0,0,1,5.63,0,7.51,7.51,0,0,1,.95,4.16,9.63,9.63,0,0,1-.45,3.17,3.39,3.39,0,0,1-1.32,1.82l1.34,1.31L787.43,188Zm-.29-9.18a1.25,1.25,0,0,0-1.19.86,7.62,7.62,0,0,0-.37,2.8,7.52,7.52,0,0,0,.37,2.79,1.25,1.25,0,0,0,2.38,0,7.52,7.52,0,0,0,.37-2.79,7.62,7.62,0,0,0-.37-2.8A1.25,1.25,0,0,0,785.54,177Z"/><path id="DejaVuSansMono-Bold-71-6" data-name="DejaVuSansMono-Bold-71" d="M805.1,184.07v-2h-1.46v-1.78H807v4.91a4.39,4.39,0,0,1-1.35.79,4.52,4.52,0,0,1-1.58.27,3.85,3.85,0,0,1-3.21-1.44,8,8,0,0,1,0-8.26,4,4,0,0,1,3.31-1.43,4.6,4.6,0,0,1,1.27.19,4.7,4.7,0,0,1,1.17.52v2.35a3,3,0,0,0-1-.86,2.66,2.66,0,0,0-1.26-.29,2,2,0,0,0-1.81.91,5.13,5.13,0,0,0-.59,2.75,5.27,5.27,0,0,0,.57,2.72,1.84,1.84,0,0,0,1.68.94,2.37,2.37,0,0,0,.57-.06A1,1,0,0,0,805.1,184.07Z"/><path id="DejaVuSansMono-Bold-80-5" data-name="DejaVuSansMono-Bold-80" d="M819.83,177.07v3.15h.87a2.28,2.28,0,0,0,1.46-.36,2,2,0,0,0,0-2.44,2.35,2.35,0,0,0-1.46-.35Zm-2.12-1.78h2.91a5.09,5.09,0,0,1,3.2.79,3.88,3.88,0,0,1,0,5.13,5.09,5.09,0,0,1-3.2.79h-.79v4h-2.12Z"/></g><g id="text_38" data-name="text 38"><path id="DejaVuSans-124-13" data-name="DejaVuSans-124" d="M693.73,164.76v7.83h-.65v-7.83Z"/></g><g id="text_39" data-name="text 39"><path id="DejaVuSans-55-2" data-name="DejaVuSans-55" d="M692.86,154.87h4.4v.39l-2.49,6.46h-1l2.34-6.07h-3.29Z"/><path id="DejaVuSans-53-4" data-name="DejaVuSans-53" d="M699.08,154.87h3.63v.78h-2.78v1.68a2.62,2.62,0,0,1,.4-.11,2.69,2.69,0,0,1,.4,0,2.55,2.55,0,0,1,1.82.63,2.49,2.49,0,0,1,0,3.42,2.85,2.85,0,0,1-1.94.61,6.65,6.65,0,0,1-.88-.07,8.71,8.71,0,0,1-.92-.22v-.94a3.87,3.87,0,0,0,.85.34,4,4,0,0,0,.93.11,1.81,1.81,0,0,0,1.26-.42,1.62,1.62,0,0,0,0-2.26,1.81,1.81,0,0,0-1.26-.42,3.41,3.41,0,0,0-1.49.34Z"/></g><g id="text_40" data-name="text 40"><path id="DejaVuSansMono-Bold-75-6" data-name="DejaVuSansMono-Bold-75" d="M833.12,175.29h2.12v4.24l3.32-4.24H841l-3.39,4.22,3.51,6.5h-2.36l-2.54-4.82-.94,1.19V186h-2.12Z"/><path id="DejaVuSansMono-Bold-80-6" data-name="DejaVuSansMono-Bold-80" d="M853.28,177.07v3.15h.87a2.28,2.28,0,0,0,1.46-.36,2,2,0,0,0,0-2.44,2.35,2.35,0,0,0-1.46-.35Zm-2.12-1.78h2.91a5.09,5.09,0,0,1,3.2.79,3.88,3.88,0,0,1,0,5.13,5.09,5.09,0,0,1-3.2.79h-.79v4h-2.12Z"/><path id="DejaVuSansMono-Bold-86-7" data-name="DejaVuSansMono-Bold-86" d="M872.14,184.25l1.89-9h2.13L873.61,186h-2.93l-2.56-10.72h2.14Z"/><path id="DejaVuSansMono-Bold-84-9" data-name="DejaVuSansMono-Bold-84" d="M890.92,186H888.8v-8.87h-2.72v-1.85h7.57v1.85h-2.73Z"/><path id="DejaVuSansMono-Bold-73-5" data-name="DejaVuSansMono-Bold-73" d="M904.39,177.16v-1.87h6.38v1.87h-2.13v7h2.13V186h-6.38v-1.86h2.13v-7Z"/><path id="DejaVuSansMono-Bold-83-8" data-name="DejaVuSansMono-Bold-83" d="M924.53,181.31a5.53,5.53,0,0,1-2.17-1.28,2.71,2.71,0,0,1-.57-1.81,2.92,2.92,0,0,1,.94-2.29,3.69,3.69,0,0,1,2.56-.84,6.72,6.72,0,0,1,1.48.17,8,8,0,0,1,1.47.5v2.07a6,6,0,0,0-1.39-.73,4,4,0,0,0-1.39-.25,1.91,1.91,0,0,0-1.18.31,1,1,0,0,0-.41.88,1,1,0,0,0,.3.74,4,4,0,0,0,1.25.64l.91.34a4.16,4.16,0,0,1,1.9,1.26,3.1,3.1,0,0,1,.61,2,3,3,0,0,1-1,2.42,4.39,4.39,0,0,1-2.89.8,7.15,7.15,0,0,1-3.15-.75v-2.19a7.26,7.26,0,0,0,1.64.9,4.62,4.62,0,0,0,1.57.29,1.88,1.88,0,0,0,1.21-.35,1.22,1.22,0,0,0,.43-1,1.31,1.31,0,0,0-.28-.84,1.83,1.83,0,0,0-.84-.58Z"/><path id="DejaVuSansMono-Bold-70-5" data-name="DejaVuSansMono-Bold-70" d="M946.58,177.16H942v2.31h4.16v1.87H942V186h-2.12V175.29h6.69Z"/><path id="DejaVuSansMono-Bold-65-3" data-name="DejaVuSansMono-Bold-65" d="M960.73,177.23l-1,4.39h2Zm-1.29-1.94H962l2.9,10.72h-2.12l-.66-2.65h-2.84l-.65,2.65h-2.12Z"/><path id="DejaVuSansMono-Bold-78-6" data-name="DejaVuSansMono-Bold-78" d="M974.88,175.29h2.27l3,7.79v-7.79H982V186h-2.26l-3-7.79V186h-1.86Z"/><path id="DejaVuSansMono-Bold-72" d="M992.72,175.29h2.12v4.08h2.65v-4.08h2.12V186h-2.12v-4.77h-2.65V186h-2.12Z"/><path id="DejaVuSansMono-Bold-84-10" data-name="DejaVuSansMono-Bold-84" d="M1015,186h-2.12v-8.87h-2.73v-1.85h7.57v1.85H1015Z"/><path id="DejaVuSansMono-Bold-83-9" data-name="DejaVuSansMono-Bold-83" d="M1030.84,181.31a5.53,5.53,0,0,1-2.17-1.28,2.71,2.71,0,0,1-.57-1.81,2.91,2.91,0,0,1,.93-2.29,3.72,3.72,0,0,1,2.57-.84,6.79,6.79,0,0,1,1.48.17,8.13,8.13,0,0,1,1.46.5v2.07a5.75,5.75,0,0,0-1.38-.73,4,4,0,0,0-1.39-.25,1.89,1.89,0,0,0-1.18.31,1,1,0,0,0-.41.88,1,1,0,0,0,.3.74,4,4,0,0,0,1.24.64l.91.34a4.2,4.2,0,0,1,1.91,1.26,3.1,3.1,0,0,1,.61,2,3,3,0,0,1-1,2.42,4.42,4.42,0,0,1-2.9.8,6.79,6.79,0,0,1-1.6-.19,6.86,6.86,0,0,1-1.55-.56v-2.19a7.54,7.54,0,0,0,1.65.9,4.58,4.58,0,0,0,1.57.29,1.89,1.89,0,0,0,1.21-.35,1.22,1.22,0,0,0,.43-1,1.32,1.32,0,0,0-.29-.84,1.85,1.85,0,0,0-.83-.58Z"/><path id="DejaVuSansMono-Bold-67-7" data-name="DejaVuSansMono-Bold-67" d="M1052.66,185.71a4.47,4.47,0,0,1-1.06.38,4.85,4.85,0,0,1-1.16.13,4,4,0,0,1-3.31-1.43,8,8,0,0,1,0-8.27,4,4,0,0,1,3.31-1.43,5.52,5.52,0,0,1,1.17.13,4.72,4.72,0,0,1,1.05.39V178a4.27,4.27,0,0,0-1.06-.74,2.63,2.63,0,0,0-1.06-.23,2,2,0,0,0-1.76.92,6.66,6.66,0,0,0,0,5.48,2,2,0,0,0,1.76.92,2.63,2.63,0,0,0,1.06-.23,4.56,4.56,0,0,0,1.06-.74Z"/><path id="DejaVuSansMono-Bold-82-4" data-name="DejaVuSansMono-Bold-82" d="M1068.41,181a1,1,0,0,1,.55.3,4,4,0,0,1,.57.91l1.94,3.85h-2.33l-1.29-2.7-.15-.32c-.38-.81-.83-1.21-1.34-1.21h-.67V186h-2.12V175.29h3.06a4.72,4.72,0,0,1,3,.73,2.9,2.9,0,0,1,.9,2.39,2.7,2.7,0,0,1-.54,1.76A2.34,2.34,0,0,1,1068.41,181Zm-2.72-3.88V180h1a1.83,1.83,0,0,0,1.25-.34,1.46,1.46,0,0,0,.38-1.12,1.44,1.44,0,0,0-.38-1.12,1.82,1.82,0,0,0-1.25-.34Z"/><path id="DejaVuSansMono-Bold-67-8" data-name="DejaVuSansMono-Bold-67" d="M1088.09,185.71a4.25,4.25,0,0,1-1,.38,4.94,4.94,0,0,1-1.17.13,4,4,0,0,1-3.31-1.43,8.07,8.07,0,0,1,0-8.27,4,4,0,0,1,3.31-1.43,5.52,5.52,0,0,1,1.17.13,4.38,4.38,0,0,1,1,.39V178a3.94,3.94,0,0,0-1.06-.74A2.59,2.59,0,0,0,1086,177a2,2,0,0,0-1.75.92,6.56,6.56,0,0,0,0,5.48,2,2,0,0,0,1.75.92,2.59,2.59,0,0,0,1.06-.23,4.18,4.18,0,0,0,1.06-.74Z"/></g><g id="text_41" data-name="text 41"><path id="DejaVuSans-124-14" data-name="DejaVuSans-124" d="M833.49,164.76v7.83h-.65v-7.83Z"/></g><g id="text_42" data-name="text 42"><path id="DejaVuSans-56-2" data-name="DejaVuSans-56" d="M834.83,158.46a1.45,1.45,0,0,0-1,.36,1.43,1.43,0,0,0,0,1.94,1.68,1.68,0,0,0,2.08,0,1.28,1.28,0,0,0,.38-1,1.26,1.26,0,0,0-.38-1A1.45,1.45,0,0,0,834.83,158.46Zm-.93-.39a1.75,1.75,0,0,1-.93-.55,1.56,1.56,0,0,1-.33-1,1.59,1.59,0,0,1,.59-1.3,2.91,2.91,0,0,1,3.2,0,1.59,1.59,0,0,1,.59,1.3,1.52,1.52,0,0,1-.34,1,1.68,1.68,0,0,1-.92.55,1.82,1.82,0,0,1,1,.61,1.68,1.68,0,0,1,.38,1.11,2,2,0,0,1-.61,1.53,2.6,2.6,0,0,1-1.74.53,2.57,2.57,0,0,1-1.74-.53,1.92,1.92,0,0,1-.61-1.53,1.68,1.68,0,0,1,.38-1.11A1.85,1.85,0,0,1,833.9,158.07Zm-.34-1.46a1.07,1.07,0,0,0,.33.83,1.43,1.43,0,0,0,.94.29,1.38,1.38,0,0,0,.93-.29,1,1,0,0,0,.34-.83,1,1,0,0,0-.34-.83,1.33,1.33,0,0,0-.93-.3,1.38,1.38,0,0,0-.94.3A1,1,0,0,0,833.56,156.61Z"/><path id="DejaVuSans-51-3" data-name="DejaVuSans-51" d="M841.63,158a1.84,1.84,0,0,1,1,.6,1.67,1.67,0,0,1,.37,1.11,1.87,1.87,0,0,1-.7,1.56,3.09,3.09,0,0,1-2,.56,4.53,4.53,0,0,1-.88-.09,5.7,5.7,0,0,1-.94-.25v-.9a2.85,2.85,0,0,0,.84.34,3.71,3.71,0,0,0,1,.12,2.14,2.14,0,0,0,1.32-.35,1.29,1.29,0,0,0,0-1.94,1.84,1.84,0,0,0-1.18-.34h-.8v-.76h.83a1.73,1.73,0,0,0,1.05-.28.92.92,0,0,0,.36-.78.93.93,0,0,0-.37-.81,1.75,1.75,0,0,0-1.07-.29,4,4,0,0,0-.82.09,7.62,7.62,0,0,0-1,.25V155a8.54,8.54,0,0,1,1-.22,5.52,5.52,0,0,1,.87-.08,2.65,2.65,0,0,1,1.67.48,1.55,1.55,0,0,1,.61,1.3,1.48,1.48,0,0,1-.32,1A1.72,1.72,0,0,1,841.63,158Z"/></g><g id="text_43" data-name="text 43"><path id="DejaVuSansMono-Bold-77-3" data-name="DejaVuSansMono-Bold-77" d="M1094.94,175.29h2.53l1.28,4.7,1.27-4.7h2.54V186h-1.82v-8.59l-1.14,4.69h-1.68l-1.15-4.69V186h-1.83Z"/></g><g id="text_44" data-name="text 44"><path id="DejaVuSans-124-15" data-name="DejaVuSans-124" d="M1095.53,164.76v7.83h-.65v-7.83Z"/></g><g id="text_45" data-name="text 45"><path id="DejaVuSans-57-2" data-name="DejaVuSans-57" d="M1094.92,161.57v-.84a3.66,3.66,0,0,0,.7.25,2.94,2.94,0,0,0,.71.09,1.69,1.69,0,0,0,1.4-.62,3.35,3.35,0,0,0,.55-1.87,1.78,1.78,0,0,1-.68.6,1.93,1.93,0,0,1-.9.22,2.15,2.15,0,0,1-1.63-.63,2.37,2.37,0,0,1-.59-1.7,2.3,2.3,0,0,1,.62-1.69,2.25,2.25,0,0,1,1.66-.64,2.05,2.05,0,0,1,1.81.92,4.59,4.59,0,0,1,.63,2.64,4,4,0,0,1-.77,2.58,2.48,2.48,0,0,1-2.06,1,3.42,3.42,0,0,1-.71-.07A5.52,5.52,0,0,1,1094.92,161.57Zm1.84-2.9a1.23,1.23,0,0,0,1-.43,2.07,2.07,0,0,0,0-2.33,1.23,1.23,0,0,0-1-.43,1.21,1.21,0,0,0-1,.43,2.07,2.07,0,0,0,0,2.33A1.21,1.21,0,0,0,1096.76,158.67Z"/><path id="DejaVuSans-56-3" data-name="DejaVuSans-56" d="M1102.85,158.46a1.45,1.45,0,0,0-1,.36,1.43,1.43,0,0,0,0,1.94,1.45,1.45,0,0,0,1,.36,1.46,1.46,0,0,0,1-.36,1.28,1.28,0,0,0,.38-1,1.26,1.26,0,0,0-.38-1A1.45,1.45,0,0,0,1102.85,158.46Zm-.93-.39a1.68,1.68,0,0,1-.93-.55,1.56,1.56,0,0,1-.33-1,1.58,1.58,0,0,1,.58-1.3,2.47,2.47,0,0,1,1.61-.48,2.44,2.44,0,0,1,1.6.48,1.58,1.58,0,0,1,.58,1.3,1.56,1.56,0,0,1-.33,1,1.68,1.68,0,0,1-.92.55,1.85,1.85,0,0,1,1,.61,1.67,1.67,0,0,1,.37,1.11,2,2,0,0,1-.6,1.53,3.14,3.14,0,0,1-3.49,0,2,2,0,0,1-.6-1.53,1.67,1.67,0,0,1,.37-1.11A1.85,1.85,0,0,1,1101.92,158.07Zm-.34-1.46a1.07,1.07,0,0,0,.33.83,1.65,1.65,0,0,0,1.87,0,1.08,1.08,0,0,0,.34-.83,1,1,0,0,0-.34-.83,1.61,1.61,0,0,0-1.87,0A1,1,0,0,0,1101.58,156.61Z"/></g><g id="text_46" data-name="text 46"><path id="DejaVuSansMono-67" class="cls-6" d="M1123.43,207.16a5.48,5.48,0,0,1-1.14.44,4.82,4.82,0,0,1-1.23.15,3.84,3.84,0,0,1-3.2-1.46,7.94,7.94,0,0,1,0-8.2,3.83,3.83,0,0,1,3.2-1.47,5.32,5.32,0,0,1,1.23.14,5.48,5.48,0,0,1,1.14.44v1.49a4.12,4.12,0,0,0-1.14-.67,3.57,3.57,0,0,0-1.23-.23,2.36,2.36,0,0,0-2.12,1.1,8.08,8.08,0,0,0,0,6.58,2.36,2.36,0,0,0,2.12,1.1,3.58,3.58,0,0,0,1.24-.23,4.21,4.21,0,0,0,1.13-.67Z"/><path id="DejaVuSansMono-108" class="cls-6" d="M1138,204.62a2.26,2.26,0,0,0,.33,1.34,1.11,1.11,0,0,0,1,.46h1.55v1.12h-1.68a2.29,2.29,0,0,1-1.83-.76,3.26,3.26,0,0,1-.65-2.16v-7.31h-2.12v-1H1138Z"/><path id="DejaVuSansMono-111" class="cls-6" d="M1146.72,200.42a1.71,1.71,0,0,0-1.52.78,5.44,5.44,0,0,0,0,4.64,1.88,1.88,0,0,0,3,0,5.44,5.44,0,0,0,0-4.64A1.71,1.71,0,0,0,1146.72,200.42Zm0-1.12a3.11,3.11,0,0,1,2.56,1.08,4.8,4.8,0,0,1,.89,3.14,4.89,4.89,0,0,1-.88,3.15,3.59,3.59,0,0,1-5.13,0,6.06,6.06,0,0,1,0-6.29A3.13,3.13,0,0,1,1146.72,199.3Z"/><path id="DejaVuSansMono-111-2" data-name="DejaVuSansMono-111" class="cls-6" d="M1155.58,200.42a1.71,1.71,0,0,0-1.52.78,5.44,5.44,0,0,0,0,4.64,1.88,1.88,0,0,0,3,0,5.44,5.44,0,0,0,0-4.64A1.71,1.71,0,0,0,1155.58,200.42Zm0-1.12a3.11,3.11,0,0,1,2.56,1.08,4.8,4.8,0,0,1,.89,3.14,4.89,4.89,0,0,1-.88,3.15,3.59,3.59,0,0,1-5.13,0,6.06,6.06,0,0,1,0-6.29A3.13,3.13,0,0,1,1155.58,199.3Z"/><path id="DejaVuSansMono-112" class="cls-6" d="M1162.71,206.52v4.08h-1.33V199.49h1.33v1a2.27,2.27,0,0,1,.88-.91,2.52,2.52,0,0,1,1.27-.31,2.68,2.68,0,0,1,2.29,1.13,5.19,5.19,0,0,1,.83,3.12,5,5,0,0,1-.84,3.08,2.69,2.69,0,0,1-2.28,1.12,2.57,2.57,0,0,1-1.29-.32A2.17,2.17,0,0,1,1162.71,206.52Zm3.88-3a4.4,4.4,0,0,0-.49-2.32,1.58,1.58,0,0,0-1.44-.78,1.63,1.63,0,0,0-1.46.78,5.74,5.74,0,0,0,0,4.64,1.63,1.63,0,0,0,1.46.78,1.58,1.58,0,0,0,1.44-.78A4.38,4.38,0,0,0,1166.59,203.52Z"/></g><g id="text_47" data-name="text 47"><path id="DejaVuSans-124-16" data-name="DejaVuSans-124" d="M1095.53,164.76v7.83h-.65v-7.83Z"/></g><g id="text_48" data-name="text 48"><path id="DejaVuSans-57-3" data-name="DejaVuSans-57" d="M1094.92,161.57v-.84a3.66,3.66,0,0,0,.7.25,2.94,2.94,0,0,0,.71.09,1.69,1.69,0,0,0,1.4-.62,3.35,3.35,0,0,0,.55-1.87,1.78,1.78,0,0,1-.68.6,1.93,1.93,0,0,1-.9.22,2.15,2.15,0,0,1-1.63-.63,2.37,2.37,0,0,1-.59-1.7,2.3,2.3,0,0,1,.62-1.69,2.25,2.25,0,0,1,1.66-.64,2.05,2.05,0,0,1,1.81.92,4.59,4.59,0,0,1,.63,2.64,4,4,0,0,1-.77,2.58,2.48,2.48,0,0,1-2.06,1,3.42,3.42,0,0,1-.71-.07A5.52,5.52,0,0,1,1094.92,161.57Zm1.84-2.9a1.23,1.23,0,0,0,1-.43,2.07,2.07,0,0,0,0-2.33,1.23,1.23,0,0,0-1-.43,1.21,1.21,0,0,0-1,.43,2.07,2.07,0,0,0,0,2.33A1.21,1.21,0,0,0,1096.76,158.67Z"/><path id="DejaVuSans-56-4" data-name="DejaVuSans-56" d="M1102.85,158.46a1.45,1.45,0,0,0-1,.36,1.43,1.43,0,0,0,0,1.94,1.45,1.45,0,0,0,1,.36,1.46,1.46,0,0,0,1-.36,1.28,1.28,0,0,0,.38-1,1.26,1.26,0,0,0-.38-1A1.45,1.45,0,0,0,1102.85,158.46Zm-.93-.39a1.68,1.68,0,0,1-.93-.55,1.56,1.56,0,0,1-.33-1,1.58,1.58,0,0,1,.58-1.3,2.47,2.47,0,0,1,1.61-.48,2.44,2.44,0,0,1,1.6.48,1.58,1.58,0,0,1,.58,1.3,1.56,1.56,0,0,1-.33,1,1.68,1.68,0,0,1-.92.55,1.85,1.85,0,0,1,1,.61,1.67,1.67,0,0,1,.37,1.11,2,2,0,0,1-.6,1.53,3.14,3.14,0,0,1-3.49,0,2,2,0,0,1-.6-1.53,1.67,1.67,0,0,1,.37-1.11A1.85,1.85,0,0,1,1101.92,158.07Zm-.34-1.46a1.07,1.07,0,0,0,.33.83,1.65,1.65,0,0,0,1.87,0,1.08,1.08,0,0,0,.34-.83,1,1,0,0,0-.34-.83,1.61,1.61,0,0,0-1.87,0A1,1,0,0,0,1101.58,156.61Z"/></g><text class="cls-7" transform="translate(12.44 48.94)"><tspan class="cls-8">V</tspan><tspan x="11.86" y="0">ascular endothelial growth factor C</tspan><tspan x="80.96" y="24">(residue 103-215)</tspan></text></svg>