<svg id="图层_1" data-name="图层 1" xmlns="http://www.w3.org/2000/svg" xmlns:xlink="http://www.w3.org/1999/xlink" viewBox="0 0 1200 400"><defs><style>.cls-1{fill:none;}.cls-2{clip-path:url(#clip-path);}.cls-3,.cls-5{fill:gray;}.cls-3{stroke:gray;}.cls-4{fill:#20b2aa;stroke:#20b2aa;}.cls-6{font-size:20px;font-family:ArialMT, Arial;}</style><clipPath id="clip-path"><rect class="cls-1" x="307.07" y="94.75" width="876.97" height="737.81"/></clipPath></defs><g id="patch_2" data-name="patch 2"><g class="cls-2"><path class="cls-3" d="M306.19,150.09H605.24v-2.22h-299Z"/></g></g><g id="patch_3" data-name="patch 3"><g class="cls-2"><path class="cls-4" d="M605.24,161.16H760.55V139H605.24Z"/></g></g><g id="patch_4" data-name="patch 4"><g class="cls-2"><path class="cls-3" d="M762.22,150.09h53.49v-2.22H762.22Z"/></g></g><g id="patch_5" data-name="patch 5"><g class="cls-2"><path class="cls-4" d="M815.71,161.16H918.4V139H815.71Z"/></g></g><g id="patch_6" data-name="patch 6"><g class="cls-2"><path class="cls-3" d="M920.07,150.09h71v-2.22h-71Z"/></g></g><g id="patch_7" data-name="patch 7"><g class="cls-2"><path class="cls-4" d="M991.11,161.16H1093.8V139H991.11Z"/></g></g><g id="patch_8" data-name="patch 8"><g class="cls-2"><path class="cls-3" d="M1095.47,150.09H1184v-2.22h-88.57Z"/></g></g><g id="patch_9" data-name="patch 9"><g class="cls-2"><path class="cls-3" d="M306.19,223.87H500v-2.21H306.19Z"/></g></g><g id="patch_10" data-name="patch 10"><g class="cls-2"><path class="cls-4" d="M500,234.94H620.23V212.8H500Z"/></g></g><g id="patch_11" data-name="patch 11"><g class="cls-2"><path class="cls-3" d="M621.9,223.87H728v-2.21H621.9Z"/></g></g><g id="patch_12" data-name="patch 12"><g class="cls-2"><path class="cls-4" d="M728,234.94H865.79V212.8H728Z"/></g></g><g id="patch_13" data-name="patch 13"><g class="cls-2"><path class="cls-3" d="M867.45,223.87H991.11v-2.21H867.45Z"/></g></g><g id="text_1" data-name="text 1"><path id="DejaVuSansMono-Bold-71" d="M313.79,129.58v-2.17h-1.45v-1.9h3.32v5.22a4.14,4.14,0,0,1-1.36.85,4.35,4.35,0,0,1-1.58.29,3.79,3.79,0,0,1-3.23-1.54,7.27,7.27,0,0,1-1.14-4.38,7.15,7.15,0,0,1,1.15-4.39,3.89,3.89,0,0,1,3.32-1.52,4.32,4.32,0,0,1,1.28.19,4.51,4.51,0,0,1,1.17.56v2.5a3,3,0,0,0-1-.92,2.6,2.6,0,0,0-1.27-.31,2,2,0,0,0-1.81,1,5.63,5.63,0,0,0-.6,2.92,5.91,5.91,0,0,0,.58,2.9,1.83,1.83,0,0,0,1.68,1,2.52,2.52,0,0,0,.58-.06A1,1,0,0,0,313.79,129.58Z"/><path id="DejaVuSansMono-Bold-83" d="M329,126.64a5.44,5.44,0,0,1-2.18-1.36,3,3,0,0,1-.57-1.92,3.21,3.21,0,0,1,.94-2.44,3.62,3.62,0,0,1,2.58-.88,6.24,6.24,0,0,1,1.48.18,6.82,6.82,0,0,1,1.47.53V123a5.69,5.69,0,0,0-1.39-.78,3.91,3.91,0,0,0-1.4-.27,1.84,1.84,0,0,0-1.18.33,1.11,1.11,0,0,0-.41.94,1.09,1.09,0,0,0,.3.78,3.71,3.71,0,0,0,1.25.68l.92.37a4.2,4.2,0,0,1,1.91,1.34,3.41,3.41,0,0,1,.61,2.09,3.25,3.25,0,0,1-1,2.58,4.3,4.3,0,0,1-2.91.86,6.36,6.36,0,0,1-1.61-.21,6.54,6.54,0,0,1-1.55-.6v-2.33a6.76,6.76,0,0,0,1.65,1,4.22,4.22,0,0,0,1.57.31,1.75,1.75,0,0,0,1.22-.38,1.31,1.31,0,0,0,.43-1.05,1.41,1.41,0,0,0-.29-.9,1.9,1.9,0,0,0-.83-.61Z"/><path id="DejaVuSansMono-Bold-83-2" data-name="DejaVuSansMono-Bold-83" d="M346.76,126.64a5.44,5.44,0,0,1-2.18-1.36,3,3,0,0,1-.57-1.92,3.17,3.17,0,0,1,.94-2.44,3.61,3.61,0,0,1,2.58-.88,6.24,6.24,0,0,1,1.48.18,6.82,6.82,0,0,1,1.47.53V123a5.69,5.69,0,0,0-1.39-.78,3.91,3.91,0,0,0-1.4-.27,1.84,1.84,0,0,0-1.18.33,1.11,1.11,0,0,0-.41.94,1.09,1.09,0,0,0,.3.78,3.71,3.71,0,0,0,1.25.68l.91.37a4.18,4.18,0,0,1,1.92,1.34,3.47,3.47,0,0,1,.61,2.09,3.22,3.22,0,0,1-1,2.58,4.26,4.26,0,0,1-2.9.86,6.87,6.87,0,0,1-3.16-.81v-2.33a6.9,6.9,0,0,0,1.64,1,4.27,4.27,0,0,0,1.58.31,1.77,1.77,0,0,0,1.22-.38,1.31,1.31,0,0,0,.43-1.05,1.47,1.47,0,0,0-.29-.9,1.9,1.9,0,0,0-.83-.61Z"/><path id="DejaVuSansMono-Bold-71-2" data-name="DejaVuSansMono-Bold-71" d="M367.16,129.58v-2.17H365.7v-1.9H369v5.22a4.21,4.21,0,0,1-1.35.85,4.36,4.36,0,0,1-1.59.29,3.8,3.8,0,0,1-3.23-1.54,9,9,0,0,1,0-8.77,3.91,3.91,0,0,1,3.33-1.52,4.25,4.25,0,0,1,1.27.19,4.73,4.73,0,0,1,1.18.56v2.5a3.08,3.08,0,0,0-1-.92,2.62,2.62,0,0,0-1.27-.31,2,2,0,0,0-1.81,1,5.63,5.63,0,0,0-.6,2.92,5.8,5.8,0,0,0,.58,2.9,1.83,1.83,0,0,0,1.68,1,2.37,2.37,0,0,0,.57-.06A1,1,0,0,0,367.16,129.58Z"/><path id="DejaVuSansMono-Bold-83-3" data-name="DejaVuSansMono-Bold-83" d="M382.34,126.64a5.44,5.44,0,0,1-2.18-1.36,3,3,0,0,1-.57-1.92,3.17,3.17,0,0,1,.94-2.44,3.58,3.58,0,0,1,2.57-.88,6.32,6.32,0,0,1,1.49.18,7.23,7.23,0,0,1,1.47.53V123a5.88,5.88,0,0,0-1.39-.78,3.91,3.91,0,0,0-1.4-.27,1.87,1.87,0,0,0-1.19.33,1.14,1.14,0,0,0-.41.94,1.09,1.09,0,0,0,.3.78,3.82,3.82,0,0,0,1.25.68l.92.37a4.14,4.14,0,0,1,1.91,1.34,3.41,3.41,0,0,1,.62,2.09,3.25,3.25,0,0,1-1,2.58,4.27,4.27,0,0,1-2.91.86,6.28,6.28,0,0,1-1.6-.21,6.45,6.45,0,0,1-1.56-.6v-2.33a7.15,7.15,0,0,0,1.65,1,4.27,4.27,0,0,0,1.58.31,1.72,1.72,0,0,0,1.21-.38,1.32,1.32,0,0,0,.44-1.05,1.47,1.47,0,0,0-.29-.9,1.87,1.87,0,0,0-.84-.61Z"/><path id="DejaVuSansMono-Bold-83-4" data-name="DejaVuSansMono-Bold-83" d="M400.13,126.64a5.37,5.37,0,0,1-2.18-1.36,3,3,0,0,1-.57-1.92,3.17,3.17,0,0,1,.94-2.44,3.58,3.58,0,0,1,2.57-.88,6.32,6.32,0,0,1,1.49.18,7.23,7.23,0,0,1,1.47.53V123a5.88,5.88,0,0,0-1.39-.78,3.91,3.91,0,0,0-1.4-.27,1.87,1.87,0,0,0-1.19.33,1.14,1.14,0,0,0-.41.94,1.09,1.09,0,0,0,.3.78,3.82,3.82,0,0,0,1.25.68l.92.37a4.14,4.14,0,0,1,1.91,1.34,3.41,3.41,0,0,1,.62,2.09,3.25,3.25,0,0,1-1,2.58,4.27,4.27,0,0,1-2.91.86,6.28,6.28,0,0,1-1.6-.21,6.45,6.45,0,0,1-1.56-.6v-2.33a7.15,7.15,0,0,0,1.65,1,4.27,4.27,0,0,0,1.58.31,1.72,1.72,0,0,0,1.21-.38,1.32,1.32,0,0,0,.44-1.05,1.47,1.47,0,0,0-.29-.9,1.87,1.87,0,0,0-.84-.61Z"/><path id="DejaVuSansMono-Bold-71-3" data-name="DejaVuSansMono-Bold-71" d="M420.53,129.58v-2.17h-1.46v-1.9h3.32v5.22a4.14,4.14,0,0,1-1.36.85,4.35,4.35,0,0,1-1.58.29,3.8,3.8,0,0,1-3.23-1.54,7.27,7.27,0,0,1-1.14-4.38,7.15,7.15,0,0,1,1.15-4.39,3.91,3.91,0,0,1,3.32-1.52,4.32,4.32,0,0,1,1.28.19,4.73,4.73,0,0,1,1.18.56v2.5a3.17,3.17,0,0,0-1-.92,2.63,2.63,0,0,0-1.28-.31,2,2,0,0,0-1.81,1,5.63,5.63,0,0,0-.6,2.92,5.91,5.91,0,0,0,.58,2.9,1.85,1.85,0,0,0,1.68,1,2.46,2.46,0,0,0,.58-.06A1.16,1.16,0,0,0,420.53,129.58Z"/><path id="DejaVuSansMono-Bold-71-4" data-name="DejaVuSansMono-Bold-71" d="M438.32,129.58v-2.17h-1.46v-1.9h3.32v5.22a4.14,4.14,0,0,1-1.36.85,4.35,4.35,0,0,1-1.58.29,3.8,3.8,0,0,1-3.23-1.54,7.27,7.27,0,0,1-1.14-4.38,7.15,7.15,0,0,1,1.15-4.39,3.89,3.89,0,0,1,3.32-1.52,4.32,4.32,0,0,1,1.28.19,4.51,4.51,0,0,1,1.17.56v2.5a3,3,0,0,0-1-.92,2.63,2.63,0,0,0-1.28-.31,2,2,0,0,0-1.81,1,5.63,5.63,0,0,0-.6,2.92,5.91,5.91,0,0,0,.58,2.9,1.85,1.85,0,0,0,1.68,1,2.46,2.46,0,0,0,.58-.06A1.16,1.16,0,0,0,438.32,129.58Z"/><path id="DejaVuSansMono-Bold-89" d="M449.87,120.24h2.3l2.09,4.58,2.1-4.58h2.29l-3.32,6.91v4.49H453.2v-4.49Z"/><path id="DejaVuSansMono-Bold-80" d="M470.9,122.14v3.34h.87a2.22,2.22,0,0,0,1.47-.37,2.22,2.22,0,0,0,0-2.6,2.22,2.22,0,0,0-1.47-.37Zm-2.13-1.9h2.92a4.9,4.9,0,0,1,3.21.84,4.29,4.29,0,0,1,0,5.46,4.9,4.9,0,0,1-3.21.83h-.79v4.27h-2.13Z"/><path id="DejaVuSansMono-Bold-78" d="M486.25,120.24h2.29l3,8.29v-8.29h1.87v11.4h-2.27l-3-8.28v8.28h-1.87Z"/><path id="DejaVuSansMono-Bold-71-5" data-name="DejaVuSansMono-Bold-71" d="M509.47,129.58v-2.17H508v-1.9h3.32v5.22a4.21,4.21,0,0,1-1.35.85,4.36,4.36,0,0,1-1.59.29,3.8,3.8,0,0,1-3.23-1.54,9,9,0,0,1,0-8.77A3.91,3.91,0,0,1,508.5,120a4.25,4.25,0,0,1,1.27.19,4.73,4.73,0,0,1,1.18.56v2.5a3.08,3.08,0,0,0-1-.92,2.62,2.62,0,0,0-1.27-.31,2,2,0,0,0-1.81,1,5.63,5.63,0,0,0-.6,2.92,5.8,5.8,0,0,0,.58,2.9,1.83,1.83,0,0,0,1.68,1,2.37,2.37,0,0,0,.57-.06A1,1,0,0,0,509.47,129.58Z"/><path id="DejaVuSansMono-Bold-84" d="M526.48,131.64h-2.13v-9.43h-2.73v-2h7.59v2h-2.73Z"/><path id="DejaVuSansMono-Bold-83-5" data-name="DejaVuSansMono-Bold-83" d="M542.44,126.64a5.37,5.37,0,0,1-2.18-1.36,3,3,0,0,1-.57-1.92,3.2,3.2,0,0,1,.93-2.44,3.62,3.62,0,0,1,2.58-.88,6.32,6.32,0,0,1,1.49.18,7.23,7.23,0,0,1,1.47.53V123a5.88,5.88,0,0,0-1.39-.78,4,4,0,0,0-1.4-.27,1.87,1.87,0,0,0-1.19.33,1.14,1.14,0,0,0-.41.94,1.09,1.09,0,0,0,.3.78,3.82,3.82,0,0,0,1.25.68l.92.37a4.14,4.14,0,0,1,1.91,1.34,3.41,3.41,0,0,1,.61,2.09,3.25,3.25,0,0,1-1,2.58,4.27,4.27,0,0,1-2.91.86,6.41,6.41,0,0,1-1.61-.21,6.54,6.54,0,0,1-1.55-.6v-2.33a7.15,7.15,0,0,0,1.65,1A4.27,4.27,0,0,0,543,130a1.74,1.74,0,0,0,1.21-.38,1.32,1.32,0,0,0,.44-1.05,1.47,1.47,0,0,0-.29-.9,1.87,1.87,0,0,0-.84-.61Z"/><path id="DejaVuSansMono-Bold-65" d="M561,122.3,560,127h2Zm-1.3-2.06h2.61l2.9,11.4h-2.13l-.66-2.81h-2.85l-.65,2.81h-2.13Z"/><path id="DejaVuSansMono-Bold-65-2" data-name="DejaVuSansMono-Bold-65" d="M578.78,122.3l-1,4.67h2Zm-1.3-2.06h2.6l2.91,11.4h-2.13l-.66-2.81h-2.85l-.65,2.81h-2.13Z"/><path id="DejaVuSansMono-Bold-76" d="M593.75,131.64v-11.4h2.12v9.42h4.56v2Z"/></g><g id="text_2" data-name="text 2"><path id="DejaVuSans-124" d="M308.72,109.05v8.32h-.66v-8.32Z"/></g><g id="text_3" data-name="text 3"><path id="DejaVuSans-49" d="M308.24,105h1.51V99.44l-1.65.35v-.9l1.65-.35h.93V105h1.51v.83h-3.95Z"/></g><g id="text_4" data-name="text 4"><path id="DejaVuSansMono-Bold-82" d="M611.5,126.26a1.07,1.07,0,0,1,.55.32,3.58,3.58,0,0,1,.57,1l2,4.1h-2.34l-1.3-2.88q0-.12-.15-.33c-.38-.86-.82-1.29-1.34-1.29h-.68v4.5h-2.12v-11.4h3.07a4.55,4.55,0,0,1,3,.78,3.21,3.21,0,0,1,.91,2.54,3,3,0,0,1-.54,1.87A2.27,2.27,0,0,1,611.5,126.26Zm-2.74-4.12v3.1h1a1.8,1.8,0,0,0,1.25-.36,1.6,1.6,0,0,0,.38-1.19,1.57,1.57,0,0,0-.38-1.19,1.78,1.78,0,0,0-1.25-.36Z"/><path id="DejaVuSansMono-Bold-69" d="M631.38,131.64h-6.7v-11.4h6.7v2H626.8v2.46H631v2H626.8v3h4.58Z"/><path id="DejaVuSansMono-Bold-84-2" data-name="DejaVuSansMono-Bold-84" d="M646.77,131.64h-2.13v-9.43H641.9v-2h7.6v2h-2.73Z"/><path id="DejaVuSansMono-Bold-71-6" data-name="DejaVuSansMono-Bold-71" d="M665.33,129.58v-2.17h-1.45v-1.9h3.31v5.22a4.21,4.21,0,0,1-1.35.85,4.35,4.35,0,0,1-1.58.29,3.81,3.81,0,0,1-3.24-1.54,7.35,7.35,0,0,1-1.13-4.38,7.15,7.15,0,0,1,1.15-4.39,3.88,3.88,0,0,1,3.32-1.52,4.2,4.2,0,0,1,1.27.19,4.57,4.57,0,0,1,1.18.56v2.5a3.08,3.08,0,0,0-1-.92,2.6,2.6,0,0,0-1.27-.31,2,2,0,0,0-1.81,1,5.63,5.63,0,0,0-.6,2.92,5.8,5.8,0,0,0,.58,2.9,1.83,1.83,0,0,0,1.68,1,2.37,2.37,0,0,0,.57-.06A1,1,0,0,0,665.33,129.58Z"/><path id="DejaVuSansMono-Bold-86" d="M681.27,129.76l1.9-9.52h2.14l-2.56,11.4h-3l-2.56-11.4h2.14Z"/><path id="DejaVuSansMono-Bold-73" d="M695.86,122.23v-2h6.41v2h-2.14v7.43h2.14v2h-6.41v-2H698v-7.43Z"/><path id="DejaVuSansMono-Bold-69-2" data-name="DejaVuSansMono-Bold-69" d="M720.33,131.64h-6.71v-11.4h6.71v2h-4.58v2.46h4.15v2h-4.15v3h4.58Z"/><path id="DejaVuSansMono-Bold-75" d="M731,120.24h2.13v4.51l3.33-4.51h2.41l-3.4,4.49,3.52,6.91h-2.36l-2.56-5.13-.94,1.27v3.86H731Z"/><path id="DejaVuSansMono-Bold-76-2" data-name="DejaVuSansMono-Bold-76" d="M749.61,131.64v-11.4h2.13v9.42h4.55v2Z"/></g><g id="text_5" data-name="text 5"><path id="DejaVuSans-124-2" data-name="DejaVuSans-124" d="M606.89,109.05v8.32h-.65v-8.32Z"/></g><g id="text_6" data-name="text 6"><path id="DejaVuSans-49-2" data-name="DejaVuSans-49" d="M606.41,105h1.52V99.44l-1.66.35v-.9l1.65-.35h.93V105h1.52v.83h-4Z"/><path id="DejaVuSans-56" d="M614.23,102.36a1.41,1.41,0,0,0-1,.38,1.39,1.39,0,0,0-.38,1,1.3,1.3,0,0,0,1.42,1.41,1.46,1.46,0,0,0,1-2.44A1.42,1.42,0,0,0,614.23,102.36Zm-.93-.41a1.79,1.79,0,0,1-.68-3,2.81,2.81,0,0,1,3.23,0,1.73,1.73,0,0,1,.58,1.38,1.72,1.72,0,0,1-.33,1.06,1.81,1.81,0,0,1-.93.59,1.83,1.83,0,0,1,1.05.64,1.89,1.89,0,0,1,.37,1.18,2.11,2.11,0,0,1-.61,1.63,2.52,2.52,0,0,1-1.75.56,2.49,2.49,0,0,1-1.74-.56,2.11,2.11,0,0,1-.61-1.63A1.75,1.75,0,0,1,613.3,102Zm-.34-1.56a1.12,1.12,0,0,0,.34.88,1.3,1.3,0,0,0,.93.32,1.32,1.32,0,0,0,.94-.32,1.31,1.31,0,0,0,0-1.76,1.32,1.32,0,0,0-.94-.32,1.3,1.3,0,0,0-.93.32A1.12,1.12,0,0,0,613,100.39Z"/></g><g id="text_7" data-name="text 7"><path id="DejaVuSansMono-Bold-76-3" data-name="DejaVuSansMono-Bold-76" d="M765.15,131.64v-11.4h2.13v9.42h4.55v2Z"/><path id="DejaVuSansMono-Bold-84-3" data-name="DejaVuSansMono-Bold-84" d="M786.83,131.64H784.7v-9.43H782v-2h7.59v2h-2.73Z"/><path id="DejaVuSansMono-Bold-83-6" data-name="DejaVuSansMono-Bold-83" d="M802.79,126.64a5.44,5.44,0,0,1-2.18-1.36,3,3,0,0,1-.57-1.92,3.17,3.17,0,0,1,.94-2.44,3.58,3.58,0,0,1,2.57-.88,6.32,6.32,0,0,1,1.49.18,7.23,7.23,0,0,1,1.47.53V123a5.88,5.88,0,0,0-1.39-.78,3.91,3.91,0,0,0-1.4-.27,1.87,1.87,0,0,0-1.19.33,1.14,1.14,0,0,0-.41.94,1.09,1.09,0,0,0,.3.78,3.82,3.82,0,0,0,1.25.68l.92.37a4.14,4.14,0,0,1,1.91,1.34,3.41,3.41,0,0,1,.62,2.09,3.25,3.25,0,0,1-1,2.58,4.27,4.27,0,0,1-2.91.86,6.28,6.28,0,0,1-1.6-.21,6.45,6.45,0,0,1-1.56-.6v-2.33a7.15,7.15,0,0,0,1.65,1,4.27,4.27,0,0,0,1.58.31,1.72,1.72,0,0,0,1.21-.38,1.32,1.32,0,0,0,.44-1.05,1.47,1.47,0,0,0-.29-.9,1.87,1.87,0,0,0-.84-.61Z"/></g><g id="text_8" data-name="text 8"><path id="DejaVuSans-124-3" data-name="DejaVuSans-124" d="M764.74,109.05v8.32h-.65v-8.32Z"/></g><g id="text_9" data-name="text 9"><path id="DejaVuSans-50" d="M764.9,105h3.25v.83h-4.37V105l1.45-1.56c.61-.65,1-1.07,1.15-1.26a4.73,4.73,0,0,0,.62-.9,1.6,1.6,0,0,0,.18-.72,1.21,1.21,0,0,0-.39-.94,1.36,1.36,0,0,0-1-.37,2.83,2.83,0,0,0-.92.16,5.34,5.34,0,0,0-1,.49v-1a6.55,6.55,0,0,1,1-.36,3.71,3.71,0,0,1,.89-.12,2.49,2.49,0,0,1,1.71.57,1.92,1.92,0,0,1,.63,1.51,2.22,2.22,0,0,1-.16.85,4,4,0,0,1-.58,1c-.07.09-.32.36-.73.81Z"/><path id="DejaVuSans-55" d="M769.87,98.54h4.42V99l-2.5,6.86h-1l2.35-6.45h-3.3Z"/></g><g id="text_10" data-name="text 10"><path id="DejaVuSansMono-Bold-89-2" data-name="DejaVuSansMono-Bold-89" d="M816.21,120.24h2.29l2.09,4.58,2.1-4.58H825l-3.33,6.91v4.49h-2.13v-4.49Z"/><path id="DejaVuSansMono-Bold-71-7" data-name="DejaVuSansMono-Bold-71" d="M840.23,129.58v-2.17h-1.46v-1.9h3.32v5.22a4.21,4.21,0,0,1-1.35.85,4.4,4.4,0,0,1-1.59.29,3.8,3.8,0,0,1-3.23-1.54,9,9,0,0,1,0-8.77,3.91,3.91,0,0,1,3.32-1.52,4.27,4.27,0,0,1,1.28.19,4.73,4.73,0,0,1,1.18.56v2.5a3.08,3.08,0,0,0-1-.92,2.62,2.62,0,0,0-1.27-.31,2,2,0,0,0-1.82,1A5.75,5.75,0,0,0,837,126a5.93,5.93,0,0,0,.57,2.9,1.85,1.85,0,0,0,1.68,1,2.4,2.4,0,0,0,.58-.06A1.07,1.07,0,0,0,840.23,129.58Z"/><path id="DejaVuSansMono-Bold-70" d="M859.75,122.23h-4.58v2.46h4.17v2h-4.17v5H853v-11.4h6.71Z"/><path id="DejaVuSansMono-Bold-73-2" data-name="DejaVuSansMono-Bold-73" d="M870.76,122.23v-2h6.41v2H875v7.43h2.14v2h-6.41v-2h2.14v-7.43Z"/><path id="DejaVuSansMono-Bold-81" d="M892,131.82l-.17,0-.14,0a3.13,3.13,0,0,1-2.81-1.5,10.76,10.76,0,0,1,0-8.84,3.43,3.43,0,0,1,5.66,0,8.29,8.29,0,0,1,1,4.42,10.79,10.79,0,0,1-.46,3.37,3.55,3.55,0,0,1-1.32,1.93l1.34,1.39-1.45,1.15Zm-.29-9.76a1.25,1.25,0,0,0-1.19.92,11.8,11.8,0,0,0,0,5.94,1.23,1.23,0,0,0,2.38,0,11.8,11.8,0,0,0,0-5.94A1.25,1.25,0,0,0,891.75,122.06Z"/><path id="DejaVuSansMono-Bold-67" d="M912.89,131.32a5.06,5.06,0,0,1-1.06.41,4.93,4.93,0,0,1-1.17.14,3.91,3.91,0,0,1-3.32-1.52,9,9,0,0,1,0-8.79,3.88,3.88,0,0,1,3.32-1.52,5.08,5.08,0,0,1,1.18.13,4.35,4.35,0,0,1,1,.42v2.5a3.87,3.87,0,0,0-1.06-.78,2.4,2.4,0,0,0-1.07-.25,1.94,1.94,0,0,0-1.76,1,7.36,7.36,0,0,0,0,5.82,1.94,1.94,0,0,0,1.76,1,2.4,2.4,0,0,0,1.07-.25,3.87,3.87,0,0,0,1.06-.78Z"/></g><g id="text_11" data-name="text 11"><path id="DejaVuSans-124-4" data-name="DejaVuSans-124" d="M817.36,109.05v8.32h-.65v-8.32Z"/></g><g id="text_12" data-name="text 12"><path id="DejaVuSans-51" d="M819.54,101.9a1.77,1.77,0,0,1,1,.63,1.82,1.82,0,0,1,.37,1.17,2,2,0,0,1-.7,1.67,3,3,0,0,1-2,.59,4.56,4.56,0,0,1-.89-.09,6.23,6.23,0,0,1-1-.27v-.95a3.07,3.07,0,0,0,.85.36,3.71,3.71,0,0,0,1,.12,2.11,2.11,0,0,0,1.33-.36,1.28,1.28,0,0,0,.46-1.07,1.23,1.23,0,0,0-.43-1,1.77,1.77,0,0,0-1.18-.36h-.8v-.81h.84a1.65,1.65,0,0,0,1-.29,1,1,0,0,0,.37-.84,1,1,0,0,0-.38-.86,1.66,1.66,0,0,0-1.07-.3,4,4,0,0,0-.82.09,8,8,0,0,0-1,.27v-.88a8.68,8.68,0,0,1,1-.23,5.52,5.52,0,0,1,.87-.08,2.55,2.55,0,0,1,1.68.51,1.7,1.7,0,0,1,.61,1.38,1.59,1.59,0,0,1-.32,1A1.71,1.71,0,0,1,819.54,101.9Z"/><path id="DejaVuSans-48" d="M824.71,99.19a1.15,1.15,0,0,0-1.08.75,7.18,7.18,0,0,0,0,4.49,1.15,1.15,0,0,0,2.16,0,7.18,7.18,0,0,0,0-4.49A1.15,1.15,0,0,0,824.71,99.19Zm0-.78a1.94,1.94,0,0,1,1.76,1,6.75,6.75,0,0,1,0,5.61,1.94,1.94,0,0,1-1.76,1,2,2,0,0,1-1.77-1,6.75,6.75,0,0,1,0-5.61A2,2,0,0,1,824.71,98.41Z"/></g><g id="text_13" data-name="text 13"><path id="DejaVuSansMono-Bold-83-7" data-name="DejaVuSansMono-Bold-83" d="M925.07,126.64a5.37,5.37,0,0,1-2.18-1.36,3,3,0,0,1-.57-1.92,3.2,3.2,0,0,1,.93-2.44,3.62,3.62,0,0,1,2.58-.88,6.32,6.32,0,0,1,1.49.18,7.23,7.23,0,0,1,1.47.53V123a5.75,5.75,0,0,0-1.4-.78,3.85,3.85,0,0,0-1.39-.27,1.87,1.87,0,0,0-1.19.33,1.14,1.14,0,0,0-.41.94,1.09,1.09,0,0,0,.3.78,3.82,3.82,0,0,0,1.25.68l.92.37a4.2,4.2,0,0,1,1.91,1.34,3.41,3.41,0,0,1,.61,2.09,3.25,3.25,0,0,1-1,2.58,4.27,4.27,0,0,1-2.91.86,6.41,6.41,0,0,1-1.61-.21,6.54,6.54,0,0,1-1.55-.6v-2.33a7.15,7.15,0,0,0,1.65,1,4.23,4.23,0,0,0,1.58.31,1.74,1.74,0,0,0,1.21-.38,1.32,1.32,0,0,0,.44-1.05,1.47,1.47,0,0,0-.29-.9,1.93,1.93,0,0,0-.84-.61Z"/><path id="DejaVuSansMono-Bold-69-3" data-name="DejaVuSansMono-Bold-69" d="M947.09,131.64h-6.7v-11.4h6.7v2h-4.57v2.46h4.14v2h-4.14v3h4.57Z"/><path id="DejaVuSansMono-Bold-82-2" data-name="DejaVuSansMono-Bold-82" d="M962.79,126.26a1.07,1.07,0,0,1,.55.32,4.21,4.21,0,0,1,.57,1l2,4.1h-2.34l-1.3-2.88-.15-.33c-.38-.86-.83-1.29-1.34-1.29h-.68v4.5h-2.13v-11.4H961a4.55,4.55,0,0,1,3,.78,3.2,3.2,0,0,1,.9,2.54,3,3,0,0,1-.54,1.87A2.27,2.27,0,0,1,962.79,126.26Zm-2.74-4.12v3.1h1a1.81,1.81,0,0,0,1.26-.36,1.6,1.6,0,0,0,.37-1.19,1.57,1.57,0,0,0-.37-1.19,1.79,1.79,0,0,0-1.26-.36Z"/><path id="DejaVuSansMono-Bold-81-2" data-name="DejaVuSansMono-Bold-81" d="M979.48,131.82l-.17,0-.13,0a3.13,3.13,0,0,1-2.81-1.5,10.76,10.76,0,0,1,0-8.84,3.43,3.43,0,0,1,5.66,0,8.3,8.3,0,0,1,1,4.42,10.82,10.82,0,0,1-.45,3.37,3.55,3.55,0,0,1-1.32,1.93l1.34,1.39-1.46,1.15Zm-.28-9.76a1.27,1.27,0,0,0-1.2.92,12.11,12.11,0,0,0,0,5.94,1.24,1.24,0,0,0,2.39,0,11.8,11.8,0,0,0,0-5.94A1.26,1.26,0,0,0,979.2,122.06Z"/></g><g id="text_14" data-name="text 14"><path id="DejaVuSans-124-5" data-name="DejaVuSans-124" d="M922.6,109.05v8.32H922v-8.32Z"/></g><g id="text_15" data-name="text 15"><path id="DejaVuSans-51-2" data-name="DejaVuSans-51" d="M924.77,101.9a1.77,1.77,0,0,1,1.05.63,1.82,1.82,0,0,1,.37,1.17,2,2,0,0,1-.7,1.67,3,3,0,0,1-2,.59,4.63,4.63,0,0,1-.89-.09,6.12,6.12,0,0,1-.94-.27v-.95a3,3,0,0,0,.84.36,3.85,3.85,0,0,0,1,.12,2.13,2.13,0,0,0,1.33-.36,1.31,1.31,0,0,0,.46-1.07,1.26,1.26,0,0,0-.43-1,1.77,1.77,0,0,0-1.18-.36h-.81v-.81h.84a1.66,1.66,0,0,0,1-.29,1.15,1.15,0,0,0,0-1.7,1.68,1.68,0,0,0-1.07-.3,4,4,0,0,0-.82.09,7.6,7.6,0,0,0-1,.27v-.88a9.34,9.34,0,0,1,1-.23,5.41,5.41,0,0,1,.87-.08,2.54,2.54,0,0,1,1.67.51,1.67,1.67,0,0,1,.62,1.38,1.6,1.6,0,0,1-.33,1A1.64,1.64,0,0,1,924.77,101.9Z"/><path id="DejaVuSans-54" d="M930.06,101.79a1.2,1.2,0,0,0-1,.45,1.89,1.89,0,0,0-.37,1.24,1.92,1.92,0,0,0,.37,1.25,1.31,1.31,0,0,0,2,0,1.92,1.92,0,0,0,.37-1.25,1.89,1.89,0,0,0-.37-1.24A1.2,1.2,0,0,0,930.06,101.79Zm1.85-3.09v.9a3.44,3.44,0,0,0-.71-.27,2.88,2.88,0,0,0-.71-.09,1.63,1.63,0,0,0-1.4.66,3.65,3.65,0,0,0-.56,2,1.83,1.83,0,0,1,.68-.65,1.89,1.89,0,0,1,.91-.23,2.06,2.06,0,0,1,1.63.67,3,3,0,0,1,0,3.6,2.15,2.15,0,0,1-1.67.68,2,2,0,0,1-1.82-1,5.14,5.14,0,0,1-.63-2.8,4.42,4.42,0,0,1,.77-2.75,2.47,2.47,0,0,1,2.08-1,4.15,4.15,0,0,1,.7.07A6.22,6.22,0,0,1,931.91,98.7Z"/></g><g id="text_16" data-name="text 16"><path id="DejaVuSansMono-Bold-65-3" data-name="DejaVuSansMono-Bold-65" d="M996,122.3,995,127h2Zm-1.3-2.06h2.6l2.91,11.4h-2.13l-.66-2.81h-2.85l-.65,2.81h-2.13Z"/><path id="DejaVuSansMono-Bold-82-3" data-name="DejaVuSansMono-Bold-82" d="M1015.15,126.26a1.06,1.06,0,0,1,.56.32,4.21,4.21,0,0,1,.57,1l2,4.1h-2.34l-1.3-2.88-.15-.33c-.38-.86-.83-1.29-1.34-1.29h-.68v4.5h-2.13v-11.4h3.08a4.57,4.57,0,0,1,3,.78,3.2,3.2,0,0,1,.9,2.54,3,3,0,0,1-.54,1.87A2.27,2.27,0,0,1,1015.15,126.26Zm-2.73-4.12v3.1h1a1.78,1.78,0,0,0,1.25-.36,2.08,2.08,0,0,0,0-2.38,1.79,1.79,0,0,0-1.26-.36Z"/><path id="DejaVuSansMono-Bold-76-4" data-name="DejaVuSansMono-Bold-76" d="M1028.74,131.64v-11.4h2.13v9.42h4.55v2Z"/><path id="DejaVuSansMono-Bold-70-2" data-name="DejaVuSansMono-Bold-70" d="M1052.93,122.23h-4.58v2.46h4.17v2h-4.17v5h-2.13v-11.4h6.71Z"/><path id="DejaVuSansMono-Bold-70-3" data-name="DejaVuSansMono-Bold-70" d="M1070.72,122.23h-4.58v2.46h4.17v2h-4.17v5H1064v-11.4h6.71Z"/><path id="DejaVuSansMono-Bold-72" d="M1081.48,120.24h2.12v4.35h2.67v-4.35h2.12v11.4h-2.12v-5.07h-2.67v5.07h-2.12Z"/></g><g id="text_17" data-name="text 17"><path id="DejaVuSans-124-6" data-name="DejaVuSans-124" d="M992.76,109.05v8.32h-.66v-8.32Z"/></g><g id="text_18" data-name="text 18"><path id="DejaVuSans-52" d="M994.67,99.4l-2.35,3.89h2.35Zm-.24-.86h1.17v4.75h1v.81h-1v1.72h-.93V104.1h-3.1v-.95Z"/><path id="DejaVuSans-48-2" data-name="DejaVuSans-48" d="M1000.1,99.19a1.15,1.15,0,0,0-1.08.75,7.18,7.18,0,0,0,0,4.49,1.15,1.15,0,0,0,1.08.75,1.17,1.17,0,0,0,1.09-.75,7.18,7.18,0,0,0,0-4.49A1.17,1.17,0,0,0,1000.1,99.19Zm0-.78a2,2,0,0,1,1.77,1,6.75,6.75,0,0,1,0,5.61,2,2,0,0,1-1.77,1,1.94,1.94,0,0,1-1.76-1,6.75,6.75,0,0,1,0-5.61A1.94,1.94,0,0,1,1000.1,98.41Z"/></g><g id="text_19" data-name="text 19"><path id="DejaVuSansMono-Bold-67-2" data-name="DejaVuSansMono-Bold-67" d="M1104.58,131.32a5.06,5.06,0,0,1-1.06.41,4.93,4.93,0,0,1-1.17.14,3.94,3.94,0,0,1-3.33-1.52,9,9,0,0,1,0-8.79,3.91,3.91,0,0,1,3.33-1.52,5.08,5.08,0,0,1,1.18.13,4.35,4.35,0,0,1,1,.42v2.5a3.91,3.91,0,0,0-1.07-.78,2.33,2.33,0,0,0-1.06-.25,1.93,1.93,0,0,0-1.76,1,7.36,7.36,0,0,0,0,5.82,1.93,1.93,0,0,0,1.76,1,2.33,2.33,0,0,0,1.06-.25,3.91,3.91,0,0,0,1.07-.78Z"/><path id="DejaVuSansMono-Bold-83-8" data-name="DejaVuSansMono-Bold-83" d="M1118.25,126.64a5.44,5.44,0,0,1-2.18-1.36,3,3,0,0,1-.57-1.92,3.17,3.17,0,0,1,.94-2.44A3.58,3.58,0,0,1,1119,120a6.32,6.32,0,0,1,1.49.18,6.82,6.82,0,0,1,1.47.53V123a5.88,5.88,0,0,0-1.39-.78,3.91,3.91,0,0,0-1.4-.27,1.84,1.84,0,0,0-1.18.33,1.12,1.12,0,0,0-.42.94,1.09,1.09,0,0,0,.3.78,3.79,3.79,0,0,0,1.26.68l.91.37a4.09,4.09,0,0,1,1.91,1.34,3.41,3.41,0,0,1,.62,2.09,3.22,3.22,0,0,1-1,2.58,4.27,4.27,0,0,1-2.91.86,6.28,6.28,0,0,1-1.6-.21,6.45,6.45,0,0,1-1.56-.6v-2.33a7.15,7.15,0,0,0,1.65,1,4.27,4.27,0,0,0,1.58.31,1.77,1.77,0,0,0,1.22-.38,1.34,1.34,0,0,0,.43-1.05,1.47,1.47,0,0,0-.29-.9,1.87,1.87,0,0,0-.84-.61Z"/><path id="DejaVuSansMono-Bold-81-3" data-name="DejaVuSansMono-Bold-81" d="M1137.09,131.82l-.17,0-.13,0a3.12,3.12,0,0,1-2.81-1.5,10.66,10.66,0,0,1,0-8.84,3.42,3.42,0,0,1,5.65,0,8.29,8.29,0,0,1,1,4.42,10.82,10.82,0,0,1-.45,3.37,3.61,3.61,0,0,1-1.33,1.93l1.35,1.39-1.46,1.15Zm-.29-9.76a1.26,1.26,0,0,0-1.19.92,12.11,12.11,0,0,0,0,5.94,1.24,1.24,0,0,0,2.39,0,12.11,12.11,0,0,0,0-5.94A1.26,1.26,0,0,0,1136.8,122.06Z"/><path id="DejaVuSansMono-Bold-89-3" data-name="DejaVuSansMono-Bold-89" d="M1150.2,120.24h2.3l2.09,4.58,2.1-4.58H1159l-3.32,6.91v4.49h-2.13v-4.49Z"/><path id="DejaVuSansMono-Bold-78-2" data-name="DejaVuSansMono-Bold-78" d="M1168.79,120.24h2.29l3,8.29v-8.29H1176v11.4h-2.27l-3-8.28v8.28h-1.88Z"/></g><g id="text_20" data-name="text 20"><path id="DejaVuSans-124-7" data-name="DejaVuSans-124" d="M1098,109.05v8.32h-.65v-8.32Z"/></g><g id="text_21" data-name="text 21"><path id="DejaVuSans-52-2" data-name="DejaVuSans-52" d="M1099.91,99.4l-2.35,3.89h2.35Zm-.25-.86h1.17v4.75h1v.81h-1v1.72h-.92V104.1h-3.11v-.95Z"/><path id="DejaVuSans-54-2" data-name="DejaVuSans-54" d="M1105.46,101.79a1.23,1.23,0,0,0-1,.45,2,2,0,0,0-.36,1.24,2,2,0,0,0,.36,1.25,1.33,1.33,0,0,0,2,0,2,2,0,0,0,.36-1.25,2,2,0,0,0-.36-1.24A1.23,1.23,0,0,0,1105.46,101.79Zm1.84-3.09v.9a3.24,3.24,0,0,0-.71-.27,2.8,2.8,0,0,0-.7-.09,1.63,1.63,0,0,0-1.41.66,3.66,3.66,0,0,0-.55,2,1.76,1.76,0,0,1,.68-.65,1.83,1.83,0,0,1,.9-.23,2.08,2.08,0,0,1,1.64.67,2.58,2.58,0,0,1,.6,1.8,2.53,2.53,0,0,1-.63,1.8,2.13,2.13,0,0,1-1.66.68,2,2,0,0,1-1.83-1,5.14,5.14,0,0,1-.63-2.8,4.49,4.49,0,0,1,.77-2.75,2.47,2.47,0,0,1,2.08-1,4.38,4.38,0,0,1,.71.07A6.09,6.09,0,0,1,1107.3,98.7Z"/></g><g id="text_22" data-name="text 22"><path id="DejaVuSansMono-Bold-71-8" data-name="DejaVuSansMono-Bold-71" d="M313.79,203.36v-2.17h-1.45v-1.9h3.32v5.23a4.29,4.29,0,0,1-1.36.84,4.35,4.35,0,0,1-1.58.29,3.79,3.79,0,0,1-3.23-1.54,7.26,7.26,0,0,1-1.14-4.37,7.17,7.17,0,0,1,1.15-4.4,3.92,3.92,0,0,1,3.32-1.52,4.32,4.32,0,0,1,1.28.19,4.51,4.51,0,0,1,1.17.56v2.5a3,3,0,0,0-1-.92,2.6,2.6,0,0,0-1.27-.31,2,2,0,0,0-1.81,1,5.65,5.65,0,0,0-.6,2.93,5.9,5.9,0,0,0,.58,2.89,1.83,1.83,0,0,0,1.68,1,2.52,2.52,0,0,0,.58-.06A1,1,0,0,0,313.79,203.36Z"/><path id="DejaVuSansMono-Bold-78-3" data-name="DejaVuSansMono-Bold-78" d="M326.15,194h2.29l3,8.29V194h1.87v11.4H331l-3-8.28v8.28h-1.88Z"/><path id="DejaVuSansMono-Bold-76-5" data-name="DejaVuSansMono-Bold-76" d="M344.7,205.42V194h2.13v9.42h4.55v2Z"/><path id="DejaVuSansMono-Bold-81-4" data-name="DejaVuSansMono-Bold-81" d="M365.6,205.6l-.17,0-.13,0a3.12,3.12,0,0,1-2.81-1.5,10.73,10.73,0,0,1,0-8.83,3.42,3.42,0,0,1,5.66,0,8.34,8.34,0,0,1,1,4.42,10.75,10.75,0,0,1-.45,3.36,3.72,3.72,0,0,1-1.32,1.94l1.34,1.38-1.46,1.15Zm-.29-9.76a1.26,1.26,0,0,0-1.19.92,8.62,8.62,0,0,0-.37,3,8.48,8.48,0,0,0,.37,3,1.24,1.24,0,0,0,2.39,0,8.44,8.44,0,0,0,.38-3,8.56,8.56,0,0,0-.38-3A1.26,1.26,0,0,0,365.31,195.84Z"/><path id="DejaVuSansMono-Bold-68" d="M381.78,196.06v7.33h.57a1.94,1.94,0,0,0,1.79-.83,5.56,5.56,0,0,0,.53-2.85,5.43,5.43,0,0,0-.53-2.82,1.94,1.94,0,0,0-1.79-.83Zm-2.13-2h2.28a4.81,4.81,0,0,1,3.8,1.34,6.6,6.6,0,0,1,1.16,4.35,6.7,6.7,0,0,1-1.16,4.38,4.8,4.8,0,0,1-3.8,1.33h-2.28Z"/><path id="DejaVuSansMono-Bold-76-6" data-name="DejaVuSansMono-Bold-76" d="M398.07,205.42V194h2.13v9.42h4.55v2Z"/><path id="DejaVuSansMono-Bold-75-2" data-name="DejaVuSansMono-Bold-75" d="M415.08,194h2.13v4.51l3.33-4.51H423l-3.4,4.49,3.52,6.91h-2.36l-2.56-5.13-.94,1.27v3.86h-2.13Z"/><path id="DejaVuSansMono-Bold-86-2" data-name="DejaVuSansMono-Bold-86" d="M436.47,203.55l1.9-9.53h2.14L438,205.42H435L432.44,194h2.14Z"/><path id="DejaVuSansMono-Bold-71-9" data-name="DejaVuSansMono-Bold-71" d="M456.1,203.36v-2.17h-1.45v-1.9H458v5.23a4.14,4.14,0,0,1-1.35.84,4.35,4.35,0,0,1-1.58.29,3.79,3.79,0,0,1-3.23-1.54,7.26,7.26,0,0,1-1.14-4.37,7.17,7.17,0,0,1,1.15-4.4,3.92,3.92,0,0,1,3.32-1.52,4.32,4.32,0,0,1,1.28.19,4.67,4.67,0,0,1,1.17.56v2.5a3,3,0,0,0-1-.92,2.6,2.6,0,0,0-1.27-.31,2,2,0,0,0-1.81,1,5.65,5.65,0,0,0-.6,2.93,5.79,5.79,0,0,0,.58,2.89,1.83,1.83,0,0,0,1.68,1,2.52,2.52,0,0,0,.58-.06A1,1,0,0,0,456.1,203.36Z"/><path id="DejaVuSansMono-Bold-68-2" data-name="DejaVuSansMono-Bold-68" d="M470.72,196.06v7.33h.58a1.93,1.93,0,0,0,1.78-.83,5.54,5.54,0,0,0,.54-2.85,5.41,5.41,0,0,0-.54-2.82,1.93,1.93,0,0,0-1.78-.83Zm-2.13-2h2.28a4.79,4.79,0,0,1,3.8,1.34,6.55,6.55,0,0,1,1.16,4.35,6.64,6.64,0,0,1-1.16,4.38,4.79,4.79,0,0,1-3.8,1.33h-2.28Z"/><path id="DejaVuSansMono-Bold-68-3" data-name="DejaVuSansMono-Bold-68" d="M488.51,196.06v7.33h.57a1.94,1.94,0,0,0,1.79-.83,5.54,5.54,0,0,0,.54-2.85,5.41,5.41,0,0,0-.54-2.82,1.94,1.94,0,0,0-1.79-.83Zm-2.13-2h2.28a4.79,4.79,0,0,1,3.8,1.34,6.6,6.6,0,0,1,1.16,4.35,6.7,6.7,0,0,1-1.16,4.38,4.79,4.79,0,0,1-3.8,1.33h-2.28Z"/></g><g id="text_23" data-name="text 23"><path id="DejaVuSans-124-8" data-name="DejaVuSans-124" d="M308.72,182.84v8.31h-.66v-8.31Z"/></g><g id="text_24" data-name="text 24"><path id="DejaVuSans-53" d="M308.08,172.32h3.66v.83h-2.8v1.79a2.42,2.42,0,0,1,.81-.15,2.46,2.46,0,0,1,1.82.67,2.42,2.42,0,0,1,.67,1.81,2.37,2.37,0,0,1-.69,1.82,2.7,2.7,0,0,1-1.95.65,4.43,4.43,0,0,1-.88-.08,7,7,0,0,1-.93-.23v-1a3.74,3.74,0,0,0,.86.36,4,4,0,0,0,.93.11,1.74,1.74,0,0,0,1.27-.44,1.81,1.81,0,0,0,0-2.41,1.78,1.78,0,0,0-1.27-.44,3.18,3.18,0,0,0-.74.09,3.47,3.47,0,0,0-.76.27Z"/><path id="DejaVuSans-49-3" data-name="DejaVuSans-49" d="M314.24,178.77h1.51v-5.55l-1.65.35v-.9l1.65-.35h.93v6.45h1.51v.83h-3.95Z"/></g><g id="text_25" data-name="text 25"><path id="DejaVuSansMono-Bold-86-3" data-name="DejaVuSansMono-Bold-86" d="M504.88,203.55l1.9-9.53h2.14l-2.56,11.4h-2.95L500.85,194H503Z"/><path id="DejaVuSansMono-Bold-69-4" data-name="DejaVuSansMono-Bold-69" d="M526.15,205.42h-6.71V194h6.71v2h-4.58v2.46h4.15v2h-4.15v3h4.58Z"/><path id="DejaVuSansMono-Bold-70-4" data-name="DejaVuSansMono-Bold-70" d="M544,196h-4.58v2.46h4.17v2h-4.17v5h-2.13V194H544Z"/><path id="DejaVuSansMono-Bold-69-5" data-name="DejaVuSansMono-Bold-69" d="M561.72,205.42H555V194h6.7v2h-4.58v2.46h4.15v2h-4.15v3h4.58Z"/><path id="DejaVuSansMono-Bold-86-4" data-name="DejaVuSansMono-Bold-86" d="M576,203.55l1.89-9.53h2.15l-2.56,11.4h-2.95L572,194h2.15Z"/><path id="DejaVuSansMono-Bold-83-9" data-name="DejaVuSansMono-Bold-83" d="M593.06,200.42a5.34,5.34,0,0,1-2.18-1.36,3,3,0,0,1-.57-1.92,3.16,3.16,0,0,1,.94-2.43,3.57,3.57,0,0,1,2.58-.89,6.24,6.24,0,0,1,1.48.18,6.82,6.82,0,0,1,1.47.53v2.2a5.69,5.69,0,0,0-1.39-.78,3.91,3.91,0,0,0-1.4-.27,1.84,1.84,0,0,0-1.18.33,1.11,1.11,0,0,0-.41.94,1.07,1.07,0,0,0,.3.78,3.54,3.54,0,0,0,1.25.68l.91.37a4.18,4.18,0,0,1,1.92,1.34,3.48,3.48,0,0,1,.61,2.1,3.25,3.25,0,0,1-1,2.58,4.31,4.31,0,0,1-2.9.85,6.87,6.87,0,0,1-3.16-.81v-2.33a6.9,6.9,0,0,0,1.64,1,4.31,4.31,0,0,0,1.58.31,1.82,1.82,0,0,0,1.22-.37,1.34,1.34,0,0,0,.43-1.06,1.43,1.43,0,0,0-.29-.9,1.9,1.9,0,0,0-.83-.61Z"/><path id="DejaVuSansMono-Bold-83-10" data-name="DejaVuSansMono-Bold-83" d="M610.85,200.42a5.34,5.34,0,0,1-2.18-1.36,3,3,0,0,1-.57-1.92,3.16,3.16,0,0,1,.94-2.43,3.54,3.54,0,0,1,2.57-.89,6.26,6.26,0,0,1,1.49.18,6.82,6.82,0,0,1,1.47.53v2.2a5.88,5.88,0,0,0-1.39-.78,3.91,3.91,0,0,0-1.4-.27,1.84,1.84,0,0,0-1.18.33,1.11,1.11,0,0,0-.41.94,1.07,1.07,0,0,0,.3.78,3.54,3.54,0,0,0,1.25.68l.91.37a4.09,4.09,0,0,1,1.91,1.34,3.42,3.42,0,0,1,.62,2.1,3.25,3.25,0,0,1-1,2.58,4.32,4.32,0,0,1-2.91.85,6.34,6.34,0,0,1-1.6-.21,6.45,6.45,0,0,1-1.56-.6v-2.33a7.15,7.15,0,0,0,1.65,1,4.27,4.27,0,0,0,1.58.31,1.82,1.82,0,0,0,1.22-.37,1.34,1.34,0,0,0,.43-1.06,1.49,1.49,0,0,0-.29-.9,1.9,1.9,0,0,0-.83-.61Z"/></g><g id="text_26" data-name="text 26"><path id="DejaVuSans-124-9" data-name="DejaVuSans-124" d="M501.65,182.84v8.31H501v-8.31Z"/></g><g id="text_27" data-name="text 27"><path id="DejaVuSans-54-3" data-name="DejaVuSans-54" d="M503.11,175.57a1.21,1.21,0,0,0-1,.45,2.28,2.28,0,0,0,0,2.49,1.21,1.21,0,0,0,1,.45,1.23,1.23,0,0,0,1-.45,2.33,2.33,0,0,0,0-2.49A1.23,1.23,0,0,0,503.11,175.57Zm1.85-3.09v.9a3.83,3.83,0,0,0-.71-.27,2.86,2.86,0,0,0-.7-.09,1.63,1.63,0,0,0-1.41.66,3.65,3.65,0,0,0-.56,2,1.83,1.83,0,0,1,.68-.65,1.89,1.89,0,0,1,.91-.23,2.06,2.06,0,0,1,1.63.67,2.94,2.94,0,0,1,0,3.61,2.16,2.16,0,0,1-1.67.67,2,2,0,0,1-1.82-1,5.2,5.2,0,0,1-.63-2.81,4.49,4.49,0,0,1,.77-2.75,2.47,2.47,0,0,1,2.08-1,3.51,3.51,0,0,1,.71.08A6.51,6.51,0,0,1,505,172.48Z"/><path id="DejaVuSans-50-2" data-name="DejaVuSans-50" d="M507.81,178.77h3.24v.83h-4.36v-.83l1.44-1.55c.61-.66,1-1.08,1.15-1.27a4.69,4.69,0,0,0,.63-.89,1.8,1.8,0,0,0,.17-.73,1.22,1.22,0,0,0-.38-.94,1.37,1.37,0,0,0-1-.37,2.93,2.93,0,0,0-.93.16,5.28,5.28,0,0,0-1,.49v-1a9.37,9.37,0,0,1,1.05-.36,3.71,3.71,0,0,1,.89-.12,2.44,2.44,0,0,1,1.7.57,1.91,1.91,0,0,1,.64,1.51,2.22,2.22,0,0,1-.16.85,4.4,4.4,0,0,1-.58.95l-.73.81Z"/></g><g id="text_28" data-name="text 28"><path id="DejaVuSansMono-Bold-68-4" data-name="DejaVuSansMono-Bold-68" d="M626.33,196.06v7.33h.58a2,2,0,0,0,1.79-.83,5.66,5.66,0,0,0,.53-2.85,5.53,5.53,0,0,0-.53-2.82,2,2,0,0,0-1.79-.83Zm-2.13-2h2.28a4.79,4.79,0,0,1,3.8,1.34,6.54,6.54,0,0,1,1.17,4.35,6.64,6.64,0,0,1-1.17,4.38,4.79,4.79,0,0,1-3.8,1.33H624.2Z"/><path id="DejaVuSansMono-Bold-82-4" data-name="DejaVuSansMono-Bold-82" d="M646.83,200a1.07,1.07,0,0,1,.55.32,4.46,4.46,0,0,1,.57,1l1.95,4.1h-2.34l-1.3-2.87-.15-.34c-.38-.86-.83-1.29-1.34-1.29h-.68v4.5H642V194H645a4.55,4.55,0,0,1,3,.78,3.2,3.2,0,0,1,.9,2.54,3,3,0,0,1-.54,1.87A2.27,2.27,0,0,1,646.83,200Zm-2.74-4.12V199h1a1.81,1.81,0,0,0,1.26-.37,2.1,2.1,0,0,0,0-2.38,1.79,1.79,0,0,0-1.26-.36Z"/><path id="DejaVuSansMono-Bold-82-5" data-name="DejaVuSansMono-Bold-82" d="M664.61,200a1.1,1.1,0,0,1,.56.32,4.46,4.46,0,0,1,.57,1l2,4.1h-2.34l-1.3-2.87-.15-.34c-.38-.86-.83-1.29-1.34-1.29h-.68v4.5h-2.13V194h3.08a4.57,4.57,0,0,1,3,.78,3.2,3.2,0,0,1,.9,2.54,3,3,0,0,1-.54,1.87A2.27,2.27,0,0,1,664.61,200Zm-2.73-4.12V199h1a1.78,1.78,0,0,0,1.25-.37,1.56,1.56,0,0,0,.38-1.19,1.59,1.59,0,0,0-.37-1.19,1.79,1.79,0,0,0-1.26-.36Z"/><path id="DejaVuSansMono-Bold-84-4" data-name="DejaVuSansMono-Bold-84" d="M682.09,205.42H680V196h-2.74v-2h7.6v2h-2.74Z"/><path id="DejaVuSansMono-Bold-71-10" data-name="DejaVuSansMono-Bold-71" d="M700.66,203.36v-2.17H699.2v-1.9h3.32v5.23a4.29,4.29,0,0,1-2.94,1.13,3.8,3.8,0,0,1-3.23-1.54,9,9,0,0,1,0-8.77,3.94,3.94,0,0,1,3.33-1.52A4.25,4.25,0,0,1,701,194a4.73,4.73,0,0,1,1.18.56v2.5a3.08,3.08,0,0,0-1-.92,2.62,2.62,0,0,0-1.27-.31,2,2,0,0,0-1.81,1,5.65,5.65,0,0,0-.6,2.93,5.79,5.79,0,0,0,.58,2.89,1.83,1.83,0,0,0,1.68,1,2.37,2.37,0,0,0,.57-.06A1,1,0,0,0,700.66,203.36Z"/><path id="DejaVuSansMono-Bold-75-3" data-name="DejaVuSansMono-Bold-75" d="M713,194h2.13v4.51l3.33-4.51h2.41l-3.4,4.49,3.52,6.91h-2.36l-2.55-5.13-1,1.27v3.86H713Z"/></g><g id="text_29" data-name="text 29"><path id="DejaVuSans-124-10" data-name="DejaVuSans-124" d="M624.43,182.84v8.31h-.66v-8.31Z"/></g><g id="text_30" data-name="text 30"><path id="DejaVuSans-54-4" data-name="DejaVuSans-54" d="M625.89,175.57a1.2,1.2,0,0,0-1,.45,2.28,2.28,0,0,0,0,2.49,1.31,1.31,0,0,0,2,0,2.28,2.28,0,0,0,0-2.49A1.2,1.2,0,0,0,625.89,175.57Zm1.85-3.09v.9a4.12,4.12,0,0,0-.71-.27,2.88,2.88,0,0,0-.71-.09,1.66,1.66,0,0,0-1.41.66,3.75,3.75,0,0,0-.55,2A1.83,1.83,0,0,1,625,175a1.88,1.88,0,0,1,.9-.23,2.08,2.08,0,0,1,1.64.67,3,3,0,0,1,0,3.61,2.18,2.18,0,0,1-1.67.67,2,2,0,0,1-1.82-1,5.2,5.2,0,0,1-.63-2.81,4.42,4.42,0,0,1,.77-2.75,2.45,2.45,0,0,1,2.07-1,3.43,3.43,0,0,1,.71.08A6.11,6.11,0,0,1,627.74,172.48Z"/><path id="DejaVuSans-57" d="M629.81,179.45v-.9a3.44,3.44,0,0,0,.71.27,2.94,2.94,0,0,0,.71.09,1.64,1.64,0,0,0,1.4-.65,3.65,3.65,0,0,0,.56-2,1.89,1.89,0,0,1-.68.64,1.86,1.86,0,0,1-.91.23,2.1,2.1,0,0,1-1.63-.66,2.62,2.62,0,0,1-.6-1.81,2.53,2.53,0,0,1,.63-1.8,2.15,2.15,0,0,1,1.66-.68,2,2,0,0,1,1.82,1,5.18,5.18,0,0,1,.63,2.81,4.44,4.44,0,0,1-.77,2.75,2.45,2.45,0,0,1-2.07,1,3.42,3.42,0,0,1-.71-.07A4.81,4.81,0,0,1,629.81,179.45Zm1.85-3.09a1.2,1.2,0,0,0,1-.45,2.26,2.26,0,0,0,0-2.48,1.18,1.18,0,0,0-1-.46,1.19,1.19,0,0,0-1,.46,2.32,2.32,0,0,0,0,2.48A1.21,1.21,0,0,0,631.66,176.36Z"/></g><g id="text_31" data-name="text 31"><path id="DejaVuSansMono-Bold-80-2" data-name="DejaVuSansMono-Bold-80" d="M731.75,195.92v3.34h.87a2.22,2.22,0,0,0,1.47-.37,2.22,2.22,0,0,0,0-2.6,2.22,2.22,0,0,0-1.47-.37Zm-2.13-1.9h2.92a4.9,4.9,0,0,1,3.21.84,4.29,4.29,0,0,1,0,5.46,4.9,4.9,0,0,1-3.21.84h-.79v4.26h-2.13Z"/><path id="DejaVuSansMono-Bold-73-3" data-name="DejaVuSansMono-Bold-73" d="M747.48,196v-2h6.42v2h-2.15v7.43h2.15v2h-6.42v-2h2.14V196Z"/><path id="DejaVuSansMono-Bold-65-4" data-name="DejaVuSansMono-Bold-65" d="M768.47,196.09l-1,4.66h2ZM767.18,194h2.6l2.91,11.4h-2.13l-.67-2.81H767l-.64,2.81h-2.13Z"/><path id="DejaVuSansMono-Bold-86-5" data-name="DejaVuSansMono-Bold-86" d="M786.26,203.55l1.9-9.53h2.14l-2.56,11.4h-3L782.23,194h2.14Z"/><path id="DejaVuSansMono-Bold-75-4" data-name="DejaVuSansMono-Bold-75" d="M800.45,194h2.13v4.51l3.33-4.51h2.41l-3.4,4.49,3.52,6.91h-2.36l-2.56-5.13-.94,1.27v3.86h-2.13Z"/><path id="DejaVuSansMono-Bold-76-7" data-name="DejaVuSansMono-Bold-76" d="M819,205.42V194h2.13v9.42h4.55v2Z"/><path id="DejaVuSansMono-Bold-86-6" data-name="DejaVuSansMono-Bold-86" d="M839.63,203.55l1.89-9.53h2.15l-2.56,11.4h-3L835.59,194h2.15Z"/><path id="DejaVuSansMono-Bold-75-5" data-name="DejaVuSansMono-Bold-75" d="M853.82,194H856v4.51l3.33-4.51h2.41l-3.4,4.49,3.52,6.91h-2.37l-2.55-5.13-.94,1.27v3.86h-2.13Z"/></g><g id="text_32" data-name="text 32"><path id="DejaVuSans-124-11" data-name="DejaVuSans-124" d="M729.66,182.84v8.31H729v-8.31Z"/></g><g id="text_33" data-name="text 33"><path id="DejaVuSans-55-2" data-name="DejaVuSans-55" d="M728.79,172.32h4.42v.42l-2.5,6.86h-1l2.35-6.45h-3.3Z"/><path id="DejaVuSans-53-2" data-name="DejaVuSans-53" d="M735,172.32h3.65v.83h-2.8v1.79a2.08,2.08,0,0,1,.41-.11,1.81,1.81,0,0,1,.4,0,2.31,2.31,0,0,1,2.5,2.48,2.37,2.37,0,0,1-.69,1.82,2.7,2.7,0,0,1-2,.65,4.43,4.43,0,0,1-.88-.08,7,7,0,0,1-.93-.23v-1a3.57,3.57,0,0,0,.86.36,4,4,0,0,0,.93.11,1.73,1.73,0,0,0,1.26-.44,1.78,1.78,0,0,0,0-2.41,1.77,1.77,0,0,0-1.26-.44,3.06,3.06,0,0,0-.74.09,3.47,3.47,0,0,0-.76.27Z"/></g><g id="text_34" data-name="text 34"><path id="DejaVuSansMono-Bold-73-4" data-name="DejaVuSansMono-Bold-73" d="M870,196v-2h6.41v2h-2.14v7.43h2.14v2H870v-2h2.14V196Z"/><path id="DejaVuSansMono-Bold-83-11" data-name="DejaVuSansMono-Bold-83" d="M890.24,200.42a5.26,5.26,0,0,1-2.18-1.36,3,3,0,0,1-.57-1.92,3.19,3.19,0,0,1,.93-2.43,3.58,3.58,0,0,1,2.58-.89,6.32,6.32,0,0,1,1.49.18,7.23,7.23,0,0,1,1.47.53v2.2a5.88,5.88,0,0,0-1.39-.78,4,4,0,0,0-1.4-.27A1.87,1.87,0,0,0,890,196a1.14,1.14,0,0,0-.41.94,1.07,1.07,0,0,0,.3.78,3.64,3.64,0,0,0,1.25.68l.92.37a4.14,4.14,0,0,1,1.91,1.34,3.42,3.42,0,0,1,.61,2.1,3.28,3.28,0,0,1-1,2.58,4.32,4.32,0,0,1-2.91.85,6.41,6.41,0,0,1-1.61-.21,6.54,6.54,0,0,1-1.55-.6v-2.33a7.15,7.15,0,0,0,1.65,1,4.27,4.27,0,0,0,1.58.31,1.79,1.79,0,0,0,1.21-.37,1.35,1.35,0,0,0,.44-1.06,1.49,1.49,0,0,0-.29-.9,1.93,1.93,0,0,0-.84-.61Z"/><path id="DejaVuSansMono-Bold-71-11" data-name="DejaVuSansMono-Bold-71" d="M910.64,203.36v-2.17h-1.46v-1.9h3.32v5.23a4.29,4.29,0,0,1-1.36.84,4.35,4.35,0,0,1-1.58.29,3.8,3.8,0,0,1-3.23-1.54,7.26,7.26,0,0,1-1.14-4.37,7.17,7.17,0,0,1,1.15-4.4,3.92,3.92,0,0,1,3.32-1.52,4.32,4.32,0,0,1,1.28.19,4.73,4.73,0,0,1,1.18.56v2.5a3.17,3.17,0,0,0-1-.92,2.63,2.63,0,0,0-1.28-.31,2,2,0,0,0-1.81,1,5.65,5.65,0,0,0-.6,2.93,5.9,5.9,0,0,0,.58,2.89,1.85,1.85,0,0,0,1.68,1,2.46,2.46,0,0,0,.58-.06A1.16,1.16,0,0,0,910.64,203.36Z"/><path id="DejaVuSansMono-Bold-80-3" data-name="DejaVuSansMono-Bold-80" d="M925.43,195.92v3.34h.87a2.22,2.22,0,0,0,1.47-.37,2.22,2.22,0,0,0,0-2.6,2.22,2.22,0,0,0-1.47-.37ZM923.3,194h2.92a4.9,4.9,0,0,1,3.21.84,4.29,4.29,0,0,1,0,5.46,4.9,4.9,0,0,1-3.21.84h-.79v4.26H923.3Z"/><path id="DejaVuSansMono-Bold-83-12" data-name="DejaVuSansMono-Bold-83" d="M943.6,200.42a5.34,5.34,0,0,1-2.18-1.36,3,3,0,0,1-.57-1.92,3.2,3.2,0,0,1,.94-2.43,3.57,3.57,0,0,1,2.58-.89,6.24,6.24,0,0,1,1.48.18,6.82,6.82,0,0,1,1.47.53v2.2a5.69,5.69,0,0,0-1.39-.78,3.91,3.91,0,0,0-1.4-.27,1.84,1.84,0,0,0-1.18.33,1.11,1.11,0,0,0-.41.94,1.07,1.07,0,0,0,.3.78,3.54,3.54,0,0,0,1.25.68l.91.37a4.18,4.18,0,0,1,1.92,1.34,3.42,3.42,0,0,1,.61,2.1,3.28,3.28,0,0,1-1,2.58,4.36,4.36,0,0,1-2.91.85,6.87,6.87,0,0,1-3.16-.81v-2.33a6.9,6.9,0,0,0,1.64,1,4.31,4.31,0,0,0,1.58.31,1.82,1.82,0,0,0,1.22-.37,1.34,1.34,0,0,0,.43-1.06,1.43,1.43,0,0,0-.29-.9,1.9,1.9,0,0,0-.83-.61Z"/><path id="DejaVuSansMono-Bold-83-13" data-name="DejaVuSansMono-Bold-83" d="M961.39,200.42a5.34,5.34,0,0,1-2.18-1.36,3,3,0,0,1-.57-1.92,3.16,3.16,0,0,1,.94-2.43,3.54,3.54,0,0,1,2.57-.89,6.26,6.26,0,0,1,1.49.18,6.82,6.82,0,0,1,1.47.53v2.2a5.88,5.88,0,0,0-1.39-.78,3.91,3.91,0,0,0-1.4-.27,1.84,1.84,0,0,0-1.18.33,1.11,1.11,0,0,0-.41.94,1.07,1.07,0,0,0,.3.78,3.54,3.54,0,0,0,1.25.68l.91.37a4.09,4.09,0,0,1,1.91,1.34,3.42,3.42,0,0,1,.62,2.1,3.25,3.25,0,0,1-1,2.58,4.31,4.31,0,0,1-2.9.85,6.87,6.87,0,0,1-3.16-.81v-2.33a6.9,6.9,0,0,0,1.64,1,4.27,4.27,0,0,0,1.58.31,1.82,1.82,0,0,0,1.22-.37,1.34,1.34,0,0,0,.43-1.06,1.49,1.49,0,0,0-.29-.9,1.9,1.9,0,0,0-.83-.61Z"/><path id="DejaVuSansMono-Bold-71-12" data-name="DejaVuSansMono-Bold-71" d="M981.79,203.36v-2.17h-1.46v-1.9h3.32v5.23a4.29,4.29,0,0,1-2.94,1.13,3.8,3.8,0,0,1-3.23-1.54,9,9,0,0,1,0-8.77,3.94,3.94,0,0,1,3.33-1.52,4.25,4.25,0,0,1,1.27.19,4.73,4.73,0,0,1,1.18.56v2.5a3.08,3.08,0,0,0-1-.92,2.62,2.62,0,0,0-1.27-.31,2,2,0,0,0-1.81,1,5.65,5.65,0,0,0-.6,2.93,5.79,5.79,0,0,0,.58,2.89,1.83,1.83,0,0,0,1.68,1,2.37,2.37,0,0,0,.57-.06A1,1,0,0,0,981.79,203.36Z"/></g><g id="text_35" data-name="text 35"><path id="DejaVuSans-124-12" data-name="DejaVuSans-124" d="M870,182.84v8.31h-.65v-8.31Z"/></g><g id="text_36" data-name="text 36"><path id="DejaVuSans-56-2" data-name="DejaVuSans-56" d="M871.33,176.14a1.44,1.44,0,0,0-1.05.38,1.6,1.6,0,0,0,0,2.07,1.43,1.43,0,0,0,1.05.37,1.41,1.41,0,0,0,1-.37,1.39,1.39,0,0,0,.38-1,1.37,1.37,0,0,0-.38-1A1.41,1.41,0,0,0,871.33,176.14Zm-.93-.41a1.73,1.73,0,0,1-.94-.59,1.72,1.72,0,0,1-.33-1.06,1.74,1.74,0,0,1,.59-1.38,2.8,2.8,0,0,1,3.22,0,1.73,1.73,0,0,1,.58,1.38,1.72,1.72,0,0,1-.33,1.06,1.67,1.67,0,0,1-.93.59,1.79,1.79,0,0,1,1,.65,1.84,1.84,0,0,1,.37,1.17,2.11,2.11,0,0,1-.61,1.63,2.49,2.49,0,0,1-1.74.56,2.52,2.52,0,0,1-1.75-.56,2.11,2.11,0,0,1-.61-1.63,1.79,1.79,0,0,1,1.43-1.82Zm-.34-1.56a1.15,1.15,0,0,0,.33.88,1.53,1.53,0,0,0,1.87,0,1.31,1.31,0,0,0,0-1.76,1.53,1.53,0,0,0-1.87,0A1.15,1.15,0,0,0,870.06,174.17Z"/><path id="DejaVuSans-51-3" data-name="DejaVuSans-51" d="M878.16,175.68a1.77,1.77,0,0,1,1,.63,1.85,1.85,0,0,1,.37,1.18,2,2,0,0,1-.7,1.66,3,3,0,0,1-2,.59,4.71,4.71,0,0,1-.89-.09,6.12,6.12,0,0,1-.94-.27v-.95a3.13,3.13,0,0,0,.84.36,3.85,3.85,0,0,0,1,.12,2.13,2.13,0,0,0,1.33-.36,1.31,1.31,0,0,0,.46-1.06,1.24,1.24,0,0,0-.43-1,1.77,1.77,0,0,0-1.18-.36h-.8v-.81h.83a1.66,1.66,0,0,0,1-.29,1,1,0,0,0,.37-.84,1,1,0,0,0-.38-.86A1.68,1.68,0,0,0,877,173a4,4,0,0,0-.82.09,7.6,7.6,0,0,0-1,.27v-.88a9.34,9.34,0,0,1,1-.23,5.52,5.52,0,0,1,.87-.08,2.52,2.52,0,0,1,1.67.51,1.67,1.67,0,0,1,.62,1.38,1.65,1.65,0,0,1-.32,1A1.71,1.71,0,0,1,878.16,175.68Z"/></g><g id="text_37" data-name="text 37"><path id="DejaVuSansMono-67" class="cls-5" d="M1003.23,227.89a4.66,4.66,0,0,1-1.14.47,4.53,4.53,0,0,1-1.24.16,3.76,3.76,0,0,1-3.21-1.55,7.18,7.18,0,0,1-1.15-4.36,7.29,7.29,0,0,1,1.15-4.36,3.77,3.77,0,0,1,3.21-1.56,4.53,4.53,0,0,1,1.24.16,4.66,4.66,0,0,1,1.14.47v1.58a3.85,3.85,0,0,0-1.15-.71,3.15,3.15,0,0,0-1.23-.25,2.33,2.33,0,0,0-2.13,1.16,6.92,6.92,0,0,0-.7,3.51,6.83,6.83,0,0,0,.7,3.49,2.32,2.32,0,0,0,2.13,1.17,3.35,3.35,0,0,0,1.24-.25,3.81,3.81,0,0,0,1.14-.71Z"/><path id="DejaVuSansMono-108" class="cls-5" d="M1017.89,225.2a2.56,2.56,0,0,0,.33,1.43,1.11,1.11,0,0,0,1,.47h1.55v1.2h-1.68a2.21,2.21,0,0,1-1.84-.81,3.55,3.55,0,0,1-.66-2.29v-7.77h-2.13v-1.1h3.46Z"/><path id="DejaVuSansMono-111" class="cls-5" d="M1026.62,220.73a1.7,1.7,0,0,0-1.53.83,6.1,6.1,0,0,0,0,4.93,1.81,1.81,0,0,0,3.06,0,6.1,6.1,0,0,0,0-4.93A1.69,1.69,0,0,0,1026.62,220.73Zm0-1.19a3.05,3.05,0,0,1,2.57,1.15,6.71,6.71,0,0,1,0,6.68,3.45,3.45,0,0,1-5.14,0,6.71,6.71,0,0,1,0-6.68A3,3,0,0,1,1026.62,219.54Z"/><path id="DejaVuSansMono-111-2" data-name="DejaVuSansMono-111" class="cls-5" d="M1035.51,220.73a1.71,1.71,0,0,0-1.53.83,6.1,6.1,0,0,0,0,4.93,1.82,1.82,0,0,0,3.07,0,6.1,6.1,0,0,0,0-4.93A1.71,1.71,0,0,0,1035.51,220.73Zm0-1.19a3,3,0,0,1,2.57,1.15A5.34,5.34,0,0,1,1039,224a5.4,5.4,0,0,1-.88,3.34,3.46,3.46,0,0,1-5.15,0,6.78,6.78,0,0,1,0-6.68A3,3,0,0,1,1035.51,219.54Z"/><path id="DejaVuSansMono-112" class="cls-5" d="M1042.67,227.22v4.33h-1.34V219.74h1.34v1.1a2.31,2.31,0,0,1,.88-1,2.43,2.43,0,0,1,1.27-.33,2.64,2.64,0,0,1,2.3,1.2,5.7,5.7,0,0,1,.84,3.32,5.57,5.57,0,0,1-.84,3.27,2.67,2.67,0,0,1-2.3,1.19,2.41,2.41,0,0,1-1.28-.33A2.29,2.29,0,0,1,1042.67,227.22Zm3.89-3.19a4.94,4.94,0,0,0-.49-2.47,1.57,1.57,0,0,0-1.44-.83,1.61,1.61,0,0,0-1.47.84,4.88,4.88,0,0,0-.49,2.46,4.93,4.93,0,0,0,.49,2.46,1.61,1.61,0,0,0,1.47.84,1.57,1.57,0,0,0,1.44-.83A4.94,4.94,0,0,0,1046.56,224Z"/></g><g id="text_38" data-name="text 38"><path id="DejaVuSans-124-13" data-name="DejaVuSans-124" d="M975.22,182.84v8.31h-.66v-8.31Z"/></g><g id="text_39" data-name="text 39"><path id="DejaVuSans-56-3" data-name="DejaVuSans-56" d="M976.56,176.14a1.41,1.41,0,1,0,0,2.82,1.3,1.3,0,0,0,1.43-1.41,1.41,1.41,0,0,0-.38-1A1.42,1.42,0,0,0,976.56,176.14Zm-.93-.41a1.67,1.67,0,0,1-.93-.59,1.72,1.72,0,0,1-.33-1.06,1.73,1.73,0,0,1,.58-1.38,2.81,2.81,0,0,1,3.23,0,1.73,1.73,0,0,1,.58,1.38,1.72,1.72,0,0,1-.33,1.06,1.74,1.74,0,0,1-.93.59,1.74,1.74,0,0,1,1,.65,1.79,1.79,0,0,1,.38,1.17,2.11,2.11,0,0,1-.61,1.63,2.52,2.52,0,0,1-1.75.56,2.49,2.49,0,0,1-1.74-.56,2.11,2.11,0,0,1-.61-1.63,1.77,1.77,0,0,1,1.42-1.82Zm-.34-1.56a1.12,1.12,0,0,0,.34.88,1.3,1.3,0,0,0,.93.32,1.32,1.32,0,0,0,.94-.32,1.31,1.31,0,0,0,0-1.76,1.32,1.32,0,0,0-.94-.32,1.3,1.3,0,0,0-.93.32A1.12,1.12,0,0,0,975.29,174.17Z"/><path id="DejaVuSans-57-2" data-name="DejaVuSans-57" d="M980.6,179.45v-.9a3.44,3.44,0,0,0,.71.27,2.94,2.94,0,0,0,.71.09,1.64,1.64,0,0,0,1.4-.65,3.65,3.65,0,0,0,.56-2,1.89,1.89,0,0,1-.68.64,1.86,1.86,0,0,1-.91.23,2.1,2.1,0,0,1-1.63-.66,2.62,2.62,0,0,1-.6-1.81,2.53,2.53,0,0,1,.63-1.8,2.15,2.15,0,0,1,1.66-.68,2,2,0,0,1,1.82,1,5.18,5.18,0,0,1,.63,2.81,4.44,4.44,0,0,1-.77,2.75,2.45,2.45,0,0,1-2.07,1,3.42,3.42,0,0,1-.71-.07A4.81,4.81,0,0,1,980.6,179.45Zm1.85-3.09a1.2,1.2,0,0,0,1-.45,2.26,2.26,0,0,0,0-2.48,1.3,1.3,0,0,0-2,0,2.32,2.32,0,0,0,0,2.48A1.2,1.2,0,0,0,982.45,176.36Z"/></g><text class="cls-6" transform="translate(41.54 73.16)">Upstream of N-Ras protein<tspan x="51.12" y="24">(residue 15-90)</tspan></text></svg>