<?xml version="1.0" encoding="utf-8"?>
<!-- Generator: Adobe Illustrator 25.2.0, SVG Export Plug-In . SVG Version: 6.00 Build 0)  -->
<svg version="1.1" id="图层_1" xmlns="http://www.w3.org/2000/svg" xmlns:xlink="http://www.w3.org/1999/xlink" x="0px" y="0px"
	 viewBox="0 0 800 400" style="enable-background:new 0 0 800 400;" xml:space="preserve">
<style type="text/css">
	.st0{font-family:'ArialMT';}
	.st1{font-size:12.73px;}
	.st2{font-size:7.83px;}
	.st3{font-size:20px;}
	.st4{font-family:'AdobeSongStd-Light-GBpc-EUC-H';}
	.st5{letter-spacing:-1;}
</style>
<polygon points="146,97.5 171,83 171,83.7 171,84.4 146,98.8 146,98.1 "/>
<polygon points="171,83 196,97.5 196,98.1 195.4,98.5 171,84.4 171,83.7 "/>
<polygon points="196,97.5 221,83 221,83.7 221,84.4 196.6,98.5 196,98.1 "/>
<polygon points="218.7,84.7 218.7,61.2 219.3,61.2 219.9,61.2 219.9,84.7 219.3,84.7 "/>
<polygon points="222.2,84.7 222.2,61.2 222.7,61.2 223.3,61.2 223.3,84.7 222.7,84.7 "/>
<g>
	<text transform="matrix(1 0 0 1 216.06 59.99)" class="st0 st1">O</text>
</g>
<polygon points="221,83 240.2,94.1 239.9,94.6 239.6,95.1 221,84.4 221,83.7 "/>
<g>
	<text transform="matrix(1 0 0 1 241.05 103.28)" class="st0 st1">O</text>
	<text transform="matrix(1 0 0 1 250.95 103.28)" class="st0 st1">H</text>
</g>
<polygon points="196.6,98.5 196.6,120.6 196,120.6 195.4,120.6 195.4,98.5 196,98.1 "/>
<g>
	<text transform="matrix(1 0 0 1 191.42 130.5)" class="st0 st1">N</text>
	<text transform="matrix(1 0 0 1 200.61 130.5)" class="st0 st1">H</text>
	<text transform="matrix(1 0 0 1 209.8 132.45)" class="st0 st2">2</text>
</g>
<polygon points="146,98.8 121,84.4 121,83.7 121,83 146,97.5 146,98.1 "/>
<polygon points="121,84.4 102.1,95.3 101.8,94.8 101.5,94.3 121,83 121,83.7 "/>
<g>
	<text transform="matrix(1 0 0 1 91.45 103.28)" class="st0 st1">N</text>
</g>
<polygon points="90,95.3 71.1,84.4 71.1,83.7 71.6,83.4 90.6,94.3 90.3,94.8 "/>
<polygon points="91.7,92.3 74.2,82.2 74.5,81.7 74.8,81.2 92.3,91.3 92,91.8 "/>
<polygon points="71.1,84.4 52.1,95.3 51.8,94.8 51.5,94.3 70.5,83.4 71.1,83.7 "/>
<g>
	<text transform="matrix(1 0 0 1 28.03 101.64)" class="st0 st1">H</text>
	<text transform="matrix(1 0 0 1 37.22 103.6)" class="st0 st2">2</text>
	<text transform="matrix(1 0 0 1 41.57 101.64)" class="st0 st1">N</text>
</g>
<polygon points="70.5,83.4 70.5,61.2 71.1,61.2 71.6,61.2 71.6,83.4 71.1,83.7 "/>
<g>
	<text transform="matrix(1 0 0 1 66.46 58.35)" class="st0 st1">N</text>
	<text transform="matrix(1 0 0 1 75.65 58.35)" class="st0 st1">H</text>
	<text transform="matrix(1 0 0 1 84.84 60.31)" class="st0 st2">2</text>
</g>
<polygon points="401.2,101.1 426.2,86.7 426.2,87.4 426.2,88 401.2,102.5 401.2,101.8 "/>
<polygon points="426.2,86.7 451.2,101.1 451.2,101.8 450.6,102.1 426.2,88 426.2,87.4 "/>
<polygon points="451.2,101.1 476.2,86.7 476.2,87.4 476.2,88 451.7,102.1 451.2,101.8 "/>
<polygon points="473.9,88.4 473.9,64.9 474.4,64.9 475,64.9 475,88.4 474.4,88.4 "/>
<polygon points="477.3,88.4 477.3,64.9 477.9,64.9 478.5,64.9 478.5,88.4 477.9,88.4 "/>
<g>
	<text transform="matrix(1 0 0 1 471.21 63.66)" class="st0 st1">O</text>
</g>
<polygon points="476.2,86.7 495.3,97.8 495,98.3 494.8,98.8 476.2,88 476.2,87.4 "/>
<g>
	<text transform="matrix(1 0 0 1 496.2 106.95)" class="st0 st1">O</text>
	<text transform="matrix(1 0 0 1 506.1 106.95)" class="st0 st1">H</text>
</g>
<polygon points="451.7,102.1 451.7,124.2 451.2,124.2 450.6,124.2 450.6,102.1 451.2,101.8 "/>
<g>
	<text transform="matrix(1 0 0 1 446.57 134.17)" class="st0 st1">N</text>
	<text transform="matrix(1 0 0 1 455.76 134.17)" class="st0 st1">H</text>
	<text transform="matrix(1 0 0 1 464.95 136.13)" class="st0 st2">2</text>
</g>
<polygon points="401.2,102.5 376.2,88 376.2,87.4 376.2,86.7 401.2,101.1 401.2,101.8 "/>
<polygon points="376.2,88 357.2,99 356.9,98.5 356.6,98 376.2,86.7 376.2,87.4 "/>
<g>
	<text transform="matrix(1 0 0 1 346.6 106.95)" class="st0 st1">N</text>
</g>
<polygon points="345.1,99 326.2,88 326.2,87.4 326.8,87 345.7,98 345.4,98.5 "/>
<polygon points="346.9,96 329.4,85.9 329.7,85.4 330,84.9 347.5,95 347.2,95.5 "/>
<polygon points="326.2,88 307.2,99 307,98.5 306.7,98 325.6,87 326.2,87.4 "/>
<g>
	<text transform="matrix(1 0 0 1 283.18 105.31)" class="st0 st1">H</text>
	<text transform="matrix(1 0 0 1 292.37 107.27)" class="st0 st2">2</text>
	<text transform="matrix(1 0 0 1 296.72 105.31)" class="st0 st1">N</text>
</g>
<polygon points="325.6,87 325.6,64.9 326.2,64.9 326.8,64.9 326.8,87 326.2,87.4 "/>
<g>
	<text transform="matrix(1 0 0 1 321.6 62.02)" class="st0 st1">N</text>
	<text transform="matrix(1 0 0 1 330.79 62.02)" class="st0 st1">H</text>
	<text transform="matrix(1 0 0 1 339.98 63.98)" class="st0 st2">2</text>
</g>
<polygon points="628,78.1 653,63.7 653,64.3 653,65 628,79.4 628,78.8 "/>
<polygon points="653,63.7 678,78.1 678,78.8 678,79.4 653,65 653,64.3 "/>
<polygon points="678,78.1 697,67.1 697.2,67.6 697.5,68.1 678,79.4 678,78.8 "/>
<g>
	<text transform="matrix(1 0 0 1 698.39 69.47)" class="st0 st1">N</text>
</g>
<polygon points="709,67.1 728,78.1 728,78.8 727.4,79.1 708.5,68.1 708.7,67.6 "/>
<polygon points="707.3,70.1 724.8,80.2 724.5,80.8 724.2,81.2 706.7,71.1 707,70.6 "/>
<polygon points="728,78.1 746.9,67.1 747.2,67.6 747.5,68.1 728.6,79.1 728,78.8 "/>
<g>
	<text transform="matrix(1 0 0 1 748.38 67.83)" class="st0 st1">N</text>
	<text transform="matrix(1 0 0 1 757.57 67.83)" class="st0 st1">H</text>
	<text transform="matrix(1 0 0 1 766.76 69.79)" class="st0 st2">2</text>
</g>
<polygon points="728.6,79.1 728.6,101.2 728,101.2 727.4,101.2 727.4,79.1 728,78.8 "/>
<g>
	<text transform="matrix(1 0 0 1 723.38 111.12)" class="st0 st1">N</text>
	<text transform="matrix(1 0 0 1 732.57 111.12)" class="st0 st1">H</text>
	<text transform="matrix(1 0 0 1 741.76 113.08)" class="st0 st2">2</text>
</g>
<polygon points="628,79.4 603,65 603,64.3 603,63.7 628,78.1 628,78.8 "/>
<polygon points="603,65 584.1,75.9 583.8,75.4 583.5,74.9 603,63.7 603,64.3 "/>
<g>
	<text transform="matrix(1 0 0 1 559.99 82.26)" class="st0 st1">H</text>
	<text transform="matrix(1 0 0 1 569.18 84.22)" class="st0 st2">2</text>
	<text transform="matrix(1 0 0 1 573.54 82.26)" class="st0 st1">N</text>
</g>
<polygon points="118.5,261.5 118.5,285 117.9,285 117.3,285 117.3,261.5 117.9,261.5 "/>
<polygon points="115,261.5 115,285 114.5,285 113.9,285 113.9,261.5 114.5,261.5 "/>
<g>
	<text transform="matrix(1 0 0 1 111.59 296.53)" class="st0 st1">N</text>
	<text transform="matrix(1 0 0 1 120.79 296.53)" class="st0 st1">H</text>
</g>
<polygon points="116.2,261.9 135.1,250.9 135.4,251.4 135.7,251.9 116.2,263.2 116.2,262.5 "/>
<g>
	<text transform="matrix(1 0 0 1 136.59 251.6)" class="st0 st1">N</text>
	<text transform="matrix(1 0 0 1 145.78 251.6)" class="st0 st1">H</text>
	<text transform="matrix(1 0 0 1 154.97 253.56)" class="st0 st2">2</text>
</g>
<polygon points="116.2,263.2 96.7,251.9 96.9,251.4 97.2,250.9 116.2,261.9 116.2,262.5 "/>
<g>
	<text transform="matrix(1 0 0 1 73.17 251.6)" class="st0 st1">H</text>
	<text transform="matrix(1 0 0 1 82.36 253.56)" class="st0 st2">2</text>
	<text transform="matrix(1 0 0 1 86.71 251.6)" class="st0 st1">N</text>
</g>
<polygon points="419.5,307.8 440.1,308.5 440.1,309.1 440,309.7 419.5,308.9 419.5,308.3 "/>
<polygon points="417.3,311.1 439.9,312 439.9,312.6 439.9,313.2 416.4,312.3 416.8,311.7 "/>
<g>
	<text transform="matrix(1 0 0 1 441.08 317.96)" class="st0 st1">N</text>
</g>
<polygon points="447.5,306.2 455,285.9 455.6,285.7 456.1,286.2 448.6,306.6 448,306.4 "/>
<polygon points="455,285.9 432.9,268.6 433,267.9 433.6,267.6 455.7,285.1 455.6,285.7 "/>
<polygon points="455.9,282.2 436.3,266.8 436.7,266.4 437,265.9 456.6,281.3 456.2,281.8 "/>
<polygon points="432.9,268.6 415,280.6 414.7,280.1 414.4,279.6 432.4,267.5 433,267.9 "/>
<g>
	<text transform="matrix(1 0 0 1 404.38 289.08)" class="st0 st1">N</text>
</g>
<polygon points="403,282.4 382,274.6 381.9,274 382.4,273.5 403.4,281.3 403.2,281.8 "/>
<polygon points="382,274.6 358.5,290.3 357.9,290 357.9,289.3 381.2,273.7 381.9,274 "/>
<polygon points="357.3,290.3 335.1,272.8 335.2,272.2 335.9,272 357.9,289.3 357.9,290 "/>
<polygon points="334.8,271.7 344.6,245.2 345.2,245.1 345.6,245.7 335.9,272 335.2,272.2 "/>
<polygon points="345.5,244.5 368,245.4 367.9,246 367.9,246.5 345.6,245.7 345.2,245.1 "/>
<g>
	<text transform="matrix(1 0 0 1 369.09 251.34)" class="st0 st1">O</text>
</g>
<polygon points="376.4,252.4 382.4,273.5 381.9,274 381.2,273.7 375.3,252.8 375.9,252.6 "/>
<polygon points="344.6,245.2 328.9,221.7 329.1,221.1 329.4,220.5 345.5,244.5 345.2,245.1 "/>
<polygon points="328.9,221.7 306.5,223.2 306.5,222.6 306.4,222 329.4,220.5 329.1,221.1 "/>
<g>
	<text transform="matrix(1 0 0 1 286.21 228.16)" class="st0 st1">H</text>
	<text transform="matrix(1 0 0 1 295.4 228.16)" class="st0 st1">O</text>
</g>
<polygon points="335.1,272.8 313.7,278.9 313.6,278.3 313.4,277.7 334.8,271.7 335.2,272.2 "/>
<g>
	<text transform="matrix(1 0 0 1 293.32 285.17)" class="st0 st1">H</text>
	<text transform="matrix(1 0 0 1 302.51 285.17)" class="st0 st1">O</text>
</g>
<polygon points="358.5,290.3 357.6,312.5 357,312.4 356.5,312.4 357.3,290.3 357.9,290 "/>
<g>
	<text transform="matrix(1 0 0 1 342.66 324)" class="st0 st1">H</text>
	<text transform="matrix(1 0 0 1 351.85 324)" class="st0 st1">O</text>
</g>
<polygon points="411.4,290.2 417.3,311.1 416.8,311.7 416.4,312.3 410.2,290.5 410.8,290.4 "/>
<polygon points="432.4,267.5 435.6,245.6 436.1,245.7 436.7,245.8 433.6,267.6 433,267.9 "/>
<g>
	<text transform="matrix(1 0 0 1 432.48 244.46)" class="st0 st1">N</text>
</g>
<polygon points="442.6,236.5 463.4,228.2 463.9,228.6 463.8,229.3 443,237.6 442.8,237 "/>
<polygon points="443.9,239.7 463.1,232 463.3,232.6 463.5,233.1 444.3,240.8 444.1,240.2 "/>
<polygon points="464.5,228.4 481.2,241.5 480.8,241.9 480.5,242.4 463.8,229.3 463.9,228.6 "/>
<g>
	<text transform="matrix(1 0 0 1 481.96 251.6)" class="st0 st1">N</text>
	<text transform="matrix(1 0 0 1 491.15 251.6)" class="st0 st1">H</text>
</g>
<polygon points="486.2,252.9 483,275.4 482.4,275 481.9,274.6 485.1,252.8 485.6,252.9 "/>
<polygon points="483.3,272.2 486.9,277.3 486.4,277.6 485.9,278 482.3,272.8 482.8,272.5 "/>
<polygon points="481.3,275.3 484,279.3 483.5,279.6 483.1,280 480.3,276 480.8,275.7 "/>
<g>
	<text transform="matrix(1 0 0 1 484.49 290.2)" class="st0 st1">O</text>
</g>
<polygon points="483,275.4 456.1,286.2 455.6,285.7 455.7,285.1 481.9,274.6 482.4,275 "/>
<polygon points="463.4,228.2 466.5,206.4 467.1,206.4 467.6,206.5 464.5,228.4 463.9,228.6 "/>
<g>
	<text transform="matrix(1 0 0 1 463.4 203.55)" class="st0 st1">N</text>
	<text transform="matrix(1 0 0 1 472.59 203.55)" class="st0 st1">H</text>
	<text transform="matrix(1 0 0 1 481.78 205.5)" class="st0 st2">2</text>
</g>
<polygon points="669.9,282.4 694.9,267.9 694.9,268.6 694.9,269.3 669.9,283.7 669.9,283 "/>
<polygon points="694.9,267.9 719.9,282.4 719.9,283 719.3,283.4 694.9,269.3 694.9,268.6 "/>
<polygon points="719.9,282.4 744.9,267.9 744.9,268.6 744.9,269.3 720.5,283.4 719.9,283 "/>
<polygon points="742.6,269.6 742.6,246.2 743.2,246.2 743.7,246.2 743.7,269.6 743.2,269.6 "/>
<polygon points="746,269.6 746,246.2 746.6,246.2 747.2,246.2 747.2,269.6 746.6,269.6 "/>
<g>
	<text transform="matrix(1 0 0 1 739.94 244.89)" class="st0 st1">O</text>
</g>
<polygon points="744.9,267.9 764.1,279 763.8,279.5 763.5,280 744.9,269.3 744.9,268.6 "/>
<g>
	<text transform="matrix(1 0 0 1 764.94 288.18)" class="st0 st1">O</text>
	<text transform="matrix(1 0 0 1 774.84 288.18)" class="st0 st1">H</text>
</g>
<polygon points="720.5,283.4 720.5,305.5 719.9,305.5 719.3,305.5 719.3,283.4 719.9,283 "/>
<g>
	<text transform="matrix(1 0 0 1 715.31 315.4)" class="st0 st1">N</text>
	<text transform="matrix(1 0 0 1 724.5 315.4)" class="st0 st1">H</text>
	<text transform="matrix(1 0 0 1 733.69 317.36)" class="st0 st2">2</text>
</g>
<polygon points="669.9,283.7 644.9,269.3 644.9,268.6 644.9,267.9 669.9,282.4 669.9,283 "/>
<polygon points="644.9,269.3 626,280.2 625.7,279.7 625.4,279.2 644.9,267.9 644.9,268.6 "/>
<g>
	<text transform="matrix(1 0 0 1 615.33 288.18)" class="st0 st1">N</text>
</g>
<g>
	<text transform="matrix(1 0 0 1 615.33 299.8)" class="st0 st1">H</text>
</g>
<polygon points="613.9,280.2 594.9,269.3 594.9,268.6 594.9,267.9 614.5,279.2 614.2,279.7 "/>
<polygon points="592.6,269.6 592.6,246.2 593.2,246.2 593.8,246.2 593.8,269.6 593.2,269.6 "/>
<polygon points="596.1,269.6 596.1,246.2 596.7,246.2 597.2,246.2 597.2,269.6 596.7,269.6 "/>
<g>
	<text transform="matrix(1 0 0 1 589.99 244.89)" class="st0 st1">O</text>
</g>
<polygon points="594.9,269.3 576,280.2 575.7,279.7 575.4,279.2 594.9,267.9 594.9,268.6 "/>
<g>
	<text transform="matrix(1 0 0 1 551.91 286.54)" class="st0 st1">H</text>
	<text transform="matrix(1 0 0 1 561.1 288.5)" class="st0 st2">2</text>
	<text transform="matrix(1 0 0 1 565.46 286.54)" class="st0 st1">N</text>
</g>
<text transform="matrix(1 0 0 1 569.41 366.05)" class="st0 st3">L-Citrulline</text>
<text transform="matrix(1 0 0 1 665 366.487)" class="st4 st3">：</text>
<text transform="matrix(1 0 0 1 685 366.05)" class="st0 st3">7190μM</text>
<text transform="matrix(1 0 0 1 61.28 176.64)" class="st0 st3">L-arginine</text>
<text transform="matrix(1 0 0 1 150.23 177.077)" class="st4 st3">：</text>
<text transform="matrix(1 0 0 1 170.23 176.64)" class="st0 st3">60μM</text>
<text transform="matrix(1 0 0 1 311.84 176.64)" class="st0 st3">D-arginine</text>
<text transform="matrix(1 0 0 1 404.11 177.077)" class="st4 st3">：</text>
<text transform="matrix(1 0 0 1 424.11 176.64)" class="st0 st3">410μM</text>
<text transform="matrix(1 0 0 1 585.17 176.64)" class="st0 st3">Agmatine</text>
<text transform="matrix(1 0 0 1 669.66 177.077)" class="st4 st3">：</text>
<text transform="matrix(1 0 0 1 689.66 176.64)" class="st0 st3 st5">1</text>
<text transform="matrix(1 0 0 1 699.3 176.64)" class="st0 st3">10μM</text>
<text transform="matrix(1 0 0 1 306.42 366.05)" class="st0 st3">Guanosine</text>
<text transform="matrix(1 0 0 1 403.16 366.487)" class="st4 st3">：</text>
<text transform="matrix(1 0 0 1 423.16 366.05)" class="st0 st3">36300μM</text>
<text transform="matrix(1 0 0 1 36.18 366.35)" class="st0 st3">Guanidine</text>
<text transform="matrix(1 0 0 1 127.36 366.787)" class="st4 st3">：</text>
<text transform="matrix(1 0 0 1 147.36 366.35)" class="st0 st3">5650μM</text>
<text transform="matrix(1 0 0 1 561.3262 388.7368)" class="st0 st3">68μM (L-citruline aptamer)</text>
</svg>
