<svg id="图层_1" data-name="图层 1" xmlns="http://www.w3.org/2000/svg" viewBox="0 0 759.41 205.34">
  <defs>
    <style>
      .cls-1, .cls-2, .cls-3, .cls-4, .cls-5 {
        isolation: isolate;
        font-family: ArialMT, Arial;
      }

      .cls-1, .cls-3, .cls-4 {
        font-size: 8.9px;
      }

      .cls-2 {
        font-size: 5.48px;
      }

      .cls-3 {
        letter-spacing: -0.02em;
      }

      .cls-4 {
        letter-spacing: -0.02em;
      }

      .cls-5 {
        font-size: 14.06px;
      }

      .cls-6 {
        letter-spacing: -0.07em;
      }

      .cls-7 {
        letter-spacing: -0.02em;
      }

      .cls-8 {
        letter-spacing: -0.06em;
      }
    </style>
  </defs>
  <polygon points="395.72 100.96 407.82 110.39 407.61 110.74 407.32 111.02 395.58 101.88 395.65 101.45 395.72 100.96"/>
  <polygon points="395.51 103.92 406.34 112.28 406.06 112.64 405.85 112.92 395.02 104.55 395.3 104.2 395.51 103.92"/>
  <text class="cls-1" transform="translate(408.38 117.44)">N</text>
  <polygon points="411.4 118.4 409.22 133.66 408.8 133.8 408.45 133.52 410.56 118.26 410.98 118.33 411.4 118.4"/>
  <polygon points="408.73 134.29 390.45 141.75 390.1 141.4 390.17 140.98 408.45 133.52 408.8 133.8 408.73 134.29"/>
  <polygon points="406.76 132.47 390.66 139.01 390.52 138.66 390.38 138.3 406.48 131.76 406.62 132.12 406.76 132.47"/>
  <polygon points="389.67 141.54 374.2 129.51 374.2 129.02 374.62 128.88 390.17 140.98 390.1 141.4 389.67 141.54"/>
  <polygon points="373.85 128.81 375.96 113.48 376.31 113.55 376.73 113.62 374.62 128.88 374.2 129.02 373.85 128.81"/>
  <polygon points="376.38 127.9 378.35 113.83 378.77 113.9 379.12 113.9 377.15 128.04 376.8 127.97 376.38 127.9"/>
  <text class="cls-1" transform="translate(373.75 112.65)">N</text>
  <polygon points="380.81 107.01 395.72 100.96 395.65 101.45 395.58 101.88 381.16 107.78 380.95 107.43 380.81 107.01"/>
  <polygon points="374.2 129.51 361.75 137.95 361.54 137.6 361.26 137.32 373.85 128.81 374.2 129.02 374.2 129.51"/>
  <text class="cls-1" transform="translate(354.28 143.96)">N</text>
  <polygon points="359.15 144.7 363.37 159.33 363.09 159.75 362.81 160.18 358.38 144.99 358.8 144.84 359.15 144.7"/>
  <polygon points="364.92 157.01 379.33 157.43 379.33 157.85 379.33 158.28 364.92 157.78 364.92 157.36 364.92 157.01"/>
  <polygon points="363.37 159.33 379.26 159.89 379.26 160.25 379.19 160.67 362.81 160.18 363.09 159.75 363.37 159.33"/>
  <text class="cls-1" transform="translate(380.05 164.02)">N</text>
  <polygon points="384.54 155.81 389.67 141.54 390.1 141.4 390.45 141.75 385.24 156.03 384.89 155.96 384.54 155.81"/>
  <polygon points="338.83 133.17 354.09 137.18 353.45 138.94 352.82 140.62 338.55 133.94 338.48 133.52 338.83 133.17"/>
  <polygon points="338.55 133.94 322.02 145.13 321.81 144.84 321.81 144.35 338.05 133.31 338.48 133.52 338.55 133.94"/>
  <polygon points="321.53 145.13 305.63 132.75 305.85 132.4 306.34 132.26 321.81 144.35 321.81 144.84 321.53 145.13"/>
  <polygon points="305.49 132.26 312.25 113.55 312.74 113.41 313.02 113.83 306.34 132.26 305.85 132.4 305.49 132.26"/>
  <polygon points="312.95 113.06 328.63 113.55 328.63 113.97 328.63 114.39 313.02 113.83 312.74 113.41 312.95 113.06"/>
  <text class="cls-1" transform="translate(329.44 117.71)">O</text>
  <polygon points="334.61 118.47 338.83 133.17 338.48 133.52 338.05 133.31 333.83 118.68 334.19 118.61 334.61 118.47"/>
  <polygon points="312.25 113.55 299.52 97.3 301.42 96.74 303.17 96.18 312.95 113.06 312.74 113.41 312.25 113.55"/>
  <polygon points="299.52 97.3 285.59 98.29 285.52 97.87 285.52 97.44 303.17 96.18 301.42 96.74 299.52 97.3"/>
  <text class="cls-1" transform="translate(271.39 101.79)">H</text>
  <text class="cls-1" transform="translate(277.82 101.79)">O</text>
  <polygon points="305.7 132.04 305.92 132.89 305.56 132.96 305.14 133.1 304.93 132.26 305.28 132.12 305.7 132.04"/>
  <polygon points="303.6 132.4 303.95 133.66 303.52 133.73 303.17 133.87 302.82 132.68 303.17 132.54 303.6 132.4"/>
  <polygon points="301.49 132.82 301.98 134.44 301.56 134.51 301.2 134.65 300.71 133.03 301.13 132.96 301.49 132.82"/>
  <polygon points="299.38 133.24 299.94 135.21 299.59 135.28 299.16 135.42 298.6 133.45 299.02 133.31 299.38 133.24"/>
  <polygon points="297.34 133.66 297.97 135.98 297.62 136.05 297.19 136.19 296.56 133.87 296.91 133.73 297.34 133.66"/>
  <polygon points="295.23 134.01 296 136.76 295.58 136.83 295.23 136.97 294.45 134.29 294.8 134.15 295.23 134.01"/>
  <polygon points="293.12 134.44 294.03 137.53 293.61 137.6 293.26 137.74 292.34 134.65 292.76 134.58 293.12 134.44"/>
  <polygon points="291.01 134.86 291.99 138.3 291.64 138.37 291.22 138.51 290.23 135.07 290.65 135 291.01 134.86"/>
  <text class="cls-1" transform="translate(276.59 141.63)">H</text>
  <text class="cls-1" transform="translate(283.02 141.63)">O</text>
  <polygon points="321.32 144.84 322.23 144.91 322.23 145.27 322.23 145.69 321.32 145.69 321.32 145.27 321.32 144.84"/>
  <polygon points="321.04 147.31 322.37 147.38 322.37 147.8 322.37 148.15 321.04 148.15 321.04 147.73 321.04 147.31"/>
  <polygon points="320.75 149.77 322.51 149.84 322.51 150.26 322.51 150.68 320.68 150.61 320.75 150.19 320.75 149.77"/>
  <polygon points="320.47 152.23 322.65 152.3 322.65 152.72 322.65 153.14 320.4 153.07 320.4 152.65 320.47 152.23"/>
  <polygon points="320.12 154.69 322.79 154.83 322.79 155.18 322.79 155.6 320.12 155.53 320.12 155.11 320.12 154.69"/>
  <polygon points="319.84 157.15 322.93 157.29 322.93 157.71 322.93 158.06 319.84 158 319.84 157.57 319.84 157.15"/>
  <polygon points="319.56 159.61 323.07 159.75 323.07 160.18 323.07 160.53 319.49 160.46 319.49 160.03 319.56 159.61"/>
  <text class="cls-1" transform="translate(317.68 168.59)">O</text>
  <text class="cls-1" transform="translate(324.6 168.59)">H</text>
  <polygon points="409.22 133.66 420.97 142.8 420.76 143.09 420.48 143.44 408.73 134.29 408.8 133.8 409.22 133.66"/>
  <text class="cls-1" transform="translate(421.54 148.68)">N</text>
  <text class="cls-1" transform="translate(427.97 148.68)">H</text>
  <text class="cls-2" transform="translate(434.4 150.05)">2</text>
  <polygon points="160.8 103.41 173.39 112.34 173.18 112.69 172.97 113.05 160.66 104.33 160.73 103.9 160.8 103.41"/>
  <polygon points="160.73 106.36 172.05 114.31 171.77 114.66 171.56 115.02 160.24 107 160.45 106.65 160.73 106.36"/>
  <text class="cls-1" transform="translate(174 119.14)">N</text>
  <polygon points="177.19 120.08 175.78 135.41 175.36 135.62 175 135.34 176.41 120.01 176.76 120.01 177.19 120.08"/>
  <polygon points="175.29 136.11 157.35 144.34 157 144.06 157.07 143.64 175 135.34 175.36 135.62 175.29 136.11"/>
  <polygon points="173.25 134.35 157.42 141.67 157.28 141.32 157.14 140.89 172.9 133.65 173.11 134 173.25 134.35"/>
  <polygon points="156.58 144.2 140.55 132.95 140.55 132.38 140.97 132.24 157.07 143.64 157 144.06 156.58 144.2"/>
  <polygon points="140.19 132.17 141.6 116.77 141.95 116.77 142.38 116.84 140.97 132.24 140.55 132.38 140.19 132.17"/>
  <polygon points="142.66 131.19 143.99 116.98 144.41 117.05 144.77 117.05 143.5 131.26 143.08 131.26 142.66 131.19"/>
  <text class="cls-1" transform="translate(139.19 115.92)">N</text>
  <polygon points="146.24 110.09 160.8 103.41 160.73 103.9 160.66 104.33 146.59 110.87 146.45 110.44 146.24 110.09"/>
  <polygon points="140.55 132.95 128.66 141.81 128.38 141.46 128.17 141.18 140.19 132.17 140.55 132.38 140.55 132.95"/>
  <text class="cls-1" transform="translate(121.16 148.09)">N</text>
  <polygon points="126.27 148.84 131.12 163.19 130.84 163.61 130.56 164.03 125.5 149.12 125.92 148.98 126.27 148.84"/>
  <polygon points="132.6 160.73 146.95 160.59 146.95 161.01 147.02 161.36 132.6 161.57 132.6 161.15 132.6 160.73"/>
  <polygon points="131.12 163.19 147.02 162.98 147.02 163.4 147.02 163.82 130.56 164.03 130.84 163.61 131.12 163.19"/>
  <text class="cls-1" transform="translate(147.81 166.95)">N</text>
  <polygon points="152.01 158.76 156.58 144.2 157 144.06 157.35 144.34 152.78 158.97 152.43 158.83 152.01 158.76"/>
  <polygon points="105.38 138.15 120.86 141.53 120.36 143.22 119.8 144.97 105.17 138.93 105.1 138.5 105.38 138.15"/>
  <polygon points="105.17 138.93 89.14 150.88 88.93 150.53 88.93 150.04 104.61 138.36 105.1 138.5 105.17 138.93"/>
  <polygon points="88.72 150.88 72.19 139.21 72.47 138.93 72.89 138.71 88.93 150.04 88.93 150.53 88.72 150.88"/>
  <polygon points="72.05 138.78 77.96 119.73 78.45 119.66 78.73 120.01 72.89 138.71 72.47 138.93 72.05 138.78"/>
  <polygon points="78.66 119.23 94.34 119.02 94.34 119.44 94.34 119.87 78.73 120.01 78.45 119.66 78.66 119.23"/>
  <text class="cls-1" transform="translate(95.15 122.98)">O</text>
  <polygon points="100.53 123.73 105.38 138.15 105.1 138.5 104.61 138.36 99.76 124.02 100.11 123.88 100.53 123.73"/>
  <polygon points="77.96 119.73 64.53 104.11 66.35 103.48 68.11 102.85 78.66 119.23 78.45 119.66 77.96 119.73"/>
  <polygon points="64.53 104.11 50.67 105.73 50.6 105.31 50.53 104.89 68.11 102.85 66.35 103.48 64.53 104.11"/>
  <text class="cls-1" transform="translate(42.86 109.42)">O</text>
  <polygon points="42.65 101.58 37.31 94.41 37.59 94.13 37.94 93.92 43.29 101.09 43.01 101.3 42.65 101.58"/>
  <text class="cls-3" transform="translate(31.29 93.25)">P</text>
  <polygon points="37.03 85.55 45.19 79.5 45.47 79.78 45.68 80.13 37.52 86.18 37.31 85.83 37.03 85.55"/>
  <polygon points="38.51 87.45 46.66 81.4 46.87 81.75 47.16 82.03 39 88.15 38.79 87.8 38.51 87.45"/>
  <text class="cls-1" transform="translate(46.97 81.18)">O</text>
  <polygon points="30.7 92.79 22.61 98.84 22.33 98.56 22.12 98.21 30.21 92.16 30.49 92.44 30.7 92.79"/>
  <text class="cls-1" transform="translate(8.19 105.32)">H</text>
  <text class="cls-1" transform="translate(14.62 105.32)">O</text>
  <polygon points="30.56 85.41 25.21 78.17 25.57 77.95 25.85 77.74 31.26 84.92 30.91 85.13 30.56 85.41"/>
  <text class="cls-1" transform="translate(18.72 77.07)">O</text>
  <polygon points="23.74 68.81 27.89 59.25 28.24 59.39 28.59 59.6 24.51 69.16 24.09 68.95 23.74 68.81"/>
  <text class="cls-3" transform="translate(27.19 58.53)">P</text>
  <polygon points="25.78 54.82 15.23 50.25 15.44 49.89 15.58 49.54 26.06 54.04 25.92 54.4 25.78 54.82"/>
  <polygon points="26.69 52.57 16.21 48.06 16.35 47.64 16.49 47.29 27.04 51.79 26.83 52.22 26.69 52.57"/>
  <text class="cls-1" transform="translate(8.16 50.56)">O</text>
  <polygon points="34.07 56.15 44.62 60.72 44.41 61.08 44.27 61.43 33.79 56.93 33.93 56.58 34.07 56.15"/>
  <text class="cls-1" transform="translate(45.24 66.51)">O</text>
  <text class="cls-1" transform="translate(52.16 66.51)">H</text>
  <polygon points="31.75 50.25 35.83 40.75 36.18 40.89 36.61 41.03 32.46 50.6 32.1 50.46 31.75 50.25"/>
  <text class="cls-1" transform="translate(34.67 39.99)">O</text>
  <polygon points="34.5 32.17 29.08 24.93 29.43 24.72 29.71 24.44 35.13 31.68 34.78 31.89 34.5 32.17"/>
  <text class="cls-3" transform="translate(23.09 23.81)">P</text>
  <polygon points="28.87 16.07 37.03 10.02 37.24 10.37 37.52 10.65 29.36 16.77 29.08 16.42 28.87 16.07"/>
  <polygon points="30.35 18.04 38.43 11.99 38.72 12.27 38.93 12.62 30.77 18.67 30.56 18.39 30.35 18.04"/>
  <text class="cls-1" transform="translate(38.78 11.74)">O</text>
  <polygon points="22.54 23.38 14.38 29.43 14.17 29.08 13.89 28.8 22.05 22.68 22.26 23.03 22.54 23.38"/>
  <text class="cls-1" transform="translate(0 35.88)">H</text>
  <text class="cls-1" transform="translate(6.43 35.88)">O</text>
  <polygon points="22.4 15.93 17.05 8.75 17.34 8.54 17.69 8.26 23.03 15.51 22.68 15.72 22.4 15.93"/>
  <text class="cls-1" transform="translate(4.11 7.64)">H</text>
  <text class="cls-1" transform="translate(10.53 7.64)">O</text>
  <polygon points="72.26 138.5 72.54 139.35 72.12 139.49 71.77 139.63 71.49 138.78 71.84 138.64 72.26 138.5"/>
  <polygon points="69.8 139.07 70.29 140.33 69.87 140.47 69.52 140.61 69.1 139.35 69.45 139.21 69.8 139.07"/>
  <polygon points="67.41 139.7 67.97 141.39 67.62 141.46 67.2 141.6 66.64 139.91 67.06 139.77 67.41 139.7"/>
  <polygon points="65.02 140.26 65.72 142.37 65.37 142.51 64.95 142.58 64.24 140.54 64.67 140.4 65.02 140.26"/>
  <polygon points="62.63 140.82 63.47 143.36 63.05 143.5 62.7 143.64 61.85 141.1 62.2 140.97 62.63 140.82"/>
  <polygon points="60.16 141.39 61.22 144.34 60.8 144.48 60.45 144.62 59.46 141.67 59.81 141.53 60.16 141.39"/>
  <polygon points="57.77 142.02 58.9 145.4 58.55 145.47 58.2 145.61 57 142.23 57.42 142.09 57.77 142.02"/>
  <text class="cls-1" transform="translate(43.44 148.99)">H</text>
  <text class="cls-1" transform="translate(49.87 148.99)">O</text>
  <polygon points="88.51 150.6 89.35 150.6 89.35 151.02 89.35 151.44 88.51 151.44 88.51 151.02 88.51 150.6"/>
  <polygon points="88.3 153.13 89.63 153.06 89.63 153.48 89.63 153.91 88.3 153.91 88.3 153.48 88.3 153.13"/>
  <polygon points="88.08 155.59 89.84 155.52 89.91 155.94 89.91 156.37 88.08 156.37 88.08 156.01 88.08 155.59"/>
  <polygon points="87.87 158.05 90.12 158.05 90.12 158.41 90.12 158.83 87.94 158.83 87.87 158.48 87.87 158.05"/>
  <polygon points="87.73 160.51 90.4 160.51 90.4 160.87 90.4 161.29 87.73 161.36 87.73 160.94 87.73 160.51"/>
  <polygon points="87.52 162.98 90.61 162.98 90.61 163.33 90.61 163.75 87.52 163.82 87.52 163.4 87.52 162.98"/>
  <polygon points="87.31 165.44 90.9 165.44 90.9 165.86 90.9 166.21 87.31 166.28 87.31 165.86 87.31 165.44"/>
  <text class="cls-1" transform="translate(85.71 174.35)">O</text>
  <text class="cls-1" transform="translate(92.64 174.35)">H</text>
  <polygon points="175.78 135.41 188.01 144.13 187.8 144.41 187.59 144.76 175.29 136.11 175.36 135.62 175.78 135.41"/>
  <text class="cls-1" transform="translate(188.62 149.74)">N</text>
  <text class="cls-1" transform="translate(195.05 149.74)">H</text>
  <text class="cls-2" transform="translate(201.47 151.11)">2</text>
  <polygon points="653.36 110.51 633.74 110.66 633.46 110.3 633.67 109.88 653.92 109.74 653.64 110.09 653.36 110.51"/>
  <polygon points="633.74 110.66 627.83 129.36 627.34 129.5 627.06 129.22 632.97 110.37 633.46 110.3 633.74 110.66"/>
  <polygon points="627.83 129.36 639.79 137.87 639.51 138.22 639.29 138.57 627.27 129.99 627.34 129.5 627.83 129.36"/>
  <text class="cls-1" transform="translate(640.33 144.86)">O</text>
  <polygon points="647.8 137.8 659.55 129.08 660.04 129.29 660.11 129.71 648.3 138.43 648.09 138.08 647.8 137.8"/>
  <polygon points="660.32 128.94 675.37 133.72 675.23 134.07 675.16 134.43 660.11 129.71 660.04 129.29 660.32 128.94"/>
  <text class="cls-1" transform="translate(676.06 138.95)">N</text>
  <polygon points="681.14 139.7 685.92 154.04 685.64 154.47 685.36 154.89 680.37 139.98 680.79 139.84 681.14 139.7"/>
  <polygon points="687.4 151.65 701.81 151.51 701.81 151.94 701.81 152.36 687.4 152.43 687.4 152.08 687.4 151.65"/>
  <polygon points="685.92 154.04 701.81 153.97 701.81 154.33 701.81 154.75 685.36 154.89 685.64 154.47 685.92 154.04"/>
  <text class="cls-1" transform="translate(702.63 157.92)">N</text>
  <polygon points="706.88 149.69 711.45 135.2 711.94 135.06 712.22 135.34 707.65 149.97 707.23 149.83 706.88 149.69"/>
  <polygon points="711.94 134.63 729.94 126.41 730.3 126.69 730.23 127.18 712.22 135.34 711.94 135.06 711.94 134.63"/>
  <polygon points="713.77 136.46 729.87 129.15 730.01 129.5 730.23 129.85 714.05 137.17 713.91 136.82 713.77 136.46"/>
  <polygon points="729.94 126.41 731.42 111.08 731.77 111.08 732.19 111.15 730.72 126.55 730.3 126.69 729.94 126.41"/>
  <text class="cls-1" transform="translate(729.03 110.23)">N</text>
  <polygon points="726.57 106.08 715.32 98 715.53 97.64 715.81 97.36 727.06 105.38 726.78 105.73 726.57 106.08"/>
  <polygon points="727.98 104.11 715.74 95.32 715.81 94.9 715.88 94.41 728.47 103.41 728.19 103.76 727.98 104.11"/>
  <polygon points="715.74 95.32 701.6 101.79 701.46 101.44 701.32 101.09 715.88 94.41 715.81 94.9 715.74 95.32"/>
  <text class="cls-1" transform="translate(694.23 106.86)">N</text>
  <polygon points="699.85 107.98 698.44 122.26 698.02 122.19 697.66 122.12 699 107.91 699.42 107.98 699.85 107.98"/>
  <polygon points="697.38 107.77 695.91 123.17 695.49 123.31 695.13 123.1 696.61 107.7 697.03 107.77 697.38 107.77"/>
  <polygon points="695.49 123.88 683.53 132.67 683.32 132.38 683.04 132.03 695.13 123.1 695.49 123.31 695.49 123.88"/>
  <polygon points="695.91 123.17 711.94 134.63 711.94 135.06 711.45 135.2 695.49 123.88 695.49 123.31 695.91 123.17"/>
  <polygon points="730.72 126.55 742.95 135.27 742.67 135.55 742.46 135.9 730.23 127.18 730.3 126.69 730.72 126.55"/>
  <text class="cls-1" transform="translate(743.51 140.9)">N</text>
  <text class="cls-1" transform="translate(749.93 140.9)">H</text>
  <text class="cls-2" transform="translate(756.36 142.27)">2</text>
  <polygon points="659.55 129.08 653.36 110.51 653.64 110.09 653.92 109.74 660.32 128.94 660.04 129.29 659.55 129.08"/>
  <polygon points="627.27 129.99 608.14 136.39 608.21 135.9 608.35 135.48 627.06 129.22 627.34 129.5 627.27 129.99"/>
  <polygon points="608.14 136.39 597.1 126.62 597.38 126.34 597.66 126.06 608.35 135.48 608.21 135.9 608.14 136.39"/>
  <text class="cls-1" transform="translate(589.65 126.15)">O</text>
  <polygon points="588.94 124.37 577.9 128.09 577.76 127.67 577.62 127.32 588.73 123.59 588.87 123.95 588.94 124.37"/>
  <text class="cls-4" transform="translate(571 132.54)">P</text>
  <polygon points="576.99 132.95 580.43 143.07 580.01 143.22 579.66 143.36 576.21 133.16 576.64 133.02 576.99 132.95"/>
  <polygon points="574.74 133.65 578.11 143.85 577.69 143.99 577.34 144.13 573.96 133.93 574.32 133.79 574.74 133.65"/>
  <text class="cls-1" transform="translate(576.91 151.69)">O</text>
  <polygon points="573.54 124.44 573.54 113.26 573.96 113.26 574.38 113.26 574.38 124.44 573.96 124.44 573.54 124.44"/>
  <text class="cls-1" transform="translate(570.51 112.36)">O</text>
  <text class="cls-1" transform="translate(577.43 112.36)">H</text>
  <polygon points="570.31 130.56 559.2 134.28 559.13 133.93 558.98 133.51 570.1 129.78 570.17 130.21 570.31 130.56"/>
  <text class="cls-1" transform="translate(551.37 138.94)">O</text>
  <polygon points="550.26 131.82 543.23 125.56 543.51 125.28 543.79 125 550.83 131.26 550.54 131.54 550.26 131.82"/>
  <text class="cls-4" transform="translate(536.75 125.56)">P</text>
  <polygon points="537.18 127.25 531.56 133.65 531.21 133.37 530.92 133.09 536.55 126.76 536.83 127.04 537.18 127.25"/>
  <polygon points="535.36 125.7 529.73 132.03 529.38 131.75 529.1 131.47 534.72 125.14 535 125.42 535.36 125.7"/>
  <text class="cls-1" transform="translate(522.88 140.67)">O</text>
  <polygon points="540.56 117.34 543.37 106.86 543.72 106.93 544.15 107.07 541.33 117.55 540.91 117.48 540.56 117.34"/>
  <text class="cls-1" transform="translate(541.48 106.06)">O</text>
  <text class="cls-1" transform="translate(548.4 106.06)">H</text>
  <polygon points="535.71 118.88 528.6 112.62 528.88 112.34 529.17 112.06 536.2 118.32 535.92 118.6 535.71 118.88"/>
  <text class="cls-1" transform="translate(521.15 112.18)">O</text>
  <polygon points="520.45 110.37 509.4 114.1 509.26 113.68 509.12 113.33 520.24 109.6 520.38 110.02 520.45 110.37"/>
  <text class="cls-3" transform="translate(502.5 118.57)">P</text>
  <polygon points="502.44 111.01 499.07 100.81 499.42 100.67 499.84 100.6 503.22 110.72 502.79 110.87 502.44 111.01"/>
  <polygon points="504.76 110.23 501.32 100.04 501.74 99.97 502.09 99.83 505.47 109.95 505.12 110.09 504.76 110.23"/>
  <text class="cls-1" transform="translate(495.61 99.43)">O</text>
  <polygon points="507.08 119.38 509.9 129.85 509.48 129.99 509.12 130.06 506.31 119.59 506.66 119.44 507.08 119.38"/>
  <text class="cls-1" transform="translate(507.23 138.07)">O</text>
  <text class="cls-1" transform="translate(514.15 138.07)">H</text>
  <polygon points="501.81 116.63 490.7 120.29 490.63 119.94 490.49 119.59 501.6 115.86 501.67 116.21 501.81 116.63"/>
  <text class="cls-1" transform="translate(476.44 124.97)">H</text>
  <text class="cls-1" transform="translate(482.86 124.97)">O</text>
  <polygon points="632.97 110.37 624.46 98.77 624.74 98.56 625.09 98.28 633.67 109.88 633.46 110.3 632.97 110.37"/>
  <text class="cls-1" transform="translate(611.56 97.66)">H</text>
  <text class="cls-1" transform="translate(617.99 97.66)">O</text>
  <text class="cls-5" transform="translate(14.39 200.78)"><tspan class="cls-6">A</tspan><tspan x="8.34" y="0">T</tspan><tspan class="cls-7" x="16.93" y="0">P</tspan><tspan x="26.06" y="0" xml:space="preserve"> :  ~14uM                                                 </tspan><tspan class="cls-8" x="276.56" y="0"> </tspan><tspan x="279.69" y="0" xml:space="preserve">Adenosine:  8-10uM                                         d</tspan><tspan class="cls-6" x="573.62" y="0">A</tspan><tspan x="581.95" y="0">TP: &gt;1mM</tspan></text>
</svg>
