<svg id="图层_1" data-name="图层 1" xmlns="http://www.w3.org/2000/svg" viewBox="0 0 800 300">
  <defs>
    <style>
      .cls-1, .cls-2, .cls-3, .cls-4 {
        isolation: isolate;
      }

      .cls-2, .cls-3, .cls-4 {
        font-size: 10.85px;
      }

      .cls-2 {
        fill: #c39517;
      }

      .cls-2, .cls-3, .cls-4, .cls-5 {
        font-family: ArialMT, Arial;
      }

      .cls-3 {
        fill: #ff0d0d;
      }

      .cls-4 {
        fill: #304ff7;
      }

      .cls-5 {
        font-size: 20px;
      }

      .cls-6 {
        letter-spacing: -0.02em;
      }
    </style>
  </defs>
  <polygon points="125.8 202.89 149.03 197.31 149.49 197.71 149.45 198.23 125.33 204.01 125.56 203.45 125.8 202.89"/>
  <polygon points="149.03 197.31 150.9 173.5 151.42 173.18 151.88 173.58 150.01 197.39 149.49 197.71 149.03 197.31"/>
  <polygon points="150.9 173.5 128.83 164.36 128.69 163.76 129.11 163.41 151.46 172.67 151.42 173.18 150.9 173.5"/>
  <polygon points="128.83 164.36 117.68 177.41 117.31 177.09 116.94 176.77 128.15 163.64 128.69 163.76 128.83 164.36"/>
  <g class="cls-1">
    <text class="cls-2" transform="translate(109.09 186.87)">S</text>
  </g>
  <polygon points="116.48 187.69 125.8 202.89 125.56 203.45 125.33 204.01 115.64 188.2 116.06 187.94 116.48 187.69"/>
  <polygon points="128.15 163.64 122.53 140.23 122.95 139.84 123.36 139.45 129.11 163.41 128.69 163.76 128.15 163.64"/>
  <polygon points="122.53 140.23 98.94 133.24 99.36 132.85 99.77 132.46 123.36 139.45 122.95 139.84 122.53 140.23"/>
  <polygon points="98.94 133.24 93.2 109.32 93.61 108.92 94.03 108.53 99.77 132.46 99.36 132.85 98.94 133.24"/>
  <polygon points="93.2 109.32 69.61 102.33 70.02 101.94 70.43 101.55 94.03 108.53 93.61 108.92 93.2 109.32"/>
  <polygon points="69.61 102.33 63.87 78.4 64.28 78.01 64.69 77.62 70.43 101.55 70.02 101.94 69.61 102.33"/>
  <polygon points="62.31 77.17 75.57 64.59 75.91 64.94 76.25 65.3 62.98 77.88 62.65 77.53 62.31 77.17"/>
  <polygon points="64.34 79.31 77.6 66.73 77.94 67.08 78.28 67.44 65.02 80.03 64.68 79.67 64.34 79.31"/>
  <g class="cls-1">
    <text class="cls-3" transform="translate(77.91 65.47)">O</text>
  </g>
  <polygon points="63.87 78.4 45.75 73.03 45.89 72.56 46.03 72.09 64.69 77.62 64.28 78.01 63.87 78.4"/>
  <g class="cls-1">
    <text class="cls-3" transform="translate(28.63 75.42)">H</text>
    <text class="cls-3" transform="translate(36.47 75.42)">O</text>
  </g>
  <polygon points="151.46 172.67 170.33 168.14 170.44 168.62 170.56 169.09 151.88 173.58 151.42 173.18 151.46 172.67"/>
  <g class="cls-1">
    <text class="cls-4" transform="translate(171.43 162.86)">H</text>
  </g>
  <g class="cls-1">
    <text class="cls-4" transform="translate(171.43 172.76)">N</text>
  </g>
  <polygon points="179.12 172.66 188.81 188.47 188.2 188.42 187.59 188.37 178.28 173.17 178.7 172.91 179.12 172.66"/>
  <polygon points="187.28 186.37 207.68 187.98 207.64 188.47 207.6 188.96 187.21 187.35 187.25 186.86 187.28 186.37"/>
  <polygon points="187.05 189.32 207.44 190.92 207.41 191.41 207.37 191.9 186.97 190.3 187.01 189.81 187.05 189.32"/>
  <g class="cls-1">
    <text class="cls-3" transform="translate(208.51 194.75)">O</text>
  </g>
  <polygon points="188.81 188.47 177.27 201.97 176.89 201.66 176.52 201.34 187.59 188.37 188.2 188.42 188.81 188.47"/>
  <g class="cls-1">
    <text class="cls-4" transform="translate(168.3 211.52)">N</text>
  </g>
  <g class="cls-1">
    <text class="cls-4" transform="translate(168.3 221.43)">H</text>
  </g>
  <polygon points="167.13 205.55 149.45 198.23 149.49 197.71 150.01 197.39 167.5 204.64 167.32 205.1 167.13 205.55"/>
  <polygon points="426.82 114.23 441.96 133.31 441.73 133.81 441.19 133.92 426.05 114.84 426.43 114.54 426.82 114.23"/>
  <polygon points="442.11 134.28 435.7 157.3 435.13 157.51 434.73 157.14 441.19 133.92 441.73 133.81 442.11 134.28"/>
  <polygon points="435.7 157.3 451.01 167.45 450.74 167.86 450.46 168.27 435.07 158.06 435.13 157.51 435.7 157.3"/>
  <g class="cls-1">
    <text class="cls-4" transform="translate(451.72 175.5)">N</text>
  </g>
  <g class="cls-1">
    <text class="cls-4" transform="translate(451.55 186.37)">H</text>
  </g>
  <polygon points="460.23 166.83 474.32 155.65 474.91 155.81 475.49 155.97 460.85 167.6 460.54 167.22 460.23 166.83"/>
  <polygon points="474.4 153.63 493.94 159.06 493.8 159.54 493.67 160.01 474.14 154.58 474.27 154.1 474.4 153.63"/>
  <polygon points="473.61 156.47 493.14 161.91 493.01 162.38 492.88 162.86 473.35 157.42 473.48 156.95 473.61 156.47"/>
  <g class="cls-1">
    <text class="cls-3" transform="translate(494.39 166.8)">O</text>
  </g>
  <polygon points="474.32 155.65 467.89 138.4 468.35 138.23 468.81 138.06 475.49 155.97 474.91 155.81 474.32 155.65"/>
  <g class="cls-1">
    <text class="cls-4" transform="translate(462.4 128.17)">H</text>
  </g>
  <g class="cls-1">
    <text class="cls-4" transform="translate(462.4 138.08)">N</text>
  </g>
  <polygon points="461.43 133.46 442.11 134.28 441.73 133.81 441.96 133.31 461.39 132.47 461.41 132.97 461.43 133.46"/>
  <polygon points="435.07 158.06 411.99 166.66 412.08 166.1 412.17 165.54 434.73 157.14 435.13 157.51 435.07 158.06"/>
  <polygon points="411.99 166.66 393.01 151 393.11 150.44 393.2 149.88 412.17 165.54 412.08 166.1 411.99 166.66"/>
  <polygon points="393.01 151 369.96 159.59 370.06 159.03 370.15 158.47 393.2 149.88 393.11 150.44 393.01 151"/>
  <polygon points="369.96 159.59 350.99 143.92 351.08 143.36 351.18 142.8 370.15 158.47 370.06 159.03 369.96 159.59"/>
  <polygon points="350.99 143.92 327.94 152.52 328.03 151.96 328.13 151.4 351.18 142.8 351.08 143.36 350.99 143.92"/>
  <polygon points="327.94 152.52 308.96 136.85 309.06 136.29 309.15 135.73 328.13 151.4 328.03 151.96 327.94 152.52"/>
  <polygon points="306.98 136.8 310.28 117.17 310.77 117.25 311.25 117.34 307.95 136.97 307.46 136.89 306.98 136.8"/>
  <polygon points="309.89 137.29 313.19 117.66 313.68 117.74 314.16 117.83 310.86 137.46 310.37 137.38 309.89 137.29"/>
  <g class="cls-1">
    <text class="cls-3" transform="translate(308.92 116.42)">O</text>
  </g>
  <polygon points="308.96 136.85 291.38 143.41 291.21 142.94 291.04 142.48 309.15 135.73 309.06 136.29 308.96 136.85"/>
  <g class="cls-1">
    <text class="cls-3" transform="translate(273.95 149.28)">H</text>
    <text class="cls-3" transform="translate(281.79 149.28)">O</text>
  </g>
  <polygon points="557.46 108.71 569.46 120.98 569.11 121.32 568.76 121.67 556.75 109.4 557.11 109.06 557.46 108.71"/>
  <g class="cls-1">
    <text class="cls-3" transform="translate(570.09 131.04)">O</text>
  </g>
  <polygon points="579.4 124.83 598.3 119.98 598.15 120.53 597.99 121.08 579.64 125.78 579.52 125.31 579.4 124.83"/>
  <polygon points="605.14 102.84 599.81 121.88 599.34 121.75 598.87 121.62 604.19 102.57 604.66 102.7 605.14 102.84"/>
  <polygon points="602.29 102.04 596.97 121.09 596.5 120.95 596.02 120.82 601.35 101.78 601.82 101.91 602.29 102.04"/>
  <g class="cls-1">
    <text class="cls-3" transform="translate(600.55 101.23)">O</text>
  </g>
  <polygon points="598.3 119.98 615.51 137.57 615.36 138.12 615.2 138.66 597.99 121.08 598.15 120.53 598.3 119.98"/>
  <polygon points="615.51 137.57 639.34 131.46 639.19 132 639.04 132.55 615.2 138.66 615.36 138.12 615.51 137.57"/>
  <polygon points="639.34 131.46 656.55 149.04 656.4 149.59 656.25 150.14 639.04 132.55 639.19 132 639.34 131.46"/>
  <polygon points="656.55 149.04 680.38 142.93 680.23 143.48 680.08 144.03 656.25 150.14 656.4 149.59 656.55 149.04"/>
  <polygon points="680.38 142.93 697.62 160.54 697.44 161.06 696.91 161.23 680.08 144.03 680.23 143.48 680.38 142.93"/>
  <polygon points="697.62 160.54 721.55 157.01 721.78 157.48 721.5 158.01 697.87 161.5 697.44 161.06 697.62 160.54"/>
  <polygon points="722.38 157.58 733 178.98 732.71 179.52 732.11 179.42 721.5 158.01 721.78 157.48 722.38 157.58"/>
  <polygon points="732.94 179.98 715.22 197.33 715.13 196.73 715.04 196.13 732.11 179.42 732.71 179.52 732.94 179.98"/>
  <polygon points="715.22 197.33 697.7 188.16 697.93 187.73 698.16 187.29 715.04 196.13 715.13 196.73 715.22 197.33"/>
  <g class="cls-1">
    <text class="cls-2" transform="translate(689.71 189.72)">S</text>
  </g>
  <polygon points="693.77 179.77 696.91 161.23 697.44 161.06 697.87 161.5 694.74 179.93 694.26 179.85 693.77 179.77"/>
  <polygon points="733 178.98 752.08 176.17 752.15 176.65 752.23 177.14 732.94 179.98 732.71 179.52 733 178.98"/>
  <g class="cls-1">
    <text class="cls-4" transform="translate(753.14 180.33)">N</text>
  </g>
  <g class="cls-1">
    <text class="cls-4" transform="translate(753.14 190.23)">H</text>
  </g>
  <polygon points="757.5 170.38 760.62 151.94 761.17 151.67 761.71 151.4 758.47 170.54 757.98 170.46 757.5 170.38"/>
  <polygon points="778.88 145.09 761.08 153.91 760.86 153.47 760.64 153.03 778.44 144.2 778.66 144.65 778.88 145.09"/>
  <polygon points="777.57 142.44 759.77 151.27 759.55 150.83 759.33 150.39 777.13 141.56 777.35 142 777.57 142.44"/>
  <g class="cls-1">
    <text class="cls-3" transform="translate(778.99 145.14)">O</text>
  </g>
  <polygon points="760.62 151.94 744.04 143.27 744.27 142.83 744.5 142.4 761.71 151.4 761.17 151.67 760.62 151.94"/>
  <g class="cls-1">
    <text class="cls-4" transform="translate(735.45 135.69)">H</text>
  </g>
  <g class="cls-1">
    <text class="cls-4" transform="translate(735.45 145.59)">N</text>
  </g>
  <polygon points="734.81 145.42 722.38 157.58 721.78 157.48 721.55 157.01 734.12 144.71 734.47 145.06 734.81 145.42"/>
  <text class="cls-5" transform="translate(116.94 255.74)">Biotin<tspan x="0" y="24">~6μM</tspan></text>
  <text class="cls-5" transform="translate(360.57 255.74)">Desthiobiotin<tspan x="0" y="24">E</tspan><tspan class="cls-6" x="13.34" y="24">f</tspan><tspan x="18.54" y="24">fective binding</tspan></text>
  <text class="cls-5" transform="translate(615.51 259.94)">Biotin methyl ester<tspan x="0" y="24" xml:space="preserve">      High a</tspan><tspan class="cls-6" x="91.15" y="24">f</tspan><tspan x="96.35" y="24">finity</tspan></text>
</svg>
