<?xml version="1.0" encoding="utf-8"?>
<!-- Generator: Adobe Illustrator 25.2.0, SVG Export Plug-In . SVG Version: 6.00 Build 0)  -->
<svg version="1.1" id="图层_1" xmlns="http://www.w3.org/2000/svg" xmlns:xlink="http://www.w3.org/1999/xlink" x="0px" y="0px"
	 viewBox="0 0 800 300" style="enable-background:new 0 0 800 300;" xml:space="preserve">
<style type="text/css">
	.st0{font-family:'ArialMT';}
	.st1{font-size:10.85px;}
	.st2{font-size:20px;}
</style>
<polygon points="125.8,202.9 149,197.3 149.5,197.7 149.4,198.2 125.3,204 125.6,203.4 "/>
<polygon points="149,197.3 150.9,173.5 151.4,173.2 151.9,173.6 150,197.4 149.5,197.7 "/>
<polygon points="150.9,173.5 128.8,164.4 128.7,163.8 129.1,163.4 151.5,172.7 151.4,173.2 "/>
<polygon points="128.8,164.4 117.7,177.4 117.3,177.1 116.9,176.8 128.1,163.6 128.7,163.8 "/>
<g>
	<text transform="matrix(1 0 0 1 109.09 186.87)" class="st0 st1">S</text>
</g>
<polygon points="116.5,187.7 125.8,202.9 125.6,203.4 125.3,204 115.6,188.2 116.1,187.9 "/>
<polygon points="128.1,163.6 122.5,140.2 122.9,139.8 123.4,139.4 129.1,163.4 128.7,163.8 "/>
<polygon points="122.5,140.2 98.9,133.2 99.4,132.8 99.8,132.5 123.4,139.4 122.9,139.8 "/>
<polygon points="98.9,133.2 93.2,109.3 93.6,108.9 94,108.5 99.8,132.5 99.4,132.8 "/>
<polygon points="93.2,109.3 69.6,102.3 70,101.9 70.4,101.5 94,108.5 93.6,108.9 "/>
<polygon points="69.6,102.3 63.9,78.4 64.3,78 64.7,77.6 70.4,101.5 70,101.9 "/>
<polygon points="62.3,77.2 75.6,64.6 75.9,64.9 76.2,65.3 63,77.9 62.7,77.5 "/>
<polygon points="64.3,79.3 77.6,66.7 77.9,67.1 78.3,67.4 65,80 64.7,79.7 "/>
<g>
	<text transform="matrix(1 0 0 1 77.91 65.47)" class="st0 st1">O</text>
</g>
<polygon points="63.9,78.4 45.8,73 45.9,72.6 46,72.1 64.7,77.6 64.3,78 "/>
<g>
	<text transform="matrix(1 0 0 1 28.63 75.42)" class="st0 st1">H</text>
	<text transform="matrix(1 0 0 1 36.47 75.42)" class="st0 st1">O</text>
</g>
<polygon points="151.5,172.7 170.3,168.1 170.4,168.6 170.6,169.1 151.9,173.6 151.4,173.2 "/>
<g>
	<text transform="matrix(1 0 0 1 171.43 162.86)" class="st0 st1">H</text>
</g>
<g>
	<text transform="matrix(1 0 0 1 171.43 172.76)" class="st0 st1">N</text>
</g>
<polygon points="179.1,172.7 188.8,188.5 188.2,188.4 187.6,188.4 178.3,173.2 178.7,172.9 "/>
<polygon points="187.3,186.4 207.7,188 207.6,188.5 207.6,189 187.2,187.3 187.2,186.9 "/>
<polygon points="187.1,189.3 207.4,190.9 207.4,191.4 207.4,191.9 187,190.3 187,189.8 "/>
<g>
	<text transform="matrix(1 0 0 1 208.51 194.75)" class="st0 st1">O</text>
</g>
<polygon points="188.8,188.5 177.3,202 176.9,201.7 176.5,201.3 187.6,188.4 188.2,188.4 "/>
<g>
	<text transform="matrix(1 0 0 1 168.3 211.52)" class="st0 st1">N</text>
</g>
<g>
	<text transform="matrix(1 0 0 1 168.3 221.43)" class="st0 st1">H</text>
</g>
<polygon points="167.1,205.5 149.4,198.2 149.5,197.7 150,197.4 167.5,204.6 167.3,205.1 "/>
<polygon points="426.8,114.2 442,133.3 441.7,133.8 441.2,133.9 426,114.8 426.4,114.5 "/>
<polygon points="442.1,134.3 435.7,157.3 435.1,157.5 434.7,157.1 441.2,133.9 441.7,133.8 "/>
<polygon points="435.7,157.3 451,167.4 450.7,167.9 450.5,168.3 435.1,158.1 435.1,157.5 "/>
<g>
	<text transform="matrix(1 0 0 1 451.72 175.5)" class="st0 st1">N</text>
</g>
<g>
	<text transform="matrix(1 0 0 1 451.55 186.37)" class="st0 st1">H</text>
</g>
<polygon points="460.2,166.8 474.3,155.6 474.9,155.8 475.5,156 460.9,167.6 460.5,167.2 "/>
<polygon points="474.4,153.6 493.9,159.1 493.8,159.5 493.7,160 474.1,154.6 474.3,154.1 "/>
<polygon points="473.6,156.5 493.1,161.9 493,162.4 492.9,162.9 473.4,157.4 473.5,156.9 "/>
<g>
	<text transform="matrix(1 0 0 1 494.39 166.8)" class="st0 st1">O</text>
</g>
<polygon points="474.3,155.6 467.9,138.4 468.4,138.2 468.8,138.1 475.5,156 474.9,155.8 "/>
<g>
	<text transform="matrix(1 0 0 1 462.4 128.17)" class="st0 st1">H</text>
</g>
<g>
	<text transform="matrix(1 0 0 1 462.4 138.08)" class="st0 st1">N</text>
</g>
<polygon points="461.4,133.5 442.1,134.3 441.7,133.8 442,133.3 461.4,132.5 461.4,133 "/>
<polygon points="435.1,158.1 412,166.7 412.1,166.1 412.2,165.5 434.7,157.1 435.1,157.5 "/>
<polygon points="412,166.7 393,151 393.1,150.4 393.2,149.9 412.2,165.5 412.1,166.1 "/>
<polygon points="393,151 370,159.6 370.1,159 370.1,158.5 393.2,149.9 393.1,150.4 "/>
<polygon points="370,159.6 351,143.9 351.1,143.4 351.2,142.8 370.1,158.5 370.1,159 "/>
<polygon points="351,143.9 327.9,152.5 328,152 328.1,151.4 351.2,142.8 351.1,143.4 "/>
<polygon points="327.9,152.5 309,136.8 309.1,136.3 309.1,135.7 328.1,151.4 328,152 "/>
<polygon points="307,136.8 310.3,117.2 310.8,117.2 311.2,117.3 308,137 307.5,136.9 "/>
<polygon points="309.9,137.3 313.2,117.7 313.7,117.7 314.2,117.8 310.9,137.5 310.4,137.4 "/>
<g>
	<text transform="matrix(1 0 0 1 308.92 116.42)" class="st0 st1">O</text>
</g>
<polygon points="309,136.8 291.4,143.4 291.2,142.9 291,142.5 309.1,135.7 309.1,136.3 "/>
<g>
	<text transform="matrix(1 0 0 1 273.95 149.28)" class="st0 st1">H</text>
	<text transform="matrix(1 0 0 1 281.79 149.28)" class="st0 st1">O</text>
</g>
<polygon points="557.5,108.7 569.5,121 569.1,121.3 568.8,121.7 556.8,109.4 557.1,109.1 "/>
<g>
	<text transform="matrix(1 0 0 1 570.09 131.04)" class="st0 st1">O</text>
</g>
<polygon points="579.4,124.8 598.3,120 598.2,120.5 598,121.1 579.6,125.8 579.5,125.3 "/>
<polygon points="605.1,102.8 599.8,121.9 599.3,121.7 598.9,121.6 604.2,102.6 604.7,102.7 "/>
<polygon points="602.3,102 597,121.1 596.5,120.9 596,120.8 601.3,101.8 601.8,101.9 "/>
<g>
	<text transform="matrix(1 0 0 1 600.55 101.23)" class="st0 st1">O</text>
</g>
<polygon points="598.3,120 615.5,137.6 615.4,138.1 615.2,138.7 598,121.1 598.2,120.5 "/>
<polygon points="615.5,137.6 639.3,131.5 639.2,132 639,132.5 615.2,138.7 615.4,138.1 "/>
<polygon points="639.3,131.5 656.5,149 656.4,149.6 656.2,150.1 639,132.5 639.2,132 "/>
<polygon points="656.5,149 680.4,142.9 680.2,143.5 680.1,144 656.2,150.1 656.4,149.6 "/>
<polygon points="680.4,142.9 697.6,160.5 697.4,161.1 696.9,161.2 680.1,144 680.2,143.5 "/>
<polygon points="697.6,160.5 721.5,157 721.8,157.5 721.5,158 697.9,161.5 697.4,161.1 "/>
<polygon points="722.4,157.6 733,179 732.7,179.5 732.1,179.4 721.5,158 721.8,157.5 "/>
<polygon points="732.9,180 715.2,197.3 715.1,196.7 715,196.1 732.1,179.4 732.7,179.5 "/>
<polygon points="715.2,197.3 697.7,188.2 697.9,187.7 698.2,187.3 715,196.1 715.1,196.7 "/>
<g>
	<text transform="matrix(1 0 0 1 689.71 189.72)" class="st0 st1">S</text>
</g>
<polygon points="693.8,179.8 696.9,161.2 697.4,161.1 697.9,161.5 694.7,179.9 694.3,179.8 "/>
<polygon points="733,179 752.1,176.2 752.2,176.6 752.2,177.1 732.9,180 732.7,179.5 "/>
<g>
	<text transform="matrix(1 0 0 1 753.14 180.33)" class="st0 st1">N</text>
</g>
<g>
	<text transform="matrix(1 0 0 1 753.14 190.23)" class="st0 st1">H</text>
</g>
<polygon points="757.5,170.4 760.6,151.9 761.2,151.7 761.7,151.4 758.5,170.5 758,170.5 "/>
<polygon points="778.9,145.1 761.1,153.9 760.9,153.5 760.6,153 778.4,144.2 778.7,144.6 "/>
<polygon points="777.6,142.4 759.8,151.3 759.5,150.8 759.3,150.4 777.1,141.6 777.3,142 "/>
<g>
	<text transform="matrix(1 0 0 1 778.99 145.14)" class="st0 st1">O</text>
</g>
<polygon points="760.6,151.9 744,143.3 744.3,142.8 744.5,142.4 761.7,151.4 761.2,151.7 "/>
<g>
	<text transform="matrix(1 0 0 1 735.45 135.69)" class="st0 st1">H</text>
</g>
<g>
	<text transform="matrix(1 0 0 1 735.45 145.59)" class="st0 st1">N</text>
</g>
<polygon points="734.8,145.4 722.4,157.6 721.8,157.5 721.5,157 734.1,144.7 734.5,145.1 "/>
<text transform="matrix(1 0 0 1 116.94 255.74)" class="st0 st2">Biotin</text>
<text transform="matrix(1 0 0 1 116.94 279.74)" class="st0 st2">~6 μM</text>
<text transform="matrix(1 0 0 1 360.57 255.74)" class="st0 st2">Desthiobiotin</text>
<text transform="matrix(1 0 0 1 360.57 279.74)" class="st0 st2">E</text>
<text transform="matrix(1 0 0 1 373.91 279.74)" class="st0 st2">f</text>
<text transform="matrix(1 0 0 1 379.11 279.74)" class="st0 st2">fective binding</text>
<text transform="matrix(1 0 0 1 615.51 259.94)" class="st0 st2">Biotin methyl ester</text>
<text transform="matrix(1 0 0 1 615.51 283.94)" class="st0 st2">      High a</text>
<text transform="matrix(1 0 0 1 706.66 283.94)" class="st0 st2">f</text>
<text transform="matrix(1 0 0 1 711.86 283.94)" class="st0 st2">finity</text>
</svg>
