<svg id="图层_1" data-name="图层 1" xmlns="http://www.w3.org/2000/svg" viewBox="0 0 800 400">
  <defs>
    <style>
      .cls-1, .cls-10, .cls-11, .cls-2, .cls-3, .cls-4, .cls-5, .cls-6, .cls-7, .cls-8, .cls-9 {
        isolation: isolate;
      }

      .cls-2, .cls-3, .cls-4, .cls-5 {
        font-size: 10.16px;
      }

      .cls-2, .cls-7 {
        fill: #ff0d0d;
      }

      .cls-10, .cls-11, .cls-12, .cls-2, .cls-3, .cls-4, .cls-5, .cls-6, .cls-7, .cls-8, .cls-9 {
        font-family: ArialMT, Arial;
      }

      .cls-11, .cls-3, .cls-6, .cls-8 {
        fill: #304ff7;
      }

      .cls-4, .cls-9 {
        fill: #c39517;
      }

      .cls-10, .cls-5 {
        fill: #1dc51d;
      }

      .cls-6 {
        font-size: 6.25px;
      }

      .cls-10, .cls-7, .cls-8, .cls-9 {
        font-size: 11.67px;
      }

      .cls-11 {
        font-size: 7.18px;
      }

      .cls-12 {
        font-size: 20px;
      }

      .cls-13 {
        letter-spacing: -0.06em;
      }
    </style>
  </defs>
  <polygon points="319.86 70.09 340.07 81.75 339.62 82.01 339.16 82.28 319.87 71.15 319.87 70.62 319.86 70.09"/>
  <polygon points="320.11 73.41 337.13 83.23 336.9 83.63 336.68 84.03 319.66 74.21 319.88 73.81 320.11 73.41"/>
  <polygon points="340.07 81.75 340.21 105.31 339.76 105.05 339.3 104.78 339.16 82.28 339.62 82.01 340.07 81.75"/>
  <polygon points="340.21 105.31 320.6 116.95 320.14 116.69 320.14 116.16 339.3 104.78 339.76 105.05 340.21 105.31"/>
  <polygon points="337.25 103.87 320.36 113.89 320.13 113.5 319.9 113.1 336.79 103.07 337.02 103.47 337.25 103.87"/>
  <polygon points="319.69 116.96 300.4 105.83 300.39 105.29 300.85 105.02 320.14 116.16 320.14 116.69 319.69 116.96"/>
  <polygon points="299.94 105.03 299.8 82 300.25 82.26 300.71 82.52 300.85 105.02 300.39 105.29 299.94 105.03"/>
  <polygon points="302.66 103.68 302.54 83.84 302.99 83.84 303.45 83.83 303.57 103.68 303.11 103.68 302.66 103.68"/>
  <polygon points="299.8 82 319.86 70.09 319.87 70.62 319.87 71.15 300.71 82.52 300.25 82.26 299.8 82"/>
  <polygon points="300.4 105.83 281.24 117.2 280.78 116.93 280.33 116.67 299.94 105.03 300.39 105.29 300.4 105.83"/>
  <polygon points="280.57 118.93 264.94 109.91 265.16 109.51 265.39 109.11 281.02 118.13 280.79 118.53 280.57 118.93"/>
  <polygon points="281.92 116.53 266.29 107.51 266.51 107.11 266.74 106.71 282.37 115.73 282.14 116.13 281.92 116.53"/>
  <g class="cls-1">
    <text class="cls-2" transform="translate(257.13 109.65) scale(0.99 1)">O</text>
  </g>
  <polygon points="281.24 117.19 281.38 139.7 280.92 139.97 280.47 139.7 280.33 116.67 280.78 116.93 281.24 117.19"/>
  <polygon points="281.38 139.7 300.67 150.83 300.67 151.36 300.22 151.63 280.93 140.5 280.92 139.97 281.38 139.7"/>
  <polygon points="281.17 142.76 298.18 152.57 297.96 152.97 297.73 153.37 280.72 143.56 280.94 143.16 281.17 142.76"/>
  <polygon points="300.67 150.83 319.83 139.46 320.29 139.72 320.74 139.98 301.13 151.62 300.67 151.36 300.67 150.83"/>
  <polygon points="320.5 137.72 336.13 146.74 335.9 147.14 335.68 147.54 320.05 138.53 320.27 138.13 320.5 137.72"/>
  <polygon points="319.15 140.13 334.78 149.14 334.55 149.54 334.33 149.94 318.7 140.93 318.93 140.53 319.15 140.13"/>
  <g class="cls-1">
    <text class="cls-2" transform="translate(336.14 155.23) scale(0.99 1)">O</text>
  </g>
  <polygon points="319.83 139.46 319.69 116.96 320.14 116.69 320.6 116.95 320.74 139.98 320.29 139.72 319.83 139.46"/>
  <polygon points="301.13 151.62 301.27 174.13 300.81 174.39 300.36 174.13 300.22 151.63 300.67 151.36 301.13 151.62"/>
  <polygon points="300.82 174.93 281.66 186.3 281.2 186.03 281.2 185.5 300.36 174.13 300.81 174.39 300.82 174.93"/>
  <polygon points="298.31 173.21 281.41 183.24 281.18 182.84 280.95 182.44 297.85 172.42 298.08 172.82 298.31 173.21"/>
  <polygon points="280.75 186.3 261 174.91 261.45 174.64 261.9 174.37 281.2 185.5 281.2 186.03 280.75 186.3"/>
  <polygon points="261 174.91 260.86 151.87 261.31 151.61 261.77 151.87 261.9 174.37 261.45 174.64 261 174.91"/>
  <polygon points="263.71 173.03 263.59 153.19 264.05 153.19 264.5 153.18 264.62 173.02 264.17 173.03 263.71 173.03"/>
  <polygon points="260.86 151.87 245.86 143.22 246.09 142.82 246.31 142.42 261.31 151.07 261.31 151.61 260.86 151.87"/>
  <g class="cls-1">
    <text class="cls-3" transform="translate(237.94 135.92) scale(0.99 1)">H</text>
  </g>
  <g class="cls-1">
    <text class="cls-3" transform="translate(237.94 145.19) scale(0.99 1)">N</text>
  </g>
  <polygon points="237.26 143.3 222.4 152.11 221.95 151.85 221.94 151.32 236.8 142.5 237.03 142.9 237.26 143.3"/>
  <polygon points="219 153.86 201.99 144.05 202.22 143.65 202.44 143.25 219.46 153.06 219.23 153.46 219 153.86"/>
  <polygon points="221.49 152.12 202.2 140.99 202.2 140.46 202.19 139.92 221.94 151.32 221.95 151.85 221.49 152.12"/>
  <polygon points="202.2 140.99 183.04 152.36 182.58 152.1 182.98 151.33 202.19 139.92 202.2 140.46 202.2 140.99"/>
  <polygon points="183.04 152.36 183.18 174.86 182.72 175.13 182.27 174.87 182.13 151.83 182.58 152.1 183.04 152.36"/>
  <polygon points="180.31 152.21 180.44 173.55 179.99 173.55 179.53 173.55 179.4 152.22 179.86 152.21 180.31 152.21"/>
  <polygon points="183.18 174.86 202.47 185.99 202.47 186.52 202.48 187.06 182.73 175.66 182.72 175.13 183.18 174.86"/>
  <polygon points="202.23 182.94 219.12 172.91 219.35 173.31 219.58 173.7 202.69 183.73 202.46 183.33 202.23 182.94"/>
  <polygon points="202.47 185.99 221.63 174.62 222.09 174.88 222.54 175.15 202.48 187.06 202.47 186.52 202.47 185.99"/>
  <polygon points="221.63 174.62 221.49 152.12 221.95 151.85 222.4 152.11 222.54 175.15 222.09 174.88 221.63 174.62"/>
  <polygon points="182.73 175.66 167.87 184.48 167.64 184.08 167.41 183.68 182.27 174.87 182.72 175.13 182.73 175.66"/>
  <g class="cls-1">
    <text class="cls-3" transform="translate(159.49 190.88) scale(0.99 1)">N</text>
  </g>
  <g class="cls-1">
    <text class="cls-3" transform="translate(159.49 200.16) scale(0.99 1)">H</text>
  </g>
  <polygon points="158.36 184.56 143.36 175.91 143.36 175.37 143.81 175.1 158.81 183.76 158.59 184.16 158.36 184.56"/>
  <polygon points="140.17 173.8 140.07 157.48 140.53 157.48 140.98 157.48 141.08 173.79 140.62 173.79 140.17 173.8"/>
  <polygon points="142.91 175.11 142.8 157.47 143.25 157.46 143.71 157.46 143.81 175.1 143.36 175.37 142.91 175.11"/>
  <g class="cls-1">
    <text class="cls-3" transform="translate(139.6 156.45) scale(0.99 1)">N</text>
  </g>
  <polygon points="138.47 150.13 123.47 141.48 123.47 140.95 123.92 140.68 138.92 149.33 138.69 149.73 138.47 150.13"/>
  <polygon points="123.72 144.53 109.99 152.68 109.76 152.28 109.53 151.89 123.26 143.74 123.49 144.14 123.72 144.53"/>
  <polygon points="123.47 141.48 108.62 150.3 108.39 149.9 108.16 149.5 123.01 140.68 123.47 140.95 123.47 141.48"/>
  <g class="cls-1">
    <text class="cls-3" transform="translate(100.24 156.7) scale(0.99 1)">N</text>
  </g>
  <polygon points="104.34 157.71 104.45 175.35 104 175.62 103.54 175.36 103.44 157.71 103.89 157.71 104.34 157.71"/>
  <polygon points="106.94 173.61 120.8 181.6 120.57 182 120.35 182.4 106.49 174.41 106.72 174.01 106.94 173.61"/>
  <polygon points="104.45 175.35 119.45 184 119.22 184.4 119 184.8 104 176.15 104 175.62 104.45 175.35"/>
  <g class="cls-1">
    <text class="cls-3" transform="translate(120.13 191.13) scale(0.99 1)">N</text>
  </g>
  <polygon points="128.05 183.93 142.91 175.11 143.36 175.37 143.36 175.91 128.51 184.72 128.28 184.33 128.05 183.93"/>
  <polygon points="104 176.15 89.14 184.97 88.91 184.57 88.68 184.17 103.54 175.36 104 175.62 104 176.15"/>
  <g class="cls-1">
    <text class="cls-3" transform="translate(80.77 191.37) scale(0.99 1)">N</text>
  </g>
  <g class="cls-1">
    <text class="cls-3" transform="translate(80.77 200.65) scale(0.99 1)">H</text>
  </g>
  <polygon points="79.64 185.05 64.64 176.4 64.64 175.86 65.09 175.59 80.08 184.25 79.86 184.65 79.64 185.05"/>
  <polygon points="61.44 174.29 61.32 154.45 61.78 154.44 62.23 154.44 62.35 174.28 61.9 174.28 61.44 174.29"/>
  <polygon points="64.18 175.6 64.04 153.1 64.5 152.83 64.95 152.56 65.09 175.59 64.64 175.86 64.18 175.6"/>
  <polygon points="64.04 153.1 44.75 141.97 44.74 141.44 44.74 140.9 64.95 152.56 64.5 152.83 64.04 153.1"/>
  <polygon points="44.99 145.03 28.1 155.05 27.87 154.65 27.64 154.26 44.53 144.23 44.76 144.63 44.99 145.03"/>
  <polygon points="44.75 141.97 25.59 153.34 25.13 153.07 24.68 152.81 44.74 140.9 44.74 141.44 44.75 141.97"/>
  <polygon points="25.59 153.34 25.73 175.84 25.27 176.11 24.82 176.38 24.68 152.81 25.13 153.07 25.59 153.34"/>
  <polygon points="28.21 174.1 45.23 183.91 45.01 184.31 44.78 184.71 27.77 174.9 27.99 174.5 28.21 174.1"/>
  <polygon points="25.73 175.84 45.02 186.97 45.02 187.5 44.57 187.77 24.82 176.38 25.27 176.11 25.73 175.84"/>
  <polygon points="45.48 187.77 45.59 205.41 45.13 205.41 44.68 205.42 44.57 187.77 45.02 187.5 45.48 187.77"/>
  <g class="cls-1">
    <text class="cls-4" transform="translate(41.82 214.65) scale(0.99 1)">S</text>
  </g>
  <polygon points="40.92 212.41 27.26 212.49 27.25 212.03 27.25 211.57 40.92 211.49 40.92 211.95 40.92 212.41"/>
  <polygon points="40.91 209.64 27.24 209.73 27.24 209.27 27.23 208.81 40.9 208.72 40.9 209.18 40.91 209.64"/>
  <g class="cls-1">
    <text class="cls-2" transform="translate(18.54 214.79) scale(0.99 1)">O</text>
  </g>
  <polygon points="49.4 208.67 63.07 208.58 63.07 209.04 63.08 209.5 49.41 209.59 49.41 209.13 49.4 208.67"/>
  <polygon points="49.42 211.43 63.09 211.35 63.09 211.81 63.09 212.27 49.42 212.35 49.42 211.89 49.42 211.43"/>
  <g class="cls-1">
    <text class="cls-2" transform="translate(63.99 214.51) scale(0.99 1)">O</text>
  </g>
  <polygon points="45.65 215.66 45.73 228.44 45.27 228.45 44.82 228.45 44.74 215.66 45.19 215.66 45.65 215.66"/>
  <g class="cls-1">
    <text class="cls-2" transform="translate(41.4 237.69) scale(0.99 1)">O</text>
    <text class="cls-2" transform="translate(49.2 237.69) scale(0.99 1)">H</text>
  </g>
  <polygon points="45.02 186.97 64.18 175.6 64.64 175.86 64.64 176.4 45.48 187.77 45.02 187.5 45.02 186.97"/>
  <polygon points="123.01 140.68 122.91 123.04 123.36 123.04 123.82 123.03 123.92 140.68 123.47 140.95 123.01 140.68"/>
  <g class="cls-1">
    <text class="cls-5" transform="translate(118.6 122.03) scale(0.99 1)">Cl</text>
  </g>
  <polygon points="182.19 152.87 180.66 133.09 181.11 133.06 181.57 133.02 182.98 151.33 182.58 152.1 182.19 152.87"/>
  <g class="cls-1">
    <text class="cls-4" transform="translate(177.38 132.05) scale(0.99 1)">S</text>
  </g>
  <polygon points="177.63 132.93 169.21 140.03 168.92 139.67 168.63 139.32 177.05 132.22 177.34 132.58 177.63 132.93"/>
  <polygon points="175.89 130.81 167.47 137.9 167.18 137.55 166.88 137.19 175.31 130.1 175.59 130.45 175.89 130.81"/>
  <g class="cls-1">
    <text class="cls-2" transform="translate(159.34 146.77) scale(0.99 1)">O</text>
  </g>
  <polygon points="183.96 123.52 190.02 119.41 190.28 119.8 190.53 120.18 184.46 124.29 184.21 123.91 183.96 123.52"/>
  <polygon points="185.47 125.82 191.54 121.71 191.79 122.09 192.04 122.48 185.98 126.59 185.73 126.2 185.47 125.82"/>
  <g class="cls-1">
    <text class="cls-2" transform="translate(191.94 121.8) scale(0.99 1)">O</text>
  </g>
  <polygon points="176.17 123.11 170.04 115.64 170.39 115.34 170.74 115.05 176.87 122.52 176.52 122.81 176.17 123.11"/>
  <g class="cls-1">
    <text class="cls-2" transform="translate(155.06 114.33) scale(0.99 1)">H</text>
    <text class="cls-2" transform="translate(162.29 114.33) scale(0.99 1)">O</text>
  </g>
  <polygon points="261.31 151.07 280.47 139.7 280.92 139.97 280.93 140.5 261.77 151.87 261.31 151.61 261.31 151.07"/>
  <polygon points="281.66 186.3 281.76 203.94 281.31 203.94 280.86 203.95 280.75 186.3 281.2 186.03 281.66 186.3"/>
  <g class="cls-1">
    <text class="cls-4" transform="translate(278 213.18) scale(0.99 1)">S</text>
  </g>
  <polygon points="277.1 210.94 263.43 211.02 263.43 210.56 263.43 210.1 277.1 210.02 277.1 210.48 277.1 210.94"/>
  <polygon points="277.08 208.17 263.42 208.26 263.41 207.8 263.41 207.34 277.08 207.25 277.08 207.71 277.08 208.17"/>
  <g class="cls-1">
    <text class="cls-2" transform="translate(254.72 213.32) scale(0.99 1)">O</text>
  </g>
  <polygon points="285.58 207.2 299.25 207.11 299.25 207.57 299.25 208.03 285.59 208.12 285.58 207.66 285.58 207.2"/>
  <polygon points="285.6 209.96 299.26 209.88 299.27 210.34 299.27 210.8 285.6 210.88 285.6 210.42 285.6 209.96"/>
  <g class="cls-1">
    <text class="cls-2" transform="translate(300.17 213.04) scale(0.99 1)">O</text>
  </g>
  <polygon points="281.83 214.19 281.9 226.98 281.45 226.98 281 226.98 280.92 214.19 281.37 214.19 281.83 214.19"/>
  <g class="cls-1">
    <text class="cls-2" transform="translate(277.58 236.22) scale(0.99 1)">O</text>
    <text class="cls-2" transform="translate(285.38 236.22) scale(0.99 1)">H</text>
  </g>
  <polygon points="301.27 174.13 316.26 182.78 316.04 183.18 315.81 183.58 300.82 174.93 300.81 174.39 301.27 174.13"/>
  <g class="cls-1">
    <text class="cls-3" transform="translate(316.95 188.59) scale(0.99 1)">N</text>
    <text class="cls-3" transform="translate(324.18 188.59) scale(0.99 1)">H</text>
    <text class="cls-6" transform="translate(331.42 190.16) scale(0.99 1)">2</text>
  </g>
  <polygon points="724.86 67.94 748.35 82.33 747.79 82.61 747.24 82.9 724.82 69.17 724.84 68.56 724.86 67.94"/>
  <polygon points="724.99 71.77 744.76 83.88 744.48 84.33 744.19 84.78 724.42 72.67 724.7 72.22 724.99 71.77"/>
  <polygon points="748.35 82.33 747.34 109.39 746.81 109.06 746.28 108.74 747.24 82.9 747.79 82.61 748.35 82.33"/>
  <polygon points="747.34 109.39 723.4 121.78 722.87 121.45 722.89 120.84 746.28 108.74 746.81 109.06 747.34 109.39"/>
  <polygon points="743.88 107.58 723.26 118.26 723.01 117.79 722.75 117.32 743.38 106.65 743.63 107.11 743.88 107.58"/>
  <polygon points="722.32 121.74 699.89 108.01 699.92 107.4 700.47 107.11 722.89 120.84 722.87 121.45 722.32 121.74"/>
  <polygon points="699.39 107.07 700.37 80.62 700.9 80.95 701.43 81.27 700.47 107.11 699.92 107.4 699.39 107.07"/>
  <polygon points="702.69 105.66 703.54 82.88 704.08 82.89 704.62 82.91 703.78 105.7 703.23 105.68 702.69 105.66"/>
  <polygon points="700.37 80.62 724.86 67.94 724.84 68.56 724.82 69.17 701.43 81.27 700.9 80.95 700.37 80.62"/>
  <polygon points="699.89 108.01 676.51 120.11 675.98 119.79 675.45 119.46 699.39 107.07 699.92 107.4 699.89 108.01"/>
  <polygon points="675.62 122.07 657.61 111.03 657.89 110.58 658.18 110.14 676.2 121.17 675.91 121.62 675.62 122.07"/>
  <polygon points="677.35 119.38 659.33 108.34 659.62 107.89 659.91 107.45 677.92 118.48 677.64 118.93 677.35 119.38"/>
  <g class="cls-1">
    <text class="cls-7" transform="translate(648.38 110.46) scale(1.02 1)">O</text>
  </g>
  <polygon points="676.51 120.11 675.55 145.95 674.99 146.24 674.46 145.91 675.45 119.46 675.98 119.79 676.51 120.11"/>
  <polygon points="675.55 145.95 697.97 159.68 697.95 160.29 697.4 160.58 674.97 146.85 674.99 146.24 675.55 145.95"/>
  <polygon points="675.15 149.45 694.92 161.56 694.63 162.01 694.34 162.46 674.57 150.35 674.86 149.9 675.15 149.45"/>
  <polygon points="697.97 159.68 721.36 147.58 721.89 147.9 722.42 148.23 698.48 160.62 697.95 160.29 697.97 159.68"/>
  <polygon points="722.24 145.62 740.26 156.66 739.97 157.11 739.69 157.55 721.67 146.52 721.96 146.07 722.24 145.62"/>
  <polygon points="720.52 148.31 738.53 159.35 738.25 159.8 737.96 160.25 719.94 149.21 720.23 148.76 720.52 148.31"/>
  <g class="cls-1">
    <text class="cls-7" transform="translate(740.19 166.69) scale(1.02 1)">O</text>
  </g>
  <polygon points="721.36 147.58 722.32 121.74 722.87 121.45 723.4 121.78 722.42 148.23 721.89 147.9 721.36 147.58"/>
  <polygon points="698.48 160.62 697.52 186.46 696.96 186.74 696.43 186.42 697.4 160.58 697.95 160.29 698.48 160.62"/>
  <polygon points="696.94 187.35 673.56 199.46 673.03 199.14 673.05 198.53 696.43 186.42 696.96 186.74 696.94 187.35"/>
  <polygon points="694.04 185.26 673.42 195.94 673.16 195.47 672.91 195 693.53 184.33 693.78 184.8 694.04 185.26"/>
  <polygon points="672.47 199.42 649.52 185.37 650.07 185.08 650.62 184.79 673.05 198.53 673.03 199.14 672.47 199.42"/>
  <polygon points="649.52 185.37 650.5 158.91 651.06 158.63 651.59 158.95 650.62 184.79 650.07 185.08 649.52 185.37"/>
  <polygon points="652.85 183.34 653.7 160.56 654.24 160.58 654.78 160.6 653.93 183.38 653.39 183.36 652.85 183.34"/>
  <polygon points="650.5 158.91 633.21 148.32 633.5 147.88 633.79 147.43 651.08 158.02 651.06 158.63 650.5 158.91"/>
  <g class="cls-1">
    <text class="cls-8" transform="translate(623.79 139.64) scale(1.02 1)">H</text>
  </g>
  <g class="cls-1">
    <text class="cls-8" transform="translate(623.79 150.3) scale(1.02 1)">N</text>
  </g>
  <polygon points="622.96 147.83 604.69 157.29 604.16 156.96 604.19 156.35 622.45 146.9 622.71 147.37 622.96 147.83"/>
  <polygon points="600.56 159.13 580.78 147.02 581.07 146.57 581.36 146.12 601.13 158.23 600.85 158.68 600.56 159.13"/>
  <polygon points="603.61 157.25 581.19 143.52 581.21 142.91 581.23 142.29 604.19 156.35 604.16 156.96 603.61 157.25"/>
  <polygon points="581.19 143.52 557.8 155.62 557.27 155.3 557.29 154.69 581.23 142.29 581.21 142.91 581.19 143.52"/>
  <polygon points="557.8 155.62 556.84 181.46 556.29 181.75 555.73 182.03 556.72 155.58 557.27 155.3 557.8 155.62"/>
  <polygon points="554.5 157.03 553.59 181.28 553.05 181.26 552.51 181.24 553.41 157 553.95 157.01 554.5 157.03"/>
  <polygon points="556.84 181.46 579.26 195.19 579.24 195.8 579.22 196.41 556.62 182.57 556.29 181.75 556.84 181.46"/>
  <polygon points="579.12 191.67 599.74 181 600 181.47 600.25 181.93 579.63 192.61 579.38 192.14 579.12 191.67"/>
  <polygon points="579.26 195.19 602.65 183.09 603.18 183.41 603.71 183.74 579.22 196.41 579.24 195.8 579.26 195.19"/>
  <polygon points="602.65 183.09 603.61 157.25 604.16 156.96 604.69 157.29 603.71 183.74 603.18 183.41 602.65 183.09"/>
  <polygon points="556.62 182.57 552.16 198.45 551.64 198.31 551.12 198.17 555.96 180.92 556.29 181.75 556.62 182.57"/>
  <g class="cls-1">
    <text class="cls-9" transform="translate(546.01 208.92) scale(1.02 1)">S</text>
  </g>
  <polygon points="544.92 206.31 528.63 206.31 528.63 205.78 528.63 205.25 544.92 205.25 544.92 205.78 544.92 206.31"/>
  <polygon points="544.92 203.13 528.63 203.13 528.63 202.6 528.63 202.08 544.92 202.08 544.92 202.6 544.92 203.13"/>
  <g class="cls-1">
    <text class="cls-7" transform="translate(518.25 208.92) scale(1.02 1)">O</text>
  </g>
  <polygon points="555.06 202.08 571.35 202.08 571.35 202.6 571.35 203.13 555.06 203.13 555.06 202.6 555.06 202.08"/>
  <polygon points="555.06 205.25 571.35 205.25 571.35 205.78 571.35 206.31 555.06 206.31 555.06 205.78 555.06 205.25"/>
  <g class="cls-1">
    <text class="cls-7" transform="translate(572.44 208.92) scale(1.02 1)">O</text>
  </g>
  <polygon points="550.53 210.08 550.53 224.77 549.99 224.77 549.45 224.77 549.45 210.08 549.99 210.08 550.53 210.08"/>
  <g class="cls-1">
    <text class="cls-7" transform="translate(545.35 235.39) scale(1.02 1)">O</text>
    <text class="cls-7" transform="translate(554.64 235.39) scale(1.02 1)">H</text>
  </g>
  <polygon points="556.72 155.58 539.43 144.99 539.71 144.54 540 144.1 557.29 154.69 557.27 155.3 556.72 155.58"/>
  <g class="cls-1">
    <text class="cls-8" transform="translate(530 136.31) scale(1.02 1)">H</text>
  </g>
  <g class="cls-1">
    <text class="cls-8" transform="translate(530 146.97) scale(1.02 1)">N</text>
  </g>
  <polygon points="529.17 144.5 510.91 153.96 510.38 153.63 510.4 153.02 528.67 143.56 528.92 144.03 529.17 144.5"/>
  <polygon points="506.77 155.8 490.81 146.02 491.09 145.57 491.38 145.12 507.35 154.9 507.06 155.35 506.77 155.8"/>
  <polygon points="509.82 153.92 492.53 143.33 492.82 142.88 493.11 142.43 510.4 153.02 510.38 153.63 509.82 153.92"/>
  <g class="cls-1">
    <text class="cls-8" transform="translate(483.11 144.3) scale(1.02 1)">N</text>
  </g>
  <polygon points="482.28 142.84 464.02 152.29 463.49 151.97 463.51 151.35 481.77 141.9 482.03 142.37 482.28 142.84"/>
  <polygon points="467.21 153.93 466.51 172.66 465.97 172.64 465.43 172.62 466.13 153.89 466.67 153.91 467.21 153.93"/>
  <polygon points="464.02 152.29 463.26 172.55 462.72 172.53 462.18 172.51 462.93 152.25 463.49 151.97 464.02 152.29"/>
  <g class="cls-1">
    <text class="cls-8" transform="translate(458.19 183.14) scale(1.02 1)">N</text>
  </g>
  <polygon points="468.19 181.27 485.48 191.86 485.45 192.47 484.9 192.76 467.61 182.17 467.9 181.72 468.19 181.27"/>
  <polygon points="485.34 188.34 502.22 179.6 502.48 180.07 502.73 180.54 485.85 189.28 485.59 188.81 485.34 188.34"/>
  <polygon points="485.48 191.86 503.74 182.41 504 182.87 504.25 183.34 485.99 192.8 485.45 192.47 485.48 191.86"/>
  <g class="cls-1">
    <text class="cls-8" transform="translate(505.08 184.81) scale(1.02 1)">N</text>
  </g>
  <polygon points="509.07 174.18 509.82 153.92 510.38 153.63 510.91 153.96 510.15 174.21 509.61 174.19 509.07 174.18"/>
  <polygon points="485.99 192.8 485.23 213.05 484.69 213.03 484.15 213.02 484.9 192.76 485.45 192.47 485.99 192.8"/>
  <g class="cls-1">
    <text class="cls-10" transform="translate(478.83 223.65) scale(1.02 1)">Cl</text>
  </g>
  <polygon points="462.93 152.25 446.97 142.47 447.25 142.03 447.54 141.58 463.51 151.35 463.49 151.97 462.93 152.25"/>
  <g class="cls-1">
    <text class="cls-10" transform="translate(434.89 142.63) scale(1.02 1)">Cl</text>
  </g>
  <polygon points="651.08 158.02 674.46 145.91 674.99 146.24 674.97 146.85 651.59 158.95 651.06 158.63 651.08 158.02"/>
  <polygon points="673.56 199.46 672.8 219.72 672.26 219.7 671.72 219.68 672.47 199.42 673.03 199.14 673.56 199.46"/>
  <g class="cls-1">
    <text class="cls-9" transform="translate(668.06 230.31) scale(1.02 1)">S</text>
  </g>
  <polygon points="666.89 227.52 650.62 226.94 650.64 226.41 650.66 225.88 666.93 226.46 666.91 226.99 666.89 227.52"/>
  <polygon points="667.01 224.35 650.74 223.77 650.76 223.24 650.78 222.71 667.05 223.29 667.03 223.82 667.01 224.35"/>
  <g class="cls-1">
    <text class="cls-7" transform="translate(640.32 229.35) scale(1.02 1)">O</text>
  </g>
  <polygon points="677.19 223.65 693.46 224.23 693.44 224.76 693.42 225.28 677.15 224.71 677.17 224.18 677.19 223.65"/>
  <polygon points="677.07 226.82 693.35 227.4 693.33 227.93 693.3 228.46 677.03 227.88 677.05 227.35 677.07 226.82"/>
  <g class="cls-1">
    <text class="cls-7" transform="translate(694.47 231.27) scale(1.02 1)">O</text>
  </g>
  <polygon points="672.36 231.49 671.82 246.17 671.28 246.15 670.73 246.13 671.28 231.45 671.82 231.47 672.36 231.49"/>
  <g class="cls-1">
    <text class="cls-7" transform="translate(657.78 256.76) scale(1.02 1)">H</text>
    <text class="cls-7" transform="translate(666.41 256.76) scale(1.02 1)">O</text>
  </g>
  <polygon points="697.52 186.46 714.81 197.05 714.52 197.5 714.23 197.94 696.94 187.35 696.96 186.74 697.52 186.46"/>
  <g class="cls-1">
    <text class="cls-8" transform="translate(715.61 204.03) scale(1.02 1)">N</text>
    <text class="cls-8" transform="translate(724.23 204.03) scale(1.02 1)">H</text>
    <text class="cls-11" transform="translate(732.86 205.82) scale(1.02 1)">2</text>
  </g>
  <text class="cls-12" transform="translate(88.68 311.52)">Cibacron Blue 3G<tspan class="cls-13" x="157.86" y="0">A</tspan><tspan x="0" y="24" xml:space="preserve">           </tspan><tspan x="0" y="48" xml:space="preserve">      Kd:  &lt;100 uM</tspan></text>
  <text class="cls-12" transform="translate(569.25 306.28)">Reactive Blue 4<tspan x="0" y="48" xml:space="preserve">  Kd:  ~600 nM</tspan></text>
</svg>
