<?xml version="1.0" encoding="utf-8"?>
<!-- Generator: Adobe Illustrator 25.2.0, SVG Export Plug-In . SVG Version: 6.00 Build 0)  -->
<svg version="1.1" id="图层_1" xmlns="http://www.w3.org/2000/svg" xmlns:xlink="http://www.w3.org/1999/xlink" x="0px" y="0px"
	 viewBox="0 0 800 400" style="enable-background:new 0 0 800 400;" xml:space="preserve">
<style type="text/css">
	.st0{font-family:'ArialMT';}
	.st1{font-size:12.26px;}
	.st2{font-size:10.23px;}
	.st3{font-size:6.3px;}
	.st4{font-size:10.32px;}
	.st5{font-size:6.35px;}
	.st6{font-size:11.14px;}
	.st7{fill:none;stroke:#000000;stroke-width:0.93;stroke-miterlimit:3.94;}
	.st8{font-size:6.86px;}
	.st9{enable-background:new    ;}
	.st10{font-size:20px;}
	.st11{font-family:'AdobeSongStd-Light-GBpc-EUC-H';}
	.st12{letter-spacing:-1;}
	.st13{letter-spacing:-2;}
	.st14{font-size:10px;}
</style>
<polygon points="158.4,15.2 158.4,34.9 157.9,35.2 157.3,34.9 157.2,15.2 157.8,15.2 "/>
<polygon points="158.4,34.9 176,44.9 175.4,45.2 174.9,45.5 157.9,35.9 157.9,35.2 "/>
<polygon points="158.1,38.6 172.3,46.7 172.1,47.2 171.8,47.6 157.6,39.6 157.9,39.1 "/>
<polygon points="176,44.9 176,65 175.5,65.3 174.9,65 174.9,45.5 175.4,45.2 "/>
<polygon points="175.5,65.9 158.5,75.7 157.9,75.3 157.9,74.7 174.9,65 175.5,65.3 "/>
<polygon points="172.4,63.8 158.2,72 157.9,71.5 157.6,71 171.8,62.9 172.1,63.4 "/>
<polygon points="157.4,75.7 139.8,65.7 140.4,65.4 140.9,65 157.9,74.7 157.9,75.3 "/>
<polygon points="139.8,65.7 139.8,45.6 140.3,45.3 140.9,45.6 140.9,65 140.4,65.4 "/>
<polygon points="143.2,63.4 143.1,47.2 143.7,47.2 144.3,47.2 144.3,63.4 143.7,63.4 "/>
<polygon points="139.8,45.6 122.5,35.8 122.8,35.3 123,34.8 140.3,44.7 140.3,45.3 "/>
<polygon points="140.3,44.7 157.3,34.9 157.9,35.2 157.9,35.9 140.9,45.6 140.3,45.3 "/>
<polygon points="158.5,75.7 158.5,89.2 158,89.2 157.4,89.2 157.4,75.7 157.9,75.3 "/>
<text transform="matrix(1.01 0 0 1 153.5098 100.3701)" class="st0 st1">N</text>
<polygon points="163.9,98.1 175.5,104.8 175.6,105.4 175,105.7 163.3,99.1 163.6,98.6 "/>
<polygon points="179.5,107.3 179.5,119.3 178.9,119.3 178.4,119.3 178.4,107.3 178.9,107.3 "/>
<polygon points="176.1,105.7 176.1,119.3 175.6,119.3 175,119.3 175,105.7 175.6,105.4 "/>
<text transform="matrix(1.01 0 0 1 171.1201 130.4199)" class="st0 st1">N</text>
<polygon points="181.5,128.2 193.2,134.8 193.2,135.4 193.2,136.1 180.9,129.1 181.2,128.6 "/>
<polygon points="195.4,134.5 195.4,149.3 194.9,149.3 194.3,149.3 194.3,134.5 194.8,134.5 "/>
<polygon points="192,134.5 192.1,149.3 191.5,149.3 190.9,149.3 190.9,134.5 191.5,134.5 "/>
<text transform="matrix(1.01 0 0 1 188.3799 160.4702)" class="st0 st1">O</text>
<polygon points="193.2,134.8 204.8,128.1 205.1,128.6 205.4,129.1 193.2,136.1 193.2,135.4 "/>
<text transform="matrix(1.01 0 0 1 206.21 130.3501)" class="st0 st1">N</text>
<text transform="matrix(1.01 0 0 1 215.1504 130.3501)" class="st0 st1">H</text>
<polygon points="210.1,119.2 210.1,105.7 210.6,105.3 211.2,105 211.2,119.2 210.7,119.2 "/>
<polygon points="208.7,103.9 221.1,96.8 221.4,97.2 221.7,97.7 209.2,104.8 208.9,104.4 "/>
<polygon points="210.4,106.8 222.8,99.6 223.1,100.1 223.4,100.6 210.9,107.7 210.6,107.2 "/>
<text transform="matrix(1.01 0 0 1 223.3398 100.2202)" class="st0 st1">O</text>
<polygon points="210.1,105.7 193.1,96 193.1,95.3 193.6,95 211.2,105 210.6,105.3 "/>
<polygon points="189.1,93.4 189.1,81.5 189.7,81.5 190.2,81.5 190.3,93.4 189.7,93.4 "/>
<polygon points="192.5,95 192.5,81.5 193,81.5 193.6,81.5 193.6,95 193.1,95.3 "/>
<text transform="matrix(1.01 0 0 1 188.5601 80.2402)" class="st0 st1">N</text>
<polygon points="187.1,72.6 175.5,65.9 175.5,65.3 176,65 187.7,71.6 187.4,72.1 "/>
<polygon points="193.1,96 176.1,105.7 175.6,105.4 175.5,104.8 192.5,95 193.1,95.3 "/>
<polygon points="152.7,99.1 140.5,106.1 140.4,105.5 140.4,104.8 152.1,98.1 152.4,98.6 "/>
<polygon points="140.5,106.1 122.9,96.1 122.9,95.5 123.5,95.2 140.4,104.8 140.4,105.5 "/>
<polygon points="122.9,96.1 105.6,106 105.4,105.6 105.4,104.9 122.3,95.2 122.9,95.5 "/>
<polygon points="105.1,106 87.8,96.2 87.8,95.6 88.4,95.3 105.4,104.9 105.4,105.6 "/>
<polygon points="87.8,96.2 70.3,106.3 70.3,105.6 70.3,105 87.2,95.3 87.8,95.6 "/>
<polygon points="70.3,106.3 58.4,99.5 58.6,99 58.9,98.5 70.3,105 70.3,105.6 "/>
<text transform="matrix(1.01 0 0 1 47.8901 100.6001)" class="st0 st1">O</text>
<polygon points="47,99.5 40.7,103.2 40.4,102.7 40.2,102.2 46.5,98.6 46.8,99 "/>
<text transform="matrix(1.01 0 0 1 31.0498 110.6602)" class="st0 st1">P</text>
<polygon points="29.6,100.6 26.7,95.7 27.2,95.4 27.7,95.1 30.6,100.1 30.1,100.3 "/>
<polygon points="32.5,99 29.6,94 30.1,93.7 30.6,93.4 33.5,98.4 33,98.7 "/>
<text transform="matrix(1.01 0 0 1 20.1899 93.3101)" class="st0 st1">O</text>
<polygon points="39.3,111.6 42.2,116.6 41.7,116.9 41.2,117.1 38.3,112.2 38.8,111.9 "/>
<text transform="matrix(1.01 0 0 1 40.5298 128.0098)" class="st0 st1">O</text>
<text transform="matrix(1.01 0 0 1 50.1602 128.0098)" class="st0 st1">H</text>
<polygon points="30.2,109.2 23.9,112.8 23.6,112.3 23.3,111.9 29.6,108.2 29.9,108.7 "/>
<text transform="matrix(1.01 0 0 1 3.8999 120.73)" class="st0 st1">H</text>
<text transform="matrix(1.01 0 0 1 12.8398 120.73)" class="st0 st1">O</text>
<polygon points="87.2,95.3 85.2,81.7 87.8,81.7 90.3,81.7 88.4,95.3 87.8,95.6 "/>
<text transform="matrix(1.01 0 0 1 82.9399 80.46)" class="st0 st1">O</text>
<text transform="matrix(1.01 0 0 1 92.5698 80.46)" class="st0 st1">H</text>
<polygon points="104.7,105.7 106,105.7 106,106.2 106,106.8 104.7,106.8 104.7,106.2 "/>
<polygon points="104.3,108.8 106.5,108.8 106.5,109.4 106.5,109.9 104.3,109.9 104.3,109.4 "/>
<polygon points="103.8,112 106.9,112 106.9,112.6 106.9,113.1 103.8,113.1 103.8,112.6 "/>
<polygon points="103.4,115.2 107.4,115.2 107.4,115.7 107.4,116.3 103.4,116.3 103.4,115.7 "/>
<polygon points="102.9,118.3 107.8,118.3 107.8,118.9 107.8,119.4 102.9,119.4 102.9,118.9 "/>
<text transform="matrix(1.01 0 0 1 100.5898 130.5698)" class="st0 st1">O</text>
<text transform="matrix(1.01 0 0 1 110.2202 130.5698)" class="st0 st1">H</text>
<polygon points="122.3,95.2 120.3,81.6 122.9,81.6 125.4,81.6 123.5,95.2 122.9,95.5 "/>
<text transform="matrix(1.01 0 0 1 118.0298 80.3901)" class="st0 st1">O</text>
<text transform="matrix(1.01 0 0 1 127.6602 80.3901)" class="st0 st1">H</text>
<polygon points="727,45.8 727.1,62 726.6,62.3 726.1,62 725.9,45.8 726.5,45.8 "/>
<polygon points="727.1,62 743,70.1 742.5,70.4 742,70.6 726.6,62.8 726.6,62.3 "/>
<polygon points="726.9,65.1 739.6,71.6 739.4,72 739.1,72.4 726.4,65.9 726.6,65.5 "/>
<polygon points="743,70.1 743.1,86.5 742.6,86.8 742.1,86.5 742,70.6 742.5,70.4 "/>
<polygon points="742.6,87.3 727.4,95.4 726.9,95.1 726.9,94.6 742.1,86.5 742.6,86.8 "/>
<polygon points="739.8,85.6 727.1,92.3 726.8,91.9 726.6,91.5 739.2,84.8 739.5,85.2 "/>
<polygon points="726.3,95.4 710.5,87.3 711,87 711.5,86.7 726.9,94.6 726.9,95.1 "/>
<polygon points="710.5,87.3 710.3,70.8 710.8,70.6 711.4,70.8 711.5,86.7 711,87 "/>
<polygon points="713.5,85.4 713.4,72.2 714,72.2 714.5,72.2 714.6,85.4 714.1,85.4 "/>
<polygon points="710.3,70.8 694.7,62.9 695,62.5 695.2,62.1 710.8,70.1 710.8,70.6 "/>
<polygon points="710.8,70.1 726.1,62 726.6,62.3 726.6,62.8 711.4,70.8 710.8,70.6 "/>
<polygon points="727.4,95.4 727.5,106.4 727,106.4 726.4,106.4 726.3,95.4 726.9,95.1 "/>
<text transform="matrix(1.11 0 0 1 722.8896 115.7002)" class="st0 st2">N</text>
<polygon points="732.4,113.8 742.9,119.1 742.9,119.7 742.4,119.9 731.9,114.6 732.1,114.2 "/>
<polygon points="746.5,121.2 746.6,130.9 746.1,130.9 745.5,130.9 745.5,121.2 746,121.2 "/>
<polygon points="743.4,119.9 743.5,130.9 743,130.9 742.5,130.9 742.4,119.9 742.9,119.7 "/>
<text transform="matrix(1.11 0 0 1 738.9004 140.2402)" class="st0 st2">N</text>
<polygon points="748.4,138.3 758.9,143.7 758.9,144.2 758.9,144.7 747.9,139.1 748.1,138.7 "/>
<polygon points="760.9,143.4 761,155.5 760.5,155.5 760,155.5 759.9,143.4 760.4,143.4 "/>
<polygon points="757.8,143.4 757.9,155.5 757.4,155.5 756.9,155.5 756.8,143.4 757.3,143.4 "/>
<text transform="matrix(1.11 0 0 1 754.5996 164.7798)" class="st0 st2">O</text>
<polygon points="758.9,143.7 769.2,138.2 769.5,138.6 769.8,139 758.9,144.7 758.9,144.2 "/>
<text transform="matrix(1.11 0 0 1 770.5195 140.0298)" class="st0 st2">N</text>
<text transform="matrix(1.11 0 0 1 778.7305 140.0298)" class="st0 st2">H</text>
<polygon points="774.1,130.7 774,119.7 774.5,119.4 775,119.2 775.1,130.7 774.6,130.7 "/>
<polygon points="772.7,118.3 783.7,112.4 784,112.8 784.3,113.2 773.2,119.1 772.9,118.7 "/>
<polygon points="774.2,120.7 785.3,114.8 785.6,115.2 785.8,115.6 774.8,121.5 774.5,121.1 "/>
<text transform="matrix(1.11 0 0 1 785.8096 115.2798)" class="st0 st2">O</text>
<polygon points="774,119.7 758.6,111.9 758.6,111.3 759.1,111.1 775,119.2 774.5,119.4 "/>
<polygon points="755,109.8 754.9,100.1 755.4,100.1 755.9,100.1 756,109.8 755.5,109.8 "/>
<polygon points="758.1,111.1 758,100.1 758.5,100.1 759,100.1 759.1,111.1 758.6,111.3 "/>
<text transform="matrix(1.11 0 0 1 754.3799 99.0601)" class="st0 st2">N</text>
<polygon points="753.1,92.7 742.6,87.3 742.6,86.8 743.1,86.5 753.6,91.9 753.3,92.3 "/>
<polygon points="758.6,111.9 743.4,119.9 742.9,119.7 742.9,119.1 758.1,111.1 758.6,111.3 "/>
<polygon points="722.1,114.7 711.3,120.4 711.2,119.9 711.2,119.3 721.6,113.9 721.9,114.3 "/>
<polygon points="711.3,120.4 695.4,112.3 695.4,111.8 695.9,111.5 711.2,119.3 711.2,119.9 "/>
<polygon points="695.4,112.3 679.9,120.5 679.6,120.1 679.6,119.6 694.8,111.5 695.4,111.8 "/>
<polygon points="679.4,120.5 663.8,112.5 663.8,112 664.3,111.7 679.6,119.6 679.6,120.1 "/>
<polygon points="663.8,112.5 648,120.8 648,120.3 648,119.8 663.2,111.7 663.8,112 "/>
<polygon points="648,120.8 637.3,115.4 637.6,115 637.8,114.6 648,119.8 648,120.3 "/>
<text transform="matrix(1.11 0 0 1 627.7197 116.3301)" class="st0 st2">O</text>
<polygon points="627,115.5 621.5,118.3 621.2,117.9 621,117.6 626.4,114.7 626.7,115.1 "/>
<text transform="matrix(1.11 0 0 1 612.6104 124.6499)" class="st0 st2">P</text>
<polygon points="621.5,124.7 624,128.6 623.6,128.8 623.2,129 620.7,125.2 621.1,125 "/>
<polygon points="618.9,126.1 621.4,130 620.9,130.2 620.5,130.4 618,126.6 618.4,126.4 "/>
<text transform="matrix(1.11 0 0 1 621.2197 138.8198)" class="st0 st2">O</text>
<polygon points="615.4,115.4 615.1,111.5 615.6,111.5 616.1,111.5 616.5,115.3 616,115.3 "/>
<text transform="matrix(1.11 0 0 1 602.5303 110.48)" class="st0 st2">H</text>
<text transform="matrix(1.11 0 0 1 610.75 110.48)" class="st0 st2">O</text>
<polygon points="611.8,123.4 606.4,126.3 606.1,125.9 605.8,125.5 611.3,122.7 611.6,123.1 "/>
<text transform="matrix(1.11 0 0 1 596.2305 132.9702)" class="st0 st2">O</text>
<polygon points="595,126.4 589.3,123.6 589.6,123.2 589.9,122.8 595.5,125.6 595.2,126 "/>
<text transform="matrix(1.11 0 0 1 580.9902 124.8599)" class="st0 st2">P</text>
<polygon points="583.3,126.8 580.8,130.8 580.4,130.5 579.9,130.3 582.4,126.3 582.9,126.6 "/>
<polygon points="580.6,125.4 578.1,129.4 577.7,129.1 577.2,128.9 579.7,125 580.2,125.2 "/>
<text transform="matrix(1.11 0 0 1 571.3398 139.1499)" class="st0 st2">O</text>
<polygon points="584,115.6 583.9,111.6 584.4,111.6 584.9,111.6 585.1,115.5 584.6,115.6 "/>
<text transform="matrix(1.11 0 0 1 571.54 110.5698)" class="st0 st2">H</text>
<text transform="matrix(1.11 0 0 1 579.75 110.5698)" class="st0 st2">O</text>
<polygon points="579.7,118.7 574.1,115.8 574.4,115.4 574.6,115 580.2,117.8 580,118.2 "/>
<text transform="matrix(1.11 0 0 1 564.4805 116.7402)" class="st0 st2">O</text>
<polygon points="563.7,115.9 552.7,121.7 553.2,120.9 553.7,120.1 563.2,115.1 563.5,115.5 "/>
<polygon points="537.1,113.3 537.6,112.4 538.1,112.6 538.5,112.9 538,113.8 537.5,113.5 "/>
<polygon points="539.4,114.8 540.3,113.4 540.7,113.7 541.2,113.9 540.3,115.2 539.9,115 "/>
<polygon points="541.8,116.3 542.9,114.5 543.3,114.7 543.8,114.9 542.7,116.7 542.2,116.5 "/>
<polygon points="544.1,117.8 545.5,115.5 546,115.8 546.4,116 545,118.2 544.6,118 "/>
<polygon points="546.5,119.3 548.1,116.6 548.6,116.8 549,117.1 547.3,119.7 546.9,119.5 "/>
<polygon points="548.8,120.8 550.8,117.6 551.2,117.9 551.7,118.1 549.7,121.2 549.2,121 "/>
<polygon points="551.1,122.2 553.4,118.7 553.8,118.9 554.3,119.1 552,122.7 551.6,122.5 "/>
<polygon points="537.5,113.2 521.2,119.9 520.7,119.6 520.8,119 536.7,112.5 537.3,112.8 "/>
<polygon points="520.1,119.7 508.2,108 508.4,107.5 509,107.4 520.8,119 520.7,119.6 "/>
<polygon points="508,107 516.9,92.9 517.4,93.2 517.6,93.7 509,107.4 508.4,107.5 "/>
<polygon points="517.5,92.7 529.9,95 529.8,95.5 529.7,95.9 517.6,93.7 517.4,93.2 "/>
<text transform="matrix(1.11 0 0 1 530.8203 100.6299)" class="st0 st2">O</text>
<polygon points="536.4,101.6 537.8,112.8 537.3,112.8 536.7,112.5 535.4,101.7 535.9,101.6 "/>
<polygon points="517.9,92.8 516.8,93.3 516.5,92.9 516.3,92.5 517.4,92 517.7,92.4 "/>
<polygon points="517.1,90.5 515.3,91.2 515,90.8 514.8,90.4 516.7,89.6 516.9,90.1 "/>
<polygon points="516.4,88.1 513.8,89.2 513.6,88.8 513.3,88.3 515.9,87.3 516.2,87.7 "/>
<polygon points="515.6,85.8 512.3,87.1 512.1,86.7 511.9,86.3 515.2,84.9 515.4,85.3 "/>
<polygon points="514.9,83.4 510.8,85.1 510.6,84.6 510.4,84.2 514.5,82.5 514.7,83 "/>
<text transform="matrix(1.11 0 0 1 505.71 82.3701)" class="st0 st2">N</text>
<polygon points="512.6,72.8 518.2,64 518.8,63.9 519.5,63.9 513.5,73.3 513.1,73.1 "/>
<polygon points="514.6,64.6 509,59 509.4,58.7 509.7,58.4 515.4,64 515,64.3 "/>
<polygon points="518.2,64 511.3,57.2 511.6,56.9 512,56.5 519.5,63.9 518.8,63.9 "/>
<text transform="matrix(1.11 0 0 1 502.4004 55.9502)" class="st0 st2">N</text>
<polygon points="501.6,54.3 490.4,58.9 489.9,58.6 489.9,58.1 501.1,53.5 501.4,53.9 "/>
<polygon points="489.4,58.9 473.2,52.6 473.1,52 473.6,51.7 489.9,58.1 489.9,58.6 "/>
<polygon points="489.6,56 475.8,50.5 476,50.1 476.2,49.7 490.1,55.1 489.9,55.5 "/>
<polygon points="473.2,52.6 463.9,58.7 463.6,58.4 463.3,58 472.6,51.8 473.1,52 "/>
<text transform="matrix(1.11 0 0 1 454.3604 65.9199)" class="st0 st2">N</text>
<polygon points="462.7,66.6 463.9,76.1 463.4,76.2 462.9,76.2 461.7,66.7 462.2,66.6 "/>
<polygon points="459.6,66.9 461,77.8 460.5,78.1 460,78.4 458.6,67 459.1,66.9 "/>
<polygon points="461,77.8 472.3,82.2 472.1,82.7 471.9,83.1 460,78.4 460.5,78.1 "/>
<text transform="matrix(1.11 0 0 1 473.1299 88.8198)" class="st0 st2">N</text>
<polygon points="480.2,78.7 488.3,73.3 488.6,73.6 489,74 480.8,79.4 480.5,79 "/>
<polygon points="482.1,80.9 491.4,74.7 491.9,74.9 492,75.4 482.7,81.6 482.4,81.3 "/>
<polygon points="492.4,74.5 504.8,76.8 504.7,77.3 504.6,77.7 492,75.4 491.9,74.9 "/>
<polygon points="491.4,74.7 489.4,58.9 489.9,58.6 490.4,58.9 492.4,74.5 491.9,74.9 "/>
<polygon points="472.6,51.8 471.2,40.9 471.8,40.9 472.3,40.8 473.6,51.7 473.1,52 "/>
<text transform="matrix(1.11 0 0 1 455 38.52)" class="st0 st2">H</text>
<text transform="matrix(1.11 0 0 1 463.21 40.1001)" class="st0 st3">2</text>
<text transform="matrix(1.11 0 0 1 467.1104 38.52)" class="st0 st2">N</text>
<polygon points="508.2,108 495.9,110.8 495.7,108.8 495.4,106.7 508,107 508.4,107.5 "/>
<text transform="matrix(1.11 0 0 1 477.5703 113.4502)" class="st0 st2">H</text>
<text transform="matrix(1.11 0 0 1 485.7803 113.4502)" class="st0 st2">O</text>
<polygon points="521.2,119.9 520.4,131 518.2,130.5 515.9,130.1 520.1,119.7 520.7,119.6 "/>
<text transform="matrix(1.11 0 0 1 504.3604 139.8398)" class="st0 st2">H</text>
<text transform="matrix(1.11 0 0 1 512.5801 139.8398)" class="st0 st2">O</text>
<polygon points="663.2,111.7 661.3,100.7 663.7,100.7 666,100.7 664.3,111.7 663.8,112 "/>
<text transform="matrix(1.11 0 0 1 659.2002 99.6899)" class="st0 st2">O</text>
<text transform="matrix(1.11 0 0 1 668.0498 99.6899)" class="st0 st2">H</text>
<polygon points="679,120.2 680.2,120.2 680.2,120.7 680.2,121.1 679,121.1 679,120.7 "/>
<polygon points="678.6,122.8 680.7,122.8 680.7,123.2 680.7,123.7 678.7,123.7 678.6,123.2 "/>
<polygon points="678.2,125.3 681.1,125.3 681.1,125.8 681.1,126.2 678.3,126.2 678.2,125.8 "/>
<polygon points="677.9,127.9 681.5,127.9 681.5,128.3 681.5,128.8 677.9,128.8 677.9,128.3 "/>
<polygon points="677.5,130.4 682,130.4 682,130.9 682,131.3 677.5,131.4 677.5,130.9 "/>
<text transform="matrix(1.11 0 0 1 675.3496 140.6602)" class="st0 st2">O</text>
<text transform="matrix(1.11 0 0 1 684.1904 140.6602)" class="st0 st2">H</text>
<polygon points="694.8,111.5 693,100.5 695.3,100.5 697.6,100.5 695.9,111.5 695.4,111.8 "/>
<text transform="matrix(1.11 0 0 1 690.8203 99.48)" class="st0 st2">O</text>
<text transform="matrix(1.11 0 0 1 699.6699 99.48)" class="st0 st2">H</text>
<polygon points="232.3,251.4 248.8,253.2 248.8,253.6 248.7,254.1 232.8,252.4 232.6,251.9 "/>
<polygon points="234.1,254.4 248.5,256 248.4,256.4 248.3,256.9 233.9,255.4 234,254.9 "/>
<text transform="matrix(1.1 0 0 1 249.79 258.3604)" class="st0 st4">N</text>
<polygon points="256.9,259.2 262.8,271.6 262.4,272 261.8,272 255.9,259.6 256.4,259.4 "/>
<polygon points="262.6,272.5 250.1,287.8 249.6,287.7 249.4,287.2 261.8,272 262.4,272 "/>
<polygon points="259.3,272 248.6,285 248.2,284.7 247.8,284.4 258.4,271.4 258.9,271.7 "/>
<polygon points="249.1,288.1 228.6,285.9 228.2,285.4 228.6,285 249.4,287.2 249.6,287.7 "/>
<polygon points="227.7,285.4 221.8,272.9 222.2,272.7 222.7,272.5 228.6,285 228.2,285.4 "/>
<polygon points="229.9,283 224.6,271.8 225.1,271.6 225.5,271.4 230.9,282.6 230.4,282.8 "/>
<text transform="matrix(1.1 0 0 1 215.6299 271.71)" class="st0 st4">N</text>
<polygon points="223.6,262 232.3,251.4 232.6,251.9 232.8,252.4 224.4,262.6 224,262.3 "/>
<polygon points="228.6,285.9 222.4,298.1 221.9,297.9 221.5,297.7 227.7,285.4 228.2,285.4 "/>
<text transform="matrix(1.1 0 0 1 215.1797 307.2695)" class="st0 st4">N</text>
<polygon points="224.8,307 235.2,315.7 235.1,316.3 235,316.9 224.1,307.7 224.4,307.4 "/>
<polygon points="235.3,312.4 246.9,306.5 247.1,306.9 247.4,307.3 235.8,313.2 235.5,312.8 "/>
<polygon points="235.2,315.7 248.4,309 248.7,309.4 248.9,309.8 235,316.9 235.1,316.3 "/>
<text transform="matrix(1.1 0 0 1 249.7002 310.9297)" class="st0 st4">N</text>
<polygon points="252.1,301.6 249.1,288.1 249.6,287.7 250.1,287.8 253.2,301.5 252.7,301.5 "/>
<polygon points="198.4,306.4 213.7,302 214.1,304 214.6,306.1 198.6,307.4 198.2,306.9 "/>
<polygon points="198.6,307.4 189.7,324.8 189.3,324.6 188.9,324.1 197.6,307 198.2,306.9 "/>
<polygon points="189.2,325.1 167.9,322.8 167.9,322.4 168.4,321.9 188.9,324.1 189.3,324.6 "/>
<polygon points="167.4,322.4 163.2,303.6 163.7,303.3 164.3,303.5 168.4,321.9 167.9,322.4 "/>
<polygon points="163.7,302.7 176.7,296.1 177,296.5 177.2,296.9 164.3,303.5 163.7,303.3 "/>
<text transform="matrix(1.1 0 0 1 178 297.9102)" class="st0 st4">O</text>
<polygon points="188.2,298 198.4,306.4 198.2,306.9 197.6,307 187.5,298.6 187.9,298.3 "/>
<polygon points="163.2,303.6 142.5,296.8 144.2,295.1 145.8,293.5 163.7,302.7 163.7,303.3 "/>
<polygon points="142.5,296.8 132.4,303.3 132.1,302.9 131.8,302.5 145.8,293.5 144.2,295.1 "/>
<text transform="matrix(1.1 0 0 1 122.2202 310.5801)" class="st0 st4">O</text>
<polygon points="121,304.5 111.8,300.7 112,300.3 112.2,299.9 121.4,303.7 121.2,304.1 "/>
<text transform="matrix(1.1 0 0 1 103.3398 302.46)" class="st0 st4">P</text>
<polygon points="107.9,292.3 111.6,285 112.1,285.2 112.5,285.4 108.8,292.7 108.4,292.5 "/>
<polygon points="110.7,293.5 114.4,286.2 114.9,286.4 115.3,286.6 111.7,293.9 111.2,293.7 "/>
<text transform="matrix(1.1 0 0 1 111.6699 284.7695)" class="st0 st4">O</text>
<polygon points="105,303.7 101.3,311 100.8,310.8 100.3,310.6 104,303.3 104.5,303.5 "/>
<text transform="matrix(1.1 0 0 1 85.5098 320.1504)" class="st0 st4">H</text>
<text transform="matrix(1.1 0 0 1 93.7402 320.1504)" class="st0 st4">O</text>
<polygon points="102.1,296.7 92.9,292.9 93.1,292.4 93.3,292 102.5,295.8 102.3,296.3 "/>
<text transform="matrix(1.1 0 0 1 83.1802 294.3301)" class="st0 st4">O</text>
<polygon points="86.6,285 85.6,276 86.2,276 86.7,275.9 87.6,284.9 87.1,285 "/>
<text transform="matrix(1.1 0 0 1 81.8101 274.96)" class="st0 st4">P</text>
<polygon points="81,273 69.9,274 69.8,273.5 69.8,273.1 80.9,272.1 80.9,272.6 "/>
<polygon points="80.7,270.2 69.6,271.2 69.6,270.7 69.5,270.3 80.6,269.3 80.6,269.8 "/>
<text transform="matrix(1.1 0 0 1 59.7998 276.7695)" class="st0 st4">O</text>
<polygon points="90.4,269.9 101.5,269 101.5,269.4 101.6,269.9 90.5,270.8 90.4,270.4 "/>
<text transform="matrix(1.1 0 0 1 102.5698 273.1504)" class="st0 st4">O</text>
<text transform="matrix(1.1 0 0 1 111.4302 273.1504)" class="st0 st4">H</text>
<polygon points="84.6,265.6 83.6,256.6 84.2,256.6 84.7,256.6 85.6,265.5 85.1,265.6 "/>
<text transform="matrix(1.1 0 0 1 79.1899 255.5801)" class="st0 st4">O</text>
<polygon points="77.9,249.6 68.7,245.7 68.9,245.3 69.1,244.9 78.4,248.7 78.2,249.1 "/>
<text transform="matrix(1.1 0 0 1 60.29 247.4502)" class="st0 st4">P</text>
<polygon points="64.8,237.3 68.5,230 69,230.2 69.5,230.4 65.8,237.7 65.3,237.5 "/>
<polygon points="67.7,238.5 71.4,231.2 71.8,231.4 72.3,231.6 68.6,238.9 68.1,238.6 "/>
<text transform="matrix(1.1 0 0 1 68.6299 229.7695)" class="st0 st4">O</text>
<polygon points="61.9,248.7 58.2,255.9 57.8,255.8 57.3,255.6 61,248.3 61.5,248.5 "/>
<text transform="matrix(1.1 0 0 1 42.4702 265.1396)" class="st0 st4">H</text>
<text transform="matrix(1.1 0 0 1 50.7002 265.1396)" class="st0 st4">O</text>
<polygon points="59,241.7 49.8,237.9 50,237.4 50.2,237 59.5,240.8 59.3,241.3 "/>
<text transform="matrix(1.1 0 0 1 31.9102 239.3301)" class="st0 st4">H</text>
<text transform="matrix(1.1 0 0 1 40.1401 239.3301)" class="st0 st4">O</text>
<polygon points="167.4,322 168.3,322.8 167.9,323.1 167.6,323.5 166.7,322.7 167.1,322.4 "/>
<polygon points="165,323.9 166.5,325.1 166.1,325.5 165.8,325.8 164.3,324.6 164.6,324.2 "/>
<polygon points="162.6,325.7 164.7,327.5 164.3,327.8 163.9,328.2 161.9,326.4 162.2,326.1 "/>
<polygon points="160.1,327.5 162.8,329.8 162.5,330.1 162.1,330.5 159.4,328.2 159.8,327.9 "/>
<polygon points="157.7,329.4 161,332.1 160.7,332.5 160.3,332.8 157,330.1 157.4,329.7 "/>
<text transform="matrix(1.1 0 0 1 140.71 340.8398)" class="st0 st4">H</text>
<text transform="matrix(1.1 0 0 1 148.9399 340.8398)" class="st0 st4">O</text>
<polygon points="188.8,325 189.8,324.4 190.1,324.8 190.3,325.2 189.3,325.8 189.1,325.4 "/>
<polygon points="189.9,327.3 191.5,326.5 191.7,326.9 192,327.3 190.4,328.1 190.1,327.7 "/>
<polygon points="190.9,329.6 193.1,328.5 193.4,328.9 193.6,329.3 191.4,330.4 191.2,330 "/>
<polygon points="192,331.9 194.8,330.5 195,330.9 195.2,331.3 192.5,332.7 192.2,332.3 "/>
<polygon points="193,334.2 196.4,332.5 196.6,332.9 196.9,333.3 193.5,335 193.3,334.6 "/>
<polygon points="194.1,336.6 198,334.5 198.3,335 198.5,335.4 194.6,337.4 194.3,337 "/>
<text transform="matrix(1.1 0 0 1 195.3599 345.75)" class="st0 st4">O</text>
<text transform="matrix(1.1 0 0 1 204.2197 345.75)" class="st0 st4">H</text>
<polygon points="262.8,271.6 278.7,273.3 278.6,273.8 278.5,274.2 262.6,272.5 262.4,272 "/>
<text transform="matrix(1.1 0 0 1 279.6396 277.1602)" class="st0 st4">N</text>
<text transform="matrix(1.1 0 0 1 287.8701 277.1602)" class="st0 st4">H</text>
<text transform="matrix(1.1 0 0 1 296.0898 278.75)" class="st0 st5">2</text>
<polygon points="639.5,307.9 651.3,299.8 651.5,300.2 651.8,300.6 640.1,308.8 639.8,308.3 "/>
<polygon points="639.7,311.5 653,302.2 653.3,302.7 653.6,303.1 639.7,312.7 639.7,312.1 "/>
<text transform="matrix(1.01 0 0 1 654.3301 303.6504)" class="st0 st6">N</text>
<polygon points="656.2,293.7 651.3,278 651.7,277.5 652.3,277.6 657.1,293.4 656.7,293.5 "/>
<polygon points="651.3,278 629.3,277.6 629,277.1 629.2,276.6 651.5,277 651.7,277.5 "/>
<polygon points="650,275 630.8,274.6 630.8,274.1 630.8,273.6 650,274 650,274.5 "/>
<polygon points="629.3,277.6 624,293 623.5,292.9 623,292.7 628.4,277.2 629,277.1 "/>
<text transform="matrix(1.01 0 0 1 617.4697 303)" class="st0 st6">N</text>
<polygon points="599.8,304.5 615.8,297.9 616.5,300 617.1,302.2 600.1,305.5 599.7,305.1 "/>
<polygon points="600.1,305.5 592.8,326.6 592.3,326.4 592,325.9 599.1,305.3 599.7,305.1 "/>
<polygon points="592.3,327 569.5,326.5 569.5,326 569.9,325.5 592,325.9 592.3,326.4 "/>
<polygon points="569,326.2 562.5,304.9 562.9,304.4 563.5,304.6 569.9,325.5 569.5,326 "/>
<polygon points="562.8,303.9 575.8,294.8 576.1,295.2 576.4,295.6 563.5,304.6 562.9,304.4 "/>
<text transform="matrix(1.01 0 0 1 577.1602 296.0098)" class="st0 st6">O</text>
<polygon points="587.2,295.1 599.8,304.5 599.7,305.1 599.1,305.3 586.6,295.9 586.9,295.5 "/>
<polygon points="562.5,304.9 539.8,299 541.3,297.1 542.7,295.2 562.8,303.9 562.9,304.4 "/>
<polygon points="539.8,299 529.8,307.6 529.5,307.3 529.2,306.9 542.7,295.2 541.3,297.1 "/>
<text transform="matrix(1.01 0 0 1 519.75 316.4199)" class="st0 st6">O</text>
<polygon points="518.6,310.5 507.2,306.6 507.3,306.2 507.5,305.7 518.9,309.6 518.7,310.1 "/>
<text transform="matrix(1.01 0 0 1 498.8301 309.0498)" class="st0 st6">P</text>
<polygon points="502.6,298.3 506.1,288.1 506.6,288.3 507.1,288.5 503.6,298.6 503.1,298.4 "/>
<polygon points="505.5,299.2 509,289.1 509.5,289.3 510,289.5 506.5,299.6 506,299.4 "/>
<text transform="matrix(1.01 0 0 1 505.6299 287.7002)" class="st0 st6">O</text>
<polygon points="501.1,310.3 497.6,320.4 497.1,320.3 496.6,320.1 500.1,310 500.6,310.2 "/>
<text transform="matrix(1.01 0 0 1 490.7803 330.4102)" class="st0 st6">O</text>
<line class="st7" x1="499" y1="321.7" x2="503.3" y2="321.7"/>
<polygon points="497.6,303.4 486.3,299.5 486.4,299 486.6,298.5 498,302.4 497.8,302.9 "/>
<text transform="matrix(1.01 0 0 1 476.6602 301.7002)" class="st0 st6">O</text>
<polygon points="479.4,291.7 477.3,280.7 477.8,280.6 478.3,280.5 480.4,291.5 479.9,291.6 "/>
<text transform="matrix(1.01 0 0 1 472.9404 279.5303)" class="st0 st6">P</text>
<polygon points="472.3,277.9 460.1,280.3 460,279.8 459.9,279.3 472.1,276.9 472.2,277.4 "/>
<polygon points="471.7,274.9 459.5,277.3 459.4,276.8 459.3,276.3 471.5,274 471.6,274.4 "/>
<text transform="matrix(1.01 0 0 1 449.9502 283.8301)" class="st0 st6">O</text>
<polygon points="481.4,273.6 493.6,271.2 493.7,271.8 493.8,272.2 481.5,274.6 481.5,274.1 "/>
<text transform="matrix(1.01 0 0 1 494.6797 275.2197)" class="st0 st6">O</text>
<polygon points="475.1,269.5 473,258.6 473.5,258.5 474,258.4 476.1,269.3 475.6,269.4 "/>
<text transform="matrix(1.01 0 0 1 467.9697 257.3496)" class="st0 st6">O</text>
<polygon points="466.8,251.5 455.4,247.6 455.6,247.1 455.7,246.6 467.1,250.5 467,251 "/>
<text transform="matrix(1.01 0 0 1 447.0498 250)" class="st0 st6">P</text>
<polygon points="450.8,239.2 454.3,229.1 454.8,229.3 455.3,229.4 451.8,239.5 451.3,239.4 "/>
<polygon points="453.7,240.2 457.2,230.1 457.7,230.2 458.2,230.4 454.7,240.5 454.2,240.4 "/>
<text transform="matrix(1.01 0 0 1 453.8496 228.6396)" class="st0 st6">O</text>
<polygon points="449.3,251.3 445.8,261.4 445.3,261.2 444.9,261.1 448.4,250.9 448.9,251.1 "/>
<text transform="matrix(1.01 0 0 1 439 271.3496)" class="st0 st6">O</text>
<line class="st7" x1="447.3" y1="260.9" x2="451.5" y2="260.9"/>
<polygon points="445.9,244.3 434.5,240.4 434.6,240 434.8,239.5 446.2,243.4 446,243.9 "/>
<text transform="matrix(1.01 0 0 1 424.8896 242.6396)" class="st0 st6">O</text>
<line class="st7" x1="433.1" y1="232.2" x2="437.4" y2="232.2"/>
<polygon points="569,325.8 569.9,326.5 569.6,326.9 569.3,327.3 568.4,326.6 568.7,326.2 "/>
<polygon points="567,327.9 568.4,329 568.1,329.4 567.8,329.8 566.4,328.7 566.7,328.3 "/>
<polygon points="565,330 567,331.5 566.6,331.9 566.3,332.3 564.3,330.8 564.7,330.4 "/>
<polygon points="562.9,332.1 565.5,334 565.2,334.4 564.8,334.8 562.3,332.9 562.6,332.5 "/>
<polygon points="560.9,334.2 564,336.5 563.7,336.9 563.3,337.3 560.3,335 560.6,334.6 "/>
<polygon points="558.9,336.3 562.5,339 562.2,339.4 561.9,339.8 558.3,337.1 558.6,336.7 "/>
<text transform="matrix(1.01 0 0 1 543.3096 348.5898)" class="st0 st6">H</text>
<text transform="matrix(1.01 0 0 1 551.4297 348.5898)" class="st0 st6">O</text>
<polygon points="591.9,326.9 592.8,326.2 593.1,326.6 593.4,327 592.5,327.7 592.2,327.3 "/>
<polygon points="593.3,329.4 594.8,328.4 595.1,328.8 595.4,329.2 593.9,330.3 593.6,329.9 "/>
<polygon points="594.7,332 596.8,330.6 597,331 597.3,331.4 595.3,332.9 595,332.4 "/>
<polygon points="596.2,334.6 598.7,332.8 599,333.2 599.3,333.6 596.7,335.4 596.4,335 "/>
<polygon points="597.6,337.2 600.7,335 601,335.4 601.3,335.9 598.2,338 597.9,337.6 "/>
<polygon points="599,339.8 602.7,337.2 603,337.6 603.2,338.1 599.6,340.6 599.3,340.2 "/>
<text transform="matrix(1.01 0 0 1 601 349.46)" class="st0 st6">O</text>
<text transform="matrix(1.01 0 0 1 609.7402 349.46)" class="st0 st6">H</text>
<polygon points="626.9,301.9 639.7,311.5 639.7,312.1 639.7,312.7 626.3,302.7 626.6,302.3 "/>
<polygon points="628.4,277.2 620.6,263.2 621,263 621.5,262.8 629.2,276.6 629,277.1 "/>
<text transform="matrix(1.01 0 0 1 613.8398 261.8896)" class="st0 st6">N</text>
<polygon points="620.9,251.5 629,238 629.6,238 629.9,238.5 621.8,252 621.3,251.8 "/>
<polygon points="623.5,253.1 630.9,240.8 631.3,241.1 631.8,241.4 624.4,253.6 623.9,253.3 "/>
<polygon points="630,237.5 647.4,237.8 647.3,238.3 647.3,238.8 629.9,238.5 629.6,238 "/>
<text transform="matrix(1.01 0 0 1 648.3701 233.7197)" class="st0 st6">H</text>
<text transform="matrix(1.01 0 0 1 648.3701 243.8896)" class="st0 st6">N</text>
<polygon points="656,243.8 664.1,258.2 663.5,258.2 662.9,258.2 655.1,244.3 655.6,244 "/>
<polygon points="662.6,256.1 680.9,256.5 680.9,257 680.9,257.5 662.6,257.1 662.6,256.6 "/>
<polygon points="662.6,259.2 680.8,259.5 680.8,260 680.8,260.5 662.5,260.2 662.6,259.7 "/>
<text transform="matrix(1.01 0 0 1 681.8799 263.0898)" class="st0 st6">O</text>
<polygon points="664.1,258.2 652.3,277.6 651.7,277.5 651.5,277 662.9,258.2 663.5,258.2 "/>
<polygon points="629,238 621.3,224.1 621.7,223.9 622.2,223.6 630,237.5 629.6,238 "/>
<text transform="matrix(1.01 0 0 1 602.6699 221.3398)" class="st0 st6">H</text>
<text transform="matrix(1.01 0 0 1 610.79 223.0596)" class="st0 st8">2</text>
<text transform="matrix(1.01 0 0 1 614.6396 221.3398)" class="st0 st6">N</text>
<line class="st7" x1="502.1" y1="265.6" x2="506.3" y2="265.6"/>
<text transform="matrix(1 0 0 1 59.34 194.19)" class="st9"><tspan x="0" y="0" class="st0 st10">FMN</tspan><tspan x="43.3" y="0" class="st11 st10">：</tspan><tspan x="63.3" y="0" class="st0 st10">0.5uM</tspan></text>
<g>
	<text transform="matrix(1 0 0 1 570.12 191.33)" class="st0 st10 st12">F</text>
	<text transform="matrix(1 0 0 1 581.23 191.33)" class="st9"><tspan x="0" y="0" class="st0 st10">AD</tspan><tspan x="27.8" y="0" class="st11 st10">：</tspan><tspan x="47.8" y="0" class="st0 st10">0.7uM</tspan></text>
</g>
<g>
	<text transform="matrix(1 0 0 1 94.17 383.34)" class="st0 st10 st13">A</text>
	<text transform="matrix(1 0 0 1 106.03 383.34)" class="st9"><tspan x="0" y="0" class="st0 st10">TP</tspan><tspan x="25.6" y="0" class="st11 st10">：</tspan><tspan x="45.6" y="0" class="st0 st10">163uM</tspan></text>
</g>
<text transform="matrix(1 0 0 1 496.62 383.34)" class="st0 st10">GTP&gt;5*10^4uM</text>
<polygon points="321.6,11.8 321.5,34.2 321.1,34.5 320.6,34.2 320.7,11.8 321.1,11.8 "/>
<polygon points="321.5,34.2 341.2,45.5 340.7,45.8 340.3,46.1 321.1,35 321.1,34.5 "/>
<polygon points="321.3,37.2 338.2,47 338,47.4 337.8,47.8 320.9,38 321.1,37.6 "/>
<polygon points="341.2,45.5 341.1,68.2 340.7,68.5 340.2,68.2 340.3,46.1 340.7,45.8 "/>
<polygon points="340.7,69 321.5,80.1 321,79.8 321,79.3 340.2,68.2 340.7,68.5 "/>
<polygon points="338.2,67.3 321.3,77.1 321.1,76.7 320.8,76.3 337.8,66.5 338,66.9 "/>
<polygon points="320.6,80.1 301,68.7 301.4,68.4 301.9,68.2 321,79.3 321,79.8 "/>
<polygon points="301,68.7 301,46 301.4,45.8 301.9,46 301.9,68.2 301.4,68.4 "/>
<polygon points="303.7,66.9 303.7,47.3 304.2,47.3 304.6,47.3 304.6,66.9 304.1,66.9 "/>
<polygon points="301,46 281.6,34.8 281.8,34.4 282,34 301.5,45.2 301.4,45.8 "/>
<polygon points="301.5,45.2 320.6,34.2 321.1,34.5 321.1,35 301.9,46 301.4,45.8 "/>
<polygon points="321.5,80.1 321.5,97.4 321,97.4 320.6,97.4 320.6,80.1 321,79.8 "/>
<g>
	<text transform="matrix(1 0 0 1 317.42 106.53)" class="st0 st14">N</text>
</g>
<polygon points="327.1,102.3 340.9,110.3 340.7,110.7 340.4,111.1 326.7,103.1 326.9,102.7 "/>
<polygon points="325.8,104.7 340.7,113.3 340.7,113.8 340.2,114.1 325.3,105.5 325.5,105.1 "/>
<polygon points="340.7,113.3 359.9,102.2 360.3,102.5 360.3,103 341.1,114.1 340.7,113.8 "/>
<polygon points="357.1,100.9 357.1,84.9 357.6,84.9 358.1,84.9 358,100.9 357.6,100.9 "/>
<polygon points="359.9,102.2 359.9,84.9 360.3,84.9 360.8,84.9 360.8,102.2 360.3,102.5 "/>
<g>
	<text transform="matrix(1 0 0 1 356.72 83.89)" class="st0 st14">N</text>
</g>
<polygon points="355.6,77.6 340.7,69 340.7,68.5 341.1,68.2 356,76.8 355.8,77.2 "/>
<polygon points="360.8,102.2 380.4,113.6 379.9,113.9 379.5,114.1 360.3,103 360.3,102.5 "/>
<polygon points="378.4,112.7 393.9,103.7 394.1,104.1 394.3,104.5 378.8,113.5 378.6,113.1 "/>
<polygon points="379.7,115.1 395.2,106.1 395.5,106.5 395.7,106.9 380.2,115.8 379.9,115.4 "/>
<g>
	<text transform="matrix(1 0 0 1 395.69 106.6)" class="st0 st14">O</text>
</g>
<polygon points="380.4,113.6 380.4,131.5 379.9,131.5 379.5,131.5 379.5,114.1 379.9,113.9 "/>
<g>
	<text transform="matrix(1 0 0 1 376.3 140.59)" class="st0 st14">N</text>
	<text transform="matrix(1 0 0 1 383.52 140.59)" class="st0 st14">H</text>
</g>
<polygon points="375.6,139.5 360.3,148.4 360.3,147.9 360.3,147.3 375.2,138.8 375.4,139.1 "/>
<polygon points="362.1,147.1 362.1,165.5 361.6,165.5 361.2,165.5 361.2,147.1 361.6,147.1 "/>
<polygon points="359.4,147.1 359.3,165.5 358.9,165.5 358.4,165.5 358.5,147.1 358.9,147.1 "/>
<g>
	<text transform="matrix(1 0 0 1 356.36 174.59)" class="st0 st14">O</text>
</g>
<polygon points="360.3,148.4 344.9,139.5 345.2,139.1 345.4,138.7 360.3,147.3 360.3,147.9 "/>
<g>
	<text transform="matrix(1 0 0 1 329.81 140.56)" class="st0 st14">H</text>
	<text transform="matrix(1 0 0 1 337.03 140.56)" class="st0 st14">N</text>
</g>
<polygon points="340.2,131.5 340.2,114.1 340.7,113.8 341.1,114.1 341.1,131.5 340.6,131.5 "/>
<text transform="matrix(1 0 0 1 229.92 193.43)" class="st9"><tspan x="0" y="0" class="st0 st10">7,8-dimethylalloxazine</tspan><tspan x="197.9" y="0" class="st11 st10">：</tspan><tspan x="217.9" y="0" class="st0 st10">0.3uM</tspan></text>
</svg>
