<svg id="图层_1" data-name="图层 1" xmlns="http://www.w3.org/2000/svg" viewBox="0 0 800 400"><defs><style>.cls-1,.cls-2,.cls-3,.cls-4{isolation:isolate;}.cls-2{font-size:12.79px;}.cls-2,.cls-3,.cls-5{font-family:ArialMT, Arial;}.cls-3,.cls-4,.cls-5{font-size:20px;}.cls-4,.cls-6{font-family:AdobeSongStd-Light-GBpc-EUC-H, Adobe Song Std;}</style></defs><title>HBC_SELEX_ligand</title><g class="cls-1"><text class="cls-2" transform="translate(544.45 58.97)">H</text><text class="cls-2" transform="translate(553.68 58.97)">O</text></g><polygon points="701.34 12.72 714.95 20.49 714.93 21.15 714.36 21.49 701.34 14.06 701.34 13.39 701.34 12.72"/><polygon points="714.95 20.49 726.36 14.57 726.63 15.09 726.9 15.6 715.51 21.51 714.93 21.15 714.95 20.49"/><g class="cls-1"><text class="cls-2" transform="translate(727.79 17.27)">C</text><text class="cls-2" transform="translate(737.03 17.27)">N</text></g><polygon points="715.51 21.51 715.51 36.36 714.93 36.04 714.36 35.72 714.36 21.49 714.93 21.15 715.51 21.51"/><polygon points="712.03 23.17 712.03 34.1 711.46 34.1 710.88 34.1 710.88 23.17 711.46 23.17 712.03 23.17"/><polygon points="701.33 43.78 714.36 35.72 714.93 36.04 715.51 36.36 701.36 45.13 701.34 44.45 701.33 43.78"/><polygon points="691.52 34.16 701.56 39.9 701.27 40.4 700.99 40.91 690.95 35.17 691.23 34.67 691.52 34.16"/><polygon points="688.33 36.35 701.33 43.78 701.34 44.45 701.36 45.13 687.74 37.35 687.75 36.69 688.33 36.35"/><polygon points="687.17 36.34 687.17 20.82 687.75 21.15 688.33 21.49 688.33 36.35 687.75 36.69 687.17 36.34"/><polygon points="687.17 20.82 701.34 12.72 701.34 13.39 701.34 14.06 688.33 21.49 687.75 21.15 687.17 20.82"/><polygon points="690.95 22.67 701.06 16.89 701.34 17.4 701.63 17.9 691.52 23.68 691.23 23.17 690.95 22.67"/><polygon points="674.17 43.15 687.17 36.34 687.75 36.69 687.74 37.35 674.86 44.1 674.16 43.81 674.17 43.15"/><polygon points="674.86 44.1 677.28 52.07 676.73 52.24 676.17 52.41 673.68 44.2 674.16 43.81 674.86 44.1"/><g class="cls-1"><text class="cls-2" transform="translate(674.08 63.87)">C</text><text class="cls-2" transform="translate(683.31 63.87)">N</text></g><polygon points="661.23 36.03 674.17 43.15 674.16 43.81 673.68 44.2 661.21 37.34 661.22 36.69 661.23 36.03"/><polygon points="661.42 40.11 671.52 45.66 671.25 46.17 670.97 46.68 660.86 41.12 661.14 40.62 661.42 40.11"/><polygon points="647.03 43.13 661.23 36.03 661.22 36.69 661.21 37.34 647.56 44.16 646.98 43.81 647.03 43.13"/><polygon points="646.4 59.61 646.4 44.11 646.98 43.81 647.56 44.16 647.56 60.36 646.98 59.98 646.4 59.61"/><polygon points="647.56 60.36 640.05 63.74 639.81 63.21 639.58 62.68 646.4 59.61 646.98 59.98 647.56 60.36"/><polygon points="643.74 58.26 638.62 60.56 638.39 60.04 638.15 59.51 643.26 57.21 643.5 57.73 643.74 58.26"/><g class="cls-1"><text class="cls-2" transform="translate(629.42 70.99)">N</text></g><polygon points="621.03 58.97 628.51 62.53 628.26 63.06 628.01 63.58 620.45 59.98 620.45 59.34 621.03 58.97"/><polygon points="620.45 59.98 612.88 63.58 612.63 63.06 612.38 62.53 619.87 58.97 620.45 59.34 620.45 59.98"/><g class="cls-1"><text class="cls-2" transform="translate(602.24 70.99)">N</text></g><polygon points="593.24 59.34 601.31 62.8 601.08 63.33 600.85 63.87 593.29 60.63 593.26 59.98 593.24 59.34"/><polygon points="606.92 83.31 606.51 72.28 607.09 72.26 607.67 72.24 608.08 83.26 607.5 83.28 606.92 83.31"/><polygon points="619.87 58.97 619.87 44.15 620.45 44.45 621.03 44.75 621.03 58.97 620.45 59.34 619.87 58.97"/><polygon points="623.35 57.14 623.35 46.24 623.93 46.24 624.51 46.24 624.51 57.14 623.93 57.14 623.35 57.14"/><polygon points="579.7 66.44 593.24 59.34 593.26 59.98 593.29 60.63 579.65 67.77 579.67 67.1 579.7 66.44"/><g class="cls-1"><text class="cls-2" transform="translate(629.42 39.92)">N</text></g><polygon points="643.17 46.09 637.49 42.12 637.82 41.64 638.15 41.16 643.83 45.14 643.5 45.62 643.17 46.09"/><polygon points="646.4 44.11 639.48 39.26 639.81 38.79 640.15 38.31 647.03 43.13 646.98 43.81 646.4 44.11"/><polygon points="579.65 67.77 564.48 58.17 564.79 57.68 565.1 57.19 579.7 66.44 579.67 67.1 579.65 67.77"/><polygon points="619.87 44.15 627.92 38.4 628.26 38.87 628.6 39.34 621.03 44.75 620.45 44.45 619.87 44.15"/><polygon points="467.65 17.19 482.83 26.29 482.8 26.95 482.23 27.29 467.62 18.52 467.64 17.85 467.65 17.19"/><polygon points="482.83 26.29 497.24 19.35 497.49 19.88 497.74 20.4 483.39 27.31 482.8 26.95 482.83 26.29"/><g class="cls-1"><text class="cls-2" transform="translate(498.65 22.27)">C</text><text class="cls-2" transform="translate(507.89 22.27)">N</text></g><polygon points="483.39 27.31 484.15 45.47 483.56 45.14 482.96 44.82 482.23 27.29 482.8 26.95 483.39 27.31"/><polygon points="479.98 28.95 480.57 43.15 479.99 43.17 479.41 43.2 478.82 28.99 479.4 28.97 479.98 28.95"/><polygon points="467.64 53.57 482.96 44.82 483.56 45.14 484.15 45.47 467.64 54.91 467.64 54.24 467.64 53.57"/><polygon points="455.48 42.62 467.92 49.73 467.64 50.23 467.35 50.74 454.91 43.63 455.19 43.13 455.48 42.62"/><polygon points="452.3 44.81 467.64 53.57 467.64 54.24 467.64 54.91 451.71 45.81 451.71 45.14 452.3 44.81"/><polygon points="452.3 26.54 452.3 44.81 451.71 45.14 451.13 44.81 451.13 25.84 451.71 26.19 452.3 26.54"/><polygon points="451.13 25.84 467.65 17.19 467.64 17.85 467.62 18.52 452.3 26.54 451.71 26.19 451.13 25.84"/><polygon points="454.93 27.78 467.25 21.33 467.52 21.84 467.79 22.36 455.46 28.81 455.19 28.3 454.93 27.78"/><polygon points="435.79 53.57 451.13 44.81 451.71 45.14 451.71 45.81 436.48 54.52 435.79 54.24 435.79 53.57"/><polygon points="436.48 54.52 439.69 65.06 439.14 65.23 438.58 65.4 435.31 54.63 435.79 54.24 436.48 54.52"/><g class="cls-1"><text class="cls-2" transform="translate(436.48 76.86)">C</text><text class="cls-2" transform="translate(445.72 76.86)">N</text></g><polygon points="419.88 44.48 435.79 53.57 435.79 54.24 435.31 54.63 419.87 45.81 419.87 45.14 419.88 44.48"/><polygon points="420.12 48.63 433.15 56.08 432.87 56.58 432.58 57.08 419.55 49.63 419.83 49.13 420.12 48.63"/><polygon points="403.25 53.55 419.88 44.48 419.87 45.14 419.87 45.81 403.79 54.58 403.19 54.24 403.25 53.55"/><polygon points="403.79 54.58 404.55 72.81 403.95 72.44 403.36 72.07 402.63 54.53 403.19 54.24 403.79 54.58"/><polygon points="404.55 72.81 394.81 77.19 394.57 76.66 394.33 76.13 403.36 72.07 403.95 72.44 404.55 72.81"/><polygon points="400.62 70.76 393.38 74.02 393.14 73.49 392.9 72.96 400.14 69.7 400.38 70.23 400.62 70.76"/><g class="cls-1"><text class="cls-2" transform="translate(384.17 84.44)">N</text></g><polygon points="373.43 72.05 383.24 76.25 383.01 76.78 382.78 77.32 372.88 73.07 372.87 72.44 373.43 72.05"/><polygon points="372.88 73.07 362.97 77.79 362.73 77.27 362.48 76.74 372.27 72.08 372.87 72.44 372.88 73.07"/><g class="cls-1"><text class="cls-2" transform="translate(352.33 85.2)">N</text></g><polygon points="341 71.78 351.42 76.74 351.17 77.27 350.92 77.79 341.05 73.09 341.03 72.44 341 71.78"/><polygon points="325.15 80.84 341 71.78 341.03 72.44 341.05 73.09 325.06 82.23 325.11 81.53 325.15 80.84"/><polygon points="325.06 82.23 315.37 74.96 315.72 74.5 316.07 74.03 325.15 80.84 325.11 81.53 325.06 82.23"/><g class="cls-1"><text class="cls-2" transform="translate(305.33 75.34)">N</text></g><polygon points="356.37 99.73 356.37 86.47 356.95 86.47 357.53 86.47 357.53 99.73 356.95 99.73 356.37 99.73"/><polygon points="376.25 56.01 376.83 70.08 376.25 70.1 375.68 70.13 375.09 56.05 375.67 56.03 376.25 56.01"/><polygon points="372.7 54.54 373.43 72.05 372.87 72.44 372.27 72.08 371.52 53.95 372.11 54.24 372.7 54.54"/><polygon points="371.52 53.95 382.69 46.33 383.01 46.81 383.34 47.29 372.7 54.54 372.11 54.24 371.52 53.95"/><g class="cls-1"><text class="cls-2" transform="translate(384.17 48.05)">N</text></g><polygon points="399.42 56.44 392.05 50.62 392.41 50.16 392.77 49.71 400.14 55.53 399.78 55.98 399.42 56.44"/><polygon points="402.63 54.53 394.21 47.89 394.57 47.43 394.93 46.98 403.25 53.55 403.19 54.24 402.63 54.53"/><polygon points="304.39 73.16 293.31 77.9 293.08 77.36 292.85 76.83 303.94 72.1 304.17 72.63 304.39 73.16"/><polygon points="310.14 63.64 311.55 51.89 312.13 51.96 312.7 52.03 311.29 63.78 310.72 63.71 310.14 63.64"/><polygon points="200.02 159 214 167.66 213.97 168.32 213.38 168.64 199.97 160.34 200 159.67 200.02 159"/><polygon points="214 167.66 227.23 161.27 227.48 161.79 227.73 162.32 214.54 168.68 213.97 168.32 214 167.66"/><g class="cls-1"><text class="cls-2" transform="translate(228.64 164.19)">C</text><text class="cls-2" transform="translate(237.87 164.19)">N</text></g><polygon points="209.91 182.96 209.91 170.26 210.49 170.26 211.06 170.26 211.06 182.96 210.49 182.96 209.91 182.96"/><polygon points="213.38 184.62 213.38 168.64 213.97 168.32 214.54 168.68 214.54 185.28 213.97 184.95 213.38 184.62"/><polygon points="199.33 192.92 213.38 184.62 213.97 184.95 214.54 185.28 199.33 194.27 199.33 193.6 199.33 192.92"/><polygon points="188.47 182.46 199.63 189.06 199.33 189.56 199.03 190.05 187.88 183.46 188.18 182.96 188.47 182.46"/><polygon points="185.28 184.62 199.33 192.92 199.33 193.6 199.33 194.27 184.7 185.62 184.7 184.95 185.28 184.62"/><polygon points="184.12 184.62 184.12 167.3 184.7 167.65 185.28 168 185.28 184.62 184.7 184.95 184.12 184.62"/><polygon points="184.12 167.3 200.02 159 200 159.67 199.97 160.34 185.28 168 184.7 167.65 184.12 167.3"/><polygon points="187.91 169.25 199.58 163.16 199.85 163.67 200.12 164.19 188.44 170.28 188.18 169.76 187.91 169.25"/><polygon points="170.07 192.92 184.12 184.62 184.7 184.95 184.7 185.62 170.74 193.87 170.06 193.6 170.07 192.92"/><polygon points="170.74 193.87 173.39 202.95 172.84 203.11 172.28 203.27 169.57 193.97 170.06 193.6 170.74 193.87"/><g class="cls-1"><text class="cls-2" transform="translate(170.1 214.74)">C</text><text class="cls-2" transform="translate(179.34 214.74)">N</text></g><polygon points="156.1 184.28 170.07 192.92 170.06 193.6 169.57 193.97 156.08 185.62 156.09 184.95 156.1 184.28"/><polygon points="156.32 188.5 167.4 195.36 167.09 195.85 166.79 196.35 155.71 189.49 156.01 188.99 156.32 188.5"/><polygon points="140.81 192.92 156.1 184.28 156.09 184.95 156.08 185.62 141.37 193.94 140.79 193.6 140.81 192.92"/><polygon points="140.21 209.86 140.21 193.92 140.79 193.6 141.37 193.94 141.37 210.59 140.79 210.23 140.21 209.86"/><polygon points="141.37 210.59 132.85 214.65 132.6 214.13 132.35 213.6 140.21 209.86 140.79 210.23 141.37 210.59"/><polygon points="137.56 208.55 131.35 211.51 131.1 210.99 130.85 210.46 137.06 207.5 137.31 208.03 137.56 208.55"/><g class="cls-1"><text class="cls-2" transform="translate(122.21 222.06)">N</text></g><polygon points="112.77 209.85 121.29 213.72 121.05 214.25 120.81 214.78 112.19 210.86 112.19 210.23 112.77 209.85"/><polygon points="112.19 210.86 103.57 214.78 103.33 214.25 103.09 213.72 111.61 209.85 112.19 210.23 112.19 210.86"/><g class="cls-1"><text class="cls-2" transform="translate(92.94 222.06)">N</text></g><polygon points="82.9 210.25 92 213.98 91.78 214.51 91.56 215.05 82.94 211.53 82.92 210.89 82.9 210.25"/><polygon points="68.28 217.56 82.9 210.25 82.92 210.89 82.94 211.53 68.29 218.85 68.28 218.21 68.28 217.56"/><polygon points="68.29 218.85 54.88 212.38 55.13 211.86 55.38 211.34 68.28 217.56 68.28 218.21 68.29 218.85"/><g class="cls-1"><text class="cls-2" transform="translate(34.79 214.08)">H</text><text class="cls-2" transform="translate(44.02 214.08)">O</text></g><polygon points="96.97 234.84 96.97 223.33 97.55 223.33 98.13 223.33 98.13 234.84 97.55 234.84 96.97 234.84"/><polygon points="111.61 209.85 111.61 192.59 112.19 192.93 112.77 193.28 112.77 209.85 112.19 210.23 111.61 209.85"/><polygon points="115.09 207.99 115.09 195 115.67 195 116.25 195 116.25 207.99 115.67 207.99 115.09 207.99"/><polygon points="111.61 192.59 126.84 184.28 126.82 184.95 126.81 185.62 112.77 193.28 112.19 192.93 111.61 192.59"/><polygon points="126.84 184.28 140.81 192.92 140.79 193.6 140.21 193.92 126.81 185.62 126.82 184.95 126.84 184.28"/><polygon points="127.02 188.48 137.62 195.04 137.31 195.53 137.01 196.03 126.41 189.47 126.71 188.97 127.02 188.48"/><polygon points="450.53 140.65 465.93 149.2 465.9 149.85 465.32 150.19 450.53 141.97 450.53 141.31 450.53 140.65"/><polygon points="465.93 149.2 480.37 142.58 480.61 143.11 480.86 143.63 466.48 150.22 465.9 149.85 465.93 149.2"/><g class="cls-1"><text class="cls-2" transform="translate(481.77 145.64)">C</text><text class="cls-2" transform="translate(491.01 145.64)">N</text></g><polygon points="466.48 150.22 466.48 167.25 465.9 166.92 465.32 166.6 465.32 150.19 465.9 149.85 466.48 150.22"/><polygon points="463 151.9 463 164.97 462.42 164.97 461.84 164.97 461.84 151.9 462.42 151.9 463 151.9"/><polygon points="450.52 175.64 465.32 166.6 465.9 166.92 466.48 167.25 450.55 176.99 450.53 176.31 450.52 175.64"/><polygon points="435.75 150.19 435.75 167.44 435.17 167.78 434.59 167.44 434.59 149.51 435.17 149.85 435.75 150.19"/><polygon points="434.59 149.51 450.53 140.65 450.53 141.31 450.53 141.97 435.75 150.19 435.17 149.85 434.59 149.51"/><polygon points="438.37 151.39 450.25 144.79 450.53 145.29 450.82 145.8 438.93 152.4 438.65 151.9 438.37 151.39"/><polygon points="419.81 175.65 434.59 167.44 435.17 167.78 435.17 168.44 420.49 176.59 419.8 176.31 419.81 175.65"/><polygon points="420.49 176.59 423.54 186.77 422.99 186.94 422.43 187.1 419.31 176.7 419.8 176.31 420.49 176.59"/><g class="cls-1"><text class="cls-2" transform="translate(420.31 198.57)">C</text><text class="cls-2" transform="translate(429.54 198.57)">N</text></g><polygon points="405.3 167.11 419.81 175.65 419.8 176.31 419.31 176.7 405.28 168.45 405.29 167.78 405.3 167.11"/><polygon points="405.53 171.29 417.15 178.12 416.86 178.62 416.56 179.12 404.94 172.29 405.24 171.79 405.53 171.29"/><polygon points="389.92 175.65 405.3 167.11 405.29 167.78 405.28 168.45 390.5 176.66 389.92 176.31 389.92 175.65"/><polygon points="389.34 193.89 389.34 176.66 389.92 176.31 390.5 176.66 390.5 194.59 389.92 194.24 389.34 193.89"/><polygon points="373.52 198.28 386.17 191.63 386.44 192.14 386.71 192.66 374.06 199.31 373.79 198.8 373.52 198.28"/><polygon points="373.71 202.12 389.34 193.89 389.92 194.24 390.5 194.59 373.68 203.44 373.7 202.78 373.71 202.12"/><polygon points="359.75 193.9 373.71 202.12 373.7 202.78 373.68 203.44 359.15 194.89 359.19 194.24 359.75 193.9"/><polygon points="359.15 194.89 349.83 199.03 349.6 198.5 349.36 197.97 358.59 193.87 359.19 194.24 359.15 194.89"/><g class="cls-1"><text class="cls-2" transform="translate(339.2 206.25)">N</text></g><polygon points="328.42 193.59 338.28 197.97 338.04 198.5 337.81 199.03 328.48 194.89 328.45 194.24 328.42 193.59"/><polygon points="313.12 202.1 328.42 193.59 328.45 194.24 328.48 194.89 313.05 203.46 313.09 202.78 313.12 202.1"/><polygon points="313.05 203.46 304.01 197.09 304.35 196.61 304.68 196.14 313.12 202.1 313.09 202.78 313.05 203.46"/><g class="cls-1"><text class="cls-2" transform="translate(293.96 197.72)">N</text></g><polygon points="282.88 202.3 292.47 195.9 292.8 196.39 293.12 196.87 283.53 203.26 283.21 202.78 282.88 202.3"/><polygon points="362.49 178.34 363.15 192.17 362.57 192.2 361.99 192.22 361.33 178.39 361.91 178.36 362.49 178.34"/><polygon points="358.93 176.66 359.75 193.9 359.19 194.24 358.59 193.87 357.74 175.97 358.33 176.31 358.93 176.66"/><polygon points="357.74 175.97 374.56 167.12 374.55 167.78 374.55 168.44 358.93 176.66 358.33 176.31 357.74 175.97"/><polygon points="374.56 167.12 389.92 175.65 389.92 176.31 389.34 176.66 374.55 168.44 374.55 167.78 374.56 167.12"/><polygon points="374.79 171.23 386.72 177.85 386.44 178.36 386.16 178.87 374.23 172.24 374.51 171.73 374.79 171.23"/><polygon points="438.93 165.22 450.73 171.78 450.45 172.29 450.17 172.79 438.37 166.24 438.65 165.73 438.93 165.22"/><polygon points="435.75 167.44 450.52 175.64 450.53 176.31 450.55 176.99 435.17 168.44 435.17 167.78 435.75 167.44"/><polygon points="344.4 207.52 344.4 218.65 343.82 218.65 343.24 218.65 343.24 207.52 343.82 207.52 344.4 207.52"/><polygon points="298.08 186.08 298.22 174.95 298.8 174.96 299.38 174.97 299.24 186.09 298.66 186.09 298.08 186.08"/><polygon points="713.48 137.95 722.51 122.89 722.84 123.47 723.17 124.05 714.51 138.49 713.84 138.49 713.48 137.95"/><polygon points="722.51 122.89 741.2 122.89 740.86 123.47 740.52 124.05 723.17 124.05 722.84 123.47 722.51 122.89"/><polygon points="724.81 126.37 738.8 126.37 738.8 126.95 738.8 127.53 724.81 127.53 724.81 126.95 724.81 126.37"/><polygon points="741.2 122.89 749.78 138.49 749.12 138.49 748.46 138.49 740.52 124.05 740.86 123.47 741.2 122.89"/><polygon points="738.29 149.74 744.64 138.21 745.14 138.49 745.65 138.77 739.31 150.3 738.8 150.02 738.29 149.74"/><polygon points="740.52 152.92 748.46 138.49 749.12 138.49 749.78 138.49 741.2 154.08 740.86 153.5 740.52 152.92"/><polygon points="723.17 152.92 740.52 152.92 740.86 153.5 741.2 154.08 723.08 154.08 722.84 153.5 723.17 152.92"/><polygon points="723.08 154.08 717.38 159.79 716.97 159.38 716.56 158.97 722.11 153.41 722.84 153.5 723.08 154.08"/><g class="cls-1"><text class="cls-2" transform="translate(705.86 170.69)">O</text></g><polygon points="695.68 159.12 704.9 162.63 704.7 163.17 704.49 163.72 695.12 160.15 695.07 159.51 695.68 159.12"/><polygon points="679.3 167.85 694.51 159.15 695.07 159.51 695.12 160.15 679.98 168.8 679.3 168.51 679.3 167.85"/><polygon points="679.98 168.8 682.69 179.18 682.13 179.33 681.56 179.47 678.8 168.9 679.3 168.51 679.98 168.8"/><g class="cls-1"><text class="cls-2" transform="translate(679.19 190.96)">C</text><text class="cls-2" transform="translate(688.43 190.96)">N</text></g><polygon points="663.53 158.83 679.3 167.85 679.3 168.51 678.8 168.9 663.55 160.18 663.54 159.51 663.53 158.83"/><polygon points="663.87 163.03 676.59 170.31 676.31 170.81 676.02 171.31 663.29 164.04 663.58 163.54 663.87 163.03"/><polygon points="648.51 167.85 663.53 158.83 663.54 159.51 663.55 160.18 649.11 168.84 648.52 168.51 648.51 167.85"/><polygon points="649.11 168.84 649.11 186.88 648.52 186.53 647.95 186.18 647.95 168.87 648.52 168.51 649.11 168.84"/><polygon points="632.53 190.32 644.77 183.91 645.04 184.42 645.31 184.94 633.07 191.35 632.8 190.84 632.53 190.32"/><polygon points="632.77 194.13 647.95 186.18 648.52 186.53 649.11 186.88 632.75 195.45 632.76 194.79 632.77 194.13"/><polygon points="618.31 186.18 632.77 194.13 632.76 194.79 632.75 195.45 617.73 187.18 617.75 186.53 618.31 186.18"/><polygon points="617.73 187.18 608.01 191.81 607.76 191.29 607.51 190.76 617.15 186.17 617.75 186.53 617.73 187.18"/><g class="cls-1"><text class="cls-2" transform="translate(597.37 199.22)">N</text></g><polygon points="586.95 185.87 596.47 190.63 596.21 191.15 595.95 191.67 586.99 187.19 586.97 186.53 586.95 185.87"/><polygon points="571.2 194.88 586.95 185.87 586.97 186.53 586.99 187.19 571.21 196.2 571.21 195.54 571.2 194.88"/><polygon points="571.21 196.2 557.55 188.84 557.82 188.33 558.1 187.82 571.2 194.88 571.21 195.54 571.21 196.2"/><g class="cls-1"><text class="cls-2" transform="translate(537.48 190.21)">H</text><text class="cls-2" transform="translate(546.71 190.21)">O</text></g><polygon points="621.14 170.55 621.72 184.4 621.14 184.43 620.56 184.45 619.99 170.6 620.57 170.57 621.14 170.55"/><polygon points="617.59 168.86 618.31 186.18 617.75 186.53 617.15 186.17 616.4 168.17 617 168.51 617.59 168.86"/><polygon points="616.4 168.17 632.76 159.6 632.76 160.26 632.76 160.91 617.59 168.86 617 168.51 616.4 168.17"/><polygon points="632.76 159.6 648.51 167.85 648.52 168.51 647.95 168.87 632.76 160.91 632.76 160.26 632.76 159.6"/><polygon points="633.03 163.67 645.31 170.11 645.04 170.62 644.77 171.13 632.49 164.7 632.76 164.19 633.03 163.67"/><polygon points="694.51 159.15 695.48 147.14 696.05 147.19 696.63 147.24 695.68 159.12 695.07 159.51 694.51 159.15"/><polygon points="698.17 157.14 698.94 147.42 699.52 147.47 700.1 147.51 699.32 157.23 698.75 157.18 698.17 157.14"/><g class="cls-1"><text class="cls-2" transform="translate(691.95 145.92)">N</text></g><polygon points="713.53 139.11 702.42 140.56 702.35 139.99 702.27 139.41 713.48 137.95 713.84 138.49 713.53 139.11"/><polygon points="602.5 200.49 602.4 211.55 601.82 211.54 601.24 211.54 601.34 200.48 601.92 200.49 602.5 200.49"/><polygon points="714.51 138.49 723.17 152.92 722.84 153.5 722.11 153.41 713.53 139.11 713.84 138.49 714.51 138.49"/><polygon points="712.52 141.93 718.96 152.66 718.46 152.96 717.96 153.26 711.53 142.53 712.02 142.23 712.52 141.93"/><polygon points="604.48 265.38 620.32 274.18 620.31 274.84 619.73 275.18 604.48 266.7 604.48 266.04 604.48 265.38"/><polygon points="620.32 274.18 635.38 266.65 635.64 267.17 635.9 267.69 620.89 275.2 620.31 274.84 620.32 274.18"/><g class="cls-1"><text class="cls-2" transform="translate(636.8 269.46)">C</text><text class="cls-2" transform="translate(646.03 269.46)">N</text></g><polygon points="616.25 290.42 616.25 276.88 616.83 276.88 617.41 276.88 617.41 290.42 616.83 290.42 616.25 290.42"/><polygon points="619.73 292.09 619.73 275.18 620.31 274.84 620.89 275.2 620.89 292.76 620.31 292.43 619.73 292.09"/><polygon points="603.59 301.44 619.73 292.09 620.31 292.43 620.89 292.76 603.6 302.77 603.6 302.1 603.59 301.44"/><polygon points="591.63 290.81 603.84 297.59 603.56 298.1 603.28 298.61 591.06 291.82 591.34 291.31 591.63 290.81"/><polygon points="588.36 292.98 603.59 301.44 603.6 302.1 603.6 302.77 587.76 293.97 587.76 293.31 588.36 292.98"/><polygon points="587.2 292.96 588.08 274.49 588.64 274.84 589.21 275.19 588.36 292.98 587.76 293.31 587.2 292.96"/><polygon points="588.08 274.49 604.48 265.38 604.48 266.04 604.48 266.7 589.21 275.19 588.64 274.84 588.08 274.49"/><polygon points="591.75 276.43 604.19 269.52 604.48 270.02 604.76 270.53 592.31 277.44 592.03 276.94 591.75 276.43"/><polygon points="571.93 301.44 587.2 292.96 587.76 293.31 587.76 293.97 572.62 302.38 571.93 302.1 571.93 301.44"/><polygon points="572.62 302.38 575.83 313.07 575.28 313.24 574.72 313.41 571.45 302.49 571.93 302.1 572.62 302.38"/><g class="cls-1"><text class="cls-2" transform="translate(572.59 324.87)">C</text><text class="cls-2" transform="translate(581.83 324.87)">N</text></g><polygon points="556.11 292.65 571.93 301.44 571.93 302.1 571.45 302.49 556.1 293.97 556.1 293.31 556.11 292.65"/><polygon points="556.34 296.76 569.29 303.95 569.01 304.46 568.73 304.96 555.78 297.77 556.06 297.26 556.34 296.76"/><polygon points="539.39 301.45 556.11 292.65 556.1 293.31 556.1 293.97 539.94 302.47 539.39 302.1 539.39 301.45"/><polygon points="519.47 323.44 537.1 320.08 537.63 320.57 538.17 321.06 519.55 324.61 519.16 324.09 519.47 323.44"/><polygon points="511.07 308.32 519.47 323.44 519.16 324.09 518.5 324.1 510.04 308.86 510.37 308.26 511.07 308.32"/><polygon points="510.08 307.69 516.92 299.39 517.37 299.76 517.82 300.13 511.07 308.32 510.37 308.26 510.08 307.69"/><g class="cls-1"><text class="cls-2" transform="translate(518.42 298.49)">S</text></g><polygon points="538.78 302.43 527.84 296.68 528.11 296.16 528.38 295.65 539.39 301.45 539.39 302.1 538.78 302.43"/><polygon points="491.56 308.57 510.08 307.69 510.37 308.26 510.04 308.86 492.23 309.7 491.9 309.14 491.56 308.57"/><polygon points="493.88 311.95 508.35 311.26 508.38 311.84 508.4 312.42 493.93 313.11 493.91 312.53 493.88 311.95"/><polygon points="481.92 324.36 491.56 308.57 491.9 309.14 492.23 309.7 482.89 324.98 482.22 324.97 481.92 324.36"/><polygon points="481.86 325.52 469.48 324.34 469.53 323.76 469.59 323.18 481.92 324.36 482.22 324.97 481.86 325.52"/><g class="cls-1"><text class="cls-2" transform="translate(459.14 328.39)">N</text></g><polygon points="454.6 340.22 460.01 329.4 460.53 329.66 461.05 329.92 455.32 341.38 454.96 340.8 454.6 340.22"/><polygon points="435.9 340.22 454.6 340.22 454.96 340.8 455.32 341.38 435.32 341.38 435.61 340.8 435.9 340.22"/><polygon points="427.72 329.31 435.9 340.22 435.61 340.8 435.32 341.38 426.79 330.01 427.25 329.66 427.72 329.31"/><g class="cls-1"><text class="cls-2" transform="translate(408.21 328.39)">H</text><text class="cls-2" transform="translate(417.44 328.39)">O</text></g><polygon points="486.76 324.77 493.57 337.04 493.07 337.32 492.56 337.6 485.74 325.33 486.25 325.05 486.76 324.77"/><polygon points="482.89 324.98 491.36 340.22 491.02 340.8 490.68 341.38 481.86 325.52 482.22 324.97 482.89 324.98"/><polygon points="491.36 340.22 510.02 340.22 510.37 340.8 510.72 341.38 490.68 341.38 491.02 340.8 491.36 340.22"/><polygon points="507.75 337.05 514.69 323.86 515.21 324.13 515.72 324.4 508.78 337.59 508.27 337.32 507.75 337.05"/><polygon points="510.02 340.22 518.5 324.1 519.16 324.09 519.55 324.61 510.72 341.38 510.37 340.8 510.02 340.22"/><polygon points="459.67 317.04 454.46 307.65 454.97 307.37 455.48 307.09 460.68 316.48 460.18 316.76 459.67 317.04"/><polygon points="533.84 317.59 535.13 304.04 535.71 304.1 536.28 304.15 534.99 317.7 534.42 317.64 533.84 317.59"/><polygon points="537.1 320.08 538.78 302.43 539.39 302.1 539.94 302.47 538.17 321.06 537.63 320.57 537.1 320.08"/><polygon points="284.13 264.07 300.4 273.02 300.39 273.68 299.81 274.02 284.13 265.39 284.13 264.73 284.13 264.07"/><polygon points="284.13 300.66 299.81 292.04 300.39 292.38 300.97 292.73 284.12 302 284.13 301.33 284.13 300.66"/><polygon points="272.36 289.83 284.46 296.83 284.17 297.33 283.88 297.84 271.78 290.83 272.07 290.33 272.36 289.83"/><polygon points="269.24 292.04 284.13 300.66 284.13 301.33 284.12 302 268.67 293.05 268.67 292.38 269.24 292.04"/><polygon points="268.45 274.01 269.24 292.04 268.67 292.38 268.08 292.05 267.26 273.34 267.86 273.68 268.45 274.01"/><polygon points="267.26 273.34 284.13 264.07 284.13 264.73 284.13 265.39 268.45 274.01 267.86 273.68 267.26 273.34"/><polygon points="271.15 275.18 283.85 268.19 284.13 268.7 284.4 269.21 271.71 276.19 271.43 275.69 271.15 275.18"/><polygon points="252.41 300.67 268.08 292.05 268.67 292.38 268.67 293.05 253.1 301.61 252.41 301.33 252.41 300.67"/><polygon points="253.1 301.61 256.6 312.6 256.05 312.77 255.49 312.95 251.92 301.73 252.41 301.33 253.1 301.61"/><g class="cls-1"><text class="cls-2" transform="translate(253.48 324.4)">C</text><text class="cls-2" transform="translate(262.72 324.4)">N</text></g><polygon points="236.13 291.72 252.41 300.67 252.41 301.33 251.92 301.73 236.15 293.05 236.14 292.38 236.13 291.72"/><polygon points="236.46 295.87 249.79 303.2 249.51 303.71 249.23 304.22 235.9 296.89 236.18 296.38 236.46 295.87"/><polygon points="220.65 300.68 236.13 291.72 236.14 292.38 236.15 293.05 221.24 301.68 220.69 301.33 220.65 300.68"/><polygon points="203.45 293.31 220.65 300.68 220.69 301.33 220.07 301.7 203.76 294.71 203.61 294.01 203.45 293.31"/><polygon points="191.11 307.29 203.45 293.31 203.61 294.01 203.76 294.71 192.12 307.91 191.41 307.84 191.11 307.29"/><polygon points="191.1 308.46 179.02 310.11 178.94 309.54 178.86 308.96 191.11 307.29 191.41 307.84 191.1 308.46"/><g class="cls-1"><text class="cls-2" transform="translate(169.25 315.46)">S</text></g><polygon points="171.34 329.41 172.4 316.68 172.98 316.73 173.55 316.78 172.5 329.44 171.89 329.8 171.34 329.41"/><polygon points="171.89 330.43 161.63 335.05 161.4 334.52 161.16 333.99 171.34 329.41 171.89 329.8 171.89 330.43"/><g class="cls-1"><text class="cls-2" transform="translate(151 342.3)">N</text></g><polygon points="139.32 329.15 150.08 333.99 149.84 334.52 149.6 335.05 139.39 330.45 139.35 329.8 139.32 329.15"/><polygon points="123.89 338.08 139.32 329.15 139.35 329.8 139.39 330.45 123.92 339.4 123.9 338.74 123.89 338.08"/><polygon points="123.92 339.4 109.43 331.88 109.7 331.36 109.97 330.85 123.89 338.08 123.9 338.74 123.92 339.4"/><g class="cls-1"><text class="cls-2" transform="translate(89.36 333.35)">H</text><text class="cls-2" transform="translate(98.59 333.35)">O</text></g><polygon points="155.04 356.64 155.04 343.57 155.62 343.57 156.2 343.57 156.2 356.64 155.62 356.64 155.04 356.64"/><polygon points="175.8 327.1 187.48 332.36 187.24 332.89 187 333.42 175.32 328.16 175.56 327.63 175.8 327.1"/><polygon points="172.5 329.44 188 336.41 188.15 337.12 188.31 337.82 171.89 330.43 171.89 329.8 172.5 329.44"/><polygon points="188 336.41 199.64 323.22 200.35 323.29 200.67 323.81 188.31 337.82 188.15 337.12 188 336.41"/><polygon points="200.63 322.62 213.49 319.26 213.63 319.82 213.78 320.39 200.67 323.81 200.35 323.29 200.63 322.62"/><g class="cls-1"><text class="cls-2" transform="translate(214.79 323.59)">S</text></g><polygon points="221.24 301.68 220.25 312.01 219.67 311.96 219.1 311.9 220.07 301.7 220.69 301.33 221.24 301.68"/><polygon points="192.12 307.91 200.63 322.62 200.35 323.29 199.64 323.22 191.1 308.46 191.41 307.84 192.12 307.91"/><polygon points="190.07 311.31 196.59 322.57 196.09 322.87 195.58 323.16 189.06 311.89 189.56 311.6 190.07 311.31"/><polygon points="300.4 273.02 315.5 265.47 315.76 265.99 316.02 266.51 300.97 274.04 300.39 273.68 300.4 273.02"/><g class="cls-1"><text class="cls-2" transform="translate(316.92 268.28)">C</text><text class="cls-2" transform="translate(326.16 268.28)">N</text></g><polygon points="296.33 290.33 296.33 275.74 296.91 275.74 297.49 275.74 297.49 290.33 296.91 290.33 296.33 290.33"/><polygon points="299.81 292.04 299.81 274.02 300.39 273.68 300.97 274.04 300.97 292.73 300.39 292.38 299.81 292.04"/><polygon points="207.08 22.93 222.09 30.88 222.1 31.54 221.51 31.88 207.09 24.25 207.09 23.59 207.08 22.93"/><polygon points="222.09 30.88 235.95 23.09 236.24 23.59 236.52 24.1 222.67 31.89 222.1 31.54 222.09 30.88"/><g class="cls-1"><text class="cls-2" transform="translate(247.52 16.41)">N</text></g><polygon points="217.26 47.13 217.94 33.55 218.52 33.58 219.1 33.61 218.42 47.19 217.84 47.16 217.26 47.13"/><polygon points="220.66 48.86 221.51 31.88 222.1 31.54 222.67 31.89 221.78 49.55 221.22 49.2 220.66 48.86"/><polygon points="206.19 57.37 220.66 48.86 221.22 49.2 221.78 49.55 206.22 58.7 206.21 58.04 206.19 57.37"/><polygon points="194.94 47.48 206.39 53.54 206.12 54.05 205.84 54.56 194.4 48.51 194.67 47.99 194.94 47.48"/><polygon points="191.77 49.74 206.19 57.37 206.21 58.04 206.22 58.7 191.22 50.76 191.19 50.09 191.77 49.74"/><polygon points="190.61 49.77 190.61 32.08 191.19 32.42 191.77 32.77 191.77 49.74 191.19 50.09 190.61 49.77"/><polygon points="190.61 32.08 207.08 22.93 207.09 23.59 207.09 24.25 191.77 32.77 191.19 32.42 190.61 32.08"/><polygon points="194.39 33.97 206.85 27.04 207.13 27.55 207.41 28.06 194.95 34.98 194.67 34.47 194.39 33.97"/><polygon points="176.15 59.13 190.61 49.77 191.19 50.09 191.22 50.76 176.76 60.12 176.18 59.8 176.15 59.13"/><polygon points="176.76 60.12 176.76 76.58 176.18 76.58 175.6 76.58 175.6 60.15 176.18 59.8 176.76 60.12"/><g class="cls-1"><text class="cls-2" transform="translate(172.44 102.08)">N</text></g><polygon points="161.17 51.2 176.15 59.13 176.18 59.8 175.6 60.15 161.16 52.51 161.16 51.85 161.17 51.2"/><polygon points="161.39 55.26 172.97 61.39 172.7 61.9 172.43 62.41 160.84 56.28 161.12 55.77 161.39 55.26"/><polygon points="145.26 59.16 161.17 51.2 161.16 51.85 161.16 52.51 145.86 60.15 145.26 59.8 145.26 59.16"/><polygon points="145.86 60.15 146.74 77.78 146.15 77.47 145.55 77.15 144.7 60.17 145.26 59.8 145.86 60.15"/><polygon points="129.91 82.63 142.27 75.08 142.57 75.58 142.87 76.07 130.52 83.62 130.22 83.13 129.91 82.63"/><polygon points="130.24 86.51 145.55 77.15 146.15 77.47 146.74 77.78 130.25 87.86 130.25 87.18 130.24 86.51"/><polygon points="115.8 78.01 130.24 86.51 130.25 87.18 130.25 87.86 115.22 79.02 115.23 78.35 115.8 78.01"/><polygon points="115.22 79.02 106.27 83.75 106 83.24 105.73 82.73 114.64 78.01 115.23 78.35 115.22 79.02"/><g class="cls-1"><text class="cls-2" transform="translate(95.6 91.48)">N</text></g><polygon points="84.28 78.58 94.68 83.2 94.44 83.73 94.21 84.26 84.36 79.89 84.32 79.23 84.28 78.58"/><polygon points="69.28 87.41 84.28 78.58 84.32 79.23 84.36 79.89 69.34 88.72 69.31 88.07 69.28 87.41"/><polygon points="69.34 88.72 54.88 81.81 55.13 81.28 55.38 80.76 69.28 87.41 69.31 88.07 69.34 88.72"/><g class="cls-1"><text class="cls-2" transform="translate(34.79 83.53)">H</text><text class="cls-2" transform="translate(44.02 83.53)">O</text></g><polygon points="99.64 105.73 99.64 92.75 100.22 92.75 100.8 92.75 100.8 105.73 100.22 105.73 99.64 105.73"/><polygon points="118.51 62.59 119.2 76.27 118.62 76.3 118.04 76.33 117.35 62.65 117.93 62.62 118.51 62.59"/><polygon points="114.95 61.01 115.8 78.01 115.23 78.35 114.64 78.01 113.75 60.37 114.35 60.69 114.95 61.01"/><polygon points="113.75 60.37 129.34 51.2 129.37 51.85 129.39 52.52 114.95 61.01 114.35 60.69 113.75 60.37"/><polygon points="129.34 51.2 145.26 59.16 145.26 59.8 144.7 60.17 129.39 52.52 129.37 51.85 129.34 51.2"/><polygon points="129.76 55.29 142.15 61.49 141.89 62.01 141.63 62.53 129.24 56.33 129.5 55.81 129.76 55.29"/><polygon points="180.23 76.41 180.84 90.27 180.26 90.3 179.68 90.32 179.07 76.46 179.65 76.43 180.23 76.41"/><polygon points="176.76 76.56 177.36 90.42 176.78 90.45 176.2 90.47 175.6 76.61 176.18 76.58 176.76 76.56"/><polygon points="173.28 76.71 173.88 90.57 173.3 90.6 172.72 90.62 172.12 76.76 172.7 76.73 173.28 76.71"/><polygon points="233.74 20.39 243.86 12.52 244.22 12.97 244.57 13.43 234.45 21.3 234.1 20.84 233.74 20.39"/><polygon points="235.88 23.13 246 15.26 246.36 15.72 246.71 16.18 236.59 24.05 236.24 23.59 235.88 23.13"/><polygon points="238.02 25.88 248.14 18.01 248.49 18.47 248.85 18.93 238.73 26.8 238.37 26.34 238.02 25.88"/><text class="cls-3" transform="translate(330.37 124.25)">HBC485</text><text class="cls-4" transform="translate(405.97 124.25)">：</text><text class="cls-3" transform="translate(425.97 124.25)">8 nM</text><text class="cls-3" transform="translate(560.28 111.3)">HBC497</text><text class="cls-4" transform="translate(635.88 111.3)">：</text><text class="cls-3" transform="translate(655.88 111.3)">6.7 nM</text><text class="cls-5" transform="translate(66.26 128.94)">HBC530<tspan class="cls-6" x="75.6" y="0">：</tspan><tspan x="95.6" y="0">~3.5 nM</tspan></text><text class="cls-5" transform="translate(54.88 248.94)">HBC508<tspan class="cls-6" x="75.6" y="0">：</tspan><tspan x="95.6" y="0">27 nM</tspan></text><text class="cls-5" transform="translate(306.42 246.94)">HBC514<tspan class="cls-6" x="75.6" y="0">：</tspan><tspan x="95.6" y="0">12 nM</tspan></text><text class="cls-5" transform="translate(555.78 244.94)">HBC525<tspan class="cls-6" x="75.6" y="0">：</tspan><tspan x="95.6" y="0">3.8 nM</tspan></text><text class="cls-5" transform="translate(114.78 383.94)">HBC599<tspan class="cls-6" x="75.6" y="0">：</tspan><tspan x="95.6" y="0">18 nM</tspan></text><text class="cls-5" transform="translate(433.15 383.94)">HBC620<tspan class="cls-6" x="75.6" y="0">：</tspan><tspan x="95.6" y="0">6.1 nM</tspan></text></svg>