<?xml version="1.0" encoding="UTF-8"?>
<svg id="_图层_1" data-name="图层 1" xmlns="http://www.w3.org/2000/svg" viewBox="0 0 800 300">
  <defs>
    <style>
      .cls-1 {
        stroke-width: 0px;
      }

      .cls-1, .cls-2, .cls-3, .cls-4, .cls-5, .cls-6, .cls-7, .cls-8, .cls-9, .cls-10, .cls-11, .cls-12, .cls-13, .cls-14, .cls-15 {
        fill: #000;
      }

      .cls-16, .cls-2, .cls-3, .cls-4, .cls-5, .cls-6, .cls-7, .cls-8, .cls-9, .cls-10, .cls-12, .cls-13, .cls-14, .cls-15 {
        isolation: isolate;
      }

      .cls-2 {
        font-size: 4.17px;
      }

      .cls-2, .cls-6, .cls-7, .cls-8, .cls-9, .cls-10, .cls-13, .cls-15 {
        font-family: ArialMT, Arial;
      }

      .cls-3, .cls-4, .cls-5, .cls-11, .cls-14 {
        font-family: ArialNarrow, Arial;
      }

      .cls-3, .cls-4, .cls-12, .cls-14 {
        font-size: 15px;
      }

      .cls-4 {
        letter-spacing: -.1em;
      }

      .cls-5, .cls-11 {
        font-size: 20px;
      }

      .cls-6 {
        font-size: 4.28px;
      }

      .cls-7 {
        font-size: 7.72px;
      }

      .cls-8 {
        font-size: 6.77px;
      }

      .cls-9 {
        font-size: 6.96px;
      }

      .cls-10 {
        font-size: 4.09px;
      }

      .cls-12 {
        font-family: AdobeSongStd-Light-GBpc-EUC-H, 'Adobe Song Std';
        font-weight: 300;
      }

      .cls-13 {
        font-size: 4.75px;
      }

      .cls-14 {
        letter-spacing: -.06em;
      }

      .cls-15 {
        font-size: 6.64px;
      }
    </style>
  </defs>
  <polygon class="cls-1" points="266.73 154.47 253.15 146.92 253.3 146.65 253.61 146.47 266.72 153.76 266.72 154.11 266.73 154.47"/>
  <polygon class="cls-1" points="252.99 146.65 252.75 131.49 253.06 131.29 253.37 131.47 253.61 146.47 253.3 146.65 252.99 146.65"/>
  <polygon class="cls-1" points="253.07 130.93 266.07 123.14 266.23 123.4 266.24 123.76 253.37 131.47 253.06 131.29 253.07 130.93"/>
  <polygon class="cls-1" points="266.38 123.13 279.63 130.5 279.65 130.87 279.35 131.05 266.24 123.76 266.23 123.4 266.38 123.13"/>
  <polygon class="cls-1" points="279.96 131.06 280.2 146.22 279.9 146.22 279.59 146.05 279.35 131.05 279.65 130.87 279.96 131.06"/>
  <polygon class="cls-1" points="279.77 146.54 280.1 145.95 280.37 146.1 280.64 146.25 280.31 146.84 280.04 146.69 279.77 146.54"/>
  <polygon class="cls-1" points="281.32 147.6 281.82 146.71 282.08 146.86 282.35 147.01 281.86 147.9 281.59 147.75 281.32 147.6"/>
  <polygon class="cls-1" points="282.87 148.65 283.53 147.47 283.8 147.62 284.07 147.77 283.41 148.95 283.14 148.8 282.87 148.65"/>
  <polygon class="cls-1" points="284.42 149.71 285.24 148.23 285.51 148.38 285.78 148.53 284.96 150.01 284.69 149.86 284.42 149.71"/>
  <polygon class="cls-1" points="285.97 150.76 286.96 148.99 287.22 149.14 287.49 149.29 286.5 151.06 286.24 150.91 285.97 150.76"/>
  <polygon class="cls-1" points="287.52 151.82 288.67 149.75 288.94 149.9 289.2 150.04 288.05 152.12 287.79 151.97 287.52 151.82"/>
  <polygon class="cls-1" points="289.06 152.87 290.38 150.51 290.65 150.66 290.92 150.81 289.6 153.17 289.33 153.02 289.06 152.87"/>
  <g class="cls-16">
    <text class="cls-8" transform="translate(290.87 155.56)"><tspan x="0" y="0">N</tspan></text>
    <text class="cls-8" transform="translate(295.76 155.56)"><tspan x="0" y="0">H</tspan></text>
    <text class="cls-2" transform="translate(300.65 156.6)"><tspan x="0" y="0">2</tspan></text>
  </g>
  <polygon class="cls-1" points="280.06 146.49 266.73 154.47 266.72 154.11 266.72 153.76 279.59 146.05 279.9 146.22 280.06 146.49"/>
  <polygon class="cls-1" points="279.63 130.5 288.87 123.74 289.58 124.92 290.29 126.11 279.96 131.06 279.65 130.87 279.63 130.5"/>
  <g class="cls-16">
    <text class="cls-8" transform="translate(290.19 125.72)"><tspan x="0" y="0">O</tspan></text>
  </g>
  <polygon class="cls-1" points="306.37 130.12 306.04 130.72 305.77 130.57 305.5 130.42 305.84 129.82 306.1 129.97 306.37 130.12"/>
  <polygon class="cls-1" points="304.86 129.09 304.36 129.98 304.09 129.83 303.82 129.68 304.32 128.79 304.59 128.94 304.86 129.09"/>
  <polygon class="cls-1" points="303.34 128.05 302.68 129.23 302.41 129.09 302.14 128.94 302.8 127.75 303.07 127.9 303.34 128.05"/>
  <polygon class="cls-1" points="301.82 127.01 301 128.49 300.73 128.34 300.46 128.19 301.29 126.71 301.55 126.86 301.82 127.01"/>
  <polygon class="cls-1" points="300.31 125.97 299.32 127.75 299.05 127.6 298.78 127.45 299.77 125.68 300.04 125.83 300.31 125.97"/>
  <polygon class="cls-1" points="298.79 124.94 297.64 127.01 297.37 126.86 297.1 126.71 298.25 124.64 298.52 124.79 298.79 124.94"/>
  <polygon class="cls-1" points="297.27 123.9 295.95 126.27 295.69 126.12 295.42 125.97 296.73 123.6 297 123.75 297.27 123.9"/>
  <polygon class="cls-1" points="306.09 130.18 319.27 122.29 319.43 122.56 319.43 122.91 306.56 130.62 306.25 130.44 306.09 130.18"/>
  <polygon class="cls-1" points="319.57 122.29 332.82 129.66 332.85 130.02 332.54 130.2 319.43 122.91 319.43 122.56 319.57 122.29"/>
  <polygon class="cls-1" points="333.16 130.21 333.4 145.37 333.09 145.38 332.78 145.2 332.54 130.2 332.85 130.02 333.16 130.21"/>
  <polygon class="cls-1" points="333.25 145.64 320.24 153.43 319.91 153.27 319.91 152.91 332.78 145.2 333.09 145.38 333.25 145.64"/>
  <polygon class="cls-1" points="319.6 153.44 309.59 147.88 309.74 147.61 309.89 147.34 319.91 152.91 319.91 153.27 319.6 153.44"/>
  <g class="cls-16">
    <text class="cls-8" transform="translate(303.86 148.54)"><tspan x="0" y="0">O</tspan></text>
  </g>
  <polygon class="cls-1" points="306.13 142.39 305.94 130.45 306.25 130.44 306.56 130.62 306.75 142.38 306.44 142.38 306.13 142.39"/>
  <polygon class="cls-1" points="320.24 153.43 321.58 169.06 320.16 168.62 318.8 168.22 319.6 153.44 319.91 153.27 320.24 153.43"/>
  <polygon class="cls-1" points="321.58 169.06 330.48 174.01 330.33 174.28 330.18 174.55 318.8 168.22 320.16 168.62 321.58 169.06"/>
  <g class="cls-16">
    <text class="cls-8" transform="translate(330.94 178.83)"><tspan x="0" y="0">O</tspan></text>
    <text class="cls-8" transform="translate(336.21 178.83)"><tspan x="0" y="0">H</tspan></text>
  </g>
  <polygon class="cls-1" points="332.97 145.7 333.3 145.1 333.57 145.25 333.83 145.4 333.5 146 333.24 145.85 332.97 145.7"/>
  <polygon class="cls-1" points="334.48 146.73 334.98 145.84 335.25 145.99 335.51 146.14 335.02 147.03 334.75 146.88 334.48 146.73"/>
  <polygon class="cls-1" points="336 147.77 336.66 146.59 336.93 146.74 337.2 146.88 336.54 148.07 336.27 147.92 336 147.77"/>
  <polygon class="cls-1" points="337.52 148.81 338.34 147.33 338.61 147.48 338.88 147.63 338.06 149.11 337.79 148.96 337.52 148.81"/>
  <polygon class="cls-1" points="339.04 149.84 340.02 148.07 340.29 148.22 340.56 148.37 339.57 150.14 339.3 149.99 339.04 149.84"/>
  <polygon class="cls-1" points="340.55 150.88 341.7 148.81 341.97 148.96 342.24 149.11 341.09 151.18 340.82 151.03 340.55 150.88"/>
  <polygon class="cls-1" points="342.07 151.92 343.38 149.55 343.65 149.7 343.92 149.85 342.61 152.22 342.34 152.07 342.07 151.92"/>
  <g class="cls-16">
    <text class="cls-8" transform="translate(343.88 155.58)"><tspan x="0" y="0">O</tspan></text>
    <text class="cls-8" transform="translate(349.14 155.58)"><tspan x="0" y="0">H</tspan></text>
  </g>
  <polygon class="cls-1" points="332.82 129.66 342.25 122.78 342.96 123.96 343.67 125.15 333.16 130.21 332.85 130.02 332.82 129.66"/>
  <g class="cls-16">
    <text class="cls-8" transform="translate(343.58 124)"><tspan x="0" y="0">N</tspan></text>
    <text class="cls-8" transform="translate(348.47 124)"><tspan x="0" y="0">H</tspan></text>
    <text class="cls-2" transform="translate(353.36 125.04)"><tspan x="0" y="0">2</tspan></text>
  </g>
  <polygon class="cls-1" points="319.76 122.5 319.08 122.51 319.08 122.21 319.07 121.9 319.75 121.89 319.76 122.19 319.76 122.5"/>
  <polygon class="cls-1" points="319.9 120.62 318.89 120.64 318.88 120.33 318.88 120.02 319.89 120.01 319.9 120.31 319.9 120.62"/>
  <polygon class="cls-1" points="320.04 118.74 318.69 118.76 318.68 118.45 318.68 118.14 320.03 118.12 320.04 118.43 320.04 118.74"/>
  <polygon class="cls-1" points="320.18 116.86 318.49 116.88 318.48 116.57 318.48 116.27 320.17 116.24 320.18 116.55 320.18 116.86"/>
  <polygon class="cls-1" points="320.32 114.97 318.29 115 318.28 114.7 318.28 114.39 320.31 114.36 320.31 114.67 320.32 114.97"/>
  <polygon class="cls-1" points="320.46 113.09 318.09 113.13 318.08 112.82 318.08 112.51 320.45 112.47 320.45 112.78 320.46 113.09"/>
  <polygon class="cls-1" points="320.6 111.21 317.89 111.25 317.88 110.94 317.88 110.64 320.59 110.59 320.59 110.9 320.6 111.21"/>
  <g class="cls-16">
    <text class="cls-8" transform="translate(316.55 109.94)"><tspan x="0" y="0">O</tspan></text>
    <text class="cls-8" transform="translate(321.81 109.94)"><tspan x="0" y="0">H</tspan></text>
  </g>
  <polygon class="cls-1" points="266.57 123.35 265.89 123.36 265.89 123.05 265.88 122.75 266.56 122.74 266.57 123.04 266.57 123.35"/>
  <polygon class="cls-1" points="266.71 121.47 265.69 121.48 265.69 121.18 265.68 120.87 266.7 120.85 266.7 121.16 266.71 121.47"/>
  <polygon class="cls-1" points="266.85 119.58 265.49 119.61 265.49 119.3 265.48 118.99 266.84 118.97 266.84 119.28 266.85 119.58"/>
  <polygon class="cls-1" points="266.99 117.7 265.3 117.73 265.29 117.42 265.29 117.11 266.98 117.09 266.98 117.39 266.99 117.7"/>
  <polygon class="cls-1" points="267.13 115.82 265.1 115.85 265.09 115.55 265.09 115.24 267.12 115.21 267.12 115.51 267.13 115.82"/>
  <polygon class="cls-1" points="267.27 113.94 264.9 113.97 264.89 113.67 264.89 113.36 267.26 113.32 267.26 113.63 267.27 113.94"/>
  <polygon class="cls-1" points="267.41 112.05 264.7 112.1 264.69 111.79 264.69 111.48 267.4 111.44 267.4 111.75 267.41 112.05"/>
  <g class="cls-16">
    <text class="cls-8" transform="translate(263.35 110.79)"><tspan x="0" y="0">O</tspan></text>
    <text class="cls-8" transform="translate(268.62 110.79)"><tspan x="0" y="0">H</tspan></text>
  </g>
  <polygon class="cls-1" points="252.75 131.49 242.21 126.84 242.88 125.63 243.56 124.43 253.07 130.93 253.06 131.29 252.75 131.49"/>
  <g class="cls-16">
    <text class="cls-8" transform="translate(237 126.57)"><tspan x="0" y="0">O</tspan></text>
  </g>
  <polygon class="cls-1" points="239.05 108.52 239.73 108.51 239.74 108.82 239.74 109.13 239.06 109.14 239.06 108.83 239.05 108.52"/>
  <polygon class="cls-1" points="238.91 110.41 239.93 110.39 239.94 110.7 239.94 111 238.92 111.02 238.92 110.71 238.91 110.41"/>
  <polygon class="cls-1" points="238.77 112.29 240.13 112.27 240.13 112.57 240.14 112.88 238.78 112.9 238.78 112.6 238.77 112.29"/>
  <polygon class="cls-1" points="238.63 114.17 240.33 114.14 240.33 114.45 240.34 114.76 238.65 114.79 238.64 114.48 238.63 114.17"/>
  <polygon class="cls-1" points="238.5 116.05 240.53 116.02 240.53 116.33 240.54 116.64 238.51 116.67 238.5 116.36 238.5 116.05"/>
  <polygon class="cls-1" points="238.36 117.94 240.73 117.9 240.73 118.21 240.74 118.51 238.37 118.55 238.36 118.24 238.36 117.94"/>
  <polygon class="cls-1" points="238.22 119.82 240.93 119.78 240.93 120.08 240.94 120.39 238.23 120.43 238.22 120.13 238.22 119.82"/>
  <polygon class="cls-1" points="239.24 108.74 225.82 101.27 225.97 101.01 226.28 100.82 239.38 108.12 239.39 108.47 239.24 108.74"/>
  <polygon class="cls-1" points="225.66 101.01 225.42 85.85 225.73 85.65 226.04 85.82 226.28 100.82 225.97 101.01 225.66 101.01"/>
  <polygon class="cls-1" points="225.74 85.29 238.74 77.5 238.9 77.76 238.91 78.11 226.04 85.82 225.73 85.65 225.74 85.29"/>
  <polygon class="cls-1" points="239.05 77.49 252.3 84.86 252.32 85.23 252.02 85.41 238.91 78.11 238.9 77.76 239.05 77.49"/>
  <polygon class="cls-1" points="252.63 85.41 252.82 97.16 252.51 97.17 252.21 97.17 252.02 85.41 252.32 85.23 252.63 85.41"/>
  <g class="cls-16">
    <text class="cls-8" transform="translate(249.93 103.32)"><tspan x="0" y="0">O</tspan></text>
  </g>
  <polygon class="cls-1" points="249.48 102.79 239.55 108.73 239.39 108.47 239.38 108.12 249.16 102.26 249.32 102.53 249.48 102.79"/>
  <polygon class="cls-1" points="252.3 84.86 265.17 75.89 265.5 77.34 265.83 78.72 252.63 85.41 252.32 85.23 252.3 84.86"/>
  <polygon class="cls-1" points="265.17 75.89 265 65.4 265.31 65.4 265.62 65.39 265.83 78.72 265.5 77.34 265.17 75.89"/>
  <g class="cls-16">
    <text class="cls-8" transform="translate(262.81 63.85)"><tspan x="0" y="0">N</tspan></text>
    <text class="cls-8" transform="translate(267.7 63.85)"><tspan x="0" y="0">H</tspan></text>
    <text class="cls-2" transform="translate(272.59 64.89)"><tspan x="0" y="0">2</tspan></text>
  </g>
  <polygon class="cls-1" points="239.24 77.71 238.56 77.72 238.56 77.41 238.55 77.11 239.23 77.09 239.24 77.4 239.24 77.71"/>
  <polygon class="cls-1" points="239.38 75.83 238.36 75.84 238.36 75.53 238.35 75.23 239.37 75.21 239.37 75.52 239.38 75.83"/>
  <polygon class="cls-1" points="239.52 73.94 238.16 73.97 238.16 73.66 238.15 73.35 239.51 73.33 239.51 73.64 239.52 73.94"/>
  <polygon class="cls-1" points="239.66 72.06 237.96 72.09 237.96 71.78 237.95 71.47 239.65 71.45 239.65 71.75 239.66 72.06"/>
  <polygon class="cls-1" points="239.8 70.18 237.76 70.21 237.76 69.9 237.75 69.6 239.79 69.56 239.79 69.87 239.8 70.18"/>
  <polygon class="cls-1" points="239.94 68.3 237.57 68.33 237.56 68.03 237.56 67.72 239.93 67.68 239.93 67.99 239.94 68.3"/>
  <polygon class="cls-1" points="240.07 66.41 237.37 66.45 237.36 66.15 237.36 65.84 240.07 65.8 240.07 66.11 240.07 66.41"/>
  <g class="cls-16">
    <text class="cls-8" transform="translate(236.02 65.15)"><tspan x="0" y="0">O</tspan></text>
    <text class="cls-8" transform="translate(241.29 65.15)"><tspan x="0" y="0">H</tspan></text>
  </g>
  <polygon class="cls-1" points="225.42 85.85 214.88 81.2 215.55 79.99 216.23 78.78 225.74 85.29 225.73 85.65 225.42 85.85"/>
  <g class="cls-16">
    <text class="cls-8" transform="translate(204.78 80.93)"><tspan x="0" y="0">H</tspan></text>
    <text class="cls-8" transform="translate(209.67 80.93)"><tspan x="0" y="0">O</tspan></text>
  </g>
  <polygon class="cls-1" points="225.76 100.74 226.1 101.32 225.84 101.48 225.58 101.64 225.23 101.05 225.49 100.9 225.76 100.74"/>
  <polygon class="cls-1" points="224.08 101.55 224.6 102.42 224.34 102.58 224.07 102.73 223.55 101.86 223.81 101.7 224.08 101.55"/>
  <polygon class="cls-1" points="222.4 102.36 223.09 103.52 222.83 103.67 222.57 103.83 221.87 102.67 222.13 102.51 222.4 102.36"/>
  <polygon class="cls-1" points="220.72 103.16 221.59 104.62 221.33 104.77 221.06 104.93 220.19 103.48 220.46 103.32 220.72 103.16"/>
  <polygon class="cls-1" points="219.04 103.97 220.09 105.71 219.82 105.87 219.56 106.03 218.51 104.29 218.78 104.13 219.04 103.97"/>
  <polygon class="cls-1" points="217.36 104.78 218.58 106.81 218.32 106.97 218.05 107.13 216.84 105.09 217.1 104.94 217.36 104.78"/>
  <polygon class="cls-1" points="215.68 105.59 217.08 107.91 216.81 108.07 216.55 108.23 215.16 105.9 215.42 105.74 215.68 105.59"/>
  <g class="cls-16">
    <text class="cls-8" transform="translate(203.2 110.76)"><tspan x="0" y="0">H</tspan></text>
    <text class="cls-2" transform="translate(208.09 111.81)"><tspan x="0" y="0">2</tspan></text>
    <text class="cls-8" transform="translate(210.41 110.76)"><tspan x="0" y="0">N</tspan></text>
  </g>
  <polygon class="cls-1" points="253.09 146.38 253.44 146.96 253.17 147.12 252.91 147.28 252.56 146.7 252.82 146.54 253.09 146.38"/>
  <polygon class="cls-1" points="251.41 147.19 251.93 148.06 251.67 148.22 251.4 148.38 250.88 147.5 251.14 147.35 251.41 147.19"/>
  <polygon class="cls-1" points="249.73 148 250.43 149.16 250.16 149.32 249.9 149.47 249.2 148.31 249.47 148.16 249.73 148"/>
  <polygon class="cls-1" points="248.05 148.81 248.92 150.26 248.66 150.42 248.39 150.57 247.52 149.12 247.79 148.96 248.05 148.81"/>
  <polygon class="cls-1" points="246.37 149.61 247.42 151.36 247.15 151.51 246.89 151.67 245.84 149.93 246.11 149.77 246.37 149.61"/>
  <polygon class="cls-1" points="244.69 150.42 245.91 152.45 245.65 152.61 245.38 152.77 244.17 150.74 244.43 150.58 244.69 150.42"/>
  <polygon class="cls-1" points="243.01 151.23 244.41 153.55 244.14 153.71 243.88 153.87 242.49 151.54 242.75 151.39 243.01 151.23"/>
  <g class="cls-16">
    <text class="cls-8" transform="translate(230.53 156.41)"><tspan x="0" y="0">H</tspan></text>
    <text class="cls-2" transform="translate(235.42 157.45)"><tspan x="0" y="0">2</tspan></text>
    <text class="cls-8" transform="translate(237.74 156.41)"><tspan x="0" y="0">N</tspan></text>
  </g>
  <polygon class="cls-1" points="546.33 145.8 538.8 158.85 538.45 158.85 538.28 158.54 545.63 145.8 545.98 145.8 546.33 145.8"/>
  <polygon class="cls-1" points="538.28 159.15 523.56 159.15 523.38 158.85 523.56 158.54 538.28 158.54 538.45 158.85 538.28 159.15"/>
  <polygon class="cls-1" points="523.04 158.85 515.68 146.1 515.85 145.8 516.2 145.8 523.56 158.54 523.38 158.85 523.04 158.85"/>
  <polygon class="cls-1" points="515.68 145.5 523.04 132.75 523.38 132.75 523.56 133.06 516.2 145.8 515.85 145.8 515.68 145.5"/>
  <polygon class="cls-1" points="523.56 132.45 538.28 132.45 538.45 132.75 538.28 133.06 523.56 133.06 523.38 132.75 523.56 132.45"/>
  <polygon class="cls-1" points="538.28 132.45 543.79 122.91 544.05 123.06 544.31 123.21 538.8 132.75 538.45 132.75 538.28 132.45"/>
  <g class="cls-16">
    <text class="cls-15" transform="translate(543.58 121.54)"><tspan x="0" y="0">N</tspan></text>
    <text class="cls-15" transform="translate(548.38 121.54)"><tspan x="0" y="0">H</tspan></text>
    <text class="cls-10" transform="translate(553.18 122.56)"><tspan x="0" y="0">2</tspan></text>
  </g>
  <polygon class="cls-1" points="538.8 132.75 546.33 145.8 545.98 145.8 545.63 145.8 538.28 133.06 538.45 132.75 538.8 132.75"/>
  <polygon class="cls-1" points="523.04 132.75 517.53 123.21 517.79 123.06 518.05 122.91 523.56 132.45 523.38 132.75 523.04 132.75"/>
  <g class="cls-16">
    <text class="cls-15" transform="translate(513.27 122.4)"><tspan x="0" y="0">O</tspan></text>
  </g>
  <polygon class="cls-1" points="517.53 116.2 523.04 106.66 523.38 106.66 523.56 106.96 518.05 116.51 517.79 116.36 517.53 116.2"/>
  <polygon class="cls-1" points="523.04 106.66 515.68 93.91 515.85 93.61 516.2 93.61 523.56 106.36 523.38 106.66 523.04 106.66"/>
  <polygon class="cls-1" points="515.68 93.31 523.04 80.57 523.38 80.57 523.56 80.87 516.2 93.61 515.85 93.61 515.68 93.31"/>
  <polygon class="cls-1" points="523.56 80.27 538.28 80.27 538.45 80.57 538.28 80.87 523.56 80.87 523.38 80.57 523.56 80.27"/>
  <polygon class="cls-1" points="538.8 80.57 546.16 93.31 545.98 93.61 545.63 93.61 538.28 80.87 538.45 80.57 538.8 80.57"/>
  <polygon class="cls-1" points="546.16 93.91 540.64 103.46 540.38 103.31 540.12 103.16 545.63 93.61 545.98 93.61 546.16 93.91"/>
  <g class="cls-16">
    <text class="cls-15" transform="translate(535.87 109.35)"><tspan x="0" y="0">O</tspan></text>
  </g>
  <polygon class="cls-1" points="535.26 106.96 523.56 106.96 523.38 106.66 523.56 106.36 535.26 106.36 535.26 106.66 535.26 106.96"/>
  <polygon class="cls-1" points="546.16 93.31 560.87 93.31 561.05 93.61 561.22 93.91 546.16 93.91 545.98 93.61 546.16 93.31"/>
  <polygon class="cls-1" points="560.87 93.31 566.38 83.77 566.64 83.92 566.91 84.07 561.22 93.91 561.05 93.61 560.87 93.31"/>
  <g class="cls-16">
    <text class="cls-15" transform="translate(566.18 82.4)"><tspan x="0" y="0">N</tspan></text>
    <text class="cls-15" transform="translate(570.98 82.4)"><tspan x="0" y="0">H</tspan></text>
    <text class="cls-10" transform="translate(575.78 83.42)"><tspan x="0" y="0">2</tspan></text>
  </g>
  <polygon class="cls-1" points="538.28 80.27 543.79 70.72 544.05 70.87 544.31 71.02 538.8 80.57 538.45 80.57 538.28 80.27"/>
  <g class="cls-16">
    <text class="cls-15" transform="translate(543.4 70.21)"><tspan x="0" y="0">O</tspan></text>
    <text class="cls-15" transform="translate(548.57 70.21)"><tspan x="0" y="0">H</tspan></text>
  </g>
  <polygon class="cls-1" points="523.04 80.57 517.53 71.02 517.79 70.87 518.05 70.72 523.56 80.27 523.38 80.57 523.04 80.57"/>
  <g class="cls-16">
    <text class="cls-15" transform="translate(508.47 70.21)"><tspan x="0" y="0">H</tspan></text>
    <text class="cls-15" transform="translate(513.27 70.21)"><tspan x="0" y="0">O</tspan></text>
  </g>
  <polygon class="cls-1" points="515.68 93.91 503.79 93.91 503.79 93.61 503.79 93.31 515.68 93.31 515.85 93.61 515.68 93.91"/>
  <g class="cls-16">
    <text class="cls-15" transform="translate(491.38 95.45)"><tspan x="0" y="0">H</tspan></text>
    <text class="cls-10" transform="translate(496.17 96.47)"><tspan x="0" y="0">2</tspan></text>
    <text class="cls-15" transform="translate(498.45 95.45)"><tspan x="0" y="0">N</tspan></text>
  </g>
  <polygon class="cls-1" points="515.68 146.1 503.97 146.1 503.97 145.8 503.97 145.5 515.68 145.5 515.85 145.8 515.68 146.1"/>
  <g class="cls-16">
    <text class="cls-15" transform="translate(498.2 148.49)"><tspan x="0" y="0">O</tspan></text>
  </g>
  <polygon class="cls-1" points="498.59 142.6 493.07 133.04 493.25 132.75 493.59 132.74 499.11 142.3 498.85 142.45 498.59 142.6"/>
  <polygon class="cls-1" points="493.07 133.04 478.39 131.5 478.27 131.18 478.52 130.9 493.07 132.43 493.25 132.75 493.07 133.04"/>
  <polygon class="cls-1" points="477.95 131.09 474.88 116.66 475.14 116.44 475.48 116.59 478.52 130.9 478.27 131.18 477.95 131.09"/>
  <polygon class="cls-1" points="475.12 116.11 487.9 108.73 488.19 108.91 488.15 109.28 475.48 116.59 475.14 116.44 475.12 116.11"/>
  <polygon class="cls-1" points="488.5 108.79 496.4 115.9 496.19 116.12 495.99 116.34 488.15 109.28 488.19 108.91 488.5 108.79"/>
  <g class="cls-16">
    <text class="cls-15" transform="translate(496.8 121.68)"><tspan x="0" y="0">O</tspan></text>
  </g>
  <polygon class="cls-1" points="498.17 122.46 493.59 132.74 493.25 132.75 493.07 132.43 497.61 122.22 497.89 122.34 498.17 122.46"/>
  <polygon class="cls-1" points="487.9 108.73 489.44 94.07 489.76 93.93 490.08 93.79 488.5 108.79 488.19 108.91 487.9 108.73"/>
  <polygon class="cls-1" points="489.44 94.07 480.58 87.63 480.76 87.39 480.94 87.14 490.08 93.79 489.76 93.93 489.44 94.07"/>
  <g class="cls-16">
    <text class="cls-15" transform="translate(470.19 87.76)"><tspan x="0" y="0">H</tspan></text>
    <text class="cls-15" transform="translate(474.99 87.76)"><tspan x="0" y="0">O</tspan></text>
  </g>
  <polygon class="cls-1" points="474.88 116.66 464.44 112.01 464.56 111.73 464.69 111.46 475.12 116.11 475.14 116.44 474.88 116.66"/>
  <g class="cls-16">
    <text class="cls-15" transform="translate(458.79 113.01)"><tspan x="0" y="0">O</tspan></text>
  </g>
  <polygon class="cls-1" points="458.37 112.88 449.51 119.31 449.19 119.17 449.15 118.82 458.01 112.39 458.19 112.63 458.37 112.88"/>
  <polygon class="cls-1" points="448.91 119.37 435.46 113.39 435.43 113.04 435.71 112.84 449.15 118.82 449.19 119.17 448.91 119.37"/>
  <polygon class="cls-1" points="435.46 113.39 423.56 122.04 423.24 121.9 423.2 121.55 435.11 112.9 435.43 113.04 435.46 113.39"/>
  <polygon class="cls-1" points="423.56 122.04 425.09 136.68 424.81 136.88 424.5 136.74 422.96 122.1 423.24 121.9 423.56 122.04"/>
  <polygon class="cls-1" points="425.09 136.68 438.54 142.66 438.58 143.01 438.3 143.21 424.85 137.23 424.81 136.88 425.09 136.68"/>
  <polygon class="cls-1" points="438.54 142.66 447.4 136.22 447.58 136.47 447.75 136.71 438.89 143.15 438.58 143.01 438.54 142.66"/>
  <g class="cls-16">
    <text class="cls-15" transform="translate(448.18 136.84)"><tspan x="0" y="0">O</tspan></text>
  </g>
  <polygon class="cls-1" points="450.11 130.83 448.91 119.37 449.19 119.17 449.51 119.31 450.71 130.77 450.41 130.8 450.11 130.83"/>
  <polygon class="cls-1" points="438.89 143.15 440.47 158.13 440.15 157.99 439.83 157.85 438.3 143.21 438.58 143.01 438.89 143.15"/>
  <polygon class="cls-1" points="440.47 158.13 431.14 164.91 430.96 164.66 430.79 164.42 439.83 157.85 440.15 157.99 440.47 158.13"/>
  <g class="cls-16">
    <text class="cls-15" transform="translate(418.55 168.68)"><tspan x="0" y="0">H</tspan></text>
    <text class="cls-10" transform="translate(423.35 169.7)"><tspan x="0" y="0">2</tspan></text>
    <text class="cls-15" transform="translate(425.62 168.68)"><tspan x="0" y="0">N</tspan></text>
  </g>
  <polygon class="cls-1" points="424.85 137.23 415.99 143.66 415.81 143.42 415.63 143.18 424.5 136.74 424.81 136.88 424.85 137.23"/>
  <g class="cls-16">
    <text class="cls-15" transform="translate(405.25 148.42)"><tspan x="0" y="0">H</tspan></text>
    <text class="cls-15" transform="translate(410.04 148.42)"><tspan x="0" y="0">O</tspan></text>
  </g>
  <polygon class="cls-1" points="422.96 122.1 412.54 117.46 412.66 117.19 412.79 116.91 423.2 121.55 423.24 121.9 422.96 122.1"/>
  <g class="cls-16">
    <text class="cls-15" transform="translate(402.09 118.46)"><tspan x="0" y="0">H</tspan></text>
    <text class="cls-15" transform="translate(406.89 118.46)"><tspan x="0" y="0">O</tspan></text>
  </g>
  <polygon class="cls-1" points="435.11 112.9 433.9 101.44 434.2 101.41 434.5 101.38 435.71 112.84 435.43 113.04 435.11 112.9"/>
  <g class="cls-16">
    <text class="cls-15" transform="translate(424.44 99.89)"><tspan x="0" y="0">H</tspan></text>
    <text class="cls-10" transform="translate(429.24 100.92)"><tspan x="0" y="0">2</tspan></text>
    <text class="cls-15" transform="translate(431.51 99.89)"><tspan x="0" y="0">N</tspan></text>
  </g>
  <polygon class="cls-1" points="478.39 131.5 471.43 139.22 471.21 139.02 470.99 138.82 477.95 131.09 478.27 131.18 478.39 131.5"/>
  <g class="cls-16">
    <text class="cls-15" transform="translate(460.81 145.06)"><tspan x="0" y="0">H</tspan></text>
    <text class="cls-15" transform="translate(465.61 145.06)"><tspan x="0" y="0">O</tspan></text>
  </g>
  <polygon class="cls-1" points="523.56 159.15 518.05 168.69 517.79 168.54 517.53 168.39 523.04 158.85 523.38 158.85 523.56 159.15"/>
  <g class="cls-16">
    <text class="cls-15" transform="translate(508.47 174.58)"><tspan x="0" y="0">H</tspan></text>
    <text class="cls-15" transform="translate(513.27 174.58)"><tspan x="0" y="0">O</tspan></text>
  </g>
  <polygon class="cls-1" points="538.8 158.85 544.31 168.39 544.05 168.54 543.79 168.69 538.28 159.15 538.45 158.85 538.8 158.85"/>
  <g class="cls-16">
    <text class="cls-15" transform="translate(543.58 173.73)"><tspan x="0" y="0">N</tspan></text>
    <text class="cls-15" transform="translate(548.38 173.73)"><tspan x="0" y="0">H</tspan></text>
    <text class="cls-10" transform="translate(553.18 174.75)"><tspan x="0" y="0">2</tspan></text>
  </g>
  <polygon class="cls-1" points="746.61 178.89 737.96 163.9 738.16 163.55 738.56 163.55 747.22 178.54 746.91 178.72 746.61 178.89"/>
  <polygon class="cls-1" points="737.96 163.2 746.51 148.38 746.91 148.38 747.12 148.73 738.56 163.55 738.16 163.55 737.96 163.2"/>
  <polygon class="cls-1" points="747.12 148.03 764.23 148.03 764.43 148.38 764.63 148.73 747.12 148.73 746.91 148.38 747.12 148.03"/>
  <polygon class="cls-1" points="764.23 148.03 772.78 133.22 773.18 133.22 773.59 133.22 764.63 148.73 764.43 148.38 764.23 148.03"/>
  <polygon class="cls-1" points="772.78 133.22 764.23 118.4 764.43 118.05 764.83 118.05 773.59 133.22 773.18 133.22 772.78 133.22"/>
  <polygon class="cls-1" points="764.23 118.4 747.12 118.4 746.91 118.05 747.12 117.7 764.23 117.7 764.43 118.05 764.23 118.4"/>
  <polygon class="cls-1" points="747.12 118.4 740.71 129.5 740.41 129.32 740.1 129.15 746.51 118.05 746.91 118.05 747.12 118.4"/>
  <g class="cls-16">
    <text class="cls-7" transform="translate(735.15 136.34)"><tspan x="0" y="0">O</tspan></text>
  </g>
  <polygon class="cls-1" points="740.71 136.94 747.12 148.03 746.91 148.38 746.51 148.38 740.1 137.29 740.41 137.11 740.71 136.94"/>
  <polygon class="cls-1" points="746.51 118.05 740.1 106.95 740.41 106.78 740.71 106.6 747.12 117.7 746.91 118.05 746.51 118.05"/>
  <g class="cls-16">
    <text class="cls-7" transform="translate(735.15 106.01)"><tspan x="0" y="0">O</tspan></text>
  </g>
  <polygon class="cls-1" points="734.45 103.23 720.85 103.23 720.64 102.88 720.85 102.53 734.45 102.53 734.45 102.88 734.45 103.23"/>
  <polygon class="cls-1" points="720.24 102.88 711.68 88.06 711.89 87.71 712.29 87.71 720.85 102.53 720.64 102.88 720.24 102.88"/>
  <polygon class="cls-1" points="711.68 88.06 694.58 88.06 694.37 87.71 694.17 87.36 711.68 87.36 711.89 87.71 711.68 88.06"/>
  <polygon class="cls-1" points="694.58 88.06 686.02 102.88 685.62 102.88 685.41 102.53 694.17 87.36 694.37 87.71 694.58 88.06"/>
  <polygon class="cls-1" points="686.02 102.88 694.58 117.7 694.37 118.05 693.97 118.05 685.41 103.23 685.62 102.88 686.02 102.88"/>
  <polygon class="cls-1" points="694.58 117.7 711.68 117.7 711.89 118.05 711.68 118.4 694.58 118.4 694.37 118.05 694.58 117.7"/>
  <polygon class="cls-1" points="712.29 118.05 718.7 129.15 718.39 129.32 718.09 129.5 711.68 118.4 711.89 118.05 712.29 118.05"/>
  <g class="cls-16">
    <text class="cls-7" transform="translate(717.64 136.34)"><tspan x="0" y="0">O</tspan></text>
    <text class="cls-7" transform="translate(723.65 136.34)"><tspan x="0" y="0">H</tspan></text>
  </g>
  <polygon class="cls-1" points="711.68 117.7 720.24 102.88 720.64 102.88 720.85 103.23 712.29 118.05 711.89 118.05 711.68 117.7"/>
  <polygon class="cls-1" points="694.58 118.4 688.17 129.5 687.87 129.32 687.56 129.15 693.97 118.05 694.37 118.05 694.58 118.4"/>
  <g class="cls-16">
    <text class="cls-7" transform="translate(682.61 136.34)"><tspan x="0" y="0">O</tspan></text>
  </g>
  <polygon class="cls-1" points="681.91 133.56 668.31 133.56 668.1 133.22 668.31 132.87 681.91 132.87 681.91 133.22 681.91 133.56"/>
  <polygon class="cls-1" points="668.31 133.56 659.75 148.38 659.35 148.38 659.14 148.03 667.7 133.22 668.1 133.22 668.31 133.56"/>
  <polygon class="cls-1" points="659.14 148.73 642.04 148.73 641.83 148.38 642.04 148.03 659.14 148.03 659.35 148.38 659.14 148.73"/>
  <polygon class="cls-1" points="641.43 148.38 632.98 133.75 633.08 133.22 633.48 133.22 642.04 148.03 641.83 148.38 641.43 148.38"/>
  <polygon class="cls-1" points="632.98 132.68 641.63 117.7 641.83 118.05 642.04 118.4 633.48 133.22 633.08 133.22 632.98 132.68"/>
  <polygon class="cls-1" points="641.63 117.7 655.64 117.7 655.64 118.05 655.64 118.4 642.04 118.4 641.83 118.05 641.63 117.7"/>
  <g class="cls-16">
    <text class="cls-7" transform="translate(656.34 121.18)"><tspan x="0" y="0">O</tspan></text>
  </g>
  <polygon class="cls-1" points="661.9 121.77 668.31 132.87 668.1 133.22 667.7 133.22 661.29 122.12 661.6 121.94 661.9 121.77"/>
  <polygon class="cls-1" points="632.53 133.22 619.44 122.22 619.66 121.96 619.89 121.69 632.98 132.68 633.08 133.22 632.53 133.22"/>
  <polygon class="cls-1" points="632.98 133.75 623.59 141.63 623.37 141.36 623.14 141.1 632.53 133.22 633.08 133.22 632.98 133.75"/>
  <g class="cls-16">
    <text class="cls-7" transform="translate(611.08 147.6)"><tspan x="0" y="0">H</tspan></text>
    <text class="cls-7" transform="translate(616.66 147.6)"><tspan x="0" y="0">O</tspan></text>
  </g>
  <polygon class="cls-1" points="642.04 148.73 635.63 159.83 635.33 159.65 635.02 159.48 641.43 148.38 641.83 148.38 642.04 148.73"/>
  <g class="cls-16">
    <text class="cls-7" transform="translate(630.29 166.68)"><tspan x="0" y="0">N</tspan></text>
  </g>
  <g class="cls-16">
    <text class="cls-7" transform="translate(630.29 173.73)"><tspan x="0" y="0">H</tspan></text>
  </g>
  <polygon class="cls-1" points="629.59 163.9 615.56 163.9 615.56 163.55 615.56 163.2 629.59 163.2 629.59 163.55 629.59 163.9"/>
  <polygon class="cls-1" points="659.75 148.38 666.16 159.48 665.86 159.65 665.55 159.83 659.14 148.73 659.35 148.38 659.75 148.38"/>
  <g class="cls-16">
    <text class="cls-7" transform="translate(665.1 166.68)"><tspan x="0" y="0">O</tspan></text>
    <text class="cls-7" transform="translate(671.11 166.68)"><tspan x="0" y="0">H</tspan></text>
  </g>
  <polygon class="cls-1" points="685.41 103.23 671.59 103.23 671.59 102.88 671.59 102.53 685.41 102.53 685.62 102.88 685.41 103.23"/>
  <g class="cls-16">
    <text class="cls-7" transform="translate(657.16 105.01)"><tspan x="0" y="0">H</tspan></text>
    <text class="cls-13" transform="translate(662.74 106.2)"><tspan x="0" y="0">2</tspan></text>
    <text class="cls-7" transform="translate(665.38 105.01)"><tspan x="0" y="0">N</tspan></text>
  </g>
  <polygon class="cls-1" points="711.68 87.36 718.09 76.27 718.39 76.44 718.7 76.62 712.29 87.71 711.89 87.71 711.68 87.36"/>
  <g class="cls-16">
    <text class="cls-7" transform="translate(717.86 74.68)"><tspan x="0" y="0">N</tspan></text>
    <text class="cls-7" transform="translate(723.43 74.68)"><tspan x="0" y="0">H</tspan></text>
    <text class="cls-13" transform="translate(729.01 75.87)"><tspan x="0" y="0">2</tspan></text>
  </g>
  <polygon class="cls-1" points="764.23 117.7 770.63 106.6 770.94 106.78 771.24 106.95 764.83 118.05 764.43 118.05 764.23 117.7"/>
  <g class="cls-16">
    <text class="cls-7" transform="translate(770.4 105.01)"><tspan x="0" y="0">N</tspan></text>
    <text class="cls-7" transform="translate(775.97 105.01)"><tspan x="0" y="0">H</tspan></text>
    <text class="cls-13" transform="translate(781.55 106.2)"><tspan x="0" y="0">2</tspan></text>
  </g>
  <polygon class="cls-1" points="737.96 163.9 724.13 163.9 724.13 163.55 724.13 163.2 737.96 163.2 738.16 163.55 737.96 163.9"/>
  <g class="cls-16">
    <text class="cls-7" transform="translate(717.86 160.29)"><tspan x="0" y="0">H</tspan></text>
  </g>
  <g class="cls-16">
    <text class="cls-7" transform="translate(717.86 167.34)"><tspan x="0" y="0">N</tspan></text>
  </g>
  <polygon class="cls-1" points="718.7 167.62 712.19 178.89 711.89 178.72 711.58 178.54 718.09 167.27 718.39 167.44 718.7 167.62"/>
  <polygon class="cls-1" points="104.61 151.18 88.65 150.77 88.66 150.46 88.85 150.15 104.26 150.54 104.44 150.86 104.61 151.18"/>
  <polygon class="cls-1" points="88.38 150.61 80.93 136.91 81.11 136.59 81.48 136.6 88.85 150.15 88.66 150.46 88.38 150.61"/>
  <polygon class="cls-1" points="80.95 136.25 89.09 122.96 89.36 123.12 89.53 123.44 81.48 136.6 81.11 136.59 80.95 136.25"/>
  <polygon class="cls-1" points="89.36 122.81 104.95 123.2 105.14 123.53 104.95 123.84 89.53 123.44 89.36 123.12 89.36 122.81"/>
  <polygon class="cls-1" points="105.51 123.55 112.96 137.25 112.68 137.4 112.31 137.39 104.95 123.84 105.14 123.53 105.51 123.55"/>
  <polygon class="cls-1" points="112.72 137.75 112.73 137.05 113.05 137.06 113.37 137.07 113.35 137.76 113.03 137.75 112.72 137.75"/>
  <polygon class="cls-1" points="114.42 137.94 114.45 136.94 114.76 136.95 115.08 136.96 115.05 137.95 114.74 137.95 114.42 137.94"/>
  <polygon class="cls-1" points="116.13 138.13 116.16 136.84 116.48 136.85 116.79 136.85 116.76 138.15 116.44 138.14 116.13 138.13"/>
  <polygon class="cls-1" points="117.83 138.32 117.87 136.73 118.19 136.74 118.5 136.75 118.46 138.34 118.15 138.33 117.83 138.32"/>
  <polygon class="cls-1" points="119.54 138.52 119.58 136.63 119.9 136.64 120.22 136.64 120.17 138.53 119.85 138.53 119.54 138.52"/>
  <polygon class="cls-1" points="121.24 138.71 121.3 136.52 121.61 136.53 121.93 136.54 121.87 138.73 121.56 138.72 121.24 138.71"/>
  <polygon class="cls-1" points="122.95 138.9 123.01 136.42 123.33 136.43 123.64 136.43 123.58 138.92 123.26 138.91 122.95 138.9"/>
  <polygon class="cls-1" points="124.65 139.1 124.72 136.31 125.04 136.32 125.35 136.33 125.28 139.11 124.97 139.1 124.65 139.1"/>
  <g class="cls-16">
    <text class="cls-9" transform="translate(125.95 139.72)"><tspan x="0" y="0">N</tspan></text>
    <text class="cls-9" transform="translate(130.98 139.72)"><tspan x="0" y="0">H</tspan></text>
    <text class="cls-6" transform="translate(136 140.79)"><tspan x="0" y="0">2</tspan></text>
  </g>
  <polygon class="cls-1" points="112.95 137.56 104.61 151.18 104.44 150.86 104.26 150.54 112.31 137.39 112.68 137.4 112.95 137.56"/>
  <polygon class="cls-1" points="104.95 123.2 110.02 112.83 111.23 113.57 112.44 114.31 105.51 123.55 105.14 123.53 104.95 123.2"/>
  <g class="cls-16">
    <text class="cls-9" transform="translate(110.67 112.88)"><tspan x="0" y="0">O</tspan></text>
  </g>
  <polygon class="cls-1" points="129.12 110.12 129.11 110.81 128.79 110.8 128.47 110.8 128.49 110.1 128.81 110.11 129.12 110.12"/>
  <polygon class="cls-1" points="127.45 109.92 127.42 110.92 127.11 110.91 126.79 110.9 126.81 109.91 127.13 109.92 127.45 109.92"/>
  <polygon class="cls-1" points="125.77 109.73 125.74 111.02 125.42 111.02 125.11 111.01 125.14 109.72 125.45 109.72 125.77 109.73"/>
  <polygon class="cls-1" points="124.09 109.54 124.05 111.13 123.74 111.12 123.42 111.11 123.46 109.52 123.78 109.53 124.09 109.54"/>
  <polygon class="cls-1" points="122.42 109.35 122.37 111.24 122.05 111.23 121.74 111.22 121.78 109.33 122.1 109.34 122.42 109.35"/>
  <polygon class="cls-1" points="120.74 109.15 120.68 111.34 120.37 111.33 120.05 111.33 120.11 109.14 120.42 109.15 120.74 109.15"/>
  <polygon class="cls-1" points="119.06 108.96 119 111.45 118.68 111.44 118.37 111.43 118.43 108.95 118.75 108.95 119.06 108.96"/>
  <polygon class="cls-1" points="117.39 108.77 117.31 111.56 117 111.55 116.68 111.54 116.75 108.75 117.07 108.76 117.39 108.77"/>
  <polygon class="cls-1" points="128.89 110.3 137.13 96.83 137.4 97 137.58 97.32 129.53 110.47 129.16 110.47 128.89 110.3"/>
  <polygon class="cls-1" points="137.41 96.68 152.99 97.08 153.19 97.4 153 97.72 137.58 97.32 137.4 97 137.41 96.68"/>
  <polygon class="cls-1" points="153.56 97.43 161 111.12 160.73 111.27 160.36 111.27 153 97.72 153.19 97.4 153.56 97.43"/>
  <polygon class="cls-1" points="161 111.44 152.86 124.74 152.49 124.74 152.31 124.42 160.36 111.27 160.73 111.27 161 111.44"/>
  <polygon class="cls-1" points="152.28 125.05 140.03 124.74 140.04 124.42 140.05 124.11 152.31 124.42 152.49 124.74 152.28 125.05"/>
  <g class="cls-16">
    <text class="cls-9" transform="translate(134 127.15)"><tspan x="0" y="0">O</tspan></text>
  </g>
  <polygon class="cls-1" points="134.52 120.97 128.88 110.62 129.16 110.47 129.53 110.47 135.07 120.67 134.79 120.82 134.52 120.97"/>
  <polygon class="cls-1" points="152.86 124.74 161.53 138.33 160.03 138.61 158.59 138.89 152.28 125.05 152.49 124.74 152.86 124.74"/>
  <polygon class="cls-1" points="161.53 138.33 172.48 138.61 172.47 138.93 172.46 139.24 158.59 138.89 160.03 138.61 161.53 138.33"/>
  <g class="cls-16">
    <text class="cls-9" transform="translate(173.1 141.83)"><tspan x="0" y="0">O</tspan></text>
    <text class="cls-9" transform="translate(178.52 141.83)"><tspan x="0" y="0">H</tspan></text>
  </g>
  <polygon class="cls-1" points="160.76 111.62 160.78 110.93 161.1 110.94 161.41 110.94 161.4 111.64 161.08 111.63 160.76 111.62"/>
  <polygon class="cls-1" points="162.44 111.82 162.47 110.82 162.78 110.83 163.1 110.84 163.07 111.83 162.76 111.82 162.44 111.82"/>
  <polygon class="cls-1" points="164.12 112.01 164.15 110.72 164.47 110.72 164.78 110.73 164.75 112.02 164.44 112.02 164.12 112.01"/>
  <polygon class="cls-1" points="165.8 112.2 165.84 110.61 166.15 110.62 166.47 110.63 166.43 112.22 166.11 112.21 165.8 112.2"/>
  <polygon class="cls-1" points="167.47 112.39 167.52 110.5 167.84 110.51 168.15 110.52 168.1 112.41 167.79 112.4 167.47 112.39"/>
  <polygon class="cls-1" points="169.15 112.58 169.21 110.4 169.52 110.41 169.84 110.41 169.78 112.6 169.47 112.59 169.15 112.58"/>
  <polygon class="cls-1" points="170.83 112.78 170.89 110.29 171.21 110.3 171.52 110.31 171.46 112.79 171.14 112.78 170.83 112.78"/>
  <polygon class="cls-1" points="172.5 112.97 172.57 110.18 172.89 110.19 173.21 110.2 173.13 112.99 172.82 112.98 172.5 112.97"/>
  <g class="cls-16">
    <text class="cls-9" transform="translate(173.8 114.5)"><tspan x="0" y="0">O</tspan></text>
    <text class="cls-9" transform="translate(179.22 114.5)"><tspan x="0" y="0">H</tspan></text>
  </g>
  <polygon class="cls-1" points="152.99 97.08 158.07 86.71 159.28 87.45 160.49 88.19 153.56 97.43 153.19 97.4 152.99 97.08"/>
  <g class="cls-16">
    <text class="cls-9" transform="translate(158.91 85.86)"><tspan x="0" y="0">N</tspan></text>
    <text class="cls-9" transform="translate(163.94 85.86)"><tspan x="0" y="0">H</tspan></text>
    <text class="cls-6" transform="translate(168.97 86.93)"><tspan x="0" y="0">2</tspan></text>
  </g>
  <polygon class="cls-1" points="137.69 96.79 137.07 97.12 136.92 96.84 136.77 96.57 137.39 96.23 137.54 96.51 137.69 96.79"/>
  <polygon class="cls-1" points="136.96 95.08 136.03 95.58 135.88 95.3 135.73 95.02 136.65 94.52 136.81 94.8 136.96 95.08"/>
  <polygon class="cls-1" points="136.22 93.37 135 94.03 134.85 93.76 134.7 93.48 135.92 92.81 136.07 93.09 136.22 93.37"/>
  <polygon class="cls-1" points="135.49 91.66 133.96 92.49 133.81 92.21 133.66 91.94 135.19 91.1 135.34 91.38 135.49 91.66"/>
  <polygon class="cls-1" points="134.76 89.95 132.92 90.95 132.77 90.67 132.62 90.39 134.46 89.39 134.61 89.67 134.76 89.95"/>
  <polygon class="cls-1" points="134.03 88.24 131.89 89.4 131.74 89.13 131.59 88.85 133.73 87.69 133.88 87.96 134.03 88.24"/>
  <polygon class="cls-1" points="133.29 86.53 130.85 87.86 130.7 87.58 130.55 87.3 132.99 85.97 133.15 86.25 133.29 86.53"/>
  <g class="cls-16">
    <text class="cls-9" transform="translate(122.13 85.95)"><tspan x="0" y="0">H</tspan></text>
    <text class="cls-9" transform="translate(127.16 85.95)"><tspan x="0" y="0">O</tspan></text>
  </g>
  <polygon class="cls-1" points="89.64 122.91 89.03 123.25 88.87 122.97 88.72 122.69 89.34 122.36 89.49 122.63 89.64 122.91"/>
  <polygon class="cls-1" points="88.91 121.2 87.99 121.7 87.84 121.42 87.69 121.15 88.61 120.65 88.76 120.92 88.91 121.2"/>
  <polygon class="cls-1" points="88.18 119.49 86.95 120.16 86.8 119.88 86.65 119.6 87.87 118.94 88.03 119.21 88.18 119.49"/>
  <polygon class="cls-1" points="87.44 117.78 85.91 118.61 85.76 118.33 85.61 118.06 87.14 117.23 87.29 117.5 87.44 117.78"/>
  <polygon class="cls-1" points="86.71 116.07 84.88 117.07 84.73 116.79 84.58 116.51 86.41 115.52 86.56 115.79 86.71 116.07"/>
  <polygon class="cls-1" points="85.98 114.36 83.84 115.53 83.69 115.25 83.54 114.97 85.68 113.81 85.83 114.08 85.98 114.36"/>
  <polygon class="cls-1" points="85.25 112.65 82.8 113.98 82.65 113.7 82.5 113.43 84.95 112.1 85.1 112.37 85.25 112.65"/>
  <g class="cls-16">
    <text class="cls-9" transform="translate(74.08 112.07)"><tspan x="0" y="0">H</tspan></text>
    <text class="cls-9" transform="translate(79.11 112.07)"><tspan x="0" y="0">O</tspan></text>
  </g>
  <polygon class="cls-1" points="80.93 136.91 68.64 137.69 68.67 136.27 68.71 134.85 80.95 136.25 81.11 136.59 80.93 136.91"/>
  <g class="cls-16">
    <text class="cls-9" transform="translate(62.63 139)"><tspan x="0" y="0">O</tspan></text>
  </g>
  <polygon class="cls-1" points="57.51 122.52 58.12 122.19 58.27 122.47 58.42 122.74 57.81 123.08 57.66 122.8 57.51 122.52"/>
  <polygon class="cls-1" points="58.24 124.23 59.16 123.73 59.31 124.01 59.46 124.29 58.54 124.79 58.39 124.51 58.24 124.23"/>
  <polygon class="cls-1" points="58.97 125.94 60.2 125.28 60.35 125.55 60.5 125.83 59.27 126.5 59.12 126.22 58.97 125.94"/>
  <polygon class="cls-1" points="59.7 127.65 61.23 126.82 61.38 127.1 61.54 127.38 60.01 128.21 59.85 127.93 59.7 127.65"/>
  <polygon class="cls-1" points="60.44 129.36 62.27 128.37 62.42 128.64 62.57 128.92 60.74 129.92 60.59 129.64 60.44 129.36"/>
  <polygon class="cls-1" points="61.17 131.07 63.31 129.91 63.46 130.19 63.61 130.46 61.47 131.63 61.32 131.35 61.17 131.07"/>
  <polygon class="cls-1" points="61.9 132.78 64.34 131.45 64.5 131.73 64.65 132.01 62.2 133.34 62.05 133.06 61.9 132.78"/>
  <polygon class="cls-1" points="57.78 122.63 42 122.22 42.01 121.91 42.2 121.6 57.62 121.99 57.79 122.31 57.78 122.63"/>
  <polygon class="cls-1" points="41.73 122.06 34.1 108.03 34.47 108.04 34.83 108.05 42.2 121.6 42.01 121.91 41.73 122.06"/>
  <polygon class="cls-1" points="34.1 108.03 42.44 94.41 42.71 94.57 42.88 94.89 34.83 108.05 34.47 108.04 34.1 108.03"/>
  <polygon class="cls-1" points="42.72 94.26 58.3 94.66 58.49 94.98 58.3 95.29 42.88 94.89 42.71 94.57 42.72 94.26"/>
  <polygon class="cls-1" points="58.86 95 64.4 105.19 64.12 105.33 63.85 105.49 58.3 95.29 58.49 94.98 58.86 95"/>
  <g class="cls-16">
    <text class="cls-9" transform="translate(63.33 111.67)"><tspan x="0" y="0">O</tspan></text>
  </g>
  <polygon class="cls-1" points="64.15 112.52 58.06 122.48 57.79 122.31 57.62 121.99 63.62 112.19 63.88 112.36 64.15 112.52"/>
  <polygon class="cls-1" points="58.3 94.66 65.74 80.35 66.73 81.51 67.69 82.61 58.86 95 58.49 94.98 58.3 94.66"/>
  <polygon class="cls-1" points="65.74 80.35 60.83 71.3 61.1 71.15 61.38 71 67.69 82.61 66.73 81.51 65.74 80.35"/>
  <g class="cls-16">
    <text class="cls-9" transform="translate(49.33 69.56)"><tspan x="0" y="0">H</tspan></text>
    <text class="cls-6" transform="translate(54.36 70.63)"><tspan x="0" y="0">2</tspan></text>
    <text class="cls-9" transform="translate(56.74 69.56)"><tspan x="0" y="0">N</tspan></text>
  </g>
  <polygon class="cls-1" points="42.99 94.36 42.38 94.69 42.23 94.42 42.08 94.14 42.69 93.81 42.84 94.08 42.99 94.36"/>
  <polygon class="cls-1" points="42.26 92.65 41.34 93.15 41.19 92.87 41.04 92.6 41.96 92.1 42.11 92.37 42.26 92.65"/>
  <polygon class="cls-1" points="41.53 90.94 40.3 91.61 40.15 91.33 40 91.05 41.23 90.39 41.38 90.66 41.53 90.94"/>
  <polygon class="cls-1" points="40.8 89.23 39.27 90.06 39.12 89.79 38.97 89.51 40.5 88.68 40.65 88.95 40.8 89.23"/>
  <polygon class="cls-1" points="40.07 87.52 38.23 88.52 38.08 88.24 37.93 87.97 39.76 86.97 39.91 87.25 40.07 87.52"/>
  <polygon class="cls-1" points="39.33 85.81 37.19 86.98 37.04 86.7 36.89 86.42 39.03 85.26 39.18 85.53 39.33 85.81"/>
  <polygon class="cls-1" points="38.6 84.1 36.16 85.43 36.01 85.15 35.85 84.88 38.3 83.55 38.45 83.83 38.6 84.1"/>
  <g class="cls-16">
    <text class="cls-9" transform="translate(27.43 83.52)"><tspan x="0" y="0">H</tspan></text>
    <text class="cls-9" transform="translate(32.46 83.52)"><tspan x="0" y="0">O</tspan></text>
  </g>
  <polygon class="cls-1" points="41.68 121.77 42.28 122.13 42.12 122.4 41.95 122.67 41.35 122.31 41.52 122.04 41.68 121.77"/>
  <polygon class="cls-1" points="40.58 123.24 41.47 123.79 41.31 124.06 41.14 124.33 40.25 123.78 40.41 123.51 40.58 123.24"/>
  <polygon class="cls-1" points="39.48 124.71 40.67 125.44 40.5 125.71 40.34 125.98 39.15 125.25 39.31 124.98 39.48 124.71"/>
  <polygon class="cls-1" points="38.37 126.18 39.86 127.09 39.69 127.36 39.53 127.63 38.04 126.72 38.21 126.45 38.37 126.18"/>
  <polygon class="cls-1" points="37.27 127.66 39.05 128.75 38.88 129.01 38.72 129.28 36.94 128.19 37.1 127.92 37.27 127.66"/>
  <polygon class="cls-1" points="36.16 129.13 38.24 130.4 38.08 130.67 37.91 130.94 35.83 129.66 36 129.4 36.16 129.13"/>
  <polygon class="cls-1" points="35.06 130.6 37.43 132.05 37.27 132.32 37.1 132.59 34.73 131.14 34.9 130.87 35.06 130.6"/>
  <g class="cls-16">
    <text class="cls-9" transform="translate(23.91 137.3)"><tspan x="0" y="0">H</tspan></text>
    <text class="cls-6" transform="translate(28.93 138.37)"><tspan x="0" y="0">2</tspan></text>
    <text class="cls-9" transform="translate(31.32 137.3)"><tspan x="0" y="0">N</tspan></text>
  </g>
  <polygon class="cls-1" points="88.33 150.32 88.93 150.68 88.76 150.95 88.6 151.22 88 150.86 88.17 150.59 88.33 150.32"/>
  <polygon class="cls-1" points="87.23 151.79 88.12 152.34 87.95 152.6 87.79 152.88 86.9 152.33 87.06 152.06 87.23 151.79"/>
  <polygon class="cls-1" points="86.12 153.26 87.31 153.99 87.15 154.26 86.98 154.53 85.79 153.8 85.96 153.53 86.12 153.26"/>
  <polygon class="cls-1" points="85.02 154.73 86.5 155.64 86.34 155.91 86.17 156.18 84.69 155.27 84.85 155 85.02 154.73"/>
  <polygon class="cls-1" points="83.91 156.2 85.69 157.29 85.53 157.56 85.36 157.83 83.58 156.74 83.75 156.47 83.91 156.2"/>
  <polygon class="cls-1" points="82.81 157.68 84.89 158.95 84.72 159.22 84.56 159.49 82.48 158.22 82.64 157.94 82.81 157.68"/>
  <polygon class="cls-1" points="81.71 159.15 84.08 160.6 83.91 160.87 83.75 161.14 81.38 159.69 81.54 159.42 81.71 159.15"/>
  <g class="cls-16">
    <text class="cls-9" transform="translate(70.55 165.85)"><tspan x="0" y="0">H</tspan></text>
    <text class="cls-6" transform="translate(75.58 166.92)"><tspan x="0" y="0">2</tspan></text>
    <text class="cls-9" transform="translate(77.96 165.85)"><tspan x="0" y="0">N</tspan></text>
  </g>
  <g class="cls-16">
    <text class="cls-4" transform="translate(13.91 201.15)"><tspan x="0" y="0">T</tspan></text>
    <text class="cls-3" transform="translate(20.06 201.15)"><tspan x="0" y="0">obramycin: 0.00515 ±0.00042μM</tspan></text>
  </g>
  <text class="cls-3" transform="translate(220.31 201.15)"><tspan x="0" y="0">kanamycinB: 0.022±0.047μM</tspan></text>
  <g class="cls-16">
    <text class="cls-3" transform="translate(424.81 201.15)"><tspan x="0" y="0">Dekamycin:</tspan></text>
    <text class="cls-12" transform="translate(489.07 201.15)"><tspan x="0" y="0"> </tspan></text>
    <text class="cls-3" transform="translate(492.17 201.15)"><tspan x="0" y="0" xml:space="preserve"> 5.59±1.39μM</tspan></text>
  </g>
  <g class="cls-16">
    <text class="cls-3" transform="translate(635.02 205.15)"><tspan x="0" y="0">Gentamicin:43.7±</tspan></text>
    <text class="cls-14" transform="translate(732.83 205.15)"><tspan x="0" y="0">1</tspan></text>
    <text class="cls-3" transform="translate(738.77 205.15)"><tspan x="0" y="0">1.7μM</tspan></text>
  </g>
  <g class="cls-16">
    <text class="cls-5" transform="translate(137.14 260.69) scale(.87 1)"><tspan x="0" y="0">This figure advances the a f</tspan></text>
    <text class="cls-11" transform="translate(311.6 260.69) scale(.92 1)"><tspan x="0" y="0">finity for J6F1 and several of the antibiotics in the figure</tspan></text>
  </g>
</svg>