<svg id="图层_1" data-name="图层 1" xmlns="http://www.w3.org/2000/svg" viewBox="0 0 800 300"><defs><style>.cls-1,.cls-2{isolation:isolate;font-family:ArialMT, Arial;}.cls-1{font-size:21.79px;}.cls-2{font-size:20px;}</style></defs><polygon points="365.44 109.35 380.78 143.36 379.94 143.86 378.94 144.2 363.61 110.18 364.61 109.85 365.44 109.35"/><text class="cls-1" transform="translate(377 163.63)">N</text><polygon points="379.44 166.21 361.61 197.55 360.44 197.72 359.77 196.72 377.78 165.37 378.61 165.87 379.44 166.21"/><polygon points="368.44 196.22 388.95 218.73 388.12 219.39 387.45 220.06 366.94 197.55 367.61 196.88 368.44 196.22"/><polygon points="361.61 197.55 384.45 222.73 383.78 223.39 383.11 224.06 359.94 198.72 360.44 197.72 361.61 197.55"/><text class="cls-1" transform="translate(385.74 243.08)">N</text><polygon points="403.12 228.9 437.63 213.39 438.63 213.89 438.63 215.06 403.79 230.73 403.45 229.9 403.12 228.9"/><polygon points="444.47 209.72 481.65 237.23 481.49 238.4 481.49 239.57 443.3 211.22 443.8 210.56 444.47 209.72"/><polygon points="439.64 213.22 481.82 231.06 481.49 232.06 481.15 232.9 438.63 215.06 438.63 213.89 439.64 213.22"/><polygon points="481.65 237.23 523.17 212.89 524.17 213.56 524.17 214.72 481.49 239.57 481.49 238.4 481.65 237.23"/><polygon points="530.67 209.22 567.52 230.4 567.02 231.23 566.52 232.06 529.67 210.89 530.17 210.06 530.67 209.22"/><polygon points="525.17 212.89 567.02 236.9 567.19 238.07 567.19 239.23 524.17 214.72 524.17 213.56 525.17 212.89"/><polygon points="567.02 236.9 608.7 212.56 609.7 213.06 610.7 213.72 567.19 239.23 567.19 238.07 567.02 236.9"/><polygon points="602.87 209.72 602.7 167.21 603.7 167.21 604.53 167.21 604.87 209.72 603.87 209.72 602.87 209.72"/><polygon points="608.7 212.56 608.54 164.37 609.54 163.7 610.54 164.2 610.7 213.72 609.7 213.06 608.7 212.56"/><polygon points="608.54 164.37 566.69 140.36 566.69 139.19 566.69 138.03 609.54 162.54 609.54 163.7 608.54 164.37"/><polygon points="567.19 146.86 530.34 168.37 529.84 167.54 529.34 166.71 566.19 145.2 566.69 146.03 567.19 146.86"/><polygon points="566.69 140.36 525 164.7 524 164.2 523 163.54 566.69 138.03 566.69 139.19 566.69 140.36"/><polygon points="525 164.7 525.17 212.89 524.17 213.56 523.17 212.89 523 163.54 524 164.2 525 164.7"/><polygon points="609.54 162.54 641.88 143.7 642.38 144.53 642.88 145.36 610.54 164.2 609.54 163.7 609.54 162.54"/><text class="cls-1" transform="translate(644.33 147.63)">N</text><polygon points="662.56 143.53 695.57 162.37 695.07 163.37 694.57 164.2 661.56 145.36 662.06 144.36 662.56 143.53"/><polygon points="651.22 127.86 650.89 88.84 651.89 89.34 652.89 90.01 653.05 127.86 652.22 127.86 651.22 127.86"/><polygon points="650.89 88.84 693.57 64 694.57 64.5 695.57 65 652.89 90.01 651.89 89.34 650.89 88.84"/><polygon points="693.57 64 693.4 26.15 694.4 26.15 695.4 26.15 695.57 65 694.57 64.5 693.57 64"/><text class="cls-1" transform="translate(685.9 23.91)">O</text><text class="cls-1" transform="translate(702.85 23.91)">H</text><polygon points="437.63 213.39 432.3 165.71 433.3 164.87 434.13 164.04 439.64 213.22 438.63 213.89 437.63 213.39"/><polygon points="428.96 163.37 456.64 138.19 457.31 138.86 457.98 139.69 430.3 164.87 429.63 164.04 428.96 163.37"/><polygon points="432.97 167.71 460.64 142.53 461.31 143.36 461.98 144.03 434.3 169.21 433.63 168.54 432.97 167.71"/><text class="cls-1" transform="translate(461.31 140.43)">O</text><polygon points="432.3 165.71 394.45 157.87 394.78 156.87 394.95 155.87 434.13 164.04 433.3 164.87 432.3 165.71"/><polygon points="359.94 198.72 310.75 204.22 311.25 203.05 311.75 202.05 359.77 196.72 360.44 197.72 359.94 198.72"/><polygon points="310.75 204.22 285.91 160.2 286.74 159.7 287.74 159.37 311.75 202.05 311.25 203.05 310.75 204.22"/><polygon points="313.08 197.88 281.57 164.37 282.07 163.2 282.41 162.2 314.59 196.55 313.92 197.22 313.08 197.88"/><polygon points="281.57 164.37 233.55 169.54 232.89 168.71 233.39 167.71 282.41 162.2 282.07 163.2 281.57 164.37"/><polygon points="225.38 170.04 200.21 135.69 200.87 135.19 201.71 134.53 226.88 168.87 226.05 169.37 225.38 170.04"/><polygon points="231.72 168.87 203.21 129.86 203.71 128.86 204.21 127.86 233.39 167.71 232.89 168.71 231.72 168.87"/><polygon points="203.21 129.86 155.19 135.19 154.52 134.19 153.86 133.36 204.21 127.86 203.71 128.86 203.21 129.86"/><polygon points="159.53 140.19 142.35 179.21 141.52 178.71 140.68 178.38 157.69 139.36 158.69 139.86 159.53 140.19"/><polygon points="155.19 135.19 135.85 179.38 134.68 179.54 134.01 178.54 153.86 133.36 154.52 134.19 155.19 135.19"/><polygon points="135.85 179.38 164.36 218.23 163.86 219.39 163.53 220.39 134.18 180.54 134.68 179.54 135.85 179.38"/><polygon points="166.53 212.06 208.88 207.39 209.04 208.39 209.04 209.39 166.86 214.06 166.69 213.06 166.53 212.06"/><polygon points="164.36 218.23 212.38 213.06 213.05 213.89 213.71 214.89 163.53 220.39 163.86 219.39 164.36 218.23"/><polygon points="212.38 213.06 231.72 168.87 232.89 168.71 233.55 169.54 213.71 214.89 213.05 213.89 212.38 213.06"/><polygon points="134.18 180.54 94.33 184.88 94.17 183.88 94.17 183.04 134.01 178.54 134.68 179.54 134.18 180.54"/><text class="cls-1" transform="translate(78.95 193.72)">F</text><text class="cls-2" transform="translate(335.96 279.06)">NBSI: 55 ± 4 nM</text></svg>