<svg id="图层_1" data-name="图层 1" xmlns="http://www.w3.org/2000/svg" viewBox="0 0 800 300"><defs><style>.cls-1,.cls-2,.cls-3,.cls-5,.cls-6{isolation:isolate;}.cls-2{font-size:10.47px;}.cls-2,.cls-3,.cls-4,.cls-5,.cls-6{font-family:ArialMT, Arial;}.cls-3{font-size:6.44px;}.cls-4{font-size:20px;}.cls-5{font-size:11.01px;}.cls-6{font-size:6.77px;}</style></defs><title>NeomycinB_SELEX_ligand</title><polygon points="650.08 163.19 638.22 183.73 637.66 183.75 637.38 183.28 648.98 163.19 649.53 163.19 650.08 163.19"/><polygon points="637.36 184.22 613.92 184.22 613.92 183.75 614.19 183.28 637.38 183.28 637.66 183.75 637.36 184.22"/><polygon points="613.51 183.99 601.79 163.69 602.05 163.19 602.6 163.19 614.19 183.28 613.92 183.75 613.51 183.99"/><polygon points="601.79 162.69 613.37 142.63 613.92 142.63 614.19 143.11 602.6 163.19 602.05 163.19 601.79 162.69"/><polygon points="614.19 142.16 637.36 142.16 637.66 142.63 637.38 143.11 614.19 143.11 613.92 142.63 614.19 142.16"/><polygon points="637.36 142.16 644.63 126.28 646.48 127.35 648.33 128.42 638.22 142.66 637.66 142.63 637.36 142.16"/><g class="cls-1"><text class="cls-2" transform="translate(645.75 124.96)">N</text><text class="cls-2" transform="translate(653.31 124.96)">H</text><text class="cls-3" transform="translate(660.87 126.57)">2</text></g><polygon points="638.22 142.66 650.08 163.19 649.53 163.19 648.98 163.19 637.38 143.11 637.66 142.63 638.22 142.66"/><polygon points="613.37 142.63 604.69 127.59 605.1 127.35 605.51 127.11 614.19 142.16 613.92 142.63 613.37 142.63"/><g class="cls-1"><text class="cls-2" transform="translate(597.98 126.31)">O</text></g><polygon points="613.42 101.31 614.34 101.84 614.1 102.25 613.86 102.66 612.95 102.14 613.19 101.72 613.42 101.31"/><polygon points="611.81 103.58 613.18 104.37 612.94 104.78 612.7 105.19 611.34 104.41 611.58 103.99 611.81 103.58"/><polygon points="610.2 105.85 612.02 106.9 611.78 107.31 611.54 107.72 609.73 106.67 609.97 106.26 610.2 105.85"/><polygon points="608.59 108.12 610.86 109.43 610.62 109.84 610.38 110.25 608.12 108.94 608.35 108.53 608.59 108.12"/><polygon points="606.98 110.39 609.7 111.96 609.46 112.37 609.23 112.78 606.51 111.21 606.74 110.8 606.98 110.39"/><polygon points="605.37 112.66 608.54 114.49 608.3 114.9 608.07 115.31 604.89 113.48 605.13 113.07 605.37 112.66"/><polygon points="603.76 114.92 607.38 117.02 607.14 117.43 606.91 117.84 603.28 115.75 603.52 115.34 603.76 114.92"/><polygon points="613.51 101.75 601.64 81.19 602.05 80.95 602.6 80.95 614.19 101.04 613.92 101.51 613.51 101.75"/><polygon points="601.64 80.72 613.36 60.42 613.92 60.39 614.19 60.87 602.6 80.95 602.05 80.95 601.64 80.72"/><polygon points="614.22 59.92 637.66 59.92 637.66 60.39 637.38 60.87 614.19 60.87 613.92 60.39 614.22 59.92"/><polygon points="638.07 60.16 649.79 80.46 649.53 80.95 648.98 80.95 637.38 60.87 637.66 60.39 638.07 60.16"/><polygon points="649.79 81.45 641.12 96.47 640.71 96.23 640.3 95.99 648.98 80.95 649.53 80.95 649.79 81.45"/><g class="cls-1"><text class="cls-2" transform="translate(633.59 105.75)">O</text></g><polygon points="632.64 101.99 613.92 101.99 613.92 101.51 614.19 101.04 632.64 101.04 632.64 101.51 632.64 101.99"/><polygon points="649.79 80.46 673.98 78.77 673.27 80.95 672.61 83.04 649.79 81.45 649.53 80.95 649.79 80.46"/><polygon points="673.98 78.77 681.68 65.44 682.09 65.67 682.5 65.91 672.61 83.04 673.27 80.95 673.98 78.77"/><g class="cls-1"><text class="cls-2" transform="translate(681.07 64.63)">O</text><text class="cls-2" transform="translate(689.21 64.63)">H</text></g><polygon points="638.15 60.59 637.24 60.06 637.48 59.65 637.72 59.24 638.63 59.77 638.39 60.18 638.15 60.59"/><polygon points="639.76 58.32 638.4 57.53 638.64 57.12 638.87 56.71 640.24 57.5 640 57.91 639.76 58.32"/><polygon points="641.37 56.05 639.56 55.01 639.8 54.59 640.03 54.18 641.85 55.23 641.61 55.64 641.37 56.05"/><polygon points="642.99 53.78 640.72 52.48 640.96 52.06 641.19 51.65 643.46 52.96 643.22 53.37 642.99 53.78"/><polygon points="644.6 51.52 641.88 49.95 642.11 49.54 642.35 49.12 645.07 50.7 644.83 51.11 644.6 51.52"/><polygon points="646.21 49.25 643.03 47.42 643.27 47.01 643.51 46.59 646.68 48.43 646.45 48.84 646.21 49.25"/><polygon points="647.82 46.98 644.19 44.89 644.43 44.48 644.67 44.07 648.29 46.16 648.05 46.57 647.82 46.98"/><g class="cls-1"><text class="cls-2" transform="translate(645.46 44.07)">O</text><text class="cls-2" transform="translate(653.6 44.07)">H</text></g><polygon points="613.36 60.42 603.25 46.18 605.1 45.11 606.95 44.05 614.22 59.92 613.92 60.39 613.36 60.42"/><g class="cls-1"><text class="cls-2" transform="translate(590.42 44.07)">H</text><text class="cls-2" transform="translate(597.98 44.07)">O</text></g><polygon points="601.98 80.43 601.98 81.47 601.5 81.47 601.03 81.47 601.03 80.43 601.5 80.43 601.98 80.43"/><polygon points="599.41 80.2 599.41 81.7 598.93 81.7 598.46 81.7 598.46 80.2 598.93 80.2 599.41 80.2"/><polygon points="596.84 79.98 596.84 81.92 596.36 81.92 595.89 81.92 595.89 79.98 596.36 79.98 596.84 79.98"/><polygon points="594.27 79.76 594.27 82.15 593.79 82.15 593.32 82.15 593.32 79.76 593.79 79.76 594.27 79.76"/><polygon points="591.7 79.53 591.7 82.37 591.22 82.37 590.75 82.37 590.75 79.53 591.22 79.53 591.7 79.53"/><polygon points="589.13 79.31 589.13 82.6 588.65 82.6 588.18 82.6 588.18 79.31 588.65 79.31 589.13 79.31"/><polygon points="586.55 79.08 586.55 82.82 586.08 82.82 585.61 82.82 585.61 79.08 586.08 79.08 586.55 79.08"/><polygon points="583.99 78.86 583.99 83.05 583.51 83.05 583.03 83.05 583.03 78.86 583.51 78.86 583.99 78.86"/><g class="cls-1"><text class="cls-2" transform="translate(563.48 83.84)">H</text><text class="cls-3" transform="translate(571.04 85.45)">2</text><text class="cls-2" transform="translate(574.62 83.84)">N</text></g><polygon points="601.79 163.69 583.33 165.33 583.33 163.19 583.33 161.05 601.79 162.69 602.05 163.19 601.79 163.69"/><g class="cls-1"><text class="cls-2" transform="translate(574.24 167.43)">O</text></g><polygon points="574.85 158.15 566.15 143.08 566.44 142.63 566.97 142.6 575.67 157.67 575.26 157.91 574.85 158.15"/><polygon points="566.15 143.08 542.78 140.62 542.83 140.15 543.22 139.71 566.14 142.12 566.44 142.63 566.15 143.08"/><polygon points="542.36 140.25 537.43 117.03 537.89 116.93 538.43 117.17 543.22 139.71 542.83 140.15 542.36 140.25"/><polygon points="537.65 116.52 557.99 104.78 558.45 105.06 558.39 105.64 538.43 117.17 537.89 116.93 537.65 116.52"/><polygon points="558.96 104.88 571.39 116.07 571.07 116.42 570.75 116.77 558.39 105.64 558.45 105.06 558.96 104.88"/><g class="cls-1"><text class="cls-2" transform="translate(572.02 125.18)">O</text></g><polygon points="574.18 126.42 566.97 142.6 566.44 142.63 566.14 142.12 573.31 126.03 573.74 126.22 574.18 126.42"/><polygon points="557.99 104.78 558.83 80.51 560.93 81.45 562.94 82.32 558.96 104.88 558.45 105.06 557.99 104.78"/><polygon points="558.83 80.51 546.47 71.53 546.75 71.14 547.03 70.76 562.94 82.32 560.93 81.45 558.83 80.51"/><g class="cls-1"><text class="cls-2" transform="translate(530.1 71.73)">H</text><text class="cls-2" transform="translate(537.66 71.73)">O</text></g><polygon points="538.04 116.42 537.61 117.38 537.18 117.18 536.74 116.99 537.17 116.03 537.61 116.23 538.04 116.42"/><polygon points="535.52 115.01 534.88 116.45 534.45 116.26 534.02 116.06 534.65 114.63 535.09 114.82 535.52 115.01"/><polygon points="533.01 113.61 532.15 115.52 531.72 115.33 531.29 115.13 532.14 113.22 532.57 113.41 533.01 113.61"/><polygon points="530.49 112.2 529.43 114.59 528.99 114.4 528.56 114.21 529.62 111.81 530.06 112.01 530.49 112.2"/><polygon points="527.97 110.79 526.7 113.66 526.26 113.47 525.83 113.28 527.11 110.41 527.54 110.6 527.97 110.79"/><polygon points="525.46 109.39 523.97 112.73 523.53 112.54 523.1 112.35 524.59 109 525.02 109.19 525.46 109.39"/><polygon points="522.94 107.98 521.24 111.81 520.81 111.61 520.37 111.42 522.08 107.59 522.51 107.79 522.94 107.98"/><g class="cls-1"><text class="cls-2" transform="translate(512.13 111.51)">O</text></g><polygon points="496.92 120.67 509.93 109.19 511.18 110.92 512.44 112.65 497.5 121.48 497 121.22 496.92 120.67"/><polygon points="496.56 121.55 475.37 112.12 475.31 111.57 475.78 111.26 496.92 120.67 497 121.22 496.56 121.55"/><polygon points="475.37 112.12 456.61 125.75 456.1 125.52 455.82 125.14 474.79 111.36 475.31 111.57 475.37 112.12"/><polygon points="456.61 125.75 459.03 148.81 458.58 149.13 458.08 148.88 455.63 125.57 456.1 125.52 456.61 125.75"/><polygon points="459.03 148.81 480.22 158.24 480.27 158.79 479.81 159.1 458.67 149.69 458.58 149.13 459.03 148.81"/><polygon points="480.22 158.24 494.18 148.1 494.46 148.49 494.74 148.87 480.79 159 480.27 158.79 480.22 158.24"/><g class="cls-1"><text class="cls-2" transform="translate(495.41 149.08)">O</text></g><polygon points="498.45 139.61 496.56 121.55 497 121.22 497.5 121.48 499.4 139.51 498.92 139.56 498.45 139.61"/><polygon points="480.79 159 484.76 181.53 482.75 182.4 480.65 183.34 479.81 159.1 480.27 158.79 480.79 159"/><polygon points="484.76 181.53 468.56 193.3 468.28 192.92 468 192.53 480.65 183.34 482.75 182.4 484.76 181.53"/><g class="cls-1"><text class="cls-2" transform="translate(448.72 199.24)">H</text><text class="cls-3" transform="translate(456.28 200.86)">2</text><text class="cls-2" transform="translate(459.86 199.24)">N</text></g><polygon points="458.67 149.69 445.66 161.17 444.4 159.44 443.15 157.71 458.08 148.88 458.58 149.13 458.67 149.69"/><g class="cls-1"><text class="cls-2" transform="translate(427.75 167.33)">H</text><text class="cls-2" transform="translate(435.31 167.33)">O</text></g><polygon points="456.25 125.01 455.82 125.97 455.39 125.78 454.96 125.59 455.38 124.63 455.82 124.82 456.25 125.01"/><polygon points="453.74 123.61 453.1 125.04 452.66 124.85 452.23 124.66 452.87 123.22 453.3 123.42 453.74 123.61"/><polygon points="451.22 122.2 450.37 124.12 449.93 123.92 449.5 123.73 450.35 121.81 450.79 122.01 451.22 122.2"/><polygon points="448.7 120.8 447.64 123.19 447.2 122.99 446.77 122.8 447.83 120.41 448.27 120.6 448.7 120.8"/><polygon points="446.19 119.39 444.91 122.26 444.48 122.07 444.04 121.87 445.32 119 445.75 119.2 446.19 119.39"/><polygon points="443.67 117.98 442.18 121.33 441.75 121.14 441.31 120.94 442.8 117.6 443.24 117.79 443.67 117.98"/><polygon points="441.15 116.58 439.45 120.4 439.02 120.21 438.58 120.02 440.29 116.19 440.72 116.38 441.15 116.58"/><g class="cls-1"><text class="cls-2" transform="translate(422.78 120.11)">H</text><text class="cls-2" transform="translate(430.35 120.11)">O</text></g><polygon points="474.79 111.36 471.26 93.46 473.38 93.24 475.51 93.02 475.78 111.26 475.31 111.57 474.79 111.36"/><g class="cls-1"><text class="cls-2" transform="translate(458 90.85)">H</text><text class="cls-3" transform="translate(465.56 92.46)">2</text><text class="cls-2" transform="translate(469.14 90.85)">N</text></g><polygon points="542.38 139.85 543.17 140.56 542.85 140.92 542.53 141.27 541.75 140.56 542.06 140.21 542.38 139.85"/><polygon points="540.45 141.61 541.62 142.67 541.3 143.02 540.99 143.38 539.81 142.32 540.13 141.97 540.45 141.61"/><polygon points="538.51 143.37 540.08 144.78 539.76 145.13 539.44 145.48 537.88 144.08 538.2 143.73 538.51 143.37"/><polygon points="536.58 145.13 538.53 146.88 538.21 147.24 537.89 147.59 535.95 145.84 536.26 145.49 536.58 145.13"/><polygon points="534.65 146.89 536.98 148.99 536.66 149.34 536.35 149.7 534.01 147.6 534.33 147.24 534.65 146.89"/><polygon points="532.71 148.65 535.43 151.1 535.12 151.45 534.8 151.8 532.08 149.36 532.4 149 532.71 148.65"/><polygon points="530.78 150.41 533.88 153.21 533.57 153.56 533.25 153.91 530.14 151.12 530.46 150.76 530.78 150.41"/><g class="cls-1"><text class="cls-2" transform="translate(515.31 162.03)">H</text><text class="cls-2" transform="translate(522.87 162.03)">O</text></g><polygon points="613.42 183.55 614.34 184.08 614.1 184.49 613.86 184.9 612.95 184.38 613.19 183.96 613.42 183.55"/><polygon points="611.81 185.82 613.18 186.61 612.94 187.02 612.7 187.43 611.34 186.64 611.58 186.23 611.81 185.82"/><polygon points="610.2 188.09 612.02 189.14 611.78 189.55 611.54 189.96 609.73 188.91 609.97 188.5 610.2 188.09"/><polygon points="608.59 190.36 610.86 191.67 610.62 192.08 610.38 192.49 608.12 191.18 608.35 190.77 608.59 190.36"/><polygon points="606.98 192.63 609.7 194.2 609.46 194.61 609.23 195.02 606.51 193.45 606.74 193.04 606.98 192.63"/><polygon points="605.37 194.9 608.54 196.73 608.3 197.14 608.07 197.55 604.89 195.72 605.13 195.31 605.37 194.9"/><polygon points="603.76 197.16 607.38 199.25 607.14 199.67 606.91 200.08 603.28 197.99 603.52 197.57 603.76 197.16"/><g class="cls-1"><text class="cls-2" transform="translate(590.42 208.55)">H</text><text class="cls-2" transform="translate(597.98 208.55)">O</text></g><polygon points="638.22 183.73 648.33 197.96 646.48 199.03 644.63 200.1 637.36 184.22 637.66 183.75 638.22 183.73"/><g class="cls-1"><text class="cls-2" transform="translate(645.75 207.2)">N</text><text class="cls-2" transform="translate(653.31 207.2)">H</text><text class="cls-3" transform="translate(660.87 208.81)">2</text></g><text class="cls-4" transform="translate(488.79 242.11)">paromomycin: ~10mM </text><polygon points="283.83 174.46 271.35 196.07 270.77 196.07 270.48 195.57 282.67 174.46 283.25 174.46 283.83 174.46"/><polygon points="270.48 196.57 246.1 196.57 245.81 196.07 246.1 195.57 270.48 195.57 270.77 196.07 270.48 196.57"/><polygon points="245.23 196.07 233.04 174.95 233.33 174.46 233.91 174.46 246.1 195.57 245.81 196.07 245.23 196.07"/><polygon points="233.04 173.96 245.23 152.84 245.81 152.84 246.1 153.34 233.91 174.46 233.33 174.46 233.04 173.96"/><polygon points="246.1 152.34 270.48 152.34 270.77 152.84 270.48 153.34 246.1 153.34 245.81 152.84 246.1 152.34"/><polygon points="270.48 152.34 279.61 136.52 280.05 136.77 280.48 137.02 271.35 152.84 270.77 152.84 270.48 152.34"/><g class="cls-1"><text class="cls-5" transform="translate(279.28 134.26)">N</text><text class="cls-5" transform="translate(287.23 134.26)">H</text><text class="cls-6" transform="translate(295.18 135.95)">2</text></g><polygon points="271.35 152.84 283.83 174.46 283.25 174.46 282.67 174.46 270.48 153.34 270.77 152.84 271.35 152.84"/><polygon points="245.23 152.84 236.1 137.02 236.53 136.77 236.97 136.52 246.1 152.34 245.81 152.84 245.23 152.84"/><g class="cls-1"><text class="cls-5" transform="translate(229.05 135.68)">O</text></g><polygon points="236.1 125.42 245.23 109.6 245.81 109.6 246.1 110.1 236.97 125.92 236.53 125.67 236.1 125.42"/><polygon points="245.23 109.6 233.04 88.49 233.33 87.99 233.91 87.99 246.1 109.11 245.81 109.6 245.23 109.6"/><polygon points="233.04 87.49 245.23 66.37 245.81 66.37 246.1 66.87 233.91 87.99 233.33 87.99 233.04 87.49"/><polygon points="246.1 65.87 270.48 65.87 270.77 66.37 270.48 66.87 246.1 66.87 245.81 66.37 246.1 65.87"/><polygon points="271.35 66.37 283.54 87.49 283.25 87.99 282.67 87.99 270.48 66.87 270.77 66.37 271.35 66.37"/><polygon points="283.54 88.49 274.41 104.3 273.98 104.05 273.54 103.8 282.67 87.99 283.25 87.99 283.54 88.49"/><g class="cls-1"><text class="cls-5" transform="translate(266.49 114.06)">O</text></g><polygon points="265.49 110.1 246.1 110.1 245.81 109.6 246.1 109.11 265.49 109.11 265.49 109.6 265.49 110.1"/><polygon points="283.54 87.49 307.92 87.49 308.21 87.99 308.5 88.49 283.54 88.49 283.25 87.99 283.54 87.49"/><polygon points="307.92 87.49 317.06 71.67 317.49 71.92 317.92 72.17 308.5 88.49 308.21 87.99 307.92 87.49"/><g class="cls-1"><text class="cls-5" transform="translate(316.72 69.41)">N</text><text class="cls-5" transform="translate(324.67 69.41)">H</text><text class="cls-6" transform="translate(332.62 71.1)">2</text></g><polygon points="270.48 65.87 279.61 50.06 280.05 50.31 280.48 50.55 271.35 66.37 270.77 66.37 270.48 65.87"/><g class="cls-1"><text class="cls-5" transform="translate(278.97 49.21)">O</text><text class="cls-5" transform="translate(287.53 49.21)">H</text></g><polygon points="245.23 66.37 236.1 50.55 236.53 50.31 236.97 50.06 246.1 65.87 245.81 66.37 245.23 66.37"/><g class="cls-1"><text class="cls-5" transform="translate(221.1 49.21)">H</text><text class="cls-5" transform="translate(229.05 49.21)">O</text></g><polygon points="233.04 88.49 213.34 88.49 213.34 87.99 213.34 87.49 233.04 87.49 233.33 87.99 233.04 88.49"/><g class="cls-1"><text class="cls-5" transform="translate(192.77 91.03)">H</text><text class="cls-6" transform="translate(200.72 92.72)">2</text><text class="cls-5" transform="translate(204.49 91.03)">N</text></g><polygon points="233.04 174.95 213.65 174.95 213.65 174.46 213.65 173.96 233.04 173.96 233.33 174.46 233.04 174.95"/><g class="cls-1"><text class="cls-5" transform="translate(204.09 178.91)">O</text></g><polygon points="204.73 169.15 195.58 153.31 195.89 152.84 196.45 152.81 205.59 168.65 205.16 168.9 204.73 169.15"/><polygon points="195.58 153.31 171.26 150.75 171.06 150.23 171.48 149.77 195.58 152.3 195.89 152.84 195.58 153.31"/><polygon points="170.52 150.09 165.44 126.17 165.87 125.81 166.44 126.06 171.48 149.77 171.06 150.23 170.52 150.09"/><polygon points="165.84 125.25 187.02 113.03 187.49 113.33 187.43 113.95 166.44 126.06 165.87 125.81 165.84 125.25"/><polygon points="188.01 113.13 201.09 124.91 200.76 125.28 200.42 125.65 187.43 113.95 187.49 113.33 188.01 113.13"/><g class="cls-1"><text class="cls-5" transform="translate(201.76 134.49)">O</text></g><polygon points="204.02 135.79 196.45 152.81 195.89 152.84 195.58 152.3 203.11 135.38 203.57 135.59 204.02 135.79"/><polygon points="187.02 113.03 189.57 88.74 190.1 88.51 190.63 88.28 188.01 113.13 187.49 113.33 187.02 113.03"/><polygon points="189.57 88.74 174.89 78.08 175.19 77.67 175.48 77.27 190.63 88.28 190.1 88.51 189.57 88.74"/><g class="cls-1"><text class="cls-5" transform="translate(157.68 78.29)">H</text><text class="cls-5" transform="translate(165.63 78.29)">O</text></g><polygon points="165.44 126.17 148.15 118.47 148.35 118.01 148.55 117.56 165.84 125.25 165.87 125.81 165.44 126.17"/><g class="cls-1"><text class="cls-5" transform="translate(138.79 120.12)">O</text></g><polygon points="138.08 119.9 123.4 130.57 122.88 130.33 122.82 129.76 137.5 119.09 137.79 119.5 138.08 119.9"/><polygon points="122.41 130.67 100.13 120.75 100.07 120.18 100.54 119.84 122.82 129.76 122.88 130.33 122.41 130.67"/><polygon points="100.13 120.75 80.41 135.09 79.88 134.85 79.82 134.28 99.55 119.95 100.07 120.18 100.13 120.75"/><polygon points="80.41 135.09 82.95 159.34 82.49 159.68 81.96 159.44 79.41 135.19 79.88 134.85 80.41 135.09"/><polygon points="82.95 159.34 105.23 169.25 105.29 169.83 104.83 170.17 82.55 160.25 82.49 159.68 82.95 159.34"/><polygon points="105.23 169.25 119.91 158.59 120.2 158.99 120.5 159.4 105.82 170.06 105.29 169.83 105.23 169.25"/><g class="cls-1"><text class="cls-5" transform="translate(121.2 159.62)">O</text></g><polygon points="124.41 149.66 122.41 130.67 122.88 130.33 123.4 130.57 125.4 149.55 124.9 149.61 124.41 149.66"/><polygon points="105.82 170.06 108.43 194.89 107.9 194.65 107.37 194.42 104.83 170.17 105.29 169.83 105.82 170.06"/><polygon points="108.43 194.89 92.97 206.12 92.68 205.71 92.39 205.31 107.37 194.42 107.9 194.65 108.43 194.89"/><g class="cls-1"><text class="cls-5" transform="translate(72.11 212.36)">H</text><text class="cls-6" transform="translate(80.06 214.06)">2</text><text class="cls-5" transform="translate(83.83 212.36)">N</text></g><polygon points="82.55 160.25 67.87 170.91 67.57 170.51 67.28 170.11 81.96 159.44 82.49 159.68 82.55 160.25"/><g class="cls-1"><text class="cls-5" transform="translate(50.07 178.8)">H</text><text class="cls-5" transform="translate(58.01 178.8)">O</text></g><polygon points="79.41 135.19 62.15 127.51 62.35 127.05 62.56 126.59 79.82 134.28 79.88 134.85 79.41 135.19"/><g class="cls-1"><text class="cls-5" transform="translate(44.85 129.16)">H</text><text class="cls-5" transform="translate(52.79 129.16)">O</text></g><polygon points="99.55 119.95 97.55 100.96 98.05 100.91 98.54 100.85 100.54 119.84 100.07 120.18 99.55 119.95"/><g class="cls-1"><text class="cls-5" transform="translate(81.87 98.39)">H</text><text class="cls-6" transform="translate(89.82 100.09)">2</text><text class="cls-5" transform="translate(93.59 98.39)">N</text></g><polygon points="171.26 150.75 159.73 163.56 159.36 163.23 158.99 162.89 170.52 150.09 171.06 150.23 171.26 150.75"/><g class="cls-1"><text class="cls-5" transform="translate(142.13 173.24)">H</text><text class="cls-5" transform="translate(150.08 173.24)">O</text></g><polygon points="246.1 196.57 236.97 212.39 236.53 212.14 236.1 211.89 245.23 196.07 245.81 196.07 246.1 196.57"/><g class="cls-1"><text class="cls-5" transform="translate(221.1 222.15)">H</text><text class="cls-5" transform="translate(229.05 222.15)">O</text></g><polygon points="271.35 196.07 280.48 211.89 280.05 212.14 279.61 212.39 270.48 196.57 270.77 196.07 271.35 196.07"/><g class="cls-1"><text class="cls-5" transform="translate(279.28 220.73)">N</text><text class="cls-5" transform="translate(287.23 220.73)">H</text><text class="cls-6" transform="translate(295.18 222.42)">2</text></g><text class="cls-4" transform="translate(83.83 255.11)">neomycin B: 100nM </text></svg>