<svg id="图层_1" data-name="图层 1" xmlns="http://www.w3.org/2000/svg" xmlns:xlink="http://www.w3.org/1999/xlink" viewBox="0 0 1200 400"><defs><style>.cls-1,.cls-5{fill:none;}.cls-2{clip-path:url(#clip-path);}.cls-3,.cls-6{fill:gray;}.cls-3{stroke:gray;}.cls-4{fill:#20b2aa;stroke:#20b2aa;}.cls-5{stroke:orange;stroke-linecap:square;stroke-linejoin:round;stroke-width:2.4px;}.cls-7{font-size:20px;font-family:ArialMT, Arial;}.cls-8{letter-spacing:-0.06em;}</style><clipPath id="clip-path"><rect class="cls-1" x="172.8" y="70.4" width="950.73" height="900.88"/></clipPath></defs><g id="figure_1" data-name="figure 1"><g id="axes_1" data-name="axes 1"><g id="patch_2" data-name="patch 2"><g class="cls-2"><path class="cls-3" d="M171.85,138h77v-2.71h-77Z"/></g></g><g id="patch_3" data-name="patch 3"><g class="cls-2"><path class="cls-4" d="M248.86,151.48H417.23v-27H248.86Z"/></g></g><g id="patch_4" data-name="patch 4"><g class="cls-2"><path class="cls-3" d="M419,138h39v-2.71H419Z"/></g></g><g id="patch_5" data-name="patch 5"><g class="cls-2"><path class="cls-4" d="M458,151.48H607.38v-27H458Z"/></g></g><g id="patch_6" data-name="patch 6"><g class="cls-2"><path class="cls-3" d="M609.19,138h96v-2.71h-96Z"/></g></g><g id="patch_7" data-name="patch 7"><g class="cls-2"><path class="cls-4" d="M705.21,151.48H816.54v-27H705.21Z"/></g></g><g id="patch_8" data-name="patch 8"><g class="cls-2"><path class="cls-3" d="M818.35,138h77v-2.71h-77Z"/></g></g><g id="patch_9" data-name="patch 9"><g class="cls-2"><path class="cls-3" d="M209.88,228.05h77v-2.7h-77Z"/></g></g><g id="patch_10" data-name="patch 10"><g class="cls-2"><path class="cls-4" d="M286.89,241.57h54.29v-27H286.89Z"/></g></g><g id="patch_11" data-name="patch 11"><g class="cls-2"><path class="cls-3" d="M343,228.05h58v-2.7H343Z"/></g></g><g id="patch_12" data-name="patch 12"><g class="cls-2"><path class="cls-3" d="M476.08,228.05h39v-2.7h-39Z"/></g></g><g id="patch_13" data-name="patch 13"><g class="cls-2"><path class="cls-3" d="M704.26,228.05h39v-2.7h-39Z"/></g></g><g id="patch_14" data-name="patch 14"><g class="cls-2"><path class="cls-4" d="M743.24,241.57h35.27v-27H743.24Z"/></g></g><g id="patch_15" data-name="patch 15"><g class="cls-2"><path class="cls-3" d="M780.32,228.05h96v-2.7h-96Z"/></g></g><g id="patch_16" data-name="patch 16"><g class="cls-2"><path class="cls-3" d="M247.91,318.14h58v-2.7h-58Z"/></g></g><g id="patch_17" data-name="patch 17"><g class="cls-2"><path class="cls-3" d="M571.16,318.14h20v-2.7h-20Z"/></g></g><g id="patch_18" data-name="patch 18"><g class="cls-2"><path class="cls-4" d="M591.12,331.65h16.26v-27H591.12Z"/></g></g><g id="patch_19" data-name="patch 19"><g class="cls-2"><path class="cls-3" d="M609.19,318.14h96v-2.7h-96Z"/></g></g><g id="patch_20" data-name="patch 20"><g class="cls-2"><path class="cls-4" d="M705.21,331.65h16.26v-27H705.21Z"/></g></g><g id="patch_21" data-name="patch 21"><g class="cls-2"><path class="cls-3" d="M951.45,318.14h20v-2.7h-20Z"/></g></g><g id="line2d_1" data-name="line2d 1"><g class="cls-2"><path class="cls-5" d="M897.73,138l2.25,4.38,2.25,3.27,2.24,1.34,2.25-.92,2.25-3,2.25-4.25,2.24-4.47,2.25-3.55,2.25-1.75,2.24.5,2.25,2.62,2.25,4.09,2.25,4.52,2.24,3.8,2.25,2.14,2.25-.07,2.25-2.26,2.24-3.89,2.25-4.52,2.25-4,2.24-2.51,2.25-.36,2.25,1.88,2.25,3.65,2.24,4.49,2.25,4.2,2.25,2.85,2.24.79,2.25-1.48,2.25-3.38,2.25-4.41,2.24-4.34,2.25-3.18,2.25-1.2,2.24,1.06,2.25,3.07,2.25,4.3,2.25,4.45,2.24,3.46,2.25,1.62,2.25-.65,2.24-2.74,2.25-4.14,2.25-4.51,2.25-3.72,2.24-2,2.25.21,2.25,2.39,2.24,3.95,2.25,4.53,2.25,4,2.25,2.39,2.24.21,2.25-2,2.25-3.72,2.25-4.51,2.24-4.14,2.25-2.74,2.25-.65,2.24,1.62,2.25,3.46,2.25,4.45,2.25,4.3,2.24,3.07,2.25,1.06,2.25-1.2,2.24-3.18,2.25-4.34,2.25-4.41,2.25-3.37,2.24-1.48,2.25.78,2.25,2.85,2.24,4.21,2.25,4.48,2.25,3.65,2.25,1.88,2.24-.36,2.25-2.51,2.25-4,2.24-4.52,2.25-3.89,2.25-2.26,2.25-.07,2.24,2.14,2.25,3.8,2.25,4.52,2.24,4.09,2.25,2.62,2.25.5,2.25-1.75,2.24-3.55,2.25-4.47,2.25-4.25,2.25-3,2.24-.92,2.25,1.34,2.25,3.28,2.24,4.38"/></g></g><g id="line2d_2" data-name="line2d 2"><g class="cls-2"><path class="cls-5" d="M175.18,228.05l.32,1.14.33,1.13.33,1.08.32,1,.33,1,.33.88.32.78.33.66.33.54.32.41.33.27.33.12.32,0,.33-.16.33-.3.32-.44.33-.58.33-.69.32-.8.33-.9.33-1,.32-1.05.33-1.09.32-1.13.33-1.14.33-1.14.32-1.11.33-1.08.33-1,.32-1,.33-.85.33-.75.32-.63.33-.51.33-.37.32-.23.33-.09.33,0,.32.2.33.34.33.47.32.61.33.72.32.82.33.92.33,1,.32,1.06.33,1.11.33,1.13.32,1.14.33,1.14.33,1.1.32,1.07.33,1,.33.92.32.83.33.72.33.6.32.48.33.34.33.2.32.05.33-.09.33-.23.32-.38.33-.5.32-.64.33-.75.33-.85.32-.94.33-1,.33-1.08.32-1.11.33-1.14.33-1.14.32-1.13.33-1.1.33-1,.32-1,.33-.89.33-.8.32-.7.33-.57.33-.44.32-.3.33-.17.32,0,.33.13.33.27.32.41.33.54.33.66.32.78.33.87.33,1,.32,1,.33,1.08.33,1.12.32,1.14"/></g></g><g id="line2d_3" data-name="line2d 3"><g class="cls-2"><path class="cls-5" d="M403.35,228.05l.71,1.71.71,1.64.72,1.52.71,1.35.71,1.12.71.86.71.56.71.24.71-.08.71-.4.71-.71.71-1,.71-1.24.71-1.44.71-1.59.71-1.68.71-1.71.72-1.68.71-1.59.71-1.45.71-1.23.71-1,.71-.71.71-.4.71-.09.71.25.71.56.71.86.71,1.12.71,1.34.71,1.53.71,1.64.71,1.7.72,1.71.71,1.64.71,1.52.71,1.35.71,1.12.71.86.71.56.71.24.71-.08.71-.4.71-.71.71-1,.71-1.24.71-1.44.71-1.59.72-1.68.71-1.71.71-1.68.71-1.59.71-1.45.71-1.23.71-1,.71-.71.71-.4.71-.09.71.25.71.56.71.86.71,1.12.71,1.34.71,1.53.72,1.64.71,1.7.71,1.71.71,1.64.71,1.52.71,1.35.71,1.12.71.86.71.56.71.24.71-.08.71-.4.71-.71.71-1,.71-1.24.72-1.44.71-1.59.71-1.68.71-1.71.71-1.68.71-1.59.71-1.45.71-1.23.71-1,.71-.71.71-.4.71-.09.71.25.71.56.71.86.71,1.12.72,1.34.71,1.53.71,1.64.71,1.7"/></g></g><g id="line2d_4" data-name="line2d 4"><g class="cls-2"><path class="cls-5" d="M517.44,228.05l1.86,3.88,1.87,3.12,1.86,1.76,1.86.06,1.87-1.65,1.86-3,1.86-3.84,1.87-3.9,1.86-3.19,1.86-1.88,1.86-.19,1.87,1.54,1.86,2.95,1.86,3.81,1.87,3.92,1.86,3.27,1.86,2L551,237l1.86-1.42,1.86-2.87,1.87-3.77,1.86-3.94,1.86-3.34,1.86-2.09,1.87-.44,1.86,1.3,1.86,2.78,1.87,3.73,1.86,4,1.86,3.41,1.87,2.2,1.86.56,1.86-1.17,1.86-2.7,1.87-3.68,1.86-4,1.86-3.47,1.87-2.31,1.86-.69,1.86,1.06,1.87,2.6,1.86,3.64,1.86,4,1.87,3.52,1.86,2.41,1.86.81,1.86-.93,1.87-2.51,1.86-3.58,1.86-4,1.87-3.59,1.86-2.5,1.86-.93,1.87.81,1.86,2.4,1.86,3.53,1.86,4,1.87,3.63,1.86,2.6,1.86,1.06,1.87-.69,1.86-2.3,1.86-3.47,1.87-4,1.86-3.69,1.86-2.69,1.87-1.18,1.86.57,1.86,2.2,1.86,3.4,1.87,3.95,1.86,3.73,1.86,2.79,1.87,1.3,1.86-.44,1.86-2.1,1.87-3.34,1.86-3.93,1.86-3.77,1.86-2.88,1.87-1.41,1.86.31,1.86,2,1.87,3.27,1.86,3.91,1.86,3.81,1.87,3,1.86,1.54,1.86-.19,1.87-1.88,1.86-3.19,1.86-3.9,1.86-3.84,1.87-3.05,1.86-1.64,1.86.06,1.87,1.76,1.86,3.12,1.86,3.87"/></g></g><g id="line2d_5" data-name="line2d 5"><g class="cls-2"><path class="cls-5" d="M878.72,228.05l2.44,4.87,2.44,3.33L886,237l2.44-2.11,2.43-4.27,2.44-5.07,2.44-4.27,2.44-2.11,2.44.72,2.44,3.32,2.44,4.87,2.44,4.87,2.44,3.33,2.44.72,2.44-2.11,2.44-4.27,2.44-5.07,2.43-4.27,2.44-2.11,2.44.72,2.44,3.32,2.44,4.87,2.44,4.87,2.44,3.33,2.44.72,2.44-2.11,2.44-4.27,2.44-5.07,2.44-4.27,2.44-2.11,2.44.72,2.43,3.32,2.44,4.87,2.44,4.87,2.44,3.33,2.44.72,2.44-2.11,2.44-4.27,2.44-5.07,2.44-4.27,2.44-2.11,2.44.72,2.44,3.32,2.44,4.87,2.43,4.87,2.44,3.33,2.44.72,2.44-2.11,2.44-4.27,2.44-5.07,2.44-4.27,2.44-2.11,2.44.72,2.44,3.32,2.44,4.87,2.44,4.87,2.44,3.33,2.43.72,2.44-2.11,2.44-4.27,2.44-5.07,2.44-4.27,2.44-2.11,2.44.72,2.44,3.32,2.44,4.87,2.44,4.87,2.44,3.33,2.44.72,2.44-2.11,2.44-4.27,2.43-5.07,2.44-4.27,2.44-2.11,2.44.72,2.44,3.32,2.44,4.87,2.44,4.87,2.44,3.33,2.44.72,2.44-2.11,2.44-4.27,2.44-5.07,2.44-4.27,2.43-2.11,2.44.72,2.44,3.32,2.44,4.87,2.44,4.87,2.44,3.33,2.44.72,2.44-2.11,2.44-4.27,2.44-5.07,2.44-4.27,2.44-2.11,2.44.72,2.43,3.32,2.44,4.87"/></g></g><g id="line2d_6" data-name="line2d 6"><g class="cls-2"><path class="cls-5" d="M175.18,318.14l.71,1.71.71,1.64.71,1.52.71,1.35.71,1.12.71.86.71.56.71.24.71-.08.71-.41.72-.71.71-1,.71-1.24.71-1.44.71-1.59.71-1.68.71-1.71.71-1.69.71-1.59.71-1.44.71-1.24.71-1,.71-.71.71-.41.71-.08.72.25.71.56.71.85.71,1.12.71,1.35.71,1.52.71,1.65.71,1.7.71,1.71.71,1.64.71,1.52.71,1.35.71,1.12.71.86.71.56.71.24.72-.08.71-.41.71-.71.71-1,.71-1.24.71-1.44.71-1.59L210,319l.71-1.71.71-1.69.71-1.59.71-1.44.71-1.24.71-1,.71-.71.72-.41.71-.08.71.25.71.56.71.85.71,1.12.71,1.35.71,1.52.71,1.65.71,1.7.71,1.71.71,1.64.71,1.52.71,1.35.71,1.12.71.86.72.56.71.24.71-.08.71-.41.71-.71.71-1,.71-1.24.71-1.44.71-1.59.71-1.68.71-1.71.71-1.69.71-1.59.71-1.44.71-1.24.72-1,.71-.71.71-.41.71-.08.71.25.71.56.71.85.71,1.12.71,1.35.71,1.52.71,1.65.71,1.7"/></g></g><g id="line2d_7" data-name="line2d 7"><g class="cls-2"><path class="cls-5" d="M308.28,318.14l2.63,5.34,2.63,3.26,2.63-.09,2.64-3.4,2.63-5.39,2.63-5.29,2.63-3.11,2.63.27,2.63,3.54,2.63,5.44,2.63,5.22,2.64,3,2.63-.45,2.63-3.68,2.63-5.48,2.63-5.16,2.63-2.81,2.63.63,2.64,3.81,2.63,5.52,2.63,5.08,2.63,2.65,2.63-.8,2.63-3.94,2.63-5.55,2.63-5,2.64-2.5,2.63,1,2.63,4.07,2.63,5.58,2.63,4.91,2.63,2.33,2.63-1.15,2.64-4.19,2.63-5.59,2.63-4.83,2.63-2.17,2.63,1.33,2.63,4.3,2.63,5.61,2.63,4.73,2.64,2,2.63-1.5,2.63-4.42,2.63-5.62,2.63-4.63,2.63-1.84,2.63,1.67,2.63,4.53,2.64,5.62,2.63,4.53,2.63,1.67,2.63-1.84,2.63-4.63,2.63-5.62,2.63-4.42,2.64-1.5,2.63,2,2.63,4.73,2.63,5.61,2.63,4.31,2.63,1.32,2.63-2.17,2.63-4.82,2.64-5.6,2.63-4.19,2.63-1.15,2.63,2.33,2.63,4.92,2.63,5.57,2.63,4.07,2.64,1,2.63-2.5,2.63-5,2.63-5.55,2.63-3.94,2.63-.8,2.63,2.65,2.63,5.08,2.64,5.52,2.63,3.82,2.63.62,2.63-2.81,2.63-5.15,2.63-5.49,2.63-3.68,2.63-.44,2.64,3,2.63,5.22L545.1,323l2.63,3.55,2.63.26,2.63-3.11,2.63-5.28,2.64-5.4,2.63-3.4,2.63-.09,2.63,3.26,2.63,5.34"/></g></g><g id="line2d_8" data-name="line2d 8"><g class="cls-2"><path class="cls-5" d="M726.6,318.14l2.25,4.38,2.25,3.28,2.24,1.34,2.25-.93,2.25-3,2.24-4.25,2.25-4.47,2.25-3.56,2.25-1.75,2.24.51,2.25,2.62,2.25,4.09,2.25,4.51,2.24,3.81,2.25,2.14,2.25-.08,2.24-2.26,2.25-3.88,2.25-4.52,2.25-4,2.24-2.5,2.25-.36,2.25,1.88,2.24,3.64,2.25,4.49,2.25,4.2,2.25,2.86,2.24.78,2.25-1.48,2.25-3.37,2.24-4.41,2.25-4.35,2.25-3.17,2.25-1.21,2.24,1.07,2.25,3.07,2.25,4.3L812,322l2.25,3.47,2.25,1.61,2.25-.64,2.24-2.74,2.25-4.15,2.25-4.5,2.24-3.73,2.25-2,2.25.22,2.25,2.38,2.24,4L839,320.4l2.25,4,2.25,2.38,2.24.22,2.25-2,2.25-3.73,2.24-4.5,2.25-4.15,2.25-2.74,2.25-.64,2.24,1.61,2.25,3.47,2.25,4.44,2.24,4.3,2.25,3.07,2.25,1.07,2.25-1.21,2.24-3.17,2.25-4.34,2.25-4.42,2.24-3.37,2.25-1.48,2.25.79,2.25,2.85,2.24,4.2,2.25,4.49,2.25,3.64,2.24,1.88,2.25-.36,2.25-2.5,2.25-4,2.24-4.53,2.25-3.88,2.25-2.26,2.24-.07,2.25,2.13,2.25,3.81,2.25,4.52,2.24,4.08,2.25,2.63,2.25.5,2.25-1.75,2.24-3.56,2.25-4.46,2.25-4.26,2.24-3,2.25-.93,2.25,1.35,2.25,3.27,2.24,4.38"/></g></g><g id="text_1" data-name="text 1"><path id="DejaVuSansMono-Bold-67" d="M181.73,115a4.59,4.59,0,0,1-2.41.67,4.06,4.06,0,0,1-3.61-1.85,9.61,9.61,0,0,1-1.24-5.36,9.65,9.65,0,0,1,1.24-5.37,4.07,4.07,0,0,1,3.61-1.86,4.86,4.86,0,0,1,1.27.17,4.16,4.16,0,0,1,1.14.5V105a4.68,4.68,0,0,0-1.15-1,2.35,2.35,0,0,0-1.16-.31,2.06,2.06,0,0,0-1.91,1.2,10.19,10.19,0,0,0,0,7.11,2.07,2.07,0,0,0,1.91,1.19,2.45,2.45,0,0,0,1.16-.3,4.68,4.68,0,0,0,1.15-1Z"/><path id="DejaVuSansMono-Bold-83" d="M196.55,109.34a5.84,5.84,0,0,1-2.36-1.67,4,4,0,0,1-.62-2.34,4.15,4.15,0,0,1,1-3,3.62,3.62,0,0,1,2.79-1.09,6.37,6.37,0,0,1,1.61.22,7.19,7.19,0,0,1,1.59.65v2.69a5.92,5.92,0,0,0-1.5-1,4,4,0,0,0-1.52-.32,1.82,1.82,0,0,0-1.28.4,1.45,1.45,0,0,0-.45,1.14,1.4,1.4,0,0,0,.33,1,3.88,3.88,0,0,0,1.35.83l1,.45a4.12,4.12,0,0,1,2.74,4.2,3.68,3.68,0,0,1-4.2,4.18,6.52,6.52,0,0,1-1.74-.24,6.94,6.94,0,0,1-1.68-.74v-2.84a7.75,7.75,0,0,0,1.78,1.17,4.31,4.31,0,0,0,1.71.38,1.78,1.78,0,0,0,1.32-.46,1.71,1.71,0,0,0,.47-1.29,1.92,1.92,0,0,0-.31-1.1,2.12,2.12,0,0,0-.91-.74Z"/><path id="DejaVuSansMono-Bold-80" d="M215.42,103.84v4.08h1a1.71,1.71,0,0,0,2-2,1.7,1.7,0,0,0-2-2Zm-2.31-2.32h3.17a4.92,4.92,0,0,1,3.48,1,5.76,5.76,0,0,1,0,6.66,4.92,4.92,0,0,1-3.48,1h-.86v5.21h-2.31Z"/><path id="DejaVuSansMono-Bold-71" d="M238,112.93v-2.66h-1.58V108H240v6.37a4.6,4.6,0,0,1-1.47,1,4.29,4.29,0,0,1-1.72.34,3.94,3.94,0,0,1-3.5-1.87,9.77,9.77,0,0,1-1.23-5.34,9.65,9.65,0,0,1,1.24-5.37,4.09,4.09,0,0,1,3.6-1.86,4.19,4.19,0,0,1,1.39.24,4.87,4.87,0,0,1,1.27.68v3a3.49,3.49,0,0,0-1.11-1.12,2.65,2.65,0,0,0-1.38-.38,2.11,2.11,0,0,0-2,1.18,7.59,7.59,0,0,0-.65,3.58,8,8,0,0,0,.62,3.53,2,2,0,0,0,1.82,1.21,2,2,0,0,0,.63-.08A1,1,0,0,0,238,112.93Z"/></g><g id="text_2" data-name="text 2"><path id="DejaVuSans-124" d="M174.59,87.86V98h-.71V87.86Z"/></g><g id="text_3" data-name="text 3"><path id="DejaVuSans-49" d="M174.07,82.9h1.65V76.12l-1.8.43V75.46l1.79-.43h1V82.9h1.65v1h-4.29Z"/></g><g id="text_4" data-name="text 4"><path id="DejaVuSansMono-Bold-73" d="M250.68,104v-2.43h6.95V104h-2.32V113h2.32v2.42h-6.95V113H253V104Z"/><path id="DejaVuSansMono-Bold-87" d="M268.62,101.52h2l.84,10.22,1-6.61h1.92l1.17,6.61.66-10.22h2l-1.34,13.92h-2.15l-1.33-7.31-1.25,7.31h-2.13Z"/><path id="DejaVuSansMono-Bold-81" d="M293,115.66l-.18,0h-.14a3.3,3.3,0,0,1-3-1.82,11.2,11.2,0,0,1-1-5.39,11.21,11.21,0,0,1,1-5.4,3.48,3.48,0,0,1,6.13,0,11.2,11.2,0,0,1,1,5.4,15,15,0,0,1-.49,4.11A4.43,4.43,0,0,1,294.9,115l1.46,1.69-1.58,1.4Zm-.31-11.92c-.59,0-1,.38-1.29,1.13a11.72,11.72,0,0,0-.4,3.63,11.69,11.69,0,0,0,.4,3.62c.27.75.7,1.12,1.29,1.12s1-.37,1.3-1.12a16.23,16.23,0,0,0,0-7.25C293.75,104.12,293.32,103.74,292.72,103.74Z"/><path id="DejaVuSansMono-Bold-76" d="M309,115.44V101.52h2.31V113h4.93v2.42Z"/><path id="DejaVuSansMono-Bold-68" d="M329.85,104V113h.63a2.05,2.05,0,0,0,1.94-1,10.61,10.61,0,0,0,0-6.92,2,2,0,0,0-1.94-1Zm-2.3-2.49H330a4.91,4.91,0,0,1,4.12,1.63q1.26,1.63,1.26,5.32t-1.26,5.34a4.88,4.88,0,0,1-4.12,1.63h-2.47Z"/><path id="DejaVuSansMono-Bold-67-2" data-name="DejaVuSansMono-Bold-67" d="M354.21,115a4.18,4.18,0,0,1-1.15.5,4.36,4.36,0,0,1-1.26.17,4.06,4.06,0,0,1-3.61-1.85A9.61,9.61,0,0,1,347,108.5a9.65,9.65,0,0,1,1.24-5.37,4.07,4.07,0,0,1,3.61-1.86,4.86,4.86,0,0,1,1.27.17,4.16,4.16,0,0,1,1.14.5V105a4.51,4.51,0,0,0-1.15-1,2.31,2.31,0,0,0-1.15-.31,2.06,2.06,0,0,0-1.92,1.2,10.19,10.19,0,0,0,0,7.11,2.07,2.07,0,0,0,1.92,1.19,2.41,2.41,0,0,0,1.15-.3,4.51,4.51,0,0,0,1.15-1Z"/><path id="DejaVuSansMono-Bold-84" d="M371,115.44h-2.31V103.93h-3v-2.41H374v2.41h-3Z"/><path id="DejaVuSansMono-Bold-72" d="M385.4,101.52h2.31v5.31h2.88v-5.31h2.31v13.92h-2.31v-6.19h-2.88v6.19H385.4Z"/><path id="DejaVuSansMono-Bold-76-2" data-name="DejaVuSansMono-Bold-76" d="M405.37,115.44V101.52h2.31V113h4.93v2.42Z"/></g><g id="text_5" data-name="text 5"><path id="DejaVuSans-124-2" data-name="DejaVuSans-124" d="M250.65,87.86V98h-.71V87.86Z"/></g><g id="text_6" data-name="text 6"><path id="DejaVuSans-53" d="M250,75h4v1h-3v2.18a2.39,2.39,0,0,1,.43-.14,2.28,2.28,0,0,1,.45,0,2.51,2.51,0,0,1,2,.81,3.19,3.19,0,0,1,.73,2.21,3.12,3.12,0,0,1-.75,2.23,2.76,2.76,0,0,1-2.11.8,5.4,5.4,0,0,1-1-.1,7.24,7.24,0,0,1-1-.28V82.5a3.9,3.9,0,0,0,.93.43,3.33,3.33,0,0,0,1,.14,1.79,1.79,0,0,0,1.37-.54,2.41,2.41,0,0,0,0-2.94,1.79,1.79,0,0,0-1.37-.54,3.22,3.22,0,0,0-.81.11,3.91,3.91,0,0,0-.82.33Z"/></g><g id="text_7" data-name="text 7"><path id="DejaVuSansMono-Bold-69" d="M429.05,115.44h-7.27V101.52h7.27V104h-5v3h4.49v2.43h-4.49V113h5Z"/><path id="DejaVuSansMono-Bold-71-2" data-name="DejaVuSansMono-Bold-71" d="M446.57,112.93v-2.66H445V108h3.6v6.37a4.6,4.6,0,0,1-1.47,1,4.26,4.26,0,0,1-1.72.34,4,4,0,0,1-3.5-1.87,9.77,9.77,0,0,1-1.23-5.34,9.65,9.65,0,0,1,1.24-5.37,4.09,4.09,0,0,1,3.6-1.86,4.19,4.19,0,0,1,1.39.24,4.87,4.87,0,0,1,1.27.68v3a3.49,3.49,0,0,0-1.11-1.12,2.65,2.65,0,0,0-1.38-.38,2.11,2.11,0,0,0-2,1.18,7.59,7.59,0,0,0-.65,3.58,8,8,0,0,0,.62,3.53,2,2,0,0,0,1.82,1.21,2,2,0,0,0,.63-.08A1,1,0,0,0,446.57,112.93Z"/></g><g id="text_8" data-name="text 8"><path id="DejaVuSans-124-3" data-name="DejaVuSans-124" d="M421.78,87.86V98h-.71V87.86Z"/></g><g id="text_9" data-name="text 9"><path id="DejaVuSans-49-2" data-name="DejaVuSans-49" d="M421.26,82.9h1.65V76.12l-1.8.43V75.46L422.9,75h1V82.9h1.65v1h-4.29Z"/><path id="DejaVuSans-52" d="M430.36,76.07l-2.55,4.75h2.55Zm-.27-1h1.27v5.79h1.07v1h-1.07v2.09h-1V81.82H427V80.66Z"/></g><g id="text_10" data-name="text 10"><path id="DejaVuSansMono-Bold-75" d="M459.41,101.52h2.31V107l3.61-5.5h2.61L464.26,107l3.82,8.43h-2.57l-2.77-6.26-1,1.55v4.71h-2.31Z"/><path id="DejaVuSansMono-Bold-86" d="M482.6,113.15l2-11.63H487l-2.78,13.92H481l-2.77-13.92h2.32Z"/><path id="DejaVuSansMono-Bold-73-2" data-name="DejaVuSansMono-Bold-73" d="M498.41,104v-2.43h6.95V104H503V113h2.32v2.42h-6.95V113h2.32V104Z"/><path id="DejaVuSansMono-Bold-76-3" data-name="DejaVuSansMono-Bold-76" d="M518.11,115.44V101.52h2.31V113h4.93v2.42Z"/><path id="DejaVuSansMono-Bold-86-2" data-name="DejaVuSansMono-Bold-86" d="M540.45,113.15l2.06-11.63h2.32l-2.77,13.92h-3.2l-2.78-13.92h2.32Z"/><path id="DejaVuSansMono-Bold-65" d="M559.74,104l-1.09,5.7h2.18Zm-1.41-2.52h2.82l3.15,13.92H562l-.72-3.44h-3.09l-.71,3.44h-2.3Z"/><path id="DejaVuSansMono-Bold-86-3" data-name="DejaVuSansMono-Bold-86" d="M579,113.15l2.06-11.63h2.32l-2.77,13.92h-3.2l-2.78-13.92H577Z"/><path id="DejaVuSansMono-Bold-72-2" data-name="DejaVuSansMono-Bold-72" d="M594.56,101.52h2.31v5.31h2.88v-5.31h2.31v13.92h-2.31v-6.19h-2.88v6.19h-2.31Z"/></g><g id="text_11" data-name="text 11"><path id="DejaVuSans-124-4" data-name="DejaVuSans-124" d="M459.81,87.86V98h-.71V87.86Z"/></g><g id="text_12" data-name="text 12"><path id="DejaVuSans-49-3" data-name="DejaVuSans-49" d="M459.29,82.9h1.65V76.12l-1.8.43V75.46l1.79-.43h1V82.9h1.65v1h-4.29Z"/><path id="DejaVuSans-54" d="M467.9,79a1.28,1.28,0,0,0-1.08.56,2.56,2.56,0,0,0-.39,1.51,2.61,2.61,0,0,0,.39,1.52,1.27,1.27,0,0,0,1.08.55,1.24,1.24,0,0,0,1.07-.55,2.54,2.54,0,0,0,.4-1.52,2.49,2.49,0,0,0-.4-1.51A1.25,1.25,0,0,0,467.9,79Zm2-3.77v1.1a4,4,0,0,0-.77-.33,2.85,2.85,0,0,0-.76-.11,1.72,1.72,0,0,0-1.53.8,5,5,0,0,0-.6,2.43,2.1,2.1,0,0,1,.74-.79,1.78,1.78,0,0,1,1-.28,2.14,2.14,0,0,1,1.77.81,4,4,0,0,1,0,4.41,2.24,2.24,0,0,1-1.81.83,2.19,2.19,0,0,1-2-1.18,7,7,0,0,1-.68-3.43,6,6,0,0,1,.84-3.36,2.6,2.6,0,0,1,2.25-1.25,3.29,3.29,0,0,1,.76.09A5.82,5.82,0,0,1,469.9,75.22Z"/></g><g id="text_13" data-name="text 13"><path id="DejaVuSansMono-Bold-86-4" data-name="DejaVuSansMono-Bold-86" d="M615.43,113.15l2.06-11.63h2.32L617,115.44h-3.19l-2.78-13.92h2.32Z"/><path id="DejaVuSansMono-Bold-65-2" data-name="DejaVuSansMono-Bold-65" d="M634.71,104l-1.08,5.7h2.18Zm-1.4-2.52h2.82l3.15,13.92H637l-.71-3.44h-3.09l-.71,3.44h-2.3Z"/><path id="DejaVuSansMono-Bold-83-2" data-name="DejaVuSansMono-Bold-83" d="M653.17,109.34a5.84,5.84,0,0,1-2.36-1.67,4,4,0,0,1-.62-2.34,4.15,4.15,0,0,1,1-3,3.62,3.62,0,0,1,2.79-1.09,6.37,6.37,0,0,1,1.61.22,7.47,7.47,0,0,1,1.6.65v2.69a6.15,6.15,0,0,0-1.51-1,4,4,0,0,0-1.52-.32,1.82,1.82,0,0,0-1.28.4,1.45,1.45,0,0,0-.45,1.14,1.4,1.4,0,0,0,.33,1,3.88,3.88,0,0,0,1.35.83l1,.45a4.13,4.13,0,0,1,2.73,4.2,3.68,3.68,0,0,1-4.2,4.18,6.57,6.57,0,0,1-1.74-.24,6.94,6.94,0,0,1-1.68-.74v-2.84a7.75,7.75,0,0,0,1.78,1.17,4.31,4.31,0,0,0,1.71.38,1.78,1.78,0,0,0,1.32-.46,1.71,1.71,0,0,0,.47-1.29,1.92,1.92,0,0,0-.31-1.1,2.12,2.12,0,0,0-.91-.74Z"/><path id="DejaVuSansMono-Bold-71-3" data-name="DejaVuSansMono-Bold-71" d="M675.29,112.93v-2.66h-1.58V108h3.59v6.37a4.67,4.67,0,0,1-1.46,1,4.33,4.33,0,0,1-1.72.34,3.94,3.94,0,0,1-3.5-1.87,9.68,9.68,0,0,1-1.24-5.34,9.65,9.65,0,0,1,1.25-5.37,4.33,4.33,0,0,1,5-1.62,4.93,4.93,0,0,1,1.28.68v3a3.52,3.52,0,0,0-1.12-1.12,2.59,2.59,0,0,0-1.37-.38,2.12,2.12,0,0,0-2,1.18,7.71,7.71,0,0,0-.65,3.58,7.84,7.84,0,0,0,.63,3.53,2,2,0,0,0,1.82,1.21,2,2,0,0,0,.63-.08A1.11,1.11,0,0,0,675.29,112.93Z"/><path id="DejaVuSansMono-Bold-89" d="M687.81,101.52h2.49l2.27,5.6,2.27-5.6h2.49l-3.6,8.44v5.48h-2.31V110Z"/></g><g id="text_14" data-name="text 14"><path id="DejaVuSans-124-5" data-name="DejaVuSans-124" d="M611.93,87.86V98h-.71V87.86Z"/></g><g id="text_15" data-name="text 15"><path id="DejaVuSans-50" d="M612.1,82.9h3.52v1h-4.73v-1l1.56-1.9c.66-.79,1.08-1.31,1.25-1.54a5.77,5.77,0,0,0,.67-1.1,2.2,2.2,0,0,0,.2-.88,1.6,1.6,0,0,0-.42-1.15,1.42,1.42,0,0,0-1.09-.45,2.89,2.89,0,0,0-1,.19,5.91,5.91,0,0,0-1.12.6V75.46a6.53,6.53,0,0,1,1.13-.44,3.65,3.65,0,0,1,1-.15,2.38,2.38,0,0,1,2.54,2.53,3.24,3.24,0,0,1-.17,1,5.71,5.71,0,0,1-.63,1.16l-.79,1Z"/><path id="DejaVuSans-52-2" data-name="DejaVuSans-52" d="M620.51,76.07,618,80.82h2.55Zm-.27-1h1.27v5.79h1.06v1h-1.06v2.09h-1V81.82h-3.37V80.66Z"/></g><g id="text_16" data-name="text 16"><path id="DejaVuSansMono-Bold-73-3" data-name="DejaVuSansMono-Bold-73" d="M707,104v-2.43h7V104h-2.32V113H714v2.42h-7V113h2.32V104Z"/><path id="DejaVuSansMono-Bold-69-2" data-name="DejaVuSansMono-Bold-69" d="M733.56,115.44h-7.28V101.52h7.28V104h-5v3h4.5v2.43h-4.5V113h5Z"/><path id="DejaVuSansMono-Bold-65-3" data-name="DejaVuSansMono-Bold-65" d="M749.07,104l-1.08,5.7h2.18Zm-1.4-2.52h2.82l3.15,13.92h-2.31l-.72-3.44h-3.09l-.7,3.44h-2.31Z"/><path id="DejaVuSansMono-Bold-69-3" data-name="DejaVuSansMono-Bold-69" d="M772.13,115.44h-7.28V101.52h7.28V104h-5v3h4.5v2.43h-4.5V113h5Z"/><path id="DejaVuSansMono-Bold-86-5" data-name="DejaVuSansMono-Bold-86" d="M787.64,113.15l2.06-11.63H792l-2.77,13.92h-3.2l-2.78-13.92h2.32Z"/><path id="DejaVuSansMono-Bold-73-4" data-name="DejaVuSansMono-Bold-73" d="M803.46,104v-2.43h6.95V104h-2.32V113h2.32v2.42h-6.95V113h2.32V104Z"/></g><g id="text_17" data-name="text 17"><path id="DejaVuSans-124-6" data-name="DejaVuSans-124" d="M707,87.86V98h-.71V87.86Z"/></g><g id="text_18" data-name="text 18"><path id="DejaVuSans-50-2" data-name="DejaVuSans-50" d="M707.17,82.9h3.52v1H706v-1l1.56-1.9c.66-.79,1.08-1.31,1.25-1.54a5.29,5.29,0,0,0,.67-1.1,2.2,2.2,0,0,0,.2-.88,1.6,1.6,0,0,0-.42-1.15,1.41,1.41,0,0,0-1.08-.45,2.9,2.9,0,0,0-1,.19,5.91,5.91,0,0,0-1.12.6V75.46a6.31,6.31,0,0,1,1.14-.44,3.53,3.53,0,0,1,1-.15,2.37,2.37,0,0,1,2.53,2.53,3.24,3.24,0,0,1-.17,1,5.25,5.25,0,0,1-.63,1.16l-.79,1Z"/><path id="DejaVuSans-57" d="M712.84,83.73v-1.1a3,3,0,0,0,.77.33,2.54,2.54,0,0,0,.76.11,1.69,1.69,0,0,0,1.52-.8,4.78,4.78,0,0,0,.61-2.43,2.17,2.17,0,0,1-.74.79,1.83,1.83,0,0,1-1,.27,2.16,2.16,0,0,1-1.77-.8,3.46,3.46,0,0,1-.65-2.21A3.3,3.3,0,0,1,713,75.7a2.18,2.18,0,0,1,1.8-.83,2.16,2.16,0,0,1,2,1.18,7,7,0,0,1,.68,3.43,5.91,5.91,0,0,1-.84,3.35,2.56,2.56,0,0,1-2.24,1.26,3.37,3.37,0,0,1-.77-.09A4.81,4.81,0,0,1,712.84,83.73Zm2-3.77a1.26,1.26,0,0,0,1.08-.55,2.61,2.61,0,0,0,.4-1.52,2.58,2.58,0,0,0-.4-1.51,1.24,1.24,0,0,0-1.08-.56,1.22,1.22,0,0,0-1.07.56,2.51,2.51,0,0,0-.4,1.51,2.54,2.54,0,0,0,.4,1.52A1.24,1.24,0,0,0,714.84,80Z"/></g><g id="text_19" data-name="text 19"><path id="DejaVuSansMono-Bold-80-2" data-name="DejaVuSansMono-Bold-80" d="M823.35,103.84v4.08h.94a1.71,1.71,0,0,0,2.05-2,1.7,1.7,0,0,0-2.05-2ZM821,101.52h3.17a4.88,4.88,0,0,1,3.47,1,5.76,5.76,0,0,1,0,6.66,4.88,4.88,0,0,1-3.47,1h-.86v5.21H821Z"/><path id="DejaVuSansMono-Bold-65-4" data-name="DejaVuSansMono-Bold-65" d="M843.88,104l-1.09,5.7H845Zm-1.41-2.52h2.82l3.15,13.92h-2.3l-.72-3.44h-3.09l-.71,3.44h-2.3Z"/><path id="DejaVuSansMono-Bold-69-4" data-name="DejaVuSansMono-Bold-69" d="M866.93,115.44h-7.27V101.52h7.27V104h-5v3h4.5v2.43H862V113h5Z"/><path id="DejaVuSansMono-Bold-84-2" data-name="DejaVuSansMono-Bold-84" d="M883.6,115.44h-2.3V103.93h-3v-2.41h8.24v2.41h-3Z"/></g><g id="text_20" data-name="text 20"><path id="DejaVuSans-124-7" data-name="DejaVuSans-124" d="M821.09,87.86V98h-.71V87.86Z"/></g><g id="text_21" data-name="text 21"><path id="DejaVuSans-51" d="M823.45,79.12a1.92,1.92,0,0,1,1.13.77,2.47,2.47,0,0,1,.4,1.44,2.66,2.66,0,0,1-.76,2,3,3,0,0,1-2.15.72,4.73,4.73,0,0,1-1-.11,6.42,6.42,0,0,1-1-.34V82.48a2.84,2.84,0,0,0,.91.44,3.7,3.7,0,0,0,1,.15,2.12,2.12,0,0,0,1.44-.44,1.67,1.67,0,0,0,.5-1.3,1.63,1.63,0,0,0-.46-1.23,1.82,1.82,0,0,0-1.29-.44h-.87v-1h.91a1.67,1.67,0,0,0,1.14-.35,1.52,1.52,0,0,0,0-2.07,1.66,1.66,0,0,0-1.17-.37,3.66,3.66,0,0,0-.89.11,7.19,7.19,0,0,0-1,.33V75.25a8.76,8.76,0,0,1,1.08-.29,5.32,5.32,0,0,1,.94-.09,2.59,2.59,0,0,1,1.82.62,2.16,2.16,0,0,1,.67,1.68,2.12,2.12,0,0,1-.36,1.25A1.78,1.78,0,0,1,823.45,79.12Z"/><path id="DejaVuSans-53-2" data-name="DejaVuSans-53" d="M826.91,75h4v1h-3v2.18a2.25,2.25,0,0,1,.44-.14,2.12,2.12,0,0,1,.44,0,2.51,2.51,0,0,1,2,.81,3.19,3.19,0,0,1,.73,2.21,3.12,3.12,0,0,1-.75,2.23,2.76,2.76,0,0,1-2.11.8,5.2,5.2,0,0,1-.95-.1,7,7,0,0,1-1-.28V82.5a3.9,3.9,0,0,0,.93.43,3.38,3.38,0,0,0,1,.14,1.79,1.79,0,0,0,1.37-.54,2.41,2.41,0,0,0,0-2.94,1.79,1.79,0,0,0-1.37-.54,3.09,3.09,0,0,0-.8.11,3.52,3.52,0,0,0-.82.33Z"/></g><g id="text_22" data-name="text 22"><path id="DejaVuSansMono-Bold-71-4" data-name="DejaVuSansMono-Bold-71" d="M902.65,112.93v-2.66h-1.58V108h3.6v6.37a4.6,4.6,0,0,1-1.47,1,4.26,4.26,0,0,1-1.72.34,4,4,0,0,1-3.5-1.87,9.77,9.77,0,0,1-1.23-5.34,9.65,9.65,0,0,1,1.24-5.37,4.09,4.09,0,0,1,3.6-1.86,4.19,4.19,0,0,1,1.39.24,5.09,5.09,0,0,1,1.28.68v3a3.62,3.62,0,0,0-1.12-1.12,2.65,2.65,0,0,0-1.38-.38,2.11,2.11,0,0,0-2,1.18,7.59,7.59,0,0,0-.65,3.58,8,8,0,0,0,.62,3.53,2.06,2.06,0,0,0,2.45,1.13A1,1,0,0,0,902.65,112.93Z"/><path id="DejaVuSansMono-Bold-81-2" data-name="DejaVuSansMono-Bold-81" d="M920.25,115.66l-.19,0h-.14a3.3,3.3,0,0,1-3-1.82,11.2,11.2,0,0,1-1-5.39,11.21,11.21,0,0,1,1-5.4,3.48,3.48,0,0,1,6.13,0,11.2,11.2,0,0,1,1,5.4,14.64,14.64,0,0,1-.49,4.11,4.48,4.48,0,0,1-1.43,2.36l1.45,1.69-1.58,1.4Zm-.32-11.92c-.59,0-1,.38-1.29,1.13a11.72,11.72,0,0,0-.4,3.63,11.69,11.69,0,0,0,.4,3.62c.27.75.7,1.12,1.29,1.12s1-.37,1.3-1.12a16.23,16.23,0,0,0,0-7.25C921,104.12,920.53,103.74,919.93,103.74Z"/><path id="DejaVuSansMono-Bold-69-5" data-name="DejaVuSansMono-Bold-69" d="M943,115.44h-7.28V101.52H943V104h-5v3h4.5v2.43H938V113h5Z"/><path id="DejaVuSansMono-Bold-84-3" data-name="DejaVuSansMono-Bold-84" d="M959.66,115.44h-2.31V103.93h-3v-2.41h8.23v2.41h-3Z"/><path id="DejaVuSansMono-Bold-65-5" data-name="DejaVuSansMono-Bold-65" d="M977.79,104l-1.09,5.7h2.18Zm-1.41-2.52h2.82l3.15,13.92h-2.3l-.72-3.44h-3.09l-.7,3.44h-2.31Z"/><path id="DejaVuSansMono-Bold-89-2" data-name="DejaVuSansMono-Bold-89" d="M992.32,101.52h2.49l2.26,5.6,2.28-5.6h2.48l-3.6,8.44v5.48h-2.31V110Z"/><path id="DejaVuSansMono-Bold-70" d="M1020.24,104h-5v3h4.52v2.43h-4.52v6.06H1013V101.52h7.28Z"/><path id="DejaVuSansMono-Bold-76-4" data-name="DejaVuSansMono-Bold-76" d="M1032.58,115.44V101.52h2.31V113h4.94v2.42Z"/><path id="DejaVuSansMono-Bold-76-5" data-name="DejaVuSansMono-Bold-76" d="M1051.87,115.44V101.52h2.31V113h4.93v2.42Z"/><path id="DejaVuSansMono-Bold-75-2" data-name="DejaVuSansMono-Bold-75" d="M1070.31,101.52h2.31V107l3.61-5.5h2.61l-3.68,5.49,3.81,8.43h-2.56l-2.77-6.26-1,1.55v4.71h-2.31Z"/><path id="DejaVuSansMono-Bold-76-6" data-name="DejaVuSansMono-Bold-76" d="M1090.44,115.44V101.52h2.31V113h4.93v2.42Z"/><path id="DejaVuSansMono-Bold-65-6" data-name="DejaVuSansMono-Bold-65" d="M1112.78,104l-1.08,5.7h2.18Zm-1.41-2.52h2.83l3.15,13.92H1115l-.72-3.44h-3.09l-.7,3.44h-2.31Z"/></g><g id="text_23" data-name="text 23"><path id="DejaVuSans-124-8" data-name="DejaVuSans-124" d="M897.15,87.86V98h-.71V87.86Z"/></g><g id="text_24" data-name="text 24"><path id="DejaVuSans-51-2" data-name="DejaVuSans-51" d="M899.5,79.12a1.86,1.86,0,0,1,1.13.77,2.4,2.4,0,0,1,.41,1.44,2.66,2.66,0,0,1-.76,2,3,3,0,0,1-2.15.72,4.65,4.65,0,0,1-1-.11,6.42,6.42,0,0,1-1-.34V82.48a2.74,2.74,0,0,0,.91.44,3.65,3.65,0,0,0,1.05.15,2.12,2.12,0,0,0,1.44-.44,1.91,1.91,0,0,0,0-2.53,1.82,1.82,0,0,0-1.29-.44h-.87v-1h.91a1.67,1.67,0,0,0,1.14-.35,1.55,1.55,0,0,0,0-2.07,1.66,1.66,0,0,0-1.17-.37,3.66,3.66,0,0,0-.89.11,7.19,7.19,0,0,0-1,.33V75.25a8.76,8.76,0,0,1,1.08-.29,5.32,5.32,0,0,1,.94-.09,2.59,2.59,0,0,1,1.82.62,2.19,2.19,0,0,1,.67,1.68,2.12,2.12,0,0,1-.36,1.25A1.78,1.78,0,0,1,899.5,79.12Z"/><path id="DejaVuSans-57-2" data-name="DejaVuSans-57" d="M903,83.73v-1.1a3.19,3.19,0,0,0,.77.33,2.61,2.61,0,0,0,.77.11,1.7,1.7,0,0,0,1.52-.8,4.89,4.89,0,0,0,.6-2.43,2.07,2.07,0,0,1-.73.79,1.88,1.88,0,0,1-1,.27,2.16,2.16,0,0,1-1.77-.8,3.41,3.41,0,0,1-.66-2.21,3.35,3.35,0,0,1,.68-2.19,2.22,2.22,0,0,1,1.81-.83,2.14,2.14,0,0,1,2,1.18,6.9,6.9,0,0,1,.69,3.43,5.91,5.91,0,0,1-.84,3.35,2.58,2.58,0,0,1-2.25,1.26,3.44,3.44,0,0,1-.77-.09A4.81,4.81,0,0,1,903,83.73ZM905,80a1.24,1.24,0,0,0,1.07-.55,2.54,2.54,0,0,0,.4-1.52,2.51,2.51,0,0,0-.4-1.51,1.22,1.22,0,0,0-1.07-.56,1.25,1.25,0,0,0-1.08.56,2.58,2.58,0,0,0-.39,1.51,2.61,2.61,0,0,0,.39,1.52A1.27,1.27,0,0,0,905,80Z"/></g><g id="text_25" data-name="text 25"><path id="DejaVuSansMono-Bold-71-5" data-name="DejaVuSansMono-Bold-71" d="M180.1,203v-2.65h-1.58v-2.31h3.59v6.37a4.48,4.48,0,0,1-1.46,1,4.17,4.17,0,0,1-1.72.35,3.93,3.93,0,0,1-3.5-1.88,12.12,12.12,0,0,1,0-10.7,4.33,4.33,0,0,1,5-1.62,4.64,4.64,0,0,1,1.28.68v3.05a3.42,3.42,0,0,0-1.12-1.12,2.59,2.59,0,0,0-1.37-.38,2.1,2.1,0,0,0-2,1.18,7.71,7.71,0,0,0-.65,3.58,7.87,7.87,0,0,0,.63,3.53,2,2,0,0,0,1.82,1.21,2.35,2.35,0,0,0,.63-.08A1,1,0,0,0,180.1,203Z"/><path id="DejaVuSansMono-Bold-82" d="M198.87,199a1.05,1.05,0,0,1,.6.39,4.76,4.76,0,0,1,.62,1.18l2.11,5h-2.53L198.26,202l-.16-.41c-.41-1.05-.9-1.58-1.46-1.58h-.73v5.5H193.6V191.61h3.33a4.59,4.59,0,0,1,3.24.95,4.21,4.21,0,0,1,1,3.1,3.93,3.93,0,0,1-.59,2.28A2.37,2.37,0,0,1,198.87,199Zm-3-5v3.8H197a1.78,1.78,0,0,0,1.35-.44,2.11,2.11,0,0,0,.41-1.46,2.07,2.07,0,0,0-.41-1.46,1.78,1.78,0,0,0-1.35-.44Z"/></g><g id="text_26" data-name="text 26"><path id="DejaVuSans-124-9" data-name="DejaVuSans-124" d="M174.59,178v10.16h-.71V178Z"/></g><g id="text_27" data-name="text 27"><path id="DejaVuSans-53-3" data-name="DejaVuSans-53" d="M173.91,165.12h4v1h-3v2.18a2.25,2.25,0,0,1,.44-.14,2.12,2.12,0,0,1,.44,0,2.51,2.51,0,0,1,2,.81,3.19,3.19,0,0,1,.73,2.21,3.12,3.12,0,0,1-.75,2.23,2.75,2.75,0,0,1-2.11.79,5.17,5.17,0,0,1-1-.09,6,6,0,0,1-1-.29v-1.21a3.58,3.58,0,0,0,.93.44,3.73,3.73,0,0,0,1,.14,1.79,1.79,0,0,0,1.37-.54,2.41,2.41,0,0,0,0-2.94,1.79,1.79,0,0,0-1.37-.54,2.82,2.82,0,0,0-.81.11,3.64,3.64,0,0,0-.81.33Z"/><path id="DejaVuSans-49-4" data-name="DejaVuSans-49" d="M180.57,173h1.65v-6.78l-1.79.43v-1.1l1.78-.42h1V173h1.65v1h-4.3Z"/></g><g id="text_28" data-name="text 28"><path id="DejaVuSansMono-Bold-87-2" data-name="DejaVuSansMono-Bold-87" d="M211.31,191.61h2l.84,10.22,1-6.61h1.91l1.18,6.61.66-10.22h2l-1.35,13.92h-2.15l-1.33-7.31-1.24,7.31h-2.14Z"/><path id="DejaVuSansMono-Bold-80-3" data-name="DejaVuSansMono-Bold-80" d="M234.16,193.92V198h1a1.71,1.71,0,0,0,2-2,1.71,1.71,0,0,0-2-2.05Zm-2.3-2.31H235a4.83,4.83,0,0,1,3.47,1,5.76,5.76,0,0,1,0,6.66,4.88,4.88,0,0,1-3.47,1h-.87v5.21h-2.3Z"/><path id="DejaVuSansMono-Bold-86-6" data-name="DejaVuSansMono-Bold-86" d="M254.69,203.24l2.06-11.63h2.32l-2.77,13.92h-3.2l-2.78-13.92h2.32Z"/><path id="DejaVuSansMono-Bold-75-3" data-name="DejaVuSansMono-Bold-75" d="M270.08,191.61h2.3v5.5l3.61-5.5h2.62l-3.69,5.48,3.82,8.44h-2.57l-2.76-6.26-1,1.54v4.72h-2.3Z"/></g><g id="text_29" data-name="text 29"><path id="DejaVuSans-124-10" data-name="DejaVuSans-124" d="M212.62,178v10.16h-.71V178Z"/></g><g id="text_30" data-name="text 30"><path id="DejaVuSans-53-4" data-name="DejaVuSans-53" d="M211.93,165.12h4v1h-3v2.18a2.25,2.25,0,0,1,.44-.14,2.12,2.12,0,0,1,.44,0,2.51,2.51,0,0,1,2,.81,3.19,3.19,0,0,1,.73,2.21,3.12,3.12,0,0,1-.75,2.23,2.75,2.75,0,0,1-2.11.79,5.36,5.36,0,0,1-1-.09,6.14,6.14,0,0,1-1-.29v-1.21a3.58,3.58,0,0,0,.93.44,3.68,3.68,0,0,0,1,.14,1.79,1.79,0,0,0,1.37-.54,2.41,2.41,0,0,0,0-2.94,1.79,1.79,0,0,0-1.37-.54,2.82,2.82,0,0,0-.81.11,3.91,3.91,0,0,0-.82.33Z"/><path id="DejaVuSans-51-3" data-name="DejaVuSans-51" d="M221.48,169.21a1.86,1.86,0,0,1,1.13.77,2.47,2.47,0,0,1,.41,1.44,2.65,2.65,0,0,1-.76,2,3,3,0,0,1-2.16.72,4,4,0,0,1-1-.11,5.82,5.82,0,0,1-1-.33v-1.16a3.12,3.12,0,0,0,.92.44,3.6,3.6,0,0,0,1.05.15,2.12,2.12,0,0,0,1.44-.44,1.67,1.67,0,0,0,.5-1.3,1.6,1.6,0,0,0-.47-1.23,1.73,1.73,0,0,0-1.28-.44h-.87v-1h.91a1.64,1.64,0,0,0,1.14-.36,1.29,1.29,0,0,0,.39-1,1.36,1.36,0,0,0-.4-1,1.72,1.72,0,0,0-1.17-.36,3.61,3.61,0,0,0-.89.11,6.82,6.82,0,0,0-1,.33v-1.07a7.51,7.51,0,0,1,1.07-.29,5.43,5.43,0,0,1,1-.09,2.54,2.54,0,0,1,1.82.62,2.19,2.19,0,0,1,.67,1.68,2.12,2.12,0,0,1-.36,1.25A1.86,1.86,0,0,1,221.48,169.21Z"/></g><g id="text_31" data-name="text 31"><path id="DejaVuSansMono-Bold-84-4" data-name="DejaVuSansMono-Bold-84" d="M293.34,205.53H291V194h-3v-2.41h8.23V194h-3Z"/><path id="DejaVuSansMono-Bold-86-7" data-name="DejaVuSansMono-Bold-86" d="M311.47,203.24l2-11.63h2.33l-2.78,13.92h-3.2l-2.78-13.92h2.33Z"/><path id="DejaVuSansMono-Bold-72-3" data-name="DejaVuSansMono-Bold-72" d="M327,191.61h2.3v5.31h2.89v-5.31h2.3v13.92h-2.3v-6.19h-2.89v6.19H327Z"/></g><g id="text_32" data-name="text 32"><path id="DejaVuSans-124-11" data-name="DejaVuSans-124" d="M288.68,178v10.16H288V178Z"/></g><g id="text_33" data-name="text 33"><path id="DejaVuSans-53-5" data-name="DejaVuSans-53" d="M288,165.12h4v1h-3v2.18a2.39,2.39,0,0,1,.43-.14,2.25,2.25,0,0,1,.44,0,2.53,2.53,0,0,1,2,.81,3.19,3.19,0,0,1,.73,2.21,3.12,3.12,0,0,1-.75,2.23,2.75,2.75,0,0,1-2.11.79,5.36,5.36,0,0,1-1-.09,5.87,5.87,0,0,1-1-.29v-1.21a3.58,3.58,0,0,0,.93.44,3.68,3.68,0,0,0,1,.14,1.79,1.79,0,0,0,1.37-.54,2.41,2.41,0,0,0,0-2.94,1.79,1.79,0,0,0-1.37-.54,2.82,2.82,0,0,0-.81.11,3.7,3.7,0,0,0-.82.33Z"/><path id="DejaVuSans-55" d="M294.23,165.12H299v.51l-2.7,8.37h-1.05l2.54-7.87h-3.58Z"/></g><g id="text_34" data-name="text 34"><path id="DejaVuSansMono-Bold-84-5" data-name="DejaVuSansMono-Bold-84" d="M350.38,205.53h-2.3V194h-3v-2.41h8.24V194h-3Z"/><path id="DejaVuSansMono-Bold-68-2" data-name="DejaVuSansMono-Bold-68" d="M367.07,194.09v9h.63a2.06,2.06,0,0,0,1.94-1,10.79,10.79,0,0,0,0-6.92,2.06,2.06,0,0,0-1.94-1Zm-2.31-2.48h2.48a4.88,4.88,0,0,1,4.12,1.63c.84,1.08,1.26,2.86,1.26,5.32s-.42,4.24-1.26,5.34a4.88,4.88,0,0,1-4.12,1.63h-2.48Z"/><path id="DejaVuSansMono-Bold-78" d="M383.91,191.61h2.48l3.25,10.12V191.61h2v13.92h-2.46l-3.27-10.12v10.12h-2Z"/></g><g id="text_35" data-name="text 35"><path id="DejaVuSans-124-12" data-name="DejaVuSans-124" d="M345.72,178v10.16H345V178Z"/></g><g id="text_36" data-name="text 36"><path id="DejaVuSans-54-2" data-name="DejaVuSans-54" d="M347.31,169.08a1.27,1.27,0,0,0-1.08.55,3.16,3.16,0,0,0,0,3,1.27,1.27,0,0,0,1.08.55,1.24,1.24,0,0,0,1.07-.55,3.09,3.09,0,0,0,0-3A1.24,1.24,0,0,0,347.31,169.08Zm2-3.77v1.1a3.44,3.44,0,0,0-.77-.33,2.5,2.5,0,0,0-.76-.11,1.7,1.7,0,0,0-1.53.8,5,5,0,0,0-.6,2.43,2.21,2.21,0,0,1,.74-.8,1.85,1.85,0,0,1,1-.27,2.14,2.14,0,0,1,1.77.81,3.4,3.4,0,0,1,.65,2.21,3.33,3.33,0,0,1-.68,2.2,2.2,2.2,0,0,1-1.8.82,2.17,2.17,0,0,1-2-1.18,6.9,6.9,0,0,1-.68-3.42,5.93,5.93,0,0,1,.84-3.36,2.55,2.55,0,0,1,2.25-1.25,3.92,3.92,0,0,1,.76.08A4.81,4.81,0,0,1,349.31,165.31Z"/><path id="DejaVuSans-48" d="M353.69,165.91a1.26,1.26,0,0,0-1.17.91,9.62,9.62,0,0,0,0,5.49,1.21,1.21,0,0,0,2.34,0,9.86,9.86,0,0,0,0-5.49A1.26,1.26,0,0,0,353.69,165.91Zm0-.95a2.08,2.08,0,0,1,1.91,1.18,9.22,9.22,0,0,1,0,6.85,2.14,2.14,0,0,1-3.83,0,9.22,9.22,0,0,1,0-6.85A2.08,2.08,0,0,1,353.69,165Z"/></g><g id="text_37" data-name="text 37"><path id="DejaVuSansMono-Bold-71-6" data-name="DejaVuSansMono-Bold-71" d="M408.27,203v-2.65h-1.58v-2.31h3.6v6.37a4.41,4.41,0,0,1-1.47,1,4.09,4.09,0,0,1-1.71.35,4,4,0,0,1-3.51-1.88,9.71,9.71,0,0,1-1.23-5.33,9.61,9.61,0,0,1,1.24-5.37,4.35,4.35,0,0,1,5-1.62,4.79,4.79,0,0,1,1.28.68v3.05a3.51,3.51,0,0,0-1.12-1.12,2.65,2.65,0,0,0-1.38-.38,2.09,2.09,0,0,0-2,1.18,7.59,7.59,0,0,0-.65,3.58,8,8,0,0,0,.62,3.53,2,2,0,0,0,1.83,1.21,2.28,2.28,0,0,0,.62-.08A1,1,0,0,0,408.27,203Z"/><path id="DejaVuSansMono-Bold-83-3" data-name="DejaVuSansMono-Bold-83" d="M424.73,199.42a5.78,5.78,0,0,1-2.37-1.66,4,4,0,0,1-.61-2.35,4.15,4.15,0,0,1,1-3,3.65,3.65,0,0,1,2.79-1.08,6,6,0,0,1,1.62.22,7.61,7.61,0,0,1,1.59.65v2.68a6.41,6.41,0,0,0-1.51-.95,3.83,3.83,0,0,0-1.52-.33,1.86,1.86,0,0,0-1.28.41,1.44,1.44,0,0,0-.44,1.14,1.39,1.39,0,0,0,.32,1,4.06,4.06,0,0,0,1.36.83l1,.45a4.15,4.15,0,0,1,2.74,4.19,3.7,3.7,0,0,1-4.2,4.19,6.52,6.52,0,0,1-1.74-.24,7.18,7.18,0,0,1-1.69-.74V202a7.41,7.41,0,0,0,1.79,1.16,4.12,4.12,0,0,0,1.71.39,1.82,1.82,0,0,0,1.32-.46,1.75,1.75,0,0,0,.47-1.29,2,2,0,0,0-.31-1.1,2.18,2.18,0,0,0-.91-.74Z"/><path id="DejaVuSansMono-Bold-78-2" data-name="DejaVuSansMono-Bold-78" d="M441,191.61h2.48l3.26,10.12V191.61h2v13.92h-2.46L443,195.41v10.12h-2Z"/><path id="DejaVuSansMono-Bold-70-2" data-name="DejaVuSansMono-Bold-70" d="M468,194h-5v3h4.52v2.42H463v6.07h-2.31V191.61H468Z"/></g><g id="text_38" data-name="text 38"><path id="DejaVuSans-124-13" data-name="DejaVuSans-124" d="M402.77,178v10.16h-.71V178Z"/></g><g id="text_39" data-name="text 39"><path id="DejaVuSans-54-3" data-name="DejaVuSans-54" d="M404.35,169.08a1.24,1.24,0,0,0-1.07.55,3.09,3.09,0,0,0,0,3,1.24,1.24,0,0,0,1.07.55,1.27,1.27,0,0,0,1.08-.55,3.16,3.16,0,0,0,0-3A1.27,1.27,0,0,0,404.35,169.08Zm2-3.77v1.1a3.57,3.57,0,0,0-.76-.33,2.61,2.61,0,0,0-.77-.11,1.71,1.71,0,0,0-1.53.8,5,5,0,0,0-.6,2.43,2.3,2.3,0,0,1,.74-.8,1.88,1.88,0,0,1,1-.27,2.17,2.17,0,0,1,1.78.81,3.46,3.46,0,0,1,.65,2.21,3.38,3.38,0,0,1-.68,2.2,2.22,2.22,0,0,1-1.81.82,2.17,2.17,0,0,1-2-1.18,7,7,0,0,1-.68-3.42,5.93,5.93,0,0,1,.84-3.36,2.57,2.57,0,0,1,2.25-1.25,4.11,4.11,0,0,1,.77.08A5,5,0,0,1,406.35,165.31Z"/><path id="DejaVuSans-51-4" data-name="DejaVuSans-51" d="M411.63,169.21a1.89,1.89,0,0,1,1.13.77,2.47,2.47,0,0,1,.41,1.44,2.69,2.69,0,0,1-.76,2,3,3,0,0,1-2.16.72,4,4,0,0,1-1-.11,5.34,5.34,0,0,1-1-.33v-1.16a3,3,0,0,0,.92.44,3.58,3.58,0,0,0,1,.15,2.17,2.17,0,0,0,1.45-.44,1.66,1.66,0,0,0,.49-1.3,1.6,1.6,0,0,0-.46-1.23,1.75,1.75,0,0,0-1.28-.44h-.87v-1h.91a1.61,1.61,0,0,0,1.13-.36,1.26,1.26,0,0,0,.4-1,1.36,1.36,0,0,0-.41-1,1.7,1.7,0,0,0-1.16-.36,3.55,3.55,0,0,0-.89.11,6.91,6.91,0,0,0-1,.33v-1.07a8,8,0,0,1,1.08-.29,5.34,5.34,0,0,1,.95-.09,2.52,2.52,0,0,1,1.81.62,2.16,2.16,0,0,1,.67,1.68,2.19,2.19,0,0,1-.35,1.25A1.9,1.9,0,0,1,411.63,169.21Z"/></g><g id="text_40" data-name="text 40"><path id="DejaVuSansMono-Bold-84-6" data-name="DejaVuSansMono-Bold-84" d="M483.49,205.53h-2.31V194h-3v-2.41h8.24V194h-3Z"/><path id="DejaVuSansMono-Bold-83-4" data-name="DejaVuSansMono-Bold-83" d="M500.78,199.42a5.74,5.74,0,0,1-2.36-1.66,4,4,0,0,1-.62-2.35,4.15,4.15,0,0,1,1-3,3.65,3.65,0,0,1,2.79-1.08,5.9,5.9,0,0,1,1.61.22,7.47,7.47,0,0,1,1.6.65v2.68a6.41,6.41,0,0,0-1.51-.95,3.83,3.83,0,0,0-1.52-.33,1.86,1.86,0,0,0-1.28.41,1.44,1.44,0,0,0-.45,1.14,1.4,1.4,0,0,0,.33,1,4.06,4.06,0,0,0,1.36.83l1,.45a4.52,4.52,0,0,1,2.07,1.63,4.62,4.62,0,0,1,.67,2.56,3.7,3.7,0,0,1-4.2,4.19,6.52,6.52,0,0,1-1.74-.24,6.84,6.84,0,0,1-1.69-.74V202a7.41,7.41,0,0,0,1.79,1.16,4.09,4.09,0,0,0,1.71.39,1.86,1.86,0,0,0,1.32-.46,1.75,1.75,0,0,0,.47-1.29,1.92,1.92,0,0,0-.32-1.1,2.08,2.08,0,0,0-.9-.74Z"/></g><g id="text_41" data-name="text 41"><path id="DejaVuSans-124-14" data-name="DejaVuSans-124" d="M478.82,178v10.16h-.7V178Z"/></g><g id="text_42" data-name="text 42"><path id="DejaVuSans-54-4" data-name="DejaVuSans-54" d="M480.41,169.08a1.27,1.27,0,0,0-1.08.55,3.16,3.16,0,0,0,0,3,1.34,1.34,0,0,0,2.16,0,3.16,3.16,0,0,0,0-3A1.27,1.27,0,0,0,480.41,169.08Zm2-3.77v1.1a3.44,3.44,0,0,0-.77-.33,2.5,2.5,0,0,0-.76-.11,1.7,1.7,0,0,0-1.53.8,5,5,0,0,0-.6,2.43,2.21,2.21,0,0,1,.74-.8,1.85,1.85,0,0,1,1-.27,2.14,2.14,0,0,1,1.77.81,4,4,0,0,1,0,4.41,2.24,2.24,0,0,1-1.81.82,2.17,2.17,0,0,1-2-1.18,7,7,0,0,1-.68-3.42,5.93,5.93,0,0,1,.84-3.36,2.57,2.57,0,0,1,2.25-1.25,4.11,4.11,0,0,1,.77.08A5,5,0,0,1,482.41,165.31Z"/><path id="DejaVuSans-55-2" data-name="DejaVuSans-55" d="M484.38,165.12h4.79v.51L486.46,174h-1l2.55-7.87h-3.58Z"/></g><g id="text_43" data-name="text 43"><path id="DejaVuSansMono-Bold-84-7" data-name="DejaVuSansMono-Bold-84" d="M521.52,205.53h-2.31V194h-3v-2.41h8.24V194h-3Z"/><path id="DejaVuSansMono-Bold-84-8" data-name="DejaVuSansMono-Bold-84" d="M540.8,205.53h-2.31V194h-3v-2.41h8.23V194h-3Z"/><path id="DejaVuSansMono-Bold-86-8" data-name="DejaVuSansMono-Bold-86" d="M558.93,203.24,561,191.61h2.33l-2.78,13.92h-3.2l-2.78-13.92h2.33Z"/><path id="DejaVuSansMono-Bold-75-4" data-name="DejaVuSansMono-Bold-75" d="M574.31,191.61h2.31v5.5l3.61-5.5h2.61l-3.68,5.48,3.81,8.44h-2.56l-2.77-6.26-1,1.54v4.72h-2.31Z"/><path id="DejaVuSansMono-Bold-84-9" data-name="DejaVuSansMono-Bold-84" d="M598.65,205.53h-2.3V194h-3v-2.41h8.24V194h-3Z"/><path id="DejaVuSansMono-Bold-65-7" data-name="DejaVuSansMono-Bold-65" d="M616.78,194.13l-1.09,5.69h2.19Zm-1.41-2.52h2.83l3.15,13.92H619l-.72-3.44h-3.09l-.7,3.44h-2.31Z"/><path id="DejaVuSansMono-Bold-67-3" data-name="DejaVuSansMono-Bold-67" d="M639.7,205.13a4.51,4.51,0,0,1-1.15.5,4.36,4.36,0,0,1-1.26.17,4.09,4.09,0,0,1-3.61-1.85,12.23,12.23,0,0,1,0-10.73,4.07,4.07,0,0,1,3.61-1.86,4.86,4.86,0,0,1,1.27.17,4.16,4.16,0,0,1,1.14.5v3.06a4.31,4.31,0,0,0-1.15-1,2.32,2.32,0,0,0-1.16-.31,2.06,2.06,0,0,0-1.91,1.2,10.17,10.17,0,0,0,0,7.1,2.06,2.06,0,0,0,1.91,1.2,2.42,2.42,0,0,0,1.16-.3,4.36,4.36,0,0,0,1.15-1Z"/><path id="DejaVuSansMono-Bold-87-3" data-name="DejaVuSansMono-Bold-87" d="M650.53,191.61h2l.84,10.22,1-6.61h1.91l1.17,6.61.66-10.22h2l-1.34,13.92h-2.15l-1.33-7.31-1.24,7.31H652Z"/><path id="DejaVuSansMono-Bold-87-4" data-name="DejaVuSansMono-Bold-87" d="M669.82,191.61h2l.84,10.22,1-6.61h1.92l1.17,6.61.66-10.22h2l-1.34,13.92H676l-1.33-7.31-1.24,7.31h-2.13Z"/><path id="DejaVuSansMono-Bold-65-8" data-name="DejaVuSansMono-Bold-65" d="M693.92,194.13l-1.09,5.69H695Zm-1.41-2.52h2.83l3.15,13.92h-2.31l-.72-3.44h-3.09l-.7,3.44h-2.31Z"/></g><g id="text_44" data-name="text 44"><path id="DejaVuSans-124-15" data-name="DejaVuSans-124" d="M516.85,178v10.16h-.7V178Z"/></g><g id="text_45" data-name="text 45"><path id="DejaVuSans-54-5" data-name="DejaVuSans-54" d="M518.44,169.08a1.27,1.27,0,0,0-1.08.55,3.16,3.16,0,0,0,0,3,1.27,1.27,0,0,0,1.08.55,1.24,1.24,0,0,0,1.07-.55,3.09,3.09,0,0,0,0-3A1.24,1.24,0,0,0,518.44,169.08Zm2-3.77v1.1a3.44,3.44,0,0,0-.77-.33,2.5,2.5,0,0,0-.76-.11,1.7,1.7,0,0,0-1.53.8,5,5,0,0,0-.6,2.43,2.21,2.21,0,0,1,.74-.8,1.85,1.85,0,0,1,1-.27,2.14,2.14,0,0,1,1.77.81,4,4,0,0,1,0,4.41,2.24,2.24,0,0,1-1.81.82,2.17,2.17,0,0,1-2-1.18,7,7,0,0,1-.68-3.42,5.93,5.93,0,0,1,.84-3.36,2.57,2.57,0,0,1,2.25-1.25,3.92,3.92,0,0,1,.76.08A4.81,4.81,0,0,1,520.44,165.31Z"/><path id="DejaVuSans-57-3" data-name="DejaVuSans-57" d="M522.69,173.82v-1.1a4,4,0,0,0,.77.33,2.91,2.91,0,0,0,.76.11,1.72,1.72,0,0,0,1.53-.8,4.89,4.89,0,0,0,.6-2.43,2.23,2.23,0,0,1-.73.79,1.89,1.89,0,0,1-1,.27,2.17,2.17,0,0,1-1.77-.81,4,4,0,0,1,0-4.4,2.22,2.22,0,0,1,1.81-.82,2.14,2.14,0,0,1,2,1.18,6.91,6.91,0,0,1,.68,3.43,6,6,0,0,1-.83,3.35,2.57,2.57,0,0,1-2.25,1.25,3.44,3.44,0,0,1-.77-.09A4.73,4.73,0,0,1,522.69,173.82Zm2-3.77a1.24,1.24,0,0,0,1.07-.55,3.09,3.09,0,0,0,0-3,1.24,1.24,0,0,0-1.07-.55,1.27,1.27,0,0,0-1.08.55,3.16,3.16,0,0,0,0,3A1.27,1.27,0,0,0,524.7,170.05Z"/></g><g id="text_46" data-name="text 46"><path id="DejaVuSansMono-Bold-71-7" data-name="DejaVuSansMono-Bold-71" d="M712.5,203v-2.65h-1.57v-2.31h3.59v6.37a4.48,4.48,0,0,1-1.46,1,4.17,4.17,0,0,1-1.72.35,3.93,3.93,0,0,1-3.5-1.88,12.12,12.12,0,0,1,0-10.7,4.33,4.33,0,0,1,5-1.62,4.64,4.64,0,0,1,1.28.68v3.05a3.42,3.42,0,0,0-1.12-1.12,2.65,2.65,0,0,0-1.38-.38,2.1,2.1,0,0,0-2,1.18,7.71,7.71,0,0,0-.65,3.58,7.87,7.87,0,0,0,.63,3.53,2,2,0,0,0,1.82,1.21,2.22,2.22,0,0,0,.62-.08A1,1,0,0,0,712.5,203Z"/><path id="DejaVuSansMono-Bold-73-5" data-name="DejaVuSansMono-Bold-73" d="M726.32,194v-2.43h6.95V194H731v9.07h2.32v2.42h-6.95v-2.42h2.32V194Z"/></g><g id="text_47" data-name="text 47"><path id="DejaVuSans-124-16" data-name="DejaVuSans-124" d="M707,178v10.16h-.71V178Z"/></g><g id="text_48" data-name="text 48"><path id="DejaVuSans-55-3" data-name="DejaVuSans-55" d="M706.05,165.12h4.79v.51l-2.7,8.37h-1.06l2.55-7.87h-3.58Z"/><path id="DejaVuSans-57-4" data-name="DejaVuSans-57" d="M712.84,173.82v-1.1a4,4,0,0,0,.77.33,2.91,2.91,0,0,0,.76.11,1.71,1.71,0,0,0,1.52-.8,4.78,4.78,0,0,0,.61-2.43,2.26,2.26,0,0,1-.74.79,1.83,1.83,0,0,1-1,.27,2.14,2.14,0,0,1-1.77-.81,3.41,3.41,0,0,1-.65-2.2,3.33,3.33,0,0,1,.68-2.2,2.2,2.2,0,0,1,1.8-.82,2.16,2.16,0,0,1,2,1.18,7,7,0,0,1,.68,3.43,5.91,5.91,0,0,1-.84,3.35,2.55,2.55,0,0,1-2.24,1.25,3.37,3.37,0,0,1-.77-.09A4.73,4.73,0,0,1,712.84,173.82Zm2-3.77a1.26,1.26,0,0,0,1.08-.55,3.09,3.09,0,0,0,0-3,1.26,1.26,0,0,0-1.08-.55,1.24,1.24,0,0,0-1.07.55,3.09,3.09,0,0,0,0,3A1.24,1.24,0,0,0,714.84,170.05Z"/></g><g id="text_49" data-name="text 49"><path id="DejaVuSansMono-Bold-75-5" data-name="DejaVuSansMono-Bold-75" d="M744.63,191.61h2.31v5.5l3.61-5.5h2.61l-3.68,5.48,3.81,8.44h-2.56L748,199.27l-1,1.54v4.72h-2.31Z"/><path id="DejaVuSansMono-Bold-81-3" data-name="DejaVuSansMono-Bold-81" d="M768.13,205.75l-.19,0h-.14a3.31,3.31,0,0,1-3-1.82,14.51,14.51,0,0,1,0-10.79,3.48,3.48,0,0,1,6.13,0,11.21,11.21,0,0,1,1,5.4,14.51,14.51,0,0,1-.49,4.1,4.51,4.51,0,0,1-1.43,2.37l1.45,1.69-1.58,1.4Zm-.31-11.92c-.59,0-1,.38-1.29,1.13a16.23,16.23,0,0,0,0,7.25c.27.75.7,1.12,1.29,1.12s1-.37,1.29-1.12a16.23,16.23,0,0,0,0-7.25C768.84,194.21,768.41,193.83,767.82,193.83Z"/></g><g id="text_50" data-name="text 50"><path id="DejaVuSans-124-17" data-name="DejaVuSans-124" d="M745,178v10.16h-.71V178Z"/></g><g id="text_51" data-name="text 51"><path id="DejaVuSans-56" d="M746.49,169.78a1.42,1.42,0,0,0-1.13.46,1.81,1.81,0,0,0-.41,1.26,1.77,1.77,0,0,0,.41,1.26,1.62,1.62,0,0,0,2.26,0,2.1,2.1,0,0,0,0-2.52A1.42,1.42,0,0,0,746.49,169.78Zm-1-.51a1.83,1.83,0,0,1-1-.72,2.23,2.23,0,0,1-.36-1.29,2.28,2.28,0,0,1,.63-1.69,2.82,2.82,0,0,1,3.5,0,2.28,2.28,0,0,1,.63,1.69,2.23,2.23,0,0,1-.36,1.29,1.83,1.83,0,0,1-1,.72,2,2,0,0,1,1.14.79,2.47,2.47,0,0,1,.4,1.44,2.75,2.75,0,0,1-.66,2,2.49,2.49,0,0,1-1.89.69,2.53,2.53,0,0,1-1.9-.69,2.75,2.75,0,0,1-.66-2,2.47,2.47,0,0,1,.41-1.44A2,2,0,0,1,745.48,169.27Zm-.37-1.9a1.53,1.53,0,0,0,.36,1.08,1.55,1.55,0,0,0,2,0,1.76,1.76,0,0,0,0-2.16,1.55,1.55,0,0,0-2,0A1.53,1.53,0,0,0,745.11,167.37Z"/><path id="DejaVuSans-49-5" data-name="DejaVuSans-49" d="M751,173h1.65v-6.78l-1.79.43v-1.1l1.78-.42h1V173h1.64v1H751Z"/></g><g id="text_52" data-name="text 52"><path id="DejaVuSansMono-Bold-69-6" data-name="DejaVuSansMono-Bold-69" d="M790.33,205.53h-7.27V191.61h7.27V194h-5v3h4.49v2.42h-4.49v3.65h5Z"/><path id="DejaVuSansMono-Bold-70-3" data-name="DejaVuSansMono-Bold-70" d="M809.72,194h-5v3h4.52v2.42h-4.52v6.07h-2.31V191.61h7.27Z"/><path id="DejaVuSansMono-Bold-71-8" data-name="DejaVuSansMono-Bold-71" d="M827.13,203v-2.65h-1.58v-2.31h3.6v6.37a4.41,4.41,0,0,1-1.47,1,4.09,4.09,0,0,1-1.71.35,4,4,0,0,1-3.51-1.88,9.71,9.71,0,0,1-1.23-5.33,9.52,9.52,0,0,1,1.25-5.37,4.33,4.33,0,0,1,5-1.62,4.79,4.79,0,0,1,1.28.68v3.05a3.51,3.51,0,0,0-1.12-1.12,2.65,2.65,0,0,0-1.38-.38,2.1,2.1,0,0,0-2,1.18,7.71,7.71,0,0,0-.65,3.58,8,8,0,0,0,.62,3.53,2,2,0,0,0,1.83,1.21,2.22,2.22,0,0,0,.62-.08A1,1,0,0,0,827.13,203Z"/><path id="DejaVuSansMono-Bold-48" d="M843.45,198.59a1.23,1.23,0,0,1,.28-.83.87.87,0,0,1,1.38,0,1.36,1.36,0,0,1,0,1.65.89.89,0,0,1-1.38,0A1.22,1.22,0,0,1,843.45,198.59Zm1-4.9q-.81,0-1.17,1.17a18.94,18.94,0,0,0,0,7.45c.24.77.63,1.16,1.17,1.16s.92-.39,1.17-1.16a18.94,18.94,0,0,0,0-7.45Q845.22,193.69,844.42,193.69Zm-3.86,4.9a11.88,11.88,0,0,1,1-5.42,3.23,3.23,0,0,1,5.8,0,15.78,15.78,0,0,1,0,10.84,3.24,3.24,0,0,1-5.8,0A11.92,11.92,0,0,1,840.56,198.59Z"/><path id="DejaVuSansMono-Bold-73-6" data-name="DejaVuSansMono-Bold-73" d="M860.23,194v-2.43h6.95V194h-2.32v9.07h2.32v2.42h-6.95v-2.42h2.32V194Z"/></g><g id="text_53" data-name="text 53"><path id="DejaVuSans-124-18" data-name="DejaVuSans-124" d="M783.06,178v10.16h-.71V178Z"/></g><g id="text_54" data-name="text 54"><path id="DejaVuSans-56-2" data-name="DejaVuSans-56" d="M784.52,169.78a1.42,1.42,0,0,0-1.13.46,1.81,1.81,0,0,0-.41,1.26,1.77,1.77,0,0,0,.41,1.26,1.62,1.62,0,0,0,2.26,0,2.1,2.1,0,0,0,0-2.52A1.42,1.42,0,0,0,784.52,169.78Zm-1-.51a1.83,1.83,0,0,1-1-.72,2.23,2.23,0,0,1-.36-1.29,2.28,2.28,0,0,1,.63-1.69,2.82,2.82,0,0,1,3.5,0,2.28,2.28,0,0,1,.63,1.69,2.23,2.23,0,0,1-.36,1.29,1.83,1.83,0,0,1-1,.72,2,2,0,0,1,1.14.79,2.47,2.47,0,0,1,.4,1.44,2.75,2.75,0,0,1-.66,2,2.49,2.49,0,0,1-1.89.69,2.53,2.53,0,0,1-1.9-.69,2.75,2.75,0,0,1-.66-2,2.47,2.47,0,0,1,.41-1.44A2,2,0,0,1,783.51,169.27Zm-.37-1.9a1.53,1.53,0,0,0,.36,1.08,1.55,1.55,0,0,0,2,0,1.76,1.76,0,0,0,0-2.16,1.55,1.55,0,0,0-2,0A1.53,1.53,0,0,0,783.14,167.37Z"/><path id="DejaVuSans-51-5" data-name="DejaVuSans-51" d="M791.92,169.21a1.89,1.89,0,0,1,1.13.77,2.47,2.47,0,0,1,.41,1.44,2.69,2.69,0,0,1-.76,2,3,3,0,0,1-2.16.72,4,4,0,0,1-1-.11,5.57,5.57,0,0,1-1-.33v-1.16a3.12,3.12,0,0,0,.92.44,3.58,3.58,0,0,0,1,.15,2.13,2.13,0,0,0,1.45-.44,1.66,1.66,0,0,0,.49-1.3,1.6,1.6,0,0,0-.46-1.23,1.73,1.73,0,0,0-1.28-.44h-.87v-1h.91a1.66,1.66,0,0,0,1.14-.36,1.29,1.29,0,0,0,.39-1,1.36,1.36,0,0,0-.41-1,1.7,1.7,0,0,0-1.16-.36,3.61,3.61,0,0,0-.89.11,6.82,6.82,0,0,0-1,.33v-1.07a7.51,7.51,0,0,1,1.07-.29,5.43,5.43,0,0,1,.95-.09,2.52,2.52,0,0,1,1.81.62,2.16,2.16,0,0,1,.67,1.68,2.12,2.12,0,0,1-.35,1.25A1.86,1.86,0,0,1,791.92,169.21Z"/></g><g id="text_55" data-name="text 55"><path id="DejaVuSansMono-Bold-69-7" data-name="DejaVuSansMono-Bold-69" d="M885.4,205.53h-7.27V191.61h7.27V194h-5v3h4.5v2.42h-4.5v3.65h5Z"/><path id="DejaVuSansMono-Bold-83-5" data-name="DejaVuSansMono-Bold-83" d="M900.09,199.42a5.74,5.74,0,0,1-2.36-1.66,4,4,0,0,1-.62-2.35,4.15,4.15,0,0,1,1-3,3.65,3.65,0,0,1,2.79-1.08,6,6,0,0,1,1.61.22,7.19,7.19,0,0,1,1.59.65v2.68a6.16,6.16,0,0,0-1.5-.95,3.83,3.83,0,0,0-1.52-.33,1.82,1.82,0,0,0-1.28.41,1.44,1.44,0,0,0-.45,1.14,1.4,1.4,0,0,0,.33,1,3.88,3.88,0,0,0,1.35.83l1,.45a4.12,4.12,0,0,1,2.73,4.19,3.69,3.69,0,0,1-4.2,4.19,6.52,6.52,0,0,1-1.74-.24,6.94,6.94,0,0,1-1.68-.74V202a7.37,7.37,0,0,0,1.78,1.16,4.16,4.16,0,0,0,1.71.39,1.82,1.82,0,0,0,1.32-.46,1.71,1.71,0,0,0,.47-1.29,1.92,1.92,0,0,0-.31-1.1,2.12,2.12,0,0,0-.91-.74Z"/><path id="DejaVuSansMono-Bold-77" d="M916.06,191.61h2.75l1.39,6.11,1.39-6.11h2.77v13.92h-2V194.38l-1.24,6.09H919.3l-1.25-6.09v11.15h-2Z"/><path id="DejaVuSansMono-Bold-78-3" data-name="DejaVuSansMono-Bold-78" d="M935.6,191.61h2.48l3.26,10.12V191.61h2v13.92H940.9l-3.27-10.12v10.12h-2Z"/><path id="DejaVuSansMono-Bold-75-6" data-name="DejaVuSansMono-Bold-75" d="M954.87,191.61h2.31v5.5l3.61-5.5h2.61l-3.68,5.48,3.82,8.44H961l-2.77-6.26-1,1.54v4.72h-2.31Z"/><path id="DejaVuSansMono-Bold-69-8" data-name="DejaVuSansMono-Bold-69" d="M981.83,205.53h-7.28V191.61h7.28V194h-5v3h4.5v2.42h-4.5v3.65h5Z"/><path id="DejaVuSansMono-Bold-76-7" data-name="DejaVuSansMono-Bold-76" d="M994.28,205.53V191.61h2.31v11.5h4.94v2.42Z"/><path id="DejaVuSansMono-Bold-75-7" data-name="DejaVuSansMono-Bold-75" d="M1012.73,191.61h2.3v5.5l3.61-5.5h2.62l-3.69,5.48,3.82,8.44h-2.57l-2.76-6.26-1,1.54v4.72h-2.3Z"/><path id="DejaVuSansMono-Bold-75-8" data-name="DejaVuSansMono-Bold-75" d="M1032,191.61h2.31v5.5l3.61-5.5h2.61l-3.68,5.48,3.81,8.44h-2.56l-2.77-6.26-1,1.54v4.72H1032Z"/><path id="DejaVuSansMono-Bold-73-7" data-name="DejaVuSansMono-Bold-73" d="M1051.73,194v-2.43h7V194h-2.32v9.07h2.32v2.42h-7v-2.42h2.32V194Z"/><path id="DejaVuSansMono-Bold-73-8" data-name="DejaVuSansMono-Bold-73" d="M1071,194v-2.43h7V194h-2.32v9.07H1078v2.42h-7v-2.42h2.32V194Z"/><path id="DejaVuSansMono-Bold-71-9" data-name="DejaVuSansMono-Bold-71" d="M1095.77,203v-2.65h-1.58v-2.31h3.6v6.37a4.62,4.62,0,0,1-1.47,1,4.14,4.14,0,0,1-1.72.35,3.93,3.93,0,0,1-3.5-1.88,9.71,9.71,0,0,1-1.23-5.33,9.61,9.61,0,0,1,1.24-5.37,4.07,4.07,0,0,1,3.6-1.86,4.19,4.19,0,0,1,1.39.24,4.59,4.59,0,0,1,1.27.68v3.05a3.39,3.39,0,0,0-1.11-1.12,2.65,2.65,0,0,0-1.38-.38,2.11,2.11,0,0,0-2,1.18,7.73,7.73,0,0,0-.64,3.58,7.89,7.89,0,0,0,.62,3.53,2,2,0,0,0,1.82,1.21,2.35,2.35,0,0,0,.63-.08A1,1,0,0,0,1095.77,203Z"/><path id="DejaVuSansMono-Bold-81-4" data-name="DejaVuSansMono-Bold-81" d="M1113.36,205.75l-.18,0H1113a3.32,3.32,0,0,1-3-1.82,14.51,14.51,0,0,1,0-10.79,3.48,3.48,0,0,1,6.13,0,11.2,11.2,0,0,1,1,5.4,14.48,14.48,0,0,1-.5,4.1,4.39,4.39,0,0,1-1.43,2.37l1.46,1.69-1.58,1.4Zm-.31-11.92c-.59,0-1,.38-1.29,1.13a16.23,16.23,0,0,0,0,7.25c.27.75.7,1.12,1.29,1.12s1-.37,1.3-1.12a16.23,16.23,0,0,0,0-7.25C1114.08,194.21,1113.65,193.83,1113.05,193.83Z"/></g><g id="text_56" data-name="text 56"><path id="DejaVuSans-124-19" data-name="DejaVuSans-124" d="M878.13,178v10.16h-.71V178Z"/></g><g id="text_57" data-name="text 57"><path id="DejaVuSans-56-3" data-name="DejaVuSans-56" d="M879.59,169.78a1.42,1.42,0,0,0-1.13.46,1.85,1.85,0,0,0-.41,1.26,1.82,1.82,0,0,0,.41,1.26,1.62,1.62,0,0,0,2.26,0,1.81,1.81,0,0,0,.42-1.26,1.85,1.85,0,0,0-.41-1.26A1.46,1.46,0,0,0,879.59,169.78Zm-1-.51a1.83,1.83,0,0,1-1-.72,2.53,2.53,0,0,1,.28-3,2.38,2.38,0,0,1,1.74-.61,2.41,2.41,0,0,1,1.75.61,2.28,2.28,0,0,1,.63,1.69,2.23,2.23,0,0,1-.36,1.29,1.83,1.83,0,0,1-1,.72,2,2,0,0,1,1.14.79,2.47,2.47,0,0,1,.41,1.44,2.75,2.75,0,0,1-.66,2,2.53,2.53,0,0,1-1.9.69,2.49,2.49,0,0,1-1.89-.69,2.76,2.76,0,0,1-.67-2,2.47,2.47,0,0,1,.41-1.44A2.07,2.07,0,0,1,878.58,169.27Zm-.37-1.9a1.53,1.53,0,0,0,.36,1.08,1.56,1.56,0,0,0,2,0,1.8,1.8,0,0,0,0-2.16,1.56,1.56,0,0,0-2,0A1.53,1.53,0,0,0,878.21,167.37Z"/><path id="DejaVuSans-56-4" data-name="DejaVuSans-56" d="M886.09,169.78a1.45,1.45,0,0,0-1.13.46,1.85,1.85,0,0,0-.41,1.26,1.82,1.82,0,0,0,.41,1.26,1.63,1.63,0,0,0,2.27,0,1.85,1.85,0,0,0,.41-1.26,1.81,1.81,0,0,0-.41-1.26A1.43,1.43,0,0,0,886.09,169.78Zm-1-.51a1.79,1.79,0,0,1-1-.72,2.23,2.23,0,0,1-.37-1.29,2.28,2.28,0,0,1,.64-1.69,2.8,2.8,0,0,1,3.49,0,2.25,2.25,0,0,1,.64,1.69,2.16,2.16,0,0,1-.37,1.29,1.8,1.8,0,0,1-1,.72,2,2,0,0,1,1.13.79,2.47,2.47,0,0,1,.41,1.44,2.75,2.75,0,0,1-.66,2,2.95,2.95,0,0,1-3.79,0,2.75,2.75,0,0,1-.66-2,2.47,2.47,0,0,1,.41-1.44A2,2,0,0,1,885.09,169.27Zm-.37-1.9a1.53,1.53,0,0,0,.36,1.08,1.55,1.55,0,0,0,2,0,1.76,1.76,0,0,0,0-2.16,1.55,1.55,0,0,0-2,0A1.53,1.53,0,0,0,884.72,167.37Z"/></g><g id="text_58" data-name="text 58"><path id="DejaVuSansMono-Bold-86-9" data-name="DejaVuSansMono-Bold-86" d="M178.09,293.33l2.06-11.63h2.32l-2.77,13.92h-3.2l-2.78-13.92H176Z"/><path id="DejaVuSansMono-Bold-82-2" data-name="DejaVuSansMono-Bold-82" d="M198.87,289.05a1.05,1.05,0,0,1,.6.39,4.84,4.84,0,0,1,.62,1.17l2.11,5h-2.53l-1.41-3.51-.16-.42c-.41-1.05-.9-1.57-1.46-1.57h-.73v5.5H193.6V281.7h3.33a4.59,4.59,0,0,1,3.24.95,4.21,4.21,0,0,1,1,3.1,4,4,0,0,1-.59,2.28A2.37,2.37,0,0,1,198.87,289.05Zm-3-5v3.8H197a1.74,1.74,0,0,0,1.35-.45,2.79,2.79,0,0,0,0-2.91A1.78,1.78,0,0,0,197,284Z"/><path id="DejaVuSansMono-Bold-68-3" data-name="DejaVuSansMono-Bold-68" d="M215.22,284.18v9h.63a2.05,2.05,0,0,0,1.94-1,7.49,7.49,0,0,0,.58-3.48,7.32,7.32,0,0,0-.58-3.44,2.05,2.05,0,0,0-1.94-1Zm-2.3-2.48h2.47a4.87,4.87,0,0,1,4.12,1.63q1.26,1.62,1.26,5.31T219.51,294a4.88,4.88,0,0,1-4.12,1.64h-2.47Z"/><path id="DejaVuSansMono-Bold-81-5" data-name="DejaVuSansMono-Bold-81" d="M236.26,295.83l-.18.05h-.15a3.31,3.31,0,0,1-3-1.82,14.51,14.51,0,0,1,0-10.79,3.48,3.48,0,0,1,6.13,0,11.14,11.14,0,0,1,1,5.39,14.54,14.54,0,0,1-.49,4.11,4.49,4.49,0,0,1-1.43,2.37l1.45,1.69-1.57,1.4ZM236,283.92c-.59,0-1,.37-1.29,1.12a16.27,16.27,0,0,0,0,7.26c.27.74.7,1.12,1.29,1.12s1-.38,1.29-1.12a16.27,16.27,0,0,0,0-7.26C237,284.29,236.54,283.92,236,283.92Z"/></g><g id="text_59" data-name="text 59"><path id="DejaVuSans-124-20" data-name="DejaVuSans-124" d="M174.59,268v10.15h-.71V268Z"/></g><g id="text_60" data-name="text 60"><path id="DejaVuSans-49-6" data-name="DejaVuSans-49" d="M174.07,263.08h1.65V256.3l-1.8.43v-1.1l1.79-.43h1v7.88h1.65v1h-4.29Z"/><path id="DejaVuSans-48-2" data-name="DejaVuSans-48" d="M182.55,256a1.27,1.27,0,0,0-1.17.91,9.86,9.86,0,0,0,0,5.49,1.27,1.27,0,0,0,1.17.91,1.26,1.26,0,0,0,1.18-.91,9.86,9.86,0,0,0,0-5.49A1.26,1.26,0,0,0,182.55,256Zm0-1a2.09,2.09,0,0,1,1.92,1.19,9.22,9.22,0,0,1,0,6.85,2.14,2.14,0,0,1-3.83,0,9.22,9.22,0,0,1,0-6.85A2.09,2.09,0,0,1,182.55,255Z"/><path id="DejaVuSans-49-7" data-name="DejaVuSans-49" d="M187.08,263.08h1.64V256.3l-1.79.43v-1.1l1.79-.43h1v7.88h1.65v1h-4.29Z"/></g><g id="text_61" data-name="text 61"><path id="DejaVuSansMono-Bold-65-9" data-name="DejaVuSansMono-Bold-65" d="M254.15,284.22l-1.08,5.69h2.18Zm-1.4-2.52h2.82l3.15,13.92h-2.31l-.72-3.44H252.6l-.7,3.44h-2.31Z"/><path id="DejaVuSansMono-Bold-69-9" data-name="DejaVuSansMono-Bold-69" d="M277.21,295.62h-7.28V281.7h7.28v2.42h-5v3h4.5v2.42h-4.5v3.64h5Z"/><path id="DejaVuSansMono-Bold-72-4" data-name="DejaVuSansMono-Bold-72" d="M289,281.7h2.3V287h2.89v-5.3h2.31v13.92h-2.31v-6.19h-2.89v6.19H289Z"/></g><g id="text_62" data-name="text 62"><path id="DejaVuSans-124-21" data-name="DejaVuSans-124" d="M250.65,268v10.15h-.71V268Z"/></g><g id="text_63" data-name="text 63"><path id="DejaVuSans-49-8" data-name="DejaVuSans-49" d="M250.13,263.08h1.65V256.3l-1.8.43v-1.1l1.79-.43h1v7.88h1.65v1h-4.29Z"/><path id="DejaVuSans-48-3" data-name="DejaVuSans-48" d="M258.61,256a1.26,1.26,0,0,0-1.17.91,9.86,9.86,0,0,0,0,5.49,1.21,1.21,0,0,0,2.35,0,9.86,9.86,0,0,0,0-5.49A1.26,1.26,0,0,0,258.61,256Zm0-1a2.09,2.09,0,0,1,1.92,1.19,9.22,9.22,0,0,1,0,6.85,2.14,2.14,0,0,1-3.83,0,9.22,9.22,0,0,1,0-6.85A2.09,2.09,0,0,1,258.61,255Z"/><path id="DejaVuSans-53-6" data-name="DejaVuSans-53" d="M263,255.2h4v1h-3v2.17a2.35,2.35,0,0,1,.43-.13,2.25,2.25,0,0,1,.44,0,2.53,2.53,0,0,1,2,.81,3.17,3.17,0,0,1,.73,2.21,3.13,3.13,0,0,1-.75,2.23,2.75,2.75,0,0,1-2.11.79,5.36,5.36,0,0,1-1-.09,7,7,0,0,1-1-.29v-1.21a3.58,3.58,0,0,0,.93.44,3.62,3.62,0,0,0,1,.14,1.8,1.8,0,0,0,1.37-.54,2.41,2.41,0,0,0,0-2.94,1.8,1.8,0,0,0-1.37-.54,3.21,3.21,0,0,0-.81.1,3.76,3.76,0,0,0-.82.34Z"/></g><g id="text_64" data-name="text 64"><path id="DejaVuSansMono-Bold-76-8" data-name="DejaVuSansMono-Bold-76" d="M308.14,295.62V281.7h2.31v11.49h4.93v2.43Z"/><path id="DejaVuSansMono-Bold-81-6" data-name="DejaVuSansMono-Bold-81" d="M330.79,295.83l-.18.05h-.14a3.32,3.32,0,0,1-3.05-1.82,14.51,14.51,0,0,1,0-10.79,3.48,3.48,0,0,1,6.13,0,11.13,11.13,0,0,1,1,5.39,14.5,14.5,0,0,1-.5,4.11,4.43,4.43,0,0,1-1.43,2.37l1.46,1.69-1.58,1.4Zm-.31-11.91c-.59,0-1,.37-1.29,1.12a16.27,16.27,0,0,0,0,7.26c.27.74.7,1.12,1.29,1.12s1-.38,1.3-1.12a16.27,16.27,0,0,0,0-7.26C331.51,284.29,331.08,283.92,330.48,283.92Z"/><path id="DejaVuSansMono-Bold-84-10" data-name="DejaVuSansMono-Bold-84" d="M350.92,295.62h-2.3V284.11h-3V281.7h8.24v2.41h-3Z"/><path id="DejaVuSansMono-Bold-65-10" data-name="DejaVuSansMono-Bold-65" d="M369.05,284.22,368,289.91h2.19Zm-1.41-2.52h2.83l3.15,13.92h-2.31l-.72-3.44H367.5l-.7,3.44h-2.31Z"/><path id="DejaVuSansMono-Bold-86-10" data-name="DejaVuSansMono-Bold-86" d="M388.34,293.33l2.05-11.63h2.32l-2.77,13.92h-3.2L384,281.7h2.33Z"/><path id="DejaVuSansMono-Bold-81-7" data-name="DejaVuSansMono-Bold-81" d="M407.93,295.83l-.18.05h-.14a3.32,3.32,0,0,1-3.05-1.82,14.51,14.51,0,0,1,0-10.79,3.48,3.48,0,0,1,6.13,0,11.13,11.13,0,0,1,1,5.39,14.5,14.5,0,0,1-.5,4.11,4.49,4.49,0,0,1-1.43,2.37l1.46,1.69-1.58,1.4Zm-.31-11.91c-.59,0-1,.37-1.29,1.12a16.27,16.27,0,0,0,0,7.26c.27.74.7,1.12,1.29,1.12s1-.38,1.3-1.12a16.67,16.67,0,0,0,0-7.26C408.65,284.29,408.21,283.92,407.62,283.92Z"/><path id="DejaVuSansMono-Bold-77-2" data-name="DejaVuSansMono-Bold-77" d="M422.76,281.7h2.75l1.39,6.11,1.39-6.11h2.77v13.92h-2V284.47l-1.23,6.09H426l-1.25-6.09v11.15h-2Z"/><path id="DejaVuSansMono-Bold-65-11" data-name="DejaVuSansMono-Bold-65" d="M446.19,284.22l-1.09,5.69h2.19Zm-1.41-2.52h2.83l3.15,13.92h-2.31l-.72-3.44h-3.09l-.7,3.44h-2.31Z"/><path id="DejaVuSansMono-Bold-86-11" data-name="DejaVuSansMono-Bold-86" d="M465.47,293.33l2.06-11.63h2.32l-2.77,13.92h-3.2L461.1,281.7h2.32Z"/><path id="DejaVuSansMono-Bold-70-4" data-name="DejaVuSansMono-Bold-70" d="M488.64,284.12h-5v3h4.52v2.42h-4.52v6.07h-2.3V281.7h7.27Z"/><path id="DejaVuSansMono-Bold-73-9" data-name="DejaVuSansMono-Bold-73" d="M500.57,284.12V281.7h6.95v2.42H505.2v9.07h2.32v2.43h-6.95v-2.43h2.33v-9.07Z"/><path id="DejaVuSansMono-Bold-72-5" data-name="DejaVuSansMono-Bold-72" d="M519.58,281.7h2.31V287h2.88v-5.3h2.31v13.92h-2.31v-6.19h-2.88v6.19h-2.31Z"/><path id="DejaVuSansMono-Bold-78-4" data-name="DejaVuSansMono-Bold-78" d="M538.73,281.7h2.48l3.25,10.12V281.7h2v13.92H544l-3.27-10.12v10.12h-2Z"/><path id="DejaVuSansMono-Bold-75-9" data-name="DejaVuSansMono-Bold-75" d="M558,281.7h2.3v5.5l3.62-5.5h2.61l-3.69,5.48,3.82,8.44H564.1l-2.77-6.27-1,1.55v4.72H558Z"/></g><g id="text_65" data-name="text 65"><path id="DejaVuSans-124-22" data-name="DejaVuSans-124" d="M307.69,268v10.15H307V268Z"/></g><g id="text_66" data-name="text 66"><path id="DejaVuSans-49-9" data-name="DejaVuSans-49" d="M307.17,263.08h1.65V256.3l-1.79.43v-1.1l1.78-.43h1v7.88h1.64v1h-4.29Z"/><path id="DejaVuSans-48-4" data-name="DejaVuSans-48" d="M315.66,256a1.26,1.26,0,0,0-1.17.91,9.62,9.62,0,0,0,0,5.49,1.21,1.21,0,0,0,2.34,0,9.62,9.62,0,0,0,0-5.49A1.26,1.26,0,0,0,315.66,256Zm0-1a2.09,2.09,0,0,1,1.91,1.19,9.22,9.22,0,0,1,0,6.85,2.14,2.14,0,0,1-3.83,0,9.22,9.22,0,0,1,0-6.85A2.09,2.09,0,0,1,315.66,255Z"/><path id="DejaVuSans-56-5" data-name="DejaVuSans-56" d="M322.16,259.87a1.42,1.42,0,0,0-1.13.46,1.82,1.82,0,0,0-.41,1.26,1.85,1.85,0,0,0,.41,1.26,1.62,1.62,0,0,0,2.26,0,2.12,2.12,0,0,0,0-2.52A1.46,1.46,0,0,0,322.16,259.87Zm-1-.51a1.83,1.83,0,0,1-1-.72,2.27,2.27,0,0,1-.36-1.29,2.23,2.23,0,0,1,.64-1.69,2.39,2.39,0,0,1,1.74-.62,2.41,2.41,0,0,1,1.75.62,2.54,2.54,0,0,1,.27,3,1.84,1.84,0,0,1-1,.72,2,2,0,0,1,1.13.79,2.47,2.47,0,0,1,.41,1.44,2.75,2.75,0,0,1-.66,2,2.53,2.53,0,0,1-1.9.69,2.49,2.49,0,0,1-1.89-.69,2.75,2.75,0,0,1-.66-2,2.47,2.47,0,0,1,.4-1.44A2,2,0,0,1,321.15,259.36Zm-.37-1.9a1.53,1.53,0,0,0,.36,1.08,1.56,1.56,0,0,0,2,0,1.8,1.8,0,0,0,0-2.16,1.56,1.56,0,0,0-2,0A1.53,1.53,0,0,0,320.78,257.46Z"/></g><g id="text_67" data-name="text 67"><path id="DejaVuSansMono-Bold-75-10" data-name="DejaVuSansMono-Bold-75" d="M573.5,281.7h2.31v5.5l3.61-5.5H582l-3.68,5.48,3.81,8.44H579.6l-2.77-6.27-1,1.55v4.72H573.5Z"/></g><g id="text_68" data-name="text 68"><path id="DejaVuSans-124-23" data-name="DejaVuSans-124" d="M573.9,268v10.15h-.71V268Z"/></g><g id="text_69" data-name="text 69"><path id="DejaVuSans-49-10" data-name="DejaVuSans-49" d="M573.38,263.08H575V256.3l-1.79.43v-1.1l1.78-.43h1v7.88h1.65v1h-4.29Z"/><path id="DejaVuSans-50-3" data-name="DejaVuSans-50" d="M580.57,263.08h3.52v1h-4.73v-1c.38-.47.9-1.11,1.57-1.9s1.07-1.31,1.24-1.54a6.25,6.25,0,0,0,.68-1.1,2.18,2.18,0,0,0,.19-.88,1.62,1.62,0,0,0-.42-1.16,1.4,1.4,0,0,0-1.08-.45,2.87,2.87,0,0,0-1,.2,5.44,5.44,0,0,0-1.13.6v-1.22a8,8,0,0,1,1.14-.44,3.53,3.53,0,0,1,1-.15,2.47,2.47,0,0,1,1.84.69,2.51,2.51,0,0,1,.69,1.85,3,3,0,0,1-.17,1,4.83,4.83,0,0,1-.63,1.15c-.08.12-.34.45-.79,1S581.39,262.09,580.57,263.08Z"/><path id="DejaVuSans-50-4" data-name="DejaVuSans-50" d="M587.08,263.08h3.52v1h-4.73v-1c.38-.47.9-1.11,1.56-1.9s1.08-1.31,1.25-1.54a6.1,6.1,0,0,0,.67-1.1,2.18,2.18,0,0,0,.19-.88,1.62,1.62,0,0,0-.41-1.16,1.42,1.42,0,0,0-1.09-.45,2.87,2.87,0,0,0-1,.2,5.44,5.44,0,0,0-1.13.6v-1.22a8,8,0,0,1,1.14-.44,3.65,3.65,0,0,1,1-.15,2.38,2.38,0,0,1,2.54,2.54,3,3,0,0,1-.18,1,5.11,5.11,0,0,1-.62,1.15c-.08.12-.35.45-.8,1Z"/></g><g id="text_70" data-name="text 70"><path id="DejaVuSansMono-Bold-82-3" data-name="DejaVuSansMono-Bold-82" d="M597.91,289.05a1.05,1.05,0,0,1,.6.39,5.23,5.23,0,0,1,.62,1.17l2.11,5h-2.53l-1.41-3.51c0-.1-.1-.24-.16-.42-.42-1.05-.9-1.57-1.46-1.57H595v5.5h-2.31V281.7H596a4.55,4.55,0,0,1,3.23.95,4.16,4.16,0,0,1,1,3.1,4,4,0,0,1-.58,2.28A2.37,2.37,0,0,1,597.91,289.05Zm-3-5v3.8H596a1.77,1.77,0,0,0,1.36-.45,2.79,2.79,0,0,0,0-2.91A1.79,1.79,0,0,0,596,284Z"/></g><g id="text_71" data-name="text 71"><path id="DejaVuSans-124-24" data-name="DejaVuSans-124" d="M592.91,268v10.15h-.71V268Z"/></g><g id="text_72" data-name="text 72"><path id="DejaVuSans-49-11" data-name="DejaVuSans-49" d="M592.39,263.08H594V256.3l-1.79.43v-1.1l1.78-.43h1v7.88h1.64v1h-4.29Z"/><path id="DejaVuSans-50-5" data-name="DejaVuSans-50" d="M599.59,263.08h3.52v1h-4.73v-1c.38-.47.9-1.11,1.56-1.9s1.08-1.31,1.25-1.54a6.1,6.1,0,0,0,.67-1.1,2.18,2.18,0,0,0,.19-.88,1.62,1.62,0,0,0-.41-1.16,1.42,1.42,0,0,0-1.09-.45,2.91,2.91,0,0,0-1,.2,5.15,5.15,0,0,0-1.12.6v-1.22a7.45,7.45,0,0,1,1.13-.44,3.65,3.65,0,0,1,1-.15,2.38,2.38,0,0,1,2.54,2.54,3,3,0,0,1-.18,1,5.11,5.11,0,0,1-.62,1.15c-.08.12-.35.45-.8,1Z"/><path id="DejaVuSans-51-6" data-name="DejaVuSans-51" d="M608.28,259.3a1.89,1.89,0,0,1,1.13.77,2.47,2.47,0,0,1,.41,1.44,2.69,2.69,0,0,1-.76,2,3,3,0,0,1-2.16.72,4,4,0,0,1-1-.11,5.34,5.34,0,0,1-1-.33v-1.16a3.39,3.39,0,0,0,.92.44,3.58,3.58,0,0,0,1,.15,2.12,2.12,0,0,0,1.45-.45,1.64,1.64,0,0,0,.49-1.29,1.6,1.6,0,0,0-.46-1.23,1.75,1.75,0,0,0-1.28-.45h-.87v-1h.91a1.61,1.61,0,0,0,1.13-.36,1.26,1.26,0,0,0,.4-1,1.36,1.36,0,0,0-.41-1.05,1.7,1.7,0,0,0-1.16-.37,4.08,4.08,0,0,0-.89.11,6.91,6.91,0,0,0-1,.33v-1.07a9.63,9.63,0,0,1,1.08-.28,5.49,5.49,0,0,1,.95-.1,2.52,2.52,0,0,1,1.81.63,2.41,2.41,0,0,1,.32,2.92A1.86,1.86,0,0,1,608.28,259.3Z"/></g><g id="text_73" data-name="text 73"><path id="DejaVuSansMono-Bold-75-11" data-name="DejaVuSansMono-Bold-75" d="M611.53,281.7h2.31v5.5l3.61-5.5h2.61l-3.68,5.48,3.81,8.44h-2.56l-2.77-6.27-1,1.55v4.72h-2.31Z"/><path id="DejaVuSansMono-Bold-71-10" data-name="DejaVuSansMono-Bold-71" d="M636.72,293.1v-2.65h-1.58v-2.32h3.59v6.38a4.64,4.64,0,0,1-1.46,1,4.34,4.34,0,0,1-1.72.35,4,4,0,0,1-3.5-1.88,12.14,12.14,0,0,1,0-10.71,4.34,4.34,0,0,1,5-1.61,4.39,4.39,0,0,1,1.28.68v3.05a3.33,3.33,0,0,0-1.12-1.12,2.59,2.59,0,0,0-1.37-.38,2.11,2.11,0,0,0-2,1.18,7.69,7.69,0,0,0-.65,3.57,7.89,7.89,0,0,0,.63,3.54,2,2,0,0,0,1.82,1.21,2.35,2.35,0,0,0,.63-.08A1,1,0,0,0,636.72,293.1Z"/><path id="DejaVuSansMono-Bold-48-2" data-name="DejaVuSansMono-Bold-48" d="M653,288.67a1.25,1.25,0,0,1,.28-.83.9.9,0,0,1,1.39,0,1.3,1.3,0,0,1,.28.83,1.25,1.25,0,0,1-.28.82.87.87,0,0,1-.7.34.88.88,0,0,1-.69-.33A1.23,1.23,0,0,1,653,288.67Zm1-4.89q-.79,0-1.17,1.17a19.4,19.4,0,0,0,0,7.44q.38,1.17,1.17,1.17t1.17-1.17a18.89,18.89,0,0,0,0-7.44Q654.81,283.78,654,283.78Zm-3.86,4.89a11.91,11.91,0,0,1,1-5.42,3.24,3.24,0,0,1,5.8,0,15.78,15.78,0,0,1,0,10.84,3.24,3.24,0,0,1-5.8,0A11.94,11.94,0,0,1,650.14,288.67Z"/><path id="DejaVuSansMono-Bold-71-11" data-name="DejaVuSansMono-Bold-71" d="M675.29,293.1v-2.65h-1.58v-2.32h3.59v6.38a4.64,4.64,0,0,1-1.46,1,4.34,4.34,0,0,1-1.72.35,4,4,0,0,1-3.5-1.88,12.14,12.14,0,0,1,0-10.71,4.34,4.34,0,0,1,5-1.61,4.39,4.39,0,0,1,1.28.68v3.05a3.42,3.42,0,0,0-1.12-1.12,2.59,2.59,0,0,0-1.37-.38,2.1,2.1,0,0,0-2,1.18,7.69,7.69,0,0,0-.65,3.57,7.89,7.89,0,0,0,.63,3.54,2,2,0,0,0,1.82,1.21,2.35,2.35,0,0,0,.63-.08A1,1,0,0,0,675.29,293.1Z"/><path id="DejaVuSansMono-Bold-89-3" data-name="DejaVuSansMono-Bold-89" d="M687.81,281.7h2.49l2.27,5.59,2.27-5.59h2.49l-3.6,8.44v5.48h-2.31v-5.48Z"/></g><g id="text_74" data-name="text 74"><path id="DejaVuSans-124-25" data-name="DejaVuSans-124" d="M611.93,268v10.15h-.71V268Z"/></g><g id="text_75" data-name="text 75"><path id="DejaVuSans-49-12" data-name="DejaVuSans-49" d="M611.41,263.08h1.64V256.3l-1.79.43v-1.1l1.78-.43h1v7.88h1.65v1h-4.29Z"/><path id="DejaVuSans-50-6" data-name="DejaVuSans-50" d="M618.6,263.08h3.52v1h-4.73v-1c.38-.47.9-1.11,1.56-1.9s1.08-1.31,1.25-1.54a6.25,6.25,0,0,0,.68-1.1,2.37,2.37,0,0,0,.19-.88,1.62,1.62,0,0,0-.42-1.16,1.41,1.41,0,0,0-1.08-.45,3,3,0,0,0-1,.2,5.39,5.39,0,0,0-1.12.6v-1.22a7.54,7.54,0,0,1,1.14-.44,3.53,3.53,0,0,1,1-.15,2.38,2.38,0,0,1,2.53,2.54,3.29,3.29,0,0,1-.17,1,4.83,4.83,0,0,1-.63,1.15c-.08.12-.34.45-.79,1S619.42,262.09,618.6,263.08Z"/><path id="DejaVuSans-52-3" data-name="DejaVuSans-52" d="M627,256.25,624.46,261H627Zm-.27-1.05H628V261h1.07v1H628v2.1h-1V262h-3.36v-1.16Z"/></g><g id="text_76" data-name="text 76"><path id="DejaVuSansMono-Bold-83-6" data-name="DejaVuSansMono-Bold-83" d="M709.67,289.51a5.83,5.83,0,0,1-2.36-1.66,4,4,0,0,1-.62-2.35,4.15,4.15,0,0,1,1-3,3.65,3.65,0,0,1,2.79-1.08,5.9,5.9,0,0,1,1.61.22,7,7,0,0,1,1.6.65V285a6.1,6.1,0,0,0-1.51-.95,3.83,3.83,0,0,0-1.52-.33,1.9,1.9,0,0,0-1.28.4,1.46,1.46,0,0,0-.45,1.15,1.4,1.4,0,0,0,.33,1,4.06,4.06,0,0,0,1.36.83l1,.45a4.52,4.52,0,0,1,2.07,1.63,4.62,4.62,0,0,1,.67,2.56,4.25,4.25,0,0,1-1,3.15,4.3,4.3,0,0,1-3.15,1,6.15,6.15,0,0,1-1.74-.25,7,7,0,0,1-1.69-.73v-2.84a7.41,7.41,0,0,0,1.79,1.16,4.08,4.08,0,0,0,1.71.38,1.85,1.85,0,0,0,1.32-.45,1.75,1.75,0,0,0,.47-1.3,1.92,1.92,0,0,0-.32-1.09,2,2,0,0,0-.9-.74Z"/></g><g id="text_77" data-name="text 77"><path id="DejaVuSans-124-26" data-name="DejaVuSans-124" d="M707,268v10.15h-.71V268Z"/></g><g id="text_78" data-name="text 78"><path id="DejaVuSans-49-13" data-name="DejaVuSans-49" d="M706.48,263.08h1.65V256.3l-1.8.43v-1.1l1.79-.43h1v7.88h1.65v1h-4.29Z"/><path id="DejaVuSans-50-7" data-name="DejaVuSans-50" d="M713.68,263.08h3.51v1h-4.73v-1l1.57-1.9c.66-.8,1.07-1.31,1.24-1.54a5.7,5.7,0,0,0,.68-1.1,2.18,2.18,0,0,0,.19-.88,1.66,1.66,0,0,0-.41-1.16,1.42,1.42,0,0,0-1.09-.45,2.87,2.87,0,0,0-1,.2,5.44,5.44,0,0,0-1.13.6v-1.22a8,8,0,0,1,1.14-.44,3.59,3.59,0,0,1,1-.15,2.36,2.36,0,0,1,2.53,2.54,3,3,0,0,1-.17,1,5.11,5.11,0,0,1-.62,1.15c-.09.12-.35.45-.8,1Z"/><path id="DejaVuSans-57-5" data-name="DejaVuSans-57" d="M719.34,263.9v-1.09a4,4,0,0,0,.77.33,2.91,2.91,0,0,0,.76.11,1.72,1.72,0,0,0,1.53-.8A4.89,4.89,0,0,0,723,260a2.12,2.12,0,0,1-.73.78,1.81,1.81,0,0,1-1,.28,2.17,2.17,0,0,1-1.77-.81,3.43,3.43,0,0,1-.65-2.2,3.36,3.36,0,0,1,.68-2.2,2.23,2.23,0,0,1,1.81-.83,2.15,2.15,0,0,1,2,1.19,6.89,6.89,0,0,1,.68,3.43,5.94,5.94,0,0,1-.83,3.35,2.6,2.6,0,0,1-2.25,1.25,3.44,3.44,0,0,1-.77-.09A4.81,4.81,0,0,1,719.34,263.9Zm2-3.76a1.26,1.26,0,0,0,1.07-.55,3.09,3.09,0,0,0,0-3,1.24,1.24,0,0,0-1.07-.55,1.27,1.27,0,0,0-1.08.55,3.16,3.16,0,0,0,0,3A1.29,1.29,0,0,0,721.35,260.14Z"/></g><g id="text_79" data-name="text 79"><path id="DejaVuSansMono-Bold-65-12" data-name="DejaVuSansMono-Bold-65" d="M729.52,284.22l-1.09,5.69h2.18Zm-1.41-2.52h2.82l3.15,13.92h-2.3l-.72-3.44H728l-.7,3.44H725Z"/><path id="DejaVuSansMono-Bold-71-12" data-name="DejaVuSansMono-Bold-71" d="M750.8,293.1v-2.65h-1.57v-2.32h3.59v6.38a4.56,4.56,0,0,1-1.47,1,4.25,4.25,0,0,1-1.71.35,4,4,0,0,1-3.51-1.88,12.18,12.18,0,0,1,0-10.71,4.34,4.34,0,0,1,5-1.61,4.39,4.39,0,0,1,1.28.68v3.05a3.51,3.51,0,0,0-1.12-1.12,2.65,2.65,0,0,0-1.38-.38,2.1,2.1,0,0,0-2,1.18,7.69,7.69,0,0,0-.65,3.57,7.89,7.89,0,0,0,.63,3.54,2,2,0,0,0,1.82,1.21,2.22,2.22,0,0,0,.62-.08A1,1,0,0,0,750.8,293.1Z"/><path id="DejaVuSansMono-Bold-69-10" data-name="DejaVuSansMono-Bold-69" d="M771.86,295.62h-7.28V281.7h7.28v2.42h-5v3h4.5v2.42h-4.5v3.64h5Z"/><path id="DejaVuSansMono-Bold-82-4" data-name="DejaVuSansMono-Bold-82" d="M788.87,289.05a1.06,1.06,0,0,1,.59.39,4.84,4.84,0,0,1,.62,1.17l2.12,5h-2.54l-1.4-3.51c0-.1-.1-.24-.17-.42-.41-1.05-.9-1.57-1.45-1.57h-.74v5.5h-2.3V281.7h3.33a4.55,4.55,0,0,1,3.23.95,4.21,4.21,0,0,1,1,3.1,3.88,3.88,0,0,1-.59,2.28A2.37,2.37,0,0,1,788.87,289.05Zm-3-5v3.8H787a1.78,1.78,0,0,0,1.36-.45,2.79,2.79,0,0,0,0-2.91A1.8,1.8,0,0,0,787,284Z"/><path id="DejaVuSansMono-Bold-73-10" data-name="DejaVuSansMono-Bold-73" d="M803.19,284.12V281.7h6.95v2.42h-2.32v9.07h2.32v2.43h-6.95v-2.43h2.32v-9.07Z"/><path id="DejaVuSansMono-Bold-86-12" data-name="DejaVuSansMono-Bold-86" d="M825.94,293.33,828,281.7h2.32l-2.77,13.92h-3.2l-2.78-13.92h2.32Z"/><path id="DejaVuSansMono-Bold-68-4" data-name="DejaVuSansMono-Bold-68" d="M843.79,284.18v9h.62a2,2,0,0,0,1.94-1,7.49,7.49,0,0,0,.58-3.48,7.32,7.32,0,0,0-.58-3.44,2,2,0,0,0-1.94-1Zm-2.31-2.48H844a4.87,4.87,0,0,1,4.12,1.63q1.26,1.62,1.26,5.31T848.07,294a4.88,4.88,0,0,1-4.12,1.64h-2.47Z"/><path id="DejaVuSansMono-Bold-73-11" data-name="DejaVuSansMono-Bold-73" d="M861,284.12V281.7h7v2.42h-2.32v9.07H868v2.43h-7v-2.43h2.32v-9.07Z"/><path id="DejaVuSansMono-Bold-73-12" data-name="DejaVuSansMono-Bold-73" d="M880.32,284.12V281.7h7v2.42H885v9.07h2.33v2.43h-7v-2.43h2.33v-9.07Z"/><path id="DejaVuSansMono-Bold-65-13" data-name="DejaVuSansMono-Bold-65" d="M903.08,284.22,902,289.91h2.19Zm-1.41-2.52h2.83l3.15,13.92h-2.31l-.72-3.44h-3.09l-.7,3.44h-2.31Z"/><path id="DejaVuSansMono-Bold-84-11" data-name="DejaVuSansMono-Bold-84" d="M923.52,295.62h-2.3V284.11h-3V281.7h8.24v2.41h-3Z"/><path id="DejaVuSansMono-Bold-68-5" data-name="DejaVuSansMono-Bold-68" d="M940.21,284.18v9h.63a2.06,2.06,0,0,0,1.94-1,7.65,7.65,0,0,0,.57-3.48,7.48,7.48,0,0,0-.57-3.44,2.06,2.06,0,0,0-1.94-1Zm-2.31-2.48h2.48a4.88,4.88,0,0,1,4.12,1.63q1.26,1.62,1.26,5.31T944.5,294a4.89,4.89,0,0,1-4.12,1.64H937.9Z"/></g><g id="text_80" data-name="text 80"><path id="DejaVuSans-124-27" data-name="DejaVuSans-124" d="M726,268v10.15h-.7V268Z"/></g><g id="text_81" data-name="text 81"><path id="DejaVuSans-49-14" data-name="DejaVuSans-49" d="M725.49,263.08h1.65V256.3l-1.79.43v-1.1l1.78-.43h1v7.88h1.65v1h-4.3Z"/><path id="DejaVuSans-51-7" data-name="DejaVuSans-51" d="M734.88,259.3a1.89,1.89,0,0,1,1.13.77,2.47,2.47,0,0,1,.4,1.44,2.69,2.69,0,0,1-.75,2,3,3,0,0,1-2.16.72,4.18,4.18,0,0,1-1-.11,5.48,5.48,0,0,1-1-.33v-1.16a3.26,3.26,0,0,0,.92.44,3.58,3.58,0,0,0,1,.15,2.07,2.07,0,0,0,1.44-.45,1.89,1.89,0,0,0,0-2.52,1.78,1.78,0,0,0-1.29-.45h-.86v-1h.9a1.62,1.62,0,0,0,1.14-.36,1.26,1.26,0,0,0,.4-1,1.36,1.36,0,0,0-.41-1.05,1.71,1.71,0,0,0-1.17-.37,4.07,4.07,0,0,0-.88.11,6.91,6.91,0,0,0-1,.33v-1.07a9.11,9.11,0,0,1,1.08-.28,5.38,5.38,0,0,1,.94-.1,2.53,2.53,0,0,1,1.82.63,2.41,2.41,0,0,1,.32,2.92A1.86,1.86,0,0,1,734.88,259.3Z"/><path id="DejaVuSans-48-5" data-name="DejaVuSans-48" d="M740.48,256a1.26,1.26,0,0,0-1.17.91,9.86,9.86,0,0,0,0,5.49,1.21,1.21,0,0,0,2.35,0,9.86,9.86,0,0,0,0-5.49A1.27,1.27,0,0,0,740.48,256Zm0-1a2.09,2.09,0,0,1,1.92,1.19,9.22,9.22,0,0,1,0,6.85,2.14,2.14,0,0,1-3.83,0,9.22,9.22,0,0,1,0-6.85A2.09,2.09,0,0,1,740.48,255Z"/></g><g id="text_82" data-name="text 82"><path id="DejaVuSansMono-Bold-73-13" data-name="DejaVuSansMono-Bold-73" d="M954.22,284.12V281.7h6.95v2.42h-2.32v9.07h2.32v2.43h-6.95v-2.43h2.32v-9.07Z"/></g><g id="text_83" data-name="text 83"><path id="DejaVuSans-124-28" data-name="DejaVuSans-124" d="M954.19,268v10.15h-.71V268Z"/></g><g id="text_84" data-name="text 84"><path id="DejaVuSans-49-15" data-name="DejaVuSans-49" d="M953.67,263.08h1.65V256.3l-1.8.43v-1.1l1.79-.43h1v7.88H958v1h-4.29Z"/><path id="DejaVuSans-52-4" data-name="DejaVuSans-52" d="M962.77,256.25,960.22,261h2.55Zm-.27-1.05h1.27V261h1.07v1h-1.07v2.1h-1V262H959.4v-1.16Z"/><path id="DejaVuSans-50-8" data-name="DejaVuSans-50" d="M967.37,263.08h3.52v1h-4.73v-1c.38-.47.9-1.11,1.56-1.9s1.08-1.31,1.25-1.54a5.57,5.57,0,0,0,.67-1.1,2.2,2.2,0,0,0,.2-.88,1.62,1.62,0,0,0-.42-1.16,1.42,1.42,0,0,0-1.09-.45,2.91,2.91,0,0,0-1,.2,5.39,5.39,0,0,0-1.12.6v-1.22a7.45,7.45,0,0,1,1.13-.44,3.65,3.65,0,0,1,1-.15,2.38,2.38,0,0,1,2.54,2.54,3.29,3.29,0,0,1-.17,1,5.67,5.67,0,0,1-.63,1.15c-.08.12-.35.45-.79,1Z"/></g><g id="text_85" data-name="text 85"><path id="DejaVuSansMono-67" class="cls-6" d="M984.56,323.05a4.47,4.47,0,0,1-1.24.57,4.52,4.52,0,0,1-1.34.2,4,4,0,0,1-3.49-1.89,12,12,0,0,1,0-10.65,3.93,3.93,0,0,1,3.48-1.9,4.52,4.52,0,0,1,1.34.19,4.78,4.78,0,0,1,1.24.57v1.93a4.37,4.37,0,0,0-1.24-.87,3.26,3.26,0,0,0-1.34-.3,2.48,2.48,0,0,0-2.31,1.42,12.4,12.4,0,0,0,0,8.55,2.47,2.47,0,0,0,2.31,1.42,3.23,3.23,0,0,0,1.35-.3,4.2,4.2,0,0,0,1.23-.87Z"/><path id="DejaVuSansMono-108" class="cls-6" d="M1000.45,319.76a3.44,3.44,0,0,0,.36,1.75,1.13,1.13,0,0,0,1.05.58h1.68v1.46h-1.82a2.31,2.31,0,0,1-2-1,4.77,4.77,0,0,1-.71-2.8v-9.48H996.7v-1.34h3.75Z"/><path id="DejaVuSansMono-111" class="cls-6" d="M1009.91,314.31a1.78,1.78,0,0,0-1.65,1,8.23,8.23,0,0,0,0,6,1.78,1.78,0,0,0,1.65,1,1.81,1.81,0,0,0,1.67-1,8.37,8.37,0,0,0,0-6A1.81,1.81,0,0,0,1009.91,314.31Zm0-1.46a3.16,3.16,0,0,1,2.79,1.41,9.07,9.07,0,0,1,0,8.16,3.47,3.47,0,0,1-5.57,0,9.15,9.15,0,0,1,0-8.16A3.16,3.16,0,0,1,1009.91,312.85Z"/><path id="DejaVuSansMono-111-2" data-name="DejaVuSansMono-111" class="cls-6" d="M1019.56,314.31a1.8,1.8,0,0,0-1.66,1,8.37,8.37,0,0,0,0,6,1.86,1.86,0,0,0,3.32,0,8.37,8.37,0,0,0,0-6A1.8,1.8,0,0,0,1019.56,314.31Zm0-1.46a3.16,3.16,0,0,1,2.78,1.41,7.14,7.14,0,0,1,1,4.07,7.25,7.25,0,0,1-1,4.09,3.48,3.48,0,0,1-5.58,0,9.15,9.15,0,0,1,0-8.16A3.16,3.16,0,0,1,1019.56,312.85Z"/><path id="DejaVuSansMono-112" class="cls-6" d="M1027.31,322.23v5.29h-1.44V313.11h1.44v1.33a2.78,2.78,0,0,1,1-1.18,2.41,2.41,0,0,1,1.38-.41,2.79,2.79,0,0,1,2.49,1.47,9.36,9.36,0,0,1,0,8.05,2.83,2.83,0,0,1-2.49,1.45,2.45,2.45,0,0,1-1.4-.41A2.75,2.75,0,0,1,1027.31,322.23Zm4.22-3.9a6.78,6.78,0,0,0-.52-3,1.69,1.69,0,0,0-1.57-1,1.71,1.71,0,0,0-1.59,1,6.59,6.59,0,0,0-.54,3,6.66,6.66,0,0,0,.54,3,1.71,1.71,0,0,0,1.59,1,1.69,1.69,0,0,0,1.57-1A6.8,6.8,0,0,0,1031.53,318.33Z"/></g><g id="text_86" data-name="text 86"><path id="DejaVuSans-124-29" data-name="DejaVuSans-124" d="M954.19,268v10.15h-.71V268Z"/></g><g id="text_87" data-name="text 87"><path id="DejaVuSans-49-16" data-name="DejaVuSans-49" d="M953.67,263.08h1.65V256.3l-1.8.43v-1.1l1.79-.43h1v7.88H958v1h-4.29Z"/><path id="DejaVuSans-52-5" data-name="DejaVuSans-52" d="M962.77,256.25,960.22,261h2.55Zm-.27-1.05h1.27V261h1.07v1h-1.07v2.1h-1V262H959.4v-1.16Z"/><path id="DejaVuSans-50-9" data-name="DejaVuSans-50" d="M967.37,263.08h3.52v1h-4.73v-1c.38-.47.9-1.11,1.56-1.9s1.08-1.31,1.25-1.54a5.57,5.57,0,0,0,.67-1.1,2.2,2.2,0,0,0,.2-.88,1.62,1.62,0,0,0-.42-1.16,1.42,1.42,0,0,0-1.09-.45,2.91,2.91,0,0,0-1,.2,5.39,5.39,0,0,0-1.12.6v-1.22a7.45,7.45,0,0,1,1.13-.44,3.65,3.65,0,0,1,1-.15,2.38,2.38,0,0,1,2.54,2.54,3.29,3.29,0,0,1-.17,1,5.67,5.67,0,0,1-.63,1.15c-.08.12-.35.45-.79,1Z"/></g></g><text class="cls-7" transform="translate(13.67 62.7)">(residue 56-208)</text><text class="cls-7" transform="translate(18.44 32.16)">HI<tspan class="cls-8" x="20" y="0">V</tspan><tspan x="32.24" y="0">-1 integrase</tspan></text></g></svg>