<svg id="图层_1" data-name="图层 1" xmlns="http://www.w3.org/2000/svg" xmlns:xlink="http://www.w3.org/1999/xlink" viewBox="0 0 1200 400"><defs><style>.cls-1,.cls-5{fill:none;}.cls-2{clip-path:url(#clip-path);}.cls-3,.cls-6{fill:gray;}.cls-3{stroke:gray;}.cls-4{fill:#20b2aa;stroke:#20b2aa;}.cls-5{stroke:orange;stroke-linecap:square;stroke-linejoin:round;stroke-width:2.4px;}.cls-7{font-size:20px;font-family:ArialMT, Arial;}</style><clipPath id="clip-path"><rect class="cls-1" x="193.17" y="78.87" width="984.28" height="782.34"/></clipPath></defs><g id="patch_2" data-name="patch 2"><g class="cls-2"><path class="cls-3" d="M192.19,137.54h40.36v-2.35H192.19Z"/></g></g><g id="patch_3" data-name="patch 3"><g class="cls-2"><path class="cls-4" d="M232.55,149.28h36.51V125.81H232.55Z"/></g></g><g id="patch_4" data-name="patch 4"><g class="cls-2"><path class="cls-3" d="M270.93,137.54H429.4v-2.35H270.93Z"/></g></g><g id="patch_5" data-name="patch 5"><g class="cls-2"><path class="cls-4" d="M429.4,149.28h36.52V125.81H429.4Z"/></g></g><g id="patch_6" data-name="patch 6"><g class="cls-2"><path class="cls-3" d="M467.79,137.54h60v-2.35h-60Z"/></g></g><g id="patch_7" data-name="patch 7"><g class="cls-2"><path class="cls-3" d="M664.64,137.54H705v-2.35H664.64Z"/></g></g><g id="patch_8" data-name="patch 8"><g class="cls-2"><path class="cls-3" d="M763.07,137.54h60v-2.35h-60Z"/></g></g><g id="patch_9" data-name="patch 9"><g class="cls-2"><path class="cls-4" d="M823.11,149.28h36.52V125.81H823.11Z"/></g></g><g id="patch_10" data-name="patch 10"><g class="cls-2"><path class="cls-3" d="M861.5,137.54h40.35v-2.35H861.5Z"/></g></g><g id="patch_11" data-name="patch 11"><g class="cls-2"><path class="cls-4" d="M901.85,149.28h16.83V125.81H901.85Z"/></g></g><g id="patch_12" data-name="patch 12"><g class="cls-2"><path class="cls-3" d="M920.55,137.54h40.36v-2.35H920.55Z"/></g></g><g id="patch_13" data-name="patch 13"><g class="cls-2"><path class="cls-4" d="M960.91,149.28h16.83V125.81H960.91Z"/></g></g><g id="patch_14" data-name="patch 14"><g class="cls-2"><path class="cls-3" d="M979.61,137.54H1020v-2.35H979.61Z"/></g></g><g id="patch_15" data-name="patch 15"><g class="cls-2"><path class="cls-4" d="M1020,149.28h36.51V125.81H1020Z"/></g></g><g id="patch_16" data-name="patch 16"><g class="cls-2"><path class="cls-3" d="M1058.35,137.54h40.36v-2.35h-40.36Z"/></g></g><g id="patch_17" data-name="patch 17"><g class="cls-2"><path class="cls-3" d="M349.67,215.77H429.4v-2.34H349.67Z"/></g></g><g id="patch_18" data-name="patch 18"><g class="cls-2"><path class="cls-4" d="M429.4,227.51h36.52V204H429.4Z"/></g></g><g id="patch_19" data-name="patch 19"><g class="cls-2"><path class="cls-3" d="M467.79,215.77H586.88v-2.34H467.79Z"/></g></g><g id="patch_20" data-name="patch 20"><g class="cls-2"><path class="cls-4" d="M586.88,227.51H623.4V204H586.88Z"/></g></g><g id="patch_21" data-name="patch 21"><g class="cls-2"><path class="cls-3" d="M625.27,215.77h40.36v-2.34H625.27Z"/></g></g><g id="patch_22" data-name="patch 22"><g class="cls-2"><path class="cls-3" d="M900.87,215.77h79.72v-2.34H900.87Z"/></g></g><g id="patch_23" data-name="patch 23"><g class="cls-2"><path class="cls-4" d="M980.59,227.51h36.52V204H980.59Z"/></g></g><g id="patch_24" data-name="patch 24"><g class="cls-2"><path class="cls-3" d="M1019,215.77h158.47v-2.34H1019Z"/></g></g><g id="patch_25" data-name="patch 25"><g class="cls-2"><path class="cls-4" d="M193.17,305.74h36.52V282.27H193.17Z"/></g></g><g id="patch_26" data-name="patch 26"><g class="cls-2"><path class="cls-3" d="M231.56,294h40.36v-2.35H231.56Z"/></g></g><g id="patch_27" data-name="patch 27"><g class="cls-2"><path class="cls-3" d="M428.42,294h60v-2.35h-60Z"/></g></g><g id="line2d_1" data-name="line2d 1"><g class="cls-2"><path class="cls-5" d="M530.29,137.54l1.33,2.44,1.33,2.2,1.34,1.73,1.33,1.1,1.33.35,1.33-.43,1.33-1.16L541,142l1.33-2.24,1.33-2.45,1.33-2.43,1.34-2.16,1.33-1.67,1.33-1,1.33-.27,1.33.5,1.34,1.24,1.33,1.84,1.33,2.27,1.33,2.46,1.34,2.41,1.33,2.12,1.33,1.62,1.33.95,1.33.2,1.34-.58,1.33-1.31,1.33-1.89,1.33-2.3,1.34-2.46,1.33-2.4,1.33-2.08,1.33-1.55,1.33-.89,1.34-.11,1.33.65,1.33,1.37,1.33,2,1.34,2.32,1.33,2.47,1.33,2.37,1.33,2,1.34,1.5,1.33.81,1.33,0,1.33-.73,1.33-1.43,1.34-2,1.33-2.35,1.33-2.48,1.33-2.34,1.34-2,1.33-1.43,1.33-.73,1.33,0,1.33.8,1.34,1.5,1.33,2,1.33,2.37,1.33,2.47,1.34,2.32,1.33,1.95,1.33,1.37,1.33.66,1.33-.12,1.34-.88,1.33-1.56,1.33-2.08,1.33-2.4,1.34-2.46,1.33-2.3,1.33-1.89,1.33-1.31,1.33-.58,1.34.2,1.33.95,1.33,1.62,1.33,2.12,1.34,2.41,1.33,2.47,1.33,2.26,1.33,1.84,1.34,1.24,1.33.51,1.33-.28,1.33-1,1.33-1.67,1.34-2.16,1.33-2.43,1.33-2.45,1.33-2.24,1.34-1.78,1.33-1.17,1.33-.43,1.33.35,1.33,1.1,1.34,1.73,1.33,2.2,1.33,2.44"/></g></g><g id="line2d_2" data-name="line2d 2"><g class="cls-2"><path class="cls-5" d="M707.46,137.54l.53,1,.54,1,.54.94.54.89.53.84.54.76.54.67.53.58.54.47.54.35.53.24.54.11.54,0,.53-.14.54-.27.54-.38.53-.5.54-.6.54-.69.54-.78.53-.85.54-.91.54-1,.53-1,.54-1,.54-1,.53-1,.54-.94.54-.88.53-.82.54-.74.54-.64.53-.55.54-.45.54-.32.54-.2.53-.08.54.05.54.17.53.29.54.41.54.53.53.62.54.72.54.8.53.87.54.92.54,1,.53,1,.54,1,.54,1,.54,1,.53.92.54.87.54.8.53.72.54.62.54.53.53.41.54.29.54.18.53,0,.54-.08.54-.2.53-.32.54-.44.54-.55.54-.65.53-.74.54-.82.54-.88.53-.94.54-1,.54-1,.53-1,.54-1,.54-1,.53-.9.54-.86.54-.78.53-.69.54-.6.54-.5.54-.38.53-.27.54-.14h.54l.53.11.54.23.54.35.53.47.54.58.54.67.53.76.54.84.54.89.54,1,.53,1,.54,1"/></g></g><g id="line2d_3" data-name="line2d 3"><g class="cls-2"><path class="cls-5" d="M1101.17,137.54l.73,1.48.74,1.43.74,1.32.73,1.17.74,1,.73.75.74.48.73.22.74-.08.74-.35.73-.61.74-.87.73-1.07.74-1.25.73-1.39.74-1.46.74-1.48.73-1.46.74-1.38.73-1.26.74-1.07.73-.86.74-.62.74-.35.73-.07.74.21.73.48.74.75.73,1,.74,1.17.74,1.32.73,1.43.74,1.48.73,1.48.74,1.43.73,1.32.74,1.17.74,1,.73.75.74.48.73.22.74-.08.73-.35.74-.61.74-.87.73-1.07.74-1.25.73-1.39.74-1.46.73-1.48.74-1.46.74-1.38.73-1.26.74-1.07.73-.86.74-.62.73-.35.74-.07.74.21.73.48.74.75.73,1,.74,1.17.73,1.32.74,1.43.74,1.48.73,1.48.74,1.43.73,1.32.74,1.17.73,1,.74.75.74.48.73.22.74-.08.73-.35.74-.61.73-.87.74-1.07.74-1.25.73-1.39.74-1.46.73-1.48.74-1.46.73-1.38.74-1.26.74-1.07.73-.86.74-.62.73-.35.74-.07.73.21.74.48.74.75.73,1,.74,1.17.73,1.32.74,1.43.73,1.48"/></g></g><g id="line2d_4" data-name="line2d 4"><g class="cls-2"><path class="cls-5" d="M195.63,215.77l1.54,2.91,1.53,2.49,1.53,1.72,1.53.7,1.53-.42,1.53-1.48,1.53-2.33,1.53-2.84,1.53-3,1.54-2.63,1.53-1.94,1.53-1,1.53.14,1.53,1.23,1.53,2.14,1.53,2.75,1.53,3,1.53,2.74,1.54,2.15,1.53,1.23,1.53.14,1.53-1,1.53-1.94,1.53-2.63,1.53-2.95,1.53-2.84,1.53-2.33,1.54-1.48L240,208l1.53.7,1.53,1.72,1.53,2.49,1.53,2.9,1.53,2.91,1.53,2.49,1.53,1.72,1.54.7,1.53-.42,1.53-1.48,1.53-2.33,1.53-2.84,1.53-3,1.53-2.63L263,209l1.53-1,1.54.14,1.53,1.23,1.53,2.14,1.53,2.75,1.53,3,1.53,2.74,1.53,2.15,1.53,1.23,1.53.14,1.53-1,1.54-1.94,1.53-2.63,1.53-2.95,1.53-2.84,1.53-2.33,1.53-1.48,1.53-.42,1.53.7,1.53,1.72,1.54,2.49,1.53,2.9,1.53,2.91,1.53,2.49,1.53,1.72,1.53.7,1.53-.42,1.53-1.48,1.53-2.33,1.54-2.84,1.53-3,1.53-2.63,1.53-1.94,1.53-1,1.53.14,1.53,1.23,1.53,2.14,1.53,2.75,1.54,3,1.53,2.74,1.53,2.15,1.53,1.23,1.53.14,1.53-1,1.53-1.94,1.53-2.63L335,215l1.54-2.84,1.53-2.33,1.53-1.48,1.53-.42,1.53.7,1.53,1.72,1.53,2.49,1.53,2.9"/></g></g><g id="line2d_5" data-name="line2d 5"><g class="cls-2"><path class="cls-5" d="M668.09,215.77l2.32,3.81,2.33,2.84,2.33,1.17,2.32-.81,2.33-2.57,2.33-3.69,2.32-3.88,2.33-3.09L689,208l2.32.44,2.33,2.28,2.32,3.54,2.33,3.93,2.33,3.3,2.32,1.86,2.33-.06,2.33-2L710,218l2.33-3.93,2.33-3.49,2.32-2.18,2.33-.31,2.33,1.63,2.32,3.17,2.33,3.9,2.33,3.64,2.32,2.48,2.33.68,2.32-1.28,2.33-2.93,2.33-3.83,2.32-3.77,2.33-2.76,2.33-1.05,2.32.93,2.33,2.66,2.33,3.74,2.32,3.86,2.33,3,2.33,1.4,2.32-.56,2.33-2.38,2.33-3.6,2.32-3.91,2.33-3.24,2.32-1.74,2.33.18,2.33,2.08,2.32,3.43,2.33,3.93,2.33,3.43,2.32,2.08,2.33.18,2.33-1.74,2.32-3.24,2.33-3.91,2.33-3.6,2.32-2.38,2.33-.56,2.33,1.4,2.32,3,2.33,3.86,2.32,3.73,2.33,2.67,2.33.93,2.32-1,2.33-2.76,2.33-3.77,2.32-3.83,2.33-2.93,2.33-1.28,2.32.68,2.33,2.48,2.33,3.64,2.32,3.9,2.33,3.17,2.32,1.63,2.33-.31,2.33-2.18,2.32-3.49,2.33-3.93,2.33-3.37,2.32-2,2.33-.06,2.33,1.86,2.32,3.3,2.33,3.93,2.33,3.54,2.32,2.28,2.33.44L879.8,222l2.32-3.09,2.33-3.88,2.32-3.69,2.33-2.58,2.33-.8,2.32,1.17,2.33,2.84,2.33,3.8"/></g></g><g id="line2d_6" data-name="line2d 6"><g class="cls-2"><path class="cls-5" d="M274.38,294l1.53,2.91,1.53,2.49,1.53,1.72,1.53.69,1.53-.42,1.53-1.48,1.53-2.33,1.54-2.84,1.53-2.95,1.53-2.63,1.53-1.94,1.53-1,1.53.15,1.53,1.23,1.53,2.14,1.53,2.75,1.54,3,1.53,2.75,1.53,2.14,1.53,1.23,1.53.14,1.53-1,1.53-1.94,1.53-2.63,1.53-2.95,1.54-2.84,1.53-2.32,1.53-1.48,1.53-.43,1.53.7,1.53,1.72,1.53,2.49L324.9,294l1.53,2.91,1.54,2.49,1.53,1.72,1.53.69,1.53-.42,1.53-1.48,1.53-2.33,1.53-2.84,1.53-2.95,1.53-2.63,1.53-1.94,1.54-1,1.53.15,1.53,1.23,1.53,2.14,1.53,2.75,1.53,3,1.53,2.75,1.53,2.14,1.53,1.23,1.54.14,1.53-1,1.53-1.94,1.53-2.63,1.53-2.95,1.53-2.84,1.53-2.32,1.53-1.48,1.53-.43,1.54.7,1.53,1.72,1.53,2.49,1.53,2.91,1.53,2.91,1.53,2.49,1.53,1.72,1.53.69,1.53-.42,1.54-1.48,1.53-2.33,1.53-2.84,1.53-2.95,1.53-2.63,1.53-1.94,1.53-1,1.53.15,1.53,1.23,1.54,2.14,1.53,2.75,1.53,3,1.53,2.75,1.53,2.14,1.53,1.23,1.53.14,1.53-1,1.53-1.94,1.54-2.63,1.53-2.95,1.53-2.84,1.53-2.32,1.53-1.48,1.53-.43,1.53.7,1.53,1.72,1.53,2.49L426,294"/></g></g><g id="text_1" data-name="text 1"><path id="DejaVuSansMono-Bold-82" d="M200.2,112.27a1.27,1.27,0,0,1,.62.34,4.22,4.22,0,0,1,.64,1l2.19,4.35H201l-1.46-3c0-.09-.1-.21-.17-.36-.43-.91-.93-1.37-1.51-1.37h-.76V118h-2.39V105.89h3.45a5.34,5.34,0,0,1,3.35.83,3.27,3.27,0,0,1,1,2.69,3,3,0,0,1-.61,2A2.58,2.58,0,0,1,200.2,112.27Zm-3.07-4.37v3.3h1.13a2,2,0,0,0,1.4-.39,2.08,2.08,0,0,0,0-2.53,2.08,2.08,0,0,0-1.4-.38Z"/><path id="DejaVuSansMono-Bold-80" d="M217.33,107.9v3.55h1a2.59,2.59,0,0,0,1.65-.4,2.25,2.25,0,0,0,0-2.75,2.59,2.59,0,0,0-1.65-.4Zm-2.39-2h3.28a5.76,5.76,0,0,1,3.6.89,4.36,4.36,0,0,1,0,5.79,5.76,5.76,0,0,1-3.6.89h-.89V118h-2.39Z"/></g><g id="text_2" data-name="text 2"><path id="DejaVuSans-124" d="M195,94v8.82h-.74V94Z"/></g><g id="text_3" data-name="text 3"><path id="DejaVuSans-49" d="M194.49,89.72h1.7V83.83l-1.85.38v-.95l1.84-.38h1v6.84h1.7v.88h-4.44Z"/></g><g id="text_4" data-name="text 4"><path id="DejaVuSansMono-Bold-70" d="M242,108H236.9v2.61h4.68v2.1H236.9V118h-2.39V105.89H242Z"/><path id="DejaVuSansMono-Bold-77" d="M253.7,105.89h2.85L258,111.2l1.43-5.31h2.87V118h-2.06V108.3L259,113.59h-1.9l-1.29-5.29V118H253.7Z"/></g><g id="text_5" data-name="text 5"><path id="DejaVuSans-124-2" data-name="DejaVuSans-124" d="M234.4,94v8.82h-.73V94Z"/></g><g id="text_6" data-name="text 6"><path id="DejaVuSans-51" d="M236.84,86.44a2,2,0,0,1,1.17.67,1.87,1.87,0,0,1,.42,1.25,2.15,2.15,0,0,1-.78,1.77,3.58,3.58,0,0,1-2.24.62,5.06,5.06,0,0,1-1-.1,8,8,0,0,1-1.06-.28v-1a3.44,3.44,0,0,0,1,.38,4.32,4.32,0,0,0,1.08.13,2.46,2.46,0,0,0,1.5-.39,1.31,1.31,0,0,0,.51-1.12,1.3,1.3,0,0,0-.48-1.07,2,2,0,0,0-1.33-.38h-.9v-.86h.95a1.87,1.87,0,0,0,1.17-.31,1,1,0,0,0,.41-.89,1.08,1.08,0,0,0-.42-.91,2,2,0,0,0-1.21-.32,4.45,4.45,0,0,0-.92.1,8.87,8.87,0,0,0-1.08.29v-.93a9.2,9.2,0,0,1,1.12-.25,5.63,5.63,0,0,1,1-.08,3,3,0,0,1,1.88.54,1.74,1.74,0,0,1,.69,1.45,1.64,1.64,0,0,1-.37,1.09A1.9,1.9,0,0,1,236.84,86.44Z"/></g><g id="text_7" data-name="text 7"><path id="DejaVuSansMono-Bold-67" d="M281.16,117.63a5.17,5.17,0,0,1-1.19.44,5.6,5.6,0,0,1-1.31.15,4.49,4.49,0,0,1-3.73-1.61,9.06,9.06,0,0,1,0-9.32,4.46,4.46,0,0,1,3.73-1.61,5.68,5.68,0,0,1,1.32.14,4.78,4.78,0,0,1,1.18.44v2.65a4.72,4.72,0,0,0-1.19-.82,2.84,2.84,0,0,0-1.2-.27,2.22,2.22,0,0,0-2,1,7.44,7.44,0,0,0,0,6.17,2.22,2.22,0,0,0,2,1,3,3,0,0,0,1.2-.26,4.78,4.78,0,0,0,1.19-.83Z"/><path id="DejaVuSansMono-Bold-65" d="M297.36,108.08l-1.12,5h2.26Zm-1.46-2.19h2.93L302.09,118H299.7l-.74-3h-3.2l-.73,3h-2.39Z"/><path id="DejaVuSansMono-Bold-89" d="M312.4,105.89H315l2.35,4.86,2.35-4.86h2.58l-3.73,7.33V118h-2.39v-4.76Z"/><path id="DejaVuSansMono-Bold-80-2" data-name="DejaVuSansMono-Bold-80" d="M336,107.9v3.55h1a2.57,2.57,0,0,0,1.65-.4,2.25,2.25,0,0,0,0-2.75,2.57,2.57,0,0,0-1.65-.4Zm-2.39-2h3.28a5.76,5.76,0,0,1,3.6.89,4.36,4.36,0,0,1,0,5.79,5.76,5.76,0,0,1-3.6.89H336V118h-2.39Z"/><path id="DejaVuSansMono-Bold-71" d="M359.33,115.8v-2.31h-1.64v-2h3.73V117a5,5,0,0,1-3.3,1.2,4.38,4.38,0,0,1-3.63-1.63,7.4,7.4,0,0,1-1.27-4.64,7.31,7.31,0,0,1,1.29-4.66,4.48,4.48,0,0,1,3.73-1.61,5.36,5.36,0,0,1,1.43.2,5.25,5.25,0,0,1,1.32.6v2.64a3.42,3.42,0,0,0-1.16-1,3.09,3.09,0,0,0-1.42-.33,2.27,2.27,0,0,0-2,1,5.78,5.78,0,0,0-.67,3.1,5.94,5.94,0,0,0,.65,3.07,2.08,2.08,0,0,0,1.89,1,2.46,2.46,0,0,0,.64-.07A1.1,1.1,0,0,0,359.33,115.8Z"/><path id="DejaVuSansMono-Bold-67-2" data-name="DejaVuSansMono-Bold-67" d="M381,117.63a5.08,5.08,0,0,1-1.2.44,5.51,5.51,0,0,1-1.3.15,4.52,4.52,0,0,1-3.74-1.61,9.06,9.06,0,0,1,0-9.32,4.5,4.5,0,0,1,3.74-1.61,5.66,5.66,0,0,1,1.31.14,4.7,4.7,0,0,1,1.19.44v2.65a4.59,4.59,0,0,0-1.2-.82,2.76,2.76,0,0,0-1.19-.27,2.2,2.2,0,0,0-2,1,7.44,7.44,0,0,0,0,6.17,2.2,2.2,0,0,0,2,1,2.9,2.9,0,0,0,1.19-.26A4.64,4.64,0,0,0,381,115Z"/><path id="DejaVuSansMono-Bold-78" d="M393.16,105.89h2.57l3.37,8.79v-8.79h2.1V118h-2.55l-3.38-8.78V118h-2.11Z"/><path id="DejaVuSansMono-Bold-75" d="M413.11,105.89h2.39v4.78l3.74-4.78h2.7l-3.81,4.77,3.95,7.32h-2.65l-2.87-5.44-1.06,1.35V118h-2.39Z"/></g><g id="text_8" data-name="text 8"><path id="DejaVuSans-124-3" data-name="DejaVuSans-124" d="M273.77,94v8.82H273V94Z"/></g><g id="text_9" data-name="text 9"><path id="DejaVuSans-53" d="M273.06,82.88h4.1v.88H274v1.89a2.78,2.78,0,0,1,.46-.11,2.28,2.28,0,0,1,.45,0,2.87,2.87,0,0,1,2.05.71,2.51,2.51,0,0,1,.76,1.91,2.46,2.46,0,0,1-.78,1.94,3.2,3.2,0,0,1-2.19.69,6.83,6.83,0,0,1-1-.08,9.17,9.17,0,0,1-1-.25v-1a4.36,4.36,0,0,0,1,.38,4.44,4.44,0,0,0,1.05.12,2.06,2.06,0,0,0,1.42-.47,1.82,1.82,0,0,0,0-2.55,2.06,2.06,0,0,0-1.42-.47,3.84,3.84,0,0,0-.83.09,4.28,4.28,0,0,0-.85.29Z"/></g><g id="text_10" data-name="text 10"><path id="DejaVuSansMono-Bold-82-2" data-name="DejaVuSansMono-Bold-82" d="M436.43,112.27a1.31,1.31,0,0,1,.62.34,4.56,4.56,0,0,1,.64,1l2.18,4.35h-2.62l-1.46-3c0-.09-.1-.21-.16-.36-.43-.91-.93-1.37-1.51-1.37h-.76V118H431V105.89h3.45a5.36,5.36,0,0,1,3.35.83,3.29,3.29,0,0,1,1,2.69,3,3,0,0,1-.6,2A2.58,2.58,0,0,1,436.43,112.27Zm-3.07-4.37v3.3h1.12a2.07,2.07,0,0,0,1.41-.39,1.64,1.64,0,0,0,.42-1.26,1.66,1.66,0,0,0-.42-1.27,2.11,2.11,0,0,0-1.41-.38Z"/><path id="DejaVuSansMono-Bold-89-2" data-name="DejaVuSansMono-Bold-89" d="M449.92,105.89h2.58l2.34,4.86,2.36-4.86h2.57L456,113.22V118h-2.38v-4.76Z"/></g><g id="text_11" data-name="text 11"><path id="DejaVuSans-124-4" data-name="DejaVuSans-124" d="M431.25,94v8.82h-.73V94Z"/></g><g id="text_12" data-name="text 12"><path id="DejaVuSans-49-2" data-name="DejaVuSans-49" d="M430.71,89.72h1.71V83.83l-1.86.38v-.95l1.85-.38h1v6.84h1.71v.88h-4.45Z"/><path id="DejaVuSans-51-2" data-name="DejaVuSans-51" d="M440.43,86.44a2,2,0,0,1,1.17.67,1.87,1.87,0,0,1,.42,1.25,2.13,2.13,0,0,1-.79,1.77,3.52,3.52,0,0,1-2.23.62,5.06,5.06,0,0,1-1-.1,8,8,0,0,1-1.06-.28v-1a3.44,3.44,0,0,0,.95.38,4.32,4.32,0,0,0,1.08.13,2.46,2.46,0,0,0,1.5-.39,1.31,1.31,0,0,0,.51-1.12,1.3,1.3,0,0,0-.48-1.07,2,2,0,0,0-1.33-.38h-.9v-.86h.94a1.89,1.89,0,0,0,1.18-.31,1.06,1.06,0,0,0,.41-.89,1.08,1.08,0,0,0-.42-.91,2,2,0,0,0-1.21-.32,4.45,4.45,0,0,0-.92.1,8,8,0,0,0-1.08.29v-.93a9.2,9.2,0,0,1,1.12-.25,5.63,5.63,0,0,1,1-.08,3,3,0,0,1,1.88.54,1.74,1.74,0,0,1,.69,1.45,1.64,1.64,0,0,1-.37,1.09A1.9,1.9,0,0,1,440.43,86.44Z"/></g><g id="text_13" data-name="text 13"><path id="DejaVuSansMono-Bold-70-2" data-name="DejaVuSansMono-Bold-70" d="M478.27,108h-5.14v2.61h4.68v2.1h-4.68V118h-2.39V105.89h7.53Z"/><path id="DejaVuSansMono-Bold-75-2" data-name="DejaVuSansMono-Bold-75" d="M490.18,105.89h2.39v4.78l3.73-4.78H499l-3.81,4.77,3.95,7.32h-2.66l-2.86-5.44-1.06,1.35V118h-2.39Z"/><path id="DejaVuSansMono-Bold-76" d="M511,118V105.89h2.39v10h5.11V118Z"/></g><g id="text_14" data-name="text 14"><path id="DejaVuSans-124-5" data-name="DejaVuSans-124" d="M470.62,94v8.82h-.73V94Z"/></g><g id="text_15" data-name="text 15"><path id="DejaVuSans-49-3" data-name="DejaVuSans-49" d="M470.08,89.72h1.71V83.83l-1.86.38v-.95l1.85-.38h1v6.84h1.71v.88h-4.45Z"/><path id="DejaVuSans-53-2" data-name="DejaVuSans-53" d="M476.65,82.88h4.1v.88H477.6v1.89a2.56,2.56,0,0,1,.46-.11,2.28,2.28,0,0,1,.45,0,2.89,2.89,0,0,1,2.05.71,2.5,2.5,0,0,1,.75,1.91,2.45,2.45,0,0,1-.77,1.94,3.2,3.2,0,0,1-2.19.69,6.83,6.83,0,0,1-1-.08,9.17,9.17,0,0,1-1-.25v-1a4.36,4.36,0,0,0,1,.38,4.44,4.44,0,0,0,1.05.12,2.06,2.06,0,0,0,1.42-.47,1.82,1.82,0,0,0,0-2.55,2.06,2.06,0,0,0-1.42-.47,3.84,3.84,0,0,0-.83.09,4.28,4.28,0,0,0-.85.29Z"/></g><g id="text_16" data-name="text 16"><path id="DejaVuSansMono-Bold-83" d="M532.45,112.68a6.12,6.12,0,0,1-2.45-1.45,3.07,3.07,0,0,1-.64-2,3.24,3.24,0,0,1,1.06-2.58,4.16,4.16,0,0,1,2.89-.94,7.38,7.38,0,0,1,1.67.19,8.24,8.24,0,0,1,1.65.56v2.33a6.39,6.39,0,0,0-1.57-.82,4.58,4.58,0,0,0-1.57-.29,2.22,2.22,0,0,0-1.33.35,1.18,1.18,0,0,0-.46,1,1.15,1.15,0,0,0,.34.84,4.64,4.64,0,0,0,1.4.72l1,.39a4.67,4.67,0,0,1,2.15,1.41,3.53,3.53,0,0,1,.69,2.23,3.36,3.36,0,0,1-1.09,2.74,5,5,0,0,1-3.26.9,7.39,7.39,0,0,1-1.8-.22,8,8,0,0,1-1.75-.63V114.9a8.33,8.33,0,0,0,1.85,1,5.12,5.12,0,0,0,1.77.33,2.09,2.09,0,0,0,1.37-.4,1.38,1.38,0,0,0,.48-1.12,1.46,1.46,0,0,0-.32-1,2.16,2.16,0,0,0-.94-.65Z"/><path id="DejaVuSansMono-Bold-72" d="M549.39,105.89h2.39v4.61h3v-4.61h2.39V118h-2.39v-5.37h-3V118h-2.39Z"/><path id="DejaVuSansMono-Bold-76-2" data-name="DejaVuSansMono-Bold-76" d="M570.07,118V105.89h2.39v10h5.11V118Z"/><path id="DejaVuSansMono-Bold-81" d="M593.53,118.17l-.2,0-.14,0a3.57,3.57,0,0,1-3.16-1.59,10.79,10.79,0,0,1,0-9.37,4,4,0,0,1,6.35,0,8.37,8.37,0,0,1,1.07,4.69,10.79,10.79,0,0,1-.51,3.57,3.8,3.8,0,0,1-1.48,2L597,119l-1.64,1.22Zm-.33-10.35a1.4,1.4,0,0,0-1.33,1,12,12,0,0,0,0,6.3,1.4,1.4,0,0,0,2.67,0,11.75,11.75,0,0,0,0-6.3A1.4,1.4,0,0,0,593.2,107.82Z"/><path id="DejaVuSansMono-Bold-77-2" data-name="DejaVuSansMono-Bold-77" d="M608.88,105.89h2.85l1.44,5.31,1.43-5.31h2.87V118h-2.06V108.3l-1.28,5.29h-1.9l-1.3-5.29V118h-2Z"/><path id="DejaVuSansMono-Bold-72-2" data-name="DejaVuSansMono-Bold-72" d="M629.25,105.89h2.39v4.61h3v-4.61H637V118h-2.39v-5.37h-3V118h-2.39Z"/><path id="DejaVuSansMono-Bold-83-2" data-name="DejaVuSansMono-Bold-83" d="M652.24,112.68a6.12,6.12,0,0,1-2.45-1.45,3.07,3.07,0,0,1-.64-2,3.27,3.27,0,0,1,1.06-2.58,4.16,4.16,0,0,1,2.89-.94,7.38,7.38,0,0,1,1.67.19,8.24,8.24,0,0,1,1.65.56v2.33a6.39,6.39,0,0,0-1.57-.82,4.58,4.58,0,0,0-1.57-.29A2.16,2.16,0,0,0,652,108a1.16,1.16,0,0,0-.47,1,1.15,1.15,0,0,0,.34.84,4.73,4.73,0,0,0,1.41.72l1,.39a4.67,4.67,0,0,1,2.15,1.41,3.53,3.53,0,0,1,.69,2.23,3.39,3.39,0,0,1-1.08,2.74,5,5,0,0,1-3.27.9A7.39,7.39,0,0,1,651,118a8.15,8.15,0,0,1-1.75-.63V114.9a8.33,8.33,0,0,0,1.85,1,5.12,5.12,0,0,0,1.77.33,2.07,2.07,0,0,0,1.37-.4,1.39,1.39,0,0,0,.49-1.12,1.46,1.46,0,0,0-.33-1,2.16,2.16,0,0,0-.94-.65Z"/></g><g id="text_17" data-name="text 17"><path id="DejaVuSans-124-6" data-name="DejaVuSans-124" d="M529.68,94v8.82H529V94Z"/></g><g id="text_18" data-name="text 18"><path id="DejaVuSans-49-4" data-name="DejaVuSans-49" d="M529.14,89.72h1.71V83.83l-1.86.38v-.95l1.85-.38h1v6.84h1.7v.88h-4.44Z"/><path id="DejaVuSans-56" d="M537.92,86.94a1.69,1.69,0,0,0-1.17.39,1.45,1.45,0,0,0-.42,1.1,1.46,1.46,0,0,0,.42,1.1,1.69,1.69,0,0,0,1.17.39,1.66,1.66,0,0,0,1.18-.4,1.61,1.61,0,0,0,0-2.19A1.66,1.66,0,0,0,537.92,86.94Zm-1-.45a1.91,1.91,0,0,1-1-.62,1.93,1.93,0,0,1,.29-2.59,3.34,3.34,0,0,1,3.61,0,1.79,1.79,0,0,1,.66,1.46,1.73,1.73,0,0,1-.37,1.13,1.91,1.91,0,0,1-1,.62,2.09,2.09,0,0,1,1.18.69,1.91,1.91,0,0,1,.42,1.25,2.18,2.18,0,0,1-.68,1.72,3.52,3.52,0,0,1-3.93,0,2.18,2.18,0,0,1-.68-1.72,1.91,1.91,0,0,1,.42-1.25A2.16,2.16,0,0,1,536.88,86.49Zm-.38-1.65a1.21,1.21,0,0,0,.37.94,1.54,1.54,0,0,0,1,.33,1.58,1.58,0,0,0,1.06-.33,1.21,1.21,0,0,0,.38-.94,1.18,1.18,0,0,0-.38-.93,1.54,1.54,0,0,0-1.06-.34,1.49,1.49,0,0,0-1,.34A1.17,1.17,0,0,0,536.5,84.84Z"/></g><g id="text_19" data-name="text 19"><path id="DejaVuSansMono-Bold-82-3" data-name="DejaVuSansMono-Bold-82" d="M672.65,112.27a1.23,1.23,0,0,1,.62.34,4.22,4.22,0,0,1,.64,1L676.1,118h-2.62l-1.46-3-.17-.36c-.42-.91-.93-1.37-1.51-1.37h-.76V118H667.2V105.89h3.44a5.34,5.34,0,0,1,3.35.83,3.27,3.27,0,0,1,1,2.69,3,3,0,0,1-.61,2A2.55,2.55,0,0,1,672.65,112.27Zm-3.07-4.37v3.3h1.13a2,2,0,0,0,1.4-.39,1.6,1.6,0,0,0,.43-1.26,1.66,1.66,0,0,0-.42-1.27,2.11,2.11,0,0,0-1.41-.38Z"/><path id="DejaVuSansMono-Bold-75-3" data-name="DejaVuSansMono-Bold-75" d="M687,105.89h2.39v4.78l3.74-4.78h2.7l-3.81,4.77,4,7.32h-2.65l-2.87-5.44-1.06,1.35V118H687Z"/></g><g id="text_20" data-name="text 20"><path id="DejaVuSans-124-7" data-name="DejaVuSans-124" d="M667.48,94v8.82h-.73V94Z"/></g><g id="text_21" data-name="text 21"><path id="DejaVuSans-50" d="M667.66,89.72h3.64v.88h-4.9v-.88L668,88.07c.69-.69,1.12-1.14,1.29-1.34a4.78,4.78,0,0,0,.7-1,1.7,1.7,0,0,0,.2-.77,1.27,1.27,0,0,0-.43-1,1.62,1.62,0,0,0-1.13-.39,3.57,3.57,0,0,0-1,.17,6.81,6.81,0,0,0-1.17.52v-1a9,9,0,0,1,1.18-.39,4.75,4.75,0,0,1,1-.12,2.9,2.9,0,0,1,1.92.6,2,2,0,0,1,.71,1.6,2.33,2.33,0,0,1-.18.9,4.15,4.15,0,0,1-.65,1c-.08.1-.36.39-.82.87Z"/><path id="DejaVuSans-53-3" data-name="DejaVuSans-53" d="M673.5,82.88h4.1v.88h-3.14v1.89a2.46,2.46,0,0,1,.45-.11,2.38,2.38,0,0,1,.46,0,2.86,2.86,0,0,1,2,.71,2.79,2.79,0,0,1,0,3.85,3.15,3.15,0,0,1-2.18.69,6.61,6.61,0,0,1-1-.08,8.68,8.68,0,0,1-1-.25v-1a4.36,4.36,0,0,0,1,.38,4.44,4.44,0,0,0,1.05.12,2.05,2.05,0,0,0,1.41-.47,1.82,1.82,0,0,0,0-2.55,2.05,2.05,0,0,0-1.41-.47,4,4,0,0,0-.84.09,4.28,4.28,0,0,0-.85.29Z"/></g><g id="text_22" data-name="text 22"><path id="DejaVuSansMono-Bold-72-3" data-name="DejaVuSansMono-Bold-72" d="M706.6,105.89H709v4.61h3v-4.61h2.39V118H712v-5.37h-3V118H706.6Z"/><path id="DejaVuSansMono-Bold-84" d="M731.64,118h-2.39V108h-3.07v-2.09h8.53V108h-3.07Z"/><path id="DejaVuSansMono-Bold-71-2" data-name="DejaVuSansMono-Bold-71" d="M752.48,115.8v-2.31h-1.64v-2h3.73V117a5,5,0,0,1-3.3,1.2,4.35,4.35,0,0,1-3.62-1.63,9.06,9.06,0,0,1,0-9.3,4.48,4.48,0,0,1,3.73-1.61,5.36,5.36,0,0,1,1.43.2,5.25,5.25,0,0,1,1.32.6v2.64a3.33,3.33,0,0,0-1.16-1,3.06,3.06,0,0,0-1.42-.33,2.27,2.27,0,0,0-2,1,5.78,5.78,0,0,0-.67,3.1,5.94,5.94,0,0,0,.65,3.07,2.08,2.08,0,0,0,1.89,1A2.46,2.46,0,0,0,752,116,1,1,0,0,0,752.48,115.8Z"/></g><g id="text_23" data-name="text 23"><path id="DejaVuSans-124-8" data-name="DejaVuSans-124" d="M706.85,94v8.82h-.73V94Z"/></g><g id="text_24" data-name="text 24"><path id="DejaVuSans-50-2" data-name="DejaVuSans-50" d="M707,89.72h3.64v.88h-4.9v-.88l1.62-1.65c.69-.69,1.12-1.14,1.29-1.34a4.41,4.41,0,0,0,.7-1,1.7,1.7,0,0,0,.2-.77,1.27,1.27,0,0,0-.43-1,1.61,1.61,0,0,0-1.12-.39,3.58,3.58,0,0,0-1,.17,7.17,7.17,0,0,0-1.17.52v-1a9,9,0,0,1,1.18-.39,4.77,4.77,0,0,1,1-.12,2.89,2.89,0,0,1,1.91.6,2,2,0,0,1,.71,1.6,2.33,2.33,0,0,1-.18.9,4.15,4.15,0,0,1-.65,1c-.08.1-.36.39-.82.87Z"/><path id="DejaVuSans-55" d="M712.6,82.88h5v.45l-2.8,7.27h-1.09l2.63-6.84h-3.7Z"/></g><g id="text_25" data-name="text 25"><path id="DejaVuSansMono-Bold-69" d="M773.43,118h-7.52V105.89h7.52V108h-5.14v2.61H773v2.1h-4.66v3.17h5.14Z"/><path id="DejaVuSansMono-Bold-75-4" data-name="DejaVuSansMono-Bold-75" d="M785.46,105.89h2.39v4.78l3.74-4.78h2.7l-3.81,4.77,3.95,7.32h-2.66l-2.86-5.44-1.06,1.35V118h-2.39Z"/><path id="DejaVuSansMono-Bold-80-3" data-name="DejaVuSansMono-Bold-80" d="M808.18,107.9v3.55h1a2.54,2.54,0,0,0,1.64-.4,2.21,2.21,0,0,0,0-2.75,2.54,2.54,0,0,0-1.64-.4Zm-2.39-2h3.28a5.76,5.76,0,0,1,3.6.89,4.39,4.39,0,0,1,0,5.79,5.76,5.76,0,0,1-3.6.89h-.89V118h-2.39Z"/></g><g id="text_26" data-name="text 26"><path id="DejaVuSans-124-9" data-name="DejaVuSans-124" d="M765.91,94v8.82h-.74V94Z"/></g><g id="text_27" data-name="text 27"><path id="DejaVuSans-51-3" data-name="DejaVuSans-51" d="M768.35,86.44a2,2,0,0,1,1.17.67,1.87,1.87,0,0,1,.42,1.25,2.13,2.13,0,0,1-.79,1.77,3.52,3.52,0,0,1-2.23.62,5.06,5.06,0,0,1-1-.1,8,8,0,0,1-1.06-.28v-1a3.44,3.44,0,0,0,.95.38,4.32,4.32,0,0,0,1.08.13,2.46,2.46,0,0,0,1.5-.39,1.31,1.31,0,0,0,.51-1.12,1.3,1.3,0,0,0-.48-1.07,2,2,0,0,0-1.33-.38h-.9v-.86h.94a1.89,1.89,0,0,0,1.18-.31,1.06,1.06,0,0,0,.41-.89,1.08,1.08,0,0,0-.42-.91,2,2,0,0,0-1.21-.32,4.45,4.45,0,0,0-.92.1,8,8,0,0,0-1.08.29v-.93a9.2,9.2,0,0,1,1.12-.25,5.63,5.63,0,0,1,1-.08,3,3,0,0,1,1.88.54,1.74,1.74,0,0,1,.69,1.45,1.64,1.64,0,0,1-.37,1.09A1.9,1.9,0,0,1,768.35,86.44Z"/><path id="DejaVuSans-48" d="M774.15,83.57a1.3,1.3,0,0,0-1.21.8,7.11,7.11,0,0,0,0,4.76,1.29,1.29,0,0,0,1.21.79,1.3,1.3,0,0,0,1.22-.79,7.28,7.28,0,0,0,0-4.76A1.31,1.31,0,0,0,774.15,83.57Zm0-.82a2.22,2.22,0,0,1,2,1,6.78,6.78,0,0,1,0,6,2.22,2.22,0,0,1-2,1,2.25,2.25,0,0,1-2-1,6.87,6.87,0,0,1,0-6A2.25,2.25,0,0,1,774.15,82.75Z"/></g><g id="text_28" data-name="text 28"><path id="DejaVuSansMono-Bold-89-3" data-name="DejaVuSansMono-Bold-89" d="M823.67,105.89h2.57l2.35,4.86,2.35-4.86h2.58l-3.73,7.33V118H827.4v-4.76Z"/><path id="DejaVuSansMono-Bold-81-2" data-name="DejaVuSansMono-Bold-81" d="M848.88,118.17l-.19,0-.15,0a3.55,3.55,0,0,1-3.15-1.59,10.7,10.7,0,0,1,0-9.37,4,4,0,0,1,6.34,0,8.36,8.36,0,0,1,1.08,4.69,10.79,10.79,0,0,1-.51,3.57,3.82,3.82,0,0,1-1.49,2l1.51,1.47-1.64,1.22Zm-.33-10.35a1.41,1.41,0,0,0-1.33,1,12,12,0,0,0,0,6.3,1.41,1.41,0,0,0,2.68,0,12,12,0,0,0,0-6.3A1.41,1.41,0,0,0,848.55,107.82Z"/></g><g id="text_29" data-name="text 29"><path id="DejaVuSans-124-10" data-name="DejaVuSans-124" d="M825,94v8.82h-.73V94Z"/></g><g id="text_30" data-name="text 30"><path id="DejaVuSans-51-4" data-name="DejaVuSans-51" d="M827.4,86.44a2,2,0,0,1,1.17.67,1.83,1.83,0,0,1,.43,1.25,2.15,2.15,0,0,1-.79,1.77,3.54,3.54,0,0,1-2.23.62,4.92,4.92,0,0,1-1-.1,7.58,7.58,0,0,1-1.06-.28v-1a3.32,3.32,0,0,0,1,.38,4.21,4.21,0,0,0,1.08.13,2.43,2.43,0,0,0,1.49-.39,1.45,1.45,0,0,0,0-2.19,2,2,0,0,0-1.33-.38h-.9v-.86h.94a1.91,1.91,0,0,0,1.18-.31,1.06,1.06,0,0,0,.41-.89,1.08,1.08,0,0,0-.42-.91,2,2,0,0,0-1.21-.32,4.38,4.38,0,0,0-.92.1,8,8,0,0,0-1.08.29v-.93a9.5,9.5,0,0,1,1.11-.25,5.78,5.78,0,0,1,1-.08,3,3,0,0,1,1.88.54,1.75,1.75,0,0,1,.7,1.45,1.69,1.69,0,0,1-.37,1.09A1.93,1.93,0,0,1,827.4,86.44Z"/><path id="DejaVuSans-51-5" data-name="DejaVuSans-51" d="M834.14,86.44a2,2,0,0,1,1.17.67,1.87,1.87,0,0,1,.42,1.25,2.13,2.13,0,0,1-.79,1.77,3.52,3.52,0,0,1-2.23.62,5.06,5.06,0,0,1-1-.1,8,8,0,0,1-1.06-.28v-1a3.44,3.44,0,0,0,1,.38,4.32,4.32,0,0,0,1.08.13,2.46,2.46,0,0,0,1.5-.39,1.31,1.31,0,0,0,.51-1.12,1.3,1.3,0,0,0-.48-1.07,2,2,0,0,0-1.33-.38H832v-.86h.94a1.89,1.89,0,0,0,1.18-.31,1.06,1.06,0,0,0,.41-.89,1.08,1.08,0,0,0-.42-.91,2,2,0,0,0-1.21-.32,4.45,4.45,0,0,0-.92.1,8,8,0,0,0-1.08.29v-.93a9.2,9.2,0,0,1,1.12-.25,5.63,5.63,0,0,1,1-.08,3,3,0,0,1,1.88.54,1.74,1.74,0,0,1,.69,1.45,1.64,1.64,0,0,1-.37,1.09A1.9,1.9,0,0,1,834.14,86.44Z"/></g><g id="text_31" data-name="text 31"><path id="DejaVuSansMono-Bold-67-3" data-name="DejaVuSansMono-Bold-67" d="M871.73,117.63a5.08,5.08,0,0,1-1.2.44,5.53,5.53,0,0,1-1.31.15,4.5,4.5,0,0,1-3.73-1.61,9.06,9.06,0,0,1,0-9.32,4.48,4.48,0,0,1,3.73-1.61,5.68,5.68,0,0,1,1.32.14,4.7,4.7,0,0,1,1.19.44v2.65a4.59,4.59,0,0,0-1.2-.82,2.76,2.76,0,0,0-1.19-.27,2.2,2.2,0,0,0-2,1,7.44,7.44,0,0,0,0,6.17,2.2,2.2,0,0,0,2,1,2.9,2.9,0,0,0,1.19-.26,4.64,4.64,0,0,0,1.2-.83Z"/><path id="DejaVuSansMono-Bold-68" d="M886.44,108.05v7.78h.64a2.25,2.25,0,0,0,2-.89,5.63,5.63,0,0,0,.6-3,5.56,5.56,0,0,0-.6-3,2.25,2.25,0,0,0-2-.88Zm-2.39-2.16h2.56a5.58,5.58,0,0,1,4.26,1.42c.87.94,1.31,2.48,1.31,4.61s-.44,3.69-1.31,4.64-2.29,1.42-4.26,1.42h-2.56Z"/></g><g id="text_32" data-name="text 32"><path id="DejaVuSans-124-11" data-name="DejaVuSans-124" d="M864.33,94v8.82h-.73V94Z"/></g><g id="text_33" data-name="text 33"><path id="DejaVuSans-51-6" data-name="DejaVuSans-51" d="M866.78,86.44a2,2,0,0,1,1.17.67,1.87,1.87,0,0,1,.42,1.25,2.15,2.15,0,0,1-.79,1.77,3.54,3.54,0,0,1-2.23.62,5,5,0,0,1-1-.1,7.58,7.58,0,0,1-1.06-.28v-1a3.32,3.32,0,0,0,1,.38,4.21,4.21,0,0,0,1.08.13,2.43,2.43,0,0,0,1.49-.39,1.45,1.45,0,0,0,0-2.19,2,2,0,0,0-1.33-.38h-.9v-.86h.94a1.91,1.91,0,0,0,1.18-.31,1.06,1.06,0,0,0,.41-.89,1.08,1.08,0,0,0-.42-.91,2,2,0,0,0-1.21-.32,4.38,4.38,0,0,0-.92.1,8,8,0,0,0-1.08.29v-.93a9.5,9.5,0,0,1,1.11-.25,5.78,5.78,0,0,1,1-.08,3,3,0,0,1,1.88.54,1.72,1.72,0,0,1,.7,1.45,1.69,1.69,0,0,1-.37,1.09A1.93,1.93,0,0,1,866.78,86.44Z"/><path id="DejaVuSans-53-4" data-name="DejaVuSans-53" d="M870.36,82.88h4.1v.88h-3.15v1.89a2.56,2.56,0,0,1,.46-.11,2.28,2.28,0,0,1,.45,0,2.89,2.89,0,0,1,2,.71,2.5,2.5,0,0,1,.75,1.91,2.45,2.45,0,0,1-.77,1.94,3.2,3.2,0,0,1-2.19.69,6.83,6.83,0,0,1-1-.08,9.17,9.17,0,0,1-1-.25v-1a4.36,4.36,0,0,0,1,.38,4.44,4.44,0,0,0,1,.12,2.06,2.06,0,0,0,1.42-.47,1.82,1.82,0,0,0,0-2.55,2.06,2.06,0,0,0-1.42-.47,3.84,3.84,0,0,0-.83.09,4.28,4.28,0,0,0-.85.29Z"/></g><g id="text_34" data-name="text 34"><path id="DejaVuSansMono-Bold-70-3" data-name="DejaVuSansMono-Bold-70" d="M911.35,108h-5.14v2.61h4.68v2.1h-4.68V118h-2.39V105.89h7.53Z"/></g><g id="text_35" data-name="text 35"><path id="DejaVuSans-124-12" data-name="DejaVuSans-124" d="M903.7,94v8.82H903V94Z"/></g><g id="text_36" data-name="text 36"><path id="DejaVuSans-51-7" data-name="DejaVuSans-51" d="M906.15,86.44a2,2,0,0,1,1.17.67,1.87,1.87,0,0,1,.42,1.25,2.13,2.13,0,0,1-.79,1.77,3.54,3.54,0,0,1-2.23.62,5,5,0,0,1-1-.1,7.58,7.58,0,0,1-1.06-.28v-1a3.32,3.32,0,0,0,1,.38,4.21,4.21,0,0,0,1.08.13,2.43,2.43,0,0,0,1.49-.39,1.45,1.45,0,0,0,0-2.19,2,2,0,0,0-1.33-.38H904v-.86h.94a1.89,1.89,0,0,0,1.18-.31,1.06,1.06,0,0,0,.41-.89,1.08,1.08,0,0,0-.42-.91,2,2,0,0,0-1.21-.32,4.45,4.45,0,0,0-.92.1,8,8,0,0,0-1.08.29v-.93a9.2,9.2,0,0,1,1.12-.25,5.59,5.59,0,0,1,1-.08,3,3,0,0,1,1.88.54,1.72,1.72,0,0,1,.7,1.45,1.64,1.64,0,0,1-.37,1.09A1.9,1.9,0,0,1,906.15,86.44Z"/><path id="DejaVuSans-55-2" data-name="DejaVuSans-55" d="M909.45,82.88h5v.45l-2.81,7.27h-1.09l2.64-6.84h-3.71Z"/></g><g id="text_37" data-name="text 37"><path id="DejaVuSansMono-Bold-75-5" data-name="DejaVuSansMono-Bold-75" d="M923,105.89h2.39v4.78l3.74-4.78h2.7L928,110.66l4,7.32h-2.66l-2.86-5.44-1.06,1.35V118H923Z"/><path id="DejaVuSansMono-Bold-68-2" data-name="DejaVuSansMono-Bold-68" d="M945.49,108.05v7.78h.65a2.25,2.25,0,0,0,2-.89,5.63,5.63,0,0,0,.6-3,5.56,5.56,0,0,0-.6-3,2.25,2.25,0,0,0-2-.88Zm-2.39-2.16h2.56a5.59,5.59,0,0,1,4.27,1.42c.87.94,1.3,2.48,1.3,4.61s-.43,3.69-1.3,4.64-2.29,1.42-4.27,1.42H943.1Z"/></g><g id="text_38" data-name="text 38"><path id="DejaVuSans-124-13" data-name="DejaVuSans-124" d="M923.39,94v8.82h-.73V94Z"/></g><g id="text_39" data-name="text 39"><path id="DejaVuSans-51-8" data-name="DejaVuSans-51" d="M925.83,86.44a2,2,0,0,1,1.17.67,1.87,1.87,0,0,1,.42,1.25,2.15,2.15,0,0,1-.78,1.77,3.56,3.56,0,0,1-2.23.62,4.92,4.92,0,0,1-1-.1,7.7,7.7,0,0,1-1.07-.28v-1a3.44,3.44,0,0,0,.95.38,4.34,4.34,0,0,0,1.09.13,2.43,2.43,0,0,0,1.49-.39,1.31,1.31,0,0,0,.51-1.12,1.29,1.29,0,0,0-.47-1.07,2,2,0,0,0-1.33-.38h-.9v-.86h.94a1.93,1.93,0,0,0,1.18-.31,1.05,1.05,0,0,0,.4-.89,1.08,1.08,0,0,0-.42-.91,2,2,0,0,0-1.2-.32,4.31,4.31,0,0,0-.92.1,8,8,0,0,0-1.08.29v-.93a8.67,8.67,0,0,1,1.11-.25,5.7,5.7,0,0,1,1-.08,3,3,0,0,1,1.88.54,1.74,1.74,0,0,1,.69,1.45,1.68,1.68,0,0,1-.36,1.09A2,2,0,0,1,925.83,86.44Z"/><path id="DejaVuSans-56-2" data-name="DejaVuSans-56" d="M931.64,86.94a1.7,1.7,0,0,0-1.18.39,1.45,1.45,0,0,0-.42,1.1,1.46,1.46,0,0,0,.42,1.1,1.7,1.7,0,0,0,1.18.39,1.65,1.65,0,0,0,1.17-.4,1.61,1.61,0,0,0,0-2.19A1.65,1.65,0,0,0,931.64,86.94Zm-1-.45a2,2,0,0,1-1.05-.62,1.93,1.93,0,0,1,.29-2.59,2.77,2.77,0,0,1,1.81-.53,2.74,2.74,0,0,1,1.8.53,1.79,1.79,0,0,1,.66,1.46,1.73,1.73,0,0,1-.37,1.13,1.92,1.92,0,0,1-1,.62,2.09,2.09,0,0,1,1.17.69,1.91,1.91,0,0,1,.42,1.25,2.18,2.18,0,0,1-.68,1.72,3.52,3.52,0,0,1-3.93,0,2.18,2.18,0,0,1-.68-1.72,1.91,1.91,0,0,1,.42-1.25A2.16,2.16,0,0,1,930.59,86.49Zm-.38-1.65a1.21,1.21,0,0,0,.37.94,1.55,1.55,0,0,0,1.06.33,1.57,1.57,0,0,0,1.05-.33,1.21,1.21,0,0,0,.38-.94,1.18,1.18,0,0,0-.38-.93,1.53,1.53,0,0,0-1.05-.34,1.5,1.5,0,0,0-1.06.34A1.17,1.17,0,0,0,930.21,84.84Z"/></g><g id="text_40" data-name="text 40"><path id="DejaVuSansMono-Bold-67-4" data-name="DejaVuSansMono-Bold-67" d="M970.15,117.63a5,5,0,0,1-1.19.44,5.53,5.53,0,0,1-1.31.15,4.5,4.5,0,0,1-3.73-1.61,9.06,9.06,0,0,1,0-9.32,4.48,4.48,0,0,1,3.73-1.61,5.68,5.68,0,0,1,1.32.14,4.63,4.63,0,0,1,1.18.44v2.65a4.55,4.55,0,0,0-1.19-.82,2.84,2.84,0,0,0-1.2-.27,2.22,2.22,0,0,0-2,1,7.54,7.54,0,0,0,0,6.17,2.22,2.22,0,0,0,2,1,3,3,0,0,0,1.2-.26,4.61,4.61,0,0,0,1.19-.83Z"/></g><g id="text_41" data-name="text 41"><path id="DejaVuSans-124-14" data-name="DejaVuSans-124" d="M962.76,94v8.82H962V94Z"/></g><g id="text_42" data-name="text 42"><path id="DejaVuSans-52" d="M964.91,83.79l-2.64,4.12h2.64Zm-.28-.91H966v5h1.1v.87H966V90.6h-1V88.78h-3.48v-1Z"/><path id="DejaVuSans-48-2" data-name="DejaVuSans-48" d="M971,83.57a1.32,1.32,0,0,0-1.22.8,7.28,7.28,0,0,0,0,4.76,1.31,1.31,0,0,0,1.22.79,1.29,1.29,0,0,0,1.21-.79,7.11,7.11,0,0,0,0-4.76A1.3,1.3,0,0,0,971,83.57Zm0-.82a2.25,2.25,0,0,1,2,1,6.87,6.87,0,0,1,0,6,2.44,2.44,0,0,1-4,0,6.87,6.87,0,0,1,0-6A2.25,2.25,0,0,1,971,82.75Z"/></g><g id="text_43" data-name="text 43"><path id="DejaVuSansMono-Bold-69-2" data-name="DejaVuSansMono-Bold-69" d="M990,118h-7.53V105.89H990V108h-5.14v2.61h4.65v2.1h-4.65v3.17H990Z"/><path id="DejaVuSansMono-Bold-82-4" data-name="DejaVuSansMono-Bold-82" d="M1007.59,112.27a1.24,1.24,0,0,1,.61.34,4.18,4.18,0,0,1,.65,1L1011,118h-2.62l-1.46-3c0-.09-.1-.21-.16-.36-.43-.91-.93-1.37-1.51-1.37h-.76V118h-2.39V105.89h3.45a5.36,5.36,0,0,1,3.35.83,3.29,3.29,0,0,1,1,2.69,3,3,0,0,1-.61,2A2.53,2.53,0,0,1,1007.59,112.27Zm-3.07-4.37v3.3h1.12a2.07,2.07,0,0,0,1.41-.39,1.64,1.64,0,0,0,.42-1.26,1.66,1.66,0,0,0-.42-1.27,2.11,2.11,0,0,0-1.41-.38Z"/></g><g id="text_44" data-name="text 44"><path id="DejaVuSans-124-15" data-name="DejaVuSans-124" d="M982.45,94v8.82h-.74V94Z"/></g><g id="text_45" data-name="text 45"><path id="DejaVuSans-52-2" data-name="DejaVuSans-52" d="M984.59,83.79,982,87.91h2.63Zm-.27-.91h1.31v5h1.1v.87h-1.1V90.6h-1V88.78h-3.48v-1Z"/><path id="DejaVuSans-49-5" data-name="DejaVuSans-49" d="M988.64,89.72h1.71V83.83l-1.86.38v-.95l1.85-.38h1v6.84h1.7v.88h-4.44Z"/></g><g id="text_46" data-name="text 46"><path id="DejaVuSansMono-Bold-82-5" data-name="DejaVuSansMono-Bold-82" d="M1027,112.27a1.27,1.27,0,0,1,.62.34,4.22,4.22,0,0,1,.64,1l2.19,4.35h-2.62l-1.46-3-.17-.36c-.43-.91-.93-1.37-1.51-1.37h-.76V118h-2.38V105.89H1025a5.34,5.34,0,0,1,3.35.83,3.27,3.27,0,0,1,1,2.69,3,3,0,0,1-.61,2A2.55,2.55,0,0,1,1027,112.27Zm-3.07-4.37v3.3h1.13a2,2,0,0,0,1.4-.39,1.6,1.6,0,0,0,.43-1.26,1.66,1.66,0,0,0-.42-1.27,2.11,2.11,0,0,0-1.41-.38Z"/><path id="DejaVuSansMono-Bold-70-4" data-name="DejaVuSansMono-Bold-70" d="M1049.43,108h-5.14v2.61H1049v2.1h-4.67V118h-2.39V105.89h7.53Z"/></g><g id="text_47" data-name="text 47"><path id="DejaVuSans-124-16" data-name="DejaVuSans-124" d="M1021.82,94v8.82h-.73V94Z"/></g><g id="text_48" data-name="text 48"><path id="DejaVuSans-52-3" data-name="DejaVuSans-52" d="M1024,83.79l-2.64,4.12H1024Zm-.28-.91H1025v5h1.11v.87H1025V90.6h-1V88.78h-3.49v-1Z"/><path id="DejaVuSans-51-9" data-name="DejaVuSans-51" d="M1031,86.44a2,2,0,0,1,1.17.67,1.87,1.87,0,0,1,.42,1.25,2.15,2.15,0,0,1-.78,1.77,3.54,3.54,0,0,1-2.23.62,4.92,4.92,0,0,1-1-.1,7.23,7.23,0,0,1-1.06-.28v-1a3.2,3.2,0,0,0,1,.38,4.21,4.21,0,0,0,1.08.13,2.43,2.43,0,0,0,1.49-.39,1.32,1.32,0,0,0,.52-1.12,1.3,1.3,0,0,0-.48-1.07,2,2,0,0,0-1.33-.38h-.9v-.86h.94a1.93,1.93,0,0,0,1.18-.31,1.06,1.06,0,0,0,.41-.89,1.08,1.08,0,0,0-.43-.91,2,2,0,0,0-1.2-.32,4.31,4.31,0,0,0-.92.1,8,8,0,0,0-1.08.29v-.93a9.07,9.07,0,0,1,1.11-.25,5.7,5.7,0,0,1,1-.08,3,3,0,0,1,1.88.54,1.74,1.74,0,0,1,.69,1.45,1.68,1.68,0,0,1-.36,1.09A2,2,0,0,1,1031,86.44Z"/></g><g id="text_49" data-name="text 49"><path id="DejaVuSansMono-Bold-83-3" data-name="DejaVuSansMono-Bold-83" d="M1064,112.68a6,6,0,0,1-2.45-1.45,3.07,3.07,0,0,1-.64-2,3.27,3.27,0,0,1,1.05-2.58,4.2,4.2,0,0,1,2.9-.94,7.23,7.23,0,0,1,1.66.19,7.84,7.84,0,0,1,1.65.56v2.33a6.17,6.17,0,0,0-1.56-.82,4.62,4.62,0,0,0-1.57-.29,2.22,2.22,0,0,0-1.33.35,1.18,1.18,0,0,0-.46,1,1.11,1.11,0,0,0,.34.84,4.64,4.64,0,0,0,1.4.72l1,.39a4.72,4.72,0,0,1,2.15,1.41,3.53,3.53,0,0,1,.69,2.23,3.39,3.39,0,0,1-1.09,2.74,5,5,0,0,1-3.26.9,7.39,7.39,0,0,1-1.8-.22,7.78,7.78,0,0,1-1.75-.63V114.9a8.33,8.33,0,0,0,1.85,1,5.12,5.12,0,0,0,1.77.33,2.09,2.09,0,0,0,1.37-.4,1.38,1.38,0,0,0,.48-1.12,1.46,1.46,0,0,0-.32-1,2.22,2.22,0,0,0-.94-.65Z"/><path id="DejaVuSansMono-Bold-82-6" data-name="DejaVuSansMono-Bold-82" d="M1086.33,112.27a1.31,1.31,0,0,1,.62.34,4.56,4.56,0,0,1,.64,1l2.19,4.35h-2.63l-1.45-3c0-.09-.1-.21-.17-.36-.43-.91-.93-1.37-1.51-1.37h-.76V118h-2.39V105.89h3.45a5.36,5.36,0,0,1,3.35.83,3.29,3.29,0,0,1,1,2.69,3,3,0,0,1-.6,2A2.58,2.58,0,0,1,1086.33,112.27Zm-3.07-4.37v3.3h1.12a2,2,0,0,0,1.41-.39,1.64,1.64,0,0,0,.42-1.26,1.66,1.66,0,0,0-.42-1.27,2.11,2.11,0,0,0-1.41-.38Z"/></g><g id="text_50" data-name="text 50"><path id="DejaVuSans-124-17" data-name="DejaVuSans-124" d="M1061.19,94v8.82h-.73V94Z"/></g><g id="text_51" data-name="text 51"><path id="DejaVuSans-52-4" data-name="DejaVuSans-52" d="M1063.34,83.79l-2.64,4.12h2.64Zm-.28-.91h1.32v5h1.1v.87h-1.1V90.6h-1V88.78h-3.49v-1Z"/><path id="DejaVuSans-53-5" data-name="DejaVuSans-53" d="M1067.21,82.88h4.1v.88h-3.14v1.89a2.46,2.46,0,0,1,.45-.11,2.38,2.38,0,0,1,.46,0,2.86,2.86,0,0,1,2,.71,2.79,2.79,0,0,1,0,3.85,3.15,3.15,0,0,1-2.18.69,6.61,6.61,0,0,1-1-.08,8.68,8.68,0,0,1-1-.25v-1a4.36,4.36,0,0,0,1,.38,4.44,4.44,0,0,0,1.05.12,2.05,2.05,0,0,0,1.41-.47,1.82,1.82,0,0,0,0-2.55,2.05,2.05,0,0,0-1.41-.47,4,4,0,0,0-.84.09,4.28,4.28,0,0,0-.85.29Z"/></g><g id="text_52" data-name="text 52"><path id="DejaVuSansMono-Bold-83-4" data-name="DejaVuSansMono-Bold-83" d="M1103.33,112.68a6.12,6.12,0,0,1-2.45-1.45,3.07,3.07,0,0,1-.64-2,3.24,3.24,0,0,1,1.06-2.58,4.16,4.16,0,0,1,2.89-.94,7.38,7.38,0,0,1,1.67.19,8.24,8.24,0,0,1,1.65.56v2.33a6.39,6.39,0,0,0-1.57-.82,4.62,4.62,0,0,0-1.57-.29,2.22,2.22,0,0,0-1.33.35,1.18,1.18,0,0,0-.46,1,1.15,1.15,0,0,0,.34.84,4.64,4.64,0,0,0,1.4.72l1,.39a4.72,4.72,0,0,1,2.15,1.41,3.53,3.53,0,0,1,.69,2.23,3.36,3.36,0,0,1-1.09,2.74,5,5,0,0,1-3.26.9,7.39,7.39,0,0,1-1.8-.22,8,8,0,0,1-1.75-.63V114.9a8.33,8.33,0,0,0,1.85,1,5.12,5.12,0,0,0,1.77.33,2.09,2.09,0,0,0,1.37-.4,1.38,1.38,0,0,0,.48-1.12,1.46,1.46,0,0,0-.32-1,2.22,2.22,0,0,0-.94-.65Z"/><path id="DejaVuSansMono-Bold-68-3" data-name="DejaVuSansMono-Bold-68" d="M1122.66,108.05v7.78h.65a2.25,2.25,0,0,0,2-.89,5.63,5.63,0,0,0,.6-3,5.56,5.56,0,0,0-.6-3,2.25,2.25,0,0,0-2-.88Zm-2.39-2.16h2.56a5.59,5.59,0,0,1,4.27,1.42c.87.94,1.3,2.48,1.3,4.61s-.43,3.69-1.3,4.64-2.29,1.42-4.27,1.42h-2.56Z"/><path id="DejaVuSansMono-Bold-81-3" data-name="DejaVuSansMono-Bold-81" d="M1144.44,118.17l-.19,0-.15,0a3.55,3.55,0,0,1-3.15-1.59,8.35,8.35,0,0,1-1.07-4.68,8.37,8.37,0,0,1,1.07-4.69,4,4,0,0,1,6.35,0,8.45,8.45,0,0,1,1.07,4.69,10.79,10.79,0,0,1-.51,3.57,3.85,3.85,0,0,1-1.48,2l1.5,1.47-1.63,1.22Zm-.32-10.35a1.41,1.41,0,0,0-1.34,1,12,12,0,0,0,0,6.3,1.41,1.41,0,0,0,2.68,0,12,12,0,0,0,0-6.3A1.41,1.41,0,0,0,1144.12,107.82Z"/><path id="DejaVuSansMono-Bold-76-3" data-name="DejaVuSansMono-Bold-76" d="M1160.92,118V105.89h2.38v10h5.11V118Z"/></g><g id="text_53" data-name="text 53"><path id="DejaVuSans-124-18" data-name="DejaVuSans-124" d="M1100.56,94v8.82h-.73V94Z"/></g><g id="text_54" data-name="text 54"><path id="DejaVuSans-52-5" data-name="DejaVuSans-52" d="M1102.71,83.79l-2.64,4.12h2.64Zm-.28-.91h1.32v5h1.1v.87h-1.1V90.6h-1V88.78h-3.49v-1Z"/><path id="DejaVuSans-55-3" data-name="DejaVuSans-55" d="M1106.31,82.88h5v.45l-2.8,7.27h-1.09l2.63-6.84h-3.7Z"/></g><g id="text_55" data-name="text 55"><path id="DejaVuSansMono-Bold-75-6" data-name="DejaVuSansMono-Bold-75" d="M194.61,184.13H197v4.77l3.74-4.77h2.71l-3.82,4.76,4,7.33h-2.65l-2.87-5.44L197,192.12v4.1h-2.39Z"/><path id="DejaVuSansMono-Bold-82-7" data-name="DejaVuSansMono-Bold-82" d="M220.17,190.51a1.17,1.17,0,0,1,.61.34,4.08,4.08,0,0,1,.65,1l2.18,4.35H221l-1.46-3.06-.17-.35c-.42-.92-.92-1.37-1.5-1.37h-.76v4.78h-2.39V184.13h3.45a5.31,5.31,0,0,1,3.34.82,3.27,3.27,0,0,1,1,2.69,3,3,0,0,1-.61,2A2.57,2.57,0,0,1,220.17,190.51Zm-3.07-4.37v3.29h1.12a2.12,2.12,0,0,0,1.41-.38,1.66,1.66,0,0,0,.42-1.27,1.62,1.62,0,0,0-.42-1.26,2.05,2.05,0,0,0-1.41-.38Z"/><path id="DejaVuSansMono-Bold-72-4" data-name="DejaVuSansMono-Bold-72" d="M234.71,184.13h2.38v4.6h3v-4.6h2.39v12.09h-2.39v-5.38h-3v5.38h-2.38Z"/><path id="DejaVuSansMono-Bold-81-4" data-name="DejaVuSansMono-Bold-81" d="M258.87,196.4l-.19,0h-.15a3.58,3.58,0,0,1-3.15-1.58,10.79,10.79,0,0,1,0-9.37,4,4,0,0,1,6.35,0,8.44,8.44,0,0,1,1.07,4.68,10.79,10.79,0,0,1-.51,3.57,3.8,3.8,0,0,1-1.48,2.05l1.5,1.48-1.63,1.21Zm-.32-10.34a1.4,1.4,0,0,0-1.34,1,12,12,0,0,0,0,6.3,1.41,1.41,0,0,0,2.68,0,12,12,0,0,0,0-6.3A1.4,1.4,0,0,0,258.55,186.06Z"/><path id="DejaVuSansMono-Bold-82-8" data-name="DejaVuSansMono-Bold-82" d="M280.06,190.51a1.19,1.19,0,0,1,.62.34,3.84,3.84,0,0,1,.64,1l2.19,4.35h-2.62l-1.46-3.06-.17-.35c-.43-.92-.93-1.37-1.51-1.37H277v4.78H274.6V184.13h3.45a5.35,5.35,0,0,1,3.35.82,3.27,3.27,0,0,1,1,2.69,3.07,3.07,0,0,1-.61,2A2.6,2.6,0,0,1,280.06,190.51ZM277,186.14v3.29h1.13a2.09,2.09,0,0,0,1.4-.38,1.62,1.62,0,0,0,.43-1.27,1.59,1.59,0,0,0-.43-1.26,2,2,0,0,0-1.4-.38Z"/><path id="DejaVuSansMono-Bold-82-9" data-name="DejaVuSansMono-Bold-82" d="M300,190.51a1.23,1.23,0,0,1,.62.34,4.12,4.12,0,0,1,.64,1l2.18,4.35h-2.62l-1.46-3.06c0-.08-.1-.2-.16-.35-.43-.92-.93-1.37-1.51-1.37H297v4.78h-2.39V184.13H298a5.37,5.37,0,0,1,3.35.82,3.29,3.29,0,0,1,1,2.69,3,3,0,0,1-.61,2A2.57,2.57,0,0,1,300,190.51ZM297,186.14v3.29h1.12a2.12,2.12,0,0,0,1.41-.38,1.66,1.66,0,0,0,.42-1.27,1.62,1.62,0,0,0-.42-1.26,2.05,2.05,0,0,0-1.41-.38Z"/><path id="DejaVuSansMono-Bold-72-5" data-name="DejaVuSansMono-Bold-72" d="M314.57,184.13H317v4.6h3v-4.6h2.39v12.09h-2.39v-5.38h-3v5.38h-2.38Z"/><path id="DejaVuSansMono-Bold-84-2" data-name="DejaVuSansMono-Bold-84" d="M339.61,196.22h-2.39v-10h-3.07v-2.09h8.53v2.09h-3.07Z"/></g><g id="text_56" data-name="text 56"><path id="DejaVuSans-124-19" data-name="DejaVuSans-124" d="M195,172.26v8.82h-.74v-8.82Z"/></g><g id="text_57" data-name="text 57"><path id="DejaVuSans-53-6" data-name="DejaVuSans-53" d="M194.32,161.12h4.09V162h-3.14v1.89a2.79,2.79,0,0,1,.91-.16,2.89,2.89,0,0,1,2,.71,2.83,2.83,0,0,1,0,3.86A3.24,3.24,0,0,1,196,169a5.66,5.66,0,0,1-1-.08,7.43,7.43,0,0,1-1-.25V167.6a3.92,3.92,0,0,0,1,.38,4.44,4.44,0,0,0,1.05.12,2.06,2.06,0,0,0,1.42-.46,1.84,1.84,0,0,0,0-2.56,2.06,2.06,0,0,0-1.42-.47,3.84,3.84,0,0,0-.83.09,5,5,0,0,0-.85.29Z"/><path id="DejaVuSans-49-6" data-name="DejaVuSans-49" d="M201.22,168h1.71v-5.89l-1.86.37v-.95l1.85-.37h1V168h1.7v.87h-4.44Z"/></g><g id="text_58" data-name="text 58"><path id="DejaVuSansMono-Bold-71-3" data-name="DejaVuSansMono-Bold-71" d="M358.21,194v-2.31h-1.63v-2h3.72v5.53a5,5,0,0,1-1.52.9,5.16,5.16,0,0,1-1.78.3,4.32,4.32,0,0,1-3.62-1.63,9.06,9.06,0,0,1,0-9.3,4.5,4.5,0,0,1,3.73-1.61,5,5,0,0,1,1.43.21,4.89,4.89,0,0,1,1.32.59v2.65a3.43,3.43,0,0,0-1.15-1,3.13,3.13,0,0,0-1.43-.32,2.28,2.28,0,0,0-2,1,5.8,5.8,0,0,0-.67,3.1,5.92,5.92,0,0,0,.65,3.07,2.08,2.08,0,0,0,1.89,1.05,3,3,0,0,0,.64-.06A1.18,1.18,0,0,0,358.21,194Z"/><path id="DejaVuSansMono-Bold-86" d="M376.1,194.22l2.13-10.09h2.41l-2.88,12.09h-3.31l-2.87-12.09H374Z"/><path id="DejaVuSansMono-Bold-75-7" data-name="DejaVuSansMono-Bold-75" d="M392,184.13h2.39v4.77l3.74-4.77h2.7l-3.81,4.76,3.95,7.33h-2.66l-2.86-5.44-1.06,1.34v4.1H392Z"/><path id="DejaVuSansMono-Bold-80-4" data-name="DejaVuSansMono-Bold-80" d="M414.75,186.14v3.54h1a2.62,2.62,0,0,0,1.65-.39,2.22,2.22,0,0,0,0-2.76,2.62,2.62,0,0,0-1.65-.39Zm-2.39-2h3.28a5.71,5.71,0,0,1,3.6.89,4.38,4.38,0,0,1,0,5.78,5.78,5.78,0,0,1-3.6.89h-.89v4.53h-2.39Z"/></g><g id="text_59" data-name="text 59"><path id="DejaVuSans-124-20" data-name="DejaVuSans-124" d="M352.51,172.26v8.82h-.73v-8.82Z"/></g><g id="text_60" data-name="text 60"><path id="DejaVuSans-53-7" data-name="DejaVuSans-53" d="M351.8,161.12h4.1V162h-3.14v1.89l.45-.12a3.42,3.42,0,0,1,.46,0,2.86,2.86,0,0,1,2,.71,2.8,2.8,0,0,1,0,3.86,3.22,3.22,0,0,1-2.18.68,5.51,5.51,0,0,1-1-.08,6.82,6.82,0,0,1-1-.25V167.6a3.77,3.77,0,0,0,1,.38,4.42,4.42,0,0,0,1,.12,2.06,2.06,0,0,0,1.42-.46,1.84,1.84,0,0,0,0-2.56,2.06,2.06,0,0,0-1.42-.47,4,4,0,0,0-.83.09,5,5,0,0,0-.85.29Z"/><path id="DejaVuSans-57" d="M358.55,168.67v-.95a4.29,4.29,0,0,0,.8.29,3.61,3.61,0,0,0,.79.09,1.89,1.89,0,0,0,1.58-.69,3.75,3.75,0,0,0,.62-2.11,2,2,0,0,1-.76.68,2.12,2.12,0,0,1-1,.24,2.42,2.42,0,0,1-1.84-.7,2.66,2.66,0,0,1-.67-1.92,2.59,2.59,0,0,1,.7-1.9,2.49,2.49,0,0,1,1.87-.72,2.33,2.33,0,0,1,2.05,1,5.21,5.21,0,0,1,.7,3,4.55,4.55,0,0,1-.87,2.92,2.81,2.81,0,0,1-2.32,1.08,4.4,4.4,0,0,1-.8-.07A4.88,4.88,0,0,1,358.55,168.67Zm2.08-3.27a1.38,1.38,0,0,0,1.11-.48,2.27,2.27,0,0,0,0-2.63,1.52,1.52,0,0,0-2.22,0,2.31,2.31,0,0,0,0,2.63A1.38,1.38,0,0,0,360.63,165.4Z"/></g><g id="text_61" data-name="text 61"><path id="DejaVuSansMono-Bold-70-5" data-name="DejaVuSansMono-Bold-70" d="M438.9,186.23h-5.14v2.61h4.67V191h-4.67v5.27h-2.39V184.13h7.53Z"/><path id="DejaVuSansMono-Bold-81-5" data-name="DejaVuSansMono-Bold-81" d="M455.17,196.4l-.19,0h-.15a3.56,3.56,0,0,1-3.15-1.58,10.7,10.7,0,0,1,0-9.37,4,4,0,0,1,6.34,0,8.35,8.35,0,0,1,1.08,4.68,10.79,10.79,0,0,1-.51,3.57,3.82,3.82,0,0,1-1.49,2.05l1.51,1.48L457,198.49Zm-.33-10.34a1.4,1.4,0,0,0-1.33,1,12,12,0,0,0,0,6.3,1.41,1.41,0,0,0,2.68,0,12,12,0,0,0,0-6.3A1.4,1.4,0,0,0,454.84,186.06Z"/></g><g id="text_62" data-name="text 62"><path id="DejaVuSans-124-21" data-name="DejaVuSans-124" d="M431.25,172.26v8.82h-.73v-8.82Z"/></g><g id="text_63" data-name="text 63"><path id="DejaVuSans-54" d="M432.89,164.56a1.39,1.39,0,0,0-1.11.48,2.31,2.31,0,0,0,0,2.63,1.37,1.37,0,0,0,1.11.49,1.39,1.39,0,0,0,1.12-.49,2.31,2.31,0,0,0,0-2.63A1.41,1.41,0,0,0,432.89,164.56Zm2.08-3.27v1a4.24,4.24,0,0,0-.8-.28,3.06,3.06,0,0,0-.79-.1,1.87,1.87,0,0,0-1.58.7,3.71,3.71,0,0,0-.62,2.1,2.09,2.09,0,0,1,.76-.69,2.19,2.19,0,0,1,1-.24,2.42,2.42,0,0,1,1.83.71,2.66,2.66,0,0,1,.68,1.92,2.62,2.62,0,0,1-.71,1.91,2.47,2.47,0,0,1-1.87.71,2.33,2.33,0,0,1-2-1,5.27,5.27,0,0,1-.71-3,4.52,4.52,0,0,1,.87-2.91,2.81,2.81,0,0,1,2.33-1.09,4.32,4.32,0,0,1,.79.08A5.89,5.89,0,0,1,435,161.29Z"/><path id="DejaVuSans-51-10" data-name="DejaVuSans-51" d="M440.43,164.67a2,2,0,0,1,1.17.67,1.91,1.91,0,0,1,.42,1.25,2.13,2.13,0,0,1-.79,1.77A3.46,3.46,0,0,1,439,169a5.89,5.89,0,0,1-1-.09,8.06,8.06,0,0,1-1.06-.29v-1a3.8,3.8,0,0,0,.95.39,4.83,4.83,0,0,0,1.08.12,2.46,2.46,0,0,0,1.5-.38,1.34,1.34,0,0,0,.51-1.13,1.28,1.28,0,0,0-.48-1.06,2,2,0,0,0-1.33-.39h-.9v-.86h.94a1.89,1.89,0,0,0,1.18-.31,1,1,0,0,0,.41-.88,1.06,1.06,0,0,0-.42-.91,1.92,1.92,0,0,0-1.21-.32,5.19,5.19,0,0,0-.92.09,8,8,0,0,0-1.08.29v-.93c.4-.11.77-.19,1.12-.25a6.8,6.8,0,0,1,1-.08,3,3,0,0,1,1.88.54,1.76,1.76,0,0,1,.69,1.46,1.59,1.59,0,0,1-.37,1.08A1.84,1.84,0,0,1,440.43,164.67Z"/></g><g id="text_64" data-name="text 64"><path id="DejaVuSansMono-Bold-67-5" data-name="DejaVuSansMono-Bold-67" d="M478,195.87a4.83,4.83,0,0,1-1.19.43,5.53,5.53,0,0,1-1.31.15,4.5,4.5,0,0,1-3.73-1.61,9.06,9.06,0,0,1,0-9.32,4.5,4.5,0,0,1,3.73-1.61,5.68,5.68,0,0,1,1.32.15,4.61,4.61,0,0,1,1.18.43v2.66a4.23,4.23,0,0,0-1.19-.83,2.75,2.75,0,0,0-1.19-.26,2.18,2.18,0,0,0-2,1,5.7,5.7,0,0,0-.67,3.08,5.76,5.76,0,0,0,.67,3.09,2.19,2.19,0,0,0,2,1,2.75,2.75,0,0,0,1.19-.26,4.23,4.23,0,0,0,1.19-.83Z"/><path id="DejaVuSansMono-Bold-75-8" data-name="DejaVuSansMono-Bold-75" d="M490.18,184.13h2.39v4.77l3.73-4.77H499l-3.81,4.76,3.95,7.33h-2.66l-2.86-5.44-1.06,1.34v4.1h-2.39Z"/><path id="DejaVuSansMono-Bold-84-3" data-name="DejaVuSansMono-Bold-84" d="M515.38,196.22H513v-10h-3.07v-2.09h8.53v2.09h-3.07Z"/><path id="DejaVuSansMono-Bold-67-6" data-name="DejaVuSansMono-Bold-67" d="M537.91,195.87a5.14,5.14,0,0,1-1.19.43,5.6,5.6,0,0,1-1.31.15,4.5,4.5,0,0,1-3.73-1.61,9.06,9.06,0,0,1,0-9.32,4.5,4.5,0,0,1,3.73-1.61,5.68,5.68,0,0,1,1.32.15,4.75,4.75,0,0,1,1.18.43v2.66a4.53,4.53,0,0,0-1.19-.83,2.82,2.82,0,0,0-1.2-.26,2.2,2.2,0,0,0-2,1,5.79,5.79,0,0,0-.67,3.08,5.86,5.86,0,0,0,.67,3.09,2.21,2.21,0,0,0,2,1,2.82,2.82,0,0,0,1.2-.26,4.53,4.53,0,0,0,1.19-.83Z"/><path id="DejaVuSansMono-Bold-81-6" data-name="DejaVuSansMono-Bold-81" d="M554.44,196.4l-.2,0h-.14a3.59,3.59,0,0,1-3.16-1.58,10.79,10.79,0,0,1,0-9.37,4,4,0,0,1,6.35,0,8.35,8.35,0,0,1,1.07,4.68,10.79,10.79,0,0,1-.51,3.57,3.8,3.8,0,0,1-1.48,2.05l1.51,1.48-1.64,1.21Zm-.33-10.34a1.41,1.41,0,0,0-1.34,1,12,12,0,0,0,0,6.3,1.41,1.41,0,0,0,1.34,1,1.39,1.39,0,0,0,1.34-1,11.75,11.75,0,0,0,0-6.3A1.39,1.39,0,0,0,554.11,186.06Z"/><path id="DejaVuSansMono-Bold-82-10" data-name="DejaVuSansMono-Bold-82" d="M575.62,190.51a1.16,1.16,0,0,1,.62.34,3.84,3.84,0,0,1,.64,1l2.19,4.35h-2.62L575,193.16l-.17-.35c-.42-.92-.93-1.37-1.51-1.37h-.75v4.78h-2.39V184.13h3.45A5.31,5.31,0,0,1,577,185a3.27,3.27,0,0,1,1,2.69,3,3,0,0,1-.61,2A2.6,2.6,0,0,1,575.62,190.51Zm-3.06-4.37v3.29h1.12a2.09,2.09,0,0,0,1.4-.38,2.1,2.1,0,0,0,0-2.53,2.05,2.05,0,0,0-1.41-.38Z"/></g><g id="text_65" data-name="text 65"><path id="DejaVuSans-124-22" data-name="DejaVuSans-124" d="M470.62,172.26v8.82h-.73v-8.82Z"/></g><g id="text_66" data-name="text 66"><path id="DejaVuSans-54-2" data-name="DejaVuSans-54" d="M472.27,164.56a1.41,1.41,0,0,0-1.12.48,2.31,2.31,0,0,0,0,2.63,1.51,1.51,0,0,0,2.23,0,2.31,2.31,0,0,0,0-2.63A1.4,1.4,0,0,0,472.27,164.56Zm2.07-3.27v1a4,4,0,0,0-.8-.28,3.06,3.06,0,0,0-.79-.1,1.87,1.87,0,0,0-1.58.7,3.71,3.71,0,0,0-.62,2.1,2.09,2.09,0,0,1,.76-.69,2.19,2.19,0,0,1,1-.24,2.42,2.42,0,0,1,1.83.71,3,3,0,0,1,0,3.83,2.5,2.5,0,0,1-1.87.71,2.33,2.33,0,0,1-2-1,5.27,5.27,0,0,1-.71-3,4.52,4.52,0,0,1,.87-2.91,2.81,2.81,0,0,1,2.33-1.09,4.23,4.23,0,0,1,.79.08A5.89,5.89,0,0,1,474.34,161.29Z"/><path id="DejaVuSans-53-8" data-name="DejaVuSans-53" d="M476.65,161.12h4.1V162H477.6v1.89a3.9,3.9,0,0,1,.46-.12,3.42,3.42,0,0,1,.45,0,2.89,2.89,0,0,1,2.05.71,2.51,2.51,0,0,1,.75,1.92,2.47,2.47,0,0,1-.77,1.94,3.24,3.24,0,0,1-2.19.68,5.66,5.66,0,0,1-1-.08,7.43,7.43,0,0,1-1-.25V167.6a3.92,3.92,0,0,0,1,.38,4.44,4.44,0,0,0,1.05.12,2.06,2.06,0,0,0,1.42-.46,1.84,1.84,0,0,0,0-2.56,2.06,2.06,0,0,0-1.42-.47,3.84,3.84,0,0,0-.83.09,5,5,0,0,0-.85.29Z"/></g><g id="text_67" data-name="text 67"><path id="DejaVuSansMono-Bold-75-9" data-name="DejaVuSansMono-Bold-75" d="M588.32,184.13h2.39v4.77l3.74-4.77h2.71l-3.82,4.76,3.95,7.33h-2.65l-2.87-5.44-1.06,1.34v4.1h-2.39Z"/><path id="DejaVuSansMono-Bold-70-6" data-name="DejaVuSansMono-Bold-70" d="M616.34,186.23H611.2v2.61h4.68V191H611.2v5.27h-2.38V184.13h7.52Z"/></g><g id="text_68" data-name="text 68"><path id="DejaVuSans-124-23" data-name="DejaVuSans-124" d="M588.74,172.26v8.82H588v-8.82Z"/></g><g id="text_69" data-name="text 69"><path id="DejaVuSans-55-4" data-name="DejaVuSans-55" d="M587.75,161.12h5v.44l-2.8,7.27h-1.09l2.64-6.83h-3.71Z"/><path id="DejaVuSans-49-7" data-name="DejaVuSans-49" d="M594.93,168h1.71v-5.89l-1.86.37v-.95l1.85-.37h1V168h1.7v.87h-4.44Z"/></g><g id="text_70" data-name="text 70"><path id="DejaVuSansMono-Bold-83-5" data-name="DejaVuSansMono-Bold-83" d="M630.88,190.91a6.16,6.16,0,0,1-2.45-1.44,3.06,3.06,0,0,1-.64-2,3.3,3.3,0,0,1,1.05-2.58,4.19,4.19,0,0,1,2.89-.94,7.25,7.25,0,0,1,1.67.19,9.17,9.17,0,0,1,1.65.56V187a6.21,6.21,0,0,0-1.56-.83,4.62,4.62,0,0,0-1.57-.29,2.19,2.19,0,0,0-1.33.35,1.19,1.19,0,0,0-.46,1,1.1,1.1,0,0,0,.34.83,4.22,4.22,0,0,0,1.4.72l1,.39a4.73,4.73,0,0,1,2.15,1.42,3.5,3.5,0,0,1,.68,2.22,3.36,3.36,0,0,1-1.08,2.74,5,5,0,0,1-3.26.9,8,8,0,0,1-1.81-.21,8.46,8.46,0,0,1-1.74-.64v-2.47a8.12,8.12,0,0,0,1.85,1,5.14,5.14,0,0,0,1.77.34,2.15,2.15,0,0,0,1.37-.4,1.4,1.4,0,0,0,.48-1.13A1.51,1.51,0,0,0,633,192a2.21,2.21,0,0,0-.94-.64Z"/><path id="DejaVuSansMono-Bold-82-11" data-name="DejaVuSansMono-Bold-82" d="M653.25,190.51a1.23,1.23,0,0,1,.62.34,4.12,4.12,0,0,1,.64,1l2.18,4.35h-2.62l-1.46-3.06-.16-.35c-.43-.92-.93-1.37-1.51-1.37h-.76v4.78h-2.39V184.13h3.45a5.37,5.37,0,0,1,3.35.82,3.29,3.29,0,0,1,1,2.69,3.07,3.07,0,0,1-.6,2A2.62,2.62,0,0,1,653.25,190.51Zm-3.07-4.37v3.29h1.12a2.12,2.12,0,0,0,1.41-.38,1.66,1.66,0,0,0,.42-1.27,1.62,1.62,0,0,0-.42-1.26,2.05,2.05,0,0,0-1.41-.38Z"/></g><g id="text_71" data-name="text 71"><path id="DejaVuSans-124-24" data-name="DejaVuSans-124" d="M628.11,172.26v8.82h-.73v-8.82Z"/></g><g id="text_72" data-name="text 72"><path id="DejaVuSans-55-5" data-name="DejaVuSans-55" d="M627.12,161.12h5v.44l-2.8,7.27h-1.09l2.64-6.83h-3.71Z"/><path id="DejaVuSans-51-11" data-name="DejaVuSans-51" d="M637.28,164.67a2,2,0,0,1,1.17.67,1.91,1.91,0,0,1,.42,1.25,2.15,2.15,0,0,1-.78,1.77,3.48,3.48,0,0,1-2.23.62,5.72,5.72,0,0,1-1-.09,7.3,7.3,0,0,1-1.06-.29v-1a3.51,3.51,0,0,0,1,.39,4.7,4.7,0,0,0,1.08.12,2.43,2.43,0,0,0,1.49-.38,1.35,1.35,0,0,0,.52-1.13,1.28,1.28,0,0,0-.48-1.06,2,2,0,0,0-1.33-.39h-.9v-.86h.94a1.93,1.93,0,0,0,1.18-.31,1,1,0,0,0,.41-.88,1.07,1.07,0,0,0-.43-.91,1.91,1.91,0,0,0-1.2-.32,5,5,0,0,0-.92.09,8,8,0,0,0-1.08.29v-.93c.39-.11.77-.19,1.11-.25a6.92,6.92,0,0,1,1-.08,3,3,0,0,1,1.88.54,1.76,1.76,0,0,1,.69,1.46,1.64,1.64,0,0,1-.36,1.08A1.9,1.9,0,0,1,637.28,164.67Z"/></g><g id="text_73" data-name="text 73"><path id="DejaVuSansMono-Bold-83-6" data-name="DejaVuSansMono-Bold-83" d="M670.25,190.91a6.16,6.16,0,0,1-2.45-1.44,3.11,3.11,0,0,1-.64-2,3.3,3.3,0,0,1,1.05-2.58,4.2,4.2,0,0,1,2.9-.94,7.23,7.23,0,0,1,1.66.19,9.17,9.17,0,0,1,1.65.56V187a6.21,6.21,0,0,0-1.56-.83,4.62,4.62,0,0,0-1.57-.29,2.22,2.22,0,0,0-1.33.35,1.21,1.21,0,0,0-.46,1,1.1,1.1,0,0,0,.34.83,4.22,4.22,0,0,0,1.4.72l1,.39a4.73,4.73,0,0,1,2.15,1.42,3.5,3.5,0,0,1,.69,2.22,3.36,3.36,0,0,1-1.09,2.74,5,5,0,0,1-3.26.9,7.9,7.9,0,0,1-1.8-.21,8.34,8.34,0,0,1-1.75-.64v-2.47a8.33,8.33,0,0,0,1.85,1,5.14,5.14,0,0,0,1.77.34,2.15,2.15,0,0,0,1.37-.4,1.4,1.4,0,0,0,.48-1.13,1.46,1.46,0,0,0-.32-.95,2.21,2.21,0,0,0-.94-.64Z"/><path id="DejaVuSansMono-Bold-68-4" data-name="DejaVuSansMono-Bold-68" d="M689.58,186.28v7.78h.65a2.25,2.25,0,0,0,2-.88,5.65,5.65,0,0,0,.6-3,5.51,5.51,0,0,0-.6-3,2.25,2.25,0,0,0-2-.89Zm-2.39-2.15h2.56c2,0,3.4.47,4.27,1.41s1.3,2.48,1.3,4.62-.43,3.69-1.3,4.64a5.59,5.59,0,0,1-4.27,1.42h-2.56Z"/><path id="DejaVuSansMono-Bold-72-6" data-name="DejaVuSansMono-Bold-72" d="M707.16,184.13h2.39v4.6h3v-4.6h2.39v12.09h-2.39v-5.38h-3v5.38h-2.39Z"/><path id="DejaVuSansMono-Bold-76-4" data-name="DejaVuSansMono-Bold-76" d="M727.84,196.22V184.13h2.38v10h5.11v2.11Z"/><path id="DejaVuSansMono-Bold-75-10" data-name="DejaVuSansMono-Bold-75" d="M746.93,184.13h2.39v4.77l3.73-4.77h2.71L752,188.89l3.95,7.33h-2.66l-2.86-5.44-1.06,1.34v4.1h-2.39Z"/><path id="DejaVuSansMono-Bold-84-4" data-name="DejaVuSansMono-Bold-84" d="M772.13,196.22h-2.39v-10h-3.07v-2.09h8.53v2.09h-3.07Z"/><path id="DejaVuSansMono-Bold-72-7" data-name="DejaVuSansMono-Bold-72" d="M787,184.13h2.39v4.6h3v-4.6h2.39v12.09h-2.39v-5.38h-3v5.38H787Z"/><path id="DejaVuSansMono-Bold-84-5" data-name="DejaVuSansMono-Bold-84" d="M812.06,196.22h-2.39v-10H806.6v-2.09h8.53v2.09h-3.07Z"/><path id="DejaVuSansMono-Bold-82-12" data-name="DejaVuSansMono-Bold-82" d="M832.37,190.51a1.16,1.16,0,0,1,.62.34,4.08,4.08,0,0,1,.65,1l2.18,4.35H833.2l-1.46-3.06-.17-.35c-.42-.92-.93-1.37-1.5-1.37h-.76v4.78h-2.39V184.13h3.45a5.31,5.31,0,0,1,3.34.82,3.27,3.27,0,0,1,1,2.69,3,3,0,0,1-.61,2A2.57,2.57,0,0,1,832.37,190.51Zm-3.06-4.37v3.29h1.12a2.09,2.09,0,0,0,1.4-.38,2.1,2.1,0,0,0,0-2.53,2.05,2.05,0,0,0-1.41-.38Z"/><path id="DejaVuSansMono-Bold-84-6" data-name="DejaVuSansMono-Bold-84" d="M852,196.22H849.6v-10h-3.07v-2.09h8.53v2.09H852Z"/><path id="DejaVuSansMono-Bold-72-8" data-name="DejaVuSansMono-Bold-72" d="M866.88,184.13h2.39v4.6h3v-4.6h2.39v12.09h-2.39v-5.38h-3v5.38h-2.39Z"/><path id="DejaVuSansMono-Bold-84-7" data-name="DejaVuSansMono-Bold-84" d="M891.92,196.22h-2.39v-10h-3.07v-2.09H895v2.09h-3.07Z"/></g><g id="text_74" data-name="text 74"><path id="DejaVuSans-124-25" data-name="DejaVuSans-124" d="M667.48,172.26v8.82h-.73v-8.82Z"/></g><g id="text_75" data-name="text 75"><path id="DejaVuSans-55-6" data-name="DejaVuSans-55" d="M666.49,161.12h5v.44l-2.81,7.27h-1.09L670.2,162h-3.71Z"/><path id="DejaVuSans-53-9" data-name="DejaVuSans-53" d="M673.5,161.12h4.1V162h-3.14v1.89l.45-.12a3.57,3.57,0,0,1,.46,0,2.86,2.86,0,0,1,2,.71,2.8,2.8,0,0,1,0,3.86,3.2,3.2,0,0,1-2.18.68,5.51,5.51,0,0,1-1-.08,7.11,7.11,0,0,1-1-.25V167.6a3.92,3.92,0,0,0,1,.38,4.44,4.44,0,0,0,1.05.12,2,2,0,0,0,1.41-.46,1.84,1.84,0,0,0,0-2.56,2.05,2.05,0,0,0-1.41-.47,4,4,0,0,0-.84.09,5,5,0,0,0-.85.29Z"/></g><g id="text_76" data-name="text 76"><path id="DejaVuSansMono-Bold-71-4" data-name="DejaVuSansMono-Bold-71" d="M909.4,194v-2.31h-1.63v-2h3.72v5.53a4.89,4.89,0,0,1-1.52.9,5.14,5.14,0,0,1-1.77.3,4.33,4.33,0,0,1-3.63-1.63,9.06,9.06,0,0,1,0-9.3,4.52,4.52,0,0,1,3.73-1.61,5,5,0,0,1,1.43.21,4.89,4.89,0,0,1,1.32.59v2.65a3.43,3.43,0,0,0-1.15-1,3.1,3.1,0,0,0-1.43-.32,2.27,2.27,0,0,0-2,1,5.71,5.71,0,0,0-.67,3.1,5.93,5.93,0,0,0,.64,3.07,2.11,2.11,0,0,0,1.89,1.05,3.06,3.06,0,0,0,.65-.06A1.2,1.2,0,0,0,909.4,194Z"/><path id="DejaVuSansMono-Bold-69-3" data-name="DejaVuSansMono-Bold-69" d="M931.2,196.22h-7.53V184.13h7.53v2.1h-5.14v2.61h4.65V191h-4.65v3.16h5.14Z"/><path id="DejaVuSansMono-Bold-75-11" data-name="DejaVuSansMono-Bold-75" d="M943.22,184.13h2.39v4.77l3.74-4.77h2.7l-3.81,4.76,4,7.33h-2.65l-2.87-5.44-1.06,1.34v4.1h-2.39Z"/><path id="DejaVuSansMono-Bold-80-5" data-name="DejaVuSansMono-Bold-80" d="M965.94,186.14v3.54h1a2.66,2.66,0,0,0,1.65-.39,2.26,2.26,0,0,0,0-2.76,2.66,2.66,0,0,0-1.65-.39Zm-2.39-2h3.28a5.69,5.69,0,0,1,3.6.89,4.35,4.35,0,0,1,0,5.78,5.76,5.76,0,0,1-3.6.89h-.89v4.53h-2.39Z"/></g><g id="text_77" data-name="text 77"><path id="DejaVuSans-124-26" data-name="DejaVuSans-124" d="M903.7,172.26v8.82H903v-8.82Z"/></g><g id="text_78" data-name="text 78"><path id="DejaVuSans-56-3" data-name="DejaVuSans-56" d="M905.22,165.17a1.61,1.61,0,0,0-1.17.4,1.39,1.39,0,0,0-.43,1.09,1.42,1.42,0,0,0,.43,1.1,1.61,1.61,0,0,0,1.17.4,1.69,1.69,0,0,0,1.17-.4,1.47,1.47,0,0,0,.43-1.1,1.39,1.39,0,0,0-.43-1.09A1.61,1.61,0,0,0,905.22,165.17Zm-1.05-.44a1.84,1.84,0,0,1-1-.63,1.73,1.73,0,0,1-.38-1.12,1.77,1.77,0,0,1,.66-1.46,3.3,3.3,0,0,1,3.62,0,1.79,1.79,0,0,1,.65,1.46,1.72,1.72,0,0,1-.37,1.12,1.88,1.88,0,0,1-1,.63,2,2,0,0,1,1.17.68,1.93,1.93,0,0,1,.42,1.25,2.2,2.2,0,0,1-.68,1.73,3.57,3.57,0,0,1-3.93,0,2.2,2.2,0,0,1-.68-1.73,1.93,1.93,0,0,1,.42-1.25A2.09,2.09,0,0,1,904.17,164.73Zm-.38-1.65a1.17,1.17,0,0,0,.37.93,1.81,1.81,0,0,0,2.11,0,1.18,1.18,0,0,0,.38-.93,1.21,1.21,0,0,0-.38-.94,1.85,1.85,0,0,0-2.11,0A1.21,1.21,0,0,0,903.79,163.08Z"/><path id="DejaVuSans-55-7" data-name="DejaVuSans-55" d="M909.45,161.12h5v.44l-2.81,7.27h-1.09l2.64-6.83h-3.71Z"/></g><g id="text_79" data-name="text 79"><path id="DejaVuSansMono-Bold-70-7" data-name="DejaVuSansMono-Bold-70" d="M990.09,186.23H985v2.61h4.68V191H985v5.27h-2.39V184.13h7.53Z"/><path id="DejaVuSansMono-Bold-83-7" data-name="DejaVuSansMono-Bold-83" d="M1005.18,190.91a6.11,6.11,0,0,1-2.44-1.44,3.06,3.06,0,0,1-.64-2,3.3,3.3,0,0,1,1-2.58,4.16,4.16,0,0,1,2.89-.94,7.31,7.31,0,0,1,1.67.19,9.73,9.73,0,0,1,1.65.56V187a6.57,6.57,0,0,0-1.56-.83,4.67,4.67,0,0,0-1.57-.29,2.19,2.19,0,0,0-1.33.35,1.19,1.19,0,0,0-.46,1,1.13,1.13,0,0,0,.33.83,4.29,4.29,0,0,0,1.41.72l1,.39a4.68,4.68,0,0,1,2.15,1.42,3.5,3.5,0,0,1,.69,2.22,3.36,3.36,0,0,1-1.08,2.74,5,5,0,0,1-3.27.9,7.9,7.9,0,0,1-1.8-.21,8.77,8.77,0,0,1-1.75-.64v-2.47a8.33,8.33,0,0,0,1.85,1,5.14,5.14,0,0,0,1.77.34,2.13,2.13,0,0,0,1.37-.4,1.41,1.41,0,0,0,.49-1.13,1.46,1.46,0,0,0-.33-.95,2.15,2.15,0,0,0-.94-.64Z"/></g><g id="text_80" data-name="text 80"><path id="DejaVuSans-124-27" data-name="DejaVuSans-124" d="M982.45,172.26v8.82h-.74v-8.82Z"/></g><g id="text_81" data-name="text 81"><path id="DejaVuSans-57-2" data-name="DejaVuSans-57" d="M981.76,168.67v-.95a4,4,0,0,0,.79.29,3.68,3.68,0,0,0,.79.09,1.89,1.89,0,0,0,1.58-.69,3.75,3.75,0,0,0,.63-2.11,2,2,0,0,1-.77.68,2.12,2.12,0,0,1-1,.24,2.41,2.41,0,0,1-1.83-.7,2.66,2.66,0,0,1-.68-1.92,2.63,2.63,0,0,1,.7-1.9,2.51,2.51,0,0,1,1.87-.72,2.32,2.32,0,0,1,2,1,5.21,5.21,0,0,1,.7,3,4.55,4.55,0,0,1-.86,2.92,2.83,2.83,0,0,1-2.33,1.08,4.4,4.4,0,0,1-.8-.07A5,5,0,0,1,981.76,168.67Zm2.07-3.27a1.41,1.41,0,0,0,1.12-.48,2.31,2.31,0,0,0,0-2.63,1.41,1.41,0,0,0-1.12-.48,1.39,1.39,0,0,0-1.11.48,2.31,2.31,0,0,0,0,2.63A1.39,1.39,0,0,0,983.83,165.4Z"/><path id="DejaVuSans-49-8" data-name="DejaVuSans-49" d="M988.64,168h1.71v-5.89l-1.86.37v-.95l1.85-.37h1V168h1.7v.87h-4.44Z"/></g><g id="text_82" data-name="text 82"><path id="DejaVuSansMono-Bold-67-7" data-name="DejaVuSansMono-Bold-67" d="M1029.21,195.87a5.14,5.14,0,0,1-1.19.43,5.6,5.6,0,0,1-1.31.15,4.49,4.49,0,0,1-3.73-1.61,9.06,9.06,0,0,1,0-9.32,4.49,4.49,0,0,1,3.73-1.61,5.68,5.68,0,0,1,1.32.15,4.75,4.75,0,0,1,1.18.43v2.66a4.41,4.41,0,0,0-1.2-.83,2.75,2.75,0,0,0-1.19-.26,2.2,2.2,0,0,0-2,1,5.79,5.79,0,0,0-.67,3.08,5.86,5.86,0,0,0,.67,3.09,2.21,2.21,0,0,0,2,1A2.75,2.75,0,0,0,1028,194a4.41,4.41,0,0,0,1.2-.83Z"/><path id="DejaVuSansMono-Bold-82-13" data-name="DejaVuSansMono-Bold-82" d="M1047,190.51a1.23,1.23,0,0,1,.62.34,4.12,4.12,0,0,1,.64,1l2.18,4.35h-2.62l-1.46-3.06-.16-.35c-.43-.92-.93-1.37-1.51-1.37h-.76v4.78h-2.39V184.13H1045a5.37,5.37,0,0,1,3.35.82,3.29,3.29,0,0,1,1,2.69,3.07,3.07,0,0,1-.6,2A2.62,2.62,0,0,1,1047,190.51Zm-3.07-4.37v3.29H1045a2.12,2.12,0,0,0,1.41-.38,1.66,1.66,0,0,0,.42-1.27,1.62,1.62,0,0,0-.42-1.26,2.05,2.05,0,0,0-1.41-.38Z"/><path id="DejaVuSansMono-Bold-87" d="M1060.39,184.13h2.09l.86,8.87,1.05-5.74h2l1.22,5.74.68-8.87h2.1L1069,196.22h-2.23l-1.37-6.35-1.29,6.35h-2.21Z"/><path id="DejaVuSansMono-Bold-80-6" data-name="DejaVuSansMono-Bold-80" d="M1084.05,186.14v3.54h1a2.66,2.66,0,0,0,1.65-.39,2.26,2.26,0,0,0,0-2.76,2.66,2.66,0,0,0-1.65-.39Zm-2.39-2h3.28a5.69,5.69,0,0,1,3.6.89,4.35,4.35,0,0,1,0,5.78,5.76,5.76,0,0,1-3.6.89h-.89v4.53h-2.39Z"/><path id="DejaVuSansMono-Bold-83-8" data-name="DejaVuSansMono-Bold-83" d="M1104.45,190.91a6.16,6.16,0,0,1-2.45-1.44,3.11,3.11,0,0,1-.64-2,3.3,3.3,0,0,1,1.05-2.58,4.2,4.2,0,0,1,2.9-.94,7.23,7.23,0,0,1,1.66.19,9.17,9.17,0,0,1,1.65.56V187a6.21,6.21,0,0,0-1.56-.83,4.62,4.62,0,0,0-1.57-.29,2.22,2.22,0,0,0-1.33.35,1.21,1.21,0,0,0-.46,1,1.1,1.1,0,0,0,.34.83,4.22,4.22,0,0,0,1.4.72l1,.39a4.73,4.73,0,0,1,2.15,1.42,3.5,3.5,0,0,1,.69,2.22,3.36,3.36,0,0,1-1.09,2.74,5,5,0,0,1-3.26.9,7.9,7.9,0,0,1-1.8-.21,8.34,8.34,0,0,1-1.75-.64v-2.47a8.33,8.33,0,0,0,1.85,1,5.14,5.14,0,0,0,1.77.34,2.15,2.15,0,0,0,1.37-.4,1.4,1.4,0,0,0,.48-1.13,1.46,1.46,0,0,0-.32-.95,2.21,2.21,0,0,0-.94-.64Z"/><path id="DejaVuSansMono-Bold-67-8" data-name="DejaVuSansMono-Bold-67" d="M1129,195.87a5.05,5.05,0,0,1-1.2.43,5.53,5.53,0,0,1-1.31.15,4.5,4.5,0,0,1-3.73-1.61,9.06,9.06,0,0,1,0-9.32,4.5,4.5,0,0,1,3.73-1.61,5.68,5.68,0,0,1,1.32.15,4.68,4.68,0,0,1,1.19.43v2.66a4.41,4.41,0,0,0-1.2-.83,2.75,2.75,0,0,0-1.19-.26,2.18,2.18,0,0,0-2,1,5.7,5.7,0,0,0-.67,3.08,5.76,5.76,0,0,0,.67,3.09,2.19,2.19,0,0,0,2,1,2.75,2.75,0,0,0,1.19-.26,4.41,4.41,0,0,0,1.2-.83Z"/><path id="DejaVuSansMono-Bold-81-7" data-name="DejaVuSansMono-Bold-81" d="M1145.56,196.4l-.19,0h-.15a3.56,3.56,0,0,1-3.15-1.58,10.7,10.7,0,0,1,0-9.37,4,4,0,0,1,6.34,0,8.35,8.35,0,0,1,1.08,4.68,10.79,10.79,0,0,1-.51,3.57,3.82,3.82,0,0,1-1.49,2.05l1.51,1.48-1.63,1.21Zm-.32-10.34a1.4,1.4,0,0,0-1.34,1,12,12,0,0,0,0,6.3,1.41,1.41,0,0,0,2.68,0,12,12,0,0,0,0-6.3A1.4,1.4,0,0,0,1145.24,186.06Z"/><path id="DejaVuSansMono-Bold-75-12" data-name="DejaVuSansMono-Bold-75" d="M1161.16,184.13h2.39v4.77l3.74-4.77h2.7l-3.81,4.76,4,7.33h-2.65l-2.87-5.44-1.06,1.34v4.1h-2.39Z"/></g><g id="text_83" data-name="text 83"><path id="DejaVuSans-124-28" data-name="DejaVuSans-124" d="M1021.82,172.26v8.82h-.73v-8.82Z"/></g><g id="text_84" data-name="text 84"><path id="DejaVuSans-57-3" data-name="DejaVuSans-57" d="M1021.13,168.67v-.95a4.2,4.2,0,0,0,.79.29,3.7,3.7,0,0,0,.8.09,1.88,1.88,0,0,0,1.57-.69,3.75,3.75,0,0,0,.63-2.11,2.06,2.06,0,0,1-.76.68,2.19,2.19,0,0,1-1,.24,2.41,2.41,0,0,1-1.83-.7,2.66,2.66,0,0,1-.68-1.92,2.63,2.63,0,0,1,.7-1.9,2.51,2.51,0,0,1,1.87-.72,2.32,2.32,0,0,1,2,1,5.21,5.21,0,0,1,.7,3,4.55,4.55,0,0,1-.86,2.92,2.83,2.83,0,0,1-2.33,1.08,4.4,4.4,0,0,1-.8-.07A5,5,0,0,1,1021.13,168.67Zm2.07-3.27a1.41,1.41,0,0,0,1.12-.48,2.31,2.31,0,0,0,0-2.63,1.54,1.54,0,0,0-2.23,0,2.31,2.31,0,0,0,0,2.63A1.4,1.4,0,0,0,1023.2,165.4Z"/><path id="DejaVuSans-51-12" data-name="DejaVuSans-51" d="M1031,164.67a2,2,0,0,1,1.17.67,1.91,1.91,0,0,1,.42,1.25,2.15,2.15,0,0,1-.78,1.77,3.48,3.48,0,0,1-2.23.62,5.72,5.72,0,0,1-1-.09,7.3,7.3,0,0,1-1.06-.29v-1a3.51,3.51,0,0,0,1,.39,4.7,4.7,0,0,0,1.08.12,2.43,2.43,0,0,0,1.49-.38,1.35,1.35,0,0,0,.52-1.13,1.28,1.28,0,0,0-.48-1.06,2,2,0,0,0-1.33-.39h-.9v-.86h.94A1.93,1.93,0,0,0,1031,164a1,1,0,0,0,.41-.88,1.07,1.07,0,0,0-.43-.91,1.91,1.91,0,0,0-1.2-.32,5,5,0,0,0-.92.09,8,8,0,0,0-1.08.29v-.93c.39-.11.77-.19,1.11-.25a6.92,6.92,0,0,1,1-.08,3,3,0,0,1,1.88.54,1.76,1.76,0,0,1,.69,1.46,1.64,1.64,0,0,1-.36,1.08A1.9,1.9,0,0,1,1031,164.67Z"/></g><g id="text_85" data-name="text 85"><path id="DejaVuSansMono-Bold-75-13" data-name="DejaVuSansMono-Bold-75" d="M194.61,262.36H197v4.78l3.74-4.78h2.71l-3.82,4.76,4,7.33h-2.65L198.06,269,197,270.35v4.1h-2.39Z"/><path id="DejaVuSansMono-Bold-70-8" data-name="DejaVuSansMono-Bold-70" d="M222.63,264.47h-5.14v2.6h4.68v2.11h-4.68v5.27h-2.38V262.36h7.52Z"/></g><g id="text_86" data-name="text 86"><path id="DejaVuSans-124-29" data-name="DejaVuSans-124" d="M195,250.5v8.82h-.74V250.5Z"/></g><g id="text_87" data-name="text 87"><path id="DejaVuSans-49-9" data-name="DejaVuSans-49" d="M194.49,246.19h1.7V240.3l-1.85.38v-1l1.84-.37h1v6.84h1.7v.88h-4.44Z"/><path id="DejaVuSans-48-3" data-name="DejaVuSans-48" d="M203.27,240a1.29,1.29,0,0,0-1.21.79,7.14,7.14,0,0,0,0,4.77,1.29,1.29,0,0,0,1.21.79,1.3,1.3,0,0,0,1.22-.79,7.14,7.14,0,0,0,0-4.77A1.3,1.3,0,0,0,203.27,240Zm0-.83a2.23,2.23,0,0,1,2,1,6.76,6.76,0,0,1,0,5.95,2.21,2.21,0,0,1-2,1,2.23,2.23,0,0,1-2-1,6.85,6.85,0,0,1,0-5.95A2.25,2.25,0,0,1,203.27,239.21Z"/><path id="DejaVuSans-49-10" data-name="DejaVuSans-49" d="M208,246.19h1.71V240.3l-1.86.38v-1l1.85-.37h1v6.84h1.71v.88H208Z"/></g><g id="text_88" data-name="text 88"><path id="DejaVuSansMono-Bold-65-2" data-name="DejaVuSansMono-Bold-65" d="M238,264.55l-1.12,4.94h2.26Zm-1.45-2.19h2.92l3.26,12.09h-2.39l-.74-3h-3.2l-.73,3H233.3Z"/><path id="DejaVuSansMono-Bold-82-14" data-name="DejaVuSansMono-Bold-82" d="M259.54,268.74a1.23,1.23,0,0,1,.62.34,4.33,4.33,0,0,1,.64,1l2.18,4.35h-2.62l-1.46-3.05c0-.09-.1-.21-.16-.36-.43-.91-.93-1.37-1.51-1.37h-.76v4.78h-2.39V262.36h3.45a5.36,5.36,0,0,1,3.35.83,3.29,3.29,0,0,1,1,2.69,3,3,0,0,1-.6,2A2.58,2.58,0,0,1,259.54,268.74Zm-3.07-4.37v3.29h1.12a2.07,2.07,0,0,0,1.41-.38,1.66,1.66,0,0,0,.42-1.27,1.64,1.64,0,0,0-.42-1.26,2.11,2.11,0,0,0-1.41-.38Z"/></g><g id="text_89" data-name="text 89"><path id="DejaVuSans-124-30" data-name="DejaVuSans-124" d="M234.4,250.5v8.82h-.73V250.5Z"/></g><g id="text_90" data-name="text 90"><path id="DejaVuSans-49-11" data-name="DejaVuSans-49" d="M233.86,246.19h1.7V240.3l-1.85.38v-1l1.84-.37h1v6.84h1.7v.88h-4.44Z"/><path id="DejaVuSans-48-4" data-name="DejaVuSans-48" d="M242.64,240a1.3,1.3,0,0,0-1.21.79,7.31,7.31,0,0,0,0,4.77,1.33,1.33,0,0,0,2.43,0,7.14,7.14,0,0,0,0-4.77A1.3,1.3,0,0,0,242.64,240Zm0-.83a2.26,2.26,0,0,1,2,1,6.85,6.85,0,0,1,0,5.95,2.43,2.43,0,0,1-4,0,6.85,6.85,0,0,1,0-5.95A2.25,2.25,0,0,1,242.64,239.21Z"/><path id="DejaVuSans-51-13" data-name="DejaVuSans-51" d="M250.31,242.91a2,2,0,0,1,1.17.67,1.87,1.87,0,0,1,.42,1.25,2.09,2.09,0,0,1-.79,1.76,3.48,3.48,0,0,1-2.23.63,5,5,0,0,1-1-.1,7.58,7.58,0,0,1-1.06-.28v-1a3.63,3.63,0,0,0,1,.38,4.21,4.21,0,0,0,1.08.13,2.48,2.48,0,0,0,1.5-.39,1.32,1.32,0,0,0,.51-1.12,1.28,1.28,0,0,0-.48-1.07,2,2,0,0,0-1.33-.39h-.9v-.85h.94a2,2,0,0,0,1.18-.31,1.06,1.06,0,0,0,.41-.89,1.08,1.08,0,0,0-.42-.91,2,2,0,0,0-1.21-.32,4.45,4.45,0,0,0-.92.1,7.86,7.86,0,0,0-1.08.28v-.93a9.07,9.07,0,0,1,1.12-.24,5.65,5.65,0,0,1,1-.09,3,3,0,0,1,1.88.54,1.74,1.74,0,0,1,.7,1.46,1.64,1.64,0,0,1-.37,1.09A2,2,0,0,1,250.31,242.91Z"/></g><g id="text_91" data-name="text 91"><path id="DejaVuSansMono-Bold-83-9" data-name="DejaVuSansMono-Bold-83" d="M276.54,269.15a6,6,0,0,1-2.45-1.45,3.08,3.08,0,0,1-.64-2,3.3,3.3,0,0,1,1.05-2.58,4.25,4.25,0,0,1,2.9-.94,7.24,7.24,0,0,1,1.66.2,7.84,7.84,0,0,1,1.65.56v2.33a6.55,6.55,0,0,0-1.56-.83,4.61,4.61,0,0,0-1.57-.28,2.15,2.15,0,0,0-1.33.35,1.18,1.18,0,0,0-.46,1,1.07,1.07,0,0,0,.34.83,4.38,4.38,0,0,0,1.4.73l1,.39a4.64,4.64,0,0,1,2.15,1.41,3.51,3.51,0,0,1,.69,2.23,3.36,3.36,0,0,1-1.09,2.73,5,5,0,0,1-3.26.91,7.91,7.91,0,0,1-1.8-.22,7.35,7.35,0,0,1-1.75-.64v-2.47a8,8,0,0,0,1.85,1,5.12,5.12,0,0,0,1.77.33,2.09,2.09,0,0,0,1.37-.4,1.38,1.38,0,0,0,.48-1.12,1.46,1.46,0,0,0-.32-.95,2.14,2.14,0,0,0-.94-.65Z"/><path id="DejaVuSansMono-Bold-68-5" data-name="DejaVuSansMono-Bold-68" d="M295.87,264.52v7.78h.65a2.25,2.25,0,0,0,2-.89,5.63,5.63,0,0,0,.6-3,5.56,5.56,0,0,0-.6-3,2.25,2.25,0,0,0-2-.88Zm-2.39-2.16H296c2,0,3.4.47,4.27,1.42s1.3,2.48,1.3,4.61-.43,3.69-1.3,4.64-2.29,1.42-4.27,1.42h-2.56Z"/><path id="DejaVuSansMono-Bold-69-4" data-name="DejaVuSansMono-Bold-69" d="M321.23,274.45H313.7V262.36h7.53v2.11h-5.14v2.6h4.65v2.11h-4.65v3.16h5.14Z"/><path id="DejaVuSansMono-Bold-76-5" data-name="DejaVuSansMono-Bold-76" d="M334.13,274.45V262.36h2.38v10h5.11v2.11Z"/><path id="DejaVuSansMono-Bold-86-2" data-name="DejaVuSansMono-Bold-86" d="M357.26,272.46l2.13-10.1h2.4l-2.87,12.09h-3.31l-2.88-12.09h2.4Z"/><path id="DejaVuSansMono-Bold-82-15" data-name="DejaVuSansMono-Bold-82" d="M378.77,268.74a1.23,1.23,0,0,1,.62.34,4.33,4.33,0,0,1,.64,1l2.19,4.35h-2.63l-1.45-3.05c-.05-.09-.1-.21-.17-.36-.43-.91-.93-1.37-1.51-1.37h-.76v4.78h-2.39V262.36h3.45a5.36,5.36,0,0,1,3.35.83,3.29,3.29,0,0,1,1,2.69,3,3,0,0,1-.6,2A2.58,2.58,0,0,1,378.77,268.74Zm-3.07-4.37v3.29h1.13a2,2,0,0,0,1.4-.38,1.66,1.66,0,0,0,.42-1.27,1.64,1.64,0,0,0-.42-1.26,2.09,2.09,0,0,0-1.4-.38Z"/><path id="DejaVuSansMono-Bold-72-9" data-name="DejaVuSansMono-Bold-72" d="M393.31,262.36h2.39V267h3v-4.61h2.39v12.09h-2.39v-5.38h-3v5.38h-2.39Z"/><path id="DejaVuSansMono-Bold-72-10" data-name="DejaVuSansMono-Bold-72" d="M413.27,262.36h2.39V267h3v-4.61H421v12.09h-2.39v-5.38h-3v5.38h-2.39Z"/></g><g id="text_92" data-name="text 92"><path id="DejaVuSans-124-31" data-name="DejaVuSans-124" d="M273.77,250.5v8.82H273V250.5Z"/></g><g id="text_93" data-name="text 93"><path id="DejaVuSans-49-12" data-name="DejaVuSans-49" d="M273.23,246.19h1.7V240.3l-1.85.38v-1l1.84-.37H276v6.84h1.7v.88h-4.44Z"/><path id="DejaVuSans-48-5" data-name="DejaVuSans-48" d="M282,240a1.3,1.3,0,0,0-1.21.79,7.31,7.31,0,0,0,0,4.77,1.33,1.33,0,0,0,2.43,0,7.14,7.14,0,0,0,0-4.77A1.3,1.3,0,0,0,282,240Zm0-.83a2.26,2.26,0,0,1,2,1,6.85,6.85,0,0,1,0,5.95,2.43,2.43,0,0,1-4,0,6.85,6.85,0,0,1,0-5.95A2.25,2.25,0,0,1,282,239.21Z"/><path id="DejaVuSans-53-10" data-name="DejaVuSans-53" d="M286.53,239.35h4.09v.88h-3.14v1.89a3,3,0,0,1,.91-.15,2.86,2.86,0,0,1,2.05.71,2.82,2.82,0,0,1,0,3.85,3.2,3.2,0,0,1-2.19.69,6.83,6.83,0,0,1-1-.08,9.17,9.17,0,0,1-1-.25v-1a3.89,3.89,0,0,0,1,.37,4,4,0,0,0,1,.13,2.06,2.06,0,0,0,1.42-.47,1.82,1.82,0,0,0,0-2.55,2,2,0,0,0-1.42-.47,4,4,0,0,0-.84.09,4.19,4.19,0,0,0-.84.29Z"/></g><g id="text_94" data-name="text 94"><path id="DejaVuSansMono-Bold-78-2" data-name="DejaVuSansMono-Bold-78" d="M430.86,262.36h2.56l3.37,8.79v-8.79h2.11v12.09h-2.55L433,265.66v8.79h-2.1Z"/><path id="DejaVuSansMono-Bold-77-3" data-name="DejaVuSansMono-Bold-77" d="M450.55,262.36h2.85l1.44,5.3,1.44-5.3h2.86v12.09h-2.05v-9.68l-1.28,5.28h-1.9l-1.3-5.28v9.68h-2.06Z"/><path id="DejaVuSansMono-Bold-72-11" data-name="DejaVuSansMono-Bold-72" d="M470.93,262.36h2.39V267h3v-4.61h2.39v12.09h-2.39v-5.38h-3v5.38h-2.39Z"/></g><g id="text_95" data-name="text 95"><path id="DejaVuSans-124-32" data-name="DejaVuSans-124" d="M431.25,250.5v8.82h-.73V250.5Z"/></g><g id="text_96" data-name="text 96"><path id="DejaVuSans-49-13" data-name="DejaVuSans-49" d="M430.71,246.19h1.71V240.3l-1.86.38v-1l1.85-.37h1v6.84h1.71v.88h-4.45Z"/><path id="DejaVuSans-49-14" data-name="DejaVuSans-49" d="M437.45,246.19h1.7V240.3l-1.85.38v-1l1.84-.37h1.05v6.84h1.7v.88h-4.44Z"/><path id="DejaVuSans-51-14" data-name="DejaVuSans-51" d="M447.16,242.91a2,2,0,0,1,1.17.67,1.87,1.87,0,0,1,.42,1.25,2.11,2.11,0,0,1-.78,1.76,3.51,3.51,0,0,1-2.24.63,4.89,4.89,0,0,1-1-.1,7.7,7.7,0,0,1-1.07-.28v-1a3.78,3.78,0,0,0,.95.38,4.34,4.34,0,0,0,1.09.13,2.43,2.43,0,0,0,1.49-.39,1.32,1.32,0,0,0,.51-1.12,1.28,1.28,0,0,0-.47-1.07,2.07,2.07,0,0,0-1.33-.39H445v-.85H446a2,2,0,0,0,1.18-.31,1.05,1.05,0,0,0,.4-.89,1.08,1.08,0,0,0-.42-.91,2,2,0,0,0-1.2-.32,4.31,4.31,0,0,0-.92.1,7.86,7.86,0,0,0-1.08.28v-.93a8.56,8.56,0,0,1,1.11-.24,5.76,5.76,0,0,1,1-.09,3,3,0,0,1,1.88.54,1.76,1.76,0,0,1,.69,1.46,1.68,1.68,0,0,1-.36,1.09A2,2,0,0,1,447.16,242.91Z"/></g><g id="text_97" data-name="text 97"><path id="DejaVuSansMono-67" class="cls-6" d="M502.06,298.27a5.68,5.68,0,0,1-1.27.5,5.77,5.77,0,0,1-1.4.17,4.34,4.34,0,0,1-3.61-1.64,9,9,0,0,1,0-9.25,4.31,4.31,0,0,1,3.6-1.65,5.78,5.78,0,0,1,1.4.16,5.68,5.68,0,0,1,1.27.5v1.68a4.29,4.29,0,0,0-1.28-.76,4,4,0,0,0-1.39-.26A2.63,2.63,0,0,0,497,289a9,9,0,0,0,0,7.43,2.63,2.63,0,0,0,2.38,1.23,4,4,0,0,0,1.4-.26,4.21,4.21,0,0,0,1.27-.75Z"/><path id="DejaVuSansMono-108" class="cls-6" d="M518.52,295.41a2.62,2.62,0,0,0,.36,1.52,1.27,1.27,0,0,0,1.09.51h1.74v1.26h-1.88a2.58,2.58,0,0,1-2.07-.85,3.66,3.66,0,0,1-.73-2.44v-8.23h-2.39V286h3.88Z"/><path id="DejaVuSansMono-111" class="cls-6" d="M528.31,290.68a1.92,1.92,0,0,0-1.71.88,6.19,6.19,0,0,0,0,5.23,1.92,1.92,0,0,0,1.71.88,1.94,1.94,0,0,0,1.73-.88,6.19,6.19,0,0,0,0-5.23A1.94,1.94,0,0,0,528.31,290.68Zm0-1.26a3.51,3.51,0,0,1,2.89,1.22,6.77,6.77,0,0,1,0,7.08,4,4,0,0,1-5.77,0,6.77,6.77,0,0,1,0-7.08A3.49,3.49,0,0,1,528.31,289.42Z"/><path id="DejaVuSansMono-111-2" data-name="DejaVuSansMono-111" class="cls-6" d="M538.3,290.68a1.92,1.92,0,0,0-1.72.88,6.19,6.19,0,0,0,0,5.23,2.12,2.12,0,0,0,3.44,0,6.19,6.19,0,0,0,0-5.23A1.92,1.92,0,0,0,538.3,290.68Zm0-1.26a3.49,3.49,0,0,1,2.88,1.22,6.77,6.77,0,0,1,0,7.08,4,4,0,0,1-5.77,0,6.82,6.82,0,0,1,0-7.08A3.51,3.51,0,0,1,538.3,289.42Z"/><path id="DejaVuSansMono-112" class="cls-6" d="M546.33,297.56v4.59h-1.5V289.63h1.5v1.16a2.56,2.56,0,0,1,1-1,2.78,2.78,0,0,1,1.43-.35,3,3,0,0,1,2.58,1.27,5.86,5.86,0,0,1,.93,3.52,5.67,5.67,0,0,1-.94,3.47,3,3,0,0,1-2.57,1.26,3,3,0,0,1-1.45-.35A2.48,2.48,0,0,1,546.33,297.56Zm4.37-3.38a5,5,0,0,0-.55-2.62,1.77,1.77,0,0,0-1.62-.88,1.83,1.83,0,0,0-1.65.89,6.47,6.47,0,0,0,0,5.22,1.84,1.84,0,0,0,1.65.88,1.77,1.77,0,0,0,1.62-.88A5,5,0,0,0,550.7,294.18Z"/></g><g id="text_98" data-name="text 98"><path id="DejaVuSans-124-33" data-name="DejaVuSans-124" d="M470.62,250.5v8.82h-.73V250.5Z"/></g><g id="text_99" data-name="text 99"><path id="DejaVuSans-49-15" data-name="DejaVuSans-49" d="M470.08,246.19h1.71V240.3l-1.86.38v-1l1.85-.37h1v6.84h1.71v.88h-4.45Z"/><path id="DejaVuSans-49-16" data-name="DejaVuSans-49" d="M476.82,246.19h1.7V240.3l-1.85.38v-1l1.84-.37h1.05v6.84h1.7v.88h-4.44Z"/><path id="DejaVuSans-53-11" data-name="DejaVuSans-53" d="M483.38,239.35h4.1v.88h-3.14v1.89a2.46,2.46,0,0,1,.45-.11,2.32,2.32,0,0,1,.46,0,2.82,2.82,0,0,1,2,.71,2.79,2.79,0,0,1,0,3.85,3.15,3.15,0,0,1-2.18.69,6.61,6.61,0,0,1-1-.08,8.25,8.25,0,0,1-1-.25v-1a3.89,3.89,0,0,0,1,.37,4,4,0,0,0,1,.13,2.06,2.06,0,0,0,1.42-.47,1.82,1.82,0,0,0,0-2.55,2,2,0,0,0-1.42-.47,4,4,0,0,0-.83.09,4.28,4.28,0,0,0-.85.29Z"/></g><text class="cls-7" transform="translate(8.19 54.59)">Wilms tumor protein<tspan x="9.97" y="24">(residue 318-438)</tspan></text></svg>