<svg id="图层_1" data-name="图层 1" xmlns="http://www.w3.org/2000/svg" xmlns:xlink="http://www.w3.org/1999/xlink" viewBox="0 0 1200 400"><defs><style>.cls-1,.cls-5{fill:none;}.cls-2{clip-path:url(#clip-path);}.cls-3,.cls-6{fill:gray;}.cls-3{stroke:gray;}.cls-4{fill:#20b2aa;stroke:#20b2aa;}.cls-5{stroke:orange;stroke-linecap:square;stroke-linejoin:round;stroke-width:2.4px;}.cls-7{font-size:20px;font-family:ArialMT, Arial;}.cls-8{letter-spacing:-0.06em;}.cls-9{letter-spacing:-0.07em;}</style><clipPath id="clip-path"><rect class="cls-1" x="172.32" y="31.77" width="1010.01" height="802.79"/></clipPath></defs><g id="patch_2" data-name="patch 2"><g class="cls-2"><path class="cls-3" d="M171.31,92H354.12V89.57H171.31Z"/></g></g><g id="patch_3" data-name="patch 3"><g class="cls-2"><path class="cls-4" d="M354.12,104h17.27V79.94H354.12Z"/></g></g><g id="patch_4" data-name="patch 4"><g class="cls-2"><path class="cls-3" d="M373.31,92h41.41V89.57H373.31Z"/></g></g><g id="patch_5" data-name="patch 5"><g class="cls-2"><path class="cls-4" d="M414.72,104H512.8V79.94H414.72Z"/></g></g><g id="patch_6" data-name="patch 6"><g class="cls-2"><path class="cls-3" d="M514.71,92h203V89.57h-203Z"/></g></g><g id="patch_7" data-name="patch 7"><g class="cls-2"><path class="cls-4" d="M717.73,104H735V79.94H717.73Z"/></g></g><g id="patch_8" data-name="patch 8"><g class="cls-2"><path class="cls-3" d="M736.92,92h364.61V89.57H736.92Z"/></g></g><g id="patch_9" data-name="patch 9"><g class="cls-2"><path class="cls-4" d="M1101.53,104h77.87V79.94h-77.87Z"/></g></g><g id="patch_10" data-name="patch 10"><g class="cls-2"><path class="cls-4" d="M172.32,184.3h17.27V160.22H172.32Z"/></g></g><g id="patch_11" data-name="patch 11"><g class="cls-2"><path class="cls-3" d="M191.51,172.26H333.92v-2.41H191.51Z"/></g></g><g id="patch_12" data-name="patch 12"><g class="cls-2"><path class="cls-4" d="M333.92,184.3H512.8V160.22H333.92Z"/></g></g><g id="patch_13" data-name="patch 13"><g class="cls-2"><path class="cls-3" d="M514.71,172.26h566.62v-2.41H514.71Z"/></g></g><g id="patch_14" data-name="patch 14"><g class="cls-2"><path class="cls-4" d="M1081.33,184.3H1139V160.22h-57.67Z"/></g></g><g id="patch_15" data-name="patch 15"><g class="cls-2"><path class="cls-3" d="M1140.92,172.26h41.41v-2.41h-41.41Z"/></g></g><g id="patch_16" data-name="patch 16"><g class="cls-2"><path class="cls-4" d="M172.32,264.58H331V240.5H172.32Z"/></g></g><g id="patch_17" data-name="patch 17"><g class="cls-2"><path class="cls-3" d="M332.91,252.54H495.52v-2.41H332.91Z"/></g></g><g id="patch_18" data-name="patch 18"><g class="cls-2"><path class="cls-4" d="M495.52,264.58H512.8V240.5H495.52Z"/></g></g><g id="patch_19" data-name="patch 19"><g class="cls-2"><path class="cls-3" d="M514.71,252.54H636.93v-2.41H514.71Z"/></g></g><g id="patch_20" data-name="patch 20"><g class="cls-2"><path class="cls-4" d="M636.93,264.58H654.2V240.5H636.93Z"/></g></g><g id="patch_21" data-name="patch 21"><g class="cls-2"><path class="cls-3" d="M656.12,252.54h61.61v-2.41H656.12Z"/></g></g><g id="patch_22" data-name="patch 22"><g class="cls-2"><path class="cls-3" d="M817.72,252.54h263.61v-2.41H817.72Z"/></g></g><g id="patch_23" data-name="patch 23"><g class="cls-2"><path class="cls-4" d="M1081.33,264.58h98.07V240.5h-98.07Z"/></g></g><g id="patch_24" data-name="patch 24"><g class="cls-2"><path class="cls-4" d="M172.32,344.86H310.79V320.78H172.32Z"/></g></g><g id="patch_25" data-name="patch 25"><g class="cls-2"><path class="cls-3" d="M312.71,332.82h61.61v-2.41H312.71Z"/></g></g><g id="patch_26" data-name="patch 26"><g class="cls-2"><path class="cls-4" d="M374.32,344.86H533V320.78H374.32Z"/></g></g><g id="patch_27" data-name="patch 27"><g class="cls-2"><path class="cls-3" d="M534.91,332.82h81.82v-2.41H534.91Z"/></g></g><g id="patch_28" data-name="patch 28"><g class="cls-2"><path class="cls-4" d="M616.73,344.86H634V320.78H616.73Z"/></g></g><g id="patch_29" data-name="patch 29"><g class="cls-2"><path class="cls-3" d="M635.92,332.82h102v-2.41h-102Z"/></g></g><g id="line2d_1" data-name="line2d 1"><g class="cls-2"><path class="cls-5" d="M720.25,252.54l1,2,1,1.88,1,1.64,1,1.28,1,.84,1,.36,1-.16,1-.67,1-1.12,1-1.52,1-1.81,1-2,1-2,1-2,1-1.74,1-1.43,1-1,1-.54,1,0,1,.48,1,1,1,1.38,1,1.71,1,1.93,1,2,.95,2,1,1.84,1,1.56,1,1.18,1,.72,1,.23,1-.29,1-.79,1-1.23,1-1.6.95-1.86,1-2,1-2,1-1.91,1-1.67,1-1.33,1-.91,1-.41,1,.09,1,.61,1,1.07,1,1.47,1,1.78,1,2,1,2,1,2,1,1.78,1,1.47,1,1.07,1,.6,1,.1,1-.41,1-.91,1-1.33,1-1.67,1-1.91,1-2,1-2,1-1.86,1-1.6.95-1.23,1-.79,1-.29,1,.23,1,.72,1,1.18,1,1.56,1,1.83,1,2,1,2,1,1.93,1,1.71,1,1.38,1,1,1,.48,1,0,1-.55,1-1,1-1.43,1-1.74,1-1.95,1-2,1-2,1-1.8,1-1.52,1-1.12,1-.67,1-.16,1,.35,1,.85.95,1.28,1,1.64,1,1.88,1,2"/></g></g><g id="text_1" data-name="text 1"><path id="DejaVuSansMono-Bold-77" d="M173.54,59.51h2.93L177.94,65l1.47-5.44h2.94v12.4h-2.1V62l-1.32,5.43h-2L175.65,62v9.94h-2.11Z"/><path id="DejaVuSansMono-Bold-75" d="M194.29,59.51h2.45v4.9l3.83-4.9h2.78l-3.91,4.88,4.05,7.52h-2.72l-2.94-5.58-1.09,1.38v4.2h-2.45Z"/><path id="DejaVuSansMono-Bold-68" d="M217.39,61.72v8h.66a2.28,2.28,0,0,0,2.06-.91,5.78,5.78,0,0,0,.62-3.1,5.71,5.71,0,0,0-.62-3.07,2.29,2.29,0,0,0-2.06-.9Zm-2.45-2.21h2.63c2,0,3.48.48,4.37,1.45s1.34,2.54,1.34,4.73-.45,3.79-1.34,4.76-2.35,1.46-4.37,1.46h-2.63Z"/><path id="DejaVuSansMono-Bold-87" d="M234.29,59.51h2.14l.89,9.1,1.07-5.89h2l1.24,5.89.7-9.1h2.16l-1.43,12.4h-2.28l-1.41-6.51-1.33,6.51h-2.26Z"/><path id="DejaVuSansMono-Bold-81" d="M260.23,72.1l-.2,0h-.15a3.67,3.67,0,0,1-3.24-1.62,8.66,8.66,0,0,1-1.1-4.81,8.66,8.66,0,0,1,1.1-4.81,4.07,4.07,0,0,1,6.51,0,8.57,8.57,0,0,1,1.11,4.81,11,11,0,0,1-.53,3.66,3.93,3.93,0,0,1-1.52,2.11L263.76,73l-1.68,1.24Zm-.34-10.62a1.45,1.45,0,0,0-1.37,1,8.7,8.7,0,0,0-.43,3.23,8.78,8.78,0,0,0,.43,3.23,1.45,1.45,0,0,0,2.75,0,8.78,8.78,0,0,0,.43-3.23,8.7,8.7,0,0,0-.43-3.23A1.45,1.45,0,0,0,259.89,61.48Z"/><path id="DejaVuSansMono-Bold-76" d="M277.13,71.91V59.51h2.45V69.75h5.24v2.16Z"/><path id="DejaVuSansMono-Bold-80" d="M299.55,61.57v3.64h1a2.68,2.68,0,0,0,1.69-.41,2.27,2.27,0,0,0,0-2.82,2.62,2.62,0,0,0-1.69-.41Zm-2.46-2.06h3.37a5.88,5.88,0,0,1,3.69.91,3.61,3.61,0,0,1,1.13,3,3.59,3.59,0,0,1-1.13,3,5.87,5.87,0,0,1-3.69.92h-.91v4.64h-2.46Z"/><path id="DejaVuSansMono-Bold-83" d="M320.47,66.47A6.39,6.39,0,0,1,318,65a3.19,3.19,0,0,1-.65-2.09,3.36,3.36,0,0,1,1.08-2.65,4.26,4.26,0,0,1,3-1,7.76,7.76,0,0,1,1.72.2,8.45,8.45,0,0,1,1.69.58v2.39a6.71,6.71,0,0,0-1.6-.85,4.89,4.89,0,0,0-1.61-.29,2.24,2.24,0,0,0-1.37.36,1.19,1.19,0,0,0-.47,1,1.13,1.13,0,0,0,.34.85,4.53,4.53,0,0,0,1.45.74l1.05.4a4.77,4.77,0,0,1,2.2,1.46,3.59,3.59,0,0,1,.71,2.28,3.46,3.46,0,0,1-1.11,2.81,5.19,5.19,0,0,1-3.35.92,7.79,7.79,0,0,1-1.85-.22,8.16,8.16,0,0,1-1.79-.65V68.74a7.83,7.83,0,0,0,1.9,1,5.08,5.08,0,0,0,1.81.34,2.09,2.09,0,0,0,1.4-.41,1.37,1.37,0,0,0,.5-1.15,1.52,1.52,0,0,0-.33-1,2.16,2.16,0,0,0-1-.66Z"/><path id="DejaVuSansMono-Bold-72" d="M337.86,59.51h2.45v4.72h3.07V59.51h2.45v12.4h-2.45V66.39h-3.07v5.52h-2.45Z"/></g><g id="text_2" data-name="text 2"><path id="DejaVuSans-124" d="M174.22,47.33v9.05h-.75V47.33Z"/></g><g id="text_3" data-name="text 3"><path id="DejaVuSans-49" d="M173.67,42.91h1.75v-6l-1.91.38v-1l1.9-.39h1.07v7h1.75v.9h-4.56Z"/></g><g id="text_4" data-name="text 4"><path id="DejaVuSansMono-Bold-83-2" data-name="DejaVuSansMono-Bold-83" d="M358.87,66.47A6.24,6.24,0,0,1,356.36,65a3.14,3.14,0,0,1-.66-2.09,3.36,3.36,0,0,1,1.08-2.65,4.27,4.27,0,0,1,3-1,7.68,7.68,0,0,1,1.71.2,8.45,8.45,0,0,1,1.69.58v2.39a6.71,6.71,0,0,0-1.6-.85,4.85,4.85,0,0,0-1.61-.29,2.26,2.26,0,0,0-1.37.36,1.19,1.19,0,0,0-.47,1,1.14,1.14,0,0,0,.35.85,4.56,4.56,0,0,0,1.44.74l1.05.4a4.77,4.77,0,0,1,2.2,1.46,3.59,3.59,0,0,1,.71,2.28,3.46,3.46,0,0,1-1.11,2.81,5.19,5.19,0,0,1-3.35.92,7.79,7.79,0,0,1-1.85-.22,8.35,8.35,0,0,1-1.79-.65V68.74a7.83,7.83,0,0,0,1.9,1,5.08,5.08,0,0,0,1.81.34,2.09,2.09,0,0,0,1.4-.41,1.37,1.37,0,0,0,.5-1.15,1.52,1.52,0,0,0-.33-1,2.16,2.16,0,0,0-1-.66Z"/></g><g id="text_5" data-name="text 5"><path id="DejaVuSans-124-2" data-name="DejaVuSans-124" d="M356,47.33v9.05h-.75V47.33Z"/></g><g id="text_6" data-name="text 6"><path id="DejaVuSans-49-2" data-name="DejaVuSans-49" d="M355.47,42.91h1.75v-6l-1.9.38v-1l1.89-.39h1.07v7H360v.9h-4.56Z"/><path id="DejaVuSans-48" d="M364.48,36.6a1.32,1.32,0,0,0-1.24.82,5.48,5.48,0,0,0-.42,2.44,5.48,5.48,0,0,0,.42,2.44,1.36,1.36,0,0,0,2.49,0,5.48,5.48,0,0,0,.42-2.44,5.48,5.48,0,0,0-.42-2.44A1.32,1.32,0,0,0,364.48,36.6Zm0-.85a2.29,2.29,0,0,1,2,1.06,5.48,5.48,0,0,1,.7,3,5.48,5.48,0,0,1-.7,3,2.48,2.48,0,0,1-4.07,0,5.48,5.48,0,0,1-.7-3,5.48,5.48,0,0,1,.7-3A2.29,2.29,0,0,1,364.48,35.75Z"/></g><g id="text_7" data-name="text 7"><path id="DejaVuSansMono-Bold-71" d="M382.07,69.67V67.3H380.4V65.24h3.82v5.68a4.94,4.94,0,0,1-1.56.92,5.25,5.25,0,0,1-1.83.31,4.48,4.48,0,0,1-3.72-1.67,7.6,7.6,0,0,1-1.31-4.76,7.44,7.44,0,0,1,1.33-4.78A4.58,4.58,0,0,1,381,59.28a4.9,4.9,0,0,1,1.47.22,5.69,5.69,0,0,1,1.36.6v2.72a3.5,3.5,0,0,0-1.19-1,3.23,3.23,0,0,0-1.46-.34A2.32,2.32,0,0,0,379,62.54a5.86,5.86,0,0,0-.69,3.18,6,6,0,0,0,.67,3.15A2.12,2.12,0,0,0,381,70a2.65,2.65,0,0,0,.67-.07A1.25,1.25,0,0,0,382.07,69.67Z"/><path id="DejaVuSansMono-Bold-80-2" data-name="DejaVuSansMono-Bold-80" d="M399.11,61.57v3.64h1a2.7,2.7,0,0,0,1.69-.41,2.31,2.31,0,0,0,0-2.82,2.63,2.63,0,0,0-1.69-.41Zm-2.45-2.06H400a5.88,5.88,0,0,1,3.69.91,3.61,3.61,0,0,1,1.12,3,3.59,3.59,0,0,1-1.12,3,5.87,5.87,0,0,1-3.69.92h-.92v4.64h-2.45Z"/></g><g id="text_8" data-name="text 8"><path id="DejaVuSans-124-3" data-name="DejaVuSans-124" d="M376.22,47.33v9.05h-.75V47.33Z"/></g><g id="text_9" data-name="text 9"><path id="DejaVuSans-49-3" data-name="DejaVuSans-49" d="M375.67,42.91h1.75v-6l-1.9.38v-1l1.89-.39h1.07v7h1.75v.9h-4.56Z"/><path id="DejaVuSans-49-4" data-name="DejaVuSans-49" d="M382.58,42.91h1.75v-6l-1.9.38v-1l1.89-.39h1.07v7h1.75v.9h-4.56Z"/></g><g id="text_10" data-name="text 10"><path id="DejaVuSansMono-Bold-89" d="M415.29,59.51h2.65l2.41,5,2.41-5h2.65L421.58,67v4.89h-2.45V67Z"/><path id="DejaVuSansMono-Bold-69" d="M444.84,71.91h-7.73V59.51h7.73v2.16h-5.28v2.67h4.78V66.5h-4.78v3.25h5.28Z"/><path id="DejaVuSansMono-Bold-76-2" data-name="DejaVuSansMono-Bold-76" d="M458.07,71.91V59.51h2.45V69.75h5.25v2.16Z"/><path id="DejaVuSansMono-Bold-82" d="M483.39,66.05a1.23,1.23,0,0,1,.64.35,4.37,4.37,0,0,1,.66,1l2.24,4.46h-2.69l-1.49-3.13c-.05-.09-.11-.21-.18-.37-.43-.93-.95-1.4-1.54-1.4h-.78v4.9H477.8V59.51h3.53a5.53,5.53,0,0,1,3.44.84,3.38,3.38,0,0,1,1,2.76,3.14,3.14,0,0,1-.62,2A2.67,2.67,0,0,1,483.39,66.05Zm-3.14-4.48V65h1.15a2.08,2.08,0,0,0,1.44-.4,2.13,2.13,0,0,0,0-2.59,2.1,2.1,0,0,0-1.44-.39Z"/><path id="DejaVuSansMono-Bold-73" d="M498.61,61.67V59.51H506v2.16h-2.46v8.08H506v2.16h-7.38V69.75h2.46V61.67Z"/></g><g id="text_11" data-name="text 11"><path id="DejaVuSans-124-4" data-name="DejaVuSans-124" d="M416.62,47.33v9.05h-.75V47.33Z"/></g><g id="text_12" data-name="text 12"><path id="DejaVuSans-49-5" data-name="DejaVuSans-49" d="M416.07,42.91h1.75v-6l-1.9.38v-1l1.89-.39h1.07v7h1.75v.9h-4.56Z"/><path id="DejaVuSans-51" d="M426,39.54a2.07,2.07,0,0,1,1.2.69,1.91,1.91,0,0,1,.43,1.28,2.22,2.22,0,0,1-.8,1.82,3.65,3.65,0,0,1-2.29.64,6.09,6.09,0,0,1-1-.1,8.54,8.54,0,0,1-1.09-.3v-1a3.86,3.86,0,0,0,1,.39,4.44,4.44,0,0,0,1.11.13,2.54,2.54,0,0,0,1.53-.39,1.37,1.37,0,0,0,.53-1.16,1.33,1.33,0,0,0-.49-1.09,2.11,2.11,0,0,0-1.37-.4h-.92v-.88h1a2,2,0,0,0,1.21-.31,1.09,1.09,0,0,0,.42-.91A1.1,1.1,0,0,0,426,37a2,2,0,0,0-1.24-.33,5.38,5.38,0,0,0-.94.1,7.15,7.15,0,0,0-1.11.3v-1a9.91,9.91,0,0,1,1.14-.25,6.1,6.1,0,0,1,1-.09,3.08,3.08,0,0,1,1.93.56,1.79,1.79,0,0,1,.71,1.49,1.73,1.73,0,0,1-.38,1.12A1.94,1.94,0,0,1,426,39.54Z"/></g><g id="text_13" data-name="text 13"><path id="DejaVuSansMono-Bold-69-2" data-name="DejaVuSansMono-Bold-69" d="M525.35,71.91h-7.72V59.51h7.72v2.16h-5.27v2.67h4.77V66.5h-4.77v3.25h5.27Z"/><path id="DejaVuSansMono-Bold-86" d="M541.83,69.87,544,59.51h2.47l-3,12.4h-3.4l-2.95-12.4h2.47Z"/><path id="DejaVuSansMono-Bold-81-2" data-name="DejaVuSansMono-Bold-81" d="M562.65,72.1l-.19,0h-.15a3.66,3.66,0,0,1-3.24-1.62,8.66,8.66,0,0,1-1.1-4.81,8.66,8.66,0,0,1,1.1-4.81,4.07,4.07,0,0,1,6.51,0,8.58,8.58,0,0,1,1.1,4.81,11,11,0,0,1-.52,3.66,4,4,0,0,1-1.52,2.11L566.18,73l-1.67,1.24Zm-.33-10.62a1.45,1.45,0,0,0-1.37,1,8.7,8.7,0,0,0-.43,3.23A8.78,8.78,0,0,0,561,69a1.45,1.45,0,0,0,2.75,0,8.78,8.78,0,0,0,.43-3.23,8.7,8.7,0,0,0-.43-3.23A1.45,1.45,0,0,0,562.32,61.48Z"/><path id="DejaVuSansMono-Bold-80-3" data-name="DejaVuSansMono-Bold-80" d="M581.49,61.57v3.64h1a2.68,2.68,0,0,0,1.69-.41,2.27,2.27,0,0,0,0-2.82,2.62,2.62,0,0,0-1.69-.41ZM579,59.51h3.36a5.88,5.88,0,0,1,3.69.91,3.61,3.61,0,0,1,1.13,3,3.59,3.59,0,0,1-1.13,3,5.87,5.87,0,0,1-3.69.92h-.91v4.64H579Z"/><path id="DejaVuSansMono-Bold-75-2" data-name="DejaVuSansMono-Bold-75" d="M599.15,59.51h2.45v4.9l3.84-4.9h2.77l-3.91,4.88,4.05,7.52h-2.72l-2.94-5.58-1.09,1.38v4.2h-2.45Z"/><path id="DejaVuSansMono-Bold-83-3" data-name="DejaVuSansMono-Bold-83" d="M622.9,66.47A6.39,6.39,0,0,1,620.39,65a3.19,3.19,0,0,1-.65-2.09,3.36,3.36,0,0,1,1.08-2.65,4.26,4.26,0,0,1,3-1,7.68,7.68,0,0,1,1.71.2,8.33,8.33,0,0,1,1.7.58v2.39a6.71,6.71,0,0,0-1.6-.85,4.91,4.91,0,0,0-1.62-.29,2.22,2.22,0,0,0-1.36.36,1.17,1.17,0,0,0-.47,1,1.13,1.13,0,0,0,.34.85,4.56,4.56,0,0,0,1.44.74l1.06.4a4.77,4.77,0,0,1,2.2,1.46,3.59,3.59,0,0,1,.71,2.28,3.46,3.46,0,0,1-1.11,2.81,5.19,5.19,0,0,1-3.35.92,7.73,7.73,0,0,1-1.85-.22,8.16,8.16,0,0,1-1.79-.65V68.74a7.65,7.65,0,0,0,1.9,1,5.08,5.08,0,0,0,1.81.34,2.11,2.11,0,0,0,1.4-.41,1.37,1.37,0,0,0,.5-1.15,1.52,1.52,0,0,0-.33-1,2.16,2.16,0,0,0-1-.66Z"/><path id="DejaVuSansMono-Bold-72-2" data-name="DejaVuSansMono-Bold-72" d="M640.29,59.51h2.45v4.72h3.07V59.51h2.45v12.4h-2.45V66.39h-3.07v5.52h-2.45Z"/><path id="DejaVuSansMono-Bold-72-3" data-name="DejaVuSansMono-Bold-72" d="M660.78,59.51h2.45v4.72h3.06V59.51h2.45v12.4h-2.45V66.39h-3.06v5.52h-2.45Z"/><path id="DejaVuSansMono-Bold-82-2" data-name="DejaVuSansMono-Bold-82" d="M686.83,66.05a1.27,1.27,0,0,1,.64.35,4.37,4.37,0,0,1,.66,1l2.24,4.46h-2.69l-1.5-3.13-.17-.37c-.44-.93-1-1.4-1.55-1.4h-.78v4.9h-2.45V59.51h3.54a5.53,5.53,0,0,1,3.44.84,3.38,3.38,0,0,1,1,2.76,3.14,3.14,0,0,1-.62,2A2.69,2.69,0,0,1,686.83,66.05Zm-3.15-4.48V65h1.16a2.08,2.08,0,0,0,1.44-.4,2.17,2.17,0,0,0,0-2.59,2.14,2.14,0,0,0-1.44-.39Z"/><path id="DejaVuSansMono-Bold-65" d="M705.73,61.75l-1.15,5.07h2.32Zm-1.49-2.24h3l3.34,12.4h-2.45l-.76-3.06h-3.28l-.75,3.06h-2.45Z"/></g><g id="text_14" data-name="text 14"><path id="DejaVuSans-124-5" data-name="DejaVuSans-124" d="M517.62,47.33v9.05h-.75V47.33Z"/></g><g id="text_15" data-name="text 15"><path id="DejaVuSans-49-6" data-name="DejaVuSans-49" d="M517.07,42.91h1.75v-6l-1.9.38v-1l1.89-.39h1.07v7h1.75v.9h-4.56Z"/><path id="DejaVuSans-56" d="M526.09,40.05a1.74,1.74,0,0,0-1.21.41,1.69,1.69,0,0,0,0,2.25,1.74,1.74,0,0,0,1.21.41,1.71,1.71,0,0,0,1.2-.41,1.49,1.49,0,0,0,.44-1.13,1.47,1.47,0,0,0-.44-1.12A1.69,1.69,0,0,0,526.09,40.05ZM525,39.6a2,2,0,0,1-1.07-.64,1.76,1.76,0,0,1-.38-1.16,1.84,1.84,0,0,1,.67-1.5,3.4,3.4,0,0,1,3.71,0,1.84,1.84,0,0,1,.68,1.5,1.77,1.77,0,0,1-.39,1.16,2,2,0,0,1-1.07.64,2.13,2.13,0,0,1,1.21.7,1.94,1.94,0,0,1,.43,1.28,2.22,2.22,0,0,1-.7,1.77,3.58,3.58,0,0,1-4,0,2.22,2.22,0,0,1-.7-1.77,2,2,0,0,1,.43-1.28A2.2,2.2,0,0,1,525,39.6Zm-.39-1.69a1.19,1.19,0,0,0,.39,1,1.83,1.83,0,0,0,2.15,0,1.34,1.34,0,0,0,0-1.91A1.83,1.83,0,0,0,525,37,1.2,1.2,0,0,0,524.62,37.91Z"/></g><g id="text_16" data-name="text 16"><path id="DejaVuSansMono-Bold-82-3" data-name="DejaVuSansMono-Bold-82" d="M724.94,66.05a1.24,1.24,0,0,1,.63.35,4.37,4.37,0,0,1,.66,1l2.24,4.46h-2.69l-1.49-3.13c0-.09-.1-.21-.18-.37-.43-.93-1-1.4-1.54-1.4h-.78v4.9h-2.45V59.51h3.54a5.5,5.5,0,0,1,3.43.84,3.38,3.38,0,0,1,1,2.76,3.14,3.14,0,0,1-.62,2A2.65,2.65,0,0,1,724.94,66.05Zm-3.15-4.48V65h1.15a2.08,2.08,0,0,0,1.44-.4,1.67,1.67,0,0,0,.44-1.3,1.7,1.7,0,0,0-.43-1.29,2.15,2.15,0,0,0-1.45-.39Z"/></g><g id="text_17" data-name="text 17"><path id="DejaVuSans-124-6" data-name="DejaVuSans-124" d="M719.63,47.33v9.05h-.75V47.33Z"/></g><g id="text_18" data-name="text 18"><path id="DejaVuSans-50" d="M719.81,42.91h3.74v.9h-5v-.9l1.66-1.69c.71-.71,1.15-1.17,1.33-1.37a5.12,5.12,0,0,0,.71-1,1.7,1.7,0,0,0,.21-.79,1.34,1.34,0,0,0-.44-1,1.7,1.7,0,0,0-1.16-.4,3.47,3.47,0,0,0-1.06.18,6.05,6.05,0,0,0-1.2.53V36.28a8.51,8.51,0,0,1,1.21-.4,5.08,5.08,0,0,1,1-.13,2.93,2.93,0,0,1,2,.62,2,2,0,0,1,.74,1.64,2.41,2.41,0,0,1-.19.93,4.53,4.53,0,0,1-.66,1c-.09.1-.37.4-.85.89Z"/><path id="DejaVuSans-56-2" data-name="DejaVuSans-56" d="M728.09,40.05a1.69,1.69,0,0,0-1.2.41,1.66,1.66,0,0,0,0,2.25,2,2,0,0,0,2.4,0,1.49,1.49,0,0,0,.44-1.13,1.43,1.43,0,0,0-.44-1.12A1.69,1.69,0,0,0,728.09,40.05ZM727,39.6a2,2,0,0,1-1.08-.64,1.82,1.82,0,0,1-.38-1.16,1.84,1.84,0,0,1,.67-1.5,2.92,2.92,0,0,1,1.86-.55,2.87,2.87,0,0,1,1.85.55,1.84,1.84,0,0,1,.68,1.5,1.77,1.77,0,0,1-.39,1.16,2,2,0,0,1-1.07.64,2.13,2.13,0,0,1,1.21.7,1.94,1.94,0,0,1,.43,1.28,2.22,2.22,0,0,1-.7,1.77,3.58,3.58,0,0,1-4,0,2.25,2.25,0,0,1-.7-1.77,2,2,0,0,1,.44-1.28A2.13,2.13,0,0,1,727,39.6Zm-.4-1.69a1.19,1.19,0,0,0,.39,1,1.54,1.54,0,0,0,1.08.35,1.58,1.58,0,0,0,1.08-.35,1.36,1.36,0,0,0,0-1.91,1.58,1.58,0,0,0-1.08-.35A1.54,1.54,0,0,0,727,37,1.2,1.2,0,0,0,726.62,37.91Z"/></g><g id="text_19" data-name="text 19"><path id="DejaVuSansMono-Bold-89-2" data-name="DejaVuSansMono-Bold-89" d="M738.5,59.51h2.64l2.41,5,2.42-5h2.64L744.78,67v4.89h-2.45V67Z"/><path id="DejaVuSansMono-Bold-69-3" data-name="DejaVuSansMono-Bold-69" d="M768,71.91h-7.73V59.51H768v2.16h-5.27v2.67h4.77V66.5h-4.77v3.25H768Z"/><path id="DejaVuSansMono-Bold-84" d="M785.75,71.91H783.3V61.65h-3.15V59.51h8.75v2.14h-3.15Z"/><path id="DejaVuSansMono-Bold-69-4" data-name="DejaVuSansMono-Bold-69" d="M809,71.91h-7.72V59.51H809v2.16h-5.27v2.67h4.78V66.5h-4.78v3.25H809Z"/><path id="DejaVuSansMono-Bold-71-2" data-name="DejaVuSansMono-Bold-71" d="M827.62,69.67V67.3H826V65.24h3.82v5.68a4.94,4.94,0,0,1-1.56.92,5.23,5.23,0,0,1-1.82.31,4.49,4.49,0,0,1-3.73-1.67,7.6,7.6,0,0,1-1.31-4.76,7.44,7.44,0,0,1,1.33-4.78,4.59,4.59,0,0,1,3.82-1.66,4.9,4.9,0,0,1,1.47.22,5.52,5.52,0,0,1,1.36.6v2.72a3.5,3.5,0,0,0-1.19-1,3.23,3.23,0,0,0-1.46-.34,2.32,2.32,0,0,0-2.09,1.06,5.86,5.86,0,0,0-.69,3.18,6,6,0,0,0,.67,3.15A2.13,2.13,0,0,0,826.5,70a2.65,2.65,0,0,0,.67-.07A1.25,1.25,0,0,0,827.62,69.67Z"/><path id="DejaVuSansMono-Bold-83-4" data-name="DejaVuSansMono-Bold-83" d="M845.1,66.47A6.39,6.39,0,0,1,842.59,65a3.19,3.19,0,0,1-.65-2.09A3.36,3.36,0,0,1,843,60.25a4.26,4.26,0,0,1,3-1,7.7,7.7,0,0,1,1.72.2,8.45,8.45,0,0,1,1.69.58v2.39a6.71,6.71,0,0,0-1.6-.85,4.89,4.89,0,0,0-1.61-.29,2.24,2.24,0,0,0-1.37.36,1.19,1.19,0,0,0-.47,1,1.13,1.13,0,0,0,.34.85,4.65,4.65,0,0,0,1.45.74l1,.4a4.77,4.77,0,0,1,2.2,1.46,3.59,3.59,0,0,1,.71,2.28A3.46,3.46,0,0,1,849,71.23a5.19,5.19,0,0,1-3.35.92,7.79,7.79,0,0,1-1.85-.22,8.16,8.16,0,0,1-1.79-.65V68.74a7.83,7.83,0,0,0,1.9,1,5.08,5.08,0,0,0,1.81.34,2.09,2.09,0,0,0,1.4-.41,1.37,1.37,0,0,0,.5-1.15,1.52,1.52,0,0,0-.33-1,2.16,2.16,0,0,0-1-.66Z"/><path id="DejaVuSansMono-Bold-82-4" data-name="DejaVuSansMono-Bold-82" d="M868.06,66.05a1.24,1.24,0,0,1,.63.35,4.37,4.37,0,0,1,.66,1l2.25,4.46h-2.69l-1.5-3.13-.17-.37c-.44-.93-1-1.4-1.55-1.4h-.78v4.9h-2.45V59.51H866a5.5,5.5,0,0,1,3.43.84,3.36,3.36,0,0,1,1.05,2.76,3.09,3.09,0,0,1-.63,2A2.65,2.65,0,0,1,868.06,66.05Zm-3.15-4.48V65h1.15a2.11,2.11,0,0,0,1.45-.4,2.17,2.17,0,0,0,0-2.59,2.15,2.15,0,0,0-1.45-.39Z"/><path id="DejaVuSansMono-Bold-71-3" data-name="DejaVuSansMono-Bold-71" d="M889.09,69.67V67.3h-1.68V65.24h3.82v5.68a4.94,4.94,0,0,1-1.56.92,5.19,5.19,0,0,1-1.82.31,4.49,4.49,0,0,1-3.73-1.67,7.6,7.6,0,0,1-1.31-4.76,7.5,7.5,0,0,1,1.33-4.78A4.59,4.59,0,0,1,888,59.28a4.9,4.9,0,0,1,1.47.22,5.36,5.36,0,0,1,1.36.6v2.72a3.41,3.41,0,0,0-1.19-1,3.23,3.23,0,0,0-1.46-.34,2.32,2.32,0,0,0-2.09,1.06,5.86,5.86,0,0,0-.69,3.18,6.1,6.1,0,0,0,.67,3.15A2.13,2.13,0,0,0,888,70a2.65,2.65,0,0,0,.67-.07A1.31,1.31,0,0,0,889.09,69.67Z"/><path id="DejaVuSansMono-Bold-65-2" data-name="DejaVuSansMono-Bold-65" d="M907.45,61.75l-1.16,5.07h2.32ZM906,59.51h3l3.35,12.4h-2.45l-.77-3.06H905.8l-.75,3.06H902.6Z"/><path id="DejaVuSansMono-Bold-86-2" data-name="DejaVuSansMono-Bold-86" d="M927.93,69.87l2.19-10.36h2.47l-3,12.4h-3.4l-3-12.4h2.47Z"/><path id="DejaVuSansMono-Bold-75-3" data-name="DejaVuSansMono-Bold-75" d="M944.28,59.51h2.45v4.9l3.83-4.9h2.78l-3.91,4.88,4.05,7.52h-2.73l-2.94-5.58-1.08,1.38v4.2h-2.45Z"/><path id="DejaVuSansMono-Bold-65-3" data-name="DejaVuSansMono-Bold-65" d="M968.91,61.75l-1.16,5.07h2.32Zm-1.5-2.24h3l3.35,12.4h-2.45l-.76-3.06h-3.29l-.75,3.06h-2.45Z"/><path id="DejaVuSansMono-Bold-83-5" data-name="DejaVuSansMono-Bold-83" d="M988.51,66.47A6.26,6.26,0,0,1,986,65a3.14,3.14,0,0,1-.66-2.09,3.36,3.36,0,0,1,1.08-2.65,4.26,4.26,0,0,1,3-1,7.7,7.7,0,0,1,1.72.2,8.45,8.45,0,0,1,1.69.58v2.39a6.71,6.71,0,0,0-1.6-.85,4.89,4.89,0,0,0-1.61-.29,2.24,2.24,0,0,0-1.37.36,1.19,1.19,0,0,0-.47,1,1.13,1.13,0,0,0,.34.85,4.77,4.77,0,0,0,1.45.74l1.05.4a4.77,4.77,0,0,1,2.2,1.46,3.59,3.59,0,0,1,.71,2.28,3.46,3.46,0,0,1-1.11,2.81,5.19,5.19,0,0,1-3.35.92,7.79,7.79,0,0,1-1.85-.22,8.16,8.16,0,0,1-1.79-.65V68.74a7.83,7.83,0,0,0,1.9,1,5.08,5.08,0,0,0,1.81.34,2.09,2.09,0,0,0,1.4-.41,1.37,1.37,0,0,0,.5-1.15,1.52,1.52,0,0,0-.33-1,2.16,2.16,0,0,0-1-.66Z"/><path id="DejaVuSansMono-Bold-65-4" data-name="DejaVuSansMono-Bold-65" d="M1009.88,61.75l-1.15,5.07h2.32Zm-1.49-2.24h3l3.34,12.4h-2.45l-.76-3.06h-3.28l-.75,3.06H1005Z"/><path id="DejaVuSansMono-Bold-71-4" data-name="DejaVuSansMono-Bold-71" d="M1032.5,69.67V67.3h-1.68V65.24h3.82v5.68a4.94,4.94,0,0,1-1.56.92,5.19,5.19,0,0,1-1.82.31,4.49,4.49,0,0,1-3.73-1.67,7.6,7.6,0,0,1-1.31-4.76,7.5,7.5,0,0,1,1.33-4.78,4.59,4.59,0,0,1,3.82-1.66,4.9,4.9,0,0,1,1.47.22,5.36,5.36,0,0,1,1.36.6v2.72a3.41,3.41,0,0,0-1.19-1,3.23,3.23,0,0,0-1.46-.34,2.32,2.32,0,0,0-2.09,1.06,5.86,5.86,0,0,0-.69,3.18,6.1,6.1,0,0,0,.67,3.15,2.13,2.13,0,0,0,1.93,1.08,2.65,2.65,0,0,0,.67-.07A1.31,1.31,0,0,0,1032.5,69.67Z"/><path id="DejaVuSansMono-Bold-71-5" data-name="DejaVuSansMono-Bold-71" d="M1053,69.67V67.3h-1.67V65.24h3.82v5.68a4.94,4.94,0,0,1-1.56.92,5.25,5.25,0,0,1-1.83.31,4.48,4.48,0,0,1-3.72-1.67,7.6,7.6,0,0,1-1.31-4.76,7.44,7.44,0,0,1,1.33-4.78,4.59,4.59,0,0,1,3.82-1.66,4.9,4.9,0,0,1,1.47.22,5.52,5.52,0,0,1,1.36.6v2.72a3.5,3.5,0,0,0-1.19-1,3.23,3.23,0,0,0-1.46-.34,2.32,2.32,0,0,0-2.09,1.06,5.86,5.86,0,0,0-.69,3.18,6,6,0,0,0,.67,3.15,2.12,2.12,0,0,0,1.93,1.08,2.65,2.65,0,0,0,.67-.07A1.25,1.25,0,0,0,1053,69.67Z"/><path id="DejaVuSansMono-Bold-72-4" data-name="DejaVuSansMono-Bold-72" d="M1067.36,59.51h2.45v4.72h3.07V59.51h2.45v12.4h-2.45V66.39h-3.07v5.52h-2.45Z"/><path id="DejaVuSansMono-Bold-80-4" data-name="DejaVuSansMono-Bold-80" d="M1090.51,61.57v3.64h1a2.66,2.66,0,0,0,1.69-.41,2.27,2.27,0,0,0,0-2.82,2.6,2.6,0,0,0-1.69-.41Zm-2.45-2.06h3.36a5.89,5.89,0,0,1,3.7.91,3.61,3.61,0,0,1,1.12,3,3.59,3.59,0,0,1-1.12,3,5.89,5.89,0,0,1-3.7.92h-.91v4.64h-2.45Z"/></g><g id="text_20" data-name="text 20"><path id="DejaVuSans-124-7" data-name="DejaVuSans-124" d="M739.83,47.33v9.05h-.75V47.33Z"/></g><g id="text_21" data-name="text 21"><path id="DejaVuSans-50-2" data-name="DejaVuSans-50" d="M740,42.91h3.74v.9h-5v-.9l1.66-1.69c.71-.71,1.15-1.17,1.33-1.37a5.12,5.12,0,0,0,.71-1,1.7,1.7,0,0,0,.21-.79,1.34,1.34,0,0,0-.44-1,1.7,1.7,0,0,0-1.16-.4,3.47,3.47,0,0,0-1.06.18,6.05,6.05,0,0,0-1.2.53V36.28a8.51,8.51,0,0,1,1.21-.4,5.08,5.08,0,0,1,1-.13,2.93,2.93,0,0,1,2,.62,2,2,0,0,1,.74,1.64,2.41,2.41,0,0,1-.19.93,4.53,4.53,0,0,1-.66,1c-.09.1-.37.4-.85.89Z"/><path id="DejaVuSans-57" d="M746,43.65v-1a3.75,3.75,0,0,0,.81.29,3.34,3.34,0,0,0,.82.1,1.94,1.94,0,0,0,1.62-.71,3.91,3.91,0,0,0,.64-2.17,2.2,2.2,0,0,1-.78.71,2.31,2.31,0,0,1-1,.24,2.49,2.49,0,0,1-1.88-.72,2.71,2.71,0,0,1-.69-2,2.67,2.67,0,0,1,.72-2,2.57,2.57,0,0,1,1.92-.74,2.37,2.37,0,0,1,2.1,1.06,5.39,5.39,0,0,1,.72,3,4.61,4.61,0,0,1-.89,3A2.89,2.89,0,0,1,747.71,44a4.56,4.56,0,0,1-.82-.08A8,8,0,0,1,746,43.65Zm2.13-3.36a1.41,1.41,0,0,0,1.14-.49,2.38,2.38,0,0,0,0-2.7,1.55,1.55,0,0,0-2.28,0,2.38,2.38,0,0,0,0,2.7A1.41,1.41,0,0,0,748.16,40.29Z"/></g><g id="text_22" data-name="text 22"><path id="DejaVuSansMono-Bold-73-2" data-name="DejaVuSansMono-Bold-73" d="M1103.46,61.67V59.51h7.39v2.16h-2.47v8.08h2.47v2.16h-7.39V69.75h2.47V61.67Z"/><path id="DejaVuSansMono-Bold-86-3" data-name="DejaVuSansMono-Bold-86" d="M1127.64,69.87l2.18-10.36h2.47l-3,12.4H1126l-3-12.4h2.47Z"/><path id="DejaVuSansMono-Bold-81-3" data-name="DejaVuSansMono-Bold-81" d="M1148.46,72.1l-.2,0h-.15a3.68,3.68,0,0,1-3.24-1.62,8.66,8.66,0,0,1-1.1-4.81,8.66,8.66,0,0,1,1.1-4.81,4.07,4.07,0,0,1,6.52,0,8.66,8.66,0,0,1,1.1,4.81,11,11,0,0,1-.53,3.66,3.88,3.88,0,0,1-1.52,2.11L1152,73l-1.68,1.24Zm-.33-10.62a1.45,1.45,0,0,0-1.38,1,8.92,8.92,0,0,0-.43,3.23,9,9,0,0,0,.43,3.23,1.44,1.44,0,0,0,1.38,1,1.42,1.42,0,0,0,1.37-1,8.73,8.73,0,0,0,.44-3.23,8.66,8.66,0,0,0-.44-3.23A1.43,1.43,0,0,0,1148.13,61.48Z"/><path id="DejaVuSansMono-Bold-76-3" data-name="DejaVuSansMono-Bold-76" d="M1165.36,71.91V59.51h2.46V69.75h5.24v2.16Z"/></g><g id="text_23" data-name="text 23"><path id="DejaVuSans-124-8" data-name="DejaVuSans-124" d="M1103.43,47.33v9.05h-.75V47.33Z"/></g><g id="text_24" data-name="text 24"><path id="DejaVuSans-52" d="M1105.63,36.83l-2.7,4.23h2.7Zm-.28-.94h1.35v5.17h1.13V42h-1.13v1.86h-1.07V42h-3.57v-1Z"/><path id="DejaVuSans-55" d="M1109.33,35.89h5.09v.46l-2.87,7.46h-1.12l2.7-7h-3.8Z"/></g><g id="text_25" data-name="text 25"><path id="DejaVuSansMono-Bold-72-5" data-name="DejaVuSansMono-Bold-72" d="M174,139.79h2.46v4.72h3.06v-4.72h2.45v12.4h-2.45v-5.52h-3.06v5.52H174Z"/></g><g id="text_26" data-name="text 26"><path id="DejaVuSans-124-9" data-name="DejaVuSans-124" d="M174.22,127.61v9h-.75v-9Z"/></g><g id="text_27" data-name="text 27"><path id="DejaVuSans-53" d="M173.49,116.17h4.21v.91h-3.23V119a2,2,0,0,1,.47-.12,2.49,2.49,0,0,1,.47,0,3,3,0,0,1,2.1.72,2.6,2.6,0,0,1,.77,2,2.53,2.53,0,0,1-.79,2,3.28,3.28,0,0,1-2.25.71,5.83,5.83,0,0,1-1-.09,7.48,7.48,0,0,1-1.07-.25v-1.08a4.07,4.07,0,0,0,2.06.51,2.08,2.08,0,0,0,1.45-.48,1.86,1.86,0,0,0,0-2.62,2.08,2.08,0,0,0-1.45-.48,4.26,4.26,0,0,0-.86.09,5.63,5.63,0,0,0-.87.3Z"/><path id="DejaVuSans-49-7" data-name="DejaVuSans-49" d="M180.58,123.19h1.75v-6l-1.91.38v-1l1.9-.39h1.07v7h1.75v.9h-4.56Z"/></g><g id="text_28" data-name="text 28"><path id="DejaVuSansMono-Bold-71-6" data-name="DejaVuSansMono-Bold-71" d="M200.27,150v-2.37h-1.68v-2.06h3.82v5.68a5,5,0,0,1-3.38,1.23,4.48,4.48,0,0,1-3.72-1.67A7.62,7.62,0,0,1,194,146a7.5,7.5,0,0,1,1.32-4.78,4.61,4.61,0,0,1,3.83-1.66,5.22,5.22,0,0,1,1.47.21,5.72,5.72,0,0,1,1.36.61v2.72a3.5,3.5,0,0,0-1.19-1,3.28,3.28,0,0,0-1.47-.34,2.3,2.3,0,0,0-2.08,1.06,5.86,5.86,0,0,0-.69,3.18,6.11,6.11,0,0,0,.66,3.15,2.15,2.15,0,0,0,1.94,1.08,3.11,3.11,0,0,0,.66-.07A1.31,1.31,0,0,0,200.27,150Z"/><path id="DejaVuSansMono-Bold-89-3" data-name="DejaVuSansMono-Bold-89" d="M213.58,139.79h2.64l2.41,5,2.42-5h2.64l-3.83,7.51v4.89h-2.45V147.3Z"/><path id="DejaVuSansMono-Bold-76-4" data-name="DejaVuSansMono-Bold-76" d="M235.87,152.19v-12.4h2.45V150h5.24v2.16Z"/><path id="DejaVuSansMono-Bold-69-5" data-name="DejaVuSansMono-Bold-69" d="M263.61,152.19h-7.73v-12.4h7.73V142h-5.27v2.67h4.77v2.16h-4.77V150h5.27Z"/><path id="DejaVuSansMono-Bold-78" d="M276,139.79h2.64l3.45,9v-9h2.16v12.4H281.6l-3.48-9v9H276Z"/><path id="DejaVuSansMono-Bold-69-6" data-name="DejaVuSansMono-Bold-69" d="M304.58,152.19h-7.72v-12.4h7.72V142h-5.27v2.67h4.78v2.16h-4.78V150h5.27Z"/><path id="DejaVuSansMono-Bold-80-5" data-name="DejaVuSansMono-Bold-80" d="M319.75,141.85v3.64h1a2.68,2.68,0,0,0,1.69-.41,1.73,1.73,0,0,0,.49-1.41,1.77,1.77,0,0,0-.49-1.42,2.69,2.69,0,0,0-1.69-.4Zm-2.46-2.06h3.37a5.88,5.88,0,0,1,3.69.91,4.45,4.45,0,0,1,0,5.93,5.87,5.87,0,0,1-3.69.92h-.91v4.64h-2.46Z"/></g><g id="text_29" data-name="text 29"><path id="DejaVuSans-124-10" data-name="DejaVuSans-124" d="M194.42,127.61v9h-.75v-9Z"/></g><g id="text_30" data-name="text 30"><path id="DejaVuSans-53-2" data-name="DejaVuSans-53" d="M193.69,116.17h4.21v.91h-3.22V119a2,2,0,0,1,.46-.12,2.49,2.49,0,0,1,.47,0,3,3,0,0,1,2.1.72,2.6,2.6,0,0,1,.77,2,2.53,2.53,0,0,1-.79,2,3.28,3.28,0,0,1-2.25.71,5.83,5.83,0,0,1-1-.09,7.48,7.48,0,0,1-1.07-.25v-1.08a4.07,4.07,0,0,0,2.06.51,2.08,2.08,0,0,0,1.45-.48,1.86,1.86,0,0,0,0-2.62,2.08,2.08,0,0,0-1.45-.48,4.26,4.26,0,0,0-.86.09,5.63,5.63,0,0,0-.87.3Z"/><path id="DejaVuSans-50-3" data-name="DejaVuSans-50" d="M201.52,123.19h3.73v.9h-5v-.9c.4-.42,1-1,1.66-1.69s1.14-1.17,1.32-1.38a5.38,5.38,0,0,0,.72-1,1.7,1.7,0,0,0,.21-.79,1.32,1.32,0,0,0-.45-1,1.67,1.67,0,0,0-1.15-.4,3.53,3.53,0,0,0-1.07.18,5.75,5.75,0,0,0-1.19.53v-1.08a7.76,7.76,0,0,1,1.21-.4,5,5,0,0,1,1-.13,3,3,0,0,1,2,.62,2,2,0,0,1,.73,1.64,2.44,2.44,0,0,1-.18.93,4.62,4.62,0,0,1-.67,1l-.84.89Z"/></g><g id="text_31" data-name="text 31"><path id="DejaVuSansMono-Bold-76-5" data-name="DejaVuSansMono-Bold-76" d="M336.3,152.19v-12.4h2.45V150H344v2.16Z"/><path id="DejaVuSansMono-Bold-77-2" data-name="DejaVuSansMono-Bold-77" d="M355.63,139.79h2.92l1.48,5.44,1.47-5.44h2.94v12.4h-2.11v-9.94L361,147.68h-1.95l-1.33-5.43v9.94h-2.11Z"/><path id="DejaVuSansMono-Bold-76-6" data-name="DejaVuSansMono-Bold-76" d="M377.27,152.19v-12.4h2.45V150H385v2.16Z"/><path id="DejaVuSansMono-Bold-81-4" data-name="DejaVuSansMono-Bold-81" d="M401.34,152.38l-.2,0H401a3.64,3.64,0,0,1-3.23-1.63,11,11,0,0,1,0-9.61,4.07,4.07,0,0,1,6.51,0,8.66,8.66,0,0,1,1.1,4.81,11.26,11.26,0,0,1-.52,3.66,4,4,0,0,1-1.52,2.11l1.54,1.51-1.68,1.24ZM401,141.76a1.43,1.43,0,0,0-1.37,1,12.08,12.08,0,0,0,0,6.46,1.44,1.44,0,0,0,2.74,0,12.08,12.08,0,0,0,0-6.46A1.43,1.43,0,0,0,401,141.76Z"/><path id="DejaVuSansMono-Bold-76-7" data-name="DejaVuSansMono-Bold-76" d="M418.25,152.19v-12.4h2.45V150h5.24v2.16Z"/><path id="DejaVuSansMono-Bold-70" d="M446.1,142h-5.27v2.67h4.8v2.16h-4.8v5.41h-2.45v-12.4h7.72Z"/><path id="DejaVuSansMono-Bold-73-3" data-name="DejaVuSansMono-Bold-73" d="M458.78,142v-2.16h7.39V142H463.7V150h2.47v2.16h-7.39V150h2.47V142Z"/><path id="DejaVuSansMono-Bold-71-7" data-name="DejaVuSansMono-Bold-71" d="M485.08,150v-2.37H483.4v-2.06h3.83v5.68a5.14,5.14,0,0,1-1.56.92,5.25,5.25,0,0,1-1.83.31,4.48,4.48,0,0,1-3.72-1.67,7.62,7.62,0,0,1-1.31-4.76,7.5,7.5,0,0,1,1.32-4.78,4.61,4.61,0,0,1,3.83-1.66,5.22,5.22,0,0,1,1.47.21,5.72,5.72,0,0,1,1.36.61v2.72a3.5,3.5,0,0,0-1.19-1,3.23,3.23,0,0,0-1.46-.34,2.32,2.32,0,0,0-2.09,1.06,5.86,5.86,0,0,0-.69,3.18,6,6,0,0,0,.67,3.15,2.12,2.12,0,0,0,1.93,1.08,3.21,3.21,0,0,0,.67-.07A1.25,1.25,0,0,0,485.08,150Z"/><path id="DejaVuSansMono-Bold-84-2" data-name="DejaVuSansMono-Bold-84" d="M504.67,152.19h-2.45V141.93h-3.15v-2.14h8.75v2.14h-3.15Z"/></g><g id="text_32" data-name="text 32"><path id="DejaVuSans-124-11" data-name="DejaVuSans-124" d="M335.82,127.61v9h-.75v-9Z"/></g><g id="text_33" data-name="text 33"><path id="DejaVuSans-53-3" data-name="DejaVuSans-53" d="M335.1,116.17h4.2v.91h-3.22V119a2,2,0,0,1,.46-.12,2.49,2.49,0,0,1,.47,0,3,3,0,0,1,2.1.72,2.56,2.56,0,0,1,.77,2,2.53,2.53,0,0,1-.79,2,3.28,3.28,0,0,1-2.25.71,5.83,5.83,0,0,1-1-.09,7.48,7.48,0,0,1-1.07-.25v-1.08a4.63,4.63,0,0,0,1,.39,4.68,4.68,0,0,0,1.07.12,2.12,2.12,0,0,0,1.46-.48,1.88,1.88,0,0,0,0-2.62,2.12,2.12,0,0,0-1.46-.48,4.09,4.09,0,0,0-.85.09,5,5,0,0,0-.87.3Z"/><path id="DejaVuSans-57-2" data-name="DejaVuSans-57" d="M342,123.93v-1a3.57,3.57,0,0,0,.81.29,3.32,3.32,0,0,0,.81.1,1.91,1.91,0,0,0,1.62-.71,3.75,3.75,0,0,0,.64-2.17,1.94,1.94,0,0,1-.78.7,2.13,2.13,0,0,1-1,.25,2.49,2.49,0,0,1-1.88-.72,2.72,2.72,0,0,1-.69-2,2.67,2.67,0,0,1,.72-2,2.57,2.57,0,0,1,1.92-.74,2.37,2.37,0,0,1,2.09,1.06,5.31,5.31,0,0,1,.73,3,4.67,4.67,0,0,1-.89,3,2.91,2.91,0,0,1-2.39,1.12,4.65,4.65,0,0,1-.82-.08A7.87,7.87,0,0,1,342,123.93Zm2.13-3.36a1.41,1.41,0,0,0,1.14-.49,2,2,0,0,0,.42-1.36,2,2,0,0,0-.42-1.34,1.42,1.42,0,0,0-1.14-.5,1.46,1.46,0,0,0-1.15.5,2,2,0,0,0-.42,1.34,2,2,0,0,0,.42,1.36A1.45,1.45,0,0,0,344.16,120.57Z"/></g><g id="text_34" data-name="text 34"><path id="DejaVuSansMono-Bold-65-5" data-name="DejaVuSansMono-Bold-65" d="M521.35,142l-1.16,5.07h2.32Zm-1.5-2.24h3l3.35,12.4h-2.45l-.77-3.07H519.7l-.75,3.07H516.5Z"/><path id="DejaVuSansMono-Bold-68-2" data-name="DejaVuSansMono-Bold-68" d="M540.31,142v8H541a2.3,2.3,0,0,0,2.06-.91,5.8,5.8,0,0,0,.61-3.1,5.72,5.72,0,0,0-.61-3.07A2.32,2.32,0,0,0,541,142Zm-2.46-2.21h2.63c2,0,3.49.48,4.38,1.45s1.34,2.54,1.34,4.73-.45,3.79-1.34,4.76-2.35,1.46-4.38,1.46h-2.63Z"/><path id="DejaVuSansMono-Bold-68-3" data-name="DejaVuSansMono-Bold-68" d="M560.79,142v8h.67a2.3,2.3,0,0,0,2.06-.91,5.8,5.8,0,0,0,.61-3.1,5.72,5.72,0,0,0-.61-3.07,2.32,2.32,0,0,0-2.06-.9Zm-2.45-2.21H561c2,0,3.48.48,4.37,1.45s1.34,2.54,1.34,4.73-.44,3.79-1.34,4.76-2.35,1.46-4.37,1.46h-2.63Z"/><path id="DejaVuSansMono-Bold-82-5" data-name="DejaVuSansMono-Bold-82" d="M584.4,146.33a1.24,1.24,0,0,1,.63.35,4.37,4.37,0,0,1,.66,1l2.24,4.46h-2.69l-1.49-3.13c0-.09-.11-.21-.18-.37-.43-.93-1-1.4-1.54-1.4h-.78v4.9H578.8v-12.4h3.54a5.5,5.5,0,0,1,3.43.84,3.38,3.38,0,0,1,1,2.76,3.14,3.14,0,0,1-.62,2A2.65,2.65,0,0,1,584.4,146.33Zm-3.15-4.48v3.38h1.15a2.08,2.08,0,0,0,1.44-.4,1.67,1.67,0,0,0,.44-1.3,1.7,1.7,0,0,0-.43-1.29,2.15,2.15,0,0,0-1.45-.39Z"/><path id="DejaVuSansMono-Bold-76-8" data-name="DejaVuSansMono-Bold-76" d="M600.05,152.19v-12.4h2.45V150h5.24v2.16Z"/><path id="DejaVuSansMono-Bold-76-9" data-name="DejaVuSansMono-Bold-76" d="M620.53,152.19v-12.4H623V150h5.24v2.16Z"/><path id="DejaVuSansMono-Bold-82-6" data-name="DejaVuSansMono-Bold-82" d="M645.86,146.33a1.24,1.24,0,0,1,.63.35,4.37,4.37,0,0,1,.66,1l2.25,4.46h-2.69l-1.5-3.13c-.05-.09-.1-.21-.17-.37-.44-.93-1-1.4-1.55-1.4h-.78v4.9h-2.45v-12.4h3.54a5.5,5.5,0,0,1,3.43.84,3.35,3.35,0,0,1,1,2.76,3.09,3.09,0,0,1-.62,2A2.65,2.65,0,0,1,645.86,146.33Zm-3.15-4.48v3.38h1.15a2.08,2.08,0,0,0,1.44-.4,2.15,2.15,0,0,0,0-2.59,2.15,2.15,0,0,0-1.45-.39Z"/><path id="DejaVuSansMono-Bold-80-6" data-name="DejaVuSansMono-Bold-80" d="M663.44,141.85v3.64h1a2.68,2.68,0,0,0,1.69-.41,1.73,1.73,0,0,0,.49-1.41,1.77,1.77,0,0,0-.49-1.42,2.69,2.69,0,0,0-1.69-.4ZM661,139.79h3.37a5.88,5.88,0,0,1,3.69.91,4.45,4.45,0,0,1,0,5.93,5.87,5.87,0,0,1-3.69.92h-.91v4.64H661Z"/><path id="DejaVuSansMono-Bold-72-6" data-name="DejaVuSansMono-Bold-72" d="M681.26,139.79h2.46v4.72h3.06v-4.72h2.45v12.4h-2.45v-5.52h-3.06v5.52h-2.46Z"/><path id="DejaVuSansMono-Bold-65-6" data-name="DejaVuSansMono-Bold-65" d="M705.73,142l-1.15,5.07h2.32Zm-1.49-2.24h3l3.34,12.4h-2.45l-.76-3.07h-3.28l-.75,3.07h-2.45Z"/><path id="DejaVuSansMono-Bold-70-2" data-name="DejaVuSansMono-Bold-70" d="M730.34,142h-5.28v2.67h4.81v2.16h-4.81v5.41h-2.45v-12.4h7.73Z"/><path id="DejaVuSansMono-Bold-89-4" data-name="DejaVuSansMono-Bold-89" d="M741.65,139.79h2.65l2.41,5,2.41-5h2.64l-3.82,7.51v4.89h-2.45V147.3Z"/><path id="DejaVuSansMono-Bold-81-5" data-name="DejaVuSansMono-Bold-81" d="M767.53,152.38l-.2,0h-.15a3.65,3.65,0,0,1-3.24-1.63,11,11,0,0,1,0-9.61,4.07,4.07,0,0,1,6.51,0,8.57,8.57,0,0,1,1.11,4.81,11,11,0,0,1-.53,3.66,3.93,3.93,0,0,1-1.52,2.11l1.55,1.51-1.68,1.24Zm-.34-10.62a1.45,1.45,0,0,0-1.37,1,12.35,12.35,0,0,0,0,6.46,1.45,1.45,0,0,0,2.75,0,12.35,12.35,0,0,0,0-6.46A1.45,1.45,0,0,0,767.19,141.76Z"/><path id="DejaVuSansMono-Bold-86-4" data-name="DejaVuSansMono-Bold-86" d="M787.68,150.15l2.19-10.36h2.46l-3,12.4H786l-3-12.4h2.46Z"/><path id="DejaVuSansMono-Bold-72-7" data-name="DejaVuSansMono-Bold-72" d="M804.19,139.79h2.45v4.72h3.06v-4.72h2.45v12.4H809.7v-5.52h-3.06v5.52h-2.45Z"/><path id="DejaVuSansMono-Bold-82-7" data-name="DejaVuSansMono-Bold-82" d="M830.24,146.33a1.27,1.27,0,0,1,.64.35,4.37,4.37,0,0,1,.66,1l2.24,4.46h-2.69l-1.5-3.13-.17-.37c-.44-.93-.95-1.4-1.55-1.4h-.78v4.9h-2.45v-12.4h3.54a5.53,5.53,0,0,1,3.44.84,3.38,3.38,0,0,1,1,2.76,3.14,3.14,0,0,1-.62,2A2.69,2.69,0,0,1,830.24,146.33Zm-3.15-4.48v3.38h1.16a2.08,2.08,0,0,0,1.44-.4,2.17,2.17,0,0,0,0-2.59,2.14,2.14,0,0,0-1.44-.39Z"/><path id="DejaVuSansMono-Bold-73-4" data-name="DejaVuSansMono-Bold-73" d="M845.45,142v-2.16h7.39V142h-2.47V150h2.47v2.16h-7.39V150h2.47V142Z"/><path id="DejaVuSansMono-Bold-84-3" data-name="DejaVuSansMono-Bold-84" d="M870.86,152.19h-2.45V141.93h-3.15v-2.14H874v2.14h-3.15Z"/><path id="DejaVuSansMono-Bold-71-8" data-name="DejaVuSansMono-Bold-71" d="M892.24,150v-2.37h-1.67v-2.06h3.82v5.68a5.14,5.14,0,0,1-1.56.92,5.25,5.25,0,0,1-1.83.31,4.48,4.48,0,0,1-3.72-1.67A7.62,7.62,0,0,1,886,146a7.44,7.44,0,0,1,1.33-4.78,4.58,4.58,0,0,1,3.82-1.66,5.22,5.22,0,0,1,1.47.21,5.72,5.72,0,0,1,1.36.61v2.72a3.5,3.5,0,0,0-1.19-1,3.23,3.23,0,0,0-1.46-.34,2.32,2.32,0,0,0-2.09,1.06,5.86,5.86,0,0,0-.69,3.18,6,6,0,0,0,.67,3.15,2.12,2.12,0,0,0,1.93,1.08,3.21,3.21,0,0,0,.67-.07A1.25,1.25,0,0,0,892.24,150Z"/><path id="DejaVuSansMono-Bold-75-4" data-name="DejaVuSansMono-Bold-75" d="M906.46,139.79h2.45v4.9l3.84-4.9h2.77l-3.91,4.88,4,7.52h-2.72L910,146.61,908.91,148v4.2h-2.45Z"/><path id="DejaVuSansMono-Bold-84-4" data-name="DejaVuSansMono-Bold-84" d="M932.32,152.19h-2.45V141.93h-3.15v-2.14h8.75v2.14h-3.15Z"/><path id="DejaVuSansMono-Bold-86-5" data-name="DejaVuSansMono-Bold-86" d="M951.58,150.15l2.18-10.36h2.47l-3,12.4h-3.4l-3-12.4h2.47Z"/><path id="DejaVuSansMono-Bold-83-6" data-name="DejaVuSansMono-Bold-83" d="M971.18,146.75a6.27,6.27,0,0,1-2.51-1.49,3.15,3.15,0,0,1-.65-2.09,3.35,3.35,0,0,1,1.08-2.64,4.26,4.26,0,0,1,3-1,7.7,7.7,0,0,1,1.72.2,8.45,8.45,0,0,1,1.69.58v2.39a6.71,6.71,0,0,0-1.6-.85,4.89,4.89,0,0,0-1.61-.29,2.24,2.24,0,0,0-1.37.36,1.19,1.19,0,0,0-.47,1,1.13,1.13,0,0,0,.34.85,4.65,4.65,0,0,0,1.45.74l1,.4a4.77,4.77,0,0,1,2.2,1.46,3.59,3.59,0,0,1,.71,2.28,3.46,3.46,0,0,1-1.11,2.81,5.19,5.19,0,0,1-3.35.92,7.79,7.79,0,0,1-1.85-.22,8.16,8.16,0,0,1-1.79-.65V149a7.83,7.83,0,0,0,1.9,1,5.08,5.08,0,0,0,1.81.34,2.09,2.09,0,0,0,1.4-.41,1.37,1.37,0,0,0,.5-1.15,1.52,1.52,0,0,0-.33-1,2.16,2.16,0,0,0-1-.66Z"/><path id="DejaVuSansMono-Bold-84-5" data-name="DejaVuSansMono-Bold-84" d="M993.78,152.19h-2.45V141.93h-3.15v-2.14h8.75v2.14h-3.15Z"/><path id="DejaVuSansMono-Bold-84-6" data-name="DejaVuSansMono-Bold-84" d="M1014.27,152.19h-2.45V141.93h-3.15v-2.14h8.75v2.14h-3.15Z"/><path id="DejaVuSansMono-Bold-83-7" data-name="DejaVuSansMono-Bold-83" d="M1032.65,146.75a6.13,6.13,0,0,1-2.51-1.49,3.1,3.1,0,0,1-.66-2.09,3.35,3.35,0,0,1,1.08-2.64,4.27,4.27,0,0,1,3-1,7.68,7.68,0,0,1,1.71.2,8.45,8.45,0,0,1,1.69.58v2.39a6.53,6.53,0,0,0-1.6-.85,4.85,4.85,0,0,0-1.61-.29,2.26,2.26,0,0,0-1.37.36,1.19,1.19,0,0,0-.47,1,1.14,1.14,0,0,0,.35.85,4.56,4.56,0,0,0,1.44.74l1,.4a4.77,4.77,0,0,1,2.2,1.46,3.59,3.59,0,0,1,.71,2.28,3.46,3.46,0,0,1-1.11,2.81,5.19,5.19,0,0,1-3.35.92,7.79,7.79,0,0,1-1.85-.22,8.35,8.35,0,0,1-1.79-.65V149a7.83,7.83,0,0,0,1.9,1,5.08,5.08,0,0,0,1.81.34,2.14,2.14,0,0,0,1.41-.41,1.39,1.39,0,0,0,.49-1.15,1.52,1.52,0,0,0-.33-1,2.16,2.16,0,0,0-1-.66Z"/><path id="DejaVuSansMono-Bold-72-8" data-name="DejaVuSansMono-Bold-72" d="M1050,139.79h2.45v4.72h3.07v-4.72H1058v12.4h-2.45v-5.52h-3.07v5.52H1050Z"/><path id="DejaVuSansMono-Bold-69-7" data-name="DejaVuSansMono-Bold-69" d="M1078.5,152.19h-7.72v-12.4h7.72V142h-5.27v2.67H1078v2.16h-4.78V150h5.27Z"/></g><g id="text_35" data-name="text 35"><path id="DejaVuSans-124-12" data-name="DejaVuSans-124" d="M517.62,127.61v9h-.75v-9Z"/></g><g id="text_36" data-name="text 36"><path id="DejaVuSans-54" d="M519.31,119.71a1.41,1.41,0,0,0-1.14.49,2.38,2.38,0,0,0,0,2.7,1.55,1.55,0,0,0,2.28,0,2.38,2.38,0,0,0,0-2.7A1.41,1.41,0,0,0,519.31,119.71Zm2.13-3.36v1a5,5,0,0,0-.82-.29,3.74,3.74,0,0,0-.81-.1,1.92,1.92,0,0,0-1.62.72,3.77,3.77,0,0,0-.64,2.16,2.2,2.2,0,0,1,.78-.71,2.27,2.27,0,0,1,1-.24,2.49,2.49,0,0,1,1.89.72,2.75,2.75,0,0,1,.69,2,2.67,2.67,0,0,1-.72,2,2.57,2.57,0,0,1-1.92.74,2.37,2.37,0,0,1-2.1-1.06,5.31,5.31,0,0,1-.73-3,4.67,4.67,0,0,1,.89-3,2.89,2.89,0,0,1,2.39-1.12,4.56,4.56,0,0,1,.82.08A5.35,5.35,0,0,1,521.44,116.35Z"/><path id="DejaVuSans-56-3" data-name="DejaVuSans-56" d="M526.09,120.33a1.74,1.74,0,0,0-1.21.41,1.69,1.69,0,0,0,0,2.25,1.74,1.74,0,0,0,1.21.41,1.71,1.71,0,0,0,1.2-.41,1.49,1.49,0,0,0,.44-1.13,1.47,1.47,0,0,0-.44-1.12A1.69,1.69,0,0,0,526.09,120.33Zm-1.08-.45a2,2,0,0,1-1.07-.64,1.76,1.76,0,0,1-.38-1.16,1.84,1.84,0,0,1,.67-1.5,3.4,3.4,0,0,1,3.71,0,1.84,1.84,0,0,1,.68,1.5,1.77,1.77,0,0,1-.39,1.16,2,2,0,0,1-1.07.64,2.13,2.13,0,0,1,1.21.7,1.94,1.94,0,0,1,.43,1.28,2.22,2.22,0,0,1-.7,1.77,3.58,3.58,0,0,1-4,0,2.22,2.22,0,0,1-.7-1.77,2,2,0,0,1,.43-1.28A2.2,2.2,0,0,1,525,119.88Zm-.39-1.69a1.21,1.21,0,0,0,.39,1,1.83,1.83,0,0,0,2.15,0,1.21,1.21,0,0,0,.4-1,1.23,1.23,0,0,0-.4-1,1.87,1.87,0,0,0-2.15,0A1.22,1.22,0,0,0,524.62,118.19Z"/></g><g id="text_37" data-name="text 37"><path id="DejaVuSansMono-Bold-65-7" data-name="DejaVuSansMono-Bold-65" d="M1087,142l-1.15,5.07h2.32Zm-1.49-2.24h3l3.34,12.4h-2.45l-.76-3.07h-3.28l-.75,3.07h-2.45Z"/><path id="DejaVuSansMono-Bold-73-5" data-name="DejaVuSansMono-Bold-73" d="M1103.75,142v-2.16h7.39V142h-2.47V150h2.47v2.16h-7.39V150h2.47V142Z"/><path id="DejaVuSansMono-Bold-76-10" data-name="DejaVuSansMono-Bold-76" d="M1124.68,152.19v-12.4h2.45V150h5.24v2.16Z"/></g><g id="text_38" data-name="text 38"><path id="DejaVuSans-124-13" data-name="DejaVuSans-124" d="M1083.23,127.61v9h-.75v-9Z"/></g><g id="text_39" data-name="text 39"><path id="DejaVuSans-57-3" data-name="DejaVuSans-57" d="M1082.52,123.93v-1a3.65,3.65,0,0,0,.82.29,3.27,3.27,0,0,0,.81.1,1.91,1.91,0,0,0,1.62-.71,3.83,3.83,0,0,0,.64-2.17,2.08,2.08,0,0,1-.78.7,2.16,2.16,0,0,1-1,.25,2.47,2.47,0,0,1-1.88-.72,3.06,3.06,0,0,1,0-3.92,2.57,2.57,0,0,1,1.92-.74,2.37,2.37,0,0,1,2.1,1.06,5.39,5.39,0,0,1,.73,3,4.67,4.67,0,0,1-.89,3,2.92,2.92,0,0,1-2.39,1.12,4.65,4.65,0,0,1-.82-.08A8.72,8.72,0,0,1,1082.52,123.93Zm2.13-3.36a1.45,1.45,0,0,0,1.15-.49,2,2,0,0,0,.42-1.36,2,2,0,0,0-.42-1.34,1.46,1.46,0,0,0-1.15-.5,1.42,1.42,0,0,0-1.14.5,2,2,0,0,0-.42,1.34,2,2,0,0,0,.42,1.36A1.41,1.41,0,0,0,1084.65,120.57Z"/><path id="DejaVuSans-54-2" data-name="DejaVuSans-54" d="M1091.82,119.71a1.41,1.41,0,0,0-1.14.49,2.38,2.38,0,0,0,0,2.7,1.42,1.42,0,0,0,1.14.5,1.44,1.44,0,0,0,1.15-.5,2.38,2.38,0,0,0,0-2.7A1.43,1.43,0,0,0,1091.82,119.71Zm2.13-3.36v1a5.25,5.25,0,0,0-.81-.29,3.91,3.91,0,0,0-.82-.1,1.92,1.92,0,0,0-1.62.72,3.93,3.93,0,0,0-.64,2.16,2.15,2.15,0,0,1,.79-.71,2.24,2.24,0,0,1,1-.24,2.49,2.49,0,0,1,1.88.72,2.75,2.75,0,0,1,.69,2,2.67,2.67,0,0,1-.72,2,2.57,2.57,0,0,1-1.92.74,2.39,2.39,0,0,1-2.1-1.06,5.39,5.39,0,0,1-.72-3,4.61,4.61,0,0,1,.89-3,2.88,2.88,0,0,1,2.39-1.12,4.45,4.45,0,0,1,.81.08A5.08,5.08,0,0,1,1094,116.35Z"/></g><g id="text_40" data-name="text 40"><path id="DejaVuSansMono-Bold-83-8" data-name="DejaVuSansMono-Bold-83" d="M1146.67,146.75a6.27,6.27,0,0,1-2.51-1.49,3.1,3.1,0,0,1-.65-2.09,3.35,3.35,0,0,1,1.08-2.64,4.26,4.26,0,0,1,3-1,7.68,7.68,0,0,1,1.71.2,8.54,8.54,0,0,1,1.7.58v2.39a6.58,6.58,0,0,0-1.61-.85,4.8,4.8,0,0,0-1.61-.29,2.22,2.22,0,0,0-1.36.36,1.17,1.17,0,0,0-.47,1,1.13,1.13,0,0,0,.34.85,4.56,4.56,0,0,0,1.44.74l1.06.4a4.77,4.77,0,0,1,2.2,1.46,3.59,3.59,0,0,1,.71,2.28,3.46,3.46,0,0,1-1.11,2.81,5.19,5.19,0,0,1-3.35.92,7.73,7.73,0,0,1-1.85-.22,8.16,8.16,0,0,1-1.79-.65V149a7.78,7.78,0,0,0,1.89,1,5.18,5.18,0,0,0,1.82.34,2.11,2.11,0,0,0,1.4-.41,1.4,1.4,0,0,0,.5-1.15,1.52,1.52,0,0,0-.33-1,2.16,2.16,0,0,0-1-.66Z"/><path id="DejaVuSansMono-Bold-78-2" data-name="DejaVuSansMono-Bold-78" d="M1163.91,139.79h2.64l3.45,9v-9h2.16v12.4h-2.62l-3.47-9v9h-2.16Z"/></g><g id="text_41" data-name="text 41"><path id="DejaVuSans-124-14" data-name="DejaVuSans-124" d="M1143.83,127.61v9h-.75v-9Z"/></g><g id="text_42" data-name="text 42"><path id="DejaVuSans-57-4" data-name="DejaVuSans-57" d="M1143.12,123.93v-1a3.65,3.65,0,0,0,.82.29,3.27,3.27,0,0,0,.81.1,1.91,1.91,0,0,0,1.62-.71,3.83,3.83,0,0,0,.64-2.17,1.94,1.94,0,0,1-.78.7,2.16,2.16,0,0,1-1,.25,2.47,2.47,0,0,1-1.88-.72,3.06,3.06,0,0,1,0-3.92,2.58,2.58,0,0,1,1.92-.74,2.37,2.37,0,0,1,2.1,1.06,5.39,5.39,0,0,1,.73,3,4.67,4.67,0,0,1-.89,3,2.92,2.92,0,0,1-2.39,1.12,4.65,4.65,0,0,1-.82-.08A8.72,8.72,0,0,1,1143.12,123.93Zm2.13-3.36a1.43,1.43,0,0,0,1.15-.49,2,2,0,0,0,.42-1.36,2,2,0,0,0-.42-1.34,1.44,1.44,0,0,0-1.15-.5,1.42,1.42,0,0,0-1.14.5,2,2,0,0,0-.42,1.34,2,2,0,0,0,.42,1.36A1.41,1.41,0,0,0,1145.25,120.57Z"/><path id="DejaVuSans-57-5" data-name="DejaVuSans-57" d="M1150,123.93v-1a3.65,3.65,0,0,0,.82.29,3.27,3.27,0,0,0,.81.1,1.91,1.91,0,0,0,1.62-.71,3.83,3.83,0,0,0,.64-2.17,2.08,2.08,0,0,1-.78.7,2.16,2.16,0,0,1-1,.25,2.47,2.47,0,0,1-1.88-.72,3.06,3.06,0,0,1,0-3.92,2.57,2.57,0,0,1,1.92-.74,2.37,2.37,0,0,1,2.1,1.06,5.39,5.39,0,0,1,.73,3,4.67,4.67,0,0,1-.89,3,2.92,2.92,0,0,1-2.39,1.12,4.65,4.65,0,0,1-.82-.08A8.72,8.72,0,0,1,1150,123.93Zm2.13-3.36a1.45,1.45,0,0,0,1.15-.49,2,2,0,0,0,.42-1.36,2,2,0,0,0-.42-1.34,1.46,1.46,0,0,0-1.15-.5,1.42,1.42,0,0,0-1.14.5,2,2,0,0,0-.42,1.34,2,2,0,0,0,.42,1.36A1.41,1.41,0,0,0,1152.16,120.57Z"/></g><g id="text_43" data-name="text 43"><path id="DejaVuSansMono-Bold-84-7" data-name="DejaVuSansMono-Bold-84" d="M179.18,232.47h-2.46V222.21h-3.15v-2.15h8.75v2.15h-3.14Z"/><path id="DejaVuSansMono-Bold-75-5" data-name="DejaVuSansMono-Bold-75" d="M194.29,220.06h2.45V225l3.83-4.91h2.78L199.44,225l4.05,7.52h-2.72l-2.94-5.58-1.09,1.38v4.2h-2.45Z"/><path id="DejaVuSansMono-Bold-86-6" data-name="DejaVuSansMono-Bold-86" d="M218.92,230.42l2.18-10.36h2.47l-2.95,12.41h-3.4l-2.95-12.41h2.47Z"/><path id="DejaVuSansMono-Bold-76-11" data-name="DejaVuSansMono-Bold-76" d="M236.16,232.47V220.06h2.45v10.25h5.24v2.16Z"/><path id="DejaVuSansMono-Bold-69-8" data-name="DejaVuSansMono-Bold-69" d="M263.9,232.47h-7.73V220.06h7.73v2.17h-5.28v2.67h4.78v2.16h-4.78v3.25h5.28Z"/><path id="DejaVuSansMono-Bold-73-6" data-name="DejaVuSansMono-Bold-73" d="M276.69,222.23v-2.17h7.39v2.17h-2.47v8.08h2.47v2.16h-7.39v-2.16h2.47v-8.08Z"/><path id="DejaVuSansMono-Bold-80-7" data-name="DejaVuSansMono-Bold-80" d="M299.55,222.12v3.64h1a2.69,2.69,0,0,0,1.69-.4,1.73,1.73,0,0,0,.49-1.41,1.77,1.77,0,0,0-.49-1.42,2.68,2.68,0,0,0-1.69-.41Zm-2.46-2.06h3.37a5.87,5.87,0,0,1,3.69.92,4.45,4.45,0,0,1,0,5.93,5.88,5.88,0,0,1-3.69.91h-.91v4.65h-2.46Z"/><path id="DejaVuSansMono-Bold-76-12" data-name="DejaVuSansMono-Bold-76" d="M318.11,232.47V220.06h2.45v10.25h5.24v2.16Z"/></g><g id="text_44" data-name="text 44"><path id="DejaVuSans-124-15" data-name="DejaVuSans-124" d="M174.22,207.89v9.05h-.75v-9.05Z"/></g><g id="text_45" data-name="text 45"><path id="DejaVuSans-49-8" data-name="DejaVuSans-49" d="M173.67,203.47h1.75v-6l-1.91.38v-1l1.9-.39h1.07v7h1.75v.9h-4.56Z"/><path id="DejaVuSans-48-2" data-name="DejaVuSans-48" d="M182.68,197.16a1.33,1.33,0,0,0-1.24.81,5.56,5.56,0,0,0-.42,2.45,5.48,5.48,0,0,0,.42,2.44,1.36,1.36,0,0,0,2.49,0,5.48,5.48,0,0,0,.42-2.44,5.56,5.56,0,0,0-.42-2.45A1.33,1.33,0,0,0,182.68,197.16Zm0-.85a2.31,2.31,0,0,1,2,1.05,7,7,0,0,1,0,6.11,2.48,2.48,0,0,1-4.07,0,7,7,0,0,1,0-6.11A2.3,2.3,0,0,1,182.68,196.31Z"/><path id="DejaVuSans-49-9" data-name="DejaVuSans-49" d="M187.49,203.47h1.75v-6l-1.91.38v-1l1.9-.39h1.07v7h1.75v.9h-4.56Z"/></g><g id="text_46" data-name="text 46"><path id="DejaVuSansMono-Bold-76-13" data-name="DejaVuSansMono-Bold-76" d="M336.3,232.47V220.06h2.45v10.25H344v2.16Z"/><path id="DejaVuSansMono-Bold-80-8" data-name="DejaVuSansMono-Bold-80" d="M358.71,222.12v3.64h1a2.7,2.7,0,0,0,1.69-.4,1.76,1.76,0,0,0,.48-1.41,1.8,1.8,0,0,0-.48-1.42,2.7,2.7,0,0,0-1.69-.41Zm-2.45-2.06h3.37a5.87,5.87,0,0,1,3.69.92,4.48,4.48,0,0,1,0,5.93,5.88,5.88,0,0,1-3.69.91h-.92v4.65h-2.45Z"/><path id="DejaVuSansMono-Bold-69-9" data-name="DejaVuSansMono-Bold-69" d="M384.52,232.47H376.8V220.06h7.72v2.17h-5.27v2.67H384v2.16h-4.78v3.25h5.27Z"/><path id="DejaVuSansMono-Bold-78-3" data-name="DejaVuSansMono-Bold-78" d="M396.88,220.06h2.63l3.46,9v-9h2.16v12.41h-2.62l-3.47-9v9h-2.16Z"/><path id="DejaVuSansMono-Bold-83-9" data-name="DejaVuSansMono-Bold-83" d="M420.61,227a6.27,6.27,0,0,1-2.51-1.49,3.15,3.15,0,0,1-.65-2.09,3.35,3.35,0,0,1,1.08-2.64,4.26,4.26,0,0,1,3-1,7.76,7.76,0,0,1,1.72.2,9.09,9.09,0,0,1,1.69.57V223a6.71,6.71,0,0,0-1.6-.85,4.65,4.65,0,0,0-1.61-.29,2.24,2.24,0,0,0-1.37.36,1.19,1.19,0,0,0-.47,1,1.13,1.13,0,0,0,.34.85,4.56,4.56,0,0,0,1.44.74l1.06.4a4.84,4.84,0,0,1,2.2,1.45,3.64,3.64,0,0,1,.71,2.29,3.46,3.46,0,0,1-1.11,2.81,5.19,5.19,0,0,1-3.35.92,7.79,7.79,0,0,1-1.85-.22,8.16,8.16,0,0,1-1.79-.65V229.3a7.83,7.83,0,0,0,1.9,1,5.08,5.08,0,0,0,1.81.34,2.11,2.11,0,0,0,1.4-.41,1.39,1.39,0,0,0,.5-1.15,1.5,1.5,0,0,0-.33-1,2.26,2.26,0,0,0-1-.67Z"/><path id="DejaVuSansMono-Bold-77-3" data-name="DejaVuSansMono-Bold-77" d="M437.58,220.06h2.92l1.48,5.45,1.47-5.45h2.94v12.41h-2.11v-9.94L443,228h-2l-1.33-5.43v9.94h-2.11Z"/><path id="DejaVuSansMono-Bold-82-8" data-name="DejaVuSansMono-Bold-82" d="M464.06,226.61a1.24,1.24,0,0,1,.63.35,4.37,4.37,0,0,1,.66,1l2.24,4.46H464.9l-1.49-3.13c-.05-.09-.11-.21-.18-.37-.43-.94-1-1.4-1.54-1.4h-.78v4.9h-2.45V220.06H462a5.49,5.49,0,0,1,3.43.85,3.38,3.38,0,0,1,1,2.76,3.16,3.16,0,0,1-.62,2A2.65,2.65,0,0,1,464.06,226.61Zm-3.15-4.49v3.39h1.15a2.08,2.08,0,0,0,1.44-.4,1.67,1.67,0,0,0,.44-1.3,1.7,1.7,0,0,0-.43-1.29,2.15,2.15,0,0,0-1.45-.4Z"/><path id="DejaVuSansMono-Bold-65-8" data-name="DejaVuSansMono-Bold-65" d="M483,222.31l-1.16,5.07h2.32Zm-1.5-2.25h3l3.35,12.41h-2.45l-.77-3.07h-3.28l-.75,3.07h-2.45Z"/></g><g id="text_47" data-name="text 47"><path id="DejaVuSans-124-16" data-name="DejaVuSans-124" d="M335.82,207.89v9.05h-.75v-9.05Z"/></g><g id="text_48" data-name="text 48"><path id="DejaVuSans-49-10" data-name="DejaVuSans-49" d="M335.27,203.47H337v-6l-1.9.38v-1l1.89-.39h1.07v7h1.75v.9h-4.56Z"/><path id="DejaVuSans-48-3" data-name="DejaVuSans-48" d="M344.28,197.16A1.33,1.33,0,0,0,343,198a5.56,5.56,0,0,0-.42,2.45,5.48,5.48,0,0,0,.42,2.44,1.36,1.36,0,0,0,2.49,0,5.48,5.48,0,0,0,.42-2.44,5.56,5.56,0,0,0-.42-2.45A1.32,1.32,0,0,0,344.28,197.16Zm0-.85a2.31,2.31,0,0,1,2,1.05,7,7,0,0,1,0,6.11,2.48,2.48,0,0,1-4.07,0,7,7,0,0,1,0-6.11A2.3,2.3,0,0,1,344.28,196.31Z"/><path id="DejaVuSans-57-6" data-name="DejaVuSans-57" d="M348.94,204.21v-1a3.57,3.57,0,0,0,.81.29,3.32,3.32,0,0,0,.81.1,1.91,1.91,0,0,0,1.62-.71,3.75,3.75,0,0,0,.64-2.17,1.94,1.94,0,0,1-.78.7,2.13,2.13,0,0,1-1,.25,2.49,2.49,0,0,1-1.88-.72,2.72,2.72,0,0,1-.69-2,2.67,2.67,0,0,1,.72-1.95,2.57,2.57,0,0,1,1.92-.74,2.38,2.38,0,0,1,2.09,1.05,5.34,5.34,0,0,1,.73,3.06,4.69,4.69,0,0,1-.89,3,2.91,2.91,0,0,1-2.39,1.12,4.65,4.65,0,0,1-.82-.08A7.87,7.87,0,0,1,348.94,204.21Zm2.13-3.36a1.41,1.41,0,0,0,1.14-.49,2,2,0,0,0,.42-1.36,2.06,2.06,0,0,0-.42-1.35,1.41,1.41,0,0,0-1.14-.49,1.43,1.43,0,0,0-1.15.49,2.06,2.06,0,0,0-.42,1.35,2,2,0,0,0,.42,1.36A1.43,1.43,0,0,0,351.07,200.85Z"/></g><g id="text_49" data-name="text 49"><path id="DejaVuSansMono-Bold-86-7" data-name="DejaVuSansMono-Bold-86" d="M501.15,230.42l2.18-10.36h2.47l-2.95,12.41h-3.4l-2.95-12.41H499Z"/></g><g id="text_50" data-name="text 50"><path id="DejaVuSans-124-17" data-name="DejaVuSans-124" d="M497.42,207.89v9.05h-.75v-9.05Z"/></g><g id="text_51" data-name="text 51"><path id="DejaVuSans-49-11" data-name="DejaVuSans-49" d="M496.87,203.47h1.75v-6l-1.9.38v-1l1.89-.39h1.07v7h1.75v.9h-4.56Z"/><path id="DejaVuSans-49-12" data-name="DejaVuSans-49" d="M503.78,203.47h1.75v-6l-1.9.38v-1l1.89-.39h1.07v7h1.75v.9h-4.56Z"/><path id="DejaVuSans-55-2" data-name="DejaVuSans-55" d="M510.23,196.45h5.1v.46l-2.88,7.46h-1.12l2.71-7h-3.81Z"/></g><g id="text_52" data-name="text 52"><path id="DejaVuSansMono-Bold-73-7" data-name="DejaVuSansMono-Bold-73" d="M517.66,222.23v-2.17H525v2.17h-2.46v8.08H525v2.16h-7.38v-2.16h2.47v-8.08Z"/><path id="DejaVuSansMono-Bold-68-4" data-name="DejaVuSansMono-Bold-68" d="M540.31,222.28v8H541a2.3,2.3,0,0,0,2.06-.91,5.8,5.8,0,0,0,.61-3.1,5.72,5.72,0,0,0-.61-3.07,2.32,2.32,0,0,0-2.06-.9Zm-2.46-2.22h2.63c2,0,3.49.49,4.38,1.46s1.34,2.54,1.34,4.73-.45,3.79-1.34,4.76-2.35,1.46-4.38,1.46h-2.63Z"/><path id="DejaVuSansMono-Bold-67" d="M566.18,232.11a5.09,5.09,0,0,1-1.22.45,5.79,5.79,0,0,1-1.34.15,4.62,4.62,0,0,1-3.83-1.65,9.33,9.33,0,0,1,0-9.57,4.62,4.62,0,0,1,3.83-1.65A5.94,5.94,0,0,1,565,220a4.87,4.87,0,0,1,1.21.45v2.72a4.84,4.84,0,0,0-1.22-.85,3,3,0,0,0-1.23-.27,2.27,2.27,0,0,0-2,1.07,7.71,7.71,0,0,0,0,6.33,2.27,2.27,0,0,0,2,1.07,3,3,0,0,0,1.23-.27,4.84,4.84,0,0,0,1.22-.85Z"/><path id="DejaVuSansMono-Bold-65-9" data-name="DejaVuSansMono-Bold-65" d="M582.81,222.31l-1.16,5.07H584Zm-1.5-2.25h3l3.35,12.41h-2.45l-.76-3.07h-3.29l-.74,3.07H578Z"/><path id="DejaVuSansMono-Bold-71-9" data-name="DejaVuSansMono-Bold-71" d="M605.42,230.23v-2.37h-1.68V225.8h3.83v5.68a5.14,5.14,0,0,1-1.56.92,5.25,5.25,0,0,1-1.83.31,4.48,4.48,0,0,1-3.72-1.67,9.33,9.33,0,0,1,0-9.55,4.63,4.63,0,0,1,3.83-1.65,5.22,5.22,0,0,1,1.47.21,5.72,5.72,0,0,1,1.36.61v2.72a3.5,3.5,0,0,0-1.19-1,3.23,3.23,0,0,0-1.46-.34,2.32,2.32,0,0,0-2.09,1.06,5.86,5.86,0,0,0-.69,3.18,6,6,0,0,0,.67,3.15,2.12,2.12,0,0,0,1.93,1.08,3.21,3.21,0,0,0,.67-.07A1.25,1.25,0,0,0,605.42,230.23Z"/><path id="DejaVuSansMono-Bold-73-8" data-name="DejaVuSansMono-Bold-73" d="M620.1,222.23v-2.17h7.38v2.17H625v8.08h2.47v2.16H620.1v-2.16h2.46v-8.08Z"/></g><g id="text_53" data-name="text 53"><path id="DejaVuSans-124-18" data-name="DejaVuSans-124" d="M517.62,207.89v9.05h-.75v-9.05Z"/></g><g id="text_54" data-name="text 54"><path id="DejaVuSans-49-13" data-name="DejaVuSans-49" d="M517.07,203.47h1.75v-6l-1.9.38v-1l1.89-.39h1.07v7h1.75v.9h-4.56Z"/><path id="DejaVuSans-49-14" data-name="DejaVuSans-49" d="M524,203.47h1.75v-6l-1.9.38v-1l1.89-.39h1.07v7h1.75v.9H524Z"/><path id="DejaVuSans-56-4" data-name="DejaVuSans-56" d="M533,200.61a1.74,1.74,0,0,0-1.21.41,1.69,1.69,0,0,0,0,2.25,1.74,1.74,0,0,0,1.21.41,1.71,1.71,0,0,0,1.2-.41,1.49,1.49,0,0,0,.44-1.13,1.47,1.47,0,0,0-.44-1.12A1.69,1.69,0,0,0,533,200.61Zm-1.08-.45a2,2,0,0,1-1.07-.65,1.72,1.72,0,0,1-.38-1.15,1.84,1.84,0,0,1,.67-1.5,3.4,3.4,0,0,1,3.71,0,1.84,1.84,0,0,1,.68,1.5,1.72,1.72,0,0,1-.39,1.15,2,2,0,0,1-1.07.65,2.13,2.13,0,0,1,1.21.7,1.94,1.94,0,0,1,.43,1.28,2.22,2.22,0,0,1-.7,1.77,3.58,3.58,0,0,1-4,0,2.22,2.22,0,0,1-.7-1.77,1.94,1.94,0,0,1,.43-1.28A2.2,2.2,0,0,1,531.92,200.16Zm-.39-1.7a1.21,1.21,0,0,0,.39,1,1.83,1.83,0,0,0,2.15,0,1.38,1.38,0,0,0,0-1.92,1.87,1.87,0,0,0-2.15,0A1.21,1.21,0,0,0,531.53,198.46Z"/></g><g id="text_55" data-name="text 55"><path id="DejaVuSansMono-Bold-76-14" data-name="DejaVuSansMono-Bold-76" d="M639.3,232.47V220.06h2.45v10.25H647v2.16Z"/></g><g id="text_56" data-name="text 56"><path id="DejaVuSans-124-19" data-name="DejaVuSans-124" d="M638.83,207.89v9.05h-.76v-9.05Z"/></g><g id="text_57" data-name="text 57"><path id="DejaVuSans-49-15" data-name="DejaVuSans-49" d="M638.27,203.47H640v-6l-1.9.38v-1l1.89-.39h1.07v7h1.75v.9h-4.56Z"/><path id="DejaVuSans-50-4" data-name="DejaVuSans-50" d="M645.92,203.47h3.74v.9h-5v-.9c.41-.42,1-1,1.66-1.69s1.15-1.17,1.33-1.38a4.81,4.81,0,0,0,.71-1,1.7,1.7,0,0,0,.21-.79,1.34,1.34,0,0,0-.44-1,1.7,1.7,0,0,0-1.16-.4,3.47,3.47,0,0,0-1.06.18,6.05,6.05,0,0,0-1.2.53v-1.08a8.12,8.12,0,0,1,1.21-.4,5.08,5.08,0,0,1,1-.13,2.93,2.93,0,0,1,2,.62,2,2,0,0,1,.73,1.64,2.44,2.44,0,0,1-.18.93,4.53,4.53,0,0,1-.66,1c-.09.1-.37.4-.85.89Z"/><path id="DejaVuSans-52-2" data-name="DejaVuSans-52" d="M654.85,197.39l-2.71,4.22h2.71Zm-.28-.94h1.35v5.16h1.13v.89h-1.13v1.87h-1.07V202.5h-3.57v-1Z"/></g><g id="text_58" data-name="text 58"><path id="DejaVuSansMono-Bold-75-6" data-name="DejaVuSansMono-Bold-75" d="M658.6,220.06h2.45V225l3.84-4.91h2.78L663.75,225l4.06,7.52h-2.73l-2.94-5.58-1.09,1.38v4.2H658.6Z"/><path id="DejaVuSansMono-Bold-76-15" data-name="DejaVuSansMono-Bold-76" d="M680,232.47V220.06h2.45v10.25h5.24v2.16Z"/><path id="DejaVuSansMono-Bold-82-9" data-name="DejaVuSansMono-Bold-82" d="M705.31,226.61a1.24,1.24,0,0,1,.63.35,3.82,3.82,0,0,1,.66,1l2.25,4.46h-2.69l-1.5-3.13-.17-.37c-.44-.94-1-1.4-1.55-1.4h-.78v4.9h-2.45V220.06h3.54a5.49,5.49,0,0,1,3.43.85,3.36,3.36,0,0,1,1.05,2.76,3.11,3.11,0,0,1-.63,2A2.65,2.65,0,0,1,705.31,226.61Zm-3.15-4.49v3.39h1.16a2.08,2.08,0,0,0,1.44-.4,2.17,2.17,0,0,0,0-2.59,2.14,2.14,0,0,0-1.44-.4Z"/></g><g id="text_59" data-name="text 59"><path id="DejaVuSans-124-20" data-name="DejaVuSans-124" d="M659,207.89v9.05h-.75v-9.05Z"/></g><g id="text_60" data-name="text 60"><path id="DejaVuSans-49-16" data-name="DejaVuSans-49" d="M658.47,203.47h1.75v-6l-1.9.38v-1l1.89-.39h1.07v7H663v.9h-4.56Z"/><path id="DejaVuSans-50-5" data-name="DejaVuSans-50" d="M666.12,203.47h3.74v.9h-5v-.9c.41-.42,1-1,1.66-1.69s1.15-1.17,1.33-1.38a4.81,4.81,0,0,0,.71-1,1.7,1.7,0,0,0,.21-.79,1.34,1.34,0,0,0-.44-1,1.7,1.7,0,0,0-1.16-.4,3.47,3.47,0,0,0-1.06.18,6.05,6.05,0,0,0-1.2.53v-1.08a8.12,8.12,0,0,1,1.21-.4,5.08,5.08,0,0,1,1-.13,2.93,2.93,0,0,1,2,.62,2,2,0,0,1,.73,1.64,2.44,2.44,0,0,1-.18.93,4.53,4.53,0,0,1-.66,1c-.09.1-.37.4-.85.89Z"/><path id="DejaVuSans-53-4" data-name="DejaVuSans-53" d="M672.12,196.45h4.2v.91H673.1v1.94a2,2,0,0,1,.46-.12,2.56,2.56,0,0,1,.47,0,3,3,0,0,1,2.1.72,2.57,2.57,0,0,1,.78,2,2.53,2.53,0,0,1-.8,2,3.27,3.27,0,0,1-2.24.71,6,6,0,0,1-1-.09,9.61,9.61,0,0,1-1.07-.25v-1.08a4.63,4.63,0,0,0,1,.39,4.68,4.68,0,0,0,1.07.12,2.11,2.11,0,0,0,1.46-.48,1.88,1.88,0,0,0,0-2.62,2.11,2.11,0,0,0-1.46-.48,4.09,4.09,0,0,0-.85.09,5,5,0,0,0-.87.3Z"/></g><g id="text_61" data-name="text 61"><path id="DejaVuSansMono-Bold-78-4" data-name="DejaVuSansMono-Bold-78" d="M719.22,220.06h2.63l3.46,9v-9h2.16v12.41h-2.62l-3.47-9v9h-2.16Z"/><path id="DejaVuSansMono-Bold-83-10" data-name="DejaVuSansMono-Bold-83" d="M743,227a6.13,6.13,0,0,1-2.51-1.49,3.1,3.1,0,0,1-.66-2.09,3.35,3.35,0,0,1,1.08-2.64,4.27,4.27,0,0,1,3-1,7.68,7.68,0,0,1,1.71.2,9.09,9.09,0,0,1,1.69.57V223a6.71,6.71,0,0,0-1.6-.85,4.61,4.61,0,0,0-1.61-.29,2.26,2.26,0,0,0-1.37.36,1.19,1.19,0,0,0-.47,1,1.14,1.14,0,0,0,.35.85,4.56,4.56,0,0,0,1.44.74l1,.4a4.84,4.84,0,0,1,2.2,1.45,3.64,3.64,0,0,1,.71,2.29,3.46,3.46,0,0,1-1.11,2.81,5.19,5.19,0,0,1-3.35.92,7.79,7.79,0,0,1-1.85-.22,8.35,8.35,0,0,1-1.79-.65V229.3a7.83,7.83,0,0,0,1.9,1,5.08,5.08,0,0,0,1.81.34,2.09,2.09,0,0,0,1.4-.41,1.39,1.39,0,0,0,.5-1.15,1.5,1.5,0,0,0-.33-1,2.26,2.26,0,0,0-1-.67Z"/><path id="DejaVuSansMono-Bold-68-5" data-name="DejaVuSansMono-Bold-68" d="M762.79,222.28v8h.67a2.3,2.3,0,0,0,2.06-.91,5.8,5.8,0,0,0,.61-3.1,5.72,5.72,0,0,0-.61-3.07,2.32,2.32,0,0,0-2.06-.9Zm-2.45-2.22H763c2,0,3.48.49,4.38,1.46s1.34,2.54,1.34,4.73-.45,3.79-1.34,4.76-2.35,1.46-4.38,1.46h-2.63Z"/><path id="DejaVuSansMono-Bold-73-9" data-name="DejaVuSansMono-Bold-73" d="M781.12,222.23v-2.17h7.39v2.17H786v8.08h2.47v2.16h-7.39v-2.16h2.47v-8.08Z"/><path id="DejaVuSansMono-Bold-69-10" data-name="DejaVuSansMono-Bold-69" d="M809.3,232.47h-7.72V220.06h7.72v2.17H804v2.67h4.77v2.16H804v3.25h5.27Z"/></g><g id="text_62" data-name="text 62"><path id="DejaVuSans-124-21" data-name="DejaVuSans-124" d="M719.63,207.89v9.05h-.75v-9.05Z"/></g><g id="text_63" data-name="text 63"><path id="DejaVuSans-49-17" data-name="DejaVuSans-49" d="M719.07,203.47h1.75v-6l-1.9.38v-1l1.89-.39h1.07v7h1.75v.9h-4.56Z"/><path id="DejaVuSans-50-6" data-name="DejaVuSans-50" d="M726.72,203.47h3.74v.9h-5v-.9c.41-.42,1-1,1.66-1.69s1.15-1.17,1.33-1.38a4.81,4.81,0,0,0,.71-1,1.7,1.7,0,0,0,.21-.79,1.34,1.34,0,0,0-.44-1,1.7,1.7,0,0,0-1.16-.4,3.47,3.47,0,0,0-1.06.18,6.05,6.05,0,0,0-1.2.53v-1.08a8.51,8.51,0,0,1,1.21-.4,5.08,5.08,0,0,1,1-.13,2.93,2.93,0,0,1,2,.62,2,2,0,0,1,.74,1.64,2.45,2.45,0,0,1-.19.93,4.53,4.53,0,0,1-.66,1c-.09.1-.37.4-.85.89Z"/><path id="DejaVuSans-56-5" data-name="DejaVuSans-56" d="M735,200.61a1.69,1.69,0,0,0-1.2.41,1.66,1.66,0,0,0,0,2.25,2,2,0,0,0,2.4,0,1.49,1.49,0,0,0,.44-1.13,1.43,1.43,0,0,0-.44-1.12A1.69,1.69,0,0,0,735,200.61Zm-1.07-.45a2,2,0,0,1-1.08-.65,1.77,1.77,0,0,1-.38-1.15,1.84,1.84,0,0,1,.67-1.5,2.86,2.86,0,0,1,1.86-.55,2.82,2.82,0,0,1,1.85.55,1.84,1.84,0,0,1,.68,1.5,1.72,1.72,0,0,1-.39,1.15,1.92,1.92,0,0,1-1.07.65,2.13,2.13,0,0,1,1.21.7,1.94,1.94,0,0,1,.43,1.28,2.22,2.22,0,0,1-.7,1.77,3.58,3.58,0,0,1-4,0,2.25,2.25,0,0,1-.7-1.77,2,2,0,0,1,.44-1.28A2.13,2.13,0,0,1,733.93,200.16Zm-.4-1.7a1.21,1.21,0,0,0,.39,1,1.54,1.54,0,0,0,1.08.35,1.58,1.58,0,0,0,1.08-.35,1.38,1.38,0,0,0,0-1.92,1.57,1.57,0,0,0-1.08-.34,1.54,1.54,0,0,0-1.08.34A1.21,1.21,0,0,0,733.53,198.46Z"/></g><g id="text_64" data-name="text 64"><path id="DejaVuSansMono-Bold-76-16" data-name="DejaVuSansMono-Bold-76" d="M821.1,232.47V220.06h2.45v10.25h5.24v2.16Z"/><path id="DejaVuSansMono-Bold-82-10" data-name="DejaVuSansMono-Bold-82" d="M846.42,226.61a1.23,1.23,0,0,1,.64.35,4.37,4.37,0,0,1,.66,1l2.24,4.46h-2.69l-1.49-3.13c0-.09-.11-.21-.18-.37-.44-.94-1-1.4-1.55-1.4h-.77v4.9h-2.46V220.06h3.54a5.52,5.52,0,0,1,3.44.85,3.38,3.38,0,0,1,1,2.76,3.16,3.16,0,0,1-.62,2A2.67,2.67,0,0,1,846.42,226.61Zm-3.14-4.49v3.39h1.15a2.08,2.08,0,0,0,1.44-.4,2.13,2.13,0,0,0,0-2.59,2.1,2.1,0,0,0-1.44-.4Z"/><path id="DejaVuSansMono-Bold-75-7" data-name="DejaVuSansMono-Bold-75" d="M861.18,220.06h2.45V225l3.84-4.91h2.77L866.33,225l4,7.52h-2.72l-2.94-5.58-1.09,1.38v4.2h-2.45Z"/><path id="DejaVuSansMono-Bold-71-10" data-name="DejaVuSansMono-Bold-71" d="M887.94,230.23v-2.37h-1.68V225.8h3.82v5.68a5,5,0,0,1-3.38,1.23A4.45,4.45,0,0,1,883,231a9.33,9.33,0,0,1,0-9.55,4.62,4.62,0,0,1,3.83-1.65,5.33,5.33,0,0,1,1.47.21,5.48,5.48,0,0,1,1.35.61v2.72a3.47,3.47,0,0,0-1.18-1A3.31,3.31,0,0,0,887,222a2.33,2.33,0,0,0-2.09,1.06,6,6,0,0,0-.68,3.18,6.11,6.11,0,0,0,.66,3.15,2.14,2.14,0,0,0,1.94,1.08,3.18,3.18,0,0,0,.66-.07A1.31,1.31,0,0,0,887.94,230.23Z"/><path id="DejaVuSansMono-Bold-69-11" data-name="DejaVuSansMono-Bold-69" d="M910.3,232.47h-7.72V220.06h7.72v2.17H905v2.67h4.77v2.16H905v3.25h5.27Z"/><path id="DejaVuSansMono-Bold-84-8" data-name="DejaVuSansMono-Bold-84" d="M928,232.47h-2.46V222.21h-3.15v-2.15h8.75v2.15H928Z"/><path id="DejaVuSansMono-Bold-68-6" data-name="DejaVuSansMono-Bold-68" d="M945.74,222.28v8h.67a2.3,2.3,0,0,0,2.06-.91,5.8,5.8,0,0,0,.61-3.1,5.72,5.72,0,0,0-.61-3.07,2.32,2.32,0,0,0-2.06-.9Zm-2.45-2.22h2.63a5.74,5.74,0,0,1,4.38,1.46q1.34,1.44,1.33,4.73T950.3,231a5.74,5.74,0,0,1-4.38,1.46h-2.63Z"/><path id="DejaVuSansMono-Bold-73-10" data-name="DejaVuSansMono-Bold-73" d="M964.07,222.23v-2.17h7.39v2.17H969v8.08h2.47v2.16h-7.39v-2.16h2.47v-8.08Z"/><path id="DejaVuSansMono-Bold-71-11" data-name="DejaVuSansMono-Bold-71" d="M990.37,230.23v-2.37H988.7V225.8h3.82v5.68a5.14,5.14,0,0,1-1.56.92,5.25,5.25,0,0,1-1.83.31,4.48,4.48,0,0,1-3.72-1.67,7.62,7.62,0,0,1-1.31-4.76,7.49,7.49,0,0,1,1.33-4.79,4.61,4.61,0,0,1,3.82-1.65,5.22,5.22,0,0,1,1.47.21,5.55,5.55,0,0,1,1.36.61v2.72a3.5,3.5,0,0,0-1.19-1,3.23,3.23,0,0,0-1.46-.34,2.32,2.32,0,0,0-2.09,1.06,5.86,5.86,0,0,0-.69,3.18,6,6,0,0,0,.67,3.15,2.12,2.12,0,0,0,1.93,1.08,3.21,3.21,0,0,0,.67-.07A1.25,1.25,0,0,0,990.37,230.23Z"/><path id="DejaVuSansMono-Bold-82-11" data-name="DejaVuSansMono-Bold-82" d="M1010.32,226.61a1.27,1.27,0,0,1,.64.35,4.37,4.37,0,0,1,.66,1l2.24,4.46h-2.69l-1.5-3.13-.17-.37c-.44-.94-1-1.4-1.55-1.4h-.78v4.9h-2.45V220.06h3.54a5.52,5.52,0,0,1,3.44.85,3.38,3.38,0,0,1,1,2.76,3.16,3.16,0,0,1-.62,2A2.69,2.69,0,0,1,1010.32,226.61Zm-3.15-4.49v3.39h1.16a2.08,2.08,0,0,0,1.44-.4,2.17,2.17,0,0,0,0-2.59,2.14,2.14,0,0,0-1.44-.4Z"/><path id="DejaVuSansMono-Bold-75-8" data-name="DejaVuSansMono-Bold-75" d="M1025.08,220.06h2.45V225l3.83-4.91h2.78l-3.91,4.89,4,7.52h-2.72l-3-5.58-1.08,1.38v4.2h-2.45Z"/><path id="DejaVuSansMono-Bold-78-5" data-name="DejaVuSansMono-Bold-78" d="M1045.58,220.06h2.63l3.46,9v-9h2.16v12.41h-2.62l-3.47-9v9h-2.16Z"/><path id="DejaVuSansMono-Bold-84-9" data-name="DejaVuSansMono-Bold-84" d="M1071.43,232.47H1069V222.21h-3.16v-2.15h8.75v2.15h-3.14Z"/></g><g id="text_65" data-name="text 65"><path id="DejaVuSans-124-22" data-name="DejaVuSans-124" d="M820.63,207.89v9.05h-.75v-9.05Z"/></g><g id="text_66" data-name="text 66"><path id="DejaVuSans-49-18" data-name="DejaVuSans-49" d="M820.07,203.47h1.75v-6l-1.9.38v-1l1.89-.39h1.07v7h1.75v.9h-4.56Z"/><path id="DejaVuSans-51-2" data-name="DejaVuSans-51" d="M830,200.1a2,2,0,0,1,1.2.69,1.91,1.91,0,0,1,.44,1.28,2.17,2.17,0,0,1-.81,1.81,3.59,3.59,0,0,1-2.29.65,6.29,6.29,0,0,1-1-.1,8.54,8.54,0,0,1-1.09-.3v-1a4,4,0,0,0,1,.39,4.44,4.44,0,0,0,1.11.13,2.54,2.54,0,0,0,1.53-.39,1.37,1.37,0,0,0,.53-1.16,1.3,1.3,0,0,0-.49-1.09,2.08,2.08,0,0,0-1.36-.4h-.93v-.88h1a2,2,0,0,0,1.21-.32,1.06,1.06,0,0,0,.42-.91,1.1,1.1,0,0,0-.44-.93,2,2,0,0,0-1.23-.33,4.65,4.65,0,0,0-1,.1,8.34,8.34,0,0,0-1.11.29v-.95a9.61,9.61,0,0,1,1.15-.25,6,6,0,0,1,1-.09,3.06,3.06,0,0,1,1.93.56,1.78,1.78,0,0,1,.71,1.49,1.63,1.63,0,0,1-.38,1.11A1.86,1.86,0,0,1,830,200.1Z"/><path id="DejaVuSans-51-3" data-name="DejaVuSans-51" d="M837,200.1a2,2,0,0,1,1.2.69,1.91,1.91,0,0,1,.44,1.28,2.17,2.17,0,0,1-.81,1.81,3.59,3.59,0,0,1-2.29.65,6.29,6.29,0,0,1-1-.1,8.54,8.54,0,0,1-1.09-.3v-1a4,4,0,0,0,1,.39,4.44,4.44,0,0,0,1.11.13,2.54,2.54,0,0,0,1.53-.39,1.37,1.37,0,0,0,.53-1.16A1.3,1.3,0,0,0,837,201a2.08,2.08,0,0,0-1.36-.4h-.93v-.88h1a2,2,0,0,0,1.21-.32,1.06,1.06,0,0,0,.41-.91,1.1,1.1,0,0,0-.43-.93,2,2,0,0,0-1.23-.33,4.65,4.65,0,0,0-.95.1,8.34,8.34,0,0,0-1.11.29v-.95a9.61,9.61,0,0,1,1.15-.25,6,6,0,0,1,1-.09,3.06,3.06,0,0,1,1.93.56,1.78,1.78,0,0,1,.71,1.49,1.68,1.68,0,0,1-.38,1.11A1.86,1.86,0,0,1,837,200.1Z"/></g><g id="text_67" data-name="text 67"><path id="DejaVuSansMono-Bold-82-12" data-name="DejaVuSansMono-Bold-82" d="M1088.54,226.61a1.24,1.24,0,0,1,.63.35,4.37,4.37,0,0,1,.66,1l2.25,4.46h-2.69l-1.5-3.13-.17-.37c-.44-.94-1-1.4-1.55-1.4h-.78v4.9h-2.45V220.06h3.54a5.49,5.49,0,0,1,3.43.85,3.36,3.36,0,0,1,1,2.76,3.11,3.11,0,0,1-.63,2A2.65,2.65,0,0,1,1088.54,226.61Zm-3.15-4.49v3.39h1.15a2.11,2.11,0,0,0,1.45-.4,2.17,2.17,0,0,0,0-2.59,2.15,2.15,0,0,0-1.45-.4Z"/><path id="DejaVuSansMono-Bold-86-8" data-name="DejaVuSansMono-Bold-86" d="M1107.44,230.42l2.18-10.36h2.47l-2.95,12.41h-3.39l-3-12.41h2.47Z"/><path id="DejaVuSansMono-Bold-82-13" data-name="DejaVuSansMono-Bold-82" d="M1129.51,226.61a1.23,1.23,0,0,1,.64.35,4.37,4.37,0,0,1,.66,1l2.24,4.46h-2.69l-1.5-3.13-.17-.37c-.44-.94-1-1.4-1.55-1.4h-.77v4.9h-2.46V220.06h3.54a5.52,5.52,0,0,1,3.44.85,3.38,3.38,0,0,1,1,2.76,3.16,3.16,0,0,1-.62,2A2.69,2.69,0,0,1,1129.51,226.61Zm-3.14-4.49v3.39h1.15a2.08,2.08,0,0,0,1.44-.4,2.13,2.13,0,0,0,0-2.59,2.12,2.12,0,0,0-1.44-.4Z"/><path id="DejaVuSansMono-Bold-76-17" data-name="DejaVuSansMono-Bold-76" d="M1145.16,232.47V220.06h2.46v10.25h5.24v2.16Z"/><path id="DejaVuSansMono-Bold-86-9" data-name="DejaVuSansMono-Bold-86" d="M1168.9,230.42l2.19-10.36h2.46l-3,12.41h-3.39l-3-12.41h2.46Z"/></g><g id="text_68" data-name="text 68"><path id="DejaVuSans-124-23" data-name="DejaVuSans-124" d="M1083.23,207.89v9.05h-.75v-9.05Z"/></g><g id="text_69" data-name="text 69"><path id="DejaVuSans-49-19" data-name="DejaVuSans-49" d="M1082.68,203.47h1.75v-6l-1.91.38v-1l1.9-.39h1.07v7h1.75v.9h-4.56Z"/><path id="DejaVuSans-52-3" data-name="DejaVuSans-52" d="M1092.34,197.39l-2.7,4.22h2.7Zm-.28-.94h1.35v5.16h1.13v.89h-1.13v1.87h-1.07V202.5h-3.57v-1Z"/><path id="DejaVuSans-54-3" data-name="DejaVuSans-54" d="M1098.73,200a1.41,1.41,0,0,0-1.14.49,2.38,2.38,0,0,0,0,2.7,1.42,1.42,0,0,0,1.14.5,1.44,1.44,0,0,0,1.15-.5,2.38,2.38,0,0,0,0-2.7A1.43,1.43,0,0,0,1098.73,200Zm2.13-3.36v1a5.25,5.25,0,0,0-.81-.29,3.91,3.91,0,0,0-.82-.1,1.92,1.92,0,0,0-1.62.72,3.93,3.93,0,0,0-.64,2.16,2.15,2.15,0,0,1,.79-.71,2.24,2.24,0,0,1,1-.24,2.49,2.49,0,0,1,1.88.72,2.73,2.73,0,0,1,.69,2,2.69,2.69,0,0,1-.72,2,2.57,2.57,0,0,1-1.92.74,2.39,2.39,0,0,1-2.1-1.06,5.39,5.39,0,0,1-.72-3.05,4.61,4.61,0,0,1,.89-3,2.88,2.88,0,0,1,2.39-1.12,4.45,4.45,0,0,1,.81.08A5.08,5.08,0,0,1,1100.86,196.63Z"/></g><g id="text_70" data-name="text 70"><path id="DejaVuSansMono-Bold-70-3" data-name="DejaVuSansMono-Bold-70" d="M182.06,302.51h-5.27v2.67h4.8v2.16h-4.8v5.41h-2.45V300.34h7.72Z"/><path id="DejaVuSansMono-Bold-82-14" data-name="DejaVuSansMono-Bold-82" d="M200,306.89a1.24,1.24,0,0,1,.63.35,4.37,4.37,0,0,1,.66,1.05l2.25,4.46h-2.69l-1.5-3.13-.17-.37c-.44-.94-1-1.4-1.55-1.4h-.78v4.9h-2.45V300.34H198a5.49,5.49,0,0,1,3.43.85,3.36,3.36,0,0,1,1.05,2.76,3.11,3.11,0,0,1-.63,2A2.65,2.65,0,0,1,200,306.89Zm-3.15-4.49v3.39H198a2.18,2.18,0,0,0,1.45-.4,2.17,2.17,0,0,0,0-2.59,2.1,2.1,0,0,0-1.45-.4Z"/><path id="DejaVuSansMono-Bold-86-10" data-name="DejaVuSansMono-Bold-86" d="M218.92,310.7l2.18-10.36h2.47l-2.95,12.41h-3.4l-2.95-12.41h2.47Z"/><path id="DejaVuSansMono-Bold-72-9" data-name="DejaVuSansMono-Bold-72" d="M235.43,300.34h2.45v4.73h3.06v-4.73h2.45v12.41h-2.45v-5.52h-3.06v5.52h-2.45Z"/><path id="DejaVuSansMono-Bold-86-11" data-name="DejaVuSansMono-Bold-86" d="M259.89,310.7l2.19-10.36h2.47l-2.95,12.41h-3.4l-2.95-12.41h2.47Z"/><path id="DejaVuSansMono-Bold-80-9" data-name="DejaVuSansMono-Bold-80" d="M279.06,302.4V306h1a2.67,2.67,0,0,0,1.69-.4,1.73,1.73,0,0,0,.49-1.41,1.75,1.75,0,0,0-.49-1.42,2.66,2.66,0,0,0-1.69-.41Zm-2.45-2.06H280a5.89,5.89,0,0,1,3.7.92,4.48,4.48,0,0,1,0,5.93,5.89,5.89,0,0,1-3.7.91h-.91v4.65h-2.45Z"/><path id="DejaVuSansMono-Bold-81-6" data-name="DejaVuSansMono-Bold-81" d="M301.2,312.94l-.2,0h-.15a3.64,3.64,0,0,1-3.23-1.63,11,11,0,0,1,0-9.61,4.07,4.07,0,0,1,6.51,0,8.64,8.64,0,0,1,1.1,4.81,11,11,0,0,1-.52,3.66,4,4,0,0,1-1.52,2.11l1.54,1.51-1.68,1.24Zm-.33-10.62a1.43,1.43,0,0,0-1.37,1,12.11,12.11,0,0,0,0,6.47,1.44,1.44,0,0,0,2.74,0,12.11,12.11,0,0,0,0-6.47A1.43,1.43,0,0,0,300.87,302.32Z"/></g><g id="text_71" data-name="text 71"><path id="DejaVuSans-124-24" data-name="DejaVuSans-124" d="M174.22,288.17v9.05h-.75v-9.05Z"/></g><g id="text_72" data-name="text 72"><path id="DejaVuSans-49-20" data-name="DejaVuSans-49" d="M173.67,283.75h1.75v-6l-1.91.38v-1l1.9-.38h1.07v7h1.75v.9h-4.56Z"/><path id="DejaVuSans-53-5" data-name="DejaVuSans-53" d="M180.4,276.73h4.21v.91h-3.23v1.94a2,2,0,0,1,.47-.12,2.49,2.49,0,0,1,.47,0,3,3,0,0,1,2.1.72,2.6,2.6,0,0,1,.77,2,2.54,2.54,0,0,1-.79,2,3.28,3.28,0,0,1-2.25.71,5.83,5.83,0,0,1-1-.09,9.12,9.12,0,0,1-1.07-.25v-1.08a4.63,4.63,0,0,0,1,.39,4.55,4.55,0,0,0,1.07.12,2.08,2.08,0,0,0,1.45-.48,1.86,1.86,0,0,0,0-2.62,2.08,2.08,0,0,0-1.45-.48,4.19,4.19,0,0,0-.86.09,5.63,5.63,0,0,0-.87.3Z"/><path id="DejaVuSans-49-21" data-name="DejaVuSans-49" d="M187.49,283.75h1.75v-6l-1.91.38v-1l1.9-.38h1.07v7h1.75v.9h-4.56Z"/></g><g id="text_73" data-name="text 73"><path id="DejaVuSansMono-Bold-80-10" data-name="DejaVuSansMono-Bold-80" d="M318,302.4V306h1a2.69,2.69,0,0,0,1.69-.4,1.77,1.77,0,0,0,.49-1.41,1.79,1.79,0,0,0-.49-1.42,2.68,2.68,0,0,0-1.69-.41Zm-2.45-2.06h3.37a5.87,5.87,0,0,1,3.69.92,4.45,4.45,0,0,1,0,5.93,5.88,5.88,0,0,1-3.69.91H318v4.65h-2.45Z"/><path id="DejaVuSansMono-Bold-83-11" data-name="DejaVuSansMono-Bold-83" d="M339,307.31a6.27,6.27,0,0,1-2.51-1.49,3.15,3.15,0,0,1-.65-2.09,3.35,3.35,0,0,1,1.08-2.64,4.26,4.26,0,0,1,3-1,7.68,7.68,0,0,1,1.71.2,8.94,8.94,0,0,1,1.7.57v2.4a6.26,6.26,0,0,0-1.61-.85,4.57,4.57,0,0,0-1.61-.29,2.22,2.22,0,0,0-1.36.36,1.17,1.17,0,0,0-.47,1,1.15,1.15,0,0,0,.34.85,4.56,4.56,0,0,0,1.44.74l1.06.4a4.84,4.84,0,0,1,2.2,1.45,3.64,3.64,0,0,1,.71,2.29,3.46,3.46,0,0,1-1.11,2.81,5.19,5.19,0,0,1-3.35.92,7.73,7.73,0,0,1-1.85-.22,8.71,8.71,0,0,1-1.79-.65v-2.54a8.14,8.14,0,0,0,1.89,1,5.18,5.18,0,0,0,1.82.34,2.11,2.11,0,0,0,1.4-.41,1.41,1.41,0,0,0,.5-1.15,1.5,1.5,0,0,0-.33-1,2.26,2.26,0,0,0-1-.67Z"/><path id="DejaVuSansMono-Bold-71-12" data-name="DejaVuSansMono-Bold-71" d="M362.45,310.5v-2.36h-1.68v-2.06h3.82v5.68a5.14,5.14,0,0,1-1.56.92,5.19,5.19,0,0,1-1.82.31,4.45,4.45,0,0,1-3.72-1.67,9.27,9.27,0,0,1,0-9.55,4.61,4.61,0,0,1,3.82-1.65,5.22,5.22,0,0,1,1.47.21,5.39,5.39,0,0,1,1.36.61v2.72a3.41,3.41,0,0,0-1.19-1,3.11,3.11,0,0,0-1.46-.34,2.33,2.33,0,0,0-2.09,1.05,5.9,5.9,0,0,0-.69,3.19,6.1,6.1,0,0,0,.67,3.15,2.13,2.13,0,0,0,1.93,1.08,3.21,3.21,0,0,0,.67-.07A1.16,1.16,0,0,0,362.45,310.5Z"/></g><g id="text_74" data-name="text 74"><path id="DejaVuSans-124-25" data-name="DejaVuSans-124" d="M315.62,288.17v9.05h-.75v-9.05Z"/></g><g id="text_75" data-name="text 75"><path id="DejaVuSans-49-22" data-name="DejaVuSans-49" d="M315.07,283.75h1.75v-6l-1.9.38v-1l1.89-.38h1.07v7h1.75v.9h-4.56Z"/><path id="DejaVuSans-53-6" data-name="DejaVuSans-53" d="M321.8,276.73H326v.91h-3.22v1.94a2,2,0,0,1,.46-.12,2.49,2.49,0,0,1,.47,0,3,3,0,0,1,2.1.72,2.9,2.9,0,0,1,0,4,3.28,3.28,0,0,1-2.25.71,5.83,5.83,0,0,1-1-.09,9.12,9.12,0,0,1-1.07-.25v-1.08a4.07,4.07,0,0,0,2.06.51,2.08,2.08,0,0,0,1.45-.48,1.86,1.86,0,0,0,0-2.62,2.08,2.08,0,0,0-1.45-.48,4.09,4.09,0,0,0-.85.09,5.39,5.39,0,0,0-.88.3Z"/><path id="DejaVuSans-56-6" data-name="DejaVuSans-56" d="M331,280.89a1.69,1.69,0,0,0-1.2.41,1.69,1.69,0,0,0,0,2.25,1.69,1.69,0,0,0,1.2.41,1.74,1.74,0,0,0,1.21-.41,1.49,1.49,0,0,0,.44-1.13,1.47,1.47,0,0,0-.44-1.12A1.7,1.7,0,0,0,331,280.89Zm-1.07-.45a2,2,0,0,1-1.07-.65,1.73,1.73,0,0,1-.38-1.15,1.84,1.84,0,0,1,.67-1.5,3.4,3.4,0,0,1,3.71,0,1.84,1.84,0,0,1,.67,1.5,1.73,1.73,0,0,1-.38,1.15,2,2,0,0,1-1.07.65,2.13,2.13,0,0,1,1.21.7,2,2,0,0,1,.43,1.28,2.25,2.25,0,0,1-.7,1.77,3.58,3.58,0,0,1-4,0,2.22,2.22,0,0,1-.7-1.77,1.94,1.94,0,0,1,.43-1.28A2.16,2.16,0,0,1,329.92,280.44Zm-.39-1.7a1.24,1.24,0,0,0,.38,1,1.84,1.84,0,0,0,2.16,0,1.38,1.38,0,0,0,0-1.92,1.89,1.89,0,0,0-2.16,0A1.24,1.24,0,0,0,329.53,278.74Z"/></g><g id="text_76" data-name="text 76"><path id="DejaVuSansMono-Bold-82-15" data-name="DejaVuSansMono-Bold-82" d="M381.53,306.89a1.23,1.23,0,0,1,.64.35,4.37,4.37,0,0,1,.66,1.05l2.24,4.46h-2.69l-1.5-3.13-.17-.37c-.44-.94-.95-1.4-1.55-1.4h-.77v4.9h-2.46V300.34h3.54a5.52,5.52,0,0,1,3.44.85,3.38,3.38,0,0,1,1,2.76,3.16,3.16,0,0,1-.62,2A2.69,2.69,0,0,1,381.53,306.89Zm-3.14-4.49v3.39h1.15a2.14,2.14,0,0,0,1.44-.4,2.13,2.13,0,0,0,0-2.59,2.07,2.07,0,0,0-1.44-.4Z"/><path id="DejaVuSansMono-Bold-84-10" data-name="DejaVuSansMono-Bold-84" d="M401.66,312.75h-2.45V302.49h-3.15v-2.15h8.75v2.15h-3.15Z"/><path id="DejaVuSansMono-Bold-76-18" data-name="DejaVuSansMono-Bold-76" d="M417.67,312.75V300.34h2.45v10.25h5.25v2.16Z"/><path id="DejaVuSansMono-Bold-83-12" data-name="DejaVuSansMono-Bold-83" d="M440.53,307.31a6.2,6.2,0,0,1-2.51-1.49,3.1,3.1,0,0,1-.66-2.09,3.35,3.35,0,0,1,1.08-2.64,4.27,4.27,0,0,1,3-1,7.68,7.68,0,0,1,1.71.2,9.09,9.09,0,0,1,1.69.57v2.4a6.2,6.2,0,0,0-1.6-.85,4.61,4.61,0,0,0-1.61-.29,2.26,2.26,0,0,0-1.37.36,1.19,1.19,0,0,0-.47,1,1.15,1.15,0,0,0,.35.85,4.56,4.56,0,0,0,1.44.74l1.05.4a4.78,4.78,0,0,1,2.2,1.45,3.58,3.58,0,0,1,.71,2.29,3.46,3.46,0,0,1-1.11,2.81,5.17,5.17,0,0,1-3.35.92,7.86,7.86,0,0,1-1.85-.22,8.92,8.92,0,0,1-1.79-.65v-2.54a8.39,8.39,0,0,0,1.9,1,5.14,5.14,0,0,0,1.82.34,2.11,2.11,0,0,0,1.4-.41,1.41,1.41,0,0,0,.5-1.15,1.45,1.45,0,0,0-.34-1,2.26,2.26,0,0,0-1-.67Z"/><path id="DejaVuSansMono-Bold-76-19" data-name="DejaVuSansMono-Bold-76" d="M458.65,312.75V300.34h2.45v10.25h5.24v2.16Z"/><path id="DejaVuSansMono-Bold-81-7" data-name="DejaVuSansMono-Bold-81" d="M482.71,312.94l-.19,0h-.15a3.64,3.64,0,0,1-3.24-1.63,11,11,0,0,1,0-9.61,4.07,4.07,0,0,1,6.51,0,8.56,8.56,0,0,1,1.1,4.81,11,11,0,0,1-.52,3.66,4,4,0,0,1-1.52,2.11l1.54,1.51-1.67,1.24Zm-.33-10.62a1.45,1.45,0,0,0-1.37,1,12.38,12.38,0,0,0,0,6.47,1.45,1.45,0,0,0,2.75,0,12.38,12.38,0,0,0,0-6.47A1.45,1.45,0,0,0,482.38,302.32Z"/><path id="DejaVuSansMono-Bold-86-12" data-name="DejaVuSansMono-Bold-86" d="M502.87,310.7l2.18-10.36h2.47l-2.95,12.41h-3.39l-3-12.41h2.47Z"/><path id="DejaVuSansMono-Bold-65-10" data-name="DejaVuSansMono-Bold-65" d="M523.36,302.59l-1.16,5.07h2.32Zm-1.5-2.25h3l3.35,12.41h-2.45l-.77-3.07h-3.28l-.75,3.07h-2.45Z"/></g><g id="text_77" data-name="text 77"><path id="DejaVuSans-124-26" data-name="DejaVuSans-124" d="M376.22,288.17v9.05h-.75v-9.05Z"/></g><g id="text_78" data-name="text 78"><path id="DejaVuSans-49-23" data-name="DejaVuSans-49" d="M375.67,283.75h1.75v-6l-1.9.38v-1l1.89-.38h1.07v7h1.75v.9h-4.56Z"/><path id="DejaVuSans-54-4" data-name="DejaVuSans-54" d="M384.82,280.27a1.45,1.45,0,0,0-1.15.49,2.38,2.38,0,0,0,0,2.7,1.46,1.46,0,0,0,1.15.5,1.42,1.42,0,0,0,1.14-.5,2.38,2.38,0,0,0,0-2.7A1.41,1.41,0,0,0,384.82,280.27Zm2.12-3.36v1a4.9,4.9,0,0,0-.81-.29,3.82,3.82,0,0,0-.81-.1,1.92,1.92,0,0,0-1.62.72,3.74,3.74,0,0,0-.64,2.16,2.2,2.2,0,0,1,.78-.71,2.27,2.27,0,0,1,1-.24,2.51,2.51,0,0,1,1.89.72,2.73,2.73,0,0,1,.69,2,2.69,2.69,0,0,1-.72,2,2.57,2.57,0,0,1-1.92.74,2.39,2.39,0,0,1-2.1-1.06,5.31,5.31,0,0,1-.73-3.05,4.67,4.67,0,0,1,.89-3,2.89,2.89,0,0,1,2.39-1.12,4.65,4.65,0,0,1,.82.08A5,5,0,0,1,386.94,276.91Z"/><path id="DejaVuSans-49-24" data-name="DejaVuSans-49" d="M389.49,283.75h1.75v-6l-1.9.38v-1l1.89-.38h1.07v7h1.75v.9h-4.56Z"/></g><g id="text_79" data-name="text 79"><path id="DejaVuSansMono-Bold-83-13" data-name="DejaVuSansMono-Bold-83" d="M540.67,307.31a6.2,6.2,0,0,1-2.51-1.49,3.1,3.1,0,0,1-.66-2.09,3.35,3.35,0,0,1,1.08-2.64,4.27,4.27,0,0,1,3-1,7.68,7.68,0,0,1,1.71.2,9.09,9.09,0,0,1,1.69.57v2.4a6.2,6.2,0,0,0-1.6-.85,4.61,4.61,0,0,0-1.61-.29,2.26,2.26,0,0,0-1.37.36,1.19,1.19,0,0,0-.47,1,1.15,1.15,0,0,0,.35.85,4.56,4.56,0,0,0,1.44.74l1,.4a4.78,4.78,0,0,1,2.2,1.45,3.58,3.58,0,0,1,.71,2.29,3.46,3.46,0,0,1-1.11,2.81,5.19,5.19,0,0,1-3.35.92,7.86,7.86,0,0,1-1.85-.22,8.92,8.92,0,0,1-1.79-.65v-2.54a8.39,8.39,0,0,0,1.9,1,5.14,5.14,0,0,0,1.82.34,2.12,2.12,0,0,0,1.4-.41,1.41,1.41,0,0,0,.5-1.15,1.45,1.45,0,0,0-.34-1,2.26,2.26,0,0,0-1-.67Z"/><path id="DejaVuSansMono-Bold-78-6" data-name="DejaVuSansMono-Bold-78" d="M557.91,300.34h2.63l3.46,9v-9h2.15v12.41h-2.61l-3.48-9v9h-2.15Z"/><path id="DejaVuSansMono-Bold-80-11" data-name="DejaVuSansMono-Bold-80" d="M581.2,302.4V306h1a2.7,2.7,0,0,0,1.69-.4,1.76,1.76,0,0,0,.48-1.41,1.79,1.79,0,0,0-.48-1.42,2.7,2.7,0,0,0-1.69-.41Zm-2.45-2.06h3.36a5.89,5.89,0,0,1,3.7.92,4.48,4.48,0,0,1,0,5.93,5.89,5.89,0,0,1-3.7.91h-.91v4.65h-2.45Z"/><path id="DejaVuSansMono-Bold-73-11" data-name="DejaVuSansMono-Bold-73" d="M599.32,302.51v-2.17h7.39v2.17h-2.47v8.08h2.47v2.16h-7.39v-2.16h2.47v-8.08Z"/></g><g id="text_80" data-name="text 80"><path id="DejaVuSans-124-27" data-name="DejaVuSans-124" d="M537.83,288.17v9.05h-.76v-9.05Z"/></g><g id="text_81" data-name="text 81"><path id="DejaVuSans-49-25" data-name="DejaVuSans-49" d="M537.27,283.75H539v-6l-1.9.38v-1l1.89-.38h1.07v7h1.75v.9h-4.56Z"/><path id="DejaVuSans-54-5" data-name="DejaVuSans-54" d="M546.42,280.27a1.41,1.41,0,0,0-1.14.49,2.38,2.38,0,0,0,0,2.7,1.55,1.55,0,0,0,2.28,0,2.38,2.38,0,0,0,0-2.7A1.41,1.41,0,0,0,546.42,280.27Zm2.13-3.36v1a5,5,0,0,0-.82-.29,3.74,3.74,0,0,0-.81-.1,1.92,1.92,0,0,0-1.62.72,3.74,3.74,0,0,0-.64,2.16,2.2,2.2,0,0,1,.78-.71,2.27,2.27,0,0,1,1-.24,2.49,2.49,0,0,1,1.89.72,2.73,2.73,0,0,1,.69,2,2.69,2.69,0,0,1-.72,2,2.57,2.57,0,0,1-1.92.74,2.39,2.39,0,0,1-2.1-1.06,5.31,5.31,0,0,1-.73-3.05,4.67,4.67,0,0,1,.89-3,2.89,2.89,0,0,1,2.39-1.12,4.56,4.56,0,0,1,.82.08A5.35,5.35,0,0,1,548.55,276.91Z"/><path id="DejaVuSans-57-7" data-name="DejaVuSans-57" d="M550.94,284.49v-1a3.75,3.75,0,0,0,.81.29,3.34,3.34,0,0,0,.82.1,1.93,1.93,0,0,0,1.61-.71,3.78,3.78,0,0,0,.64-2.17,1.94,1.94,0,0,1-.78.7,2.13,2.13,0,0,1-1,.25,2.49,2.49,0,0,1-1.88-.72,2.73,2.73,0,0,1-.69-2,2.67,2.67,0,0,1,.72-1.95,2.57,2.57,0,0,1,1.92-.74,2.41,2.41,0,0,1,2.1,1.05,5.43,5.43,0,0,1,.72,3.06,4.69,4.69,0,0,1-.89,3,2.91,2.91,0,0,1-2.39,1.12,4.45,4.45,0,0,1-.81-.08A7.42,7.42,0,0,1,550.94,284.49Zm2.13-3.36a1.41,1.41,0,0,0,1.14-.49,2.4,2.4,0,0,0,0-2.71,1.57,1.57,0,0,0-2.28,0,2.4,2.4,0,0,0,0,2.71A1.41,1.41,0,0,0,553.07,281.13Z"/></g><g id="text_82" data-name="text 82"><path id="DejaVuSansMono-Bold-69-12" data-name="DejaVuSansMono-Bold-69" d="M626.35,312.75h-7.72V300.34h7.72v2.17h-5.27v2.67h4.77v2.16h-4.77v3.25h5.27Z"/></g><g id="text_83" data-name="text 83"><path id="DejaVuSans-124-28" data-name="DejaVuSans-124" d="M618.63,288.17v9.05h-.76v-9.05Z"/></g><g id="text_84" data-name="text 84"><path id="DejaVuSans-49-26" data-name="DejaVuSans-49" d="M618.07,283.75h1.75v-6l-1.9.38v-1l1.89-.38h1.07v7h1.75v.9h-4.56Z"/><path id="DejaVuSans-55-3" data-name="DejaVuSans-55" d="M624.53,276.73h5.09v.46l-2.88,7.46h-1.12l2.71-7h-3.8Z"/><path id="DejaVuSans-51-4" data-name="DejaVuSans-51" d="M635,280.38a2.07,2.07,0,0,1,1.2.69,1.91,1.91,0,0,1,.43,1.28,2.17,2.17,0,0,1-.8,1.81,3.59,3.59,0,0,1-2.29.65,6.19,6.19,0,0,1-1-.1,8.54,8.54,0,0,1-1.09-.3v-1a3.86,3.86,0,0,0,1,.39,4.44,4.44,0,0,0,1.11.13,2.54,2.54,0,0,0,1.53-.39,1.37,1.37,0,0,0,.53-1.16,1.33,1.33,0,0,0-.49-1.09,2.09,2.09,0,0,0-1.37-.4h-.92V280h1a2,2,0,0,0,1.2-.32,1.06,1.06,0,0,0,.42-.91,1.1,1.1,0,0,0-.43-.93,2,2,0,0,0-1.24-.33,4.56,4.56,0,0,0-.94.1,8.34,8.34,0,0,0-1.11.29v-.95a9.91,9.91,0,0,1,1.14-.25,6.1,6.1,0,0,1,1-.09,3.08,3.08,0,0,1,1.93.56,1.78,1.78,0,0,1,.71,1.49,1.68,1.68,0,0,1-.38,1.11A2,2,0,0,1,635,280.38Z"/></g><g id="text_85" data-name="text 85"><path id="DejaVuSansMono-Bold-67-2" data-name="DejaVuSansMono-Bold-67" d="M646.41,312.39a5.43,5.43,0,0,1-1.22.45,5.92,5.92,0,0,1-1.34.15,4.64,4.64,0,0,1-3.84-1.65,9.33,9.33,0,0,1,0-9.57,4.64,4.64,0,0,1,3.84-1.65,6,6,0,0,1,1.35.15,4.87,4.87,0,0,1,1.21.45v2.72a5,5,0,0,0-1.22-.85,3,3,0,0,0-1.23-.27,2.26,2.26,0,0,0-2,1.07,7.6,7.6,0,0,0,0,6.33,2.26,2.26,0,0,0,2,1.07,3,3,0,0,0,1.23-.27,5,5,0,0,0,1.22-.85Z"/><path id="DejaVuSansMono-Bold-83-14" data-name="DejaVuSansMono-Bold-83" d="M662.16,307.31a6.13,6.13,0,0,1-2.51-1.49,3.1,3.1,0,0,1-.66-2.09,3.35,3.35,0,0,1,1.08-2.64,4.27,4.27,0,0,1,3-1,7.68,7.68,0,0,1,1.71.2,9.09,9.09,0,0,1,1.69.57v2.4a6.37,6.37,0,0,0-1.6-.85,4.61,4.61,0,0,0-1.61-.29,2.24,2.24,0,0,0-1.37.36,1.19,1.19,0,0,0-.47,1,1.12,1.12,0,0,0,.35.85,4.56,4.56,0,0,0,1.44.74l1.05.4a4.84,4.84,0,0,1,2.2,1.45,3.64,3.64,0,0,1,.71,2.29,3.46,3.46,0,0,1-1.11,2.81,5.19,5.19,0,0,1-3.35.92,7.79,7.79,0,0,1-1.85-.22,8.92,8.92,0,0,1-1.79-.65v-2.54a8.19,8.19,0,0,0,1.9,1,5.08,5.08,0,0,0,1.81.34,2.09,2.09,0,0,0,1.4-.41,1.39,1.39,0,0,0,.5-1.15,1.5,1.5,0,0,0-.33-1,2.26,2.26,0,0,0-1-.67Z"/><path id="DejaVuSansMono-Bold-81-8" data-name="DejaVuSansMono-Bold-81" d="M683.85,312.94l-.19,0h-.15a3.64,3.64,0,0,1-3.24-1.63,11,11,0,0,1,0-9.61,4.07,4.07,0,0,1,6.51,0,8.56,8.56,0,0,1,1.1,4.81,11,11,0,0,1-.52,3.66,4,4,0,0,1-1.52,2.11l1.55,1.51-1.68,1.24Zm-.33-10.62a1.45,1.45,0,0,0-1.37,1,12.38,12.38,0,0,0,0,6.47,1.45,1.45,0,0,0,2.75,0,12.38,12.38,0,0,0,0-6.47A1.45,1.45,0,0,0,683.52,302.32Z"/><path id="DejaVuSansMono-Bold-82-16" data-name="DejaVuSansMono-Bold-82" d="M705.6,306.89a1.24,1.24,0,0,1,.63.35,4.37,4.37,0,0,1,.66,1.05l2.25,4.46h-2.7L705,309.62c-.05-.09-.1-.21-.17-.37-.44-.94-1-1.4-1.55-1.4h-.78v4.9H700V300.34h3.54a5.49,5.49,0,0,1,3.43.85,3.35,3.35,0,0,1,1,2.76,3.11,3.11,0,0,1-.62,2A2.65,2.65,0,0,1,705.6,306.89Zm-3.15-4.49v3.39h1.15a2.14,2.14,0,0,0,1.44-.4,2.15,2.15,0,0,0,0-2.59,2.1,2.1,0,0,0-1.45-.4Z"/><path id="DejaVuSansMono-Bold-83-15" data-name="DejaVuSansMono-Bold-83" d="M723.62,307.31a6.13,6.13,0,0,1-2.51-1.49,3.1,3.1,0,0,1-.66-2.09,3.35,3.35,0,0,1,1.08-2.64,4.27,4.27,0,0,1,3-1,7.68,7.68,0,0,1,1.71.2,9.09,9.09,0,0,1,1.69.57v2.4a6.2,6.2,0,0,0-1.6-.85,4.61,4.61,0,0,0-1.61-.29,2.26,2.26,0,0,0-1.37.36,1.19,1.19,0,0,0-.47,1,1.15,1.15,0,0,0,.35.85,4.56,4.56,0,0,0,1.44.74l1.05.4a4.84,4.84,0,0,1,2.2,1.45,3.58,3.58,0,0,1,.71,2.29,3.46,3.46,0,0,1-1.11,2.81,5.19,5.19,0,0,1-3.35.92,7.86,7.86,0,0,1-1.85-.22,8.92,8.92,0,0,1-1.79-.65v-2.54a8.19,8.19,0,0,0,1.9,1,5.12,5.12,0,0,0,1.81.34,2.14,2.14,0,0,0,1.41-.41,1.41,1.41,0,0,0,.5-1.15,1.51,1.51,0,0,0-.34-1,2.26,2.26,0,0,0-1-.67Z"/></g><g id="text_86" data-name="text 86"><path id="DejaVuSans-124-29" data-name="DejaVuSans-124" d="M638.83,288.17v9.05h-.76v-9.05Z"/></g><g id="text_87" data-name="text 87"><path id="DejaVuSans-49-27" data-name="DejaVuSans-49" d="M638.27,283.75H640v-6l-1.9.38v-1l1.89-.38h1.07v7h1.75v.9h-4.56Z"/><path id="DejaVuSans-55-4" data-name="DejaVuSans-55" d="M644.73,276.73h5.09v.46l-2.88,7.46h-1.12l2.71-7h-3.8Z"/><path id="DejaVuSans-52-4" data-name="DejaVuSans-52" d="M654.85,277.67l-2.71,4.22h2.71Zm-.28-.94h1.35v5.16h1.13v.89h-1.13v1.87h-1.07v-1.87h-3.57v-1Z"/></g><g id="text_88" data-name="text 88"><path id="DejaVuSansMono-67" class="cls-6" d="M751.89,337.19a5.8,5.8,0,0,1-2.74.69,4.4,4.4,0,0,1-3.7-1.69,9.17,9.17,0,0,1,0-9.48,4.42,4.42,0,0,1,3.7-1.7,5.64,5.64,0,0,1,2.74.68v1.72a4.69,4.69,0,0,0-1.32-.78,4.14,4.14,0,0,0-1.42-.26,2.72,2.72,0,0,0-2.45,1.26,9.26,9.26,0,0,0,0,7.62,2.72,2.72,0,0,0,2.45,1.26,4.15,4.15,0,0,0,1.43-.26,4.5,4.5,0,0,0,1.31-.78Z"/><path id="DejaVuSansMono-108" class="cls-6" d="M768.77,334.26a2.68,2.68,0,0,0,.38,1.56,1.3,1.3,0,0,0,1.12.52h1.78v1.3h-1.93a2.64,2.64,0,0,1-2.12-.88,3.7,3.7,0,0,1-.76-2.5v-8.45h-2.45v-1.19h4Z"/><path id="DejaVuSansMono-111" class="cls-6" d="M778.82,329.4a2,2,0,0,0-1.76.91,6.38,6.38,0,0,0,0,5.36,2.18,2.18,0,0,0,3.54,0,6.38,6.38,0,0,0,0-5.36A2,2,0,0,0,778.82,329.4Zm0-1.29a3.65,3.65,0,0,1,3,1.25,7,7,0,0,1,0,7.27,4.13,4.13,0,0,1-5.92,0,6.93,6.93,0,0,1,0-7.27A3.59,3.59,0,0,1,778.82,328.11Z"/><path id="DejaVuSansMono-111-2" data-name="DejaVuSansMono-111" class="cls-6" d="M789.07,329.4a2,2,0,0,0-1.76.91,6.29,6.29,0,0,0,0,5.36,2.17,2.17,0,0,0,3.53,0,6.29,6.29,0,0,0,0-5.36A2,2,0,0,0,789.07,329.4Zm0-1.29a3.61,3.61,0,0,1,3,1.25,6.93,6.93,0,0,1,0,7.27,4.13,4.13,0,0,1-5.92,0,7,7,0,0,1,0-7.27A3.61,3.61,0,0,1,789.07,328.11Z"/><path id="DejaVuSansMono-112" class="cls-6" d="M797.31,336.46v4.71h-1.54V328.33h1.54v1.19a2.65,2.65,0,0,1,1-1,2.9,2.9,0,0,1,1.46-.36,3.1,3.1,0,0,1,2.65,1.3,6,6,0,0,1,1,3.62,5.88,5.88,0,0,1-1,3.56,3.14,3.14,0,0,1-2.65,1.29,3,3,0,0,1-1.48-.36A2.62,2.62,0,0,1,797.31,336.46Zm4.48-3.47a5.1,5.1,0,0,0-.56-2.68,1.81,1.81,0,0,0-1.66-.91,1.87,1.87,0,0,0-1.69.91,6.59,6.59,0,0,0,0,5.36,1.87,1.87,0,0,0,1.69.91,1.82,1.82,0,0,0,1.66-.9A5.14,5.14,0,0,0,801.79,333Z"/></g><g id="text_89" data-name="text 89"><path id="DejaVuSans-124-30" data-name="DejaVuSans-124" d="M719.63,288.17v9.05h-.75v-9.05Z"/></g><g id="text_90" data-name="text 90"><path id="DejaVuSans-49-28" data-name="DejaVuSans-49" d="M719.07,283.75h1.75v-6l-1.9.38v-1l1.89-.38h1.07v7h1.75v.9h-4.56Z"/><path id="DejaVuSans-55-5" data-name="DejaVuSans-55" d="M725.53,276.73h5.09v.46l-2.88,7.46h-1.12l2.71-7h-3.8Z"/><path id="DejaVuSans-56-7" data-name="DejaVuSans-56" d="M735,280.89a1.69,1.69,0,0,0-1.2.41,1.66,1.66,0,0,0,0,2.25,2,2,0,0,0,2.4,0,1.49,1.49,0,0,0,.44-1.13,1.43,1.43,0,0,0-.44-1.12A1.69,1.69,0,0,0,735,280.89Zm-1.07-.45a2,2,0,0,1-1.08-.65,1.79,1.79,0,0,1-.38-1.15,1.84,1.84,0,0,1,.67-1.5,2.86,2.86,0,0,1,1.86-.55,2.82,2.82,0,0,1,1.85.55,1.84,1.84,0,0,1,.68,1.5,1.74,1.74,0,0,1-.39,1.15,1.92,1.92,0,0,1-1.07.65,2.13,2.13,0,0,1,1.21.7,1.94,1.94,0,0,1,.43,1.28,2.22,2.22,0,0,1-.7,1.77,3.58,3.58,0,0,1-4,0,2.25,2.25,0,0,1-.7-1.77,2,2,0,0,1,.44-1.28A2.13,2.13,0,0,1,733.93,280.44Zm-.4-1.7a1.21,1.21,0,0,0,.39,1,1.54,1.54,0,0,0,1.08.35,1.58,1.58,0,0,0,1.08-.35,1.38,1.38,0,0,0,0-1.92,1.57,1.57,0,0,0-1.08-.34,1.54,1.54,0,0,0-1.08.34A1.21,1.21,0,0,0,733.53,278.74Z"/></g><text class="cls-7" transform="translate(45.96 31.7)">N<tspan class="cls-8" x="14.44" y="0">F</tspan><tspan class="cls-9" x="25.56" y="0">A</tspan><tspan x="37.41" y="0">TC1</tspan><tspan x="-41.34" y="24">(residue 414-591)</tspan></text></svg>