<?xml version="1.0" encoding="UTF-8"?>
<svg id="_图层_1" data-name="图层 1" xmlns="http://www.w3.org/2000/svg" viewBox="0 0 766.95 242.34">
  <defs>
    <style>
      .cls-1 {
        stroke-width: 0px;
      }

      .cls-1, .cls-2, .cls-3, .cls-4, .cls-5 {
        fill: #000;
      }

      .cls-2 {
        font-size: 12.54px;
      }

      .cls-2, .cls-6, .cls-3, .cls-4, .cls-5 {
        isolation: isolate;
      }

      .cls-2, .cls-3, .cls-4 {
        font-family: ArialMT, Arial;
      }

      .cls-3, .cls-5 {
        font-size: 20px;
      }

      .cls-4 {
        font-size: 7.72px;
      }

      .cls-5 {
        font-family: AdobeSongStd-Light-GBpc-EUC-H, 'Adobe Song Std';
        font-weight: 300;
      }
    </style>
  </defs>
  <polygon class="cls-1" points="153.44 29.56 149.62 1.59 152.17 1.42 154.73 1.26 154.62 29.49 154.05 29.8 153.44 29.56"/>
  <polygon class="cls-1" points="154.1 30.5 132.88 48.17 132.2 48 132.37 47.12 153.44 29.56 154.05 29.8 154.1 30.5"/>
  <polygon class="cls-1" points="132.88 48.17 143.13 73.81 142.75 74.4 142.1 74.32 131.9 48.8 132.2 48 132.88 48.17"/>
  <polygon class="cls-1" points="143.13 73.81 170.68 71.98 171.13 72.53 171.16 73.09 143.11 74.95 142.75 74.4 143.13 73.81"/>
  <polygon class="cls-1" points="170.68 71.98 175.96 51.15 176.51 51.28 177.06 51.42 171.68 72.67 171.13 72.53 170.68 71.98"/>
  <g class="cls-6">
    <text class="cls-2" transform="translate(173.23 50.04)"><tspan x="0" y="0">O</tspan></text>
  </g>
  <polygon class="cls-1" points="171.79 41.65 154.1 30.5 154.05 29.8 154.62 29.49 172.4 40.69 172.1 41.17 171.79 41.65"/>
  <polygon class="cls-1" points="170.7 73 171.68 72.19 172.04 72.63 172.4 73.07 171.43 73.88 171.06 73.44 170.7 73"/>
  <polygon class="cls-1" points="172.49 75.63 173.94 74.42 174.3 74.86 174.67 75.3 173.21 76.51 172.85 76.07 172.49 75.63"/>
  <polygon class="cls-1" points="174.27 78.26 176.2 76.65 176.57 77.09 176.93 77.53 175 79.14 174.63 78.7 174.27 78.26"/>
  <polygon class="cls-1" points="176.05 80.89 178.47 78.89 178.83 79.32 179.19 79.76 176.78 81.77 176.42 81.33 176.05 80.89"/>
  <polygon class="cls-1" points="177.84 83.52 180.73 81.12 181.09 81.55 181.46 81.99 178.57 84.4 178.2 83.96 177.84 83.52"/>
  <polygon class="cls-1" points="179.62 86.15 182.99 83.35 183.36 83.78 183.72 84.22 180.35 87.03 179.99 86.59 179.62 86.15"/>
  <polygon class="cls-1" points="181.41 88.78 185.26 85.58 185.62 86.02 185.98 86.45 182.14 89.66 181.77 89.22 181.41 88.78"/>
  <g class="cls-6">
    <text class="cls-2" transform="translate(184.45 99.46)"><tspan x="0" y="0">O</tspan></text>
  </g>
  <polygon class="cls-1" points="217.14 90.19 195.78 95.86 195.34 93.34 194.91 90.82 216.94 89.01 217.35 89.54 217.14 90.19"/>
  <polygon class="cls-1" points="218 89.43 235.77 110.78 235.55 111.4 235.11 111.76 217.14 90.19 217.35 89.54 218 89.43"/>
  <polygon class="cls-1" points="235.77 110.78 263.15 106.06 263.57 106.56 263.31 107.19 235.64 111.96 235.55 111.4 235.77 110.78"/>
  <polygon class="cls-1" points="263.15 106.06 272.75 79.99 273.39 79.88 273.93 80.07 264.23 106.42 263.57 106.56 263.15 106.06"/>
  <polygon class="cls-1" points="272.75 79.99 254.97 58.64 255.2 58.02 255.87 57.94 273.83 79.51 273.39 79.88 272.75 79.99"/>
  <polygon class="cls-1" points="254.97 58.64 227.59 63.36 227.17 62.86 227.08 62.3 254.74 57.53 255.2 58.02 254.97 58.64"/>
  <polygon class="cls-1" points="227.6 62.38 226.63 63.19 226.26 62.76 225.9 62.32 226.87 61.51 227.24 61.94 227.6 62.38"/>
  <polygon class="cls-1" points="225.82 59.75 224.36 60.96 224 60.52 223.63 60.09 225.09 58.88 225.45 59.31 225.82 59.75"/>
  <polygon class="cls-1" points="224.03 57.12 222.1 58.73 221.74 58.29 221.37 57.85 223.3 56.25 223.67 56.68 224.03 57.12"/>
  <polygon class="cls-1" points="222.25 54.49 219.84 56.5 219.47 56.06 219.11 55.62 221.52 53.62 221.88 54.05 222.25 54.49"/>
  <polygon class="cls-1" points="220.46 51.86 217.57 54.27 217.21 53.83 216.84 53.39 219.74 50.99 220.1 51.42 220.46 51.86"/>
  <polygon class="cls-1" points="218.68 49.23 215.31 52.04 214.94 51.6 214.58 51.16 217.95 48.36 218.31 48.79 218.68 49.23"/>
  <polygon class="cls-1" points="216.89 46.6 213.05 49.81 212.68 49.37 212.32 48.93 216.16 45.73 216.53 46.16 216.89 46.6"/>
  <g class="cls-6">
    <text class="cls-2" transform="translate(195.04 46.09)"><tspan x="0" y="0">H</tspan></text>
    <text class="cls-2" transform="translate(204.1 46.09)"><tspan x="0" y="0">O</tspan></text>
  </g>
  <polygon class="cls-1" points="227.59 63.36 218 89.43 217.35 89.54 216.94 89.01 226.64 62.66 227.17 62.86 227.59 63.36"/>
  <polygon class="cls-1" points="254.74 57.53 260.29 36.78 262.69 37.66 265.1 38.55 255.87 57.94 255.2 58.02 254.74 57.53"/>
  <g class="cls-6">
    <text class="cls-2" transform="translate(260.14 36.42)"><tspan x="0" y="0">O</tspan></text>
    <text class="cls-2" transform="translate(269.9 36.42)"><tspan x="0" y="0">H</tspan></text>
  </g>
  <polygon class="cls-1" points="273.58 80.48 273.37 79.25 273.93 79.15 274.49 79.05 274.7 80.29 274.14 80.38 273.58 80.48"/>
  <polygon class="cls-1" points="276.65 80.22 276.35 78.46 276.91 78.36 277.47 78.27 277.77 80.03 277.21 80.13 276.65 80.22"/>
  <polygon class="cls-1" points="279.72 79.97 279.32 77.67 279.88 77.58 280.44 77.48 280.84 79.77 280.28 79.87 279.72 79.97"/>
  <polygon class="cls-1" points="282.79 79.71 282.3 76.89 282.86 76.79 283.42 76.69 283.91 79.52 283.35 79.61 282.79 79.71"/>
  <polygon class="cls-1" points="285.86 79.45 285.28 76.1 285.84 76 286.4 75.91 286.98 79.26 286.42 79.36 285.86 79.45"/>
  <polygon class="cls-1" points="288.92 79.2 288.25 75.31 288.81 75.22 289.38 75.12 290.05 79.01 289.49 79.1 288.92 79.2"/>
  <polygon class="cls-1" points="291.99 78.94 291.23 74.53 291.79 74.43 292.35 74.33 293.11 78.75 292.55 78.85 291.99 78.94"/>
  <polygon class="cls-1" points="295.06 78.69 294.21 73.74 294.77 73.64 295.33 73.55 296.18 78.49 295.62 78.59 295.06 78.69"/>
  <g class="cls-6">
    <text class="cls-2" transform="translate(296.89 80.12)"><tspan x="0" y="0">N</tspan></text>
  </g>
  <polygon class="cls-1" points="307.18 81.08 316.57 97.22 316.08 97.51 315.59 97.79 306.19 81.66 306.69 81.37 307.18 81.08"/>
  <polygon class="cls-1" points="304.43 83.12 319.78 96.29 319.62 96.9 318.94 97.07 303.69 83.98 304.06 83.55 304.43 83.12"/>
  <polygon class="cls-1" points="319.78 96.29 341.88 92.48 341.97 93.04 342.07 93.6 320.04 97.4 319.62 96.9 319.78 96.29"/>
  <g class="cls-6">
    <text class="cls-2" transform="translate(343.11 95.53)"><tspan x="0" y="0">N</tspan></text>
    <text class="cls-2" transform="translate(352.17 95.53)"><tspan x="0" y="0">H</tspan></text>
    <text class="cls-4" transform="translate(361.22 97.45)"><tspan x="0" y="0">2</tspan></text>
  </g>
  <polygon class="cls-1" points="320.04 97.4 312.65 117.45 312.12 117.26 311.58 117.06 318.94 97.07 319.62 96.9 320.04 97.4"/>
  <g class="cls-6">
    <text class="cls-2" transform="translate(292.02 127.04)"><tspan x="0" y="0">H</tspan></text>
    <text class="cls-4" transform="translate(301.08 128.97)"><tspan x="0" y="0">2</tspan></text>
    <text class="cls-2" transform="translate(305.37 127.04)"><tspan x="0" y="0">N</tspan></text>
  </g>
  <polygon class="cls-1" points="264.23 106.42 278.47 120.45 276.5 122.09 274.53 123.73 263.31 107.19 263.57 106.56 264.23 106.42"/>
  <g class="cls-6">
    <text class="cls-2" transform="translate(276.89 133.49)"><tspan x="0" y="0">O</tspan></text>
    <text class="cls-2" transform="translate(286.64 133.49)"><tspan x="0" y="0">H</tspan></text>
  </g>
  <polygon class="cls-1" points="234.93 111.26 236.1 111.7 235.91 112.23 235.71 112.76 234.53 112.33 234.73 111.8 234.93 111.26"/>
  <polygon class="cls-1" points="233.45 114.36 235.22 115.01 235.02 115.54 234.83 116.07 233.06 115.42 233.26 114.89 233.45 114.36"/>
  <polygon class="cls-1" points="231.98 117.45 234.34 118.32 234.14 118.85 233.94 119.38 231.59 118.52 231.78 117.98 231.98 117.45"/>
  <polygon class="cls-1" points="230.51 120.54 233.45 121.63 233.25 122.16 233.06 122.69 230.11 121.61 230.31 121.08 230.51 120.54"/>
  <polygon class="cls-1" points="229.03 123.64 232.56 124.94 232.37 125.47 232.17 126 228.64 124.7 228.84 124.17 229.03 123.64"/>
  <polygon class="cls-1" points="227.56 126.73 231.68 128.25 231.48 128.78 231.29 129.31 227.17 127.8 227.36 127.27 227.56 126.73"/>
  <polygon class="cls-1" points="226.09 129.82 230.79 131.56 230.6 132.09 230.4 132.63 225.69 130.89 225.89 130.36 226.09 129.82"/>
  <g class="cls-6">
    <text class="cls-2" transform="translate(221.19 143.16)"><tspan x="0" y="0">N</tspan></text>
  </g>
  <polygon class="cls-1" points="220.07 139.63 198.96 140.08 198.95 139.51 198.94 138.94 220.04 138.49 220.06 139.06 220.07 139.63"/>
  <polygon class="cls-1" points="219.65 136.24 198.14 143.37 197.7 142.91 197.89 142.25 219.3 135.16 219.47 135.7 219.65 136.24"/>
  <polygon class="cls-1" points="198.14 143.37 190.73 163.47 190.2 163.28 189.67 163.08 197.05 143.03 197.7 142.91 198.14 143.37"/>
  <g class="cls-6">
    <text class="cls-2" transform="translate(170.11 173.06)"><tspan x="0" y="0">H</tspan></text>
    <text class="cls-4" transform="translate(179.16 174.99)"><tspan x="0" y="0">2</tspan></text>
    <text class="cls-2" transform="translate(183.45 173.06)"><tspan x="0" y="0">N</tspan></text>
  </g>
  <polygon class="cls-1" points="197.05 143.03 184.33 127.75 184.77 127.39 185.2 127.02 197.89 142.25 197.7 142.91 197.05 143.03"/>
  <g class="cls-6">
    <text class="cls-2" transform="translate(161.73 124.53)"><tspan x="0" y="0">H</tspan></text>
    <text class="cls-4" transform="translate(170.79 126.46)"><tspan x="0" y="0">2</tspan></text>
    <text class="cls-2" transform="translate(175.08 124.53)"><tspan x="0" y="0">N</tspan></text>
  </g>
  <polygon class="cls-1" points="143.11 74.95 133.75 93.5 131.58 92.14 129.41 90.77 142.1 74.32 142.75 74.4 143.11 74.95"/>
  <g class="cls-6">
    <text class="cls-2" transform="translate(122.72 103.54)"><tspan x="0" y="0">O</tspan></text>
  </g>
  <polygon class="cls-1" points="99.24 97.99 99.29 96.74 99.86 96.76 100.42 96.78 100.38 98.04 99.81 98.01 99.24 97.99"/>
  <polygon class="cls-1" points="102.25 98.38 102.32 96.59 102.89 96.61 103.46 96.63 103.39 98.42 102.82 98.4 102.25 98.38"/>
  <polygon class="cls-1" points="105.27 98.76 105.36 96.44 105.93 96.46 106.5 96.48 106.41 98.81 105.84 98.79 105.27 98.76"/>
  <polygon class="cls-1" points="108.28 99.15 108.4 96.28 108.97 96.31 109.53 96.33 109.42 99.19 108.85 99.17 108.28 99.15"/>
  <polygon class="cls-1" points="111.3 99.54 111.43 96.13 112 96.16 112.57 96.18 112.44 99.58 111.87 99.56 111.3 99.54"/>
  <polygon class="cls-1" points="114.32 99.92 114.47 95.98 115.04 96 115.61 96.03 115.45 99.97 114.89 99.94 114.32 99.92"/>
  <polygon class="cls-1" points="117.33 100.31 117.51 95.83 118.07 95.85 118.64 95.87 118.47 100.35 117.9 100.33 117.33 100.31"/>
  <polygon class="cls-1" points="120.35 100.69 120.54 95.68 121.11 95.7 121.68 95.72 121.48 100.74 120.92 100.72 120.35 100.69"/>
  <polygon class="cls-1" points="99.66 97.67 84.5 121.73 84.02 121.42 83.71 120.84 98.52 97.34 99.18 97.36 99.66 97.67"/>
  <polygon class="cls-1" points="84 121.99 55.94 120.91 55.6 120.32 55.95 119.77 83.71 120.84 84.02 121.42 84 121.99"/>
  <polygon class="cls-1" points="54.93 120.27 41.84 95.43 42.35 95.17 43 95.19 55.95 119.77 55.6 120.32 54.93 120.27"/>
  <polygon class="cls-1" points="41.87 94.86 56.84 71.1 57.51 71.11 57.81 71.69 43 95.19 42.35 95.17 41.87 94.86"/>
  <polygon class="cls-1" points="57.88 70.55 79.93 71.41 79.91 71.97 79.89 72.54 57.81 71.69 57.51 71.11 57.88 70.55"/>
  <g class="cls-6">
    <text class="cls-2" transform="translate(81.04 77.28)"><tspan x="0" y="0">O</tspan></text>
  </g>
  <polygon class="cls-1" points="89.76 78.27 99.68 97.1 99.18 97.36 98.52 97.34 88.75 78.8 89.25 78.53 89.76 78.27"/>
  <polygon class="cls-1" points="56.84 71.1 41.53 46.41 44.25 45.95 46.83 45.48 57.88 70.55 57.51 71.11 56.84 71.1"/>
  <polygon class="cls-1" points="41.53 46.41 21.83 45.65 21.85 45.09 21.87 44.52 46.83 45.48 44.25 45.95 41.53 46.41"/>
  <g class="cls-6">
    <text class="cls-2" transform="translate(1.9 49.93)"><tspan x="0" y="0">H</tspan></text>
    <text class="cls-2" transform="translate(10.96 49.93)"><tspan x="0" y="0">O</tspan></text>
  </g>
  <polygon class="cls-1" points="42.28 94.54 42.24 95.79 41.67 95.77 41.1 95.75 41.15 94.49 41.72 94.52 42.28 94.54"/>
  <polygon class="cls-1" points="39.27 94.15 39.2 95.94 38.63 95.92 38.06 95.9 38.13 94.11 38.7 94.13 39.27 94.15"/>
  <polygon class="cls-1" points="36.26 93.77 36.16 96.09 35.6 96.07 35.03 96.05 35.12 93.72 35.69 93.74 36.26 93.77"/>
  <polygon class="cls-1" points="33.24 93.38 33.13 96.25 32.56 96.22 31.99 96.2 32.1 93.34 32.67 93.36 33.24 93.38"/>
  <polygon class="cls-1" points="30.23 93 30.09 96.4 29.52 96.38 28.96 96.35 29.09 92.95 29.66 92.97 30.23 93"/>
  <polygon class="cls-1" points="27.21 92.61 27.06 96.55 26.49 96.53 25.92 96.5 26.07 92.56 26.64 92.59 27.21 92.61"/>
  <polygon class="cls-1" points="24.19 92.22 24.02 96.7 23.45 96.68 22.88 96.66 23.06 92.18 23.63 92.2 24.19 92.22"/>
  <polygon class="cls-1" points="21.18 91.84 20.98 96.85 20.42 96.83 19.85 96.81 20.04 91.79 20.61 91.81 21.18 91.84"/>
  <g class="cls-6">
    <text class="cls-2" transform="translate(0 99.15)"><tspan x="0" y="0">H</tspan></text>
    <text class="cls-2" transform="translate(9.06 99.15)"><tspan x="0" y="0">O</tspan></text>
  </g>
  <polygon class="cls-1" points="55.94 120.91 46.59 139.43 44.43 138.06 42.26 136.7 54.93 120.27 55.6 120.32 55.94 120.91"/>
  <g class="cls-6">
    <text class="cls-2" transform="translate(26.51 149.46)"><tspan x="0" y="0">H</tspan></text>
    <text class="cls-2" transform="translate(35.57 149.46)"><tspan x="0" y="0">O</tspan></text>
  </g>
  <polygon class="cls-1" points="83.5 121.8 84.62 121.21 84.88 121.71 85.15 122.22 84.03 122.8 83.77 122.3 83.5 121.8"/>
  <polygon class="cls-1" points="84.79 124.9 86.45 124.02 86.72 124.53 86.98 125.03 85.32 125.91 85.05 125.41 84.79 124.9"/>
  <polygon class="cls-1" points="86.07 128 88.29 126.83 88.56 127.34 88.82 127.84 86.6 129.01 86.33 128.51 86.07 128"/>
  <polygon class="cls-1" points="87.35 131.11 90.13 129.65 90.39 130.15 90.66 130.65 87.88 132.12 87.61 131.61 87.35 131.11"/>
  <polygon class="cls-1" points="88.63 134.21 91.96 132.46 92.22 132.96 92.49 133.47 89.16 135.22 88.9 134.72 88.63 134.21"/>
  <polygon class="cls-1" points="89.91 137.32 93.8 135.27 94.06 135.77 94.33 136.28 90.44 138.32 90.18 137.82 89.91 137.32"/>
  <polygon class="cls-1" points="91.2 140.42 95.63 138.08 95.9 138.59 96.16 139.09 91.73 141.43 91.46 140.92 91.2 140.42"/>
  <g class="cls-6">
    <text class="cls-2" transform="translate(92.75 151.66)"><tspan x="0" y="0">N</tspan></text>
    <text class="cls-2" transform="translate(101.8 151.66)"><tspan x="0" y="0">H</tspan></text>
  </g>
  <polygon class="cls-1" points="93.77 153.21 82.6 170.95 82.12 170.64 81.64 170.34 92.81 152.6 93.29 152.91 93.77 153.21"/>
  <polygon class="cls-1" points="131.9 48.8 107.02 61.91 107.04 61.26 107.07 60.6 131.32 47.82 132.2 48 131.9 48.8"/>
  <polygon class="cls-1" points="107.02 61.91 88.69 50.37 89 49.88 89.3 49.4 107.07 60.6 107.04 61.26 107.02 61.91"/>
  <polygon class="cls-1" points="106.89 57.8 90.51 47.48 90.81 47 91.12 46.52 107.5 56.84 107.19 57.32 106.89 57.8"/>
  <g class="cls-6">
    <text class="cls-2" transform="translate(78.1 51.17)"><tspan x="0" y="0">O</tspan></text>
  </g>
  <polygon class="cls-1" points="131.32 47.82 118.49 32.11 120.62 30.69 122.74 29.26 132.37 47.12 132.2 48 131.32 47.82"/>
  <g class="cls-6">
    <text class="cls-2" transform="translate(102.45 29.44)"><tspan x="0" y="0">H</tspan></text>
    <text class="cls-2" transform="translate(111.51 29.44)"><tspan x="0" y="0">O</tspan></text>
  </g>
  <g class="cls-6">
    <text class="cls-3" transform="translate(86.98 220.85)"><tspan x="0" y="0">Streptomycin</tspan></text>
    <text class="cls-5" transform="translate(203.69 220.85)"><tspan x="0" y="0">:</tspan></text>
    <text class="cls-3" transform="translate(208.45 220.85)"><tspan x="0" y="0" xml:space="preserve"> 0.1~1μM</tspan></text>
  </g>
  <polygon class="cls-1" points="558.6 28.42 557.37 28.45 557.36 27.88 557.34 27.32 558.57 27.28 558.59 27.85 558.6 28.42"/>
  <polygon class="cls-1" points="558.73 25.39 557.08 25.43 557.06 24.86 557.05 24.3 558.7 24.25 558.71 24.82 558.73 25.39"/>
  <polygon class="cls-1" points="558.86 22.36 556.78 22.41 556.77 21.84 556.75 21.28 558.83 21.22 558.84 21.79 558.86 22.36"/>
  <polygon class="cls-1" points="558.99 19.32 556.49 19.39 556.48 18.82 556.46 18.26 558.96 18.19 558.97 18.76 558.99 19.32"/>
  <polygon class="cls-1" points="559.12 16.29 556.2 16.37 556.18 15.8 556.16 15.24 559.09 15.16 559.1 15.72 559.12 16.29"/>
  <polygon class="cls-1" points="559.25 13.26 555.9 13.35 555.89 12.79 555.87 12.22 559.21 12.13 559.23 12.69 559.25 13.26"/>
  <polygon class="cls-1" points="559.38 10.23 555.61 10.33 555.59 9.77 555.58 9.2 559.34 9.09 559.36 9.66 559.38 10.23"/>
  <polygon class="cls-1" points="559.5 7.2 555.31 7.32 555.3 6.75 555.28 6.18 559.47 6.06 559.49 6.63 559.5 7.2"/>
  <polygon class="cls-1" points="559.63 4.17 555.02 4.29 555 3.73 554.99 3.16 559.6 3.03 559.62 3.6 559.63 4.17"/>
  <polygon class="cls-1" points="559.76 1.14 554.72 1.27 554.71 .71 554.69 .14 559.73 0 559.75 .57 559.76 1.14"/>
  <polygon class="cls-1" points="558.01 29.21 536.12 46.05 535.44 45.85 535.1 45.4 557.64 28.05 557.99 28.5 558.01 29.21"/>
  <polygon class="cls-1" points="536.12 46.05 545.37 72.07 544.97 72.65 544.43 72.84 535.12 46.63 535.44 45.85 536.12 46.05"/>
  <polygon class="cls-1" points="545.37 72.07 572.98 71.31 573.41 71.87 573.1 72.45 544.99 73.22 544.97 72.65 545.37 72.07"/>
  <polygon class="cls-1" points="572.98 71.31 579.04 50.75 579.59 50.91 580.13 51.07 574.04 71.72 573.41 71.87 572.98 71.31"/>
  <g class="cls-6">
    <text class="cls-2" transform="translate(576.57 49.67)"><tspan x="0" y="0">O</tspan></text>
  </g>
  <polygon class="cls-1" points="575.11 40.93 558.01 29.21 557.99 28.5 558.31 28.03 575.76 39.99 575.43 40.46 575.11 40.93"/>
  <polygon class="cls-1" points="574.04 71.72 587.91 86.53 585.88 88.09 583.85 89.65 573.1 72.45 573.41 71.87 574.04 71.72"/>
  <g class="cls-6">
    <text class="cls-2" transform="translate(585.87 99.49)"><tspan x="0" y="0">O</tspan></text>
  </g>
  <polygon class="cls-1" points="618.71 91.3 597.1 96.15 596.77 93.61 596.43 91.08 618.56 90.11 618.95 90.67 618.71 91.3"/>
  <polygon class="cls-1" points="619.6 90.58 636.54 112.6 636.29 113.21 635.84 113.56 618.71 91.3 618.95 90.67 619.6 90.58"/>
  <polygon class="cls-1" points="636.54 112.6 664.08 108.94 664.48 109.46 664.2 110.07 636.36 113.77 636.29 113.21 636.54 112.6"/>
  <polygon class="cls-1" points="664.08 108.94 674.68 83.26 675.34 83.17 675.86 83.39 665.15 109.34 664.48 109.46 664.08 108.94"/>
  <polygon class="cls-1" points="674.68 83.26 657.74 61.23 657.99 60.63 658.66 60.56 675.79 82.82 675.34 83.17 674.68 83.26"/>
  <polygon class="cls-1" points="657.74 61.23 630.2 64.89 629.8 64.37 629.72 63.81 657.56 60.11 657.99 60.63 657.74 61.23"/>
  <polygon class="cls-1" points="630.24 63.91 629.24 64.69 628.89 64.23 628.54 63.78 629.55 63.01 629.89 63.46 630.24 63.91"/>
  <polygon class="cls-1" points="628.53 61.18 627.04 62.33 626.69 61.88 626.34 61.43 627.84 60.28 628.19 60.73 628.53 61.18"/>
  <polygon class="cls-1" points="626.83 58.45 624.84 59.98 624.49 59.53 624.14 59.08 626.13 57.55 626.48 58 626.83 58.45"/>
  <polygon class="cls-1" points="625.12 55.72 622.63 57.63 622.29 57.18 621.94 56.73 624.43 54.82 624.77 55.27 625.12 55.72"/>
  <polygon class="cls-1" points="623.41 52.99 620.43 55.28 620.08 54.83 619.74 54.38 622.72 52.09 623.07 52.54 623.41 52.99"/>
  <polygon class="cls-1" points="621.71 50.26 618.23 52.93 617.88 52.48 617.54 52.03 621.01 49.36 621.36 49.81 621.71 50.26"/>
  <polygon class="cls-1" points="620 47.53 616.03 50.58 615.68 50.13 615.33 49.68 619.3 46.63 619.65 47.08 620 47.53"/>
  <g class="cls-6">
    <text class="cls-2" transform="translate(598.52 46.91)"><tspan x="0" y="0">H</tspan></text>
    <text class="cls-2" transform="translate(607.58 46.91)"><tspan x="0" y="0">O</tspan></text>
  </g>
  <polygon class="cls-1" points="630.2 64.89 619.6 90.58 618.95 90.67 618.56 90.11 629.27 64.16 629.8 64.37 630.2 64.89"/>
  <polygon class="cls-1" points="657.56 60.11 663.87 39.68 666.23 40.66 668.6 41.64 658.66 60.56 657.99 60.63 657.56 60.11"/>
  <g class="cls-6">
    <text class="cls-2" transform="translate(663.97 39.41)"><tspan x="0" y="0">O</tspan></text>
    <text class="cls-2" transform="translate(673.72 39.41)"><tspan x="0" y="0">H</tspan></text>
  </g>
  <polygon class="cls-1" points="675.5 83.78 675.34 82.54 675.9 82.46 676.47 82.39 676.63 83.63 676.07 83.7 675.5 83.78"/>
  <polygon class="cls-1" points="678.53 83.65 678.3 81.87 678.86 81.8 679.43 81.72 679.66 83.5 679.1 83.57 678.53 83.65"/>
  <polygon class="cls-1" points="681.57 83.52 681.26 81.21 681.82 81.13 682.39 81.06 682.69 83.37 682.13 83.44 681.57 83.52"/>
  <polygon class="cls-1" points="684.6 83.39 684.22 80.54 684.78 80.47 685.35 80.39 685.73 83.24 685.16 83.31 684.6 83.39"/>
  <polygon class="cls-1" points="687.63 83.25 687.18 79.88 687.74 79.8 688.31 79.73 688.76 83.1 688.19 83.18 687.63 83.25"/>
  <polygon class="cls-1" points="690.66 83.12 690.14 79.21 690.7 79.14 691.27 79.06 691.79 82.97 691.22 83.05 690.66 83.12"/>
  <polygon class="cls-1" points="693.69 82.99 693.1 78.55 693.66 78.47 694.23 78.4 694.82 82.84 694.25 82.92 693.69 82.99"/>
  <polygon class="cls-1" points="696.72 82.86 696.06 77.88 696.62 77.81 697.19 77.73 697.85 82.71 697.28 82.78 696.72 82.86"/>
  <g class="cls-6">
    <text class="cls-2" transform="translate(698.65 84.5)"><tspan x="0" y="0">O</tspan></text>
  </g>
  <polygon class="cls-1" points="708.85 85.4 721.13 101.36 720.88 101.97 720.63 102.57 707.95 86.09 708.4 85.75 708.85 85.4"/>
  <polygon class="cls-1" points="723.36 101.92 714.74 122.8 714.21 122.58 713.69 122.37 722.3 101.49 722.83 101.71 723.36 101.92"/>
  <polygon class="cls-1" points="720.2 100.62 711.58 121.5 711.06 121.28 710.53 121.06 719.15 100.19 719.67 100.41 720.2 100.62"/>
  <g class="cls-6">
    <text class="cls-2" transform="translate(705.14 133.34)"><tspan x="0" y="0">O</tspan></text>
  </g>
  <polygon class="cls-1" points="721.13 101.36 743.33 98.41 743.41 98.97 743.48 99.54 720.63 102.57 720.88 101.97 721.13 101.36"/>
  <g class="cls-6">
    <text class="cls-2" transform="translate(744.54 101.68)"><tspan x="0" y="0">N</tspan></text>
    <text class="cls-2" transform="translate(753.6 101.68)"><tspan x="0" y="0">H</tspan></text>
    <text class="cls-4" transform="translate(762.66 103.61)"><tspan x="0" y="0">2</tspan></text>
  </g>
  <polygon class="cls-1" points="665.15 109.34 678.99 124.12 676.96 125.68 674.93 127.24 664.2 110.07 664.48 109.46 665.15 109.34"/>
  <g class="cls-6">
    <text class="cls-2" transform="translate(676.95 137.09)"><tspan x="0" y="0">O</tspan></text>
    <text class="cls-2" transform="translate(686.7 137.09)"><tspan x="0" y="0">H</tspan></text>
  </g>
  <polygon class="cls-1" points="635.67 113.05 636.84 113.53 636.62 114.06 636.4 114.58 635.24 114.1 635.46 113.58 635.67 113.05"/>
  <polygon class="cls-1" points="634.09 116.07 635.83 116.79 635.61 117.32 635.4 117.84 633.65 117.12 633.87 116.6 634.09 116.07"/>
  <polygon class="cls-1" points="632.5 119.09 634.82 120.05 634.61 120.57 634.39 121.1 632.07 120.14 632.29 119.62 632.5 119.09"/>
  <polygon class="cls-1" points="630.92 122.11 633.82 123.31 633.6 123.83 633.38 124.36 630.48 123.16 630.7 122.64 630.92 122.11"/>
  <polygon class="cls-1" points="629.33 125.13 632.81 126.56 632.59 127.09 632.38 127.62 628.9 126.18 629.12 125.66 629.33 125.13"/>
  <polygon class="cls-1" points="627.75 128.15 631.8 129.82 631.59 130.35 631.37 130.88 627.31 129.2 627.53 128.68 627.75 128.15"/>
  <polygon class="cls-1" points="626.16 131.17 630.8 133.08 630.58 133.61 630.36 134.13 625.73 132.22 625.95 131.69 626.16 131.17"/>
  <g class="cls-6">
    <text class="cls-2" transform="translate(620.91 144.58)"><tspan x="0" y="0">N</tspan></text>
  </g>
  <polygon class="cls-1" points="619.76 140.82 598.61 140.47 598.62 139.9 598.63 139.33 619.78 139.69 619.77 140.25 619.76 140.82"/>
  <polygon class="cls-1" points="619.48 137.42 597.66 143.72 597.24 143.25 597.46 142.59 619.16 136.32 619.32 136.87 619.48 137.42"/>
  <polygon class="cls-1" points="597.66 143.72 589.52 163.43 589 163.22 588.47 163 596.59 143.34 597.24 143.25 597.66 143.72"/>
  <g class="cls-6">
    <text class="cls-2" transform="translate(568.62 173.01)"><tspan x="0" y="0">H</tspan></text>
    <text class="cls-4" transform="translate(577.68 174.94)"><tspan x="0" y="0">2</tspan></text>
    <text class="cls-2" transform="translate(581.97 173.01)"><tspan x="0" y="0">N</tspan></text>
  </g>
  <polygon class="cls-1" points="596.59 143.34 584.31 127.38 584.76 127.03 585.22 126.68 597.46 142.59 597.24 143.25 596.59 143.34"/>
  <g class="cls-6">
    <text class="cls-2" transform="translate(562.13 124.17)"><tspan x="0" y="0">H</tspan></text>
    <text class="cls-4" transform="translate(571.19 126.1)"><tspan x="0" y="0">2</tspan></text>
    <text class="cls-2" transform="translate(575.48 124.17)"><tspan x="0" y="0">N</tspan></text>
  </g>
  <polygon class="cls-1" points="544.4 72.37 545.44 73.08 545.12 73.55 544.8 74.02 543.75 73.31 544.08 72.84 544.4 72.37"/>
  <polygon class="cls-1" points="542.3 74.88 543.86 75.95 543.53 76.42 543.21 76.88 541.65 75.82 541.98 75.35 542.3 74.88"/>
  <polygon class="cls-1" points="540.2 77.39 542.27 78.81 541.95 79.28 541.63 79.75 539.56 78.33 539.88 77.86 540.2 77.39"/>
  <polygon class="cls-1" points="538.1 79.9 540.69 81.67 540.37 82.14 540.04 82.61 537.46 80.84 537.78 80.37 538.1 79.9"/>
  <polygon class="cls-1" points="536 82.41 539.11 84.54 538.78 85 538.46 85.47 535.36 83.35 535.68 82.88 536 82.41"/>
  <polygon class="cls-1" points="533.9 84.92 537.52 87.4 537.2 87.87 536.88 88.34 533.26 85.86 533.58 85.39 533.9 84.92"/>
  <polygon class="cls-1" points="531.8 87.43 535.94 90.26 535.62 90.73 535.29 91.2 531.16 88.37 531.48 87.9 531.8 87.43"/>
  <g class="cls-6">
    <text class="cls-2" transform="translate(524.01 101.19)"><tspan x="0" y="0">O</tspan></text>
  </g>
  <polygon class="cls-1" points="500.89 93.34 523.07 93.09 522.88 95.64 522.68 98.19 500.8 94.53 500.53 93.91 500.89 93.34"/>
  <polygon class="cls-1" points="500.8 94.53 485.13 117.4 484.45 117.37 484.17 116.78 499.88 93.86 500.53 93.91 500.8 94.53"/>
  <polygon class="cls-1" points="484.05 117.91 456.05 115.74 456.09 115.17 456.46 114.63 484.17 116.78 484.45 117.37 484.05 117.91"/>
  <polygon class="cls-1" points="455.58 115.42 443.46 90.09 443.81 89.52 444.47 89.57 456.46 114.63 456.09 115.17 455.58 115.42"/>
  <polygon class="cls-1" points="443.55 88.9 459.43 65.73 459.9 66.06 460.18 66.65 444.47 89.57 443.81 89.52 443.55 88.9"/>
  <polygon class="cls-1" points="459.94 65.49 482.28 67.22 482.24 67.79 482.19 68.36 460.18 66.65 459.9 66.06 459.94 65.49"/>
  <g class="cls-6">
    <text class="cls-2" transform="translate(483.38 73.33)"><tspan x="0" y="0">O</tspan></text>
  </g>
  <polygon class="cls-1" points="491.8 74.33 500.89 93.34 500.53 93.91 499.88 93.86 490.77 74.83 491.28 74.58 491.8 74.33"/>
  <polygon class="cls-1" points="460.42 65.73 459.32 66.26 459.07 65.75 458.82 65.23 459.93 64.7 460.18 65.22 460.42 65.73"/>
  <polygon class="cls-1" points="459.31 62.91 457.82 63.62 457.57 63.11 457.33 62.59 458.82 61.88 459.06 62.4 459.31 62.91"/>
  <polygon class="cls-1" points="458.19 60.09 456.32 60.98 456.07 60.47 455.83 59.96 457.7 59.06 457.95 59.57 458.19 60.09"/>
  <polygon class="cls-1" points="457.08 57.27 454.82 58.34 454.58 57.83 454.33 57.32 456.58 56.24 456.83 56.75 457.08 57.27"/>
  <polygon class="cls-1" points="455.96 54.44 453.32 55.71 453.08 55.19 452.83 54.68 455.47 53.42 455.71 53.93 455.96 54.44"/>
  <polygon class="cls-1" points="454.85 51.62 451.83 53.07 451.58 52.55 451.34 52.04 454.35 50.6 454.6 51.11 454.85 51.62"/>
  <polygon class="cls-1" points="453.73 48.8 450.33 50.43 450.08 49.91 449.84 49.4 453.24 47.77 453.48 48.29 453.73 48.8"/>
  <polygon class="cls-1" points="452.61 45.98 448.83 47.79 448.59 47.28 448.34 46.76 452.12 44.95 452.37 45.47 452.61 45.98"/>
  <polygon class="cls-1" points="451.5 43.16 447.33 45.15 447.09 44.64 446.84 44.13 451.01 42.13 451.25 42.65 451.5 43.16"/>
  <polygon class="cls-1" points="450.38 40.34 445.84 42.51 445.59 42 445.35 41.49 449.89 39.31 450.14 39.82 450.38 40.34"/>
  <polygon class="cls-1" points="446.59 40.89 425.23 39.24 425.28 38.67 425.32 38.1 448.64 39.91 447.62 40.4 446.59 40.89"/>
  <g class="cls-6">
    <text class="cls-2" transform="translate(405.32 43.29)"><tspan x="0" y="0">H</tspan></text>
    <text class="cls-2" transform="translate(414.38 43.29)"><tspan x="0" y="0">O</tspan></text>
  </g>
  <polygon class="cls-1" points="443.46 90.09 421.28 90.34 421.47 87.79 421.67 85.24 443.55 88.9 443.81 89.52 443.46 90.09"/>
  <g class="cls-6">
    <text class="cls-2" transform="translate(401.52 92.4)"><tspan x="0" y="0">H</tspan></text>
    <text class="cls-2" transform="translate(410.58 92.4)"><tspan x="0" y="0">O</tspan></text>
  </g>
  <polygon class="cls-1" points="455.52 114.89 456.56 115.61 456.24 116.08 455.92 116.55 454.87 115.83 455.2 115.36 455.52 114.89"/>
  <polygon class="cls-1" points="453.42 117.41 454.98 118.47 454.65 118.94 454.33 119.41 452.77 118.34 453.1 117.87 453.42 117.41"/>
  <polygon class="cls-1" points="451.32 119.92 453.39 121.34 453.07 121.81 452.75 122.28 450.68 120.85 451 120.39 451.32 119.92"/>
  <polygon class="cls-1" points="449.22 122.43 451.81 124.2 451.49 124.67 451.16 125.14 448.58 123.36 448.9 122.9 449.22 122.43"/>
  <polygon class="cls-1" points="447.12 124.94 450.22 127.06 449.9 127.53 449.58 128 446.48 125.88 446.8 125.41 447.12 124.94"/>
  <polygon class="cls-1" points="445.02 127.45 448.64 129.93 448.32 130.4 448 130.87 444.38 128.39 444.7 127.92 445.02 127.45"/>
  <polygon class="cls-1" points="442.92 129.96 447.06 132.79 446.73 133.26 446.41 133.73 442.28 130.9 442.6 130.43 442.92 129.96"/>
  <g class="cls-6">
    <text class="cls-2" transform="translate(426.08 143.72)"><tspan x="0" y="0">H</tspan></text>
    <text class="cls-2" transform="translate(435.13 143.72)"><tspan x="0" y="0">O</tspan></text>
  </g>
  <polygon class="cls-1" points="485.13 117.4 496.01 135.6 493.7 136.7 491.39 137.81 484.05 117.91 484.45 117.37 485.13 117.4"/>
  <g class="cls-6">
    <text class="cls-2" transform="translate(492.2 148.11)"><tspan x="0" y="0">N</tspan></text>
    <text class="cls-2" transform="translate(501.26 148.11)"><tspan x="0" y="0">H</tspan></text>
  </g>
  <polygon class="cls-1" points="492.86 149.68 481.12 166.81 480.65 166.49 480.18 166.17 491.92 149.03 492.39 149.36 492.86 149.68"/>
  <polygon class="cls-1" points="535.12 46.63 509.74 58.78 509.79 58.13 509.84 57.47 535.2 45.33 535.44 45.85 535.12 46.63"/>
  <polygon class="cls-1" points="509.74 58.78 492.02 46.64 492.34 46.17 492.66 45.7 509.84 57.47 509.79 58.13 509.74 58.78"/>
  <g class="cls-6">
    <text class="cls-2" transform="translate(472.39 47.12)"><tspan x="0" y="0">H</tspan></text>
    <text class="cls-2" transform="translate(481.45 47.12)"><tspan x="0" y="0">O</tspan></text>
  </g>
  <polygon class="cls-1" points="535.93 45.44 534.86 46.1 534.56 45.62 534.26 45.13 535.34 44.47 535.64 44.95 535.93 45.44"/>
  <polygon class="cls-1" points="534.47 42.47 532.87 43.45 532.57 42.97 532.27 42.48 533.88 41.49 534.18 41.98 534.47 42.47"/>
  <polygon class="cls-1" points="533.01 39.49 530.87 40.81 530.58 40.32 530.28 39.84 532.42 38.52 532.72 39.01 533.01 39.49"/>
  <polygon class="cls-1" points="531.55 36.52 528.88 38.16 528.58 37.67 528.28 37.19 530.96 35.55 531.25 36.03 531.55 36.52"/>
  <polygon class="cls-1" points="530.09 33.54 526.89 35.51 526.59 35.03 526.29 34.54 529.5 32.57 529.79 33.06 530.09 33.54"/>
  <polygon class="cls-1" points="528.63 30.57 524.89 32.87 524.6 32.38 524.3 31.9 528.04 29.6 528.33 30.08 528.63 30.57"/>
  <polygon class="cls-1" points="527.17 27.59 522.9 30.22 522.6 29.73 522.3 29.25 526.58 26.63 526.87 27.11 527.17 27.59"/>
  <g class="cls-6">
    <text class="cls-2" transform="translate(506.62 26.69)"><tspan x="0" y="0">H</tspan></text>
    <text class="cls-2" transform="translate(515.68 26.69)"><tspan x="0" y="0">O</tspan></text>
  </g>
  <text class="cls-3" transform="translate(460.42 235.85)"><tspan x="0" y="0">Bluensomycin: ~10μM</tspan></text>
</svg>