<svg id="图层_1" data-name="图层 1" xmlns="http://www.w3.org/2000/svg" viewBox="0 0 800 300"><defs><style>.cls-1,.cls-2{isolation:isolate;}.cls-2{font-size:17.84px;}.cls-2,.cls-4{font-family:ArialMT, Arial;}.cls-3{fill:none;stroke:#000;stroke-miterlimit:3.76;stroke-width:0.89px;}.cls-4{font-size:20px;}.cls-5{letter-spacing:-0.11em;}</style></defs><polygon points="368.27 185.57 333.65 165.54 333.65 164.61 334.46 164.14 369.08 184.17 368.67 184.87 368.27 185.57"/><polygon points="333.65 165.54 298.59 185.74 298.59 184.81 298.59 183.87 332.84 164.14 333.65 164.61 333.65 165.54"/><polygon points="329.2 162.5 299 179.9 298.6 179.2 298.19 178.5 328.39 161.1 328.8 161.8 329.2 162.5"/><polygon points="298.59 185.74 263.47 165.43 263.57 164.54 264.38 164.08 298.59 183.87 298.59 184.81 298.59 185.74"/><polygon points="262.76 163.96 262.79 124.67 263.6 124.08 264.41 124.55 264.38 164.08 263.57 164.54 262.76 163.96"/><polygon points="267.62 161.75 267.64 126.89 268.45 126.89 269.26 126.89 269.23 161.75 268.42 161.75 267.62 161.75"/><polygon points="263.51 123.2 298.66 102.95 298.66 103.88 298.66 104.82 264.41 124.55 263.6 124.08 263.51 123.2"/><polygon points="298.66 102.95 334.49 123.68 333.68 124.14 332.87 124.61 298.66 104.82 298.66 103.88 298.66 102.95"/><polygon points="299.06 108.79 329.23 126.24 328.83 126.94 328.42 127.64 298.25 110.19 298.65 109.49 299.06 108.79"/><polygon points="334.49 123.68 334.46 164.14 333.65 164.61 332.84 164.14 332.87 124.61 333.68 124.14 334.49 123.68"/><polygon points="262.79 124.67 232.94 114.94 233.19 114.17 233.44 113.4 263.51 123.2 263.6 124.08 262.79 124.67"/><g class="cls-1"><text class="cls-2" transform="translate(218.69 118.77)">N</text></g><polygon points="219.23 121.02 202.32 144.26 201.32 144.26 200.91 143.45 217.93 120.07 218.58 120.55 219.23 121.02"/><polygon points="215.31 118.16 199.5 139.88 198.85 139.4 198.19 138.93 214 117.21 214.65 117.69 215.31 118.16"/><polygon points="202.32 144.26 219.2 167.54 218.55 168.02 217.89 168.49 200.91 145.07 201.32 144.26 202.32 144.26"/><g class="cls-1"><text class="cls-2" transform="translate(219.12 184.24)">S</text></g><polygon points="232.39 173.79 262.76 163.96 263.57 164.54 263.47 165.43 232.89 175.33 232.64 174.56 232.39 173.79"/><polygon points="200.91 145.07 161.32 145.03 160.86 144.22 161.32 143.42 200.91 143.45 201.32 144.26 200.91 145.07"/><polygon points="154.55 144.62 137.15 114.42 137.85 114.02 138.55 113.61 155.95 143.82 155.25 144.22 154.55 144.62"/><polygon points="159.92 144.22 140.19 109.97 140.66 109.17 141.12 108.36 161.32 143.42 160.86 144.22 159.92 144.22"/><polygon points="140.19 109.97 100.66 109.94 100.19 109.13 99.73 108.32 141.12 108.36 140.66 109.17 140.19 109.97"/><polygon points="103.69 114.39 86.24 144.56 85.54 144.16 84.84 143.75 102.29 113.58 102.99 113.99 103.69 114.39"/><polygon points="100.66 109.94 80.87 144.16 79.93 144.16 79.47 143.34 99.73 108.32 100.19 109.13 100.66 109.94"/><polygon points="80.87 144.16 100.6 178.41 100.13 179.21 99.67 180.02 79.46 144.96 79.93 144.16 80.87 144.16"/><polygon points="102.94 173.55 137.8 173.58 137.8 174.39 137.8 175.2 102.94 175.17 102.94 174.36 102.94 173.55"/><polygon points="100.6 178.41 140.13 178.44 140.6 179.25 141.06 180.06 99.67 180.02 100.13 179.21 100.6 178.41"/><polygon points="140.13 178.44 159.92 144.22 160.86 144.22 161.32 145.03 141.06 180.06 140.6 179.25 140.13 178.44"/><polygon points="79.46 144.96 47.53 144.94 47.53 144.13 47.53 143.32 79.47 143.34 79.93 144.16 79.46 144.96"/><g class="cls-1"><text class="cls-2" transform="translate(33.03 151.35)">N</text></g><polygon points="33.58 135.52 18.57 109.47 19.27 109.06 19.97 108.66 34.99 134.72 34.28 135.12 33.58 135.52"/><polygon points="34.96 153.52 19.91 179.55 19.21 179.14 18.51 178.74 33.56 152.71 34.26 153.12 34.96 153.52"/><polygon points="221.44 102.8 211.89 73.3 212.66 73.05 213.43 72.8 222.99 102.3 222.22 102.55 221.44 102.8"/><line class="cls-3" x1="231.07" y1="102.23" x2="237.81" y2="102.23"/><line class="cls-3" x1="234.44" y1="98.86" x2="234.44" y2="105.61"/><polygon points="523.84 78.57 536.45 106.43 535.71 106.76 534.98 107.1 522.36 79.23 523.1 78.9 523.84 78.57"/><g class="cls-1"><text class="cls-2" transform="translate(533.34 122.99)">N</text></g><polygon points="535.37 125.16 520.77 150.82 519.77 150.93 519.31 150.12 533.96 124.36 534.67 124.76 535.37 125.16"/><polygon points="519.41 151.74 481.66 151.42 481.66 150.61 481.67 149.8 519.31 150.12 519.77 150.93 519.41 151.74"/><polygon points="517.14 147.43 479.23 156.32 479.56 155.41 479.9 154.5 516.77 145.85 516.95 146.64 517.14 147.43"/><polygon points="479.23 156.32 461.55 132.3 462.2 131.82 462.85 131.34 479.9 154.5 479.56 155.41 479.23 156.32"/><g class="cls-1"><text class="cls-2" transform="translate(449.13 130.05)">N</text></g><polygon points="448.14 129.35 424.55 131.98 424.46 131.18 424.37 130.37 447.96 127.74 448.05 128.55 448.14 129.35"/><polygon points="447.6 124.53 424.01 127.16 423.92 126.35 423.83 125.55 447.43 122.92 447.51 123.72 447.6 124.53"/><g class="cls-1"><text class="cls-2" transform="translate(408.42 134.53)">O</text></g><polygon points="520.77 150.82 539.58 171.44 538.98 171.99 538.38 172.53 519.41 151.74 519.77 150.93 520.77 150.82"/><g class="cls-1"><text class="cls-2" transform="translate(540.6 188.05)">N</text></g><g class="cls-1"><text class="cls-2" transform="translate(540.6 204.34)">H</text></g><polygon points="554.76 176.44 583.03 163.65 583.9 164.14 583.91 165.02 555.43 177.92 555.1 177.18 554.76 176.44"/><polygon points="588.67 160.67 619.12 183.18 619.07 184.15 619.01 185.12 587.71 161.97 588.19 161.32 588.67 160.67"/><polygon points="584.65 163.58 619.35 178.16 619.03 178.91 618.72 179.66 583.91 165.02 583.9 164.14 584.65 163.58"/><polygon points="619.12 183.18 653.17 163.24 653.98 163.7 653.99 164.64 619.01 185.12 619.07 184.15 619.12 183.18"/><polygon points="659.22 160.17 689.51 177.41 689.11 178.11 688.71 178.81 658.42 161.57 658.82 160.87 659.22 160.17"/><polygon points="654.78 163.23 689.14 182.78 689.15 183.72 689.15 184.65 653.99 164.64 653.98 163.7 654.78 163.23"/><polygon points="689.14 182.78 723.25 162.8 724.06 163.26 724.07 164.2 689.15 184.65 689.15 183.72 689.14 182.78"/><polygon points="723.25 162.8 723 123.28 723.81 122.8 724.62 123.27 724.87 162.79 724.06 163.26 723.25 162.8"/><polygon points="728.09 160.44 727.87 125.58 728.68 125.58 729.49 125.57 729.71 160.43 728.9 160.43 728.09 160.44"/><polygon points="723 123.28 688.65 103.73 688.64 102.79 689.45 102.32 723.8 121.87 723.81 122.8 723 123.28"/><polygon points="689.08 109.1 659.01 126.71 658.6 126.02 658.19 125.32 688.27 107.7 688.67 108.4 689.08 109.1"/><polygon points="688.65 103.73 654.54 123.7 653.73 123.24 652.91 122.78 687.83 102.33 688.64 102.79 688.65 103.73"/><polygon points="654.54 123.7 654.78 163.23 653.98 163.7 653.17 163.24 652.91 122.78 653.73 123.24 654.54 123.7"/><polygon points="687.83 102.33 687.63 71.33 688.44 71.33 689.25 71.33 689.45 102.32 688.64 102.79 687.83 102.33"/><g class="cls-1"><text class="cls-2" transform="translate(682.94 69.56)">F</text></g><polygon points="723.8 121.87 749.75 106.67 750.16 107.37 750.57 108.06 724.62 123.27 723.81 122.8 723.8 121.87"/><g class="cls-1"><text class="cls-2" transform="translate(751.78 109.58)">O</text><text class="cls-2" transform="translate(765.66 109.58)">H</text></g><polygon points="724.87 162.79 752.56 178.55 752.16 179.25 751.76 179.96 724.07 164.2 724.06 163.26 724.87 162.79"/><g class="cls-1"><text class="cls-2" transform="translate(753.78 190.5)">F</text></g><polygon points="583.03 163.65 578.68 124.6 579.42 123.93 580.15 123.25 584.65 163.58 583.9 164.14 583.03 163.65"/><polygon points="575.93 122.72 598.58 102.08 599.12 102.67 599.67 103.27 577.02 123.92 576.48 123.32 575.93 122.72"/><polygon points="579.2 126.31 601.85 105.67 602.39 106.26 602.94 106.86 580.29 127.51 579.75 126.91 579.2 126.31"/><g class="cls-1"><text class="cls-2" transform="translate(602.38 103.89)">O</text></g><polygon points="578.68 124.6 547.68 118.22 547.85 117.42 548.01 116.63 580.15 123.25 579.42 123.93 578.68 124.6"/><text class="cls-4" transform="translate(135.87 243.39)">DFHO: 70 nM</text><text class="cls-4" transform="translate(541.43 243.39)">Th<tspan class="cls-5" x="23.34" y="0">T</tspan><tspan x="33.34" y="0">: ~3 μM</tspan></text></svg>