<?xml version="1.0" encoding="utf-8"?>
<!-- Generator: Adobe Illustrator 25.2.0, SVG Export Plug-In . SVG Version: 6.00 Build 0)  -->
<svg version="1.1" id="图层_1" xmlns="http://www.w3.org/2000/svg" xmlns:xlink="http://www.w3.org/1999/xlink" x="0px" y="0px"
	 viewBox="0 0 800 400" style="enable-background:new 0 0 800 400;" xml:space="preserve">
<style type="text/css">
	.st0{font-family:'ArialMT';}
	.st1{font-size:6.77px;}
	.st2{font-size:4.17px;}
	.st3{font-size:6.64px;}
	.st4{font-size:4.09px;}
	.st5{font-size:7.72px;}
	.st6{font-size:4.75px;}
	.st7{font-size:6.96px;}
	.st8{font-size:4.28px;}
	.st9{font-family:'ArialNarrow';}
	.st10{font-size:15px;}
	.st11{letter-spacing:-1;}
	.st12{font-family:'AdobeSongStd-Light-GBpc-EUC-H';}
</style>
<polygon points="266.7,204.5 253.1,196.9 253.3,196.6 253.6,196.5 266.7,203.8 266.7,204.1 "/>
<polygon points="253,196.6 252.8,181.5 253.1,181.3 253.4,181.5 253.6,196.5 253.3,196.6 "/>
<polygon points="253.1,180.9 266.1,173.1 266.2,173.4 266.2,173.8 253.4,181.5 253.1,181.3 "/>
<polygon points="266.4,173.1 279.6,180.5 279.6,180.9 279.4,181.1 266.2,173.8 266.2,173.4 "/>
<polygon points="280,181.1 280.2,196.2 279.9,196.2 279.6,196.1 279.4,181.1 279.6,180.9 "/>
<polygon points="279.8,196.5 280.1,195.9 280.4,196.1 280.6,196.2 280.3,196.8 280,196.7 "/>
<polygon points="281.3,197.6 281.8,196.7 282.1,196.9 282.4,197 281.9,197.9 281.6,197.8 "/>
<polygon points="282.9,198.6 283.5,197.5 283.8,197.6 284.1,197.8 283.4,198.9 283.1,198.8 "/>
<polygon points="284.4,199.7 285.2,198.2 285.5,198.4 285.8,198.5 285,200 284.7,199.9 "/>
<polygon points="286,200.8 287,199 287.2,199.1 287.5,199.3 286.5,201.1 286.2,200.9 "/>
<polygon points="287.5,201.8 288.7,199.8 288.9,199.9 289.2,200 288,202.1 287.8,202 "/>
<polygon points="289.1,202.9 290.4,200.5 290.6,200.7 290.9,200.8 289.6,203.2 289.3,203 "/>
<g>
	<text transform="matrix(1 0 0 1 290.87 205.56)" class="st0 st1">N</text>
	<text transform="matrix(1 0 0 1 295.76 205.56)" class="st0 st1">H</text>
	<text transform="matrix(1 0 0 1 300.65 206.6)" class="st0 st2">2</text>
</g>
<polygon points="280.1,196.5 266.7,204.5 266.7,204.1 266.7,203.8 279.6,196.1 279.9,196.2 "/>
<polygon points="279.6,180.5 288.9,173.7 289.6,174.9 290.3,176.1 280,181.1 279.6,180.9 "/>
<g>
	<text transform="matrix(1 0 0 1 290.19 175.72)" class="st0 st1">O</text>
</g>
<polygon points="306.4,180.1 306,180.7 305.8,180.6 305.5,180.4 305.8,179.8 306.1,180 "/>
<polygon points="304.9,179.1 304.4,180 304.1,179.8 303.8,179.7 304.3,178.8 304.6,178.9 "/>
<polygon points="303.3,178.1 302.7,179.2 302.4,179.1 302.1,178.9 302.8,177.8 303.1,177.9 "/>
<polygon points="301.8,177 301,178.5 300.7,178.3 300.5,178.2 301.3,176.7 301.5,176.9 "/>
<polygon points="300.3,176 299.3,177.8 299,177.6 298.8,177.4 299.8,175.7 300,175.8 "/>
<polygon points="298.8,174.9 297.6,177 297.4,176.9 297.1,176.7 298.2,174.6 298.5,174.8 "/>
<polygon points="297.3,173.9 296,176.3 295.7,176.1 295.4,176 296.7,173.6 297,173.8 "/>
<polygon points="306.1,180.2 319.3,172.3 319.4,172.6 319.4,172.9 306.6,180.6 306.2,180.4 "/>
<polygon points="319.6,172.3 332.8,179.7 332.9,180 332.5,180.2 319.4,172.9 319.4,172.6 "/>
<polygon points="333.2,180.2 333.4,195.4 333.1,195.4 332.8,195.2 332.5,180.2 332.9,180 "/>
<polygon points="333.2,195.6 320.2,203.4 319.9,203.3 319.9,202.9 332.8,195.2 333.1,195.4 "/>
<polygon points="319.6,203.4 309.6,197.9 309.7,197.6 309.9,197.3 319.9,202.9 319.9,203.3 "/>
<g>
	<text transform="matrix(1 0 0 1 303.86 198.54)" class="st0 st1">O</text>
</g>
<polygon points="306.1,192.4 305.9,180.4 306.2,180.4 306.6,180.6 306.8,192.4 306.4,192.4 "/>
<polygon points="320.2,203.4 321.6,219.1 320.2,218.6 318.8,218.2 319.6,203.4 319.9,203.3 "/>
<polygon points="321.6,219.1 330.5,224 330.3,224.3 330.2,224.6 318.8,218.2 320.2,218.6 "/>
<g>
	<text transform="matrix(1 0 0 1 330.94 228.83)" class="st0 st1">O</text>
	<text transform="matrix(1 0 0 1 336.21 228.83)" class="st0 st1">H</text>
</g>
<polygon points="333,195.7 333.3,195.1 333.6,195.2 333.8,195.4 333.5,196 333.2,195.9 "/>
<polygon points="334.5,196.7 335,195.8 335.2,196 335.5,196.1 335,197 334.8,196.9 "/>
<polygon points="336,197.8 336.7,196.6 336.9,196.7 337.2,196.9 336.5,198.1 336.3,197.9 "/>
<polygon points="337.5,198.8 338.3,197.3 338.6,197.5 338.9,197.6 338.1,199.1 337.8,199 "/>
<polygon points="339,199.8 340,198.1 340.3,198.2 340.6,198.4 339.6,200.1 339.3,200 "/>
<polygon points="340.5,200.9 341.7,198.8 342,199 342.2,199.1 341.1,201.2 340.8,201 "/>
<polygon points="342.1,201.9 343.4,199.6 343.6,199.7 343.9,199.9 342.6,202.2 342.3,202.1 "/>
<g>
	<text transform="matrix(1 0 0 1 343.88 205.58)" class="st0 st1">O</text>
	<text transform="matrix(1 0 0 1 349.14 205.58)" class="st0 st1">H</text>
</g>
<polygon points="332.8,179.7 342.2,172.8 343,174 343.7,175.1 333.2,180.2 332.9,180 "/>
<g>
	<text transform="matrix(1 0 0 1 343.58 174)" class="st0 st1">N</text>
	<text transform="matrix(1 0 0 1 348.47 174)" class="st0 st1">H</text>
	<text transform="matrix(1 0 0 1 353.36 175.04)" class="st0 st2">2</text>
</g>
<polygon points="319.8,172.5 319.1,172.5 319.1,172.2 319.1,171.9 319.8,171.9 319.8,172.2 "/>
<polygon points="319.9,170.6 318.9,170.6 318.9,170.3 318.9,170 319.9,170 319.9,170.3 "/>
<polygon points="320,168.7 318.7,168.8 318.7,168.4 318.7,168.1 320,168.1 320,168.4 "/>
<polygon points="320.2,166.9 318.5,166.9 318.5,166.6 318.5,166.3 320.2,166.2 320.2,166.6 "/>
<polygon points="320.3,165 318.3,165 318.3,164.7 318.3,164.4 320.3,164.4 320.3,164.7 "/>
<polygon points="320.5,163.1 318.1,163.1 318.1,162.8 318.1,162.5 320.5,162.5 320.5,162.8 "/>
<polygon points="320.6,161.2 317.9,161.2 317.9,160.9 317.9,160.6 320.6,160.6 320.6,160.9 "/>
<g>
	<text transform="matrix(1 0 0 1 316.55 159.94)" class="st0 st1">O</text>
	<text transform="matrix(1 0 0 1 321.81 159.94)" class="st0 st1">H</text>
</g>
<polygon points="266.6,173.4 265.9,173.4 265.9,173.1 265.9,172.8 266.6,172.7 266.6,173 "/>
<polygon points="266.7,171.5 265.7,171.5 265.7,171.2 265.7,170.9 266.7,170.9 266.7,171.2 "/>
<polygon points="266.9,169.6 265.5,169.6 265.5,169.3 265.5,169 266.8,169 266.8,169.3 "/>
<polygon points="267,167.7 265.3,167.7 265.3,167.4 265.3,167.1 267,167.1 267,167.4 "/>
<polygon points="267.1,165.8 265.1,165.9 265.1,165.6 265.1,165.2 267.1,165.2 267.1,165.5 "/>
<polygon points="267.3,163.9 264.9,164 264.9,163.7 264.9,163.4 267.3,163.3 267.3,163.6 "/>
<polygon points="267.4,162.1 264.7,162.1 264.7,161.8 264.7,161.5 267.4,161.4 267.4,161.8 "/>
<g>
	<text transform="matrix(1 0 0 1 263.35 160.79)" class="st0 st1">O</text>
	<text transform="matrix(1 0 0 1 268.62 160.79)" class="st0 st1">H</text>
</g>
<polygon points="252.8,181.5 242.2,176.8 242.9,175.6 243.6,174.4 253.1,180.9 253.1,181.3 "/>
<g>
	<text transform="matrix(1 0 0 1 237 176.57)" class="st0 st1">O</text>
</g>
<polygon points="239.1,158.5 239.7,158.5 239.7,158.8 239.7,159.1 239.1,159.1 239.1,158.8 "/>
<polygon points="238.9,160.4 239.9,160.4 239.9,160.7 239.9,161 238.9,161 238.9,160.7 "/>
<polygon points="238.8,162.3 240.1,162.3 240.1,162.6 240.1,162.9 238.8,162.9 238.8,162.6 "/>
<polygon points="238.6,164.2 240.3,164.1 240.3,164.4 240.3,164.8 238.6,164.8 238.6,164.5 "/>
<polygon points="238.5,166.1 240.5,166 240.5,166.3 240.5,166.6 238.5,166.7 238.5,166.4 "/>
<polygon points="238.4,167.9 240.7,167.9 240.7,168.2 240.7,168.5 238.4,168.6 238.4,168.2 "/>
<polygon points="238.2,169.8 240.9,169.8 240.9,170.1 240.9,170.4 238.2,170.4 238.2,170.1 "/>
<polygon points="239.2,158.7 225.8,151.3 226,151 226.3,150.8 239.4,158.1 239.4,158.5 "/>
<polygon points="225.7,151 225.4,135.9 225.7,135.6 226,135.8 226.3,150.8 226,151 "/>
<polygon points="225.7,135.3 238.7,127.5 238.9,127.8 238.9,128.1 226,135.8 225.7,135.6 "/>
<polygon points="239.1,127.5 252.3,134.9 252.3,135.2 252,135.4 238.9,128.1 238.9,127.8 "/>
<polygon points="252.6,135.4 252.8,147.2 252.5,147.2 252.2,147.2 252,135.4 252.3,135.2 "/>
<g>
	<text transform="matrix(1 0 0 1 249.93 153.32)" class="st0 st1">O</text>
</g>
<polygon points="249.5,152.8 239.6,158.7 239.4,158.5 239.4,158.1 249.2,152.3 249.3,152.5 "/>
<polygon points="252.3,134.9 265.2,125.9 265.5,127.3 265.8,128.7 252.6,135.4 252.3,135.2 "/>
<polygon points="265.2,125.9 265,115.4 265.3,115.4 265.6,115.4 265.8,128.7 265.5,127.3 "/>
<g>
	<text transform="matrix(1 0 0 1 262.81 113.85)" class="st0 st1">N</text>
	<text transform="matrix(1 0 0 1 267.7 113.85)" class="st0 st1">H</text>
	<text transform="matrix(1 0 0 1 272.59 114.89)" class="st0 st2">2</text>
</g>
<polygon points="239.2,127.7 238.6,127.7 238.6,127.4 238.6,127.1 239.2,127.1 239.2,127.4 "/>
<polygon points="239.4,125.8 238.4,125.8 238.4,125.5 238.4,125.2 239.4,125.2 239.4,125.5 "/>
<polygon points="239.5,123.9 238.2,124 238.2,123.7 238.1,123.3 239.5,123.3 239.5,123.6 "/>
<polygon points="239.7,122.1 238,122.1 238,121.8 237.9,121.5 239.6,121.4 239.6,121.8 "/>
<polygon points="239.8,120.2 237.8,120.2 237.8,119.9 237.8,119.6 239.8,119.6 239.8,119.9 "/>
<polygon points="239.9,118.3 237.6,118.3 237.6,118 237.6,117.7 239.9,117.7 239.9,118 "/>
<polygon points="240.1,116.4 237.4,116.4 237.4,116.2 237.4,115.8 240.1,115.8 240.1,116.1 "/>
<g>
	<text transform="matrix(1 0 0 1 236.02 115.15)" class="st0 st1">O</text>
	<text transform="matrix(1 0 0 1 241.29 115.15)" class="st0 st1">H</text>
</g>
<polygon points="225.4,135.9 214.9,131.2 215.6,130 216.2,128.8 225.7,135.3 225.7,135.6 "/>
<g>
	<text transform="matrix(1 0 0 1 204.78 130.93)" class="st0 st1">H</text>
	<text transform="matrix(1 0 0 1 209.67 130.93)" class="st0 st1">O</text>
</g>
<polygon points="225.8,150.7 226.1,151.3 225.8,151.5 225.6,151.6 225.2,151.1 225.5,150.9 "/>
<polygon points="224.1,151.6 224.6,152.4 224.3,152.6 224.1,152.7 223.6,151.9 223.8,151.7 "/>
<polygon points="222.4,152.4 223.1,153.5 222.8,153.7 222.6,153.8 221.9,152.7 222.1,152.5 "/>
<polygon points="220.7,153.2 221.6,154.6 221.3,154.8 221.1,154.9 220.2,153.5 220.5,153.3 "/>
<polygon points="219,154 220.1,155.7 219.8,155.9 219.6,156 218.5,154.3 218.8,154.1 "/>
<polygon points="217.4,154.8 218.6,156.8 218.3,157 218.1,157.1 216.8,155.1 217.1,154.9 "/>
<polygon points="215.7,155.6 217.1,157.9 216.8,158.1 216.6,158.2 215.2,155.9 215.4,155.7 "/>
<g>
	<text transform="matrix(1 0 0 1 203.2 160.76)" class="st0 st1">H</text>
	<text transform="matrix(1 0 0 1 208.09 161.81)" class="st0 st2">2</text>
	<text transform="matrix(1 0 0 1 210.41 160.76)" class="st0 st1">N</text>
</g>
<polygon points="253.1,196.4 253.4,197 253.2,197.1 252.9,197.3 252.6,196.7 252.8,196.5 "/>
<polygon points="251.4,197.2 251.9,198.1 251.7,198.2 251.4,198.4 250.9,197.5 251.1,197.4 "/>
<polygon points="249.7,198 250.4,199.2 250.2,199.3 249.9,199.5 249.2,198.3 249.5,198.2 "/>
<polygon points="248.1,198.8 248.9,200.3 248.7,200.4 248.4,200.6 247.5,199.1 247.8,199 "/>
<polygon points="246.4,199.6 247.4,201.4 247.1,201.5 246.9,201.7 245.8,199.9 246.1,199.8 "/>
<polygon points="244.7,200.4 245.9,202.4 245.6,202.6 245.4,202.8 244.2,200.7 244.4,200.6 "/>
<polygon points="243,201.2 244.4,203.6 244.1,203.7 243.9,203.9 242.5,201.5 242.8,201.4 "/>
<g>
	<text transform="matrix(1 0 0 1 230.53 206.41)" class="st0 st1">H</text>
	<text transform="matrix(1 0 0 1 235.42 207.45)" class="st0 st2">2</text>
	<text transform="matrix(1 0 0 1 237.74 206.41)" class="st0 st1">N</text>
</g>
<polygon points="546.3,195.8 538.8,208.9 538.5,208.9 538.3,208.5 545.6,195.8 546,195.8 "/>
<polygon points="538.3,209.1 523.6,209.1 523.4,208.9 523.6,208.5 538.3,208.5 538.5,208.9 "/>
<polygon points="523,208.9 515.7,196.1 515.8,195.8 516.2,195.8 523.6,208.5 523.4,208.9 "/>
<polygon points="515.7,195.5 523,182.8 523.4,182.8 523.6,183.1 516.2,195.8 515.8,195.8 "/>
<polygon points="523.6,182.4 538.3,182.4 538.5,182.8 538.3,183.1 523.6,183.1 523.4,182.8 "/>
<polygon points="538.3,182.4 543.8,172.9 544,173.1 544.3,173.2 538.8,182.8 538.5,182.8 "/>
<g>
	<text transform="matrix(1 0 0 1 543.58 171.54)" class="st0 st3">N</text>
	<text transform="matrix(1 0 0 1 548.38 171.54)" class="st0 st3">H</text>
	<text transform="matrix(1 0 0 1 553.18 172.56)" class="st0 st4">2</text>
</g>
<polygon points="538.8,182.8 546.3,195.8 546,195.8 545.6,195.8 538.3,183.1 538.5,182.8 "/>
<polygon points="523,182.8 517.5,173.2 517.8,173.1 518,172.9 523.6,182.4 523.4,182.8 "/>
<g>
	<text transform="matrix(1 0 0 1 513.27 172.4)" class="st0 st3">O</text>
</g>
<polygon points="517.5,166.2 523,156.7 523.4,156.7 523.6,157 518,166.5 517.8,166.4 "/>
<polygon points="523,156.7 515.7,143.9 515.8,143.6 516.2,143.6 523.6,156.4 523.4,156.7 "/>
<polygon points="515.7,143.3 523,130.6 523.4,130.6 523.6,130.9 516.2,143.6 515.8,143.6 "/>
<polygon points="523.6,130.3 538.3,130.3 538.5,130.6 538.3,130.9 523.6,130.9 523.4,130.6 "/>
<polygon points="538.8,130.6 546.2,143.3 546,143.6 545.6,143.6 538.3,130.9 538.5,130.6 "/>
<polygon points="546.2,143.9 540.6,153.5 540.4,153.3 540.1,153.2 545.6,143.6 546,143.6 "/>
<g>
	<text transform="matrix(1 0 0 1 535.87 159.35)" class="st0 st3">O</text>
</g>
<polygon points="535.3,157 523.6,157 523.4,156.7 523.6,156.4 535.3,156.4 535.3,156.7 "/>
<polygon points="546.2,143.3 560.9,143.3 561,143.6 561.2,143.9 546.2,143.9 546,143.6 "/>
<polygon points="560.9,143.3 566.4,133.8 566.6,133.9 566.9,134.1 561.2,143.9 561,143.6 "/>
<g>
	<text transform="matrix(1 0 0 1 566.18 132.4)" class="st0 st3">N</text>
	<text transform="matrix(1 0 0 1 570.98 132.4)" class="st0 st3">H</text>
	<text transform="matrix(1 0 0 1 575.78 133.42)" class="st0 st4">2</text>
</g>
<polygon points="538.3,130.3 543.8,120.7 544,120.9 544.3,121 538.8,130.6 538.5,130.6 "/>
<g>
	<text transform="matrix(1 0 0 1 543.4 120.21)" class="st0 st3">O</text>
	<text transform="matrix(1 0 0 1 548.57 120.21)" class="st0 st3">H</text>
</g>
<polygon points="523,130.6 517.5,121 517.8,120.9 518,120.7 523.6,130.3 523.4,130.6 "/>
<g>
	<text transform="matrix(1 0 0 1 508.47 120.21)" class="st0 st3">H</text>
	<text transform="matrix(1 0 0 1 513.27 120.21)" class="st0 st3">O</text>
</g>
<polygon points="515.7,143.9 503.8,143.9 503.8,143.6 503.8,143.3 515.7,143.3 515.8,143.6 "/>
<g>
	<text transform="matrix(1 0 0 1 491.38 145.45)" class="st0 st3">H</text>
	<text transform="matrix(1 0 0 1 496.17 146.47)" class="st0 st4">2</text>
	<text transform="matrix(1 0 0 1 498.45 145.45)" class="st0 st3">N</text>
</g>
<polygon points="515.7,196.1 504,196.1 504,195.8 504,195.5 515.7,195.5 515.8,195.8 "/>
<g>
	<text transform="matrix(1 0 0 1 498.2 198.49)" class="st0 st3">O</text>
</g>
<polygon points="498.6,192.6 493.1,183 493.2,182.8 493.6,182.7 499.1,192.3 498.9,192.4 "/>
<polygon points="493.1,183 478.4,181.5 478.3,181.2 478.5,180.9 493.1,182.4 493.2,182.8 "/>
<polygon points="478,181.1 474.9,166.7 475.1,166.4 475.5,166.6 478.5,180.9 478.3,181.2 "/>
<polygon points="475.1,166.1 487.9,158.7 488.2,158.9 488.1,159.3 475.5,166.6 475.1,166.4 "/>
<polygon points="488.5,158.8 496.4,165.9 496.2,166.1 496,166.3 488.1,159.3 488.2,158.9 "/>
<g>
	<text transform="matrix(1 0 0 1 496.8 171.68)" class="st0 st3">O</text>
</g>
<polygon points="498.2,172.5 493.6,182.7 493.2,182.8 493.1,182.4 497.6,172.2 497.9,172.3 "/>
<polygon points="487.9,158.7 489.4,144.1 489.8,143.9 490.1,143.8 488.5,158.8 488.2,158.9 "/>
<polygon points="489.4,144.1 480.6,137.6 480.8,137.4 480.9,137.1 490.1,143.8 489.8,143.9 "/>
<g>
	<text transform="matrix(1 0 0 1 470.19 137.76)" class="st0 st3">H</text>
	<text transform="matrix(1 0 0 1 474.99 137.76)" class="st0 st3">O</text>
</g>
<polygon points="474.9,166.7 464.4,162 464.6,161.7 464.7,161.5 475.1,166.1 475.1,166.4 "/>
<g>
	<text transform="matrix(1 0 0 1 458.79 163.01)" class="st0 st3">O</text>
</g>
<polygon points="458.4,162.9 449.5,169.3 449.2,169.2 449.1,168.8 458,162.4 458.2,162.6 "/>
<polygon points="448.9,169.4 435.5,163.4 435.4,163 435.7,162.8 449.1,168.8 449.2,169.2 "/>
<polygon points="435.5,163.4 423.6,172 423.2,171.9 423.2,171.6 435.1,162.9 435.4,163 "/>
<polygon points="423.6,172 425.1,186.7 424.8,186.9 424.5,186.7 423,172.1 423.2,171.9 "/>
<polygon points="425.1,186.7 438.5,192.7 438.6,193 438.3,193.2 424.9,187.2 424.8,186.9 "/>
<polygon points="438.5,192.7 447.4,186.2 447.6,186.5 447.8,186.7 438.9,193.1 438.6,193 "/>
<g>
	<text transform="matrix(1 0 0 1 448.18 186.84)" class="st0 st3">O</text>
</g>
<polygon points="450.1,180.8 448.9,169.4 449.2,169.2 449.5,169.3 450.7,180.8 450.4,180.8 "/>
<polygon points="438.9,193.1 440.5,208.1 440.1,208 439.8,207.9 438.3,193.2 438.6,193 "/>
<polygon points="440.5,208.1 431.1,214.9 431,214.7 430.8,214.4 439.8,207.9 440.1,208 "/>
<g>
	<text transform="matrix(1 0 0 1 418.55 218.68)" class="st0 st3">H</text>
	<text transform="matrix(1 0 0 1 423.35 219.7)" class="st0 st4">2</text>
	<text transform="matrix(1 0 0 1 425.62 218.68)" class="st0 st3">N</text>
</g>
<polygon points="424.9,187.2 416,193.7 415.8,193.4 415.6,193.2 424.5,186.7 424.8,186.9 "/>
<g>
	<text transform="matrix(1 0 0 1 405.25 198.42)" class="st0 st3">H</text>
	<text transform="matrix(1 0 0 1 410.04 198.42)" class="st0 st3">O</text>
</g>
<polygon points="423,172.1 412.5,167.5 412.7,167.2 412.8,166.9 423.2,171.6 423.2,171.9 "/>
<g>
	<text transform="matrix(1 0 0 1 402.09 168.46)" class="st0 st3">H</text>
	<text transform="matrix(1 0 0 1 406.89 168.46)" class="st0 st3">O</text>
</g>
<polygon points="435.1,162.9 433.9,151.4 434.2,151.4 434.5,151.4 435.7,162.8 435.4,163 "/>
<g>
	<text transform="matrix(1 0 0 1 424.44 149.89)" class="st0 st3">H</text>
	<text transform="matrix(1 0 0 1 429.24 150.92)" class="st0 st4">2</text>
	<text transform="matrix(1 0 0 1 431.51 149.89)" class="st0 st3">N</text>
</g>
<polygon points="478.4,181.5 471.4,189.2 471.2,189 471,188.8 478,181.1 478.3,181.2 "/>
<g>
	<text transform="matrix(1 0 0 1 460.81 195.06)" class="st0 st3">H</text>
	<text transform="matrix(1 0 0 1 465.61 195.06)" class="st0 st3">O</text>
</g>
<polygon points="523.6,209.1 518,218.7 517.8,218.5 517.5,218.4 523,208.9 523.4,208.9 "/>
<g>
	<text transform="matrix(1 0 0 1 508.47 224.58)" class="st0 st3">H</text>
	<text transform="matrix(1 0 0 1 513.27 224.58)" class="st0 st3">O</text>
</g>
<polygon points="538.8,208.9 544.3,218.4 544,218.5 543.8,218.7 538.3,209.1 538.5,208.9 "/>
<g>
	<text transform="matrix(1 0 0 1 543.58 223.73)" class="st0 st3">N</text>
	<text transform="matrix(1 0 0 1 548.38 223.73)" class="st0 st3">H</text>
	<text transform="matrix(1 0 0 1 553.18 224.75)" class="st0 st4">2</text>
</g>
<polygon points="746.6,228.9 738,213.9 738.2,213.6 738.6,213.6 747.2,228.5 746.9,228.7 "/>
<polygon points="738,213.2 746.5,198.4 746.9,198.4 747.1,198.7 738.6,213.6 738.2,213.6 "/>
<polygon points="747.1,198 764.2,198 764.4,198.4 764.6,198.7 747.1,198.7 746.9,198.4 "/>
<polygon points="764.2,198 772.8,183.2 773.2,183.2 773.6,183.2 764.6,198.7 764.4,198.4 "/>
<polygon points="772.8,183.2 764.2,168.4 764.4,168.1 764.8,168.1 773.6,183.2 773.2,183.2 "/>
<polygon points="764.2,168.4 747.1,168.4 746.9,168.1 747.1,167.7 764.2,167.7 764.4,168.1 "/>
<polygon points="747.1,168.4 740.7,179.5 740.4,179.3 740.1,179.1 746.5,168.1 746.9,168.1 "/>
<g>
	<text transform="matrix(1 0 0 1 735.15 186.34)" class="st0 st5">O</text>
</g>
<polygon points="740.7,186.9 747.1,198 746.9,198.4 746.5,198.4 740.1,187.3 740.4,187.1 "/>
<polygon points="746.5,168.1 740.1,156.9 740.4,156.8 740.7,156.6 747.1,167.7 746.9,168.1 "/>
<g>
	<text transform="matrix(1 0 0 1 735.15 156.01)" class="st0 st5">O</text>
</g>
<polygon points="734.5,153.2 720.8,153.2 720.6,152.9 720.8,152.5 734.5,152.5 734.5,152.9 "/>
<polygon points="720.2,152.9 711.7,138.1 711.9,137.7 712.3,137.7 720.8,152.5 720.6,152.9 "/>
<polygon points="711.7,138.1 694.6,138.1 694.4,137.7 694.2,137.4 711.7,137.4 711.9,137.7 "/>
<polygon points="694.6,138.1 686,152.9 685.6,152.9 685.4,152.5 694.2,137.4 694.4,137.7 "/>
<polygon points="686,152.9 694.6,167.7 694.4,168.1 694,168.1 685.4,153.2 685.6,152.9 "/>
<polygon points="694.6,167.7 711.7,167.7 711.9,168.1 711.7,168.4 694.6,168.4 694.4,168.1 "/>
<polygon points="712.3,168.1 718.7,179.1 718.4,179.3 718.1,179.5 711.7,168.4 711.9,168.1 "/>
<g>
	<text transform="matrix(1 0 0 1 717.64 186.34)" class="st0 st5">O</text>
	<text transform="matrix(1 0 0 1 723.65 186.34)" class="st0 st5">H</text>
</g>
<polygon points="711.7,167.7 720.2,152.9 720.6,152.9 720.8,153.2 712.3,168.1 711.9,168.1 "/>
<polygon points="694.6,168.4 688.2,179.5 687.9,179.3 687.6,179.1 694,168.1 694.4,168.1 "/>
<g>
	<text transform="matrix(1 0 0 1 682.61 186.34)" class="st0 st5">O</text>
</g>
<polygon points="681.9,183.6 668.3,183.6 668.1,183.2 668.3,182.9 681.9,182.9 681.9,183.2 "/>
<polygon points="668.3,183.6 659.8,198.4 659.3,198.4 659.1,198 667.7,183.2 668.1,183.2 "/>
<polygon points="659.1,198.7 642,198.7 641.8,198.4 642,198 659.1,198 659.3,198.4 "/>
<polygon points="641.4,198.4 633,183.8 633.1,183.2 633.5,183.2 642,198 641.8,198.4 "/>
<polygon points="633,182.7 641.6,167.7 641.8,168.1 642,168.4 633.5,183.2 633.1,183.2 "/>
<polygon points="641.6,167.7 655.6,167.7 655.6,168.1 655.6,168.4 642,168.4 641.8,168.1 "/>
<g>
	<text transform="matrix(1 0 0 1 656.34 171.18)" class="st0 st5">O</text>
</g>
<polygon points="661.9,171.8 668.3,182.9 668.1,183.2 667.7,183.2 661.3,172.1 661.6,171.9 "/>
<polygon points="632.5,183.2 619.4,172.2 619.7,172 619.9,171.7 633,182.7 633.1,183.2 "/>
<polygon points="633,183.8 623.6,191.6 623.4,191.4 623.1,191.1 632.5,183.2 633.1,183.2 "/>
<g>
	<text transform="matrix(1 0 0 1 611.08 197.6)" class="st0 st5">H</text>
	<text transform="matrix(1 0 0 1 616.66 197.6)" class="st0 st5">O</text>
</g>
<polygon points="642,198.7 635.6,209.8 635.3,209.6 635,209.5 641.4,198.4 641.8,198.4 "/>
<g>
	<text transform="matrix(1 0 0 1 630.29 216.68)" class="st0 st5">N</text>
</g>
<g>
	<text transform="matrix(1 0 0 1 630.29 223.73)" class="st0 st5">H</text>
</g>
<polygon points="629.6,213.9 615.6,213.9 615.6,213.6 615.6,213.2 629.6,213.2 629.6,213.6 "/>
<polygon points="659.8,198.4 666.2,209.5 665.9,209.6 665.5,209.8 659.1,198.7 659.3,198.4 "/>
<g>
	<text transform="matrix(1 0 0 1 665.1 216.68)" class="st0 st5">O</text>
	<text transform="matrix(1 0 0 1 671.11 216.68)" class="st0 st5">H</text>
</g>
<polygon points="685.4,153.2 671.6,153.2 671.6,152.9 671.6,152.5 685.4,152.5 685.6,152.9 "/>
<g>
	<text transform="matrix(1 0 0 1 657.16 155.01)" class="st0 st5">H</text>
	<text transform="matrix(1 0 0 1 662.74 156.2)" class="st0 st6">2</text>
	<text transform="matrix(1 0 0 1 665.38 155.01)" class="st0 st5">N</text>
</g>
<polygon points="711.7,137.4 718.1,126.3 718.4,126.4 718.7,126.6 712.3,137.7 711.9,137.7 "/>
<g>
	<text transform="matrix(1 0 0 1 717.86 124.68)" class="st0 st5">N</text>
	<text transform="matrix(1 0 0 1 723.43 124.68)" class="st0 st5">H</text>
	<text transform="matrix(1 0 0 1 729.01 125.87)" class="st0 st6">2</text>
</g>
<polygon points="764.2,167.7 770.6,156.6 770.9,156.8 771.2,156.9 764.8,168.1 764.4,168.1 "/>
<g>
	<text transform="matrix(1 0 0 1 770.4 155.01)" class="st0 st5">N</text>
	<text transform="matrix(1 0 0 1 775.97 155.01)" class="st0 st5">H</text>
	<text transform="matrix(1 0 0 1 781.55 156.2)" class="st0 st6">2</text>
</g>
<polygon points="738,213.9 724.1,213.9 724.1,213.6 724.1,213.2 738,213.2 738.2,213.6 "/>
<g>
	<text transform="matrix(1 0 0 1 717.86 210.29)" class="st0 st5">H</text>
</g>
<g>
	<text transform="matrix(1 0 0 1 717.86 217.34)" class="st0 st5">N</text>
</g>
<polygon points="718.7,217.6 712.2,228.9 711.9,228.7 711.6,228.5 718.1,217.3 718.4,217.4 "/>
<polygon points="104.6,201.2 88.7,200.8 88.7,200.5 88.8,200.1 104.3,200.5 104.4,200.9 "/>
<polygon points="88.4,200.6 80.9,186.9 81.1,186.6 81.5,186.6 88.8,200.1 88.7,200.5 "/>
<polygon points="80.9,186.2 89.1,173 89.4,173.1 89.5,173.4 81.5,186.6 81.1,186.6 "/>
<polygon points="89.4,172.8 104.9,173.2 105.1,173.5 104.9,173.8 89.5,173.4 89.4,173.1 "/>
<polygon points="105.5,173.6 113,187.2 112.7,187.4 112.3,187.4 104.9,173.8 105.1,173.5 "/>
<polygon points="112.7,187.8 112.7,187.1 113.1,187.1 113.4,187.1 113.3,187.8 113,187.8 "/>
<polygon points="114.4,187.9 114.4,186.9 114.8,186.9 115.1,187 115.1,187.9 114.7,187.9 "/>
<polygon points="116.1,188.1 116.2,186.8 116.5,186.9 116.8,186.9 116.8,188.1 116.4,188.1 "/>
<polygon points="117.8,188.3 117.9,186.7 118.2,186.7 118.5,186.8 118.5,188.3 118.2,188.3 "/>
<polygon points="119.5,188.5 119.6,186.6 119.9,186.6 120.2,186.6 120.2,188.5 119.8,188.5 "/>
<polygon points="121.2,188.7 121.3,186.5 121.6,186.5 121.9,186.5 121.9,188.7 121.6,188.7 "/>
<polygon points="122.9,188.9 123,186.4 123.3,186.4 123.6,186.4 123.6,188.9 123.3,188.9 "/>
<polygon points="124.7,189.1 124.7,186.3 125,186.3 125.3,186.3 125.3,189.1 125,189.1 "/>
<g>
	<text transform="matrix(1 0 0 1 125.95 189.72)" class="st0 st7">N</text>
	<text transform="matrix(1 0 0 1 130.98 189.72)" class="st0 st7">H</text>
	<text transform="matrix(1 0 0 1 136 190.79)" class="st0 st8">2</text>
</g>
<polygon points="112.9,187.6 104.6,201.2 104.4,200.9 104.3,200.5 112.3,187.4 112.7,187.4 "/>
<polygon points="104.9,173.2 110,162.8 111.2,163.6 112.4,164.3 105.5,173.6 105.1,173.5 "/>
<g>
	<text transform="matrix(1 0 0 1 110.67 162.88)" class="st0 st7">O</text>
</g>
<polygon points="129.1,160.1 129.1,160.8 128.8,160.8 128.5,160.8 128.5,160.1 128.8,160.1 "/>
<polygon points="127.4,159.9 127.4,160.9 127.1,160.9 126.8,160.9 126.8,159.9 127.1,159.9 "/>
<polygon points="125.8,159.7 125.7,161 125.4,161 125.1,161 125.1,159.7 125.4,159.7 "/>
<polygon points="124.1,159.5 124.1,161.1 123.7,161.1 123.4,161.1 123.5,159.5 123.8,159.5 "/>
<polygon points="122.4,159.4 122.4,161.2 122.1,161.2 121.7,161.2 121.8,159.3 122.1,159.3 "/>
<polygon points="120.7,159.1 120.7,161.3 120.4,161.3 120.1,161.3 120.1,159.1 120.4,159.1 "/>
<polygon points="119.1,159 119,161.4 118.7,161.4 118.4,161.4 118.4,158.9 118.8,158.9 "/>
<polygon points="117.4,158.8 117.3,161.6 117,161.6 116.7,161.5 116.8,158.8 117.1,158.8 "/>
<polygon points="128.9,160.3 137.1,146.8 137.4,147 137.6,147.3 129.5,160.5 129.2,160.5 "/>
<polygon points="137.4,146.7 153,147.1 153.2,147.4 153,147.7 137.6,147.3 137.4,147 "/>
<polygon points="153.6,147.4 161,161.1 160.7,161.3 160.4,161.3 153,147.7 153.2,147.4 "/>
<polygon points="161,161.4 152.9,174.7 152.5,174.7 152.3,174.4 160.4,161.3 160.7,161.3 "/>
<polygon points="152.3,175.1 140,174.7 140,174.4 140.1,174.1 152.3,174.4 152.5,174.7 "/>
<g>
	<text transform="matrix(1 0 0 1 134 177.15)" class="st0 st7">O</text>
</g>
<polygon points="134.5,171 128.9,160.6 129.2,160.5 129.5,160.5 135.1,170.7 134.8,170.8 "/>
<polygon points="152.9,174.7 161.5,188.3 160,188.6 158.6,188.9 152.3,175.1 152.5,174.7 "/>
<polygon points="161.5,188.3 172.5,188.6 172.5,188.9 172.5,189.2 158.6,188.9 160,188.6 "/>
<g>
	<text transform="matrix(1 0 0 1 173.1 191.83)" class="st0 st7">O</text>
	<text transform="matrix(1 0 0 1 178.52 191.83)" class="st0 st7">H</text>
</g>
<polygon points="160.8,161.6 160.8,160.9 161.1,160.9 161.4,160.9 161.4,161.6 161.1,161.6 "/>
<polygon points="162.4,161.8 162.5,160.8 162.8,160.8 163.1,160.8 163.1,161.8 162.8,161.8 "/>
<polygon points="164.1,162 164.1,160.7 164.5,160.7 164.8,160.7 164.8,162 164.4,162 "/>
<polygon points="165.8,162.2 165.8,160.6 166.1,160.6 166.5,160.6 166.4,162.2 166.1,162.2 "/>
<polygon points="167.5,162.4 167.5,160.5 167.8,160.5 168.1,160.5 168.1,162.4 167.8,162.4 "/>
<polygon points="169.1,162.6 169.2,160.4 169.5,160.4 169.8,160.4 169.8,162.6 169.5,162.6 "/>
<polygon points="170.8,162.8 170.9,160.3 171.2,160.3 171.5,160.3 171.5,162.8 171.1,162.8 "/>
<polygon points="172.5,163 172.6,160.2 172.9,160.2 173.2,160.2 173.1,163 172.8,163 "/>
<g>
	<text transform="matrix(1 0 0 1 173.8 164.5)" class="st0 st7">O</text>
	<text transform="matrix(1 0 0 1 179.22 164.5)" class="st0 st7">H</text>
</g>
<polygon points="153,147.1 158.1,136.7 159.3,137.4 160.5,138.2 153.6,147.4 153.2,147.4 "/>
<g>
	<text transform="matrix(1 0 0 1 158.91 135.86)" class="st0 st7">N</text>
	<text transform="matrix(1 0 0 1 163.94 135.86)" class="st0 st7">H</text>
	<text transform="matrix(1 0 0 1 168.97 136.93)" class="st0 st8">2</text>
</g>
<polygon points="137.7,146.8 137.1,147.1 136.9,146.8 136.8,146.6 137.4,146.2 137.5,146.5 "/>
<polygon points="137,145.1 136,145.6 135.9,145.3 135.7,145 136.6,144.5 136.8,144.8 "/>
<polygon points="136.2,143.4 135,144 134.9,143.8 134.7,143.5 135.9,142.8 136.1,143.1 "/>
<polygon points="135.5,141.7 134,142.5 133.8,142.2 133.7,141.9 135.2,141.1 135.3,141.4 "/>
<polygon points="134.8,139.9 132.9,140.9 132.8,140.7 132.6,140.4 134.5,139.4 134.6,139.7 "/>
<polygon points="134,138.2 131.9,139.4 131.7,139.1 131.6,138.9 133.7,137.7 133.9,138 "/>
<polygon points="133.3,136.5 130.9,137.9 130.7,137.6 130.6,137.3 133,136 133.1,136.2 "/>
<g>
	<text transform="matrix(1 0 0 1 122.13 135.95)" class="st0 st7">H</text>
	<text transform="matrix(1 0 0 1 127.16 135.95)" class="st0 st7">O</text>
</g>
<polygon points="89.6,172.9 89,173.2 88.9,173 88.7,172.7 89.3,172.4 89.5,172.6 "/>
<polygon points="88.9,171.2 88,171.7 87.8,171.4 87.7,171.1 88.6,170.6 88.8,170.9 "/>
<polygon points="88.2,169.5 86.9,170.2 86.8,169.9 86.7,169.6 87.9,168.9 88,169.2 "/>
<polygon points="87.4,167.8 85.9,168.6 85.8,168.3 85.6,168.1 87.1,167.2 87.3,167.5 "/>
<polygon points="86.7,166.1 84.9,167.1 84.7,166.8 84.6,166.5 86.4,165.5 86.6,165.8 "/>
<polygon points="86,164.4 83.8,165.5 83.7,165.2 83.5,165 85.7,163.8 85.8,164.1 "/>
<polygon points="85.2,162.6 82.8,164 82.7,163.7 82.5,163.4 84.9,162.1 85.1,162.4 "/>
<g>
	<text transform="matrix(1 0 0 1 74.08 162.07)" class="st0 st7">H</text>
	<text transform="matrix(1 0 0 1 79.11 162.07)" class="st0 st7">O</text>
</g>
<polygon points="80.9,186.9 68.6,187.7 68.7,186.3 68.7,184.9 80.9,186.2 81.1,186.6 "/>
<g>
	<text transform="matrix(1 0 0 1 62.63 189)" class="st0 st7">O</text>
</g>
<polygon points="57.5,172.5 58.1,172.2 58.3,172.5 58.4,172.7 57.8,173.1 57.7,172.8 "/>
<polygon points="58.2,174.2 59.2,173.7 59.3,174 59.5,174.3 58.5,174.8 58.4,174.5 "/>
<polygon points="59,175.9 60.2,175.3 60.3,175.6 60.5,175.8 59.3,176.5 59.1,176.2 "/>
<polygon points="59.7,177.6 61.2,176.8 61.4,177.1 61.5,177.4 60,178.2 59.8,177.9 "/>
<polygon points="60.4,179.4 62.3,178.4 62.4,178.6 62.6,178.9 60.7,179.9 60.6,179.6 "/>
<polygon points="61.2,181.1 63.3,179.9 63.5,180.2 63.6,180.5 61.5,181.6 61.3,181.4 "/>
<polygon points="61.9,182.8 64.3,181.4 64.5,181.7 64.7,182 62.2,183.3 62,183.1 "/>
<polygon points="57.8,172.6 42,172.2 42,171.9 42.2,171.6 57.6,172 57.8,172.3 "/>
<polygon points="41.7,172.1 34.1,158 34.5,158 34.8,158.1 42.2,171.6 42,171.9 "/>
<polygon points="34.1,158 42.4,144.4 42.7,144.6 42.9,144.9 34.8,158.1 34.5,158 "/>
<polygon points="42.7,144.3 58.3,144.7 58.5,145 58.3,145.3 42.9,144.9 42.7,144.6 "/>
<polygon points="58.9,145 64.4,155.2 64.1,155.3 63.8,155.5 58.3,145.3 58.5,145 "/>
<g>
	<text transform="matrix(1 0 0 1 63.33 161.67)" class="st0 st7">O</text>
</g>
<polygon points="64.2,162.5 58.1,172.5 57.8,172.3 57.6,172 63.6,162.2 63.9,162.4 "/>
<polygon points="58.3,144.7 65.7,130.4 66.7,131.5 67.7,132.6 58.9,145 58.5,145 "/>
<polygon points="65.7,130.4 60.8,121.3 61.1,121.2 61.4,121 67.7,132.6 66.7,131.5 "/>
<g>
	<text transform="matrix(1 0 0 1 49.33 119.56)" class="st0 st7">H</text>
	<text transform="matrix(1 0 0 1 54.36 120.63)" class="st0 st8">2</text>
	<text transform="matrix(1 0 0 1 56.74 119.56)" class="st0 st7">N</text>
</g>
<polygon points="43,144.4 42.4,144.7 42.2,144.4 42.1,144.1 42.7,143.8 42.8,144.1 "/>
<polygon points="42.3,142.6 41.3,143.1 41.2,142.9 41,142.6 42,142.1 42.1,142.4 "/>
<polygon points="41.5,140.9 40.3,141.6 40.2,141.3 40,141.1 41.2,140.4 41.4,140.7 "/>
<polygon points="40.8,139.2 39.3,140.1 39.1,139.8 39,139.5 40.5,138.7 40.7,138.9 "/>
<polygon points="40.1,137.5 38.2,138.5 38.1,138.2 37.9,138 39.8,137 39.9,137.2 "/>
<polygon points="39.3,135.8 37.2,137 37,136.7 36.9,136.4 39,135.3 39.2,135.5 "/>
<polygon points="38.6,134.1 36.2,135.4 36,135.1 35.8,134.9 38.3,133.6 38.5,133.8 "/>
<g>
	<text transform="matrix(1 0 0 1 27.43 133.52)" class="st0 st7">H</text>
	<text transform="matrix(1 0 0 1 32.46 133.52)" class="st0 st7">O</text>
</g>
<polygon points="41.7,171.8 42.3,172.1 42.1,172.4 42,172.7 41.3,172.3 41.5,172 "/>
<polygon points="40.6,173.2 41.5,173.8 41.3,174.1 41.1,174.3 40.2,173.8 40.4,173.5 "/>
<polygon points="39.5,174.7 40.7,175.4 40.5,175.7 40.3,176 39.2,175.2 39.3,175 "/>
<polygon points="38.4,176.2 39.9,177.1 39.7,177.4 39.5,177.6 38,176.7 38.2,176.4 "/>
<polygon points="37.3,177.7 39,178.8 38.9,179 38.7,179.3 36.9,178.2 37.1,177.9 "/>
<polygon points="36.2,179.1 38.2,180.4 38.1,180.7 37.9,180.9 35.8,179.7 36,179.4 "/>
<polygon points="35.1,180.6 37.4,182.1 37.3,182.3 37.1,182.6 34.7,181.1 34.9,180.9 "/>
<g>
	<text transform="matrix(1 0 0 1 23.91 187.3)" class="st0 st7">H</text>
	<text transform="matrix(1 0 0 1 28.93 188.37)" class="st0 st8">2</text>
	<text transform="matrix(1 0 0 1 31.32 187.3)" class="st0 st7">N</text>
</g>
<polygon points="88.3,200.3 88.9,200.7 88.8,200.9 88.6,201.2 88,200.9 88.2,200.6 "/>
<polygon points="87.2,201.8 88.1,202.3 87.9,202.6 87.8,202.9 86.9,202.3 87.1,202.1 "/>
<polygon points="86.1,203.3 87.3,204 87.2,204.3 87,204.5 85.8,203.8 86,203.5 "/>
<polygon points="85,204.7 86.5,205.6 86.3,205.9 86.2,206.2 84.7,205.3 84.8,205 "/>
<polygon points="83.9,206.2 85.7,207.3 85.5,207.6 85.4,207.8 83.6,206.7 83.8,206.5 "/>
<polygon points="82.8,207.7 84.9,208.9 84.7,209.2 84.6,209.5 82.5,208.2 82.6,207.9 "/>
<polygon points="81.7,209.1 84.1,210.6 83.9,210.9 83.8,211.1 81.4,209.7 81.5,209.4 "/>
<g>
	<text transform="matrix(1 0 0 1 70.55 215.85)" class="st0 st7">H</text>
	<text transform="matrix(1 0 0 1 75.58 216.92)" class="st0 st8">2</text>
	<text transform="matrix(1 0 0 1 77.96 215.85)" class="st0 st7">N</text>
</g>
<text transform="matrix(1 0 0 1 13.91 251.15)" class="st9 st10 st11">T</text>
<text transform="matrix(1 0 0 1 20.06 251.15)" class="st9 st10">obramycin: 0.00515 ±0.00042μM</text>
<text transform="matrix(1 0 0 1 220.31 251.15)" class="st9 st10">kanamycinB: 0.022±0.047μM</text>
<text transform="matrix(1 0 0 1 424.81 251.15)" class="st9 st10">Dekamycin:</text>
<text transform="matrix(1 0 0 1 489.07 251.15)" class="st12 st10"> </text>
<text transform="matrix(1 0 0 1 492.17 251.15)" class="st9 st10"> 5.59±1.39μM</text>
<text transform="matrix(1 0 0 1 635.02 255.15)" class="st9 st10">Gentamicin:43.7±</text>
<text transform="matrix(1 0 0 1 732.83 255.15)" class="st9 st10">1</text>
<text transform="matrix(1 0 0 1 738.77 255.15)" class="st9 st10">1.7μM</text>
<text transform="matrix(1 0 0 1 -99.4808 320.1899)" class="st9 st10">                                 The a</text>
<text transform="matrix(1 0 0 1 44.8092 320.1899)" class="st9 st10">f</text>
<text transform="matrix(1 0 0 1 48.0192 320.1899)" class="st9 st10">finity for J6F1 aptamer</text>
</svg>
