<?xml version="1.0" encoding="utf-8"?>
<!-- Generator: Adobe Illustrator 25.4.1, SVG Export Plug-In . SVG Version: 6.00 Build 0)  -->
<svg version="1.1" id="图层_1" xmlns="http://www.w3.org/2000/svg" xmlns:xlink="http://www.w3.org/1999/xlink" x="0px" y="0px"
	 viewBox="0 0 800 300" style="enable-background:new 0 0 800 300;" xml:space="preserve">
<style type="text/css">
	.st0{font-family:'ArialMT';}
	.st1{font-size:14.6679px;}
	.st2{fill:none;stroke:#000000;stroke-width:0.9184;stroke-miterlimit:3.8879;}
	.st3{fill:none;stroke:#000000;stroke-width:1.1462;stroke-miterlimit:3.8879;}
	.st4{font-size:16.9246px;}
	.st5{font-size:20px;}
</style>
<polygon points="59.5,122.5 42.8,92.8 43.6,92.9 44.4,92.9 60.3,121.2 59.9,121.9 "/>
<polygon points="61.6,118.2 47.6,93.2 48.2,92.9 48.8,92.6 62.8,117.6 62.2,117.9 "/>
<polygon points="42.8,92.8 60.2,63.6 60.6,64.2 60.9,64.9 44.4,92.9 43.6,92.9 "/>
<polygon points="60.2,63.6 93.4,64 93.8,64.6 93.4,65.3 60.9,64.9 60.6,64.2 "/>
<polygon points="62.8,67.6 91.5,67.9 91.5,68.6 91.5,69.3 62.8,68.9 62.8,68.3 "/>
<polygon points="94.6,64.6 110.5,93 110.1,93.6 109.3,93.6 93.4,65.3 93.8,64.6 "/>
<polygon points="110.5,94.3 93.5,122.9 93.1,122.2 92.8,121.6 109.3,93.6 110.1,93.6 "/>
<polygon points="106.1,93.9 91.5,118.6 90.9,118.2 90.3,117.9 104.9,93.2 105.5,93.6 "/>
<polygon points="93.5,122.9 59.5,122.5 59.9,121.9 60.3,121.2 92.8,121.6 93.1,122.2 "/>
<polygon points="110.5,93 143,93.4 143.4,94 143,94.7 110.5,94.3 110.1,93.6 "/>
<polygon points="143,93.4 159.6,65.4 160.3,65.4 161.1,65.4 144.2,94 143.4,94 "/>
<polygon points="155.1,65.7 141.1,40.7 141.7,40.4 142.3,40.1 156.3,65 155.7,65.4 "/>
<polygon points="159.6,65.4 143.7,37.1 144,36.4 144.4,35.8 161.1,65.4 160.3,65.4 "/>
<polygon points="143.7,37.1 117.4,36.8 117.4,36.1 117.4,35.4 144.4,35.8 144,36.4 "/>
<text transform="matrix(1 0 0 1 105.4923 41.9701)" class="st0 st1">N</text>
<polygon points="106.1,29 93.9,7.4 94.5,7 95.1,6.7 107.2,28.3 106.6,28.6 "/>
<polygon points="107,43.8 94.6,64.6 93.8,64.6 93.4,64 105.8,43.1 106.4,43.4 "/>
<polygon points="148.3,93.8 160.1,122.4 159.7,123 159.2,123.7 147.1,94.3 147.7,94.1 "/>
<polygon points="144.2,94 162.4,118.9 161.9,119.3 161.3,119.7 143,94.7 143.4,94 "/>
<polygon points="160.1,122.4 193.4,122.8 192.9,123.4 192.5,124.1 159.2,123.7 159.7,123 "/>
<polygon points="193.4,122.8 206.3,154.1 205.7,154.4 205.1,154.6 192.5,124.1 192.9,123.4 "/>
<polygon points="191.3,126.7 209.5,151.8 209.2,152.4 208.9,153.1 190.2,127.5 190.7,127.1 "/>
<polygon points="209.5,151.8 242.1,152.2 242.5,152.8 242.1,153.5 208.9,153.1 209.2,152.4 "/>
<polygon points="242.1,152.2 256.3,133.1 256.8,133.5 257.4,133.9 243.3,152.8 242.5,152.8 "/>
<polygon points="246.9,152.5 259.5,135.5 260,135.9 260.6,136.3 247.9,153.3 247.4,152.9 "/>
<text transform="matrix(1 0 0 1 257.0392 132.0824)" class="st0 st1">N</text>
<polygon points="269.2,127.8 293.8,136.1 293.8,136.8 293.2,137.3 268.7,129 269,128.4 "/>
<polygon points="294.5,137.2 294.1,169.7 293.5,170.1 292.8,169.6 293.2,137.3 293.8,136.8 "/>
<polygon points="290.5,139.7 290.2,167.1 289.5,167.1 288.8,167.1 289.2,139.6 289.8,139.6 "/>
<polygon points="294.1,169.7 322.1,186.3 322.1,187 322.1,187.8 293.4,170.8 293.5,170.1 "/>
<polygon points="321.8,181.8 346.8,167.8 347.1,168.4 347.4,169 322.4,183 322.1,182.4 "/>
<polygon points="322.1,186.3 350.4,170.3 351.1,170.7 351.7,171.1 322.1,187.8 322.1,187 "/>
<polygon points="350.4,170.3 350.8,137.9 351.5,137.5 352.1,137.1 351.7,171.1 351.1,170.7 "/>
<polygon points="347.1,140.3 322.5,125.7 322.8,125.1 323.1,124.5 347.8,139.2 347.4,139.7 "/>
<polygon points="350.8,137.9 322.8,121.3 322.8,120.5 322.9,119.7 352.1,137.1 351.5,137.5 "/>
<polygon points="322.8,121.3 294.5,137.2 293.8,136.8 293.8,136.1 322.9,119.7 322.8,120.5 "/>
<polygon points="293.4,170.8 268.9,178.4 268.7,177.8 268.5,177.1 292.8,169.6 293.5,170.1 "/>
<text transform="matrix(1 0 0 1 255.9928 185.8993)" class="st0 st1">O</text>
<polygon points="255.9,172.9 242.1,153.5 242.5,152.8 243.3,152.8 257,172.2 256.5,172.6 "/>
<polygon points="259.4,118.9 251.9,95 252.4,94.4 253,93.8 260.7,118.5 260,118.7 "/>
<line class="st2" x1="267.2" y1="118.5" x2="272.8" y2="118.5"/>
<line class="st2" x1="270" y1="115.7" x2="270" y2="121.3"/>
<polygon points="251.9,95 226.5,89.2 226.6,88.6 226.8,87.9 253,93.8 252.4,94.4 "/>
<text transform="matrix(1 0 0 1 214.6837 93.0287)" class="st0 st1">R</text>
<polygon points="249.7,93.4 266.2,75.5 266.7,76 267.2,76.4 250.7,94.3 250.2,93.9 "/>
<polygon points="252.6,96.1 269.1,78.2 269.6,78.7 270.1,79.1 253.6,97 253.1,96.6 "/>
<text transform="matrix(1 0 0 1 269.2633 75.8656)" class="st0 st1">O</text>
<polygon points="104.2,228.7 126.4,215.8 126.8,216.4 127.1,217 104.9,229.8 104.6,229.2 "/>
<text transform="matrix(1 0 0 1 128.0822 206.4012)" class="st0 st1">H</text>
<text transform="matrix(1 0 0 1 128.0822 219.7928)" class="st0 st1">N</text>
<polygon points="140.3,215.8 162.2,228.5 162.2,229.2 162.2,230 139.7,217 140,216.4 "/>
<polygon points="162.2,228.5 191,211.8 191,212.6 191,213.4 162.2,230 162.2,229.2 "/>
<polygon points="191,211.8 213.1,224.6 212.8,225.2 212.4,225.7 191,213.4 191,212.6 "/>
<text transform="matrix(1 0 0 1 214.0919 235.1688)" class="st0 st1">O</text>
<polygon points="226.5,224.6 248.6,211.8 248.6,212.6 248.6,213.4 227.2,225.7 226.8,225.2 "/>
<polygon points="248.6,211.8 277.4,228.5 277.4,229.2 277.4,230 248.6,213.4 248.6,212.6 "/>
<polygon points="277.4,228.5 299.3,215.8 299.6,216.4 299.9,217 277.4,230 277.4,229.2 "/>
<text transform="matrix(1 0 0 1 300.921 206.4012)" class="st0 st1">H</text>
<text transform="matrix(1 0 0 1 300.921 219.7928)" class="st0 st1">N</text>
<polygon points="313.2,215.8 329.1,225.1 328.8,225.6 328.5,226.2 312.5,217 312.8,216.4 "/>
<text transform="matrix(1 0 0 1 330.1315 235.1688)" class="st0 st1">B</text>
<text transform="matrix(1 0 0 1 339.9152 235.1688)" class="st0 st1">i</text>
<text transform="matrix(1 0 0 1 343.174 235.1688)" class="st0 st1">o</text>
<text transform="matrix(1 0 0 1 351.3317 235.1688)" class="st0 st1">t</text>
<text transform="matrix(1 0 0 1 355.4069 235.1688)" class="st0 st1">i</text>
<text transform="matrix(1 0 0 1 358.6647 235.1688)" class="st0 st1">n</text>
<path class="st3" d="M65.7,188.3c1-0.7,2.3-0.5,3,0.5c0.7,1,0.5,2.3-0.5,3c0,0,0,0,0,0"/>
<path class="st3" d="M70.6,195.2c-1,0.7-2.3,0.5-3-0.5c-0.7-1-0.5-2.3,0.5-3c0,0,0,0,0,0"/>
<path class="st3" d="M70.6,195.2c1-0.7,2.3-0.5,3,0.5c0.7,1,0.5,2.3-0.5,3c0,0,0,0,0,0"/>
<path class="st3" d="M75.6,202.2c-1,0.7-2.3,0.5-3-0.5c-0.7-1-0.5-2.3,0.5-3c0,0,0,0,0,0"/>
<path class="st3" d="M75.6,202.2c1-0.7,2.3-0.5,3,0.5c0.7,1,0.5,2.3-0.5,3c0,0,0,0,0,0"/>
<path class="st3" d="M80.5,209.1c-1,0.7-2.3,0.5-3-0.5c-0.7-1-0.5-2.3,0.5-3c0,0,0,0,0,0"/>
<path class="st3" d="M80.5,209.1c1-0.7,2.3-0.5,3,0.5c0.7,1,0.5,2.3-0.5,3c0,0,0,0,0,0"/>
<path class="st3" d="M85.4,216.1c-1,0.7-2.3,0.5-3-0.5c-0.7-1-0.5-2.3,0.5-3c0,0,0,0,0,0"/>
<path class="st3" d="M85.4,216.1c1-0.7,2.3-0.5,3,0.5c0.7,1,0.5,2.3-0.5,3c0,0,0,0,0,0"/>
<path class="st3" d="M90.4,223c-1,0.7-2.3,0.5-3-0.5c-0.7-1-0.5-2.3,0.5-3c0,0,0,0,0,0"/>
<path class="st3" d="M90.4,223c1-0.7,2.3-0.5,3,0.5c0.7,1,0.5,2.3-0.5,3c0,0,0,0,0,0"/>
<path class="st3" d="M95.3,230c-1,0.7-2.3,0.5-3-0.5c-0.7-1-0.5-2.3,0.5-3c0,0,0,0,0,0"/>
<path class="st3" d="M95.3,230c1-0.7,2.3-0.5,3,0.5c0.7,1,0.5,2.3-0.5,3c0,0,0,0,0,0"/>
<path class="st3" d="M100.3,236.9c-1,0.7-2.3,0.5-3-0.5c-0.7-1-0.5-2.3,0.5-3c0,0,0,0,0,0"/>
<path class="st3" d="M100.3,236.9c1-0.7,2.3-0.5,3,0.5c0.7,1,0.5,2.3-0.5,3c0,0,0,0,0,0"/>
<path class="st3" d="M208.3,236.3c-7.6-13.2-7.6-29.5,0-42.6"/>
<path class="st3" d="M279.3,193.7c7.6,13.2,7.6,29.5,0,42.6"/>
<text transform="matrix(1 0 0 1 38.8966 221.745)" class="st0 st4">R:</text>
<text transform="matrix(1 0 0 1 492.1656 153.7948)" class="st0 st1">N</text>
<text transform="matrix(1 0 0 1 641.6647 122.0966)" class="st0 st1">N</text>
<text transform="matrix(1 0 0 1 595.4596 95.1864)" class="st0 st1">S</text>
<text transform="matrix(1 0 0 1 722.7975 145.6166)" class="st0 st1">R</text>
<text transform="matrix(1 0 0 1 693.568 95.7221)" class="st0 st1">O</text>
<ellipse class="st2" cx="655.6" cy="107.5" rx="4.2" ry="4.2"/>
<line class="st2" x1="652.8" y1="107.5" x2="658.4" y2="107.5"/>
<line class="st2" x1="655.6" y1="104.8" x2="655.6" y2="110.3"/>
<polygon points="548.3,119.4 564.4,147.6 564,148.3 563.2,148.2 547.1,120 547.5,119.3 "/>
<polygon points="564.4,148.9 547.6,177.6 547.2,177 546.8,176.3 563.2,148.2 564,148.3 "/>
<polygon points="513.5,177.4 501.1,155.6 501.7,155.3 502.3,154.9 514.3,176.1 513.9,176.8 "/>
<polygon points="501.2,140.1 513.5,119.1 514.3,119.1 514.6,119.8 502.4,140.8 501.8,140.5 "/>
<polygon points="545.2,124 516.5,123.8 516.5,123.2 516.6,122.5 545.2,122.7 545.2,123.3 "/>
<polygon points="547.1,120 514.6,119.8 514.3,119.1 514.7,118.5 547.1,118.7 547.5,119.3 "/>
<polygon points="596.9,147.8 613.1,119.6 613.9,119.6 614.3,120.3 597.6,149.1 597.2,148.4 "/>
<polygon points="613.1,119.6 603,96.9 603.6,96.6 604.3,96.4 614.3,118.9 613.9,119.6 "/>
<polygon points="606.1,83.2 624.4,66.7 625.1,67 625.2,67.8 607,84.1 606.6,83.6 "/>
<polygon points="654.5,84 649.2,108.9 648.5,108.8 647.9,108.6 653.1,84 653.9,83.6 "/>
<polygon points="624.4,66.7 624.4,33.3 625.1,33.7 625.7,34.1 625.7,66.6 625.1,67 "/>
<polygon points="624.4,33.3 653.9,16.3 653.9,17.1 653.9,17.9 625.7,34.1 625.1,33.7 "/>
<polygon points="628.7,35.5 653.5,21.1 653.9,21.7 654.2,22.3 629.4,36.6 629.1,36 "/>
<polygon points="653.9,16.3 683.3,33.3 682.7,33.7 682,34.1 653.9,17.9 653.9,17.1 "/>
<polygon points="683.3,33.3 683.3,67.4 682.7,67 682,66.6 682,34.1 682.7,33.7 "/>
<polygon points="679.4,36 679.4,64.7 678.7,64.7 678,64.7 678,36 678.7,36 "/>
<polygon points="683.3,67.4 654.5,84 653.9,83.6 653.9,82.9 682,66.6 682.7,67 "/>
<polygon points="653.1,84 625.2,67.8 625.1,67 625.7,66.6 653.9,82.9 653.9,83.6 "/>
<polygon points="653.5,79.6 628.7,65.3 629.1,64.7 629.4,64.1 654.2,78.4 653.9,79 "/>
<polygon points="654.1,122.3 670.6,138.8 670.5,139.7 670.4,140.5 653.1,123.3 653.6,122.8 "/>
<polygon points="670.6,138.8 699.3,122.3 699.3,123 699.3,123.8 670.4,140.5 670.5,139.7 "/>
<polygon points="699.3,122.3 721.8,135.3 721.5,135.9 721.1,136.4 699.3,123.8 699.3,123 "/>
<polygon points="514.2,60.9 548.3,61.1 547.9,61.7 547.5,62.4 515,62.2 514.6,61.5 "/>
<polygon points="548.3,61.1 565.1,90.6 564.3,90.6 563.6,90.6 547.5,62.4 547.9,61.7 "/>
<polygon points="546.1,65.4 560.3,90.3 559.7,90.6 559.1,90.9 545,66 545.5,65.7 "/>
<polygon points="565.1,90.6 548.3,119.4 547.5,119.3 547.1,118.7 563.6,90.6 564.3,90.6 "/>
<polygon points="547.6,177.6 513.5,177.4 513.9,176.8 514.3,176.1 546.8,176.3 547.2,177 "/>
<polygon points="544.9,173.6 516.2,173.4 516.2,172.8 516.3,172.1 544.9,172.3 544.9,173 "/>
<polygon points="490.8,148.5 464.2,148.3 464.2,147.7 464.2,147 490.8,147.2 490.8,147.8 "/>
<polygon points="566.3,143.6 595,143.8 595,144.4 594.9,145.1 566.3,144.9 566.3,144.3 "/>
<polygon points="564.4,147.6 596.9,147.8 597.2,148.4 597.6,149.1 564.4,148.9 564,148.3 "/>
<polygon points="696.6,124.2 696.6,97.2 697.3,97.2 697.9,97.2 698,124.2 697.3,124.2 "/>
<polygon points="700.6,124.2 700.6,97.2 701.3,97.2 701.9,97.2 701.9,124.2 701.3,124.2 "/>
<polygon points="513.5,119.1 497,90.2 497.8,90.2 498.6,90.2 514.7,118.5 514.3,119.1 "/>
<polygon points="497,90.2 514.2,60.9 514.6,61.5 515,62.2 498.6,90.2 497.8,90.2 "/>
<polygon points="501.8,89.9 516.3,65.2 516.9,65.5 517.5,65.9 503,90.6 502.4,90.3 "/>
<polygon points="640.4,117.5 614.3,120.3 613.9,119.6 614.3,118.9 640.3,116.2 640.3,116.9 "/>
<polygon points="640,113.5 616.4,116 616.3,115.4 616.3,114.7 639.8,112.2 639.9,112.9 "/>
<text transform="matrix(1 0 0 1 523.9879 206.4012)" class="st0 st1">H</text>
<text transform="matrix(1 0 0 1 523.9879 219.7928)" class="st0 st1">N</text>
<text transform="matrix(1 0 0 1 609.9977 235.1688)" class="st0 st1">O</text>
<text transform="matrix(1 0 0 1 696.8268 206.4012)" class="st0 st1">H</text>
<text transform="matrix(1 0 0 1 696.8268 219.7928)" class="st0 st1">N</text>
<polygon points="500.1,228.7 522.3,215.8 522.7,216.4 523,217 500.8,229.8 500.5,229.2 "/>
<polygon points="536.2,215.8 558.1,228.5 558.1,229.2 558.1,230 535.6,217 535.9,216.4 "/>
<polygon points="558.1,228.5 586.9,211.8 586.9,212.6 586.9,213.4 558.1,230 558.1,229.2 "/>
<polygon points="586.9,211.8 609,224.6 608.7,225.2 608.3,225.7 586.9,213.4 586.9,212.6 "/>
<polygon points="622.4,224.6 644.5,211.8 644.5,212.6 644.5,213.4 623.1,225.7 622.7,225.2 "/>
<polygon points="644.5,211.8 673.3,228.5 673.3,229.2 673.3,230 644.5,213.4 644.5,212.6 "/>
<polygon points="673.3,228.5 695.2,215.8 695.5,216.4 695.8,217 673.3,230 673.3,229.2 "/>
<polygon points="709.1,215.8 725,225.1 724.7,225.6 724.4,226.2 708.4,217 708.7,216.4 "/>
<text transform="matrix(1 0 0 1 726.0377 235.1688)" class="st0 st1">B</text>
<text transform="matrix(1 0 0 1 735.8209 235.1688)" class="st0 st1">i</text>
<text transform="matrix(1 0 0 1 739.0797 235.1688)" class="st0 st1">o</text>
<text transform="matrix(1 0 0 1 747.2369 235.1688)" class="st0 st1">t</text>
<text transform="matrix(1 0 0 1 751.3121 235.1688)" class="st0 st1">i</text>
<text transform="matrix(1 0 0 1 754.5699 235.1688)" class="st0 st1">n</text>
<path class="st3" d="M461.6,188.3c1-0.7,2.3-0.5,3,0.5c0.7,1,0.5,2.3-0.5,3c0,0,0,0,0,0"/>
<path class="st3" d="M466.5,195.2c-1,0.7-2.3,0.5-3-0.5c-0.7-1-0.5-2.3,0.5-3c0,0,0,0,0,0"/>
<path class="st3" d="M466.5,195.2c1-0.7,2.3-0.5,3,0.5c0.7,1,0.5,2.3-0.5,3c0,0,0,0,0,0"/>
<path class="st3" d="M471.5,202.2c-1,0.7-2.3,0.5-3-0.5c-0.7-1-0.5-2.3,0.5-3c0,0,0,0,0,0"/>
<path class="st3" d="M471.5,202.2c1-0.7,2.3-0.5,3,0.5c0.7,1,0.5,2.3-0.5,3c0,0,0,0,0,0"/>
<path class="st3" d="M476.4,209.1c-1,0.7-2.3,0.5-3-0.5c-0.7-1-0.5-2.3,0.5-3c0,0,0,0,0,0"/>
<path class="st3" d="M476.4,209.1c1-0.7,2.3-0.5,3,0.5c0.7,1,0.5,2.3-0.5,3c0,0,0,0,0,0"/>
<path class="st3" d="M481.3,216.1c-1,0.7-2.3,0.5-3-0.5c-0.7-1-0.5-2.3,0.5-3l0,0"/>
<path class="st3" d="M481.3,216.1c1-0.7,2.3-0.5,3,0.5c0.7,1,0.5,2.3-0.5,3"/>
<path class="st3" d="M486.3,223c-1,0.7-2.3,0.5-3-0.5c-0.7-1-0.5-2.3,0.5-3"/>
<path class="st3" d="M486.3,223c1-0.7,2.3-0.5,3,0.5c0.7,1,0.5,2.3-0.5,3"/>
<path class="st3" d="M491.2,230c-1,0.7-2.3,0.5-3-0.5c-0.7-1-0.5-2.3,0.5-3"/>
<path class="st3" d="M491.2,230c1-0.7,2.3-0.5,3,0.5c0.7,1,0.5,2.3-0.5,3l0,0"/>
<path class="st3" d="M496.2,236.9c-1,0.7-2.3,0.5-3-0.5c-0.7-1-0.5-2.3,0.5-3l0,0"/>
<path class="st3" d="M496.2,236.9c1-0.7,2.3-0.5,3,0.5c0.7,1,0.5,2.3-0.5,3l0,0"/>
<path class="st3" d="M604.2,236.3c-7.6-13.2-7.6-29.5,0-42.6"/>
<path class="st3" d="M675.2,193.7c7.6,13.2,7.6,29.5,0,42.6"/>
<text transform="matrix(1 0 0 1 434.8033 221.745)" class="st0 st4">R:</text>
<text transform="matrix(1 0 0 1 104.485 274.12)" class="st0 st5">YO3-biotin: 25.6 nM</text>
<text transform="matrix(1 0 0 1 524.485 274.12)" class="st0 st5">TO1-biotin: 3.2 nM</text>
</svg>
