<svg id="图层_1" data-name="图层 1" xmlns="http://www.w3.org/2000/svg" viewBox="0 0 200 130"><defs><style>.cls-1,.cls-2,.cls-3{isolation:isolate;}.cls-2{font-size:12.15px;}.cls-2,.cls-3{font-family:ArialMT, Arial;}.cls-3{font-size:7.47px;}</style></defs><polygon points="17.75 2.37 24.65 28.7 24.2 29.15 23.58 28.98 16.68 2.65 17.21 2.51 17.75 2.37"/><polygon points="24.65 28.7 51.22 35.98 50.76 36.42 50.31 36.87 24.36 29.77 24.2 29.15 24.65 28.7"/><polygon points="25.31 32.31 48.19 38.58 48.05 39.11 47.9 39.64 25.02 33.37 25.16 32.84 25.31 32.31"/><polygon points="51.22 35.98 58.22 62.69 57.75 63.07 57.13 62.9 50.31 36.87 50.76 36.42 51.22 35.98"/><polygon points="57.85 63.74 38.83 82.55 38.16 82.44 38 81.82 57.13 62.9 57.75 63.07 57.85 63.74"/><polygon points="54.45 62.45 37.58 79.14 37.19 78.75 36.81 78.36 53.68 61.67 54.06 62.06 54.45 62.45"/><polygon points="37.78 82.91 11.14 75.61 11.6 75.16 12.05 74.72 38 81.82 38.16 82.44 37.78 82.91"/><polygon points="11.14 75.61 4 48.35 4.61 48.52 5.23 48.69 12.05 74.72 11.6 75.16 11.14 75.61"/><polygon points="13.78 72.62 7.76 49.67 8.29 49.53 8.83 49.39 14.84 72.34 14.31 72.48 13.78 72.62"/><polygon points="4 48.35 23.58 28.98 24.2 29.15 24.36 29.77 5.23 48.69 4.61 48.52 4 48.35"/><polygon points="38.83 82.55 47.95 100.67 47.45 100.92 46.96 101.17 37.78 82.91 38.16 82.44 38.83 82.55"/><g class="cls-1"><text class="cls-2" transform="translate(46.15 111.97)">N</text></g><g class="cls-1"><text class="cls-2" transform="translate(46.15 123.06)">H</text></g><polygon points="55.94 105.67 77.28 102.41 77.76 102.89 78.24 103.37 56.1 106.75 56.02 106.21 55.94 105.67"/><polygon points="74.34 99.89 78.02 77.45 78.57 77.54 79.11 77.63 75.43 100.07 74.89 99.98 74.34 99.89"/><polygon points="77.28 102.41 81.61 76.01 82.22 75.71 82.72 76.07 78.24 103.37 77.76 102.89 77.28 102.41"/><polygon points="82.22 75.09 106.86 62.7 106.83 63.34 106.79 63.97 82.72 76.07 82.22 75.71 82.22 75.09"/><polygon points="106.86 62.7 129.88 77.83 129.84 78.47 129.28 78.75 106.79 63.97 106.83 63.34 106.86 62.7"/><polygon points="129.88 77.83 154.49 65.46 154.46 66.1 154.42 66.73 130.38 78.82 129.84 78.47 129.88 77.83"/><polygon points="152.2 66.92 153.49 44.6 154.04 44.63 154.59 44.66 153.3 66.99 152.75 66.95 152.2 66.92"/><polygon points="155.5 67.11 156.79 44.79 157.34 44.82 157.89 44.85 156.6 67.18 156.05 67.14 155.5 67.11"/><g class="cls-1"><text class="cls-2" transform="translate(151.32 43.52)">O</text></g><polygon points="154.49 65.46 171.95 76.94 171.65 77.4 171.34 77.86 154.42 66.73 154.46 66.1 154.49 65.46"/><g class="cls-1"><text class="cls-2" transform="translate(172.75 86.14)">O</text><text class="cls-2" transform="translate(182.2 86.14)">H</text></g><polygon points="130.38 78.82 129.16 99.87 128.61 99.84 128.06 99.81 129.28 78.75 129.84 78.47 130.38 78.82"/><g class="cls-1"><text class="cls-2" transform="translate(111.04 109.32)">H</text><text class="cls-3" transform="translate(119.82 111.19)">2</text><text class="cls-2" transform="translate(123.97 109.32)">N</text></g><polygon points="81.61 76.01 57.85 63.74 57.75 63.07 58.22 62.69 82.22 75.09 82.22 75.71 81.61 76.01"/></svg>