<svg id="图层_1" data-name="图层 1" xmlns="http://www.w3.org/2000/svg" viewBox="0 0 200 130"><defs><style>.cls-1,.cls-2,.cls-3{isolation:isolate;}.cls-2{font-size:13.3px;}.cls-2,.cls-3{font-family:ArialMT, Arial;}.cls-3{font-size:8.18px;}</style></defs><polygon points="28.3 120.79 3 103.14 3.63 102.85 4.26 102.55 28.42 119.4 28.36 120.1 28.3 120.79"/><polygon points="28.38 116.43 7.07 101.57 7.41 101.08 7.76 100.58 29.07 115.44 28.72 115.93 28.38 116.43"/><polygon points="3 103.14 5.63 72.41 6.2 72.81 6.77 73.2 4.26 102.55 3.63 102.85 3 103.14"/><polygon points="5.63 72.41 33.01 59.58 33.51 60.01 33.45 60.7 6.77 73.2 6.2 72.81 5.63 72.41"/><polygon points="9.37 74.65 32.89 63.63 33.15 64.17 33.41 64.72 9.88 75.74 9.63 75.19 9.37 74.65"/><polygon points="34.21 59.77 58.22 76.51 58.24 77.26 57.61 77.55 33.45 60.7 33.51 60.01 34.21 59.77"/><polygon points="58.82 77.58 56.24 107.7 55.67 107.3 55.1 106.9 57.61 77.55 58.24 77.26 58.82 77.58"/><polygon points="55.05 79.08 52.84 104.96 52.24 104.91 51.64 104.86 53.85 78.98 54.45 79.03 55.05 79.08"/><polygon points="56.24 107.7 28.3 120.79 28.36 120.1 28.42 119.4 55.1 106.9 55.67 107.3 56.24 107.7"/><polygon points="58.22 76.51 81.57 58.85 82.28 59.07 82.4 59.73 58.82 77.58 58.24 77.26 58.22 76.51"/><polygon points="77.44 57.96 69.28 34.44 69.86 34.24 70.42 34.05 78.58 57.57 78 57.77 77.44 57.96"/><polygon points="81.57 58.85 71.99 31.19 72.41 30.57 72.84 29.96 82.75 58.58 82.28 59.07 81.57 58.85"/><polygon points="71.99 31.19 48.28 31.64 48.27 31.04 48.26 30.44 72.84 29.96 72.41 30.57 71.99 31.19"/><g class="cls-1"><text class="cls-2" transform="translate(37.47 25.54)">H</text></g><g class="cls-1"><text class="cls-2" transform="translate(37.47 37.68)">N</text></g><polygon points="40.81 38.04 34.21 59.77 33.51 60.01 33.01 59.58 39.65 37.69 40.23 37.86 40.81 38.04"/><polygon points="82.75 58.58 110.98 67.15 111.14 67.83 111.29 68.5 82.4 59.73 82.28 59.07 82.75 58.58"/><polygon points="110.98 67.15 132.48 47.02 133.15 47.22 133.31 47.9 111.29 68.5 111.14 67.83 110.98 67.15"/><polygon points="133.66 46.74 161.84 55.3 162 55.98 162.16 56.66 133.31 47.9 133.15 47.22 133.66 46.74"/><polygon points="164.11 54.42 169.63 78.1 169.04 78.23 168.45 78.37 162.94 54.69 163.53 54.55 164.11 54.42"/><polygon points="160.59 55.24 166.1 78.92 165.52 79.05 164.93 79.19 159.41 55.51 160 55.38 160.59 55.24"/><g class="cls-1"><text class="cls-2" transform="translate(163.67 90.73)">O</text></g><polygon points="161.84 55.3 177.22 40.91 177.64 41.35 178.05 41.79 162.16 56.66 162 55.98 161.84 55.3"/><g class="cls-1"><text class="cls-2" transform="translate(178.84 40.76)">O</text><text class="cls-2" transform="translate(189.19 40.76)">H</text></g><polygon points="132.48 47.02 127.28 24.7 127.87 24.56 128.46 24.42 133.66 46.74 133.15 47.22 132.48 47.02"/><g class="cls-1"><text class="cls-2" transform="translate(107.47 21.53)">H</text><text class="cls-3" transform="translate(117.08 23.57)">2</text><text class="cls-2" transform="translate(121.63 21.53)">N</text></g></svg>