<?xml version="1.0" encoding="UTF-8"?>
<svg id="_图层_1" data-name="图层 1" xmlns="http://www.w3.org/2000/svg" viewBox="0 0 200 130">
  <defs>
    <style>
      .cls-1 {
        font-size: 12.21px;
      }

      .cls-1, .cls-2, .cls-3 {
        fill: #000;
      }

      .cls-1, .cls-4, .cls-3 {
        isolation: isolate;
      }

      .cls-1, .cls-3 {
        font-family: ArialMT, Arial;
      }

      .cls-2 {
        stroke-width: 0px;
      }

      .cls-3 {
        font-size: 7.51px;
      }
    </style>
  </defs>
  <polygon class="cls-2" points="54.26 49.12 66.23 64.48 65.79 64.82 65.35 65.17 52.89 49.17 53.57 49.14 54.26 49.12"/>
  <g class="cls-4">
    <text class="cls-1" transform="translate(66.18 75.93)"><tspan x="0" y="0">N</tspan></text>
  </g>
  <g class="cls-4">
    <text class="cls-1" transform="translate(66.18 87.07)"><tspan x="0" y="0">H</tspan></text>
  </g>
  <polygon class="cls-2" points="75.91 68.46 96.05 61.17 96.61 61.55 96.57 62.16 76.29 69.5 76.1 68.98 75.91 68.46"/>
  <polygon class="cls-2" points="96.05 61.17 95.15 34.3 95.69 33.88 96.25 34.18 97.16 61.21 96.61 61.55 96.05 61.17"/>
  <polygon class="cls-2" points="99.32 59.54 98.52 35.71 99.07 35.69 99.62 35.67 100.42 59.5 99.87 59.52 99.32 59.54"/>
  <polygon class="cls-2" points="95.15 34.3 74.45 28.34 74.6 27.81 74.75 27.27 95.6 33.28 95.69 33.88 95.15 34.3"/>
  <g class="cls-4">
    <text class="cls-1" transform="translate(64.68 21.06)"><tspan x="0" y="0">H</tspan></text>
  </g>
  <g class="cls-4">
    <text class="cls-1" transform="translate(64.68 32.21)"><tspan x="0" y="0">N</tspan></text>
  </g>
  <polygon class="cls-2" points="65.38 32.68 54.26 49.12 53.57 49.14 52.89 49.17 64.46 32.06 64.92 32.37 65.38 32.68"/>
  <polygon class="cls-2" points="95.6 33.28 113.38 22.21 113.67 22.68 113.96 23.15 96.25 34.18 95.69 33.88 95.6 33.28"/>
  <g class="cls-4">
    <text class="cls-1" transform="translate(114.78 24.19)"><tspan x="0" y="0">N</tspan></text>
  </g>
  <polygon class="cls-2" points="124.96 21.7 144.15 31.94 143.61 32.28 143.07 32.62 124.44 22.68 124.7 22.19 124.96 21.7"/>
  <polygon class="cls-2" points="123.39 24.63 140.61 33.82 140.35 34.31 140.09 34.79 122.87 25.61 123.13 25.12 123.39 24.63"/>
  <polygon class="cls-2" points="144.15 31.94 144.88 53.77 144.33 53.79 143.78 53.81 143.07 32.62 143.61 32.28 144.15 31.94"/>
  <g class="cls-4">
    <text class="cls-1" transform="translate(140.13 64.89)"><tspan x="0" y="0">N</tspan></text>
  </g>
  <polygon class="cls-2" points="139.31 63.85 121.6 74.88 121.04 74.58 121.02 73.94 138.73 62.91 139.02 63.38 139.31 63.85"/>
  <polygon class="cls-2" points="137.56 61.03 121.2 71.22 120.91 70.75 120.62 70.28 136.97 60.09 137.26 60.56 137.56 61.03"/>
  <polygon class="cls-2" points="121.6 74.88 122.31 96.07 121.76 96.09 121.21 96.11 120.5 74.92 121.04 74.58 121.6 74.88"/>
  <g class="cls-4">
    <text class="cls-1" transform="translate(117.56 105.62)"><tspan x="0" y="0">N</tspan></text>
    <text class="cls-1" transform="translate(126.37 105.62)"><tspan x="0" y="0">H</tspan></text>
    <text class="cls-3" transform="translate(135.19 107.5)"><tspan x="0" y="0">2</tspan></text>
  </g>
  <polygon class="cls-2" points="120.5 74.92 96.57 62.16 96.61 61.55 97.16 61.21 121.02 73.94 121.04 74.58 120.5 74.92"/>
  <circle class="cls-2" cx="53.57" cy="41.51" r="1.24"/>
</svg>