<?xml version="1.0" encoding="UTF-8"?>
<svg id="_图层_1" data-name="图层 1" xmlns="http://www.w3.org/2000/svg" viewBox="0 0 200 130">
  <defs>
    <style>
      .cls-1 {
        stroke-width: 0px;
      }

      .cls-1, .cls-2, .cls-3 {
        fill: #000;
      }

      .cls-4, .cls-2, .cls-3 {
        isolation: isolate;
      }

      .cls-2 {
        font-size: 7.52px;
      }

      .cls-2, .cls-3 {
        font-family: ArialMT, Arial;
      }

      .cls-3 {
        font-size: 12.21px;
      }
    </style>
  </defs>
  <polygon class="cls-1" points="125.48 66.3 139.22 48.02 139.67 48.36 140.11 48.69 126.37 66.97 125.93 66.64 125.48 66.3"/>
  <polygon class="cls-1" points="126.93 69.91 143.09 48.41 143.77 48.42 144.46 48.43 127.33 71.22 127.13 70.56 126.93 69.91"/>
  <polygon class="cls-1" points="143.09 48.41 131.73 32.23 132.19 31.91 132.64 31.59 144.46 48.43 143.77 48.42 143.09 48.41"/>
  <g class="cls-4">
    <text class="cls-3" transform="translate(123.45 20.59)"><tspan x="0" y="0">H</tspan></text>
  </g>
  <g class="cls-4">
    <text class="cls-3" transform="translate(123.45 31.74)"><tspan x="0" y="0">N</tspan></text>
  </g>
  <polygon class="cls-1" points="122.51 27.98 101.93 34.29 101.38 33.88 101.46 33.28 122.18 26.92 122.35 27.45 122.51 27.98"/>
  <polygon class="cls-1" points="101.93 34.29 101.49 61.18 100.93 61.57 100.38 61.24 100.83 34.19 101.38 33.88 101.93 34.29"/>
  <polygon class="cls-1" points="98.58 35.75 98.19 59.61 97.64 59.6 97.09 59.59 97.48 35.73 98.03 35.74 98.58 35.75"/>
  <polygon class="cls-1" points="100.99 62.18 77.27 75.36 76.72 75.03 76.73 74.39 100.38 61.24 100.93 61.57 100.99 62.18"/>
  <polygon class="cls-1" points="76.16 75.34 58.2 64.57 58.48 64.1 58.77 63.62 76.73 74.39 76.72 75.03 76.16 75.34"/>
  <polygon class="cls-1" points="76.5 71.67 59.91 61.72 60.19 61.25 60.47 60.77 77.07 70.72 76.78 71.19 76.5 71.67"/>
  <g class="cls-4">
    <text class="cls-3" transform="translate(48.55 65.74)"><tspan x="0" y="0">N</tspan></text>
  </g>
  <polygon class="cls-1" points="52.51 54.62 52.87 32.77 53.41 33.09 53.96 33.42 53.62 54.64 53.06 54.63 52.51 54.62"/>
  <polygon class="cls-1" points="52.87 32.77 71.84 22.22 72.11 22.71 72.38 23.19 53.96 33.42 53.41 33.09 52.87 32.77"/>
  <polygon class="cls-1" points="56.44 34.58 73.46 25.13 73.72 25.61 73.99 26.1 56.98 35.55 56.71 35.07 56.44 34.58"/>
  <g class="cls-4">
    <text class="cls-3" transform="translate(73.22 24.59)"><tspan x="0" y="0">N</tspan></text>
  </g>
  <polygon class="cls-1" points="83.43 22.47 101.46 33.28 101.38 33.88 100.83 34.19 82.86 23.42 83.15 22.95 83.43 22.47"/>
  <polygon class="cls-1" points="77.27 75.36 76.92 96.57 76.37 96.56 75.81 96.55 76.16 75.34 76.72 75.03 77.27 75.36"/>
  <g class="cls-4">
    <text class="cls-3" transform="translate(71.86 106.1)"><tspan x="0" y="0">N</tspan></text>
    <text class="cls-3" transform="translate(80.68 106.1)"><tspan x="0" y="0">H</tspan></text>
    <text class="cls-2" transform="translate(89.5 107.98)"><tspan x="0" y="0">2</tspan></text>
  </g>
  <polygon class="cls-1" points="101.49 61.18 126.93 69.91 127.13 70.56 127.33 71.22 100.99 62.18 100.93 61.57 101.49 61.18"/>
</svg>