<svg id="图层_1" data-name="图层 1" xmlns="http://www.w3.org/2000/svg" viewBox="0 0 200 130"><defs><style>.cls-1{isolation:isolate;font-size:10.97px;font-family:ArialMT, Arial;}</style></defs><text class="cls-1" transform="translate(61.07 112.51)">B</text><polygon points="64.3 102.5 64.4 83.5 64.9 83.2 65.4 83.5 65.3 102.5 64.8 102.5 64.3 102.5"/><polygon points="64.4 83.5 43 70.9 43.5 70.6 44 70.3 64.9 82.6 64.9 83.2 64.4 83.5"/><polygon points="64.7 80.2 46.2 69.3 46.5 68.9 46.7 68.5 65.2 79.3 65 79.8 64.7 80.2"/><polygon points="43 70.9 43.2 46 43.7 45.7 44.2 46 44 70.3 43.5 70.6 43 70.9"/><polygon points="43.7 45.1 64.8 33.2 65.3 33.5 65.3 34 44.2 46 43.7 45.7 43.7 45.1"/><polygon points="46.4 47 65 36.5 65.3 36.9 65.5 37.3 46.9 47.9 46.7 47.5 46.4 47"/><polygon points="65.8 33.2 87.3 45.8 86.8 46.1 86.3 46.3 65.3 34 65.3 33.5 65.8 33.2"/><polygon points="87.3 45.8 87.1 70.7 86.6 70.9 86.1 70.6 86.3 46.3 86.8 46.1 87.3 45.8"/><polygon points="84.3 47.8 84.1 69.2 83.6 69.2 83.1 69.2 83.3 47.8 83.8 47.8 84.3 47.8"/><polygon points="87.1 70.7 108 83 108 83.5 108 84.1 86.6 71.5 86.6 70.9 87.1 70.7"/><polygon points="107.8 79.9 129.2 70.9 129.6 71.3 129.6 71.8 108.2 80.8 108 80.3 107.8 79.9"/><polygon points="108 83 126.7 69.1 127 69.5 127.3 69.9 108 84.1 108 83.5 108 83"/><polygon points="130.2 71 152.2 81 152.3 81.6 152.4 82.2 129.6 71.8 129.6 71.3 130.2 71"/><polygon points="154 80.1 158.1 100 157.6 100.1 157.1 100.2 153 80.3 153.5 80.2 154 80.1"/><polygon points="151.1 80.7 155.2 100.6 154.7 100.7 154.2 100.8 150.1 80.9 150.6 80.8 151.1 80.7"/><text class="cls-1" transform="translate(153 110.39)">O</text><polygon points="152.2 81 163.8 68.3 164.1 68.6 164.5 69 152.4 82.2 152.3 81.6 152.2 81"/><text class="cls-1" transform="translate(165.12 67.67)">N</text><polygon points="165.5 57.9 156.6 42.1 156.8 41.6 157.1 41 166.4 57.4 165.9 57.7 165.5 57.9"/><polygon points="154.6 41.7 165.3 18.1 165.8 18.3 166.2 18.5 155.5 42.2 155 41.9 154.6 41.7"/><polygon points="157.3 43 168 19.4 168.5 19.6 168.9 19.8 158.2 43.4 157.7 43.2 157.3 43"/><polygon points="156.6 42.1 137.5 46 137.4 45.5 137.3 45.1 157.1 41 156.8 41.6 156.6 42.1"/><text class="cls-1" transform="translate(120.56 51)">H</text><text class="cls-1" transform="translate(128.49 51)">N</text><polygon points="132.3 52.2 130.2 71 129.6 71.3 129.2 70.9 131.3 52 131.8 52.1 132.3 52.2"/><polygon points="174.1 63.3 193.9 65.5 193.8 66 193.7 66.5 174 64.3 174 63.8 174.1 63.3"/><polygon points="86.6 71.5 65.4 83.5 64.9 83.2 64.9 82.6 86.1 70.6 86.6 70.9 86.6 71.5"/><polygon points="64.8 33.2 65 14.1 65.5 14.1 66 14.1 65.8 33.2 65.3 33.5 64.8 33.2"/><text class="cls-1" transform="translate(62.17 13.02)">F</text><polygon points="43.2 46 27.2 36.6 27.5 36.2 27.8 35.8 43.7 45.1 43.7 45.7 43.2 46"/><text class="cls-1" transform="translate(10.05 37.56)">H</text><text class="cls-1" transform="translate(17.97 37.56)">O</text><polygon points="60.3 111.1 47.7 118.3 47.4 117.9 47.2 117.4 59.8 110.3 60.1 110.7 60.3 111.1"/><text class="cls-1" transform="translate(39.74 124.78)">F</text><polygon points="69.6 110.4 82.1 117.7 81.8 118.1 81.6 118.6 69.1 111.2 69.4 110.8 69.6 110.4"/><text class="cls-1" transform="translate(82.82 125.13)">F</text></svg>