<svg id="图层_1" data-name="图层 1" xmlns="http://www.w3.org/2000/svg" viewBox="0 0 200 130"><defs><style>.cls-1{isolation:isolate;font-size:9.27px;font-family:ArialMT, Arial;}</style></defs><polygon points="136.48 94.21 130.14 79.61 130.53 79.44 130.91 79.27 137.26 93.88 136.87 94.05 136.48 94.21"/><text class="cls-1" transform="translate(125.15 78.52)">N</text><polygon points="130.89 69.87 138.65 56.71 139.18 56.65 139.41 57.08 131.62 70.3 131.26 70.09 130.89 69.87"/><polygon points="139.37 56.24 158.98 56.71 158.97 57.12 158.96 57.55 139.41 57.08 139.18 56.65 139.37 56.24"/><polygon points="140.52 58.5 160.28 54.18 160.1 54.65 159.92 55.12 140.7 59.32 140.6 58.91 140.52 58.5"/><polygon points="160.28 54.18 169.31 66.85 168.97 67.09 168.63 67.34 159.92 55.12 160.1 54.65 160.28 54.18"/><text class="cls-1" transform="translate(168.95 75.52)">N</text><polygon points="176.21 68.44 188.5 67.26 188.54 67.68 188.58 68.1 176.29 69.27 176.25 68.86 176.21 68.44"/><polygon points="176.45 70.95 188.74 69.77 188.78 70.19 188.82 70.61 176.53 71.78 176.49 71.37 176.45 70.95"/><text class="cls-1" transform="translate(189.62 73.51)">O</text><polygon points="138.65 56.71 129.07 45.86 129.38 45.58 129.7 45.3 139.37 56.24 139.18 56.65 138.65 56.71"/><text class="cls-1" transform="translate(121.91 36.99)">H</text><text class="cls-1" transform="translate(121.91 45.45)">N</text><polygon points="121.23 43.11 106.41 49.54 105.97 49.28 105.97 48.82 120.9 42.34 121.07 42.72 121.23 43.11"/><polygon points="103.46 51.05 87.82 39.1 87.86 38.6 87.89 38.1 103.97 50.38 103.72 50.71 103.46 51.05"/><polygon points="105.57 49.57 87.66 41.71 87.84 41.33 88 40.94 105.97 48.82 105.97 49.28 105.57 49.57"/><polygon points="87.82 39.1 69.98 49.19 69.56 48.94 69.57 48.46 87.89 38.1 87.86 38.6 87.82 39.1"/><polygon points="66.81 50.74 51.21 41.55 51.42 41.18 51.64 40.82 67.24 50.02 67.02 50.38 66.81 50.74"/><polygon points="69.13 49.19 51.45 38.75 51.45 38.27 51.45 37.78 69.57 48.46 69.56 48.94 69.13 49.19"/><polygon points="51.45 38.75 33.57 48.86 33.15 48.61 33.15 48.12 51.45 37.78 51.45 38.27 51.45 38.75"/><polygon points="33.57 48.86 33.38 69.39 32.95 69.64 32.54 69.39 32.73 48.85 33.15 48.61 33.57 48.86"/><polygon points="31.03 50.05 30.87 68.16 30.44 68.16 30.02 68.15 30.19 50.04 30.61 50.04 31.03 50.05"/><polygon points="33.38 69.39 51.07 79.83 51.07 80.31 50.64 80.55 32.95 70.12 32.95 69.64 33.38 69.39"/><polygon points="50.88 77.03 66.65 68.13 66.86 68.49 67.06 68.86 51.3 77.76 51.09 77.4 50.88 77.03"/><polygon points="51.07 79.83 68.95 69.72 69.37 69.97 69.79 70.21 51.48 80.56 51.07 80.31 51.07 79.83"/><polygon points="68.95 69.72 69.13 49.19 69.56 48.94 69.98 49.19 69.79 70.21 69.37 69.97 68.95 69.72"/><polygon points="51.48 80.56 51.33 96.66 50.91 96.66 50.5 96.66 50.64 80.55 51.07 80.31 51.48 80.56"/><text class="cls-1" transform="translate(48.04 105.09)">F</text><polygon points="32.95 70.12 19.31 77.83 19.1 77.47 18.89 77.1 32.54 69.39 32.95 69.64 32.95 70.12"/><text class="cls-1" transform="translate(4.36 83.73)">H</text><text class="cls-1" transform="translate(11.05 83.73)">O</text><polygon points="32.73 48.85 18.5 40.46 18.71 40.1 18.92 39.74 33.15 48.12 33.15 48.61 32.73 48.85"/><text class="cls-1" transform="translate(12.21 41.69)">F</text><polygon points="106.41 49.54 108.36 69.86 107.98 70.2 107.59 70.55 105.57 49.57 105.97 49.28 106.41 49.54"/><polygon points="109.78 70.86 97.79 81.46 97.5 81.14 97.23 80.83 109.22 70.23 109.49 70.55 109.78 70.86"/><polygon points="108.11 68.97 96.12 79.57 95.84 79.25 95.56 78.94 107.55 68.34 107.83 68.66 108.11 68.97"/><text class="cls-1" transform="translate(88.62 87.88)">O</text><polygon points="108.36 69.86 124.4 73.42 124.31 73.83 124.22 74.24 107.59 70.55 107.98 70.2 108.36 69.86"/></svg>