<svg id="图层_1" data-name="图层 1" xmlns="http://www.w3.org/2000/svg" viewBox="0 0 200 130"><defs><style>.cls-1{isolation:isolate;font-size:9.12px;font-family:ArialMT, Arial;}</style></defs><polygon points="132.18 92.26 125.87 77.94 126.24 77.78 126.62 77.61 132.94 91.93 132.55 92.1 132.18 92.26"/><text class="cls-1" transform="translate(120.92 76.87)">N</text><polygon points="126.54 68.37 134.11 55.35 134.62 55.3 134.88 55.7 127.25 68.78 126.9 68.58 126.54 68.37"/><polygon points="134.11 55.35 124.64 44.76 124.94 44.48 125.27 44.2 134.79 54.87 134.62 55.3 134.11 55.35"/><text class="cls-1" transform="translate(117.54 36.03)">H</text><text class="cls-1" transform="translate(117.54 44.35)">N</text><polygon points="116.89 42.08 102.36 48.48 101.91 48.23 101.91 47.77 116.55 41.31 116.71 41.7 116.89 42.08"/><polygon points="99.45 49.98 84.01 38.31 84.03 37.81 84.07 37.32 99.96 49.31 99.7 49.64 99.45 49.98"/><polygon points="101.53 48.51 83.87 40.88 84.03 40.49 84.2 40.11 101.91 47.77 101.91 48.23 101.53 48.51"/><polygon points="84.01 38.31 66.5 48.33 66.09 48.09 66.09 47.61 84.07 37.32 84.03 37.81 84.01 38.31"/><polygon points="63.4 49.88 48 40.9 48.21 40.55 48.42 40.2 63.82 49.16 63.61 49.52 63.4 49.88"/><polygon points="65.68 48.33 48.21 38.17 48.21 37.69 48.21 37.21 66.09 47.61 66.09 48.09 65.68 48.33"/><polygon points="48.21 38.17 30.68 48.2 30.27 47.96 30.27 47.49 48.21 37.21 48.21 37.69 48.21 38.17"/><polygon points="30.68 48.2 30.62 68.4 30.19 68.64 29.79 68.4 29.86 48.2 30.27 47.96 30.68 48.2"/><polygon points="28.19 49.39 28.14 67.2 27.71 67.2 27.31 67.19 27.36 49.38 27.79 49.38 28.19 49.39"/><polygon points="30.62 68.4 48.06 78.57 48.06 79.05 47.65 79.28 30.19 69.12 30.19 68.64 30.62 68.4"/><polygon points="47.88 75.82 63.34 66.97 63.53 67.33 63.74 67.69 48.29 76.54 48.07 76.18 47.88 75.82"/><polygon points="48.06 78.57 65.6 68.53 66.02 68.78 66.43 69.02 48.48 79.29 48.06 79.05 48.06 78.57"/><polygon points="65.6 68.53 65.68 48.33 66.09 48.09 66.5 48.33 66.43 69.02 66.02 68.78 65.6 68.53"/><polygon points="48.48 79.29 48.42 95.14 48 95.13 47.59 95.13 47.65 79.28 48.06 79.05 48.48 79.29"/><text class="cls-1" transform="translate(45.21 103.43)">F</text><polygon points="30.19 69.12 16.82 76.77 16.62 76.41 16.41 76.05 29.79 68.4 30.19 68.64 30.19 69.12"/><text class="cls-1" transform="translate(2.12 82.61)">H</text><text class="cls-1" transform="translate(8.71 82.61)">O</text><polygon points="29.86 48.2 15.79 40.02 16.01 39.66 16.22 39.3 30.27 47.49 30.27 47.96 29.86 48.2"/><text class="cls-1" transform="translate(9.62 41.25)">F</text><polygon points="102.36 48.48 104.38 68.46 104 68.8 103.62 69.14 101.53 48.51 101.91 48.23 102.36 48.48"/><polygon points="105.77 69.43 94.06 79.9 93.78 79.6 93.5 79.29 105.23 68.81 105.5 69.13 105.77 69.43"/><polygon points="104.12 67.58 92.41 78.05 92.13 77.75 91.85 77.44 103.57 66.96 103.84 67.28 104.12 67.58"/><text class="cls-1" transform="translate(85.03 86.28)">O</text><polygon points="104.38 68.46 120.18 71.88 120.09 72.28 120.01 72.69 103.62 69.14 104 68.8 104.38 68.46"/><polygon points="134.79 54.87 155.44 52.78 155.19 53.22 154.95 53.66 134.88 55.7 134.62 55.3 134.79 54.87"/><polygon points="155.44 52.78 162.34 66.66 161.97 66.84 161.59 67.02 154.95 53.66 155.19 53.22 155.44 52.78"/><polygon points="154.41 55.31 164.26 65.1 163.98 65.39 163.68 65.69 153.83 55.9 154.13 55.6 154.41 55.31"/><text class="cls-1" transform="translate(164 73.69)">N</text><polygon points="171.37 69.17 183.45 67.93 183.5 68.35 183.54 68.76 171.46 69.99 171.41 69.58 171.37 69.17"/><text class="cls-1" transform="translate(184.33 71.6)">O</text><text class="cls-1" transform="translate(191.41 71.6)">H</text></svg>