<svg id="图层_1" data-name="图层 1" xmlns="http://www.w3.org/2000/svg" viewBox="0 0 200 130"><defs><style>.cls-1,.cls-2{isolation:isolate;font-family:ArialMT, Arial;}.cls-1{font-size:6.57px;}.cls-2{font-size:4.05px;}</style></defs><polygon points="38.88 44.88 51.76 52.37 51.76 52.71 51.46 52.88 38.88 45.57 38.88 45.22 38.88 44.88"/><polygon points="39.02 47.03 50.12 53.48 49.97 53.74 49.81 54 38.72 47.55 38.87 47.29 39.02 47.03"/><polygon points="52.05 52.89 52.01 67.79 51.71 67.62 51.41 67.44 51.46 52.88 51.76 52.71 52.05 52.89"/><polygon points="52.01 67.79 39.08 75.2 38.78 75.02 38.78 74.68 51.41 67.44 51.71 67.62 52.01 67.79"/><polygon points="50.08 66.84 38.94 73.22 38.79 72.96 38.64 72.7 49.78 66.32 49.93 66.58 50.08 66.84"/><polygon points="38.48 75.2 25.9 67.88 25.9 67.54 26.2 67.36 38.78 74.68 38.78 75.02 38.48 75.2"/><polygon points="25.6 67.36 25.65 52.8 25.95 52.63 26.25 52.8 26.2 67.36 25.9 67.54 25.6 67.36"/><polygon points="27.39 66.51 27.44 53.67 27.73 53.67 28.03 53.67 27.99 66.51 27.69 66.51 27.39 66.51"/><polygon points="25.65 52.8 15.52 46.91 15.67 46.66 15.82 46.4 25.95 52.29 25.95 52.63 25.65 52.8"/><text class="cls-1" transform="translate(11.06 47.8)">F</text><polygon points="25.95 52.29 38.88 44.88 38.88 45.22 38.88 45.57 26.25 52.8 25.95 52.63 25.95 52.29"/><polygon points="25.9 67.88 16.27 73.4 16.13 73.14 15.98 72.88 25.6 67.36 25.9 67.54 25.9 67.88"/><text class="cls-1" transform="translate(5.67 77.61)">H</text><text class="cls-1" transform="translate(10.42 77.61)">O</text><polygon points="39.08 75.2 39.04 86.62 38.75 86.62 38.45 86.61 38.48 75.2 38.78 75.02 39.08 75.2"/><text class="cls-1" transform="translate(36.73 92.59)">F</text><polygon points="51.76 52.37 64.71 44.95 64.69 45.31 64.66 45.66 52.05 52.89 51.76 52.71 51.76 52.37"/><polygon points="64.71 44.95 76.16 53.58 75.98 53.82 75.8 54.06 64.66 45.66 64.69 45.31 64.71 44.95"/><polygon points="64.8 46.96 77.57 52.47 77.57 52.79 77.29 53 64.56 47.51 64.68 47.23 64.8 46.96"/><polygon points="77.57 52.47 91.28 46.42 91.2 46.78 91.13 47.14 77.89 52.98 77.57 52.79 77.57 52.47"/><polygon points="89.9 47.16 92.47 35.27 92.76 35.34 93.05 35.4 90.48 47.29 90.19 47.22 89.9 47.16"/><polygon points="91.65 47.54 94.21 35.65 94.5 35.72 94.8 35.78 92.23 47.66 91.94 47.6 91.65 47.54"/><text class="cls-1" transform="translate(91.79 34.87)">O</text><polygon points="91.28 46.42 98.39 54.37 98.17 54.57 97.95 54.77 91.13 47.14 91.2 46.78 91.28 46.42"/><text class="cls-1" transform="translate(98.77 60.55)">N</text><polygon points="99.47 61.35 94 70.77 93.64 70.77 93.5 70.43 98.95 61.05 99.21 61.2 99.47 61.35"/><polygon points="95.82 70.78 99.89 84.12 99.67 84.4 99.44 84.67 95.25 70.96 95.54 70.87 95.82 70.78"/><polygon points="94 70.77 101.06 82.69 100.81 82.84 100.55 82.99 93.45 71.03 93.64 70.77 94 70.77"/><polygon points="99.89 84.12 111.54 85.39 111.51 85.68 111.48 85.98 99.44 84.67 99.67 84.4 99.89 84.12"/><text class="cls-1" transform="translate(112.11 88.67)">N</text><polygon points="116.22 89.2 119.31 96.2 119.04 96.32 118.76 96.44 115.67 89.44 115.94 89.32 116.22 89.2"/><polygon points="114.58 89.92 117.67 96.93 117.4 97.04 117.13 97.16 114.03 90.16 114.31 90.04 114.58 89.92"/><text class="cls-1" transform="translate(117.94 102.3)">O</text><polygon points="93.45 71.03 81.98 68.55 82.05 68.26 82.11 67.97 93.5 70.43 93.64 70.77 93.45 71.03"/><text class="cls-1" transform="translate(71.96 70.28)">H</text><text class="cls-1" transform="translate(76.71 70.28)">N</text><polygon points="78.45 64.34 77.29 53 77.57 52.79 77.89 52.98 79.04 64.27 78.74 64.31 78.45 64.34"/><polygon points="104.08 57.28 116.1 56.06 115.97 56.37 115.82 56.69 104.14 57.88 104.11 57.58 104.08 57.28"/><polygon points="116.1 56.06 124.83 68.14 124.69 68.46 124.54 68.77 115.82 56.69 115.97 56.37 116.1 56.06"/><polygon points="124.83 68.14 139.65 66.63 139.51 66.94 139.37 67.26 124.54 68.77 124.69 68.46 124.83 68.14"/><polygon points="139.65 66.63 148.37 78.72 148.23 79.03 148.09 79.34 139.37 67.26 139.51 66.94 139.65 66.63"/><polygon points="148.37 78.72 163.2 77.21 163.06 77.52 162.91 77.83 148.09 79.34 148.23 79.03 148.37 78.72"/><polygon points="163.2 77.21 171.92 89.29 171.78 89.6 171.64 89.92 162.91 77.83 163.06 77.52 163.2 77.21"/><polygon points="171.92 89.29 183.6 88.1 183.64 88.39 183.67 88.69 171.64 89.92 171.78 89.6 171.92 89.29"/><text class="cls-1" transform="translate(184.23 89.9)">N</text><text class="cls-1" transform="translate(188.98 89.9)">H</text><text class="cls-2" transform="translate(193.72 90.92)">2</text></svg>