<svg id="图层_1" data-name="图层 1" xmlns="http://www.w3.org/2000/svg" viewBox="0 0 200 130"><defs><style>.cls-1{isolation:isolate;font-size:9.08px;font-family:ArialMT, Arial;}</style></defs><polygon points="131.91 95.63 125.76 81.29 126.14 81.13 126.52 80.97 132.67 95.31 132.29 95.47 131.91 95.63"/><text class="cls-1" transform="translate(120.89 80.23)">N</text><polygon points="126.54 71.75 134.2 58.91 134.71 58.86 134.95 59.25 127.25 72.18 126.9 71.97 126.54 71.75"/><polygon points="134.2 58.91 124.84 48.22 125.15 47.95 125.47 47.67 134.88 58.43 134.71 58.86 134.2 58.91"/><text class="cls-1" transform="translate(117.86 39.54)">H</text><text class="cls-1" transform="translate(117.86 47.82)">N</text><polygon points="117.2 45.51 102.65 51.75 102.22 51.49 102.22 51.04 116.88 44.75 117.04 45.13 117.2 45.51"/><polygon points="99.75 53.21 84.49 41.44 84.53 40.95 84.56 40.46 100.26 52.55 100 52.88 99.75 53.21"/><polygon points="101.83 51.76 84.33 43.99 84.49 43.62 84.66 43.24 102.22 51.04 102.22 51.49 101.83 51.76"/><polygon points="84.49 41.44 66.97 51.24 66.56 51 66.57 50.52 84.56 40.46 84.53 40.95 84.49 41.44"/><polygon points="63.85 52.74 48.62 43.67 48.83 43.31 49.04 42.96 64.28 52.04 64.07 52.4 63.85 52.74"/><polygon points="66.14 51.23 48.86 40.94 48.87 40.46 48.87 39.99 66.57 50.52 66.56 51 66.14 51.23"/><polygon points="48.86 40.94 31.3 50.75 30.9 50.52 30.9 50.04 48.87 39.99 48.87 40.46 48.86 40.94"/><polygon points="31.3 50.75 31.03 70.87 30.61 71.1 30.2 70.86 30.48 50.75 30.9 50.52 31.3 50.75"/><polygon points="28.82 51.91 28.57 69.65 28.16 69.64 27.75 69.64 27.99 51.9 28.41 51.91 28.82 51.91"/><polygon points="31.03 70.87 48.31 81.17 48.3 81.64 47.89 81.87 30.61 71.58 30.61 71.1 31.03 70.87"/><polygon points="48.14 78.43 63.62 69.77 63.82 70.13 64.02 70.49 48.55 79.14 48.34 78.79 48.14 78.43"/><polygon points="48.31 81.17 65.87 71.35 66.28 71.59 66.69 71.83 48.71 81.88 48.3 81.64 48.31 81.17"/><polygon points="65.87 71.35 66.14 51.23 66.56 51 66.97 51.24 66.69 71.83 66.28 71.59 65.87 71.35"/><polygon points="48.71 81.88 48.49 97.66 48.08 97.65 47.67 97.64 47.89 81.87 48.3 81.64 48.71 81.88"/><text class="cls-1" transform="translate(45.25 105.91)">F</text><polygon points="30.61 71.58 17.2 79.08 17 78.71 16.79 78.36 30.2 70.86 30.61 71.1 30.61 71.58"/><text class="cls-1" transform="translate(2.55 84.83)">H</text><text class="cls-1" transform="translate(9.11 84.83)">O</text><polygon points="30.48 50.75 16.59 42.47 16.8 42.12 17.01 41.77 30.9 50.04 30.9 50.52 30.48 50.75"/><text class="cls-1" transform="translate(10.43 43.65)">F</text><polygon points="102.65 51.75 104.47 71.66 104.09 71.99 103.71 72.33 101.83 51.76 102.22 51.49 102.65 51.75"/><polygon points="105.85 72.64 94.04 82.99 93.77 82.67 93.5 82.36 105.31 72.02 105.58 72.33 105.85 72.64"/><polygon points="104.22 70.78 92.41 81.13 92.14 80.82 91.87 80.5 103.68 70.16 103.95 70.48 104.22 70.78"/><text class="cls-1" transform="translate(85.07 89.24)">O</text><polygon points="104.47 71.66 120.16 75.22 120.07 75.62 119.98 76.02 103.71 72.33 104.09 71.99 104.47 71.66"/><polygon points="134.88 58.43 155.46 56.55 155.22 56.99 154.97 57.42 134.95 59.25 134.71 58.86 134.88 58.43"/><polygon points="155.46 56.55 162.21 70.48 161.83 70.65 161.47 70.83 154.97 57.42 155.22 56.99 155.46 56.55"/><polygon points="154.41 59.06 164.15 68.94 163.86 69.23 163.57 69.52 153.83 59.64 154.13 59.35 154.41 59.06"/><text class="cls-1" transform="translate(163.81 77.49)">N</text><polygon points="171.16 73.03 183.2 71.93 183.24 72.33 183.28 72.74 171.23 73.84 171.19 73.44 171.16 73.03"/><text class="cls-1" transform="translate(184.06 75.61)">O</text><text class="cls-1" transform="translate(191.12 75.61)">H</text></svg>