<svg id="图层_1" data-name="图层 1" xmlns="http://www.w3.org/2000/svg" viewBox="0 0 200 130"><defs><style>.cls-1,.cls-2{isolation:isolate;font-family:ArialMT, Arial;}.cls-1{font-size:9.77px;}.cls-2{font-size:6.02px;}</style></defs><polygon points="143.17 95.65 136.56 80.2 136.97 80.02 137.38 79.85 143.99 95.31 143.58 95.47 143.17 95.65"/><text class="cls-1" transform="translate(131.33 79.05)">N</text><polygon points="137.42 69.94 145.68 56.1 146.22 56.05 146.49 56.47 138.18 70.38 137.8 70.16 137.42 69.94"/><polygon points="145.68 56.1 135.6 44.58 135.94 44.29 136.27 44 146.41 55.59 146.22 56.05 145.68 56.1"/><text class="cls-1" transform="translate(128.09 35.23)">H</text><text class="cls-1" transform="translate(128.09 44.16)">N</text><polygon points="127.39 41.66 111.71 48.37 111.24 48.09 111.25 47.6 127.03 40.84 127.21 41.25 127.39 41.66"/><polygon points="108.59 49.94 92.16 37.26 92.2 36.72 92.24 36.19 109.12 49.23 108.86 49.59 108.59 49.94"/><polygon points="110.82 48.38 91.98 40 92.16 39.59 92.34 39.19 111.25 47.6 111.24 48.09 110.82 48.38"/><polygon points="92.16 37.26 73.28 47.79 72.84 47.54 72.85 47.02 92.24 36.19 92.2 36.72 92.16 37.26"/><polygon points="69.93 49.41 53.53 39.63 53.76 39.24 53.98 38.86 70.39 48.65 70.16 49.03 69.93 49.41"/><polygon points="72.39 47.78 53.79 36.68 53.8 36.17 53.81 35.66 72.85 47.02 72.84 47.54 72.39 47.78"/><polygon points="53.79 36.68 34.88 47.24 34.44 46.98 34.45 46.46 53.81 35.66 53.8 36.17 53.79 36.68"/><polygon points="34.88 47.24 34.57 68.89 34.12 69.15 33.68 68.89 33.99 47.22 34.44 46.98 34.88 47.24"/><polygon points="32.2 48.48 31.93 67.58 31.48 67.57 31.04 67.57 31.31 48.47 31.76 48.47 32.2 48.48"/><polygon points="34.57 68.89 53.17 80 53.16 80.51 52.71 80.76 34.11 69.66 34.12 69.15 34.57 68.89"/><polygon points="52.99 77.05 69.67 67.74 69.88 68.13 70.1 68.52 53.42 77.83 53.21 77.44 52.99 77.05"/><polygon points="53.17 80 72.08 69.44 72.52 69.7 72.96 69.97 53.6 80.78 53.16 80.51 53.17 80"/><polygon points="72.08 69.44 72.39 47.78 72.84 47.54 73.28 47.79 72.96 69.97 72.52 69.7 72.08 69.44"/><polygon points="53.6 80.78 53.36 97.75 52.91 97.75 52.47 97.75 52.71 80.76 53.16 80.51 53.6 80.78"/><text class="cls-1" transform="translate(49.85 106.64)">F</text><polygon points="34.11 69.66 19.66 77.72 19.45 77.34 19.23 76.95 33.68 68.89 34.12 69.15 34.11 69.66"/><text class="cls-1" transform="translate(3.9 83.91)">H</text><text class="cls-1" transform="translate(10.96 83.91)">O</text><polygon points="33.99 47.22 19.05 38.31 19.27 37.93 19.5 37.55 34.45 46.46 34.44 46.98 33.99 47.22"/><text class="cls-1" transform="translate(12.41 39.58)">F</text><polygon points="111.71 48.37 113.66 69.81 113.24 70.17 112.82 70.53 110.82 48.38 111.24 48.09 111.71 48.37"/><polygon points="115.14 70.87 102.41 82 102.11 81.66 101.82 81.33 114.55 70.2 114.84 70.54 115.14 70.87"/><polygon points="113.38 68.86 100.65 80 100.37 79.66 100.07 79.33 112.8 68.2 113.09 68.53 113.38 68.86"/><text class="cls-1" transform="translate(92.75 88.72)">O</text><polygon points="113.66 69.81 130.54 73.65 130.44 74.09 130.34 74.52 112.82 70.53 113.24 70.17 113.66 69.81"/><polygon points="146.41 55.59 168.52 53.59 168.3 54.05 168.09 54.52 146.49 56.47 146.22 56.05 146.41 55.59"/><polygon points="168.52 53.59 177.96 66.99 177.6 67.25 177.24 67.5 168.09 54.52 168.3 54.05 168.52 53.59"/><text class="cls-1" transform="translate(177.55 74.87)">N</text><text class="cls-1" transform="translate(184.61 74.87)">H</text><text class="cls-2" transform="translate(191.67 76.38)">2</text></svg>