<svg id="图层_1" data-name="图层 1" xmlns="http://www.w3.org/2000/svg" viewBox="0 0 200 130"><defs><style>.cls-1{isolation:isolate;font-size:10.15px;font-family:ArialMT, Arial;}</style></defs><polygon points="173.42 43.9 150.73 45.91 150.46 45.48 150.65 44.99 173.33 42.98 173.38 43.44 173.42 43.9"/><polygon points="149.89 45.53 139.45 33.55 139.8 33.25 140.15 32.95 150.65 44.99 150.46 45.48 149.89 45.53"/><text class="cls-1" transform="translate(131.68 23.85)">H</text><text class="cls-1" transform="translate(131.68 33.11)">N</text><polygon points="130.94 30.51 114.67 37.44 114.17 37.15 114.18 36.64 130.58 29.66 130.76 30.09 130.94 30.51"/><polygon points="111.42 39.07 94.39 25.88 94.44 25.33 94.48 24.78 111.98 38.34 111.7 38.7 111.42 39.07"/><polygon points="113.74 37.46 94.2 28.73 94.39 28.31 94.58 27.88 114.18 36.64 114.17 37.15 113.74 37.46"/><polygon points="94.39 25.88 74.78 36.78 74.33 36.51 74.34 35.98 94.48 24.78 94.44 25.33 94.39 25.88"/><polygon points="71.31 38.45 54.31 28.27 54.54 27.88 54.78 27.47 71.78 37.66 71.55 38.06 71.31 38.45"/><polygon points="73.86 36.77 54.59 25.21 54.59 24.69 54.6 24.15 74.34 35.98 74.33 36.51 73.86 36.77"/><polygon points="54.59 25.21 34.95 36.13 34.49 35.86 34.5 35.34 54.6 24.15 54.59 24.69 54.59 25.21"/><polygon points="34.95 36.13 34.58 58.61 34.12 58.87 33.66 58.59 34.02 36.13 34.49 35.86 34.95 36.13"/><polygon points="32.16 37.42 31.85 57.24 31.39 57.23 30.93 57.22 31.25 37.41 31.71 37.42 32.16 37.42"/><polygon points="34.58 58.61 53.86 70.16 53.85 70.69 53.39 70.95 34.11 59.4 34.12 58.87 34.58 58.61"/><polygon points="53.68 67.1 71 57.47 71.23 57.87 71.45 58.27 54.13 67.91 53.9 67.5 53.68 67.1"/><polygon points="53.86 70.16 73.5 59.23 73.96 59.52 74.42 59.79 54.31 70.96 53.85 70.69 53.86 70.16"/><polygon points="73.5 59.23 73.86 36.77 74.33 36.51 74.78 36.78 74.42 59.79 73.96 59.52 73.5 59.23"/><polygon points="54.31 70.96 54.03 88.58 53.57 88.58 53.11 88.57 53.39 70.95 53.85 70.69 54.31 70.96"/><text class="cls-1" transform="translate(50.39 97.8)">F</text><polygon points="34.11 59.4 19.1 67.75 18.88 67.34 18.66 66.94 33.66 58.59 34.12 58.87 34.11 59.4"/><text class="cls-1" transform="translate(2.74 74.16)">H</text><text class="cls-1" transform="translate(10.07 74.16)">O</text><polygon points="34.02 36.13 18.53 26.84 18.77 26.45 19.01 26.05 34.5 35.34 34.49 35.86 34.02 36.13"/><text class="cls-1" transform="translate(11.65 28.15)">F</text><polygon points="114.67 37.44 116.64 59.7 116.21 60.06 115.78 60.44 113.74 37.46 114.17 37.15 114.67 37.44"/><polygon points="118.17 60.8 104.94 72.33 104.64 71.98 104.34 71.64 117.57 60.1 117.87 60.45 118.17 60.8"/><polygon points="116.36 58.72 103.13 70.25 102.82 69.9 102.52 69.56 115.76 58.02 116.06 58.36 116.36 58.72"/><text class="cls-1" transform="translate(94.92 79.3)">O</text><polygon points="116.64 59.7 134.15 63.71 134.05 64.16 133.94 64.61 115.78 60.44 116.21 60.06 116.64 59.7"/><text class="cls-1" transform="translate(134.97 69.32)">N</text><polygon points="141.23 70.15 147.97 85.95 147.65 86.38 147.33 86.81 140.39 70.51 140.81 70.33 141.23 70.15"/><polygon points="147.97 85.95 170.09 88.64 170.49 89.15 169.98 89.55 147.33 86.81 147.65 86.38 147.97 85.95"/><polygon points="171 88.75 189.37 90.98 189.31 91.43 189.25 91.89 170.89 89.67 170.49 89.15 171 88.75"/><text class="cls-1" transform="translate(190.23 96.03)">F</text><polygon points="170.89 89.67 168.8 106.92 168.34 106.87 167.88 106.82 169.98 89.55 170.49 89.15 170.89 89.67"/><text class="cls-1" transform="translate(164.61 116.09)">F</text><polygon points="170.09 88.64 172.18 71.37 172.64 71.43 173.09 71.49 171 88.75 170.49 89.15 170.09 88.64"/><text class="cls-1" transform="translate(170.16 70.42)">F</text><polygon points="141.3 59.86 149.89 45.53 150.46 45.48 150.73 45.91 142.1 60.33 141.7 60.1 141.3 59.86"/></svg>