<?xml version="1.0" encoding="utf-8"?>
<!-- Generator: Adobe Illustrator 25.4.1, SVG Export Plug-In . SVG Version: 6.00 Build 0)  -->
<svg version="1.1" id="图层_1" xmlns="http://www.w3.org/2000/svg" xmlns:xlink="http://www.w3.org/1999/xlink" x="0px" y="0px"
	 viewBox="0 0 200 130" style="enable-background:new 0 0 200 130;" xml:space="preserve">
<style type="text/css">
	.st0{font-family:'ArialMT';}
	.st1{font-size:11.4586px;}
</style>
<polygon points="195.6,50.8 170,53.2 169.7,52.7 169.9,52.2 195.6,49.8 195.6,50.3 "/>
<polygon points="169.1,52.8 157.2,39.3 157.6,38.9 158,38.6 169.9,52.2 169.7,52.7 "/>
<g>
	<text transform="matrix(1 0 0 1 148.4311 28.3141)" class="st0 st1">H</text>
</g>
<g>
	<text transform="matrix(1 0 0 1 148.4311 38.777)" class="st0 st1">N</text>
</g>
<polygon points="147.6,35.9 129.2,43.8 128.7,43.4 128.7,42.9 147.2,34.9 147.4,35.4 "/>
<polygon points="125.6,45.6 106.3,30.8 106.3,30.1 106.4,29.5 126.2,44.8 125.9,45.2 "/>
<polygon points="128.2,43.8 106.1,34 106.3,33.5 106.5,33 128.7,42.9 128.7,43.4 "/>
<polygon points="106.3,30.8 84.2,43.2 83.7,42.8 83.7,42.2 106.4,29.5 106.3,30.1 "/>
<polygon points="80.3,45 61,33.6 61.3,33.2 61.5,32.7 80.8,44.2 80.5,44.6 "/>
<polygon points="83.1,43.1 61.3,30.2 61.3,29.6 61.3,29 83.7,42.2 83.7,42.8 "/>
<polygon points="61.3,30.2 39.2,42.6 38.6,42.3 38.7,41.7 61.3,29 61.3,29.6 "/>
<polygon points="39.2,42.6 38.8,68 38.3,68.3 37.8,67.9 38.1,42.6 38.6,42.3 "/>
<polygon points="36,44 35.7,66.4 35.2,66.4 34.7,66.4 35,44 35.5,44 "/>
<polygon points="38.8,68 60.7,80.9 60.6,81.5 60.1,81.8 38.3,68.9 38.3,68.3 "/>
<polygon points="60.4,77.5 80,66.5 80.2,67 80.5,67.4 60.9,78.4 60.7,77.9 "/>
<polygon points="60.7,80.9 82.8,68.5 83.3,68.8 83.8,69.1 61.2,81.8 60.6,81.5 "/>
<polygon points="82.8,68.5 83.1,43.1 83.7,42.8 84.2,43.2 83.8,69.1 83.3,68.8 "/>
<polygon points="61.2,81.8 60.9,101.8 60.4,101.7 59.9,101.7 60.1,81.8 60.6,81.5 "/>
<g>
	<text transform="matrix(1 0 0 1 56.8188 112.1745)" class="st0 st1">F</text>
</g>
<polygon points="38.3,68.9 21.4,78.3 21.1,77.9 20.9,77.4 37.8,67.9 38.3,68.3 "/>
<g>
	<text transform="matrix(1 0 0 1 2.895 85.6071)" class="st0 st1">H</text>
	<text transform="matrix(1 0 0 1 11.1723 85.6071)" class="st0 st1">O</text>
</g>
<polygon points="38.1,42.6 20.6,32.1 20.8,31.7 21.1,31.2 38.7,41.7 38.6,42.3 "/>
<g>
	<text transform="matrix(1 0 0 1 12.7964 33.6159)" class="st0 st1">F</text>
</g>
<polygon points="129.2,43.8 131.5,68.9 131.1,69.3 130.6,69.7 128.2,43.8 128.7,43.4 "/>
<polygon points="133.3,70.1 118.4,83.2 118.1,82.8 117.7,82.4 132.6,69.3 132.9,69.7 "/>
<polygon points="131.2,67.8 116.3,80.8 116,80.5 115.7,80.1 130.5,67 130.9,67.4 "/>
<g>
	<text transform="matrix(1 0 0 1 107.0737 91.0964)" class="st0 st1">O</text>
</g>
<polygon points="131.5,68.9 151.4,73.4 151.2,73.9 151.1,74.4 130.6,69.7 131.1,69.3 "/>
<g>
	<text transform="matrix(1 0 0 1 152.2885 79.6843)" class="st0 st1">N</text>
</g>
<polygon points="159.4,80.6 167.2,98.7 166.7,98.9 166.2,99.1 158.4,81 158.9,80.8 "/>
<polygon points="159.4,69 169.1,52.8 169.7,52.7 170,53.2 160.3,69.5 159.9,69.3 "/>
</svg>
