<?xml version="1.0" encoding="utf-8"?>
<!-- Generator: Adobe Illustrator 23.0.3, SVG Export Plug-In . SVG Version: 6.00 Build 0)  -->
<svg version="1.1" id="图层_1" xmlns="http://www.w3.org/2000/svg" xmlns:xlink="http://www.w3.org/1999/xlink" x="0px" y="0px"
	 viewBox="0 0 200 130" style="enable-background:new 0 0 200 130;" xml:space="preserve">
<style type="text/css">
	.st0{font-family:'ArialMT';}
	.st1{font-size:6.7105px;}
	.st2{font-size:4.1296px;}
</style>
<polygon points="65.1,91.2 79.8,91.2 80.1,91.5 79.9,91.8 64.6,91.8 64.9,91.5 "/>
<polygon points="79.8,91.2 84.5,77.2 84.8,77.1 85.1,77.2 80.4,91.5 80.1,91.5 "/>
<polygon points="84.5,77.2 75,70.3 75.2,70 75.4,69.8 85,76.8 84.8,77.1 "/>
<text transform="matrix(1 0 0 1 69.9668 70.7989)" class="st0 st1">O</text>
<polygon points="70.1,70.2 60.6,77.1 60.2,77 60,76.7 69.7,69.7 69.9,70 "/>
<polygon points="60.3,76.6 60.1,77.3 59.8,77.2 59.5,77.1 59.7,76.4 60,76.5 "/>
<polygon points="58.8,76 58.5,76.9 58.2,76.8 57.9,76.7 58.2,75.8 58.5,75.9 "/>
<polygon points="57.3,75.3 56.9,76.5 56.6,76.4 56.3,76.3 56.7,75.1 57,75.2 "/>
<polygon points="55.8,74.7 55.3,76.1 55,76.1 54.7,76 55.2,74.5 55.5,74.6 "/>
<polygon points="54.3,74 53.7,75.8 53.4,75.7 53.1,75.6 53.7,73.9 54,74 "/>
<polygon points="52.8,73.4 52.1,75.4 51.8,75.3 51.6,75.2 52.2,73.2 52.5,73.3 "/>
<polygon points="51.3,72.8 50.5,75 50.3,74.9 50,74.8 50.7,72.6 51,72.7 "/>
<polygon points="49.8,72.1 49,74.7 48.7,74.6 48.4,74.5 49.2,71.9 49.5,72 "/>
<text transform="matrix(1 0 0 1 43.3487 74.9073)" class="st0 st1">N</text>
<polygon points="43.4,74.3 33.4,81.4 33.4,81.1 33.4,80.7 43,73.8 43.2,74 "/>
<polygon points="33.4,81.4 23.5,74.2 23.7,73.9 23.9,73.7 33.4,80.7 33.4,81.1 "/>
<polygon points="33.2,79.1 24.6,72.7 24.8,72.5 24.9,72.2 33.6,78.6 33.4,78.8 "/>
<text transform="matrix(1 0 0 1 18.7276 74.7843)" class="st0 st1">N</text>
<polygon points="22,68.6 25.6,57.7 25.9,57.6 26.1,57.9 22.6,68.8 22.3,68.7 "/>
<polygon points="26.1,57.3 41,57.4 41.1,57.7 40.9,58 26.1,57.9 25.9,57.6 "/>
<polygon points="27.2,59.1 39.8,59.2 39.8,59.5 39.8,59.8 27.2,59.8 27.2,59.5 "/>
<polygon points="41,57.4 46.8,47.4 47.1,47.6 47.3,47.7 41.5,57.7 41.1,57.7 "/>
<text transform="matrix(1 0 0 1 46.3936 47.2706)" class="st0 st1">N</text>
<polygon points="45.2,42.6 39.9,33.3 40.2,33.2 40.5,33 45.8,42.3 45.5,42.4 "/>
<polygon points="46.8,41.7 41.1,31.6 41.3,31.3 41.6,31.3 47.3,41.4 47.1,41.5 "/>
<polygon points="41.1,31.6 28.8,31.6 28.8,31.3 28.8,31 41.1,31 41.3,31.3 "/>
<text transform="matrix(1 0 0 1 23.6329 28.4263)" class="st0 st1">H</text>
<text transform="matrix(1 0 0 1 23.6329 34.5528)" class="st0 st1">N</text>
<polygon points="24.6,34.3 18.7,44.4 18.4,44.4 18,44.4 24.1,34 24.4,34.2 "/>
<polygon points="18.9,45.6 6.4,45.6 6.4,45.3 6.4,45 18.9,45 18.9,45.3 "/>
<polygon points="18.9,43.8 6.4,43.7 6.4,43.4 6.4,43.1 18.9,43.2 18.9,43.5 "/>
<text transform="matrix(1 0 0 1 0.5538 47.0435)" class="st0 st1">O</text>
<polygon points="18.7,44.4 26.1,57.3 25.9,57.6 25.6,57.7 18,44.4 18.4,44.4 "/>
<polygon points="41.1,31 47.3,20.3 47.6,20.5 47.9,20.6 41.6,31.3 41.3,31.3 "/>
<text transform="matrix(1 0 0 1 46.5245 20.0494)" class="st0 st1">N</text>
<text transform="matrix(1 0 0 1 51.3711 20.0494)" class="st0 st1">H</text>
<text transform="matrix(1 0 0 1 56.2168 21.0816)" class="st0 st2">2</text>
<polygon points="41.5,57.7 45,68.7 44.7,68.8 44.4,68.9 40.9,58 41.1,57.7 "/>
<polygon points="60.6,77.1 65.1,91.2 64.9,91.5 64.6,91.8 59.9,77.1 60.2,77 "/>
<polygon points="85,77.4 84.8,76.8 85.1,76.7 85.4,76.6 85.6,77.2 85.3,77.3 "/>
<polygon points="86.8,77 86.5,76.1 86.8,76 87.1,75.9 87.3,76.8 87,76.9 "/>
<polygon points="88.5,76.5 88.2,75.4 88.5,75.3 88.8,75.2 89.1,76.3 88.8,76.4 "/>
<polygon points="90.3,76.1 89.9,74.7 90.2,74.6 90.4,74.6 90.9,75.9 90.6,76 "/>
<polygon points="92.1,75.7 91.6,74.1 91.9,74 92.1,73.9 92.7,75.5 92.4,75.6 "/>
<polygon points="93.8,75.2 93.3,73.4 93.5,73.3 93.8,73.2 94.4,75 94.1,75.1 "/>
<polygon points="95.6,74.8 95,72.7 95.2,72.6 95.5,72.5 96.2,74.6 95.9,74.7 "/>
<polygon points="97.4,74.4 96.7,72 96.9,71.9 97.2,71.8 98,74.2 97.7,74.3 "/>
<polygon points="99.2,73.9 98.3,71.4 98.6,71.3 98.9,71.2 99.7,73.7 99.5,73.8 "/>
<polygon points="99.2,71.9 108.4,80.3 108.2,80.5 108,80.7 99.5,73 99.3,72.5 "/>
<text transform="matrix(1 0 0 1 107.9874 85.4141)" class="st0 st1">O</text>
<polygon points="113.7,81.4 122.2,78.7 122.2,79 122.3,79.3 113.9,82 113.8,81.7 "/>
<text transform="matrix(1 0 0 1 122.8555 80.7823)" class="st0 st1">P</text>
<polygon points="122.9,75.1 120.4,67.3 120.7,67.2 121,67.1 123.4,74.9 123.1,75 "/>
<polygon points="124.6,74.5 122.1,66.8 122.4,66.7 122.7,66.6 125.2,74.3 124.9,74.4 "/>
<text transform="matrix(1 0 0 1 117.8536 66.2872)" class="st0 st1">O</text>
<polygon points="126.5,81.4 129.1,89.5 128.8,89.6 128.5,89.7 125.9,81.5 126.2,81.4 "/>
<text transform="matrix(1 0 0 1 127.1143 95.2784)" class="st0 st1">O</text>
<text transform="matrix(1 0 0 1 132.334 95.2784)" class="st0 st1">H</text>
<polygon points="127.8,76.9 136.3,74.2 136.4,74.5 136.5,74.8 128,77.4 127.9,77.2 "/>
<text transform="matrix(1 0 0 1 136.9805 76.1524)" class="st0 st1">O</text>
<polygon points="142.2,75.4 148.8,81.4 148.6,81.6 148.4,81.8 141.8,75.9 142,75.7 "/>
<text transform="matrix(1 0 0 1 148.6104 86.3907)" class="st0 st1">P</text>
<polygon points="152,80.5 157.9,74.1 158.2,74.3 158.4,74.5 152.5,81 152.3,80.7 "/>
<polygon points="153.4,81.8 159.3,75.3 159.5,75.5 159.7,75.7 153.8,82.2 153.6,82 "/>
<text transform="matrix(1 0 0 1 158.4756 75.1348)" class="st0 st1">O</text>
<polygon points="149,86.2 142.8,93 142.6,92.8 142.3,92.6 148.5,85.8 148.7,86 "/>
<text transform="matrix(1 0 0 1 133.1534 97.6505)" class="st0 st1">H</text>
<text transform="matrix(1 0 0 1 138 97.6505)" class="st0 st1">O</text>
<polygon points="153.3,85.5 159.9,91.5 159.7,91.7 159.5,91.9 152.9,86 153.1,85.7 "/>
<text transform="matrix(1 0 0 1 159.4942 96.629)" class="st0 st1">O</text>
<polygon points="165.2,92.6 173.7,89.9 173.8,90.2 173.8,90.5 165.4,93.2 165.3,92.9 "/>
<text transform="matrix(1 0 0 1 174.3643 92.0001)" class="st0 st1">P</text>
<polygon points="178.8,92.3 181.3,100 181,100.1 180.7,100.2 178.3,92.5 178.6,92.4 "/>
<polygon points="177.1,92.9 179.6,100.6 179.3,100.7 179,100.8 176.5,93 176.8,92.9 "/>
<text transform="matrix(1 0 0 1 178.6221 106.4952)" class="st0 st1">O</text>
<polygon points="175.2,86 172.6,77.8 172.9,77.7 173.2,77.6 175.8,85.8 175.5,85.9 "/>
<text transform="matrix(1 0 0 1 164.5166 77.504)" class="st0 st1">H</text>
<text transform="matrix(1 0 0 1 169.3633 77.504)" class="st0 st1">O</text>
<polygon points="179.4,88.1 187.8,85.4 187.9,85.7 188,86 179.5,88.7 179.4,88.4 "/>
<text transform="matrix(1 0 0 1 188.4874 87.3702)" class="st0 st1">O</text>
<text transform="matrix(1 0 0 1 193.7071 87.3702)" class="st0 st1">H</text>
<polygon points="80.4,91.5 88.4,100.7 87.3,101.5 86.2,102.3 79.9,91.8 80.1,91.5 "/>
<text transform="matrix(1 0 0 1 86.3428 106.6095)" class="st0 st1">O</text>
<text transform="matrix(1 0 0 1 91.5625 106.6095)" class="st0 st1">H</text>
</svg>
