<?xml version="1.0" encoding="utf-8"?>
<!-- Generator: Adobe Illustrator 23.0.3, SVG Export Plug-In . SVG Version: 6.00 Build 0)  -->
<svg version="1.1" id="图层_1" xmlns="http://www.w3.org/2000/svg" xmlns:xlink="http://www.w3.org/1999/xlink" x="0px" y="0px"
	 viewBox="0 0 200 130" style="enable-background:new 0 0 200 130;" xml:space="preserve">
<style type="text/css">
	.st0{font-family:'ArialMT';}
	.st1{font-size:6.5575px;}
	.st2{font-size:4.0354px;}
</style>
<polygon points="37.9,113.8 37.9,98.4 38.2,98.4 38.5,98.4 38.5,113.8 38.2,113.8 "/>
<polygon points="39.7,113.8 39.7,98.4 40,98.4 40.3,98.4 40.3,113.8 40,113.8 "/>
<polygon points="39.1,98.5 51.7,91.3 52,91.4 52,91.8 39.1,99.2 39.1,98.9 "/>
<polygon points="51.7,91.3 51.7,76.8 52,76.6 52.3,76.8 52.3,91.2 52,91.4 "/>
<polygon points="53.5,90.2 53.5,77.9 53.8,77.9 54.1,77.9 54.1,90.2 53.8,90.2 "/>
<polygon points="51.7,76.8 41.6,70.9 41.8,70.7 41.9,70.4 52,76.3 52,76.6 "/>
<text transform="matrix(1 0 0 1 36.7293 71.7988)" class="st0 st1">N</text>
<polygon points="37.5,72.5 28.2,77.9 28,77.6 27.9,77.4 37.2,72 37.3,72.2 "/>
<polygon points="36.6,70.9 26.5,76.8 26.2,76.6 26.2,76.2 36.3,70.4 36.4,70.7 "/>
<polygon points="26.5,76.8 26.5,88.1 26.2,88.1 25.9,88.1 25.9,76.8 26.2,76.6 "/>
<text transform="matrix(1 0 0 1 19.1161 94.1054)" class="st0 st1">H</text>
<text transform="matrix(1 0 0 1 23.8519 94.1054)" class="st0 st1">N</text>
<polygon points="28.9,92.7 39.1,98.5 39.1,98.9 39.1,99.2 28.6,93.2 28.7,92.9 "/>
<polygon points="25.9,76.8 15.7,70.8 15.8,70.6 16,70.3 26.2,76.2 26.2,76.6 "/>
<text transform="matrix(1 0 0 1 4.0506 70.9541)" class="st0 st1">H</text>
<text transform="matrix(1 0 0 1 8.7855 71.9629)" class="st0 st2">2</text>
<text transform="matrix(1 0 0 1 11.0301 70.9541)" class="st0 st1">N</text>
<polygon points="52,76.3 63.1,72.7 63.2,72.9 63.2,73.2 52.3,76.8 52,76.6 "/>
<text transform="matrix(1 0 0 1 63.7498 74.6396)" class="st0 st1">N</text>
<polygon points="68.3,74.5 75.2,84 74.9,84 74.5,84 67.8,74.8 68,74.6 "/>
<polygon points="75.2,84 68.3,93.6 68,93.4 67.8,93.2 74.5,84 74.9,84 "/>
<polygon points="72.9,84.2 66.8,92.5 66.6,92.3 66.4,92.2 72.4,83.8 72.7,84 "/>
<text transform="matrix(1 0 0 1 63.7498 98.6992)" class="st0 st1">N</text>
<polygon points="63.1,95.4 52,91.8 52,91.4 52.3,91.2 63.2,94.8 63.2,95.1 "/>
<polygon points="66.9,68.6 70.4,57.9 70.7,57.8 71,58.1 67.5,68.8 67.2,68.7 "/>
<polygon points="70.4,57.9 61.8,46.1 62,45.8 62.3,45.8 70.8,57.5 70.7,57.8 "/>
<polygon points="61.8,45.5 70.4,33.7 70.7,33.8 70.8,34.1 62.3,45.8 62,45.8 "/>
<polygon points="71,33.5 84.8,38 84.9,38.4 84.6,38.6 70.8,34.1 70.7,33.8 "/>
<polygon points="85.2,38.5 85.2,49.9 84.9,49.9 84.6,49.9 84.6,38.6 84.9,38.4 "/>
<text transform="matrix(1 0 0 1 82.3055 55.9008)" class="st0 st1">O</text>
<polygon points="81.8,54.5 71,58.1 70.7,57.8 70.8,57.5 81.6,54 81.7,54.3 "/>
<polygon points="84.8,38 96.9,29.3 96.9,29.6 96.9,30 85.2,38.5 84.9,38.4 "/>
<polygon points="96.9,29.3 107.6,34.1 107.5,34.4 107.4,34.6 96.9,30 96.9,29.6 "/>
<text transform="matrix(1 0 0 1 107.9217 38.3379)" class="st0 st1">O</text>
<polygon points="112.9,33.6 119.9,28.4 120.1,28.7 120.3,28.9 113.2,34 113.1,33.8 "/>
<text transform="matrix(1 0 0 1 120.3153 29.5966)" class="st0 st1">P</text>
<polygon points="119.7,25.1 114.8,18.3 115,18.2 115.3,18 120.2,24.7 119.9,24.9 "/>
<polygon points="121.1,24 116.2,17.3 116.5,17.1 116.7,16.9 121.6,23.7 121.4,23.9 "/>
<text transform="matrix(1 0 0 1 111.2118 17.5669)" class="st0 st1">O</text>
<polygon points="123.7,30.2 125.8,38.2 125.6,38.3 125.3,38.4 123.1,30.3 123.4,30.2 "/>
<text transform="matrix(1 0 0 1 123.7997 43.9604)" class="st0 st1">O</text>
<text transform="matrix(1 0 0 1 128.9002 43.9604)" class="st0 st1">H</text>
<polygon points="124.7,25 131.8,19.8 131.9,20.1 132.1,20.3 125.1,25.4 124.9,25.2 "/>
<text transform="matrix(1 0 0 1 131.9842 20.8574)" class="st0 st1">O</text>
<polygon points="137.6,19.3 145.5,22.8 145.4,23 145.3,23.3 137.4,19.8 137.5,19.5 "/>
<text transform="matrix(1 0 0 1 145.9305 26.9047)" class="st0 st1">P</text>
<polygon points="148.5,20.5 151.6,13.5 151.9,13.6 152.2,13.7 149,20.8 148.7,20.7 "/>
<polygon points="150.1,21.3 153.2,14.2 153.5,14.3 153.8,14.5 150.6,21.5 150.4,21.4 "/>
<text transform="matrix(1 0 0 1 151.6161 13.3188)" class="st0 st1">O</text>
<polygon points="147,27.6 143.5,35.3 143.3,35.2 143,35 146.4,27.4 146.7,27.5 "/>
<text transform="matrix(1 0 0 1 134.785 40.4902)" class="st0 st1">H</text>
<text transform="matrix(1 0 0 1 139.5204 40.4902)" class="st0 st1">O</text>
<polygon points="151,25.2 158.8,28.7 158.7,29 158.6,29.2 150.7,25.7 150.8,25.5 "/>
<text transform="matrix(1 0 0 1 159.1522 32.9541)" class="st0 st1">O</text>
<polygon points="164.1,28.2 171.2,23 171.3,23.3 171.5,23.5 164.5,28.7 164.3,28.4 "/>
<text transform="matrix(1 0 0 1 171.5467 24.2129)" class="st0 st1">P</text>
<polygon points="176.6,23.4 181.5,30.2 181.2,30.3 181,30.5 176.1,23.8 176.3,23.6 "/>
<polygon points="175.1,24.5 180,31.2 179.8,31.4 179.5,31.6 174.6,24.8 174.9,24.6 "/>
<text transform="matrix(1 0 0 1 179.9227 36.2426)" class="st0 st1">O</text>
<polygon points="171.6,19.2 166.4,12 166.7,11.8 166.9,11.6 172.1,18.8 171.9,19 "/>
<text transform="matrix(1 0 0 1 157.7079 12.1831)" class="st0 st1">H</text>
<text transform="matrix(1 0 0 1 162.4442 12.1831)" class="st0 st1">O</text>
<polygon points="175.9,19.6 183.2,14.3 183.4,14.5 183.6,14.8 176.3,20.1 176.1,19.8 "/>
<text transform="matrix(1 0 0 1 183.2137 15.4716)" class="st0 st1">O</text>
<text transform="matrix(1 0 0 1 188.3143 15.4716)" class="st0 st1">H</text>
<polygon points="70.4,33.7 66.8,22.6 67.1,22.5 67.3,22.4 71,33.5 70.7,33.8 "/>
<text transform="matrix(1 0 0 1 58.8319 22.2929)" class="st0 st1">H</text>
<text transform="matrix(1 0 0 1 63.5667 22.2929)" class="st0 st1">O</text>
<polygon points="61.8,46.1 50.2,46.1 50.2,45.8 50.2,45.5 61.8,45.5 62,45.8 "/>
<text transform="matrix(1 0 0 1 39.8163 48.4653)" class="st0 st1">H</text>
<text transform="matrix(1 0 0 1 44.5526 48.4653)" class="st0 st1">O</text>
</svg>
