<?xml version="1.0" encoding="utf-8"?>
<!-- Generator: Adobe Illustrator 22.1.0, SVG Export Plug-In . SVG Version: 6.00 Build 0)  -->
<svg version="1.1" id="图层_1" xmlns="http://www.w3.org/2000/svg" xmlns:xlink="http://www.w3.org/1999/xlink" x="0px" y="0px"
	 viewBox="0 0 400 400" style="enable-background:new 0 0 400 400;" xml:space="preserve">
<style type="text/css">
	.st0{font-family:'ArialMT';}
	.st1{font-size:12.4768px;}
</style>
<polygon points="360.3,195.5 346.3,171.3 346.6,170.7 347,170.1 361.3,194.9 360.8,195.2 "/>
<polygon points="346.3,171.3 318.7,171.3 318.3,170.7 318.7,170.1 347,170.1 346.6,170.7 "/>
<polygon points="318.7,171.3 304.5,195.8 304.2,195.2 303.9,194.6 317.7,170.7 318.3,170.7 "/>
<polygon points="314.9,171 302.7,192.1 302.2,191.8 301.7,191.5 313.9,170.4 314.4,170.7 "/>
<polygon points="304.5,195.8 275.6,195.8 275.9,195.2 276.2,194.6 303.9,194.6 304.2,195.2 "/>
<polygon points="275.6,195.8 261.4,171.3 261.8,170.7 262.4,170.7 276.2,194.6 275.9,195.2 "/>
<polygon points="277.4,192.1 265.2,171 265.7,170.7 266.2,170.4 278.4,191.5 277.9,191.8 "/>
<polygon points="261.4,170.1 275.6,145.6 275.9,146.2 276.2,146.8 262.4,170.7 261.8,170.7 "/>
<polygon points="275.6,145.6 304.5,145.6 304.2,146.2 303.9,146.8 276.2,146.8 275.9,146.2 "/>
<polygon points="277.9,149 302.2,149 302.2,149.6 302.2,150.2 277.9,150.2 277.9,149.6 "/>
<polygon points="304.5,145.6 318.7,170.1 318.3,170.7 317.7,170.7 303.9,146.8 304.2,146.2 "/>
<polygon points="261.4,171.3 233.8,171.3 233.5,170.7 233.8,170.1 261.4,170.1 261.8,170.7 "/>
<polygon points="233.8,171.3 219.6,195.8 219.3,195.2 219,194.6 232.8,170.7 233.5,170.7 "/>
<polygon points="230,171 217.8,192.1 217.4,191.8 216.9,191.5 229.1,170.4 229.5,170.7 "/>
<polygon points="219.6,195.8 191.3,195.8 191,195.2 191.3,194.6 219,194.6 219.3,195.2 "/>
<polygon points="186.6,195.5 174.4,174.4 174.9,174.1 175.4,173.8 187.6,194.9 187.1,195.2 "/>
<polygon points="190.4,195.2 176.5,171.3 176.9,170.7 177.2,170.1 191.3,194.6 191,195.2 "/>
<polygon points="176.5,171.3 148.9,171.3 148.6,170.7 148.3,170.1 177.2,170.1 176.9,170.7 "/>
<polygon points="151,174.4 138.8,195.5 138.4,195.2 137.9,194.9 150,173.8 150.5,174.1 "/>
<polygon points="148.9,171.3 135.1,195.2 134.4,195.2 134.1,194.6 148.3,170.1 148.6,170.7 "/>
<polygon points="135.1,195.2 148.9,219.1 148.6,219.7 148.3,220.3 134.1,195.8 134.4,195.2 "/>
<polygon points="150.5,215.7 174.9,215.7 174.9,216.3 174.9,216.9 150.5,216.9 150.5,216.3 "/>
<polygon points="148.9,219.1 176.5,219.1 176.9,219.7 177.2,220.3 148.3,220.3 148.6,219.7 "/>
<polygon points="176.5,219.1 190.4,195.2 191,195.2 191.3,195.8 177.2,220.3 176.9,219.7 "/>
<polygon points="134.1,195.8 111.8,195.8 111.8,195.2 111.8,194.6 134.1,194.6 134.4,195.2 "/>
<text transform="matrix(1 0 0 1 101.6338 200.251)" class="st0 st1">N</text>
<polygon points="102,189.2 91.5,171 92,170.7 92.5,170.4 103,188.6 102.5,188.9 "/>
<polygon points="103,201.8 92.3,220.3 92,219.7 91.7,219.1 102,201.2 102.5,201.5 "/>
<polygon points="92.3,220.3 64,220.3 63.7,219.7 63.4,219.1 91.7,219.1 92,219.7 "/>
<polygon points="64,220.3 50,244.5 49.6,244.2 49.1,243.9 63.4,219.1 63.7,219.7 "/>
<polygon points="53,246.2 42.5,264.4 42,264.1 41.5,263.8 52,245.6 52.5,245.9 "/>
<polygon points="50,244.5 39.5,262.7 39,262.4 38.5,262.1 49.1,243.9 49.6,244.2 "/>
<polygon points="47.1,242.8 36.6,261 36.1,260.7 35.6,260.4 46.1,242.2 46.6,242.5 "/>
<text transform="matrix(1 0 0 1 30.8994 273.7607)" class="st0 st1">N</text>
<polygon points="232.8,170.7 218.8,146.5 219.3,146.2 219.8,145.9 233.8,170.1 233.5,170.7 "/>
<polygon points="215.9,148.2 205.4,130 205.9,129.7 206.4,129.4 216.9,147.6 216.4,147.9 "/>
<polygon points="218.8,146.5 208.3,128.3 208.8,128 209.3,127.7 219.8,145.9 219.3,146.2 "/>
<polygon points="221.8,144.8 211.3,126.6 211.7,126.3 212.2,126 222.7,144.2 222.3,144.5 "/>
<text transform="matrix(1 0 0 1 200.6631 126.7412)" class="st0 st1">N</text>
</svg>
