<?xml version="1.0" encoding="utf-8"?>
<!-- Generator: Adobe Illustrator 22.1.0, SVG Export Plug-In . SVG Version: 6.00 Build 0)  -->
<svg version="1.1" id="图层_1" xmlns="http://www.w3.org/2000/svg" xmlns:xlink="http://www.w3.org/1999/xlink" x="0px" y="0px"
	 viewBox="0 0 400 400" style="enable-background:new 0 0 400 400;" xml:space="preserve">
<style type="text/css">
	.st0{font-family:'ArialMT';}
	.st1{font-size:12.5451px;}
</style>
<polygon points="269.2,281.7 258.6,263.4 259.1,263.1 259.6,262.8 270.2,281.1 269.7,281.4 "/>
<text transform="matrix(1 0 0 1 250.9189 261.8537)" class="st0 st1">N</text>
<polygon points="258.6,250.2 269.3,231.6 269.7,232.1 270,232.7 259.6,250.7 259.1,250.4 "/>
<polygon points="269.3,231.6 297.8,231.6 298.1,232.1 298.5,232.7 270,232.7 269.7,232.1 "/>
<polygon points="297.8,231.6 311.9,207.2 312.3,207.5 312.8,207.8 298.5,232.7 298.1,232.1 "/>
<polygon points="308.9,205.5 319.5,187.2 320,187.5 320.5,187.8 309.9,206.1 309.4,205.8 "/>
<polygon points="311.9,207.2 322.4,188.9 322.9,189.2 323.4,189.5 312.8,207.8 312.3,207.5 "/>
<polygon points="314.8,208.9 325.4,190.6 325.9,190.9 326.4,191.2 315.8,209.5 315.3,209.2 "/>
<text transform="matrix(1 0 0 1 322.041 187.9421)" class="st0 st1">N</text>
<polygon points="249.8,257.3 227.3,257.3 227,256.8 227.3,256.2 249.8,256.2 249.8,256.8 "/>
<polygon points="227.3,257.3 213.1,282 212.8,281.4 212.4,280.8 226.3,256.8 227,256.8 "/>
<polygon points="223.6,257.1 211.3,278.3 210.8,278 210.3,277.7 222.6,256.5 223.1,256.8 "/>
<polygon points="213.1,282 184,282 184.3,281.4 184.7,280.8 212.4,280.8 212.8,281.4 "/>
<polygon points="184,282 169.8,257.3 170.1,256.8 170.8,256.8 184.7,280.8 184.3,281.4 "/>
<polygon points="185.8,278.3 173.6,257.1 174,256.8 174.5,256.5 186.8,277.7 186.3,278 "/>
<polygon points="169.8,256.2 184,231.6 184.3,232.1 184.7,232.7 170.8,256.8 170.1,256.8 "/>
<polygon points="184,231.6 213.1,231.6 212.8,232.1 212.4,232.7 184.7,232.7 184.3,232.1 "/>
<polygon points="186.3,235 210.8,235 210.8,235.5 210.8,236.1 186.3,236.1 186.3,235.5 "/>
<polygon points="213.1,231.6 227.3,256.2 227,256.8 226.3,256.8 212.4,232.7 212.8,232.1 "/>
<polygon points="169.8,257.3 141.3,257.3 141.7,256.8 142,256.2 169.8,256.2 170.1,256.8 "/>
<polygon points="141.3,257.3 127.1,232.7 127.4,232.1 128.1,232.1 142,256.2 141.7,256.8 "/>
<polygon points="143.1,253.6 130.9,232.4 131.4,232.1 131.9,231.9 144.1,253.1 143.6,253.4 "/>
<polygon points="127.1,232.7 99,232.7 99,232.1 99,231.6 127.1,231.6 127.4,232.1 "/>
<polygon points="99,236.1 76.2,236.1 76.2,235.5 76.2,235 99,235 99,235.5 "/>
<polygon points="99,232.7 76.2,232.7 76.2,232.1 76.2,231.6 99,231.6 99,232.1 "/>
<polygon points="99,229.3 76.2,229.3 76.2,228.7 76.2,228.2 99,228.2 99,228.7 "/>
<text transform="matrix(1 0 0 1 66.0019 237.217)" class="st0 st1">N</text>
<polygon points="127.1,231.6 141,207.5 141.7,207.5 142,208.1 128.1,232.1 127.4,232.1 "/>
<polygon points="143.6,203.5 168.1,203.5 168.1,204.1 168.1,204.7 143.6,204.7 143.6,204.1 "/>
<polygon points="142,206.9 169.8,206.9 170.1,207.5 170.4,208.1 142,208.1 141.7,207.5 "/>
<polygon points="169.8,206.9 183.7,182.9 184.3,182.9 185,182.9 170.4,208.1 170.1,207.5 "/>
<polygon points="179.9,183.1 167.6,161.9 168.1,161.6 168.6,161.4 180.9,182.6 180.4,182.9 "/>
<polygon points="183.7,182.9 169.8,158.8 170.1,158.2 170.8,158.2 185,182.9 184.3,182.9 "/>
<polygon points="169.8,158.8 142,158.8 141.7,158.2 141.3,157.7 169.8,157.7 170.1,158.2 "/>
<polygon points="144.1,161.9 131.9,183.1 131.4,182.9 130.9,182.6 143.1,161.4 143.6,161.6 "/>
<polygon points="142,158.8 128.1,182.9 127.4,182.9 126.8,182.9 141.3,157.7 141.7,158.2 "/>
<polygon points="128.1,182.9 142,206.9 141.7,207.5 141,207.5 126.8,182.9 127.4,182.9 "/>
<polygon points="169.8,157.7 180.2,139.6 180.7,139.9 181.2,140.2 170.8,158.2 170.1,158.2 "/>
<text transform="matrix(1 0 0 1 179.4462 138.6672)" class="st0 st1">O</text>
<polygon points="180.2,127.5 169.6,109.2 170.1,108.9 170.6,108.7 181.2,127 180.7,127.3 "/>
</svg>
