<?xml version="1.0" encoding="utf-8"?>
<!-- Generator: Adobe Illustrator 22.1.0, SVG Export Plug-In . SVG Version: 6.00 Build 0)  -->
<svg version="1.1" id="图层_1" xmlns="http://www.w3.org/2000/svg" xmlns:xlink="http://www.w3.org/1999/xlink" x="0px" y="0px"
	 viewBox="0 0 400 400" style="enable-background:new 0 0 400 400;" xml:space="preserve">
<style type="text/css">
	.st0{font-family:'ArialMT';}
	.st1{font-size:12.2612px;}
</style>
<polygon points="344.6,219.5 334.3,201.6 334.8,201.3 335.2,201.1 345.6,218.9 345.1,219.2 "/>
<text transform="matrix(1 0 0 1 326.4247 200.1115)" class="st0 st1">O</text>
<polygon points="325.3,195.7 303.7,195.7 303.4,195.1 303.7,194.6 325.3,194.6 325.3,195.1 "/>
<polygon points="303.7,195.7 289.8,219.8 289.5,219.2 289.2,218.7 302.7,195.1 303.4,195.1 "/>
<polygon points="300,195.4 288,216.2 287.6,215.9 287.1,215.6 299.1,194.9 299.5,195.1 "/>
<polygon points="289.8,219.8 261.4,219.8 261.7,219.2 262,218.7 289.2,218.7 289.5,219.2 "/>
<polygon points="261.4,219.8 247.5,195.7 247.8,195.1 248.4,195.1 262,218.7 261.7,219.2 "/>
<polygon points="263.1,216.2 251.2,195.4 251.6,195.1 252.1,194.9 264.1,215.6 263.6,215.9 "/>
<polygon points="247.5,194.6 261.4,170.5 261.7,171.1 262,171.6 248.4,195.1 247.8,195.1 "/>
<polygon points="261.4,170.5 289.8,170.5 289.5,171.1 289.2,171.6 262,171.6 261.7,171.1 "/>
<polygon points="263.6,173.8 287.6,173.8 287.6,174.4 287.6,175 263.6,175 263.6,174.4 "/>
<polygon points="289.8,170.5 303.7,194.6 303.4,195.1 302.7,195.1 289.2,171.6 289.5,171.1 "/>
<polygon points="247.5,195.7 220.3,195.7 220,195.1 220.3,194.6 247.5,194.6 247.8,195.1 "/>
<polygon points="220.3,195.7 206.4,219.8 206.1,219.2 205.8,218.7 219.3,195.1 220,195.1 "/>
<polygon points="216.6,195.4 204.6,216.2 204.1,215.9 203.7,215.6 215.6,194.9 216.1,195.1 "/>
<polygon points="206.4,219.8 178.6,219.8 178.3,219.2 178.6,218.7 205.8,218.7 206.1,219.2 "/>
<polygon points="173.9,219.5 162,198.8 162.4,198.5 162.9,198.2 174.9,218.9 174.4,219.2 "/>
<polygon points="177.6,219.2 164,195.7 164.4,195.1 164.7,194.6 178.6,218.7 178.3,219.2 "/>
<polygon points="164,195.7 136.9,195.7 136.6,195.1 136.2,194.6 164.7,194.6 164.4,195.1 "/>
<polygon points="139,198.8 127,219.5 126.5,219.2 126,218.9 138,198.2 138.5,198.5 "/>
<polygon points="136.9,195.7 123.3,219.2 122.7,219.2 122.3,218.7 136.2,194.6 136.6,195.1 "/>
<polygon points="123.3,219.2 136.9,242.7 136.6,243.3 136.2,243.9 122.3,219.8 122.7,219.2 "/>
<polygon points="138.5,239.4 162.4,239.4 162.4,240 162.4,240.5 138.5,240.5 138.5,240 "/>
<polygon points="136.9,242.7 164,242.7 164.4,243.3 164.7,243.9 136.2,243.9 136.6,243.3 "/>
<polygon points="164,242.7 177.6,219.2 178.3,219.2 178.6,219.8 164.7,243.9 164.4,243.3 "/>
<polygon points="122.3,219.8 100.4,219.8 100.4,219.2 100.4,218.7 122.3,218.7 122.7,219.2 "/>
<text transform="matrix(1 0 0 1 90.4257 224.1906)" class="st0 st1">N</text>
<polygon points="90.8,225.7 78.7,242.4 78.5,241.7 78.3,241.1 89.9,225.1 90.4,225.4 "/>
<polygon points="78.7,242.4 51.5,233.5 52.1,233.1 52.6,232.7 78.3,241.1 78.5,241.7 "/>
<polygon points="51.5,233.5 51.5,204.9 52.1,205.3 52.6,205.7 52.6,232.7 52.1,233.1 "/>
<polygon points="51.5,204.9 78.7,196.1 78.5,196.7 78.3,197.4 52.6,205.7 52.1,205.3 "/>
<polygon points="78.7,196.1 90.8,212.7 90.4,213 89.9,213.4 78.3,197.4 78.5,196.7 "/>
<polygon points="219.3,195.1 205.6,171.3 206.1,171.1 206.6,170.8 220.3,194.6 220,195.1 "/>
<polygon points="202.7,173 192.4,155.1 192.9,154.8 193.3,154.6 203.7,172.5 203.2,172.7 "/>
<polygon points="205.6,171.3 195.3,153.4 195.7,153.2 196.2,152.9 206.6,170.8 206.1,171.1 "/>
<polygon points="208.5,169.7 198.1,151.8 198.6,151.5 199.1,151.2 209.4,169.1 209,169.4 "/>
<text transform="matrix(1 0 0 1 187.7421 151.9513)" class="st0 st1">N</text>
</svg>
