<?xml version="1.0" encoding="utf-8"?>
<!-- Generator: Adobe Illustrator 22.1.0, SVG Export Plug-In . SVG Version: 6.00 Build 0)  -->
<svg version="1.1" id="图层_1" xmlns="http://www.w3.org/2000/svg" xmlns:xlink="http://www.w3.org/1999/xlink" x="0px" y="0px"
	 viewBox="0 0 400 400" style="enable-background:new 0 0 400 400;" xml:space="preserve">
<style type="text/css">
	.st0{font-family:'ArialMT';}
	.st1{font-size:12.2612px;}
</style>
<polygon points="330.2,243.6 319.8,225.7 320.3,225.4 320.8,225.1 331.1,243 330.7,243.3 "/>
<text transform="matrix(1 0 0 1 312.3261 224.1875)" class="st0 st1">N</text>
<polygon points="319.8,212.8 330.2,194.9 330.7,195.1 331.1,195.4 320.8,213.3 320.3,213 "/>
<polygon points="311.2,219.8 289.3,219.8 288.9,219.2 289.3,218.7 311.2,218.7 311.2,219.2 "/>
<polygon points="289.3,219.8 275.4,243.9 275,243.3 274.7,242.7 288.3,219.2 288.9,219.2 "/>
<polygon points="285.6,219.5 273.6,240.2 273.1,240 272.6,239.7 284.6,218.9 285.1,219.2 "/>
<polygon points="275.4,243.9 246.9,243.9 247.2,243.3 247.6,242.7 274.7,242.7 275,243.3 "/>
<polygon points="246.9,243.9 233,219.8 233.3,219.2 234,219.2 247.6,242.7 247.2,243.3 "/>
<polygon points="248.7,240.2 236.7,219.5 237.2,219.2 237.7,218.9 249.6,239.7 249.2,240 "/>
<polygon points="233,218.7 246.9,194.6 247.2,195.1 247.6,195.7 234,219.2 233.3,219.2 "/>
<polygon points="246.9,194.6 275.4,194.6 275,195.1 274.7,195.7 247.6,195.7 247.2,195.1 "/>
<polygon points="249.2,197.9 273.1,197.9 273.1,198.5 273.1,199 249.2,199 249.2,198.5 "/>
<polygon points="275.4,194.6 289.3,218.7 288.9,219.2 288.3,219.2 274.7,195.7 275,195.1 "/>
<polygon points="233,219.8 205.2,219.8 205.5,219.2 205.9,218.7 233,218.7 233.3,219.2 "/>
<polygon points="205.2,219.8 191.3,195.7 191.6,195.1 192.3,195.1 205.9,218.7 205.5,219.2 "/>
<polygon points="207,216.2 195,195.4 195.5,195.1 196,194.9 207.9,215.6 207.5,215.9 "/>
<polygon points="191.3,194.6 205.1,170.8 205.5,171.1 206,171.3 192.3,195.1 191.6,195.1 "/>
<polygon points="202.2,169.1 212.5,151.2 213,151.5 213.5,151.8 203.1,169.7 202.6,169.4 "/>
<polygon points="205.1,170.8 215.4,152.9 215.9,153.2 216.3,153.4 206,171.3 205.5,171.1 "/>
<polygon points="207.9,172.5 218.3,154.6 218.8,154.8 219.2,155.1 208.9,173 208.4,172.7 "/>
<text transform="matrix(1 0 0 1 215.0087 151.9482)" class="st0 st1">N</text>
<polygon points="191.3,195.7 164.1,195.7 163.8,195.1 164.1,194.6 191.3,194.6 191.6,195.1 "/>
<polygon points="159.5,195.4 147.5,174.7 148,174.4 148.5,174.1 160.5,194.9 160,195.1 "/>
<polygon points="163.2,195.1 149.6,171.6 149.9,171.1 150.2,170.5 164.1,194.6 163.8,195.1 "/>
<polygon points="149.6,171.6 122.4,171.6 122.1,171.1 121.8,170.5 150.2,170.5 149.9,171.1 "/>
<polygon points="124.5,174.7 112.6,195.4 112.1,195.1 111.6,194.9 123.6,174.1 124,174.4 "/>
<polygon points="122.4,171.6 108.9,195.1 108.2,195.1 107.9,194.6 121.8,170.5 122.1,171.1 "/>
<polygon points="108.9,195.1 122.4,218.7 122.1,219.2 121.8,219.8 107.9,195.7 108.2,195.1 "/>
<polygon points="124,215.3 148,215.3 148,215.9 148,216.4 124,216.4 124,215.9 "/>
<polygon points="122.4,218.7 149.6,218.7 149.9,219.2 150.2,219.8 121.8,219.8 122.1,219.2 "/>
<polygon points="149.6,218.7 163.2,195.1 163.8,195.1 164.1,195.7 150.2,219.8 149.9,219.2 "/>
<polygon points="107.9,195.7 86.3,195.7 86.3,195.1 86.3,194.6 107.9,194.6 108.2,195.1 "/>
<text transform="matrix(1 0 0 1 75.6415 200.1079)" class="st0 st1">O</text>
<polygon points="76.4,189.2 66,171.3 66.5,171.1 67,170.8 77.3,188.7 76.8,189 "/>
</svg>
