<?xml version="1.0" encoding="utf-8"?>
<!-- Generator: Adobe Illustrator 22.1.0, SVG Export Plug-In . SVG Version: 6.00 Build 0)  -->
<svg version="1.1" id="图层_1" xmlns="http://www.w3.org/2000/svg" xmlns:xlink="http://www.w3.org/1999/xlink" x="0px" y="0px"
	 viewBox="0 0 400 400" style="enable-background:new 0 0 400 400;" xml:space="preserve">
<style type="text/css">
	.st0{font-family:'ArialMT';}
	.st1{font-size:12.55px;}
</style>
<title>HBC_Simi_compound7</title>
<polygon points="301.2,286.4 290.6,268 291.1,267.8 291.6,267.5 302.1,285.8 301.7,286 "/>
<text transform="matrix(1 0 0 1 282.86 266.5)" class="st0 st1">N</text>
<polygon points="290.6,254.9 301.2,236.4 301.7,236.8 302.1,237 291.6,255.4 291.1,255 "/>
<polygon points="281.8,262 259.3,262 259,261.5 259.3,260.9 281.8,260.9 281.8,261.5 "/>
<polygon points="259.3,262 245.1,286.6 244.8,286 244.4,285.5 258.3,261.5 259,261.5 "/>
<polygon points="255.5,261.8 243.3,283 242.8,282.6 242.3,282.4 254.5,261.1 255,261.5 "/>
<polygon points="245.1,286.6 216,286.6 216.3,286 216.6,285.5 244.4,285.5 244.8,286 "/>
<polygon points="216,286.6 201.8,262 202.1,261.5 202.7,261.5 216.6,285.5 216.3,286 "/>
<polygon points="217.8,283 205.5,261.8 206,261.5 206.5,261.1 218.8,282.4 218.3,282.6 "/>
<polygon points="201.8,260.9 216,236.3 216.3,236.8 216.6,237.4 202.7,261.5 202.1,261.5 "/>
<polygon points="216,236.3 245.1,236.3 244.8,236.8 244.4,237.4 216.6,237.4 216.3,236.8 "/>
<polygon points="218.3,239.6 242.8,239.6 242.8,240.1 242.8,240.8 218.3,240.8 218.3,240.1 "/>
<polygon points="245.1,236.3 259.3,260.9 259,261.5 258.3,261.5 244.4,237.4 244.8,236.8 "/>
<polygon points="201.8,262 173.3,262 173.6,261.5 174,260.9 201.8,260.9 202.1,261.5 "/>
<polygon points="173.3,262 159.1,237.4 159.4,236.8 160.1,236.8 174,260.9 173.6,261.5 "/>
<polygon points="175.1,258.3 162.9,237 163.4,236.8 163.8,236.4 176.1,257.8 175.6,258 "/>
<polygon points="159.1,237.4 131,237.4 131,236.8 131,236.3 159.1,236.3 159.4,236.8 "/>
<polygon points="131,240.8 108.2,240.8 108.2,240.1 108.2,239.6 131,239.6 131,240.1 "/>
<polygon points="131,237.4 108.2,237.4 108.2,236.8 108.2,236.3 131,236.3 131,236.8 "/>
<polygon points="131,233.9 108.2,233.9 108.2,233.4 108.2,232.8 131,232.8 131,233.4 "/>
<text transform="matrix(1 0 0 1 97.94 241.86)" class="st0 st1">N</text>
<polygon points="159.1,236.3 173,212.1 173.6,212.1 174,212.8 160.1,236.8 159.4,236.8 "/>
<polygon points="175.6,208.1 200.1,208.1 200.1,208.8 200.1,209.4 175.6,209.4 175.6,208.8 "/>
<polygon points="174,211.5 201.8,211.5 202.1,212.1 202.4,212.8 174,212.8 173.6,212.1 "/>
<polygon points="201.8,211.5 215.6,187.5 216.3,187.5 217,187.5 202.4,212.8 202.1,212.1 "/>
<polygon points="211.9,187.8 199.6,166.6 200.1,166.3 200.6,165.9 212.9,187.3 212.4,187.5 "/>
<polygon points="215.6,187.5 201.8,163.4 202.1,162.9 202.7,162.9 217,187.5 216.3,187.5 "/>
<polygon points="201.8,163.4 174,163.4 173.6,162.9 173.3,162.4 201.8,162.4 202.1,162.9 "/>
<polygon points="176.1,166.6 163.8,187.8 163.4,187.5 162.9,187.3 175.1,165.9 175.6,166.3 "/>
<polygon points="174,163.4 160.1,187.5 159.4,187.5 158.8,187.5 173.3,162.4 173.6,162.9 "/>
<polygon points="160.1,187.5 174,211.5 173.6,212.1 173,212.1 158.8,187.5 159.4,187.5 "/>
<polygon points="201.8,162.4 212.2,144.3 212.7,144.6 213.1,144.9 202.7,162.9 202.1,162.9 "/>
<text transform="matrix(1 0 0 1 211.38 143.31)" class="st0 st1">O</text>
<polygon points="212.2,132.1 201.6,113.8 202.1,113.5 202.6,113.3 213.1,131.6 212.7,131.9 "/>
</svg>
