<?xml version="1.0" encoding="utf-8"?>
<!-- Generator: Adobe Illustrator 22.1.0, SVG Export Plug-In . SVG Version: 6.00 Build 0)  -->
<svg version="1.1" id="图层_1" xmlns="http://www.w3.org/2000/svg" xmlns:xlink="http://www.w3.org/1999/xlink" x="0px" y="0px"
	 viewBox="0 0 400 400" style="enable-background:new 0 0 400 400;" xml:space="preserve">
<style type="text/css">
	.st0{font-family:'ArialMT';}
	.st1{font-size:12.0708px;}
</style>
<polygon points="309.9,231.2 299.8,213.6 300.2,213.3 300.7,213 310.9,230.6 310.4,230.9 "/>
<text transform="matrix(1 0 0 1 292.3721 212.1007)" class="st0 st1">N</text>
<polygon points="299.8,200.8 310.1,183 310.4,183.5 310.7,184.1 300.7,201.4 300.2,201.1 "/>
<polygon points="310.1,183 337.5,183 337.8,183.5 338.1,184.1 310.7,184.1 310.4,183.5 "/>
<polygon points="337.5,183 347.5,165.6 348,165.9 348.4,166.2 338.1,184.1 337.8,183.5 "/>
<text transform="matrix(1 0 0 1 346.7803 164.6891)" class="st0 st1">O</text>
<text transform="matrix(1 0 0 1 356.1699 164.6891)" class="st0 st1">H</text>
<polygon points="291.3,207.8 269.7,207.8 269.4,207.2 269.7,206.7 291.3,206.7 291.3,207.2 "/>
<polygon points="269.7,207.8 256,231.5 255.7,230.9 255.4,230.4 268.7,207.2 269.4,207.2 "/>
<polygon points="266,207.5 254.2,227.9 253.8,227.6 253.3,227.4 265.1,206.9 265.6,207.2 "/>
<polygon points="256,231.5 228,231.5 228.3,230.9 228.6,230.4 255.4,230.4 255.7,230.9 "/>
<polygon points="228,231.5 214.3,207.8 214.6,207.2 215.2,207.2 228.6,230.4 228.3,230.9 "/>
<polygon points="229.7,227.9 217.9,207.5 218.4,207.2 218.9,206.9 230.7,227.4 230.2,227.6 "/>
<polygon points="214.3,206.7 228,183 228.3,183.5 228.6,184.1 215.2,207.2 214.6,207.2 "/>
<polygon points="228,183 256,183 255.7,183.5 255.4,184.1 228.6,184.1 228.3,183.5 "/>
<polygon points="230.2,186.2 253.8,186.2 253.8,186.8 253.8,187.3 230.2,187.3 230.2,186.8 "/>
<polygon points="256,183 269.7,206.7 269.4,207.2 268.7,207.2 255.4,184.1 255.7,183.5 "/>
<polygon points="214.3,207.8 192.7,207.8 192.7,207.2 192.7,206.7 214.3,206.7 214.6,207.2 "/>
<text transform="matrix(1 0 0 1 182.8794 212.1007)" class="st0 st1">N</text>
<text transform="matrix(1 0 0 1 182.8794 223.1202)" class="st0 st1">H</text>
<polygon points="183.2,201.4 173.2,184.1 173.6,183.5 173.9,183 184.2,200.8 183.7,201.1 "/>
<polygon points="171.2,183.2 181.8,164.8 182.3,165.1 182.8,165.3 172.1,183.8 171.7,183.5 "/>
<polygon points="174,184.9 184.7,166.4 185.1,166.7 185.6,167 175,185.4 174.5,185.1 "/>
<text transform="matrix(1 0 0 1 182.542 164.6891)" class="st0 st1">O</text>
<polygon points="173.2,184.1 146.5,184.1 146.2,183.5 146.5,183 173.9,183 173.6,183.5 "/>
<polygon points="141.9,183.8 132.7,167.8 133.2,167.5 133.6,167.3 142.9,183.2 142.4,183.5 "/>
<polygon points="145.5,183.5 135.5,166.2 136,165.9 136.5,165.6 146.5,183 146.2,183.5 "/>
<text transform="matrix(1 0 0 1 128.1333 164.6891)" class="st0 st1">N</text>
<polygon points="127,160.3 105.4,160.3 105.1,159.8 104.8,159.3 127,159.3 127,159.8 "/>
<polygon points="107.5,163.4 95.7,183.8 95.2,183.5 94.8,183.2 106.5,162.8 107,163.1 "/>
<polygon points="105.4,160.3 92.1,183.5 91.4,183.5 91.1,183 104.8,159.3 105.1,159.8 "/>
<polygon points="92.1,183.5 105.4,206.7 105.1,207.2 104.8,207.8 91.1,184.1 91.4,183.5 "/>
<polygon points="107,203.4 130.6,203.4 130.6,203.9 130.6,204.5 107,204.5 107,203.9 "/>
<polygon points="105.4,206.7 132.2,206.7 132.5,207.2 132.8,207.8 104.8,207.8 105.1,207.2 "/>
<polygon points="132.2,206.7 145.5,183.5 146.2,183.5 146.5,184.1 132.8,207.8 132.5,207.2 "/>
<polygon points="91.1,184.1 64.1,184.1 64.1,183.5 64.1,183 91.1,183 91.4,183.5 "/>
<polygon points="64.1,187.3 42.1,187.3 42.1,186.8 42.1,186.2 64.1,186.2 64.1,186.8 "/>
<polygon points="64.1,184.1 42.1,184.1 42.1,183.5 42.1,183 64.1,183 64.1,183.5 "/>
<polygon points="64.1,180.8 42.1,180.8 42.1,180.2 42.1,179.7 64.1,179.7 64.1,180.2 "/>
<text transform="matrix(1 0 0 1 32.3276 188.3947)" class="st0 st1">N</text>
</svg>
