<?xml version="1.0" encoding="utf-8"?>
<!-- Generator: Adobe Illustrator 22.1.0, SVG Export Plug-In . SVG Version: 6.00 Build 0)  -->
<svg version="1.1" id="图层_1" xmlns="http://www.w3.org/2000/svg" xmlns:xlink="http://www.w3.org/1999/xlink" x="0px" y="0px"
	 viewBox="0 0 400 400" style="enable-background:new 0 0 400 400;" xml:space="preserve">
<style type="text/css">
	.st0{font-family:'ArialMT';}
	.st1{font-size:12.2612px;}
</style>
<polygon points="302.8,243.6 292.5,225.7 293,225.4 293.5,225.1 303.8,243 303.3,243.3 "/>
<text transform="matrix(1 0 0 1 284.9864 224.1909)" class="st0 st1">N</text>
<polygon points="292.5,212.8 303,194.6 303.3,195.1 303.6,195.7 293.5,213.3 293,213 "/>
<polygon points="303,194.6 330.8,194.6 331.1,195.1 331.4,195.7 303.6,195.7 303.3,195.1 "/>
<polygon points="330.8,194.6 344.5,170.8 345,171.1 345.5,171.3 331.4,195.7 331.1,195.1 "/>
<polygon points="341.7,169.1 352,151.2 352.5,151.5 352.9,151.8 342.6,169.7 342.1,169.4 "/>
<polygon points="344.5,170.8 354.9,152.9 355.4,153.2 355.8,153.4 345.5,171.3 345,171.1 "/>
<polygon points="347.4,172.5 357.8,154.6 358.2,154.8 358.7,155.1 348.4,173 347.9,172.7 "/>
<text transform="matrix(1 0 0 1 354.4981 151.9517)" class="st0 st1">N</text>
<polygon points="283.9,219.8 261.9,219.8 261.6,219.2 261.9,218.7 283.9,218.7 283.9,219.2 "/>
<polygon points="261.9,219.8 248,243.9 247.7,243.3 247.4,242.7 261,219.2 261.6,219.2 "/>
<polygon points="258.2,219.5 246.3,240.2 245.8,240 245.3,239.7 257.3,218.9 257.8,219.2 "/>
<polygon points="248,243.9 219.6,243.9 219.9,243.3 220.2,242.7 247.4,242.7 247.7,243.3 "/>
<polygon points="219.6,243.9 205.7,219.8 206,219.2 206.6,219.2 220.2,242.7 219.9,243.3 "/>
<polygon points="221.3,240.2 209.4,219.5 209.9,219.2 210.3,218.9 222.3,239.7 221.8,240 "/>
<polygon points="205.7,218.7 219.6,194.6 219.9,195.1 220.2,195.7 206.6,219.2 206,219.2 "/>
<polygon points="219.6,194.6 248,194.6 247.7,195.1 247.4,195.7 220.2,195.7 219.9,195.1 "/>
<polygon points="221.8,197.9 245.8,197.9 245.8,198.5 245.8,199 221.8,199 221.8,198.5 "/>
<polygon points="248,194.6 261.9,218.7 261.6,219.2 261,219.2 247.4,195.7 247.7,195.1 "/>
<polygon points="205.7,219.8 177.9,219.8 178.2,219.2 178.5,218.7 205.7,218.7 206,219.2 "/>
<polygon points="177.9,219.8 164,195.7 164.3,195.1 164.9,195.1 178.5,218.7 178.2,219.2 "/>
<polygon points="179.6,216.2 167.7,195.4 168.1,195.1 168.6,194.9 180.6,215.6 180.1,215.9 "/>
<polygon points="164,194.6 177.7,170.8 178.2,171.1 178.7,171.3 164.9,195.1 164.3,195.1 "/>
<polygon points="174.8,169.1 185.2,151.2 185.6,151.5 186.1,151.8 175.8,169.7 175.3,169.4 "/>
<polygon points="177.7,170.8 188,152.9 188.5,153.2 189,153.4 178.7,171.3 178.2,171.1 "/>
<polygon points="180.6,172.5 190.9,154.6 191.4,154.8 191.9,155.1 181.6,173 181.1,172.7 "/>
<text transform="matrix(1 0 0 1 187.669 151.9517)" class="st0 st1">N</text>
<polygon points="164,195.7 136.8,195.7 136.5,195.1 136.8,194.6 164,194.6 164.3,195.1 "/>
<polygon points="132.2,195.4 120.2,174.7 120.7,174.4 121.1,174.1 133.1,194.9 132.6,195.1 "/>
<polygon points="135.8,195.1 122.3,171.6 122.6,171.1 122.9,170.5 136.8,194.6 136.5,195.1 "/>
<polygon points="122.3,171.6 95.1,171.6 94.8,171.1 94.5,170.5 122.9,170.5 122.6,171.1 "/>
<polygon points="97.2,174.7 85.2,195.4 84.7,195.1 84.2,194.9 96.2,174.1 96.7,174.4 "/>
<polygon points="95.1,171.6 81.5,195.1 80.9,195.1 80.6,194.6 94.5,170.5 94.8,171.1 "/>
<polygon points="81.5,195.1 95.1,218.7 94.8,219.2 94.5,219.8 80.6,195.7 80.9,195.1 "/>
<polygon points="96.7,215.3 120.7,215.3 120.7,215.9 120.7,216.4 96.7,216.4 96.7,215.9 "/>
<polygon points="95.1,218.7 122.3,218.7 122.6,219.2 122.9,219.8 94.5,219.8 94.8,219.2 "/>
<polygon points="122.3,218.7 135.8,195.1 136.5,195.1 136.8,195.7 122.9,219.8 122.6,219.2 "/>
<polygon points="80.6,195.7 59,195.7 59,195.1 59,194.6 80.6,194.6 80.9,195.1 "/>
<text transform="matrix(1 0 0 1 48.3018 200.1109)" class="st0 st1">O</text>
<polygon points="49,189.2 38.7,171.3 39.2,171.1 39.7,170.8 50,188.7 49.5,189 "/>
</svg>
