<?xml version="1.0" encoding="utf-8"?>
<!-- Generator: Adobe Illustrator 22.1.0, SVG Export Plug-In . SVG Version: 6.00 Build 0)  -->
<svg version="1.1" id="图层_1" xmlns="http://www.w3.org/2000/svg" xmlns:xlink="http://www.w3.org/1999/xlink" x="0px" y="0px"
	 viewBox="0 0 400 400" style="enable-background:new 0 0 400 400;" xml:space="preserve">
<style type="text/css">
	.st0{font-family:'ArialMT';}
	.st1{font-size:12.5961px;}
</style>
<polygon points="269.5,170.6 255.3,146.1 255.7,145.5 256,145 270.5,170 270,170.3 "/>
<polygon points="255.3,146.1 227.4,146.1 227.1,145.5 227.4,145 256,145 255.7,145.5 "/>
<polygon points="227.4,146.1 213.2,170.8 212.8,170.3 212.5,169.7 226.5,145.5 227.1,145.5 "/>
<polygon points="223.6,145.8 211.3,167.1 210.9,166.9 210.4,166.6 222.7,145.3 223.2,145.5 "/>
<polygon points="213.2,170.8 183.9,170.8 184.3,170.3 184.6,169.7 212.5,169.7 212.8,170.3 "/>
<polygon points="183.9,170.8 169.7,146.1 170,145.5 170.6,145.5 184.6,169.7 184.3,170.3 "/>
<polygon points="185.8,167.1 173.4,145.8 173.9,145.5 174.4,145.3 186.7,166.6 186.2,166.9 "/>
<polygon points="169.7,145 183.9,120.2 184.3,120.8 184.6,121.4 170.6,145.5 170,145.5 "/>
<polygon points="183.9,120.2 213.2,120.2 212.8,120.8 212.5,121.4 184.6,121.4 184.3,120.8 "/>
<polygon points="186.2,123.7 210.9,123.7 210.9,124.2 210.9,124.8 186.2,124.8 186.2,124.2 "/>
<polygon points="213.2,120.2 227.4,145 227.1,145.5 226.5,145.5 212.5,121.4 212.8,120.8 "/>
<polygon points="169.7,146.1 141.7,146.1 141.4,145.5 141.7,145 169.7,145 170,145.5 "/>
<polygon points="143.9,149.3 131.6,170.6 131.1,170.3 130.6,170 142.9,148.7 143.4,149 "/>
<polygon points="141.7,146.1 127.8,170.3 127.1,170.3 126.5,170.3 140.8,145.5 141.4,145.5 "/>
<polygon points="127.8,170.3 141.7,194.4 141.4,195 140.8,195 126.5,170.3 127.1,170.3 "/>
<polygon points="143.9,198.7 131.6,220 131.1,219.8 130.6,219.5 142.9,198.2 143.4,198.4 "/>
<polygon points="141.7,195.6 127.8,219.8 127.1,219.8 126.5,219.8 140.8,195 141.4,195 "/>
<polygon points="127.8,219.8 141.7,243.9 141.4,244.5 141.1,245.1 126.5,219.8 127.1,219.8 "/>
<polygon points="143.4,240.5 168,240.5 168,241.1 168,241.6 143.4,241.6 143.4,241.1 "/>
<polygon points="141.7,243.9 169.7,243.9 170,244.5 169.7,245.1 141.1,245.1 141.4,244.5 "/>
<polygon points="169.7,243.9 183.6,219.8 184.3,219.8 184.9,219.8 170.6,244.5 170,244.5 "/>
<polygon points="179.8,220 167.5,198.7 168,198.4 168.5,198.2 180.8,219.5 180.3,219.8 "/>
<polygon points="183.6,219.8 169.7,195.6 170,195 170.3,194.4 184.9,219.8 184.3,219.8 "/>
<polygon points="169.7,195.6 141.7,195.6 141.4,195 141.7,194.4 170.3,194.4 170,195 "/>
<polygon points="170.6,244.5 181.1,262.6 180.6,262.9 180.1,263.2 169.7,245.1 170,244.5 "/>
<text transform="matrix(1 0 0 1 179.7188 274.3292)" class="st0 st1">N</text>
<polygon points="181.1,275.9 170.5,294.3 170,294 169.5,293.7 180.1,275.3 180.6,275.6 "/>
<polygon points="190,268.7 213.2,268.7 212.8,269.2 212.5,269.8 190,269.8 190,269.2 "/>
<polygon points="213.2,268.7 227.4,293.4 227.1,294 226.8,294.5 212.5,269.8 212.8,269.2 "/>
<polygon points="227.4,293.4 255.7,293.4 255.7,294 255.7,294.5 226.8,294.5 227.1,294 "/>
<polygon points="255.7,290 278.6,290 278.6,290.5 278.6,291.1 255.7,291.1 255.7,290.5 "/>
<polygon points="255.7,293.4 278.6,293.4 278.6,294 278.6,294.5 255.7,294.5 255.7,294 "/>
<polygon points="255.7,296.8 278.6,296.8 278.6,297.4 278.6,298 255.7,298 255.7,297.4 "/>
<text transform="matrix(1 0 0 1 279.6934 299.0665)" class="st0 st1">N</text>
<polygon points="140.8,145.5 126.6,121.1 127.1,120.8 127.6,120.5 141.7,145 141.4,145.5 "/>
<polygon points="123.7,122.8 113.1,104.4 113.6,104.1 114,103.8 124.7,122.2 124.2,122.5 "/>
<polygon points="126.6,121.1 116,102.7 116.5,102.4 117,102.1 127.6,120.5 127.1,120.8 "/>
<polygon points="129.6,119.4 119,101 119.5,100.7 120,100.4 130.6,118.8 130.1,119.1 "/>
<text transform="matrix(1 0 0 1 108.3077 101.1671)" class="st0 st1">N</text>
</svg>
