<?xml version="1.0" encoding="utf-8"?>
<!-- Generator: Adobe Illustrator 25.2.0, SVG Export Plug-In . SVG Version: 6.00 Build 0)  -->
<svg version="1.1" id="图层_1" xmlns="http://www.w3.org/2000/svg" xmlns:xlink="http://www.w3.org/1999/xlink" x="0px" y="0px"
	 viewBox="0 0 800 400" style="enable-background:new 0 0 800 400;" xml:space="preserve">
<style type="text/css">
	.st0{fill:#304FF7;}
	.st1{font-family:'ArialMT';}
	.st2{font-size:7.4417px;}
	.st3{fill:#FF0D0D;}
	.st4{fill:#FF8000;}
	.st5{font-size:4.5795px;}
	.st6{fill:#1DC51D;}
	.st7{fill:#C39517;}
	.st8{fill:#6DAB3C;}
	.st9{font-size:16px;}
</style>
<polygon points="63.2,173.4 49.5,172.6 49.5,172.3 49.6,172 62.9,172.7 63,173 "/>
<polygon points="62,171.3 49.6,170.6 49.7,170.3 49.7,169.9 62,170.6 62,170.9 "/>
<text transform="matrix(1 0 0 1 43.4993 175.1439)" class="st0 st1 st2">N</text>
<polygon points="44,168.5 38.3,157.4 38.5,157.1 38.9,157.1 44.6,168.2 44.3,168.4 "/>
<polygon points="38.3,156.8 47.3,142.9 47.7,142.9 47.9,143.3 38.9,157.1 38.5,157.1 "/>
<polygon points="40.6,157 48.5,144.8 48.8,145 49,145.2 41.1,157.4 40.9,157.2 "/>
<polygon points="48,142.6 64.3,143.5 64.6,143.8 64.3,144.1 47.9,143.3 47.7,142.9 "/>
<polygon points="64.9,143.8 70.6,154.9 70.3,155.1 70,155.2 64.3,144.1 64.6,143.8 "/>
<polygon points="63.6,145.6 68.8,155.9 68.5,156 68.2,156.2 63,145.9 63.3,145.8 "/>
<text transform="matrix(1 0 0 1 69.5354 161.8617)" class="st0 st1 st2">N</text>
<polygon points="70.1,162.8 63.2,173.4 63,173 62.9,172.7 69.5,162.4 69.8,162.6 "/>
<polygon points="64.3,143.5 68.8,131.7 69.2,131.8 69.5,131.9 64.9,143.8 64.6,143.8 "/>
<text transform="matrix(1 0 0 1 67.9075 131.0716)" class="st0 st1 st2">N</text>
<polygon points="67,125.6 57.5,117.9 57.5,117.4 57.5,117 67.4,125.1 67.2,125.3 "/>
<polygon points="57.5,120.2 48,126.4 47.8,126.2 47.6,125.9 57.2,119.7 57.3,119.9 "/>
<polygon points="57.5,117.9 46.9,124.7 46.7,124.5 46.5,124.2 57.5,117 57.5,117.4 "/>
<text transform="matrix(1 0 0 1 40.6389 129.6537)" class="st0 st1 st2">N</text>
<polygon points="44.7,130.3 48,142.6 47.7,142.9 47.3,142.9 44,130.5 44.3,130.4 "/>
<polygon points="86.8,124.1 74.4,128.6 74,127.2 73.6,125.7 86.6,123.4 86.9,123.7 "/>
<polygon points="86.6,123.4 92.6,108 92.9,107.9 93.2,108.3 87.3,123.6 86.9,123.7 "/>
<polygon points="93.1,107.6 109.8,108.5 109.8,108.8 109.5,109.1 93.2,108.3 92.9,107.9 "/>
<polygon points="110.1,108.7 114.4,124.8 114.2,125.1 113.8,124.9 109.5,109.1 109.8,108.8 "/>
<polygon points="114.2,125.5 103.8,132.3 103.6,132 103.4,131.7 113.8,124.9 114.2,125.1 "/>
<text transform="matrix(1 0 0 1 97.1194 137.3089)" class="st3 st1 st2">O</text>
<polygon points="96.2,131.7 86.8,124.1 86.9,123.7 87.3,123.6 96.7,131.1 96.4,131.4 "/>
<polygon points="114.4,124.8 130.9,129.9 129.9,131.1 129,132.4 114.2,125.5 114.2,125.1 "/>
<polygon points="130.9,129.9 139.2,123.1 139.5,123.4 139.7,123.7 129,132.4 129.9,131.1 "/>
<text transform="matrix(1 0 0 1 140.136 123.5267)" class="st3 st1 st2">O</text>
<polygon points="146.7,121.6 155.8,125 155.6,125.3 155.5,125.7 146.5,122.2 146.6,121.9 "/>
<text transform="matrix(1 0 0 1 156.3049 129.5658)" class="st4 st1 st2">P</text>
<polygon points="159,122.3 162.1,114.1 162.4,114.2 162.8,114.3 159.6,122.6 159.3,122.4 "/>
<polygon points="160.9,123 164,114.8 164.3,114.9 164.6,115 161.5,123.3 161.2,123.2 "/>
<text transform="matrix(1 0 0 1 161.9319 113.8089)" class="st3 st1 st2">O</text>
<polygon points="157.7,130.4 154.5,138.7 154.2,138.6 153.9,138.4 157,130.2 157.3,130.3 "/>
<text transform="matrix(1 0 0 1 144.4778 145.3226)" class="st3 st1 st2">H</text>
<text transform="matrix(1 0 0 1 149.8518 145.3226)" class="st3 st1 st2">O</text>
<polygon points="162.1,127.4 171.1,130.9 171,131.2 170.9,131.5 161.8,128.1 161.9,127.8 "/>
<text transform="matrix(1 0 0 1 171.6497 135.6078)" class="st3 st1 st2">O</text>
<text transform="matrix(1 0 0 1 177.4377 135.6078)" class="st3 st1 st2">H</text>
<polygon points="110.1,109 109.5,108.5 109.7,108.3 110,108 110.5,108.5 110.3,108.7 "/>
<polygon points="111.4,107.6 110.6,106.9 110.8,106.7 111,106.4 111.9,107.1 111.7,107.4 "/>
<polygon points="112.8,106.3 111.6,105.4 111.8,105.1 112,104.8 113.2,105.8 113,106 "/>
<polygon points="114.1,104.9 112.7,103.8 112.9,103.5 113.1,103.2 114.5,104.4 114.3,104.7 "/>
<polygon points="115.4,103.6 113.7,102.2 113.9,101.9 114.1,101.7 115.9,103.1 115.6,103.3 "/>
<polygon points="116.8,102.2 114.7,100.6 115,100.3 115.2,100.1 117.2,101.7 117,102 "/>
<polygon points="118.1,100.9 115.8,99 116,98.8 116.2,98.5 118.5,100.4 118.3,100.6 "/>
<text transform="matrix(1 0 0 1 117.5061 98.6947)" class="st3 st1 st2">O</text>
<text transform="matrix(1 0 0 1 123.2942 98.6947)" class="st3 st1 st2">H</text>
<polygon points="92.6,108 84.9,98.4 86.2,97.5 87.4,96.7 93.1,107.6 92.9,107.9 "/>
<text transform="matrix(1 0 0 1 75.467 96.7904)" class="st3 st1 st2">H</text>
<text transform="matrix(1 0 0 1 80.8411 96.7904)" class="st3 st1 st2">O</text>
<polygon points="38.3,157.4 25,156.7 25,156.4 25,156.1 38.3,156.8 38.5,157.1 "/>
<text transform="matrix(1 0 0 1 11.1223 158.2777)" class="st0 st1 st2">H</text>
<text transform="matrix(1 0 0 1 16.4963 159.4222)" class="st0 st1 st5">2</text>
<text transform="matrix(1 0 0 1 19.0422 158.2777)" class="st0 st1 st2">N</text>
<polygon points="695.6,359.8 681.9,360 681.9,359.7 681.9,359.3 695.2,359.1 695.4,359.5 "/>
<polygon points="694.2,357.8 681.8,358 681.8,357.6 681.8,357.3 694.2,357.1 694.2,357.5 "/>
<text transform="matrix(1 0 0 1 675.8113 362.724)" class="st0 st1 st2">N</text>
<polygon points="676,356.1 669.7,345.6 669.9,345.2 670.2,345.2 676.6,355.8 676.3,356 "/>
<polygon points="669.7,344.9 677.7,330.5 678.1,330.5 678.3,330.8 670.2,345.2 669.9,345.2 "/>
<polygon points="671.9,345 679,332.3 679.3,332.5 679.6,332.7 672.5,345.3 672.2,345.2 "/>
<polygon points="678.3,330.1 694.7,329.9 695,330.2 694.8,330.6 678.3,330.8 678.1,330.5 "/>
<polygon points="695.3,330.2 701.7,340.8 701.4,341 701.1,341.2 694.8,330.6 695,330.2 "/>
<polygon points="694.1,332.1 699.9,341.9 699.6,342 699.3,342.2 693.5,332.5 693.8,332.3 "/>
<text transform="matrix(1 0 0 1 700.9197 347.7581)" class="st0 st1 st2">N</text>
<polygon points="701.8,348.7 695.6,359.8 695.4,359.5 695.2,359.1 701.2,348.3 701.5,348.5 "/>
<polygon points="694.7,329.9 698.5,317.8 698.8,317.9 699.1,318 695.3,330.2 695,330.2 "/>
<text transform="matrix(1 0 0 1 697.2693 317.1429)" class="st0 st1 st2">N</text>
<polygon points="696.4,312 686.2,304.8 686.2,304.4 686.2,304 696.8,311.5 696.6,311.8 "/>
<polygon points="686.4,307.2 677.4,313.9 677.2,313.6 677,313.3 686,306.6 686.2,306.9 "/>
<polygon points="686.2,304.8 676.2,312.3 676,312 675.8,311.7 686.2,304 686.2,304.4 "/>
<text transform="matrix(1 0 0 1 669.9675 317.5199)" class="st0 st1 st2">N</text>
<polygon points="674.3,318.2 678.3,330.1 678.1,330.5 677.7,330.5 673.6,318.4 673.9,318.3 "/>
<polygon points="703.2,312.7 715.7,308.4 715.9,308.7 715.9,309.1 703.4,313.3 703.3,313 "/>
<polygon points="715.7,308.4 720.6,292.6 720.9,292.6 721.2,292.9 716.3,308.6 715.9,308.7 "/>
<polygon points="721.1,292.2 737.6,292 737.8,292.3 737.6,292.7 721.2,292.9 720.9,292.6 "/>
<polygon points="738.2,292.4 743.5,308 743.2,308.3 742.8,308.2 737.6,292.7 737.8,292.3 "/>
<polygon points="743.3,308.7 733.5,316 733.3,315.7 733.1,315.5 742.8,308.2 743.2,308.3 "/>
<text transform="matrix(1 0 0 1 726.8279 321.432)" class="st3 st1 st2">O</text>
<polygon points="726,316.2 715.9,309.1 715.9,308.7 716.3,308.6 726.3,315.6 726.2,315.9 "/>
<polygon points="743.5,308 759.3,312.9 759.4,313.3 759.4,313.7 743.3,308.7 743.2,308.3 "/>
<polygon points="759.3,312.9 767.9,304.9 768.2,305.1 768.4,305.4 759.4,313.7 759.4,313.3 "/>
<text transform="matrix(1 0 0 1 768.8455 304.8499)" class="st3 st1 st2">O</text>
<text transform="matrix(1 0 0 1 774.6335 304.8499)" class="st3 st1 st2">H</text>
<polygon points="737.6,292 744.6,282.1 744.9,282.3 745.2,282.5 738.2,292.4 737.8,292.3 "/>
<text transform="matrix(1 0 0 1 744.6316 281.5609)" class="st3 st1 st2">O</text>
<polygon points="747.8,274.7 749,266.9 749.3,267 749.6,267 748.4,274.8 748.1,274.8 "/>
<text transform="matrix(1 0 0 1 747.3884 266.2249)" class="st4 st1 st2">P</text>
<polygon points="746.1,262.6 738.1,258.2 738.2,257.9 738.4,257.6 746.4,262 746.2,262.3 "/>
<polygon points="747,260.9 739,256.4 739.2,256.1 739.4,255.8 747.4,260.3 747.2,260.6 "/>
<text transform="matrix(1 0 0 1 732.2458 257.9925)" class="st3 st1 st2">O</text>
<polygon points="753.2,264.7 761.2,269.2 761,269.5 760.9,269.7 752.9,265.3 753,265 "/>
<text transform="matrix(1 0 0 1 761.7068 274.4583)" class="st3 st1 st2">O</text>
<text transform="matrix(1 0 0 1 767.4958 274.4583)" class="st3 st1 st2">H</text>
<polygon points="752.8,259.7 757.8,254.5 758.1,254.8 758.3,255 753.3,260.2 753,260 "/>
<text transform="matrix(1 0 0 1 758.7419 254.1273)" class="st3 st1 st2">O</text>
<text transform="matrix(1 0 0 1 764.53 254.1273)" class="st3 st1 st2">H</text>
<polygon points="720.6,292.6 713.4,283 713.6,282.8 713.9,282.6 721.1,292.2 720.9,292.6 "/>
<text transform="matrix(1 0 0 1 702.5476 282.0706)" class="st3 st1 st2">H</text>
<text transform="matrix(1 0 0 1 707.9207 282.0706)" class="st3 st1 st2">O</text>
<polygon points="669.7,345.6 656.3,345.6 656.3,345.2 656.3,344.9 669.7,344.9 669.9,345.2 "/>
<text transform="matrix(1 0 0 1 642.4402 347.2699)" class="st0 st1 st2">H</text>
<text transform="matrix(1 0 0 1 647.8132 348.4144)" class="st0 st1 st5">2</text>
<text transform="matrix(1 0 0 1 650.3611 347.2699)" class="st0 st1 st2">N</text>
<polygon points="280.9,55.9 270.8,63.8 270.6,63.6 270.4,63.3 280.5,55.3 280.7,55.6 "/>
<text transform="matrix(1 0 0 1 264.9309 69.0814)" class="st4 st1 st2">P</text>
<polygon points="265.1,69.6 258.6,74.8 258.4,74.5 258.2,74.2 264.7,69.1 264.9,69.4 "/>
<polygon points="263.8,68 257.3,73.2 257.1,72.9 256.9,72.6 263.4,67.5 263.6,67.8 "/>
<text transform="matrix(1 0 0 1 251.2717 79.5365)" class="st3 st1 st2">O</text>
<polygon points="264.2,62.5 259.7,56.8 259.9,56.6 260.2,56.4 264.7,62.1 264.5,62.3 "/>
<text transform="matrix(1 0 0 1 248.6917 55.8353)" class="st3 st1 st2">H</text>
<text transform="matrix(1 0 0 1 254.0647 55.8353)" class="st3 st1 st2">O</text>
<polygon points="270.6,69.6 275.2,75.4 274.9,75.6 274.6,75.8 270.1,70 270.4,69.8 "/>
<text transform="matrix(1 0 0 1 274.9739 82.3275)" class="st3 st1 st2">O</text>
<polygon points="276.7,83.2 272.2,94.6 271.6,95 271.1,95.4 276.1,82.9 276.4,83.1 "/>
<polygon points="282.3,108 281.8,108.4 281.6,108.2 281.3,107.9 281.9,107.5 282.1,107.7 "/>
<polygon points="281.2,106.3 280.4,106.9 280.2,106.7 280,106.4 280.8,105.8 281,106 "/>
<polygon points="280.1,104.6 279,105.4 278.8,105.2 278.6,104.9 279.6,104.1 279.8,104.4 "/>
<polygon points="278.9,103 277.7,103.9 277.5,103.7 277.3,103.4 278.5,102.4 278.7,102.7 "/>
<polygon points="277.8,101.3 276.3,102.4 276.1,102.2 275.9,101.9 277.4,100.8 277.6,101 "/>
<polygon points="276.6,99.6 275,100.9 274.7,100.7 274.5,100.4 276.2,99.1 276.4,99.4 "/>
<polygon points="275.5,97.9 273.6,99.4 273.4,99.2 273.2,98.9 275.1,97.4 275.3,97.7 "/>
<polygon points="274.4,96.3 272.2,97.9 272,97.7 271.8,97.4 273.9,95.7 274.1,96 "/>
<polygon points="273.2,94.6 270.9,96.4 270.7,96.2 270.4,95.9 272.8,94.1 273,94.3 "/>
<polygon points="282.3,108.6 277.9,124.3 277.5,124.5 277.2,124.2 281.8,108.1 282.1,108.2 "/>
<polygon points="277.9,124.3 291.5,133.4 291.5,133.9 291.4,134.1 277.5,124.9 277.5,124.5 "/>
<polygon points="291.5,133.4 304.4,123.3 304.8,123.4 304.8,123.8 291.8,134.1 291.5,133.9 "/>
<polygon points="304.4,123.3 300,111.4 300.3,111.3 300.6,111.2 305,123.1 304.8,123.4 "/>
<text transform="matrix(1 0 0 1 296.0442 110.5804)" class="st3 st1 st2">O</text>
<polygon points="295.4,108 282.3,108.6 282.1,108.2 282.1,107.9 295.4,107.4 295.4,107.7 "/>
<polygon points="305,123.1 318.1,125.6 317.7,127 317.3,128.5 304.8,123.8 304.8,123.4 "/>
<text transform="matrix(1 0 0 1 318.3479 130.9837)" class="st0 st1 st2">N</text>
<polygon points="324.2,125.1 334.3,117.1 334.3,117.5 334.3,117.9 324.6,125.6 324.4,125.3 "/>
<polygon points="334.3,117.1 345.1,124.4 345,124.6 344.8,124.9 334.3,117.9 334.3,117.5 "/>
<polygon points="334.6,119.7 344,126 343.8,126.3 343.6,126.6 334.2,120.3 334.4,120 "/>
<text transform="matrix(1 0 0 1 345.6292 129.8978)" class="st0 st1 st2">N</text>
<polygon points="347.6,130.7 344.1,143.1 343.7,143.1 343.5,142.8 346.9,130.5 347.3,130.6 "/>
<polygon points="343.6,143.5 327.1,144.1 326.9,143.8 327.1,143.5 343.5,142.8 343.7,143.1 "/>
<polygon points="342.2,141.5 328.3,142.1 328.3,141.7 328.3,141.4 342.2,140.8 342.2,141.2 "/>
<polygon points="327.1,144.1 321.3,155.1 321,155 320.7,154.8 326.5,143.8 326.9,143.8 "/>
<text transform="matrix(1 0 0 1 316.3469 161.7523)" class="st0 st1 st2">N</text>
<polygon points="323.4,161.2 329.4,170.8 329.1,170.9 328.8,171.1 322.8,161.6 323.1,161.4 "/>
<polygon points="321.7,162.3 328.2,172.7 328,173 327.9,173.4 321.1,162.7 321.4,162.5 "/>
<polygon points="328.2,172.7 341.5,172.1 341.5,172.5 341.6,172.8 327.9,173.4 328,173 "/>
<text transform="matrix(1 0 0 1 342.2219 175.347)" class="st0 st1 st2">N</text>
<polygon points="344.8,167.5 350.1,157.3 350.4,157.5 350.7,157.6 345.4,167.8 345.1,167.6 "/>
<polygon points="346.6,168.4 352.4,157.4 352.8,157.4 353,157.7 347.2,168.7 346.9,168.6 "/>
<polygon points="352.9,157.1 366.2,156.5 366.3,156.9 366.3,157.2 353,157.7 352.8,157.4 "/>
<text transform="matrix(1 0 0 1 366.9338 158.7787)" class="st0 st1 st2">N</text>
<text transform="matrix(1 0 0 1 372.3088 158.7787)" class="st0 st1 st2">H</text>
<text transform="matrix(1 0 0 1 377.6819 159.9232)" class="st0 st1 st5">2</text>
<polygon points="352.4,157.4 343.6,143.5 343.7,143.1 344.1,143.1 352.9,157.1 352.8,157.4 "/>
<polygon points="326.5,143.8 322.1,131.8 322.4,131.7 322.7,131.6 327.1,143.5 326.9,143.8 "/>
<polygon points="291.2,133.9 291.9,133.9 291.9,134.2 291.9,134.6 291.2,134.6 291.2,134.3 "/>
<polygon points="291.1,136 292.2,135.9 292.2,136.3 292.2,136.6 291.1,136.7 291.1,136.3 "/>
<polygon points="291,138.1 292.5,138 292.5,138.3 292.5,138.7 291,138.7 291,138.4 "/>
<polygon points="290.9,140.1 292.7,140.1 292.7,140.4 292.7,140.7 290.9,140.8 290.9,140.5 "/>
<polygon points="290.8,142.2 293,142.1 293,142.5 293,142.8 290.8,142.9 290.8,142.5 "/>
<polygon points="290.7,144.3 293.3,144.2 293.3,144.5 293.3,144.8 290.7,145 290.7,144.6 "/>
<polygon points="290.6,146.3 293.5,146.2 293.5,146.6 293.6,146.9 290.6,147 290.6,146.7 "/>
<text transform="matrix(1 0 0 1 289.3196 153.7269)" class="st3 st1 st2">O</text>
<text transform="matrix(1 0 0 1 295.1077 153.7269)" class="st3 st1 st2">H</text>
<polygon points="277.5,124.9 265.8,130.4 265.2,129 264.7,127.6 277.2,124.2 277.5,124.5 "/>
<text transform="matrix(1 0 0 1 253.4094 133.348)" class="st3 st1 st2">H</text>
<text transform="matrix(1 0 0 1 258.7825 133.348)" class="st3 st1 st2">O</text>
<polygon points="532.4,168.2 526.1,157.1 526.4,156.9 526.7,156.8 532.8,167.5 532.6,167.9 "/>
<polygon points="533.5,166 527.9,156.1 528.2,155.9 528.4,155.8 534.1,165.7 533.8,165.9 "/>
<text transform="matrix(1 0 0 1 521.5837 156.1976)" class="st0 st1 st2">N</text>
<polygon points="526.2,149.3 532.5,138.6 532.8,138.6 533,139 526.8,149.6 526.5,149.4 "/>
<polygon points="533.1,138.3 549.5,138.5 549.7,138.8 549.5,139.1 533,139 532.8,138.6 "/>
<polygon points="534,140.3 548.5,140.5 548.5,140.8 548.5,141.1 534,141 534,140.7 "/>
<polygon points="550.1,138.8 558.2,153.1 558,153.5 557.6,153.5 549.5,139.1 549.7,138.8 "/>
<polygon points="558.2,153.8 552,164.4 551.7,164.3 551.4,164.1 557.6,153.5 558,153.5 "/>
<polygon points="556,153.6 550.2,163.4 549.9,163.2 549.6,163.1 555.4,153.3 555.7,153.5 "/>
<text transform="matrix(1 0 0 1 546.7673 171.0355)" class="st0 st1 st2">N</text>
<polygon points="546.1,168.3 532.4,168.2 532.6,167.9 532.8,167.5 546.1,167.7 546.1,168 "/>
<polygon points="558.2,153.1 570.7,153.3 570.7,153.6 570.7,153.9 558.2,153.8 558,153.5 "/>
<text transform="matrix(1 0 0 1 571.3826 156.6439)" class="st6 st1 st2">Cl</text>
<polygon points="549.5,138.5 553.5,126.4 553.8,126.5 554.1,126.6 550.1,138.8 549.7,138.8 "/>
<text transform="matrix(1 0 0 1 552.3806 125.8011)" class="st0 st1 st2">N</text>
<polygon points="550.3,122.2 541.3,115.5 541.5,115.3 541.7,115 550.7,121.7 550.5,121.9 "/>
<polygon points="551.5,120.6 541.5,113.2 541.5,112.8 541.5,112.3 551.9,120 551.7,120.3 "/>
<polygon points="541.5,113.2 531.3,120.4 531.1,120.2 530.9,119.9 541.5,112.3 541.5,112.8 "/>
<text transform="matrix(1 0 0 1 525.0779 125.5638)" class="st0 st1 st2">N</text>
<polygon points="512,116.9 524.9,120 524.4,121.4 523.9,122.9 511.8,117.6 511.8,117.2 "/>
<polygon points="511.8,117.6 498.2,127.3 498,127 498,126.6 511.4,117.1 511.8,117.2 "/>
<polygon points="497.8,127.3 484.4,117.3 484.5,117 484.9,116.8 498,126.6 498,127 "/>
<polygon points="484.2,116.7 489.5,100.8 489.8,100.9 490.1,101.3 484.9,116.8 484.5,117 "/>
<polygon points="489.8,100.6 503.1,100.7 503.1,101.1 503.1,101.4 490.1,101.3 489.8,100.9 "/>
<text transform="matrix(1 0 0 1 503.7917 104.1117)" class="st3 st1 st2">O</text>
<polygon points="508.2,104.8 512,116.9 511.8,117.2 511.4,117.1 507.5,105 507.9,104.9 "/>
<polygon points="490.1,100.7 489.5,101.1 489.3,100.9 489.1,100.6 489.7,100.2 489.9,100.4 "/>
<polygon points="489,99 488.2,99.6 488,99.3 487.8,99 488.6,98.4 488.8,98.7 "/>
<polygon points="488,97.3 486.9,98 486.7,97.7 486.5,97.5 487.6,96.7 487.8,97 "/>
<polygon points="486.9,95.5 485.6,96.4 485.4,96.2 485.2,95.9 486.5,95 486.7,95.3 "/>
<polygon points="485.9,93.8 484.3,94.9 484.1,94.6 483.9,94.3 485.5,93.2 485.7,93.5 "/>
<polygon points="484.8,92.1 483.1,93.3 482.9,93 482.7,92.8 484.4,91.5 484.6,91.8 "/>
<polygon points="483.7,90.3 481.8,91.8 481.6,91.5 481.4,91.2 483.3,89.8 483.5,90.1 "/>
<polygon points="482.7,88.6 480.5,90.2 480.3,89.9 480.1,89.6 482.3,88.1 482.5,88.3 "/>
<polygon points="481.6,86.9 479.2,88.6 479,88.4 478.8,88.1 481.2,86.3 481.4,86.6 "/>
<polygon points="479.5,87.6 485,75.5 485.3,75.6 485.6,75.7 480.6,86.8 480,87.2 "/>
<text transform="matrix(1 0 0 1 484.116 74.8675)" class="st3 st1 st2">O</text>
<polygon points="484.1,68.3 479.6,62.1 479.9,61.9 480.2,61.7 484.6,67.9 484.3,68.1 "/>
<text transform="matrix(1 0 0 1 474.7332 61.1302)" class="st4 st1 st2">P</text>
<polygon points="479.6,54.8 486.6,49.8 486.8,50 487,50.3 480,55.3 479.8,55 "/>
<polygon points="480.8,56.4 487.8,51.4 488,51.7 488.2,52 481.2,57 481,56.7 "/>
<text transform="matrix(1 0 0 1 488.0574 51.3294)" class="st3 st1 st2">O</text>
<polygon points="474.3,60.6 467.2,65.6 467,65.4 466.8,65.1 473.9,60.1 474.1,60.4 "/>
<text transform="matrix(1 0 0 1 455.2048 70.929)" class="st3 st1 st2">H</text>
<text transform="matrix(1 0 0 1 460.5798 70.929)" class="st3 st1 st2">O</text>
<polygon points="474.3,54.6 469.8,48.3 470.1,48.1 470.4,47.9 474.8,54.2 474.5,54.4 "/>
<text transform="matrix(1 0 0 1 459.1462 47.39)" class="st3 st1 st2">H</text>
<text transform="matrix(1 0 0 1 464.5212 47.39)" class="st3 st1 st2">O</text>
<polygon points="484.4,117.3 472.4,122.4 471.9,120.9 471.5,119.5 484.2,116.7 484.5,117 "/>
<text transform="matrix(1 0 0 1 460.0925 125.0404)" class="st3 st1 st2">H</text>
<text transform="matrix(1 0 0 1 465.4675 125.0404)" class="st3 st1 st2">O</text>
<polygon points="497.6,127 498.4,127 498.4,127.4 498.4,127.7 497.6,127.7 497.6,127.4 "/>
<polygon points="497.4,129.1 498.6,129.1 498.6,129.5 498.6,129.8 497.4,129.8 497.4,129.4 "/>
<polygon points="497.2,131.2 498.7,131.2 498.7,131.5 498.7,131.9 497.2,131.8 497.2,131.5 "/>
<polygon points="497,133.2 498.9,133.2 498.9,133.6 498.9,133.9 497,133.9 497,133.6 "/>
<polygon points="496.8,135.3 499.1,135.3 499.1,135.7 499.1,136 496.8,136 496.8,135.6 "/>
<polygon points="496.6,137.4 499.2,137.4 499.2,137.7 499.2,138.1 496.6,138 496.6,137.7 "/>
<polygon points="496.4,139.4 499.4,139.5 499.4,139.8 499.4,140.1 496.4,140.1 496.4,139.8 "/>
<text transform="matrix(1 0 0 1 494.9763 146.8812)" class="st3 st1 st2">O</text>
<text transform="matrix(1 0 0 1 500.7644 146.8812)" class="st3 st1 st2">H</text>
<polygon points="529.3,126.2 533.1,138.3 532.8,138.6 532.5,138.6 528.6,126.4 528.9,126.3 "/>
<polygon points="672.4,168.2 658.7,168.3 658.7,168 658.7,167.7 672,167.5 672.2,167.8 "/>
<polygon points="671,166.2 658.7,166.3 658.7,166 658.7,165.6 671,165.5 671,165.8 "/>
<text transform="matrix(1 0 0 1 652.6697 171.0531)" class="st0 st1 st2">N</text>
<polygon points="652.8,164.5 646.4,153.5 646.7,153.5 647.1,153.5 653.4,164.1 653.1,164.3 "/>
<polygon points="647.3,154.9 633,155 633,154.7 633,154.4 647.3,154.2 647.3,154.5 "/>
<polygon points="647.3,152.8 633,153 633,152.7 633,152.3 647.3,152.2 647.3,152.5 "/>
<text transform="matrix(1 0 0 1 627.3914 156.7367)" class="st7 st1 st2">S</text>
<polygon points="646.4,153.5 654.6,138.8 655,138.8 655.2,139.1 647.1,153.5 646.7,153.5 "/>
<polygon points="655.3,138.5 671.6,138.3 671.9,138.6 671.7,139 655.2,139.1 655,138.8 "/>
<polygon points="656.2,140.5 670.7,140.3 670.7,140.7 670.7,141 656.2,141.2 656.2,140.8 "/>
<polygon points="672.3,138.6 678.6,149.2 678.3,149.4 678,149.5 671.7,139 671.9,138.6 "/>
<text transform="matrix(1 0 0 1 677.8103 156.1429)" class="st0 st1 st2">N</text>
<text transform="matrix(1 0 0 1 683.1843 156.1429)" class="st0 st1 st2">H</text>
<polygon points="678.7,157 672.4,168.2 672.2,167.8 672,167.5 678.1,156.7 678.4,156.9 "/>
<polygon points="671.6,138.3 675.4,126.2 675.7,126.3 676.1,126.4 672.3,138.6 671.9,138.6 "/>
<text transform="matrix(1 0 0 1 674.2263 125.5199)" class="st0 st1 st2">N</text>
<polygon points="673.4,120.4 663.2,113.2 663.1,112.7 663.1,112.3 673.7,119.8 673.6,120.1 "/>
<polygon points="663.4,115.5 654.4,122.2 654.2,121.9 654,121.7 663,115 663.2,115.2 "/>
<polygon points="663.2,113.2 653.2,120.6 653,120.3 652.8,120.1 663.1,112.3 663.1,112.7 "/>
<text transform="matrix(1 0 0 1 646.9246 125.8372)" class="st0 st1 st2">N</text>
<polygon points="651.2,126.5 655.3,138.5 655,138.8 654.6,138.8 650.6,126.7 650.9,126.6 "/>
<polygon points="680.2,121 692.6,116.8 692.9,117.1 692.8,117.5 680.4,121.7 680.3,121.4 "/>
<polygon points="692.6,116.8 697.6,101.1 697.9,101 698.2,101.3 693.3,117 692.9,117.1 "/>
<polygon points="698.1,100.7 714.6,100.5 714.8,100.8 714.6,101.1 698.2,101.3 697.9,101 "/>
<polygon points="715.2,100.8 720.5,116.5 720.2,116.8 719.8,116.7 714.6,101.1 714.8,100.8 "/>
<polygon points="720.3,117.2 710.4,124.5 710.2,124.2 710,123.9 719.8,116.7 720.2,116.8 "/>
<text transform="matrix(1 0 0 1 703.7761 129.8734)" class="st3 st1 st2">O</text>
<polygon points="702.9,124.6 692.8,117.5 692.9,117.1 693.3,117 703.3,124.1 703.1,124.3 "/>
<polygon points="720.5,116.5 736.2,121.4 736.3,121.8 736.4,122.2 720.3,117.2 720.2,116.8 "/>
<polygon points="736.2,121.4 744.9,113.4 745.2,113.7 745.4,113.9 736.4,122.2 736.3,121.8 "/>
<text transform="matrix(1 0 0 1 745.8298 113.3841)" class="st3 st1 st2">O</text>
<polygon points="752.4,111.2 761.8,114.1 761.7,114.4 761.6,114.7 752.2,111.8 752.3,111.5 "/>
<text transform="matrix(1 0 0 1 762.3513 118.4105)" class="st4 st1 st2">P</text>
<polygon points="764.7,111.2 767.4,102.6 767.7,102.7 768,102.8 765.4,111.4 765,111.3 "/>
<polygon points="766.6,111.8 769.3,103.2 769.7,103.3 770,103.4 767.3,112 767,111.9 "/>
<text transform="matrix(1 0 0 1 766.9626 102.3011)" class="st3 st1 st2">O</text>
<polygon points="764,119.3 761.3,127.9 761,127.8 760.7,127.7 763.3,119 763.7,119.1 "/>
<text transform="matrix(1 0 0 1 751.5369 134.5199)" class="st3 st1 st2">H</text>
<text transform="matrix(1 0 0 1 756.9119 134.5199)" class="st3 st1 st2">O</text>
<polygon points="768.1,116.1 777.5,119 777.4,119.3 777.3,119.6 767.9,116.7 768,116.4 "/>
<text transform="matrix(1 0 0 1 778.0476 123.4369)" class="st3 st1 st2">O</text>
<text transform="matrix(1 0 0 1 783.8367 123.4369)" class="st3 st1 st2">H</text>
<polygon points="714.6,100.5 721.6,90.6 721.9,90.8 722.2,91 715.2,100.8 714.8,100.8 "/>
<text transform="matrix(1 0 0 1 721.6677 90.0423)" class="st3 st1 st2">O</text>
<text transform="matrix(1 0 0 1 727.4548 90.0423)" class="st3 st1 st2">H</text>
<polygon points="697.6,101.1 690.4,91.4 690.6,91.2 690.9,91 698.1,100.7 697.9,101 "/>
<text transform="matrix(1 0 0 1 679.5798 90.471)" class="st3 st1 st2">H</text>
<text transform="matrix(1 0 0 1 684.9548 90.471)" class="st3 st1 st2">O</text>
<polygon points="164.1,359.7 158.1,348.6 158.4,348.4 158.7,348.3 164.7,359.4 164.4,359.5 "/>
<text transform="matrix(1 0 0 1 153.9407 347.6722)" class="st7 st1 st2">S</text>
<polygon points="153.3,344.9 139.7,344.4 139.6,344.1 139.8,343.8 153.3,344.2 153.3,344.6 "/>
<polygon points="139.7,344.4 133.3,354.9 133,354.7 132.7,354.5 139.2,344.1 139.6,344.1 "/>
<polygon points="137.5,344.2 131.5,353.8 131.3,353.6 131,353.4 136.9,343.8 137.2,344 "/>
<text transform="matrix(1 0 0 1 127.9534 361.4456)" class="st0 st1 st2">N</text>
<polygon points="127.3,358.7 113.6,358.2 113.8,357.9 114,357.5 127.3,358 127.3,358.3 "/>
<polygon points="113.6,358.2 107.5,346.9 107.8,346.7 108.1,346.6 114,357.5 113.8,357.9 "/>
<polygon points="114.7,356 109.3,345.9 109.6,345.8 109.9,345.6 115.3,355.7 115,355.9 "/>
<text transform="matrix(1 0 0 1 103.136 346.0042)" class="st0 st1 st2">N</text>
<polygon points="107.9,339.1 114.4,328.6 114.7,328.7 114.9,329 108.4,339.4 108.2,339.2 "/>
<polygon points="115,328.3 131.4,328.9 131.6,329.2 131.4,329.5 114.9,329 114.7,328.7 "/>
<polygon points="115.9,330.4 130.4,330.9 130.4,331.2 130.4,331.5 115.8,331.1 115.8,330.7 "/>
<polygon points="131.4,328.9 135.7,317 136,317.1 136.3,317.2 132,329.2 131.6,329.2 "/>
<text transform="matrix(1 0 0 1 134.6575 316.3626)" class="st0 st1 st2">N</text>
<polygon points="132.5,312.6 123.7,305.8 123.9,305.5 124.2,305.2 132.9,312.1 132.7,312.3 "/>
<polygon points="133.8,311 124,303.4 124,303 124,302.6 134.2,310.5 134,310.7 "/>
<polygon points="124,303.4 113.6,310.5 113.4,310.2 113.2,309.9 124,302.6 124,303 "/>
<text transform="matrix(1 0 0 1 107.3684 315.4622)" class="st0 st1 st2">N</text>
<polygon points="94.5,306.4 107.2,309.8 106.7,311.2 106.2,312.7 94.2,307.1 94.2,306.7 "/>
<polygon points="94.2,307.1 80.4,316.5 80.2,316.2 80.2,315.8 93.8,306.6 94.2,306.7 "/>
<polygon points="80,316.4 66.7,306.1 66.9,305.8 67.3,305.7 80.2,315.8 80.2,316.2 "/>
<polygon points="66.6,305.7 72.3,290 72.6,289.9 72.9,290.3 67.3,305.7 66.9,305.8 "/>
<polygon points="72.8,289.6 85.9,290 85.9,290.4 85.9,290.7 72.9,290.3 72.6,289.9 "/>
<text transform="matrix(1 0 0 1 86.6067 293.5081)" class="st3 st1 st2">O</text>
<polygon points="90.9,294.2 94.5,306.4 94.2,306.7 93.8,306.6 90.3,294.3 90.6,294.2 "/>
<polygon points="72.3,290 62.2,277.2 63.2,276 64.2,274.7 72.8,289.6 72.6,289.9 "/>
<polygon points="62.2,277.2 68.4,264.4 68.7,264.5 69,264.7 64.2,274.7 63.2,276 "/>
<text transform="matrix(1 0 0 1 67.6448 263.7982)" class="st3 st1 st2">O</text>
<polygon points="67.7,257.2 63.3,250.8 63.6,250.6 63.9,250.4 68.3,256.8 68,257 "/>
<text transform="matrix(1 0 0 1 58.593 249.8265)" class="st4 st1 st2">P</text>
<polygon points="63.5,243.6 70.7,238.6 70.9,238.9 71.1,239.2 63.9,244.1 63.7,243.8 "/>
<polygon points="64.6,245.2 71.9,240.3 72,240.6 72.2,240.9 65,245.8 64.8,245.5 "/>
<text transform="matrix(1 0 0 1 72.1516 240.3626)" class="st3 st1 st2">O</text>
<polygon points="58.1,249.2 50.9,254.1 50.7,253.9 50.5,253.6 57.7,248.7 57.9,249 "/>
<text transform="matrix(1 0 0 1 38.8362 259.2923)" class="st3 st1 st2">H</text>
<text transform="matrix(1 0 0 1 44.2092 259.2923)" class="st3 st1 st2">O</text>
<polygon points="58.3,243.2 53.9,236.8 54.2,236.6 54.4,236.4 58.8,242.9 58.5,243.1 "/>
<text transform="matrix(1 0 0 1 43.344 235.8558)" class="st3 st1 st2">H</text>
<text transform="matrix(1 0 0 1 48.719 235.8558)" class="st3 st1 st2">O</text>
<polygon points="66.7,305.5 66.9,306.2 66.6,306.3 66.3,306.4 66.1,305.7 66.4,305.6 "/>
<polygon points="65,305.8 65.3,306.8 65,306.9 64.6,307 64.3,306 64.7,305.9 "/>
<polygon points="63.2,306.1 63.6,307.5 63.3,307.6 63,307.7 62.6,306.3 62.9,306.2 "/>
<polygon points="61.5,306.5 62,308.1 61.6,308.2 61.3,308.3 60.8,306.7 61.2,306.6 "/>
<polygon points="59.7,306.8 60.3,308.8 60,308.9 59.7,309 59.1,307 59.4,306.9 "/>
<polygon points="58,307.2 58.6,309.4 58.3,309.5 58,309.6 57.3,307.4 57.7,307.3 "/>
<polygon points="56.2,307.5 57,310.1 56.7,310.2 56.3,310.2 55.6,307.7 55.9,307.6 "/>
<polygon points="54.5,307.8 55.3,310.7 55,310.8 54.7,310.9 53.8,308 54.2,307.9 "/>
<text transform="matrix(1 0 0 1 42.4153 313.5062)" class="st3 st1 st2">H</text>
<text transform="matrix(1 0 0 1 47.7893 313.5062)" class="st3 st1 st2">O</text>
<polygon points="79.8,316.2 80.6,316.2 80.6,316.6 80.6,316.9 79.8,316.9 79.8,316.5 "/>
<polygon points="79.6,318.3 80.7,318.3 80.7,318.6 80.7,319 79.6,318.9 79.6,318.6 "/>
<polygon points="79.3,320.3 80.8,320.4 80.8,320.7 80.8,321.1 79.3,321 79.3,320.7 "/>
<polygon points="79.1,322.4 80.9,322.4 80.9,322.8 80.9,323.1 79.1,323.1 79.1,322.7 "/>
<polygon points="78.8,324.4 81.1,324.5 81,324.9 81,325.2 78.8,325.1 78.8,324.8 "/>
<polygon points="78.6,326.5 81.2,326.6 81.2,326.9 81.2,327.3 78.5,327.2 78.6,326.8 "/>
<polygon points="78.3,328.6 81.3,328.7 81.3,329 81.3,329.3 78.3,329.2 78.3,328.9 "/>
<text transform="matrix(1 0 0 1 76.762 336.0521)" class="st3 st1 st2">O</text>
<text transform="matrix(1 0 0 1 82.55 336.0521)" class="st3 st1 st2">H</text>
<polygon points="111.5,316.1 115,328.3 114.7,328.7 114.4,328.6 110.8,316.3 111.1,316.2 "/>
<polygon points="132,329.2 139.8,343.8 139.6,344.1 139.2,344.1 131.4,329.5 131.6,329.2 "/>
<polygon points="308.7,293.6 300.1,300.6 299.9,300.3 299.7,300.1 308.3,293.1 308.5,293.4 "/>
<polygon points="308.4,291.3 298.9,299 298.6,298.7 298.4,298.5 308.4,290.4 308.4,290.9 "/>
<text transform="matrix(1 0 0 1 292.5901 304.471)" class="st0 st1 st2">N</text>
<polygon points="297,305.1 301.5,316.9 301.3,317.2 300.9,317.2 296.4,305.3 296.7,305.2 "/>
<polygon points="301.5,317.5 294,332.2 293.6,332.2 293.4,331.9 300.9,317.2 301.3,317.2 "/>
<polygon points="299.4,317.3 292.7,330.4 292.4,330.3 292.1,330.1 298.8,316.9 299.1,317.1 "/>
<polygon points="294,332.2 300.7,342.5 300.4,342.7 300.1,342.8 293.4,332.6 293.6,332.2 "/>
<text transform="matrix(1 0 0 1 300.1145 349.4232)" class="st0 st1 st2">N</text>
<polygon points="306,343.9 318.4,343.2 318.4,343.6 318.4,343.9 306.1,344.6 306.1,344.2 "/>
<polygon points="306.1,345.9 319.4,345.2 319.7,345.5 319.5,345.9 306.2,346.6 306.2,346.2 "/>
<polygon points="319.4,345.2 325.1,334.1 325.4,334.3 325.7,334.4 320,345.5 319.7,345.5 "/>
<text transform="matrix(1 0 0 1 324.6467 333.5326)" class="st0 st1 st2">N</text>
<polygon points="322.9,328.1 316.8,318.6 317.1,318.4 317.4,318.3 323.5,327.7 323.2,327.9 "/>
<polygon points="324.6,326.9 318,316.7 318.2,316.4 318.5,316.3 325.2,326.6 324.9,326.8 "/>
<polygon points="317.9,316 321.2,303.7 321.5,303.8 321.9,303.9 318.5,316.3 318.2,316.4 "/>
<text transform="matrix(1 0 0 1 319.8577 303.0746)" class="st0 st1 st2">N</text>
<polygon points="338.3,294.4 326.5,300.2 325.9,298.8 325.4,297.4 338,293.8 338.3,294 "/>
<polygon points="338,293.8 342.3,277.8 342.7,277.7 343,278.1 338.7,293.9 338.3,294 "/>
<polygon points="342.9,277.4 359.5,276.5 359.5,276.9 359.3,277.2 343,278.1 342.7,277.7 "/>
<polygon points="359.9,276.8 365.8,292.3 365.6,292.6 365.2,292.5 359.3,277.2 359.5,276.9 "/>
<polygon points="365.6,293 356.2,300.6 356,300.4 355.8,300.1 365.2,292.5 365.6,292.6 "/>
<text transform="matrix(1 0 0 1 349.5559 306.2523)" class="st3 st1 st2">O</text>
<polygon points="348.7,301.2 338.3,294.4 338.3,294 338.7,293.9 349.1,300.6 348.9,300.9 "/>
<polygon points="365.8,292.3 382.8,295.7 381.9,297 381,298.3 365.6,293 365.6,292.6 "/>
<polygon points="382.8,295.7 390,288.4 390.3,288.7 390.5,288.9 381,298.3 381.9,297 "/>
<text transform="matrix(1 0 0 1 390.926 288.1146)" class="st3 st1 st2">O</text>
<text transform="matrix(1 0 0 1 396.7156 288.1146)" class="st3 st1 st2">H</text>
<polygon points="359.9,277 359.3,276.6 359.4,276.3 359.6,276.1 360.3,276.5 360.1,276.7 "/>
<polygon points="361.1,275.5 360.2,274.9 360.4,274.6 360.5,274.3 361.5,274.9 361.3,275.2 "/>
<polygon points="362.3,274 361.1,273.2 361.3,272.9 361.4,272.6 362.7,273.4 362.5,273.7 "/>
<polygon points="363.5,272.4 362,271.4 362.2,271.1 362.4,270.9 363.9,271.9 363.7,272.2 "/>
<polygon points="364.8,270.9 362.9,269.7 363.1,269.4 363.3,269.1 365.1,270.4 364.9,270.6 "/>
<polygon points="366,269.4 363.8,268 364,267.7 364.2,267.4 366.3,268.8 366.2,269.1 "/>
<polygon points="367.2,267.9 364.7,266.2 364.9,266 365.1,265.7 367.6,267.3 367.4,267.6 "/>
<text transform="matrix(1 0 0 1 365.8625 265.7425)" class="st3 st1 st2">O</text>
<text transform="matrix(1 0 0 1 371.6506 265.7425)" class="st3 st1 st2">H</text>
<polygon points="342.3,277.8 333.9,269.3 335.1,268.4 336.3,267.4 342.9,277.4 342.7,277.7 "/>
<text transform="matrix(1 0 0 1 323.8215 267.6224)" class="st3 st1 st2">H</text>
<text transform="matrix(1 0 0 1 329.1965 267.6224)" class="st3 st1 st2">O</text>
<polygon points="319,298.2 308.4,291.3 308.4,290.9 308.4,290.4 319.4,297.6 319.2,297.9 "/>
<polygon points="318,316.7 301.5,317.5 301.3,317.2 301.5,316.9 317.9,316 318.2,316.4 "/>
<polygon points="320,345.5 326.7,355.8 326.4,356 326.1,356.1 319.5,345.9 319.7,345.5 "/>
<text transform="matrix(1 0 0 1 326.5559 362.724)" class="st8 st1 st2">F</text>
<polygon points="293.4,332.6 280.2,333.3 280.1,332.9 280.1,332.6 293.4,331.9 293.6,332.2 "/>
<text transform="matrix(1 0 0 1 266.2307 335.1644)" class="st0 st1 st2">H</text>
<text transform="matrix(1 0 0 1 271.6047 336.3089)" class="st0 st1 st5">2</text>
<text transform="matrix(1 0 0 1 274.1526 335.1644)" class="st0 st1 st2">N</text>
<polygon points="525.6,359.9 519.2,348.9 519.4,348.7 519.7,348.6 526,359.2 525.8,359.5 "/>
<polygon points="526.7,357.7 520.9,347.9 521.2,347.7 521.5,347.6 527.2,357.3 526.9,357.5 "/>
<text transform="matrix(1 0 0 1 514.5535 348.0062)" class="st0 st1 st2">N</text>
<polygon points="519.1,341.1 525.2,330.3 525.6,330.3 525.8,330.7 519.7,341.4 519.4,341.2 "/>
<polygon points="525.8,330 542.2,329.9 542.4,330.2 542.2,330.5 525.8,330.7 525.6,330.3 "/>
<polygon points="526.7,332 541.3,331.9 541.3,332.2 541.3,332.6 526.8,332.7 526.8,332.3 "/>
<polygon points="542.8,330.1 551.2,344.4 551,344.7 550.6,344.7 542.2,330.5 542.4,330.2 "/>
<polygon points="551.2,345.1 545.1,355.8 544.8,355.7 544.5,355.5 550.6,344.7 551,344.7 "/>
<polygon points="548.9,344.9 543.3,354.8 543,354.7 542.7,354.5 548.4,344.6 548.7,344.8 "/>
<text transform="matrix(1 0 0 1 539.9773 362.43)" class="st0 st1 st2">N</text>
<polygon points="539.3,359.8 525.6,359.9 525.8,359.5 526,359.2 539.3,359.1 539.3,359.4 "/>
<polygon points="551.2,344.4 564.5,344.3 564.5,344.6 564.5,345 551.2,345.1 551,344.7 "/>
<text transform="matrix(1 0 0 1 565.1785 346.6654)" class="st0 st1 st2">N</text>
<text transform="matrix(1 0 0 1 570.5525 346.6654)" class="st0 st1 st2">H</text>
<text transform="matrix(1 0 0 1 575.9275 347.8099)" class="st0 st1 st5">2</text>
<polygon points="542.2,329.9 546,317.7 546.3,317.9 546.7,318 542.8,330.1 542.4,330.2 "/>
<text transform="matrix(1 0 0 1 544.8494 317.1117)" class="st0 st1 st2">N</text>
<polygon points="542.8,313.6 533.6,307.1 533.8,306.8 534,306.5 543.2,313.1 543,313.3 "/>
<polygon points="544,312 533.8,304.7 533.8,304.3 533.8,303.9 544.4,311.4 544.2,311.7 "/>
<polygon points="533.8,304.7 523.8,312.1 523.6,311.8 523.4,311.6 533.8,303.9 533.8,304.3 "/>
<text transform="matrix(1 0 0 1 517.5447 317.3197)" class="st0 st1 st2">N</text>
<polygon points="516.8,313.6 507.6,310.7 507.7,310.3 507.8,310 517,312.9 516.9,313.2 "/>
<text transform="matrix(1 0 0 1 501.2488 312.2259)" class="st3 st1 st2">O</text>
<polygon points="500.9,292.8 504.8,305.1 503.3,305.5 501.8,305.8 500.2,293 500.5,292.7 "/>
<polygon points="500.2,293 485.1,286.4 485,286 485.4,285.8 500.4,292.3 500.5,292.7 "/>
<polygon points="484.7,285.8 486.3,269.2 486.7,269.2 487,269.5 485.4,285.8 485,286 "/>
<polygon points="486.6,268.9 502.9,265.3 503.2,265.6 503,265.9 487,269.5 486.7,269.2 "/>
<polygon points="503.5,265.5 509.8,276.2 509.5,276.4 509.2,276.5 503,265.9 503.2,265.6 "/>
<text transform="matrix(1 0 0 1 508.8113 283.1195)" class="st3 st1 st2">O</text>
<polygon points="508.6,284.1 500.9,292.8 500.5,292.7 500.4,292.3 508.1,283.6 508.4,283.9 "/>
<polygon points="502.9,265.3 508.7,249.1 509.9,250.1 511.1,251.1 503.5,265.5 503.2,265.6 "/>
<polygon points="508.7,249.1 517.8,253.9 517.7,254.2 517.5,254.5 511.1,251.1 509.9,250.1 "/>
<text transform="matrix(1 0 0 1 518.3582 259.0628)" class="st3 st1 st2">O</text>
<polygon points="524.7,253.9 533.2,249.3 533.4,249.6 533.6,249.9 525,254.4 524.8,254.2 "/>
<text transform="matrix(1 0 0 1 534.0681 250.9212)" class="st4 st1 st2">P</text>
<polygon points="538.9,251.3 541.2,260.1 540.9,260.2 540.6,260.3 538.2,251.5 538.5,251.4 "/>
<polygon points="536.9,251.8 539.3,260.6 538.9,260.7 538.6,260.8 536.3,252 536.6,251.9 "/>
<text transform="matrix(1 0 0 1 538.0222 267.222)" class="st3 st1 st2">O</text>
<polygon points="536.2,244.2 536.2,234.8 536.5,234.8 536.9,234.8 536.9,244.2 536.5,244.2 "/>
<text transform="matrix(1 0 0 1 533.655 234.0453)" class="st3 st1 st2">O</text>
<text transform="matrix(1 0 0 1 539.4421 234.0453)" class="st3 st1 st2">H</text>
<polygon points="539.8,248.4 549.4,251 549.3,251.3 549.2,251.6 539.6,249.1 539.7,248.8 "/>
<text transform="matrix(1 0 0 1 549.9548 255.2894)" class="st3 st1 st2">O</text>
<text transform="matrix(1 0 0 1 555.7439 255.2894)" class="st3 st1 st2">H</text>
<polygon points="486.9,268.9 486.4,269.4 486.1,269.2 485.9,269 486.4,268.4 486.6,268.6 "/>
<polygon points="485.6,267.5 484.8,268.3 484.6,268.1 484.3,267.9 485.1,267 485.3,267.3 "/>
<polygon points="484.3,266.1 483.3,267.2 483.1,267 482.8,266.7 483.8,265.6 484,265.9 "/>
<polygon points="483,264.7 481.8,266.1 481.5,265.9 481.3,265.6 482.5,264.2 482.7,264.5 "/>
<polygon points="481.7,263.3 480.2,265 480,264.7 479.7,264.5 481.2,262.8 481.4,263.1 "/>
<polygon points="480.4,261.9 478.7,263.8 478.4,263.6 478.2,263.4 479.9,261.4 480.2,261.7 "/>
<polygon points="479.1,260.5 477.1,262.7 476.9,262.5 476.6,262.3 478.6,260 478.9,260.3 "/>
<text transform="matrix(1 0 0 1 465.7839 261.0062)" class="st3 st1 st2">H</text>
<text transform="matrix(1 0 0 1 471.157 261.0062)" class="st3 st1 st2">O</text>
<polygon points="485.1,286.4 474.8,293.7 474.1,292.4 473.3,291.1 484.7,285.8 485,286 "/>
<text transform="matrix(1 0 0 1 462.2214 297.5462)" class="st3 st1 st2">H</text>
<text transform="matrix(1 0 0 1 467.5964 297.5462)" class="st3 st1 st2">O</text>
<polygon points="521.8,318 525.8,330 525.6,330.3 525.2,330.3 521.2,318.2 521.5,318.1 "/>
<text transform="matrix(1 0 0 1 92.3594 51.2464)" class="st1 st9">1</text>
<text transform="matrix(1 0 0 1 305.3115 48.5306)" class="st1 st9">2</text>
<text transform="matrix(1 0 0 1 524.8841 48.5308)" class="st1 st9">3</text>
<text transform="matrix(1 0 0 1 703.1501 48.7227)" class="st1 st9">4</text>
<text transform="matrix(1 0 0 1 92.9344 221.7672)" class="st1 st9">5</text>
<text transform="matrix(1 0 0 1 313.8758 214.4673)" class="st1 st9">6</text>
<text transform="matrix(1 0 0 1 532.3815 210.1871)" class="st1 st9">7</text>
<text transform="matrix(1 0 0 1 714.5615 210.1871)" class="st1 st9">8</text>
</svg>
