<svg id="图层_1" data-name="图层 1" xmlns="http://www.w3.org/2000/svg" viewBox="0 0 200 130">
  <defs>
    <style>
      .cls-1, .cls-2 {
        isolation: isolate;
      }

      .cls-2 {
        font-size: 10.27px;
        font-family: ArialMT, Arial;
      }
    </style>
  </defs>
  <polygon points="84.16 15.11 102.14 29.91 102.05 30.45 101.55 30.63 83.98 16.17 84.07 15.64 84.16 15.11"/>
  <polygon points="83.84 18.47 99.33 31.22 99.03 31.58 98.73 31.94 83.24 19.19 83.54 18.83 83.84 18.47"/>
  <polygon points="102.47 30.79 98.64 53.76 98.22 53.42 97.81 53.07 101.55 30.63 102.05 30.45 102.47 30.79"/>
  <polygon points="98.64 53.76 76.83 61.93 76.41 61.59 76.5 61.06 97.81 53.07 98.22 53.42 98.64 53.76"/>
  <polygon points="95.89 51.8 77.11 58.84 76.94 58.4 76.78 57.97 95.57 50.93 95.73 51.37 95.89 51.8"/>
  <polygon points="75.91 61.77 58.35 47.31 58.43 46.78 58.94 46.6 76.5 61.06 76.41 61.59 75.91 61.77"/>
  <polygon points="58.02 46.44 61.76 24 62.26 23.81 62.68 24.16 58.94 46.6 58.43 46.78 58.02 46.44"/>
  <polygon points="61 45.58 64.3 25.79 64.75 25.86 65.21 25.94 61.91 45.73 61.46 45.65 61 45.58"/>
  <polygon points="61.76 24 48.05 12.72 48.35 12.36 48.65 12 62.35 23.28 62.26 23.81 61.76 24"/>
  <g class="cls-1">
    <text class="cls-2" transform="translate(41.15 13.17)">F</text>
  </g>
  <polygon points="62.35 23.28 84.16 15.11 84.07 15.64 83.98 16.17 62.68 24.16 62.26 23.81 62.35 23.28"/>
  <polygon points="58.35 47.31 41.72 53.55 41.55 53.11 41.39 52.67 58.02 46.44 58.43 46.78 58.35 47.31"/>
  <g class="cls-1">
    <text class="cls-2" transform="translate(25.22 59.11)">H</text>
    <text class="cls-2" transform="translate(32.63 59.11)">O</text>
  </g>
  <polygon points="76.83 61.93 73.91 79.45 73.45 79.38 72.99 79.3 75.91 61.77 76.41 61.59 76.83 61.93"/>
  <g class="cls-1">
    <text class="cls-2" transform="translate(69.45 88.72)">F</text>
  </g>
  <polygon points="102.14 29.91 123.98 21.73 123.86 22.27 123.73 22.82 102.47 30.79 102.05 30.45 102.14 29.91"/>
  <polygon points="123.98 21.73 139.47 37.94 139.13 38.26 138.79 38.58 123.73 22.82 123.86 22.27 123.98 21.73"/>
  <polygon points="123.61 24.86 141.92 36.57 141.84 37.08 141.36 37.32 123.11 25.64 123.36 25.25 123.61 24.86"/>
  <polygon points="141.92 36.57 164.59 30.69 164.38 31.23 164.17 31.77 142.28 37.44 141.84 37.08 141.92 36.57"/>
  <polygon points="162.28 31.49 169.13 14.05 169.57 14.22 170 14.4 163.14 31.83 162.71 31.66 162.28 31.49"/>
  <polygon points="164.88 32.52 171.73 15.08 172.17 15.25 172.6 15.42 165.74 32.86 165.31 32.69 164.88 32.52"/>
  <g class="cls-1">
    <text class="cls-2" transform="translate(168.91 13.72)">O</text>
  </g>
  <polygon points="164.59 30.69 174 45.43 173.6 45.68 173.21 45.93 164.17 31.77 164.38 31.23 164.59 30.69"/>
  <g class="cls-1">
    <text class="cls-2" transform="translate(173.2 55.02)">N</text>
  </g>
  <polygon points="173 56.34 162.25 69.4 162.11 68.84 161.96 68.29 172.28 55.75 172.64 56.04 173 56.34"/>
  <polygon points="170.84 54.56 161.6 65.8 161.24 65.5 160.88 65.2 170.13 53.97 170.49 54.27 170.84 54.56"/>
  <polygon points="162.25 69.4 144.9 62.58 145.07 62.15 145.24 61.71 161.96 68.29 162.11 68.84 162.25 69.4"/>
  <g class="cls-1">
    <text class="cls-2" transform="translate(136.73 64.48)">N</text>
  </g>
  <polygon points="136.04 63.67 121.28 73.1 120.8 72.85 120.32 72.6 135.54 62.89 135.79 63.28 136.04 63.67"/>
  <polygon points="121.28 73.1 122.28 95.63 121.83 96.11 121.34 95.67 120.32 72.6 120.8 72.85 121.28 73.1"/>
  <polygon points="122.32 96.56 123.1 114.18 122.63 114.2 122.17 114.22 121.39 96.6 121.83 96.11 122.32 96.56"/>
  <g class="cls-1">
    <text class="cls-2" transform="translate(119.73 123.54)">F</text>
  </g>
  <polygon points="121.39 96.6 102.65 97.43 102.63 96.96 102.61 96.5 121.34 95.67 121.83 96.11 121.39 96.6"/>
  <g class="cls-1">
    <text class="cls-2" transform="translate(95.43 101.3)">F</text>
  </g>
  <polygon points="122.28 95.63 141.01 94.8 141.03 95.26 141.05 95.73 122.32 96.56 121.83 96.11 122.28 95.63"/>
  <g class="cls-1">
    <text class="cls-2" transform="translate(141.96 99.24)">F</text>
  </g>
  <polygon points="140.28 55.11 141.36 37.32 141.84 37.08 142.28 37.44 141.21 55.17 140.75 55.14 140.28 55.11"/>
</svg>
