<svg id="图层_1" data-name="图层 1" xmlns="http://www.w3.org/2000/svg" viewBox="0 0 200 130">
  <defs>
    <style>
      .cls-1, .cls-2 {
        isolation: isolate;
      }

      .cls-2 {
        font-size: 8.06px;
        font-family: ArialMT, Arial;
      }
    </style>
  </defs>
  <polygon points="121.04 80.91 114.99 68.54 115.32 68.38 115.65 68.22 121.7 80.59 121.37 80.75 121.04 80.91"/>
  <g class="cls-1">
    <text class="cls-2" transform="translate(110.41 67.58)">N</text>
  </g>
  <polygon points="115.18 60.07 121.5 48.23 121.94 48.17 122.18 48.5 115.82 60.41 115.5 60.24 115.18 60.07"/>
  <polygon points="118.98 48.8 111.01 40.56 111.27 40.31 111.53 40.05 119.51 48.29 119.25 48.54 118.98 48.8"/>
  <polygon points="121.5 48.23 112.59 39.04 112.86 38.78 113.12 38.53 122.08 47.78 121.94 48.17 121.5 48.23"/>
  <g class="cls-1">
    <text class="cls-2" transform="translate(106.28 38.28)">N</text>
  </g>
  <polygon points="105.71 37.12 93.11 43.24 92.71 43.03 92.69 42.63 105.39 36.46 105.55 36.79 105.71 37.12"/>
  <polygon points="90.59 44.66 76.5 34.88 76.51 34.44 76.52 34 91.01 44.06 90.8 44.36 90.59 44.66"/>
  <polygon points="92.38 43.29 76.46 37.15 76.59 36.81 76.73 36.47 92.69 42.63 92.71 43.03 92.38 43.29"/>
  <polygon points="76.5 34.88 61.33 44.33 60.95 44.13 60.94 43.71 76.52 34 76.51 34.44 76.5 34.88"/>
  <polygon points="58.62 45.79 44.67 38.4 44.84 38.07 45.01 37.75 58.97 45.15 58.8 45.47 58.62 45.79"/>
  <polygon points="60.59 44.35 44.77 35.96 44.75 35.54 44.74 35.12 60.94 43.71 60.95 44.13 60.59 44.35"/>
  <polygon points="44.77 35.96 29.57 45.43 29.19 45.23 29.18 44.81 44.74 35.12 44.75 35.54 44.77 35.96"/>
  <polygon points="29.57 45.43 30.19 63.28 29.83 63.51 29.46 63.31 28.83 45.45 29.19 45.23 29.57 45.43"/>
  <polygon points="27.4 46.56 27.95 62.3 27.59 62.31 27.22 62.33 26.67 46.59 27.04 46.57 27.4 46.56"/>
  <polygon points="30.19 63.28 46.02 71.67 46.03 72.09 45.67 72.31 29.85 63.93 29.83 63.51 30.19 63.28"/>
  <polygon points="45.75 69.25 59.15 60.9 59.34 61.21 59.54 61.52 46.14 69.87 45.94 69.56 45.75 69.25"/>
  <polygon points="46.02 71.67 61.22 62.2 61.59 62.4 61.96 62.6 46.4 72.29 46.03 72.09 46.02 71.67"/>
  <polygon points="61.22 62.2 60.59 44.35 60.95 44.13 61.33 44.33 61.96 62.6 61.59 62.4 61.22 62.2"/>
  <polygon points="46.4 72.29 46.89 86.28 46.53 86.3 46.16 86.31 45.67 72.31 46.03 72.09 46.4 72.29"/>
  <g class="cls-1">
    <text class="cls-2" transform="translate(44.2 93.63)">F</text>
  </g>
  <polygon points="29.85 63.93 18.35 71.09 18.15 70.78 17.96 70.47 29.46 63.31 29.83 63.51 29.85 63.93"/>
  <g class="cls-1">
    <text class="cls-2" transform="translate(5.28 76.46)">H</text>
    <text class="cls-2" transform="translate(11.13 76.46)">O</text>
  </g>
  <polygon points="28.83 45.45 16.03 38.67 16.2 38.34 16.37 38.02 29.18 44.81 29.19 45.23 28.83 45.45"/>
  <g class="cls-1">
    <text class="cls-2" transform="translate(10.52 39.91)">F</text>
  </g>
  <polygon points="93.11 43.24 95.59 60.82 95.26 61.13 94.94 61.45 92.38 43.29 92.71 43.03 93.11 43.24"/>
  <polygon points="96.86 61.63 86.96 71.15 86.71 70.89 86.45 70.63 96.35 61.11 96.6 61.37 96.86 61.63"/>
  <polygon points="95.33 60.05 85.43 69.57 85.18 69.31 84.92 69.05 94.82 59.53 95.07 59.79 95.33 60.05"/>
  <g class="cls-1">
    <text class="cls-2" transform="translate(78.92 77.1)">O</text>
  </g>
  <polygon points="95.59 60.82 109.74 63.31 109.67 63.67 109.61 64.03 94.94 61.45 95.26 61.13 95.59 60.82"/>
  <polygon points="122.08 47.78 140.3 45.23 140.11 45.62 139.92 46.02 122.18 48.5 121.94 48.17 122.08 47.78"/>
  <polygon points="140.3 45.23 149.99 61.2 149.67 61.38 149.36 61.57 139.92 46.02 140.11 45.62 140.3 45.23"/>
  <polygon points="139.48 47.56 151.54 59.65 151.41 60.03 151.28 60.42 138.96 48.08 139.22 47.82 139.48 47.56"/>
  <polygon points="151.54 59.65 169.73 57.1 169.58 57.49 169.42 57.88 151.28 60.42 151.41 60.03 151.54 59.65"/>
  <polygon points="167.98 57.53 173.44 44.06 173.78 44.19 174.12 44.33 168.66 57.8 168.32 57.67 167.98 57.53"/>
  <polygon points="170.02 58.35 175.48 44.88 175.82 45.02 176.16 45.15 170.7 58.63 170.36 58.49 170.02 58.35"/>
  <g class="cls-1">
    <text class="cls-2" transform="translate(173.3 43.8)">O</text>
  </g>
  <polygon points="169.73 57.1 177.97 67.61 177.68 67.83 177.39 68.06 169.42 57.88 169.58 57.49 169.73 57.1"/>
  <g class="cls-1">
    <text class="cls-2" transform="translate(177.72 75.17)">O</text>
  </g>
  <polygon points="184.7 71 198.99 69 199.04 69.36 199.09 69.72 184.8 71.72 184.75 71.36 184.7 71"/>
</svg>
