<svg id="图层_1" data-name="图层 1" xmlns="http://www.w3.org/2000/svg" viewBox="0 0 200 130"><defs><style>.cls-1,.cls-2,.cls-3{isolation:isolate;}.cls-2{font-size:5.26px;}.cls-2,.cls-3{font-family:ArialMT, Arial;}.cls-3{font-size:3.24px;}</style></defs><title>Streptomycin_Simi_compound5</title><polygon points="115.59 87.25 120.86 97.85 119.87 98.26 118.88 98.67 115.13 87.44 115.31 87.24 115.59 87.25"/><polygon points="115.2 86.96 121.26 77.09 121.55 77.07 121.76 77.2 115.59 87.25 115.31 87.24 115.2 86.96"/><polygon points="121.26 77.09 113.74 68.28 113.81 68 114.08 67.94 121.56 76.72 121.55 77.07 121.26 77.09"/><polygon points="113.74 68.28 103.04 72.71 102.79 72.56 102.7 72.33 113.6 67.83 113.81 68 113.74 68.28"/><polygon points="103.04 72.71 103.75 81.77 103.51 81.79 103.27 81.81 102.55 72.57 102.79 72.56 103.04 72.71"/><g class="cls-1"><text class="cls-2" transform="translate(101.67 86.58)">O</text></g><polygon points="106.3 84.82 115.2 86.96 115.31 87.24 115.13 87.44 106.19 85.28 106.24 85.05 106.3 84.82"/><polygon points="102.9 72.31 102.62 72.76 102.42 72.64 102.21 72.51 102.49 72.06 102.69 72.19 102.9 72.31"/><polygon points="101.77 71.46 101.35 72.14 101.15 72.01 100.94 71.89 101.36 71.21 101.56 71.34 101.77 71.46"/><polygon points="100.63 70.61 100.08 71.51 99.88 71.39 99.68 71.26 100.23 70.36 100.43 70.49 100.63 70.61"/><polygon points="99.5 69.76 98.81 70.89 98.61 70.76 98.41 70.64 99.09 69.52 99.3 69.64 99.5 69.76"/><polygon points="98.37 68.92 97.54 70.26 97.34 70.14 97.14 70.01 97.96 68.67 98.17 68.79 98.37 68.92"/><polygon points="97.24 68.07 96.27 69.64 96.07 69.51 95.87 69.39 96.83 67.82 97.03 67.94 97.24 68.07"/><polygon points="96.1 67.22 95 69.01 94.8 68.89 94.6 68.76 95.7 66.97 95.9 67.09 96.1 67.22"/><g class="cls-1"><text class="cls-2" transform="translate(90.58 68.45)">O</text></g><polygon points="82.3 72.22 82.05 71.75 82.26 71.64 82.47 71.52 82.72 71.99 82.51 72.1 82.3 72.22"/><polygon points="83.61 71.65 83.24 70.96 83.45 70.84 83.66 70.73 84.03 71.42 83.82 71.54 83.61 71.65"/><polygon points="84.93 71.09 84.43 70.16 84.64 70.05 84.85 69.94 85.35 70.86 85.14 70.98 84.93 71.09"/><polygon points="86.24 70.53 85.62 69.37 85.83 69.26 86.03 69.14 86.66 70.3 86.45 70.41 86.24 70.53"/><polygon points="87.56 69.96 86.81 68.58 87.02 68.46 87.22 68.35 87.98 69.73 87.77 69.85 87.56 69.96"/><polygon points="88.87 69.4 87.99 67.78 88.2 67.67 88.41 67.55 89.29 69.17 89.08 69.29 88.87 69.4"/><polygon points="90.19 68.84 89.18 66.99 89.39 66.87 89.6 66.76 90.61 68.61 90.4 68.72 90.19 68.84"/><polygon points="81.9 72.13 71.97 66.04 71.98 65.76 72.1 65.56 82.27 71.8 82.14 72 81.9 72.13"/><polygon points="71.97 66.04 61.73 71.59 61.49 71.45 61.38 71.24 71.86 65.55 71.98 65.76 71.97 66.04"/><polygon points="61.73 71.59 61.41 83.24 61.17 83.37 60.93 83.36 61.25 71.44 61.49 71.45 61.73 71.59"/><polygon points="61.41 83.24 71.34 89.33 71.34 89.61 71.21 89.81 61.05 83.57 61.17 83.37 61.41 83.24"/><polygon points="71.34 89.33 81.59 83.78 81.82 83.92 81.8 84.21 71.45 89.82 71.34 89.61 71.34 89.33"/><polygon points="82.06 83.78 90.03 87.7 89.46 88.61 88.9 89.53 81.8 84.21 81.82 83.92 82.06 83.78"/><g class="cls-1"><text class="cls-2" transform="translate(89.94 92.29)">O</text><text class="cls-2" transform="translate(94.03 92.29)">H</text></g><polygon points="81.59 83.78 81.9 72.13 82.14 72 82.38 72.01 82.06 83.78 81.82 83.92 81.59 83.78"/><polygon points="71.07 89.64 71.6 89.65 71.59 89.89 71.59 90.13 71.06 90.11 71.07 89.88 71.07 89.64"/><polygon points="70.9 91.09 71.69 91.11 71.69 91.35 71.68 91.59 70.89 91.57 70.9 91.33 70.9 91.09"/><polygon points="70.73 92.55 71.78 92.58 71.78 92.82 71.77 93.06 70.72 93.03 70.72 92.79 70.73 92.55"/><polygon points="70.56 94 71.88 94.04 71.87 94.28 71.86 94.52 70.55 94.48 70.56 94.24 70.56 94"/><polygon points="70.39 95.46 71.97 95.5 71.96 95.74 71.96 95.98 70.38 95.94 70.38 95.7 70.39 95.46"/><polygon points="70.22 96.92 72.06 96.97 72.05 97.2 72.05 97.44 70.21 97.39 70.21 97.16 70.22 96.92"/><polygon points="70.05 98.37 72.15 98.43 72.15 98.67 72.14 98.91 70.04 98.85 70.04 98.61 70.05 98.37"/><g class="cls-1"><text class="cls-2" transform="translate(68.97 103.66)">O</text><text class="cls-2" transform="translate(73.06 103.66)">H</text></g><polygon points="61.01 83.16 61.27 83.62 61.06 83.73 60.85 83.85 60.59 83.38 60.8 83.27 61.01 83.16"/><polygon points="59.67 83.73 60.05 84.43 59.84 84.54 59.63 84.65 59.26 83.96 59.47 83.85 59.67 83.73"/><polygon points="58.34 84.31 58.84 85.23 58.63 85.35 58.42 85.46 57.92 84.54 58.13 84.42 58.34 84.31"/><polygon points="57 84.89 57.62 86.04 57.41 86.16 57.2 86.27 56.58 85.11 56.79 85 57 84.89"/><polygon points="55.66 85.46 56.41 86.85 56.2 86.96 55.99 87.08 55.24 85.69 55.45 85.58 55.66 85.46"/><polygon points="54.32 86.04 55.2 87.66 54.99 87.77 54.78 87.88 53.9 86.27 54.11 86.15 54.32 86.04"/><polygon points="52.98 86.61 53.98 88.46 53.77 88.58 53.56 88.69 52.56 86.84 52.77 86.73 52.98 86.61"/><g class="cls-1"><text class="cls-2" transform="translate(48.79 91.18)">N</text></g><polygon points="48.16 87.78 41.7 82.28 41.85 82.09 42.01 81.91 48.47 87.42 48.31 87.6 48.16 87.78"/><polygon points="48.97 86.6 40.53 83.08 40.52 82.82 40.77 82.66 49.15 86.16 49.06 86.38 48.97 86.6"/><polygon points="40.53 83.08 32.53 87.42 32.41 87.21 32.3 87 40.29 82.67 40.52 82.82 40.53 83.08"/><g class="cls-1"><text class="cls-2" transform="translate(22.59 89.95)">H</text><text class="cls-3" transform="translate(26.38 90.76)">2</text><text class="cls-2" transform="translate(28.18 89.95)">N</text></g><polygon points="40.29 82.67 40.53 73.54 40.77 73.55 41.01 73.55 40.77 82.66 40.52 82.82 40.29 82.67"/><g class="cls-1"><text class="cls-2" transform="translate(38.94 72.35)">N</text><text class="cls-2" transform="translate(42.74 72.35)">H</text><text class="cls-3" transform="translate(46.54 73.16)">2</text></g><polygon points="61.6 71.2 61.32 71.65 61.12 71.53 60.91 71.4 61.19 70.95 61.39 71.08 61.6 71.2"/><polygon points="60.47 70.36 60.05 71.03 59.85 70.9 59.65 70.78 60.06 70.11 60.26 70.23 60.47 70.36"/><polygon points="59.33 69.51 58.78 70.4 58.58 70.28 58.38 70.15 58.93 69.26 59.13 69.38 59.33 69.51"/><polygon points="58.2 68.66 57.51 69.78 57.31 69.65 57.11 69.53 57.8 68.41 58 68.53 58.2 68.66"/><polygon points="57.07 67.81 56.24 69.15 56.04 69.03 55.84 68.9 56.66 67.56 56.87 67.68 57.07 67.81"/><polygon points="55.94 66.96 54.97 68.53 54.77 68.4 54.57 68.28 55.53 66.71 55.73 66.83 55.94 66.96"/><polygon points="54.8 66.11 53.7 67.9 53.5 67.78 53.3 67.65 54.4 65.86 54.6 65.99 54.8 66.11"/><g class="cls-1"><text class="cls-2" transform="translate(45.48 67.34)">H</text><text class="cls-2" transform="translate(49.28 67.34)">O</text></g><polygon points="72.24 65.73 71.71 65.72 71.72 65.48 71.73 65.24 72.25 65.26 72.25 65.5 72.24 65.73"/><polygon points="72.41 64.28 71.62 64.26 71.63 64.02 71.64 63.78 72.42 63.8 72.42 64.04 72.41 64.28"/><polygon points="72.58 62.82 71.53 62.79 71.54 62.56 71.54 62.32 72.59 62.34 72.59 62.58 72.58 62.82"/><polygon points="72.75 61.37 71.44 61.33 71.44 61.09 71.45 60.85 72.77 60.89 72.76 61.13 72.75 61.37"/><polygon points="72.92 59.91 71.34 59.87 71.35 59.63 71.36 59.39 72.94 59.43 72.93 59.67 72.92 59.91"/><polygon points="73.09 58.45 71.25 58.41 71.26 58.17 71.27 57.93 73.11 57.98 73.1 58.22 73.09 58.45"/><polygon points="73.26 57 71.16 56.94 71.17 56.7 71.17 56.47 73.28 56.52 73.27 56.76 73.26 57"/><g class="cls-1"><text class="cls-2" transform="translate(70.4 55.97)">N</text></g><polygon points="74.59 52.33 82.66 49.45 82.74 49.67 82.82 49.9 74.75 52.78 74.67 52.55 74.59 52.33"/><polygon points="75.21 53.62 82.55 48.04 82.78 48.16 82.8 48.45 75.5 54 75.35 53.81 75.21 53.62"/><polygon points="82.55 48.04 82.79 38.88 83.03 38.89 83.27 38.89 83.02 48.03 82.78 48.16 82.55 48.04"/><g class="cls-1"><text class="cls-2" transform="translate(81.2 37.69)">N</text><text class="cls-2" transform="translate(85 37.69)">H</text><text class="cls-3" transform="translate(88.8 38.5)">2</text></g><polygon points="83.02 48.03 90.69 52.73 90.57 52.94 90.44 53.14 82.8 48.45 82.78 48.16 83.02 48.03"/><g class="cls-1"><text class="cls-2" transform="translate(91.05 55.85)">N</text><text class="cls-2" transform="translate(94.85 55.85)">H</text><text class="cls-3" transform="translate(98.64 56.66)">2</text></g><polygon points="113.6 67.83 114.92 58.8 115.97 59.06 117.01 59.31 114.08 67.94 113.81 68 113.6 67.83"/><g class="cls-1"><text class="cls-2" transform="translate(114.56 58.53)">O</text></g><polygon points="127.99 53.3 119.43 56.69 119.13 55.66 118.82 54.63 127.85 52.82 128.04 53.02 127.99 53.3"/><polygon points="127.85 52.82 130.56 41.52 130.83 41.43 131.03 41.62 128.31 52.95 128.04 53.02 127.85 52.82"/><polygon points="130.91 41.16 142.2 37.82 142.27 38.05 142.21 38.31 131.03 41.62 130.83 41.43 130.91 41.16"/><polygon points="142.44 37.88 151.08 46.09 150.92 46.26 150.65 46.34 142.21 38.31 142.27 38.05 142.44 37.88"/><polygon points="151.15 46.32 148.36 57.91 148.13 57.86 147.93 57.67 150.65 46.34 150.92 46.26 151.15 46.32"/><polygon points="148.19 58.09 139.28 60.72 139.21 60.49 139.14 60.26 147.93 57.67 148.13 57.86 148.19 58.09"/><g class="cls-1"><text class="cls-2" transform="translate(134.64 63.37)">O</text></g><polygon points="134 59.01 127.99 53.3 128.04 53.02 128.31 52.95 134.33 58.67 134.16 58.84 134 59.01"/><polygon points="147.97 58.06 148.32 57.69 148.5 57.86 148.67 58.02 148.31 58.39 148.14 58.23 147.97 58.06"/><polygon points="148.83 59 149.3 58.5 149.48 58.66 149.65 58.83 149.17 59.33 149 59.17 148.83 59"/><polygon points="149.69 59.94 150.28 59.31 150.46 59.48 150.63 59.64 150.03 60.27 149.86 60.11 149.69 59.94"/><polygon points="150.54 60.88 151.27 60.12 151.44 60.28 151.61 60.45 150.89 61.21 150.72 61.04 150.54 60.88"/><polygon points="151.4 61.82 152.25 60.93 152.42 61.09 152.59 61.26 151.75 62.15 151.58 61.98 151.4 61.82"/><polygon points="152.26 62.76 153.23 61.74 153.4 61.9 153.57 62.07 152.61 63.09 152.44 62.92 152.26 62.76"/><polygon points="153.12 63.7 154.21 62.55 154.38 62.71 154.56 62.88 153.47 64.02 153.29 63.86 153.12 63.7"/><polygon points="153.98 64.63 155.19 63.36 155.36 63.52 155.54 63.69 154.33 64.96 154.15 64.8 153.98 64.63"/><polygon points="154.84 65.57 156.17 64.17 156.34 64.33 156.52 64.5 155.19 65.9 155.01 65.74 154.84 65.57"/><polygon points="155.7 66.51 157.15 64.98 157.33 65.14 157.5 65.31 156.04 66.84 155.87 66.67 155.7 66.51"/><polygon points="157.1 65.73 165.62 63.21 165.69 63.44 165.75 63.67 156.44 66.42 156.77 66.07 157.1 65.73"/><g class="cls-1"><text class="cls-2" transform="translate(166.16 64.82)">O</text><text class="cls-2" transform="translate(170.25 64.82)">H</text></g><polygon points="151.03 46.5 150.88 46 151.1 45.93 151.33 45.86 151.48 46.37 151.25 46.44 151.03 46.5"/><polygon points="152.26 46.26 152.05 45.54 152.28 45.47 152.5 45.4 152.72 46.12 152.49 46.19 152.26 46.26"/><polygon points="153.5 46.01 153.22 45.07 153.45 45.01 153.68 44.94 153.95 45.87 153.72 45.94 153.5 46.01"/><polygon points="154.73 45.76 154.39 44.61 154.62 44.54 154.85 44.47 155.19 45.63 154.96 45.69 154.73 45.76"/><polygon points="155.97 45.51 155.56 44.15 155.79 44.08 156.02 44.01 156.42 45.38 156.19 45.45 155.97 45.51"/><polygon points="157.2 45.27 156.73 43.68 156.96 43.61 157.19 43.55 157.66 45.13 157.43 45.2 157.2 45.27"/><polygon points="158.44 45.02 157.91 43.22 158.13 43.15 158.36 43.08 158.9 44.88 158.67 44.95 158.44 45.02"/><polygon points="159.67 44.77 159.08 42.75 159.31 42.69 159.53 42.62 160.13 44.64 159.9 44.7 159.67 44.77"/><g class="cls-1"><text class="cls-2" transform="translate(160.31 45.01)">O</text><text class="cls-2" transform="translate(164.4 45.01)">H</text></g><polygon points="142.54 38.07 142.02 37.95 142.08 37.72 142.13 37.49 142.65 37.61 142.59 37.84 142.54 38.07"/><polygon points="143 36.7 142.23 36.51 142.29 36.28 142.35 36.05 143.11 36.23 143.06 36.47 143 36.7"/><polygon points="143.47 35.32 142.44 35.07 142.5 34.84 142.56 34.61 143.58 34.86 143.53 35.09 143.47 35.32"/><polygon points="143.94 33.94 142.66 33.64 142.71 33.4 142.77 33.17 144.05 33.48 143.99 33.71 143.94 33.94"/><polygon points="144.4 32.57 142.87 32.2 142.92 31.97 142.98 31.73 144.51 32.1 144.46 32.34 144.4 32.57"/><polygon points="144.87 31.19 143.08 30.76 143.13 30.53 143.19 30.3 144.98 30.73 144.92 30.96 144.87 31.19"/><polygon points="145.33 29.81 143.29 29.32 143.34 29.09 143.4 28.86 145.45 29.35 145.39 29.58 145.33 29.81"/><g class="cls-1"><text class="cls-2" transform="translate(143.02 28.58)">O</text><text class="cls-2" transform="translate(147.11 28.58)">H</text></g><polygon points="130.56 41.52 123.82 36.25 124.56 35.47 125.3 34.69 130.91 41.16 130.83 41.43 130.56 41.52"/><g class="cls-1"><text class="cls-2" transform="translate(116.49 35.34)">H</text><text class="cls-2" transform="translate(120.29 35.34)">N</text></g><polygon points="122.59 30.5 124.75 21.56 124.98 21.62 125.21 21.67 123.06 30.62 122.83 30.56 122.59 30.5"/><polygon points="121.56 76.72 129.69 68.16 129.77 68.42 129.85 68.69 121.73 77.24 121.55 77.07 121.56 76.72"/><polygon points="129.69 68.16 138.9 70.38 138.84 70.61 138.78 70.84 129.85 68.69 129.77 68.42 129.69 68.16"/><polygon points="130.29 69.78 138.56 71.77 138.51 72 138.45 72.23 130.18 70.24 130.24 70.01 130.29 69.78"/><g class="cls-1"><text class="cls-2" transform="translate(139.32 73.35)">O</text></g><polygon points="121.42 77.31 121.75 76.89 121.93 77.03 122.12 77.18 121.8 77.6 121.61 77.45 121.42 77.31"/><polygon points="122.43 78.25 122.91 77.62 123.1 77.76 123.29 77.91 122.81 78.54 122.62 78.39 122.43 78.25"/><polygon points="123.44 79.19 124.08 78.35 124.27 78.49 124.46 78.64 123.82 79.47 123.63 79.33 123.44 79.19"/><polygon points="124.45 80.12 125.25 79.08 125.44 79.23 125.63 79.37 124.82 80.42 124.64 80.27 124.45 80.12"/><polygon points="125.45 81.06 126.42 79.81 126.6 79.96 126.79 80.1 125.83 81.36 125.64 81.21 125.45 81.06"/><polygon points="126.46 82 127.58 80.55 127.77 80.69 127.96 80.84 126.84 82.29 126.65 82.15 126.46 82"/><polygon points="127.47 82.94 128.75 81.28 128.94 81.42 129.13 81.57 127.85 83.23 127.66 83.09 127.47 82.94"/><g class="cls-1"><text class="cls-2" transform="translate(128.96 86.47)">O</text><text class="cls-2" transform="translate(133.05 86.47)">H</text></g></svg>