<svg id="图层_1" data-name="图层 1" xmlns="http://www.w3.org/2000/svg" viewBox="0 0 200 130"><defs><style>.cls-1,.cls-2,.cls-3{isolation:isolate;}.cls-2{font-size:5.45px;}.cls-2,.cls-3{font-family:ArialMT, Arial;}.cls-3{font-size:3.35px;}</style></defs><title>Streptomycin_Simi_compound4</title><polygon points="121.05 92.45 126.67 103.36 125.65 103.8 124.63 104.24 120.58 92.66 120.77 92.45 121.05 92.45"/><polygon points="120.64 92.17 126.78 81.85 127.08 81.82 127.29 81.95 121.05 92.45 120.77 92.45 120.64 92.17"/><polygon points="126.78 81.85 118.86 72.83 118.93 72.54 119.21 72.48 127.08 81.45 127.08 81.82 126.78 81.85"/><polygon points="118.86 72.83 107.84 77.58 107.58 77.42 107.61 77.14 118.7 72.36 118.93 72.54 118.86 72.83"/><polygon points="107.84 77.58 108.7 86.95 108.46 86.97 108.21 87 107.34 77.58 107.58 77.42 107.84 77.58"/><g class="cls-1"><text class="cls-2" transform="translate(106.59 91.93)">O</text></g><polygon points="111.38 90.07 120.64 92.17 120.77 92.45 120.58 92.66 111.27 90.56 111.33 90.31 111.38 90.07"/><polygon points="107.34 77.58 99 73.61 99.57 72.66 100.14 71.7 107.61 77.14 107.58 77.42 107.34 77.58"/><g class="cls-1"><text class="cls-2" transform="translate(94.84 73.31)">O</text></g><polygon points="86.17 76.85 93.8 71.6 94.34 72.57 94.89 73.54 86.42 77.31 86.18 77.15 86.17 76.85"/><polygon points="85.93 77.29 75.55 71.12 75.55 70.83 75.81 70.7 86.17 76.85 86.18 77.15 85.93 77.29"/><polygon points="75.55 71.12 65.02 77.02 64.77 76.88 64.79 76.58 75.3 70.69 75.55 70.83 75.55 71.12"/><polygon points="65.02 77.02 64.87 89.09 64.62 89.23 64.37 89.07 64.53 77.03 64.77 76.88 65.02 77.02"/><polygon points="64.87 89.09 75.24 95.26 75.24 95.55 74.98 95.68 64.63 89.52 64.62 89.23 64.87 89.09"/><polygon points="75.24 95.26 85.77 89.36 86.02 89.5 86 89.8 75.5 95.68 75.24 95.55 75.24 95.26"/><polygon points="86.27 89.35 94.59 93.31 94.03 94.26 93.46 95.22 86 89.8 86.02 89.5 86.27 89.35"/><g class="cls-1"><text class="cls-2" transform="translate(94.52 98.02)">O</text><text class="cls-2" transform="translate(98.76 98.02)">H</text></g><polygon points="85.77 89.36 85.93 77.29 86.18 77.15 86.42 77.31 86.27 89.35 86.02 89.5 85.77 89.36"/><polygon points="75.5 95.68 76.23 105.17 75.12 105.15 74 105.14 74.98 95.68 75.24 95.55 75.5 95.68"/><g class="cls-1"><text class="cls-2" transform="translate(72.96 110.11)">O</text><text class="cls-2" transform="translate(77.2 110.11)">H</text></g><polygon points="64.63 89.52 56.84 94.86 56.3 93.89 55.76 92.92 64.37 89.07 64.62 89.23 64.63 89.52"/><g class="cls-1"><text class="cls-2" transform="translate(51.87 97.48)">N</text></g><polygon points="51.22 94 44.43 88.38 44.59 88.19 44.74 88 51.53 93.62 51.38 93.81 51.22 94"/><polygon points="52.04 92.77 43.23 89.23 43.22 88.96 43.47 88.79 52.23 92.31 52.13 92.54 52.04 92.77"/><polygon points="43.23 89.23 35.02 93.84 34.9 93.62 34.78 93.41 42.97 88.81 43.22 88.96 43.23 89.23"/><g class="cls-1"><text class="cls-2" transform="translate(24.72 96.51)">H</text><text class="cls-3" transform="translate(28.65 97.34)">2</text><text class="cls-2" transform="translate(30.52 96.51)">N</text></g><polygon points="42.97 88.81 43.09 79.35 43.34 79.35 43.59 79.36 43.47 88.79 43.22 88.96 42.97 88.81"/><g class="cls-1"><text class="cls-2" transform="translate(41.41 78.11)">N</text><text class="cls-2" transform="translate(45.34 78.11)">H</text><text class="cls-3" transform="translate(49.28 78.95)">2</text></g><polygon points="64.53 77.03 56.2 73.07 56.77 72.11 57.33 71.16 64.79 76.58 64.77 76.88 64.53 77.03"/><g class="cls-1"><text class="cls-2" transform="translate(48.1 72.77)">H</text><text class="cls-2" transform="translate(52.03 72.77)">O</text></g><polygon points="75.3 70.69 74.56 61.21 75.67 61.23 76.79 61.24 75.81 70.7 75.55 70.83 75.3 70.69"/><g class="cls-1"><text class="cls-2" transform="translate(73.74 60.68)">N</text></g><polygon points="78.09 56.87 86.38 53.77 86.47 54.01 86.56 54.24 78.26 57.33 78.17 57.1 78.09 56.87"/><polygon points="78.74 58.2 86.24 52.31 86.49 52.44 86.51 52.73 79.05 58.59 78.9 58.39 78.74 58.2"/><polygon points="86.24 52.31 86.36 42.82 86.61 42.83 86.86 42.83 86.74 52.3 86.49 52.44 86.24 52.31"/><g class="cls-1"><text class="cls-2" transform="translate(84.68 41.58)">N</text><text class="cls-2" transform="translate(88.61 41.58)">H</text><text class="cls-3" transform="translate(92.55 42.42)">2</text></g><polygon points="86.74 52.3 94.78 57.07 94.65 57.29 94.52 57.5 86.51 52.73 86.49 52.44 86.74 52.3"/><g class="cls-1"><text class="cls-2" transform="translate(95.14 60.25)">N</text><text class="cls-2" transform="translate(99.08 60.25)">H</text><text class="cls-3" transform="translate(103.01 61.09)">2</text></g><polygon points="118.7 72.36 119.94 62.99 121.03 63.23 122.11 63.48 119.21 72.48 118.93 72.54 118.7 72.36"/><g class="cls-1"><text class="cls-2" transform="translate(119.53 62.69)">O</text></g><polygon points="133.34 56.57 133.5 57.09 133.26 57.16 133.03 57.23 132.86 56.71 133.1 56.64 133.34 56.57"/><polygon points="132.06 56.84 132.29 57.58 132.06 57.66 131.82 57.73 131.59 56.99 131.82 56.91 132.06 56.84"/><polygon points="130.78 57.11 131.09 58.08 130.85 58.15 130.61 58.23 130.31 57.26 130.55 57.19 130.78 57.11"/><polygon points="129.51 57.39 129.88 58.58 129.64 58.65 129.41 58.72 129.04 57.53 129.28 57.46 129.51 57.39"/><polygon points="128.24 57.66 128.68 59.07 128.44 59.15 128.2 59.22 127.76 57.81 128 57.73 128.24 57.66"/><polygon points="126.96 57.94 127.47 59.57 127.23 59.65 127 59.72 126.49 58.08 126.72 58.01 126.96 57.94"/><polygon points="125.69 58.21 126.26 60.07 126.03 60.14 125.79 60.22 125.22 58.36 125.45 58.28 125.69 58.21"/><polygon points="124.41 58.48 125.06 60.56 124.82 60.64 124.59 60.71 123.94 58.63 124.18 58.56 124.41 58.48"/><polygon points="133.21 56.76 135.93 44.71 136.17 44.76 136.38 44.95 133.72 56.73 133.45 56.81 133.21 56.76"/><polygon points="136.1 44.52 147.9 40.86 147.97 41.09 147.91 41.37 136.38 44.95 136.17 44.76 136.1 44.52"/><polygon points="148.14 40.91 157.22 49.3 157.05 49.48 156.78 49.56 147.91 41.37 147.97 41.09 148.14 40.91"/><polygon points="157.29 49.53 154.57 61.59 154.33 61.53 154.12 61.34 156.78 49.56 157.05 49.48 157.29 49.53"/><polygon points="154.4 61.77 145.22 64.62 145.14 64.39 145.07 64.15 154.12 61.34 154.33 61.53 154.4 61.77"/><g class="cls-1"><text class="cls-2" transform="translate(140.41 67.41)">O</text></g><polygon points="139.75 62.97 133.28 57 133.45 56.81 133.72 56.73 140.08 62.6 139.91 62.78 139.75 62.97"/><polygon points="154.17 61.75 154.53 61.35 154.71 61.52 154.89 61.69 154.53 62.08 154.35 61.91 154.17 61.75"/><polygon points="155.07 62.71 155.56 62.18 155.74 62.35 155.92 62.52 155.44 63.04 155.25 62.87 155.07 62.71"/><polygon points="155.97 63.67 156.59 63 156.77 63.17 156.95 63.34 156.34 64 156.16 63.83 155.97 63.67"/><polygon points="156.88 64.63 157.62 63.83 157.8 64 157.98 64.16 157.24 64.96 157.06 64.79 156.88 64.63"/><polygon points="157.78 65.58 158.64 64.65 158.82 64.82 159.01 64.99 158.15 65.92 157.96 65.75 157.78 65.58"/><polygon points="158.69 66.55 159.67 65.48 159.85 65.64 160.03 65.81 159.05 66.88 158.87 66.71 158.69 66.55"/><polygon points="159.59 67.5 160.7 66.3 160.88 66.47 161.06 66.64 159.95 67.84 159.77 67.67 159.59 67.5"/><polygon points="160.49 68.47 161.73 67.13 161.91 67.29 162.09 67.46 160.86 68.8 160.68 68.63 160.49 68.47"/><polygon points="161.4 69.42 162.76 67.95 162.94 68.12 163.12 68.29 161.76 69.76 161.58 69.59 161.4 69.42"/><polygon points="162.3 70.38 163.79 68.78 163.97 68.94 164.15 69.11 162.66 70.72 162.48 70.55 162.3 70.38"/><polygon points="163.74 69.55 172.52 66.82 172.59 67.06 172.66 67.29 163.07 70.28 163.41 69.92 163.74 69.55"/><g class="cls-1"><text class="cls-2" transform="translate(173.09 68.45)">O</text><text class="cls-2" transform="translate(177.32 68.45)">H</text></g><polygon points="157.17 49.73 157.01 49.2 157.24 49.13 157.48 49.06 157.64 49.58 157.4 49.65 157.17 49.73"/><polygon points="158.44 49.45 158.21 48.71 158.45 48.63 158.68 48.56 158.91 49.3 158.68 49.38 158.44 49.45"/><polygon points="159.72 49.18 159.42 48.21 159.65 48.14 159.89 48.06 160.19 49.03 159.95 49.1 159.72 49.18"/><polygon points="160.99 48.9 160.62 47.71 160.86 47.64 161.09 47.57 161.46 48.76 161.23 48.83 160.99 48.9"/><polygon points="162.26 48.63 161.83 47.22 162.06 47.14 162.3 47.07 162.74 48.48 162.5 48.56 162.26 48.63"/><polygon points="163.54 48.36 163.03 46.72 163.27 46.65 163.5 46.57 164.01 48.21 163.78 48.28 163.54 48.36"/><polygon points="164.81 48.08 164.24 46.22 164.47 46.15 164.71 46.08 165.29 47.94 165.05 48.01 164.81 48.08"/><polygon points="166.09 47.81 165.44 45.73 165.68 45.65 165.91 45.58 166.56 47.66 166.32 47.73 166.09 47.81"/><g class="cls-1"><text class="cls-2" transform="translate(166.73 48.02)">O</text><text class="cls-2" transform="translate(170.97 48.02)">H</text></g><polygon points="148.25 41.12 147.72 40.99 147.77 40.75 147.82 40.51 148.36 40.63 148.3 40.87 148.25 41.12"/><polygon points="148.71 39.68 147.91 39.5 147.97 39.26 148.02 39.02 148.82 39.2 148.77 39.44 148.71 39.68"/><polygon points="149.18 38.25 148.11 38.01 148.17 37.77 148.22 37.52 149.28 37.76 149.23 38.01 149.18 38.25"/><polygon points="149.64 36.81 148.31 36.51 148.36 36.27 148.42 36.03 149.75 36.33 149.69 36.57 149.64 36.81"/><polygon points="150.1 35.38 148.51 35.02 148.56 34.78 148.62 34.53 150.21 34.9 150.16 35.14 150.1 35.38"/><polygon points="150.57 33.94 148.71 33.52 148.76 33.28 148.81 33.04 150.68 33.46 150.62 33.7 150.57 33.94"/><polygon points="151.03 32.51 148.9 32.03 148.96 31.79 149.01 31.55 151.14 32.03 151.08 32.27 151.03 32.51"/><g class="cls-1"><text class="cls-2" transform="translate(148.58 31.24)">O</text><text class="cls-2" transform="translate(152.81 31.24)">H</text></g><polygon points="136.33 44.53 135.96 44.94 135.78 44.77 135.59 44.6 135.97 44.2 136.15 44.36 136.33 44.53"/><polygon points="135.38 43.47 134.83 44.08 134.65 43.91 134.47 43.74 135.02 43.14 135.2 43.31 135.38 43.47"/><polygon points="134.44 42.42 133.7 43.22 133.52 43.05 133.34 42.88 134.08 42.08 134.26 42.25 134.44 42.42"/><polygon points="133.49 41.36 132.57 42.36 132.39 42.19 132.21 42.02 133.13 41.02 133.31 41.19 133.49 41.36"/><polygon points="132.55 40.3 131.44 41.5 131.26 41.33 131.08 41.17 132.19 39.97 132.37 40.13 132.55 40.3"/><polygon points="131.6 39.24 130.31 40.64 130.13 40.48 129.95 40.31 131.24 38.91 131.42 39.08 131.6 39.24"/><polygon points="130.66 38.19 129.18 39.78 129 39.62 128.82 39.45 130.3 37.85 130.48 38.02 130.66 38.19"/><g class="cls-1"><text class="cls-2" transform="translate(121.19 38.58)">H</text><text class="cls-2" transform="translate(125.13 38.58)">N</text></g><polygon points="127.48 33.57 129.58 24.27 129.82 24.32 130.06 24.38 127.96 33.68 127.72 33.63 127.48 33.57"/><polygon points="127.08 81.45 135.38 72.47 135.46 72.75 135.55 73.02 127.26 81.99 127.08 81.82 127.08 81.45"/><polygon points="135.38 72.47 144.96 74.64 144.9 74.88 144.85 75.12 135.55 73.02 135.46 72.75 135.38 72.47"/><polygon points="136.03 74.14 144.63 76.08 144.58 76.33 144.52 76.57 135.92 74.62 135.97 74.38 136.03 74.14"/><g class="cls-1"><text class="cls-2" transform="translate(145.4 77.68)">O</text></g><polygon points="126.95 82.07 127.28 81.63 127.47 81.78 127.67 81.92 127.34 82.36 127.15 82.22 126.95 82.07"/><polygon points="128.01 83.03 128.5 82.37 128.7 82.52 128.9 82.67 128.41 83.33 128.21 83.18 128.01 83.03"/><polygon points="129.07 83.99 129.73 83.12 129.92 83.27 130.12 83.41 129.47 84.29 129.27 84.14 129.07 83.99"/><polygon points="130.14 84.95 130.95 83.86 131.15 84.01 131.35 84.16 130.53 85.25 130.33 85.1 130.14 84.95"/><polygon points="131.2 85.92 132.18 84.61 132.37 84.75 132.57 84.9 131.59 86.21 131.4 86.06 131.2 85.92"/><polygon points="132.26 86.88 133.4 85.35 133.6 85.5 133.8 85.65 132.66 87.17 132.46 87.03 132.26 86.88"/><polygon points="133.32 87.84 134.63 86.1 134.82 86.24 135.02 86.39 133.72 88.14 133.52 87.99 133.32 87.84"/><g class="cls-1"><text class="cls-2" transform="translate(134.86 91.42)">O</text><text class="cls-2" transform="translate(139.1 91.42)">H</text></g></svg>