<svg id="图层_1" data-name="图层 1" xmlns="http://www.w3.org/2000/svg" viewBox="0 0 200 130"><defs><style>.cls-1,.cls-2,.cls-3{isolation:isolate;}.cls-2{font-size:5.11px;}.cls-2,.cls-3{font-family:ArialMT, Arial;}.cls-3{font-size:3.15px;}</style></defs><title>Streptomycin_Simi_compound2.</title><polygon points="117.17 90.32 117.62 90.11 117.72 90.32 117.82 90.53 117.37 90.74 117.27 90.53 117.17 90.32"/><polygon points="117.62 91.47 118.22 91.19 118.32 91.39 118.42 91.61 117.81 91.89 117.72 91.68 117.62 91.47"/><polygon points="118.06 92.62 118.83 92.26 118.93 92.47 119.03 92.68 118.26 93.04 118.16 92.83 118.06 92.62"/><polygon points="118.51 93.78 119.43 93.34 119.53 93.55 119.63 93.76 118.71 94.2 118.61 93.99 118.51 93.78"/><polygon points="118.96 94.93 120.04 94.42 120.14 94.63 120.23 94.84 119.16 95.35 119.06 95.14 118.96 94.93"/><polygon points="119.41 96.08 120.64 95.5 120.74 95.71 120.84 95.92 119.61 96.5 119.51 96.29 119.41 96.08"/><polygon points="119.86 97.23 121.25 96.58 121.34 96.79 121.44 97 120.05 97.65 119.95 97.44 119.86 97.23"/><polygon points="120.3 98.39 121.85 97.66 121.95 97.87 122.05 98.08 120.5 98.81 120.4 98.6 120.3 98.39"/><polygon points="120.75 99.54 122.45 98.74 122.55 98.95 122.65 99.16 120.95 99.96 120.85 99.75 120.75 99.54"/><polygon points="121.2 100.69 123.06 99.81 123.16 100.03 123.25 100.23 121.4 101.11 121.3 100.9 121.2 100.69"/><polygon points="117.26 89.93 122.67 80.06 122.96 80.03 123.03 80.39 117.59 90.3 117.38 90.19 117.26 89.93"/><polygon points="122.67 80.06 114.97 71.87 115.02 71.58 115.28 71.52 122.95 79.68 122.96 80.03 122.67 80.06"/><polygon points="114.97 71.87 104.79 76.67 104.54 76.53 104.56 76.26 114.8 71.43 115.02 71.58 114.97 71.87"/><polygon points="104.79 76.67 105.9 85.42 105.67 85.45 105.44 85.48 104.32 76.69 104.54 76.53 104.79 76.67"/><g class="cls-1"><text class="cls-2" transform="translate(104.01 90.1)">O</text></g><polygon points="108.49 88.26 117.26 89.93 117.38 90.19 117.34 90.42 108.41 88.72 108.45 88.49 108.49 88.26"/><polygon points="104.32 76.69 96.33 73.21 96.83 72.3 97.33 71.38 104.56 76.26 104.54 76.53 104.32 76.69"/><g class="cls-1"><text class="cls-2" transform="translate(92.39 73.02)">O</text></g><polygon points="84.45 76.69 91.38 71.55 91.92 72.44 92.47 73.33 84.7 77.11 84.47 76.96 84.45 76.69"/><polygon points="84.24 77.1 74.31 71.66 74.31 71.39 74.55 71.25 84.45 76.69 84.47 76.96 84.24 77.1"/><polygon points="74.31 71.66 64.63 77.53 64.4 77.4 64.4 77.13 74.06 71.27 74.31 71.39 74.31 71.66"/><polygon points="64.63 77.53 64.88 88.85 64.65 88.99 64.41 88.84 64.17 77.55 64.4 77.4 64.63 77.53"/><polygon points="64.88 88.85 74.8 94.29 74.81 94.56 74.57 94.69 64.67 89.26 64.65 88.99 64.88 88.85"/><polygon points="74.8 94.29 84.48 88.42 84.72 88.55 84.71 88.83 75.06 94.68 74.81 94.56 74.8 94.29"/><polygon points="84.95 88.4 92.93 91.87 92.43 92.78 91.92 93.69 84.71 88.83 84.72 88.55 84.95 88.4"/><g class="cls-1"><text class="cls-2" transform="translate(92.89 96.2)">O</text><text class="cls-2" transform="translate(96.87 96.2)">H</text></g><polygon points="84.48 88.42 84.24 77.1 84.47 76.96 84.7 77.11 84.95 88.4 84.72 88.55 84.48 88.42"/><polygon points="75.06 94.68 76.05 103.55 75 103.57 73.96 103.59 74.57 94.69 74.81 94.56 75.06 94.68"/><g class="cls-1"><text class="cls-2" transform="translate(73.07 108.22)">O</text><text class="cls-2" transform="translate(77.05 108.22)">H</text></g><polygon points="64.67 89.26 57.59 94.49 57.05 93.6 56.51 92.7 64.41 88.84 64.65 88.99 64.67 89.26"/><g class="cls-1"><text class="cls-2" transform="translate(52.9 97.07)">N</text></g><polygon points="52.29 93.91 45.7 88.84 45.84 88.66 45.98 88.47 52.57 93.55 52.43 93.73 52.29 93.91"/><polygon points="53.02 92.73 44.6 89.68 44.58 89.42 44.81 89.26 53.18 92.29 53.1 92.51 53.02 92.73"/><polygon points="44.6 89.68 37.1 94.23 36.98 94.03 36.86 93.83 44.34 89.29 44.58 89.42 44.6 89.68"/><g class="cls-1"><text class="cls-2" transform="translate(27.43 96.84)">H</text><text class="cls-3" transform="translate(31.12 97.63)">2</text><text class="cls-2" transform="translate(32.87 96.84)">N</text></g><polygon points="44.34 89.29 44.15 80.42 44.38 80.41 44.62 80.41 44.81 89.26 44.58 89.42 44.34 89.29"/><g class="cls-1"><text class="cls-2" transform="translate(42.48 79.25)">N</text><text class="cls-2" transform="translate(46.17 79.25)">H</text><text class="cls-3" transform="translate(49.86 80.03)">2</text></g><polygon points="64.17 77.55 56.19 74.08 56.69 73.17 57.19 72.25 64.4 77.13 64.4 77.4 64.17 77.55"/><g class="cls-1"><text class="cls-2" transform="translate(48.56 73.89)">H</text><text class="cls-2" transform="translate(52.25 73.89)">O</text></g><polygon points="74.06 71.27 73.07 62.4 74.11 62.38 75.15 62.36 74.55 71.25 74.31 71.39 74.06 71.27"/><g class="cls-1"><text class="cls-2" transform="translate(72.21 61.87)">N</text></g><polygon points="76.28 58.19 83.91 55.05 84 55.26 84.08 55.48 76.45 58.62 76.36 58.4 76.28 58.19"/><polygon points="76.94 59.41 83.73 53.68 83.96 53.79 83.99 54.07 77.23 59.77 77.08 59.59 76.94 59.41"/><polygon points="83.73 53.68 83.54 44.78 83.77 44.78 84 44.77 84.19 53.65 83.96 53.79 83.73 53.68"/><g class="cls-1"><text class="cls-2" transform="translate(81.87 43.61)">N</text><text class="cls-2" transform="translate(85.56 43.61)">H</text><text class="cls-3" transform="translate(89.25 44.4)">2</text></g><polygon points="84.19 53.65 91.93 57.9 91.81 58.1 91.7 58.3 83.99 54.07 83.96 53.79 84.19 53.65"/><g class="cls-1"><text class="cls-2" transform="translate(92.28 60.78)">N</text><text class="cls-2" transform="translate(95.97 60.78)">H</text><text class="cls-3" transform="translate(99.66 61.56)">2</text></g><polygon points="114.8 71.43 115.67 62.58 116.69 62.78 117.72 62.97 115.28 71.52 115.02 71.58 114.8 71.43"/><g class="cls-1"><text class="cls-2" transform="translate(115.19 62.27)">O</text></g><polygon points="128.01 56.15 128.18 56.63 127.96 56.71 127.74 56.79 127.57 56.3 127.79 56.23 128.01 56.15"/><polygon points="126.63 56.5 126.88 57.22 126.66 57.3 126.44 57.37 126.19 56.65 126.41 56.57 126.63 56.5"/><polygon points="125.25 56.84 125.59 57.81 125.37 57.88 125.15 57.96 124.81 56.99 125.03 56.92 125.25 56.84"/><polygon points="123.87 57.19 124.29 58.4 124.07 58.47 123.85 58.55 123.43 57.34 123.65 57.26 123.87 57.19"/><polygon points="122.49 57.53 123 58.98 122.78 59.06 122.56 59.13 122.05 57.69 122.27 57.61 122.49 57.53"/><polygon points="121.11 57.88 121.7 59.57 121.48 59.65 121.26 59.72 120.67 58.03 120.89 57.96 121.11 57.88"/><polygon points="119.73 58.23 120.41 60.16 120.19 60.23 119.97 60.31 119.3 58.38 119.51 58.3 119.73 58.23"/><polygon points="127.9 56.34 130.06 44.95 130.29 44.99 130.49 45.17 128.38 56.29 128.12 56.38 127.9 56.34"/><polygon points="130.21 44.77 141.15 40.95 141.23 41.17 141.18 41.44 130.49 45.17 130.29 44.99 130.21 44.77"/><polygon points="141.38 41 150.16 48.56 150.01 48.74 149.75 48.83 141.18 41.44 141.23 41.17 141.38 41"/><polygon points="150.24 48.78 148.07 60.17 147.84 60.13 147.64 59.95 149.75 48.83 150.01 48.74 150.24 48.78"/><polygon points="147.92 60.34 139.43 63.31 139.35 63.09 139.28 62.87 147.64 59.95 147.84 60.13 147.92 60.34"/><g class="cls-1"><text class="cls-2" transform="translate(134.91 66.02)">O</text></g><polygon points="134.3 62.01 127.97 56.56 128.12 56.38 128.38 56.29 134.6 61.66 134.45 61.83 134.3 62.01"/><polygon points="147.7 60.33 148.03 59.95 148.2 60.11 148.38 60.26 148.05 60.64 147.88 60.48 147.7 60.33"/><polygon points="148.58 61.2 149.02 60.7 149.19 60.85 149.37 61 148.93 61.51 148.76 61.36 148.58 61.2"/><polygon points="149.46 62.08 150.01 61.44 150.19 61.59 150.36 61.74 149.81 62.38 149.63 62.23 149.46 62.08"/><polygon points="150.34 62.95 151 62.17 151.18 62.33 151.35 62.48 150.69 63.25 150.51 63.1 150.34 62.95"/><polygon points="151.21 63.82 151.99 62.91 152.17 63.06 152.34 63.22 151.56 64.12 151.39 63.97 151.21 63.82"/><polygon points="152.09 64.69 152.98 63.65 153.16 63.8 153.33 63.96 152.44 64.99 152.27 64.84 152.09 64.69"/><polygon points="152.97 65.56 153.97 64.39 154.15 64.55 154.32 64.7 153.32 65.86 153.15 65.71 152.97 65.56"/><polygon points="153.85 66.43 154.96 65.13 155.14 65.28 155.31 65.44 154.2 66.73 154.02 66.58 153.85 66.43"/><polygon points="154.72 67.3 155.95 65.87 156.13 66.02 156.31 66.17 155.08 67.6 154.9 67.45 154.72 67.3"/><polygon points="155.6 68.17 156.94 66.61 157.12 66.76 157.29 66.92 155.95 68.47 155.78 68.32 155.6 68.17"/><polygon points="156.93 67.34 165.04 64.51 165.12 64.73 165.19 64.95 156.32 68.04 156.62 67.69 156.93 67.34"/><g class="cls-1"><text class="cls-2" transform="translate(165.58 65.94)">O</text><text class="cls-2" transform="translate(169.55 65.94)">H</text></g><polygon points="150.13 48.97 149.96 48.49 150.18 48.41 150.4 48.33 150.56 48.82 150.34 48.89 150.13 48.97"/><polygon points="151.5 48.62 151.25 47.9 151.47 47.82 151.69 47.75 151.94 48.47 151.72 48.55 151.5 48.62"/><polygon points="152.88 48.28 152.55 47.31 152.76 47.24 152.98 47.16 153.32 48.13 153.1 48.2 152.88 48.28"/><polygon points="154.26 47.93 153.84 46.73 154.06 46.65 154.28 46.57 154.7 47.78 154.48 47.85 154.26 47.93"/><polygon points="155.64 47.59 155.13 46.14 155.35 46.06 155.57 45.98 156.08 47.43 155.86 47.51 155.64 47.59"/><polygon points="157.02 47.24 156.43 45.55 156.65 45.47 156.87 45.4 157.46 47.09 157.24 47.16 157.02 47.24"/><polygon points="158.4 46.89 157.72 44.96 157.94 44.89 158.16 44.81 158.84 46.74 158.62 46.82 158.4 46.89"/><g class="cls-1"><text class="cls-2" transform="translate(158.96 46.99)">O</text><text class="cls-2" transform="translate(162.94 46.99)">H</text></g><polygon points="141.49 41.19 140.99 41.09 141.03 40.86 141.07 40.64 141.57 40.73 141.53 40.96 141.49 41.19"/><polygon points="141.88 39.82 141.12 39.68 141.17 39.45 141.21 39.23 141.96 39.37 141.92 39.6 141.88 39.82"/><polygon points="142.26 38.46 141.26 38.27 141.3 38.04 141.35 37.81 142.35 38.01 142.31 38.23 142.26 38.46"/><polygon points="142.65 37.1 141.4 36.86 141.44 36.63 141.49 36.41 142.74 36.64 142.7 36.87 142.65 37.1"/><polygon points="143.04 35.74 141.54 35.45 141.58 35.22 141.62 34.99 143.13 35.28 143.09 35.51 143.04 35.74"/><polygon points="143.43 34.37 141.67 34.04 141.72 33.81 141.76 33.58 143.52 33.92 143.47 34.15 143.43 34.37"/><polygon points="143.82 33.01 141.81 32.63 141.85 32.4 141.9 32.17 143.91 32.55 143.86 32.78 143.82 33.01"/><g class="cls-1"><text class="cls-2" transform="translate(141.4 31.86)">O</text><text class="cls-2" transform="translate(145.38 31.86)">H</text></g><polygon points="130.43 44.77 130.09 45.16 129.91 45.01 129.74 44.86 130.07 44.47 130.25 44.62 130.43 44.77"/><polygon points="129.49 43.8 128.99 44.38 128.82 44.23 128.64 44.08 129.14 43.5 129.32 43.65 129.49 43.8"/><polygon points="128.56 42.83 127.89 43.61 127.72 43.45 127.54 43.3 128.21 42.53 128.39 42.68 128.56 42.83"/><polygon points="127.63 41.86 126.8 42.83 126.62 42.68 126.44 42.53 127.28 41.56 127.45 41.71 127.63 41.86"/><polygon points="126.7 40.89 125.7 42.05 125.52 41.9 125.35 41.75 126.35 40.59 126.52 40.74 126.7 40.89"/><polygon points="125.77 39.92 124.6 41.27 124.42 41.12 124.25 40.97 125.42 39.61 125.59 39.77 125.77 39.92"/><polygon points="124.83 38.95 123.5 40.49 123.33 40.34 123.15 40.19 124.48 38.64 124.66 38.79 124.83 38.95"/><g class="cls-1"><text class="cls-2" transform="translate(115.97 39.5)">H</text><text class="cls-2" transform="translate(119.66 39.5)">N</text></g><polygon points="121.77 34.81 123.44 26 123.67 26.04 123.9 26.08 122.22 34.89 122 34.85 121.77 34.81"/><polygon points="122.95 79.68 130.44 71 130.53 71.25 130.61 71.5 123.32 79.97 122.96 80.03 122.95 79.68"/><polygon points="130.44 71 139.5 72.72 139.46 72.95 139.42 73.17 130.61 71.5 130.53 71.25 130.44 71"/><polygon points="131.1 72.54 139.24 74.08 139.2 74.31 139.16 74.54 131.01 72.99 131.05 72.76 131.1 72.54"/><g class="cls-1"><text class="cls-2" transform="translate(139.92 75.48)">O</text></g><polygon points="123.32 79.97 130.62 84.08 130.03 84.93 129.43 85.79 123.03 80.39 122.96 80.03 123.32 79.97"/><g class="cls-1"><text class="cls-2" transform="translate(130.49 88.71)">O</text><text class="cls-2" transform="translate(134.47 88.71)">H</text></g></svg>