<svg id="图层_1" data-name="图层 1" xmlns="http://www.w3.org/2000/svg" viewBox="0 0 200 130"><defs><style>.cls-1,.cls-2,.cls-3{isolation:isolate;}.cls-2{font-size:5.44px;}.cls-2,.cls-3{font-family:ArialMT, Arial;}.cls-3{font-size:3.34px;}</style></defs><title>Streptomycin_Simi_compound7</title><polygon points="121.81 96.9 126.74 108.09 125.69 108.47 124.65 108.84 121.33 97.07 121.53 96.87 121.81 96.9"/><polygon points="121.42 96.58 128.15 86.69 128.46 86.68 128.66 86.82 121.81 96.9 121.53 96.87 121.42 96.58"/><polygon points="128.15 86.69 120.82 77.23 120.91 76.94 121.19 76.9 128.49 86.31 128.46 86.68 128.15 86.69"/><polygon points="120.82 77.23 109.56 81.28 109.31 81.11 109.36 80.83 120.69 76.75 120.91 76.94 120.82 77.23"/><polygon points="109.56 81.28 109.85 90.68 109.61 90.69 109.36 90.69 109.07 81.25 109.31 81.11 109.56 81.28"/><g class="cls-1"><text class="cls-2" transform="translate(107.57 95.63)">O</text></g><polygon points="112.37 93.95 121.42 96.58 121.53 96.87 121.33 97.07 112.23 94.42 112.3 94.19 112.37 93.95"/><polygon points="109.07 81.25 101.1 76.87 101.72 75.95 102.35 75.03 109.36 80.83 109.31 81.11 109.07 81.25"/><g class="cls-1"><text class="cls-2" transform="translate(97 76.38)">O</text></g><polygon points="88.17 79.77 87.93 79.27 88.16 79.17 88.38 79.06 88.61 79.55 88.39 79.66 88.17 79.77"/><polygon points="89.56 79.24 89.21 78.51 89.43 78.4 89.65 78.29 90.01 79.03 89.79 79.14 89.56 79.24"/><polygon points="90.96 78.72 90.49 77.74 90.71 77.63 90.93 77.53 91.4 78.5 91.18 78.61 90.96 78.72"/><polygon points="92.36 78.2 91.76 76.97 91.99 76.86 92.21 76.76 92.8 77.98 92.58 78.09 92.36 78.2"/><polygon points="93.75 77.67 93.04 76.2 93.26 76.1 93.48 75.99 94.19 77.46 93.97 77.57 93.75 77.67"/><polygon points="95.14 77.15 94.32 75.44 94.54 75.33 94.76 75.22 95.59 76.94 95.37 77.04 95.14 77.15"/><polygon points="96.54 76.63 95.59 74.67 95.82 74.56 96.04 74.46 96.98 76.41 96.76 76.52 96.54 76.63"/><polygon points="87.76 79.66 77.81 72.89 77.83 72.61 77.97 72.4 88.16 79.33 88.02 79.54 87.76 79.66"/><polygon points="77.81 72.89 66.96 78.13 66.73 77.97 66.62 77.74 77.72 72.38 77.83 72.61 77.81 72.89"/><polygon points="66.96 78.13 66.08 90.13 65.82 90.26 65.57 90.24 66.48 77.95 66.73 77.97 66.96 78.13"/><polygon points="66.08 90.13 76.03 96.91 76.01 97.19 75.87 97.39 65.68 90.46 65.82 90.26 66.08 90.13"/><polygon points="76.03 96.91 86.88 91.67 87.11 91.83 87.22 92.05 76.12 97.41 76.01 97.19 76.03 96.91"/><polygon points="86.99 92.08 87.3 91.63 87.5 91.76 87.7 91.9 87.4 92.35 87.19 92.22 86.99 92.08"/><polygon points="88.1 93 88.56 92.32 88.77 92.46 88.97 92.6 88.51 93.28 88.31 93.14 88.1 93"/><polygon points="89.22 93.92 89.83 93.02 90.03 93.16 90.24 93.3 89.63 94.2 89.42 94.06 89.22 93.92"/><polygon points="90.33 94.84 91.1 93.72 91.3 93.86 91.5 94 90.74 95.12 90.54 94.98 90.33 94.84"/><polygon points="91.45 95.77 92.36 94.42 92.57 94.56 92.77 94.69 91.86 96.04 91.65 95.9 91.45 95.77"/><polygon points="92.56 96.69 93.63 95.11 93.84 95.25 94.04 95.39 92.97 96.96 92.77 96.83 92.56 96.69"/><polygon points="93.68 97.61 94.9 95.81 95.1 95.95 95.31 96.09 94.08 97.89 93.88 97.75 93.68 97.61"/><g class="cls-1"><text class="cls-2" transform="translate(95.19 100.96)">O</text><text class="cls-2" transform="translate(99.41 100.96)">H</text></g><polygon points="86.88 91.67 87.76 79.66 88.02 79.54 88.26 79.56 87.36 91.85 87.11 91.83 86.88 91.67"/><polygon points="75.74 97.21 76.28 97.25 76.26 97.49 76.24 97.74 75.7 97.7 75.72 97.45 75.74 97.21"/><polygon points="75.49 98.7 76.3 98.76 76.29 99.01 76.27 99.25 75.45 99.19 75.47 98.95 75.49 98.7"/><polygon points="75.24 100.19 76.33 100.27 76.31 100.52 76.29 100.77 75.21 100.69 75.23 100.44 75.24 100.19"/><polygon points="75 101.69 76.35 101.79 76.33 102.03 76.32 102.28 74.96 102.18 74.98 101.93 75 101.69"/><polygon points="74.75 103.18 76.38 103.3 76.36 103.55 76.34 103.79 74.72 103.67 74.73 103.43 74.75 103.18"/><polygon points="74.5 104.67 76.4 104.81 76.38 105.06 76.37 105.31 74.47 105.17 74.49 104.92 74.5 104.67"/><polygon points="74.26 106.17 76.43 106.33 76.41 106.58 76.39 106.82 74.22 106.66 74.24 106.42 74.26 106.17"/><g class="cls-1"><text class="cls-2" transform="translate(69.07 111.68)">H</text><text class="cls-2" transform="translate(72.99 111.68)">O</text></g><polygon points="65.67 90.03 65.9 90.52 65.68 90.63 65.46 90.73 65.22 90.24 65.45 90.14 65.67 90.03"/><polygon points="64.45 90.49 64.79 91.19 64.57 91.29 64.34 91.4 64.01 90.7 64.23 90.59 64.45 90.49"/><polygon points="63.23 90.95 63.67 91.86 63.45 91.96 63.23 92.07 62.79 91.16 63.01 91.05 63.23 90.95"/><polygon points="62.02 91.4 62.56 92.52 62.33 92.63 62.11 92.74 61.57 91.62 61.79 91.51 62.02 91.4"/><polygon points="60.8 91.86 61.44 93.19 61.22 93.3 61 93.41 60.35 92.08 60.58 91.97 60.8 91.86"/><polygon points="59.58 92.32 60.32 93.86 60.1 93.97 59.88 94.07 59.14 92.54 59.36 92.43 59.58 92.32"/><polygon points="58.36 92.78 59.21 94.53 58.99 94.64 58.76 94.74 57.92 92.99 58.14 92.89 58.36 92.78"/><polygon points="57.15 93.24 58.09 95.2 57.87 95.3 57.65 95.41 56.7 93.45 56.92 93.35 57.15 93.24"/><g class="cls-1"><text class="cls-2" transform="translate(52.76 97.82)">N</text></g><polygon points="52.1 94.13 45.77 88.18 45.94 88 46.11 87.83 52.43 93.77 52.27 93.95 52.1 94.13"/><polygon points="52.99 92.95 44.53 88.96 44.53 88.69 44.79 88.53 53.2 92.5 53.1 92.72 52.99 92.95"/><polygon points="44.53 88.96 35.99 93.08 35.88 92.86 35.78 92.64 44.29 88.53 44.53 88.69 44.53 88.96"/><g class="cls-1"><text class="cls-2" transform="translate(25.73 95.55)">H</text><text class="cls-3" transform="translate(29.66 96.38)">2</text><text class="cls-2" transform="translate(31.52 95.55)">N</text></g><polygon points="44.29 88.53 44.99 79.12 45.23 79.14 45.48 79.15 44.79 88.53 44.53 88.69 44.29 88.53"/><g class="cls-1"><text class="cls-2" transform="translate(43.47 77.89)">N</text><text class="cls-2" transform="translate(47.4 77.89)">H</text><text class="cls-3" transform="translate(51.32 78.73)">2</text></g><polygon points="66.85 77.72 66.54 78.17 66.34 78.03 66.13 77.89 66.44 77.44 66.64 77.58 66.85 77.72"/><polygon points="65.73 76.8 65.27 77.47 65.07 77.33 64.87 77.19 65.33 76.52 65.53 76.66 65.73 76.8"/><polygon points="64.62 75.87 64.01 76.77 63.8 76.63 63.6 76.5 64.21 75.59 64.42 75.73 64.62 75.87"/><polygon points="63.5 74.95 62.74 76.08 62.54 75.94 62.33 75.8 63.1 74.67 63.3 74.81 63.5 74.95"/><polygon points="62.39 74.03 61.47 75.38 61.27 75.24 61.06 75.1 61.98 73.75 62.19 73.89 62.39 74.03"/><polygon points="61.27 73.11 60.21 74.68 60 74.54 59.8 74.4 60.87 72.83 61.07 72.97 61.27 73.11"/><polygon points="60.16 72.19 58.94 73.98 58.73 73.84 58.53 73.7 59.75 71.91 59.96 72.05 60.16 72.19"/><g class="cls-1"><text class="cls-2" transform="translate(50.5 73.23)">H</text><text class="cls-2" transform="translate(54.42 73.23)">O</text></g><polygon points="78.1 72.59 77.56 72.55 77.58 72.3 77.59 72.06 78.14 72.09 78.12 72.34 78.1 72.59"/><polygon points="78.35 71.09 77.53 71.03 77.55 70.79 77.57 70.54 78.38 70.6 78.36 70.85 78.35 71.09"/><polygon points="78.59 69.6 77.51 69.52 77.53 69.27 77.55 69.03 78.63 69.11 78.61 69.35 78.59 69.6"/><polygon points="78.84 68.11 77.48 68.01 77.5 67.76 77.52 67.51 78.88 67.61 78.86 67.86 78.84 68.11"/><polygon points="79.09 66.61 77.46 66.49 77.48 66.25 77.5 66 79.12 66.12 79.1 66.37 79.09 66.61"/><polygon points="79.33 65.12 77.44 64.98 77.45 64.73 77.47 64.49 79.37 64.63 79.35 64.87 79.33 65.12"/><polygon points="79.58 63.63 77.41 63.47 77.43 63.22 77.45 62.97 79.61 63.13 79.6 63.38 79.58 63.63"/><g class="cls-1"><text class="cls-2" transform="translate(76.77 62.51)">N</text></g><polygon points="81.12 58.89 89.64 56.28 89.72 56.52 89.79 56.75 81.26 59.36 81.19 59.13 81.12 58.89"/><polygon points="81.69 60.26 89.59 54.82 89.83 54.95 89.83 55.25 81.97 60.66 81.83 60.46 81.69 60.26"/><polygon points="89.59 54.82 90.29 45.38 90.54 45.4 90.78 45.42 90.09 54.83 89.83 54.95 89.59 54.82"/><g class="cls-1"><text class="cls-2" transform="translate(88.78 44.16)">N</text><text class="cls-2" transform="translate(92.7 44.16)">H</text><text class="cls-3" transform="translate(96.63 45)">2</text></g><polygon points="90.09 54.83 97.71 60.01 97.57 60.21 97.43 60.42 89.83 55.25 89.83 54.95 90.09 54.83"/><g class="cls-1"><text class="cls-2" transform="translate(98.06 63.38)">N</text><text class="cls-2" transform="translate(101.99 63.38)">H</text><text class="cls-3" transform="translate(105.91 64.22)">2</text></g><polygon points="120.69 76.75 122.49 67.53 123.55 67.84 124.62 68.15 121.19 76.9 120.91 76.94 120.69 76.75"/><g class="cls-1"><text class="cls-2" transform="translate(122.24 67.3)">O</text></g><polygon points="136.25 62.45 127.22 65.54 126.96 64.46 126.69 63.39 136.13 61.95 136.32 62.17 136.25 62.45"/><polygon points="136.13 61.95 139.48 50.41 139.76 50.33 139.96 50.54 136.6 62.1 136.32 62.17 136.13 61.95"/><polygon points="139.86 50.05 151.53 47.2 151.74 47.4 151.66 47.67 139.96 50.54 139.76 50.33 139.86 50.05"/><polygon points="152.02 47.34 160.44 56.13 160.26 56.3 159.99 56.36 151.66 47.67 151.74 47.4 152.02 47.34"/><polygon points="160.5 56.37 157.1 68.05 156.82 68.13 156.62 67.93 159.99 56.36 160.26 56.3 160.5 56.37"/><polygon points="156.73 68.41 147.51 70.67 147.46 70.43 147.4 70.19 156.62 67.93 156.82 68.13 156.73 68.41"/><g class="cls-1"><text class="cls-2" transform="translate(142.73 73.27)">O</text></g><polygon points="142.06 68.52 136.25 62.45 136.32 62.17 136.6 62.1 142.42 68.17 142.24 68.35 142.06 68.52"/><polygon points="157.1 68.05 166.42 76.51 165.35 77.03 164.33 77.53 156.73 68.41 156.82 68.13 157.1 68.05"/><polygon points="166.42 76.51 174.65 74.5 174.71 74.73 174.77 74.97 164.33 77.53 165.35 77.03 166.42 76.51"/><g class="cls-1"><text class="cls-2" transform="translate(175.2 76.29)">O</text><text class="cls-2" transform="translate(179.43 76.29)">H</text></g><polygon points="160.36 56.55 160.23 56.02 160.47 55.97 160.71 55.91 160.84 56.43 160.6 56.49 160.36 56.55"/><polygon points="161.66 56.35 161.47 55.6 161.71 55.54 161.95 55.48 162.13 56.24 161.9 56.3 161.66 56.35"/><polygon points="162.95 56.16 162.71 55.18 162.95 55.12 163.19 55.06 163.43 56.04 163.19 56.1 162.95 56.16"/><polygon points="164.24 55.96 163.94 54.75 164.18 54.7 164.42 54.64 164.72 55.84 164.48 55.9 164.24 55.96"/><polygon points="165.53 55.76 165.18 54.33 165.42 54.27 165.66 54.21 166.01 55.65 165.77 55.71 165.53 55.76"/><polygon points="166.82 55.57 166.42 53.91 166.66 53.85 166.9 53.79 167.3 55.45 167.06 55.51 166.82 55.57"/><polygon points="168.12 55.37 167.65 53.48 167.89 53.43 168.13 53.37 168.59 55.25 168.35 55.31 168.12 55.37"/><polygon points="169.41 55.17 168.89 53.06 169.13 53 169.37 52.94 169.89 55.06 169.65 55.12 169.41 55.17"/><g class="cls-1"><text class="cls-2" transform="translate(170.12 55.56)">O</text><text class="cls-2" transform="translate(174.35 55.56)">H</text></g><polygon points="151.53 47.2 153.31 37.99 154.38 38.3 155.45 38.61 152.02 47.34 151.74 47.4 151.53 47.2"/><g class="cls-1"><text class="cls-2" transform="translate(153.06 37.76)">O</text><text class="cls-2" transform="translate(157.29 37.76)">H</text></g><polygon points="139.48 50.41 132.89 44.76 133.69 44 134.49 43.23 139.86 50.05 139.76 50.33 139.48 50.41"/><g class="cls-1"><text class="cls-2" transform="translate(125.35 43.63)">H</text><text class="cls-2" transform="translate(129.27 43.63)">N</text></g><polygon points="131.8 38.62 134.44 29.53 134.68 29.6 134.92 29.67 132.27 38.76 132.03 38.69 131.8 38.62"/><polygon points="128.49 86.31 137.29 77.88 137.36 78.15 137.42 78.43 128.63 86.86 128.46 86.68 128.49 86.31"/><polygon points="137.29 77.88 146.65 80.6 146.59 80.84 146.52 81.07 137.42 78.43 137.36 78.15 137.29 77.88"/><polygon points="137.83 79.57 146.24 82.02 146.17 82.26 146.1 82.49 137.69 80.05 137.76 79.81 137.83 79.57"/><g class="cls-1"><text class="cls-2" transform="translate(147.08 83.8)">O</text></g><polygon points="128.31 86.92 128.66 86.5 128.85 86.66 129.04 86.81 128.69 87.23 128.5 87.07 128.31 86.92"/><polygon points="129.29 87.92 129.82 87.3 130.01 87.45 130.19 87.61 129.67 88.24 129.48 88.08 129.29 87.92"/><polygon points="130.27 88.92 130.97 88.09 131.16 88.25 131.35 88.41 130.65 89.24 130.46 89.08 130.27 88.92"/><polygon points="131.25 89.93 132.13 88.89 132.31 89.05 132.5 89.21 131.62 90.25 131.44 90.09 131.25 89.93"/><polygon points="132.23 90.94 133.28 89.69 133.47 89.85 133.66 90.01 132.6 91.25 132.41 91.09 132.23 90.94"/><polygon points="133.21 91.94 134.43 90.49 134.62 90.65 134.81 90.81 133.58 92.26 133.39 92.1 133.21 91.94"/><polygon points="134.18 92.94 135.59 91.29 135.78 91.45 135.96 91.61 134.56 93.26 134.37 93.1 134.18 92.94"/><g class="cls-1"><text class="cls-2" transform="translate(135.75 96.84)">O</text><text class="cls-2" transform="translate(139.98 96.84)">H</text></g></svg>