<svg id="图层_1" data-name="图层 1" xmlns="http://www.w3.org/2000/svg" viewBox="0 0 200 130"><defs><style>.cls-1,.cls-2,.cls-3{isolation:isolate;}.cls-2{font-size:5.5px;}.cls-2,.cls-3{font-family:ArialMT, Arial;}.cls-3{font-size:3.39px;}</style></defs><title>Streptomycin_Simi_compound6</title><polygon points="116.81 94.17 117.31 93.97 117.41 94.2 117.5 94.43 117 94.63 116.91 94.4 116.81 94.17"/><polygon points="117.23 95.43 117.9 95.16 117.99 95.39 118.09 95.63 117.41 95.9 117.32 95.67 117.23 95.43"/><polygon points="117.64 96.7 118.48 96.36 118.58 96.59 118.67 96.82 117.83 97.16 117.73 96.93 117.64 96.7"/><polygon points="118.05 97.97 119.07 97.56 119.16 97.79 119.25 98.02 118.24 98.43 118.14 98.2 118.05 97.97"/><polygon points="118.46 99.23 119.65 98.75 119.74 98.98 119.84 99.21 118.65 99.69 118.56 99.46 118.46 99.23"/><polygon points="118.87 100.5 120.23 99.95 120.33 100.18 120.42 100.41 119.06 100.96 118.97 100.73 118.87 100.5"/><polygon points="119.28 101.76 120.82 101.14 120.91 101.38 121 101.61 119.47 102.23 119.38 102 119.28 101.76"/><polygon points="119.7 103.03 121.4 102.34 121.5 102.57 121.59 102.8 119.88 103.49 119.79 103.26 119.7 103.03"/><polygon points="120.11 104.3 121.99 103.54 122.08 103.77 122.17 104 120.3 104.76 120.2 104.53 120.11 104.3"/><polygon points="120.52 105.56 122.57 104.73 122.66 104.96 122.76 105.2 120.71 106.03 120.61 105.79 120.52 105.56"/><polygon points="116.94 93.75 123.36 83.48 123.66 83.45 123.88 83.59 117.27 94.17 117.05 94.04 116.94 93.75"/><polygon points="123.36 83.48 115.56 74.19 115.64 73.9 115.92 73.84 123.68 83.08 123.66 83.45 123.36 83.48"/><polygon points="115.56 74.19 104.33 78.74 104.07 78.58 104.11 78.29 115.42 73.72 115.64 73.9 115.56 74.19"/><polygon points="104.33 78.74 105 88.23 104.75 88.25 104.5 88.27 103.83 78.73 104.07 78.58 104.33 78.74"/><g class="cls-1"><text class="cls-2" transform="translate(102.8 93.25)">O</text></g><polygon points="107.64 91.44 116.94 93.75 117.05 94.04 116.99 94.28 107.52 91.92 107.58 91.68 107.64 91.44"/><polygon points="103.83 78.73 95.53 74.57 96.12 73.61 96.72 72.66 104.11 78.29 104.07 78.58 103.83 78.73"/><g class="cls-1"><text class="cls-2" transform="translate(91.34 74.2)">O</text></g><polygon points="82.46 77.53 90.31 72.38 90.84 73.37 91.37 74.36 82.71 78 82.47 77.83 82.46 77.53"/><polygon points="82.21 77.96 71.87 71.51 71.88 71.22 72.01 71.01 82.46 77.53 82.47 77.83 82.21 77.96"/><polygon points="71.87 71.51 61.11 77.23 60.86 77.08 60.89 76.79 71.76 71 71.88 71.22 71.87 71.51"/><polygon points="61.11 77.23 60.69 89.42 60.43 89.56 60.18 89.55 60.61 77.23 60.86 77.08 61.11 77.23"/><polygon points="60.69 89.42 71.03 95.88 71.02 96.16 70.75 96.29 60.3 89.77 60.43 89.56 60.69 89.42"/><polygon points="71.03 95.88 81.79 90.15 82.03 90.3 82.15 90.52 71.28 96.31 71.02 96.16 71.03 95.88"/><polygon points="81.92 90.56 82.21 90.09 82.43 90.22 82.64 90.35 82.34 90.82 82.13 90.69 81.92 90.56"/><polygon points="83.1 91.45 83.54 90.75 83.75 90.88 83.96 91.02 83.52 91.72 83.31 91.58 83.1 91.45"/><polygon points="84.27 92.35 84.86 91.41 85.07 91.55 85.28 91.68 84.7 92.61 84.48 92.48 84.27 92.35"/><polygon points="85.45 93.24 86.18 92.08 86.39 92.21 86.6 92.34 85.87 93.51 85.66 93.38 85.45 93.24"/><polygon points="86.62 94.14 87.5 92.74 87.71 92.87 87.92 93 87.05 94.41 86.84 94.27 86.62 94.14"/><polygon points="87.8 95.04 88.82 93.4 89.03 93.53 89.24 93.67 88.22 95.3 88.01 95.17 87.8 95.04"/><polygon points="88.97 95.93 90.14 94.07 90.35 94.2 90.56 94.33 89.4 96.2 89.19 96.06 88.97 95.93"/><g class="cls-1"><text class="cls-2" transform="translate(90.48 99.14)">O</text><text class="cls-2" transform="translate(94.76 99.14)">H</text></g><polygon points="81.79 90.15 82.21 77.96 82.47 77.83 82.71 78 82.28 90.31 82.03 90.3 81.79 90.15"/><polygon points="71.28 96.31 71.81 105.9 70.68 105.86 69.56 105.82 70.75 96.29 71.02 96.16 71.28 96.31"/><g class="cls-1"><text class="cls-2" transform="translate(64.47 110.87)">H</text><text class="cls-2" transform="translate(68.45 110.87)">O</text></g><polygon points="60.27 89.33 60.53 89.82 60.31 89.93 60.09 90.05 59.83 89.56 60.05 89.45 60.27 89.33"/><polygon points="58.86 89.92 59.25 90.65 59.03 90.77 58.81 90.89 58.42 90.16 58.64 90.04 58.86 89.92"/><polygon points="57.45 90.52 57.97 91.49 57.75 91.61 57.53 91.72 57.01 90.75 57.23 90.63 57.45 90.52"/><polygon points="56.05 91.11 56.69 92.32 56.47 92.44 56.25 92.56 55.6 91.34 55.83 91.23 56.05 91.11"/><polygon points="54.64 91.7 55.41 93.16 55.19 93.28 54.97 93.39 54.2 91.94 54.42 91.82 54.64 91.7"/><polygon points="53.23 92.3 54.14 94 53.92 94.11 53.7 94.23 52.79 92.53 53.01 92.41 53.23 92.3"/><polygon points="51.82 92.89 52.86 94.83 52.64 94.95 52.42 95.07 51.38 93.12 51.6 93.01 51.82 92.89"/><g class="cls-1"><text class="cls-2" transform="translate(47.43 97.65)">N</text></g><polygon points="46.77 94.05 40.07 88.25 40.23 88.06 40.39 87.87 47.09 93.68 46.93 93.86 46.77 94.05"/><polygon points="47.62 92.83 38.84 89.08 38.83 88.81 39.09 88.64 47.82 92.36 47.72 92.59 47.62 92.83"/><polygon points="38.84 89.08 30.41 93.57 30.3 93.35 30.18 93.13 38.59 88.66 38.83 88.81 38.84 89.08"/><g class="cls-1"><text class="cls-2" transform="translate(20.02 96.19)">H</text><text class="cls-3" transform="translate(23.99 97.04)">2</text><text class="cls-2" transform="translate(25.87 96.19)">N</text></g><polygon points="38.59 88.66 38.91 79.1 39.16 79.11 39.41 79.12 39.09 88.64 38.83 88.81 38.59 88.66"/><g class="cls-1"><text class="cls-2" transform="translate(37.27 77.86)">N</text><text class="cls-2" transform="translate(41.25 77.86)">H</text><text class="cls-3" transform="translate(45.22 78.7)">2</text></g><polygon points="60.61 77.23 52.32 73.07 52.92 72.12 53.51 71.17 60.89 76.79 60.86 77.08 60.61 77.23"/><g class="cls-1"><text class="cls-2" transform="translate(44.16 72.7)">H</text><text class="cls-2" transform="translate(48.14 72.7)">O</text></g><polygon points="72.16 71.19 71.61 71.17 71.61 70.92 71.62 70.67 72.17 70.69 72.17 70.94 72.16 71.19"/><polygon points="72.35 69.67 71.52 69.64 71.53 69.39 71.54 69.14 72.36 69.17 72.36 69.42 72.35 69.67"/><polygon points="72.54 68.15 71.44 68.11 71.44 67.86 71.45 67.61 72.55 67.65 72.55 67.9 72.54 68.15"/><polygon points="72.73 66.63 71.35 66.58 71.36 66.33 71.37 66.08 72.75 66.13 72.74 66.38 72.73 66.63"/><polygon points="72.92 65.1 71.27 65.05 71.28 64.8 71.28 64.55 72.94 64.6 72.93 64.85 72.92 65.1"/><polygon points="73.11 63.58 71.18 63.51 71.19 63.27 71.2 63.02 73.13 63.08 73.12 63.33 73.11 63.58"/><polygon points="73.3 62.06 71.1 61.98 71.11 61.73 71.11 61.48 73.31 61.56 73.31 61.81 73.3 62.06"/><g class="cls-1"><text class="cls-2" transform="translate(70.32 60.98)">N</text></g><polygon points="74.72 57.19 83.19 54.23 83.27 54.47 83.36 54.71 74.88 57.66 74.8 57.42 74.72 57.19"/><polygon points="75.35 58.55 83.08 52.76 83.33 52.88 83.34 53.19 75.65 58.95 75.5 58.75 75.35 58.55"/><polygon points="83.08 52.76 83.41 43.18 83.66 43.19 83.91 43.2 83.58 52.75 83.33 52.88 83.08 52.76"/><g class="cls-1"><text class="cls-2" transform="translate(81.77 41.93)">N</text><text class="cls-2" transform="translate(85.75 41.93)">H</text><text class="cls-3" transform="translate(89.72 42.78)">2</text></g><polygon points="83.58 52.75 91.56 57.73 91.43 57.94 91.3 58.15 83.34 53.19 83.33 52.88 83.58 52.75"/><g class="cls-1"><text class="cls-2" transform="translate(91.93 61.01)">N</text><text class="cls-2" transform="translate(95.9 61.01)">H</text><text class="cls-3" transform="translate(99.88 61.86)">2</text></g><polygon points="115.42 73.72 116.87 64.29 117.96 64.56 119.05 64.83 115.92 73.84 115.64 73.9 115.42 73.72"/><g class="cls-1"><text class="cls-2" transform="translate(116.51 64.02)">O</text></g><polygon points="130.59 58.63 121.6 62.11 121.29 61.03 120.98 59.95 130.44 58.13 130.65 58.34 130.59 58.63"/><polygon points="130.44 58.13 133.38 46.33 133.66 46.23 133.87 46.43 130.93 58.26 130.65 58.34 130.44 58.13"/><polygon points="133.75 45.95 145.59 42.55 145.66 42.79 145.59 43.07 133.87 46.43 133.66 46.23 133.75 45.95"/><polygon points="145.83 42.61 154.7 51.16 154.64 51.45 154.36 51.53 145.59 43.07 145.66 42.79 145.83 42.61"/><polygon points="154.84 51.67 151.87 63.63 151.62 63.56 151.41 63.37 154.36 51.53 154.64 51.45 154.84 51.67"/><polygon points="151.69 63.8 142.34 66.49 142.27 66.25 142.2 66.01 151.41 63.37 151.62 63.56 151.69 63.8"/><g class="cls-1"><text class="cls-2" transform="translate(137.49 69.24)">O</text></g><polygon points="136.81 64.64 130.59 58.63 130.65 58.34 130.93 58.26 137.16 64.28 136.99 64.46 136.81 64.64"/><polygon points="151.46 63.78 151.83 63.39 152.01 63.57 152.19 63.74 151.82 64.13 151.64 63.95 151.46 63.78"/><polygon points="152.35 64.77 152.85 64.25 153.03 64.42 153.21 64.59 152.71 65.11 152.53 64.94 152.35 64.77"/><polygon points="153.24 65.76 153.87 65.1 154.05 65.28 154.23 65.45 153.6 66.1 153.42 65.93 153.24 65.76"/><polygon points="154.13 66.75 154.89 65.96 155.07 66.13 155.25 66.3 154.49 67.09 154.31 66.92 154.13 66.75"/><polygon points="155.02 67.74 155.91 66.81 156.09 66.99 156.27 67.16 155.38 68.08 155.2 67.91 155.02 67.74"/><polygon points="155.91 68.72 156.93 67.67 157.11 67.84 157.29 68.02 156.27 69.07 156.09 68.9 155.91 68.72"/><polygon points="156.8 69.71 157.95 68.52 158.13 68.7 158.31 68.87 157.16 70.06 156.98 69.89 156.8 69.71"/><polygon points="157.69 70.7 158.97 69.38 159.15 69.55 159.33 69.72 158.05 71.05 157.88 70.88 157.69 70.7"/><polygon points="158.59 71.69 159.99 70.23 160.17 70.41 160.35 70.58 158.94 72.04 158.77 71.86 158.59 71.69"/><polygon points="159.48 72.68 161.01 71.09 161.19 71.26 161.37 71.44 159.84 73.03 159.66 72.85 159.48 72.68"/><polygon points="160.95 71.87 169.89 69.3 169.96 69.54 170.03 69.78 160.26 72.59 160.6 72.23 160.95 71.87"/><g class="cls-1"><text class="cls-2" transform="translate(170.46 71.01)">O</text><text class="cls-2" transform="translate(174.74 71.01)">H</text></g><polygon points="154.7 51.16 163.68 47.69 163.99 48.77 164.3 49.85 154.84 51.67 154.64 51.45 154.7 51.16"/><g class="cls-1"><text class="cls-2" transform="translate(164.49 50.24)">O</text><text class="cls-2" transform="translate(168.77 50.24)">H</text></g><polygon points="145.94 42.82 145.4 42.69 145.46 42.44 145.52 42.2 146.06 42.33 146 42.58 145.94 42.82"/><polygon points="146.43 41.38 145.63 41.18 145.69 40.94 145.75 40.7 146.56 40.9 146.5 41.14 146.43 41.38"/><polygon points="146.93 39.95 145.87 39.68 145.93 39.44 145.99 39.2 147.05 39.46 146.99 39.7 146.93 39.95"/><polygon points="147.43 38.51 146.1 38.18 146.16 37.94 146.22 37.69 147.55 38.03 147.49 38.27 147.43 38.51"/><polygon points="147.93 37.08 146.33 36.68 146.39 36.43 146.45 36.19 148.05 36.59 147.99 36.83 147.93 37.08"/><polygon points="148.43 35.64 146.56 35.17 146.62 34.93 146.68 34.69 148.55 35.15 148.49 35.4 148.43 35.64"/><polygon points="148.93 34.2 146.79 33.67 146.85 33.43 146.91 33.19 149.05 33.72 148.99 33.96 148.93 34.2"/><g class="cls-1"><text class="cls-2" transform="translate(146.53 32.91)">O</text><text class="cls-2" transform="translate(150.81 32.91)">H</text></g><polygon points="133.38 46.33 126.39 40.77 127.17 39.97 127.95 39.16 133.75 45.95 133.66 46.23 133.38 46.33"/><g class="cls-1"><text class="cls-2" transform="translate(118.72 39.8)">H</text><text class="cls-2" transform="translate(122.7 39.8)">N</text></g><polygon points="125.13 34.73 127.45 25.39 127.7 25.46 127.94 25.52 125.62 34.85 125.37 34.79 125.13 34.73"/><polygon points="123.68 83.08 132.25 74.2 132.33 74.47 132.41 74.75 123.84 83.63 123.66 83.45 123.68 83.08"/><polygon points="132.25 74.2 141.86 76.59 141.8 76.83 141.74 77.07 132.41 74.75 132.33 74.47 132.25 74.2"/><polygon points="132.87 75.89 141.5 78.04 141.44 78.28 141.38 78.53 132.75 76.38 132.81 76.14 132.87 75.89"/><g class="cls-1"><text class="cls-2" transform="translate(142.3 79.72)">O</text></g><polygon points="123.52 83.7 123.87 83.26 124.06 83.41 124.26 83.57 123.92 84 123.72 83.85 123.52 83.7"/><polygon points="124.57 84.69 125.08 84.03 125.28 84.19 125.47 84.34 124.96 84.99 124.77 84.84 124.57 84.69"/><polygon points="125.61 85.68 126.29 84.81 126.49 84.96 126.69 85.11 126.01 85.98 125.81 85.83 125.61 85.68"/><polygon points="126.66 86.67 127.5 85.58 127.7 85.73 127.9 85.89 127.05 86.97 126.85 86.82 126.66 86.67"/><polygon points="127.7 87.66 128.72 86.35 128.91 86.51 129.11 86.66 128.09 87.96 127.9 87.81 127.7 87.66"/><polygon points="128.75 88.64 129.93 87.13 130.13 87.28 130.32 87.43 129.14 88.95 128.94 88.8 128.75 88.64"/><polygon points="129.79 89.63 131.14 87.9 131.34 88.05 131.54 88.21 130.18 89.94 129.99 89.79 129.79 89.63"/><g class="cls-1"><text class="cls-2" transform="translate(131.36 93.36)">O</text><text class="cls-2" transform="translate(135.64 93.36)">H</text></g></svg>