<svg id="图层_1" data-name="图层 1" xmlns="http://www.w3.org/2000/svg" viewBox="0 0 200 130"><defs><style>.cls-1,.cls-2,.cls-3{isolation:isolate;}.cls-2{font-size:5.4px;}.cls-2,.cls-3{font-family:ArialMT, Arial;}.cls-3{font-size:3.32px;}</style></defs><title>Streptomycin_Simi_compound1</title><polygon points="89.75 36.86 89.22 36.92 89.2 36.68 89.17 36.43 89.7 36.38 89.72 36.62 89.75 36.86"/><polygon points="89.7 35.56 89 35.63 88.97 35.39 88.94 35.15 89.65 35.07 89.68 35.32 89.7 35.56"/><polygon points="89.66 34.26 88.77 34.35 88.74 34.1 88.72 33.86 89.61 33.77 89.63 34.01 89.66 34.26"/><polygon points="89.61 32.95 88.54 33.06 88.52 32.82 88.49 32.58 89.56 32.46 89.59 32.71 89.61 32.95"/><polygon points="89.57 31.65 88.32 31.78 88.29 31.53 88.27 31.29 89.52 31.16 89.54 31.4 89.57 31.65"/><polygon points="89.52 30.34 88.09 30.49 88.07 30.25 88.04 30 89.47 29.85 89.5 30.1 89.52 30.34"/><polygon points="89.48 29.04 87.86 29.2 87.84 28.96 87.81 28.72 89.43 28.55 89.45 28.79 89.48 29.04"/><polygon points="89.43 27.73 87.64 27.92 87.61 27.68 87.59 27.43 89.38 27.25 89.41 27.49 89.43 27.73"/><polygon points="89.39 26.43 87.41 26.63 87.39 26.39 87.36 26.15 89.34 25.94 89.36 26.18 89.39 26.43"/><polygon points="89.34 25.12 87.19 25.35 87.16 25.11 87.14 24.86 89.29 24.64 89.32 24.88 89.34 25.12"/><polygon points="89.52 37.22 80.69 45.17 80.39 45.11 80.23 44.92 89.32 36.74 89.49 36.92 89.52 37.22"/><polygon points="80.69 45.17 85.51 56.03 85.36 56.29 85.14 56.39 80.28 45.45 80.39 45.11 80.69 45.17"/><polygon points="85.51 56.03 97.33 54.79 97.53 55.01 97.42 55.27 85.39 56.53 85.36 56.29 85.51 56.03"/><polygon points="97.33 54.79 99.27 45.72 99.5 45.77 99.74 45.82 97.8 54.93 97.53 55.01 97.33 54.79"/><g class="cls-1"><text class="cls-2" transform="translate(97.98 45.23)">O</text></g><polygon points="97.37 41.76 89.52 37.22 89.49 36.92 89.61 36.71 97.62 41.34 97.5 41.55 97.37 41.76"/><polygon points="97.8 54.93 104.09 60.65 103.27 61.39 102.45 62.13 97.42 55.27 97.53 55.01 97.8 54.93"/><g class="cls-1"><text class="cls-2" transform="translate(103.62 66.3)">O</text></g><polygon points="117.61 61.85 108.54 64.64 108.31 63.56 108.08 62.48 117.51 61.35 117.69 61.57 117.61 61.85"/><polygon points="117.97 61.51 125.96 70.4 125.88 70.67 125.69 70.83 117.61 61.85 117.69 61.57 117.97 61.51"/><polygon points="125.96 70.4 137.66 67.92 137.85 68.13 137.74 68.4 125.93 70.91 125.88 70.67 125.96 70.4"/><polygon points="137.66 67.92 141.36 56.55 141.63 56.49 141.87 56.57 138.13 68.06 137.85 68.13 137.66 67.92"/><polygon points="141.36 56.55 133.36 47.66 133.45 47.39 133.73 47.35 141.81 56.33 141.63 56.49 141.36 56.55"/><polygon points="133.36 47.66 121.67 50.14 121.48 49.93 121.43 49.69 133.25 47.19 133.45 47.39 133.36 47.66"/><polygon points="121.65 49.72 121.25 50.09 121.08 49.9 120.92 49.72 121.33 49.36 121.49 49.54 121.65 49.72"/><polygon points="120.86 48.63 120.25 49.18 120.09 49 119.92 48.81 120.53 48.27 120.69 48.45 120.86 48.63"/><polygon points="120.06 47.55 119.25 48.27 119.09 48.09 118.92 47.91 119.73 47.18 119.89 47.37 120.06 47.55"/><polygon points="119.26 46.46 118.26 47.36 118.09 47.18 117.93 47 118.93 46.1 119.1 46.28 119.26 46.46"/><polygon points="118.46 45.37 117.26 46.46 117.1 46.27 116.93 46.09 118.14 45.01 118.3 45.19 118.46 45.37"/><polygon points="117.67 44.29 116.26 45.55 116.1 45.37 115.94 45.19 117.34 43.92 117.5 44.1 117.67 44.29"/><polygon points="116.87 43.2 115.27 44.64 115.1 44.46 114.94 44.28 116.54 42.84 116.7 43.02 116.87 43.2"/><g class="cls-1"><text class="cls-2" transform="translate(107.3 43.02)">H</text><text class="cls-2" transform="translate(111.19 43.02)">O</text></g><polygon points="121.67 50.14 117.97 61.51 117.69 61.57 117.51 61.35 121.24 49.86 121.48 49.93 121.67 50.14"/><polygon points="133.25 47.19 135.3 38.14 136.35 38.48 137.4 38.82 133.73 47.35 133.45 47.39 133.25 47.19"/><g class="cls-1"><text class="cls-2" transform="translate(135.14 37.94)">O</text><text class="cls-2" transform="translate(139.33 37.94)">H</text></g><polygon points="141.72 56.75 141.61 56.22 141.85 56.17 142.09 56.12 142.2 56.65 141.96 56.7 141.72 56.75"/><polygon points="143.04 56.59 142.88 55.83 143.12 55.78 143.36 55.73 143.52 56.49 143.28 56.54 143.04 56.59"/><polygon points="144.35 56.43 144.14 55.45 144.38 55.4 144.62 55.35 144.83 56.33 144.59 56.38 144.35 56.43"/><polygon points="145.66 56.27 145.41 55.06 145.65 55.01 145.88 54.96 146.14 56.17 145.9 56.22 145.66 56.27"/><polygon points="146.97 56.11 146.67 54.67 146.91 54.62 147.15 54.57 147.45 56.01 147.22 56.06 146.97 56.11"/><polygon points="148.29 55.95 147.94 54.29 148.18 54.24 148.41 54.19 148.77 55.85 148.53 55.9 148.29 55.95"/><polygon points="149.6 55.79 149.2 53.9 149.44 53.85 149.68 53.8 150.08 55.69 149.84 55.74 149.6 55.79"/><polygon points="150.91 55.63 150.47 53.51 150.7 53.46 150.94 53.41 151.39 55.52 151.15 55.58 150.91 55.63"/><g class="cls-1"><text class="cls-2" transform="translate(151.66 56.14)">N</text></g><polygon points="156.25 56.53 160.49 63.24 160.28 63.37 160.07 63.5 155.84 56.79 156.04 56.66 156.25 56.53"/><polygon points="155.1 57.45 161.85 62.79 161.79 63.05 161.5 63.14 154.8 57.84 154.95 57.64 155.1 57.45"/><polygon points="161.85 62.79 171.27 60.79 171.32 61.03 171.37 61.27 161.98 63.26 161.79 63.05 161.85 62.79"/><g class="cls-1"><text class="cls-2" transform="translate(171.81 62)">N</text><text class="cls-2" transform="translate(175.71 62)">H</text><text class="cls-3" transform="translate(179.61 62.83)">2</text></g><polygon points="161.98 63.26 159.12 72.04 158.89 71.97 158.66 71.89 161.5 63.14 161.79 63.05 161.98 63.26"/><g class="cls-1"><text class="cls-2" transform="translate(150.36 76.18)">H</text><text class="cls-3" transform="translate(154.26 77.01)">2</text><text class="cls-2" transform="translate(156.1 76.18)">N</text></g><polygon points="138.13 68.06 144.4 73.77 143.58 74.5 142.76 75.24 137.74 68.4 137.85 68.13 138.13 68.06"/><g class="cls-1"><text class="cls-2" transform="translate(143.93 79.41)">O</text><text class="cls-2" transform="translate(148.13 79.41)">H</text></g><polygon points="125.61 70.62 126.12 70.79 126.05 71.02 125.97 71.25 125.45 71.09 125.53 70.85 125.61 70.62"/><polygon points="125.02 71.98 125.79 72.23 125.72 72.47 125.64 72.7 124.87 72.45 124.95 72.21 125.02 71.98"/><polygon points="124.44 73.34 125.47 73.68 125.39 73.91 125.31 74.14 124.29 73.81 124.36 73.58 124.44 73.34"/><polygon points="123.85 74.7 125.14 75.12 125.06 75.35 124.98 75.59 123.7 75.17 123.78 74.94 123.85 74.7"/><polygon points="123.27 76.06 124.81 76.56 124.73 76.8 124.66 77.03 123.12 76.53 123.19 76.3 123.27 76.06"/><polygon points="122.68 77.42 124.48 78.01 124.41 78.24 124.33 78.47 122.53 77.89 122.61 77.66 122.68 77.42"/><polygon points="122.1 78.79 124.15 79.45 124.08 79.69 124 79.92 121.95 79.25 122.02 79.02 122.1 78.79"/><g class="cls-1"><text class="cls-2" transform="translate(120.14 84.49)">N</text></g><polygon points="119.67 83.07 110.61 83.61 110.6 83.36 110.59 83.12 119.64 82.58 119.65 82.82 119.67 83.07"/><polygon points="119.43 81.62 110.31 85.03 110.12 84.84 110.19 84.56 119.26 81.16 119.35 81.39 119.43 81.62"/><polygon points="110.31 85.03 107.45 93.84 107.22 93.76 106.98 93.69 109.84 84.9 110.12 84.84 110.31 85.03"/><g class="cls-1"><text class="cls-2" transform="translate(98.69 97.97)">H</text><text class="cls-3" transform="translate(102.58 98.8)">2</text><text class="cls-2" transform="translate(104.43 97.97)">N</text></g><polygon points="109.84 84.9 104.19 78.62 104.37 78.46 104.55 78.29 110.19 84.56 110.12 84.84 109.84 84.9"/><g class="cls-1"><text class="cls-2" transform="translate(94.29 77.24)">H</text><text class="cls-3" transform="translate(98.19 78.07)">2</text><text class="cls-2" transform="translate(100.03 77.24)">N</text></g><polygon points="85.11 56.19 85.58 56.46 85.46 56.67 85.33 56.88 84.86 56.61 84.98 56.4 85.11 56.19"/><polygon points="84.28 57.35 84.98 57.76 84.86 57.97 84.73 58.19 84.03 57.78 84.16 57.57 84.28 57.35"/><polygon points="83.45 58.52 84.38 59.06 84.26 59.28 84.14 59.49 83.2 58.95 83.32 58.74 83.45 58.52"/><polygon points="82.62 59.69 83.78 60.37 83.66 60.58 83.54 60.79 82.37 60.12 82.49 59.9 82.62 59.69"/><polygon points="81.78 60.86 83.19 61.67 83.06 61.88 82.94 62.09 81.54 61.28 81.66 61.07 81.78 60.86"/><polygon points="80.95 62.03 82.59 62.98 82.47 63.19 82.34 63.4 80.71 62.45 80.83 62.24 80.95 62.03"/><polygon points="80.12 63.2 81.99 64.28 81.87 64.49 81.75 64.7 79.88 63.62 80 63.41 80.12 63.2"/><g class="cls-1"><text class="cls-2" transform="translate(77.14 69.07)">O</text></g><polygon points="67.14 66.62 76.65 65.78 76.65 66.88 76.65 67.98 67.14 67.13 67 66.88 67.14 66.62"/><polygon points="67.14 67.13 61.17 77.46 60.88 77.47 60.74 77.23 66.72 66.88 67 66.88 67.14 67.13"/><polygon points="60.72 77.72 48.64 77.71 48.64 77.47 48.78 77.22 60.74 77.23 60.88 77.47 60.72 77.72"/><polygon points="48.43 77.59 42.39 67.13 42.53 66.87 42.81 66.87 48.78 77.22 48.64 77.47 48.43 77.59"/><polygon points="42.39 66.61 48.44 56.15 48.65 56.27 48.79 56.52 42.81 66.87 42.53 66.87 42.39 66.61"/><polygon points="48.65 56.03 58.3 56.03 58.3 56.28 58.3 56.52 48.79 56.52 48.65 56.27 48.65 56.03"/><g class="cls-1"><text class="cls-2" transform="translate(58.79 58.46)">O</text></g><polygon points="62.67 58.88 67.14 66.62 67 66.88 66.72 66.88 62.25 59.12 62.46 59 62.67 58.88"/><polygon points="48.87 56.12 48.41 56.38 48.28 56.17 48.16 55.95 48.62 55.69 48.74 55.9 48.87 56.12"/><polygon points="48.29 54.94 47.68 55.3 47.56 55.09 47.43 54.87 48.05 54.52 48.17 54.73 48.29 54.94"/><polygon points="47.72 53.77 46.95 54.21 46.83 54 46.7 53.79 47.48 53.34 47.6 53.56 47.72 53.77"/><polygon points="47.15 52.59 46.22 53.13 46.1 52.92 45.97 52.71 46.91 52.17 47.03 52.38 47.15 52.59"/><polygon points="46.58 51.42 45.49 52.05 45.37 51.84 45.24 51.63 46.33 51 46.46 51.21 46.58 51.42"/><polygon points="46.01 50.25 44.76 50.97 44.64 50.76 44.52 50.54 45.76 49.82 45.88 50.04 46.01 50.25"/><polygon points="45.43 49.07 44.03 49.88 43.91 49.67 43.78 49.46 45.19 48.65 45.31 48.86 45.43 49.07"/><polygon points="44.86 47.9 43.3 48.8 43.18 48.59 43.05 48.38 44.62 47.48 44.74 47.69 44.86 47.9"/><polygon points="44.29 46.73 42.57 47.72 42.45 47.51 42.33 47.3 44.05 46.3 44.17 46.52 44.29 46.73"/><polygon points="43.72 45.55 41.84 46.64 41.72 46.42 41.6 46.21 43.47 45.13 43.6 45.34 43.72 45.55"/><polygon points="42.11 45.92 32.89 45.91 32.89 45.67 32.89 45.42 42.96 45.43 42.54 45.67 42.11 45.92"/><g class="cls-1"><text class="cls-2" transform="translate(24.3 47.85)">H</text><text class="cls-2" transform="translate(28.2 47.85)">O</text></g><polygon points="42.39 67.13 32.88 67.97 32.88 66.86 32.88 65.76 42.39 66.61 42.53 66.87 42.39 67.13"/><g class="cls-1"><text class="cls-2" transform="translate(24.29 69.05)">H</text><text class="cls-2" transform="translate(28.19 69.05)">O</text></g><polygon points="48.39 77.37 48.86 77.64 48.73 77.85 48.61 78.06 48.14 77.79 48.26 77.58 48.39 77.37"/><polygon points="47.56 78.54 48.26 78.94 48.14 79.15 48.01 79.37 47.31 78.96 47.43 78.75 47.56 78.54"/><polygon points="46.73 79.7 47.66 80.25 47.54 80.46 47.42 80.67 46.48 80.13 46.6 79.92 46.73 79.7"/><polygon points="45.9 80.87 47.06 81.55 46.94 81.76 46.82 81.97 45.65 81.3 45.77 81.09 45.9 80.87"/><polygon points="45.06 82.04 46.47 82.85 46.34 83.06 46.22 83.28 44.82 82.47 44.94 82.25 45.06 82.04"/><polygon points="44.23 83.21 45.87 84.16 45.74 84.37 45.62 84.58 43.99 83.64 44.11 83.42 44.23 83.21"/><polygon points="43.4 84.38 45.27 85.46 45.15 85.67 45.02 85.88 43.16 84.81 43.28 84.59 43.4 84.38"/><g class="cls-1"><text class="cls-2" transform="translate(36.52 90.25)">H</text><text class="cls-2" transform="translate(40.42 90.25)">O</text></g><polygon points="61.17 77.46 66.38 84.8 65.42 85.35 64.47 85.9 60.72 77.72 60.88 77.47 61.17 77.46"/><g class="cls-1"><text class="cls-2" transform="translate(65.05 90.26)">N</text><text class="cls-2" transform="translate(68.94 90.26)">H</text></g><polygon points="65.63 90.92 61.08 98.79 60.87 98.67 60.66 98.55 65.21 90.67 65.42 90.8 65.63 90.92"/><polygon points="80.28 45.45 69.79 51.5 69.79 51.22 69.79 50.94 80.27 44.89 80.39 45.11 80.28 45.45"/><polygon points="69.79 51.5 61.66 46.81 61.78 46.59 61.9 46.38 69.79 50.94 69.79 51.22 69.79 51.5"/><polygon points="69.67 49.74 62.39 45.53 62.52 45.32 62.64 45.11 69.91 49.31 69.79 49.53 69.67 49.74"/><g class="cls-1"><text class="cls-2" transform="translate(57.09 47.28)">O</text></g><polygon points="80.59 44.91 80.15 45.23 80 45.03 79.86 44.84 80.3 44.52 80.44 44.72 80.59 44.91"/><polygon points="79.88 43.71 79.22 44.19 79.08 43.99 78.93 43.79 79.59 43.31 79.73 43.51 79.88 43.71"/><polygon points="79.17 42.5 78.3 43.14 78.15 42.94 78.01 42.74 78.88 42.11 79.03 42.31 79.17 42.5"/><polygon points="78.46 41.3 77.37 42.09 77.22 41.9 77.08 41.7 78.17 40.9 78.32 41.1 78.46 41.3"/><polygon points="77.75 40.09 76.44 41.05 76.3 40.85 76.16 40.65 77.47 39.7 77.61 39.9 77.75 40.09"/><polygon points="77.05 38.89 75.52 40 75.37 39.8 75.23 39.6 76.76 38.49 76.9 38.69 77.05 38.89"/><polygon points="76.34 37.69 74.59 38.95 74.45 38.75 74.3 38.56 76.05 37.29 76.19 37.49 76.34 37.69"/><g class="cls-1"><text class="cls-2" transform="translate(67.21 37.39)">H</text><text class="cls-2" transform="translate(71.1 37.39)">O</text></g></svg>