<svg id="图层_1" data-name="图层 1" xmlns="http://www.w3.org/2000/svg" viewBox="0 0 200 130"><defs><style>.cls-1,.cls-2,.cls-3{isolation:isolate;}.cls-2{font-size:5.3px;}.cls-2,.cls-3{font-family:ArialMT, Arial;}.cls-3{font-size:3.26px;}</style></defs><title>Streptomycin_Simi_compound8</title><polygon points="118.89 84.84 124.31 95.49 123.31 95.91 122.32 96.33 118.44 85.04 118.62 84.83 118.89 84.84"/><polygon points="118.5 84.56 124.52 74.55 124.82 74.53 125.02 74.65 118.89 84.84 118.62 84.83 118.5 84.56"/><polygon points="124.52 74.55 116.86 65.73 116.93 65.44 117.2 65.39 124.82 74.17 124.82 74.53 124.52 74.55"/><polygon points="116.86 65.73 106.11 70.3 105.86 70.14 105.89 69.87 116.71 65.28 116.93 65.44 116.86 65.73"/><polygon points="106.11 70.3 106.91 79.43 106.67 79.45 106.43 79.47 105.63 70.3 105.86 70.14 106.11 70.3"/><g class="cls-1"><text class="cls-2" transform="translate(104.84 84.27)">O</text></g><polygon points="109.5 82.48 118.5 84.56 118.62 84.83 118.44 85.04 109.39 82.95 109.44 82.71 109.5 82.48"/><polygon points="105.63 70.3 97.53 66.4 98.09 65.47 98.65 64.55 105.89 69.87 105.86 70.14 105.63 70.3"/><g class="cls-1"><text class="cls-2" transform="translate(93.48 66.09)">O</text></g><polygon points="85.19 69.99 84.93 69.52 85.14 69.4 85.35 69.29 85.61 69.75 85.4 69.87 85.19 69.99"/><polygon points="86.5 69.41 86.12 68.71 86.33 68.59 86.54 68.48 86.92 69.17 86.71 69.29 86.5 69.41"/><polygon points="87.82 68.83 87.31 67.9 87.52 67.78 87.73 67.67 88.24 68.6 88.03 68.71 87.82 68.83"/><polygon points="89.14 68.25 88.5 67.09 88.71 66.97 88.92 66.86 89.56 68.02 89.35 68.13 89.14 68.25"/><polygon points="90.46 67.67 89.69 66.28 89.9 66.16 90.11 66.05 90.88 67.44 90.67 67.55 90.46 67.67"/><polygon points="91.78 67.09 90.88 65.47 91.09 65.35 91.3 65.23 92.2 66.86 91.99 66.98 91.78 67.09"/><polygon points="93.09 66.51 92.07 64.66 92.28 64.54 92.49 64.42 93.52 66.28 93.31 66.4 93.09 66.51"/><polygon points="84.78 69.91 74.71 63.85 74.71 63.57 74.84 63.37 85.15 69.57 85.02 69.77 84.78 69.91"/><polygon points="74.71 63.85 64.43 69.55 64.19 69.4 64.08 69.19 74.6 63.36 74.71 63.57 74.71 63.85"/><polygon points="64.43 69.55 64.22 81.29 63.98 81.43 63.74 81.42 63.95 69.4 64.19 69.4 64.43 69.55"/><polygon points="64.22 81.29 74.29 87.35 74.29 87.63 74.16 87.83 63.85 81.64 63.98 81.43 64.22 81.29"/><polygon points="74.29 87.35 84.57 81.66 84.81 81.8 84.93 82.01 74.4 87.84 74.29 87.63 74.29 87.35"/><polygon points="84.7 82.05 84.98 81.59 85.19 81.71 85.39 81.84 85.12 82.3 84.91 82.17 84.7 82.05"/><polygon points="85.86 82.89 86.27 82.21 86.47 82.33 86.68 82.46 86.27 83.14 86.06 83.02 85.86 82.89"/><polygon points="87.01 83.74 87.56 82.83 87.76 82.95 87.97 83.08 87.42 83.99 87.22 83.86 87.01 83.74"/><polygon points="88.16 84.59 88.84 83.45 89.05 83.58 89.26 83.7 88.57 84.84 88.37 84.71 88.16 84.59"/><polygon points="89.31 85.44 90.13 84.07 90.34 84.19 90.55 84.32 89.72 85.68 89.52 85.56 89.31 85.44"/><polygon points="90.46 86.28 91.42 84.69 91.63 84.81 91.83 84.94 90.88 86.53 90.67 86.41 90.46 86.28"/><polygon points="91.62 87.13 92.71 85.31 92.92 85.44 93.12 85.56 92.03 87.38 91.82 87.25 91.62 87.13"/><g class="cls-1"><text class="cls-2" transform="translate(93.06 90.15)">O</text><text class="cls-2" transform="translate(97.18 90.15)">H</text></g><polygon points="84.57 81.66 84.78 69.91 85.02 69.77 85.26 69.78 85.05 81.8 84.81 81.8 84.57 81.66"/><polygon points="74.02 87.66 74.55 87.67 74.55 87.91 74.54 88.15 74.01 88.14 74.02 87.9 74.02 87.66"/><polygon points="73.86 89.13 74.66 89.14 74.65 89.38 74.65 89.63 73.85 89.61 73.86 89.37 73.86 89.13"/><polygon points="73.7 90.6 74.77 90.62 74.76 90.86 74.76 91.1 73.69 91.08 73.7 90.84 73.7 90.6"/><polygon points="73.55 92.07 74.87 92.09 74.87 92.33 74.86 92.57 73.54 92.55 73.54 92.31 73.55 92.07"/><polygon points="73.39 93.54 74.98 93.57 74.97 93.81 74.97 94.05 73.38 94.02 73.38 93.78 73.39 93.54"/><polygon points="73.23 95.01 75.08 95.04 75.08 95.28 75.08 95.52 73.22 95.49 73.22 95.25 73.23 95.01"/><polygon points="73.07 96.48 75.19 96.52 75.19 96.76 75.18 97 73.06 96.96 73.06 96.72 73.07 96.48"/><g class="cls-1"><text class="cls-2" transform="translate(72.01 101.8)">O</text><text class="cls-2" transform="translate(76.14 101.8)">H</text></g><polygon points="63.82 81.21 64.08 81.68 63.86 81.8 63.65 81.91 63.4 81.45 63.61 81.33 63.82 81.21"/><polygon points="62.47 81.81 62.86 82.5 62.65 82.62 62.44 82.74 62.05 82.04 62.26 81.92 62.47 81.81"/><polygon points="61.13 82.4 61.65 83.33 61.44 83.44 61.22 83.56 60.71 82.63 60.92 82.52 61.13 82.4"/><polygon points="59.79 82.99 60.43 84.15 60.22 84.27 60.01 84.39 59.37 83.22 59.58 83.11 59.79 82.99"/><polygon points="58.44 83.58 59.22 84.98 59.01 85.09 58.8 85.21 58.02 83.82 58.23 83.7 58.44 83.58"/><polygon points="57.1 84.18 58 85.8 57.79 85.92 57.58 86.03 56.68 84.41 56.89 84.29 57.1 84.18"/><polygon points="55.76 84.77 56.79 86.63 56.58 86.74 56.37 86.86 55.34 85 55.55 84.89 55.76 84.77"/><g class="cls-1"><text class="cls-2" transform="translate(51.54 89.41)">N</text></g><polygon points="50.91 86 44.33 80.5 44.48 80.32 44.64 80.13 51.21 85.63 51.06 85.82 50.91 86"/><polygon points="51.71 84.8 43.16 81.33 43.15 81.06 43.39 80.9 51.89 84.36 51.8 84.58 51.71 84.8"/><polygon points="43.16 81.33 35.14 85.77 35.02 85.56 34.9 85.35 42.91 80.92 43.15 81.06 43.16 81.33"/><g class="cls-1"><text class="cls-2" transform="translate(25.11 88.35)">H</text><text class="cls-3" transform="translate(28.94 89.17)">2</text><text class="cls-2" transform="translate(30.76 88.35)">N</text></g><polygon points="42.91 80.92 43.07 71.7 43.31 71.71 43.55 71.71 43.39 80.9 43.15 81.06 42.91 80.92"/><g class="cls-1"><text class="cls-2" transform="translate(41.45 70.5)">N</text><text class="cls-2" transform="translate(45.28 70.5)">H</text><text class="cls-3" transform="translate(49.11 71.31)">2</text></g><polygon points="64.3 69.15 64.02 69.61 63.82 69.49 63.61 69.36 63.88 68.91 64.09 69.03 64.3 69.15"/><polygon points="63.15 68.31 62.73 68.99 62.53 68.87 62.32 68.74 62.73 68.06 62.94 68.18 63.15 68.31"/><polygon points="61.99 67.46 61.45 68.37 61.24 68.25 61.03 68.12 61.58 67.21 61.79 67.34 61.99 67.46"/><polygon points="60.84 66.61 60.16 67.75 59.95 67.63 59.74 67.5 60.43 66.36 60.63 66.49 60.84 66.61"/><polygon points="59.69 65.77 58.87 67.13 58.66 67.01 58.46 66.88 59.28 65.52 59.48 65.64 59.69 65.77"/><polygon points="58.54 64.92 57.58 66.51 57.38 66.39 57.17 66.26 58.13 64.67 58.33 64.8 58.54 64.92"/><polygon points="57.38 64.07 56.29 65.89 56.09 65.77 55.88 65.64 56.97 63.82 57.18 63.95 57.38 64.07"/><g class="cls-1"><text class="cls-2" transform="translate(47.99 65.35)">H</text><text class="cls-2" transform="translate(51.82 65.35)">O</text></g><polygon points="74.98 63.54 74.45 63.53 74.45 63.29 74.46 63.05 74.99 63.06 74.98 63.3 74.98 63.54"/><polygon points="75.14 62.07 74.34 62.06 74.35 61.82 74.35 61.58 75.15 61.59 75.14 61.83 75.14 62.07"/><polygon points="75.3 60.6 74.24 60.58 74.24 60.34 74.25 60.1 75.31 60.12 75.3 60.36 75.3 60.6"/><polygon points="75.46 59.13 74.13 59.11 74.14 58.87 74.14 58.63 75.47 58.65 75.46 58.89 75.46 59.13"/><polygon points="75.61 57.66 74.02 57.63 74.03 57.39 74.03 57.15 75.62 57.18 75.62 57.42 75.61 57.66"/><polygon points="75.77 56.19 73.92 56.16 73.92 55.92 73.93 55.68 75.78 55.71 75.78 55.95 75.77 56.19"/><polygon points="75.93 54.72 73.81 54.68 73.81 54.44 73.82 54.2 75.94 54.24 75.94 54.48 75.93 54.72"/><g class="cls-1"><text class="cls-2" transform="translate(73.01 53.69)">N</text></g><polygon points="77.24 49.99 85.34 47.02 85.42 47.25 85.51 47.47 77.41 50.45 77.32 50.22 77.24 49.99"/><polygon points="77.88 51.29 85.21 45.6 85.45 45.72 85.47 46.01 78.17 51.67 78.02 51.48 77.88 51.29"/><polygon points="85.21 45.6 85.38 36.36 85.62 36.37 85.86 36.37 85.69 45.58 85.45 45.72 85.21 45.6"/><g class="cls-1"><text class="cls-2" transform="translate(83.75 35.16)">N</text><text class="cls-2" transform="translate(87.58 35.16)">H</text><text class="cls-3" transform="translate(91.41 35.97)">2</text></g><polygon points="85.69 45.58 93.49 50.27 93.36 50.48 93.24 50.68 85.47 46.01 85.45 45.72 85.69 45.58"/><g class="cls-1"><text class="cls-2" transform="translate(93.84 53.38)">N</text><text class="cls-2" transform="translate(97.68 53.38)">H</text><text class="cls-3" transform="translate(101.51 54.2)">2</text></g><polygon points="116.71 65.28 117.97 56.16 119.02 56.4 120.07 56.65 117.2 65.39 116.93 65.44 116.71 65.28"/><g class="cls-1"><text class="cls-2" transform="translate(117.57 55.87)">O</text></g><polygon points="131.09 50.49 122.5 53.98 122.18 52.95 121.87 51.91 130.94 50.01 131.14 50.21 131.09 50.49"/><polygon points="130.94 50.01 133.58 38.59 133.85 38.49 134.06 38.68 131.41 50.13 131.14 50.21 130.94 50.01"/><polygon points="133.93 38.22 145.14 34.79 145.36 34.98 145.29 35.25 134.06 38.68 133.85 38.49 133.93 38.22"/><polygon points="145.63 34.91 154.2 42.91 154.15 43.19 153.89 43.27 145.29 35.25 145.36 34.98 145.63 34.91"/><polygon points="154.35 43.39 151.71 54.81 151.44 54.91 151.24 54.72 153.89 43.27 154.15 43.19 154.35 43.39"/><polygon points="151.37 55.18 142.55 57.87 142.48 57.64 142.41 57.41 151.24 54.72 151.44 54.91 151.37 55.18"/><g class="cls-1"><text class="cls-2" transform="translate(137.87 60.57)">O</text></g><polygon points="137.23 56.22 131.09 50.49 131.14 50.21 131.41 50.13 137.56 55.87 137.39 56.05 137.23 56.22"/><polygon points="151.71 54.81 161.26 62.55 160.24 63.11 159.27 63.66 151.37 55.18 151.44 54.91 151.71 54.81"/><polygon points="161.26 62.55 169.13 60.15 169.2 60.38 169.27 60.6 159.27 63.66 160.24 63.11 161.26 62.55"/><g class="cls-1"><text class="cls-2" transform="translate(169.68 61.75)">O</text><text class="cls-2" transform="translate(173.8 61.75)">H</text></g><polygon points="154.2 42.91 162.79 39.41 163.11 40.45 163.43 41.48 154.35 43.39 154.15 43.19 154.2 42.91"/><g class="cls-1"><text class="cls-2" transform="translate(163.59 41.82)">O</text><text class="cls-2" transform="translate(167.72 41.82)">H</text></g><polygon points="145.14 34.79 146.39 25.69 147.45 25.93 148.5 26.18 145.63 34.91 145.36 34.98 145.14 34.79"/><g class="cls-1"><text class="cls-2" transform="translate(146 25.41)">O</text><text class="cls-2" transform="translate(150.13 25.41)">H</text></g><polygon points="133.58 38.59 126.72 33.31 127.45 32.52 128.19 31.73 133.93 38.22 133.85 38.49 133.58 38.59"/><g class="cls-1"><text class="cls-2" transform="translate(119.31 32.43)">H</text><text class="cls-2" transform="translate(123.14 32.43)">N</text></g><polygon points="125.44 27.56 127.53 18.51 127.77 18.57 128 18.62 125.91 27.66 125.68 27.61 125.44 27.56"/><polygon points="124.82 74.17 132.94 65.47 133.02 65.73 133.1 66 124.99 74.69 124.82 74.53 124.82 74.17"/><polygon points="132.94 65.47 142.25 67.62 142.2 67.85 142.15 68.09 133.1 66 133.02 65.73 132.94 65.47"/><polygon points="133.56 67.09 141.93 69.02 141.88 69.26 141.82 69.49 133.46 67.56 133.51 67.33 133.56 67.09"/><g class="cls-1"><text class="cls-2" transform="translate(142.68 70.59)">O</text></g><polygon points="124.69 74.76 125.01 74.34 125.2 74.48 125.39 74.63 125.07 75.05 124.88 74.91 124.69 74.76"/><polygon points="125.72 75.7 126.2 75.07 126.39 75.21 126.58 75.36 126.1 75.99 125.91 75.85 125.72 75.7"/><polygon points="126.74 76.64 127.38 75.8 127.58 75.94 127.77 76.08 127.13 76.93 126.94 76.79 126.74 76.64"/><polygon points="127.77 77.58 128.57 76.53 128.76 76.67 128.96 76.81 128.16 77.88 127.96 77.73 127.77 77.58"/><polygon points="128.8 78.53 129.76 77.25 129.95 77.4 130.14 77.55 129.18 78.81 128.99 78.67 128.8 78.53"/><polygon points="129.83 79.47 130.94 77.98 131.14 78.13 131.33 78.28 130.21 79.76 130.02 79.61 129.83 79.47"/><polygon points="130.86 80.41 132.13 78.72 132.32 78.86 132.52 79 131.24 80.7 131.05 80.55 130.86 80.41"/><g class="cls-1"><text class="cls-2" transform="translate(132.36 83.92)">O</text><text class="cls-2" transform="translate(136.48 83.92)">H</text></g></svg>