<svg id="图层_1" data-name="图层 1" xmlns="http://www.w3.org/2000/svg" viewBox="0 0 200 130"><defs><style>.cls-1,.cls-2{isolation:isolate;}.cls-2{font-size:10.79px;font-family:ArialMT, Arial;}</style></defs><title>Theophylline_Simi_compound5</title><polygon points="120.79 5.67 120.55 24.7 120.06 24.69 119.58 24.68 119.81 5.66 120.3 5.67 120.79 5.67"/><g class="cls-1"><text class="cls-2" transform="translate(116.1 34.5)">N</text></g><polygon points="115.36 33.29 99.15 42.39 98.67 42.1 98.62 41.57 114.89 32.44 115.13 32.87 115.36 33.29"/><polygon points="99.15 42.39 98.86 66.29 98.37 66.56 97.88 66.2 98.17 42.45 98.67 42.1 99.15 42.39"/><polygon points="96.19 44.21 95.95 64.4 95.46 64.4 94.97 64.39 95.22 44.2 95.7 44.2 96.19 44.21"/><polygon points="98.86 66.29 119.41 78.49 119.41 79.05 119.4 79.62 98.31 67.1 98.37 66.56 98.86 66.29"/><polygon points="121.37 78.23 121.13 98.1 120.64 98.09 120.15 98.09 120.39 78.22 120.88 78.22 121.37 78.23"/><polygon points="118.44 78.19 118.2 98.06 117.71 98.06 117.22 98.05 117.46 78.18 117.95 78.19 118.44 78.19"/><g class="cls-1"><text class="cls-2" transform="translate(114.91 107.88)">O</text></g><polygon points="119.41 78.49 135.63 69.39 135.86 69.82 136.1 70.24 119.4 79.62 119.41 79.05 119.41 78.49"/><g class="cls-1"><text class="cls-2" transform="translate(136.84 71.45)">N</text></g><polygon points="140.31 61.63 140.54 42.89 141.04 42.62 141.53 42.34 141.29 61.65 140.8 61.64 140.31 61.63"/><polygon points="139.34 41.33 156.24 31.84 156.47 32.27 156.71 32.7 139.82 42.18 139.58 41.75 139.34 41.33"/><polygon points="140.78 43.89 157.67 34.4 157.91 34.83 158.15 35.26 141.25 44.74 141.01 44.31 140.78 43.89"/><g class="cls-1"><text class="cls-2" transform="translate(158.17 35.01)">O</text></g><polygon points="140.54 42.89 124.62 33.45 124.87 33.02 125.12 32.6 141.53 42.34 141.04 42.62 140.54 42.89"/><polygon points="145.86 69.55 162.03 79.15 161.78 79.57 161.53 79.99 145.36 70.39 145.61 69.97 145.86 69.55"/><polygon points="98.31 67.1 80.03 72.79 79.89 72.32 79.74 71.86 97.88 66.2 98.37 66.56 98.31 67.1"/><g class="cls-1"><text class="cls-2" transform="translate(71.12 78.21)">N</text></g><g class="cls-1"><text class="cls-2" transform="translate(71.12 88.06)">H</text></g><polygon points="70.76 68.69 60.62 54.36 60.88 53.88 61.48 53.88 71.56 68.12 71.16 68.4 70.76 68.69"/><polygon points="60.63 53.39 71.05 39.41 71.44 39.7 71.83 40 61.48 53.88 60.88 53.88 60.63 53.39"/><polygon points="64.11 53.63 73.4 41.17 73.79 41.46 74.19 41.75 64.9 54.21 64.5 53.92 64.11 53.63"/><g class="cls-1"><text class="cls-2" transform="translate(71.6 38.63)">N</text></g><polygon points="80.52 35.45 98.62 41.57 98.67 42.1 98.17 42.45 80.21 36.38 80.37 35.91 80.52 35.45"/><polygon points="60.62 54.36 42.78 54.15 42.78 53.66 42.79 53.17 60.63 53.39 60.88 53.88 60.62 54.36"/><g class="cls-1"><text class="cls-2" transform="translate(31.02 57.95)">Br</text></g></svg>