<svg id="图层_1" data-name="图层 1" xmlns="http://www.w3.org/2000/svg" viewBox="0 0 200 130"><defs><style>.cls-1,.cls-2{isolation:isolate;}.cls-2{font-size:11.13px;font-family:ArialMT, Arial;}</style></defs><title>Theophylline_Simi_compound7</title><polygon points="113.74 15.97 113.4 35.6 112.89 35.59 112.39 35.58 112.73 15.95 113.24 15.96 113.74 15.97"/><g class="cls-1"><text class="cls-2" transform="translate(108.65 45.6) rotate(1.62)">N</text></g><polygon points="107.93 44.48 91.22 53.75 90.72 53.45 90.67 52.9 107.44 43.6 107.69 44.04 107.93 44.48"/><polygon points="91.22 53.75 90.79 78.41 90.28 78.69 89.78 78.32 90.2 53.81 90.72 53.45 91.22 53.75"/><polygon points="88.15 55.61 87.79 76.45 87.29 76.44 86.78 76.43 87.14 55.59 87.65 55.6 88.15 55.61"/><polygon points="90.79 78.41 111.93 91.12 111.92 91.7 111.91 92.28 90.21 79.24 90.28 78.69 90.79 78.41"/><polygon points="113.96 90.86 113.6 111.36 113.1 111.35 112.59 111.34 112.95 90.84 113.45 90.85 113.96 90.86"/><polygon points="110.93 90.81 110.57 111.31 110.07 111.3 109.56 111.29 109.92 90.79 110.42 90.8 110.93 90.81"/><g class="cls-1"><text class="cls-2" transform="translate(107.03 121.33) rotate(1.62)">O</text></g><polygon points="111.93 91.12 128.65 81.85 128.89 82.29 129.14 82.73 111.91 92.28 111.92 91.7 111.93 91.12"/><g class="cls-1"><text class="cls-2" transform="translate(129.86 83.85) rotate(1.62)">N</text><text class="cls-2" transform="translate(137.9 84.08) rotate(1.62)">H</text></g><polygon points="133.6 73.83 133.93 54.49 134.44 54.21 134.95 53.93 134.61 73.85 134.1 73.84 133.6 73.83"/><polygon points="132.7 52.87 150.12 43.21 150.36 43.65 150.61 44.09 133.19 53.75 132.94 53.31 132.7 52.87"/><polygon points="134.17 55.52 151.59 45.86 151.83 46.3 152.08 46.74 134.66 56.4 134.41 55.96 134.17 55.52"/><g class="cls-1"><text class="cls-2" transform="translate(152.07 46.35) rotate(1.62)">O</text></g><polygon points="133.93 54.49 117.48 44.61 117.75 44.18 118 43.75 134.95 53.93 134.44 54.21 133.93 54.49"/><polygon points="90.21 79.24 71.36 85.01 71.21 84.53 71.06 84.05 89.78 78.32 90.28 78.69 90.21 79.24"/><g class="cls-1"><text class="cls-2" transform="translate(61.99 90.48) rotate(1.62)">N</text></g><g class="cls-1"><text class="cls-2" transform="translate(61.7 100.64) rotate(1.62)">H</text></g><polygon points="61.7 80.64 51.02 65.39 51.65 65.4 52.27 65.41 62.53 80.06 62.12 80.35 61.7 80.64"/><polygon points="51.02 65.39 62.29 50.43 62.7 50.73 63.1 51.04 52.27 65.41 51.65 65.4 51.02 65.39"/><polygon points="54.99 65.16 64.71 52.25 65.12 52.56 65.52 52.86 55.8 65.77 55.39 65.46 54.99 65.16"/><g class="cls-1"><text class="cls-2" transform="translate(62.7 49.63) rotate(1.62)">N</text></g><polygon points="71.99 46.47 90.67 52.9 90.72 53.45 90.2 53.81 71.66 47.42 71.82 46.95 71.99 46.47"/></svg>