<svg id="图层_1" data-name="图层 1" xmlns="http://www.w3.org/2000/svg" viewBox="0 0 200 130"><defs><style>.cls-1,.cls-2{isolation:isolate;}.cls-2{font-size:8.43px;font-family:ArialMT, Arial;}</style></defs><title>Theophylline_Simi_compound1</title><polygon points="97.5 23.65 97.82 38.51 97.44 38.51 97.07 38.52 96.75 23.67 97.13 23.66 97.5 23.65"/><g class="cls-1"><text class="cls-2" transform="matrix(0.98, 0.01, -0.01, 1, 94.52, 46.15)">N</text></g><polygon points="93.98 45.42 81.92 52.9 81.54 52.68 81.48 52.27 93.59 44.76 93.78 45.09 93.98 45.42"/><polygon points="81.92 52.9 82.31 71.56 81.95 71.78 81.57 71.52 81.17 52.97 81.54 52.68 81.92 52.9"/><polygon points="79.7 54.39 80.04 70.16 79.67 70.17 79.29 70.18 78.95 54.41 79.33 54.4 79.7 54.39"/><polygon points="82.31 71.56 98.34 80.53 98.35 80.97 98.36 81.41 81.91 72.2 81.95 71.78 82.31 71.56"/><polygon points="99.84 80.27 100.17 95.79 99.79 95.8 99.42 95.8 99.09 80.29 99.46 80.28 99.84 80.27"/><polygon points="97.59 80.33 97.92 95.84 97.55 95.85 97.17 95.85 96.84 80.34 97.22 80.33 97.59 80.33"/><g class="cls-1"><text class="cls-2" transform="matrix(0.98, 0.01, -0.01, 1, 95.52, 103.45)">O</text></g><polygon points="98.34 80.53 110.41 73.05 110.6 73.38 110.8 73.7 98.36 81.41 98.35 80.97 98.34 80.53"/><g class="cls-1"><text class="cls-2" transform="matrix(0.98, 0.01, -0.01, 1, 111.34, 74.44)">N</text></g><polygon points="113.89 66.81 113.57 52.17 113.94 51.95 114.31 51.72 114.63 66.79 114.26 66.8 113.89 66.81"/><polygon points="112.61 50.98 125.18 43.19 125.38 43.52 125.57 43.84 113 51.64 112.81 51.31 112.61 50.98"/><polygon points="113.78 52.94 126.35 45.15 126.54 45.48 126.73 45.8 114.16 53.6 113.97 53.27 113.78 52.94"/><g class="cls-1"><text class="cls-2" transform="matrix(0.98, 0.01, -0.01, 1, 126.7, 45.41)">O</text></g><polygon points="113.57 52.17 101.06 45.17 101.24 44.84 101.42 44.51 114.31 51.72 113.94 51.95 113.57 52.17"/><polygon points="118.24 72.79 130.94 79.9 130.76 80.23 130.58 80.57 117.88 73.46 118.06 73.13 118.24 72.79"/><polygon points="81.91 72.2 68.14 77.12 68.02 76.76 67.9 76.4 81.57 71.52 81.95 71.78 81.91 72.2"/><g class="cls-1"><text class="cls-2" transform="matrix(0.98, 0.01, -0.01, 1, 61.27, 81.48)">N</text></g><g class="cls-1"><text class="cls-2" transform="matrix(0.98, 0.01, -0.01, 1, 61.2, 89.17)">H</text></g><polygon points="60.79 74.05 52.49 62.9 52.95 62.89 53.41 62.88 61.39 73.58 61.09 73.81 60.79 74.05"/><polygon points="52.49 62.9 60.44 51.19 60.75 51.41 61.06 51.63 53.41 62.88 52.95 62.89 52.49 62.9"/><polygon points="55.42 62.61 62.29 52.5 62.59 52.72 62.9 52.93 56.03 63.04 55.73 62.83 55.42 62.61"/><g class="cls-1"><text class="cls-2" transform="matrix(0.98, 0.01, -0.01, 1, 60.61, 50.57)">N</text></g><polygon points="67.44 47.96 81.48 52.27 81.54 52.68 81.17 52.97 67.23 48.69 67.33 48.33 67.44 47.96"/></svg>