<svg id="图层_1" data-name="图层 1" xmlns="http://www.w3.org/2000/svg" viewBox="0 0 200 130"><defs><style>.cls-1,.cls-2{isolation:isolate;}.cls-2{font-size:10.79px;font-family:ArialMT, Arial;}</style></defs><title>Theophylline_Simi_compound4</title><polygon points="114.97 8.69 115.19 27.71 114.7 27.72 114.22 27.72 113.99 8.71 114.48 8.7 114.97 8.69"/><g class="cls-1"><text class="cls-2" transform="translate(110.8 37.46) rotate(1)">N</text></g><polygon points="110.09 36.5 94.23 45.92 93.73 45.64 93.67 45.11 109.59 35.66 109.84 36.08 110.09 36.5"/><polygon points="94.23 45.92 94.51 69.81 94.03 70.1 93.53 69.75 93.25 46.01 93.73 45.64 94.23 45.92"/><polygon points="91.31 47.81 91.56 68 91.07 68 90.58 68.01 90.34 47.82 90.83 47.81 91.31 47.81"/><polygon points="94.51 69.81 115.35 81.51 115.36 82.08 115.36 82.64 93.98 70.64 94.03 70.1 94.51 69.81"/><polygon points="117.31 81.21 117.54 101.07 117.05 101.08 116.56 101.08 116.33 81.22 116.82 81.21 117.31 81.21"/><polygon points="114.37 81.24 114.61 101.11 114.12 101.11 113.63 101.12 113.39 81.25 113.88 81.25 114.37 81.24"/><g class="cls-1"><text class="cls-2" transform="translate(111.38 110.83) rotate(1)">O</text></g><polygon points="115.35 81.51 131.22 72.1 131.47 72.52 131.72 72.94 115.36 82.64 115.36 82.08 115.35 81.51"/><g class="cls-1"><text class="cls-2" transform="translate(132.42 73.9) rotate(1)">N</text></g><polygon points="135.84 64.16 135.62 45.42 136.1 45.13 136.59 44.85 136.82 64.15 136.33 64.15 135.84 64.16"/><polygon points="134.37 43.88 150.91 34.07 151.16 34.49 151.41 34.91 134.87 44.73 134.62 44.3 134.37 43.88"/><polygon points="135.87 46.41 152.41 36.6 152.66 37.02 152.91 37.44 136.37 47.25 136.12 46.83 135.87 46.41"/><g class="cls-1"><text class="cls-2" transform="translate(152.86 36.95) rotate(1)">O</text></g><polygon points="135.62 45.42 119.36 36.3 119.6 35.87 119.83 35.44 136.59 44.85 136.1 45.13 135.62 45.42"/><polygon points="141.46 71.88 157.96 81.14 157.72 81.57 157.49 82 140.98 72.73 141.22 72.31 141.46 71.88"/><polygon points="93.98 70.64 75.92 76.75 75.76 76.28 75.6 75.82 93.53 69.75 94.03 70.1 93.98 70.64"/><g class="cls-1"><text class="cls-2" transform="translate(66.89 82.24) rotate(1)">N</text></g><g class="cls-1"><text class="cls-2" transform="translate(66.72 92.09) rotate(1)">H</text></g><polygon points="66.36 72.72 56 58.82 56.24 58.33 56.85 58.32 67.14 72.14 66.75 72.43 66.36 72.72"/><polygon points="55.99 57.84 66.17 43.46 66.57 43.74 66.97 44.02 56.85 58.32 56.24 58.33 55.99 57.84"/><polygon points="59.47 58 68.57 45.15 68.97 45.44 69.37 45.72 60.27 58.56 59.87 58.28 59.47 58"/><g class="cls-1"><text class="cls-2" transform="translate(66.41 42.67) rotate(1)">N</text></g><polygon points="75.38 39.41 93.67 45.11 93.73 45.64 93.25 46.01 75.08 40.34 75.23 39.88 75.38 39.41"/><polygon points="56 58.82 37.86 59.04 37.85 58.55 37.85 58.06 55.99 57.84 56.24 58.33 56 58.82"/><g class="cls-1"><text class="cls-2" transform="translate(26.68 64.14)">Cl</text></g></svg>