<svg id="图层_1" data-name="图层 1" xmlns="http://www.w3.org/2000/svg" viewBox="0 0 200 130"><defs><style>.cls-1,.cls-2{isolation:isolate;}.cls-2{font-size:10.46px;font-family:ArialMT, Arial;}</style></defs><title>Theophylline_Simi_compound8</title><polygon points="120.36 11.86 120.52 30.31 120.05 30.31 119.57 30.32 119.41 11.87 119.88 11.86 120.36 11.86"/><g class="cls-1"><text class="cls-2" transform="translate(116.31 39.83)">N</text></g><polygon points="115.61 38.78 100.13 47.9 99.65 47.63 99.59 47.12 115.13 37.96 115.37 38.37 115.61 38.78"/><polygon points="100.13 47.9 100.34 71.07 99.86 71.35 99.39 71.01 99.18 47.98 99.65 47.63 100.13 47.9"/><polygon points="97.3 49.72 97.47 69.31 97 69.31 96.52 69.31 96.35 49.73 96.83 49.72 97.3 49.72"/><polygon points="100.34 71.07 120.51 82.48 120.51 83.03 120.52 83.58 99.81 71.87 99.86 71.35 100.34 71.07"/><polygon points="122.41 82.19 122.58 101.46 122.1 101.46 121.63 101.47 121.46 82.2 121.93 82.2 122.41 82.19"/><polygon points="119.56 82.22 119.73 101.48 119.25 101.49 118.78 101.49 118.61 82.23 119.08 82.22 119.56 82.22"/><g class="cls-1"><text class="cls-2" transform="translate(116.66 110.99)">O</text></g><polygon points="120.51 82.48 135.99 73.36 136.23 73.77 136.47 74.18 120.52 83.58 120.51 83.03 120.51 82.48"/><g class="cls-1"><text class="cls-2" transform="translate(137.18 75.23)">N</text></g><polygon points="140.43 65.72 140.27 47.54 140.74 47.27 141.22 46.99 141.38 65.71 140.91 65.71 140.43 65.72"/><polygon points="139.07 46.05 155.2 36.55 155.44 36.95 155.68 37.36 139.55 46.87 139.31 46.46 139.07 46.05"/><polygon points="140.52 48.5 156.64 39 156.88 39.41 157.13 39.81 141 49.32 140.76 48.91 140.52 48.5"/><g class="cls-1"><text class="cls-2" transform="translate(157.11 39.46)">O</text></g><polygon points="140.27 47.54 124.58 38.67 124.82 38.26 125.05 37.85 141.22 46.99 140.74 47.27 140.27 47.54"/><polygon points="145.91 73.25 161.84 82.25 161.6 82.67 161.37 83.08 145.44 74.08 145.68 73.66 145.91 73.25"/><polygon points="99.81 71.87 82.25 77.75 82.09 77.3 81.94 76.85 99.39 71.01 99.86 71.35 99.81 71.87"/><g class="cls-1"><text class="cls-2" transform="translate(73.59 83.12)">N</text></g><g class="cls-1"><text class="cls-2" transform="translate(73.59 92.67)">H</text></g><polygon points="73.08 73.89 62.67 59.82 63.26 59.82 63.84 59.81 73.84 73.33 73.46 73.61 73.08 73.89"/><polygon points="64.31 61.7 44.56 61.88 44.56 61.41 44.56 60.93 64.3 60.76 64.3 61.23 64.31 61.7"/><polygon points="64.28 58.86 44.54 59.03 44.53 58.56 44.53 58.09 64.27 57.91 64.28 58.38 64.28 58.86"/><g class="cls-1"><text class="cls-2" transform="translate(35.46 64.26)">O</text></g><polygon points="62.67 59.82 72.88 45.5 73.27 45.78 73.65 46.05 63.84 59.81 63.26 59.82 62.67 59.82"/><g class="cls-1"><text class="cls-2" transform="translate(73.25 36.08)">H</text></g><g class="cls-1"><text class="cls-2" transform="translate(73.25 45.63)">N</text></g><polygon points="81.89 41.54 99.59 47.12 99.65 47.63 99.18 47.98 81.61 42.44 81.75 41.99 81.89 41.54"/></svg>