<svg id="图层_1" data-name="图层 1" xmlns="http://www.w3.org/2000/svg" viewBox="0 0 200 130"><defs><style>.cls-1,.cls-2{isolation:isolate;}.cls-2{font-size:12.24px;font-family:ArialMT, Arial;}</style></defs><title>Theophylline_Simi_compound2</title><polygon points="154.97 40.4 136.97 51.59 136.67 51.12 136.38 50.65 154.38 39.46 154.68 39.93 154.97 40.4"/><g class="cls-1"><text class="cls-2" transform="matrix(1, 0.01, -0.01, 1, 126.62, 59.48)">N</text></g><polygon points="125.34 52.13 106.64 42.13 106.62 41.49 106.6 40.85 125.87 51.15 125.61 51.64 125.34 52.13"/><polygon points="104.43 42.52 103.7 19.99 104.26 19.97 104.81 19.95 105.54 42.48 104.99 42.5 104.43 42.52"/><polygon points="107.76 42.41 107.03 19.88 107.59 19.86 108.14 19.85 108.87 42.38 108.32 42.39 107.76 42.41"/><g class="cls-1"><text class="cls-2" transform="matrix(1, 0.01, -0.01, 1, 100.9, 18.64)">O</text></g><polygon points="106.64 42.13 83.61 56.44 83.05 56.14 82.96 55.53 106.6 40.85 106.62 41.49 106.64 42.13"/><polygon points="83.61 56.44 84.49 83.54 83.94 83.88 83.38 83.5 82.5 56.56 83.05 56.14 83.61 56.44"/><polygon points="80.35 58.65 81.09 81.55 80.54 81.57 79.98 81.59 79.24 58.68 79.8 58.66 80.35 58.65"/><polygon points="84.49 83.54 103.19 93.55 102.93 94.03 102.67 94.52 83.9 84.49 83.94 83.88 84.49 83.54"/><g class="cls-1"><text class="cls-2" transform="matrix(1, 0.01, -0.01, 1, 103.95, 101.88)">N</text></g><g class="cls-1"><text class="cls-2" transform="matrix(1, 0.01, -0.01, 1, 103.82, 113.05)">H</text></g><polygon points="113.7 93.04 131.43 82.02 132 82.33 132.56 82.63 114.29 93.98 113.99 93.51 113.7 93.04"/><polygon points="132.2 79.91 151.69 90.34 151.43 90.83 151.17 91.32 131.68 80.89 131.94 80.4 132.2 79.91"/><polygon points="130.63 82.85 150.12 93.27 149.86 93.76 149.6 94.25 130.1 83.83 130.37 83.34 130.63 82.85"/><g class="cls-1"><text class="cls-2" transform="matrix(1, 0.01, -0.01, 1, 151.66, 100.32)">O</text></g><polygon points="131.43 82.02 130.75 60.77 131.3 60.76 131.86 60.74 132.56 82.63 132 82.33 131.43 82.02"/><polygon points="83.9 84.49 63.58 91.83 63.39 91.31 63.2 90.78 83.38 83.5 83.94 83.88 83.9 84.49"/><g class="cls-1"><text class="cls-2" transform="matrix(1, 0.01, -0.01, 1, 53.36, 98.22)">N</text></g><polygon points="52.56 87.42 40.12 71.42 40.8 71.39 41.49 71.37 53.43 86.74 52.99 87.08 52.56 87.42"/><polygon points="55.19 85.38 44.48 71.6 44.92 71.26 45.36 70.92 56.06 84.69 55.63 85.04 55.19 85.38"/><polygon points="40.12 71.42 51.77 54.23 52.23 54.55 52.69 54.86 41.49 71.37 40.8 71.39 40.12 71.42"/><g class="cls-1"><text class="cls-2" transform="matrix(1, 0.01, -0.01, 1, 52.02, 43.2)">H</text></g><g class="cls-1"><text class="cls-2" transform="matrix(1, 0.01, -0.01, 1, 51.89, 54.37)">N</text></g><polygon points="62.05 49.48 82.96 55.53 83.05 56.14 82.5 56.56 61.74 50.55 61.89 50.02 62.05 49.48"/></svg>