<svg id="图层_1" data-name="图层 1" xmlns="http://www.w3.org/2000/svg" viewBox="0 0 200 130"><defs><style>.cls-1,.cls-2{isolation:isolate;}.cls-2{font-size:10.79px;font-family:ArialMT, Arial;}</style></defs><title>Theophylline_Simi_compound3</title><polygon points="99.83 14.4 100.03 33.43 99.54 33.43 99.05 33.44 98.85 14.41 99.34 14.4 99.83 14.4"/><g class="cls-1"><text class="cls-2" transform="translate(95.71 43.24)">N</text></g><polygon points="94.98 42.18 79.04 51.61 78.55 51.33 78.49 50.8 94.48 41.34 94.73 41.76 94.98 42.18"/><polygon points="79.04 51.61 79.3 75.51 78.81 75.8 78.32 75.45 78.06 51.7 78.55 51.33 79.04 51.61"/><polygon points="76.13 53.49 76.34 73.69 75.85 73.7 75.36 73.7 75.15 53.51 75.64 53.5 76.13 53.49"/><polygon points="79.3 75.51 100.13 87.24 100.14 87.8 100.14 88.37 78.76 76.33 78.81 75.8 79.3 75.51"/><polygon points="102.08 86.94 102.3 106.81 101.81 106.81 101.32 106.82 101.1 86.94 101.59 86.94 102.08 86.94"/><polygon points="99.15 86.97 99.36 106.84 98.87 106.84 98.38 106.85 98.17 86.98 98.66 86.97 99.15 86.97"/><g class="cls-1"><text class="cls-2" transform="translate(96.2 116.64)">O</text></g><polygon points="100.13 87.24 116.07 77.81 116.31 78.23 116.56 78.65 100.14 88.37 100.14 87.8 100.13 87.24"/><g class="cls-1"><text class="cls-2" transform="translate(117.29 79.71)">N</text><text class="cls-2" transform="translate(125.09 79.71)">H</text></g><polygon points="120.64 69.91 120.44 51.16 120.92 50.87 121.41 50.59 121.62 69.89 121.13 69.9 120.64 69.91"/><polygon points="119.2 49.62 135.81 39.79 136.06 40.21 136.31 40.63 119.7 50.46 119.45 50.04 119.2 49.62"/><polygon points="120.69 52.15 137.3 42.32 137.55 42.74 137.8 43.16 121.19 52.99 120.94 52.57 120.69 52.15"/><g class="cls-1"><text class="cls-2" transform="translate(137.78 42.78)">O</text></g><polygon points="120.44 51.16 104.24 42.04 104.48 41.62 104.72 41.19 121.41 50.59 120.92 50.87 120.44 51.16"/><polygon points="78.76 76.33 60.66 82.43 60.5 81.97 60.34 81.51 78.32 75.45 78.81 75.8 78.76 76.33"/><g class="cls-1"><text class="cls-2" transform="translate(51.73 87.98)">N</text></g><g class="cls-1"><text class="cls-2" transform="translate(51.73 97.83)">H</text></g><polygon points="51.19 78.46 40.43 63.98 41.03 63.98 41.64 63.97 51.98 77.88 51.58 78.17 51.19 78.46"/><polygon points="40.43 63.98 50.94 49.19 51.33 49.47 51.73 49.75 41.64 63.97 41.03 63.98 40.43 63.98"/><polygon points="44.26 63.65 53.33 50.88 53.73 51.17 54.13 51.45 45.06 64.22 44.66 63.94 44.26 63.65"/><g class="cls-1"><text class="cls-2" transform="translate(51.3 48.4)">N</text></g><polygon points="60.22 45.09 78.49 50.8 78.55 51.33 78.06 51.7 59.93 46.02 60.07 45.55 60.22 45.09"/></svg>