<svg id="图层_1" data-name="图层 1" xmlns="http://www.w3.org/2000/svg" viewBox="0 0 200 131.96"><defs><style>.cls-1,.cls-2{isolation:isolate;}.cls-2{font-size:10.03px;font-family:ArialMT, Arial;}</style></defs><title>Theophylline_Simi_compound6</title><polygon points="136.44 107.06 130.84 90.6 131.27 90.45 131.7 90.3 137.3 106.77 136.87 106.92 136.44 107.06"/><g class="cls-1"><text class="cls-2" transform="translate(125.93 89.45)">N</text></g><polygon points="132.74 80.07 142.09 66.82 142.65 66.81 143.22 66.81 133.49 80.6 133.11 80.34 132.74 80.07"/><polygon points="138.92 67.13 130.27 55.57 130.63 55.3 131 55.03 139.65 66.59 139.28 66.86 138.92 67.13"/><polygon points="139.91 68.46 130.27 55.57 130.63 55.3 131 55.03 141.03 68.44 140.47 68.45 139.91 68.46"/><g class="cls-1"><text class="cls-2" transform="translate(125.42 52.67)">N</text></g><polygon points="124.65 50.58 107.97 56.26 107.51 55.93 107.56 55.44 124.36 49.72 124.51 50.15 124.65 50.58"/><polygon points="107.97 56.26 108.28 78.33 107.83 78.67 107.37 78.41 107.06 56.2 107.51 55.93 107.97 56.26"/><polygon points="105.26 57.54 105.53 77.12 105.08 77.13 104.62 77.14 104.35 57.55 104.81 57.55 105.26 57.54"/><polygon points="107.89 79.16 88.3 90.83 88.3 90.31 88.29 89.78 107.37 78.41 107.83 78.67 107.89 79.16"/><polygon points="90.1 89.5 90.36 107.96 89.91 107.97 89.45 107.97 89.19 89.51 89.65 89.5 90.1 89.5"/><polygon points="87.38 89.53 87.63 108 87.18 108 86.72 108.01 86.47 89.55 86.92 89.54 87.38 89.53"/><g class="cls-1"><text class="cls-2" transform="translate(84.71 117.1)">O</text></g><polygon points="88.3 90.83 72.76 82.14 72.98 81.75 73.2 81.35 88.29 89.78 88.3 90.31 88.3 90.83"/><g class="cls-1"><text class="cls-2" transform="translate(64.83 83.28)">N</text></g><polygon points="67.92 74.17 67.67 56.22 68.13 56.48 68.59 56.74 68.83 74.15 68.38 74.16 67.92 74.17"/><polygon points="67.93 58.45 52.21 49.66 52.43 49.27 52.65 48.87 68.38 57.66 68.15 58.05 67.93 58.45"/><polygon points="69.26 56.07 53.54 47.28 53.76 46.88 53.98 46.49 69.71 55.28 69.49 55.67 69.26 56.07"/><g class="cls-1"><text class="cls-2" transform="translate(44.39 49.45)">O</text></g><polygon points="67.67 56.22 82.9 47.15 83.14 47.54 83.37 47.93 68.59 56.74 68.13 56.48 67.67 56.22"/><g class="cls-1"><text class="cls-2" transform="translate(84.05 48.9)">N</text></g><polygon points="87.14 39.79 86.89 22.11 87.35 22.1 87.8 22.1 88.05 39.78 87.59 39.78 87.14 39.79"/><polygon points="92.42 46.98 107.56 55.44 107.51 55.93 107.06 56.2 91.97 47.77 92.19 47.37 92.42 46.98"/><polygon points="64.15 82.31 49.15 91.25 48.92 90.86 48.68 90.47 63.69 81.52 63.92 81.92 64.15 82.31"/><polygon points="108.28 78.33 125.15 83.56 125.02 83.99 124.88 84.42 107.89 79.16 107.83 78.67 108.28 78.33"/></svg>