<svg id="图层_1" data-name="图层 1" xmlns="http://www.w3.org/2000/svg" viewBox="0 0 200 130"><defs><style>.cls-1,.cls-2{isolation:isolate;}.cls-2{font-size:8.99px;font-family:ArialMT, Arial;}</style></defs><title>Theophylline_Simi_compound9</title><polygon points="141.4 93.73 136.37 78.98 136.76 78.84 137.14 78.71 142.17 93.47 141.78 93.6 141.4 93.73"/><g class="cls-1"><text class="cls-2" transform="translate(131.97 77.95)">N</text></g><polygon points="138.08 69.55 146.46 57.67 146.96 57.66 147.46 57.65 138.74 70.02 138.41 69.78 138.08 69.55"/><polygon points="143.61 57.95 135.86 47.59 136.19 47.34 136.51 47.1 144.26 57.46 143.94 57.7 143.61 57.95"/><polygon points="146.46 57.67 137.82 46.12 138.14 45.88 138.47 45.63 147.46 57.65 146.96 57.66 146.46 57.67"/><g class="cls-1"><text class="cls-2" transform="translate(131.51 44.99)">N</text></g><polygon points="130.82 43.11 115.88 48.2 115.46 47.91 115.5 47.47 130.56 42.34 130.69 42.73 130.82 43.11"/><polygon points="115.88 48.2 116.15 67.99 115.75 68.29 115.34 68.06 115.06 48.16 115.46 47.91 115.88 48.2"/><polygon points="113.45 49.35 113.69 66.91 113.28 66.91 112.88 66.92 112.63 49.37 113.04 49.36 113.45 49.35"/><polygon points="115.8 68.73 102.52 76.65 102.31 76.3 102.1 75.95 115.34 68.06 115.75 68.29 115.8 68.73"/><g class="cls-1"><text class="cls-2" transform="translate(95 82.36)">N</text></g><polygon points="93.99 76.81 80.06 69.03 80.46 68.78 80.86 68.54 94.39 76.1 94.19 76.45 93.99 76.81"/><polygon points="81.9 69.82 68.1 78.05 67.89 77.7 67.68 77.35 81.48 69.12 81.69 69.47 81.9 69.82"/><polygon points="80.65 67.72 66.85 75.95 66.64 75.6 66.43 75.25 80.23 67.02 80.44 67.37 80.65 67.72"/><g class="cls-1"><text class="cls-2" transform="translate(59.46 82.86)">O</text></g><polygon points="80.06 69.03 79.83 52.95 80.24 52.94 80.64 52.94 80.86 68.54 80.46 68.78 80.06 69.03"/><g class="cls-1"><text class="cls-2" transform="translate(76.93 52.05)">N</text></g><polygon points="84.02 45.64 97.67 37.51 97.68 37.98 97.68 38.45 84.44 46.34 84.23 45.99 84.02 45.64"/><polygon points="96.06 38.7 95.82 22.16 96.23 22.15 96.64 22.14 96.87 38.69 96.46 38.7 96.06 38.7"/><polygon points="98.5 38.67 98.27 22.12 98.68 22.11 99.08 22.11 99.32 38.66 98.91 38.66 98.5 38.67"/><g class="cls-1"><text class="cls-2" transform="translate(93.89 21.24)">O</text></g><polygon points="97.67 37.51 115.5 47.47 115.46 47.91 115.06 48.16 97.68 38.45 97.68 37.98 97.67 37.51"/><polygon points="75.92 46.5 62.19 38.83 62.39 38.47 62.59 38.11 76.31 45.78 76.11 46.14 75.92 46.5"/><polygon points="98.72 83.25 98.94 99.09 98.53 99.1 98.13 99.1 97.9 83.26 98.31 83.26 98.72 83.25"/><polygon points="116.15 67.99 131.28 72.67 131.16 73.06 131.03 73.45 115.8 68.73 115.75 68.29 116.15 67.99"/></svg>